<svg version="1.1" viewBox="0.0 0.0 1039.3937007874015 436.36482939632543" fill="none" stroke="none" stroke-linecap="square" stroke-miterlimit="10" xmlns:xlink="http://www.w3.org/1999/xlink" xmlns="http://www.w3.org/2000/svg"><clipPath id="p.0"><path d="m0 0l1039.3937 0l0 436.36484l-1039.3937 0l0 -436.36484z" clip-rule="nonzero"/></clipPath><g clip-path="url(#p.0)"><path fill="#000000" fill-opacity="0.0" d="m0 0l1039.3937 0l0 436.36484l-1039.3937 0z" fill-rule="evenodd"/><path fill="#000000" fill-opacity="0.0" d="m21.664036 216.3307l0 0c0 -107.15193 86.863815 -194.01575 194.01575 -194.01575l0 0c51.456177 0 100.80484 20.440887 137.18985 56.825893c36.38501 36.385017 56.825897 85.73367 56.825897 137.18985l0 0c0 107.15193 -86.8638 194.01576 -194.01575 194.01576l0 0c-107.15193 0 -194.01575 -86.86383 -194.01575 -194.01576z" fill-rule="evenodd"/><path stroke="#000000" stroke-width="24.0" stroke-linejoin="round" stroke-linecap="butt" d="m21.664036 216.3307l0 0c0 -107.15193 86.863815 -194.01575 194.01575 -194.01575l0 0c51.456177 0 100.80484 20.440887 137.18985 56.825893c36.38501 36.385017 56.825897 85.73367 56.825897 137.18985l0 0c0 107.15193 -86.8638 194.01576 -194.01575 194.01576l0 0c-107.15193 0 -194.01575 -86.86383 -194.01575 -194.01576z" fill-rule="evenodd"/><path fill="#ea9999" d="m128.04199 216.30971l0 0c0 -49.07071 39.77968 -88.85039 88.8504 -88.85039l0 0c23.56459 0 46.164032 9.360992 62.82672 26.023682c16.662659 16.662674 26.023651 39.262115 26.023651 62.826706l0 0c0 49.070724 -39.779663 88.85039 -88.85037 88.85039l0 0c-49.070724 0 -88.8504 -39.779663 -88.8504 -88.85039z" fill-rule="evenodd"/><path stroke="#000000" stroke-width="24.0" stroke-linejoin="round" stroke-linecap="butt" d="m128.04199 216.30971l0 0c0 -49.07071 39.77968 -88.85039 88.8504 -88.85039l0 0c23.56459 0 46.164032 9.360992 62.82672 26.023682c16.662659 16.662674 26.023651 39.262115 26.023651 62.826706l0 0c0 49.070724 -39.779663 88.85039 -88.85037 88.85039l0 0c-49.070724 0 -88.8504 -39.779663 -88.8504 -88.85039z" fill-rule="evenodd"/><path fill="#3d85c6" d="m305.74277 355.8156l0 0c0 -28.753601 23.309418 -52.06302 52.06302 -52.06302l0 0c13.807953 0 27.050385 5.485199 36.814087 15.248901c9.763702 9.763702 15.248901 23.006134 15.248901 36.814117l0 0c0 28.75357 -23.309418 52.06299 -52.06299 52.06299l0 0c-28.753601 0 -52.06302 -23.309418 -52.06302 -52.06299z" fill-rule="evenodd"/><path stroke="#000000" stroke-width="16.0" stroke-linejoin="round" stroke-linecap="butt" d="m305.74277 355.8156l0 0c0 -28.753601 23.309418 -52.06302 52.06302 -52.06302l0 0c13.807953 0 27.050385 5.485199 36.814087 15.248901c9.763702 9.763702 15.248901 23.006134 15.248901 36.814117l0 0c0 28.75357 -23.309418 52.06299 -52.06299 52.06299l0 0c-28.753601 0 -52.06302 -23.309418 -52.06302 -52.06299z" fill-rule="evenodd"/><path fill="#6aa84f" d="m21.89581 79.43606l0 0c0 -28.753601 23.309395 -52.062996 52.062992 -52.062996l0 0c13.8079605 0 27.050392 5.4851913 36.814095 15.248898c9.763702 9.763706 15.248894 23.00613 15.248894 36.8141l0 0c0 28.753593 -23.309395 52.062996 -52.06299 52.062996l0 0c-28.753597 0 -52.062992 -23.309402 -52.062992 -52.062996z" fill-rule="evenodd"/><path stroke="#000000" stroke-width="16.0" stroke-linejoin="round" stroke-linecap="butt" d="m21.89581 79.43606l0 0c0 -28.753601 23.309395 -52.062996 52.062992 -52.062996l0 0c13.8079605 0 27.050392 5.4851913 36.814095 15.248898c9.763702 9.763706 15.248894 23.00613 15.248894 36.8141l0 0c0 28.753593 -23.309395 52.062996 -52.06299 52.062996l0 0c-28.753597 0 -52.062992 -23.309402 -52.062992 -52.062996z" fill-rule="evenodd"/><path fill="#000000" fill-opacity="0.0" d="m413.97638 216.3307l608.25195 0" fill-rule="evenodd"/><path stroke="#000000" stroke-width="24.0" stroke-linejoin="round" stroke-linecap="butt" d="m413.97638 216.3307l464.25195 0" fill-rule="evenodd"/><path fill="#000000" stroke="#000000" stroke-width="24.0" stroke-linecap="butt" d="m878.22833 255.97229l108.91437 -39.641586l-108.91437 -39.64157z" fill-rule="evenodd"/><path fill="#000000" fill-opacity="0.0" d="m442.15 -3.4320366l447.46457 0l0 403.02362l-447.46457 0z" fill-rule="evenodd"/><path fill="#000000" d="m514.7438 180.36795q-13.0000305 0 -23.703156 -3.203125q-10.6875 -3.203125 -19.0 -9.390625q-8.296875 -6.203125 -14.890625 -15.0l18.796875 -21.40625q9.796875 13.59375 19.5 18.5q9.703125 4.90625 21.109406 4.90625q6.1875 0 11.09375 -1.796875q4.90625 -1.8125 7.703125 -4.90625q2.796875 -3.109375 2.796875 -7.5q0 -3.203125 -1.40625 -5.90625q-1.390625 -2.703125 -4.0 -4.796875q-2.59375 -2.09375 -6.203125 -3.796875q-3.59375 -1.703125 -8.0 -3.0q-4.390625 -1.296875 -9.5937805 -2.109375q-11.203125 -2.59375 -19.609375 -6.296875q-8.390625 -3.703125 -14.0 -9.203125q-5.59375 -5.5 -8.296875 -12.5q-2.6875 -7.0 -2.6875 -15.796875q0 -9.0 4.0 -16.6875q4.0 -7.703125 11.09375 -13.296875q7.109375 -5.609375 16.40625 -8.609375q9.296875 -3.0 19.703156 -3.0q12.796875 0 22.390625 2.796875q9.609375 2.796875 16.703125 8.296875q7.09375 5.5 11.90625 13.296875l-19.0 18.40625q-4.203125 -5.59375 -9.109375 -9.390625q-4.890625 -3.8125 -10.59375 -5.703125q-5.703125 -1.90625 -11.703125 -1.90625q-6.5937805 0 -11.4062805 1.703125q-4.796875 1.703125 -7.5 5.0q-2.6875 3.296875 -2.6875 7.703125q0 3.59375 1.796875 6.390625q1.796875 2.796875 5.1875 4.90625q3.40625 2.09375 8.203125 3.703125q4.8125305 1.59375 10.6094055 2.796875q11.0 2.203125 19.796875 5.796875q8.796875 3.59375 15.09375 8.703125q6.3125 5.09375 9.703125 12.0q3.40625 6.890625 3.40625 15.5q0 14.203125 -6.8125 24.203125q-6.796875 10.0 -18.796875 15.296875q-12.0 5.296875 -28.0 5.296875zm80.80939 -2.0l0 -140.0l94.59375 0l0 26.40625l-65.203125 0l0 87.1875l66.609375 0l0 26.40625l-96.0 0zm14.0 -58.59375l0 -25.609375l71.0 0l0 25.609375l-71.0 0zm113.00006 58.59375l0 -140.0l94.59375 0l0 26.40625l-65.203125 0l0 87.1875l66.609375 0l0 26.40625l-96.0 0zm14.0 -58.59375l0 -25.609375l71.0 0l0 25.609375l-71.0 0z" fill-rule="nonzero"/><path fill="#000000" d="m469.35312 394.36795l0 -140.0l62.00003 0q13.0 0 23.59375 5.90625q10.609375 5.890625 16.703125 15.890625q6.09375 10.0 6.09375 22.796875q0 12.609375 -6.09375 22.90625q-6.09375 10.296875 -16.703125 16.296875q-10.59375 6.0 -23.59375 6.0l-33.00003 0l0 50.203125l-29.0 0zm79.390656 0l-35.59375 -63.203125l30.796875 -5.0l39.609375 68.40625l-34.8125 -0.203125zm-50.390656 -74.59375l31.59378 0q5.40625 0 9.5 -2.5q4.109375 -2.5 6.296875 -7.0q2.203125 -4.5 2.203125 -10.109375q0 -6.0 -2.609375 -10.390625q-2.59375 -4.40625 -7.59375 -6.90625q-5.0 -2.5 -11.59375 -2.5l-27.796906 0l0 39.40625zm111.00003 74.59375l0 -140.0l94.59375 0l0 26.40625l-65.203125 0l0 87.1875l66.609375 0l0 26.40625l-96.0 0zm14.0 -58.59375l0 -25.609375l71.0 0l0 25.609375l-71.0 0zm113.00006 58.59375l0 -140.0l59.390625 0q12.609375 0 22.609375 5.90625q10.0 5.890625 15.890625 16.09375q5.90625 10.203125 5.90625 23.0q0 13.0 -5.90625 23.40625q-5.890625 10.390625 -15.890625 16.5q-10.0 6.09375 -22.609375 6.09375l-29.390625 0l0 49.0l-30.0 0zm29.59375 -76.0l26.40625 0q4.796875 0 8.59375 -2.5q3.796875 -2.5 6.09375 -6.703125q2.3125 -4.203125 2.3125 -9.59375q0 -5.40625 -2.3125 -9.40625q-2.296875 -4.0 -6.09375 -6.390625q-3.796875 -2.40625 -8.59375 -2.40625l-26.40625 0l0 37.0z" fill-rule="nonzero"/></g></svg>
