<svg version="1.1" viewBox="0.0 0.0 695.8766404199475 605.2624671916011" fill="none" stroke="none" stroke-linecap="square" stroke-miterlimit="10" xmlns:xlink="http://www.w3.org/1999/xlink" xmlns="http://www.w3.org/2000/svg"><clipPath id="p.0"><path d="m0 0l695.87665 0l0 605.26245l-695.87665 0l0 -605.26245z" clip-rule="nonzero"/></clipPath><g clip-path="url(#p.0)"><path fill="#000000" fill-opacity="0.0" d="m0 0l695.87665 0l0 605.26245l-695.87665 0z" fill-rule="evenodd"/><path fill="#ea9999" d="m200.66667 302.61154l0 0c0 -49.07071 39.77968 -88.85039 88.85039 -88.85039l0 0c23.564606 0 46.164032 9.360992 62.82672 26.023682c16.66269 16.662674 26.023682 39.26213 26.023682 62.826706l0 0c0 49.07071 -39.779694 88.8504 -88.8504 88.8504l0 0c-49.07071 0 -88.85039 -39.779694 -88.85039 -88.8504z" fill-rule="evenodd"/><path stroke="#000000" stroke-width="24.0" stroke-linejoin="round" stroke-linecap="butt" d="m200.66667 302.61154l0 0c0 -49.07071 39.77968 -88.85039 88.85039 -88.85039l0 0c23.564606 0 46.164032 9.360992 62.82672 26.023682c16.66269 16.662674 26.023682 39.26213 26.023682 62.826706l0 0c0 49.07071 -39.779694 88.8504 -88.8504 88.8504l0 0c-49.07071 0 -88.85039 -39.779694 -88.85039 -88.8504z" fill-rule="evenodd"/><path fill="#000000" fill-opacity="0.0" d="m94.2874 302.63123l0 0c0 -107.15193 86.8638 -194.01575 194.01573 -194.01575l0 0c51.456177 0 100.80484 20.44088 137.18985 56.82589c36.38504 36.385025 56.825897 85.73369 56.825897 137.18985l0 0c0 107.15195 -86.8638 194.01575 -194.01575 194.01575l0 0c-107.15193 0 -194.01573 -86.8638 -194.01573 -194.01575z" fill-rule="evenodd"/><path stroke="#000000" stroke-width="24.0" stroke-linejoin="round" stroke-linecap="butt" d="m94.2874 302.63123l0 0c0 -107.15193 86.8638 -194.01575 194.01573 -194.01575l0 0c51.456177 0 100.80484 20.44088 137.18985 56.82589c36.38504 36.385025 56.825897 85.73369 56.825897 137.18985l0 0c0 107.15195 -86.8638 194.01575 -194.01575 194.01575l0 0c-107.15193 0 -194.01573 -86.8638 -194.01573 -194.01575z" fill-rule="evenodd"/><path fill="#3d85c6" d="m378.36615 442.11612l0 0c0 -28.753601 23.309387 -52.06299 52.06299 -52.06299l0 0c13.807953 0 27.050385 5.485199 36.814087 15.248901c9.763702 9.763702 15.248901 23.006134 15.248901 36.814087l0 0c0 28.753601 -23.309387 52.06299 -52.06299 52.06299l0 0c-28.753601 0 -52.06299 -23.309387 -52.06299 -52.06299z" fill-rule="evenodd"/><path stroke="#000000" stroke-width="16.0" stroke-linejoin="round" stroke-linecap="butt" d="m378.36615 442.11612l0 0c0 -28.753601 23.309387 -52.06299 52.06299 -52.06299l0 0c13.807953 0 27.050385 5.485199 36.814087 15.248901c9.763702 9.763702 15.248901 23.006134 15.248901 36.814087l0 0c0 28.753601 -23.309387 52.06299 -52.06299 52.06299l0 0c-28.753601 0 -52.06299 -23.309387 -52.06299 -52.06299z" fill-rule="evenodd"/><path fill="#6aa84f" d="m94.519165 165.73657l0 0c0 -28.753586 23.309395 -52.06299 52.06299 -52.06299l0 0c13.807968 0 27.0504 5.485199 36.814102 15.248901c9.763702 9.763702 15.248901 23.006134 15.248901 36.814087l0 0c0 28.753601 -23.309402 52.063004 -52.063004 52.063004l0 0c-28.753593 0 -52.06299 -23.309402 -52.06299 -52.063004z" fill-rule="evenodd"/><path stroke="#000000" stroke-width="16.0" stroke-linejoin="round" stroke-linecap="butt" d="m94.519165 165.73657l0 0c0 -28.753586 23.309395 -52.06299 52.06299 -52.06299l0 0c13.807968 0 27.0504 5.485199 36.814102 15.248901c9.763702 9.763702 15.248901 23.006134 15.248901 36.814087l0 0c0 28.753601 -23.309402 52.063004 -52.063004 52.063004l0 0c-28.753593 0 -52.06299 -23.309402 -52.06299 -52.063004z" fill-rule="evenodd"/><path fill="#000000" fill-opacity="0.0" d="m486.59973 302.63123l43.77954 0" fill-rule="evenodd"/><path stroke="#000000" stroke-width="24.0" stroke-linejoin="round" stroke-linecap="butt" d="m486.59973 302.63123l43.77954 0" fill-rule="evenodd"/><path fill="#000000" stroke="#000000" stroke-width="24.0" stroke-linecap="butt" d="m530.3793 342.27283l108.91431 -39.6416l-108.91431 -39.64157z" fill-rule="evenodd"/></g></svg>
