<?xml version="1.0" encoding="UTF-8" standalone="no"?>
<!DOCTYPE svg PUBLIC "-//W3C//DTD SVG 1.1//EN"
 "http://www.w3.org/Graphics/SVG/1.1/DTD/svg11.dtd">
<!-- Generated by graphviz version 2.43.0 (0)
 -->
<!-- Title: seerep_msgs/core/aabb.h Pages: 1 -->
<svg width="340pt" height="151pt"
 viewBox="0.00 0.00 339.50 151.00" xmlns="http://www.w3.org/2000/svg" xmlns:xlink="http://www.w3.org/1999/xlink">
<g id="graph0" class="graph" transform="scale(1 1) rotate(0) translate(4 147)">
<title>seerep_msgs/core/aabb.h</title>
<!-- Node1 -->
<g id="node1" class="node">
<title>Node1</title>
<g id="a_node1"><a xlink:title=" ">
<polygon fill="#bfbfbf" stroke="black" points="89,-123.5 89,-142.5 230,-142.5 230,-123.5 89,-123.5"/>
<text text-anchor="middle" x="159.5" y="-130.5" font-family="Helvetica,sans-Serif" font-size="10.00">seerep_msgs/core/aabb.h</text>
</a>
</g>
</g>
<!-- Node2 -->
<g id="node2" class="node">
<title>Node2</title>
<g id="a_node2"><a xlink:href="dataset__indexable_8h.html" target="_top" xlink:title=" ">
<polygon fill="none" stroke="black" points="0,-56.5 0,-86.5 145,-86.5 145,-56.5 0,-56.5"/>
<text text-anchor="start" x="8" y="-74.5" font-family="Helvetica,sans-Serif" font-size="10.00">seerep_msgs/core/dataset</text>
<text text-anchor="middle" x="72.5" y="-63.5" font-family="Helvetica,sans-Serif" font-size="10.00">_indexable.h</text>
</a>
</g>
</g>
<!-- Node1&#45;&gt;Node2 -->
<g id="edge1" class="edge">
<title>Node1&#45;&gt;Node2</title>
<path fill="none" stroke="midnightblue" d="M138.65,-117.74C124.82,-108.28 106.76,-95.93 93,-86.52"/>
<polygon fill="midnightblue" stroke="midnightblue" points="136.8,-120.72 147.04,-123.48 140.76,-114.94 136.8,-120.72"/>
</g>
<!-- Node3 -->
<g id="node3" class="node">
<title>Node3</title>
<g id="a_node3"><a xlink:href="polygon2d_8h.html" target="_top" xlink:title=" ">
<polygon fill="none" stroke="black" points="163.5,-62 163.5,-81 331.5,-81 331.5,-62 163.5,-62"/>
<text text-anchor="middle" x="247.5" y="-69" font-family="Helvetica,sans-Serif" font-size="10.00">seerep_msgs/core/polygon2d.h</text>
</a>
</g>
</g>
<!-- Node1&#45;&gt;Node3 -->
<g id="edge2" class="edge">
<title>Node1&#45;&gt;Node3</title>
<path fill="none" stroke="midnightblue" d="M180.78,-117.61C197.7,-106.17 220.81,-90.55 234.92,-81.01"/>
<polygon fill="midnightblue" stroke="midnightblue" points="178.43,-114.97 172.11,-123.48 182.35,-120.77 178.43,-114.97"/>
</g>
<!-- Node4 -->
<g id="node4" class="node">
<title>Node4</title>
<g id="a_node4"><a xlink:href="query_8h.html" target="_top" xlink:title=" ">
<polygon fill="none" stroke="black" points="176,-0.5 176,-19.5 319,-19.5 319,-0.5 176,-0.5"/>
<text text-anchor="middle" x="247.5" y="-7.5" font-family="Helvetica,sans-Serif" font-size="10.00">seerep_msgs/core/query.h</text>
</a>
</g>
</g>
<!-- Node3&#45;&gt;Node4 -->
<g id="edge3" class="edge">
<title>Node3&#45;&gt;Node4</title>
<path fill="none" stroke="midnightblue" d="M247.5,-51.82C247.5,-41 247.5,-27.9 247.5,-19.51"/>
<polygon fill="midnightblue" stroke="midnightblue" points="244,-51.98 247.5,-61.98 251,-51.98 244,-51.98"/>
</g>
</g>
</svg>
