<?xml version="1.0" encoding="UTF-8" standalone="no"?>
<!DOCTYPE svg PUBLIC "-//W3C//DTD SVG 1.1//EN"
 "http://www.w3.org/Graphics/SVG/1.1/DTD/svg11.dtd">
<!-- Generated by graphviz version 2.43.0 (0)
 -->
<!-- Title: seerep_hdf5_core::Hdf5CoreGeneral Pages: 1 -->
<svg width="574pt" height="400pt"
 viewBox="0.00 0.00 574.00 399.50" xmlns="http://www.w3.org/2000/svg" xmlns:xlink="http://www.w3.org/1999/xlink">
<g id="graph0" class="graph" transform="scale(1 1) rotate(0) translate(4 395.5)">
<title>seerep_hdf5_core::Hdf5CoreGeneral</title>
<!-- Node1 -->
<g id="node1" class="node">
<title>Node1</title>
<g id="a_node1"><a xlink:title=" ">
<polygon fill="#bfbfbf" stroke="black" points="0,-214 0,-244 155,-244 155,-214 0,-214"/>
<text text-anchor="start" x="8" y="-232" font-family="Helvetica,sans-Serif" font-size="10.00">seerep_hdf5_core::Hdf5Core</text>
<text text-anchor="middle" x="77.5" y="-221" font-family="Helvetica,sans-Serif" font-size="10.00">General</text>
</a>
</g>
</g>
<!-- Node2 -->
<g id="node2" class="node">
<title>Node2</title>
<g id="a_node2"><a xlink:href="classseerep__hdf5__core_1_1Hdf5CoreImage.html" target="_top" xlink:title=" ">
<polygon fill="none" stroke="black" points="200,-361 200,-391 355,-391 355,-361 200,-361"/>
<text text-anchor="start" x="208" y="-379" font-family="Helvetica,sans-Serif" font-size="10.00">seerep_hdf5_core::Hdf5Core</text>
<text text-anchor="middle" x="277.5" y="-368" font-family="Helvetica,sans-Serif" font-size="10.00">Image</text>
</a>
</g>
</g>
<!-- Node1&#45;&gt;Node2 -->
<g id="edge1" class="edge">
<title>Node1&#45;&gt;Node2</title>
<path fill="none" stroke="midnightblue" d="M94,-252.76C113.39,-280.63 149.19,-326.26 191,-352 196.51,-355.39 202.52,-358.32 208.71,-360.84"/>
<polygon fill="midnightblue" stroke="midnightblue" points="96.81,-250.68 88.29,-244.39 91.03,-254.62 96.81,-250.68"/>
</g>
<!-- Node3 -->
<g id="node3" class="node">
<title>Node3</title>
<g id="a_node3"><a xlink:href="classseerep__hdf5__core_1_1Hdf5CoreInstance.html" target="_top" xlink:title=" ">
<polygon fill="none" stroke="black" points="200,-312 200,-342 355,-342 355,-312 200,-312"/>
<text text-anchor="start" x="208" y="-330" font-family="Helvetica,sans-Serif" font-size="10.00">seerep_hdf5_core::Hdf5Core</text>
<text text-anchor="middle" x="277.5" y="-319" font-family="Helvetica,sans-Serif" font-size="10.00">Instance</text>
</a>
</g>
</g>
<!-- Node1&#45;&gt;Node3 -->
<g id="edge2" class="edge">
<title>Node1&#45;&gt;Node3</title>
<path fill="none" stroke="midnightblue" d="M105.51,-250.22C127.48,-266.6 159.83,-288.79 191,-303 198.29,-306.33 206.15,-309.29 214.05,-311.9"/>
<polygon fill="midnightblue" stroke="midnightblue" points="107.43,-247.28 97.34,-244.04 103.21,-252.86 107.43,-247.28"/>
</g>
<!-- Node4 -->
<g id="node4" class="node">
<title>Node4</title>
<g id="a_node4"><a xlink:href="classseerep__hdf5__core_1_1Hdf5CorePoint.html" target="_top" xlink:title=" ">
<polygon fill="none" stroke="black" points="200,-263 200,-293 355,-293 355,-263 200,-263"/>
<text text-anchor="start" x="208" y="-281" font-family="Helvetica,sans-Serif" font-size="10.00">seerep_hdf5_core::Hdf5Core</text>
<text text-anchor="middle" x="277.5" y="-270" font-family="Helvetica,sans-Serif" font-size="10.00">Point</text>
</a>
</g>
</g>
<!-- Node1&#45;&gt;Node4 -->
<g id="edge3" class="edge">
<title>Node1&#45;&gt;Node4</title>
<path fill="none" stroke="midnightblue" d="M149.12,-246.48C170.94,-251.88 194.78,-257.78 215.86,-262.99"/>
<polygon fill="midnightblue" stroke="midnightblue" points="149.8,-243.04 139.25,-244.03 148.12,-249.83 149.8,-243.04"/>
</g>
<!-- Node5 -->
<g id="node5" class="node">
<title>Node5</title>
<g id="a_node5"><a xlink:href="classseerep__hdf5__core_1_1Hdf5CorePointCloud.html" target="_top" xlink:title=" ">
<polygon fill="none" stroke="black" points="200,-214 200,-244 355,-244 355,-214 200,-214"/>
<text text-anchor="start" x="208" y="-232" font-family="Helvetica,sans-Serif" font-size="10.00">seerep_hdf5_core::Hdf5Core</text>
<text text-anchor="middle" x="277.5" y="-221" font-family="Helvetica,sans-Serif" font-size="10.00">PointCloud</text>
</a>
</g>
</g>
<!-- Node1&#45;&gt;Node5 -->
<g id="edge4" class="edge">
<title>Node1&#45;&gt;Node5</title>
<path fill="none" stroke="midnightblue" d="M165.13,-229C176.68,-229 188.46,-229 199.83,-229"/>
<polygon fill="midnightblue" stroke="midnightblue" points="165.05,-225.5 155.05,-229 165.05,-232.5 165.05,-225.5"/>
</g>
<!-- Node6 -->
<g id="node6" class="node">
<title>Node6</title>
<g id="a_node6"><a xlink:href="classseerep__hdf5__core_1_1Hdf5CoreTf.html" target="_top" xlink:title=" ">
<polygon fill="none" stroke="black" points="195.5,-175.5 195.5,-194.5 359.5,-194.5 359.5,-175.5 195.5,-175.5"/>
<text text-anchor="middle" x="277.5" y="-182.5" font-family="Helvetica,sans-Serif" font-size="10.00">seerep_hdf5_core::Hdf5CoreTf</text>
</a>
</g>
</g>
<!-- Node1&#45;&gt;Node6 -->
<g id="edge5" class="edge">
<title>Node1&#45;&gt;Node6</title>
<path fill="none" stroke="midnightblue" d="M156.09,-211.76C182.49,-205.89 211.03,-199.55 233.69,-194.51"/>
<polygon fill="midnightblue" stroke="midnightblue" points="155.09,-208.39 146.09,-213.98 156.61,-215.23 155.09,-208.39"/>
</g>
<!-- Node7 -->
<g id="node7" class="node">
<title>Node7</title>
<g id="a_node7"><a xlink:href="classseerep__hdf5__fb_1_1Hdf5FbGeneral.html" target="_top" xlink:title=" ">
<polygon fill="none" stroke="black" points="192,-137.5 192,-156.5 363,-156.5 363,-137.5 192,-137.5"/>
<text text-anchor="middle" x="277.5" y="-144.5" font-family="Helvetica,sans-Serif" font-size="10.00">seerep_hdf5_fb::Hdf5FbGeneral</text>
</a>
</g>
</g>
<!-- Node1&#45;&gt;Node7 -->
<g id="edge6" class="edge">
<title>Node1&#45;&gt;Node7</title>
<path fill="none" stroke="midnightblue" d="M109.36,-208.46C131.32,-194.68 161.96,-177.08 191,-166 200.94,-162.2 211.84,-159.06 222.43,-156.5"/>
<polygon fill="midnightblue" stroke="midnightblue" points="107.36,-205.59 100.81,-213.92 111.12,-211.49 107.36,-205.59"/>
</g>
<!-- Node11 -->
<g id="node11" class="node">
<title>Node11</title>
<g id="a_node11"><a xlink:href="classseerep__hdf5__pb_1_1Hdf5PbGeneral.html" target="_top" xlink:title=" ">
<polygon fill="none" stroke="black" points="191,-77.5 191,-96.5 364,-96.5 364,-77.5 191,-77.5"/>
<text text-anchor="middle" x="277.5" y="-84.5" font-family="Helvetica,sans-Serif" font-size="10.00">seerep_hdf5_pb::Hdf5PbGeneral</text>
</a>
</g>
</g>
<!-- Node1&#45;&gt;Node11 -->
<g id="edge10" class="edge">
<title>Node1&#45;&gt;Node11</title>
<path fill="none" stroke="midnightblue" d="M99.68,-206.57C121.21,-184.64 156.26,-151.23 191,-128 210.3,-115.1 234.27,-103.97 251.92,-96.58"/>
<polygon fill="midnightblue" stroke="midnightblue" points="97.1,-204.2 92.65,-213.82 102.13,-209.08 97.1,-204.2"/>
</g>
<!-- Node8 -->
<g id="node8" class="node">
<title>Node8</title>
<g id="a_node8"><a xlink:href="classseerep__hdf5__fb_1_1Hdf5FbImage.html" target="_top" xlink:title=" ">
<polygon fill="none" stroke="black" points="401,-202.5 401,-221.5 565,-221.5 565,-202.5 401,-202.5"/>
<text text-anchor="middle" x="483" y="-209.5" font-family="Helvetica,sans-Serif" font-size="10.00">seerep_hdf5_fb::Hdf5FbImage</text>
</a>
</g>
</g>
<!-- Node7&#45;&gt;Node8 -->
<g id="edge7" class="edge">
<title>Node7&#45;&gt;Node8</title>
<path fill="none" stroke="midnightblue" d="M347,-159.46C352.86,-161.35 358.6,-163.52 364,-166 382.17,-174.36 381.87,-184.56 400,-193 408.21,-196.82 417.26,-199.91 426.25,-202.39"/>
<polygon fill="midnightblue" stroke="midnightblue" points="347.66,-156 337.08,-156.53 345.68,-162.72 347.66,-156"/>
</g>
<!-- Node9 -->
<g id="node9" class="node">
<title>Node9</title>
<g id="a_node9"><a xlink:href="classseerep__hdf5__fb_1_1Hdf5FbPoint.html" target="_top" xlink:title=" ">
<polygon fill="none" stroke="black" points="404,-164.5 404,-183.5 562,-183.5 562,-164.5 404,-164.5"/>
<text text-anchor="middle" x="483" y="-171.5" font-family="Helvetica,sans-Serif" font-size="10.00">seerep_hdf5_fb::Hdf5FbPoint</text>
</a>
</g>
</g>
<!-- Node7&#45;&gt;Node9 -->
<g id="edge8" class="edge">
<title>Node7&#45;&gt;Node9</title>
<path fill="none" stroke="midnightblue" d="M360.4,-157.87C376.89,-160.05 394.1,-162.34 410.22,-164.48"/>
<polygon fill="midnightblue" stroke="midnightblue" points="360.62,-154.36 350.25,-156.52 359.7,-161.3 360.62,-154.36"/>
</g>
<!-- Node10 -->
<g id="node10" class="node">
<title>Node10</title>
<g id="a_node10"><a xlink:href="classseerep__hdf5__fb_1_1Hdf5FbTf.html" target="_top" xlink:title=" ">
<polygon fill="none" stroke="black" points="411.5,-126.5 411.5,-145.5 554.5,-145.5 554.5,-126.5 411.5,-126.5"/>
<text text-anchor="middle" x="483" y="-133.5" font-family="Helvetica,sans-Serif" font-size="10.00">seerep_hdf5_fb::Hdf5FbTf</text>
</a>
</g>
</g>
<!-- Node7&#45;&gt;Node10 -->
<g id="edge9" class="edge">
<title>Node7&#45;&gt;Node10</title>
<path fill="none" stroke="midnightblue" d="M373.26,-141.88C386.06,-141.19 399.01,-140.49 411.3,-139.82"/>
<polygon fill="midnightblue" stroke="midnightblue" points="372.83,-138.4 363.03,-142.43 373.21,-145.39 372.83,-138.4"/>
</g>
<!-- Node12 -->
<g id="node12" class="node">
<title>Node12</title>
<g id="a_node12"><a xlink:href="classseerep__hdf5__pb_1_1Hdf5PbImage.html" target="_top" xlink:title=" ">
<polygon fill="none" stroke="black" points="400,-88.5 400,-107.5 566,-107.5 566,-88.5 400,-88.5"/>
<text text-anchor="middle" x="483" y="-95.5" font-family="Helvetica,sans-Serif" font-size="10.00">seerep_hdf5_pb::Hdf5PbImage</text>
</a>
</g>
</g>
<!-- Node11&#45;&gt;Node12 -->
<g id="edge11" class="edge">
<title>Node11&#45;&gt;Node12</title>
<path fill="none" stroke="midnightblue" d="M374.26,-92.18C382.85,-92.64 391.5,-93.11 399.96,-93.57"/>
<polygon fill="midnightblue" stroke="midnightblue" points="374.39,-88.68 364.21,-91.63 374.01,-95.67 374.39,-88.68"/>
</g>
<!-- Node13 -->
<g id="node13" class="node">
<title>Node13</title>
<g id="a_node13"><a xlink:href="classseerep__hdf5__pb_1_1Hdf5PbPointCloud.html" target="_top" xlink:title=" ">
<polygon fill="none" stroke="black" points="403,-39 403,-69 563,-69 563,-39 403,-39"/>
<text text-anchor="start" x="411" y="-57" font-family="Helvetica,sans-Serif" font-size="10.00">seerep_hdf5_pb::Hdf5PbPoint</text>
<text text-anchor="middle" x="483" y="-46" font-family="Helvetica,sans-Serif" font-size="10.00">Cloud</text>
</a>
</g>
</g>
<!-- Node11&#45;&gt;Node13 -->
<g id="edge12" class="edge">
<title>Node11&#45;&gt;Node13</title>
<path fill="none" stroke="midnightblue" d="M347.35,-75.83C365.12,-72.95 384.38,-69.83 402.63,-66.87"/>
<polygon fill="midnightblue" stroke="midnightblue" points="346.4,-72.44 337.09,-77.5 347.52,-79.35 346.4,-72.44"/>
</g>
<!-- Node14 -->
<g id="node14" class="node">
<title>Node14</title>
<g id="a_node14"><a xlink:href="classseerep__hdf5__pb_1_1Hdf5PbTf.html" target="_top" xlink:title=" ">
<polygon fill="none" stroke="black" points="410.5,-0.5 410.5,-19.5 555.5,-19.5 555.5,-0.5 410.5,-0.5"/>
<text text-anchor="middle" x="483" y="-7.5" font-family="Helvetica,sans-Serif" font-size="10.00">seerep_hdf5_pb::Hdf5PbTf</text>
</a>
</g>
</g>
<!-- Node11&#45;&gt;Node14 -->
<g id="edge13" class="edge">
<title>Node11&#45;&gt;Node14</title>
<path fill="none" stroke="midnightblue" d="M304.58,-72.5C328.72,-59.58 365.91,-40.92 400,-29 410.48,-25.33 421.97,-22.17 432.94,-19.53"/>
<polygon fill="midnightblue" stroke="midnightblue" points="302.82,-69.47 295.7,-77.31 306.16,-75.63 302.82,-69.47"/>
</g>
</g>
</svg>
