<?xml version="1.0" encoding="UTF-8" standalone="no"?>
<!DOCTYPE svg PUBLIC "-//W3C//DTD SVG 1.1//EN"
 "http://www.w3.org/Graphics/SVG/1.1/DTD/svg11.dtd">
<!-- Generated by graphviz version 2.43.0 (0)
 -->
<!-- Title: seerep_hdf5_core::Hdf5CoreImage Pages: 1 -->
<svg width="356pt" height="162pt"
 viewBox="0.00 0.00 356.00 162.00" xmlns="http://www.w3.org/2000/svg" xmlns:xlink="http://www.w3.org/1999/xlink">
<g id="graph0" class="graph" transform="scale(1 1) rotate(0) translate(4 158)">
<title>seerep_hdf5_core::Hdf5CoreImage</title>
<!-- Node1 -->
<g id="node1" class="node">
<title>Node1</title>
<g id="a_node1"><a xlink:title="This class encompasses all hdf5&#45;io functions which are message type independent.">
<polygon fill="#bfbfbf" stroke="black" points="95.5,-56.5 95.5,-86.5 250.5,-86.5 250.5,-56.5 95.5,-56.5"/>
<text text-anchor="start" x="103.5" y="-74.5" font-family="Helvetica,sans-Serif" font-size="10.00">seerep_hdf5_core::Hdf5Core</text>
<text text-anchor="middle" x="173" y="-63.5" font-family="Helvetica,sans-Serif" font-size="10.00">Image</text>
</a>
</g>
</g>
<!-- Node4 -->
<g id="node4" class="node">
<title>Node4</title>
<g id="a_node4"><a xlink:href="classseerep__hdf5__fb_1_1Hdf5FbImage.html" target="_top" xlink:title="The class Hdf5FbImage is used to write and read flatbuffers image messages to/from hdf5 files.">
<polygon fill="none" stroke="black" points="0,-0.5 0,-19.5 164,-19.5 164,-0.5 0,-0.5"/>
<text text-anchor="middle" x="82" y="-7.5" font-family="Helvetica,sans-Serif" font-size="10.00">seerep_hdf5_fb::Hdf5FbImage</text>
</a>
</g>
</g>
<!-- Node1&#45;&gt;Node4 -->
<g id="edge3" class="edge">
<title>Node1&#45;&gt;Node4</title>
<path fill="none" stroke="midnightblue" d="M142.83,-50.78C126.71,-40.23 107.67,-27.78 95.24,-19.66"/>
<polygon fill="midnightblue" stroke="midnightblue" points="141.15,-53.86 151.43,-56.4 144.98,-48 141.15,-53.86"/>
</g>
<!-- Node5 -->
<g id="node5" class="node">
<title>Node5</title>
<g id="a_node5"><a xlink:href="classseerep__hdf5__pb_1_1Hdf5PbImage.html" target="_top" xlink:title=" ">
<polygon fill="none" stroke="black" points="182,-0.5 182,-19.5 348,-19.5 348,-0.5 182,-0.5"/>
<text text-anchor="middle" x="265" y="-7.5" font-family="Helvetica,sans-Serif" font-size="10.00">seerep_hdf5_pb::Hdf5PbImage</text>
</a>
</g>
</g>
<!-- Node1&#45;&gt;Node5 -->
<g id="edge4" class="edge">
<title>Node1&#45;&gt;Node5</title>
<path fill="none" stroke="midnightblue" d="M203.5,-50.78C219.8,-40.23 239.05,-27.78 251.61,-19.66"/>
<polygon fill="midnightblue" stroke="midnightblue" points="201.3,-48.03 194.8,-56.4 205.1,-53.91 201.3,-48.03"/>
</g>
<!-- Node2 -->
<g id="node2" class="node">
<title>Node2</title>
<g id="a_node2"><a xlink:href="classseerep__hdf5__core_1_1Hdf5CoreGeneral.html" target="_top" xlink:title=" ">
<polygon fill="none" stroke="black" points="9.5,-123.5 9.5,-153.5 164.5,-153.5 164.5,-123.5 9.5,-123.5"/>
<text text-anchor="start" x="17.5" y="-141.5" font-family="Helvetica,sans-Serif" font-size="10.00">seerep_hdf5_core::Hdf5Core</text>
<text text-anchor="middle" x="87" y="-130.5" font-family="Helvetica,sans-Serif" font-size="10.00">General</text>
</a>
</g>
</g>
<!-- Node2&#45;&gt;Node1 -->
<g id="edge1" class="edge">
<title>Node2&#45;&gt;Node1</title>
<path fill="none" stroke="midnightblue" d="M113.9,-117.17C127.05,-107.23 142.55,-95.51 154.38,-86.58"/>
<polygon fill="midnightblue" stroke="midnightblue" points="111.53,-114.57 105.66,-123.4 115.75,-120.16 111.53,-114.57"/>
</g>
<!-- Node3 -->
<g id="node3" class="node">
<title>Node3</title>
<g id="a_node3"><a xlink:href="classseerep__hdf5__core_1_1Hdf5CoreDatatypeInterface.html" target="_top" xlink:title=" ">
<polygon fill="none" stroke="black" points="182.5,-123.5 182.5,-153.5 337.5,-153.5 337.5,-123.5 182.5,-123.5"/>
<text text-anchor="start" x="190.5" y="-141.5" font-family="Helvetica,sans-Serif" font-size="10.00">seerep_hdf5_core::Hdf5Core</text>
<text text-anchor="middle" x="260" y="-130.5" font-family="Helvetica,sans-Serif" font-size="10.00">DatatypeInterface</text>
</a>
</g>
</g>
<!-- Node3&#45;&gt;Node1 -->
<g id="edge2" class="edge">
<title>Node3&#45;&gt;Node1</title>
<path fill="none" stroke="midnightblue" d="M232.79,-117.17C219.48,-107.23 203.8,-95.51 191.84,-86.58"/>
<polygon fill="midnightblue" stroke="midnightblue" points="231.02,-120.21 241.12,-123.4 235.21,-114.61 231.02,-120.21"/>
</g>
</g>
</svg>
