<?xml version="1.0" encoding="UTF-8" standalone="no"?>
<!DOCTYPE svg PUBLIC "-//W3C//DTD SVG 1.1//EN"
 "http://www.w3.org/Graphics/SVG/1.1/DTD/svg11.dtd">
<!-- Generated by graphviz version 2.43.0 (0)
 -->
<!-- Title: seerep_hdf5_core::Hdf5CoreDatatypeInterface Pages: 1 -->
<svg width="354pt" height="137pt"
 viewBox="0.00 0.00 354.00 137.00" xmlns="http://www.w3.org/2000/svg" xmlns:xlink="http://www.w3.org/1999/xlink">
<g id="graph0" class="graph" transform="scale(1 1) rotate(0) translate(4 133)">
<title>seerep_hdf5_core::Hdf5CoreDatatypeInterface</title>
<!-- Node1 -->
<g id="node1" class="node">
<title>Node1</title>
<g id="a_node1"><a xlink:title=" ">
<polygon fill="#bfbfbf" stroke="black" points="0,-49.5 0,-79.5 155,-79.5 155,-49.5 0,-49.5"/>
<text text-anchor="start" x="8" y="-67.5" font-family="Helvetica,sans-Serif" font-size="10.00">seerep_hdf5_core::Hdf5Core</text>
<text text-anchor="middle" x="77.5" y="-56.5" font-family="Helvetica,sans-Serif" font-size="10.00">DatatypeInterface</text>
</a>
</g>
</g>
<!-- Node2 -->
<g id="node2" class="node">
<title>Node2</title>
<g id="a_node2"><a xlink:href="classseerep__hdf5__core_1_1Hdf5CoreImage.html" target="_top" xlink:title=" ">
<polygon fill="none" stroke="black" points="191,-98.5 191,-128.5 346,-128.5 346,-98.5 191,-98.5"/>
<text text-anchor="start" x="199" y="-116.5" font-family="Helvetica,sans-Serif" font-size="10.00">seerep_hdf5_core::Hdf5Core</text>
<text text-anchor="middle" x="268.5" y="-105.5" font-family="Helvetica,sans-Serif" font-size="10.00">Image</text>
</a>
</g>
</g>
<!-- Node1&#45;&gt;Node2 -->
<g id="edge1" class="edge">
<title>Node1&#45;&gt;Node2</title>
<path fill="none" stroke="midnightblue" d="M146.19,-82.05C166.95,-87.43 189.58,-93.3 209.62,-98.49"/>
<polygon fill="midnightblue" stroke="midnightblue" points="147.05,-78.66 136.49,-79.53 145.29,-85.43 147.05,-78.66"/>
</g>
<!-- Node3 -->
<g id="node3" class="node">
<title>Node3</title>
<g id="a_node3"><a xlink:href="classseerep__hdf5__core_1_1Hdf5CorePoint.html" target="_top" xlink:title=" ">
<polygon fill="none" stroke="black" points="191,-49.5 191,-79.5 346,-79.5 346,-49.5 191,-49.5"/>
<text text-anchor="start" x="199" y="-67.5" font-family="Helvetica,sans-Serif" font-size="10.00">seerep_hdf5_core::Hdf5Core</text>
<text text-anchor="middle" x="268.5" y="-56.5" font-family="Helvetica,sans-Serif" font-size="10.00">Point</text>
</a>
</g>
</g>
<!-- Node1&#45;&gt;Node3 -->
<g id="edge2" class="edge">
<title>Node1&#45;&gt;Node3</title>
<path fill="none" stroke="midnightblue" d="M165.1,-64.5C173.67,-64.5 182.33,-64.5 190.79,-64.5"/>
<polygon fill="midnightblue" stroke="midnightblue" points="165.1,-61 155.1,-64.5 165.1,-68 165.1,-61"/>
</g>
<!-- Node4 -->
<g id="node4" class="node">
<title>Node4</title>
<g id="a_node4"><a xlink:href="classseerep__hdf5__core_1_1Hdf5CorePointCloud.html" target="_top" xlink:title=" ">
<polygon fill="none" stroke="black" points="191,-0.5 191,-30.5 346,-30.5 346,-0.5 191,-0.5"/>
<text text-anchor="start" x="199" y="-18.5" font-family="Helvetica,sans-Serif" font-size="10.00">seerep_hdf5_core::Hdf5Core</text>
<text text-anchor="middle" x="268.5" y="-7.5" font-family="Helvetica,sans-Serif" font-size="10.00">PointCloud</text>
</a>
</g>
</g>
<!-- Node1&#45;&gt;Node4 -->
<g id="edge3" class="edge">
<title>Node1&#45;&gt;Node4</title>
<path fill="none" stroke="midnightblue" d="M146.19,-46.95C166.95,-41.57 189.58,-35.7 209.62,-30.51"/>
<polygon fill="midnightblue" stroke="midnightblue" points="145.29,-43.57 136.49,-49.47 147.05,-50.34 145.29,-43.57"/>
</g>
</g>
</svg>
