<?xml version="1.0" encoding="UTF-8" standalone="no"?>
<!DOCTYPE svg PUBLIC "-//W3C//DTD SVG 1.1//EN"
 "http://www.w3.org/Graphics/SVG/1.1/DTD/svg11.dtd">
<!-- Generated by graphviz version 2.43.0 (0)
 -->
<!-- Title: seerep_hdf5_core::Hdf5CoreDatatypeInterface Pages: 1 -->
<svg width="556pt" height="170pt"
 viewBox="0.00 0.00 556.00 169.50" xmlns="http://www.w3.org/2000/svg" xmlns:xlink="http://www.w3.org/1999/xlink">
<g id="graph0" class="graph" transform="scale(1 1) rotate(0) translate(4 165.5)">
<title>seerep_hdf5_core::Hdf5CoreDatatypeInterface</title>
<!-- Node1 -->
<g id="node1" class="node">
<title>Node1</title>
<g id="a_node1"><a xlink:title=" ">
<polygon fill="#bfbfbf" stroke="black" points="0,-49.5 0,-79.5 155,-79.5 155,-49.5 0,-49.5"/>
<text text-anchor="start" x="8" y="-67.5" font-family="Helvetica,sans-Serif" font-size="10.00">seerep_hdf5_core::Hdf5Core</text>
<text text-anchor="middle" x="77.5" y="-56.5" font-family="Helvetica,sans-Serif" font-size="10.00">DatatypeInterface</text>
</a>
</g>
</g>
<!-- Node2 -->
<g id="node2" class="node">
<title>Node2</title>
<g id="a_node2"><a xlink:href="classseerep__hdf5__core_1_1Hdf5CoreImage.html" target="_top" xlink:title="This class encompasses all hdf5&#45;io functions which are message type independent.">
<polygon fill="none" stroke="black" points="191,-98.5 191,-128.5 346,-128.5 346,-98.5 191,-98.5"/>
<text text-anchor="start" x="199" y="-116.5" font-family="Helvetica,sans-Serif" font-size="10.00">seerep_hdf5_core::Hdf5Core</text>
<text text-anchor="middle" x="268.5" y="-105.5" font-family="Helvetica,sans-Serif" font-size="10.00">Image</text>
</a>
</g>
</g>
<!-- Node1&#45;&gt;Node2 -->
<g id="edge1" class="edge">
<title>Node1&#45;&gt;Node2</title>
<path fill="none" stroke="midnightblue" d="M146.19,-82.05C166.95,-87.43 189.58,-93.3 209.62,-98.49"/>
<polygon fill="midnightblue" stroke="midnightblue" points="147.05,-78.66 136.49,-79.53 145.29,-85.43 147.05,-78.66"/>
</g>
<!-- Node6 -->
<g id="node6" class="node">
<title>Node6</title>
<g id="a_node6"><a xlink:href="classseerep__hdf5__core_1_1Hdf5CorePoint.html" target="_top" xlink:title=" ">
<polygon fill="none" stroke="black" points="191,-49.5 191,-79.5 346,-79.5 346,-49.5 191,-49.5"/>
<text text-anchor="start" x="199" y="-67.5" font-family="Helvetica,sans-Serif" font-size="10.00">seerep_hdf5_core::Hdf5Core</text>
<text text-anchor="middle" x="268.5" y="-56.5" font-family="Helvetica,sans-Serif" font-size="10.00">Point</text>
</a>
</g>
</g>
<!-- Node1&#45;&gt;Node6 -->
<g id="edge5" class="edge">
<title>Node1&#45;&gt;Node6</title>
<path fill="none" stroke="midnightblue" d="M165.1,-64.5C173.67,-64.5 182.33,-64.5 190.79,-64.5"/>
<polygon fill="midnightblue" stroke="midnightblue" points="165.1,-61 155.1,-64.5 165.1,-68 165.1,-61"/>
</g>
<!-- Node7 -->
<g id="node7" class="node">
<title>Node7</title>
<g id="a_node7"><a xlink:href="classseerep__hdf5__core_1_1Hdf5CorePointCloud.html" target="_top" xlink:title=" ">
<polygon fill="none" stroke="black" points="191,-0.5 191,-30.5 346,-30.5 346,-0.5 191,-0.5"/>
<text text-anchor="start" x="199" y="-18.5" font-family="Helvetica,sans-Serif" font-size="10.00">seerep_hdf5_core::Hdf5Core</text>
<text text-anchor="middle" x="268.5" y="-7.5" font-family="Helvetica,sans-Serif" font-size="10.00">PointCloud</text>
</a>
</g>
</g>
<!-- Node1&#45;&gt;Node7 -->
<g id="edge6" class="edge">
<title>Node1&#45;&gt;Node7</title>
<path fill="none" stroke="midnightblue" d="M146.19,-46.95C166.95,-41.57 189.58,-35.7 209.62,-30.51"/>
<polygon fill="midnightblue" stroke="midnightblue" points="145.29,-43.57 136.49,-49.47 147.05,-50.34 145.29,-43.57"/>
</g>
<!-- Node3 -->
<g id="node3" class="node">
<title>Node3</title>
<g id="a_node3"><a xlink:href="classseerep__hdf5__fb_1_1Hdf5FbImage.html" target="_top" xlink:title="The class Hdf5FbImage is used to write and read flatbuffers image messages to/from hdf5 files.">
<polygon fill="none" stroke="black" points="383,-142 383,-161 547,-161 547,-142 383,-142"/>
<text text-anchor="middle" x="465" y="-149" font-family="Helvetica,sans-Serif" font-size="10.00">seerep_hdf5_fb::Hdf5FbImage</text>
</a>
</g>
</g>
<!-- Node2&#45;&gt;Node3 -->
<g id="edge2" class="edge">
<title>Node2&#45;&gt;Node3</title>
<path fill="none" stroke="midnightblue" d="M356,-130.4C376.31,-134.37 397.25,-138.46 415.23,-141.97"/>
<polygon fill="midnightblue" stroke="midnightblue" points="356.58,-126.95 346.09,-128.46 355.24,-133.82 356.58,-126.95"/>
</g>
<!-- Node4 -->
<g id="node4" class="node">
<title>Node4</title>
<g id="a_node4"><a xlink:href="classseerep__hdf5__pb_1_1Hdf5PbImage.html" target="_top" xlink:title=" ">
<polygon fill="none" stroke="black" points="382,-104 382,-123 548,-123 548,-104 382,-104"/>
<text text-anchor="middle" x="465" y="-111" font-family="Helvetica,sans-Serif" font-size="10.00">seerep_hdf5_pb::Hdf5PbImage</text>
</a>
</g>
</g>
<!-- Node2&#45;&gt;Node4 -->
<g id="edge3" class="edge">
<title>Node2&#45;&gt;Node4</title>
<path fill="none" stroke="midnightblue" d="M356.32,-113.5C364.76,-113.5 373.31,-113.5 381.71,-113.5"/>
<polygon fill="midnightblue" stroke="midnightblue" points="356.09,-110 346.09,-113.5 356.09,-117 356.09,-110"/>
</g>
<!-- Node5 -->
<g id="node5" class="node">
<title>Node5</title>
<g id="a_node5"><a xlink:href="classseerep__hdf5__py_1_1Hdf5PyImage.html" target="_top" xlink:title=" ">
<polygon fill="none" stroke="black" points="382.5,-66 382.5,-85 547.5,-85 547.5,-66 382.5,-66"/>
<text text-anchor="middle" x="465" y="-73" font-family="Helvetica,sans-Serif" font-size="10.00">seerep_hdf5_py::Hdf5PyImage</text>
</a>
</g>
</g>
<!-- Node2&#45;&gt;Node5 -->
<g id="edge4" class="edge">
<title>Node2&#45;&gt;Node5</title>
<path fill="none" stroke="midnightblue" d="M356,-96.6C376.31,-92.63 397.25,-88.54 415.23,-85.03"/>
<polygon fill="midnightblue" stroke="midnightblue" points="355.24,-93.18 346.09,-98.54 356.58,-100.05 355.24,-93.18"/>
</g>
</g>
</svg>
