<?xml version="1.0" encoding="UTF-8" standalone="no"?>
<!DOCTYPE svg PUBLIC "-//W3C//DTD SVG 1.1//EN"
 "http://www.w3.org/Graphics/SVG/1.1/DTD/svg11.dtd">
<!-- Generated by graphviz version 2.43.0 (0)
 -->
<!-- Title: seerep&#45;ros/seerep_ros_communication/include/seerep_ros_communication/client.h Pages: 1 -->
<svg width="2667pt" height="251pt"
 viewBox="0.00 0.00 2666.50 251.00" xmlns="http://www.w3.org/2000/svg" xmlns:xlink="http://www.w3.org/1999/xlink">
<g id="graph0" class="graph" transform="scale(1 1) rotate(0) translate(4 247)">
<title>seerep&#45;ros/seerep_ros_communication/include/seerep_ros_communication/client.h</title>
<!-- Node1 -->
<g id="node1" class="node">
<title>Node1</title>
<g id="a_node1"><a xlink:title=" ">
<polygon fill="#bfbfbf" stroke="black" points="1181,-190.5 1181,-242.5 1335,-242.5 1335,-190.5 1181,-190.5"/>
<text text-anchor="start" x="1189" y="-230.5" font-family="Helvetica,sans-Serif" font-size="10.00">seerep&#45;ros/seerep_ros</text>
<text text-anchor="start" x="1189" y="-219.5" font-family="Helvetica,sans-Serif" font-size="10.00">_communication/include</text>
<text text-anchor="start" x="1189" y="-208.5" font-family="Helvetica,sans-Serif" font-size="10.00">/seerep_ros_communication</text>
<text text-anchor="middle" x="1258" y="-197.5" font-family="Helvetica,sans-Serif" font-size="10.00">/client.h</text>
</a>
</g>
</g>
<!-- Node2 -->
<g id="node2" class="node">
<title>Node2</title>
<g id="a_node2"><a xlink:title=" ">
<polygon fill="none" stroke="#bfbfbf" points="388.5,-134.5 388.5,-153.5 453.5,-153.5 453.5,-134.5 388.5,-134.5"/>
<text text-anchor="middle" x="421" y="-141.5" font-family="Helvetica,sans-Serif" font-size="10.00">functional</text>
</a>
</g>
</g>
<!-- Node1&#45;&gt;Node2 -->
<g id="edge1" class="edge">
<title>Node1&#45;&gt;Node2</title>
<path fill="none" stroke="midnightblue" d="M1180.88,-212.96C1040.16,-207.59 732.3,-192.36 463.87,-153.93"/>
<polygon fill="midnightblue" stroke="midnightblue" points="464.34,-150.46 453.94,-152.49 463.34,-157.39 464.34,-150.46"/>
</g>
<!-- Node3 -->
<g id="node3" class="node">
<title>Node3</title>
<g id="a_node3"><a xlink:title=" ">
<polygon fill="none" stroke="#bfbfbf" points="472,-134.5 472,-153.5 528,-153.5 528,-134.5 472,-134.5"/>
<text text-anchor="middle" x="500" y="-141.5" font-family="Helvetica,sans-Serif" font-size="10.00">optional</text>
</a>
</g>
</g>
<!-- Node1&#45;&gt;Node3 -->
<g id="edge2" class="edge">
<title>Node1&#45;&gt;Node3</title>
<path fill="none" stroke="midnightblue" d="M1180.96,-212.81C1050.37,-207.4 777.23,-192.4 538.11,-153.94"/>
<polygon fill="midnightblue" stroke="midnightblue" points="538.62,-150.48 528.19,-152.33 537.5,-157.39 538.62,-150.48"/>
</g>
<!-- Node4 -->
<g id="node4" class="node">
<title>Node4</title>
<g id="a_node4"><a xlink:title=" ">
<polygon fill="none" stroke="#bfbfbf" points="546.5,-134.5 546.5,-153.5 617.5,-153.5 617.5,-134.5 546.5,-134.5"/>
<text text-anchor="middle" x="582" y="-141.5" font-family="Helvetica,sans-Serif" font-size="10.00">grpc/grpc.h</text>
</a>
</g>
</g>
<!-- Node1&#45;&gt;Node4 -->
<g id="edge3" class="edge">
<title>Node1&#45;&gt;Node4</title>
<path fill="none" stroke="midnightblue" d="M1180.82,-210.61C1063.35,-202.58 832.54,-184.54 627.99,-154.18"/>
<polygon fill="midnightblue" stroke="midnightblue" points="628.37,-150.7 617.96,-152.68 627.34,-157.62 628.37,-150.7"/>
</g>
<!-- Node5 -->
<g id="node5" class="node">
<title>Node5</title>
<g id="a_node5"><a xlink:title=" ">
<polygon fill="none" stroke="#bfbfbf" points="635.5,-134.5 635.5,-153.5 766.5,-153.5 766.5,-134.5 635.5,-134.5"/>
<text text-anchor="middle" x="701" y="-141.5" font-family="Helvetica,sans-Serif" font-size="10.00">grpcpp/client_context.h</text>
</a>
</g>
</g>
<!-- Node1&#45;&gt;Node5 -->
<g id="edge4" class="edge">
<title>Node1&#45;&gt;Node5</title>
<path fill="none" stroke="midnightblue" d="M1180.84,-205.73C1074.08,-192.22 882.49,-167.97 776.57,-154.56"/>
<polygon fill="midnightblue" stroke="midnightblue" points="776.95,-151.09 766.59,-153.3 776.07,-158.03 776.95,-151.09"/>
</g>
<!-- Node6 -->
<g id="node6" class="node">
<title>Node6</title>
<g id="a_node6"><a xlink:title=" ">
<polygon fill="none" stroke="#bfbfbf" points="785,-134.5 785,-153.5 921,-153.5 921,-134.5 785,-134.5"/>
<text text-anchor="middle" x="853" y="-141.5" font-family="Helvetica,sans-Serif" font-size="10.00">grpcpp/create_channel.h</text>
</a>
</g>
</g>
<!-- Node1&#45;&gt;Node6 -->
<g id="edge5" class="edge">
<title>Node1&#45;&gt;Node6</title>
<path fill="none" stroke="midnightblue" d="M1180.87,-202.07C1102.56,-188.44 983,-167.63 911.96,-155.26"/>
<polygon fill="midnightblue" stroke="midnightblue" points="912.3,-151.77 901.84,-153.5 911.09,-158.67 912.3,-151.77"/>
</g>
<!-- Node7 -->
<g id="node7" class="node">
<title>Node7</title>
<g id="a_node7"><a xlink:title=" ">
<polygon fill="none" stroke="#bfbfbf" points="939,-134.5 939,-153.5 1097,-153.5 1097,-134.5 939,-134.5"/>
<text text-anchor="middle" x="1018" y="-141.5" font-family="Helvetica,sans-Serif" font-size="10.00">grpcpp/security/credentials.h</text>
</a>
</g>
</g>
<!-- Node1&#45;&gt;Node7 -->
<g id="edge6" class="edge">
<title>Node1&#45;&gt;Node7</title>
<path fill="none" stroke="midnightblue" d="M1180.74,-192.81C1139.39,-180.66 1090.25,-166.22 1056.86,-156.42"/>
<polygon fill="midnightblue" stroke="midnightblue" points="1057.61,-152.99 1047.03,-153.53 1055.64,-159.71 1057.61,-152.99"/>
</g>
<!-- Node8 -->
<g id="node8" class="node">
<title>Node8</title>
<g id="a_node8"><a xlink:title=" ">
<polygon fill="none" stroke="#bfbfbf" points="591.5,-73 591.5,-92 786.5,-92 786.5,-73 591.5,-73"/>
<text text-anchor="middle" x="689" y="-80" font-family="Helvetica,sans-Serif" font-size="10.00">seerep&#45;com/image&#45;service.grpc.pb.h</text>
</a>
</g>
</g>
<!-- Node1&#45;&gt;Node8 -->
<g id="edge7" class="edge">
<title>Node1&#45;&gt;Node8</title>
<path fill="none" stroke="midnightblue" d="M1207.51,-190.36C1186.2,-179.5 1161.21,-166.45 1139,-154 1124.04,-145.61 1122.22,-139.56 1106,-134 974.79,-89.02 933.62,-115.31 796,-98 784.45,-96.55 772.2,-94.94 760.28,-93.35"/>
<polygon fill="midnightblue" stroke="midnightblue" points="760.74,-89.88 750.37,-92.02 759.81,-96.82 760.74,-89.88"/>
</g>
<!-- Node9 -->
<g id="node9" class="node">
<title>Node9</title>
<g id="a_node9"><a xlink:title=" ">
<polygon fill="none" stroke="#bfbfbf" points="805,-67.5 805,-97.5 937,-97.5 937,-67.5 805,-67.5"/>
<text text-anchor="start" x="813" y="-85.5" font-family="Helvetica,sans-Serif" font-size="10.00">seerep&#45;com/point&#45;cloud</text>
<text text-anchor="middle" x="871" y="-74.5" font-family="Helvetica,sans-Serif" font-size="10.00">&#45;service.grpc.pb.h</text>
</a>
</g>
</g>
<!-- Node1&#45;&gt;Node9 -->
<g id="edge8" class="edge">
<title>Node1&#45;&gt;Node9</title>
<path fill="none" stroke="midnightblue" d="M1224.59,-190.3C1196,-169.19 1156.76,-141.35 1139,-134 1061.29,-101.83 1033.72,-113.36 947.23,-98.16"/>
<polygon fill="midnightblue" stroke="midnightblue" points="947.72,-94.69 937.25,-96.33 946.46,-101.57 947.72,-94.69"/>
</g>
<!-- Node10 -->
<g id="node10" class="node">
<title>Node10</title>
<g id="a_node10"><a xlink:title=" ">
<polygon fill="none" stroke="#bfbfbf" points="955.5,-73 955.5,-92 1126.5,-92 1126.5,-73 955.5,-73"/>
<text text-anchor="middle" x="1041" y="-80" font-family="Helvetica,sans-Serif" font-size="10.00">seerep&#45;com/tf&#45;service.grpc.pb.h</text>
</a>
</g>
</g>
<!-- Node1&#45;&gt;Node10 -->
<g id="edge9" class="edge">
<title>Node1&#45;&gt;Node10</title>
<path fill="none" stroke="midnightblue" d="M1237.97,-190.15C1222.82,-172.4 1200.65,-149.23 1177,-134 1148.99,-115.97 1113.62,-103.09 1085.98,-94.85"/>
<polygon fill="midnightblue" stroke="midnightblue" points="1086.75,-91.43 1076.17,-92.03 1084.81,-98.16 1086.75,-91.43"/>
</g>
<!-- Node11 -->
<g id="node11" class="node">
<title>Node11</title>
<g id="a_node11"><a xlink:title=" ">
<polygon fill="none" stroke="#bfbfbf" points="1144.5,-67.5 1144.5,-97.5 1275.5,-97.5 1275.5,-67.5 1144.5,-67.5"/>
<text text-anchor="start" x="1152.5" y="-85.5" font-family="Helvetica,sans-Serif" font-size="10.00">seerep&#45;com/transfer</text>
<text text-anchor="middle" x="1210" y="-74.5" font-family="Helvetica,sans-Serif" font-size="10.00">&#45;sensor&#45;msgs.grpc.pb.h</text>
</a>
</g>
</g>
<!-- Node1&#45;&gt;Node11 -->
<g id="edge10" class="edge">
<title>Node1&#45;&gt;Node11</title>
<path fill="none" stroke="midnightblue" d="M1248.86,-190.36C1240.14,-166.38 1227.11,-130.54 1218.58,-107.09"/>
<polygon fill="midnightblue" stroke="midnightblue" points="1221.82,-105.77 1215.12,-97.57 1215.25,-108.17 1221.82,-105.77"/>
</g>
<!-- Node12 -->
<g id="node12" class="node">
<title>Node12</title>
<g id="a_node12"><a xlink:href="seerep__ros__conversions__pb_2include_2seerep__ros__conversions__pb_2conversions_8h.html" target="_top" xlink:title=" ">
<polygon fill="none" stroke="black" points="1294,-67.5 1294,-97.5 1428,-97.5 1428,-67.5 1294,-67.5"/>
<text text-anchor="start" x="1302" y="-85.5" font-family="Helvetica,sans-Serif" font-size="10.00">seerep_ros_conversions</text>
<text text-anchor="middle" x="1361" y="-74.5" font-family="Helvetica,sans-Serif" font-size="10.00">_pb/conversions.h</text>
</a>
</g>
</g>
<!-- Node1&#45;&gt;Node12 -->
<g id="edge11" class="edge">
<title>Node1&#45;&gt;Node12</title>
<path fill="none" stroke="midnightblue" d="M1266.6,-190.29C1273.2,-173.27 1283.48,-150.91 1297,-134 1306.23,-122.46 1318.57,-111.94 1329.96,-103.52"/>
<polygon fill="midnightblue" stroke="midnightblue" points="1332.29,-106.15 1338.41,-97.51 1328.23,-100.45 1332.29,-106.15"/>
</g>
<!-- Node29 -->
<g id="node29" class="node">
<title>Node29</title>
<g id="a_node29"><a xlink:title=" ">
<polygon fill="none" stroke="#bfbfbf" points="1376.5,-134.5 1376.5,-153.5 1453.5,-153.5 1453.5,-134.5 1376.5,-134.5"/>
<text text-anchor="middle" x="1415" y="-141.5" font-family="Helvetica,sans-Serif" font-size="10.00">ros/master.h</text>
</a>
</g>
</g>
<!-- Node1&#45;&gt;Node29 -->
<g id="edge28" class="edge">
<title>Node1&#45;&gt;Node29</title>
<path fill="none" stroke="midnightblue" d="M1313.79,-190.45C1338.49,-179.36 1366.46,-166.8 1386.73,-157.7"/>
<polygon fill="midnightblue" stroke="midnightblue" points="1388.32,-160.82 1396.01,-153.53 1385.45,-154.43 1388.32,-160.82"/>
</g>
<!-- Node30 -->
<g id="node30" class="node">
<title>Node30</title>
<g id="a_node30"><a xlink:title=" ">
<polygon fill="none" stroke="#bfbfbf" points="1471.5,-134.5 1471.5,-153.5 1530.5,-153.5 1530.5,-134.5 1471.5,-134.5"/>
<text text-anchor="middle" x="1501" y="-141.5" font-family="Helvetica,sans-Serif" font-size="10.00">ros/ros.h</text>
</a>
</g>
</g>
<!-- Node1&#45;&gt;Node30 -->
<g id="edge29" class="edge">
<title>Node1&#45;&gt;Node30</title>
<path fill="none" stroke="midnightblue" d="M1335.22,-193.1C1377.29,-180.89 1427.55,-166.31 1461.63,-156.42"/>
<polygon fill="midnightblue" stroke="midnightblue" points="1463.02,-159.66 1471.65,-153.51 1461.07,-152.94 1463.02,-159.66"/>
</g>
<!-- Node31 -->
<g id="node31" class="node">
<title>Node31</title>
<g id="a_node31"><a xlink:title=" ">
<polygon fill="none" stroke="#bfbfbf" points="1548.5,-134.5 1548.5,-153.5 1677.5,-153.5 1677.5,-134.5 1548.5,-134.5"/>
<text text-anchor="middle" x="1613" y="-141.5" font-family="Helvetica,sans-Serif" font-size="10.00">tf2_msgs/TFMessage.h</text>
</a>
</g>
</g>
<!-- Node1&#45;&gt;Node31 -->
<g id="edge30" class="edge">
<title>Node1&#45;&gt;Node31</title>
<path fill="none" stroke="midnightblue" d="M1335.03,-200.2C1403.08,-186.69 1500.5,-167.34 1560.1,-155.5"/>
<polygon fill="midnightblue" stroke="midnightblue" points="1560.93,-158.91 1570.05,-153.53 1559.56,-152.04 1560.93,-158.91"/>
</g>
<!-- Node32 -->
<g id="node32" class="node">
<title>Node32</title>
<g id="a_node32"><a xlink:href="types_8h.html" target="_top" xlink:title=" ">
<polygon fill="none" stroke="black" points="1305.5,-134.5 1305.5,-153.5 1358.5,-153.5 1358.5,-134.5 1305.5,-134.5"/>
<text text-anchor="middle" x="1332" y="-141.5" font-family="Helvetica,sans-Serif" font-size="10.00">types.h</text>
</a>
</g>
</g>
<!-- Node1&#45;&gt;Node32 -->
<g id="edge31" class="edge">
<title>Node1&#45;&gt;Node32</title>
<path fill="none" stroke="midnightblue" d="M1284.3,-190.45C1294.71,-180.53 1306.36,-169.43 1315.53,-160.69"/>
<polygon fill="midnightblue" stroke="midnightblue" points="1318.05,-163.13 1322.87,-153.7 1313.22,-158.06 1318.05,-163.13"/>
</g>
<!-- Node39 -->
<g id="node39" class="node">
<title>Node39</title>
<g id="a_node39"><a xlink:title=" ">
<polygon fill="none" stroke="#bfbfbf" points="1695.5,-134.5 1695.5,-153.5 1838.5,-153.5 1838.5,-134.5 1695.5,-134.5"/>
<text text-anchor="middle" x="1767" y="-141.5" font-family="Helvetica,sans-Serif" font-size="10.00">boost/functional/hash.hpp</text>
</a>
</g>
</g>
<!-- Node1&#45;&gt;Node39 -->
<g id="edge43" class="edge">
<title>Node1&#45;&gt;Node39</title>
<path fill="none" stroke="midnightblue" d="M1335.03,-204.83C1432.77,-191.29 1600.05,-168.12 1695.22,-154.94"/>
<polygon fill="midnightblue" stroke="midnightblue" points="1695.9,-158.38 1705.33,-153.54 1694.94,-151.45 1695.9,-158.38"/>
</g>
<!-- Node40 -->
<g id="node40" class="node">
<title>Node40</title>
<g id="a_node40"><a xlink:title=" ">
<polygon fill="none" stroke="#bfbfbf" points="1856.5,-134.5 1856.5,-153.5 1981.5,-153.5 1981.5,-134.5 1856.5,-134.5"/>
<text text-anchor="middle" x="1919" y="-141.5" font-family="Helvetica,sans-Serif" font-size="10.00">boost/lexical_cast.hpp</text>
</a>
</g>
</g>
<!-- Node1&#45;&gt;Node40 -->
<g id="edge44" class="edge">
<title>Node1&#45;&gt;Node40</title>
<path fill="none" stroke="midnightblue" d="M1335.37,-207.99C1446.2,-197.11 1656.79,-175.97 1846.15,-154.2"/>
<polygon fill="midnightblue" stroke="midnightblue" points="1846.76,-157.65 1856.29,-153.03 1845.95,-150.69 1846.76,-157.65"/>
</g>
<!-- Node41 -->
<g id="node41" class="node">
<title>Node41</title>
<g id="a_node41"><a xlink:title=" ">
<polygon fill="none" stroke="#bfbfbf" points="1999.5,-134.5 1999.5,-153.5 2112.5,-153.5 2112.5,-134.5 1999.5,-134.5"/>
<text text-anchor="middle" x="2056" y="-141.5" font-family="Helvetica,sans-Serif" font-size="10.00">boost/uuid/uuid.hpp</text>
</a>
</g>
</g>
<!-- Node1&#45;&gt;Node41 -->
<g id="edge45" class="edge">
<title>Node1&#45;&gt;Node41</title>
<path fill="none" stroke="midnightblue" d="M1335.17,-210.4C1467.1,-201.38 1744.66,-181.08 1989.15,-154.16"/>
<polygon fill="midnightblue" stroke="midnightblue" points="1989.75,-157.61 1999.3,-153.03 1988.98,-150.66 1989.75,-157.61"/>
</g>
<!-- Node42 -->
<g id="node42" class="node">
<title>Node42</title>
<g id="a_node42"><a xlink:title=" ">
<polygon fill="none" stroke="#bfbfbf" points="2131,-134.5 2131,-153.5 2301,-153.5 2301,-134.5 2131,-134.5"/>
<text text-anchor="middle" x="2216" y="-141.5" font-family="Helvetica,sans-Serif" font-size="10.00">boost/uuid/uuid_generators.hpp</text>
</a>
</g>
</g>
<!-- Node1&#45;&gt;Node42 -->
<g id="edge46" class="edge">
<title>Node1&#45;&gt;Node42</title>
<path fill="none" stroke="midnightblue" d="M1335.2,-210.64C1484.64,-201.09 1824.1,-178.72 2120.86,-154.08"/>
<polygon fill="midnightblue" stroke="midnightblue" points="2121.28,-157.55 2130.95,-153.24 2120.7,-150.58 2121.28,-157.55"/>
</g>
<!-- Node43 -->
<g id="node43" class="node">
<title>Node43</title>
<g id="a_node43"><a xlink:title=" ">
<polygon fill="none" stroke="#bfbfbf" points="2319.5,-134.5 2319.5,-153.5 2446.5,-153.5 2446.5,-134.5 2319.5,-134.5"/>
<text text-anchor="middle" x="2383" y="-141.5" font-family="Helvetica,sans-Serif" font-size="10.00">boost/uuid/uuid_io.hpp</text>
</a>
</g>
</g>
<!-- Node1&#45;&gt;Node43 -->
<g id="edge47" class="edge">
<title>Node1&#45;&gt;Node43</title>
<path fill="none" stroke="midnightblue" d="M1335.01,-212.7C1507.46,-206.05 1937.95,-187.4 2309.19,-154.01"/>
<polygon fill="midnightblue" stroke="midnightblue" points="2309.68,-157.48 2319.32,-153.09 2309.05,-150.51 2309.68,-157.48"/>
</g>
<!-- Node13 -->
<g id="node13" class="node">
<title>Node13</title>
<g id="a_node13"><a xlink:title=" ">
<polygon fill="none" stroke="#bfbfbf" points="0,-6 0,-25 174,-25 174,-6 0,-6"/>
<text text-anchor="middle" x="87" y="-13" font-family="Helvetica,sans-Serif" font-size="10.00">geometry_msgs/PoseStamped.h</text>
</a>
</g>
</g>
<!-- Node12&#45;&gt;Node13 -->
<g id="edge12" class="edge">
<title>Node12&#45;&gt;Node13</title>
<path fill="none" stroke="midnightblue" d="M1293.95,-68.12C1290.93,-67.7 1287.94,-67.33 1285,-67 797.95,-12.92 671,-75.67 183,-31 171.07,-29.91 158.36,-28.3 146.22,-26.56"/>
<polygon fill="midnightblue" stroke="midnightblue" points="146.6,-23.07 136.2,-25.06 145.57,-30 146.6,-23.07"/>
</g>
<!-- Node14 -->
<g id="node14" class="node">
<title>Node14</title>
<g id="a_node14"><a xlink:title=" ">
<polygon fill="none" stroke="#bfbfbf" points="192,-6 192,-25 392,-25 392,-6 192,-6"/>
<text text-anchor="middle" x="292" y="-13" font-family="Helvetica,sans-Serif" font-size="10.00">geometry_msgs/TransformStamped.h</text>
</a>
</g>
</g>
<!-- Node12&#45;&gt;Node14 -->
<g id="edge13" class="edge">
<title>Node12&#45;&gt;Node14</title>
<path fill="none" stroke="midnightblue" d="M1293.95,-68.15C1290.93,-67.72 1287.94,-67.34 1285,-67 894.37,-22.03 792.75,-64.96 401,-31 387.23,-29.81 372.52,-28.13 358.52,-26.33"/>
<polygon fill="midnightblue" stroke="midnightblue" points="358.84,-22.85 348.46,-25.01 357.92,-29.79 358.84,-22.85"/>
</g>
<!-- Node15 -->
<g id="node15" class="node">
<title>Node15</title>
<g id="a_node15"><a xlink:title=" ">
<polygon fill="none" stroke="#bfbfbf" points="410,-6 410,-25 598,-25 598,-6 410,-6"/>
<text text-anchor="middle" x="504" y="-13" font-family="Helvetica,sans-Serif" font-size="10.00">geometry_msgs/Vector3Stamped.h</text>
</a>
</g>
</g>
<!-- Node12&#45;&gt;Node15 -->
<g id="edge14" class="edge">
<title>Node12&#45;&gt;Node15</title>
<path fill="none" stroke="midnightblue" d="M1293.94,-68.2C1290.92,-67.76 1287.93,-67.36 1285,-67 985.44,-30.64 907.36,-60.06 607,-31 594.45,-29.79 581.08,-28.15 568.27,-26.43"/>
<polygon fill="midnightblue" stroke="midnightblue" points="568.54,-22.93 558.15,-25.02 567.58,-29.86 568.54,-22.93"/>
</g>
<!-- Node16 -->
<g id="node16" class="node">
<title>Node16</title>
<g id="a_node16"><a xlink:title=" ">
<polygon fill="none" stroke="#bfbfbf" points="616.5,-6 616.5,-25 739.5,-25 739.5,-6 616.5,-6"/>
<text text-anchor="middle" x="678" y="-13" font-family="Helvetica,sans-Serif" font-size="10.00">sensor_msgs/Image.h</text>
</a>
</g>
</g>
<!-- Node12&#45;&gt;Node16 -->
<g id="edge15" class="edge">
<title>Node12&#45;&gt;Node16</title>
<path fill="none" stroke="midnightblue" d="M1293.93,-68.25C1290.92,-67.8 1287.93,-67.38 1285,-67 1047.75,-36.53 985.01,-63.34 748,-31 740.39,-29.96 732.37,-28.58 724.58,-27.08"/>
<polygon fill="midnightblue" stroke="midnightblue" points="725.02,-23.6 714.53,-25.05 723.64,-30.46 725.02,-23.6"/>
</g>
<!-- Node17 -->
<g id="node17" class="node">
<title>Node17</title>
<g id="a_node17"><a xlink:title=" ">
<polygon fill="none" stroke="#bfbfbf" points="757.5,-6 757.5,-25 908.5,-25 908.5,-6 757.5,-6"/>
<text text-anchor="middle" x="833" y="-13" font-family="Helvetica,sans-Serif" font-size="10.00">sensor_msgs/PointCloud2.h</text>
</a>
</g>
</g>
<!-- Node12&#45;&gt;Node17 -->
<g id="edge16" class="edge">
<title>Node12&#45;&gt;Node17</title>
<path fill="none" stroke="midnightblue" d="M1293.92,-68.36C1290.91,-67.88 1287.92,-67.42 1285,-67 1122.78,-43.62 1080.44,-52.79 918,-31 908.64,-29.74 898.73,-28.23 889.11,-26.65"/>
<polygon fill="midnightblue" stroke="midnightblue" points="889.67,-23.2 879.23,-25 888.52,-30.1 889.67,-23.2"/>
</g>
<!-- Node18 -->
<g id="node18" class="node">
<title>Node18</title>
<g id="a_node18"><a xlink:title=" ">
<polygon fill="none" stroke="#bfbfbf" points="927,-6 927,-25 1067,-25 1067,-6 927,-6"/>
<text text-anchor="middle" x="997" y="-13" font-family="Helvetica,sans-Serif" font-size="10.00">sensor_msgs/PointField.h</text>
</a>
</g>
</g>
<!-- Node12&#45;&gt;Node18 -->
<g id="edge17" class="edge">
<title>Node12&#45;&gt;Node18</title>
<path fill="none" stroke="midnightblue" d="M1293.88,-68.63C1290.88,-68.07 1287.91,-67.53 1285,-67 1192.26,-50.17 1168.8,-47.51 1076,-31 1068.55,-29.68 1060.72,-28.26 1052.99,-26.86"/>
<polygon fill="midnightblue" stroke="midnightblue" points="1053.4,-23.37 1042.94,-25.02 1052.14,-30.26 1053.4,-23.37"/>
</g>
<!-- Node19 -->
<g id="node19" class="node">
<title>Node19</title>
<g id="a_node19"><a xlink:title=" ">
<polygon fill="none" stroke="#bfbfbf" points="1085,-6 1085,-25 1195,-25 1195,-6 1085,-6"/>
<text text-anchor="middle" x="1140" y="-13" font-family="Helvetica,sans-Serif" font-size="10.00">std_msgs/Header.h</text>
</a>
</g>
</g>
<!-- Node12&#45;&gt;Node19 -->
<g id="edge18" class="edge">
<title>Node12&#45;&gt;Node19</title>
<path fill="none" stroke="midnightblue" d="M1313.32,-67.48C1273.19,-55.67 1216.5,-39 1179.03,-27.98"/>
<polygon fill="midnightblue" stroke="midnightblue" points="1179.58,-24.49 1169,-25.03 1177.6,-31.21 1179.58,-24.49"/>
</g>
<!-- Node20 -->
<g id="node20" class="node">
<title>Node20</title>
<g id="a_node20"><a xlink:title=" ">
<polygon fill="none" stroke="#bfbfbf" points="1213,-6 1213,-25 1353,-25 1353,-6 1213,-6"/>
<text text-anchor="middle" x="1283" y="-13" font-family="Helvetica,sans-Serif" font-size="10.00">seerep&#45;msgs/header.pb.h</text>
</a>
</g>
</g>
<!-- Node12&#45;&gt;Node20 -->
<g id="edge19" class="edge">
<title>Node12&#45;&gt;Node20</title>
<path fill="none" stroke="midnightblue" d="M1344.08,-67.4C1331.43,-56.86 1314.17,-42.48 1301.23,-31.69"/>
<polygon fill="midnightblue" stroke="midnightblue" points="1303.36,-28.91 1293.43,-25.19 1298.88,-34.29 1303.36,-28.91"/>
</g>
<!-- Node21 -->
<g id="node21" class="node">
<title>Node21</title>
<g id="a_node21"><a xlink:title=" ">
<polygon fill="none" stroke="#bfbfbf" points="1371.5,-6 1371.5,-25 1508.5,-25 1508.5,-6 1371.5,-6"/>
<text text-anchor="middle" x="1440" y="-13" font-family="Helvetica,sans-Serif" font-size="10.00">seerep&#45;msgs/image.pb.h</text>
</a>
</g>
</g>
<!-- Node12&#45;&gt;Node21 -->
<g id="edge20" class="edge">
<title>Node12&#45;&gt;Node21</title>
<path fill="none" stroke="midnightblue" d="M1378.14,-67.4C1390.95,-56.86 1408.43,-42.48 1421.54,-31.69"/>
<polygon fill="midnightblue" stroke="midnightblue" points="1423.93,-34.25 1429.43,-25.19 1419.49,-28.85 1423.93,-34.25"/>
</g>
<!-- Node22 -->
<g id="node22" class="node">
<title>Node22</title>
<g id="a_node22"><a xlink:title=" ">
<polygon fill="none" stroke="#bfbfbf" points="1526.5,-0.5 1526.5,-30.5 1665.5,-30.5 1665.5,-0.5 1526.5,-0.5"/>
<text text-anchor="start" x="1534.5" y="-18.5" font-family="Helvetica,sans-Serif" font-size="10.00">seerep&#45;msgs/point_cloud</text>
<text text-anchor="middle" x="1596" y="-7.5" font-family="Helvetica,sans-Serif" font-size="10.00">_2.pb.h</text>
</a>
</g>
</g>
<!-- Node12&#45;&gt;Node22 -->
<g id="edge21" class="edge">
<title>Node12&#45;&gt;Node22</title>
<path fill="none" stroke="midnightblue" d="M1411.7,-67.48C1447.87,-57.47 1496.68,-43.97 1534.98,-33.38"/>
<polygon fill="midnightblue" stroke="midnightblue" points="1536.28,-36.65 1544.98,-30.61 1534.41,-29.9 1536.28,-36.65"/>
</g>
<!-- Node23 -->
<g id="node23" class="node">
<title>Node23</title>
<g id="a_node23"><a xlink:title=" ">
<polygon fill="none" stroke="#bfbfbf" points="1684,-6 1684,-25 1842,-25 1842,-6 1684,-6"/>
<text text-anchor="middle" x="1763" y="-13" font-family="Helvetica,sans-Serif" font-size="10.00">seerep&#45;msgs/point_field.pb.h</text>
</a>
</g>
</g>
<!-- Node12&#45;&gt;Node23 -->
<g id="edge22" class="edge">
<title>Node12&#45;&gt;Node23</title>
<path fill="none" stroke="midnightblue" d="M1428.11,-68.55C1431.11,-68.02 1434.09,-67.5 1437,-67 1542.45,-48.97 1569.33,-47.7 1675,-31 1683.67,-29.63 1692.81,-28.16 1701.79,-26.69"/>
<polygon fill="midnightblue" stroke="midnightblue" points="1702.53,-30.12 1711.83,-25.05 1701.4,-23.21 1702.53,-30.12"/>
</g>
<!-- Node24 -->
<g id="node24" class="node">
<title>Node24</title>
<g id="a_node24"><a xlink:title=" ">
<polygon fill="none" stroke="#bfbfbf" points="1860,-6 1860,-25 2038,-25 2038,-6 1860,-6"/>
<text text-anchor="middle" x="1949" y="-13" font-family="Helvetica,sans-Serif" font-size="10.00">seerep&#45;msgs/pose_stamped.pb.h</text>
</a>
</g>
</g>
<!-- Node12&#45;&gt;Node24 -->
<g id="edge23" class="edge">
<title>Node12&#45;&gt;Node24</title>
<path fill="none" stroke="midnightblue" d="M1428.08,-68.32C1431.09,-67.85 1434.07,-67.41 1437,-67 1619.95,-41.66 1667.56,-52.53 1851,-31 1862.16,-29.69 1874.01,-28.1 1885.47,-26.47"/>
<polygon fill="midnightblue" stroke="midnightblue" points="1886.02,-29.92 1895.42,-25.02 1885.02,-23 1886.02,-29.92"/>
</g>
<!-- Node25 -->
<g id="node25" class="node">
<title>Node25</title>
<g id="a_node25"><a xlink:title=" ">
<polygon fill="none" stroke="#bfbfbf" points="2056.5,-6 2056.5,-25 2211.5,-25 2211.5,-6 2056.5,-6"/>
<text text-anchor="middle" x="2134" y="-13" font-family="Helvetica,sans-Serif" font-size="10.00">seerep&#45;msgs/transform.pb.h</text>
</a>
</g>
</g>
<!-- Node12&#45;&gt;Node25 -->
<g id="edge24" class="edge">
<title>Node12&#45;&gt;Node25</title>
<path fill="none" stroke="midnightblue" d="M1428.06,-68.22C1431.08,-67.77 1434.07,-67.36 1437,-67 1706.51,-33.48 1777.12,-61.37 2047,-31 2057.26,-29.85 2068.16,-28.29 2078.64,-26.63"/>
<polygon fill="midnightblue" stroke="midnightblue" points="2079.22,-30.08 2088.52,-25.02 2078.09,-23.17 2079.22,-30.08"/>
</g>
<!-- Node26 -->
<g id="node26" class="node">
<title>Node26</title>
<g id="a_node26"><a xlink:title=" ">
<polygon fill="none" stroke="#bfbfbf" points="2229.5,-0.5 2229.5,-30.5 2360.5,-30.5 2360.5,-0.5 2229.5,-0.5"/>
<text text-anchor="start" x="2237.5" y="-18.5" font-family="Helvetica,sans-Serif" font-size="10.00">seerep&#45;msgs/transform</text>
<text text-anchor="middle" x="2295" y="-7.5" font-family="Helvetica,sans-Serif" font-size="10.00">_stamped.pb.h</text>
</a>
</g>
</g>
<!-- Node12&#45;&gt;Node26 -->
<g id="edge25" class="edge">
<title>Node12&#45;&gt;Node26</title>
<path fill="none" stroke="midnightblue" d="M1428.06,-68.17C1431.07,-67.74 1434.07,-67.35 1437,-67 1780.12,-26.6 1872.92,-71.77 2219.25,-31.09"/>
<polygon fill="midnightblue" stroke="midnightblue" points="2219.8,-34.55 2229.31,-29.89 2218.97,-27.6 2219.8,-34.55"/>
</g>
<!-- Node27 -->
<g id="node27" class="node">
<title>Node27</title>
<g id="a_node27"><a xlink:title=" ">
<polygon fill="none" stroke="#bfbfbf" points="2378.5,-6 2378.5,-25 2521.5,-25 2521.5,-6 2378.5,-6"/>
<text text-anchor="middle" x="2450" y="-13" font-family="Helvetica,sans-Serif" font-size="10.00">seerep&#45;msgs/vector3.pb.h</text>
</a>
</g>
</g>
<!-- Node12&#45;&gt;Node27 -->
<g id="edge26" class="edge">
<title>Node12&#45;&gt;Node27</title>
<path fill="none" stroke="midnightblue" d="M1428.05,-68.14C1431.07,-67.72 1434.06,-67.33 1437,-67 1849.3,-19.98 1957.48,-76.12 2370,-31 2379.48,-29.96 2389.52,-28.46 2399.17,-26.82"/>
<polygon fill="midnightblue" stroke="midnightblue" points="2399.82,-30.26 2409.05,-25.07 2398.59,-23.37 2399.82,-30.26"/>
</g>
<!-- Node28 -->
<g id="node28" class="node">
<title>Node28</title>
<g id="a_node28"><a xlink:title=" ">
<polygon fill="none" stroke="#bfbfbf" points="2539.5,-0.5 2539.5,-30.5 2658.5,-30.5 2658.5,-0.5 2539.5,-0.5"/>
<text text-anchor="start" x="2547.5" y="-18.5" font-family="Helvetica,sans-Serif" font-size="10.00">seerep&#45;msgs/vector3</text>
<text text-anchor="middle" x="2599" y="-7.5" font-family="Helvetica,sans-Serif" font-size="10.00">_stamped.pb.h</text>
</a>
</g>
</g>
<!-- Node12&#45;&gt;Node28 -->
<g id="edge27" class="edge">
<title>Node12&#45;&gt;Node28</title>
<path fill="none" stroke="midnightblue" d="M1428.05,-68.12C1431.07,-67.7 1434.06,-67.33 1437,-67 1917.2,-13.62 2046.34,-88.92 2529.37,-31.05"/>
<polygon fill="midnightblue" stroke="midnightblue" points="2529.89,-34.51 2539.4,-29.83 2529.05,-27.56 2529.89,-34.51"/>
</g>
<!-- Node32&#45;&gt;Node8 -->
<g id="edge34" class="edge">
<title>Node32&#45;&gt;Node8</title>
<path fill="none" stroke="midnightblue" d="M1305.46,-141.25C1227.3,-136 991.17,-119.4 796,-98 783.65,-96.65 770.52,-95.02 757.85,-93.36"/>
<polygon fill="midnightblue" stroke="midnightblue" points="758.18,-89.87 747.8,-92.02 757.25,-96.81 758.18,-89.87"/>
</g>
<!-- Node32&#45;&gt;Node9 -->
<g id="edge36" class="edge">
<title>Node32&#45;&gt;Node9</title>
<path fill="none" stroke="midnightblue" d="M1305.23,-140.58C1243.82,-134.87 1087.89,-119.53 947.3,-98.13"/>
<polygon fill="midnightblue" stroke="midnightblue" points="947.62,-94.64 937.21,-96.58 946.56,-101.56 947.62,-94.64"/>
</g>
<!-- Node32&#45;&gt;Node10 -->
<g id="edge37" class="edge">
<title>Node32&#45;&gt;Node10</title>
<path fill="none" stroke="midnightblue" d="M1305.4,-137.56C1257.29,-127.72 1155.02,-106.81 1092.72,-94.08"/>
<polygon fill="midnightblue" stroke="midnightblue" points="1093.2,-90.6 1082.71,-92.03 1091.8,-97.46 1093.2,-90.6"/>
</g>
<!-- Node32&#45;&gt;Node11 -->
<g id="edge38" class="edge">
<title>Node32&#45;&gt;Node11</title>
<path fill="none" stroke="midnightblue" d="M1314.52,-134.48C1297.23,-126.04 1270.19,-112.86 1247.95,-102.01"/>
<polygon fill="midnightblue" stroke="midnightblue" points="1249.28,-98.76 1238.75,-97.52 1246.21,-105.05 1249.28,-98.76"/>
</g>
<!-- Node32&#45;&gt;Node12 -->
<g id="edge42" class="edge">
<title>Node32&#45;&gt;Node12</title>
<path fill="none" stroke="midnightblue" d="M1336.15,-134.48C1339.68,-127.25 1344.9,-116.53 1349.65,-106.78"/>
<polygon fill="midnightblue" stroke="midnightblue" points="1352.93,-108.05 1354.17,-97.52 1346.64,-104.98 1352.93,-108.05"/>
</g>
<!-- Node33 -->
<g id="node33" class="node">
<title>Node33</title>
<g id="a_node33"><a xlink:title=" ">
<polygon fill="none" stroke="#bfbfbf" points="2072,-73 2072,-92 2136,-92 2136,-73 2072,-73"/>
<text text-anchor="middle" x="2104" y="-80" font-family="Helvetica,sans-Serif" font-size="10.00">algorithm</text>
</a>
</g>
</g>
<!-- Node32&#45;&gt;Node33 -->
<g id="edge32" class="edge">
<title>Node32&#45;&gt;Node33</title>
<path fill="none" stroke="midnightblue" d="M1358.62,-135.74C1361.76,-135.06 1364.94,-134.46 1368,-134 1673.91,-88.28 1759.61,-158.19 2063,-98 2066.51,-97.3 2070.13,-96.37 2073.7,-95.3"/>
<polygon fill="midnightblue" stroke="midnightblue" points="2075.08,-98.53 2083.47,-92.06 2072.87,-91.89 2075.08,-98.53"/>
</g>
<!-- Node34 -->
<g id="node34" class="node">
<title>Node34</title>
<g id="a_node34"><a xlink:title=" ">
<polygon fill="none" stroke="#bfbfbf" points="2154,-73 2154,-92 2198,-92 2198,-73 2154,-73"/>
<text text-anchor="middle" x="2176" y="-80" font-family="Helvetica,sans-Serif" font-size="10.00">string</text>
</a>
</g>
</g>
<!-- Node32&#45;&gt;Node34 -->
<g id="edge33" class="edge">
<title>Node32&#45;&gt;Node34</title>
<path fill="none" stroke="midnightblue" d="M1358.62,-135.72C1361.76,-135.05 1364.94,-134.45 1368,-134 1710.04,-83.83 1809.36,-180.81 2145,-98 2146.99,-97.51 2149.01,-96.89 2151.01,-96.18"/>
<polygon fill="midnightblue" stroke="midnightblue" points="2152.81,-99.22 2160.67,-92.12 2150.09,-92.77 2152.81,-99.22"/>
</g>
<!-- Node35 -->
<g id="node35" class="node">
<title>Node35</title>
<g id="a_node35"><a xlink:title=" ">
<polygon fill="none" stroke="#bfbfbf" points="2216,-73 2216,-92 2422,-92 2422,-73 2216,-73"/>
<text text-anchor="middle" x="2319" y="-80" font-family="Helvetica,sans-Serif" font-size="10.00">seerep&#45;com/meta&#45;operations.grpc.pb.h</text>
</a>
</g>
</g>
<!-- Node32&#45;&gt;Node35 -->
<g id="edge35" class="edge">
<title>Node32&#45;&gt;Node35</title>
<path fill="none" stroke="midnightblue" d="M1358.62,-135.71C1361.76,-135.04 1364.94,-134.44 1368,-134 1737.37,-80.47 1835.14,-129.99 2207,-98 2221.07,-96.79 2236.09,-95.11 2250.4,-93.33"/>
<polygon fill="midnightblue" stroke="midnightblue" points="2251.21,-96.75 2260.68,-92.01 2250.32,-89.81 2251.21,-96.75"/>
</g>
<!-- Node36 -->
<g id="node36" class="node">
<title>Node36</title>
<g id="a_node36"><a xlink:title=" ">
<polygon fill="none" stroke="#bfbfbf" points="1446,-73 1446,-92 1640,-92 1640,-73 1446,-73"/>
<text text-anchor="middle" x="1543" y="-80" font-family="Helvetica,sans-Serif" font-size="10.00">seerep&#45;com/image_service.grpc.fb.h</text>
</a>
</g>
</g>
<!-- Node32&#45;&gt;Node36 -->
<g id="edge39" class="edge">
<title>Node32&#45;&gt;Node36</title>
<path fill="none" stroke="midnightblue" d="M1358.72,-135.46C1395.17,-125.19 1460.75,-106.69 1503.05,-94.76"/>
<polygon fill="midnightblue" stroke="midnightblue" points="1504.07,-98.11 1512.75,-92.03 1502.17,-91.38 1504.07,-98.11"/>
</g>
<!-- Node37 -->
<g id="node37" class="node">
<title>Node37</title>
<g id="a_node37"><a xlink:title=" ">
<polygon fill="none" stroke="#bfbfbf" points="1658,-73 1658,-92 1864,-92 1864,-73 1658,-73"/>
<text text-anchor="middle" x="1761" y="-80" font-family="Helvetica,sans-Serif" font-size="10.00">seerep&#45;com/meta_operations.grpc.fb.h</text>
</a>
</g>
</g>
<!-- Node32&#45;&gt;Node37 -->
<g id="edge40" class="edge">
<title>Node32&#45;&gt;Node37</title>
<path fill="none" stroke="midnightblue" d="M1358.66,-135.96C1361.8,-135.25 1364.96,-134.57 1368,-134 1491.73,-110.69 1524.12,-114.08 1649,-98 1660.7,-96.49 1673.08,-94.89 1685.19,-93.33"/>
<polygon fill="midnightblue" stroke="midnightblue" points="1685.8,-96.78 1695.26,-92.03 1684.9,-89.84 1685.8,-96.78"/>
</g>
<!-- Node38 -->
<g id="node38" class="node">
<title>Node38</title>
<g id="a_node38"><a xlink:title=" ">
<polygon fill="none" stroke="#bfbfbf" points="1882.5,-73 1882.5,-92 2053.5,-92 2053.5,-73 1882.5,-73"/>
<text text-anchor="middle" x="1968" y="-80" font-family="Helvetica,sans-Serif" font-size="10.00">seerep&#45;com/tf_service.grpc.fb.h</text>
</a>
</g>
</g>
<!-- Node32&#45;&gt;Node38 -->
<g id="edge41" class="edge">
<title>Node32&#45;&gt;Node38</title>
<path fill="none" stroke="midnightblue" d="M1358.63,-135.79C1361.77,-135.11 1364.95,-134.49 1368,-134 1590.21,-98.58 1649.38,-123 1873,-98 1884.16,-96.75 1896.01,-95.16 1907.43,-93.49"/>
<polygon fill="midnightblue" stroke="midnightblue" points="1907.95,-96.95 1917.32,-92.01 1906.91,-90.03 1907.95,-96.95"/>
</g>
</g>
</svg>
