<?xml version="1.0" encoding="UTF-8" standalone="no"?>
<!DOCTYPE svg PUBLIC "-//W3C//DTD SVG 1.1//EN"
 "http://www.w3.org/Graphics/SVG/1.1/DTD/svg11.dtd">
<!-- Generated by graphviz version 2.43.0 (0)
 -->
<!-- Title: seerep&#45;srv/seerep&#45;core&#45;pb/include/seerep&#45;core&#45;pb/core&#45;pb&#45;image.h Pages: 1 -->
<svg width="5084pt" height="564pt"
 viewBox="0.00 0.00 5084.49 564.00" xmlns="http://www.w3.org/2000/svg" xmlns:xlink="http://www.w3.org/1999/xlink">
<g id="graph0" class="graph" transform="scale(1 1) rotate(0) translate(4 560)">
<title>seerep&#45;srv/seerep&#45;core&#45;pb/include/seerep&#45;core&#45;pb/core&#45;pb&#45;image.h</title>
<!-- Node1 -->
<g id="node1" class="node">
<title>Node1</title>
<g id="a_node1"><a xlink:title=" ">
<polygon fill="#bfbfbf" stroke="black" points="3792.99,-514.5 3792.99,-555.5 3923.99,-555.5 3923.99,-514.5 3792.99,-514.5"/>
<text text-anchor="start" x="3800.99" y="-543.5" font-family="Helvetica,sans-Serif" font-size="10.00">seerep&#45;srv/seerep&#45;core</text>
<text text-anchor="start" x="3800.99" y="-532.5" font-family="Helvetica,sans-Serif" font-size="10.00">&#45;pb/include/seerep&#45;core</text>
<text text-anchor="middle" x="3858.49" y="-521.5" font-family="Helvetica,sans-Serif" font-size="10.00">&#45;pb/core&#45;pb&#45;image.h</text>
</a>
</g>
</g>
<!-- Node2 -->
<g id="node2" class="node">
<title>Node2</title>
<g id="a_node2"><a xlink:title=" ">
<polygon fill="none" stroke="#bfbfbf" points="2014.99,-140 2014.99,-159 2079.99,-159 2079.99,-140 2014.99,-140"/>
<text text-anchor="middle" x="2047.49" y="-147" font-family="Helvetica,sans-Serif" font-size="10.00">functional</text>
</a>
</g>
</g>
<!-- Node1&#45;&gt;Node2 -->
<g id="edge1" class="edge">
<title>Node1&#45;&gt;Node2</title>
<path fill="none" stroke="midnightblue" d="M3792.71,-533.64C3422.84,-531.45 1617.21,-518.71 1577.49,-478 1427.74,-324.53 1863.6,-197.27 2004.89,-160.93"/>
<polygon fill="midnightblue" stroke="midnightblue" points="2006.1,-164.23 2014.93,-158.37 2004.37,-157.45 2006.1,-164.23"/>
</g>
<!-- Node3 -->
<g id="node3" class="node">
<title>Node3</title>
<g id="a_node3"><a xlink:title=" ">
<polygon fill="none" stroke="#bfbfbf" points="2118.49,-6 2118.49,-25 2174.49,-25 2174.49,-6 2118.49,-6"/>
<text text-anchor="middle" x="2146.49" y="-13" font-family="Helvetica,sans-Serif" font-size="10.00">optional</text>
</a>
</g>
</g>
<!-- Node1&#45;&gt;Node3 -->
<g id="edge2" class="edge">
<title>Node1&#45;&gt;Node3</title>
<path fill="none" stroke="midnightblue" d="M3792.94,-533.47C3422.27,-530.32 1603.88,-513.11 1558.49,-478 1432.65,-380.66 1534.72,-235.19 1657.49,-134 1660.42,-131.59 1772.89,-68.21 1776.49,-67 1892.86,-27.89 2039.53,-19.01 2107.99,-17.03"/>
<polygon fill="midnightblue" stroke="midnightblue" points="2108.38,-20.53 2118.29,-16.77 2108.21,-13.53 2108.38,-20.53"/>
</g>
<!-- Node4 -->
<g id="node4" class="node">
<title>Node4</title>
<g id="a_node4"><a xlink:title=" ">
<polygon fill="none" stroke="#bfbfbf" points="1110.99,-140 1110.99,-159 1247.99,-159 1247.99,-140 1110.99,-140"/>
<text text-anchor="middle" x="1179.49" y="-147" font-family="Helvetica,sans-Serif" font-size="10.00">seerep&#45;msgs/image.pb.h</text>
</a>
</g>
</g>
<!-- Node1&#45;&gt;Node4 -->
<g id="edge3" class="edge">
<title>Node1&#45;&gt;Node4</title>
<path fill="none" stroke="midnightblue" d="M3792.68,-533.63C3390.88,-531.27 1283.78,-517.02 1230.49,-478 1203.78,-458.45 1206.49,-440.6 1206.49,-407.5 1206.49,-407.5 1206.49,-407.5 1206.49,-277 1206.49,-237.86 1193.97,-193.37 1185.98,-168.97"/>
<polygon fill="midnightblue" stroke="midnightblue" points="1189.22,-167.6 1182.69,-159.26 1182.59,-169.85 1189.22,-167.6"/>
</g>
<!-- Node5 -->
<g id="node5" class="node">
<title>Node5</title>
<g id="a_node5"><a xlink:title=" ">
<polygon fill="none" stroke="#bfbfbf" points="4648.99,-140 4648.99,-159 4781.99,-159 4781.99,-140 4648.99,-140"/>
<text text-anchor="middle" x="4715.49" y="-147" font-family="Helvetica,sans-Serif" font-size="10.00">seerep&#45;msgs/query.pb.h</text>
</a>
</g>
</g>
<!-- Node1&#45;&gt;Node5 -->
<g id="edge4" class="edge">
<title>Node1&#45;&gt;Node5</title>
<path fill="none" stroke="midnightblue" d="M3924.45,-534.9C4046.8,-535.17 4316.49,-529.23 4536.49,-478 4619.76,-458.61 4715.49,-493 4715.49,-407.5 4715.49,-407.5 4715.49,-407.5 4715.49,-277 4715.49,-238.7 4715.49,-193.88 4715.49,-169.2"/>
<polygon fill="midnightblue" stroke="midnightblue" points="4718.99,-169.09 4715.49,-159.09 4711.99,-169.09 4718.99,-169.09"/>
</g>
<!-- Node6 -->
<g id="node6" class="node">
<title>Node6</title>
<g id="a_node6"><a xlink:title=" ">
<polygon fill="none" stroke="#bfbfbf" points="4479.99,-140 4479.99,-159 4630.99,-159 4630.99,-140 4479.99,-140"/>
<text text-anchor="middle" x="4555.49" y="-147" font-family="Helvetica,sans-Serif" font-size="10.00">seerep&#45;msgs/query&#45;result.h</text>
</a>
</g>
</g>
<!-- Node1&#45;&gt;Node6 -->
<g id="edge5" class="edge">
<title>Node1&#45;&gt;Node6</title>
<path fill="none" stroke="midnightblue" d="M3924.3,-530.5C4115.66,-519.47 4658.49,-481.63 4658.49,-407.5 4658.49,-407.5 4658.49,-407.5 4658.49,-338.5 4658.49,-267.1 4600.64,-197.13 4571.65,-166.55"/>
<polygon fill="midnightblue" stroke="midnightblue" points="4574.11,-164.05 4564.63,-159.32 4569.08,-168.93 4574.11,-164.05"/>
</g>
<!-- Node7 -->
<g id="node7" class="node">
<title>Node7</title>
<g id="a_node7"><a xlink:title=" ">
<polygon fill="none" stroke="#bfbfbf" points="3626.49,-140 3626.49,-159 3744.49,-159 3744.49,-140 3626.49,-140"/>
<text text-anchor="middle" x="3685.49" y="-147" font-family="Helvetica,sans-Serif" font-size="10.00">seerep&#45;msgs/query.h</text>
</a>
</g>
</g>
<!-- Node1&#45;&gt;Node7 -->
<g id="edge6" class="edge">
<title>Node1&#45;&gt;Node7</title>
<path fill="none" stroke="midnightblue" d="M3904.39,-514.44C3919.3,-505.62 3934.14,-493.61 3942.49,-478 3946.68,-470.16 3944.71,-466.61 3942.49,-458 3909.9,-331.64 3896.87,-288.98 3800.49,-201 3780.34,-182.6 3752.41,-170.13 3729.13,-162.18"/>
<polygon fill="midnightblue" stroke="midnightblue" points="3730.06,-158.8 3719.47,-159.04 3727.9,-165.46 3730.06,-158.8"/>
</g>
<!-- Node8 -->
<g id="node8" class="node">
<title>Node8</title>
<g id="a_node8"><a xlink:href="hdf5-pb-image_8h.html" target="_top" xlink:title=" ">
<polygon fill="none" stroke="black" points="1034.49,-201.5 1034.49,-231.5 1150.49,-231.5 1150.49,-201.5 1034.49,-201.5"/>
<text text-anchor="start" x="1042.49" y="-219.5" font-family="Helvetica,sans-Serif" font-size="10.00">seerep&#45;hdf5&#45;pb/hdf5</text>
<text text-anchor="middle" x="1092.49" y="-208.5" font-family="Helvetica,sans-Serif" font-size="10.00">&#45;pb&#45;image.h</text>
</a>
</g>
</g>
<!-- Node1&#45;&gt;Node8 -->
<g id="edge7" class="edge">
<title>Node1&#45;&gt;Node8</title>
<path fill="none" stroke="midnightblue" d="M3792.76,-533.71C3394.74,-531.79 1319.69,-519.81 1192.49,-478 1140.83,-461.02 1092.49,-461.88 1092.49,-407.5 1092.49,-407.5 1092.49,-407.5 1092.49,-338.5 1092.49,-304.98 1092.49,-266.24 1092.49,-241.81"/>
<polygon fill="midnightblue" stroke="midnightblue" points="1095.99,-241.66 1092.49,-231.66 1088.99,-241.66 1095.99,-241.66"/>
</g>
<!-- Node13 -->
<g id="node13" class="node">
<title>Node13</title>
<g id="a_node13"><a xlink:title=" ">
<polygon fill="none" stroke="#bfbfbf" points="4102.99,-6 4102.99,-25 4215.99,-25 4215.99,-6 4102.99,-6"/>
<text text-anchor="middle" x="4159.49" y="-13" font-family="Helvetica,sans-Serif" font-size="10.00">boost/uuid/uuid.hpp</text>
</a>
</g>
</g>
<!-- Node1&#45;&gt;Node13 -->
<g id="edge185" class="edge">
<title>Node1&#45;&gt;Node13</title>
<path fill="none" stroke="midnightblue" d="M3924.41,-534.14C4177.99,-533.8 5076.49,-524.36 5076.49,-407.5 5076.49,-407.5 5076.49,-407.5 5076.49,-148.5 5076.49,-104.8 5059.46,-88.63 5021.49,-67 4953.1,-28.04 4416.81,-19.02 4226.33,-17.03"/>
<polygon fill="midnightblue" stroke="midnightblue" points="4226.21,-13.53 4216.17,-16.93 4226.14,-20.53 4226.21,-13.53"/>
</g>
<!-- Node22 -->
<g id="node22" class="node">
<title>Node22</title>
<g id="a_node22"><a xlink:title=" ">
<polygon fill="none" stroke="#bfbfbf" points="2262.99,-73 2262.99,-92 2405.99,-92 2405.99,-73 2262.99,-73"/>
<text text-anchor="middle" x="2334.49" y="-80" font-family="Helvetica,sans-Serif" font-size="10.00">boost/functional/hash.hpp</text>
</a>
</g>
</g>
<!-- Node1&#45;&gt;Node22 -->
<g id="edge183" class="edge">
<title>Node1&#45;&gt;Node22</title>
<path fill="none" stroke="midnightblue" d="M3792.97,-532.65C3464.71,-525.61 2012.19,-490.6 1947.49,-422 1889.31,-360.31 1546.34,-572.78 1983.49,-134 2002.22,-115.2 2154.9,-98.82 2252.63,-90.13"/>
<polygon fill="midnightblue" stroke="midnightblue" points="2253.14,-93.59 2262.79,-89.23 2252.52,-86.62 2253.14,-93.59"/>
</g>
<!-- Node23 -->
<g id="node23" class="node">
<title>Node23</title>
<g id="a_node23"><a xlink:title=" ">
<polygon fill="none" stroke="#bfbfbf" points="3191.99,-73 3191.99,-92 3316.99,-92 3316.99,-73 3191.99,-73"/>
<text text-anchor="middle" x="3254.49" y="-80" font-family="Helvetica,sans-Serif" font-size="10.00">boost/lexical_cast.hpp</text>
</a>
</g>
</g>
<!-- Node1&#45;&gt;Node23 -->
<g id="edge184" class="edge">
<title>Node1&#45;&gt;Node23</title>
<path fill="none" stroke="midnightblue" d="M3839.7,-514.46C3811.84,-485.93 3757.36,-431.81 3706.49,-391 3550.59,-265.92 3345.3,-138.54 3277.39,-97.28"/>
<polygon fill="midnightblue" stroke="midnightblue" points="3279.1,-94.23 3268.74,-92.04 3275.48,-100.22 3279.1,-94.23"/>
</g>
<!-- Node24 -->
<g id="node24" class="node">
<title>Node24</title>
<g id="a_node24"><a xlink:title=" ">
<polygon fill="none" stroke="#bfbfbf" points="3480.49,-73 3480.49,-92 3650.49,-92 3650.49,-73 3480.49,-73"/>
<text text-anchor="middle" x="3565.49" y="-80" font-family="Helvetica,sans-Serif" font-size="10.00">boost/uuid/uuid_generators.hpp</text>
</a>
</g>
</g>
<!-- Node1&#45;&gt;Node24 -->
<g id="edge186" class="edge">
<title>Node1&#45;&gt;Node24</title>
<path fill="none" stroke="midnightblue" d="M3924.3,-532.69C4148.34,-527.38 4867.49,-502.89 4867.49,-407.5 4867.49,-407.5 4867.49,-407.5 4867.49,-277 4867.49,-208.25 4864.84,-173.39 4808.49,-134 4761.69,-101.29 3943.71,-88.16 3660.82,-84.58"/>
<polygon fill="midnightblue" stroke="midnightblue" points="3660.62,-81.08 3650.58,-84.45 3660.54,-88.08 3660.62,-81.08"/>
</g>
<!-- Node25 -->
<g id="node25" class="node">
<title>Node25</title>
<g id="a_node25"><a xlink:title=" ">
<polygon fill="none" stroke="#bfbfbf" points="3334.99,-73 3334.99,-92 3461.99,-92 3461.99,-73 3334.99,-73"/>
<text text-anchor="middle" x="3398.49" y="-80" font-family="Helvetica,sans-Serif" font-size="10.00">boost/uuid/uuid_io.hpp</text>
</a>
</g>
</g>
<!-- Node1&#45;&gt;Node25 -->
<g id="edge187" class="edge">
<title>Node1&#45;&gt;Node25</title>
<path fill="none" stroke="midnightblue" d="M3877.62,-514.38C3898.34,-490.97 3928.49,-449.67 3928.49,-407.5 3928.49,-407.5 3928.49,-407.5 3928.49,-277 3928.49,-190.81 3877.78,-165.35 3797.49,-134 3661.71,-80.97 3615.55,-120.22 3471.49,-98 3463.94,-96.84 3455.99,-95.44 3448.22,-93.97"/>
<polygon fill="midnightblue" stroke="midnightblue" points="3448.64,-90.49 3438.16,-92.02 3447.31,-97.36 3448.64,-90.49"/>
</g>
<!-- Node32 -->
<g id="node32" class="node">
<title>Node32</title>
<g id="a_node32"><a xlink:href="core_8h.html" target="_top" xlink:title=" ">
<polygon fill="none" stroke="black" points="3017.99,-458.5 3017.99,-477.5 3124.99,-477.5 3124.99,-458.5 3017.99,-458.5"/>
<text text-anchor="middle" x="3071.49" y="-465.5" font-family="Helvetica,sans-Serif" font-size="10.00">seerep&#45;core/core.h</text>
</a>
</g>
</g>
<!-- Node1&#45;&gt;Node32 -->
<g id="edge49" class="edge">
<title>Node1&#45;&gt;Node32</title>
<path fill="none" stroke="midnightblue" d="M3792.74,-528.57C3643.84,-516.27 3282.37,-486.42 3135.31,-474.27"/>
<polygon fill="midnightblue" stroke="midnightblue" points="3135.35,-470.76 3125.1,-473.43 3134.78,-477.74 3135.35,-470.76"/>
</g>
<!-- Node54 -->
<g id="node48" class="node">
<title>Node54</title>
<g id="a_node48"><a xlink:href="core-pb-conversion_8h.html" target="_top" xlink:title=" ">
<polygon fill="none" stroke="black" points="3956.49,-201.5 3956.49,-231.5 4070.49,-231.5 4070.49,-201.5 3956.49,-201.5"/>
<text text-anchor="start" x="3964.49" y="-219.5" font-family="Helvetica,sans-Serif" font-size="10.00">seerep&#45;core&#45;pb/core</text>
<text text-anchor="middle" x="4013.49" y="-208.5" font-family="Helvetica,sans-Serif" font-size="10.00">&#45;pb&#45;conversion.h</text>
</a>
</g>
</g>
<!-- Node1&#45;&gt;Node54 -->
<g id="edge166" class="edge">
<title>Node1&#45;&gt;Node54</title>
<path fill="none" stroke="midnightblue" d="M3924.14,-517.76C3945.28,-509.31 3966.77,-496.69 3980.49,-478 4033.41,-405.91 4024.6,-291.35 4017.6,-241.73"/>
<polygon fill="midnightblue" stroke="midnightblue" points="4021.02,-240.99 4016.06,-231.63 4014.1,-242.04 4021.02,-240.99"/>
</g>
<!-- Node8&#45;&gt;Node3 -->
<g id="edge48" class="edge">
<title>Node8&#45;&gt;Node3</title>
<path fill="none" stroke="midnightblue" d="M1089.23,-201.37C1085.92,-183.01 1083.53,-151.27 1101.49,-134 1142.11,-94.93 1553.51,-114.23 1607.49,-98 1634.36,-89.92 1635.75,-75.52 1662.49,-67 1745.49,-40.54 2008.88,-23.94 2108.14,-18.48"/>
<polygon fill="midnightblue" stroke="midnightblue" points="2108.52,-21.97 2118.32,-17.93 2108.15,-14.98 2108.52,-21.97"/>
</g>
<!-- Node8&#45;&gt;Node4 -->
<g id="edge46" class="edge">
<title>Node8&#45;&gt;Node4</title>
<path fill="none" stroke="midnightblue" d="M1111.37,-201.4C1125.6,-190.76 1145.09,-176.2 1159.57,-165.38"/>
<polygon fill="midnightblue" stroke="midnightblue" points="1161.94,-167.98 1167.85,-159.19 1157.75,-162.38 1161.94,-167.98"/>
</g>
<!-- Node9 -->
<g id="node9" class="node">
<title>Node9</title>
<g id="a_node9"><a xlink:title=" ">
<polygon fill="none" stroke="#bfbfbf" points="1236.49,-6 1236.49,-25 1346.49,-25 1346.49,-6 1236.49,-6"/>
<text text-anchor="middle" x="1291.49" y="-13" font-family="Helvetica,sans-Serif" font-size="10.00">highfive/H5File.hpp</text>
</a>
</g>
</g>
<!-- Node8&#45;&gt;Node9 -->
<g id="edge8" class="edge">
<title>Node8&#45;&gt;Node9</title>
<path fill="none" stroke="midnightblue" d="M1081.8,-201.36C1070.37,-184.36 1055.53,-155.47 1068.49,-134 1105.23,-73.11 1185.2,-42.17 1238.7,-27.7"/>
<polygon fill="midnightblue" stroke="midnightblue" points="1239.9,-31.01 1248.7,-25.1 1238.14,-24.23 1239.9,-31.01"/>
</g>
<!-- Node10 -->
<g id="node10" class="node">
<title>Node10</title>
<g id="a_node10"><a xlink:href="hdf5-core-image_8h.html" target="_top" xlink:title=" ">
<polygon fill="none" stroke="black" points="2432.99,-134.5 2432.99,-164.5 2557.99,-164.5 2557.99,-134.5 2432.99,-134.5"/>
<text text-anchor="start" x="2440.99" y="-152.5" font-family="Helvetica,sans-Serif" font-size="10.00">seerep&#45;hdf5&#45;core/hdf5</text>
<text text-anchor="middle" x="2495.49" y="-141.5" font-family="Helvetica,sans-Serif" font-size="10.00">&#45;core&#45;image.h</text>
</a>
</g>
</g>
<!-- Node8&#45;&gt;Node10 -->
<g id="edge9" class="edge">
<title>Node8&#45;&gt;Node10</title>
<path fill="none" stroke="midnightblue" d="M1150.79,-213.83C1326.15,-208.66 1864.09,-191.59 2309.49,-165 2346.7,-162.78 2388.05,-159.62 2422.29,-156.82"/>
<polygon fill="midnightblue" stroke="midnightblue" points="2423,-160.28 2432.68,-155.97 2422.42,-153.3 2423,-160.28"/>
</g>
<!-- Node16 -->
<g id="node16" class="node">
<title>Node16</title>
<g id="a_node16"><a xlink:title=" ">
<polygon fill="none" stroke="#bfbfbf" points="1104.99,-6 1104.99,-25 1217.99,-25 1217.99,-6 1104.99,-6"/>
<text text-anchor="middle" x="1161.49" y="-13" font-family="Helvetica,sans-Serif" font-size="10.00">boost/geometry.hpp</text>
</a>
</g>
</g>
<!-- Node8&#45;&gt;Node16 -->
<g id="edge47" class="edge">
<title>Node8&#45;&gt;Node16</title>
<path fill="none" stroke="midnightblue" d="M1065.93,-201.47C1052.65,-192.88 1037.88,-180.55 1030.49,-165 1024.57,-152.56 1024.87,-146.58 1030.49,-134 1052.14,-85.5 1104.79,-48.69 1136.36,-30.05"/>
<polygon fill="midnightblue" stroke="midnightblue" points="1138.11,-33.08 1145.04,-25.07 1134.63,-27.01 1138.11,-33.08"/>
</g>
<!-- Node26 -->
<g id="node26" class="node">
<title>Node26</title>
<g id="a_node26"><a xlink:href="hdf5-pb-general_8h.html" target="_top" xlink:title=" ">
<polygon fill="none" stroke="black" points="695.49,-134.5 695.49,-164.5 811.49,-164.5 811.49,-134.5 695.49,-134.5"/>
<text text-anchor="start" x="703.49" y="-152.5" font-family="Helvetica,sans-Serif" font-size="10.00">seerep&#45;hdf5&#45;pb/hdf5</text>
<text text-anchor="middle" x="753.49" y="-141.5" font-family="Helvetica,sans-Serif" font-size="10.00">&#45;pb&#45;general.h</text>
</a>
</g>
</g>
<!-- Node8&#45;&gt;Node26 -->
<g id="edge34" class="edge">
<title>Node8&#45;&gt;Node26</title>
<path fill="none" stroke="midnightblue" d="M1034.21,-204.33C975.21,-193.01 884.03,-175.53 821.7,-163.58"/>
<polygon fill="midnightblue" stroke="midnightblue" points="822.05,-160.08 811.57,-161.64 820.73,-166.96 822.05,-160.08"/>
</g>
<!-- Node10&#45;&gt;Node3 -->
<g id="edge28" class="edge">
<title>Node10&#45;&gt;Node3</title>
<path fill="none" stroke="midnightblue" d="M2485.95,-134.41C2472.54,-115.79 2446.28,-83.43 2415.49,-67 2340.62,-27.05 2239.29,-18.26 2184.86,-16.6"/>
<polygon fill="midnightblue" stroke="midnightblue" points="2184.7,-13.1 2174.62,-16.36 2184.54,-20.1 2184.7,-13.1"/>
</g>
<!-- Node10&#45;&gt;Node9 -->
<g id="edge10" class="edge">
<title>Node10&#45;&gt;Node9</title>
<path fill="none" stroke="midnightblue" d="M2432.68,-143.01C2396.65,-140.01 2350.55,-136.42 2309.49,-134 2209.58,-128.11 1504.42,-129.69 1409.49,-98 1368.42,-84.29 1328.69,-51.59 1307.44,-32.04"/>
<polygon fill="midnightblue" stroke="midnightblue" points="1309.67,-29.33 1299.99,-25.02 1304.87,-34.42 1309.67,-29.33"/>
</g>
<!-- Node11 -->
<g id="node11" class="node">
<title>Node11</title>
<g id="a_node11"><a xlink:href="hdf5-core-datatype-interface_8h.html" target="_top" xlink:title=" ">
<polygon fill="none" stroke="black" points="2837.99,-67.5 2837.99,-97.5 2982.99,-97.5 2982.99,-67.5 2837.99,-67.5"/>
<text text-anchor="start" x="2845.99" y="-85.5" font-family="Helvetica,sans-Serif" font-size="10.00">seerep&#45;hdf5&#45;core/hdf5</text>
<text text-anchor="middle" x="2910.49" y="-74.5" font-family="Helvetica,sans-Serif" font-size="10.00">&#45;core&#45;datatype&#45;interface.h</text>
</a>
</g>
</g>
<!-- Node10&#45;&gt;Node11 -->
<g id="edge11" class="edge">
<title>Node10&#45;&gt;Node11</title>
<path fill="none" stroke="midnightblue" d="M2558.07,-138.7C2630.05,-127.42 2748.51,-108.87 2827.98,-96.42"/>
<polygon fill="midnightblue" stroke="midnightblue" points="2828.62,-99.87 2837.96,-94.86 2827.54,-92.95 2828.62,-99.87"/>
</g>
<!-- Node12 -->
<g id="node12" class="node">
<title>Node12</title>
<g id="a_node12"><a xlink:title=" ">
<polygon fill="none" stroke="#bfbfbf" points="2957.99,-0.5 2957.99,-30.5 3076.99,-30.5 3076.99,-0.5 2957.99,-0.5"/>
<text text-anchor="start" x="2965.99" y="-18.5" font-family="Helvetica,sans-Serif" font-size="10.00">seerep&#45;msgs/dataset</text>
<text text-anchor="middle" x="3017.49" y="-7.5" font-family="Helvetica,sans-Serif" font-size="10.00">&#45;indexable.h</text>
</a>
</g>
</g>
<!-- Node10&#45;&gt;Node12 -->
<g id="edge26" class="edge">
<title>Node10&#45;&gt;Node12</title>
<path fill="none" stroke="midnightblue" d="M2521.46,-134.48C2556.69,-116.1 2622.04,-84.16 2681.49,-67 2771.38,-41.05 2878.86,-27.87 2947.63,-21.6"/>
<polygon fill="midnightblue" stroke="midnightblue" points="2948.25,-25.06 2957.91,-20.69 2947.64,-18.08 2948.25,-25.06"/>
</g>
<!-- Node10&#45;&gt;Node13 -->
<g id="edge31" class="edge">
<title>Node10&#45;&gt;Node13</title>
<path fill="none" stroke="midnightblue" d="M2540.58,-134.42C2604.23,-115.25 2724.41,-81.66 2829.49,-67 3077.54,-32.39 3859.17,-20.18 4092.86,-17.26"/>
<polygon fill="midnightblue" stroke="midnightblue" points="4092.96,-20.75 4102.92,-17.13 4092.87,-13.76 4092.96,-20.75"/>
</g>
<!-- Node14 -->
<g id="node14" class="node">
<title>Node14</title>
<g id="a_node14"><a xlink:href="hdf5-core-general_8h.html" target="_top" xlink:title=" ">
<polygon fill="none" stroke="black" points="1418.99,-67.5 1418.99,-97.5 1543.99,-97.5 1543.99,-67.5 1418.99,-67.5"/>
<text text-anchor="start" x="1426.99" y="-85.5" font-family="Helvetica,sans-Serif" font-size="10.00">seerep&#45;hdf5&#45;core/hdf5</text>
<text text-anchor="middle" x="1481.49" y="-74.5" font-family="Helvetica,sans-Serif" font-size="10.00">&#45;core&#45;general.h</text>
</a>
</g>
</g>
<!-- Node10&#45;&gt;Node14 -->
<g id="edge15" class="edge">
<title>Node10&#45;&gt;Node14</title>
<path fill="none" stroke="midnightblue" d="M2432.66,-143.34C2396.62,-140.44 2350.52,-136.85 2309.49,-134 2030.46,-114.62 1698.25,-95.58 1554.14,-87.52"/>
<polygon fill="midnightblue" stroke="midnightblue" points="1554.27,-84.02 1544.09,-86.96 1553.88,-91.01 1554.27,-84.02"/>
</g>
<!-- Node10&#45;&gt;Node16 -->
<g id="edge27" class="edge">
<title>Node10&#45;&gt;Node16</title>
<path fill="none" stroke="midnightblue" d="M2432.68,-142.96C2396.65,-139.95 2350.56,-136.36 2309.49,-134 2201.7,-127.8 1439.51,-136.1 1338.49,-98 1318.1,-90.31 1319.44,-77.76 1300.49,-67 1269.93,-49.65 1232.32,-36.42 1203.93,-27.86"/>
<polygon fill="midnightblue" stroke="midnightblue" points="1204.88,-24.49 1194.3,-25.03 1202.9,-31.21 1204.88,-24.49"/>
</g>
<!-- Node10&#45;&gt;Node22 -->
<g id="edge29" class="edge">
<title>Node10&#45;&gt;Node22</title>
<path fill="none" stroke="midnightblue" d="M2460.55,-134.4C2432.05,-122.89 2392.19,-106.8 2364.97,-95.81"/>
<polygon fill="midnightblue" stroke="midnightblue" points="2366.14,-92.51 2355.56,-92.01 2363.52,-99 2366.14,-92.51"/>
</g>
<!-- Node10&#45;&gt;Node23 -->
<g id="edge30" class="edge">
<title>Node10&#45;&gt;Node23</title>
<path fill="none" stroke="midnightblue" d="M2558.23,-139.72C2573.97,-137.68 2590.83,-135.63 2606.49,-134 2814.78,-112.29 3061.64,-95.52 3181.67,-87.93"/>
<polygon fill="midnightblue" stroke="midnightblue" points="3182.08,-91.41 3191.84,-87.29 3181.64,-84.43 3182.08,-91.41"/>
</g>
<!-- Node10&#45;&gt;Node24 -->
<g id="edge32" class="edge">
<title>Node10&#45;&gt;Node24</title>
<path fill="none" stroke="midnightblue" d="M2558.2,-139.33C2573.93,-137.29 2590.8,-135.35 2606.49,-134 2989.85,-101.05 3088.53,-135.39 3471.49,-98 3482.93,-96.88 3495.1,-95.3 3506.75,-93.59"/>
<polygon fill="midnightblue" stroke="midnightblue" points="3507.47,-97.02 3516.83,-92.06 3506.42,-90.1 3507.47,-97.02"/>
</g>
<!-- Node10&#45;&gt;Node25 -->
<g id="edge33" class="edge">
<title>Node10&#45;&gt;Node25</title>
<path fill="none" stroke="midnightblue" d="M2558.2,-139.42C2573.94,-137.38 2590.81,-135.41 2606.49,-134 2925.59,-105.23 3008.56,-137.74 3326.49,-98 3334.67,-96.98 3343.32,-95.54 3351.67,-93.98"/>
<polygon fill="midnightblue" stroke="midnightblue" points="3352.53,-97.38 3361.66,-92.01 3351.18,-90.51 3352.53,-97.38"/>
</g>
<!-- Node11&#45;&gt;Node3 -->
<g id="edge14" class="edge">
<title>Node11&#45;&gt;Node3</title>
<path fill="none" stroke="midnightblue" d="M2837.87,-74.96C2809.66,-72.44 2777.07,-69.56 2747.49,-67 2534.83,-48.61 2279.75,-27.48 2184.66,-19.64"/>
<polygon fill="midnightblue" stroke="midnightblue" points="2184.91,-16.15 2174.65,-18.82 2184.33,-23.13 2184.91,-16.15"/>
</g>
<!-- Node11&#45;&gt;Node12 -->
<g id="edge12" class="edge">
<title>Node11&#45;&gt;Node12</title>
<path fill="none" stroke="midnightblue" d="M2933.71,-67.4C2948.85,-58.2 2968.82,-46.07 2985.46,-35.95"/>
<polygon fill="midnightblue" stroke="midnightblue" points="2987.59,-38.76 2994.32,-30.58 2983.95,-32.78 2987.59,-38.76"/>
</g>
<!-- Node11&#45;&gt;Node13 -->
<g id="edge13" class="edge">
<title>Node11&#45;&gt;Node13</title>
<path fill="none" stroke="midnightblue" d="M2983.03,-68.73C2987.91,-68.08 2992.77,-67.49 2997.49,-67 3412.43,-23.57 3914.5,-17.35 4092.77,-16.56"/>
<polygon fill="midnightblue" stroke="midnightblue" points="4092.79,-20.06 4102.78,-16.52 4092.77,-13.06 4092.79,-20.06"/>
</g>
<!-- Node14&#45;&gt;Node3 -->
<g id="edge21" class="edge">
<title>Node14&#45;&gt;Node3</title>
<path fill="none" stroke="midnightblue" d="M1544.11,-73.21C1561.09,-71.07 1579.48,-68.85 1596.49,-67 1788.39,-46.1 2018.6,-26.84 2108.19,-19.57"/>
<polygon fill="midnightblue" stroke="midnightblue" points="2108.72,-23.04 2118.41,-18.74 2108.16,-16.06 2108.72,-23.04"/>
</g>
<!-- Node14&#45;&gt;Node9 -->
<g id="edge16" class="edge">
<title>Node14&#45;&gt;Node9</title>
<path fill="none" stroke="midnightblue" d="M1440.26,-67.4C1406.19,-55.74 1358.35,-39.37 1326.2,-28.38"/>
<polygon fill="midnightblue" stroke="midnightblue" points="1326.95,-24.93 1316.36,-25.01 1324.68,-31.56 1326.95,-24.93"/>
</g>
<!-- Node14&#45;&gt;Node12 -->
<g id="edge18" class="edge">
<title>Node14&#45;&gt;Node12</title>
<path fill="none" stroke="midnightblue" d="M1544.09,-78.8C1611.94,-75.88 1723.4,-71.09 1819.49,-67 2248.4,-48.76 2763.71,-27.14 2947.88,-19.42"/>
<polygon fill="midnightblue" stroke="midnightblue" points="2948.12,-22.91 2957.97,-18.99 2947.83,-15.92 2948.12,-22.91"/>
</g>
<!-- Node15 -->
<g id="node15" class="node">
<title>Node15</title>
<g id="a_node15"><a xlink:title=" ">
<polygon fill="none" stroke="#bfbfbf" points="1684.49,-6 1684.49,-25 1800.49,-25 1800.49,-6 1684.49,-6"/>
<text text-anchor="middle" x="1742.49" y="-13" font-family="Helvetica,sans-Serif" font-size="10.00">seerep&#45;msgs/aabb.h</text>
</a>
</g>
</g>
<!-- Node14&#45;&gt;Node15 -->
<g id="edge17" class="edge">
<title>Node14&#45;&gt;Node15</title>
<path fill="none" stroke="midnightblue" d="M1537.8,-67.48C1585.9,-55.5 1654.15,-38.5 1698.37,-27.49"/>
<polygon fill="midnightblue" stroke="midnightblue" points="1699.39,-30.84 1708.24,-25.03 1697.69,-24.05 1699.39,-30.84"/>
</g>
<!-- Node14&#45;&gt;Node16 -->
<g id="edge19" class="edge">
<title>Node14&#45;&gt;Node16</title>
<path fill="none" stroke="midnightblue" d="M1418.79,-69.4C1367.34,-59.38 1292.62,-44.63 1227.49,-31 1221.75,-29.8 1215.74,-28.52 1209.78,-27.23"/>
<polygon fill="midnightblue" stroke="midnightblue" points="1210.37,-23.77 1199.85,-25.06 1208.88,-30.61 1210.37,-23.77"/>
</g>
<!-- Node17 -->
<g id="node17" class="node">
<title>Node17</title>
<g id="a_node17"><a xlink:title=" ">
<polygon fill="none" stroke="#bfbfbf" points="1364.49,-6 1364.49,-25 1412.49,-25 1412.49,-6 1364.49,-6"/>
<text text-anchor="middle" x="1388.49" y="-13" font-family="Helvetica,sans-Serif" font-size="10.00">mutex</text>
</a>
</g>
</g>
<!-- Node14&#45;&gt;Node17 -->
<g id="edge20" class="edge">
<title>Node14&#45;&gt;Node17</title>
<path fill="none" stroke="midnightblue" d="M1461.31,-67.4C1445.86,-56.6 1424.62,-41.76 1409.07,-30.89"/>
<polygon fill="midnightblue" stroke="midnightblue" points="1410.86,-27.87 1400.66,-25.01 1406.85,-33.6 1410.86,-27.87"/>
</g>
<!-- Node18 -->
<g id="node18" class="node">
<title>Node18</title>
<g id="a_node18"><a xlink:title=" ">
<polygon fill="none" stroke="#bfbfbf" points="1430.99,-6 1430.99,-25 1499.99,-25 1499.99,-6 1430.99,-6"/>
<text text-anchor="middle" x="1465.49" y="-13" font-family="Helvetica,sans-Serif" font-size="10.00">type_traits</text>
</a>
</g>
</g>
<!-- Node14&#45;&gt;Node18 -->
<g id="edge22" class="edge">
<title>Node14&#45;&gt;Node18</title>
<path fill="none" stroke="midnightblue" d="M1478.02,-67.4C1475.7,-57.96 1472.61,-45.45 1470.09,-35.19"/>
<polygon fill="midnightblue" stroke="midnightblue" points="1473.42,-34.07 1467.63,-25.19 1466.62,-35.74 1473.42,-34.07"/>
</g>
<!-- Node19 -->
<g id="node19" class="node">
<title>Node19</title>
<g id="a_node19"><a xlink:title=" ">
<polygon fill="none" stroke="#bfbfbf" points="899.99,-0.5 899.99,-30.5 1044.99,-30.5 1044.99,-0.5 899.99,-0.5"/>
<text text-anchor="start" x="907.99" y="-18.5" font-family="Helvetica,sans-Serif" font-size="10.00">boost/log/sources/severity</text>
<text text-anchor="middle" x="972.49" y="-7.5" font-family="Helvetica,sans-Serif" font-size="10.00">_logger.hpp</text>
</a>
</g>
</g>
<!-- Node14&#45;&gt;Node19 -->
<g id="edge23" class="edge">
<title>Node14&#45;&gt;Node19</title>
<path fill="none" stroke="midnightblue" d="M1418.82,-73.5C1327.27,-61.81 1156.83,-40.04 1055.12,-27.05"/>
<polygon fill="midnightblue" stroke="midnightblue" points="1055.56,-23.58 1045.2,-25.79 1054.67,-30.52 1055.56,-23.58"/>
</g>
<!-- Node20 -->
<g id="node20" class="node">
<title>Node20</title>
<g id="a_node20"><a xlink:title=" ">
<polygon fill="none" stroke="#bfbfbf" points="159.49,-6 159.49,-25 273.49,-25 273.49,-6 159.49,-6"/>
<text text-anchor="middle" x="216.49" y="-13" font-family="Helvetica,sans-Serif" font-size="10.00">boost/log/trivial.hpp</text>
</a>
</g>
</g>
<!-- Node14&#45;&gt;Node20 -->
<g id="edge24" class="edge">
<title>Node14&#45;&gt;Node20</title>
<path fill="none" stroke="midnightblue" d="M1418.76,-78.28C1204.79,-67.28 504.74,-31.31 283.88,-19.96"/>
<polygon fill="midnightblue" stroke="midnightblue" points="283.89,-16.46 273.73,-19.44 283.53,-23.45 283.89,-16.46"/>
</g>
<!-- Node21 -->
<g id="node21" class="node">
<title>Node21</title>
<g id="a_node21"><a xlink:title=" ">
<polygon fill="none" stroke="#bfbfbf" points="1517.99,-6 1517.99,-25 1666.99,-25 1666.99,-6 1517.99,-6"/>
<text text-anchor="middle" x="1592.49" y="-13" font-family="Helvetica,sans-Serif" font-size="10.00">impl/hdf5&#45;core&#45;general.hpp</text>
</a>
</g>
</g>
<!-- Node14&#45;&gt;Node21 -->
<g id="edge25" class="edge">
<title>Node14&#45;&gt;Node21</title>
<path fill="none" stroke="midnightblue" d="M1505.57,-67.4C1524.45,-56.34 1550.55,-41.06 1569.21,-30.13"/>
<polygon fill="midnightblue" stroke="midnightblue" points="1571.1,-33.08 1577.96,-25.01 1567.56,-27.04 1571.1,-33.08"/>
</g>
<!-- Node26&#45;&gt;Node3 -->
<g id="edge42" class="edge">
<title>Node26&#45;&gt;Node3</title>
<path fill="none" stroke="midnightblue" d="M811.62,-145.83C983.32,-137.79 1480.73,-113.47 1552.49,-98 1590.58,-89.79 1596.55,-75.88 1634.49,-67 1808.14,-26.36 2022.38,-18.4 2108.26,-16.86"/>
<polygon fill="midnightblue" stroke="midnightblue" points="2108.38,-20.36 2118.32,-16.7 2108.26,-13.36 2108.38,-20.36"/>
</g>
<!-- Node26&#45;&gt;Node9 -->
<g id="edge35" class="edge">
<title>Node26&#45;&gt;Node9</title>
<path fill="none" stroke="midnightblue" d="M765.62,-134.44C784.95,-112.19 821.41,-70.96 829.49,-67 909.05,-28.04 1138.97,-44.67 1226.49,-31 1233.24,-29.94 1240.34,-28.6 1247.27,-27.16"/>
<polygon fill="midnightblue" stroke="midnightblue" points="1248.2,-30.54 1257.24,-25.01 1246.72,-23.7 1248.2,-30.54"/>
</g>
<!-- Node26&#45;&gt;Node14 -->
<g id="edge36" class="edge">
<title>Node26&#45;&gt;Node14</title>
<path fill="none" stroke="midnightblue" d="M811.53,-143.32C943.19,-131.56 1264.28,-102.89 1408.84,-89.99"/>
<polygon fill="midnightblue" stroke="midnightblue" points="1409.29,-93.46 1418.94,-89.08 1408.67,-86.49 1409.29,-93.46"/>
</g>
<!-- Node26&#45;&gt;Node16 -->
<g id="edge40" class="edge">
<title>Node26&#45;&gt;Node16</title>
<path fill="none" stroke="midnightblue" d="M756.71,-134.33C761.75,-115.62 773.43,-83.16 796.49,-67 798.01,-65.93 989.62,-39.81 1094.57,-25.57"/>
<polygon fill="midnightblue" stroke="midnightblue" points="1095.31,-29 1104.75,-24.18 1094.37,-22.06 1095.31,-29"/>
</g>
<!-- Node26&#45;&gt;Node19 -->
<g id="edge43" class="edge">
<title>Node26&#45;&gt;Node19</title>
<path fill="none" stroke="midnightblue" d="M749.74,-134.27C745.96,-116.38 742.69,-85.75 758.49,-67 775.56,-46.74 837.03,-33.6 889.74,-25.82"/>
<polygon fill="midnightblue" stroke="midnightblue" points="890.4,-29.26 899.8,-24.38 889.41,-22.33 890.4,-29.26"/>
</g>
<!-- Node26&#45;&gt;Node20 -->
<g id="edge44" class="edge">
<title>Node26&#45;&gt;Node20</title>
<path fill="none" stroke="midnightblue" d="M695.38,-144.65C563.7,-135.67 252.61,-113 235.49,-98 217.85,-82.55 214.9,-54.18 215.13,-35.33"/>
<polygon fill="midnightblue" stroke="midnightblue" points="218.63,-35.4 215.56,-25.26 211.64,-35.1 218.63,-35.4"/>
</g>
<!-- Node27 -->
<g id="node27" class="node">
<title>Node27</title>
<g id="a_node27"><a xlink:title=" ">
<polygon fill="none" stroke="#bfbfbf" points="30.49,-67.5 30.49,-97.5 188.49,-97.5 188.49,-67.5 30.49,-67.5"/>
<text text-anchor="start" x="38.49" y="-85.5" font-family="Helvetica,sans-Serif" font-size="10.00">seerep&#45;msgs/boundingbox2d</text>
<text text-anchor="middle" x="109.49" y="-74.5" font-family="Helvetica,sans-Serif" font-size="10.00">_labeled.pb.h</text>
</a>
</g>
</g>
<!-- Node26&#45;&gt;Node27 -->
<g id="edge37" class="edge">
<title>Node26&#45;&gt;Node27</title>
<path fill="none" stroke="midnightblue" d="M695.45,-144.39C594.86,-137.01 381.72,-120.16 202.49,-98 201.21,-97.84 199.93,-97.68 198.63,-97.51"/>
<polygon fill="midnightblue" stroke="midnightblue" points="198.96,-94.03 188.59,-96.18 198.04,-100.97 198.96,-94.03"/>
</g>
<!-- Node28 -->
<g id="node28" class="node">
<title>Node28</title>
<g id="a_node28"><a xlink:title=" ">
<polygon fill="none" stroke="#bfbfbf" points="244.49,-67.5 244.49,-97.5 390.49,-97.5 390.49,-67.5 244.49,-67.5"/>
<text text-anchor="start" x="252.49" y="-85.5" font-family="Helvetica,sans-Serif" font-size="10.00">seerep&#45;msgs/boundingbox</text>
<text text-anchor="middle" x="317.49" y="-74.5" font-family="Helvetica,sans-Serif" font-size="10.00">_labeled.pb.h</text>
</a>
</g>
</g>
<!-- Node26&#45;&gt;Node28 -->
<g id="edge38" class="edge">
<title>Node26&#45;&gt;Node28</title>
<path fill="none" stroke="midnightblue" d="M695.45,-140.82C627.31,-131.68 510.64,-115.6 400.72,-98.17"/>
<polygon fill="midnightblue" stroke="midnightblue" points="401.21,-94.7 390.79,-96.59 400.11,-101.61 401.21,-94.7"/>
</g>
<!-- Node29 -->
<g id="node29" class="node">
<title>Node29</title>
<g id="a_node29"><a xlink:title=" ">
<polygon fill="none" stroke="#bfbfbf" points="408.49,-73 408.49,-92 548.49,-92 548.49,-73 408.49,-73"/>
<text text-anchor="middle" x="478.49" y="-80" font-family="Helvetica,sans-Serif" font-size="10.00">seerep&#45;msgs/header.pb.h</text>
</a>
</g>
</g>
<!-- Node26&#45;&gt;Node29 -->
<g id="edge39" class="edge">
<title>Node26&#45;&gt;Node29</title>
<path fill="none" stroke="midnightblue" d="M695.17,-134.72C644.35,-122.7 571.63,-105.52 524.73,-94.43"/>
<polygon fill="midnightblue" stroke="midnightblue" points="525.38,-90.99 514.85,-92.09 523.77,-97.8 525.38,-90.99"/>
</g>
<!-- Node30 -->
<g id="node30" class="node">
<title>Node30</title>
<g id="a_node30"><a xlink:title=" ">
<polygon fill="none" stroke="#bfbfbf" points="838.49,-73 838.49,-92 906.49,-92 906.49,-73 838.49,-73"/>
<text text-anchor="middle" x="872.49" y="-80" font-family="Helvetica,sans-Serif" font-size="10.00">filesystem</text>
</a>
</g>
</g>
<!-- Node26&#45;&gt;Node30 -->
<g id="edge41" class="edge">
<title>Node26&#45;&gt;Node30</title>
<path fill="none" stroke="midnightblue" d="M779.31,-134.4C799.73,-123.24 828.04,-107.78 848.08,-96.83"/>
<polygon fill="midnightblue" stroke="midnightblue" points="849.82,-99.87 856.91,-92.01 846.46,-93.73 849.82,-99.87"/>
</g>
<!-- Node31 -->
<g id="node31" class="node">
<title>Node31</title>
<g id="a_node31"><a xlink:title=" ">
<polygon fill="none" stroke="#bfbfbf" points="566.49,-73 566.49,-92 706.49,-92 706.49,-73 566.49,-73"/>
<text text-anchor="middle" x="636.49" y="-80" font-family="Helvetica,sans-Serif" font-size="10.00">impl/hdf5&#45;pb&#45;general.hpp</text>
</a>
</g>
</g>
<!-- Node26&#45;&gt;Node31 -->
<g id="edge45" class="edge">
<title>Node26&#45;&gt;Node31</title>
<path fill="none" stroke="midnightblue" d="M728.1,-134.4C708.12,-123.29 680.45,-107.92 660.76,-96.98"/>
<polygon fill="midnightblue" stroke="midnightblue" points="662.24,-93.8 651.8,-92.01 658.84,-99.92 662.24,-93.8"/>
</g>
<!-- Node32&#45;&gt;Node2 -->
<g id="edge56" class="edge">
<title>Node32&#45;&gt;Node2</title>
<path fill="none" stroke="midnightblue" d="M3017.9,-466.87C2800.56,-466.1 1994.59,-460.63 1957.49,-422 1947.94,-412.06 1954.27,-404.4 1957.49,-391 1976,-313.88 2015.77,-307.98 2038.49,-232 2044.72,-211.17 2046.72,-186.18 2047.32,-169.41"/>
<polygon fill="midnightblue" stroke="midnightblue" points="2050.82,-169.34 2047.54,-159.27 2043.82,-169.19 2050.82,-169.34"/>
</g>
<!-- Node32&#45;&gt;Node3 -->
<g id="edge57" class="edge">
<title>Node32&#45;&gt;Node3</title>
<path fill="none" stroke="midnightblue" d="M3017.64,-466.61C2777.43,-464.69 1813.2,-454.95 1758.49,-422 1645.65,-354.04 1589.11,-220.46 1688.49,-134 1720.37,-106.26 1739.54,-118.5 1776.49,-98 1797.09,-86.57 1797.69,-75.93 1819.49,-67 1917.97,-26.64 2045.19,-18.25 2107.96,-16.69"/>
<polygon fill="midnightblue" stroke="midnightblue" points="2108.26,-20.19 2118.19,-16.49 2108.12,-13.19 2108.26,-20.19"/>
</g>
<!-- Node32&#45;&gt;Node6 -->
<g id="edge60" class="edge">
<title>Node32&#45;&gt;Node6</title>
<path fill="none" stroke="midnightblue" d="M3125.33,-467.06C3377.11,-467.13 4428.4,-464.85 4482.49,-422 4561.82,-359.15 4560.53,-220 4557.18,-169.38"/>
<polygon fill="midnightblue" stroke="midnightblue" points="4560.65,-168.94 4556.39,-159.24 4553.67,-169.48 4560.65,-168.94"/>
</g>
<!-- Node32&#45;&gt;Node7 -->
<g id="edge62" class="edge">
<title>Node32&#45;&gt;Node7</title>
<path fill="none" stroke="midnightblue" d="M3125.4,-467.08C3258.7,-466.67 3600.67,-461.66 3706.49,-422 3762.8,-400.9 3814.49,-400.63 3814.49,-340.5 3814.49,-340.5 3814.49,-340.5 3814.49,-277 3814.49,-221.62 3753.14,-182.47 3715.06,-163.49"/>
<polygon fill="midnightblue" stroke="midnightblue" points="3716.46,-160.28 3705.93,-159.1 3713.43,-166.59 3716.46,-160.28"/>
</g>
<!-- Node32&#45;&gt;Node12 -->
<g id="edge58" class="edge">
<title>Node32&#45;&gt;Node12</title>
<path fill="none" stroke="midnightblue" d="M3125.06,-466.32C3378.08,-462.97 4443.82,-447.39 4509.49,-422 4682.18,-355.22 4931.2,-274.39 4810.49,-134 4680.95,16.65 4566.3,-85.63 4368.49,-67 3879.55,-20.95 3287.35,-16.44 3087.31,-16.33"/>
<polygon fill="midnightblue" stroke="midnightblue" points="3087.24,-12.83 3077.24,-16.33 3087.24,-19.83 3087.24,-12.83"/>
</g>
<!-- Node32&#45;&gt;Node13 -->
<g id="edge52" class="edge">
<title>Node32&#45;&gt;Node13</title>
<path fill="none" stroke="midnightblue" d="M3125.1,-466.54C3375.09,-464.24 4420.04,-452.86 4562.49,-422 4782.32,-374.37 4918.36,-375.18 4998.49,-165 5014.01,-124.3 5029.35,-98.71 4999.49,-67 4973.09,-38.97 4420.33,-22.85 4226.19,-18.04"/>
<polygon fill="midnightblue" stroke="midnightblue" points="4226.2,-14.54 4216.12,-17.79 4226.03,-21.54 4226.2,-14.54"/>
</g>
<!-- Node32&#45;&gt;Node19 -->
<g id="edge164" class="edge">
<title>Node32&#45;&gt;Node19</title>
<path fill="none" stroke="midnightblue" d="M3017.73,-466.39C2774.14,-463.49 1779.77,-450.01 1643.49,-422 1606.54,-414.41 1599.94,-403.88 1564.49,-391 1400.83,-331.52 1361.31,-310.7 1192.49,-268 1106.2,-246.17 1063.35,-289.6 995.49,-232 940.12,-185 955.17,-86.36 965.93,-40.67"/>
<polygon fill="midnightblue" stroke="midnightblue" points="969.38,-41.31 968.39,-30.76 962.58,-39.62 969.38,-41.31"/>
</g>
<!-- Node32&#45;&gt;Node20 -->
<g id="edge165" class="edge">
<title>Node32&#45;&gt;Node20</title>
<path fill="none" stroke="midnightblue" d="M3017.61,-466.69C2775.85,-465.13 1789.63,-456.69 1482.49,-422 1315.86,-403.18 104.66,-235.37 8.49,-98 -29.33,-43.99 74.81,-25.77 149.04,-19.63"/>
<polygon fill="midnightblue" stroke="midnightblue" points="149.6,-23.09 159.3,-18.84 149.06,-16.11 149.6,-23.09"/>
</g>
<!-- Node32&#45;&gt;Node22 -->
<g id="edge50" class="edge">
<title>Node32&#45;&gt;Node22</title>
<path fill="none" stroke="midnightblue" d="M3017.79,-465.55C2848.9,-460.16 2331.3,-437.17 2188.49,-355 2078.2,-291.54 1923.64,-230.58 2006.49,-134 2022.38,-115.48 2160.86,-99.36 2252.73,-90.57"/>
<polygon fill="midnightblue" stroke="midnightblue" points="2253.23,-94.04 2262.86,-89.61 2252.58,-87.07 2253.23,-94.04"/>
</g>
<!-- Node32&#45;&gt;Node23 -->
<g id="edge51" class="edge">
<title>Node32&#45;&gt;Node23</title>
<path fill="none" stroke="midnightblue" d="M3125.16,-463.66C3193.08,-456.23 3307.58,-432.25 3360.49,-355 3419.98,-268.14 3312.76,-143.14 3270.51,-99.37"/>
<polygon fill="midnightblue" stroke="midnightblue" points="3272.94,-96.84 3263.43,-92.16 3267.95,-101.75 3272.94,-96.84"/>
</g>
<!-- Node32&#45;&gt;Node24 -->
<g id="edge53" class="edge">
<title>Node32&#45;&gt;Node24</title>
<path fill="none" stroke="midnightblue" d="M3125.44,-467.48C3249.88,-467.79 3566.25,-463.97 3826.49,-422 3936.03,-404.33 4723.87,-252.98 4791.49,-165 4799.88,-154.08 4801.03,-143.94 4791.49,-134 4752.54,-93.41 3942.92,-85.42 3661.15,-83.87"/>
<polygon fill="midnightblue" stroke="midnightblue" points="3660.97,-80.37 3650.95,-83.81 3660.93,-87.37 3660.97,-80.37"/>
</g>
<!-- Node32&#45;&gt;Node25 -->
<g id="edge54" class="edge">
<title>Node32&#45;&gt;Node25</title>
<path fill="none" stroke="midnightblue" d="M3125.09,-466.88C3265.72,-466.01 3642.58,-460.11 3760.49,-422 3825.38,-401.03 3890.49,-408.69 3890.49,-340.5 3890.49,-340.5 3890.49,-340.5 3890.49,-277 3890.49,-188.98 3832.08,-173.62 3753.49,-134 3640.66,-77.13 3596.19,-118.32 3471.49,-98 3464.13,-96.8 3456.38,-95.41 3448.78,-93.96"/>
<polygon fill="midnightblue" stroke="midnightblue" points="3449.43,-90.52 3438.94,-92.05 3448.09,-97.39 3449.43,-90.52"/>
</g>
<!-- Node32&#45;&gt;Node30 -->
<g id="edge55" class="edge">
<title>Node32&#45;&gt;Node30</title>
<path fill="none" stroke="midnightblue" d="M3017.84,-467.38C2788.89,-468.7 1892.77,-470.58 1615.49,-422 1398.55,-383.99 1357.79,-322.84 1144.49,-268 1061.25,-246.6 1024.39,-282.01 954.49,-232 909.28,-199.65 886.16,-134.28 877.13,-102.16"/>
<polygon fill="midnightblue" stroke="midnightblue" points="880.46,-101.07 874.51,-92.3 873.7,-102.86 880.46,-101.07"/>
</g>
<!-- Node33 -->
<g id="node33" class="node">
<title>Node33</title>
<g id="a_node33"><a xlink:title=" ">
<polygon fill="none" stroke="#bfbfbf" points="3581.49,-391.5 3581.49,-421.5 3697.49,-421.5 3697.49,-391.5 3581.49,-391.5"/>
<text text-anchor="start" x="3589.49" y="-409.5" font-family="Helvetica,sans-Serif" font-size="10.00">seerep&#45;msgs/project</text>
<text text-anchor="middle" x="3639.49" y="-398.5" font-family="Helvetica,sans-Serif" font-size="10.00">&#45;info.h</text>
</a>
</g>
</g>
<!-- Node32&#45;&gt;Node33 -->
<g id="edge59" class="edge">
<title>Node32&#45;&gt;Node33</title>
<path fill="none" stroke="midnightblue" d="M3125.29,-464.03C3216.58,-458.57 3407.49,-445.3 3567.49,-422 3568.77,-421.81 3570.06,-421.62 3571.35,-421.42"/>
<polygon fill="midnightblue" stroke="midnightblue" points="3572.13,-424.84 3581.42,-419.75 3570.99,-417.93 3572.13,-424.84"/>
</g>
<!-- Node34 -->
<g id="node34" class="node">
<title>Node34</title>
<g id="a_node34"><a xlink:title=" ">
<polygon fill="none" stroke="#bfbfbf" points="1752.49,-140 1752.49,-159 1882.49,-159 1882.49,-140 1752.49,-140"/>
<text text-anchor="middle" x="1817.49" y="-147" font-family="Helvetica,sans-Serif" font-size="10.00">seerep&#45;msgs/query&#45;tf.h</text>
</a>
</g>
</g>
<!-- Node32&#45;&gt;Node34 -->
<g id="edge61" class="edge">
<title>Node32&#45;&gt;Node34</title>
<path fill="none" stroke="midnightblue" d="M3017.97,-467.25C2823.61,-467.81 2155.56,-466.36 1947.49,-422 1852,-401.64 1743.49,-438.13 1743.49,-340.5 1743.49,-340.5 1743.49,-340.5 1743.49,-277 1743.49,-232.13 1778.6,-189.05 1800.45,-166.59"/>
<polygon fill="midnightblue" stroke="midnightblue" points="1803.18,-168.81 1807.81,-159.28 1798.25,-163.84 1803.18,-168.81"/>
</g>
<!-- Node35 -->
<g id="node35" class="node">
<title>Node35</title>
<g id="a_node35"><a xlink:title=" ">
<polygon fill="none" stroke="#bfbfbf" points="1828.49,-73 1828.49,-92 2028.49,-92 2028.49,-73 1828.49,-73"/>
<text text-anchor="middle" x="1928.49" y="-80" font-family="Helvetica,sans-Serif" font-size="10.00">geometry_msgs/TransformStamped.h</text>
</a>
</g>
</g>
<!-- Node32&#45;&gt;Node35 -->
<g id="edge63" class="edge">
<title>Node32&#45;&gt;Node35</title>
<path fill="none" stroke="midnightblue" d="M3017.64,-467.39C2778.17,-468.83 1816.2,-471.46 1691.49,-422 1670.56,-413.7 1624.75,-375.52 1615.49,-355 1572.92,-260.72 1604.63,-194.57 1688.49,-134 1713.61,-115.85 1787.77,-102.01 1847.08,-93.45"/>
<polygon fill="midnightblue" stroke="midnightblue" points="1847.8,-96.89 1857.21,-92.02 1846.81,-89.95 1847.8,-96.89"/>
</g>
<!-- Node36 -->
<g id="node36" class="node">
<title>Node36</title>
<g id="a_node36"><a xlink:href="core-project_8h.html" target="_top" xlink:title=" ">
<polygon fill="none" stroke="black" points="2474.49,-397 2474.49,-416 2558.49,-416 2558.49,-397 2474.49,-397"/>
<text text-anchor="middle" x="2516.49" y="-404" font-family="Helvetica,sans-Serif" font-size="10.00">core&#45;project.h</text>
</a>
</g>
</g>
<!-- Node32&#45;&gt;Node36 -->
<g id="edge64" class="edge">
<title>Node32&#45;&gt;Node36</title>
<path fill="none" stroke="midnightblue" d="M3017.77,-461.24C2911.14,-449.81 2674,-424.39 2568.66,-413.09"/>
<polygon fill="midnightblue" stroke="midnightblue" points="2568.9,-409.6 2558.58,-412.01 2568.15,-416.56 2568.9,-409.6"/>
</g>
<!-- Node36&#45;&gt;Node2 -->
<g id="edge68" class="edge">
<title>Node36&#45;&gt;Node2</title>
<path fill="none" stroke="midnightblue" d="M2474.21,-405.9C2417.25,-404.72 2314.27,-396.36 2238.49,-355 2152.61,-308.13 2083.64,-208.44 2058.13,-168.05"/>
<polygon fill="midnightblue" stroke="midnightblue" points="2060.97,-165.98 2052.72,-159.33 2055.02,-169.67 2060.97,-165.98"/>
</g>
<!-- Node36&#45;&gt;Node3 -->
<g id="edge69" class="edge">
<title>Node36&#45;&gt;Node3</title>
<path fill="none" stroke="midnightblue" d="M2474.46,-406.41C2409.88,-406.22 2283.75,-399.51 2188.49,-355 2072.65,-300.88 2025.17,-281.5 1972.49,-165 1966.81,-152.45 1964.58,-145.28 1972.49,-134 1999.35,-95.65 2032.53,-123.96 2071.49,-98 2097.65,-80.57 2120.99,-52.16 2134.44,-33.9"/>
<polygon fill="midnightblue" stroke="midnightblue" points="2137.55,-35.56 2140.53,-25.4 2131.86,-31.49 2137.55,-35.56"/>
</g>
<!-- Node36&#45;&gt;Node7 -->
<g id="edge73" class="edge">
<title>Node36&#45;&gt;Node7</title>
<path fill="none" stroke="midnightblue" d="M2558.71,-405.19C2735.69,-403.66 3412.57,-395.17 3498.49,-355 3586.66,-313.77 3652.26,-209.98 3675.9,-168.27"/>
<polygon fill="midnightblue" stroke="midnightblue" points="3679.09,-169.73 3680.88,-159.28 3672.97,-166.33 3679.09,-169.73"/>
</g>
<!-- Node36&#45;&gt;Node10 -->
<g id="edge74" class="edge">
<title>Node36&#45;&gt;Node10</title>
<path fill="none" stroke="midnightblue" d="M2515.77,-396.72C2512.86,-361.49 2502,-229.62 2497.48,-174.72"/>
<polygon fill="midnightblue" stroke="midnightblue" points="2500.95,-174.21 2496.64,-164.53 2493.98,-174.78 2500.95,-174.21"/>
</g>
<!-- Node36&#45;&gt;Node12 -->
<g id="edge70" class="edge">
<title>Node36&#45;&gt;Node12</title>
<path fill="none" stroke="midnightblue" d="M2558.55,-404.68C2857.59,-398.43 4654.06,-353.11 4791.49,-165 4903.14,-12.18 4134.33,-79.61 3945.49,-67 3625.23,-45.61 3242.34,-26.97 3087.54,-19.72"/>
<polygon fill="midnightblue" stroke="midnightblue" points="3087.38,-16.21 3077.23,-19.24 3087.06,-23.2 3087.38,-16.21"/>
</g>
<!-- Node36&#45;&gt;Node13 -->
<g id="edge65" class="edge">
<title>Node36&#45;&gt;Node13</title>
<path fill="none" stroke="midnightblue" d="M2558.51,-405.31C2728.08,-404.26 3378.51,-397.51 3911.49,-355 4153.44,-335.7 4214.28,-329.16 4453.49,-288 4688.82,-247.5 4829.37,-353.08 4976.49,-165 5003.32,-130.69 5006.32,-98.73 4976.49,-67 4950.92,-39.8 4416.86,-23.23 4226.31,-18.16"/>
<polygon fill="midnightblue" stroke="midnightblue" points="4226.23,-14.66 4216.14,-17.9 4226.05,-21.66 4226.23,-14.66"/>
</g>
<!-- Node36&#45;&gt;Node19 -->
<g id="edge162" class="edge">
<title>Node36&#45;&gt;Node19</title>
<path fill="none" stroke="midnightblue" d="M2474.14,-406.04C2366.36,-406.63 2073.38,-403.28 1835.49,-355 1717.31,-331.02 1696.78,-291.45 1578.49,-268 1518.09,-256.03 1072.69,-271.54 1025.49,-232 968.6,-184.34 967.31,-86.4 970.16,-40.82"/>
<polygon fill="midnightblue" stroke="midnightblue" points="973.67,-40.91 970.93,-30.68 966.69,-40.39 973.67,-40.91"/>
</g>
<!-- Node36&#45;&gt;Node20 -->
<g id="edge163" class="edge">
<title>Node36&#45;&gt;Node20</title>
<path fill="none" stroke="midnightblue" d="M2474.25,-404.13C2356.41,-400.03 2014.18,-386.13 1731.49,-355 1291.05,-306.5 1184.73,-266.39 746.49,-201 706.25,-195 48.16,-128.72 21.49,-98 -18.97,-51.38 77.95,-30.84 149.17,-22.23"/>
<polygon fill="midnightblue" stroke="midnightblue" points="149.94,-25.67 159.47,-21.05 149.14,-18.71 149.94,-25.67"/>
</g>
<!-- Node36&#45;&gt;Node24 -->
<g id="edge66" class="edge">
<title>Node36&#45;&gt;Node24</title>
<path fill="none" stroke="midnightblue" d="M2558.51,-404.84C2725.69,-402 3343.94,-389.33 3536.49,-355 3581.88,-346.91 3590.86,-335.58 3635.49,-324 3830.55,-273.38 3882.86,-276.14 4079.49,-232 4203.07,-204.26 4278.16,-264.54 4356.49,-165 4365.01,-154.17 4365.92,-144.05 4356.49,-134 4333.02,-108.99 3866.29,-92.3 3661,-86.15"/>
<polygon fill="midnightblue" stroke="midnightblue" points="3660.93,-82.64 3650.83,-85.84 3660.72,-89.64 3660.93,-82.64"/>
</g>
<!-- Node36&#45;&gt;Node25 -->
<g id="edge67" class="edge">
<title>Node36&#45;&gt;Node25</title>
<path fill="none" stroke="midnightblue" d="M2558.7,-404.5C2745.02,-399.52 3484.49,-373.81 3484.49,-279 3484.49,-279 3484.49,-279 3484.49,-215.5 3484.49,-166.6 3442.54,-121.62 3417.24,-98.93"/>
<polygon fill="midnightblue" stroke="midnightblue" points="3419.23,-96.03 3409.38,-92.12 3414.64,-101.32 3419.23,-96.03"/>
</g>
<!-- Node36&#45;&gt;Node34 -->
<g id="edge72" class="edge">
<title>Node36&#45;&gt;Node34</title>
<path fill="none" stroke="midnightblue" d="M2474.17,-404.36C2371.56,-401.07 2112.15,-389.5 2033.49,-355 1937.41,-312.85 1857.78,-208.8 1829.01,-167.65"/>
<polygon fill="midnightblue" stroke="midnightblue" points="1831.78,-165.49 1823.23,-159.23 1826.01,-169.46 1831.78,-165.49"/>
</g>
<!-- Node37 -->
<g id="node37" class="node">
<title>Node37</title>
<g id="a_node37"><a xlink:title=" ">
<polygon fill="none" stroke="#bfbfbf" points="2272.49,-324.5 2272.49,-354.5 2414.49,-354.5 2414.49,-324.5 2272.49,-324.5"/>
<text text-anchor="start" x="2280.49" y="-342.5" font-family="Helvetica,sans-Serif" font-size="10.00">seerep&#45;msgs/query&#45;result</text>
<text text-anchor="middle" x="2343.49" y="-331.5" font-family="Helvetica,sans-Serif" font-size="10.00">&#45;project.h</text>
</a>
</g>
</g>
<!-- Node36&#45;&gt;Node37 -->
<g id="edge71" class="edge">
<title>Node36&#45;&gt;Node37</title>
<path fill="none" stroke="midnightblue" d="M2493.52,-396.87C2467.33,-387.03 2423.84,-370.69 2390.41,-358.13"/>
<polygon fill="midnightblue" stroke="midnightblue" points="2391.42,-354.77 2380.82,-354.53 2388.96,-361.32 2391.42,-354.77"/>
</g>
<!-- Node38 -->
<g id="node38" class="node">
<title>Node38</title>
<g id="a_node38"><a xlink:href="hdf5-core-instance_8h.html" target="_top" xlink:title=" ">
<polygon fill="none" stroke="black" points="2174.99,-134.5 2174.99,-164.5 2299.99,-164.5 2299.99,-134.5 2174.99,-134.5"/>
<text text-anchor="start" x="2182.99" y="-152.5" font-family="Helvetica,sans-Serif" font-size="10.00">seerep&#45;hdf5&#45;core/hdf5</text>
<text text-anchor="middle" x="2237.49" y="-141.5" font-family="Helvetica,sans-Serif" font-size="10.00">&#45;core&#45;instance.h</text>
</a>
</g>
</g>
<!-- Node36&#45;&gt;Node38 -->
<g id="edge75" class="edge">
<title>Node36&#45;&gt;Node38</title>
<path fill="none" stroke="midnightblue" d="M2474.37,-402.92C2409.99,-398.05 2291.58,-385.15 2263.49,-355 2217.25,-305.38 2225.22,-217.16 2232.48,-174.68"/>
<polygon fill="midnightblue" stroke="midnightblue" points="2235.95,-175.15 2234.32,-164.68 2229.07,-173.88 2235.95,-175.15"/>
</g>
<!-- Node39 -->
<g id="node39" class="node">
<title>Node39</title>
<g id="a_node39"><a xlink:href="hdf5-core-point-cloud_8h.html" target="_top" xlink:title=" ">
<polygon fill="none" stroke="black" points="2844.99,-134.5 2844.99,-164.5 2969.99,-164.5 2969.99,-134.5 2844.99,-134.5"/>
<text text-anchor="start" x="2852.99" y="-152.5" font-family="Helvetica,sans-Serif" font-size="10.00">seerep&#45;hdf5&#45;core/hdf5</text>
<text text-anchor="middle" x="2907.49" y="-141.5" font-family="Helvetica,sans-Serif" font-size="10.00">&#45;core&#45;point&#45;cloud.h</text>
</a>
</g>
</g>
<!-- Node36&#45;&gt;Node39 -->
<g id="edge86" class="edge">
<title>Node36&#45;&gt;Node39</title>
<path fill="none" stroke="midnightblue" d="M2558.63,-401.62C2623.97,-394.93 2745.91,-379.52 2781.49,-355 2847.15,-309.74 2885.02,-217.99 2899.98,-174.46"/>
<polygon fill="midnightblue" stroke="midnightblue" points="2903.38,-175.32 2903.22,-164.72 2896.74,-173.11 2903.38,-175.32"/>
</g>
<!-- Node40 -->
<g id="node40" class="node">
<title>Node40</title>
<g id="a_node40"><a xlink:href="hdf5-core-point_8h.html" target="_top" xlink:title=" ">
<polygon fill="none" stroke="black" points="3026.99,-134.5 3026.99,-164.5 3151.99,-164.5 3151.99,-134.5 3026.99,-134.5"/>
<text text-anchor="start" x="3034.99" y="-152.5" font-family="Helvetica,sans-Serif" font-size="10.00">seerep&#45;hdf5&#45;core/hdf5</text>
<text text-anchor="middle" x="3089.49" y="-141.5" font-family="Helvetica,sans-Serif" font-size="10.00">&#45;core&#45;point.h</text>
</a>
</g>
</g>
<!-- Node36&#45;&gt;Node40 -->
<g id="edge98" class="edge">
<title>Node36&#45;&gt;Node40</title>
<path fill="none" stroke="midnightblue" d="M2558.65,-404.4C2617.66,-401.53 2727.23,-391.3 2812.49,-355 2920.15,-309.17 3025.12,-213.86 3068.57,-171.54"/>
<polygon fill="midnightblue" stroke="midnightblue" points="3071.04,-174.01 3075.72,-164.51 3066.13,-169.02 3071.04,-174.01"/>
</g>
<!-- Node41 -->
<g id="node41" class="node">
<title>Node41</title>
<g id="a_node41"><a xlink:href="hdf5-core-tf_8h.html" target="_top" xlink:title=" ">
<polygon fill="none" stroke="black" points="1342.99,-134.5 1342.99,-164.5 1467.99,-164.5 1467.99,-134.5 1342.99,-134.5"/>
<text text-anchor="start" x="1350.99" y="-152.5" font-family="Helvetica,sans-Serif" font-size="10.00">seerep&#45;hdf5&#45;core/hdf5</text>
<text text-anchor="middle" x="1405.49" y="-141.5" font-family="Helvetica,sans-Serif" font-size="10.00">&#45;core&#45;tf.h</text>
</a>
</g>
</g>
<!-- Node36&#45;&gt;Node41 -->
<g id="edge110" class="edge">
<title>Node36&#45;&gt;Node41</title>
<path fill="none" stroke="midnightblue" d="M2474.13,-406.08C2375.93,-406.52 2125.68,-402.44 1923.49,-355 1874.62,-343.53 1564.18,-216.11 1448.69,-168.39"/>
<polygon fill="midnightblue" stroke="midnightblue" points="1450,-165.15 1439.42,-164.56 1447.33,-171.62 1450,-165.15"/>
</g>
<!-- Node42 -->
<g id="node42" class="node">
<title>Node42</title>
<g id="a_node42"><a xlink:href="core-dataset_8h.html" target="_top" xlink:title=" ">
<polygon fill="none" stroke="black" points="2684.99,-330 2684.99,-349 2771.99,-349 2771.99,-330 2684.99,-330"/>
<text text-anchor="middle" x="2728.49" y="-337" font-family="Helvetica,sans-Serif" font-size="10.00">core&#45;dataset.h</text>
</a>
</g>
</g>
<!-- Node36&#45;&gt;Node42 -->
<g id="edge116" class="edge">
<title>Node36&#45;&gt;Node42</title>
<path fill="none" stroke="midnightblue" d="M2544.64,-396.87C2582.28,-385.33 2649.12,-364.84 2691,-352"/>
<polygon fill="midnightblue" stroke="midnightblue" points="2692.02,-355.34 2700.56,-349.06 2689.97,-348.65 2692.02,-355.34"/>
</g>
<!-- Node45 -->
<g id="node45" class="node">
<title>Node45</title>
<g id="a_node45"><a xlink:href="core-instances_8h.html" target="_top" xlink:title=" ">
<polygon fill="none" stroke="red" points="2633.99,-268.5 2633.99,-287.5 2730.99,-287.5 2730.99,-268.5 2633.99,-268.5"/>
<text text-anchor="middle" x="2682.49" y="-275.5" font-family="Helvetica,sans-Serif" font-size="10.00">core&#45;instances.h</text>
</a>
</g>
</g>
<!-- Node36&#45;&gt;Node45 -->
<g id="edge160" class="edge">
<title>Node36&#45;&gt;Node45</title>
<path fill="none" stroke="midnightblue" d="M2527.9,-396.81C2555.85,-375.5 2628.03,-320.5 2662.97,-293.88"/>
<polygon fill="midnightblue" stroke="midnightblue" points="2665.17,-296.6 2671,-287.76 2660.92,-291.03 2665.17,-296.6"/>
</g>
<!-- Node48 -->
<g id="node47" class="node">
<title>Node48</title>
<g id="a_node47"><a xlink:href="core-tf_8h.html" target="_top" xlink:title=" ">
<polygon fill="none" stroke="red" points="1657.99,-207 1657.99,-226 1714.99,-226 1714.99,-207 1657.99,-207"/>
<text text-anchor="middle" x="1686.49" y="-214" font-family="Helvetica,sans-Serif" font-size="10.00">core&#45;tf.h</text>
</a>
</g>
</g>
<!-- Node36&#45;&gt;Node48 -->
<g id="edge161" class="edge">
<title>Node36&#45;&gt;Node48</title>
<path fill="none" stroke="midnightblue" d="M2474.49,-403.57C2367.15,-398.28 2084.95,-382.16 1995.49,-355 1917.29,-331.26 1908.38,-300.72 1833.49,-268 1797.5,-252.28 1754.92,-238.11 1724.87,-228.81"/>
<polygon fill="midnightblue" stroke="midnightblue" points="1725.78,-225.43 1715.19,-225.85 1723.73,-232.12 1725.78,-225.43"/>
</g>
<!-- Node38&#45;&gt;Node3 -->
<g id="edge85" class="edge">
<title>Node38&#45;&gt;Node3</title>
<path fill="none" stroke="midnightblue" d="M2227.75,-134.37C2210.93,-109.97 2176.48,-60 2158.31,-33.65"/>
<polygon fill="midnightblue" stroke="midnightblue" points="2160.97,-31.34 2152.42,-25.1 2155.21,-35.32 2160.97,-31.34"/>
</g>
<!-- Node38&#45;&gt;Node9 -->
<g id="edge76" class="edge">
<title>Node38&#45;&gt;Node9</title>
<path fill="none" stroke="midnightblue" d="M2174.89,-141.71C2148.55,-139.02 2117.55,-136.08 2089.49,-134 2010.38,-128.13 1449.32,-129.43 1376.49,-98 1344.73,-84.29 1317.82,-53.1 1303.22,-33.53"/>
<polygon fill="midnightblue" stroke="midnightblue" points="1305.93,-31.29 1297.24,-25.22 1300.24,-35.38 1305.93,-31.29"/>
</g>
<!-- Node38&#45;&gt;Node13 -->
<g id="edge81" class="edge">
<title>Node38&#45;&gt;Node13</title>
<path fill="none" stroke="midnightblue" d="M2300.34,-137.76C2408.21,-119.8 2635.7,-83.98 2829.49,-67 3312.87,-24.65 3898.14,-17.8 4092.9,-16.7"/>
<polygon fill="midnightblue" stroke="midnightblue" points="4092.99,-20.2 4102.97,-16.65 4092.95,-13.2 4092.99,-20.2"/>
</g>
<!-- Node38&#45;&gt;Node14 -->
<g id="edge77" class="edge">
<title>Node38&#45;&gt;Node14</title>
<path fill="none" stroke="midnightblue" d="M2174.86,-142.16C2148.51,-139.54 2117.52,-136.54 2089.49,-134 1896.21,-116.51 1668.16,-98.19 1554.11,-89.18"/>
<polygon fill="midnightblue" stroke="midnightblue" points="1554.34,-85.69 1544.1,-88.39 1553.79,-92.67 1554.34,-85.69"/>
</g>
<!-- Node38&#45;&gt;Node16 -->
<g id="edge84" class="edge">
<title>Node38&#45;&gt;Node16</title>
<path fill="none" stroke="midnightblue" d="M2174.9,-141.67C2148.55,-138.97 2117.56,-136.04 2089.49,-134 1921.3,-121.77 1494.99,-139.27 1331.49,-98 1275.12,-83.77 1215.13,-50.05 1183.68,-30.74"/>
<polygon fill="midnightblue" stroke="midnightblue" points="1185.21,-27.57 1174.88,-25.24 1181.51,-33.51 1185.21,-27.57"/>
</g>
<!-- Node38&#45;&gt;Node22 -->
<g id="edge79" class="edge">
<title>Node38&#45;&gt;Node22</title>
<path fill="none" stroke="midnightblue" d="M2258.54,-134.4C2274.8,-123.5 2297.21,-108.48 2313.47,-97.58"/>
<polygon fill="midnightblue" stroke="midnightblue" points="2315.43,-100.48 2321.79,-92.01 2311.54,-94.67 2315.43,-100.48"/>
</g>
<!-- Node38&#45;&gt;Node23 -->
<g id="edge80" class="edge">
<title>Node38&#45;&gt;Node23</title>
<path fill="none" stroke="midnightblue" d="M2300.23,-143.37C2336.52,-140.47 2383.07,-136.87 2424.49,-134 2704.19,-114.65 3037.21,-95.59 3181.66,-87.52"/>
<polygon fill="midnightblue" stroke="midnightblue" points="3181.94,-91.01 3191.73,-86.96 3181.55,-84.02 3181.94,-91.01"/>
</g>
<!-- Node38&#45;&gt;Node24 -->
<g id="edge82" class="edge">
<title>Node38&#45;&gt;Node24</title>
<path fill="none" stroke="midnightblue" d="M2300.2,-142.96C2336.49,-139.92 2383.04,-136.32 2424.49,-134 2889.37,-108 3007.92,-141.57 3471.49,-98 3483.06,-96.91 3495.37,-95.33 3507.15,-93.6"/>
<polygon fill="midnightblue" stroke="midnightblue" points="3507.96,-97.02 3517.32,-92.05 3506.91,-90.1 3507.96,-97.02"/>
</g>
<!-- Node38&#45;&gt;Node25 -->
<g id="edge83" class="edge">
<title>Node38&#45;&gt;Node25</title>
<path fill="none" stroke="midnightblue" d="M2300.21,-143.05C2336.5,-140.04 2383.04,-136.43 2424.49,-134 2825.01,-110.49 2928.13,-145.75 3326.49,-98 3334.77,-97.01 3343.52,-95.58 3351.96,-93.99"/>
<polygon fill="midnightblue" stroke="midnightblue" points="3352.91,-97.37 3362.04,-92.01 3351.55,-90.51 3352.91,-97.37"/>
</g>
<!-- Node38&#45;&gt;Node35 -->
<g id="edge78" class="edge">
<title>Node38&#45;&gt;Node35</title>
<path fill="none" stroke="midnightblue" d="M2174.96,-135.35C2117.3,-123.22 2032.79,-105.44 1979.22,-94.17"/>
<polygon fill="midnightblue" stroke="midnightblue" points="1979.77,-90.71 1969.26,-92.08 1978.33,-97.56 1979.77,-90.71"/>
</g>
<!-- Node39&#45;&gt;Node3 -->
<g id="edge92" class="edge">
<title>Node39&#45;&gt;Node3</title>
<path fill="none" stroke="midnightblue" d="M2874.59,-134.35C2829.63,-115.66 2746.04,-83.22 2671.49,-67 2492.41,-28.04 2272.43,-19.13 2184.98,-17.1"/>
<polygon fill="midnightblue" stroke="midnightblue" points="2184.81,-13.59 2174.74,-16.88 2184.66,-20.59 2184.81,-13.59"/>
</g>
<!-- Node39&#45;&gt;Node9 -->
<g id="edge87" class="edge">
<title>Node39&#45;&gt;Node9</title>
<path fill="none" stroke="midnightblue" d="M2844.94,-135.36C2751.83,-116.44 2571.03,-82.14 2415.49,-67 1946.32,-21.34 1822.99,-91.35 1355.49,-31 1348.5,-30.1 1341.16,-28.79 1334.04,-27.32"/>
<polygon fill="midnightblue" stroke="midnightblue" points="1334.35,-23.8 1323.83,-25.08 1332.85,-30.64 1334.35,-23.8"/>
</g>
<!-- Node39&#45;&gt;Node11 -->
<g id="edge88" class="edge">
<title>Node39&#45;&gt;Node11</title>
<path fill="none" stroke="midnightblue" d="M2908.14,-134.4C2908.5,-126.64 2908.95,-116.81 2909.36,-107.86"/>
<polygon fill="midnightblue" stroke="midnightblue" points="2912.87,-107.73 2909.84,-97.58 2905.88,-107.4 2912.87,-107.73"/>
</g>
<!-- Node39&#45;&gt;Node12 -->
<g id="edge90" class="edge">
<title>Node39&#45;&gt;Node12</title>
<path fill="none" stroke="midnightblue" d="M2871.04,-134.46C2855.28,-126.35 2838.43,-114.44 2829.49,-98 2822.91,-85.9 2821.1,-77.93 2829.49,-67 2844.13,-47.91 2900.63,-34.43 2947.91,-26.23"/>
<polygon fill="midnightblue" stroke="midnightblue" points="2948.56,-29.67 2957.84,-24.56 2947.39,-22.77 2948.56,-29.67"/>
</g>
<!-- Node39&#45;&gt;Node13 -->
<g id="edge95" class="edge">
<title>Node39&#45;&gt;Node13</title>
<path fill="none" stroke="midnightblue" d="M2937.37,-134.47C2979.87,-115.29 3060.69,-81.58 3133.49,-67 3317.95,-30.06 3895.21,-19.71 4092.56,-17.21"/>
<polygon fill="midnightblue" stroke="midnightblue" points="4092.83,-20.71 4102.78,-17.08 4092.74,-13.71 4092.83,-20.71"/>
</g>
<!-- Node39&#45;&gt;Node14 -->
<g id="edge89" class="edge">
<title>Node39&#45;&gt;Node14</title>
<path fill="none" stroke="midnightblue" d="M2844.91,-141.54C2818.56,-138.82 2787.56,-135.91 2759.49,-134 2342.37,-105.6 2237.23,-114.96 1819.49,-98 1728.08,-94.29 1622.78,-89.73 1554.34,-86.72"/>
<polygon fill="midnightblue" stroke="midnightblue" points="1554.24,-83.21 1544.09,-86.27 1553.93,-90.21 1554.24,-83.21"/>
</g>
<!-- Node39&#45;&gt;Node16 -->
<g id="edge91" class="edge">
<title>Node39&#45;&gt;Node16</title>
<path fill="none" stroke="midnightblue" d="M2844.92,-141.38C2818.58,-138.64 2787.58,-135.75 2759.49,-134 2459.96,-115.36 1703.19,-159.67 1409.49,-98 1373.79,-90.5 1367.92,-79.04 1333.49,-67 1289.91,-51.76 1239.07,-37.22 1204.03,-27.69"/>
<polygon fill="midnightblue" stroke="midnightblue" points="1204.7,-24.25 1194.14,-25.02 1202.88,-31.01 1204.7,-24.25"/>
</g>
<!-- Node39&#45;&gt;Node22 -->
<g id="edge93" class="edge">
<title>Node39&#45;&gt;Node22</title>
<path fill="none" stroke="midnightblue" d="M2844.96,-136.19C2840.07,-135.39 2835.21,-134.65 2830.49,-134 2649.28,-109.04 2601.93,-121.22 2420.49,-98 2410.9,-96.77 2400.75,-95.26 2390.91,-93.67"/>
<polygon fill="midnightblue" stroke="midnightblue" points="2391.24,-90.18 2380.81,-92 2390.1,-97.09 2391.24,-90.18"/>
</g>
<!-- Node39&#45;&gt;Node23 -->
<g id="edge94" class="edge">
<title>Node39&#45;&gt;Node23</title>
<path fill="none" stroke="midnightblue" d="M2970.33,-136.73C3035.54,-124.51 3136.56,-105.59 3198.94,-93.91"/>
<polygon fill="midnightblue" stroke="midnightblue" points="3199.8,-97.31 3208.98,-92.02 3198.51,-90.43 3199.8,-97.31"/>
</g>
<!-- Node39&#45;&gt;Node24 -->
<g id="edge96" class="edge">
<title>Node39&#45;&gt;Node24</title>
<path fill="none" stroke="midnightblue" d="M2970.24,-139.74C2985.97,-137.7 3002.83,-135.64 3018.49,-134 3219.35,-112.91 3270.88,-121.41 3471.49,-98 3482.29,-96.74 3493.75,-95.17 3504.82,-93.53"/>
<polygon fill="midnightblue" stroke="midnightblue" points="3505.48,-96.97 3514.85,-92.01 3504.44,-90.05 3505.48,-96.97"/>
</g>
<!-- Node39&#45;&gt;Node25 -->
<g id="edge97" class="edge">
<title>Node39&#45;&gt;Node25</title>
<path fill="none" stroke="midnightblue" d="M2969.99,-140.18C2985.81,-138.12 3002.77,-135.95 3018.49,-134 3155.27,-117.07 3190.37,-119.62 3326.49,-98 3333.84,-96.83 3341.59,-95.44 3349.17,-93.99"/>
<polygon fill="midnightblue" stroke="midnightblue" points="3349.84,-97.43 3358.98,-92.07 3348.5,-90.56 3349.84,-97.43"/>
</g>
<!-- Node40&#45;&gt;Node3 -->
<g id="edge104" class="edge">
<title>Node40&#45;&gt;Node3</title>
<path fill="none" stroke="midnightblue" d="M3089.52,-134.28C3088.7,-115.52 3084.16,-83 3063.49,-67 2993.23,-12.64 2350.37,-14.65 2185.09,-16.09"/>
<polygon fill="midnightblue" stroke="midnightblue" points="2184.87,-12.59 2174.9,-16.18 2184.93,-19.59 2184.87,-12.59"/>
</g>
<!-- Node40&#45;&gt;Node9 -->
<g id="edge99" class="edge">
<title>Node40&#45;&gt;Node9</title>
<path fill="none" stroke="midnightblue" d="M3078.16,-134.26C3061.71,-114.82 3029.13,-80.81 2992.49,-67 2822.24,-2.84 1536.06,-53.21 1355.49,-31 1348.26,-30.11 1340.65,-28.76 1333.3,-27.24"/>
<polygon fill="midnightblue" stroke="midnightblue" points="1334.02,-23.81 1323.5,-25.08 1332.51,-30.65 1334.02,-23.81"/>
</g>
<!-- Node40&#45;&gt;Node11 -->
<g id="edge100" class="edge">
<title>Node40&#45;&gt;Node11</title>
<path fill="none" stroke="midnightblue" d="M3050.65,-134.4C3023.67,-124.6 2987.54,-111.48 2958.72,-101.02"/>
<polygon fill="midnightblue" stroke="midnightblue" points="2959.85,-97.7 2949.25,-97.58 2957.46,-104.28 2959.85,-97.7"/>
</g>
<!-- Node40&#45;&gt;Node12 -->
<g id="edge102" class="edge">
<title>Node40&#45;&gt;Node12</title>
<path fill="none" stroke="midnightblue" d="M3096.69,-134.25C3104.24,-117.16 3113.46,-88.16 3101.49,-67 3093.72,-53.27 3080.57,-42.86 3066.94,-35.17"/>
<polygon fill="midnightblue" stroke="midnightblue" points="3068.46,-32.02 3057.98,-30.5 3065.23,-38.22 3068.46,-32.02"/>
</g>
<!-- Node40&#45;&gt;Node13 -->
<g id="edge107" class="edge">
<title>Node40&#45;&gt;Node13</title>
<path fill="none" stroke="midnightblue" d="M3100.42,-134.41C3116.31,-115.16 3147.83,-81.37 3183.49,-67 3267.21,-33.27 3886.04,-20.72 4092.59,-17.45"/>
<polygon fill="midnightblue" stroke="midnightblue" points="4092.75,-20.95 4102.7,-17.29 4092.64,-13.95 4092.75,-20.95"/>
</g>
<!-- Node40&#45;&gt;Node14 -->
<g id="edge101" class="edge">
<title>Node40&#45;&gt;Node14</title>
<path fill="none" stroke="midnightblue" d="M3026.78,-139.13C3011.35,-137.13 2994.85,-135.25 2979.49,-134 2465.38,-92.24 2334.94,-117.05 1819.49,-98 1728.07,-94.62 1622.77,-89.99 1554.33,-86.87"/>
<polygon fill="midnightblue" stroke="midnightblue" points="1554.24,-83.37 1544.09,-86.41 1553.92,-90.36 1554.24,-83.37"/>
</g>
<!-- Node40&#45;&gt;Node16 -->
<g id="edge103" class="edge">
<title>Node40&#45;&gt;Node16</title>
<path fill="none" stroke="midnightblue" d="M3026.96,-138.98C2908.15,-121.34 2641.46,-83.81 2415.49,-67 1888.7,-27.81 1751.72,-95.96 1227.49,-31 1219.96,-30.07 1212.02,-28.68 1204.37,-27.13"/>
<polygon fill="midnightblue" stroke="midnightblue" points="1205.03,-23.69 1194.52,-25.02 1203.56,-30.54 1205.03,-23.69"/>
</g>
<!-- Node40&#45;&gt;Node22 -->
<g id="edge105" class="edge">
<title>Node40&#45;&gt;Node22</title>
<path fill="none" stroke="midnightblue" d="M3026.75,-139.49C3011.32,-137.48 2994.83,-135.5 2979.49,-134 2731.72,-109.72 2667.78,-126.73 2420.49,-98 2410.56,-96.85 2400.04,-95.32 2389.88,-93.7"/>
<polygon fill="midnightblue" stroke="midnightblue" points="2390.33,-90.23 2379.89,-92.05 2389.19,-97.13 2390.33,-90.23"/>
</g>
<!-- Node40&#45;&gt;Node23 -->
<g id="edge106" class="edge">
<title>Node40&#45;&gt;Node23</title>
<path fill="none" stroke="midnightblue" d="M3125.29,-134.4C3154.5,-122.89 3195.35,-106.8 3223.25,-95.81"/>
<polygon fill="midnightblue" stroke="midnightblue" points="3224.87,-98.93 3232.89,-92.01 3222.31,-92.42 3224.87,-98.93"/>
</g>
<!-- Node40&#45;&gt;Node24 -->
<g id="edge108" class="edge">
<title>Node40&#45;&gt;Node24</title>
<path fill="none" stroke="midnightblue" d="M3152.08,-140.65C3227.78,-131.05 3359.08,-114.1 3471.49,-98 3481.17,-96.61 3491.41,-95.09 3501.43,-93.57"/>
<polygon fill="midnightblue" stroke="midnightblue" points="3501.98,-97.03 3511.34,-92.06 3500.92,-90.11 3501.98,-97.03"/>
</g>
<!-- Node40&#45;&gt;Node25 -->
<g id="edge109" class="edge">
<title>Node40&#45;&gt;Node25</title>
<path fill="none" stroke="midnightblue" d="M3152.02,-135.35C3209.67,-123.22 3294.19,-105.44 3347.76,-94.17"/>
<polygon fill="midnightblue" stroke="midnightblue" points="3348.65,-97.56 3357.71,-92.08 3347.21,-90.71 3348.65,-97.56"/>
</g>
<!-- Node41&#45;&gt;Node3 -->
<g id="edge115" class="edge">
<title>Node41&#45;&gt;Node3</title>
<path fill="none" stroke="midnightblue" d="M1468.26,-136.68C1538.22,-123.43 1644,-103.12 1662.49,-98 1701.65,-87.16 1708.99,-76.5 1748.49,-67 1877.96,-35.85 2036.03,-23.06 2107.77,-18.58"/>
<polygon fill="midnightblue" stroke="midnightblue" points="2108.35,-22.05 2118.12,-17.96 2107.93,-15.07 2108.35,-22.05"/>
</g>
<!-- Node41&#45;&gt;Node9 -->
<g id="edge111" class="edge">
<title>Node41&#45;&gt;Node9</title>
<path fill="none" stroke="midnightblue" d="M1344.4,-134.42C1310.23,-125.17 1272.52,-112.19 1262.49,-98 1248.38,-78.06 1263.91,-50.56 1277.11,-33.15"/>
<polygon fill="midnightblue" stroke="midnightblue" points="1280.07,-35.05 1283.63,-25.07 1274.62,-30.65 1280.07,-35.05"/>
</g>
<!-- Node41&#45;&gt;Node14 -->
<g id="edge112" class="edge">
<title>Node41&#45;&gt;Node14</title>
<path fill="none" stroke="midnightblue" d="M1421.98,-134.4C1432.34,-125.54 1445.87,-113.96 1457.42,-104.09"/>
<polygon fill="midnightblue" stroke="midnightblue" points="1459.71,-106.74 1465.03,-97.58 1455.16,-101.42 1459.71,-106.74"/>
</g>
<!-- Node41&#45;&gt;Node16 -->
<g id="edge114" class="edge">
<title>Node41&#45;&gt;Node16</title>
<path fill="none" stroke="midnightblue" d="M1342.95,-135.67C1280.3,-122.59 1192.33,-103.44 1186.49,-98 1169.09,-81.79 1163.68,-53.83 1162.07,-35.25"/>
<polygon fill="midnightblue" stroke="midnightblue" points="1165.55,-34.86 1161.48,-25.08 1158.56,-35.27 1165.55,-34.86"/>
</g>
<!-- Node41&#45;&gt;Node35 -->
<g id="edge113" class="edge">
<title>Node41&#45;&gt;Node35</title>
<path fill="none" stroke="midnightblue" d="M1468.06,-140.72C1563.57,-128.85 1745.61,-106.23 1849.9,-93.27"/>
<polygon fill="midnightblue" stroke="midnightblue" points="1850.56,-96.71 1860.05,-92.01 1849.7,-89.77 1850.56,-96.71"/>
</g>
<!-- Node42&#45;&gt;Node2 -->
<g id="edge118" class="edge">
<title>Node42&#45;&gt;Node2</title>
<path fill="none" stroke="midnightblue" d="M2684.91,-335.57C2618.62,-330.35 2488.91,-317.13 2382.49,-288 2262.65,-255.19 2128.19,-191.09 2073.1,-163.57"/>
<polygon fill="midnightblue" stroke="midnightblue" points="2074.56,-160.39 2064.06,-159.02 2071.42,-166.64 2074.56,-160.39"/>
</g>
<!-- Node42&#45;&gt;Node3 -->
<g id="edge119" class="edge">
<title>Node42&#45;&gt;Node3</title>
<path fill="none" stroke="midnightblue" d="M2684.87,-331.5C2564.57,-311.23 2232.58,-248.62 2166.49,-165 2136.45,-127 2139.53,-65.71 2143.44,-35.12"/>
<polygon fill="midnightblue" stroke="midnightblue" points="2146.93,-35.41 2144.91,-25.01 2140.01,-34.4 2146.93,-35.41"/>
</g>
<!-- Node42&#45;&gt;Node6 -->
<g id="edge122" class="edge">
<title>Node42&#45;&gt;Node6</title>
<path fill="none" stroke="midnightblue" d="M2772.28,-335.77C2889.74,-328.43 3221.55,-307.47 3497.49,-288 3615.31,-279.69 3644.62,-275.55 3762.49,-268 3914.39,-258.27 4303.37,-283.81 4446.49,-232 4484.76,-218.15 4520.88,-186.03 4540.42,-166.51"/>
<polygon fill="midnightblue" stroke="midnightblue" points="4543.03,-168.84 4547.51,-159.23 4538.02,-163.95 4543.03,-168.84"/>
</g>
<!-- Node42&#45;&gt;Node7 -->
<g id="edge123" class="edge">
<title>Node42&#45;&gt;Node7</title>
<path fill="none" stroke="midnightblue" d="M2772.08,-338.2C2909.33,-336.82 3331.09,-329.27 3460.49,-288 3545.33,-260.94 3631.14,-195.62 3667.47,-165.8"/>
<polygon fill="midnightblue" stroke="midnightblue" points="3670.16,-168.12 3675.61,-159.03 3665.68,-162.74 3670.16,-168.12"/>
</g>
<!-- Node42&#45;&gt;Node11 -->
<g id="edge124" class="edge">
<title>Node42&#45;&gt;Node11</title>
<path fill="none" stroke="midnightblue" d="M2754.75,-329.9C2808.91,-310.55 2931.89,-257.87 2979.49,-165 2985.77,-152.74 2985.72,-146.29 2979.49,-134 2973,-121.22 2961.59,-110.89 2949.9,-102.99"/>
<polygon fill="midnightblue" stroke="midnightblue" points="2951.73,-100.01 2941.4,-97.66 2948.01,-105.94 2951.73,-100.01"/>
</g>
<!-- Node42&#45;&gt;Node13 -->
<g id="edge157" class="edge">
<title>Node42&#45;&gt;Node13</title>
<path fill="none" stroke="midnightblue" d="M2772.24,-338.44C2971,-337.65 3808.39,-328.45 4486.49,-232 4503.66,-229.56 4780.62,-178.52 4791.49,-165 4864.85,-73.77 4402.99,-32.82 4226.23,-20.62"/>
<polygon fill="midnightblue" stroke="midnightblue" points="4226.23,-17.11 4216.01,-19.92 4225.75,-24.09 4226.23,-17.11"/>
</g>
<!-- Node42&#45;&gt;Node15 -->
<g id="edge120" class="edge">
<title>Node42&#45;&gt;Node15</title>
<path fill="none" stroke="midnightblue" d="M2684.77,-335.83C2487.06,-323.53 1684.69,-271.34 1649.49,-232 1594.32,-170.35 1685.14,-70.96 1725.1,-32.45"/>
<polygon fill="midnightblue" stroke="midnightblue" points="1727.7,-34.8 1732.57,-25.39 1722.89,-29.72 1727.7,-34.8"/>
</g>
<!-- Node42&#45;&gt;Node22 -->
<g id="edge155" class="edge">
<title>Node42&#45;&gt;Node22</title>
<path fill="none" stroke="midnightblue" d="M2684.9,-331.23C2605.97,-315.69 2439.61,-271.56 2353.49,-165 2339.04,-147.12 2335.19,-120.2 2334.36,-102.25"/>
<polygon fill="midnightblue" stroke="midnightblue" points="2337.86,-102.1 2334.17,-92.17 2330.86,-102.23 2337.86,-102.1"/>
</g>
<!-- Node42&#45;&gt;Node23 -->
<g id="edge156" class="edge">
<title>Node42&#45;&gt;Node23</title>
<path fill="none" stroke="midnightblue" d="M2757.34,-329.95C2857.82,-299.96 3188.22,-199.51 3223.49,-165 3240.69,-148.17 3248.49,-120.8 3251.92,-102.49"/>
<polygon fill="midnightblue" stroke="midnightblue" points="3255.41,-102.85 3253.54,-92.42 3248.5,-101.74 3255.41,-102.85"/>
</g>
<!-- Node42&#45;&gt;Node24 -->
<g id="edge158" class="edge">
<title>Node42&#45;&gt;Node24</title>
<path fill="none" stroke="midnightblue" d="M2772.15,-331.89C2825.64,-323.42 2918.85,-307.49 2997.49,-288 3176.78,-243.55 3222.44,-232.25 3394.49,-165 3447.74,-144.19 3507.52,-114.06 3540.41,-96.86"/>
<polygon fill="midnightblue" stroke="midnightblue" points="3542.11,-99.92 3549.33,-92.17 3538.85,-93.73 3542.11,-99.92"/>
</g>
<!-- Node42&#45;&gt;Node25 -->
<g id="edge159" class="edge">
<title>Node42&#45;&gt;Node25</title>
<path fill="none" stroke="midnightblue" d="M2772.19,-330.27C2867.33,-311.16 3098.53,-258.16 3271.49,-165 3310.55,-143.96 3353.51,-115.09 3378.12,-97.96"/>
<polygon fill="midnightblue" stroke="midnightblue" points="3380.43,-100.61 3386.6,-92.01 3376.41,-94.88 3380.43,-100.61"/>
</g>
<!-- Node43 -->
<g id="node43" class="node">
<title>Node43</title>
<g id="a_node43"><a xlink:title=" ">
<polygon fill="none" stroke="#bfbfbf" points="2749.49,-268.5 2749.49,-287.5 2799.49,-287.5 2799.49,-268.5 2749.49,-268.5"/>
<text text-anchor="middle" x="2774.49" y="-275.5" font-family="Helvetica,sans-Serif" font-size="10.00">cstdint</text>
</a>
</g>
</g>
<!-- Node42&#45;&gt;Node43 -->
<g id="edge117" class="edge">
<title>Node42&#45;&gt;Node43</title>
<path fill="none" stroke="midnightblue" d="M2735.08,-329.98C2741.98,-321.05 2752.99,-306.81 2761.62,-295.64"/>
<polygon fill="midnightblue" stroke="midnightblue" points="2764.56,-297.56 2767.91,-287.51 2759.02,-293.28 2764.56,-297.56"/>
</g>
<!-- Node44 -->
<g id="node44" class="node">
<title>Node44</title>
<g id="a_node44"><a xlink:title=" ">
<polygon fill="none" stroke="#bfbfbf" points="2614.99,-140 2614.99,-159 2749.99,-159 2749.99,-140 2614.99,-140"/>
<text text-anchor="middle" x="2682.49" y="-147" font-family="Helvetica,sans-Serif" font-size="10.00">seerep&#45;msgs/datatype.h</text>
</a>
</g>
</g>
<!-- Node42&#45;&gt;Node44 -->
<g id="edge121" class="edge">
<title>Node42&#45;&gt;Node44</title>
<path fill="none" stroke="midnightblue" d="M2688.67,-329.97C2665.94,-322.84 2639.29,-310.14 2625.49,-288 2599.97,-247.06 2641.98,-192.71 2666.6,-166.28"/>
<polygon fill="midnightblue" stroke="midnightblue" points="2669.18,-168.65 2673.59,-159.02 2664.14,-163.79 2669.18,-168.65"/>
</g>
<!-- Node42&#45;&gt;Node45 -->
<g id="edge125" class="edge">
<title>Node42&#45;&gt;Node45</title>
<path fill="none" stroke="midnightblue" d="M2721.9,-329.98C2715,-321.05 2703.99,-306.81 2695.36,-295.64"/>
<polygon fill="midnightblue" stroke="midnightblue" points="2697.95,-293.28 2689.07,-287.51 2692.41,-297.56 2697.95,-293.28"/>
</g>
<!-- Node42&#45;&gt;Node48 -->
<g id="edge145" class="edge">
<title>Node42&#45;&gt;Node48</title>
<path fill="none" stroke="midnightblue" d="M2684.8,-332.94C2588.64,-320.76 2351.4,-290.95 2152.49,-268 1994.08,-249.72 1805.15,-229.84 1725.23,-221.52"/>
<polygon fill="midnightblue" stroke="midnightblue" points="1725.45,-218.02 1715.14,-220.47 1724.72,-224.98 1725.45,-218.02"/>
</g>
<!-- Node45&#45;&gt;Node2 -->
<g id="edge126" class="edge">
<title>Node45&#45;&gt;Node2</title>
<path fill="none" stroke="midnightblue" d="M2633.62,-269.87C2532.22,-254.6 2291.96,-215.95 2094.49,-165 2090.89,-164.07 2087.15,-163.04 2083.43,-161.96"/>
<polygon fill="midnightblue" stroke="midnightblue" points="2084.3,-158.57 2073.71,-159.07 2082.3,-165.28 2084.3,-158.57"/>
</g>
<!-- Node45&#45;&gt;Node3 -->
<g id="edge127" class="edge">
<title>Node45&#45;&gt;Node3</title>
<path fill="none" stroke="midnightblue" d="M2677.21,-268.32C2662.36,-244.47 2618.04,-176.85 2567.49,-134 2453.37,-37.26 2265.34,-19.84 2184.91,-16.94"/>
<polygon fill="midnightblue" stroke="midnightblue" points="2184.85,-13.43 2174.75,-16.63 2184.64,-20.43 2184.85,-13.43"/>
</g>
<!-- Node45&#45;&gt;Node13 -->
<g id="edge142" class="edge">
<title>Node45&#45;&gt;Node13</title>
<path fill="none" stroke="midnightblue" d="M2731.17,-268.99C2734.32,-268.61 2737.44,-268.28 2740.49,-268 3333.38,-214.25 3488.76,-305.85 4079.49,-232 4213.76,-215.21 4291.99,-270.69 4376.49,-165 4402.5,-132.47 4345.65,-72.62 4338.49,-67 4306.44,-41.87 4262.51,-29.24 4226.2,-22.9"/>
<polygon fill="midnightblue" stroke="midnightblue" points="4226.6,-19.42 4216.17,-21.27 4225.48,-26.33 4226.6,-19.42"/>
</g>
<!-- Node45&#45;&gt;Node22 -->
<g id="edge140" class="edge">
<title>Node45&#45;&gt;Node22</title>
<path fill="none" stroke="midnightblue" d="M2659.79,-268.39C2622.43,-254.25 2545.64,-225.22 2480.49,-201 2437,-184.83 2418.12,-194.73 2382.49,-165 2362.15,-148.03 2348.38,-120.08 2340.98,-101.73"/>
<polygon fill="midnightblue" stroke="midnightblue" points="2344.18,-100.3 2337.36,-92.19 2337.64,-102.78 2344.18,-100.3"/>
</g>
<!-- Node45&#45;&gt;Node23 -->
<g id="edge141" class="edge">
<title>Node45&#45;&gt;Node23</title>
<path fill="none" stroke="midnightblue" d="M2730.7,-268.46C2850.58,-246.94 3155.37,-190.39 3194.49,-165 3218.72,-149.27 3236.58,-120.12 3246.25,-101.28"/>
<polygon fill="midnightblue" stroke="midnightblue" points="3249.42,-102.78 3250.67,-92.26 3243.13,-99.7 3249.42,-102.78"/>
</g>
<!-- Node45&#45;&gt;Node24 -->
<g id="edge143" class="edge">
<title>Node45&#45;&gt;Node24</title>
<path fill="none" stroke="midnightblue" d="M2731.2,-269.26C2734.34,-268.82 2737.46,-268.39 2740.49,-268 2892.93,-248.21 2933.89,-262.82 3084.49,-232 3257.8,-196.53 3457.75,-124.31 3533.87,-95.63"/>
<polygon fill="midnightblue" stroke="midnightblue" points="3535.24,-98.86 3543.36,-92.04 3532.76,-92.31 3535.24,-98.86"/>
</g>
<!-- Node45&#45;&gt;Node25 -->
<g id="edge144" class="edge">
<title>Node45&#45;&gt;Node25</title>
<path fill="none" stroke="midnightblue" d="M2731.21,-269.36C2734.35,-268.89 2737.46,-268.43 2740.49,-268 2862.07,-250.58 2894.64,-258.86 3014.49,-232 3109.67,-210.67 3132.65,-200.55 3223.49,-165 3277.74,-143.77 3339.01,-113.79 3372.75,-96.73"/>
<polygon fill="midnightblue" stroke="midnightblue" points="3374.57,-99.73 3381.9,-92.08 3371.4,-93.49 3374.57,-99.73"/>
</g>
<!-- Node45&#45;&gt;Node38 -->
<g id="edge139" class="edge">
<title>Node45&#45;&gt;Node38</title>
<path fill="none" stroke="midnightblue" d="M2652.25,-268.4C2579.32,-247.67 2392.7,-194.62 2296.61,-167.31"/>
<polygon fill="midnightblue" stroke="midnightblue" points="2297.34,-163.88 2286.76,-164.51 2295.43,-170.61 2297.34,-163.88"/>
</g>
<!-- Node45&#45;&gt;Node44 -->
<g id="edge138" class="edge">
<title>Node45&#45;&gt;Node44</title>
<path fill="none" stroke="midnightblue" d="M2682.49,-268.31C2682.49,-247.99 2682.49,-197.05 2682.49,-169.28"/>
<polygon fill="midnightblue" stroke="midnightblue" points="2685.99,-169.26 2682.49,-159.26 2678.99,-169.26 2685.99,-169.26"/>
</g>
<!-- Node46 -->
<g id="node46" class="node">
<title>Node46</title>
<g id="a_node46"><a xlink:href="core-instance_8h.html" target="_top" xlink:title=" ">
<polygon fill="none" stroke="red" points="2721.49,-207 2721.49,-226 2813.49,-226 2813.49,-207 2721.49,-207"/>
<text text-anchor="middle" x="2767.49" y="-214" font-family="Helvetica,sans-Serif" font-size="10.00">core&#45;instance.h</text>
</a>
</g>
</g>
<!-- Node45&#45;&gt;Node46 -->
<g id="edge128" class="edge">
<title>Node45&#45;&gt;Node46</title>
<path fill="none" stroke="midnightblue" d="M2694.67,-268.48C2708.3,-258.93 2730.62,-243.31 2746.96,-231.87"/>
<polygon fill="midnightblue" stroke="midnightblue" points="2749.15,-234.61 2755.33,-226.01 2745.13,-228.88 2749.15,-234.61"/>
</g>
<!-- Node46&#45;&gt;Node2 -->
<g id="edge129" class="edge">
<title>Node46&#45;&gt;Node2</title>
<path fill="none" stroke="midnightblue" d="M2721.33,-215.58C2611.62,-215.01 2327.04,-209.02 2094.49,-165 2090.24,-164.2 2085.84,-163.14 2081.5,-161.97"/>
<polygon fill="midnightblue" stroke="midnightblue" points="2082.2,-158.53 2071.62,-159.08 2080.24,-165.25 2082.2,-158.53"/>
</g>
<!-- Node46&#45;&gt;Node3 -->
<g id="edge130" class="edge">
<title>Node46&#45;&gt;Node3</title>
<path fill="none" stroke="midnightblue" d="M2769.3,-206.87C2772.14,-190.79 2775.79,-155.89 2759.49,-134 2734.25,-100.11 2710.41,-114.46 2671.49,-98 2639.77,-84.59 2633.75,-75.89 2600.49,-67 2450.48,-26.9 2264.37,-18.6 2185.12,-16.91"/>
<polygon fill="midnightblue" stroke="midnightblue" points="2184.73,-13.4 2174.66,-16.71 2184.6,-20.4 2184.73,-13.4"/>
</g>
<!-- Node46&#45;&gt;Node13 -->
<g id="edge135" class="edge">
<title>Node46&#45;&gt;Node13</title>
<path fill="none" stroke="midnightblue" d="M2813.53,-214.96C2982.79,-212.71 3570.21,-202.33 3753.49,-165 3901.83,-134.79 4068.46,-59.99 4132.47,-29.63"/>
<polygon fill="midnightblue" stroke="midnightblue" points="4134.33,-32.62 4141.84,-25.15 4131.31,-26.3 4134.33,-32.62"/>
</g>
<!-- Node46&#45;&gt;Node22 -->
<g id="edge133" class="edge">
<title>Node46&#45;&gt;Node22</title>
<path fill="none" stroke="midnightblue" d="M2721.48,-212.05C2640.52,-205.45 2476.27,-189.44 2424.49,-165 2407.59,-157.02 2370.91,-120.99 2349.97,-99.59"/>
<polygon fill="midnightblue" stroke="midnightblue" points="2352.27,-96.94 2342.79,-92.2 2347.25,-101.81 2352.27,-96.94"/>
</g>
<!-- Node46&#45;&gt;Node23 -->
<g id="edge134" class="edge">
<title>Node46&#45;&gt;Node23</title>
<path fill="none" stroke="midnightblue" d="M2813.84,-211.09C2911.14,-201.62 3130.33,-179.05 3161.49,-165 3178.92,-157.14 3217.12,-120.76 3238.75,-99.36"/>
<polygon fill="midnightblue" stroke="midnightblue" points="3241.28,-101.77 3245.89,-92.23 3236.34,-96.81 3241.28,-101.77"/>
</g>
<!-- Node46&#45;&gt;Node24 -->
<g id="edge136" class="edge">
<title>Node46&#45;&gt;Node24</title>
<path fill="none" stroke="midnightblue" d="M2813.57,-212.92C2899.59,-207.62 3090.24,-193.49 3248.49,-165 3351.05,-146.54 3469.35,-112.7 3528.2,-94.99"/>
<polygon fill="midnightblue" stroke="midnightblue" points="3529.25,-98.33 3537.81,-92.09 3527.22,-91.63 3529.25,-98.33"/>
</g>
<!-- Node46&#45;&gt;Node25 -->
<g id="edge137" class="edge">
<title>Node46&#45;&gt;Node25</title>
<path fill="none" stroke="midnightblue" d="M2813.71,-213.99C2892.83,-210.54 3058.84,-199.48 3194.49,-165 3229.08,-156.21 3322.15,-116.7 3369.69,-96.09"/>
<polygon fill="midnightblue" stroke="midnightblue" points="3371.33,-99.2 3379.11,-92 3368.54,-92.78 3371.33,-99.2"/>
</g>
<!-- Node46&#45;&gt;Node38 -->
<g id="edge132" class="edge">
<title>Node46&#45;&gt;Node38</title>
<path fill="none" stroke="midnightblue" d="M2721.38,-209.85C2629.07,-198.52 2420.91,-173 2310.1,-159.41"/>
<polygon fill="midnightblue" stroke="midnightblue" points="2310.36,-155.91 2300.01,-158.17 2309.51,-162.86 2310.36,-155.91"/>
</g>
<!-- Node46&#45;&gt;Node44 -->
<g id="edge131" class="edge">
<title>Node46&#45;&gt;Node44</title>
<path fill="none" stroke="midnightblue" d="M2756.03,-206.73C2742.13,-196.11 2718.51,-178.05 2701.8,-165.26"/>
<polygon fill="midnightblue" stroke="midnightblue" points="2703.84,-162.42 2693.77,-159.13 2699.59,-167.98 2703.84,-162.42"/>
</g>
<!-- Node48&#45;&gt;Node2 -->
<g id="edge146" class="edge">
<title>Node48&#45;&gt;Node2</title>
<path fill="none" stroke="midnightblue" d="M1715.12,-210.35C1778.35,-198.96 1930.21,-171.62 2004.75,-158.2"/>
<polygon fill="midnightblue" stroke="midnightblue" points="2005.52,-161.61 2014.74,-156.4 2004.28,-154.72 2005.52,-161.61"/>
</g>
<!-- Node48&#45;&gt;Node3 -->
<g id="edge147" class="edge">
<title>Node48&#45;&gt;Node3</title>
<path fill="none" stroke="midnightblue" d="M1689.74,-206.78C1696.66,-189.55 1714.63,-151.34 1743.49,-134 1856.32,-66.19 1915.33,-147.07 2037.49,-98 2042.55,-95.97 2097.08,-54.42 2127.04,-31.45"/>
<polygon fill="midnightblue" stroke="midnightblue" points="2129.32,-34.11 2135.12,-25.25 2125.06,-28.56 2129.32,-34.11"/>
</g>
<!-- Node48&#45;&gt;Node7 -->
<g id="edge150" class="edge">
<title>Node48&#45;&gt;Node7</title>
<path fill="none" stroke="midnightblue" d="M1715.13,-214.57C1930.11,-207.58 3291.38,-163.31 3616.04,-152.76"/>
<polygon fill="midnightblue" stroke="midnightblue" points="3616.36,-156.25 3626.24,-152.43 3616.14,-149.25 3616.36,-156.25"/>
</g>
<!-- Node48&#45;&gt;Node15 -->
<g id="edge148" class="edge">
<title>Node48&#45;&gt;Node15</title>
<path fill="none" stroke="midnightblue" d="M1685.57,-206.79C1684.22,-191.72 1682.48,-159.92 1688.49,-134 1697.23,-96.28 1718.7,-56.05 1731.79,-33.81"/>
<polygon fill="midnightblue" stroke="midnightblue" points="1734.82,-35.57 1736.97,-25.19 1728.82,-31.96 1734.82,-35.57"/>
</g>
<!-- Node48&#45;&gt;Node19 -->
<g id="edge153" class="edge">
<title>Node48&#45;&gt;Node19</title>
<path fill="none" stroke="midnightblue" d="M1657.85,-215.96C1596.17,-215.99 1447.17,-210.85 1333.49,-165 1311.64,-156.19 1311.68,-144.3 1290.49,-134 1238.49,-108.72 1219.99,-117.28 1165.49,-98 1111.43,-78.88 1050.77,-52.4 1012.13,-34.88"/>
<polygon fill="midnightblue" stroke="midnightblue" points="1013.35,-31.59 1002.8,-30.63 1010.45,-37.96 1013.35,-31.59"/>
</g>
<!-- Node48&#45;&gt;Node20 -->
<g id="edge154" class="edge">
<title>Node48&#45;&gt;Node20</title>
<path fill="none" stroke="midnightblue" d="M1657.71,-214.08C1578.04,-209.78 1356.15,-195.36 1290.49,-165 1271.93,-156.42 1274.75,-143.2 1256.49,-134 1247.87,-129.66 925.06,-68.28 915.49,-67 685,-36.15 409.05,-23.21 284,-18.64"/>
<polygon fill="midnightblue" stroke="midnightblue" points="283.93,-15.14 273.81,-18.28 283.68,-22.13 283.93,-15.14"/>
</g>
<!-- Node48&#45;&gt;Node34 -->
<g id="edge149" class="edge">
<title>Node48&#45;&gt;Node34</title>
<path fill="none" stroke="midnightblue" d="M1703.88,-206.87C1726.1,-195.84 1764.78,-176.66 1790.75,-163.77"/>
<polygon fill="midnightblue" stroke="midnightblue" points="1792.62,-166.75 1800.02,-159.17 1789.51,-160.48 1792.62,-166.75"/>
</g>
<!-- Node48&#45;&gt;Node35 -->
<g id="edge151" class="edge">
<title>Node48&#45;&gt;Node35</title>
<path fill="none" stroke="midnightblue" d="M1686.37,-206.93C1686.62,-190.31 1689.67,-153.63 1710.49,-134 1730.4,-115.22 1794.45,-101.81 1848.01,-93.56"/>
<polygon fill="midnightblue" stroke="midnightblue" points="1848.85,-96.97 1858.22,-92.02 1847.81,-90.05 1848.85,-96.97"/>
</g>
<!-- Node48&#45;&gt;Node41 -->
<g id="edge152" class="edge">
<title>Node48&#45;&gt;Node41</title>
<path fill="none" stroke="midnightblue" d="M1657.74,-208.85C1615.36,-199.05 1534.81,-180.41 1476.1,-166.83"/>
<polygon fill="midnightblue" stroke="midnightblue" points="1476.67,-163.37 1466.14,-164.53 1475.09,-170.19 1476.67,-163.37"/>
</g>
<!-- Node54&#45;&gt;Node2 -->
<g id="edge167" class="edge">
<title>Node54&#45;&gt;Node2</title>
<path fill="none" stroke="midnightblue" d="M3956.37,-214.92C3657.67,-211.79 2281.94,-195.79 2094.49,-165 2089.91,-164.25 2085.16,-163.16 2080.51,-161.92"/>
<polygon fill="midnightblue" stroke="midnightblue" points="2081.2,-158.47 2070.62,-159.01 2079.22,-165.19 2081.2,-158.47"/>
</g>
<!-- Node54&#45;&gt;Node3 -->
<g id="edge168" class="edge">
<title>Node54&#45;&gt;Node3</title>
<path fill="none" stroke="midnightblue" d="M4010,-201.27C4004.7,-182.79 3992.8,-150.92 3970.49,-134 3914.15,-91.29 3729.65,-75.66 3659.49,-67 3509.36,-48.47 2405.55,-22.43 2184.83,-17.37"/>
<polygon fill="midnightblue" stroke="midnightblue" points="2184.79,-13.87 2174.71,-17.14 2184.63,-20.87 2184.79,-13.87"/>
</g>
<!-- Node54&#45;&gt;Node4 -->
<g id="edge169" class="edge">
<title>Node54&#45;&gt;Node4</title>
<path fill="none" stroke="midnightblue" d="M3956.42,-214.68C3592.55,-209.44 1603.48,-180.23 1333.49,-165 1308.97,-163.62 1282.32,-161.37 1258.19,-159.06"/>
<polygon fill="midnightblue" stroke="midnightblue" points="1258.31,-155.55 1248.02,-158.06 1257.63,-162.52 1258.31,-155.55"/>
</g>
<!-- Node54&#45;&gt;Node5 -->
<g id="edge170" class="edge">
<title>Node54&#45;&gt;Node5</title>
<path fill="none" stroke="midnightblue" d="M4070.77,-213.01C4181.33,-207.73 4431.66,-193.51 4640.49,-165 4648.62,-163.89 4657.19,-162.47 4665.53,-160.96"/>
<polygon fill="midnightblue" stroke="midnightblue" points="4666.35,-164.36 4675.53,-159.07 4665.06,-157.48 4666.35,-164.36"/>
</g>
<!-- Node54&#45;&gt;Node6 -->
<g id="edge174" class="edge">
<title>Node54&#45;&gt;Node6</title>
<path fill="none" stroke="midnightblue" d="M4070.72,-208.64C4167.43,-197.04 4363.46,-173.53 4474.33,-160.23"/>
<polygon fill="midnightblue" stroke="midnightblue" points="4474.94,-163.68 4484.46,-159.02 4474.11,-156.73 4474.94,-163.68"/>
</g>
<!-- Node54&#45;&gt;Node7 -->
<g id="edge176" class="edge">
<title>Node54&#45;&gt;Node7</title>
<path fill="none" stroke="midnightblue" d="M3956.36,-204.18C3894.93,-192.01 3798.09,-172.81 3738.37,-160.98"/>
<polygon fill="midnightblue" stroke="midnightblue" points="3738.88,-157.51 3728.39,-159 3737.52,-164.38 3738.88,-157.51"/>
</g>
<!-- Node54&#45;&gt;Node12 -->
<g id="edge173" class="edge">
<title>Node54&#45;&gt;Node12</title>
<path fill="none" stroke="midnightblue" d="M4017.94,-201.33C4022.47,-184.05 4027.18,-154.6 4014.49,-134 3979.78,-77.65 3945.41,-84.18 3881.49,-67 3732.2,-26.88 3264.76,-18.63 3087.02,-16.94"/>
<polygon fill="midnightblue" stroke="midnightblue" points="3087.03,-13.44 3077,-16.85 3086.97,-20.44 3087.03,-13.44"/>
</g>
<!-- Node54&#45;&gt;Node13 -->
<g id="edge180" class="edge">
<title>Node54&#45;&gt;Node13</title>
<path fill="none" stroke="midnightblue" d="M4070.68,-215.71C4158.5,-214.68 4320.25,-206.97 4356.49,-165 4410.29,-102.69 4272.25,-50.23 4200.11,-27.96"/>
<polygon fill="midnightblue" stroke="midnightblue" points="4200.98,-24.57 4190.4,-25.02 4198.95,-31.27 4200.98,-24.57"/>
</g>
<!-- Node54&#45;&gt;Node22 -->
<g id="edge178" class="edge">
<title>Node54&#45;&gt;Node22</title>
<path fill="none" stroke="midnightblue" d="M3956.39,-215.6C3751.48,-215.58 3053.9,-211.98 2836.49,-165 2800.43,-157.21 2795.29,-142.92 2759.49,-134 2612.47,-97.36 2570.59,-118.6 2420.49,-98 2411.35,-96.74 2401.68,-95.27 2392.26,-93.74"/>
<polygon fill="midnightblue" stroke="midnightblue" points="2392.61,-90.25 2382.17,-92.07 2391.47,-97.16 2392.61,-90.25"/>
</g>
<!-- Node54&#45;&gt;Node23 -->
<g id="edge179" class="edge">
<title>Node54&#45;&gt;Node23</title>
<path fill="none" stroke="midnightblue" d="M3977.54,-201.46C3927.96,-182.73 3835.42,-150.09 3753.49,-134 3566.61,-97.3 3515.04,-124.84 3326.49,-98 3318.77,-96.9 3310.62,-95.5 3302.7,-94"/>
<polygon fill="midnightblue" stroke="midnightblue" points="3303.32,-90.56 3292.84,-92.07 3301.98,-97.43 3303.32,-90.56"/>
</g>
<!-- Node54&#45;&gt;Node24 -->
<g id="edge181" class="edge">
<title>Node54&#45;&gt;Node24</title>
<path fill="none" stroke="midnightblue" d="M4004.88,-201.18C3992.69,-182.3 3968.5,-149.65 3938.49,-134 3891.6,-109.54 3754.9,-95.83 3660.7,-89.04"/>
<polygon fill="midnightblue" stroke="midnightblue" points="3660.8,-85.54 3650.58,-88.33 3660.31,-92.53 3660.8,-85.54"/>
</g>
<!-- Node54&#45;&gt;Node25 -->
<g id="edge182" class="edge">
<title>Node54&#45;&gt;Node25</title>
<path fill="none" stroke="midnightblue" d="M3991.46,-201.43C3976.32,-191.58 3955.88,-177.91 3938.49,-165 3920.99,-152.01 3920.7,-142.17 3900.49,-134 3723.09,-62.32 3660.96,-124.68 3471.49,-98 3463.66,-96.9 3455.41,-95.49 3447.38,-94"/>
<polygon fill="midnightblue" stroke="midnightblue" points="3447.85,-90.52 3437.37,-92.06 3446.53,-97.4 3447.85,-90.52"/>
</g>
<!-- Node54&#45;&gt;Node34 -->
<g id="edge175" class="edge">
<title>Node54&#45;&gt;Node34</title>
<path fill="none" stroke="midnightblue" d="M3956.38,-215.14C3717.87,-213.4 2777.96,-204.27 2006.49,-165 1968.95,-163.09 1927.28,-160 1892.64,-157.16"/>
<polygon fill="midnightblue" stroke="midnightblue" points="1892.86,-153.66 1882.6,-156.33 1892.28,-160.64 1892.86,-153.66"/>
</g>
<!-- Node54&#45;&gt;Node35 -->
<g id="edge177" class="edge">
<title>Node54&#45;&gt;Node35</title>
<path fill="none" stroke="midnightblue" d="M3956.07,-215.14C3663.46,-213.14 2345.01,-202.13 2166.49,-165 2130.37,-157.49 2124.23,-146.42 2089.49,-134 2048.37,-119.3 2000.54,-104.59 1967.76,-94.88"/>
<polygon fill="midnightblue" stroke="midnightblue" points="1968.68,-91.5 1958.1,-92.03 1966.7,-98.21 1968.68,-91.5"/>
</g>
<!-- Node55 -->
<g id="node49" class="node">
<title>Node55</title>
<g id="a_node49"><a xlink:title=" ">
<polygon fill="none" stroke="#bfbfbf" points="4066.99,-134.5 4066.99,-164.5 4197.99,-164.5 4197.99,-134.5 4066.99,-134.5"/>
<text text-anchor="start" x="4074.99" y="-152.5" font-family="Helvetica,sans-Serif" font-size="10.00">seerep&#45;msgs/transform</text>
<text text-anchor="middle" x="4132.49" y="-141.5" font-family="Helvetica,sans-Serif" font-size="10.00">_stamped.pb.h</text>
</a>
</g>
</g>
<!-- Node54&#45;&gt;Node55 -->
<g id="edge171" class="edge">
<title>Node54&#45;&gt;Node55</title>
<path fill="none" stroke="midnightblue" d="M4039.31,-201.4C4056.46,-192.03 4079.19,-179.62 4097.9,-169.39"/>
<polygon fill="midnightblue" stroke="midnightblue" points="4099.62,-172.44 4106.72,-164.58 4096.26,-166.3 4099.62,-172.44"/>
</g>
<!-- Node56 -->
<g id="node50" class="node">
<title>Node56</title>
<g id="a_node50"><a xlink:title=" ">
<polygon fill="none" stroke="#bfbfbf" points="4215.99,-134.5 4215.99,-164.5 4346.99,-164.5 4346.99,-134.5 4215.99,-134.5"/>
<text text-anchor="start" x="4223.99" y="-152.5" font-family="Helvetica,sans-Serif" font-size="10.00">seerep&#45;msgs/transform</text>
<text text-anchor="middle" x="4281.49" y="-141.5" font-family="Helvetica,sans-Serif" font-size="10.00">_stamped_query.pb.h</text>
</a>
</g>
</g>
<!-- Node54&#45;&gt;Node56 -->
<g id="edge172" class="edge">
<title>Node54&#45;&gt;Node56</title>
<path fill="none" stroke="midnightblue" d="M4070.65,-201.64C4112.53,-191.48 4169.52,-177.66 4213.7,-166.94"/>
<polygon fill="midnightblue" stroke="midnightblue" points="4214.59,-170.33 4223.49,-164.57 4212.94,-163.52 4214.59,-170.33"/>
</g>
</g>
</svg>
