<?xml version="1.0" encoding="UTF-8" standalone="no"?>
<!DOCTYPE svg PUBLIC "-//W3C//DTD SVG 1.1//EN"
 "http://www.w3.org/Graphics/SVG/1.1/DTD/svg11.dtd">
<!-- Generated by graphviz version 2.43.0 (0)
 -->
<!-- Title: seerep&#45;srv/seerep&#45;core/src/core&#45;instances.cpp Pages: 1 -->
<svg width="1334pt" height="352pt"
 viewBox="0.00 0.00 1333.54 352.00" xmlns="http://www.w3.org/2000/svg" xmlns:xlink="http://www.w3.org/1999/xlink">
<g id="graph0" class="graph" transform="scale(1 1) rotate(0) translate(4 348)">
<title>seerep&#45;srv/seerep&#45;core/src/core&#45;instances.cpp</title>
<!-- Node1 -->
<g id="node1" class="node">
<title>Node1</title>
<g id="a_node1"><a xlink:title=" ">
<polygon fill="#bfbfbf" stroke="black" points="442.54,-313.5 442.54,-343.5 571.54,-343.5 571.54,-313.5 442.54,-313.5"/>
<text text-anchor="start" x="450.54" y="-331.5" font-family="Helvetica,sans-Serif" font-size="10.00">seerep&#45;srv/seerep&#45;core</text>
<text text-anchor="middle" x="507.04" y="-320.5" font-family="Helvetica,sans-Serif" font-size="10.00">/src/core&#45;instances.cpp</text>
</a>
</g>
</g>
<!-- Node2 -->
<g id="node2" class="node">
<title>Node2</title>
<g id="a_node2"><a xlink:href="core-instances_8h.html" target="_top" xlink:title=" ">
<polygon fill="none" stroke="black" points="428.04,-257.5 428.04,-276.5 586.04,-276.5 586.04,-257.5 428.04,-257.5"/>
<text text-anchor="middle" x="507.04" y="-264.5" font-family="Helvetica,sans-Serif" font-size="10.00">seerep&#45;core/core&#45;instances.h</text>
</a>
</g>
</g>
<!-- Node1&#45;&gt;Node2 -->
<g id="edge1" class="edge">
<title>Node1&#45;&gt;Node2</title>
<path fill="none" stroke="midnightblue" d="M507.04,-313.4C507.04,-305.47 507.04,-295.46 507.04,-286.86"/>
<polygon fill="midnightblue" stroke="midnightblue" points="510.54,-286.66 507.04,-276.66 503.54,-286.66 510.54,-286.66"/>
</g>
<!-- Node3 -->
<g id="node3" class="node">
<title>Node3</title>
<g id="a_node3"><a xlink:title=" ">
<polygon fill="none" stroke="#bfbfbf" points="160.54,-140 160.54,-159 225.54,-159 225.54,-140 160.54,-140"/>
<text text-anchor="middle" x="193.04" y="-147" font-family="Helvetica,sans-Serif" font-size="10.00">functional</text>
</a>
</g>
</g>
<!-- Node2&#45;&gt;Node3 -->
<g id="edge2" class="edge">
<title>Node2&#45;&gt;Node3</title>
<path fill="none" stroke="midnightblue" d="M483.7,-257.41C428.52,-237.12 289.9,-186.13 226.11,-162.66"/>
<polygon fill="midnightblue" stroke="midnightblue" points="227.13,-159.31 216.54,-159.14 224.72,-165.88 227.13,-159.31"/>
</g>
<!-- Node4 -->
<g id="node4" class="node">
<title>Node4</title>
<g id="a_node4"><a xlink:title=" ">
<polygon fill="none" stroke="#bfbfbf" points="209.04,-6 209.04,-25 265.04,-25 265.04,-6 209.04,-6"/>
<text text-anchor="middle" x="237.04" y="-13" font-family="Helvetica,sans-Serif" font-size="10.00">optional</text>
</a>
</g>
</g>
<!-- Node2&#45;&gt;Node4 -->
<g id="edge3" class="edge">
<title>Node2&#45;&gt;Node4</title>
<path fill="none" stroke="midnightblue" d="M427.8,-266.07C358.74,-263.64 257.08,-253.95 175.04,-221 88.84,-186.38 48.18,-180.79 6.04,-98 -31.74,-23.77 123.52,-15.42 198.54,-15.59"/>
<polygon fill="midnightblue" stroke="midnightblue" points="198.97,-19.09 208.99,-15.67 199.02,-12.09 198.97,-19.09"/>
</g>
<!-- Node5 -->
<g id="node5" class="node">
<title>Node5</title>
<g id="a_node5"><a xlink:href="core-instance_8h.html" target="_top" xlink:title=" ">
<polygon fill="none" stroke="black" points="461.04,-201.5 461.04,-220.5 553.04,-220.5 553.04,-201.5 461.04,-201.5"/>
<text text-anchor="middle" x="507.04" y="-208.5" font-family="Helvetica,sans-Serif" font-size="10.00">core&#45;instance.h</text>
</a>
</g>
</g>
<!-- Node2&#45;&gt;Node5 -->
<g id="edge4" class="edge">
<title>Node2&#45;&gt;Node5</title>
<path fill="none" stroke="midnightblue" d="M507.04,-257.08C507.04,-250.01 507.04,-239.86 507.04,-230.99"/>
<polygon fill="midnightblue" stroke="midnightblue" points="510.54,-230.75 507.04,-220.75 503.54,-230.75 510.54,-230.75"/>
</g>
<!-- Node6 -->
<g id="node6" class="node">
<title>Node6</title>
<g id="a_node6"><a xlink:title=" ">
<polygon fill="none" stroke="#bfbfbf" points="616.54,-140 616.54,-159 751.54,-159 751.54,-140 616.54,-140"/>
<text text-anchor="middle" x="684.04" y="-147" font-family="Helvetica,sans-Serif" font-size="10.00">seerep&#45;msgs/datatype.h</text>
</a>
</g>
</g>
<!-- Node2&#45;&gt;Node6 -->
<g id="edge34" class="edge">
<title>Node2&#45;&gt;Node6</title>
<path fill="none" stroke="midnightblue" d="M520.35,-257.32C550.59,-237.59 624.74,-189.2 661.96,-164.91"/>
<polygon fill="midnightblue" stroke="midnightblue" points="664.12,-167.68 670.58,-159.28 660.3,-161.82 664.12,-167.68"/>
</g>
<!-- Node7 -->
<g id="node7" class="node">
<title>Node7</title>
<g id="a_node7"><a xlink:title=" ">
<polygon fill="none" stroke="#bfbfbf" points="769.54,-134.5 769.54,-164.5 900.54,-164.5 900.54,-134.5 769.54,-134.5"/>
<text text-anchor="start" x="777.54" y="-152.5" font-family="Helvetica,sans-Serif" font-size="10.00">seerep&#45;msgs/label&#45;with</text>
<text text-anchor="middle" x="835.04" y="-141.5" font-family="Helvetica,sans-Serif" font-size="10.00">&#45;instance.h</text>
</a>
</g>
</g>
<!-- Node2&#45;&gt;Node7 -->
<g id="edge35" class="edge">
<title>Node2&#45;&gt;Node7</title>
<path fill="none" stroke="midnightblue" d="M531.43,-257.41C585.03,-238.54 713.99,-193.13 785.39,-167.98"/>
<polygon fill="midnightblue" stroke="midnightblue" points="786.8,-171.2 795.07,-164.58 784.48,-164.6 786.8,-171.2"/>
</g>
<!-- Node8 -->
<g id="node8" class="node">
<title>Node8</title>
<g id="a_node8"><a xlink:href="hdf5-core-instance_8h.html" target="_top" xlink:title=" ">
<polygon fill="none" stroke="black" points="358.54,-134.5 358.54,-164.5 483.54,-164.5 483.54,-134.5 358.54,-134.5"/>
<text text-anchor="start" x="366.54" y="-152.5" font-family="Helvetica,sans-Serif" font-size="10.00">seerep&#45;hdf5&#45;core/hdf5</text>
<text text-anchor="middle" x="421.04" y="-141.5" font-family="Helvetica,sans-Serif" font-size="10.00">&#45;core&#45;instance.h</text>
</a>
</g>
</g>
<!-- Node2&#45;&gt;Node8 -->
<g id="edge36" class="edge">
<title>Node2&#45;&gt;Node8</title>
<path fill="none" stroke="midnightblue" d="M493.28,-257.47C481.1,-249.34 463.54,-236.13 452.04,-221 441.37,-206.95 433.46,-188.65 428.3,-174.22"/>
<polygon fill="midnightblue" stroke="midnightblue" points="431.54,-172.87 425.04,-164.51 424.91,-175.1 431.54,-172.87"/>
</g>
<!-- Node19 -->
<g id="node19" class="node">
<title>Node19</title>
<g id="a_node19"><a xlink:title=" ">
<polygon fill="none" stroke="#bfbfbf" points="15.54,-73 15.54,-92 158.54,-92 158.54,-73 15.54,-73"/>
<text text-anchor="middle" x="87.04" y="-80" font-family="Helvetica,sans-Serif" font-size="10.00">boost/functional/hash.hpp</text>
</a>
</g>
</g>
<!-- Node2&#45;&gt;Node19 -->
<g id="edge37" class="edge">
<title>Node2&#45;&gt;Node19</title>
<path fill="none" stroke="midnightblue" d="M427.85,-265.59C365.83,-262.59 278.7,-252.36 209.04,-221 153.64,-196.06 113.16,-132.16 96.06,-101.05"/>
<polygon fill="midnightblue" stroke="midnightblue" points="99.13,-99.37 91.33,-92.19 92.95,-102.66 99.13,-99.37"/>
</g>
<!-- Node20 -->
<g id="node20" class="node">
<title>Node20</title>
<g id="a_node20"><a xlink:title=" ">
<polygon fill="none" stroke="#bfbfbf" points="176.54,-73 176.54,-92 301.54,-92 301.54,-73 176.54,-73"/>
<text text-anchor="middle" x="239.04" y="-80" font-family="Helvetica,sans-Serif" font-size="10.00">boost/lexical_cast.hpp</text>
</a>
</g>
</g>
<!-- Node2&#45;&gt;Node20 -->
<g id="edge38" class="edge">
<title>Node2&#45;&gt;Node20</title>
<path fill="none" stroke="midnightblue" d="M444.42,-257.5C351.86,-243.49 185.68,-212.29 151.04,-165 142.9,-153.88 144.14,-145.92 151.04,-134 161.57,-115.83 181.37,-103.63 199.53,-95.78"/>
<polygon fill="midnightblue" stroke="midnightblue" points="200.84,-99.03 208.82,-92.06 198.24,-92.53 200.84,-99.03"/>
</g>
<!-- Node21 -->
<g id="node21" class="node">
<title>Node21</title>
<g id="a_node21"><a xlink:title=" ">
<polygon fill="none" stroke="#bfbfbf" points="1167.54,-73 1167.54,-92 1280.54,-92 1280.54,-73 1167.54,-73"/>
<text text-anchor="middle" x="1224.04" y="-80" font-family="Helvetica,sans-Serif" font-size="10.00">boost/uuid/uuid.hpp</text>
</a>
</g>
</g>
<!-- Node2&#45;&gt;Node21 -->
<g id="edge39" class="edge">
<title>Node2&#45;&gt;Node21</title>
<path fill="none" stroke="midnightblue" d="M586.36,-261.64C659.99,-256.29 772.2,-244.81 867.04,-221 994.62,-188.97 1138.46,-124.21 1197.05,-96.53"/>
<polygon fill="midnightblue" stroke="midnightblue" points="1198.81,-99.56 1206.34,-92.11 1195.81,-93.24 1198.81,-99.56"/>
</g>
<!-- Node22 -->
<g id="node22" class="node">
<title>Node22</title>
<g id="a_node22"><a xlink:title=" ">
<polygon fill="none" stroke="#bfbfbf" points="834.04,-73 834.04,-92 1004.04,-92 1004.04,-73 834.04,-73"/>
<text text-anchor="middle" x="919.04" y="-80" font-family="Helvetica,sans-Serif" font-size="10.00">boost/uuid/uuid_generators.hpp</text>
</a>
</g>
</g>
<!-- Node2&#45;&gt;Node22 -->
<g id="edge40" class="edge">
<title>Node2&#45;&gt;Node22</title>
<path fill="none" stroke="midnightblue" d="M581.66,-257.46C685.96,-243.89 867.41,-213.84 910.04,-165 924.93,-147.95 924.79,-120.64 922.56,-102.39"/>
<polygon fill="midnightblue" stroke="midnightblue" points="925.99,-101.72 921.01,-92.37 919.08,-102.79 925.99,-101.72"/>
</g>
<!-- Node23 -->
<g id="node23" class="node">
<title>Node23</title>
<g id="a_node23"><a xlink:title=" ">
<polygon fill="none" stroke="#bfbfbf" points="1022.54,-73 1022.54,-92 1149.54,-92 1149.54,-73 1022.54,-73"/>
<text text-anchor="middle" x="1086.04" y="-80" font-family="Helvetica,sans-Serif" font-size="10.00">boost/uuid/uuid_io.hpp</text>
</a>
</g>
</g>
<!-- Node2&#45;&gt;Node23 -->
<g id="edge41" class="edge">
<title>Node2&#45;&gt;Node23</title>
<path fill="none" stroke="midnightblue" d="M586.12,-262.78C652.62,-258.25 749.45,-247.32 830.04,-221 923.87,-190.36 1023.8,-126.24 1065.71,-97.72"/>
<polygon fill="midnightblue" stroke="midnightblue" points="1067.71,-100.59 1073.97,-92.04 1063.75,-94.82 1067.71,-100.59"/>
</g>
<!-- Node5&#45;&gt;Node3 -->
<g id="edge5" class="edge">
<title>Node5&#45;&gt;Node3</title>
<path fill="none" stroke="midnightblue" d="M460.84,-204.11C407.31,-196.84 316.65,-183.19 240.04,-165 236.23,-164.09 232.27,-163.05 228.34,-161.94"/>
<polygon fill="midnightblue" stroke="midnightblue" points="229.31,-158.58 218.73,-159.1 227.33,-165.29 229.31,-158.58"/>
</g>
<!-- Node5&#45;&gt;Node4 -->
<g id="edge6" class="edge">
<title>Node5&#45;&gt;Node4</title>
<path fill="none" stroke="midnightblue" d="M461,-207.59C426.34,-203.48 379.73,-192.73 349.04,-165 314.26,-133.57 339.23,-103.68 310.04,-67 297.72,-51.52 279.41,-38.87 264.2,-30.1"/>
<polygon fill="midnightblue" stroke="midnightblue" points="265.67,-26.91 255.22,-25.15 262.29,-33.04 265.67,-26.91"/>
</g>
<!-- Node5&#45;&gt;Node6 -->
<g id="edge7" class="edge">
<title>Node5&#45;&gt;Node6</title>
<path fill="none" stroke="midnightblue" d="M532.4,-201.48C563.03,-191.18 614.7,-173.81 649.09,-162.25"/>
<polygon fill="midnightblue" stroke="midnightblue" points="650.37,-165.51 658.73,-159.01 648.14,-158.88 650.37,-165.51"/>
</g>
<!-- Node5&#45;&gt;Node7 -->
<g id="edge8" class="edge">
<title>Node5&#45;&gt;Node7</title>
<path fill="none" stroke="midnightblue" d="M553.44,-202.04C602.3,-193.6 681.77,-179.71 759.35,-165.3"/>
<polygon fill="midnightblue" stroke="midnightblue" points="760.1,-168.72 769.29,-163.45 758.81,-161.84 760.1,-168.72"/>
</g>
<!-- Node5&#45;&gt;Node8 -->
<g id="edge9" class="edge">
<title>Node5&#45;&gt;Node8</title>
<path fill="none" stroke="midnightblue" d="M494.72,-201.48C483.07,-193.42 465.16,-181.02 449.91,-170.47"/>
<polygon fill="midnightblue" stroke="midnightblue" points="451.53,-167.33 441.31,-164.52 447.54,-173.09 451.53,-167.33"/>
</g>
<!-- Node5&#45;&gt;Node19 -->
<g id="edge29" class="edge">
<title>Node5&#45;&gt;Node19</title>
<path fill="none" stroke="midnightblue" d="M460.73,-207.2C412.53,-202.9 335.75,-192.07 275.04,-165 254.18,-155.7 254.21,-144.73 234.04,-134 201.3,-116.57 161.34,-103.3 131.35,-94.74"/>
<polygon fill="midnightblue" stroke="midnightblue" points="132.16,-91.34 121.58,-92.03 130.28,-98.08 132.16,-91.34"/>
</g>
<!-- Node5&#45;&gt;Node20 -->
<g id="edge30" class="edge">
<title>Node5&#45;&gt;Node20</title>
<path fill="none" stroke="midnightblue" d="M460.7,-206.6C420.22,-201.94 361.06,-190.93 316.04,-165 288.05,-148.88 263.99,-119.41 250.53,-100.67"/>
<polygon fill="midnightblue" stroke="midnightblue" points="253.23,-98.42 244.65,-92.21 247.48,-102.42 253.23,-98.42"/>
</g>
<!-- Node5&#45;&gt;Node21 -->
<g id="edge31" class="edge">
<title>Node5&#45;&gt;Node21</title>
<path fill="none" stroke="midnightblue" d="M520.06,-201.4C533.18,-192.6 553.9,-178.36 571.04,-165 587.7,-152.02 587.5,-141.99 607.04,-134 720.83,-87.49 1037.36,-115.43 1159.04,-98 1165.96,-97.01 1173.24,-95.68 1180.32,-94.22"/>
<polygon fill="midnightblue" stroke="midnightblue" points="1181.45,-97.56 1190.49,-92.02 1179.97,-90.71 1181.45,-97.56"/>
</g>
<!-- Node5&#45;&gt;Node22 -->
<g id="edge32" class="edge">
<title>Node5&#45;&gt;Node22</title>
<path fill="none" stroke="midnightblue" d="M507.58,-201.27C509.07,-185.13 514.72,-150.76 536.04,-134 586.06,-94.69 757.01,-106.61 820.04,-98 830.41,-96.58 841.38,-95.03 852.1,-93.48"/>
<polygon fill="midnightblue" stroke="midnightblue" points="852.87,-96.91 862.27,-92.01 851.87,-89.98 852.87,-96.91"/>
</g>
<!-- Node5&#45;&gt;Node23 -->
<g id="edge33" class="edge">
<title>Node5&#45;&gt;Node23</title>
<path fill="none" stroke="midnightblue" d="M511.56,-201.48C520.79,-185.06 543.54,-149.3 574.04,-134 661.53,-90.1 916.1,-111.56 1013.04,-98 1021.05,-96.88 1029.5,-95.44 1037.7,-93.91"/>
<polygon fill="midnightblue" stroke="midnightblue" points="1038.39,-97.34 1047.54,-92 1037.06,-90.47 1038.39,-97.34"/>
</g>
<!-- Node8&#45;&gt;Node4 -->
<g id="edge28" class="edge">
<title>Node8&#45;&gt;Node4</title>
<path fill="none" stroke="midnightblue" d="M410.37,-134.28C396.59,-116.69 371.15,-86.65 344.04,-67 331.01,-57.55 293.82,-40.74 266.94,-29.12"/>
<polygon fill="midnightblue" stroke="midnightblue" points="268.14,-25.83 257.57,-25.1 265.38,-32.26 268.14,-25.83"/>
</g>
<!-- Node9 -->
<g id="node9" class="node">
<title>Node9</title>
<g id="a_node9"><a xlink:title=" ">
<polygon fill="none" stroke="#bfbfbf" points="283.04,-6 283.04,-25 393.04,-25 393.04,-6 283.04,-6"/>
<text text-anchor="middle" x="338.04" y="-13" font-family="Helvetica,sans-Serif" font-size="10.00">highfive/H5File.hpp</text>
</a>
</g>
</g>
<!-- Node8&#45;&gt;Node9 -->
<g id="edge10" class="edge">
<title>Node8&#45;&gt;Node9</title>
<path fill="none" stroke="midnightblue" d="M415.64,-134.33C408.94,-117.57 396.6,-89.15 382.04,-67 373.94,-54.67 363.06,-42.17 354.15,-32.68"/>
<polygon fill="midnightblue" stroke="midnightblue" points="356.41,-29.97 346.95,-25.2 351.37,-34.83 356.41,-29.97"/>
</g>
<!-- Node10 -->
<g id="node10" class="node">
<title>Node10</title>
<g id="a_node10"><a xlink:href="hdf5-core-general_8h.html" target="_top" xlink:title=" ">
<polygon fill="none" stroke="black" points="652.54,-67.5 652.54,-97.5 777.54,-97.5 777.54,-67.5 652.54,-67.5"/>
<text text-anchor="start" x="660.54" y="-85.5" font-family="Helvetica,sans-Serif" font-size="10.00">seerep&#45;hdf5&#45;core/hdf5</text>
<text text-anchor="middle" x="715.04" y="-74.5" font-family="Helvetica,sans-Serif" font-size="10.00">&#45;core&#45;general.h</text>
</a>
</g>
</g>
<!-- Node8&#45;&gt;Node10 -->
<g id="edge11" class="edge">
<title>Node8&#45;&gt;Node10</title>
<path fill="none" stroke="midnightblue" d="M483.75,-134.64C530.29,-124.35 593.86,-110.29 642.58,-99.52"/>
<polygon fill="midnightblue" stroke="midnightblue" points="643.42,-102.92 652.43,-97.34 641.91,-96.08 643.42,-102.92"/>
</g>
<!-- Node13 -->
<g id="node13" class="node">
<title>Node13</title>
<g id="a_node13"><a xlink:title=" ">
<polygon fill="none" stroke="#bfbfbf" points="1212.54,-6 1212.54,-25 1325.54,-25 1325.54,-6 1212.54,-6"/>
<text text-anchor="middle" x="1269.04" y="-13" font-family="Helvetica,sans-Serif" font-size="10.00">boost/geometry.hpp</text>
</a>
</g>
</g>
<!-- Node8&#45;&gt;Node13 -->
<g id="edge27" class="edge">
<title>Node8&#45;&gt;Node13</title>
<path fill="none" stroke="midnightblue" d="M483.67,-138.29C493.17,-136.81 502.86,-135.33 512.04,-134 634.03,-116.3 673.86,-146.82 787.04,-98 807.06,-89.37 804.88,-75.28 825.04,-67 981.15,-2.9 1036.32,-57.15 1203.04,-31 1209.82,-29.94 1216.94,-28.6 1223.9,-27.18"/>
<polygon fill="midnightblue" stroke="midnightblue" points="1224.86,-30.55 1233.91,-25.05 1223.4,-23.71 1224.86,-30.55"/>
</g>
<!-- Node18 -->
<g id="node18" class="node">
<title>Node18</title>
<g id="a_node18"><a xlink:title=" ">
<polygon fill="none" stroke="#bfbfbf" points="434.04,-73 434.04,-92 634.04,-92 634.04,-73 434.04,-73"/>
<text text-anchor="middle" x="534.04" y="-80" font-family="Helvetica,sans-Serif" font-size="10.00">geometry_msgs/TransformStamped.h</text>
</a>
</g>
</g>
<!-- Node8&#45;&gt;Node18 -->
<g id="edge21" class="edge">
<title>Node8&#45;&gt;Node18</title>
<path fill="none" stroke="midnightblue" d="M445.56,-134.4C464.77,-123.34 491.34,-108.06 510.34,-97.13"/>
<polygon fill="midnightblue" stroke="midnightblue" points="512.33,-100.03 519.25,-92.01 508.84,-93.96 512.33,-100.03"/>
</g>
<!-- Node8&#45;&gt;Node19 -->
<g id="edge22" class="edge">
<title>Node8&#45;&gt;Node19</title>
<path fill="none" stroke="midnightblue" d="M358.22,-136.27C295.52,-124.07 200.2,-105.52 140.87,-93.98"/>
<polygon fill="midnightblue" stroke="midnightblue" points="141.43,-90.52 130.95,-92.04 140.09,-97.39 141.43,-90.52"/>
</g>
<!-- Node8&#45;&gt;Node20 -->
<g id="edge23" class="edge">
<title>Node8&#45;&gt;Node20</title>
<path fill="none" stroke="midnightblue" d="M381.55,-134.4C348.91,-122.74 303.09,-106.37 272.3,-95.38"/>
<polygon fill="midnightblue" stroke="midnightblue" points="273.46,-92.07 262.86,-92.01 271.1,-98.67 273.46,-92.07"/>
</g>
<!-- Node8&#45;&gt;Node21 -->
<g id="edge24" class="edge">
<title>Node8&#45;&gt;Node21</title>
<path fill="none" stroke="midnightblue" d="M483.9,-142.07C511.54,-139.37 544.38,-136.32 574.04,-134 833.74,-113.71 901.12,-134.47 1159.04,-98 1165.96,-97.02 1173.24,-95.7 1180.32,-94.24"/>
<polygon fill="midnightblue" stroke="midnightblue" points="1181.46,-97.58 1190.49,-92.05 1179.98,-90.74 1181.46,-97.58"/>
</g>
<!-- Node8&#45;&gt;Node22 -->
<g id="edge25" class="edge">
<title>Node8&#45;&gt;Node22</title>
<path fill="none" stroke="midnightblue" d="M483.59,-136.32C488.47,-135.49 493.33,-134.71 498.04,-134 640.45,-112.66 677.22,-116.44 820.04,-98 830.79,-96.61 842.18,-95.04 853.26,-93.45"/>
<polygon fill="midnightblue" stroke="midnightblue" points="853.93,-96.89 863.33,-92 852.93,-89.97 853.93,-96.89"/>
</g>
<!-- Node8&#45;&gt;Node23 -->
<g id="edge26" class="edge">
<title>Node8&#45;&gt;Node23</title>
<path fill="none" stroke="midnightblue" d="M483.65,-140.03C500.63,-137.89 519.02,-135.71 536.04,-134 747.57,-112.7 802.39,-126.76 1013.04,-98 1021.05,-96.91 1029.51,-95.48 1037.71,-93.95"/>
<polygon fill="midnightblue" stroke="midnightblue" points="1038.39,-97.39 1047.55,-92.05 1037.06,-90.51 1038.39,-97.39"/>
</g>
<!-- Node10&#45;&gt;Node4 -->
<g id="edge17" class="edge">
<title>Node10&#45;&gt;Node4</title>
<path fill="none" stroke="midnightblue" d="M652.28,-68.47C649.16,-67.95 646.07,-67.45 643.04,-67 480.06,-42.7 434.28,-69.43 274.04,-31 271.21,-30.32 268.31,-29.47 265.44,-28.53"/>
<polygon fill="midnightblue" stroke="midnightblue" points="266.52,-25.2 255.92,-25.06 264.12,-31.77 266.52,-25.2"/>
</g>
<!-- Node10&#45;&gt;Node9 -->
<g id="edge12" class="edge">
<title>Node10&#45;&gt;Node9</title>
<path fill="none" stroke="midnightblue" d="M652.25,-68.66C649.14,-68.09 646.06,-67.53 643.04,-67 536.37,-48.3 508.48,-50.98 402.04,-31 396.09,-29.88 389.85,-28.6 383.69,-27.28"/>
<polygon fill="midnightblue" stroke="midnightblue" points="384.01,-23.76 373.49,-25.03 382.5,-30.6 384.01,-23.76"/>
</g>
<!-- Node11 -->
<g id="node11" class="node">
<title>Node11</title>
<g id="a_node11"><a xlink:title=" ">
<polygon fill="none" stroke="#bfbfbf" points="874.04,-6 874.04,-25 990.04,-25 990.04,-6 874.04,-6"/>
<text text-anchor="middle" x="932.04" y="-13" font-family="Helvetica,sans-Serif" font-size="10.00">seerep&#45;msgs/aabb.h</text>
</a>
</g>
</g>
<!-- Node10&#45;&gt;Node11 -->
<g id="edge13" class="edge">
<title>Node10&#45;&gt;Node11</title>
<path fill="none" stroke="midnightblue" d="M761.86,-67.48C801.27,-55.67 856.92,-39 893.72,-27.98"/>
<polygon fill="midnightblue" stroke="midnightblue" points="894.99,-31.25 903.57,-25.03 892.99,-24.55 894.99,-31.25"/>
</g>
<!-- Node12 -->
<g id="node12" class="node">
<title>Node12</title>
<g id="a_node12"><a xlink:title=" ">
<polygon fill="none" stroke="#bfbfbf" points="1008.54,-0.5 1008.54,-30.5 1127.54,-30.5 1127.54,-0.5 1008.54,-0.5"/>
<text text-anchor="start" x="1016.54" y="-18.5" font-family="Helvetica,sans-Serif" font-size="10.00">seerep&#45;msgs/dataset</text>
<text text-anchor="middle" x="1068.04" y="-7.5" font-family="Helvetica,sans-Serif" font-size="10.00">&#45;indexable.h</text>
</a>
</g>
</g>
<!-- Node10&#45;&gt;Node12 -->
<g id="edge14" class="edge">
<title>Node10&#45;&gt;Node12</title>
<path fill="none" stroke="midnightblue" d="M777.64,-69.64C782.51,-68.74 787.36,-67.85 792.04,-67 880.79,-50.93 905.66,-48.74 998.15,-31.13"/>
<polygon fill="midnightblue" stroke="midnightblue" points="999.06,-34.52 1008.23,-29.2 997.75,-27.64 999.06,-34.52"/>
</g>
<!-- Node10&#45;&gt;Node13 -->
<g id="edge15" class="edge">
<title>Node10&#45;&gt;Node13</title>
<path fill="none" stroke="midnightblue" d="M777.57,-69.19C782.46,-68.39 787.33,-67.65 792.04,-67 973.7,-42 1021.79,-58.73 1203.04,-31 1209.9,-29.95 1217.11,-28.61 1224.14,-27.18"/>
<polygon fill="midnightblue" stroke="midnightblue" points="1225.21,-30.53 1234.26,-25.02 1223.75,-23.68 1225.21,-30.53"/>
</g>
<!-- Node14 -->
<g id="node14" class="node">
<title>Node14</title>
<g id="a_node14"><a xlink:title=" ">
<polygon fill="none" stroke="#bfbfbf" points="1146.04,-6 1146.04,-25 1194.04,-25 1194.04,-6 1146.04,-6"/>
<text text-anchor="middle" x="1170.04" y="-13" font-family="Helvetica,sans-Serif" font-size="10.00">mutex</text>
</a>
</g>
</g>
<!-- Node10&#45;&gt;Node14 -->
<g id="edge16" class="edge">
<title>Node10&#45;&gt;Node14</title>
<path fill="none" stroke="midnightblue" d="M777.58,-69.28C782.47,-68.46 787.33,-67.69 792.04,-67 944.59,-44.72 988.02,-70.48 1137.04,-31 1139.34,-30.39 1141.68,-29.64 1144,-28.81"/>
<polygon fill="midnightblue" stroke="midnightblue" points="1145.32,-32.06 1153.28,-25.06 1142.69,-25.57 1145.32,-32.06"/>
</g>
<!-- Node15 -->
<g id="node15" class="node">
<title>Node15</title>
<g id="a_node15"><a xlink:title=" ">
<polygon fill="none" stroke="#bfbfbf" points="411.54,-0.5 411.54,-30.5 556.54,-30.5 556.54,-0.5 411.54,-0.5"/>
<text text-anchor="start" x="419.54" y="-18.5" font-family="Helvetica,sans-Serif" font-size="10.00">boost/log/sources/severity</text>
<text text-anchor="middle" x="484.04" y="-7.5" font-family="Helvetica,sans-Serif" font-size="10.00">_logger.hpp</text>
</a>
</g>
</g>
<!-- Node10&#45;&gt;Node15 -->
<g id="edge18" class="edge">
<title>Node10&#45;&gt;Node15</title>
<path fill="none" stroke="midnightblue" d="M665.2,-67.48C629.65,-57.47 581.67,-43.97 544.02,-33.38"/>
<polygon fill="midnightblue" stroke="midnightblue" points="544.76,-29.95 534.19,-30.61 542.87,-36.69 544.76,-29.95"/>
</g>
<!-- Node16 -->
<g id="node16" class="node">
<title>Node16</title>
<g id="a_node16"><a xlink:title=" ">
<polygon fill="none" stroke="#bfbfbf" points="575.04,-6 575.04,-25 689.04,-25 689.04,-6 575.04,-6"/>
<text text-anchor="middle" x="632.04" y="-13" font-family="Helvetica,sans-Serif" font-size="10.00">boost/log/trivial.hpp</text>
</a>
</g>
</g>
<!-- Node10&#45;&gt;Node16 -->
<g id="edge19" class="edge">
<title>Node10&#45;&gt;Node16</title>
<path fill="none" stroke="midnightblue" d="M697.03,-67.4C683.45,-56.76 664.86,-42.2 651.04,-31.38"/>
<polygon fill="midnightblue" stroke="midnightblue" points="653.18,-28.6 643.14,-25.19 648.86,-34.12 653.18,-28.6"/>
</g>
<!-- Node17 -->
<g id="node17" class="node">
<title>Node17</title>
<g id="a_node17"><a xlink:title=" ">
<polygon fill="none" stroke="#bfbfbf" points="707.54,-6 707.54,-25 856.54,-25 856.54,-6 707.54,-6"/>
<text text-anchor="middle" x="782.04" y="-13" font-family="Helvetica,sans-Serif" font-size="10.00">impl/hdf5&#45;core&#45;general.hpp</text>
</a>
</g>
</g>
<!-- Node10&#45;&gt;Node17 -->
<g id="edge20" class="edge">
<title>Node10&#45;&gt;Node17</title>
<path fill="none" stroke="midnightblue" d="M729.58,-67.4C740.23,-57.06 754.7,-43.02 765.75,-32.31"/>
<polygon fill="midnightblue" stroke="midnightblue" points="768.34,-34.67 773.08,-25.19 763.47,-29.65 768.34,-34.67"/>
</g>
</g>
</svg>
