<?xml version="1.0" encoding="UTF-8" standalone="no"?>
<!DOCTYPE svg PUBLIC "-//W3C//DTD SVG 1.1//EN"
 "http://www.w3.org/Graphics/SVG/1.1/DTD/svg11.dtd">
<!-- Generated by graphviz version 2.43.0 (0)
 -->
<!-- Title: seerep&#45;srv/seerep&#45;core&#45;fb/src/core&#45;fb&#45;image.cpp Pages: 1 -->
<svg width="4663pt" height="564pt"
 viewBox="0.00 0.00 4662.83 564.00" xmlns="http://www.w3.org/2000/svg" xmlns:xlink="http://www.w3.org/1999/xlink">
<g id="graph0" class="graph" transform="scale(1 1) rotate(0) translate(4 560)">
<title>seerep&#45;srv/seerep&#45;core&#45;fb/src/core&#45;fb&#45;image.cpp</title>
<!-- Node1 -->
<g id="node1" class="node">
<title>Node1</title>
<g id="a_node1"><a xlink:title=" ">
<polygon fill="#bfbfbf" stroke="black" points="1835.83,-525.5 1835.83,-555.5 1975.83,-555.5 1975.83,-525.5 1835.83,-525.5"/>
<text text-anchor="start" x="1843.83" y="-543.5" font-family="Helvetica,sans-Serif" font-size="10.00">seerep&#45;srv/seerep&#45;core</text>
<text text-anchor="middle" x="1905.83" y="-532.5" font-family="Helvetica,sans-Serif" font-size="10.00">&#45;fb/src/core&#45;fb&#45;image.cpp</text>
</a>
</g>
</g>
<!-- Node2 -->
<g id="node2" class="node">
<title>Node2</title>
<g id="a_node2"><a xlink:href="core-fb-image_8h.html" target="_top" xlink:title=" ">
<polygon fill="none" stroke="black" points="1849.83,-458.5 1849.83,-488.5 1961.83,-488.5 1961.83,-458.5 1849.83,-458.5"/>
<text text-anchor="start" x="1857.83" y="-476.5" font-family="Helvetica,sans-Serif" font-size="10.00">seerep&#45;core&#45;fb/core</text>
<text text-anchor="middle" x="1905.83" y="-465.5" font-family="Helvetica,sans-Serif" font-size="10.00">&#45;fb&#45;image.h</text>
</a>
</g>
</g>
<!-- Node1&#45;&gt;Node2 -->
<g id="edge1" class="edge">
<title>Node1&#45;&gt;Node2</title>
<path fill="none" stroke="midnightblue" d="M1905.83,-525.4C1905.83,-517.64 1905.83,-507.81 1905.83,-498.86"/>
<polygon fill="midnightblue" stroke="midnightblue" points="1909.33,-498.58 1905.83,-488.58 1902.33,-498.58 1909.33,-498.58"/>
</g>
<!-- Node3 -->
<g id="node3" class="node">
<title>Node3</title>
<g id="a_node3"><a xlink:title=" ">
<polygon fill="none" stroke="#bfbfbf" points="3729.33,-140 3729.33,-159 3794.33,-159 3794.33,-140 3729.33,-140"/>
<text text-anchor="middle" x="3761.83" y="-147" font-family="Helvetica,sans-Serif" font-size="10.00">functional</text>
</a>
</g>
</g>
<!-- Node2&#45;&gt;Node3 -->
<g id="edge2" class="edge">
<title>Node2&#45;&gt;Node3</title>
<path fill="none" stroke="midnightblue" d="M1961.92,-472.94C2221.88,-474.41 3310.38,-473.88 3629.83,-366 3712.04,-338.24 3752.14,-316.51 3771.83,-232 3776.76,-210.79 3772.25,-185.88 3767.8,-169.23"/>
<polygon fill="midnightblue" stroke="midnightblue" points="3771.03,-167.78 3764.85,-159.17 3764.31,-169.75 3771.03,-167.78"/>
</g>
<!-- Node4 -->
<g id="node4" class="node">
<title>Node4</title>
<g id="a_node4"><a xlink:title=" ">
<polygon fill="none" stroke="#bfbfbf" points="2576.83,-6 2576.83,-25 2632.83,-25 2632.83,-6 2576.83,-6"/>
<text text-anchor="middle" x="2604.83" y="-13" font-family="Helvetica,sans-Serif" font-size="10.00">optional</text>
</a>
</g>
</g>
<!-- Node2&#45;&gt;Node4 -->
<g id="edge3" class="edge">
<title>Node2&#45;&gt;Node4</title>
<path fill="none" stroke="midnightblue" d="M1849.81,-472.57C1653.85,-472.39 1006.65,-468.29 926.83,-422 840.03,-371.67 856.34,-298.29 880.83,-201 889.07,-168.22 888.62,-152.63 916.83,-134 986.02,-88.31 2323.06,-36.03 2405.83,-31 2461.69,-27.61 2526.3,-22.72 2566.37,-19.58"/>
<polygon fill="midnightblue" stroke="midnightblue" points="2566.81,-23.06 2576.5,-18.78 2566.26,-16.08 2566.81,-23.06"/>
</g>
<!-- Node5 -->
<g id="node5" class="node">
<title>Node5</title>
<g id="a_node5"><a xlink:href="core-fb-conversion_8h.html" target="_top" xlink:title=" ">
<polygon fill="none" stroke="black" points="1771.33,-207 1771.33,-226 1888.33,-226 1888.33,-207 1771.33,-207"/>
<text text-anchor="middle" x="1829.83" y="-214" font-family="Helvetica,sans-Serif" font-size="10.00">core&#45;fb&#45;conversion.h</text>
</a>
</g>
</g>
<!-- Node2&#45;&gt;Node5 -->
<g id="edge4" class="edge">
<title>Node2&#45;&gt;Node5</title>
<path fill="none" stroke="midnightblue" d="M1885.43,-458.29C1874.16,-449.27 1861.01,-436.56 1853.83,-422 1823,-359.54 1825.2,-273.69 1828,-236.24"/>
<polygon fill="midnightblue" stroke="midnightblue" points="1831.49,-236.51 1828.86,-226.25 1824.52,-235.92 1831.49,-236.51"/>
</g>
<!-- Node7 -->
<g id="node7" class="node">
<title>Node7</title>
<g id="a_node7"><a xlink:title=" ">
<polygon fill="none" stroke="#bfbfbf" points="80.33,-140 80.33,-159 257.33,-159 257.33,-140 80.33,-140"/>
<text text-anchor="middle" x="168.83" y="-147" font-family="Helvetica,sans-Serif" font-size="10.00">seerep&#45;msgs/image_generated.h</text>
</a>
</g>
</g>
<!-- Node2&#45;&gt;Node7 -->
<g id="edge23" class="edge">
<title>Node2&#45;&gt;Node7</title>
<path fill="none" stroke="midnightblue" d="M1849.58,-471.41C1559.26,-465.45 243.83,-433.86 243.83,-351.5 243.83,-351.5 243.83,-351.5 243.83,-282.5 243.83,-235.34 207.2,-189.63 185.13,-166.37"/>
<polygon fill="midnightblue" stroke="midnightblue" points="187.52,-163.81 178.02,-159.12 182.52,-168.71 187.52,-163.81"/>
</g>
<!-- Node8 -->
<g id="node8" class="node">
<title>Node8</title>
<g id="a_node8"><a xlink:title=" ">
<polygon fill="none" stroke="#bfbfbf" points="1036.83,-140 1036.83,-159 1210.83,-159 1210.83,-140 1036.83,-140"/>
<text text-anchor="middle" x="1123.83" y="-147" font-family="Helvetica,sans-Serif" font-size="10.00">seerep&#45;msgs/query_generated.h</text>
</a>
</g>
</g>
<!-- Node2&#45;&gt;Node8 -->
<g id="edge24" class="edge">
<title>Node2&#45;&gt;Node8</title>
<path fill="none" stroke="midnightblue" d="M1849.63,-471.35C1661.03,-467.21 1060.91,-451.76 1032.83,-422 961.51,-346.44 1067.28,-213.31 1108.53,-166.96"/>
<polygon fill="midnightblue" stroke="midnightblue" points="1111.31,-169.11 1115.43,-159.35 1106.12,-164.41 1111.31,-169.11"/>
</g>
<!-- Node13 -->
<g id="node13" class="node">
<title>Node13</title>
<g id="a_node13"><a xlink:title=" ">
<polygon fill="none" stroke="#bfbfbf" points="1934.33,-140 1934.33,-159 2085.33,-159 2085.33,-140 1934.33,-140"/>
<text text-anchor="middle" x="2009.83" y="-147" font-family="Helvetica,sans-Serif" font-size="10.00">seerep&#45;msgs/query&#45;result.h</text>
</a>
</g>
</g>
<!-- Node2&#45;&gt;Node13 -->
<g id="edge25" class="edge">
<title>Node2&#45;&gt;Node13</title>
<path fill="none" stroke="midnightblue" d="M1905.21,-458.32C1904.23,-424.3 1904.51,-335.82 1929.83,-268 1944.84,-227.79 1976.37,-187.99 1995.05,-166.59"/>
<polygon fill="midnightblue" stroke="midnightblue" points="1997.7,-168.88 2001.75,-159.09 1992.48,-164.22 1997.7,-168.88"/>
</g>
<!-- Node15 -->
<g id="node15" class="node">
<title>Node15</title>
<g id="a_node15"><a xlink:title=" ">
<polygon fill="none" stroke="#bfbfbf" points="2323.83,-140 2323.83,-159 2441.83,-159 2441.83,-140 2323.83,-140"/>
<text text-anchor="middle" x="2382.83" y="-147" font-family="Helvetica,sans-Serif" font-size="10.00">seerep&#45;msgs/query.h</text>
</a>
</g>
</g>
<!-- Node2&#45;&gt;Node15 -->
<g id="edge26" class="edge">
<title>Node2&#45;&gt;Node15</title>
<path fill="none" stroke="midnightblue" d="M1925.2,-458.39C1959.91,-433.2 2035.13,-378.99 2099.83,-335 2195.77,-269.76 2312.41,-195.18 2360.48,-164.65"/>
<polygon fill="midnightblue" stroke="midnightblue" points="2362.58,-167.46 2369.15,-159.15 2358.83,-161.55 2362.58,-167.46"/>
</g>
<!-- Node17 -->
<g id="node17" class="node">
<title>Node17</title>
<g id="a_node17"><a xlink:title=" ">
<polygon fill="none" stroke="#bfbfbf" points="2048.33,-73 2048.33,-92 2191.33,-92 2191.33,-73 2048.33,-73"/>
<text text-anchor="middle" x="2119.83" y="-80" font-family="Helvetica,sans-Serif" font-size="10.00">boost/functional/hash.hpp</text>
</a>
</g>
</g>
<!-- Node2&#45;&gt;Node17 -->
<g id="edge167" class="edge">
<title>Node2&#45;&gt;Node17</title>
<path fill="none" stroke="midnightblue" d="M1849.45,-470.01C1619.66,-458.09 777.62,-395.98 1027.83,-134 1057.86,-102.55 1766.38,-100.02 1809.83,-98 1887.19,-94.41 1975.42,-90.28 2037.91,-87.35"/>
<polygon fill="midnightblue" stroke="midnightblue" points="2038.28,-90.83 2048.1,-86.87 2037.95,-83.84 2038.28,-90.83"/>
</g>
<!-- Node18 -->
<g id="node18" class="node">
<title>Node18</title>
<g id="a_node18"><a xlink:title=" ">
<polygon fill="none" stroke="#bfbfbf" points="3012.33,-73 3012.33,-92 3137.33,-92 3137.33,-73 3012.33,-73"/>
<text text-anchor="middle" x="3074.83" y="-80" font-family="Helvetica,sans-Serif" font-size="10.00">boost/lexical_cast.hpp</text>
</a>
</g>
</g>
<!-- Node2&#45;&gt;Node18 -->
<g id="edge168" class="edge">
<title>Node2&#45;&gt;Node18</title>
<path fill="none" stroke="midnightblue" d="M1961.89,-469.07C2132.18,-457.9 2631.83,-419.34 2631.83,-351.5 2631.83,-351.5 2631.83,-351.5 2631.83,-282.5 2631.83,-98.49 2884.86,-279.61 3028.83,-165 3049.44,-148.59 3062.4,-120.26 3069.12,-101.71"/>
<polygon fill="midnightblue" stroke="midnightblue" points="3072.49,-102.67 3072.38,-92.07 3065.86,-100.43 3072.49,-102.67"/>
</g>
<!-- Node19 -->
<g id="node19" class="node">
<title>Node19</title>
<g id="a_node19"><a xlink:title=" ">
<polygon fill="none" stroke="#bfbfbf" points="3445.33,-6 3445.33,-25 3558.33,-25 3558.33,-6 3445.33,-6"/>
<text text-anchor="middle" x="3501.83" y="-13" font-family="Helvetica,sans-Serif" font-size="10.00">boost/uuid/uuid.hpp</text>
</a>
</g>
</g>
<!-- Node2&#45;&gt;Node19 -->
<g id="edge169" class="edge">
<title>Node2&#45;&gt;Node19</title>
<path fill="none" stroke="midnightblue" d="M1962,-472.04C2238.03,-469.64 3452.46,-457.24 3828.83,-422 4032.7,-402.91 4150.96,-463.56 4272.83,-299 4316.58,-239.91 4310.87,-187.87 4260.83,-134 4220.83,-90.94 4202.89,-84.63 4146.83,-67 4040.53,-33.57 3711.56,-21.62 3568.93,-17.94"/>
<polygon fill="midnightblue" stroke="midnightblue" points="3568.66,-14.43 3558.58,-17.68 3568.48,-21.43 3568.66,-14.43"/>
</g>
<!-- Node20 -->
<g id="node20" class="node">
<title>Node20</title>
<g id="a_node20"><a xlink:title=" ">
<polygon fill="none" stroke="#bfbfbf" points="3307.83,-73 3307.83,-92 3477.83,-92 3477.83,-73 3307.83,-73"/>
<text text-anchor="middle" x="3392.83" y="-80" font-family="Helvetica,sans-Serif" font-size="10.00">boost/uuid/uuid_generators.hpp</text>
</a>
</g>
</g>
<!-- Node2&#45;&gt;Node20 -->
<g id="edge170" class="edge">
<title>Node2&#45;&gt;Node20</title>
<path fill="none" stroke="midnightblue" d="M1961.91,-472.94C2262.35,-474.83 3683.45,-477.64 4105.83,-366 4174.07,-347.96 4211.87,-358.52 4249.83,-299 4278.14,-254.59 4297.8,-200.39 4217.83,-134 4155.25,-82.06 3567.73,-106.21 3486.83,-98 3475.52,-96.85 3463.49,-95.27 3451.96,-93.58"/>
<polygon fill="midnightblue" stroke="midnightblue" points="3452.39,-90.1 3441.98,-92.07 3451.34,-97.02 3452.39,-90.1"/>
</g>
<!-- Node21 -->
<g id="node21" class="node">
<title>Node21</title>
<g id="a_node21"><a xlink:title=" ">
<polygon fill="none" stroke="#bfbfbf" points="1674.33,-73 1674.33,-92 1801.33,-92 1801.33,-73 1674.33,-73"/>
<text text-anchor="middle" x="1737.83" y="-80" font-family="Helvetica,sans-Serif" font-size="10.00">boost/uuid/uuid_io.hpp</text>
</a>
</g>
</g>
<!-- Node2&#45;&gt;Node21 -->
<g id="edge171" class="edge">
<title>Node2&#45;&gt;Node21</title>
<path fill="none" stroke="midnightblue" d="M1849.61,-472.72C1679.58,-472.87 1172.83,-469.22 1015.83,-422 956.22,-404.08 894.83,-413.74 894.83,-351.5 894.83,-351.5 894.83,-351.5 894.83,-215.5 894.83,-155.72 945.87,-155.04 1001.83,-134 1062.65,-111.12 1489.63,-92.78 1663.96,-86.16"/>
<polygon fill="midnightblue" stroke="midnightblue" points="1664.21,-89.65 1674.07,-85.78 1663.95,-82.66 1664.21,-89.65"/>
</g>
<!-- Node22 -->
<g id="node22" class="node">
<title>Node22</title>
<g id="a_node22"><a xlink:href="hdf5-fb-image_8h.html" target="_top" xlink:title=" ">
<polygon fill="none" stroke="black" points="606.33,-201.5 606.33,-231.5 719.33,-231.5 719.33,-201.5 606.33,-201.5"/>
<text text-anchor="start" x="614.33" y="-219.5" font-family="Helvetica,sans-Serif" font-size="10.00">seerep&#45;hdf5&#45;fb/hdf5</text>
<text text-anchor="middle" x="662.83" y="-208.5" font-family="Helvetica,sans-Serif" font-size="10.00">&#45;fb&#45;image.h</text>
</a>
</g>
</g>
<!-- Node2&#45;&gt;Node22 -->
<g id="edge27" class="edge">
<title>Node2&#45;&gt;Node22</title>
<path fill="none" stroke="midnightblue" d="M1849.59,-472.81C1637.92,-473.61 896.57,-472.7 804.83,-422 731.65,-381.56 687.98,-285.48 671.01,-240.93"/>
<polygon fill="midnightblue" stroke="midnightblue" points="674.28,-239.67 667.53,-231.51 667.71,-242.1 674.28,-239.67"/>
</g>
<!-- Node30 -->
<g id="node30" class="node">
<title>Node30</title>
<g id="a_node30"><a xlink:title=" ">
<polygon fill="none" stroke="#bfbfbf" points="4193.33,-0.5 4193.33,-30.5 4338.33,-30.5 4338.33,-0.5 4193.33,-0.5"/>
<text text-anchor="start" x="4201.33" y="-18.5" font-family="Helvetica,sans-Serif" font-size="10.00">boost/log/sources/severity</text>
<text text-anchor="middle" x="4265.83" y="-7.5" font-family="Helvetica,sans-Serif" font-size="10.00">_logger.hpp</text>
</a>
</g>
</g>
<!-- Node2&#45;&gt;Node30 -->
<g id="edge172" class="edge">
<title>Node2&#45;&gt;Node30</title>
<path fill="none" stroke="midnightblue" d="M1962.06,-471.83C2252.6,-468.23 3586.13,-450.46 3998.83,-422 4136.72,-412.49 4616.83,-489.72 4616.83,-351.5 4616.83,-351.5 4616.83,-351.5 4616.83,-215.5 4616.83,-92.8 4452.49,-44.84 4348.71,-26.79"/>
<polygon fill="midnightblue" stroke="midnightblue" points="4348.99,-23.29 4338.55,-25.09 4347.84,-30.19 4348.99,-23.29"/>
</g>
<!-- Node31 -->
<g id="node31" class="node">
<title>Node31</title>
<g id="a_node31"><a xlink:title=" ">
<polygon fill="none" stroke="#bfbfbf" points="4419.83,-6 4419.83,-25 4533.83,-25 4533.83,-6 4419.83,-6"/>
<text text-anchor="middle" x="4476.83" y="-13" font-family="Helvetica,sans-Serif" font-size="10.00">boost/log/trivial.hpp</text>
</a>
</g>
</g>
<!-- Node2&#45;&gt;Node31 -->
<g id="edge173" class="edge">
<title>Node2&#45;&gt;Node31</title>
<path fill="none" stroke="midnightblue" d="M1962.07,-472.46C2277.43,-472.06 3828.86,-467.76 4304.83,-422 4462.78,-406.82 4654.83,-510.18 4654.83,-351.5 4654.83,-351.5 4654.83,-351.5 4654.83,-148.5 4654.83,-81.82 4573.23,-44.92 4520.52,-28.04"/>
<polygon fill="midnightblue" stroke="midnightblue" points="4521.31,-24.62 4510.72,-25.03 4519.25,-31.31 4521.31,-24.62"/>
</g>
<!-- Node40 -->
<g id="node40" class="node">
<title>Node40</title>
<g id="a_node40"><a xlink:href="core_8h.html" target="_top" xlink:title=" ">
<polygon fill="none" stroke="black" points="2956.33,-402.5 2956.33,-421.5 3063.33,-421.5 3063.33,-402.5 2956.33,-402.5"/>
<text text-anchor="middle" x="3009.83" y="-409.5" font-family="Helvetica,sans-Serif" font-size="10.00">seerep&#45;core/core.h</text>
</a>
</g>
</g>
<!-- Node2&#45;&gt;Node40 -->
<g id="edge73" class="edge">
<title>Node2&#45;&gt;Node40</title>
<path fill="none" stroke="midnightblue" d="M1962.09,-469.47C2149.01,-459.39 2748.57,-427.08 2946.07,-416.44"/>
<polygon fill="midnightblue" stroke="midnightblue" points="2946.48,-419.92 2956.28,-415.89 2946.11,-412.93 2946.48,-419.92"/>
</g>
<!-- Node5&#45;&gt;Node3 -->
<g id="edge5" class="edge">
<title>Node5&#45;&gt;Node3</title>
<path fill="none" stroke="midnightblue" d="M1888.53,-215.2C2112.13,-213.77 2931.93,-205.86 3605.83,-165 3644.24,-162.67 3687.85,-158.49 3719.18,-155.21"/>
<polygon fill="midnightblue" stroke="midnightblue" points="3719.73,-158.67 3729.3,-154.14 3718.99,-151.71 3719.73,-158.67"/>
</g>
<!-- Node5&#45;&gt;Node4 -->
<g id="edge6" class="edge">
<title>Node5&#45;&gt;Node4</title>
<path fill="none" stroke="midnightblue" d="M1834.29,-206.65C1848.84,-178.99 1898.02,-94.34 1967.83,-67 1974.85,-64.25 2430.09,-29.69 2566.57,-19.38"/>
<polygon fill="midnightblue" stroke="midnightblue" points="2566.86,-22.87 2576.57,-18.63 2566.34,-15.89 2566.86,-22.87"/>
</g>
<!-- Node6 -->
<g id="node6" class="node">
<title>Node6</title>
<g id="a_node6"><a xlink:title=" ">
<polygon fill="none" stroke="#bfbfbf" points="156.33,-73 156.33,-92 255.33,-92 255.33,-73 156.33,-73"/>
<text text-anchor="middle" x="205.83" y="-80" font-family="Helvetica,sans-Serif" font-size="10.00">flatbuffers/grpc.h</text>
</a>
</g>
</g>
<!-- Node5&#45;&gt;Node6 -->
<g id="edge7" class="edge">
<title>Node5&#45;&gt;Node6</title>
<path fill="none" stroke="midnightblue" d="M1771.22,-215.36C1536.09,-214.49 668.38,-208.37 553.83,-165 533.44,-157.28 535.74,-142.86 515.83,-134 419.68,-91.24 385.52,-115.86 281.83,-98 274.46,-96.73 266.71,-95.33 259.09,-93.91"/>
<polygon fill="midnightblue" stroke="midnightblue" points="259.66,-90.46 249.18,-92.05 258.36,-97.34 259.66,-90.46"/>
</g>
<!-- Node5&#45;&gt;Node7 -->
<g id="edge8" class="edge">
<title>Node5&#45;&gt;Node7</title>
<path fill="none" stroke="midnightblue" d="M1771.18,-215.12C1567.89,-213.46 874.65,-205.05 303.83,-165 286.05,-163.75 267,-161.98 248.99,-160.1"/>
<polygon fill="midnightblue" stroke="midnightblue" points="249.12,-156.59 238.81,-159.01 248.38,-163.55 249.12,-156.59"/>
</g>
<!-- Node5&#45;&gt;Node8 -->
<g id="edge9" class="edge">
<title>Node5&#45;&gt;Node8</title>
<path fill="none" stroke="midnightblue" d="M1771.31,-211.77C1663.18,-204.63 1424.86,-187.69 1224.83,-165 1213.32,-163.7 1201.11,-162.11 1189.3,-160.48"/>
<polygon fill="midnightblue" stroke="midnightblue" points="1189.44,-156.96 1179.05,-159.03 1188.47,-163.89 1189.44,-156.96"/>
</g>
<!-- Node9 -->
<g id="node9" class="node">
<title>Node9</title>
<g id="a_node9"><a xlink:title=" ">
<polygon fill="none" stroke="#bfbfbf" points="1343.33,-134.5 1343.33,-164.5 1474.33,-164.5 1474.33,-134.5 1343.33,-134.5"/>
<text text-anchor="start" x="1351.33" y="-152.5" font-family="Helvetica,sans-Serif" font-size="10.00">seerep&#45;msgs/transform</text>
<text text-anchor="middle" x="1408.83" y="-141.5" font-family="Helvetica,sans-Serif" font-size="10.00">_stamped_generated.h</text>
</a>
</g>
</g>
<!-- Node5&#45;&gt;Node9 -->
<g id="edge10" class="edge">
<title>Node5&#45;&gt;Node9</title>
<path fill="none" stroke="midnightblue" d="M1771.05,-207.84C1704.02,-198.9 1590.9,-183.21 1484.51,-165.24"/>
<polygon fill="midnightblue" stroke="midnightblue" points="1485.01,-161.78 1474.56,-163.55 1483.83,-168.68 1485.01,-161.78"/>
</g>
<!-- Node10 -->
<g id="node10" class="node">
<title>Node10</title>
<g id="a_node10"><a xlink:title=" ">
<polygon fill="none" stroke="#bfbfbf" points="1492.33,-134.5 1492.33,-164.5 1653.33,-164.5 1653.33,-134.5 1492.33,-134.5"/>
<text text-anchor="start" x="1500.33" y="-152.5" font-family="Helvetica,sans-Serif" font-size="10.00">seerep&#45;msgs/transform</text>
<text text-anchor="middle" x="1572.83" y="-141.5" font-family="Helvetica,sans-Serif" font-size="10.00">_stamped_query_generated.h</text>
</a>
</g>
</g>
<!-- Node5&#45;&gt;Node10 -->
<g id="edge11" class="edge">
<title>Node5&#45;&gt;Node10</title>
<path fill="none" stroke="midnightblue" d="M1795.96,-206.94C1755.97,-196.82 1688.52,-179.76 1638.23,-167.04"/>
<polygon fill="midnightblue" stroke="midnightblue" points="1638.97,-163.62 1628.41,-164.56 1637.25,-170.4 1638.97,-163.62"/>
</g>
<!-- Node11 -->
<g id="node11" class="node">
<title>Node11</title>
<g id="a_node11"><a xlink:title=" ">
<polygon fill="none" stroke="#bfbfbf" points="1671.83,-134.5 1671.83,-164.5 1801.83,-164.5 1801.83,-134.5 1671.83,-134.5"/>
<text text-anchor="start" x="1679.83" y="-152.5" font-family="Helvetica,sans-Serif" font-size="10.00">seerep&#45;msgs/uuids_per</text>
<text text-anchor="middle" x="1736.83" y="-141.5" font-family="Helvetica,sans-Serif" font-size="10.00">_project_generated.h</text>
</a>
</g>
</g>
<!-- Node5&#45;&gt;Node11 -->
<g id="edge12" class="edge">
<title>Node5&#45;&gt;Node11</title>
<path fill="none" stroke="midnightblue" d="M1817.28,-206.73C1804.11,-197.53 1782.94,-182.73 1765.63,-170.63"/>
<polygon fill="midnightblue" stroke="midnightblue" points="1767.19,-167.45 1756.98,-164.59 1763.18,-173.19 1767.19,-167.45"/>
</g>
<!-- Node12 -->
<g id="node12" class="node">
<title>Node12</title>
<g id="a_node12"><a xlink:title=" ">
<polygon fill="none" stroke="#bfbfbf" points="1770.33,-0.5 1770.33,-30.5 1889.33,-30.5 1889.33,-0.5 1770.33,-0.5"/>
<text text-anchor="start" x="1778.33" y="-18.5" font-family="Helvetica,sans-Serif" font-size="10.00">seerep&#45;msgs/dataset</text>
<text text-anchor="middle" x="1829.83" y="-7.5" font-family="Helvetica,sans-Serif" font-size="10.00">&#45;indexable.h</text>
</a>
</g>
</g>
<!-- Node5&#45;&gt;Node12 -->
<g id="edge13" class="edge">
<title>Node5&#45;&gt;Node12</title>
<path fill="none" stroke="midnightblue" d="M1771.3,-213.86C1646.39,-209.74 1362.69,-196.95 1333.83,-165 1211.33,-29.4 1596.15,-15.52 1759.81,-15.55"/>
<polygon fill="midnightblue" stroke="midnightblue" points="1760.26,-19.05 1770.27,-15.57 1760.28,-12.05 1760.26,-19.05"/>
</g>
<!-- Node5&#45;&gt;Node13 -->
<g id="edge14" class="edge">
<title>Node5&#45;&gt;Node13</title>
<path fill="none" stroke="midnightblue" d="M1853.73,-206.87C1885.28,-195.47 1941,-175.35 1976.63,-162.49"/>
<polygon fill="midnightblue" stroke="midnightblue" points="1977.89,-165.75 1986.11,-159.06 1975.52,-159.17 1977.89,-165.75"/>
</g>
<!-- Node14 -->
<g id="node14" class="node">
<title>Node14</title>
<g id="a_node14"><a xlink:title=" ">
<polygon fill="none" stroke="#bfbfbf" points="4078.83,-140 4078.83,-159 4208.83,-159 4208.83,-140 4078.83,-140"/>
<text text-anchor="middle" x="4143.83" y="-147" font-family="Helvetica,sans-Serif" font-size="10.00">seerep&#45;msgs/query&#45;tf.h</text>
</a>
</g>
</g>
<!-- Node5&#45;&gt;Node14 -->
<g id="edge15" class="edge">
<title>Node5&#45;&gt;Node14</title>
<path fill="none" stroke="midnightblue" d="M1888.37,-214.37C2126.69,-209.68 3047.06,-190.82 3803.83,-165 3894.81,-161.9 3999.45,-157.28 4068.34,-154.09"/>
<polygon fill="midnightblue" stroke="midnightblue" points="4068.83,-157.57 4078.66,-153.61 4068.51,-150.58 4068.83,-157.57"/>
</g>
<!-- Node5&#45;&gt;Node15 -->
<g id="edge16" class="edge">
<title>Node5&#45;&gt;Node15</title>
<path fill="none" stroke="midnightblue" d="M1888.69,-211.4C1980.22,-204.57 2162.02,-189.18 2314.83,-165 2321.71,-163.91 2328.96,-162.57 2336.04,-161.16"/>
<polygon fill="midnightblue" stroke="midnightblue" points="2337.17,-164.5 2346.26,-159.04 2335.75,-157.64 2337.17,-164.5"/>
</g>
<!-- Node16 -->
<g id="node16" class="node">
<title>Node16</title>
<g id="a_node16"><a xlink:title=" ">
<polygon fill="none" stroke="#bfbfbf" points="3495.83,-73 3495.83,-92 3695.83,-92 3695.83,-73 3495.83,-73"/>
<text text-anchor="middle" x="3595.83" y="-80" font-family="Helvetica,sans-Serif" font-size="10.00">geometry_msgs/TransformStamped.h</text>
</a>
</g>
</g>
<!-- Node5&#45;&gt;Node16 -->
<g id="edge17" class="edge">
<title>Node5&#45;&gt;Node16</title>
<path fill="none" stroke="midnightblue" d="M1888.41,-214.91C2120.55,-212.35 2976.17,-200.65 3244.83,-165 3360.5,-149.65 3493.94,-113.4 3557.86,-94.86"/>
<polygon fill="midnightblue" stroke="midnightblue" points="3558.89,-98.2 3567.5,-92.04 3556.92,-91.49 3558.89,-98.2"/>
</g>
<!-- Node5&#45;&gt;Node17 -->
<g id="edge18" class="edge">
<title>Node5&#45;&gt;Node17</title>
<path fill="none" stroke="midnightblue" d="M1838.81,-206.95C1858.74,-188.15 1906.43,-144.08 1925.83,-134 1964.24,-114.04 2011.12,-101.55 2049.18,-93.99"/>
<polygon fill="midnightblue" stroke="midnightblue" points="2049.99,-97.4 2059.15,-92.08 2048.67,-90.52 2049.99,-97.4"/>
</g>
<!-- Node5&#45;&gt;Node18 -->
<g id="edge19" class="edge">
<title>Node5&#45;&gt;Node18</title>
<path fill="none" stroke="midnightblue" d="M1888.71,-214.16C2118.53,-208.76 2944.94,-187.85 2995.83,-165 3026.1,-151.4 3050.74,-120.42 3064.05,-100.81"/>
<polygon fill="midnightblue" stroke="midnightblue" points="3067.12,-102.51 3069.65,-92.22 3061.25,-98.69 3067.12,-102.51"/>
</g>
<!-- Node5&#45;&gt;Node19 -->
<g id="edge20" class="edge">
<title>Node5&#45;&gt;Node19</title>
<path fill="none" stroke="midnightblue" d="M1888.66,-215.4C2098.12,-214.65 2806.81,-208.88 3028.83,-165 3154.06,-140.25 3176.72,-104.24 3298.83,-67 3350.65,-51.19 3411.02,-36.66 3452.37,-27.28"/>
<polygon fill="midnightblue" stroke="midnightblue" points="3453.21,-30.68 3462.2,-25.07 3451.67,-23.85 3453.21,-30.68"/>
</g>
<!-- Node5&#45;&gt;Node20 -->
<g id="edge21" class="edge">
<title>Node5&#45;&gt;Node20</title>
<path fill="none" stroke="midnightblue" d="M1888.61,-215.87C2114.72,-216.88 2928.33,-216.76 3180.83,-165 3250.98,-150.62 3328.29,-115.63 3367.3,-96.5"/>
<polygon fill="midnightblue" stroke="midnightblue" points="3368.96,-99.59 3376.36,-92.01 3365.85,-93.32 3368.96,-99.59"/>
</g>
<!-- Node5&#45;&gt;Node21 -->
<g id="edge22" class="edge">
<title>Node5&#45;&gt;Node21</title>
<path fill="none" stroke="midnightblue" d="M1829.79,-206.84C1829.33,-191.02 1826.43,-156.94 1810.83,-134 1799.92,-117.96 1782.09,-105.49 1766.78,-96.95"/>
<polygon fill="midnightblue" stroke="midnightblue" points="1768.14,-93.71 1757.66,-92.14 1764.87,-99.9 1768.14,-93.71"/>
</g>
<!-- Node22&#45;&gt;Node4 -->
<g id="edge71" class="edge">
<title>Node22&#45;&gt;Node4</title>
<path fill="none" stroke="midnightblue" d="M701.4,-201.4C726.4,-191.9 759.46,-178.65 787.83,-165 813.11,-152.83 816.32,-143.21 842.83,-134 940.57,-100.06 970.66,-114.33 1072.83,-98 1157.31,-84.5 1177.66,-75.25 1262.83,-67 1768.71,-17.97 1898.26,-57.47 2405.83,-31 2461.72,-28.08 2526.32,-23.07 2566.38,-19.77"/>
<polygon fill="midnightblue" stroke="midnightblue" points="2566.83,-23.25 2576.51,-18.93 2566.25,-16.27 2566.83,-23.25"/>
</g>
<!-- Node22&#45;&gt;Node6 -->
<g id="edge72" class="edge">
<title>Node22&#45;&gt;Node6</title>
<path fill="none" stroke="midnightblue" d="M606.02,-209.24C511.81,-198.6 330.88,-176.97 303.83,-165 301.49,-163.97 251.42,-121.92 223.77,-98.64"/>
<polygon fill="midnightblue" stroke="midnightblue" points="225.9,-95.85 215.99,-92.08 221.39,-101.2 225.9,-95.85"/>
</g>
<!-- Node22&#45;&gt;Node7 -->
<g id="edge67" class="edge">
<title>Node22&#45;&gt;Node7</title>
<path fill="none" stroke="midnightblue" d="M606.32,-208.46C530.11,-198.9 390.16,-181.17 270.83,-165 260.17,-163.56 248.9,-161.99 237.89,-160.44"/>
<polygon fill="midnightblue" stroke="midnightblue" points="238.26,-156.96 227.87,-159.03 237.28,-163.89 238.26,-156.96"/>
</g>
<!-- Node23 -->
<g id="node23" class="node">
<title>Node23</title>
<g id="a_node23"><a xlink:title=" ">
<polygon fill="none" stroke="#bfbfbf" points="2286.83,-6 2286.83,-25 2396.83,-25 2396.83,-6 2286.83,-6"/>
<text text-anchor="middle" x="2341.83" y="-13" font-family="Helvetica,sans-Serif" font-size="10.00">highfive/H5File.hpp</text>
</a>
</g>
</g>
<!-- Node22&#45;&gt;Node23 -->
<g id="edge28" class="edge">
<title>Node22&#45;&gt;Node23</title>
<path fill="none" stroke="midnightblue" d="M681.93,-201.45C708.21,-182.87 757.62,-150.57 804.83,-134 903.28,-99.45 940.29,-137.6 1036.83,-98 1058.62,-89.06 1057.52,-74.58 1079.83,-67 1205.93,-24.18 2145.72,-47.79 2277.83,-31 2285.05,-30.08 2292.66,-28.72 2300.01,-27.19"/>
<polygon fill="midnightblue" stroke="midnightblue" points="2300.8,-30.6 2309.81,-25.02 2299.29,-23.76 2300.8,-30.6"/>
</g>
<!-- Node24 -->
<g id="node24" class="node">
<title>Node24</title>
<g id="a_node24"><a xlink:href="hdf5-core-image_8h.html" target="_top" xlink:title=" ">
<polygon fill="none" stroke="black" points="2180.33,-134.5 2180.33,-164.5 2305.33,-164.5 2305.33,-134.5 2180.33,-134.5"/>
<text text-anchor="start" x="2188.33" y="-152.5" font-family="Helvetica,sans-Serif" font-size="10.00">seerep&#45;hdf5&#45;core/hdf5</text>
<text text-anchor="middle" x="2242.83" y="-141.5" font-family="Helvetica,sans-Serif" font-size="10.00">&#45;core&#45;image.h</text>
</a>
</g>
</g>
<!-- Node22&#45;&gt;Node24 -->
<g id="edge29" class="edge">
<title>Node22&#45;&gt;Node24</title>
<path fill="none" stroke="midnightblue" d="M719.51,-214.77C912.34,-212.02 1560.54,-200.56 2094.83,-165 2119.39,-163.36 2146.2,-160.94 2170.16,-158.53"/>
<polygon fill="midnightblue" stroke="midnightblue" points="2170.65,-162 2180.25,-157.5 2169.94,-155.04 2170.65,-162"/>
</g>
<!-- Node28 -->
<g id="node28" class="node">
<title>Node28</title>
<g id="a_node28"><a xlink:title=" ">
<polygon fill="none" stroke="#bfbfbf" points="2155.33,-6 2155.33,-25 2268.33,-25 2268.33,-6 2155.33,-6"/>
<text text-anchor="middle" x="2211.83" y="-13" font-family="Helvetica,sans-Serif" font-size="10.00">boost/geometry.hpp</text>
</a>
</g>
</g>
<!-- Node22&#45;&gt;Node28 -->
<g id="edge70" class="edge">
<title>Node22&#45;&gt;Node28</title>
<path fill="none" stroke="midnightblue" d="M670.71,-201.21C681.49,-182.97 702.53,-151.67 728.83,-134 739.52,-126.82 938.11,-69.09 950.83,-67 1187.99,-27.95 1791.86,-44.65 2031.83,-31 2069.27,-28.87 2111.02,-25.56 2144.88,-22.65"/>
<polygon fill="midnightblue" stroke="midnightblue" points="2145.47,-26.11 2155.12,-21.76 2144.86,-19.14 2145.47,-26.11"/>
</g>
<!-- Node33 -->
<g id="node33" class="node">
<title>Node33</title>
<g id="a_node33"><a xlink:href="hdf5-fb-general_8h.html" target="_top" xlink:title=" ">
<polygon fill="none" stroke="black" points="563.33,-134.5 563.33,-164.5 676.33,-164.5 676.33,-134.5 563.33,-134.5"/>
<text text-anchor="start" x="571.33" y="-152.5" font-family="Helvetica,sans-Serif" font-size="10.00">seerep&#45;hdf5&#45;fb/hdf5</text>
<text text-anchor="middle" x="619.83" y="-141.5" font-family="Helvetica,sans-Serif" font-size="10.00">&#45;fb&#45;general.h</text>
</a>
</g>
</g>
<!-- Node22&#45;&gt;Node33 -->
<g id="edge53" class="edge">
<title>Node22&#45;&gt;Node33</title>
<path fill="none" stroke="midnightblue" d="M653.5,-201.4C648.03,-193.13 641,-182.51 634.78,-173.1"/>
<polygon fill="midnightblue" stroke="midnightblue" points="637.57,-170.99 629.14,-164.58 631.74,-174.85 637.57,-170.99"/>
</g>
<!-- Node36 -->
<g id="node36" class="node">
<title>Node36</title>
<g id="a_node36"><a xlink:title=" ">
<polygon fill="none" stroke="#bfbfbf" points="43.33,-73 43.33,-92 138.33,-92 138.33,-73 43.33,-73"/>
<text text-anchor="middle" x="90.83" y="-80" font-family="Helvetica,sans-Serif" font-size="10.00">grpcpp/grpcpp.h</text>
</a>
</g>
</g>
<!-- Node22&#45;&gt;Node36 -->
<g id="edge69" class="edge">
<title>Node22&#45;&gt;Node36</title>
<path fill="none" stroke="midnightblue" d="M606.21,-210.31C575.35,-207.51 536.5,-204.01 501.83,-201 453.95,-196.84 103.36,-200.37 70.83,-165 54.7,-147.47 67.33,-119.09 78.56,-100.87"/>
<polygon fill="midnightblue" stroke="midnightblue" points="81.58,-102.65 84.15,-92.37 75.73,-98.8 81.58,-102.65"/>
</g>
<!-- Node39 -->
<g id="node39" class="node">
<title>Node39</title>
<g id="a_node39"><a xlink:title=" ">
<polygon fill="none" stroke="#bfbfbf" points="312.83,-140 312.83,-159 506.83,-159 506.83,-140 312.83,-140"/>
<text text-anchor="middle" x="409.83" y="-147" font-family="Helvetica,sans-Serif" font-size="10.00">seerep&#45;com/image_service.grpc.fb.h</text>
</a>
</g>
</g>
<!-- Node22&#45;&gt;Node39 -->
<g id="edge68" class="edge">
<title>Node22&#45;&gt;Node39</title>
<path fill="none" stroke="midnightblue" d="M608.24,-201.48C561.71,-189.52 495.74,-172.57 452.87,-161.56"/>
<polygon fill="midnightblue" stroke="midnightblue" points="453.58,-158.13 443.02,-159.03 451.84,-164.91 453.58,-158.13"/>
</g>
<!-- Node24&#45;&gt;Node4 -->
<g id="edge47" class="edge">
<title>Node24&#45;&gt;Node4</title>
<path fill="none" stroke="midnightblue" d="M2180.21,-134.88C2122.23,-121.96 2044.29,-103.71 2039.83,-98 2031.34,-87.15 2030.53,-77.17 2039.83,-67 2048.75,-57.25 2440.26,-28.32 2566.22,-19.25"/>
<polygon fill="midnightblue" stroke="midnightblue" points="2566.82,-22.72 2576.55,-18.51 2566.32,-15.74 2566.82,-22.72"/>
</g>
<!-- Node24&#45;&gt;Node12 -->
<g id="edge45" class="edge">
<title>Node24&#45;&gt;Node12</title>
<path fill="none" stroke="midnightblue" d="M2180.25,-136.49C2175.37,-135.62 2170.52,-134.78 2165.83,-134 2056.4,-115.73 2019.05,-145.56 1918.83,-98 1889.81,-84.23 1863.63,-57.72 1847.29,-38.67"/>
<polygon fill="midnightblue" stroke="midnightblue" points="1849.8,-36.21 1840.71,-30.77 1844.42,-40.69 1849.8,-36.21"/>
</g>
<!-- Node24&#45;&gt;Node17 -->
<g id="edge48" class="edge">
<title>Node24&#45;&gt;Node17</title>
<path fill="none" stroke="midnightblue" d="M2216.14,-134.4C2194.94,-123.19 2165.51,-107.64 2144.78,-96.69"/>
<polygon fill="midnightblue" stroke="midnightblue" points="2146.4,-93.58 2135.92,-92.01 2143.13,-99.77 2146.4,-93.58"/>
</g>
<!-- Node24&#45;&gt;Node18 -->
<g id="edge49" class="edge">
<title>Node24&#45;&gt;Node18</title>
<path fill="none" stroke="midnightblue" d="M2305.57,-135.33C2308.69,-134.84 2311.79,-134.39 2314.83,-134 2582.83,-99.24 2652.37,-118.75 2921.83,-98 2947.9,-95.99 2976.43,-93.4 3001.71,-90.96"/>
<polygon fill="midnightblue" stroke="midnightblue" points="3002.35,-94.41 3011.97,-89.96 3001.68,-87.45 3002.35,-94.41"/>
</g>
<!-- Node24&#45;&gt;Node19 -->
<g id="edge50" class="edge">
<title>Node24&#45;&gt;Node19</title>
<path fill="none" stroke="midnightblue" d="M2305.58,-135.42C2308.7,-134.91 2311.8,-134.43 2314.83,-134 2501.17,-107.38 2550.07,-121.57 2736.83,-98 2819.54,-87.56 2839.12,-77.51 2921.83,-67 3107.11,-43.45 3327.11,-27.58 3435.17,-20.58"/>
<polygon fill="midnightblue" stroke="midnightblue" points="3435.52,-24.07 3445.27,-19.93 3435.07,-17.08 3435.52,-24.07"/>
</g>
<!-- Node24&#45;&gt;Node20 -->
<g id="edge51" class="edge">
<title>Node24&#45;&gt;Node20</title>
<path fill="none" stroke="midnightblue" d="M2305.56,-135.25C2308.68,-134.78 2311.79,-134.36 2314.83,-134 2730.42,-84.53 2838.38,-128.04 3255.83,-98 3273.74,-96.71 3292.93,-94.93 3311.11,-93.06"/>
<polygon fill="midnightblue" stroke="midnightblue" points="3311.51,-96.53 3321.09,-92.01 3310.78,-89.57 3311.51,-96.53"/>
</g>
<!-- Node24&#45;&gt;Node21 -->
<g id="edge52" class="edge">
<title>Node24&#45;&gt;Node21</title>
<path fill="none" stroke="midnightblue" d="M2180.28,-136.27C2175.4,-135.45 2170.54,-134.68 2165.83,-134 2011.07,-111.51 1970.6,-120.31 1815.83,-98 1807.5,-96.8 1798.7,-95.35 1790.14,-93.83"/>
<polygon fill="midnightblue" stroke="midnightblue" points="1790.69,-90.37 1780.23,-92.03 1789.44,-97.26 1790.69,-90.37"/>
</g>
<!-- Node24&#45;&gt;Node23 -->
<g id="edge30" class="edge">
<title>Node24&#45;&gt;Node23</title>
<path fill="none" stroke="midnightblue" d="M2180.28,-136.16C2111.01,-122.36 2008.62,-101.45 2005.83,-98 1997.16,-87.29 1996.74,-77.36 2005.83,-67 2046.01,-21.15 2217.81,-41.75 2277.83,-31 2284.01,-29.89 2290.49,-28.59 2296.87,-27.23"/>
<polygon fill="midnightblue" stroke="midnightblue" points="2297.72,-30.62 2306.73,-25.06 2296.21,-23.79 2297.72,-30.62"/>
</g>
<!-- Node25 -->
<g id="node25" class="node">
<title>Node25</title>
<g id="a_node25"><a xlink:href="hdf5-core-datatype-interface_8h.html" target="_top" xlink:title=" ">
<polygon fill="none" stroke="black" points="2324.33,-67.5 2324.33,-97.5 2469.33,-97.5 2469.33,-67.5 2324.33,-67.5"/>
<text text-anchor="start" x="2332.33" y="-85.5" font-family="Helvetica,sans-Serif" font-size="10.00">seerep&#45;hdf5&#45;core/hdf5</text>
<text text-anchor="middle" x="2396.83" y="-74.5" font-family="Helvetica,sans-Serif" font-size="10.00">&#45;core&#45;datatype&#45;interface.h</text>
</a>
</g>
</g>
<!-- Node24&#45;&gt;Node25 -->
<g id="edge31" class="edge">
<title>Node24&#45;&gt;Node25</title>
<path fill="none" stroke="midnightblue" d="M2276.24,-134.4C2299.05,-124.77 2329.45,-111.94 2354.03,-101.56"/>
<polygon fill="midnightblue" stroke="midnightblue" points="2355.62,-104.69 2363.48,-97.58 2352.9,-98.24 2355.62,-104.69"/>
</g>
<!-- Node26 -->
<g id="node26" class="node">
<title>Node26</title>
<g id="a_node26"><a xlink:href="hdf5-core-general_8h.html" target="_top" xlink:title=" ">
<polygon fill="none" stroke="black" points="2602.33,-67.5 2602.33,-97.5 2727.33,-97.5 2727.33,-67.5 2602.33,-67.5"/>
<text text-anchor="start" x="2610.33" y="-85.5" font-family="Helvetica,sans-Serif" font-size="10.00">seerep&#45;hdf5&#45;core/hdf5</text>
<text text-anchor="middle" x="2664.83" y="-74.5" font-family="Helvetica,sans-Serif" font-size="10.00">&#45;core&#45;general.h</text>
</a>
</g>
</g>
<!-- Node24&#45;&gt;Node26 -->
<g id="edge35" class="edge">
<title>Node24&#45;&gt;Node26</title>
<path fill="none" stroke="midnightblue" d="M2305.62,-135.64C2308.73,-135.07 2311.81,-134.52 2314.83,-134 2410.26,-117.52 2520.97,-102.17 2591.9,-92.82"/>
<polygon fill="midnightblue" stroke="midnightblue" points="2592.61,-96.26 2602.07,-91.49 2591.7,-89.32 2592.61,-96.26"/>
</g>
<!-- Node24&#45;&gt;Node28 -->
<g id="edge46" class="edge">
<title>Node24&#45;&gt;Node28</title>
<path fill="none" stroke="midnightblue" d="M2180.24,-136.53C2175.37,-135.65 2170.52,-134.8 2165.83,-134 2113.53,-125.09 1964.39,-138.24 1929.83,-98 1920.85,-87.55 1920.98,-77.57 1929.83,-67 1943.53,-50.62 2065.83,-33.48 2144.8,-23.98"/>
<polygon fill="midnightblue" stroke="midnightblue" points="2145.65,-27.41 2155.17,-22.75 2144.82,-20.45 2145.65,-27.41"/>
</g>
<!-- Node25&#45;&gt;Node4 -->
<g id="edge34" class="edge">
<title>Node25&#45;&gt;Node4</title>
<path fill="none" stroke="midnightblue" d="M2441.7,-67.48C2479.31,-55.72 2532.37,-39.14 2567.64,-28.12"/>
<polygon fill="midnightblue" stroke="midnightblue" points="2569.03,-31.35 2577.53,-25.03 2566.94,-24.67 2569.03,-31.35"/>
</g>
<!-- Node25&#45;&gt;Node12 -->
<g id="edge32" class="edge">
<title>Node25&#45;&gt;Node12</title>
<path fill="none" stroke="midnightblue" d="M2324.15,-73.17C2214.44,-60.59 2007.87,-36.91 1899.78,-24.52"/>
<polygon fill="midnightblue" stroke="midnightblue" points="1899.97,-21.02 1889.64,-23.36 1899.17,-27.97 1899.97,-21.02"/>
</g>
<!-- Node25&#45;&gt;Node19 -->
<g id="edge33" class="edge">
<title>Node25&#45;&gt;Node19</title>
<path fill="none" stroke="midnightblue" d="M2469.78,-75.82C2506.91,-73.01 2552.76,-69.65 2593.83,-67 2908.59,-46.66 3285.07,-27.31 3435.24,-19.79"/>
<polygon fill="midnightblue" stroke="midnightblue" points="3435.41,-23.29 3445.23,-19.29 3435.06,-16.3 3435.41,-23.29"/>
</g>
<!-- Node26&#45;&gt;Node4 -->
<g id="edge41" class="edge">
<title>Node26&#45;&gt;Node4</title>
<path fill="none" stroke="midnightblue" d="M2651.81,-67.4C2642.36,-57.16 2629.56,-43.3 2619.71,-32.62"/>
<polygon fill="midnightblue" stroke="midnightblue" points="2622.21,-30.17 2612.85,-25.19 2617.06,-34.92 2622.21,-30.17"/>
</g>
<!-- Node26&#45;&gt;Node12 -->
<g id="edge38" class="edge">
<title>Node26&#45;&gt;Node12</title>
<path fill="none" stroke="midnightblue" d="M2601.99,-76.48C2565.94,-73.63 2519.85,-70.04 2478.83,-67 2250.89,-50.12 2193.5,-51.12 1965.83,-31 1944.18,-29.09 1920.63,-26.69 1899.31,-24.4"/>
<polygon fill="midnightblue" stroke="midnightblue" points="1899.68,-20.92 1889.36,-23.32 1898.93,-27.88 1899.68,-20.92"/>
</g>
<!-- Node26&#45;&gt;Node23 -->
<g id="edge36" class="edge">
<title>Node26&#45;&gt;Node23</title>
<path fill="none" stroke="midnightblue" d="M2602.16,-68.89C2541.59,-56.7 2450.88,-38.45 2394.09,-27.02"/>
<polygon fill="midnightblue" stroke="midnightblue" points="2394.73,-23.58 2384.24,-25.03 2393.35,-30.44 2394.73,-23.58"/>
</g>
<!-- Node27 -->
<g id="node27" class="node">
<title>Node27</title>
<g id="a_node27"><a xlink:title=" ">
<polygon fill="none" stroke="#bfbfbf" points="3931.83,-6 3931.83,-25 4047.83,-25 4047.83,-6 3931.83,-6"/>
<text text-anchor="middle" x="3989.83" y="-13" font-family="Helvetica,sans-Serif" font-size="10.00">seerep&#45;msgs/aabb.h</text>
</a>
</g>
</g>
<!-- Node26&#45;&gt;Node27 -->
<g id="edge37" class="edge">
<title>Node26&#45;&gt;Node27</title>
<path fill="none" stroke="midnightblue" d="M2727.4,-78.43C2948.42,-67.59 3691.51,-31.13 3921.44,-19.85"/>
<polygon fill="midnightblue" stroke="midnightblue" points="3921.86,-23.34 3931.67,-19.35 3921.51,-16.35 3921.86,-23.34"/>
</g>
<!-- Node26&#45;&gt;Node28 -->
<g id="edge39" class="edge">
<title>Node26&#45;&gt;Node28</title>
<path fill="none" stroke="midnightblue" d="M2602.27,-69.34C2597.39,-68.51 2592.53,-67.72 2587.83,-67 2450.7,-46.15 2414.62,-53.91 2277.83,-31 2271.22,-29.89 2264.27,-28.56 2257.47,-27.15"/>
<polygon fill="midnightblue" stroke="midnightblue" points="2258.17,-23.72 2247.66,-25.06 2256.71,-30.57 2258.17,-23.72"/>
</g>
<!-- Node29 -->
<g id="node29" class="node">
<title>Node29</title>
<g id="a_node29"><a xlink:title=" ">
<polygon fill="none" stroke="#bfbfbf" points="1974.83,-6 1974.83,-25 2022.83,-25 2022.83,-6 1974.83,-6"/>
<text text-anchor="middle" x="1998.83" y="-13" font-family="Helvetica,sans-Serif" font-size="10.00">mutex</text>
</a>
</g>
</g>
<!-- Node26&#45;&gt;Node29 -->
<g id="edge40" class="edge">
<title>Node26&#45;&gt;Node29</title>
<path fill="none" stroke="midnightblue" d="M2602.23,-75.41C2504.85,-65.93 2311.17,-47.06 2146.83,-31 2107.75,-27.18 2062.87,-22.78 2032.88,-19.84"/>
<polygon fill="midnightblue" stroke="midnightblue" points="2033.22,-16.36 2022.92,-18.86 2032.53,-23.32 2033.22,-16.36"/>
</g>
<!-- Node26&#45;&gt;Node30 -->
<g id="edge42" class="edge">
<title>Node26&#45;&gt;Node30</title>
<path fill="none" stroke="midnightblue" d="M2727.61,-78.65C2795.65,-75.61 2907.44,-70.71 3003.83,-67 3471.75,-48.99 3589.18,-55.21 4056.83,-31 4098.51,-28.84 4144.81,-25.71 4183.22,-22.9"/>
<polygon fill="midnightblue" stroke="midnightblue" points="4183.6,-26.38 4193.32,-22.16 4183.09,-19.4 4183.6,-26.38"/>
</g>
<!-- Node26&#45;&gt;Node31 -->
<g id="edge43" class="edge">
<title>Node26&#45;&gt;Node31</title>
<path fill="none" stroke="midnightblue" d="M2727.61,-78.51C2795.65,-75.35 2907.42,-70.35 3003.83,-67 3601.01,-46.23 3751.71,-72.41 4347.83,-31 4367.93,-29.6 4389.73,-27.41 4409.58,-25.15"/>
<polygon fill="midnightblue" stroke="midnightblue" points="4410.24,-28.6 4419.77,-23.97 4409.43,-21.65 4410.24,-28.6"/>
</g>
<!-- Node32 -->
<g id="node32" class="node">
<title>Node32</title>
<g id="a_node32"><a xlink:title=" ">
<polygon fill="none" stroke="#bfbfbf" points="2650.33,-6 2650.33,-25 2799.33,-25 2799.33,-6 2650.33,-6"/>
<text text-anchor="middle" x="2724.83" y="-13" font-family="Helvetica,sans-Serif" font-size="10.00">impl/hdf5&#45;core&#45;general.hpp</text>
</a>
</g>
</g>
<!-- Node26&#45;&gt;Node32 -->
<g id="edge44" class="edge">
<title>Node26&#45;&gt;Node32</title>
<path fill="none" stroke="midnightblue" d="M2677.84,-67.4C2687.29,-57.16 2700.09,-43.3 2709.94,-32.62"/>
<polygon fill="midnightblue" stroke="midnightblue" points="2712.59,-34.92 2716.8,-25.19 2707.45,-30.17 2712.59,-34.92"/>
</g>
<!-- Node33&#45;&gt;Node4 -->
<g id="edge63" class="edge">
<title>Node33&#45;&gt;Node4</title>
<path fill="none" stroke="midnightblue" d="M676.52,-139.93C743.89,-129.4 852.07,-111.3 890.83,-98 919.22,-88.26 921.75,-74.45 950.83,-67 1107.48,-26.86 2244.3,-38.88 2405.83,-31 2461.72,-28.27 2526.33,-23.21 2566.38,-19.85"/>
<polygon fill="midnightblue" stroke="midnightblue" points="2566.84,-23.32 2576.51,-18.99 2566.25,-16.35 2566.84,-23.32"/>
</g>
<!-- Node33&#45;&gt;Node6 -->
<g id="edge59" class="edge">
<title>Node33&#45;&gt;Node6</title>
<path fill="none" stroke="midnightblue" d="M563.31,-136.57C558.42,-135.66 553.54,-134.78 548.83,-134 425.49,-113.48 392.93,-119.84 269.83,-98 263.57,-96.89 257,-95.58 250.55,-94.2"/>
<polygon fill="midnightblue" stroke="midnightblue" points="251.1,-90.73 240.58,-92 249.59,-97.57 251.1,-90.73"/>
</g>
<!-- Node33&#45;&gt;Node23 -->
<g id="edge54" class="edge">
<title>Node33&#45;&gt;Node23</title>
<path fill="none" stroke="midnightblue" d="M676.48,-137.24C720.13,-128.08 781.8,-114.06 834.83,-98 872.51,-86.59 879.17,-74.51 917.83,-67 1214.6,-9.32 1977.84,-68.58 2277.83,-31 2285.05,-30.09 2292.66,-28.74 2300.01,-27.21"/>
<polygon fill="midnightblue" stroke="midnightblue" points="2300.8,-30.62 2309.81,-25.05 2299.29,-23.78 2300.8,-30.62"/>
</g>
<!-- Node33&#45;&gt;Node26 -->
<g id="edge55" class="edge">
<title>Node33&#45;&gt;Node26</title>
<path fill="none" stroke="midnightblue" d="M676.58,-146.29C755.39,-143.27 902.43,-137.78 1027.83,-134 1672.62,-114.54 1834.59,-131.08 2478.83,-98 2516.05,-96.09 2557.4,-92.96 2591.64,-90.11"/>
<polygon fill="midnightblue" stroke="midnightblue" points="2592.36,-93.56 2602.03,-89.23 2591.77,-86.58 2592.36,-93.56"/>
</g>
<!-- Node33&#45;&gt;Node28 -->
<g id="edge60" class="edge">
<title>Node33&#45;&gt;Node28</title>
<path fill="none" stroke="midnightblue" d="M676.59,-134.78C720.46,-123.75 777.24,-108.42 798.83,-98 820.04,-87.76 819.52,-74.58 841.83,-67 967.08,-24.46 1899.75,-38.31 2031.83,-31 2069.27,-28.93 2111.03,-25.62 2144.89,-22.7"/>
<polygon fill="midnightblue" stroke="midnightblue" points="2145.47,-26.16 2155.13,-21.8 2144.86,-19.18 2145.47,-26.16"/>
</g>
<!-- Node33&#45;&gt;Node29 -->
<g id="edge62" class="edge">
<title>Node33&#45;&gt;Node29</title>
<path fill="none" stroke="midnightblue" d="M563.3,-136.66C558.41,-135.72 553.53,-134.82 548.83,-134 437.21,-114.45 223.61,-148.03 302.83,-67 333.81,-35.31 1853.66,-34.66 1897.83,-31 1920.12,-29.15 1945,-25.6 1964.49,-22.47"/>
<polygon fill="midnightblue" stroke="midnightblue" points="1965.13,-25.92 1974.43,-20.84 1963.99,-19.01 1965.13,-25.92"/>
</g>
<!-- Node33&#45;&gt;Node30 -->
<g id="edge64" class="edge">
<title>Node33&#45;&gt;Node30</title>
<path fill="none" stroke="midnightblue" d="M676.58,-146.15C755.38,-142.96 902.41,-137.29 1027.83,-134 1498.62,-121.64 2678.67,-149.27 3146.83,-98 3215.36,-90.49 3230.41,-75.55 3298.83,-67 3633.49,-25.18 3720.13,-50.67 4056.83,-31 4098.49,-28.57 4144.79,-25.4 4183.21,-22.65"/>
<polygon fill="midnightblue" stroke="midnightblue" points="4183.58,-26.13 4193.31,-21.92 4183.08,-19.15 4183.58,-26.13"/>
</g>
<!-- Node33&#45;&gt;Node31 -->
<g id="edge65" class="edge">
<title>Node33&#45;&gt;Node31</title>
<path fill="none" stroke="midnightblue" d="M676.58,-146.09C755.38,-142.83 902.41,-137.07 1027.83,-134 2217.35,-104.87 2516.99,-167.73 3704.83,-98 3966.09,-82.66 4275.2,-43.7 4409.24,-25.78"/>
<polygon fill="midnightblue" stroke="midnightblue" points="4409.91,-29.22 4419.35,-24.42 4408.98,-22.28 4409.91,-29.22"/>
</g>
<!-- Node34 -->
<g id="node34" class="node">
<title>Node34</title>
<g id="a_node34"><a xlink:title=" ">
<polygon fill="none" stroke="#bfbfbf" points="311.83,-67.5 311.83,-97.5 469.83,-97.5 469.83,-67.5 311.83,-67.5"/>
<text text-anchor="start" x="319.83" y="-85.5" font-family="Helvetica,sans-Serif" font-size="10.00">seerep&#45;msgs/boundingbox2d</text>
<text text-anchor="middle" x="390.83" y="-74.5" font-family="Helvetica,sans-Serif" font-size="10.00">_labeled_generated.h</text>
</a>
</g>
</g>
<!-- Node33&#45;&gt;Node34 -->
<g id="edge56" class="edge">
<title>Node33&#45;&gt;Node34</title>
<path fill="none" stroke="midnightblue" d="M570.42,-134.48C535.17,-124.47 487.61,-110.97 450.28,-100.38"/>
<polygon fill="midnightblue" stroke="midnightblue" points="451.12,-96.97 440.54,-97.61 449.2,-103.71 451.12,-96.97"/>
</g>
<!-- Node35 -->
<g id="node35" class="node">
<title>Node35</title>
<g id="a_node35"><a xlink:title=" ">
<polygon fill="none" stroke="#bfbfbf" points="487.83,-67.5 487.83,-97.5 633.83,-97.5 633.83,-67.5 487.83,-67.5"/>
<text text-anchor="start" x="495.83" y="-85.5" font-family="Helvetica,sans-Serif" font-size="10.00">seerep&#45;msgs/boundingbox</text>
<text text-anchor="middle" x="560.83" y="-74.5" font-family="Helvetica,sans-Serif" font-size="10.00">_labeled_generated.h</text>
</a>
</g>
</g>
<!-- Node33&#45;&gt;Node35 -->
<g id="edge57" class="edge">
<title>Node33&#45;&gt;Node35</title>
<path fill="none" stroke="midnightblue" d="M607.02,-134.4C599.29,-125.88 589.28,-114.85 580.55,-105.23"/>
<polygon fill="midnightblue" stroke="midnightblue" points="582.92,-102.63 573.6,-97.58 577.73,-107.33 582.92,-102.63"/>
</g>
<!-- Node33&#45;&gt;Node36 -->
<g id="edge58" class="edge">
<title>Node33&#45;&gt;Node36</title>
<path fill="none" stroke="midnightblue" d="M563.21,-140.17C547.85,-138.03 531.21,-135.82 515.83,-134 352.19,-114.62 309.08,-126.74 146.83,-98 141.39,-97.04 135.7,-95.82 130.12,-94.5"/>
<polygon fill="midnightblue" stroke="midnightblue" points="130.83,-91.07 120.28,-92.05 129.14,-97.86 130.83,-91.07"/>
</g>
<!-- Node37 -->
<g id="node37" class="node">
<title>Node37</title>
<g id="a_node37"><a xlink:title=" ">
<polygon fill="none" stroke="#bfbfbf" points="959.83,-73 959.83,-92 1027.83,-92 1027.83,-73 959.83,-73"/>
<text text-anchor="middle" x="993.83" y="-80" font-family="Helvetica,sans-Serif" font-size="10.00">filesystem</text>
</a>
</g>
</g>
<!-- Node33&#45;&gt;Node37 -->
<g id="edge61" class="edge">
<title>Node33&#45;&gt;Node37</title>
<path fill="none" stroke="midnightblue" d="M676.33,-140.72C755.59,-129.64 895.7,-109.39 945.83,-98 949.77,-97.1 953.87,-96.05 957.93,-94.94"/>
<polygon fill="midnightblue" stroke="midnightblue" points="959.21,-98.21 967.84,-92.07 957.27,-91.48 959.21,-98.21"/>
</g>
<!-- Node38 -->
<g id="node38" class="node">
<title>Node38</title>
<g id="a_node38"><a xlink:title=" ">
<polygon fill="none" stroke="#bfbfbf" points="651.83,-73 651.83,-92 789.83,-92 789.83,-73 651.83,-73"/>
<text text-anchor="middle" x="720.83" y="-80" font-family="Helvetica,sans-Serif" font-size="10.00">impl/hdf5&#45;fb&#45;general.hpp</text>
</a>
</g>
</g>
<!-- Node33&#45;&gt;Node38 -->
<g id="edge66" class="edge">
<title>Node33&#45;&gt;Node38</title>
<path fill="none" stroke="midnightblue" d="M641.74,-134.4C658.68,-123.5 682.01,-108.48 698.94,-97.58"/>
<polygon fill="midnightblue" stroke="midnightblue" points="701.09,-100.36 707.61,-92.01 697.3,-94.48 701.09,-100.36"/>
</g>
<!-- Node40&#45;&gt;Node3 -->
<g id="edge80" class="edge">
<title>Node40&#45;&gt;Node3</title>
<path fill="none" stroke="midnightblue" d="M3063.57,-407.9C3208.23,-398.72 3602.13,-367.88 3709.83,-299 3740.04,-279.67 3742.91,-265.83 3754.83,-232 3762.03,-211.54 3763.13,-186.48 3762.84,-169.59"/>
<polygon fill="midnightblue" stroke="midnightblue" points="3766.33,-169.24 3762.48,-159.37 3759.34,-169.48 3766.33,-169.24"/>
</g>
<!-- Node40&#45;&gt;Node4 -->
<g id="edge81" class="edge">
<title>Node40&#45;&gt;Node4</title>
<path fill="none" stroke="midnightblue" d="M2956.13,-409.11C2762.82,-401.61 2113.83,-370.07 2113.83,-284.5 2113.83,-284.5 2113.83,-284.5 2113.83,-215.5 2113.83,-178.31 2117.34,-163.6 2094.83,-134 2074.6,-107.41 2045.88,-126.73 2028.83,-98 2021.79,-86.15 2019.52,-77.16 2028.83,-67 2033.39,-62.02 2438.22,-29.65 2566.38,-19.53"/>
<polygon fill="midnightblue" stroke="midnightblue" points="2566.82,-23 2576.52,-18.73 2566.27,-16.02 2566.82,-23"/>
</g>
<!-- Node40&#45;&gt;Node12 -->
<g id="edge82" class="edge">
<title>Node40&#45;&gt;Node12</title>
<path fill="none" stroke="midnightblue" d="M2956.3,-410.46C2690.7,-407.69 1512.36,-393.98 1146.83,-366 894.7,-346.7 154.68,-383.16 26.83,-165 4.66,-127.19 -14.73,-98.42 15.83,-67 46.77,-35.18 1429.81,-20.24 1759.71,-17.13"/>
<polygon fill="midnightblue" stroke="midnightblue" points="1760.12,-20.62 1770.08,-17.03 1760.05,-13.62 1760.12,-20.62"/>
</g>
<!-- Node40&#45;&gt;Node13 -->
<g id="edge84" class="edge">
<title>Node40&#45;&gt;Node13</title>
<path fill="none" stroke="midnightblue" d="M2956,-409.92C2765.83,-405.88 2134.98,-390.69 2099.83,-366 2032.96,-319.04 2015.6,-212.47 2011.23,-169.24"/>
<polygon fill="midnightblue" stroke="midnightblue" points="2014.7,-168.7 2010.33,-159.04 2007.73,-169.31 2014.7,-168.7"/>
</g>
<!-- Node40&#45;&gt;Node14 -->
<g id="edge85" class="edge">
<title>Node40&#45;&gt;Node14</title>
<path fill="none" stroke="midnightblue" d="M3063.42,-410.43C3245.16,-408.2 3831.02,-398.54 3908.83,-366 4013.5,-322.23 4101.2,-210.41 4132.01,-167.56"/>
<polygon fill="midnightblue" stroke="midnightblue" points="4134.94,-169.48 4137.86,-159.3 4129.22,-165.44 4134.94,-169.48"/>
</g>
<!-- Node40&#45;&gt;Node15 -->
<g id="edge86" class="edge">
<title>Node40&#45;&gt;Node15</title>
<path fill="none" stroke="midnightblue" d="M2988.72,-402.41C2966.56,-393.39 2930.72,-378.76 2899.83,-366 2714.51,-289.47 2492.34,-196.43 2412.89,-163.11"/>
<polygon fill="midnightblue" stroke="midnightblue" points="2414.07,-159.81 2403.49,-159.17 2411.36,-166.27 2414.07,-159.81"/>
</g>
<!-- Node40&#45;&gt;Node16 -->
<g id="edge87" class="edge">
<title>Node40&#45;&gt;Node16</title>
<path fill="none" stroke="midnightblue" d="M3063.34,-411.19C3299.5,-411.32 4236.83,-404.29 4236.83,-284.5 4236.83,-284.5 4236.83,-284.5 4236.83,-215.5 4236.83,-178.31 4246,-158.28 4217.83,-134 4215.43,-131.93 3884.23,-105.91 3706.17,-92.05"/>
<polygon fill="midnightblue" stroke="midnightblue" points="3706.22,-88.55 3695.98,-91.26 3705.67,-95.52 3706.22,-88.55"/>
</g>
<!-- Node40&#45;&gt;Node17 -->
<g id="edge74" class="edge">
<title>Node40&#45;&gt;Node17</title>
<path fill="none" stroke="midnightblue" d="M2956.24,-410C2783.01,-406.51 2239.31,-393.61 2065.83,-366 2024.18,-359.37 1359.39,-198.54 1333.83,-165 1325.47,-154.04 1324.4,-144.05 1333.83,-134 1345.77,-121.26 1839.34,-96.69 2038.13,-87.29"/>
<polygon fill="midnightblue" stroke="midnightblue" points="2038.4,-90.78 2048.23,-86.81 2038.07,-83.78 2038.4,-90.78"/>
</g>
<!-- Node40&#45;&gt;Node18 -->
<g id="edge75" class="edge">
<title>Node40&#45;&gt;Node18</title>
<path fill="none" stroke="midnightblue" d="M3015.5,-402.42C3021.04,-393.64 3029.28,-379.42 3033.83,-366 3062.85,-280.25 3055.06,-254.76 3066.83,-165 3069.65,-143.47 3071.95,-118.61 3073.35,-102.07"/>
<polygon fill="midnightblue" stroke="midnightblue" points="3076.84,-102.34 3074.17,-92.09 3069.86,-101.77 3076.84,-102.34"/>
</g>
<!-- Node40&#45;&gt;Node19 -->
<g id="edge76" class="edge">
<title>Node40&#45;&gt;Node19</title>
<path fill="none" stroke="midnightblue" d="M3063.41,-410.03C3269.45,-406.15 4004.16,-390.69 4105.83,-366 4174.42,-349.34 4211.87,-358.52 4249.83,-299 4273.4,-262.02 4315.85,-221.25 4234.83,-134 4145.31,-37.6 3732.45,-20.23 3568.85,-17.14"/>
<polygon fill="midnightblue" stroke="midnightblue" points="3568.5,-13.64 3558.44,-16.96 3568.38,-20.64 3568.5,-13.64"/>
</g>
<!-- Node40&#45;&gt;Node20 -->
<g id="edge77" class="edge">
<title>Node40&#45;&gt;Node20</title>
<path fill="none" stroke="midnightblue" d="M3063.35,-410.11C3214.31,-406.51 3638.9,-388.48 3738.83,-299 3797.54,-246.42 3856.32,-192.79 3803.83,-134 3756.61,-81.12 3557.1,-107.41 3486.83,-98 3476.66,-96.64 3465.88,-95.08 3455.4,-93.51"/>
<polygon fill="midnightblue" stroke="midnightblue" points="3455.88,-90.04 3445.47,-92 3454.83,-96.96 3455.88,-90.04"/>
</g>
<!-- Node40&#45;&gt;Node21 -->
<g id="edge78" class="edge">
<title>Node40&#45;&gt;Node21</title>
<path fill="none" stroke="midnightblue" d="M2956.25,-410.89C2798.46,-410.1 2321.87,-404.47 1928.83,-366 1541.21,-328.06 1391.47,-441 1062.83,-232 1022.38,-206.28 985.14,-169.06 1017.83,-134 1039.63,-110.61 1484.59,-92.41 1663.9,-86"/>
<polygon fill="midnightblue" stroke="midnightblue" points="1664.16,-89.49 1674.03,-85.64 1663.92,-82.49 1664.16,-89.49"/>
</g>
<!-- Node40&#45;&gt;Node30 -->
<g id="edge165" class="edge">
<title>Node40&#45;&gt;Node30</title>
<path fill="none" stroke="midnightblue" d="M3063.61,-410.67C3278.46,-409.12 4068.7,-401.07 4174.83,-366 4224.92,-349.45 4248.09,-345.6 4272.83,-299 4318.36,-213.24 4289.3,-91.23 4273.77,-40.28"/>
<polygon fill="midnightblue" stroke="midnightblue" points="4277.04,-39.01 4270.7,-30.53 4270.37,-41.12 4277.04,-39.01"/>
</g>
<!-- Node40&#45;&gt;Node31 -->
<g id="edge166" class="edge">
<title>Node40&#45;&gt;Node31</title>
<path fill="none" stroke="midnightblue" d="M3063.43,-411.27C3284.17,-412.06 4116.31,-411.95 4223.83,-366 4372.63,-302.41 4450.45,-97.26 4471.13,-34.75"/>
<polygon fill="midnightblue" stroke="midnightblue" points="4474.51,-35.69 4474.24,-25.09 4467.84,-33.54 4474.51,-35.69"/>
</g>
<!-- Node40&#45;&gt;Node37 -->
<g id="edge79" class="edge">
<title>Node40&#45;&gt;Node37</title>
<path fill="none" stroke="midnightblue" d="M2956.13,-410.76C2682.51,-409.37 1449.64,-401.21 1282.83,-366 1154.85,-338.99 1097.47,-337.98 1020.83,-232 992.37,-192.65 990.96,-132.45 992.36,-102.21"/>
<polygon fill="midnightblue" stroke="midnightblue" points="995.85,-102.39 992.98,-92.19 988.87,-101.96 995.85,-102.39"/>
</g>
<!-- Node41 -->
<g id="node41" class="node">
<title>Node41</title>
<g id="a_node41"><a xlink:title=" ">
<polygon fill="none" stroke="#bfbfbf" points="2908.83,-335.5 2908.83,-365.5 3024.83,-365.5 3024.83,-335.5 2908.83,-335.5"/>
<text text-anchor="start" x="2916.83" y="-353.5" font-family="Helvetica,sans-Serif" font-size="10.00">seerep&#45;msgs/project</text>
<text text-anchor="middle" x="2966.83" y="-342.5" font-family="Helvetica,sans-Serif" font-size="10.00">&#45;info.h</text>
</a>
</g>
</g>
<!-- Node40&#45;&gt;Node41 -->
<g id="edge83" class="edge">
<title>Node40&#45;&gt;Node41</title>
<path fill="none" stroke="midnightblue" d="M3003.66,-402.48C2998.28,-395.02 2990.21,-383.85 2982.99,-373.87"/>
<polygon fill="midnightblue" stroke="midnightblue" points="2985.65,-371.58 2976.96,-365.52 2979.98,-375.68 2985.65,-371.58"/>
</g>
<!-- Node42 -->
<g id="node42" class="node">
<title>Node42</title>
<g id="a_node42"><a xlink:href="core-project_8h.html" target="_top" xlink:title=" ">
<polygon fill="none" stroke="black" points="3124.83,-341 3124.83,-360 3208.83,-360 3208.83,-341 3124.83,-341"/>
<text text-anchor="middle" x="3166.83" y="-348" font-family="Helvetica,sans-Serif" font-size="10.00">core&#45;project.h</text>
</a>
</g>
</g>
<!-- Node40&#45;&gt;Node42 -->
<g id="edge88" class="edge">
<title>Node40&#45;&gt;Node42</title>
<path fill="none" stroke="midnightblue" d="M3032.32,-402.48C3059.13,-392.31 3104.14,-375.26 3134.63,-363.7"/>
<polygon fill="midnightblue" stroke="midnightblue" points="3136.26,-366.83 3144.37,-360.01 3133.78,-360.28 3136.26,-366.83"/>
</g>
<!-- Node42&#45;&gt;Node3 -->
<g id="edge92" class="edge">
<title>Node42&#45;&gt;Node3</title>
<path fill="none" stroke="midnightblue" d="M3208.9,-347.61C3324.65,-342.11 3641.8,-324.83 3680.83,-299 3727.27,-268.26 3749.35,-201.57 3757.68,-169.07"/>
<polygon fill="midnightblue" stroke="midnightblue" points="3761.14,-169.65 3760.07,-159.11 3754.33,-168.01 3761.14,-169.65"/>
</g>
<!-- Node42&#45;&gt;Node4 -->
<g id="edge93" class="edge">
<title>Node42&#45;&gt;Node4</title>
<path fill="none" stroke="midnightblue" d="M3166.53,-340.76C3164.89,-294.2 3156.75,-76.93 3146.83,-67 3107.06,-27.21 2696.69,-43.4 2641.83,-31 2638.83,-30.32 2635.75,-29.44 2632.72,-28.45"/>
<polygon fill="midnightblue" stroke="midnightblue" points="2633.9,-25.15 2623.3,-25 2631.49,-31.73 2633.9,-25.15"/>
</g>
<!-- Node42&#45;&gt;Node12 -->
<g id="edge94" class="edge">
<title>Node42&#45;&gt;Node12</title>
<path fill="none" stroke="midnightblue" d="M3124.67,-344.01C3098.56,-340.84 3064.3,-337.07 3033.83,-335 2438.53,-294.63 2287.91,-325.22 1691.83,-299 1204.72,-277.57 1082.31,-277.09 596.83,-232 357.34,-209.76 249.48,-312.92 59.83,-165 24.29,-137.29 2.41,-99.31 33.83,-67 64.44,-35.51 1432.28,-20.33 1759.87,-17.15"/>
<polygon fill="midnightblue" stroke="midnightblue" points="1760.21,-20.64 1770.17,-17.05 1760.14,-13.64 1760.21,-20.64"/>
</g>
<!-- Node42&#45;&gt;Node14 -->
<g id="edge96" class="edge">
<title>Node42&#45;&gt;Node14</title>
<path fill="none" stroke="midnightblue" d="M3208.9,-348.53C3326.25,-345.42 3655.17,-333.75 3756.83,-299 3780.86,-290.78 3781.25,-277.44 3804.83,-268 3884.21,-236.22 3915.28,-265.8 3993.83,-232 4015.47,-222.69 4016.53,-212.97 4036.83,-201 4061.68,-186.34 4091.48,-172.56 4113.31,-163.11"/>
<polygon fill="midnightblue" stroke="midnightblue" points="4114.91,-166.24 4122.73,-159.09 4112.16,-159.8 4114.91,-166.24"/>
</g>
<!-- Node42&#45;&gt;Node15 -->
<g id="edge97" class="edge">
<title>Node42&#45;&gt;Node15</title>
<path fill="none" stroke="midnightblue" d="M3124.79,-343.1C3077.93,-335.32 3000.27,-320.52 2935.83,-299 2886.21,-282.43 2772.06,-215.55 2721.83,-201 2607.24,-167.8 2573.5,-184.63 2455.83,-165 2448.64,-163.8 2441.08,-162.43 2433.66,-161.01"/>
<polygon fill="midnightblue" stroke="midnightblue" points="2434.15,-157.54 2423.67,-159.07 2432.82,-164.42 2434.15,-157.54"/>
</g>
<!-- Node42&#45;&gt;Node19 -->
<g id="edge89" class="edge">
<title>Node42&#45;&gt;Node19</title>
<path fill="none" stroke="midnightblue" d="M3209.08,-349.5C3390.39,-348.48 4098.71,-333.61 4217.83,-165 4225.78,-153.75 4226.93,-144.34 4217.83,-134 4176.39,-86.9 3999.68,-108.48 3937.83,-98 3871.99,-86.84 3856.39,-79.64 3790.83,-67 3712.86,-51.97 3622.68,-36.52 3564.08,-26.73"/>
<polygon fill="midnightblue" stroke="midnightblue" points="3564.31,-23.22 3553.87,-25.03 3563.16,-30.13 3564.31,-23.22"/>
</g>
<!-- Node42&#45;&gt;Node20 -->
<g id="edge90" class="edge">
<title>Node42&#45;&gt;Node20</title>
<path fill="none" stroke="midnightblue" d="M3209.27,-345.75C3265.76,-339.92 3368.26,-326.37 3451.83,-299 3544.25,-268.72 3600.55,-259.18 3624.83,-165 3628.26,-151.66 3633.47,-144.73 3624.83,-134 3614.35,-120.99 3524.14,-104.21 3459.36,-93.65"/>
<polygon fill="midnightblue" stroke="midnightblue" points="3459.63,-90.15 3449.2,-92.01 3458.51,-97.06 3459.63,-90.15"/>
</g>
<!-- Node42&#45;&gt;Node21 -->
<g id="edge91" class="edge">
<title>Node42&#45;&gt;Node21</title>
<path fill="none" stroke="midnightblue" d="M3124.65,-344.39C3098.52,-341.35 3064.26,-337.6 3033.83,-335 2294.66,-271.89 2103.6,-326.81 1367.83,-232 1215.07,-212.32 1125.64,-283.97 1027.83,-165 1019.08,-154.36 1018.44,-144.08 1027.83,-134 1049.29,-110.95 1487.05,-92.58 1664.28,-86.06"/>
<polygon fill="midnightblue" stroke="midnightblue" points="1664.44,-89.55 1674.31,-85.69 1664.18,-82.56 1664.44,-89.55"/>
</g>
<!-- Node42&#45;&gt;Node24 -->
<g id="edge98" class="edge">
<title>Node42&#45;&gt;Node24</title>
<path fill="none" stroke="midnightblue" d="M3124.36,-343.41C3065.43,-334.74 2955.64,-317.8 2862.83,-299 2657.75,-257.46 2417.46,-196.29 2305.79,-167.14"/>
<polygon fill="midnightblue" stroke="midnightblue" points="2306.6,-163.73 2296.04,-164.59 2304.82,-170.5 2306.6,-163.73"/>
</g>
<!-- Node42&#45;&gt;Node30 -->
<g id="edge163" class="edge">
<title>Node42&#45;&gt;Node30</title>
<path fill="none" stroke="midnightblue" d="M3209.03,-348.35C3352.93,-344.17 3823.6,-328.55 3971.83,-299 4100.48,-273.35 4172.01,-280.17 4234.83,-165 4256.61,-125.05 4263.11,-71.38 4265.04,-40.71"/>
<polygon fill="midnightblue" stroke="midnightblue" points="4268.54,-40.68 4265.56,-30.52 4261.55,-40.33 4268.54,-40.68"/>
</g>
<!-- Node42&#45;&gt;Node31 -->
<g id="edge164" class="edge">
<title>Node42&#45;&gt;Node31</title>
<path fill="none" stroke="midnightblue" d="M3208.87,-349.12C3362.81,-347.43 3895.21,-338.77 4059.83,-299 4242.57,-254.85 4412.48,-85.6 4462.22,-32.52"/>
<polygon fill="midnightblue" stroke="midnightblue" points="4464.93,-34.75 4469.16,-25.04 4459.8,-29.99 4464.93,-34.75"/>
</g>
<!-- Node43 -->
<g id="node43" class="node">
<title>Node43</title>
<g id="a_node43"><a xlink:title=" ">
<polygon fill="none" stroke="#bfbfbf" points="3194.83,-268.5 3194.83,-298.5 3336.83,-298.5 3336.83,-268.5 3194.83,-268.5"/>
<text text-anchor="start" x="3202.83" y="-286.5" font-family="Helvetica,sans-Serif" font-size="10.00">seerep&#45;msgs/query&#45;result</text>
<text text-anchor="middle" x="3265.83" y="-275.5" font-family="Helvetica,sans-Serif" font-size="10.00">&#45;project.h</text>
</a>
</g>
</g>
<!-- Node42&#45;&gt;Node43 -->
<g id="edge95" class="edge">
<title>Node42&#45;&gt;Node43</title>
<path fill="none" stroke="midnightblue" d="M3180.18,-340.73C3194.39,-331.4 3217.35,-316.32 3235.93,-304.13"/>
<polygon fill="midnightblue" stroke="midnightblue" points="3237.93,-307 3244.37,-298.59 3234.09,-301.15 3237.93,-307"/>
</g>
<!-- Node44 -->
<g id="node44" class="node">
<title>Node44</title>
<g id="a_node44"><a xlink:href="hdf5-core-instance_8h.html" target="_top" xlink:title=" ">
<polygon fill="none" stroke="black" points="2861.33,-134.5 2861.33,-164.5 2986.33,-164.5 2986.33,-134.5 2861.33,-134.5"/>
<text text-anchor="start" x="2869.33" y="-152.5" font-family="Helvetica,sans-Serif" font-size="10.00">seerep&#45;hdf5&#45;core/hdf5</text>
<text text-anchor="middle" x="2923.83" y="-141.5" font-family="Helvetica,sans-Serif" font-size="10.00">&#45;core&#45;instance.h</text>
</a>
</g>
</g>
<!-- Node42&#45;&gt;Node44 -->
<g id="edge99" class="edge">
<title>Node42&#45;&gt;Node44</title>
<path fill="none" stroke="midnightblue" d="M3156.38,-340.95C3120.43,-311.5 3001.07,-213.76 2948.76,-170.92"/>
<polygon fill="midnightblue" stroke="midnightblue" points="2950.92,-168.16 2940.96,-164.53 2946.48,-173.58 2950.92,-168.16"/>
</g>
<!-- Node45 -->
<g id="node45" class="node">
<title>Node45</title>
<g id="a_node45"><a xlink:href="hdf5-core-point-cloud_8h.html" target="_top" xlink:title=" ">
<polygon fill="none" stroke="black" points="2536.33,-134.5 2536.33,-164.5 2661.33,-164.5 2661.33,-134.5 2536.33,-134.5"/>
<text text-anchor="start" x="2544.33" y="-152.5" font-family="Helvetica,sans-Serif" font-size="10.00">seerep&#45;hdf5&#45;core/hdf5</text>
<text text-anchor="middle" x="2598.83" y="-141.5" font-family="Helvetica,sans-Serif" font-size="10.00">&#45;core&#45;point&#45;cloud.h</text>
</a>
</g>
</g>
<!-- Node42&#45;&gt;Node45 -->
<g id="edge110" class="edge">
<title>Node42&#45;&gt;Node45</title>
<path fill="none" stroke="midnightblue" d="M3135.43,-340.93C3102.86,-331.73 3050.65,-316.1 3006.83,-299 2911.25,-261.7 2894.43,-235.55 2797.83,-201 2756.85,-186.34 2709.7,-174.18 2671.58,-165.47"/>
<polygon fill="midnightblue" stroke="midnightblue" points="2672.11,-162 2661.59,-163.21 2670.57,-168.83 2672.11,-162"/>
</g>
<!-- Node46 -->
<g id="node46" class="node">
<title>Node46</title>
<g id="a_node46"><a xlink:href="hdf5-core-tf_8h.html" target="_top" xlink:title=" ">
<polygon fill="none" stroke="black" points="2718.33,-134.5 2718.33,-164.5 2843.33,-164.5 2843.33,-134.5 2718.33,-134.5"/>
<text text-anchor="start" x="2726.33" y="-152.5" font-family="Helvetica,sans-Serif" font-size="10.00">seerep&#45;hdf5&#45;core/hdf5</text>
<text text-anchor="middle" x="2780.83" y="-141.5" font-family="Helvetica,sans-Serif" font-size="10.00">&#45;core&#45;tf.h</text>
</a>
</g>
</g>
<!-- Node42&#45;&gt;Node46 -->
<g id="edge122" class="edge">
<title>Node42&#45;&gt;Node46</title>
<path fill="none" stroke="midnightblue" d="M3149.81,-340.98C3129.89,-330.99 3095.91,-313.89 3066.83,-299 2976.63,-252.81 2870.9,-197.64 2816.76,-169.33"/>
<polygon fill="midnightblue" stroke="midnightblue" points="2818.07,-166.06 2807.59,-164.52 2814.82,-172.26 2818.07,-166.06"/>
</g>
<!-- Node47 -->
<g id="node47" class="node">
<title>Node47</title>
<g id="a_node47"><a xlink:href="core-dataset_8h.html" target="_top" xlink:title=" ">
<polygon fill="none" stroke="black" points="3355.33,-274 3355.33,-293 3442.33,-293 3442.33,-274 3355.33,-274"/>
<text text-anchor="middle" x="3398.83" y="-281" font-family="Helvetica,sans-Serif" font-size="10.00">core&#45;dataset.h</text>
</a>
</g>
</g>
<!-- Node42&#45;&gt;Node47 -->
<g id="edge128" class="edge">
<title>Node42&#45;&gt;Node47</title>
<path fill="none" stroke="midnightblue" d="M3197.63,-340.87C3239,-329.28 3312.58,-308.66 3358.37,-295.83"/>
<polygon fill="midnightblue" stroke="midnightblue" points="3359.57,-299.13 3368.26,-293.06 3357.69,-292.39 3359.57,-299.13"/>
</g>
<!-- Node49 -->
<g id="node49" class="node">
<title>Node49</title>
<g id="a_node49"><a xlink:href="core-instances_8h.html" target="_top" xlink:title=" ">
<polygon fill="none" stroke="red" points="3308.33,-207 3308.33,-226 3405.33,-226 3405.33,-207 3308.33,-207"/>
<text text-anchor="middle" x="3356.83" y="-214" font-family="Helvetica,sans-Serif" font-size="10.00">core&#45;instances.h</text>
</a>
</g>
</g>
<!-- Node42&#45;&gt;Node49 -->
<g id="edge161" class="edge">
<title>Node42&#45;&gt;Node49</title>
<path fill="none" stroke="midnightblue" d="M3166.2,-340.57C3165.57,-323.99 3166.68,-288.29 3185.83,-268 3214.56,-237.54 3260.68,-225.17 3297.78,-220.28"/>
<polygon fill="midnightblue" stroke="midnightblue" points="3298.46,-223.72 3307.99,-219.09 3297.65,-216.77 3298.46,-223.72"/>
</g>
<!-- Node52 -->
<g id="node50" class="node">
<title>Node52</title>
<g id="a_node50"><a xlink:href="core-tf_8h.html" target="_top" xlink:title=" ">
<polygon fill="none" stroke="red" points="3927.33,-207 3927.33,-226 3984.33,-226 3984.33,-207 3927.33,-207"/>
<text text-anchor="middle" x="3955.83" y="-214" font-family="Helvetica,sans-Serif" font-size="10.00">core&#45;tf.h</text>
</a>
</g>
</g>
<!-- Node42&#45;&gt;Node52 -->
<g id="edge162" class="edge">
<title>Node42&#45;&gt;Node52</title>
<path fill="none" stroke="midnightblue" d="M3209,-348.24C3321.14,-344.49 3624.56,-331.53 3718.83,-299 3742.83,-290.71 3743.61,-278.29 3766.83,-268 3816.56,-245.95 3878.06,-231.72 3917.12,-224.16"/>
<polygon fill="midnightblue" stroke="midnightblue" points="3917.85,-227.59 3927.03,-222.29 3916.55,-220.71 3917.85,-227.59"/>
</g>
<!-- Node44&#45;&gt;Node4 -->
<g id="edge109" class="edge">
<title>Node44&#45;&gt;Node4</title>
<path fill="none" stroke="midnightblue" d="M2914.64,-134.36C2901.69,-115.68 2876.22,-83.25 2845.83,-67 2764.63,-23.59 2730.46,-55.92 2641.83,-31 2639.24,-30.27 2636.58,-29.43 2633.93,-28.53"/>
<polygon fill="midnightblue" stroke="midnightblue" points="2635.14,-25.24 2624.55,-25.07 2632.72,-31.81 2635.14,-25.24"/>
</g>
<!-- Node44&#45;&gt;Node16 -->
<g id="edge102" class="edge">
<title>Node44&#45;&gt;Node16</title>
<path fill="none" stroke="midnightblue" d="M2986.4,-143.77C3090.41,-135.7 3305.41,-118.19 3486.83,-98 3499.25,-96.62 3512.45,-94.99 3525.22,-93.34"/>
<polygon fill="midnightblue" stroke="midnightblue" points="3525.88,-96.78 3535.34,-92.01 3524.97,-89.84 3525.88,-96.78"/>
</g>
<!-- Node44&#45;&gt;Node17 -->
<g id="edge103" class="edge">
<title>Node44&#45;&gt;Node17</title>
<path fill="none" stroke="midnightblue" d="M2861.18,-135.23C2858.36,-134.78 2855.57,-134.37 2852.83,-134 2615.77,-102 2554.44,-114.82 2315.83,-98 2278.34,-95.36 2236.84,-92.3 2201.71,-89.68"/>
<polygon fill="midnightblue" stroke="midnightblue" points="2201.73,-86.18 2191.5,-88.92 2201.21,-93.16 2201.73,-86.18"/>
</g>
<!-- Node44&#45;&gt;Node18 -->
<g id="edge104" class="edge">
<title>Node44&#45;&gt;Node18</title>
<path fill="none" stroke="midnightblue" d="M2956.59,-134.4C2983.08,-122.99 3020.05,-107.08 3045.56,-96.1"/>
<polygon fill="midnightblue" stroke="midnightblue" points="3047.26,-99.18 3055.06,-92.01 3044.49,-92.75 3047.26,-99.18"/>
</g>
<!-- Node44&#45;&gt;Node19 -->
<g id="edge105" class="edge">
<title>Node44&#45;&gt;Node19</title>
<path fill="none" stroke="midnightblue" d="M2932.94,-134.35C2946.06,-115.34 2972.19,-82.2 3003.83,-67 3078.34,-31.2 3317.16,-20.72 3434.91,-17.7"/>
<polygon fill="midnightblue" stroke="midnightblue" points="3435.32,-21.19 3445.23,-17.44 3435.15,-14.19 3435.32,-21.19"/>
</g>
<!-- Node44&#45;&gt;Node20 -->
<g id="edge106" class="edge">
<title>Node44&#45;&gt;Node20</title>
<path fill="none" stroke="midnightblue" d="M2986.59,-139.8C3073.44,-127.76 3229.87,-106.08 3321.19,-93.43"/>
<polygon fill="midnightblue" stroke="midnightblue" points="3321.75,-96.88 3331.18,-92.04 3320.79,-89.95 3321.75,-96.88"/>
</g>
<!-- Node44&#45;&gt;Node21 -->
<g id="edge107" class="edge">
<title>Node44&#45;&gt;Node21</title>
<path fill="none" stroke="midnightblue" d="M2861.19,-135.15C2858.37,-134.73 2855.57,-134.34 2852.83,-134 2493.86,-89.68 2401.13,-114.67 2039.83,-98 1962,-94.41 1872.91,-90.11 1811.77,-87.13"/>
<polygon fill="midnightblue" stroke="midnightblue" points="1811.61,-83.62 1801.45,-86.62 1811.27,-90.61 1811.61,-83.62"/>
</g>
<!-- Node44&#45;&gt;Node23 -->
<g id="edge100" class="edge">
<title>Node44&#45;&gt;Node23</title>
<path fill="none" stroke="midnightblue" d="M2898.06,-134.45C2862.77,-115.88 2796.91,-83.57 2736.83,-67 2623.61,-35.78 2486.72,-23.76 2407.43,-19.2"/>
<polygon fill="midnightblue" stroke="midnightblue" points="2407.28,-15.69 2397.1,-18.63 2406.89,-22.68 2407.28,-15.69"/>
</g>
<!-- Node44&#45;&gt;Node26 -->
<g id="edge101" class="edge">
<title>Node44&#45;&gt;Node26</title>
<path fill="none" stroke="midnightblue" d="M2867.95,-134.48C2827.75,-124.39 2773.37,-110.74 2731,-100.11"/>
<polygon fill="midnightblue" stroke="midnightblue" points="2731.6,-96.65 2721.05,-97.61 2729.9,-103.44 2731.6,-96.65"/>
</g>
<!-- Node44&#45;&gt;Node28 -->
<g id="edge108" class="edge">
<title>Node44&#45;&gt;Node28</title>
<path fill="none" stroke="midnightblue" d="M2861.15,-135.48C2858.34,-134.96 2855.55,-134.47 2852.83,-134 2738.28,-114.36 2706.6,-126.07 2593.83,-98 2554.8,-88.29 2547.77,-77.03 2508.83,-67 2408.21,-41.08 2379.95,-50.16 2277.83,-31 2271.62,-29.84 2265.11,-28.52 2258.69,-27.17"/>
<polygon fill="midnightblue" stroke="midnightblue" points="2259.26,-23.71 2248.74,-25.03 2257.79,-30.55 2259.26,-23.71"/>
</g>
<!-- Node45&#45;&gt;Node4 -->
<g id="edge116" class="edge">
<title>Node45&#45;&gt;Node4</title>
<path fill="none" stroke="midnightblue" d="M2661.57,-141.64C2689.43,-135.12 2719.73,-122.47 2736.83,-98 2744.72,-86.71 2744.65,-78.34 2736.83,-67 2711.17,-29.84 2683.96,-47.24 2641.83,-31 2639.99,-30.29 2638.11,-29.56 2636.2,-28.83"/>
<polygon fill="midnightblue" stroke="midnightblue" points="2637.31,-25.5 2626.72,-25.13 2634.77,-32.02 2637.31,-25.5"/>
</g>
<!-- Node45&#45;&gt;Node12 -->
<g id="edge114" class="edge">
<title>Node45&#45;&gt;Node12</title>
<path fill="none" stroke="midnightblue" d="M2536.26,-136.44C2531.38,-135.58 2526.53,-134.76 2521.83,-134 2404.06,-114.95 2368.92,-135.97 2255.83,-98 2229.22,-89.07 2227.42,-75.94 2200.83,-67 2172.94,-57.63 1998.97,-36.26 1899.46,-24.54"/>
<polygon fill="midnightblue" stroke="midnightblue" points="1899.82,-21.06 1889.48,-23.37 1899.01,-28.01 1899.82,-21.06"/>
</g>
<!-- Node45&#45;&gt;Node17 -->
<g id="edge117" class="edge">
<title>Node45&#45;&gt;Node17</title>
<path fill="none" stroke="midnightblue" d="M2536.28,-136.33C2531.39,-135.5 2526.53,-134.71 2521.83,-134 2382.06,-112.91 2345.79,-117.76 2205.83,-98 2196.69,-96.71 2187.02,-95.21 2177.61,-93.68"/>
<polygon fill="midnightblue" stroke="midnightblue" points="2177.96,-90.19 2167.52,-92.01 2176.81,-97.1 2177.96,-90.19"/>
</g>
<!-- Node45&#45;&gt;Node18 -->
<g id="edge118" class="edge">
<title>Node45&#45;&gt;Node18</title>
<path fill="none" stroke="midnightblue" d="M2661.54,-139.94C2749.51,-127.92 2909.15,-106.12 3002.17,-93.42"/>
<polygon fill="midnightblue" stroke="midnightblue" points="3002.91,-96.85 3012.35,-92.03 3001.97,-89.92 3002.91,-96.85"/>
</g>
<!-- Node45&#45;&gt;Node19 -->
<g id="edge119" class="edge">
<title>Node45&#45;&gt;Node19</title>
<path fill="none" stroke="midnightblue" d="M2661.61,-139.55C2752.19,-126.5 2910.05,-103.25 2921.83,-98 2941.73,-89.12 2939.65,-75.26 2959.83,-67 3044.25,-32.43 3309.62,-21.28 3434.98,-17.89"/>
<polygon fill="midnightblue" stroke="midnightblue" points="3435.31,-21.38 3445.22,-17.62 3435.13,-14.38 3435.31,-21.38"/>
</g>
<!-- Node45&#45;&gt;Node20 -->
<g id="edge120" class="edge">
<title>Node45&#45;&gt;Node20</title>
<path fill="none" stroke="midnightblue" d="M2661.56,-139.59C2677.29,-137.55 2694.16,-135.54 2709.83,-134 2951.86,-110.24 3013.52,-118.8 3255.83,-98 3272.56,-96.56 3290.42,-94.82 3307.53,-93.06"/>
<polygon fill="midnightblue" stroke="midnightblue" points="3307.92,-96.53 3317.5,-92.01 3307.19,-89.57 3307.92,-96.53"/>
</g>
<!-- Node45&#45;&gt;Node21 -->
<g id="edge121" class="edge">
<title>Node45&#45;&gt;Node21</title>
<path fill="none" stroke="midnightblue" d="M2536.21,-141.99C2509.86,-139.35 2478.87,-136.37 2450.83,-134 2217.86,-114.34 1941.63,-96.27 1811.99,-88.09"/>
<polygon fill="midnightblue" stroke="midnightblue" points="1811.98,-84.58 1801.78,-87.45 1811.54,-91.57 1811.98,-84.58"/>
</g>
<!-- Node45&#45;&gt;Node23 -->
<g id="edge111" class="edge">
<title>Node45&#45;&gt;Node23</title>
<path fill="none" stroke="midnightblue" d="M2536.22,-136.64C2531.35,-135.74 2526.51,-134.85 2521.83,-134 2476.1,-125.7 2345.72,-133.58 2315.83,-98 2300.2,-79.41 2315.14,-51.32 2327.98,-33.45"/>
<polygon fill="midnightblue" stroke="midnightblue" points="2331.03,-35.21 2334.32,-25.14 2325.47,-30.96 2331.03,-35.21"/>
</g>
<!-- Node45&#45;&gt;Node25 -->
<g id="edge112" class="edge">
<title>Node45&#45;&gt;Node25</title>
<path fill="none" stroke="midnightblue" d="M2554.99,-134.4C2524.29,-124.52 2483.07,-111.25 2450.41,-100.74"/>
<polygon fill="midnightblue" stroke="midnightblue" points="2451.16,-97.31 2440.57,-97.58 2449.02,-103.97 2451.16,-97.31"/>
</g>
<!-- Node45&#45;&gt;Node26 -->
<g id="edge113" class="edge">
<title>Node45&#45;&gt;Node26</title>
<path fill="none" stroke="midnightblue" d="M2613.15,-134.4C2621.97,-125.71 2633.45,-114.4 2643.34,-104.66"/>
<polygon fill="midnightblue" stroke="midnightblue" points="2645.86,-107.09 2650.53,-97.58 2640.95,-102.1 2645.86,-107.09"/>
</g>
<!-- Node45&#45;&gt;Node28 -->
<g id="edge115" class="edge">
<title>Node45&#45;&gt;Node28</title>
<path fill="none" stroke="midnightblue" d="M2536.23,-136.6C2531.36,-135.7 2526.51,-134.83 2521.83,-134 2425.56,-116.95 2393.19,-139.82 2304.83,-98 2272.01,-82.47 2241.97,-51.9 2225.36,-32.93"/>
<polygon fill="midnightblue" stroke="midnightblue" points="2227.86,-30.47 2218.7,-25.13 2222.53,-35.01 2227.86,-30.47"/>
</g>
<!-- Node46&#45;&gt;Node4 -->
<g id="edge127" class="edge">
<title>Node46&#45;&gt;Node4</title>
<path fill="none" stroke="midnightblue" d="M2779.76,-134.39C2777.65,-116.34 2771.39,-85.25 2752.83,-67 2715.84,-30.65 2690.66,-48.47 2641.83,-31 2639.71,-30.24 2637.54,-29.45 2635.36,-28.63"/>
<polygon fill="midnightblue" stroke="midnightblue" points="2636.47,-25.31 2625.87,-25 2633.96,-31.84 2636.47,-25.31"/>
</g>
<!-- Node46&#45;&gt;Node16 -->
<g id="edge125" class="edge">
<title>Node46&#45;&gt;Node16</title>
<path fill="none" stroke="midnightblue" d="M2843.57,-135.32C2846.69,-134.83 2849.79,-134.39 2852.83,-134 3132.76,-98.05 3205.85,-124.63 3486.83,-98 3500.08,-96.74 3514.2,-95.1 3527.73,-93.36"/>
<polygon fill="midnightblue" stroke="midnightblue" points="3528.47,-96.8 3537.94,-92.03 3527.57,-89.86 3528.47,-96.8"/>
</g>
<!-- Node46&#45;&gt;Node23 -->
<g id="edge123" class="edge">
<title>Node46&#45;&gt;Node23</title>
<path fill="none" stroke="midnightblue" d="M2723.11,-134.47C2685.93,-125.04 2636.7,-111.86 2593.83,-98 2556.75,-86.02 2548.75,-79.44 2511.83,-67 2468.14,-52.28 2417.41,-37.5 2382.81,-27.77"/>
<polygon fill="midnightblue" stroke="midnightblue" points="2383.63,-24.37 2373.06,-25.04 2381.75,-31.11 2383.63,-24.37"/>
</g>
<!-- Node46&#45;&gt;Node26 -->
<g id="edge124" class="edge">
<title>Node46&#45;&gt;Node26</title>
<path fill="none" stroke="midnightblue" d="M2755.66,-134.4C2739.09,-125.11 2717.19,-112.84 2699.04,-102.67"/>
<polygon fill="midnightblue" stroke="midnightblue" points="2700.38,-99.41 2689.95,-97.58 2696.96,-105.52 2700.38,-99.41"/>
</g>
<!-- Node46&#45;&gt;Node28 -->
<g id="edge126" class="edge">
<title>Node46&#45;&gt;Node28</title>
<path fill="none" stroke="midnightblue" d="M2718.21,-136.7C2713.34,-135.79 2708.5,-134.88 2703.83,-134 2618.5,-117.97 2589.24,-137.3 2511.83,-98 2493.88,-88.89 2496.81,-76.04 2478.83,-67 2397.74,-26.25 2366.83,-48.74 2277.83,-31 2271.93,-29.82 2265.75,-28.54 2259.63,-27.23"/>
<polygon fill="midnightblue" stroke="midnightblue" points="2259.98,-23.73 2249.47,-25.04 2258.5,-30.57 2259.98,-23.73"/>
</g>
<!-- Node47&#45;&gt;Node3 -->
<g id="edge129" class="edge">
<title>Node47&#45;&gt;Node3</title>
<path fill="none" stroke="midnightblue" d="M3442.34,-278.33C3491.57,-272.5 3573.43,-259.36 3638.83,-232 3679.48,-214.99 3721.03,-184.04 3743.93,-165.57"/>
<polygon fill="midnightblue" stroke="midnightblue" points="3746.23,-168.2 3751.74,-159.15 3741.79,-162.79 3746.23,-168.2"/>
</g>
<!-- Node47&#45;&gt;Node4 -->
<g id="edge130" class="edge">
<title>Node47&#45;&gt;Node4</title>
<path fill="none" stroke="midnightblue" d="M3427.02,-273.97C3433.82,-271.96 3441.07,-269.87 3447.83,-268 3509.75,-250.88 3533.13,-265.71 3587.83,-232 3664.36,-184.83 3767.31,-131.63 3704.83,-67 3663.76,-24.52 2699.69,-42.95 2641.83,-31 2638.81,-30.38 2635.73,-29.53 2632.69,-28.56"/>
<polygon fill="midnightblue" stroke="midnightblue" points="2633.87,-25.27 2623.27,-25.15 2631.48,-31.85 2633.87,-25.27"/>
</g>
<!-- Node47&#45;&gt;Node13 -->
<g id="edge133" class="edge">
<title>Node47&#45;&gt;Node13</title>
<path fill="none" stroke="midnightblue" d="M3371.83,-273.98C3363.56,-271.68 3354.39,-269.44 3345.83,-268 3103.35,-227.35 3038.82,-252.49 2793.83,-232 2501.77,-207.57 2429.21,-196.38 2137.83,-165 2123.64,-163.47 2108.58,-161.81 2093.96,-160.16"/>
<polygon fill="midnightblue" stroke="midnightblue" points="2094.25,-156.68 2083.93,-159.03 2093.47,-163.63 2094.25,-156.68"/>
</g>
<!-- Node47&#45;&gt;Node15 -->
<g id="edge134" class="edge">
<title>Node47&#45;&gt;Node15</title>
<path fill="none" stroke="midnightblue" d="M3371.26,-273.94C3363.14,-271.69 3354.18,-269.49 3345.83,-268 3159.62,-234.91 3108.38,-263.03 2921.83,-232 2865.79,-222.68 2853.77,-210.89 2797.83,-201 2647.32,-174.4 2606.94,-187.91 2455.83,-165 2448.28,-163.86 2440.32,-162.47 2432.55,-161.01"/>
<polygon fill="midnightblue" stroke="midnightblue" points="2432.97,-157.52 2422.49,-159.06 2431.64,-164.4 2432.97,-157.52"/>
</g>
<!-- Node47&#45;&gt;Node17 -->
<g id="edge156" class="edge">
<title>Node47&#45;&gt;Node17</title>
<path fill="none" stroke="midnightblue" d="M3371.26,-273.97C3363.13,-271.72 3354.18,-269.51 3345.83,-268 3171.92,-236.56 3121.53,-273.83 2949.83,-232 2914.38,-223.36 2909.26,-209.66 2873.83,-201 2704.73,-159.68 2642.55,-236.47 2483.83,-165 2465.48,-156.74 2468.97,-142.71 2450.83,-134 2348.03,-84.67 2309.32,-116.55 2196.83,-98 2189.18,-96.74 2181.13,-95.32 2173.22,-93.88"/>
<polygon fill="midnightblue" stroke="midnightblue" points="2173.81,-90.43 2163.34,-92.05 2172.53,-97.31 2173.81,-90.43"/>
</g>
<!-- Node47&#45;&gt;Node18 -->
<g id="edge157" class="edge">
<title>Node47&#45;&gt;Node18</title>
<path fill="none" stroke="midnightblue" d="M3381.13,-273.87C3361.2,-264.06 3327.91,-247.4 3299.83,-232 3248.29,-203.75 3234.91,-197.32 3185.83,-165 3152.66,-143.16 3115.8,-115.35 3094,-98.51"/>
<polygon fill="midnightblue" stroke="midnightblue" points="3095.95,-95.59 3085.9,-92.22 3091.65,-101.12 3095.95,-95.59"/>
</g>
<!-- Node47&#45;&gt;Node19 -->
<g id="edge158" class="edge">
<title>Node47&#45;&gt;Node19</title>
<path fill="none" stroke="midnightblue" d="M3442.45,-279.06C3498.82,-273.64 3599.41,-260.61 3680.83,-232 3739.55,-211.36 3772.03,-218.52 3803.83,-165 3859.49,-71.3 3673.68,-35.3 3568.76,-22.67"/>
<polygon fill="midnightblue" stroke="midnightblue" points="3568.89,-19.16 3558.55,-21.48 3568.08,-26.12 3568.89,-19.16"/>
</g>
<!-- Node47&#45;&gt;Node20 -->
<g id="edge159" class="edge">
<title>Node47&#45;&gt;Node20</title>
<path fill="none" stroke="midnightblue" d="M3433.16,-273.96C3505.05,-254.48 3660.41,-203.04 3605.83,-134 3596.22,-121.85 3512.43,-104.69 3452.86,-93.83"/>
<polygon fill="midnightblue" stroke="midnightblue" points="3453.24,-90.34 3442.78,-92.01 3452,-97.23 3453.24,-90.34"/>
</g>
<!-- Node47&#45;&gt;Node21 -->
<g id="edge160" class="edge">
<title>Node47&#45;&gt;Node21</title>
<path fill="none" stroke="midnightblue" d="M3372.68,-273.98C3364.2,-271.59 3354.7,-269.29 3345.83,-268 2997.42,-217.16 2112.52,-263.3 1761.83,-232 1570.05,-214.89 1459,-311.3 1333.83,-165 1324.87,-154.53 1324.71,-144.33 1333.83,-134 1355.29,-109.69 1553.6,-94.28 1664.17,-87.51"/>
<polygon fill="midnightblue" stroke="midnightblue" points="1664.49,-90.99 1674.26,-86.9 1664.07,-84.01 1664.49,-90.99"/>
</g>
<!-- Node47&#45;&gt;Node25 -->
<g id="edge135" class="edge">
<title>Node47&#45;&gt;Node25</title>
<path fill="none" stroke="midnightblue" d="M3369.8,-274C3362.05,-271.88 3353.65,-269.73 3345.83,-268 3171.52,-229.51 3126.1,-229.13 2949.83,-201 2843.31,-184 2808.74,-208.02 2709.83,-165 2689.52,-156.17 2690.98,-143.16 2670.83,-134 2593.19,-98.71 2564.09,-112.92 2479.51,-98.78"/>
<polygon fill="midnightblue" stroke="midnightblue" points="2479.94,-95.3 2469.48,-97.01 2478.72,-102.19 2479.94,-95.3"/>
</g>
<!-- Node47&#45;&gt;Node27 -->
<g id="edge131" class="edge">
<title>Node47&#45;&gt;Node27</title>
<path fill="none" stroke="midnightblue" d="M3442.54,-281.86C3541.55,-279.75 3790.13,-270.68 3993.83,-232 4095.91,-212.61 4155.76,-248.34 4217.83,-165 4270.78,-93.89 4123.56,-47.24 4041.2,-27.39"/>
<polygon fill="midnightblue" stroke="midnightblue" points="4041.79,-23.94 4031.25,-25.05 4040.18,-30.75 4041.79,-23.94"/>
</g>
<!-- Node48 -->
<g id="node48" class="node">
<title>Node48</title>
<g id="a_node48"><a xlink:title=" ">
<polygon fill="none" stroke="#bfbfbf" points="3461.33,-140 3461.33,-159 3596.33,-159 3596.33,-140 3461.33,-140"/>
<text text-anchor="middle" x="3528.83" y="-147" font-family="Helvetica,sans-Serif" font-size="10.00">seerep&#45;msgs/datatype.h</text>
</a>
</g>
</g>
<!-- Node47&#45;&gt;Node48 -->
<g id="edge132" class="edge">
<title>Node47&#45;&gt;Node48</title>
<path fill="none" stroke="midnightblue" d="M3407.36,-273.84C3428.85,-252.02 3485.47,-194.53 3513.14,-166.42"/>
<polygon fill="midnightblue" stroke="midnightblue" points="3515.91,-168.6 3520.43,-159.02 3510.92,-163.69 3515.91,-168.6"/>
</g>
<!-- Node47&#45;&gt;Node49 -->
<g id="edge136" class="edge">
<title>Node47&#45;&gt;Node49</title>
<path fill="none" stroke="midnightblue" d="M3393.16,-273.73C3386.74,-263.79 3376.11,-247.34 3368,-234.79"/>
<polygon fill="midnightblue" stroke="midnightblue" points="3370.77,-232.63 3362.4,-226.13 3364.89,-236.43 3370.77,-232.63"/>
</g>
<!-- Node47&#45;&gt;Node52 -->
<g id="edge146" class="edge">
<title>Node47&#45;&gt;Node52</title>
<path fill="none" stroke="midnightblue" d="M3442.35,-277.58C3521.09,-268.65 3692.4,-249.12 3836.83,-232 3863.53,-228.83 3893.59,-225.17 3916.82,-222.32"/>
<polygon fill="midnightblue" stroke="midnightblue" points="3917.48,-225.76 3926.98,-221.07 3916.62,-218.82 3917.48,-225.76"/>
</g>
<!-- Node49&#45;&gt;Node3 -->
<g id="edge137" class="edge">
<title>Node49&#45;&gt;Node3</title>
<path fill="none" stroke="midnightblue" d="M3405.68,-207.66C3485.65,-194.82 3643.18,-169.54 3719.03,-157.37"/>
<polygon fill="midnightblue" stroke="midnightblue" points="3719.85,-160.78 3729.17,-155.74 3718.74,-153.87 3719.85,-160.78"/>
</g>
<!-- Node49&#45;&gt;Node4 -->
<g id="edge138" class="edge">
<title>Node49&#45;&gt;Node4</title>
<path fill="none" stroke="midnightblue" d="M3349.93,-206.66C3328.33,-179.75 3258.72,-98.73 3179.83,-67 3068.66,-22.28 2758.76,-57.17 2641.83,-31 2638.83,-30.33 2635.75,-29.45 2632.71,-28.46"/>
<polygon fill="midnightblue" stroke="midnightblue" points="2633.89,-25.17 2623.3,-25.02 2631.49,-31.74 2633.89,-25.17"/>
</g>
<!-- Node49&#45;&gt;Node17 -->
<g id="edge141" class="edge">
<title>Node49&#45;&gt;Node17</title>
<path fill="none" stroke="midnightblue" d="M3308.1,-214.08C3141.59,-209.03 2601.34,-190.78 2527.83,-165 2505.25,-157.08 2506.13,-142.63 2483.83,-134 2363.94,-87.6 2323.83,-117.9 2196.83,-98 2188.9,-96.76 2180.53,-95.32 2172.35,-93.84"/>
<polygon fill="midnightblue" stroke="midnightblue" points="2172.98,-90.39 2162.51,-92.02 2171.71,-97.28 2172.98,-90.39"/>
</g>
<!-- Node49&#45;&gt;Node18 -->
<g id="edge142" class="edge">
<title>Node49&#45;&gt;Node18</title>
<path fill="none" stroke="midnightblue" d="M3338.32,-206.84C3289.9,-184.18 3159.28,-123.03 3102.17,-96.3"/>
<polygon fill="midnightblue" stroke="midnightblue" points="3103.57,-93.09 3093.03,-92.02 3100.6,-99.43 3103.57,-93.09"/>
</g>
<!-- Node49&#45;&gt;Node19 -->
<g id="edge143" class="edge">
<title>Node49&#45;&gt;Node19</title>
<path fill="none" stroke="midnightblue" d="M3363.96,-206.8C3378.6,-189.63 3413.95,-151.5 3452.83,-134 3504.41,-110.78 3667.76,-140.73 3704.83,-98 3747.25,-49.09 3643.14,-29.18 3568.85,-21.33"/>
<polygon fill="midnightblue" stroke="midnightblue" points="3568.89,-17.82 3558.59,-20.31 3568.19,-24.78 3568.89,-17.82"/>
</g>
<!-- Node49&#45;&gt;Node20 -->
<g id="edge144" class="edge">
<title>Node49&#45;&gt;Node20</title>
<path fill="none" stroke="midnightblue" d="M3359.22,-206.93C3362.02,-196.88 3366.79,-179.74 3370.83,-165 3376.73,-143.41 3383.42,-118.57 3387.86,-102.04"/>
<polygon fill="midnightblue" stroke="midnightblue" points="3391.32,-102.64 3390.53,-92.07 3384.56,-100.82 3391.32,-102.64"/>
</g>
<!-- Node49&#45;&gt;Node21 -->
<g id="edge145" class="edge">
<title>Node49&#45;&gt;Node21</title>
<path fill="none" stroke="midnightblue" d="M3308.07,-214.4C3099.02,-209.54 2283.97,-189.22 2171.83,-165 2135.77,-157.21 2130.46,-143.54 2094.83,-134 2042.86,-120.09 1899.75,-102.09 1811.31,-91.77"/>
<polygon fill="midnightblue" stroke="midnightblue" points="1811.67,-88.29 1801.33,-90.61 1810.86,-95.24 1811.67,-88.29"/>
</g>
<!-- Node49&#45;&gt;Node44 -->
<g id="edge140" class="edge">
<title>Node49&#45;&gt;Node44</title>
<path fill="none" stroke="midnightblue" d="M3308,-208.17C3231.97,-196.76 3084.86,-174.67 2996.38,-161.39"/>
<polygon fill="midnightblue" stroke="midnightblue" points="2996.83,-157.92 2986.42,-159.9 2995.79,-164.84 2996.83,-157.92"/>
</g>
<!-- Node49&#45;&gt;Node48 -->
<g id="edge139" class="edge">
<title>Node49&#45;&gt;Node48</title>
<path fill="none" stroke="midnightblue" d="M3379.67,-206.87C3409.69,-195.52 3462.61,-175.52 3496.67,-162.65"/>
<polygon fill="midnightblue" stroke="midnightblue" points="3498.05,-165.87 3506.16,-159.06 3495.57,-159.32 3498.05,-165.87"/>
</g>
<!-- Node52&#45;&gt;Node3 -->
<g id="edge147" class="edge">
<title>Node52&#45;&gt;Node3</title>
<path fill="none" stroke="midnightblue" d="M3930.36,-206.9C3924.6,-204.96 3918.5,-202.91 3912.83,-201 3873.27,-187.72 3827.87,-172.54 3797.26,-162.32"/>
<polygon fill="midnightblue" stroke="midnightblue" points="3798.07,-158.91 3787.48,-159.06 3795.86,-165.54 3798.07,-158.91"/>
</g>
<!-- Node52&#45;&gt;Node4 -->
<g id="edge148" class="edge">
<title>Node52&#45;&gt;Node4</title>
<path fill="none" stroke="midnightblue" d="M3952.82,-206.61C3946.81,-190.08 3931.8,-154.48 3907.83,-134 3846.08,-81.25 3817.35,-83.46 3737.83,-67 3260.57,31.8 3119.18,-129.34 2641.83,-31 2638.81,-30.38 2635.73,-29.54 2632.69,-28.57"/>
<polygon fill="midnightblue" stroke="midnightblue" points="2633.86,-25.27 2623.27,-25.15 2631.48,-31.85 2633.86,-25.27"/>
</g>
<!-- Node52&#45;&gt;Node14 -->
<g id="edge150" class="edge">
<title>Node52&#45;&gt;Node14</title>
<path fill="none" stroke="midnightblue" d="M3980.79,-206.87C4013.75,-195.47 4071.94,-175.35 4109.16,-162.49"/>
<polygon fill="midnightblue" stroke="midnightblue" points="4110.75,-165.64 4119.06,-159.06 4108.46,-159.02 4110.75,-165.64"/>
</g>
<!-- Node52&#45;&gt;Node15 -->
<g id="edge151" class="edge">
<title>Node52&#45;&gt;Node15</title>
<path fill="none" stroke="midnightblue" d="M3927.25,-214.74C3751.42,-210.03 2814.47,-184.38 2527.83,-165 2503.09,-163.33 2476.04,-160.81 2452.08,-158.34"/>
<polygon fill="midnightblue" stroke="midnightblue" points="2452.32,-154.85 2442.01,-157.29 2451.6,-161.81 2452.32,-154.85"/>
</g>
<!-- Node52&#45;&gt;Node16 -->
<g id="edge152" class="edge">
<title>Node52&#45;&gt;Node16</title>
<path fill="none" stroke="midnightblue" d="M3950.09,-206.9C3938.23,-189.91 3909.26,-152.09 3874.83,-134 3823.24,-106.9 3759.71,-94.06 3706.31,-88.09"/>
<polygon fill="midnightblue" stroke="midnightblue" points="3706.43,-84.59 3696.12,-87.02 3705.7,-91.55 3706.43,-84.59"/>
</g>
<!-- Node52&#45;&gt;Node27 -->
<g id="edge149" class="edge">
<title>Node52&#45;&gt;Node27</title>
<path fill="none" stroke="midnightblue" d="M3957.29,-206.95C3962.39,-177.1 3979.47,-77.08 3986.63,-35.2"/>
<polygon fill="midnightblue" stroke="midnightblue" points="3990.1,-35.69 3988.33,-25.24 3983.2,-34.51 3990.1,-35.69"/>
</g>
<!-- Node52&#45;&gt;Node30 -->
<g id="edge154" class="edge">
<title>Node52&#45;&gt;Node30</title>
<path fill="none" stroke="midnightblue" d="M3962.89,-206.75C3976.12,-190.79 4006.07,-156.49 4036.83,-134 4095.72,-90.95 4172.62,-55.02 4220.62,-34.64"/>
<polygon fill="midnightblue" stroke="midnightblue" points="4222.25,-37.75 4230.11,-30.65 4219.54,-31.3 4222.25,-37.75"/>
</g>
<!-- Node52&#45;&gt;Node31 -->
<g id="edge155" class="edge">
<title>Node52&#45;&gt;Node31</title>
<path fill="none" stroke="midnightblue" d="M3970.07,-206.86C3985.78,-197.16 4011.65,-180.73 4032.83,-165 4050.05,-152.21 4050.89,-144.08 4069.83,-134 4181.84,-74.36 4327.76,-41.74 4410.99,-26.8"/>
<polygon fill="midnightblue" stroke="midnightblue" points="4411.83,-30.21 4421.07,-25.03 4410.61,-23.32 4411.83,-30.21"/>
</g>
<!-- Node52&#45;&gt;Node46 -->
<g id="edge153" class="edge">
<title>Node52&#45;&gt;Node46</title>
<path fill="none" stroke="midnightblue" d="M3926.91,-214.78C3777.41,-210.94 3090.27,-192.21 2853.81,-164.94"/>
<polygon fill="midnightblue" stroke="midnightblue" points="2853.91,-161.43 2843.56,-163.72 2853.08,-168.38 2853.91,-161.43"/>
</g>
</g>
</svg>
