<?xml version="1.0" encoding="UTF-8" standalone="no"?>
<!DOCTYPE svg PUBLIC "-//W3C//DTD SVG 1.1//EN"
 "http://www.w3.org/Graphics/SVG/1.1/DTD/svg11.dtd">
<!-- Generated by graphviz version 2.43.0 (0)
 -->
<!-- Title: seerep_srv/seerep_core_fb/include/seerep_core_fb/core_fb_conversion.h Pages: 1 -->
<svg width="2217pt" height="429pt"
 viewBox="0.00 0.00 2217.00 429.00" xmlns="http://www.w3.org/2000/svg" xmlns:xlink="http://www.w3.org/1999/xlink">
<g id="graph0" class="graph" transform="scale(1 1) rotate(0) translate(4 425)">
<title>seerep_srv/seerep_core_fb/include/seerep_core_fb/core_fb_conversion.h</title>
<!-- Node1 -->
<g id="node1" class="node">
<title>Node1</title>
<g id="a_node1"><a xlink:title=" ">
<polygon fill="#bfbfbf" stroke="black" points="950.5,-379.5 950.5,-420.5 1088.5,-420.5 1088.5,-379.5 950.5,-379.5"/>
<text text-anchor="start" x="958.5" y="-408.5" font-family="Helvetica,sans-Serif" font-size="10.00">seerep_srv/seerep_core</text>
<text text-anchor="start" x="958.5" y="-397.5" font-family="Helvetica,sans-Serif" font-size="10.00">_fb/include/seerep_core</text>
<text text-anchor="middle" x="1019.5" y="-386.5" font-family="Helvetica,sans-Serif" font-size="10.00">_fb/core_fb_conversion.h</text>
</a>
</g>
</g>
<!-- Node2 -->
<g id="node2" class="node">
<title>Node2</title>
<g id="a_node2"><a xlink:href="core__fb__camera__intrinsics_8h.html" target="_top" xlink:title=" ">
<polygon fill="none" stroke="black" points="344,-223.5 344,-264.5 515,-264.5 515,-223.5 344,-223.5"/>
<text text-anchor="start" x="352" y="-252.5" font-family="Helvetica,sans-Serif" font-size="10.00">seerep_srv/seerep_core</text>
<text text-anchor="start" x="352" y="-241.5" font-family="Helvetica,sans-Serif" font-size="10.00">_fb/include/seerep_core</text>
<text text-anchor="middle" x="429.5" y="-230.5" font-family="Helvetica,sans-Serif" font-size="10.00">_fb/core_fb_camera_intrinsics.h</text>
</a>
</g>
</g>
<!-- Node1&#45;&gt;Node2 -->
<g id="edge1" class="edge">
<title>Node1&#45;&gt;Node2</title>
<path fill="none" stroke="midnightblue" d="M940.57,-383.94C888.13,-373.5 817.9,-358.71 756.5,-343 662.34,-318.91 554.62,-285.46 489.36,-264.54"/>
<polygon fill="midnightblue" stroke="midnightblue" points="939.99,-387.39 950.48,-385.9 941.35,-380.52 939.99,-387.39"/>
</g>
<!-- Node4 -->
<g id="node4" class="node">
<title>Node4</title>
<g id="a_node4"><a xlink:href="fb__cameraintrinsics__service_8h.html" target="_top" xlink:title=" ">
<polygon fill="none" stroke="black" points="0,-145.5 0,-186.5 165,-186.5 165,-145.5 0,-145.5"/>
<text text-anchor="start" x="8" y="-174.5" font-family="Helvetica,sans-Serif" font-size="10.00">seerep_srv/seerep_server</text>
<text text-anchor="start" x="8" y="-163.5" font-family="Helvetica,sans-Serif" font-size="10.00">/include/seerep_server</text>
<text text-anchor="middle" x="82.5" y="-152.5" font-family="Helvetica,sans-Serif" font-size="10.00">/fb_cameraintrinsics_service.h</text>
</a>
</g>
</g>
<!-- Node1&#45;&gt;Node4 -->
<g id="edge40" class="edge">
<title>Node1&#45;&gt;Node4</title>
<path fill="none" stroke="midnightblue" d="M940.13,-391.56C856.93,-382.98 722.68,-366.9 608.5,-343 484.57,-317.05 454.52,-305.32 334.5,-265 261.75,-240.56 179.13,-207.36 128.93,-186.56"/>
<polygon fill="midnightblue" stroke="midnightblue" points="939.96,-395.06 950.27,-392.6 940.68,-388.1 939.96,-395.06"/>
</g>
<!-- Node8 -->
<g id="node8" class="node">
<title>Node8</title>
<g id="a_node8"><a xlink:href="core__fb__general_8h.html" target="_top" xlink:title=" ">
<polygon fill="none" stroke="black" points="833.5,-301.5 833.5,-342.5 965.5,-342.5 965.5,-301.5 833.5,-301.5"/>
<text text-anchor="start" x="841.5" y="-330.5" font-family="Helvetica,sans-Serif" font-size="10.00">seerep_srv/seerep_core</text>
<text text-anchor="start" x="841.5" y="-319.5" font-family="Helvetica,sans-Serif" font-size="10.00">_fb/include/seerep_core</text>
<text text-anchor="middle" x="899.5" y="-308.5" font-family="Helvetica,sans-Serif" font-size="10.00">_fb/core_fb_general.h</text>
</a>
</g>
</g>
<!-- Node1&#45;&gt;Node8 -->
<g id="edge7" class="edge">
<title>Node1&#45;&gt;Node8</title>
<path fill="none" stroke="midnightblue" d="M979.9,-373.92C963.77,-363.7 945.4,-352.07 930.3,-342.51"/>
<polygon fill="midnightblue" stroke="midnightblue" points="978.28,-377.03 988.6,-379.43 982.02,-371.12 978.28,-377.03"/>
</g>
<!-- Node9 -->
<g id="node9" class="node">
<title>Node9</title>
<g id="a_node9"><a xlink:href="core__fb__image_8h.html" target="_top" xlink:title=" ">
<polygon fill="none" stroke="black" points="629.5,-223.5 629.5,-264.5 761.5,-264.5 761.5,-223.5 629.5,-223.5"/>
<text text-anchor="start" x="637.5" y="-252.5" font-family="Helvetica,sans-Serif" font-size="10.00">seerep_srv/seerep_core</text>
<text text-anchor="start" x="637.5" y="-241.5" font-family="Helvetica,sans-Serif" font-size="10.00">_fb/include/seerep_core</text>
<text text-anchor="middle" x="695.5" y="-230.5" font-family="Helvetica,sans-Serif" font-size="10.00">_fb/core_fb_image.h</text>
</a>
</g>
</g>
<!-- Node1&#45;&gt;Node9 -->
<g id="edge30" class="edge">
<title>Node1&#45;&gt;Node9</title>
<path fill="none" stroke="midnightblue" d="M940.32,-383.31C903.87,-374.34 860.77,-361.18 824.5,-343 782.51,-321.95 740.41,-286.66 716.21,-264.67"/>
<polygon fill="midnightblue" stroke="midnightblue" points="939.87,-386.8 950.41,-385.73 941.5,-379.99 939.87,-386.8"/>
</g>
<!-- Node13 -->
<g id="node13" class="node">
<title>Node13</title>
<g id="a_node13"><a xlink:href="core__fb__point_8h.html" target="_top" xlink:title=" ">
<polygon fill="none" stroke="black" points="827.5,-223.5 827.5,-264.5 959.5,-264.5 959.5,-223.5 827.5,-223.5"/>
<text text-anchor="start" x="835.5" y="-252.5" font-family="Helvetica,sans-Serif" font-size="10.00">seerep_srv/seerep_core</text>
<text text-anchor="start" x="835.5" y="-241.5" font-family="Helvetica,sans-Serif" font-size="10.00">_fb/include/seerep_core</text>
<text text-anchor="middle" x="893.5" y="-230.5" font-family="Helvetica,sans-Serif" font-size="10.00">_fb/core_fb_point.h</text>
</a>
</g>
</g>
<!-- Node1&#45;&gt;Node13 -->
<g id="edge36" class="edge">
<title>Node1&#45;&gt;Node13</title>
<path fill="none" stroke="midnightblue" d="M1010.68,-369.65C1003.39,-348.87 991.46,-321.21 974.5,-301 962.3,-286.46 945.45,-274 930.28,-264.55"/>
<polygon fill="midnightblue" stroke="midnightblue" points="1007.4,-370.87 1013.89,-379.24 1014.03,-368.65 1007.4,-370.87"/>
</g>
<!-- Node17 -->
<g id="node17" class="node">
<title>Node17</title>
<g id="a_node17"><a xlink:href="core__fb__pointcloud_8h.html" target="_top" xlink:title=" ">
<polygon fill="none" stroke="black" points="985.5,-223.5 985.5,-264.5 1121.5,-264.5 1121.5,-223.5 985.5,-223.5"/>
<text text-anchor="start" x="993.5" y="-252.5" font-family="Helvetica,sans-Serif" font-size="10.00">seerep_srv/seerep_core</text>
<text text-anchor="start" x="993.5" y="-241.5" font-family="Helvetica,sans-Serif" font-size="10.00">_fb/include/seerep_core</text>
<text text-anchor="middle" x="1053.5" y="-230.5" font-family="Helvetica,sans-Serif" font-size="10.00">_fb/core_fb_pointcloud.h</text>
</a>
</g>
</g>
<!-- Node1&#45;&gt;Node17 -->
<g id="edge37" class="edge">
<title>Node1&#45;&gt;Node17</title>
<path fill="none" stroke="midnightblue" d="M1026.04,-369.36C1032.83,-338.61 1043.27,-291.36 1049.12,-264.83"/>
<polygon fill="midnightblue" stroke="midnightblue" points="1022.54,-368.98 1023.81,-379.5 1029.38,-370.49 1022.54,-368.98"/>
</g>
<!-- Node22 -->
<g id="node22" class="node">
<title>Node22</title>
<g id="a_node22"><a xlink:href="core__fb__tf_8h.html" target="_top" xlink:title=" ">
<polygon fill="none" stroke="black" points="1365.5,-223.5 1365.5,-264.5 1497.5,-264.5 1497.5,-223.5 1365.5,-223.5"/>
<text text-anchor="start" x="1373.5" y="-252.5" font-family="Helvetica,sans-Serif" font-size="10.00">seerep_srv/seerep_core</text>
<text text-anchor="start" x="1373.5" y="-241.5" font-family="Helvetica,sans-Serif" font-size="10.00">_fb/include/seerep_core</text>
<text text-anchor="middle" x="1431.5" y="-230.5" font-family="Helvetica,sans-Serif" font-size="10.00">_fb/core_fb_tf.h</text>
</a>
</g>
</g>
<!-- Node1&#45;&gt;Node22 -->
<g id="edge38" class="edge">
<title>Node1&#45;&gt;Node22</title>
<path fill="none" stroke="midnightblue" d="M1081.25,-375.92C1162.26,-345.64 1303.02,-293.02 1379.09,-264.59"/>
<polygon fill="midnightblue" stroke="midnightblue" points="1079.82,-372.72 1071.68,-379.5 1082.27,-379.27 1079.82,-372.72"/>
</g>
<!-- Node26 -->
<g id="node26" class="node">
<title>Node26</title>
<g id="a_node26"><a xlink:href="core__fb__instance_8h.html" target="_top" xlink:title=" ">
<polygon fill="none" stroke="black" points="1672.5,-301.5 1672.5,-342.5 1804.5,-342.5 1804.5,-301.5 1672.5,-301.5"/>
<text text-anchor="start" x="1680.5" y="-330.5" font-family="Helvetica,sans-Serif" font-size="10.00">seerep_srv/seerep_core</text>
<text text-anchor="start" x="1680.5" y="-319.5" font-family="Helvetica,sans-Serif" font-size="10.00">_fb/include/seerep_core</text>
<text text-anchor="middle" x="1738.5" y="-308.5" font-family="Helvetica,sans-Serif" font-size="10.00">_fb/core_fb_instance.h</text>
</a>
</g>
</g>
<!-- Node1&#45;&gt;Node26 -->
<g id="edge31" class="edge">
<title>Node1&#45;&gt;Node26</title>
<path fill="none" stroke="midnightblue" d="M1098.78,-390.62C1241.67,-375.52 1539.84,-344 1672.45,-329.98"/>
<polygon fill="midnightblue" stroke="midnightblue" points="1098.34,-387.15 1088.77,-391.68 1099.08,-394.11 1098.34,-387.15"/>
</g>
<!-- Node30 -->
<g id="node30" class="node">
<title>Node30</title>
<g id="a_node30"><a xlink:href="core__fb__conversion_8cpp.html" target="_top" xlink:title=" ">
<polygon fill="none" stroke="black" points="2042,-307 2042,-337 2209,-337 2209,-307 2042,-307"/>
<text text-anchor="start" x="2050" y="-325" font-family="Helvetica,sans-Serif" font-size="10.00">seerep_srv/seerep_core</text>
<text text-anchor="middle" x="2125.5" y="-314" font-family="Helvetica,sans-Serif" font-size="10.00">_fb/src/core_fb_conversion.cpp</text>
</a>
</g>
</g>
<!-- Node1&#45;&gt;Node30 -->
<g id="edge39" class="edge">
<title>Node1&#45;&gt;Node30</title>
<path fill="none" stroke="midnightblue" d="M1098.82,-398.83C1270.08,-397.53 1686.93,-389.42 2032.5,-343 2043.63,-341.5 2055.41,-339.39 2066.71,-337.1"/>
<polygon fill="midnightblue" stroke="midnightblue" points="1098.61,-395.33 1088.63,-398.9 1098.66,-402.33 1098.61,-395.33"/>
</g>
<!-- Node31 -->
<g id="node31" class="node">
<title>Node31</title>
<g id="a_node31"><a xlink:href="fb__meta__operations_8h.html" target="_top" xlink:title=" ">
<polygon fill="none" stroke="black" points="1881.5,-301.5 1881.5,-342.5 2023.5,-342.5 2023.5,-301.5 1881.5,-301.5"/>
<text text-anchor="start" x="1889.5" y="-330.5" font-family="Helvetica,sans-Serif" font-size="10.00">seerep_srv/seerep_server</text>
<text text-anchor="start" x="1889.5" y="-319.5" font-family="Helvetica,sans-Serif" font-size="10.00">/include/seerep_server</text>
<text text-anchor="middle" x="1952.5" y="-308.5" font-family="Helvetica,sans-Serif" font-size="10.00">/fb_meta_operations.h</text>
</a>
</g>
</g>
<!-- Node1&#45;&gt;Node31 -->
<g id="edge41" class="edge">
<title>Node1&#45;&gt;Node31</title>
<path fill="none" stroke="midnightblue" d="M1098.69,-395.32C1241.71,-388.25 1552.51,-370.94 1813.5,-343 1835.56,-340.64 1859.5,-337.43 1881.2,-334.27"/>
<polygon fill="midnightblue" stroke="midnightblue" points="1098.5,-391.82 1088.68,-395.81 1098.84,-398.82 1098.5,-391.82"/>
</g>
<!-- Node3 -->
<g id="node3" class="node">
<title>Node3</title>
<g id="a_node3"><a xlink:href="core__fb__camera__intrinsics_8cpp.html" target="_top" xlink:title=" ">
<polygon fill="none" stroke="black" points="183.5,-145.5 183.5,-186.5 315.5,-186.5 315.5,-145.5 183.5,-145.5"/>
<text text-anchor="start" x="191.5" y="-174.5" font-family="Helvetica,sans-Serif" font-size="10.00">seerep_srv/seerep_core</text>
<text text-anchor="start" x="191.5" y="-163.5" font-family="Helvetica,sans-Serif" font-size="10.00">_fb/src/core_fb_camera</text>
<text text-anchor="middle" x="249.5" y="-152.5" font-family="Helvetica,sans-Serif" font-size="10.00">_intrinsics.cpp</text>
</a>
</g>
</g>
<!-- Node2&#45;&gt;Node3 -->
<g id="edge2" class="edge">
<title>Node2&#45;&gt;Node3</title>
<path fill="none" stroke="midnightblue" d="M373.77,-219.47C348.72,-208.89 319.5,-196.56 295.7,-186.51"/>
<polygon fill="midnightblue" stroke="midnightblue" points="372.57,-222.76 383.15,-223.43 375.29,-216.31 372.57,-222.76"/>
</g>
<!-- Node2&#45;&gt;Node4 -->
<g id="edge3" class="edge">
<title>Node2&#45;&gt;Node4</title>
<path fill="none" stroke="midnightblue" d="M333.66,-222.01C280.8,-210.43 215.82,-196.2 165.2,-185.11"/>
<polygon fill="midnightblue" stroke="midnightblue" points="333.21,-225.49 343.72,-224.21 334.71,-218.65 333.21,-225.49"/>
</g>
<!-- Node5 -->
<g id="node5" class="node">
<title>Node5</title>
<g id="a_node5"><a xlink:href="server_8h.html" target="_top" xlink:title=" ">
<polygon fill="none" stroke="black" points="1215.5,-67.5 1215.5,-108.5 1357.5,-108.5 1357.5,-67.5 1215.5,-67.5"/>
<text text-anchor="start" x="1223.5" y="-96.5" font-family="Helvetica,sans-Serif" font-size="10.00">seerep_srv/seerep_server</text>
<text text-anchor="start" x="1223.5" y="-85.5" font-family="Helvetica,sans-Serif" font-size="10.00">/include/seerep_server</text>
<text text-anchor="middle" x="1286.5" y="-74.5" font-family="Helvetica,sans-Serif" font-size="10.00">/server.h</text>
</a>
</g>
</g>
<!-- Node4&#45;&gt;Node5 -->
<g id="edge4" class="edge">
<title>Node4&#45;&gt;Node5</title>
<path fill="none" stroke="midnightblue" d="M175.22,-145.15C314.13,-129.79 992.06,-101.11 1215.21,-91.91"/>
<polygon fill="midnightblue" stroke="midnightblue" points="174.65,-141.69 165.14,-146.37 175.49,-148.64 174.65,-141.69"/>
</g>
<!-- Node7 -->
<g id="node7" class="node">
<title>Node7</title>
<g id="a_node7"><a xlink:href="fb__cameraintrinsics__service_8cpp.html" target="_top" xlink:title=" ">
<polygon fill="none" stroke="black" points="11.5,-67.5 11.5,-108.5 153.5,-108.5 153.5,-67.5 11.5,-67.5"/>
<text text-anchor="start" x="19.5" y="-96.5" font-family="Helvetica,sans-Serif" font-size="10.00">seerep_srv/seerep_server</text>
<text text-anchor="start" x="19.5" y="-85.5" font-family="Helvetica,sans-Serif" font-size="10.00">/src/fb_cameraintrinsics</text>
<text text-anchor="middle" x="82.5" y="-74.5" font-family="Helvetica,sans-Serif" font-size="10.00">_service.cpp</text>
</a>
</g>
</g>
<!-- Node4&#45;&gt;Node7 -->
<g id="edge6" class="edge">
<title>Node4&#45;&gt;Node7</title>
<path fill="none" stroke="midnightblue" d="M82.5,-135.3C82.5,-126.3 82.5,-116.65 82.5,-108.51"/>
<polygon fill="midnightblue" stroke="midnightblue" points="79,-135.43 82.5,-145.43 86,-135.43 79,-135.43"/>
</g>
<!-- Node6 -->
<g id="node6" class="node">
<title>Node6</title>
<g id="a_node6"><a xlink:href="server_8cpp.html" target="_top" xlink:title=" ">
<polygon fill="none" stroke="black" points="1215.5,-0.5 1215.5,-30.5 1357.5,-30.5 1357.5,-0.5 1215.5,-0.5"/>
<text text-anchor="start" x="1223.5" y="-18.5" font-family="Helvetica,sans-Serif" font-size="10.00">seerep_srv/seerep_server</text>
<text text-anchor="middle" x="1286.5" y="-7.5" font-family="Helvetica,sans-Serif" font-size="10.00">/src/server.cpp</text>
</a>
</g>
</g>
<!-- Node5&#45;&gt;Node6 -->
<g id="edge5" class="edge">
<title>Node5&#45;&gt;Node6</title>
<path fill="none" stroke="midnightblue" d="M1286.5,-57.08C1286.5,-48.01 1286.5,-38.45 1286.5,-30.89"/>
<polygon fill="midnightblue" stroke="midnightblue" points="1283,-57.36 1286.5,-67.36 1290,-57.36 1283,-57.36"/>
</g>
<!-- Node8&#45;&gt;Node2 -->
<g id="edge8" class="edge">
<title>Node8&#45;&gt;Node2</title>
<path fill="none" stroke="midnightblue" d="M823.12,-308.65C738.67,-294.99 602.96,-273.05 515.02,-258.83"/>
<polygon fill="midnightblue" stroke="midnightblue" points="822.73,-312.13 833.16,-310.27 823.84,-305.22 822.73,-312.13"/>
</g>
<!-- Node8&#45;&gt;Node9 -->
<g id="edge9" class="edge">
<title>Node8&#45;&gt;Node9</title>
<path fill="none" stroke="midnightblue" d="M837.46,-297.89C808.82,-287.22 775.19,-274.69 747.86,-264.51"/>
<polygon fill="midnightblue" stroke="midnightblue" points="836.37,-301.22 846.96,-301.43 838.82,-294.66 836.37,-301.22"/>
</g>
<!-- Node8&#45;&gt;Node13 -->
<g id="edge14" class="edge">
<title>Node8&#45;&gt;Node13</title>
<path fill="none" stroke="midnightblue" d="M897.15,-291.3C896.44,-282.3 895.68,-272.65 895.04,-264.51"/>
<polygon fill="midnightblue" stroke="midnightblue" points="893.68,-291.73 897.95,-301.43 900.66,-291.18 893.68,-291.73"/>
</g>
<!-- Node8&#45;&gt;Node17 -->
<g id="edge19" class="edge">
<title>Node8&#45;&gt;Node17</title>
<path fill="none" stroke="midnightblue" d="M948.32,-296.91C969.49,-286.46 993.97,-274.38 1013.98,-264.51"/>
<polygon fill="midnightblue" stroke="midnightblue" points="946.58,-293.86 939.16,-301.43 949.68,-300.14 946.58,-293.86"/>
</g>
<!-- Node8&#45;&gt;Node22 -->
<g id="edge25" class="edge">
<title>Node8&#45;&gt;Node22</title>
<path fill="none" stroke="midnightblue" d="M975.69,-310.12C1080.14,-295.19 1266.09,-268.63 1365.12,-254.48"/>
<polygon fill="midnightblue" stroke="midnightblue" points="974.94,-306.69 965.53,-311.57 975.93,-313.62 974.94,-306.69"/>
</g>
<!-- Node10 -->
<g id="node10" class="node">
<title>Node10</title>
<g id="a_node10"><a xlink:href="core__fb__image_8cpp.html" target="_top" xlink:title=" ">
<polygon fill="none" stroke="black" points="493.5,-151 493.5,-181 637.5,-181 637.5,-151 493.5,-151"/>
<text text-anchor="start" x="501.5" y="-169" font-family="Helvetica,sans-Serif" font-size="10.00">seerep_srv/seerep_core</text>
<text text-anchor="middle" x="565.5" y="-158" font-family="Helvetica,sans-Serif" font-size="10.00">_fb/src/core_fb_image.cpp</text>
</a>
</g>
</g>
<!-- Node9&#45;&gt;Node10 -->
<g id="edge10" class="edge">
<title>Node9&#45;&gt;Node10</title>
<path fill="none" stroke="midnightblue" d="M653.28,-218.31C632.28,-206.04 607.65,-191.64 589.83,-181.23"/>
<polygon fill="midnightblue" stroke="midnightblue" points="651.62,-221.4 662.02,-223.43 655.16,-215.36 651.62,-221.4"/>
</g>
<!-- Node11 -->
<g id="node11" class="node">
<title>Node11</title>
<g id="a_node11"><a xlink:href="fb__image__service_8h.html" target="_top" xlink:title=" ">
<polygon fill="none" stroke="black" points="333.5,-145.5 333.5,-186.5 475.5,-186.5 475.5,-145.5 333.5,-145.5"/>
<text text-anchor="start" x="341.5" y="-174.5" font-family="Helvetica,sans-Serif" font-size="10.00">seerep_srv/seerep_server</text>
<text text-anchor="start" x="341.5" y="-163.5" font-family="Helvetica,sans-Serif" font-size="10.00">/include/seerep_server</text>
<text text-anchor="middle" x="404.5" y="-152.5" font-family="Helvetica,sans-Serif" font-size="10.00">/fb_image_service.h</text>
</a>
</g>
</g>
<!-- Node9&#45;&gt;Node11 -->
<g id="edge11" class="edge">
<title>Node9&#45;&gt;Node11</title>
<path fill="none" stroke="midnightblue" d="M619.58,-223.17C575.09,-211.55 519.25,-196.97 475.61,-185.57"/>
<polygon fill="midnightblue" stroke="midnightblue" points="618.91,-226.61 629.47,-225.75 620.68,-219.84 618.91,-226.61"/>
</g>
<!-- Node11&#45;&gt;Node5 -->
<g id="edge12" class="edge">
<title>Node11&#45;&gt;Node5</title>
<path fill="none" stroke="midnightblue" d="M485.84,-144.97C642.34,-121.87 1049.84,-100.45 1215.29,-92.37"/>
<polygon fill="midnightblue" stroke="midnightblue" points="485.26,-141.52 475.9,-146.49 486.32,-148.44 485.26,-141.52"/>
</g>
<!-- Node12 -->
<g id="node12" class="node">
<title>Node12</title>
<g id="a_node12"><a xlink:href="fb__image__service_8cpp.html" target="_top" xlink:title=" ">
<polygon fill="none" stroke="black" points="333,-73 333,-103 476,-103 476,-73 333,-73"/>
<text text-anchor="start" x="341" y="-91" font-family="Helvetica,sans-Serif" font-size="10.00">seerep_srv/seerep_server</text>
<text text-anchor="middle" x="404.5" y="-80" font-family="Helvetica,sans-Serif" font-size="10.00">/src/fb_image_service.cpp</text>
</a>
</g>
</g>
<!-- Node11&#45;&gt;Node12 -->
<g id="edge13" class="edge">
<title>Node11&#45;&gt;Node12</title>
<path fill="none" stroke="midnightblue" d="M404.5,-135.28C404.5,-124.25 404.5,-112.25 404.5,-103.23"/>
<polygon fill="midnightblue" stroke="midnightblue" points="401,-135.43 404.5,-145.43 408,-135.43 401,-135.43"/>
</g>
<!-- Node14 -->
<g id="node14" class="node">
<title>Node14</title>
<g id="a_node14"><a xlink:href="core__fb__point_8cpp.html" target="_top" xlink:title=" ">
<polygon fill="none" stroke="black" points="815.5,-151 815.5,-181 953.5,-181 953.5,-151 815.5,-151"/>
<text text-anchor="start" x="823.5" y="-169" font-family="Helvetica,sans-Serif" font-size="10.00">seerep_srv/seerep_core</text>
<text text-anchor="middle" x="884.5" y="-158" font-family="Helvetica,sans-Serif" font-size="10.00">_fb/src/core_fb_point.cpp</text>
</a>
</g>
</g>
<!-- Node13&#45;&gt;Node14 -->
<g id="edge15" class="edge">
<title>Node13&#45;&gt;Node14</title>
<path fill="none" stroke="midnightblue" d="M889.98,-213.28C888.67,-202.25 887.25,-190.25 886.18,-181.23"/>
<polygon fill="midnightblue" stroke="midnightblue" points="886.53,-213.91 891.18,-223.43 893.48,-213.09 886.53,-213.91"/>
</g>
<!-- Node15 -->
<g id="node15" class="node">
<title>Node15</title>
<g id="a_node15"><a xlink:href="fb__point__service_8h.html" target="_top" xlink:title=" ">
<polygon fill="none" stroke="black" points="655.5,-145.5 655.5,-186.5 797.5,-186.5 797.5,-145.5 655.5,-145.5"/>
<text text-anchor="start" x="663.5" y="-174.5" font-family="Helvetica,sans-Serif" font-size="10.00">seerep_srv/seerep_server</text>
<text text-anchor="start" x="663.5" y="-163.5" font-family="Helvetica,sans-Serif" font-size="10.00">/include/seerep_server</text>
<text text-anchor="middle" x="726.5" y="-152.5" font-family="Helvetica,sans-Serif" font-size="10.00">/fb_point_service.h</text>
</a>
</g>
</g>
<!-- Node13&#45;&gt;Node15 -->
<g id="edge16" class="edge">
<title>Node13&#45;&gt;Node15</title>
<path fill="none" stroke="midnightblue" d="M841.18,-219.19C818.08,-208.67 791.25,-196.47 769.36,-186.51"/>
<polygon fill="midnightblue" stroke="midnightblue" points="839.94,-222.47 850.49,-223.43 842.84,-216.1 839.94,-222.47"/>
</g>
<!-- Node15&#45;&gt;Node5 -->
<g id="edge17" class="edge">
<title>Node15&#45;&gt;Node5</title>
<path fill="none" stroke="midnightblue" d="M807.79,-144.87C957.82,-118.01 1123.25,-102.07 1215.32,-94.42"/>
<polygon fill="midnightblue" stroke="midnightblue" points="807.15,-141.43 797.93,-146.66 808.39,-148.32 807.15,-141.43"/>
</g>
<!-- Node16 -->
<g id="node16" class="node">
<title>Node16</title>
<g id="a_node16"><a xlink:href="fb__point__service_8cpp.html" target="_top" xlink:title=" ">
<polygon fill="none" stroke="black" points="655.5,-73 655.5,-103 797.5,-103 797.5,-73 655.5,-73"/>
<text text-anchor="start" x="663.5" y="-91" font-family="Helvetica,sans-Serif" font-size="10.00">seerep_srv/seerep_server</text>
<text text-anchor="middle" x="726.5" y="-80" font-family="Helvetica,sans-Serif" font-size="10.00">/src/fb_point_service.cpp</text>
</a>
</g>
</g>
<!-- Node15&#45;&gt;Node16 -->
<g id="edge18" class="edge">
<title>Node15&#45;&gt;Node16</title>
<path fill="none" stroke="midnightblue" d="M726.5,-135.28C726.5,-124.25 726.5,-112.25 726.5,-103.23"/>
<polygon fill="midnightblue" stroke="midnightblue" points="723,-135.43 726.5,-145.43 730,-135.43 723,-135.43"/>
</g>
<!-- Node18 -->
<g id="node18" class="node">
<title>Node18</title>
<g id="a_node18"><a xlink:href="core__fb__general_8cpp.html" target="_top" xlink:title=" ">
<polygon fill="none" stroke="black" points="1153.5,-151 1153.5,-181 1303.5,-181 1303.5,-151 1153.5,-151"/>
<text text-anchor="start" x="1161.5" y="-169" font-family="Helvetica,sans-Serif" font-size="10.00">seerep_srv/seerep_core</text>
<text text-anchor="middle" x="1228.5" y="-158" font-family="Helvetica,sans-Serif" font-size="10.00">_fb/src/core_fb_general.cpp</text>
</a>
</g>
</g>
<!-- Node17&#45;&gt;Node18 -->
<g id="edge20" class="edge">
<title>Node17&#45;&gt;Node18</title>
<path fill="none" stroke="midnightblue" d="M1108.11,-219.28C1136.96,-206.76 1171.38,-191.81 1196.02,-181.11"/>
<polygon fill="midnightblue" stroke="midnightblue" points="1106.35,-216.23 1098.57,-223.43 1109.13,-222.65 1106.35,-216.23"/>
</g>
<!-- Node19 -->
<g id="node19" class="node">
<title>Node19</title>
<g id="a_node19"><a xlink:href="core__fb__pointcloud_8cpp.html" target="_top" xlink:title=" ">
<polygon fill="none" stroke="black" points="971.5,-151 971.5,-181 1135.5,-181 1135.5,-151 971.5,-151"/>
<text text-anchor="start" x="979.5" y="-169" font-family="Helvetica,sans-Serif" font-size="10.00">seerep_srv/seerep_core</text>
<text text-anchor="middle" x="1053.5" y="-158" font-family="Helvetica,sans-Serif" font-size="10.00">_fb/src/core_fb_pointcloud.cpp</text>
</a>
</g>
</g>
<!-- Node17&#45;&gt;Node19 -->
<g id="edge21" class="edge">
<title>Node17&#45;&gt;Node19</title>
<path fill="none" stroke="midnightblue" d="M1053.5,-213.28C1053.5,-202.25 1053.5,-190.25 1053.5,-181.23"/>
<polygon fill="midnightblue" stroke="midnightblue" points="1050,-213.43 1053.5,-223.43 1057,-213.43 1050,-213.43"/>
</g>
<!-- Node20 -->
<g id="node20" class="node">
<title>Node20</title>
<g id="a_node20"><a xlink:href="fb__point__cloud__service_8h.html" target="_top" xlink:title=" ">
<polygon fill="none" stroke="black" points="1321.5,-145.5 1321.5,-186.5 1463.5,-186.5 1463.5,-145.5 1321.5,-145.5"/>
<text text-anchor="start" x="1329.5" y="-174.5" font-family="Helvetica,sans-Serif" font-size="10.00">seerep_srv/seerep_server</text>
<text text-anchor="start" x="1329.5" y="-163.5" font-family="Helvetica,sans-Serif" font-size="10.00">/include/seerep_server</text>
<text text-anchor="middle" x="1392.5" y="-152.5" font-family="Helvetica,sans-Serif" font-size="10.00">/fb_point_cloud_service.h</text>
</a>
</g>
</g>
<!-- Node17&#45;&gt;Node20 -->
<g id="edge22" class="edge">
<title>Node17&#45;&gt;Node20</title>
<path fill="none" stroke="midnightblue" d="M1131.58,-226.8C1183.06,-215.95 1251.91,-201.12 1312.5,-187 1315.43,-186.32 1318.41,-185.61 1321.43,-184.89"/>
<polygon fill="midnightblue" stroke="midnightblue" points="1130.59,-223.43 1121.53,-228.91 1132.03,-230.28 1130.59,-223.43"/>
</g>
<!-- Node20&#45;&gt;Node5 -->
<g id="edge23" class="edge">
<title>Node20&#45;&gt;Node5</title>
<path fill="none" stroke="midnightblue" d="M1356.73,-139.35C1342.67,-129.27 1326.8,-117.89 1313.71,-108.51"/>
<polygon fill="midnightblue" stroke="midnightblue" points="1355.04,-142.45 1365.2,-145.43 1359.11,-136.76 1355.04,-142.45"/>
</g>
<!-- Node21 -->
<g id="node21" class="node">
<title>Node21</title>
<g id="a_node21"><a xlink:href="fb__point__cloud__service_8cpp.html" target="_top" xlink:title=" ">
<polygon fill="none" stroke="black" points="1376,-73 1376,-103 1545,-103 1545,-73 1376,-73"/>
<text text-anchor="start" x="1384" y="-91" font-family="Helvetica,sans-Serif" font-size="10.00">seerep_srv/seerep_server</text>
<text text-anchor="middle" x="1460.5" y="-80" font-family="Helvetica,sans-Serif" font-size="10.00">/src/fb_point_cloud_service.cpp</text>
</a>
</g>
</g>
<!-- Node20&#45;&gt;Node21 -->
<g id="edge24" class="edge">
<title>Node20&#45;&gt;Node21</title>
<path fill="none" stroke="midnightblue" d="M1416.97,-137.65C1427.39,-126 1439.12,-112.9 1447.77,-103.23"/>
<polygon fill="midnightblue" stroke="midnightblue" points="1414.07,-135.64 1410.01,-145.43 1419.29,-140.31 1414.07,-135.64"/>
</g>
<!-- Node23 -->
<g id="node23" class="node">
<title>Node23</title>
<g id="a_node23"><a xlink:href="core__fb__tf_8cpp.html" target="_top" xlink:title=" ">
<polygon fill="none" stroke="black" points="1481.5,-151 1481.5,-181 1613.5,-181 1613.5,-151 1481.5,-151"/>
<text text-anchor="start" x="1489.5" y="-169" font-family="Helvetica,sans-Serif" font-size="10.00">seerep_srv/seerep_core</text>
<text text-anchor="middle" x="1547.5" y="-158" font-family="Helvetica,sans-Serif" font-size="10.00">_fb/src/core_fb_tf.cpp</text>
</a>
</g>
</g>
<!-- Node22&#45;&gt;Node23 -->
<g id="edge26" class="edge">
<title>Node22&#45;&gt;Node23</title>
<path fill="none" stroke="midnightblue" d="M1469.93,-217.82C1488.5,-205.65 1510.1,-191.5 1525.79,-181.23"/>
<polygon fill="midnightblue" stroke="midnightblue" points="1467.82,-215.02 1461.37,-223.43 1471.66,-220.88 1467.82,-215.02"/>
</g>
<!-- Node24 -->
<g id="node24" class="node">
<title>Node24</title>
<g id="a_node24"><a xlink:href="fb__tf__service_8h.html" target="_top" xlink:title=" ">
<polygon fill="none" stroke="black" points="1631.5,-145.5 1631.5,-186.5 1773.5,-186.5 1773.5,-145.5 1631.5,-145.5"/>
<text text-anchor="start" x="1639.5" y="-174.5" font-family="Helvetica,sans-Serif" font-size="10.00">seerep_srv/seerep_server</text>
<text text-anchor="start" x="1639.5" y="-163.5" font-family="Helvetica,sans-Serif" font-size="10.00">/include/seerep_server</text>
<text text-anchor="middle" x="1702.5" y="-152.5" font-family="Helvetica,sans-Serif" font-size="10.00">/fb_tf_service.h</text>
</a>
</g>
</g>
<!-- Node22&#45;&gt;Node24 -->
<g id="edge27" class="edge">
<title>Node22&#45;&gt;Node24</title>
<path fill="none" stroke="midnightblue" d="M1507.58,-221.66C1546.81,-210.66 1594.33,-197.33 1632.63,-186.59"/>
<polygon fill="midnightblue" stroke="midnightblue" points="1506.48,-218.34 1497.79,-224.41 1508.37,-225.08 1506.48,-218.34"/>
</g>
<!-- Node24&#45;&gt;Node5 -->
<g id="edge28" class="edge">
<title>Node24&#45;&gt;Node5</title>
<path fill="none" stroke="midnightblue" d="M1621.39,-144.89C1508.38,-123.5 1476.69,-130.13 1367.5,-109 1364.23,-108.37 1360.89,-107.69 1357.53,-106.97"/>
<polygon fill="midnightblue" stroke="midnightblue" points="1621,-148.38 1631.49,-146.84 1622.33,-141.51 1621,-148.38"/>
</g>
<!-- Node25 -->
<g id="node25" class="node">
<title>Node25</title>
<g id="a_node25"><a xlink:href="fb__tf__service_8cpp.html" target="_top" xlink:title=" ">
<polygon fill="none" stroke="black" points="1631.5,-73 1631.5,-103 1773.5,-103 1773.5,-73 1631.5,-73"/>
<text text-anchor="start" x="1639.5" y="-91" font-family="Helvetica,sans-Serif" font-size="10.00">seerep_srv/seerep_server</text>
<text text-anchor="middle" x="1702.5" y="-80" font-family="Helvetica,sans-Serif" font-size="10.00">/src/fb_tf_service.cpp</text>
</a>
</g>
</g>
<!-- Node24&#45;&gt;Node25 -->
<g id="edge29" class="edge">
<title>Node24&#45;&gt;Node25</title>
<path fill="none" stroke="midnightblue" d="M1702.5,-135.28C1702.5,-124.25 1702.5,-112.25 1702.5,-103.23"/>
<polygon fill="midnightblue" stroke="midnightblue" points="1699,-135.43 1702.5,-145.43 1706,-135.43 1699,-135.43"/>
</g>
<!-- Node27 -->
<g id="node27" class="node">
<title>Node27</title>
<g id="a_node27"><a xlink:href="core__fb__instance_8cpp.html" target="_top" xlink:title=" ">
<polygon fill="none" stroke="black" points="1828,-229 1828,-259 1983,-259 1983,-229 1828,-229"/>
<text text-anchor="start" x="1836" y="-247" font-family="Helvetica,sans-Serif" font-size="10.00">seerep_srv/seerep_core</text>
<text text-anchor="middle" x="1905.5" y="-236" font-family="Helvetica,sans-Serif" font-size="10.00">_fb/src/core_fb_instance.cpp</text>
</a>
</g>
</g>
<!-- Node26&#45;&gt;Node27 -->
<g id="edge32" class="edge">
<title>Node26&#45;&gt;Node27</title>
<path fill="none" stroke="midnightblue" d="M1790.62,-297.28C1818.14,-284.76 1850.99,-269.81 1874.5,-259.11"/>
<polygon fill="midnightblue" stroke="midnightblue" points="1789.16,-294.1 1781.51,-301.43 1792.06,-300.47 1789.16,-294.1"/>
</g>
<!-- Node28 -->
<g id="node28" class="node">
<title>Node28</title>
<g id="a_node28"><a xlink:href="fb__instance__service_8h.html" target="_top" xlink:title=" ">
<polygon fill="none" stroke="black" points="1667.5,-223.5 1667.5,-264.5 1809.5,-264.5 1809.5,-223.5 1667.5,-223.5"/>
<text text-anchor="start" x="1675.5" y="-252.5" font-family="Helvetica,sans-Serif" font-size="10.00">seerep_srv/seerep_server</text>
<text text-anchor="start" x="1675.5" y="-241.5" font-family="Helvetica,sans-Serif" font-size="10.00">/include/seerep_server</text>
<text text-anchor="middle" x="1738.5" y="-230.5" font-family="Helvetica,sans-Serif" font-size="10.00">/fb_instance_service.h</text>
</a>
</g>
</g>
<!-- Node26&#45;&gt;Node28 -->
<g id="edge33" class="edge">
<title>Node26&#45;&gt;Node28</title>
<path fill="none" stroke="midnightblue" d="M1738.5,-291.3C1738.5,-282.3 1738.5,-272.65 1738.5,-264.51"/>
<polygon fill="midnightblue" stroke="midnightblue" points="1735,-291.43 1738.5,-301.43 1742,-291.43 1735,-291.43"/>
</g>
<!-- Node28&#45;&gt;Node5 -->
<g id="edge34" class="edge">
<title>Node28&#45;&gt;Node5</title>
<path fill="none" stroke="midnightblue" d="M1765.97,-215.52C1783.93,-194.24 1800.94,-165.11 1782.5,-145 1751.22,-110.89 1413.16,-116.57 1367.5,-109 1364.36,-108.48 1361.15,-107.9 1357.93,-107.28"/>
<polygon fill="midnightblue" stroke="midnightblue" points="1763.13,-213.45 1759.11,-223.25 1768.36,-218.09 1763.13,-213.45"/>
</g>
<!-- Node29 -->
<g id="node29" class="node">
<title>Node29</title>
<g id="a_node29"><a xlink:href="fb__instance__service_8cpp.html" target="_top" xlink:title=" ">
<polygon fill="none" stroke="black" points="1829.5,-151 1829.5,-181 1983.5,-181 1983.5,-151 1829.5,-151"/>
<text text-anchor="start" x="1837.5" y="-169" font-family="Helvetica,sans-Serif" font-size="10.00">seerep_srv/seerep_server</text>
<text text-anchor="middle" x="1906.5" y="-158" font-family="Helvetica,sans-Serif" font-size="10.00">/src/fb_instance_service.cpp</text>
</a>
</g>
</g>
<!-- Node28&#45;&gt;Node29 -->
<g id="edge35" class="edge">
<title>Node28&#45;&gt;Node29</title>
<path fill="none" stroke="midnightblue" d="M1790.93,-219.28C1818.62,-206.76 1851.67,-191.81 1875.32,-181.11"/>
<polygon fill="midnightblue" stroke="midnightblue" points="1789.43,-216.12 1781.76,-223.43 1792.32,-222.5 1789.43,-216.12"/>
</g>
<!-- Node31&#45;&gt;Node5 -->
<g id="edge42" class="edge">
<title>Node31&#45;&gt;Node5</title>
<path fill="none" stroke="midnightblue" d="M1977.32,-293.38C1983.5,-284.87 1989.27,-275.07 1992.5,-265 2008.78,-214.21 2029.11,-183.78 1992.5,-145 1944.75,-94.42 1436.28,-119.38 1367.5,-109 1364.35,-108.52 1361.14,-107.98 1357.91,-107.39"/>
<polygon fill="midnightblue" stroke="midnightblue" points="1974.44,-291.38 1971.09,-301.43 1979.98,-295.67 1974.44,-291.38"/>
</g>
<!-- Node32 -->
<g id="node32" class="node">
<title>Node32</title>
<g id="a_node32"><a xlink:href="fb__meta__operations_8cpp.html" target="_top" xlink:title=" ">
<polygon fill="none" stroke="black" points="2040,-229 2040,-259 2195,-259 2195,-229 2040,-229"/>
<text text-anchor="start" x="2048" y="-247" font-family="Helvetica,sans-Serif" font-size="10.00">seerep_srv/seerep_server</text>
<text text-anchor="middle" x="2117.5" y="-236" font-family="Helvetica,sans-Serif" font-size="10.00">/src/fb_meta_operations.cpp</text>
</a>
</g>
</g>
<!-- Node31&#45;&gt;Node32 -->
<g id="edge43" class="edge">
<title>Node31&#45;&gt;Node32</title>
<path fill="none" stroke="midnightblue" d="M2004.35,-297.12C2031.47,-284.63 2063.75,-269.76 2086.87,-259.11"/>
<polygon fill="midnightblue" stroke="midnightblue" points="2002.61,-294.07 1994.99,-301.43 2005.54,-300.42 2002.61,-294.07"/>
</g>
</g>
</svg>
