<?xml version="1.0" encoding="UTF-8" standalone="no"?>
<!DOCTYPE svg PUBLIC "-//W3C//DTD SVG 1.1//EN"
 "http://www.w3.org/Graphics/SVG/1.1/DTD/svg11.dtd">
<!-- Generated by graphviz version 2.43.0 (0)
 -->
<!-- Title: seerep&#45;srv/seerep&#45;core&#45;fb/include/seerep&#45;core&#45;fb/core&#45;fb&#45;conversion.h Pages: 1 -->
<svg width="3347pt" height="117pt"
 viewBox="0.00 0.00 3347.00 117.00" xmlns="http://www.w3.org/2000/svg" xmlns:xlink="http://www.w3.org/1999/xlink">
<g id="graph0" class="graph" transform="scale(1 1) rotate(0) translate(4 113)">
<title>seerep&#45;srv/seerep&#45;core&#45;fb/include/seerep&#45;core&#45;fb/core&#45;fb&#45;conversion.h</title>
<!-- Node1 -->
<g id="node1" class="node">
<title>Node1</title>
<g id="a_node1"><a xlink:title=" ">
<polygon fill="#bfbfbf" stroke="black" points="1546.5,-67.5 1546.5,-108.5 1680.5,-108.5 1680.5,-67.5 1546.5,-67.5"/>
<text text-anchor="start" x="1554.5" y="-96.5" font-family="Helvetica,sans-Serif" font-size="10.00">seerep&#45;srv/seerep&#45;core</text>
<text text-anchor="start" x="1554.5" y="-85.5" font-family="Helvetica,sans-Serif" font-size="10.00">&#45;fb/include/seerep&#45;core</text>
<text text-anchor="middle" x="1613.5" y="-74.5" font-family="Helvetica,sans-Serif" font-size="10.00">&#45;fb/core&#45;fb&#45;conversion.h</text>
</a>
</g>
</g>
<!-- Node2 -->
<g id="node2" class="node">
<title>Node2</title>
<g id="a_node2"><a xlink:title=" ">
<polygon fill="none" stroke="#bfbfbf" points="0,-6 0,-25 65,-25 65,-6 0,-6"/>
<text text-anchor="middle" x="32.5" y="-13" font-family="Helvetica,sans-Serif" font-size="10.00">functional</text>
</a>
</g>
</g>
<!-- Node1&#45;&gt;Node2 -->
<g id="edge1" class="edge">
<title>Node1&#45;&gt;Node2</title>
<path fill="none" stroke="midnightblue" d="M1546.16,-87.19C1288.19,-87.51 362.96,-84.8 74.5,-31 70.79,-30.31 66.97,-29.35 63.21,-28.26"/>
<polygon fill="midnightblue" stroke="midnightblue" points="64.13,-24.88 53.54,-25.13 61.97,-31.54 64.13,-24.88"/>
</g>
<!-- Node3 -->
<g id="node3" class="node">
<title>Node3</title>
<g id="a_node3"><a xlink:title=" ">
<polygon fill="none" stroke="#bfbfbf" points="83.5,-6 83.5,-25 139.5,-25 139.5,-6 83.5,-6"/>
<text text-anchor="middle" x="111.5" y="-13" font-family="Helvetica,sans-Serif" font-size="10.00">optional</text>
</a>
</g>
</g>
<!-- Node1&#45;&gt;Node3 -->
<g id="edge2" class="edge">
<title>Node1&#45;&gt;Node3</title>
<path fill="none" stroke="midnightblue" d="M1546.35,-87.4C1296.48,-88.45 420.85,-87.87 148.5,-31 145.49,-30.37 142.41,-29.52 139.37,-28.55"/>
<polygon fill="midnightblue" stroke="midnightblue" points="140.54,-25.25 129.95,-25.13 138.16,-31.83 140.54,-25.25"/>
</g>
<!-- Node4 -->
<g id="node4" class="node">
<title>Node4</title>
<g id="a_node4"><a xlink:title=" ">
<polygon fill="none" stroke="#bfbfbf" points="157.5,-6 157.5,-25 285.5,-25 285.5,-6 157.5,-6"/>
<text text-anchor="middle" x="221.5" y="-13" font-family="Helvetica,sans-Serif" font-size="10.00">flatbuffers/flatbuffers.h</text>
</a>
</g>
</g>
<!-- Node1&#45;&gt;Node4 -->
<g id="edge3" class="edge">
<title>Node1&#45;&gt;Node4</title>
<path fill="none" stroke="midnightblue" d="M1546.18,-85.51C1313,-80.14 540.7,-60.5 294.5,-31 286.11,-29.99 277.24,-28.56 268.69,-26.97"/>
<polygon fill="midnightblue" stroke="midnightblue" points="269.32,-23.53 258.84,-25.06 267.99,-30.4 269.32,-23.53"/>
</g>
<!-- Node5 -->
<g id="node5" class="node">
<title>Node5</title>
<g id="a_node5"><a xlink:title=" ">
<polygon fill="none" stroke="#bfbfbf" points="304,-6 304,-25 403,-25 403,-6 304,-6"/>
<text text-anchor="middle" x="353.5" y="-13" font-family="Helvetica,sans-Serif" font-size="10.00">flatbuffers/grpc.h</text>
</a>
</g>
</g>
<!-- Node1&#45;&gt;Node5 -->
<g id="edge4" class="edge">
<title>Node1&#45;&gt;Node5</title>
<path fill="none" stroke="midnightblue" d="M1546.13,-85.58C1326.7,-80.7 633.93,-63.06 412.5,-31 406.2,-30.09 399.59,-28.8 393.16,-27.36"/>
<polygon fill="midnightblue" stroke="midnightblue" points="393.83,-23.92 383.29,-25.02 392.21,-30.73 393.83,-23.92"/>
</g>
<!-- Node6 -->
<g id="node6" class="node">
<title>Node6</title>
<g id="a_node6"><a xlink:title=" ">
<polygon fill="none" stroke="#bfbfbf" points="421.5,-0.5 421.5,-30.5 547.5,-30.5 547.5,-0.5 421.5,-0.5"/>
<text text-anchor="start" x="429.5" y="-18.5" font-family="Helvetica,sans-Serif" font-size="10.00">seerep&#45;msgs/datatype</text>
<text text-anchor="middle" x="484.5" y="-7.5" font-family="Helvetica,sans-Serif" font-size="10.00">_generated.h</text>
</a>
</g>
</g>
<!-- Node1&#45;&gt;Node6 -->
<g id="edge5" class="edge">
<title>Node1&#45;&gt;Node6</title>
<path fill="none" stroke="midnightblue" d="M1546.42,-86.83C1380.27,-85.68 936.31,-78.18 557.69,-31.02"/>
<polygon fill="midnightblue" stroke="midnightblue" points="557.99,-27.53 547.63,-29.76 557.12,-34.48 557.99,-27.53"/>
</g>
<!-- Node7 -->
<g id="node7" class="node">
<title>Node7</title>
<g id="a_node7"><a xlink:title=" ">
<polygon fill="none" stroke="#bfbfbf" points="566,-6 566,-25 743,-25 743,-6 566,-6"/>
<text text-anchor="middle" x="654.5" y="-13" font-family="Helvetica,sans-Serif" font-size="10.00">seerep&#45;msgs/image_generated.h</text>
</a>
</g>
</g>
<!-- Node1&#45;&gt;Node7 -->
<g id="edge6" class="edge">
<title>Node1&#45;&gt;Node7</title>
<path fill="none" stroke="midnightblue" d="M1546.27,-84.55C1400.94,-78.82 1046.75,-62.6 751.5,-31 740.04,-29.77 727.86,-28.18 716.15,-26.5"/>
<polygon fill="midnightblue" stroke="midnightblue" points="716.4,-23 706,-25.02 715.38,-29.93 716.4,-23"/>
</g>
<!-- Node8 -->
<g id="node8" class="node">
<title>Node8</title>
<g id="a_node8"><a xlink:title=" ">
<polygon fill="none" stroke="#bfbfbf" points="761,-0.5 761,-30.5 916,-30.5 916,-0.5 761,-0.5"/>
<text text-anchor="start" x="769" y="-18.5" font-family="Helvetica,sans-Serif" font-size="10.00">seerep&#45;msgs/point_stamped</text>
<text text-anchor="middle" x="838.5" y="-7.5" font-family="Helvetica,sans-Serif" font-size="10.00">_generated.h</text>
</a>
</g>
</g>
<!-- Node1&#45;&gt;Node8 -->
<g id="edge7" class="edge">
<title>Node1&#45;&gt;Node8</title>
<path fill="none" stroke="midnightblue" d="M1546.41,-83.41C1424.87,-76.51 1160,-59.58 926.29,-31.03"/>
<polygon fill="midnightblue" stroke="midnightblue" points="926.59,-27.54 916.24,-29.79 925.74,-34.48 926.59,-27.54"/>
</g>
<!-- Node9 -->
<g id="node9" class="node">
<title>Node9</title>
<g id="a_node9"><a xlink:title=" ">
<polygon fill="none" stroke="#bfbfbf" points="934.5,-6 934.5,-25 1108.5,-25 1108.5,-6 934.5,-6"/>
<text text-anchor="middle" x="1021.5" y="-13" font-family="Helvetica,sans-Serif" font-size="10.00">seerep&#45;msgs/query_generated.h</text>
</a>
</g>
</g>
<!-- Node1&#45;&gt;Node9 -->
<g id="edge8" class="edge">
<title>Node1&#45;&gt;Node9</title>
<path fill="none" stroke="midnightblue" d="M1546.41,-80.23C1450.99,-70.42 1270.64,-51.2 1117.5,-31 1107.18,-29.64 1096.25,-28.09 1085.61,-26.52"/>
<polygon fill="midnightblue" stroke="midnightblue" points="1085.93,-23.03 1075.52,-25.02 1084.9,-29.96 1085.93,-23.03"/>
</g>
<!-- Node10 -->
<g id="node10" class="node">
<title>Node10</title>
<g id="a_node10"><a xlink:title=" ">
<polygon fill="none" stroke="#bfbfbf" points="1127,-0.5 1127,-30.5 1284,-30.5 1284,-0.5 1127,-0.5"/>
<text text-anchor="start" x="1135" y="-18.5" font-family="Helvetica,sans-Serif" font-size="10.00">seerep&#45;msgs/query_instance</text>
<text text-anchor="middle" x="1205.5" y="-7.5" font-family="Helvetica,sans-Serif" font-size="10.00">_generated.h</text>
</a>
</g>
</g>
<!-- Node1&#45;&gt;Node10 -->
<g id="edge9" class="edge">
<title>Node1&#45;&gt;Node10</title>
<path fill="none" stroke="midnightblue" d="M1546.13,-75.36C1477.25,-63.46 1369.9,-44.91 1294.16,-31.82"/>
<polygon fill="midnightblue" stroke="midnightblue" points="1294.6,-28.34 1284.15,-30.09 1293.41,-35.24 1294.6,-28.34"/>
</g>
<!-- Node11 -->
<g id="node11" class="node">
<title>Node11</title>
<g id="a_node11"><a xlink:title=" ">
<polygon fill="none" stroke="#bfbfbf" points="1302,-0.5 1302,-30.5 1433,-30.5 1433,-0.5 1302,-0.5"/>
<text text-anchor="start" x="1310" y="-18.5" font-family="Helvetica,sans-Serif" font-size="10.00">seerep&#45;msgs/transform</text>
<text text-anchor="middle" x="1367.5" y="-7.5" font-family="Helvetica,sans-Serif" font-size="10.00">_stamped_generated.h</text>
</a>
</g>
</g>
<!-- Node1&#45;&gt;Node11 -->
<g id="edge10" class="edge">
<title>Node1&#45;&gt;Node11</title>
<path fill="none" stroke="midnightblue" d="M1546.28,-67.74C1508.83,-57 1462.63,-43.76 1426.57,-33.43"/>
<polygon fill="midnightblue" stroke="midnightblue" points="1427.27,-29.99 1416.69,-30.6 1425.34,-36.72 1427.27,-29.99"/>
</g>
<!-- Node12 -->
<g id="node12" class="node">
<title>Node12</title>
<g id="a_node12"><a xlink:title=" ">
<polygon fill="none" stroke="#bfbfbf" points="1451,-0.5 1451,-30.5 1612,-30.5 1612,-0.5 1451,-0.5"/>
<text text-anchor="start" x="1459" y="-18.5" font-family="Helvetica,sans-Serif" font-size="10.00">seerep&#45;msgs/transform</text>
<text text-anchor="middle" x="1531.5" y="-7.5" font-family="Helvetica,sans-Serif" font-size="10.00">_stamped_query_generated.h</text>
</a>
</g>
</g>
<!-- Node1&#45;&gt;Node12 -->
<g id="edge11" class="edge">
<title>Node1&#45;&gt;Node12</title>
<path fill="none" stroke="midnightblue" d="M1590.66,-67.36C1579.75,-57.99 1566.7,-46.76 1555.63,-37.25"/>
<polygon fill="midnightblue" stroke="midnightblue" points="1557.85,-34.54 1547.98,-30.67 1553.28,-39.84 1557.85,-34.54"/>
</g>
<!-- Node13 -->
<g id="node13" class="node">
<title>Node13</title>
<g id="a_node13"><a xlink:title=" ">
<polygon fill="none" stroke="#bfbfbf" points="1630.5,-0.5 1630.5,-30.5 1760.5,-30.5 1760.5,-0.5 1630.5,-0.5"/>
<text text-anchor="start" x="1638.5" y="-18.5" font-family="Helvetica,sans-Serif" font-size="10.00">seerep&#45;msgs/uuids_per</text>
<text text-anchor="middle" x="1695.5" y="-7.5" font-family="Helvetica,sans-Serif" font-size="10.00">_project_generated.h</text>
</a>
</g>
</g>
<!-- Node1&#45;&gt;Node13 -->
<g id="edge12" class="edge">
<title>Node1&#45;&gt;Node13</title>
<path fill="none" stroke="midnightblue" d="M1636.34,-67.36C1647.25,-57.99 1660.3,-46.76 1671.37,-37.25"/>
<polygon fill="midnightblue" stroke="midnightblue" points="1673.72,-39.84 1679.02,-30.67 1669.15,-34.54 1673.72,-39.84"/>
</g>
<!-- Node14 -->
<g id="node14" class="node">
<title>Node14</title>
<g id="a_node14"><a xlink:title=" ">
<polygon fill="none" stroke="#bfbfbf" points="1779,-0.5 1779,-30.5 1898,-30.5 1898,-0.5 1779,-0.5"/>
<text text-anchor="start" x="1787" y="-18.5" font-family="Helvetica,sans-Serif" font-size="10.00">seerep&#45;msgs/dataset</text>
<text text-anchor="middle" x="1838.5" y="-7.5" font-family="Helvetica,sans-Serif" font-size="10.00">&#45;indexable.h</text>
</a>
</g>
</g>
<!-- Node1&#45;&gt;Node14 -->
<g id="edge13" class="edge">
<title>Node1&#45;&gt;Node14</title>
<path fill="none" stroke="midnightblue" d="M1675.88,-67.46C1709.7,-56.86 1751.13,-43.88 1783.7,-33.67"/>
<polygon fill="midnightblue" stroke="midnightblue" points="1785.01,-36.93 1793.51,-30.6 1782.92,-30.25 1785.01,-36.93"/>
</g>
<!-- Node15 -->
<g id="node15" class="node">
<title>Node15</title>
<g id="a_node15"><a xlink:title=" ">
<polygon fill="none" stroke="#bfbfbf" points="1916,-6 1916,-25 2067,-25 2067,-6 1916,-6"/>
<text text-anchor="middle" x="1991.5" y="-13" font-family="Helvetica,sans-Serif" font-size="10.00">seerep&#45;msgs/query&#45;result.h</text>
</a>
</g>
</g>
<!-- Node1&#45;&gt;Node15 -->
<g id="edge14" class="edge">
<title>Node1&#45;&gt;Node15</title>
<path fill="none" stroke="midnightblue" d="M1680.64,-74.48C1753.29,-60.93 1867.81,-39.57 1935.69,-26.91"/>
<polygon fill="midnightblue" stroke="midnightblue" points="1936.58,-30.3 1945.77,-25.03 1935.3,-23.42 1936.58,-30.3"/>
</g>
<!-- Node16 -->
<g id="node16" class="node">
<title>Node16</title>
<g id="a_node16"><a xlink:title=" ">
<polygon fill="none" stroke="#bfbfbf" points="2085.5,-6 2085.5,-25 2215.5,-25 2215.5,-6 2085.5,-6"/>
<text text-anchor="middle" x="2150.5" y="-13" font-family="Helvetica,sans-Serif" font-size="10.00">seerep&#45;msgs/query&#45;tf.h</text>
</a>
</g>
</g>
<!-- Node1&#45;&gt;Node16 -->
<g id="edge15" class="edge">
<title>Node1&#45;&gt;Node16</title>
<path fill="none" stroke="midnightblue" d="M1680.8,-80.42C1771.1,-71.23 1936.35,-53.18 2076.5,-31 2084.14,-29.79 2092.19,-28.37 2100.06,-26.9"/>
<polygon fill="midnightblue" stroke="midnightblue" points="2100.72,-30.33 2109.88,-25.01 2099.4,-23.46 2100.72,-30.33"/>
</g>
<!-- Node17 -->
<g id="node17" class="node">
<title>Node17</title>
<g id="a_node17"><a xlink:title=" ">
<polygon fill="none" stroke="#bfbfbf" points="2233.5,-6 2233.5,-25 2351.5,-25 2351.5,-6 2233.5,-6"/>
<text text-anchor="middle" x="2292.5" y="-13" font-family="Helvetica,sans-Serif" font-size="10.00">seerep&#45;msgs/query.h</text>
</a>
</g>
</g>
<!-- Node1&#45;&gt;Node17 -->
<g id="edge16" class="edge">
<title>Node1&#45;&gt;Node17</title>
<path fill="none" stroke="midnightblue" d="M1680.72,-83.46C1793.58,-76.92 2028.09,-60.83 2224.5,-31 2231.64,-29.92 2239.15,-28.55 2246.48,-27.08"/>
<polygon fill="midnightblue" stroke="midnightblue" points="2247.21,-30.51 2256.3,-25.05 2245.8,-23.65 2247.21,-30.51"/>
</g>
<!-- Node18 -->
<g id="node18" class="node">
<title>Node18</title>
<g id="a_node18"><a xlink:title=" ">
<polygon fill="none" stroke="#bfbfbf" points="2369.5,-6 2369.5,-25 2569.5,-25 2569.5,-6 2369.5,-6"/>
<text text-anchor="middle" x="2469.5" y="-13" font-family="Helvetica,sans-Serif" font-size="10.00">geometry_msgs/TransformStamped.h</text>
</a>
</g>
</g>
<!-- Node1&#45;&gt;Node18 -->
<g id="edge17" class="edge">
<title>Node1&#45;&gt;Node18</title>
<path fill="none" stroke="midnightblue" d="M1680.58,-83.27C1811.5,-75.69 2110.2,-57.01 2360.5,-31 2373.36,-29.66 2387.05,-28.02 2400.22,-26.32"/>
<polygon fill="midnightblue" stroke="midnightblue" points="2400.71,-29.79 2410.17,-25.02 2399.8,-22.85 2400.71,-29.79"/>
</g>
<!-- Node19 -->
<g id="node19" class="node">
<title>Node19</title>
<g id="a_node19"><a xlink:title=" ">
<polygon fill="none" stroke="#bfbfbf" points="2588,-6 2588,-25 2731,-25 2731,-6 2588,-6"/>
<text text-anchor="middle" x="2659.5" y="-13" font-family="Helvetica,sans-Serif" font-size="10.00">boost/functional/hash.hpp</text>
</a>
</g>
</g>
<!-- Node1&#45;&gt;Node19 -->
<g id="edge18" class="edge">
<title>Node1&#45;&gt;Node19</title>
<path fill="none" stroke="midnightblue" d="M1680.72,-85.85C1838.16,-82.57 2242.89,-70.63 2578.5,-31 2587.77,-29.9 2597.59,-28.42 2607.07,-26.83"/>
<polygon fill="midnightblue" stroke="midnightblue" points="2607.94,-30.23 2617.18,-25.06 2606.73,-23.33 2607.94,-30.23"/>
</g>
<!-- Node20 -->
<g id="node20" class="node">
<title>Node20</title>
<g id="a_node20"><a xlink:title=" ">
<polygon fill="none" stroke="#bfbfbf" points="2749,-6 2749,-25 2874,-25 2874,-6 2749,-6"/>
<text text-anchor="middle" x="2811.5" y="-13" font-family="Helvetica,sans-Serif" font-size="10.00">boost/lexical_cast.hpp</text>
</a>
</g>
</g>
<!-- Node1&#45;&gt;Node20 -->
<g id="edge19" class="edge">
<title>Node1&#45;&gt;Node20</title>
<path fill="none" stroke="midnightblue" d="M1680.82,-87.21C1856.11,-86.98 2340.85,-81.44 2740.5,-31 2748.58,-29.98 2757.1,-28.55 2765.34,-26.98"/>
<polygon fill="midnightblue" stroke="midnightblue" points="2766.07,-30.41 2775.19,-25.02 2764.7,-23.54 2766.07,-30.41"/>
</g>
<!-- Node21 -->
<g id="node21" class="node">
<title>Node21</title>
<g id="a_node21"><a xlink:title=" ">
<polygon fill="none" stroke="#bfbfbf" points="2892,-6 2892,-25 3005,-25 3005,-6 2892,-6"/>
<text text-anchor="middle" x="2948.5" y="-13" font-family="Helvetica,sans-Serif" font-size="10.00">boost/uuid/uuid.hpp</text>
</a>
</g>
</g>
<!-- Node1&#45;&gt;Node21 -->
<g id="edge20" class="edge">
<title>Node1&#45;&gt;Node21</title>
<path fill="none" stroke="midnightblue" d="M1680.7,-85.59C1908.1,-80.59 2647.62,-62.26 2883.5,-31 2890.75,-30.04 2898.38,-28.67 2905.77,-27.15"/>
<polygon fill="midnightblue" stroke="midnightblue" points="2906.6,-30.55 2915.63,-25.01 2905.12,-23.71 2906.6,-30.55"/>
</g>
<!-- Node22 -->
<g id="node22" class="node">
<title>Node22</title>
<g id="a_node22"><a xlink:title=" ">
<polygon fill="none" stroke="#bfbfbf" points="3023.5,-6 3023.5,-25 3193.5,-25 3193.5,-6 3023.5,-6"/>
<text text-anchor="middle" x="3108.5" y="-13" font-family="Helvetica,sans-Serif" font-size="10.00">boost/uuid/uuid_generators.hpp</text>
</a>
</g>
</g>
<!-- Node1&#45;&gt;Node22 -->
<g id="edge21" class="edge">
<title>Node1&#45;&gt;Node22</title>
<path fill="none" stroke="midnightblue" d="M1680.76,-87C1883.02,-86.44 2503.27,-80.49 3014.5,-31 3026.07,-29.88 3038.38,-28.28 3050.15,-26.55"/>
<polygon fill="midnightblue" stroke="midnightblue" points="3050.97,-29.96 3060.33,-25 3049.92,-23.04 3050.97,-29.96"/>
</g>
<!-- Node23 -->
<g id="node23" class="node">
<title>Node23</title>
<g id="a_node23"><a xlink:title=" ">
<polygon fill="none" stroke="#bfbfbf" points="3212,-6 3212,-25 3339,-25 3339,-6 3212,-6"/>
<text text-anchor="middle" x="3275.5" y="-13" font-family="Helvetica,sans-Serif" font-size="10.00">boost/uuid/uuid_io.hpp</text>
</a>
</g>
</g>
<!-- Node1&#45;&gt;Node23 -->
<g id="edge22" class="edge">
<title>Node1&#45;&gt;Node23</title>
<path fill="none" stroke="midnightblue" d="M1680.59,-86.07C1943.07,-82.23 2900.71,-66.06 3202.5,-31 3210.99,-30.01 3219.96,-28.57 3228.6,-26.97"/>
<polygon fill="midnightblue" stroke="midnightblue" points="3229.4,-30.38 3238.55,-25.04 3228.06,-23.51 3229.4,-30.38"/>
</g>
</g>
</svg>
