<?xml version="1.0" encoding="UTF-8" standalone="no"?>
<!DOCTYPE svg PUBLIC "-//W3C//DTD SVG 1.1//EN"
 "http://www.w3.org/Graphics/SVG/1.1/DTD/svg11.dtd">
<!-- Generated by graphviz version 2.43.0 (0)
 -->
<!-- Title: seerep_srv/seerep_core/include/seerep_core/core.h Pages: 1 -->
<svg width="4721pt" height="530pt"
 viewBox="0.00 0.00 4720.50 530.00" xmlns="http://www.w3.org/2000/svg" xmlns:xlink="http://www.w3.org/1999/xlink">
<g id="graph0" class="graph" transform="scale(1 1) rotate(0) translate(4 526)">
<title>seerep_srv/seerep_core/include/seerep_core/core.h</title>
<!-- Node1 -->
<g id="node1" class="node">
<title>Node1</title>
<g id="a_node1"><a xlink:title=" ">
<polygon fill="#bfbfbf" stroke="black" points="3770.5,-491.5 3770.5,-521.5 3920.5,-521.5 3920.5,-491.5 3770.5,-491.5"/>
<text text-anchor="start" x="3778.5" y="-509.5" font-family="Helvetica,sans-Serif" font-size="10.00">seerep_srv/seerep_core</text>
<text text-anchor="middle" x="3845.5" y="-498.5" font-family="Helvetica,sans-Serif" font-size="10.00">/include/seerep_core/core.h</text>
</a>
</g>
</g>
<!-- Node2 -->
<g id="node2" class="node">
<title>Node2</title>
<g id="a_node2"><a xlink:title=" ">
<polygon fill="none" stroke="#bfbfbf" points="0,-430 0,-449 65,-449 65,-430 0,-430"/>
<text text-anchor="middle" x="32.5" y="-437" font-family="Helvetica,sans-Serif" font-size="10.00">curl/curl.h</text>
</a>
</g>
</g>
<!-- Node1&#45;&gt;Node2 -->
<g id="edge1" class="edge">
<title>Node1&#45;&gt;Node2</title>
<path fill="none" stroke="midnightblue" d="M3770.09,-505.17C3254.44,-502.84 263.06,-487.93 74.5,-455 70.59,-454.32 66.56,-453.32 62.61,-452.17"/>
<polygon fill="midnightblue" stroke="midnightblue" points="63.68,-448.84 53.09,-449.07 61.51,-455.5 63.68,-448.84"/>
</g>
<!-- Node3 -->
<g id="node3" class="node">
<title>Node3</title>
<g id="a_node3"><a xlink:title=" ">
<polygon fill="none" stroke="#bfbfbf" points="83.5,-430 83.5,-449 193.5,-449 193.5,-430 83.5,-430"/>
<text text-anchor="middle" x="138.5" y="-437" font-family="Helvetica,sans-Serif" font-size="10.00">jsoncpp/json/json.h</text>
</a>
</g>
</g>
<!-- Node1&#45;&gt;Node3 -->
<g id="edge2" class="edge">
<title>Node1&#45;&gt;Node3</title>
<path fill="none" stroke="midnightblue" d="M3770.36,-505.33C3282.51,-504.11 572.9,-495.54 207.5,-455 199.37,-454.1 190.78,-452.68 182.53,-451.07"/>
<polygon fill="midnightblue" stroke="midnightblue" points="183.18,-447.64 172.68,-449.05 181.77,-454.49 183.18,-447.64"/>
</g>
<!-- Node4 -->
<g id="node4" class="node">
<title>Node4</title>
<g id="a_node4"><a xlink:title=" ">
<polygon fill="none" stroke="#bfbfbf" points="1768,-11.5 1768,-30.5 1911,-30.5 1911,-11.5 1768,-11.5"/>
<text text-anchor="middle" x="1839.5" y="-18.5" font-family="Helvetica,sans-Serif" font-size="10.00">boost/functional/hash.hpp</text>
</a>
</g>
</g>
<!-- Node1&#45;&gt;Node4 -->
<g id="edge3" class="edge">
<title>Node1&#45;&gt;Node4</title>
<path fill="none" stroke="midnightblue" d="M3770.25,-505.28C3368.5,-503.68 1485.87,-490.71 1249.5,-388 1082.8,-315.56 1022.95,-275.69 950.5,-109 945.01,-96.36 940.99,-87.97 950.5,-78 980.22,-46.86 1681.71,-46.7 1724.5,-42 1745.34,-39.71 1768.12,-36.01 1787.87,-32.4"/>
<polygon fill="midnightblue" stroke="midnightblue" points="1788.7,-35.81 1797.89,-30.54 1787.42,-28.93 1788.7,-35.81"/>
</g>
<!-- Node5 -->
<g id="node5" class="node">
<title>Node5</title>
<g id="a_node5"><a xlink:title=" ">
<polygon fill="none" stroke="#bfbfbf" points="2743,-11.5 2743,-30.5 2868,-30.5 2868,-11.5 2743,-11.5"/>
<text text-anchor="middle" x="2805.5" y="-18.5" font-family="Helvetica,sans-Serif" font-size="10.00">boost/lexical_cast.hpp</text>
</a>
</g>
</g>
<!-- Node1&#45;&gt;Node5 -->
<g id="edge4" class="edge">
<title>Node1&#45;&gt;Node5</title>
<path fill="none" stroke="midnightblue" d="M3839.32,-491.22C3831.68,-474.35 3817.7,-445.82 3801.5,-424 3682.94,-264.26 3626.59,-239.43 3451.5,-145 3393.94,-113.96 3383.15,-96.73 3320.5,-78 3315.25,-76.43 3019.2,-44.76 2878.4,-29.76"/>
<polygon fill="midnightblue" stroke="midnightblue" points="2878.45,-26.24 2868.13,-28.66 2877.7,-33.2 2878.45,-26.24"/>
</g>
<!-- Node6 -->
<g id="node6" class="node">
<title>Node6</title>
<g id="a_node6"><a xlink:title=" ">
<polygon fill="none" stroke="#bfbfbf" points="981,-11.5 981,-30.5 1094,-30.5 1094,-11.5 981,-11.5"/>
<text text-anchor="middle" x="1037.5" y="-18.5" font-family="Helvetica,sans-Serif" font-size="10.00">boost/uuid/uuid.hpp</text>
</a>
</g>
</g>
<!-- Node1&#45;&gt;Node6 -->
<g id="edge5" class="edge">
<title>Node1&#45;&gt;Node6</title>
<path fill="none" stroke="midnightblue" d="M3770.16,-504.7C3260.31,-499.02 335.5,-462.56 335.5,-373.5 335.5,-373.5 335.5,-373.5 335.5,-159.5 335.5,-122.31 326.05,-101.96 354.5,-78 407.02,-33.76 903.89,-54.04 971.5,-42 982.4,-40.06 994.03,-36.91 1004.45,-33.68"/>
<polygon fill="midnightblue" stroke="midnightblue" points="1005.56,-37 1014,-30.6 1003.41,-30.34 1005.56,-37"/>
</g>
<!-- Node7 -->
<g id="node7" class="node">
<title>Node7</title>
<g id="a_node7"><a xlink:title=" ">
<polygon fill="none" stroke="#bfbfbf" points="2131.5,-11.5 2131.5,-30.5 2301.5,-30.5 2301.5,-11.5 2131.5,-11.5"/>
<text text-anchor="middle" x="2216.5" y="-18.5" font-family="Helvetica,sans-Serif" font-size="10.00">boost/uuid/uuid_generators.hpp</text>
</a>
</g>
</g>
<!-- Node1&#45;&gt;Node7 -->
<g id="edge6" class="edge">
<title>Node1&#45;&gt;Node7</title>
<path fill="none" stroke="midnightblue" d="M3770.34,-506.18C3568.15,-507.25 2995.99,-505.23 2523.5,-455 2352.1,-436.78 2293.19,-469.86 2141.5,-388 2023.46,-324.29 1885.55,-254.87 1962.5,-145 1989.36,-106.65 2018.95,-128.52 2061.5,-109 2110.35,-86.59 2164.47,-54.41 2194.08,-36.12"/>
<polygon fill="midnightblue" stroke="midnightblue" points="2196.15,-38.95 2202.79,-30.7 2192.45,-33.01 2196.15,-38.95"/>
</g>
<!-- Node8 -->
<g id="node8" class="node">
<title>Node8</title>
<g id="a_node8"><a xlink:title=" ">
<polygon fill="none" stroke="#bfbfbf" points="2537,-11.5 2537,-30.5 2664,-30.5 2664,-11.5 2537,-11.5"/>
<text text-anchor="middle" x="2600.5" y="-18.5" font-family="Helvetica,sans-Serif" font-size="10.00">boost/uuid/uuid_io.hpp</text>
</a>
</g>
</g>
<!-- Node1&#45;&gt;Node8 -->
<g id="edge7" class="edge">
<title>Node1&#45;&gt;Node8</title>
<path fill="none" stroke="midnightblue" d="M3770.24,-501.31C3572.81,-489.53 3044.15,-452.69 2882.5,-388 2824.17,-364.66 2753.22,-328.03 2792.5,-279 2838.34,-221.78 2885,-269.15 2953.5,-243 3017.83,-218.45 3113.27,-201.21 3073.5,-145 3045.73,-105.76 3016.58,-125.69 2971.5,-109 2935.74,-95.76 2928.15,-88.53 2891.5,-78 2817.77,-56.81 2731.19,-41.3 2671.76,-32.05"/>
<polygon fill="midnightblue" stroke="midnightblue" points="2672.14,-28.57 2661.72,-30.51 2671.07,-35.49 2672.14,-28.57"/>
</g>
<!-- Node9 -->
<g id="node9" class="node">
<title>Node9</title>
<g id="a_node9"><a xlink:title=" ">
<polygon fill="none" stroke="#bfbfbf" points="4274.5,-430 4274.5,-449 4342.5,-449 4342.5,-430 4274.5,-430"/>
<text text-anchor="middle" x="4308.5" y="-437" font-family="Helvetica,sans-Serif" font-size="10.00">filesystem</text>
</a>
</g>
</g>
<!-- Node1&#45;&gt;Node9 -->
<g id="edge8" class="edge">
<title>Node1&#45;&gt;Node9</title>
<path fill="none" stroke="midnightblue" d="M3920.73,-500.26C4004.36,-493.54 4143.13,-479.68 4260.5,-455 4264.72,-454.11 4269.1,-453.03 4273.42,-451.85"/>
<polygon fill="midnightblue" stroke="midnightblue" points="4274.66,-455.14 4283.3,-449 4272.72,-448.41 4274.66,-455.14"/>
</g>
<!-- Node10 -->
<g id="node10" class="node">
<title>Node10</title>
<g id="a_node10"><a xlink:title=" ">
<polygon fill="none" stroke="#bfbfbf" points="3332,-151 3332,-170 3397,-170 3397,-151 3332,-151"/>
<text text-anchor="middle" x="3364.5" y="-158" font-family="Helvetica,sans-Serif" font-size="10.00">functional</text>
</a>
</g>
</g>
<!-- Node1&#45;&gt;Node10 -->
<g id="edge9" class="edge">
<title>Node1&#45;&gt;Node10</title>
<path fill="none" stroke="midnightblue" d="M3827.19,-491.19C3771.27,-447.67 3597.31,-313.66 3446.5,-212 3427.26,-199.03 3404.79,-185.28 3388.24,-175.41"/>
<polygon fill="midnightblue" stroke="midnightblue" points="3389.63,-172.17 3379.25,-170.08 3386.06,-178.19 3389.63,-172.17"/>
</g>
<!-- Node11 -->
<g id="node11" class="node">
<title>Node11</title>
<g id="a_node11"><a xlink:title=" ">
<polygon fill="none" stroke="#bfbfbf" points="3005.5,-11.5 3005.5,-30.5 3061.5,-30.5 3061.5,-11.5 3005.5,-11.5"/>
<text text-anchor="middle" x="3033.5" y="-18.5" font-family="Helvetica,sans-Serif" font-size="10.00">optional</text>
</a>
</g>
</g>
<!-- Node1&#45;&gt;Node11 -->
<g id="edge10" class="edge">
<title>Node1&#45;&gt;Node11</title>
<path fill="none" stroke="midnightblue" d="M3920.55,-497.41C3993.86,-484.86 4094.5,-453.13 4094.5,-373.5 4094.5,-373.5 4094.5,-373.5 4094.5,-226.5 4094.5,-189.31 4102.94,-170.11 4075.5,-145 3999.81,-75.76 3250.52,-33.14 3071.68,-23.9"/>
<polygon fill="midnightblue" stroke="midnightblue" points="3071.85,-20.4 3061.69,-23.39 3071.49,-27.39 3071.85,-20.4"/>
</g>
<!-- Node12 -->
<g id="node12" class="node">
<title>Node12</title>
<g id="a_node12"><a xlink:title=" ">
<polygon fill="none" stroke="#bfbfbf" points="4360.5,-430 4360.5,-449 4404.5,-449 4404.5,-430 4360.5,-430"/>
<text text-anchor="middle" x="4382.5" y="-437" font-family="Helvetica,sans-Serif" font-size="10.00">regex</text>
</a>
</g>
</g>
<!-- Node1&#45;&gt;Node12 -->
<g id="edge11" class="edge">
<title>Node1&#45;&gt;Node12</title>
<path fill="none" stroke="midnightblue" d="M3920.68,-505.84C4020.78,-504.53 4202.54,-495.98 4351.5,-455 4353.43,-454.47 4355.4,-453.82 4357.35,-453.11"/>
<polygon fill="midnightblue" stroke="midnightblue" points="4358.97,-456.22 4366.8,-449.09 4356.23,-449.78 4358.97,-456.22"/>
</g>
<!-- Node13 -->
<g id="node13" class="node">
<title>Node13</title>
<g id="a_node13"><a xlink:title=" ">
<polygon fill="none" stroke="#bfbfbf" points="697,-6 697,-36 818,-36 818,-6 697,-6"/>
<text text-anchor="start" x="705" y="-24" font-family="Helvetica,sans-Serif" font-size="10.00">seerep_msgs/dataset</text>
<text text-anchor="middle" x="757.5" y="-13" font-family="Helvetica,sans-Serif" font-size="10.00">_indexable.h</text>
</a>
</g>
</g>
<!-- Node1&#45;&gt;Node13 -->
<g id="edge12" class="edge">
<title>Node1&#45;&gt;Node13</title>
<path fill="none" stroke="midnightblue" d="M3770.29,-504.99C3322.07,-501.83 1011.8,-484.25 697.5,-455 483.79,-435.11 221.5,-588.13 221.5,-373.5 221.5,-373.5 221.5,-373.5 221.5,-159.5 221.5,-118.12 232.12,-101.02 266.5,-78 333.61,-33.07 567.56,-23.94 686.66,-22.25"/>
<polygon fill="midnightblue" stroke="midnightblue" points="686.82,-25.75 696.77,-22.12 686.73,-18.75 686.82,-25.75"/>
</g>
<!-- Node14 -->
<g id="node14" class="node">
<title>Node14</title>
<g id="a_node14"><a xlink:title=" ">
<polygon fill="none" stroke="#bfbfbf" points="4422.5,-424.5 4422.5,-454.5 4540.5,-454.5 4540.5,-424.5 4422.5,-424.5"/>
<text text-anchor="start" x="4430.5" y="-442.5" font-family="Helvetica,sans-Serif" font-size="10.00">seerep_msgs/project</text>
<text text-anchor="middle" x="4481.5" y="-431.5" font-family="Helvetica,sans-Serif" font-size="10.00">_info.h</text>
</a>
</g>
</g>
<!-- Node1&#45;&gt;Node14 -->
<g id="edge13" class="edge">
<title>Node1&#45;&gt;Node14</title>
<path fill="none" stroke="midnightblue" d="M3920.73,-501.73C4027.83,-495.71 4230.53,-481.92 4412.23,-455.07"/>
<polygon fill="midnightblue" stroke="midnightblue" points="4412.87,-458.52 4422.24,-453.58 4411.83,-451.6 4412.87,-458.52"/>
</g>
<!-- Node15 -->
<g id="node15" class="node">
<title>Node15</title>
<g id="a_node15"><a xlink:title=" ">
<polygon fill="none" stroke="#bfbfbf" points="3947,-151 3947,-170 4066,-170 4066,-151 3947,-151"/>
<text text-anchor="middle" x="4006.5" y="-158" font-family="Helvetica,sans-Serif" font-size="10.00">seerep_msgs/query.h</text>
</a>
</g>
</g>
<!-- Node1&#45;&gt;Node15 -->
<g id="edge14" class="edge">
<title>Node1&#45;&gt;Node15</title>
<path fill="none" stroke="midnightblue" d="M3886.34,-491.48C3932.86,-472.61 4002.5,-434.22 4002.5,-373.5 4002.5,-373.5 4002.5,-373.5 4002.5,-299 4002.5,-256.56 4004.43,-206.79 4005.61,-180.31"/>
<polygon fill="midnightblue" stroke="midnightblue" points="4009.11,-180.33 4006.07,-170.18 4002.12,-180.01 4009.11,-180.33"/>
</g>
<!-- Node16 -->
<g id="node16" class="node">
<title>Node16</title>
<g id="a_node16"><a xlink:title=" ">
<polygon fill="none" stroke="#bfbfbf" points="4558.5,-430 4558.5,-449 4712.5,-449 4712.5,-430 4558.5,-430"/>
<text text-anchor="middle" x="4635.5" y="-437" font-family="Helvetica,sans-Serif" font-size="10.00">seerep_msgs/query_result.h</text>
</a>
</g>
</g>
<!-- Node1&#45;&gt;Node16 -->
<g id="edge15" class="edge">
<title>Node1&#45;&gt;Node16</title>
<path fill="none" stroke="midnightblue" d="M3920.74,-502.46C4049.76,-496.73 4321.38,-482.35 4549.5,-455 4559.31,-453.82 4569.71,-452.31 4579.75,-450.7"/>
<polygon fill="midnightblue" stroke="midnightblue" points="4580.35,-454.14 4589.65,-449.06 4579.21,-447.24 4580.35,-454.14"/>
</g>
<!-- Node17 -->
<g id="node17" class="node">
<title>Node17</title>
<g id="a_node17"><a xlink:title=" ">
<polygon fill="none" stroke="#bfbfbf" points="3796,-151 3796,-170 3929,-170 3929,-151 3796,-151"/>
<text text-anchor="middle" x="3862.5" y="-158" font-family="Helvetica,sans-Serif" font-size="10.00">seerep_msgs/query_tf.h</text>
</a>
</g>
</g>
<!-- Node1&#45;&gt;Node17 -->
<g id="edge16" class="edge">
<title>Node1&#45;&gt;Node17</title>
<path fill="none" stroke="midnightblue" d="M3870.52,-491.39C3904.08,-470.4 3959.5,-427.55 3959.5,-373.5 3959.5,-373.5 3959.5,-373.5 3959.5,-299 3959.5,-246.31 3911.36,-199.62 3882.91,-176.62"/>
<polygon fill="midnightblue" stroke="midnightblue" points="3884.82,-173.67 3874.79,-170.27 3880.5,-179.19 3884.82,-173.67"/>
</g>
<!-- Node18 -->
<g id="node18" class="node">
<title>Node18</title>
<g id="a_node18"><a xlink:title=" ">
<polygon fill="none" stroke="#bfbfbf" points="3061.5,-84 3061.5,-103 3261.5,-103 3261.5,-84 3061.5,-84"/>
<text text-anchor="middle" x="3161.5" y="-91" font-family="Helvetica,sans-Serif" font-size="10.00">geometry_msgs/TransformStamped.h</text>
</a>
</g>
</g>
<!-- Node1&#45;&gt;Node18 -->
<g id="edge17" class="edge">
<title>Node1&#45;&gt;Node18</title>
<path fill="none" stroke="midnightblue" d="M3834.27,-491.22C3820.7,-474.35 3796.77,-445.83 3773.5,-424 3624.06,-283.83 3593.45,-228.85 3406.5,-145 3359.98,-124.14 3304.61,-111.79 3258.29,-104.53"/>
<polygon fill="midnightblue" stroke="midnightblue" points="3258.66,-101.05 3248.24,-103.02 3257.61,-107.97 3258.66,-101.05"/>
</g>
<!-- Node19 -->
<g id="node19" class="node">
<title>Node19</title>
<g id="a_node19"><a xlink:href="core__project_8h.html" target="_top" xlink:title=" ">
<polygon fill="none" stroke="black" points="2532.5,-430 2532.5,-449 2618.5,-449 2618.5,-430 2532.5,-430"/>
<text text-anchor="middle" x="2575.5" y="-437" font-family="Helvetica,sans-Serif" font-size="10.00">core_project.h</text>
</a>
</g>
</g>
<!-- Node1&#45;&gt;Node19 -->
<g id="edge18" class="edge">
<title>Node1&#45;&gt;Node19</title>
<path fill="none" stroke="midnightblue" d="M3770.38,-504.69C3584.95,-502.14 3090.8,-492.14 2680.5,-455 2663.58,-453.47 2645.2,-451.15 2628.62,-448.82"/>
<polygon fill="midnightblue" stroke="midnightblue" points="2628.96,-445.34 2618.56,-447.38 2627.96,-452.26 2628.96,-445.34"/>
</g>
<!-- Node34 -->
<g id="node31" class="node">
<title>Node34</title>
<g id="a_node31"><a xlink:title=" ">
<polygon fill="none" stroke="#bfbfbf" points="3840,-6 3840,-36 3985,-36 3985,-6 3840,-6"/>
<text text-anchor="start" x="3848" y="-24" font-family="Helvetica,sans-Serif" font-size="10.00">boost/log/sources/severity</text>
<text text-anchor="middle" x="3912.5" y="-13" font-family="Helvetica,sans-Serif" font-size="10.00">_logger.hpp</text>
</a>
</g>
</g>
<!-- Node1&#45;&gt;Node34 -->
<g id="edge163" class="edge">
<title>Node1&#45;&gt;Node34</title>
<path fill="none" stroke="midnightblue" d="M3920.79,-500.9C3975.09,-495.28 4048.99,-482.78 4108.5,-455 4160.45,-430.75 4208.5,-430.84 4208.5,-373.5 4208.5,-373.5 4208.5,-373.5 4208.5,-159.5 4208.5,-103.53 4161.92,-104.26 4112.5,-78 4076.11,-58.66 4032.35,-45.43 3995.05,-36.71"/>
<polygon fill="midnightblue" stroke="midnightblue" points="3995.75,-33.27 3985.22,-34.47 3994.2,-40.1 3995.75,-33.27"/>
</g>
<!-- Node35 -->
<g id="node32" class="node">
<title>Node35</title>
<g id="a_node32"><a xlink:title=" ">
<polygon fill="none" stroke="#bfbfbf" points="4058.5,-11.5 4058.5,-30.5 4172.5,-30.5 4172.5,-11.5 4058.5,-11.5"/>
<text text-anchor="middle" x="4115.5" y="-18.5" font-family="Helvetica,sans-Serif" font-size="10.00">boost/log/trivial.hpp</text>
</a>
</g>
</g>
<!-- Node1&#45;&gt;Node35 -->
<g id="edge164" class="edge">
<title>Node1&#45;&gt;Node35</title>
<path fill="none" stroke="midnightblue" d="M3920.62,-505.45C3986.42,-502.66 4083.04,-491.78 4158.5,-455 4206.42,-431.64 4246.5,-426.81 4246.5,-373.5 4246.5,-373.5 4246.5,-373.5 4246.5,-159.5 4246.5,-100.08 4181.57,-56.17 4143.14,-35.39"/>
<polygon fill="midnightblue" stroke="midnightblue" points="4144.47,-32.14 4133.99,-30.61 4141.23,-38.34 4144.47,-32.14"/>
</g>
<!-- Node19&#45;&gt;Node6 -->
<g id="edge19" class="edge">
<title>Node19&#45;&gt;Node6</title>
<path fill="none" stroke="midnightblue" d="M2532.42,-437.64C2353.43,-433.91 1667.74,-417.93 1453.5,-388 1176.66,-349.32 1106.81,-331.02 841.5,-243 770.27,-219.37 733.95,-234.15 686.5,-176 658.68,-141.91 643.31,-110.92 672.5,-78 716.9,-27.93 906,-55.76 971.5,-42 981.96,-39.8 993.15,-36.71 1003.28,-33.61"/>
<polygon fill="midnightblue" stroke="midnightblue" points="1004.52,-36.89 1013.01,-30.54 1002.42,-30.21 1004.52,-36.89"/>
</g>
<!-- Node19&#45;&gt;Node7 -->
<g id="edge20" class="edge">
<title>Node19&#45;&gt;Node7</title>
<path fill="none" stroke="midnightblue" d="M2532.46,-431.95C2434.54,-415.84 2203.5,-370.46 2203.5,-301 2203.5,-301 2203.5,-301 2203.5,-226.5 2203.5,-174.16 2208.22,-161.24 2211.5,-109 2212.98,-85.47 2214.51,-58.34 2215.48,-40.72"/>
<polygon fill="midnightblue" stroke="midnightblue" points="2218.98,-40.82 2216.03,-30.65 2211.99,-40.44 2218.98,-40.82"/>
</g>
<!-- Node19&#45;&gt;Node8 -->
<g id="edge21" class="edge">
<title>Node19&#45;&gt;Node8</title>
<path fill="none" stroke="midnightblue" d="M2577.08,-429.75C2582.55,-402.29 2603.37,-317.31 2657.5,-279 2732.65,-225.81 2772.36,-266.03 2861.5,-243 2950.23,-220.08 3003.26,-250.59 3056.5,-176 3064.5,-164.79 3064.88,-155.94 3056.5,-145 3050.06,-136.59 2756.57,-61.53 2643.91,-32.97"/>
<polygon fill="midnightblue" stroke="midnightblue" points="2644.77,-29.57 2634.21,-30.51 2643.05,-36.36 2644.77,-29.57"/>
</g>
<!-- Node19&#45;&gt;Node10 -->
<g id="edge22" class="edge">
<title>Node19&#45;&gt;Node10</title>
<path fill="none" stroke="midnightblue" d="M2618.7,-436.33C2791.84,-427.17 3428.82,-389.04 3484.5,-321 3496.32,-306.55 3491.73,-296.21 3484.5,-279 3483.11,-275.7 3413.25,-208.33 3380.78,-177.12"/>
<polygon fill="midnightblue" stroke="midnightblue" points="3383.03,-174.43 3373.39,-170.03 3378.18,-179.48 3383.03,-174.43"/>
</g>
<!-- Node19&#45;&gt;Node11 -->
<g id="edge23" class="edge">
<title>Node19&#45;&gt;Node11</title>
<path fill="none" stroke="midnightblue" d="M2618.61,-437.2C2756.4,-432.79 3185.03,-417.03 3320.5,-388 3404.37,-370.03 3444.45,-385.06 3501.5,-321 3583.67,-228.74 3481.61,-122.87 3366.5,-78 3265.04,-38.45 3135.49,-26.81 3072.04,-23.4"/>
<polygon fill="midnightblue" stroke="midnightblue" points="3071.87,-19.89 3061.71,-22.89 3071.52,-26.88 3071.87,-19.89"/>
</g>
<!-- Node19&#45;&gt;Node13 -->
<g id="edge26" class="edge">
<title>Node19&#45;&gt;Node13</title>
<path fill="none" stroke="midnightblue" d="M2532.25,-438.13C2238.38,-435.52 543.31,-419.15 439.5,-388 293.99,-344.34 182.14,-179.14 295.5,-78 351.75,-27.81 571.5,-21.04 686.48,-21.05"/>
<polygon fill="midnightblue" stroke="midnightblue" points="686.59,-24.55 696.6,-21.07 686.61,-17.55 686.59,-24.55"/>
</g>
<!-- Node19&#45;&gt;Node15 -->
<g id="edge28" class="edge">
<title>Node19&#45;&gt;Node15</title>
<path fill="none" stroke="midnightblue" d="M2618.68,-438.19C2815.27,-436.59 3620.57,-427.63 3725.5,-388 3846.95,-342.13 3955.87,-222.15 3992.99,-178.06"/>
<polygon fill="midnightblue" stroke="midnightblue" points="3995.74,-180.23 3999.44,-170.3 3990.36,-175.75 3995.74,-180.23"/>
</g>
<!-- Node19&#45;&gt;Node17 -->
<g id="edge30" class="edge">
<title>Node19&#45;&gt;Node17</title>
<path fill="none" stroke="midnightblue" d="M2618.62,-438.7C2812.16,-439.32 3595.34,-438.63 3691.5,-388 3780.7,-341.03 3836.54,-224.46 3855.37,-179.55"/>
<polygon fill="midnightblue" stroke="midnightblue" points="3858.65,-180.78 3859.19,-170.2 3852.17,-178.14 3858.65,-180.78"/>
</g>
<!-- Node20 -->
<g id="node20" class="node">
<title>Node20</title>
<g id="a_node20"><a xlink:title=" ">
<polygon fill="none" stroke="#bfbfbf" points="2622.5,-363 2622.5,-382 2666.5,-382 2666.5,-363 2622.5,-363"/>
<text text-anchor="middle" x="2644.5" y="-370" font-family="Helvetica,sans-Serif" font-size="10.00">proj.h</text>
</a>
</g>
</g>
<!-- Node19&#45;&gt;Node20 -->
<g id="edge24" class="edge">
<title>Node19&#45;&gt;Node20</title>
<path fill="none" stroke="midnightblue" d="M2584.81,-429.73C2595.77,-419.4 2614.21,-402.04 2627.69,-389.33"/>
<polygon fill="midnightblue" stroke="midnightblue" points="2630.46,-391.53 2635.34,-382.13 2625.66,-386.44 2630.46,-391.53"/>
</g>
<!-- Node21 -->
<g id="node21" class="node">
<title>Node21</title>
<g id="a_node21"><a xlink:title=" ">
<polygon fill="none" stroke="#bfbfbf" points="364,-78.5 364,-108.5 485,-108.5 485,-78.5 364,-78.5"/>
<text text-anchor="start" x="372" y="-96.5" font-family="Helvetica,sans-Serif" font-size="10.00">seerep_msgs/camera</text>
<text text-anchor="middle" x="424.5" y="-85.5" font-family="Helvetica,sans-Serif" font-size="10.00">_intrinsics.h</text>
</a>
</g>
</g>
<!-- Node19&#45;&gt;Node21 -->
<g id="edge25" class="edge">
<title>Node19&#45;&gt;Node21</title>
<path fill="none" stroke="midnightblue" d="M2532.09,-438.29C2246.24,-436.83 642.48,-426.88 547.5,-388 536.59,-383.53 397.19,-253.82 392.5,-243 374.22,-200.87 395.62,-147.33 411.17,-117.41"/>
<polygon fill="midnightblue" stroke="midnightblue" points="414.28,-119.03 415.96,-108.57 408.12,-115.7 414.28,-119.03"/>
</g>
<!-- Node22 -->
<g id="node22" class="node">
<title>Node22</title>
<g id="a_node22"><a xlink:title=" ">
<polygon fill="none" stroke="#bfbfbf" points="836.5,-6 836.5,-36 962.5,-36 962.5,-6 836.5,-6"/>
<text text-anchor="start" x="844.5" y="-24" font-family="Helvetica,sans-Serif" font-size="10.00">seerep_msgs/geodetic</text>
<text text-anchor="middle" x="899.5" y="-13" font-family="Helvetica,sans-Serif" font-size="10.00">_coordinates.h</text>
</a>
</g>
</g>
<!-- Node19&#45;&gt;Node22 -->
<g id="edge27" class="edge">
<title>Node19&#45;&gt;Node22</title>
<path fill="none" stroke="midnightblue" d="M2532.22,-438.23C2243.66,-436.35 606.8,-424.08 508.5,-388 357.45,-332.56 211.84,-195.75 321.5,-78 359.84,-36.83 771.05,-51.48 826.5,-42 832,-41.06 837.69,-39.88 843.35,-38.57"/>
<polygon fill="midnightblue" stroke="midnightblue" points="844.59,-41.87 853.47,-36.08 842.92,-35.07 844.59,-41.87"/>
</g>
<!-- Node23 -->
<g id="node23" class="node">
<title>Node23</title>
<g id="a_node23"><a xlink:title=" ">
<polygon fill="none" stroke="#bfbfbf" points="2998,-357.5 2998,-387.5 3143,-387.5 3143,-357.5 2998,-357.5"/>
<text text-anchor="start" x="3006" y="-375.5" font-family="Helvetica,sans-Serif" font-size="10.00">seerep_msgs/query_result</text>
<text text-anchor="middle" x="3070.5" y="-364.5" font-family="Helvetica,sans-Serif" font-size="10.00">_project.h</text>
</a>
</g>
</g>
<!-- Node19&#45;&gt;Node23 -->
<g id="edge29" class="edge">
<title>Node19&#45;&gt;Node23</title>
<path fill="none" stroke="midnightblue" d="M2618.52,-434.05C2692.1,-426.27 2847.04,-409.12 2987.58,-388.24"/>
<polygon fill="midnightblue" stroke="midnightblue" points="2988.3,-391.68 2997.67,-386.73 2987.27,-384.75 2988.3,-391.68"/>
</g>
<!-- Node24 -->
<g id="node24" class="node">
<title>Node24</title>
<g id="a_node24"><a xlink:href="hdf5__core__image_8h.html" target="_top" xlink:title=" ">
<polygon fill="none" stroke="black" points="1284.5,-212.5 1284.5,-242.5 1412.5,-242.5 1412.5,-212.5 1284.5,-212.5"/>
<text text-anchor="start" x="1292.5" y="-230.5" font-family="Helvetica,sans-Serif" font-size="10.00">seerep_hdf5_core/hdf5</text>
<text text-anchor="middle" x="1348.5" y="-219.5" font-family="Helvetica,sans-Serif" font-size="10.00">_core_image.h</text>
</a>
</g>
</g>
<!-- Node19&#45;&gt;Node24 -->
<g id="edge31" class="edge">
<title>Node19&#45;&gt;Node24</title>
<path fill="none" stroke="midnightblue" d="M2532.41,-438.31C2344.32,-437.25 1600.32,-430.37 1505.5,-388 1439.44,-358.48 1386.41,-287.51 1362.41,-251.01"/>
<polygon fill="midnightblue" stroke="midnightblue" points="1365.3,-249.04 1356.94,-242.52 1359.42,-252.83 1365.3,-249.04"/>
</g>
<!-- Node19&#45;&gt;Node34 -->
<g id="edge161" class="edge">
<title>Node19&#45;&gt;Node34</title>
<path fill="none" stroke="midnightblue" d="M2618.52,-437.8C2804.61,-434.59 3541.2,-420.09 3770.5,-388 3934.37,-365.07 4132.5,-466.47 4132.5,-301 4132.5,-301 4132.5,-301 4132.5,-159.5 4132.5,-92.16 4057.47,-56.58 3995.04,-38.63"/>
<polygon fill="midnightblue" stroke="midnightblue" points="3995.72,-35.18 3985.15,-35.9 3993.85,-41.93 3995.72,-35.18"/>
</g>
<!-- Node19&#45;&gt;Node35 -->
<g id="edge162" class="edge">
<title>Node19&#45;&gt;Node35</title>
<path fill="none" stroke="midnightblue" d="M2618.69,-438.69C2822.8,-439.33 3691.79,-438.95 3957.5,-388 4057.93,-368.74 4170.5,-403.26 4170.5,-301 4170.5,-301 4170.5,-301 4170.5,-159.5 4170.5,-113.22 4143.31,-64.04 4127.16,-38.92"/>
<polygon fill="midnightblue" stroke="midnightblue" points="4130.04,-36.93 4121.6,-30.53 4124.21,-40.8 4130.04,-36.93"/>
</g>
<!-- Node42 -->
<g id="node34" class="node">
<title>Node42</title>
<g id="a_node34"><a xlink:href="hdf5__core__instance_8h.html" target="_top" xlink:title=" ">
<polygon fill="none" stroke="black" points="2231.5,-145.5 2231.5,-175.5 2359.5,-175.5 2359.5,-145.5 2231.5,-145.5"/>
<text text-anchor="start" x="2239.5" y="-163.5" font-family="Helvetica,sans-Serif" font-size="10.00">seerep_hdf5_core/hdf5</text>
<text text-anchor="middle" x="2295.5" y="-152.5" font-family="Helvetica,sans-Serif" font-size="10.00">_core_instance.h</text>
</a>
</g>
</g>
<!-- Node19&#45;&gt;Node42 -->
<g id="edge65" class="edge">
<title>Node19&#45;&gt;Node42</title>
<path fill="none" stroke="midnightblue" d="M2566.81,-429.91C2528.55,-392.05 2374.42,-239.57 2317.11,-182.87"/>
<polygon fill="midnightblue" stroke="midnightblue" points="2319.25,-180.08 2309.68,-175.53 2314.33,-185.05 2319.25,-180.08"/>
</g>
<!-- Node43 -->
<g id="node35" class="node">
<title>Node43</title>
<g id="a_node35"><a xlink:href="hdf5__core__point_8h.html" target="_top" xlink:title=" ">
<polygon fill="none" stroke="black" points="1455.5,-145.5 1455.5,-175.5 1583.5,-175.5 1583.5,-145.5 1455.5,-145.5"/>
<text text-anchor="start" x="1463.5" y="-163.5" font-family="Helvetica,sans-Serif" font-size="10.00">seerep_hdf5_core/hdf5</text>
<text text-anchor="middle" x="1519.5" y="-152.5" font-family="Helvetica,sans-Serif" font-size="10.00">_core_point.h</text>
</a>
</g>
</g>
<!-- Node19&#45;&gt;Node43 -->
<g id="edge76" class="edge">
<title>Node19&#45;&gt;Node43</title>
<path fill="none" stroke="midnightblue" d="M2532.28,-438.48C2441.63,-437.55 2225.55,-430.6 2050.5,-388 1972.8,-369.09 1957.24,-351.94 1883.5,-321 1765.56,-271.51 1627.55,-210.06 1560.39,-179.92"/>
<polygon fill="midnightblue" stroke="midnightblue" points="1561.56,-176.61 1551,-175.7 1558.69,-182.99 1561.56,-176.61"/>
</g>
<!-- Node44 -->
<g id="node36" class="node">
<title>Node44</title>
<g id="a_node36"><a xlink:href="hdf5__core__point__cloud_8h.html" target="_top" xlink:title=" ">
<polygon fill="none" stroke="black" points="1623.5,-145.5 1623.5,-175.5 1751.5,-175.5 1751.5,-145.5 1623.5,-145.5"/>
<text text-anchor="start" x="1631.5" y="-163.5" font-family="Helvetica,sans-Serif" font-size="10.00">seerep_hdf5_core/hdf5</text>
<text text-anchor="middle" x="1687.5" y="-152.5" font-family="Helvetica,sans-Serif" font-size="10.00">_core_point_cloud.h</text>
</a>
</g>
</g>
<!-- Node19&#45;&gt;Node44 -->
<g id="edge88" class="edge">
<title>Node19&#45;&gt;Node44</title>
<path fill="none" stroke="midnightblue" d="M2532.32,-438.38C2453.15,-437.08 2280.18,-429.28 2141.5,-388 1971.48,-337.39 1788,-226.24 1717.46,-181.12"/>
<polygon fill="midnightblue" stroke="midnightblue" points="1719.34,-178.17 1709.04,-175.7 1715.55,-184.05 1719.34,-178.17"/>
</g>
<!-- Node45 -->
<g id="node37" class="node">
<title>Node45</title>
<g id="a_node37"><a xlink:href="hdf5__core__tf_8h.html" target="_top" xlink:title=" ">
<polygon fill="none" stroke="black" points="1971.5,-145.5 1971.5,-175.5 2099.5,-175.5 2099.5,-145.5 1971.5,-145.5"/>
<text text-anchor="start" x="1979.5" y="-163.5" font-family="Helvetica,sans-Serif" font-size="10.00">seerep_hdf5_core/hdf5</text>
<text text-anchor="middle" x="2035.5" y="-152.5" font-family="Helvetica,sans-Serif" font-size="10.00">_core_tf.h</text>
</a>
</g>
</g>
<!-- Node19&#45;&gt;Node45 -->
<g id="edge100" class="edge">
<title>Node19&#45;&gt;Node45</title>
<path fill="none" stroke="midnightblue" d="M2532.44,-436.03C2445.03,-430.52 2249.96,-415.46 2189.5,-388 2103.81,-349.08 2058.57,-234.95 2042.45,-185.17"/>
<polygon fill="midnightblue" stroke="midnightblue" points="2045.78,-184.08 2039.45,-175.58 2039.09,-186.17 2045.78,-184.08"/>
</g>
<!-- Node46 -->
<g id="node38" class="node">
<title>Node46</title>
<g id="a_node38"><a xlink:href="core__camera__intrinsics_8h.html" target="_top" xlink:title=" ">
<polygon fill="none" stroke="black" points="401.5,-218 401.5,-237 539.5,-237 539.5,-218 401.5,-218"/>
<text text-anchor="middle" x="470.5" y="-225" font-family="Helvetica,sans-Serif" font-size="10.00">core_camera_intrinsics.h</text>
</a>
</g>
</g>
<!-- Node19&#45;&gt;Node46 -->
<g id="edge106" class="edge">
<title>Node19&#45;&gt;Node46</title>
<path fill="none" stroke="midnightblue" d="M2532.5,-438.46C2251.06,-438.06 680.81,-433.77 591.5,-388 531.51,-357.25 492.97,-281.55 477.81,-246.66"/>
<polygon fill="midnightblue" stroke="midnightblue" points="480.95,-245.1 473.86,-237.23 474.5,-247.81 480.95,-245.1"/>
</g>
<!-- Node48 -->
<g id="node40" class="node">
<title>Node48</title>
<g id="a_node40"><a xlink:href="core__dataset_8h.html" target="_top" xlink:title=" ">
<polygon fill="none" stroke="black" points="2891,-363 2891,-382 2980,-382 2980,-363 2891,-363"/>
<text text-anchor="middle" x="2935.5" y="-370" font-family="Helvetica,sans-Serif" font-size="10.00">core_dataset.h</text>
</a>
</g>
</g>
<!-- Node19&#45;&gt;Node48 -->
<g id="edge110" class="edge">
<title>Node19&#45;&gt;Node48</title>
<path fill="none" stroke="midnightblue" d="M2618.57,-430.72C2684.12,-418.89 2808.88,-396.36 2880.76,-383.38"/>
<polygon fill="midnightblue" stroke="midnightblue" points="2881.76,-386.76 2890.97,-381.54 2880.51,-379.87 2881.76,-386.76"/>
</g>
<!-- Node55 -->
<g id="node47" class="node">
<title>Node55</title>
<g id="a_node47"><a xlink:href="core__instances_8h.html" target="_top" xlink:title=" ">
<polygon fill="none" stroke="black" points="2507.5,-290.5 2507.5,-309.5 2605.5,-309.5 2605.5,-290.5 2507.5,-290.5"/>
<text text-anchor="middle" x="2556.5" y="-297.5" font-family="Helvetica,sans-Serif" font-size="10.00">core_instances.h</text>
</a>
</g>
</g>
<!-- Node19&#45;&gt;Node55 -->
<g id="edge159" class="edge">
<title>Node19&#45;&gt;Node55</title>
<path fill="none" stroke="midnightblue" d="M2574.31,-429.9C2571.29,-408 2563.24,-349.76 2559.07,-319.63"/>
<polygon fill="midnightblue" stroke="midnightblue" points="2562.52,-319.02 2557.69,-309.6 2555.59,-319.98 2562.52,-319.02"/>
</g>
<!-- Node58 -->
<g id="node50" class="node">
<title>Node58</title>
<g id="a_node50"><a xlink:href="core__tf_8h.html" target="_top" xlink:title=" ">
<polygon fill="none" stroke="red" points="3644,-218 3644,-237 3703,-237 3703,-218 3644,-218"/>
<text text-anchor="middle" x="3673.5" y="-225" font-family="Helvetica,sans-Serif" font-size="10.00">core_tf.h</text>
</a>
</g>
</g>
<!-- Node19&#45;&gt;Node58 -->
<g id="edge160" class="edge">
<title>Node19&#45;&gt;Node58</title>
<path fill="none" stroke="midnightblue" d="M2618.76,-438.13C2817.16,-436.24 3632.13,-426.17 3669.5,-388 3706.41,-350.3 3690.61,-280.41 3680.1,-247.09"/>
<polygon fill="midnightblue" stroke="midnightblue" points="3683.32,-245.67 3676.83,-237.3 3676.68,-247.89 3683.32,-245.67"/>
</g>
<!-- Node24&#45;&gt;Node4 -->
<g id="edge60" class="edge">
<title>Node24&#45;&gt;Node4</title>
<path fill="none" stroke="midnightblue" d="M1362.68,-212.24C1380.82,-194.6 1413.83,-164.53 1446.5,-145 1552.73,-81.52 1694.98,-47.65 1775.97,-32.37"/>
<polygon fill="midnightblue" stroke="midnightblue" points="1776.82,-35.77 1786.02,-30.51 1775.55,-28.89 1776.82,-35.77"/>
</g>
<!-- Node24&#45;&gt;Node5 -->
<g id="edge61" class="edge">
<title>Node24&#45;&gt;Node5</title>
<path fill="none" stroke="midnightblue" d="M1412.67,-226.09C1611.07,-224.4 2212.71,-216.03 2403.5,-176 2413.16,-173.97 2680.75,-70.38 2773.9,-34.26"/>
<polygon fill="midnightblue" stroke="midnightblue" points="2775.3,-37.47 2783.36,-30.59 2772.77,-30.94 2775.3,-37.47"/>
</g>
<!-- Node24&#45;&gt;Node6 -->
<g id="edge62" class="edge">
<title>Node24&#45;&gt;Node6</title>
<path fill="none" stroke="midnightblue" d="M1284.48,-223.04C1191.63,-217.16 1024.84,-203.14 971.5,-176 925.14,-152.41 878.9,-121.46 907.5,-78 918.04,-61.98 964.06,-44.68 998.37,-33.61"/>
<polygon fill="midnightblue" stroke="midnightblue" points="999.66,-36.87 1008.15,-30.52 997.56,-30.2 999.66,-36.87"/>
</g>
<!-- Node24&#45;&gt;Node7 -->
<g id="edge63" class="edge">
<title>Node24&#45;&gt;Node7</title>
<path fill="none" stroke="midnightblue" d="M1412.68,-223.97C1499.91,-219.46 1660.29,-207.34 1793.5,-176 1947.27,-139.82 2121.91,-64.77 2188.61,-34.78"/>
<polygon fill="midnightblue" stroke="midnightblue" points="2190.34,-37.84 2198.01,-30.53 2187.46,-31.46 2190.34,-37.84"/>
</g>
<!-- Node24&#45;&gt;Node8 -->
<g id="edge64" class="edge">
<title>Node24&#45;&gt;Node8</title>
<path fill="none" stroke="midnightblue" d="M1412.78,-225.43C1622.54,-221.66 2278.72,-207.46 2368.5,-176 2390.73,-168.21 2392.07,-158.32 2411.5,-145 2470.79,-104.37 2542.25,-58.75 2577.92,-36.2"/>
<polygon fill="midnightblue" stroke="midnightblue" points="2580.01,-39.03 2586.6,-30.73 2576.27,-33.11 2580.01,-39.03"/>
</g>
<!-- Node24&#45;&gt;Node11 -->
<g id="edge59" class="edge">
<title>Node24&#45;&gt;Node11</title>
<path fill="none" stroke="midnightblue" d="M1412.8,-225.65C1617.59,-222.61 2252.93,-210.56 2455.5,-176 2502.63,-167.96 2512.46,-157.88 2558.5,-145 2720.36,-99.7 2914.89,-51.16 2995.57,-31.29"/>
<polygon fill="midnightblue" stroke="midnightblue" points="2996.42,-34.68 3005.29,-28.9 2994.74,-27.89 2996.42,-34.68"/>
</g>
<!-- Node24&#45;&gt;Node13 -->
<g id="edge56" class="edge">
<title>Node24&#45;&gt;Node13</title>
<path fill="none" stroke="midnightblue" d="M1284.22,-226.14C1132.12,-224.6 760.04,-216.7 722.5,-176 689.02,-139.71 719.96,-78.28 741.25,-45.03"/>
<polygon fill="midnightblue" stroke="midnightblue" points="744.34,-46.71 746.94,-36.44 738.5,-42.85 744.34,-46.71"/>
</g>
<!-- Node25 -->
<g id="node25" class="node">
<title>Node25</title>
<g id="a_node25"><a xlink:title=" ">
<polygon fill="none" stroke="#bfbfbf" points="1236.5,-11.5 1236.5,-30.5 1346.5,-30.5 1346.5,-11.5 1236.5,-11.5"/>
<text text-anchor="middle" x="1291.5" y="-18.5" font-family="Helvetica,sans-Serif" font-size="10.00">highfive/H5File.hpp</text>
</a>
</g>
</g>
<!-- Node24&#45;&gt;Node25 -->
<g id="edge32" class="edge">
<title>Node24&#45;&gt;Node25</title>
<path fill="none" stroke="midnightblue" d="M1284.29,-220.48C1224.5,-213.68 1133.46,-200.25 1057.5,-176 1024.64,-165.51 935.89,-138.18 917.5,-109 910.16,-97.34 908.51,-88.44 917.5,-78 927.49,-66.4 1121.5,-41.97 1226.04,-29.57"/>
<polygon fill="midnightblue" stroke="midnightblue" points="1226.66,-33.02 1236.18,-28.37 1225.84,-26.07 1226.66,-33.02"/>
</g>
<!-- Node26 -->
<g id="node26" class="node">
<title>Node26</title>
<g id="a_node26"><a xlink:href="hdf5__core__cameraintrinsics_8h.html" target="_top" xlink:title=" ">
<polygon fill="none" stroke="red" points="731.5,-151 731.5,-170 891.5,-170 891.5,-151 731.5,-151"/>
<text text-anchor="middle" x="811.5" y="-158" font-family="Helvetica,sans-Serif" font-size="10.00">hdf5_core_cameraintrinsics.h</text>
</a>
</g>
</g>
<!-- Node24&#45;&gt;Node26 -->
<g id="edge33" class="edge">
<title>Node24&#45;&gt;Node26</title>
<path fill="none" stroke="midnightblue" d="M1284.26,-218.72C1186.09,-206.84 998.9,-184.18 891.87,-171.23"/>
<polygon fill="midnightblue" stroke="midnightblue" points="892.12,-167.73 881.77,-170.01 891.27,-174.68 892.12,-167.73"/>
</g>
<!-- Node28 -->
<g id="node27" class="node">
<title>Node28</title>
<g id="a_node27"><a xlink:href="hdf5__core__general_8h.html" target="_top" xlink:title=" ">
<polygon fill="none" stroke="red" points="1775.5,-78.5 1775.5,-108.5 1903.5,-108.5 1903.5,-78.5 1775.5,-78.5"/>
<text text-anchor="start" x="1783.5" y="-96.5" font-family="Helvetica,sans-Serif" font-size="10.00">seerep_hdf5_core/hdf5</text>
<text text-anchor="middle" x="1839.5" y="-85.5" font-family="Helvetica,sans-Serif" font-size="10.00">_core_general.h</text>
</a>
</g>
</g>
<!-- Node24&#45;&gt;Node28 -->
<g id="edge55" class="edge">
<title>Node24&#45;&gt;Node28</title>
<path fill="none" stroke="midnightblue" d="M1412.63,-223.83C1512.74,-218.8 1700.89,-205.64 1760.5,-176 1787.58,-162.53 1810.59,-135.92 1824.67,-116.76"/>
<polygon fill="midnightblue" stroke="midnightblue" points="1827.56,-118.74 1830.5,-108.56 1821.85,-114.68 1827.56,-118.74"/>
</g>
<!-- Node30 -->
<g id="node29" class="node">
<title>Node30</title>
<g id="a_node29"><a xlink:title=" ">
<polygon fill="none" stroke="#bfbfbf" points="1433.5,-0.5 1433.5,-41.5 1549.5,-41.5 1549.5,-0.5 1433.5,-0.5"/>
<text text-anchor="start" x="1441.5" y="-29.5" font-family="Helvetica,sans-Serif" font-size="10.00">seerep_msgs/labels</text>
<text text-anchor="start" x="1441.5" y="-18.5" font-family="Helvetica,sans-Serif" font-size="10.00">_with_instance_with</text>
<text text-anchor="middle" x="1491.5" y="-7.5" font-family="Helvetica,sans-Serif" font-size="10.00">_category.h</text>
</a>
</g>
</g>
<!-- Node24&#45;&gt;Node30 -->
<g id="edge57" class="edge">
<title>Node24&#45;&gt;Node30</title>
<path fill="none" stroke="midnightblue" d="M1284.29,-219.92C1230.09,-213.01 1151.07,-199.76 1085.5,-176 1058.75,-166.31 1054.91,-157.8 1029.5,-145 995.04,-127.64 971.37,-141.45 950.5,-109 943.05,-97.41 941.2,-88.16 950.5,-78 981,-44.67 1310.63,-47.29 1355.5,-42 1377.6,-39.4 1401.64,-36.03 1423.28,-32.82"/>
<polygon fill="midnightblue" stroke="midnightblue" points="1423.99,-36.25 1433.36,-31.3 1422.95,-29.32 1423.99,-36.25"/>
</g>
<!-- Node31 -->
<g id="node30" class="node">
<title>Node31</title>
<g id="a_node30"><a xlink:title=" ">
<polygon fill="none" stroke="#bfbfbf" points="1602,-11.5 1602,-30.5 1715,-30.5 1715,-11.5 1602,-11.5"/>
<text text-anchor="middle" x="1658.5" y="-18.5" font-family="Helvetica,sans-Serif" font-size="10.00">boost/geometry.hpp</text>
</a>
</g>
</g>
<!-- Node24&#45;&gt;Node31 -->
<g id="edge58" class="edge">
<title>Node24&#45;&gt;Node31</title>
<path fill="none" stroke="midnightblue" d="M1343.73,-212.14C1335.03,-182.94 1320.34,-116.17 1353.5,-78 1383.83,-43.08 1513.04,-50.54 1558.5,-42 1574.2,-39.05 1591.26,-35.7 1606.76,-32.59"/>
<polygon fill="midnightblue" stroke="midnightblue" points="1607.59,-35.99 1616.7,-30.59 1606.21,-29.13 1607.59,-35.99"/>
</g>
<!-- Node41 -->
<g id="node33" class="node">
<title>Node41</title>
<g id="a_node33"><a xlink:href="hdf5__core__datatype__interface_8h.html" target="_top" xlink:title=" ">
<polygon fill="none" stroke="black" points="960,-78.5 960,-108.5 1073,-108.5 1073,-78.5 960,-78.5"/>
<text text-anchor="start" x="968" y="-96.5" font-family="Helvetica,sans-Serif" font-size="10.00">hdf5_core_datatype</text>
<text text-anchor="middle" x="1016.5" y="-85.5" font-family="Helvetica,sans-Serif" font-size="10.00">_interface.h</text>
</a>
</g>
</g>
<!-- Node24&#45;&gt;Node41 -->
<g id="edge51" class="edge">
<title>Node24&#45;&gt;Node41</title>
<path fill="none" stroke="midnightblue" d="M1284.37,-217.94C1240.52,-210.55 1181.82,-197.55 1133.5,-176 1123.94,-171.74 1075.96,-137.54 1044.49,-114.82"/>
<polygon fill="midnightblue" stroke="midnightblue" points="1046.25,-111.78 1036.09,-108.75 1042.15,-117.45 1046.25,-111.78"/>
</g>
<!-- Node26&#45;&gt;Node21 -->
<g id="edge50" class="edge">
<title>Node26&#45;&gt;Node21</title>
<path fill="none" stroke="midnightblue" d="M760.51,-150.94C692.54,-139.52 571.95,-119.26 495.22,-106.38"/>
<polygon fill="midnightblue" stroke="midnightblue" points="495.6,-102.89 485.16,-104.69 494.45,-109.8 495.6,-102.89"/>
</g>
<!-- Node26&#45;&gt;Node25 -->
<g id="edge34" class="edge">
<title>Node26&#45;&gt;Node25</title>
<path fill="none" stroke="midnightblue" d="M811.88,-150.94C813.12,-134 818.47,-96.28 841.5,-78 848.97,-72.07 1103.03,-43.03 1226.04,-29.26"/>
<polygon fill="midnightblue" stroke="midnightblue" points="1226.55,-32.73 1236.09,-28.14 1225.77,-25.77 1226.55,-32.73"/>
</g>
<!-- Node26&#45;&gt;Node28 -->
<g id="edge35" class="edge">
<title>Node26&#45;&gt;Node28</title>
<path fill="none" stroke="midnightblue" d="M891.74,-154.43C1085.69,-142.16 1577.76,-111.05 1765.33,-99.19"/>
<polygon fill="midnightblue" stroke="midnightblue" points="1765.61,-102.68 1775.37,-98.56 1765.16,-95.69 1765.61,-102.68"/>
</g>
<!-- Node28&#45;&gt;Node4 -->
<g id="edge45" class="edge">
<title>Node28&#45;&gt;Node4</title>
<path fill="none" stroke="midnightblue" d="M1839.5,-78.23C1839.5,-67.5 1839.5,-52.69 1839.5,-40.96"/>
<polygon fill="midnightblue" stroke="midnightblue" points="1843,-40.89 1839.5,-30.89 1836,-40.89 1843,-40.89"/>
</g>
<!-- Node28&#45;&gt;Node5 -->
<g id="edge46" class="edge">
<title>Node28&#45;&gt;Node5</title>
<path fill="none" stroke="midnightblue" d="M1903.6,-88.95C2085.68,-78.83 2597.81,-50.01 2673.5,-42 2697.39,-39.47 2723.56,-35.71 2746.26,-32.14"/>
<polygon fill="midnightblue" stroke="midnightblue" points="2747.11,-35.54 2756.43,-30.51 2746,-28.63 2747.11,-35.54"/>
</g>
<!-- Node28&#45;&gt;Node6 -->
<g id="edge47" class="edge">
<title>Node28&#45;&gt;Node6</title>
<path fill="none" stroke="midnightblue" d="M1775.14,-87.67C1663.57,-79.19 1427.05,-60.73 1227.5,-42 1186.45,-38.15 1140.46,-33.32 1104.02,-29.37"/>
<polygon fill="midnightblue" stroke="midnightblue" points="1104.32,-25.89 1094,-28.28 1103.56,-32.84 1104.32,-25.89"/>
</g>
<!-- Node28&#45;&gt;Node7 -->
<g id="edge48" class="edge">
<title>Node28&#45;&gt;Node7</title>
<path fill="none" stroke="midnightblue" d="M1903.88,-80.46C1976.09,-66.96 2092.05,-45.27 2160.6,-32.45"/>
<polygon fill="midnightblue" stroke="midnightblue" points="2161.59,-35.83 2170.77,-30.55 2160.3,-28.95 2161.59,-35.83"/>
</g>
<!-- Node28&#45;&gt;Node8 -->
<g id="edge49" class="edge">
<title>Node28&#45;&gt;Node8</title>
<path fill="none" stroke="midnightblue" d="M1903.73,-86.55C2044.14,-73.54 2377.74,-42.64 2526.59,-28.85"/>
<polygon fill="midnightblue" stroke="midnightblue" points="2527.35,-32.29 2536.98,-27.88 2526.7,-25.32 2527.35,-32.29"/>
</g>
<!-- Node28&#45;&gt;Node11 -->
<g id="edge42" class="edge">
<title>Node28&#45;&gt;Node11</title>
<path fill="none" stroke="midnightblue" d="M1903.7,-91.14C2066.71,-87.3 2509.74,-74.47 2877.5,-42 2917.82,-38.44 2963.75,-32.3 2995.28,-27.76"/>
<polygon fill="midnightblue" stroke="midnightblue" points="2996,-31.19 3005.39,-26.28 2994.99,-24.26 2996,-31.19"/>
</g>
<!-- Node28&#45;&gt;Node13 -->
<g id="edge38" class="edge">
<title>Node28&#45;&gt;Node13</title>
<path fill="none" stroke="midnightblue" d="M1775.37,-91.21C1582.73,-87.05 1011.14,-72.4 827.5,-42 822.04,-41.1 816.41,-39.92 810.82,-38.58"/>
<polygon fill="midnightblue" stroke="midnightblue" points="811.39,-35.12 800.84,-36.04 809.66,-41.9 811.39,-35.12"/>
</g>
<!-- Node28&#45;&gt;Node22 -->
<g id="edge39" class="edge">
<title>Node28&#45;&gt;Node22</title>
<path fill="none" stroke="midnightblue" d="M1775.42,-90.54C1602.02,-84.96 1126.27,-67.7 971.5,-42 965.98,-41.08 960.28,-39.91 954.61,-38.59"/>
<polygon fill="midnightblue" stroke="midnightblue" points="955.04,-35.09 944.49,-36.08 953.36,-41.88 955.04,-35.09"/>
</g>
<!-- Node28&#45;&gt;Node25 -->
<g id="edge36" class="edge">
<title>Node28&#45;&gt;Node25</title>
<path fill="none" stroke="midnightblue" d="M1775.29,-80.16C1770.63,-79.39 1766,-78.66 1761.5,-78 1612.45,-56.22 1573.9,-61.2 1424.5,-42 1401.6,-39.06 1376.56,-35.4 1354.44,-32.03"/>
<polygon fill="midnightblue" stroke="midnightblue" points="1354.91,-28.56 1344.5,-30.5 1353.85,-35.48 1354.91,-28.56"/>
</g>
<!-- Node29 -->
<g id="node28" class="node">
<title>Node29</title>
<g id="a_node28"><a xlink:title=" ">
<polygon fill="none" stroke="#bfbfbf" points="3595,-11.5 3595,-30.5 3712,-30.5 3712,-11.5 3595,-11.5"/>
<text text-anchor="middle" x="3653.5" y="-18.5" font-family="Helvetica,sans-Serif" font-size="10.00">seerep_msgs/aabb.h</text>
</a>
</g>
</g>
<!-- Node28&#45;&gt;Node29 -->
<g id="edge37" class="edge">
<title>Node28&#45;&gt;Node29</title>
<path fill="none" stroke="midnightblue" d="M1903.53,-90.01C2183.02,-79.15 3295.03,-35.93 3584.39,-24.69"/>
<polygon fill="midnightblue" stroke="midnightblue" points="3584.88,-28.17 3594.73,-24.28 3584.6,-21.18 3584.88,-28.17"/>
</g>
<!-- Node28&#45;&gt;Node30 -->
<g id="edge40" class="edge">
<title>Node28&#45;&gt;Node30</title>
<path fill="none" stroke="midnightblue" d="M1775.27,-79.49C1714.06,-67.09 1622.23,-48.48 1559.73,-35.82"/>
<polygon fill="midnightblue" stroke="midnightblue" points="1560.07,-32.32 1549.58,-33.77 1558.68,-39.18 1560.07,-32.32"/>
</g>
<!-- Node28&#45;&gt;Node31 -->
<g id="edge41" class="edge">
<title>Node28&#45;&gt;Node31</title>
<path fill="none" stroke="midnightblue" d="M1803.31,-78.4C1770.17,-65.49 1721.61,-46.58 1690.03,-34.28"/>
<polygon fill="midnightblue" stroke="midnightblue" points="1691,-30.9 1680.41,-30.53 1688.46,-37.42 1691,-30.9"/>
</g>
<!-- Node28&#45;&gt;Node34 -->
<g id="edge43" class="edge">
<title>Node28&#45;&gt;Node34</title>
<path fill="none" stroke="midnightblue" d="M1903.77,-92.58C2143.69,-92.49 3009.68,-88.75 3721.5,-42 3756.93,-39.67 3795.93,-35.82 3829.4,-32.12"/>
<polygon fill="midnightblue" stroke="midnightblue" points="3830.05,-35.57 3839.6,-30.97 3829.27,-28.61 3830.05,-35.57"/>
</g>
<!-- Node28&#45;&gt;Node35 -->
<g id="edge44" class="edge">
<title>Node28&#45;&gt;Node35</title>
<path fill="none" stroke="midnightblue" d="M1903.58,-91.54C2238.67,-86.42 3782.12,-61.94 3994.5,-42 4017.09,-39.88 4041.84,-36.06 4063.04,-32.32"/>
<polygon fill="midnightblue" stroke="midnightblue" points="4063.91,-35.72 4073.13,-30.5 4062.67,-28.83 4063.91,-35.72"/>
</g>
<!-- Node41&#45;&gt;Node6 -->
<g id="edge53" class="edge">
<title>Node41&#45;&gt;Node6</title>
<path fill="none" stroke="midnightblue" d="M1020.75,-78.23C1023.98,-67.39 1028.45,-52.38 1031.96,-40.6"/>
<polygon fill="midnightblue" stroke="midnightblue" points="1035.35,-41.48 1034.85,-30.89 1028.64,-39.48 1035.35,-41.48"/>
</g>
<!-- Node41&#45;&gt;Node11 -->
<g id="edge54" class="edge">
<title>Node41&#45;&gt;Node11</title>
<path fill="none" stroke="midnightblue" d="M1073.26,-91.3C1365.53,-85.07 2694.12,-56.21 2877.5,-42 2917.86,-38.87 2963.78,-32.66 2995.3,-27.99"/>
<polygon fill="midnightblue" stroke="midnightblue" points="2996.04,-31.41 3005.41,-26.47 2995,-24.49 2996.04,-31.41"/>
</g>
<!-- Node41&#45;&gt;Node13 -->
<g id="edge52" class="edge">
<title>Node41&#45;&gt;Node13</title>
<path fill="none" stroke="midnightblue" d="M963.07,-78.49C925.19,-68.49 873.17,-54.62 827.5,-42 823.77,-40.97 819.93,-39.9 816.06,-38.81"/>
<polygon fill="midnightblue" stroke="midnightblue" points="817,-35.44 806.43,-36.09 815.1,-42.18 817,-35.44"/>
</g>
<!-- Node42&#45;&gt;Node4 -->
<g id="edge69" class="edge">
<title>Node42&#45;&gt;Node4</title>
<path fill="none" stroke="midnightblue" d="M2298.88,-145.23C2302.25,-127 2304.76,-95.72 2287.5,-78 2262.43,-52.26 2043.48,-34.67 1921.21,-26.75"/>
<polygon fill="midnightblue" stroke="midnightblue" points="1921.34,-23.25 1911.14,-26.11 1920.9,-30.24 1921.34,-23.25"/>
</g>
<!-- Node42&#45;&gt;Node5 -->
<g id="edge70" class="edge">
<title>Node42&#45;&gt;Node5</title>
<path fill="none" stroke="midnightblue" d="M2347.68,-145.43C2449.23,-118.05 2671.54,-58.12 2763.94,-33.2"/>
<polygon fill="midnightblue" stroke="midnightblue" points="2765.03,-36.54 2773.77,-30.55 2763.21,-29.78 2765.03,-36.54"/>
</g>
<!-- Node42&#45;&gt;Node6 -->
<g id="edge71" class="edge">
<title>Node42&#45;&gt;Node6</title>
<path fill="none" stroke="midnightblue" d="M2231.47,-154.38C2195.36,-151.54 2149.42,-147.98 2108.5,-145 1873.02,-127.87 1813.08,-135.77 1578.5,-109 1399.35,-88.55 1188.91,-50.69 1091.73,-32.41"/>
<polygon fill="midnightblue" stroke="midnightblue" points="1092.32,-28.96 1081.84,-30.55 1091.02,-35.84 1092.32,-28.96"/>
</g>
<!-- Node42&#45;&gt;Node7 -->
<g id="edge72" class="edge">
<title>Node42&#45;&gt;Node7</title>
<path fill="none" stroke="midnightblue" d="M2307.9,-145.49C2321.24,-128.64 2338.86,-99.88 2325.5,-78 2312.02,-55.91 2286.74,-42.17 2263.92,-33.84"/>
<polygon fill="midnightblue" stroke="midnightblue" points="2264.93,-30.48 2254.34,-30.58 2262.68,-37.11 2264.93,-30.48"/>
</g>
<!-- Node42&#45;&gt;Node8 -->
<g id="edge73" class="edge">
<title>Node42&#45;&gt;Node8</title>
<path fill="none" stroke="midnightblue" d="M2326.71,-145.43C2386.27,-118.58 2515.3,-60.41 2572.37,-34.68"/>
<polygon fill="midnightblue" stroke="midnightblue" points="2573.85,-37.85 2581.53,-30.55 2570.97,-31.47 2573.85,-37.85"/>
</g>
<!-- Node42&#45;&gt;Node11 -->
<g id="edge75" class="edge">
<title>Node42&#45;&gt;Node11</title>
<path fill="none" stroke="midnightblue" d="M2359.73,-150.99C2427.12,-141.79 2536.05,-126.11 2629.5,-109 2764.7,-84.25 2923.8,-47.82 2995.31,-31.05"/>
<polygon fill="midnightblue" stroke="midnightblue" points="2996.28,-34.42 3005.21,-28.73 2994.68,-27.61 2996.28,-34.42"/>
</g>
<!-- Node42&#45;&gt;Node18 -->
<g id="edge68" class="edge">
<title>Node42&#45;&gt;Node18</title>
<path fill="none" stroke="midnightblue" d="M2359.53,-154.69C2506.14,-143.69 2867.62,-116.56 3051,-102.79"/>
<polygon fill="midnightblue" stroke="midnightblue" points="3051.5,-106.27 3061.21,-102.03 3050.97,-99.29 3051.5,-106.27"/>
</g>
<!-- Node42&#45;&gt;Node25 -->
<g id="edge66" class="edge">
<title>Node42&#45;&gt;Node25</title>
<path fill="none" stroke="midnightblue" d="M2231.18,-154.06C2110.57,-143.74 1854.68,-121.26 1766.5,-109 1610.54,-87.31 1427.76,-50.62 1341.45,-32.61"/>
<polygon fill="midnightblue" stroke="midnightblue" points="1342.17,-29.19 1331.66,-30.56 1340.73,-36.04 1342.17,-29.19"/>
</g>
<!-- Node42&#45;&gt;Node28 -->
<g id="edge67" class="edge">
<title>Node42&#45;&gt;Node28</title>
<path fill="none" stroke="midnightblue" d="M2231.13,-150.32C2147.45,-138.4 2001.61,-117.61 1913.47,-105.04"/>
<polygon fill="midnightblue" stroke="midnightblue" points="1913.93,-101.57 1903.54,-103.63 1912.95,-108.5 1913.93,-101.57"/>
</g>
<!-- Node42&#45;&gt;Node31 -->
<g id="edge74" class="edge">
<title>Node42&#45;&gt;Node31</title>
<path fill="none" stroke="midnightblue" d="M2240.14,-145.47C2172.49,-128.52 2054.44,-99.6 1952.5,-78 1867.14,-59.91 1845.19,-58.48 1759.5,-42 1743.8,-38.98 1726.75,-35.63 1711.2,-32.55"/>
<polygon fill="midnightblue" stroke="midnightblue" points="1711.73,-29.09 1701.24,-30.57 1710.36,-35.95 1711.73,-29.09"/>
</g>
<!-- Node43&#45;&gt;Node4 -->
<g id="edge83" class="edge">
<title>Node43&#45;&gt;Node4</title>
<path fill="none" stroke="midnightblue" d="M1544.49,-145.44C1575.56,-128.28 1630.48,-98.95 1679.5,-78 1720.58,-60.44 1769.2,-44.02 1801.97,-33.55"/>
<polygon fill="midnightblue" stroke="midnightblue" points="1803.13,-36.86 1811.61,-30.5 1801.02,-30.19 1803.13,-36.86"/>
</g>
<!-- Node43&#45;&gt;Node5 -->
<g id="edge84" class="edge">
<title>Node43&#45;&gt;Node5</title>
<path fill="none" stroke="midnightblue" d="M1583.59,-149.44C1593.92,-147.9 1604.5,-146.37 1614.5,-145 1746.68,-126.93 1780.1,-125.34 1912.5,-109 2021.87,-95.5 2048.83,-88.74 2158.5,-78 2386.86,-55.65 2445.44,-67.21 2673.5,-42 2697.07,-39.39 2722.89,-35.68 2745.39,-32.15"/>
<polygon fill="midnightblue" stroke="midnightblue" points="2746.15,-35.57 2755.48,-30.55 2745.05,-28.66 2746.15,-35.57"/>
</g>
<!-- Node43&#45;&gt;Node6 -->
<g id="edge85" class="edge">
<title>Node43&#45;&gt;Node6</title>
<path fill="none" stroke="midnightblue" d="M1455.38,-149.91C1403.37,-141.4 1328.46,-127.44 1264.5,-109 1191.29,-87.89 1108.45,-53.29 1065.97,-34.72"/>
<polygon fill="midnightblue" stroke="midnightblue" points="1067.12,-31.4 1056.55,-30.58 1064.3,-37.81 1067.12,-31.4"/>
</g>
<!-- Node43&#45;&gt;Node7 -->
<g id="edge86" class="edge">
<title>Node43&#45;&gt;Node7</title>
<path fill="none" stroke="midnightblue" d="M1551.55,-145.49C1571.66,-136.17 1597.81,-123.09 1619.5,-109 1637.78,-97.13 1637.36,-86.33 1657.5,-78 1699.21,-60.75 1972.91,-39.17 2121.27,-28.53"/>
<polygon fill="midnightblue" stroke="midnightblue" points="2121.57,-32.02 2131.29,-27.82 2121.07,-25.04 2121.57,-32.02"/>
</g>
<!-- Node43&#45;&gt;Node8 -->
<g id="edge87" class="edge">
<title>Node43&#45;&gt;Node8</title>
<path fill="none" stroke="midnightblue" d="M1557.93,-145.5C1616.56,-124.36 1725.83,-85.92 1766.5,-78 2004.34,-31.67 2068.74,-58.34 2310.5,-42 2384.01,-37.03 2467.98,-31.23 2526.59,-27.15"/>
<polygon fill="midnightblue" stroke="midnightblue" points="2527.13,-30.63 2536.86,-26.44 2526.64,-23.64 2527.13,-30.63"/>
</g>
<!-- Node43&#45;&gt;Node11 -->
<g id="edge82" class="edge">
<title>Node43&#45;&gt;Node11</title>
<path fill="none" stroke="midnightblue" d="M1583.55,-149.1C1593.88,-147.6 1604.47,-146.17 1614.5,-145 1649.46,-140.91 2842.49,-45.67 2877.5,-42 2917.76,-37.78 2963.7,-31.74 2995.25,-27.4"/>
<polygon fill="midnightblue" stroke="midnightblue" points="2995.94,-30.84 3005.36,-26 2994.98,-23.91 2995.94,-30.84"/>
</g>
<!-- Node43&#45;&gt;Node13 -->
<g id="edge80" class="edge">
<title>Node43&#45;&gt;Node13</title>
<path fill="none" stroke="midnightblue" d="M1455.39,-156.51C1327.39,-150.1 1044.4,-133.58 950.5,-109 891.5,-93.56 827.9,-61.58 790.45,-40.99"/>
<polygon fill="midnightblue" stroke="midnightblue" points="791.95,-37.82 781.51,-36.02 788.55,-43.94 791.95,-37.82"/>
</g>
<!-- Node43&#45;&gt;Node25 -->
<g id="edge77" class="edge">
<title>Node43&#45;&gt;Node25</title>
<path fill="none" stroke="midnightblue" d="M1455.33,-155.07C1391.36,-149.15 1299.53,-136.1 1277.5,-109 1261.48,-89.29 1272.13,-58.54 1281.6,-39.37"/>
<polygon fill="midnightblue" stroke="midnightblue" points="1284.7,-41 1286.29,-30.52 1278.51,-37.72 1284.7,-41"/>
</g>
<!-- Node43&#45;&gt;Node28 -->
<g id="edge79" class="edge">
<title>Node43&#45;&gt;Node28</title>
<path fill="none" stroke="midnightblue" d="M1583.87,-146.42C1636.28,-135.78 1710.3,-120.74 1765.21,-109.59"/>
<polygon fill="midnightblue" stroke="midnightblue" points="1766.13,-112.98 1775.23,-107.55 1764.73,-106.12 1766.13,-112.98"/>
</g>
<!-- Node43&#45;&gt;Node31 -->
<g id="edge81" class="edge">
<title>Node43&#45;&gt;Node31</title>
<path fill="none" stroke="midnightblue" d="M1526.4,-145.26C1535.3,-127.92 1552.1,-98.41 1572.5,-78 1589.98,-60.51 1613.79,-45.52 1631.92,-35.47"/>
<polygon fill="midnightblue" stroke="midnightblue" points="1633.68,-38.49 1640.83,-30.67 1630.36,-32.33 1633.68,-38.49"/>
</g>
<!-- Node43&#45;&gt;Node41 -->
<g id="edge78" class="edge">
<title>Node43&#45;&gt;Node41</title>
<path fill="none" stroke="midnightblue" d="M1455.34,-151.37C1377.35,-141.47 1241.75,-124.18 1125.5,-109 1111.79,-107.21 1097.11,-105.27 1083.12,-103.41"/>
<polygon fill="midnightblue" stroke="midnightblue" points="1083.44,-99.93 1073.07,-102.08 1082.52,-106.86 1083.44,-99.93"/>
</g>
<!-- Node44&#45;&gt;Node4 -->
<g id="edge95" class="edge">
<title>Node44&#45;&gt;Node4</title>
<path fill="none" stroke="midnightblue" d="M1684.75,-145.23C1682.19,-127.58 1680.72,-97.48 1695.5,-78 1713.11,-54.78 1741.72,-41.18 1768.81,-33.22"/>
<polygon fill="midnightblue" stroke="midnightblue" points="1769.96,-36.53 1778.7,-30.54 1768.13,-29.78 1769.96,-36.53"/>
</g>
<!-- Node44&#45;&gt;Node5 -->
<g id="edge96" class="edge">
<title>Node44&#45;&gt;Node5</title>
<path fill="none" stroke="midnightblue" d="M1751.63,-152.69C1908.93,-135.81 2326.4,-89.9 2673.5,-42 2695.6,-38.95 2719.74,-35.37 2741.27,-32.08"/>
<polygon fill="midnightblue" stroke="midnightblue" points="2741.93,-35.52 2751.28,-30.55 2740.86,-28.6 2741.93,-35.52"/>
</g>
<!-- Node44&#45;&gt;Node6 -->
<g id="edge97" class="edge">
<title>Node44&#45;&gt;Node6</title>
<path fill="none" stroke="midnightblue" d="M1623.26,-149.6C1532.95,-135.66 1377.99,-111.63 1365.5,-109 1259.5,-86.69 1136.57,-51.55 1075.7,-33.52"/>
<polygon fill="midnightblue" stroke="midnightblue" points="1076.36,-30.06 1065.78,-30.56 1074.37,-36.77 1076.36,-30.06"/>
</g>
<!-- Node44&#45;&gt;Node7 -->
<g id="edge98" class="edge">
<title>Node44&#45;&gt;Node7</title>
<path fill="none" stroke="midnightblue" d="M1696.51,-145.45C1709.47,-126.56 1735.28,-93.56 1766.5,-78 1826.86,-47.92 2007.98,-33.02 2121.19,-26.45"/>
<polygon fill="midnightblue" stroke="midnightblue" points="2121.47,-29.94 2131.25,-25.88 2121.07,-22.95 2121.47,-29.94"/>
</g>
<!-- Node44&#45;&gt;Node8 -->
<g id="edge99" class="edge">
<title>Node44&#45;&gt;Node8</title>
<path fill="none" stroke="midnightblue" d="M1751.79,-146.94C1840.24,-129.91 2004.54,-99.2 2145.5,-78 2279.45,-57.85 2436.39,-39.74 2526.56,-29.87"/>
<polygon fill="midnightblue" stroke="midnightblue" points="2527.12,-33.33 2536.68,-28.76 2526.36,-26.37 2527.12,-33.33"/>
</g>
<!-- Node44&#45;&gt;Node11 -->
<g id="edge94" class="edge">
<title>Node44&#45;&gt;Node11</title>
<path fill="none" stroke="midnightblue" d="M1751.65,-156.25C1927.75,-147.2 2407.74,-121.53 2439.5,-109 2459.78,-101 2457.32,-86.23 2477.5,-78 2560.15,-44.31 2788.78,-51.68 2877.5,-42 2917.74,-37.61 2963.69,-31.6 2995.24,-27.31"/>
<polygon fill="midnightblue" stroke="midnightblue" points="2995.92,-30.75 3005.36,-25.93 2994.97,-23.82 2995.92,-30.75"/>
</g>
<!-- Node44&#45;&gt;Node13 -->
<g id="edge92" class="edge">
<title>Node44&#45;&gt;Node13</title>
<path fill="none" stroke="midnightblue" d="M1623.43,-149.26C1613.1,-147.74 1602.51,-146.27 1592.5,-145 1433.41,-124.9 1392.04,-133.05 1233.5,-109 1165.33,-98.66 1149.44,-89.73 1081.5,-78 969.15,-58.6 939.02,-65.72 827.5,-42 822.8,-41 817.96,-39.86 813.11,-38.64"/>
<polygon fill="midnightblue" stroke="midnightblue" points="813.77,-35.19 803.21,-36.04 811.99,-41.96 813.77,-35.19"/>
</g>
<!-- Node44&#45;&gt;Node25 -->
<g id="edge89" class="edge">
<title>Node44&#45;&gt;Node25</title>
<path fill="none" stroke="midnightblue" d="M1623.48,-149.73C1558.92,-139.39 1464.02,-122.7 1429.5,-109 1383.35,-90.68 1335.68,-56.65 1310.23,-37.02"/>
<polygon fill="midnightblue" stroke="midnightblue" points="1312.22,-34.13 1302.19,-30.72 1307.9,-39.64 1312.22,-34.13"/>
</g>
<!-- Node44&#45;&gt;Node28 -->
<g id="edge91" class="edge">
<title>Node44&#45;&gt;Node28</title>
<path fill="none" stroke="midnightblue" d="M1720.48,-145.4C1742.99,-135.77 1773,-122.94 1797.26,-112.56"/>
<polygon fill="midnightblue" stroke="midnightblue" points="1798.76,-115.73 1806.58,-108.58 1796.01,-109.29 1798.76,-115.73"/>
</g>
<!-- Node44&#45;&gt;Node31 -->
<g id="edge93" class="edge">
<title>Node44&#45;&gt;Node31</title>
<path fill="none" stroke="midnightblue" d="M1629.79,-145.41C1611.12,-137.83 1592.44,-126.32 1581.5,-109 1563.33,-80.22 1602.57,-51.58 1631.43,-35.4"/>
<polygon fill="midnightblue" stroke="midnightblue" points="1633.2,-38.42 1640.35,-30.6 1629.88,-32.26 1633.2,-38.42"/>
</g>
<!-- Node44&#45;&gt;Node41 -->
<g id="edge90" class="edge">
<title>Node44&#45;&gt;Node41</title>
<path fill="none" stroke="midnightblue" d="M1623.45,-149.12C1613.12,-147.62 1602.52,-146.18 1592.5,-145 1402.48,-122.55 1354.04,-126.39 1163.5,-109 1137.24,-106.6 1108.36,-103.79 1083.2,-101.29"/>
<polygon fill="midnightblue" stroke="midnightblue" points="1083.32,-97.78 1073.02,-100.27 1082.63,-104.75 1083.32,-97.78"/>
</g>
<!-- Node45&#45;&gt;Node11 -->
<g id="edge105" class="edge">
<title>Node45&#45;&gt;Node11</title>
<path fill="none" stroke="midnightblue" d="M2099.79,-153.93C2186.03,-146.06 2343.82,-130.23 2477.5,-109 2545.59,-98.19 2561.54,-89.63 2629.5,-78 2699.67,-65.99 2908.85,-38.3 2995.38,-26.97"/>
<polygon fill="midnightblue" stroke="midnightblue" points="2995.85,-30.44 3005.31,-25.67 2994.94,-23.5 2995.85,-30.44"/>
</g>
<!-- Node45&#45;&gt;Node18 -->
<g id="edge103" class="edge">
<title>Node45&#45;&gt;Node18</title>
<path fill="none" stroke="midnightblue" d="M2099.52,-154.16C2135.62,-151.24 2181.56,-147.69 2222.5,-145 2522.13,-125.33 2875.92,-107.86 3051.38,-99.58"/>
<polygon fill="midnightblue" stroke="midnightblue" points="3051.57,-103.07 3061.4,-99.1 3051.24,-96.08 3051.57,-103.07"/>
</g>
<!-- Node45&#45;&gt;Node25 -->
<g id="edge101" class="edge">
<title>Node45&#45;&gt;Node25</title>
<path fill="none" stroke="midnightblue" d="M1971.48,-149.34C1910.29,-139.5 1815.48,-123.92 1733.5,-109 1591.68,-83.19 1424.96,-49.45 1342.71,-32.57"/>
<polygon fill="midnightblue" stroke="midnightblue" points="1343.36,-29.14 1332.86,-30.55 1341.95,-35.99 1343.36,-29.14"/>
</g>
<!-- Node45&#45;&gt;Node28 -->
<g id="edge102" class="edge">
<title>Node45&#45;&gt;Node28</title>
<path fill="none" stroke="midnightblue" d="M1992.97,-145.4C1963.18,-135.52 1923.18,-122.25 1891.49,-111.74"/>
<polygon fill="midnightblue" stroke="midnightblue" points="1892.54,-108.4 1881.95,-108.58 1890.34,-115.05 1892.54,-108.4"/>
</g>
<!-- Node45&#45;&gt;Node31 -->
<g id="edge104" class="edge">
<title>Node45&#45;&gt;Node31</title>
<path fill="none" stroke="midnightblue" d="M2018.75,-145.44C1996.09,-127.16 1953.77,-95.5 1912.5,-78 1894.12,-70.21 1779.98,-46.47 1711.11,-32.52"/>
<polygon fill="midnightblue" stroke="midnightblue" points="1711.79,-29.09 1701.29,-30.54 1710.4,-35.95 1711.79,-29.09"/>
</g>
<!-- Node46&#45;&gt;Node21 -->
<g id="edge108" class="edge">
<title>Node46&#45;&gt;Node21</title>
<path fill="none" stroke="midnightblue" d="M460.94,-217.9C451.35,-208.62 437.08,-192.88 430.5,-176 423.36,-157.67 422.19,-135.3 422.62,-118.63"/>
<polygon fill="midnightblue" stroke="midnightblue" points="426.12,-118.75 423.09,-108.6 419.13,-118.43 426.12,-118.75"/>
</g>
<!-- Node46&#45;&gt;Node26 -->
<g id="edge107" class="edge">
<title>Node46&#45;&gt;Node26</title>
<path fill="none" stroke="midnightblue" d="M515.43,-217.94C577.62,-206.08 689.81,-184.7 756.8,-171.93"/>
<polygon fill="midnightblue" stroke="midnightblue" points="757.57,-175.34 766.74,-170.03 756.26,-168.47 757.57,-175.34"/>
</g>
<!-- Node47 -->
<g id="node39" class="node">
<title>Node47</title>
<g id="a_node39"><a xlink:title=" ">
<polygon fill="none" stroke="#bfbfbf" points="440,-145.5 440,-175.5 561,-175.5 561,-145.5 440,-145.5"/>
<text text-anchor="start" x="448" y="-163.5" font-family="Helvetica,sans-Serif" font-size="10.00">seerep_msgs/camera</text>
<text text-anchor="middle" x="500.5" y="-152.5" font-family="Helvetica,sans-Serif" font-size="10.00">_intrinsics_query.h</text>
</a>
</g>
</g>
<!-- Node46&#45;&gt;Node47 -->
<g id="edge109" class="edge">
<title>Node46&#45;&gt;Node47</title>
<path fill="none" stroke="midnightblue" d="M474.55,-217.73C478.44,-209.29 484.51,-196.14 489.8,-184.68"/>
<polygon fill="midnightblue" stroke="midnightblue" points="492.98,-186.14 494,-175.59 486.63,-183.2 492.98,-186.14"/>
</g>
<!-- Node48&#45;&gt;Node4 -->
<g id="edge154" class="edge">
<title>Node48&#45;&gt;Node4</title>
<path fill="none" stroke="midnightblue" d="M2890.76,-370.23C2810.85,-367.11 2638.81,-356.49 2498.5,-321 2337.65,-280.31 2299.48,-256.68 2154.5,-176 2132.96,-164.01 2130.22,-156.66 2108.5,-145 2071.63,-125.21 2059.72,-126.03 2021.5,-109 1965.5,-84.05 1900.99,-52.55 1865.79,-35.11"/>
<polygon fill="midnightblue" stroke="midnightblue" points="1867.19,-31.9 1856.67,-30.59 1864.07,-38.17 1867.19,-31.9"/>
</g>
<!-- Node48&#45;&gt;Node5 -->
<g id="edge155" class="edge">
<title>Node48&#45;&gt;Node5</title>
<path fill="none" stroke="midnightblue" d="M2965.08,-363C2972.98,-360.88 2981.53,-358.73 2989.5,-357 3085.05,-336.3 3127.76,-378.94 3206.5,-321 3227.4,-305.62 3299.89,-134.54 3304.5,-109 3306.95,-95.44 3313.68,-88.27 3304.5,-78 3302.74,-76.03 3016.3,-44.8 2878.26,-29.86"/>
<polygon fill="midnightblue" stroke="midnightblue" points="2878.5,-26.36 2868.18,-28.76 2877.74,-33.32 2878.5,-26.36"/>
</g>
<!-- Node48&#45;&gt;Node6 -->
<g id="edge156" class="edge">
<title>Node48&#45;&gt;Node6</title>
<path fill="none" stroke="midnightblue" d="M2890.61,-368.39C2579.86,-346.74 759.93,-218.24 722.5,-176 713.36,-165.69 714.73,-156.38 722.5,-145 739.05,-120.77 921.91,-59.35 1001.19,-33.62"/>
<polygon fill="midnightblue" stroke="midnightblue" points="1002.34,-36.93 1010.77,-30.52 1000.18,-30.27 1002.34,-36.93"/>
</g>
<!-- Node48&#45;&gt;Node7 -->
<g id="edge157" class="edge">
<title>Node48&#45;&gt;Node7</title>
<path fill="none" stroke="midnightblue" d="M2890.94,-368.88C2857.79,-364.31 2814.62,-352.27 2792.5,-321 2781.72,-305.76 2781.59,-294.14 2792.5,-279 2822.08,-237.95 2853.21,-261 2900.5,-243 2971.02,-216.16 3014.99,-239.01 3056.5,-176 3064.08,-164.49 3065.2,-155.69 3056.5,-145 3033.36,-116.57 2769.71,-83.7 2733.5,-78 2587.21,-54.96 2416.12,-38.45 2312.08,-29.57"/>
<polygon fill="midnightblue" stroke="midnightblue" points="2312.17,-26.06 2301.91,-28.71 2311.58,-33.04 2312.17,-26.06"/>
</g>
<!-- Node48&#45;&gt;Node8 -->
<g id="edge158" class="edge">
<title>Node48&#45;&gt;Node8</title>
<path fill="none" stroke="midnightblue" d="M2890.77,-366.9C2861.2,-361.28 2824.51,-348.77 2805.5,-321 2794.96,-305.6 2793.06,-292.91 2805.5,-279 2853.5,-225.33 3059.18,-265.74 3127.5,-243 3190.89,-221.9 3284.1,-196.48 3241.5,-145 3186.98,-79.12 3134.75,-132.37 3052.5,-109 3015.42,-98.46 3008.77,-87.82 2971.5,-78 2967.83,-77.03 2773.14,-47.83 2667.31,-31.99"/>
<polygon fill="midnightblue" stroke="midnightblue" points="2667.77,-28.52 2657.36,-30.5 2666.73,-35.44 2667.77,-28.52"/>
</g>
<!-- Node48&#45;&gt;Node10 -->
<g id="edge115" class="edge">
<title>Node48&#45;&gt;Node10</title>
<path fill="none" stroke="midnightblue" d="M2964.78,-362.96C2972.75,-360.82 2981.42,-358.66 2989.5,-357 3099.46,-334.4 3142.34,-377.22 3239.5,-321 3269.83,-303.45 3328.64,-216.64 3353.25,-178.98"/>
<polygon fill="midnightblue" stroke="midnightblue" points="3356.47,-180.44 3358.98,-170.15 3350.6,-176.63 3356.47,-180.44"/>
</g>
<!-- Node48&#45;&gt;Node11 -->
<g id="edge116" class="edge">
<title>Node48&#45;&gt;Node11</title>
<path fill="none" stroke="midnightblue" d="M2963.3,-362.95C2971.65,-360.68 2980.89,-358.46 2989.5,-357 3043.87,-347.81 3446.95,-361.38 3484.5,-321 3572.56,-226.31 3441.62,-132.8 3324.5,-78 3240.05,-38.49 3129.34,-26.86 3071.87,-23.43"/>
<polygon fill="midnightblue" stroke="midnightblue" points="3071.95,-19.93 3061.77,-22.88 3071.57,-26.92 3071.95,-19.93"/>
</g>
<!-- Node48&#45;&gt;Node15 -->
<g id="edge120" class="edge">
<title>Node48&#45;&gt;Node15</title>
<path fill="none" stroke="midnightblue" d="M2963.01,-362.96C2971.44,-360.66 2980.78,-358.42 2989.5,-357 3254.95,-313.91 3330.72,-378.12 3593.5,-321 3746.38,-287.77 3917.25,-206.54 3980.85,-174.66"/>
<polygon fill="midnightblue" stroke="midnightblue" points="3982.43,-177.78 3989.78,-170.15 3979.27,-171.53 3982.43,-177.78"/>
</g>
<!-- Node48&#45;&gt;Node29 -->
<g id="edge118" class="edge">
<title>Node48&#45;&gt;Node29</title>
<path fill="none" stroke="midnightblue" d="M2963.02,-362.98C2971.44,-360.68 2980.78,-358.43 2989.5,-357 3113.86,-336.56 3441.98,-375.76 3555.5,-321 3578.17,-310.06 3572.23,-292.47 3593.5,-279 3640.18,-249.44 3679.57,-287.37 3712.5,-243 3760.27,-178.64 3696.05,-78.41 3666.73,-38.86"/>
<polygon fill="midnightblue" stroke="midnightblue" points="3669.26,-36.41 3660.42,-30.57 3663.69,-40.65 3669.26,-36.41"/>
</g>
<!-- Node48&#45;&gt;Node41 -->
<g id="edge121" class="edge">
<title>Node48&#45;&gt;Node41</title>
<path fill="none" stroke="midnightblue" d="M2890.79,-368.94C2742.37,-360.41 2266.74,-332.84 2113.5,-321 1740.56,-292.19 1640.87,-323.14 1275.5,-243 1188.04,-223.82 1159.22,-226.83 1085.5,-176 1062.88,-160.41 1043.33,-135.56 1030.88,-117.4"/>
<polygon fill="midnightblue" stroke="midnightblue" points="1033.48,-114.99 1025.03,-108.59 1027.64,-118.86 1033.48,-114.99"/>
</g>
<!-- Node49 -->
<g id="node41" class="node">
<title>Node49</title>
<g id="a_node41"><a xlink:title=" ">
<polygon fill="none" stroke="#bfbfbf" points="3292,-290.5 3292,-309.5 3475,-309.5 3475,-290.5 3292,-290.5"/>
<text text-anchor="middle" x="3383.5" y="-297.5" font-family="Helvetica,sans-Serif" font-size="10.00">CGAL/Boolean_set_operations_2.h</text>
</a>
</g>
</g>
<!-- Node48&#45;&gt;Node49 -->
<g id="edge111" class="edge">
<title>Node48&#45;&gt;Node49</title>
<path fill="none" stroke="midnightblue" d="M2964.47,-362.93C2972.53,-360.77 2981.31,-358.6 2989.5,-357 3116.09,-332.21 3150.06,-340.97 3277.5,-321 3295.21,-318.23 3314.49,-314.73 3331.7,-311.44"/>
<polygon fill="midnightblue" stroke="midnightblue" points="3332.41,-314.87 3341.56,-309.53 3331.08,-307.99 3332.41,-314.87"/>
</g>
<!-- Node50 -->
<g id="node42" class="node">
<title>Node50</title>
<g id="a_node42"><a xlink:title=" ">
<polygon fill="none" stroke="#bfbfbf" points="2814,-279.5 2814,-320.5 2943,-320.5 2943,-279.5 2814,-279.5"/>
<text text-anchor="start" x="2822" y="-308.5" font-family="Helvetica,sans-Serif" font-size="10.00">CGAL/Exact_predicates</text>
<text text-anchor="start" x="2822" y="-297.5" font-family="Helvetica,sans-Serif" font-size="10.00">_exact_constructions</text>
<text text-anchor="middle" x="2878.5" y="-286.5" font-family="Helvetica,sans-Serif" font-size="10.00">_kernel.h</text>
</a>
</g>
</g>
<!-- Node48&#45;&gt;Node50 -->
<g id="edge112" class="edge">
<title>Node48&#45;&gt;Node50</title>
<path fill="none" stroke="midnightblue" d="M2928.51,-362.86C2921.59,-354.29 2910.61,-340.71 2900.7,-328.46"/>
<polygon fill="midnightblue" stroke="midnightblue" points="2903.41,-326.24 2894.4,-320.66 2897.96,-330.64 2903.41,-326.24"/>
</g>
<!-- Node51 -->
<g id="node43" class="node">
<title>Node51</title>
<g id="a_node43"><a xlink:title=" ">
<polygon fill="none" stroke="#bfbfbf" points="2961.5,-290.5 2961.5,-309.5 3025.5,-309.5 3025.5,-290.5 2961.5,-290.5"/>
<text text-anchor="middle" x="2993.5" y="-297.5" font-family="Helvetica,sans-Serif" font-size="10.00">algorithm</text>
</a>
</g>
</g>
<!-- Node48&#45;&gt;Node51 -->
<g id="edge113" class="edge">
<title>Node48&#45;&gt;Node51</title>
<path fill="none" stroke="midnightblue" d="M2942.61,-362.86C2951.83,-351.65 2968.1,-331.87 2979.77,-317.69"/>
<polygon fill="midnightblue" stroke="midnightblue" points="2982.68,-319.66 2986.33,-309.72 2977.27,-315.21 2982.68,-319.66"/>
</g>
<!-- Node52 -->
<g id="node44" class="node">
<title>Node52</title>
<g id="a_node44"><a xlink:title=" ">
<polygon fill="none" stroke="#bfbfbf" points="3043.5,-290.5 3043.5,-309.5 3093.5,-309.5 3093.5,-290.5 3043.5,-290.5"/>
<text text-anchor="middle" x="3068.5" y="-297.5" font-family="Helvetica,sans-Serif" font-size="10.00">cstdint</text>
</a>
</g>
</g>
<!-- Node48&#45;&gt;Node52 -->
<g id="edge114" class="edge">
<title>Node48&#45;&gt;Node52</title>
<path fill="none" stroke="midnightblue" d="M2953.19,-362.88C2973.13,-353.06 3006.42,-336.4 3034.5,-321 3038.11,-319.02 3041.9,-316.86 3045.59,-314.73"/>
<polygon fill="midnightblue" stroke="midnightblue" points="3047.53,-317.65 3054.38,-309.56 3043.99,-311.61 3047.53,-317.65"/>
</g>
<!-- Node53 -->
<g id="node45" class="node">
<title>Node53</title>
<g id="a_node45"><a xlink:title=" ">
<polygon fill="none" stroke="#bfbfbf" points="3111.5,-290.5 3111.5,-309.5 3197.5,-309.5 3197.5,-290.5 3111.5,-290.5"/>
<text text-anchor="middle" x="3154.5" y="-297.5" font-family="Helvetica,sans-Serif" font-size="10.00">unordered_set</text>
</a>
</g>
</g>
<!-- Node48&#45;&gt;Node53 -->
<g id="edge117" class="edge">
<title>Node48&#45;&gt;Node53</title>
<path fill="none" stroke="midnightblue" d="M2966.19,-362.95C2999.85,-353.41 3055.37,-337.17 3102.5,-321 3109.38,-318.64 3116.72,-315.94 3123.63,-313.3"/>
<polygon fill="midnightblue" stroke="midnightblue" points="3125.31,-316.4 3133.38,-309.53 3122.79,-309.87 3125.31,-316.4"/>
</g>
<!-- Node54 -->
<g id="node46" class="node">
<title>Node54</title>
<g id="a_node46"><a xlink:title=" ">
<polygon fill="none" stroke="#bfbfbf" points="2910,-151 2910,-170 3047,-170 3047,-151 2910,-151"/>
<text text-anchor="middle" x="2978.5" y="-158" font-family="Helvetica,sans-Serif" font-size="10.00">seerep_msgs/datatype.h</text>
</a>
</g>
</g>
<!-- Node48&#45;&gt;Node54 -->
<g id="edge119" class="edge">
<title>Node48&#45;&gt;Node54</title>
<path fill="none" stroke="midnightblue" d="M2890.71,-366.67C2837.24,-359.88 2752.63,-345.5 2733.5,-321 2722.01,-306.29 2722.23,-293.88 2733.5,-279 2769.18,-231.89 2808.07,-268.24 2861.5,-243 2899.64,-224.99 2938.84,-194.85 2960.79,-176.71"/>
<polygon fill="midnightblue" stroke="midnightblue" points="2963.17,-179.28 2968.58,-170.17 2958.67,-173.92 2963.17,-179.28"/>
</g>
<!-- Node48&#45;&gt;Node55 -->
<g id="edge122" class="edge">
<title>Node48&#45;&gt;Node55</title>
<path fill="none" stroke="midnightblue" d="M2890.91,-363.21C2821.67,-350.33 2688.4,-325.54 2612.69,-311.45"/>
<polygon fill="midnightblue" stroke="midnightblue" points="2612.87,-307.93 2602.4,-309.54 2611.59,-314.81 2612.87,-307.93"/>
</g>
<!-- Node48&#45;&gt;Node58 -->
<g id="edge144" class="edge">
<title>Node48&#45;&gt;Node58</title>
<path fill="none" stroke="midnightblue" d="M2963.3,-362.93C2971.65,-360.66 2980.88,-358.44 2989.5,-357 3105.5,-337.66 3408.88,-366.09 3517.5,-321 3543.68,-310.13 3541.76,-294.49 3565.5,-279 3589.51,-263.33 3619.15,-249.84 3641.31,-240.75"/>
<polygon fill="midnightblue" stroke="midnightblue" points="3642.63,-243.99 3650.61,-237.01 3640.02,-237.49 3642.63,-243.99"/>
</g>
<!-- Node55&#45;&gt;Node4 -->
<g id="edge139" class="edge">
<title>Node55&#45;&gt;Node4</title>
<path fill="none" stroke="midnightblue" d="M2529.43,-290.46C2496.26,-279.87 2438.43,-261 2389.5,-243 2314.45,-215.39 2295.6,-208.43 2222.5,-176 2131.65,-135.69 2113.94,-114.5 2021.5,-78 1974.98,-59.63 1919.89,-43.42 1882.6,-33.23"/>
<polygon fill="midnightblue" stroke="midnightblue" points="1883.14,-29.75 1872.57,-30.51 1881.31,-36.5 1883.14,-29.75"/>
</g>
<!-- Node55&#45;&gt;Node5 -->
<g id="edge140" class="edge">
<title>Node55&#45;&gt;Node5</title>
<path fill="none" stroke="midnightblue" d="M2598.72,-290.44C2616.81,-286.82 2638.17,-282.62 2657.5,-279 2748,-262.06 2772.53,-266.7 2861.5,-243 2900.76,-232.54 2908.93,-224.78 2947.5,-212 2952.18,-210.45 3284.56,-112.96 3287.5,-109 3295.71,-97.94 3296.66,-88.29 3287.5,-78 3284.13,-74.21 3012.64,-44.39 2878.66,-29.88"/>
<polygon fill="midnightblue" stroke="midnightblue" points="2878.79,-26.37 2868.47,-28.77 2878.04,-33.33 2878.79,-26.37"/>
</g>
<!-- Node55&#45;&gt;Node6 -->
<g id="edge141" class="edge">
<title>Node55&#45;&gt;Node6</title>
<path fill="none" stroke="midnightblue" d="M2507.32,-298.73C2230.33,-296.81 872.01,-282.03 722.5,-176 685.01,-149.41 659.13,-112.49 689.5,-78 731.25,-30.58 909.72,-55.21 971.5,-42 981.86,-39.78 992.95,-36.71 1003.02,-33.64"/>
<polygon fill="midnightblue" stroke="midnightblue" points="1004.2,-36.94 1012.68,-30.59 1002.1,-30.26 1004.2,-36.94"/>
</g>
<!-- Node55&#45;&gt;Node7 -->
<g id="edge142" class="edge">
<title>Node55&#45;&gt;Node7</title>
<path fill="none" stroke="midnightblue" d="M2550.02,-290.26C2525.8,-258.11 2437.14,-144.87 2341.5,-78 2313.85,-58.67 2278.46,-43.56 2252.39,-33.94"/>
<polygon fill="midnightblue" stroke="midnightblue" points="2253.49,-30.61 2242.9,-30.52 2251.12,-37.2 2253.49,-30.61"/>
</g>
<!-- Node55&#45;&gt;Node8 -->
<g id="edge143" class="edge">
<title>Node55&#45;&gt;Node8</title>
<path fill="none" stroke="midnightblue" d="M2554.52,-290.24C2549.49,-266.05 2538,-196.7 2558.5,-145 2566.5,-124.82 2582.6,-128.8 2591.5,-109 2601.35,-87.08 2602.46,-59.02 2601.88,-40.78"/>
<polygon fill="midnightblue" stroke="midnightblue" points="2605.36,-40.41 2601.34,-30.61 2598.37,-40.78 2605.36,-40.41"/>
</g>
<!-- Node55&#45;&gt;Node10 -->
<g id="edge123" class="edge">
<title>Node55&#45;&gt;Node10</title>
<path fill="none" stroke="midnightblue" d="M2605.7,-293.61C2684.18,-284.76 2842.4,-265.81 2975.5,-243 3102.23,-221.29 3250.56,-188 3321.91,-171.5"/>
<polygon fill="midnightblue" stroke="midnightblue" points="3322.92,-174.86 3331.87,-169.19 3321.34,-168.04 3322.92,-174.86"/>
</g>
<!-- Node55&#45;&gt;Node11 -->
<g id="edge124" class="edge">
<title>Node55&#45;&gt;Node11</title>
<path fill="none" stroke="midnightblue" d="M2596.7,-290.48C2615.18,-286.71 2637.4,-282.37 2657.5,-279 2772.98,-259.62 2807.26,-279.57 2918.5,-243 2945.9,-233.99 2948.51,-222.17 2975.5,-212 3043.3,-186.45 3065.2,-197.14 3134.5,-176 3213.37,-151.94 3260.9,-177.02 3307.5,-109 3315.29,-97.63 3316.21,-88.67 3307.5,-78 3278.21,-42.12 3140.39,-28.62 3072.07,-24.07"/>
<polygon fill="midnightblue" stroke="midnightblue" points="3071.94,-20.55 3061.73,-23.41 3071.49,-27.54 3071.94,-20.55"/>
</g>
<!-- Node55&#45;&gt;Node42 -->
<g id="edge138" class="edge">
<title>Node55&#45;&gt;Node42</title>
<path fill="none" stroke="midnightblue" d="M2540.17,-290.48C2519.18,-279.53 2481.6,-259.89 2449.5,-243 2408.87,-221.61 2362.27,-196.94 2331.08,-180.39"/>
<polygon fill="midnightblue" stroke="midnightblue" points="2332.39,-177.12 2321.91,-175.53 2329.11,-183.3 2332.39,-177.12"/>
</g>
<!-- Node55&#45;&gt;Node54 -->
<g id="edge136" class="edge">
<title>Node55&#45;&gt;Node54</title>
<path fill="none" stroke="midnightblue" d="M2580.82,-290.45C2592.43,-286.58 2606.57,-282.18 2619.5,-279 2708.91,-257.02 2737.8,-276.64 2823.5,-243 2847.14,-233.72 2849.3,-224.34 2871.5,-212 2897.04,-197.81 2927.22,-183.8 2949.01,-174.15"/>
<polygon fill="midnightblue" stroke="midnightblue" points="2950.63,-177.26 2958.38,-170.04 2947.82,-170.85 2950.63,-177.26"/>
</g>
<!-- Node56 -->
<g id="node48" class="node">
<title>Node56</title>
<g id="a_node48"><a xlink:href="core__instance_8h.html" target="_top" xlink:title=" ">
<polygon fill="none" stroke="black" points="2721,-218 2721,-237 2814,-237 2814,-218 2721,-218"/>
<text text-anchor="middle" x="2767.5" y="-225" font-family="Helvetica,sans-Serif" font-size="10.00">core_instance.h</text>
</a>
</g>
</g>
<!-- Node55&#45;&gt;Node56 -->
<g id="edge125" class="edge">
<title>Node55&#45;&gt;Node56</title>
<path fill="none" stroke="midnightblue" d="M2581.95,-290.5C2619.5,-277.95 2689.85,-254.44 2732.32,-240.26"/>
<polygon fill="midnightblue" stroke="midnightblue" points="2733.58,-243.52 2741.96,-237.03 2731.36,-236.88 2733.58,-243.52"/>
</g>
<!-- Node57 -->
<g id="node49" class="node">
<title>Node57</title>
<g id="a_node49"><a xlink:title=" ">
<polygon fill="none" stroke="#bfbfbf" points="2567.5,-145.5 2567.5,-175.5 2701.5,-175.5 2701.5,-145.5 2567.5,-145.5"/>
<text text-anchor="start" x="2575.5" y="-163.5" font-family="Helvetica,sans-Serif" font-size="10.00">seerep_msgs/label_with</text>
<text text-anchor="middle" x="2634.5" y="-152.5" font-family="Helvetica,sans-Serif" font-size="10.00">_instance.h</text>
</a>
</g>
</g>
<!-- Node55&#45;&gt;Node57 -->
<g id="edge137" class="edge">
<title>Node55&#45;&gt;Node57</title>
<path fill="none" stroke="midnightblue" d="M2561.38,-290.4C2573.23,-269.51 2603.84,-215.55 2621.47,-184.47"/>
<polygon fill="midnightblue" stroke="midnightblue" points="2624.6,-186.05 2626.49,-175.62 2618.51,-182.6 2624.6,-186.05"/>
</g>
<!-- Node56&#45;&gt;Node4 -->
<g id="edge131" class="edge">
<title>Node56&#45;&gt;Node4</title>
<path fill="none" stroke="midnightblue" d="M2764.18,-217.88C2757.14,-200.85 2738.98,-162.96 2710.5,-145 2644.24,-103.22 2124.78,-49.41 1921.07,-29.68"/>
<polygon fill="midnightblue" stroke="midnightblue" points="1921.31,-26.19 1911.02,-28.71 1920.64,-33.16 1921.31,-26.19"/>
</g>
<!-- Node56&#45;&gt;Node5 -->
<g id="edge132" class="edge">
<title>Node56&#45;&gt;Node5</title>
<path fill="none" stroke="midnightblue" d="M2776.78,-217.72C2797.39,-198.44 2846.76,-153.44 2867.5,-145 2950.78,-111.11 3209.82,-175.35 3270.5,-109 3279.8,-98.83 3279.64,-88.31 3270.5,-78 3264.05,-70.73 3007.53,-43.05 2878.32,-29.53"/>
<polygon fill="midnightblue" stroke="midnightblue" points="2878.42,-26.02 2868.11,-28.46 2877.69,-32.98 2878.42,-26.02"/>
</g>
<!-- Node56&#45;&gt;Node6 -->
<g id="edge133" class="edge">
<title>Node56&#45;&gt;Node6</title>
<path fill="none" stroke="midnightblue" d="M2720.97,-225.97C2516.96,-223.47 1700.37,-211.41 1446.5,-176 1321.91,-158.62 1287,-158.85 1171.5,-109 1127.04,-89.81 1080.91,-56.34 1056.06,-36.99"/>
<polygon fill="midnightblue" stroke="midnightblue" points="1057.92,-34 1047.91,-30.55 1053.58,-39.49 1057.92,-34"/>
</g>
<!-- Node56&#45;&gt;Node7 -->
<g id="edge134" class="edge">
<title>Node56&#45;&gt;Node7</title>
<path fill="none" stroke="midnightblue" d="M2767.01,-217.74C2765,-191.07 2754.9,-110.68 2705.5,-78 2673.44,-56.79 2444.86,-37.73 2311.86,-28.28"/>
<polygon fill="midnightblue" stroke="midnightblue" points="2311.89,-24.77 2301.67,-27.56 2311.4,-31.75 2311.89,-24.77"/>
</g>
<!-- Node56&#45;&gt;Node8 -->
<g id="edge135" class="edge">
<title>Node56&#45;&gt;Node8</title>
<path fill="none" stroke="midnightblue" d="M2771.99,-217.73C2783.96,-192.97 2813.62,-121.56 2781.5,-78 2766.81,-58.08 2706.87,-42.23 2659.94,-32.55"/>
<polygon fill="midnightblue" stroke="midnightblue" points="2660.33,-29.06 2649.84,-30.52 2658.95,-35.92 2660.33,-29.06"/>
</g>
<!-- Node56&#45;&gt;Node10 -->
<g id="edge126" class="edge">
<title>Node56&#45;&gt;Node10</title>
<path fill="none" stroke="midnightblue" d="M2814.35,-221.4C2927.25,-209.11 3213.08,-177.99 3321.71,-166.16"/>
<polygon fill="midnightblue" stroke="midnightblue" points="3322.1,-169.64 3331.66,-165.08 3321.34,-162.68 3322.1,-169.64"/>
</g>
<!-- Node56&#45;&gt;Node11 -->
<g id="edge127" class="edge">
<title>Node56&#45;&gt;Node11</title>
<path fill="none" stroke="midnightblue" d="M2784.85,-217.86C2803.65,-208.3 2834.33,-192.1 2859.5,-176 2879.05,-163.5 2879.82,-153.27 2901.5,-145 2981.99,-114.3 3229.48,-172.68 3287.5,-109 3350.78,-39.54 3156.89,-25.53 3071.62,-22.71"/>
<polygon fill="midnightblue" stroke="midnightblue" points="3071.64,-19.21 3061.54,-22.41 3071.43,-26.2 3071.64,-19.21"/>
</g>
<!-- Node56&#45;&gt;Node42 -->
<g id="edge130" class="edge">
<title>Node56&#45;&gt;Node42</title>
<path fill="none" stroke="midnightblue" d="M2720.95,-220.09C2638.96,-208.8 2468.18,-185.28 2369.75,-171.73"/>
<polygon fill="midnightblue" stroke="midnightblue" points="2369.96,-168.22 2359.58,-170.32 2369.01,-175.16 2369.96,-168.22"/>
</g>
<!-- Node56&#45;&gt;Node54 -->
<g id="edge128" class="edge">
<title>Node56&#45;&gt;Node54</title>
<path fill="none" stroke="midnightblue" d="M2795.52,-217.87C2832.91,-206.35 2899.22,-185.92 2940.92,-173.08"/>
<polygon fill="midnightblue" stroke="midnightblue" points="2942.17,-176.35 2950.7,-170.06 2940.11,-169.66 2942.17,-176.35"/>
</g>
<!-- Node56&#45;&gt;Node57 -->
<g id="edge129" class="edge">
<title>Node56&#45;&gt;Node57</title>
<path fill="none" stroke="midnightblue" d="M2749.84,-217.87C2730.14,-208.24 2697.7,-192.39 2672.23,-179.94"/>
<polygon fill="midnightblue" stroke="midnightblue" points="2673.72,-176.77 2663.2,-175.53 2670.65,-183.06 2673.72,-176.77"/>
</g>
<!-- Node58&#45;&gt;Node10 -->
<g id="edge145" class="edge">
<title>Node58&#45;&gt;Node10</title>
<path fill="none" stroke="midnightblue" d="M3643.87,-220.27C3588.93,-208.71 3471.04,-183.91 3407.38,-170.52"/>
<polygon fill="midnightblue" stroke="midnightblue" points="3407.78,-167.03 3397.28,-168.39 3406.34,-173.88 3407.78,-167.03"/>
</g>
<!-- Node58&#45;&gt;Node11 -->
<g id="edge146" class="edge">
<title>Node58&#45;&gt;Node11</title>
<path fill="none" stroke="midnightblue" d="M3670.44,-217.85C3660.59,-191.47 3627.01,-111.85 3569.5,-78 3485.03,-28.28 3179.78,-22.44 3071.73,-21.95"/>
<polygon fill="midnightblue" stroke="midnightblue" points="3071.62,-18.45 3061.61,-21.92 3071.6,-25.45 3071.62,-18.45"/>
</g>
<!-- Node58&#45;&gt;Node15 -->
<g id="edge148" class="edge">
<title>Node58&#45;&gt;Node15</title>
<path fill="none" stroke="midnightblue" d="M3703.35,-221.03C3752.45,-211.98 3853.34,-193.19 3938.5,-176 3944.63,-174.76 3951.07,-173.43 3957.44,-172.09"/>
<polygon fill="midnightblue" stroke="midnightblue" points="3958.28,-175.5 3967.34,-170 3956.83,-168.65 3958.28,-175.5"/>
</g>
<!-- Node58&#45;&gt;Node17 -->
<g id="edge149" class="edge">
<title>Node58&#45;&gt;Node17</title>
<path fill="none" stroke="midnightblue" d="M3698.6,-217.87C3731.87,-206.42 3790.74,-186.18 3828.12,-173.32"/>
<polygon fill="midnightblue" stroke="midnightblue" points="3829.28,-176.63 3837.6,-170.06 3827,-170.01 3829.28,-176.63"/>
</g>
<!-- Node58&#45;&gt;Node18 -->
<g id="edge150" class="edge">
<title>Node58&#45;&gt;Node18</title>
<path fill="none" stroke="midnightblue" d="M3652.55,-217.96C3612.02,-201.73 3519.79,-166.14 3439.5,-145 3370.58,-126.86 3290.36,-113.04 3233.85,-104.49"/>
<polygon fill="midnightblue" stroke="midnightblue" points="3234.35,-101.02 3223.94,-103 3233.31,-107.94 3234.35,-101.02"/>
</g>
<!-- Node58&#45;&gt;Node29 -->
<g id="edge147" class="edge">
<title>Node58&#45;&gt;Node29</title>
<path fill="none" stroke="midnightblue" d="M3672.67,-217.97C3669.69,-187.51 3659.52,-83.56 3655.33,-40.71"/>
<polygon fill="midnightblue" stroke="midnightblue" points="3658.79,-40.17 3654.34,-30.56 3651.83,-40.86 3658.79,-40.17"/>
</g>
<!-- Node58&#45;&gt;Node34 -->
<g id="edge152" class="edge">
<title>Node58&#45;&gt;Node34</title>
<path fill="none" stroke="midnightblue" d="M3679.68,-217.86C3697.45,-193.45 3751.13,-122.85 3808.5,-78 3827.47,-63.17 3850.91,-50.17 3870.74,-40.43"/>
<polygon fill="midnightblue" stroke="midnightblue" points="3872.35,-43.54 3879.85,-36.06 3869.32,-37.23 3872.35,-43.54"/>
</g>
<!-- Node58&#45;&gt;Node35 -->
<g id="edge153" class="edge">
<title>Node58&#45;&gt;Node35</title>
<path fill="none" stroke="midnightblue" d="M3684.76,-217.87C3709.1,-199.32 3766.14,-156.39 3787.5,-145 3886.08,-92.46 4012.04,-51.99 4075.36,-33.32"/>
<polygon fill="midnightblue" stroke="midnightblue" points="4076.35,-36.68 4084.96,-30.52 4074.38,-29.96 4076.35,-36.68"/>
</g>
<!-- Node58&#45;&gt;Node45 -->
<g id="edge151" class="edge">
<title>Node58&#45;&gt;Node45</title>
<path fill="none" stroke="midnightblue" d="M3643.85,-225.94C3492.81,-222.97 2793.78,-208.08 2222.5,-176 2185.38,-173.92 2144.17,-170.81 2109.9,-168"/>
<polygon fill="midnightblue" stroke="midnightblue" points="2109.75,-164.48 2099.5,-167.14 2109.18,-171.45 2109.75,-164.48"/>
</g>
</g>
</svg>
