<?xml version="1.0" encoding="UTF-8" standalone="no"?>
<!DOCTYPE svg PUBLIC "-//W3C//DTD SVG 1.1//EN"
 "http://www.w3.org/Graphics/SVG/1.1/DTD/svg11.dtd">
<!-- Generated by graphviz version 2.43.0 (0)
 -->
<!-- Title: seerep_srv/seerep_core_fb/include/seerep_core_fb/core_fb_general.h Pages: 1 -->
<svg width="1782pt" height="351pt"
 viewBox="0.00 0.00 1782.00 351.00" xmlns="http://www.w3.org/2000/svg" xmlns:xlink="http://www.w3.org/1999/xlink">
<g id="graph0" class="graph" transform="scale(1 1) rotate(0) translate(4 347)">
<title>seerep_srv/seerep_core_fb/include/seerep_core_fb/core_fb_general.h</title>
<!-- Node1 -->
<g id="node1" class="node">
<title>Node1</title>
<g id="a_node1"><a xlink:title=" ">
<polygon fill="#bfbfbf" stroke="black" points="738,-301.5 738,-342.5 870,-342.5 870,-301.5 738,-301.5"/>
<text text-anchor="start" x="746" y="-330.5" font-family="Helvetica,sans-Serif" font-size="10.00">seerep_srv/seerep_core</text>
<text text-anchor="start" x="746" y="-319.5" font-family="Helvetica,sans-Serif" font-size="10.00">_fb/include/seerep_core</text>
<text text-anchor="middle" x="804" y="-308.5" font-family="Helvetica,sans-Serif" font-size="10.00">_fb/core_fb_general.h</text>
</a>
</g>
</g>
<!-- Node2 -->
<g id="node2" class="node">
<title>Node2</title>
<g id="a_node2"><a xlink:href="core__fb__camera__intrinsics_8h.html" target="_top" xlink:title=" ">
<polygon fill="none" stroke="black" points="147.5,-223.5 147.5,-264.5 318.5,-264.5 318.5,-223.5 147.5,-223.5"/>
<text text-anchor="start" x="155.5" y="-252.5" font-family="Helvetica,sans-Serif" font-size="10.00">seerep_srv/seerep_core</text>
<text text-anchor="start" x="155.5" y="-241.5" font-family="Helvetica,sans-Serif" font-size="10.00">_fb/include/seerep_core</text>
<text text-anchor="middle" x="233" y="-230.5" font-family="Helvetica,sans-Serif" font-size="10.00">_fb/core_fb_camera_intrinsics.h</text>
</a>
</g>
</g>
<!-- Node1&#45;&gt;Node2 -->
<g id="edge1" class="edge">
<title>Node1&#45;&gt;Node2</title>
<path fill="none" stroke="midnightblue" d="M727.95,-310.88C621.85,-296.76 429.97,-271.22 318.86,-256.43"/>
<polygon fill="midnightblue" stroke="midnightblue" points="727.57,-314.36 737.94,-312.21 728.49,-307.42 727.57,-314.36"/>
</g>
<!-- Node8 -->
<g id="node8" class="node">
<title>Node8</title>
<g id="a_node8"><a xlink:href="core__fb__image_8h.html" target="_top" xlink:title=" ">
<polygon fill="none" stroke="black" points="501,-223.5 501,-264.5 633,-264.5 633,-223.5 501,-223.5"/>
<text text-anchor="start" x="509" y="-252.5" font-family="Helvetica,sans-Serif" font-size="10.00">seerep_srv/seerep_core</text>
<text text-anchor="start" x="509" y="-241.5" font-family="Helvetica,sans-Serif" font-size="10.00">_fb/include/seerep_core</text>
<text text-anchor="middle" x="567" y="-230.5" font-family="Helvetica,sans-Serif" font-size="10.00">_fb/core_fb_image.h</text>
</a>
</g>
</g>
<!-- Node1&#45;&gt;Node8 -->
<g id="edge7" class="edge">
<title>Node1&#45;&gt;Node8</title>
<path fill="none" stroke="midnightblue" d="M733.22,-298.3C699.68,-287.55 660,-274.82 627.83,-264.51"/>
<polygon fill="midnightblue" stroke="midnightblue" points="732.38,-301.71 742.97,-301.43 734.51,-295.04 732.38,-301.71"/>
</g>
<!-- Node12 -->
<g id="node12" class="node">
<title>Node12</title>
<g id="a_node12"><a xlink:href="core__fb__point_8h.html" target="_top" xlink:title=" ">
<polygon fill="none" stroke="black" points="738,-223.5 738,-264.5 870,-264.5 870,-223.5 738,-223.5"/>
<text text-anchor="start" x="746" y="-252.5" font-family="Helvetica,sans-Serif" font-size="10.00">seerep_srv/seerep_core</text>
<text text-anchor="start" x="746" y="-241.5" font-family="Helvetica,sans-Serif" font-size="10.00">_fb/include/seerep_core</text>
<text text-anchor="middle" x="804" y="-230.5" font-family="Helvetica,sans-Serif" font-size="10.00">_fb/core_fb_point.h</text>
</a>
</g>
</g>
<!-- Node1&#45;&gt;Node12 -->
<g id="edge12" class="edge">
<title>Node1&#45;&gt;Node12</title>
<path fill="none" stroke="midnightblue" d="M804,-291.3C804,-282.3 804,-272.65 804,-264.51"/>
<polygon fill="midnightblue" stroke="midnightblue" points="800.5,-291.43 804,-301.43 807.5,-291.43 800.5,-291.43"/>
</g>
<!-- Node16 -->
<g id="node16" class="node">
<title>Node16</title>
<g id="a_node16"><a xlink:href="core__fb__pointcloud_8h.html" target="_top" xlink:title=" ">
<polygon fill="none" stroke="black" points="1057,-223.5 1057,-264.5 1193,-264.5 1193,-223.5 1057,-223.5"/>
<text text-anchor="start" x="1065" y="-252.5" font-family="Helvetica,sans-Serif" font-size="10.00">seerep_srv/seerep_core</text>
<text text-anchor="start" x="1065" y="-241.5" font-family="Helvetica,sans-Serif" font-size="10.00">_fb/include/seerep_core</text>
<text text-anchor="middle" x="1125" y="-230.5" font-family="Helvetica,sans-Serif" font-size="10.00">_fb/core_fb_pointcloud.h</text>
</a>
</g>
</g>
<!-- Node1&#45;&gt;Node16 -->
<g id="edge17" class="edge">
<title>Node1&#45;&gt;Node16</title>
<path fill="none" stroke="midnightblue" d="M879.93,-303.02C933.58,-290.32 1004.89,-273.44 1056.75,-261.16"/>
<polygon fill="midnightblue" stroke="midnightblue" points="879.05,-299.64 870.12,-305.34 880.66,-306.45 879.05,-299.64"/>
</g>
<!-- Node21 -->
<g id="node21" class="node">
<title>Node21</title>
<g id="a_node21"><a xlink:href="core__fb__tf_8h.html" target="_top" xlink:title=" ">
<polygon fill="none" stroke="black" points="1482,-223.5 1482,-264.5 1614,-264.5 1614,-223.5 1482,-223.5"/>
<text text-anchor="start" x="1490" y="-252.5" font-family="Helvetica,sans-Serif" font-size="10.00">seerep_srv/seerep_core</text>
<text text-anchor="start" x="1490" y="-241.5" font-family="Helvetica,sans-Serif" font-size="10.00">_fb/include/seerep_core</text>
<text text-anchor="middle" x="1548" y="-230.5" font-family="Helvetica,sans-Serif" font-size="10.00">_fb/core_fb_tf.h</text>
</a>
</g>
</g>
<!-- Node1&#45;&gt;Node21 -->
<g id="edge23" class="edge">
<title>Node1&#45;&gt;Node21</title>
<path fill="none" stroke="midnightblue" d="M880.25,-313.21C1026.47,-298.27 1343.96,-265.84 1481.86,-251.76"/>
<polygon fill="midnightblue" stroke="midnightblue" points="879.62,-309.76 870.03,-314.26 880.33,-316.72 879.62,-309.76"/>
</g>
<!-- Node3 -->
<g id="node3" class="node">
<title>Node3</title>
<g id="a_node3"><a xlink:href="core__fb__camera__intrinsics_8cpp.html" target="_top" xlink:title=" ">
<polygon fill="none" stroke="black" points="0,-145.5 0,-186.5 132,-186.5 132,-145.5 0,-145.5"/>
<text text-anchor="start" x="8" y="-174.5" font-family="Helvetica,sans-Serif" font-size="10.00">seerep_srv/seerep_core</text>
<text text-anchor="start" x="8" y="-163.5" font-family="Helvetica,sans-Serif" font-size="10.00">_fb/src/core_fb_camera</text>
<text text-anchor="middle" x="66" y="-152.5" font-family="Helvetica,sans-Serif" font-size="10.00">_intrinsics.cpp</text>
</a>
</g>
</g>
<!-- Node2&#45;&gt;Node3 -->
<g id="edge2" class="edge">
<title>Node2&#45;&gt;Node3</title>
<path fill="none" stroke="midnightblue" d="M180.68,-219.19C157.58,-208.67 130.75,-196.47 108.86,-186.51"/>
<polygon fill="midnightblue" stroke="midnightblue" points="179.44,-222.47 189.99,-223.43 182.34,-216.1 179.44,-222.47"/>
</g>
<!-- Node4 -->
<g id="node4" class="node">
<title>Node4</title>
<g id="a_node4"><a xlink:href="fb__cameraintrinsics__service_8h.html" target="_top" xlink:title=" ">
<polygon fill="none" stroke="black" points="150.5,-145.5 150.5,-186.5 315.5,-186.5 315.5,-145.5 150.5,-145.5"/>
<text text-anchor="start" x="158.5" y="-174.5" font-family="Helvetica,sans-Serif" font-size="10.00">seerep_srv/seerep_server</text>
<text text-anchor="start" x="158.5" y="-163.5" font-family="Helvetica,sans-Serif" font-size="10.00">/include/seerep_server</text>
<text text-anchor="middle" x="233" y="-152.5" font-family="Helvetica,sans-Serif" font-size="10.00">/fb_cameraintrinsics_service.h</text>
</a>
</g>
</g>
<!-- Node2&#45;&gt;Node4 -->
<g id="edge3" class="edge">
<title>Node2&#45;&gt;Node4</title>
<path fill="none" stroke="midnightblue" d="M233,-213.3C233,-204.3 233,-194.65 233,-186.51"/>
<polygon fill="midnightblue" stroke="midnightblue" points="229.5,-213.43 233,-223.43 236.5,-213.43 229.5,-213.43"/>
</g>
<!-- Node5 -->
<g id="node5" class="node">
<title>Node5</title>
<g id="a_node5"><a xlink:href="server_8h.html" target="_top" xlink:title=" ">
<polygon fill="none" stroke="black" points="654,-67.5 654,-108.5 796,-108.5 796,-67.5 654,-67.5"/>
<text text-anchor="start" x="662" y="-96.5" font-family="Helvetica,sans-Serif" font-size="10.00">seerep_srv/seerep_server</text>
<text text-anchor="start" x="662" y="-85.5" font-family="Helvetica,sans-Serif" font-size="10.00">/include/seerep_server</text>
<text text-anchor="middle" x="725" y="-74.5" font-family="Helvetica,sans-Serif" font-size="10.00">/server.h</text>
</a>
</g>
</g>
<!-- Node4&#45;&gt;Node5 -->
<g id="edge4" class="edge">
<title>Node4&#45;&gt;Node5</title>
<path fill="none" stroke="midnightblue" d="M325.62,-145C467.53,-122.35 506.71,-133.59 644,-109 647.28,-108.41 650.62,-107.77 653.99,-107.09"/>
<polygon fill="midnightblue" stroke="midnightblue" points="324.99,-141.55 315.68,-146.61 326.11,-148.46 324.99,-141.55"/>
</g>
<!-- Node7 -->
<g id="node7" class="node">
<title>Node7</title>
<g id="a_node7"><a xlink:href="fb__cameraintrinsics__service_8cpp.html" target="_top" xlink:title=" ">
<polygon fill="none" stroke="black" points="162,-67.5 162,-108.5 304,-108.5 304,-67.5 162,-67.5"/>
<text text-anchor="start" x="170" y="-96.5" font-family="Helvetica,sans-Serif" font-size="10.00">seerep_srv/seerep_server</text>
<text text-anchor="start" x="170" y="-85.5" font-family="Helvetica,sans-Serif" font-size="10.00">/src/fb_cameraintrinsics</text>
<text text-anchor="middle" x="233" y="-74.5" font-family="Helvetica,sans-Serif" font-size="10.00">_service.cpp</text>
</a>
</g>
</g>
<!-- Node4&#45;&gt;Node7 -->
<g id="edge6" class="edge">
<title>Node4&#45;&gt;Node7</title>
<path fill="none" stroke="midnightblue" d="M233,-135.3C233,-126.3 233,-116.65 233,-108.51"/>
<polygon fill="midnightblue" stroke="midnightblue" points="229.5,-135.43 233,-145.43 236.5,-135.43 229.5,-135.43"/>
</g>
<!-- Node6 -->
<g id="node6" class="node">
<title>Node6</title>
<g id="a_node6"><a xlink:href="server_8cpp.html" target="_top" xlink:title=" ">
<polygon fill="none" stroke="black" points="654,-0.5 654,-30.5 796,-30.5 796,-0.5 654,-0.5"/>
<text text-anchor="start" x="662" y="-18.5" font-family="Helvetica,sans-Serif" font-size="10.00">seerep_srv/seerep_server</text>
<text text-anchor="middle" x="725" y="-7.5" font-family="Helvetica,sans-Serif" font-size="10.00">/src/server.cpp</text>
</a>
</g>
</g>
<!-- Node5&#45;&gt;Node6 -->
<g id="edge5" class="edge">
<title>Node5&#45;&gt;Node6</title>
<path fill="none" stroke="midnightblue" d="M725,-57.08C725,-48.01 725,-38.45 725,-30.89"/>
<polygon fill="midnightblue" stroke="midnightblue" points="721.5,-57.36 725,-67.36 728.5,-57.36 721.5,-57.36"/>
</g>
<!-- Node9 -->
<g id="node9" class="node">
<title>Node9</title>
<g id="a_node9"><a xlink:href="core__fb__image_8cpp.html" target="_top" xlink:title=" ">
<polygon fill="none" stroke="black" points="334,-151 334,-181 478,-181 478,-151 334,-151"/>
<text text-anchor="start" x="342" y="-169" font-family="Helvetica,sans-Serif" font-size="10.00">seerep_srv/seerep_core</text>
<text text-anchor="middle" x="406" y="-158" font-family="Helvetica,sans-Serif" font-size="10.00">_fb/src/core_fb_image.cpp</text>
</a>
</g>
</g>
<!-- Node8&#45;&gt;Node9 -->
<g id="edge8" class="edge">
<title>Node8&#45;&gt;Node9</title>
<path fill="none" stroke="midnightblue" d="M516.41,-219.12C489.94,-206.63 458.45,-191.76 435.88,-181.11"/>
<polygon fill="midnightblue" stroke="midnightblue" points="515,-222.32 525.54,-223.43 517.99,-215.99 515,-222.32"/>
</g>
<!-- Node10 -->
<g id="node10" class="node">
<title>Node10</title>
<g id="a_node10"><a xlink:href="fb__image__service_8h.html" target="_top" xlink:title=" ">
<polygon fill="none" stroke="black" points="496,-145.5 496,-186.5 638,-186.5 638,-145.5 496,-145.5"/>
<text text-anchor="start" x="504" y="-174.5" font-family="Helvetica,sans-Serif" font-size="10.00">seerep_srv/seerep_server</text>
<text text-anchor="start" x="504" y="-163.5" font-family="Helvetica,sans-Serif" font-size="10.00">/include/seerep_server</text>
<text text-anchor="middle" x="567" y="-152.5" font-family="Helvetica,sans-Serif" font-size="10.00">/fb_image_service.h</text>
</a>
</g>
</g>
<!-- Node8&#45;&gt;Node10 -->
<g id="edge9" class="edge">
<title>Node8&#45;&gt;Node10</title>
<path fill="none" stroke="midnightblue" d="M567,-213.3C567,-204.3 567,-194.65 567,-186.51"/>
<polygon fill="midnightblue" stroke="midnightblue" points="563.5,-213.43 567,-223.43 570.5,-213.43 563.5,-213.43"/>
</g>
<!-- Node10&#45;&gt;Node5 -->
<g id="edge10" class="edge">
<title>Node10&#45;&gt;Node5</title>
<path fill="none" stroke="midnightblue" d="M616.79,-141.05C638.59,-130.57 663.83,-118.42 684.45,-108.51"/>
<polygon fill="midnightblue" stroke="midnightblue" points="615.18,-137.94 607.69,-145.43 618.22,-144.25 615.18,-137.94"/>
</g>
<!-- Node11 -->
<g id="node11" class="node">
<title>Node11</title>
<g id="a_node11"><a xlink:href="fb__image__service_8cpp.html" target="_top" xlink:title=" ">
<polygon fill="none" stroke="black" points="492.5,-73 492.5,-103 635.5,-103 635.5,-73 492.5,-73"/>
<text text-anchor="start" x="500.5" y="-91" font-family="Helvetica,sans-Serif" font-size="10.00">seerep_srv/seerep_server</text>
<text text-anchor="middle" x="564" y="-80" font-family="Helvetica,sans-Serif" font-size="10.00">/src/fb_image_service.cpp</text>
</a>
</g>
</g>
<!-- Node10&#45;&gt;Node11 -->
<g id="edge11" class="edge">
<title>Node10&#45;&gt;Node11</title>
<path fill="none" stroke="midnightblue" d="M565.83,-135.28C565.39,-124.25 564.92,-112.25 564.56,-103.23"/>
<polygon fill="midnightblue" stroke="midnightblue" points="562.34,-135.57 566.23,-145.43 569.33,-135.3 562.34,-135.57"/>
</g>
<!-- Node13 -->
<g id="node13" class="node">
<title>Node13</title>
<g id="a_node13"><a xlink:href="core__fb__point_8cpp.html" target="_top" xlink:title=" ">
<polygon fill="none" stroke="black" points="656,-151 656,-181 794,-181 794,-151 656,-151"/>
<text text-anchor="start" x="664" y="-169" font-family="Helvetica,sans-Serif" font-size="10.00">seerep_srv/seerep_core</text>
<text text-anchor="middle" x="725" y="-158" font-family="Helvetica,sans-Serif" font-size="10.00">_fb/src/core_fb_point.cpp</text>
</a>
</g>
</g>
<!-- Node12&#45;&gt;Node13 -->
<g id="edge13" class="edge">
<title>Node12&#45;&gt;Node13</title>
<path fill="none" stroke="midnightblue" d="M776.27,-216.32C763.99,-204.51 750.03,-191.08 739.79,-181.23"/>
<polygon fill="midnightblue" stroke="midnightblue" points="774.02,-219.02 783.66,-223.43 778.88,-213.97 774.02,-219.02"/>
</g>
<!-- Node14 -->
<g id="node14" class="node">
<title>Node14</title>
<g id="a_node14"><a xlink:href="fb__point__service_8h.html" target="_top" xlink:title=" ">
<polygon fill="none" stroke="black" points="812,-145.5 812,-186.5 954,-186.5 954,-145.5 812,-145.5"/>
<text text-anchor="start" x="820" y="-174.5" font-family="Helvetica,sans-Serif" font-size="10.00">seerep_srv/seerep_server</text>
<text text-anchor="start" x="820" y="-163.5" font-family="Helvetica,sans-Serif" font-size="10.00">/include/seerep_server</text>
<text text-anchor="middle" x="883" y="-152.5" font-family="Helvetica,sans-Serif" font-size="10.00">/fb_point_service.h</text>
</a>
</g>
</g>
<!-- Node12&#45;&gt;Node14 -->
<g id="edge14" class="edge">
<title>Node12&#45;&gt;Node14</title>
<path fill="none" stroke="midnightblue" d="M831.55,-216.49C841.81,-206.63 853.24,-195.63 862.72,-186.51"/>
<polygon fill="midnightblue" stroke="midnightblue" points="829.12,-213.97 824.34,-223.43 833.98,-219.02 829.12,-213.97"/>
</g>
<!-- Node14&#45;&gt;Node5 -->
<g id="edge15" class="edge">
<title>Node14&#45;&gt;Node5</title>
<path fill="none" stroke="midnightblue" d="M833.21,-141.05C811.41,-130.57 786.17,-118.42 765.55,-108.51"/>
<polygon fill="midnightblue" stroke="midnightblue" points="831.78,-144.25 842.31,-145.43 834.82,-137.94 831.78,-144.25"/>
</g>
<!-- Node15 -->
<g id="node15" class="node">
<title>Node15</title>
<g id="a_node15"><a xlink:href="fb__point__service_8cpp.html" target="_top" xlink:title=" ">
<polygon fill="none" stroke="black" points="814,-73 814,-103 956,-103 956,-73 814,-73"/>
<text text-anchor="start" x="822" y="-91" font-family="Helvetica,sans-Serif" font-size="10.00">seerep_srv/seerep_server</text>
<text text-anchor="middle" x="885" y="-80" font-family="Helvetica,sans-Serif" font-size="10.00">/src/fb_point_service.cpp</text>
</a>
</g>
</g>
<!-- Node14&#45;&gt;Node15 -->
<g id="edge16" class="edge">
<title>Node14&#45;&gt;Node15</title>
<path fill="none" stroke="midnightblue" d="M883.78,-135.28C884.07,-124.25 884.39,-112.25 884.63,-103.23"/>
<polygon fill="midnightblue" stroke="midnightblue" points="880.28,-135.34 883.52,-145.43 887.28,-135.52 880.28,-135.34"/>
</g>
<!-- Node17 -->
<g id="node17" class="node">
<title>Node17</title>
<g id="a_node17"><a xlink:href="core__fb__general_8cpp.html" target="_top" xlink:title=" ">
<polygon fill="none" stroke="black" points="1132,-151 1132,-181 1282,-181 1282,-151 1132,-151"/>
<text text-anchor="start" x="1140" y="-169" font-family="Helvetica,sans-Serif" font-size="10.00">seerep_srv/seerep_core</text>
<text text-anchor="middle" x="1207" y="-158" font-family="Helvetica,sans-Serif" font-size="10.00">_fb/src/core_fb_general.cpp</text>
</a>
</g>
</g>
<!-- Node16&#45;&gt;Node17 -->
<g id="edge18" class="edge">
<title>Node16&#45;&gt;Node17</title>
<path fill="none" stroke="midnightblue" d="M1153.78,-216.32C1166.53,-204.51 1181.02,-191.08 1191.65,-181.23"/>
<polygon fill="midnightblue" stroke="midnightblue" points="1151.07,-214.06 1146.12,-223.43 1155.83,-219.2 1151.07,-214.06"/>
</g>
<!-- Node18 -->
<g id="node18" class="node">
<title>Node18</title>
<g id="a_node18"><a xlink:href="core__fb__pointcloud_8cpp.html" target="_top" xlink:title=" ">
<polygon fill="none" stroke="black" points="1300,-151 1300,-181 1464,-181 1464,-151 1300,-151"/>
<text text-anchor="start" x="1308" y="-169" font-family="Helvetica,sans-Serif" font-size="10.00">seerep_srv/seerep_core</text>
<text text-anchor="middle" x="1382" y="-158" font-family="Helvetica,sans-Serif" font-size="10.00">_fb/src/core_fb_pointcloud.cpp</text>
</a>
</g>
</g>
<!-- Node16&#45;&gt;Node18 -->
<g id="edge19" class="edge">
<title>Node16&#45;&gt;Node18</title>
<path fill="none" stroke="midnightblue" d="M1200.81,-220.58C1244.03,-207.8 1296.86,-192.18 1334.3,-181.11"/>
<polygon fill="midnightblue" stroke="midnightblue" points="1199.78,-217.24 1191.18,-223.43 1201.77,-223.95 1199.78,-217.24"/>
</g>
<!-- Node19 -->
<g id="node19" class="node">
<title>Node19</title>
<g id="a_node19"><a xlink:href="fb__point__cloud__service_8h.html" target="_top" xlink:title=" ">
<polygon fill="none" stroke="black" points="972,-145.5 972,-186.5 1114,-186.5 1114,-145.5 972,-145.5"/>
<text text-anchor="start" x="980" y="-174.5" font-family="Helvetica,sans-Serif" font-size="10.00">seerep_srv/seerep_server</text>
<text text-anchor="start" x="980" y="-163.5" font-family="Helvetica,sans-Serif" font-size="10.00">/include/seerep_server</text>
<text text-anchor="middle" x="1043" y="-152.5" font-family="Helvetica,sans-Serif" font-size="10.00">/fb_point_cloud_service.h</text>
</a>
</g>
</g>
<!-- Node16&#45;&gt;Node19 -->
<g id="edge20" class="edge">
<title>Node16&#45;&gt;Node19</title>
<path fill="none" stroke="midnightblue" d="M1096.4,-216.49C1085.76,-206.63 1073.89,-195.63 1064.05,-186.51"/>
<polygon fill="midnightblue" stroke="midnightblue" points="1094.17,-219.2 1103.88,-223.43 1098.93,-214.06 1094.17,-219.2"/>
</g>
<!-- Node19&#45;&gt;Node5 -->
<g id="edge21" class="edge">
<title>Node19&#45;&gt;Node5</title>
<path fill="none" stroke="midnightblue" d="M962.07,-144.8C891.31,-128.02 872.04,-125.02 805,-109 802.08,-108.3 799.09,-107.58 796.08,-106.85"/>
<polygon fill="midnightblue" stroke="midnightblue" points="961.38,-148.24 971.92,-147.15 963,-141.43 961.38,-148.24"/>
</g>
<!-- Node20 -->
<g id="node20" class="node">
<title>Node20</title>
<g id="a_node20"><a xlink:href="fb__point__cloud__service_8cpp.html" target="_top" xlink:title=" ">
<polygon fill="none" stroke="black" points="974.5,-73 974.5,-103 1143.5,-103 1143.5,-73 974.5,-73"/>
<text text-anchor="start" x="982.5" y="-91" font-family="Helvetica,sans-Serif" font-size="10.00">seerep_srv/seerep_server</text>
<text text-anchor="middle" x="1059" y="-80" font-family="Helvetica,sans-Serif" font-size="10.00">/src/fb_point_cloud_service.cpp</text>
</a>
</g>
</g>
<!-- Node19&#45;&gt;Node20 -->
<g id="edge22" class="edge">
<title>Node19&#45;&gt;Node20</title>
<path fill="none" stroke="midnightblue" d="M1049.18,-135.62C1051.53,-124.5 1054.09,-112.34 1056.01,-103.23"/>
<polygon fill="midnightblue" stroke="midnightblue" points="1045.76,-134.92 1047.12,-145.43 1052.61,-136.36 1045.76,-134.92"/>
</g>
<!-- Node22 -->
<g id="node22" class="node">
<title>Node22</title>
<g id="a_node22"><a xlink:href="core__fb__tf_8cpp.html" target="_top" xlink:title=" ">
<polygon fill="none" stroke="black" points="1482,-151 1482,-181 1614,-181 1614,-151 1482,-151"/>
<text text-anchor="start" x="1490" y="-169" font-family="Helvetica,sans-Serif" font-size="10.00">seerep_srv/seerep_core</text>
<text text-anchor="middle" x="1548" y="-158" font-family="Helvetica,sans-Serif" font-size="10.00">_fb/src/core_fb_tf.cpp</text>
</a>
</g>
</g>
<!-- Node21&#45;&gt;Node22 -->
<g id="edge24" class="edge">
<title>Node21&#45;&gt;Node22</title>
<path fill="none" stroke="midnightblue" d="M1548,-213.28C1548,-202.25 1548,-190.25 1548,-181.23"/>
<polygon fill="midnightblue" stroke="midnightblue" points="1544.5,-213.43 1548,-223.43 1551.5,-213.43 1544.5,-213.43"/>
</g>
<!-- Node23 -->
<g id="node23" class="node">
<title>Node23</title>
<g id="a_node23"><a xlink:href="fb__tf__service_8h.html" target="_top" xlink:title=" ">
<polygon fill="none" stroke="black" points="1632,-145.5 1632,-186.5 1774,-186.5 1774,-145.5 1632,-145.5"/>
<text text-anchor="start" x="1640" y="-174.5" font-family="Helvetica,sans-Serif" font-size="10.00">seerep_srv/seerep_server</text>
<text text-anchor="start" x="1640" y="-163.5" font-family="Helvetica,sans-Serif" font-size="10.00">/include/seerep_server</text>
<text text-anchor="middle" x="1703" y="-152.5" font-family="Helvetica,sans-Serif" font-size="10.00">/fb_tf_service.h</text>
</a>
</g>
</g>
<!-- Node21&#45;&gt;Node23 -->
<g id="edge25" class="edge">
<title>Node21&#45;&gt;Node23</title>
<path fill="none" stroke="midnightblue" d="M1597.13,-218.91C1618.45,-208.46 1643.08,-196.38 1663.22,-186.51"/>
<polygon fill="midnightblue" stroke="midnightblue" points="1595.35,-215.88 1587.92,-223.43 1598.44,-222.17 1595.35,-215.88"/>
</g>
<!-- Node23&#45;&gt;Node5 -->
<g id="edge26" class="edge">
<title>Node23&#45;&gt;Node5</title>
<path fill="none" stroke="midnightblue" d="M1621.69,-144.97C1261.1,-93.84 1161.86,-160.92 805,-109 802.17,-108.59 799.29,-108.12 796.39,-107.6"/>
<polygon fill="midnightblue" stroke="midnightblue" points="1621.22,-148.44 1631.61,-146.4 1622.21,-141.51 1621.22,-148.44"/>
</g>
<!-- Node24 -->
<g id="node24" class="node">
<title>Node24</title>
<g id="a_node24"><a xlink:href="fb__tf__service_8cpp.html" target="_top" xlink:title=" ">
<polygon fill="none" stroke="black" points="1632,-73 1632,-103 1774,-103 1774,-73 1632,-73"/>
<text text-anchor="start" x="1640" y="-91" font-family="Helvetica,sans-Serif" font-size="10.00">seerep_srv/seerep_server</text>
<text text-anchor="middle" x="1703" y="-80" font-family="Helvetica,sans-Serif" font-size="10.00">/src/fb_tf_service.cpp</text>
</a>
</g>
</g>
<!-- Node23&#45;&gt;Node24 -->
<g id="edge27" class="edge">
<title>Node23&#45;&gt;Node24</title>
<path fill="none" stroke="midnightblue" d="M1703,-135.28C1703,-124.25 1703,-112.25 1703,-103.23"/>
<polygon fill="midnightblue" stroke="midnightblue" points="1699.5,-135.43 1703,-145.43 1706.5,-135.43 1699.5,-135.43"/>
</g>
</g>
</svg>
