<?xml version="1.0" encoding="UTF-8" standalone="no"?>
<!DOCTYPE svg PUBLIC "-//W3C//DTD SVG 1.1//EN"
 "http://www.w3.org/Graphics/SVG/1.1/DTD/svg11.dtd">
<!-- Generated by graphviz version 2.43.0 (0)
 -->
<!-- Title: seerep_srv/seerep_core_fb/include/seerep_core_fb/core_fb_instance.h Pages: 1 -->
<svg width="413pt" height="273pt"
 viewBox="0.00 0.00 412.50 273.00" xmlns="http://www.w3.org/2000/svg" xmlns:xlink="http://www.w3.org/1999/xlink">
<g id="graph0" class="graph" transform="scale(1 1) rotate(0) translate(4 269)">
<title>seerep_srv/seerep_core_fb/include/seerep_core_fb/core_fb_instance.h</title>
<!-- Node1 -->
<g id="node1" class="node">
<title>Node1</title>
<g id="a_node1"><a xlink:title=" ">
<polygon fill="#bfbfbf" stroke="black" points="94.5,-223.5 94.5,-264.5 226.5,-264.5 226.5,-223.5 94.5,-223.5"/>
<text text-anchor="start" x="102.5" y="-252.5" font-family="Helvetica,sans-Serif" font-size="10.00">seerep_srv/seerep_core</text>
<text text-anchor="start" x="102.5" y="-241.5" font-family="Helvetica,sans-Serif" font-size="10.00">_fb/include/seerep_core</text>
<text text-anchor="middle" x="160.5" y="-230.5" font-family="Helvetica,sans-Serif" font-size="10.00">_fb/core_fb_instance.h</text>
</a>
</g>
</g>
<!-- Node2 -->
<g id="node2" class="node">
<title>Node2</title>
<g id="a_node2"><a xlink:href="core__fb__instance_8cpp.html" target="_top" xlink:title=" ">
<polygon fill="none" stroke="black" points="0,-151 0,-181 155,-181 155,-151 0,-151"/>
<text text-anchor="start" x="8" y="-169" font-family="Helvetica,sans-Serif" font-size="10.00">seerep_srv/seerep_core</text>
<text text-anchor="middle" x="77.5" y="-158" font-family="Helvetica,sans-Serif" font-size="10.00">_fb/src/core_fb_instance.cpp</text>
</a>
</g>
</g>
<!-- Node1&#45;&gt;Node2 -->
<g id="edge1" class="edge">
<title>Node1&#45;&gt;Node2</title>
<path fill="none" stroke="midnightblue" d="M131.73,-216.66C118.74,-204.76 103.9,-191.18 93.04,-181.23"/>
<polygon fill="midnightblue" stroke="midnightblue" points="129.39,-219.26 139.13,-223.43 134.11,-214.09 129.39,-219.26"/>
</g>
<!-- Node3 -->
<g id="node3" class="node">
<title>Node3</title>
<g id="a_node3"><a xlink:href="fb__instance__service_8h.html" target="_top" xlink:title=" ">
<polygon fill="none" stroke="black" points="173.5,-145.5 173.5,-186.5 315.5,-186.5 315.5,-145.5 173.5,-145.5"/>
<text text-anchor="start" x="181.5" y="-174.5" font-family="Helvetica,sans-Serif" font-size="10.00">seerep_srv/seerep_server</text>
<text text-anchor="start" x="181.5" y="-163.5" font-family="Helvetica,sans-Serif" font-size="10.00">/include/seerep_server</text>
<text text-anchor="middle" x="244.5" y="-152.5" font-family="Helvetica,sans-Serif" font-size="10.00">/fb_instance_service.h</text>
</a>
</g>
</g>
<!-- Node1&#45;&gt;Node3 -->
<g id="edge2" class="edge">
<title>Node1&#45;&gt;Node3</title>
<path fill="none" stroke="midnightblue" d="M189.8,-216.49C200.7,-206.63 212.86,-195.63 222.94,-186.51"/>
<polygon fill="midnightblue" stroke="midnightblue" points="187.2,-214.12 182.13,-223.43 191.9,-219.31 187.2,-214.12"/>
</g>
<!-- Node4 -->
<g id="node4" class="node">
<title>Node4</title>
<g id="a_node4"><a xlink:href="server_8h.html" target="_top" xlink:title=" ">
<polygon fill="none" stroke="black" points="90.5,-67.5 90.5,-108.5 232.5,-108.5 232.5,-67.5 90.5,-67.5"/>
<text text-anchor="start" x="98.5" y="-96.5" font-family="Helvetica,sans-Serif" font-size="10.00">seerep_srv/seerep_server</text>
<text text-anchor="start" x="98.5" y="-85.5" font-family="Helvetica,sans-Serif" font-size="10.00">/include/seerep_server</text>
<text text-anchor="middle" x="161.5" y="-74.5" font-family="Helvetica,sans-Serif" font-size="10.00">/server.h</text>
</a>
</g>
</g>
<!-- Node3&#45;&gt;Node4 -->
<g id="edge3" class="edge">
<title>Node3&#45;&gt;Node4</title>
<path fill="none" stroke="midnightblue" d="M215.55,-138.49C204.78,-128.63 192.76,-117.63 182.8,-108.51"/>
<polygon fill="midnightblue" stroke="midnightblue" points="213.39,-141.26 223.13,-145.43 218.11,-136.09 213.39,-141.26"/>
</g>
<!-- Node6 -->
<g id="node6" class="node">
<title>Node6</title>
<g id="a_node6"><a xlink:href="fb__instance__service_8cpp.html" target="_top" xlink:title=" ">
<polygon fill="none" stroke="black" points="250.5,-73 250.5,-103 404.5,-103 404.5,-73 250.5,-73"/>
<text text-anchor="start" x="258.5" y="-91" font-family="Helvetica,sans-Serif" font-size="10.00">seerep_srv/seerep_server</text>
<text text-anchor="middle" x="327.5" y="-80" font-family="Helvetica,sans-Serif" font-size="10.00">/src/fb_instance_service.cpp</text>
</a>
</g>
</g>
<!-- Node3&#45;&gt;Node6 -->
<g id="edge5" class="edge">
<title>Node3&#45;&gt;Node6</title>
<path fill="none" stroke="midnightblue" d="M273.27,-138.66C286.26,-126.76 301.1,-113.18 311.96,-103.23"/>
<polygon fill="midnightblue" stroke="midnightblue" points="270.89,-136.09 265.87,-145.43 275.61,-141.26 270.89,-136.09"/>
</g>
<!-- Node5 -->
<g id="node5" class="node">
<title>Node5</title>
<g id="a_node5"><a xlink:href="server_8cpp.html" target="_top" xlink:title=" ">
<polygon fill="none" stroke="black" points="90.5,-0.5 90.5,-30.5 232.5,-30.5 232.5,-0.5 90.5,-0.5"/>
<text text-anchor="start" x="98.5" y="-18.5" font-family="Helvetica,sans-Serif" font-size="10.00">seerep_srv/seerep_server</text>
<text text-anchor="middle" x="161.5" y="-7.5" font-family="Helvetica,sans-Serif" font-size="10.00">/src/server.cpp</text>
</a>
</g>
</g>
<!-- Node4&#45;&gt;Node5 -->
<g id="edge4" class="edge">
<title>Node4&#45;&gt;Node5</title>
<path fill="none" stroke="midnightblue" d="M161.5,-57.08C161.5,-48.01 161.5,-38.45 161.5,-30.89"/>
<polygon fill="midnightblue" stroke="midnightblue" points="158,-57.36 161.5,-67.36 165,-57.36 158,-57.36"/>
</g>
</g>
</svg>
