<?xml version="1.0" encoding="UTF-8" standalone="no"?>
<!DOCTYPE svg PUBLIC "-//W3C//DTD SVG 1.1//EN"
 "http://www.w3.org/Graphics/SVG/1.1/DTD/svg11.dtd">
<!-- Generated by graphviz version 2.43.0 (0)
 -->
<!-- Title: seerep_srv/seerep_core_pb/include/seerep_core_pb/core_pb_conversion.h Pages: 1 -->
<svg width="3652pt" height="117pt"
 viewBox="0.00 0.00 3652.00 117.00" xmlns="http://www.w3.org/2000/svg" xmlns:xlink="http://www.w3.org/1999/xlink">
<g id="graph0" class="graph" transform="scale(1 1) rotate(0) translate(4 113)">
<title>seerep_srv/seerep_core_pb/include/seerep_core_pb/core_pb_conversion.h</title>
<!-- Node1 -->
<g id="node1" class="node">
<title>Node1</title>
<g id="a_node1"><a xlink:title=" ">
<polygon fill="#bfbfbf" stroke="black" points="1638,-67.5 1638,-108.5 1781,-108.5 1781,-67.5 1638,-67.5"/>
<text text-anchor="start" x="1646" y="-96.5" font-family="Helvetica,sans-Serif" font-size="10.00">seerep_srv/seerep_core</text>
<text text-anchor="start" x="1646" y="-85.5" font-family="Helvetica,sans-Serif" font-size="10.00">_pb/include/seerep_core</text>
<text text-anchor="middle" x="1709.5" y="-74.5" font-family="Helvetica,sans-Serif" font-size="10.00">_pb/core_pb_conversion.h</text>
</a>
</g>
</g>
<!-- Node2 -->
<g id="node2" class="node">
<title>Node2</title>
<g id="a_node2"><a xlink:title=" ">
<polygon fill="none" stroke="#bfbfbf" points="0,-6 0,-25 65,-25 65,-6 0,-6"/>
<text text-anchor="middle" x="32.5" y="-13" font-family="Helvetica,sans-Serif" font-size="10.00">functional</text>
</a>
</g>
</g>
<!-- Node1&#45;&gt;Node2 -->
<g id="edge1" class="edge">
<title>Node1&#45;&gt;Node2</title>
<path fill="none" stroke="midnightblue" d="M1637.96,-87.38C1363.9,-88.37 380.99,-87.83 74.5,-31 70.79,-30.31 66.97,-29.36 63.21,-28.27"/>
<polygon fill="midnightblue" stroke="midnightblue" points="64.13,-24.88 53.53,-25.14 61.97,-31.54 64.13,-24.88"/>
</g>
<!-- Node3 -->
<g id="node3" class="node">
<title>Node3</title>
<g id="a_node3"><a xlink:title=" ">
<polygon fill="none" stroke="#bfbfbf" points="83.5,-6 83.5,-25 139.5,-25 139.5,-6 83.5,-6"/>
<text text-anchor="middle" x="111.5" y="-13" font-family="Helvetica,sans-Serif" font-size="10.00">optional</text>
</a>
</g>
</g>
<!-- Node1&#45;&gt;Node3 -->
<g id="edge2" class="edge">
<title>Node1&#45;&gt;Node3</title>
<path fill="none" stroke="midnightblue" d="M1637.68,-85.85C1350.76,-81.04 295.12,-61.44 148.5,-31 145.49,-30.38 142.41,-29.53 139.37,-28.56"/>
<polygon fill="midnightblue" stroke="midnightblue" points="140.54,-25.26 129.95,-25.14 138.15,-31.84 140.54,-25.26"/>
</g>
<!-- Node4 -->
<g id="node4" class="node">
<title>Node4</title>
<g id="a_node4"><a xlink:title=" ">
<polygon fill="none" stroke="#bfbfbf" points="158,-0.5 158,-30.5 279,-30.5 279,-0.5 158,-0.5"/>
<text text-anchor="start" x="166" y="-18.5" font-family="Helvetica,sans-Serif" font-size="10.00">seerep_msgs/camera</text>
<text text-anchor="middle" x="218.5" y="-7.5" font-family="Helvetica,sans-Serif" font-size="10.00">_intrinsics.pb.h</text>
</a>
</g>
</g>
<!-- Node1&#45;&gt;Node4 -->
<g id="edge3" class="edge">
<title>Node1&#45;&gt;Node4</title>
<path fill="none" stroke="midnightblue" d="M1637.83,-85.74C1390.7,-81.15 574.2,-63.92 289.42,-30.92"/>
<polygon fill="midnightblue" stroke="midnightblue" points="289.45,-27.4 279.1,-29.69 288.62,-34.35 289.45,-27.4"/>
</g>
<!-- Node5 -->
<g id="node5" class="node">
<title>Node5</title>
<g id="a_node5"><a xlink:title=" ">
<polygon fill="none" stroke="#bfbfbf" points="297.5,-0.5 297.5,-30.5 419.5,-30.5 419.5,-0.5 297.5,-0.5"/>
<text text-anchor="start" x="305.5" y="-18.5" font-family="Helvetica,sans-Serif" font-size="10.00">seerep_msgs/camera</text>
<text text-anchor="middle" x="358.5" y="-7.5" font-family="Helvetica,sans-Serif" font-size="10.00">_intrinsics_query.pb.h</text>
</a>
</g>
</g>
<!-- Node1&#45;&gt;Node5 -->
<g id="edge4" class="edge">
<title>Node1&#45;&gt;Node5</title>
<path fill="none" stroke="midnightblue" d="M1637.69,-85.38C1406.87,-79.94 684.66,-61.01 429.83,-31"/>
<polygon fill="midnightblue" stroke="midnightblue" points="430.22,-27.52 419.87,-29.79 429.37,-34.47 430.22,-27.52"/>
</g>
<!-- Node6 -->
<g id="node6" class="node">
<title>Node6</title>
<g id="a_node6"><a xlink:title=" ">
<polygon fill="none" stroke="#bfbfbf" points="437.5,-6 437.5,-25 589.5,-25 589.5,-6 437.5,-6"/>
<text text-anchor="middle" x="513.5" y="-13" font-family="Helvetica,sans-Serif" font-size="10.00">seerep_msgs/datatype.pb.h</text>
</a>
</g>
</g>
<!-- Node1&#45;&gt;Node6 -->
<g id="edge5" class="edge">
<title>Node1&#45;&gt;Node6</title>
<path fill="none" stroke="midnightblue" d="M1637.78,-86.33C1460.77,-84.03 989.15,-74.01 598.5,-31 588.46,-29.89 577.8,-28.36 567.55,-26.71"/>
<polygon fill="midnightblue" stroke="midnightblue" points="567.92,-23.22 557.48,-25.02 566.76,-30.13 567.92,-23.22"/>
</g>
<!-- Node7 -->
<g id="node7" class="node">
<title>Node7</title>
<g id="a_node7"><a xlink:title=" ">
<polygon fill="none" stroke="#bfbfbf" points="608,-6 608,-25 747,-25 747,-6 608,-6"/>
<text text-anchor="middle" x="677.5" y="-13" font-family="Helvetica,sans-Serif" font-size="10.00">seerep_msgs/image.pb.h</text>
</a>
</g>
</g>
<!-- Node1&#45;&gt;Node7 -->
<g id="edge6" class="edge">
<title>Node1&#45;&gt;Node7</title>
<path fill="none" stroke="midnightblue" d="M1637.8,-85.79C1478.67,-82.45 1084.15,-70.54 756.5,-31 747.45,-29.91 737.87,-28.43 728.63,-26.83"/>
<polygon fill="midnightblue" stroke="midnightblue" points="729.22,-23.38 718.76,-25.06 727.99,-30.27 729.22,-23.38"/>
</g>
<!-- Node8 -->
<g id="node8" class="node">
<title>Node8</title>
<g id="a_node8"><a xlink:title=" ">
<polygon fill="none" stroke="#bfbfbf" points="765.5,-0.5 765.5,-30.5 905.5,-30.5 905.5,-0.5 765.5,-0.5"/>
<text text-anchor="start" x="773.5" y="-18.5" font-family="Helvetica,sans-Serif" font-size="10.00">seerep_msgs/point_cloud</text>
<text text-anchor="middle" x="835.5" y="-7.5" font-family="Helvetica,sans-Serif" font-size="10.00">_2.pb.h</text>
</a>
</g>
</g>
<!-- Node1&#45;&gt;Node8 -->
<g id="edge7" class="edge">
<title>Node1&#45;&gt;Node8</title>
<path fill="none" stroke="midnightblue" d="M1637.98,-84.63C1500.1,-79.48 1187.86,-64.98 915.72,-31.06"/>
<polygon fill="midnightblue" stroke="midnightblue" points="916.01,-27.57 905.65,-29.79 915.13,-34.51 916.01,-27.57"/>
</g>
<!-- Node9 -->
<g id="node9" class="node">
<title>Node9</title>
<g id="a_node9"><a xlink:title=" ">
<polygon fill="none" stroke="#bfbfbf" points="923.5,-6 923.5,-25 1057.5,-25 1057.5,-6 923.5,-6"/>
<text text-anchor="middle" x="990.5" y="-13" font-family="Helvetica,sans-Serif" font-size="10.00">seerep_msgs/query.pb.h</text>
</a>
</g>
</g>
<!-- Node1&#45;&gt;Node9 -->
<g id="edge8" class="edge">
<title>Node1&#45;&gt;Node9</title>
<path fill="none" stroke="midnightblue" d="M1637.87,-83.15C1518.84,-76.21 1272.95,-59.61 1066.5,-31 1058.18,-29.85 1049.39,-28.39 1040.86,-26.85"/>
<polygon fill="midnightblue" stroke="midnightblue" points="1041.47,-23.41 1031,-25.02 1040.19,-30.29 1041.47,-23.41"/>
</g>
<!-- Node10 -->
<g id="node10" class="node">
<title>Node10</title>
<g id="a_node10"><a xlink:title=" ">
<polygon fill="none" stroke="#bfbfbf" points="1076,-0.5 1076,-30.5 1191,-30.5 1191,-0.5 1076,-0.5"/>
<text text-anchor="start" x="1084" y="-18.5" font-family="Helvetica,sans-Serif" font-size="10.00">seerep_msgs/region</text>
<text text-anchor="middle" x="1133.5" y="-7.5" font-family="Helvetica,sans-Serif" font-size="10.00">_of_interest.pb.h</text>
</a>
</g>
</g>
<!-- Node1&#45;&gt;Node10 -->
<g id="edge9" class="edge">
<title>Node1&#45;&gt;Node10</title>
<path fill="none" stroke="midnightblue" d="M1637.95,-81.48C1541.19,-73.49 1363.09,-56.94 1201.31,-31.02"/>
<polygon fill="midnightblue" stroke="midnightblue" points="1201.6,-27.52 1191.17,-29.38 1200.48,-34.43 1201.6,-27.52"/>
</g>
<!-- Node11 -->
<g id="node11" class="node">
<title>Node11</title>
<g id="a_node11"><a xlink:title=" ">
<polygon fill="none" stroke="#bfbfbf" points="1209.5,-0.5 1209.5,-30.5 1341.5,-30.5 1341.5,-0.5 1209.5,-0.5"/>
<text text-anchor="start" x="1217.5" y="-18.5" font-family="Helvetica,sans-Serif" font-size="10.00">seerep_msgs/transform</text>
<text text-anchor="middle" x="1275.5" y="-7.5" font-family="Helvetica,sans-Serif" font-size="10.00">_stamped.pb.h</text>
</a>
</g>
</g>
<!-- Node1&#45;&gt;Node11 -->
<g id="edge10" class="edge">
<title>Node1&#45;&gt;Node11</title>
<path fill="none" stroke="midnightblue" d="M1637.85,-76.6C1567.57,-66.23 1457.09,-49.45 1351.89,-31.21"/>
<polygon fill="midnightblue" stroke="midnightblue" points="1352.18,-27.71 1341.73,-29.44 1350.98,-34.6 1352.18,-27.71"/>
</g>
<!-- Node12 -->
<g id="node12" class="node">
<title>Node12</title>
<g id="a_node12"><a xlink:title=" ">
<polygon fill="none" stroke="#bfbfbf" points="1359.5,-0.5 1359.5,-30.5 1491.5,-30.5 1491.5,-0.5 1359.5,-0.5"/>
<text text-anchor="start" x="1367.5" y="-18.5" font-family="Helvetica,sans-Serif" font-size="10.00">seerep_msgs/transform</text>
<text text-anchor="middle" x="1425.5" y="-7.5" font-family="Helvetica,sans-Serif" font-size="10.00">_stamped_query.pb.h</text>
</a>
</g>
</g>
<!-- Node1&#45;&gt;Node12 -->
<g id="edge11" class="edge">
<title>Node1&#45;&gt;Node12</title>
<path fill="none" stroke="midnightblue" d="M1637.83,-69.21C1593.02,-58.08 1535.69,-43.85 1491.9,-32.98"/>
<polygon fill="midnightblue" stroke="midnightblue" points="1492.48,-29.52 1481.93,-30.51 1490.79,-36.31 1492.48,-29.52"/>
</g>
<!-- Node13 -->
<g id="node13" class="node">
<title>Node13</title>
<g id="a_node13"><a xlink:title=" ">
<polygon fill="none" stroke="#bfbfbf" points="1510,-0.5 1510,-30.5 1631,-30.5 1631,-0.5 1510,-0.5"/>
<text text-anchor="start" x="1518" y="-18.5" font-family="Helvetica,sans-Serif" font-size="10.00">seerep_msgs/camera</text>
<text text-anchor="middle" x="1570.5" y="-7.5" font-family="Helvetica,sans-Serif" font-size="10.00">_intrinsics.h</text>
</a>
</g>
</g>
<!-- Node1&#45;&gt;Node13 -->
<g id="edge12" class="edge">
<title>Node1&#45;&gt;Node13</title>
<path fill="none" stroke="midnightblue" d="M1670.78,-67.36C1650.95,-57.3 1626.92,-45.12 1607.36,-35.2"/>
<polygon fill="midnightblue" stroke="midnightblue" points="1608.94,-32.07 1598.44,-30.67 1605.77,-38.31 1608.94,-32.07"/>
</g>
<!-- Node14 -->
<g id="node14" class="node">
<title>Node14</title>
<g id="a_node14"><a xlink:title=" ">
<polygon fill="none" stroke="#bfbfbf" points="1649,-0.5 1649,-30.5 1770,-30.5 1770,-0.5 1649,-0.5"/>
<text text-anchor="start" x="1657" y="-18.5" font-family="Helvetica,sans-Serif" font-size="10.00">seerep_msgs/camera</text>
<text text-anchor="middle" x="1709.5" y="-7.5" font-family="Helvetica,sans-Serif" font-size="10.00">_intrinsics_query.h</text>
</a>
</g>
</g>
<!-- Node1&#45;&gt;Node14 -->
<g id="edge13" class="edge">
<title>Node1&#45;&gt;Node14</title>
<path fill="none" stroke="midnightblue" d="M1709.5,-67.36C1709.5,-59.23 1709.5,-49.7 1709.5,-41.11"/>
<polygon fill="midnightblue" stroke="midnightblue" points="1713,-40.89 1709.5,-30.89 1706,-40.89 1713,-40.89"/>
</g>
<!-- Node15 -->
<g id="node15" class="node">
<title>Node15</title>
<g id="a_node15"><a xlink:title=" ">
<polygon fill="none" stroke="#bfbfbf" points="1788,-0.5 1788,-30.5 1909,-30.5 1909,-0.5 1788,-0.5"/>
<text text-anchor="start" x="1796" y="-18.5" font-family="Helvetica,sans-Serif" font-size="10.00">seerep_msgs/dataset</text>
<text text-anchor="middle" x="1848.5" y="-7.5" font-family="Helvetica,sans-Serif" font-size="10.00">_indexable.h</text>
</a>
</g>
</g>
<!-- Node1&#45;&gt;Node15 -->
<g id="edge14" class="edge">
<title>Node1&#45;&gt;Node15</title>
<path fill="none" stroke="midnightblue" d="M1748.22,-67.36C1768.05,-57.3 1792.08,-45.12 1811.64,-35.2"/>
<polygon fill="midnightblue" stroke="midnightblue" points="1813.23,-38.31 1820.56,-30.67 1810.06,-32.07 1813.23,-38.31"/>
</g>
<!-- Node16 -->
<g id="node16" class="node">
<title>Node16</title>
<g id="a_node16"><a xlink:title=" ">
<polygon fill="none" stroke="#bfbfbf" points="1927.5,-0.5 1927.5,-30.5 2061.5,-30.5 2061.5,-0.5 1927.5,-0.5"/>
<text text-anchor="start" x="1935.5" y="-18.5" font-family="Helvetica,sans-Serif" font-size="10.00">seerep_msgs/label_with</text>
<text text-anchor="middle" x="1994.5" y="-7.5" font-family="Helvetica,sans-Serif" font-size="10.00">_instance.h</text>
</a>
</g>
</g>
<!-- Node1&#45;&gt;Node16 -->
<g id="edge15" class="edge">
<title>Node1&#45;&gt;Node16</title>
<path fill="none" stroke="midnightblue" d="M1781.05,-69.3C1826.12,-58.15 1883.9,-43.86 1927.97,-32.96"/>
<polygon fill="midnightblue" stroke="midnightblue" points="1928.86,-36.34 1937.73,-30.54 1927.18,-29.55 1928.86,-36.34"/>
</g>
<!-- Node17 -->
<g id="node17" class="node">
<title>Node17</title>
<g id="a_node17"><a xlink:title=" ">
<polygon fill="none" stroke="#bfbfbf" points="2080,-6 2080,-25 2199,-25 2199,-6 2080,-6"/>
<text text-anchor="middle" x="2139.5" y="-13" font-family="Helvetica,sans-Serif" font-size="10.00">seerep_msgs/query.h</text>
</a>
</g>
</g>
<!-- Node1&#45;&gt;Node17 -->
<g id="edge16" class="edge">
<title>Node1&#45;&gt;Node17</title>
<path fill="none" stroke="midnightblue" d="M1781.27,-77.02C1854.25,-66.59 1970.52,-49.25 2070.5,-31 2077.05,-29.8 2083.94,-28.46 2090.72,-27.09"/>
<polygon fill="midnightblue" stroke="midnightblue" points="2091.44,-30.51 2100.53,-25.07 2090.03,-23.66 2091.44,-30.51"/>
</g>
<!-- Node18 -->
<g id="node18" class="node">
<title>Node18</title>
<g id="a_node18"><a xlink:title=" ">
<polygon fill="none" stroke="#bfbfbf" points="2217.5,-6 2217.5,-25 2371.5,-25 2371.5,-6 2217.5,-6"/>
<text text-anchor="middle" x="2294.5" y="-13" font-family="Helvetica,sans-Serif" font-size="10.00">seerep_msgs/query_result.h</text>
</a>
</g>
</g>
<!-- Node1&#45;&gt;Node18 -->
<g id="edge17" class="edge">
<title>Node1&#45;&gt;Node18</title>
<path fill="none" stroke="midnightblue" d="M1781.13,-80.22C1878.19,-70.74 2056.77,-52.29 2208.5,-31 2217.64,-29.72 2227.3,-28.22 2236.72,-26.69"/>
<polygon fill="midnightblue" stroke="midnightblue" points="2237.51,-30.11 2246.81,-25.02 2236.37,-23.2 2237.51,-30.11"/>
</g>
<!-- Node19 -->
<g id="node19" class="node">
<title>Node19</title>
<g id="a_node19"><a xlink:title=" ">
<polygon fill="none" stroke="#bfbfbf" points="2390,-6 2390,-25 2523,-25 2523,-6 2390,-6"/>
<text text-anchor="middle" x="2456.5" y="-13" font-family="Helvetica,sans-Serif" font-size="10.00">seerep_msgs/query_tf.h</text>
</a>
</g>
</g>
<!-- Node1&#45;&gt;Node19 -->
<g id="edge18" class="edge">
<title>Node1&#45;&gt;Node19</title>
<path fill="none" stroke="midnightblue" d="M1781.27,-83.5C1904.33,-76.93 2163.34,-60.69 2380.5,-31 2388.82,-29.86 2397.61,-28.41 2406.15,-26.88"/>
<polygon fill="midnightblue" stroke="midnightblue" points="2406.81,-30.31 2416,-25.04 2405.53,-23.43 2406.81,-30.31"/>
</g>
<!-- Node20 -->
<g id="node20" class="node">
<title>Node20</title>
<g id="a_node20"><a xlink:title=" ">
<polygon fill="none" stroke="#bfbfbf" points="2541,-0.5 2541,-30.5 2656,-30.5 2656,-0.5 2541,-0.5"/>
<text text-anchor="start" x="2549" y="-18.5" font-family="Helvetica,sans-Serif" font-size="10.00">seerep_msgs/region</text>
<text text-anchor="middle" x="2598.5" y="-7.5" font-family="Helvetica,sans-Serif" font-size="10.00">_of_interest.h</text>
</a>
</g>
</g>
<!-- Node1&#45;&gt;Node20 -->
<g id="edge19" class="edge">
<title>Node1&#45;&gt;Node20</title>
<path fill="none" stroke="midnightblue" d="M1781.15,-85.69C1922.84,-82.33 2248.83,-70.75 2530.98,-31.08"/>
<polygon fill="midnightblue" stroke="midnightblue" points="2531.59,-34.53 2541,-29.66 2530.61,-27.6 2531.59,-34.53"/>
</g>
<!-- Node21 -->
<g id="node21" class="node">
<title>Node21</title>
<g id="a_node21"><a xlink:title=" ">
<polygon fill="none" stroke="#bfbfbf" points="2674.5,-6 2674.5,-25 2874.5,-25 2874.5,-6 2674.5,-6"/>
<text text-anchor="middle" x="2774.5" y="-13" font-family="Helvetica,sans-Serif" font-size="10.00">geometry_msgs/TransformStamped.h</text>
</a>
</g>
</g>
<!-- Node1&#45;&gt;Node21 -->
<g id="edge20" class="edge">
<title>Node1&#45;&gt;Node21</title>
<path fill="none" stroke="midnightblue" d="M1781.29,-84.6C1940.67,-78.89 2335.95,-62.53 2665.5,-31 2678.75,-29.73 2692.87,-28.08 2706.4,-26.35"/>
<polygon fill="midnightblue" stroke="midnightblue" points="2707.15,-29.78 2716.61,-25.01 2706.24,-22.84 2707.15,-29.78"/>
</g>
<!-- Node22 -->
<g id="node22" class="node">
<title>Node22</title>
<g id="a_node22"><a xlink:title=" ">
<polygon fill="none" stroke="#bfbfbf" points="2893,-6 2893,-25 3036,-25 3036,-6 2893,-6"/>
<text text-anchor="middle" x="2964.5" y="-13" font-family="Helvetica,sans-Serif" font-size="10.00">boost/functional/hash.hpp</text>
</a>
</g>
</g>
<!-- Node1&#45;&gt;Node22 -->
<g id="edge21" class="edge">
<title>Node1&#45;&gt;Node22</title>
<path fill="none" stroke="midnightblue" d="M1781.23,-86.8C1965.06,-85.6 2467.83,-77.92 2883.5,-31 2892.98,-29.93 2903.03,-28.43 2912.7,-26.8"/>
<polygon fill="midnightblue" stroke="midnightblue" points="2913.36,-30.24 2922.61,-25.06 2912.16,-23.34 2913.36,-30.24"/>
</g>
<!-- Node23 -->
<g id="node23" class="node">
<title>Node23</title>
<g id="a_node23"><a xlink:title=" ">
<polygon fill="none" stroke="#bfbfbf" points="3054,-6 3054,-25 3179,-25 3179,-6 3054,-6"/>
<text text-anchor="middle" x="3116.5" y="-13" font-family="Helvetica,sans-Serif" font-size="10.00">boost/lexical_cast.hpp</text>
</a>
</g>
</g>
<!-- Node1&#45;&gt;Node23 -->
<g id="edge22" class="edge">
<title>Node1&#45;&gt;Node23</title>
<path fill="none" stroke="midnightblue" d="M1781.01,-85.51C2021.12,-80.27 2797.35,-61.34 3045.5,-31 3053.58,-30.01 3062.11,-28.6 3070.35,-27.03"/>
<polygon fill="midnightblue" stroke="midnightblue" points="3071.07,-30.46 3080.2,-25.07 3069.71,-23.59 3071.07,-30.46"/>
</g>
<!-- Node24 -->
<g id="node24" class="node">
<title>Node24</title>
<g id="a_node24"><a xlink:title=" ">
<polygon fill="none" stroke="#bfbfbf" points="3197,-6 3197,-25 3310,-25 3310,-6 3197,-6"/>
<text text-anchor="middle" x="3253.5" y="-13" font-family="Helvetica,sans-Serif" font-size="10.00">boost/uuid/uuid.hpp</text>
</a>
</g>
</g>
<!-- Node1&#45;&gt;Node24 -->
<g id="edge23" class="edge">
<title>Node1&#45;&gt;Node24</title>
<path fill="none" stroke="midnightblue" d="M1781.43,-86.01C2038.55,-82.19 2911.53,-66.83 3188.5,-31 3195.75,-30.06 3203.39,-28.7 3210.78,-27.19"/>
<polygon fill="midnightblue" stroke="midnightblue" points="3211.61,-30.59 3220.64,-25.05 3210.12,-23.75 3211.61,-30.59"/>
</g>
<!-- Node25 -->
<g id="node25" class="node">
<title>Node25</title>
<g id="a_node25"><a xlink:title=" ">
<polygon fill="none" stroke="#bfbfbf" points="3328.5,-6 3328.5,-25 3498.5,-25 3498.5,-6 3328.5,-6"/>
<text text-anchor="middle" x="3413.5" y="-13" font-family="Helvetica,sans-Serif" font-size="10.00">boost/uuid/uuid_generators.hpp</text>
</a>
</g>
</g>
<!-- Node1&#45;&gt;Node25 -->
<g id="edge24" class="edge">
<title>Node1&#45;&gt;Node25</title>
<path fill="none" stroke="midnightblue" d="M1781.11,-87.52C2007.38,-88.53 2727.1,-86.8 3319.5,-31 3331.07,-29.91 3343.38,-28.32 3355.16,-26.6"/>
<polygon fill="midnightblue" stroke="midnightblue" points="3355.97,-30.01 3365.33,-25.05 3354.92,-23.09 3355.97,-30.01"/>
</g>
<!-- Node26 -->
<g id="node26" class="node">
<title>Node26</title>
<g id="a_node26"><a xlink:title=" ">
<polygon fill="none" stroke="#bfbfbf" points="3517,-6 3517,-25 3644,-25 3644,-6 3517,-6"/>
<text text-anchor="middle" x="3580.5" y="-13" font-family="Helvetica,sans-Serif" font-size="10.00">boost/uuid/uuid_io.hpp</text>
</a>
</g>
</g>
<!-- Node1&#45;&gt;Node26 -->
<g id="edge25" class="edge">
<title>Node1&#45;&gt;Node26</title>
<path fill="none" stroke="midnightblue" d="M1781.41,-86.34C2072.54,-83.45 3164.43,-70.14 3507.5,-31 3515.99,-30.03 3524.96,-28.6 3533.61,-27"/>
<polygon fill="midnightblue" stroke="midnightblue" points="3534.4,-30.41 3543.55,-25.07 3533.07,-23.54 3534.4,-30.41"/>
</g>
</g>
</svg>
