<?xml version="1.0" encoding="UTF-8" standalone="no"?>
<!DOCTYPE svg PUBLIC "-//W3C//DTD SVG 1.1//EN"
 "http://www.w3.org/Graphics/SVG/1.1/DTD/svg11.dtd">
<!-- Generated by graphviz version 2.43.0 (0)
 -->
<!-- Title: seerep&#45;srv/seerep&#45;core&#45;fb/src/core&#45;fb&#45;conversion.cpp Pages: 1 -->
<svg width="3347pt" height="173pt"
 viewBox="0.00 0.00 3347.00 173.00" xmlns="http://www.w3.org/2000/svg" xmlns:xlink="http://www.w3.org/1999/xlink">
<g id="graph0" class="graph" transform="scale(1 1) rotate(0) translate(4 169)">
<title>seerep&#45;srv/seerep&#45;core&#45;fb/src/core&#45;fb&#45;conversion.cpp</title>
<!-- Node1 -->
<g id="node1" class="node">
<title>Node1</title>
<g id="a_node1"><a xlink:title=" ">
<polygon fill="#bfbfbf" stroke="black" points="1532.5,-134.5 1532.5,-164.5 1694.5,-164.5 1694.5,-134.5 1532.5,-134.5"/>
<text text-anchor="start" x="1540.5" y="-152.5" font-family="Helvetica,sans-Serif" font-size="10.00">seerep&#45;srv/seerep&#45;core</text>
<text text-anchor="middle" x="1613.5" y="-141.5" font-family="Helvetica,sans-Serif" font-size="10.00">&#45;fb/src/core&#45;fb&#45;conversion.cpp</text>
</a>
</g>
</g>
<!-- Node2 -->
<g id="node2" class="node">
<title>Node2</title>
<g id="a_node2"><a xlink:href="core-fb-conversion_8h.html" target="_top" xlink:title=" ">
<polygon fill="none" stroke="black" points="1557.5,-67.5 1557.5,-97.5 1669.5,-97.5 1669.5,-67.5 1557.5,-67.5"/>
<text text-anchor="start" x="1565.5" y="-85.5" font-family="Helvetica,sans-Serif" font-size="10.00">seerep&#45;core&#45;fb/core</text>
<text text-anchor="middle" x="1613.5" y="-74.5" font-family="Helvetica,sans-Serif" font-size="10.00">&#45;fb&#45;conversion.h</text>
</a>
</g>
</g>
<!-- Node1&#45;&gt;Node2 -->
<g id="edge1" class="edge">
<title>Node1&#45;&gt;Node2</title>
<path fill="none" stroke="midnightblue" d="M1613.5,-134.4C1613.5,-126.64 1613.5,-116.81 1613.5,-107.86"/>
<polygon fill="midnightblue" stroke="midnightblue" points="1617,-107.58 1613.5,-97.58 1610,-107.58 1617,-107.58"/>
</g>
<!-- Node3 -->
<g id="node3" class="node">
<title>Node3</title>
<g id="a_node3"><a xlink:title=" ">
<polygon fill="none" stroke="#bfbfbf" points="0,-6 0,-25 65,-25 65,-6 0,-6"/>
<text text-anchor="middle" x="32.5" y="-13" font-family="Helvetica,sans-Serif" font-size="10.00">functional</text>
</a>
</g>
</g>
<!-- Node2&#45;&gt;Node3 -->
<g id="edge2" class="edge">
<title>Node2&#45;&gt;Node3</title>
<path fill="none" stroke="midnightblue" d="M1557.18,-81.9C1315.74,-83.28 367.29,-85.07 74.5,-31 70.79,-30.32 66.97,-29.36 63.21,-28.27"/>
<polygon fill="midnightblue" stroke="midnightblue" points="64.13,-24.89 53.53,-25.14 61.97,-31.55 64.13,-24.89"/>
</g>
<!-- Node4 -->
<g id="node4" class="node">
<title>Node4</title>
<g id="a_node4"><a xlink:title=" ">
<polygon fill="none" stroke="#bfbfbf" points="83.5,-6 83.5,-25 139.5,-25 139.5,-6 83.5,-6"/>
<text text-anchor="middle" x="111.5" y="-13" font-family="Helvetica,sans-Serif" font-size="10.00">optional</text>
</a>
</g>
</g>
<!-- Node2&#45;&gt;Node4 -->
<g id="edge3" class="edge">
<title>Node2&#45;&gt;Node4</title>
<path fill="none" stroke="midnightblue" d="M1557.09,-80.68C1305.03,-76.88 288.06,-59.87 148.5,-31 145.49,-30.38 142.41,-29.53 139.37,-28.56"/>
<polygon fill="midnightblue" stroke="midnightblue" points="140.54,-25.26 129.95,-25.14 138.15,-31.84 140.54,-25.26"/>
</g>
<!-- Node5 -->
<g id="node5" class="node">
<title>Node5</title>
<g id="a_node5"><a xlink:title=" ">
<polygon fill="none" stroke="#bfbfbf" points="157.5,-6 157.5,-25 285.5,-25 285.5,-6 157.5,-6"/>
<text text-anchor="middle" x="221.5" y="-13" font-family="Helvetica,sans-Serif" font-size="10.00">flatbuffers/flatbuffers.h</text>
</a>
</g>
</g>
<!-- Node2&#45;&gt;Node5 -->
<g id="edge4" class="edge">
<title>Node2&#45;&gt;Node5</title>
<path fill="none" stroke="midnightblue" d="M1557.44,-80.53C1339.03,-76.58 544.85,-60.47 294.5,-31 286.01,-30 277.04,-28.55 268.4,-26.95"/>
<polygon fill="midnightblue" stroke="midnightblue" points="268.94,-23.49 258.46,-25.02 267.61,-30.36 268.94,-23.49"/>
</g>
<!-- Node6 -->
<g id="node6" class="node">
<title>Node6</title>
<g id="a_node6"><a xlink:title=" ">
<polygon fill="none" stroke="#bfbfbf" points="304,-6 304,-25 403,-25 403,-6 304,-6"/>
<text text-anchor="middle" x="353.5" y="-13" font-family="Helvetica,sans-Serif" font-size="10.00">flatbuffers/grpc.h</text>
</a>
</g>
</g>
<!-- Node2&#45;&gt;Node6 -->
<g id="edge5" class="edge">
<title>Node2&#45;&gt;Node6</title>
<path fill="none" stroke="midnightblue" d="M1557.21,-80.62C1351.09,-77.16 637.83,-63.1 412.5,-31 406.2,-30.1 399.58,-28.82 393.16,-27.39"/>
<polygon fill="midnightblue" stroke="midnightblue" points="393.83,-23.95 383.29,-25.04 392.21,-30.76 393.83,-23.95"/>
</g>
<!-- Node7 -->
<g id="node7" class="node">
<title>Node7</title>
<g id="a_node7"><a xlink:title=" ">
<polygon fill="none" stroke="#bfbfbf" points="421.5,-0.5 421.5,-30.5 547.5,-30.5 547.5,-0.5 421.5,-0.5"/>
<text text-anchor="start" x="429.5" y="-18.5" font-family="Helvetica,sans-Serif" font-size="10.00">seerep&#45;msgs/datatype</text>
<text text-anchor="middle" x="484.5" y="-7.5" font-family="Helvetica,sans-Serif" font-size="10.00">_generated.h</text>
</a>
</g>
</g>
<!-- Node2&#45;&gt;Node7 -->
<g id="edge6" class="edge">
<title>Node2&#45;&gt;Node7</title>
<path fill="none" stroke="midnightblue" d="M1557.38,-81.79C1400.62,-81.97 944.75,-78.18 557.62,-31"/>
<polygon fill="midnightblue" stroke="midnightblue" points="557.98,-27.52 547.63,-29.77 557.13,-34.47 557.98,-27.52"/>
</g>
<!-- Node8 -->
<g id="node8" class="node">
<title>Node8</title>
<g id="a_node8"><a xlink:title=" ">
<polygon fill="none" stroke="#bfbfbf" points="566,-6 566,-25 743,-25 743,-6 566,-6"/>
<text text-anchor="middle" x="654.5" y="-13" font-family="Helvetica,sans-Serif" font-size="10.00">seerep&#45;msgs/image_generated.h</text>
</a>
</g>
</g>
<!-- Node2&#45;&gt;Node8 -->
<g id="edge7" class="edge">
<title>Node2&#45;&gt;Node8</title>
<path fill="none" stroke="midnightblue" d="M1557.39,-79.96C1419.76,-75.8 1054.56,-62.46 751.5,-31 739.91,-29.8 727.58,-28.2 715.74,-26.51"/>
<polygon fill="midnightblue" stroke="midnightblue" points="715.89,-22.99 705.49,-25 714.87,-29.92 715.89,-22.99"/>
</g>
<!-- Node9 -->
<g id="node9" class="node">
<title>Node9</title>
<g id="a_node9"><a xlink:title=" ">
<polygon fill="none" stroke="#bfbfbf" points="761,-0.5 761,-30.5 916,-30.5 916,-0.5 761,-0.5"/>
<text text-anchor="start" x="769" y="-18.5" font-family="Helvetica,sans-Serif" font-size="10.00">seerep&#45;msgs/point_stamped</text>
<text text-anchor="middle" x="838.5" y="-7.5" font-family="Helvetica,sans-Serif" font-size="10.00">_generated.h</text>
</a>
</g>
</g>
<!-- Node2&#45;&gt;Node9 -->
<g id="edge8" class="edge">
<title>Node2&#45;&gt;Node9</title>
<path fill="none" stroke="midnightblue" d="M1557.15,-79.12C1441.08,-73.84 1166.8,-59.39 926.22,-31.01"/>
<polygon fill="midnightblue" stroke="midnightblue" points="926.58,-27.53 916.24,-29.82 925.75,-34.48 926.58,-27.53"/>
</g>
<!-- Node10 -->
<g id="node10" class="node">
<title>Node10</title>
<g id="a_node10"><a xlink:title=" ">
<polygon fill="none" stroke="#bfbfbf" points="934.5,-6 934.5,-25 1108.5,-25 1108.5,-6 934.5,-6"/>
<text text-anchor="middle" x="1021.5" y="-13" font-family="Helvetica,sans-Serif" font-size="10.00">seerep&#45;msgs/query_generated.h</text>
</a>
</g>
</g>
<!-- Node2&#45;&gt;Node10 -->
<g id="edge9" class="edge">
<title>Node2&#45;&gt;Node10</title>
<path fill="none" stroke="midnightblue" d="M1557.24,-76.67C1465.16,-68.55 1276.58,-51.1 1117.5,-31 1106.87,-29.66 1095.61,-28.09 1084.67,-26.49"/>
<polygon fill="midnightblue" stroke="midnightblue" points="1085.16,-23.02 1074.75,-25.01 1084.13,-29.94 1085.16,-23.02"/>
</g>
<!-- Node11 -->
<g id="node11" class="node">
<title>Node11</title>
<g id="a_node11"><a xlink:title=" ">
<polygon fill="none" stroke="#bfbfbf" points="1127,-0.5 1127,-30.5 1284,-30.5 1284,-0.5 1127,-0.5"/>
<text text-anchor="start" x="1135" y="-18.5" font-family="Helvetica,sans-Serif" font-size="10.00">seerep&#45;msgs/query_instance</text>
<text text-anchor="middle" x="1205.5" y="-7.5" font-family="Helvetica,sans-Serif" font-size="10.00">_generated.h</text>
</a>
</g>
</g>
<!-- Node2&#45;&gt;Node11 -->
<g id="edge10" class="edge">
<title>Node2&#45;&gt;Node11</title>
<path fill="none" stroke="midnightblue" d="M1557.23,-72.81C1495.25,-63.19 1392.34,-47.13 1294.3,-31.28"/>
<polygon fill="midnightblue" stroke="midnightblue" points="1294.65,-27.79 1284.22,-29.65 1293.53,-34.7 1294.65,-27.79"/>
</g>
<!-- Node12 -->
<g id="node12" class="node">
<title>Node12</title>
<g id="a_node12"><a xlink:title=" ">
<polygon fill="none" stroke="#bfbfbf" points="1302,-0.5 1302,-30.5 1433,-30.5 1433,-0.5 1302,-0.5"/>
<text text-anchor="start" x="1310" y="-18.5" font-family="Helvetica,sans-Serif" font-size="10.00">seerep&#45;msgs/transform</text>
<text text-anchor="middle" x="1367.5" y="-7.5" font-family="Helvetica,sans-Serif" font-size="10.00">_stamped_generated.h</text>
</a>
</g>
</g>
<!-- Node2&#45;&gt;Node12 -->
<g id="edge11" class="edge">
<title>Node2&#45;&gt;Node12</title>
<path fill="none" stroke="midnightblue" d="M1560.42,-67.48C1522.32,-57.41 1470.82,-43.8 1430.61,-33.17"/>
<polygon fill="midnightblue" stroke="midnightblue" points="1431.47,-29.78 1420.9,-30.61 1429.68,-36.55 1431.47,-29.78"/>
</g>
<!-- Node13 -->
<g id="node13" class="node">
<title>Node13</title>
<g id="a_node13"><a xlink:title=" ">
<polygon fill="none" stroke="#bfbfbf" points="1451,-0.5 1451,-30.5 1612,-30.5 1612,-0.5 1451,-0.5"/>
<text text-anchor="start" x="1459" y="-18.5" font-family="Helvetica,sans-Serif" font-size="10.00">seerep&#45;msgs/transform</text>
<text text-anchor="middle" x="1531.5" y="-7.5" font-family="Helvetica,sans-Serif" font-size="10.00">_stamped_query_generated.h</text>
</a>
</g>
</g>
<!-- Node2&#45;&gt;Node13 -->
<g id="edge12" class="edge">
<title>Node2&#45;&gt;Node13</title>
<path fill="none" stroke="midnightblue" d="M1595.71,-67.4C1584.42,-58.45 1569.65,-46.74 1557.11,-36.8"/>
<polygon fill="midnightblue" stroke="midnightblue" points="1559.27,-34.05 1549.26,-30.58 1554.92,-39.53 1559.27,-34.05"/>
</g>
<!-- Node14 -->
<g id="node14" class="node">
<title>Node14</title>
<g id="a_node14"><a xlink:title=" ">
<polygon fill="none" stroke="#bfbfbf" points="1630.5,-0.5 1630.5,-30.5 1760.5,-30.5 1760.5,-0.5 1630.5,-0.5"/>
<text text-anchor="start" x="1638.5" y="-18.5" font-family="Helvetica,sans-Serif" font-size="10.00">seerep&#45;msgs/uuids_per</text>
<text text-anchor="middle" x="1695.5" y="-7.5" font-family="Helvetica,sans-Serif" font-size="10.00">_project_generated.h</text>
</a>
</g>
</g>
<!-- Node2&#45;&gt;Node14 -->
<g id="edge13" class="edge">
<title>Node2&#45;&gt;Node14</title>
<path fill="none" stroke="midnightblue" d="M1631.29,-67.4C1642.58,-58.45 1657.35,-46.74 1669.89,-36.8"/>
<polygon fill="midnightblue" stroke="midnightblue" points="1672.08,-39.53 1677.74,-30.58 1667.73,-34.05 1672.08,-39.53"/>
</g>
<!-- Node15 -->
<g id="node15" class="node">
<title>Node15</title>
<g id="a_node15"><a xlink:title=" ">
<polygon fill="none" stroke="#bfbfbf" points="1779,-0.5 1779,-30.5 1898,-30.5 1898,-0.5 1779,-0.5"/>
<text text-anchor="start" x="1787" y="-18.5" font-family="Helvetica,sans-Serif" font-size="10.00">seerep&#45;msgs/dataset</text>
<text text-anchor="middle" x="1838.5" y="-7.5" font-family="Helvetica,sans-Serif" font-size="10.00">&#45;indexable.h</text>
</a>
</g>
</g>
<!-- Node2&#45;&gt;Node15 -->
<g id="edge14" class="edge">
<title>Node2&#45;&gt;Node15</title>
<path fill="none" stroke="midnightblue" d="M1662.04,-67.48C1696.53,-57.51 1743.01,-44.09 1779.61,-33.51"/>
<polygon fill="midnightblue" stroke="midnightblue" points="1781.02,-36.75 1789.65,-30.61 1779.08,-30.02 1781.02,-36.75"/>
</g>
<!-- Node16 -->
<g id="node16" class="node">
<title>Node16</title>
<g id="a_node16"><a xlink:title=" ">
<polygon fill="none" stroke="#bfbfbf" points="1916,-6 1916,-25 2067,-25 2067,-6 1916,-6"/>
<text text-anchor="middle" x="1991.5" y="-13" font-family="Helvetica,sans-Serif" font-size="10.00">seerep&#45;msgs/query&#45;result.h</text>
</a>
</g>
</g>
<!-- Node2&#45;&gt;Node16 -->
<g id="edge15" class="edge">
<title>Node2&#45;&gt;Node16</title>
<path fill="none" stroke="midnightblue" d="M1669.59,-71.88C1728.75,-61.73 1824.69,-45.26 1907.5,-31 1915.48,-29.63 1923.89,-28.18 1932.18,-26.75"/>
<polygon fill="midnightblue" stroke="midnightblue" points="1932.94,-30.17 1942.2,-25.02 1931.75,-23.27 1932.94,-30.17"/>
</g>
<!-- Node17 -->
<g id="node17" class="node">
<title>Node17</title>
<g id="a_node17"><a xlink:title=" ">
<polygon fill="none" stroke="#bfbfbf" points="2085.5,-6 2085.5,-25 2215.5,-25 2215.5,-6 2085.5,-6"/>
<text text-anchor="middle" x="2150.5" y="-13" font-family="Helvetica,sans-Serif" font-size="10.00">seerep&#45;msgs/query&#45;tf.h</text>
</a>
</g>
</g>
<!-- Node2&#45;&gt;Node17 -->
<g id="edge16" class="edge">
<title>Node2&#45;&gt;Node17</title>
<path fill="none" stroke="midnightblue" d="M1669.65,-76.92C1756.95,-69.46 1930.41,-53.24 2076.5,-31 2084.24,-29.82 2092.39,-28.4 2100.35,-26.92"/>
<polygon fill="midnightblue" stroke="midnightblue" points="2101.12,-30.34 2110.28,-25.02 2099.8,-23.46 2101.12,-30.34"/>
</g>
<!-- Node18 -->
<g id="node18" class="node">
<title>Node18</title>
<g id="a_node18"><a xlink:title=" ">
<polygon fill="none" stroke="#bfbfbf" points="2233.5,-6 2233.5,-25 2351.5,-25 2351.5,-6 2233.5,-6"/>
<text text-anchor="middle" x="2292.5" y="-13" font-family="Helvetica,sans-Serif" font-size="10.00">seerep&#45;msgs/query.h</text>
</a>
</g>
</g>
<!-- Node2&#45;&gt;Node18 -->
<g id="edge17" class="edge">
<title>Node2&#45;&gt;Node18</title>
<path fill="none" stroke="midnightblue" d="M1669.79,-79.25C1777.83,-74.4 2021.53,-60.9 2224.5,-31 2231.72,-29.94 2239.33,-28.56 2246.74,-27.09"/>
<polygon fill="midnightblue" stroke="midnightblue" points="2247.58,-30.49 2256.66,-25.04 2246.16,-23.64 2247.58,-30.49"/>
</g>
<!-- Node19 -->
<g id="node19" class="node">
<title>Node19</title>
<g id="a_node19"><a xlink:title=" ">
<polygon fill="none" stroke="#bfbfbf" points="2369.5,-6 2369.5,-25 2569.5,-25 2569.5,-6 2369.5,-6"/>
<text text-anchor="middle" x="2469.5" y="-13" font-family="Helvetica,sans-Serif" font-size="10.00">geometry_msgs/TransformStamped.h</text>
</a>
</g>
</g>
<!-- Node2&#45;&gt;Node19 -->
<g id="edge18" class="edge">
<title>Node2&#45;&gt;Node19</title>
<path fill="none" stroke="midnightblue" d="M1669.83,-78.94C1794.5,-73 2103.12,-56.79 2360.5,-31 2373.52,-29.7 2387.38,-28.05 2400.69,-26.34"/>
<polygon fill="midnightblue" stroke="midnightblue" points="2401.29,-29.79 2410.75,-25.02 2400.38,-22.85 2401.29,-29.79"/>
</g>
<!-- Node20 -->
<g id="node20" class="node">
<title>Node20</title>
<g id="a_node20"><a xlink:title=" ">
<polygon fill="none" stroke="#bfbfbf" points="2588,-6 2588,-25 2731,-25 2731,-6 2588,-6"/>
<text text-anchor="middle" x="2659.5" y="-13" font-family="Helvetica,sans-Serif" font-size="10.00">boost/functional/hash.hpp</text>
</a>
</g>
</g>
<!-- Node2&#45;&gt;Node20 -->
<g id="edge19" class="edge">
<title>Node2&#45;&gt;Node20</title>
<path fill="none" stroke="midnightblue" d="M1669.72,-81.01C1818.52,-79.17 2234.76,-70.6 2578.5,-31 2587.98,-29.91 2598.03,-28.4 2607.7,-26.76"/>
<polygon fill="midnightblue" stroke="midnightblue" points="2608.36,-30.2 2617.61,-25.03 2607.15,-23.31 2608.36,-30.2"/>
</g>
<!-- Node21 -->
<g id="node21" class="node">
<title>Node21</title>
<g id="a_node21"><a xlink:title=" ">
<polygon fill="none" stroke="#bfbfbf" points="2749,-6 2749,-25 2874,-25 2874,-6 2749,-6"/>
<text text-anchor="middle" x="2811.5" y="-13" font-family="Helvetica,sans-Serif" font-size="10.00">boost/lexical_cast.hpp</text>
</a>
</g>
</g>
<!-- Node2&#45;&gt;Node21 -->
<g id="edge20" class="edge">
<title>Node2&#45;&gt;Node21</title>
<path fill="none" stroke="midnightblue" d="M1669.75,-82.09C1834.84,-83.14 2332.07,-81.54 2740.5,-31 2748.58,-30 2757.11,-28.58 2765.34,-27.02"/>
<polygon fill="midnightblue" stroke="midnightblue" points="2766.07,-30.44 2775.2,-25.05 2764.71,-23.57 2766.07,-30.44"/>
</g>
<!-- Node22 -->
<g id="node22" class="node">
<title>Node22</title>
<g id="a_node22"><a xlink:title=" ">
<polygon fill="none" stroke="#bfbfbf" points="2892,-6 2892,-25 3005,-25 3005,-6 2892,-6"/>
<text text-anchor="middle" x="2948.5" y="-13" font-family="Helvetica,sans-Serif" font-size="10.00">boost/uuid/uuid.hpp</text>
</a>
</g>
</g>
<!-- Node2&#45;&gt;Node22 -->
<g id="edge21" class="edge">
<title>Node2&#45;&gt;Node22</title>
<path fill="none" stroke="midnightblue" d="M1669.67,-80.61C1883.09,-77.02 2643.63,-62.27 2883.5,-31 2890.75,-30.05 2898.39,-28.69 2905.78,-27.17"/>
<polygon fill="midnightblue" stroke="midnightblue" points="2906.61,-30.58 2915.64,-25.04 2905.12,-23.73 2906.61,-30.58"/>
</g>
<!-- Node23 -->
<g id="node23" class="node">
<title>Node23</title>
<g id="a_node23"><a xlink:title=" ">
<polygon fill="none" stroke="#bfbfbf" points="3023.5,-6 3023.5,-25 3193.5,-25 3193.5,-6 3023.5,-6"/>
<text text-anchor="middle" x="3108.5" y="-13" font-family="Helvetica,sans-Serif" font-size="10.00">boost/uuid/uuid_generators.hpp</text>
</a>
</g>
</g>
<!-- Node2&#45;&gt;Node23 -->
<g id="edge22" class="edge">
<title>Node2&#45;&gt;Node23</title>
<path fill="none" stroke="midnightblue" d="M1669.71,-81.83C1859.46,-82.44 2493.55,-80.4 3014.5,-31 3026.07,-29.9 3038.38,-28.31 3050.16,-26.58"/>
<polygon fill="midnightblue" stroke="midnightblue" points="3050.97,-30 3060.33,-25.04 3049.92,-23.08 3050.97,-30"/>
</g>
<!-- Node24 -->
<g id="node24" class="node">
<title>Node24</title>
<g id="a_node24"><a xlink:title=" ">
<polygon fill="none" stroke="#bfbfbf" points="3212,-6 3212,-25 3339,-25 3339,-6 3212,-6"/>
<text text-anchor="middle" x="3275.5" y="-13" font-family="Helvetica,sans-Serif" font-size="10.00">boost/uuid/uuid_io.hpp</text>
</a>
</g>
</g>
<!-- Node2&#45;&gt;Node24 -->
<g id="edge23" class="edge">
<title>Node2&#45;&gt;Node24</title>
<path fill="none" stroke="midnightblue" d="M1669.83,-80.95C1915.74,-78.37 2896.4,-66.02 3202.5,-31 3210.99,-30.03 3219.96,-28.59 3228.6,-26.99"/>
<polygon fill="midnightblue" stroke="midnightblue" points="3229.4,-30.41 3238.55,-25.06 3228.06,-23.53 3229.4,-30.41"/>
</g>
</g>
</svg>
