<?xml version="1.0" encoding="UTF-8" standalone="no"?>
<!DOCTYPE svg PUBLIC "-//W3C//DTD SVG 1.1//EN"
 "http://www.w3.org/Graphics/SVG/1.1/DTD/svg11.dtd">
<!-- Generated by graphviz version 2.43.0 (0)
 -->
<!-- Title: seerep&#45;srv/seerep&#45;core&#45;pb/src/core&#45;pb&#45;conversion.cpp Pages: 1 -->
<svg width="2487pt" height="173pt"
 viewBox="0.00 0.00 2487.00 173.00" xmlns="http://www.w3.org/2000/svg" xmlns:xlink="http://www.w3.org/1999/xlink">
<g id="graph0" class="graph" transform="scale(1 1) rotate(0) translate(4 169)">
<title>seerep&#45;srv/seerep&#45;core&#45;pb/src/core&#45;pb&#45;conversion.cpp</title>
<!-- Node1 -->
<g id="node1" class="node">
<title>Node1</title>
<g id="a_node1"><a xlink:title=" ">
<polygon fill="#bfbfbf" stroke="black" points="1048,-134.5 1048,-164.5 1215,-164.5 1215,-134.5 1048,-134.5"/>
<text text-anchor="start" x="1056" y="-152.5" font-family="Helvetica,sans-Serif" font-size="10.00">seerep&#45;srv/seerep&#45;core</text>
<text text-anchor="middle" x="1131.5" y="-141.5" font-family="Helvetica,sans-Serif" font-size="10.00">&#45;pb/src/core&#45;pb&#45;conversion.cpp</text>
</a>
</g>
</g>
<!-- Node2 -->
<g id="node2" class="node">
<title>Node2</title>
<g id="a_node2"><a xlink:href="core-pb-conversion_8h.html" target="_top" xlink:title=" ">
<polygon fill="none" stroke="black" points="1074.5,-67.5 1074.5,-97.5 1188.5,-97.5 1188.5,-67.5 1074.5,-67.5"/>
<text text-anchor="start" x="1082.5" y="-85.5" font-family="Helvetica,sans-Serif" font-size="10.00">seerep&#45;core&#45;pb/core</text>
<text text-anchor="middle" x="1131.5" y="-74.5" font-family="Helvetica,sans-Serif" font-size="10.00">&#45;pb&#45;conversion.h</text>
</a>
</g>
</g>
<!-- Node1&#45;&gt;Node2 -->
<g id="edge1" class="edge">
<title>Node1&#45;&gt;Node2</title>
<path fill="none" stroke="midnightblue" d="M1131.5,-134.4C1131.5,-126.64 1131.5,-116.81 1131.5,-107.86"/>
<polygon fill="midnightblue" stroke="midnightblue" points="1135,-107.58 1131.5,-97.58 1128,-107.58 1135,-107.58"/>
</g>
<!-- Node3 -->
<g id="node3" class="node">
<title>Node3</title>
<g id="a_node3"><a xlink:title=" ">
<polygon fill="none" stroke="#bfbfbf" points="0,-6 0,-25 65,-25 65,-6 0,-6"/>
<text text-anchor="middle" x="32.5" y="-13" font-family="Helvetica,sans-Serif" font-size="10.00">functional</text>
</a>
</g>
</g>
<!-- Node2&#45;&gt;Node3 -->
<g id="edge2" class="edge">
<title>Node2&#45;&gt;Node3</title>
<path fill="none" stroke="midnightblue" d="M1074.44,-80.91C883.59,-78.6 268.66,-68.36 74.5,-31 70.8,-30.29 66.98,-29.32 63.22,-28.22"/>
<polygon fill="midnightblue" stroke="midnightblue" points="64.14,-24.84 53.55,-25.08 61.98,-31.49 64.14,-24.84"/>
</g>
<!-- Node4 -->
<g id="node4" class="node">
<title>Node4</title>
<g id="a_node4"><a xlink:title=" ">
<polygon fill="none" stroke="#bfbfbf" points="83.5,-6 83.5,-25 139.5,-25 139.5,-6 83.5,-6"/>
<text text-anchor="middle" x="111.5" y="-13" font-family="Helvetica,sans-Serif" font-size="10.00">optional</text>
</a>
</g>
</g>
<!-- Node2&#45;&gt;Node4 -->
<g id="edge3" class="edge">
<title>Node2&#45;&gt;Node4</title>
<path fill="none" stroke="midnightblue" d="M1074.28,-80.97C892.07,-78.9 326.92,-69.48 148.5,-31 145.49,-30.35 142.41,-29.49 139.38,-28.51"/>
<polygon fill="midnightblue" stroke="midnightblue" points="140.55,-25.21 129.96,-25.08 138.16,-31.79 140.55,-25.21"/>
</g>
<!-- Node5 -->
<g id="node5" class="node">
<title>Node5</title>
<g id="a_node5"><a xlink:title=" ">
<polygon fill="none" stroke="#bfbfbf" points="158,-6 158,-25 295,-25 295,-6 158,-6"/>
<text text-anchor="middle" x="226.5" y="-13" font-family="Helvetica,sans-Serif" font-size="10.00">seerep&#45;msgs/image.pb.h</text>
</a>
</g>
</g>
<!-- Node2&#45;&gt;Node5 -->
<g id="edge4" class="edge">
<title>Node2&#45;&gt;Node5</title>
<path fill="none" stroke="midnightblue" d="M1074.3,-80.48C939.53,-77.52 591.66,-66.78 303.5,-31 294.77,-29.92 285.54,-28.45 276.61,-26.88"/>
<polygon fill="midnightblue" stroke="midnightblue" points="277.18,-23.42 266.71,-25.06 275.92,-30.31 277.18,-23.42"/>
</g>
<!-- Node6 -->
<g id="node6" class="node">
<title>Node6</title>
<g id="a_node6"><a xlink:title=" ">
<polygon fill="none" stroke="#bfbfbf" points="313,-0.5 313,-30.5 452,-30.5 452,-0.5 313,-0.5"/>
<text text-anchor="start" x="321" y="-18.5" font-family="Helvetica,sans-Serif" font-size="10.00">seerep&#45;msgs/point_cloud</text>
<text text-anchor="middle" x="382.5" y="-7.5" font-family="Helvetica,sans-Serif" font-size="10.00">_2.pb.h</text>
</a>
</g>
</g>
<!-- Node2&#45;&gt;Node6 -->
<g id="edge5" class="edge">
<title>Node2&#45;&gt;Node6</title>
<path fill="none" stroke="midnightblue" d="M1074.29,-79.29C959.82,-74.42 694.34,-60.84 462.17,-31.13"/>
<polygon fill="midnightblue" stroke="midnightblue" points="462.55,-27.65 452.18,-29.84 461.65,-34.59 462.55,-27.65"/>
</g>
<!-- Node7 -->
<g id="node7" class="node">
<title>Node7</title>
<g id="a_node7"><a xlink:title=" ">
<polygon fill="none" stroke="#bfbfbf" points="470,-6 470,-25 603,-25 603,-6 470,-6"/>
<text text-anchor="middle" x="536.5" y="-13" font-family="Helvetica,sans-Serif" font-size="10.00">seerep&#45;msgs/query.pb.h</text>
</a>
</g>
</g>
<!-- Node2&#45;&gt;Node7 -->
<g id="edge6" class="edge">
<title>Node2&#45;&gt;Node7</title>
<path fill="none" stroke="midnightblue" d="M1074.35,-77.72C978.38,-70.97 778.91,-55.26 611.5,-31 603.48,-29.84 595.01,-28.4 586.76,-26.89"/>
<polygon fill="midnightblue" stroke="midnightblue" points="587.34,-23.44 576.86,-25.03 586.04,-30.32 587.34,-23.44"/>
</g>
<!-- Node8 -->
<g id="node8" class="node">
<title>Node8</title>
<g id="a_node8"><a xlink:title=" ">
<polygon fill="none" stroke="#bfbfbf" points="621,-0.5 621,-30.5 752,-30.5 752,-0.5 621,-0.5"/>
<text text-anchor="start" x="629" y="-18.5" font-family="Helvetica,sans-Serif" font-size="10.00">seerep&#45;msgs/transform</text>
<text text-anchor="middle" x="686.5" y="-7.5" font-family="Helvetica,sans-Serif" font-size="10.00">_stamped.pb.h</text>
</a>
</g>
</g>
<!-- Node2&#45;&gt;Node8 -->
<g id="edge7" class="edge">
<title>Node2&#45;&gt;Node8</title>
<path fill="none" stroke="midnightblue" d="M1074.46,-74.78C1003.56,-66.2 878.61,-50.31 762.37,-31.26"/>
<polygon fill="midnightblue" stroke="midnightblue" points="762.67,-27.76 752.23,-29.59 761.53,-34.67 762.67,-27.76"/>
</g>
<!-- Node9 -->
<g id="node9" class="node">
<title>Node9</title>
<g id="a_node9"><a xlink:title=" ">
<polygon fill="none" stroke="#bfbfbf" points="770,-0.5 770,-30.5 901,-30.5 901,-0.5 770,-0.5"/>
<text text-anchor="start" x="778" y="-18.5" font-family="Helvetica,sans-Serif" font-size="10.00">seerep&#45;msgs/transform</text>
<text text-anchor="middle" x="835.5" y="-7.5" font-family="Helvetica,sans-Serif" font-size="10.00">_stamped_query.pb.h</text>
</a>
</g>
</g>
<!-- Node2&#45;&gt;Node9 -->
<g id="edge8" class="edge">
<title>Node2&#45;&gt;Node9</title>
<path fill="none" stroke="midnightblue" d="M1074.43,-68.97C1027.42,-58.64 960.42,-43.93 909.32,-32.71"/>
<polygon fill="midnightblue" stroke="midnightblue" points="909.85,-29.24 899.33,-30.52 908.35,-36.08 909.85,-29.24"/>
</g>
<!-- Node10 -->
<g id="node10" class="node">
<title>Node10</title>
<g id="a_node10"><a xlink:title=" ">
<polygon fill="none" stroke="#bfbfbf" points="919,-0.5 919,-30.5 1038,-30.5 1038,-0.5 919,-0.5"/>
<text text-anchor="start" x="927" y="-18.5" font-family="Helvetica,sans-Serif" font-size="10.00">seerep&#45;msgs/dataset</text>
<text text-anchor="middle" x="978.5" y="-7.5" font-family="Helvetica,sans-Serif" font-size="10.00">&#45;indexable.h</text>
</a>
</g>
</g>
<!-- Node2&#45;&gt;Node10 -->
<g id="edge9" class="edge">
<title>Node2&#45;&gt;Node10</title>
<path fill="none" stroke="midnightblue" d="M1098.3,-67.4C1075.65,-57.77 1045.43,-44.94 1021.02,-34.56"/>
<polygon fill="midnightblue" stroke="midnightblue" points="1022.21,-31.27 1011.63,-30.58 1019.47,-37.71 1022.21,-31.27"/>
</g>
<!-- Node11 -->
<g id="node11" class="node">
<title>Node11</title>
<g id="a_node11"><a xlink:title=" ">
<polygon fill="none" stroke="#bfbfbf" points="1056,-6 1056,-25 1207,-25 1207,-6 1056,-6"/>
<text text-anchor="middle" x="1131.5" y="-13" font-family="Helvetica,sans-Serif" font-size="10.00">seerep&#45;msgs/query&#45;result.h</text>
</a>
</g>
</g>
<!-- Node2&#45;&gt;Node11 -->
<g id="edge10" class="edge">
<title>Node2&#45;&gt;Node11</title>
<path fill="none" stroke="midnightblue" d="M1131.5,-67.4C1131.5,-58.06 1131.5,-45.71 1131.5,-35.52"/>
<polygon fill="midnightblue" stroke="midnightblue" points="1135,-35.19 1131.5,-25.19 1128,-35.19 1135,-35.19"/>
</g>
<!-- Node12 -->
<g id="node12" class="node">
<title>Node12</title>
<g id="a_node12"><a xlink:title=" ">
<polygon fill="none" stroke="#bfbfbf" points="1225.5,-6 1225.5,-25 1355.5,-25 1355.5,-6 1225.5,-6"/>
<text text-anchor="middle" x="1290.5" y="-13" font-family="Helvetica,sans-Serif" font-size="10.00">seerep&#45;msgs/query&#45;tf.h</text>
</a>
</g>
</g>
<!-- Node2&#45;&gt;Node12 -->
<g id="edge11" class="edge">
<title>Node2&#45;&gt;Node12</title>
<path fill="none" stroke="midnightblue" d="M1166,-67.4C1194.15,-55.89 1233.51,-39.8 1260.39,-28.81"/>
<polygon fill="midnightblue" stroke="midnightblue" points="1261.76,-32.03 1269.69,-25.01 1259.11,-25.55 1261.76,-32.03"/>
</g>
<!-- Node13 -->
<g id="node13" class="node">
<title>Node13</title>
<g id="a_node13"><a xlink:title=" ">
<polygon fill="none" stroke="#bfbfbf" points="1373.5,-6 1373.5,-25 1491.5,-25 1491.5,-6 1373.5,-6"/>
<text text-anchor="middle" x="1432.5" y="-13" font-family="Helvetica,sans-Serif" font-size="10.00">seerep&#45;msgs/query.h</text>
</a>
</g>
</g>
<!-- Node2&#45;&gt;Node13 -->
<g id="edge12" class="edge">
<title>Node2&#45;&gt;Node13</title>
<path fill="none" stroke="midnightblue" d="M1188.82,-69.12C1245.07,-56.97 1329.94,-38.65 1383.23,-27.14"/>
<polygon fill="midnightblue" stroke="midnightblue" points="1384.09,-30.53 1393.13,-25 1382.62,-23.69 1384.09,-30.53"/>
</g>
<!-- Node14 -->
<g id="node14" class="node">
<title>Node14</title>
<g id="a_node14"><a xlink:title=" ">
<polygon fill="none" stroke="#bfbfbf" points="1509.5,-6 1509.5,-25 1709.5,-25 1709.5,-6 1509.5,-6"/>
<text text-anchor="middle" x="1609.5" y="-13" font-family="Helvetica,sans-Serif" font-size="10.00">geometry_msgs/TransformStamped.h</text>
</a>
</g>
</g>
<!-- Node2&#45;&gt;Node14 -->
<g id="edge13" class="edge">
<title>Node2&#45;&gt;Node14</title>
<path fill="none" stroke="midnightblue" d="M1188.68,-73.72C1275.71,-61.89 1441.35,-39.37 1536.8,-26.39"/>
<polygon fill="midnightblue" stroke="midnightblue" points="1537.52,-29.82 1546.95,-25.01 1536.57,-22.88 1537.52,-29.82"/>
</g>
<!-- Node15 -->
<g id="node15" class="node">
<title>Node15</title>
<g id="a_node15"><a xlink:title=" ">
<polygon fill="none" stroke="#bfbfbf" points="1728,-6 1728,-25 1871,-25 1871,-6 1728,-6"/>
<text text-anchor="middle" x="1799.5" y="-13" font-family="Helvetica,sans-Serif" font-size="10.00">boost/functional/hash.hpp</text>
</a>
</g>
</g>
<!-- Node2&#45;&gt;Node15 -->
<g id="edge14" class="edge">
<title>Node2&#45;&gt;Node15</title>
<path fill="none" stroke="midnightblue" d="M1188.77,-78.32C1294,-72.08 1525.07,-56.58 1718.5,-31 1727.35,-29.83 1736.7,-28.37 1745.79,-26.82"/>
<polygon fill="midnightblue" stroke="midnightblue" points="1746.65,-30.23 1755.9,-25.06 1745.44,-23.33 1746.65,-30.23"/>
</g>
<!-- Node16 -->
<g id="node16" class="node">
<title>Node16</title>
<g id="a_node16"><a xlink:title=" ">
<polygon fill="none" stroke="#bfbfbf" points="1889,-6 1889,-25 2014,-25 2014,-6 1889,-6"/>
<text text-anchor="middle" x="1951.5" y="-13" font-family="Helvetica,sans-Serif" font-size="10.00">boost/lexical_cast.hpp</text>
</a>
</g>
</g>
<!-- Node2&#45;&gt;Node16 -->
<g id="edge15" class="edge">
<title>Node2&#45;&gt;Node16</title>
<path fill="none" stroke="midnightblue" d="M1188.61,-80.26C1314.23,-76.96 1623.8,-65.71 1880.5,-31 1888.3,-29.95 1896.53,-28.54 1904.51,-27.02"/>
<polygon fill="midnightblue" stroke="midnightblue" points="1905.32,-30.43 1914.44,-25.05 1903.95,-23.56 1905.32,-30.43"/>
</g>
<!-- Node17 -->
<g id="node17" class="node">
<title>Node17</title>
<g id="a_node17"><a xlink:title=" ">
<polygon fill="none" stroke="#bfbfbf" points="2032,-6 2032,-25 2145,-25 2145,-6 2032,-6"/>
<text text-anchor="middle" x="2088.5" y="-13" font-family="Helvetica,sans-Serif" font-size="10.00">boost/uuid/uuid.hpp</text>
</a>
</g>
</g>
<!-- Node2&#45;&gt;Node17 -->
<g id="edge16" class="edge">
<title>Node2&#45;&gt;Node17</title>
<path fill="none" stroke="midnightblue" d="M1188.69,-81.48C1330.68,-80.74 1710.47,-74.48 2023.5,-31 2030.5,-30.03 2037.87,-28.69 2045.02,-27.22"/>
<polygon fill="midnightblue" stroke="midnightblue" points="2046.25,-30.54 2055.29,-25 2044.77,-23.7 2046.25,-30.54"/>
</g>
<!-- Node18 -->
<g id="node18" class="node">
<title>Node18</title>
<g id="a_node18"><a xlink:title=" ">
<polygon fill="none" stroke="#bfbfbf" points="2163.5,-6 2163.5,-25 2333.5,-25 2333.5,-6 2163.5,-6"/>
<text text-anchor="middle" x="2248.5" y="-13" font-family="Helvetica,sans-Serif" font-size="10.00">boost/uuid/uuid_generators.hpp</text>
</a>
</g>
</g>
<!-- Node2&#45;&gt;Node18 -->
<g id="edge17" class="edge">
<title>Node2&#45;&gt;Node18</title>
<path fill="none" stroke="midnightblue" d="M1188.78,-80.75C1344.38,-78.28 1787.85,-68.23 2154.5,-31 2165.81,-29.85 2177.83,-28.27 2189.37,-26.58"/>
<polygon fill="midnightblue" stroke="midnightblue" points="2189.99,-30.02 2199.35,-25.07 2188.94,-23.1 2189.99,-30.02"/>
</g>
<!-- Node19 -->
<g id="node19" class="node">
<title>Node19</title>
<g id="a_node19"><a xlink:title=" ">
<polygon fill="none" stroke="#bfbfbf" points="2352,-6 2352,-25 2479,-25 2479,-6 2352,-6"/>
<text text-anchor="middle" x="2415.5" y="-13" font-family="Helvetica,sans-Serif" font-size="10.00">boost/uuid/uuid_io.hpp</text>
</a>
</g>
</g>
<!-- Node2&#45;&gt;Node19 -->
<g id="edge18" class="edge">
<title>Node2&#45;&gt;Node19</title>
<path fill="none" stroke="midnightblue" d="M1188.57,-80.29C1396.72,-75.7 2114.75,-58.2 2342.5,-31 2350.89,-30 2359.76,-28.56 2368.31,-26.98"/>
<polygon fill="midnightblue" stroke="midnightblue" points="2369.01,-30.41 2378.17,-25.07 2367.68,-23.54 2369.01,-30.41"/>
</g>
</g>
</svg>
