<?xml version="1.0" encoding="UTF-8" standalone="no"?>
<!DOCTYPE svg PUBLIC "-//W3C//DTD SVG 1.1//EN"
 "http://www.w3.org/Graphics/SVG/1.1/DTD/svg11.dtd">
<!-- Generated by graphviz version 2.43.0 (0)
 -->
<!-- Title: seerep&#45;srv/seerep&#45;core/include/seerep&#45;core/core&#45;dataset.h Pages: 1 -->
<svg width="2871pt" height="363pt"
 viewBox="0.00 0.00 2870.50 363.00" xmlns="http://www.w3.org/2000/svg" xmlns:xlink="http://www.w3.org/1999/xlink">
<g id="graph0" class="graph" transform="scale(1 1) rotate(0) translate(4 359)">
<title>seerep&#45;srv/seerep&#45;core/include/seerep&#45;core/core&#45;dataset.h</title>
<!-- Node1 -->
<g id="node1" class="node">
<title>Node1</title>
<g id="a_node1"><a xlink:title=" ">
<polygon fill="#bfbfbf" stroke="black" points="1538,-313.5 1538,-354.5 1678,-354.5 1678,-313.5 1538,-313.5"/>
<text text-anchor="start" x="1546" y="-342.5" font-family="Helvetica,sans-Serif" font-size="10.00">seerep&#45;srv/seerep&#45;core</text>
<text text-anchor="start" x="1546" y="-331.5" font-family="Helvetica,sans-Serif" font-size="10.00">/include/seerep&#45;core/core</text>
<text text-anchor="middle" x="1608" y="-320.5" font-family="Helvetica,sans-Serif" font-size="10.00">&#45;dataset.h</text>
</a>
</g>
</g>
<!-- Node2 -->
<g id="node2" class="node">
<title>Node2</title>
<g id="a_node2"><a xlink:title=" ">
<polygon fill="none" stroke="#bfbfbf" points="1571.5,-140 1571.5,-159 1636.5,-159 1636.5,-140 1571.5,-140"/>
<text text-anchor="middle" x="1604" y="-147" font-family="Helvetica,sans-Serif" font-size="10.00">functional</text>
</a>
</g>
</g>
<!-- Node1&#45;&gt;Node2 -->
<g id="edge1" class="edge">
<title>Node1&#45;&gt;Node2</title>
<path fill="none" stroke="midnightblue" d="M1607.57,-313.47C1606.8,-278.11 1605.17,-203.94 1604.41,-169.2"/>
<polygon fill="midnightblue" stroke="midnightblue" points="1607.91,-168.96 1604.19,-159.04 1600.91,-169.12 1607.91,-168.96"/>
</g>
<!-- Node3 -->
<g id="node3" class="node">
<title>Node3</title>
<g id="a_node3"><a xlink:title=" ">
<polygon fill="none" stroke="#bfbfbf" points="1668,-6 1668,-25 1724,-25 1724,-6 1668,-6"/>
<text text-anchor="middle" x="1696" y="-13" font-family="Helvetica,sans-Serif" font-size="10.00">optional</text>
</a>
</g>
</g>
<!-- Node1&#45;&gt;Node3 -->
<g id="edge2" class="edge">
<title>Node1&#45;&gt;Node3</title>
<path fill="none" stroke="midnightblue" d="M1587.08,-313.34C1577.39,-303.27 1566.4,-290.33 1559,-277 1527.98,-221.13 1514.99,-190.94 1544,-134 1570.2,-82.58 1630.43,-46.99 1666.71,-29.32"/>
<polygon fill="midnightblue" stroke="midnightblue" points="1668.28,-32.45 1675.82,-25.02 1665.29,-26.12 1668.28,-32.45"/>
</g>
<!-- Node4 -->
<g id="node4" class="node">
<title>Node4</title>
<g id="a_node4"><a xlink:title=" ">
<polygon fill="none" stroke="#bfbfbf" points="178,-6 178,-25 294,-25 294,-6 178,-6"/>
<text text-anchor="middle" x="236" y="-13" font-family="Helvetica,sans-Serif" font-size="10.00">seerep&#45;msgs/aabb.h</text>
</a>
</g>
</g>
<!-- Node1&#45;&gt;Node4 -->
<g id="edge3" class="edge">
<title>Node1&#45;&gt;Node4</title>
<path fill="none" stroke="midnightblue" d="M1537.87,-331.45C1228.38,-324.16 0,-290.3 0,-212 0,-212 0,-212 0,-148.5 0,-70.98 98.19,-38.54 167.9,-25.29"/>
<polygon fill="midnightblue" stroke="midnightblue" points="168.75,-28.69 177.97,-23.47 167.5,-21.8 168.75,-28.69"/>
</g>
<!-- Node5 -->
<g id="node5" class="node">
<title>Node5</title>
<g id="a_node5"><a xlink:title=" ">
<polygon fill="none" stroke="#bfbfbf" points="1731.5,-140 1731.5,-159 1866.5,-159 1866.5,-140 1731.5,-140"/>
<text text-anchor="middle" x="1799" y="-147" font-family="Helvetica,sans-Serif" font-size="10.00">seerep&#45;msgs/datatype.h</text>
</a>
</g>
</g>
<!-- Node1&#45;&gt;Node5 -->
<g id="edge4" class="edge">
<title>Node1&#45;&gt;Node5</title>
<path fill="none" stroke="midnightblue" d="M1628.44,-313.47C1666.57,-277.03 1747.83,-199.39 1782.63,-166.14"/>
<polygon fill="midnightblue" stroke="midnightblue" points="1785.25,-168.48 1790.06,-159.04 1780.41,-163.42 1785.25,-168.48"/>
</g>
<!-- Node6 -->
<g id="node6" class="node">
<title>Node6</title>
<g id="a_node6"><a xlink:title=" ">
<polygon fill="none" stroke="#bfbfbf" points="2711.5,-257.5 2711.5,-276.5 2862.5,-276.5 2862.5,-257.5 2711.5,-257.5"/>
<text text-anchor="middle" x="2787" y="-264.5" font-family="Helvetica,sans-Serif" font-size="10.00">seerep&#45;msgs/query&#45;result.h</text>
</a>
</g>
</g>
<!-- Node1&#45;&gt;Node6 -->
<g id="edge5" class="edge">
<title>Node1&#45;&gt;Node6</title>
<path fill="none" stroke="midnightblue" d="M1678.15,-330.57C1851.3,-324.31 2312.85,-306.07 2697,-277 2698.32,-276.9 2699.65,-276.8 2700.99,-276.69"/>
<polygon fill="midnightblue" stroke="midnightblue" points="2701.72,-280.14 2711.4,-275.83 2701.15,-273.17 2701.72,-280.14"/>
</g>
<!-- Node7 -->
<g id="node7" class="node">
<title>Node7</title>
<g id="a_node7"><a xlink:title=" ">
<polygon fill="none" stroke="#bfbfbf" points="28,-140 28,-159 146,-159 146,-140 28,-140"/>
<text text-anchor="middle" x="87" y="-147" font-family="Helvetica,sans-Serif" font-size="10.00">seerep&#45;msgs/query.h</text>
</a>
</g>
</g>
<!-- Node1&#45;&gt;Node7 -->
<g id="edge6" class="edge">
<title>Node1&#45;&gt;Node7</title>
<path fill="none" stroke="midnightblue" d="M1537.73,-327.26C1327.2,-309.55 683.43,-251.69 155,-165 148.2,-163.88 141.05,-162.54 134.04,-161.14"/>
<polygon fill="midnightblue" stroke="midnightblue" points="134.44,-157.64 123.94,-159.04 133.02,-164.5 134.44,-157.64"/>
</g>
<!-- Node8 -->
<g id="node8" class="node">
<title>Node8</title>
<g id="a_node8"><a xlink:href="hdf5-core-datatype-interface_8h.html" target="_top" xlink:title=" ">
<polygon fill="none" stroke="black" points="1331.5,-134.5 1331.5,-164.5 1476.5,-164.5 1476.5,-134.5 1331.5,-134.5"/>
<text text-anchor="start" x="1339.5" y="-152.5" font-family="Helvetica,sans-Serif" font-size="10.00">seerep&#45;hdf5&#45;core/hdf5</text>
<text text-anchor="middle" x="1404" y="-141.5" font-family="Helvetica,sans-Serif" font-size="10.00">&#45;core&#45;datatype&#45;interface.h</text>
</a>
</g>
</g>
<!-- Node1&#45;&gt;Node8 -->
<g id="edge7" class="edge">
<title>Node1&#45;&gt;Node8</title>
<path fill="none" stroke="midnightblue" d="M1552.36,-313.44C1531.67,-304.43 1508.89,-292.29 1491,-277 1456.57,-247.56 1429.51,-201.45 1415.21,-173.79"/>
<polygon fill="midnightblue" stroke="midnightblue" points="1418.32,-172.18 1410.69,-164.83 1412.07,-175.33 1418.32,-172.18"/>
</g>
<!-- Node10 -->
<g id="node10" class="node">
<title>Node10</title>
<g id="a_node10"><a xlink:title=" ">
<polygon fill="none" stroke="#bfbfbf" points="1732.5,-73 1732.5,-92 1845.5,-92 1845.5,-73 1732.5,-73"/>
<text text-anchor="middle" x="1789" y="-80" font-family="Helvetica,sans-Serif" font-size="10.00">boost/uuid/uuid.hpp</text>
</a>
</g>
</g>
<!-- Node1&#45;&gt;Node10 -->
<g id="edge74" class="edge">
<title>Node1&#45;&gt;Node10</title>
<path fill="none" stroke="midnightblue" d="M1594,-313.37C1568.28,-274.7 1519.92,-187.77 1563,-134 1582.69,-109.42 1662.94,-96.01 1722.24,-89.31"/>
<polygon fill="midnightblue" stroke="midnightblue" points="1722.75,-92.77 1732.31,-88.21 1721.99,-85.81 1722.75,-92.77"/>
</g>
<!-- Node11 -->
<g id="node11" class="node">
<title>Node11</title>
<g id="a_node11"><a xlink:href="core-instances_8h.html" target="_top" xlink:title=" ">
<polygon fill="none" stroke="black" points="1946.5,-257.5 1946.5,-276.5 2043.5,-276.5 2043.5,-257.5 1946.5,-257.5"/>
<text text-anchor="middle" x="1995" y="-264.5" font-family="Helvetica,sans-Serif" font-size="10.00">core&#45;instances.h</text>
</a>
</g>
</g>
<!-- Node1&#45;&gt;Node11 -->
<g id="edge11" class="edge">
<title>Node1&#45;&gt;Node11</title>
<path fill="none" stroke="midnightblue" d="M1678.08,-321.23C1751.99,-308.82 1867.13,-289.48 1936.39,-277.84"/>
<polygon fill="midnightblue" stroke="midnightblue" points="1936.98,-281.29 1946.26,-276.19 1935.82,-274.39 1936.98,-281.29"/>
</g>
<!-- Node23 -->
<g id="node23" class="node">
<title>Node23</title>
<g id="a_node23"><a xlink:title=" ">
<polygon fill="none" stroke="#bfbfbf" points="2406.5,-73 2406.5,-92 2549.5,-92 2549.5,-73 2406.5,-73"/>
<text text-anchor="middle" x="2478" y="-80" font-family="Helvetica,sans-Serif" font-size="10.00">boost/functional/hash.hpp</text>
</a>
</g>
</g>
<!-- Node1&#45;&gt;Node23 -->
<g id="edge72" class="edge">
<title>Node1&#45;&gt;Node23</title>
<path fill="none" stroke="midnightblue" d="M1678.12,-329.99C1831.67,-322.98 2193.48,-304.07 2313,-277 2410.1,-255 2472.46,-258.38 2507,-165 2515.27,-142.66 2502.15,-116.71 2490.98,-100.21"/>
<polygon fill="midnightblue" stroke="midnightblue" points="2493.82,-98.15 2485.12,-92.09 2488.14,-102.25 2493.82,-98.15"/>
</g>
<!-- Node24 -->
<g id="node24" class="node">
<title>Node24</title>
<g id="a_node24"><a xlink:title=" ">
<polygon fill="none" stroke="#bfbfbf" points="2574.5,-73 2574.5,-92 2699.5,-92 2699.5,-73 2574.5,-73"/>
<text text-anchor="middle" x="2637" y="-80" font-family="Helvetica,sans-Serif" font-size="10.00">boost/lexical_cast.hpp</text>
</a>
</g>
</g>
<!-- Node1&#45;&gt;Node24 -->
<g id="edge73" class="edge">
<title>Node1&#45;&gt;Node24</title>
<path fill="none" stroke="midnightblue" d="M1678.22,-331.64C1841.75,-327.86 2243.87,-314.91 2373,-277 2471.13,-248.2 2496.84,-232.12 2574,-165 2595.86,-145.99 2615.28,-118.4 2626.6,-100.7"/>
<polygon fill="midnightblue" stroke="midnightblue" points="2629.7,-102.35 2632.01,-92.01 2623.76,-98.65 2629.7,-102.35"/>
</g>
<!-- Node25 -->
<g id="node25" class="node">
<title>Node25</title>
<g id="a_node25"><a xlink:title=" ">
<polygon fill="none" stroke="#bfbfbf" points="1864,-73 1864,-92 2034,-92 2034,-73 1864,-73"/>
<text text-anchor="middle" x="1949" y="-80" font-family="Helvetica,sans-Serif" font-size="10.00">boost/uuid/uuid_generators.hpp</text>
</a>
</g>
</g>
<!-- Node1&#45;&gt;Node25 -->
<g id="edge75" class="edge">
<title>Node1&#45;&gt;Node25</title>
<path fill="none" stroke="midnightblue" d="M1613.51,-313.27C1625.87,-272.82 1659.8,-180.4 1723,-134 1736.55,-124.05 1828.79,-105.56 1891.17,-93.92"/>
<polygon fill="midnightblue" stroke="midnightblue" points="1892.09,-97.31 1901.29,-92.05 1890.82,-90.43 1892.09,-97.31"/>
</g>
<!-- Node26 -->
<g id="node26" class="node">
<title>Node26</title>
<g id="a_node26"><a xlink:title=" ">
<polygon fill="none" stroke="#bfbfbf" points="2247.5,-73 2247.5,-92 2374.5,-92 2374.5,-73 2247.5,-73"/>
<text text-anchor="middle" x="2311" y="-80" font-family="Helvetica,sans-Serif" font-size="10.00">boost/uuid/uuid_io.hpp</text>
</a>
</g>
</g>
<!-- Node1&#45;&gt;Node26 -->
<g id="edge76" class="edge">
<title>Node1&#45;&gt;Node26</title>
<path fill="none" stroke="midnightblue" d="M1678.28,-332.47C1873.13,-329.17 2411.11,-307.16 2491,-165 2497.75,-152.99 2499.32,-144.98 2491,-134 2482.96,-123.39 2411.3,-105.64 2360.86,-94.26"/>
<polygon fill="midnightblue" stroke="midnightblue" points="2361.6,-90.84 2351.08,-92.07 2360.08,-97.67 2361.6,-90.84"/>
</g>
<!-- Node27 -->
<g id="node27" class="node">
<title>Node27</title>
<g id="a_node27"><a xlink:href="core-tf_8h.html" target="_top" xlink:title=" ">
<polygon fill="none" stroke="black" points="821.5,-201.5 821.5,-220.5 878.5,-220.5 878.5,-201.5 821.5,-201.5"/>
<text text-anchor="middle" x="850" y="-208.5" font-family="Helvetica,sans-Serif" font-size="10.00">core&#45;tf.h</text>
</a>
</g>
</g>
<!-- Node1&#45;&gt;Node27 -->
<g id="edge52" class="edge">
<title>Node1&#45;&gt;Node27</title>
<path fill="none" stroke="midnightblue" d="M1537.71,-321.78C1381.51,-296.85 1009.81,-237.51 888.8,-218.19"/>
<polygon fill="midnightblue" stroke="midnightblue" points="889.3,-214.73 878.87,-216.61 888.19,-221.64 889.3,-214.73"/>
</g>
<!-- Node8&#45;&gt;Node3 -->
<g id="edge10" class="edge">
<title>Node8&#45;&gt;Node3</title>
<path fill="none" stroke="midnightblue" d="M1445.22,-134.43C1470.51,-125.23 1503.27,-112.3 1531,-98 1553.57,-86.36 1556.6,-78.96 1579,-67 1594.61,-58.67 1636.37,-41.04 1665.52,-28.98"/>
<polygon fill="midnightblue" stroke="midnightblue" points="1666.96,-32.17 1674.87,-25.12 1664.29,-25.7 1666.96,-32.17"/>
</g>
<!-- Node9 -->
<g id="node9" class="node">
<title>Node9</title>
<g id="a_node9"><a xlink:title=" ">
<polygon fill="none" stroke="#bfbfbf" points="1037.5,-0.5 1037.5,-30.5 1156.5,-30.5 1156.5,-0.5 1037.5,-0.5"/>
<text text-anchor="start" x="1045.5" y="-18.5" font-family="Helvetica,sans-Serif" font-size="10.00">seerep&#45;msgs/dataset</text>
<text text-anchor="middle" x="1097" y="-7.5" font-family="Helvetica,sans-Serif" font-size="10.00">&#45;indexable.h</text>
</a>
</g>
</g>
<!-- Node8&#45;&gt;Node9 -->
<g id="edge8" class="edge">
<title>Node8&#45;&gt;Node9</title>
<path fill="none" stroke="midnightblue" d="M1338.24,-134.45C1307.31,-126.31 1270.6,-114.38 1240,-98 1220.78,-87.71 1220.39,-78.69 1202,-67 1182.78,-54.78 1160.16,-43.54 1140.85,-34.79"/>
<polygon fill="midnightblue" stroke="midnightblue" points="1142.22,-31.57 1131.66,-30.69 1139.37,-37.96 1142.22,-31.57"/>
</g>
<!-- Node8&#45;&gt;Node10 -->
<g id="edge9" class="edge">
<title>Node8&#45;&gt;Node10</title>
<path fill="none" stroke="midnightblue" d="M1476.87,-136.2C1549.65,-123.91 1660.23,-105.24 1728.37,-93.74"/>
<polygon fill="midnightblue" stroke="midnightblue" points="1729.24,-97.14 1738.52,-92.02 1728.07,-90.24 1729.24,-97.14"/>
</g>
<!-- Node11&#45;&gt;Node2 -->
<g id="edge12" class="edge">
<title>Node11&#45;&gt;Node2</title>
<path fill="none" stroke="midnightblue" d="M1946.26,-263C1891.54,-258.46 1800.74,-247.37 1727,-221 1688.13,-207.1 1647.39,-181.15 1623.92,-164.91"/>
<polygon fill="midnightblue" stroke="midnightblue" points="1625.72,-161.9 1615.53,-159 1621.69,-167.62 1625.72,-161.9"/>
</g>
<!-- Node11&#45;&gt;Node3 -->
<g id="edge13" class="edge">
<title>Node11&#45;&gt;Node3</title>
<path fill="none" stroke="midnightblue" d="M1946.4,-262.8C1884.03,-255.88 1777.42,-234.02 1723,-165 1692.93,-126.87 1692.25,-66.12 1694.16,-35.49"/>
<polygon fill="midnightblue" stroke="midnightblue" points="1697.67,-35.57 1694.97,-25.33 1690.69,-35.02 1697.67,-35.57"/>
</g>
<!-- Node11&#45;&gt;Node5 -->
<g id="edge44" class="edge">
<title>Node11&#45;&gt;Node5</title>
<path fill="none" stroke="midnightblue" d="M1965.65,-257.42C1941.85,-249.77 1907.96,-237.27 1881,-221 1855.54,-205.63 1830.2,-182.29 1814.57,-166.73"/>
<polygon fill="midnightblue" stroke="midnightblue" points="1816.84,-164.05 1807.33,-159.38 1811.86,-168.96 1816.84,-164.05"/>
</g>
<!-- Node11&#45;&gt;Node10 -->
<g id="edge49" class="edge">
<title>Node11&#45;&gt;Node10</title>
<path fill="none" stroke="midnightblue" d="M1988.8,-257.44C1972.34,-235.11 1925.36,-174.04 1876,-134 1857.69,-119.15 1834.5,-105.92 1816.66,-96.73"/>
<polygon fill="midnightblue" stroke="midnightblue" points="1817.88,-93.42 1807.37,-92.05 1814.73,-99.67 1817.88,-93.42"/>
</g>
<!-- Node12 -->
<g id="node12" class="node">
<title>Node12</title>
<g id="a_node12"><a xlink:href="core-instance_8h.html" target="_top" xlink:title=" ">
<polygon fill="none" stroke="black" points="2054,-201.5 2054,-220.5 2146,-220.5 2146,-201.5 2054,-201.5"/>
<text text-anchor="middle" x="2100" y="-208.5" font-family="Helvetica,sans-Serif" font-size="10.00">core&#45;instance.h</text>
</a>
</g>
</g>
<!-- Node11&#45;&gt;Node12 -->
<g id="edge14" class="edge">
<title>Node11&#45;&gt;Node12</title>
<path fill="none" stroke="midnightblue" d="M2011.87,-257.32C2028.71,-248.66 2054.81,-235.24 2074.24,-225.25"/>
<polygon fill="midnightblue" stroke="midnightblue" points="2075.88,-228.34 2083.17,-220.65 2072.68,-222.12 2075.88,-228.34"/>
</g>
<!-- Node13 -->
<g id="node13" class="node">
<title>Node13</title>
<g id="a_node13"><a xlink:title=" ">
<polygon fill="none" stroke="#bfbfbf" points="2333.5,-134.5 2333.5,-164.5 2464.5,-164.5 2464.5,-134.5 2333.5,-134.5"/>
<text text-anchor="start" x="2341.5" y="-152.5" font-family="Helvetica,sans-Serif" font-size="10.00">seerep&#45;msgs/label&#45;with</text>
<text text-anchor="middle" x="2399" y="-141.5" font-family="Helvetica,sans-Serif" font-size="10.00">&#45;instance.h</text>
</a>
</g>
</g>
<!-- Node11&#45;&gt;Node13 -->
<g id="edge45" class="edge">
<title>Node11&#45;&gt;Node13</title>
<path fill="none" stroke="midnightblue" d="M2025.69,-257.44C2057.91,-248.43 2110.05,-233.82 2155,-221 2218.67,-202.85 2291.6,-181.74 2341.01,-167.38"/>
<polygon fill="midnightblue" stroke="midnightblue" points="2342.25,-170.66 2350.88,-164.51 2340.3,-163.94 2342.25,-170.66"/>
</g>
<!-- Node14 -->
<g id="node14" class="node">
<title>Node14</title>
<g id="a_node14"><a xlink:href="hdf5-core-instance_8h.html" target="_top" xlink:title=" ">
<polygon fill="none" stroke="black" points="2037.5,-134.5 2037.5,-164.5 2162.5,-164.5 2162.5,-134.5 2037.5,-134.5"/>
<text text-anchor="start" x="2045.5" y="-152.5" font-family="Helvetica,sans-Serif" font-size="10.00">seerep&#45;hdf5&#45;core/hdf5</text>
<text text-anchor="middle" x="2100" y="-141.5" font-family="Helvetica,sans-Serif" font-size="10.00">&#45;core&#45;instance.h</text>
</a>
</g>
</g>
<!-- Node11&#45;&gt;Node14 -->
<g id="edge46" class="edge">
<title>Node11&#45;&gt;Node14</title>
<path fill="none" stroke="midnightblue" d="M2001.03,-257.21C2010,-244.35 2027.68,-219.89 2045,-201 2054.4,-190.74 2065.58,-180.21 2075.4,-171.44"/>
<polygon fill="midnightblue" stroke="midnightblue" points="2077.73,-174.05 2082.93,-164.82 2073.11,-168.8 2077.73,-174.05"/>
</g>
<!-- Node11&#45;&gt;Node23 -->
<g id="edge47" class="edge">
<title>Node11&#45;&gt;Node23</title>
<path fill="none" stroke="midnightblue" d="M2043.57,-263.23C2136.12,-257.51 2334.3,-243.08 2399,-221 2444.3,-205.54 2467.55,-206.73 2491,-165 2502.05,-145.35 2494.6,-119.06 2487.23,-101.73"/>
<polygon fill="midnightblue" stroke="midnightblue" points="2490.2,-99.82 2482.81,-92.23 2483.85,-102.77 2490.2,-99.82"/>
</g>
<!-- Node11&#45;&gt;Node24 -->
<g id="edge48" class="edge">
<title>Node11&#45;&gt;Node24</title>
<path fill="none" stroke="midnightblue" d="M2043.7,-264.19C2143.77,-259.97 2369.15,-247.73 2441,-221 2516.1,-193.06 2589.24,-129.23 2620.78,-99.41"/>
<polygon fill="midnightblue" stroke="midnightblue" points="2623.42,-101.72 2628.21,-92.28 2618.57,-96.67 2623.42,-101.72"/>
</g>
<!-- Node11&#45;&gt;Node25 -->
<g id="edge50" class="edge">
<title>Node11&#45;&gt;Node25</title>
<path fill="none" stroke="midnightblue" d="M1992.78,-257.2C1985.69,-229.07 1963.48,-140.96 1953.7,-102.16"/>
<polygon fill="midnightblue" stroke="midnightblue" points="1957.03,-101.06 1951.2,-92.21 1950.25,-102.77 1957.03,-101.06"/>
</g>
<!-- Node11&#45;&gt;Node26 -->
<g id="edge51" class="edge">
<title>Node11&#45;&gt;Node26</title>
<path fill="none" stroke="midnightblue" d="M2043.55,-263.26C2154.27,-255.89 2420.06,-231.5 2474,-165 2482.68,-154.3 2482.17,-145.09 2474,-134 2461.33,-116.82 2411.27,-102.97 2369.93,-94.16"/>
<polygon fill="midnightblue" stroke="midnightblue" points="2370.41,-90.68 2359.91,-92.08 2368.99,-97.54 2370.41,-90.68"/>
</g>
<!-- Node12&#45;&gt;Node2 -->
<g id="edge15" class="edge">
<title>Node12&#45;&gt;Node2</title>
<path fill="none" stroke="midnightblue" d="M2053.86,-204.53C1982.79,-196.09 1842.27,-179.38 1723,-165 1697.65,-161.94 1669.26,-158.48 1646.57,-155.71"/>
<polygon fill="midnightblue" stroke="midnightblue" points="1646.93,-152.23 1636.58,-154.49 1646.08,-159.18 1646.93,-152.23"/>
</g>
<!-- Node12&#45;&gt;Node3 -->
<g id="edge16" class="edge">
<title>Node12&#45;&gt;Node3</title>
<path fill="none" stroke="midnightblue" d="M2125.5,-201.47C2141.99,-194.48 2162.14,-182.79 2172,-165 2194.81,-123.85 2171.51,-92.54 2132,-67 2066.69,-24.77 1828.31,-17.78 1734.4,-16.68"/>
<polygon fill="midnightblue" stroke="midnightblue" points="1734.24,-13.18 1724.2,-16.58 1734.17,-20.18 1734.24,-13.18"/>
</g>
<!-- Node12&#45;&gt;Node5 -->
<g id="edge17" class="edge">
<title>Node12&#45;&gt;Node5</title>
<path fill="none" stroke="midnightblue" d="M2056.87,-201.48C2002.89,-190.8 1910.46,-172.53 1852.16,-161.01"/>
<polygon fill="midnightblue" stroke="midnightblue" points="1852.53,-157.51 1842.05,-159.01 1851.18,-164.38 1852.53,-157.51"/>
</g>
<!-- Node12&#45;&gt;Node10 -->
<g id="edge41" class="edge">
<title>Node12&#45;&gt;Node10</title>
<path fill="none" stroke="midnightblue" d="M2078.62,-201.31C2024.56,-179.32 1882.25,-121.43 1819.48,-95.9"/>
<polygon fill="midnightblue" stroke="midnightblue" points="1820.7,-92.61 1810.11,-92.09 1818.06,-99.1 1820.7,-92.61"/>
</g>
<!-- Node12&#45;&gt;Node13 -->
<g id="edge18" class="edge">
<title>Node12&#45;&gt;Node13</title>
<path fill="none" stroke="midnightblue" d="M2142.84,-201.48C2189.83,-192.12 2266.17,-176.93 2323.3,-165.56"/>
<polygon fill="midnightblue" stroke="midnightblue" points="2324.25,-168.94 2333.38,-163.56 2322.89,-162.08 2324.25,-168.94"/>
</g>
<!-- Node12&#45;&gt;Node14 -->
<g id="edge19" class="edge">
<title>Node12&#45;&gt;Node14</title>
<path fill="none" stroke="midnightblue" d="M2100,-201.48C2100,-194.47 2100,-184.19 2100,-174.7"/>
<polygon fill="midnightblue" stroke="midnightblue" points="2103.5,-174.52 2100,-164.52 2096.5,-174.52 2103.5,-174.52"/>
</g>
<!-- Node12&#45;&gt;Node23 -->
<g id="edge39" class="edge">
<title>Node12&#45;&gt;Node23</title>
<path fill="none" stroke="midnightblue" d="M2134.79,-201.47C2163.89,-193.73 2206.11,-181.08 2241,-165 2264.75,-154.05 2267.01,-144.41 2291,-134 2333.34,-115.63 2384.02,-102.44 2421.94,-94.16"/>
<polygon fill="midnightblue" stroke="midnightblue" points="2422.73,-97.57 2431.78,-92.06 2421.27,-90.72 2422.73,-97.57"/>
</g>
<!-- Node12&#45;&gt;Node24 -->
<g id="edge40" class="edge">
<title>Node12&#45;&gt;Node24</title>
<path fill="none" stroke="midnightblue" d="M2141.25,-201.48C2186.36,-191.85 2255.49,-176.07 2280,-165 2302.13,-155.01 2302.43,-142.96 2325,-134 2422.8,-95.17 2455.26,-115.62 2559,-98 2566.64,-96.7 2574.69,-95.28 2582.59,-93.84"/>
<polygon fill="midnightblue" stroke="midnightblue" points="2583.29,-97.27 2592.49,-92.02 2582.03,-90.38 2583.29,-97.27"/>
</g>
<!-- Node12&#45;&gt;Node25 -->
<g id="edge42" class="edge">
<title>Node12&#45;&gt;Node25</title>
<path fill="none" stroke="midnightblue" d="M2084.35,-201.48C2069.49,-193.07 2046.82,-179.4 2029,-165 2003.82,-144.65 1978.22,-117.1 1962.97,-99.82"/>
<polygon fill="midnightblue" stroke="midnightblue" points="1965.58,-97.48 1956.37,-92.24 1960.3,-102.08 1965.58,-97.48"/>
</g>
<!-- Node12&#45;&gt;Node26 -->
<g id="edge43" class="edge">
<title>Node12&#45;&gt;Node26</title>
<path fill="none" stroke="midnightblue" d="M2124.6,-201.46C2146.43,-193.42 2178.82,-180.34 2205,-165 2238.64,-145.28 2273.78,-116.34 2293.96,-98.78"/>
<polygon fill="midnightblue" stroke="midnightblue" points="2296.46,-101.25 2301.65,-92.01 2291.83,-95.99 2296.46,-101.25"/>
</g>
<!-- Node14&#45;&gt;Node3 -->
<g id="edge38" class="edge">
<title>Node14&#45;&gt;Node3</title>
<path fill="none" stroke="midnightblue" d="M2108.66,-134.21C2118.29,-116.27 2130.48,-85.59 2114,-67 2089,-38.8 1833,-23.26 1734.41,-18.29"/>
<polygon fill="midnightblue" stroke="midnightblue" points="1734.44,-14.78 1724.28,-17.78 1734.1,-21.77 1734.44,-14.78"/>
</g>
<!-- Node14&#45;&gt;Node10 -->
<g id="edge34" class="edge">
<title>Node14&#45;&gt;Node10</title>
<path fill="none" stroke="midnightblue" d="M2037.27,-135.8C1987.74,-125.72 1916.91,-111.18 1855,-98 1849.27,-96.78 1843.26,-95.48 1837.3,-94.19"/>
<polygon fill="midnightblue" stroke="midnightblue" points="1837.89,-90.73 1827.37,-92.02 1836.39,-97.57 1837.89,-90.73"/>
</g>
<!-- Node15 -->
<g id="node15" class="node">
<title>Node15</title>
<g id="a_node15"><a xlink:title=" ">
<polygon fill="none" stroke="#bfbfbf" points="1408,-6 1408,-25 1518,-25 1518,-6 1408,-6"/>
<text text-anchor="middle" x="1463" y="-13" font-family="Helvetica,sans-Serif" font-size="10.00">highfive/H5File.hpp</text>
</a>
</g>
</g>
<!-- Node14&#45;&gt;Node15 -->
<g id="edge20" class="edge">
<title>Node14&#45;&gt;Node15</title>
<path fill="none" stroke="midnightblue" d="M2094.66,-134.31C2086.66,-115.25 2069.6,-82.06 2043,-67 1943.16,-10.48 1641.53,-47.54 1528,-31 1521.16,-30 1513.97,-28.68 1506.96,-27.24"/>
<polygon fill="midnightblue" stroke="midnightblue" points="1507.41,-23.76 1496.89,-25.07 1505.93,-30.6 1507.41,-23.76"/>
</g>
<!-- Node16 -->
<g id="node16" class="node">
<title>Node16</title>
<g id="a_node16"><a xlink:href="hdf5-core-general_8h.html" target="_top" xlink:title=" ">
<polygon fill="none" stroke="black" points="1249.5,-67.5 1249.5,-97.5 1374.5,-97.5 1374.5,-67.5 1249.5,-67.5"/>
<text text-anchor="start" x="1257.5" y="-85.5" font-family="Helvetica,sans-Serif" font-size="10.00">seerep&#45;hdf5&#45;core/hdf5</text>
<text text-anchor="middle" x="1312" y="-74.5" font-family="Helvetica,sans-Serif" font-size="10.00">&#45;core&#45;general.h</text>
</a>
</g>
</g>
<!-- Node14&#45;&gt;Node16 -->
<g id="edge21" class="edge">
<title>Node14&#45;&gt;Node16</title>
<path fill="none" stroke="midnightblue" d="M2037.18,-143.32C1892.91,-131.42 1538.56,-102.19 1384.97,-89.52"/>
<polygon fill="midnightblue" stroke="midnightblue" points="1384.96,-86.01 1374.7,-88.67 1384.38,-92.98 1384.96,-86.01"/>
</g>
<!-- Node17 -->
<g id="node17" class="node">
<title>Node17</title>
<g id="a_node17"><a xlink:title=" ">
<polygon fill="none" stroke="#bfbfbf" points="1536.5,-6 1536.5,-25 1649.5,-25 1649.5,-6 1536.5,-6"/>
<text text-anchor="middle" x="1593" y="-13" font-family="Helvetica,sans-Serif" font-size="10.00">boost/geometry.hpp</text>
</a>
</g>
</g>
<!-- Node14&#45;&gt;Node17 -->
<g id="edge37" class="edge">
<title>Node14&#45;&gt;Node17</title>
<path fill="none" stroke="midnightblue" d="M2100.32,-134.41C2099.91,-115.79 2096.1,-83.43 2076,-67 2003.99,-8.14 1750.95,-45.01 1659,-31 1652.14,-29.96 1644.93,-28.62 1637.9,-27.18"/>
<polygon fill="midnightblue" stroke="midnightblue" points="1638.29,-23.69 1627.78,-25.03 1636.83,-30.53 1638.29,-23.69"/>
</g>
<!-- Node22 -->
<g id="node22" class="node">
<title>Node22</title>
<g id="a_node22"><a xlink:title=" ">
<polygon fill="none" stroke="#bfbfbf" points="993,-73 993,-92 1193,-92 1193,-73 993,-73"/>
<text text-anchor="middle" x="1093" y="-80" font-family="Helvetica,sans-Serif" font-size="10.00">geometry_msgs/TransformStamped.h</text>
</a>
</g>
</g>
<!-- Node14&#45;&gt;Node22 -->
<g id="edge31" class="edge">
<title>Node14&#45;&gt;Node22</title>
<path fill="none" stroke="midnightblue" d="M2037.25,-144.3C1992.34,-141.33 1930.46,-137.3 1876,-134 1593.4,-116.86 1522.27,-119.9 1240,-98 1221.58,-96.57 1201.88,-94.8 1183.09,-92.99"/>
<polygon fill="midnightblue" stroke="midnightblue" points="1183.35,-89.5 1173.05,-92.01 1182.67,-96.46 1183.35,-89.5"/>
</g>
<!-- Node14&#45;&gt;Node23 -->
<g id="edge32" class="edge">
<title>Node14&#45;&gt;Node23</title>
<path fill="none" stroke="midnightblue" d="M2162.84,-137.69C2233.88,-125.48 2348.66,-105.74 2418.35,-93.76"/>
<polygon fill="midnightblue" stroke="midnightblue" points="2419.03,-97.19 2428.3,-92.05 2417.85,-90.29 2419.03,-97.19"/>
</g>
<!-- Node14&#45;&gt;Node24 -->
<g id="edge33" class="edge">
<title>Node14&#45;&gt;Node24</title>
<path fill="none" stroke="midnightblue" d="M2162.55,-143.1C2251.07,-135.12 2417.83,-118.86 2559,-98 2567.14,-96.8 2575.72,-95.37 2584.1,-93.88"/>
<polygon fill="midnightblue" stroke="midnightblue" points="2584.97,-97.28 2594.18,-92.05 2583.72,-90.39 2584.97,-97.28"/>
</g>
<!-- Node14&#45;&gt;Node25 -->
<g id="edge35" class="edge">
<title>Node14&#45;&gt;Node25</title>
<path fill="none" stroke="midnightblue" d="M2067.24,-134.4C2040.74,-122.99 2003.78,-107.08 1978.27,-96.1"/>
<polygon fill="midnightblue" stroke="midnightblue" points="1979.33,-92.75 1968.76,-92.01 1976.56,-99.18 1979.33,-92.75"/>
</g>
<!-- Node14&#45;&gt;Node26 -->
<g id="edge36" class="edge">
<title>Node14&#45;&gt;Node26</title>
<path fill="none" stroke="midnightblue" d="M2145.52,-134.48C2183.84,-122.67 2237.96,-106 2273.74,-94.98"/>
<polygon fill="midnightblue" stroke="midnightblue" points="2274.79,-98.32 2283.31,-92.03 2272.73,-91.63 2274.79,-98.32"/>
</g>
<!-- Node16&#45;&gt;Node3 -->
<g id="edge27" class="edge">
<title>Node16&#45;&gt;Node3</title>
<path fill="none" stroke="midnightblue" d="M1374.6,-76.73C1444.76,-70.39 1561.46,-56.84 1659,-31 1661.66,-30.3 1664.39,-29.46 1667.1,-28.55"/>
<polygon fill="midnightblue" stroke="midnightblue" points="1668.51,-31.76 1676.69,-25.03 1666.1,-25.19 1668.51,-31.76"/>
</g>
<!-- Node16&#45;&gt;Node4 -->
<g id="edge23" class="edge">
<title>Node16&#45;&gt;Node4</title>
<path fill="none" stroke="midnightblue" d="M1249.27,-72.36C1233.84,-70.36 1217.35,-68.41 1202,-67 865.92,-36.11 462.21,-22.6 304.15,-18.22"/>
<polygon fill="midnightblue" stroke="midnightblue" points="304.19,-14.72 294.1,-17.94 304,-21.71 304.19,-14.72"/>
</g>
<!-- Node16&#45;&gt;Node9 -->
<g id="edge24" class="edge">
<title>Node16&#45;&gt;Node9</title>
<path fill="none" stroke="midnightblue" d="M1265.61,-67.48C1232.66,-57.51 1188.25,-44.09 1153.27,-33.51"/>
<polygon fill="midnightblue" stroke="midnightblue" points="1154.26,-30.15 1143.67,-30.61 1152.23,-36.86 1154.26,-30.15"/>
</g>
<!-- Node16&#45;&gt;Node15 -->
<g id="edge22" class="edge">
<title>Node16&#45;&gt;Node15</title>
<path fill="none" stroke="midnightblue" d="M1344.76,-67.4C1371.26,-55.99 1408.22,-40.08 1433.73,-29.1"/>
<polygon fill="midnightblue" stroke="midnightblue" points="1435.44,-32.18 1443.24,-25.01 1432.67,-25.75 1435.44,-32.18"/>
</g>
<!-- Node16&#45;&gt;Node17 -->
<g id="edge25" class="edge">
<title>Node16&#45;&gt;Node17</title>
<path fill="none" stroke="midnightblue" d="M1372.63,-67.48C1424.63,-55.45 1498.51,-38.36 1546.1,-27.35"/>
<polygon fill="midnightblue" stroke="midnightblue" points="1547.18,-30.69 1556.13,-25.03 1545.6,-23.87 1547.18,-30.69"/>
</g>
<!-- Node18 -->
<g id="node18" class="node">
<title>Node18</title>
<g id="a_node18"><a xlink:title=" ">
<polygon fill="none" stroke="#bfbfbf" points="1175,-6 1175,-25 1223,-25 1223,-6 1175,-6"/>
<text text-anchor="middle" x="1199" y="-13" font-family="Helvetica,sans-Serif" font-size="10.00">mutex</text>
</a>
</g>
</g>
<!-- Node16&#45;&gt;Node18 -->
<g id="edge26" class="edge">
<title>Node16&#45;&gt;Node18</title>
<path fill="none" stroke="midnightblue" d="M1287.48,-67.4C1268.27,-56.34 1241.7,-41.06 1222.7,-30.13"/>
<polygon fill="midnightblue" stroke="midnightblue" points="1224.2,-26.96 1213.79,-25.01 1220.71,-33.03 1224.2,-26.96"/>
</g>
<!-- Node19 -->
<g id="node19" class="node">
<title>Node19</title>
<g id="a_node19"><a xlink:title=" ">
<polygon fill="none" stroke="#bfbfbf" points="741.5,-0.5 741.5,-30.5 886.5,-30.5 886.5,-0.5 741.5,-0.5"/>
<text text-anchor="start" x="749.5" y="-18.5" font-family="Helvetica,sans-Serif" font-size="10.00">boost/log/sources/severity</text>
<text text-anchor="middle" x="814" y="-7.5" font-family="Helvetica,sans-Serif" font-size="10.00">_logger.hpp</text>
</a>
</g>
</g>
<!-- Node16&#45;&gt;Node19 -->
<g id="edge28" class="edge">
<title>Node16&#45;&gt;Node19</title>
<path fill="none" stroke="midnightblue" d="M1249.48,-73.11C1233.97,-71.07 1217.39,-68.92 1202,-67 1069.3,-50.45 1033.16,-50.9 896.83,-31.07"/>
<polygon fill="midnightblue" stroke="midnightblue" points="897.24,-27.59 886.84,-29.61 896.23,-34.52 897.24,-27.59"/>
</g>
<!-- Node20 -->
<g id="node20" class="node">
<title>Node20</title>
<g id="a_node20"><a xlink:title=" ">
<polygon fill="none" stroke="#bfbfbf" points="905,-6 905,-25 1019,-25 1019,-6 905,-6"/>
<text text-anchor="middle" x="962" y="-13" font-family="Helvetica,sans-Serif" font-size="10.00">boost/log/trivial.hpp</text>
</a>
</g>
</g>
<!-- Node16&#45;&gt;Node20 -->
<g id="edge29" class="edge">
<title>Node16&#45;&gt;Node20</title>
<path fill="none" stroke="midnightblue" d="M1249.26,-71.09C1191.62,-61.35 1103.89,-46.08 1028,-31 1022.1,-29.83 1015.92,-28.54 1009.81,-27.24"/>
<polygon fill="midnightblue" stroke="midnightblue" points="1010.15,-23.74 999.64,-25.04 1008.67,-30.58 1010.15,-23.74"/>
</g>
<!-- Node21 -->
<g id="node21" class="node">
<title>Node21</title>
<g id="a_node21"><a xlink:title=" ">
<polygon fill="none" stroke="#bfbfbf" points="1240.5,-6 1240.5,-25 1389.5,-25 1389.5,-6 1240.5,-6"/>
<text text-anchor="middle" x="1315" y="-13" font-family="Helvetica,sans-Serif" font-size="10.00">impl/hdf5&#45;core&#45;general.hpp</text>
</a>
</g>
</g>
<!-- Node16&#45;&gt;Node21 -->
<g id="edge30" class="edge">
<title>Node16&#45;&gt;Node21</title>
<path fill="none" stroke="midnightblue" d="M1312.65,-67.4C1313.09,-57.96 1313.66,-45.45 1314.14,-35.19"/>
<polygon fill="midnightblue" stroke="midnightblue" points="1317.63,-35.35 1314.6,-25.19 1310.64,-35.02 1317.63,-35.35"/>
</g>
<!-- Node27&#45;&gt;Node2 -->
<g id="edge53" class="edge">
<title>Node27&#45;&gt;Node2</title>
<path fill="none" stroke="midnightblue" d="M878.57,-208.51C968.21,-203.7 1251.87,-187.65 1486,-165 1511.01,-162.58 1538.91,-159.18 1561.3,-156.29"/>
<polygon fill="midnightblue" stroke="midnightblue" points="1562.03,-159.72 1571.49,-154.95 1561.12,-152.78 1562.03,-159.72"/>
</g>
<!-- Node27&#45;&gt;Node3 -->
<g id="edge55" class="edge">
<title>Node27&#45;&gt;Node3</title>
<path fill="none" stroke="midnightblue" d="M878.59,-209.11C962.89,-206.16 1209.18,-195.14 1283,-165 1303.5,-156.63 1301.96,-143.42 1322,-134 1392.28,-100.95 1422.93,-131.49 1493,-98 1512.66,-88.6 1511.66,-77.05 1531,-67 1583.44,-39.75 1602.98,-49.8 1659,-31 1661.13,-30.29 1663.31,-29.52 1665.5,-28.73"/>
<polygon fill="midnightblue" stroke="midnightblue" points="1666.88,-31.95 1675,-25.15 1664.41,-25.4 1666.88,-31.95"/>
</g>
<!-- Node27&#45;&gt;Node4 -->
<g id="edge56" class="edge">
<title>Node27&#45;&gt;Node4</title>
<path fill="none" stroke="midnightblue" d="M821.24,-209.91C707.91,-209.29 296.41,-204.32 255,-165 219.58,-131.37 225.92,-67.09 231.8,-35.28"/>
<polygon fill="midnightblue" stroke="midnightblue" points="235.3,-35.65 233.87,-25.15 228.44,-34.25 235.3,-35.65"/>
</g>
<!-- Node27&#45;&gt;Node7 -->
<g id="edge58" class="edge">
<title>Node27&#45;&gt;Node7</title>
<path fill="none" stroke="midnightblue" d="M821.38,-209.64C726.23,-208.11 411.91,-200.52 155,-165 147.52,-163.97 139.63,-162.57 131.98,-161.05"/>
<polygon fill="midnightblue" stroke="midnightblue" points="132.62,-157.61 122.12,-159.01 131.2,-164.47 132.62,-157.61"/>
</g>
<!-- Node27&#45;&gt;Node19 -->
<g id="edge70" class="edge">
<title>Node27&#45;&gt;Node19</title>
<path fill="none" stroke="midnightblue" d="M878.59,-202.33C897.08,-195.72 919.74,-184.13 931,-165 937.99,-153.13 936.26,-146.73 931,-134 913.67,-92.04 873.3,-57.19 844.85,-36.61"/>
<polygon fill="midnightblue" stroke="midnightblue" points="846.63,-33.59 836.44,-30.69 842.6,-39.31 846.63,-33.59"/>
</g>
<!-- Node27&#45;&gt;Node20 -->
<g id="edge71" class="edge">
<title>Node27&#45;&gt;Node20</title>
<path fill="none" stroke="midnightblue" d="M878.59,-204.91C901.31,-199.26 931.86,-187.75 948,-165 975.77,-125.86 970.67,-65.57 965.74,-35.26"/>
<polygon fill="midnightblue" stroke="midnightblue" points="969.15,-34.43 963.92,-25.22 962.26,-35.68 969.15,-34.43"/>
</g>
<!-- Node27&#45;&gt;Node22 -->
<g id="edge59" class="edge">
<title>Node27&#45;&gt;Node22</title>
<path fill="none" stroke="midnightblue" d="M878.65,-205.43C910.35,-199.5 962.23,-187.2 1002,-165 1032.99,-147.7 1062.36,-118.19 1078.97,-99.82"/>
<polygon fill="midnightblue" stroke="midnightblue" points="1081.67,-102.06 1085.67,-92.25 1076.42,-97.42 1081.67,-102.06"/>
</g>
<!-- Node28 -->
<g id="node28" class="node">
<title>Node28</title>
<g id="a_node28"><a xlink:title=" ">
<polygon fill="none" stroke="#bfbfbf" points="164,-140 164,-159 208,-159 208,-140 164,-140"/>
<text text-anchor="middle" x="186" y="-147" font-family="Helvetica,sans-Serif" font-size="10.00">limits</text>
</a>
</g>
</g>
<!-- Node27&#45;&gt;Node28 -->
<g id="edge54" class="edge">
<title>Node27&#45;&gt;Node28</title>
<path fill="none" stroke="midnightblue" d="M821.38,-209.13C714.44,-205.69 338.48,-191.93 222,-165 219.17,-164.35 216.27,-163.5 213.41,-162.55"/>
<polygon fill="midnightblue" stroke="midnightblue" points="214.55,-159.24 203.96,-159.01 212.1,-165.79 214.55,-159.24"/>
</g>
<!-- Node29 -->
<g id="node29" class="node">
<title>Node29</title>
<g id="a_node29"><a xlink:title=" ">
<polygon fill="none" stroke="#bfbfbf" points="264,-140 264,-159 394,-159 394,-140 264,-140"/>
<text text-anchor="middle" x="329" y="-147" font-family="Helvetica,sans-Serif" font-size="10.00">seerep&#45;msgs/query&#45;tf.h</text>
</a>
</g>
</g>
<!-- Node27&#45;&gt;Node29 -->
<g id="edge57" class="edge">
<title>Node27&#45;&gt;Node29</title>
<path fill="none" stroke="midnightblue" d="M821.38,-208.05C750.33,-203 560.21,-188.26 403,-165 395.17,-163.84 386.91,-162.42 378.86,-160.93"/>
<polygon fill="midnightblue" stroke="midnightblue" points="379.3,-157.45 368.82,-159.01 377.99,-164.32 379.3,-157.45"/>
</g>
<!-- Node30 -->
<g id="node30" class="node">
<title>Node30</title>
<g id="a_node30"><a xlink:href="hdf5-core-tf_8h.html" target="_top" xlink:title=" ">
<polygon fill="none" stroke="black" points="1149.5,-134.5 1149.5,-164.5 1274.5,-164.5 1274.5,-134.5 1149.5,-134.5"/>
<text text-anchor="start" x="1157.5" y="-152.5" font-family="Helvetica,sans-Serif" font-size="10.00">seerep&#45;hdf5&#45;core/hdf5</text>
<text text-anchor="middle" x="1212" y="-141.5" font-family="Helvetica,sans-Serif" font-size="10.00">&#45;core&#45;tf.h</text>
</a>
</g>
</g>
<!-- Node27&#45;&gt;Node30 -->
<g id="edge60" class="edge">
<title>Node27&#45;&gt;Node30</title>
<path fill="none" stroke="midnightblue" d="M878.71,-205.28C934.52,-196.11 1059.17,-175.62 1139.22,-162.46"/>
<polygon fill="midnightblue" stroke="midnightblue" points="1139.93,-165.89 1149.23,-160.82 1138.8,-158.99 1139.93,-165.89"/>
</g>
<!-- Node31 -->
<g id="node31" class="node">
<title>Node31</title>
<g id="a_node31"><a xlink:title=" ">
<polygon fill="none" stroke="#bfbfbf" points="412,-140 412,-159 478,-159 478,-140 412,-140"/>
<text text-anchor="middle" x="445" y="-147" font-family="Helvetica,sans-Serif" font-size="10.00">ros/time.h</text>
</a>
</g>
</g>
<!-- Node27&#45;&gt;Node31 -->
<g id="edge66" class="edge">
<title>Node27&#45;&gt;Node31</title>
<path fill="none" stroke="midnightblue" d="M821.31,-208.57C759.35,-205.02 608.72,-193.92 486,-165 482.77,-164.24 479.43,-163.31 476.13,-162.29"/>
<polygon fill="midnightblue" stroke="midnightblue" points="477.04,-158.91 466.44,-159.07 474.82,-165.55 477.04,-158.91"/>
</g>
<!-- Node32 -->
<g id="node32" class="node">
<title>Node32</title>
<g id="a_node32"><a xlink:title=" ">
<polygon fill="none" stroke="#bfbfbf" points="495.5,-140 495.5,-159 644.5,-159 644.5,-140 495.5,-140"/>
<text text-anchor="middle" x="570" y="-147" font-family="Helvetica,sans-Serif" font-size="10.00">tf2/LinearMath/Transform.h</text>
</a>
</g>
</g>
<!-- Node27&#45;&gt;Node32 -->
<g id="edge67" class="edge">
<title>Node27&#45;&gt;Node32</title>
<path fill="none" stroke="midnightblue" d="M821.35,-203.91C773.92,-193.83 678.5,-173.56 619.83,-161.09"/>
<polygon fill="midnightblue" stroke="midnightblue" points="620.55,-157.66 610.04,-159.01 619.09,-164.51 620.55,-157.66"/>
</g>
<!-- Node33 -->
<g id="node33" class="node">
<title>Node33</title>
<g id="a_node33"><a xlink:title=" ">
<polygon fill="none" stroke="#bfbfbf" points="662.5,-140 662.5,-159 759.5,-159 759.5,-140 662.5,-140"/>
<text text-anchor="middle" x="711" y="-147" font-family="Helvetica,sans-Serif" font-size="10.00">tf2/buffer_core.h</text>
</a>
</g>
</g>
<!-- Node27&#45;&gt;Node33 -->
<g id="edge68" class="edge">
<title>Node27&#45;&gt;Node33</title>
<path fill="none" stroke="midnightblue" d="M830.08,-201.48C806.55,-191.4 767.19,-174.55 740.21,-163"/>
<polygon fill="midnightblue" stroke="midnightblue" points="741.45,-159.73 730.88,-159.01 738.69,-166.16 741.45,-159.73"/>
</g>
<!-- Node34 -->
<g id="node34" class="node">
<title>Node34</title>
<g id="a_node34"><a xlink:title=" ">
<polygon fill="none" stroke="#bfbfbf" points="778,-140 778,-159 922,-159 922,-140 778,-140"/>
<text text-anchor="middle" x="850" y="-147" font-family="Helvetica,sans-Serif" font-size="10.00">tf2/transform_datatypes.h</text>
</a>
</g>
</g>
<!-- Node27&#45;&gt;Node34 -->
<g id="edge69" class="edge">
<title>Node27&#45;&gt;Node34</title>
<path fill="none" stroke="midnightblue" d="M850,-201.48C850,-193.08 850,-179.98 850,-169.16"/>
<polygon fill="midnightblue" stroke="midnightblue" points="853.5,-169.01 850,-159.01 846.5,-169.01 853.5,-169.01"/>
</g>
<!-- Node30&#45;&gt;Node3 -->
<g id="edge65" class="edge">
<title>Node30&#45;&gt;Node3</title>
<path fill="none" stroke="midnightblue" d="M1274.55,-136.74C1340.9,-124.06 1438.43,-104.79 1455,-98 1478.5,-88.36 1479.61,-76.89 1503,-67 1568.54,-39.28 1591.03,-52.04 1659,-31 1661.42,-30.25 1663.91,-29.42 1666.4,-28.54"/>
<polygon fill="midnightblue" stroke="midnightblue" points="1667.69,-31.79 1675.83,-25.02 1665.24,-25.24 1667.69,-31.79"/>
</g>
<!-- Node30&#45;&gt;Node15 -->
<g id="edge61" class="edge">
<title>Node30&#45;&gt;Node15</title>
<path fill="none" stroke="midnightblue" d="M1271.02,-134.44C1312.54,-123.92 1363.96,-109.44 1383,-98 1411.34,-80.98 1436.69,-51.56 1450.94,-33.11"/>
<polygon fill="midnightblue" stroke="midnightblue" points="1453.79,-35.14 1457,-25.04 1448.19,-30.94 1453.79,-35.14"/>
</g>
<!-- Node30&#45;&gt;Node16 -->
<g id="edge62" class="edge">
<title>Node30&#45;&gt;Node16</title>
<path fill="none" stroke="midnightblue" d="M1233.7,-134.4C1247.72,-125.28 1266.17,-113.29 1281.64,-103.24"/>
<polygon fill="midnightblue" stroke="midnightblue" points="1283.87,-105.96 1290.34,-97.58 1280.05,-100.09 1283.87,-105.96"/>
</g>
<!-- Node30&#45;&gt;Node17 -->
<g id="edge64" class="edge">
<title>Node30&#45;&gt;Node17</title>
<path fill="none" stroke="midnightblue" d="M1274.52,-135.33C1324.68,-124.34 1390.75,-108.78 1416,-98 1439.7,-87.88 1442.02,-78.67 1465,-67 1495.41,-51.56 1531.71,-37.63 1557.87,-28.34"/>
<polygon fill="midnightblue" stroke="midnightblue" points="1559.09,-31.62 1567.37,-25.01 1556.77,-25.01 1559.09,-31.62"/>
</g>
<!-- Node30&#45;&gt;Node22 -->
<g id="edge63" class="edge">
<title>Node30&#45;&gt;Node22</title>
<path fill="none" stroke="midnightblue" d="M1186.18,-134.4C1165.76,-123.24 1137.45,-107.78 1117.41,-96.83"/>
<polygon fill="midnightblue" stroke="midnightblue" points="1119.03,-93.73 1108.57,-92.01 1115.67,-99.87 1119.03,-93.73"/>
</g>
</g>
</svg>
