<?xml version="1.0" encoding="UTF-8" standalone="no"?>
<!DOCTYPE svg PUBLIC "-//W3C//DTD SVG 1.1//EN"
 "http://www.w3.org/Graphics/SVG/1.1/DTD/svg11.dtd">
<!-- Generated by graphviz version 2.43.0 (0)
 -->
<!-- Title: seerep&#45;srv/seerep&#45;core/include/seerep&#45;core/core&#45;dataset.h Pages: 1 -->
<svg width="2605pt" height="363pt"
 viewBox="0.00 0.00 2604.50 363.00" xmlns="http://www.w3.org/2000/svg" xmlns:xlink="http://www.w3.org/1999/xlink">
<g id="graph0" class="graph" transform="scale(1 1) rotate(0) translate(4 359)">
<title>seerep&#45;srv/seerep&#45;core/include/seerep&#45;core/core&#45;dataset.h</title>
<!-- Node1 -->
<g id="node1" class="node">
<title>Node1</title>
<g id="a_node1"><a xlink:title=" ">
<polygon fill="#bfbfbf" stroke="black" points="425.5,-313.5 425.5,-354.5 565.5,-354.5 565.5,-313.5 425.5,-313.5"/>
<text text-anchor="start" x="433.5" y="-342.5" font-family="Helvetica,sans-Serif" font-size="10.00">seerep&#45;srv/seerep&#45;core</text>
<text text-anchor="start" x="433.5" y="-331.5" font-family="Helvetica,sans-Serif" font-size="10.00">/include/seerep&#45;core/core</text>
<text text-anchor="middle" x="495.5" y="-320.5" font-family="Helvetica,sans-Serif" font-size="10.00">&#45;dataset.h</text>
</a>
</g>
</g>
<!-- Node2 -->
<g id="node2" class="node">
<title>Node2</title>
<g id="a_node2"><a xlink:title=" ">
<polygon fill="none" stroke="#bfbfbf" points="57.5,-257.5 57.5,-276.5 107.5,-276.5 107.5,-257.5 57.5,-257.5"/>
<text text-anchor="middle" x="82.5" y="-264.5" font-family="Helvetica,sans-Serif" font-size="10.00">cstdint</text>
</a>
</g>
</g>
<!-- Node1&#45;&gt;Node2 -->
<g id="edge1" class="edge">
<title>Node1&#45;&gt;Node2</title>
<path fill="none" stroke="midnightblue" d="M425.26,-324.15C349.89,-314.27 226.8,-297 121.5,-277 120.23,-276.76 118.94,-276.51 117.64,-276.24"/>
<polygon fill="midnightblue" stroke="midnightblue" points="118.13,-272.77 107.61,-274.1 116.66,-279.61 118.13,-272.77"/>
</g>
<!-- Node3 -->
<g id="node3" class="node">
<title>Node3</title>
<g id="a_node3"><a xlink:title=" ">
<polygon fill="none" stroke="#bfbfbf" points="508,-140 508,-159 573,-159 573,-140 508,-140"/>
<text text-anchor="middle" x="540.5" y="-147" font-family="Helvetica,sans-Serif" font-size="10.00">functional</text>
</a>
</g>
</g>
<!-- Node1&#45;&gt;Node3 -->
<g id="edge2" class="edge">
<title>Node1&#45;&gt;Node3</title>
<path fill="none" stroke="midnightblue" d="M500.32,-313.47C509.03,-278.11 527.32,-203.94 535.89,-169.2"/>
<polygon fill="midnightblue" stroke="midnightblue" points="539.4,-169.59 538.39,-159.04 532.6,-167.91 539.4,-169.59"/>
</g>
<!-- Node4 -->
<g id="node4" class="node">
<title>Node4</title>
<g id="a_node4"><a xlink:title=" ">
<polygon fill="none" stroke="#bfbfbf" points="1144.5,-6 1144.5,-25 1200.5,-25 1200.5,-6 1144.5,-6"/>
<text text-anchor="middle" x="1172.5" y="-13" font-family="Helvetica,sans-Serif" font-size="10.00">optional</text>
</a>
</g>
</g>
<!-- Node1&#45;&gt;Node4 -->
<g id="edge3" class="edge">
<title>Node1&#45;&gt;Node4</title>
<path fill="none" stroke="midnightblue" d="M425.41,-327.83C372.33,-321.54 298.98,-307.65 241.5,-277 204.61,-257.33 173.5,-253.81 173.5,-212 173.5,-212 173.5,-212 173.5,-148.5 173.5,-111.31 163.97,-90.86 192.5,-67 210.89,-51.62 954.97,-24.23 1134.04,-17.85"/>
<polygon fill="midnightblue" stroke="midnightblue" points="1134.42,-21.34 1144.29,-17.49 1134.18,-14.35 1134.42,-21.34"/>
</g>
<!-- Node5 -->
<g id="node5" class="node">
<title>Node5</title>
<g id="a_node5"><a xlink:title=" ">
<polygon fill="none" stroke="#bfbfbf" points="2216.5,-6 2216.5,-25 2332.5,-25 2332.5,-6 2216.5,-6"/>
<text text-anchor="middle" x="2274.5" y="-13" font-family="Helvetica,sans-Serif" font-size="10.00">seerep&#45;msgs/aabb.h</text>
</a>
</g>
</g>
<!-- Node1&#45;&gt;Node5 -->
<g id="edge4" class="edge">
<title>Node1&#45;&gt;Node5</title>
<path fill="none" stroke="midnightblue" d="M565.7,-332.71C930.87,-330.75 2596.5,-316.1 2596.5,-212 2596.5,-212 2596.5,-212 2596.5,-148.5 2596.5,-91.36 2420.7,-46.59 2328.89,-27.11"/>
<polygon fill="midnightblue" stroke="midnightblue" points="2329.44,-23.65 2318.93,-25.03 2328.01,-30.5 2329.44,-23.65"/>
</g>
<!-- Node6 -->
<g id="node6" class="node">
<title>Node6</title>
<g id="a_node6"><a xlink:title=" ">
<polygon fill="none" stroke="#bfbfbf" points="316,-140 316,-159 451,-159 451,-140 316,-140"/>
<text text-anchor="middle" x="383.5" y="-147" font-family="Helvetica,sans-Serif" font-size="10.00">seerep&#45;msgs/datatype.h</text>
</a>
</g>
</g>
<!-- Node1&#45;&gt;Node6 -->
<g id="edge5" class="edge">
<title>Node1&#45;&gt;Node6</title>
<path fill="none" stroke="midnightblue" d="M425.29,-325.13C366,-316.87 287.77,-301.61 268.5,-277 234.23,-233.25 311.63,-185.82 355.66,-163.5"/>
<polygon fill="midnightblue" stroke="midnightblue" points="357.35,-166.57 364.76,-159 354.25,-160.3 357.35,-166.57"/>
</g>
<!-- Node7 -->
<g id="node7" class="node">
<title>Node7</title>
<g id="a_node7"><a xlink:title=" ">
<polygon fill="none" stroke="#bfbfbf" points="278,-257.5 278,-276.5 429,-276.5 429,-257.5 278,-257.5"/>
<text text-anchor="middle" x="353.5" y="-264.5" font-family="Helvetica,sans-Serif" font-size="10.00">seerep&#45;msgs/query&#45;result.h</text>
</a>
</g>
</g>
<!-- Node1&#45;&gt;Node7 -->
<g id="edge6" class="edge">
<title>Node1&#45;&gt;Node7</title>
<path fill="none" stroke="midnightblue" d="M452.9,-313.5C429.87,-302.96 402.07,-290.23 381.73,-280.92"/>
<polygon fill="midnightblue" stroke="midnightblue" points="382.95,-277.63 372.4,-276.65 380.04,-284 382.95,-277.63"/>
</g>
<!-- Node8 -->
<g id="node8" class="node">
<title>Node8</title>
<g id="a_node8"><a xlink:title=" ">
<polygon fill="none" stroke="#bfbfbf" points="1378.5,-140 1378.5,-159 1496.5,-159 1496.5,-140 1378.5,-140"/>
<text text-anchor="middle" x="1437.5" y="-147" font-family="Helvetica,sans-Serif" font-size="10.00">seerep&#45;msgs/query.h</text>
</a>
</g>
</g>
<!-- Node1&#45;&gt;Node8 -->
<g id="edge7" class="edge">
<title>Node1&#45;&gt;Node8</title>
<path fill="none" stroke="midnightblue" d="M565.83,-332.25C760.66,-329.63 1297.4,-318.68 1364.5,-277 1404.05,-252.43 1424.42,-198.02 1432.78,-169.22"/>
<polygon fill="midnightblue" stroke="midnightblue" points="1436.25,-169.81 1435.49,-159.24 1429.49,-167.97 1436.25,-169.81"/>
</g>
<!-- Node9 -->
<g id="node9" class="node">
<title>Node9</title>
<g id="a_node9"><a xlink:href="hdf5-core-datatype-interface_8h.html" target="_top" xlink:title=" ">
<polygon fill="none" stroke="black" points="0,-134.5 0,-164.5 145,-164.5 145,-134.5 0,-134.5"/>
<text text-anchor="start" x="8" y="-152.5" font-family="Helvetica,sans-Serif" font-size="10.00">seerep&#45;hdf5&#45;core/hdf5</text>
<text text-anchor="middle" x="72.5" y="-141.5" font-family="Helvetica,sans-Serif" font-size="10.00">&#45;core&#45;datatype&#45;interface.h</text>
</a>
</g>
</g>
<!-- Node1&#45;&gt;Node9 -->
<g id="edge8" class="edge">
<title>Node1&#45;&gt;Node9</title>
<path fill="none" stroke="midnightblue" d="M425.31,-327.75C340.13,-320.29 202.53,-304.38 159.5,-277 120.68,-252.29 94.65,-203.38 81.82,-174.14"/>
<polygon fill="midnightblue" stroke="midnightblue" points="84.94,-172.55 77.83,-164.69 78.49,-175.27 84.94,-172.55"/>
</g>
<!-- Node11 -->
<g id="node11" class="node">
<title>Node11</title>
<g id="a_node11"><a xlink:title=" ">
<polygon fill="none" stroke="#bfbfbf" points="202,-73 202,-92 315,-92 315,-73 202,-73"/>
<text text-anchor="middle" x="258.5" y="-80" font-family="Helvetica,sans-Serif" font-size="10.00">boost/uuid/uuid.hpp</text>
</a>
</g>
</g>
<!-- Node1&#45;&gt;Node11 -->
<g id="edge76" class="edge">
<title>Node1&#45;&gt;Node11</title>
<path fill="none" stroke="midnightblue" d="M425.24,-326.11C362.47,-318.34 277.28,-303.22 256.5,-277 215.47,-225.24 238.64,-138.87 251.6,-101.56"/>
<polygon fill="midnightblue" stroke="midnightblue" points="254.94,-102.63 255.07,-92.03 248.36,-100.23 254.94,-102.63"/>
</g>
<!-- Node12 -->
<g id="node12" class="node">
<title>Node12</title>
<g id="a_node12"><a xlink:href="core-instances_8h.html" target="_top" xlink:title=" ">
<polygon fill="none" stroke="black" points="703,-257.5 703,-276.5 800,-276.5 800,-257.5 703,-257.5"/>
<text text-anchor="middle" x="751.5" y="-264.5" font-family="Helvetica,sans-Serif" font-size="10.00">core&#45;instances.h</text>
</a>
</g>
</g>
<!-- Node1&#45;&gt;Node12 -->
<g id="edge12" class="edge">
<title>Node1&#45;&gt;Node12</title>
<path fill="none" stroke="midnightblue" d="M565.79,-315.15C611.17,-303.63 668.8,-289 707.73,-279.11"/>
<polygon fill="midnightblue" stroke="midnightblue" points="708.86,-282.44 717.7,-276.58 707.14,-275.65 708.86,-282.44"/>
</g>
<!-- Node25 -->
<g id="node25" class="node">
<title>Node25</title>
<g id="a_node25"><a xlink:title=" ">
<polygon fill="none" stroke="#bfbfbf" points="532,-73 532,-92 675,-92 675,-73 532,-73"/>
<text text-anchor="middle" x="603.5" y="-80" font-family="Helvetica,sans-Serif" font-size="10.00">boost/functional/hash.hpp</text>
</a>
</g>
</g>
<!-- Node1&#45;&gt;Node25 -->
<g id="edge74" class="edge">
<title>Node1&#45;&gt;Node25</title>
<path fill="none" stroke="midnightblue" d="M482.92,-313.25C472.05,-297.07 455.33,-274.14 437.5,-257 379.92,-201.66 254.98,-195.02 306.5,-134 333.54,-101.97 443.17,-90.25 521.36,-85.97"/>
<polygon fill="midnightblue" stroke="midnightblue" points="521.88,-89.44 531.69,-85.43 521.52,-82.45 521.88,-89.44"/>
</g>
<!-- Node26 -->
<g id="node26" class="node">
<title>Node26</title>
<g id="a_node26"><a xlink:title=" ">
<polygon fill="none" stroke="#bfbfbf" points="1000,-73 1000,-92 1125,-92 1125,-73 1000,-73"/>
<text text-anchor="middle" x="1062.5" y="-80" font-family="Helvetica,sans-Serif" font-size="10.00">boost/lexical_cast.hpp</text>
</a>
</g>
</g>
<!-- Node1&#45;&gt;Node26 -->
<g id="edge75" class="edge">
<title>Node1&#45;&gt;Node26</title>
<path fill="none" stroke="midnightblue" d="M565.82,-331.12C637.08,-327.04 749.24,-314.57 838.5,-277 934.09,-236.76 1018.18,-139.71 1049.49,-100.43"/>
<polygon fill="midnightblue" stroke="midnightblue" points="1052.56,-102.18 1055.98,-92.15 1047.06,-97.86 1052.56,-102.18"/>
</g>
<!-- Node27 -->
<g id="node27" class="node">
<title>Node27</title>
<g id="a_node27"><a xlink:title=" ">
<polygon fill="none" stroke="#bfbfbf" points="1295.5,-73 1295.5,-92 1465.5,-92 1465.5,-73 1295.5,-73"/>
<text text-anchor="middle" x="1380.5" y="-80" font-family="Helvetica,sans-Serif" font-size="10.00">boost/uuid/uuid_generators.hpp</text>
</a>
</g>
</g>
<!-- Node1&#45;&gt;Node27 -->
<g id="edge77" class="edge">
<title>Node1&#45;&gt;Node27</title>
<path fill="none" stroke="midnightblue" d="M565.59,-326.17C687.49,-313.18 945.69,-280.73 1156.5,-221 1224.57,-201.71 1246.84,-204.55 1305.5,-165 1331.57,-147.42 1354.93,-119.06 1368.41,-100.85"/>
<polygon fill="midnightblue" stroke="midnightblue" points="1371.52,-102.52 1374.52,-92.36 1365.84,-98.43 1371.52,-102.52"/>
</g>
<!-- Node28 -->
<g id="node28" class="node">
<title>Node28</title>
<g id="a_node28"><a xlink:title=" ">
<polygon fill="none" stroke="#bfbfbf" points="855,-73 855,-92 982,-92 982,-73 855,-73"/>
<text text-anchor="middle" x="918.5" y="-80" font-family="Helvetica,sans-Serif" font-size="10.00">boost/uuid/uuid_io.hpp</text>
</a>
</g>
</g>
<!-- Node1&#45;&gt;Node28 -->
<g id="edge78" class="edge">
<title>Node1&#45;&gt;Node28</title>
<path fill="none" stroke="midnightblue" d="M565.81,-332.17C631.86,-328.75 731.74,-316.65 808.5,-277 867.01,-246.78 880.51,-225.93 905.5,-165 913.8,-144.75 916.83,-119.65 917.91,-102.7"/>
<polygon fill="midnightblue" stroke="midnightblue" points="921.42,-102.57 918.4,-92.42 914.43,-102.24 921.42,-102.57"/>
</g>
<!-- Node29 -->
<g id="node29" class="node">
<title>Node29</title>
<g id="a_node29"><a xlink:href="core-tf_8h.html" target="_top" xlink:title=" ">
<polygon fill="none" stroke="black" points="1766,-201.5 1766,-220.5 1823,-220.5 1823,-201.5 1766,-201.5"/>
<text text-anchor="middle" x="1794.5" y="-208.5" font-family="Helvetica,sans-Serif" font-size="10.00">core&#45;tf.h</text>
</a>
</g>
</g>
<!-- Node1&#45;&gt;Node29 -->
<g id="edge54" class="edge">
<title>Node1&#45;&gt;Node29</title>
<path fill="none" stroke="midnightblue" d="M565.6,-331.55C721.19,-327.72 1106.96,-314.89 1427.5,-277 1547.97,-262.76 1688.81,-234.52 1755.58,-220.42"/>
<polygon fill="midnightblue" stroke="midnightblue" points="1756.59,-223.78 1765.65,-218.28 1755.14,-216.93 1756.59,-223.78"/>
</g>
<!-- Node9&#45;&gt;Node4 -->
<g id="edge11" class="edge">
<title>Node9&#45;&gt;Node4</title>
<path fill="none" stroke="midnightblue" d="M85.44,-134.2C105.1,-112.87 142.07,-74.4 159.5,-67 205.17,-47.62 955.62,-23.22 1134.46,-17.66"/>
<polygon fill="midnightblue" stroke="midnightblue" points="1134.57,-21.16 1144.46,-17.35 1134.36,-14.16 1134.57,-21.16"/>
</g>
<!-- Node10 -->
<g id="node10" class="node">
<title>Node10</title>
<g id="a_node10"><a xlink:title=" ">
<polygon fill="none" stroke="#bfbfbf" points="513,-0.5 513,-30.5 632,-30.5 632,-0.5 513,-0.5"/>
<text text-anchor="start" x="521" y="-18.5" font-family="Helvetica,sans-Serif" font-size="10.00">seerep&#45;msgs/dataset</text>
<text text-anchor="middle" x="572.5" y="-7.5" font-family="Helvetica,sans-Serif" font-size="10.00">&#45;indexable.h</text>
</a>
</g>
</g>
<!-- Node9&#45;&gt;Node10 -->
<g id="edge9" class="edge">
<title>Node9&#45;&gt;Node10</title>
<path fill="none" stroke="midnightblue" d="M75.65,-134.24C80.63,-115.42 92.22,-82.84 115.5,-67 176.93,-25.18 390.74,-17.48 502.78,-16.39"/>
<polygon fill="midnightblue" stroke="midnightblue" points="503,-19.89 512.97,-16.31 502.94,-12.89 503,-19.89"/>
</g>
<!-- Node9&#45;&gt;Node11 -->
<g id="edge10" class="edge">
<title>Node9&#45;&gt;Node11</title>
<path fill="none" stroke="midnightblue" d="M112.86,-134.4C146.22,-122.74 193.05,-106.37 224.52,-95.38"/>
<polygon fill="midnightblue" stroke="midnightblue" points="225.87,-98.61 234.16,-92.01 223.56,-92 225.87,-98.61"/>
</g>
<!-- Node12&#45;&gt;Node3 -->
<g id="edge13" class="edge">
<title>Node12&#45;&gt;Node3</title>
<path fill="none" stroke="midnightblue" d="M735.64,-257.32C699.12,-237.33 608.88,-187.93 565.1,-163.97"/>
<polygon fill="midnightblue" stroke="midnightblue" points="566.71,-160.86 556.26,-159.12 563.35,-167 566.71,-160.86"/>
</g>
<!-- Node12&#45;&gt;Node4 -->
<g id="edge14" class="edge">
<title>Node12&#45;&gt;Node4</title>
<path fill="none" stroke="midnightblue" d="M800.24,-258.09C850.01,-249.78 929.42,-235.87 997.5,-221 1022.14,-215.62 1202.02,-184.91 1217.5,-165 1248.81,-124.72 1209.16,-62.75 1186.41,-33.24"/>
<polygon fill="midnightblue" stroke="midnightblue" points="1188.96,-30.82 1179.99,-25.18 1183.48,-35.19 1188.96,-30.82"/>
</g>
<!-- Node12&#45;&gt;Node6 -->
<g id="edge46" class="edge">
<title>Node12&#45;&gt;Node6</title>
<path fill="none" stroke="midnightblue" d="M702.87,-266.32C644.03,-264.96 543.17,-256.91 465.5,-221 437.93,-208.25 412.45,-183.46 397.44,-166.93"/>
<polygon fill="midnightblue" stroke="midnightblue" points="399.82,-164.35 390.58,-159.16 394.57,-168.97 399.82,-164.35"/>
</g>
<!-- Node12&#45;&gt;Node11 -->
<g id="edge51" class="edge">
<title>Node12&#45;&gt;Node11</title>
<path fill="none" stroke="midnightblue" d="M702.91,-263.42C639.43,-259.1 525.3,-248.02 431.5,-221 373,-204.15 351.87,-205.59 306.5,-165 286.86,-147.43 272.98,-119.85 265.36,-101.73"/>
<polygon fill="midnightblue" stroke="midnightblue" points="268.55,-100.29 261.59,-92.29 262.05,-102.88 268.55,-100.29"/>
</g>
<!-- Node13 -->
<g id="node13" class="node">
<title>Node13</title>
<g id="a_node13"><a xlink:href="core-instance_8h.html" target="_top" xlink:title=" ">
<polygon fill="none" stroke="black" points="742.5,-201.5 742.5,-220.5 834.5,-220.5 834.5,-201.5 742.5,-201.5"/>
<text text-anchor="middle" x="788.5" y="-208.5" font-family="Helvetica,sans-Serif" font-size="10.00">core&#45;instance.h</text>
</a>
</g>
</g>
<!-- Node12&#45;&gt;Node13 -->
<g id="edge15" class="edge">
<title>Node12&#45;&gt;Node13</title>
<path fill="none" stroke="midnightblue" d="M757.61,-257.08C762.78,-249.53 770.35,-238.49 776.69,-229.23"/>
<polygon fill="midnightblue" stroke="midnightblue" points="779.74,-230.98 782.5,-220.75 773.96,-227.02 779.74,-230.98"/>
</g>
<!-- Node14 -->
<g id="node14" class="node">
<title>Node14</title>
<g id="a_node14"><a xlink:title=" ">
<polygon fill="none" stroke="#bfbfbf" points="591,-134.5 591,-164.5 722,-164.5 722,-134.5 591,-134.5"/>
<text text-anchor="start" x="599" y="-152.5" font-family="Helvetica,sans-Serif" font-size="10.00">seerep&#45;msgs/label&#45;with</text>
<text text-anchor="middle" x="656.5" y="-141.5" font-family="Helvetica,sans-Serif" font-size="10.00">&#45;instance.h</text>
</a>
</g>
</g>
<!-- Node12&#45;&gt;Node14 -->
<g id="edge47" class="edge">
<title>Node12&#45;&gt;Node14</title>
<path fill="none" stroke="midnightblue" d="M744.36,-257.32C729.64,-239.42 695.54,-197.97 674.41,-172.28"/>
<polygon fill="midnightblue" stroke="midnightblue" points="677.11,-170.05 668.05,-164.55 671.7,-174.49 677.11,-170.05"/>
</g>
<!-- Node15 -->
<g id="node15" class="node">
<title>Node15</title>
<g id="a_node15"><a xlink:href="hdf5-core-instance_8h.html" target="_top" xlink:title=" ">
<polygon fill="none" stroke="black" points="1083,-134.5 1083,-164.5 1208,-164.5 1208,-134.5 1083,-134.5"/>
<text text-anchor="start" x="1091" y="-152.5" font-family="Helvetica,sans-Serif" font-size="10.00">seerep&#45;hdf5&#45;core/hdf5</text>
<text text-anchor="middle" x="1145.5" y="-141.5" font-family="Helvetica,sans-Serif" font-size="10.00">&#45;core&#45;instance.h</text>
</a>
</g>
</g>
<!-- Node12&#45;&gt;Node15 -->
<g id="edge48" class="edge">
<title>Node12&#45;&gt;Node15</title>
<path fill="none" stroke="midnightblue" d="M798.31,-257.49C839.76,-249.52 901.68,-236.52 954.5,-221 1006.24,-205.79 1064.15,-183.67 1102.5,-168.28"/>
<polygon fill="midnightblue" stroke="midnightblue" points="1103.85,-171.51 1111.81,-164.52 1101.23,-165.02 1103.85,-171.51"/>
</g>
<!-- Node12&#45;&gt;Node25 -->
<g id="edge49" class="edge">
<title>Node12&#45;&gt;Node25</title>
<path fill="none" stroke="midnightblue" d="M702.91,-262.54C642.98,-255.34 543.51,-233.19 498.5,-165 490.91,-153.5 491.17,-145.66 498.5,-134 510.54,-114.86 532.08,-102.8 552.54,-95.3"/>
<polygon fill="midnightblue" stroke="midnightblue" points="553.78,-98.57 562.14,-92.06 551.54,-91.94 553.78,-98.57"/>
</g>
<!-- Node12&#45;&gt;Node26 -->
<g id="edge50" class="edge">
<title>Node12&#45;&gt;Node26</title>
<path fill="none" stroke="midnightblue" d="M778.08,-257.49C801.7,-249.46 836.82,-236.4 865.5,-221 935.33,-183.52 1010.03,-125.92 1043.9,-98.72"/>
<polygon fill="midnightblue" stroke="midnightblue" points="1046.4,-101.21 1051.97,-92.2 1042,-95.76 1046.4,-101.21"/>
</g>
<!-- Node12&#45;&gt;Node27 -->
<g id="edge52" class="edge">
<title>Node12&#45;&gt;Node27</title>
<path fill="none" stroke="midnightblue" d="M800.3,-264.61C895.02,-260.19 1108.42,-241.76 1267.5,-165 1304.45,-147.17 1342.05,-117.19 1363.21,-98.98"/>
<polygon fill="midnightblue" stroke="midnightblue" points="1365.75,-101.41 1370.98,-92.19 1361.14,-96.14 1365.75,-101.41"/>
</g>
<!-- Node12&#45;&gt;Node28 -->
<g id="edge53" class="edge">
<title>Node12&#45;&gt;Node28</title>
<path fill="none" stroke="midnightblue" d="M779.55,-257.41C799.31,-250.22 825.38,-238.33 843.5,-221 879.74,-186.33 902.69,-130.25 912.69,-101.6"/>
<polygon fill="midnightblue" stroke="midnightblue" points="916.03,-102.66 915.89,-92.07 909.39,-100.43 916.03,-102.66"/>
</g>
<!-- Node13&#45;&gt;Node3 -->
<g id="edge16" class="edge">
<title>Node13&#45;&gt;Node3</title>
<path fill="none" stroke="midnightblue" d="M742.46,-201.72C700.24,-193.71 636.15,-180.54 581.5,-165 578.71,-164.21 575.83,-163.32 572.96,-162.4"/>
<polygon fill="midnightblue" stroke="midnightblue" points="573.92,-159.03 563.32,-159.14 571.68,-165.66 573.92,-159.03"/>
</g>
<!-- Node13&#45;&gt;Node4 -->
<g id="edge17" class="edge">
<title>Node13&#45;&gt;Node4</title>
<path fill="none" stroke="midnightblue" d="M789.17,-201.19C791.62,-175.78 802.39,-101.92 846.5,-67 890.46,-32.2 1057.87,-21.09 1134.18,-17.79"/>
<polygon fill="midnightblue" stroke="midnightblue" points="1134.47,-21.28 1144.32,-17.38 1134.19,-14.29 1134.47,-21.28"/>
</g>
<!-- Node13&#45;&gt;Node6 -->
<g id="edge18" class="edge">
<title>Node13&#45;&gt;Node6</title>
<path fill="none" stroke="midnightblue" d="M742.44,-203.23C671.28,-192.78 534.25,-172.65 451.63,-160.51"/>
<polygon fill="midnightblue" stroke="midnightblue" points="451.98,-157.02 441.58,-159.03 450.96,-163.95 451.98,-157.02"/>
</g>
<!-- Node13&#45;&gt;Node11 -->
<g id="edge43" class="edge">
<title>Node13&#45;&gt;Node11</title>
<path fill="none" stroke="midnightblue" d="M784.64,-201.06C777.01,-184.57 758.27,-149.63 730.5,-134 696,-114.58 447.38,-95.86 325.5,-87.73"/>
<polygon fill="midnightblue" stroke="midnightblue" points="325.39,-84.22 315.18,-87.05 324.92,-91.2 325.39,-84.22"/>
</g>
<!-- Node13&#45;&gt;Node14 -->
<g id="edge19" class="edge">
<title>Node13&#45;&gt;Node14</title>
<path fill="none" stroke="midnightblue" d="M769.59,-201.48C750.71,-192.96 721.1,-179.62 696.92,-168.72"/>
<polygon fill="midnightblue" stroke="midnightblue" points="698.16,-165.44 687.61,-164.52 695.29,-171.82 698.16,-165.44"/>
</g>
<!-- Node13&#45;&gt;Node15 -->
<g id="edge20" class="edge">
<title>Node13&#45;&gt;Node15</title>
<path fill="none" stroke="midnightblue" d="M834.81,-202.28C895.13,-192.23 1001.3,-174.53 1072.51,-162.66"/>
<polygon fill="midnightblue" stroke="midnightblue" points="1073.47,-166.05 1082.76,-160.96 1072.32,-159.15 1073.47,-166.05"/>
</g>
<!-- Node13&#45;&gt;Node25 -->
<g id="edge41" class="edge">
<title>Node13&#45;&gt;Node25</title>
<path fill="none" stroke="midnightblue" d="M788.26,-201.4C787.36,-185.79 783.21,-152.67 764.5,-134 743.36,-112.9 713.51,-100.59 685.25,-93.43"/>
<polygon fill="midnightblue" stroke="midnightblue" points="685.87,-89.98 675.34,-91.1 684.27,-96.79 685.87,-89.98"/>
</g>
<!-- Node13&#45;&gt;Node26 -->
<g id="edge42" class="edge">
<title>Node13&#45;&gt;Node26</title>
<path fill="none" stroke="midnightblue" d="M807.33,-201.31C854.67,-179.45 978.8,-122.14 1034.61,-96.37"/>
<polygon fill="midnightblue" stroke="midnightblue" points="1036.29,-99.46 1043.9,-92.09 1033.35,-93.1 1036.29,-99.46"/>
</g>
<!-- Node13&#45;&gt;Node27 -->
<g id="edge44" class="edge">
<title>Node13&#45;&gt;Node27</title>
<path fill="none" stroke="midnightblue" d="M834.62,-210.51C914.34,-210.23 1082.35,-204.46 1217.5,-165 1271.17,-149.33 1328.42,-116.46 1358.73,-97.6"/>
<polygon fill="midnightblue" stroke="midnightblue" points="1360.64,-100.53 1367.23,-92.23 1356.91,-94.61 1360.64,-100.53"/>
</g>
<!-- Node13&#45;&gt;Node28 -->
<g id="edge45" class="edge">
<title>Node13&#45;&gt;Node28</title>
<path fill="none" stroke="midnightblue" d="M799.11,-201.32C809.81,-192.45 826.66,-178.16 840.5,-165 863.22,-143.39 888.03,-116.94 903.43,-100.15"/>
<polygon fill="midnightblue" stroke="midnightblue" points="906.41,-102.07 910.56,-92.32 901.24,-97.35 906.41,-102.07"/>
</g>
<!-- Node15&#45;&gt;Node4 -->
<g id="edge40" class="edge">
<title>Node15&#45;&gt;Node4</title>
<path fill="none" stroke="midnightblue" d="M1148.39,-134.37C1153.29,-110.4 1163.24,-61.75 1168.7,-35.06"/>
<polygon fill="midnightblue" stroke="midnightblue" points="1172.17,-35.6 1170.74,-25.1 1165.31,-34.19 1172.17,-35.6"/>
</g>
<!-- Node15&#45;&gt;Node11 -->
<g id="edge36" class="edge">
<title>Node15&#45;&gt;Node11</title>
<path fill="none" stroke="midnightblue" d="M1082.77,-143.9C921.12,-132.06 491.39,-100.57 325.31,-88.4"/>
<polygon fill="midnightblue" stroke="midnightblue" points="325.46,-84.9 315.23,-87.66 324.95,-91.88 325.46,-84.9"/>
</g>
<!-- Node16 -->
<g id="node16" class="node">
<title>Node16</title>
<g id="a_node16"><a xlink:title=" ">
<polygon fill="none" stroke="#bfbfbf" points="1472.5,-6 1472.5,-25 1582.5,-25 1582.5,-6 1472.5,-6"/>
<text text-anchor="middle" x="1527.5" y="-13" font-family="Helvetica,sans-Serif" font-size="10.00">highfive/H5File.hpp</text>
</a>
</g>
</g>
<!-- Node15&#45;&gt;Node16 -->
<g id="edge21" class="edge">
<title>Node15&#45;&gt;Node16</title>
<path fill="none" stroke="midnightblue" d="M1175.72,-134.37C1195.43,-124.82 1221.47,-111.51 1243.5,-98 1263.58,-85.68 1264.92,-76.45 1286.5,-67 1360.04,-34.81 1385.02,-47.87 1463.5,-31 1468.93,-29.83 1474.61,-28.58 1480.26,-27.33"/>
<polygon fill="midnightblue" stroke="midnightblue" points="1481.31,-30.68 1490.3,-25.07 1479.78,-23.85 1481.31,-30.68"/>
</g>
<!-- Node17 -->
<g id="node17" class="node">
<title>Node17</title>
<g id="a_node17"><a xlink:href="hdf5-core-general_8h.html" target="_top" xlink:title=" ">
<polygon fill="none" stroke="black" points="1636,-67.5 1636,-97.5 1761,-97.5 1761,-67.5 1636,-67.5"/>
<text text-anchor="start" x="1644" y="-85.5" font-family="Helvetica,sans-Serif" font-size="10.00">seerep&#45;hdf5&#45;core/hdf5</text>
<text text-anchor="middle" x="1698.5" y="-74.5" font-family="Helvetica,sans-Serif" font-size="10.00">&#45;core&#45;general.h</text>
</a>
</g>
</g>
<!-- Node15&#45;&gt;Node17 -->
<g id="edge22" class="edge">
<title>Node15&#45;&gt;Node17</title>
<path fill="none" stroke="midnightblue" d="M1208.13,-141.14C1311.24,-129.02 1516.18,-104.93 1625.62,-92.07"/>
<polygon fill="midnightblue" stroke="midnightblue" points="1626.07,-95.54 1635.59,-90.89 1625.25,-88.59 1626.07,-95.54"/>
</g>
<!-- Node18 -->
<g id="node18" class="node">
<title>Node18</title>
<g id="a_node18"><a xlink:title=" ">
<polygon fill="none" stroke="#bfbfbf" points="1341,-6 1341,-25 1454,-25 1454,-6 1341,-6"/>
<text text-anchor="middle" x="1397.5" y="-13" font-family="Helvetica,sans-Serif" font-size="10.00">boost/geometry.hpp</text>
</a>
</g>
</g>
<!-- Node15&#45;&gt;Node18 -->
<g id="edge39" class="edge">
<title>Node15&#45;&gt;Node18</title>
<path fill="none" stroke="midnightblue" d="M1160.9,-134.41C1180.95,-116.66 1217.68,-86.19 1253.5,-67 1285.56,-49.82 1324.66,-36.54 1354.02,-27.92"/>
<polygon fill="midnightblue" stroke="midnightblue" points="1355.32,-31.19 1363.97,-25.07 1353.39,-24.46 1355.32,-31.19"/>
</g>
<!-- Node24 -->
<g id="node24" class="node">
<title>Node24</title>
<g id="a_node24"><a xlink:title=" ">
<polygon fill="none" stroke="#bfbfbf" points="1779.5,-73 1779.5,-92 1979.5,-92 1979.5,-73 1779.5,-73"/>
<text text-anchor="middle" x="1879.5" y="-80" font-family="Helvetica,sans-Serif" font-size="10.00">geometry_msgs/TransformStamped.h</text>
</a>
</g>
</g>
<!-- Node15&#45;&gt;Node24 -->
<g id="edge33" class="edge">
<title>Node15&#45;&gt;Node24</title>
<path fill="none" stroke="midnightblue" d="M1208.14,-144.51C1320.82,-137.1 1565.11,-119.94 1770.5,-98 1783.08,-96.66 1796.46,-95.04 1809.37,-93.37"/>
<polygon fill="midnightblue" stroke="midnightblue" points="1810.14,-96.8 1819.6,-92.03 1809.23,-89.86 1810.14,-96.8"/>
</g>
<!-- Node15&#45;&gt;Node25 -->
<g id="edge34" class="edge">
<title>Node15&#45;&gt;Node25</title>
<path fill="none" stroke="midnightblue" d="M1082.8,-140.98C984.3,-129.17 793.37,-106.27 684.57,-93.22"/>
<polygon fill="midnightblue" stroke="midnightblue" points="684.97,-89.75 674.63,-92.03 684.14,-96.7 684.97,-89.75"/>
</g>
<!-- Node15&#45;&gt;Node26 -->
<g id="edge35" class="edge">
<title>Node15&#45;&gt;Node26</title>
<path fill="none" stroke="midnightblue" d="M1127.49,-134.4C1113.91,-123.76 1095.32,-109.2 1081.5,-98.38"/>
<polygon fill="midnightblue" stroke="midnightblue" points="1083.63,-95.6 1073.6,-92.19 1079.32,-101.12 1083.63,-95.6"/>
</g>
<!-- Node15&#45;&gt;Node27 -->
<g id="edge37" class="edge">
<title>Node15&#45;&gt;Node27</title>
<path fill="none" stroke="midnightblue" d="M1196.2,-134.48C1239.24,-122.57 1300.18,-105.72 1340.02,-94.7"/>
<polygon fill="midnightblue" stroke="midnightblue" points="1340.96,-98.07 1349.67,-92.03 1339.09,-91.32 1340.96,-98.07"/>
</g>
<!-- Node15&#45;&gt;Node28 -->
<g id="edge38" class="edge">
<title>Node15&#45;&gt;Node28</title>
<path fill="none" stroke="midnightblue" d="M1096.52,-134.48C1055.13,-122.62 996.58,-105.86 958.1,-94.84"/>
<polygon fill="midnightblue" stroke="midnightblue" points="958.86,-91.42 948.28,-92.03 956.93,-98.15 958.86,-91.42"/>
</g>
<!-- Node17&#45;&gt;Node4 -->
<g id="edge28" class="edge">
<title>Node17&#45;&gt;Node4</title>
<path fill="none" stroke="midnightblue" d="M1635.84,-73.76C1525.65,-60.14 1300.38,-32.3 1210.64,-21.21"/>
<polygon fill="midnightblue" stroke="midnightblue" points="1210.98,-17.73 1200.63,-19.98 1210.12,-24.68 1210.98,-17.73"/>
</g>
<!-- Node17&#45;&gt;Node5 -->
<g id="edge24" class="edge">
<title>Node17&#45;&gt;Node5</title>
<path fill="none" stroke="midnightblue" d="M1761.25,-68.41C1764.38,-67.9 1767.47,-67.43 1770.5,-67 1963.46,-39.72 2014.74,-59.67 2207.5,-31 2214.46,-29.96 2221.78,-28.63 2228.92,-27.2"/>
<polygon fill="midnightblue" stroke="midnightblue" points="2230.12,-30.52 2239.19,-25.05 2228.69,-23.67 2230.12,-30.52"/>
</g>
<!-- Node17&#45;&gt;Node10 -->
<g id="edge25" class="edge">
<title>Node17&#45;&gt;Node10</title>
<path fill="none" stroke="midnightblue" d="M1635.75,-77.29C1590.85,-74.32 1528.96,-70.29 1474.5,-67 1164.21,-48.27 793.72,-28.27 642.24,-20.2"/>
<polygon fill="midnightblue" stroke="midnightblue" points="642.32,-16.7 632.14,-19.66 641.94,-23.69 642.32,-16.7"/>
</g>
<!-- Node17&#45;&gt;Node16 -->
<g id="edge23" class="edge">
<title>Node17&#45;&gt;Node16</title>
<path fill="none" stroke="midnightblue" d="M1661.4,-67.4C1630.99,-55.84 1588.42,-39.66 1559.5,-28.66"/>
<polygon fill="midnightblue" stroke="midnightblue" points="1560.47,-25.29 1549.88,-25.01 1557.98,-31.83 1560.47,-25.29"/>
</g>
<!-- Node17&#45;&gt;Node18 -->
<g id="edge26" class="edge">
<title>Node17&#45;&gt;Node18</title>
<path fill="none" stroke="midnightblue" d="M1635.64,-68.07C1588.31,-57.94 1521.81,-43.67 1463.5,-31 1457.84,-29.77 1451.92,-28.48 1446.04,-27.19"/>
<polygon fill="midnightblue" stroke="midnightblue" points="1446.75,-23.76 1436.23,-25.04 1445.25,-30.6 1446.75,-23.76"/>
</g>
<!-- Node19 -->
<g id="node19" class="node">
<title>Node19</title>
<g id="a_node19"><a xlink:title=" ">
<polygon fill="none" stroke="#bfbfbf" points="1854.5,-6 1854.5,-25 1902.5,-25 1902.5,-6 1854.5,-6"/>
<text text-anchor="middle" x="1878.5" y="-13" font-family="Helvetica,sans-Serif" font-size="10.00">mutex</text>
</a>
</g>
</g>
<!-- Node17&#45;&gt;Node19 -->
<g id="edge27" class="edge">
<title>Node17&#45;&gt;Node19</title>
<path fill="none" stroke="midnightblue" d="M1743.27,-67.47C1772.84,-57.9 1812.3,-44.55 1846.5,-31 1847.92,-30.44 1849.36,-29.85 1850.82,-29.24"/>
<polygon fill="midnightblue" stroke="midnightblue" points="1852.58,-32.29 1860.35,-25.09 1849.79,-25.87 1852.58,-32.29"/>
</g>
<!-- Node20 -->
<g id="node20" class="node">
<title>Node20</title>
<g id="a_node20"><a xlink:title=" ">
<polygon fill="none" stroke="#bfbfbf" points="1601,-6 1601,-25 1670,-25 1670,-6 1601,-6"/>
<text text-anchor="middle" x="1635.5" y="-13" font-family="Helvetica,sans-Serif" font-size="10.00">type_traits</text>
</a>
</g>
</g>
<!-- Node17&#45;&gt;Node20 -->
<g id="edge29" class="edge">
<title>Node17&#45;&gt;Node20</title>
<path fill="none" stroke="midnightblue" d="M1684.83,-67.4C1674.91,-57.16 1661.47,-43.3 1651.13,-32.62"/>
<polygon fill="midnightblue" stroke="midnightblue" points="1653.4,-29.94 1643.93,-25.19 1648.37,-34.81 1653.4,-29.94"/>
</g>
<!-- Node21 -->
<g id="node21" class="node">
<title>Node21</title>
<g id="a_node21"><a xlink:title=" ">
<polygon fill="none" stroke="#bfbfbf" points="1921,-0.5 1921,-30.5 2066,-30.5 2066,-0.5 1921,-0.5"/>
<text text-anchor="start" x="1929" y="-18.5" font-family="Helvetica,sans-Serif" font-size="10.00">boost/log/sources/severity</text>
<text text-anchor="middle" x="1993.5" y="-7.5" font-family="Helvetica,sans-Serif" font-size="10.00">_logger.hpp</text>
</a>
</g>
</g>
<!-- Node17&#45;&gt;Node21 -->
<g id="edge30" class="edge">
<title>Node17&#45;&gt;Node21</title>
<path fill="none" stroke="midnightblue" d="M1761.06,-67.72C1807.5,-57.48 1870.98,-43.5 1919.87,-32.72"/>
<polygon fill="midnightblue" stroke="midnightblue" points="1920.74,-36.12 1929.76,-30.55 1919.24,-29.28 1920.74,-36.12"/>
</g>
<!-- Node22 -->
<g id="node22" class="node">
<title>Node22</title>
<g id="a_node22"><a xlink:title=" ">
<polygon fill="none" stroke="#bfbfbf" points="2084.5,-6 2084.5,-25 2198.5,-25 2198.5,-6 2084.5,-6"/>
<text text-anchor="middle" x="2141.5" y="-13" font-family="Helvetica,sans-Serif" font-size="10.00">boost/log/trivial.hpp</text>
</a>
</g>
</g>
<!-- Node17&#45;&gt;Node22 -->
<g id="edge31" class="edge">
<title>Node17&#45;&gt;Node22</title>
<path fill="none" stroke="midnightblue" d="M1761.27,-68.55C1764.39,-68 1767.48,-67.48 1770.5,-67 1905.29,-45.51 1940.9,-53.67 2075.5,-31 2082.11,-29.89 2089.05,-28.55 2095.85,-27.14"/>
<polygon fill="midnightblue" stroke="midnightblue" points="2096.61,-30.56 2105.66,-25.05 2095.15,-23.71 2096.61,-30.56"/>
</g>
<!-- Node23 -->
<g id="node23" class="node">
<title>Node23</title>
<g id="a_node23"><a xlink:title=" ">
<polygon fill="none" stroke="#bfbfbf" points="1688,-6 1688,-25 1837,-25 1837,-6 1688,-6"/>
<text text-anchor="middle" x="1762.5" y="-13" font-family="Helvetica,sans-Serif" font-size="10.00">impl/hdf5&#45;core&#45;general.hpp</text>
</a>
</g>
</g>
<!-- Node17&#45;&gt;Node23 -->
<g id="edge32" class="edge">
<title>Node17&#45;&gt;Node23</title>
<path fill="none" stroke="midnightblue" d="M1712.39,-67.4C1722.46,-57.16 1736.12,-43.3 1746.63,-32.62"/>
<polygon fill="midnightblue" stroke="midnightblue" points="1749.42,-34.78 1753.94,-25.19 1744.43,-29.86 1749.42,-34.78"/>
</g>
<!-- Node29&#45;&gt;Node3 -->
<g id="edge55" class="edge">
<title>Node29&#45;&gt;Node3</title>
<path fill="none" stroke="midnightblue" d="M1765.83,-210.11C1605.55,-210.55 819.03,-210.31 581.5,-165 577.98,-164.33 574.36,-163.41 570.79,-162.35"/>
<polygon fill="midnightblue" stroke="midnightblue" points="571.61,-158.94 561.02,-159.13 569.42,-165.59 571.61,-158.94"/>
</g>
<!-- Node29&#45;&gt;Node4 -->
<g id="edge57" class="edge">
<title>Node29&#45;&gt;Node4</title>
<path fill="none" stroke="midnightblue" d="M1765.76,-207.55C1708.16,-202.21 1581.02,-188.11 1544.5,-165 1499.27,-136.37 1519.9,-95.35 1474.5,-67 1431.07,-39.89 1282.03,-24.99 1210.89,-19.27"/>
<polygon fill="midnightblue" stroke="midnightblue" points="1210.82,-15.75 1200.57,-18.46 1210.27,-22.73 1210.82,-15.75"/>
</g>
<!-- Node29&#45;&gt;Node5 -->
<g id="edge58" class="edge">
<title>Node29&#45;&gt;Node5</title>
<path fill="none" stroke="midnightblue" d="M1785.42,-201.08C1770.98,-185.82 1746.12,-154.38 1763.5,-134 1796.36,-95.47 1939.06,-108.96 1988.5,-98 2079.66,-77.79 2184.75,-45.46 2238.59,-28.22"/>
<polygon fill="midnightblue" stroke="midnightblue" points="2239.9,-31.48 2248.35,-25.09 2237.76,-24.82 2239.9,-31.48"/>
</g>
<!-- Node29&#45;&gt;Node8 -->
<g id="edge60" class="edge">
<title>Node29&#45;&gt;Node8</title>
<path fill="none" stroke="midnightblue" d="M1765.82,-205.83C1714.5,-198.29 1603.63,-181.62 1510.5,-165 1503.66,-163.78 1496.48,-162.43 1489.39,-161.07"/>
<polygon fill="midnightblue" stroke="midnightblue" points="1489.63,-157.54 1479.14,-159.06 1488.28,-164.41 1489.63,-157.54"/>
</g>
<!-- Node29&#45;&gt;Node21 -->
<g id="edge72" class="edge">
<title>Node29&#45;&gt;Node21</title>
<path fill="none" stroke="midnightblue" d="M1823.34,-209.26C1953.14,-205.77 2477.91,-190.14 2501.5,-165 2510.93,-154.95 2510.07,-144.78 2501.5,-134 2488.12,-117.17 2214.59,-60.56 2074.58,-32.52"/>
<polygon fill="midnightblue" stroke="midnightblue" points="2075.22,-29.08 2064.73,-30.55 2073.85,-35.94 2075.22,-29.08"/>
</g>
<!-- Node29&#45;&gt;Node22 -->
<g id="edge73" class="edge">
<title>Node29&#45;&gt;Node22</title>
<path fill="none" stroke="midnightblue" d="M1823.15,-209.3C1954.55,-205.98 2494.27,-190.78 2518.5,-165 2527.94,-154.96 2526.48,-145.23 2518.5,-134 2498.8,-106.27 2283.04,-50.91 2187.07,-27.43"/>
<polygon fill="midnightblue" stroke="midnightblue" points="2187.89,-24.03 2177.34,-25.06 2186.23,-30.83 2187.89,-24.03"/>
</g>
<!-- Node29&#45;&gt;Node24 -->
<g id="edge61" class="edge">
<title>Node29&#45;&gt;Node24</title>
<path fill="none" stroke="midnightblue" d="M1773.02,-201.36C1758.11,-194.09 1739.39,-182.12 1730.5,-165 1724.15,-152.77 1722.47,-145.2 1730.5,-134 1744.5,-114.48 1766.46,-102.41 1789.26,-94.98"/>
<polygon fill="midnightblue" stroke="midnightblue" points="1790.47,-98.27 1799.06,-92.07 1788.48,-91.56 1790.47,-98.27"/>
</g>
<!-- Node30 -->
<g id="node30" class="node">
<title>Node30</title>
<g id="a_node30"><a xlink:title=" ">
<polygon fill="none" stroke="#bfbfbf" points="1772.5,-140 1772.5,-159 1816.5,-159 1816.5,-140 1772.5,-140"/>
<text text-anchor="middle" x="1794.5" y="-147" font-family="Helvetica,sans-Serif" font-size="10.00">limits</text>
</a>
</g>
</g>
<!-- Node29&#45;&gt;Node30 -->
<g id="edge56" class="edge">
<title>Node29&#45;&gt;Node30</title>
<path fill="none" stroke="midnightblue" d="M1794.5,-201.48C1794.5,-193.08 1794.5,-179.98 1794.5,-169.16"/>
<polygon fill="midnightblue" stroke="midnightblue" points="1798,-169.01 1794.5,-159.01 1791,-169.01 1798,-169.01"/>
</g>
<!-- Node31 -->
<g id="node31" class="node">
<title>Node31</title>
<g id="a_node31"><a xlink:title=" ">
<polygon fill="none" stroke="#bfbfbf" points="1834.5,-140 1834.5,-159 1964.5,-159 1964.5,-140 1834.5,-140"/>
<text text-anchor="middle" x="1899.5" y="-147" font-family="Helvetica,sans-Serif" font-size="10.00">seerep&#45;msgs/query&#45;tf.h</text>
</a>
</g>
</g>
<!-- Node29&#45;&gt;Node31 -->
<g id="edge59" class="edge">
<title>Node29&#45;&gt;Node31</title>
<path fill="none" stroke="midnightblue" d="M1809.54,-201.48C1826.78,-191.71 1855.24,-175.58 1875.53,-164.08"/>
<polygon fill="midnightblue" stroke="midnightblue" points="1877.51,-166.98 1884.48,-159.01 1874.06,-160.89 1877.51,-166.98"/>
</g>
<!-- Node32 -->
<g id="node32" class="node">
<title>Node32</title>
<g id="a_node32"><a xlink:href="hdf5-core-tf_8h.html" target="_top" xlink:title=" ">
<polygon fill="none" stroke="black" points="1553,-134.5 1553,-164.5 1678,-164.5 1678,-134.5 1553,-134.5"/>
<text text-anchor="start" x="1561" y="-152.5" font-family="Helvetica,sans-Serif" font-size="10.00">seerep&#45;hdf5&#45;core/hdf5</text>
<text text-anchor="middle" x="1615.5" y="-141.5" font-family="Helvetica,sans-Serif" font-size="10.00">&#45;core&#45;tf.h</text>
</a>
</g>
</g>
<!-- Node29&#45;&gt;Node32 -->
<g id="edge62" class="edge">
<title>Node29&#45;&gt;Node32</title>
<path fill="none" stroke="midnightblue" d="M1768.85,-201.48C1742.46,-192.7 1700.6,-178.79 1667.28,-167.71"/>
<polygon fill="midnightblue" stroke="midnightblue" points="1668.28,-164.36 1657.69,-164.52 1666.07,-171 1668.28,-164.36"/>
</g>
<!-- Node33 -->
<g id="node33" class="node">
<title>Node33</title>
<g id="a_node33"><a xlink:title=" ">
<polygon fill="none" stroke="#bfbfbf" points="1982.5,-140 1982.5,-159 2048.5,-159 2048.5,-140 1982.5,-140"/>
<text text-anchor="middle" x="2015.5" y="-147" font-family="Helvetica,sans-Serif" font-size="10.00">ros/time.h</text>
</a>
</g>
</g>
<!-- Node29&#45;&gt;Node33 -->
<g id="edge68" class="edge">
<title>Node29&#45;&gt;Node33</title>
<path fill="none" stroke="midnightblue" d="M1823.23,-203.58C1858.76,-195.46 1920.98,-180.63 1973.5,-165 1976.27,-164.17 1979.13,-163.28 1982,-162.35"/>
<polygon fill="midnightblue" stroke="midnightblue" points="1983.25,-165.63 1991.63,-159.14 1981.03,-158.99 1983.25,-165.63"/>
</g>
<!-- Node34 -->
<g id="node34" class="node">
<title>Node34</title>
<g id="a_node34"><a xlink:title=" ">
<polygon fill="none" stroke="#bfbfbf" points="2066,-140 2066,-159 2215,-159 2215,-140 2066,-140"/>
<text text-anchor="middle" x="2140.5" y="-147" font-family="Helvetica,sans-Serif" font-size="10.00">tf2/LinearMath/Transform.h</text>
</a>
</g>
</g>
<!-- Node29&#45;&gt;Node34 -->
<g id="edge69" class="edge">
<title>Node29&#45;&gt;Node34</title>
<path fill="none" stroke="midnightblue" d="M1823.3,-205.11C1871.69,-196.88 1972.37,-179.72 2057.5,-165 2065.39,-163.64 2073.7,-162.19 2081.89,-160.76"/>
<polygon fill="midnightblue" stroke="midnightblue" points="2082.54,-164.21 2091.79,-159.04 2081.34,-157.31 2082.54,-164.21"/>
</g>
<!-- Node35 -->
<g id="node35" class="node">
<title>Node35</title>
<g id="a_node35"><a xlink:title=" ">
<polygon fill="none" stroke="#bfbfbf" points="2233,-140 2233,-159 2330,-159 2330,-140 2233,-140"/>
<text text-anchor="middle" x="2281.5" y="-147" font-family="Helvetica,sans-Serif" font-size="10.00">tf2/buffer_core.h</text>
</a>
</g>
</g>
<!-- Node29&#45;&gt;Node35 -->
<g id="edge70" class="edge">
<title>Node29&#45;&gt;Node35</title>
<path fill="none" stroke="midnightblue" d="M1823.13,-208.44C1892.46,-204.35 2074.68,-191.75 2224.5,-165 2229.97,-164.02 2235.68,-162.81 2241.29,-161.5"/>
<polygon fill="midnightblue" stroke="midnightblue" points="2242.33,-164.85 2251.21,-159.07 2240.66,-158.05 2242.33,-164.85"/>
</g>
<!-- Node36 -->
<g id="node36" class="node">
<title>Node36</title>
<g id="a_node36"><a xlink:title=" ">
<polygon fill="none" stroke="#bfbfbf" points="2348.5,-140 2348.5,-159 2492.5,-159 2492.5,-140 2348.5,-140"/>
<text text-anchor="middle" x="2420.5" y="-147" font-family="Helvetica,sans-Serif" font-size="10.00">tf2/transform_datatypes.h</text>
</a>
</g>
</g>
<!-- Node29&#45;&gt;Node36 -->
<g id="edge71" class="edge">
<title>Node29&#45;&gt;Node36</title>
<path fill="none" stroke="midnightblue" d="M1823.26,-208.59C1904.57,-204.39 2142.98,-190.64 2339.5,-165 2348.55,-163.82 2358.13,-162.32 2367.41,-160.75"/>
<polygon fill="midnightblue" stroke="midnightblue" points="2368.07,-164.18 2377.32,-159.01 2366.87,-157.29 2368.07,-164.18"/>
</g>
<!-- Node32&#45;&gt;Node4 -->
<g id="edge67" class="edge">
<title>Node32&#45;&gt;Node4</title>
<path fill="none" stroke="midnightblue" d="M1595.35,-134.44C1581.24,-124.48 1562.02,-110.68 1545.5,-98 1528.21,-84.73 1527.43,-75.83 1507.5,-67 1454.85,-43.68 1286.78,-26.49 1210.64,-19.7"/>
<polygon fill="midnightblue" stroke="midnightblue" points="1210.79,-16.2 1200.53,-18.81 1210.18,-23.17 1210.79,-16.2"/>
</g>
<!-- Node32&#45;&gt;Node16 -->
<g id="edge63" class="edge">
<title>Node32&#45;&gt;Node16</title>
<path fill="none" stroke="midnightblue" d="M1612.07,-134.28C1607.49,-117.21 1598.21,-88.25 1583.5,-67 1574,-53.28 1560.07,-40.7 1548.48,-31.52"/>
<polygon fill="midnightblue" stroke="midnightblue" points="1550.27,-28.48 1540.19,-25.21 1546.03,-34.05 1550.27,-28.48"/>
</g>
<!-- Node32&#45;&gt;Node17 -->
<g id="edge64" class="edge">
<title>Node32&#45;&gt;Node17</title>
<path fill="none" stroke="midnightblue" d="M1633.51,-134.4C1644.93,-125.45 1659.89,-113.74 1672.58,-103.8"/>
<polygon fill="midnightblue" stroke="midnightblue" points="1674.81,-106.5 1680.53,-97.58 1670.49,-100.99 1674.81,-106.5"/>
</g>
<!-- Node32&#45;&gt;Node18 -->
<g id="edge66" class="edge">
<title>Node32&#45;&gt;Node18</title>
<path fill="none" stroke="midnightblue" d="M1606.83,-134.37C1595.06,-116.3 1572.38,-85.19 1545.5,-67 1527.75,-54.99 1475.6,-38.58 1438.23,-27.77"/>
<polygon fill="midnightblue" stroke="midnightblue" points="1439.18,-24.4 1428.6,-25.02 1437.25,-31.13 1439.18,-24.4"/>
</g>
<!-- Node32&#45;&gt;Node24 -->
<g id="edge65" class="edge">
<title>Node32&#45;&gt;Node24</title>
<path fill="none" stroke="midnightblue" d="M1672.46,-134.48C1721.12,-122.5 1790.14,-105.5 1834.87,-94.49"/>
<polygon fill="midnightblue" stroke="midnightblue" points="1835.99,-97.82 1844.86,-92.03 1834.31,-91.02 1835.99,-97.82"/>
</g>
</g>
</svg>
