<?xml version="1.0" encoding="UTF-8" standalone="no"?>
<!DOCTYPE svg PUBLIC "-//W3C//DTD SVG 1.1//EN"
 "http://www.w3.org/Graphics/SVG/1.1/DTD/svg11.dtd">
<!-- Generated by graphviz version 2.43.0 (0)
 -->
<!-- Title: seerep_srv/seerep_core/include/seerep_core/core_dataset.h Pages: 1 -->
<svg width="2609pt" height="385pt"
 viewBox="0.00 0.00 2608.92 385.00" xmlns="http://www.w3.org/2000/svg" xmlns:xlink="http://www.w3.org/1999/xlink">
<g id="graph0" class="graph" transform="scale(1 1) rotate(0) translate(4 381)">
<title>seerep_srv/seerep_core/include/seerep_core/core_dataset.h</title>
<!-- Node1 -->
<g id="node1" class="node">
<title>Node1</title>
<g id="a_node1"><a xlink:title=" ">
<polygon fill="#bfbfbf" stroke="black" points="1233.92,-335.5 1233.92,-376.5 1374.92,-376.5 1374.92,-335.5 1233.92,-335.5"/>
<text text-anchor="start" x="1241.92" y="-364.5" font-family="Helvetica,sans-Serif" font-size="10.00">seerep_srv/seerep_core</text>
<text text-anchor="start" x="1241.92" y="-353.5" font-family="Helvetica,sans-Serif" font-size="10.00">/include/seerep_core/core</text>
<text text-anchor="middle" x="1304.42" y="-342.5" font-family="Helvetica,sans-Serif" font-size="10.00">_dataset.h</text>
</a>
</g>
</g>
<!-- Node2 -->
<g id="node2" class="node">
<title>Node2</title>
<g id="a_node2"><a xlink:title=" ">
<polygon fill="none" stroke="#bfbfbf" points="187.92,-268.5 187.92,-287.5 370.92,-287.5 370.92,-268.5 187.92,-268.5"/>
<text text-anchor="middle" x="279.42" y="-275.5" font-family="Helvetica,sans-Serif" font-size="10.00">CGAL/Boolean_set_operations_2.h</text>
</a>
</g>
</g>
<!-- Node1&#45;&gt;Node2 -->
<g id="edge1" class="edge">
<title>Node1&#45;&gt;Node2</title>
<path fill="none" stroke="midnightblue" d="M1233.91,-354.02C1078.79,-351.14 696.53,-340.11 379.42,-299 361.83,-296.72 342.69,-293.16 325.9,-289.67"/>
<polygon fill="midnightblue" stroke="midnightblue" points="326.3,-286.18 315.8,-287.52 324.85,-293.03 326.3,-286.18"/>
</g>
<!-- Node3 -->
<g id="node3" class="node">
<title>Node3</title>
<g id="a_node3"><a xlink:title=" ">
<polygon fill="none" stroke="#bfbfbf" points="388.92,-257.5 388.92,-298.5 517.92,-298.5 517.92,-257.5 388.92,-257.5"/>
<text text-anchor="start" x="396.92" y="-286.5" font-family="Helvetica,sans-Serif" font-size="10.00">CGAL/Exact_predicates</text>
<text text-anchor="start" x="396.92" y="-275.5" font-family="Helvetica,sans-Serif" font-size="10.00">_exact_constructions</text>
<text text-anchor="middle" x="453.42" y="-264.5" font-family="Helvetica,sans-Serif" font-size="10.00">_kernel.h</text>
</a>
</g>
</g>
<!-- Node1&#45;&gt;Node3 -->
<g id="edge2" class="edge">
<title>Node1&#45;&gt;Node3</title>
<path fill="none" stroke="midnightblue" d="M1233.7,-354.43C1098.26,-352.36 792.99,-342.93 528.42,-298.99"/>
<polygon fill="midnightblue" stroke="midnightblue" points="528.68,-295.48 518.24,-297.27 527.52,-302.38 528.68,-295.48"/>
</g>
<!-- Node4 -->
<g id="node4" class="node">
<title>Node4</title>
<g id="a_node4"><a xlink:title=" ">
<polygon fill="none" stroke="#bfbfbf" points="536.42,-268.5 536.42,-287.5 600.42,-287.5 600.42,-268.5 536.42,-268.5"/>
<text text-anchor="middle" x="568.42" y="-275.5" font-family="Helvetica,sans-Serif" font-size="10.00">algorithm</text>
</a>
</g>
</g>
<!-- Node1&#45;&gt;Node4 -->
<g id="edge3" class="edge">
<title>Node1&#45;&gt;Node4</title>
<path fill="none" stroke="midnightblue" d="M1233.68,-352.64C1081.12,-347 725.6,-330.79 609.42,-299 603.45,-297.37 597.31,-294.87 591.65,-292.18"/>
<polygon fill="midnightblue" stroke="midnightblue" points="593.2,-289.04 582.7,-287.61 590.01,-295.28 593.2,-289.04"/>
</g>
<!-- Node5 -->
<g id="node5" class="node">
<title>Node5</title>
<g id="a_node5"><a xlink:title=" ">
<polygon fill="none" stroke="#bfbfbf" points="618.42,-268.5 618.42,-287.5 668.42,-287.5 668.42,-268.5 618.42,-268.5"/>
<text text-anchor="middle" x="643.42" y="-275.5" font-family="Helvetica,sans-Serif" font-size="10.00">cstdint</text>
</a>
</g>
</g>
<!-- Node1&#45;&gt;Node5 -->
<g id="edge4" class="edge">
<title>Node1&#45;&gt;Node5</title>
<path fill="none" stroke="midnightblue" d="M1233.68,-352.03C1093.29,-345.59 784.22,-328.47 682.42,-299 676.85,-297.39 671.14,-294.96 665.86,-292.35"/>
<polygon fill="midnightblue" stroke="midnightblue" points="667.43,-289.22 656.96,-287.58 664.12,-295.39 667.43,-289.22"/>
</g>
<!-- Node6 -->
<g id="node6" class="node">
<title>Node6</title>
<g id="a_node6"><a xlink:title=" ">
<polygon fill="none" stroke="#bfbfbf" points="1351.92,-140 1351.92,-159 1416.92,-159 1416.92,-140 1351.92,-140"/>
<text text-anchor="middle" x="1384.42" y="-147" font-family="Helvetica,sans-Serif" font-size="10.00">functional</text>
</a>
</g>
</g>
<!-- Node1&#45;&gt;Node6 -->
<g id="edge5" class="edge">
<title>Node1&#45;&gt;Node6</title>
<path fill="none" stroke="midnightblue" d="M1312.09,-335.39C1327.61,-295.73 1362.5,-206.53 1377.43,-168.37"/>
<polygon fill="midnightblue" stroke="midnightblue" points="1380.7,-169.63 1381.08,-159.04 1374.18,-167.08 1380.7,-169.63"/>
</g>
<!-- Node7 -->
<g id="node7" class="node">
<title>Node7</title>
<g id="a_node7"><a xlink:title=" ">
<polygon fill="none" stroke="#bfbfbf" points="591.42,-6 591.42,-25 647.42,-25 647.42,-6 591.42,-6"/>
<text text-anchor="middle" x="619.42" y="-13" font-family="Helvetica,sans-Serif" font-size="10.00">optional</text>
</a>
</g>
</g>
<!-- Node1&#45;&gt;Node7 -->
<g id="edge6" class="edge">
<title>Node1&#45;&gt;Node7</title>
<path fill="none" stroke="midnightblue" d="M1303.32,-335.47C1299.85,-292.88 1285.7,-190.9 1228.42,-134 1192.82,-98.64 1165.19,-122.54 1121.42,-98 1102.71,-87.51 1104.26,-75.17 1084.42,-67 907.91,5.69 842.35,-74.28 656.42,-31 653.59,-30.34 650.68,-29.5 647.81,-28.57"/>
<polygon fill="midnightblue" stroke="midnightblue" points="648.88,-25.24 638.29,-25.11 646.49,-31.81 648.88,-25.24"/>
</g>
<!-- Node8 -->
<g id="node8" class="node">
<title>Node8</title>
<g id="a_node8"><a xlink:title=" ">
<polygon fill="none" stroke="#bfbfbf" points="2503.42,-268.5 2503.42,-287.5 2589.42,-287.5 2589.42,-268.5 2503.42,-268.5"/>
<text text-anchor="middle" x="2546.42" y="-275.5" font-family="Helvetica,sans-Serif" font-size="10.00">unordered_set</text>
</a>
</g>
</g>
<!-- Node1&#45;&gt;Node8 -->
<g id="edge7" class="edge">
<title>Node1&#45;&gt;Node8</title>
<path fill="none" stroke="midnightblue" d="M1375.27,-354.34C1596.75,-351.85 2274.12,-340.93 2489.42,-299 2498.62,-297.21 2508.34,-294.23 2517.1,-291.11"/>
<polygon fill="midnightblue" stroke="midnightblue" points="2518.37,-294.38 2526.51,-287.59 2515.91,-287.82 2518.37,-294.38"/>
</g>
<!-- Node9 -->
<g id="node9" class="node">
<title>Node9</title>
<g id="a_node9"><a xlink:title=" ">
<polygon fill="none" stroke="#bfbfbf" points="160.92,-6 160.92,-25 277.92,-25 277.92,-6 160.92,-6"/>
<text text-anchor="middle" x="219.42" y="-13" font-family="Helvetica,sans-Serif" font-size="10.00">seerep_msgs/aabb.h</text>
</a>
</g>
</g>
<!-- Node1&#45;&gt;Node9 -->
<g id="edge8" class="edge">
<title>Node1&#45;&gt;Node9</title>
<path fill="none" stroke="midnightblue" d="M1233.89,-355.21C1096.56,-354.52 798.97,-347.3 710.42,-299 689.58,-287.63 698.16,-268.56 677.42,-257 615.11,-222.26 429.1,-230.7 358.42,-221 204.09,-199.81 113.39,-283.63 12.42,-165 -42.45,-100.53 100.45,-49.45 176.06,-27.78"/>
<polygon fill="midnightblue" stroke="midnightblue" points="177.13,-31.11 185.81,-25.04 175.24,-24.37 177.13,-31.11"/>
</g>
<!-- Node10 -->
<g id="node10" class="node">
<title>Node10</title>
<g id="a_node10"><a xlink:title=" ">
<polygon fill="none" stroke="#bfbfbf" points="2119.92,-140 2119.92,-159 2256.92,-159 2256.92,-140 2119.92,-140"/>
<text text-anchor="middle" x="2188.42" y="-147" font-family="Helvetica,sans-Serif" font-size="10.00">seerep_msgs/datatype.h</text>
</a>
</g>
</g>
<!-- Node1&#45;&gt;Node10 -->
<g id="edge9" class="edge">
<title>Node1&#45;&gt;Node10</title>
<path fill="none" stroke="midnightblue" d="M1375.07,-352.82C1484.82,-348.4 1702.5,-335.46 1883.42,-299 1997.94,-275.92 2038.62,-287.85 2134.42,-221 2154.11,-207.26 2169.82,-184.16 2179.11,-168.16"/>
<polygon fill="midnightblue" stroke="midnightblue" points="2182.26,-169.71 2184.05,-159.27 2176.14,-166.32 2182.26,-169.71"/>
</g>
<!-- Node11 -->
<g id="node11" class="node">
<title>Node11</title>
<g id="a_node11"><a xlink:title=" ">
<polygon fill="none" stroke="#bfbfbf" points="21.92,-140 21.92,-159 140.92,-159 140.92,-140 21.92,-140"/>
<text text-anchor="middle" x="81.42" y="-147" font-family="Helvetica,sans-Serif" font-size="10.00">seerep_msgs/query.h</text>
</a>
</g>
</g>
<!-- Node1&#45;&gt;Node11 -->
<g id="edge10" class="edge">
<title>Node1&#45;&gt;Node11</title>
<path fill="none" stroke="midnightblue" d="M1233.66,-343.93C1162.93,-332.8 1051.1,-315.05 954.42,-299 845.87,-280.97 818.94,-275.25 710.42,-257 461.69,-215.16 398.34,-211.39 150.42,-165 143.87,-163.77 136.99,-162.42 130.21,-161.03"/>
<polygon fill="midnightblue" stroke="midnightblue" points="130.91,-157.6 120.41,-159.01 129.49,-164.46 130.91,-157.6"/>
</g>
<!-- Node12 -->
<g id="node12" class="node">
<title>Node12</title>
<g id="a_node12"><a xlink:href="hdf5__core__datatype__interface_8h.html" target="_top" xlink:title=" ">
<polygon fill="none" stroke="black" points="1248.92,-67.5 1248.92,-97.5 1397.92,-97.5 1397.92,-67.5 1248.92,-67.5"/>
<text text-anchor="start" x="1256.92" y="-85.5" font-family="Helvetica,sans-Serif" font-size="10.00">seerep_hdf5_core/hdf5</text>
<text text-anchor="middle" x="1323.42" y="-74.5" font-family="Helvetica,sans-Serif" font-size="10.00">_core_datatype_interface.h</text>
</a>
</g>
</g>
<!-- Node1&#45;&gt;Node12 -->
<g id="edge11" class="edge">
<title>Node1&#45;&gt;Node12</title>
<path fill="none" stroke="midnightblue" d="M1305.79,-335.47C1309.18,-287 1317.98,-161.26 1321.71,-107.96"/>
<polygon fill="midnightblue" stroke="midnightblue" points="1325.22,-107.96 1322.43,-97.74 1318.24,-107.47 1325.22,-107.96"/>
</g>
<!-- Node14 -->
<g id="node14" class="node">
<title>Node14</title>
<g id="a_node14"><a xlink:title=" ">
<polygon fill="none" stroke="#bfbfbf" points="1721.92,-6 1721.92,-25 1834.92,-25 1834.92,-6 1721.92,-6"/>
<text text-anchor="middle" x="1778.42" y="-13" font-family="Helvetica,sans-Serif" font-size="10.00">boost/uuid/uuid.hpp</text>
</a>
</g>
</g>
<!-- Node1&#45;&gt;Node14 -->
<g id="edge84" class="edge">
<title>Node1&#45;&gt;Node14</title>
<path fill="none" stroke="midnightblue" d="M1328.12,-335.21C1386.82,-286.63 1544.49,-158.78 1686.42,-67 1707.79,-53.18 1733.22,-39.41 1751.93,-29.75"/>
<polygon fill="midnightblue" stroke="midnightblue" points="1753.73,-32.76 1761.04,-25.09 1750.54,-26.53 1753.73,-32.76"/>
</g>
<!-- Node15 -->
<g id="node15" class="node">
<title>Node15</title>
<g id="a_node15"><a xlink:href="core__instances_8h.html" target="_top" xlink:title=" ">
<polygon fill="none" stroke="black" points="1776.42,-268.5 1776.42,-287.5 1874.42,-287.5 1874.42,-268.5 1776.42,-268.5"/>
<text text-anchor="middle" x="1825.42" y="-275.5" font-family="Helvetica,sans-Serif" font-size="10.00">core_instances.h</text>
</a>
</g>
</g>
<!-- Node1&#45;&gt;Node15 -->
<g id="edge15" class="edge">
<title>Node1&#45;&gt;Node15</title>
<path fill="none" stroke="midnightblue" d="M1374.96,-344.71C1478.36,-329.63 1669.25,-301.78 1765.95,-287.67"/>
<polygon fill="midnightblue" stroke="midnightblue" points="1766.75,-291.1 1776.14,-286.19 1765.74,-284.17 1766.75,-291.1"/>
</g>
<!-- Node28 -->
<g id="node28" class="node">
<title>Node28</title>
<g id="a_node28"><a xlink:title=" ">
<polygon fill="none" stroke="#bfbfbf" points="2457.92,-6 2457.92,-25 2600.92,-25 2600.92,-6 2457.92,-6"/>
<text text-anchor="middle" x="2529.42" y="-13" font-family="Helvetica,sans-Serif" font-size="10.00">boost/functional/hash.hpp</text>
</a>
</g>
</g>
<!-- Node1&#45;&gt;Node28 -->
<g id="edge82" class="edge">
<title>Node1&#45;&gt;Node28</title>
<path fill="none" stroke="midnightblue" d="M1375.07,-355.19C1574.87,-355.08 2140.96,-350.14 2318.42,-299 2395.08,-276.91 2475.42,-291.77 2475.42,-212 2475.42,-212 2475.42,-212 2475.42,-148.5 2475.42,-104.56 2501.37,-58.12 2517.29,-33.75"/>
<polygon fill="midnightblue" stroke="midnightblue" points="2520.32,-35.51 2523.02,-25.27 2514.52,-31.6 2520.32,-35.51"/>
</g>
<!-- Node29 -->
<g id="node29" class="node">
<title>Node29</title>
<g id="a_node29"><a xlink:title=" ">
<polygon fill="none" stroke="#bfbfbf" points="2169.92,-6 2169.92,-25 2294.92,-25 2294.92,-6 2169.92,-6"/>
<text text-anchor="middle" x="2232.42" y="-13" font-family="Helvetica,sans-Serif" font-size="10.00">boost/lexical_cast.hpp</text>
</a>
</g>
</g>
<!-- Node1&#45;&gt;Node29 -->
<g id="edge83" class="edge">
<title>Node1&#45;&gt;Node29</title>
<path fill="none" stroke="midnightblue" d="M1375,-352.9C1611.54,-344.94 2361.42,-311.82 2361.42,-212 2361.42,-212 2361.42,-212 2361.42,-148.5 2361.42,-91.19 2298.46,-49.53 2260.51,-29.63"/>
<polygon fill="midnightblue" stroke="midnightblue" points="2261.96,-26.44 2251.46,-25.04 2258.79,-32.68 2261.96,-26.44"/>
</g>
<!-- Node30 -->
<g id="node30" class="node">
<title>Node30</title>
<g id="a_node30"><a xlink:title=" ">
<polygon fill="none" stroke="#bfbfbf" points="1981.42,-6 1981.42,-25 2151.42,-25 2151.42,-6 1981.42,-6"/>
<text text-anchor="middle" x="2066.42" y="-13" font-family="Helvetica,sans-Serif" font-size="10.00">boost/uuid/uuid_generators.hpp</text>
</a>
</g>
</g>
<!-- Node1&#45;&gt;Node30 -->
<g id="edge85" class="edge">
<title>Node1&#45;&gt;Node30</title>
<path fill="none" stroke="midnightblue" d="M1375.17,-352.41C1526.36,-346.36 1876.55,-329.45 1991.42,-299 2122.84,-264.16 2195.8,-281.18 2266.42,-165 2308.5,-95.79 2181.96,-48.36 2111,-27.89"/>
<polygon fill="midnightblue" stroke="midnightblue" points="2111.54,-24.41 2100.97,-25.07 2109.64,-31.15 2111.54,-24.41"/>
</g>
<!-- Node31 -->
<g id="node31" class="node">
<title>Node31</title>
<g id="a_node31"><a xlink:title=" ">
<polygon fill="none" stroke="#bfbfbf" points="2312.92,-6 2312.92,-25 2439.92,-25 2439.92,-6 2312.92,-6"/>
<text text-anchor="middle" x="2376.42" y="-13" font-family="Helvetica,sans-Serif" font-size="10.00">boost/uuid/uuid_io.hpp</text>
</a>
</g>
</g>
<!-- Node1&#45;&gt;Node31 -->
<g id="edge86" class="edge">
<title>Node1&#45;&gt;Node31</title>
<path fill="none" stroke="midnightblue" d="M1375.05,-354.33C1561.65,-351.98 2064.42,-341.75 2224.42,-299 2308.34,-276.58 2399.42,-298.86 2399.42,-212 2399.42,-212 2399.42,-212 2399.42,-148.5 2399.42,-107.37 2388.45,-60.08 2381.66,-34.76"/>
<polygon fill="midnightblue" stroke="midnightblue" points="2385.01,-33.76 2378.97,-25.06 2378.27,-35.63 2385.01,-33.76"/>
</g>
<!-- Node34 -->
<g id="node34" class="node">
<title>Node34</title>
<g id="a_node34"><a xlink:href="core__tf_8h.html" target="_top" xlink:title=" ">
<polygon fill="none" stroke="black" points="762.92,-201.5 762.92,-220.5 821.92,-220.5 821.92,-201.5 762.92,-201.5"/>
<text text-anchor="middle" x="792.42" y="-208.5" font-family="Helvetica,sans-Serif" font-size="10.00">core_tf.h</text>
</a>
</g>
</g>
<!-- Node1&#45;&gt;Node34 -->
<g id="edge64" class="edge">
<title>Node1&#45;&gt;Node34</title>
<path fill="none" stroke="midnightblue" d="M1234.57,-335.49C1125.46,-305.02 918.16,-247.12 831.76,-222.99"/>
<polygon fill="midnightblue" stroke="midnightblue" points="832.65,-219.6 822.08,-220.28 830.77,-226.34 832.65,-219.6"/>
</g>
<!-- Node12&#45;&gt;Node7 -->
<g id="edge14" class="edge">
<title>Node12&#45;&gt;Node7</title>
<path fill="none" stroke="midnightblue" d="M1248.6,-68.64C1244.15,-68.04 1239.73,-67.49 1235.42,-67 979.23,-38 908.16,-86.71 656.42,-31 653.42,-30.34 650.34,-29.46 647.31,-28.48"/>
<polygon fill="midnightblue" stroke="midnightblue" points="648.48,-25.18 637.89,-25.04 646.08,-31.76 648.48,-25.18"/>
</g>
<!-- Node13 -->
<g id="node13" class="node">
<title>Node13</title>
<g id="a_node13"><a xlink:title=" ">
<polygon fill="none" stroke="#bfbfbf" points="665.92,-0.5 665.92,-30.5 786.92,-30.5 786.92,-0.5 665.92,-0.5"/>
<text text-anchor="start" x="673.92" y="-18.5" font-family="Helvetica,sans-Serif" font-size="10.00">seerep_msgs/dataset</text>
<text text-anchor="middle" x="726.42" y="-7.5" font-family="Helvetica,sans-Serif" font-size="10.00">_indexable.h</text>
</a>
</g>
</g>
<!-- Node12&#45;&gt;Node13 -->
<g id="edge12" class="edge">
<title>Node12&#45;&gt;Node13</title>
<path fill="none" stroke="midnightblue" d="M1248.59,-68.74C1244.14,-68.12 1239.72,-67.53 1235.42,-67 1044.35,-43.46 991.92,-58.39 797.04,-30.96"/>
<polygon fill="midnightblue" stroke="midnightblue" points="797.44,-27.48 787.05,-29.53 796.45,-34.41 797.44,-27.48"/>
</g>
<!-- Node12&#45;&gt;Node14 -->
<g id="edge13" class="edge">
<title>Node12&#45;&gt;Node14</title>
<path fill="none" stroke="midnightblue" d="M1398.05,-68.26C1400.87,-67.82 1403.67,-67.4 1406.42,-67 1542.36,-47.17 1577.98,-53.99 1713.42,-31 1719.78,-29.92 1726.45,-28.62 1733,-27.25"/>
<polygon fill="midnightblue" stroke="midnightblue" points="1734.1,-30.6 1743.13,-25.06 1732.62,-23.76 1734.1,-30.6"/>
</g>
<!-- Node15&#45;&gt;Node6 -->
<g id="edge16" class="edge">
<title>Node15&#45;&gt;Node6</title>
<path fill="none" stroke="midnightblue" d="M1776.17,-277.37C1705.24,-276.13 1571.63,-267.16 1469.42,-221 1441.15,-208.23 1414.66,-183.44 1399,-166.93"/>
<polygon fill="midnightblue" stroke="midnightblue" points="1401.19,-164.14 1391.84,-159.15 1396.04,-168.88 1401.19,-164.14"/>
</g>
<!-- Node15&#45;&gt;Node7 -->
<g id="edge17" class="edge">
<title>Node15&#45;&gt;Node7</title>
<path fill="none" stroke="midnightblue" d="M1776.38,-269.33C1703.35,-256.34 1563.46,-225.34 1459.42,-165 1442.01,-154.9 1444.59,-142.65 1426.42,-134 1318.3,-82.56 1269.28,-145.64 1159.42,-98 1139.43,-89.33 1141.66,-75.1 1121.42,-67 928.98,10.04 858.46,-77.32 656.42,-31 653.59,-30.35 650.68,-29.52 647.8,-28.59"/>
<polygon fill="midnightblue" stroke="midnightblue" points="648.88,-25.25 638.28,-25.13 646.49,-31.83 648.88,-25.25"/>
</g>
<!-- Node15&#45;&gt;Node10 -->
<g id="edge56" class="edge">
<title>Node15&#45;&gt;Node10</title>
<path fill="none" stroke="midnightblue" d="M1874.59,-274.62C1932.43,-270.18 2030.12,-257.45 2105.42,-221 2132.96,-207.67 2158.84,-183.03 2174.16,-166.7"/>
<polygon fill="midnightblue" stroke="midnightblue" points="2177.01,-168.77 2181.16,-159.02 2171.84,-164.05 2177.01,-168.77"/>
</g>
<!-- Node15&#45;&gt;Node14 -->
<g id="edge61" class="edge">
<title>Node15&#45;&gt;Node14</title>
<path fill="none" stroke="midnightblue" d="M1805.22,-268.41C1772.3,-253.15 1708.17,-217.88 1682.42,-165 1657.02,-112.84 1721.44,-56.76 1756.91,-30.98"/>
<polygon fill="midnightblue" stroke="midnightblue" points="1759.08,-33.73 1765.23,-25.1 1755.04,-28.01 1759.08,-33.73"/>
</g>
<!-- Node16 -->
<g id="node16" class="node">
<title>Node16</title>
<g id="a_node16"><a xlink:href="core__instance_8h.html" target="_top" xlink:title=" ">
<polygon fill="none" stroke="black" points="1892.92,-201.5 1892.92,-220.5 1985.92,-220.5 1985.92,-201.5 1892.92,-201.5"/>
<text text-anchor="middle" x="1939.42" y="-208.5" font-family="Helvetica,sans-Serif" font-size="10.00">core_instance.h</text>
</a>
</g>
</g>
<!-- Node15&#45;&gt;Node16 -->
<g id="edge18" class="edge">
<title>Node15&#45;&gt;Node16</title>
<path fill="none" stroke="midnightblue" d="M1840.8,-268.23C1859.94,-257.32 1892.86,-238.55 1915.36,-225.72"/>
<polygon fill="midnightblue" stroke="midnightblue" points="1917.34,-228.62 1924.29,-220.63 1913.87,-222.54 1917.34,-228.62"/>
</g>
<!-- Node17 -->
<g id="node17" class="node">
<title>Node17</title>
<g id="a_node17"><a xlink:href="hdf5__core__instance_8h.html" target="_top" xlink:title=" ">
<polygon fill="none" stroke="black" points="1691.42,-134.5 1691.42,-164.5 1819.42,-164.5 1819.42,-134.5 1691.42,-134.5"/>
<text text-anchor="start" x="1699.42" y="-152.5" font-family="Helvetica,sans-Serif" font-size="10.00">seerep_hdf5_core/hdf5</text>
<text text-anchor="middle" x="1755.42" y="-141.5" font-family="Helvetica,sans-Serif" font-size="10.00">_core_instance.h</text>
</a>
</g>
</g>
<!-- Node15&#45;&gt;Node17 -->
<g id="edge58" class="edge">
<title>Node15&#45;&gt;Node17</title>
<path fill="none" stroke="midnightblue" d="M1820.61,-268.31C1809.95,-249.05 1784.06,-202.25 1768.3,-173.78"/>
<polygon fill="midnightblue" stroke="midnightblue" points="1771.29,-171.94 1763.38,-164.89 1765.16,-175.33 1771.29,-171.94"/>
</g>
<!-- Node21 -->
<g id="node21" class="node">
<title>Node21</title>
<g id="a_node21"><a xlink:title=" ">
<polygon fill="none" stroke="#bfbfbf" points="1455.92,-6 1455.92,-25 1572.92,-25 1572.92,-6 1455.92,-6"/>
<text text-anchor="middle" x="1514.42" y="-13" font-family="Helvetica,sans-Serif" font-size="10.00">seerep_msgs/label.h</text>
</a>
</g>
</g>
<!-- Node15&#45;&gt;Node21 -->
<g id="edge57" class="edge">
<title>Node15&#45;&gt;Node21</title>
<path fill="none" stroke="midnightblue" d="M1799.78,-268.46C1774.17,-259.19 1734.4,-242.75 1704.42,-221 1626.32,-164.32 1554.77,-72.09 1526.82,-33.9"/>
<polygon fill="midnightblue" stroke="midnightblue" points="1529.38,-31.47 1520.68,-25.41 1523.71,-35.57 1529.38,-31.47"/>
</g>
<!-- Node15&#45;&gt;Node28 -->
<g id="edge59" class="edge">
<title>Node15&#45;&gt;Node28</title>
<path fill="none" stroke="midnightblue" d="M1874.72,-275.71C1948.44,-272.47 2090.9,-261.07 2204.42,-221 2306.06,-185.13 2322.81,-156.36 2413.42,-98 2447.95,-75.76 2486.74,-47.89 2509.58,-31.18"/>
<polygon fill="midnightblue" stroke="midnightblue" points="2511.79,-33.89 2517.78,-25.15 2507.65,-28.25 2511.79,-33.89"/>
</g>
<!-- Node15&#45;&gt;Node29 -->
<g id="edge60" class="edge">
<title>Node15&#45;&gt;Node29</title>
<path fill="none" stroke="midnightblue" d="M1847.66,-268.46C1857.37,-264.81 1868.92,-260.57 1879.42,-257 1930.53,-239.62 1948.22,-247.18 1995.42,-221 2044.86,-193.58 2170.48,-75.66 2215.8,-32.45"/>
<polygon fill="midnightblue" stroke="midnightblue" points="2218.48,-34.73 2223.29,-25.29 2213.64,-29.67 2218.48,-34.73"/>
</g>
<!-- Node15&#45;&gt;Node30 -->
<g id="edge62" class="edge">
<title>Node15&#45;&gt;Node30</title>
<path fill="none" stroke="midnightblue" d="M1827.94,-268.49C1837.58,-237.22 1875.14,-127.4 1943.42,-67 1964.7,-48.18 1993.94,-35.79 2018.57,-27.99"/>
<polygon fill="midnightblue" stroke="midnightblue" points="2019.88,-31.25 2028.46,-25.02 2017.87,-24.54 2019.88,-31.25"/>
</g>
<!-- Node15&#45;&gt;Node31 -->
<g id="edge63" class="edge">
<title>Node15&#45;&gt;Node31</title>
<path fill="none" stroke="midnightblue" d="M1874.74,-277.03C1962.71,-274.58 2148.52,-257.88 2266.42,-165 2313.97,-127.54 2351.18,-64.64 2367.47,-34.14"/>
<polygon fill="midnightblue" stroke="midnightblue" points="2370.65,-35.61 2372.17,-25.12 2364.44,-32.37 2370.65,-35.61"/>
</g>
<!-- Node16&#45;&gt;Node6 -->
<g id="edge19" class="edge">
<title>Node16&#45;&gt;Node6</title>
<path fill="none" stroke="midnightblue" d="M1892.73,-205.35C1813.48,-197.4 1647.57,-180.56 1507.42,-165 1480.71,-162.03 1450.76,-158.51 1427.1,-155.67"/>
<polygon fill="midnightblue" stroke="midnightblue" points="1427.38,-152.18 1417.04,-154.47 1426.55,-159.13 1427.38,-152.18"/>
</g>
<!-- Node16&#45;&gt;Node7 -->
<g id="edge20" class="edge">
<title>Node16&#45;&gt;Node7</title>
<path fill="none" stroke="midnightblue" d="M1892.8,-202.29C1807.08,-188.19 1618.63,-157.54 1459.42,-134 1343.15,-116.81 1305.2,-144.9 1197.42,-98 1177.44,-89.3 1179.68,-75.04 1159.42,-67 951.11,15.69 875.03,-80.45 656.42,-31 653.42,-30.32 650.35,-29.44 647.31,-28.45"/>
<polygon fill="midnightblue" stroke="midnightblue" points="648.49,-25.15 637.9,-25 646.09,-31.73 648.49,-25.15"/>
</g>
<!-- Node16&#45;&gt;Node10 -->
<g id="edge21" class="edge">
<title>Node16&#45;&gt;Node10</title>
<path fill="none" stroke="midnightblue" d="M1975.1,-201.48C2019.29,-190.92 2094.63,-172.91 2142.94,-161.37"/>
<polygon fill="midnightblue" stroke="midnightblue" points="2143.9,-164.74 2152.81,-159.01 2142.27,-157.93 2143.9,-164.74"/>
</g>
<!-- Node16&#45;&gt;Node14 -->
<g id="edge53" class="edge">
<title>Node16&#45;&gt;Node14</title>
<path fill="none" stroke="midnightblue" d="M1932.3,-201.44C1907.63,-171.79 1825.58,-73.17 1792.46,-33.37"/>
<polygon fill="midnightblue" stroke="midnightblue" points="1794.92,-30.86 1785.83,-25.41 1789.54,-35.33 1794.92,-30.86"/>
</g>
<!-- Node16&#45;&gt;Node17 -->
<g id="edge22" class="edge">
<title>Node16&#45;&gt;Node17</title>
<path fill="none" stroke="midnightblue" d="M1913.06,-201.48C1885.93,-192.7 1842.9,-178.79 1808.65,-167.71"/>
<polygon fill="midnightblue" stroke="midnightblue" points="1809.38,-164.27 1798.79,-164.52 1807.23,-170.93 1809.38,-164.27"/>
</g>
<!-- Node16&#45;&gt;Node28 -->
<g id="edge51" class="edge">
<title>Node16&#45;&gt;Node28</title>
<path fill="none" stroke="midnightblue" d="M1956.67,-201.4C1987.28,-186.35 2053.36,-154.87 2111.42,-134 2243.3,-86.6 2404.07,-46.08 2482.23,-27.44"/>
<polygon fill="midnightblue" stroke="midnightblue" points="2483.32,-30.78 2492.25,-25.07 2481.71,-23.97 2483.32,-30.78"/>
</g>
<!-- Node16&#45;&gt;Node29 -->
<g id="edge52" class="edge">
<title>Node16&#45;&gt;Node29</title>
<path fill="none" stroke="midnightblue" d="M1945.09,-201.29C1961.95,-176.14 2014.5,-102.92 2077.42,-67 2109.91,-48.45 2150.18,-35.59 2181.53,-27.49"/>
<polygon fill="midnightblue" stroke="midnightblue" points="2182.52,-30.85 2191.37,-25.03 2180.82,-24.06 2182.52,-30.85"/>
</g>
<!-- Node16&#45;&gt;Node30 -->
<g id="edge54" class="edge">
<title>Node16&#45;&gt;Node30</title>
<path fill="none" stroke="midnightblue" d="M1938.34,-201.23C1935.84,-177.14 1932.13,-108.98 1963.42,-67 1977.4,-48.25 2000.22,-36.08 2020.83,-28.39"/>
<polygon fill="midnightblue" stroke="midnightblue" points="2022.11,-31.65 2030.41,-25.07 2019.82,-25.04 2022.11,-31.65"/>
</g>
<!-- Node16&#45;&gt;Node31 -->
<g id="edge55" class="edge">
<title>Node16&#45;&gt;Node31</title>
<path fill="none" stroke="midnightblue" d="M1951.3,-201.19C1963.3,-192.23 1982.32,-177.87 1998.42,-165 2051.4,-122.64 2054.13,-96.06 2115.42,-67 2192.69,-30.37 2220.51,-47.44 2304.42,-31 2310.98,-29.72 2317.87,-28.35 2324.68,-26.99"/>
<polygon fill="midnightblue" stroke="midnightblue" points="2325.44,-30.41 2334.56,-25.01 2324.06,-23.54 2325.44,-30.41"/>
</g>
<!-- Node17&#45;&gt;Node7 -->
<g id="edge50" class="edge">
<title>Node17&#45;&gt;Node7</title>
<path fill="none" stroke="midnightblue" d="M1691.09,-144.08C1562.32,-134.95 1281.66,-113.58 1240.42,-98 1218.38,-89.67 1219.59,-74.98 1197.42,-67 970.69,14.62 891.59,-83.58 656.42,-31 653.42,-30.33 650.34,-29.45 647.31,-28.46"/>
<polygon fill="midnightblue" stroke="midnightblue" points="648.49,-25.17 637.89,-25.02 646.09,-31.74 648.49,-25.17"/>
</g>
<!-- Node17&#45;&gt;Node14 -->
<g id="edge46" class="edge">
<title>Node17&#45;&gt;Node14</title>
<path fill="none" stroke="midnightblue" d="M1746.96,-134.37C1738.22,-117.89 1726.97,-89.97 1735.42,-67 1740.39,-53.49 1750.76,-41.14 1760.07,-32.03"/>
<polygon fill="midnightblue" stroke="midnightblue" points="1762.52,-34.53 1767.5,-25.18 1757.77,-29.38 1762.52,-34.53"/>
</g>
<!-- Node18 -->
<g id="node18" class="node">
<title>Node18</title>
<g id="a_node18"><a xlink:title=" ">
<polygon fill="none" stroke="#bfbfbf" points="1853.42,-6 1853.42,-25 1963.42,-25 1963.42,-6 1853.42,-6"/>
<text text-anchor="middle" x="1908.42" y="-13" font-family="Helvetica,sans-Serif" font-size="10.00">highfive/H5File.hpp</text>
</a>
</g>
</g>
<!-- Node17&#45;&gt;Node18 -->
<g id="edge23" class="edge">
<title>Node17&#45;&gt;Node18</title>
<path fill="none" stroke="midnightblue" d="M1762.41,-134.25C1771.63,-116.63 1789.31,-86.57 1811.42,-67 1830.12,-50.46 1855.2,-37.59 1875.17,-28.98"/>
<polygon fill="midnightblue" stroke="midnightblue" points="1876.62,-32.17 1884.52,-25.1 1873.94,-25.7 1876.62,-32.17"/>
</g>
<!-- Node19 -->
<g id="node19" class="node">
<title>Node19</title>
<g id="a_node19"><a xlink:href="hdf5__core__general_8h.html" target="_top" xlink:title=" ">
<polygon fill="none" stroke="black" points="1415.42,-73 1415.42,-92 1531.42,-92 1531.42,-73 1415.42,-73"/>
<text text-anchor="middle" x="1473.42" y="-80" font-family="Helvetica,sans-Serif" font-size="10.00">hdf5_core_general.h</text>
</a>
</g>
</g>
<!-- Node17&#45;&gt;Node19 -->
<g id="edge24" class="edge">
<title>Node17&#45;&gt;Node19</title>
<path fill="none" stroke="midnightblue" d="M1694.58,-134.48C1642.28,-122.42 1567.94,-105.29 1520.19,-94.28"/>
<polygon fill="midnightblue" stroke="midnightblue" points="1520.95,-90.86 1510.42,-92.03 1519.38,-97.69 1520.95,-90.86"/>
</g>
<!-- Node23 -->
<g id="node23" class="node">
<title>Node23</title>
<g id="a_node23"><a xlink:title=" ">
<polygon fill="none" stroke="#bfbfbf" points="1590.92,-6 1590.92,-25 1703.92,-25 1703.92,-6 1590.92,-6"/>
<text text-anchor="middle" x="1647.42" y="-13" font-family="Helvetica,sans-Serif" font-size="10.00">boost/geometry.hpp</text>
</a>
</g>
</g>
<!-- Node17&#45;&gt;Node23 -->
<g id="edge49" class="edge">
<title>Node17&#45;&gt;Node23</title>
<path fill="none" stroke="midnightblue" d="M1743.86,-134.37C1723.72,-109.76 1682.3,-59.12 1660.89,-32.96"/>
<polygon fill="midnightblue" stroke="midnightblue" points="1663.5,-30.62 1654.46,-25.1 1658.08,-35.05 1663.5,-30.62"/>
</g>
<!-- Node17&#45;&gt;Node28 -->
<g id="edge44" class="edge">
<title>Node17&#45;&gt;Node28</title>
<path fill="none" stroke="midnightblue" d="M1819.62,-136.36C1869.18,-126.73 1939.37,-112.51 2000.42,-98 2051.92,-85.76 2063.39,-76.75 2115.42,-67 2262.17,-39.49 2301.65,-52.33 2449.42,-31 2457.86,-29.78 2466.76,-28.33 2475.45,-26.83"/>
<polygon fill="midnightblue" stroke="midnightblue" points="2476.27,-30.24 2485.5,-25.05 2475.04,-23.35 2476.27,-30.24"/>
</g>
<!-- Node17&#45;&gt;Node29 -->
<g id="edge45" class="edge">
<title>Node17&#45;&gt;Node29</title>
<path fill="none" stroke="midnightblue" d="M1785.79,-134.45C1825.75,-116.48 1898.51,-85.46 1963.42,-67 2049.03,-42.65 2073.01,-47.79 2160.42,-31 2166.98,-29.74 2173.88,-28.39 2180.69,-27.03"/>
<polygon fill="midnightblue" stroke="midnightblue" points="2181.45,-30.45 2190.57,-25.06 2180.08,-23.59 2181.45,-30.45"/>
</g>
<!-- Node17&#45;&gt;Node30 -->
<g id="edge47" class="edge">
<title>Node17&#45;&gt;Node30</title>
<path fill="none" stroke="midnightblue" d="M1771.05,-134.22C1795.4,-112.08 1840.52,-71.54 1849.42,-67 1876.67,-53.11 1953.08,-37.11 2007.5,-26.9"/>
<polygon fill="midnightblue" stroke="midnightblue" points="2008.19,-30.33 2017.39,-25.07 2006.92,-23.45 2008.19,-30.33"/>
</g>
<!-- Node17&#45;&gt;Node31 -->
<g id="edge48" class="edge">
<title>Node17&#45;&gt;Node31</title>
<path fill="none" stroke="midnightblue" d="M1805.32,-134.46C1841.02,-124.38 1890.21,-110.45 1933.42,-98 1980.59,-84.41 1991.41,-77.22 2039.42,-67 2155.68,-42.25 2187.21,-50.74 2304.42,-31 2311.6,-29.79 2319.15,-28.4 2326.56,-26.97"/>
<polygon fill="midnightblue" stroke="midnightblue" points="2327.38,-30.38 2336.52,-25.01 2326.03,-23.51 2327.38,-30.38"/>
</g>
<!-- Node33 -->
<g id="node33" class="node">
<title>Node33</title>
<g id="a_node33"><a xlink:title=" ">
<polygon fill="none" stroke="#bfbfbf" points="841.42,-73 841.42,-92 1041.42,-92 1041.42,-73 841.42,-73"/>
<text text-anchor="middle" x="941.42" y="-80" font-family="Helvetica,sans-Serif" font-size="10.00">geometry_msgs/TransformStamped.h</text>
</a>
</g>
</g>
<!-- Node17&#45;&gt;Node33 -->
<g id="edge43" class="edge">
<title>Node17&#45;&gt;Node33</title>
<path fill="none" stroke="midnightblue" d="M1691.21,-143.37C1552.63,-132.31 1224.12,-106.07 1051.59,-92.3"/>
<polygon fill="midnightblue" stroke="midnightblue" points="1051.72,-88.8 1041.47,-91.49 1051.16,-95.77 1051.72,-88.8"/>
</g>
<!-- Node19&#45;&gt;Node7 -->
<g id="edge33" class="edge">
<title>Node19&#45;&gt;Node7</title>
<path fill="none" stroke="midnightblue" d="M1439.18,-72.95C1428.73,-70.65 1417.16,-68.41 1406.42,-67 1075.54,-23.56 982.76,-100.8 656.42,-31 653.42,-30.36 650.33,-29.5 647.3,-28.52"/>
<polygon fill="midnightblue" stroke="midnightblue" points="648.47,-25.22 637.88,-25.09 646.08,-31.8 648.47,-25.22"/>
</g>
<!-- Node19&#45;&gt;Node9 -->
<g id="edge26" class="edge">
<title>Node19&#45;&gt;Node9</title>
<path fill="none" stroke="midnightblue" d="M1439.88,-73C1429.25,-70.64 1417.41,-68.35 1406.42,-67 912.13,-6.08 780.72,-91.92 286.42,-31 278.78,-30.06 270.73,-28.67 262.96,-27.11"/>
<polygon fill="midnightblue" stroke="midnightblue" points="263.47,-23.64 252.96,-25 262.02,-30.49 263.47,-23.64"/>
</g>
<!-- Node19&#45;&gt;Node13 -->
<g id="edge27" class="edge">
<title>Node19&#45;&gt;Node13</title>
<path fill="none" stroke="midnightblue" d="M1438.83,-72.95C1428.47,-70.68 1417.03,-68.45 1406.42,-67 1140.63,-30.62 1067.44,-65.76 797.15,-30.94"/>
<polygon fill="midnightblue" stroke="midnightblue" points="797.41,-27.44 787.04,-29.62 796.5,-34.39 797.41,-27.44"/>
</g>
<!-- Node19&#45;&gt;Node14 -->
<g id="edge39" class="edge">
<title>Node19&#45;&gt;Node14</title>
<path fill="none" stroke="midnightblue" d="M1514.65,-72.98C1562.48,-63.06 1643.72,-46.11 1713.42,-31 1719.07,-29.78 1724.99,-28.48 1730.86,-27.18"/>
<polygon fill="midnightblue" stroke="midnightblue" points="1731.63,-30.59 1740.63,-25.01 1730.11,-23.76 1731.63,-30.59"/>
</g>
<!-- Node19&#45;&gt;Node18 -->
<g id="edge25" class="edge">
<title>Node19&#45;&gt;Node18</title>
<path fill="none" stroke="midnightblue" d="M1531.51,-75.19C1604.75,-66.86 1734.4,-50.91 1844.42,-31 1850.6,-29.88 1857.09,-28.57 1863.46,-27.21"/>
<polygon fill="midnightblue" stroke="midnightblue" points="1864.31,-30.6 1873.32,-25.03 1862.81,-23.77 1864.31,-30.6"/>
</g>
<!-- Node20 -->
<g id="node20" class="node">
<title>Node20</title>
<g id="a_node20"><a xlink:title=" ">
<polygon fill="none" stroke="#bfbfbf" points="1311.42,-0.5 1311.42,-30.5 1437.42,-30.5 1437.42,-0.5 1311.42,-0.5"/>
<text text-anchor="start" x="1319.42" y="-18.5" font-family="Helvetica,sans-Serif" font-size="10.00">seerep_msgs/geodetic</text>
<text text-anchor="middle" x="1374.42" y="-7.5" font-family="Helvetica,sans-Serif" font-size="10.00">_coordinates.h</text>
</a>
</g>
</g>
<!-- Node19&#45;&gt;Node20 -->
<g id="edge28" class="edge">
<title>Node19&#45;&gt;Node20</title>
<path fill="none" stroke="midnightblue" d="M1460.07,-72.73C1445.85,-63.4 1422.89,-48.32 1404.32,-36.13"/>
<polygon fill="midnightblue" stroke="midnightblue" points="1406.16,-33.15 1395.88,-30.59 1402.32,-39 1406.16,-33.15"/>
</g>
<!-- Node19&#45;&gt;Node21 -->
<g id="edge29" class="edge">
<title>Node19&#45;&gt;Node21</title>
<path fill="none" stroke="midnightblue" d="M1478.95,-72.73C1485.22,-62.79 1495.6,-46.34 1503.52,-33.79"/>
<polygon fill="midnightblue" stroke="midnightblue" points="1506.61,-35.45 1508.98,-25.13 1500.68,-31.72 1506.61,-35.45"/>
</g>
<!-- Node22 -->
<g id="node22" class="node">
<title>Node22</title>
<g id="a_node22"><a xlink:title=" ">
<polygon fill="none" stroke="#bfbfbf" points="805.42,-6 805.42,-25 969.42,-25 969.42,-6 805.42,-6"/>
<text text-anchor="middle" x="887.42" y="-13" font-family="Helvetica,sans-Serif" font-size="10.00">seerep_msgs/label_category.h</text>
</a>
</g>
</g>
<!-- Node19&#45;&gt;Node22 -->
<g id="edge30" class="edge">
<title>Node19&#45;&gt;Node22</title>
<path fill="none" stroke="midnightblue" d="M1438.11,-72.96C1427.93,-70.75 1416.78,-68.55 1406.42,-67 1217.63,-38.75 1167.92,-54.03 978.42,-31 968.19,-29.76 957.35,-28.22 946.85,-26.62"/>
<polygon fill="midnightblue" stroke="midnightblue" points="947.34,-23.15 936.92,-25.07 946.26,-30.07 947.34,-23.15"/>
</g>
<!-- Node19&#45;&gt;Node23 -->
<g id="edge31" class="edge">
<title>Node19&#45;&gt;Node23</title>
<path fill="none" stroke="midnightblue" d="M1496.53,-72.87C1526.9,-61.52 1580.43,-41.52 1614.89,-28.65"/>
<polygon fill="midnightblue" stroke="midnightblue" points="1616.35,-31.84 1624.5,-25.06 1613.91,-25.28 1616.35,-31.84"/>
</g>
<!-- Node24 -->
<g id="node24" class="node">
<title>Node24</title>
<g id="a_node24"><a xlink:title=" ">
<polygon fill="none" stroke="#bfbfbf" points="987.42,-6 987.42,-25 1035.42,-25 1035.42,-6 987.42,-6"/>
<text text-anchor="middle" x="1011.42" y="-13" font-family="Helvetica,sans-Serif" font-size="10.00">mutex</text>
</a>
</g>
</g>
<!-- Node19&#45;&gt;Node24 -->
<g id="edge32" class="edge">
<title>Node19&#45;&gt;Node24</title>
<path fill="none" stroke="midnightblue" d="M1437.75,-72.99C1427.66,-70.8 1416.65,-68.61 1406.42,-67 1246.71,-41.86 1200.81,-72.03 1044.42,-31 1042.12,-30.4 1039.78,-29.65 1037.46,-28.83"/>
<polygon fill="midnightblue" stroke="midnightblue" points="1038.77,-25.58 1028.18,-25.08 1036.14,-32.07 1038.77,-25.58"/>
</g>
<!-- Node25 -->
<g id="node25" class="node">
<title>Node25</title>
<g id="a_node25"><a xlink:title=" ">
<polygon fill="none" stroke="#bfbfbf" points="1053.92,-6 1053.92,-25 1122.92,-25 1122.92,-6 1053.92,-6"/>
<text text-anchor="middle" x="1088.42" y="-13" font-family="Helvetica,sans-Serif" font-size="10.00">type_traits</text>
</a>
</g>
</g>
<!-- Node19&#45;&gt;Node25 -->
<g id="edge34" class="edge">
<title>Node19&#45;&gt;Node25</title>
<path fill="none" stroke="midnightblue" d="M1436.67,-72.97C1426.87,-70.86 1416.27,-68.71 1406.42,-67 1285.41,-45.99 1252.16,-58.34 1132.42,-31 1128.76,-30.16 1124.96,-29.15 1121.21,-28.05"/>
<polygon fill="midnightblue" stroke="midnightblue" points="1122.07,-24.65 1111.48,-25 1119.98,-31.33 1122.07,-24.65"/>
</g>
<!-- Node26 -->
<g id="node26" class="node">
<title>Node26</title>
<g id="a_node26"><a xlink:title=" ">
<polygon fill="none" stroke="#bfbfbf" points="295.92,-0.5 295.92,-30.5 440.92,-30.5 440.92,-0.5 295.92,-0.5"/>
<text text-anchor="start" x="303.92" y="-18.5" font-family="Helvetica,sans-Serif" font-size="10.00">boost/log/sources/severity</text>
<text text-anchor="middle" x="368.42" y="-7.5" font-family="Helvetica,sans-Serif" font-size="10.00">_logger.hpp</text>
</a>
</g>
</g>
<!-- Node19&#45;&gt;Node26 -->
<g id="edge35" class="edge">
<title>Node19&#45;&gt;Node26</title>
<path fill="none" stroke="midnightblue" d="M1439.54,-72.96C1428.99,-70.63 1417.29,-68.37 1406.42,-67 987.87,-14.24 874.97,-75.16 451.29,-30.97"/>
<polygon fill="midnightblue" stroke="midnightblue" points="451.54,-27.48 441.23,-29.91 450.8,-34.44 451.54,-27.48"/>
</g>
<!-- Node27 -->
<g id="node27" class="node">
<title>Node27</title>
<g id="a_node27"><a xlink:title=" ">
<polygon fill="none" stroke="#bfbfbf" points="459.42,-6 459.42,-25 573.42,-25 573.42,-6 459.42,-6"/>
<text text-anchor="middle" x="516.42" y="-13" font-family="Helvetica,sans-Serif" font-size="10.00">boost/log/trivial.hpp</text>
</a>
</g>
</g>
<!-- Node19&#45;&gt;Node27 -->
<g id="edge36" class="edge">
<title>Node19&#45;&gt;Node27</title>
<path fill="none" stroke="midnightblue" d="M1439.53,-73C1428.99,-70.67 1417.28,-68.4 1406.42,-67 1042.87,-20.06 945.9,-78.51 582.42,-31 575.06,-30.04 567.31,-28.67 559.81,-27.15"/>
<polygon fill="midnightblue" stroke="midnightblue" points="560.31,-23.67 549.8,-25.01 558.85,-30.52 560.31,-23.67"/>
</g>
<!-- Node19&#45;&gt;Node28 -->
<g id="edge37" class="edge">
<title>Node19&#45;&gt;Node28</title>
<path fill="none" stroke="midnightblue" d="M1531.67,-81.07C1683.35,-79.4 2102.86,-71.21 2449.42,-31 2458.69,-29.92 2468.5,-28.44 2477.97,-26.82"/>
<polygon fill="midnightblue" stroke="midnightblue" points="2478.81,-30.23 2488.05,-25.04 2477.59,-23.34 2478.81,-30.23"/>
</g>
<!-- Node19&#45;&gt;Node29 -->
<g id="edge38" class="edge">
<title>Node19&#45;&gt;Node29</title>
<path fill="none" stroke="midnightblue" d="M1531.58,-79.69C1650.28,-75.44 1928.78,-62.71 2160.42,-31 2168.24,-29.93 2176.48,-28.53 2184.49,-27.02"/>
<polygon fill="midnightblue" stroke="midnightblue" points="2185.32,-30.43 2194.46,-25.07 2183.97,-23.56 2185.32,-30.43"/>
</g>
<!-- Node19&#45;&gt;Node30 -->
<g id="edge40" class="edge">
<title>Node19&#45;&gt;Node30</title>
<path fill="none" stroke="midnightblue" d="M1531.54,-76.61C1624.73,-68.55 1813.28,-51.31 1972.42,-31 1982.72,-29.68 1993.64,-28.14 2004.24,-26.56"/>
<polygon fill="midnightblue" stroke="midnightblue" points="2004.92,-30 2014.28,-25.04 2003.87,-23.08 2004.92,-30"/>
</g>
<!-- Node19&#45;&gt;Node31 -->
<g id="edge41" class="edge">
<title>Node19&#45;&gt;Node31</title>
<path fill="none" stroke="midnightblue" d="M1531.61,-80.72C1667.49,-78.3 2015.99,-68.63 2304.42,-31 2312.51,-29.94 2321.06,-28.51 2329.32,-26.95"/>
<polygon fill="midnightblue" stroke="midnightblue" points="2330.08,-30.37 2339.22,-25.01 2328.73,-23.5 2330.08,-30.37"/>
</g>
<!-- Node32 -->
<g id="node32" class="node">
<title>Node32</title>
<g id="a_node32"><a xlink:title=" ">
<polygon fill="none" stroke="#bfbfbf" points="1141.42,-6 1141.42,-25 1293.42,-25 1293.42,-6 1141.42,-6"/>
<text text-anchor="middle" x="1217.42" y="-13" font-family="Helvetica,sans-Serif" font-size="10.00">impl/hdf5_core_general.hpp</text>
</a>
</g>
</g>
<!-- Node19&#45;&gt;Node32 -->
<g id="edge42" class="edge">
<title>Node19&#45;&gt;Node32</title>
<path fill="none" stroke="midnightblue" d="M1439.69,-72.94C1393.84,-61.29 1311.76,-40.45 1261.21,-27.62"/>
<polygon fill="midnightblue" stroke="midnightblue" points="1261.78,-24.15 1251.23,-25.08 1260.06,-30.94 1261.78,-24.15"/>
</g>
<!-- Node34&#45;&gt;Node6 -->
<g id="edge65" class="edge">
<title>Node34&#45;&gt;Node6</title>
<path fill="none" stroke="midnightblue" d="M822.19,-207.01C919.39,-197.24 1227.78,-166.24 1341.64,-154.8"/>
<polygon fill="midnightblue" stroke="midnightblue" points="1342.13,-158.27 1351.73,-153.79 1341.43,-151.3 1342.13,-158.27"/>
</g>
<!-- Node34&#45;&gt;Node7 -->
<g id="edge67" class="edge">
<title>Node34&#45;&gt;Node7</title>
<path fill="none" stroke="midnightblue" d="M795.23,-201.43C802.57,-177.27 819.61,-107.73 787.42,-67 749.98,-19.63 713.72,-50.04 656.42,-31 654.16,-30.25 651.83,-29.43 649.5,-28.59"/>
<polygon fill="midnightblue" stroke="midnightblue" points="650.62,-25.27 640.02,-25.02 648.15,-31.82 650.62,-25.27"/>
</g>
<!-- Node34&#45;&gt;Node9 -->
<g id="edge68" class="edge">
<title>Node34&#45;&gt;Node9</title>
<path fill="none" stroke="midnightblue" d="M782.13,-201.37C762.95,-185.7 719.92,-152.5 678.42,-134 640.35,-117.03 374.77,-53.26 265.86,-27.45"/>
<polygon fill="midnightblue" stroke="midnightblue" points="266.36,-23.97 255.82,-25.07 264.75,-30.78 266.36,-23.97"/>
</g>
<!-- Node34&#45;&gt;Node11 -->
<g id="edge69" class="edge">
<title>Node34&#45;&gt;Node11</title>
<path fill="none" stroke="midnightblue" d="M762.7,-203.33C757.94,-202.43 753.06,-201.61 748.42,-201 484.44,-166.23 414.31,-200.47 150.42,-165 142.83,-163.98 134.83,-162.59 127.07,-161.08"/>
<polygon fill="midnightblue" stroke="midnightblue" points="127.56,-157.6 117.06,-159.03 126.16,-164.46 127.56,-157.6"/>
</g>
<!-- Node34&#45;&gt;Node26 -->
<g id="edge80" class="edge">
<title>Node34&#45;&gt;Node26</title>
<path fill="none" stroke="midnightblue" d="M790.41,-201.43C783.96,-176.03 761.24,-100.81 711.42,-67 665.25,-35.66 522.53,-39.62 451.25,-30.91"/>
<polygon fill="midnightblue" stroke="midnightblue" points="451.66,-27.44 441.28,-29.53 450.7,-34.37 451.66,-27.44"/>
</g>
<!-- Node34&#45;&gt;Node27 -->
<g id="edge81" class="edge">
<title>Node34&#45;&gt;Node27</title>
<path fill="none" stroke="midnightblue" d="M792.63,-201.39C792.73,-176.5 789.42,-103.93 749.42,-67 693.64,-15.5 656.61,-47.15 582.42,-31 576.77,-29.77 570.84,-28.47 564.96,-27.19"/>
<polygon fill="midnightblue" stroke="midnightblue" points="565.67,-23.76 555.15,-25.04 564.17,-30.6 565.67,-23.76"/>
</g>
<!-- Node34&#45;&gt;Node33 -->
<g id="edge71" class="edge">
<title>Node34&#45;&gt;Node33</title>
<path fill="none" stroke="midnightblue" d="M800.38,-201.05C813.73,-186.28 841.77,-156.23 868.42,-134 884.49,-120.59 904.06,-107.2 918.89,-97.58"/>
<polygon fill="midnightblue" stroke="midnightblue" points="920.9,-100.44 927.43,-92.11 917.12,-94.55 920.9,-100.44"/>
</g>
<!-- Node35 -->
<g id="node35" class="node">
<title>Node35</title>
<g id="a_node35"><a xlink:title=" ">
<polygon fill="none" stroke="#bfbfbf" points="877.42,-140 877.42,-159 921.42,-159 921.42,-140 877.42,-140"/>
<text text-anchor="middle" x="899.42" y="-147" font-family="Helvetica,sans-Serif" font-size="10.00">limits</text>
</a>
</g>
</g>
<!-- Node34&#45;&gt;Node35 -->
<g id="edge66" class="edge">
<title>Node34&#45;&gt;Node35</title>
<path fill="none" stroke="midnightblue" d="M807.75,-201.48C825.39,-191.67 854.58,-175.43 875.28,-163.92"/>
<polygon fill="midnightblue" stroke="midnightblue" points="877.08,-166.93 884.12,-159.01 873.68,-160.81 877.08,-166.93"/>
</g>
<!-- Node36 -->
<g id="node36" class="node">
<title>Node36</title>
<g id="a_node36"><a xlink:title=" ">
<polygon fill="none" stroke="#bfbfbf" points="939.92,-140 939.92,-159 1072.92,-159 1072.92,-140 939.92,-140"/>
<text text-anchor="middle" x="1006.42" y="-147" font-family="Helvetica,sans-Serif" font-size="10.00">seerep_msgs/query_tf.h</text>
</a>
</g>
</g>
<!-- Node34&#45;&gt;Node36 -->
<g id="edge70" class="edge">
<title>Node34&#45;&gt;Node36</title>
<path fill="none" stroke="midnightblue" d="M822.18,-201.73C859.52,-191.34 923.75,-173.48 965.65,-161.84"/>
<polygon fill="midnightblue" stroke="midnightblue" points="966.84,-165.14 975.53,-159.09 964.96,-158.4 966.84,-165.14"/>
</g>
<!-- Node37 -->
<g id="node37" class="node">
<title>Node37</title>
<g id="a_node37"><a xlink:href="hdf5__core__tf_8h.html" target="_top" xlink:title=" ">
<polygon fill="none" stroke="black" points="1091.42,-134.5 1091.42,-164.5 1219.42,-164.5 1219.42,-134.5 1091.42,-134.5"/>
<text text-anchor="start" x="1099.42" y="-152.5" font-family="Helvetica,sans-Serif" font-size="10.00">seerep_hdf5_core/hdf5</text>
<text text-anchor="middle" x="1155.42" y="-141.5" font-family="Helvetica,sans-Serif" font-size="10.00">_core_tf.h</text>
</a>
</g>
</g>
<!-- Node34&#45;&gt;Node37 -->
<g id="edge72" class="edge">
<title>Node34&#45;&gt;Node37</title>
<path fill="none" stroke="midnightblue" d="M822.02,-205.78C874.42,-198.22 986.9,-181.61 1081.42,-165 1081.52,-164.98 1081.62,-164.96 1081.72,-164.95"/>
<polygon fill="midnightblue" stroke="midnightblue" points="1082.05,-168.44 1091.28,-163.23 1080.81,-161.55 1082.05,-168.44"/>
</g>
<!-- Node38 -->
<g id="node38" class="node">
<title>Node38</title>
<g id="a_node38"><a xlink:title=" ">
<polygon fill="none" stroke="#bfbfbf" points="159.42,-140 159.42,-159 225.42,-159 225.42,-140 159.42,-140"/>
<text text-anchor="middle" x="192.42" y="-147" font-family="Helvetica,sans-Serif" font-size="10.00">ros/time.h</text>
</a>
</g>
</g>
<!-- Node34&#45;&gt;Node38 -->
<g id="edge76" class="edge">
<title>Node34&#45;&gt;Node38</title>
<path fill="none" stroke="midnightblue" d="M762.69,-203.36C757.94,-202.46 753.06,-201.63 748.42,-201 521.09,-169.94 458.07,-211.68 233.42,-165 229.99,-164.29 226.46,-163.36 222.97,-162.31"/>
<polygon fill="midnightblue" stroke="midnightblue" points="223.98,-158.96 213.39,-159.14 221.78,-165.6 223.98,-158.96"/>
</g>
<!-- Node39 -->
<g id="node39" class="node">
<title>Node39</title>
<g id="a_node39"><a xlink:title=" ">
<polygon fill="none" stroke="#bfbfbf" points="242.92,-140 242.92,-159 391.92,-159 391.92,-140 242.92,-140"/>
<text text-anchor="middle" x="317.42" y="-147" font-family="Helvetica,sans-Serif" font-size="10.00">tf2/LinearMath/Transform.h</text>
</a>
</g>
</g>
<!-- Node34&#45;&gt;Node39 -->
<g id="edge77" class="edge">
<title>Node34&#45;&gt;Node39</title>
<path fill="none" stroke="midnightblue" d="M762.67,-203.5C757.92,-202.58 753.05,-201.71 748.42,-201 594.73,-177.39 554.44,-186.39 400.42,-165 391.58,-163.77 382.24,-162.3 373.13,-160.78"/>
<polygon fill="midnightblue" stroke="midnightblue" points="373.44,-157.29 363,-159.05 372.26,-164.19 373.44,-157.29"/>
</g>
<!-- Node40 -->
<g id="node40" class="node">
<title>Node40</title>
<g id="a_node40"><a xlink:title=" ">
<polygon fill="none" stroke="#bfbfbf" points="409.92,-140 409.92,-159 506.92,-159 506.92,-140 409.92,-140"/>
<text text-anchor="middle" x="458.42" y="-147" font-family="Helvetica,sans-Serif" font-size="10.00">tf2/buffer_core.h</text>
</a>
</g>
</g>
<!-- Node34&#45;&gt;Node40 -->
<g id="edge78" class="edge">
<title>Node34&#45;&gt;Node40</title>
<path fill="none" stroke="midnightblue" d="M762.64,-203.71C757.89,-202.76 753.03,-201.83 748.42,-201 645.72,-182.54 618.7,-185.68 516.42,-165 511.08,-163.92 505.49,-162.67 499.98,-161.37"/>
<polygon fill="midnightblue" stroke="midnightblue" points="500.76,-157.96 490.21,-159 499.1,-164.76 500.76,-157.96"/>
</g>
<!-- Node41 -->
<g id="node41" class="node">
<title>Node41</title>
<g id="a_node41"><a xlink:title=" ">
<polygon fill="none" stroke="#bfbfbf" points="525.42,-140 525.42,-159 669.42,-159 669.42,-140 525.42,-140"/>
<text text-anchor="middle" x="597.42" y="-147" font-family="Helvetica,sans-Serif" font-size="10.00">tf2/transform_datatypes.h</text>
</a>
</g>
</g>
<!-- Node34&#45;&gt;Node41 -->
<g id="edge79" class="edge">
<title>Node34&#45;&gt;Node41</title>
<path fill="none" stroke="midnightblue" d="M764.48,-201.48C730.45,-191.09 672.84,-173.51 634.96,-161.95"/>
<polygon fill="midnightblue" stroke="midnightblue" points="635.9,-158.58 625.31,-159.01 633.85,-165.28 635.9,-158.58"/>
</g>
<!-- Node37&#45;&gt;Node7 -->
<g id="edge74" class="edge">
<title>Node37&#45;&gt;Node7</title>
<path fill="none" stroke="midnightblue" d="M1138.4,-134.43C1111.31,-112.18 1060.4,-70.94 1050.42,-67 886.84,-2.5 827.54,-71.48 656.42,-31 653.59,-30.33 650.69,-29.49 647.81,-28.55"/>
<polygon fill="midnightblue" stroke="midnightblue" points="648.89,-25.21 638.3,-25.08 646.49,-31.79 648.89,-25.21"/>
</g>
<!-- Node37&#45;&gt;Node19 -->
<g id="edge75" class="edge">
<title>Node37&#45;&gt;Node19</title>
<path fill="none" stroke="midnightblue" d="M1219.44,-135.89C1270.19,-125.82 1342.9,-111.26 1406.42,-98 1412.24,-96.78 1418.34,-95.49 1424.4,-94.2"/>
<polygon fill="midnightblue" stroke="midnightblue" points="1425.43,-97.55 1434.47,-92.03 1423.96,-90.71 1425.43,-97.55"/>
</g>
<!-- Node37&#45;&gt;Node33 -->
<g id="edge73" class="edge">
<title>Node37&#45;&gt;Node33</title>
<path fill="none" stroke="midnightblue" d="M1109.25,-134.48C1070.39,-122.67 1015.5,-106 979.21,-94.98"/>
<polygon fill="midnightblue" stroke="midnightblue" points="980.09,-91.59 969.5,-92.03 978.05,-98.28 980.09,-91.59"/>
</g>
</g>
</svg>
