<?xml version="1.0" encoding="UTF-8" standalone="no"?>
<!DOCTYPE svg PUBLIC "-//W3C//DTD SVG 1.1//EN"
 "http://www.w3.org/Graphics/SVG/1.1/DTD/svg11.dtd">
<!-- Generated by graphviz version 2.43.0 (0)
 -->
<!-- Title: seerep_srv/seerep_core/include/seerep_core/core_tf.h Pages: 1 -->
<svg width="2266pt" height="240pt"
 viewBox="0.00 0.00 2265.50 240.00" xmlns="http://www.w3.org/2000/svg" xmlns:xlink="http://www.w3.org/1999/xlink">
<g id="graph0" class="graph" transform="scale(1 1) rotate(0) translate(4 236)">
<title>seerep_srv/seerep_core/include/seerep_core/core_tf.h</title>
<!-- Node1 -->
<g id="node1" class="node">
<title>Node1</title>
<g id="a_node1"><a xlink:title=" ">
<polygon fill="#bfbfbf" stroke="black" points="1245.5,-201.5 1245.5,-231.5 1407.5,-231.5 1407.5,-201.5 1245.5,-201.5"/>
<text text-anchor="start" x="1253.5" y="-219.5" font-family="Helvetica,sans-Serif" font-size="10.00">seerep_srv/seerep_core</text>
<text text-anchor="middle" x="1326.5" y="-208.5" font-family="Helvetica,sans-Serif" font-size="10.00">/include/seerep_core/core_tf.h</text>
</a>
</g>
</g>
<!-- Node2 -->
<g id="node2" class="node">
<title>Node2</title>
<g id="a_node2"><a xlink:title=" ">
<polygon fill="none" stroke="#bfbfbf" points="706,-140 706,-159 771,-159 771,-140 706,-140"/>
<text text-anchor="middle" x="738.5" y="-147" font-family="Helvetica,sans-Serif" font-size="10.00">functional</text>
</a>
</g>
</g>
<!-- Node1&#45;&gt;Node2 -->
<g id="edge1" class="edge">
<title>Node1&#45;&gt;Node2</title>
<path fill="none" stroke="midnightblue" d="M1245.09,-214.05C1137.58,-210.75 942.89,-200.01 780.5,-165 777,-164.25 773.39,-163.29 769.82,-162.23"/>
<polygon fill="midnightblue" stroke="midnightblue" points="770.61,-158.8 760.02,-159.04 768.44,-165.46 770.61,-158.8"/>
</g>
<!-- Node3 -->
<g id="node3" class="node">
<title>Node3</title>
<g id="a_node3"><a xlink:title=" ">
<polygon fill="none" stroke="#bfbfbf" points="789.5,-140 789.5,-159 833.5,-159 833.5,-140 789.5,-140"/>
<text text-anchor="middle" x="811.5" y="-147" font-family="Helvetica,sans-Serif" font-size="10.00">limits</text>
</a>
</g>
</g>
<!-- Node1&#45;&gt;Node3 -->
<g id="edge2" class="edge">
<title>Node1&#45;&gt;Node3</title>
<path fill="none" stroke="midnightblue" d="M1245.22,-213.78C1148.97,-210.18 984.43,-199.09 847.5,-165 844.83,-164.34 842.1,-163.52 839.4,-162.61"/>
<polygon fill="midnightblue" stroke="midnightblue" points="840.45,-159.26 829.86,-159.04 838,-165.82 840.45,-159.26"/>
</g>
<!-- Node4 -->
<g id="node4" class="node">
<title>Node4</title>
<g id="a_node4"><a xlink:title=" ">
<polygon fill="none" stroke="#bfbfbf" points="1905.5,-11.5 1905.5,-30.5 1961.5,-30.5 1961.5,-11.5 1905.5,-11.5"/>
<text text-anchor="middle" x="1933.5" y="-18.5" font-family="Helvetica,sans-Serif" font-size="10.00">optional</text>
</a>
</g>
</g>
<!-- Node1&#45;&gt;Node4 -->
<g id="edge3" class="edge">
<title>Node1&#45;&gt;Node4</title>
<path fill="none" stroke="midnightblue" d="M1334.19,-201.41C1339.66,-191.32 1347.13,-177.38 1353.5,-165 1373.23,-126.64 1360.7,-102.06 1396.5,-78 1488.95,-15.85 1789.55,-73.18 1896.5,-42 1901.71,-40.48 1907.02,-38.16 1911.92,-35.62"/>
<polygon fill="midnightblue" stroke="midnightblue" points="1913.74,-38.62 1920.73,-30.65 1910.3,-32.52 1913.74,-38.62"/>
</g>
<!-- Node5 -->
<g id="node5" class="node">
<title>Node5</title>
<g id="a_node5"><a xlink:title=" ">
<polygon fill="none" stroke="#bfbfbf" points="0,-11.5 0,-30.5 117,-30.5 117,-11.5 0,-11.5"/>
<text text-anchor="middle" x="58.5" y="-18.5" font-family="Helvetica,sans-Serif" font-size="10.00">seerep_msgs/aabb.h</text>
</a>
</g>
</g>
<!-- Node1&#45;&gt;Node5 -->
<g id="edge4" class="edge">
<title>Node1&#45;&gt;Node5</title>
<path fill="none" stroke="midnightblue" d="M1245.48,-213.16C1160.36,-208.98 1023.31,-197.35 909.5,-165 877.94,-156.03 874.03,-143.09 842.5,-134 534.21,-45.16 440.49,-107.92 126.5,-42 115.73,-39.74 104.19,-36.62 93.73,-33.51"/>
<polygon fill="midnightblue" stroke="midnightblue" points="94.67,-30.14 84.09,-30.57 92.63,-36.84 94.67,-30.14"/>
</g>
<!-- Node6 -->
<g id="node6" class="node">
<title>Node6</title>
<g id="a_node6"><a xlink:title=" ">
<polygon fill="none" stroke="#bfbfbf" points="928,-140 928,-159 1047,-159 1047,-140 928,-140"/>
<text text-anchor="middle" x="987.5" y="-147" font-family="Helvetica,sans-Serif" font-size="10.00">seerep_msgs/query.h</text>
</a>
</g>
</g>
<!-- Node1&#45;&gt;Node6 -->
<g id="edge5" class="edge">
<title>Node1&#45;&gt;Node6</title>
<path fill="none" stroke="midnightblue" d="M1248.13,-201.45C1193.95,-191.6 1120.27,-177.94 1055.5,-165 1049.36,-163.77 1042.92,-162.45 1036.55,-161.12"/>
<polygon fill="midnightblue" stroke="midnightblue" points="1037.17,-157.67 1026.66,-159.03 1035.72,-164.52 1037.17,-157.67"/>
</g>
<!-- Node7 -->
<g id="node7" class="node">
<title>Node7</title>
<g id="a_node7"><a xlink:title=" ">
<polygon fill="none" stroke="#bfbfbf" points="1065,-140 1065,-159 1198,-159 1198,-140 1065,-140"/>
<text text-anchor="middle" x="1131.5" y="-147" font-family="Helvetica,sans-Serif" font-size="10.00">seerep_msgs/query_tf.h</text>
</a>
</g>
</g>
<!-- Node1&#45;&gt;Node7 -->
<g id="edge6" class="edge">
<title>Node1&#45;&gt;Node7</title>
<path fill="none" stroke="midnightblue" d="M1284.19,-201.4C1249.06,-189.69 1199.69,-173.23 1166.7,-162.23"/>
<polygon fill="midnightblue" stroke="midnightblue" points="1167.61,-158.85 1157.02,-159.01 1165.4,-165.49 1167.61,-158.85"/>
</g>
<!-- Node8 -->
<g id="node8" class="node">
<title>Node8</title>
<g id="a_node8"><a xlink:title=" ">
<polygon fill="none" stroke="#bfbfbf" points="890.5,-78.5 890.5,-97.5 1090.5,-97.5 1090.5,-78.5 890.5,-78.5"/>
<text text-anchor="middle" x="990.5" y="-85.5" font-family="Helvetica,sans-Serif" font-size="10.00">geometry_msgs/TransformStamped.h</text>
</a>
</g>
</g>
<!-- Node1&#45;&gt;Node8 -->
<g id="edge7" class="edge">
<title>Node1&#45;&gt;Node8</title>
<path fill="none" stroke="midnightblue" d="M1245.13,-211.12C1132.3,-204.21 939.74,-189.03 918.5,-165 909.38,-154.68 911.82,-146.05 918.5,-134 926.59,-119.41 941.6,-108.92 955.84,-101.76"/>
<polygon fill="midnightblue" stroke="midnightblue" points="957.39,-104.9 965,-97.53 954.45,-98.55 957.39,-104.9"/>
</g>
<!-- Node9 -->
<g id="node9" class="node">
<title>Node9</title>
<g id="a_node9"><a xlink:href="hdf5__core__tf_8h.html" target="_top" xlink:title=" ">
<polygon fill="none" stroke="black" points="1216.5,-134.5 1216.5,-164.5 1344.5,-164.5 1344.5,-134.5 1216.5,-134.5"/>
<text text-anchor="start" x="1224.5" y="-152.5" font-family="Helvetica,sans-Serif" font-size="10.00">seerep_hdf5_core/hdf5</text>
<text text-anchor="middle" x="1280.5" y="-141.5" font-family="Helvetica,sans-Serif" font-size="10.00">_core_tf.h</text>
</a>
</g>
</g>
<!-- Node1&#45;&gt;Node9 -->
<g id="edge8" class="edge">
<title>Node1&#45;&gt;Node9</title>
<path fill="none" stroke="midnightblue" d="M1316.52,-201.4C1310.61,-193.05 1303,-182.29 1296.29,-172.81"/>
<polygon fill="midnightblue" stroke="midnightblue" points="1299.1,-170.72 1290.46,-164.58 1293.38,-174.76 1299.1,-170.72"/>
</g>
<!-- Node18 -->
<g id="node18" class="node">
<title>Node18</title>
<g id="a_node18"><a xlink:title=" ">
<polygon fill="none" stroke="#bfbfbf" points="1980,-6 1980,-36 2125,-36 2125,-6 1980,-6"/>
<text text-anchor="start" x="1988" y="-24" font-family="Helvetica,sans-Serif" font-size="10.00">boost/log/sources/severity</text>
<text text-anchor="middle" x="2052.5" y="-13" font-family="Helvetica,sans-Serif" font-size="10.00">_logger.hpp</text>
</a>
</g>
</g>
<!-- Node1&#45;&gt;Node18 -->
<g id="edge35" class="edge">
<title>Node1&#45;&gt;Node18</title>
<path fill="none" stroke="midnightblue" d="M1340.62,-201.39C1350.26,-191.52 1363.1,-177.85 1373.5,-165 1403.21,-128.29 1393.36,-101.18 1434.5,-78 1538.5,-19.39 1852.52,-60.21 1970.5,-42 1977.12,-40.98 1983.98,-39.68 1990.8,-38.25"/>
<polygon fill="midnightblue" stroke="midnightblue" points="1991.71,-41.63 2000.72,-36.06 1990.2,-34.8 1991.71,-41.63"/>
</g>
<!-- Node19 -->
<g id="node19" class="node">
<title>Node19</title>
<g id="a_node19"><a xlink:title=" ">
<polygon fill="none" stroke="#bfbfbf" points="2143.5,-11.5 2143.5,-30.5 2257.5,-30.5 2257.5,-11.5 2143.5,-11.5"/>
<text text-anchor="middle" x="2200.5" y="-18.5" font-family="Helvetica,sans-Serif" font-size="10.00">boost/log/trivial.hpp</text>
</a>
</g>
</g>
<!-- Node1&#45;&gt;Node19 -->
<g id="edge36" class="edge">
<title>Node1&#45;&gt;Node19</title>
<path fill="none" stroke="midnightblue" d="M1345.41,-201.33C1371.44,-182.62 1420.43,-150.15 1467.5,-134 1750.55,-36.87 1842.18,-106.03 2134.5,-42 2144.85,-39.73 2155.93,-36.64 2166,-33.57"/>
<polygon fill="midnightblue" stroke="midnightblue" points="2167.18,-36.87 2175.67,-30.53 2165.08,-30.19 2167.18,-36.87"/>
</g>
<!-- Node26 -->
<g id="node26" class="node">
<title>Node26</title>
<g id="a_node26"><a xlink:title=" ">
<polygon fill="none" stroke="#bfbfbf" points="1476.5,-140 1476.5,-159 1542.5,-159 1542.5,-140 1476.5,-140"/>
<text text-anchor="middle" x="1509.5" y="-147" font-family="Helvetica,sans-Serif" font-size="10.00">ros/time.h</text>
</a>
</g>
</g>
<!-- Node1&#45;&gt;Node26 -->
<g id="edge31" class="edge">
<title>Node1&#45;&gt;Node26</title>
<path fill="none" stroke="midnightblue" d="M1366.21,-201.4C1399.03,-189.74 1445.1,-173.37 1476.06,-162.38"/>
<polygon fill="midnightblue" stroke="midnightblue" points="1477.3,-165.65 1485.55,-159.01 1474.95,-159.06 1477.3,-165.65"/>
</g>
<!-- Node27 -->
<g id="node27" class="node">
<title>Node27</title>
<g id="a_node27"><a xlink:title=" ">
<polygon fill="none" stroke="#bfbfbf" points="1560,-140 1560,-159 1709,-159 1709,-140 1560,-140"/>
<text text-anchor="middle" x="1634.5" y="-147" font-family="Helvetica,sans-Serif" font-size="10.00">tf2/LinearMath/Transform.h</text>
</a>
</g>
</g>
<!-- Node1&#45;&gt;Node27 -->
<g id="edge32" class="edge">
<title>Node1&#45;&gt;Node27</title>
<path fill="none" stroke="midnightblue" d="M1392.95,-201.48C1450.32,-189.37 1531.95,-172.14 1584.07,-161.14"/>
<polygon fill="midnightblue" stroke="midnightblue" points="1585.03,-164.52 1594.09,-159.03 1583.58,-157.67 1585.03,-164.52"/>
</g>
<!-- Node28 -->
<g id="node28" class="node">
<title>Node28</title>
<g id="a_node28"><a xlink:title=" ">
<polygon fill="none" stroke="#bfbfbf" points="1727,-140 1727,-159 1824,-159 1824,-140 1727,-140"/>
<text text-anchor="middle" x="1775.5" y="-147" font-family="Helvetica,sans-Serif" font-size="10.00">tf2/buffer_core.h</text>
</a>
</g>
</g>
<!-- Node1&#45;&gt;Node28 -->
<g id="edge33" class="edge">
<title>Node1&#45;&gt;Node28</title>
<path fill="none" stroke="midnightblue" d="M1407.66,-207.94C1487.25,-199.85 1611.84,-185.36 1718.5,-165 1723.89,-163.97 1729.53,-162.73 1735.08,-161.42"/>
<polygon fill="midnightblue" stroke="midnightblue" points="1736.01,-164.8 1744.89,-159.01 1734.34,-158 1736.01,-164.8"/>
</g>
<!-- Node29 -->
<g id="node29" class="node">
<title>Node29</title>
<g id="a_node29"><a xlink:title=" ">
<polygon fill="none" stroke="#bfbfbf" points="1842.5,-140 1842.5,-159 1986.5,-159 1986.5,-140 1842.5,-140"/>
<text text-anchor="middle" x="1914.5" y="-147" font-family="Helvetica,sans-Serif" font-size="10.00">tf2/transform_datatypes.h</text>
</a>
</g>
</g>
<!-- Node1&#45;&gt;Node29 -->
<g id="edge34" class="edge">
<title>Node1&#45;&gt;Node29</title>
<path fill="none" stroke="midnightblue" d="M1407.52,-209.39C1507.8,-201.37 1683.68,-185.84 1833.5,-165 1842.24,-163.78 1851.47,-162.31 1860.46,-160.78"/>
<polygon fill="midnightblue" stroke="midnightblue" points="1861.21,-164.2 1870.46,-159.03 1860.01,-157.3 1861.21,-164.2"/>
</g>
<!-- Node9&#45;&gt;Node4 -->
<g id="edge30" class="edge">
<title>Node9&#45;&gt;Node4</title>
<path fill="none" stroke="midnightblue" d="M1291.08,-134.37C1304.61,-117.54 1329.76,-90.18 1358.5,-78 1468.82,-31.24 1781.38,-75.25 1896.5,-42 1901.72,-40.49 1907.02,-38.18 1911.93,-35.64"/>
<polygon fill="midnightblue" stroke="midnightblue" points="1913.75,-38.64 1920.73,-30.67 1910.31,-32.54 1913.75,-38.64"/>
</g>
<!-- Node9&#45;&gt;Node8 -->
<g id="edge28" class="edge">
<title>Node9&#45;&gt;Node8</title>
<path fill="none" stroke="midnightblue" d="M1216.5,-135.37C1164.02,-124.6 1090.7,-109.56 1041.97,-99.56"/>
<polygon fill="midnightblue" stroke="midnightblue" points="1042.46,-96.09 1031.96,-97.51 1041.05,-102.94 1042.46,-96.09"/>
</g>
<!-- Node10 -->
<g id="node10" class="node">
<title>Node10</title>
<g id="a_node10"><a xlink:title=" ">
<polygon fill="none" stroke="#bfbfbf" points="135.5,-11.5 135.5,-30.5 245.5,-30.5 245.5,-11.5 135.5,-11.5"/>
<text text-anchor="middle" x="190.5" y="-18.5" font-family="Helvetica,sans-Serif" font-size="10.00">highfive/H5File.hpp</text>
</a>
</g>
</g>
<!-- Node9&#45;&gt;Node10 -->
<g id="edge9" class="edge">
<title>Node9&#45;&gt;Node10</title>
<path fill="none" stroke="midnightblue" d="M1233.67,-134.45C1204.88,-125.26 1167.49,-112.33 1135.5,-98 1118.8,-90.52 1117.12,-82.97 1099.5,-78 918.61,-26.99 439.65,-74.3 254.5,-42 243.92,-40.15 232.66,-37.04 222.57,-33.81"/>
<polygon fill="midnightblue" stroke="midnightblue" points="223.55,-30.45 212.95,-30.59 221.32,-37.09 223.55,-30.45"/>
</g>
<!-- Node11 -->
<g id="node11" class="node">
<title>Node11</title>
<g id="a_node11"><a xlink:href="hdf5__core__general_8h.html" target="_top" xlink:title=" ">
<polygon fill="none" stroke="black" points="1190.5,-78.5 1190.5,-97.5 1306.5,-97.5 1306.5,-78.5 1190.5,-78.5"/>
<text text-anchor="middle" x="1248.5" y="-85.5" font-family="Helvetica,sans-Serif" font-size="10.00">hdf5_core_general.h</text>
</a>
</g>
</g>
<!-- Node9&#45;&gt;Node11 -->
<g id="edge10" class="edge">
<title>Node9&#45;&gt;Node11</title>
<path fill="none" stroke="midnightblue" d="M1272.92,-134.4C1268.46,-126.11 1262.78,-115.55 1258.02,-106.71"/>
<polygon fill="midnightblue" stroke="midnightblue" points="1260.98,-104.81 1253.16,-97.66 1254.81,-108.12 1260.98,-104.81"/>
</g>
<!-- Node15 -->
<g id="node15" class="node">
<title>Node15</title>
<g id="a_node15"><a xlink:title=" ">
<polygon fill="none" stroke="#bfbfbf" points="264,-11.5 264,-30.5 377,-30.5 377,-11.5 264,-11.5"/>
<text text-anchor="middle" x="320.5" y="-18.5" font-family="Helvetica,sans-Serif" font-size="10.00">boost/geometry.hpp</text>
</a>
</g>
</g>
<!-- Node9&#45;&gt;Node15 -->
<g id="edge29" class="edge">
<title>Node9&#45;&gt;Node15</title>
<path fill="none" stroke="midnightblue" d="M1252.98,-134.37C1214.43,-114.71 1147.7,-81.12 1135.5,-78 812.18,4.65 714.22,-99.52 385.5,-42 374.77,-40.12 363.33,-37 353.09,-33.78"/>
<polygon fill="midnightblue" stroke="midnightblue" points="353.91,-30.36 343.32,-30.56 351.72,-37.01 353.91,-30.36"/>
</g>
<!-- Node11&#45;&gt;Node4 -->
<g id="edge18" class="edge">
<title>Node11&#45;&gt;Node4</title>
<path fill="none" stroke="midnightblue" d="M1306.63,-79.42C1311.32,-78.9 1315.98,-78.42 1320.5,-78 1448.19,-66.04 1773.21,-77.32 1896.5,-42 1901.72,-40.51 1907.03,-38.19 1911.93,-35.66"/>
<polygon fill="midnightblue" stroke="midnightblue" points="1913.75,-38.65 1920.74,-30.69 1910.31,-32.56 1913.75,-38.65"/>
</g>
<!-- Node11&#45;&gt;Node5 -->
<g id="edge12" class="edge">
<title>Node11&#45;&gt;Node5</title>
<path fill="none" stroke="midnightblue" d="M1190.49,-83.18C1162.93,-81.45 1129.53,-79.46 1099.5,-78 883.39,-67.48 340.05,-76.8 126.5,-42 114.97,-40.12 102.64,-36.89 91.69,-33.56"/>
<polygon fill="midnightblue" stroke="midnightblue" points="92.67,-30.2 82.08,-30.51 90.56,-36.87 92.67,-30.2"/>
</g>
<!-- Node11&#45;&gt;Node10 -->
<g id="edge11" class="edge">
<title>Node11&#45;&gt;Node10</title>
<path fill="none" stroke="midnightblue" d="M1190.46,-81.95C1172.82,-80.53 1153.38,-79.08 1135.5,-78 744.33,-54.44 640.61,-109.02 254.5,-42 243.92,-40.16 232.65,-37.05 222.57,-33.83"/>
<polygon fill="midnightblue" stroke="midnightblue" points="223.54,-30.46 212.95,-30.6 221.32,-37.1 223.54,-30.46"/>
</g>
<!-- Node12 -->
<g id="node12" class="node">
<title>Node12</title>
<g id="a_node12"><a xlink:title=" ">
<polygon fill="none" stroke="#bfbfbf" points="1422,-6 1422,-36 1543,-36 1543,-6 1422,-6"/>
<text text-anchor="start" x="1430" y="-24" font-family="Helvetica,sans-Serif" font-size="10.00">seerep_msgs/dataset</text>
<text text-anchor="middle" x="1482.5" y="-13" font-family="Helvetica,sans-Serif" font-size="10.00">_indexable.h</text>
</a>
</g>
</g>
<!-- Node11&#45;&gt;Node12 -->
<g id="edge13" class="edge">
<title>Node11&#45;&gt;Node12</title>
<path fill="none" stroke="midnightblue" d="M1279.97,-78.47C1313,-69.49 1366.44,-54.9 1412.5,-42 1416.23,-40.96 1420.06,-39.88 1423.93,-38.78"/>
<polygon fill="midnightblue" stroke="midnightblue" points="1424.9,-42.15 1433.56,-36.05 1422.99,-35.41 1424.9,-42.15"/>
</g>
<!-- Node13 -->
<g id="node13" class="node">
<title>Node13</title>
<g id="a_node13"><a xlink:title=" ">
<polygon fill="none" stroke="#bfbfbf" points="1561.5,-6 1561.5,-36 1687.5,-36 1687.5,-6 1561.5,-6"/>
<text text-anchor="start" x="1569.5" y="-24" font-family="Helvetica,sans-Serif" font-size="10.00">seerep_msgs/geodetic</text>
<text text-anchor="middle" x="1624.5" y="-13" font-family="Helvetica,sans-Serif" font-size="10.00">_coordinates.h</text>
</a>
</g>
</g>
<!-- Node11&#45;&gt;Node13 -->
<g id="edge14" class="edge">
<title>Node11&#45;&gt;Node13</title>
<path fill="none" stroke="midnightblue" d="M1306.51,-79.29C1381.18,-69.21 1506.77,-51.7 1552.5,-42 1557.25,-40.99 1562.14,-39.85 1567.05,-38.64"/>
<polygon fill="midnightblue" stroke="midnightblue" points="1568.25,-41.95 1577.07,-36.07 1566.51,-35.17 1568.25,-41.95"/>
</g>
<!-- Node14 -->
<g id="node14" class="node">
<title>Node14</title>
<g id="a_node14"><a xlink:title=" ">
<polygon fill="none" stroke="#bfbfbf" points="1705.5,-0.5 1705.5,-41.5 1821.5,-41.5 1821.5,-0.5 1705.5,-0.5"/>
<text text-anchor="start" x="1713.5" y="-29.5" font-family="Helvetica,sans-Serif" font-size="10.00">seerep_msgs/labels</text>
<text text-anchor="start" x="1713.5" y="-18.5" font-family="Helvetica,sans-Serif" font-size="10.00">_with_instance_with</text>
<text text-anchor="middle" x="1763.5" y="-7.5" font-family="Helvetica,sans-Serif" font-size="10.00">_category.h</text>
</a>
</g>
</g>
<!-- Node11&#45;&gt;Node14 -->
<g id="edge15" class="edge">
<title>Node11&#45;&gt;Node14</title>
<path fill="none" stroke="midnightblue" d="M1306.64,-79.59C1311.33,-79.03 1315.99,-78.5 1320.5,-78 1484.1,-59.95 1529.95,-73.6 1695.18,-42.07"/>
<polygon fill="midnightblue" stroke="midnightblue" points="1696.05,-45.47 1705.2,-40.13 1694.72,-38.59 1696.05,-45.47"/>
</g>
<!-- Node11&#45;&gt;Node15 -->
<g id="edge16" class="edge">
<title>Node11&#45;&gt;Node15</title>
<path fill="none" stroke="midnightblue" d="M1190.37,-79.42C1185.34,-78.89 1180.34,-78.41 1175.5,-78 825.27,-48.47 731.79,-102.16 385.5,-42 374.77,-40.14 363.33,-37.02 353.09,-33.79"/>
<polygon fill="midnightblue" stroke="midnightblue" points="353.91,-30.38 343.32,-30.57 351.72,-37.03 353.91,-30.38"/>
</g>
<!-- Node16 -->
<g id="node16" class="node">
<title>Node16</title>
<g id="a_node16"><a xlink:title=" ">
<polygon fill="none" stroke="#bfbfbf" points="1839.5,-11.5 1839.5,-30.5 1887.5,-30.5 1887.5,-11.5 1839.5,-11.5"/>
<text text-anchor="middle" x="1863.5" y="-18.5" font-family="Helvetica,sans-Serif" font-size="10.00">mutex</text>
</a>
</g>
</g>
<!-- Node11&#45;&gt;Node16 -->
<g id="edge17" class="edge">
<title>Node11&#45;&gt;Node16</title>
<path fill="none" stroke="midnightblue" d="M1306.63,-79.46C1311.32,-78.94 1315.99,-78.44 1320.5,-78 1433.58,-66.95 1722.22,-76.41 1830.5,-42 1835,-40.57 1839.53,-38.41 1843.73,-36.03"/>
<polygon fill="midnightblue" stroke="midnightblue" points="1845.64,-38.96 1852.24,-30.67 1841.92,-33.03 1845.64,-38.96"/>
</g>
<!-- Node17 -->
<g id="node17" class="node">
<title>Node17</title>
<g id="a_node17"><a xlink:title=" ">
<polygon fill="none" stroke="#bfbfbf" points="395,-11.5 395,-30.5 464,-30.5 464,-11.5 395,-11.5"/>
<text text-anchor="middle" x="429.5" y="-18.5" font-family="Helvetica,sans-Serif" font-size="10.00">type_traits</text>
</a>
</g>
</g>
<!-- Node11&#45;&gt;Node17 -->
<g id="edge19" class="edge">
<title>Node11&#45;&gt;Node17</title>
<path fill="none" stroke="midnightblue" d="M1190.36,-79.45C1185.34,-78.92 1180.33,-78.42 1175.5,-78 1019.66,-64.42 624.32,-79.68 472.5,-42 466,-40.39 459.28,-37.78 453.15,-34.97"/>
<polygon fill="midnightblue" stroke="midnightblue" points="454.62,-31.79 444.1,-30.51 451.52,-38.07 454.62,-31.79"/>
</g>
<!-- Node11&#45;&gt;Node18 -->
<g id="edge20" class="edge">
<title>Node11&#45;&gt;Node18</title>
<path fill="none" stroke="midnightblue" d="M1306.52,-83.45C1476.57,-73.04 1962.31,-43.24 1970.5,-42 1977.12,-40.99 1983.99,-39.71 1990.8,-38.28"/>
<polygon fill="midnightblue" stroke="midnightblue" points="1991.71,-41.67 2000.72,-36.1 1990.2,-34.83 1991.71,-41.67"/>
</g>
<!-- Node11&#45;&gt;Node19 -->
<g id="edge21" class="edge">
<title>Node11&#45;&gt;Node19</title>
<path fill="none" stroke="midnightblue" d="M1306.56,-84.14C1501.99,-74.52 2124.27,-43.78 2134.5,-42 2145.49,-40.08 2157.23,-36.91 2167.71,-33.65"/>
<polygon fill="midnightblue" stroke="midnightblue" points="2168.88,-36.95 2177.32,-30.54 2166.72,-30.3 2168.88,-36.95"/>
</g>
<!-- Node20 -->
<g id="node20" class="node">
<title>Node20</title>
<g id="a_node20"><a xlink:title=" ">
<polygon fill="none" stroke="#bfbfbf" points="482,-11.5 482,-30.5 625,-30.5 625,-11.5 482,-11.5"/>
<text text-anchor="middle" x="553.5" y="-18.5" font-family="Helvetica,sans-Serif" font-size="10.00">boost/functional/hash.hpp</text>
</a>
</g>
</g>
<!-- Node11&#45;&gt;Node20 -->
<g id="edge22" class="edge">
<title>Node11&#45;&gt;Node20</title>
<path fill="none" stroke="midnightblue" d="M1190.36,-79.53C1185.34,-78.98 1180.33,-78.46 1175.5,-78 935.16,-55.22 872,-79.43 633.5,-42 620,-39.88 605.44,-36.56 592.49,-33.23"/>
<polygon fill="midnightblue" stroke="midnightblue" points="593.06,-29.76 582.5,-30.58 591.27,-36.53 593.06,-29.76"/>
</g>
<!-- Node21 -->
<g id="node21" class="node">
<title>Node21</title>
<g id="a_node21"><a xlink:title=" ">
<polygon fill="none" stroke="#bfbfbf" points="643,-11.5 643,-30.5 768,-30.5 768,-11.5 643,-11.5"/>
<text text-anchor="middle" x="705.5" y="-18.5" font-family="Helvetica,sans-Serif" font-size="10.00">boost/lexical_cast.hpp</text>
</a>
</g>
</g>
<!-- Node11&#45;&gt;Node21 -->
<g id="edge23" class="edge">
<title>Node11&#45;&gt;Node21</title>
<path fill="none" stroke="midnightblue" d="M1190.34,-79.66C1185.33,-79.08 1180.33,-78.51 1175.5,-78 998.45,-59.1 951.6,-74.28 776.5,-42 764.93,-39.87 752.52,-36.69 741.36,-33.49"/>
<polygon fill="midnightblue" stroke="midnightblue" points="742.11,-30.06 731.53,-30.58 740.12,-36.77 742.11,-30.06"/>
</g>
<!-- Node22 -->
<g id="node22" class="node">
<title>Node22</title>
<g id="a_node22"><a xlink:title=" ">
<polygon fill="none" stroke="#bfbfbf" points="786,-11.5 786,-30.5 899,-30.5 899,-11.5 786,-11.5"/>
<text text-anchor="middle" x="842.5" y="-18.5" font-family="Helvetica,sans-Serif" font-size="10.00">boost/uuid/uuid.hpp</text>
</a>
</g>
</g>
<!-- Node11&#45;&gt;Node22 -->
<g id="edge24" class="edge">
<title>Node11&#45;&gt;Node22</title>
<path fill="none" stroke="midnightblue" d="M1190.4,-79.83C1100.54,-68.67 935.38,-47.81 908.5,-42 898.14,-39.76 887.06,-36.68 876.99,-33.61"/>
<polygon fill="midnightblue" stroke="midnightblue" points="877.91,-30.23 867.32,-30.57 875.81,-36.9 877.91,-30.23"/>
</g>
<!-- Node23 -->
<g id="node23" class="node">
<title>Node23</title>
<g id="a_node23"><a xlink:title=" ">
<polygon fill="none" stroke="#bfbfbf" points="917.5,-11.5 917.5,-30.5 1087.5,-30.5 1087.5,-11.5 917.5,-11.5"/>
<text text-anchor="middle" x="1002.5" y="-18.5" font-family="Helvetica,sans-Serif" font-size="10.00">boost/uuid/uuid_generators.hpp</text>
</a>
</g>
</g>
<!-- Node11&#45;&gt;Node23 -->
<g id="edge25" class="edge">
<title>Node11&#45;&gt;Node23</title>
<path fill="none" stroke="midnightblue" d="M1216.09,-78.44C1172.12,-66.82 1093.49,-46.04 1044.88,-33.2"/>
<polygon fill="midnightblue" stroke="midnightblue" points="1045.55,-29.75 1034.98,-30.58 1043.76,-36.52 1045.55,-29.75"/>
</g>
<!-- Node24 -->
<g id="node24" class="node">
<title>Node24</title>
<g id="a_node24"><a xlink:title=" ">
<polygon fill="none" stroke="#bfbfbf" points="1106,-11.5 1106,-30.5 1233,-30.5 1233,-11.5 1106,-11.5"/>
<text text-anchor="middle" x="1169.5" y="-18.5" font-family="Helvetica,sans-Serif" font-size="10.00">boost/uuid/uuid_io.hpp</text>
</a>
</g>
</g>
<!-- Node11&#45;&gt;Node24 -->
<g id="edge26" class="edge">
<title>Node11&#45;&gt;Node24</title>
<path fill="none" stroke="midnightblue" d="M1237.85,-78.23C1225.05,-67.71 1203.38,-49.88 1187.87,-37.12"/>
<polygon fill="midnightblue" stroke="midnightblue" points="1189.93,-34.28 1179.99,-30.63 1185.48,-39.68 1189.93,-34.28"/>
</g>
<!-- Node25 -->
<g id="node25" class="node">
<title>Node25</title>
<g id="a_node25"><a xlink:title=" ">
<polygon fill="none" stroke="#bfbfbf" points="1251.5,-11.5 1251.5,-30.5 1403.5,-30.5 1403.5,-11.5 1251.5,-11.5"/>
<text text-anchor="middle" x="1327.5" y="-18.5" font-family="Helvetica,sans-Serif" font-size="10.00">impl/hdf5_core_general.hpp</text>
</a>
</g>
</g>
<!-- Node11&#45;&gt;Node25 -->
<g id="edge27" class="edge">
<title>Node11&#45;&gt;Node25</title>
<path fill="none" stroke="midnightblue" d="M1259.15,-78.23C1271.95,-67.71 1293.62,-49.88 1309.13,-37.12"/>
<polygon fill="midnightblue" stroke="midnightblue" points="1311.52,-39.68 1317.01,-30.63 1307.07,-34.28 1311.52,-39.68"/>
</g>
</g>
</svg>
