<?xml version="1.0" encoding="UTF-8" standalone="no"?>
<!DOCTYPE svg PUBLIC "-//W3C//DTD SVG 1.1//EN"
 "http://www.w3.org/Graphics/SVG/1.1/DTD/svg11.dtd">
<!-- Generated by graphviz version 2.43.0 (0)
 -->
<!-- Title: seerep&#45;srv/seerep&#45;core&#45;fb/include/seerep&#45;core&#45;fb/core&#45;fb&#45;conversion.h Pages: 1 -->
<svg width="1142pt" height="429pt"
 viewBox="0.00 0.00 1142.00 429.00" xmlns="http://www.w3.org/2000/svg" xmlns:xlink="http://www.w3.org/1999/xlink">
<g id="graph0" class="graph" transform="scale(1 1) rotate(0) translate(4 425)">
<title>seerep&#45;srv/seerep&#45;core&#45;fb/include/seerep&#45;core&#45;fb/core&#45;fb&#45;conversion.h</title>
<!-- Node1 -->
<g id="node1" class="node">
<title>Node1</title>
<g id="a_node1"><a xlink:title=" ">
<polygon fill="#bfbfbf" stroke="black" points="590,-379.5 590,-420.5 724,-420.5 724,-379.5 590,-379.5"/>
<text text-anchor="start" x="598" y="-408.5" font-family="Helvetica,sans-Serif" font-size="10.00">seerep&#45;srv/seerep&#45;core</text>
<text text-anchor="start" x="598" y="-397.5" font-family="Helvetica,sans-Serif" font-size="10.00">&#45;fb/include/seerep&#45;core</text>
<text text-anchor="middle" x="657" y="-386.5" font-family="Helvetica,sans-Serif" font-size="10.00">&#45;fb/core&#45;fb&#45;conversion.h</text>
</a>
</g>
</g>
<!-- Node2 -->
<g id="node2" class="node">
<title>Node2</title>
<g id="a_node2"><a xlink:href="core-fb-general_8h.html" target="_top" xlink:title=" ">
<polygon fill="none" stroke="black" points="546.5,-301.5 546.5,-342.5 675.5,-342.5 675.5,-301.5 546.5,-301.5"/>
<text text-anchor="start" x="554.5" y="-330.5" font-family="Helvetica,sans-Serif" font-size="10.00">seerep&#45;srv/seerep&#45;core</text>
<text text-anchor="start" x="554.5" y="-319.5" font-family="Helvetica,sans-Serif" font-size="10.00">&#45;fb/include/seerep&#45;core</text>
<text text-anchor="middle" x="611" y="-308.5" font-family="Helvetica,sans-Serif" font-size="10.00">&#45;fb/core&#45;fb&#45;general.h</text>
</a>
</g>
</g>
<!-- Node1&#45;&gt;Node2 -->
<g id="edge1" class="edge">
<title>Node1&#45;&gt;Node2</title>
<path fill="none" stroke="midnightblue" d="M639.91,-370.76C634.21,-361.35 628.01,-351.1 622.81,-342.51"/>
<polygon fill="midnightblue" stroke="midnightblue" points="636.98,-372.69 645.15,-379.43 642.97,-369.06 636.98,-372.69"/>
</g>
<!-- Node3 -->
<g id="node3" class="node">
<title>Node3</title>
<g id="a_node3"><a xlink:href="core-fb-image_8h.html" target="_top" xlink:title=" ">
<polygon fill="none" stroke="black" points="259.5,-223.5 259.5,-264.5 388.5,-264.5 388.5,-223.5 259.5,-223.5"/>
<text text-anchor="start" x="267.5" y="-252.5" font-family="Helvetica,sans-Serif" font-size="10.00">seerep&#45;srv/seerep&#45;core</text>
<text text-anchor="start" x="267.5" y="-241.5" font-family="Helvetica,sans-Serif" font-size="10.00">&#45;fb/include/seerep&#45;core</text>
<text text-anchor="middle" x="324" y="-230.5" font-family="Helvetica,sans-Serif" font-size="10.00">&#45;fb/core&#45;fb&#45;image.h</text>
</a>
</g>
</g>
<!-- Node1&#45;&gt;Node3 -->
<g id="edge18" class="edge">
<title>Node1&#45;&gt;Node3</title>
<path fill="none" stroke="midnightblue" d="M598.77,-375.58C575.11,-365.83 547.61,-354.19 523,-343 466.38,-317.26 402,-284.99 362.19,-264.68"/>
<polygon fill="midnightblue" stroke="midnightblue" points="597.73,-378.94 608.31,-379.5 600.39,-372.46 597.73,-378.94"/>
</g>
<!-- Node9 -->
<g id="node9" class="node">
<title>Node9</title>
<g id="a_node9"><a xlink:href="core-fb-point_8h.html" target="_top" xlink:title=" ">
<polygon fill="none" stroke="black" points="471.5,-223.5 471.5,-264.5 600.5,-264.5 600.5,-223.5 471.5,-223.5"/>
<text text-anchor="start" x="479.5" y="-252.5" font-family="Helvetica,sans-Serif" font-size="10.00">seerep&#45;srv/seerep&#45;core</text>
<text text-anchor="start" x="479.5" y="-241.5" font-family="Helvetica,sans-Serif" font-size="10.00">&#45;fb/include/seerep&#45;core</text>
<text text-anchor="middle" x="536" y="-230.5" font-family="Helvetica,sans-Serif" font-size="10.00">&#45;fb/core&#45;fb&#45;point.h</text>
</a>
</g>
</g>
<!-- Node1&#45;&gt;Node9 -->
<g id="edge24" class="edge">
<title>Node1&#45;&gt;Node9</title>
<path fill="none" stroke="midnightblue" d="M580.36,-378.6C563.29,-370.36 547.24,-358.9 537,-343 521.89,-319.54 525.73,-285.92 530.44,-264.78"/>
<polygon fill="midnightblue" stroke="midnightblue" points="579.36,-381.99 589.92,-382.85 582.2,-375.59 579.36,-381.99"/>
</g>
<!-- Node13 -->
<g id="node13" class="node">
<title>Node13</title>
<g id="a_node13"><a xlink:href="core-fb-tf_8h.html" target="_top" xlink:title=" ">
<polygon fill="none" stroke="black" points="630.5,-223.5 630.5,-264.5 759.5,-264.5 759.5,-223.5 630.5,-223.5"/>
<text text-anchor="start" x="638.5" y="-252.5" font-family="Helvetica,sans-Serif" font-size="10.00">seerep&#45;srv/seerep&#45;core</text>
<text text-anchor="start" x="638.5" y="-241.5" font-family="Helvetica,sans-Serif" font-size="10.00">&#45;fb/include/seerep&#45;core</text>
<text text-anchor="middle" x="695" y="-230.5" font-family="Helvetica,sans-Serif" font-size="10.00">&#45;fb/core&#45;fb&#45;tf.h</text>
</a>
</g>
</g>
<!-- Node1&#45;&gt;Node13 -->
<g id="edge25" class="edge">
<title>Node1&#45;&gt;Node13</title>
<path fill="none" stroke="midnightblue" d="M673.91,-370.15C678.2,-361.66 682.33,-352.18 685,-343 692.68,-316.56 694.66,-284.61 695.06,-264.55"/>
<polygon fill="midnightblue" stroke="midnightblue" points="670.68,-368.77 669.09,-379.24 676.87,-372.05 670.68,-368.77"/>
</g>
<!-- Node17 -->
<g id="node17" class="node">
<title>Node17</title>
<g id="a_node17"><a xlink:href="core-fb-instance_8h.html" target="_top" xlink:title=" ">
<polygon fill="none" stroke="black" points="761.5,-301.5 761.5,-342.5 890.5,-342.5 890.5,-301.5 761.5,-301.5"/>
<text text-anchor="start" x="769.5" y="-330.5" font-family="Helvetica,sans-Serif" font-size="10.00">seerep&#45;srv/seerep&#45;core</text>
<text text-anchor="start" x="769.5" y="-319.5" font-family="Helvetica,sans-Serif" font-size="10.00">&#45;fb/include/seerep&#45;core</text>
<text text-anchor="middle" x="826" y="-308.5" font-family="Helvetica,sans-Serif" font-size="10.00">&#45;fb/core&#45;fb&#45;instance.h</text>
</a>
</g>
</g>
<!-- Node1&#45;&gt;Node17 -->
<g id="edge19" class="edge">
<title>Node1&#45;&gt;Node17</title>
<path fill="none" stroke="midnightblue" d="M709.95,-375.19C733.33,-364.67 760.47,-352.47 782.63,-342.51"/>
<polygon fill="midnightblue" stroke="midnightblue" points="708.21,-372.13 700.52,-379.43 711.08,-378.52 708.21,-372.13"/>
</g>
<!-- Node21 -->
<g id="node21" class="node">
<title>Node21</title>
<g id="a_node21"><a xlink:href="core-fb-conversion_8cpp.html" target="_top" xlink:title=" ">
<polygon fill="none" stroke="black" points="909,-307 909,-337 1071,-337 1071,-307 909,-307"/>
<text text-anchor="start" x="917" y="-325" font-family="Helvetica,sans-Serif" font-size="10.00">seerep&#45;srv/seerep&#45;core</text>
<text text-anchor="middle" x="990" y="-314" font-family="Helvetica,sans-Serif" font-size="10.00">&#45;fb/src/core&#45;fb&#45;conversion.cpp</text>
</a>
</g>
</g>
<!-- Node1&#45;&gt;Node21 -->
<g id="edge26" class="edge">
<title>Node1&#45;&gt;Node21</title>
<path fill="none" stroke="midnightblue" d="M734.42,-381.33C793.54,-367.84 873.88,-349.5 928.6,-337.01"/>
<polygon fill="midnightblue" stroke="midnightblue" points="733.36,-377.98 724.39,-383.62 734.92,-384.81 733.36,-377.98"/>
</g>
<!-- Node2&#45;&gt;Node3 -->
<g id="edge2" class="edge">
<title>Node2&#45;&gt;Node3</title>
<path fill="none" stroke="midnightblue" d="M536.35,-301.23C490.51,-289.09 432.38,-273.7 388.53,-262.09"/>
<polygon fill="midnightblue" stroke="midnightblue" points="535.67,-304.67 546.23,-303.85 537.46,-297.91 535.67,-304.67"/>
</g>
<!-- Node2&#45;&gt;Node9 -->
<g id="edge8" class="edge">
<title>Node2&#45;&gt;Node9</title>
<path fill="none" stroke="midnightblue" d="M584.56,-294.2C574.9,-284.42 564.16,-273.54 555.25,-264.51"/>
<polygon fill="midnightblue" stroke="midnightblue" points="582.17,-296.77 591.69,-301.43 587.15,-291.85 582.17,-296.77"/>
</g>
<!-- Node2&#45;&gt;Node13 -->
<g id="edge13" class="edge">
<title>Node2&#45;&gt;Node13</title>
<path fill="none" stroke="midnightblue" d="M640.3,-294.49C651.2,-284.63 663.36,-273.63 673.44,-264.51"/>
<polygon fill="midnightblue" stroke="midnightblue" points="637.7,-292.12 632.63,-301.43 642.4,-297.31 637.7,-292.12"/>
</g>
<!-- Node4 -->
<g id="node4" class="node">
<title>Node4</title>
<g id="a_node4"><a xlink:href="core-fb-image_8cpp.html" target="_top" xlink:title=" ">
<polygon fill="none" stroke="black" points="158,-151 158,-181 298,-181 298,-151 158,-151"/>
<text text-anchor="start" x="166" y="-169" font-family="Helvetica,sans-Serif" font-size="10.00">seerep&#45;srv/seerep&#45;core</text>
<text text-anchor="middle" x="228" y="-158" font-family="Helvetica,sans-Serif" font-size="10.00">&#45;fb/src/core&#45;fb&#45;image.cpp</text>
</a>
</g>
</g>
<!-- Node3&#45;&gt;Node4 -->
<g id="edge3" class="edge">
<title>Node3&#45;&gt;Node4</title>
<path fill="none" stroke="midnightblue" d="M291.15,-216.99C276.02,-205.02 258.66,-191.27 245.97,-181.23"/>
<polygon fill="midnightblue" stroke="midnightblue" points="289.26,-219.97 299.28,-223.43 293.61,-214.48 289.26,-219.97"/>
</g>
<!-- Node5 -->
<g id="node5" class="node">
<title>Node5</title>
<g id="a_node5"><a xlink:href="fb-image-service_8h.html" target="_top" xlink:title=" ">
<polygon fill="none" stroke="black" points="0.5,-145.5 0.5,-186.5 139.5,-186.5 139.5,-145.5 0.5,-145.5"/>
<text text-anchor="start" x="8.5" y="-174.5" font-family="Helvetica,sans-Serif" font-size="10.00">seerep&#45;srv/seerep&#45;server</text>
<text text-anchor="start" x="8.5" y="-163.5" font-family="Helvetica,sans-Serif" font-size="10.00">/include/seerep&#45;server</text>
<text text-anchor="middle" x="70" y="-152.5" font-family="Helvetica,sans-Serif" font-size="10.00">/fb&#45;image&#45;service.h</text>
</a>
</g>
</g>
<!-- Node3&#45;&gt;Node5 -->
<g id="edge4" class="edge">
<title>Node3&#45;&gt;Node5</title>
<path fill="none" stroke="midnightblue" d="M249.27,-220.64C213.19,-209.84 170.3,-197.01 135.52,-186.6"/>
<polygon fill="midnightblue" stroke="midnightblue" points="248.66,-224.11 259.25,-223.63 250.67,-217.41 248.66,-224.11"/>
</g>
<!-- Node6 -->
<g id="node6" class="node">
<title>Node6</title>
<g id="a_node6"><a xlink:href="server_8h.html" target="_top" xlink:title=" ">
<polygon fill="none" stroke="black" points="545.5,-67.5 545.5,-108.5 684.5,-108.5 684.5,-67.5 545.5,-67.5"/>
<text text-anchor="start" x="553.5" y="-96.5" font-family="Helvetica,sans-Serif" font-size="10.00">seerep&#45;srv/seerep&#45;server</text>
<text text-anchor="start" x="553.5" y="-85.5" font-family="Helvetica,sans-Serif" font-size="10.00">/include/seerep&#45;server</text>
<text text-anchor="middle" x="615" y="-74.5" font-family="Helvetica,sans-Serif" font-size="10.00">/server.h</text>
</a>
</g>
</g>
<!-- Node5&#45;&gt;Node6 -->
<g id="edge5" class="edge">
<title>Node5&#45;&gt;Node6</title>
<path fill="none" stroke="midnightblue" d="M149.9,-144.97C289.38,-119.95 327.43,-125.85 464,-109 490.64,-105.71 519.89,-101.89 545.5,-98.47"/>
<polygon fill="midnightblue" stroke="midnightblue" points="148.89,-141.59 139.68,-146.82 150.14,-148.48 148.89,-141.59"/>
</g>
<!-- Node8 -->
<g id="node8" class="node">
<title>Node8</title>
<g id="a_node8"><a xlink:href="fb-image-service_8cpp.html" target="_top" xlink:title=" ">
<polygon fill="none" stroke="black" points="0,-73 0,-103 140,-103 140,-73 0,-73"/>
<text text-anchor="start" x="8" y="-91" font-family="Helvetica,sans-Serif" font-size="10.00">seerep&#45;srv/seerep&#45;server</text>
<text text-anchor="middle" x="70" y="-80" font-family="Helvetica,sans-Serif" font-size="10.00">/src/fb&#45;image&#45;service.cpp</text>
</a>
</g>
</g>
<!-- Node5&#45;&gt;Node8 -->
<g id="edge7" class="edge">
<title>Node5&#45;&gt;Node8</title>
<path fill="none" stroke="midnightblue" d="M70,-135.28C70,-124.25 70,-112.25 70,-103.23"/>
<polygon fill="midnightblue" stroke="midnightblue" points="66.5,-135.43 70,-145.43 73.5,-135.43 66.5,-135.43"/>
</g>
<!-- Node7 -->
<g id="node7" class="node">
<title>Node7</title>
<g id="a_node7"><a xlink:href="server_8cpp.html" target="_top" xlink:title=" ">
<polygon fill="none" stroke="black" points="545.5,-0.5 545.5,-30.5 684.5,-30.5 684.5,-0.5 545.5,-0.5"/>
<text text-anchor="start" x="553.5" y="-18.5" font-family="Helvetica,sans-Serif" font-size="10.00">seerep&#45;srv/seerep&#45;server</text>
<text text-anchor="middle" x="615" y="-7.5" font-family="Helvetica,sans-Serif" font-size="10.00">/src/server.cpp</text>
</a>
</g>
</g>
<!-- Node6&#45;&gt;Node7 -->
<g id="edge6" class="edge">
<title>Node6&#45;&gt;Node7</title>
<path fill="none" stroke="midnightblue" d="M615,-57.08C615,-48.01 615,-38.45 615,-30.89"/>
<polygon fill="midnightblue" stroke="midnightblue" points="611.5,-57.36 615,-67.36 618.5,-57.36 611.5,-57.36"/>
</g>
<!-- Node10 -->
<g id="node10" class="node">
<title>Node10</title>
<g id="a_node10"><a xlink:href="core-fb-point_8cpp.html" target="_top" xlink:title=" ">
<polygon fill="none" stroke="black" points="474,-151 474,-181 608,-181 608,-151 474,-151"/>
<text text-anchor="start" x="482" y="-169" font-family="Helvetica,sans-Serif" font-size="10.00">seerep&#45;srv/seerep&#45;core</text>
<text text-anchor="middle" x="541" y="-158" font-family="Helvetica,sans-Serif" font-size="10.00">&#45;fb/src/core&#45;fb&#45;point.cpp</text>
</a>
</g>
</g>
<!-- Node9&#45;&gt;Node10 -->
<g id="edge9" class="edge">
<title>Node9&#45;&gt;Node10</title>
<path fill="none" stroke="midnightblue" d="M537.96,-213.28C538.68,-202.25 539.47,-190.25 540.06,-181.23"/>
<polygon fill="midnightblue" stroke="midnightblue" points="534.45,-213.22 537.29,-223.43 541.44,-213.68 534.45,-213.22"/>
</g>
<!-- Node11 -->
<g id="node11" class="node">
<title>Node11</title>
<g id="a_node11"><a xlink:href="fb-point-service_8h.html" target="_top" xlink:title=" ">
<polygon fill="none" stroke="black" points="316.5,-145.5 316.5,-186.5 455.5,-186.5 455.5,-145.5 316.5,-145.5"/>
<text text-anchor="start" x="324.5" y="-174.5" font-family="Helvetica,sans-Serif" font-size="10.00">seerep&#45;srv/seerep&#45;server</text>
<text text-anchor="start" x="324.5" y="-163.5" font-family="Helvetica,sans-Serif" font-size="10.00">/include/seerep&#45;server</text>
<text text-anchor="middle" x="386" y="-152.5" font-family="Helvetica,sans-Serif" font-size="10.00">/fb&#45;point&#45;service.h</text>
</a>
</g>
</g>
<!-- Node9&#45;&gt;Node11 -->
<g id="edge10" class="edge">
<title>Node9&#45;&gt;Node11</title>
<path fill="none" stroke="midnightblue" d="M488.45,-218.91C467.83,-208.46 443.99,-196.38 424.5,-186.51"/>
<polygon fill="midnightblue" stroke="midnightblue" points="486.87,-222.03 497.37,-223.43 490.03,-215.79 486.87,-222.03"/>
</g>
<!-- Node11&#45;&gt;Node6 -->
<g id="edge11" class="edge">
<title>Node11&#45;&gt;Node6</title>
<path fill="none" stroke="midnightblue" d="M454.8,-142.17C487.13,-131.44 525.27,-118.78 556.23,-108.51"/>
<polygon fill="midnightblue" stroke="midnightblue" points="453.36,-138.96 444.97,-145.43 455.57,-145.6 453.36,-138.96"/>
</g>
<!-- Node12 -->
<g id="node12" class="node">
<title>Node12</title>
<g id="a_node12"><a xlink:href="fb-point-service_8cpp.html" target="_top" xlink:title=" ">
<polygon fill="none" stroke="black" points="316.5,-73 316.5,-103 455.5,-103 455.5,-73 316.5,-73"/>
<text text-anchor="start" x="324.5" y="-91" font-family="Helvetica,sans-Serif" font-size="10.00">seerep&#45;srv/seerep&#45;server</text>
<text text-anchor="middle" x="386" y="-80" font-family="Helvetica,sans-Serif" font-size="10.00">/src/fb&#45;point&#45;service.cpp</text>
</a>
</g>
</g>
<!-- Node11&#45;&gt;Node12 -->
<g id="edge12" class="edge">
<title>Node11&#45;&gt;Node12</title>
<path fill="none" stroke="midnightblue" d="M386,-135.28C386,-124.25 386,-112.25 386,-103.23"/>
<polygon fill="midnightblue" stroke="midnightblue" points="382.5,-135.43 386,-145.43 389.5,-135.43 382.5,-135.43"/>
</g>
<!-- Node14 -->
<g id="node14" class="node">
<title>Node14</title>
<g id="a_node14"><a xlink:href="core-fb-tf_8cpp.html" target="_top" xlink:title=" ">
<polygon fill="none" stroke="black" points="626.5,-151 626.5,-181 755.5,-181 755.5,-151 626.5,-151"/>
<text text-anchor="start" x="634.5" y="-169" font-family="Helvetica,sans-Serif" font-size="10.00">seerep&#45;srv/seerep&#45;core</text>
<text text-anchor="middle" x="691" y="-158" font-family="Helvetica,sans-Serif" font-size="10.00">&#45;fb/src/core&#45;fb&#45;tf.cpp</text>
</a>
</g>
</g>
<!-- Node13&#45;&gt;Node14 -->
<g id="edge14" class="edge">
<title>Node13&#45;&gt;Node14</title>
<path fill="none" stroke="midnightblue" d="M693.44,-213.28C692.86,-202.25 692.22,-190.25 691.75,-181.23"/>
<polygon fill="midnightblue" stroke="midnightblue" points="689.95,-213.63 693.97,-223.43 696.94,-213.26 689.95,-213.63"/>
</g>
<!-- Node15 -->
<g id="node15" class="node">
<title>Node15</title>
<g id="a_node15"><a xlink:href="fb-tf-service_8h.html" target="_top" xlink:title=" ">
<polygon fill="none" stroke="black" points="773.5,-145.5 773.5,-186.5 912.5,-186.5 912.5,-145.5 773.5,-145.5"/>
<text text-anchor="start" x="781.5" y="-174.5" font-family="Helvetica,sans-Serif" font-size="10.00">seerep&#45;srv/seerep&#45;server</text>
<text text-anchor="start" x="781.5" y="-163.5" font-family="Helvetica,sans-Serif" font-size="10.00">/include/seerep&#45;server</text>
<text text-anchor="middle" x="843" y="-152.5" font-family="Helvetica,sans-Serif" font-size="10.00">/fb&#45;tf&#45;service.h</text>
</a>
</g>
</g>
<!-- Node13&#45;&gt;Node15 -->
<g id="edge15" class="edge">
<title>Node13&#45;&gt;Node15</title>
<path fill="none" stroke="midnightblue" d="M742.19,-218.77C762.48,-208.35 785.87,-196.34 805.02,-186.51"/>
<polygon fill="midnightblue" stroke="midnightblue" points="740.41,-215.75 733.11,-223.43 743.61,-221.97 740.41,-215.75"/>
</g>
<!-- Node15&#45;&gt;Node6 -->
<g id="edge16" class="edge">
<title>Node15&#45;&gt;Node6</title>
<path fill="none" stroke="midnightblue" d="M774.5,-142.17C742.31,-131.44 704.34,-118.78 673.52,-108.51"/>
<polygon fill="midnightblue" stroke="midnightblue" points="773.69,-145.59 784.28,-145.43 775.9,-138.95 773.69,-145.59"/>
</g>
<!-- Node16 -->
<g id="node16" class="node">
<title>Node16</title>
<g id="a_node16"><a xlink:href="fb-tf-service_8cpp.html" target="_top" xlink:title=" ">
<polygon fill="none" stroke="black" points="773.5,-73 773.5,-103 912.5,-103 912.5,-73 773.5,-73"/>
<text text-anchor="start" x="781.5" y="-91" font-family="Helvetica,sans-Serif" font-size="10.00">seerep&#45;srv/seerep&#45;server</text>
<text text-anchor="middle" x="843" y="-80" font-family="Helvetica,sans-Serif" font-size="10.00">/src/fb&#45;tf&#45;service.cpp</text>
</a>
</g>
</g>
<!-- Node15&#45;&gt;Node16 -->
<g id="edge17" class="edge">
<title>Node15&#45;&gt;Node16</title>
<path fill="none" stroke="midnightblue" d="M843,-135.28C843,-124.25 843,-112.25 843,-103.23"/>
<polygon fill="midnightblue" stroke="midnightblue" points="839.5,-135.43 843,-145.43 846.5,-135.43 839.5,-135.43"/>
</g>
<!-- Node18 -->
<g id="node18" class="node">
<title>Node18</title>
<g id="a_node18"><a xlink:href="core-fb-instance_8cpp.html" target="_top" xlink:title=" ">
<polygon fill="none" stroke="black" points="984,-229 984,-259 1134,-259 1134,-229 984,-229"/>
<text text-anchor="start" x="992" y="-247" font-family="Helvetica,sans-Serif" font-size="10.00">seerep&#45;srv/seerep&#45;core</text>
<text text-anchor="middle" x="1059" y="-236" font-family="Helvetica,sans-Serif" font-size="10.00">&#45;fb/src/core&#45;fb&#45;instance.cpp</text>
</a>
</g>
</g>
<!-- Node17&#45;&gt;Node18 -->
<g id="edge20" class="edge">
<title>Node17&#45;&gt;Node18</title>
<path fill="none" stroke="midnightblue" d="M895.72,-298.26C934.72,-285.54 982.1,-270.08 1015.75,-259.11"/>
<polygon fill="midnightblue" stroke="midnightblue" points="894.42,-295 886,-301.43 896.6,-301.65 894.42,-295"/>
</g>
<!-- Node19 -->
<g id="node19" class="node">
<title>Node19</title>
<g id="a_node19"><a xlink:href="fb-instance-service_8h.html" target="_top" xlink:title=" ">
<polygon fill="none" stroke="black" points="826.5,-223.5 826.5,-264.5 965.5,-264.5 965.5,-223.5 826.5,-223.5"/>
<text text-anchor="start" x="834.5" y="-252.5" font-family="Helvetica,sans-Serif" font-size="10.00">seerep&#45;srv/seerep&#45;server</text>
<text text-anchor="start" x="834.5" y="-241.5" font-family="Helvetica,sans-Serif" font-size="10.00">/include/seerep&#45;server</text>
<text text-anchor="middle" x="896" y="-230.5" font-family="Helvetica,sans-Serif" font-size="10.00">/fb&#45;instance&#45;service.h</text>
</a>
</g>
</g>
<!-- Node17&#45;&gt;Node19 -->
<g id="edge21" class="edge">
<title>Node17&#45;&gt;Node19</title>
<path fill="none" stroke="midnightblue" d="M850.95,-293.92C859.89,-284.2 869.8,-273.45 878.03,-264.51"/>
<polygon fill="midnightblue" stroke="midnightblue" points="848.23,-291.7 844.03,-301.43 853.38,-296.44 848.23,-291.7"/>
</g>
<!-- Node19&#45;&gt;Node6 -->
<g id="edge22" class="edge">
<title>Node19&#45;&gt;Node6</title>
<path fill="none" stroke="midnightblue" d="M915.58,-214.87C927.8,-193.54 938.38,-164.63 922,-145 914.39,-135.87 772.93,-112.94 684.72,-99.42"/>
<polygon fill="midnightblue" stroke="midnightblue" points="912.54,-213.14 910.32,-223.5 918.52,-216.78 912.54,-213.14"/>
</g>
<!-- Node20 -->
<g id="node20" class="node">
<title>Node20</title>
<g id="a_node20"><a xlink:href="fb-instance-service_8cpp.html" target="_top" xlink:title=" ">
<polygon fill="none" stroke="black" points="969.5,-151 969.5,-181 1120.5,-181 1120.5,-151 969.5,-151"/>
<text text-anchor="start" x="977.5" y="-169" font-family="Helvetica,sans-Serif" font-size="10.00">seerep&#45;srv/seerep&#45;server</text>
<text text-anchor="middle" x="1045" y="-158" font-family="Helvetica,sans-Serif" font-size="10.00">/src/fb&#45;instance&#45;service.cpp</text>
</a>
</g>
</g>
<!-- Node19&#45;&gt;Node20 -->
<g id="edge23" class="edge">
<title>Node19&#45;&gt;Node20</title>
<path fill="none" stroke="midnightblue" d="M943.43,-218.81C967.71,-206.43 996.42,-191.78 1017.11,-181.23"/>
<polygon fill="midnightblue" stroke="midnightblue" points="941.69,-215.77 934.37,-223.43 944.87,-222 941.69,-215.77"/>
</g>
</g>
</svg>
