<?xml version="1.0" encoding="UTF-8" standalone="no"?>
<!DOCTYPE svg PUBLIC "-//W3C//DTD SVG 1.1//EN"
 "http://www.w3.org/Graphics/SVG/1.1/DTD/svg11.dtd">
<!-- Generated by graphviz version 2.43.0 (0)
 -->
<!-- Title: seerep_srv/seerep_core_fb/include/seerep_core_fb/core_fb_conversion.h Pages: 1 -->
<svg width="2120pt" height="429pt"
 viewBox="0.00 0.00 2120.00 429.00" xmlns="http://www.w3.org/2000/svg" xmlns:xlink="http://www.w3.org/1999/xlink">
<g id="graph0" class="graph" transform="scale(1 1) rotate(0) translate(4 425)">
<title>seerep_srv/seerep_core_fb/include/seerep_core_fb/core_fb_conversion.h</title>
<!-- Node1 -->
<g id="node1" class="node">
<title>Node1</title>
<g id="a_node1"><a xlink:title=" ">
<polygon fill="#bfbfbf" stroke="black" points="912.5,-379.5 912.5,-420.5 1050.5,-420.5 1050.5,-379.5 912.5,-379.5"/>
<text text-anchor="start" x="920.5" y="-408.5" font-family="Helvetica,sans-Serif" font-size="10.00">seerep_srv/seerep_core</text>
<text text-anchor="start" x="920.5" y="-397.5" font-family="Helvetica,sans-Serif" font-size="10.00">_fb/include/seerep_core</text>
<text text-anchor="middle" x="981.5" y="-386.5" font-family="Helvetica,sans-Serif" font-size="10.00">_fb/core_fb_conversion.h</text>
</a>
</g>
</g>
<!-- Node2 -->
<g id="node2" class="node">
<title>Node2</title>
<g id="a_node2"><a xlink:href="rosbag__dumper_8h.html" target="_top" xlink:title=" ">
<polygon fill="none" stroke="black" points="263.5,-301.5 263.5,-342.5 423.5,-342.5 423.5,-301.5 263.5,-301.5"/>
<text text-anchor="start" x="271.5" y="-330.5" font-family="Helvetica,sans-Serif" font-size="10.00">seerep_ros/seerep_ros</text>
<text text-anchor="start" x="271.5" y="-319.5" font-family="Helvetica,sans-Serif" font-size="10.00">_comm/include/seerep</text>
<text text-anchor="middle" x="343.5" y="-308.5" font-family="Helvetica,sans-Serif" font-size="10.00">_ros_comm/rosbag_dumper.h</text>
</a>
</g>
</g>
<!-- Node1&#45;&gt;Node2 -->
<g id="edge1" class="edge">
<title>Node1&#45;&gt;Node2</title>
<path fill="none" stroke="midnightblue" d="M902.05,-393.35C796.13,-385.24 603.01,-368.41 439.5,-343 434.29,-342.19 428.93,-341.28 423.53,-340.31"/>
<polygon fill="midnightblue" stroke="midnightblue" points="902.1,-396.87 912.33,-394.13 902.63,-389.89 902.1,-396.87"/>
</g>
<!-- Node4 -->
<g id="node4" class="node">
<title>Node4</title>
<g id="a_node4"><a xlink:href="core__fb__camera__intrinsics_8h.html" target="_top" xlink:title=" ">
<polygon fill="none" stroke="black" points="482,-223.5 482,-264.5 653,-264.5 653,-223.5 482,-223.5"/>
<text text-anchor="start" x="490" y="-252.5" font-family="Helvetica,sans-Serif" font-size="10.00">seerep_srv/seerep_core</text>
<text text-anchor="start" x="490" y="-241.5" font-family="Helvetica,sans-Serif" font-size="10.00">_fb/include/seerep_core</text>
<text text-anchor="middle" x="567.5" y="-230.5" font-family="Helvetica,sans-Serif" font-size="10.00">_fb/core_fb_camera_intrinsics.h</text>
</a>
</g>
</g>
<!-- Node1&#45;&gt;Node4 -->
<g id="edge3" class="edge">
<title>Node1&#45;&gt;Node4</title>
<path fill="none" stroke="midnightblue" d="M902.48,-382.14C861.85,-372.49 811.88,-359.1 768.5,-343 708.08,-320.58 641.5,-286.03 602.16,-264.51"/>
<polygon fill="midnightblue" stroke="midnightblue" points="901.8,-385.57 912.33,-384.45 903.39,-378.76 901.8,-385.57"/>
</g>
<!-- Node6 -->
<g id="node6" class="node">
<title>Node6</title>
<g id="a_node6"><a xlink:href="fb__cameraintrinsics__service_8h.html" target="_top" xlink:title=" ">
<polygon fill="none" stroke="black" points="0,-145.5 0,-186.5 165,-186.5 165,-145.5 0,-145.5"/>
<text text-anchor="start" x="8" y="-174.5" font-family="Helvetica,sans-Serif" font-size="10.00">seerep_srv/seerep_server</text>
<text text-anchor="start" x="8" y="-163.5" font-family="Helvetica,sans-Serif" font-size="10.00">/include/seerep_server</text>
<text text-anchor="middle" x="82.5" y="-152.5" font-family="Helvetica,sans-Serif" font-size="10.00">/fb_cameraintrinsics_service.h</text>
</a>
</g>
</g>
<!-- Node1&#45;&gt;Node6 -->
<g id="edge42" class="edge">
<title>Node1&#45;&gt;Node6</title>
<path fill="none" stroke="midnightblue" d="M902.19,-389.36C838.3,-380.51 746.58,-365.35 668.5,-343 578.76,-317.31 550.46,-317.82 473.5,-265 452.5,-250.59 457.09,-234.76 434.5,-223 331.03,-169.13 289.36,-207.41 174.5,-187 171.44,-186.46 168.33,-185.88 165.19,-185.29"/>
<polygon fill="midnightblue" stroke="midnightblue" points="901.81,-392.84 912.2,-390.72 902.76,-385.9 901.81,-392.84"/>
</g>
<!-- Node10 -->
<g id="node10" class="node">
<title>Node10</title>
<g id="a_node10"><a xlink:href="core__fb__general_8h.html" target="_top" xlink:title=" ">
<polygon fill="none" stroke="black" points="821.5,-301.5 821.5,-342.5 953.5,-342.5 953.5,-301.5 821.5,-301.5"/>
<text text-anchor="start" x="829.5" y="-330.5" font-family="Helvetica,sans-Serif" font-size="10.00">seerep_srv/seerep_core</text>
<text text-anchor="start" x="829.5" y="-319.5" font-family="Helvetica,sans-Serif" font-size="10.00">_fb/include/seerep_core</text>
<text text-anchor="middle" x="887.5" y="-308.5" font-family="Helvetica,sans-Serif" font-size="10.00">_fb/core_fb_general.h</text>
</a>
</g>
</g>
<!-- Node1&#45;&gt;Node10 -->
<g id="edge9" class="edge">
<title>Node1&#45;&gt;Node10</title>
<path fill="none" stroke="midnightblue" d="M949.42,-373.06C937.04,-363.06 923.13,-351.8 911.63,-342.51"/>
<polygon fill="midnightblue" stroke="midnightblue" points="947.32,-375.86 957.29,-379.43 951.72,-370.42 947.32,-375.86"/>
</g>
<!-- Node11 -->
<g id="node11" class="node">
<title>Node11</title>
<g id="a_node11"><a xlink:href="core__fb__image_8h.html" target="_top" xlink:title=" ">
<polygon fill="none" stroke="black" points="671.5,-223.5 671.5,-264.5 803.5,-264.5 803.5,-223.5 671.5,-223.5"/>
<text text-anchor="start" x="679.5" y="-252.5" font-family="Helvetica,sans-Serif" font-size="10.00">seerep_srv/seerep_core</text>
<text text-anchor="start" x="679.5" y="-241.5" font-family="Helvetica,sans-Serif" font-size="10.00">_fb/include/seerep_core</text>
<text text-anchor="middle" x="737.5" y="-230.5" font-family="Helvetica,sans-Serif" font-size="10.00">_fb/core_fb_image.h</text>
</a>
</g>
</g>
<!-- Node1&#45;&gt;Node11 -->
<g id="edge32" class="edge">
<title>Node1&#45;&gt;Node11</title>
<path fill="none" stroke="midnightblue" d="M902.16,-383.21C872.19,-374.66 838.97,-361.85 812.5,-343 783.35,-322.25 760.32,-286.87 747.82,-264.77"/>
<polygon fill="midnightblue" stroke="midnightblue" points="901.62,-386.69 912.19,-385.95 903.47,-379.94 901.62,-386.69"/>
</g>
<!-- Node15 -->
<g id="node15" class="node">
<title>Node15</title>
<g id="a_node15"><a xlink:href="core__fb__point_8h.html" target="_top" xlink:title=" ">
<polygon fill="none" stroke="black" points="821.5,-223.5 821.5,-264.5 953.5,-264.5 953.5,-223.5 821.5,-223.5"/>
<text text-anchor="start" x="829.5" y="-252.5" font-family="Helvetica,sans-Serif" font-size="10.00">seerep_srv/seerep_core</text>
<text text-anchor="start" x="829.5" y="-241.5" font-family="Helvetica,sans-Serif" font-size="10.00">_fb/include/seerep_core</text>
<text text-anchor="middle" x="887.5" y="-230.5" font-family="Helvetica,sans-Serif" font-size="10.00">_fb/core_fb_point.h</text>
</a>
</g>
</g>
<!-- Node1&#45;&gt;Node15 -->
<g id="edge38" class="edge">
<title>Node1&#45;&gt;Node15</title>
<path fill="none" stroke="midnightblue" d="M981.27,-369.38C979.85,-348.8 975.37,-321.5 962.5,-301 953.17,-286.13 938.36,-273.85 924.36,-264.6"/>
<polygon fill="midnightblue" stroke="midnightblue" points="977.77,-369.64 981.76,-379.45 984.77,-369.3 977.77,-369.64"/>
</g>
<!-- Node19 -->
<g id="node19" class="node">
<title>Node19</title>
<g id="a_node19"><a xlink:href="core__fb__pointcloud_8h.html" target="_top" xlink:title=" ">
<polygon fill="none" stroke="black" points="974.5,-223.5 974.5,-264.5 1110.5,-264.5 1110.5,-223.5 974.5,-223.5"/>
<text text-anchor="start" x="982.5" y="-252.5" font-family="Helvetica,sans-Serif" font-size="10.00">seerep_srv/seerep_core</text>
<text text-anchor="start" x="982.5" y="-241.5" font-family="Helvetica,sans-Serif" font-size="10.00">_fb/include/seerep_core</text>
<text text-anchor="middle" x="1042.5" y="-230.5" font-family="Helvetica,sans-Serif" font-size="10.00">_fb/core_fb_pointcloud.h</text>
</a>
</g>
</g>
<!-- Node1&#45;&gt;Node19 -->
<g id="edge39" class="edge">
<title>Node1&#45;&gt;Node19</title>
<path fill="none" stroke="midnightblue" d="M992.92,-370.17C1005.09,-339.43 1024.05,-291.59 1034.64,-264.83"/>
<polygon fill="midnightblue" stroke="midnightblue" points="989.65,-368.91 989.23,-379.5 996.16,-371.49 989.65,-368.91"/>
</g>
<!-- Node24 -->
<g id="node24" class="node">
<title>Node24</title>
<g id="a_node24"><a xlink:href="core__fb__tf_8h.html" target="_top" xlink:title=" ">
<polygon fill="none" stroke="black" points="1226.5,-223.5 1226.5,-264.5 1358.5,-264.5 1358.5,-223.5 1226.5,-223.5"/>
<text text-anchor="start" x="1234.5" y="-252.5" font-family="Helvetica,sans-Serif" font-size="10.00">seerep_srv/seerep_core</text>
<text text-anchor="start" x="1234.5" y="-241.5" font-family="Helvetica,sans-Serif" font-size="10.00">_fb/include/seerep_core</text>
<text text-anchor="middle" x="1292.5" y="-230.5" font-family="Helvetica,sans-Serif" font-size="10.00">_fb/core_fb_tf.h</text>
</a>
</g>
</g>
<!-- Node1&#45;&gt;Node24 -->
<g id="edge40" class="edge">
<title>Node1&#45;&gt;Node24</title>
<path fill="none" stroke="midnightblue" d="M1029.99,-374.99C1091.42,-344.57 1196.1,-292.74 1252.94,-264.59"/>
<polygon fill="midnightblue" stroke="midnightblue" points="1028.3,-371.92 1020.89,-379.5 1031.4,-378.19 1028.3,-371.92"/>
</g>
<!-- Node28 -->
<g id="node28" class="node">
<title>Node28</title>
<g id="a_node28"><a xlink:href="core__fb__instance_8h.html" target="_top" xlink:title=" ">
<polygon fill="none" stroke="black" points="1437.5,-301.5 1437.5,-342.5 1569.5,-342.5 1569.5,-301.5 1437.5,-301.5"/>
<text text-anchor="start" x="1445.5" y="-330.5" font-family="Helvetica,sans-Serif" font-size="10.00">seerep_srv/seerep_core</text>
<text text-anchor="start" x="1445.5" y="-319.5" font-family="Helvetica,sans-Serif" font-size="10.00">_fb/include/seerep_core</text>
<text text-anchor="middle" x="1503.5" y="-308.5" font-family="Helvetica,sans-Serif" font-size="10.00">_fb/core_fb_instance.h</text>
</a>
</g>
</g>
<!-- Node1&#45;&gt;Node28 -->
<g id="edge33" class="edge">
<title>Node1&#45;&gt;Node28</title>
<path fill="none" stroke="midnightblue" d="M1060.56,-387.49C1163.33,-372.53 1341,-346.66 1437.12,-332.66"/>
<polygon fill="midnightblue" stroke="midnightblue" points="1059.94,-384.04 1050.55,-388.95 1060.95,-390.97 1059.94,-384.04"/>
</g>
<!-- Node32 -->
<g id="node32" class="node">
<title>Node32</title>
<g id="a_node32"><a xlink:href="core__fb__conversion_8cpp.html" target="_top" xlink:title=" ">
<polygon fill="none" stroke="black" points="1945,-307 1945,-337 2112,-337 2112,-307 1945,-307"/>
<text text-anchor="start" x="1953" y="-325" font-family="Helvetica,sans-Serif" font-size="10.00">seerep_srv/seerep_core</text>
<text text-anchor="middle" x="2028.5" y="-314" font-family="Helvetica,sans-Serif" font-size="10.00">_fb/src/core_fb_conversion.cpp</text>
</a>
</g>
</g>
<!-- Node1&#45;&gt;Node32 -->
<g id="edge41" class="edge">
<title>Node1&#45;&gt;Node32</title>
<path fill="none" stroke="midnightblue" d="M1060.69,-398.44C1224.68,-396.39 1613.05,-386.87 1935.5,-343 1946.63,-341.49 1958.41,-339.37 1969.7,-337.07"/>
<polygon fill="midnightblue" stroke="midnightblue" points="1060.65,-394.94 1050.69,-398.56 1060.73,-401.94 1060.65,-394.94"/>
</g>
<!-- Node33 -->
<g id="node33" class="node">
<title>Node33</title>
<g id="a_node33"><a xlink:href="fb__meta__operations_8h.html" target="_top" xlink:title=" ">
<polygon fill="none" stroke="black" points="1784.5,-301.5 1784.5,-342.5 1926.5,-342.5 1926.5,-301.5 1784.5,-301.5"/>
<text text-anchor="start" x="1792.5" y="-330.5" font-family="Helvetica,sans-Serif" font-size="10.00">seerep_srv/seerep_server</text>
<text text-anchor="start" x="1792.5" y="-319.5" font-family="Helvetica,sans-Serif" font-size="10.00">/include/seerep_server</text>
<text text-anchor="middle" x="1855.5" y="-308.5" font-family="Helvetica,sans-Serif" font-size="10.00">/fb_meta_operations.h</text>
</a>
</g>
</g>
<!-- Node1&#45;&gt;Node33 -->
<g id="edge43" class="edge">
<title>Node1&#45;&gt;Node33</title>
<path fill="none" stroke="midnightblue" d="M1060.88,-392.1C1229.88,-377.4 1622.93,-343.22 1784.35,-329.19"/>
<polygon fill="midnightblue" stroke="midnightblue" points="1060.47,-388.62 1050.81,-392.97 1061.08,-395.59 1060.47,-388.62"/>
</g>
<!-- Node3 -->
<g id="node3" class="node">
<title>Node3</title>
<g id="a_node3"><a xlink:href="rosbag__dumper_8cpp.html" target="_top" xlink:title=" ">
<polygon fill="none" stroke="black" points="257.5,-229 257.5,-259 425.5,-259 425.5,-229 257.5,-229"/>
<text text-anchor="start" x="265.5" y="-247" font-family="Helvetica,sans-Serif" font-size="10.00">seerep_ros/seerep_ros</text>
<text text-anchor="middle" x="341.5" y="-236" font-family="Helvetica,sans-Serif" font-size="10.00">_comm/src/rosbag_dumper.cpp</text>
</a>
</g>
</g>
<!-- Node2&#45;&gt;Node3 -->
<g id="edge2" class="edge">
<title>Node2&#45;&gt;Node3</title>
<path fill="none" stroke="midnightblue" d="M342.72,-291.28C342.43,-280.25 342.11,-268.25 341.87,-259.23"/>
<polygon fill="midnightblue" stroke="midnightblue" points="339.22,-291.52 342.98,-301.43 346.22,-291.34 339.22,-291.52"/>
</g>
<!-- Node5 -->
<g id="node5" class="node">
<title>Node5</title>
<g id="a_node5"><a xlink:href="core__fb__camera__intrinsics_8cpp.html" target="_top" xlink:title=" ">
<polygon fill="none" stroke="black" points="183.5,-145.5 183.5,-186.5 315.5,-186.5 315.5,-145.5 183.5,-145.5"/>
<text text-anchor="start" x="191.5" y="-174.5" font-family="Helvetica,sans-Serif" font-size="10.00">seerep_srv/seerep_core</text>
<text text-anchor="start" x="191.5" y="-163.5" font-family="Helvetica,sans-Serif" font-size="10.00">_fb/src/core_fb_camera</text>
<text text-anchor="middle" x="249.5" y="-152.5" font-family="Helvetica,sans-Serif" font-size="10.00">_intrinsics.cpp</text>
</a>
</g>
</g>
<!-- Node4&#45;&gt;Node5 -->
<g id="edge4" class="edge">
<title>Node4&#45;&gt;Node5</title>
<path fill="none" stroke="midnightblue" d="M471.86,-221.75C427.03,-211.59 372.94,-199.04 324.5,-187 321.62,-186.29 318.69,-185.55 315.72,-184.79"/>
<polygon fill="midnightblue" stroke="midnightblue" points="471.34,-225.22 481.86,-224.01 472.88,-218.39 471.34,-225.22"/>
</g>
<!-- Node4&#45;&gt;Node6 -->
<g id="edge5" class="edge">
<title>Node4&#45;&gt;Node6</title>
<path fill="none" stroke="midnightblue" d="M471.96,-223.73C470.46,-223.48 468.97,-223.24 467.5,-223 337.97,-202.12 303.85,-208.96 174.5,-187 171.44,-186.48 168.32,-185.93 165.18,-185.35"/>
<polygon fill="midnightblue" stroke="midnightblue" points="471.48,-227.2 481.93,-225.45 472.67,-220.3 471.48,-227.2"/>
</g>
<!-- Node7 -->
<g id="node7" class="node">
<title>Node7</title>
<g id="a_node7"><a xlink:href="server_8h.html" target="_top" xlink:title=" ">
<polygon fill="none" stroke="black" points="893.5,-67.5 893.5,-108.5 1035.5,-108.5 1035.5,-67.5 893.5,-67.5"/>
<text text-anchor="start" x="901.5" y="-96.5" font-family="Helvetica,sans-Serif" font-size="10.00">seerep_srv/seerep_server</text>
<text text-anchor="start" x="901.5" y="-85.5" font-family="Helvetica,sans-Serif" font-size="10.00">/include/seerep_server</text>
<text text-anchor="middle" x="964.5" y="-74.5" font-family="Helvetica,sans-Serif" font-size="10.00">/server.h</text>
</a>
</g>
</g>
<!-- Node6&#45;&gt;Node7 -->
<g id="edge6" class="edge">
<title>Node6&#45;&gt;Node7</title>
<path fill="none" stroke="midnightblue" d="M175.18,-145.04C455.01,-107.64 529.61,-134.38 806.5,-109 835,-106.39 866.28,-102.62 893.43,-99.06"/>
<polygon fill="midnightblue" stroke="midnightblue" points="174.58,-141.58 165.14,-146.39 175.52,-148.52 174.58,-141.58"/>
</g>
<!-- Node9 -->
<g id="node9" class="node">
<title>Node9</title>
<g id="a_node9"><a xlink:href="fb__cameraintrinsics__service_8cpp.html" target="_top" xlink:title=" ">
<polygon fill="none" stroke="black" points="11.5,-67.5 11.5,-108.5 153.5,-108.5 153.5,-67.5 11.5,-67.5"/>
<text text-anchor="start" x="19.5" y="-96.5" font-family="Helvetica,sans-Serif" font-size="10.00">seerep_srv/seerep_server</text>
<text text-anchor="start" x="19.5" y="-85.5" font-family="Helvetica,sans-Serif" font-size="10.00">/src/fb_cameraintrinsics</text>
<text text-anchor="middle" x="82.5" y="-74.5" font-family="Helvetica,sans-Serif" font-size="10.00">_service.cpp</text>
</a>
</g>
</g>
<!-- Node6&#45;&gt;Node9 -->
<g id="edge8" class="edge">
<title>Node6&#45;&gt;Node9</title>
<path fill="none" stroke="midnightblue" d="M82.5,-135.3C82.5,-126.3 82.5,-116.65 82.5,-108.51"/>
<polygon fill="midnightblue" stroke="midnightblue" points="79,-135.43 82.5,-145.43 86,-135.43 79,-135.43"/>
</g>
<!-- Node8 -->
<g id="node8" class="node">
<title>Node8</title>
<g id="a_node8"><a xlink:href="server_8cpp.html" target="_top" xlink:title=" ">
<polygon fill="none" stroke="black" points="893.5,-0.5 893.5,-30.5 1035.5,-30.5 1035.5,-0.5 893.5,-0.5"/>
<text text-anchor="start" x="901.5" y="-18.5" font-family="Helvetica,sans-Serif" font-size="10.00">seerep_srv/seerep_server</text>
<text text-anchor="middle" x="964.5" y="-7.5" font-family="Helvetica,sans-Serif" font-size="10.00">/src/server.cpp</text>
</a>
</g>
</g>
<!-- Node7&#45;&gt;Node8 -->
<g id="edge7" class="edge">
<title>Node7&#45;&gt;Node8</title>
<path fill="none" stroke="midnightblue" d="M964.5,-57.08C964.5,-48.01 964.5,-38.45 964.5,-30.89"/>
<polygon fill="midnightblue" stroke="midnightblue" points="961,-57.36 964.5,-67.36 968,-57.36 961,-57.36"/>
</g>
<!-- Node10&#45;&gt;Node4 -->
<g id="edge10" class="edge">
<title>Node10&#45;&gt;Node4</title>
<path fill="none" stroke="midnightblue" d="M811.34,-302.91C762.64,-291.34 699.48,-276.35 649.65,-264.51"/>
<polygon fill="midnightblue" stroke="midnightblue" points="810.66,-306.35 821.2,-305.25 812.28,-299.54 810.66,-306.35"/>
</g>
<!-- Node10&#45;&gt;Node11 -->
<g id="edge11" class="edge">
<title>Node10&#45;&gt;Node11</title>
<path fill="none" stroke="midnightblue" d="M839.95,-296.91C819.33,-286.46 795.49,-274.38 776,-264.51"/>
<polygon fill="midnightblue" stroke="midnightblue" points="838.37,-300.03 848.87,-301.43 841.53,-293.79 838.37,-300.03"/>
</g>
<!-- Node10&#45;&gt;Node15 -->
<g id="edge16" class="edge">
<title>Node10&#45;&gt;Node15</title>
<path fill="none" stroke="midnightblue" d="M887.5,-291.3C887.5,-282.3 887.5,-272.65 887.5,-264.51"/>
<polygon fill="midnightblue" stroke="midnightblue" points="884,-291.43 887.5,-301.43 891,-291.43 884,-291.43"/>
</g>
<!-- Node10&#45;&gt;Node19 -->
<g id="edge21" class="edge">
<title>Node10&#45;&gt;Node19</title>
<path fill="none" stroke="midnightblue" d="M936.63,-296.91C957.95,-286.46 982.58,-274.38 1002.72,-264.51"/>
<polygon fill="midnightblue" stroke="midnightblue" points="934.85,-293.88 927.42,-301.43 937.94,-300.17 934.85,-293.88"/>
</g>
<!-- Node10&#45;&gt;Node24 -->
<g id="edge27" class="edge">
<title>Node10&#45;&gt;Node24</title>
<path fill="none" stroke="midnightblue" d="M963.88,-306.67C1039.61,-292.46 1154.44,-270.91 1226.38,-257.41"/>
<polygon fill="midnightblue" stroke="midnightblue" points="963.11,-303.25 953.92,-308.54 964.4,-310.13 963.11,-303.25"/>
</g>
<!-- Node12 -->
<g id="node12" class="node">
<title>Node12</title>
<g id="a_node12"><a xlink:href="core__fb__image_8cpp.html" target="_top" xlink:title=" ">
<polygon fill="none" stroke="black" points="493.5,-151 493.5,-181 637.5,-181 637.5,-151 493.5,-151"/>
<text text-anchor="start" x="501.5" y="-169" font-family="Helvetica,sans-Serif" font-size="10.00">seerep_srv/seerep_core</text>
<text text-anchor="middle" x="565.5" y="-158" font-family="Helvetica,sans-Serif" font-size="10.00">_fb/src/core_fb_image.cpp</text>
</a>
</g>
</g>
<!-- Node11&#45;&gt;Node12 -->
<g id="edge12" class="edge">
<title>Node11&#45;&gt;Node12</title>
<path fill="none" stroke="midnightblue" d="M683.82,-219.28C655.47,-206.76 621.64,-191.81 597.43,-181.11"/>
<polygon fill="midnightblue" stroke="midnightblue" points="682.64,-222.59 693.21,-223.43 685.47,-216.19 682.64,-222.59"/>
</g>
<!-- Node13 -->
<g id="node13" class="node">
<title>Node13</title>
<g id="a_node13"><a xlink:href="fb__image__service_8h.html" target="_top" xlink:title=" ">
<polygon fill="none" stroke="black" points="333.5,-145.5 333.5,-186.5 475.5,-186.5 475.5,-145.5 333.5,-145.5"/>
<text text-anchor="start" x="341.5" y="-174.5" font-family="Helvetica,sans-Serif" font-size="10.00">seerep_srv/seerep_server</text>
<text text-anchor="start" x="341.5" y="-163.5" font-family="Helvetica,sans-Serif" font-size="10.00">/include/seerep_server</text>
<text text-anchor="middle" x="404.5" y="-152.5" font-family="Helvetica,sans-Serif" font-size="10.00">/fb_image_service.h</text>
</a>
</g>
</g>
<!-- Node11&#45;&gt;Node13 -->
<g id="edge13" class="edge">
<title>Node11&#45;&gt;Node13</title>
<path fill="none" stroke="midnightblue" d="M661.36,-222.8C582.21,-204.58 560.15,-204.1 484.5,-187 481.57,-186.34 478.58,-185.65 475.56,-184.94"/>
<polygon fill="midnightblue" stroke="midnightblue" points="660.77,-226.26 671.3,-225.11 662.35,-219.44 660.77,-226.26"/>
</g>
<!-- Node13&#45;&gt;Node7 -->
<g id="edge14" class="edge">
<title>Node13&#45;&gt;Node7</title>
<path fill="none" stroke="midnightblue" d="M485.89,-144.86C627.95,-119.76 666.72,-125.66 806.5,-109 834.92,-105.61 866.18,-101.7 893.35,-98.23"/>
<polygon fill="midnightblue" stroke="midnightblue" points="485.16,-141.44 475.93,-146.64 486.39,-148.33 485.16,-141.44"/>
</g>
<!-- Node14 -->
<g id="node14" class="node">
<title>Node14</title>
<g id="a_node14"><a xlink:href="fb__image__service_8cpp.html" target="_top" xlink:title=" ">
<polygon fill="none" stroke="black" points="333,-73 333,-103 476,-103 476,-73 333,-73"/>
<text text-anchor="start" x="341" y="-91" font-family="Helvetica,sans-Serif" font-size="10.00">seerep_srv/seerep_server</text>
<text text-anchor="middle" x="404.5" y="-80" font-family="Helvetica,sans-Serif" font-size="10.00">/src/fb_image_service.cpp</text>
</a>
</g>
</g>
<!-- Node13&#45;&gt;Node14 -->
<g id="edge15" class="edge">
<title>Node13&#45;&gt;Node14</title>
<path fill="none" stroke="midnightblue" d="M404.5,-135.28C404.5,-124.25 404.5,-112.25 404.5,-103.23"/>
<polygon fill="midnightblue" stroke="midnightblue" points="401,-135.43 404.5,-145.43 408,-135.43 401,-135.43"/>
</g>
<!-- Node16 -->
<g id="node16" class="node">
<title>Node16</title>
<g id="a_node16"><a xlink:href="core__fb__point_8cpp.html" target="_top" xlink:title=" ">
<polygon fill="none" stroke="black" points="815.5,-151 815.5,-181 953.5,-181 953.5,-151 815.5,-151"/>
<text text-anchor="start" x="823.5" y="-169" font-family="Helvetica,sans-Serif" font-size="10.00">seerep_srv/seerep_core</text>
<text text-anchor="middle" x="884.5" y="-158" font-family="Helvetica,sans-Serif" font-size="10.00">_fb/src/core_fb_point.cpp</text>
</a>
</g>
</g>
<!-- Node15&#45;&gt;Node16 -->
<g id="edge17" class="edge">
<title>Node15&#45;&gt;Node16</title>
<path fill="none" stroke="midnightblue" d="M886.33,-213.28C885.89,-202.25 885.42,-190.25 885.06,-181.23"/>
<polygon fill="midnightblue" stroke="midnightblue" points="882.84,-213.57 886.73,-223.43 889.83,-213.3 882.84,-213.57"/>
</g>
<!-- Node17 -->
<g id="node17" class="node">
<title>Node17</title>
<g id="a_node17"><a xlink:href="fb__point__service_8h.html" target="_top" xlink:title=" ">
<polygon fill="none" stroke="black" points="655.5,-145.5 655.5,-186.5 797.5,-186.5 797.5,-145.5 655.5,-145.5"/>
<text text-anchor="start" x="663.5" y="-174.5" font-family="Helvetica,sans-Serif" font-size="10.00">seerep_srv/seerep_server</text>
<text text-anchor="start" x="663.5" y="-163.5" font-family="Helvetica,sans-Serif" font-size="10.00">/include/seerep_server</text>
<text text-anchor="middle" x="726.5" y="-152.5" font-family="Helvetica,sans-Serif" font-size="10.00">/fb_point_service.h</text>
</a>
</g>
</g>
<!-- Node15&#45;&gt;Node17 -->
<g id="edge18" class="edge">
<title>Node15&#45;&gt;Node17</title>
<path fill="none" stroke="midnightblue" d="M836.76,-219.05C814.56,-208.57 788.83,-196.42 767.82,-186.51"/>
<polygon fill="midnightblue" stroke="midnightblue" points="835.5,-222.32 846.04,-223.43 838.49,-215.99 835.5,-222.32"/>
</g>
<!-- Node17&#45;&gt;Node7 -->
<g id="edge19" class="edge">
<title>Node17&#45;&gt;Node7</title>
<path fill="none" stroke="midnightblue" d="M797.57,-142.3C831.26,-131.55 871.11,-118.82 903.42,-108.51"/>
<polygon fill="midnightblue" stroke="midnightblue" points="796.25,-139.05 787.79,-145.43 798.38,-145.72 796.25,-139.05"/>
</g>
<!-- Node18 -->
<g id="node18" class="node">
<title>Node18</title>
<g id="a_node18"><a xlink:href="fb__point__service_8cpp.html" target="_top" xlink:title=" ">
<polygon fill="none" stroke="black" points="655.5,-73 655.5,-103 797.5,-103 797.5,-73 655.5,-73"/>
<text text-anchor="start" x="663.5" y="-91" font-family="Helvetica,sans-Serif" font-size="10.00">seerep_srv/seerep_server</text>
<text text-anchor="middle" x="726.5" y="-80" font-family="Helvetica,sans-Serif" font-size="10.00">/src/fb_point_service.cpp</text>
</a>
</g>
</g>
<!-- Node17&#45;&gt;Node18 -->
<g id="edge20" class="edge">
<title>Node17&#45;&gt;Node18</title>
<path fill="none" stroke="midnightblue" d="M726.5,-135.28C726.5,-124.25 726.5,-112.25 726.5,-103.23"/>
<polygon fill="midnightblue" stroke="midnightblue" points="723,-135.43 726.5,-145.43 730,-135.43 723,-135.43"/>
</g>
<!-- Node20 -->
<g id="node20" class="node">
<title>Node20</title>
<g id="a_node20"><a xlink:href="core__fb__general_8cpp.html" target="_top" xlink:title=" ">
<polygon fill="none" stroke="black" points="1131.5,-151 1131.5,-181 1281.5,-181 1281.5,-151 1131.5,-151"/>
<text text-anchor="start" x="1139.5" y="-169" font-family="Helvetica,sans-Serif" font-size="10.00">seerep_srv/seerep_core</text>
<text text-anchor="middle" x="1206.5" y="-158" font-family="Helvetica,sans-Serif" font-size="10.00">_fb/src/core_fb_general.cpp</text>
</a>
</g>
</g>
<!-- Node19&#45;&gt;Node20 -->
<g id="edge22" class="edge">
<title>Node19&#45;&gt;Node20</title>
<path fill="none" stroke="midnightblue" d="M1094.03,-219.12C1120.99,-206.63 1153.07,-191.76 1176.06,-181.11"/>
<polygon fill="midnightblue" stroke="midnightblue" points="1092.34,-216.05 1084.73,-223.43 1095.28,-222.4 1092.34,-216.05"/>
</g>
<!-- Node21 -->
<g id="node21" class="node">
<title>Node21</title>
<g id="a_node21"><a xlink:href="core__fb__pointcloud_8cpp.html" target="_top" xlink:title=" ">
<polygon fill="none" stroke="black" points="1299.5,-151 1299.5,-181 1463.5,-181 1463.5,-151 1299.5,-151"/>
<text text-anchor="start" x="1307.5" y="-169" font-family="Helvetica,sans-Serif" font-size="10.00">seerep_srv/seerep_core</text>
<text text-anchor="middle" x="1381.5" y="-158" font-family="Helvetica,sans-Serif" font-size="10.00">_fb/src/core_fb_pointcloud.cpp</text>
</a>
</g>
</g>
<!-- Node19&#45;&gt;Node21 -->
<g id="edge23" class="edge">
<title>Node19&#45;&gt;Node21</title>
<path fill="none" stroke="midnightblue" d="M1120.53,-225.51C1180.73,-212.01 1262.9,-193.59 1318.85,-181.05"/>
<polygon fill="midnightblue" stroke="midnightblue" points="1119.69,-222.11 1110.69,-227.71 1121.22,-228.94 1119.69,-222.11"/>
</g>
<!-- Node22 -->
<g id="node22" class="node">
<title>Node22</title>
<g id="a_node22"><a xlink:href="fb__point__cloud__service_8h.html" target="_top" xlink:title=" ">
<polygon fill="none" stroke="black" points="971.5,-145.5 971.5,-186.5 1113.5,-186.5 1113.5,-145.5 971.5,-145.5"/>
<text text-anchor="start" x="979.5" y="-174.5" font-family="Helvetica,sans-Serif" font-size="10.00">seerep_srv/seerep_server</text>
<text text-anchor="start" x="979.5" y="-163.5" font-family="Helvetica,sans-Serif" font-size="10.00">/include/seerep_server</text>
<text text-anchor="middle" x="1042.5" y="-152.5" font-family="Helvetica,sans-Serif" font-size="10.00">/fb_point_cloud_service.h</text>
</a>
</g>
</g>
<!-- Node19&#45;&gt;Node22 -->
<g id="edge24" class="edge">
<title>Node19&#45;&gt;Node22</title>
<path fill="none" stroke="midnightblue" d="M1042.5,-213.3C1042.5,-204.3 1042.5,-194.65 1042.5,-186.51"/>
<polygon fill="midnightblue" stroke="midnightblue" points="1039,-213.43 1042.5,-223.43 1046,-213.43 1039,-213.43"/>
</g>
<!-- Node22&#45;&gt;Node7 -->
<g id="edge25" class="edge">
<title>Node22&#45;&gt;Node7</title>
<path fill="none" stroke="midnightblue" d="M1015,-138.2C1004.95,-128.42 993.79,-117.54 984.52,-108.51"/>
<polygon fill="midnightblue" stroke="midnightblue" points="1012.81,-140.96 1022.41,-145.43 1017.69,-135.94 1012.81,-140.96"/>
</g>
<!-- Node23 -->
<g id="node23" class="node">
<title>Node23</title>
<g id="a_node23"><a xlink:href="fb__point__cloud__service_8cpp.html" target="_top" xlink:title=" ">
<polygon fill="none" stroke="black" points="1054,-73 1054,-103 1223,-103 1223,-73 1054,-73"/>
<text text-anchor="start" x="1062" y="-91" font-family="Helvetica,sans-Serif" font-size="10.00">seerep_srv/seerep_server</text>
<text text-anchor="middle" x="1138.5" y="-80" font-family="Helvetica,sans-Serif" font-size="10.00">/src/fb_point_cloud_service.cpp</text>
</a>
</g>
</g>
<!-- Node22&#45;&gt;Node23 -->
<g id="edge26" class="edge">
<title>Node22&#45;&gt;Node23</title>
<path fill="none" stroke="midnightblue" d="M1075.35,-138.99C1090.48,-127.02 1107.84,-113.27 1120.53,-103.23"/>
<polygon fill="midnightblue" stroke="midnightblue" points="1072.89,-136.48 1067.22,-145.43 1077.24,-141.97 1072.89,-136.48"/>
</g>
<!-- Node25 -->
<g id="node25" class="node">
<title>Node25</title>
<g id="a_node25"><a xlink:href="core__fb__tf_8cpp.html" target="_top" xlink:title=" ">
<polygon fill="none" stroke="black" points="1481.5,-151 1481.5,-181 1613.5,-181 1613.5,-151 1481.5,-151"/>
<text text-anchor="start" x="1489.5" y="-169" font-family="Helvetica,sans-Serif" font-size="10.00">seerep_srv/seerep_core</text>
<text text-anchor="middle" x="1547.5" y="-158" font-family="Helvetica,sans-Serif" font-size="10.00">_fb/src/core_fb_tf.cpp</text>
</a>
</g>
</g>
<!-- Node24&#45;&gt;Node25 -->
<g id="edge28" class="edge">
<title>Node24&#45;&gt;Node25</title>
<path fill="none" stroke="midnightblue" d="M1367.99,-220.5C1410.82,-207.73 1463.1,-192.15 1500.17,-181.11"/>
<polygon fill="midnightblue" stroke="midnightblue" points="1366.75,-217.22 1358.17,-223.43 1368.75,-223.93 1366.75,-217.22"/>
</g>
<!-- Node26 -->
<g id="node26" class="node">
<title>Node26</title>
<g id="a_node26"><a xlink:href="fb__tf__service_8h.html" target="_top" xlink:title=" ">
<polygon fill="none" stroke="black" points="1631.5,-145.5 1631.5,-186.5 1773.5,-186.5 1773.5,-145.5 1631.5,-145.5"/>
<text text-anchor="start" x="1639.5" y="-174.5" font-family="Helvetica,sans-Serif" font-size="10.00">seerep_srv/seerep_server</text>
<text text-anchor="start" x="1639.5" y="-163.5" font-family="Helvetica,sans-Serif" font-size="10.00">/include/seerep_server</text>
<text text-anchor="middle" x="1702.5" y="-152.5" font-family="Helvetica,sans-Serif" font-size="10.00">/fb_tf_service.h</text>
</a>
</g>
</g>
<!-- Node24&#45;&gt;Node26 -->
<g id="edge29" class="edge">
<title>Node24&#45;&gt;Node26</title>
<path fill="none" stroke="midnightblue" d="M1368.57,-230.79C1450.44,-217.52 1575.27,-196.9 1622.5,-187 1625.44,-186.38 1628.44,-185.73 1631.47,-185.06"/>
<polygon fill="midnightblue" stroke="midnightblue" points="1367.87,-227.36 1358.56,-232.41 1368.99,-234.27 1367.87,-227.36"/>
</g>
<!-- Node26&#45;&gt;Node7 -->
<g id="edge30" class="edge">
<title>Node26&#45;&gt;Node7</title>
<path fill="none" stroke="midnightblue" d="M1621.2,-144.95C1366.8,-106.74 1296.25,-147.46 1045.5,-109 1042.35,-108.52 1039.14,-107.97 1035.91,-107.37"/>
<polygon fill="midnightblue" stroke="midnightblue" points="1620.69,-148.41 1631.1,-146.46 1621.75,-141.49 1620.69,-148.41"/>
</g>
<!-- Node27 -->
<g id="node27" class="node">
<title>Node27</title>
<g id="a_node27"><a xlink:href="fb__tf__service_8cpp.html" target="_top" xlink:title=" ">
<polygon fill="none" stroke="black" points="1631.5,-73 1631.5,-103 1773.5,-103 1773.5,-73 1631.5,-73"/>
<text text-anchor="start" x="1639.5" y="-91" font-family="Helvetica,sans-Serif" font-size="10.00">seerep_srv/seerep_server</text>
<text text-anchor="middle" x="1702.5" y="-80" font-family="Helvetica,sans-Serif" font-size="10.00">/src/fb_tf_service.cpp</text>
</a>
</g>
</g>
<!-- Node26&#45;&gt;Node27 -->
<g id="edge31" class="edge">
<title>Node26&#45;&gt;Node27</title>
<path fill="none" stroke="midnightblue" d="M1702.5,-135.28C1702.5,-124.25 1702.5,-112.25 1702.5,-103.23"/>
<polygon fill="midnightblue" stroke="midnightblue" points="1699,-135.43 1702.5,-145.43 1706,-135.43 1699,-135.43"/>
</g>
<!-- Node29 -->
<g id="node29" class="node">
<title>Node29</title>
<g id="a_node29"><a xlink:href="core__fb__instance_8cpp.html" target="_top" xlink:title=" ">
<polygon fill="none" stroke="black" points="1426,-229 1426,-259 1581,-259 1581,-229 1426,-229"/>
<text text-anchor="start" x="1434" y="-247" font-family="Helvetica,sans-Serif" font-size="10.00">seerep_srv/seerep_core</text>
<text text-anchor="middle" x="1503.5" y="-236" font-family="Helvetica,sans-Serif" font-size="10.00">_fb/src/core_fb_instance.cpp</text>
</a>
</g>
</g>
<!-- Node28&#45;&gt;Node29 -->
<g id="edge34" class="edge">
<title>Node28&#45;&gt;Node29</title>
<path fill="none" stroke="midnightblue" d="M1503.5,-291.28C1503.5,-280.25 1503.5,-268.25 1503.5,-259.23"/>
<polygon fill="midnightblue" stroke="midnightblue" points="1500,-291.43 1503.5,-301.43 1507,-291.43 1500,-291.43"/>
</g>
<!-- Node30 -->
<g id="node30" class="node">
<title>Node30</title>
<g id="a_node30"><a xlink:href="fb__instance__service_8h.html" target="_top" xlink:title=" ">
<polygon fill="none" stroke="black" points="1642.5,-223.5 1642.5,-264.5 1784.5,-264.5 1784.5,-223.5 1642.5,-223.5"/>
<text text-anchor="start" x="1650.5" y="-252.5" font-family="Helvetica,sans-Serif" font-size="10.00">seerep_srv/seerep_server</text>
<text text-anchor="start" x="1650.5" y="-241.5" font-family="Helvetica,sans-Serif" font-size="10.00">/include/seerep_server</text>
<text text-anchor="middle" x="1713.5" y="-230.5" font-family="Helvetica,sans-Serif" font-size="10.00">/fb_instance_service.h</text>
</a>
</g>
</g>
<!-- Node28&#45;&gt;Node30 -->
<g id="edge35" class="edge">
<title>Node28&#45;&gt;Node30</title>
<path fill="none" stroke="midnightblue" d="M1567.36,-297.89C1596.84,-287.22 1631.46,-274.69 1659.6,-264.51"/>
<polygon fill="midnightblue" stroke="midnightblue" points="1565.79,-294.73 1557.58,-301.43 1568.17,-301.32 1565.79,-294.73"/>
</g>
<!-- Node30&#45;&gt;Node7 -->
<g id="edge36" class="edge">
<title>Node30&#45;&gt;Node7</title>
<path fill="none" stroke="midnightblue" d="M1757.39,-217.1C1767.49,-208.85 1776.9,-198.76 1782.5,-187 1790.53,-170.15 1795.37,-158.52 1782.5,-145 1725.96,-85.63 1126.62,-120.88 1045.5,-109 1042.35,-108.54 1039.14,-108.01 1035.91,-107.42"/>
<polygon fill="midnightblue" stroke="midnightblue" points="1755.05,-214.48 1749.2,-223.32 1759.28,-220.06 1755.05,-214.48"/>
</g>
<!-- Node31 -->
<g id="node31" class="node">
<title>Node31</title>
<g id="a_node31"><a xlink:href="fb__instance__service_8cpp.html" target="_top" xlink:title=" ">
<polygon fill="none" stroke="black" points="1829.5,-151 1829.5,-181 1983.5,-181 1983.5,-151 1829.5,-151"/>
<text text-anchor="start" x="1837.5" y="-169" font-family="Helvetica,sans-Serif" font-size="10.00">seerep_srv/seerep_server</text>
<text text-anchor="middle" x="1906.5" y="-158" font-family="Helvetica,sans-Serif" font-size="10.00">/src/fb_instance_service.cpp</text>
</a>
</g>
</g>
<!-- Node30&#45;&gt;Node31 -->
<g id="edge37" class="edge">
<title>Node30&#45;&gt;Node31</title>
<path fill="none" stroke="midnightblue" d="M1772.9,-219.61C1804.88,-207.02 1843.27,-191.9 1870.68,-181.11"/>
<polygon fill="midnightblue" stroke="midnightblue" points="1771.22,-216.51 1763.2,-223.43 1773.79,-223.02 1771.22,-216.51"/>
</g>
<!-- Node33&#45;&gt;Node7 -->
<g id="edge44" class="edge">
<title>Node33&#45;&gt;Node7</title>
<path fill="none" stroke="midnightblue" d="M1925.08,-296.91C1940.75,-288.8 1956.09,-278.31 1967.5,-265 2002.96,-223.64 2030.28,-184.25 1992.5,-145 1955.99,-107.07 1097.63,-116.35 1045.5,-109 1042.34,-108.56 1039.13,-108.04 1035.9,-107.47"/>
<polygon fill="midnightblue" stroke="midnightblue" points="1923.3,-293.89 1915.85,-301.42 1926.38,-300.18 1923.3,-293.89"/>
</g>
<!-- Node34 -->
<g id="node34" class="node">
<title>Node34</title>
<g id="a_node34"><a xlink:href="fb__meta__operations_8cpp.html" target="_top" xlink:title=" ">
<polygon fill="none" stroke="black" points="1803,-229 1803,-259 1958,-259 1958,-229 1803,-229"/>
<text text-anchor="start" x="1811" y="-247" font-family="Helvetica,sans-Serif" font-size="10.00">seerep_srv/seerep_server</text>
<text text-anchor="middle" x="1880.5" y="-236" font-family="Helvetica,sans-Serif" font-size="10.00">/src/fb_meta_operations.cpp</text>
</a>
</g>
</g>
<!-- Node33&#45;&gt;Node34 -->
<g id="edge45" class="edge">
<title>Node33&#45;&gt;Node34</title>
<path fill="none" stroke="midnightblue" d="M1865.16,-291.62C1868.82,-280.5 1872.82,-268.34 1875.82,-259.23"/>
<polygon fill="midnightblue" stroke="midnightblue" points="1861.74,-290.84 1861.94,-301.43 1868.39,-293.02 1861.74,-290.84"/>
</g>
</g>
</svg>
