<?xml version="1.0" encoding="UTF-8" standalone="no"?>
<!DOCTYPE svg PUBLIC "-//W3C//DTD SVG 1.1//EN"
 "http://www.w3.org/Graphics/SVG/1.1/DTD/svg11.dtd">
<!-- Generated by graphviz version 2.43.0 (0)
 -->
<!-- Title: seerep_srv/seerep_core_pb/src/core_pb_conversion.cpp Pages: 1 -->
<svg width="4012pt" height="173pt"
 viewBox="0.00 0.00 4012.00 173.00" xmlns="http://www.w3.org/2000/svg" xmlns:xlink="http://www.w3.org/1999/xlink">
<g id="graph0" class="graph" transform="scale(1 1) rotate(0) translate(4 169)">
<title>seerep_srv/seerep_core_pb/src/core_pb_conversion.cpp</title>
<!-- Node1 -->
<g id="node1" class="node">
<title>Node1</title>
<g id="a_node1"><a xlink:title=" ">
<polygon fill="#bfbfbf" stroke="black" points="1813,-134.5 1813,-164.5 1984,-164.5 1984,-134.5 1813,-134.5"/>
<text text-anchor="start" x="1821" y="-152.5" font-family="Helvetica,sans-Serif" font-size="10.00">seerep_srv/seerep_core</text>
<text text-anchor="middle" x="1898.5" y="-141.5" font-family="Helvetica,sans-Serif" font-size="10.00">_pb/src/core_pb_conversion.cpp</text>
</a>
</g>
</g>
<!-- Node2 -->
<g id="node2" class="node">
<title>Node2</title>
<g id="a_node2"><a xlink:href="core__pb__conversion_8h.html" target="_top" xlink:title=" ">
<polygon fill="none" stroke="black" points="1840,-67.5 1840,-97.5 1957,-97.5 1957,-67.5 1840,-67.5"/>
<text text-anchor="start" x="1848" y="-85.5" font-family="Helvetica,sans-Serif" font-size="10.00">seerep_core_pb/core</text>
<text text-anchor="middle" x="1898.5" y="-74.5" font-family="Helvetica,sans-Serif" font-size="10.00">_pb_conversion.h</text>
</a>
</g>
</g>
<!-- Node1&#45;&gt;Node2 -->
<g id="edge1" class="edge">
<title>Node1&#45;&gt;Node2</title>
<path fill="none" stroke="midnightblue" d="M1898.5,-134.4C1898.5,-126.64 1898.5,-116.81 1898.5,-107.86"/>
<polygon fill="midnightblue" stroke="midnightblue" points="1902,-107.58 1898.5,-97.58 1895,-107.58 1902,-107.58"/>
</g>
<!-- Node3 -->
<g id="node3" class="node">
<title>Node3</title>
<g id="a_node3"><a xlink:title=" ">
<polygon fill="none" stroke="#bfbfbf" points="0,-6 0,-25 65,-25 65,-6 0,-6"/>
<text text-anchor="middle" x="32.5" y="-13" font-family="Helvetica,sans-Serif" font-size="10.00">functional</text>
</a>
</g>
</g>
<!-- Node2&#45;&gt;Node3 -->
<g id="edge2" class="edge">
<title>Node2&#45;&gt;Node3</title>
<path fill="none" stroke="midnightblue" d="M1839.91,-80.94C1547.3,-77.98 251.27,-63.18 74.5,-31 70.6,-30.29 66.57,-29.28 62.62,-28.12"/>
<polygon fill="midnightblue" stroke="midnightblue" points="63.69,-24.79 53.1,-25.01 61.52,-31.44 63.69,-24.79"/>
</g>
<!-- Node4 -->
<g id="node4" class="node">
<title>Node4</title>
<g id="a_node4"><a xlink:title=" ">
<polygon fill="none" stroke="#bfbfbf" points="83.5,-6 83.5,-25 139.5,-25 139.5,-6 83.5,-6"/>
<text text-anchor="middle" x="111.5" y="-13" font-family="Helvetica,sans-Serif" font-size="10.00">optional</text>
</a>
</g>
</g>
<!-- Node2&#45;&gt;Node4 -->
<g id="edge3" class="edge">
<title>Node2&#45;&gt;Node4</title>
<path fill="none" stroke="midnightblue" d="M1839.92,-81C1554.55,-78.43 316.95,-65.35 148.5,-31 145.42,-30.37 142.27,-29.51 139.16,-28.51"/>
<polygon fill="midnightblue" stroke="midnightblue" points="140.16,-25.15 129.56,-25.01 137.76,-31.73 140.16,-25.15"/>
</g>
<!-- Node5 -->
<g id="node5" class="node">
<title>Node5</title>
<g id="a_node5"><a xlink:title=" ">
<polygon fill="none" stroke="#bfbfbf" points="158,-6 158,-25 329,-25 329,-6 158,-6"/>
<text text-anchor="middle" x="243.5" y="-13" font-family="Helvetica,sans-Serif" font-size="10.00">seerep_msgs/boundingbox.pb.h</text>
</a>
</g>
</g>
<!-- Node2&#45;&gt;Node5 -->
<g id="edge4" class="edge">
<title>Node2&#45;&gt;Node5</title>
<path fill="none" stroke="midnightblue" d="M1839.9,-80.55C1593.15,-76.42 637.52,-58.89 337.5,-31 325.93,-29.92 313.61,-28.34 301.84,-26.62"/>
<polygon fill="midnightblue" stroke="midnightblue" points="302.08,-23.11 291.66,-25.07 301.03,-30.03 302.08,-23.11"/>
</g>
<!-- Node6 -->
<g id="node6" class="node">
<title>Node6</title>
<g id="a_node6"><a xlink:title=" ">
<polygon fill="none" stroke="#bfbfbf" points="347,-0.5 347,-30.5 468,-30.5 468,-0.5 347,-0.5"/>
<text text-anchor="start" x="355" y="-18.5" font-family="Helvetica,sans-Serif" font-size="10.00">seerep_msgs/camera</text>
<text text-anchor="middle" x="407.5" y="-7.5" font-family="Helvetica,sans-Serif" font-size="10.00">_intrinsics.pb.h</text>
</a>
</g>
</g>
<!-- Node2&#45;&gt;Node6 -->
<g id="edge5" class="edge">
<title>Node2&#45;&gt;Node6</title>
<path fill="none" stroke="midnightblue" d="M1839.69,-80.73C1609.39,-77.53 767.75,-63.88 478.17,-30.89"/>
<polygon fill="midnightblue" stroke="midnightblue" points="478.44,-27.4 468.1,-29.71 477.63,-34.35 478.44,-27.4"/>
</g>
<!-- Node7 -->
<g id="node7" class="node">
<title>Node7</title>
<g id="a_node7"><a xlink:title=" ">
<polygon fill="none" stroke="#bfbfbf" points="486.5,-0.5 486.5,-30.5 608.5,-30.5 608.5,-0.5 486.5,-0.5"/>
<text text-anchor="start" x="494.5" y="-18.5" font-family="Helvetica,sans-Serif" font-size="10.00">seerep_msgs/camera</text>
<text text-anchor="middle" x="547.5" y="-7.5" font-family="Helvetica,sans-Serif" font-size="10.00">_intrinsics_query.pb.h</text>
</a>
</g>
</g>
<!-- Node2&#45;&gt;Node7 -->
<g id="edge6" class="edge">
<title>Node2&#45;&gt;Node7</title>
<path fill="none" stroke="midnightblue" d="M1839.63,-80.47C1624.28,-76.5 878.87,-60.97 619.02,-31.02"/>
<polygon fill="midnightblue" stroke="midnightblue" points="619.21,-27.51 608.87,-29.81 618.38,-34.47 619.21,-27.51"/>
</g>
<!-- Node8 -->
<g id="node8" class="node">
<title>Node8</title>
<g id="a_node8"><a xlink:title=" ">
<polygon fill="none" stroke="#bfbfbf" points="626.5,-6 626.5,-25 778.5,-25 778.5,-6 626.5,-6"/>
<text text-anchor="middle" x="702.5" y="-13" font-family="Helvetica,sans-Serif" font-size="10.00">seerep_msgs/datatype.pb.h</text>
</a>
</g>
</g>
<!-- Node2&#45;&gt;Node8 -->
<g id="edge7" class="edge">
<title>Node2&#45;&gt;Node8</title>
<path fill="none" stroke="midnightblue" d="M1839.88,-81.38C1674.16,-80.5 1188.24,-74.12 787.5,-31 777.45,-29.92 766.8,-28.4 756.55,-26.75"/>
<polygon fill="midnightblue" stroke="midnightblue" points="756.91,-23.26 746.47,-25.07 755.76,-30.17 756.91,-23.26"/>
</g>
<!-- Node9 -->
<g id="node9" class="node">
<title>Node9</title>
<g id="a_node9"><a xlink:title=" ">
<polygon fill="none" stroke="#bfbfbf" points="797,-6 797,-25 936,-25 936,-6 797,-6"/>
<text text-anchor="middle" x="866.5" y="-13" font-family="Helvetica,sans-Serif" font-size="10.00">seerep_msgs/image.pb.h</text>
</a>
</g>
</g>
<!-- Node2&#45;&gt;Node9 -->
<g id="edge8" class="edge">
<title>Node2&#45;&gt;Node9</title>
<path fill="none" stroke="midnightblue" d="M1839.99,-81.01C1690.51,-79.2 1282.61,-70.7 945.5,-31 936.35,-29.92 926.65,-28.43 917.31,-26.82"/>
<polygon fill="midnightblue" stroke="midnightblue" points="917.81,-23.35 907.35,-25.03 916.58,-30.24 917.81,-23.35"/>
</g>
<!-- Node10 -->
<g id="node10" class="node">
<title>Node10</title>
<g id="a_node10"><a xlink:title=" ">
<polygon fill="none" stroke="#bfbfbf" points="954.5,-0.5 954.5,-30.5 1094.5,-30.5 1094.5,-0.5 954.5,-0.5"/>
<text text-anchor="start" x="962.5" y="-18.5" font-family="Helvetica,sans-Serif" font-size="10.00">seerep_msgs/point_cloud</text>
<text text-anchor="middle" x="1024.5" y="-7.5" font-family="Helvetica,sans-Serif" font-size="10.00">_2.pb.h</text>
</a>
</g>
</g>
<!-- Node2&#45;&gt;Node10 -->
<g id="edge9" class="edge">
<title>Node2&#45;&gt;Node10</title>
<path fill="none" stroke="midnightblue" d="M1839.93,-80.15C1709.55,-76.62 1385.4,-65.03 1104.61,-31.04"/>
<polygon fill="midnightblue" stroke="midnightblue" points="1105,-27.56 1094.65,-29.82 1104.15,-34.51 1105,-27.56"/>
</g>
<!-- Node11 -->
<g id="node11" class="node">
<title>Node11</title>
<g id="a_node11"><a xlink:title=" ">
<polygon fill="none" stroke="#bfbfbf" points="1112.5,-6 1112.5,-25 1246.5,-25 1246.5,-6 1112.5,-6"/>
<text text-anchor="middle" x="1179.5" y="-13" font-family="Helvetica,sans-Serif" font-size="10.00">seerep_msgs/query.pb.h</text>
</a>
</g>
</g>
<!-- Node2&#45;&gt;Node11 -->
<g id="edge10" class="edge">
<title>Node2&#45;&gt;Node11</title>
<path fill="none" stroke="midnightblue" d="M1839.76,-79.05C1726.39,-73.86 1469.69,-59.75 1255.5,-31 1247.08,-29.87 1238.18,-28.41 1229.55,-26.86"/>
<polygon fill="midnightblue" stroke="midnightblue" points="1230.07,-23.4 1219.6,-25.01 1228.79,-30.28 1230.07,-23.4"/>
</g>
<!-- Node12 -->
<g id="node12" class="node">
<title>Node12</title>
<g id="a_node12"><a xlink:title=" ">
<polygon fill="none" stroke="#bfbfbf" points="1265,-0.5 1265,-30.5 1380,-30.5 1380,-0.5 1265,-0.5"/>
<text text-anchor="start" x="1273" y="-18.5" font-family="Helvetica,sans-Serif" font-size="10.00">seerep_msgs/region</text>
<text text-anchor="middle" x="1322.5" y="-7.5" font-family="Helvetica,sans-Serif" font-size="10.00">_of_interest.pb.h</text>
</a>
</g>
</g>
<!-- Node2&#45;&gt;Node12 -->
<g id="edge11" class="edge">
<title>Node2&#45;&gt;Node12</title>
<path fill="none" stroke="midnightblue" d="M1839.83,-77.87C1746.67,-71.62 1559.08,-57.07 1390.23,-30.99"/>
<polygon fill="midnightblue" stroke="midnightblue" points="1390.59,-27.5 1380.16,-29.42 1389.5,-34.42 1390.59,-27.5"/>
</g>
<!-- Node13 -->
<g id="node13" class="node">
<title>Node13</title>
<g id="a_node13"><a xlink:title=" ">
<polygon fill="none" stroke="#bfbfbf" points="1398.5,-0.5 1398.5,-30.5 1530.5,-30.5 1530.5,-0.5 1398.5,-0.5"/>
<text text-anchor="start" x="1406.5" y="-18.5" font-family="Helvetica,sans-Serif" font-size="10.00">seerep_msgs/transform</text>
<text text-anchor="middle" x="1464.5" y="-7.5" font-family="Helvetica,sans-Serif" font-size="10.00">_stamped.pb.h</text>
</a>
</g>
</g>
<!-- Node2&#45;&gt;Node13 -->
<g id="edge12" class="edge">
<title>Node2&#45;&gt;Node13</title>
<path fill="none" stroke="midnightblue" d="M1839.91,-74.19C1770.81,-65.37 1652.24,-49.57 1540.79,-31.17"/>
<polygon fill="midnightblue" stroke="midnightblue" points="1541.16,-27.68 1530.72,-29.49 1540.01,-34.59 1541.16,-27.68"/>
</g>
<!-- Node14 -->
<g id="node14" class="node">
<title>Node14</title>
<g id="a_node14"><a xlink:title=" ">
<polygon fill="none" stroke="#bfbfbf" points="1548.5,-0.5 1548.5,-30.5 1680.5,-30.5 1680.5,-0.5 1548.5,-0.5"/>
<text text-anchor="start" x="1556.5" y="-18.5" font-family="Helvetica,sans-Serif" font-size="10.00">seerep_msgs/transform</text>
<text text-anchor="middle" x="1614.5" y="-7.5" font-family="Helvetica,sans-Serif" font-size="10.00">_stamped_query.pb.h</text>
</a>
</g>
</g>
<!-- Node2&#45;&gt;Node14 -->
<g id="edge13" class="edge">
<title>Node2&#45;&gt;Node14</title>
<path fill="none" stroke="midnightblue" d="M1840,-68.11C1795.28,-57.88 1733.42,-43.72 1685.8,-32.82"/>
<polygon fill="midnightblue" stroke="midnightblue" points="1686.4,-29.37 1675.87,-30.55 1684.84,-36.19 1686.4,-29.37"/>
</g>
<!-- Node15 -->
<g id="node15" class="node">
<title>Node15</title>
<g id="a_node15"><a xlink:title=" ">
<polygon fill="none" stroke="#bfbfbf" points="1699,-0.5 1699,-30.5 1820,-30.5 1820,-0.5 1699,-0.5"/>
<text text-anchor="start" x="1707" y="-18.5" font-family="Helvetica,sans-Serif" font-size="10.00">seerep_msgs/camera</text>
<text text-anchor="middle" x="1759.5" y="-7.5" font-family="Helvetica,sans-Serif" font-size="10.00">_intrinsics.h</text>
</a>
</g>
</g>
<!-- Node2&#45;&gt;Node15 -->
<g id="edge14" class="edge">
<title>Node2&#45;&gt;Node15</title>
<path fill="none" stroke="midnightblue" d="M1868.34,-67.4C1847.94,-57.86 1820.8,-45.16 1798.72,-34.84"/>
<polygon fill="midnightblue" stroke="midnightblue" points="1800.14,-31.64 1789.6,-30.58 1797.18,-37.98 1800.14,-31.64"/>
</g>
<!-- Node16 -->
<g id="node16" class="node">
<title>Node16</title>
<g id="a_node16"><a xlink:title=" ">
<polygon fill="none" stroke="#bfbfbf" points="1838,-0.5 1838,-30.5 1959,-30.5 1959,-0.5 1838,-0.5"/>
<text text-anchor="start" x="1846" y="-18.5" font-family="Helvetica,sans-Serif" font-size="10.00">seerep_msgs/camera</text>
<text text-anchor="middle" x="1898.5" y="-7.5" font-family="Helvetica,sans-Serif" font-size="10.00">_intrinsics_query.h</text>
</a>
</g>
</g>
<!-- Node2&#45;&gt;Node16 -->
<g id="edge15" class="edge">
<title>Node2&#45;&gt;Node16</title>
<path fill="none" stroke="midnightblue" d="M1898.5,-67.4C1898.5,-59.64 1898.5,-49.81 1898.5,-40.86"/>
<polygon fill="midnightblue" stroke="midnightblue" points="1902,-40.58 1898.5,-30.58 1895,-40.58 1902,-40.58"/>
</g>
<!-- Node17 -->
<g id="node17" class="node">
<title>Node17</title>
<g id="a_node17"><a xlink:title=" ">
<polygon fill="none" stroke="#bfbfbf" points="1977,-0.5 1977,-30.5 2098,-30.5 2098,-0.5 1977,-0.5"/>
<text text-anchor="start" x="1985" y="-18.5" font-family="Helvetica,sans-Serif" font-size="10.00">seerep_msgs/dataset</text>
<text text-anchor="middle" x="2037.5" y="-7.5" font-family="Helvetica,sans-Serif" font-size="10.00">_indexable.h</text>
</a>
</g>
</g>
<!-- Node2&#45;&gt;Node17 -->
<g id="edge16" class="edge">
<title>Node2&#45;&gt;Node17</title>
<path fill="none" stroke="midnightblue" d="M1928.66,-67.4C1949.06,-57.86 1976.2,-45.16 1998.28,-34.84"/>
<polygon fill="midnightblue" stroke="midnightblue" points="1999.82,-37.98 2007.4,-30.58 1996.86,-31.64 1999.82,-37.98"/>
</g>
<!-- Node18 -->
<g id="node18" class="node">
<title>Node18</title>
<g id="a_node18"><a xlink:title=" ">
<polygon fill="none" stroke="#bfbfbf" points="2116,-6 2116,-25 2233,-25 2233,-6 2116,-6"/>
<text text-anchor="middle" x="2174.5" y="-13" font-family="Helvetica,sans-Serif" font-size="10.00">seerep_msgs/label.h</text>
</a>
</g>
</g>
<!-- Node2&#45;&gt;Node18 -->
<g id="edge17" class="edge">
<title>Node2&#45;&gt;Node18</title>
<path fill="none" stroke="midnightblue" d="M1957.03,-67.72C2008.04,-55.7 2081.02,-38.52 2128.09,-27.43"/>
<polygon fill="midnightblue" stroke="midnightblue" points="2129.08,-30.79 2138.01,-25.09 2127.47,-23.98 2129.08,-30.79"/>
</g>
<!-- Node19 -->
<g id="node19" class="node">
<title>Node19</title>
<g id="a_node19"><a xlink:title=" ">
<polygon fill="none" stroke="#bfbfbf" points="2251.5,-6 2251.5,-25 2421.5,-25 2421.5,-6 2251.5,-6"/>
<text text-anchor="middle" x="2336.5" y="-13" font-family="Helvetica,sans-Serif" font-size="10.00">seerep_msgs/label_datumaro.h</text>
</a>
</g>
</g>
<!-- Node2&#45;&gt;Node19 -->
<g id="edge18" class="edge">
<title>Node2&#45;&gt;Node19</title>
<path fill="none" stroke="midnightblue" d="M1957.26,-73.01C2025.76,-63.08 2142.37,-46.07 2242.5,-31 2251.95,-29.58 2261.94,-28.06 2271.73,-26.55"/>
<polygon fill="midnightblue" stroke="midnightblue" points="2272.48,-29.98 2281.83,-25 2271.42,-23.06 2272.48,-29.98"/>
</g>
<!-- Node20 -->
<g id="node20" class="node">
<title>Node20</title>
<g id="a_node20"><a xlink:title=" ">
<polygon fill="none" stroke="#bfbfbf" points="2440,-6 2440,-25 2559,-25 2559,-6 2440,-6"/>
<text text-anchor="middle" x="2499.5" y="-13" font-family="Helvetica,sans-Serif" font-size="10.00">seerep_msgs/query.h</text>
</a>
</g>
</g>
<!-- Node2&#45;&gt;Node20 -->
<g id="edge19" class="edge">
<title>Node2&#45;&gt;Node20</title>
<path fill="none" stroke="midnightblue" d="M1957.02,-78.11C2055.27,-71.92 2259.44,-57.01 2430.5,-31 2437.74,-29.9 2445.36,-28.52 2452.79,-27.06"/>
<polygon fill="midnightblue" stroke="midnightblue" points="2453.66,-30.45 2462.76,-25.02 2452.26,-23.59 2453.66,-30.45"/>
</g>
<!-- Node21 -->
<g id="node21" class="node">
<title>Node21</title>
<g id="a_node21"><a xlink:title=" ">
<polygon fill="none" stroke="#bfbfbf" points="2577.5,-6 2577.5,-25 2731.5,-25 2731.5,-6 2577.5,-6"/>
<text text-anchor="middle" x="2654.5" y="-13" font-family="Helvetica,sans-Serif" font-size="10.00">seerep_msgs/query_result.h</text>
</a>
</g>
</g>
<!-- Node2&#45;&gt;Node21 -->
<g id="edge20" class="edge">
<title>Node2&#45;&gt;Node21</title>
<path fill="none" stroke="midnightblue" d="M1957.38,-78.88C2074.23,-73.28 2343.57,-58.38 2568.5,-31 2578.31,-29.81 2588.7,-28.28 2598.75,-26.67"/>
<polygon fill="midnightblue" stroke="midnightblue" points="2599.35,-30.11 2608.64,-25.03 2598.21,-23.21 2599.35,-30.11"/>
</g>
<!-- Node22 -->
<g id="node22" class="node">
<title>Node22</title>
<g id="a_node22"><a xlink:title=" ">
<polygon fill="none" stroke="#bfbfbf" points="2750,-6 2750,-25 2883,-25 2883,-6 2750,-6"/>
<text text-anchor="middle" x="2816.5" y="-13" font-family="Helvetica,sans-Serif" font-size="10.00">seerep_msgs/query_tf.h</text>
</a>
</g>
</g>
<!-- Node2&#45;&gt;Node22 -->
<g id="edge21" class="edge">
<title>Node2&#45;&gt;Node22</title>
<path fill="none" stroke="midnightblue" d="M1957.18,-80.57C2094.61,-77.84 2447.87,-67.54 2740.5,-31 2749.03,-29.94 2758.04,-28.5 2766.76,-26.94"/>
<polygon fill="midnightblue" stroke="midnightblue" points="2767.62,-30.34 2776.81,-25.07 2766.34,-23.46 2767.62,-30.34"/>
</g>
<!-- Node23 -->
<g id="node23" class="node">
<title>Node23</title>
<g id="a_node23"><a xlink:title=" ">
<polygon fill="none" stroke="#bfbfbf" points="2901,-0.5 2901,-30.5 3016,-30.5 3016,-0.5 2901,-0.5"/>
<text text-anchor="start" x="2909" y="-18.5" font-family="Helvetica,sans-Serif" font-size="10.00">seerep_msgs/region</text>
<text text-anchor="middle" x="2958.5" y="-7.5" font-family="Helvetica,sans-Serif" font-size="10.00">_of_interest.h</text>
</a>
</g>
</g>
<!-- Node2&#45;&gt;Node23 -->
<g id="edge22" class="edge">
<title>Node2&#45;&gt;Node23</title>
<path fill="none" stroke="midnightblue" d="M1957.07,-81.9C2109.63,-82.21 2531.79,-78.45 2890.59,-31.12"/>
<polygon fill="midnightblue" stroke="midnightblue" points="2891.2,-34.57 2900.65,-29.78 2890.27,-27.63 2891.2,-34.57"/>
</g>
<!-- Node24 -->
<g id="node24" class="node">
<title>Node24</title>
<g id="a_node24"><a xlink:title=" ">
<polygon fill="none" stroke="#bfbfbf" points="3034.5,-6 3034.5,-25 3234.5,-25 3234.5,-6 3034.5,-6"/>
<text text-anchor="middle" x="3134.5" y="-13" font-family="Helvetica,sans-Serif" font-size="10.00">geometry_msgs/TransformStamped.h</text>
</a>
</g>
</g>
<!-- Node2&#45;&gt;Node24 -->
<g id="edge23" class="edge">
<title>Node2&#45;&gt;Node24</title>
<path fill="none" stroke="midnightblue" d="M1957.28,-80.68C2124.62,-77.95 2617.76,-67.19 3025.5,-31 3039.19,-29.78 3053.81,-28.11 3067.75,-26.32"/>
<polygon fill="midnightblue" stroke="midnightblue" points="3068.29,-29.78 3077.75,-25.01 3067.38,-22.84 3068.29,-29.78"/>
</g>
<!-- Node25 -->
<g id="node25" class="node">
<title>Node25</title>
<g id="a_node25"><a xlink:title=" ">
<polygon fill="none" stroke="#bfbfbf" points="3253,-6 3253,-25 3396,-25 3396,-6 3253,-6"/>
<text text-anchor="middle" x="3324.5" y="-13" font-family="Helvetica,sans-Serif" font-size="10.00">boost/functional/hash.hpp</text>
</a>
</g>
</g>
<!-- Node2&#45;&gt;Node25 -->
<g id="edge24" class="edge">
<title>Node2&#45;&gt;Node25</title>
<path fill="none" stroke="midnightblue" d="M1957.18,-80.39C2181.98,-75.96 2988.52,-58.47 3243.5,-31 3253.09,-29.97 3263.26,-28.47 3273.04,-26.82"/>
<polygon fill="midnightblue" stroke="midnightblue" points="3273.79,-30.25 3283.04,-25.07 3272.58,-23.35 3273.79,-30.25"/>
</g>
<!-- Node26 -->
<g id="node26" class="node">
<title>Node26</title>
<g id="a_node26"><a xlink:title=" ">
<polygon fill="none" stroke="#bfbfbf" points="3414,-6 3414,-25 3539,-25 3539,-6 3414,-6"/>
<text text-anchor="middle" x="3476.5" y="-13" font-family="Helvetica,sans-Serif" font-size="10.00">boost/lexical_cast.hpp</text>
</a>
</g>
</g>
<!-- Node2&#45;&gt;Node26 -->
<g id="edge25" class="edge">
<title>Node2&#45;&gt;Node26</title>
<path fill="none" stroke="midnightblue" d="M1957.14,-80.85C2198.67,-77.98 3117.42,-65 3405.5,-31 3413.67,-30.04 3422.3,-28.62 3430.62,-27.04"/>
<polygon fill="midnightblue" stroke="midnightblue" points="3431.45,-30.45 3440.57,-25.06 3430.08,-23.58 3431.45,-30.45"/>
</g>
<!-- Node27 -->
<g id="node27" class="node">
<title>Node27</title>
<g id="a_node27"><a xlink:title=" ">
<polygon fill="none" stroke="#bfbfbf" points="3557,-6 3557,-25 3670,-25 3670,-6 3557,-6"/>
<text text-anchor="middle" x="3613.5" y="-13" font-family="Helvetica,sans-Serif" font-size="10.00">boost/uuid/uuid.hpp</text>
</a>
</g>
</g>
<!-- Node2&#45;&gt;Node27 -->
<g id="edge26" class="edge">
<title>Node2&#45;&gt;Node27</title>
<path fill="none" stroke="midnightblue" d="M1957.02,-81.19C2212.45,-79.61 3231.09,-70.9 3548.5,-31 3555.83,-30.08 3563.56,-28.71 3571.02,-27.18"/>
<polygon fill="midnightblue" stroke="midnightblue" points="3571.95,-30.56 3580.98,-25.02 3570.46,-23.72 3571.95,-30.56"/>
</g>
<!-- Node28 -->
<g id="node28" class="node">
<title>Node28</title>
<g id="a_node28"><a xlink:title=" ">
<polygon fill="none" stroke="#bfbfbf" points="3688.5,-6 3688.5,-25 3858.5,-25 3858.5,-6 3688.5,-6"/>
<text text-anchor="middle" x="3773.5" y="-13" font-family="Helvetica,sans-Serif" font-size="10.00">boost/uuid/uuid_generators.hpp</text>
</a>
</g>
</g>
<!-- Node2&#45;&gt;Node28 -->
<g id="edge27" class="edge">
<title>Node2&#45;&gt;Node28</title>
<path fill="none" stroke="midnightblue" d="M1957.05,-80.82C2224.73,-77.58 3333.71,-62.45 3679.5,-31 3691.32,-29.93 3703.91,-28.31 3715.91,-26.54"/>
<polygon fill="midnightblue" stroke="midnightblue" points="3716.46,-30 3725.82,-25.03 3715.41,-23.08 3716.46,-30"/>
</g>
<!-- Node29 -->
<g id="node29" class="node">
<title>Node29</title>
<g id="a_node29"><a xlink:title=" ">
<polygon fill="none" stroke="#bfbfbf" points="3877,-6 3877,-25 4004,-25 4004,-6 3877,-6"/>
<text text-anchor="middle" x="3940.5" y="-13" font-family="Helvetica,sans-Serif" font-size="10.00">boost/uuid/uuid_io.hpp</text>
</a>
</g>
</g>
<!-- Node2&#45;&gt;Node29 -->
<g id="edge28" class="edge">
<title>Node2&#45;&gt;Node29</title>
<path fill="none" stroke="midnightblue" d="M1957.46,-81.34C2242.94,-80.38 3483.47,-73.75 3867.5,-31 3876.08,-30.04 3885.16,-28.6 3893.89,-26.99"/>
<polygon fill="midnightblue" stroke="midnightblue" points="3894.78,-30.38 3903.93,-25.03 3893.44,-23.51 3894.78,-30.38"/>
</g>
</g>
</svg>
