<?xml version="1.0" encoding="UTF-8" standalone="no"?>
<!DOCTYPE svg PUBLIC "-//W3C//DTD SVG 1.1//EN"
 "http://www.w3.org/Graphics/SVG/1.1/DTD/svg11.dtd">
<!-- Generated by graphviz version 2.43.0 (0)
 -->
<!-- Title: seerep_srv/seerep_core_fb/src/core_fb_conversion.cpp Pages: 1 -->
<svg width="4963pt" height="173pt"
 viewBox="0.00 0.00 4963.00 173.00" xmlns="http://www.w3.org/2000/svg" xmlns:xlink="http://www.w3.org/1999/xlink">
<g id="graph0" class="graph" transform="scale(1 1) rotate(0) translate(4 169)">
<title>seerep_srv/seerep_core_fb/src/core_fb_conversion.cpp</title>
<!-- Node1 -->
<g id="node1" class="node">
<title>Node1</title>
<g id="a_node1"><a xlink:title=" ">
<polygon fill="#bfbfbf" stroke="black" points="2255,-134.5 2255,-164.5 2422,-164.5 2422,-134.5 2255,-134.5"/>
<text text-anchor="start" x="2263" y="-152.5" font-family="Helvetica,sans-Serif" font-size="10.00">seerep_srv/seerep_core</text>
<text text-anchor="middle" x="2338.5" y="-141.5" font-family="Helvetica,sans-Serif" font-size="10.00">_fb/src/core_fb_conversion.cpp</text>
</a>
</g>
</g>
<!-- Node2 -->
<g id="node2" class="node">
<title>Node2</title>
<g id="a_node2"><a xlink:href="core__fb__conversion_8h.html" target="_top" xlink:title=" ">
<polygon fill="none" stroke="black" points="2281,-67.5 2281,-97.5 2396,-97.5 2396,-67.5 2281,-67.5"/>
<text text-anchor="start" x="2289" y="-85.5" font-family="Helvetica,sans-Serif" font-size="10.00">seerep_core_fb/core</text>
<text text-anchor="middle" x="2338.5" y="-74.5" font-family="Helvetica,sans-Serif" font-size="10.00">_fb_conversion.h</text>
</a>
</g>
</g>
<!-- Node1&#45;&gt;Node2 -->
<g id="edge1" class="edge">
<title>Node1&#45;&gt;Node2</title>
<path fill="none" stroke="midnightblue" d="M2338.5,-134.4C2338.5,-126.64 2338.5,-116.81 2338.5,-107.86"/>
<polygon fill="midnightblue" stroke="midnightblue" points="2342,-107.58 2338.5,-97.58 2335,-107.58 2342,-107.58"/>
</g>
<!-- Node3 -->
<g id="node3" class="node">
<title>Node3</title>
<g id="a_node3"><a xlink:title=" ">
<polygon fill="none" stroke="#bfbfbf" points="0,-6 0,-25 65,-25 65,-6 0,-6"/>
<text text-anchor="middle" x="32.5" y="-13" font-family="Helvetica,sans-Serif" font-size="10.00">functional</text>
</a>
</g>
</g>
<!-- Node2&#45;&gt;Node3 -->
<g id="edge2" class="edge">
<title>Node2&#45;&gt;Node3</title>
<path fill="none" stroke="midnightblue" d="M2280.88,-81.28C1949.87,-79.88 297.2,-70.92 74.5,-31 70.6,-30.3 66.57,-29.3 62.62,-28.14"/>
<polygon fill="midnightblue" stroke="midnightblue" points="63.69,-24.81 53.1,-25.03 61.52,-31.46 63.69,-24.81"/>
</g>
<!-- Node4 -->
<g id="node4" class="node">
<title>Node4</title>
<g id="a_node4"><a xlink:title=" ">
<polygon fill="none" stroke="#bfbfbf" points="83.5,-6 83.5,-25 139.5,-25 139.5,-6 83.5,-6"/>
<text text-anchor="middle" x="111.5" y="-13" font-family="Helvetica,sans-Serif" font-size="10.00">optional</text>
</a>
</g>
</g>
<!-- Node2&#45;&gt;Node4 -->
<g id="edge3" class="edge">
<title>Node2&#45;&gt;Node4</title>
<path fill="none" stroke="midnightblue" d="M2280.9,-81.37C1956.32,-80.5 362.66,-74.03 148.5,-31 145.42,-30.38 142.27,-29.52 139.16,-28.53"/>
<polygon fill="midnightblue" stroke="midnightblue" points="140.15,-25.17 129.56,-25.04 137.76,-31.75 140.15,-25.17"/>
</g>
<!-- Node5 -->
<g id="node5" class="node">
<title>Node5</title>
<g id="a_node5"><a xlink:title=" ">
<polygon fill="none" stroke="#bfbfbf" points="157.5,-6 157.5,-25 285.5,-25 285.5,-6 157.5,-6"/>
<text text-anchor="middle" x="221.5" y="-13" font-family="Helvetica,sans-Serif" font-size="10.00">flatbuffers/flatbuffers.h</text>
</a>
</g>
</g>
<!-- Node2&#45;&gt;Node5 -->
<g id="edge4" class="edge">
<title>Node2&#45;&gt;Node5</title>
<path fill="none" stroke="midnightblue" d="M2280.69,-81.41C1990.93,-80.76 694.72,-75.36 294.5,-31 285.92,-30.05 276.84,-28.61 268.11,-26.99"/>
<polygon fill="midnightblue" stroke="midnightblue" points="268.56,-23.51 258.07,-25.04 267.22,-30.38 268.56,-23.51"/>
</g>
<!-- Node6 -->
<g id="node6" class="node">
<title>Node6</title>
<g id="a_node6"><a xlink:title=" ">
<polygon fill="none" stroke="#bfbfbf" points="304,-6 304,-25 403,-25 403,-6 304,-6"/>
<text text-anchor="middle" x="353.5" y="-13" font-family="Helvetica,sans-Serif" font-size="10.00">flatbuffers/grpc.h</text>
</a>
</g>
</g>
<!-- Node2&#45;&gt;Node6 -->
<g id="edge5" class="edge">
<title>Node2&#45;&gt;Node6</title>
<path fill="none" stroke="midnightblue" d="M2280.78,-81.66C2001.34,-82.16 787.11,-81.35 412.5,-31 406.12,-30.14 399.43,-28.87 392.94,-27.43"/>
<polygon fill="midnightblue" stroke="midnightblue" points="393.51,-23.97 382.97,-25.06 391.89,-30.78 393.51,-23.97"/>
</g>
<!-- Node7 -->
<g id="node7" class="node">
<title>Node7</title>
<g id="a_node7"><a xlink:title=" ">
<polygon fill="none" stroke="#bfbfbf" points="421.5,-0.5 421.5,-30.5 551.5,-30.5 551.5,-0.5 421.5,-0.5"/>
<text text-anchor="start" x="429.5" y="-18.5" font-family="Helvetica,sans-Serif" font-size="10.00">seerep_msgs/camera</text>
<text text-anchor="middle" x="486.5" y="-7.5" font-family="Helvetica,sans-Serif" font-size="10.00">_intrinsics_generated.h</text>
</a>
</g>
</g>
<!-- Node2&#45;&gt;Node7 -->
<g id="edge6" class="edge">
<title>Node2&#45;&gt;Node7</title>
<path fill="none" stroke="midnightblue" d="M2280.9,-81.14C2017.58,-79.32 925.9,-69.6 561.82,-30.99"/>
<polygon fill="midnightblue" stroke="midnightblue" points="562.1,-27.5 551.78,-29.9 561.34,-34.46 562.1,-27.5"/>
</g>
<!-- Node8 -->
<g id="node8" class="node">
<title>Node8</title>
<g id="a_node8"><a xlink:title=" ">
<polygon fill="none" stroke="#bfbfbf" points="570,-0.5 570,-30.5 733,-30.5 733,-0.5 570,-0.5"/>
<text text-anchor="start" x="578" y="-18.5" font-family="Helvetica,sans-Serif" font-size="10.00">seerep_msgs/camera</text>
<text text-anchor="middle" x="651.5" y="-7.5" font-family="Helvetica,sans-Serif" font-size="10.00">_intrinsics_query_generated.h</text>
</a>
</g>
</g>
<!-- Node2&#45;&gt;Node8 -->
<g id="edge7" class="edge">
<title>Node2&#45;&gt;Node8</title>
<path fill="none" stroke="midnightblue" d="M2280.66,-80.67C2034.26,-76.96 1070.23,-60.88 743.77,-31.12"/>
<polygon fill="midnightblue" stroke="midnightblue" points="743.64,-27.59 733.36,-30.14 742.99,-34.56 743.64,-27.59"/>
</g>
<!-- Node9 -->
<g id="node9" class="node">
<title>Node9</title>
<g id="a_node9"><a xlink:title=" ">
<polygon fill="none" stroke="#bfbfbf" points="751,-6 751,-25 868,-25 868,-6 751,-6"/>
<text text-anchor="middle" x="809.5" y="-13" font-family="Helvetica,sans-Serif" font-size="10.00">seerep_msgs/aabb.h</text>
</a>
</g>
</g>
<!-- Node2&#45;&gt;Node9 -->
<g id="edge8" class="edge">
<title>Node2&#45;&gt;Node9</title>
<path fill="none" stroke="midnightblue" d="M2280.81,-80.88C2045.22,-78.16 1155.46,-65.72 876.5,-31 868.95,-30.06 860.98,-28.68 853.29,-27.15"/>
<polygon fill="midnightblue" stroke="midnightblue" points="853.89,-23.7 843.38,-25.06 852.45,-30.55 853.89,-23.7"/>
</g>
<!-- Node10 -->
<g id="node10" class="node">
<title>Node10</title>
<g id="a_node10"><a xlink:title=" ">
<polygon fill="none" stroke="#bfbfbf" points="886,-0.5 886,-30.5 1007,-30.5 1007,-0.5 886,-0.5"/>
<text text-anchor="start" x="894" y="-18.5" font-family="Helvetica,sans-Serif" font-size="10.00">seerep_msgs/camera</text>
<text text-anchor="middle" x="946.5" y="-7.5" font-family="Helvetica,sans-Serif" font-size="10.00">_intrinsics.h</text>
</a>
</g>
</g>
<!-- Node2&#45;&gt;Node10 -->
<g id="edge9" class="edge">
<title>Node2&#45;&gt;Node10</title>
<path fill="none" stroke="midnightblue" d="M2280.75,-80.6C2062.34,-76.97 1285.93,-62.24 1017.46,-31.08"/>
<polygon fill="midnightblue" stroke="midnightblue" points="1017.7,-27.59 1007.36,-29.87 1016.87,-34.54 1017.7,-27.59"/>
</g>
<!-- Node11 -->
<g id="node11" class="node">
<title>Node11</title>
<g id="a_node11"><a xlink:title=" ">
<polygon fill="none" stroke="#bfbfbf" points="1025,-0.5 1025,-30.5 1146,-30.5 1146,-0.5 1025,-0.5"/>
<text text-anchor="start" x="1033" y="-18.5" font-family="Helvetica,sans-Serif" font-size="10.00">seerep_msgs/camera</text>
<text text-anchor="middle" x="1085.5" y="-7.5" font-family="Helvetica,sans-Serif" font-size="10.00">_intrinsics_query.h</text>
</a>
</g>
</g>
<!-- Node2&#45;&gt;Node11 -->
<g id="edge10" class="edge">
<title>Node2&#45;&gt;Node11</title>
<path fill="none" stroke="midnightblue" d="M2280.98,-80.28C2078.27,-75.78 1396.9,-59 1156.2,-30.9"/>
<polygon fill="midnightblue" stroke="midnightblue" points="1156.45,-27.4 1146.11,-29.68 1155.62,-34.35 1156.45,-27.4"/>
</g>
<!-- Node12 -->
<g id="node12" class="node">
<title>Node12</title>
<g id="a_node12"><a xlink:title=" ">
<polygon fill="none" stroke="#bfbfbf" points="1164.5,-0.5 1164.5,-30.5 1292.5,-30.5 1292.5,-0.5 1164.5,-0.5"/>
<text text-anchor="start" x="1172.5" y="-18.5" font-family="Helvetica,sans-Serif" font-size="10.00">seerep_msgs/datatype</text>
<text text-anchor="middle" x="1228.5" y="-7.5" font-family="Helvetica,sans-Serif" font-size="10.00">_generated.h</text>
</a>
</g>
</g>
<!-- Node2&#45;&gt;Node12 -->
<g id="edge11" class="edge">
<title>Node2&#45;&gt;Node12</title>
<path fill="none" stroke="midnightblue" d="M2280.91,-81.66C2124.84,-81.48 1680.62,-76.74 1302.55,-30.99"/>
<polygon fill="midnightblue" stroke="midnightblue" points="1302.86,-27.51 1292.51,-29.77 1302.01,-34.46 1302.86,-27.51"/>
</g>
<!-- Node13 -->
<g id="node13" class="node">
<title>Node13</title>
<g id="a_node13"><a xlink:title=" ">
<polygon fill="none" stroke="#bfbfbf" points="1311,-6 1311,-25 1490,-25 1490,-6 1311,-6"/>
<text text-anchor="middle" x="1400.5" y="-13" font-family="Helvetica,sans-Serif" font-size="10.00">seerep_msgs/image_generated.h</text>
</a>
</g>
</g>
<!-- Node2&#45;&gt;Node13 -->
<g id="edge12" class="edge">
<title>Node2&#45;&gt;Node13</title>
<path fill="none" stroke="midnightblue" d="M2280.89,-79.73C2144.7,-75.17 1792.35,-61.2 1499.5,-31 1487.62,-29.77 1474.98,-28.16 1462.85,-26.46"/>
<polygon fill="midnightblue" stroke="midnightblue" points="1463.2,-22.97 1452.8,-25.01 1462.2,-29.9 1463.2,-22.97"/>
</g>
<!-- Node14 -->
<g id="node14" class="node">
<title>Node14</title>
<g id="a_node14"><a xlink:title=" ">
<polygon fill="none" stroke="#bfbfbf" points="1508.5,-0.5 1508.5,-30.5 1648.5,-30.5 1648.5,-0.5 1508.5,-0.5"/>
<text text-anchor="start" x="1516.5" y="-18.5" font-family="Helvetica,sans-Serif" font-size="10.00">seerep_msgs/point_cloud</text>
<text text-anchor="middle" x="1578.5" y="-7.5" font-family="Helvetica,sans-Serif" font-size="10.00">_2_generated.h</text>
</a>
</g>
</g>
<!-- Node2&#45;&gt;Node14 -->
<g id="edge13" class="edge">
<title>Node2&#45;&gt;Node14</title>
<path fill="none" stroke="midnightblue" d="M2280.89,-79.32C2164.98,-74.48 1895.17,-60.92 1658.81,-31.08"/>
<polygon fill="midnightblue" stroke="midnightblue" points="1659.01,-27.57 1648.65,-29.78 1658.13,-34.52 1659.01,-27.57"/>
</g>
<!-- Node15 -->
<g id="node15" class="node">
<title>Node15</title>
<g id="a_node15"><a xlink:title=" ">
<polygon fill="none" stroke="#bfbfbf" points="1667,-0.5 1667,-30.5 1824,-30.5 1824,-0.5 1667,-0.5"/>
<text text-anchor="start" x="1675" y="-18.5" font-family="Helvetica,sans-Serif" font-size="10.00">seerep_msgs/point_stamped</text>
<text text-anchor="middle" x="1745.5" y="-7.5" font-family="Helvetica,sans-Serif" font-size="10.00">_generated.h</text>
</a>
</g>
</g>
<!-- Node2&#45;&gt;Node15 -->
<g id="edge14" class="edge">
<title>Node2&#45;&gt;Node15</title>
<path fill="none" stroke="midnightblue" d="M2280.8,-76.93C2188.7,-69.38 2002.55,-53.03 1834.19,-31.03"/>
<polygon fill="midnightblue" stroke="midnightblue" points="1834.52,-27.55 1824.15,-29.71 1833.6,-34.49 1834.52,-27.55"/>
</g>
<!-- Node16 -->
<g id="node16" class="node">
<title>Node16</title>
<g id="a_node16"><a xlink:title=" ">
<polygon fill="none" stroke="#bfbfbf" points="1842.5,-0.5 1842.5,-30.5 1960.5,-30.5 1960.5,-0.5 1842.5,-0.5"/>
<text text-anchor="start" x="1850.5" y="-18.5" font-family="Helvetica,sans-Serif" font-size="10.00">seerep_msgs/project</text>
<text text-anchor="middle" x="1901.5" y="-7.5" font-family="Helvetica,sans-Serif" font-size="10.00">_info.h</text>
</a>
</g>
</g>
<!-- Node2&#45;&gt;Node16 -->
<g id="edge15" class="edge">
<title>Node2&#45;&gt;Node16</title>
<path fill="none" stroke="midnightblue" d="M2280.77,-74.94C2210.03,-66.61 2086.31,-51.06 1970.86,-31.16"/>
<polygon fill="midnightblue" stroke="midnightblue" points="1971.24,-27.68 1960.79,-29.41 1970.04,-34.57 1971.24,-27.68"/>
</g>
<!-- Node17 -->
<g id="node17" class="node">
<title>Node17</title>
<g id="a_node17"><a xlink:title=" ">
<polygon fill="none" stroke="#bfbfbf" points="1978.5,-0.5 1978.5,-30.5 2096.5,-30.5 2096.5,-0.5 1978.5,-0.5"/>
<text text-anchor="start" x="1986.5" y="-18.5" font-family="Helvetica,sans-Serif" font-size="10.00">seerep_msgs/project</text>
<text text-anchor="middle" x="2037.5" y="-7.5" font-family="Helvetica,sans-Serif" font-size="10.00">_info_generated.h</text>
</a>
</g>
</g>
<!-- Node2&#45;&gt;Node17 -->
<g id="edge16" class="edge">
<title>Node2&#45;&gt;Node17</title>
<path fill="none" stroke="midnightblue" d="M2280.82,-69.04C2231.11,-58.31 2159.22,-42.79 2106.48,-31.39"/>
<polygon fill="midnightblue" stroke="midnightblue" points="2107.04,-27.94 2096.53,-29.25 2105.56,-34.78 2107.04,-27.94"/>
</g>
<!-- Node18 -->
<g id="node18" class="node">
<title>Node18</title>
<g id="a_node18"><a xlink:title=" ">
<polygon fill="none" stroke="#bfbfbf" points="2114.5,-0.5 2114.5,-30.5 2232.5,-30.5 2232.5,-0.5 2114.5,-0.5"/>
<text text-anchor="start" x="2122.5" y="-18.5" font-family="Helvetica,sans-Serif" font-size="10.00">seerep_msgs/project</text>
<text text-anchor="middle" x="2173.5" y="-7.5" font-family="Helvetica,sans-Serif" font-size="10.00">_infos_generated.h</text>
</a>
</g>
</g>
<!-- Node2&#45;&gt;Node18 -->
<g id="edge17" class="edge">
<title>Node2&#45;&gt;Node18</title>
<path fill="none" stroke="midnightblue" d="M2302.7,-67.4C2278.05,-57.69 2245.11,-44.71 2218.66,-34.29"/>
<polygon fill="midnightblue" stroke="midnightblue" points="2219.82,-30.99 2209.23,-30.58 2217.25,-37.5 2219.82,-30.99"/>
</g>
<!-- Node19 -->
<g id="node19" class="node">
<title>Node19</title>
<g id="a_node19"><a xlink:title=" ">
<polygon fill="none" stroke="#bfbfbf" points="2250.5,-6 2250.5,-25 2426.5,-25 2426.5,-6 2250.5,-6"/>
<text text-anchor="middle" x="2338.5" y="-13" font-family="Helvetica,sans-Serif" font-size="10.00">seerep_msgs/query_generated.h</text>
</a>
</g>
</g>
<!-- Node2&#45;&gt;Node19 -->
<g id="edge18" class="edge">
<title>Node2&#45;&gt;Node19</title>
<path fill="none" stroke="midnightblue" d="M2338.5,-67.4C2338.5,-58.06 2338.5,-45.71 2338.5,-35.52"/>
<polygon fill="midnightblue" stroke="midnightblue" points="2342,-35.19 2338.5,-25.19 2335,-35.19 2342,-35.19"/>
</g>
<!-- Node20 -->
<g id="node20" class="node">
<title>Node20</title>
<g id="a_node20"><a xlink:title=" ">
<polygon fill="none" stroke="#bfbfbf" points="2444.5,-0.5 2444.5,-30.5 2602.5,-30.5 2602.5,-0.5 2444.5,-0.5"/>
<text text-anchor="start" x="2452.5" y="-18.5" font-family="Helvetica,sans-Serif" font-size="10.00">seerep_msgs/query_instance</text>
<text text-anchor="middle" x="2523.5" y="-7.5" font-family="Helvetica,sans-Serif" font-size="10.00">_generated.h</text>
</a>
</g>
</g>
<!-- Node2&#45;&gt;Node20 -->
<g id="edge19" class="edge">
<title>Node2&#45;&gt;Node20</title>
<path fill="none" stroke="midnightblue" d="M2378.64,-67.4C2406.52,-57.6 2443.86,-44.48 2473.65,-34.02"/>
<polygon fill="midnightblue" stroke="midnightblue" points="2475.16,-37.19 2483.44,-30.58 2472.84,-30.59 2475.16,-37.19"/>
</g>
<!-- Node21 -->
<g id="node21" class="node">
<title>Node21</title>
<g id="a_node21"><a xlink:title=" ">
<polygon fill="none" stroke="#bfbfbf" points="2620,-0.5 2620,-30.5 2735,-30.5 2735,-0.5 2620,-0.5"/>
<text text-anchor="start" x="2628" y="-18.5" font-family="Helvetica,sans-Serif" font-size="10.00">seerep_msgs/region</text>
<text text-anchor="middle" x="2677.5" y="-7.5" font-family="Helvetica,sans-Serif" font-size="10.00">_of_interest.h</text>
</a>
</g>
</g>
<!-- Node2&#45;&gt;Node21 -->
<g id="edge20" class="edge">
<title>Node2&#45;&gt;Node21</title>
<path fill="none" stroke="midnightblue" d="M2396.13,-71.42C2449.18,-62 2530.34,-47.27 2609.75,-31.32"/>
<polygon fill="midnightblue" stroke="midnightblue" points="2610.82,-34.67 2619.93,-29.27 2609.44,-27.81 2610.82,-34.67"/>
</g>
<!-- Node22 -->
<g id="node22" class="node">
<title>Node22</title>
<g id="a_node22"><a xlink:title=" ">
<polygon fill="none" stroke="#bfbfbf" points="2753.5,-0.5 2753.5,-30.5 2885.5,-30.5 2885.5,-0.5 2753.5,-0.5"/>
<text text-anchor="start" x="2761.5" y="-18.5" font-family="Helvetica,sans-Serif" font-size="10.00">seerep_msgs/transform</text>
<text text-anchor="middle" x="2819.5" y="-7.5" font-family="Helvetica,sans-Serif" font-size="10.00">_stamped_generated.h</text>
</a>
</g>
</g>
<!-- Node2&#45;&gt;Node22 -->
<g id="edge21" class="edge">
<title>Node2&#45;&gt;Node22</title>
<path fill="none" stroke="midnightblue" d="M2396.16,-75.56C2473.02,-67.37 2613.5,-51.45 2743.18,-31.15"/>
<polygon fill="midnightblue" stroke="midnightblue" points="2743.96,-34.57 2753.29,-29.55 2742.87,-27.65 2743.96,-34.57"/>
</g>
<!-- Node23 -->
<g id="node23" class="node">
<title>Node23</title>
<g id="a_node23"><a xlink:title=" ">
<polygon fill="none" stroke="#bfbfbf" points="2904,-0.5 2904,-30.5 3065,-30.5 3065,-0.5 2904,-0.5"/>
<text text-anchor="start" x="2912" y="-18.5" font-family="Helvetica,sans-Serif" font-size="10.00">seerep_msgs/transform</text>
<text text-anchor="middle" x="2984.5" y="-7.5" font-family="Helvetica,sans-Serif" font-size="10.00">_stamped_query_generated.h</text>
</a>
</g>
</g>
<!-- Node2&#45;&gt;Node23 -->
<g id="edge22" class="edge">
<title>Node2&#45;&gt;Node23</title>
<path fill="none" stroke="midnightblue" d="M2396.27,-77.58C2495.68,-70.53 2705.67,-54.39 2893.52,-31.07"/>
<polygon fill="midnightblue" stroke="midnightblue" points="2894.1,-34.52 2903.58,-29.81 2893.23,-27.58 2894.1,-34.52"/>
</g>
<!-- Node24 -->
<g id="node24" class="node">
<title>Node24</title>
<g id="a_node24"><a xlink:title=" ">
<polygon fill="none" stroke="#bfbfbf" points="3083,-0.5 3083,-30.5 3214,-30.5 3214,-0.5 3083,-0.5"/>
<text text-anchor="start" x="3091" y="-18.5" font-family="Helvetica,sans-Serif" font-size="10.00">seerep_msgs/uuids_per</text>
<text text-anchor="middle" x="3148.5" y="-7.5" font-family="Helvetica,sans-Serif" font-size="10.00">_project_generated.h</text>
</a>
</g>
</g>
<!-- Node2&#45;&gt;Node24 -->
<g id="edge23" class="edge">
<title>Node2&#45;&gt;Node24</title>
<path fill="none" stroke="midnightblue" d="M2396,-80C2518.66,-76.27 2815.13,-64.44 3072.51,-31.16"/>
<polygon fill="midnightblue" stroke="midnightblue" points="3073.34,-34.58 3082.8,-29.82 3072.43,-27.64 3073.34,-34.58"/>
</g>
<!-- Node25 -->
<g id="node25" class="node">
<title>Node25</title>
<g id="a_node25"><a xlink:title=" ">
<polygon fill="none" stroke="#bfbfbf" points="3232,-0.5 3232,-30.5 3353,-30.5 3353,-0.5 3232,-0.5"/>
<text text-anchor="start" x="3240" y="-18.5" font-family="Helvetica,sans-Serif" font-size="10.00">seerep_msgs/dataset</text>
<text text-anchor="middle" x="3292.5" y="-7.5" font-family="Helvetica,sans-Serif" font-size="10.00">_indexable.h</text>
</a>
</g>
</g>
<!-- Node2&#45;&gt;Node25 -->
<g id="edge24" class="edge">
<title>Node2&#45;&gt;Node25</title>
<path fill="none" stroke="midnightblue" d="M2396.25,-81.2C2536.34,-79.82 2905.39,-72.35 3221.36,-31.16"/>
<polygon fill="midnightblue" stroke="midnightblue" points="3222.18,-34.58 3231.63,-29.81 3221.26,-27.64 3222.18,-34.58"/>
</g>
<!-- Node26 -->
<g id="node26" class="node">
<title>Node26</title>
<g id="a_node26"><a xlink:title=" ">
<polygon fill="none" stroke="#bfbfbf" points="3371.5,-0.5 3371.5,-30.5 3505.5,-30.5 3505.5,-0.5 3371.5,-0.5"/>
<text text-anchor="start" x="3379.5" y="-18.5" font-family="Helvetica,sans-Serif" font-size="10.00">seerep_msgs/label_with</text>
<text text-anchor="middle" x="3438.5" y="-7.5" font-family="Helvetica,sans-Serif" font-size="10.00">_instance.h</text>
</a>
</g>
</g>
<!-- Node2&#45;&gt;Node26 -->
<g id="edge25" class="edge">
<title>Node2&#45;&gt;Node26</title>
<path fill="none" stroke="midnightblue" d="M2396.19,-81.46C2550.99,-80.76 2988.43,-74.84 3361.26,-31.03"/>
<polygon fill="midnightblue" stroke="midnightblue" points="3361.92,-34.47 3371.44,-29.82 3361.1,-27.52 3361.92,-34.47"/>
</g>
<!-- Node27 -->
<g id="node27" class="node">
<title>Node27</title>
<g id="a_node27"><a xlink:title=" ">
<polygon fill="none" stroke="#bfbfbf" points="3524,-6 3524,-25 3643,-25 3643,-6 3524,-6"/>
<text text-anchor="middle" x="3583.5" y="-13" font-family="Helvetica,sans-Serif" font-size="10.00">seerep_msgs/query.h</text>
</a>
</g>
</g>
<!-- Node2&#45;&gt;Node27 -->
<g id="edge26" class="edge">
<title>Node2&#45;&gt;Node27</title>
<path fill="none" stroke="midnightblue" d="M2396.04,-80.28C2600.89,-75.75 3294.25,-58.68 3514.5,-31 3522.27,-30.02 3530.47,-28.63 3538.39,-27.09"/>
<polygon fill="midnightblue" stroke="midnightblue" points="3539.14,-30.51 3548.23,-25.07 3537.73,-23.65 3539.14,-30.51"/>
</g>
<!-- Node28 -->
<g id="node28" class="node">
<title>Node28</title>
<g id="a_node28"><a xlink:title=" ">
<polygon fill="none" stroke="#bfbfbf" points="3661.5,-6 3661.5,-25 3815.5,-25 3815.5,-6 3661.5,-6"/>
<text text-anchor="middle" x="3738.5" y="-13" font-family="Helvetica,sans-Serif" font-size="10.00">seerep_msgs/query_result.h</text>
</a>
</g>
</g>
<!-- Node2&#45;&gt;Node28 -->
<g id="edge27" class="edge">
<title>Node2&#45;&gt;Node28</title>
<path fill="none" stroke="midnightblue" d="M2396.32,-81.92C2580.36,-82.71 3168.8,-80.86 3652.5,-31 3662.89,-29.93 3673.92,-28.38 3684.49,-26.7"/>
<polygon fill="midnightblue" stroke="midnightblue" points="3685.16,-30.13 3694.46,-25.05 3684.02,-23.23 3685.16,-30.13"/>
</g>
<!-- Node29 -->
<g id="node29" class="node">
<title>Node29</title>
<g id="a_node29"><a xlink:title=" ">
<polygon fill="none" stroke="#bfbfbf" points="3834,-6 3834,-25 3967,-25 3967,-6 3834,-6"/>
<text text-anchor="middle" x="3900.5" y="-13" font-family="Helvetica,sans-Serif" font-size="10.00">seerep_msgs/query_tf.h</text>
</a>
</g>
</g>
<!-- Node2&#45;&gt;Node29 -->
<g id="edge28" class="edge">
<title>Node2&#45;&gt;Node29</title>
<path fill="none" stroke="midnightblue" d="M2396.31,-80.73C2634.43,-77.38 3540.22,-62.76 3824.5,-31 3833.42,-30 3842.87,-28.54 3851.95,-26.92"/>
<polygon fill="midnightblue" stroke="midnightblue" points="3852.83,-30.32 3862.01,-25.04 3851.54,-23.43 3852.83,-30.32"/>
</g>
<!-- Node30 -->
<g id="node30" class="node">
<title>Node30</title>
<g id="a_node30"><a xlink:title=" ">
<polygon fill="none" stroke="#bfbfbf" points="3985.5,-6 3985.5,-25 4185.5,-25 4185.5,-6 3985.5,-6"/>
<text text-anchor="middle" x="4085.5" y="-13" font-family="Helvetica,sans-Serif" font-size="10.00">geometry_msgs/TransformStamped.h</text>
</a>
</g>
</g>
<!-- Node2&#45;&gt;Node30 -->
<g id="edge29" class="edge">
<title>Node2&#45;&gt;Node30</title>
<path fill="none" stroke="midnightblue" d="M2396.29,-81.84C2607.76,-82.61 3359.39,-81.43 3976.5,-31 3990.51,-29.86 4005.48,-28.17 4019.69,-26.35"/>
<polygon fill="midnightblue" stroke="midnightblue" points="4020.43,-29.78 4029.89,-25 4019.51,-22.84 4020.43,-29.78"/>
</g>
<!-- Node31 -->
<g id="node31" class="node">
<title>Node31</title>
<g id="a_node31"><a xlink:title=" ">
<polygon fill="none" stroke="#bfbfbf" points="4204,-6 4204,-25 4347,-25 4347,-6 4204,-6"/>
<text text-anchor="middle" x="4275.5" y="-13" font-family="Helvetica,sans-Serif" font-size="10.00">boost/functional/hash.hpp</text>
</a>
</g>
</g>
<!-- Node2&#45;&gt;Node31 -->
<g id="edge30" class="edge">
<title>Node2&#45;&gt;Node31</title>
<path fill="none" stroke="midnightblue" d="M2396.32,-81.1C2669.55,-79 3833.16,-68.05 4194.5,-31 4204.41,-29.98 4214.94,-28.44 4225,-26.74"/>
<polygon fill="midnightblue" stroke="midnightblue" points="4225.64,-30.19 4234.88,-25 4224.42,-23.29 4225.64,-30.19"/>
</g>
<!-- Node32 -->
<g id="node32" class="node">
<title>Node32</title>
<g id="a_node32"><a xlink:title=" ">
<polygon fill="none" stroke="#bfbfbf" points="4365,-6 4365,-25 4490,-25 4490,-6 4365,-6"/>
<text text-anchor="middle" x="4427.5" y="-13" font-family="Helvetica,sans-Serif" font-size="10.00">boost/lexical_cast.hpp</text>
</a>
</g>
</g>
<!-- Node2&#45;&gt;Node32 -->
<g id="edge31" class="edge">
<title>Node2&#45;&gt;Node32</title>
<path fill="none" stroke="midnightblue" d="M2396.05,-81.43C2683.09,-80.88 3961.71,-75.9 4356.5,-31 4364.76,-30.06 4373.5,-28.64 4381.9,-27.05"/>
<polygon fill="midnightblue" stroke="midnightblue" points="4382.82,-30.43 4391.94,-25.04 4381.45,-23.57 4382.82,-30.43"/>
</g>
<!-- Node33 -->
<g id="node33" class="node">
<title>Node33</title>
<g id="a_node33"><a xlink:title=" ">
<polygon fill="none" stroke="#bfbfbf" points="4508,-6 4508,-25 4621,-25 4621,-6 4508,-6"/>
<text text-anchor="middle" x="4564.5" y="-13" font-family="Helvetica,sans-Serif" font-size="10.00">boost/uuid/uuid.hpp</text>
</a>
</g>
</g>
<!-- Node2&#45;&gt;Node33 -->
<g id="edge32" class="edge">
<title>Node2&#45;&gt;Node33</title>
<path fill="none" stroke="midnightblue" d="M2396.14,-81.68C2695.5,-82.39 4075.3,-82.76 4499.5,-31 4506.84,-30.1 4514.57,-28.75 4522.03,-27.23"/>
<polygon fill="midnightblue" stroke="midnightblue" points="4522.95,-30.61 4531.98,-25.07 4521.47,-23.77 4522.95,-30.61"/>
</g>
<!-- Node34 -->
<g id="node34" class="node">
<title>Node34</title>
<g id="a_node34"><a xlink:title=" ">
<polygon fill="none" stroke="#bfbfbf" points="4639.5,-6 4639.5,-25 4809.5,-25 4809.5,-6 4639.5,-6"/>
<text text-anchor="middle" x="4724.5" y="-13" font-family="Helvetica,sans-Serif" font-size="10.00">boost/uuid/uuid_generators.hpp</text>
</a>
</g>
</g>
<!-- Node2&#45;&gt;Node34 -->
<g id="edge33" class="edge">
<title>Node2&#45;&gt;Node34</title>
<path fill="none" stroke="midnightblue" d="M2396.23,-81.25C2706.35,-79.78 4177.39,-70.77 4630.5,-31 4642.45,-29.95 4655.19,-28.33 4667.31,-26.55"/>
<polygon fill="midnightblue" stroke="midnightblue" points="4667.95,-29.99 4677.31,-25.02 4666.89,-23.07 4667.95,-29.99"/>
</g>
<!-- Node35 -->
<g id="node35" class="node">
<title>Node35</title>
<g id="a_node35"><a xlink:title=" ">
<polygon fill="none" stroke="#bfbfbf" points="4828,-6 4828,-25 4955,-25 4955,-6 4828,-6"/>
<text text-anchor="middle" x="4891.5" y="-13" font-family="Helvetica,sans-Serif" font-size="10.00">boost/uuid/uuid_io.hpp</text>
</a>
</g>
</g>
<!-- Node2&#45;&gt;Node35 -->
<g id="edge34" class="edge">
<title>Node2&#45;&gt;Node35</title>
<path fill="none" stroke="midnightblue" d="M2396.13,-81.7C2721.03,-82.63 4326.82,-84.42 4818.5,-31 4827.09,-30.07 4836.17,-28.63 4844.9,-27.02"/>
<polygon fill="midnightblue" stroke="midnightblue" points="4845.78,-30.42 4854.93,-25.07 4844.45,-23.54 4845.78,-30.42"/>
</g>
</g>
</svg>
