<?xml version="1.0" encoding="UTF-8" standalone="no"?>
<!DOCTYPE svg PUBLIC "-//W3C//DTD SVG 1.1//EN"
 "http://www.w3.org/Graphics/SVG/1.1/DTD/svg11.dtd">
<!-- Generated by graphviz version 2.43.0 (0)
 -->
<!-- Title: seerep&#45;srv/seerep&#45;core&#45;fb/src/core&#45;fb&#45;conversion.cpp Pages: 1 -->
<svg width="3504pt" height="173pt"
 viewBox="0.00 0.00 3504.00 173.00" xmlns="http://www.w3.org/2000/svg" xmlns:xlink="http://www.w3.org/1999/xlink">
<g id="graph0" class="graph" transform="scale(1 1) rotate(0) translate(4 169)">
<title>seerep&#45;srv/seerep&#45;core&#45;fb/src/core&#45;fb&#45;conversion.cpp</title>
<!-- Node1 -->
<g id="node1" class="node">
<title>Node1</title>
<g id="a_node1"><a xlink:title=" ">
<polygon fill="#bfbfbf" stroke="black" points="1607.5,-134.5 1607.5,-164.5 1769.5,-164.5 1769.5,-134.5 1607.5,-134.5"/>
<text text-anchor="start" x="1615.5" y="-152.5" font-family="Helvetica,sans-Serif" font-size="10.00">seerep&#45;srv/seerep&#45;core</text>
<text text-anchor="middle" x="1688.5" y="-141.5" font-family="Helvetica,sans-Serif" font-size="10.00">&#45;fb/src/core&#45;fb&#45;conversion.cpp</text>
</a>
</g>
</g>
<!-- Node2 -->
<g id="node2" class="node">
<title>Node2</title>
<g id="a_node2"><a xlink:href="core-fb-conversion_8h.html" target="_top" xlink:title=" ">
<polygon fill="none" stroke="black" points="1632.5,-67.5 1632.5,-97.5 1744.5,-97.5 1744.5,-67.5 1632.5,-67.5"/>
<text text-anchor="start" x="1640.5" y="-85.5" font-family="Helvetica,sans-Serif" font-size="10.00">seerep&#45;core&#45;fb/core</text>
<text text-anchor="middle" x="1688.5" y="-74.5" font-family="Helvetica,sans-Serif" font-size="10.00">&#45;fb&#45;conversion.h</text>
</a>
</g>
</g>
<!-- Node1&#45;&gt;Node2 -->
<g id="edge1" class="edge">
<title>Node1&#45;&gt;Node2</title>
<path fill="none" stroke="midnightblue" d="M1688.5,-134.4C1688.5,-126.64 1688.5,-116.81 1688.5,-107.86"/>
<polygon fill="midnightblue" stroke="midnightblue" points="1692,-107.58 1688.5,-97.58 1685,-107.58 1692,-107.58"/>
</g>
<!-- Node3 -->
<g id="node3" class="node">
<title>Node3</title>
<g id="a_node3"><a xlink:title=" ">
<polygon fill="none" stroke="#bfbfbf" points="0,-6 0,-25 65,-25 65,-6 0,-6"/>
<text text-anchor="middle" x="32.5" y="-13" font-family="Helvetica,sans-Serif" font-size="10.00">functional</text>
</a>
</g>
</g>
<!-- Node2&#45;&gt;Node3 -->
<g id="edge2" class="edge">
<title>Node2&#45;&gt;Node3</title>
<path fill="none" stroke="midnightblue" d="M1632.29,-80.74C1365.12,-77.01 230.02,-59.6 74.5,-31 70.79,-30.32 66.97,-29.37 63.21,-28.28"/>
<polygon fill="midnightblue" stroke="midnightblue" points="64.12,-24.89 53.53,-25.15 61.97,-31.55 64.12,-24.89"/>
</g>
<!-- Node4 -->
<g id="node4" class="node">
<title>Node4</title>
<g id="a_node4"><a xlink:title=" ">
<polygon fill="none" stroke="#bfbfbf" points="83.5,-6 83.5,-25 139.5,-25 139.5,-6 83.5,-6"/>
<text text-anchor="middle" x="111.5" y="-13" font-family="Helvetica,sans-Serif" font-size="10.00">optional</text>
</a>
</g>
</g>
<!-- Node2&#45;&gt;Node4 -->
<g id="edge3" class="edge">
<title>Node2&#45;&gt;Node4</title>
<path fill="none" stroke="midnightblue" d="M1632.27,-80.79C1372.61,-77.34 295.8,-61.34 148.5,-31 145.49,-30.38 142.4,-29.54 139.36,-28.57"/>
<polygon fill="midnightblue" stroke="midnightblue" points="140.54,-25.27 129.94,-25.15 138.15,-31.85 140.54,-25.27"/>
</g>
<!-- Node5 -->
<g id="node5" class="node">
<title>Node5</title>
<g id="a_node5"><a xlink:title=" ">
<polygon fill="none" stroke="#bfbfbf" points="157.5,-6 157.5,-25 285.5,-25 285.5,-6 157.5,-6"/>
<text text-anchor="middle" x="221.5" y="-13" font-family="Helvetica,sans-Serif" font-size="10.00">flatbuffers/flatbuffers.h</text>
</a>
</g>
</g>
<!-- Node2&#45;&gt;Node5 -->
<g id="edge4" class="edge">
<title>Node2&#45;&gt;Node5</title>
<path fill="none" stroke="midnightblue" d="M1632.36,-80.67C1406.06,-77.11 560.3,-62.01 294.5,-31 286.01,-30.01 277.04,-28.56 268.4,-26.96"/>
<polygon fill="midnightblue" stroke="midnightblue" points="268.94,-23.5 258.46,-25.03 267.6,-30.37 268.94,-23.5"/>
</g>
<!-- Node6 -->
<g id="node6" class="node">
<title>Node6</title>
<g id="a_node6"><a xlink:title=" ">
<polygon fill="none" stroke="#bfbfbf" points="304,-6 304,-25 403,-25 403,-6 304,-6"/>
<text text-anchor="middle" x="353.5" y="-13" font-family="Helvetica,sans-Serif" font-size="10.00">flatbuffers/grpc.h</text>
</a>
</g>
</g>
<!-- Node2&#45;&gt;Node6 -->
<g id="edge5" class="edge">
<title>Node2&#45;&gt;Node6</title>
<path fill="none" stroke="midnightblue" d="M1632.41,-80.78C1418.41,-77.81 653.29,-65 412.5,-31 406.19,-30.11 399.58,-28.83 393.16,-27.4"/>
<polygon fill="midnightblue" stroke="midnightblue" points="393.83,-23.96 383.29,-25.06 392.21,-30.77 393.83,-23.96"/>
</g>
<!-- Node7 -->
<g id="node7" class="node">
<title>Node7</title>
<g id="a_node7"><a xlink:title=" ">
<polygon fill="none" stroke="#bfbfbf" points="421.5,-0.5 421.5,-30.5 547.5,-30.5 547.5,-0.5 421.5,-0.5"/>
<text text-anchor="start" x="429.5" y="-18.5" font-family="Helvetica,sans-Serif" font-size="10.00">seerep&#45;msgs/datatype</text>
<text text-anchor="middle" x="484.5" y="-7.5" font-family="Helvetica,sans-Serif" font-size="10.00">_generated.h</text>
</a>
</g>
</g>
<!-- Node2&#45;&gt;Node7 -->
<g id="edge6" class="edge">
<title>Node2&#45;&gt;Node7</title>
<path fill="none" stroke="midnightblue" d="M1632.3,-82.05C1468.13,-83 975.08,-81.22 557.78,-31.02"/>
<polygon fill="midnightblue" stroke="midnightblue" points="557.98,-27.52 547.63,-29.79 557.13,-34.47 557.98,-27.52"/>
</g>
<!-- Node8 -->
<g id="node8" class="node">
<title>Node8</title>
<g id="a_node8"><a xlink:title=" ">
<polygon fill="none" stroke="#bfbfbf" points="566,-6 566,-25 743,-25 743,-6 566,-6"/>
<text text-anchor="middle" x="654.5" y="-13" font-family="Helvetica,sans-Serif" font-size="10.00">seerep&#45;msgs/image_generated.h</text>
</a>
</g>
</g>
<!-- Node2&#45;&gt;Node8 -->
<g id="edge7" class="edge">
<title>Node2&#45;&gt;Node8</title>
<path fill="none" stroke="midnightblue" d="M1632.38,-80.32C1486.69,-76.87 1084.57,-64.79 751.5,-31 739.72,-29.8 727.18,-28.19 715.17,-26.47"/>
<polygon fill="midnightblue" stroke="midnightblue" points="715.63,-23 705.23,-25.01 714.62,-29.93 715.63,-23"/>
</g>
<!-- Node9 -->
<g id="node9" class="node">
<title>Node9</title>
<g id="a_node9"><a xlink:title=" ">
<polygon fill="none" stroke="#bfbfbf" points="761,-0.5 761,-30.5 900,-30.5 900,-0.5 761,-0.5"/>
<text text-anchor="start" x="769" y="-18.5" font-family="Helvetica,sans-Serif" font-size="10.00">seerep&#45;msgs/point_cloud</text>
<text text-anchor="middle" x="830.5" y="-7.5" font-family="Helvetica,sans-Serif" font-size="10.00">_2_generated.h</text>
</a>
</g>
</g>
<!-- Node2&#45;&gt;Node9 -->
<g id="edge8" class="edge">
<title>Node2&#45;&gt;Node9</title>
<path fill="none" stroke="midnightblue" d="M1632.48,-80.16C1505.59,-76.64 1186.4,-65 910.39,-31.14"/>
<polygon fill="midnightblue" stroke="midnightblue" points="910.53,-27.63 900.18,-29.88 909.67,-34.58 910.53,-27.63"/>
</g>
<!-- Node10 -->
<g id="node10" class="node">
<title>Node10</title>
<g id="a_node10"><a xlink:title=" ">
<polygon fill="none" stroke="#bfbfbf" points="918,-0.5 918,-30.5 1073,-30.5 1073,-0.5 918,-0.5"/>
<text text-anchor="start" x="926" y="-18.5" font-family="Helvetica,sans-Serif" font-size="10.00">seerep&#45;msgs/point_stamped</text>
<text text-anchor="middle" x="995.5" y="-7.5" font-family="Helvetica,sans-Serif" font-size="10.00">_generated.h</text>
</a>
</g>
</g>
<!-- Node2&#45;&gt;Node10 -->
<g id="edge9" class="edge">
<title>Node2&#45;&gt;Node10</title>
<path fill="none" stroke="midnightblue" d="M1632.36,-78.37C1526.92,-72.14 1291.9,-56.67 1083.46,-31.05"/>
<polygon fill="midnightblue" stroke="midnightblue" points="1083.6,-27.54 1073.24,-29.78 1082.74,-34.49 1083.6,-27.54"/>
</g>
<!-- Node11 -->
<g id="node11" class="node">
<title>Node11</title>
<g id="a_node11"><a xlink:title=" ">
<polygon fill="none" stroke="#bfbfbf" points="1091.5,-6 1091.5,-25 1265.5,-25 1265.5,-6 1091.5,-6"/>
<text text-anchor="middle" x="1178.5" y="-13" font-family="Helvetica,sans-Serif" font-size="10.00">seerep&#45;msgs/query_generated.h</text>
</a>
</g>
</g>
<!-- Node2&#45;&gt;Node11 -->
<g id="edge10" class="edge">
<title>Node2&#45;&gt;Node11</title>
<path fill="none" stroke="midnightblue" d="M1632.19,-75.15C1552.47,-66.04 1402.2,-48.43 1274.5,-31 1264.31,-29.61 1253.53,-28.06 1243.01,-26.5"/>
<polygon fill="midnightblue" stroke="midnightblue" points="1243.44,-23.03 1233.04,-25.01 1242.41,-29.95 1243.44,-23.03"/>
</g>
<!-- Node12 -->
<g id="node12" class="node">
<title>Node12</title>
<g id="a_node12"><a xlink:title=" ">
<polygon fill="none" stroke="#bfbfbf" points="1284,-0.5 1284,-30.5 1441,-30.5 1441,-0.5 1284,-0.5"/>
<text text-anchor="start" x="1292" y="-18.5" font-family="Helvetica,sans-Serif" font-size="10.00">seerep&#45;msgs/query_instance</text>
<text text-anchor="middle" x="1362.5" y="-7.5" font-family="Helvetica,sans-Serif" font-size="10.00">_generated.h</text>
</a>
</g>
</g>
<!-- Node2&#45;&gt;Node12 -->
<g id="edge11" class="edge">
<title>Node2&#45;&gt;Node12</title>
<path fill="none" stroke="midnightblue" d="M1632.46,-70.33C1580.23,-59.91 1501.77,-44.27 1442.87,-32.53"/>
<polygon fill="midnightblue" stroke="midnightblue" points="1443.35,-29.05 1432.86,-30.53 1441.98,-35.92 1443.35,-29.05"/>
</g>
<!-- Node13 -->
<g id="node13" class="node">
<title>Node13</title>
<g id="a_node13"><a xlink:title=" ">
<polygon fill="none" stroke="#bfbfbf" points="1459,-0.5 1459,-30.5 1590,-30.5 1590,-0.5 1459,-0.5"/>
<text text-anchor="start" x="1467" y="-18.5" font-family="Helvetica,sans-Serif" font-size="10.00">seerep&#45;msgs/transform</text>
<text text-anchor="middle" x="1524.5" y="-7.5" font-family="Helvetica,sans-Serif" font-size="10.00">_stamped_generated.h</text>
</a>
</g>
</g>
<!-- Node2&#45;&gt;Node13 -->
<g id="edge12" class="edge">
<title>Node2&#45;&gt;Node13</title>
<path fill="none" stroke="midnightblue" d="M1652.91,-67.4C1628.41,-57.69 1595.67,-44.71 1569.38,-34.29"/>
<polygon fill="midnightblue" stroke="midnightblue" points="1570.6,-31.01 1560.02,-30.58 1568.02,-37.51 1570.6,-31.01"/>
</g>
<!-- Node14 -->
<g id="node14" class="node">
<title>Node14</title>
<g id="a_node14"><a xlink:title=" ">
<polygon fill="none" stroke="#bfbfbf" points="1608,-0.5 1608,-30.5 1769,-30.5 1769,-0.5 1608,-0.5"/>
<text text-anchor="start" x="1616" y="-18.5" font-family="Helvetica,sans-Serif" font-size="10.00">seerep&#45;msgs/transform</text>
<text text-anchor="middle" x="1688.5" y="-7.5" font-family="Helvetica,sans-Serif" font-size="10.00">_stamped_query_generated.h</text>
</a>
</g>
</g>
<!-- Node2&#45;&gt;Node14 -->
<g id="edge13" class="edge">
<title>Node2&#45;&gt;Node14</title>
<path fill="none" stroke="midnightblue" d="M1688.5,-67.4C1688.5,-59.64 1688.5,-49.81 1688.5,-40.86"/>
<polygon fill="midnightblue" stroke="midnightblue" points="1692,-40.58 1688.5,-30.58 1685,-40.58 1692,-40.58"/>
</g>
<!-- Node15 -->
<g id="node15" class="node">
<title>Node15</title>
<g id="a_node15"><a xlink:title=" ">
<polygon fill="none" stroke="#bfbfbf" points="1787.5,-0.5 1787.5,-30.5 1917.5,-30.5 1917.5,-0.5 1787.5,-0.5"/>
<text text-anchor="start" x="1795.5" y="-18.5" font-family="Helvetica,sans-Serif" font-size="10.00">seerep&#45;msgs/uuids_per</text>
<text text-anchor="middle" x="1852.5" y="-7.5" font-family="Helvetica,sans-Serif" font-size="10.00">_project_generated.h</text>
</a>
</g>
</g>
<!-- Node2&#45;&gt;Node15 -->
<g id="edge14" class="edge">
<title>Node2&#45;&gt;Node15</title>
<path fill="none" stroke="midnightblue" d="M1724.09,-67.4C1748.59,-57.69 1781.33,-44.71 1807.62,-34.29"/>
<polygon fill="midnightblue" stroke="midnightblue" points="1808.98,-37.51 1816.98,-30.58 1806.4,-31.01 1808.98,-37.51"/>
</g>
<!-- Node16 -->
<g id="node16" class="node">
<title>Node16</title>
<g id="a_node16"><a xlink:title=" ">
<polygon fill="none" stroke="#bfbfbf" points="1936,-0.5 1936,-30.5 2055,-30.5 2055,-0.5 1936,-0.5"/>
<text text-anchor="start" x="1944" y="-18.5" font-family="Helvetica,sans-Serif" font-size="10.00">seerep&#45;msgs/dataset</text>
<text text-anchor="middle" x="1995.5" y="-7.5" font-family="Helvetica,sans-Serif" font-size="10.00">&#45;indexable.h</text>
</a>
</g>
</g>
<!-- Node2&#45;&gt;Node16 -->
<g id="edge15" class="edge">
<title>Node2&#45;&gt;Node16</title>
<path fill="none" stroke="midnightblue" d="M1744.81,-69.58C1795.81,-58.78 1871.14,-42.83 1925.91,-31.24"/>
<polygon fill="midnightblue" stroke="midnightblue" points="1926.82,-34.62 1935.88,-29.12 1925.37,-27.77 1926.82,-34.62"/>
</g>
<!-- Node17 -->
<g id="node17" class="node">
<title>Node17</title>
<g id="a_node17"><a xlink:title=" ">
<polygon fill="none" stroke="#bfbfbf" points="2073,-6 2073,-25 2224,-25 2224,-6 2073,-6"/>
<text text-anchor="middle" x="2148.5" y="-13" font-family="Helvetica,sans-Serif" font-size="10.00">seerep&#45;msgs/query&#45;result.h</text>
</a>
</g>
</g>
<!-- Node2&#45;&gt;Node17 -->
<g id="edge16" class="edge">
<title>Node2&#45;&gt;Node17</title>
<path fill="none" stroke="midnightblue" d="M1744.65,-74.62C1818.23,-65.46 1951.22,-48.38 2064.5,-31 2073.11,-29.68 2082.2,-28.2 2091.09,-26.7"/>
<polygon fill="midnightblue" stroke="midnightblue" points="2091.75,-30.14 2101.02,-25.02 2090.57,-23.24 2091.75,-30.14"/>
</g>
<!-- Node18 -->
<g id="node18" class="node">
<title>Node18</title>
<g id="a_node18"><a xlink:title=" ">
<polygon fill="none" stroke="#bfbfbf" points="2242.5,-6 2242.5,-25 2372.5,-25 2372.5,-6 2242.5,-6"/>
<text text-anchor="middle" x="2307.5" y="-13" font-family="Helvetica,sans-Serif" font-size="10.00">seerep&#45;msgs/query&#45;tf.h</text>
</a>
</g>
</g>
<!-- Node2&#45;&gt;Node18 -->
<g id="edge17" class="edge">
<title>Node2&#45;&gt;Node18</title>
<path fill="none" stroke="midnightblue" d="M1744.82,-78.17C1843.96,-71.88 2055.97,-56.55 2233.5,-31 2241.34,-29.87 2249.6,-28.47 2257.65,-26.98"/>
<polygon fill="midnightblue" stroke="midnightblue" points="2258.52,-30.38 2267.69,-25.07 2257.21,-23.5 2258.52,-30.38"/>
</g>
<!-- Node19 -->
<g id="node19" class="node">
<title>Node19</title>
<g id="a_node19"><a xlink:title=" ">
<polygon fill="none" stroke="#bfbfbf" points="2390.5,-6 2390.5,-25 2508.5,-25 2508.5,-6 2390.5,-6"/>
<text text-anchor="middle" x="2449.5" y="-13" font-family="Helvetica,sans-Serif" font-size="10.00">seerep&#45;msgs/query.h</text>
</a>
</g>
</g>
<!-- Node2&#45;&gt;Node19 -->
<g id="edge18" class="edge">
<title>Node2&#45;&gt;Node19</title>
<path fill="none" stroke="midnightblue" d="M1744.92,-80.01C1863.39,-76.31 2146.53,-64.45 2381.5,-31 2388.81,-29.96 2396.51,-28.59 2404,-27.1"/>
<polygon fill="midnightblue" stroke="midnightblue" points="2404.94,-30.48 2414.02,-25.03 2403.52,-23.63 2404.94,-30.48"/>
</g>
<!-- Node20 -->
<g id="node20" class="node">
<title>Node20</title>
<g id="a_node20"><a xlink:title=" ">
<polygon fill="none" stroke="#bfbfbf" points="2526.5,-6 2526.5,-25 2726.5,-25 2726.5,-6 2526.5,-6"/>
<text text-anchor="middle" x="2626.5" y="-13" font-family="Helvetica,sans-Serif" font-size="10.00">geometry_msgs/TransformStamped.h</text>
</a>
</g>
</g>
<!-- Node2&#45;&gt;Node20 -->
<g id="edge19" class="edge">
<title>Node2&#45;&gt;Node20</title>
<path fill="none" stroke="midnightblue" d="M1744.9,-79.45C1879.04,-74.29 2227.59,-59.08 2517.5,-31 2530.67,-29.72 2544.71,-28.08 2558.17,-26.35"/>
<polygon fill="midnightblue" stroke="midnightblue" points="2558.86,-29.79 2568.32,-25.02 2557.95,-22.85 2558.86,-29.79"/>
</g>
<!-- Node21 -->
<g id="node21" class="node">
<title>Node21</title>
<g id="a_node21"><a xlink:title=" ">
<polygon fill="none" stroke="#bfbfbf" points="2745,-6 2745,-25 2888,-25 2888,-6 2745,-6"/>
<text text-anchor="middle" x="2816.5" y="-13" font-family="Helvetica,sans-Serif" font-size="10.00">boost/functional/hash.hpp</text>
</a>
</g>
</g>
<!-- Node2&#45;&gt;Node21 -->
<g id="edge20" class="edge">
<title>Node2&#45;&gt;Node21</title>
<path fill="none" stroke="midnightblue" d="M1744.6,-81.33C1901.63,-80.32 2358.7,-73.63 2735.5,-31 2744.98,-29.93 2755.03,-28.43 2764.7,-26.8"/>
<polygon fill="midnightblue" stroke="midnightblue" points="2765.36,-30.23 2774.61,-25.06 2764.16,-23.34 2765.36,-30.23"/>
</g>
<!-- Node22 -->
<g id="node22" class="node">
<title>Node22</title>
<g id="a_node22"><a xlink:title=" ">
<polygon fill="none" stroke="#bfbfbf" points="2906,-6 2906,-25 3031,-25 3031,-6 2906,-6"/>
<text text-anchor="middle" x="2968.5" y="-13" font-family="Helvetica,sans-Serif" font-size="10.00">boost/lexical_cast.hpp</text>
</a>
</g>
</g>
<!-- Node2&#45;&gt;Node22 -->
<g id="edge21" class="edge">
<title>Node2&#45;&gt;Node22</title>
<path fill="none" stroke="midnightblue" d="M1744.77,-80.34C1951.66,-75.91 2669.94,-58.81 2897.5,-31 2905.58,-30.01 2914.11,-28.6 2922.35,-27.04"/>
<polygon fill="midnightblue" stroke="midnightblue" points="2923.07,-30.46 2932.2,-25.08 2921.71,-23.59 2923.07,-30.46"/>
</g>
<!-- Node23 -->
<g id="node23" class="node">
<title>Node23</title>
<g id="a_node23"><a xlink:title=" ">
<polygon fill="none" stroke="#bfbfbf" points="3049,-6 3049,-25 3162,-25 3162,-6 3049,-6"/>
<text text-anchor="middle" x="3105.5" y="-13" font-family="Helvetica,sans-Serif" font-size="10.00">boost/uuid/uuid.hpp</text>
</a>
</g>
</g>
<!-- Node2&#45;&gt;Node23 -->
<g id="edge22" class="edge">
<title>Node2&#45;&gt;Node23</title>
<path fill="none" stroke="midnightblue" d="M1744.85,-80.76C1967.17,-77.65 2783.82,-64.14 3040.5,-31 3047.75,-30.06 3055.39,-28.7 3062.78,-27.19"/>
<polygon fill="midnightblue" stroke="midnightblue" points="3063.61,-30.59 3072.64,-25.05 3062.12,-23.75 3063.61,-30.59"/>
</g>
<!-- Node24 -->
<g id="node24" class="node">
<title>Node24</title>
<g id="a_node24"><a xlink:title=" ">
<polygon fill="none" stroke="#bfbfbf" points="3180.5,-6 3180.5,-25 3350.5,-25 3350.5,-6 3180.5,-6"/>
<text text-anchor="middle" x="3265.5" y="-13" font-family="Helvetica,sans-Serif" font-size="10.00">boost/uuid/uuid_generators.hpp</text>
</a>
</g>
</g>
<!-- Node2&#45;&gt;Node24 -->
<g id="edge23" class="edge">
<title>Node2&#45;&gt;Node24</title>
<path fill="none" stroke="midnightblue" d="M1744.54,-81.99C1941.04,-83.19 2616.84,-83.04 3171.5,-31 3183.07,-29.91 3195.38,-28.33 3207.16,-26.6"/>
<polygon fill="midnightblue" stroke="midnightblue" points="3207.97,-30.02 3217.33,-25.06 3206.92,-23.1 3207.97,-30.02"/>
</g>
<!-- Node25 -->
<g id="node25" class="node">
<title>Node25</title>
<g id="a_node25"><a xlink:title=" ">
<polygon fill="none" stroke="#bfbfbf" points="3369,-6 3369,-25 3496,-25 3496,-6 3369,-6"/>
<text text-anchor="middle" x="3432.5" y="-13" font-family="Helvetica,sans-Serif" font-size="10.00">boost/uuid/uuid_io.hpp</text>
</a>
</g>
</g>
<!-- Node2&#45;&gt;Node25 -->
<g id="edge24" class="edge">
<title>Node2&#45;&gt;Node25</title>
<path fill="none" stroke="midnightblue" d="M1744.74,-81.05C1998.24,-78.85 3036.33,-67.72 3359.5,-31 3367.99,-30.04 3376.96,-28.6 3385.61,-27.01"/>
<polygon fill="midnightblue" stroke="midnightblue" points="3386.4,-30.42 3395.55,-25.08 3385.07,-23.54 3386.4,-30.42"/>
</g>
</g>
</svg>
