<?xml version="1.0" encoding="UTF-8" standalone="no"?>
<!DOCTYPE svg PUBLIC "-//W3C//DTD SVG 1.1//EN"
 "http://www.w3.org/Graphics/SVG/1.1/DTD/svg11.dtd">
<!-- Generated by graphviz version 2.43.0 (0)
 -->
<!-- Title: seerep_srv/seerep_core/include/seerep_core/core_camera_intrinsics.h Pages: 1 -->
<svg width="2635pt" height="307pt"
 viewBox="0.00 0.00 2634.50 307.00" xmlns="http://www.w3.org/2000/svg" xmlns:xlink="http://www.w3.org/1999/xlink">
<g id="graph0" class="graph" transform="scale(1 1) rotate(0) translate(4 303)">
<title>seerep_srv/seerep_core/include/seerep_core/core_camera_intrinsics.h</title>
<!-- Node1 -->
<g id="node1" class="node">
<title>Node1</title>
<g id="a_node1"><a xlink:title=" ">
<polygon fill="#bfbfbf" stroke="black" points="1995.5,-257.5 1995.5,-298.5 2136.5,-298.5 2136.5,-257.5 1995.5,-257.5"/>
<text text-anchor="start" x="2003.5" y="-286.5" font-family="Helvetica,sans-Serif" font-size="10.00">seerep_srv/seerep_core</text>
<text text-anchor="start" x="2003.5" y="-275.5" font-family="Helvetica,sans-Serif" font-size="10.00">/include/seerep_core/core</text>
<text text-anchor="middle" x="2066" y="-264.5" font-family="Helvetica,sans-Serif" font-size="10.00">_camera_intrinsics.h</text>
</a>
</g>
</g>
<!-- Node2 -->
<g id="node2" class="node">
<title>Node2</title>
<g id="a_node2"><a xlink:href="hdf5__core__cameraintrinsics_8h.html" target="_top" xlink:title=" ">
<polygon fill="none" stroke="black" points="1828,-190.5 1828,-220.5 1966,-220.5 1966,-190.5 1828,-190.5"/>
<text text-anchor="start" x="1836" y="-208.5" font-family="Helvetica,sans-Serif" font-size="10.00">seerep_hdf5_core/hdf5</text>
<text text-anchor="middle" x="1897" y="-197.5" font-family="Helvetica,sans-Serif" font-size="10.00">_core_cameraintrinsics.h</text>
</a>
</g>
</g>
<!-- Node1&#45;&gt;Node2 -->
<g id="edge1" class="edge">
<title>Node1&#45;&gt;Node2</title>
<path fill="none" stroke="midnightblue" d="M2018.92,-257.36C1994.18,-247.04 1964.07,-234.48 1939.96,-224.42"/>
<polygon fill="midnightblue" stroke="midnightblue" points="1941.28,-221.18 1930.7,-220.56 1938.58,-227.64 1941.28,-221.18"/>
</g>
<!-- Node28 -->
<g id="node28" class="node">
<title>Node28</title>
<g id="a_node28"><a xlink:title=" ">
<polygon fill="none" stroke="#bfbfbf" points="2077.5,-123.5 2077.5,-153.5 2198.5,-153.5 2198.5,-123.5 2077.5,-123.5"/>
<text text-anchor="start" x="2085.5" y="-141.5" font-family="Helvetica,sans-Serif" font-size="10.00">seerep_msgs/camera</text>
<text text-anchor="middle" x="2138" y="-130.5" font-family="Helvetica,sans-Serif" font-size="10.00">_intrinsics.h</text>
</a>
</g>
</g>
<!-- Node1&#45;&gt;Node28 -->
<g id="edge30" class="edge">
<title>Node1&#45;&gt;Node28</title>
<path fill="none" stroke="midnightblue" d="M2067.02,-257.17C2068.71,-238.73 2073.18,-211.02 2085,-190 2091.33,-178.75 2100.98,-168.48 2110.31,-160.18"/>
<polygon fill="midnightblue" stroke="midnightblue" points="2112.62,-162.81 2118.01,-153.69 2108.11,-157.46 2112.62,-162.81"/>
</g>
<!-- Node29 -->
<g id="node29" class="node">
<title>Node29</title>
<g id="a_node29"><a xlink:title=" ">
<polygon fill="none" stroke="#bfbfbf" points="2094.5,-190.5 2094.5,-220.5 2215.5,-220.5 2215.5,-190.5 2094.5,-190.5"/>
<text text-anchor="start" x="2102.5" y="-208.5" font-family="Helvetica,sans-Serif" font-size="10.00">seerep_msgs/camera</text>
<text text-anchor="middle" x="2155" y="-197.5" font-family="Helvetica,sans-Serif" font-size="10.00">_intrinsics_query.h</text>
</a>
</g>
</g>
<!-- Node1&#45;&gt;Node29 -->
<g id="edge31" class="edge">
<title>Node1&#45;&gt;Node29</title>
<path fill="none" stroke="midnightblue" d="M2090.79,-257.36C2102.74,-247.89 2117.07,-236.54 2129.16,-226.97"/>
<polygon fill="midnightblue" stroke="midnightblue" points="2131.45,-229.62 2137.11,-220.67 2127.1,-224.14 2131.45,-229.62"/>
</g>
<!-- Node3 -->
<g id="node3" class="node">
<title>Node3</title>
<g id="a_node3"><a xlink:title=" ">
<polygon fill="none" stroke="#bfbfbf" points="982,-129 982,-148 1114,-148 1114,-129 982,-129"/>
<text text-anchor="middle" x="1048" y="-136" font-family="Helvetica,sans-Serif" font-size="10.00">highfive/H5DataSet.hpp</text>
</a>
</g>
</g>
<!-- Node2&#45;&gt;Node3 -->
<g id="edge2" class="edge">
<title>Node2&#45;&gt;Node3</title>
<path fill="none" stroke="midnightblue" d="M1827.82,-202.59C1692.81,-198.29 1384.95,-185.62 1128,-154 1118.84,-152.87 1109.15,-151.38 1099.79,-149.77"/>
<polygon fill="midnightblue" stroke="midnightblue" points="1100.26,-146.3 1089.8,-148 1099.03,-153.19 1100.26,-146.3"/>
</g>
<!-- Node4 -->
<g id="node4" class="node">
<title>Node4</title>
<g id="a_node4"><a xlink:title=" ">
<polygon fill="none" stroke="#bfbfbf" points="0,-62 0,-81 110,-81 110,-62 0,-62"/>
<text text-anchor="middle" x="55" y="-69" font-family="Helvetica,sans-Serif" font-size="10.00">highfive/H5File.hpp</text>
</a>
</g>
</g>
<!-- Node2&#45;&gt;Node4 -->
<g id="edge3" class="edge">
<title>Node2&#45;&gt;Node4</title>
<path fill="none" stroke="midnightblue" d="M1827.74,-205.06C1668.56,-205.49 1281.08,-201.46 1161,-154 1140.73,-145.99 1143.4,-130.68 1123,-123 1018.53,-83.67 229.7,-101.4 119,-87 112.02,-86.09 104.67,-84.78 97.55,-83.3"/>
<polygon fill="midnightblue" stroke="midnightblue" points="97.87,-79.79 87.35,-81.06 96.36,-86.63 97.87,-79.79"/>
</g>
<!-- Node5 -->
<g id="node5" class="node">
<title>Node5</title>
<g id="a_node5"><a xlink:href="hdf5__core__general_8h.html" target="_top" xlink:title=" ">
<polygon fill="none" stroke="black" points="1170,-123.5 1170,-153.5 1298,-153.5 1298,-123.5 1170,-123.5"/>
<text text-anchor="start" x="1178" y="-141.5" font-family="Helvetica,sans-Serif" font-size="10.00">seerep_hdf5_core/hdf5</text>
<text text-anchor="middle" x="1234" y="-130.5" font-family="Helvetica,sans-Serif" font-size="10.00">_core_general.h</text>
</a>
</g>
</g>
<!-- Node2&#45;&gt;Node5 -->
<g id="edge4" class="edge">
<title>Node2&#45;&gt;Node5</title>
<path fill="none" stroke="midnightblue" d="M1827.92,-197.73C1702.31,-185.41 1437.54,-159.45 1308.23,-146.78"/>
<polygon fill="midnightblue" stroke="midnightblue" points="1308.32,-143.27 1298.02,-145.78 1307.63,-150.24 1308.32,-143.27"/>
</g>
<!-- Node23 -->
<g id="node23" class="node">
<title>Node23</title>
<g id="a_node23"><a xlink:href="header_8h.html" target="_top" xlink:title=" ">
<polygon fill="none" stroke="black" points="1867.5,-129 1867.5,-148 1926.5,-148 1926.5,-129 1867.5,-129"/>
<text text-anchor="middle" x="1897" y="-136" font-family="Helvetica,sans-Serif" font-size="10.00">header.h</text>
</a>
</g>
</g>
<!-- Node2&#45;&gt;Node23 -->
<g id="edge23" class="edge">
<title>Node2&#45;&gt;Node23</title>
<path fill="none" stroke="midnightblue" d="M1897,-190.4C1897,-181.06 1897,-168.71 1897,-158.52"/>
<polygon fill="midnightblue" stroke="midnightblue" points="1900.5,-158.19 1897,-148.19 1893.5,-158.19 1900.5,-158.19"/>
</g>
<!-- Node27 -->
<g id="node27" class="node">
<title>Node27</title>
<g id="a_node27"><a xlink:href="region__of__interest_8h.html" target="_top" xlink:title=" ">
<polygon fill="none" stroke="black" points="1945,-129 1945,-148 2059,-148 2059,-129 1945,-129"/>
<text text-anchor="middle" x="2002" y="-136" font-family="Helvetica,sans-Serif" font-size="10.00">region_of_interest.h</text>
</a>
</g>
</g>
<!-- Node2&#45;&gt;Node27 -->
<g id="edge28" class="edge">
<title>Node2&#45;&gt;Node27</title>
<path fill="none" stroke="midnightblue" d="M1919.78,-190.4C1937.55,-179.39 1962.1,-164.2 1979.74,-153.28"/>
<polygon fill="midnightblue" stroke="midnightblue" points="1981.6,-156.25 1988.26,-148.01 1977.91,-150.29 1981.6,-156.25"/>
</g>
<!-- Node2&#45;&gt;Node28 -->
<g id="edge29" class="edge">
<title>Node2&#45;&gt;Node28</title>
<path fill="none" stroke="midnightblue" d="M1949,-190.48C1986.25,-180.43 2036.57,-166.86 2075.93,-156.24"/>
<polygon fill="midnightblue" stroke="midnightblue" points="2076.94,-159.59 2085.68,-153.61 2075.11,-152.84 2076.94,-159.59"/>
</g>
<!-- Node5&#45;&gt;Node4 -->
<g id="edge5" class="edge">
<title>Node5&#45;&gt;Node4</title>
<path fill="none" stroke="midnightblue" d="M1169.84,-124.79C1165.17,-124.1 1160.52,-123.5 1156,-123 697.58,-72.72 576.35,-146.21 119,-87 112.02,-86.1 104.67,-84.78 97.55,-83.31"/>
<polygon fill="midnightblue" stroke="midnightblue" points="97.86,-79.8 87.35,-81.07 96.36,-86.63 97.86,-79.8"/>
</g>
<!-- Node6 -->
<g id="node6" class="node">
<title>Node6</title>
<g id="a_node6"><a xlink:title=" ">
<polygon fill="none" stroke="#bfbfbf" points="128.5,-62 128.5,-81 245.5,-81 245.5,-62 128.5,-62"/>
<text text-anchor="middle" x="187" y="-69" font-family="Helvetica,sans-Serif" font-size="10.00">seerep_msgs/aabb.h</text>
</a>
</g>
</g>
<!-- Node5&#45;&gt;Node6 -->
<g id="edge6" class="edge">
<title>Node5&#45;&gt;Node6</title>
<path fill="none" stroke="midnightblue" d="M1169.84,-124.82C1165.17,-124.12 1160.52,-123.51 1156,-123 757.3,-78.22 652,-137.62 254,-87 246.45,-86.04 238.49,-84.65 230.79,-83.11"/>
<polygon fill="midnightblue" stroke="midnightblue" points="231.39,-79.67 220.89,-81.03 229.95,-86.51 231.39,-79.67"/>
</g>
<!-- Node7 -->
<g id="node7" class="node">
<title>Node7</title>
<g id="a_node7"><a xlink:title=" ">
<polygon fill="none" stroke="#bfbfbf" points="263.5,-56.5 263.5,-86.5 384.5,-86.5 384.5,-56.5 263.5,-56.5"/>
<text text-anchor="start" x="271.5" y="-74.5" font-family="Helvetica,sans-Serif" font-size="10.00">seerep_msgs/dataset</text>
<text text-anchor="middle" x="324" y="-63.5" font-family="Helvetica,sans-Serif" font-size="10.00">_indexable.h</text>
</a>
</g>
</g>
<!-- Node5&#45;&gt;Node7 -->
<g id="edge7" class="edge">
<title>Node5&#45;&gt;Node7</title>
<path fill="none" stroke="midnightblue" d="M1169.83,-124.85C1165.16,-124.15 1160.52,-123.52 1156,-123 822.5,-84.31 732.13,-128.63 394.67,-86.92"/>
<polygon fill="midnightblue" stroke="midnightblue" points="394.97,-83.43 384.61,-85.66 394.1,-90.38 394.97,-83.43"/>
</g>
<!-- Node8 -->
<g id="node8" class="node">
<title>Node8</title>
<g id="a_node8"><a xlink:title=" ">
<polygon fill="none" stroke="#bfbfbf" points="403,-56.5 403,-86.5 529,-86.5 529,-56.5 403,-56.5"/>
<text text-anchor="start" x="411" y="-74.5" font-family="Helvetica,sans-Serif" font-size="10.00">seerep_msgs/geodetic</text>
<text text-anchor="middle" x="466" y="-63.5" font-family="Helvetica,sans-Serif" font-size="10.00">_coordinates.h</text>
</a>
</g>
</g>
<!-- Node5&#45;&gt;Node8 -->
<g id="edge8" class="edge">
<title>Node5&#45;&gt;Node8</title>
<path fill="none" stroke="midnightblue" d="M1169.83,-124.91C1165.16,-124.2 1160.51,-123.55 1156,-123 886.21,-90.2 812.65,-121.46 539.36,-87.04"/>
<polygon fill="midnightblue" stroke="midnightblue" points="539.5,-83.53 529.13,-85.74 538.61,-90.48 539.5,-83.53"/>
</g>
<!-- Node9 -->
<g id="node9" class="node">
<title>Node9</title>
<g id="a_node9"><a xlink:title=" ">
<polygon fill="none" stroke="#bfbfbf" points="547.5,-62 547.5,-81 664.5,-81 664.5,-62 547.5,-62"/>
<text text-anchor="middle" x="606" y="-69" font-family="Helvetica,sans-Serif" font-size="10.00">seerep_msgs/label.h</text>
</a>
</g>
</g>
<!-- Node5&#45;&gt;Node9 -->
<g id="edge9" class="edge">
<title>Node5&#45;&gt;Node9</title>
<path fill="none" stroke="midnightblue" d="M1169.81,-124.99C1165.15,-124.26 1160.51,-123.59 1156,-123 942.97,-95.33 886.65,-117.47 674,-87 666.69,-85.95 658.99,-84.58 651.5,-83.09"/>
<polygon fill="midnightblue" stroke="midnightblue" points="651.98,-79.62 641.48,-81.02 650.56,-86.47 651.98,-79.62"/>
</g>
<!-- Node10 -->
<g id="node10" class="node">
<title>Node10</title>
<g id="a_node10"><a xlink:title=" ">
<polygon fill="none" stroke="#bfbfbf" points="683,-62 683,-81 847,-81 847,-62 683,-62"/>
<text text-anchor="middle" x="765" y="-69" font-family="Helvetica,sans-Serif" font-size="10.00">seerep_msgs/label_category.h</text>
</a>
</g>
</g>
<!-- Node5&#45;&gt;Node10 -->
<g id="edge10" class="edge">
<title>Node5&#45;&gt;Node10</title>
<path fill="none" stroke="midnightblue" d="M1169.78,-125.22C1165.12,-124.44 1160.49,-123.69 1156,-123 1023.25,-102.72 989,-105.57 856,-87 846.47,-85.67 836.41,-84.17 826.57,-82.64"/>
<polygon fill="midnightblue" stroke="midnightblue" points="826.86,-79.14 816.44,-81.05 825.78,-86.06 826.86,-79.14"/>
</g>
<!-- Node11 -->
<g id="node11" class="node">
<title>Node11</title>
<g id="a_node11"><a xlink:title=" ">
<polygon fill="none" stroke="#bfbfbf" points="865.5,-62 865.5,-81 978.5,-81 978.5,-62 865.5,-62"/>
<text text-anchor="middle" x="922" y="-69" font-family="Helvetica,sans-Serif" font-size="10.00">boost/geometry.hpp</text>
</a>
</g>
</g>
<!-- Node5&#45;&gt;Node11 -->
<g id="edge11" class="edge">
<title>Node5&#45;&gt;Node11</title>
<path fill="none" stroke="midnightblue" d="M1169.98,-124.61C1120.3,-114.55 1049.73,-100.12 988,-87 982.27,-85.78 976.26,-84.49 970.3,-83.19"/>
<polygon fill="midnightblue" stroke="midnightblue" points="970.89,-79.74 960.37,-81.02 969.39,-86.58 970.89,-79.74"/>
</g>
<!-- Node12 -->
<g id="node12" class="node">
<title>Node12</title>
<g id="a_node12"><a xlink:title=" ">
<polygon fill="none" stroke="#bfbfbf" points="997,-62 997,-81 1045,-81 1045,-62 997,-62"/>
<text text-anchor="middle" x="1021" y="-69" font-family="Helvetica,sans-Serif" font-size="10.00">mutex</text>
</a>
</g>
</g>
<!-- Node5&#45;&gt;Node12 -->
<g id="edge12" class="edge">
<title>Node5&#45;&gt;Node12</title>
<path fill="none" stroke="midnightblue" d="M1176.2,-123.49C1140.58,-114.32 1094.18,-101.38 1054,-87 1052.34,-86.41 1050.64,-85.77 1048.94,-85.1"/>
<polygon fill="midnightblue" stroke="midnightblue" points="1049.89,-81.7 1039.32,-81.09 1047.2,-88.17 1049.89,-81.7"/>
</g>
<!-- Node13 -->
<g id="node13" class="node">
<title>Node13</title>
<g id="a_node13"><a xlink:title=" ">
<polygon fill="none" stroke="#bfbfbf" points="1063,-62 1063,-81 1119,-81 1119,-62 1063,-62"/>
<text text-anchor="middle" x="1091" y="-69" font-family="Helvetica,sans-Serif" font-size="10.00">optional</text>
</a>
</g>
</g>
<!-- Node5&#45;&gt;Node13 -->
<g id="edge13" class="edge">
<title>Node5&#45;&gt;Node13</title>
<path fill="none" stroke="midnightblue" d="M1202.97,-123.4C1177.99,-112.04 1143.18,-96.22 1119.04,-85.24"/>
<polygon fill="midnightblue" stroke="midnightblue" points="1120.27,-81.96 1109.72,-81.01 1117.37,-88.33 1120.27,-81.96"/>
</g>
<!-- Node14 -->
<g id="node14" class="node">
<title>Node14</title>
<g id="a_node14"><a xlink:title=" ">
<polygon fill="none" stroke="#bfbfbf" points="1137.5,-62 1137.5,-81 1206.5,-81 1206.5,-62 1137.5,-62"/>
<text text-anchor="middle" x="1172" y="-69" font-family="Helvetica,sans-Serif" font-size="10.00">type_traits</text>
</a>
</g>
</g>
<!-- Node5&#45;&gt;Node14 -->
<g id="edge14" class="edge">
<title>Node5&#45;&gt;Node14</title>
<path fill="none" stroke="midnightblue" d="M1220.55,-123.4C1210.78,-113.16 1197.56,-99.3 1187.38,-88.62"/>
<polygon fill="midnightblue" stroke="midnightblue" points="1189.73,-86.01 1180.29,-81.19 1184.66,-90.85 1189.73,-86.01"/>
</g>
<!-- Node15 -->
<g id="node15" class="node">
<title>Node15</title>
<g id="a_node15"><a xlink:title=" ">
<polygon fill="none" stroke="#bfbfbf" points="1224.5,-56.5 1224.5,-86.5 1369.5,-86.5 1369.5,-56.5 1224.5,-56.5"/>
<text text-anchor="start" x="1232.5" y="-74.5" font-family="Helvetica,sans-Serif" font-size="10.00">boost/log/sources/severity</text>
<text text-anchor="middle" x="1297" y="-63.5" font-family="Helvetica,sans-Serif" font-size="10.00">_logger.hpp</text>
</a>
</g>
</g>
<!-- Node5&#45;&gt;Node15 -->
<g id="edge15" class="edge">
<title>Node5&#45;&gt;Node15</title>
<path fill="none" stroke="midnightblue" d="M1247.67,-123.4C1256.01,-114.79 1266.83,-103.63 1276.22,-93.94"/>
<polygon fill="midnightblue" stroke="midnightblue" points="1278.91,-96.19 1283.36,-86.58 1273.88,-91.32 1278.91,-96.19"/>
</g>
<!-- Node16 -->
<g id="node16" class="node">
<title>Node16</title>
<g id="a_node16"><a xlink:title=" ">
<polygon fill="none" stroke="#bfbfbf" points="1388,-62 1388,-81 1502,-81 1502,-62 1388,-62"/>
<text text-anchor="middle" x="1445" y="-69" font-family="Helvetica,sans-Serif" font-size="10.00">boost/log/trivial.hpp</text>
</a>
</g>
</g>
<!-- Node5&#45;&gt;Node16 -->
<g id="edge16" class="edge">
<title>Node5&#45;&gt;Node16</title>
<path fill="none" stroke="midnightblue" d="M1279.52,-123.48C1317.84,-111.67 1371.96,-95 1407.74,-83.98"/>
<polygon fill="midnightblue" stroke="midnightblue" points="1408.79,-87.32 1417.31,-81.03 1406.73,-80.63 1408.79,-87.32"/>
</g>
<!-- Node17 -->
<g id="node17" class="node">
<title>Node17</title>
<g id="a_node17"><a xlink:title=" ">
<polygon fill="none" stroke="#bfbfbf" points="1520.5,-62 1520.5,-81 1663.5,-81 1663.5,-62 1520.5,-62"/>
<text text-anchor="middle" x="1592" y="-69" font-family="Helvetica,sans-Serif" font-size="10.00">boost/functional/hash.hpp</text>
</a>
</g>
</g>
<!-- Node5&#45;&gt;Node17 -->
<g id="edge17" class="edge">
<title>Node5&#45;&gt;Node17</title>
<path fill="none" stroke="midnightblue" d="M1298,-125.88C1365.39,-113.64 1470.49,-94.56 1535.08,-82.83"/>
<polygon fill="midnightblue" stroke="midnightblue" points="1535.88,-86.25 1545.09,-81.02 1534.63,-79.36 1535.88,-86.25"/>
</g>
<!-- Node18 -->
<g id="node18" class="node">
<title>Node18</title>
<g id="a_node18"><a xlink:title=" ">
<polygon fill="none" stroke="#bfbfbf" points="1681.5,-62 1681.5,-81 1806.5,-81 1806.5,-62 1681.5,-62"/>
<text text-anchor="middle" x="1744" y="-69" font-family="Helvetica,sans-Serif" font-size="10.00">boost/lexical_cast.hpp</text>
</a>
</g>
</g>
<!-- Node5&#45;&gt;Node18 -->
<g id="edge18" class="edge">
<title>Node5&#45;&gt;Node18</title>
<path fill="none" stroke="midnightblue" d="M1298.06,-131.81C1383.59,-123.83 1539.69,-107.91 1672,-87 1679.44,-85.82 1687.29,-84.42 1694.95,-82.95"/>
<polygon fill="midnightblue" stroke="midnightblue" points="1695.73,-86.36 1704.87,-81 1694.38,-79.49 1695.73,-86.36"/>
</g>
<!-- Node19 -->
<g id="node19" class="node">
<title>Node19</title>
<g id="a_node19"><a xlink:title=" ">
<polygon fill="none" stroke="#bfbfbf" points="2329.5,-62 2329.5,-81 2442.5,-81 2442.5,-62 2329.5,-62"/>
<text text-anchor="middle" x="2386" y="-69" font-family="Helvetica,sans-Serif" font-size="10.00">boost/uuid/uuid.hpp</text>
</a>
</g>
</g>
<!-- Node5&#45;&gt;Node19 -->
<g id="edge19" class="edge">
<title>Node5&#45;&gt;Node19</title>
<path fill="none" stroke="midnightblue" d="M1298.05,-135.95C1499.79,-130.85 2120.48,-113.36 2320,-87 2327.28,-86.04 2334.94,-84.68 2342.36,-83.18"/>
<polygon fill="midnightblue" stroke="midnightblue" points="2343.23,-86.57 2352.28,-81.06 2341.77,-79.73 2343.23,-86.57"/>
</g>
<!-- Node20 -->
<g id="node20" class="node">
<title>Node20</title>
<g id="a_node20"><a xlink:title=" ">
<polygon fill="none" stroke="#bfbfbf" points="1825,-62 1825,-81 1995,-81 1995,-62 1825,-62"/>
<text text-anchor="middle" x="1910" y="-69" font-family="Helvetica,sans-Serif" font-size="10.00">boost/uuid/uuid_generators.hpp</text>
</a>
</g>
</g>
<!-- Node5&#45;&gt;Node20 -->
<g id="edge20" class="edge">
<title>Node5&#45;&gt;Node20</title>
<path fill="none" stroke="midnightblue" d="M1298.19,-133.29C1405.44,-125.94 1627.76,-109.4 1815,-87 1825.78,-85.71 1837.22,-84.14 1848.29,-82.51"/>
<polygon fill="midnightblue" stroke="midnightblue" points="1848.94,-85.95 1858.31,-81.01 1847.9,-79.03 1848.94,-85.95"/>
</g>
<!-- Node21 -->
<g id="node21" class="node">
<title>Node21</title>
<g id="a_node21"><a xlink:title=" ">
<polygon fill="none" stroke="#bfbfbf" points="2013.5,-62 2013.5,-81 2140.5,-81 2140.5,-62 2013.5,-62"/>
<text text-anchor="middle" x="2077" y="-69" font-family="Helvetica,sans-Serif" font-size="10.00">boost/uuid/uuid_io.hpp</text>
</a>
</g>
</g>
<!-- Node5&#45;&gt;Node21 -->
<g id="edge21" class="edge">
<title>Node5&#45;&gt;Node21</title>
<path fill="none" stroke="midnightblue" d="M1298.16,-136.12C1430.61,-132.65 1743.67,-121.24 2004,-87 2012.11,-85.93 2020.66,-84.51 2028.96,-82.97"/>
<polygon fill="midnightblue" stroke="midnightblue" points="2029.74,-86.38 2038.89,-81.05 2028.41,-79.51 2029.74,-86.38"/>
</g>
<!-- Node22 -->
<g id="node22" class="node">
<title>Node22</title>
<g id="a_node22"><a xlink:title=" ">
<polygon fill="none" stroke="#bfbfbf" points="2159,-62 2159,-81 2311,-81 2311,-62 2159,-62"/>
<text text-anchor="middle" x="2235" y="-69" font-family="Helvetica,sans-Serif" font-size="10.00">impl/hdf5_core_general.hpp</text>
</a>
</g>
</g>
<!-- Node5&#45;&gt;Node22 -->
<g id="edge22" class="edge">
<title>Node5&#45;&gt;Node22</title>
<path fill="none" stroke="midnightblue" d="M1298.27,-136.42C1447.89,-133.38 1830.99,-122.47 2149,-87 2159.04,-85.88 2169.7,-84.36 2179.96,-82.72"/>
<polygon fill="midnightblue" stroke="midnightblue" points="2180.76,-86.14 2190.05,-81.05 2179.62,-79.23 2180.76,-86.14"/>
</g>
<!-- Node23&#45;&gt;Node19 -->
<g id="edge24" class="edge">
<title>Node23&#45;&gt;Node19</title>
<path fill="none" stroke="midnightblue" d="M1916.93,-128.94C1922.96,-126.67 1929.66,-124.45 1936,-123 2103.11,-84.8 2150.64,-113.44 2320,-87 2326.78,-85.94 2333.9,-84.61 2340.86,-83.19"/>
<polygon fill="midnightblue" stroke="midnightblue" points="2341.82,-86.56 2350.87,-81.06 2340.36,-79.71 2341.82,-86.56"/>
</g>
<!-- Node24 -->
<g id="node24" class="node">
<title>Node24</title>
<g id="a_node24"><a xlink:href="datatype_8h.html" target="_top" xlink:title=" ">
<polygon fill="none" stroke="black" points="2460.5,-62 2460.5,-81 2529.5,-81 2529.5,-62 2460.5,-62"/>
<text text-anchor="middle" x="2495" y="-69" font-family="Helvetica,sans-Serif" font-size="10.00">datatype.h</text>
</a>
</g>
</g>
<!-- Node23&#45;&gt;Node24 -->
<g id="edge25" class="edge">
<title>Node23&#45;&gt;Node24</title>
<path fill="none" stroke="midnightblue" d="M1916.91,-128.85C1922.94,-126.57 1929.65,-124.37 1936,-123 2160.27,-74.52 2225.86,-131.25 2451,-87 2454.88,-86.24 2458.9,-85.23 2462.86,-84.1"/>
<polygon fill="midnightblue" stroke="midnightblue" points="2463.94,-87.43 2472.45,-81.12 2461.86,-80.75 2463.94,-87.43"/>
</g>
<!-- Node25 -->
<g id="node25" class="node">
<title>Node25</title>
<g id="a_node25"><a xlink:href="timestamp_8h.html" target="_top" xlink:title=" ">
<polygon fill="none" stroke="black" points="2547.5,-62 2547.5,-81 2626.5,-81 2626.5,-62 2547.5,-62"/>
<text text-anchor="middle" x="2587" y="-69" font-family="Helvetica,sans-Serif" font-size="10.00">timestamp.h</text>
</a>
</g>
</g>
<!-- Node23&#45;&gt;Node25 -->
<g id="edge26" class="edge">
<title>Node23&#45;&gt;Node25</title>
<path fill="none" stroke="midnightblue" d="M1916.5,-128.96C1922.63,-126.63 1929.5,-124.37 1936,-123 2198.26,-67.69 2274,-133.33 2538,-87 2542.72,-86.17 2547.63,-85.05 2552.44,-83.79"/>
<polygon fill="midnightblue" stroke="midnightblue" points="2553.41,-87.15 2562.08,-81.07 2551.51,-80.42 2553.41,-87.15"/>
</g>
<!-- Node26 -->
<g id="node26" class="node">
<title>Node26</title>
<g id="a_node26"><a xlink:title=" ">
<polygon fill="none" stroke="#bfbfbf" points="2554.5,-0.5 2554.5,-19.5 2619.5,-19.5 2619.5,-0.5 2554.5,-0.5"/>
<text text-anchor="middle" x="2587" y="-7.5" font-family="Helvetica,sans-Serif" font-size="10.00">functional</text>
</a>
</g>
</g>
<!-- Node25&#45;&gt;Node26 -->
<g id="edge27" class="edge">
<title>Node25&#45;&gt;Node26</title>
<path fill="none" stroke="midnightblue" d="M2587,-61.98C2587,-53.58 2587,-40.48 2587,-29.66"/>
<polygon fill="midnightblue" stroke="midnightblue" points="2590.5,-29.51 2587,-19.51 2583.5,-29.51 2590.5,-29.51"/>
</g>
</g>
</svg>
