<?xml version="1.0" encoding="UTF-8" standalone="no"?>
<!DOCTYPE svg PUBLIC "-//W3C//DTD SVG 1.1//EN"
 "http://www.w3.org/Graphics/SVG/1.1/DTD/svg11.dtd">
<!-- Generated by graphviz version 2.43.0 (0)
 -->
<!-- Title: seerep_srv/seerep_core_pb/include/seerep_core_pb/core_pb_conversion.h Pages: 1 -->
<svg width="1535pt" height="351pt"
 viewBox="0.00 0.00 1535.00 351.00" xmlns="http://www.w3.org/2000/svg" xmlns:xlink="http://www.w3.org/1999/xlink">
<g id="graph0" class="graph" transform="scale(1 1) rotate(0) translate(4 347)">
<title>seerep_srv/seerep_core_pb/include/seerep_core_pb/core_pb_conversion.h</title>
<!-- Node1 -->
<g id="node1" class="node">
<title>Node1</title>
<g id="a_node1"><a xlink:title=" ">
<polygon fill="#bfbfbf" stroke="black" points="906,-301.5 906,-342.5 1049,-342.5 1049,-301.5 906,-301.5"/>
<text text-anchor="start" x="914" y="-330.5" font-family="Helvetica,sans-Serif" font-size="10.00">seerep_srv/seerep_core</text>
<text text-anchor="start" x="914" y="-319.5" font-family="Helvetica,sans-Serif" font-size="10.00">_pb/include/seerep_core</text>
<text text-anchor="middle" x="977.5" y="-308.5" font-family="Helvetica,sans-Serif" font-size="10.00">_pb/core_pb_conversion.h</text>
</a>
</g>
</g>
<!-- Node2 -->
<g id="node2" class="node">
<title>Node2</title>
<g id="a_node2"><a xlink:href="core__pb__camera__intrinsics_8h.html" target="_top" xlink:title=" ">
<polygon fill="none" stroke="black" points="170.5,-223.5 170.5,-264.5 346.5,-264.5 346.5,-223.5 170.5,-223.5"/>
<text text-anchor="start" x="178.5" y="-252.5" font-family="Helvetica,sans-Serif" font-size="10.00">seerep_srv/seerep_core</text>
<text text-anchor="start" x="178.5" y="-241.5" font-family="Helvetica,sans-Serif" font-size="10.00">_pb/include/seerep_core</text>
<text text-anchor="middle" x="258.5" y="-230.5" font-family="Helvetica,sans-Serif" font-size="10.00">_pb/core_pb_camera_intrinsics.h</text>
</a>
</g>
</g>
<!-- Node1&#45;&gt;Node2 -->
<g id="edge1" class="edge">
<title>Node1&#45;&gt;Node2</title>
<path fill="none" stroke="midnightblue" d="M895.97,-312.38C759.81,-297.99 487.24,-269.18 346.74,-254.33"/>
<polygon fill="midnightblue" stroke="midnightblue" points="895.62,-315.86 905.93,-313.43 896.35,-308.9 895.62,-315.86"/>
</g>
<!-- Node8 -->
<g id="node8" class="node">
<title>Node8</title>
<g id="a_node8"><a xlink:href="core__pb__image_8h.html" target="_top" xlink:title=" ">
<polygon fill="none" stroke="black" points="511.5,-223.5 511.5,-264.5 645.5,-264.5 645.5,-223.5 511.5,-223.5"/>
<text text-anchor="start" x="519.5" y="-252.5" font-family="Helvetica,sans-Serif" font-size="10.00">seerep_srv/seerep_core</text>
<text text-anchor="start" x="519.5" y="-241.5" font-family="Helvetica,sans-Serif" font-size="10.00">_pb/include/seerep_core</text>
<text text-anchor="middle" x="578.5" y="-230.5" font-family="Helvetica,sans-Serif" font-size="10.00">_pb/core_pb_image.h</text>
</a>
</g>
</g>
<!-- Node1&#45;&gt;Node8 -->
<g id="edge7" class="edge">
<title>Node1&#45;&gt;Node8</title>
<path fill="none" stroke="midnightblue" d="M895.52,-305.39C821.73,-291.33 714.59,-270.92 645.73,-257.81"/>
<polygon fill="midnightblue" stroke="midnightblue" points="895.23,-308.89 905.71,-307.32 896.54,-302.02 895.23,-308.89"/>
</g>
<!-- Node12 -->
<g id="node12" class="node">
<title>Node12</title>
<g id="a_node12"><a xlink:href="core__pb__pointcloud_8h.html" target="_top" xlink:title=" ">
<polygon fill="none" stroke="black" points="828.5,-223.5 828.5,-264.5 968.5,-264.5 968.5,-223.5 828.5,-223.5"/>
<text text-anchor="start" x="836.5" y="-252.5" font-family="Helvetica,sans-Serif" font-size="10.00">seerep_srv/seerep_core</text>
<text text-anchor="start" x="836.5" y="-241.5" font-family="Helvetica,sans-Serif" font-size="10.00">_pb/include/seerep_core</text>
<text text-anchor="middle" x="898.5" y="-230.5" font-family="Helvetica,sans-Serif" font-size="10.00">_pb/core_pb_pointcloud.h</text>
</a>
</g>
</g>
<!-- Node1&#45;&gt;Node12 -->
<g id="edge12" class="edge">
<title>Node1&#45;&gt;Node12</title>
<path fill="none" stroke="midnightblue" d="M949.95,-294.49C939.69,-284.63 928.26,-273.63 918.78,-264.51"/>
<polygon fill="midnightblue" stroke="midnightblue" points="947.52,-297.02 957.16,-301.43 952.38,-291.97 947.52,-297.02"/>
</g>
<!-- Node16 -->
<g id="node16" class="node">
<title>Node16</title>
<g id="a_node16"><a xlink:href="core__pb__tf_8h.html" target="_top" xlink:title=" ">
<polygon fill="none" stroke="black" points="1203.5,-223.5 1203.5,-264.5 1337.5,-264.5 1337.5,-223.5 1203.5,-223.5"/>
<text text-anchor="start" x="1211.5" y="-252.5" font-family="Helvetica,sans-Serif" font-size="10.00">seerep_srv/seerep_core</text>
<text text-anchor="start" x="1211.5" y="-241.5" font-family="Helvetica,sans-Serif" font-size="10.00">_pb/include/seerep_core</text>
<text text-anchor="middle" x="1270.5" y="-230.5" font-family="Helvetica,sans-Serif" font-size="10.00">_pb/core_pb_tf.h</text>
</a>
</g>
</g>
<!-- Node1&#45;&gt;Node16 -->
<g id="edge17" class="edge">
<title>Node1&#45;&gt;Node16</title>
<path fill="none" stroke="midnightblue" d="M1058.99,-299.86C1104.37,-288.09 1160.18,-273.61 1203.08,-262.49"/>
<polygon fill="midnightblue" stroke="midnightblue" points="1057.98,-296.51 1049.18,-302.41 1059.73,-303.29 1057.98,-296.51"/>
</g>
<!-- Node20 -->
<g id="node20" class="node">
<title>Node20</title>
<g id="a_node20"><a xlink:href="core__pb__conversion_8cpp.html" target="_top" xlink:title=" ">
<polygon fill="none" stroke="black" points="1356,-229 1356,-259 1527,-259 1527,-229 1356,-229"/>
<text text-anchor="start" x="1364" y="-247" font-family="Helvetica,sans-Serif" font-size="10.00">seerep_srv/seerep_core</text>
<text text-anchor="middle" x="1441.5" y="-236" font-family="Helvetica,sans-Serif" font-size="10.00">_pb/src/core_pb_conversion.cpp</text>
</a>
</g>
</g>
<!-- Node1&#45;&gt;Node20 -->
<g id="edge22" class="edge">
<title>Node1&#45;&gt;Node20</title>
<path fill="none" stroke="midnightblue" d="M1059.44,-309.93C1134.36,-299.48 1248.15,-282.8 1346.5,-265 1356.45,-263.2 1366.96,-261.14 1377.21,-259.05"/>
<polygon fill="midnightblue" stroke="midnightblue" points="1058.55,-306.52 1049.13,-311.36 1059.52,-313.45 1058.55,-306.52"/>
</g>
<!-- Node21 -->
<g id="node21" class="node">
<title>Node21</title>
<g id="a_node21"><a xlink:href="pb__meta__operations_8h.html" target="_top" xlink:title=" ">
<polygon fill="none" stroke="black" points="986.5,-223.5 986.5,-264.5 1128.5,-264.5 1128.5,-223.5 986.5,-223.5"/>
<text text-anchor="start" x="994.5" y="-252.5" font-family="Helvetica,sans-Serif" font-size="10.00">seerep_srv/seerep_server</text>
<text text-anchor="start" x="994.5" y="-241.5" font-family="Helvetica,sans-Serif" font-size="10.00">/include/seerep_server</text>
<text text-anchor="middle" x="1057.5" y="-230.5" font-family="Helvetica,sans-Serif" font-size="10.00">/pb_meta_operations.h</text>
</a>
</g>
</g>
<!-- Node1&#45;&gt;Node21 -->
<g id="edge23" class="edge">
<title>Node1&#45;&gt;Node21</title>
<path fill="none" stroke="midnightblue" d="M1005.4,-294.49C1015.78,-284.63 1027.37,-273.63 1036.97,-264.51"/>
<polygon fill="midnightblue" stroke="midnightblue" points="1002.94,-292 998.1,-301.43 1007.76,-297.08 1002.94,-292"/>
</g>
<!-- Node3 -->
<g id="node3" class="node">
<title>Node3</title>
<g id="a_node3"><a xlink:href="core__pb__camera__intrinsics_8cpp.html" target="_top" xlink:title=" ">
<polygon fill="none" stroke="black" points="191.5,-145.5 191.5,-186.5 325.5,-186.5 325.5,-145.5 191.5,-145.5"/>
<text text-anchor="start" x="199.5" y="-174.5" font-family="Helvetica,sans-Serif" font-size="10.00">seerep_srv/seerep_core</text>
<text text-anchor="start" x="199.5" y="-163.5" font-family="Helvetica,sans-Serif" font-size="10.00">_pb/src/core_pb_camera</text>
<text text-anchor="middle" x="258.5" y="-152.5" font-family="Helvetica,sans-Serif" font-size="10.00">_intrinsics.cpp</text>
</a>
</g>
</g>
<!-- Node2&#45;&gt;Node3 -->
<g id="edge2" class="edge">
<title>Node2&#45;&gt;Node3</title>
<path fill="none" stroke="midnightblue" d="M258.5,-213.3C258.5,-204.3 258.5,-194.65 258.5,-186.51"/>
<polygon fill="midnightblue" stroke="midnightblue" points="255,-213.43 258.5,-223.43 262,-213.43 255,-213.43"/>
</g>
<!-- Node4 -->
<g id="node4" class="node">
<title>Node4</title>
<g id="a_node4"><a xlink:href="pb__camera__intrinsics__service_8h.html" target="_top" xlink:title=" ">
<polygon fill="none" stroke="black" points="0,-145.5 0,-186.5 173,-186.5 173,-145.5 0,-145.5"/>
<text text-anchor="start" x="8" y="-174.5" font-family="Helvetica,sans-Serif" font-size="10.00">seerep_srv/seerep_server</text>
<text text-anchor="start" x="8" y="-163.5" font-family="Helvetica,sans-Serif" font-size="10.00">/include/seerep_server</text>
<text text-anchor="middle" x="86.5" y="-152.5" font-family="Helvetica,sans-Serif" font-size="10.00">/pb_camera_intrinsics_service.h</text>
</a>
</g>
</g>
<!-- Node2&#45;&gt;Node4 -->
<g id="edge3" class="edge">
<title>Node2&#45;&gt;Node4</title>
<path fill="none" stroke="midnightblue" d="M204.93,-219.33C181.06,-208.78 153.29,-196.51 130.64,-186.51"/>
<polygon fill="midnightblue" stroke="midnightblue" points="203.64,-222.59 214.21,-223.43 206.47,-216.19 203.64,-222.59"/>
</g>
<!-- Node5 -->
<g id="node5" class="node">
<title>Node5</title>
<g id="a_node5"><a xlink:href="server_8h.html" target="_top" xlink:title=" ">
<polygon fill="none" stroke="black" points="908.5,-67.5 908.5,-108.5 1050.5,-108.5 1050.5,-67.5 908.5,-67.5"/>
<text text-anchor="start" x="916.5" y="-96.5" font-family="Helvetica,sans-Serif" font-size="10.00">seerep_srv/seerep_server</text>
<text text-anchor="start" x="916.5" y="-85.5" font-family="Helvetica,sans-Serif" font-size="10.00">/include/seerep_server</text>
<text text-anchor="middle" x="979.5" y="-74.5" font-family="Helvetica,sans-Serif" font-size="10.00">/server.h</text>
</a>
</g>
</g>
<!-- Node4&#45;&gt;Node5 -->
<g id="edge4" class="edge">
<title>Node4&#45;&gt;Node5</title>
<path fill="none" stroke="midnightblue" d="M182.94,-145.07C500.29,-105.42 586.51,-154.93 898.5,-109 901.65,-108.54 904.86,-108 908.09,-107.42"/>
<polygon fill="midnightblue" stroke="midnightblue" points="182.48,-141.6 173,-146.33 183.36,-148.55 182.48,-141.6"/>
</g>
<!-- Node7 -->
<g id="node7" class="node">
<title>Node7</title>
<g id="a_node7"><a xlink:href="pb__camera__intrinsics__service_8cpp.html" target="_top" xlink:title=" ">
<polygon fill="none" stroke="black" points="15.5,-67.5 15.5,-108.5 157.5,-108.5 157.5,-67.5 15.5,-67.5"/>
<text text-anchor="start" x="23.5" y="-96.5" font-family="Helvetica,sans-Serif" font-size="10.00">seerep_srv/seerep_server</text>
<text text-anchor="start" x="23.5" y="-85.5" font-family="Helvetica,sans-Serif" font-size="10.00">/src/pb_camera_intrinsics</text>
<text text-anchor="middle" x="86.5" y="-74.5" font-family="Helvetica,sans-Serif" font-size="10.00">_service.cpp</text>
</a>
</g>
</g>
<!-- Node4&#45;&gt;Node7 -->
<g id="edge6" class="edge">
<title>Node4&#45;&gt;Node7</title>
<path fill="none" stroke="midnightblue" d="M86.5,-135.3C86.5,-126.3 86.5,-116.65 86.5,-108.51"/>
<polygon fill="midnightblue" stroke="midnightblue" points="83,-135.43 86.5,-145.43 90,-135.43 83,-135.43"/>
</g>
<!-- Node6 -->
<g id="node6" class="node">
<title>Node6</title>
<g id="a_node6"><a xlink:href="server_8cpp.html" target="_top" xlink:title=" ">
<polygon fill="none" stroke="black" points="908.5,-0.5 908.5,-30.5 1050.5,-30.5 1050.5,-0.5 908.5,-0.5"/>
<text text-anchor="start" x="916.5" y="-18.5" font-family="Helvetica,sans-Serif" font-size="10.00">seerep_srv/seerep_server</text>
<text text-anchor="middle" x="979.5" y="-7.5" font-family="Helvetica,sans-Serif" font-size="10.00">/src/server.cpp</text>
</a>
</g>
</g>
<!-- Node5&#45;&gt;Node6 -->
<g id="edge5" class="edge">
<title>Node5&#45;&gt;Node6</title>
<path fill="none" stroke="midnightblue" d="M979.5,-57.08C979.5,-48.01 979.5,-38.45 979.5,-30.89"/>
<polygon fill="midnightblue" stroke="midnightblue" points="976,-57.36 979.5,-67.36 983,-57.36 976,-57.36"/>
</g>
<!-- Node9 -->
<g id="node9" class="node">
<title>Node9</title>
<g id="a_node9"><a xlink:href="core__pb__image_8cpp.html" target="_top" xlink:title=" ">
<polygon fill="none" stroke="black" points="504,-151 504,-181 653,-181 653,-151 504,-151"/>
<text text-anchor="start" x="512" y="-169" font-family="Helvetica,sans-Serif" font-size="10.00">seerep_srv/seerep_core</text>
<text text-anchor="middle" x="578.5" y="-158" font-family="Helvetica,sans-Serif" font-size="10.00">_pb/src/core_pb_image.cpp</text>
</a>
</g>
</g>
<!-- Node8&#45;&gt;Node9 -->
<g id="edge8" class="edge">
<title>Node8&#45;&gt;Node9</title>
<path fill="none" stroke="midnightblue" d="M578.5,-213.28C578.5,-202.25 578.5,-190.25 578.5,-181.23"/>
<polygon fill="midnightblue" stroke="midnightblue" points="575,-213.43 578.5,-223.43 582,-213.43 575,-213.43"/>
</g>
<!-- Node10 -->
<g id="node10" class="node">
<title>Node10</title>
<g id="a_node10"><a xlink:href="pb__image__service_8h.html" target="_top" xlink:title=" ">
<polygon fill="none" stroke="black" points="343.5,-145.5 343.5,-186.5 485.5,-186.5 485.5,-145.5 343.5,-145.5"/>
<text text-anchor="start" x="351.5" y="-174.5" font-family="Helvetica,sans-Serif" font-size="10.00">seerep_srv/seerep_server</text>
<text text-anchor="start" x="351.5" y="-163.5" font-family="Helvetica,sans-Serif" font-size="10.00">/include/seerep_server</text>
<text text-anchor="middle" x="414.5" y="-152.5" font-family="Helvetica,sans-Serif" font-size="10.00">/pb_image_service.h</text>
</a>
</g>
</g>
<!-- Node8&#45;&gt;Node10 -->
<g id="edge9" class="edge">
<title>Node8&#45;&gt;Node10</title>
<path fill="none" stroke="midnightblue" d="M527.12,-219.19C504.43,-208.67 478.09,-196.47 456.59,-186.51"/>
<polygon fill="midnightblue" stroke="midnightblue" points="525.72,-222.4 536.27,-223.43 528.66,-216.05 525.72,-222.4"/>
</g>
<!-- Node10&#45;&gt;Node5 -->
<g id="edge10" class="edge">
<title>Node10&#45;&gt;Node5</title>
<path fill="none" stroke="midnightblue" d="M495.88,-144.91C674.05,-115.89 723.91,-138.16 898.5,-109 901.64,-108.48 904.84,-107.89 908.07,-107.27"/>
<polygon fill="midnightblue" stroke="midnightblue" points="495.2,-141.47 485.91,-146.56 496.35,-148.38 495.2,-141.47"/>
</g>
<!-- Node11 -->
<g id="node11" class="node">
<title>Node11</title>
<g id="a_node11"><a xlink:href="pb__image__service_8cpp.html" target="_top" xlink:title=" ">
<polygon fill="none" stroke="black" points="341.5,-73 341.5,-103 487.5,-103 487.5,-73 341.5,-73"/>
<text text-anchor="start" x="349.5" y="-91" font-family="Helvetica,sans-Serif" font-size="10.00">seerep_srv/seerep_server</text>
<text text-anchor="middle" x="414.5" y="-80" font-family="Helvetica,sans-Serif" font-size="10.00">/src/pb_image_service.cpp</text>
</a>
</g>
</g>
<!-- Node10&#45;&gt;Node11 -->
<g id="edge11" class="edge">
<title>Node10&#45;&gt;Node11</title>
<path fill="none" stroke="midnightblue" d="M414.5,-135.28C414.5,-124.25 414.5,-112.25 414.5,-103.23"/>
<polygon fill="midnightblue" stroke="midnightblue" points="411,-135.43 414.5,-145.43 418,-135.43 411,-135.43"/>
</g>
<!-- Node13 -->
<g id="node13" class="node">
<title>Node13</title>
<g id="a_node13"><a xlink:href="core__pb__pointcloud_8cpp.html" target="_top" xlink:title=" ">
<polygon fill="none" stroke="black" points="671,-151 671,-181 840,-181 840,-151 671,-151"/>
<text text-anchor="start" x="679" y="-169" font-family="Helvetica,sans-Serif" font-size="10.00">seerep_srv/seerep_core</text>
<text text-anchor="middle" x="755.5" y="-158" font-family="Helvetica,sans-Serif" font-size="10.00">_pb/src/core_pb_pointcloud.cpp</text>
</a>
</g>
</g>
<!-- Node12&#45;&gt;Node13 -->
<g id="edge13" class="edge">
<title>Node12&#45;&gt;Node13</title>
<path fill="none" stroke="midnightblue" d="M852.67,-218.64C829.44,-206.3 802.04,-191.73 782.27,-181.23"/>
<polygon fill="midnightblue" stroke="midnightblue" points="851.2,-221.83 861.67,-223.43 854.49,-215.64 851.2,-221.83"/>
</g>
<!-- Node14 -->
<g id="node14" class="node">
<title>Node14</title>
<g id="a_node14"><a xlink:href="pb__point__cloud__service_8h.html" target="_top" xlink:title=" ">
<polygon fill="none" stroke="black" points="858,-145.5 858,-186.5 1001,-186.5 1001,-145.5 858,-145.5"/>
<text text-anchor="start" x="866" y="-174.5" font-family="Helvetica,sans-Serif" font-size="10.00">seerep_srv/seerep_server</text>
<text text-anchor="start" x="866" y="-163.5" font-family="Helvetica,sans-Serif" font-size="10.00">/include/seerep_server</text>
<text text-anchor="middle" x="929.5" y="-152.5" font-family="Helvetica,sans-Serif" font-size="10.00">/pb_point_cloud_service.h</text>
</a>
</g>
</g>
<!-- Node12&#45;&gt;Node14 -->
<g id="edge14" class="edge">
<title>Node12&#45;&gt;Node14</title>
<path fill="none" stroke="midnightblue" d="M910.38,-213.88C914.11,-204.72 918.15,-194.83 921.54,-186.51"/>
<polygon fill="midnightblue" stroke="midnightblue" points="907.02,-212.85 906.48,-223.43 913.5,-215.49 907.02,-212.85"/>
</g>
<!-- Node14&#45;&gt;Node5 -->
<g id="edge15" class="edge">
<title>Node14&#45;&gt;Node5</title>
<path fill="none" stroke="midnightblue" d="M947.89,-137.05C954.13,-127.57 960.96,-117.18 966.67,-108.51"/>
<polygon fill="midnightblue" stroke="midnightblue" points="944.95,-135.15 942.38,-145.43 950.8,-139 944.95,-135.15"/>
</g>
<!-- Node15 -->
<g id="node15" class="node">
<title>Node15</title>
<g id="a_node15"><a xlink:href="pb__point__cloud__service_8cpp.html" target="_top" xlink:title=" ">
<polygon fill="none" stroke="black" points="719,-73 719,-103 890,-103 890,-73 719,-73"/>
<text text-anchor="start" x="727" y="-91" font-family="Helvetica,sans-Serif" font-size="10.00">seerep_srv/seerep_server</text>
<text text-anchor="middle" x="804.5" y="-80" font-family="Helvetica,sans-Serif" font-size="10.00">/src/pb_point_cloud_service.cpp</text>
</a>
</g>
</g>
<!-- Node14&#45;&gt;Node15 -->
<g id="edge16" class="edge">
<title>Node14&#45;&gt;Node15</title>
<path fill="none" stroke="midnightblue" d="M888.63,-140.15C868.5,-127.91 844.95,-113.59 827.9,-103.23"/>
<polygon fill="midnightblue" stroke="midnightblue" points="886.95,-143.22 897.31,-145.43 890.58,-137.24 886.95,-143.22"/>
</g>
<!-- Node17 -->
<g id="node17" class="node">
<title>Node17</title>
<g id="a_node17"><a xlink:href="core__pb__tf_8cpp.html" target="_top" xlink:title=" ">
<polygon fill="none" stroke="black" points="1233.5,-151 1233.5,-181 1365.5,-181 1365.5,-151 1233.5,-151"/>
<text text-anchor="start" x="1241.5" y="-169" font-family="Helvetica,sans-Serif" font-size="10.00">seerep_srv/seerep_core</text>
<text text-anchor="middle" x="1299.5" y="-158" font-family="Helvetica,sans-Serif" font-size="10.00">_pb/src/core_pb_tf.cpp</text>
</a>
</g>
</g>
<!-- Node16&#45;&gt;Node17 -->
<g id="edge18" class="edge">
<title>Node16&#45;&gt;Node17</title>
<path fill="none" stroke="midnightblue" d="M1281.58,-213.96C1285.86,-202.75 1290.56,-190.43 1294.07,-181.23"/>
<polygon fill="midnightblue" stroke="midnightblue" points="1278.26,-212.84 1277.97,-223.43 1284.8,-215.33 1278.26,-212.84"/>
</g>
<!-- Node18 -->
<g id="node18" class="node">
<title>Node18</title>
<g id="a_node18"><a xlink:href="pb__tf__service_8h.html" target="_top" xlink:title=" ">
<polygon fill="none" stroke="black" points="1383.5,-145.5 1383.5,-186.5 1525.5,-186.5 1525.5,-145.5 1383.5,-145.5"/>
<text text-anchor="start" x="1391.5" y="-174.5" font-family="Helvetica,sans-Serif" font-size="10.00">seerep_srv/seerep_server</text>
<text text-anchor="start" x="1391.5" y="-163.5" font-family="Helvetica,sans-Serif" font-size="10.00">/include/seerep_server</text>
<text text-anchor="middle" x="1454.5" y="-152.5" font-family="Helvetica,sans-Serif" font-size="10.00">/pb_tf_service.h</text>
</a>
</g>
</g>
<!-- Node16&#45;&gt;Node18 -->
<g id="edge19" class="edge">
<title>Node16&#45;&gt;Node18</title>
<path fill="none" stroke="midnightblue" d="M1327.13,-219.61C1352.81,-209 1382.83,-196.6 1407.28,-186.51"/>
<polygon fill="midnightblue" stroke="midnightblue" points="1325.79,-216.38 1317.88,-223.43 1328.46,-222.85 1325.79,-216.38"/>
</g>
<!-- Node18&#45;&gt;Node5 -->
<g id="edge20" class="edge">
<title>Node18&#45;&gt;Node5</title>
<path fill="none" stroke="midnightblue" d="M1373.5,-144.9C1254.81,-122.1 1127.7,-105.8 1050.51,-96.81"/>
<polygon fill="midnightblue" stroke="midnightblue" points="1373,-148.37 1383.49,-146.84 1374.34,-141.5 1373,-148.37"/>
</g>
<!-- Node19 -->
<g id="node19" class="node">
<title>Node19</title>
<g id="a_node19"><a xlink:href="pb__tf__service_8cpp.html" target="_top" xlink:title=" ">
<polygon fill="none" stroke="black" points="1383.5,-73 1383.5,-103 1525.5,-103 1525.5,-73 1383.5,-73"/>
<text text-anchor="start" x="1391.5" y="-91" font-family="Helvetica,sans-Serif" font-size="10.00">seerep_srv/seerep_server</text>
<text text-anchor="middle" x="1454.5" y="-80" font-family="Helvetica,sans-Serif" font-size="10.00">/src/pb_tf_service.cpp</text>
</a>
</g>
</g>
<!-- Node18&#45;&gt;Node19 -->
<g id="edge21" class="edge">
<title>Node18&#45;&gt;Node19</title>
<path fill="none" stroke="midnightblue" d="M1454.5,-135.28C1454.5,-124.25 1454.5,-112.25 1454.5,-103.23"/>
<polygon fill="midnightblue" stroke="midnightblue" points="1451,-135.43 1454.5,-145.43 1458,-135.43 1451,-135.43"/>
</g>
<!-- Node21&#45;&gt;Node5 -->
<g id="edge24" class="edge">
<title>Node21&#45;&gt;Node5</title>
<path fill="none" stroke="midnightblue" d="M1043.8,-214.35C1034.35,-194.73 1021.38,-168.18 1009.5,-145 1003.26,-132.83 996.03,-119.31 990.23,-108.6"/>
<polygon fill="midnightblue" stroke="midnightblue" points="1040.66,-215.88 1048.15,-223.37 1046.97,-212.84 1040.66,-215.88"/>
</g>
<!-- Node22 -->
<g id="node22" class="node">
<title>Node22</title>
<g id="a_node22"><a xlink:href="pb__meta__operations_8cpp.html" target="_top" xlink:title=" ">
<polygon fill="none" stroke="black" points="1058,-151 1058,-181 1215,-181 1215,-151 1058,-151"/>
<text text-anchor="start" x="1066" y="-169" font-family="Helvetica,sans-Serif" font-size="10.00">seerep_srv/seerep_server</text>
<text text-anchor="middle" x="1136.5" y="-158" font-family="Helvetica,sans-Serif" font-size="10.00">/src/pb_meta_operations.cpp</text>
</a>
</g>
</g>
<!-- Node21&#45;&gt;Node22 -->
<g id="edge25" class="edge">
<title>Node21&#45;&gt;Node22</title>
<path fill="none" stroke="midnightblue" d="M1085.23,-216.32C1097.51,-204.51 1111.47,-191.08 1121.71,-181.23"/>
<polygon fill="midnightblue" stroke="midnightblue" points="1082.62,-213.97 1077.84,-223.43 1087.48,-219.02 1082.62,-213.97"/>
</g>
</g>
</svg>
