<?xml version="1.0" encoding="UTF-8" standalone="no"?>
<!DOCTYPE svg PUBLIC "-//W3C//DTD SVG 1.1//EN"
 "http://www.w3.org/Graphics/SVG/1.1/DTD/svg11.dtd">
<!-- Generated by graphviz version 2.43.0 (0)
 -->
<!-- Title: seerep_srv/seerep_core/src/core_instances.cpp Pages: 1 -->
<svg width="2449pt" height="341pt"
 viewBox="0.00 0.00 2449.00 341.00" xmlns="http://www.w3.org/2000/svg" xmlns:xlink="http://www.w3.org/1999/xlink">
<g id="graph0" class="graph" transform="scale(1 1) rotate(0) translate(4 337)">
<title>seerep_srv/seerep_core/src/core_instances.cpp</title>
<!-- Node1 -->
<g id="node1" class="node">
<title>Node1</title>
<g id="a_node1"><a xlink:title=" ">
<polygon fill="#bfbfbf" stroke="black" points="1776.5,-302.5 1776.5,-332.5 1908.5,-332.5 1908.5,-302.5 1776.5,-302.5"/>
<text text-anchor="start" x="1784.5" y="-320.5" font-family="Helvetica,sans-Serif" font-size="10.00">seerep_srv/seerep_core</text>
<text text-anchor="middle" x="1842.5" y="-309.5" font-family="Helvetica,sans-Serif" font-size="10.00">/src/core_instances.cpp</text>
</a>
</g>
</g>
<!-- Node2 -->
<g id="node2" class="node">
<title>Node2</title>
<g id="a_node2"><a xlink:href="core__instances_8h.html" target="_top" xlink:title=" ">
<polygon fill="none" stroke="black" points="1762,-246.5 1762,-265.5 1923,-265.5 1923,-246.5 1762,-246.5"/>
<text text-anchor="middle" x="1842.5" y="-253.5" font-family="Helvetica,sans-Serif" font-size="10.00">seerep_core/core_instances.h</text>
</a>
</g>
</g>
<!-- Node1&#45;&gt;Node2 -->
<g id="edge1" class="edge">
<title>Node1&#45;&gt;Node2</title>
<path fill="none" stroke="midnightblue" d="M1842.5,-302.4C1842.5,-294.47 1842.5,-284.46 1842.5,-275.86"/>
<polygon fill="midnightblue" stroke="midnightblue" points="1846,-275.66 1842.5,-265.66 1839,-275.66 1846,-275.66"/>
</g>
<!-- Node3 -->
<g id="node3" class="node">
<title>Node3</title>
<g id="a_node3"><a xlink:title=" ">
<polygon fill="none" stroke="#bfbfbf" points="1501,-129 1501,-148 1566,-148 1566,-129 1501,-129"/>
<text text-anchor="middle" x="1533.5" y="-136" font-family="Helvetica,sans-Serif" font-size="10.00">functional</text>
</a>
</g>
</g>
<!-- Node2&#45;&gt;Node3 -->
<g id="edge2" class="edge">
<title>Node2&#45;&gt;Node3</title>
<path fill="none" stroke="midnightblue" d="M1819.53,-246.41C1765.23,-226.12 1628.82,-175.13 1566.04,-151.66"/>
<polygon fill="midnightblue" stroke="midnightblue" points="1567.22,-148.37 1556.62,-148.14 1564.77,-154.92 1567.22,-148.37"/>
</g>
<!-- Node4 -->
<g id="node4" class="node">
<title>Node4</title>
<g id="a_node4"><a xlink:title=" ">
<polygon fill="none" stroke="#bfbfbf" points="1776.5,-6 1776.5,-25 1832.5,-25 1832.5,-6 1776.5,-6"/>
<text text-anchor="middle" x="1804.5" y="-13" font-family="Helvetica,sans-Serif" font-size="10.00">optional</text>
</a>
</g>
</g>
<!-- Node2&#45;&gt;Node4 -->
<g id="edge3" class="edge">
<title>Node2&#45;&gt;Node4</title>
<path fill="none" stroke="midnightblue" d="M1781.49,-246.48C1690.35,-232.35 1525.67,-200.89 1491.5,-154 1468.73,-122.75 1465.99,-96.06 1491.5,-67 1532.31,-20.52 1707.59,-46.4 1767.5,-31 1770.16,-30.32 1772.9,-29.49 1775.61,-28.59"/>
<polygon fill="midnightblue" stroke="midnightblue" points="1777.02,-31.8 1785.21,-25.08 1774.61,-25.23 1777.02,-31.8"/>
</g>
<!-- Node5 -->
<g id="node5" class="node">
<title>Node5</title>
<g id="a_node5"><a xlink:href="core__instance_8h.html" target="_top" xlink:title=" ">
<polygon fill="none" stroke="black" points="1872,-190.5 1872,-209.5 1965,-209.5 1965,-190.5 1872,-190.5"/>
<text text-anchor="middle" x="1918.5" y="-197.5" font-family="Helvetica,sans-Serif" font-size="10.00">core_instance.h</text>
</a>
</g>
</g>
<!-- Node2&#45;&gt;Node5 -->
<g id="edge4" class="edge">
<title>Node2&#45;&gt;Node5</title>
<path fill="none" stroke="midnightblue" d="M1854.71,-246.32C1866.28,-238.11 1883.88,-225.6 1897.66,-215.81"/>
<polygon fill="midnightblue" stroke="midnightblue" points="1899.94,-218.48 1906.07,-209.83 1895.89,-212.77 1899.94,-218.48"/>
</g>
<!-- Node6 -->
<g id="node6" class="node">
<title>Node6</title>
<g id="a_node6"><a xlink:title=" ">
<polygon fill="none" stroke="#bfbfbf" points="2061,-129 2061,-148 2198,-148 2198,-129 2061,-129"/>
<text text-anchor="middle" x="2129.5" y="-136" font-family="Helvetica,sans-Serif" font-size="10.00">seerep_msgs/datatype.h</text>
</a>
</g>
</g>
<!-- Node2&#45;&gt;Node6 -->
<g id="edge42" class="edge">
<title>Node2&#45;&gt;Node6</title>
<path fill="none" stroke="midnightblue" d="M1870.09,-246.47C1896.99,-237.94 1938.94,-224.11 1974.5,-210 2020.37,-191.8 2072.33,-167.36 2102.93,-152.55"/>
<polygon fill="midnightblue" stroke="midnightblue" points="2104.61,-155.63 2112.08,-148.11 2101.55,-149.33 2104.61,-155.63"/>
</g>
<!-- Node7 -->
<g id="node7" class="node">
<title>Node7</title>
<g id="a_node7"><a xlink:href="hdf5__core__instance_8h.html" target="_top" xlink:title=" ">
<polygon fill="none" stroke="black" points="1675.5,-123.5 1675.5,-153.5 1803.5,-153.5 1803.5,-123.5 1675.5,-123.5"/>
<text text-anchor="start" x="1683.5" y="-141.5" font-family="Helvetica,sans-Serif" font-size="10.00">seerep_hdf5_core/hdf5</text>
<text text-anchor="middle" x="1739.5" y="-130.5" font-family="Helvetica,sans-Serif" font-size="10.00">_core_instance.h</text>
</a>
</g>
</g>
<!-- Node2&#45;&gt;Node7 -->
<g id="edge44" class="edge">
<title>Node2&#45;&gt;Node7</title>
<path fill="none" stroke="midnightblue" d="M1834.76,-246.32C1818.8,-228.42 1781.83,-186.97 1758.92,-161.28"/>
<polygon fill="midnightblue" stroke="midnightblue" points="1761.29,-158.68 1752.03,-153.55 1756.07,-163.34 1761.29,-158.68"/>
</g>
<!-- Node13 -->
<g id="node13" class="node">
<title>Node13</title>
<g id="a_node13"><a xlink:title=" ">
<polygon fill="none" stroke="#bfbfbf" points="0,-6 0,-25 117,-25 117,-6 0,-6"/>
<text text-anchor="middle" x="58.5" y="-13" font-family="Helvetica,sans-Serif" font-size="10.00">seerep_msgs/label.h</text>
</a>
</g>
</g>
<!-- Node2&#45;&gt;Node13 -->
<g id="edge43" class="edge">
<title>Node2&#45;&gt;Node13</title>
<path fill="none" stroke="midnightblue" d="M1761.67,-248.18C1665.69,-239.91 1500.8,-225.2 1359.5,-210 808.49,-150.73 670.2,-133.08 125.5,-31 119.28,-29.83 112.76,-28.53 106.32,-27.19"/>
<polygon fill="midnightblue" stroke="midnightblue" points="106.85,-23.72 96.34,-25.07 105.4,-30.57 106.85,-23.72"/>
</g>
<!-- Node20 -->
<g id="node20" class="node">
<title>Node20</title>
<g id="a_node20"><a xlink:title=" ">
<polygon fill="none" stroke="#bfbfbf" points="135,-6 135,-25 278,-25 278,-6 135,-6"/>
<text text-anchor="middle" x="206.5" y="-13" font-family="Helvetica,sans-Serif" font-size="10.00">boost/functional/hash.hpp</text>
</a>
</g>
</g>
<!-- Node2&#45;&gt;Node20 -->
<g id="edge45" class="edge">
<title>Node2&#45;&gt;Node20</title>
<path fill="none" stroke="midnightblue" d="M1777.57,-246.45C1564.01,-218.17 864.06,-124.11 287.5,-31 279.48,-29.7 271.02,-28.27 262.72,-26.82"/>
<polygon fill="midnightblue" stroke="midnightblue" points="263.17,-23.34 252.71,-25.05 261.95,-30.24 263.17,-23.34"/>
</g>
<!-- Node21 -->
<g id="node21" class="node">
<title>Node21</title>
<g id="a_node21"><a xlink:title=" ">
<polygon fill="none" stroke="#bfbfbf" points="1851,-6 1851,-25 1976,-25 1976,-6 1851,-6"/>
<text text-anchor="middle" x="1913.5" y="-13" font-family="Helvetica,sans-Serif" font-size="10.00">boost/lexical_cast.hpp</text>
</a>
</g>
</g>
<!-- Node2&#45;&gt;Node21 -->
<g id="edge46" class="edge">
<title>Node2&#45;&gt;Node21</title>
<path fill="none" stroke="midnightblue" d="M1845.11,-246.23C1855.46,-211.46 1893.75,-82.85 1908.06,-34.78"/>
<polygon fill="midnightblue" stroke="midnightblue" points="1911.44,-35.68 1910.94,-25.1 1904.73,-33.69 1911.44,-35.68"/>
</g>
<!-- Node22 -->
<g id="node22" class="node">
<title>Node22</title>
<g id="a_node22"><a xlink:title=" ">
<polygon fill="none" stroke="#bfbfbf" points="2328,-6 2328,-25 2441,-25 2441,-6 2328,-6"/>
<text text-anchor="middle" x="2384.5" y="-13" font-family="Helvetica,sans-Serif" font-size="10.00">boost/uuid/uuid.hpp</text>
</a>
</g>
</g>
<!-- Node2&#45;&gt;Node22 -->
<g id="edge47" class="edge">
<title>Node2&#45;&gt;Node22</title>
<path fill="none" stroke="midnightblue" d="M1923.07,-249.18C2007.01,-242.23 2132.32,-229.09 2176.5,-210 2267.88,-170.52 2344.45,-73.03 2372.77,-33.53"/>
<polygon fill="midnightblue" stroke="midnightblue" points="2375.74,-35.4 2378.64,-25.21 2370.01,-31.36 2375.74,-35.4"/>
</g>
<!-- Node23 -->
<g id="node23" class="node">
<title>Node23</title>
<g id="a_node23"><a xlink:title=" ">
<polygon fill="none" stroke="#bfbfbf" points="1994.5,-6 1994.5,-25 2164.5,-25 2164.5,-6 1994.5,-6"/>
<text text-anchor="middle" x="2079.5" y="-13" font-family="Helvetica,sans-Serif" font-size="10.00">boost/uuid/uuid_generators.hpp</text>
</a>
</g>
</g>
<!-- Node2&#45;&gt;Node23 -->
<g id="edge48" class="edge">
<title>Node2&#45;&gt;Node23</title>
<path fill="none" stroke="midnightblue" d="M1907.72,-246.48C2002.65,-232.58 2171.52,-201.7 2207.5,-154 2244.79,-104.57 2156.38,-52.84 2108.2,-29.4"/>
<polygon fill="midnightblue" stroke="midnightblue" points="2109.68,-26.23 2099.15,-25.1 2106.68,-32.55 2109.68,-26.23"/>
</g>
<!-- Node24 -->
<g id="node24" class="node">
<title>Node24</title>
<g id="a_node24"><a xlink:title=" ">
<polygon fill="none" stroke="#bfbfbf" points="2183,-6 2183,-25 2310,-25 2310,-6 2183,-6"/>
<text text-anchor="middle" x="2246.5" y="-13" font-family="Helvetica,sans-Serif" font-size="10.00">boost/uuid/uuid_io.hpp</text>
</a>
</g>
</g>
<!-- Node2&#45;&gt;Node24 -->
<g id="edge49" class="edge">
<title>Node2&#45;&gt;Node24</title>
<path fill="none" stroke="midnightblue" d="M1923.02,-251.53C1983.39,-246.85 2067.19,-235.83 2136.5,-210 2180.29,-193.68 2199.87,-193.08 2225.5,-154 2249.59,-117.26 2250.05,-63.29 2248.29,-35.14"/>
<polygon fill="midnightblue" stroke="midnightblue" points="2251.78,-34.78 2247.5,-25.09 2244.8,-35.33 2251.78,-34.78"/>
</g>
<!-- Node5&#45;&gt;Node3 -->
<g id="edge5" class="edge">
<title>Node5&#45;&gt;Node3</title>
<path fill="none" stroke="midnightblue" d="M1871.88,-195.27C1806.29,-189.47 1683.28,-176.53 1580.5,-154 1576.58,-153.14 1572.51,-152.11 1568.48,-150.99"/>
<polygon fill="midnightblue" stroke="midnightblue" points="1569.24,-147.57 1558.66,-148.11 1567.27,-154.28 1569.24,-147.57"/>
</g>
<!-- Node5&#45;&gt;Node4 -->
<g id="edge6" class="edge">
<title>Node5&#45;&gt;Node4</title>
<path fill="none" stroke="midnightblue" d="M1913,-190.2C1895.28,-161.83 1839.44,-72.44 1815.54,-34.17"/>
<polygon fill="midnightblue" stroke="midnightblue" points="1818.21,-31.84 1809.94,-25.21 1812.27,-35.55 1818.21,-31.84"/>
</g>
<!-- Node5&#45;&gt;Node6 -->
<g id="edge7" class="edge">
<title>Node5&#45;&gt;Node6</title>
<path fill="none" stroke="midnightblue" d="M1948.73,-190.48C1985.79,-180.03 2048.69,-162.29 2089.66,-150.73"/>
<polygon fill="midnightblue" stroke="midnightblue" points="2090.65,-154.09 2099.32,-148.01 2088.75,-147.35 2090.65,-154.09"/>
</g>
<!-- Node5&#45;&gt;Node7 -->
<g id="edge8" class="edge">
<title>Node5&#45;&gt;Node7</title>
<path fill="none" stroke="midnightblue" d="M1892.85,-190.48C1866.46,-181.7 1824.6,-167.79 1791.28,-156.71"/>
<polygon fill="midnightblue" stroke="midnightblue" points="1792.28,-153.36 1781.69,-153.52 1790.07,-160 1792.28,-153.36"/>
</g>
<!-- Node5&#45;&gt;Node20 -->
<g id="edge37" class="edge">
<title>Node5&#45;&gt;Node20</title>
<path fill="none" stroke="midnightblue" d="M1871.61,-192.75C1820.67,-185.47 1737.1,-172.09 1666.5,-154 1624.7,-143.29 1616.75,-131.74 1574.5,-123 1500.8,-107.76 974.57,-72.32 899.5,-67 627.71,-47.73 558.08,-63.06 287.5,-31 278.23,-29.9 268.41,-28.42 258.93,-26.82"/>
<polygon fill="midnightblue" stroke="midnightblue" points="259.27,-23.33 248.82,-25.05 258.07,-30.22 259.27,-23.33"/>
</g>
<!-- Node5&#45;&gt;Node21 -->
<g id="edge38" class="edge">
<title>Node5&#45;&gt;Node21</title>
<path fill="none" stroke="midnightblue" d="M1918.26,-190.2C1917.49,-162.19 1915.09,-74.71 1914.02,-35.66"/>
<polygon fill="midnightblue" stroke="midnightblue" points="1917.51,-35.11 1913.74,-25.21 1910.51,-35.31 1917.51,-35.11"/>
</g>
<!-- Node5&#45;&gt;Node22 -->
<g id="edge39" class="edge">
<title>Node5&#45;&gt;Node22</title>
<path fill="none" stroke="midnightblue" d="M1939.98,-190.5C1959.73,-182.3 1989.49,-168.95 2013.5,-154 2032.3,-142.29 2032.97,-133.44 2052.5,-123 2103.97,-95.48 2266.29,-48.99 2343.25,-27.72"/>
<polygon fill="midnightblue" stroke="midnightblue" points="2344.37,-31.05 2353.08,-25.02 2342.51,-24.3 2344.37,-31.05"/>
</g>
<!-- Node5&#45;&gt;Node23 -->
<g id="edge40" class="edge">
<title>Node5&#45;&gt;Node23</title>
<path fill="none" stroke="midnightblue" d="M1925.21,-190.42C1936.39,-176.18 1959.7,-146.88 1980.5,-123 2009.19,-90.06 2044.32,-53 2064.08,-32.43"/>
<polygon fill="midnightblue" stroke="midnightblue" points="2066.67,-34.79 2071.09,-25.16 2061.63,-29.93 2066.67,-34.79"/>
</g>
<!-- Node5&#45;&gt;Node24 -->
<g id="edge41" class="edge">
<title>Node5&#45;&gt;Node24</title>
<path fill="none" stroke="midnightblue" d="M1931,-190.24C1943.63,-181.31 1963.64,-166.98 1980.5,-154 1997.77,-140.7 2000.04,-134.59 2018.5,-123 2084.34,-81.66 2168.81,-46.34 2214.2,-28.64"/>
<polygon fill="midnightblue" stroke="midnightblue" points="2215.47,-31.9 2223.54,-25.03 2212.95,-25.37 2215.47,-31.9"/>
</g>
<!-- Node7&#45;&gt;Node4 -->
<g id="edge36" class="edge">
<title>Node7&#45;&gt;Node4</title>
<path fill="none" stroke="midnightblue" d="M1739.61,-123.43C1740.28,-108.58 1742.93,-84.89 1752.5,-67 1759.97,-53.03 1772.67,-40.58 1783.65,-31.55"/>
<polygon fill="midnightblue" stroke="midnightblue" points="1785.88,-34.25 1791.6,-25.33 1781.56,-28.73 1785.88,-34.25"/>
</g>
<!-- Node8 -->
<g id="node8" class="node">
<title>Node8</title>
<g id="a_node8"><a xlink:title=" ">
<polygon fill="none" stroke="#bfbfbf" points="296.5,-6 296.5,-25 406.5,-25 406.5,-6 296.5,-6"/>
<text text-anchor="middle" x="351.5" y="-13" font-family="Helvetica,sans-Serif" font-size="10.00">highfive/H5File.hpp</text>
</a>
</g>
</g>
<!-- Node7&#45;&gt;Node8 -->
<g id="edge9" class="edge">
<title>Node7&#45;&gt;Node8</title>
<path fill="none" stroke="midnightblue" d="M1675.2,-130.35C1653.97,-128 1630.22,-125.38 1608.5,-123 1460.96,-106.84 1418.46,-130.33 1276.5,-87 1258.25,-81.43 1256.92,-71.98 1238.5,-67 1061.78,-19.21 596.94,-55.32 415.5,-31 408.52,-30.06 401.18,-28.74 394.06,-27.26"/>
<polygon fill="midnightblue" stroke="midnightblue" points="394.37,-23.74 383.85,-25.01 392.87,-30.58 394.37,-23.74"/>
</g>
<!-- Node9 -->
<g id="node9" class="node">
<title>Node9</title>
<g id="a_node9"><a xlink:href="hdf5__core__general_8h.html" target="_top" xlink:title=" ">
<polygon fill="none" stroke="black" points="1328.5,-67.5 1328.5,-86.5 1444.5,-86.5 1444.5,-67.5 1328.5,-67.5"/>
<text text-anchor="middle" x="1386.5" y="-74.5" font-family="Helvetica,sans-Serif" font-size="10.00">hdf5_core_general.h</text>
</a>
</g>
</g>
<!-- Node7&#45;&gt;Node9 -->
<g id="edge10" class="edge">
<title>Node7&#45;&gt;Node9</title>
<path fill="none" stroke="midnightblue" d="M1675.16,-126.66C1610.14,-115.69 1510.42,-98.89 1446.85,-88.17"/>
<polygon fill="midnightblue" stroke="midnightblue" points="1447.42,-84.72 1436.97,-86.51 1446.25,-91.62 1447.42,-84.72"/>
</g>
<!-- Node15 -->
<g id="node15" class="node">
<title>Node15</title>
<g id="a_node15"><a xlink:title=" ">
<polygon fill="none" stroke="#bfbfbf" points="425,-6 425,-25 538,-25 538,-6 425,-6"/>
<text text-anchor="middle" x="481.5" y="-13" font-family="Helvetica,sans-Serif" font-size="10.00">boost/geometry.hpp</text>
</a>
</g>
</g>
<!-- Node7&#45;&gt;Node15 -->
<g id="edge35" class="edge">
<title>Node7&#45;&gt;Node15</title>
<path fill="none" stroke="midnightblue" d="M1675.28,-130.32C1561.86,-117.55 1336.36,-91.8 1319.5,-87 1299.23,-81.23 1296.96,-72.06 1276.5,-67 961.58,10.85 869.04,-73.95 547.5,-31 540.23,-30.03 532.56,-28.67 525.14,-27.16"/>
<polygon fill="midnightblue" stroke="midnightblue" points="525.73,-23.71 515.22,-25.04 524.27,-30.55 525.73,-23.71"/>
</g>
<!-- Node7&#45;&gt;Node20 -->
<g id="edge30" class="edge">
<title>Node7&#45;&gt;Node20</title>
<path fill="none" stroke="midnightblue" d="M1675.22,-130.21C1653.98,-127.85 1630.24,-125.26 1608.5,-123 1444.17,-105.91 1396.79,-134.36 1238.5,-87 1220.22,-81.53 1218.93,-71.94 1200.5,-67 1004.38,-14.42 489.36,-52.94 287.5,-31 277.91,-29.96 267.74,-28.46 257.97,-26.81"/>
<polygon fill="midnightblue" stroke="midnightblue" points="258.42,-23.34 247.96,-25.06 257.21,-30.23 258.42,-23.34"/>
</g>
<!-- Node7&#45;&gt;Node21 -->
<g id="edge31" class="edge">
<title>Node7&#45;&gt;Node21</title>
<path fill="none" stroke="midnightblue" d="M1756.05,-123.29C1773.54,-108.53 1802.2,-85.11 1828.5,-67 1848.18,-53.45 1871.6,-39.7 1888.86,-29.98"/>
<polygon fill="midnightblue" stroke="midnightblue" points="1890.73,-32.94 1897.76,-25.02 1887.32,-26.83 1890.73,-32.94"/>
</g>
<!-- Node7&#45;&gt;Node22 -->
<g id="edge32" class="edge">
<title>Node7&#45;&gt;Node22</title>
<path fill="none" stroke="midnightblue" d="M1803.59,-126.55C1910.68,-108.07 2132.64,-68.98 2319.5,-31 2325.31,-29.82 2331.39,-28.53 2337.42,-27.22"/>
<polygon fill="midnightblue" stroke="midnightblue" points="2338.41,-30.59 2347.43,-25.02 2336.91,-23.75 2338.41,-30.59"/>
</g>
<!-- Node7&#45;&gt;Node23 -->
<g id="edge33" class="edge">
<title>Node7&#45;&gt;Node23</title>
<path fill="none" stroke="midnightblue" d="M1779.17,-123.38C1846.68,-99.36 1982.71,-50.94 2045.87,-28.47"/>
<polygon fill="midnightblue" stroke="midnightblue" points="2047.11,-31.74 2055.36,-25.09 2044.76,-25.15 2047.11,-31.74"/>
</g>
<!-- Node7&#45;&gt;Node24 -->
<g id="edge34" class="edge">
<title>Node7&#45;&gt;Node24</title>
<path fill="none" stroke="midnightblue" d="M1798.65,-123.38C1901,-98.96 2108.97,-49.32 2200.97,-27.37"/>
<polygon fill="midnightblue" stroke="midnightblue" points="2201.9,-30.74 2210.82,-25.02 2200.28,-23.93 2201.9,-30.74"/>
</g>
<!-- Node26 -->
<g id="node26" class="node">
<title>Node26</title>
<g id="a_node26"><a xlink:title=" ">
<polygon fill="none" stroke="#bfbfbf" points="1500.5,-67.5 1500.5,-86.5 1700.5,-86.5 1700.5,-67.5 1500.5,-67.5"/>
<text text-anchor="middle" x="1600.5" y="-74.5" font-family="Helvetica,sans-Serif" font-size="10.00">geometry_msgs/TransformStamped.h</text>
</a>
</g>
</g>
<!-- Node7&#45;&gt;Node26 -->
<g id="edge29" class="edge">
<title>Node7&#45;&gt;Node26</title>
<path fill="none" stroke="midnightblue" d="M1706.56,-123.4C1683.34,-113.46 1652.51,-100.26 1630.08,-90.66"/>
<polygon fill="midnightblue" stroke="midnightblue" points="1631.3,-87.38 1620.73,-86.66 1628.54,-93.81 1631.3,-87.38"/>
</g>
<!-- Node9&#45;&gt;Node4 -->
<g id="edge19" class="edge">
<title>Node9&#45;&gt;Node4</title>
<path fill="none" stroke="midnightblue" d="M1444.65,-68.69C1449.34,-68.11 1454,-67.54 1458.5,-67 1595.77,-50.43 1633.36,-64.5 1767.5,-31 1770.17,-30.33 1772.9,-29.52 1775.62,-28.63"/>
<polygon fill="midnightblue" stroke="midnightblue" points="1777.02,-31.84 1785.22,-25.14 1774.63,-25.27 1777.02,-31.84"/>
</g>
<!-- Node9&#45;&gt;Node8 -->
<g id="edge11" class="edge">
<title>Node9&#45;&gt;Node8</title>
<path fill="none" stroke="midnightblue" d="M1328.3,-70.8C1311.59,-69.43 1293.33,-68.04 1276.5,-67 894.23,-43.38 795.15,-81.52 415.5,-31 408.52,-30.07 401.18,-28.75 394.06,-27.27"/>
<polygon fill="midnightblue" stroke="midnightblue" points="394.37,-23.75 383.85,-25.03 392.87,-30.59 394.37,-23.75"/>
</g>
<!-- Node10 -->
<g id="node10" class="node">
<title>Node10</title>
<g id="a_node10"><a xlink:title=" ">
<polygon fill="none" stroke="#bfbfbf" points="727,-6 727,-25 844,-25 844,-6 727,-6"/>
<text text-anchor="middle" x="785.5" y="-13" font-family="Helvetica,sans-Serif" font-size="10.00">seerep_msgs/aabb.h</text>
</a>
</g>
</g>
<!-- Node9&#45;&gt;Node10 -->
<g id="edge12" class="edge">
<title>Node9&#45;&gt;Node10</title>
<path fill="none" stroke="midnightblue" d="M1328.37,-68.5C1323.68,-67.96 1319.01,-67.46 1314.5,-67 1109.6,-46.22 1056.28,-60.85 852.5,-31 845.29,-29.94 837.71,-28.57 830.33,-27.08"/>
<polygon fill="midnightblue" stroke="midnightblue" points="830.96,-23.63 820.46,-25 829.52,-30.48 830.96,-23.63"/>
</g>
<!-- Node11 -->
<g id="node11" class="node">
<title>Node11</title>
<g id="a_node11"><a xlink:title=" ">
<polygon fill="none" stroke="#bfbfbf" points="862,-0.5 862,-30.5 983,-30.5 983,-0.5 862,-0.5"/>
<text text-anchor="start" x="870" y="-18.5" font-family="Helvetica,sans-Serif" font-size="10.00">seerep_msgs/dataset</text>
<text text-anchor="middle" x="922.5" y="-7.5" font-family="Helvetica,sans-Serif" font-size="10.00">_indexable.h</text>
</a>
</g>
</g>
<!-- Node9&#45;&gt;Node11 -->
<g id="edge13" class="edge">
<title>Node9&#45;&gt;Node11</title>
<path fill="none" stroke="midnightblue" d="M1328.35,-68.67C1323.66,-68.09 1319,-67.53 1314.5,-67 1174.71,-50.45 1136.42,-53.48 993.19,-31.01"/>
<polygon fill="midnightblue" stroke="midnightblue" points="993.57,-27.53 983.14,-29.42 992.47,-34.44 993.57,-27.53"/>
</g>
<!-- Node12 -->
<g id="node12" class="node">
<title>Node12</title>
<g id="a_node12"><a xlink:title=" ">
<polygon fill="none" stroke="#bfbfbf" points="1001.5,-0.5 1001.5,-30.5 1127.5,-30.5 1127.5,-0.5 1001.5,-0.5"/>
<text text-anchor="start" x="1009.5" y="-18.5" font-family="Helvetica,sans-Serif" font-size="10.00">seerep_msgs/geodetic</text>
<text text-anchor="middle" x="1064.5" y="-7.5" font-family="Helvetica,sans-Serif" font-size="10.00">_coordinates.h</text>
</a>
</g>
</g>
<!-- Node9&#45;&gt;Node12 -->
<g id="edge14" class="edge">
<title>Node9&#45;&gt;Node12</title>
<path fill="none" stroke="midnightblue" d="M1337.11,-67.42C1288.81,-58.96 1212.9,-45.48 1137.81,-31.23"/>
<polygon fill="midnightblue" stroke="midnightblue" points="1138.18,-27.74 1127.7,-29.3 1136.87,-34.61 1138.18,-27.74"/>
</g>
<!-- Node9&#45;&gt;Node13 -->
<g id="edge15" class="edge">
<title>Node9&#45;&gt;Node13</title>
<path fill="none" stroke="midnightblue" d="M1328.17,-75.29C1112.84,-72.47 362.84,-60.68 125.5,-31 117.95,-30.06 109.98,-28.68 102.29,-27.14"/>
<polygon fill="midnightblue" stroke="midnightblue" points="102.89,-23.69 92.38,-25.06 101.45,-30.54 102.89,-23.69"/>
</g>
<!-- Node14 -->
<g id="node14" class="node">
<title>Node14</title>
<g id="a_node14"><a xlink:title=" ">
<polygon fill="none" stroke="#bfbfbf" points="1145.5,-6 1145.5,-25 1309.5,-25 1309.5,-6 1145.5,-6"/>
<text text-anchor="middle" x="1227.5" y="-13" font-family="Helvetica,sans-Serif" font-size="10.00">seerep_msgs/label_category.h</text>
</a>
</g>
</g>
<!-- Node9&#45;&gt;Node14 -->
<g id="edge16" class="edge">
<title>Node9&#45;&gt;Node14</title>
<path fill="none" stroke="midnightblue" d="M1363.72,-67.48C1336.45,-57.27 1290.59,-40.11 1259.7,-28.55"/>
<polygon fill="midnightblue" stroke="midnightblue" points="1260.83,-25.24 1250.24,-25.01 1258.38,-31.79 1260.83,-25.24"/>
</g>
<!-- Node9&#45;&gt;Node15 -->
<g id="edge17" class="edge">
<title>Node9&#45;&gt;Node15</title>
<path fill="none" stroke="midnightblue" d="M1328.38,-68.34C1323.69,-67.84 1319.02,-67.39 1314.5,-67 974.49,-37.81 885.81,-75.77 547.5,-31 540.22,-30.04 532.56,-28.68 525.14,-27.18"/>
<polygon fill="midnightblue" stroke="midnightblue" points="525.73,-23.72 515.22,-25.06 524.27,-30.57 525.73,-23.72"/>
</g>
<!-- Node16 -->
<g id="node16" class="node">
<title>Node16</title>
<g id="a_node16"><a xlink:title=" ">
<polygon fill="none" stroke="#bfbfbf" points="1327.5,-6 1327.5,-25 1375.5,-25 1375.5,-6 1327.5,-6"/>
<text text-anchor="middle" x="1351.5" y="-13" font-family="Helvetica,sans-Serif" font-size="10.00">mutex</text>
</a>
</g>
</g>
<!-- Node9&#45;&gt;Node16 -->
<g id="edge18" class="edge">
<title>Node9&#45;&gt;Node16</title>
<path fill="none" stroke="midnightblue" d="M1381.49,-67.48C1376.34,-58.73 1368.19,-44.87 1361.68,-33.81"/>
<polygon fill="midnightblue" stroke="midnightblue" points="1364.59,-31.85 1356.51,-25.01 1358.56,-35.4 1364.59,-31.85"/>
</g>
<!-- Node17 -->
<g id="node17" class="node">
<title>Node17</title>
<g id="a_node17"><a xlink:title=" ">
<polygon fill="none" stroke="#bfbfbf" points="1394,-6 1394,-25 1463,-25 1463,-6 1394,-6"/>
<text text-anchor="middle" x="1428.5" y="-13" font-family="Helvetica,sans-Serif" font-size="10.00">type_traits</text>
</a>
</g>
</g>
<!-- Node9&#45;&gt;Node17 -->
<g id="edge20" class="edge">
<title>Node9&#45;&gt;Node17</title>
<path fill="none" stroke="midnightblue" d="M1392.52,-67.48C1398.76,-58.64 1408.67,-44.59 1416.52,-33.48"/>
<polygon fill="midnightblue" stroke="midnightblue" points="1419.59,-35.2 1422.49,-25.01 1413.87,-31.16 1419.59,-35.2"/>
</g>
<!-- Node18 -->
<g id="node18" class="node">
<title>Node18</title>
<g id="a_node18"><a xlink:title=" ">
<polygon fill="none" stroke="#bfbfbf" points="1481,-0.5 1481,-30.5 1626,-30.5 1626,-0.5 1481,-0.5"/>
<text text-anchor="start" x="1489" y="-18.5" font-family="Helvetica,sans-Serif" font-size="10.00">boost/log/sources/severity</text>
<text text-anchor="middle" x="1553.5" y="-7.5" font-family="Helvetica,sans-Serif" font-size="10.00">_logger.hpp</text>
</a>
</g>
</g>
<!-- Node9&#45;&gt;Node18 -->
<g id="edge21" class="edge">
<title>Node9&#45;&gt;Node18</title>
<path fill="none" stroke="midnightblue" d="M1410.43,-67.48C1434.84,-58.78 1473.43,-45.03 1504.39,-34"/>
<polygon fill="midnightblue" stroke="midnightblue" points="1505.9,-37.18 1514.14,-30.52 1503.55,-30.58 1505.9,-37.18"/>
</g>
<!-- Node19 -->
<g id="node19" class="node">
<title>Node19</title>
<g id="a_node19"><a xlink:title=" ">
<polygon fill="none" stroke="#bfbfbf" points="1644.5,-6 1644.5,-25 1758.5,-25 1758.5,-6 1644.5,-6"/>
<text text-anchor="middle" x="1701.5" y="-13" font-family="Helvetica,sans-Serif" font-size="10.00">boost/log/trivial.hpp</text>
</a>
</g>
</g>
<!-- Node9&#45;&gt;Node19 -->
<g id="edge22" class="edge">
<title>Node9&#45;&gt;Node19</title>
<path fill="none" stroke="midnightblue" d="M1436.47,-67.44C1486.62,-58.73 1566.05,-44.61 1634.5,-31 1640.63,-29.78 1647.06,-28.45 1653.41,-27.11"/>
<polygon fill="midnightblue" stroke="midnightblue" points="1654.23,-30.51 1663.28,-25 1652.77,-23.67 1654.23,-30.51"/>
</g>
<!-- Node9&#45;&gt;Node20 -->
<g id="edge23" class="edge">
<title>Node9&#45;&gt;Node20</title>
<path fill="none" stroke="midnightblue" d="M1328.17,-72.14C1300.94,-70.42 1268.07,-68.46 1238.5,-67 816.04,-46.16 708.03,-76.38 287.5,-31 277.91,-29.96 267.74,-28.47 257.96,-26.82"/>
<polygon fill="midnightblue" stroke="midnightblue" points="258.42,-23.35 247.96,-25.07 257.21,-30.24 258.42,-23.35"/>
</g>
<!-- Node9&#45;&gt;Node21 -->
<g id="edge24" class="edge">
<title>Node9&#45;&gt;Node21</title>
<path fill="none" stroke="midnightblue" d="M1444.69,-70.98C1549.58,-61.8 1766.43,-42.24 1841.5,-31 1849.04,-29.87 1856.99,-28.48 1864.74,-27.01"/>
<polygon fill="midnightblue" stroke="midnightblue" points="1865.62,-30.4 1874.76,-25.04 1864.28,-23.53 1865.62,-30.4"/>
</g>
<!-- Node9&#45;&gt;Node22 -->
<g id="edge25" class="edge">
<title>Node9&#45;&gt;Node22</title>
<path fill="none" stroke="midnightblue" d="M1444.51,-70.59C1459.78,-69.28 1476.25,-67.98 1491.5,-67 1859.08,-43.27 1954.33,-79.29 2319.5,-31 2326.75,-30.04 2334.39,-28.67 2341.77,-27.15"/>
<polygon fill="midnightblue" stroke="midnightblue" points="2342.6,-30.55 2351.63,-25.01 2341.12,-23.71 2342.6,-30.55"/>
</g>
<!-- Node9&#45;&gt;Node23 -->
<g id="edge26" class="edge">
<title>Node9&#45;&gt;Node23</title>
<path fill="none" stroke="midnightblue" d="M1444.53,-70.89C1459.81,-69.58 1476.27,-68.21 1491.5,-67 1710.95,-49.6 1766.76,-55.8 1985.5,-31 1996.3,-29.78 2007.77,-28.22 2018.84,-26.59"/>
<polygon fill="midnightblue" stroke="midnightblue" points="2019.5,-30.03 2028.86,-25.07 2018.45,-23.11 2019.5,-30.03"/>
</g>
<!-- Node9&#45;&gt;Node24 -->
<g id="edge27" class="edge">
<title>Node9&#45;&gt;Node24</title>
<path fill="none" stroke="midnightblue" d="M1444.52,-70.69C1459.79,-69.38 1476.26,-68.06 1491.5,-67 1794.31,-46.04 1872.31,-68.66 2173.5,-31 2181.7,-29.97 2190.37,-28.56 2198.75,-27"/>
<polygon fill="midnightblue" stroke="midnightblue" points="2199.63,-30.4 2208.78,-25.06 2198.3,-23.53 2199.63,-30.4"/>
</g>
<!-- Node25 -->
<g id="node25" class="node">
<title>Node25</title>
<g id="a_node25"><a xlink:title=" ">
<polygon fill="none" stroke="#bfbfbf" points="556.5,-6 556.5,-25 708.5,-25 708.5,-6 556.5,-6"/>
<text text-anchor="middle" x="632.5" y="-13" font-family="Helvetica,sans-Serif" font-size="10.00">impl/hdf5_core_general.hpp</text>
</a>
</g>
</g>
<!-- Node9&#45;&gt;Node25 -->
<g id="edge28" class="edge">
<title>Node9&#45;&gt;Node25</title>
<path fill="none" stroke="midnightblue" d="M1328.38,-68.41C1323.69,-67.9 1319.02,-67.42 1314.5,-67 1049.82,-42.5 981.57,-61.39 717.5,-31 707.57,-29.86 697.04,-28.32 686.9,-26.68"/>
<polygon fill="midnightblue" stroke="midnightblue" points="687.37,-23.21 676.92,-25.02 686.21,-30.12 687.37,-23.21"/>
</g>
</g>
</svg>
