<?xml version="1.0" encoding="UTF-8" standalone="no"?>
<!DOCTYPE svg PUBLIC "-//W3C//DTD SVG 1.1//EN"
 "http://www.w3.org/Graphics/SVG/1.1/DTD/svg11.dtd">
<!-- Generated by graphviz version 2.43.0 (0)
 -->
<!-- Title: seerep&#45;srv/seerep&#45;core/include/seerep&#45;core/core&#45;instance.h Pages: 1 -->
<svg width="1493pt" height="251pt"
 viewBox="0.00 0.00 1492.50 251.00" xmlns="http://www.w3.org/2000/svg" xmlns:xlink="http://www.w3.org/1999/xlink">
<g id="graph0" class="graph" transform="scale(1 1) rotate(0) translate(4 247)">
<title>seerep&#45;srv/seerep&#45;core/include/seerep&#45;core/core&#45;instance.h</title>
<!-- Node1 -->
<g id="node1" class="node">
<title>Node1</title>
<g id="a_node1"><a xlink:title=" ">
<polygon fill="#bfbfbf" stroke="black" points="900,-201.5 900,-242.5 1040,-242.5 1040,-201.5 900,-201.5"/>
<text text-anchor="start" x="908" y="-230.5" font-family="Helvetica,sans-Serif" font-size="10.00">seerep&#45;srv/seerep&#45;core</text>
<text text-anchor="start" x="908" y="-219.5" font-family="Helvetica,sans-Serif" font-size="10.00">/include/seerep&#45;core/core</text>
<text text-anchor="middle" x="970" y="-208.5" font-family="Helvetica,sans-Serif" font-size="10.00">&#45;instance.h</text>
</a>
</g>
</g>
<!-- Node2 -->
<g id="node2" class="node">
<title>Node2</title>
<g id="a_node2"><a xlink:title=" ">
<polygon fill="none" stroke="#bfbfbf" points="135.5,-140 135.5,-159 200.5,-159 200.5,-140 135.5,-140"/>
<text text-anchor="middle" x="168" y="-147" font-family="Helvetica,sans-Serif" font-size="10.00">functional</text>
</a>
</g>
</g>
<!-- Node1&#45;&gt;Node2 -->
<g id="edge1" class="edge">
<title>Node1&#45;&gt;Node2</title>
<path fill="none" stroke="midnightblue" d="M899.84,-221.04C765.63,-219.97 463.78,-211.98 215,-165 210.75,-164.2 206.35,-163.15 202.01,-161.97"/>
<polygon fill="midnightblue" stroke="midnightblue" points="202.71,-158.53 192.13,-159.08 200.75,-165.25 202.71,-158.53"/>
</g>
<!-- Node3 -->
<g id="node3" class="node">
<title>Node3</title>
<g id="a_node3"><a xlink:title=" ">
<polygon fill="none" stroke="#bfbfbf" points="0,-6 0,-25 56,-25 56,-6 0,-6"/>
<text text-anchor="middle" x="28" y="-13" font-family="Helvetica,sans-Serif" font-size="10.00">optional</text>
</a>
</g>
</g>
<!-- Node1&#45;&gt;Node3 -->
<g id="edge2" class="edge">
<title>Node1&#45;&gt;Node3</title>
<path fill="none" stroke="midnightblue" d="M899.87,-213.68C769.06,-199.04 479.66,-161.92 243,-98 174.11,-79.39 96.6,-47.03 56.09,-29.2"/>
<polygon fill="midnightblue" stroke="midnightblue" points="57.41,-25.96 46.85,-25.1 54.57,-32.35 57.41,-25.96"/>
</g>
<!-- Node4 -->
<g id="node4" class="node">
<title>Node4</title>
<g id="a_node4"><a xlink:title=" ">
<polygon fill="none" stroke="#bfbfbf" points="1093.5,-140 1093.5,-159 1228.5,-159 1228.5,-140 1093.5,-140"/>
<text text-anchor="middle" x="1161" y="-147" font-family="Helvetica,sans-Serif" font-size="10.00">seerep&#45;msgs/datatype.h</text>
</a>
</g>
</g>
<!-- Node1&#45;&gt;Node4 -->
<g id="edge3" class="edge">
<title>Node1&#45;&gt;Node4</title>
<path fill="none" stroke="midnightblue" d="M1022.95,-201.46C1056.73,-188.99 1099.43,-173.23 1128.33,-162.56"/>
<polygon fill="midnightblue" stroke="midnightblue" points="1129.77,-165.76 1137.94,-159.01 1127.34,-159.19 1129.77,-165.76"/>
</g>
<!-- Node5 -->
<g id="node5" class="node">
<title>Node5</title>
<g id="a_node5"><a xlink:title=" ">
<polygon fill="none" stroke="#bfbfbf" points="1246.5,-134.5 1246.5,-164.5 1377.5,-164.5 1377.5,-134.5 1246.5,-134.5"/>
<text text-anchor="start" x="1254.5" y="-152.5" font-family="Helvetica,sans-Serif" font-size="10.00">seerep&#45;msgs/label&#45;with</text>
<text text-anchor="middle" x="1312" y="-141.5" font-family="Helvetica,sans-Serif" font-size="10.00">&#45;instance.h</text>
</a>
</g>
</g>
<!-- Node1&#45;&gt;Node5 -->
<g id="edge4" class="edge">
<title>Node1&#45;&gt;Node5</title>
<path fill="none" stroke="midnightblue" d="M1040.03,-206.56C1097.21,-194.78 1177.85,-178.15 1236.46,-166.07"/>
<polygon fill="midnightblue" stroke="midnightblue" points="1237.32,-169.47 1246.41,-164.02 1235.91,-162.61 1237.32,-169.47"/>
</g>
<!-- Node6 -->
<g id="node6" class="node">
<title>Node6</title>
<g id="a_node6"><a xlink:href="hdf5-core-instance_8h.html" target="_top" xlink:title=" ">
<polygon fill="none" stroke="black" points="742.5,-134.5 742.5,-164.5 867.5,-164.5 867.5,-134.5 742.5,-134.5"/>
<text text-anchor="start" x="750.5" y="-152.5" font-family="Helvetica,sans-Serif" font-size="10.00">seerep&#45;hdf5&#45;core/hdf5</text>
<text text-anchor="middle" x="805" y="-141.5" font-family="Helvetica,sans-Serif" font-size="10.00">&#45;core&#45;instance.h</text>
</a>
</g>
</g>
<!-- Node1&#45;&gt;Node6 -->
<g id="edge5" class="edge">
<title>Node1&#45;&gt;Node6</title>
<path fill="none" stroke="midnightblue" d="M924.04,-201.36C899.99,-191.08 870.74,-178.59 847.26,-168.55"/>
<polygon fill="midnightblue" stroke="midnightblue" points="848.48,-165.27 837.91,-164.56 845.73,-171.71 848.48,-165.27"/>
</g>
<!-- Node17 -->
<g id="node17" class="node">
<title>Node17</title>
<g id="a_node17"><a xlink:title=" ">
<polygon fill="none" stroke="#bfbfbf" points="733.5,-73 733.5,-92 876.5,-92 876.5,-73 733.5,-73"/>
<text text-anchor="middle" x="805" y="-80" font-family="Helvetica,sans-Serif" font-size="10.00">boost/functional/hash.hpp</text>
</a>
</g>
</g>
<!-- Node1&#45;&gt;Node17 -->
<g id="edge25" class="edge">
<title>Node1&#45;&gt;Node17</title>
<path fill="none" stroke="midnightblue" d="M950.14,-201.21C931.56,-183.05 902.75,-155.74 876,-134 860.11,-121.09 841.18,-107.71 826.86,-97.97"/>
<polygon fill="midnightblue" stroke="midnightblue" points="828.44,-94.82 818.19,-92.14 824.53,-100.63 828.44,-94.82"/>
</g>
<!-- Node18 -->
<g id="node18" class="node">
<title>Node18</title>
<g id="a_node18"><a xlink:title=" ">
<polygon fill="none" stroke="#bfbfbf" points="894.5,-73 894.5,-92 1019.5,-92 1019.5,-73 894.5,-73"/>
<text text-anchor="middle" x="957" y="-80" font-family="Helvetica,sans-Serif" font-size="10.00">boost/lexical_cast.hpp</text>
</a>
</g>
</g>
<!-- Node1&#45;&gt;Node18 -->
<g id="edge26" class="edge">
<title>Node1&#45;&gt;Node18</title>
<path fill="none" stroke="midnightblue" d="M968.14,-201.3C965.63,-174.78 961.2,-127.94 958.75,-102.03"/>
<polygon fill="midnightblue" stroke="midnightblue" points="962.23,-101.66 957.81,-92.04 955.26,-102.32 962.23,-101.66"/>
</g>
<!-- Node19 -->
<g id="node19" class="node">
<title>Node19</title>
<g id="a_node19"><a xlink:title=" ">
<polygon fill="none" stroke="#bfbfbf" points="1037.5,-73 1037.5,-92 1150.5,-92 1150.5,-73 1037.5,-73"/>
<text text-anchor="middle" x="1094" y="-80" font-family="Helvetica,sans-Serif" font-size="10.00">boost/uuid/uuid.hpp</text>
</a>
</g>
</g>
<!-- Node1&#45;&gt;Node19 -->
<g id="edge27" class="edge">
<title>Node1&#45;&gt;Node19</title>
<path fill="none" stroke="midnightblue" d="M976.22,-201.19C982.94,-182.24 995.13,-153.73 1013,-134 1027.32,-118.19 1047.73,-105.51 1064.47,-96.81"/>
<polygon fill="midnightblue" stroke="midnightblue" points="1066.44,-99.74 1073.83,-92.16 1063.32,-93.47 1066.44,-99.74"/>
</g>
<!-- Node20 -->
<g id="node20" class="node">
<title>Node20</title>
<g id="a_node20"><a xlink:title=" ">
<polygon fill="none" stroke="#bfbfbf" points="1169,-73 1169,-92 1339,-92 1339,-73 1169,-73"/>
<text text-anchor="middle" x="1254" y="-80" font-family="Helvetica,sans-Serif" font-size="10.00">boost/uuid/uuid_generators.hpp</text>
</a>
</g>
</g>
<!-- Node1&#45;&gt;Node20 -->
<g id="edge28" class="edge">
<title>Node1&#45;&gt;Node20</title>
<path fill="none" stroke="midnightblue" d="M983.09,-201.29C997.41,-181.3 1022.2,-150.97 1051,-134 1075.42,-119.61 1145.53,-103.99 1196.54,-94"/>
<polygon fill="midnightblue" stroke="midnightblue" points="1197.31,-97.41 1206.46,-92.07 1195.98,-90.54 1197.31,-97.41"/>
</g>
<!-- Node21 -->
<g id="node21" class="node">
<title>Node21</title>
<g id="a_node21"><a xlink:title=" ">
<polygon fill="none" stroke="#bfbfbf" points="1357.5,-73 1357.5,-92 1484.5,-92 1484.5,-73 1357.5,-73"/>
<text text-anchor="middle" x="1421" y="-80" font-family="Helvetica,sans-Serif" font-size="10.00">boost/uuid/uuid_io.hpp</text>
</a>
</g>
</g>
<!-- Node1&#45;&gt;Node21 -->
<g id="edge29" class="edge">
<title>Node1&#45;&gt;Node21</title>
<path fill="none" stroke="midnightblue" d="M997.26,-201.28C1011.82,-190.66 1029.99,-177.25 1046,-165 1063.58,-151.54 1064.64,-142.7 1085,-134 1193.49,-87.64 1231.64,-117.5 1348,-98 1355.18,-96.8 1362.74,-95.42 1370.17,-94"/>
<polygon fill="midnightblue" stroke="midnightblue" points="1371.01,-97.41 1380.15,-92.06 1369.67,-90.53 1371.01,-97.41"/>
</g>
<!-- Node6&#45;&gt;Node3 -->
<g id="edge24" class="edge">
<title>Node6&#45;&gt;Node3</title>
<path fill="none" stroke="midnightblue" d="M742.11,-146.98C621.64,-143.33 362.99,-131.72 281,-98 260.84,-89.71 262.7,-76.32 243,-67 170.04,-32.48 142.42,-53.81 65,-31 62.57,-30.28 60.07,-29.47 57.58,-28.61"/>
<polygon fill="midnightblue" stroke="midnightblue" points="58.73,-25.31 48.13,-25.12 56.3,-31.87 58.73,-25.31"/>
</g>
<!-- Node7 -->
<g id="node7" class="node">
<title>Node7</title>
<g id="a_node7"><a xlink:title=" ">
<polygon fill="none" stroke="#bfbfbf" points="74,-6 74,-25 184,-25 184,-6 74,-6"/>
<text text-anchor="middle" x="129" y="-13" font-family="Helvetica,sans-Serif" font-size="10.00">highfive/H5File.hpp</text>
</a>
</g>
</g>
<!-- Node6&#45;&gt;Node7 -->
<g id="edge6" class="edge">
<title>Node6&#45;&gt;Node7</title>
<path fill="none" stroke="midnightblue" d="M742.21,-145.92C629.79,-140.63 398.92,-126.59 324,-98 301.99,-89.6 301.98,-77.73 281,-67 246.82,-49.52 205.3,-36.21 174.3,-27.65"/>
<polygon fill="midnightblue" stroke="midnightblue" points="175.19,-24.27 164.62,-25.04 173.36,-31.02 175.19,-24.27"/>
</g>
<!-- Node8 -->
<g id="node8" class="node">
<title>Node8</title>
<g id="a_node8"><a xlink:href="hdf5-core-general_8h.html" target="_top" xlink:title=" ">
<polygon fill="none" stroke="black" points="333.5,-67.5 333.5,-97.5 458.5,-97.5 458.5,-67.5 333.5,-67.5"/>
<text text-anchor="start" x="341.5" y="-85.5" font-family="Helvetica,sans-Serif" font-size="10.00">seerep&#45;hdf5&#45;core/hdf5</text>
<text text-anchor="middle" x="396" y="-74.5" font-family="Helvetica,sans-Serif" font-size="10.00">&#45;core&#45;general.h</text>
</a>
</g>
</g>
<!-- Node6&#45;&gt;Node8 -->
<g id="edge7" class="edge">
<title>Node6&#45;&gt;Node8</title>
<path fill="none" stroke="midnightblue" d="M742.48,-139.66C675.66,-130.06 566.69,-113.94 473,-98 471.53,-97.75 470.05,-97.5 468.56,-97.24"/>
<polygon fill="midnightblue" stroke="midnightblue" points="469.04,-93.77 458.58,-95.48 467.82,-100.66 469.04,-93.77"/>
</g>
<!-- Node11 -->
<g id="node11" class="node">
<title>Node11</title>
<g id="a_node11"><a xlink:title=" ">
<polygon fill="none" stroke="#bfbfbf" points="1003.5,-6 1003.5,-25 1116.5,-25 1116.5,-6 1003.5,-6"/>
<text text-anchor="middle" x="1060" y="-13" font-family="Helvetica,sans-Serif" font-size="10.00">boost/geometry.hpp</text>
</a>
</g>
</g>
<!-- Node6&#45;&gt;Node11 -->
<g id="edge23" class="edge">
<title>Node6&#45;&gt;Node11</title>
<path fill="none" stroke="midnightblue" d="M742.4,-147.07C663.81,-143.8 535.65,-133.08 506,-98 497.11,-87.48 496.62,-77.09 506,-67 543,-27.17 940.2,-38.85 994,-31 1000.94,-29.99 1008.24,-28.66 1015.35,-27.21"/>
<polygon fill="midnightblue" stroke="midnightblue" points="1016.52,-30.54 1025.57,-25.04 1015.07,-23.69 1016.52,-30.54"/>
</g>
<!-- Node16 -->
<g id="node16" class="node">
<title>Node16</title>
<g id="a_node16"><a xlink:title=" ">
<polygon fill="none" stroke="#bfbfbf" points="515,-73 515,-92 715,-92 715,-73 515,-73"/>
<text text-anchor="middle" x="615" y="-80" font-family="Helvetica,sans-Serif" font-size="10.00">geometry_msgs/TransformStamped.h</text>
</a>
</g>
</g>
<!-- Node6&#45;&gt;Node16 -->
<g id="edge17" class="edge">
<title>Node6&#45;&gt;Node16</title>
<path fill="none" stroke="midnightblue" d="M763.77,-134.4C729.7,-122.74 681.86,-106.37 649.71,-95.38"/>
<polygon fill="midnightblue" stroke="midnightblue" points="650.46,-91.93 639.87,-92.01 648.2,-98.56 650.46,-91.93"/>
</g>
<!-- Node6&#45;&gt;Node17 -->
<g id="edge18" class="edge">
<title>Node6&#45;&gt;Node17</title>
<path fill="none" stroke="midnightblue" d="M805,-134.4C805,-125.06 805,-112.71 805,-102.52"/>
<polygon fill="midnightblue" stroke="midnightblue" points="808.5,-102.19 805,-92.19 801.5,-102.19 808.5,-102.19"/>
</g>
<!-- Node6&#45;&gt;Node18 -->
<g id="edge19" class="edge">
<title>Node6&#45;&gt;Node18</title>
<path fill="none" stroke="midnightblue" d="M837.98,-134.4C864.77,-122.94 902.19,-106.94 927.88,-95.95"/>
<polygon fill="midnightblue" stroke="midnightblue" points="929.29,-99.16 937.11,-92.01 926.54,-92.72 929.29,-99.16"/>
</g>
<!-- Node6&#45;&gt;Node19 -->
<g id="edge20" class="edge">
<title>Node6&#45;&gt;Node19</title>
<path fill="none" stroke="midnightblue" d="M867.35,-134.48C920.95,-122.42 997.14,-105.29 1046.07,-94.28"/>
<polygon fill="midnightblue" stroke="midnightblue" points="1047.09,-97.64 1056.08,-92.03 1045.56,-90.81 1047.09,-97.64"/>
</g>
<!-- Node6&#45;&gt;Node20 -->
<g id="edge21" class="edge">
<title>Node6&#45;&gt;Node20</title>
<path fill="none" stroke="midnightblue" d="M867.56,-139.83C938.5,-129.94 1057.62,-113.18 1160,-98 1169.46,-96.6 1179.44,-95.09 1189.23,-93.59"/>
<polygon fill="midnightblue" stroke="midnightblue" points="1189.99,-97.02 1199.34,-92.04 1188.93,-90.1 1189.99,-97.02"/>
</g>
<!-- Node6&#45;&gt;Node21 -->
<g id="edge22" class="edge">
<title>Node6&#45;&gt;Node21</title>
<path fill="none" stroke="midnightblue" d="M867.55,-144.79C968.84,-138.31 1174.9,-123.17 1348,-98 1355.73,-96.88 1363.88,-95.47 1371.83,-93.99"/>
<polygon fill="midnightblue" stroke="midnightblue" points="1372.57,-97.41 1381.73,-92.07 1371.25,-90.54 1372.57,-97.41"/>
</g>
<!-- Node8&#45;&gt;Node3 -->
<g id="edge13" class="edge">
<title>Node8&#45;&gt;Node3</title>
<path fill="none" stroke="midnightblue" d="M333.36,-73.63C251.93,-63.11 114.33,-44.25 65,-31 62.34,-30.29 59.62,-29.44 56.91,-28.53"/>
<polygon fill="midnightblue" stroke="midnightblue" points="57.91,-25.17 47.31,-25 55.49,-31.74 57.91,-25.17"/>
</g>
<!-- Node8&#45;&gt;Node7 -->
<g id="edge8" class="edge">
<title>Node8&#45;&gt;Node7</title>
<path fill="none" stroke="midnightblue" d="M338.39,-67.48C289.08,-55.47 219.08,-38.43 173.85,-27.42"/>
<polygon fill="midnightblue" stroke="midnightblue" points="174.58,-23.99 164.03,-25.03 172.92,-30.79 174.58,-23.99"/>
</g>
<!-- Node9 -->
<g id="node9" class="node">
<title>Node9</title>
<g id="a_node9"><a xlink:title=" ">
<polygon fill="none" stroke="#bfbfbf" points="202,-6 202,-25 318,-25 318,-6 202,-6"/>
<text text-anchor="middle" x="260" y="-13" font-family="Helvetica,sans-Serif" font-size="10.00">seerep&#45;msgs/aabb.h</text>
</a>
</g>
</g>
<!-- Node8&#45;&gt;Node9 -->
<g id="edge9" class="edge">
<title>Node8&#45;&gt;Node9</title>
<path fill="none" stroke="midnightblue" d="M366.49,-67.4C342.84,-56.09 309.92,-40.36 286.97,-29.39"/>
<polygon fill="midnightblue" stroke="midnightblue" points="288.33,-26.16 277.8,-25.01 285.31,-32.48 288.33,-26.16"/>
</g>
<!-- Node10 -->
<g id="node10" class="node">
<title>Node10</title>
<g id="a_node10"><a xlink:title=" ">
<polygon fill="none" stroke="#bfbfbf" points="336.5,-0.5 336.5,-30.5 455.5,-30.5 455.5,-0.5 336.5,-0.5"/>
<text text-anchor="start" x="344.5" y="-18.5" font-family="Helvetica,sans-Serif" font-size="10.00">seerep&#45;msgs/dataset</text>
<text text-anchor="middle" x="396" y="-7.5" font-family="Helvetica,sans-Serif" font-size="10.00">&#45;indexable.h</text>
</a>
</g>
</g>
<!-- Node8&#45;&gt;Node10 -->
<g id="edge10" class="edge">
<title>Node8&#45;&gt;Node10</title>
<path fill="none" stroke="midnightblue" d="M396,-67.4C396,-59.64 396,-49.81 396,-40.86"/>
<polygon fill="midnightblue" stroke="midnightblue" points="399.5,-40.58 396,-30.58 392.5,-40.58 399.5,-40.58"/>
</g>
<!-- Node8&#45;&gt;Node11 -->
<g id="edge11" class="edge">
<title>Node8&#45;&gt;Node11</title>
<path fill="none" stroke="midnightblue" d="M458.52,-69.09C463.41,-68.32 468.28,-67.61 473,-67 703.22,-37.47 764.25,-63.99 994,-31 1000.94,-30 1008.24,-28.68 1015.36,-27.24"/>
<polygon fill="midnightblue" stroke="midnightblue" points="1016.53,-30.57 1025.58,-25.07 1015.07,-23.72 1016.53,-30.57"/>
</g>
<!-- Node12 -->
<g id="node12" class="node">
<title>Node12</title>
<g id="a_node12"><a xlink:title=" ">
<polygon fill="none" stroke="#bfbfbf" points="474,-6 474,-25 522,-25 522,-6 474,-6"/>
<text text-anchor="middle" x="498" y="-13" font-family="Helvetica,sans-Serif" font-size="10.00">mutex</text>
</a>
</g>
</g>
<!-- Node8&#45;&gt;Node12 -->
<g id="edge12" class="edge">
<title>Node8&#45;&gt;Node12</title>
<path fill="none" stroke="midnightblue" d="M418.13,-67.4C435.24,-56.5 458.8,-41.48 475.9,-30.58"/>
<polygon fill="midnightblue" stroke="midnightblue" points="478.1,-33.33 484.65,-25.01 474.34,-27.43 478.1,-33.33"/>
</g>
<!-- Node13 -->
<g id="node13" class="node">
<title>Node13</title>
<g id="a_node13"><a xlink:title=" ">
<polygon fill="none" stroke="#bfbfbf" points="540.5,-0.5 540.5,-30.5 685.5,-30.5 685.5,-0.5 540.5,-0.5"/>
<text text-anchor="start" x="548.5" y="-18.5" font-family="Helvetica,sans-Serif" font-size="10.00">boost/log/sources/severity</text>
<text text-anchor="middle" x="613" y="-7.5" font-family="Helvetica,sans-Serif" font-size="10.00">_logger.hpp</text>
</a>
</g>
</g>
<!-- Node8&#45;&gt;Node13 -->
<g id="edge14" class="edge">
<title>Node8&#45;&gt;Node13</title>
<path fill="none" stroke="midnightblue" d="M442.82,-67.48C476.07,-57.51 520.9,-44.09 556.2,-33.51"/>
<polygon fill="midnightblue" stroke="midnightblue" points="557.32,-36.83 565.89,-30.61 555.31,-30.13 557.32,-36.83"/>
</g>
<!-- Node14 -->
<g id="node14" class="node">
<title>Node14</title>
<g id="a_node14"><a xlink:title=" ">
<polygon fill="none" stroke="#bfbfbf" points="704,-6 704,-25 818,-25 818,-6 704,-6"/>
<text text-anchor="middle" x="761" y="-13" font-family="Helvetica,sans-Serif" font-size="10.00">boost/log/trivial.hpp</text>
</a>
</g>
</g>
<!-- Node8&#45;&gt;Node14 -->
<g id="edge15" class="edge">
<title>Node8&#45;&gt;Node14</title>
<path fill="none" stroke="midnightblue" d="M458.59,-69.58C463.46,-68.69 468.31,-67.82 473,-67 571.02,-49.79 596.22,-49.53 694,-31 700.22,-29.82 706.74,-28.51 713.17,-27.17"/>
<polygon fill="midnightblue" stroke="midnightblue" points="714.1,-30.55 723.16,-25.05 712.65,-23.7 714.1,-30.55"/>
</g>
<!-- Node15 -->
<g id="node15" class="node">
<title>Node15</title>
<g id="a_node15"><a xlink:title=" ">
<polygon fill="none" stroke="#bfbfbf" points="836.5,-6 836.5,-25 985.5,-25 985.5,-6 836.5,-6"/>
<text text-anchor="middle" x="911" y="-13" font-family="Helvetica,sans-Serif" font-size="10.00">impl/hdf5&#45;core&#45;general.hpp</text>
</a>
</g>
</g>
<!-- Node8&#45;&gt;Node15 -->
<g id="edge16" class="edge">
<title>Node8&#45;&gt;Node15</title>
<path fill="none" stroke="midnightblue" d="M458.54,-69.26C463.43,-68.45 468.29,-67.68 473,-67 629.51,-44.35 670.32,-52.46 827,-31 836.04,-29.76 845.61,-28.28 854.91,-26.74"/>
<polygon fill="midnightblue" stroke="midnightblue" points="855.6,-30.17 864.88,-25.06 854.43,-23.27 855.6,-30.17"/>
</g>
</g>
</svg>
