<?xml version="1.0" encoding="UTF-8" standalone="no"?>
<!DOCTYPE svg PUBLIC "-//W3C//DTD SVG 1.1//EN"
 "http://www.w3.org/Graphics/SVG/1.1/DTD/svg11.dtd">
<!-- Generated by graphviz version 2.43.0 (0)
 -->
<!-- Title: seerep_srv/seerep_core/include/seerep_core/core_instances.h Pages: 1 -->
<svg width="2267pt" height="307pt"
 viewBox="0.00 0.00 2266.50 307.00" xmlns="http://www.w3.org/2000/svg" xmlns:xlink="http://www.w3.org/1999/xlink">
<g id="graph0" class="graph" transform="scale(1 1) rotate(0) translate(4 303)">
<title>seerep_srv/seerep_core/include/seerep_core/core_instances.h</title>
<!-- Node1 -->
<g id="node1" class="node">
<title>Node1</title>
<g id="a_node1"><a xlink:title=" ">
<polygon fill="#bfbfbf" stroke="black" points="1479.5,-257.5 1479.5,-298.5 1620.5,-298.5 1620.5,-257.5 1479.5,-257.5"/>
<text text-anchor="start" x="1487.5" y="-286.5" font-family="Helvetica,sans-Serif" font-size="10.00">seerep_srv/seerep_core</text>
<text text-anchor="start" x="1487.5" y="-275.5" font-family="Helvetica,sans-Serif" font-size="10.00">/include/seerep_core/core</text>
<text text-anchor="middle" x="1550" y="-264.5" font-family="Helvetica,sans-Serif" font-size="10.00">_instances.h</text>
</a>
</g>
</g>
<!-- Node2 -->
<g id="node2" class="node">
<title>Node2</title>
<g id="a_node2"><a xlink:title=" ">
<polygon fill="none" stroke="#bfbfbf" points="725.5,-140 725.5,-159 790.5,-159 790.5,-140 725.5,-140"/>
<text text-anchor="middle" x="758" y="-147" font-family="Helvetica,sans-Serif" font-size="10.00">functional</text>
</a>
</g>
</g>
<!-- Node1&#45;&gt;Node2 -->
<g id="edge1" class="edge">
<title>Node1&#45;&gt;Node2</title>
<path fill="none" stroke="midnightblue" d="M1479.24,-269.94C1346.09,-255.87 1049.68,-220.8 805,-165 801.08,-164.11 797.02,-163.05 793,-161.93"/>
<polygon fill="midnightblue" stroke="midnightblue" points="793.76,-158.5 783.18,-159.03 791.78,-165.22 793.76,-158.5"/>
</g>
<!-- Node3 -->
<g id="node3" class="node">
<title>Node3</title>
<g id="a_node3"><a xlink:title=" ">
<polygon fill="none" stroke="#bfbfbf" points="0,-11.5 0,-30.5 56,-30.5 56,-11.5 0,-11.5"/>
<text text-anchor="middle" x="28" y="-18.5" font-family="Helvetica,sans-Serif" font-size="10.00">optional</text>
</a>
</g>
</g>
<!-- Node1&#45;&gt;Node3 -->
<g id="edge2" class="edge">
<title>Node1&#45;&gt;Node3</title>
<path fill="none" stroke="midnightblue" d="M1479.25,-273.53C1354.69,-266.9 1088.29,-250.42 865,-221 727.49,-202.88 693.58,-194.25 558,-165 337.25,-117.38 275.54,-123.67 65,-42 60.31,-40.18 55.47,-37.89 50.89,-35.52"/>
<polygon fill="midnightblue" stroke="midnightblue" points="52.46,-32.39 42.01,-30.65 49.1,-38.53 52.46,-32.39"/>
</g>
<!-- Node4 -->
<g id="node4" class="node">
<title>Node4</title>
<g id="a_node4"><a xlink:href="core__instance_8h.html" target="_top" xlink:title=" ">
<polygon fill="none" stroke="black" points="1503.5,-201.5 1503.5,-220.5 1596.5,-220.5 1596.5,-201.5 1503.5,-201.5"/>
<text text-anchor="middle" x="1550" y="-208.5" font-family="Helvetica,sans-Serif" font-size="10.00">core_instance.h</text>
</a>
</g>
</g>
<!-- Node1&#45;&gt;Node4 -->
<g id="edge3" class="edge">
<title>Node1&#45;&gt;Node4</title>
<path fill="none" stroke="midnightblue" d="M1550,-257.5C1550,-249.07 1550,-239.24 1550,-230.87"/>
<polygon fill="midnightblue" stroke="midnightblue" points="1553.5,-230.65 1550,-220.65 1546.5,-230.65 1553.5,-230.65"/>
</g>
<!-- Node5 -->
<g id="node5" class="node">
<title>Node5</title>
<g id="a_node5"><a xlink:title=" ">
<polygon fill="none" stroke="#bfbfbf" points="1655.5,-140 1655.5,-159 1792.5,-159 1792.5,-140 1655.5,-140"/>
<text text-anchor="middle" x="1724" y="-147" font-family="Helvetica,sans-Serif" font-size="10.00">seerep_msgs/datatype.h</text>
</a>
</g>
</g>
<!-- Node1&#45;&gt;Node5 -->
<g id="edge41" class="edge">
<title>Node1&#45;&gt;Node5</title>
<path fill="none" stroke="midnightblue" d="M1577.19,-257.23C1612.16,-231.81 1672.12,-188.22 1703.5,-165.41"/>
<polygon fill="midnightblue" stroke="midnightblue" points="1705.87,-168.01 1711.9,-159.29 1701.76,-162.34 1705.87,-168.01"/>
</g>
<!-- Node6 -->
<g id="node6" class="node">
<title>Node6</title>
<g id="a_node6"><a xlink:title=" ">
<polygon fill="none" stroke="#bfbfbf" points="1811,-134.5 1811,-164.5 1945,-164.5 1945,-134.5 1811,-134.5"/>
<text text-anchor="start" x="1819" y="-152.5" font-family="Helvetica,sans-Serif" font-size="10.00">seerep_msgs/label_with</text>
<text text-anchor="middle" x="1878" y="-141.5" font-family="Helvetica,sans-Serif" font-size="10.00">_instance.h</text>
</a>
</g>
</g>
<!-- Node1&#45;&gt;Node6 -->
<g id="edge42" class="edge">
<title>Node1&#45;&gt;Node6</title>
<path fill="none" stroke="midnightblue" d="M1600.89,-257.37C1664.09,-233 1770.97,-191.78 1831.88,-168.29"/>
<polygon fill="midnightblue" stroke="midnightblue" points="1833.17,-171.54 1841.24,-164.68 1830.65,-165.01 1833.17,-171.54"/>
</g>
<!-- Node7 -->
<g id="node7" class="node">
<title>Node7</title>
<g id="a_node7"><a xlink:href="hdf5__core__instance_8h.html" target="_top" xlink:title=" ">
<polygon fill="none" stroke="black" points="1284,-134.5 1284,-164.5 1412,-164.5 1412,-134.5 1284,-134.5"/>
<text text-anchor="start" x="1292" y="-152.5" font-family="Helvetica,sans-Serif" font-size="10.00">seerep_hdf5_core/hdf5</text>
<text text-anchor="middle" x="1348" y="-141.5" font-family="Helvetica,sans-Serif" font-size="10.00">_core_instance.h</text>
</a>
</g>
</g>
<!-- Node1&#45;&gt;Node7 -->
<g id="edge43" class="edge">
<title>Node1&#45;&gt;Node7</title>
<path fill="none" stroke="midnightblue" d="M1518.44,-257.23C1480.43,-233.43 1416.99,-193.7 1379.16,-170.01"/>
<polygon fill="midnightblue" stroke="midnightblue" points="1380.92,-166.98 1370.58,-164.64 1377.2,-172.92 1380.92,-166.98"/>
</g>
<!-- Node19 -->
<g id="node19" class="node">
<title>Node19</title>
<g id="a_node19"><a xlink:title=" ">
<polygon fill="none" stroke="#bfbfbf" points="74.5,-11.5 74.5,-30.5 217.5,-30.5 217.5,-11.5 74.5,-11.5"/>
<text text-anchor="middle" x="146" y="-18.5" font-family="Helvetica,sans-Serif" font-size="10.00">boost/functional/hash.hpp</text>
</a>
</g>
</g>
<!-- Node1&#45;&gt;Node19 -->
<g id="edge44" class="edge">
<title>Node1&#45;&gt;Node19</title>
<path fill="none" stroke="midnightblue" d="M1479.1,-272.44C1371.61,-264.97 1161.15,-248.19 984,-221 670.92,-172.94 302.2,-68.17 184.28,-33.44"/>
<polygon fill="midnightblue" stroke="midnightblue" points="185.19,-30.06 174.61,-30.58 183.21,-36.77 185.19,-30.06"/>
</g>
<!-- Node20 -->
<g id="node20" class="node">
<title>Node20</title>
<g id="a_node20"><a xlink:title=" ">
<polygon fill="none" stroke="#bfbfbf" points="1668.5,-11.5 1668.5,-30.5 1793.5,-30.5 1793.5,-11.5 1668.5,-11.5"/>
<text text-anchor="middle" x="1731" y="-18.5" font-family="Helvetica,sans-Serif" font-size="10.00">boost/lexical_cast.hpp</text>
</a>
</g>
</g>
<!-- Node1&#45;&gt;Node20 -->
<g id="edge45" class="edge">
<title>Node1&#45;&gt;Node20</title>
<path fill="none" stroke="midnightblue" d="M1522.37,-257.28C1511.35,-247.72 1499.89,-235.23 1494,-221 1472.31,-168.62 1481.75,-138.08 1550,-78 1555.45,-73.2 1639.63,-48.34 1691.24,-33.4"/>
<polygon fill="midnightblue" stroke="midnightblue" points="1692.46,-36.7 1701.1,-30.56 1690.52,-29.97 1692.46,-36.7"/>
</g>
<!-- Node21 -->
<g id="node21" class="node">
<title>Node21</title>
<g id="a_node21"><a xlink:title=" ">
<polygon fill="none" stroke="#bfbfbf" points="2145.5,-11.5 2145.5,-30.5 2258.5,-30.5 2258.5,-11.5 2145.5,-11.5"/>
<text text-anchor="middle" x="2202" y="-18.5" font-family="Helvetica,sans-Serif" font-size="10.00">boost/uuid/uuid.hpp</text>
</a>
</g>
</g>
<!-- Node1&#45;&gt;Node21 -->
<g id="edge46" class="edge">
<title>Node1&#45;&gt;Node21</title>
<path fill="none" stroke="midnightblue" d="M1620.77,-276.05C1697.56,-272.83 1822.52,-261.15 1922,-221 2034.79,-175.47 2145.58,-76.18 2185.97,-37.69"/>
<polygon fill="midnightblue" stroke="midnightblue" points="2188.52,-40.09 2193.29,-30.64 2183.66,-35.05 2188.52,-40.09"/>
</g>
<!-- Node22 -->
<g id="node22" class="node">
<title>Node22</title>
<g id="a_node22"><a xlink:title=" ">
<polygon fill="none" stroke="#bfbfbf" points="1812,-11.5 1812,-30.5 1982,-30.5 1982,-11.5 1812,-11.5"/>
<text text-anchor="middle" x="1897" y="-18.5" font-family="Helvetica,sans-Serif" font-size="10.00">boost/uuid/uuid_generators.hpp</text>
</a>
</g>
</g>
<!-- Node1&#45;&gt;Node22 -->
<g id="edge47" class="edge">
<title>Node1&#45;&gt;Node22</title>
<path fill="none" stroke="midnightblue" d="M1620.84,-267.68C1725.6,-252.28 1913.8,-217.87 1954,-165 1984.63,-124.73 1938.79,-65.82 1912.82,-37.86"/>
<polygon fill="midnightblue" stroke="midnightblue" points="1915.25,-35.33 1905.81,-30.53 1910.2,-40.17 1915.25,-35.33"/>
</g>
<!-- Node23 -->
<g id="node23" class="node">
<title>Node23</title>
<g id="a_node23"><a xlink:title=" ">
<polygon fill="none" stroke="#bfbfbf" points="2000.5,-11.5 2000.5,-30.5 2127.5,-30.5 2127.5,-11.5 2000.5,-11.5"/>
<text text-anchor="middle" x="2064" y="-18.5" font-family="Helvetica,sans-Serif" font-size="10.00">boost/uuid/uuid_io.hpp</text>
</a>
</g>
</g>
<!-- Node1&#45;&gt;Node23 -->
<g id="edge48" class="edge">
<title>Node1&#45;&gt;Node23</title>
<path fill="none" stroke="midnightblue" d="M1620.63,-273.7C1690.4,-268.51 1799.11,-255.18 1887,-221 1929.51,-204.47 1940.92,-197.42 1973,-165 2011.34,-126.25 2041.85,-68.7 2055.78,-39.85"/>
<polygon fill="midnightblue" stroke="midnightblue" points="2059.04,-41.15 2060.14,-30.61 2052.71,-38.15 2059.04,-41.15"/>
</g>
<!-- Node4&#45;&gt;Node2 -->
<g id="edge4" class="edge">
<title>Node4&#45;&gt;Node2</title>
<path fill="none" stroke="midnightblue" d="M1503.27,-208.64C1361.87,-204.29 940.06,-189.55 805,-165 800.75,-164.23 796.34,-163.19 792,-162.03"/>
<polygon fill="midnightblue" stroke="midnightblue" points="792.7,-158.59 782.12,-159.15 790.74,-165.31 792.7,-158.59"/>
</g>
<!-- Node4&#45;&gt;Node3 -->
<g id="edge5" class="edge">
<title>Node4&#45;&gt;Node3</title>
<path fill="none" stroke="midnightblue" d="M1503.4,-205.81C1420.03,-198.24 1239.82,-181.52 1088,-165 1031.09,-158.81 119.56,-59.33 65,-42 60.04,-40.42 54.98,-38.18 50.25,-35.75"/>
<polygon fill="midnightblue" stroke="midnightblue" points="51.6,-32.5 41.16,-30.69 48.19,-38.61 51.6,-32.5"/>
</g>
<!-- Node4&#45;&gt;Node5 -->
<g id="edge6" class="edge">
<title>Node4&#45;&gt;Node5</title>
<path fill="none" stroke="midnightblue" d="M1574.93,-201.48C1605.04,-191.18 1655.83,-173.81 1689.64,-162.25"/>
<polygon fill="midnightblue" stroke="midnightblue" points="1690.79,-165.56 1699.12,-159.01 1688.52,-158.93 1690.79,-165.56"/>
</g>
<!-- Node4&#45;&gt;Node6 -->
<g id="edge7" class="edge">
<title>Node4&#45;&gt;Node6</title>
<path fill="none" stroke="midnightblue" d="M1596.94,-201.79C1645.49,-193.26 1723.79,-179.39 1800.98,-165.18"/>
<polygon fill="midnightblue" stroke="midnightblue" points="1801.67,-168.61 1810.87,-163.35 1800.4,-161.72 1801.67,-168.61"/>
</g>
<!-- Node4&#45;&gt;Node7 -->
<g id="edge8" class="edge">
<title>Node4&#45;&gt;Node7</title>
<path fill="none" stroke="midnightblue" d="M1521.06,-201.48C1491.02,-192.63 1443.22,-178.55 1405.47,-167.43"/>
<polygon fill="midnightblue" stroke="midnightblue" points="1406.19,-163.99 1395.61,-164.52 1404.21,-170.71 1406.19,-163.99"/>
</g>
<!-- Node4&#45;&gt;Node19 -->
<g id="edge36" class="edge">
<title>Node4&#45;&gt;Node19</title>
<path fill="none" stroke="midnightblue" d="M1503.24,-202.62C1448.49,-193.92 1355.08,-178.88 1275,-165 1112.06,-136.76 1070.41,-133.96 909,-98 874.91,-90.41 867.49,-83.51 833,-78 566.57,-35.46 493.75,-82.51 227,-42 213.08,-39.89 198.05,-36.49 184.76,-33.1"/>
<polygon fill="midnightblue" stroke="midnightblue" points="185.55,-29.69 174.98,-30.52 183.76,-36.45 185.55,-29.69"/>
</g>
<!-- Node4&#45;&gt;Node20 -->
<g id="edge37" class="edge">
<title>Node4&#45;&gt;Node20</title>
<path fill="none" stroke="midnightblue" d="M1545.98,-201.4C1539.86,-187.14 1529.69,-157.8 1537,-134 1545.83,-105.25 1551.23,-96.43 1575,-78 1593.39,-63.73 1650.85,-45.13 1690.64,-33.37"/>
<polygon fill="midnightblue" stroke="midnightblue" points="1691.73,-36.7 1700.34,-30.54 1689.76,-29.98 1691.73,-36.7"/>
</g>
<!-- Node4&#45;&gt;Node21 -->
<g id="edge38" class="edge">
<title>Node4&#45;&gt;Node21</title>
<path fill="none" stroke="midnightblue" d="M1562.39,-201.35C1574.89,-192.51 1594.63,-178.24 1611,-165 1627.15,-151.93 1627.33,-143.13 1646,-134 1845.43,-36.42 1921.44,-95.18 2137,-42 2146.78,-39.59 2157.27,-36.56 2166.9,-33.6"/>
<polygon fill="midnightblue" stroke="midnightblue" points="2168.07,-36.9 2176.56,-30.56 2165.97,-30.22 2168.07,-36.9"/>
</g>
<!-- Node4&#45;&gt;Node22 -->
<g id="edge39" class="edge">
<title>Node4&#45;&gt;Node22</title>
<path fill="none" stroke="midnightblue" d="M1550.44,-201.2C1551.69,-185.57 1556.5,-152.82 1575,-134 1614.15,-94.18 1770.5,-52.22 1850.03,-32.9"/>
<polygon fill="midnightblue" stroke="midnightblue" points="1850.9,-36.29 1859.8,-30.55 1849.26,-29.49 1850.9,-36.29"/>
</g>
<!-- Node4&#45;&gt;Node23 -->
<g id="edge40" class="edge">
<title>Node4&#45;&gt;Node23</title>
<path fill="none" stroke="midnightblue" d="M1554.61,-201.4C1563.61,-185.47 1585.1,-151.44 1613,-134 1759.61,-42.35 1823.6,-85.29 1991,-42 2001.61,-39.26 2013.04,-36.18 2023.65,-33.28"/>
<polygon fill="midnightblue" stroke="midnightblue" points="2024.79,-36.59 2033.51,-30.56 2022.94,-29.84 2024.79,-36.59"/>
</g>
<!-- Node7&#45;&gt;Node3 -->
<g id="edge35" class="edge">
<title>Node7&#45;&gt;Node3</title>
<path fill="none" stroke="midnightblue" d="M1283.69,-144.36C1197.06,-138.06 1038.35,-123.95 905,-98 872.4,-91.66 865.79,-83.25 833,-78 664.3,-50.97 229.61,-87.77 65,-42 59.68,-40.52 54.28,-38.17 49.31,-35.6"/>
<polygon fill="midnightblue" stroke="midnightblue" points="50.83,-32.44 40.41,-30.53 47.37,-38.52 50.83,-32.44"/>
</g>
<!-- Node8 -->
<g id="node8" class="node">
<title>Node8</title>
<g id="a_node8"><a xlink:title=" ">
<polygon fill="none" stroke="#bfbfbf" points="236,-11.5 236,-30.5 346,-30.5 346,-11.5 236,-11.5"/>
<text text-anchor="middle" x="291" y="-18.5" font-family="Helvetica,sans-Serif" font-size="10.00">highfive/H5File.hpp</text>
</a>
</g>
</g>
<!-- Node7&#45;&gt;Node8 -->
<g id="edge9" class="edge">
<title>Node7&#45;&gt;Node8</title>
<path fill="none" stroke="midnightblue" d="M1299.65,-134.46C1270.97,-125.45 1234.23,-112.7 1203,-98 1187.48,-90.7 1186.41,-82.98 1170,-78 996.52,-25.38 533.57,-73.3 355,-42 344.42,-40.15 333.16,-37.03 323.07,-33.8"/>
<polygon fill="midnightblue" stroke="midnightblue" points="324.05,-30.44 313.45,-30.58 321.83,-37.08 324.05,-30.44"/>
</g>
<!-- Node9 -->
<g id="node9" class="node">
<title>Node9</title>
<g id="a_node9"><a xlink:href="hdf5__core__general_8h.html" target="_top" xlink:title=" ">
<polygon fill="none" stroke="black" points="1255,-78.5 1255,-97.5 1371,-97.5 1371,-78.5 1255,-78.5"/>
<text text-anchor="middle" x="1313" y="-85.5" font-family="Helvetica,sans-Serif" font-size="10.00">hdf5_core_general.h</text>
</a>
</g>
</g>
<!-- Node7&#45;&gt;Node9 -->
<g id="edge10" class="edge">
<title>Node7&#45;&gt;Node9</title>
<path fill="none" stroke="midnightblue" d="M1339.71,-134.4C1334.78,-126.02 1328.49,-115.33 1323.25,-106.42"/>
<polygon fill="midnightblue" stroke="midnightblue" points="1326.18,-104.5 1318.09,-97.66 1320.15,-108.05 1326.18,-104.5"/>
</g>
<!-- Node14 -->
<g id="node14" class="node">
<title>Node14</title>
<g id="a_node14"><a xlink:title=" ">
<polygon fill="none" stroke="#bfbfbf" points="364.5,-11.5 364.5,-30.5 477.5,-30.5 477.5,-11.5 364.5,-11.5"/>
<text text-anchor="middle" x="421" y="-18.5" font-family="Helvetica,sans-Serif" font-size="10.00">boost/geometry.hpp</text>
</a>
</g>
</g>
<!-- Node7&#45;&gt;Node14 -->
<g id="edge34" class="edge">
<title>Node7&#45;&gt;Node14</title>
<path fill="none" stroke="midnightblue" d="M1319.87,-134.46C1279.47,-114.36 1209.15,-79.58 1203,-78 894.39,1.26 800.91,-96.61 487,-42 476.01,-40.09 464.27,-36.92 453.78,-33.66"/>
<polygon fill="midnightblue" stroke="midnightblue" points="454.78,-30.3 444.18,-30.54 452.62,-36.96 454.78,-30.3"/>
</g>
<!-- Node7&#45;&gt;Node19 -->
<g id="edge29" class="edge">
<title>Node7&#45;&gt;Node19</title>
<path fill="none" stroke="midnightblue" d="M1283.68,-146.37C1204.3,-142.36 1065.86,-130.88 952,-98 931.75,-92.15 929.45,-83.09 909,-78 614.46,-4.66 527.24,-86.58 227,-42 213.07,-39.93 198.04,-36.55 184.75,-33.15"/>
<polygon fill="midnightblue" stroke="midnightblue" points="185.54,-29.74 174.98,-30.57 183.75,-36.51 185.54,-29.74"/>
</g>
<!-- Node7&#45;&gt;Node20 -->
<g id="edge30" class="edge">
<title>Node7&#45;&gt;Node20</title>
<path fill="none" stroke="midnightblue" d="M1358.46,-134.48C1371.57,-118.02 1395.68,-91.29 1423,-78 1518.4,-31.57 1555.25,-64.24 1659,-42 1670.27,-39.59 1682.38,-36.44 1693.4,-33.36"/>
<polygon fill="midnightblue" stroke="midnightblue" points="1694.5,-36.68 1703.15,-30.57 1692.58,-29.95 1694.5,-36.68"/>
</g>
<!-- Node7&#45;&gt;Node21 -->
<g id="edge31" class="edge">
<title>Node7&#45;&gt;Node21</title>
<path fill="none" stroke="midnightblue" d="M1412.11,-143.8C1547.41,-133.02 1871.54,-102.63 2137,-42 2147,-39.72 2157.69,-36.68 2167.46,-33.67"/>
<polygon fill="midnightblue" stroke="midnightblue" points="2168.76,-36.93 2177.23,-30.57 2166.64,-30.25 2168.76,-36.93"/>
</g>
<!-- Node7&#45;&gt;Node22 -->
<g id="edge32" class="edge">
<title>Node7&#45;&gt;Node22</title>
<path fill="none" stroke="midnightblue" d="M1379.09,-134.46C1415.99,-118.37 1479.77,-92.37 1537,-78 1652.28,-49.05 1684.88,-62.26 1802,-42 1817.52,-39.32 1834.36,-35.93 1849.5,-32.71"/>
<polygon fill="midnightblue" stroke="midnightblue" points="1850.63,-36.04 1859.67,-30.51 1849.16,-29.2 1850.63,-36.04"/>
</g>
<!-- Node7&#45;&gt;Node23 -->
<g id="edge33" class="edge">
<title>Node7&#45;&gt;Node23</title>
<path fill="none" stroke="midnightblue" d="M1412.3,-140.09C1528.52,-124.4 1781,-88.03 1991,-42 2002.3,-39.52 2014.46,-36.38 2025.56,-33.33"/>
<polygon fill="midnightblue" stroke="midnightblue" points="2026.71,-36.64 2035.39,-30.57 2024.82,-29.9 2026.71,-36.64"/>
</g>
<!-- Node25 -->
<g id="node25" class="node">
<title>Node25</title>
<g id="a_node25"><a xlink:title=" ">
<polygon fill="none" stroke="#bfbfbf" points="961,-78.5 961,-97.5 1161,-97.5 1161,-78.5 961,-78.5"/>
<text text-anchor="middle" x="1061" y="-85.5" font-family="Helvetica,sans-Serif" font-size="10.00">geometry_msgs/TransformStamped.h</text>
</a>
</g>
</g>
<!-- Node7&#45;&gt;Node25 -->
<g id="edge28" class="edge">
<title>Node7&#45;&gt;Node25</title>
<path fill="none" stroke="midnightblue" d="M1283.95,-135.22C1232.13,-124.48 1160.12,-109.55 1112.11,-99.6"/>
<polygon fill="midnightblue" stroke="midnightblue" points="1112.75,-96.15 1102.24,-97.55 1111.33,-103.01 1112.75,-96.15"/>
</g>
<!-- Node9&#45;&gt;Node3 -->
<g id="edge18" class="edge">
<title>Node9&#45;&gt;Node3</title>
<path fill="none" stroke="midnightblue" d="M1254.93,-82.94C1228.95,-81.23 1197.95,-79.33 1170,-78 1047.3,-72.14 183.58,-74.06 65,-42 59.67,-40.56 54.27,-38.23 49.29,-35.65"/>
<polygon fill="midnightblue" stroke="midnightblue" points="50.82,-32.49 40.4,-30.58 47.35,-38.58 50.82,-32.49"/>
</g>
<!-- Node9&#45;&gt;Node8 -->
<g id="edge11" class="edge">
<title>Node9&#45;&gt;Node8</title>
<path fill="none" stroke="midnightblue" d="M1254.8,-81.81C1238.09,-80.44 1219.83,-79.05 1203,-78 826.5,-54.61 726.62,-106.81 355,-42 344.42,-40.16 333.16,-37.04 323.07,-33.82"/>
<polygon fill="midnightblue" stroke="midnightblue" points="324.05,-30.45 313.45,-30.59 321.82,-37.09 324.05,-30.45"/>
</g>
<!-- Node10 -->
<g id="node10" class="node">
<title>Node10</title>
<g id="a_node10"><a xlink:title=" ">
<polygon fill="none" stroke="#bfbfbf" points="666.5,-11.5 666.5,-30.5 783.5,-30.5 783.5,-11.5 666.5,-11.5"/>
<text text-anchor="middle" x="725" y="-18.5" font-family="Helvetica,sans-Serif" font-size="10.00">seerep_msgs/aabb.h</text>
</a>
</g>
</g>
<!-- Node9&#45;&gt;Node10 -->
<g id="edge12" class="edge">
<title>Node9&#45;&gt;Node10</title>
<path fill="none" stroke="midnightblue" d="M1254.87,-79.51C1250.18,-78.97 1245.51,-78.46 1241,-78 1041.85,-57.58 988.78,-78.83 792,-42 781.06,-39.95 769.36,-36.81 758.85,-33.61"/>
<polygon fill="midnightblue" stroke="midnightblue" points="759.79,-30.24 749.2,-30.56 757.68,-36.91 759.79,-30.24"/>
</g>
<!-- Node11 -->
<g id="node11" class="node">
<title>Node11</title>
<g id="a_node11"><a xlink:title=" ">
<polygon fill="none" stroke="#bfbfbf" points="801.5,-6 801.5,-36 922.5,-36 922.5,-6 801.5,-6"/>
<text text-anchor="start" x="809.5" y="-24" font-family="Helvetica,sans-Serif" font-size="10.00">seerep_msgs/dataset</text>
<text text-anchor="middle" x="862" y="-13" font-family="Helvetica,sans-Serif" font-size="10.00">_indexable.h</text>
</a>
</g>
</g>
<!-- Node9&#45;&gt;Node11 -->
<g id="edge13" class="edge">
<title>Node9&#45;&gt;Node11</title>
<path fill="none" stroke="midnightblue" d="M1254.85,-79.69C1250.16,-79.11 1245.5,-78.54 1241,-78 1103.73,-61.43 1067.58,-69.08 932,-42 927.22,-41.04 922.28,-39.92 917.36,-38.71"/>
<polygon fill="midnightblue" stroke="midnightblue" points="917.86,-35.22 907.3,-36.1 916.1,-42 917.86,-35.22"/>
</g>
<!-- Node12 -->
<g id="node12" class="node">
<title>Node12</title>
<g id="a_node12"><a xlink:title=" ">
<polygon fill="none" stroke="#bfbfbf" points="941,-6 941,-36 1067,-36 1067,-6 941,-6"/>
<text text-anchor="start" x="949" y="-24" font-family="Helvetica,sans-Serif" font-size="10.00">seerep_msgs/geodetic</text>
<text text-anchor="middle" x="1004" y="-13" font-family="Helvetica,sans-Serif" font-size="10.00">_coordinates.h</text>
</a>
</g>
</g>
<!-- Node9&#45;&gt;Node12 -->
<g id="edge14" class="edge">
<title>Node9&#45;&gt;Node12</title>
<path fill="none" stroke="midnightblue" d="M1261.42,-78.48C1213.24,-70.23 1139.42,-56.8 1076,-42 1071.42,-40.93 1066.7,-39.77 1061.97,-38.55"/>
<polygon fill="midnightblue" stroke="midnightblue" points="1062.83,-35.16 1052.27,-36 1061.05,-41.93 1062.83,-35.16"/>
</g>
<!-- Node13 -->
<g id="node13" class="node">
<title>Node13</title>
<g id="a_node13"><a xlink:title=" ">
<polygon fill="none" stroke="#bfbfbf" points="1085,-0.5 1085,-41.5 1201,-41.5 1201,-0.5 1085,-0.5"/>
<text text-anchor="start" x="1093" y="-29.5" font-family="Helvetica,sans-Serif" font-size="10.00">seerep_msgs/labels</text>
<text text-anchor="start" x="1093" y="-18.5" font-family="Helvetica,sans-Serif" font-size="10.00">_with_instance_with</text>
<text text-anchor="middle" x="1143" y="-7.5" font-family="Helvetica,sans-Serif" font-size="10.00">_category.h</text>
</a>
</g>
</g>
<!-- Node9&#45;&gt;Node13 -->
<g id="edge15" class="edge">
<title>Node9&#45;&gt;Node13</title>
<path fill="none" stroke="midnightblue" d="M1290.43,-78.37C1268.42,-69.95 1233.98,-56.79 1203.91,-45.29"/>
<polygon fill="midnightblue" stroke="midnightblue" points="1204.92,-41.93 1194.33,-41.63 1202.42,-48.47 1204.92,-41.93"/>
</g>
<!-- Node9&#45;&gt;Node14 -->
<g id="edge16" class="edge">
<title>Node9&#45;&gt;Node14</title>
<path fill="none" stroke="midnightblue" d="M1254.88,-79.35C1250.19,-78.85 1245.52,-78.39 1241,-78 906.75,-49.17 817.6,-99.08 487,-42 476,-40.1 464.26,-36.93 453.78,-33.67"/>
<polygon fill="midnightblue" stroke="midnightblue" points="454.77,-30.32 444.18,-30.56 452.61,-36.97 454.77,-30.32"/>
</g>
<!-- Node15 -->
<g id="node15" class="node">
<title>Node15</title>
<g id="a_node15"><a xlink:title=" ">
<polygon fill="none" stroke="#bfbfbf" points="1219,-11.5 1219,-30.5 1267,-30.5 1267,-11.5 1219,-11.5"/>
<text text-anchor="middle" x="1243" y="-18.5" font-family="Helvetica,sans-Serif" font-size="10.00">mutex</text>
</a>
</g>
</g>
<!-- Node9&#45;&gt;Node15 -->
<g id="edge17" class="edge">
<title>Node9&#45;&gt;Node15</title>
<path fill="none" stroke="midnightblue" d="M1303.56,-78.23C1292.33,-67.81 1273.38,-50.21 1259.66,-37.47"/>
<polygon fill="midnightblue" stroke="midnightblue" points="1262,-34.87 1252.29,-30.63 1257.24,-40 1262,-34.87"/>
</g>
<!-- Node16 -->
<g id="node16" class="node">
<title>Node16</title>
<g id="a_node16"><a xlink:title=" ">
<polygon fill="none" stroke="#bfbfbf" points="1285.5,-11.5 1285.5,-30.5 1354.5,-30.5 1354.5,-11.5 1285.5,-11.5"/>
<text text-anchor="middle" x="1320" y="-18.5" font-family="Helvetica,sans-Serif" font-size="10.00">type_traits</text>
</a>
</g>
</g>
<!-- Node9&#45;&gt;Node16 -->
<g id="edge19" class="edge">
<title>Node9&#45;&gt;Node16</title>
<path fill="none" stroke="midnightblue" d="M1313.94,-78.23C1314.97,-68.68 1316.65,-53.12 1317.98,-40.78"/>
<polygon fill="midnightblue" stroke="midnightblue" points="1321.48,-40.94 1319.07,-30.63 1314.52,-40.2 1321.48,-40.94"/>
</g>
<!-- Node17 -->
<g id="node17" class="node">
<title>Node17</title>
<g id="a_node17"><a xlink:title=" ">
<polygon fill="none" stroke="#bfbfbf" points="1372.5,-6 1372.5,-36 1517.5,-36 1517.5,-6 1372.5,-6"/>
<text text-anchor="start" x="1380.5" y="-24" font-family="Helvetica,sans-Serif" font-size="10.00">boost/log/sources/severity</text>
<text text-anchor="middle" x="1445" y="-13" font-family="Helvetica,sans-Serif" font-size="10.00">_logger.hpp</text>
</a>
</g>
</g>
<!-- Node9&#45;&gt;Node17 -->
<g id="edge20" class="edge">
<title>Node9&#45;&gt;Node17</title>
<path fill="none" stroke="midnightblue" d="M1330.53,-78.37C1349.93,-68.81 1381.79,-53.13 1406.97,-40.72"/>
<polygon fill="midnightblue" stroke="midnightblue" points="1408.84,-43.71 1416.26,-36.15 1405.74,-37.43 1408.84,-43.71"/>
</g>
<!-- Node18 -->
<g id="node18" class="node">
<title>Node18</title>
<g id="a_node18"><a xlink:title=" ">
<polygon fill="none" stroke="#bfbfbf" points="1536,-11.5 1536,-30.5 1650,-30.5 1650,-11.5 1536,-11.5"/>
<text text-anchor="middle" x="1593" y="-18.5" font-family="Helvetica,sans-Serif" font-size="10.00">boost/log/trivial.hpp</text>
</a>
</g>
</g>
<!-- Node9&#45;&gt;Node18 -->
<g id="edge21" class="edge">
<title>Node9&#45;&gt;Node18</title>
<path fill="none" stroke="midnightblue" d="M1358.96,-78.42C1402.26,-70.07 1468.86,-56.54 1526,-42 1535.87,-39.49 1546.46,-36.48 1556.24,-33.56"/>
<polygon fill="midnightblue" stroke="midnightblue" points="1557.53,-36.83 1566.08,-30.58 1555.5,-30.13 1557.53,-36.83"/>
</g>
<!-- Node9&#45;&gt;Node19 -->
<g id="edge22" class="edge">
<title>Node9&#45;&gt;Node19</title>
<path fill="none" stroke="midnightblue" d="M1254.92,-83.02C1228.95,-81.32 1197.95,-79.41 1170,-78 751.12,-56.83 642.31,-100.57 227,-42 212.94,-40.02 197.77,-36.62 184.41,-33.18"/>
<polygon fill="midnightblue" stroke="midnightblue" points="185.15,-29.76 174.59,-30.57 183.35,-36.52 185.15,-29.76"/>
</g>
<!-- Node9&#45;&gt;Node20 -->
<g id="edge23" class="edge">
<title>Node9&#45;&gt;Node20</title>
<path fill="none" stroke="midnightblue" d="M1371.07,-79.66C1465.94,-67.65 1645.09,-44.82 1659,-42 1670.49,-39.67 1682.83,-36.49 1694,-33.36"/>
<polygon fill="midnightblue" stroke="midnightblue" points="1695.23,-36.65 1703.87,-30.52 1693.29,-29.92 1695.23,-36.65"/>
</g>
<!-- Node9&#45;&gt;Node21 -->
<g id="edge24" class="edge">
<title>Node9&#45;&gt;Node21</title>
<path fill="none" stroke="midnightblue" d="M1371.22,-85.67C1533.67,-81.65 1989.61,-68.29 2137,-42 2147.72,-40.09 2159.16,-36.96 2169.4,-33.73"/>
<polygon fill="midnightblue" stroke="midnightblue" points="2170.77,-36.97 2179.17,-30.52 2168.58,-30.32 2170.77,-36.97"/>
</g>
<!-- Node9&#45;&gt;Node22 -->
<g id="edge25" class="edge">
<title>Node9&#45;&gt;Node22</title>
<path fill="none" stroke="midnightblue" d="M1371.41,-82.01C1491.93,-71.65 1760.38,-48.28 1802,-42 1818.13,-39.57 1835.65,-36.12 1851.19,-32.76"/>
<polygon fill="midnightblue" stroke="midnightblue" points="1852.07,-36.15 1861.09,-30.58 1850.57,-29.32 1852.07,-36.15"/>
</g>
<!-- Node9&#45;&gt;Node23 -->
<g id="edge26" class="edge">
<title>Node9&#45;&gt;Node23</title>
<path fill="none" stroke="midnightblue" d="M1371.13,-84.65C1512.7,-78.67 1872.42,-61.97 1991,-42 2003.23,-39.94 2016.36,-36.68 2028.07,-33.39"/>
<polygon fill="midnightblue" stroke="midnightblue" points="2029.31,-36.67 2037.93,-30.51 2027.35,-29.95 2029.31,-36.67"/>
</g>
<!-- Node24 -->
<g id="node24" class="node">
<title>Node24</title>
<g id="a_node24"><a xlink:title=" ">
<polygon fill="none" stroke="#bfbfbf" points="496,-11.5 496,-30.5 648,-30.5 648,-11.5 496,-11.5"/>
<text text-anchor="middle" x="572" y="-18.5" font-family="Helvetica,sans-Serif" font-size="10.00">impl/hdf5_core_general.hpp</text>
</a>
</g>
</g>
<!-- Node9&#45;&gt;Node24 -->
<g id="edge27" class="edge">
<title>Node9&#45;&gt;Node24</title>
<path fill="none" stroke="midnightblue" d="M1254.88,-79.42C1250.18,-78.9 1245.52,-78.42 1241,-78 982.07,-53.86 914.27,-79.92 657,-42 642.4,-39.85 626.61,-36.44 612.64,-33.04"/>
<polygon fill="midnightblue" stroke="midnightblue" points="613.39,-29.62 602.84,-30.59 611.69,-36.41 613.39,-29.62"/>
</g>
</g>
</svg>
