<?xml version="1.0" encoding="UTF-8" standalone="no"?>
<!DOCTYPE svg PUBLIC "-//W3C//DTD SVG 1.1//EN"
 "http://www.w3.org/Graphics/SVG/1.1/DTD/svg11.dtd">
<!-- Generated by graphviz version 2.43.0 (0)
 -->
<!-- Title: seerep_srv/seerep_core_pb/src/core_pb_conversion.cpp Pages: 1 -->
<svg width="3652pt" height="173pt"
 viewBox="0.00 0.00 3652.00 173.00" xmlns="http://www.w3.org/2000/svg" xmlns:xlink="http://www.w3.org/1999/xlink">
<g id="graph0" class="graph" transform="scale(1 1) rotate(0) translate(4 169)">
<title>seerep_srv/seerep_core_pb/src/core_pb_conversion.cpp</title>
<!-- Node1 -->
<g id="node1" class="node">
<title>Node1</title>
<g id="a_node1"><a xlink:title=" ">
<polygon fill="#bfbfbf" stroke="black" points="1624,-134.5 1624,-164.5 1795,-164.5 1795,-134.5 1624,-134.5"/>
<text text-anchor="start" x="1632" y="-152.5" font-family="Helvetica,sans-Serif" font-size="10.00">seerep_srv/seerep_core</text>
<text text-anchor="middle" x="1709.5" y="-141.5" font-family="Helvetica,sans-Serif" font-size="10.00">_pb/src/core_pb_conversion.cpp</text>
</a>
</g>
</g>
<!-- Node2 -->
<g id="node2" class="node">
<title>Node2</title>
<g id="a_node2"><a xlink:href="core__pb__conversion_8h.html" target="_top" xlink:title=" ">
<polygon fill="none" stroke="black" points="1651,-67.5 1651,-97.5 1768,-97.5 1768,-67.5 1651,-67.5"/>
<text text-anchor="start" x="1659" y="-85.5" font-family="Helvetica,sans-Serif" font-size="10.00">seerep_core_pb/core</text>
<text text-anchor="middle" x="1709.5" y="-74.5" font-family="Helvetica,sans-Serif" font-size="10.00">_pb_conversion.h</text>
</a>
</g>
</g>
<!-- Node1&#45;&gt;Node2 -->
<g id="edge1" class="edge">
<title>Node1&#45;&gt;Node2</title>
<path fill="none" stroke="midnightblue" d="M1709.5,-134.4C1709.5,-126.64 1709.5,-116.81 1709.5,-107.86"/>
<polygon fill="midnightblue" stroke="midnightblue" points="1713,-107.58 1709.5,-97.58 1706,-107.58 1713,-107.58"/>
</g>
<!-- Node3 -->
<g id="node3" class="node">
<title>Node3</title>
<g id="a_node3"><a xlink:title=" ">
<polygon fill="none" stroke="#bfbfbf" points="0,-6 0,-25 65,-25 65,-6 0,-6"/>
<text text-anchor="middle" x="32.5" y="-13" font-family="Helvetica,sans-Serif" font-size="10.00">functional</text>
</a>
</g>
</g>
<!-- Node2&#45;&gt;Node3 -->
<g id="edge2" class="edge">
<title>Node2&#45;&gt;Node3</title>
<path fill="none" stroke="midnightblue" d="M1650.75,-80.73C1376.82,-77.02 231.7,-59.87 74.5,-31 70.79,-30.32 66.97,-29.37 63.21,-28.28"/>
<polygon fill="midnightblue" stroke="midnightblue" points="64.12,-24.9 53.53,-25.15 61.97,-31.56 64.12,-24.9"/>
</g>
<!-- Node4 -->
<g id="node4" class="node">
<title>Node4</title>
<g id="a_node4"><a xlink:title=" ">
<polygon fill="none" stroke="#bfbfbf" points="83.5,-6 83.5,-25 139.5,-25 139.5,-6 83.5,-6"/>
<text text-anchor="middle" x="111.5" y="-13" font-family="Helvetica,sans-Serif" font-size="10.00">optional</text>
</a>
</g>
</g>
<!-- Node2&#45;&gt;Node4 -->
<g id="edge3" class="edge">
<title>Node2&#45;&gt;Node4</title>
<path fill="none" stroke="midnightblue" d="M1650.74,-80.78C1384.45,-77.37 297.48,-61.65 148.5,-31 145.42,-30.37 142.27,-29.5 139.17,-28.5"/>
<polygon fill="midnightblue" stroke="midnightblue" points="140.16,-25.14 129.57,-25 137.76,-31.72 140.16,-25.14"/>
</g>
<!-- Node5 -->
<g id="node5" class="node">
<title>Node5</title>
<g id="a_node5"><a xlink:title=" ">
<polygon fill="none" stroke="#bfbfbf" points="158,-0.5 158,-30.5 279,-30.5 279,-0.5 158,-0.5"/>
<text text-anchor="start" x="166" y="-18.5" font-family="Helvetica,sans-Serif" font-size="10.00">seerep_msgs/camera</text>
<text text-anchor="middle" x="218.5" y="-7.5" font-family="Helvetica,sans-Serif" font-size="10.00">_intrinsics.pb.h</text>
</a>
</g>
</g>
<!-- Node2&#45;&gt;Node5 -->
<g id="edge4" class="edge">
<title>Node2&#45;&gt;Node5</title>
<path fill="none" stroke="midnightblue" d="M1650.69,-80.73C1420.39,-77.53 578.75,-63.88 289.17,-30.89"/>
<polygon fill="midnightblue" stroke="midnightblue" points="289.44,-27.4 279.1,-29.71 288.63,-34.35 289.44,-27.4"/>
</g>
<!-- Node6 -->
<g id="node6" class="node">
<title>Node6</title>
<g id="a_node6"><a xlink:title=" ">
<polygon fill="none" stroke="#bfbfbf" points="297.5,-0.5 297.5,-30.5 419.5,-30.5 419.5,-0.5 297.5,-0.5"/>
<text text-anchor="start" x="305.5" y="-18.5" font-family="Helvetica,sans-Serif" font-size="10.00">seerep_msgs/camera</text>
<text text-anchor="middle" x="358.5" y="-7.5" font-family="Helvetica,sans-Serif" font-size="10.00">_intrinsics_query.pb.h</text>
</a>
</g>
</g>
<!-- Node2&#45;&gt;Node6 -->
<g id="edge5" class="edge">
<title>Node2&#45;&gt;Node6</title>
<path fill="none" stroke="midnightblue" d="M1650.63,-80.47C1435.28,-76.5 689.87,-60.97 430.02,-31.02"/>
<polygon fill="midnightblue" stroke="midnightblue" points="430.21,-27.51 419.87,-29.81 429.38,-34.47 430.21,-27.51"/>
</g>
<!-- Node7 -->
<g id="node7" class="node">
<title>Node7</title>
<g id="a_node7"><a xlink:title=" ">
<polygon fill="none" stroke="#bfbfbf" points="437.5,-6 437.5,-25 589.5,-25 589.5,-6 437.5,-6"/>
<text text-anchor="middle" x="513.5" y="-13" font-family="Helvetica,sans-Serif" font-size="10.00">seerep_msgs/datatype.pb.h</text>
</a>
</g>
</g>
<!-- Node2&#45;&gt;Node7 -->
<g id="edge6" class="edge">
<title>Node2&#45;&gt;Node7</title>
<path fill="none" stroke="midnightblue" d="M1650.88,-81.38C1485.16,-80.5 999.24,-74.12 598.5,-31 588.45,-29.92 577.8,-28.4 567.55,-26.75"/>
<polygon fill="midnightblue" stroke="midnightblue" points="567.91,-23.26 557.47,-25.07 566.76,-30.17 567.91,-23.26"/>
</g>
<!-- Node8 -->
<g id="node8" class="node">
<title>Node8</title>
<g id="a_node8"><a xlink:title=" ">
<polygon fill="none" stroke="#bfbfbf" points="608,-6 608,-25 747,-25 747,-6 608,-6"/>
<text text-anchor="middle" x="677.5" y="-13" font-family="Helvetica,sans-Serif" font-size="10.00">seerep_msgs/image.pb.h</text>
</a>
</g>
</g>
<!-- Node2&#45;&gt;Node8 -->
<g id="edge7" class="edge">
<title>Node2&#45;&gt;Node8</title>
<path fill="none" stroke="midnightblue" d="M1650.99,-81.01C1501.51,-79.2 1093.61,-70.7 756.5,-31 747.35,-29.92 737.65,-28.43 728.31,-26.82"/>
<polygon fill="midnightblue" stroke="midnightblue" points="728.81,-23.35 718.35,-25.03 727.58,-30.24 728.81,-23.35"/>
</g>
<!-- Node9 -->
<g id="node9" class="node">
<title>Node9</title>
<g id="a_node9"><a xlink:title=" ">
<polygon fill="none" stroke="#bfbfbf" points="765.5,-0.5 765.5,-30.5 905.5,-30.5 905.5,-0.5 765.5,-0.5"/>
<text text-anchor="start" x="773.5" y="-18.5" font-family="Helvetica,sans-Serif" font-size="10.00">seerep_msgs/point_cloud</text>
<text text-anchor="middle" x="835.5" y="-7.5" font-family="Helvetica,sans-Serif" font-size="10.00">_2.pb.h</text>
</a>
</g>
</g>
<!-- Node2&#45;&gt;Node9 -->
<g id="edge8" class="edge">
<title>Node2&#45;&gt;Node9</title>
<path fill="none" stroke="midnightblue" d="M1650.93,-80.15C1520.55,-76.62 1196.4,-65.03 915.61,-31.04"/>
<polygon fill="midnightblue" stroke="midnightblue" points="916,-27.56 905.65,-29.82 915.15,-34.51 916,-27.56"/>
</g>
<!-- Node10 -->
<g id="node10" class="node">
<title>Node10</title>
<g id="a_node10"><a xlink:title=" ">
<polygon fill="none" stroke="#bfbfbf" points="923.5,-6 923.5,-25 1057.5,-25 1057.5,-6 923.5,-6"/>
<text text-anchor="middle" x="990.5" y="-13" font-family="Helvetica,sans-Serif" font-size="10.00">seerep_msgs/query.pb.h</text>
</a>
</g>
</g>
<!-- Node2&#45;&gt;Node10 -->
<g id="edge9" class="edge">
<title>Node2&#45;&gt;Node10</title>
<path fill="none" stroke="midnightblue" d="M1650.76,-79.05C1537.39,-73.86 1280.69,-59.75 1066.5,-31 1058.08,-29.87 1049.18,-28.41 1040.55,-26.86"/>
<polygon fill="midnightblue" stroke="midnightblue" points="1041.07,-23.4 1030.6,-25.01 1039.79,-30.28 1041.07,-23.4"/>
</g>
<!-- Node11 -->
<g id="node11" class="node">
<title>Node11</title>
<g id="a_node11"><a xlink:title=" ">
<polygon fill="none" stroke="#bfbfbf" points="1076,-0.5 1076,-30.5 1191,-30.5 1191,-0.5 1076,-0.5"/>
<text text-anchor="start" x="1084" y="-18.5" font-family="Helvetica,sans-Serif" font-size="10.00">seerep_msgs/region</text>
<text text-anchor="middle" x="1133.5" y="-7.5" font-family="Helvetica,sans-Serif" font-size="10.00">_of_interest.pb.h</text>
</a>
</g>
</g>
<!-- Node2&#45;&gt;Node11 -->
<g id="edge10" class="edge">
<title>Node2&#45;&gt;Node11</title>
<path fill="none" stroke="midnightblue" d="M1650.83,-77.87C1557.67,-71.62 1370.08,-57.07 1201.23,-30.99"/>
<polygon fill="midnightblue" stroke="midnightblue" points="1201.59,-27.5 1191.16,-29.42 1200.5,-34.42 1201.59,-27.5"/>
</g>
<!-- Node12 -->
<g id="node12" class="node">
<title>Node12</title>
<g id="a_node12"><a xlink:title=" ">
<polygon fill="none" stroke="#bfbfbf" points="1209.5,-0.5 1209.5,-30.5 1341.5,-30.5 1341.5,-0.5 1209.5,-0.5"/>
<text text-anchor="start" x="1217.5" y="-18.5" font-family="Helvetica,sans-Serif" font-size="10.00">seerep_msgs/transform</text>
<text text-anchor="middle" x="1275.5" y="-7.5" font-family="Helvetica,sans-Serif" font-size="10.00">_stamped.pb.h</text>
</a>
</g>
</g>
<!-- Node2&#45;&gt;Node12 -->
<g id="edge11" class="edge">
<title>Node2&#45;&gt;Node12</title>
<path fill="none" stroke="midnightblue" d="M1650.91,-74.19C1581.81,-65.37 1463.24,-49.57 1351.79,-31.17"/>
<polygon fill="midnightblue" stroke="midnightblue" points="1352.16,-27.68 1341.72,-29.49 1351.01,-34.59 1352.16,-27.68"/>
</g>
<!-- Node13 -->
<g id="node13" class="node">
<title>Node13</title>
<g id="a_node13"><a xlink:title=" ">
<polygon fill="none" stroke="#bfbfbf" points="1359.5,-0.5 1359.5,-30.5 1491.5,-30.5 1491.5,-0.5 1359.5,-0.5"/>
<text text-anchor="start" x="1367.5" y="-18.5" font-family="Helvetica,sans-Serif" font-size="10.00">seerep_msgs/transform</text>
<text text-anchor="middle" x="1425.5" y="-7.5" font-family="Helvetica,sans-Serif" font-size="10.00">_stamped_query.pb.h</text>
</a>
</g>
</g>
<!-- Node2&#45;&gt;Node13 -->
<g id="edge12" class="edge">
<title>Node2&#45;&gt;Node13</title>
<path fill="none" stroke="midnightblue" d="M1651,-68.11C1606.28,-57.88 1544.42,-43.72 1496.8,-32.82"/>
<polygon fill="midnightblue" stroke="midnightblue" points="1497.4,-29.37 1486.87,-30.55 1495.84,-36.19 1497.4,-29.37"/>
</g>
<!-- Node14 -->
<g id="node14" class="node">
<title>Node14</title>
<g id="a_node14"><a xlink:title=" ">
<polygon fill="none" stroke="#bfbfbf" points="1510,-0.5 1510,-30.5 1631,-30.5 1631,-0.5 1510,-0.5"/>
<text text-anchor="start" x="1518" y="-18.5" font-family="Helvetica,sans-Serif" font-size="10.00">seerep_msgs/camera</text>
<text text-anchor="middle" x="1570.5" y="-7.5" font-family="Helvetica,sans-Serif" font-size="10.00">_intrinsics.h</text>
</a>
</g>
</g>
<!-- Node2&#45;&gt;Node14 -->
<g id="edge13" class="edge">
<title>Node2&#45;&gt;Node14</title>
<path fill="none" stroke="midnightblue" d="M1679.34,-67.4C1658.94,-57.86 1631.8,-45.16 1609.72,-34.84"/>
<polygon fill="midnightblue" stroke="midnightblue" points="1611.14,-31.64 1600.6,-30.58 1608.18,-37.98 1611.14,-31.64"/>
</g>
<!-- Node15 -->
<g id="node15" class="node">
<title>Node15</title>
<g id="a_node15"><a xlink:title=" ">
<polygon fill="none" stroke="#bfbfbf" points="1649,-0.5 1649,-30.5 1770,-30.5 1770,-0.5 1649,-0.5"/>
<text text-anchor="start" x="1657" y="-18.5" font-family="Helvetica,sans-Serif" font-size="10.00">seerep_msgs/camera</text>
<text text-anchor="middle" x="1709.5" y="-7.5" font-family="Helvetica,sans-Serif" font-size="10.00">_intrinsics_query.h</text>
</a>
</g>
</g>
<!-- Node2&#45;&gt;Node15 -->
<g id="edge14" class="edge">
<title>Node2&#45;&gt;Node15</title>
<path fill="none" stroke="midnightblue" d="M1709.5,-67.4C1709.5,-59.64 1709.5,-49.81 1709.5,-40.86"/>
<polygon fill="midnightblue" stroke="midnightblue" points="1713,-40.58 1709.5,-30.58 1706,-40.58 1713,-40.58"/>
</g>
<!-- Node16 -->
<g id="node16" class="node">
<title>Node16</title>
<g id="a_node16"><a xlink:title=" ">
<polygon fill="none" stroke="#bfbfbf" points="1788,-0.5 1788,-30.5 1909,-30.5 1909,-0.5 1788,-0.5"/>
<text text-anchor="start" x="1796" y="-18.5" font-family="Helvetica,sans-Serif" font-size="10.00">seerep_msgs/dataset</text>
<text text-anchor="middle" x="1848.5" y="-7.5" font-family="Helvetica,sans-Serif" font-size="10.00">_indexable.h</text>
</a>
</g>
</g>
<!-- Node2&#45;&gt;Node16 -->
<g id="edge15" class="edge">
<title>Node2&#45;&gt;Node16</title>
<path fill="none" stroke="midnightblue" d="M1739.66,-67.4C1760.06,-57.86 1787.2,-45.16 1809.28,-34.84"/>
<polygon fill="midnightblue" stroke="midnightblue" points="1810.82,-37.98 1818.4,-30.58 1807.86,-31.64 1810.82,-37.98"/>
</g>
<!-- Node17 -->
<g id="node17" class="node">
<title>Node17</title>
<g id="a_node17"><a xlink:title=" ">
<polygon fill="none" stroke="#bfbfbf" points="1927.5,-0.5 1927.5,-30.5 2061.5,-30.5 2061.5,-0.5 1927.5,-0.5"/>
<text text-anchor="start" x="1935.5" y="-18.5" font-family="Helvetica,sans-Serif" font-size="10.00">seerep_msgs/label_with</text>
<text text-anchor="middle" x="1994.5" y="-7.5" font-family="Helvetica,sans-Serif" font-size="10.00">_instance.h</text>
</a>
</g>
</g>
<!-- Node2&#45;&gt;Node17 -->
<g id="edge16" class="edge">
<title>Node2&#45;&gt;Node17</title>
<path fill="none" stroke="midnightblue" d="M1768.21,-68.11C1813.08,-57.88 1875.16,-43.72 1922.94,-32.82"/>
<polygon fill="midnightblue" stroke="midnightblue" points="1923.94,-36.18 1932.91,-30.55 1922.39,-29.36 1923.94,-36.18"/>
</g>
<!-- Node18 -->
<g id="node18" class="node">
<title>Node18</title>
<g id="a_node18"><a xlink:title=" ">
<polygon fill="none" stroke="#bfbfbf" points="2080,-6 2080,-25 2199,-25 2199,-6 2080,-6"/>
<text text-anchor="middle" x="2139.5" y="-13" font-family="Helvetica,sans-Serif" font-size="10.00">seerep_msgs/query.h</text>
</a>
</g>
</g>
<!-- Node2&#45;&gt;Node18 -->
<g id="edge17" class="edge">
<title>Node2&#45;&gt;Node18</title>
<path fill="none" stroke="midnightblue" d="M1768.15,-74.54C1839.74,-65.76 1964.37,-49.55 2070.5,-31 2077.22,-29.82 2084.29,-28.47 2091.24,-27.08"/>
<polygon fill="midnightblue" stroke="midnightblue" points="2092.18,-30.46 2101.27,-25.02 2090.77,-23.6 2092.18,-30.46"/>
</g>
<!-- Node19 -->
<g id="node19" class="node">
<title>Node19</title>
<g id="a_node19"><a xlink:title=" ">
<polygon fill="none" stroke="#bfbfbf" points="2217.5,-6 2217.5,-25 2371.5,-25 2371.5,-6 2217.5,-6"/>
<text text-anchor="middle" x="2294.5" y="-13" font-family="Helvetica,sans-Serif" font-size="10.00">seerep_msgs/query_result.h</text>
</a>
</g>
</g>
<!-- Node2&#45;&gt;Node19 -->
<g id="edge18" class="edge">
<title>Node2&#45;&gt;Node19</title>
<path fill="none" stroke="midnightblue" d="M1768.03,-76.84C1861.4,-69.12 2049.72,-52.4 2208.5,-31 2217.86,-29.74 2227.75,-28.23 2237.38,-26.67"/>
<polygon fill="midnightblue" stroke="midnightblue" points="2237.98,-30.12 2247.27,-25.04 2236.83,-23.22 2237.98,-30.12"/>
</g>
<!-- Node20 -->
<g id="node20" class="node">
<title>Node20</title>
<g id="a_node20"><a xlink:title=" ">
<polygon fill="none" stroke="#bfbfbf" points="2390,-6 2390,-25 2523,-25 2523,-6 2390,-6"/>
<text text-anchor="middle" x="2456.5" y="-13" font-family="Helvetica,sans-Serif" font-size="10.00">seerep_msgs/query_tf.h</text>
</a>
</g>
</g>
<!-- Node2&#45;&gt;Node20 -->
<g id="edge19" class="edge">
<title>Node2&#45;&gt;Node20</title>
<path fill="none" stroke="midnightblue" d="M1768.07,-79.33C1884.94,-74.5 2155.25,-60.87 2380.5,-31 2388.92,-29.88 2397.82,-28.43 2406.45,-26.88"/>
<polygon fill="midnightblue" stroke="midnightblue" points="2407.22,-30.3 2416.41,-25.03 2405.94,-23.42 2407.22,-30.3"/>
</g>
<!-- Node21 -->
<g id="node21" class="node">
<title>Node21</title>
<g id="a_node21"><a xlink:title=" ">
<polygon fill="none" stroke="#bfbfbf" points="2541,-0.5 2541,-30.5 2656,-30.5 2656,-0.5 2541,-0.5"/>
<text text-anchor="start" x="2549" y="-18.5" font-family="Helvetica,sans-Serif" font-size="10.00">seerep_msgs/region</text>
<text text-anchor="middle" x="2598.5" y="-7.5" font-family="Helvetica,sans-Serif" font-size="10.00">_of_interest.h</text>
</a>
</g>
</g>
<!-- Node2&#45;&gt;Node21 -->
<g id="edge20" class="edge">
<title>Node2&#45;&gt;Node21</title>
<path fill="none" stroke="midnightblue" d="M1768.19,-81.01C1901.97,-79.23 2239.85,-70.95 2530.33,-31.17"/>
<polygon fill="midnightblue" stroke="midnightblue" points="2531.22,-34.58 2540.64,-29.74 2530.26,-27.65 2531.22,-34.58"/>
</g>
<!-- Node22 -->
<g id="node22" class="node">
<title>Node22</title>
<g id="a_node22"><a xlink:title=" ">
<polygon fill="none" stroke="#bfbfbf" points="2674.5,-6 2674.5,-25 2874.5,-25 2874.5,-6 2674.5,-6"/>
<text text-anchor="middle" x="2774.5" y="-13" font-family="Helvetica,sans-Serif" font-size="10.00">geometry_msgs/TransformStamped.h</text>
</a>
</g>
</g>
<!-- Node2&#45;&gt;Node22 -->
<g id="edge21" class="edge">
<title>Node2&#45;&gt;Node22</title>
<path fill="none" stroke="midnightblue" d="M1768.09,-80.03C1917.79,-75.91 2326.45,-62.46 2665.5,-31 2678.83,-29.76 2693.04,-28.12 2706.64,-26.38"/>
<polygon fill="midnightblue" stroke="midnightblue" points="2707.44,-29.8 2716.9,-25.03 2706.53,-22.86 2707.44,-29.8"/>
</g>
<!-- Node23 -->
<g id="node23" class="node">
<title>Node23</title>
<g id="a_node23"><a xlink:title=" ">
<polygon fill="none" stroke="#bfbfbf" points="2893,-6 2893,-25 3036,-25 3036,-6 2893,-6"/>
<text text-anchor="middle" x="2964.5" y="-13" font-family="Helvetica,sans-Serif" font-size="10.00">boost/functional/hash.hpp</text>
</a>
</g>
</g>
<!-- Node2&#45;&gt;Node23 -->
<g id="edge22" class="edge">
<title>Node2&#45;&gt;Node23</title>
<path fill="none" stroke="midnightblue" d="M1768.04,-81.75C1939.85,-81.9 2457.42,-78.09 2883.5,-31 2893.09,-29.94 2903.26,-28.43 2913.03,-26.78"/>
<polygon fill="midnightblue" stroke="midnightblue" points="2913.79,-30.2 2923.03,-25.03 2912.58,-23.31 2913.79,-30.2"/>
</g>
<!-- Node24 -->
<g id="node24" class="node">
<title>Node24</title>
<g id="a_node24"><a xlink:title=" ">
<polygon fill="none" stroke="#bfbfbf" points="3054,-6 3054,-25 3179,-25 3179,-6 3054,-6"/>
<text text-anchor="middle" x="3116.5" y="-13" font-family="Helvetica,sans-Serif" font-size="10.00">boost/lexical_cast.hpp</text>
</a>
</g>
</g>
<!-- Node2&#45;&gt;Node24 -->
<g id="edge23" class="edge">
<title>Node2&#45;&gt;Node24</title>
<path fill="none" stroke="midnightblue" d="M1768.19,-80.56C1992.1,-76.78 2792.72,-61.38 3045.5,-31 3053.67,-30.02 3062.3,-28.59 3070.62,-27.01"/>
<polygon fill="midnightblue" stroke="midnightblue" points="3071.44,-30.42 3080.57,-25.03 3070.08,-23.55 3071.44,-30.42"/>
</g>
<!-- Node25 -->
<g id="node25" class="node">
<title>Node25</title>
<g id="a_node25"><a xlink:title=" ">
<polygon fill="none" stroke="#bfbfbf" points="3197,-6 3197,-25 3310,-25 3310,-6 3197,-6"/>
<text text-anchor="middle" x="3253.5" y="-13" font-family="Helvetica,sans-Serif" font-size="10.00">boost/uuid/uuid.hpp</text>
</a>
</g>
</g>
<!-- Node2&#45;&gt;Node25 -->
<g id="edge24" class="edge">
<title>Node2&#45;&gt;Node25</title>
<path fill="none" stroke="midnightblue" d="M1768.27,-80.95C2007.23,-78.48 2906.56,-66.94 3188.5,-31 3195.75,-30.08 3203.39,-28.72 3210.78,-27.21"/>
<polygon fill="midnightblue" stroke="midnightblue" points="3211.61,-30.61 3220.64,-25.07 3210.13,-23.77 3211.61,-30.61"/>
</g>
<!-- Node26 -->
<g id="node26" class="node">
<title>Node26</title>
<g id="a_node26"><a xlink:title=" ">
<polygon fill="none" stroke="#bfbfbf" points="3328.5,-6 3328.5,-25 3498.5,-25 3498.5,-6 3328.5,-6"/>
<text text-anchor="middle" x="3413.5" y="-13" font-family="Helvetica,sans-Serif" font-size="10.00">boost/uuid/uuid_generators.hpp</text>
</a>
</g>
</g>
<!-- Node2&#45;&gt;Node26 -->
<g id="edge25" class="edge">
<title>Node2&#45;&gt;Node26</title>
<path fill="none" stroke="midnightblue" d="M1768.23,-80.62C2020,-76.68 3009.36,-59.68 3319.5,-31 3331.32,-29.91 3343.91,-28.29 3355.91,-26.52"/>
<polygon fill="midnightblue" stroke="midnightblue" points="3356.46,-29.97 3365.82,-25.01 3355.41,-23.05 3356.46,-29.97"/>
</g>
<!-- Node27 -->
<g id="node27" class="node">
<title>Node27</title>
<g id="a_node27"><a xlink:title=" ">
<polygon fill="none" stroke="#bfbfbf" points="3517,-6 3517,-25 3644,-25 3644,-6 3517,-6"/>
<text text-anchor="middle" x="3580.5" y="-13" font-family="Helvetica,sans-Serif" font-size="10.00">boost/uuid/uuid_io.hpp</text>
</a>
</g>
</g>
<!-- Node2&#45;&gt;Node27 -->
<g id="edge26" class="edge">
<title>Node2&#45;&gt;Node27</title>
<path fill="none" stroke="midnightblue" d="M1768.2,-81.18C2037.78,-79.5 3158.98,-70.23 3507.5,-31 3516.08,-30.03 3525.16,-28.58 3533.89,-26.97"/>
<polygon fill="midnightblue" stroke="midnightblue" points="3534.78,-30.36 3543.93,-25.01 3533.44,-23.49 3534.78,-30.36"/>
</g>
</g>
</svg>
