<?xml version="1.0" encoding="UTF-8" standalone="no"?>
<!DOCTYPE svg PUBLIC "-//W3C//DTD SVG 1.1//EN"
 "http://www.w3.org/Graphics/SVG/1.1/DTD/svg11.dtd">
<!-- Generated by graphviz version 2.43.0 (0)
 -->
<!-- Title: seerep&#45;srv/seerep&#45;core&#45;fb/include/seerep&#45;core&#45;fb/core&#45;fb&#45;image.h Pages: 1 -->
<svg width="385pt" height="273pt"
 viewBox="0.00 0.00 385.00 273.00" xmlns="http://www.w3.org/2000/svg" xmlns:xlink="http://www.w3.org/1999/xlink">
<g id="graph0" class="graph" transform="scale(1 1) rotate(0) translate(4 269)">
<title>seerep&#45;srv/seerep&#45;core&#45;fb/include/seerep&#45;core&#45;fb/core&#45;fb&#45;image.h</title>
<!-- Node1 -->
<g id="node1" class="node">
<title>Node1</title>
<g id="a_node1"><a xlink:title=" ">
<polygon fill="#bfbfbf" stroke="black" points="84.5,-223.5 84.5,-264.5 213.5,-264.5 213.5,-223.5 84.5,-223.5"/>
<text text-anchor="start" x="92.5" y="-252.5" font-family="Helvetica,sans-Serif" font-size="10.00">seerep&#45;srv/seerep&#45;core</text>
<text text-anchor="start" x="92.5" y="-241.5" font-family="Helvetica,sans-Serif" font-size="10.00">&#45;fb/include/seerep&#45;core</text>
<text text-anchor="middle" x="149" y="-230.5" font-family="Helvetica,sans-Serif" font-size="10.00">&#45;fb/core&#45;fb&#45;image.h</text>
</a>
</g>
</g>
<!-- Node2 -->
<g id="node2" class="node">
<title>Node2</title>
<g id="a_node2"><a xlink:href="core-fb-image_8cpp.html" target="_top" xlink:title=" ">
<polygon fill="none" stroke="black" points="0,-151 0,-181 140,-181 140,-151 0,-151"/>
<text text-anchor="start" x="8" y="-169" font-family="Helvetica,sans-Serif" font-size="10.00">seerep&#45;srv/seerep&#45;core</text>
<text text-anchor="middle" x="70" y="-158" font-family="Helvetica,sans-Serif" font-size="10.00">&#45;fb/src/core&#45;fb&#45;image.cpp</text>
</a>
</g>
</g>
<!-- Node1&#45;&gt;Node2 -->
<g id="edge1" class="edge">
<title>Node1&#45;&gt;Node2</title>
<path fill="none" stroke="midnightblue" d="M121.27,-216.32C108.99,-204.51 95.03,-191.08 84.79,-181.23"/>
<polygon fill="midnightblue" stroke="midnightblue" points="119.02,-219.02 128.66,-223.43 123.88,-213.97 119.02,-219.02"/>
</g>
<!-- Node3 -->
<g id="node3" class="node">
<title>Node3</title>
<g id="a_node3"><a xlink:href="fb-image-service_8h.html" target="_top" xlink:title=" ">
<polygon fill="none" stroke="black" points="158.5,-145.5 158.5,-186.5 297.5,-186.5 297.5,-145.5 158.5,-145.5"/>
<text text-anchor="start" x="166.5" y="-174.5" font-family="Helvetica,sans-Serif" font-size="10.00">seerep&#45;srv/seerep&#45;server</text>
<text text-anchor="start" x="166.5" y="-163.5" font-family="Helvetica,sans-Serif" font-size="10.00">/include/seerep&#45;server</text>
<text text-anchor="middle" x="228" y="-152.5" font-family="Helvetica,sans-Serif" font-size="10.00">/fb&#45;image&#45;service.h</text>
</a>
</g>
</g>
<!-- Node1&#45;&gt;Node3 -->
<g id="edge2" class="edge">
<title>Node1&#45;&gt;Node3</title>
<path fill="none" stroke="midnightblue" d="M176.55,-216.49C186.81,-206.63 198.24,-195.63 207.72,-186.51"/>
<polygon fill="midnightblue" stroke="midnightblue" points="174.12,-213.97 169.34,-223.43 178.98,-219.02 174.12,-213.97"/>
</g>
<!-- Node4 -->
<g id="node4" class="node">
<title>Node4</title>
<g id="a_node4"><a xlink:href="server_8h.html" target="_top" xlink:title=" ">
<polygon fill="none" stroke="black" points="79.5,-67.5 79.5,-108.5 218.5,-108.5 218.5,-67.5 79.5,-67.5"/>
<text text-anchor="start" x="87.5" y="-96.5" font-family="Helvetica,sans-Serif" font-size="10.00">seerep&#45;srv/seerep&#45;server</text>
<text text-anchor="start" x="87.5" y="-85.5" font-family="Helvetica,sans-Serif" font-size="10.00">/include/seerep&#45;server</text>
<text text-anchor="middle" x="149" y="-74.5" font-family="Helvetica,sans-Serif" font-size="10.00">/server.h</text>
</a>
</g>
</g>
<!-- Node3&#45;&gt;Node4 -->
<g id="edge3" class="edge">
<title>Node3&#45;&gt;Node4</title>
<path fill="none" stroke="midnightblue" d="M200.45,-138.49C190.19,-128.63 178.76,-117.63 169.28,-108.51"/>
<polygon fill="midnightblue" stroke="midnightblue" points="198.02,-141.02 207.66,-145.43 202.88,-135.97 198.02,-141.02"/>
</g>
<!-- Node6 -->
<g id="node6" class="node">
<title>Node6</title>
<g id="a_node6"><a xlink:href="fb-image-service_8cpp.html" target="_top" xlink:title=" ">
<polygon fill="none" stroke="black" points="237,-73 237,-103 377,-103 377,-73 237,-73"/>
<text text-anchor="start" x="245" y="-91" font-family="Helvetica,sans-Serif" font-size="10.00">seerep&#45;srv/seerep&#45;server</text>
<text text-anchor="middle" x="307" y="-80" font-family="Helvetica,sans-Serif" font-size="10.00">/src/fb&#45;image&#45;service.cpp</text>
</a>
</g>
</g>
<!-- Node3&#45;&gt;Node6 -->
<g id="edge5" class="edge">
<title>Node3&#45;&gt;Node6</title>
<path fill="none" stroke="midnightblue" d="M255.73,-138.32C268.01,-126.51 281.97,-113.08 292.21,-103.23"/>
<polygon fill="midnightblue" stroke="midnightblue" points="253.12,-135.97 248.34,-145.43 257.98,-141.02 253.12,-135.97"/>
</g>
<!-- Node5 -->
<g id="node5" class="node">
<title>Node5</title>
<g id="a_node5"><a xlink:href="server_8cpp.html" target="_top" xlink:title=" ">
<polygon fill="none" stroke="black" points="79.5,-0.5 79.5,-30.5 218.5,-30.5 218.5,-0.5 79.5,-0.5"/>
<text text-anchor="start" x="87.5" y="-18.5" font-family="Helvetica,sans-Serif" font-size="10.00">seerep&#45;srv/seerep&#45;server</text>
<text text-anchor="middle" x="149" y="-7.5" font-family="Helvetica,sans-Serif" font-size="10.00">/src/server.cpp</text>
</a>
</g>
</g>
<!-- Node4&#45;&gt;Node5 -->
<g id="edge4" class="edge">
<title>Node4&#45;&gt;Node5</title>
<path fill="none" stroke="midnightblue" d="M149,-57.08C149,-48.01 149,-38.45 149,-30.89"/>
<polygon fill="midnightblue" stroke="midnightblue" points="145.5,-57.36 149,-67.36 152.5,-57.36 145.5,-57.36"/>
</g>
</g>
</svg>
