<?xml version="1.0" encoding="UTF-8" standalone="no"?>
<!DOCTYPE svg PUBLIC "-//W3C//DTD SVG 1.1//EN"
 "http://www.w3.org/Graphics/SVG/1.1/DTD/svg11.dtd">
<!-- Generated by graphviz version 2.43.0 (0)
 -->
<!-- Title: seerep&#45;srv/seerep&#45;core/include/seerep&#45;core/core&#45;dataset.h Pages: 1 -->
<svg width="2854pt" height="363pt"
 viewBox="0.00 0.00 2853.50 363.00" xmlns="http://www.w3.org/2000/svg" xmlns:xlink="http://www.w3.org/1999/xlink">
<g id="graph0" class="graph" transform="scale(1 1) rotate(0) translate(4 359)">
<title>seerep&#45;srv/seerep&#45;core/include/seerep&#45;core/core&#45;dataset.h</title>
<!-- Node1 -->
<g id="node1" class="node">
<title>Node1</title>
<g id="a_node1"><a xlink:title=" ">
<polygon fill="#bfbfbf" stroke="black" points="1502,-313.5 1502,-354.5 1642,-354.5 1642,-313.5 1502,-313.5"/>
<text text-anchor="start" x="1510" y="-342.5" font-family="Helvetica,sans-Serif" font-size="10.00">seerep&#45;srv/seerep&#45;core</text>
<text text-anchor="start" x="1510" y="-331.5" font-family="Helvetica,sans-Serif" font-size="10.00">/include/seerep&#45;core/core</text>
<text text-anchor="middle" x="1572" y="-320.5" font-family="Helvetica,sans-Serif" font-size="10.00">&#45;dataset.h</text>
</a>
</g>
</g>
<!-- Node2 -->
<g id="node2" class="node">
<title>Node2</title>
<g id="a_node2"><a xlink:title=" ">
<polygon fill="none" stroke="#bfbfbf" points="0,-257.5 0,-276.5 50,-276.5 50,-257.5 0,-257.5"/>
<text text-anchor="middle" x="25" y="-264.5" font-family="Helvetica,sans-Serif" font-size="10.00">cstdint</text>
</a>
</g>
</g>
<!-- Node1&#45;&gt;Node2 -->
<g id="edge1" class="edge">
<title>Node1&#45;&gt;Node2</title>
<path fill="none" stroke="midnightblue" d="M1501.79,-332.16C1243.63,-328.8 347.41,-314.62 64,-277 62.72,-276.83 61.42,-276.64 60.11,-276.43"/>
<polygon fill="midnightblue" stroke="midnightblue" points="60.52,-272.94 50.05,-274.52 59.22,-279.82 60.52,-272.94"/>
</g>
<!-- Node3 -->
<g id="node3" class="node">
<title>Node3</title>
<g id="a_node3"><a xlink:title=" ">
<polygon fill="none" stroke="#bfbfbf" points="1554.5,-140 1554.5,-159 1619.5,-159 1619.5,-140 1554.5,-140"/>
<text text-anchor="middle" x="1587" y="-147" font-family="Helvetica,sans-Serif" font-size="10.00">functional</text>
</a>
</g>
</g>
<!-- Node1&#45;&gt;Node3 -->
<g id="edge2" class="edge">
<title>Node1&#45;&gt;Node3</title>
<path fill="none" stroke="midnightblue" d="M1573.61,-313.47C1576.51,-278.11 1582.61,-203.94 1585.46,-169.2"/>
<polygon fill="midnightblue" stroke="midnightblue" points="1588.97,-169.3 1586.3,-159.04 1581.99,-168.72 1588.97,-169.3"/>
</g>
<!-- Node4 -->
<g id="node4" class="node">
<title>Node4</title>
<g id="a_node4"><a xlink:title=" ">
<polygon fill="none" stroke="#bfbfbf" points="1682,-6 1682,-25 1738,-25 1738,-6 1682,-6"/>
<text text-anchor="middle" x="1710" y="-13" font-family="Helvetica,sans-Serif" font-size="10.00">optional</text>
</a>
</g>
</g>
<!-- Node1&#45;&gt;Node4 -->
<g id="edge3" class="edge">
<title>Node1&#45;&gt;Node4</title>
<path fill="none" stroke="midnightblue" d="M1555.91,-313.36C1548.23,-303.08 1539.54,-289.97 1534,-277 1509,-218.46 1493.63,-188.81 1526,-134 1541.24,-108.2 1557.72,-114.09 1583,-98 1620,-74.44 1662.93,-46.84 1688.2,-30.55"/>
<polygon fill="midnightblue" stroke="midnightblue" points="1690.16,-33.46 1696.67,-25.1 1686.37,-27.57 1690.16,-33.46"/>
</g>
<!-- Node5 -->
<g id="node5" class="node">
<title>Node5</title>
<g id="a_node5"><a xlink:title=" ">
<polygon fill="none" stroke="#bfbfbf" points="256,-6 256,-25 372,-25 372,-6 256,-6"/>
<text text-anchor="middle" x="314" y="-13" font-family="Helvetica,sans-Serif" font-size="10.00">seerep&#45;msgs/aabb.h</text>
</a>
</g>
</g>
<!-- Node1&#45;&gt;Node5 -->
<g id="edge4" class="edge">
<title>Node1&#45;&gt;Node5</title>
<path fill="none" stroke="midnightblue" d="M1501.95,-331.04C1206.58,-322.35 78,-284.37 78,-212 78,-212 78,-212 78,-148.5 78,-70.98 176.19,-38.54 245.9,-25.29"/>
<polygon fill="midnightblue" stroke="midnightblue" points="246.75,-28.69 255.97,-23.47 245.5,-21.8 246.75,-28.69"/>
</g>
<!-- Node6 -->
<g id="node6" class="node">
<title>Node6</title>
<g id="a_node6"><a xlink:title=" ">
<polygon fill="none" stroke="#bfbfbf" points="1714.5,-140 1714.5,-159 1849.5,-159 1849.5,-140 1714.5,-140"/>
<text text-anchor="middle" x="1782" y="-147" font-family="Helvetica,sans-Serif" font-size="10.00">seerep&#45;msgs/datatype.h</text>
</a>
</g>
</g>
<!-- Node1&#45;&gt;Node6 -->
<g id="edge5" class="edge">
<title>Node1&#45;&gt;Node6</title>
<path fill="none" stroke="midnightblue" d="M1594.47,-313.47C1636.58,-276.88 1726.5,-198.73 1764.49,-165.72"/>
<polygon fill="midnightblue" stroke="midnightblue" points="1766.92,-168.24 1772.17,-159.04 1762.33,-162.96 1766.92,-168.24"/>
</g>
<!-- Node7 -->
<g id="node7" class="node">
<title>Node7</title>
<g id="a_node7"><a xlink:title=" ">
<polygon fill="none" stroke="#bfbfbf" points="2694.5,-257.5 2694.5,-276.5 2845.5,-276.5 2845.5,-257.5 2694.5,-257.5"/>
<text text-anchor="middle" x="2770" y="-264.5" font-family="Helvetica,sans-Serif" font-size="10.00">seerep&#45;msgs/query&#45;result.h</text>
</a>
</g>
</g>
<!-- Node1&#45;&gt;Node7 -->
<g id="edge6" class="edge">
<title>Node1&#45;&gt;Node7</title>
<path fill="none" stroke="midnightblue" d="M1642.08,-330.66C1817.24,-324.53 2288.19,-306.47 2680,-277 2681.32,-276.9 2682.65,-276.8 2683.99,-276.69"/>
<polygon fill="midnightblue" stroke="midnightblue" points="2684.72,-280.14 2694.4,-275.83 2684.15,-273.17 2684.72,-280.14"/>
</g>
<!-- Node8 -->
<g id="node8" class="node">
<title>Node8</title>
<g id="a_node8"><a xlink:title=" ">
<polygon fill="none" stroke="#bfbfbf" points="106,-140 106,-159 224,-159 224,-140 106,-140"/>
<text text-anchor="middle" x="165" y="-147" font-family="Helvetica,sans-Serif" font-size="10.00">seerep&#45;msgs/query.h</text>
</a>
</g>
</g>
<!-- Node1&#45;&gt;Node8 -->
<g id="edge7" class="edge">
<title>Node1&#45;&gt;Node8</title>
<path fill="none" stroke="midnightblue" d="M1501.99,-326.34C1302.75,-306.94 715.81,-246.61 233,-165 226.28,-163.86 219.22,-162.53 212.3,-161.13"/>
<polygon fill="midnightblue" stroke="midnightblue" points="212.8,-157.66 202.3,-159.05 211.38,-164.51 212.8,-157.66"/>
</g>
<!-- Node9 -->
<g id="node9" class="node">
<title>Node9</title>
<g id="a_node9"><a xlink:href="hdf5-core-datatype-interface_8h.html" target="_top" xlink:title=" ">
<polygon fill="none" stroke="black" points="1314.5,-134.5 1314.5,-164.5 1459.5,-164.5 1459.5,-134.5 1314.5,-134.5"/>
<text text-anchor="start" x="1322.5" y="-152.5" font-family="Helvetica,sans-Serif" font-size="10.00">seerep&#45;hdf5&#45;core/hdf5</text>
<text text-anchor="middle" x="1387" y="-141.5" font-family="Helvetica,sans-Serif" font-size="10.00">&#45;core&#45;datatype&#45;interface.h</text>
</a>
</g>
</g>
<!-- Node1&#45;&gt;Node9 -->
<g id="edge8" class="edge">
<title>Node1&#45;&gt;Node9</title>
<path fill="none" stroke="midnightblue" d="M1528.21,-313.37C1510.19,-303.99 1489.86,-291.59 1474,-277 1440.81,-246.46 1413.48,-201.02 1398.77,-173.73"/>
<polygon fill="midnightblue" stroke="midnightblue" points="1401.69,-171.77 1393.93,-164.55 1395.5,-175.03 1401.69,-171.77"/>
</g>
<!-- Node11 -->
<g id="node11" class="node">
<title>Node11</title>
<g id="a_node11"><a xlink:title=" ">
<polygon fill="none" stroke="#bfbfbf" points="1715.5,-73 1715.5,-92 1828.5,-92 1828.5,-73 1715.5,-73"/>
<text text-anchor="middle" x="1772" y="-80" font-family="Helvetica,sans-Serif" font-size="10.00">boost/uuid/uuid.hpp</text>
</a>
</g>
</g>
<!-- Node1&#45;&gt;Node11 -->
<g id="edge75" class="edge">
<title>Node1&#45;&gt;Node11</title>
<path fill="none" stroke="midnightblue" d="M1560.88,-313.22C1540.65,-274.28 1503.63,-186.89 1546,-134 1565.69,-109.42 1645.94,-96.01 1705.24,-89.31"/>
<polygon fill="midnightblue" stroke="midnightblue" points="1705.75,-92.77 1715.31,-88.21 1704.99,-85.81 1705.75,-92.77"/>
</g>
<!-- Node12 -->
<g id="node12" class="node">
<title>Node12</title>
<g id="a_node12"><a xlink:href="core-instances_8h.html" target="_top" xlink:title=" ">
<polygon fill="none" stroke="black" points="1928.5,-257.5 1928.5,-276.5 2025.5,-276.5 2025.5,-257.5 1928.5,-257.5"/>
<text text-anchor="middle" x="1977" y="-264.5" font-family="Helvetica,sans-Serif" font-size="10.00">core&#45;instances.h</text>
</a>
</g>
</g>
<!-- Node1&#45;&gt;Node12 -->
<g id="edge12" class="edge">
<title>Node1&#45;&gt;Node12</title>
<path fill="none" stroke="midnightblue" d="M1642.08,-321.75C1720.25,-309.21 1845.29,-289.14 1918.45,-277.4"/>
<polygon fill="midnightblue" stroke="midnightblue" points="1919.09,-280.84 1928.41,-275.8 1917.98,-273.93 1919.09,-280.84"/>
</g>
<!-- Node24 -->
<g id="node24" class="node">
<title>Node24</title>
<g id="a_node24"><a xlink:title=" ">
<polygon fill="none" stroke="#bfbfbf" points="2389.5,-73 2389.5,-92 2532.5,-92 2532.5,-73 2389.5,-73"/>
<text text-anchor="middle" x="2461" y="-80" font-family="Helvetica,sans-Serif" font-size="10.00">boost/functional/hash.hpp</text>
</a>
</g>
</g>
<!-- Node1&#45;&gt;Node24 -->
<g id="edge73" class="edge">
<title>Node1&#45;&gt;Node24</title>
<path fill="none" stroke="midnightblue" d="M1642.05,-330.21C1798.78,-323.54 2173.6,-305.11 2297,-277 2393.7,-254.97 2455.12,-257.84 2490,-165 2498.38,-142.7 2485.24,-116.74 2474.03,-100.22"/>
<polygon fill="midnightblue" stroke="midnightblue" points="2476.85,-98.15 2468.15,-92.1 2471.18,-102.25 2476.85,-98.15"/>
</g>
<!-- Node25 -->
<g id="node25" class="node">
<title>Node25</title>
<g id="a_node25"><a xlink:title=" ">
<polygon fill="none" stroke="#bfbfbf" points="2557.5,-73 2557.5,-92 2682.5,-92 2682.5,-73 2557.5,-73"/>
<text text-anchor="middle" x="2620" y="-80" font-family="Helvetica,sans-Serif" font-size="10.00">boost/lexical_cast.hpp</text>
</a>
</g>
</g>
<!-- Node1&#45;&gt;Node25 -->
<g id="edge74" class="edge">
<title>Node1&#45;&gt;Node25</title>
<path fill="none" stroke="midnightblue" d="M1642.11,-331.79C1808.49,-328.3 2223.15,-315.87 2356,-277 2454.15,-248.28 2479.84,-232.12 2557,-165 2578.86,-145.99 2598.28,-118.4 2609.6,-100.7"/>
<polygon fill="midnightblue" stroke="midnightblue" points="2612.7,-102.35 2615.01,-92.01 2606.76,-98.65 2612.7,-102.35"/>
</g>
<!-- Node26 -->
<g id="node26" class="node">
<title>Node26</title>
<g id="a_node26"><a xlink:title=" ">
<polygon fill="none" stroke="#bfbfbf" points="1847,-73 1847,-92 2017,-92 2017,-73 1847,-73"/>
<text text-anchor="middle" x="1932" y="-80" font-family="Helvetica,sans-Serif" font-size="10.00">boost/uuid/uuid_generators.hpp</text>
</a>
</g>
</g>
<!-- Node1&#45;&gt;Node26 -->
<g id="edge76" class="edge">
<title>Node1&#45;&gt;Node26</title>
<path fill="none" stroke="midnightblue" d="M1579.4,-313.23C1595.63,-272.7 1638.4,-180.15 1706,-134 1719.94,-124.49 1812.81,-105.73 1875.08,-93.94"/>
<polygon fill="midnightblue" stroke="midnightblue" points="1876,-97.33 1885.18,-92.04 1874.7,-90.45 1876,-97.33"/>
</g>
<!-- Node27 -->
<g id="node27" class="node">
<title>Node27</title>
<g id="a_node27"><a xlink:title=" ">
<polygon fill="none" stroke="#bfbfbf" points="2230.5,-73 2230.5,-92 2357.5,-92 2357.5,-73 2230.5,-73"/>
<text text-anchor="middle" x="2294" y="-80" font-family="Helvetica,sans-Serif" font-size="10.00">boost/uuid/uuid_io.hpp</text>
</a>
</g>
</g>
<!-- Node1&#45;&gt;Node27 -->
<g id="edge77" class="edge">
<title>Node1&#45;&gt;Node27</title>
<path fill="none" stroke="midnightblue" d="M1642.34,-332.76C1840.1,-330.28 2391.9,-310.26 2474,-165 2480.78,-153.01 2482.32,-144.98 2474,-134 2465.96,-123.39 2394.3,-105.64 2343.86,-94.26"/>
<polygon fill="midnightblue" stroke="midnightblue" points="2344.6,-90.84 2334.08,-92.07 2343.08,-97.67 2344.6,-90.84"/>
</g>
<!-- Node28 -->
<g id="node28" class="node">
<title>Node28</title>
<g id="a_node28"><a xlink:href="core-tf_8h.html" target="_top" xlink:title=" ">
<polygon fill="none" stroke="black" points="899.5,-201.5 899.5,-220.5 956.5,-220.5 956.5,-201.5 899.5,-201.5"/>
<text text-anchor="middle" x="928" y="-208.5" font-family="Helvetica,sans-Serif" font-size="10.00">core&#45;tf.h</text>
</a>
</g>
</g>
<!-- Node1&#45;&gt;Node28 -->
<g id="edge53" class="edge">
<title>Node1&#45;&gt;Node28</title>
<path fill="none" stroke="midnightblue" d="M1501.85,-319.82C1366.19,-294.33 1071.96,-239.05 966.55,-219.24"/>
<polygon fill="midnightblue" stroke="midnightblue" points="967.13,-215.79 956.66,-217.38 965.84,-222.67 967.13,-215.79"/>
</g>
<!-- Node9&#45;&gt;Node4 -->
<g id="edge11" class="edge">
<title>Node9&#45;&gt;Node4</title>
<path fill="none" stroke="midnightblue" d="M1443.21,-134.44C1474.02,-125.78 1512.45,-113.38 1545,-98 1567.96,-87.15 1570.6,-78.96 1593,-67 1608.61,-58.67 1650.37,-41.04 1679.52,-28.98"/>
<polygon fill="midnightblue" stroke="midnightblue" points="1680.96,-32.17 1688.87,-25.12 1678.29,-25.7 1680.96,-32.17"/>
</g>
<!-- Node10 -->
<g id="node10" class="node">
<title>Node10</title>
<g id="a_node10"><a xlink:title=" ">
<polygon fill="none" stroke="#bfbfbf" points="1051.5,-0.5 1051.5,-30.5 1170.5,-30.5 1170.5,-0.5 1051.5,-0.5"/>
<text text-anchor="start" x="1059.5" y="-18.5" font-family="Helvetica,sans-Serif" font-size="10.00">seerep&#45;msgs/dataset</text>
<text text-anchor="middle" x="1111" y="-7.5" font-family="Helvetica,sans-Serif" font-size="10.00">&#45;indexable.h</text>
</a>
</g>
</g>
<!-- Node9&#45;&gt;Node10 -->
<g id="edge9" class="edge">
<title>Node9&#45;&gt;Node10</title>
<path fill="none" stroke="midnightblue" d="M1339.17,-134.49C1313.07,-125.84 1280.74,-113.44 1254,-98 1235.12,-87.1 1234.39,-78.69 1216,-67 1196.78,-54.78 1174.16,-43.54 1154.85,-34.79"/>
<polygon fill="midnightblue" stroke="midnightblue" points="1156.22,-31.57 1145.66,-30.69 1153.37,-37.96 1156.22,-31.57"/>
</g>
<!-- Node9&#45;&gt;Node11 -->
<g id="edge10" class="edge">
<title>Node9&#45;&gt;Node11</title>
<path fill="none" stroke="midnightblue" d="M1459.87,-136.2C1532.65,-123.91 1643.23,-105.24 1711.37,-93.74"/>
<polygon fill="midnightblue" stroke="midnightblue" points="1712.24,-97.14 1721.52,-92.02 1711.07,-90.24 1712.24,-97.14"/>
</g>
<!-- Node12&#45;&gt;Node3 -->
<g id="edge13" class="edge">
<title>Node12&#45;&gt;Node3</title>
<path fill="none" stroke="midnightblue" d="M1928.44,-262.98C1873.92,-258.41 1783.47,-247.3 1710,-221 1671.33,-207.16 1630.82,-181.41 1607.29,-165.16"/>
<polygon fill="midnightblue" stroke="midnightblue" points="1609.06,-162.12 1598.87,-159.24 1605.04,-167.85 1609.06,-162.12"/>
</g>
<!-- Node12&#45;&gt;Node4 -->
<g id="edge14" class="edge">
<title>Node12&#45;&gt;Node4</title>
<path fill="none" stroke="midnightblue" d="M1928.29,-264.26C1864.25,-259 1754.26,-239.03 1706,-165 1679.78,-124.78 1693.81,-64.54 1703.41,-34.66"/>
<polygon fill="midnightblue" stroke="midnightblue" points="1706.75,-35.71 1706.67,-25.11 1700.13,-33.45 1706.75,-35.71"/>
</g>
<!-- Node12&#45;&gt;Node6 -->
<g id="edge45" class="edge">
<title>Node12&#45;&gt;Node6</title>
<path fill="none" stroke="midnightblue" d="M1947.91,-257.37C1924.32,-249.7 1890.73,-237.19 1864,-221 1838.56,-205.6 1813.21,-182.26 1797.58,-166.71"/>
<polygon fill="midnightblue" stroke="midnightblue" points="1799.85,-164.04 1790.34,-159.37 1794.87,-168.95 1799.85,-164.04"/>
</g>
<!-- Node12&#45;&gt;Node11 -->
<g id="edge50" class="edge">
<title>Node12&#45;&gt;Node11</title>
<path fill="none" stroke="midnightblue" d="M1970.87,-257.44C1954.58,-235.1 1908.09,-173.99 1859,-134 1840.72,-119.11 1817.53,-105.88 1799.68,-96.7"/>
<polygon fill="midnightblue" stroke="midnightblue" points="1800.9,-93.39 1790.39,-92.03 1797.75,-99.65 1800.9,-93.39"/>
</g>
<!-- Node13 -->
<g id="node13" class="node">
<title>Node13</title>
<g id="a_node13"><a xlink:href="core-instance_8h.html" target="_top" xlink:title=" ">
<polygon fill="none" stroke="black" points="2037,-201.5 2037,-220.5 2129,-220.5 2129,-201.5 2037,-201.5"/>
<text text-anchor="middle" x="2083" y="-208.5" font-family="Helvetica,sans-Serif" font-size="10.00">core&#45;instance.h</text>
</a>
</g>
</g>
<!-- Node12&#45;&gt;Node13 -->
<g id="edge15" class="edge">
<title>Node12&#45;&gt;Node13</title>
<path fill="none" stroke="midnightblue" d="M1994.03,-257.32C2011.03,-248.66 2037.38,-235.24 2056.99,-225.25"/>
<polygon fill="midnightblue" stroke="midnightblue" points="2058.69,-228.31 2066.01,-220.65 2055.51,-222.08 2058.69,-228.31"/>
</g>
<!-- Node14 -->
<g id="node14" class="node">
<title>Node14</title>
<g id="a_node14"><a xlink:title=" ">
<polygon fill="none" stroke="#bfbfbf" points="2316.5,-134.5 2316.5,-164.5 2447.5,-164.5 2447.5,-134.5 2316.5,-134.5"/>
<text text-anchor="start" x="2324.5" y="-152.5" font-family="Helvetica,sans-Serif" font-size="10.00">seerep&#45;msgs/label&#45;with</text>
<text text-anchor="middle" x="2382" y="-141.5" font-family="Helvetica,sans-Serif" font-size="10.00">&#45;instance.h</text>
</a>
</g>
</g>
<!-- Node12&#45;&gt;Node14 -->
<g id="edge46" class="edge">
<title>Node12&#45;&gt;Node14</title>
<path fill="none" stroke="midnightblue" d="M2007.89,-257.45C2040.31,-248.46 2092.77,-233.85 2138,-221 2201.69,-202.9 2274.61,-181.78 2324.02,-167.41"/>
<polygon fill="midnightblue" stroke="midnightblue" points="2325.26,-170.69 2333.89,-164.54 2323.31,-163.97 2325.26,-170.69"/>
</g>
<!-- Node15 -->
<g id="node15" class="node">
<title>Node15</title>
<g id="a_node15"><a xlink:href="hdf5-core-instance_8h.html" target="_top" xlink:title=" ">
<polygon fill="none" stroke="black" points="2020.5,-134.5 2020.5,-164.5 2145.5,-164.5 2145.5,-134.5 2020.5,-134.5"/>
<text text-anchor="start" x="2028.5" y="-152.5" font-family="Helvetica,sans-Serif" font-size="10.00">seerep&#45;hdf5&#45;core/hdf5</text>
<text text-anchor="middle" x="2083" y="-141.5" font-family="Helvetica,sans-Serif" font-size="10.00">&#45;core&#45;instance.h</text>
</a>
</g>
</g>
<!-- Node12&#45;&gt;Node15 -->
<g id="edge47" class="edge">
<title>Node12&#45;&gt;Node15</title>
<path fill="none" stroke="midnightblue" d="M1983.18,-257.23C1992.37,-244.39 2010.46,-219.95 2028,-201 2037.45,-190.79 2048.64,-180.27 2058.45,-171.49"/>
<polygon fill="midnightblue" stroke="midnightblue" points="2060.78,-174.1 2065.97,-164.86 2056.15,-168.85 2060.78,-174.1"/>
</g>
<!-- Node12&#45;&gt;Node24 -->
<g id="edge48" class="edge">
<title>Node12&#45;&gt;Node24</title>
<path fill="none" stroke="midnightblue" d="M2025.56,-263.2C2118.1,-257.44 2316.24,-242.93 2381,-221 2426.7,-205.53 2450.26,-207 2474,-165 2485.09,-145.37 2477.64,-119.08 2470.25,-101.74"/>
<polygon fill="midnightblue" stroke="midnightblue" points="2473.21,-99.82 2465.82,-92.23 2466.87,-102.77 2473.21,-99.82"/>
</g>
<!-- Node12&#45;&gt;Node25 -->
<g id="edge49" class="edge">
<title>Node12&#45;&gt;Node25</title>
<path fill="none" stroke="midnightblue" d="M2025.81,-264.2C2126.11,-259.99 2351.99,-247.78 2424,-221 2499.1,-193.07 2572.24,-129.24 2603.78,-99.41"/>
<polygon fill="midnightblue" stroke="midnightblue" points="2606.42,-101.73 2611.21,-92.28 2601.58,-96.67 2606.42,-101.73"/>
</g>
<!-- Node12&#45;&gt;Node26 -->
<g id="edge51" class="edge">
<title>Node12&#45;&gt;Node26</title>
<path fill="none" stroke="midnightblue" d="M1974.83,-257.2C1967.89,-229.07 1946.17,-140.96 1936.6,-102.16"/>
<polygon fill="midnightblue" stroke="midnightblue" points="1939.94,-101.09 1934.15,-92.21 1933.14,-102.76 1939.94,-101.09"/>
</g>
<!-- Node12&#45;&gt;Node27 -->
<g id="edge52" class="edge">
<title>Node12&#45;&gt;Node27</title>
<path fill="none" stroke="midnightblue" d="M2025.65,-263.27C2136.6,-255.94 2402.94,-231.62 2457,-165 2465.68,-154.3 2465.17,-145.09 2457,-134 2444.33,-116.82 2394.27,-102.97 2352.93,-94.16"/>
<polygon fill="midnightblue" stroke="midnightblue" points="2353.41,-90.68 2342.91,-92.08 2351.99,-97.54 2353.41,-90.68"/>
</g>
<!-- Node13&#45;&gt;Node3 -->
<g id="edge16" class="edge">
<title>Node13&#45;&gt;Node3</title>
<path fill="none" stroke="midnightblue" d="M2036.86,-204.53C1965.79,-196.09 1825.27,-179.38 1706,-165 1680.65,-161.94 1652.26,-158.48 1629.57,-155.71"/>
<polygon fill="midnightblue" stroke="midnightblue" points="1629.93,-152.23 1619.58,-154.49 1629.08,-159.18 1629.93,-152.23"/>
</g>
<!-- Node13&#45;&gt;Node4 -->
<g id="edge17" class="edge">
<title>Node13&#45;&gt;Node4</title>
<path fill="none" stroke="midnightblue" d="M2108.5,-201.47C2124.99,-194.48 2145.14,-182.79 2155,-165 2177.81,-123.85 2154.39,-92.71 2115,-67 2055.06,-27.87 1837.48,-19.05 1748.41,-17.07"/>
<polygon fill="midnightblue" stroke="midnightblue" points="1748.27,-13.57 1738.2,-16.86 1748.13,-20.57 1748.27,-13.57"/>
</g>
<!-- Node13&#45;&gt;Node6 -->
<g id="edge18" class="edge">
<title>Node13&#45;&gt;Node6</title>
<path fill="none" stroke="midnightblue" d="M2039.87,-201.48C1985.89,-190.8 1893.46,-172.53 1835.16,-161.01"/>
<polygon fill="midnightblue" stroke="midnightblue" points="1835.53,-157.51 1825.05,-159.01 1834.18,-164.38 1835.53,-157.51"/>
</g>
<!-- Node13&#45;&gt;Node11 -->
<g id="edge42" class="edge">
<title>Node13&#45;&gt;Node11</title>
<path fill="none" stroke="midnightblue" d="M2061.62,-201.31C2007.56,-179.32 1865.25,-121.43 1802.48,-95.9"/>
<polygon fill="midnightblue" stroke="midnightblue" points="1803.7,-92.61 1793.11,-92.09 1801.06,-99.1 1803.7,-92.61"/>
</g>
<!-- Node13&#45;&gt;Node14 -->
<g id="edge19" class="edge">
<title>Node13&#45;&gt;Node14</title>
<path fill="none" stroke="midnightblue" d="M2125.84,-201.48C2172.83,-192.12 2249.17,-176.93 2306.3,-165.56"/>
<polygon fill="midnightblue" stroke="midnightblue" points="2307.25,-168.94 2316.38,-163.56 2305.89,-162.08 2307.25,-168.94"/>
</g>
<!-- Node13&#45;&gt;Node15 -->
<g id="edge20" class="edge">
<title>Node13&#45;&gt;Node15</title>
<path fill="none" stroke="midnightblue" d="M2083,-201.48C2083,-194.47 2083,-184.19 2083,-174.7"/>
<polygon fill="midnightblue" stroke="midnightblue" points="2086.5,-174.52 2083,-164.52 2079.5,-174.52 2086.5,-174.52"/>
</g>
<!-- Node13&#45;&gt;Node24 -->
<g id="edge40" class="edge">
<title>Node13&#45;&gt;Node24</title>
<path fill="none" stroke="midnightblue" d="M2117.79,-201.47C2146.89,-193.73 2189.11,-181.08 2224,-165 2247.75,-154.05 2250.01,-144.41 2274,-134 2316.34,-115.63 2367.02,-102.44 2404.94,-94.16"/>
<polygon fill="midnightblue" stroke="midnightblue" points="2405.73,-97.57 2414.78,-92.06 2404.27,-90.72 2405.73,-97.57"/>
</g>
<!-- Node13&#45;&gt;Node25 -->
<g id="edge41" class="edge">
<title>Node13&#45;&gt;Node25</title>
<path fill="none" stroke="midnightblue" d="M2124.25,-201.48C2169.36,-191.85 2238.49,-176.07 2263,-165 2285.13,-155.01 2285.43,-142.96 2308,-134 2405.8,-95.17 2438.26,-115.62 2542,-98 2549.64,-96.7 2557.69,-95.28 2565.59,-93.84"/>
<polygon fill="midnightblue" stroke="midnightblue" points="2566.29,-97.27 2575.49,-92.02 2565.03,-90.38 2566.29,-97.27"/>
</g>
<!-- Node13&#45;&gt;Node26 -->
<g id="edge43" class="edge">
<title>Node13&#45;&gt;Node26</title>
<path fill="none" stroke="midnightblue" d="M2067.35,-201.48C2052.49,-193.07 2029.82,-179.4 2012,-165 1986.82,-144.65 1961.22,-117.1 1945.97,-99.82"/>
<polygon fill="midnightblue" stroke="midnightblue" points="1948.58,-97.48 1939.37,-92.24 1943.3,-102.08 1948.58,-97.48"/>
</g>
<!-- Node13&#45;&gt;Node27 -->
<g id="edge44" class="edge">
<title>Node13&#45;&gt;Node27</title>
<path fill="none" stroke="midnightblue" d="M2107.6,-201.46C2129.43,-193.42 2161.82,-180.34 2188,-165 2221.64,-145.28 2256.78,-116.34 2276.96,-98.78"/>
<polygon fill="midnightblue" stroke="midnightblue" points="2279.46,-101.25 2284.65,-92.01 2274.83,-95.99 2279.46,-101.25"/>
</g>
<!-- Node15&#45;&gt;Node4 -->
<g id="edge39" class="edge">
<title>Node15&#45;&gt;Node4</title>
<path fill="none" stroke="midnightblue" d="M2091.63,-134.24C2101.23,-116.32 2113.39,-85.66 2097,-67 2074.19,-41.02 1841.69,-24.36 1748.41,-18.68"/>
<polygon fill="midnightblue" stroke="midnightblue" points="1748.46,-15.18 1738.27,-18.07 1748.04,-22.16 1748.46,-15.18"/>
</g>
<!-- Node15&#45;&gt;Node11 -->
<g id="edge35" class="edge">
<title>Node15&#45;&gt;Node11</title>
<path fill="none" stroke="midnightblue" d="M2020.27,-135.8C1970.74,-125.72 1899.91,-111.18 1838,-98 1832.27,-96.78 1826.26,-95.48 1820.3,-94.19"/>
<polygon fill="midnightblue" stroke="midnightblue" points="1820.89,-90.73 1810.37,-92.02 1819.39,-97.57 1820.89,-90.73"/>
</g>
<!-- Node16 -->
<g id="node16" class="node">
<title>Node16</title>
<g id="a_node16"><a xlink:title=" ">
<polygon fill="none" stroke="#bfbfbf" points="1422,-6 1422,-25 1532,-25 1532,-6 1422,-6"/>
<text text-anchor="middle" x="1477" y="-13" font-family="Helvetica,sans-Serif" font-size="10.00">highfive/H5File.hpp</text>
</a>
</g>
</g>
<!-- Node15&#45;&gt;Node16 -->
<g id="edge21" class="edge">
<title>Node15&#45;&gt;Node16</title>
<path fill="none" stroke="midnightblue" d="M2077.65,-134.32C2069.64,-115.29 2052.56,-82.12 2026,-67 1932.26,-13.66 1648.69,-46.78 1542,-31 1535.16,-29.99 1527.97,-28.66 1520.97,-27.21"/>
<polygon fill="midnightblue" stroke="midnightblue" points="1521.41,-23.73 1510.9,-25.04 1519.93,-30.57 1521.41,-23.73"/>
</g>
<!-- Node17 -->
<g id="node17" class="node">
<title>Node17</title>
<g id="a_node17"><a xlink:href="hdf5-core-general_8h.html" target="_top" xlink:title=" ">
<polygon fill="none" stroke="black" points="1263.5,-67.5 1263.5,-97.5 1388.5,-97.5 1388.5,-67.5 1263.5,-67.5"/>
<text text-anchor="start" x="1271.5" y="-85.5" font-family="Helvetica,sans-Serif" font-size="10.00">seerep&#45;hdf5&#45;core/hdf5</text>
<text text-anchor="middle" x="1326" y="-74.5" font-family="Helvetica,sans-Serif" font-size="10.00">&#45;core&#45;general.h</text>
</a>
</g>
</g>
<!-- Node15&#45;&gt;Node17 -->
<g id="edge22" class="edge">
<title>Node15&#45;&gt;Node17</title>
<path fill="none" stroke="midnightblue" d="M2020.41,-143.13C1881.34,-131.18 1547.28,-102.5 1399.01,-89.77"/>
<polygon fill="midnightblue" stroke="midnightblue" points="1398.93,-86.25 1388.67,-88.88 1398.33,-93.22 1398.93,-86.25"/>
</g>
<!-- Node18 -->
<g id="node18" class="node">
<title>Node18</title>
<g id="a_node18"><a xlink:title=" ">
<polygon fill="none" stroke="#bfbfbf" points="1550.5,-6 1550.5,-25 1663.5,-25 1663.5,-6 1550.5,-6"/>
<text text-anchor="middle" x="1607" y="-13" font-family="Helvetica,sans-Serif" font-size="10.00">boost/geometry.hpp</text>
</a>
</g>
</g>
<!-- Node15&#45;&gt;Node18 -->
<g id="edge38" class="edge">
<title>Node15&#45;&gt;Node18</title>
<path fill="none" stroke="midnightblue" d="M2083.31,-134.43C2082.87,-115.83 2079.04,-83.5 2059,-67 1992.49,-12.25 1758.12,-44.27 1673,-31 1666.22,-29.94 1659.1,-28.61 1652.14,-27.19"/>
<polygon fill="midnightblue" stroke="midnightblue" points="1652.64,-23.72 1642.13,-25.06 1651.18,-30.56 1652.64,-23.72"/>
</g>
<!-- Node23 -->
<g id="node23" class="node">
<title>Node23</title>
<g id="a_node23"><a xlink:title=" ">
<polygon fill="none" stroke="#bfbfbf" points="1007,-73 1007,-92 1207,-92 1207,-73 1007,-73"/>
<text text-anchor="middle" x="1107" y="-80" font-family="Helvetica,sans-Serif" font-size="10.00">geometry_msgs/TransformStamped.h</text>
</a>
</g>
</g>
<!-- Node15&#45;&gt;Node23 -->
<g id="edge32" class="edge">
<title>Node15&#45;&gt;Node23</title>
<path fill="none" stroke="midnightblue" d="M2020.25,-144.35C1975.34,-141.4 1913.45,-137.38 1859,-134 1590.15,-117.3 1522.53,-119.22 1254,-98 1235.69,-96.55 1216.12,-94.78 1197.42,-92.98"/>
<polygon fill="midnightblue" stroke="midnightblue" points="1197.73,-89.49 1187.44,-92 1197.05,-96.46 1197.73,-89.49"/>
</g>
<!-- Node15&#45;&gt;Node24 -->
<g id="edge33" class="edge">
<title>Node15&#45;&gt;Node24</title>
<path fill="none" stroke="midnightblue" d="M2145.84,-137.69C2216.88,-125.48 2331.66,-105.74 2401.35,-93.76"/>
<polygon fill="midnightblue" stroke="midnightblue" points="2402.03,-97.19 2411.3,-92.05 2400.85,-90.29 2402.03,-97.19"/>
</g>
<!-- Node15&#45;&gt;Node25 -->
<g id="edge34" class="edge">
<title>Node15&#45;&gt;Node25</title>
<path fill="none" stroke="midnightblue" d="M2145.55,-143.1C2234.07,-135.12 2400.83,-118.86 2542,-98 2550.14,-96.8 2558.72,-95.37 2567.1,-93.88"/>
<polygon fill="midnightblue" stroke="midnightblue" points="2567.97,-97.28 2577.18,-92.05 2566.72,-90.39 2567.97,-97.28"/>
</g>
<!-- Node15&#45;&gt;Node26 -->
<g id="edge36" class="edge">
<title>Node15&#45;&gt;Node26</title>
<path fill="none" stroke="midnightblue" d="M2050.24,-134.4C2023.74,-122.99 1986.78,-107.08 1961.27,-96.1"/>
<polygon fill="midnightblue" stroke="midnightblue" points="1962.33,-92.75 1951.76,-92.01 1959.56,-99.18 1962.33,-92.75"/>
</g>
<!-- Node15&#45;&gt;Node27 -->
<g id="edge37" class="edge">
<title>Node15&#45;&gt;Node27</title>
<path fill="none" stroke="midnightblue" d="M2128.52,-134.48C2166.84,-122.67 2220.96,-106 2256.74,-94.98"/>
<polygon fill="midnightblue" stroke="midnightblue" points="2257.79,-98.32 2266.31,-92.03 2255.73,-91.63 2257.79,-98.32"/>
</g>
<!-- Node17&#45;&gt;Node4 -->
<g id="edge28" class="edge">
<title>Node17&#45;&gt;Node4</title>
<path fill="none" stroke="midnightblue" d="M1388.6,-76.73C1458.76,-70.39 1575.46,-56.84 1673,-31 1675.66,-30.3 1678.39,-29.46 1681.1,-28.55"/>
<polygon fill="midnightblue" stroke="midnightblue" points="1682.51,-31.76 1690.69,-25.03 1680.1,-25.19 1682.51,-31.76"/>
</g>
<!-- Node17&#45;&gt;Node5 -->
<g id="edge24" class="edge">
<title>Node17&#45;&gt;Node5</title>
<path fill="none" stroke="midnightblue" d="M1263.27,-72.4C1247.84,-70.39 1231.34,-68.44 1216,-67 905.36,-37.87 532.84,-23.52 382.18,-18.57"/>
<polygon fill="midnightblue" stroke="midnightblue" points="382.26,-15.07 372.15,-18.24 382.03,-22.06 382.26,-15.07"/>
</g>
<!-- Node17&#45;&gt;Node10 -->
<g id="edge25" class="edge">
<title>Node17&#45;&gt;Node10</title>
<path fill="none" stroke="midnightblue" d="M1279.61,-67.48C1246.66,-57.51 1202.25,-44.09 1167.27,-33.51"/>
<polygon fill="midnightblue" stroke="midnightblue" points="1168.26,-30.15 1157.67,-30.61 1166.23,-36.86 1168.26,-30.15"/>
</g>
<!-- Node17&#45;&gt;Node16 -->
<g id="edge23" class="edge">
<title>Node17&#45;&gt;Node16</title>
<path fill="none" stroke="midnightblue" d="M1358.76,-67.4C1385.26,-55.99 1422.22,-40.08 1447.73,-29.1"/>
<polygon fill="midnightblue" stroke="midnightblue" points="1449.44,-32.18 1457.24,-25.01 1446.67,-25.75 1449.44,-32.18"/>
</g>
<!-- Node17&#45;&gt;Node18 -->
<g id="edge26" class="edge">
<title>Node17&#45;&gt;Node18</title>
<path fill="none" stroke="midnightblue" d="M1386.63,-67.48C1438.63,-55.45 1512.51,-38.36 1560.1,-27.35"/>
<polygon fill="midnightblue" stroke="midnightblue" points="1561.18,-30.69 1570.13,-25.03 1559.6,-23.87 1561.18,-30.69"/>
</g>
<!-- Node19 -->
<g id="node19" class="node">
<title>Node19</title>
<g id="a_node19"><a xlink:title=" ">
<polygon fill="none" stroke="#bfbfbf" points="1189,-6 1189,-25 1237,-25 1237,-6 1189,-6"/>
<text text-anchor="middle" x="1213" y="-13" font-family="Helvetica,sans-Serif" font-size="10.00">mutex</text>
</a>
</g>
</g>
<!-- Node17&#45;&gt;Node19 -->
<g id="edge27" class="edge">
<title>Node17&#45;&gt;Node19</title>
<path fill="none" stroke="midnightblue" d="M1301.48,-67.4C1282.27,-56.34 1255.7,-41.06 1236.7,-30.13"/>
<polygon fill="midnightblue" stroke="midnightblue" points="1238.2,-26.96 1227.79,-25.01 1234.71,-33.03 1238.2,-26.96"/>
</g>
<!-- Node20 -->
<g id="node20" class="node">
<title>Node20</title>
<g id="a_node20"><a xlink:title=" ">
<polygon fill="none" stroke="#bfbfbf" points="755.5,-0.5 755.5,-30.5 900.5,-30.5 900.5,-0.5 755.5,-0.5"/>
<text text-anchor="start" x="763.5" y="-18.5" font-family="Helvetica,sans-Serif" font-size="10.00">boost/log/sources/severity</text>
<text text-anchor="middle" x="828" y="-7.5" font-family="Helvetica,sans-Serif" font-size="10.00">_logger.hpp</text>
</a>
</g>
</g>
<!-- Node17&#45;&gt;Node20 -->
<g id="edge29" class="edge">
<title>Node17&#45;&gt;Node20</title>
<path fill="none" stroke="midnightblue" d="M1263.48,-73.11C1247.97,-71.07 1231.39,-68.92 1216,-67 1083.3,-50.45 1047.16,-50.9 910.83,-31.07"/>
<polygon fill="midnightblue" stroke="midnightblue" points="911.24,-27.59 900.84,-29.61 910.23,-34.52 911.24,-27.59"/>
</g>
<!-- Node21 -->
<g id="node21" class="node">
<title>Node21</title>
<g id="a_node21"><a xlink:title=" ">
<polygon fill="none" stroke="#bfbfbf" points="919,-6 919,-25 1033,-25 1033,-6 919,-6"/>
<text text-anchor="middle" x="976" y="-13" font-family="Helvetica,sans-Serif" font-size="10.00">boost/log/trivial.hpp</text>
</a>
</g>
</g>
<!-- Node17&#45;&gt;Node21 -->
<g id="edge30" class="edge">
<title>Node17&#45;&gt;Node21</title>
<path fill="none" stroke="midnightblue" d="M1263.26,-71.09C1205.62,-61.35 1117.89,-46.08 1042,-31 1036.1,-29.83 1029.92,-28.54 1023.81,-27.24"/>
<polygon fill="midnightblue" stroke="midnightblue" points="1024.15,-23.74 1013.64,-25.04 1022.67,-30.58 1024.15,-23.74"/>
</g>
<!-- Node22 -->
<g id="node22" class="node">
<title>Node22</title>
<g id="a_node22"><a xlink:title=" ">
<polygon fill="none" stroke="#bfbfbf" points="1254.5,-6 1254.5,-25 1403.5,-25 1403.5,-6 1254.5,-6"/>
<text text-anchor="middle" x="1329" y="-13" font-family="Helvetica,sans-Serif" font-size="10.00">impl/hdf5&#45;core&#45;general.hpp</text>
</a>
</g>
</g>
<!-- Node17&#45;&gt;Node22 -->
<g id="edge31" class="edge">
<title>Node17&#45;&gt;Node22</title>
<path fill="none" stroke="midnightblue" d="M1326.65,-67.4C1327.09,-57.96 1327.66,-45.45 1328.14,-35.19"/>
<polygon fill="midnightblue" stroke="midnightblue" points="1331.63,-35.35 1328.6,-25.19 1324.64,-35.02 1331.63,-35.35"/>
</g>
<!-- Node28&#45;&gt;Node3 -->
<g id="edge54" class="edge">
<title>Node28&#45;&gt;Node3</title>
<path fill="none" stroke="midnightblue" d="M956.78,-208.01C1037.6,-202.32 1273.53,-185.13 1469,-165 1493.99,-162.43 1521.89,-159.02 1544.29,-156.16"/>
<polygon fill="midnightblue" stroke="midnightblue" points="1545.01,-159.59 1554.48,-154.84 1544.12,-152.65 1545.01,-159.59"/>
</g>
<!-- Node28&#45;&gt;Node4 -->
<g id="edge56" class="edge">
<title>Node28&#45;&gt;Node4</title>
<path fill="none" stroke="midnightblue" d="M956.51,-208.16C1027.45,-203.28 1210.23,-188.71 1266,-165 1286.38,-156.34 1284.82,-143.11 1305,-134 1388.12,-96.48 1424.12,-136.04 1507,-98 1526.81,-88.91 1525.66,-77.05 1545,-67 1597.44,-39.75 1616.98,-49.8 1673,-31 1675.13,-30.29 1677.31,-29.52 1679.5,-28.73"/>
<polygon fill="midnightblue" stroke="midnightblue" points="1680.88,-31.95 1689,-25.15 1678.41,-25.4 1680.88,-31.95"/>
</g>
<!-- Node28&#45;&gt;Node5 -->
<g id="edge57" class="edge">
<title>Node28&#45;&gt;Node5</title>
<path fill="none" stroke="midnightblue" d="M899.24,-209.91C785.91,-209.29 374.41,-204.32 333,-165 297.58,-131.37 303.92,-67.09 309.8,-35.28"/>
<polygon fill="midnightblue" stroke="midnightblue" points="313.3,-35.65 311.87,-25.15 306.44,-34.25 313.3,-35.65"/>
</g>
<!-- Node28&#45;&gt;Node8 -->
<g id="edge59" class="edge">
<title>Node28&#45;&gt;Node8</title>
<path fill="none" stroke="midnightblue" d="M899.38,-209.64C804.23,-208.11 489.91,-200.52 233,-165 225.52,-163.97 217.63,-162.57 209.98,-161.05"/>
<polygon fill="midnightblue" stroke="midnightblue" points="210.62,-157.61 200.12,-159.01 209.2,-164.47 210.62,-157.61"/>
</g>
<!-- Node28&#45;&gt;Node20 -->
<g id="edge71" class="edge">
<title>Node28&#45;&gt;Node20</title>
<path fill="none" stroke="midnightblue" d="M956.59,-202.33C975.08,-195.72 997.74,-184.13 1009,-165 1015.99,-153.13 1015.58,-146.11 1009,-134 993.25,-105 913.48,-60.28 865.25,-35.2"/>
<polygon fill="midnightblue" stroke="midnightblue" points="866.83,-32.08 856.34,-30.61 863.62,-38.3 866.83,-32.08"/>
</g>
<!-- Node28&#45;&gt;Node21 -->
<g id="edge72" class="edge">
<title>Node28&#45;&gt;Node21</title>
<path fill="none" stroke="midnightblue" d="M956.5,-207.56C983.6,-203.56 1022.97,-192.97 1042,-165 1049.75,-153.61 1047.9,-146.45 1042,-134 1031.18,-111.17 1011.73,-119.21 998,-98 985.52,-78.72 980.08,-52.51 977.73,-35.08"/>
<polygon fill="midnightblue" stroke="midnightblue" points="981.2,-34.59 976.59,-25.05 974.24,-35.38 981.2,-34.59"/>
</g>
<!-- Node28&#45;&gt;Node23 -->
<g id="edge60" class="edge">
<title>Node28&#45;&gt;Node23</title>
<path fill="none" stroke="midnightblue" d="M956.56,-209.2C990.39,-206.71 1046.39,-197.55 1080,-165 1097.11,-148.43 1103.38,-120.78 1105.68,-102.35"/>
<polygon fill="midnightblue" stroke="midnightblue" points="1109.18,-102.53 1106.65,-92.24 1102.21,-101.86 1109.18,-102.53"/>
</g>
<!-- Node29 -->
<g id="node29" class="node">
<title>Node29</title>
<g id="a_node29"><a xlink:title=" ">
<polygon fill="none" stroke="#bfbfbf" points="242,-140 242,-159 286,-159 286,-140 242,-140"/>
<text text-anchor="middle" x="264" y="-147" font-family="Helvetica,sans-Serif" font-size="10.00">limits</text>
</a>
</g>
</g>
<!-- Node28&#45;&gt;Node29 -->
<g id="edge55" class="edge">
<title>Node28&#45;&gt;Node29</title>
<path fill="none" stroke="midnightblue" d="M899.38,-209.13C792.44,-205.69 416.48,-191.93 300,-165 297.17,-164.35 294.27,-163.5 291.41,-162.55"/>
<polygon fill="midnightblue" stroke="midnightblue" points="292.55,-159.24 281.96,-159.01 290.1,-165.79 292.55,-159.24"/>
</g>
<!-- Node30 -->
<g id="node30" class="node">
<title>Node30</title>
<g id="a_node30"><a xlink:title=" ">
<polygon fill="none" stroke="#bfbfbf" points="342,-140 342,-159 472,-159 472,-140 342,-140"/>
<text text-anchor="middle" x="407" y="-147" font-family="Helvetica,sans-Serif" font-size="10.00">seerep&#45;msgs/query&#45;tf.h</text>
</a>
</g>
</g>
<!-- Node28&#45;&gt;Node30 -->
<g id="edge58" class="edge">
<title>Node28&#45;&gt;Node30</title>
<path fill="none" stroke="midnightblue" d="M899.38,-208.05C828.33,-203 638.21,-188.26 481,-165 473.17,-163.84 464.91,-162.42 456.86,-160.93"/>
<polygon fill="midnightblue" stroke="midnightblue" points="457.3,-157.45 446.82,-159.01 455.99,-164.32 457.3,-157.45"/>
</g>
<!-- Node31 -->
<g id="node31" class="node">
<title>Node31</title>
<g id="a_node31"><a xlink:href="hdf5-core-tf_8h.html" target="_top" xlink:title=" ">
<polygon fill="none" stroke="black" points="1132.5,-134.5 1132.5,-164.5 1257.5,-164.5 1257.5,-134.5 1132.5,-134.5"/>
<text text-anchor="start" x="1140.5" y="-152.5" font-family="Helvetica,sans-Serif" font-size="10.00">seerep&#45;hdf5&#45;core/hdf5</text>
<text text-anchor="middle" x="1195" y="-141.5" font-family="Helvetica,sans-Serif" font-size="10.00">&#45;core&#45;tf.h</text>
</a>
</g>
</g>
<!-- Node28&#45;&gt;Node31 -->
<g id="edge61" class="edge">
<title>Node28&#45;&gt;Node31</title>
<path fill="none" stroke="midnightblue" d="M956.57,-203.63C995.83,-194.88 1067.8,-178.85 1122.43,-166.67"/>
<polygon fill="midnightblue" stroke="midnightblue" points="1123.42,-170.04 1132.42,-164.45 1121.9,-163.2 1123.42,-170.04"/>
</g>
<!-- Node32 -->
<g id="node32" class="node">
<title>Node32</title>
<g id="a_node32"><a xlink:title=" ">
<polygon fill="none" stroke="#bfbfbf" points="490,-140 490,-159 556,-159 556,-140 490,-140"/>
<text text-anchor="middle" x="523" y="-147" font-family="Helvetica,sans-Serif" font-size="10.00">ros/time.h</text>
</a>
</g>
</g>
<!-- Node28&#45;&gt;Node32 -->
<g id="edge67" class="edge">
<title>Node28&#45;&gt;Node32</title>
<path fill="none" stroke="midnightblue" d="M899.31,-208.57C837.35,-205.02 686.72,-193.92 564,-165 560.77,-164.24 557.43,-163.31 554.13,-162.29"/>
<polygon fill="midnightblue" stroke="midnightblue" points="555.04,-158.91 544.44,-159.07 552.82,-165.55 555.04,-158.91"/>
</g>
<!-- Node33 -->
<g id="node33" class="node">
<title>Node33</title>
<g id="a_node33"><a xlink:title=" ">
<polygon fill="none" stroke="#bfbfbf" points="573.5,-140 573.5,-159 722.5,-159 722.5,-140 573.5,-140"/>
<text text-anchor="middle" x="648" y="-147" font-family="Helvetica,sans-Serif" font-size="10.00">tf2/LinearMath/Transform.h</text>
</a>
</g>
</g>
<!-- Node28&#45;&gt;Node33 -->
<g id="edge68" class="edge">
<title>Node28&#45;&gt;Node33</title>
<path fill="none" stroke="midnightblue" d="M899.35,-203.91C851.92,-193.83 756.5,-173.56 697.83,-161.09"/>
<polygon fill="midnightblue" stroke="midnightblue" points="698.55,-157.66 688.04,-159.01 697.09,-164.51 698.55,-157.66"/>
</g>
<!-- Node34 -->
<g id="node34" class="node">
<title>Node34</title>
<g id="a_node34"><a xlink:title=" ">
<polygon fill="none" stroke="#bfbfbf" points="740.5,-140 740.5,-159 837.5,-159 837.5,-140 740.5,-140"/>
<text text-anchor="middle" x="789" y="-147" font-family="Helvetica,sans-Serif" font-size="10.00">tf2/buffer_core.h</text>
</a>
</g>
</g>
<!-- Node28&#45;&gt;Node34 -->
<g id="edge69" class="edge">
<title>Node28&#45;&gt;Node34</title>
<path fill="none" stroke="midnightblue" d="M908.08,-201.48C884.55,-191.4 845.19,-174.55 818.21,-163"/>
<polygon fill="midnightblue" stroke="midnightblue" points="819.45,-159.73 808.88,-159.01 816.69,-166.16 819.45,-159.73"/>
</g>
<!-- Node35 -->
<g id="node35" class="node">
<title>Node35</title>
<g id="a_node35"><a xlink:title=" ">
<polygon fill="none" stroke="#bfbfbf" points="856,-140 856,-159 1000,-159 1000,-140 856,-140"/>
<text text-anchor="middle" x="928" y="-147" font-family="Helvetica,sans-Serif" font-size="10.00">tf2/transform_datatypes.h</text>
</a>
</g>
</g>
<!-- Node28&#45;&gt;Node35 -->
<g id="edge70" class="edge">
<title>Node28&#45;&gt;Node35</title>
<path fill="none" stroke="midnightblue" d="M928,-201.48C928,-193.08 928,-179.98 928,-169.16"/>
<polygon fill="midnightblue" stroke="midnightblue" points="931.5,-169.01 928,-159.01 924.5,-169.01 931.5,-169.01"/>
</g>
<!-- Node31&#45;&gt;Node4 -->
<g id="edge66" class="edge">
<title>Node31&#45;&gt;Node4</title>
<path fill="none" stroke="midnightblue" d="M1257.61,-136.68C1262.48,-135.77 1267.32,-134.87 1272,-134 1359.51,-117.76 1386.25,-130.77 1469,-98 1492.61,-88.65 1493.61,-76.89 1517,-67 1582.54,-39.28 1605.03,-52.04 1673,-31 1675.42,-30.25 1677.91,-29.42 1680.4,-28.54"/>
<polygon fill="midnightblue" stroke="midnightblue" points="1681.69,-31.79 1689.83,-25.02 1679.24,-25.24 1681.69,-31.79"/>
</g>
<!-- Node31&#45;&gt;Node16 -->
<g id="edge62" class="edge">
<title>Node31&#45;&gt;Node16</title>
<path fill="none" stroke="midnightblue" d="M1257.61,-136.72C1307.73,-126.59 1373.39,-111.51 1397,-98 1425.69,-81.58 1450.94,-51.98 1465.06,-33.33"/>
<polygon fill="midnightblue" stroke="midnightblue" points="1467.97,-35.29 1471.07,-25.16 1462.33,-31.15 1467.97,-35.29"/>
</g>
<!-- Node31&#45;&gt;Node17 -->
<g id="edge63" class="edge">
<title>Node31&#45;&gt;Node17</title>
<path fill="none" stroke="midnightblue" d="M1223.43,-134.4C1242.48,-124.94 1267.78,-112.39 1288.48,-102.12"/>
<polygon fill="midnightblue" stroke="midnightblue" points="1290.23,-105.16 1297.63,-97.58 1287.12,-98.89 1290.23,-105.16"/>
</g>
<!-- Node31&#45;&gt;Node18 -->
<g id="edge65" class="edge">
<title>Node31&#45;&gt;Node18</title>
<path fill="none" stroke="midnightblue" d="M1257.79,-136.28C1322.17,-123.56 1415.08,-104.58 1431,-98 1454.47,-88.3 1456.41,-78.61 1479,-67 1509.15,-51.51 1545.19,-37.68 1571.34,-28.43"/>
<polygon fill="midnightblue" stroke="midnightblue" points="1572.55,-31.71 1580.84,-25.11 1570.25,-25.1 1572.55,-31.71"/>
</g>
<!-- Node31&#45;&gt;Node23 -->
<g id="edge64" class="edge">
<title>Node31&#45;&gt;Node23</title>
<path fill="none" stroke="midnightblue" d="M1175.91,-134.4C1161.42,-123.7 1141.57,-109.03 1126.89,-98.19"/>
<polygon fill="midnightblue" stroke="midnightblue" points="1128.64,-95.13 1118.52,-92.01 1124.48,-100.76 1128.64,-95.13"/>
</g>
</g>
</svg>
