<?xml version="1.0" encoding="UTF-8" standalone="no"?>
<!DOCTYPE svg PUBLIC "-//W3C//DTD SVG 1.1//EN"
 "http://www.w3.org/Graphics/SVG/1.1/DTD/svg11.dtd">
<!-- Generated by graphviz version 2.43.0 (0)
 -->
<!-- Title: seerep&#45;srv/seerep&#45;core&#45;fb/include/seerep&#45;core&#45;fb/core&#45;fb&#45;instance.h Pages: 1 -->
<svg width="403pt" height="273pt"
 viewBox="0.00 0.00 402.50 273.00" xmlns="http://www.w3.org/2000/svg" xmlns:xlink="http://www.w3.org/1999/xlink">
<g id="graph0" class="graph" transform="scale(1 1) rotate(0) translate(4 269)">
<title>seerep&#45;srv/seerep&#45;core&#45;fb/include/seerep&#45;core&#45;fb/core&#45;fb&#45;instance.h</title>
<!-- Node1 -->
<g id="node1" class="node">
<title>Node1</title>
<g id="a_node1"><a xlink:title=" ">
<polygon fill="#bfbfbf" stroke="black" points="91.5,-223.5 91.5,-264.5 220.5,-264.5 220.5,-223.5 91.5,-223.5"/>
<text text-anchor="start" x="99.5" y="-252.5" font-family="Helvetica,sans-Serif" font-size="10.00">seerep&#45;srv/seerep&#45;core</text>
<text text-anchor="start" x="99.5" y="-241.5" font-family="Helvetica,sans-Serif" font-size="10.00">&#45;fb/include/seerep&#45;core</text>
<text text-anchor="middle" x="156" y="-230.5" font-family="Helvetica,sans-Serif" font-size="10.00">&#45;fb/core&#45;fb&#45;instance.h</text>
</a>
</g>
</g>
<!-- Node2 -->
<g id="node2" class="node">
<title>Node2</title>
<g id="a_node2"><a xlink:href="core-fb-instance_8cpp.html" target="_top" xlink:title=" ">
<polygon fill="none" stroke="black" points="0,-151 0,-181 150,-181 150,-151 0,-151"/>
<text text-anchor="start" x="8" y="-169" font-family="Helvetica,sans-Serif" font-size="10.00">seerep&#45;srv/seerep&#45;core</text>
<text text-anchor="middle" x="75" y="-158" font-family="Helvetica,sans-Serif" font-size="10.00">&#45;fb/src/core&#45;fb&#45;instance.cpp</text>
</a>
</g>
</g>
<!-- Node1&#45;&gt;Node2 -->
<g id="edge1" class="edge">
<title>Node1&#45;&gt;Node2</title>
<path fill="none" stroke="midnightblue" d="M127.57,-216.32C114.98,-204.51 100.67,-191.08 90.16,-181.23"/>
<polygon fill="midnightblue" stroke="midnightblue" points="125.45,-219.14 135.14,-223.43 130.24,-214.03 125.45,-219.14"/>
</g>
<!-- Node3 -->
<g id="node3" class="node">
<title>Node3</title>
<g id="a_node3"><a xlink:href="fb-instance-service_8h.html" target="_top" xlink:title=" ">
<polygon fill="none" stroke="black" points="168.5,-145.5 168.5,-186.5 307.5,-186.5 307.5,-145.5 168.5,-145.5"/>
<text text-anchor="start" x="176.5" y="-174.5" font-family="Helvetica,sans-Serif" font-size="10.00">seerep&#45;srv/seerep&#45;server</text>
<text text-anchor="start" x="176.5" y="-163.5" font-family="Helvetica,sans-Serif" font-size="10.00">/include/seerep&#45;server</text>
<text text-anchor="middle" x="238" y="-152.5" font-family="Helvetica,sans-Serif" font-size="10.00">/fb&#45;instance&#45;service.h</text>
</a>
</g>
</g>
<!-- Node1&#45;&gt;Node3 -->
<g id="edge2" class="edge">
<title>Node1&#45;&gt;Node3</title>
<path fill="none" stroke="midnightblue" d="M184.6,-216.49C195.24,-206.63 207.11,-195.63 216.95,-186.51"/>
<polygon fill="midnightblue" stroke="midnightblue" points="182.07,-214.06 177.12,-223.43 186.83,-219.2 182.07,-214.06"/>
</g>
<!-- Node4 -->
<g id="node4" class="node">
<title>Node4</title>
<g id="a_node4"><a xlink:href="server_8h.html" target="_top" xlink:title=" ">
<polygon fill="none" stroke="black" points="86.5,-67.5 86.5,-108.5 225.5,-108.5 225.5,-67.5 86.5,-67.5"/>
<text text-anchor="start" x="94.5" y="-96.5" font-family="Helvetica,sans-Serif" font-size="10.00">seerep&#45;srv/seerep&#45;server</text>
<text text-anchor="start" x="94.5" y="-85.5" font-family="Helvetica,sans-Serif" font-size="10.00">/include/seerep&#45;server</text>
<text text-anchor="middle" x="156" y="-74.5" font-family="Helvetica,sans-Serif" font-size="10.00">/server.h</text>
</a>
</g>
</g>
<!-- Node3&#45;&gt;Node4 -->
<g id="edge3" class="edge">
<title>Node3&#45;&gt;Node4</title>
<path fill="none" stroke="midnightblue" d="M209.4,-138.49C198.76,-128.63 186.89,-117.63 177.05,-108.51"/>
<polygon fill="midnightblue" stroke="midnightblue" points="207.17,-141.2 216.88,-145.43 211.93,-136.06 207.17,-141.2"/>
</g>
<!-- Node6 -->
<g id="node6" class="node">
<title>Node6</title>
<g id="a_node6"><a xlink:href="fb-instance-service_8cpp.html" target="_top" xlink:title=" ">
<polygon fill="none" stroke="black" points="243.5,-73 243.5,-103 394.5,-103 394.5,-73 243.5,-73"/>
<text text-anchor="start" x="251.5" y="-91" font-family="Helvetica,sans-Serif" font-size="10.00">seerep&#45;srv/seerep&#45;server</text>
<text text-anchor="middle" x="319" y="-80" font-family="Helvetica,sans-Serif" font-size="10.00">/src/fb&#45;instance&#45;service.cpp</text>
</a>
</g>
</g>
<!-- Node3&#45;&gt;Node6 -->
<g id="edge5" class="edge">
<title>Node3&#45;&gt;Node6</title>
<path fill="none" stroke="midnightblue" d="M266.43,-138.32C279.02,-126.51 293.33,-113.08 303.84,-103.23"/>
<polygon fill="midnightblue" stroke="midnightblue" points="263.76,-136.03 258.86,-145.43 268.55,-141.14 263.76,-136.03"/>
</g>
<!-- Node5 -->
<g id="node5" class="node">
<title>Node5</title>
<g id="a_node5"><a xlink:href="server_8cpp.html" target="_top" xlink:title=" ">
<polygon fill="none" stroke="black" points="86.5,-0.5 86.5,-30.5 225.5,-30.5 225.5,-0.5 86.5,-0.5"/>
<text text-anchor="start" x="94.5" y="-18.5" font-family="Helvetica,sans-Serif" font-size="10.00">seerep&#45;srv/seerep&#45;server</text>
<text text-anchor="middle" x="156" y="-7.5" font-family="Helvetica,sans-Serif" font-size="10.00">/src/server.cpp</text>
</a>
</g>
</g>
<!-- Node4&#45;&gt;Node5 -->
<g id="edge4" class="edge">
<title>Node4&#45;&gt;Node5</title>
<path fill="none" stroke="midnightblue" d="M156,-57.08C156,-48.01 156,-38.45 156,-30.89"/>
<polygon fill="midnightblue" stroke="midnightblue" points="152.5,-57.36 156,-67.36 159.5,-57.36 152.5,-57.36"/>
</g>
</g>
</svg>
