<?xml version="1.0" encoding="UTF-8" standalone="no"?>
<!DOCTYPE svg PUBLIC "-//W3C//DTD SVG 1.1//EN"
 "http://www.w3.org/Graphics/SVG/1.1/DTD/svg11.dtd">
<!-- Generated by graphviz version 2.43.0 (0)
 -->
<!-- Title: seerep&#45;srv/seerep&#45;core&#45;fb/src/core&#45;fb&#45;instance.cpp Pages: 1 -->
<svg width="5420pt" height="609pt"
 viewBox="0.00 0.00 5420.25 609.00" xmlns="http://www.w3.org/2000/svg" xmlns:xlink="http://www.w3.org/1999/xlink">
<g id="graph0" class="graph" transform="scale(1 1) rotate(0) translate(4 605)">
<title>seerep&#45;srv/seerep&#45;core&#45;fb/src/core&#45;fb&#45;instance.cpp</title>
<!-- Node1 -->
<g id="node1" class="node">
<title>Node1</title>
<g id="a_node1"><a xlink:title=" ">
<polygon fill="#bfbfbf" stroke="black" points="2332.25,-570.5 2332.25,-600.5 2482.25,-600.5 2482.25,-570.5 2332.25,-570.5"/>
<text text-anchor="start" x="2340.25" y="-588.5" font-family="Helvetica,sans-Serif" font-size="10.00">seerep&#45;srv/seerep&#45;core</text>
<text text-anchor="middle" x="2407.25" y="-577.5" font-family="Helvetica,sans-Serif" font-size="10.00">&#45;fb/src/core&#45;fb&#45;instance.cpp</text>
</a>
</g>
</g>
<!-- Node2 -->
<g id="node2" class="node">
<title>Node2</title>
<g id="a_node2"><a xlink:href="core-fb-instance_8h.html" target="_top" xlink:title=" ">
<polygon fill="none" stroke="black" points="2351.25,-503.5 2351.25,-533.5 2463.25,-533.5 2463.25,-503.5 2351.25,-503.5"/>
<text text-anchor="start" x="2359.25" y="-521.5" font-family="Helvetica,sans-Serif" font-size="10.00">seerep&#45;core&#45;fb/core</text>
<text text-anchor="middle" x="2407.25" y="-510.5" font-family="Helvetica,sans-Serif" font-size="10.00">&#45;fb&#45;instance.h</text>
</a>
</g>
</g>
<!-- Node1&#45;&gt;Node2 -->
<g id="edge1" class="edge">
<title>Node1&#45;&gt;Node2</title>
<path fill="none" stroke="midnightblue" d="M2407.25,-570.4C2407.25,-562.64 2407.25,-552.81 2407.25,-543.86"/>
<polygon fill="midnightblue" stroke="midnightblue" points="2410.75,-543.58 2407.25,-533.58 2403.75,-543.58 2410.75,-543.58"/>
</g>
<!-- Node3 -->
<g id="node3" class="node">
<title>Node3</title>
<g id="a_node3"><a xlink:title=" ">
<polygon fill="none" stroke="#bfbfbf" points="4900.75,-140 4900.75,-159 4965.75,-159 4965.75,-140 4900.75,-140"/>
<text text-anchor="middle" x="4933.25" y="-147" font-family="Helvetica,sans-Serif" font-size="10.00">functional</text>
</a>
</g>
</g>
<!-- Node2&#45;&gt;Node3 -->
<g id="edge2" class="edge">
<title>Node2&#45;&gt;Node3</title>
<path fill="none" stroke="midnightblue" d="M2463.53,-517.49C2838.53,-517.28 4962.13,-514.03 5008.25,-467 5050.87,-423.55 4968.54,-228.87 4941.47,-168.45"/>
<polygon fill="midnightblue" stroke="midnightblue" points="4944.54,-166.75 4937.23,-159.08 4938.16,-169.63 4944.54,-166.75"/>
</g>
<!-- Node4 -->
<g id="node4" class="node">
<title>Node4</title>
<g id="a_node4"><a xlink:title=" ">
<polygon fill="none" stroke="#bfbfbf" points="2948.25,-6 2948.25,-25 3004.25,-25 3004.25,-6 2948.25,-6"/>
<text text-anchor="middle" x="2976.25" y="-13" font-family="Helvetica,sans-Serif" font-size="10.00">optional</text>
</a>
</g>
</g>
<!-- Node2&#45;&gt;Node4 -->
<g id="edge3" class="edge">
<title>Node2&#45;&gt;Node4</title>
<path fill="none" stroke="midnightblue" d="M2351.08,-517.65C1992.63,-518.26 40.25,-516.08 40.25,-396.5 40.25,-396.5 40.25,-396.5 40.25,-327.5 40.25,-235.1 40.99,-187.59 116.25,-134 236.7,-48.23 2605.94,-20.37 2937.78,-16.89"/>
<polygon fill="midnightblue" stroke="midnightblue" points="2937.9,-20.39 2947.86,-16.78 2937.83,-13.39 2937.9,-20.39"/>
</g>
<!-- Node5 -->
<g id="node5" class="node">
<title>Node5</title>
<g id="a_node5"><a xlink:href="core-fb-conversion_8h.html" target="_top" xlink:title=" ">
<polygon fill="none" stroke="black" points="1912.75,-201.5 1912.75,-220.5 2029.75,-220.5 2029.75,-201.5 1912.75,-201.5"/>
<text text-anchor="middle" x="1971.25" y="-208.5" font-family="Helvetica,sans-Serif" font-size="10.00">core&#45;fb&#45;conversion.h</text>
</a>
</g>
</g>
<!-- Node2&#45;&gt;Node5 -->
<g id="edge4" class="edge">
<title>Node2&#45;&gt;Node5</title>
<path fill="none" stroke="midnightblue" d="M2351.22,-512.47C2240.49,-500.99 2004.25,-468.09 2004.25,-396.5 2004.25,-396.5 2004.25,-396.5 2004.25,-327.5 2004.25,-291.85 1989.54,-252.32 1979.76,-229.98"/>
<polygon fill="midnightblue" stroke="midnightblue" points="1982.89,-228.4 1975.57,-220.74 1976.52,-231.29 1982.89,-228.4"/>
</g>
<!-- Node13 -->
<g id="node13" class="node">
<title>Node13</title>
<g id="a_node13"><a xlink:title=" ">
<polygon fill="none" stroke="#bfbfbf" points="125.75,-134.5 125.75,-164.5 282.75,-164.5 282.75,-134.5 125.75,-134.5"/>
<text text-anchor="start" x="133.75" y="-152.5" font-family="Helvetica,sans-Serif" font-size="10.00">seerep&#45;msgs/query_instance</text>
<text text-anchor="middle" x="204.25" y="-141.5" font-family="Helvetica,sans-Serif" font-size="10.00">_generated.h</text>
</a>
</g>
</g>
<!-- Node2&#45;&gt;Node13 -->
<g id="edge28" class="edge">
<title>Node2&#45;&gt;Node13</title>
<path fill="none" stroke="midnightblue" d="M2351.24,-517.39C1995.82,-516.53 68.26,-509.91 26.25,-467 -64.86,-373.93 107.02,-224.94 176.75,-170.91"/>
<polygon fill="midnightblue" stroke="midnightblue" points="178.91,-173.66 184.72,-164.8 174.66,-168.11 178.91,-173.66"/>
</g>
<!-- Node16 -->
<g id="node16" class="node">
<title>Node16</title>
<g id="a_node16"><a xlink:title=" ">
<polygon fill="none" stroke="#bfbfbf" points="301.25,-134.5 301.25,-164.5 431.25,-164.5 431.25,-134.5 301.25,-134.5"/>
<text text-anchor="start" x="309.25" y="-152.5" font-family="Helvetica,sans-Serif" font-size="10.00">seerep&#45;msgs/uuids_per</text>
<text text-anchor="middle" x="366.25" y="-141.5" font-family="Helvetica,sans-Serif" font-size="10.00">_project_generated.h</text>
</a>
</g>
</g>
<!-- Node2&#45;&gt;Node16 -->
<g id="edge29" class="edge">
<title>Node2&#45;&gt;Node16</title>
<path fill="none" stroke="midnightblue" d="M2351.25,-517.4C2010.5,-516.41 230.25,-506.04 230.25,-396.5 230.25,-396.5 230.25,-396.5 230.25,-266 230.25,-218.68 278.68,-186.71 317.73,-168.62"/>
<polygon fill="midnightblue" stroke="midnightblue" points="319.2,-171.79 326.92,-164.53 316.36,-165.4 319.2,-171.79"/>
</g>
<!-- Node18 -->
<g id="node18" class="node">
<title>Node18</title>
<g id="a_node18"><a xlink:title=" ">
<polygon fill="none" stroke="#bfbfbf" points="2094.75,-140 2094.75,-159 2245.75,-159 2245.75,-140 2094.75,-140"/>
<text text-anchor="middle" x="2170.25" y="-147" font-family="Helvetica,sans-Serif" font-size="10.00">seerep&#45;msgs/query&#45;result.h</text>
</a>
</g>
</g>
<!-- Node2&#45;&gt;Node18 -->
<g id="edge30" class="edge">
<title>Node2&#45;&gt;Node18</title>
<path fill="none" stroke="midnightblue" d="M2351.19,-511.09C2293.42,-503.42 2208.49,-488.81 2184.25,-467 2159.65,-444.86 2160.25,-429.6 2160.25,-396.5 2160.25,-396.5 2160.25,-396.5 2160.25,-266 2160.25,-231.74 2164.68,-191.97 2167.64,-169.17"/>
<polygon fill="midnightblue" stroke="midnightblue" points="2171.12,-169.55 2168.99,-159.17 2164.18,-168.61 2171.12,-169.55"/>
</g>
<!-- Node20 -->
<g id="node20" class="node">
<title>Node20</title>
<g id="a_node20"><a xlink:title=" ">
<polygon fill="none" stroke="#bfbfbf" points="2454.25,-140 2454.25,-159 2572.25,-159 2572.25,-140 2454.25,-140"/>
<text text-anchor="middle" x="2513.25" y="-147" font-family="Helvetica,sans-Serif" font-size="10.00">seerep&#45;msgs/query.h</text>
</a>
</g>
</g>
<!-- Node2&#45;&gt;Node20 -->
<g id="edge31" class="edge">
<title>Node2&#45;&gt;Node20</title>
<path fill="none" stroke="midnightblue" d="M2407.25,-503.34C2407.25,-480.75 2407.25,-435.15 2407.25,-396.5 2407.25,-396.5 2407.25,-396.5 2407.25,-266 2407.25,-218.69 2456.13,-182.37 2487.51,-163.93"/>
<polygon fill="midnightblue" stroke="midnightblue" points="2489.24,-166.97 2496.22,-159 2485.8,-160.88 2489.24,-166.97"/>
</g>
<!-- Node22 -->
<g id="node22" class="node">
<title>Node22</title>
<g id="a_node22"><a xlink:title=" ">
<polygon fill="none" stroke="#bfbfbf" points="4806.75,-73 4806.75,-92 4949.75,-92 4949.75,-73 4806.75,-73"/>
<text text-anchor="middle" x="4878.25" y="-80" font-family="Helvetica,sans-Serif" font-size="10.00">boost/functional/hash.hpp</text>
</a>
</g>
</g>
<!-- Node2&#45;&gt;Node22 -->
<g id="edge172" class="edge">
<title>Node2&#45;&gt;Node22</title>
<path fill="none" stroke="midnightblue" d="M2463.4,-517.29C2824.64,-515.82 4814.95,-505.98 5082.25,-467 5198.18,-450.09 5336.25,-513.66 5336.25,-396.5 5336.25,-396.5 5336.25,-396.5 5336.25,-266 5336.25,-180.87 5059.76,-117.85 4936.43,-93.98"/>
<polygon fill="midnightblue" stroke="midnightblue" points="4936.88,-90.5 4926.4,-92.06 4935.57,-97.38 4936.88,-90.5"/>
</g>
<!-- Node23 -->
<g id="node23" class="node">
<title>Node23</title>
<g id="a_node23"><a xlink:title=" ">
<polygon fill="none" stroke="#bfbfbf" points="3890.75,-73 3890.75,-92 4015.75,-92 4015.75,-73 3890.75,-73"/>
<text text-anchor="middle" x="3953.25" y="-80" font-family="Helvetica,sans-Serif" font-size="10.00">boost/lexical_cast.hpp</text>
</a>
</g>
</g>
<!-- Node2&#45;&gt;Node23 -->
<g id="edge173" class="edge">
<title>Node2&#45;&gt;Node23</title>
<path fill="none" stroke="midnightblue" d="M2463.49,-517.22C2832.7,-515.31 4898.75,-503.01 5026.25,-467 5085.78,-450.19 5146.25,-458.36 5146.25,-396.5 5146.25,-396.5 5146.25,-396.5 5146.25,-327.5 5146.25,-212.73 5078.69,-183.74 4975.25,-134 4932.61,-113.49 4252.79,-92.13 4026.14,-85.55"/>
<polygon fill="midnightblue" stroke="midnightblue" points="4026.12,-82.05 4016.02,-85.26 4025.91,-89.05 4026.12,-82.05"/>
</g>
<!-- Node24 -->
<g id="node24" class="node">
<title>Node24</title>
<g id="a_node24"><a xlink:title=" ">
<polygon fill="none" stroke="#bfbfbf" points="4821.75,-6 4821.75,-25 4934.75,-25 4934.75,-6 4821.75,-6"/>
<text text-anchor="middle" x="4878.25" y="-13" font-family="Helvetica,sans-Serif" font-size="10.00">boost/uuid/uuid.hpp</text>
</a>
</g>
</g>
<!-- Node2&#45;&gt;Node24 -->
<g id="edge174" class="edge">
<title>Node2&#45;&gt;Node24</title>
<path fill="none" stroke="midnightblue" d="M2463.51,-517.59C2835.57,-518.01 4935.65,-518.12 5215.25,-467 5306.73,-450.28 5412.25,-489.49 5412.25,-396.5 5412.25,-396.5 5412.25,-396.5 5412.25,-148.5 5412.25,-53.26 5088.07,-26.3 4944.89,-19.03"/>
<polygon fill="midnightblue" stroke="midnightblue" points="4945.06,-15.54 4934.9,-18.55 4944.71,-22.53 4945.06,-15.54"/>
</g>
<!-- Node25 -->
<g id="node25" class="node">
<title>Node25</title>
<g id="a_node25"><a xlink:title=" ">
<polygon fill="none" stroke="#bfbfbf" points="3368.25,-73 3368.25,-92 3538.25,-92 3538.25,-73 3368.25,-73"/>
<text text-anchor="middle" x="3453.25" y="-80" font-family="Helvetica,sans-Serif" font-size="10.00">boost/uuid/uuid_generators.hpp</text>
</a>
</g>
</g>
<!-- Node2&#45;&gt;Node25 -->
<g id="edge175" class="edge">
<title>Node2&#45;&gt;Node25</title>
<path fill="none" stroke="midnightblue" d="M2463.47,-515.74C2678.52,-508.52 3441.16,-478.34 3524.25,-411 3578.36,-367.15 3571.26,-324.28 3553.25,-257 3536.32,-193.69 3490.1,-129.55 3466.91,-100.12"/>
<polygon fill="midnightblue" stroke="midnightblue" points="3469.5,-97.75 3460.51,-92.14 3464.04,-102.13 3469.5,-97.75"/>
</g>
<!-- Node26 -->
<g id="node26" class="node">
<title>Node26</title>
<g id="a_node26"><a xlink:title=" ">
<polygon fill="none" stroke="#bfbfbf" points="3222.75,-73 3222.75,-92 3349.75,-92 3349.75,-73 3222.75,-73"/>
<text text-anchor="middle" x="3286.25" y="-80" font-family="Helvetica,sans-Serif" font-size="10.00">boost/uuid/uuid_io.hpp</text>
</a>
</g>
</g>
<!-- Node2&#45;&gt;Node26 -->
<g id="edge176" class="edge">
<title>Node2&#45;&gt;Node26</title>
<path fill="none" stroke="midnightblue" d="M2351.25,-509.62C2289.34,-497.39 2198.25,-467.36 2198.25,-396.5 2198.25,-396.5 2198.25,-396.5 2198.25,-327.5 2198.25,-193.91 2304.15,-183.44 2428.25,-134 2464.38,-119.61 3010.8,-95.16 3212.33,-86.58"/>
<polygon fill="midnightblue" stroke="midnightblue" points="3212.68,-90.07 3222.52,-86.15 3212.39,-83.08 3212.68,-90.07"/>
</g>
<!-- Node27 -->
<g id="node27" class="node">
<title>Node27</title>
<g id="a_node27"><a xlink:href="core_8h.html" target="_top" xlink:title=" ">
<polygon fill="none" stroke="black" points="2793.75,-447.5 2793.75,-466.5 2900.75,-466.5 2900.75,-447.5 2793.75,-447.5"/>
<text text-anchor="middle" x="2847.25" y="-454.5" font-family="Helvetica,sans-Serif" font-size="10.00">seerep&#45;core/core.h</text>
</a>
</g>
</g>
<!-- Node2&#45;&gt;Node27 -->
<g id="edge32" class="edge">
<title>Node2&#45;&gt;Node27</title>
<path fill="none" stroke="midnightblue" d="M2463.43,-509.9C2545.35,-498.83 2697.21,-478.29 2783.31,-466.65"/>
<polygon fill="midnightblue" stroke="midnightblue" points="2784.04,-470.08 2793.48,-465.27 2783.1,-463.14 2784.04,-470.08"/>
</g>
<!-- Node5&#45;&gt;Node3 -->
<g id="edge5" class="edge">
<title>Node5&#45;&gt;Node3</title>
<path fill="none" stroke="midnightblue" d="M2029.98,-209.32C2407.83,-204.89 4489.81,-179.97 4772.25,-165 4812.46,-162.87 4858.17,-158.57 4890.59,-155.21"/>
<polygon fill="midnightblue" stroke="midnightblue" points="4891.04,-158.68 4900.62,-154.15 4890.31,-151.72 4891.04,-158.68"/>
</g>
<!-- Node5&#45;&gt;Node4 -->
<g id="edge6" class="edge">
<title>Node5&#45;&gt;Node4</title>
<path fill="none" stroke="midnightblue" d="M1969.92,-201.36C1968.03,-185.67 1966.55,-152.44 1984.25,-134 2083.08,-31.06 2157,-87.24 2298.25,-67 2540.03,-32.36 2833.93,-20.73 2937.72,-17.54"/>
<polygon fill="midnightblue" stroke="midnightblue" points="2938.12,-21.03 2948.01,-17.23 2937.91,-14.03 2938.12,-21.03"/>
</g>
<!-- Node6 -->
<g id="node6" class="node">
<title>Node6</title>
<g id="a_node6"><a xlink:title=" ">
<polygon fill="none" stroke="#bfbfbf" points="1339.25,-140 1339.25,-159 1467.25,-159 1467.25,-140 1339.25,-140"/>
<text text-anchor="middle" x="1403.25" y="-147" font-family="Helvetica,sans-Serif" font-size="10.00">flatbuffers/flatbuffers.h</text>
</a>
</g>
</g>
<!-- Node5&#45;&gt;Node6 -->
<g id="edge7" class="edge">
<title>Node5&#45;&gt;Node6</title>
<path fill="none" stroke="midnightblue" d="M1912.73,-206.68C1819.86,-200.97 1633.19,-187.65 1476.25,-165 1468.43,-163.87 1460.18,-162.45 1452.15,-160.95"/>
<polygon fill="midnightblue" stroke="midnightblue" points="1452.63,-157.48 1442.15,-159.01 1451.3,-164.35 1452.63,-157.48"/>
</g>
<!-- Node7 -->
<g id="node7" class="node">
<title>Node7</title>
<g id="a_node7"><a xlink:title=" ">
<polygon fill="none" stroke="#bfbfbf" points="1485.75,-140 1485.75,-159 1584.75,-159 1584.75,-140 1485.75,-140"/>
<text text-anchor="middle" x="1535.25" y="-147" font-family="Helvetica,sans-Serif" font-size="10.00">flatbuffers/grpc.h</text>
</a>
</g>
</g>
<!-- Node5&#45;&gt;Node7 -->
<g id="edge8" class="edge">
<title>Node5&#45;&gt;Node7</title>
<path fill="none" stroke="midnightblue" d="M1912.47,-205.23C1838.02,-198.67 1705.96,-185.32 1594.25,-165 1588.68,-163.99 1582.84,-162.76 1577.1,-161.45"/>
<polygon fill="midnightblue" stroke="midnightblue" points="1577.48,-157.95 1566.95,-159.04 1575.87,-164.76 1577.48,-157.95"/>
</g>
<!-- Node8 -->
<g id="node8" class="node">
<title>Node8</title>
<g id="a_node8"><a xlink:title=" ">
<polygon fill="none" stroke="#bfbfbf" points="1603.25,-134.5 1603.25,-164.5 1729.25,-164.5 1729.25,-134.5 1603.25,-134.5"/>
<text text-anchor="start" x="1611.25" y="-152.5" font-family="Helvetica,sans-Serif" font-size="10.00">seerep&#45;msgs/datatype</text>
<text text-anchor="middle" x="1666.25" y="-141.5" font-family="Helvetica,sans-Serif" font-size="10.00">_generated.h</text>
</a>
</g>
</g>
<!-- Node5&#45;&gt;Node8 -->
<g id="edge9" class="edge">
<title>Node5&#45;&gt;Node8</title>
<path fill="none" stroke="midnightblue" d="M1926.57,-201.48C1881.75,-192.91 1810.5,-179.22 1739.48,-165.23"/>
<polygon fill="midnightblue" stroke="midnightblue" points="1739.95,-161.76 1729.46,-163.26 1738.6,-168.63 1739.95,-161.76"/>
</g>
<!-- Node9 -->
<g id="node9" class="node">
<title>Node9</title>
<g id="a_node9"><a xlink:title=" ">
<polygon fill="none" stroke="#bfbfbf" points="1747.75,-140 1747.75,-159 1924.75,-159 1924.75,-140 1747.75,-140"/>
<text text-anchor="middle" x="1836.25" y="-147" font-family="Helvetica,sans-Serif" font-size="10.00">seerep&#45;msgs/image_generated.h</text>
</a>
</g>
</g>
<!-- Node5&#45;&gt;Node9 -->
<g id="edge10" class="edge">
<title>Node5&#45;&gt;Node9</title>
<path fill="none" stroke="midnightblue" d="M1951.91,-201.48C1929.16,-191.45 1891.16,-174.7 1864.97,-163.15"/>
<polygon fill="midnightblue" stroke="midnightblue" points="1866.12,-159.84 1855.56,-159.01 1863.3,-166.24 1866.12,-159.84"/>
</g>
<!-- Node10 -->
<g id="node10" class="node">
<title>Node10</title>
<g id="a_node10"><a xlink:title=" ">
<polygon fill="none" stroke="#bfbfbf" points="487.75,-134.5 487.75,-164.5 626.75,-164.5 626.75,-134.5 487.75,-134.5"/>
<text text-anchor="start" x="495.75" y="-152.5" font-family="Helvetica,sans-Serif" font-size="10.00">seerep&#45;msgs/point_cloud</text>
<text text-anchor="middle" x="557.25" y="-141.5" font-family="Helvetica,sans-Serif" font-size="10.00">_2_generated.h</text>
</a>
</g>
</g>
<!-- Node5&#45;&gt;Node10 -->
<g id="edge11" class="edge">
<title>Node5&#45;&gt;Node10</title>
<path fill="none" stroke="midnightblue" d="M1912.58,-209.2C1691.58,-205.99 908.54,-192.96 637.13,-165.07"/>
<polygon fill="midnightblue" stroke="midnightblue" points="637.23,-161.56 626.92,-163.99 636.49,-168.52 637.23,-161.56"/>
</g>
<!-- Node11 -->
<g id="node11" class="node">
<title>Node11</title>
<g id="a_node11"><a xlink:title=" ">
<polygon fill="none" stroke="#bfbfbf" points="644.75,-134.5 644.75,-164.5 799.75,-164.5 799.75,-134.5 644.75,-134.5"/>
<text text-anchor="start" x="652.75" y="-152.5" font-family="Helvetica,sans-Serif" font-size="10.00">seerep&#45;msgs/point_stamped</text>
<text text-anchor="middle" x="722.25" y="-141.5" font-family="Helvetica,sans-Serif" font-size="10.00">_generated.h</text>
</a>
</g>
</g>
<!-- Node5&#45;&gt;Node11 -->
<g id="edge12" class="edge">
<title>Node5&#45;&gt;Node11</title>
<path fill="none" stroke="midnightblue" d="M1912.73,-210.34C1743.47,-210.78 1238.74,-208.15 810.09,-164.98"/>
<polygon fill="midnightblue" stroke="midnightblue" points="810.28,-161.48 799.98,-163.95 809.57,-168.45 810.28,-161.48"/>
</g>
<!-- Node12 -->
<g id="node12" class="node">
<title>Node12</title>
<g id="a_node12"><a xlink:title=" ">
<polygon fill="none" stroke="#bfbfbf" points="818.25,-140 818.25,-159 992.25,-159 992.25,-140 818.25,-140"/>
<text text-anchor="middle" x="905.25" y="-147" font-family="Helvetica,sans-Serif" font-size="10.00">seerep&#45;msgs/query_generated.h</text>
</a>
</g>
</g>
<!-- Node5&#45;&gt;Node12 -->
<g id="edge13" class="edge">
<title>Node5&#45;&gt;Node12</title>
<path fill="none" stroke="midnightblue" d="M1912.6,-209.39C1761.32,-207.37 1345.61,-198.9 1001.25,-165 989.46,-163.84 976.9,-162.22 964.89,-160.49"/>
<polygon fill="midnightblue" stroke="midnightblue" points="965.36,-157.02 954.96,-159.01 964.33,-163.94 965.36,-157.02"/>
</g>
<!-- Node5&#45;&gt;Node13 -->
<g id="edge14" class="edge">
<title>Node5&#45;&gt;Node13</title>
<path fill="none" stroke="midnightblue" d="M1912.63,-209.5C1656.89,-207.17 636.84,-196.14 292.85,-164.93"/>
<polygon fill="midnightblue" stroke="midnightblue" points="293.15,-161.44 282.87,-164 292.5,-168.41 293.15,-161.44"/>
</g>
<!-- Node14 -->
<g id="node14" class="node">
<title>Node14</title>
<g id="a_node14"><a xlink:title=" ">
<polygon fill="none" stroke="#bfbfbf" points="1010.75,-134.5 1010.75,-164.5 1141.75,-164.5 1141.75,-134.5 1010.75,-134.5"/>
<text text-anchor="start" x="1018.75" y="-152.5" font-family="Helvetica,sans-Serif" font-size="10.00">seerep&#45;msgs/transform</text>
<text text-anchor="middle" x="1076.25" y="-141.5" font-family="Helvetica,sans-Serif" font-size="10.00">_stamped_generated.h</text>
</a>
</g>
</g>
<!-- Node5&#45;&gt;Node14 -->
<g id="edge15" class="edge">
<title>Node5&#45;&gt;Node14</title>
<path fill="none" stroke="midnightblue" d="M1912.52,-209.57C1779.02,-208 1442.45,-200.63 1152.25,-165.14"/>
<polygon fill="midnightblue" stroke="midnightblue" points="1152.3,-161.62 1141.95,-163.86 1151.44,-168.56 1152.3,-161.62"/>
</g>
<!-- Node15 -->
<g id="node15" class="node">
<title>Node15</title>
<g id="a_node15"><a xlink:title=" ">
<polygon fill="none" stroke="#bfbfbf" points="1159.75,-134.5 1159.75,-164.5 1320.75,-164.5 1320.75,-134.5 1159.75,-134.5"/>
<text text-anchor="start" x="1167.75" y="-152.5" font-family="Helvetica,sans-Serif" font-size="10.00">seerep&#45;msgs/transform</text>
<text text-anchor="middle" x="1240.25" y="-141.5" font-family="Helvetica,sans-Serif" font-size="10.00">_stamped_query_generated.h</text>
</a>
</g>
</g>
<!-- Node5&#45;&gt;Node15 -->
<g id="edge16" class="edge">
<title>Node5&#45;&gt;Node15</title>
<path fill="none" stroke="midnightblue" d="M1912.32,-207.63C1800.91,-202.77 1551.56,-190.05 1331.29,-165.05"/>
<polygon fill="midnightblue" stroke="midnightblue" points="1331.49,-161.55 1321.16,-163.89 1330.7,-168.5 1331.49,-161.55"/>
</g>
<!-- Node5&#45;&gt;Node16 -->
<g id="edge17" class="edge">
<title>Node5&#45;&gt;Node16</title>
<path fill="none" stroke="midnightblue" d="M1912.45,-210.31C1711.7,-210.92 1035,-209.32 478.25,-165 466.34,-164.05 453.76,-162.73 441.49,-161.27"/>
<polygon fill="midnightblue" stroke="midnightblue" points="441.64,-157.77 431.29,-160.02 440.79,-164.71 441.64,-157.77"/>
</g>
<!-- Node17 -->
<g id="node17" class="node">
<title>Node17</title>
<g id="a_node17"><a xlink:title=" ">
<polygon fill="none" stroke="#bfbfbf" points="4515.75,-0.5 4515.75,-30.5 4634.75,-30.5 4634.75,-0.5 4515.75,-0.5"/>
<text text-anchor="start" x="4523.75" y="-18.5" font-family="Helvetica,sans-Serif" font-size="10.00">seerep&#45;msgs/dataset</text>
<text text-anchor="middle" x="4575.25" y="-7.5" font-family="Helvetica,sans-Serif" font-size="10.00">&#45;indexable.h</text>
</a>
</g>
</g>
<!-- Node5&#45;&gt;Node17 -->
<g id="edge18" class="edge">
<title>Node5&#45;&gt;Node17</title>
<path fill="none" stroke="midnightblue" d="M2030.02,-209.3C2422.75,-204.56 4651.3,-177.16 4663.25,-165 4701.35,-126.26 4641.36,-67.92 4603.1,-37.16"/>
<polygon fill="midnightblue" stroke="midnightblue" points="4604.87,-34.1 4594.84,-30.68 4600.54,-39.61 4604.87,-34.1"/>
</g>
<!-- Node5&#45;&gt;Node18 -->
<g id="edge19" class="edge">
<title>Node5&#45;&gt;Node18</title>
<path fill="none" stroke="midnightblue" d="M1999.77,-201.48C2034.49,-191.09 2093.29,-173.51 2131.95,-161.95"/>
<polygon fill="midnightblue" stroke="midnightblue" points="2133.22,-165.23 2141.8,-159.01 2131.21,-158.52 2133.22,-165.23"/>
</g>
<!-- Node19 -->
<g id="node19" class="node">
<title>Node19</title>
<g id="a_node19"><a xlink:title=" ">
<polygon fill="none" stroke="#bfbfbf" points="2590.25,-140 2590.25,-159 2720.25,-159 2720.25,-140 2590.25,-140"/>
<text text-anchor="middle" x="2655.25" y="-147" font-family="Helvetica,sans-Serif" font-size="10.00">seerep&#45;msgs/query&#45;tf.h</text>
</a>
</g>
</g>
<!-- Node5&#45;&gt;Node19 -->
<g id="edge20" class="edge">
<title>Node5&#45;&gt;Node19</title>
<path fill="none" stroke="midnightblue" d="M2029.96,-208.01C2138.98,-203.8 2379.97,-192.05 2581.25,-165 2589.37,-163.91 2597.94,-162.49 2606.26,-160.96"/>
<polygon fill="midnightblue" stroke="midnightblue" points="2607.06,-164.37 2616.23,-159.06 2605.75,-157.49 2607.06,-164.37"/>
</g>
<!-- Node5&#45;&gt;Node20 -->
<g id="edge21" class="edge">
<title>Node5&#45;&gt;Node20</title>
<path fill="none" stroke="midnightblue" d="M2029.77,-203.58C2130.54,-192.51 2336.34,-169.92 2444.05,-158.1"/>
<polygon fill="midnightblue" stroke="midnightblue" points="2444.6,-161.56 2454.16,-156.99 2443.84,-154.6 2444.6,-161.56"/>
</g>
<!-- Node21 -->
<g id="node21" class="node">
<title>Node21</title>
<g id="a_node21"><a xlink:title=" ">
<polygon fill="none" stroke="#bfbfbf" points="2672.25,-73 2672.25,-92 2872.25,-92 2872.25,-73 2672.25,-73"/>
<text text-anchor="middle" x="2772.25" y="-80" font-family="Helvetica,sans-Serif" font-size="10.00">geometry_msgs/TransformStamped.h</text>
</a>
</g>
</g>
<!-- Node5&#45;&gt;Node21 -->
<g id="edge22" class="edge">
<title>Node5&#45;&gt;Node21</title>
<path fill="none" stroke="midnightblue" d="M1973.35,-201.03C1977.75,-184.5 1989.61,-149.49 2014.25,-134 2067.69,-100.41 2465.02,-88.82 2662.09,-85.11"/>
<polygon fill="midnightblue" stroke="midnightblue" points="2662.25,-88.6 2672.18,-84.92 2662.12,-81.61 2662.25,-88.6"/>
</g>
<!-- Node5&#45;&gt;Node22 -->
<g id="edge23" class="edge">
<title>Node5&#45;&gt;Node22</title>
<path fill="none" stroke="midnightblue" d="M2029.81,-209.31C2426.16,-204.59 4701.35,-177.02 4734.25,-165 4754.73,-157.52 4753.84,-145.66 4772.25,-134 4796.15,-118.87 4825.28,-105.31 4846.95,-96.05"/>
<polygon fill="midnightblue" stroke="midnightblue" points="4848.47,-99.21 4856.34,-92.12 4845.76,-92.76 4848.47,-99.21"/>
</g>
<!-- Node5&#45;&gt;Node23 -->
<g id="edge24" class="edge">
<title>Node5&#45;&gt;Node23</title>
<path fill="none" stroke="midnightblue" d="M2029.95,-209.26C2327.11,-205.39 3654.85,-186.97 3739.25,-165 3767.92,-157.54 3770.96,-145.52 3798.25,-134 3835.9,-118.11 3880.38,-104.08 3912.02,-94.87"/>
<polygon fill="midnightblue" stroke="midnightblue" points="3913.17,-98.18 3921.81,-92.05 3911.23,-91.45 3913.17,-98.18"/>
</g>
<!-- Node5&#45;&gt;Node24 -->
<g id="edge25" class="edge">
<title>Node5&#45;&gt;Node24</title>
<path fill="none" stroke="midnightblue" d="M2029.99,-209.3C2422.57,-204.56 4651.12,-177.14 4683.25,-165 4746.07,-141.27 4744.17,-106.8 4798.25,-67 4816.5,-53.57 4838.31,-39.95 4854.54,-30.25"/>
<polygon fill="midnightblue" stroke="midnightblue" points="4856.56,-33.12 4863.39,-25.02 4853,-27.1 4856.56,-33.12"/>
</g>
<!-- Node5&#45;&gt;Node25 -->
<g id="edge26" class="edge">
<title>Node5&#45;&gt;Node25</title>
<path fill="none" stroke="midnightblue" d="M1987.9,-201.49C2004.04,-192.98 2029.01,-179.16 2049.25,-165 2066.83,-152.7 2066.2,-141.61 2086.25,-134 2218.54,-83.78 3218.33,-110.81 3359.25,-98 3371.07,-96.93 3383.67,-95.31 3395.67,-93.55"/>
<polygon fill="midnightblue" stroke="midnightblue" points="3396.22,-97 3405.58,-92.03 3395.16,-90.08 3396.22,-97"/>
</g>
<!-- Node5&#45;&gt;Node26 -->
<g id="edge27" class="edge">
<title>Node5&#45;&gt;Node26</title>
<path fill="none" stroke="midnightblue" d="M1979.91,-201.22C1998.93,-182.02 2043.36,-137.73 2052.25,-134 2065.7,-128.36 2947.8,-95.82 3212.17,-86.19"/>
<polygon fill="midnightblue" stroke="midnightblue" points="3212.57,-89.68 3222.43,-85.81 3212.31,-82.68 3212.57,-89.68"/>
</g>
<!-- Node27&#45;&gt;Node3 -->
<g id="edge39" class="edge">
<title>Node27&#45;&gt;Node3</title>
<path fill="none" stroke="midnightblue" d="M2900.84,-455.69C3219.58,-453.73 4853.5,-442.19 4894.25,-411 4924.24,-388.05 4918.25,-367.26 4918.25,-329.5 4918.25,-329.5 4918.25,-329.5 4918.25,-266 4918.25,-231.58 4924.89,-191.86 4929.33,-169.11"/>
<polygon fill="midnightblue" stroke="midnightblue" points="4932.8,-169.64 4931.35,-159.14 4925.94,-168.25 4932.8,-169.64"/>
</g>
<!-- Node27&#45;&gt;Node4 -->
<g id="edge40" class="edge">
<title>Node27&#45;&gt;Node4</title>
<path fill="none" stroke="midnightblue" d="M2793.68,-455.34C2688.72,-453.31 2460.15,-445 2390.25,-411 2345.17,-389.07 2312.25,-379.64 2312.25,-329.5 2312.25,-329.5 2312.25,-329.5 2312.25,-148.5 2312.25,-20.06 2796.22,-14.72 2937.79,-15.9"/>
<polygon fill="midnightblue" stroke="midnightblue" points="2938.11,-19.41 2948.15,-16.01 2938.18,-12.41 2938.11,-19.41"/>
</g>
<!-- Node27&#45;&gt;Node17 -->
<g id="edge41" class="edge">
<title>Node27&#45;&gt;Node17</title>
<path fill="none" stroke="midnightblue" d="M2900.95,-455.71C3233.59,-453.83 5000.66,-442.36 5046.25,-411 5154.09,-336.82 5204.04,-251.44 5146.25,-134 5124.71,-90.21 5104.57,-85.11 5059.25,-67 5021.72,-52 4769.84,-31.21 4645.05,-21.66"/>
<polygon fill="midnightblue" stroke="midnightblue" points="4645.07,-18.16 4634.83,-20.89 4644.54,-25.13 4645.07,-18.16"/>
</g>
<!-- Node27&#45;&gt;Node18 -->
<g id="edge43" class="edge">
<title>Node27&#45;&gt;Node18</title>
<path fill="none" stroke="midnightblue" d="M2793.32,-454.07C2663.46,-449.06 2340.98,-434.4 2298.25,-411 2258.34,-389.14 2236.25,-375.01 2236.25,-329.5 2236.25,-329.5 2236.25,-329.5 2236.25,-266 2236.25,-226.04 2206.1,-187.33 2186.56,-166.44"/>
<polygon fill="midnightblue" stroke="midnightblue" points="2188.91,-163.84 2179.43,-159.1 2183.89,-168.71 2188.91,-163.84"/>
</g>
<!-- Node27&#45;&gt;Node19 -->
<g id="edge44" class="edge">
<title>Node27&#45;&gt;Node19</title>
<path fill="none" stroke="midnightblue" d="M2841.72,-447.19C2815.27,-405.11 2701.67,-224.35 2666.01,-167.61"/>
<polygon fill="midnightblue" stroke="midnightblue" points="2668.92,-165.66 2660.63,-159.06 2662.99,-169.39 2668.92,-165.66"/>
</g>
<!-- Node27&#45;&gt;Node20 -->
<g id="edge45" class="edge">
<title>Node27&#45;&gt;Node20</title>
<path fill="none" stroke="midnightblue" d="M2793.66,-453.93C2715.46,-447.71 2579.25,-423.4 2579.25,-329.5 2579.25,-329.5 2579.25,-329.5 2579.25,-266 2579.25,-226.04 2549.1,-187.33 2529.56,-166.44"/>
<polygon fill="midnightblue" stroke="midnightblue" points="2531.91,-163.84 2522.43,-159.1 2526.89,-168.71 2531.91,-163.84"/>
</g>
<!-- Node27&#45;&gt;Node21 -->
<g id="edge46" class="edge">
<title>Node27&#45;&gt;Node21</title>
<path fill="none" stroke="midnightblue" d="M2793.52,-453.3C2703.49,-448.16 2526.45,-435.26 2469.25,-411 2416.47,-388.61 2369.25,-386.84 2369.25,-329.5 2369.25,-329.5 2369.25,-329.5 2369.25,-266 2369.25,-204.3 2364.97,-173.64 2412.25,-134 2449.2,-103.03 2570.26,-91.04 2661.88,-86.4"/>
<polygon fill="midnightblue" stroke="midnightblue" points="2662.23,-89.89 2672.05,-85.91 2661.9,-82.9 2662.23,-89.89"/>
</g>
<!-- Node27&#45;&gt;Node22 -->
<g id="edge33" class="edge">
<title>Node27&#45;&gt;Node22</title>
<path fill="none" stroke="midnightblue" d="M2900.95,-455.67C3222.15,-453.57 4877.03,-441.31 4919.25,-411 5024.29,-335.58 5081.28,-240.71 5008.25,-134 4998.05,-119.09 4955.55,-104.4 4921.88,-94.74"/>
<polygon fill="midnightblue" stroke="midnightblue" points="4922.78,-91.36 4912.21,-92.03 4920.9,-98.1 4922.78,-91.36"/>
</g>
<!-- Node27&#45;&gt;Node23 -->
<g id="edge34" class="edge">
<title>Node27&#45;&gt;Node23</title>
<path fill="none" stroke="midnightblue" d="M2900.98,-456.66C3105.7,-458.32 3835.25,-456.11 4032.25,-344 4129.96,-288.4 4243.29,-221.94 4173.25,-134 4170.56,-130.62 4067.22,-107.94 4003.15,-94.15"/>
<polygon fill="midnightblue" stroke="midnightblue" points="4003.73,-90.7 3993.22,-92.02 4002.26,-97.54 4003.73,-90.7"/>
</g>
<!-- Node27&#45;&gt;Node24 -->
<g id="edge35" class="edge">
<title>Node27&#45;&gt;Node24</title>
<path fill="none" stroke="midnightblue" d="M2900.78,-455.98C3219.35,-455.73 4855.18,-452.43 4952.25,-411 5074.7,-358.74 5089.9,-265.01 5066.25,-134 5060.61,-102.72 5064.36,-88.83 5041.25,-67 5015.2,-42.38 4977.37,-29.76 4944.71,-23.28"/>
<polygon fill="midnightblue" stroke="midnightblue" points="4945.22,-19.82 4934.76,-21.46 4943.97,-26.71 4945.22,-19.82"/>
</g>
<!-- Node27&#45;&gt;Node25 -->
<g id="edge36" class="edge">
<title>Node27&#45;&gt;Node25</title>
<path fill="none" stroke="midnightblue" d="M2900.81,-453.35C2981.78,-448.57 3130.84,-436.54 3177.25,-411 3316.47,-334.4 3415.59,-157.47 3444.54,-101.1"/>
<polygon fill="midnightblue" stroke="midnightblue" points="3447.74,-102.53 3449.12,-92.02 3441.49,-99.37 3447.74,-102.53"/>
</g>
<!-- Node27&#45;&gt;Node26 -->
<g id="edge37" class="edge">
<title>Node27&#45;&gt;Node26</title>
<path fill="none" stroke="midnightblue" d="M2793.66,-453.64C2740.8,-449.7 2658.66,-439.15 2593.25,-411 2537.37,-386.94 2483.25,-390.35 2483.25,-329.5 2483.25,-329.5 2483.25,-329.5 2483.25,-266 2483.25,-204.95 2403.4,-178.44 2445.25,-134 2458.34,-120.11 3009.26,-95.29 3212.21,-86.61"/>
<polygon fill="midnightblue" stroke="midnightblue" points="3212.63,-90.09 3222.47,-86.17 3212.33,-83.1 3212.63,-90.09"/>
</g>
<!-- Node28 -->
<g id="node28" class="node">
<title>Node28</title>
<g id="a_node28"><a xlink:title=" ">
<polygon fill="none" stroke="#bfbfbf" points="3313.25,-386 3313.25,-405 3381.25,-405 3381.25,-386 3313.25,-386"/>
<text text-anchor="middle" x="3347.25" y="-393" font-family="Helvetica,sans-Serif" font-size="10.00">filesystem</text>
</a>
</g>
</g>
<!-- Node27&#45;&gt;Node28 -->
<g id="edge38" class="edge">
<title>Node27&#45;&gt;Node28</title>
<path fill="none" stroke="midnightblue" d="M2900.98,-454.02C2986.16,-450.14 3157.13,-439.26 3299.25,-411 3303.48,-410.16 3307.87,-409.1 3312.19,-407.94"/>
<polygon fill="midnightblue" stroke="midnightblue" points="3313.43,-411.23 3322.08,-405.11 3311.5,-404.5 3313.43,-411.23"/>
</g>
<!-- Node29 -->
<g id="node29" class="node">
<title>Node29</title>
<g id="a_node29"><a xlink:title=" ">
<polygon fill="none" stroke="#bfbfbf" points="3399.25,-380.5 3399.25,-410.5 3515.25,-410.5 3515.25,-380.5 3399.25,-380.5"/>
<text text-anchor="start" x="3407.25" y="-398.5" font-family="Helvetica,sans-Serif" font-size="10.00">seerep&#45;msgs/project</text>
<text text-anchor="middle" x="3457.25" y="-387.5" font-family="Helvetica,sans-Serif" font-size="10.00">&#45;info.h</text>
</a>
</g>
</g>
<!-- Node27&#45;&gt;Node29 -->
<g id="edge42" class="edge">
<title>Node27&#45;&gt;Node29</title>
<path fill="none" stroke="midnightblue" d="M2901.09,-453.87C2997.16,-449.56 3204.58,-437.95 3389.08,-411.04"/>
<polygon fill="midnightblue" stroke="midnightblue" points="3389.85,-414.47 3399.23,-409.54 3388.83,-407.54 3389.85,-414.47"/>
</g>
<!-- Node30 -->
<g id="node30" class="node">
<title>Node30</title>
<g id="a_node30"><a xlink:href="core-project_8h.html" target="_top" xlink:title=" ">
<polygon fill="none" stroke="black" points="3084.25,-386 3084.25,-405 3168.25,-405 3168.25,-386 3084.25,-386"/>
<text text-anchor="middle" x="3126.25" y="-393" font-family="Helvetica,sans-Serif" font-size="10.00">core&#45;project.h</text>
</a>
</g>
</g>
<!-- Node27&#45;&gt;Node30 -->
<g id="edge47" class="edge">
<title>Node27&#45;&gt;Node30</title>
<path fill="none" stroke="midnightblue" d="M2887.23,-447.48C2937.05,-436.85 3022.23,-418.68 3076.3,-407.15"/>
<polygon fill="midnightblue" stroke="midnightblue" points="3077.3,-410.52 3086.35,-405.01 3075.84,-403.67 3077.3,-410.52"/>
</g>
<!-- Node40 -->
<g id="node38" class="node">
<title>Node40</title>
<g id="a_node38"><a xlink:title=" ">
<polygon fill="none" stroke="#bfbfbf" points="183.75,-0.5 183.75,-30.5 328.75,-30.5 328.75,-0.5 183.75,-0.5"/>
<text text-anchor="start" x="191.75" y="-18.5" font-family="Helvetica,sans-Serif" font-size="10.00">boost/log/sources/severity</text>
<text text-anchor="middle" x="256.25" y="-7.5" font-family="Helvetica,sans-Serif" font-size="10.00">_logger.hpp</text>
</a>
</g>
</g>
<!-- Node27&#45;&gt;Node40 -->
<g id="edge170" class="edge">
<title>Node27&#45;&gt;Node40</title>
<path fill="none" stroke="midnightblue" d="M2793.66,-456.11C2474.26,-456.37 818.79,-452.4 324.25,-344 202.91,-317.4 131.61,-330.67 73.25,-221 40.37,-159.21 52.26,-111.55 106.25,-67 125.63,-51.02 150.29,-40.01 173.99,-32.46"/>
<polygon fill="midnightblue" stroke="midnightblue" points="175.15,-35.77 183.72,-29.53 173.14,-29.06 175.15,-35.77"/>
</g>
<!-- Node41 -->
<g id="node39" class="node">
<title>Node41</title>
<g id="a_node39"><a xlink:title=" ">
<polygon fill="none" stroke="#bfbfbf" points="492.25,-6 492.25,-25 606.25,-25 606.25,-6 492.25,-6"/>
<text text-anchor="middle" x="549.25" y="-13" font-family="Helvetica,sans-Serif" font-size="10.00">boost/log/trivial.hpp</text>
</a>
</g>
</g>
<!-- Node27&#45;&gt;Node41 -->
<g id="edge171" class="edge">
<title>Node27&#45;&gt;Node41</title>
<path fill="none" stroke="midnightblue" d="M2793.59,-455.1C2424.22,-448.29 268.59,-398.66 116.25,-165 108.73,-153.46 107.88,-144.94 116.25,-134 160.59,-76.03 372.05,-39.97 482.19,-24.8"/>
<polygon fill="midnightblue" stroke="midnightblue" points="482.76,-28.26 492.2,-23.44 481.82,-21.32 482.76,-28.26"/>
</g>
<!-- Node30&#45;&gt;Node3 -->
<g id="edge51" class="edge">
<title>Node30&#45;&gt;Node3</title>
<path fill="none" stroke="midnightblue" d="M3168.31,-390.82C3204.37,-387.72 3257.71,-383.28 3304.25,-380 3572.07,-361.1 3640.78,-376.77 3907.25,-344 4336.29,-291.24 4439.15,-248.62 4863.25,-165 4872.1,-163.26 4881.56,-161.33 4890.58,-159.47"/>
<polygon fill="midnightblue" stroke="midnightblue" points="4891.44,-162.87 4900.52,-157.42 4890.02,-156.02 4891.44,-162.87"/>
</g>
<!-- Node30&#45;&gt;Node4 -->
<g id="edge52" class="edge">
<title>Node30&#45;&gt;Node4</title>
<path fill="none" stroke="midnightblue" d="M3084.08,-391.51C3018.28,-386.14 2887.59,-372.64 2780.25,-344 2604.53,-297.11 2482.6,-332.72 2412.25,-165 2406.93,-152.29 2403.92,-144.97 2412.25,-134 2476.39,-49.5 2821.49,-24.36 2937.89,-18.22"/>
<polygon fill="midnightblue" stroke="midnightblue" points="2938.3,-21.71 2948.11,-17.7 2937.94,-14.72 2938.3,-21.71"/>
</g>
<!-- Node30&#45;&gt;Node17 -->
<g id="edge53" class="edge">
<title>Node30&#45;&gt;Node17</title>
<path fill="none" stroke="midnightblue" d="M3168.31,-390.69C3204.36,-387.52 3257.69,-383.05 3304.25,-380 4034.11,-332.24 4228.14,-379.18 4942.25,-221 5024.05,-202.88 5072.58,-232.47 5122.25,-165 5192.3,-69.85 5127.36,-111.79 4959.25,-67 4851.83,-38.38 4723.01,-25.66 4645.22,-20.25"/>
<polygon fill="midnightblue" stroke="midnightblue" points="4645.27,-16.74 4635.06,-19.56 4644.8,-23.73 4645.27,-16.74"/>
</g>
<!-- Node30&#45;&gt;Node19 -->
<g id="edge55" class="edge">
<title>Node30&#45;&gt;Node19</title>
<path fill="none" stroke="midnightblue" d="M3084.02,-390.75C3037.19,-385.32 2960.34,-372.59 2900.25,-344 2801.52,-297.01 2706.25,-203.91 2670.3,-166.56"/>
<polygon fill="midnightblue" stroke="midnightblue" points="2672.62,-163.92 2663.19,-159.09 2667.54,-168.74 2672.62,-163.92"/>
</g>
<!-- Node30&#45;&gt;Node20 -->
<g id="edge56" class="edge">
<title>Node30&#45;&gt;Node20</title>
<path fill="none" stroke="midnightblue" d="M3084.13,-391.69C3027.58,-386.89 2924.7,-374.45 2842.25,-344 2809.31,-331.83 2605.25,-207.08 2536.12,-164.59"/>
<polygon fill="midnightblue" stroke="midnightblue" points="2537.65,-161.42 2527.3,-159.16 2533.98,-167.38 2537.65,-161.42"/>
</g>
<!-- Node30&#45;&gt;Node24 -->
<g id="edge48" class="edge">
<title>Node30&#45;&gt;Node24</title>
<path fill="none" stroke="midnightblue" d="M3168.3,-390.55C3204.34,-387.28 3257.67,-382.76 3304.25,-380 3495.96,-368.66 4902.69,-368.84 5025.25,-221 5069,-168.24 5058.64,-121.63 5017.25,-67 4999.99,-44.22 4971.46,-31.7 4944.72,-24.83"/>
<polygon fill="midnightblue" stroke="midnightblue" points="4945.51,-21.42 4934.97,-22.54 4943.91,-28.23 4945.51,-21.42"/>
</g>
<!-- Node30&#45;&gt;Node25 -->
<g id="edge49" class="edge">
<title>Node30&#45;&gt;Node25</title>
<path fill="none" stroke="midnightblue" d="M3131.61,-385.93C3152.56,-352.61 3229.36,-231.95 3262.25,-201 3312.58,-153.66 3384.91,-115.49 3424.56,-96.53"/>
<polygon fill="midnightblue" stroke="midnightblue" points="3426.35,-99.55 3433.9,-92.12 3423.37,-93.22 3426.35,-99.55"/>
</g>
<!-- Node30&#45;&gt;Node26 -->
<g id="edge50" class="edge">
<title>Node30&#45;&gt;Node26</title>
<path fill="none" stroke="midnightblue" d="M3084.06,-390.22C3054.35,-384.75 3016.57,-372.31 2997.25,-344 2989.49,-332.62 2991.26,-325.41 2997.25,-313 3004.74,-297.5 3203.3,-146.31 3266.87,-98.15"/>
<polygon fill="midnightblue" stroke="midnightblue" points="3269.05,-100.89 3274.91,-92.07 3264.83,-95.31 3269.05,-100.89"/>
</g>
<!-- Node31 -->
<g id="node31" class="node">
<title>Node31</title>
<g id="a_node31"><a xlink:title=" ">
<polygon fill="none" stroke="#bfbfbf" points="3006.25,-313.5 3006.25,-343.5 3148.25,-343.5 3148.25,-313.5 3006.25,-313.5"/>
<text text-anchor="start" x="3014.25" y="-331.5" font-family="Helvetica,sans-Serif" font-size="10.00">seerep&#45;msgs/query&#45;result</text>
<text text-anchor="middle" x="3077.25" y="-320.5" font-family="Helvetica,sans-Serif" font-size="10.00">&#45;project.h</text>
</a>
</g>
</g>
<!-- Node30&#45;&gt;Node31 -->
<g id="edge54" class="edge">
<title>Node30&#45;&gt;Node31</title>
<path fill="none" stroke="midnightblue" d="M3119.65,-385.73C3113.09,-377.03 3102.77,-363.34 3093.95,-351.65"/>
<polygon fill="midnightblue" stroke="midnightblue" points="3096.69,-349.47 3087.88,-343.59 3091.1,-353.68 3096.69,-349.47"/>
</g>
<!-- Node32 -->
<g id="node32" class="node">
<title>Node32</title>
<g id="a_node32"><a xlink:href="hdf5-core-image_8h.html" target="_top" xlink:title=" ">
<polygon fill="none" stroke="black" points="4385.75,-134.5 4385.75,-164.5 4510.75,-164.5 4510.75,-134.5 4385.75,-134.5"/>
<text text-anchor="start" x="4393.75" y="-152.5" font-family="Helvetica,sans-Serif" font-size="10.00">seerep&#45;hdf5&#45;core/hdf5</text>
<text text-anchor="middle" x="4448.25" y="-141.5" font-family="Helvetica,sans-Serif" font-size="10.00">&#45;core&#45;image.h</text>
</a>
</g>
</g>
<!-- Node30&#45;&gt;Node32 -->
<g id="edge57" class="edge">
<title>Node30&#45;&gt;Node32</title>
<path fill="none" stroke="midnightblue" d="M3168.43,-391.05C3303.04,-380.02 3714.4,-346.22 3728.25,-344 3854.59,-323.7 3884.51,-309.57 4008.25,-277 4146.93,-240.49 4308.68,-192.61 4392.1,-167.52"/>
<polygon fill="midnightblue" stroke="midnightblue" points="4393.31,-170.81 4401.88,-164.58 4391.3,-164.11 4393.31,-170.81"/>
</g>
<!-- Node30&#45;&gt;Node40 -->
<g id="edge168" class="edge">
<title>Node30&#45;&gt;Node40</title>
<path fill="none" stroke="midnightblue" d="M3084.01,-394.8C2875.09,-396.02 1931.45,-398.1 1161.25,-344 922.72,-327.25 265.08,-386.26 92.25,-221 64.16,-194.14 65.06,-168.35 83.25,-134 109.19,-85.03 165.68,-52.69 207.09,-34.55"/>
<polygon fill="midnightblue" stroke="midnightblue" points="208.63,-37.7 216.46,-30.57 205.89,-31.26 208.63,-37.7"/>
</g>
<!-- Node30&#45;&gt;Node41 -->
<g id="edge169" class="edge">
<title>Node30&#45;&gt;Node41</title>
<path fill="none" stroke="midnightblue" d="M3084.18,-394.2C2759.64,-391.42 662.36,-365.76 478.25,-165 441.2,-124.59 499.56,-61.35 531.14,-32.19"/>
<polygon fill="midnightblue" stroke="midnightblue" points="533.78,-34.52 538.87,-25.23 529.1,-29.31 533.78,-34.52"/>
</g>
<!-- Node43 -->
<g id="node40" class="node">
<title>Node43</title>
<g id="a_node40"><a xlink:href="hdf5-core-instance_8h.html" target="_top" xlink:title=" ">
<polygon fill="none" stroke="black" points="3604.75,-134.5 3604.75,-164.5 3729.75,-164.5 3729.75,-134.5 3604.75,-134.5"/>
<text text-anchor="start" x="3612.75" y="-152.5" font-family="Helvetica,sans-Serif" font-size="10.00">seerep&#45;hdf5&#45;core/hdf5</text>
<text text-anchor="middle" x="3667.25" y="-141.5" font-family="Helvetica,sans-Serif" font-size="10.00">&#45;core&#45;instance.h</text>
</a>
</g>
</g>
<!-- Node30&#45;&gt;Node43 -->
<g id="edge79" class="edge">
<title>Node30&#45;&gt;Node43</title>
<path fill="none" stroke="midnightblue" d="M3145.19,-385.96C3222.89,-350.92 3518.24,-217.71 3626.86,-168.72"/>
<polygon fill="midnightblue" stroke="midnightblue" points="3628.5,-171.82 3636.17,-164.52 3625.62,-165.44 3628.5,-171.82"/>
</g>
<!-- Node44 -->
<g id="node41" class="node">
<title>Node44</title>
<g id="a_node41"><a xlink:href="hdf5-core-point-cloud_8h.html" target="_top" xlink:title=" ">
<polygon fill="none" stroke="black" points="4528.75,-134.5 4528.75,-164.5 4653.75,-164.5 4653.75,-134.5 4528.75,-134.5"/>
<text text-anchor="start" x="4536.75" y="-152.5" font-family="Helvetica,sans-Serif" font-size="10.00">seerep&#45;hdf5&#45;core/hdf5</text>
<text text-anchor="middle" x="4591.25" y="-141.5" font-family="Helvetica,sans-Serif" font-size="10.00">&#45;core&#45;point&#45;cloud.h</text>
</a>
</g>
</g>
<!-- Node30&#45;&gt;Node44 -->
<g id="edge90" class="edge">
<title>Node30&#45;&gt;Node44</title>
<path fill="none" stroke="midnightblue" d="M3168.32,-390.94C3204.38,-387.92 3257.73,-383.53 3304.25,-380 3531.72,-362.74 3590.96,-379.77 3816.25,-344 4091.29,-300.34 4411.71,-206.11 4537.08,-167.51"/>
<polygon fill="midnightblue" stroke="midnightblue" points="4538.31,-170.8 4546.83,-164.5 4536.24,-164.11 4538.31,-170.8"/>
</g>
<!-- Node45 -->
<g id="node42" class="node">
<title>Node45</title>
<g id="a_node42"><a xlink:href="hdf5-core-point_8h.html" target="_top" xlink:title=" ">
<polygon fill="none" stroke="black" points="4242.75,-134.5 4242.75,-164.5 4367.75,-164.5 4367.75,-134.5 4242.75,-134.5"/>
<text text-anchor="start" x="4250.75" y="-152.5" font-family="Helvetica,sans-Serif" font-size="10.00">seerep&#45;hdf5&#45;core/hdf5</text>
<text text-anchor="middle" x="4305.25" y="-141.5" font-family="Helvetica,sans-Serif" font-size="10.00">&#45;core&#45;point.h</text>
</a>
</g>
</g>
<!-- Node30&#45;&gt;Node45 -->
<g id="edge102" class="edge">
<title>Node30&#45;&gt;Node45</title>
<path fill="none" stroke="midnightblue" d="M3168.27,-391.4C3253.07,-384.88 3450.61,-368.3 3615.25,-344 3771.07,-321 3811.55,-319.35 3963.25,-277 4074.03,-246.07 4199.82,-195.33 4263.52,-168.48"/>
<polygon fill="midnightblue" stroke="midnightblue" points="4264.99,-171.66 4272.83,-164.54 4262.26,-165.21 4264.99,-171.66"/>
</g>
<!-- Node46 -->
<g id="node43" class="node">
<title>Node46</title>
<g id="a_node43"><a xlink:href="hdf5-core-tf_8h.html" target="_top" xlink:title=" ">
<polygon fill="none" stroke="black" points="3042.75,-134.5 3042.75,-164.5 3167.75,-164.5 3167.75,-134.5 3042.75,-134.5"/>
<text text-anchor="start" x="3050.75" y="-152.5" font-family="Helvetica,sans-Serif" font-size="10.00">seerep&#45;hdf5&#45;core/hdf5</text>
<text text-anchor="middle" x="3105.25" y="-141.5" font-family="Helvetica,sans-Serif" font-size="10.00">&#45;core&#45;tf.h</text>
</a>
</g>
</g>
<!-- Node30&#45;&gt;Node46 -->
<g id="edge114" class="edge">
<title>Node30&#45;&gt;Node46</title>
<path fill="none" stroke="midnightblue" d="M3084.24,-394.37C3046.04,-391.74 2991.58,-381.14 2964.25,-344 2917.59,-280.57 3017.21,-205.05 3072.16,-170.07"/>
<polygon fill="midnightblue" stroke="midnightblue" points="3074.27,-172.88 3080.89,-164.61 3070.56,-166.95 3074.27,-172.88"/>
</g>
<!-- Node47 -->
<g id="node44" class="node">
<title>Node47</title>
<g id="a_node44"><a xlink:href="core-dataset_8h.html" target="_top" xlink:title=" ">
<polygon fill="none" stroke="black" points="3448.75,-319 3448.75,-338 3535.75,-338 3535.75,-319 3448.75,-319"/>
<text text-anchor="middle" x="3492.25" y="-326" font-family="Helvetica,sans-Serif" font-size="10.00">core&#45;dataset.h</text>
</a>
</g>
</g>
<!-- Node30&#45;&gt;Node47 -->
<g id="edge120" class="edge">
<title>Node30&#45;&gt;Node47</title>
<path fill="none" stroke="midnightblue" d="M3168.6,-386.98C3235.45,-375.11 3365.37,-352.03 3438.64,-339.02"/>
<polygon fill="midnightblue" stroke="midnightblue" points="3439.36,-342.45 3448.59,-337.25 3438.13,-335.56 3439.36,-342.45"/>
</g>
<!-- Node50 -->
<g id="node47" class="node">
<title>Node50</title>
<g id="a_node47"><a xlink:href="core-instances_8h.html" target="_top" xlink:title=" ">
<polygon fill="none" stroke="black" points="3752.75,-257.5 3752.75,-276.5 3849.75,-276.5 3849.75,-257.5 3752.75,-257.5"/>
<text text-anchor="middle" x="3801.25" y="-264.5" font-family="Helvetica,sans-Serif" font-size="10.00">core&#45;instances.h</text>
</a>
</g>
</g>
<!-- Node30&#45;&gt;Node50 -->
<g id="edge166" class="edge">
<title>Node30&#45;&gt;Node50</title>
<path fill="none" stroke="midnightblue" d="M3168.26,-391.79C3244.16,-386.38 3408.94,-372.24 3545.25,-344 3626.42,-327.19 3719.07,-296.79 3767.58,-279.98"/>
<polygon fill="midnightblue" stroke="midnightblue" points="3768.96,-283.21 3777.25,-276.61 3766.65,-276.6 3768.96,-283.21"/>
</g>
<!-- Node53 -->
<g id="node50" class="node">
<title>Node53</title>
<g id="a_node50"><a xlink:href="core-tf_8h.html" target="_top" xlink:title=" ">
<polygon fill="none" stroke="red" points="2854.75,-201.5 2854.75,-220.5 2911.75,-220.5 2911.75,-201.5 2854.75,-201.5"/>
<text text-anchor="middle" x="2883.25" y="-208.5" font-family="Helvetica,sans-Serif" font-size="10.00">core&#45;tf.h</text>
</a>
</g>
</g>
<!-- Node30&#45;&gt;Node53 -->
<g id="edge167" class="edge">
<title>Node30&#45;&gt;Node53</title>
<path fill="none" stroke="midnightblue" d="M3083.95,-395.16C3039.18,-393.55 2969.16,-384.1 2926.25,-344 2894.06,-313.91 2885.92,-259.48 2883.9,-230.82"/>
<polygon fill="midnightblue" stroke="midnightblue" points="2887.38,-230.38 2883.36,-220.57 2880.39,-230.74 2887.38,-230.38"/>
</g>
<!-- Node32&#45;&gt;Node4 -->
<g id="edge73" class="edge">
<title>Node32&#45;&gt;Node4</title>
<path fill="none" stroke="midnightblue" d="M4385.55,-135.63C4382.75,-135.07 4379.97,-134.53 4377.25,-134 4290.74,-117.18 4268.82,-114.54 4182.25,-98 4112.39,-84.65 4095.89,-75.34 4025.25,-67 3628.58,-20.17 3525.77,-58.1 3127.25,-31 3088.83,-28.39 3045.02,-24.03 3014.52,-20.77"/>
<polygon fill="midnightblue" stroke="midnightblue" points="3014.64,-17.26 3004.32,-19.67 3013.89,-24.22 3014.64,-17.26"/>
</g>
<!-- Node32&#45;&gt;Node17 -->
<g id="edge71" class="edge">
<title>Node32&#45;&gt;Node17</title>
<path fill="none" stroke="midnightblue" d="M4442.79,-134.42C4437.01,-116.97 4430.47,-87.09 4444.25,-67 4458.44,-46.33 4482.36,-34.12 4505.92,-26.91"/>
<polygon fill="midnightblue" stroke="midnightblue" points="4506.91,-30.26 4515.6,-24.2 4505.03,-23.52 4506.91,-30.26"/>
</g>
<!-- Node32&#45;&gt;Node22 -->
<g id="edge74" class="edge">
<title>Node32&#45;&gt;Node22</title>
<path fill="none" stroke="midnightblue" d="M4511.04,-135.63C4514.15,-135.06 4517.24,-134.52 4520.25,-134 4615.83,-117.65 4726.42,-102.64 4799.1,-93.31"/>
<polygon fill="midnightblue" stroke="midnightblue" points="4799.63,-96.77 4809.1,-92.03 4798.74,-89.83 4799.63,-96.77"/>
</g>
<!-- Node32&#45;&gt;Node23 -->
<g id="edge75" class="edge">
<title>Node32&#45;&gt;Node23</title>
<path fill="none" stroke="midnightblue" d="M4385.59,-135.41C4382.77,-134.91 4379.99,-134.44 4377.25,-134 4254.54,-114.2 4110.67,-98.67 4026.01,-90.31"/>
<polygon fill="midnightblue" stroke="midnightblue" points="4026.28,-86.82 4015.98,-89.33 4025.59,-93.79 4026.28,-86.82"/>
</g>
<!-- Node32&#45;&gt;Node24 -->
<g id="edge76" class="edge">
<title>Node32&#45;&gt;Node24</title>
<path fill="none" stroke="midnightblue" d="M4493.98,-134.49C4525.84,-124.6 4569.26,-110.88 4607.25,-98 4645.73,-84.96 4654.51,-79.25 4693.25,-67 4740.84,-51.95 4796.13,-37.21 4833.79,-27.58"/>
<polygon fill="midnightblue" stroke="midnightblue" points="4835.09,-30.86 4843.92,-25 4833.37,-24.08 4835.09,-30.86"/>
</g>
<!-- Node32&#45;&gt;Node25 -->
<g id="edge77" class="edge">
<title>Node32&#45;&gt;Node25</title>
<path fill="none" stroke="midnightblue" d="M4385.62,-135.17C4382.8,-134.74 4380,-134.34 4377.25,-134 4044.8,-92.36 3958.57,-120.16 3624.25,-98 3599.69,-96.37 3573.18,-94.28 3548.52,-92.2"/>
<polygon fill="midnightblue" stroke="midnightblue" points="3548.71,-88.71 3538.45,-91.35 3548.11,-95.68 3548.71,-88.71"/>
</g>
<!-- Node32&#45;&gt;Node26 -->
<g id="edge78" class="edge">
<title>Node32&#45;&gt;Node26</title>
<path fill="none" stroke="midnightblue" d="M4385.63,-135.12C4382.8,-134.7 4380,-134.33 4377.25,-134 3927.7,-80.52 3808.95,-150.27 3359.25,-98 3350.77,-97.01 3341.79,-95.57 3333.15,-93.97"/>
<polygon fill="midnightblue" stroke="midnightblue" points="3333.69,-90.51 3323.21,-92.04 3332.36,-97.38 3333.69,-90.51"/>
</g>
<!-- Node33 -->
<g id="node33" class="node">
<title>Node33</title>
<g id="a_node33"><a xlink:title=" ">
<polygon fill="none" stroke="#bfbfbf" points="3986.25,-6 3986.25,-25 4096.25,-25 4096.25,-6 3986.25,-6"/>
<text text-anchor="middle" x="4041.25" y="-13" font-family="Helvetica,sans-Serif" font-size="10.00">highfive/H5File.hpp</text>
</a>
</g>
</g>
<!-- Node32&#45;&gt;Node33 -->
<g id="edge58" class="edge">
<title>Node32&#45;&gt;Node33</title>
<path fill="none" stroke="midnightblue" d="M4417.6,-134.35C4378.8,-116.83 4309.61,-86.86 4248.25,-67 4196.72,-50.32 4136.42,-36.2 4094.24,-27.17"/>
<polygon fill="midnightblue" stroke="midnightblue" points="4094.7,-23.68 4084.19,-25.04 4093.25,-30.53 4094.7,-23.68"/>
</g>
<!-- Node34 -->
<g id="node34" class="node">
<title>Node34</title>
<g id="a_node34"><a xlink:href="hdf5-core-datatype-interface_8h.html" target="_top" xlink:title=" ">
<polygon fill="none" stroke="black" points="4452.75,-67.5 4452.75,-97.5 4597.75,-97.5 4597.75,-67.5 4452.75,-67.5"/>
<text text-anchor="start" x="4460.75" y="-85.5" font-family="Helvetica,sans-Serif" font-size="10.00">seerep&#45;hdf5&#45;core/hdf5</text>
<text text-anchor="middle" x="4525.25" y="-74.5" font-family="Helvetica,sans-Serif" font-size="10.00">&#45;core&#45;datatype&#45;interface.h</text>
</a>
</g>
</g>
<!-- Node32&#45;&gt;Node34 -->
<g id="edge59" class="edge">
<title>Node32&#45;&gt;Node34</title>
<path fill="none" stroke="midnightblue" d="M4464.96,-134.4C4475.46,-125.54 4489.17,-113.96 4500.87,-104.09"/>
<polygon fill="midnightblue" stroke="midnightblue" points="4503.2,-106.7 4508.58,-97.58 4498.68,-101.35 4503.2,-106.7"/>
</g>
<!-- Node35 -->
<g id="node35" class="node">
<title>Node35</title>
<g id="a_node35"><a xlink:href="hdf5-core-general_8h.html" target="_top" xlink:title=" ">
<polygon fill="none" stroke="red" points="3632.75,-67.5 3632.75,-97.5 3757.75,-97.5 3757.75,-67.5 3632.75,-67.5"/>
<text text-anchor="start" x="3640.75" y="-85.5" font-family="Helvetica,sans-Serif" font-size="10.00">seerep&#45;hdf5&#45;core/hdf5</text>
<text text-anchor="middle" x="3695.25" y="-74.5" font-family="Helvetica,sans-Serif" font-size="10.00">&#45;core&#45;general.h</text>
</a>
</g>
</g>
<!-- Node32&#45;&gt;Node35 -->
<g id="edge63" class="edge">
<title>Node32&#45;&gt;Node35</title>
<path fill="none" stroke="midnightblue" d="M4385.61,-135.25C4382.79,-134.8 4380,-134.38 4377.25,-134 4158.74,-103.87 4102.22,-114.53 3882.25,-98 3844.57,-95.17 3802.63,-91.92 3768.03,-89.22"/>
<polygon fill="midnightblue" stroke="midnightblue" points="3768.25,-85.73 3758.01,-88.44 3767.71,-92.71 3768.25,-85.73"/>
</g>
<!-- Node37 -->
<g id="node37" class="node">
<title>Node37</title>
<g id="a_node37"><a xlink:title=" ">
<polygon fill="none" stroke="#bfbfbf" points="3771.75,-6 3771.75,-25 3884.75,-25 3884.75,-6 3771.75,-6"/>
<text text-anchor="middle" x="3828.25" y="-13" font-family="Helvetica,sans-Serif" font-size="10.00">boost/geometry.hpp</text>
</a>
</g>
</g>
<!-- Node32&#45;&gt;Node37 -->
<g id="edge72" class="edge">
<title>Node32&#45;&gt;Node37</title>
<path fill="none" stroke="midnightblue" d="M4385.45,-135.02C4345.72,-125.91 4293.51,-112.86 4248.25,-98 4213.6,-86.62 4207.45,-76.61 4172.25,-67 4121.4,-53.12 3979.83,-34.67 3894.98,-24.35"/>
<polygon fill="midnightblue" stroke="midnightblue" points="3895.28,-20.86 3884.93,-23.13 3894.43,-27.81 3895.28,-20.86"/>
</g>
<!-- Node34&#45;&gt;Node4 -->
<g id="edge62" class="edge">
<title>Node34&#45;&gt;Node4</title>
<path fill="none" stroke="midnightblue" d="M4452.7,-77.9C4388.86,-74.79 4293.4,-70.3 4210.25,-67 3729.03,-47.93 3607.85,-62.03 3127.25,-31 3088.82,-28.52 3045.01,-24.14 3014.52,-20.84"/>
<polygon fill="midnightblue" stroke="midnightblue" points="3014.64,-17.33 3004.32,-19.72 3013.88,-24.29 3014.64,-17.33"/>
</g>
<!-- Node34&#45;&gt;Node17 -->
<g id="edge60" class="edge">
<title>Node34&#45;&gt;Node17</title>
<path fill="none" stroke="midnightblue" d="M4536.1,-67.4C4542.59,-58.96 4550.97,-48.07 4558.31,-38.52"/>
<polygon fill="midnightblue" stroke="midnightblue" points="4561.1,-40.64 4564.43,-30.58 4555.55,-36.37 4561.1,-40.64"/>
</g>
<!-- Node34&#45;&gt;Node24 -->
<g id="edge61" class="edge">
<title>Node34&#45;&gt;Node24</title>
<path fill="none" stroke="midnightblue" d="M4597.97,-68.11C4664.36,-55.89 4761.15,-38.06 4821.86,-26.88"/>
<polygon fill="midnightblue" stroke="midnightblue" points="4822.82,-30.27 4832.02,-25.01 4821.55,-23.38 4822.82,-30.27"/>
</g>
<!-- Node35&#45;&gt;Node4 -->
<g id="edge68" class="edge">
<title>Node35&#45;&gt;Node4</title>
<path fill="none" stroke="midnightblue" d="M3632.73,-69.12C3627.84,-68.33 3622.98,-67.62 3618.25,-67 3401.28,-38.71 3345.28,-49.46 3127.25,-31 3088.87,-27.75 3045.06,-23.48 3014.55,-20.42"/>
<polygon fill="midnightblue" stroke="midnightblue" points="3014.65,-16.91 3004.35,-19.39 3013.94,-23.87 3014.65,-16.91"/>
</g>
<!-- Node35&#45;&gt;Node17 -->
<g id="edge66" class="edge">
<title>Node35&#45;&gt;Node17</title>
<path fill="none" stroke="midnightblue" d="M3758.12,-75.18C3785.76,-72.5 3818.6,-69.43 3848.25,-67 4089.19,-47.22 4375.47,-28.83 4505.18,-20.78"/>
<polygon fill="midnightblue" stroke="midnightblue" points="4505.61,-24.26 4515.37,-20.15 4505.18,-17.27 4505.61,-24.26"/>
</g>
<!-- Node35&#45;&gt;Node33 -->
<g id="edge64" class="edge">
<title>Node35&#45;&gt;Node33</title>
<path fill="none" stroke="midnightblue" d="M3757.91,-69.73C3822.94,-57.51 3923.66,-38.59 3985.86,-26.91"/>
<polygon fill="midnightblue" stroke="midnightblue" points="3986.7,-30.31 3995.88,-25.02 3985.41,-23.43 3986.7,-30.31"/>
</g>
<!-- Node36 -->
<g id="node36" class="node">
<title>Node36</title>
<g id="a_node36"><a xlink:title=" ">
<polygon fill="none" stroke="#bfbfbf" points="3136.25,-6 3136.25,-25 3252.25,-25 3252.25,-6 3136.25,-6"/>
<text text-anchor="middle" x="3194.25" y="-13" font-family="Helvetica,sans-Serif" font-size="10.00">seerep&#45;msgs/aabb.h</text>
</a>
</g>
</g>
<!-- Node35&#45;&gt;Node36 -->
<g id="edge65" class="edge">
<title>Node35&#45;&gt;Node36</title>
<path fill="none" stroke="midnightblue" d="M3632.7,-69.35C3627.82,-68.52 3622.96,-67.72 3618.25,-67 3493.23,-47.8 3346.5,-31.76 3262.55,-23.2"/>
<polygon fill="midnightblue" stroke="midnightblue" points="3262.68,-19.69 3252.37,-22.17 3261.97,-26.66 3262.68,-19.69"/>
</g>
<!-- Node35&#45;&gt;Node37 -->
<g id="edge67" class="edge">
<title>Node35&#45;&gt;Node37</title>
<path fill="none" stroke="midnightblue" d="M3724.11,-67.4C3747.14,-56.14 3779.14,-40.5 3801.58,-29.54"/>
<polygon fill="midnightblue" stroke="midnightblue" points="3803.4,-32.54 3810.85,-25.01 3800.33,-26.25 3803.4,-32.54"/>
</g>
<!-- Node35&#45;&gt;Node40 -->
<g id="edge69" class="edge">
<title>Node35&#45;&gt;Node40</title>
<path fill="none" stroke="midnightblue" d="M3632.69,-74.17C3606.35,-71.4 3575.35,-68.54 3547.25,-67 2187.42,7.46 1844.15,-82.42 483.25,-31 435.4,-29.19 381.94,-25.84 338.92,-22.82"/>
<polygon fill="midnightblue" stroke="midnightblue" points="339.01,-19.32 328.79,-22.1 338.52,-26.3 339.01,-19.32"/>
</g>
<!-- Node35&#45;&gt;Node41 -->
<g id="edge70" class="edge">
<title>Node35&#45;&gt;Node41</title>
<path fill="none" stroke="midnightblue" d="M3632.69,-74.24C3606.35,-71.48 3575.35,-68.61 3547.25,-67 2949.2,-32.72 1003.33,-19.26 616.48,-16.89"/>
<polygon fill="midnightblue" stroke="midnightblue" points="616.32,-13.39 606.29,-16.83 616.27,-20.39 616.32,-13.39"/>
</g>
<!-- Node43&#45;&gt;Node4 -->
<g id="edge89" class="edge">
<title>Node43&#45;&gt;Node4</title>
<path fill="none" stroke="midnightblue" d="M3645.18,-134.39C3629.69,-124.4 3608.56,-110.59 3590.25,-98 3570.84,-84.65 3569.34,-75.19 3547.25,-67 3459.42,-34.43 3220.55,-39.48 3127.25,-31 3088.89,-27.51 3045.08,-23.28 3014.56,-20.29"/>
<polygon fill="midnightblue" stroke="midnightblue" points="3014.65,-16.78 3004.35,-19.29 3013.96,-23.75 3014.65,-16.78"/>
</g>
<!-- Node43&#45;&gt;Node21 -->
<g id="edge82" class="edge">
<title>Node43&#45;&gt;Node21</title>
<path fill="none" stroke="midnightblue" d="M3604.68,-143.96C3454.46,-133.05 3071.91,-105.26 2882.26,-91.49"/>
<polygon fill="midnightblue" stroke="midnightblue" points="2882.5,-88 2872.27,-90.76 2881.99,-94.98 2882.5,-88"/>
</g>
<!-- Node43&#45;&gt;Node22 -->
<g id="edge83" class="edge">
<title>Node43&#45;&gt;Node22</title>
<path fill="none" stroke="midnightblue" d="M3729.9,-141.68C3756.5,-138.97 3787.87,-136.03 3816.25,-134 4167.28,-108.95 4255.77,-115.4 4607.25,-98 4670.8,-94.85 4742.72,-90.99 4796.49,-88.04"/>
<polygon fill="midnightblue" stroke="midnightblue" points="4796.86,-91.53 4806.65,-87.49 4796.48,-84.54 4796.86,-91.53"/>
</g>
<!-- Node43&#45;&gt;Node23 -->
<g id="edge84" class="edge">
<title>Node43&#45;&gt;Node23</title>
<path fill="none" stroke="midnightblue" d="M3728.96,-134.48C3782,-122.42 3857.39,-105.29 3905.82,-94.28"/>
<polygon fill="midnightblue" stroke="midnightblue" points="3906.75,-97.66 3915.73,-92.03 3905.2,-90.83 3906.75,-97.66"/>
</g>
<!-- Node43&#45;&gt;Node24 -->
<g id="edge85" class="edge">
<title>Node43&#45;&gt;Node24</title>
<path fill="none" stroke="midnightblue" d="M3729.49,-134.42C3761.87,-125.95 3801.6,-113.74 3835.25,-98 3857.92,-87.4 3858.46,-74.76 3882.25,-67 4043.43,-14.46 4474.98,-40.24 4644.25,-31 4700.67,-27.92 4764.71,-23.92 4811.51,-20.9"/>
<polygon fill="midnightblue" stroke="midnightblue" points="4811.77,-24.39 4821.53,-20.25 4811.32,-17.4 4811.77,-24.39"/>
</g>
<!-- Node43&#45;&gt;Node25 -->
<g id="edge86" class="edge">
<title>Node43&#45;&gt;Node25</title>
<path fill="none" stroke="midnightblue" d="M3621.08,-134.48C3582.22,-122.67 3527.33,-106 3491.05,-94.98"/>
<polygon fill="midnightblue" stroke="midnightblue" points="3491.92,-91.59 3481.33,-92.03 3489.88,-98.28 3491.92,-91.59"/>
</g>
<!-- Node43&#45;&gt;Node26 -->
<g id="edge87" class="edge">
<title>Node43&#45;&gt;Node26</title>
<path fill="none" stroke="midnightblue" d="M3604.62,-138.86C3542.31,-129.12 3444.03,-113.36 3359.25,-98 3352.42,-96.76 3345.24,-95.4 3338.16,-94.03"/>
<polygon fill="midnightblue" stroke="midnightblue" points="3338.39,-90.51 3327.9,-92.02 3337.04,-97.38 3338.39,-90.51"/>
</g>
<!-- Node43&#45;&gt;Node33 -->
<g id="edge80" class="edge">
<title>Node43&#45;&gt;Node33</title>
<path fill="none" stroke="midnightblue" d="M3707.43,-134.46C3733,-125.08 3766.57,-111.94 3795.25,-98 3819.8,-86.07 3823.04,-77.44 3848.25,-67 3892.56,-48.65 3945.39,-35.38 3984.57,-27.06"/>
<polygon fill="midnightblue" stroke="midnightblue" points="3985.4,-30.46 3994.47,-25 3983.97,-23.61 3985.4,-30.46"/>
</g>
<!-- Node43&#45;&gt;Node35 -->
<g id="edge81" class="edge">
<title>Node43&#45;&gt;Node35</title>
<path fill="none" stroke="midnightblue" d="M3673.33,-134.4C3676.78,-126.39 3681.18,-116.16 3685.14,-106.98"/>
<polygon fill="midnightblue" stroke="midnightblue" points="3688.45,-108.15 3689.19,-97.58 3682.02,-105.38 3688.45,-108.15"/>
</g>
<!-- Node43&#45;&gt;Node37 -->
<g id="edge88" class="edge">
<title>Node43&#45;&gt;Node37</title>
<path fill="none" stroke="midnightblue" d="M3704.86,-134.43C3724.74,-125.83 3748.78,-113.5 3767.25,-98 3789.19,-79.6 3807.79,-51.85 3818.49,-33.95"/>
<polygon fill="midnightblue" stroke="midnightblue" points="3821.61,-35.55 3823.6,-25.15 3815.56,-32.04 3821.61,-35.55"/>
</g>
<!-- Node44&#45;&gt;Node4 -->
<g id="edge96" class="edge">
<title>Node44&#45;&gt;Node4</title>
<path fill="none" stroke="midnightblue" d="M4528.59,-135.41C4525.77,-134.92 4522.99,-134.44 4520.25,-134 4387.69,-112.55 4351.71,-125.45 4220.25,-98 4173.46,-88.23 4164.42,-74.82 4117.25,-67 3682.9,5.04 3566.59,-60.06 3127.25,-31 3088.82,-28.46 3045.02,-24.09 3014.52,-20.81"/>
<polygon fill="midnightblue" stroke="midnightblue" points="3014.64,-17.3 3004.32,-19.7 3013.88,-24.26 3014.64,-17.3"/>
</g>
<!-- Node44&#45;&gt;Node17 -->
<g id="edge94" class="edge">
<title>Node44&#45;&gt;Node17</title>
<path fill="none" stroke="midnightblue" d="M4598.02,-134.48C4605,-118.09 4614,-90.27 4607.25,-67 4604.41,-57.19 4599.02,-47.46 4593.47,-39.2"/>
<polygon fill="midnightblue" stroke="midnightblue" points="4596.17,-36.95 4587.49,-30.88 4590.48,-41.04 4596.17,-36.95"/>
</g>
<!-- Node44&#45;&gt;Node22 -->
<g id="edge97" class="edge">
<title>Node44&#45;&gt;Node22</title>
<path fill="none" stroke="midnightblue" d="M4653.18,-134.48C4706.41,-122.42 4782.06,-105.29 4830.66,-94.28"/>
<polygon fill="midnightblue" stroke="midnightblue" points="4831.62,-97.65 4840.6,-92.03 4830.07,-90.82 4831.62,-97.65"/>
</g>
<!-- Node44&#45;&gt;Node23 -->
<g id="edge98" class="edge">
<title>Node44&#45;&gt;Node23</title>
<path fill="none" stroke="midnightblue" d="M4528.6,-135.31C4525.79,-134.84 4522.99,-134.4 4520.25,-134 4426.83,-120.34 4156.99,-98.94 4026.14,-88.96"/>
<polygon fill="midnightblue" stroke="midnightblue" points="4026.05,-85.45 4015.82,-88.18 4025.52,-92.43 4026.05,-85.45"/>
</g>
<!-- Node44&#45;&gt;Node24 -->
<g id="edge99" class="edge">
<title>Node44&#45;&gt;Node24</title>
<path fill="none" stroke="midnightblue" d="M4620.54,-134.45C4654.87,-118.04 4713.52,-90.18 4764.25,-67 4793.02,-53.85 4826.09,-39.26 4849.18,-29.16"/>
<polygon fill="midnightblue" stroke="midnightblue" points="4850.66,-32.33 4858.42,-25.12 4847.86,-25.92 4850.66,-32.33"/>
</g>
<!-- Node44&#45;&gt;Node25 -->
<g id="edge100" class="edge">
<title>Node44&#45;&gt;Node25</title>
<path fill="none" stroke="midnightblue" d="M4528.62,-135.14C4525.8,-134.72 4523,-134.33 4520.25,-134 4124.62,-85.97 4022.02,-122.84 3624.25,-98 3599.69,-96.47 3573.17,-94.41 3548.51,-92.33"/>
<polygon fill="midnightblue" stroke="midnightblue" points="3548.7,-88.84 3538.44,-91.47 3548.11,-95.81 3548.7,-88.84"/>
</g>
<!-- Node44&#45;&gt;Node26 -->
<g id="edge101" class="edge">
<title>Node44&#45;&gt;Node26</title>
<path fill="none" stroke="midnightblue" d="M4528.63,-135.11C4525.8,-134.69 4523,-134.32 4520.25,-134 4007.49,-74.13 3872.18,-156.49 3359.25,-98 3350.77,-97.03 3341.79,-95.6 3333.15,-94"/>
<polygon fill="midnightblue" stroke="midnightblue" points="3333.69,-90.54 3323.2,-92.07 3332.35,-97.41 3333.69,-90.54"/>
</g>
<!-- Node44&#45;&gt;Node33 -->
<g id="edge91" class="edge">
<title>Node44&#45;&gt;Node33</title>
<path fill="none" stroke="midnightblue" d="M4550.51,-134.39C4498.5,-116.78 4405.53,-86.58 4324.25,-67 4250.33,-49.19 4164.17,-34.69 4106.51,-25.87"/>
<polygon fill="midnightblue" stroke="midnightblue" points="4106.85,-22.38 4096.44,-24.35 4105.8,-29.31 4106.85,-22.38"/>
</g>
<!-- Node44&#45;&gt;Node34 -->
<g id="edge92" class="edge">
<title>Node44&#45;&gt;Node34</title>
<path fill="none" stroke="midnightblue" d="M4576.93,-134.4C4568.11,-125.71 4556.63,-114.4 4546.74,-104.66"/>
<polygon fill="midnightblue" stroke="midnightblue" points="4549.13,-102.1 4539.55,-97.58 4544.22,-107.09 4549.13,-102.1"/>
</g>
<!-- Node44&#45;&gt;Node35 -->
<g id="edge93" class="edge">
<title>Node44&#45;&gt;Node35</title>
<path fill="none" stroke="midnightblue" d="M4528.62,-135.19C4525.8,-134.76 4523,-134.36 4520.25,-134 4238.6,-97.49 4165.63,-116.98 3882.25,-98 3844.55,-95.47 3802.6,-92.26 3768.01,-89.5"/>
<polygon fill="midnightblue" stroke="midnightblue" points="3768.24,-86.01 3757.99,-88.7 3767.68,-92.98 3768.24,-86.01"/>
</g>
<!-- Node44&#45;&gt;Node37 -->
<g id="edge95" class="edge">
<title>Node44&#45;&gt;Node37</title>
<path fill="none" stroke="midnightblue" d="M4528.55,-135.62C4525.75,-135.07 4522.97,-134.53 4520.25,-134 4433.31,-117.14 4410.26,-119.15 4324.25,-98 4279.07,-86.89 4269.73,-76.87 4224.25,-67 4163.07,-53.72 3991.02,-34.03 3895.05,-23.6"/>
<polygon fill="midnightblue" stroke="midnightblue" points="3895.19,-20.09 3884.87,-22.49 3894.44,-27.05 3895.19,-20.09"/>
</g>
<!-- Node45&#45;&gt;Node4 -->
<g id="edge108" class="edge">
<title>Node45&#45;&gt;Node4</title>
<path fill="none" stroke="midnightblue" d="M4242.64,-141.94C4216.29,-139.29 4185.3,-136.32 4157.25,-134 4038.94,-124.21 3735.7,-138.89 3624.25,-98 3602.47,-90.01 3603.99,-75.12 3582.25,-67 3487.24,-31.52 3228.29,-39.85 3127.25,-31 3088.88,-27.64 3045.07,-23.39 3014.56,-20.36"/>
<polygon fill="midnightblue" stroke="midnightblue" points="3014.65,-16.85 3004.35,-19.34 3013.95,-23.81 3014.65,-16.85"/>
</g>
<!-- Node45&#45;&gt;Node17 -->
<g id="edge106" class="edge">
<title>Node45&#45;&gt;Node17</title>
<path fill="none" stroke="midnightblue" d="M4324.05,-134.3C4347.97,-116.73 4391.02,-86.72 4431.25,-67 4458.37,-53.71 4489.9,-42.24 4516.52,-33.61"/>
<polygon fill="midnightblue" stroke="midnightblue" points="4517.63,-36.93 4526.09,-30.56 4515.5,-30.26 4517.63,-36.93"/>
</g>
<!-- Node45&#45;&gt;Node22 -->
<g id="edge109" class="edge">
<title>Node45&#45;&gt;Node22</title>
<path fill="none" stroke="midnightblue" d="M4368.02,-135.48C4371.14,-134.95 4374.23,-134.46 4377.25,-134 4524.34,-111.83 4697.24,-96.82 4796.65,-89.25"/>
<polygon fill="midnightblue" stroke="midnightblue" points="4796.92,-92.74 4806.63,-88.49 4796.39,-85.76 4796.92,-92.74"/>
</g>
<!-- Node45&#45;&gt;Node23 -->
<g id="edge110" class="edge">
<title>Node45&#45;&gt;Node23</title>
<path fill="none" stroke="midnightblue" d="M4242.65,-136.68C4237.78,-135.77 4232.94,-134.87 4228.25,-134 4140.3,-117.72 4118.2,-114.28 4030.25,-98 4023.17,-96.69 4015.73,-95.3 4008.37,-93.92"/>
<polygon fill="midnightblue" stroke="midnightblue" points="4008.91,-90.46 3998.44,-92.06 4007.62,-97.34 4008.91,-90.46"/>
</g>
<!-- Node45&#45;&gt;Node24 -->
<g id="edge111" class="edge">
<title>Node45&#45;&gt;Node24</title>
<path fill="none" stroke="midnightblue" d="M4341.17,-134.33C4362.13,-125.31 4388.63,-112.6 4410.25,-98 4427.2,-86.56 4425.65,-75.48 4444.25,-67 4476.88,-52.13 4697.99,-31.69 4811.41,-22.01"/>
<polygon fill="midnightblue" stroke="midnightblue" points="4811.71,-25.49 4821.38,-21.16 4811.12,-18.52 4811.71,-25.49"/>
</g>
<!-- Node45&#45;&gt;Node25 -->
<g id="edge112" class="edge">
<title>Node45&#45;&gt;Node25</title>
<path fill="none" stroke="midnightblue" d="M4242.65,-141.89C4216.3,-139.23 4185.3,-136.26 4157.25,-134 3905.57,-113.69 3841.86,-119.29 3590.25,-98 3573.42,-96.58 3555.45,-94.83 3538.24,-93.06"/>
<polygon fill="midnightblue" stroke="midnightblue" points="3538.52,-89.57 3528.21,-92.01 3537.8,-96.53 3538.52,-89.57"/>
</g>
<!-- Node45&#45;&gt;Node26 -->
<g id="edge113" class="edge">
<title>Node45&#45;&gt;Node26</title>
<path fill="none" stroke="midnightblue" d="M4242.66,-141.63C4216.32,-138.93 4185.32,-136.01 4157.25,-134 3803.13,-108.68 3711.7,-140.71 3359.25,-98 3350.86,-96.98 3342,-95.54 3333.44,-93.95"/>
<polygon fill="midnightblue" stroke="midnightblue" points="3334.08,-90.51 3323.59,-92.04 3332.74,-97.38 3334.08,-90.51"/>
</g>
<!-- Node45&#45;&gt;Node33 -->
<g id="edge103" class="edge">
<title>Node45&#45;&gt;Node33</title>
<path fill="none" stroke="midnightblue" d="M4242.71,-134.74C4188.82,-122.53 4117.9,-105.51 4106.25,-98 4081.25,-81.86 4061.55,-52.83 4050.65,-34.12"/>
<polygon fill="midnightblue" stroke="midnightblue" points="4053.59,-32.2 4045.65,-25.18 4047.48,-35.61 4053.59,-32.2"/>
</g>
<!-- Node45&#45;&gt;Node34 -->
<g id="edge104" class="edge">
<title>Node45&#45;&gt;Node34</title>
<path fill="none" stroke="midnightblue" d="M4352.72,-134.48C4386.43,-124.51 4431.89,-111.09 4467.67,-100.51"/>
<polygon fill="midnightblue" stroke="midnightblue" points="4468.9,-103.8 4477.49,-97.61 4466.91,-97.09 4468.9,-103.8"/>
</g>
<!-- Node45&#45;&gt;Node35 -->
<g id="edge105" class="edge">
<title>Node45&#45;&gt;Node35</title>
<path fill="none" stroke="midnightblue" d="M4242.56,-141.82C4128.82,-129.7 3889.11,-104.16 3768.23,-91.28"/>
<polygon fill="midnightblue" stroke="midnightblue" points="3768.28,-87.76 3757.97,-90.18 3767.54,-94.72 3768.28,-87.76"/>
</g>
<!-- Node45&#45;&gt;Node37 -->
<g id="edge107" class="edge">
<title>Node45&#45;&gt;Node37</title>
<path fill="none" stroke="midnightblue" d="M4242.7,-136.46C4178.27,-123.84 4085.07,-104.92 4069.25,-98 4047.34,-88.41 4046.97,-77.02 4025.25,-67 3983.23,-47.61 3932.59,-34.83 3893.17,-26.98"/>
<polygon fill="midnightblue" stroke="midnightblue" points="3893.63,-23.51 3883.15,-25.05 3892.3,-30.38 3893.63,-23.51"/>
</g>
<!-- Node46&#45;&gt;Node4 -->
<g id="edge119" class="edge">
<title>Node46&#45;&gt;Node4</title>
<path fill="none" stroke="midnightblue" d="M3091.45,-134.37C3067.18,-109.54 3017.05,-58.24 2991.68,-32.28"/>
<polygon fill="midnightblue" stroke="midnightblue" points="2994.15,-29.8 2984.66,-25.1 2989.14,-34.7 2994.15,-29.8"/>
</g>
<!-- Node46&#45;&gt;Node21 -->
<g id="edge117" class="edge">
<title>Node46&#45;&gt;Node21</title>
<path fill="none" stroke="midnightblue" d="M3042.62,-136.27C2980.11,-124.07 2885.07,-105.52 2825.92,-93.98"/>
<polygon fill="midnightblue" stroke="midnightblue" points="2826.51,-90.52 2816.03,-92.04 2825.17,-97.4 2826.51,-90.52"/>
</g>
<!-- Node46&#45;&gt;Node33 -->
<g id="edge115" class="edge">
<title>Node46&#45;&gt;Node33</title>
<path fill="none" stroke="midnightblue" d="M3118.43,-134.4C3137.46,-115.13 3174.71,-81.32 3214.25,-67 3356.53,-15.47 3743.36,-42.43 3894.25,-31 3921,-28.97 3950.43,-26.18 3975.88,-23.59"/>
<polygon fill="midnightblue" stroke="midnightblue" points="3976.57,-27.04 3986.16,-22.53 3975.85,-20.08 3976.57,-27.04"/>
</g>
<!-- Node46&#45;&gt;Node35 -->
<g id="edge116" class="edge">
<title>Node46&#45;&gt;Node35</title>
<path fill="none" stroke="midnightblue" d="M3167.84,-141.61C3277.81,-129.49 3505.13,-104.45 3622.14,-91.56"/>
<polygon fill="midnightblue" stroke="midnightblue" points="3622.87,-95 3632.43,-90.42 3622.1,-88.04 3622.87,-95"/>
</g>
<!-- Node46&#45;&gt;Node37 -->
<g id="edge118" class="edge">
<title>Node46&#45;&gt;Node37</title>
<path fill="none" stroke="midnightblue" d="M3106.55,-134.23C3109.08,-115.41 3116.54,-82.82 3138.25,-67 3187.83,-30.89 3597.59,-20.25 3761.18,-17.43"/>
<polygon fill="midnightblue" stroke="midnightblue" points="3761.65,-20.92 3771.59,-17.25 3761.53,-13.92 3761.65,-20.92"/>
</g>
<!-- Node47&#45;&gt;Node3 -->
<g id="edge122" class="edge">
<title>Node47&#45;&gt;Node3</title>
<path fill="none" stroke="midnightblue" d="M3535.9,-326.3C3689.47,-321.47 4218.72,-299.78 4647.25,-221 4736.27,-204.64 4838.9,-177.2 4893.78,-161.83"/>
<polygon fill="midnightblue" stroke="midnightblue" points="4894.78,-165.18 4903.45,-159.1 4892.88,-158.44 4894.78,-165.18"/>
</g>
<!-- Node47&#45;&gt;Node4 -->
<g id="edge123" class="edge">
<title>Node47&#45;&gt;Node4</title>
<path fill="none" stroke="midnightblue" d="M3448.68,-322.75C3382.95,-315.23 3254.72,-299.12 3147.25,-277 3113.46,-270.05 3106,-264.17 3072.25,-257 2972.76,-235.87 2939.99,-260.48 2846.25,-221 2786.54,-195.84 2783.83,-168.93 2729.25,-134 2701.11,-115.99 2680.31,-126.73 2663.25,-98 2656.22,-86.15 2654.32,-77.49 2663.25,-67 2698.15,-26.03 2862.37,-18.18 2937.98,-16.76"/>
<polygon fill="midnightblue" stroke="midnightblue" points="2938.09,-20.26 2948.04,-16.6 2937.98,-13.26 2938.09,-20.26"/>
</g>
<!-- Node47&#45;&gt;Node18 -->
<g id="edge126" class="edge">
<title>Node47&#45;&gt;Node18</title>
<path fill="none" stroke="midnightblue" d="M3448.54,-323.83C3361.77,-316.37 3161.71,-298.33 2994.25,-277 2707.06,-240.42 2365.57,-183.77 2229.99,-160.75"/>
<polygon fill="midnightblue" stroke="midnightblue" points="2230.27,-157.24 2219.82,-159.02 2229.09,-164.14 2230.27,-157.24"/>
</g>
<!-- Node47&#45;&gt;Node20 -->
<g id="edge127" class="edge">
<title>Node47&#45;&gt;Node20</title>
<path fill="none" stroke="midnightblue" d="M3448.52,-322.24C3378.74,-313.7 3238.01,-295.86 3119.25,-277 2982.28,-255.25 2948.02,-249.37 2812.25,-221 2721.14,-201.96 2615.3,-176.12 2557.15,-161.59"/>
<polygon fill="midnightblue" stroke="midnightblue" points="2557.76,-158.14 2547.21,-159.1 2556.06,-164.93 2557.76,-158.14"/>
</g>
<!-- Node47&#45;&gt;Node22 -->
<g id="edge161" class="edge">
<title>Node47&#45;&gt;Node22</title>
<path fill="none" stroke="midnightblue" d="M3535.84,-327C3678.15,-325.02 4141.94,-315.81 4523.25,-277 4629.86,-266.15 4936.59,-256.56 4992.25,-165 4999.41,-153.23 4999.77,-145.55 4992.25,-134 4979.61,-114.57 4957.59,-102.56 4936.26,-95.16"/>
<polygon fill="midnightblue" stroke="midnightblue" points="4937.13,-91.76 4926.54,-92.07 4935.01,-98.44 4937.13,-91.76"/>
</g>
<!-- Node47&#45;&gt;Node23 -->
<g id="edge162" class="edge">
<title>Node47&#45;&gt;Node23</title>
<path fill="none" stroke="midnightblue" d="M3535.97,-326.55C3614.45,-323.92 3783.86,-314.05 3921.25,-277 3981.6,-260.73 3993.86,-247.95 4050.25,-221 4098.68,-197.85 4129.46,-210.92 4157.25,-165 4164.39,-153.21 4165.75,-144.85 4157.25,-134 4152.42,-127.82 4061.94,-107.14 4003.12,-94.24"/>
<polygon fill="midnightblue" stroke="midnightblue" points="4003.77,-90.8 3993.25,-92.08 4002.28,-97.64 4003.77,-90.8"/>
</g>
<!-- Node47&#45;&gt;Node24 -->
<g id="edge163" class="edge">
<title>Node47&#45;&gt;Node24</title>
<path fill="none" stroke="midnightblue" d="M3535.99,-327.78C3688.75,-328.28 4212.51,-326.06 4641.25,-277 4776.45,-261.53 4822.14,-284.94 4942.25,-221 5006.28,-186.92 5036.65,-127.24 4996.25,-67 4983.12,-47.41 4960.68,-35.39 4938.87,-28.02"/>
<polygon fill="midnightblue" stroke="midnightblue" points="4939.85,-24.66 4929.26,-25.05 4937.78,-31.35 4939.85,-24.66"/>
</g>
<!-- Node47&#45;&gt;Node25 -->
<g id="edge164" class="edge">
<title>Node47&#45;&gt;Node25</title>
<path fill="none" stroke="midnightblue" d="M3490.87,-318.82C3485.25,-283.68 3464.14,-151.62 3456.25,-102.26"/>
<polygon fill="midnightblue" stroke="midnightblue" points="3459.66,-101.4 3454.63,-92.08 3452.75,-102.51 3459.66,-101.4"/>
</g>
<!-- Node47&#45;&gt;Node26 -->
<g id="edge165" class="edge">
<title>Node47&#45;&gt;Node26</title>
<path fill="none" stroke="midnightblue" d="M3484.92,-318.82C3454.76,-283.09 3339.98,-147.13 3300.05,-99.84"/>
<polygon fill="midnightblue" stroke="midnightblue" points="3302.62,-97.46 3293.5,-92.08 3297.27,-101.98 3302.62,-97.46"/>
</g>
<!-- Node47&#45;&gt;Node34 -->
<g id="edge128" class="edge">
<title>Node47&#45;&gt;Node34</title>
<path fill="none" stroke="midnightblue" d="M3535.91,-326.27C3771.27,-319.21 4881.8,-279.91 4975.25,-165 4983.95,-154.31 4984.44,-144.27 4975.25,-134 4951.27,-107.17 4731.39,-92.89 4608.1,-86.93"/>
<polygon fill="midnightblue" stroke="midnightblue" points="4608.1,-83.42 4597.94,-86.44 4607.77,-90.41 4608.1,-83.42"/>
</g>
<!-- Node47&#45;&gt;Node36 -->
<g id="edge124" class="edge">
<title>Node47&#45;&gt;Node36</title>
<path fill="none" stroke="midnightblue" d="M3475.67,-318.9C3427.12,-292.83 3284.31,-209.57 3214.25,-98 3202.12,-78.67 3197.34,-52.47 3195.47,-35.05"/>
<polygon fill="midnightblue" stroke="midnightblue" points="3198.95,-34.7 3194.61,-25.04 3191.98,-35.3 3198.95,-34.7"/>
</g>
<!-- Node48 -->
<g id="node45" class="node">
<title>Node48</title>
<g id="a_node45"><a xlink:title=" ">
<polygon fill="none" stroke="#bfbfbf" points="3494.25,-257.5 3494.25,-276.5 3544.25,-276.5 3544.25,-257.5 3494.25,-257.5"/>
<text text-anchor="middle" x="3519.25" y="-264.5" font-family="Helvetica,sans-Serif" font-size="10.00">cstdint</text>
</a>
</g>
</g>
<!-- Node47&#45;&gt;Node48 -->
<g id="edge121" class="edge">
<title>Node47&#45;&gt;Node48</title>
<path fill="none" stroke="midnightblue" d="M3496.12,-318.98C3500.05,-310.32 3506.25,-296.65 3511.25,-285.65"/>
<polygon fill="midnightblue" stroke="midnightblue" points="3514.45,-287.06 3515.39,-276.51 3508.07,-284.17 3514.45,-287.06"/>
</g>
<!-- Node49 -->
<g id="node46" class="node">
<title>Node49</title>
<g id="a_node46"><a xlink:title=" ">
<polygon fill="none" stroke="#bfbfbf" points="4012.75,-140 4012.75,-159 4147.75,-159 4147.75,-140 4012.75,-140"/>
<text text-anchor="middle" x="4080.25" y="-147" font-family="Helvetica,sans-Serif" font-size="10.00">seerep&#45;msgs/datatype.h</text>
</a>
</g>
</g>
<!-- Node47&#45;&gt;Node49 -->
<g id="edge125" class="edge">
<title>Node47&#45;&gt;Node49</title>
<path fill="none" stroke="midnightblue" d="M3535.96,-324.15C3605.23,-318.23 3744.19,-303.96 3859.25,-277 3935.47,-259.14 3962.56,-266.51 4026.25,-221 4045.78,-207.05 4061.53,-183.99 4070.87,-168.06"/>
<polygon fill="midnightblue" stroke="midnightblue" points="4074,-169.65 4075.84,-159.21 4067.89,-166.22 4074,-169.65"/>
</g>
<!-- Node47&#45;&gt;Node50 -->
<g id="edge129" class="edge">
<title>Node47&#45;&gt;Node50</title>
<path fill="none" stroke="midnightblue" d="M3535.87,-319.1C3591.23,-308.44 3686.72,-290.05 3746.8,-278.49"/>
<polygon fill="midnightblue" stroke="midnightblue" points="3747.7,-281.88 3756.86,-276.55 3746.38,-275 3747.7,-281.88"/>
</g>
<!-- Node47&#45;&gt;Node53 -->
<g id="edge151" class="edge">
<title>Node47&#45;&gt;Node53</title>
<path fill="none" stroke="midnightblue" d="M3448.62,-319.49C3397.06,-309.91 3308.74,-293.13 3233.25,-277 3194.88,-268.8 3185.72,-264.74 3147.25,-257 3067.51,-240.95 2973.47,-225.82 2921.91,-217.85"/>
<polygon fill="midnightblue" stroke="midnightblue" points="2922.29,-214.37 2911.88,-216.31 2921.23,-221.29 2922.29,-214.37"/>
</g>
<!-- Node50&#45;&gt;Node3 -->
<g id="edge130" class="edge">
<title>Node50&#45;&gt;Node3</title>
<path fill="none" stroke="midnightblue" d="M3850.03,-266.12C3974.21,-265.79 4312.19,-260.96 4590.25,-221 4629.1,-215.42 4637.79,-208.76 4676.25,-201 4769.08,-182.27 4794.15,-187 4886.25,-165 4890.07,-164.09 4894.03,-163.04 4897.96,-161.93"/>
<polygon fill="midnightblue" stroke="midnightblue" points="4898.97,-165.28 4907.56,-159.08 4896.98,-158.57 4898.97,-165.28"/>
</g>
<!-- Node50&#45;&gt;Node4 -->
<g id="edge131" class="edge">
<title>Node50&#45;&gt;Node4</title>
<path fill="none" stroke="midnightblue" d="M3752.68,-262.73C3588.71,-251.32 3062.61,-211.38 3003.25,-165 2964.1,-134.4 2968.14,-67.65 2972.86,-35.09"/>
<polygon fill="midnightblue" stroke="midnightblue" points="2976.33,-35.56 2974.49,-25.12 2969.43,-34.43 2976.33,-35.56"/>
</g>
<!-- Node50&#45;&gt;Node22 -->
<g id="edge146" class="edge">
<title>Node50&#45;&gt;Node22</title>
<path fill="none" stroke="midnightblue" d="M3849.88,-262.15C4045.46,-246.52 4766.23,-187.62 4809.25,-165 4836.64,-150.6 4857.65,-120.33 4868.95,-101.01"/>
<polygon fill="midnightblue" stroke="midnightblue" points="4872.14,-102.48 4873.96,-92.05 4866.03,-99.07 4872.14,-102.48"/>
</g>
<!-- Node50&#45;&gt;Node23 -->
<g id="edge147" class="edge">
<title>Node50&#45;&gt;Node23</title>
<path fill="none" stroke="midnightblue" d="M3831.62,-257.45C3870.71,-244.61 3936.96,-216.22 3965.25,-165 3976.13,-145.3 3969.11,-119.03 3962.07,-101.71"/>
<polygon fill="midnightblue" stroke="midnightblue" points="3965.12,-99.93 3957.86,-92.21 3958.72,-102.77 3965.12,-99.93"/>
</g>
<!-- Node50&#45;&gt;Node24 -->
<g id="edge148" class="edge">
<title>Node50&#45;&gt;Node24</title>
<path fill="none" stroke="midnightblue" d="M3850.01,-265.75C4062.64,-264.15 4901.58,-252.31 4975.25,-165 5003.34,-131.71 4997.85,-104.24 4975.25,-67 4963.96,-48.39 4943.34,-36.32 4924,-28.67"/>
<polygon fill="midnightblue" stroke="midnightblue" points="4924.95,-25.29 4914.35,-25.16 4922.55,-31.87 4924.95,-25.29"/>
</g>
<!-- Node50&#45;&gt;Node25 -->
<g id="edge149" class="edge">
<title>Node50&#45;&gt;Node25</title>
<path fill="none" stroke="midnightblue" d="M3772.31,-257.43C3724.47,-242.59 3626.81,-209.39 3552.25,-165 3550.04,-163.68 3499.39,-121.76 3471.42,-98.57"/>
<polygon fill="midnightblue" stroke="midnightblue" points="3473.48,-95.73 3463.55,-92.04 3469.01,-101.12 3473.48,-95.73"/>
</g>
<!-- Node50&#45;&gt;Node26 -->
<g id="edge150" class="edge">
<title>Node50&#45;&gt;Node26</title>
<path fill="none" stroke="midnightblue" d="M3756.06,-257.47C3685.68,-243.32 3546.42,-211.83 3435.25,-165 3388.38,-145.25 3337.03,-115.11 3308.51,-97.55"/>
<polygon fill="midnightblue" stroke="midnightblue" points="3310.09,-94.42 3299.75,-92.11 3306.4,-100.36 3310.09,-94.42"/>
</g>
<!-- Node50&#45;&gt;Node43 -->
<g id="edge145" class="edge">
<title>Node50&#45;&gt;Node43</title>
<path fill="none" stroke="midnightblue" d="M3790.18,-257.17C3778.99,-248.2 3761.26,-233.82 3746.25,-221 3727.21,-204.73 3706.06,-185.81 3690.44,-171.67"/>
<polygon fill="midnightblue" stroke="midnightblue" points="3692.57,-168.87 3682.82,-164.75 3687.87,-174.06 3692.57,-168.87"/>
</g>
<!-- Node50&#45;&gt;Node49 -->
<g id="edge143" class="edge">
<title>Node50&#45;&gt;Node49</title>
<path fill="none" stroke="midnightblue" d="M3850.03,-261.49C3891.32,-256.16 3951.12,-244.79 3998.25,-221 4025.09,-207.46 4050.43,-183.28 4065.65,-167.07"/>
<polygon fill="midnightblue" stroke="midnightblue" points="4068.48,-169.16 4072.64,-159.41 4063.31,-164.44 4068.48,-169.16"/>
</g>
<!-- Node51 -->
<g id="node48" class="node">
<title>Node51</title>
<g id="a_node48"><a xlink:href="core-instance_8h.html" target="_top" xlink:title=" ">
<polygon fill="none" stroke="black" points="3755.25,-201.5 3755.25,-220.5 3847.25,-220.5 3847.25,-201.5 3755.25,-201.5"/>
<text text-anchor="middle" x="3801.25" y="-208.5" font-family="Helvetica,sans-Serif" font-size="10.00">core&#45;instance.h</text>
</a>
</g>
</g>
<!-- Node50&#45;&gt;Node51 -->
<g id="edge132" class="edge">
<title>Node50&#45;&gt;Node51</title>
<path fill="none" stroke="midnightblue" d="M3801.25,-257.08C3801.25,-250.01 3801.25,-239.86 3801.25,-230.99"/>
<polygon fill="midnightblue" stroke="midnightblue" points="3804.75,-230.75 3801.25,-220.75 3797.75,-230.75 3804.75,-230.75"/>
</g>
<!-- Node52 -->
<g id="node49" class="node">
<title>Node52</title>
<g id="a_node49"><a xlink:title=" ">
<polygon fill="none" stroke="#bfbfbf" points="3824.75,-134.5 3824.75,-164.5 3955.75,-164.5 3955.75,-134.5 3824.75,-134.5"/>
<text text-anchor="start" x="3832.75" y="-152.5" font-family="Helvetica,sans-Serif" font-size="10.00">seerep&#45;msgs/label&#45;with</text>
<text text-anchor="middle" x="3890.25" y="-141.5" font-family="Helvetica,sans-Serif" font-size="10.00">&#45;instance.h</text>
</a>
</g>
</g>
<!-- Node50&#45;&gt;Node52 -->
<g id="edge144" class="edge">
<title>Node50&#45;&gt;Node52</title>
<path fill="none" stroke="midnightblue" d="M3814.89,-257.37C3826.98,-249.18 3844.5,-235.93 3856.25,-221 3867.28,-207 3875.94,-188.84 3881.75,-174.46"/>
<polygon fill="midnightblue" stroke="midnightblue" points="3885.16,-175.35 3885.48,-164.76 3878.62,-172.84 3885.16,-175.35"/>
</g>
<!-- Node51&#45;&gt;Node3 -->
<g id="edge133" class="edge">
<title>Node51&#45;&gt;Node3</title>
<path fill="none" stroke="midnightblue" d="M3847.46,-209.67C4027.47,-208.12 4681.87,-200.16 4886.25,-165 4890.73,-164.23 4895.38,-163.15 4899.93,-161.93"/>
<polygon fill="midnightblue" stroke="midnightblue" points="4901.02,-165.26 4909.63,-159.09 4899.05,-158.54 4901.02,-165.26"/>
</g>
<!-- Node51&#45;&gt;Node4 -->
<g id="edge134" class="edge">
<title>Node51&#45;&gt;Node4</title>
<path fill="none" stroke="midnightblue" d="M3755.03,-208.66C3593.67,-203.79 3063.5,-186.26 3034.25,-165 2991.98,-134.27 2980.51,-68.09 2977.41,-35.47"/>
<polygon fill="midnightblue" stroke="midnightblue" points="2980.87,-34.79 2976.6,-25.1 2973.89,-35.34 2980.87,-34.79"/>
</g>
<!-- Node51&#45;&gt;Node22 -->
<g id="edge138" class="edge">
<title>Node51&#45;&gt;Node22</title>
<path fill="none" stroke="midnightblue" d="M3847.36,-209.48C4028.4,-207.24 4684.94,-196.96 4772.25,-165 4791.94,-157.8 4836.6,-120.2 4861.2,-98.68"/>
<polygon fill="midnightblue" stroke="midnightblue" points="4863.52,-101.3 4868.71,-92.06 4858.89,-96.04 4863.52,-101.3"/>
</g>
<!-- Node51&#45;&gt;Node23 -->
<g id="edge139" class="edge">
<title>Node51&#45;&gt;Node23</title>
<path fill="none" stroke="midnightblue" d="M3800.42,-201.33C3799.44,-185.89 3799.67,-153.44 3816.25,-134 3828.61,-119.52 3873.61,-104.65 3908.71,-94.83"/>
<polygon fill="midnightblue" stroke="midnightblue" points="3910.05,-98.09 3918.77,-92.08 3908.2,-91.34 3910.05,-98.09"/>
</g>
<!-- Node51&#45;&gt;Node24 -->
<g id="edge140" class="edge">
<title>Node51&#45;&gt;Node24</title>
<path fill="none" stroke="midnightblue" d="M3847.52,-210.22C4019.69,-210.69 4622.91,-209.09 4809.25,-165 4827.02,-160.8 4949.32,-113.31 4959.25,-98 4966.75,-86.44 4965.94,-79.05 4959.25,-67 4949.48,-49.39 4930.74,-37.13 4913.75,-29.09"/>
<polygon fill="midnightblue" stroke="midnightblue" points="4915.11,-25.87 4904.55,-25.06 4912.3,-32.28 4915.11,-25.87"/>
</g>
<!-- Node51&#45;&gt;Node25 -->
<g id="edge141" class="edge">
<title>Node51&#45;&gt;Node25</title>
<path fill="none" stroke="midnightblue" d="M3755.25,-205.2C3712.6,-199.54 3648.11,-187.84 3596.25,-165 3574.36,-155.36 3572.74,-146.36 3552.25,-134 3528.97,-119.96 3501.32,-106.07 3481.16,-96.42"/>
<polygon fill="midnightblue" stroke="midnightblue" points="3482.46,-93.16 3471.92,-92.05 3479.46,-99.49 3482.46,-93.16"/>
</g>
<!-- Node51&#45;&gt;Node26 -->
<g id="edge142" class="edge">
<title>Node51&#45;&gt;Node26</title>
<path fill="none" stroke="midnightblue" d="M3755.19,-203.58C3704.2,-196.07 3619.78,-182.41 3548.25,-165 3464.9,-144.71 3369.16,-112.63 3319.71,-95.39"/>
<polygon fill="midnightblue" stroke="midnightblue" points="3320.77,-92.06 3310.17,-92.05 3318.45,-98.66 3320.77,-92.06"/>
</g>
<!-- Node51&#45;&gt;Node43 -->
<g id="edge137" class="edge">
<title>Node51&#45;&gt;Node43</title>
<path fill="none" stroke="midnightblue" d="M3782.06,-201.48C3762.89,-192.96 3732.83,-179.62 3708.28,-168.72"/>
<polygon fill="midnightblue" stroke="midnightblue" points="3709.4,-165.38 3698.84,-164.52 3706.55,-171.78 3709.4,-165.38"/>
</g>
<!-- Node51&#45;&gt;Node49 -->
<g id="edge135" class="edge">
<title>Node51&#45;&gt;Node49</title>
<path fill="none" stroke="midnightblue" d="M3841.23,-201.48C3891.05,-190.85 3976.23,-172.68 4030.3,-161.15"/>
<polygon fill="midnightblue" stroke="midnightblue" points="4031.3,-164.52 4040.35,-159.01 4029.84,-157.67 4031.3,-164.52"/>
</g>
<!-- Node51&#45;&gt;Node52 -->
<g id="edge136" class="edge">
<title>Node51&#45;&gt;Node52</title>
<path fill="none" stroke="midnightblue" d="M3814.01,-201.48C3826.17,-193.34 3844.95,-180.79 3860.82,-170.18"/>
<polygon fill="midnightblue" stroke="midnightblue" points="3862.91,-172.99 3869.28,-164.52 3859.02,-167.17 3862.91,-172.99"/>
</g>
<!-- Node53&#45;&gt;Node3 -->
<g id="edge152" class="edge">
<title>Node53&#45;&gt;Node3</title>
<path fill="none" stroke="midnightblue" d="M2911.86,-209.58C3118.67,-206.49 4387.63,-186.88 4772.25,-165 4812.45,-162.71 4858.16,-158.44 4890.58,-155.12"/>
<polygon fill="midnightblue" stroke="midnightblue" points="4891.03,-158.59 4900.61,-154.08 4890.31,-151.63 4891.03,-158.59"/>
</g>
<!-- Node53&#45;&gt;Node4 -->
<g id="edge153" class="edge">
<title>Node53&#45;&gt;Node4</title>
<path fill="none" stroke="midnightblue" d="M2884.17,-201.33C2886.93,-178.05 2896.78,-112.86 2924.25,-67 2932.5,-53.23 2945.43,-40.65 2956.33,-31.49"/>
<polygon fill="midnightblue" stroke="midnightblue" points="2958.57,-34.19 2964.17,-25.19 2954.18,-28.73 2958.57,-34.19"/>
</g>
<!-- Node53&#45;&gt;Node19 -->
<g id="edge155" class="edge">
<title>Node53&#45;&gt;Node19</title>
<path fill="none" stroke="midnightblue" d="M2854.38,-202.46C2814.83,-192.14 2743.53,-173.54 2697.84,-161.61"/>
<polygon fill="midnightblue" stroke="midnightblue" points="2698.5,-158.17 2687.94,-159.03 2696.73,-164.94 2698.5,-158.17"/>
</g>
<!-- Node53&#45;&gt;Node20 -->
<g id="edge156" class="edge">
<title>Node53&#45;&gt;Node20</title>
<path fill="none" stroke="midnightblue" d="M2854.42,-206.31C2800.58,-199.29 2681.15,-183.07 2581.25,-165 2574.86,-163.84 2568.15,-162.53 2561.54,-161.18"/>
<polygon fill="midnightblue" stroke="midnightblue" points="2561.8,-157.66 2551.29,-159.05 2560.37,-164.51 2561.8,-157.66"/>
</g>
<!-- Node53&#45;&gt;Node21 -->
<g id="edge157" class="edge">
<title>Node53&#45;&gt;Node21</title>
<path fill="none" stroke="midnightblue" d="M2879.47,-201.32C2872.69,-186.44 2857.4,-155.56 2838.25,-134 2825.6,-119.75 2808.44,-106.76 2794.79,-97.53"/>
<polygon fill="midnightblue" stroke="midnightblue" points="2796.68,-94.59 2786.4,-92.03 2792.84,-100.44 2796.68,-94.59"/>
</g>
<!-- Node53&#45;&gt;Node36 -->
<g id="edge154" class="edge">
<title>Node53&#45;&gt;Node36</title>
<path fill="none" stroke="midnightblue" d="M2896.92,-201.43C2932.39,-179.17 3030.4,-117.76 3112.25,-67 3132.21,-54.63 3154.95,-40.63 3171.41,-30.52"/>
<polygon fill="midnightblue" stroke="midnightblue" points="3173.62,-33.27 3180.31,-25.05 3169.96,-27.3 3173.62,-33.27"/>
</g>
<!-- Node53&#45;&gt;Node40 -->
<g id="edge159" class="edge">
<title>Node53&#45;&gt;Node40</title>
<path fill="none" stroke="midnightblue" d="M2854.41,-202.78C2828.93,-195.62 2791.4,-183.07 2762.25,-165 2745.15,-154.39 2747.79,-141.84 2729.25,-134 2700.49,-121.84 514.43,-32.71 483.25,-31 435.43,-28.38 381.98,-24.98 338.96,-22.14"/>
<polygon fill="midnightblue" stroke="midnightblue" points="339.03,-18.64 328.82,-21.47 338.56,-25.62 339.03,-18.64"/>
</g>
<!-- Node53&#45;&gt;Node41 -->
<g id="edge160" class="edge">
<title>Node53&#45;&gt;Node41</title>
<path fill="none" stroke="midnightblue" d="M2873.47,-201.34C2853.96,-184.69 2808.13,-148.54 2762.25,-134 2553.42,-67.81 964.5,-26.39 616.48,-18.06"/>
<polygon fill="midnightblue" stroke="midnightblue" points="616.39,-14.55 606.31,-17.82 616.22,-21.55 616.39,-14.55"/>
</g>
<!-- Node53&#45;&gt;Node46 -->
<g id="edge158" class="edge">
<title>Node53&#45;&gt;Node46</title>
<path fill="none" stroke="midnightblue" d="M2911.82,-202.34C2944.74,-193.52 2999.82,-178.76 3042.8,-167.24"/>
<polygon fill="midnightblue" stroke="midnightblue" points="3043.86,-170.58 3052.61,-164.61 3042.05,-163.82 3043.86,-170.58"/>
</g>
</g>
</svg>
