<?xml version="1.0" encoding="UTF-8" standalone="no"?>
<!DOCTYPE svg PUBLIC "-//W3C//DTD SVG 1.1//EN"
 "http://www.w3.org/Graphics/SVG/1.1/DTD/svg11.dtd">
<!-- Generated by graphviz version 2.43.0 (0)
 -->
<!-- Title: seerep&#45;srv/seerep&#45;core&#45;pb/include/seerep&#45;core&#45;pb/core&#45;pb&#45;image.h Pages: 1 -->
<svg width="391pt" height="273pt"
 viewBox="0.00 0.00 390.50 273.00" xmlns="http://www.w3.org/2000/svg" xmlns:xlink="http://www.w3.org/1999/xlink">
<g id="graph0" class="graph" transform="scale(1 1) rotate(0) translate(4 269)">
<title>seerep&#45;srv/seerep&#45;core&#45;pb/include/seerep&#45;core&#45;pb/core&#45;pb&#45;image.h</title>
<!-- Node1 -->
<g id="node1" class="node">
<title>Node1</title>
<g id="a_node1"><a xlink:title=" ">
<polygon fill="#bfbfbf" stroke="black" points="86.5,-223.5 86.5,-264.5 217.5,-264.5 217.5,-223.5 86.5,-223.5"/>
<text text-anchor="start" x="94.5" y="-252.5" font-family="Helvetica,sans-Serif" font-size="10.00">seerep&#45;srv/seerep&#45;core</text>
<text text-anchor="start" x="94.5" y="-241.5" font-family="Helvetica,sans-Serif" font-size="10.00">&#45;pb/include/seerep&#45;core</text>
<text text-anchor="middle" x="152" y="-230.5" font-family="Helvetica,sans-Serif" font-size="10.00">&#45;pb/core&#45;pb&#45;image.h</text>
</a>
</g>
</g>
<!-- Node2 -->
<g id="node2" class="node">
<title>Node2</title>
<g id="a_node2"><a xlink:href="core-pb-image_8cpp.html" target="_top" xlink:title=" ">
<polygon fill="none" stroke="black" points="0,-151 0,-181 144,-181 144,-151 0,-151"/>
<text text-anchor="start" x="8" y="-169" font-family="Helvetica,sans-Serif" font-size="10.00">seerep&#45;srv/seerep&#45;core</text>
<text text-anchor="middle" x="72" y="-158" font-family="Helvetica,sans-Serif" font-size="10.00">&#45;pb/src/core&#45;pb&#45;image.cpp</text>
</a>
</g>
</g>
<!-- Node1&#45;&gt;Node2 -->
<g id="edge1" class="edge">
<title>Node1&#45;&gt;Node2</title>
<path fill="none" stroke="midnightblue" d="M123.92,-216.32C111.48,-204.51 97.35,-191.08 86.97,-181.23"/>
<polygon fill="midnightblue" stroke="midnightblue" points="121.74,-219.08 131.4,-223.43 126.56,-214 121.74,-219.08"/>
</g>
<!-- Node3 -->
<g id="node3" class="node">
<title>Node3</title>
<g id="a_node3"><a xlink:href="pb-image-service_8h.html" target="_top" xlink:title=" ">
<polygon fill="none" stroke="black" points="162.5,-145.5 162.5,-186.5 301.5,-186.5 301.5,-145.5 162.5,-145.5"/>
<text text-anchor="start" x="170.5" y="-174.5" font-family="Helvetica,sans-Serif" font-size="10.00">seerep&#45;srv/seerep&#45;server</text>
<text text-anchor="start" x="170.5" y="-163.5" font-family="Helvetica,sans-Serif" font-size="10.00">/include/seerep&#45;server</text>
<text text-anchor="middle" x="232" y="-152.5" font-family="Helvetica,sans-Serif" font-size="10.00">/pb&#45;image&#45;service.h</text>
</a>
</g>
</g>
<!-- Node1&#45;&gt;Node3 -->
<g id="edge2" class="edge">
<title>Node1&#45;&gt;Node3</title>
<path fill="none" stroke="midnightblue" d="M179.9,-216.49C190.28,-206.63 201.87,-195.63 211.47,-186.51"/>
<polygon fill="midnightblue" stroke="midnightblue" points="177.44,-214 172.6,-223.43 182.26,-219.08 177.44,-214"/>
</g>
<!-- Node4 -->
<g id="node4" class="node">
<title>Node4</title>
<g id="a_node4"><a xlink:href="server_8h.html" target="_top" xlink:title=" ">
<polygon fill="none" stroke="black" points="82.5,-67.5 82.5,-108.5 221.5,-108.5 221.5,-67.5 82.5,-67.5"/>
<text text-anchor="start" x="90.5" y="-96.5" font-family="Helvetica,sans-Serif" font-size="10.00">seerep&#45;srv/seerep&#45;server</text>
<text text-anchor="start" x="90.5" y="-85.5" font-family="Helvetica,sans-Serif" font-size="10.00">/include/seerep&#45;server</text>
<text text-anchor="middle" x="152" y="-74.5" font-family="Helvetica,sans-Serif" font-size="10.00">/server.h</text>
</a>
</g>
</g>
<!-- Node3&#45;&gt;Node4 -->
<g id="edge3" class="edge">
<title>Node3&#45;&gt;Node4</title>
<path fill="none" stroke="midnightblue" d="M204.1,-138.49C193.72,-128.63 182.13,-117.63 172.53,-108.51"/>
<polygon fill="midnightblue" stroke="midnightblue" points="201.74,-141.08 211.4,-145.43 206.56,-136 201.74,-141.08"/>
</g>
<!-- Node6 -->
<g id="node6" class="node">
<title>Node6</title>
<g id="a_node6"><a xlink:href="pb-image-service_8cpp.html" target="_top" xlink:title=" ">
<polygon fill="none" stroke="black" points="239.5,-73 239.5,-103 382.5,-103 382.5,-73 239.5,-73"/>
<text text-anchor="start" x="247.5" y="-91" font-family="Helvetica,sans-Serif" font-size="10.00">seerep&#45;srv/seerep&#45;server</text>
<text text-anchor="middle" x="311" y="-80" font-family="Helvetica,sans-Serif" font-size="10.00">/src/pb&#45;image&#45;service.cpp</text>
</a>
</g>
</g>
<!-- Node3&#45;&gt;Node6 -->
<g id="edge5" class="edge">
<title>Node3&#45;&gt;Node6</title>
<path fill="none" stroke="midnightblue" d="M259.73,-138.32C272.01,-126.51 285.97,-113.08 296.21,-103.23"/>
<polygon fill="midnightblue" stroke="midnightblue" points="257.12,-135.97 252.34,-145.43 261.98,-141.02 257.12,-135.97"/>
</g>
<!-- Node5 -->
<g id="node5" class="node">
<title>Node5</title>
<g id="a_node5"><a xlink:href="server_8cpp.html" target="_top" xlink:title=" ">
<polygon fill="none" stroke="black" points="82.5,-0.5 82.5,-30.5 221.5,-30.5 221.5,-0.5 82.5,-0.5"/>
<text text-anchor="start" x="90.5" y="-18.5" font-family="Helvetica,sans-Serif" font-size="10.00">seerep&#45;srv/seerep&#45;server</text>
<text text-anchor="middle" x="152" y="-7.5" font-family="Helvetica,sans-Serif" font-size="10.00">/src/server.cpp</text>
</a>
</g>
</g>
<!-- Node4&#45;&gt;Node5 -->
<g id="edge4" class="edge">
<title>Node4&#45;&gt;Node5</title>
<path fill="none" stroke="midnightblue" d="M152,-57.08C152,-48.01 152,-38.45 152,-30.89"/>
<polygon fill="midnightblue" stroke="midnightblue" points="148.5,-57.36 152,-67.36 155.5,-57.36 148.5,-57.36"/>
</g>
</g>
</svg>
