<?xml version="1.0" encoding="UTF-8" standalone="no"?>
<!DOCTYPE svg PUBLIC "-//W3C//DTD SVG 1.1//EN"
 "http://www.w3.org/Graphics/SVG/1.1/DTD/svg11.dtd">
<!-- Generated by graphviz version 2.43.0 (0)
 -->
<!-- Title: seerep_srv/seerep_core_fb/include/seerep_core_fb/core_fb_point.h Pages: 1 -->
<svg width="386pt" height="273pt"
 viewBox="0.00 0.00 386.00 273.00" xmlns="http://www.w3.org/2000/svg" xmlns:xlink="http://www.w3.org/1999/xlink">
<g id="graph0" class="graph" transform="scale(1 1) rotate(0) translate(4 269)">
<title>seerep_srv/seerep_core_fb/include/seerep_core_fb/core_fb_point.h</title>
<!-- Node1 -->
<g id="node1" class="node">
<title>Node1</title>
<g id="a_node1"><a xlink:title=" ">
<polygon fill="#bfbfbf" stroke="black" points="82,-223.5 82,-264.5 214,-264.5 214,-223.5 82,-223.5"/>
<text text-anchor="start" x="90" y="-252.5" font-family="Helvetica,sans-Serif" font-size="10.00">seerep_srv/seerep_core</text>
<text text-anchor="start" x="90" y="-241.5" font-family="Helvetica,sans-Serif" font-size="10.00">_fb/include/seerep_core</text>
<text text-anchor="middle" x="148" y="-230.5" font-family="Helvetica,sans-Serif" font-size="10.00">_fb/core_fb_point.h</text>
</a>
</g>
</g>
<!-- Node2 -->
<g id="node2" class="node">
<title>Node2</title>
<g id="a_node2"><a xlink:href="core__fb__point_8cpp.html" target="_top" xlink:title=" ">
<polygon fill="none" stroke="black" points="0,-151 0,-181 138,-181 138,-151 0,-151"/>
<text text-anchor="start" x="8" y="-169" font-family="Helvetica,sans-Serif" font-size="10.00">seerep_srv/seerep_core</text>
<text text-anchor="middle" x="69" y="-158" font-family="Helvetica,sans-Serif" font-size="10.00">_fb/src/core_fb_point.cpp</text>
</a>
</g>
</g>
<!-- Node1&#45;&gt;Node2 -->
<g id="edge1" class="edge">
<title>Node1&#45;&gt;Node2</title>
<path fill="none" stroke="midnightblue" d="M120.27,-216.32C107.99,-204.51 94.03,-191.08 83.79,-181.23"/>
<polygon fill="midnightblue" stroke="midnightblue" points="118.02,-219.02 127.66,-223.43 122.88,-213.97 118.02,-219.02"/>
</g>
<!-- Node3 -->
<g id="node3" class="node">
<title>Node3</title>
<g id="a_node3"><a xlink:href="fb__point__service_8h.html" target="_top" xlink:title=" ">
<polygon fill="none" stroke="black" points="156,-145.5 156,-186.5 298,-186.5 298,-145.5 156,-145.5"/>
<text text-anchor="start" x="164" y="-174.5" font-family="Helvetica,sans-Serif" font-size="10.00">seerep_srv/seerep_server</text>
<text text-anchor="start" x="164" y="-163.5" font-family="Helvetica,sans-Serif" font-size="10.00">/include/seerep_server</text>
<text text-anchor="middle" x="227" y="-152.5" font-family="Helvetica,sans-Serif" font-size="10.00">/fb_point_service.h</text>
</a>
</g>
</g>
<!-- Node1&#45;&gt;Node3 -->
<g id="edge2" class="edge">
<title>Node1&#45;&gt;Node3</title>
<path fill="none" stroke="midnightblue" d="M175.55,-216.49C185.81,-206.63 197.24,-195.63 206.72,-186.51"/>
<polygon fill="midnightblue" stroke="midnightblue" points="173.12,-213.97 168.34,-223.43 177.98,-219.02 173.12,-213.97"/>
</g>
<!-- Node4 -->
<g id="node4" class="node">
<title>Node4</title>
<g id="a_node4"><a xlink:href="server_8h.html" target="_top" xlink:title=" ">
<polygon fill="none" stroke="black" points="76,-67.5 76,-108.5 218,-108.5 218,-67.5 76,-67.5"/>
<text text-anchor="start" x="84" y="-96.5" font-family="Helvetica,sans-Serif" font-size="10.00">seerep_srv/seerep_server</text>
<text text-anchor="start" x="84" y="-85.5" font-family="Helvetica,sans-Serif" font-size="10.00">/include/seerep_server</text>
<text text-anchor="middle" x="147" y="-74.5" font-family="Helvetica,sans-Serif" font-size="10.00">/server.h</text>
</a>
</g>
</g>
<!-- Node3&#45;&gt;Node4 -->
<g id="edge3" class="edge">
<title>Node3&#45;&gt;Node4</title>
<path fill="none" stroke="midnightblue" d="M199.1,-138.49C188.72,-128.63 177.13,-117.63 167.53,-108.51"/>
<polygon fill="midnightblue" stroke="midnightblue" points="196.74,-141.08 206.4,-145.43 201.56,-136 196.74,-141.08"/>
</g>
<!-- Node6 -->
<g id="node6" class="node">
<title>Node6</title>
<g id="a_node6"><a xlink:href="fb__point__service_8cpp.html" target="_top" xlink:title=" ">
<polygon fill="none" stroke="black" points="236,-73 236,-103 378,-103 378,-73 236,-73"/>
<text text-anchor="start" x="244" y="-91" font-family="Helvetica,sans-Serif" font-size="10.00">seerep_srv/seerep_server</text>
<text text-anchor="middle" x="307" y="-80" font-family="Helvetica,sans-Serif" font-size="10.00">/src/fb_point_service.cpp</text>
</a>
</g>
</g>
<!-- Node3&#45;&gt;Node6 -->
<g id="edge5" class="edge">
<title>Node3&#45;&gt;Node6</title>
<path fill="none" stroke="midnightblue" d="M255.08,-138.32C267.52,-126.51 281.65,-113.08 292.03,-103.23"/>
<polygon fill="midnightblue" stroke="midnightblue" points="252.44,-136 247.6,-145.43 257.26,-141.08 252.44,-136"/>
</g>
<!-- Node5 -->
<g id="node5" class="node">
<title>Node5</title>
<g id="a_node5"><a xlink:href="server_8cpp.html" target="_top" xlink:title=" ">
<polygon fill="none" stroke="black" points="76,-0.5 76,-30.5 218,-30.5 218,-0.5 76,-0.5"/>
<text text-anchor="start" x="84" y="-18.5" font-family="Helvetica,sans-Serif" font-size="10.00">seerep_srv/seerep_server</text>
<text text-anchor="middle" x="147" y="-7.5" font-family="Helvetica,sans-Serif" font-size="10.00">/src/server.cpp</text>
</a>
</g>
</g>
<!-- Node4&#45;&gt;Node5 -->
<g id="edge4" class="edge">
<title>Node4&#45;&gt;Node5</title>
<path fill="none" stroke="midnightblue" d="M147,-57.08C147,-48.01 147,-38.45 147,-30.89"/>
<polygon fill="midnightblue" stroke="midnightblue" points="143.5,-57.36 147,-67.36 150.5,-57.36 143.5,-57.36"/>
</g>
</g>
</svg>
