<?xml version="1.0" encoding="UTF-8" standalone="no"?>
<!DOCTYPE svg PUBLIC "-//W3C//DTD SVG 1.1//EN"
 "http://www.w3.org/Graphics/SVG/1.1/DTD/svg11.dtd">
<!-- Generated by graphviz version 2.43.0 (0)
 -->
<!-- Title: seerep_srv/seerep_core_fb/include/seerep_core_fb/core_fb_conversion.h Pages: 1 -->
<svg width="1874pt" height="429pt"
 viewBox="0.00 0.00 1874.00 429.00" xmlns="http://www.w3.org/2000/svg" xmlns:xlink="http://www.w3.org/1999/xlink">
<g id="graph0" class="graph" transform="scale(1 1) rotate(0) translate(4 425)">
<title>seerep_srv/seerep_core_fb/include/seerep_core_fb/core_fb_conversion.h</title>
<!-- Node1 -->
<g id="node1" class="node">
<title>Node1</title>
<g id="a_node1"><a xlink:title=" ">
<polygon fill="#bfbfbf" stroke="black" points="941.5,-379.5 941.5,-420.5 1079.5,-420.5 1079.5,-379.5 941.5,-379.5"/>
<text text-anchor="start" x="949.5" y="-408.5" font-family="Helvetica,sans-Serif" font-size="10.00">seerep_srv/seerep_core</text>
<text text-anchor="start" x="949.5" y="-397.5" font-family="Helvetica,sans-Serif" font-size="10.00">_fb/include/seerep_core</text>
<text text-anchor="middle" x="1010.5" y="-386.5" font-family="Helvetica,sans-Serif" font-size="10.00">_fb/core_fb_conversion.h</text>
</a>
</g>
</g>
<!-- Node2 -->
<g id="node2" class="node">
<title>Node2</title>
<g id="a_node2"><a xlink:href="core__fb__camera__intrinsics_8h.html" target="_top" xlink:title=" ">
<polygon fill="none" stroke="black" points="332,-223.5 332,-264.5 503,-264.5 503,-223.5 332,-223.5"/>
<text text-anchor="start" x="340" y="-252.5" font-family="Helvetica,sans-Serif" font-size="10.00">seerep_srv/seerep_core</text>
<text text-anchor="start" x="340" y="-241.5" font-family="Helvetica,sans-Serif" font-size="10.00">_fb/include/seerep_core</text>
<text text-anchor="middle" x="417.5" y="-230.5" font-family="Helvetica,sans-Serif" font-size="10.00">_fb/core_fb_camera_intrinsics.h</text>
</a>
</g>
</g>
<!-- Node1&#45;&gt;Node2 -->
<g id="edge1" class="edge">
<title>Node1&#45;&gt;Node2</title>
<path fill="none" stroke="midnightblue" d="M931.47,-380.39C886.8,-369.73 829.95,-355.94 779.5,-343 677.65,-316.87 560.23,-284.71 487.43,-264.52"/>
<polygon fill="midnightblue" stroke="midnightblue" points="930.86,-383.84 941.39,-382.75 932.48,-377.03 930.86,-383.84"/>
</g>
<!-- Node4 -->
<g id="node4" class="node">
<title>Node4</title>
<g id="a_node4"><a xlink:href="fb__cameraintrinsics__service_8h.html" target="_top" xlink:title=" ">
<polygon fill="none" stroke="black" points="0,-145.5 0,-186.5 165,-186.5 165,-145.5 0,-145.5"/>
<text text-anchor="start" x="8" y="-174.5" font-family="Helvetica,sans-Serif" font-size="10.00">seerep_srv/seerep_server</text>
<text text-anchor="start" x="8" y="-163.5" font-family="Helvetica,sans-Serif" font-size="10.00">/include/seerep_server</text>
<text text-anchor="middle" x="82.5" y="-152.5" font-family="Helvetica,sans-Serif" font-size="10.00">/fb_cameraintrinsics_service.h</text>
</a>
</g>
</g>
<!-- Node1&#45;&gt;Node4 -->
<g id="edge39" class="edge">
<title>Node1&#45;&gt;Node4</title>
<path fill="none" stroke="midnightblue" d="M931.01,-389.97C852.86,-380.5 730.39,-364.07 625.5,-343 489.17,-315.62 454.51,-308.72 322.5,-265 252.22,-241.72 173.16,-207.9 125.63,-186.69"/>
<polygon fill="midnightblue" stroke="midnightblue" points="930.92,-393.49 941.26,-391.2 931.75,-386.54 930.92,-393.49"/>
</g>
<!-- Node8 -->
<g id="node8" class="node">
<title>Node8</title>
<g id="a_node8"><a xlink:href="core__fb__general_8h.html" target="_top" xlink:title=" ">
<polygon fill="none" stroke="black" points="897.5,-301.5 897.5,-342.5 1029.5,-342.5 1029.5,-301.5 897.5,-301.5"/>
<text text-anchor="start" x="905.5" y="-330.5" font-family="Helvetica,sans-Serif" font-size="10.00">seerep_srv/seerep_core</text>
<text text-anchor="start" x="905.5" y="-319.5" font-family="Helvetica,sans-Serif" font-size="10.00">_fb/include/seerep_core</text>
<text text-anchor="middle" x="963.5" y="-308.5" font-family="Helvetica,sans-Serif" font-size="10.00">_fb/core_fb_general.h</text>
</a>
</g>
</g>
<!-- Node1&#45;&gt;Node8 -->
<g id="edge7" class="edge">
<title>Node1&#45;&gt;Node8</title>
<path fill="none" stroke="midnightblue" d="M993.03,-370.76C987.22,-361.35 980.88,-351.1 975.56,-342.51"/>
<polygon fill="midnightblue" stroke="midnightblue" points="990.16,-372.76 998.4,-379.43 996.11,-369.08 990.16,-372.76"/>
</g>
<!-- Node9 -->
<g id="node9" class="node">
<title>Node9</title>
<g id="a_node9"><a xlink:href="core__fb__image_8h.html" target="_top" xlink:title=" ">
<polygon fill="none" stroke="black" points="612.5,-223.5 612.5,-264.5 744.5,-264.5 744.5,-223.5 612.5,-223.5"/>
<text text-anchor="start" x="620.5" y="-252.5" font-family="Helvetica,sans-Serif" font-size="10.00">seerep_srv/seerep_core</text>
<text text-anchor="start" x="620.5" y="-241.5" font-family="Helvetica,sans-Serif" font-size="10.00">_fb/include/seerep_core</text>
<text text-anchor="middle" x="678.5" y="-230.5" font-family="Helvetica,sans-Serif" font-size="10.00">_fb/core_fb_image.h</text>
</a>
</g>
</g>
<!-- Node1&#45;&gt;Node9 -->
<g id="edge29" class="edge">
<title>Node1&#45;&gt;Node9</title>
<path fill="none" stroke="midnightblue" d="M947.7,-375.8C922.8,-366.19 894.07,-354.6 868.5,-343 813.41,-318 751.44,-285.11 713.69,-264.51"/>
<polygon fill="midnightblue" stroke="midnightblue" points="946.45,-379.06 957.04,-379.37 948.95,-372.53 946.45,-379.06"/>
</g>
<!-- Node13 -->
<g id="node13" class="node">
<title>Node13</title>
<g id="a_node13"><a xlink:href="core__fb__point_8h.html" target="_top" xlink:title=" ">
<polygon fill="none" stroke="black" points="808.5,-223.5 808.5,-264.5 940.5,-264.5 940.5,-223.5 808.5,-223.5"/>
<text text-anchor="start" x="816.5" y="-252.5" font-family="Helvetica,sans-Serif" font-size="10.00">seerep_srv/seerep_core</text>
<text text-anchor="start" x="816.5" y="-241.5" font-family="Helvetica,sans-Serif" font-size="10.00">_fb/include/seerep_core</text>
<text text-anchor="middle" x="874.5" y="-230.5" font-family="Helvetica,sans-Serif" font-size="10.00">_fb/core_fb_point.h</text>
</a>
</g>
</g>
<!-- Node1&#45;&gt;Node13 -->
<g id="edge35" class="edge">
<title>Node1&#45;&gt;Node13</title>
<path fill="none" stroke="midnightblue" d="M931.91,-376.83C915.3,-368.71 899.5,-357.73 888.5,-343 871.54,-320.27 870.63,-286.13 872.12,-264.73"/>
<polygon fill="midnightblue" stroke="midnightblue" points="930.64,-380.1 941.19,-381.06 933.54,-373.73 930.64,-380.1"/>
</g>
<!-- Node17 -->
<g id="node17" class="node">
<title>Node17</title>
<g id="a_node17"><a xlink:href="core__fb__pointcloud_8h.html" target="_top" xlink:title=" ">
<polygon fill="none" stroke="black" points="985.5,-223.5 985.5,-264.5 1121.5,-264.5 1121.5,-223.5 985.5,-223.5"/>
<text text-anchor="start" x="993.5" y="-252.5" font-family="Helvetica,sans-Serif" font-size="10.00">seerep_srv/seerep_core</text>
<text text-anchor="start" x="993.5" y="-241.5" font-family="Helvetica,sans-Serif" font-size="10.00">_fb/include/seerep_core</text>
<text text-anchor="middle" x="1053.5" y="-230.5" font-family="Helvetica,sans-Serif" font-size="10.00">_fb/core_fb_pointcloud.h</text>
</a>
</g>
</g>
<!-- Node1&#45;&gt;Node17 -->
<g id="edge36" class="edge">
<title>Node1&#45;&gt;Node17</title>
<path fill="none" stroke="midnightblue" d="M1026.87,-370.54C1031.24,-361.92 1035.55,-352.28 1038.5,-343 1046.89,-316.59 1050.66,-284.64 1052.3,-264.56"/>
<polygon fill="midnightblue" stroke="midnightblue" points="1023.76,-368.94 1022.18,-379.42 1029.95,-372.21 1023.76,-368.94"/>
</g>
<!-- Node21 -->
<g id="node21" class="node">
<title>Node21</title>
<g id="a_node21"><a xlink:href="core__fb__tf_8h.html" target="_top" xlink:title=" ">
<polygon fill="none" stroke="black" points="1139.5,-223.5 1139.5,-264.5 1271.5,-264.5 1271.5,-223.5 1139.5,-223.5"/>
<text text-anchor="start" x="1147.5" y="-252.5" font-family="Helvetica,sans-Serif" font-size="10.00">seerep_srv/seerep_core</text>
<text text-anchor="start" x="1147.5" y="-241.5" font-family="Helvetica,sans-Serif" font-size="10.00">_fb/include/seerep_core</text>
<text text-anchor="middle" x="1205.5" y="-230.5" font-family="Helvetica,sans-Serif" font-size="10.00">_fb/core_fb_tf.h</text>
</a>
</g>
</g>
<!-- Node1&#45;&gt;Node21 -->
<g id="edge37" class="edge">
<title>Node1&#45;&gt;Node21</title>
<path fill="none" stroke="midnightblue" d="M1043.07,-373.28C1081.84,-342.66 1145.71,-292.21 1180.7,-264.59"/>
<polygon fill="midnightblue" stroke="midnightblue" points="1040.88,-370.55 1035.2,-379.5 1045.21,-376.04 1040.88,-370.55"/>
</g>
<!-- Node25 -->
<g id="node25" class="node">
<title>Node25</title>
<g id="a_node25"><a xlink:href="core__fb__instance_8h.html" target="_top" xlink:title=" ">
<polygon fill="none" stroke="black" points="1481.5,-301.5 1481.5,-342.5 1613.5,-342.5 1613.5,-301.5 1481.5,-301.5"/>
<text text-anchor="start" x="1489.5" y="-330.5" font-family="Helvetica,sans-Serif" font-size="10.00">seerep_srv/seerep_core</text>
<text text-anchor="start" x="1489.5" y="-319.5" font-family="Helvetica,sans-Serif" font-size="10.00">_fb/include/seerep_core</text>
<text text-anchor="middle" x="1547.5" y="-308.5" font-family="Helvetica,sans-Serif" font-size="10.00">_fb/core_fb_instance.h</text>
</a>
</g>
</g>
<!-- Node1&#45;&gt;Node25 -->
<g id="edge30" class="edge">
<title>Node1&#45;&gt;Node25</title>
<path fill="none" stroke="midnightblue" d="M1089.74,-390.53C1177.47,-380.77 1322.98,-363.4 1447.5,-343 1458.51,-341.2 1470.15,-339.07 1481.46,-336.89"/>
<polygon fill="midnightblue" stroke="midnightblue" points="1089.15,-387.08 1079.59,-391.66 1089.92,-394.03 1089.15,-387.08"/>
</g>
<!-- Node29 -->
<g id="node29" class="node">
<title>Node29</title>
<g id="a_node29"><a xlink:href="core__fb__conversion_8cpp.html" target="_top" xlink:title=" ">
<polygon fill="none" stroke="black" points="1632,-307 1632,-337 1799,-337 1799,-307 1632,-307"/>
<text text-anchor="start" x="1640" y="-325" font-family="Helvetica,sans-Serif" font-size="10.00">seerep_srv/seerep_core</text>
<text text-anchor="middle" x="1715.5" y="-314" font-family="Helvetica,sans-Serif" font-size="10.00">_fb/src/core_fb_conversion.cpp</text>
</a>
</g>
</g>
<!-- Node1&#45;&gt;Node29 -->
<g id="edge38" class="edge">
<title>Node1&#45;&gt;Node29</title>
<path fill="none" stroke="midnightblue" d="M1089.97,-394.8C1207.05,-387.91 1432.58,-372 1622.5,-343 1633.11,-341.38 1644.33,-339.29 1655.16,-337.08"/>
<polygon fill="midnightblue" stroke="midnightblue" points="1089.44,-391.32 1079.66,-395.4 1089.85,-398.31 1089.44,-391.32"/>
</g>
<!-- Node30 -->
<g id="node30" class="node">
<title>Node30</title>
<g id="a_node30"><a xlink:href="fb__meta__operations_8h.html" target="_top" xlink:title=" ">
<polygon fill="none" stroke="black" points="1296.5,-301.5 1296.5,-342.5 1438.5,-342.5 1438.5,-301.5 1296.5,-301.5"/>
<text text-anchor="start" x="1304.5" y="-330.5" font-family="Helvetica,sans-Serif" font-size="10.00">seerep_srv/seerep_server</text>
<text text-anchor="start" x="1304.5" y="-319.5" font-family="Helvetica,sans-Serif" font-size="10.00">/include/seerep_server</text>
<text text-anchor="middle" x="1367.5" y="-308.5" font-family="Helvetica,sans-Serif" font-size="10.00">/fb_meta_operations.h</text>
</a>
</g>
</g>
<!-- Node1&#45;&gt;Node30 -->
<g id="edge40" class="edge">
<title>Node1&#45;&gt;Node30</title>
<path fill="none" stroke="midnightblue" d="M1089.85,-382.11C1151.65,-368.95 1236.67,-350.85 1296.3,-338.16"/>
<polygon fill="midnightblue" stroke="midnightblue" points="1088.81,-378.75 1079.76,-384.26 1090.27,-385.6 1088.81,-378.75"/>
</g>
<!-- Node3 -->
<g id="node3" class="node">
<title>Node3</title>
<g id="a_node3"><a xlink:href="core__fb__camera__intrinsics_8cpp.html" target="_top" xlink:title=" ">
<polygon fill="none" stroke="black" points="183.5,-145.5 183.5,-186.5 315.5,-186.5 315.5,-145.5 183.5,-145.5"/>
<text text-anchor="start" x="191.5" y="-174.5" font-family="Helvetica,sans-Serif" font-size="10.00">seerep_srv/seerep_core</text>
<text text-anchor="start" x="191.5" y="-163.5" font-family="Helvetica,sans-Serif" font-size="10.00">_fb/src/core_fb_camera</text>
<text text-anchor="middle" x="249.5" y="-152.5" font-family="Helvetica,sans-Serif" font-size="10.00">_intrinsics.cpp</text>
</a>
</g>
</g>
<!-- Node2&#45;&gt;Node3 -->
<g id="edge2" class="edge">
<title>Node2&#45;&gt;Node3</title>
<path fill="none" stroke="midnightblue" d="M364.87,-219.19C341.62,-208.67 314.64,-196.47 292.62,-186.51"/>
<polygon fill="midnightblue" stroke="midnightblue" points="363.68,-222.5 374.24,-223.43 366.57,-216.12 363.68,-222.5"/>
</g>
<!-- Node2&#45;&gt;Node4 -->
<g id="edge3" class="edge">
<title>Node2&#45;&gt;Node4</title>
<path fill="none" stroke="midnightblue" d="M321.61,-221.25C272.21,-210.04 212.58,-196.51 165.22,-185.77"/>
<polygon fill="midnightblue" stroke="midnightblue" points="321.14,-224.73 331.66,-223.53 322.69,-217.9 321.14,-224.73"/>
</g>
<!-- Node5 -->
<g id="node5" class="node">
<title>Node5</title>
<g id="a_node5"><a xlink:href="server_8h.html" target="_top" xlink:title=" ">
<polygon fill="none" stroke="black" points="1066.5,-67.5 1066.5,-108.5 1208.5,-108.5 1208.5,-67.5 1066.5,-67.5"/>
<text text-anchor="start" x="1074.5" y="-96.5" font-family="Helvetica,sans-Serif" font-size="10.00">seerep_srv/seerep_server</text>
<text text-anchor="start" x="1074.5" y="-85.5" font-family="Helvetica,sans-Serif" font-size="10.00">/include/seerep_server</text>
<text text-anchor="middle" x="1137.5" y="-74.5" font-family="Helvetica,sans-Serif" font-size="10.00">/server.h</text>
</a>
</g>
</g>
<!-- Node4&#45;&gt;Node5 -->
<g id="edge4" class="edge">
<title>Node4&#45;&gt;Node5</title>
<path fill="none" stroke="midnightblue" d="M175.26,-145.04C523.89,-100.31 616.35,-136.65 962.5,-109 996.64,-106.27 1034.4,-102.1 1066.09,-98.28"/>
<polygon fill="midnightblue" stroke="midnightblue" points="174.6,-141.59 165.14,-146.35 175.5,-148.53 174.6,-141.59"/>
</g>
<!-- Node7 -->
<g id="node7" class="node">
<title>Node7</title>
<g id="a_node7"><a xlink:href="fb__cameraintrinsics__service_8cpp.html" target="_top" xlink:title=" ">
<polygon fill="none" stroke="black" points="11.5,-67.5 11.5,-108.5 153.5,-108.5 153.5,-67.5 11.5,-67.5"/>
<text text-anchor="start" x="19.5" y="-96.5" font-family="Helvetica,sans-Serif" font-size="10.00">seerep_srv/seerep_server</text>
<text text-anchor="start" x="19.5" y="-85.5" font-family="Helvetica,sans-Serif" font-size="10.00">/src/fb_cameraintrinsics</text>
<text text-anchor="middle" x="82.5" y="-74.5" font-family="Helvetica,sans-Serif" font-size="10.00">_service.cpp</text>
</a>
</g>
</g>
<!-- Node4&#45;&gt;Node7 -->
<g id="edge6" class="edge">
<title>Node4&#45;&gt;Node7</title>
<path fill="none" stroke="midnightblue" d="M82.5,-135.3C82.5,-126.3 82.5,-116.65 82.5,-108.51"/>
<polygon fill="midnightblue" stroke="midnightblue" points="79,-135.43 82.5,-145.43 86,-135.43 79,-135.43"/>
</g>
<!-- Node6 -->
<g id="node6" class="node">
<title>Node6</title>
<g id="a_node6"><a xlink:href="server_8cpp.html" target="_top" xlink:title=" ">
<polygon fill="none" stroke="black" points="1066.5,-0.5 1066.5,-30.5 1208.5,-30.5 1208.5,-0.5 1066.5,-0.5"/>
<text text-anchor="start" x="1074.5" y="-18.5" font-family="Helvetica,sans-Serif" font-size="10.00">seerep_srv/seerep_server</text>
<text text-anchor="middle" x="1137.5" y="-7.5" font-family="Helvetica,sans-Serif" font-size="10.00">/src/server.cpp</text>
</a>
</g>
</g>
<!-- Node5&#45;&gt;Node6 -->
<g id="edge5" class="edge">
<title>Node5&#45;&gt;Node6</title>
<path fill="none" stroke="midnightblue" d="M1137.5,-57.08C1137.5,-48.01 1137.5,-38.45 1137.5,-30.89"/>
<polygon fill="midnightblue" stroke="midnightblue" points="1134,-57.36 1137.5,-67.36 1141,-57.36 1134,-57.36"/>
</g>
<!-- Node8&#45;&gt;Node2 -->
<g id="edge8" class="edge">
<title>Node8&#45;&gt;Node2</title>
<path fill="none" stroke="midnightblue" d="M887.24,-310.39C786.29,-296.33 608.76,-271.62 503.25,-256.94"/>
<polygon fill="midnightblue" stroke="midnightblue" points="886.98,-313.88 897.37,-311.79 887.95,-306.95 886.98,-313.88"/>
</g>
<!-- Node8&#45;&gt;Node9 -->
<g id="edge9" class="edge">
<title>Node8&#45;&gt;Node9</title>
<path fill="none" stroke="midnightblue" d="M887.51,-300.74C843.03,-288.88 787.42,-274.04 744.74,-262.66"/>
<polygon fill="midnightblue" stroke="midnightblue" points="886.83,-304.18 897.4,-303.37 888.64,-297.41 886.83,-304.18"/>
</g>
<!-- Node8&#45;&gt;Node13 -->
<g id="edge14" class="edge">
<title>Node8&#45;&gt;Node13</title>
<path fill="none" stroke="midnightblue" d="M932.79,-294.78C921.16,-284.84 908.13,-273.72 897.34,-264.51"/>
<polygon fill="midnightblue" stroke="midnightblue" points="930.7,-297.6 940.58,-301.43 935.25,-292.27 930.7,-297.6"/>
</g>
<!-- Node8&#45;&gt;Node17 -->
<g id="edge19" class="edge">
<title>Node8&#45;&gt;Node17</title>
<path fill="none" stroke="midnightblue" d="M994.55,-294.78C1006.32,-284.84 1019.49,-273.72 1030.4,-264.51"/>
<polygon fill="midnightblue" stroke="midnightblue" points="992.06,-292.3 986.68,-301.43 996.58,-297.65 992.06,-292.3"/>
</g>
<!-- Node8&#45;&gt;Node21 -->
<g id="edge24" class="edge">
<title>Node8&#45;&gt;Node21</title>
<path fill="none" stroke="midnightblue" d="M1035.77,-298.3C1070.03,-287.55 1110.54,-274.82 1143.39,-264.51"/>
<polygon fill="midnightblue" stroke="midnightblue" points="1034.31,-295.09 1025.82,-301.43 1036.41,-301.77 1034.31,-295.09"/>
</g>
<!-- Node10 -->
<g id="node10" class="node">
<title>Node10</title>
<g id="a_node10"><a xlink:href="core__fb__image_8cpp.html" target="_top" xlink:title=" ">
<polygon fill="none" stroke="black" points="333.5,-151 333.5,-181 477.5,-181 477.5,-151 333.5,-151"/>
<text text-anchor="start" x="341.5" y="-169" font-family="Helvetica,sans-Serif" font-size="10.00">seerep_srv/seerep_core</text>
<text text-anchor="middle" x="405.5" y="-158" font-family="Helvetica,sans-Serif" font-size="10.00">_fb/src/core_fb_image.cpp</text>
</a>
</g>
</g>
<!-- Node9&#45;&gt;Node10 -->
<g id="edge10" class="edge">
<title>Node9&#45;&gt;Node10</title>
<path fill="none" stroke="midnightblue" d="M602.62,-221.88C555.84,-208.85 497.15,-192.51 456.02,-181.06"/>
<polygon fill="midnightblue" stroke="midnightblue" points="601.84,-225.29 612.41,-224.6 603.72,-218.55 601.84,-225.29"/>
</g>
<!-- Node11 -->
<g id="node11" class="node">
<title>Node11</title>
<g id="a_node11"><a xlink:href="fb__image__service_8h.html" target="_top" xlink:title=" ">
<polygon fill="none" stroke="black" points="495.5,-145.5 495.5,-186.5 637.5,-186.5 637.5,-145.5 495.5,-145.5"/>
<text text-anchor="start" x="503.5" y="-174.5" font-family="Helvetica,sans-Serif" font-size="10.00">seerep_srv/seerep_server</text>
<text text-anchor="start" x="503.5" y="-163.5" font-family="Helvetica,sans-Serif" font-size="10.00">/include/seerep_server</text>
<text text-anchor="middle" x="566.5" y="-152.5" font-family="Helvetica,sans-Serif" font-size="10.00">/fb_image_service.h</text>
</a>
</g>
</g>
<!-- Node9&#45;&gt;Node11 -->
<g id="edge11" class="edge">
<title>Node9&#45;&gt;Node11</title>
<path fill="none" stroke="midnightblue" d="M641.12,-217.64C626.16,-207.49 609.21,-195.98 595.25,-186.51"/>
<polygon fill="midnightblue" stroke="midnightblue" points="639.42,-220.71 649.66,-223.43 643.35,-214.92 639.42,-220.71"/>
</g>
<!-- Node11&#45;&gt;Node5 -->
<g id="edge12" class="edge">
<title>Node11&#45;&gt;Node5</title>
<path fill="none" stroke="midnightblue" d="M648.13,-144.81C787.36,-120.04 825.35,-124.65 962.5,-109 996.68,-105.1 1034.62,-100.77 1066.4,-97.13"/>
<polygon fill="midnightblue" stroke="midnightblue" points="647.15,-141.43 637.93,-146.65 648.39,-148.32 647.15,-141.43"/>
</g>
<!-- Node12 -->
<g id="node12" class="node">
<title>Node12</title>
<g id="a_node12"><a xlink:href="fb__image__service_8cpp.html" target="_top" xlink:title=" ">
<polygon fill="none" stroke="black" points="495,-73 495,-103 638,-103 638,-73 495,-73"/>
<text text-anchor="start" x="503" y="-91" font-family="Helvetica,sans-Serif" font-size="10.00">seerep_srv/seerep_server</text>
<text text-anchor="middle" x="566.5" y="-80" font-family="Helvetica,sans-Serif" font-size="10.00">/src/fb_image_service.cpp</text>
</a>
</g>
</g>
<!-- Node11&#45;&gt;Node12 -->
<g id="edge13" class="edge">
<title>Node11&#45;&gt;Node12</title>
<path fill="none" stroke="midnightblue" d="M566.5,-135.28C566.5,-124.25 566.5,-112.25 566.5,-103.23"/>
<polygon fill="midnightblue" stroke="midnightblue" points="563,-135.43 566.5,-145.43 570,-135.43 563,-135.43"/>
</g>
<!-- Node14 -->
<g id="node14" class="node">
<title>Node14</title>
<g id="a_node14"><a xlink:href="core__fb__point_8cpp.html" target="_top" xlink:title=" ">
<polygon fill="none" stroke="black" points="655.5,-151 655.5,-181 793.5,-181 793.5,-151 655.5,-151"/>
<text text-anchor="start" x="663.5" y="-169" font-family="Helvetica,sans-Serif" font-size="10.00">seerep_srv/seerep_core</text>
<text text-anchor="middle" x="724.5" y="-158" font-family="Helvetica,sans-Serif" font-size="10.00">_fb/src/core_fb_point.cpp</text>
</a>
</g>
</g>
<!-- Node13&#45;&gt;Node14 -->
<g id="edge15" class="edge">
<title>Node13&#45;&gt;Node14</title>
<path fill="none" stroke="midnightblue" d="M826.75,-218.81C802.31,-206.43 773.41,-191.78 752.58,-181.23"/>
<polygon fill="midnightblue" stroke="midnightblue" points="825.37,-222.03 835.87,-223.43 828.53,-215.79 825.37,-222.03"/>
</g>
<!-- Node15 -->
<g id="node15" class="node">
<title>Node15</title>
<g id="a_node15"><a xlink:href="fb__point__service_8h.html" target="_top" xlink:title=" ">
<polygon fill="none" stroke="black" points="811.5,-145.5 811.5,-186.5 953.5,-186.5 953.5,-145.5 811.5,-145.5"/>
<text text-anchor="start" x="819.5" y="-174.5" font-family="Helvetica,sans-Serif" font-size="10.00">seerep_srv/seerep_server</text>
<text text-anchor="start" x="819.5" y="-163.5" font-family="Helvetica,sans-Serif" font-size="10.00">/include/seerep_server</text>
<text text-anchor="middle" x="882.5" y="-152.5" font-family="Helvetica,sans-Serif" font-size="10.00">/fb_point_service.h</text>
</a>
</g>
</g>
<!-- Node13&#45;&gt;Node15 -->
<g id="edge16" class="edge">
<title>Node13&#45;&gt;Node15</title>
<path fill="none" stroke="midnightblue" d="M877.63,-213.3C878.57,-204.3 879.59,-194.65 880.45,-186.51"/>
<polygon fill="midnightblue" stroke="midnightblue" points="874.13,-213.12 876.56,-223.43 881.09,-213.85 874.13,-213.12"/>
</g>
<!-- Node15&#45;&gt;Node5 -->
<g id="edge17" class="edge">
<title>Node15&#45;&gt;Node5</title>
<path fill="none" stroke="midnightblue" d="M958.19,-142.44C994.38,-131.66 1037.29,-118.87 1072.05,-108.51"/>
<polygon fill="midnightblue" stroke="midnightblue" points="956.75,-139.22 948.17,-145.43 958.75,-145.93 956.75,-139.22"/>
</g>
<!-- Node16 -->
<g id="node16" class="node">
<title>Node16</title>
<g id="a_node16"><a xlink:href="fb__point__service_8cpp.html" target="_top" xlink:title=" ">
<polygon fill="none" stroke="black" points="811.5,-73 811.5,-103 953.5,-103 953.5,-73 811.5,-73"/>
<text text-anchor="start" x="819.5" y="-91" font-family="Helvetica,sans-Serif" font-size="10.00">seerep_srv/seerep_server</text>
<text text-anchor="middle" x="882.5" y="-80" font-family="Helvetica,sans-Serif" font-size="10.00">/src/fb_point_service.cpp</text>
</a>
</g>
</g>
<!-- Node15&#45;&gt;Node16 -->
<g id="edge18" class="edge">
<title>Node15&#45;&gt;Node16</title>
<path fill="none" stroke="midnightblue" d="M882.5,-135.28C882.5,-124.25 882.5,-112.25 882.5,-103.23"/>
<polygon fill="midnightblue" stroke="midnightblue" points="879,-135.43 882.5,-145.43 886,-135.43 879,-135.43"/>
</g>
<!-- Node18 -->
<g id="node18" class="node">
<title>Node18</title>
<g id="a_node18"><a xlink:href="core__fb__pointcloud_8cpp.html" target="_top" xlink:title=" ">
<polygon fill="none" stroke="black" points="971.5,-151 971.5,-181 1135.5,-181 1135.5,-151 971.5,-151"/>
<text text-anchor="start" x="979.5" y="-169" font-family="Helvetica,sans-Serif" font-size="10.00">seerep_srv/seerep_core</text>
<text text-anchor="middle" x="1053.5" y="-158" font-family="Helvetica,sans-Serif" font-size="10.00">_fb/src/core_fb_pointcloud.cpp</text>
</a>
</g>
</g>
<!-- Node17&#45;&gt;Node18 -->
<g id="edge20" class="edge">
<title>Node17&#45;&gt;Node18</title>
<path fill="none" stroke="midnightblue" d="M1053.5,-213.28C1053.5,-202.25 1053.5,-190.25 1053.5,-181.23"/>
<polygon fill="midnightblue" stroke="midnightblue" points="1050,-213.43 1053.5,-223.43 1057,-213.43 1050,-213.43"/>
</g>
<!-- Node19 -->
<g id="node19" class="node">
<title>Node19</title>
<g id="a_node19"><a xlink:href="fb__point__cloud__service_8h.html" target="_top" xlink:title=" ">
<polygon fill="none" stroke="black" points="1153.5,-145.5 1153.5,-186.5 1295.5,-186.5 1295.5,-145.5 1153.5,-145.5"/>
<text text-anchor="start" x="1161.5" y="-174.5" font-family="Helvetica,sans-Serif" font-size="10.00">seerep_srv/seerep_server</text>
<text text-anchor="start" x="1161.5" y="-163.5" font-family="Helvetica,sans-Serif" font-size="10.00">/include/seerep_server</text>
<text text-anchor="middle" x="1224.5" y="-152.5" font-family="Helvetica,sans-Serif" font-size="10.00">/fb_point_cloud_service.h</text>
</a>
</g>
</g>
<!-- Node17&#45;&gt;Node19 -->
<g id="edge21" class="edge">
<title>Node17&#45;&gt;Node19</title>
<path fill="none" stroke="midnightblue" d="M1106.76,-219.33C1130.49,-208.78 1158.1,-196.51 1180.61,-186.51"/>
<polygon fill="midnightblue" stroke="midnightblue" points="1105.25,-216.17 1097.54,-223.43 1108.1,-222.57 1105.25,-216.17"/>
</g>
<!-- Node19&#45;&gt;Node5 -->
<g id="edge22" class="edge">
<title>Node19&#45;&gt;Node5</title>
<path fill="none" stroke="midnightblue" d="M1194.48,-138.78C1183.11,-128.84 1170.37,-117.72 1159.83,-108.51"/>
<polygon fill="midnightblue" stroke="midnightblue" points="1192.26,-141.49 1202.1,-145.43 1196.87,-136.21 1192.26,-141.49"/>
</g>
<!-- Node20 -->
<g id="node20" class="node">
<title>Node20</title>
<g id="a_node20"><a xlink:href="fb__point__cloud__service_8cpp.html" target="_top" xlink:title=" ">
<polygon fill="none" stroke="black" points="1227,-73 1227,-103 1396,-103 1396,-73 1227,-73"/>
<text text-anchor="start" x="1235" y="-91" font-family="Helvetica,sans-Serif" font-size="10.00">seerep_srv/seerep_server</text>
<text text-anchor="middle" x="1311.5" y="-80" font-family="Helvetica,sans-Serif" font-size="10.00">/src/fb_point_cloud_service.cpp</text>
</a>
</g>
</g>
<!-- Node19&#45;&gt;Node20 -->
<g id="edge23" class="edge">
<title>Node19&#45;&gt;Node20</title>
<path fill="none" stroke="midnightblue" d="M1254.65,-138.66C1268.27,-126.76 1283.83,-113.18 1295.22,-103.23"/>
<polygon fill="midnightblue" stroke="midnightblue" points="1252.13,-136.21 1246.9,-145.43 1256.74,-141.49 1252.13,-136.21"/>
</g>
<!-- Node22 -->
<g id="node22" class="node">
<title>Node22</title>
<g id="a_node22"><a xlink:href="core__fb__tf_8cpp.html" target="_top" xlink:title=" ">
<polygon fill="none" stroke="black" points="1313.5,-151 1313.5,-181 1445.5,-181 1445.5,-151 1313.5,-151"/>
<text text-anchor="start" x="1321.5" y="-169" font-family="Helvetica,sans-Serif" font-size="10.00">seerep_srv/seerep_core</text>
<text text-anchor="middle" x="1379.5" y="-158" font-family="Helvetica,sans-Serif" font-size="10.00">_fb/src/core_fb_tf.cpp</text>
</a>
</g>
</g>
<!-- Node21&#45;&gt;Node22 -->
<g id="edge25" class="edge">
<title>Node21&#45;&gt;Node22</title>
<path fill="none" stroke="midnightblue" d="M1259.8,-219.28C1288.48,-206.76 1322.71,-191.81 1347.2,-181.11"/>
<polygon fill="midnightblue" stroke="midnightblue" points="1258.07,-216.22 1250.31,-223.43 1260.87,-222.63 1258.07,-216.22"/>
</g>
<!-- Node23 -->
<g id="node23" class="node">
<title>Node23</title>
<g id="a_node23"><a xlink:href="fb__tf__service_8h.html" target="_top" xlink:title=" ">
<polygon fill="none" stroke="black" points="1501.5,-145.5 1501.5,-186.5 1643.5,-186.5 1643.5,-145.5 1501.5,-145.5"/>
<text text-anchor="start" x="1509.5" y="-174.5" font-family="Helvetica,sans-Serif" font-size="10.00">seerep_srv/seerep_server</text>
<text text-anchor="start" x="1509.5" y="-163.5" font-family="Helvetica,sans-Serif" font-size="10.00">/include/seerep_server</text>
<text text-anchor="middle" x="1572.5" y="-152.5" font-family="Helvetica,sans-Serif" font-size="10.00">/fb_tf_service.h</text>
</a>
</g>
</g>
<!-- Node21&#45;&gt;Node23 -->
<g id="edge26" class="edge">
<title>Node21&#45;&gt;Node23</title>
<path fill="none" stroke="midnightblue" d="M1281.2,-223.07C1281.3,-223.05 1281.4,-223.02 1281.5,-223 1356.12,-206.02 1442.27,-189.87 1501.36,-179.31"/>
<polygon fill="midnightblue" stroke="midnightblue" points="1280.69,-219.59 1271.75,-225.28 1282.29,-226.41 1280.69,-219.59"/>
</g>
<!-- Node23&#45;&gt;Node5 -->
<g id="edge27" class="edge">
<title>Node23&#45;&gt;Node5</title>
<path fill="none" stroke="midnightblue" d="M1491.3,-145.71C1490.03,-145.47 1488.76,-145.23 1487.5,-145 1368.87,-123.16 1337.01,-131.49 1218.5,-109 1215.23,-108.38 1211.89,-107.71 1208.52,-107"/>
<polygon fill="midnightblue" stroke="midnightblue" points="1490.69,-149.16 1501.19,-147.68 1492.06,-142.3 1490.69,-149.16"/>
</g>
<!-- Node24 -->
<g id="node24" class="node">
<title>Node24</title>
<g id="a_node24"><a xlink:href="fb__tf__service_8cpp.html" target="_top" xlink:title=" ">
<polygon fill="none" stroke="black" points="1501.5,-73 1501.5,-103 1643.5,-103 1643.5,-73 1501.5,-73"/>
<text text-anchor="start" x="1509.5" y="-91" font-family="Helvetica,sans-Serif" font-size="10.00">seerep_srv/seerep_server</text>
<text text-anchor="middle" x="1572.5" y="-80" font-family="Helvetica,sans-Serif" font-size="10.00">/src/fb_tf_service.cpp</text>
</a>
</g>
</g>
<!-- Node23&#45;&gt;Node24 -->
<g id="edge28" class="edge">
<title>Node23&#45;&gt;Node24</title>
<path fill="none" stroke="midnightblue" d="M1572.5,-135.28C1572.5,-124.25 1572.5,-112.25 1572.5,-103.23"/>
<polygon fill="midnightblue" stroke="midnightblue" points="1569,-135.43 1572.5,-145.43 1576,-135.43 1569,-135.43"/>
</g>
<!-- Node26 -->
<g id="node26" class="node">
<title>Node26</title>
<g id="a_node26"><a xlink:href="core__fb__instance_8cpp.html" target="_top" xlink:title=" ">
<polygon fill="none" stroke="black" points="1711,-229 1711,-259 1866,-259 1866,-229 1711,-229"/>
<text text-anchor="start" x="1719" y="-247" font-family="Helvetica,sans-Serif" font-size="10.00">seerep_srv/seerep_core</text>
<text text-anchor="middle" x="1788.5" y="-236" font-family="Helvetica,sans-Serif" font-size="10.00">_fb/src/core_fb_instance.cpp</text>
</a>
</g>
</g>
<!-- Node25&#45;&gt;Node26 -->
<g id="edge31" class="edge">
<title>Node25&#45;&gt;Node26</title>
<path fill="none" stroke="midnightblue" d="M1619.1,-298.42C1659.54,-285.67 1708.81,-270.13 1743.77,-259.11"/>
<polygon fill="midnightblue" stroke="midnightblue" points="1618.05,-295.08 1609.56,-301.43 1620.15,-301.76 1618.05,-295.08"/>
</g>
<!-- Node27 -->
<g id="node27" class="node">
<title>Node27</title>
<g id="a_node27"><a xlink:href="fb__instance__service_8h.html" target="_top" xlink:title=" ">
<polygon fill="none" stroke="black" points="1550.5,-223.5 1550.5,-264.5 1692.5,-264.5 1692.5,-223.5 1550.5,-223.5"/>
<text text-anchor="start" x="1558.5" y="-252.5" font-family="Helvetica,sans-Serif" font-size="10.00">seerep_srv/seerep_server</text>
<text text-anchor="start" x="1558.5" y="-241.5" font-family="Helvetica,sans-Serif" font-size="10.00">/include/seerep_server</text>
<text text-anchor="middle" x="1621.5" y="-230.5" font-family="Helvetica,sans-Serif" font-size="10.00">/fb_instance_service.h</text>
</a>
</g>
</g>
<!-- Node25&#45;&gt;Node27 -->
<g id="edge32" class="edge">
<title>Node25&#45;&gt;Node27</title>
<path fill="none" stroke="midnightblue" d="M1573.59,-294.2C1583.12,-284.42 1593.71,-273.54 1602.51,-264.51"/>
<polygon fill="midnightblue" stroke="midnightblue" points="1571.03,-291.82 1566.56,-301.43 1576.04,-296.71 1571.03,-291.82"/>
</g>
<!-- Node27&#45;&gt;Node5 -->
<g id="edge33" class="edge">
<title>Node27&#45;&gt;Node5</title>
<path fill="none" stroke="midnightblue" d="M1643.55,-214.84C1657.6,-193.31 1670.13,-164.16 1652.5,-145 1619.73,-109.4 1266.25,-116.82 1218.5,-109 1215.36,-108.48 1212.15,-107.91 1208.93,-107.29"/>
<polygon fill="midnightblue" stroke="midnightblue" points="1640.54,-213.04 1637.74,-223.26 1646.3,-217.02 1640.54,-213.04"/>
</g>
<!-- Node28 -->
<g id="node28" class="node">
<title>Node28</title>
<g id="a_node28"><a xlink:href="fb__instance__service_8cpp.html" target="_top" xlink:title=" ">
<polygon fill="none" stroke="black" points="1699.5,-151 1699.5,-181 1853.5,-181 1853.5,-151 1699.5,-151"/>
<text text-anchor="start" x="1707.5" y="-169" font-family="Helvetica,sans-Serif" font-size="10.00">seerep_srv/seerep_server</text>
<text text-anchor="middle" x="1776.5" y="-158" font-family="Helvetica,sans-Serif" font-size="10.00">/src/fb_instance_service.cpp</text>
</a>
</g>
</g>
<!-- Node27&#45;&gt;Node28 -->
<g id="edge34" class="edge">
<title>Node27&#45;&gt;Node28</title>
<path fill="none" stroke="midnightblue" d="M1670.51,-218.97C1695.83,-206.55 1725.87,-191.83 1747.49,-181.23"/>
<polygon fill="midnightblue" stroke="midnightblue" points="1668.85,-215.88 1661.42,-223.43 1671.94,-222.17 1668.85,-215.88"/>
</g>
<!-- Node30&#45;&gt;Node5 -->
<g id="edge41" class="edge">
<title>Node30&#45;&gt;Node5</title>
<path fill="none" stroke="midnightblue" d="M1424.71,-295.77C1436.63,-287.73 1447.65,-277.56 1454.5,-265 1480.04,-218.18 1489.25,-185.46 1454.5,-145 1419.93,-104.76 1270.53,-119.37 1218.5,-109 1215.23,-108.35 1211.9,-107.65 1208.54,-106.93"/>
<polygon fill="midnightblue" stroke="midnightblue" points="1422.55,-293 1415.92,-301.26 1426.26,-298.94 1422.55,-293"/>
</g>
<!-- Node31 -->
<g id="node31" class="node">
<title>Node31</title>
<g id="a_node31"><a xlink:href="fb__meta__operations_8cpp.html" target="_top" xlink:title=" ">
<polygon fill="none" stroke="black" points="1290,-229 1290,-259 1445,-259 1445,-229 1290,-229"/>
<text text-anchor="start" x="1298" y="-247" font-family="Helvetica,sans-Serif" font-size="10.00">seerep_srv/seerep_server</text>
<text text-anchor="middle" x="1367.5" y="-236" font-family="Helvetica,sans-Serif" font-size="10.00">/src/fb_meta_operations.cpp</text>
</a>
</g>
</g>
<!-- Node30&#45;&gt;Node31 -->
<g id="edge42" class="edge">
<title>Node30&#45;&gt;Node31</title>
<path fill="none" stroke="midnightblue" d="M1367.5,-291.28C1367.5,-280.25 1367.5,-268.25 1367.5,-259.23"/>
<polygon fill="midnightblue" stroke="midnightblue" points="1364,-291.43 1367.5,-301.43 1371,-291.43 1364,-291.43"/>
</g>
</g>
</svg>
