<?xml version="1.0" encoding="UTF-8" standalone="no"?>
<!DOCTYPE svg PUBLIC "-//W3C//DTD SVG 1.1//EN"
 "http://www.w3.org/Graphics/SVG/1.1/DTD/svg11.dtd">
<!-- Generated by graphviz version 2.43.0 (0)
 -->
<!-- Title: seerep_srv/seerep_core_pb/include/seerep_core_pb/core_pb_conversion.h Pages: 1 -->
<svg width="4012pt" height="117pt"
 viewBox="0.00 0.00 4012.00 117.00" xmlns="http://www.w3.org/2000/svg" xmlns:xlink="http://www.w3.org/1999/xlink">
<g id="graph0" class="graph" transform="scale(1 1) rotate(0) translate(4 113)">
<title>seerep_srv/seerep_core_pb/include/seerep_core_pb/core_pb_conversion.h</title>
<!-- Node1 -->
<g id="node1" class="node">
<title>Node1</title>
<g id="a_node1"><a xlink:title=" ">
<polygon fill="#bfbfbf" stroke="black" points="1827,-67.5 1827,-108.5 1970,-108.5 1970,-67.5 1827,-67.5"/>
<text text-anchor="start" x="1835" y="-96.5" font-family="Helvetica,sans-Serif" font-size="10.00">seerep_srv/seerep_core</text>
<text text-anchor="start" x="1835" y="-85.5" font-family="Helvetica,sans-Serif" font-size="10.00">_pb/include/seerep_core</text>
<text text-anchor="middle" x="1898.5" y="-74.5" font-family="Helvetica,sans-Serif" font-size="10.00">_pb/core_pb_conversion.h</text>
</a>
</g>
</g>
<!-- Node2 -->
<g id="node2" class="node">
<title>Node2</title>
<g id="a_node2"><a xlink:title=" ">
<polygon fill="none" stroke="#bfbfbf" points="0,-6 0,-25 65,-25 65,-6 0,-6"/>
<text text-anchor="middle" x="32.5" y="-13" font-family="Helvetica,sans-Serif" font-size="10.00">functional</text>
</a>
</g>
</g>
<!-- Node1&#45;&gt;Node2 -->
<g id="edge1" class="edge">
<title>Node1&#45;&gt;Node2</title>
<path fill="none" stroke="midnightblue" d="M1826.99,-86.08C1511.1,-81.83 248.76,-62.99 74.5,-31 70.79,-30.32 66.97,-29.37 63.21,-28.28"/>
<polygon fill="midnightblue" stroke="midnightblue" points="64.12,-24.9 53.53,-25.15 61.97,-31.56 64.12,-24.9"/>
</g>
<!-- Node3 -->
<g id="node3" class="node">
<title>Node3</title>
<g id="a_node3"><a xlink:title=" ">
<polygon fill="none" stroke="#bfbfbf" points="83.5,-6 83.5,-25 139.5,-25 139.5,-6 83.5,-6"/>
<text text-anchor="middle" x="111.5" y="-13" font-family="Helvetica,sans-Serif" font-size="10.00">optional</text>
</a>
</g>
</g>
<!-- Node1&#45;&gt;Node3 -->
<g id="edge2" class="edge">
<title>Node1&#45;&gt;Node3</title>
<path fill="none" stroke="midnightblue" d="M1826.77,-86.15C1518.53,-82.28 314.45,-65.11 148.5,-31 145.42,-30.37 142.27,-29.5 139.17,-28.5"/>
<polygon fill="midnightblue" stroke="midnightblue" points="140.16,-25.14 129.57,-25 137.76,-31.72 140.16,-25.14"/>
</g>
<!-- Node4 -->
<g id="node4" class="node">
<title>Node4</title>
<g id="a_node4"><a xlink:title=" ">
<polygon fill="none" stroke="#bfbfbf" points="158,-6 158,-25 329,-25 329,-6 158,-6"/>
<text text-anchor="middle" x="243.5" y="-13" font-family="Helvetica,sans-Serif" font-size="10.00">seerep_msgs/boundingbox.pb.h</text>
</a>
</g>
</g>
<!-- Node1&#45;&gt;Node4 -->
<g id="edge3" class="edge">
<title>Node1&#45;&gt;Node4</title>
<path fill="none" stroke="midnightblue" d="M1826.73,-87.41C1604.76,-88.04 909.84,-85.22 337.5,-31 325.93,-29.9 313.62,-28.31 301.84,-26.59"/>
<polygon fill="midnightblue" stroke="midnightblue" points="302.08,-23.08 291.67,-25.04 301.03,-30 302.08,-23.08"/>
</g>
<!-- Node5 -->
<g id="node5" class="node">
<title>Node5</title>
<g id="a_node5"><a xlink:title=" ">
<polygon fill="none" stroke="#bfbfbf" points="347,-0.5 347,-30.5 468,-30.5 468,-0.5 347,-0.5"/>
<text text-anchor="start" x="355" y="-18.5" font-family="Helvetica,sans-Serif" font-size="10.00">seerep_msgs/camera</text>
<text text-anchor="middle" x="407.5" y="-7.5" font-family="Helvetica,sans-Serif" font-size="10.00">_intrinsics.pb.h</text>
</a>
</g>
</g>
<!-- Node1&#45;&gt;Node5 -->
<g id="edge4" class="edge">
<title>Node1&#45;&gt;Node5</title>
<path fill="none" stroke="midnightblue" d="M1826.83,-85.74C1579.7,-81.15 763.2,-63.92 478.42,-30.92"/>
<polygon fill="midnightblue" stroke="midnightblue" points="478.45,-27.4 468.1,-29.69 477.62,-34.35 478.45,-27.4"/>
</g>
<!-- Node6 -->
<g id="node6" class="node">
<title>Node6</title>
<g id="a_node6"><a xlink:title=" ">
<polygon fill="none" stroke="#bfbfbf" points="486.5,-0.5 486.5,-30.5 608.5,-30.5 608.5,-0.5 486.5,-0.5"/>
<text text-anchor="start" x="494.5" y="-18.5" font-family="Helvetica,sans-Serif" font-size="10.00">seerep_msgs/camera</text>
<text text-anchor="middle" x="547.5" y="-7.5" font-family="Helvetica,sans-Serif" font-size="10.00">_intrinsics_query.pb.h</text>
</a>
</g>
</g>
<!-- Node1&#45;&gt;Node6 -->
<g id="edge5" class="edge">
<title>Node1&#45;&gt;Node6</title>
<path fill="none" stroke="midnightblue" d="M1826.69,-85.38C1595.87,-79.94 873.66,-61.01 618.83,-31"/>
<polygon fill="midnightblue" stroke="midnightblue" points="619.22,-27.52 608.87,-29.79 618.37,-34.47 619.22,-27.52"/>
</g>
<!-- Node7 -->
<g id="node7" class="node">
<title>Node7</title>
<g id="a_node7"><a xlink:title=" ">
<polygon fill="none" stroke="#bfbfbf" points="626.5,-6 626.5,-25 778.5,-25 778.5,-6 626.5,-6"/>
<text text-anchor="middle" x="702.5" y="-13" font-family="Helvetica,sans-Serif" font-size="10.00">seerep_msgs/datatype.pb.h</text>
</a>
</g>
</g>
<!-- Node1&#45;&gt;Node7 -->
<g id="edge6" class="edge">
<title>Node1&#45;&gt;Node7</title>
<path fill="none" stroke="midnightblue" d="M1826.78,-86.33C1649.77,-84.03 1178.15,-74.01 787.5,-31 777.46,-29.89 766.8,-28.36 756.55,-26.71"/>
<polygon fill="midnightblue" stroke="midnightblue" points="756.92,-23.22 746.48,-25.02 755.76,-30.13 756.92,-23.22"/>
</g>
<!-- Node8 -->
<g id="node8" class="node">
<title>Node8</title>
<g id="a_node8"><a xlink:title=" ">
<polygon fill="none" stroke="#bfbfbf" points="797,-6 797,-25 936,-25 936,-6 797,-6"/>
<text text-anchor="middle" x="866.5" y="-13" font-family="Helvetica,sans-Serif" font-size="10.00">seerep_msgs/image.pb.h</text>
</a>
</g>
</g>
<!-- Node1&#45;&gt;Node8 -->
<g id="edge7" class="edge">
<title>Node1&#45;&gt;Node8</title>
<path fill="none" stroke="midnightblue" d="M1826.8,-85.79C1667.67,-82.45 1273.15,-70.54 945.5,-31 936.45,-29.91 926.87,-28.43 917.63,-26.83"/>
<polygon fill="midnightblue" stroke="midnightblue" points="918.22,-23.38 907.76,-25.06 916.99,-30.27 918.22,-23.38"/>
</g>
<!-- Node9 -->
<g id="node9" class="node">
<title>Node9</title>
<g id="a_node9"><a xlink:title=" ">
<polygon fill="none" stroke="#bfbfbf" points="954.5,-0.5 954.5,-30.5 1094.5,-30.5 1094.5,-0.5 954.5,-0.5"/>
<text text-anchor="start" x="962.5" y="-18.5" font-family="Helvetica,sans-Serif" font-size="10.00">seerep_msgs/point_cloud</text>
<text text-anchor="middle" x="1024.5" y="-7.5" font-family="Helvetica,sans-Serif" font-size="10.00">_2.pb.h</text>
</a>
</g>
</g>
<!-- Node1&#45;&gt;Node9 -->
<g id="edge8" class="edge">
<title>Node1&#45;&gt;Node9</title>
<path fill="none" stroke="midnightblue" d="M1826.98,-84.63C1689.1,-79.48 1376.86,-64.98 1104.72,-31.06"/>
<polygon fill="midnightblue" stroke="midnightblue" points="1105.01,-27.57 1094.65,-29.79 1104.13,-34.51 1105.01,-27.57"/>
</g>
<!-- Node10 -->
<g id="node10" class="node">
<title>Node10</title>
<g id="a_node10"><a xlink:title=" ">
<polygon fill="none" stroke="#bfbfbf" points="1112.5,-6 1112.5,-25 1246.5,-25 1246.5,-6 1112.5,-6"/>
<text text-anchor="middle" x="1179.5" y="-13" font-family="Helvetica,sans-Serif" font-size="10.00">seerep_msgs/query.pb.h</text>
</a>
</g>
</g>
<!-- Node1&#45;&gt;Node10 -->
<g id="edge9" class="edge">
<title>Node1&#45;&gt;Node10</title>
<path fill="none" stroke="midnightblue" d="M1826.87,-83.15C1707.84,-76.21 1461.95,-59.61 1255.5,-31 1247.18,-29.85 1238.39,-28.39 1229.86,-26.85"/>
<polygon fill="midnightblue" stroke="midnightblue" points="1230.47,-23.41 1220,-25.02 1229.19,-30.29 1230.47,-23.41"/>
</g>
<!-- Node11 -->
<g id="node11" class="node">
<title>Node11</title>
<g id="a_node11"><a xlink:title=" ">
<polygon fill="none" stroke="#bfbfbf" points="1265,-0.5 1265,-30.5 1380,-30.5 1380,-0.5 1265,-0.5"/>
<text text-anchor="start" x="1273" y="-18.5" font-family="Helvetica,sans-Serif" font-size="10.00">seerep_msgs/region</text>
<text text-anchor="middle" x="1322.5" y="-7.5" font-family="Helvetica,sans-Serif" font-size="10.00">_of_interest.pb.h</text>
</a>
</g>
</g>
<!-- Node1&#45;&gt;Node11 -->
<g id="edge10" class="edge">
<title>Node1&#45;&gt;Node11</title>
<path fill="none" stroke="midnightblue" d="M1826.95,-81.48C1730.19,-73.49 1552.09,-56.94 1390.31,-31.02"/>
<polygon fill="midnightblue" stroke="midnightblue" points="1390.6,-27.52 1380.17,-29.38 1389.48,-34.43 1390.6,-27.52"/>
</g>
<!-- Node12 -->
<g id="node12" class="node">
<title>Node12</title>
<g id="a_node12"><a xlink:title=" ">
<polygon fill="none" stroke="#bfbfbf" points="1398.5,-0.5 1398.5,-30.5 1530.5,-30.5 1530.5,-0.5 1398.5,-0.5"/>
<text text-anchor="start" x="1406.5" y="-18.5" font-family="Helvetica,sans-Serif" font-size="10.00">seerep_msgs/transform</text>
<text text-anchor="middle" x="1464.5" y="-7.5" font-family="Helvetica,sans-Serif" font-size="10.00">_stamped.pb.h</text>
</a>
</g>
</g>
<!-- Node1&#45;&gt;Node12 -->
<g id="edge11" class="edge">
<title>Node1&#45;&gt;Node12</title>
<path fill="none" stroke="midnightblue" d="M1826.85,-76.6C1756.57,-66.23 1646.09,-49.45 1540.89,-31.21"/>
<polygon fill="midnightblue" stroke="midnightblue" points="1541.18,-27.71 1530.73,-29.44 1539.98,-34.6 1541.18,-27.71"/>
</g>
<!-- Node13 -->
<g id="node13" class="node">
<title>Node13</title>
<g id="a_node13"><a xlink:title=" ">
<polygon fill="none" stroke="#bfbfbf" points="1548.5,-0.5 1548.5,-30.5 1680.5,-30.5 1680.5,-0.5 1548.5,-0.5"/>
<text text-anchor="start" x="1556.5" y="-18.5" font-family="Helvetica,sans-Serif" font-size="10.00">seerep_msgs/transform</text>
<text text-anchor="middle" x="1614.5" y="-7.5" font-family="Helvetica,sans-Serif" font-size="10.00">_stamped_query.pb.h</text>
</a>
</g>
</g>
<!-- Node1&#45;&gt;Node13 -->
<g id="edge12" class="edge">
<title>Node1&#45;&gt;Node13</title>
<path fill="none" stroke="midnightblue" d="M1826.83,-69.21C1782.02,-58.08 1724.69,-43.85 1680.9,-32.98"/>
<polygon fill="midnightblue" stroke="midnightblue" points="1681.48,-29.52 1670.93,-30.51 1679.79,-36.31 1681.48,-29.52"/>
</g>
<!-- Node14 -->
<g id="node14" class="node">
<title>Node14</title>
<g id="a_node14"><a xlink:title=" ">
<polygon fill="none" stroke="#bfbfbf" points="1699,-0.5 1699,-30.5 1820,-30.5 1820,-0.5 1699,-0.5"/>
<text text-anchor="start" x="1707" y="-18.5" font-family="Helvetica,sans-Serif" font-size="10.00">seerep_msgs/camera</text>
<text text-anchor="middle" x="1759.5" y="-7.5" font-family="Helvetica,sans-Serif" font-size="10.00">_intrinsics.h</text>
</a>
</g>
</g>
<!-- Node1&#45;&gt;Node14 -->
<g id="edge13" class="edge">
<title>Node1&#45;&gt;Node14</title>
<path fill="none" stroke="midnightblue" d="M1859.78,-67.36C1839.95,-57.3 1815.92,-45.12 1796.36,-35.2"/>
<polygon fill="midnightblue" stroke="midnightblue" points="1797.94,-32.07 1787.44,-30.67 1794.77,-38.31 1797.94,-32.07"/>
</g>
<!-- Node15 -->
<g id="node15" class="node">
<title>Node15</title>
<g id="a_node15"><a xlink:title=" ">
<polygon fill="none" stroke="#bfbfbf" points="1838,-0.5 1838,-30.5 1959,-30.5 1959,-0.5 1838,-0.5"/>
<text text-anchor="start" x="1846" y="-18.5" font-family="Helvetica,sans-Serif" font-size="10.00">seerep_msgs/camera</text>
<text text-anchor="middle" x="1898.5" y="-7.5" font-family="Helvetica,sans-Serif" font-size="10.00">_intrinsics_query.h</text>
</a>
</g>
</g>
<!-- Node1&#45;&gt;Node15 -->
<g id="edge14" class="edge">
<title>Node1&#45;&gt;Node15</title>
<path fill="none" stroke="midnightblue" d="M1898.5,-67.36C1898.5,-59.23 1898.5,-49.7 1898.5,-41.11"/>
<polygon fill="midnightblue" stroke="midnightblue" points="1902,-40.89 1898.5,-30.89 1895,-40.89 1902,-40.89"/>
</g>
<!-- Node16 -->
<g id="node16" class="node">
<title>Node16</title>
<g id="a_node16"><a xlink:title=" ">
<polygon fill="none" stroke="#bfbfbf" points="1977,-0.5 1977,-30.5 2098,-30.5 2098,-0.5 1977,-0.5"/>
<text text-anchor="start" x="1985" y="-18.5" font-family="Helvetica,sans-Serif" font-size="10.00">seerep_msgs/dataset</text>
<text text-anchor="middle" x="2037.5" y="-7.5" font-family="Helvetica,sans-Serif" font-size="10.00">_indexable.h</text>
</a>
</g>
</g>
<!-- Node1&#45;&gt;Node16 -->
<g id="edge15" class="edge">
<title>Node1&#45;&gt;Node16</title>
<path fill="none" stroke="midnightblue" d="M1937.22,-67.36C1957.05,-57.3 1981.08,-45.12 2000.64,-35.2"/>
<polygon fill="midnightblue" stroke="midnightblue" points="2002.23,-38.31 2009.56,-30.67 1999.06,-32.07 2002.23,-38.31"/>
</g>
<!-- Node17 -->
<g id="node17" class="node">
<title>Node17</title>
<g id="a_node17"><a xlink:title=" ">
<polygon fill="none" stroke="#bfbfbf" points="2116,-6 2116,-25 2233,-25 2233,-6 2116,-6"/>
<text text-anchor="middle" x="2174.5" y="-13" font-family="Helvetica,sans-Serif" font-size="10.00">seerep_msgs/label.h</text>
</a>
</g>
</g>
<!-- Node1&#45;&gt;Node17 -->
<g id="edge16" class="edge">
<title>Node1&#45;&gt;Node17</title>
<path fill="none" stroke="midnightblue" d="M1970.3,-68.66C2021.31,-55.63 2088.14,-38.56 2131.21,-27.56"/>
<polygon fill="midnightblue" stroke="midnightblue" points="2132.26,-30.9 2141.08,-25.04 2130.53,-24.12 2132.26,-30.9"/>
</g>
<!-- Node18 -->
<g id="node18" class="node">
<title>Node18</title>
<g id="a_node18"><a xlink:title=" ">
<polygon fill="none" stroke="#bfbfbf" points="2251.5,-6 2251.5,-25 2421.5,-25 2421.5,-6 2251.5,-6"/>
<text text-anchor="middle" x="2336.5" y="-13" font-family="Helvetica,sans-Serif" font-size="10.00">seerep_msgs/label_datumaro.h</text>
</a>
</g>
</g>
<!-- Node1&#45;&gt;Node18 -->
<g id="edge17" class="edge">
<title>Node1&#45;&gt;Node18</title>
<path fill="none" stroke="midnightblue" d="M1970.34,-75.44C2054.7,-61.86 2193.31,-39.55 2273.6,-26.62"/>
<polygon fill="midnightblue" stroke="midnightblue" points="2274.26,-30.06 2283.58,-25.02 2273.15,-23.15 2274.26,-30.06"/>
</g>
<!-- Node19 -->
<g id="node19" class="node">
<title>Node19</title>
<g id="a_node19"><a xlink:title=" ">
<polygon fill="none" stroke="#bfbfbf" points="2440,-6 2440,-25 2559,-25 2559,-6 2440,-6"/>
<text text-anchor="middle" x="2499.5" y="-13" font-family="Helvetica,sans-Serif" font-size="10.00">seerep_msgs/query.h</text>
</a>
</g>
</g>
<!-- Node1&#45;&gt;Node19 -->
<g id="edge18" class="edge">
<title>Node1&#45;&gt;Node19</title>
<path fill="none" stroke="midnightblue" d="M1970.22,-81.79C2072.7,-73.82 2266.74,-56.76 2430.5,-31 2437.65,-29.88 2445.18,-28.5 2452.53,-27.04"/>
<polygon fill="midnightblue" stroke="midnightblue" points="2453.29,-30.46 2462.39,-25.03 2451.89,-23.6 2453.29,-30.46"/>
</g>
<!-- Node20 -->
<g id="node20" class="node">
<title>Node20</title>
<g id="a_node20"><a xlink:title=" ">
<polygon fill="none" stroke="#bfbfbf" points="2577.5,-6 2577.5,-25 2731.5,-25 2731.5,-6 2577.5,-6"/>
<text text-anchor="middle" x="2654.5" y="-13" font-family="Helvetica,sans-Serif" font-size="10.00">seerep_msgs/query_result.h</text>
</a>
</g>
</g>
<!-- Node1&#45;&gt;Node20 -->
<g id="edge19" class="edge">
<title>Node1&#45;&gt;Node20</title>
<path fill="none" stroke="midnightblue" d="M1970.1,-82.99C2092.88,-75.67 2351.35,-58.33 2568.5,-31 2578.09,-29.79 2588.24,-28.29 2598.08,-26.7"/>
<polygon fill="midnightblue" stroke="midnightblue" points="2598.89,-30.12 2608.19,-25.04 2597.75,-23.21 2598.89,-30.12"/>
</g>
<!-- Node21 -->
<g id="node21" class="node">
<title>Node21</title>
<g id="a_node21"><a xlink:title=" ">
<polygon fill="none" stroke="#bfbfbf" points="2750,-6 2750,-25 2883,-25 2883,-6 2750,-6"/>
<text text-anchor="middle" x="2816.5" y="-13" font-family="Helvetica,sans-Serif" font-size="10.00">seerep_msgs/query_tf.h</text>
</a>
</g>
</g>
<!-- Node1&#45;&gt;Node21 -->
<g id="edge20" class="edge">
<title>Node1&#45;&gt;Node21</title>
<path fill="none" stroke="midnightblue" d="M1970.03,-85.19C2115.61,-80.85 2456.59,-67.39 2740.5,-31 2749.02,-29.91 2758.03,-28.46 2766.75,-26.89"/>
<polygon fill="midnightblue" stroke="midnightblue" points="2767.62,-30.29 2776.81,-25.02 2766.34,-23.41 2767.62,-30.29"/>
</g>
<!-- Node22 -->
<g id="node22" class="node">
<title>Node22</title>
<g id="a_node22"><a xlink:title=" ">
<polygon fill="none" stroke="#bfbfbf" points="2901,-0.5 2901,-30.5 3016,-30.5 3016,-0.5 2901,-0.5"/>
<text text-anchor="start" x="2909" y="-18.5" font-family="Helvetica,sans-Serif" font-size="10.00">seerep_msgs/region</text>
<text text-anchor="middle" x="2958.5" y="-7.5" font-family="Helvetica,sans-Serif" font-size="10.00">_of_interest.h</text>
</a>
</g>
</g>
<!-- Node1&#45;&gt;Node22 -->
<g id="edge21" class="edge">
<title>Node1&#45;&gt;Node22</title>
<path fill="none" stroke="midnightblue" d="M1970.29,-86.88C2132.86,-85.76 2541.5,-78.2 2890.6,-31.13"/>
<polygon fill="midnightblue" stroke="midnightblue" points="2891.21,-34.58 2900.65,-29.76 2890.27,-27.64 2891.21,-34.58"/>
</g>
<!-- Node23 -->
<g id="node23" class="node">
<title>Node23</title>
<g id="a_node23"><a xlink:title=" ">
<polygon fill="none" stroke="#bfbfbf" points="3034.5,-6 3034.5,-25 3234.5,-25 3234.5,-6 3034.5,-6"/>
<text text-anchor="middle" x="3134.5" y="-13" font-family="Helvetica,sans-Serif" font-size="10.00">geometry_msgs/TransformStamped.h</text>
</a>
</g>
</g>
<!-- Node1&#45;&gt;Node23 -->
<g id="edge22" class="edge">
<title>Node1&#45;&gt;Node23</title>
<path fill="none" stroke="midnightblue" d="M1970.17,-85.49C2148.75,-81.29 2627.76,-67.27 3025.5,-31 3038.91,-29.78 3053.2,-28.13 3066.87,-26.38"/>
<polygon fill="midnightblue" stroke="midnightblue" points="3067.72,-29.8 3077.18,-25.03 3066.81,-22.86 3067.72,-29.8"/>
</g>
<!-- Node24 -->
<g id="node24" class="node">
<title>Node24</title>
<g id="a_node24"><a xlink:title=" ">
<polygon fill="none" stroke="#bfbfbf" points="3253,-6 3253,-25 3396,-25 3396,-6 3253,-6"/>
<text text-anchor="middle" x="3324.5" y="-13" font-family="Helvetica,sans-Serif" font-size="10.00">boost/functional/hash.hpp</text>
</a>
</g>
</g>
<!-- Node1&#45;&gt;Node24 -->
<g id="edge23" class="edge">
<title>Node1&#45;&gt;Node24</title>
<path fill="none" stroke="midnightblue" d="M1970.2,-87.43C2171.57,-87.89 2759.13,-84.19 3243.5,-31 3253.09,-29.95 3263.26,-28.44 3273.03,-26.79"/>
<polygon fill="midnightblue" stroke="midnightblue" points="3273.79,-30.21 3283.03,-25.04 3272.58,-23.32 3273.79,-30.21"/>
</g>
<!-- Node25 -->
<g id="node25" class="node">
<title>Node25</title>
<g id="a_node25"><a xlink:title=" ">
<polygon fill="none" stroke="#bfbfbf" points="3414,-6 3414,-25 3539,-25 3539,-6 3414,-6"/>
<text text-anchor="middle" x="3476.5" y="-13" font-family="Helvetica,sans-Serif" font-size="10.00">boost/lexical_cast.hpp</text>
</a>
</g>
</g>
<!-- Node1&#45;&gt;Node25 -->
<g id="edge24" class="edge">
<title>Node1&#45;&gt;Node25</title>
<path fill="none" stroke="midnightblue" d="M1970.42,-85.9C2230.62,-81.65 3122.48,-64.93 3405.5,-31 3413.67,-30.02 3422.3,-28.6 3430.62,-27.02"/>
<polygon fill="midnightblue" stroke="midnightblue" points="3431.45,-30.42 3440.57,-25.03 3430.08,-23.56 3431.45,-30.42"/>
</g>
<!-- Node26 -->
<g id="node26" class="node">
<title>Node26</title>
<g id="a_node26"><a xlink:title=" ">
<polygon fill="none" stroke="#bfbfbf" points="3557,-6 3557,-25 3670,-25 3670,-6 3557,-6"/>
<text text-anchor="middle" x="3613.5" y="-13" font-family="Helvetica,sans-Serif" font-size="10.00">boost/uuid/uuid.hpp</text>
</a>
</g>
</g>
<!-- Node1&#45;&gt;Node26 -->
<g id="edge25" class="edge">
<title>Node1&#45;&gt;Node26</title>
<path fill="none" stroke="midnightblue" d="M1970.06,-86.34C2245.36,-83.52 3236.27,-70.77 3548.5,-31 3555.75,-30.08 3563.39,-28.72 3570.78,-27.21"/>
<polygon fill="midnightblue" stroke="midnightblue" points="3571.61,-30.61 3580.64,-25.07 3570.13,-23.77 3571.61,-30.61"/>
</g>
<!-- Node27 -->
<g id="node27" class="node">
<title>Node27</title>
<g id="a_node27"><a xlink:title=" ">
<polygon fill="none" stroke="#bfbfbf" points="3688.5,-6 3688.5,-25 3858.5,-25 3858.5,-6 3688.5,-6"/>
<text text-anchor="middle" x="3773.5" y="-13" font-family="Helvetica,sans-Serif" font-size="10.00">boost/uuid/uuid_generators.hpp</text>
</a>
</g>
</g>
<!-- Node1&#45;&gt;Node27 -->
<g id="edge26" class="edge">
<title>Node1&#45;&gt;Node27</title>
<path fill="none" stroke="midnightblue" d="M1970.18,-85.91C2259.13,-81.34 3339.12,-62.49 3679.5,-31 3691.32,-29.91 3703.91,-28.28 3715.91,-26.52"/>
<polygon fill="midnightblue" stroke="midnightblue" points="3716.46,-29.97 3725.82,-25.01 3715.41,-23.05 3716.46,-29.97"/>
</g>
<!-- Node28 -->
<g id="node28" class="node">
<title>Node28</title>
<g id="a_node28"><a xlink:title=" ">
<polygon fill="none" stroke="#bfbfbf" points="3877,-6 3877,-25 4004,-25 4004,-6 3877,-6"/>
<text text-anchor="middle" x="3940.5" y="-13" font-family="Helvetica,sans-Serif" font-size="10.00">boost/uuid/uuid_io.hpp</text>
</a>
</g>
</g>
<!-- Node1&#45;&gt;Node28 -->
<g id="edge27" class="edge">
<title>Node1&#45;&gt;Node28</title>
<path fill="none" stroke="midnightblue" d="M1970.11,-86.57C2277.77,-84.49 3488.91,-73.68 3867.5,-31 3876.08,-30.03 3885.16,-28.58 3893.89,-26.97"/>
<polygon fill="midnightblue" stroke="midnightblue" points="3894.78,-30.36 3903.93,-25.01 3893.44,-23.49 3894.78,-30.36"/>
</g>
</g>
</svg>
