<?xml version="1.0" encoding="UTF-8" standalone="no"?>
<!DOCTYPE svg PUBLIC "-//W3C//DTD SVG 1.1//EN"
 "http://www.w3.org/Graphics/SVG/1.1/DTD/svg11.dtd">
<!-- Generated by graphviz version 2.43.0 (0)
 -->
<!-- Title: seerep&#45;srv/seerep&#45;core/include/seerep&#45;core/core&#45;instances.h Pages: 1 -->
<svg width="1488pt" height="307pt"
 viewBox="0.00 0.00 1487.82 307.00" xmlns="http://www.w3.org/2000/svg" xmlns:xlink="http://www.w3.org/1999/xlink">
<g id="graph0" class="graph" transform="scale(1 1) rotate(0) translate(4 303)">
<title>seerep&#45;srv/seerep&#45;core/include/seerep&#45;core/core&#45;instances.h</title>
<!-- Node1 -->
<g id="node1" class="node">
<title>Node1</title>
<g id="a_node1"><a xlink:title=" ">
<polygon fill="#bfbfbf" stroke="black" points="436.82,-257.5 436.82,-298.5 576.82,-298.5 576.82,-257.5 436.82,-257.5"/>
<text text-anchor="start" x="444.82" y="-286.5" font-family="Helvetica,sans-Serif" font-size="10.00">seerep&#45;srv/seerep&#45;core</text>
<text text-anchor="start" x="444.82" y="-275.5" font-family="Helvetica,sans-Serif" font-size="10.00">/include/seerep&#45;core/core</text>
<text text-anchor="middle" x="506.82" y="-264.5" font-family="Helvetica,sans-Serif" font-size="10.00">&#45;instances.h</text>
</a>
</g>
</g>
<!-- Node2 -->
<g id="node2" class="node">
<title>Node2</title>
<g id="a_node2"><a xlink:title=" ">
<polygon fill="none" stroke="#bfbfbf" points="160.32,-140 160.32,-159 225.32,-159 225.32,-140 160.32,-140"/>
<text text-anchor="middle" x="192.82" y="-147" font-family="Helvetica,sans-Serif" font-size="10.00">functional</text>
</a>
</g>
</g>
<!-- Node1&#45;&gt;Node2 -->
<g id="edge1" class="edge">
<title>Node1&#45;&gt;Node2</title>
<path fill="none" stroke="midnightblue" d="M458.1,-257.37C392.59,-230.98 278.03,-184.83 223.43,-162.83"/>
<polygon fill="midnightblue" stroke="midnightblue" points="224.55,-159.51 213.96,-159.02 221.93,-166 224.55,-159.51"/>
</g>
<!-- Node3 -->
<g id="node3" class="node">
<title>Node3</title>
<g id="a_node3"><a xlink:title=" ">
<polygon fill="none" stroke="#bfbfbf" points="276.82,-6 276.82,-25 332.82,-25 332.82,-6 276.82,-6"/>
<text text-anchor="middle" x="304.82" y="-13" font-family="Helvetica,sans-Serif" font-size="10.00">optional</text>
</a>
</g>
</g>
<!-- Node1&#45;&gt;Node3 -->
<g id="edge2" class="edge">
<title>Node1&#45;&gt;Node3</title>
<path fill="none" stroke="midnightblue" d="M436.58,-274.89C366.67,-270.62 257.6,-257.98 170.82,-221 86.68,-185.14 46.85,-179.75 5.82,-98 -0.36,-85.69 -3.07,-77.52 5.82,-67 38.78,-28.01 193.44,-19.11 266.46,-17.09"/>
<polygon fill="midnightblue" stroke="midnightblue" points="266.71,-20.59 276.62,-16.84 266.53,-13.59 266.71,-20.59"/>
</g>
<!-- Node4 -->
<g id="node4" class="node">
<title>Node4</title>
<g id="a_node4"><a xlink:href="core-instance_8h.html" target="_top" xlink:title=" ">
<polygon fill="none" stroke="black" points="460.82,-201.5 460.82,-220.5 552.82,-220.5 552.82,-201.5 460.82,-201.5"/>
<text text-anchor="middle" x="506.82" y="-208.5" font-family="Helvetica,sans-Serif" font-size="10.00">core&#45;instance.h</text>
</a>
</g>
</g>
<!-- Node1&#45;&gt;Node4 -->
<g id="edge3" class="edge">
<title>Node1&#45;&gt;Node4</title>
<path fill="none" stroke="midnightblue" d="M506.82,-257.5C506.82,-249.07 506.82,-239.24 506.82,-230.87"/>
<polygon fill="midnightblue" stroke="midnightblue" points="510.32,-230.65 506.82,-220.65 503.32,-230.65 510.32,-230.65"/>
</g>
<!-- Node5 -->
<g id="node5" class="node">
<title>Node5</title>
<g id="a_node5"><a xlink:title=" ">
<polygon fill="none" stroke="#bfbfbf" points="616.32,-140 616.32,-159 751.32,-159 751.32,-140 616.32,-140"/>
<text text-anchor="middle" x="683.82" y="-147" font-family="Helvetica,sans-Serif" font-size="10.00">seerep&#45;msgs/datatype.h</text>
</a>
</g>
</g>
<!-- Node1&#45;&gt;Node5 -->
<g id="edge34" class="edge">
<title>Node1&#45;&gt;Node5</title>
<path fill="none" stroke="midnightblue" d="M534.48,-257.23C570.21,-231.7 631.57,-187.84 663.38,-165.11"/>
<polygon fill="midnightblue" stroke="midnightblue" points="665.42,-167.96 671.52,-159.29 661.35,-162.26 665.42,-167.96"/>
</g>
<!-- Node6 -->
<g id="node6" class="node">
<title>Node6</title>
<g id="a_node6"><a xlink:title=" ">
<polygon fill="none" stroke="#bfbfbf" points="769.32,-134.5 769.32,-164.5 900.32,-164.5 900.32,-134.5 769.32,-134.5"/>
<text text-anchor="start" x="777.32" y="-152.5" font-family="Helvetica,sans-Serif" font-size="10.00">seerep&#45;msgs/label&#45;with</text>
<text text-anchor="middle" x="834.82" y="-141.5" font-family="Helvetica,sans-Serif" font-size="10.00">&#45;instance.h</text>
</a>
</g>
</g>
<!-- Node1&#45;&gt;Node6 -->
<g id="edge35" class="edge">
<title>Node1&#45;&gt;Node6</title>
<path fill="none" stroke="midnightblue" d="M557.71,-257.37C620.91,-233 727.8,-191.78 788.7,-168.29"/>
<polygon fill="midnightblue" stroke="midnightblue" points="789.99,-171.54 798.06,-164.68 787.47,-165.01 789.99,-171.54"/>
</g>
<!-- Node7 -->
<g id="node7" class="node">
<title>Node7</title>
<g id="a_node7"><a xlink:href="hdf5-core-instance_8h.html" target="_top" xlink:title=" ">
<polygon fill="none" stroke="black" points="358.32,-134.5 358.32,-164.5 483.32,-164.5 483.32,-134.5 358.32,-134.5"/>
<text text-anchor="start" x="366.32" y="-152.5" font-family="Helvetica,sans-Serif" font-size="10.00">seerep&#45;hdf5&#45;core/hdf5</text>
<text text-anchor="middle" x="420.82" y="-141.5" font-family="Helvetica,sans-Serif" font-size="10.00">&#45;core&#45;instance.h</text>
</a>
</g>
</g>
<!-- Node1&#45;&gt;Node7 -->
<g id="edge36" class="edge">
<title>Node1&#45;&gt;Node7</title>
<path fill="none" stroke="midnightblue" d="M483.97,-257.33C473.23,-247.25 460.84,-234.31 451.82,-221 441.99,-206.48 434.09,-188.33 428.73,-174.08"/>
<polygon fill="midnightblue" stroke="midnightblue" points="431.96,-172.73 425.28,-164.51 425.38,-175.1 431.96,-172.73"/>
</g>
<!-- Node19 -->
<g id="node19" class="node">
<title>Node19</title>
<g id="a_node19"><a xlink:title=" ">
<polygon fill="none" stroke="#bfbfbf" points="15.32,-73 15.32,-92 158.32,-92 158.32,-73 15.32,-73"/>
<text text-anchor="middle" x="86.82" y="-80" font-family="Helvetica,sans-Serif" font-size="10.00">boost/functional/hash.hpp</text>
</a>
</g>
</g>
<!-- Node1&#45;&gt;Node19 -->
<g id="edge37" class="edge">
<title>Node1&#45;&gt;Node19</title>
<path fill="none" stroke="midnightblue" d="M436.66,-275.04C372.7,-270.77 277.15,-258.05 202.82,-221 149.83,-194.59 111.71,-131.89 95.5,-101.14"/>
<polygon fill="midnightblue" stroke="midnightblue" points="98.51,-99.34 90.85,-92.03 92.28,-102.52 98.51,-99.34"/>
</g>
<!-- Node20 -->
<g id="node20" class="node">
<title>Node20</title>
<g id="a_node20"><a xlink:title=" ">
<polygon fill="none" stroke="#bfbfbf" points="176.32,-73 176.32,-92 301.32,-92 301.32,-73 176.32,-73"/>
<text text-anchor="middle" x="238.82" y="-80" font-family="Helvetica,sans-Serif" font-size="10.00">boost/lexical_cast.hpp</text>
</a>
</g>
</g>
<!-- Node1&#45;&gt;Node20 -->
<g id="edge38" class="edge">
<title>Node1&#45;&gt;Node20</title>
<path fill="none" stroke="midnightblue" d="M436.8,-265.11C343.01,-247.57 184.45,-211.74 150.82,-165 142.78,-153.82 143.92,-145.92 150.82,-134 161.35,-115.83 181.15,-103.63 199.31,-95.78"/>
<polygon fill="midnightblue" stroke="midnightblue" points="200.62,-99.03 208.6,-92.06 198.02,-92.53 200.62,-99.03"/>
</g>
<!-- Node21 -->
<g id="node21" class="node">
<title>Node21</title>
<g id="a_node21"><a xlink:title=" ">
<polygon fill="none" stroke="#bfbfbf" points="1167.32,-73 1167.32,-92 1280.32,-92 1280.32,-73 1167.32,-73"/>
<text text-anchor="middle" x="1223.82" y="-80" font-family="Helvetica,sans-Serif" font-size="10.00">boost/uuid/uuid.hpp</text>
</a>
</g>
</g>
<!-- Node1&#45;&gt;Node21 -->
<g id="edge39" class="edge">
<title>Node1&#45;&gt;Node21</title>
<path fill="none" stroke="midnightblue" d="M577.11,-270.97C651.7,-263.49 772.53,-248.26 873.82,-221 998.37,-187.48 1139.14,-123.8 1196.91,-96.48"/>
<polygon fill="midnightblue" stroke="midnightblue" points="1198.56,-99.57 1206.09,-92.12 1195.55,-93.25 1198.56,-99.57"/>
</g>
<!-- Node22 -->
<g id="node22" class="node">
<title>Node22</title>
<g id="a_node22"><a xlink:title=" ">
<polygon fill="none" stroke="#bfbfbf" points="833.82,-73 833.82,-92 1003.82,-92 1003.82,-73 833.82,-73"/>
<text text-anchor="middle" x="918.82" y="-80" font-family="Helvetica,sans-Serif" font-size="10.00">boost/uuid/uuid_generators.hpp</text>
</a>
</g>
</g>
<!-- Node1&#45;&gt;Node22 -->
<g id="edge40" class="edge">
<title>Node1&#45;&gt;Node22</title>
<path fill="none" stroke="midnightblue" d="M577.22,-267.02C680.87,-250.81 866.95,-215.4 909.82,-165 924.49,-147.76 924.41,-120.5 922.24,-102.31"/>
<polygon fill="midnightblue" stroke="midnightblue" points="925.69,-101.7 920.74,-92.33 918.77,-102.74 925.69,-101.7"/>
</g>
<!-- Node23 -->
<g id="node23" class="node">
<title>Node23</title>
<g id="a_node23"><a xlink:title=" ">
<polygon fill="none" stroke="#bfbfbf" points="1022.32,-73 1022.32,-92 1149.32,-92 1149.32,-73 1022.32,-73"/>
<text text-anchor="middle" x="1085.82" y="-80" font-family="Helvetica,sans-Serif" font-size="10.00">boost/uuid/uuid_io.hpp</text>
</a>
</g>
</g>
<!-- Node1&#45;&gt;Node23 -->
<g id="edge41" class="edge">
<title>Node1&#45;&gt;Node23</title>
<path fill="none" stroke="midnightblue" d="M577.1,-271.95C645.09,-265.48 750.29,-251.25 836.82,-221 927.4,-189.33 1023.92,-126.53 1065.19,-98.09"/>
<polygon fill="midnightblue" stroke="midnightblue" points="1067.37,-100.84 1073.58,-92.26 1063.37,-95.09 1067.37,-100.84"/>
</g>
<!-- Node4&#45;&gt;Node2 -->
<g id="edge4" class="edge">
<title>Node4&#45;&gt;Node2</title>
<path fill="none" stroke="midnightblue" d="M460.62,-204.11C407.09,-196.84 316.43,-183.19 239.82,-165 236.01,-164.09 232.05,-163.05 228.12,-161.94"/>
<polygon fill="midnightblue" stroke="midnightblue" points="229.09,-158.58 218.51,-159.1 227.11,-165.29 229.09,-158.58"/>
</g>
<!-- Node4&#45;&gt;Node3 -->
<g id="edge5" class="edge">
<title>Node4&#45;&gt;Node3</title>
<path fill="none" stroke="midnightblue" d="M460.77,-208.44C425.65,-204.81 378.42,-194.29 348.82,-165 330.28,-146.65 314.57,-70.83 308.05,-35.18"/>
<polygon fill="midnightblue" stroke="midnightblue" points="311.46,-34.37 306.27,-25.14 304.57,-35.6 311.46,-34.37"/>
</g>
<!-- Node4&#45;&gt;Node5 -->
<g id="edge6" class="edge">
<title>Node4&#45;&gt;Node5</title>
<path fill="none" stroke="midnightblue" d="M532.18,-201.48C562.81,-191.18 614.48,-173.81 648.87,-162.25"/>
<polygon fill="midnightblue" stroke="midnightblue" points="650.15,-165.51 658.51,-159.01 647.92,-158.88 650.15,-165.51"/>
</g>
<!-- Node4&#45;&gt;Node6 -->
<g id="edge7" class="edge">
<title>Node4&#45;&gt;Node6</title>
<path fill="none" stroke="midnightblue" d="M553.22,-202.04C602.08,-193.6 681.55,-179.71 759.13,-165.3"/>
<polygon fill="midnightblue" stroke="midnightblue" points="759.88,-168.72 769.07,-163.45 758.59,-161.84 759.88,-168.72"/>
</g>
<!-- Node4&#45;&gt;Node7 -->
<g id="edge8" class="edge">
<title>Node4&#45;&gt;Node7</title>
<path fill="none" stroke="midnightblue" d="M494.5,-201.48C482.85,-193.42 464.94,-181.02 449.69,-170.47"/>
<polygon fill="midnightblue" stroke="midnightblue" points="451.31,-167.33 441.09,-164.52 447.32,-173.09 451.31,-167.33"/>
</g>
<!-- Node4&#45;&gt;Node19 -->
<g id="edge29" class="edge">
<title>Node4&#45;&gt;Node19</title>
<path fill="none" stroke="midnightblue" d="M460.51,-207.2C412.31,-202.9 335.53,-192.07 274.82,-165 253.96,-155.7 253.99,-144.73 233.82,-134 201.08,-116.57 161.12,-103.3 131.13,-94.74"/>
<polygon fill="midnightblue" stroke="midnightblue" points="131.94,-91.34 121.36,-92.03 130.06,-98.08 131.94,-91.34"/>
</g>
<!-- Node4&#45;&gt;Node20 -->
<g id="edge30" class="edge">
<title>Node4&#45;&gt;Node20</title>
<path fill="none" stroke="midnightblue" d="M460.48,-206.6C420,-201.94 360.84,-190.93 315.82,-165 287.83,-148.88 263.77,-119.41 250.31,-100.67"/>
<polygon fill="midnightblue" stroke="midnightblue" points="253.01,-98.42 244.43,-92.21 247.26,-102.42 253.01,-98.42"/>
</g>
<!-- Node4&#45;&gt;Node21 -->
<g id="edge31" class="edge">
<title>Node4&#45;&gt;Node21</title>
<path fill="none" stroke="midnightblue" d="M519.84,-201.4C532.96,-192.6 553.68,-178.36 570.82,-165 587.48,-152.02 587.28,-141.99 606.82,-134 720.61,-87.49 1037.14,-115.43 1158.82,-98 1165.74,-97.01 1173.02,-95.68 1180.1,-94.22"/>
<polygon fill="midnightblue" stroke="midnightblue" points="1181.23,-97.56 1190.27,-92.02 1179.75,-90.71 1181.23,-97.56"/>
</g>
<!-- Node4&#45;&gt;Node22 -->
<g id="edge32" class="edge">
<title>Node4&#45;&gt;Node22</title>
<path fill="none" stroke="midnightblue" d="M507.35,-201.26C508.84,-185.12 514.49,-150.73 535.82,-134 586.75,-94.06 760.72,-106.93 824.82,-98 834.63,-96.63 845.01,-95.11 855.15,-93.58"/>
<polygon fill="midnightblue" stroke="midnightblue" points="855.82,-97.02 865.18,-92.05 854.76,-90.1 855.82,-97.02"/>
</g>
<!-- Node4&#45;&gt;Node23 -->
<g id="edge33" class="edge">
<title>Node4&#45;&gt;Node23</title>
<path fill="none" stroke="midnightblue" d="M511.34,-201.48C520.57,-185.06 543.32,-149.3 573.82,-134 661.31,-90.1 915.88,-111.56 1012.82,-98 1020.83,-96.88 1029.28,-95.44 1037.48,-93.91"/>
<polygon fill="midnightblue" stroke="midnightblue" points="1038.17,-97.34 1047.32,-92 1036.84,-90.47 1038.17,-97.34"/>
</g>
<!-- Node7&#45;&gt;Node3 -->
<g id="edge28" class="edge">
<title>Node7&#45;&gt;Node3</title>
<path fill="none" stroke="midnightblue" d="M408.41,-134.37C386.68,-109.65 341.89,-58.68 318.99,-32.62"/>
<polygon fill="midnightblue" stroke="midnightblue" points="321.61,-30.3 312.38,-25.1 316.35,-34.92 321.61,-30.3"/>
</g>
<!-- Node8 -->
<g id="node8" class="node">
<title>Node8</title>
<g id="a_node8"><a xlink:title=" ">
<polygon fill="none" stroke="#bfbfbf" points="350.82,-6 350.82,-25 460.82,-25 460.82,-6 350.82,-6"/>
<text text-anchor="middle" x="405.82" y="-13" font-family="Helvetica,sans-Serif" font-size="10.00">highfive/H5File.hpp</text>
</a>
</g>
</g>
<!-- Node7&#45;&gt;Node8 -->
<g id="edge9" class="edge">
<title>Node7&#45;&gt;Node8</title>
<path fill="none" stroke="midnightblue" d="M419.22,-134.37C416.49,-110.4 410.96,-61.75 407.93,-35.06"/>
<polygon fill="midnightblue" stroke="midnightblue" points="411.41,-34.64 406.8,-25.1 404.45,-35.43 411.41,-34.64"/>
</g>
<!-- Node9 -->
<g id="node9" class="node">
<title>Node9</title>
<g id="a_node9"><a xlink:href="hdf5-core-general_8h.html" target="_top" xlink:title=" ">
<polygon fill="none" stroke="black" points="690.32,-67.5 690.32,-97.5 815.32,-97.5 815.32,-67.5 690.32,-67.5"/>
<text text-anchor="start" x="698.32" y="-85.5" font-family="Helvetica,sans-Serif" font-size="10.00">seerep&#45;hdf5&#45;core/hdf5</text>
<text text-anchor="middle" x="752.82" y="-74.5" font-family="Helvetica,sans-Serif" font-size="10.00">&#45;core&#45;general.h</text>
</a>
</g>
</g>
<!-- Node7&#45;&gt;Node9 -->
<g id="edge10" class="edge">
<title>Node7&#45;&gt;Node9</title>
<path fill="none" stroke="midnightblue" d="M483.66,-136.2C539.64,-125.24 621.55,-109.2 680.29,-97.7"/>
<polygon fill="midnightblue" stroke="midnightblue" points="681.1,-101.11 690.24,-95.75 679.76,-94.24 681.1,-101.11"/>
</g>
<!-- Node12 -->
<g id="node12" class="node">
<title>Node12</title>
<g id="a_node12"><a xlink:title=" ">
<polygon fill="none" stroke="#bfbfbf" points="479.32,-6 479.32,-25 592.32,-25 592.32,-6 479.32,-6"/>
<text text-anchor="middle" x="535.82" y="-13" font-family="Helvetica,sans-Serif" font-size="10.00">boost/geometry.hpp</text>
</a>
</g>
</g>
<!-- Node7&#45;&gt;Node12 -->
<g id="edge27" class="edge">
<title>Node7&#45;&gt;Node12</title>
<path fill="none" stroke="midnightblue" d="M483.4,-136.25C547.26,-123.45 637.74,-104.36 642.82,-98 667.04,-67.65 614.65,-42.34 574.96,-28.33"/>
<polygon fill="midnightblue" stroke="midnightblue" points="576.04,-25 565.45,-25.1 573.79,-31.63 576.04,-25"/>
</g>
<!-- Node18 -->
<g id="node18" class="node">
<title>Node18</title>
<g id="a_node18"><a xlink:title=" ">
<polygon fill="none" stroke="#bfbfbf" points="433.82,-73 433.82,-92 633.82,-92 633.82,-73 433.82,-73"/>
<text text-anchor="middle" x="533.82" y="-80" font-family="Helvetica,sans-Serif" font-size="10.00">geometry_msgs/TransformStamped.h</text>
</a>
</g>
</g>
<!-- Node7&#45;&gt;Node18 -->
<g id="edge21" class="edge">
<title>Node7&#45;&gt;Node18</title>
<path fill="none" stroke="midnightblue" d="M445.34,-134.4C464.55,-123.34 491.12,-108.06 510.12,-97.13"/>
<polygon fill="midnightblue" stroke="midnightblue" points="512.11,-100.03 519.03,-92.01 508.62,-93.96 512.11,-100.03"/>
</g>
<!-- Node7&#45;&gt;Node19 -->
<g id="edge22" class="edge">
<title>Node7&#45;&gt;Node19</title>
<path fill="none" stroke="midnightblue" d="M358,-136.27C295.3,-124.07 199.98,-105.52 140.65,-93.98"/>
<polygon fill="midnightblue" stroke="midnightblue" points="141.21,-90.52 130.73,-92.04 139.87,-97.39 141.21,-90.52"/>
</g>
<!-- Node7&#45;&gt;Node20 -->
<g id="edge23" class="edge">
<title>Node7&#45;&gt;Node20</title>
<path fill="none" stroke="midnightblue" d="M381.33,-134.4C348.69,-122.74 302.87,-106.37 272.08,-95.38"/>
<polygon fill="midnightblue" stroke="midnightblue" points="273.24,-92.07 262.64,-92.01 270.88,-98.67 273.24,-92.07"/>
</g>
<!-- Node7&#45;&gt;Node21 -->
<g id="edge24" class="edge">
<title>Node7&#45;&gt;Node21</title>
<path fill="none" stroke="midnightblue" d="M483.68,-142.07C511.32,-139.37 544.16,-136.32 573.82,-134 833.52,-113.71 900.9,-134.47 1158.82,-98 1165.74,-97.02 1173.02,-95.7 1180.1,-94.24"/>
<polygon fill="midnightblue" stroke="midnightblue" points="1181.24,-97.58 1190.27,-92.05 1179.76,-90.74 1181.24,-97.58"/>
</g>
<!-- Node7&#45;&gt;Node22 -->
<g id="edge25" class="edge">
<title>Node7&#45;&gt;Node22</title>
<path fill="none" stroke="midnightblue" d="M483.37,-136.31C488.25,-135.48 493.11,-134.7 497.82,-134 642.44,-112.46 679.87,-117.15 824.82,-98 834.99,-96.66 845.77,-95.11 856.25,-93.54"/>
<polygon fill="midnightblue" stroke="midnightblue" points="856.82,-96.99 866.18,-92.03 855.77,-90.07 856.82,-96.99"/>
</g>
<!-- Node7&#45;&gt;Node23 -->
<g id="edge26" class="edge">
<title>Node7&#45;&gt;Node23</title>
<path fill="none" stroke="midnightblue" d="M483.43,-140.03C500.41,-137.89 518.8,-135.71 535.82,-134 747.36,-112.7 802.17,-126.76 1012.82,-98 1020.83,-96.91 1029.29,-95.48 1037.49,-93.95"/>
<polygon fill="midnightblue" stroke="midnightblue" points="1038.17,-97.39 1047.33,-92.05 1036.84,-90.51 1038.17,-97.39"/>
</g>
<!-- Node9&#45;&gt;Node3 -->
<g id="edge16" class="edge">
<title>Node9&#45;&gt;Node3</title>
<path fill="none" stroke="midnightblue" d="M690.3,-73.13C674.79,-71.09 658.21,-68.93 642.82,-67 509.14,-50.2 472.49,-63.85 341.82,-31 339.15,-30.33 336.42,-29.52 333.7,-28.62"/>
<polygon fill="midnightblue" stroke="midnightblue" points="334.7,-25.26 324.1,-25.13 332.3,-31.84 334.7,-25.26"/>
</g>
<!-- Node9&#45;&gt;Node8 -->
<g id="edge11" class="edge">
<title>Node9&#45;&gt;Node8</title>
<path fill="none" stroke="midnightblue" d="M690.28,-71.19C632.83,-61.52 545.4,-46.3 469.82,-31 464.1,-29.84 458.1,-28.57 452.17,-27.27"/>
<polygon fill="midnightblue" stroke="midnightblue" points="452.83,-23.83 442.31,-25.07 451.31,-30.66 452.83,-23.83"/>
</g>
<!-- Node10 -->
<g id="node10" class="node">
<title>Node10</title>
<g id="a_node10"><a xlink:title=" ">
<polygon fill="none" stroke="#bfbfbf" points="1159.82,-6 1159.82,-25 1275.82,-25 1275.82,-6 1159.82,-6"/>
<text text-anchor="middle" x="1217.82" y="-13" font-family="Helvetica,sans-Serif" font-size="10.00">seerep&#45;msgs/aabb.h</text>
</a>
</g>
</g>
<!-- Node9&#45;&gt;Node10 -->
<g id="edge12" class="edge">
<title>Node9&#45;&gt;Node10</title>
<path fill="none" stroke="midnightblue" d="M815.59,-68.52C818.71,-67.98 821.8,-67.47 824.82,-67 969.3,-44.54 1007.55,-54.72 1151.82,-31 1158.51,-29.9 1165.54,-28.56 1172.42,-27.14"/>
<polygon fill="midnightblue" stroke="midnightblue" points="1173.28,-30.53 1182.33,-25.02 1171.82,-23.69 1173.28,-30.53"/>
</g>
<!-- Node11 -->
<g id="node11" class="node">
<title>Node11</title>
<g id="a_node11"><a xlink:title=" ">
<polygon fill="none" stroke="#bfbfbf" points="1294.32,-0.5 1294.32,-30.5 1413.32,-30.5 1413.32,-0.5 1294.32,-0.5"/>
<text text-anchor="start" x="1302.32" y="-18.5" font-family="Helvetica,sans-Serif" font-size="10.00">seerep&#45;msgs/dataset</text>
<text text-anchor="middle" x="1353.82" y="-7.5" font-family="Helvetica,sans-Serif" font-size="10.00">&#45;indexable.h</text>
</a>
</g>
</g>
<!-- Node9&#45;&gt;Node11 -->
<g id="edge13" class="edge">
<title>Node9&#45;&gt;Node11</title>
<path fill="none" stroke="midnightblue" d="M815.57,-68.4C818.7,-67.89 821.79,-67.42 824.82,-67 1024.66,-39.16 1080.06,-59.47 1283.93,-30.99"/>
<polygon fill="midnightblue" stroke="midnightblue" points="1284.66,-34.42 1294.07,-29.55 1283.67,-27.49 1284.66,-34.42"/>
</g>
<!-- Node9&#45;&gt;Node12 -->
<g id="edge14" class="edge">
<title>Node9&#45;&gt;Node12</title>
<path fill="none" stroke="midnightblue" d="M706,-67.48C666.6,-55.67 610.94,-39 574.14,-27.98"/>
<polygon fill="midnightblue" stroke="midnightblue" points="574.88,-24.55 564.29,-25.03 572.87,-31.25 574.88,-24.55"/>
</g>
<!-- Node13 -->
<g id="node13" class="node">
<title>Node13</title>
<g id="a_node13"><a xlink:title=" ">
<polygon fill="none" stroke="#bfbfbf" points="1431.82,-6 1431.82,-25 1479.82,-25 1479.82,-6 1431.82,-6"/>
<text text-anchor="middle" x="1455.82" y="-13" font-family="Helvetica,sans-Serif" font-size="10.00">mutex</text>
</a>
</g>
</g>
<!-- Node9&#45;&gt;Node13 -->
<g id="edge15" class="edge">
<title>Node9&#45;&gt;Node13</title>
<path fill="none" stroke="midnightblue" d="M815.57,-68.33C818.69,-67.84 821.79,-67.39 824.82,-67 1088.85,-32.63 1164.01,-93.53 1422.82,-31 1425.18,-30.43 1427.59,-29.7 1429.97,-28.87"/>
<polygon fill="midnightblue" stroke="midnightblue" points="1431.46,-32.04 1439.43,-25.06 1428.85,-25.55 1431.46,-32.04"/>
</g>
<!-- Node14 -->
<g id="node14" class="node">
<title>Node14</title>
<g id="a_node14"><a xlink:title=" ">
<polygon fill="none" stroke="#bfbfbf" points="610.32,-6 610.32,-25 679.32,-25 679.32,-6 610.32,-6"/>
<text text-anchor="middle" x="644.82" y="-13" font-family="Helvetica,sans-Serif" font-size="10.00">type_traits</text>
</a>
</g>
</g>
<!-- Node9&#45;&gt;Node14 -->
<g id="edge17" class="edge">
<title>Node9&#45;&gt;Node14</title>
<path fill="none" stroke="midnightblue" d="M729.39,-67.4C711.11,-56.39 685.86,-41.2 667.72,-30.28"/>
<polygon fill="midnightblue" stroke="midnightblue" points="669.33,-27.16 658.96,-25.01 665.72,-33.16 669.33,-27.16"/>
</g>
<!-- Node15 -->
<g id="node15" class="node">
<title>Node15</title>
<g id="a_node15"><a xlink:title=" ">
<polygon fill="none" stroke="#bfbfbf" points="697.32,-0.5 697.32,-30.5 842.32,-30.5 842.32,-0.5 697.32,-0.5"/>
<text text-anchor="start" x="705.32" y="-18.5" font-family="Helvetica,sans-Serif" font-size="10.00">boost/log/sources/severity</text>
<text text-anchor="middle" x="769.82" y="-7.5" font-family="Helvetica,sans-Serif" font-size="10.00">_logger.hpp</text>
</a>
</g>
</g>
<!-- Node9&#45;&gt;Node15 -->
<g id="edge18" class="edge">
<title>Node9&#45;&gt;Node15</title>
<path fill="none" stroke="midnightblue" d="M756.51,-67.4C758.58,-59.47 761.22,-49.38 763.61,-40.27"/>
<polygon fill="midnightblue" stroke="midnightblue" points="767,-41.14 766.14,-30.58 760.22,-39.37 767,-41.14"/>
</g>
<!-- Node16 -->
<g id="node16" class="node">
<title>Node16</title>
<g id="a_node16"><a xlink:title=" ">
<polygon fill="none" stroke="#bfbfbf" points="860.82,-6 860.82,-25 974.82,-25 974.82,-6 860.82,-6"/>
<text text-anchor="middle" x="917.82" y="-13" font-family="Helvetica,sans-Serif" font-size="10.00">boost/log/trivial.hpp</text>
</a>
</g>
</g>
<!-- Node9&#45;&gt;Node16 -->
<g id="edge19" class="edge">
<title>Node9&#45;&gt;Node16</title>
<path fill="none" stroke="midnightblue" d="M788.62,-67.4C817.83,-55.89 858.68,-39.8 886.58,-28.81"/>
<polygon fill="midnightblue" stroke="midnightblue" points="888.21,-31.93 896.23,-25.01 885.64,-25.42 888.21,-31.93"/>
</g>
<!-- Node17 -->
<g id="node17" class="node">
<title>Node17</title>
<g id="a_node17"><a xlink:title=" ">
<polygon fill="none" stroke="#bfbfbf" points="993.32,-6 993.32,-25 1142.32,-25 1142.32,-6 993.32,-6"/>
<text text-anchor="middle" x="1067.82" y="-13" font-family="Helvetica,sans-Serif" font-size="10.00">impl/hdf5&#45;core&#45;general.hpp</text>
</a>
</g>
</g>
<!-- Node9&#45;&gt;Node17 -->
<g id="edge20" class="edge">
<title>Node9&#45;&gt;Node17</title>
<path fill="none" stroke="midnightblue" d="M815.43,-68.58C874.38,-56.42 961.6,-38.42 1016.54,-27.08"/>
<polygon fill="midnightblue" stroke="midnightblue" points="1017.32,-30.49 1026.41,-25.05 1015.91,-23.64 1017.32,-30.49"/>
</g>
</g>
</svg>
