<?xml version="1.0" encoding="UTF-8" standalone="no"?>
<!DOCTYPE svg PUBLIC "-//W3C//DTD SVG 1.1//EN"
 "http://www.w3.org/Graphics/SVG/1.1/DTD/svg11.dtd">
<!-- Generated by graphviz version 2.43.0 (0)
 -->
<!-- Title: seerep&#45;srv/seerep&#45;core/include/seerep&#45;core/core&#45;instance.h Pages: 1 -->
<svg width="2254pt" height="262pt"
 viewBox="0.00 0.00 2253.50 262.00" xmlns="http://www.w3.org/2000/svg" xmlns:xlink="http://www.w3.org/1999/xlink">
<g id="graph0" class="graph" transform="scale(1 1) rotate(0) translate(4 258)">
<title>seerep&#45;srv/seerep&#45;core/include/seerep&#45;core/core&#45;instance.h</title>
<!-- Node1 -->
<g id="node1" class="node">
<title>Node1</title>
<g id="a_node1"><a xlink:title=" ">
<polygon fill="#bfbfbf" stroke="black" points="1708,-212.5 1708,-253.5 1848,-253.5 1848,-212.5 1708,-212.5"/>
<text text-anchor="start" x="1716" y="-241.5" font-family="Helvetica,sans-Serif" font-size="10.00">seerep&#45;srv/seerep&#45;core</text>
<text text-anchor="start" x="1716" y="-230.5" font-family="Helvetica,sans-Serif" font-size="10.00">/include/seerep&#45;core/core</text>
<text text-anchor="middle" x="1778" y="-219.5" font-family="Helvetica,sans-Serif" font-size="10.00">&#45;instance.h</text>
</a>
</g>
</g>
<!-- Node2 -->
<g id="node2" class="node">
<title>Node2</title>
<g id="a_node2"><a xlink:title=" ">
<polygon fill="none" stroke="#bfbfbf" points="689.5,-151 689.5,-170 754.5,-170 754.5,-151 689.5,-151"/>
<text text-anchor="middle" x="722" y="-158" font-family="Helvetica,sans-Serif" font-size="10.00">functional</text>
</a>
</g>
</g>
<!-- Node1&#45;&gt;Node2 -->
<g id="edge1" class="edge">
<title>Node1&#45;&gt;Node2</title>
<path fill="none" stroke="midnightblue" d="M1707.77,-230.33C1509.79,-225.26 949.79,-208.4 769,-176 764.53,-175.2 759.89,-174.1 755.34,-172.87"/>
<polygon fill="midnightblue" stroke="midnightblue" points="756.21,-169.48 745.63,-170.02 754.24,-176.2 756.21,-169.48"/>
</g>
<!-- Node3 -->
<g id="node3" class="node">
<title>Node3</title>
<g id="a_node3"><a xlink:title=" ">
<polygon fill="none" stroke="#bfbfbf" points="0,-11.5 0,-30.5 56,-30.5 56,-11.5 0,-11.5"/>
<text text-anchor="middle" x="28" y="-18.5" font-family="Helvetica,sans-Serif" font-size="10.00">optional</text>
</a>
</g>
</g>
<!-- Node1&#45;&gt;Node3 -->
<g id="edge2" class="edge">
<title>Node1&#45;&gt;Node3</title>
<path fill="none" stroke="midnightblue" d="M1707.88,-225.82C1405.88,-199.01 224.22,-91.78 65,-42 59.82,-40.38 54.53,-38.01 49.62,-35.47"/>
<polygon fill="midnightblue" stroke="midnightblue" points="51.24,-32.37 40.81,-30.52 47.81,-38.47 51.24,-32.37"/>
</g>
<!-- Node4 -->
<g id="node4" class="node">
<title>Node4</title>
<g id="a_node4"><a xlink:title=" ">
<polygon fill="none" stroke="#bfbfbf" points="1958.5,-151 1958.5,-170 2093.5,-170 2093.5,-151 1958.5,-151"/>
<text text-anchor="middle" x="2026" y="-158" font-family="Helvetica,sans-Serif" font-size="10.00">seerep&#45;msgs/datatype.h</text>
</a>
</g>
</g>
<!-- Node1&#45;&gt;Node4 -->
<g id="edge3" class="edge">
<title>Node1&#45;&gt;Node4</title>
<path fill="none" stroke="midnightblue" d="M1846.75,-212.46C1891.56,-199.72 1948.48,-183.54 1986.01,-172.87"/>
<polygon fill="midnightblue" stroke="midnightblue" points="1987.39,-176.11 1996.05,-170.01 1985.48,-169.38 1987.39,-176.11"/>
</g>
<!-- Node5 -->
<g id="node5" class="node">
<title>Node5</title>
<g id="a_node5"><a xlink:title=" ">
<polygon fill="none" stroke="#bfbfbf" points="2111.5,-145.5 2111.5,-175.5 2242.5,-175.5 2242.5,-145.5 2111.5,-145.5"/>
<text text-anchor="start" x="2119.5" y="-163.5" font-family="Helvetica,sans-Serif" font-size="10.00">seerep&#45;msgs/label&#45;with</text>
<text text-anchor="middle" x="2177" y="-152.5" font-family="Helvetica,sans-Serif" font-size="10.00">&#45;instance.h</text>
</a>
</g>
</g>
<!-- Node1&#45;&gt;Node5 -->
<g id="edge4" class="edge">
<title>Node1&#45;&gt;Node5</title>
<path fill="none" stroke="midnightblue" d="M1848.14,-220.39C1911.76,-209.75 2008.42,-193.32 2101.39,-176.28"/>
<polygon fill="midnightblue" stroke="midnightblue" points="2102.04,-179.71 2111.25,-174.46 2100.78,-172.83 2102.04,-179.71"/>
</g>
<!-- Node6 -->
<g id="node6" class="node">
<title>Node6</title>
<g id="a_node6"><a xlink:href="hdf5-core-instance_8h.html" target="_top" xlink:title=" ">
<polygon fill="none" stroke="black" points="1503.5,-145.5 1503.5,-175.5 1628.5,-175.5 1628.5,-145.5 1503.5,-145.5"/>
<text text-anchor="start" x="1511.5" y="-163.5" font-family="Helvetica,sans-Serif" font-size="10.00">seerep&#45;hdf5&#45;core/hdf5</text>
<text text-anchor="middle" x="1566" y="-152.5" font-family="Helvetica,sans-Serif" font-size="10.00">&#45;core&#45;instance.h</text>
</a>
</g>
</g>
<!-- Node1&#45;&gt;Node6 -->
<g id="edge5" class="edge">
<title>Node1&#45;&gt;Node6</title>
<path fill="none" stroke="midnightblue" d="M1719.23,-212.46C1687.49,-201.9 1648.66,-188.99 1618.03,-178.8"/>
<polygon fill="midnightblue" stroke="midnightblue" points="1618.98,-175.43 1608.39,-175.6 1616.77,-182.07 1618.98,-175.43"/>
</g>
<!-- Node18 -->
<g id="node18" class="node">
<title>Node18</title>
<g id="a_node18"><a xlink:title=" ">
<polygon fill="none" stroke="#bfbfbf" points="1494.5,-11.5 1494.5,-30.5 1637.5,-30.5 1637.5,-11.5 1494.5,-11.5"/>
<text text-anchor="middle" x="1566" y="-18.5" font-family="Helvetica,sans-Serif" font-size="10.00">boost/functional/hash.hpp</text>
</a>
</g>
</g>
<!-- Node1&#45;&gt;Node18 -->
<g id="edge33" class="edge">
<title>Node1&#45;&gt;Node18</title>
<path fill="none" stroke="midnightblue" d="M1758.06,-212.24C1716.29,-170.87 1620.35,-75.84 1582.14,-37.99"/>
<polygon fill="midnightblue" stroke="midnightblue" points="1584.47,-35.37 1574.9,-30.82 1579.54,-40.34 1584.47,-35.37"/>
</g>
<!-- Node19 -->
<g id="node19" class="node">
<title>Node19</title>
<g id="a_node19"><a xlink:title=" ">
<polygon fill="none" stroke="#bfbfbf" points="1989.5,-11.5 1989.5,-30.5 2114.5,-30.5 2114.5,-11.5 1989.5,-11.5"/>
<text text-anchor="middle" x="2052" y="-18.5" font-family="Helvetica,sans-Serif" font-size="10.00">boost/lexical_cast.hpp</text>
</a>
</g>
</g>
<!-- Node1&#45;&gt;Node19 -->
<g id="edge34" class="edge">
<title>Node1&#45;&gt;Node19</title>
<path fill="none" stroke="midnightblue" d="M1799.1,-212.28C1810.08,-201.77 1823.56,-188.47 1835,-176 1873.21,-134.37 1870.52,-111.53 1916,-78 1944.22,-57.19 1981.29,-42.6 2009.6,-33.53"/>
<polygon fill="midnightblue" stroke="midnightblue" points="2010.7,-36.86 2019.22,-30.56 2008.64,-30.17 2010.7,-36.86"/>
</g>
<!-- Node20 -->
<g id="node20" class="node">
<title>Node20</title>
<g id="a_node20"><a xlink:title=" ">
<polygon fill="none" stroke="#bfbfbf" points="2132.5,-11.5 2132.5,-30.5 2245.5,-30.5 2245.5,-11.5 2132.5,-11.5"/>
<text text-anchor="middle" x="2189" y="-18.5" font-family="Helvetica,sans-Serif" font-size="10.00">boost/uuid/uuid.hpp</text>
</a>
</g>
</g>
<!-- Node1&#45;&gt;Node20 -->
<g id="edge35" class="edge">
<title>Node1&#45;&gt;Node20</title>
<path fill="none" stroke="midnightblue" d="M1816.3,-212.43C1899.09,-170.13 2092.92,-71.09 2163.07,-35.25"/>
<polygon fill="midnightblue" stroke="midnightblue" points="2164.82,-38.29 2172.13,-30.62 2161.63,-32.05 2164.82,-38.29"/>
</g>
<!-- Node21 -->
<g id="node21" class="node">
<title>Node21</title>
<g id="a_node21"><a xlink:title=" ">
<polygon fill="none" stroke="#bfbfbf" points="1656,-11.5 1656,-30.5 1826,-30.5 1826,-11.5 1656,-11.5"/>
<text text-anchor="middle" x="1741" y="-18.5" font-family="Helvetica,sans-Serif" font-size="10.00">boost/uuid/uuid_generators.hpp</text>
</a>
</g>
</g>
<!-- Node1&#45;&gt;Node21 -->
<g id="edge36" class="edge">
<title>Node1&#45;&gt;Node21</title>
<path fill="none" stroke="midnightblue" d="M1774.52,-212.24C1767.4,-171.83 1751.25,-80.18 1744.29,-40.69"/>
<polygon fill="midnightblue" stroke="midnightblue" points="1747.74,-40.06 1742.55,-30.82 1740.84,-41.27 1747.74,-40.06"/>
</g>
<!-- Node22 -->
<g id="node22" class="node">
<title>Node22</title>
<g id="a_node22"><a xlink:title=" ">
<polygon fill="none" stroke="#bfbfbf" points="1844.5,-11.5 1844.5,-30.5 1971.5,-30.5 1971.5,-11.5 1844.5,-11.5"/>
<text text-anchor="middle" x="1908" y="-18.5" font-family="Helvetica,sans-Serif" font-size="10.00">boost/uuid/uuid_io.hpp</text>
</a>
</g>
</g>
<!-- Node1&#45;&gt;Node22 -->
<g id="edge37" class="edge">
<title>Node1&#45;&gt;Node22</title>
<path fill="none" stroke="midnightblue" d="M1790.23,-212.24C1815.52,-171.39 1873.2,-78.22 1897.21,-39.44"/>
<polygon fill="midnightblue" stroke="midnightblue" points="1900.26,-41.16 1902.54,-30.82 1894.3,-37.48 1900.26,-41.16"/>
</g>
<!-- Node6&#45;&gt;Node3 -->
<g id="edge32" class="edge">
<title>Node6&#45;&gt;Node3</title>
<path fill="none" stroke="midnightblue" d="M1503.31,-159.52C1350.25,-158.87 961.19,-152.83 840,-109 817.84,-100.99 819.24,-85.79 797,-78 643.29,-24.17 221.86,-85.81 65,-42 59.69,-40.52 54.29,-38.17 49.31,-35.59"/>
<polygon fill="midnightblue" stroke="midnightblue" points="50.83,-32.43 40.41,-30.53 47.37,-38.51 50.83,-32.43"/>
</g>
<!-- Node7 -->
<g id="node7" class="node">
<title>Node7</title>
<g id="a_node7"><a xlink:title=" ">
<polygon fill="none" stroke="#bfbfbf" points="74,-11.5 74,-30.5 184,-30.5 184,-11.5 74,-11.5"/>
<text text-anchor="middle" x="129" y="-18.5" font-family="Helvetica,sans-Serif" font-size="10.00">highfive/H5File.hpp</text>
</a>
</g>
</g>
<!-- Node6&#45;&gt;Node7 -->
<g id="edge6" class="edge">
<title>Node6&#45;&gt;Node7</title>
<path fill="none" stroke="midnightblue" d="M1503.17,-157.76C1391.37,-153.85 1162.89,-141.97 1091,-109 1072.71,-100.61 1076.55,-85.8 1058,-78 880.64,-3.46 382.54,-74.97 193,-42 182.42,-40.16 171.15,-37.05 161.07,-33.82"/>
<polygon fill="midnightblue" stroke="midnightblue" points="162.05,-30.46 151.45,-30.6 159.82,-37.09 162.05,-30.46"/>
</g>
<!-- Node8 -->
<g id="node8" class="node">
<title>Node8</title>
<g id="a_node8"><a xlink:href="hdf5-core-general_8h.html" target="_top" xlink:title=" ">
<polygon fill="none" stroke="black" points="1143.5,-78.5 1143.5,-108.5 1268.5,-108.5 1268.5,-78.5 1143.5,-78.5"/>
<text text-anchor="start" x="1151.5" y="-96.5" font-family="Helvetica,sans-Serif" font-size="10.00">seerep&#45;hdf5&#45;core/hdf5</text>
<text text-anchor="middle" x="1206" y="-85.5" font-family="Helvetica,sans-Serif" font-size="10.00">&#45;core&#45;general.h</text>
</a>
</g>
</g>
<!-- Node6&#45;&gt;Node8 -->
<g id="edge7" class="edge">
<title>Node6&#45;&gt;Node8</title>
<path fill="none" stroke="midnightblue" d="M1503.29,-148.18C1440.64,-136.86 1344.39,-119.49 1278.49,-107.59"/>
<polygon fill="midnightblue" stroke="midnightblue" points="1279.05,-104.13 1268.59,-105.8 1277.81,-111.02 1279.05,-104.13"/>
</g>
<!-- Node13 -->
<g id="node13" class="node">
<title>Node13</title>
<g id="a_node13"><a xlink:title=" ">
<polygon fill="none" stroke="#bfbfbf" points="202.5,-11.5 202.5,-30.5 315.5,-30.5 315.5,-11.5 202.5,-11.5"/>
<text text-anchor="middle" x="259" y="-18.5" font-family="Helvetica,sans-Serif" font-size="10.00">boost/geometry.hpp</text>
</a>
</g>
</g>
<!-- Node6&#45;&gt;Node13 -->
<g id="edge31" class="edge">
<title>Node6&#45;&gt;Node13</title>
<path fill="none" stroke="midnightblue" d="M1503.11,-156.04C1399.99,-149.73 1199.81,-134.56 1134,-109 1112.04,-100.47 1113.24,-85.76 1091,-78 929.9,-21.78 492.09,-71.32 324,-42 313.27,-40.13 301.83,-37.01 291.59,-33.78"/>
<polygon fill="midnightblue" stroke="midnightblue" points="292.41,-30.37 281.82,-30.56 290.22,-37.02 292.41,-30.37"/>
</g>
<!-- Node6&#45;&gt;Node18 -->
<g id="edge26" class="edge">
<title>Node6&#45;&gt;Node18</title>
<path fill="none" stroke="midnightblue" d="M1566,-145.3C1566,-120.34 1566,-68.58 1566,-40.72"/>
<polygon fill="midnightblue" stroke="midnightblue" points="1569.5,-40.7 1566,-30.7 1562.5,-40.7 1569.5,-40.7"/>
</g>
<!-- Node6&#45;&gt;Node19 -->
<g id="edge27" class="edge">
<title>Node6&#45;&gt;Node19</title>
<path fill="none" stroke="midnightblue" d="M1614.9,-145.42C1649.57,-135.39 1697.19,-121.52 1739,-109 1783.98,-95.53 1794.79,-90.7 1840,-78 1902.27,-60.51 1918.53,-58.77 1981,-42 1991.2,-39.26 2002.2,-36.21 2012.43,-33.33"/>
<polygon fill="midnightblue" stroke="midnightblue" points="2013.67,-36.62 2022.34,-30.53 2011.76,-29.88 2013.67,-36.62"/>
</g>
<!-- Node6&#45;&gt;Node20 -->
<g id="edge28" class="edge">
<title>Node6&#45;&gt;Node20</title>
<path fill="none" stroke="midnightblue" d="M1628.6,-147.19C1676.51,-137.52 1744.14,-123.33 1803,-109 1853.6,-96.68 1865.17,-89.34 1916,-78 2007.57,-57.57 2032.76,-63.84 2124,-42 2133.89,-39.63 2144.47,-36.6 2154.17,-33.61"/>
<polygon fill="midnightblue" stroke="midnightblue" points="2155.41,-36.89 2163.89,-30.54 2153.3,-30.21 2155.41,-36.89"/>
</g>
<!-- Node6&#45;&gt;Node21 -->
<g id="edge29" class="edge">
<title>Node6&#45;&gt;Node21</title>
<path fill="none" stroke="midnightblue" d="M1584.07,-145.3C1617.26,-119.23 1687.64,-63.93 1721.71,-37.15"/>
<polygon fill="midnightblue" stroke="midnightblue" points="1724.23,-39.63 1729.93,-30.7 1719.9,-34.13 1724.23,-39.63"/>
</g>
<!-- Node6&#45;&gt;Node22 -->
<g id="edge30" class="edge">
<title>Node6&#45;&gt;Node22</title>
<path fill="none" stroke="midnightblue" d="M1599.55,-145.46C1638.87,-129.05 1706.02,-101.2 1764,-78 1802.32,-62.67 1846.59,-45.54 1875.82,-34.31"/>
<polygon fill="midnightblue" stroke="midnightblue" points="1877.42,-37.44 1885.5,-30.59 1874.91,-30.91 1877.42,-37.44"/>
</g>
<!-- Node24 -->
<g id="node24" class="node">
<title>Node24</title>
<g id="a_node24"><a xlink:title=" ">
<polygon fill="none" stroke="#bfbfbf" points="849,-84 849,-103 1049,-103 1049,-84 849,-84"/>
<text text-anchor="middle" x="949" y="-91" font-family="Helvetica,sans-Serif" font-size="10.00">geometry_msgs/TransformStamped.h</text>
</a>
</g>
</g>
<!-- Node6&#45;&gt;Node24 -->
<g id="edge25" class="edge">
<title>Node6&#45;&gt;Node24</title>
<path fill="none" stroke="midnightblue" d="M1503.21,-153.73C1407.96,-144.87 1221.27,-127.01 1063,-109 1050.2,-107.54 1036.61,-105.9 1023.44,-104.26"/>
<polygon fill="midnightblue" stroke="midnightblue" points="1023.83,-100.78 1013.47,-103 1022.96,-107.72 1023.83,-100.78"/>
</g>
<!-- Node8&#45;&gt;Node3 -->
<g id="edge15" class="edge">
<title>Node8&#45;&gt;Node3</title>
<path fill="none" stroke="midnightblue" d="M1143.42,-85.51C1117.08,-82.79 1086.08,-79.88 1058,-78 837.68,-63.23 278.05,-100.02 65,-42 59.68,-40.55 54.27,-38.21 49.3,-35.64"/>
<polygon fill="midnightblue" stroke="midnightblue" points="50.82,-32.48 40.4,-30.57 47.36,-38.56 50.82,-32.48"/>
</g>
<!-- Node8&#45;&gt;Node7 -->
<g id="edge8" class="edge">
<title>Node8&#45;&gt;Node7</title>
<path fill="none" stroke="midnightblue" d="M1143.43,-83.63C1126.45,-81.49 1108.05,-79.41 1091,-78 692.93,-44.99 586.57,-110.16 193,-42 182.33,-40.15 170.97,-37.01 160.82,-33.75"/>
<polygon fill="midnightblue" stroke="midnightblue" points="161.75,-30.37 151.16,-30.5 159.52,-37.01 161.75,-30.37"/>
</g>
<!-- Node9 -->
<g id="node9" class="node">
<title>Node9</title>
<g id="a_node9"><a xlink:title=" ">
<polygon fill="none" stroke="#bfbfbf" points="1223,-11.5 1223,-30.5 1339,-30.5 1339,-11.5 1223,-11.5"/>
<text text-anchor="middle" x="1281" y="-18.5" font-family="Helvetica,sans-Serif" font-size="10.00">seerep&#45;msgs/aabb.h</text>
</a>
</g>
</g>
<!-- Node8&#45;&gt;Node9 -->
<g id="edge9" class="edge">
<title>Node8&#45;&gt;Node9</title>
<path fill="none" stroke="midnightblue" d="M1221.18,-78.23C1233.65,-66.5 1251.32,-49.9 1264.21,-37.78"/>
<polygon fill="midnightblue" stroke="midnightblue" points="1266.65,-40.29 1271.54,-30.89 1261.86,-35.19 1266.65,-40.29"/>
</g>
<!-- Node10 -->
<g id="node10" class="node">
<title>Node10</title>
<g id="a_node10"><a xlink:title=" ">
<polygon fill="none" stroke="#bfbfbf" points="1357.5,-6 1357.5,-36 1476.5,-36 1476.5,-6 1357.5,-6"/>
<text text-anchor="start" x="1365.5" y="-24" font-family="Helvetica,sans-Serif" font-size="10.00">seerep&#45;msgs/dataset</text>
<text text-anchor="middle" x="1417" y="-13" font-family="Helvetica,sans-Serif" font-size="10.00">&#45;indexable.h</text>
</a>
</g>
</g>
<!-- Node8&#45;&gt;Node10 -->
<g id="edge10" class="edge">
<title>Node8&#45;&gt;Node10</title>
<path fill="none" stroke="midnightblue" d="M1247.94,-78.49C1281.55,-67.26 1328.9,-51.44 1364.94,-39.4"/>
<polygon fill="midnightblue" stroke="midnightblue" points="1366.4,-42.6 1374.78,-36.11 1364.19,-35.96 1366.4,-42.6"/>
</g>
<!-- Node11 -->
<g id="node11" class="node">
<title>Node11</title>
<g id="a_node11"><a xlink:title=" ">
<polygon fill="none" stroke="#bfbfbf" points="333.5,-6 333.5,-36 458.5,-36 458.5,-6 333.5,-6"/>
<text text-anchor="start" x="341.5" y="-24" font-family="Helvetica,sans-Serif" font-size="10.00">seerep&#45;msgs/geodetic</text>
<text text-anchor="middle" x="396" y="-13" font-family="Helvetica,sans-Serif" font-size="10.00">&#45;coordinates.h</text>
</a>
</g>
</g>
<!-- Node8&#45;&gt;Node11 -->
<g id="edge11" class="edge">
<title>Node8&#45;&gt;Node11</title>
<path fill="none" stroke="midnightblue" d="M1143.49,-80.02C1138.6,-79.26 1133.73,-78.57 1129,-78 836.91,-42.7 758.33,-89.65 468,-42 462.26,-41.06 456.32,-39.83 450.43,-38.45"/>
<polygon fill="midnightblue" stroke="midnightblue" points="451.15,-35.02 440.6,-36 449.46,-41.82 451.15,-35.02"/>
</g>
<!-- Node12 -->
<g id="node12" class="node">
<title>Node12</title>
<g id="a_node12"><a xlink:title=" ">
<polygon fill="none" stroke="#bfbfbf" points="477,-0.5 477,-41.5 589,-41.5 589,-0.5 477,-0.5"/>
<text text-anchor="start" x="485" y="-29.5" font-family="Helvetica,sans-Serif" font-size="10.00">seerep&#45;msgs/labels</text>
<text text-anchor="start" x="485" y="-18.5" font-family="Helvetica,sans-Serif" font-size="10.00">&#45;with&#45;instance&#45;with</text>
<text text-anchor="middle" x="533" y="-7.5" font-family="Helvetica,sans-Serif" font-size="10.00">&#45;category.h</text>
</a>
</g>
</g>
<!-- Node8&#45;&gt;Node12 -->
<g id="edge12" class="edge">
<title>Node8&#45;&gt;Node12</title>
<path fill="none" stroke="midnightblue" d="M1143.48,-80.09C1138.59,-79.31 1133.72,-78.6 1129,-78 897.68,-48.48 832.43,-84.03 599.32,-42.01"/>
<polygon fill="midnightblue" stroke="midnightblue" points="599.64,-38.51 589.17,-40.15 598.38,-45.4 599.64,-38.51"/>
</g>
<!-- Node8&#45;&gt;Node13 -->
<g id="edge13" class="edge">
<title>Node8&#45;&gt;Node13</title>
<path fill="none" stroke="midnightblue" d="M1143.5,-79.96C1138.6,-79.22 1133.73,-78.55 1129,-78 773.25,-36.76 676.88,-103.15 324,-42 313.27,-40.14 301.83,-37.02 291.59,-33.8"/>
<polygon fill="midnightblue" stroke="midnightblue" points="292.41,-30.38 281.82,-30.58 290.22,-37.03 292.41,-30.38"/>
</g>
<!-- Node14 -->
<g id="node14" class="node">
<title>Node14</title>
<g id="a_node14"><a xlink:title=" ">
<polygon fill="none" stroke="#bfbfbf" points="607,-11.5 607,-30.5 655,-30.5 655,-11.5 607,-11.5"/>
<text text-anchor="middle" x="631" y="-18.5" font-family="Helvetica,sans-Serif" font-size="10.00">mutex</text>
</a>
</g>
</g>
<!-- Node8&#45;&gt;Node14 -->
<g id="edge14" class="edge">
<title>Node8&#45;&gt;Node14</title>
<path fill="none" stroke="midnightblue" d="M1143.48,-80.14C1138.59,-79.35 1133.72,-78.63 1129,-78 923.51,-50.78 861.34,-105.44 664,-42 659.5,-40.55 654.98,-38.39 650.78,-36"/>
<polygon fill="midnightblue" stroke="midnightblue" points="652.59,-33.01 642.26,-30.65 648.86,-38.93 652.59,-33.01"/>
</g>
<!-- Node15 -->
<g id="node15" class="node">
<title>Node15</title>
<g id="a_node15"><a xlink:title=" ">
<polygon fill="none" stroke="#bfbfbf" points="673.5,-11.5 673.5,-30.5 742.5,-30.5 742.5,-11.5 673.5,-11.5"/>
<text text-anchor="middle" x="708" y="-18.5" font-family="Helvetica,sans-Serif" font-size="10.00">type_traits</text>
</a>
</g>
</g>
<!-- Node8&#45;&gt;Node15 -->
<g id="edge16" class="edge">
<title>Node8&#45;&gt;Node15</title>
<path fill="none" stroke="midnightblue" d="M1143.46,-80.23C1138.58,-79.42 1133.71,-78.67 1129,-78 961.9,-54.36 913.86,-86.22 751,-42 744.79,-40.31 738.36,-37.79 732.43,-35.1"/>
<polygon fill="midnightblue" stroke="midnightblue" points="733.57,-31.76 723.04,-30.54 730.51,-38.06 733.57,-31.76"/>
</g>
<!-- Node16 -->
<g id="node16" class="node">
<title>Node16</title>
<g id="a_node16"><a xlink:title=" ">
<polygon fill="none" stroke="#bfbfbf" points="760.5,-6 760.5,-36 905.5,-36 905.5,-6 760.5,-6"/>
<text text-anchor="start" x="768.5" y="-24" font-family="Helvetica,sans-Serif" font-size="10.00">boost/log/sources/severity</text>
<text text-anchor="middle" x="833" y="-13" font-family="Helvetica,sans-Serif" font-size="10.00">_logger.hpp</text>
</a>
</g>
</g>
<!-- Node8&#45;&gt;Node16 -->
<g id="edge17" class="edge">
<title>Node8&#45;&gt;Node16</title>
<path fill="none" stroke="midnightblue" d="M1143.4,-80.61C1138.53,-79.71 1133.69,-78.84 1129,-78 1034.05,-61.07 1009.47,-61.44 915,-42 909.62,-40.89 904.05,-39.68 898.47,-38.42"/>
<polygon fill="midnightblue" stroke="midnightblue" points="898.99,-34.94 888.45,-36.1 897.41,-41.76 898.99,-34.94"/>
</g>
<!-- Node17 -->
<g id="node17" class="node">
<title>Node17</title>
<g id="a_node17"><a xlink:title=" ">
<polygon fill="none" stroke="#bfbfbf" points="924,-11.5 924,-30.5 1038,-30.5 1038,-11.5 924,-11.5"/>
<text text-anchor="middle" x="981" y="-18.5" font-family="Helvetica,sans-Serif" font-size="10.00">boost/log/trivial.hpp</text>
</a>
</g>
</g>
<!-- Node8&#45;&gt;Node17 -->
<g id="edge18" class="edge">
<title>Node8&#45;&gt;Node17</title>
<path fill="none" stroke="midnightblue" d="M1161.28,-78.49C1119.31,-65.34 1057.27,-45.9 1018.01,-33.6"/>
<polygon fill="midnightblue" stroke="midnightblue" points="1018.89,-30.21 1008.3,-30.55 1016.8,-36.88 1018.89,-30.21"/>
</g>
<!-- Node8&#45;&gt;Node18 -->
<g id="edge19" class="edge">
<title>Node8&#45;&gt;Node18</title>
<path fill="none" stroke="midnightblue" d="M1268.51,-82.45C1325.41,-73.01 1411.63,-57.98 1486,-42 1498.36,-39.34 1511.7,-36.14 1523.89,-33.09"/>
<polygon fill="midnightblue" stroke="midnightblue" points="1524.98,-36.42 1533.81,-30.57 1523.25,-29.64 1524.98,-36.42"/>
</g>
<!-- Node8&#45;&gt;Node19 -->
<g id="edge20" class="edge">
<title>Node8&#45;&gt;Node19</title>
<path fill="none" stroke="midnightblue" d="M1268.55,-92.84C1400.98,-92.6 1719.03,-86.92 1981,-42 1992.91,-39.96 2005.69,-36.7 2017.07,-33.41"/>
<polygon fill="midnightblue" stroke="midnightblue" points="2018.09,-36.76 2026.66,-30.53 2016.08,-30.05 2018.09,-36.76"/>
</g>
<!-- Node8&#45;&gt;Node20 -->
<g id="edge21" class="edge">
<title>Node8&#45;&gt;Node20</title>
<path fill="none" stroke="midnightblue" d="M1268.61,-91.04C1447.58,-86.55 1959.11,-71.45 2124,-42 2134.72,-40.09 2146.16,-36.95 2156.4,-33.73"/>
<polygon fill="midnightblue" stroke="midnightblue" points="2157.77,-36.97 2166.17,-30.52 2155.58,-30.32 2157.77,-36.97"/>
</g>
<!-- Node8&#45;&gt;Node21 -->
<g id="edge22" class="edge">
<title>Node8&#45;&gt;Node21</title>
<path fill="none" stroke="midnightblue" d="M1268.7,-87.22C1354.45,-79.57 1512.95,-63.88 1647,-42 1662.65,-39.44 1679.64,-36.03 1694.82,-32.74"/>
<polygon fill="midnightblue" stroke="midnightblue" points="1695.98,-36.07 1705,-30.5 1694.48,-29.24 1695.98,-36.07"/>
</g>
<!-- Node8&#45;&gt;Node22 -->
<g id="edge23" class="edge">
<title>Node8&#45;&gt;Node22</title>
<path fill="none" stroke="midnightblue" d="M1268.54,-91.35C1382.16,-88.4 1629.71,-78.03 1835,-42 1847.11,-39.87 1860.13,-36.63 1871.76,-33.37"/>
<polygon fill="midnightblue" stroke="midnightblue" points="1872.94,-36.67 1881.57,-30.53 1871,-29.95 1872.94,-36.67"/>
</g>
<!-- Node23 -->
<g id="node23" class="node">
<title>Node23</title>
<g id="a_node23"><a xlink:title=" ">
<polygon fill="none" stroke="#bfbfbf" points="1056.5,-11.5 1056.5,-30.5 1205.5,-30.5 1205.5,-11.5 1056.5,-11.5"/>
<text text-anchor="middle" x="1131" y="-18.5" font-family="Helvetica,sans-Serif" font-size="10.00">impl/hdf5&#45;core&#45;general.hpp</text>
</a>
</g>
</g>
<!-- Node8&#45;&gt;Node23 -->
<g id="edge24" class="edge">
<title>Node8&#45;&gt;Node23</title>
<path fill="none" stroke="midnightblue" d="M1190.82,-78.23C1178.35,-66.5 1160.68,-49.9 1147.79,-37.78"/>
<polygon fill="midnightblue" stroke="midnightblue" points="1150.14,-35.19 1140.46,-30.89 1145.35,-40.29 1150.14,-35.19"/>
</g>
</g>
</svg>
