<?xml version="1.0" encoding="UTF-8" standalone="no"?>
<!DOCTYPE svg PUBLIC "-//W3C//DTD SVG 1.1//EN"
 "http://www.w3.org/Graphics/SVG/1.1/DTD/svg11.dtd">
<!-- Generated by graphviz version 2.43.0 (0)
 -->
<!-- Title: seerep&#45;srv/seerep&#45;core/include/seerep&#45;core/core&#45;tf.h Pages: 1 -->
<svg width="2512pt" height="563pt"
 viewBox="0.00 0.00 2511.50 563.00" xmlns="http://www.w3.org/2000/svg" xmlns:xlink="http://www.w3.org/1999/xlink">
<g id="graph0" class="graph" transform="scale(1 1) rotate(0) translate(4 559)">
<title>seerep&#45;srv/seerep&#45;core/include/seerep&#45;core/core&#45;tf.h</title>
<!-- Node1 -->
<g id="node1" class="node">
<title>Node1</title>
<g id="a_node1"><a xlink:title=" ">
<polygon fill="#bfbfbf" stroke="black" points="1321.5,-524.5 1321.5,-554.5 1480.5,-554.5 1480.5,-524.5 1321.5,-524.5"/>
<text text-anchor="start" x="1329.5" y="-542.5" font-family="Helvetica,sans-Serif" font-size="10.00">seerep&#45;srv/seerep&#45;core</text>
<text text-anchor="middle" x="1401" y="-531.5" font-family="Helvetica,sans-Serif" font-size="10.00">/include/seerep&#45;core/core&#45;tf.h</text>
</a>
</g>
</g>
<!-- Node2 -->
<g id="node2" class="node">
<title>Node2</title>
<g id="a_node2"><a xlink:href="core-dataset_8h.html" target="_top" xlink:title=" ">
<polygon fill="none" stroke="black" points="1331,-446.5 1331,-487.5 1471,-487.5 1471,-446.5 1331,-446.5"/>
<text text-anchor="start" x="1339" y="-475.5" font-family="Helvetica,sans-Serif" font-size="10.00">seerep&#45;srv/seerep&#45;core</text>
<text text-anchor="start" x="1339" y="-464.5" font-family="Helvetica,sans-Serif" font-size="10.00">/include/seerep&#45;core/core</text>
<text text-anchor="middle" x="1401" y="-453.5" font-family="Helvetica,sans-Serif" font-size="10.00">&#45;dataset.h</text>
</a>
</g>
</g>
<!-- Node1&#45;&gt;Node2 -->
<g id="edge1" class="edge">
<title>Node1&#45;&gt;Node2</title>
<path fill="none" stroke="midnightblue" d="M1401,-513.98C1401,-505.35 1401,-495.76 1401,-487.59"/>
<polygon fill="midnightblue" stroke="midnightblue" points="1397.5,-514.23 1401,-524.23 1404.5,-514.23 1397.5,-514.23"/>
</g>
<!-- Node3 -->
<g id="node3" class="node">
<title>Node3</title>
<g id="a_node3"><a xlink:href="core-project_8h.html" target="_top" xlink:title=" ">
<polygon fill="none" stroke="black" points="1233,-368.5 1233,-409.5 1373,-409.5 1373,-368.5 1233,-368.5"/>
<text text-anchor="start" x="1241" y="-397.5" font-family="Helvetica,sans-Serif" font-size="10.00">seerep&#45;srv/seerep&#45;core</text>
<text text-anchor="start" x="1241" y="-386.5" font-family="Helvetica,sans-Serif" font-size="10.00">/include/seerep&#45;core/core</text>
<text text-anchor="middle" x="1303" y="-375.5" font-family="Helvetica,sans-Serif" font-size="10.00">&#45;project.h</text>
</a>
</g>
</g>
<!-- Node1&#45;&gt;Node3 -->
<g id="edge54" class="edge">
<title>Node1&#45;&gt;Node3</title>
<path fill="none" stroke="midnightblue" d="M1357.57,-519.29C1344.28,-511.41 1330.84,-501.02 1322,-488 1306.03,-464.49 1302.72,-430.88 1302.41,-409.76"/>
<polygon fill="midnightblue" stroke="midnightblue" points="1356.25,-522.57 1366.69,-524.36 1359.65,-516.44 1356.25,-522.57"/>
</g>
<!-- Node41 -->
<g id="node41" class="node">
<title>Node41</title>
<g id="a_node41"><a xlink:href="core-tf_8cpp.html" target="_top" xlink:title=" ">
<polygon fill="none" stroke="black" points="1489.5,-452 1489.5,-482 1618.5,-482 1618.5,-452 1489.5,-452"/>
<text text-anchor="start" x="1497.5" y="-470" font-family="Helvetica,sans-Serif" font-size="10.00">seerep&#45;srv/seerep&#45;core</text>
<text text-anchor="middle" x="1554" y="-459" font-family="Helvetica,sans-Serif" font-size="10.00">/src/core&#45;tf.cpp</text>
</a>
</g>
</g>
<!-- Node1&#45;&gt;Node41 -->
<g id="edge55" class="edge">
<title>Node1&#45;&gt;Node41</title>
<path fill="none" stroke="midnightblue" d="M1440.74,-520.19C1466.56,-508.29 1499.71,-493.02 1523.46,-482.07"/>
<polygon fill="midnightblue" stroke="midnightblue" points="1439.21,-517.04 1431.59,-524.4 1442.14,-523.4 1439.21,-517.04"/>
</g>
<!-- Node2&#45;&gt;Node3 -->
<g id="edge2" class="edge">
<title>Node2&#45;&gt;Node3</title>
<path fill="none" stroke="midnightblue" d="M1367.56,-440.06C1354.65,-430.06 1340.14,-418.8 1328.15,-409.51"/>
<polygon fill="midnightblue" stroke="midnightblue" points="1365.72,-443.07 1375.76,-446.43 1370.01,-437.53 1365.72,-443.07"/>
</g>
<!-- Node40 -->
<g id="node40" class="node">
<title>Node40</title>
<g id="a_node40"><a xlink:href="core-dataset_8cpp.html" target="_top" xlink:title=" ">
<polygon fill="none" stroke="black" points="1391.5,-374 1391.5,-404 1520.5,-404 1520.5,-374 1391.5,-374"/>
<text text-anchor="start" x="1399.5" y="-392" font-family="Helvetica,sans-Serif" font-size="10.00">seerep&#45;srv/seerep&#45;core</text>
<text text-anchor="middle" x="1456" y="-381" font-family="Helvetica,sans-Serif" font-size="10.00">/src/core&#45;dataset.cpp</text>
</a>
</g>
</g>
<!-- Node2&#45;&gt;Node40 -->
<g id="edge53" class="edge">
<title>Node2&#45;&gt;Node40</title>
<path fill="none" stroke="midnightblue" d="M1421.03,-438.32C1429.4,-426.75 1438.77,-413.8 1445.71,-404.23"/>
<polygon fill="midnightblue" stroke="midnightblue" points="1418.19,-436.27 1415.16,-446.43 1423.86,-440.38 1418.19,-436.27"/>
</g>
<!-- Node4 -->
<g id="node4" class="node">
<title>Node4</title>
<g id="a_node4"><a xlink:href="core_8h.html" target="_top" xlink:title=" ">
<polygon fill="none" stroke="black" points="1150.5,-301.5 1150.5,-331.5 1299.5,-331.5 1299.5,-301.5 1150.5,-301.5"/>
<text text-anchor="start" x="1158.5" y="-319.5" font-family="Helvetica,sans-Serif" font-size="10.00">seerep&#45;srv/seerep&#45;core</text>
<text text-anchor="middle" x="1225" y="-308.5" font-family="Helvetica,sans-Serif" font-size="10.00">/include/seerep&#45;core/core.h</text>
</a>
</g>
</g>
<!-- Node3&#45;&gt;Node4 -->
<g id="edge3" class="edge">
<title>Node3&#45;&gt;Node4</title>
<path fill="none" stroke="midnightblue" d="M1273.79,-361.6C1262.65,-351.53 1250.38,-340.44 1240.92,-331.89"/>
<polygon fill="midnightblue" stroke="midnightblue" points="1271.51,-364.25 1281.27,-368.36 1276.2,-359.06 1271.51,-364.25"/>
</g>
<!-- Node39 -->
<g id="node39" class="node">
<title>Node39</title>
<g id="a_node39"><a xlink:href="core-project_8cpp.html" target="_top" xlink:title=" ">
<polygon fill="none" stroke="black" points="1317.5,-301.5 1317.5,-331.5 1446.5,-331.5 1446.5,-301.5 1317.5,-301.5"/>
<text text-anchor="start" x="1325.5" y="-319.5" font-family="Helvetica,sans-Serif" font-size="10.00">seerep&#45;srv/seerep&#45;core</text>
<text text-anchor="middle" x="1382" y="-308.5" font-family="Helvetica,sans-Serif" font-size="10.00">/src/core&#45;project.cpp</text>
</a>
</g>
</g>
<!-- Node3&#45;&gt;Node39 -->
<g id="edge52" class="edge">
<title>Node3&#45;&gt;Node39</title>
<path fill="none" stroke="midnightblue" d="M1332.64,-361.55C1344,-351.41 1356.53,-340.23 1366.12,-331.67"/>
<polygon fill="midnightblue" stroke="midnightblue" points="1330.14,-359.09 1325.01,-368.36 1334.8,-364.31 1330.14,-359.09"/>
</g>
<!-- Node5 -->
<g id="node5" class="node">
<title>Node5</title>
<g id="a_node5"><a xlink:href="fb-write-load-test_8cpp.html" target="_top" xlink:title=" ">
<polygon fill="none" stroke="black" points="38.5,-223.5 38.5,-264.5 157.5,-264.5 157.5,-223.5 38.5,-223.5"/>
<text text-anchor="start" x="46.5" y="-252.5" font-family="Helvetica,sans-Serif" font-size="10.00">seerep&#45;hdf5/seerep</text>
<text text-anchor="start" x="46.5" y="-241.5" font-family="Helvetica,sans-Serif" font-size="10.00">&#45;hdf5&#45;fb/test/fb&#45;write</text>
<text text-anchor="middle" x="98" y="-230.5" font-family="Helvetica,sans-Serif" font-size="10.00">&#45;load&#45;test.cpp</text>
</a>
</g>
</g>
<!-- Node4&#45;&gt;Node5 -->
<g id="edge4" class="edge">
<title>Node4&#45;&gt;Node5</title>
<path fill="none" stroke="midnightblue" d="M1140.14,-314.06C923.28,-309.96 352.71,-296.45 166,-265 163.21,-264.53 160.37,-263.98 157.52,-263.38"/>
<polygon fill="midnightblue" stroke="midnightblue" points="1140.14,-317.56 1150.2,-314.25 1140.27,-310.56 1140.14,-317.56"/>
</g>
<!-- Node6 -->
<g id="node6" class="node">
<title>Node6</title>
<g id="a_node6"><a xlink:href="core-fb-image_8h.html" target="_top" xlink:title=" ">
<polygon fill="none" stroke="black" points="175.5,-223.5 175.5,-264.5 304.5,-264.5 304.5,-223.5 175.5,-223.5"/>
<text text-anchor="start" x="183.5" y="-252.5" font-family="Helvetica,sans-Serif" font-size="10.00">seerep&#45;srv/seerep&#45;core</text>
<text text-anchor="start" x="183.5" y="-241.5" font-family="Helvetica,sans-Serif" font-size="10.00">&#45;fb/include/seerep&#45;core</text>
<text text-anchor="middle" x="240" y="-230.5" font-family="Helvetica,sans-Serif" font-size="10.00">&#45;fb/core&#45;fb&#45;image.h</text>
</a>
</g>
</g>
<!-- Node4&#45;&gt;Node6 -->
<g id="edge5" class="edge">
<title>Node4&#45;&gt;Node6</title>
<path fill="none" stroke="midnightblue" d="M1140.14,-313.25C985.86,-308.54 649.25,-295.46 367,-265 346.69,-262.81 324.68,-259.63 304.77,-256.45"/>
<polygon fill="midnightblue" stroke="midnightblue" points="1140.39,-316.75 1150.49,-313.56 1140.6,-309.76 1140.39,-316.75"/>
</g>
<!-- Node8 -->
<g id="node8" class="node">
<title>Node8</title>
<g id="a_node8"><a xlink:href="fb-image-service_8h.html" target="_top" xlink:title=" ">
<polygon fill="none" stroke="black" points="158.5,-145.5 158.5,-186.5 297.5,-186.5 297.5,-145.5 158.5,-145.5"/>
<text text-anchor="start" x="166.5" y="-174.5" font-family="Helvetica,sans-Serif" font-size="10.00">seerep&#45;srv/seerep&#45;server</text>
<text text-anchor="start" x="166.5" y="-163.5" font-family="Helvetica,sans-Serif" font-size="10.00">/include/seerep&#45;server</text>
<text text-anchor="middle" x="228" y="-152.5" font-family="Helvetica,sans-Serif" font-size="10.00">/fb&#45;image&#45;service.h</text>
</a>
</g>
</g>
<!-- Node4&#45;&gt;Node8 -->
<g id="edge37" class="edge">
<title>Node4&#45;&gt;Node8</title>
<path fill="none" stroke="midnightblue" d="M1140.21,-314.5C962.11,-311.71 554.52,-301.42 421,-265 359,-248.09 293.72,-210.04 257.2,-186.64"/>
<polygon fill="midnightblue" stroke="midnightblue" points="1140.27,-318.01 1150.32,-314.66 1140.38,-311.01 1140.27,-318.01"/>
</g>
<!-- Node9 -->
<g id="node9" class="node">
<title>Node9</title>
<g id="a_node9"><a xlink:href="server_8h.html" target="_top" xlink:title=" ">
<polygon fill="none" stroke="black" points="1205.5,-67.5 1205.5,-108.5 1344.5,-108.5 1344.5,-67.5 1205.5,-67.5"/>
<text text-anchor="start" x="1213.5" y="-96.5" font-family="Helvetica,sans-Serif" font-size="10.00">seerep&#45;srv/seerep&#45;server</text>
<text text-anchor="start" x="1213.5" y="-85.5" font-family="Helvetica,sans-Serif" font-size="10.00">/include/seerep&#45;server</text>
<text text-anchor="middle" x="1275" y="-74.5" font-family="Helvetica,sans-Serif" font-size="10.00">/server.h</text>
</a>
</g>
</g>
<!-- Node4&#45;&gt;Node9 -->
<g id="edge51" class="edge">
<title>Node4&#45;&gt;Node9</title>
<path fill="none" stroke="midnightblue" d="M1237.83,-292.24C1241.97,-283.87 1246.2,-274.21 1249,-265 1265.76,-209.89 1271.9,-141.67 1274,-108.69"/>
<polygon fill="midnightblue" stroke="midnightblue" points="1234.59,-290.88 1233.11,-301.37 1240.81,-294.09 1234.59,-290.88"/>
</g>
<!-- Node12 -->
<g id="node12" class="node">
<title>Node12</title>
<g id="a_node12"><a xlink:href="core-fb-instance_8h.html" target="_top" xlink:title=" ">
<polygon fill="none" stroke="black" points="483.5,-223.5 483.5,-264.5 612.5,-264.5 612.5,-223.5 483.5,-223.5"/>
<text text-anchor="start" x="491.5" y="-252.5" font-family="Helvetica,sans-Serif" font-size="10.00">seerep&#45;srv/seerep&#45;core</text>
<text text-anchor="start" x="491.5" y="-241.5" font-family="Helvetica,sans-Serif" font-size="10.00">&#45;fb/include/seerep&#45;core</text>
<text text-anchor="middle" x="548" y="-230.5" font-family="Helvetica,sans-Serif" font-size="10.00">&#45;fb/core&#45;fb&#45;instance.h</text>
</a>
</g>
</g>
<!-- Node4&#45;&gt;Node12 -->
<g id="edge11" class="edge">
<title>Node4&#45;&gt;Node12</title>
<path fill="none" stroke="midnightblue" d="M1140.35,-307.18C1041.24,-297.38 872.16,-280.47 727,-265 689.07,-260.96 646.63,-256.23 612.61,-252.38"/>
<polygon fill="midnightblue" stroke="midnightblue" points="1140.01,-310.67 1150.31,-308.17 1140.7,-303.7 1140.01,-310.67"/>
</g>
<!-- Node14 -->
<g id="node14" class="node">
<title>Node14</title>
<g id="a_node14"><a xlink:href="fb-instance-service_8h.html" target="_top" xlink:title=" ">
<polygon fill="none" stroke="black" points="315.5,-145.5 315.5,-186.5 454.5,-186.5 454.5,-145.5 315.5,-145.5"/>
<text text-anchor="start" x="323.5" y="-174.5" font-family="Helvetica,sans-Serif" font-size="10.00">seerep&#45;srv/seerep&#45;server</text>
<text text-anchor="start" x="323.5" y="-163.5" font-family="Helvetica,sans-Serif" font-size="10.00">/include/seerep&#45;server</text>
<text text-anchor="middle" x="385" y="-152.5" font-family="Helvetica,sans-Serif" font-size="10.00">/fb&#45;instance&#45;service.h</text>
</a>
</g>
</g>
<!-- Node4&#45;&gt;Node14 -->
<g id="edge38" class="edge">
<title>Node4&#45;&gt;Node14</title>
<path fill="none" stroke="midnightblue" d="M1140.26,-313.36C956.42,-308.21 532.71,-293.38 474,-265 438.62,-247.89 410.79,-209.91 396.22,-186.58"/>
<polygon fill="midnightblue" stroke="midnightblue" points="1140.33,-316.86 1150.42,-313.64 1140.53,-309.87 1140.33,-316.86"/>
</g>
<!-- Node16 -->
<g id="node16" class="node">
<title>Node16</title>
<g id="a_node16"><a xlink:href="core-fb-tf_8h.html" target="_top" xlink:title=" ">
<polygon fill="none" stroke="black" points="798.5,-223.5 798.5,-264.5 927.5,-264.5 927.5,-223.5 798.5,-223.5"/>
<text text-anchor="start" x="806.5" y="-252.5" font-family="Helvetica,sans-Serif" font-size="10.00">seerep&#45;srv/seerep&#45;core</text>
<text text-anchor="start" x="806.5" y="-241.5" font-family="Helvetica,sans-Serif" font-size="10.00">&#45;fb/include/seerep&#45;core</text>
<text text-anchor="middle" x="863" y="-230.5" font-family="Helvetica,sans-Serif" font-size="10.00">&#45;fb/core&#45;fb&#45;tf.h</text>
</a>
</g>
</g>
<!-- Node4&#45;&gt;Node16 -->
<g id="edge16" class="edge">
<title>Node4&#45;&gt;Node16</title>
<path fill="none" stroke="midnightblue" d="M1143.2,-299.57C1077.94,-286.86 987.77,-269.3 927.53,-257.57"/>
<polygon fill="midnightblue" stroke="midnightblue" points="1142.56,-303.01 1153.05,-301.49 1143.9,-296.14 1142.56,-303.01"/>
</g>
<!-- Node18 -->
<g id="node18" class="node">
<title>Node18</title>
<g id="a_node18"><a xlink:href="fb-tf-service_8h.html" target="_top" xlink:title=" ">
<polygon fill="none" stroke="black" points="641.5,-145.5 641.5,-186.5 780.5,-186.5 780.5,-145.5 641.5,-145.5"/>
<text text-anchor="start" x="649.5" y="-174.5" font-family="Helvetica,sans-Serif" font-size="10.00">seerep&#45;srv/seerep&#45;server</text>
<text text-anchor="start" x="649.5" y="-163.5" font-family="Helvetica,sans-Serif" font-size="10.00">/include/seerep&#45;server</text>
<text text-anchor="middle" x="711" y="-152.5" font-family="Helvetica,sans-Serif" font-size="10.00">/fb&#45;tf&#45;service.h</text>
</a>
</g>
</g>
<!-- Node4&#45;&gt;Node18 -->
<g id="edge42" class="edge">
<title>Node4&#45;&gt;Node18</title>
<path fill="none" stroke="midnightblue" d="M1140.16,-313.29C1030.72,-309.15 847.46,-297.47 789,-265 756.68,-247.05 732.89,-209.73 720.55,-186.67"/>
<polygon fill="midnightblue" stroke="midnightblue" points="1140.06,-316.79 1150.18,-313.66 1140.32,-309.79 1140.06,-316.79"/>
</g>
<!-- Node20 -->
<g id="node20" class="node">
<title>Node20</title>
<g id="a_node20"><a xlink:href="core-pb-image_8h.html" target="_top" xlink:title=" ">
<polygon fill="none" stroke="black" points="1109.5,-223.5 1109.5,-264.5 1240.5,-264.5 1240.5,-223.5 1109.5,-223.5"/>
<text text-anchor="start" x="1117.5" y="-252.5" font-family="Helvetica,sans-Serif" font-size="10.00">seerep&#45;srv/seerep&#45;core</text>
<text text-anchor="start" x="1117.5" y="-241.5" font-family="Helvetica,sans-Serif" font-size="10.00">&#45;pb/include/seerep&#45;core</text>
<text text-anchor="middle" x="1175" y="-230.5" font-family="Helvetica,sans-Serif" font-size="10.00">&#45;pb/core&#45;pb&#45;image.h</text>
</a>
</g>
</g>
<!-- Node4&#45;&gt;Node20 -->
<g id="edge21" class="edge">
<title>Node4&#45;&gt;Node20</title>
<path fill="none" stroke="midnightblue" d="M1209.03,-292.98C1202.55,-283.85 1195.14,-273.4 1188.89,-264.59"/>
<polygon fill="midnightblue" stroke="midnightblue" points="1206.24,-295.1 1214.88,-301.23 1211.95,-291.05 1206.24,-295.1"/>
</g>
<!-- Node22 -->
<g id="node22" class="node">
<title>Node22</title>
<g id="a_node22"><a xlink:href="pb-image-service_8h.html" target="_top" xlink:title=" ">
<polygon fill="none" stroke="black" points="945.5,-145.5 945.5,-186.5 1084.5,-186.5 1084.5,-145.5 945.5,-145.5"/>
<text text-anchor="start" x="953.5" y="-174.5" font-family="Helvetica,sans-Serif" font-size="10.00">seerep&#45;srv/seerep&#45;server</text>
<text text-anchor="start" x="953.5" y="-163.5" font-family="Helvetica,sans-Serif" font-size="10.00">/include/seerep&#45;server</text>
<text text-anchor="middle" x="1015" y="-152.5" font-family="Helvetica,sans-Serif" font-size="10.00">/pb&#45;image&#45;service.h</text>
</a>
</g>
</g>
<!-- Node4&#45;&gt;Node22 -->
<g id="edge43" class="edge">
<title>Node4&#45;&gt;Node22</title>
<path fill="none" stroke="midnightblue" d="M1165.86,-298.11C1143.99,-290.06 1119.74,-279.1 1100,-265 1069.57,-243.27 1042.87,-208.52 1027.85,-186.76"/>
<polygon fill="midnightblue" stroke="midnightblue" points="1164.8,-301.45 1175.39,-301.5 1167.14,-294.85 1164.8,-301.45"/>
</g>
<!-- Node24 -->
<g id="node24" class="node">
<title>Node24</title>
<g id="a_node24"><a xlink:href="core-pb-pointcloud_8h.html" target="_top" xlink:title=" ">
<polygon fill="none" stroke="black" points="1735,-223.5 1735,-264.5 1871,-264.5 1871,-223.5 1735,-223.5"/>
<text text-anchor="start" x="1743" y="-252.5" font-family="Helvetica,sans-Serif" font-size="10.00">seerep&#45;srv/seerep&#45;core</text>
<text text-anchor="start" x="1743" y="-241.5" font-family="Helvetica,sans-Serif" font-size="10.00">&#45;pb/include/seerep&#45;core</text>
<text text-anchor="middle" x="1803" y="-230.5" font-family="Helvetica,sans-Serif" font-size="10.00">&#45;pb/core&#45;pb&#45;pointcloud.h</text>
</a>
</g>
</g>
<!-- Node4&#45;&gt;Node24 -->
<g id="edge26" class="edge">
<title>Node4&#45;&gt;Node24</title>
<path fill="none" stroke="midnightblue" d="M1309.53,-300.85C1404.73,-287.67 1623,-264.09 1734.73,-252.21"/>
<polygon fill="midnightblue" stroke="midnightblue" points="1309.04,-297.38 1299.62,-302.24 1310.01,-304.31 1309.04,-297.38"/>
</g>
<!-- Node26 -->
<g id="node26" class="node">
<title>Node26</title>
<g id="a_node26"><a xlink:href="pb-point-cloud-service_8h.html" target="_top" xlink:title=" ">
<polygon fill="none" stroke="black" points="1903.5,-145.5 1903.5,-186.5 2042.5,-186.5 2042.5,-145.5 1903.5,-145.5"/>
<text text-anchor="start" x="1911.5" y="-174.5" font-family="Helvetica,sans-Serif" font-size="10.00">seerep&#45;srv/seerep&#45;server</text>
<text text-anchor="start" x="1911.5" y="-163.5" font-family="Helvetica,sans-Serif" font-size="10.00">/include/seerep&#45;server</text>
<text text-anchor="middle" x="1973" y="-152.5" font-family="Helvetica,sans-Serif" font-size="10.00">/pb&#45;point&#45;cloud&#45;service.h</text>
</a>
</g>
</g>
<!-- Node4&#45;&gt;Node26 -->
<g id="edge47" class="edge">
<title>Node4&#45;&gt;Node26</title>
<path fill="none" stroke="midnightblue" d="M1309.82,-300.98C1450.47,-287.57 1767.43,-317.61 1880,-265 1916.34,-248.02 1945.62,-210 1961.07,-186.62"/>
<polygon fill="midnightblue" stroke="midnightblue" points="1309.17,-297.53 1299.6,-302.07 1309.91,-304.49 1309.17,-297.53"/>
</g>
<!-- Node28 -->
<g id="node28" class="node">
<title>Node28</title>
<g id="a_node28"><a xlink:href="core-pb-tf_8h.html" target="_top" xlink:title=" ">
<polygon fill="none" stroke="black" points="1994.5,-223.5 1994.5,-264.5 2125.5,-264.5 2125.5,-223.5 1994.5,-223.5"/>
<text text-anchor="start" x="2002.5" y="-252.5" font-family="Helvetica,sans-Serif" font-size="10.00">seerep&#45;srv/seerep&#45;core</text>
<text text-anchor="start" x="2002.5" y="-241.5" font-family="Helvetica,sans-Serif" font-size="10.00">&#45;pb/include/seerep&#45;core</text>
<text text-anchor="middle" x="2060" y="-230.5" font-family="Helvetica,sans-Serif" font-size="10.00">&#45;pb/core&#45;pb&#45;tf.h</text>
</a>
</g>
</g>
<!-- Node4&#45;&gt;Node28 -->
<g id="edge31" class="edge">
<title>Node4&#45;&gt;Node28</title>
<path fill="none" stroke="midnightblue" d="M1309.78,-300.89C1593.68,-269.05 1669.53,-298.23 1950,-265 1964.46,-263.29 1979.88,-260.86 1994.47,-258.29"/>
<polygon fill="midnightblue" stroke="midnightblue" points="1309.14,-297.44 1299.6,-302.04 1309.93,-304.39 1309.14,-297.44"/>
</g>
<!-- Node30 -->
<g id="node30" class="node">
<title>Node30</title>
<g id="a_node30"><a xlink:href="pb-tf-service_8h.html" target="_top" xlink:title=" ">
<polygon fill="none" stroke="black" points="2207.5,-145.5 2207.5,-186.5 2346.5,-186.5 2346.5,-145.5 2207.5,-145.5"/>
<text text-anchor="start" x="2215.5" y="-174.5" font-family="Helvetica,sans-Serif" font-size="10.00">seerep&#45;srv/seerep&#45;server</text>
<text text-anchor="start" x="2215.5" y="-163.5" font-family="Helvetica,sans-Serif" font-size="10.00">/include/seerep&#45;server</text>
<text text-anchor="middle" x="2277" y="-152.5" font-family="Helvetica,sans-Serif" font-size="10.00">/pb&#45;tf&#45;service.h</text>
</a>
</g>
</g>
<!-- Node4&#45;&gt;Node30 -->
<g id="edge50" class="edge">
<title>Node4&#45;&gt;Node30</title>
<path fill="none" stroke="midnightblue" d="M1309.75,-301.1C1437,-291.76 2053.06,-302.42 2134,-265 2157.12,-254.31 2152.85,-238.58 2173,-223 2191.41,-208.76 2213.94,-196.14 2233.32,-186.5"/>
<polygon fill="midnightblue" stroke="midnightblue" points="1309.24,-297.63 1299.59,-302 1309.86,-304.6 1309.24,-297.63"/>
</g>
<!-- Node32 -->
<g id="node32" class="node">
<title>Node32</title>
<g id="a_node32"><a xlink:href="core_8cpp.html" target="_top" xlink:title=" ">
<polygon fill="none" stroke="black" points="2182.5,-229 2182.5,-259 2311.5,-259 2311.5,-229 2182.5,-229"/>
<text text-anchor="start" x="2190.5" y="-247" font-family="Helvetica,sans-Serif" font-size="10.00">seerep&#45;srv/seerep&#45;core</text>
<text text-anchor="middle" x="2247" y="-236" font-family="Helvetica,sans-Serif" font-size="10.00">/src/core.cpp</text>
</a>
</g>
</g>
<!-- Node4&#45;&gt;Node32 -->
<g id="edge36" class="edge">
<title>Node4&#45;&gt;Node32</title>
<path fill="none" stroke="midnightblue" d="M1309.78,-300.91C1690.15,-261.04 1792.78,-319.75 2168,-265 2177.8,-263.57 2188.15,-261.43 2198.01,-259.07"/>
<polygon fill="midnightblue" stroke="midnightblue" points="1309.16,-297.46 1299.59,-301.99 1309.91,-304.42 1309.16,-297.46"/>
</g>
<!-- Node33 -->
<g id="node33" class="node">
<title>Node33</title>
<g id="a_node33"><a xlink:href="fb-meta-operations_8h.html" target="_top" xlink:title=" ">
<polygon fill="none" stroke="black" points="1306.5,-223.5 1306.5,-264.5 1445.5,-264.5 1445.5,-223.5 1306.5,-223.5"/>
<text text-anchor="start" x="1314.5" y="-252.5" font-family="Helvetica,sans-Serif" font-size="10.00">seerep&#45;srv/seerep&#45;server</text>
<text text-anchor="start" x="1314.5" y="-241.5" font-family="Helvetica,sans-Serif" font-size="10.00">/include/seerep&#45;server</text>
<text text-anchor="middle" x="1376" y="-230.5" font-family="Helvetica,sans-Serif" font-size="10.00">/fb&#45;meta&#45;operations.h</text>
</a>
</g>
</g>
<!-- Node4&#45;&gt;Node33 -->
<g id="edge39" class="edge">
<title>Node4&#45;&gt;Node33</title>
<path fill="none" stroke="midnightblue" d="M1264.35,-297.13C1285.78,-287.12 1312.32,-274.73 1334.13,-264.55"/>
<polygon fill="midnightblue" stroke="midnightblue" points="1262.77,-294 1255.19,-301.4 1265.74,-300.34 1262.77,-294"/>
</g>
<!-- Node35 -->
<g id="node35" class="node">
<title>Node35</title>
<g id="a_node35"><a xlink:href="pb-meta-operations_8h.html" target="_top" xlink:title=" ">
<polygon fill="none" stroke="black" points="1463.5,-223.5 1463.5,-264.5 1602.5,-264.5 1602.5,-223.5 1463.5,-223.5"/>
<text text-anchor="start" x="1471.5" y="-252.5" font-family="Helvetica,sans-Serif" font-size="10.00">seerep&#45;srv/seerep&#45;server</text>
<text text-anchor="start" x="1471.5" y="-241.5" font-family="Helvetica,sans-Serif" font-size="10.00">/include/seerep&#45;server</text>
<text text-anchor="middle" x="1533" y="-230.5" font-family="Helvetica,sans-Serif" font-size="10.00">/pb&#45;meta&#45;operations.h</text>
</a>
</g>
</g>
<!-- Node4&#45;&gt;Node35 -->
<g id="edge44" class="edge">
<title>Node4&#45;&gt;Node35</title>
<path fill="none" stroke="midnightblue" d="M1301.16,-299.32C1345.77,-289.69 1403.17,-277.04 1454,-265 1457.03,-264.28 1460.12,-263.54 1463.24,-262.78"/>
<polygon fill="midnightblue" stroke="midnightblue" points="1300.3,-295.93 1291.26,-301.45 1301.78,-302.77 1300.3,-295.93"/>
</g>
<!-- Node37 -->
<g id="node37" class="node">
<title>Node37</title>
<g id="a_node37"><a xlink:href="pb-receive-sensor-msgs_8h.html" target="_top" xlink:title=" ">
<polygon fill="none" stroke="black" points="2345,-223.5 2345,-264.5 2491,-264.5 2491,-223.5 2345,-223.5"/>
<text text-anchor="start" x="2353" y="-252.5" font-family="Helvetica,sans-Serif" font-size="10.00">seerep&#45;srv/seerep&#45;server</text>
<text text-anchor="start" x="2353" y="-241.5" font-family="Helvetica,sans-Serif" font-size="10.00">/include/seerep&#45;server</text>
<text text-anchor="middle" x="2418" y="-230.5" font-family="Helvetica,sans-Serif" font-size="10.00">/pb&#45;receive&#45;sensor&#45;msgs.h</text>
</a>
</g>
</g>
<!-- Node4&#45;&gt;Node37 -->
<g id="edge48" class="edge">
<title>Node4&#45;&gt;Node37</title>
<path fill="none" stroke="midnightblue" d="M1309.55,-300.94C1757.36,-255.09 1876.36,-317.79 2320,-265 2328.1,-264.04 2336.54,-262.75 2344.9,-261.3"/>
<polygon fill="midnightblue" stroke="midnightblue" points="1309.17,-297.46 1299.59,-301.97 1309.9,-304.42 1309.17,-297.46"/>
</g>
<!-- Node7 -->
<g id="node7" class="node">
<title>Node7</title>
<g id="a_node7"><a xlink:href="core-fb-image_8cpp.html" target="_top" xlink:title=" ">
<polygon fill="none" stroke="black" points="0,-151 0,-181 140,-181 140,-151 0,-151"/>
<text text-anchor="start" x="8" y="-169" font-family="Helvetica,sans-Serif" font-size="10.00">seerep&#45;srv/seerep&#45;core</text>
<text text-anchor="middle" x="70" y="-158" font-family="Helvetica,sans-Serif" font-size="10.00">&#45;fb/src/core&#45;fb&#45;image.cpp</text>
</a>
</g>
</g>
<!-- Node6&#45;&gt;Node7 -->
<g id="edge6" class="edge">
<title>Node6&#45;&gt;Node7</title>
<path fill="none" stroke="midnightblue" d="M186.95,-219.28C158.93,-206.76 125.48,-191.81 101.55,-181.11"/>
<polygon fill="midnightblue" stroke="midnightblue" points="185.66,-222.54 196.22,-223.43 188.52,-216.15 185.66,-222.54"/>
</g>
<!-- Node6&#45;&gt;Node8 -->
<g id="edge7" class="edge">
<title>Node6&#45;&gt;Node8</title>
<path fill="none" stroke="midnightblue" d="M235.31,-213.3C233.89,-204.3 232.37,-194.65 231.08,-186.51"/>
<polygon fill="midnightblue" stroke="midnightblue" points="231.89,-214.1 236.91,-223.43 238.81,-213 231.89,-214.1"/>
</g>
<!-- Node8&#45;&gt;Node9 -->
<g id="edge8" class="edge">
<title>Node8&#45;&gt;Node9</title>
<path fill="none" stroke="midnightblue" d="M307.68,-144.9C654.95,-93.95 748.37,-136.14 1095,-109 1131.52,-106.14 1172.08,-101.74 1205.44,-97.8"/>
<polygon fill="midnightblue" stroke="midnightblue" points="306.97,-141.47 297.6,-146.4 308,-148.4 306.97,-141.47"/>
</g>
<!-- Node11 -->
<g id="node11" class="node">
<title>Node11</title>
<g id="a_node11"><a xlink:href="fb-image-service_8cpp.html" target="_top" xlink:title=" ">
<polygon fill="none" stroke="black" points="155,-73 155,-103 295,-103 295,-73 155,-73"/>
<text text-anchor="start" x="163" y="-91" font-family="Helvetica,sans-Serif" font-size="10.00">seerep&#45;srv/seerep&#45;server</text>
<text text-anchor="middle" x="225" y="-80" font-family="Helvetica,sans-Serif" font-size="10.00">/src/fb&#45;image&#45;service.cpp</text>
</a>
</g>
</g>
<!-- Node8&#45;&gt;Node11 -->
<g id="edge10" class="edge">
<title>Node8&#45;&gt;Node11</title>
<path fill="none" stroke="midnightblue" d="M226.83,-135.28C226.39,-124.25 225.92,-112.25 225.56,-103.23"/>
<polygon fill="midnightblue" stroke="midnightblue" points="223.34,-135.57 227.23,-145.43 230.33,-135.3 223.34,-135.57"/>
</g>
<!-- Node10 -->
<g id="node10" class="node">
<title>Node10</title>
<g id="a_node10"><a xlink:href="server_8cpp.html" target="_top" xlink:title=" ">
<polygon fill="none" stroke="black" points="1205.5,-0.5 1205.5,-30.5 1344.5,-30.5 1344.5,-0.5 1205.5,-0.5"/>
<text text-anchor="start" x="1213.5" y="-18.5" font-family="Helvetica,sans-Serif" font-size="10.00">seerep&#45;srv/seerep&#45;server</text>
<text text-anchor="middle" x="1275" y="-7.5" font-family="Helvetica,sans-Serif" font-size="10.00">/src/server.cpp</text>
</a>
</g>
</g>
<!-- Node9&#45;&gt;Node10 -->
<g id="edge9" class="edge">
<title>Node9&#45;&gt;Node10</title>
<path fill="none" stroke="midnightblue" d="M1275,-57.08C1275,-48.01 1275,-38.45 1275,-30.89"/>
<polygon fill="midnightblue" stroke="midnightblue" points="1271.5,-57.36 1275,-67.36 1278.5,-57.36 1271.5,-57.36"/>
</g>
<!-- Node13 -->
<g id="node13" class="node">
<title>Node13</title>
<g id="a_node13"><a xlink:href="core-fb-instance_8cpp.html" target="_top" xlink:title=" ">
<polygon fill="none" stroke="black" points="473,-151 473,-181 623,-181 623,-151 473,-151"/>
<text text-anchor="start" x="481" y="-169" font-family="Helvetica,sans-Serif" font-size="10.00">seerep&#45;srv/seerep&#45;core</text>
<text text-anchor="middle" x="548" y="-158" font-family="Helvetica,sans-Serif" font-size="10.00">&#45;fb/src/core&#45;fb&#45;instance.cpp</text>
</a>
</g>
</g>
<!-- Node12&#45;&gt;Node13 -->
<g id="edge12" class="edge">
<title>Node12&#45;&gt;Node13</title>
<path fill="none" stroke="midnightblue" d="M548,-213.28C548,-202.25 548,-190.25 548,-181.23"/>
<polygon fill="midnightblue" stroke="midnightblue" points="544.5,-213.43 548,-223.43 551.5,-213.43 544.5,-213.43"/>
</g>
<!-- Node12&#45;&gt;Node14 -->
<g id="edge13" class="edge">
<title>Node12&#45;&gt;Node14</title>
<path fill="none" stroke="midnightblue" d="M496.93,-219.19C474.38,-208.67 448.2,-196.47 426.83,-186.51"/>
<polygon fill="midnightblue" stroke="midnightblue" points="495.48,-222.37 506.02,-223.43 498.44,-216.03 495.48,-222.37"/>
</g>
<!-- Node14&#45;&gt;Node9 -->
<g id="edge14" class="edge">
<title>Node14&#45;&gt;Node9</title>
<path fill="none" stroke="midnightblue" d="M464.64,-145.08C743.39,-103.04 818.37,-132.24 1095,-109 1131.5,-105.93 1172.06,-101.52 1205.42,-97.61"/>
<polygon fill="midnightblue" stroke="midnightblue" points="464,-141.63 454.64,-146.6 465.05,-148.55 464,-141.63"/>
</g>
<!-- Node15 -->
<g id="node15" class="node">
<title>Node15</title>
<g id="a_node15"><a xlink:href="fb-instance-service_8cpp.html" target="_top" xlink:title=" ">
<polygon fill="none" stroke="black" points="313.5,-73 313.5,-103 464.5,-103 464.5,-73 313.5,-73"/>
<text text-anchor="start" x="321.5" y="-91" font-family="Helvetica,sans-Serif" font-size="10.00">seerep&#45;srv/seerep&#45;server</text>
<text text-anchor="middle" x="389" y="-80" font-family="Helvetica,sans-Serif" font-size="10.00">/src/fb&#45;instance&#45;service.cpp</text>
</a>
</g>
</g>
<!-- Node14&#45;&gt;Node15 -->
<g id="edge15" class="edge">
<title>Node14&#45;&gt;Node15</title>
<path fill="none" stroke="midnightblue" d="M386.56,-135.28C387.14,-124.25 387.78,-112.25 388.25,-103.23"/>
<polygon fill="midnightblue" stroke="midnightblue" points="383.06,-135.26 386.03,-145.43 390.05,-135.63 383.06,-135.26"/>
</g>
<!-- Node17 -->
<g id="node17" class="node">
<title>Node17</title>
<g id="a_node17"><a xlink:href="core-fb-tf_8cpp.html" target="_top" xlink:title=" ">
<polygon fill="none" stroke="black" points="798.5,-151 798.5,-181 927.5,-181 927.5,-151 798.5,-151"/>
<text text-anchor="start" x="806.5" y="-169" font-family="Helvetica,sans-Serif" font-size="10.00">seerep&#45;srv/seerep&#45;core</text>
<text text-anchor="middle" x="863" y="-158" font-family="Helvetica,sans-Serif" font-size="10.00">&#45;fb/src/core&#45;fb&#45;tf.cpp</text>
</a>
</g>
</g>
<!-- Node16&#45;&gt;Node17 -->
<g id="edge17" class="edge">
<title>Node16&#45;&gt;Node17</title>
<path fill="none" stroke="midnightblue" d="M863,-213.28C863,-202.25 863,-190.25 863,-181.23"/>
<polygon fill="midnightblue" stroke="midnightblue" points="859.5,-213.43 863,-223.43 866.5,-213.43 859.5,-213.43"/>
</g>
<!-- Node16&#45;&gt;Node18 -->
<g id="edge18" class="edge">
<title>Node16&#45;&gt;Node18</title>
<path fill="none" stroke="midnightblue" d="M814.82,-218.91C793.92,-208.46 769.76,-196.38 750.01,-186.51"/>
<polygon fill="midnightblue" stroke="midnightblue" points="813.35,-222.09 823.86,-223.43 816.48,-215.83 813.35,-222.09"/>
</g>
<!-- Node18&#45;&gt;Node9 -->
<g id="edge19" class="edge">
<title>Node18&#45;&gt;Node9</title>
<path fill="none" stroke="midnightblue" d="M790.77,-145.06C848,-136.9 1085.45,-110.18 1205.35,-96.77"/>
<polygon fill="midnightblue" stroke="midnightblue" points="789.97,-141.64 780.64,-146.64 791.06,-148.55 789.97,-141.64"/>
</g>
<!-- Node19 -->
<g id="node19" class="node">
<title>Node19</title>
<g id="a_node19"><a xlink:href="fb-tf-service_8cpp.html" target="_top" xlink:title=" ">
<polygon fill="none" stroke="black" points="641.5,-73 641.5,-103 780.5,-103 780.5,-73 641.5,-73"/>
<text text-anchor="start" x="649.5" y="-91" font-family="Helvetica,sans-Serif" font-size="10.00">seerep&#45;srv/seerep&#45;server</text>
<text text-anchor="middle" x="711" y="-80" font-family="Helvetica,sans-Serif" font-size="10.00">/src/fb&#45;tf&#45;service.cpp</text>
</a>
</g>
</g>
<!-- Node18&#45;&gt;Node19 -->
<g id="edge20" class="edge">
<title>Node18&#45;&gt;Node19</title>
<path fill="none" stroke="midnightblue" d="M711,-135.28C711,-124.25 711,-112.25 711,-103.23"/>
<polygon fill="midnightblue" stroke="midnightblue" points="707.5,-135.43 711,-145.43 714.5,-135.43 707.5,-135.43"/>
</g>
<!-- Node21 -->
<g id="node21" class="node">
<title>Node21</title>
<g id="a_node21"><a xlink:href="core-pb-image_8cpp.html" target="_top" xlink:title=" ">
<polygon fill="none" stroke="black" points="1103,-151 1103,-181 1247,-181 1247,-151 1103,-151"/>
<text text-anchor="start" x="1111" y="-169" font-family="Helvetica,sans-Serif" font-size="10.00">seerep&#45;srv/seerep&#45;core</text>
<text text-anchor="middle" x="1175" y="-158" font-family="Helvetica,sans-Serif" font-size="10.00">&#45;pb/src/core&#45;pb&#45;image.cpp</text>
</a>
</g>
</g>
<!-- Node20&#45;&gt;Node21 -->
<g id="edge22" class="edge">
<title>Node20&#45;&gt;Node21</title>
<path fill="none" stroke="midnightblue" d="M1175,-213.28C1175,-202.25 1175,-190.25 1175,-181.23"/>
<polygon fill="midnightblue" stroke="midnightblue" points="1171.5,-213.43 1175,-223.43 1178.5,-213.43 1171.5,-213.43"/>
</g>
<!-- Node20&#45;&gt;Node22 -->
<g id="edge23" class="edge">
<title>Node20&#45;&gt;Node22</title>
<path fill="none" stroke="midnightblue" d="M1124.58,-219.05C1102.51,-208.57 1076.95,-196.42 1056.06,-186.51"/>
<polygon fill="midnightblue" stroke="midnightblue" points="1123.26,-222.3 1133.8,-223.43 1126.26,-215.98 1123.26,-222.3"/>
</g>
<!-- Node22&#45;&gt;Node9 -->
<g id="edge24" class="edge">
<title>Node22&#45;&gt;Node9</title>
<path fill="none" stroke="midnightblue" d="M1091.7,-142.58C1128.7,-131.76 1172.67,-118.91 1208.27,-108.51"/>
<polygon fill="midnightblue" stroke="midnightblue" points="1090.57,-139.26 1081.96,-145.43 1092.54,-145.98 1090.57,-139.26"/>
</g>
<!-- Node23 -->
<g id="node23" class="node">
<title>Node23</title>
<g id="a_node23"><a xlink:href="pb-image-service_8cpp.html" target="_top" xlink:title=" ">
<polygon fill="none" stroke="black" points="943.5,-73 943.5,-103 1086.5,-103 1086.5,-73 943.5,-73"/>
<text text-anchor="start" x="951.5" y="-91" font-family="Helvetica,sans-Serif" font-size="10.00">seerep&#45;srv/seerep&#45;server</text>
<text text-anchor="middle" x="1015" y="-80" font-family="Helvetica,sans-Serif" font-size="10.00">/src/pb&#45;image&#45;service.cpp</text>
</a>
</g>
</g>
<!-- Node22&#45;&gt;Node23 -->
<g id="edge25" class="edge">
<title>Node22&#45;&gt;Node23</title>
<path fill="none" stroke="midnightblue" d="M1015,-135.28C1015,-124.25 1015,-112.25 1015,-103.23"/>
<polygon fill="midnightblue" stroke="midnightblue" points="1011.5,-135.43 1015,-145.43 1018.5,-135.43 1011.5,-135.43"/>
</g>
<!-- Node25 -->
<g id="node25" class="node">
<title>Node25</title>
<g id="a_node25"><a xlink:href="core-pb-pointcloud_8cpp.html" target="_top" xlink:title=" ">
<polygon fill="none" stroke="black" points="1721,-151 1721,-181 1885,-181 1885,-151 1721,-151"/>
<text text-anchor="start" x="1729" y="-169" font-family="Helvetica,sans-Serif" font-size="10.00">seerep&#45;srv/seerep&#45;core</text>
<text text-anchor="middle" x="1803" y="-158" font-family="Helvetica,sans-Serif" font-size="10.00">&#45;pb/src/core&#45;pb&#45;pointcloud.cpp</text>
</a>
</g>
</g>
<!-- Node24&#45;&gt;Node25 -->
<g id="edge27" class="edge">
<title>Node24&#45;&gt;Node25</title>
<path fill="none" stroke="midnightblue" d="M1803,-213.28C1803,-202.25 1803,-190.25 1803,-181.23"/>
<polygon fill="midnightblue" stroke="midnightblue" points="1799.5,-213.43 1803,-223.43 1806.5,-213.43 1799.5,-213.43"/>
</g>
<!-- Node24&#45;&gt;Node26 -->
<g id="edge28" class="edge">
<title>Node24&#45;&gt;Node26</title>
<path fill="none" stroke="midnightblue" d="M1855.95,-219.33C1879.54,-208.78 1906.98,-196.51 1929.37,-186.51"/>
<polygon fill="midnightblue" stroke="midnightblue" points="1854.48,-216.15 1846.78,-223.43 1857.34,-222.54 1854.48,-216.15"/>
</g>
<!-- Node26&#45;&gt;Node9 -->
<g id="edge29" class="edge">
<title>Node26&#45;&gt;Node9</title>
<path fill="none" stroke="midnightblue" d="M1893.32,-145.03C1688.83,-110.81 1457.82,-96.92 1344.62,-91.72"/>
<polygon fill="midnightblue" stroke="midnightblue" points="1892.9,-148.51 1903.34,-146.73 1894.07,-141.61 1892.9,-148.51"/>
</g>
<!-- Node27 -->
<g id="node27" class="node">
<title>Node27</title>
<g id="a_node27"><a xlink:href="pb-point-cloud-service_8cpp.html" target="_top" xlink:title=" ">
<polygon fill="none" stroke="black" points="1889.5,-73 1889.5,-103 2056.5,-103 2056.5,-73 1889.5,-73"/>
<text text-anchor="start" x="1897.5" y="-91" font-family="Helvetica,sans-Serif" font-size="10.00">seerep&#45;srv/seerep&#45;server</text>
<text text-anchor="middle" x="1973" y="-80" font-family="Helvetica,sans-Serif" font-size="10.00">/src/pb&#45;point&#45;cloud&#45;service.cpp</text>
</a>
</g>
</g>
<!-- Node26&#45;&gt;Node27 -->
<g id="edge30" class="edge">
<title>Node26&#45;&gt;Node27</title>
<path fill="none" stroke="midnightblue" d="M1973,-135.28C1973,-124.25 1973,-112.25 1973,-103.23"/>
<polygon fill="midnightblue" stroke="midnightblue" points="1969.5,-135.43 1973,-145.43 1976.5,-135.43 1969.5,-135.43"/>
</g>
<!-- Node29 -->
<g id="node29" class="node">
<title>Node29</title>
<g id="a_node29"><a xlink:href="core-pb-tf_8cpp.html" target="_top" xlink:title=" ">
<polygon fill="none" stroke="black" points="2060.5,-151 2060.5,-181 2189.5,-181 2189.5,-151 2060.5,-151"/>
<text text-anchor="start" x="2068.5" y="-169" font-family="Helvetica,sans-Serif" font-size="10.00">seerep&#45;srv/seerep&#45;core</text>
<text text-anchor="middle" x="2125" y="-158" font-family="Helvetica,sans-Serif" font-size="10.00">&#45;pb/src/core&#45;pb&#45;tf.cpp</text>
</a>
</g>
</g>
<!-- Node28&#45;&gt;Node29 -->
<g id="edge32" class="edge">
<title>Node28&#45;&gt;Node29</title>
<path fill="none" stroke="midnightblue" d="M2083.39,-215.65C2093.35,-204 2104.56,-190.9 2112.83,-181.23"/>
<polygon fill="midnightblue" stroke="midnightblue" points="2080.58,-213.55 2076.74,-223.43 2085.9,-218.1 2080.58,-213.55"/>
</g>
<!-- Node28&#45;&gt;Node30 -->
<g id="edge33" class="edge">
<title>Node28&#45;&gt;Node30</title>
<path fill="none" stroke="midnightblue" d="M2125.6,-220.03C2156.14,-209.33 2192.1,-196.73 2221.31,-186.51"/>
<polygon fill="midnightblue" stroke="midnightblue" points="2124.16,-216.82 2115.88,-223.43 2126.48,-223.43 2124.16,-216.82"/>
</g>
<!-- Node30&#45;&gt;Node9 -->
<g id="edge34" class="edge">
<title>Node30&#45;&gt;Node9</title>
<path fill="none" stroke="midnightblue" d="M2197.34,-145.07C1874.3,-95.74 1497.63,-89.29 1344.66,-88.79"/>
<polygon fill="midnightblue" stroke="midnightblue" points="2196.94,-148.55 2207.36,-146.62 2198.01,-141.63 2196.94,-148.55"/>
</g>
<!-- Node31 -->
<g id="node31" class="node">
<title>Node31</title>
<g id="a_node31"><a xlink:href="pb-tf-service_8cpp.html" target="_top" xlink:title=" ">
<polygon fill="none" stroke="black" points="2207.5,-73 2207.5,-103 2346.5,-103 2346.5,-73 2207.5,-73"/>
<text text-anchor="start" x="2215.5" y="-91" font-family="Helvetica,sans-Serif" font-size="10.00">seerep&#45;srv/seerep&#45;server</text>
<text text-anchor="middle" x="2277" y="-80" font-family="Helvetica,sans-Serif" font-size="10.00">/src/pb&#45;tf&#45;service.cpp</text>
</a>
</g>
</g>
<!-- Node30&#45;&gt;Node31 -->
<g id="edge35" class="edge">
<title>Node30&#45;&gt;Node31</title>
<path fill="none" stroke="midnightblue" d="M2277,-135.28C2277,-124.25 2277,-112.25 2277,-103.23"/>
<polygon fill="midnightblue" stroke="midnightblue" points="2273.5,-135.43 2277,-145.43 2280.5,-135.43 2273.5,-135.43"/>
</g>
<!-- Node33&#45;&gt;Node9 -->
<g id="edge40" class="edge">
<title>Node33&#45;&gt;Node9</title>
<path fill="none" stroke="midnightblue" d="M1433.51,-218.13C1445.7,-210.04 1456.99,-199.77 1464,-187 1472.98,-170.64 1475.17,-159.96 1464,-145 1449.39,-125.43 1392.3,-110.27 1344.66,-100.69"/>
<polygon fill="midnightblue" stroke="midnightblue" points="1431.65,-215.16 1424.96,-223.38 1435.31,-221.12 1431.65,-215.16"/>
</g>
<!-- Node34 -->
<g id="node34" class="node">
<title>Node34</title>
<g id="a_node34"><a xlink:href="fb-meta-operations_8cpp.html" target="_top" xlink:title=" ">
<polygon fill="none" stroke="black" points="1303,-151 1303,-181 1455,-181 1455,-151 1303,-151"/>
<text text-anchor="start" x="1311" y="-169" font-family="Helvetica,sans-Serif" font-size="10.00">seerep&#45;srv/seerep&#45;server</text>
<text text-anchor="middle" x="1379" y="-158" font-family="Helvetica,sans-Serif" font-size="10.00">/src/fb&#45;meta&#45;operations.cpp</text>
</a>
</g>
</g>
<!-- Node33&#45;&gt;Node34 -->
<g id="edge41" class="edge">
<title>Node33&#45;&gt;Node34</title>
<path fill="none" stroke="midnightblue" d="M1377.17,-213.28C1377.61,-202.25 1378.08,-190.25 1378.44,-181.23"/>
<polygon fill="midnightblue" stroke="midnightblue" points="1373.67,-213.3 1376.77,-223.43 1380.66,-213.57 1373.67,-213.3"/>
</g>
<!-- Node35&#45;&gt;Node9 -->
<g id="edge45" class="edge">
<title>Node35&#45;&gt;Node9</title>
<path fill="none" stroke="midnightblue" d="M1524.88,-213.85C1517.28,-191.84 1503.77,-162.52 1482,-145 1443.13,-113.73 1388.24,-99.85 1344.75,-93.72"/>
<polygon fill="midnightblue" stroke="midnightblue" points="1521.55,-214.95 1527.96,-223.38 1528.21,-212.79 1521.55,-214.95"/>
</g>
<!-- Node36 -->
<g id="node36" class="node">
<title>Node36</title>
<g id="a_node36"><a xlink:href="pb-meta-operations_8cpp.html" target="_top" xlink:title=" ">
<polygon fill="none" stroke="black" points="1549,-151 1549,-181 1703,-181 1703,-151 1549,-151"/>
<text text-anchor="start" x="1557" y="-169" font-family="Helvetica,sans-Serif" font-size="10.00">seerep&#45;srv/seerep&#45;server</text>
<text text-anchor="middle" x="1626" y="-158" font-family="Helvetica,sans-Serif" font-size="10.00">/src/pb&#45;meta&#45;operations.cpp</text>
</a>
</g>
</g>
<!-- Node35&#45;&gt;Node36 -->
<g id="edge46" class="edge">
<title>Node35&#45;&gt;Node36</title>
<path fill="none" stroke="midnightblue" d="M1564.83,-216.99C1579.48,-205.02 1596.3,-191.27 1608.59,-181.23"/>
<polygon fill="midnightblue" stroke="midnightblue" points="1562.48,-214.39 1556.95,-223.43 1566.91,-219.81 1562.48,-214.39"/>
</g>
<!-- Node38 -->
<g id="node38" class="node">
<title>Node38</title>
<g id="a_node38"><a xlink:href="pb-receive-sensor-msgs_8cpp.html" target="_top" xlink:title=" ">
<polygon fill="none" stroke="black" points="2364.5,-145.5 2364.5,-186.5 2503.5,-186.5 2503.5,-145.5 2364.5,-145.5"/>
<text text-anchor="start" x="2372.5" y="-174.5" font-family="Helvetica,sans-Serif" font-size="10.00">seerep&#45;srv/seerep&#45;server</text>
<text text-anchor="start" x="2372.5" y="-163.5" font-family="Helvetica,sans-Serif" font-size="10.00">/src/pb&#45;receive&#45;sensor</text>
<text text-anchor="middle" x="2434" y="-152.5" font-family="Helvetica,sans-Serif" font-size="10.00">&#45;msgs.cpp</text>
</a>
</g>
</g>
<!-- Node37&#45;&gt;Node38 -->
<g id="edge49" class="edge">
<title>Node37&#45;&gt;Node38</title>
<path fill="none" stroke="midnightblue" d="M2424.19,-213.59C2426.1,-204.51 2428.16,-194.74 2429.89,-186.51"/>
<polygon fill="midnightblue" stroke="midnightblue" points="2420.76,-212.92 2422.12,-223.43 2427.61,-214.36 2420.76,-212.92"/>
</g>
</g>
</svg>
