<?xml version="1.0" encoding="UTF-8" standalone="no"?>
<!DOCTYPE svg PUBLIC "-//W3C//DTD SVG 1.1//EN"
 "http://www.w3.org/Graphics/SVG/1.1/DTD/svg11.dtd">
<!-- Generated by graphviz version 2.43.0 (0)
 -->
<!-- Title: seerep_msgs/core/dataset_indexable.h Pages: 1 -->
<svg width="633pt" height="218pt"
 viewBox="0.00 0.00 632.76 218.00" xmlns="http://www.w3.org/2000/svg" xmlns:xlink="http://www.w3.org/1999/xlink">
<g id="graph0" class="graph" transform="scale(1 1) rotate(0) translate(4 214)">
<title>seerep_msgs/core/dataset_indexable.h</title>
<!-- Node1 -->
<g id="node1" class="node">
<title>Node1</title>
<g id="a_node1"><a xlink:title=" ">
<polygon fill="#bfbfbf" stroke="black" points="123.26,-179.5 123.26,-209.5 268.26,-209.5 268.26,-179.5 123.26,-179.5"/>
<text text-anchor="start" x="131.26" y="-197.5" font-family="Helvetica,sans-Serif" font-size="10.00">seerep_msgs/core/dataset</text>
<text text-anchor="middle" x="195.76" y="-186.5" font-family="Helvetica,sans-Serif" font-size="10.00">_indexable.h</text>
</a>
</g>
</g>
<!-- Node2 -->
<g id="node2" class="node">
<title>Node2</title>
<g id="a_node2"><a xlink:title=" ">
<polygon fill="none" stroke="#bfbfbf" points="109.26,-0.5 109.26,-19.5 174.26,-19.5 174.26,-0.5 109.26,-0.5"/>
<text text-anchor="middle" x="141.76" y="-7.5" font-family="Helvetica,sans-Serif" font-size="10.00">functional</text>
</a>
</g>
</g>
<!-- Node1&#45;&gt;Node2 -->
<g id="edge1" class="edge">
<title>Node1&#45;&gt;Node2</title>
<path fill="none" stroke="midnightblue" d="M140.5,-179.4C95.28,-164.62 34.31,-136.45 5.76,-87 -1.13,-75.07 -2.31,-67.17 5.76,-56 26.82,-26.84 67.5,-16.27 98.91,-12.58"/>
<polygon fill="midnightblue" stroke="midnightblue" points="99.55,-16.04 109.16,-11.58 98.86,-9.07 99.55,-16.04"/>
</g>
<!-- Node3 -->
<g id="node3" class="node">
<title>Node3</title>
<g id="a_node3"><a xlink:href="aabb_8h.html" target="_top" xlink:title=" ">
<polygon fill="none" stroke="black" points="364.76,-123.5 364.76,-142.5 414.76,-142.5 414.76,-123.5 364.76,-123.5"/>
<text text-anchor="middle" x="389.76" y="-130.5" font-family="Helvetica,sans-Serif" font-size="10.00">aabb.h</text>
</a>
</g>
</g>
<!-- Node1&#45;&gt;Node3 -->
<g id="edge2" class="edge">
<title>Node1&#45;&gt;Node3</title>
<path fill="none" stroke="midnightblue" d="M241.73,-179.4C276.41,-168.76 323.25,-154.4 354.88,-144.7"/>
<polygon fill="midnightblue" stroke="midnightblue" points="356.05,-148 364.58,-141.72 354,-141.31 356.05,-148"/>
</g>
<!-- Node7 -->
<g id="node7" class="node">
<title>Node7</title>
<g id="a_node7"><a xlink:href="header_8h.html" target="_top" xlink:title=" ">
<polygon fill="none" stroke="black" points="112.26,-123.5 112.26,-142.5 171.26,-142.5 171.26,-123.5 112.26,-123.5"/>
<text text-anchor="middle" x="141.76" y="-130.5" font-family="Helvetica,sans-Serif" font-size="10.00">header.h</text>
</a>
</g>
</g>
<!-- Node1&#45;&gt;Node7 -->
<g id="edge6" class="edge">
<title>Node1&#45;&gt;Node7</title>
<path fill="none" stroke="midnightblue" d="M182.96,-179.4C175.03,-170.66 164.82,-159.41 156.55,-150.3"/>
<polygon fill="midnightblue" stroke="midnightblue" points="158.93,-147.71 149.61,-142.66 153.74,-152.42 158.93,-147.71"/>
</g>
<!-- Node10 -->
<g id="node10" class="node">
<title>Node10</title>
<g id="a_node10"><a xlink:href="label__with__instance_8h.html" target="_top" xlink:title=" ">
<polygon fill="none" stroke="black" points="189.76,-123.5 189.76,-142.5 311.76,-142.5 311.76,-123.5 189.76,-123.5"/>
<text text-anchor="middle" x="250.76" y="-130.5" font-family="Helvetica,sans-Serif" font-size="10.00">label_with_instance.h</text>
</a>
</g>
</g>
<!-- Node1&#45;&gt;Node10 -->
<g id="edge11" class="edge">
<title>Node1&#45;&gt;Node10</title>
<path fill="none" stroke="midnightblue" d="M208.79,-179.4C216.95,-170.58 227.48,-159.18 235.95,-150.02"/>
<polygon fill="midnightblue" stroke="midnightblue" points="238.54,-152.38 242.75,-142.66 233.4,-147.63 238.54,-152.38"/>
</g>
<!-- Node4 -->
<g id="node4" class="node">
<title>Node4</title>
<g id="a_node4"><a xlink:title=" ">
<polygon fill="none" stroke="#bfbfbf" points="369.26,-62 369.26,-81 482.26,-81 482.26,-62 369.26,-62"/>
<text text-anchor="middle" x="425.76" y="-69" font-family="Helvetica,sans-Serif" font-size="10.00">boost/geometry.hpp</text>
</a>
</g>
</g>
<!-- Node3&#45;&gt;Node4 -->
<g id="edge3" class="edge">
<title>Node3&#45;&gt;Node4</title>
<path fill="none" stroke="midnightblue" d="M394.91,-123.48C400.21,-114.73 408.59,-100.87 415.28,-89.81"/>
<polygon fill="midnightblue" stroke="midnightblue" points="418.43,-91.38 420.61,-81.01 412.44,-87.75 418.43,-91.38"/>
</g>
<!-- Node5 -->
<g id="node5" class="node">
<title>Node5</title>
<g id="a_node5"><a xlink:title=" ">
<polygon fill="none" stroke="#bfbfbf" points="500.76,-56.5 500.76,-86.5 624.76,-86.5 624.76,-56.5 500.76,-56.5"/>
<text text-anchor="start" x="508.76" y="-74.5" font-family="Helvetica,sans-Serif" font-size="10.00">boost/geometry/index</text>
<text text-anchor="middle" x="562.76" y="-63.5" font-family="Helvetica,sans-Serif" font-size="10.00">/rtree.hpp</text>
</a>
</g>
</g>
<!-- Node3&#45;&gt;Node5 -->
<g id="edge4" class="edge">
<title>Node3&#45;&gt;Node5</title>
<path fill="none" stroke="midnightblue" d="M414.54,-123.48C439.94,-114.74 480.16,-100.91 512.3,-89.86"/>
<polygon fill="midnightblue" stroke="midnightblue" points="513.67,-93.09 521.98,-86.52 511.39,-86.47 513.67,-93.09"/>
</g>
<!-- Node6 -->
<g id="node6" class="node">
<title>Node6</title>
<g id="a_node6"><a xlink:title=" ">
<polygon fill="none" stroke="#bfbfbf" points="238.26,-62 238.26,-81 351.26,-81 351.26,-62 238.26,-62"/>
<text text-anchor="middle" x="294.76" y="-69" font-family="Helvetica,sans-Serif" font-size="10.00">boost/uuid/uuid.hpp</text>
</a>
</g>
</g>
<!-- Node3&#45;&gt;Node6 -->
<g id="edge5" class="edge">
<title>Node3&#45;&gt;Node6</title>
<path fill="none" stroke="midnightblue" d="M376.15,-123.48C360.7,-113.8 335.27,-97.87 316.94,-86.39"/>
<polygon fill="midnightblue" stroke="midnightblue" points="318.68,-83.35 308.34,-81.01 314.96,-89.28 318.68,-83.35"/>
</g>
<!-- Node7&#45;&gt;Node6 -->
<g id="edge7" class="edge">
<title>Node7&#45;&gt;Node6</title>
<path fill="none" stroke="midnightblue" d="M163.68,-123.48C189.81,-113.31 233.67,-96.26 263.39,-84.7"/>
<polygon fill="midnightblue" stroke="midnightblue" points="264.82,-87.9 272.88,-81.01 262.29,-81.37 264.82,-87.9"/>
</g>
<!-- Node8 -->
<g id="node8" class="node">
<title>Node8</title>
<g id="a_node8"><a xlink:href="datatype_8h.html" target="_top" xlink:title=" ">
<polygon fill="none" stroke="black" points="15.26,-62 15.26,-81 84.26,-81 84.26,-62 15.26,-62"/>
<text text-anchor="middle" x="49.76" y="-69" font-family="Helvetica,sans-Serif" font-size="10.00">datatype.h</text>
</a>
</g>
</g>
<!-- Node7&#45;&gt;Node8 -->
<g id="edge8" class="edge">
<title>Node7&#45;&gt;Node8</title>
<path fill="none" stroke="midnightblue" d="M128.58,-123.48C113.68,-113.84 89.21,-98.02 71.48,-86.55"/>
<polygon fill="midnightblue" stroke="midnightblue" points="73.21,-83.5 62.91,-81.01 69.41,-89.38 73.21,-83.5"/>
</g>
<!-- Node9 -->
<g id="node9" class="node">
<title>Node9</title>
<g id="a_node9"><a xlink:href="timestamp_8h.html" target="_top" xlink:title=" ">
<polygon fill="none" stroke="black" points="102.26,-62 102.26,-81 181.26,-81 181.26,-62 102.26,-62"/>
<text text-anchor="middle" x="141.76" y="-69" font-family="Helvetica,sans-Serif" font-size="10.00">timestamp.h</text>
</a>
</g>
</g>
<!-- Node7&#45;&gt;Node9 -->
<g id="edge9" class="edge">
<title>Node7&#45;&gt;Node9</title>
<path fill="none" stroke="midnightblue" d="M141.76,-123.48C141.76,-115.08 141.76,-101.98 141.76,-91.16"/>
<polygon fill="midnightblue" stroke="midnightblue" points="145.26,-91.01 141.76,-81.01 138.26,-91.01 145.26,-91.01"/>
</g>
<!-- Node9&#45;&gt;Node2 -->
<g id="edge10" class="edge">
<title>Node9&#45;&gt;Node2</title>
<path fill="none" stroke="midnightblue" d="M141.76,-61.98C141.76,-53.58 141.76,-40.48 141.76,-29.66"/>
<polygon fill="midnightblue" stroke="midnightblue" points="145.26,-29.51 141.76,-19.51 138.26,-29.51 145.26,-29.51"/>
</g>
<!-- Node10&#45;&gt;Node2 -->
<g id="edge13" class="edge">
<title>Node10&#45;&gt;Node2</title>
<path fill="none" stroke="midnightblue" d="M244.36,-123.24C233.65,-108.75 211.14,-79.09 189.76,-56 180.15,-45.63 168.62,-34.77 159.26,-26.32"/>
<polygon fill="midnightblue" stroke="midnightblue" points="161.5,-23.62 151.71,-19.58 156.84,-28.85 161.5,-23.62"/>
</g>
<!-- Node10&#45;&gt;Node6 -->
<g id="edge12" class="edge">
<title>Node10&#45;&gt;Node6</title>
<path fill="none" stroke="midnightblue" d="M257.06,-123.48C263.66,-114.55 274.19,-100.31 282.45,-89.14"/>
<polygon fill="midnightblue" stroke="midnightblue" points="285.33,-91.13 288.46,-81.01 279.7,-86.97 285.33,-91.13"/>
</g>
</g>
</svg>
