<?xml version="1.0" encoding="UTF-8" standalone="no"?>
<!DOCTYPE svg PUBLIC "-//W3C//DTD SVG 1.1//EN"
 "http://www.w3.org/Graphics/SVG/1.1/DTD/svg11.dtd">
<!-- Generated by graphviz version 2.43.0 (0)
 -->
<!-- Title: seerep&#45;hdf5/seerep&#45;hdf5&#45;fb Pages: 1 -->
<svg width="289pt" height="247pt"
 viewBox="0.00 0.00 289.00 247.00" xmlns="http://www.w3.org/2000/svg" xmlns:xlink="http://www.w3.org/1999/xlink">
<g id="graph0" class="graph" transform="scale(1 1) rotate(0) translate(4 243)">
<title>seerep&#45;hdf5/seerep&#45;hdf5&#45;fb</title>
<g id="clust1" class="cluster">
<title>clusterdir_30889ba962657f39570a54df2969fe23</title>
<g id="a_clust1"><a xlink:href="dir_30889ba962657f39570a54df2969fe23.html" target="_top" xlink:title="seerep&#45;hdf5">
<polygon fill="#edf0f7" stroke="#404040" stroke-dasharray="5,2" points="8,-8 8,-231 273,-231 273,-8 8,-8"/>
<text text-anchor="middle" x="140.5" y="-219" font-family="Helvetica,sans-Serif" font-size="10.00">seerep&#45;hdf5</text>
</a>
</g>
</g>
<g id="clust2" class="cluster">
<title>clusterdir_6bb75fc3b94ce9359d5f283199068234</title>
<g id="a_clust2"><a xlink:href="dir_6bb75fc3b94ce9359d5f283199068234.html" target="_top">
<polygon fill="#edf0f7" stroke="#404040" stroke-width="2" points="16,-80 16,-204 265,-204 265,-80 16,-80"/>
</a>
</g>
</g>
<!-- dir_f15a449f8c971246d04a126ff78c3595 -->
<g id="node1" class="node">
<title>dir_f15a449f8c971246d04a126ff78c3595</title>
<g id="a_node1"><a xlink:href="dir_f15a449f8c971246d04a126ff78c3595.html" target="_top" xlink:title="seerep&#45;hdf5&#45;core">
<polygon fill="#a2b4d6" stroke="red" points="150,-52 50,-52 50,-16 150,-16 150,-52"/>
<text text-anchor="middle" x="100" y="-31.5" font-family="Helvetica,sans-Serif" font-size="10.00">seerep&#45;hdf5&#45;core</text>
</a>
</g>
</g>
<!-- dir_6bb75fc3b94ce9359d5f283199068234 -->
<g id="node2" class="node">
<title>dir_6bb75fc3b94ce9359d5f283199068234</title>
<text text-anchor="middle" x="213" y="-175.5" font-family="Helvetica,sans-Serif" font-size="10.00">seerep&#45;hdf5&#45;fb</text>
</g>
<!-- dir_783e7353b5b78247996389fc63e9e4f2 -->
<g id="node3" class="node">
<title>dir_783e7353b5b78247996389fc63e9e4f2</title>
<g id="a_node3"><a xlink:href="dir_783e7353b5b78247996389fc63e9e4f2.html" target="_top" xlink:title="include">
<polygon fill="#a2b4d6" stroke="#404040" points="104,-124 50,-124 50,-88 104,-88 104,-124"/>
<text text-anchor="middle" x="77" y="-103.5" font-family="Helvetica,sans-Serif" font-size="10.00">include</text>
</a>
</g>
</g>
<!-- dir_783e7353b5b78247996389fc63e9e4f2&#45;&gt;dir_f15a449f8c971246d04a126ff78c3595 -->
<g id="edge1" class="edge">
<title>dir_783e7353b5b78247996389fc63e9e4f2&#45;&gt;dir_f15a449f8c971246d04a126ff78c3595</title>
<path fill="none" stroke="black" d="M82.69,-87.7C85.25,-79.9 88.33,-70.51 91.18,-61.83"/>
<polygon fill="black" stroke="black" points="94.58,-62.7 94.38,-52.1 87.93,-60.51 94.58,-62.7"/>
<g id="a_edge1&#45;headlabel"><a xlink:href="dir_000004_000024.html" target="_top" xlink:title="5">
<text text-anchor="middle" x="96.16" y="-64.5" font-family="Helvetica,sans-Serif" font-size="10.00">5</text>
</a>
</g>
</g>
<!-- dir_01e000442d983125af01a1efdaf6dcfd -->
<g id="node4" class="node">
<title>dir_01e000442d983125af01a1efdaf6dcfd</title>
<g id="a_node4"><a xlink:href="dir_01e000442d983125af01a1efdaf6dcfd.html" target="_top" xlink:title="src">
<polygon fill="#a2b4d6" stroke="#404040" points="150,-196 96,-196 96,-160 150,-160 150,-196"/>
<text text-anchor="middle" x="123" y="-175.5" font-family="Helvetica,sans-Serif" font-size="10.00">src</text>
</a>
</g>
</g>
<!-- dir_01e000442d983125af01a1efdaf6dcfd&#45;&gt;dir_f15a449f8c971246d04a126ff78c3595 -->
<g id="edge3" class="edge">
<title>dir_01e000442d983125af01a1efdaf6dcfd&#45;&gt;dir_f15a449f8c971246d04a126ff78c3595</title>
<path fill="none" stroke="black" d="M122.15,-159.69C120.97,-140.18 118.36,-107.59 113,-80 111.88,-74.21 110.34,-68.09 108.73,-62.3"/>
<polygon fill="black" stroke="black" points="111.98,-60.95 105.8,-52.35 105.27,-62.93 111.98,-60.95"/>
<g id="a_edge3&#45;headlabel"><a xlink:href="dir_000046_000024.html" target="_top" xlink:title="1">
<text text-anchor="middle" x="115.72" y="-61.09" font-family="Helvetica,sans-Serif" font-size="10.00">1</text>
</a>
</g>
</g>
<!-- dir_01e000442d983125af01a1efdaf6dcfd&#45;&gt;dir_783e7353b5b78247996389fc63e9e4f2 -->
<g id="edge2" class="edge">
<title>dir_01e000442d983125af01a1efdaf6dcfd&#45;&gt;dir_783e7353b5b78247996389fc63e9e4f2</title>
<path fill="none" stroke="black" d="M111.63,-159.7C106.28,-151.56 99.8,-141.69 93.89,-132.7"/>
<polygon fill="black" stroke="black" points="96.66,-130.54 88.24,-124.1 90.81,-134.38 96.66,-130.54"/>
<g id="a_edge2&#45;headlabel"><a xlink:href="dir_000046_000004.html" target="_top" xlink:title="5">
<text text-anchor="middle" x="101" y="-129.48" font-family="Helvetica,sans-Serif" font-size="10.00">5</text>
</a>
</g>
</g>
<!-- dir_d0eda4cce3881f4277253ac7c0176e6f -->
<g id="node5" class="node">
<title>dir_d0eda4cce3881f4277253ac7c0176e6f</title>
<g id="a_node5"><a xlink:href="dir_d0eda4cce3881f4277253ac7c0176e6f.html" target="_top" xlink:title="test">
<polygon fill="#a2b4d6" stroke="#404040" points="78,-196 24,-196 24,-160 78,-160 78,-196"/>
<text text-anchor="middle" x="51" y="-175.5" font-family="Helvetica,sans-Serif" font-size="10.00">test</text>
</a>
</g>
</g>
<!-- dir_d0eda4cce3881f4277253ac7c0176e6f&#45;&gt;dir_783e7353b5b78247996389fc63e9e4f2 -->
<g id="edge4" class="edge">
<title>dir_d0eda4cce3881f4277253ac7c0176e6f&#45;&gt;dir_783e7353b5b78247996389fc63e9e4f2</title>
<path fill="none" stroke="black" d="M57.43,-159.7C60.36,-151.81 63.89,-142.3 67.14,-133.55"/>
<polygon fill="black" stroke="black" points="70.45,-134.7 70.65,-124.1 63.88,-132.26 70.45,-134.7"/>
<g id="a_edge4&#45;headlabel"><a xlink:href="dir_000056_000004.html" target="_top" xlink:title="1">
<text text-anchor="middle" x="71.86" y="-136.56" font-family="Helvetica,sans-Serif" font-size="10.00">1</text>
</a>
</g>
</g>
</g>
</svg>
