<?xml version="1.0" encoding="UTF-8" standalone="no"?>
<!DOCTYPE svg PUBLIC "-//W3C//DTD SVG 1.1//EN"
 "http://www.w3.org/Graphics/SVG/1.1/DTD/svg11.dtd">
<!-- Generated by graphviz version 2.43.0 (0)
 -->
<!-- Title: seerep_ros/seerep_ros_comm Pages: 1 -->
<svg width="525pt" height="247pt"
 viewBox="0.00 0.00 525.00 247.00" xmlns="http://www.w3.org/2000/svg" xmlns:xlink="http://www.w3.org/1999/xlink">
<g id="graph0" class="graph" transform="scale(1 1) rotate(0) translate(4 243)">
<title>seerep_ros/seerep_ros_comm</title>
<g id="clust1" class="cluster">
<title>clusterdir_d6a4cf61b1a1a0b16b951b18af11c102</title>
<g id="a_clust1"><a xlink:href="dir_d6a4cf61b1a1a0b16b951b18af11c102.html" target="_top" xlink:title="seerep_ros">
<polygon fill="#edf0f7" stroke="#404040" stroke-dasharray="5,2" points="8,-8 8,-231 342,-231 342,-8 8,-8"/>
<text text-anchor="middle" x="175" y="-219" font-family="Helvetica,sans-Serif" font-size="10.00">seerep_ros</text>
</a>
</g>
</g>
<g id="clust2" class="cluster">
<title>clusterdir_efd1bbacac3e26a9f1e09ab8b13774ef</title>
<g id="a_clust2"><a xlink:href="dir_efd1bbacac3e26a9f1e09ab8b13774ef.html" target="_top">
<polygon fill="#edf0f7" stroke="#404040" stroke-width="2" points="140,-80 140,-204 334,-204 334,-80 140,-80"/>
</a>
</g>
</g>
<!-- dir_a38331664cfc6d29b6df33fcfd70b309 -->
<g id="node1" class="node">
<title>dir_a38331664cfc6d29b6df33fcfd70b309</title>
<g id="a_node1"><a xlink:href="dir_a38331664cfc6d29b6df33fcfd70b309.html" target="_top" xlink:title="seerep_ros_conversions_fb">
<polygon fill="#a2b4d6" stroke="red" points="164.5,-52 15.5,-52 15.5,-16 164.5,-16 164.5,-52"/>
<text text-anchor="middle" x="90" y="-31.5" font-family="Helvetica,sans-Serif" font-size="10.00">seerep_ros_conversions_fb</text>
</a>
</g>
</g>
<!-- dir_aead71a8f85e5c01d996758f7e2f2d90 -->
<g id="node2" class="node">
<title>dir_aead71a8f85e5c01d996758f7e2f2d90</title>
<g id="a_node2"><a xlink:href="dir_aead71a8f85e5c01d996758f7e2f2d90.html" target="_top" xlink:title="seerep_ros_conversions_pb">
<polygon fill="#a2b4d6" stroke="red" points="333.5,-52 182.5,-52 182.5,-16 333.5,-16 333.5,-52"/>
<text text-anchor="middle" x="258" y="-31.5" font-family="Helvetica,sans-Serif" font-size="10.00">seerep_ros_conversions_pb</text>
</a>
</g>
</g>
<!-- dir_efd1bbacac3e26a9f1e09ab8b13774ef -->
<g id="node3" class="node">
<title>dir_efd1bbacac3e26a9f1e09ab8b13774ef</title>
<text text-anchor="middle" x="273" y="-175.5" font-family="Helvetica,sans-Serif" font-size="10.00">seerep_ros_comm</text>
</g>
<!-- dir_c9d9ef9b0fb928406011a6e65e9194a6 -->
<g id="node4" class="node">
<title>dir_c9d9ef9b0fb928406011a6e65e9194a6</title>
<g id="a_node4"><a xlink:href="dir_c9d9ef9b0fb928406011a6e65e9194a6.html" target="_top" xlink:title="include">
<polygon fill="#a2b4d6" stroke="#404040" points="285,-124 231,-124 231,-88 285,-88 285,-124"/>
<text text-anchor="middle" x="258" y="-103.5" font-family="Helvetica,sans-Serif" font-size="10.00">include</text>
</a>
</g>
</g>
<!-- dir_c9d9ef9b0fb928406011a6e65e9194a6&#45;&gt;dir_a38331664cfc6d29b6df33fcfd70b309 -->
<g id="edge2" class="edge">
<title>dir_c9d9ef9b0fb928406011a6e65e9194a6&#45;&gt;dir_a38331664cfc6d29b6df33fcfd70b309</title>
<path fill="none" stroke="black" d="M230.63,-93.6C206.22,-83.42 169.86,-68.27 140.22,-55.93"/>
<polygon fill="black" stroke="black" points="141.44,-52.64 130.86,-52.03 138.75,-59.1 141.44,-52.64"/>
<g id="a_edge2&#45;headlabel"><a xlink:href="dir_000008_000039.html" target="_top" xlink:title="2">
<text text-anchor="middle" x="145.85" y="-48.9" font-family="Helvetica,sans-Serif" font-size="10.00">2</text>
</a>
</g>
</g>
<!-- dir_c9d9ef9b0fb928406011a6e65e9194a6&#45;&gt;dir_aead71a8f85e5c01d996758f7e2f2d90 -->
<g id="edge4" class="edge">
<title>dir_c9d9ef9b0fb928406011a6e65e9194a6&#45;&gt;dir_aead71a8f85e5c01d996758f7e2f2d90</title>
<path fill="none" stroke="black" d="M258,-87.7C258,-79.98 258,-70.71 258,-62.11"/>
<polygon fill="black" stroke="black" points="261.5,-62.1 258,-52.1 254.5,-62.1 261.5,-62.1"/>
<g id="a_edge4&#45;headlabel"><a xlink:href="dir_000008_000042.html" target="_top" xlink:title="1">
<text text-anchor="middle" x="264.34" y="-63.2" font-family="Helvetica,sans-Serif" font-size="10.00">1</text>
</a>
</g>
</g>
<!-- dir_c5a2e435828dd19b8513b20efbb5a3dc -->
<g id="node6" class="node">
<title>dir_c5a2e435828dd19b8513b20efbb5a3dc</title>
<g id="a_node6"><a xlink:href="dir_c5a2e435828dd19b8513b20efbb5a3dc.html" target="_top" xlink:title="seerep_hdf5">
<polygon fill="none" stroke="red" points="428.5,-52 351.5,-52 351.5,-16 428.5,-16 428.5,-52"/>
<text text-anchor="middle" x="390" y="-31.5" font-family="Helvetica,sans-Serif" font-size="10.00">seerep_hdf5</text>
</a>
</g>
</g>
<!-- dir_c9d9ef9b0fb928406011a6e65e9194a6&#45;&gt;dir_c5a2e435828dd19b8513b20efbb5a3dc -->
<g id="edge1" class="edge">
<title>dir_c9d9ef9b0fb928406011a6e65e9194a6&#45;&gt;dir_c5a2e435828dd19b8513b20efbb5a3dc</title>
<path fill="none" stroke="black" d="M285.03,-90.67C303.43,-80.91 328.12,-67.82 348.93,-56.78"/>
<polygon fill="black" stroke="black" points="350.69,-59.81 357.88,-52.03 347.41,-53.62 350.69,-59.81"/>
<g id="a_edge1&#45;headlabel"><a xlink:href="dir_000008_000024.html" target="_top" xlink:title="12">
<text text-anchor="middle" x="348.84" y="-61.5" font-family="Helvetica,sans-Serif" font-size="10.00">12</text>
</a>
</g>
</g>
<!-- dir_4c1d624259406ef709f5f794a0e422e7 -->
<g id="node7" class="node">
<title>dir_4c1d624259406ef709f5f794a0e422e7</title>
<g id="a_node7"><a xlink:href="dir_4c1d624259406ef709f5f794a0e422e7.html" target="_top" xlink:title="seerep_srv">
<polygon fill="none" stroke="red" points="517,-52 447,-52 447,-16 517,-16 517,-52"/>
<text text-anchor="middle" x="482" y="-31.5" font-family="Helvetica,sans-Serif" font-size="10.00">seerep_srv</text>
</a>
</g>
</g>
<!-- dir_c9d9ef9b0fb928406011a6e65e9194a6&#45;&gt;dir_4c1d624259406ef709f5f794a0e422e7 -->
<g id="edge3" class="edge">
<title>dir_c9d9ef9b0fb928406011a6e65e9194a6&#45;&gt;dir_4c1d624259406ef709f5f794a0e422e7</title>
<path fill="none" stroke="black" d="M285.05,-97.78C318.66,-88.65 377.92,-72.03 437.06,-52.2"/>
<polygon fill="black" stroke="black" points="438.2,-55.51 446.55,-48.98 435.96,-48.88 438.2,-55.51"/>
<g id="a_edge3&#45;headlabel"><a xlink:href="dir_000008_000047.html" target="_top" xlink:title="1">
<text text-anchor="middle" x="435.71" y="-56.85" font-family="Helvetica,sans-Serif" font-size="10.00">1</text>
</a>
</g>
</g>
<!-- dir_1050fb6e888d3f1d937796d3b6414545 -->
<g id="node5" class="node">
<title>dir_1050fb6e888d3f1d937796d3b6414545</title>
<g id="a_node5"><a xlink:href="dir_1050fb6e888d3f1d937796d3b6414545.html" target="_top" xlink:title="src">
<polygon fill="#a2b4d6" stroke="#404040" points="202,-196 148,-196 148,-160 202,-160 202,-196"/>
<text text-anchor="middle" x="175" y="-175.5" font-family="Helvetica,sans-Serif" font-size="10.00">src</text>
</a>
</g>
</g>
<!-- dir_1050fb6e888d3f1d937796d3b6414545&#45;&gt;dir_c9d9ef9b0fb928406011a6e65e9194a6 -->
<g id="edge5" class="edge">
<title>dir_1050fb6e888d3f1d937796d3b6414545&#45;&gt;dir_c9d9ef9b0fb928406011a6e65e9194a6</title>
<path fill="none" stroke="black" d="M195.52,-159.7C205.87,-150.97 218.59,-140.24 229.84,-130.75"/>
<polygon fill="black" stroke="black" points="232.33,-133.23 237.72,-124.1 227.82,-127.88 232.33,-133.23"/>
<g id="a_edge5&#45;headlabel"><a xlink:href="dir_000053_000008.html" target="_top" xlink:title="3">
<text text-anchor="middle" x="231.41" y="-135.21" font-family="Helvetica,sans-Serif" font-size="10.00">3</text>
</a>
</g>
</g>
</g>
</svg>
