<?xml version="1.0" encoding="UTF-8" standalone="no"?>
<!DOCTYPE svg PUBLIC "-//W3C//DTD SVG 1.1//EN"
 "http://www.w3.org/Graphics/SVG/1.1/DTD/svg11.dtd">
<!-- Generated by graphviz version 2.43.0 (0)
 -->
<!-- Title: seerep&#45;srv Pages: 1 -->
<svg width="342pt" height="276pt"
 viewBox="0.00 0.00 341.73 276.00" xmlns="http://www.w3.org/2000/svg" xmlns:xlink="http://www.w3.org/1999/xlink">
<g id="graph0" class="graph" transform="scale(1 1) rotate(0) translate(4 272)">
<title>seerep&#45;srv</title>
<g id="clust1" class="cluster">
<title>clusterdir_e21276b7625fb7e1aaf307b96396c1ce</title>
<g id="a_clust1"><a xlink:href="dir_e21276b7625fb7e1aaf307b96396c1ce.html" target="_top">
<polygon fill="#edf0f7" stroke="#404040" stroke-width="2" points="8,-64 8,-260 240,-260 240,-64 8,-64"/>
</a>
</g>
</g>
<!-- dir_e21276b7625fb7e1aaf307b96396c1ce -->
<g id="node1" class="node">
<title>dir_e21276b7625fb7e1aaf307b96396c1ce</title>
<text text-anchor="middle" x="186" y="-231.5" font-family="Helvetica,sans-Serif" font-size="10.00">seerep&#45;srv</text>
</g>
<!-- dir_2274cc8e251eea8113449d6addc9ef02 -->
<g id="node2" class="node">
<title>dir_2274cc8e251eea8113449d6addc9ef02</title>
<g id="a_node2"><a xlink:href="dir_2274cc8e251eea8113449d6addc9ef02.html" target="_top" xlink:title="seerep&#45;core">
<polygon fill="#a2b4d6" stroke="#404040" points="117,-108 43,-108 43,-72 117,-72 117,-108"/>
<text text-anchor="middle" x="80" y="-87.5" font-family="Helvetica,sans-Serif" font-size="10.00">seerep&#45;core</text>
</a>
</g>
</g>
<!-- dir_30889ba962657f39570a54df2969fe23 -->
<g id="node6" class="node">
<title>dir_30889ba962657f39570a54df2969fe23</title>
<g id="a_node6"><a xlink:href="dir_30889ba962657f39570a54df2969fe23.html" target="_top" xlink:title="seerep&#45;hdf5">
<polygon fill="none" stroke="red" points="182.5,-36 107.5,-36 107.5,0 182.5,0 182.5,-36"/>
<text text-anchor="middle" x="145" y="-15.5" font-family="Helvetica,sans-Serif" font-size="10.00">seerep&#45;hdf5</text>
</a>
</g>
</g>
<!-- dir_2274cc8e251eea8113449d6addc9ef02&#45;&gt;dir_30889ba962657f39570a54df2969fe23 -->
<g id="edge1" class="edge">
<title>dir_2274cc8e251eea8113449d6addc9ef02&#45;&gt;dir_30889ba962657f39570a54df2969fe23</title>
<path fill="none" stroke="black" d="M96.07,-71.7C103.94,-63.22 113.56,-52.86 122.17,-43.58"/>
<polygon fill="black" stroke="black" points="124.88,-45.81 129.12,-36.1 119.75,-41.05 124.88,-45.81"/>
<g id="a_edge1&#45;headlabel"><a xlink:href="dir_000017_000023.html" target="_top" xlink:title="9">
<text text-anchor="middle" x="124.51" y="-47.88" font-family="Helvetica,sans-Serif" font-size="10.00">9</text>
</a>
</g>
</g>
<!-- dir_d57c1a9472afbde6d830bd20e95226bb -->
<g id="node3" class="node">
<title>dir_d57c1a9472afbde6d830bd20e95226bb</title>
<g id="a_node3"><a xlink:href="dir_d57c1a9472afbde6d830bd20e95226bb.html" target="_top" xlink:title="seerep&#45;core&#45;fb">
<polygon fill="#a2b4d6" stroke="#404040" points="124,-180 36,-180 36,-144 124,-144 124,-180"/>
<text text-anchor="middle" x="80" y="-159.5" font-family="Helvetica,sans-Serif" font-size="10.00">seerep&#45;core&#45;fb</text>
</a>
</g>
</g>
<!-- dir_d57c1a9472afbde6d830bd20e95226bb&#45;&gt;dir_2274cc8e251eea8113449d6addc9ef02 -->
<g id="edge2" class="edge">
<title>dir_d57c1a9472afbde6d830bd20e95226bb&#45;&gt;dir_2274cc8e251eea8113449d6addc9ef02</title>
<path fill="none" stroke="black" d="M80,-143.7C80,-135.98 80,-126.71 80,-118.11"/>
<polygon fill="black" stroke="black" points="83.5,-118.1 80,-108.1 76.5,-118.1 83.5,-118.1"/>
<g id="a_edge2&#45;headlabel"><a xlink:href="dir_000019_000017.html" target="_top" xlink:title="6">
<text text-anchor="middle" x="86.34" y="-119.2" font-family="Helvetica,sans-Serif" font-size="10.00">6</text>
</a>
</g>
</g>
<!-- dir_d57c1a9472afbde6d830bd20e95226bb&#45;&gt;dir_30889ba962657f39570a54df2969fe23 -->
<g id="edge3" class="edge">
<title>dir_d57c1a9472afbde6d830bd20e95226bb&#45;&gt;dir_30889ba962657f39570a54df2969fe23</title>
<path fill="none" stroke="black" d="M99.16,-143.57C108.61,-133.96 119.37,-121.3 126,-108 135.67,-88.62 140.43,-64.47 142.77,-46.22"/>
<polygon fill="black" stroke="black" points="146.25,-46.56 143.88,-36.24 139.29,-45.79 146.25,-46.56"/>
<g id="a_edge3&#45;headlabel"><a xlink:href="dir_000019_000023.html" target="_top" xlink:title="4">
<text text-anchor="middle" x="148.67" y="-47.95" font-family="Helvetica,sans-Serif" font-size="10.00">4</text>
</a>
</g>
</g>
<!-- dir_d984a177aeb2f6654ab36b7461d7eb84 -->
<g id="node7" class="node">
<title>dir_d984a177aeb2f6654ab36b7461d7eb84</title>
<g id="a_node7"><a xlink:href="dir_d984a177aeb2f6654ab36b7461d7eb84.html" target="_top" xlink:title="seerep&#45;ros">
<polygon fill="none" stroke="red" points="316,-108 248,-108 248,-72 316,-72 316,-108"/>
<text text-anchor="middle" x="282" y="-87.5" font-family="Helvetica,sans-Serif" font-size="10.00">seerep&#45;ros</text>
</a>
</g>
</g>
<!-- dir_d57c1a9472afbde6d830bd20e95226bb&#45;&gt;dir_d984a177aeb2f6654ab36b7461d7eb84 -->
<g id="edge4" class="edge">
<title>dir_d57c1a9472afbde6d830bd20e95226bb&#45;&gt;dir_d984a177aeb2f6654ab36b7461d7eb84</title>
<path fill="none" stroke="black" d="M124.2,-146.78C163.04,-134.28 216.36,-117.09 238.23,-109.8"/>
<polygon fill="black" stroke="black" points="239.37,-113.11 247.69,-106.55 237.09,-106.49 239.37,-113.11"/>
<g id="a_edge4&#45;headlabel"><a xlink:href="dir_000019_000035.html" target="_top" xlink:title="1">
<text text-anchor="middle" x="236.89" y="-114.46" font-family="Helvetica,sans-Serif" font-size="10.00">1</text>
</a>
</g>
</g>
<!-- dir_49d75338f0d943d4fcaeab4a55592047 -->
<g id="node4" class="node">
<title>dir_49d75338f0d943d4fcaeab4a55592047</title>
<g id="a_node4"><a xlink:href="dir_49d75338f0d943d4fcaeab4a55592047.html" target="_top" xlink:title="seerep&#45;core&#45;pb">
<polygon fill="#a2b4d6" stroke="#404040" points="232,-180 142,-180 142,-144 232,-144 232,-180"/>
<text text-anchor="middle" x="187" y="-159.5" font-family="Helvetica,sans-Serif" font-size="10.00">seerep&#45;core&#45;pb</text>
</a>
</g>
</g>
<!-- dir_49d75338f0d943d4fcaeab4a55592047&#45;&gt;dir_2274cc8e251eea8113449d6addc9ef02 -->
<g id="edge6" class="edge">
<title>dir_49d75338f0d943d4fcaeab4a55592047&#45;&gt;dir_2274cc8e251eea8113449d6addc9ef02</title>
<path fill="none" stroke="black" d="M160.82,-143.88C146.96,-134.81 129.76,-123.55 114.79,-113.76"/>
<polygon fill="black" stroke="black" points="116.56,-110.74 106.28,-108.19 112.73,-116.59 116.56,-110.74"/>
<g id="a_edge6&#45;headlabel"><a xlink:href="dir_000021_000017.html" target="_top" xlink:title="3">
<text text-anchor="middle" x="121.12" y="-107.83" font-family="Helvetica,sans-Serif" font-size="10.00">3</text>
</a>
</g>
</g>
<!-- dir_49d75338f0d943d4fcaeab4a55592047&#45;&gt;dir_30889ba962657f39570a54df2969fe23 -->
<g id="edge5" class="edge">
<title>dir_49d75338f0d943d4fcaeab4a55592047&#45;&gt;dir_30889ba962657f39570a54df2969fe23</title>
<path fill="none" stroke="black" d="M232.11,-156.76C263.88,-151.15 304.29,-138.14 325,-108 336.08,-91.88 337.03,-79.41 325,-64 308.89,-43.36 240.65,-30.79 192.99,-24.36"/>
<polygon fill="black" stroke="black" points="193.22,-20.86 182.86,-23.04 192.32,-27.8 193.22,-20.86"/>
<g id="a_edge5&#45;headlabel"><a xlink:href="dir_000021_000023.html" target="_top" xlink:title="3">
<text text-anchor="middle" x="197.15" y="-16.01" font-family="Helvetica,sans-Serif" font-size="10.00">3</text>
</a>
</g>
</g>
<!-- dir_49d75338f0d943d4fcaeab4a55592047&#45;&gt;dir_d984a177aeb2f6654ab36b7461d7eb84 -->
<g id="edge7" class="edge">
<title>dir_49d75338f0d943d4fcaeab4a55592047&#45;&gt;dir_d984a177aeb2f6654ab36b7461d7eb84</title>
<path fill="none" stroke="black" d="M210.48,-143.7C222.56,-134.8 237.45,-123.82 250.52,-114.2"/>
<polygon fill="black" stroke="black" points="252.81,-116.85 258.79,-108.1 248.66,-111.22 252.81,-116.85"/>
<g id="a_edge7&#45;headlabel"><a xlink:href="dir_000021_000035.html" target="_top" xlink:title="1">
<text text-anchor="middle" x="251.6" y="-118.77" font-family="Helvetica,sans-Serif" font-size="10.00">1</text>
</a>
</g>
</g>
<!-- dir_b91ad862d882f376e4ba744575a2392c -->
<g id="node5" class="node">
<title>dir_b91ad862d882f376e4ba744575a2392c</title>
<g id="a_node5"><a xlink:href="dir_b91ad862d882f376e4ba744575a2392c.html" target="_top" xlink:title="seerep&#45;server">
<polygon fill="#a2b4d6" stroke="#404040" points="122,-252 38,-252 38,-216 122,-216 122,-252"/>
<text text-anchor="middle" x="80" y="-231.5" font-family="Helvetica,sans-Serif" font-size="10.00">seerep&#45;server</text>
</a>
</g>
</g>
<!-- dir_b91ad862d882f376e4ba744575a2392c&#45;&gt;dir_2274cc8e251eea8113449d6addc9ef02 -->
<g id="edge9" class="edge">
<title>dir_b91ad862d882f376e4ba744575a2392c&#45;&gt;dir_2274cc8e251eea8113449d6addc9ef02</title>
<path fill="none" stroke="black" d="M55.52,-215.77C44.6,-206.56 32.88,-194.19 27,-180 20.88,-165.22 20.88,-158.78 27,-144 31.54,-133.03 39.59,-123.14 48.05,-114.96"/>
<polygon fill="black" stroke="black" points="50.44,-117.53 55.52,-108.23 45.75,-112.33 50.44,-117.53"/>
<g id="a_edge9&#45;headlabel"><a xlink:href="dir_000036_000017.html" target="_top" xlink:title="12">
<text text-anchor="middle" x="49.67" y="-119.54" font-family="Helvetica,sans-Serif" font-size="10.00">12</text>
</a>
</g>
</g>
<!-- dir_b91ad862d882f376e4ba744575a2392c&#45;&gt;dir_d57c1a9472afbde6d830bd20e95226bb -->
<g id="edge8" class="edge">
<title>dir_b91ad862d882f376e4ba744575a2392c&#45;&gt;dir_d57c1a9472afbde6d830bd20e95226bb</title>
<path fill="none" stroke="black" d="M80,-215.7C80,-207.98 80,-198.71 80,-190.11"/>
<polygon fill="black" stroke="black" points="83.5,-190.1 80,-180.1 76.5,-190.1 83.5,-190.1"/>
<g id="a_edge8&#45;headlabel"><a xlink:href="dir_000036_000019.html" target="_top" xlink:title="5">
<text text-anchor="middle" x="86.34" y="-191.2" font-family="Helvetica,sans-Serif" font-size="10.00">5</text>
</a>
</g>
</g>
<!-- dir_b91ad862d882f376e4ba744575a2392c&#45;&gt;dir_49d75338f0d943d4fcaeab4a55592047 -->
<g id="edge10" class="edge">
<title>dir_b91ad862d882f376e4ba744575a2392c&#45;&gt;dir_49d75338f0d943d4fcaeab4a55592047</title>
<path fill="none" stroke="black" d="M106.18,-215.88C120.04,-206.81 137.24,-195.55 152.21,-185.76"/>
<polygon fill="black" stroke="black" points="154.27,-188.59 160.72,-180.19 150.44,-182.74 154.27,-188.59"/>
<g id="a_edge10&#45;headlabel"><a xlink:href="dir_000036_000021.html" target="_top" xlink:title="3">
<text text-anchor="middle" x="152.82" y="-190.44" font-family="Helvetica,sans-Serif" font-size="10.00">3</text>
</a>
</g>
</g>
</g>
</svg>
