<?xml version="1.0" encoding="UTF-8" standalone="no"?>
<!DOCTYPE svg PUBLIC "-//W3C//DTD SVG 1.1//EN"
 "http://www.w3.org/Graphics/SVG/1.1/DTD/svg11.dtd">
<!-- Generated by graphviz version 2.43.0 (0)
 -->
<!-- Title: seerep_srv/seerep_core_pb Pages: 1 -->
<svg width="387pt" height="247pt"
 viewBox="0.00 0.00 387.00 247.00" xmlns="http://www.w3.org/2000/svg" xmlns:xlink="http://www.w3.org/1999/xlink">
<g id="graph0" class="graph" transform="scale(1 1) rotate(0) translate(4 243)">
<title>seerep_srv/seerep_core_pb</title>
<g id="clust1" class="cluster">
<title>clusterdir_4c1d624259406ef709f5f794a0e422e7</title>
<g id="a_clust1"><a xlink:href="dir_4c1d624259406ef709f5f794a0e422e7.html" target="_top" xlink:title="seerep_srv">
<polygon fill="#edf0f7" stroke="#404040" stroke-dasharray="5,2" points="8,-8 8,-231 205,-231 205,-8 8,-8"/>
<text text-anchor="middle" x="106.5" y="-219" font-family="Helvetica,sans-Serif" font-size="10.00">seerep_srv</text>
</a>
</g>
</g>
<g id="clust2" class="cluster">
<title>clusterdir_74115c04e5cf1138f04a60c3c92a8eea</title>
<g id="a_clust2"><a xlink:href="dir_74115c04e5cf1138f04a60c3c92a8eea.html" target="_top">
<polygon fill="#edf0f7" stroke="#404040" stroke-width="2" points="16,-80 16,-204 197,-204 197,-80 16,-80"/>
</a>
</g>
</g>
<!-- dir_9dec6d1a64a77477405e664f18c6f305 -->
<g id="node1" class="node">
<title>dir_9dec6d1a64a77477405e664f18c6f305</title>
<g id="a_node1"><a xlink:href="dir_9dec6d1a64a77477405e664f18c6f305.html" target="_top" xlink:title="seerep_core">
<polygon fill="#a2b4d6" stroke="red" points="195,-52 119,-52 119,-16 195,-16 195,-52"/>
<text text-anchor="middle" x="157" y="-31.5" font-family="Helvetica,sans-Serif" font-size="10.00">seerep_core</text>
</a>
</g>
</g>
<!-- dir_74115c04e5cf1138f04a60c3c92a8eea -->
<g id="node2" class="node">
<title>dir_74115c04e5cf1138f04a60c3c92a8eea</title>
<text text-anchor="middle" x="143" y="-175.5" font-family="Helvetica,sans-Serif" font-size="10.00">seerep_core_pb</text>
</g>
<!-- dir_af24216a5f746bdce477c1b15e038d88 -->
<g id="node3" class="node">
<title>dir_af24216a5f746bdce477c1b15e038d88</title>
<g id="a_node3"><a xlink:href="dir_af24216a5f746bdce477c1b15e038d88.html" target="_top" xlink:title="include">
<polygon fill="#a2b4d6" stroke="#404040" points="186,-124 132,-124 132,-88 186,-88 186,-124"/>
<text text-anchor="middle" x="159" y="-103.5" font-family="Helvetica,sans-Serif" font-size="10.00">include</text>
</a>
</g>
</g>
<!-- dir_af24216a5f746bdce477c1b15e038d88&#45;&gt;dir_9dec6d1a64a77477405e664f18c6f305 -->
<g id="edge1" class="edge">
<title>dir_af24216a5f746bdce477c1b15e038d88&#45;&gt;dir_9dec6d1a64a77477405e664f18c6f305</title>
<path fill="none" stroke="black" d="M158.51,-87.7C158.29,-79.98 158.02,-70.71 157.77,-62.11"/>
<polygon fill="black" stroke="black" points="161.27,-62 157.49,-52.1 154.28,-62.2 161.27,-62"/>
<g id="a_edge1&#45;headlabel"><a xlink:href="dir_000013_000018.html" target="_top" xlink:title="4">
<text text-anchor="middle" x="164.21" y="-63.01" font-family="Helvetica,sans-Serif" font-size="10.00">4</text>
</a>
</g>
</g>
<!-- dir_c5a2e435828dd19b8513b20efbb5a3dc -->
<g id="node5" class="node">
<title>dir_c5a2e435828dd19b8513b20efbb5a3dc</title>
<g id="a_node5"><a xlink:href="dir_c5a2e435828dd19b8513b20efbb5a3dc.html" target="_top" xlink:title="seerep_hdf5">
<polygon fill="none" stroke="red" points="290.5,-52 213.5,-52 213.5,-16 290.5,-16 290.5,-52"/>
<text text-anchor="middle" x="252" y="-31.5" font-family="Helvetica,sans-Serif" font-size="10.00">seerep_hdf5</text>
</a>
</g>
</g>
<!-- dir_af24216a5f746bdce477c1b15e038d88&#45;&gt;dir_c5a2e435828dd19b8513b20efbb5a3dc -->
<g id="edge2" class="edge">
<title>dir_af24216a5f746bdce477c1b15e038d88&#45;&gt;dir_c5a2e435828dd19b8513b20efbb5a3dc</title>
<path fill="none" stroke="black" d="M181.99,-87.7C193.81,-78.8 208.39,-67.82 221.18,-58.2"/>
<polygon fill="black" stroke="black" points="223.39,-60.91 229.28,-52.1 219.18,-55.32 223.39,-60.91"/>
<g id="a_edge2&#45;headlabel"><a xlink:href="dir_000013_000024.html" target="_top" xlink:title="3">
<text text-anchor="middle" x="222.23" y="-62.84" font-family="Helvetica,sans-Serif" font-size="10.00">3</text>
</a>
</g>
</g>
<!-- dir_d6a4cf61b1a1a0b16b951b18af11c102 -->
<g id="node6" class="node">
<title>dir_d6a4cf61b1a1a0b16b951b18af11c102</title>
<g id="a_node6"><a xlink:href="dir_d6a4cf61b1a1a0b16b951b18af11c102.html" target="_top" xlink:title="seerep_ros">
<polygon fill="none" stroke="red" points="379,-52 309,-52 309,-16 379,-16 379,-52"/>
<text text-anchor="middle" x="344" y="-31.5" font-family="Helvetica,sans-Serif" font-size="10.00">seerep_ros</text>
</a>
</g>
</g>
<!-- dir_af24216a5f746bdce477c1b15e038d88&#45;&gt;dir_d6a4cf61b1a1a0b16b951b18af11c102 -->
<g id="edge3" class="edge">
<title>dir_af24216a5f746bdce477c1b15e038d88&#45;&gt;dir_d6a4cf61b1a1a0b16b951b18af11c102</title>
<path fill="none" stroke="black" d="M186.06,-94.91C212.63,-84.99 254.56,-69.28 299.6,-52.14"/>
<polygon fill="black" stroke="black" points="300.85,-55.41 308.95,-48.58 298.36,-48.87 300.85,-55.41"/>
<g id="a_edge3&#45;headlabel"><a xlink:href="dir_000013_000036.html" target="_top" xlink:title="1">
<text text-anchor="middle" x="298.5" y="-56.84" font-family="Helvetica,sans-Serif" font-size="10.00">1</text>
</a>
</g>
</g>
<!-- dir_a98e1755c2657b72a628381bdf626926 -->
<g id="node4" class="node">
<title>dir_a98e1755c2657b72a628381bdf626926</title>
<g id="a_node4"><a xlink:href="dir_a98e1755c2657b72a628381bdf626926.html" target="_top" xlink:title="src">
<polygon fill="#a2b4d6" stroke="#404040" points="78,-196 24,-196 24,-160 78,-160 78,-196"/>
<text text-anchor="middle" x="51" y="-175.5" font-family="Helvetica,sans-Serif" font-size="10.00">src</text>
</a>
</g>
</g>
<!-- dir_a98e1755c2657b72a628381bdf626926&#45;&gt;dir_af24216a5f746bdce477c1b15e038d88 -->
<g id="edge4" class="edge">
<title>dir_a98e1755c2657b72a628381bdf626926&#45;&gt;dir_af24216a5f746bdce477c1b15e038d88</title>
<path fill="none" stroke="black" d="M77.42,-159.88C91.41,-150.81 108.78,-139.55 123.89,-129.76"/>
<polygon fill="black" stroke="black" points="125.99,-132.57 132.48,-124.19 122.18,-126.69 125.99,-132.57"/>
<g id="a_edge4&#45;headlabel"><a xlink:href="dir_000058_000013.html" target="_top" xlink:title="5">
<text text-anchor="middle" x="124.52" y="-134.4" font-family="Helvetica,sans-Serif" font-size="10.00">5</text>
</a>
</g>
</g>
</g>
</svg>
