<?xml version="1.0" encoding="UTF-8" standalone="no"?>
<!DOCTYPE svg PUBLIC "-//W3C//DTD SVG 1.1//EN"
 "http://www.w3.org/Graphics/SVG/1.1/DTD/svg11.dtd">
<!-- Generated by graphviz version 2.43.0 (0)
 -->
<!-- Title: seerep_hdf5 Pages: 1 -->
<svg width="567pt" height="204pt"
 viewBox="0.00 0.00 567.00 204.00" xmlns="http://www.w3.org/2000/svg" xmlns:xlink="http://www.w3.org/1999/xlink">
<g id="graph0" class="graph" transform="scale(1 1) rotate(0) translate(4 200)">
<title>seerep_hdf5</title>
<g id="clust1" class="cluster">
<title>clusterdir_c5a2e435828dd19b8513b20efbb5a3dc</title>
<g id="a_clust1"><a xlink:href="dir_c5a2e435828dd19b8513b20efbb5a3dc.html" target="_top">
<polygon fill="#edf0f7" stroke="#404040" stroke-width="2" points="8,-64 8,-188 551,-188 551,-64 8,-64"/>
</a>
</g>
</g>
<!-- dir_c5a2e435828dd19b8513b20efbb5a3dc -->
<g id="node1" class="node">
<title>dir_c5a2e435828dd19b8513b20efbb5a3dc</title>
<text text-anchor="middle" x="504" y="-159.5" font-family="Helvetica,sans-Serif" font-size="10.00">seerep_hdf5</text>
</g>
<!-- dir_2260564d026ce3b205f3c141137e03fa -->
<g id="node2" class="node">
<title>dir_2260564d026ce3b205f3c141137e03fa</title>
<g id="a_node2"><a xlink:href="dir_2260564d026ce3b205f3c141137e03fa.html" target="_top" xlink:title="seerep_hdf5_core">
<polygon fill="#a2b4d6" stroke="#404040" points="285.5,-108 182.5,-108 182.5,-72 285.5,-72 285.5,-108"/>
<text text-anchor="middle" x="234" y="-87.5" font-family="Helvetica,sans-Serif" font-size="10.00">seerep_hdf5_core</text>
</a>
</g>
</g>
<!-- dir_41d580612324f2796c45edc35fd01b58 -->
<g id="node7" class="node">
<title>dir_41d580612324f2796c45edc35fd01b58</title>
<g id="a_node7"><a xlink:href="dir_41d580612324f2796c45edc35fd01b58.html" target="_top" xlink:title="seerep_msgs">
<polygon fill="none" stroke="red" points="274.5,-36 193.5,-36 193.5,0 274.5,0 274.5,-36"/>
<text text-anchor="middle" x="234" y="-15.5" font-family="Helvetica,sans-Serif" font-size="10.00">seerep_msgs</text>
</a>
</g>
</g>
<!-- dir_2260564d026ce3b205f3c141137e03fa&#45;&gt;dir_41d580612324f2796c45edc35fd01b58 -->
<g id="edge1" class="edge">
<title>dir_2260564d026ce3b205f3c141137e03fa&#45;&gt;dir_41d580612324f2796c45edc35fd01b58</title>
<path fill="none" stroke="black" d="M234,-71.7C234,-63.98 234,-54.71 234,-46.11"/>
<polygon fill="black" stroke="black" points="237.5,-46.1 234,-36.1 230.5,-46.1 237.5,-46.1"/>
<g id="a_edge1&#45;headlabel"><a xlink:href="dir_000025_000035.html" target="_top" xlink:title="2">
<text text-anchor="middle" x="240.34" y="-47.2" font-family="Helvetica,sans-Serif" font-size="10.00">2</text>
</a>
</g>
</g>
<!-- dir_747270db957af21d267969cb05a5cf75 -->
<g id="node3" class="node">
<title>dir_747270db957af21d267969cb05a5cf75</title>
<g id="a_node3"><a xlink:href="dir_747270db957af21d267969cb05a5cf75.html" target="_top" xlink:title="seerep_hdf5_fb">
<polygon fill="#a2b4d6" stroke="#404040" points="447,-180 355,-180 355,-144 447,-144 447,-180"/>
<text text-anchor="middle" x="401" y="-159.5" font-family="Helvetica,sans-Serif" font-size="10.00">seerep_hdf5_fb</text>
</a>
</g>
</g>
<!-- dir_747270db957af21d267969cb05a5cf75&#45;&gt;dir_2260564d026ce3b205f3c141137e03fa -->
<g id="edge2" class="edge">
<title>dir_747270db957af21d267969cb05a5cf75&#45;&gt;dir_2260564d026ce3b205f3c141137e03fa</title>
<path fill="none" stroke="black" d="M360.15,-143.88C337.22,-134.26 308.42,-122.19 284.13,-112.01"/>
<polygon fill="black" stroke="black" points="285.3,-108.71 274.72,-108.07 282.59,-115.16 285.3,-108.71"/>
<g id="a_edge2&#45;headlabel"><a xlink:href="dir_000027_000025.html" target="_top" xlink:title="6">
<text text-anchor="middle" x="289.71" y="-104.98" font-family="Helvetica,sans-Serif" font-size="10.00">6</text>
</a>
</g>
</g>
<!-- dir_ceb0044ced9ad44a5383896b4074d025 -->
<g id="node4" class="node">
<title>dir_ceb0044ced9ad44a5383896b4074d025</title>
<g id="a_node4"><a xlink:href="dir_ceb0044ced9ad44a5383896b4074d025.html" target="_top" xlink:title="seerep_hdf5_pb">
<polygon fill="#a2b4d6" stroke="#404040" points="337,-180 243,-180 243,-144 337,-144 337,-180"/>
<text text-anchor="middle" x="290" y="-159.5" font-family="Helvetica,sans-Serif" font-size="10.00">seerep_hdf5_pb</text>
</a>
</g>
</g>
<!-- dir_ceb0044ced9ad44a5383896b4074d025&#45;&gt;dir_2260564d026ce3b205f3c141137e03fa -->
<g id="edge3" class="edge">
<title>dir_ceb0044ced9ad44a5383896b4074d025&#45;&gt;dir_2260564d026ce3b205f3c141137e03fa</title>
<path fill="none" stroke="black" d="M276.16,-143.7C269.51,-135.39 261.42,-125.28 254.11,-116.14"/>
<polygon fill="black" stroke="black" points="256.66,-113.73 247.68,-108.1 251.2,-118.1 256.66,-113.73"/>
<g id="a_edge3&#45;headlabel"><a xlink:href="dir_000029_000025.html" target="_top" xlink:title="4">
<text text-anchor="middle" x="261.13" y="-112.26" font-family="Helvetica,sans-Serif" font-size="10.00">4</text>
</a>
</g>
</g>
<!-- dir_6097e243ad4ab87ed9f5ed374662cf5f -->
<g id="node5" class="node">
<title>dir_6097e243ad4ab87ed9f5ed374662cf5f</title>
<g id="a_node5"><a xlink:href="dir_6097e243ad4ab87ed9f5ed374662cf5f.html" target="_top" xlink:title="seerep_hdf5_py">
<polygon fill="#a2b4d6" stroke="#404040" points="225,-180 131,-180 131,-144 225,-144 225,-180"/>
<text text-anchor="middle" x="178" y="-159.5" font-family="Helvetica,sans-Serif" font-size="10.00">seerep_hdf5_py</text>
</a>
</g>
</g>
<!-- dir_6097e243ad4ab87ed9f5ed374662cf5f&#45;&gt;dir_2260564d026ce3b205f3c141137e03fa -->
<g id="edge4" class="edge">
<title>dir_6097e243ad4ab87ed9f5ed374662cf5f&#45;&gt;dir_2260564d026ce3b205f3c141137e03fa</title>
<path fill="none" stroke="black" d="M191.84,-143.7C198.49,-135.39 206.58,-125.28 213.89,-116.14"/>
<polygon fill="black" stroke="black" points="216.8,-118.1 220.32,-108.1 211.34,-113.73 216.8,-118.1"/>
<g id="a_edge4&#45;headlabel"><a xlink:href="dir_000031_000025.html" target="_top" xlink:title="4">
<text text-anchor="middle" x="216.77" y="-120.18" font-family="Helvetica,sans-Serif" font-size="10.00">4</text>
</a>
</g>
</g>
<!-- dir_b38ba2d22407abad545501adedda3b7e -->
<g id="node6" class="node">
<title>dir_b38ba2d22407abad545501adedda3b7e</title>
<g id="a_node6"><a xlink:href="dir_b38ba2d22407abad545501adedda3b7e.html" target="_top" xlink:title="seerep_hdf5_ros">
<polygon fill="#a2b4d6" stroke="#404040" points="112.5,-180 15.5,-180 15.5,-144 112.5,-144 112.5,-180"/>
<text text-anchor="middle" x="64" y="-159.5" font-family="Helvetica,sans-Serif" font-size="10.00">seerep_hdf5_ros</text>
</a>
</g>
</g>
<!-- dir_b38ba2d22407abad545501adedda3b7e&#45;&gt;dir_2260564d026ce3b205f3c141137e03fa -->
<g id="edge5" class="edge">
<title>dir_b38ba2d22407abad545501adedda3b7e&#45;&gt;dir_2260564d026ce3b205f3c141137e03fa</title>
<path fill="none" stroke="black" d="M105.59,-143.88C129.03,-134.22 158.5,-122.09 183.3,-111.88"/>
<polygon fill="black" stroke="black" points="184.63,-115.11 192.55,-108.07 181.97,-108.64 184.63,-115.11"/>
<g id="a_edge5&#45;headlabel"><a xlink:href="dir_000033_000025.html" target="_top" xlink:title="2">
<text text-anchor="middle" x="182.39" y="-116.61" font-family="Helvetica,sans-Serif" font-size="10.00">2</text>
</a>
</g>
</g>
</g>
</svg>
