<?xml version="1.0" encoding="UTF-8" standalone="no"?>
<!DOCTYPE svg PUBLIC "-//W3C//DTD SVG 1.1//EN"
 "http://www.w3.org/Graphics/SVG/1.1/DTD/svg11.dtd">
<!-- Generated by graphviz version 2.43.0 (0)
 -->
<!-- Title: seerep_srv/seerep_core_fb Pages: 1 -->
<svg width="386pt" height="247pt"
 viewBox="0.00 0.00 386.00 247.00" xmlns="http://www.w3.org/2000/svg" xmlns:xlink="http://www.w3.org/1999/xlink">
<g id="graph0" class="graph" transform="scale(1 1) rotate(0) translate(4 243)">
<title>seerep_srv/seerep_core_fb</title>
<g id="clust1" class="cluster">
<title>clusterdir_4c1d624259406ef709f5f794a0e422e7</title>
<g id="a_clust1"><a xlink:href="dir_4c1d624259406ef709f5f794a0e422e7.html" target="_top" xlink:title="seerep_srv">
<polygon fill="#edf0f7" stroke="#404040" stroke-dasharray="5,2" points="8,-8 8,-231 204,-231 204,-8 8,-8"/>
<text text-anchor="middle" x="106" y="-219" font-family="Helvetica,sans-Serif" font-size="10.00">seerep_srv</text>
</a>
</g>
</g>
<g id="clust2" class="cluster">
<title>clusterdir_bd047d062e03adc8f0d695f2ad65da3c</title>
<g id="a_clust2"><a xlink:href="dir_bd047d062e03adc8f0d695f2ad65da3c.html" target="_top">
<polygon fill="#edf0f7" stroke="#404040" stroke-width="2" points="16,-80 16,-204 196,-204 196,-80 16,-80"/>
</a>
</g>
</g>
<!-- dir_9dec6d1a64a77477405e664f18c6f305 -->
<g id="node1" class="node">
<title>dir_9dec6d1a64a77477405e664f18c6f305</title>
<g id="a_node1"><a xlink:href="dir_9dec6d1a64a77477405e664f18c6f305.html" target="_top" xlink:title="seerep_core">
<polygon fill="#a2b4d6" stroke="red" points="194,-52 118,-52 118,-16 194,-16 194,-52"/>
<text text-anchor="middle" x="156" y="-31.5" font-family="Helvetica,sans-Serif" font-size="10.00">seerep_core</text>
</a>
</g>
</g>
<!-- dir_bd047d062e03adc8f0d695f2ad65da3c -->
<g id="node2" class="node">
<title>dir_bd047d062e03adc8f0d695f2ad65da3c</title>
<text text-anchor="middle" x="142" y="-175.5" font-family="Helvetica,sans-Serif" font-size="10.00">seerep_core_fb</text>
</g>
<!-- dir_078eb151ab9049684bc4a69dfe30bd7f -->
<g id="node3" class="node">
<title>dir_078eb151ab9049684bc4a69dfe30bd7f</title>
<g id="a_node3"><a xlink:href="dir_078eb151ab9049684bc4a69dfe30bd7f.html" target="_top" xlink:title="include">
<polygon fill="#a2b4d6" stroke="#404040" points="185,-124 131,-124 131,-88 185,-88 185,-124"/>
<text text-anchor="middle" x="158" y="-103.5" font-family="Helvetica,sans-Serif" font-size="10.00">include</text>
</a>
</g>
</g>
<!-- dir_078eb151ab9049684bc4a69dfe30bd7f&#45;&gt;dir_9dec6d1a64a77477405e664f18c6f305 -->
<g id="edge1" class="edge">
<title>dir_078eb151ab9049684bc4a69dfe30bd7f&#45;&gt;dir_9dec6d1a64a77477405e664f18c6f305</title>
<path fill="none" stroke="black" d="M157.51,-87.7C157.29,-79.98 157.02,-70.71 156.77,-62.11"/>
<polygon fill="black" stroke="black" points="160.27,-62 156.49,-52.1 153.28,-62.2 160.27,-62"/>
<g id="a_edge1&#45;headlabel"><a xlink:href="dir_000012_000018.html" target="_top" xlink:title="8">
<text text-anchor="middle" x="163.21" y="-63.01" font-family="Helvetica,sans-Serif" font-size="10.00">8</text>
</a>
</g>
</g>
<!-- dir_c5a2e435828dd19b8513b20efbb5a3dc -->
<g id="node5" class="node">
<title>dir_c5a2e435828dd19b8513b20efbb5a3dc</title>
<g id="a_node5"><a xlink:href="dir_c5a2e435828dd19b8513b20efbb5a3dc.html" target="_top" xlink:title="seerep_hdf5">
<polygon fill="none" stroke="red" points="289.5,-52 212.5,-52 212.5,-16 289.5,-16 289.5,-52"/>
<text text-anchor="middle" x="251" y="-31.5" font-family="Helvetica,sans-Serif" font-size="10.00">seerep_hdf5</text>
</a>
</g>
</g>
<!-- dir_078eb151ab9049684bc4a69dfe30bd7f&#45;&gt;dir_c5a2e435828dd19b8513b20efbb5a3dc -->
<g id="edge2" class="edge">
<title>dir_078eb151ab9049684bc4a69dfe30bd7f&#45;&gt;dir_c5a2e435828dd19b8513b20efbb5a3dc</title>
<path fill="none" stroke="black" d="M180.99,-87.7C192.81,-78.8 207.39,-67.82 220.18,-58.2"/>
<polygon fill="black" stroke="black" points="222.39,-60.91 228.28,-52.1 218.18,-55.32 222.39,-60.91"/>
<g id="a_edge2&#45;headlabel"><a xlink:href="dir_000012_000024.html" target="_top" xlink:title="4">
<text text-anchor="middle" x="221.23" y="-62.84" font-family="Helvetica,sans-Serif" font-size="10.00">4</text>
</a>
</g>
</g>
<!-- dir_d6a4cf61b1a1a0b16b951b18af11c102 -->
<g id="node6" class="node">
<title>dir_d6a4cf61b1a1a0b16b951b18af11c102</title>
<g id="a_node6"><a xlink:href="dir_d6a4cf61b1a1a0b16b951b18af11c102.html" target="_top" xlink:title="seerep_ros">
<polygon fill="none" stroke="red" points="378,-52 308,-52 308,-16 378,-16 378,-52"/>
<text text-anchor="middle" x="343" y="-31.5" font-family="Helvetica,sans-Serif" font-size="10.00">seerep_ros</text>
</a>
</g>
</g>
<!-- dir_078eb151ab9049684bc4a69dfe30bd7f&#45;&gt;dir_d6a4cf61b1a1a0b16b951b18af11c102 -->
<g id="edge3" class="edge">
<title>dir_078eb151ab9049684bc4a69dfe30bd7f&#45;&gt;dir_d6a4cf61b1a1a0b16b951b18af11c102</title>
<path fill="none" stroke="black" d="M185.06,-94.91C211.63,-84.99 253.56,-69.28 298.6,-52.14"/>
<polygon fill="black" stroke="black" points="299.85,-55.41 307.95,-48.58 297.36,-48.87 299.85,-55.41"/>
<g id="a_edge3&#45;headlabel"><a xlink:href="dir_000012_000036.html" target="_top" xlink:title="1">
<text text-anchor="middle" x="297.5" y="-56.84" font-family="Helvetica,sans-Serif" font-size="10.00">1</text>
</a>
</g>
</g>
<!-- dir_8279d1ca0f3a2d9ffb398849b022bb6d -->
<g id="node4" class="node">
<title>dir_8279d1ca0f3a2d9ffb398849b022bb6d</title>
<g id="a_node4"><a xlink:href="dir_8279d1ca0f3a2d9ffb398849b022bb6d.html" target="_top" xlink:title="src">
<polygon fill="#a2b4d6" stroke="#404040" points="78,-196 24,-196 24,-160 78,-160 78,-196"/>
<text text-anchor="middle" x="51" y="-175.5" font-family="Helvetica,sans-Serif" font-size="10.00">src</text>
</a>
</g>
</g>
<!-- dir_8279d1ca0f3a2d9ffb398849b022bb6d&#45;&gt;dir_078eb151ab9049684bc4a69dfe30bd7f -->
<g id="edge4" class="edge">
<title>dir_8279d1ca0f3a2d9ffb398849b022bb6d&#45;&gt;dir_078eb151ab9049684bc4a69dfe30bd7f</title>
<path fill="none" stroke="black" d="M77.18,-159.88C91.04,-150.81 108.24,-139.55 123.21,-129.76"/>
<polygon fill="black" stroke="black" points="125.27,-132.59 131.72,-124.19 121.44,-126.74 125.27,-132.59"/>
<g id="a_edge4&#45;headlabel"><a xlink:href="dir_000057_000012.html" target="_top" xlink:title="8">
<text text-anchor="middle" x="123.82" y="-134.44" font-family="Helvetica,sans-Serif" font-size="10.00">8</text>
</a>
</g>
</g>
</g>
</svg>
