<?xml version="1.0" encoding="UTF-8" standalone="no"?>
<!DOCTYPE svg PUBLIC "-//W3C//DTD SVG 1.1//EN"
 "http://www.w3.org/Graphics/SVG/1.1/DTD/svg11.dtd">
<!-- Generated by graphviz version 2.43.0 (0)
 -->
<!-- Title: seerep_ros/seerep_ros_comm/include/seerep_ros_comm Pages: 1 -->
<svg width="509pt" height="151pt"
 viewBox="0.00 0.00 508.50 151.00" xmlns="http://www.w3.org/2000/svg" xmlns:xlink="http://www.w3.org/1999/xlink">
<g id="graph0" class="graph" transform="scale(1 1) rotate(0) translate(4 147)">
<title>seerep_ros/seerep_ros_comm/include/seerep_ros_comm</title>
<g id="clust1" class="cluster">
<title>clusterdir_c9d9ef9b0fb928406011a6e65e9194a6</title>
<g id="a_clust1"><a xlink:href="dir_c9d9ef9b0fb928406011a6e65e9194a6.html" target="_top" xlink:title="include">
<polygon fill="#edf0f7" stroke="#7f7f7f" stroke-dasharray="5,2" points="185,-64 185,-135 307,-135 307,-64 185,-64"/>
<text text-anchor="middle" x="246" y="-123" font-family="Helvetica,sans-Serif" font-size="10.00">include</text>
</a>
</g>
</g>
<!-- dir_e5420294647e641ee51d5990a4afccf3 -->
<g id="node1" class="node">
<title>dir_e5420294647e641ee51d5990a4afccf3</title>
<g id="a_node1"><a xlink:href="dir_e5420294647e641ee51d5990a4afccf3.html" target="_top" xlink:title="seerep_ros_comm">
<polygon fill="#edf0f7" stroke="#404040" stroke-width="2" points="299,-108 193,-108 193,-72 299,-72 299,-108"/>
<text text-anchor="middle" x="246" y="-87.5" font-family="Helvetica,sans-Serif" font-size="10.00">seerep_ros_comm</text>
</a>
</g>
</g>
<!-- dir_4c1d624259406ef709f5f794a0e422e7 -->
<g id="node2" class="node">
<title>dir_4c1d624259406ef709f5f794a0e422e7</title>
<g id="a_node2"><a xlink:href="dir_4c1d624259406ef709f5f794a0e422e7.html" target="_top" xlink:title="seerep_srv">
<polygon fill="none" stroke="red" points="70,-36 0,-36 0,0 70,0 70,-36"/>
<text text-anchor="middle" x="35" y="-15.5" font-family="Helvetica,sans-Serif" font-size="10.00">seerep_srv</text>
</a>
</g>
</g>
<!-- dir_e5420294647e641ee51d5990a4afccf3&#45;&gt;dir_4c1d624259406ef709f5f794a0e422e7 -->
<g id="edge1" class="edge">
<title>dir_e5420294647e641ee51d5990a4afccf3&#45;&gt;dir_4c1d624259406ef709f5f794a0e422e7</title>
<path fill="none" stroke="black" d="M192.71,-73.25C161.86,-63.88 122.11,-51.41 79.77,-36.54"/>
<polygon fill="black" stroke="black" points="80.72,-33.16 70.12,-33.12 78.38,-39.76 80.72,-33.16"/>
<g id="a_edge1&#45;headlabel"><a xlink:href="dir_000038_000047.html" target="_top" xlink:title="1">
<text text-anchor="middle" x="85.05" y="-29.18" font-family="Helvetica,sans-Serif" font-size="10.00">1</text>
</a>
</g>
</g>
<!-- dir_a38331664cfc6d29b6df33fcfd70b309 -->
<g id="node3" class="node">
<title>dir_a38331664cfc6d29b6df33fcfd70b309</title>
<g id="a_node3"><a xlink:href="dir_a38331664cfc6d29b6df33fcfd70b309.html" target="_top" xlink:title="seerep_ros_conversions_fb">
<polygon fill="none" stroke="red" stroke-dasharray="5,2" points="236.5,-36 87.5,-36 87.5,0 236.5,0 236.5,-36"/>
<text text-anchor="middle" x="162" y="-15.5" font-family="Helvetica,sans-Serif" font-size="10.00">seerep_ros_conversions_fb</text>
</a>
</g>
</g>
<!-- dir_e5420294647e641ee51d5990a4afccf3&#45;&gt;dir_a38331664cfc6d29b6df33fcfd70b309 -->
<g id="edge2" class="edge">
<title>dir_e5420294647e641ee51d5990a4afccf3&#45;&gt;dir_a38331664cfc6d29b6df33fcfd70b309</title>
<path fill="none" stroke="black" d="M225.24,-71.7C214.76,-62.97 201.89,-52.24 190.5,-42.75"/>
<polygon fill="black" stroke="black" points="192.45,-39.82 182.53,-36.1 187.97,-45.19 192.45,-39.82"/>
<g id="a_edge2&#45;headlabel"><a xlink:href="dir_000038_000039.html" target="_top" xlink:title="2">
<text text-anchor="middle" x="197.03" y="-37.44" font-family="Helvetica,sans-Serif" font-size="10.00">2</text>
</a>
</g>
</g>
<!-- dir_aead71a8f85e5c01d996758f7e2f2d90 -->
<g id="node4" class="node">
<title>dir_aead71a8f85e5c01d996758f7e2f2d90</title>
<g id="a_node4"><a xlink:href="dir_aead71a8f85e5c01d996758f7e2f2d90.html" target="_top" xlink:title="seerep_ros_conversions_pb">
<polygon fill="none" stroke="red" stroke-dasharray="5,2" points="405.5,-36 254.5,-36 254.5,0 405.5,0 405.5,-36"/>
<text text-anchor="middle" x="330" y="-15.5" font-family="Helvetica,sans-Serif" font-size="10.00">seerep_ros_conversions_pb</text>
</a>
</g>
</g>
<!-- dir_e5420294647e641ee51d5990a4afccf3&#45;&gt;dir_aead71a8f85e5c01d996758f7e2f2d90 -->
<g id="edge3" class="edge">
<title>dir_e5420294647e641ee51d5990a4afccf3&#45;&gt;dir_aead71a8f85e5c01d996758f7e2f2d90</title>
<path fill="none" stroke="black" d="M266.76,-71.7C277.24,-62.97 290.11,-52.24 301.5,-42.75"/>
<polygon fill="black" stroke="black" points="304.03,-45.19 309.47,-36.1 299.55,-39.82 304.03,-45.19"/>
<g id="a_edge3&#45;headlabel"><a xlink:href="dir_000038_000042.html" target="_top" xlink:title="1">
<text text-anchor="middle" x="303.09" y="-47.18" font-family="Helvetica,sans-Serif" font-size="10.00">1</text>
</a>
</g>
</g>
<!-- dir_c5a2e435828dd19b8513b20efbb5a3dc -->
<g id="node5" class="node">
<title>dir_c5a2e435828dd19b8513b20efbb5a3dc</title>
<g id="a_node5"><a xlink:href="dir_c5a2e435828dd19b8513b20efbb5a3dc.html" target="_top" xlink:title="seerep_hdf5">
<polygon fill="none" stroke="red" points="500.5,-36 423.5,-36 423.5,0 500.5,0 500.5,-36"/>
<text text-anchor="middle" x="462" y="-15.5" font-family="Helvetica,sans-Serif" font-size="10.00">seerep_hdf5</text>
</a>
</g>
</g>
<!-- dir_e5420294647e641ee51d5990a4afccf3&#45;&gt;dir_c5a2e435828dd19b8513b20efbb5a3dc -->
<g id="edge4" class="edge">
<title>dir_e5420294647e641ee51d5990a4afccf3&#45;&gt;dir_c5a2e435828dd19b8513b20efbb5a3dc</title>
<path fill="none" stroke="black" d="M299.09,-72.99C330.2,-63.47 370.44,-50.89 413.74,-36.37"/>
<polygon fill="black" stroke="black" points="414.96,-39.65 423.32,-33.14 412.72,-33.02 414.96,-39.65"/>
<g id="a_edge4&#45;headlabel"><a xlink:href="dir_000038_000024.html" target="_top" xlink:title="12">
<text text-anchor="middle" x="412.46" y="-40.99" font-family="Helvetica,sans-Serif" font-size="10.00">12</text>
</a>
</g>
</g>
</g>
</svg>
