<?xml version="1.0" encoding="UTF-8" standalone="no"?>
<!DOCTYPE svg PUBLIC "-//W3C//DTD SVG 1.1//EN"
 "http://www.w3.org/Graphics/SVG/1.1/DTD/svg11.dtd">
<!-- Generated by graphviz version 2.43.0 (0)
 -->
<!-- Title: seerep_ros Pages: 1 -->
<svg width="525pt" height="148pt"
 viewBox="0.00 0.00 525.00 148.00" xmlns="http://www.w3.org/2000/svg" xmlns:xlink="http://www.w3.org/1999/xlink">
<g id="graph0" class="graph" transform="scale(1 1) rotate(0) translate(4 144)">
<title>seerep_ros</title>
<g id="clust1" class="cluster">
<title>clusterdir_d6a4cf61b1a1a0b16b951b18af11c102</title>
<g id="a_clust1"><a xlink:href="dir_d6a4cf61b1a1a0b16b951b18af11c102.html" target="_top">
<polygon fill="#edf0f7" stroke="#404040" stroke-width="2" points="8,-8 8,-132 342,-132 342,-8 8,-8"/>
</a>
</g>
</g>
<!-- dir_d6a4cf61b1a1a0b16b951b18af11c102 -->
<g id="node1" class="node">
<title>dir_d6a4cf61b1a1a0b16b951b18af11c102</title>
<text text-anchor="middle" x="299" y="-103.5" font-family="Helvetica,sans-Serif" font-size="10.00">seerep_ros</text>
</g>
<!-- dir_efd1bbacac3e26a9f1e09ab8b13774ef -->
<g id="node2" class="node">
<title>dir_efd1bbacac3e26a9f1e09ab8b13774ef</title>
<g id="a_node2"><a xlink:href="dir_efd1bbacac3e26a9f1e09ab8b13774ef.html" target="_top" xlink:title="seerep_ros_comm">
<polygon fill="#a2b4d6" stroke="#404040" points="246,-124 140,-124 140,-88 246,-88 246,-124"/>
<text text-anchor="middle" x="193" y="-103.5" font-family="Helvetica,sans-Serif" font-size="10.00">seerep_ros_comm</text>
</a>
</g>
</g>
<!-- dir_a38331664cfc6d29b6df33fcfd70b309 -->
<g id="node3" class="node">
<title>dir_a38331664cfc6d29b6df33fcfd70b309</title>
<g id="a_node3"><a xlink:href="dir_a38331664cfc6d29b6df33fcfd70b309.html" target="_top" xlink:title="seerep_ros_conversions_fb">
<polygon fill="#a2b4d6" stroke="#404040" points="164.5,-52 15.5,-52 15.5,-16 164.5,-16 164.5,-52"/>
<text text-anchor="middle" x="90" y="-31.5" font-family="Helvetica,sans-Serif" font-size="10.00">seerep_ros_conversions_fb</text>
</a>
</g>
</g>
<!-- dir_efd1bbacac3e26a9f1e09ab8b13774ef&#45;&gt;dir_a38331664cfc6d29b6df33fcfd70b309 -->
<g id="edge2" class="edge">
<title>dir_efd1bbacac3e26a9f1e09ab8b13774ef&#45;&gt;dir_a38331664cfc6d29b6df33fcfd70b309</title>
<path fill="none" stroke="black" d="M167.8,-87.88C154.59,-78.89 138.21,-67.76 123.89,-58.03"/>
<polygon fill="black" stroke="black" points="125.53,-54.92 115.29,-52.19 121.6,-60.71 125.53,-54.92"/>
<g id="a_edge2&#45;headlabel"><a xlink:href="dir_000037_000039.html" target="_top" xlink:title="2">
<text text-anchor="middle" x="130.1" y="-52.09" font-family="Helvetica,sans-Serif" font-size="10.00">2</text>
</a>
</g>
</g>
<!-- dir_aead71a8f85e5c01d996758f7e2f2d90 -->
<g id="node4" class="node">
<title>dir_aead71a8f85e5c01d996758f7e2f2d90</title>
<g id="a_node4"><a xlink:href="dir_aead71a8f85e5c01d996758f7e2f2d90.html" target="_top" xlink:title="seerep_ros_conversions_pb">
<polygon fill="#a2b4d6" stroke="#404040" points="333.5,-52 182.5,-52 182.5,-16 333.5,-16 333.5,-52"/>
<text text-anchor="middle" x="258" y="-31.5" font-family="Helvetica,sans-Serif" font-size="10.00">seerep_ros_conversions_pb</text>
</a>
</g>
</g>
<!-- dir_efd1bbacac3e26a9f1e09ab8b13774ef&#45;&gt;dir_aead71a8f85e5c01d996758f7e2f2d90 -->
<g id="edge4" class="edge">
<title>dir_efd1bbacac3e26a9f1e09ab8b13774ef&#45;&gt;dir_aead71a8f85e5c01d996758f7e2f2d90</title>
<path fill="none" stroke="black" d="M209.07,-87.7C216.94,-79.22 226.56,-68.86 235.17,-59.58"/>
<polygon fill="black" stroke="black" points="237.88,-61.81 242.12,-52.1 232.75,-57.05 237.88,-61.81"/>
<g id="a_edge4&#45;headlabel"><a xlink:href="dir_000037_000042.html" target="_top" xlink:title="1">
<text text-anchor="middle" x="237.51" y="-63.88" font-family="Helvetica,sans-Serif" font-size="10.00">1</text>
</a>
</g>
</g>
<!-- dir_c5a2e435828dd19b8513b20efbb5a3dc -->
<g id="node5" class="node">
<title>dir_c5a2e435828dd19b8513b20efbb5a3dc</title>
<g id="a_node5"><a xlink:href="dir_c5a2e435828dd19b8513b20efbb5a3dc.html" target="_top" xlink:title="seerep_hdf5">
<polygon fill="none" stroke="red" points="428.5,-52 351.5,-52 351.5,-16 428.5,-16 428.5,-52"/>
<text text-anchor="middle" x="390" y="-31.5" font-family="Helvetica,sans-Serif" font-size="10.00">seerep_hdf5</text>
</a>
</g>
</g>
<!-- dir_efd1bbacac3e26a9f1e09ab8b13774ef&#45;&gt;dir_c5a2e435828dd19b8513b20efbb5a3dc -->
<g id="edge1" class="edge">
<title>dir_efd1bbacac3e26a9f1e09ab8b13774ef&#45;&gt;dir_c5a2e435828dd19b8513b20efbb5a3dc</title>
<path fill="none" stroke="black" d="M243.81,-87.9C271.21,-78.56 305.84,-66.58 341.56,-53.6"/>
<polygon fill="black" stroke="black" points="342.97,-56.81 351.16,-50.09 340.57,-50.23 342.97,-56.81"/>
<g id="a_edge1&#45;headlabel"><a xlink:href="dir_000037_000024.html" target="_top" xlink:title="12">
<text text-anchor="middle" x="340.56" y="-58.21" font-family="Helvetica,sans-Serif" font-size="10.00">12</text>
</a>
</g>
</g>
<!-- dir_4c1d624259406ef709f5f794a0e422e7 -->
<g id="node6" class="node">
<title>dir_4c1d624259406ef709f5f794a0e422e7</title>
<g id="a_node6"><a xlink:href="dir_4c1d624259406ef709f5f794a0e422e7.html" target="_top" xlink:title="seerep_srv">
<polygon fill="none" stroke="red" points="517,-52 447,-52 447,-16 517,-16 517,-52"/>
<text text-anchor="middle" x="482" y="-31.5" font-family="Helvetica,sans-Serif" font-size="10.00">seerep_srv</text>
</a>
</g>
</g>
<!-- dir_efd1bbacac3e26a9f1e09ab8b13774ef&#45;&gt;dir_4c1d624259406ef709f5f794a0e422e7 -->
<g id="edge3" class="edge">
<title>dir_efd1bbacac3e26a9f1e09ab8b13774ef&#45;&gt;dir_4c1d624259406ef709f5f794a0e422e7</title>
<path fill="none" stroke="black" d="M246.03,-90.18C249.06,-89.42 252.07,-88.69 255,-88 332.54,-69.77 356.51,-74.59 436.59,-52.15"/>
<polygon fill="black" stroke="black" points="437.99,-55.39 446.64,-49.27 436.06,-48.66 437.99,-55.39"/>
<g id="a_edge3&#45;headlabel"><a xlink:href="dir_000037_000047.html" target="_top" xlink:title="1">
<text text-anchor="middle" x="435.31" y="-56.61" font-family="Helvetica,sans-Serif" font-size="10.00">1</text>
</a>
</g>
</g>
</g>
</svg>
