<?xml version="1.0" encoding="UTF-8" standalone="no"?>
<!DOCTYPE svg PUBLIC "-//W3C//DTD SVG 1.1//EN"
 "http://www.w3.org/Graphics/SVG/1.1/DTD/svg11.dtd">
<!-- Generated by graphviz version 2.43.0 (0)
 -->
<!-- Title: seerep_srv/seerep_server/include/seerep_server/fb_point_service.h Pages: 1 -->
<svg width="5081pt" height="564pt"
 viewBox="0.00 0.00 5080.73 564.00" xmlns="http://www.w3.org/2000/svg" xmlns:xlink="http://www.w3.org/1999/xlink">
<g id="graph0" class="graph" transform="scale(1 1) rotate(0) translate(4 560)">
<title>seerep_srv/seerep_server/include/seerep_server/fb_point_service.h</title>
<!-- Node1 -->
<g id="node1" class="node">
<title>Node1</title>
<g id="a_node1"><a xlink:title=" ">
<polygon fill="#bfbfbf" stroke="black" points="3083.57,-514.5 3083.57,-555.5 3225.57,-555.5 3225.57,-514.5 3083.57,-514.5"/>
<text text-anchor="start" x="3091.57" y="-543.5" font-family="Helvetica,sans-Serif" font-size="10.00">seerep_srv/seerep_server</text>
<text text-anchor="start" x="3091.57" y="-532.5" font-family="Helvetica,sans-Serif" font-size="10.00">/include/seerep_server</text>
<text text-anchor="middle" x="3154.57" y="-521.5" font-family="Helvetica,sans-Serif" font-size="10.00">/fb_point_service.h</text>
</a>
</g>
</g>
<!-- Node2 -->
<g id="node2" class="node">
<title>Node2</title>
<g id="a_node2"><a xlink:title=" ">
<polygon fill="none" stroke="#bfbfbf" points="70.57,-73 70.57,-92 260.57,-92 260.57,-73 70.57,-73"/>
<text text-anchor="middle" x="165.57" y="-80" font-family="Helvetica,sans-Serif" font-size="10.00">seerep_com/point_service.grpc.fb.h</text>
</a>
</g>
</g>
<!-- Node1&#45;&gt;Node2 -->
<g id="edge1" class="edge">
<title>Node1&#45;&gt;Node2</title>
<path fill="none" stroke="midnightblue" d="M3083.5,-533.2C2740.26,-529.18 1251.62,-510.18 788.57,-478 631.24,-467.07 83.57,-554.21 83.57,-396.5 83.57,-396.5 83.57,-396.5 83.57,-215.5 83.57,-167.27 123.56,-122.02 147.69,-99.12"/>
<polygon fill="midnightblue" stroke="midnightblue" points="150.19,-101.58 155.18,-92.23 145.45,-96.42 150.19,-101.58"/>
</g>
<!-- Node3 -->
<g id="node3" class="node">
<title>Node3</title>
<g id="a_node3"><a xlink:href="core_8h.html" target="_top" xlink:title=" ">
<polygon fill="none" stroke="black" points="2574.07,-324.5 2574.07,-343.5 2683.07,-343.5 2683.07,-324.5 2574.07,-324.5"/>
<text text-anchor="middle" x="2628.57" y="-331.5" font-family="Helvetica,sans-Serif" font-size="10.00">seerep_core/core.h</text>
</a>
</g>
</g>
<!-- Node1&#45;&gt;Node3 -->
<g id="edge2" class="edge">
<title>Node1&#45;&gt;Node3</title>
<path fill="none" stroke="midnightblue" d="M3102.69,-514.37C2994.76,-473.54 2748.73,-380.46 2660.66,-347.14"/>
<polygon fill="midnightblue" stroke="midnightblue" points="2661.79,-343.83 2651.2,-343.56 2659.32,-350.38 2661.79,-343.83"/>
</g>
<!-- Node37 -->
<g id="node36" class="node">
<title>Node37</title>
<g id="a_node36"><a xlink:title=" ">
<polygon fill="none" stroke="#bfbfbf" points="355.07,-67.5 355.07,-97.5 500.07,-97.5 500.07,-67.5 355.07,-67.5"/>
<text text-anchor="start" x="363.07" y="-85.5" font-family="Helvetica,sans-Serif" font-size="10.00">boost/log/sources/severity</text>
<text text-anchor="middle" x="427.57" y="-74.5" font-family="Helvetica,sans-Serif" font-size="10.00">_logger.hpp</text>
</a>
</g>
</g>
<!-- Node1&#45;&gt;Node37 -->
<g id="edge162" class="edge">
<title>Node1&#45;&gt;Node37</title>
<path fill="none" stroke="midnightblue" d="M3083.44,-532.52C2674.29,-523.75 634.68,-476.86 520.57,-411 414.35,-349.7 419.22,-172.61 424.88,-107.71"/>
<polygon fill="midnightblue" stroke="midnightblue" points="428.38,-107.91 425.85,-97.62 421.41,-107.24 428.38,-107.91"/>
</g>
<!-- Node38 -->
<g id="node37" class="node">
<title>Node38</title>
<g id="a_node37"><a xlink:title=" ">
<polygon fill="none" stroke="#bfbfbf" points="3193.57,-73 3193.57,-92 3307.57,-92 3307.57,-73 3193.57,-73"/>
<text text-anchor="middle" x="3250.57" y="-80" font-family="Helvetica,sans-Serif" font-size="10.00">boost/log/trivial.hpp</text>
</a>
</g>
</g>
<!-- Node1&#45;&gt;Node38 -->
<g id="edge163" class="edge">
<title>Node1&#45;&gt;Node38</title>
<path fill="none" stroke="midnightblue" d="M3225.8,-530.24C3369.65,-520.99 3686.77,-491.71 3752.57,-411 3879.22,-255.64 3542.27,-274.79 3374.57,-165 3356.33,-153.06 3354.46,-146.44 3336.57,-134 3316.9,-120.32 3293.37,-106.68 3275.89,-97.02"/>
<polygon fill="midnightblue" stroke="midnightblue" points="3277.33,-93.82 3266.87,-92.1 3273.97,-99.96 3277.33,-93.82"/>
</g>
<!-- Node66 -->
<g id="node38" class="node">
<title>Node66</title>
<g id="a_node38"><a xlink:href="core__fb__point_8h.html" target="_top" xlink:title=" ">
<polygon fill="none" stroke="black" points="3298.07,-447.5 3298.07,-477.5 3413.07,-477.5 3413.07,-447.5 3298.07,-447.5"/>
<text text-anchor="start" x="3306.07" y="-465.5" font-family="Helvetica,sans-Serif" font-size="10.00">seerep_core_fb/core</text>
<text text-anchor="middle" x="3355.57" y="-454.5" font-family="Helvetica,sans-Serif" font-size="10.00">_fb_point.h</text>
</a>
</g>
</g>
<!-- Node1&#45;&gt;Node66 -->
<g id="edge105" class="edge">
<title>Node1&#45;&gt;Node66</title>
<path fill="none" stroke="midnightblue" d="M3210.29,-514.46C3240.25,-503.95 3276.88,-491.1 3305.86,-480.93"/>
<polygon fill="midnightblue" stroke="midnightblue" points="3307.1,-484.21 3315.38,-477.6 3304.78,-477.6 3307.1,-484.21"/>
</g>
<!-- Node96 -->
<g id="node50" class="node">
<title>Node96</title>
<g id="a_node50"><a xlink:title=" ">
<polygon fill="none" stroke="#bfbfbf" points="4009.07,-453 4009.07,-472 4062.07,-472 4062.07,-453 4009.07,-453"/>
<text text-anchor="middle" x="4035.57" y="-460" font-family="Helvetica,sans-Serif" font-size="10.00">util.hpp</text>
</a>
</g>
</g>
<!-- Node1&#45;&gt;Node96 -->
<g id="edge161" class="edge">
<title>Node1&#45;&gt;Node96</title>
<path fill="none" stroke="midnightblue" d="M3225.75,-531.75C3400.75,-525.83 3848.38,-508.13 3994.57,-478 3998.08,-477.28 4001.69,-476.32 4005.25,-475.25"/>
<polygon fill="midnightblue" stroke="midnightblue" points="4006.64,-478.48 4015.02,-472 4004.43,-471.84 4006.64,-478.48"/>
</g>
<!-- Node4 -->
<g id="node4" class="node">
<title>Node4</title>
<g id="a_node4"><a xlink:title=" ">
<polygon fill="none" stroke="#bfbfbf" points="2535.07,-268.5 2535.07,-287.5 2600.07,-287.5 2600.07,-268.5 2535.07,-268.5"/>
<text text-anchor="middle" x="2567.57" y="-275.5" font-family="Helvetica,sans-Serif" font-size="10.00">curl/curl.h</text>
</a>
</g>
</g>
<!-- Node3&#45;&gt;Node4 -->
<g id="edge3" class="edge">
<title>Node3&#45;&gt;Node4</title>
<path fill="none" stroke="midnightblue" d="M2618.77,-324.32C2609.75,-316.34 2596.16,-304.31 2585.25,-294.65"/>
<polygon fill="midnightblue" stroke="midnightblue" points="2587.35,-291.84 2577.55,-287.83 2582.71,-297.08 2587.35,-291.84"/>
</g>
<!-- Node5 -->
<g id="node5" class="node">
<title>Node5</title>
<g id="a_node5"><a xlink:title=" ">
<polygon fill="none" stroke="#bfbfbf" points="1381.57,-268.5 1381.57,-287.5 1491.57,-287.5 1491.57,-268.5 1381.57,-268.5"/>
<text text-anchor="middle" x="1436.57" y="-275.5" font-family="Helvetica,sans-Serif" font-size="10.00">jsoncpp/json/json.h</text>
</a>
</g>
</g>
<!-- Node3&#45;&gt;Node5 -->
<g id="edge4" class="edge">
<title>Node3&#45;&gt;Node5</title>
<path fill="none" stroke="midnightblue" d="M2573.83,-332.54C2410.92,-330.81 1915.06,-322.84 1505.57,-288 1504.45,-287.91 1503.33,-287.81 1502.2,-287.7"/>
<polygon fill="midnightblue" stroke="midnightblue" points="1502.18,-284.18 1491.88,-286.66 1501.48,-291.15 1502.18,-284.18"/>
</g>
<!-- Node6 -->
<g id="node6" class="node">
<title>Node6</title>
<g id="a_node6"><a xlink:title=" ">
<polygon fill="none" stroke="#bfbfbf" points="2252.07,-6 2252.07,-25 2395.07,-25 2395.07,-6 2252.07,-6"/>
<text text-anchor="middle" x="2323.57" y="-13" font-family="Helvetica,sans-Serif" font-size="10.00">boost/functional/hash.hpp</text>
</a>
</g>
</g>
<!-- Node3&#45;&gt;Node6 -->
<g id="edge5" class="edge">
<title>Node3&#45;&gt;Node6</title>
<path fill="none" stroke="midnightblue" d="M2683.51,-332.72C2820.38,-330.55 3165.57,-315.36 3165.57,-217.5 3165.57,-217.5 3165.57,-217.5 3165.57,-148.5 3165.57,18.29 2840.32,-79.37 2407.57,-31 2397.64,-29.89 2387.11,-28.36 2376.98,-26.7"/>
<polygon fill="midnightblue" stroke="midnightblue" points="2377.47,-23.24 2367.02,-25.02 2376.3,-30.14 2377.47,-23.24"/>
</g>
<!-- Node7 -->
<g id="node7" class="node">
<title>Node7</title>
<g id="a_node7"><a xlink:title=" ">
<polygon fill="none" stroke="#bfbfbf" points="1939.07,-6 1939.07,-25 2064.07,-25 2064.07,-6 1939.07,-6"/>
<text text-anchor="middle" x="2001.57" y="-13" font-family="Helvetica,sans-Serif" font-size="10.00">boost/lexical_cast.hpp</text>
</a>
</g>
</g>
<!-- Node3&#45;&gt;Node7 -->
<g id="edge6" class="edge">
<title>Node3&#45;&gt;Node7</title>
<path fill="none" stroke="midnightblue" d="M2627.99,-324.45C2626.67,-311.01 2622.37,-284.77 2608.57,-268 2488.4,-121.99 2410.99,-132.41 2233.57,-67 2181.14,-47.67 2119.19,-34.65 2072.49,-26.68"/>
<polygon fill="midnightblue" stroke="midnightblue" points="2072.91,-23.2 2062.47,-25.01 2071.76,-30.11 2072.91,-23.2"/>
</g>
<!-- Node8 -->
<g id="node8" class="node">
<title>Node8</title>
<g id="a_node8"><a xlink:title=" ">
<polygon fill="none" stroke="#bfbfbf" points="1308.07,-6 1308.07,-25 1421.07,-25 1421.07,-6 1308.07,-6"/>
<text text-anchor="middle" x="1364.57" y="-13" font-family="Helvetica,sans-Serif" font-size="10.00">boost/uuid/uuid.hpp</text>
</a>
</g>
</g>
<!-- Node3&#45;&gt;Node8 -->
<g id="edge7" class="edge">
<title>Node3&#45;&gt;Node8</title>
<path fill="none" stroke="midnightblue" d="M2574.04,-333C2397.31,-332.6 1824.4,-328.06 1352.57,-288 1167.12,-272.26 1119.6,-270.79 937.57,-232 834.27,-209.99 783.9,-240.04 709.57,-165 678.34,-133.48 660.19,-99.34 690.57,-67 734.32,-20.42 1201.01,-37.59 1264.57,-31 1276.5,-29.76 1289.18,-28.15 1301.38,-26.46"/>
<polygon fill="midnightblue" stroke="midnightblue" points="1302.07,-29.89 1311.47,-25.02 1301.08,-22.96 1302.07,-29.89"/>
</g>
<!-- Node9 -->
<g id="node9" class="node">
<title>Node9</title>
<g id="a_node9"><a xlink:title=" ">
<polygon fill="none" stroke="#bfbfbf" points="1085.57,-6 1085.57,-25 1255.57,-25 1255.57,-6 1085.57,-6"/>
<text text-anchor="middle" x="1170.57" y="-13" font-family="Helvetica,sans-Serif" font-size="10.00">boost/uuid/uuid_generators.hpp</text>
</a>
</g>
</g>
<!-- Node3&#45;&gt;Node9 -->
<g id="edge8" class="edge">
<title>Node3&#45;&gt;Node9</title>
<path fill="none" stroke="midnightblue" d="M2574.06,-332.37C2321.31,-329.35 1261.82,-315.24 931.57,-288 751.35,-273.14 705.47,-269.48 528.57,-232 317.32,-187.25 191.5,-270.46 61.57,-98 53.28,-87 52.05,-76.96 61.57,-67 96.33,-30.62 812.38,-19.99 1075.05,-17.31"/>
<polygon fill="midnightblue" stroke="midnightblue" points="1075.36,-20.8 1085.33,-17.2 1075.29,-13.8 1075.36,-20.8"/>
</g>
<!-- Node10 -->
<g id="node10" class="node">
<title>Node10</title>
<g id="a_node10"><a xlink:title=" ">
<polygon fill="none" stroke="#bfbfbf" points="2417.07,-6 2417.07,-25 2544.07,-25 2544.07,-6 2417.07,-6"/>
<text text-anchor="middle" x="2480.57" y="-13" font-family="Helvetica,sans-Serif" font-size="10.00">boost/uuid/uuid_io.hpp</text>
</a>
</g>
</g>
<!-- Node3&#45;&gt;Node10 -->
<g id="edge9" class="edge">
<title>Node3&#45;&gt;Node10</title>
<path fill="none" stroke="midnightblue" d="M2683.39,-331.01C2813.13,-325.97 3135.95,-311.41 3241.57,-288 3347.86,-264.43 3368.71,-239.45 3470.57,-201 3513.2,-184.91 3525.26,-184.24 3566.57,-165 3592,-153.15 3594.62,-141.84 3621.57,-134 3767.15,-91.65 4406.28,-175.69 4300.57,-67 4299.6,-66 2894.74,-27.76 2554.24,-18.5"/>
<polygon fill="midnightblue" stroke="midnightblue" points="2554.33,-15 2544.24,-18.23 2554.14,-22 2554.33,-15"/>
</g>
<!-- Node11 -->
<g id="node11" class="node">
<title>Node11</title>
<g id="a_node11"><a xlink:title=" ">
<polygon fill="none" stroke="#bfbfbf" points="1758.57,-268.5 1758.57,-287.5 1826.57,-287.5 1826.57,-268.5 1758.57,-268.5"/>
<text text-anchor="middle" x="1792.57" y="-275.5" font-family="Helvetica,sans-Serif" font-size="10.00">filesystem</text>
</a>
</g>
</g>
<!-- Node3&#45;&gt;Node11 -->
<g id="edge10" class="edge">
<title>Node3&#45;&gt;Node11</title>
<path fill="none" stroke="midnightblue" d="M2573.98,-332.71C2446.49,-331.42 2119.16,-324.64 1836.78,-287.95"/>
<polygon fill="midnightblue" stroke="midnightblue" points="1837.13,-284.47 1826.76,-286.64 1836.21,-291.41 1837.13,-284.47"/>
</g>
<!-- Node12 -->
<g id="node12" class="node">
<title>Node12</title>
<g id="a_node12"><a xlink:title=" ">
<polygon fill="none" stroke="#bfbfbf" points="1077.07,-73 1077.07,-92 1142.07,-92 1142.07,-73 1077.07,-73"/>
<text text-anchor="middle" x="1109.57" y="-80" font-family="Helvetica,sans-Serif" font-size="10.00">functional</text>
</a>
</g>
</g>
<!-- Node3&#45;&gt;Node12 -->
<g id="edge11" class="edge">
<title>Node3&#45;&gt;Node12</title>
<path fill="none" stroke="midnightblue" d="M2573.72,-332.83C2337.94,-331.85 1420.35,-325.63 1372.57,-288 1316.74,-244.03 1381.11,-182.92 1329.57,-134 1276.38,-83.53 1239.95,-114.75 1168.57,-98 1163.24,-96.75 1157.65,-95.41 1152.12,-94.07"/>
<polygon fill="midnightblue" stroke="midnightblue" points="1152.85,-90.65 1142.31,-91.68 1151.19,-97.45 1152.85,-90.65"/>
</g>
<!-- Node13 -->
<g id="node13" class="node">
<title>Node13</title>
<g id="a_node13"><a xlink:title=" ">
<polygon fill="none" stroke="#bfbfbf" points="1469.57,-6 1469.57,-25 1525.57,-25 1525.57,-6 1469.57,-6"/>
<text text-anchor="middle" x="1497.57" y="-13" font-family="Helvetica,sans-Serif" font-size="10.00">optional</text>
</a>
</g>
</g>
<!-- Node3&#45;&gt;Node13 -->
<g id="edge12" class="edge">
<title>Node3&#45;&gt;Node13</title>
<path fill="none" stroke="midnightblue" d="M2574.01,-330.88C2435.91,-325.35 2061.31,-309.46 1749.57,-288 1740.57,-287.38 1110.04,-237.05 1102.57,-232 1069.7,-209.81 1007.83,-96.29 1034.57,-67 1064.28,-34.45 1385.99,-37.61 1429.57,-31 1439.31,-29.52 1449.76,-27.51 1459.46,-25.46"/>
<polygon fill="midnightblue" stroke="midnightblue" points="1460.23,-28.88 1469.25,-23.33 1458.74,-22.04 1460.23,-28.88"/>
</g>
<!-- Node14 -->
<g id="node14" class="node">
<title>Node14</title>
<g id="a_node14"><a xlink:title=" ">
<polygon fill="none" stroke="#bfbfbf" points="1844.57,-268.5 1844.57,-287.5 1888.57,-287.5 1888.57,-268.5 1844.57,-268.5"/>
<text text-anchor="middle" x="1866.57" y="-275.5" font-family="Helvetica,sans-Serif" font-size="10.00">regex</text>
</a>
</g>
</g>
<!-- Node3&#45;&gt;Node14 -->
<g id="edge13" class="edge">
<title>Node3&#45;&gt;Node14</title>
<path fill="none" stroke="midnightblue" d="M2573.98,-333.74C2453.37,-334.48 2155.19,-331.5 1898.66,-287.79"/>
<polygon fill="midnightblue" stroke="midnightblue" points="1899.23,-284.34 1888.78,-286.09 1898.04,-291.24 1899.23,-284.34"/>
</g>
<!-- Node15 -->
<g id="node15" class="node">
<title>Node15</title>
<g id="a_node15"><a xlink:title=" ">
<polygon fill="none" stroke="#bfbfbf" points="2108.07,-0.5 2108.07,-30.5 2229.07,-30.5 2229.07,-0.5 2108.07,-0.5"/>
<text text-anchor="start" x="2116.07" y="-18.5" font-family="Helvetica,sans-Serif" font-size="10.00">seerep_msgs/dataset</text>
<text text-anchor="middle" x="2168.57" y="-7.5" font-family="Helvetica,sans-Serif" font-size="10.00">_indexable.h</text>
</a>
</g>
</g>
<!-- Node3&#45;&gt;Node15 -->
<g id="edge14" class="edge">
<title>Node3&#45;&gt;Node15</title>
<path fill="none" stroke="midnightblue" d="M2673.82,-324.46C2810.36,-296.92 3200.96,-204.24 3069.57,-67 3037.76,-33.78 2288.23,-36.44 2242.57,-31 2241.63,-30.89 2240.68,-30.77 2239.74,-30.65"/>
<polygon fill="midnightblue" stroke="midnightblue" points="2239.82,-27.13 2229.43,-29.18 2238.83,-34.06 2239.82,-27.13"/>
</g>
<!-- Node16 -->
<g id="node16" class="node">
<title>Node16</title>
<g id="a_node16"><a xlink:title=" ">
<polygon fill="none" stroke="#bfbfbf" points="4156.57,-67.5 4156.57,-97.5 4274.57,-97.5 4274.57,-67.5 4156.57,-67.5"/>
<text text-anchor="start" x="4164.57" y="-85.5" font-family="Helvetica,sans-Serif" font-size="10.00">seerep_msgs/project</text>
<text text-anchor="middle" x="4215.57" y="-74.5" font-family="Helvetica,sans-Serif" font-size="10.00">_info.h</text>
</a>
</g>
</g>
<!-- Node3&#45;&gt;Node16 -->
<g id="edge15" class="edge">
<title>Node3&#45;&gt;Node16</title>
<path fill="none" stroke="midnightblue" d="M2683.29,-331.48C2807.21,-327.59 3105.97,-315.57 3202.57,-288 3283.42,-264.92 3291.96,-230.86 3370.57,-201 3431.43,-177.88 3450.5,-184.67 3512.57,-165 3549.31,-153.35 3555.92,-142.28 3593.57,-134 3825.89,-82.92 3891.28,-125.37 4127.57,-98 4133.72,-97.29 4140.11,-96.44 4146.5,-95.52"/>
<polygon fill="midnightblue" stroke="midnightblue" points="4147.13,-98.97 4156.51,-94.03 4146.1,-92.05 4147.13,-98.97"/>
</g>
<!-- Node17 -->
<g id="node17" class="node">
<title>Node17</title>
<g id="a_node17"><a xlink:title=" ">
<polygon fill="none" stroke="#bfbfbf" points="2791.07,-73 2791.07,-92 2910.07,-92 2910.07,-73 2791.07,-73"/>
<text text-anchor="middle" x="2850.57" y="-80" font-family="Helvetica,sans-Serif" font-size="10.00">seerep_msgs/query.h</text>
</a>
</g>
</g>
<!-- Node3&#45;&gt;Node17 -->
<g id="edge16" class="edge">
<title>Node3&#45;&gt;Node17</title>
<path fill="none" stroke="midnightblue" d="M2636.21,-324.41C2668.43,-288.2 2793.51,-147.62 2836.2,-99.65"/>
<polygon fill="midnightblue" stroke="midnightblue" points="2838.93,-101.85 2842.96,-92.05 2833.7,-97.2 2838.93,-101.85"/>
</g>
<!-- Node18 -->
<g id="node18" class="node">
<title>Node18</title>
<g id="a_node18"><a xlink:title=" ">
<polygon fill="none" stroke="#bfbfbf" points="4368.57,-73 4368.57,-92 4522.57,-92 4522.57,-73 4368.57,-73"/>
<text text-anchor="middle" x="4445.57" y="-80" font-family="Helvetica,sans-Serif" font-size="10.00">seerep_msgs/query_result.h</text>
</a>
</g>
</g>
<!-- Node3&#45;&gt;Node18 -->
<g id="edge17" class="edge">
<title>Node3&#45;&gt;Node18</title>
<path fill="none" stroke="midnightblue" d="M2683.08,-332.71C2831.55,-331.45 3240.55,-324.64 3369.57,-288 3448.18,-265.67 3455.99,-232.11 3531.57,-201 3628.45,-161.12 3654.39,-152.16 3757.57,-134 4019.36,-87.92 4090.33,-126.95 4354.57,-98 4365.28,-96.83 4376.66,-95.27 4387.61,-93.6"/>
<polygon fill="midnightblue" stroke="midnightblue" points="4388.17,-97.06 4397.51,-92.06 4387.09,-90.14 4388.17,-97.06"/>
</g>
<!-- Node19 -->
<g id="node19" class="node">
<title>Node19</title>
<g id="a_node19"><a xlink:title=" ">
<polygon fill="none" stroke="#bfbfbf" points="2928.07,-73 2928.07,-92 3061.07,-92 3061.07,-73 2928.07,-73"/>
<text text-anchor="middle" x="2994.57" y="-80" font-family="Helvetica,sans-Serif" font-size="10.00">seerep_msgs/query_tf.h</text>
</a>
</g>
</g>
<!-- Node3&#45;&gt;Node19 -->
<g id="edge18" class="edge">
<title>Node3&#45;&gt;Node19</title>
<path fill="none" stroke="midnightblue" d="M2641.17,-324.41C2694.95,-287.75 2905.65,-144.11 2973.44,-97.9"/>
<polygon fill="midnightblue" stroke="midnightblue" points="2975.73,-100.58 2982.02,-92.05 2971.79,-94.79 2975.73,-100.58"/>
</g>
<!-- Node20 -->
<g id="node20" class="node">
<title>Node20</title>
<g id="a_node20"><a xlink:title=" ">
<polygon fill="none" stroke="#bfbfbf" points="3027.57,-6 3027.57,-25 3227.57,-25 3227.57,-6 3027.57,-6"/>
<text text-anchor="middle" x="3127.57" y="-13" font-family="Helvetica,sans-Serif" font-size="10.00">geometry_msgs/TransformStamped.h</text>
</a>
</g>
</g>
<!-- Node3&#45;&gt;Node20 -->
<g id="edge19" class="edge">
<title>Node3&#45;&gt;Node20</title>
<path fill="none" stroke="midnightblue" d="M2683.14,-331.62C2836.47,-327.47 3269.01,-313.76 3408.57,-288 3534.21,-264.81 3557.24,-225.87 3682.57,-201 3815.9,-174.55 4809.59,-198.08 4901.57,-98 4910.89,-87.86 4911.17,-76.88 4901.57,-67 4872.48,-37.07 3621.36,-21.63 3238.03,-17.59"/>
<polygon fill="midnightblue" stroke="midnightblue" points="3237.81,-14.09 3227.77,-17.48 3237.73,-21.09 3237.81,-14.09"/>
</g>
<!-- Node21 -->
<g id="node21" class="node">
<title>Node21</title>
<g id="a_node21"><a xlink:href="core__project_8h.html" target="_top" xlink:title=" ">
<polygon fill="none" stroke="black" points="1906.57,-268.5 1906.57,-287.5 1992.57,-287.5 1992.57,-268.5 1906.57,-268.5"/>
<text text-anchor="middle" x="1949.57" y="-275.5" font-family="Helvetica,sans-Serif" font-size="10.00">core_project.h</text>
</a>
</g>
</g>
<!-- Node3&#45;&gt;Node21 -->
<g id="edge20" class="edge">
<title>Node3&#45;&gt;Node21</title>
<path fill="none" stroke="midnightblue" d="M2573.86,-328.65C2446.17,-318.49 2129.71,-293.33 2003.14,-283.26"/>
<polygon fill="midnightblue" stroke="midnightblue" points="2003.17,-279.75 1992.92,-282.45 2002.61,-286.73 2003.17,-279.75"/>
</g>
<!-- Node3&#45;&gt;Node37 -->
<g id="edge103" class="edge">
<title>Node3&#45;&gt;Node37</title>
<path fill="none" stroke="midnightblue" d="M2573.74,-332.3C2333.31,-329.07 1370.8,-314.73 1069.57,-288 1009.59,-282.68 995.26,-275.89 935.57,-268 796.75,-249.66 757.18,-270.57 622.57,-232 555.87,-212.89 533.97,-210.47 481.57,-165 462.85,-148.76 447.92,-124.55 438.55,-106.73"/>
<polygon fill="midnightblue" stroke="midnightblue" points="441.56,-104.92 433.92,-97.58 435.31,-108.08 441.56,-104.92"/>
</g>
<!-- Node3&#45;&gt;Node38 -->
<g id="edge104" class="edge">
<title>Node3&#45;&gt;Node38</title>
<path fill="none" stroke="midnightblue" d="M2683.23,-331.88C2814.76,-328.73 3140.92,-317.94 3179.57,-288 3238.77,-242.14 3248.83,-143.77 3250.38,-102.42"/>
<polygon fill="midnightblue" stroke="midnightblue" points="3253.88,-102.45 3250.62,-92.36 3246.88,-102.28 3253.88,-102.45"/>
</g>
<!-- Node21&#45;&gt;Node8 -->
<g id="edge21" class="edge">
<title>Node21&#45;&gt;Node8</title>
<path fill="none" stroke="midnightblue" d="M1906.5,-269.11C1903.48,-268.7 1900.48,-268.32 1897.57,-268 1545.94,-229.76 1453.93,-272.54 1102.57,-232 1101.94,-231.93 744.1,-165.35 743.57,-165 713.91,-145.27 709.77,-132.13 699.57,-98 695.62,-84.8 690.14,-77.05 699.57,-67 742.61,-21.13 1202,-37.52 1264.57,-31 1276.5,-29.76 1289.18,-28.14 1301.37,-26.45"/>
<polygon fill="midnightblue" stroke="midnightblue" points="1302.07,-29.88 1311.47,-25.01 1301.08,-22.95 1302.07,-29.88"/>
</g>
<!-- Node21&#45;&gt;Node9 -->
<g id="edge22" class="edge">
<title>Node21&#45;&gt;Node9</title>
<path fill="none" stroke="midnightblue" d="M1906.5,-269.09C1903.48,-268.68 1900.48,-268.31 1897.57,-268 1472.93,-223.49 1358.97,-300.72 937.57,-232 885.45,-223.5 746.99,-202.26 709.57,-165 678.07,-133.63 659.82,-100.03 689.57,-67 714.86,-38.91 942.53,-25.35 1075.38,-19.78"/>
<polygon fill="midnightblue" stroke="midnightblue" points="1075.71,-23.27 1085.56,-19.36 1075.42,-16.28 1075.71,-23.27"/>
</g>
<!-- Node21&#45;&gt;Node10 -->
<g id="edge23" class="edge">
<title>Node21&#45;&gt;Node10</title>
<path fill="none" stroke="midnightblue" d="M1992.96,-275.04C2113.22,-269.5 2460.97,-252.78 2749.57,-232 3089.1,-207.55 3180.85,-241.46 3512.57,-165 3550.13,-156.34 3555.86,-141.99 3593.57,-134 3668.67,-118.08 4230.72,-153.68 4283.57,-98 4293.05,-88.01 4293.17,-76.88 4283.57,-67 4281.65,-65.03 2892.85,-27.58 2554.31,-18.48"/>
<polygon fill="midnightblue" stroke="midnightblue" points="2554.22,-14.98 2544.13,-18.21 2554.04,-21.97 2554.22,-14.98"/>
</g>
<!-- Node21&#45;&gt;Node12 -->
<g id="edge24" class="edge">
<title>Node21&#45;&gt;Node12</title>
<path fill="none" stroke="midnightblue" d="M1906.48,-269.25C1903.47,-268.8 1900.48,-268.38 1897.57,-268 1804.44,-255.98 1562.73,-269.33 1476.57,-232 1416.79,-206.1 1426.07,-162.67 1367.57,-134 1286.86,-94.45 1256.47,-116.73 1168.57,-98 1163.22,-96.86 1157.61,-95.59 1152.07,-94.28"/>
<polygon fill="midnightblue" stroke="midnightblue" points="1152.79,-90.85 1142.25,-91.92 1151.16,-97.66 1152.79,-90.85"/>
</g>
<!-- Node21&#45;&gt;Node13 -->
<g id="edge25" class="edge">
<title>Node21&#45;&gt;Node13</title>
<path fill="none" stroke="midnightblue" d="M1906.48,-269.22C1903.47,-268.78 1900.48,-268.36 1897.57,-268 1691.44,-242.26 1634.52,-276.3 1431.57,-232 1410.51,-227.4 1079.9,-115.67 1067.57,-98 1002.96,-5.37 919.58,-110.48 1429.57,-31 1439.3,-29.48 1449.75,-27.46 1459.45,-25.4"/>
<polygon fill="midnightblue" stroke="midnightblue" points="1460.22,-28.82 1469.24,-23.27 1458.73,-21.98 1460.22,-28.82"/>
</g>
<!-- Node21&#45;&gt;Node15 -->
<g id="edge28" class="edge">
<title>Node21&#45;&gt;Node15</title>
<path fill="none" stroke="midnightblue" d="M1992.94,-275.17C2033.43,-271.6 2093.98,-261.31 2137.57,-232 2198.36,-191.12 2211.16,-167.75 2233.57,-98 2237.78,-84.88 2239.62,-79.38 2233.57,-67 2227.46,-54.52 2216.62,-44.24 2205.52,-36.28"/>
<polygon fill="midnightblue" stroke="midnightblue" points="2207.32,-33.28 2197.05,-30.65 2203.44,-39.1 2207.32,-33.28"/>
</g>
<!-- Node21&#45;&gt;Node17 -->
<g id="edge30" class="edge">
<title>Node21&#45;&gt;Node17</title>
<path fill="none" stroke="midnightblue" d="M1992.91,-275.57C2108.97,-271.45 2424.82,-258.08 2525.57,-232 2645.71,-200.9 2776.54,-127.73 2828,-97.22"/>
<polygon fill="midnightblue" stroke="midnightblue" points="2829.87,-100.18 2836.66,-92.04 2826.28,-94.17 2829.87,-100.18"/>
</g>
<!-- Node21&#45;&gt;Node19 -->
<g id="edge32" class="edge">
<title>Node21&#45;&gt;Node19</title>
<path fill="none" stroke="midnightblue" d="M1992.85,-275.51C2117,-270.99 2472.71,-256.24 2586.57,-232 2735.28,-200.33 2902.94,-126.38 2967.37,-96.43"/>
<polygon fill="midnightblue" stroke="midnightblue" points="2969.23,-99.42 2976.8,-92.02 2966.26,-93.08 2969.23,-99.42"/>
</g>
<!-- Node22 -->
<g id="node22" class="node">
<title>Node22</title>
<g id="a_node22"><a xlink:title=" ">
<polygon fill="none" stroke="#bfbfbf" points="1495.57,-207 1495.57,-226 1539.57,-226 1539.57,-207 1495.57,-207"/>
<text text-anchor="middle" x="1517.57" y="-214" font-family="Helvetica,sans-Serif" font-size="10.00">proj.h</text>
</a>
</g>
</g>
<!-- Node21&#45;&gt;Node22 -->
<g id="edge26" class="edge">
<title>Node21&#45;&gt;Node22</title>
<path fill="none" stroke="midnightblue" d="M1906.47,-269.31C1903.46,-268.84 1900.47,-268.4 1897.57,-268 1743.1,-246.69 1698.85,-273.61 1548.57,-232 1546.64,-231.46 1544.67,-230.82 1542.72,-230.1"/>
<polygon fill="midnightblue" stroke="midnightblue" points="1543.84,-226.77 1533.27,-226.08 1541.1,-233.21 1543.84,-226.77"/>
</g>
<!-- Node23 -->
<g id="node23" class="node">
<title>Node23</title>
<g id="a_node23"><a xlink:title=" ">
<polygon fill="none" stroke="#bfbfbf" points="709.07,-67.5 709.07,-97.5 830.07,-97.5 830.07,-67.5 709.07,-67.5"/>
<text text-anchor="start" x="717.07" y="-85.5" font-family="Helvetica,sans-Serif" font-size="10.00">seerep_msgs/camera</text>
<text text-anchor="middle" x="769.57" y="-74.5" font-family="Helvetica,sans-Serif" font-size="10.00">_intrinsics.h</text>
</a>
</g>
</g>
<!-- Node21&#45;&gt;Node23 -->
<g id="edge27" class="edge">
<title>Node21&#45;&gt;Node23</title>
<path fill="none" stroke="midnightblue" d="M1906.49,-269.19C1903.47,-268.76 1900.48,-268.35 1897.57,-268 1667.58,-240.21 1606.2,-269.36 1377.57,-232 1323.63,-223.19 1312.42,-210.33 1258.57,-201 1169.1,-185.5 933.9,-203.29 851.57,-165 823.63,-152.01 799.72,-125.3 785.04,-105.99"/>
<polygon fill="midnightblue" stroke="midnightblue" points="787.71,-103.71 778.97,-97.71 782.07,-107.85 787.71,-103.71"/>
</g>
<!-- Node24 -->
<g id="node24" class="node">
<title>Node24</title>
<g id="a_node24"><a xlink:title=" ">
<polygon fill="none" stroke="#bfbfbf" points="1557.57,-201.5 1557.57,-231.5 1683.57,-231.5 1683.57,-201.5 1557.57,-201.5"/>
<text text-anchor="start" x="1565.57" y="-219.5" font-family="Helvetica,sans-Serif" font-size="10.00">seerep_msgs/geodetic</text>
<text text-anchor="middle" x="1620.57" y="-208.5" font-family="Helvetica,sans-Serif" font-size="10.00">_coordinates.h</text>
</a>
</g>
</g>
<!-- Node21&#45;&gt;Node24 -->
<g id="edge29" class="edge">
<title>Node21&#45;&gt;Node24</title>
<path fill="none" stroke="midnightblue" d="M1906.53,-269.53C1844.82,-258.8 1734.85,-239.65 1693.66,-232.15"/>
<polygon fill="midnightblue" stroke="midnightblue" points="1694.24,-228.7 1683.77,-230.32 1692.96,-235.58 1694.24,-228.7"/>
</g>
<!-- Node25 -->
<g id="node25" class="node">
<title>Node25</title>
<g id="a_node25"><a xlink:title=" ">
<polygon fill="none" stroke="#bfbfbf" points="1702.07,-201.5 1702.07,-231.5 1847.07,-231.5 1847.07,-201.5 1702.07,-201.5"/>
<text text-anchor="start" x="1710.07" y="-219.5" font-family="Helvetica,sans-Serif" font-size="10.00">seerep_msgs/query_result</text>
<text text-anchor="middle" x="1774.57" y="-208.5" font-family="Helvetica,sans-Serif" font-size="10.00">_project.h</text>
</a>
</g>
</g>
<!-- Node21&#45;&gt;Node25 -->
<g id="edge31" class="edge">
<title>Node21&#45;&gt;Node25</title>
<path fill="none" stroke="midnightblue" d="M1924.49,-268.48C1898.8,-259.74 1858.12,-245.91 1825.61,-234.86"/>
<polygon fill="midnightblue" stroke="midnightblue" points="1826.41,-231.43 1815.81,-231.52 1824.15,-238.06 1826.41,-231.43"/>
</g>
<!-- Node26 -->
<g id="node26" class="node">
<title>Node26</title>
<g id="a_node26"><a xlink:href="hdf5__core__image_8h.html" target="_top" xlink:title=" ">
<polygon fill="none" stroke="red" points="2096.57,-67.5 2096.57,-97.5 2224.57,-97.5 2224.57,-67.5 2096.57,-67.5"/>
<text text-anchor="start" x="2104.57" y="-85.5" font-family="Helvetica,sans-Serif" font-size="10.00">seerep_hdf5_core/hdf5</text>
<text text-anchor="middle" x="2160.57" y="-74.5" font-family="Helvetica,sans-Serif" font-size="10.00">_core_image.h</text>
</a>
</g>
</g>
<!-- Node21&#45;&gt;Node26 -->
<g id="edge33" class="edge">
<title>Node21&#45;&gt;Node26</title>
<path fill="none" stroke="midnightblue" d="M1992.82,-276C2029.26,-272.87 2080.45,-262.76 2112.57,-232 2147.2,-198.83 2156.89,-140.54 2159.57,-107.73"/>
<polygon fill="midnightblue" stroke="midnightblue" points="2163.07,-107.85 2160.24,-97.64 2156.08,-107.39 2163.07,-107.85"/>
</g>
<!-- Node45 -->
<g id="node27" class="node">
<title>Node45</title>
<g id="a_node27"><a xlink:href="hdf5__core__instance_8h.html" target="_top" xlink:title=" ">
<polygon fill="none" stroke="red" points="1912.57,-67.5 1912.57,-97.5 2040.57,-97.5 2040.57,-67.5 1912.57,-67.5"/>
<text text-anchor="start" x="1920.57" y="-85.5" font-family="Helvetica,sans-Serif" font-size="10.00">seerep_hdf5_core/hdf5</text>
<text text-anchor="middle" x="1976.57" y="-74.5" font-family="Helvetica,sans-Serif" font-size="10.00">_core_instance.h</text>
</a>
</g>
</g>
<!-- Node21&#45;&gt;Node45 -->
<g id="edge41" class="edge">
<title>Node21&#45;&gt;Node45</title>
<path fill="none" stroke="midnightblue" d="M1950.76,-268.44C1954.67,-240.45 1967.14,-151.03 1973.2,-107.61"/>
<polygon fill="midnightblue" stroke="midnightblue" points="1976.68,-108.02 1974.6,-97.63 1969.75,-107.05 1976.68,-108.02"/>
</g>
<!-- Node46 -->
<g id="node28" class="node">
<title>Node46</title>
<g id="a_node28"><a xlink:href="hdf5__core__point_8h.html" target="_top" xlink:title=" ">
<polygon fill="none" stroke="red" points="1582.57,-67.5 1582.57,-97.5 1710.57,-97.5 1710.57,-67.5 1582.57,-67.5"/>
<text text-anchor="start" x="1590.57" y="-85.5" font-family="Helvetica,sans-Serif" font-size="10.00">seerep_hdf5_core/hdf5</text>
<text text-anchor="middle" x="1646.57" y="-74.5" font-family="Helvetica,sans-Serif" font-size="10.00">_core_point.h</text>
</a>
</g>
</g>
<!-- Node21&#45;&gt;Node46 -->
<g id="edge49" class="edge">
<title>Node21&#45;&gt;Node46</title>
<path fill="none" stroke="midnightblue" d="M1940.9,-268.47C1925.08,-253.26 1889.97,-221.16 1855.57,-201 1818.4,-179.21 1803.57,-185.29 1765.57,-165 1731.73,-146.93 1695.78,-121.3 1672.36,-103.63"/>
<polygon fill="midnightblue" stroke="midnightblue" points="1674.4,-100.79 1664.33,-97.51 1670.16,-106.36 1674.4,-100.79"/>
</g>
<!-- Node47 -->
<g id="node29" class="node">
<title>Node47</title>
<g id="a_node29"><a xlink:href="hdf5__core__point__cloud_8h.html" target="_top" xlink:title=" ">
<polygon fill="none" stroke="red" points="1766.57,-67.5 1766.57,-97.5 1894.57,-97.5 1894.57,-67.5 1766.57,-67.5"/>
<text text-anchor="start" x="1774.57" y="-85.5" font-family="Helvetica,sans-Serif" font-size="10.00">seerep_hdf5_core/hdf5</text>
<text text-anchor="middle" x="1830.57" y="-74.5" font-family="Helvetica,sans-Serif" font-size="10.00">_core_point_cloud.h</text>
</a>
</g>
</g>
<!-- Node21&#45;&gt;Node47 -->
<g id="edge57" class="edge">
<title>Node21&#45;&gt;Node47</title>
<path fill="none" stroke="midnightblue" d="M1946.67,-268.39C1938.63,-245.26 1914.5,-180.41 1881.57,-134 1874.09,-123.47 1864.31,-113.19 1855.32,-104.68"/>
<polygon fill="midnightblue" stroke="midnightblue" points="1857.43,-101.87 1847.69,-97.7 1852.7,-107.03 1857.43,-101.87"/>
</g>
<!-- Node48 -->
<g id="node30" class="node">
<title>Node48</title>
<g id="a_node30"><a xlink:href="hdf5__core__tf_8h.html" target="_top" xlink:title=" ">
<polygon fill="none" stroke="red" points="2644.57,-67.5 2644.57,-97.5 2772.57,-97.5 2772.57,-67.5 2644.57,-67.5"/>
<text text-anchor="start" x="2652.57" y="-85.5" font-family="Helvetica,sans-Serif" font-size="10.00">seerep_hdf5_core/hdf5</text>
<text text-anchor="middle" x="2708.57" y="-74.5" font-family="Helvetica,sans-Serif" font-size="10.00">_core_tf.h</text>
</a>
</g>
</g>
<!-- Node21&#45;&gt;Node48 -->
<g id="edge65" class="edge">
<title>Node21&#45;&gt;Node48</title>
<path fill="none" stroke="midnightblue" d="M1992.88,-275.16C2100.73,-270.26 2379.05,-255.66 2468.57,-232 2537.59,-213.76 2554.55,-203.66 2614.57,-165 2641.9,-147.4 2669.58,-122.32 2687.76,-104.65"/>
<polygon fill="midnightblue" stroke="midnightblue" points="2690.27,-107.08 2694.94,-97.57 2685.36,-102.1 2690.27,-107.08"/>
</g>
<!-- Node49 -->
<g id="node31" class="node">
<title>Node49</title>
<g id="a_node31"><a xlink:href="core__camera__intrinsics_8h.html" target="_top" xlink:title=" ">
<polygon fill="none" stroke="red" points="1111.57,-207 1111.57,-226 1249.57,-226 1249.57,-207 1111.57,-207"/>
<text text-anchor="middle" x="1180.57" y="-214" font-family="Helvetica,sans-Serif" font-size="10.00">core_camera_intrinsics.h</text>
</a>
</g>
</g>
<!-- Node21&#45;&gt;Node49 -->
<g id="edge68" class="edge">
<title>Node21&#45;&gt;Node49</title>
<path fill="none" stroke="midnightblue" d="M1906.49,-269.15C1903.48,-268.72 1900.48,-268.33 1897.57,-268 1617.17,-235.88 1543.94,-264.34 1263.57,-232 1253.97,-230.89 1243.8,-229.39 1233.99,-227.77"/>
<polygon fill="midnightblue" stroke="midnightblue" points="1234.38,-224.29 1223.94,-226.06 1233.2,-231.19 1234.38,-224.29"/>
</g>
<!-- Node51 -->
<g id="node32" class="node">
<title>Node51</title>
<g id="a_node32"><a xlink:href="core__dataset_8h.html" target="_top" xlink:title=" ">
<polygon fill="none" stroke="red" points="2015.07,-207 2015.07,-226 2104.07,-226 2104.07,-207 2015.07,-207"/>
<text text-anchor="middle" x="2059.57" y="-214" font-family="Helvetica,sans-Serif" font-size="10.00">core_dataset.h</text>
</a>
</g>
</g>
<!-- Node21&#45;&gt;Node51 -->
<g id="edge70" class="edge">
<title>Node21&#45;&gt;Node51</title>
<path fill="none" stroke="midnightblue" d="M1965.33,-268.48C1983.54,-258.62 2013.74,-242.29 2035.04,-230.77"/>
<polygon fill="midnightblue" stroke="midnightblue" points="2036.71,-233.85 2043.84,-226.01 2033.38,-227.69 2036.71,-233.85"/>
</g>
<!-- Node58 -->
<g id="node34" class="node">
<title>Node58</title>
<g id="a_node34"><a xlink:href="core__instances_8h.html" target="_top" xlink:title=" ">
<polygon fill="none" stroke="red" points="1774.57,-140 1774.57,-159 1872.57,-159 1872.57,-140 1774.57,-140"/>
<text text-anchor="middle" x="1823.57" y="-147" font-family="Helvetica,sans-Serif" font-size="10.00">core_instances.h</text>
</a>
</g>
</g>
<!-- Node21&#45;&gt;Node58 -->
<g id="edge99" class="edge">
<title>Node21&#45;&gt;Node58</title>
<path fill="none" stroke="midnightblue" d="M1906.48,-269.26C1903.47,-268.8 1900.47,-268.38 1897.57,-268 1852.11,-262.09 1517.54,-265.8 1486.57,-232 1477.26,-221.84 1477.58,-211.44 1486.57,-201 1521.72,-160.19 1677.38,-151.88 1764.32,-150.49"/>
<polygon fill="midnightblue" stroke="midnightblue" points="1764.61,-153.99 1774.57,-150.35 1764.52,-146.99 1764.61,-153.99"/>
</g>
<!-- Node60 -->
<g id="node35" class="node">
<title>Node60</title>
<g id="a_node35"><a xlink:href="core__tf_8h.html" target="_top" xlink:title=" ">
<polygon fill="none" stroke="red" points="2547.07,-140 2547.07,-159 2606.07,-159 2606.07,-140 2547.07,-140"/>
<text text-anchor="middle" x="2576.57" y="-147" font-family="Helvetica,sans-Serif" font-size="10.00">core_tf.h</text>
</a>
</g>
</g>
<!-- Node21&#45;&gt;Node60 -->
<g id="edge100" class="edge">
<title>Node21&#45;&gt;Node60</title>
<path fill="none" stroke="midnightblue" d="M1992.79,-274.95C2093.12,-269.85 2339.31,-255.3 2418.57,-232 2470.94,-216.6 2526.36,-183.58 2555.62,-164.64"/>
<polygon fill="midnightblue" stroke="midnightblue" points="2557.73,-167.44 2564.16,-159.02 2553.88,-161.59 2557.73,-167.44"/>
</g>
<!-- Node21&#45;&gt;Node37 -->
<g id="edge101" class="edge">
<title>Node21&#45;&gt;Node37</title>
<path fill="none" stroke="midnightblue" d="M1906.5,-269.08C1903.48,-268.67 1900.48,-268.3 1897.57,-268 1459.65,-222.35 1345.41,-278.34 907.57,-232 737.03,-213.95 683.51,-236.36 527.57,-165 510.83,-157.34 474.34,-125.9 450.38,-104.39"/>
<polygon fill="midnightblue" stroke="midnightblue" points="452.54,-101.63 442.78,-97.52 447.85,-106.82 452.54,-101.63"/>
</g>
<!-- Node21&#45;&gt;Node38 -->
<g id="edge102" class="edge">
<title>Node21&#45;&gt;Node38</title>
<path fill="none" stroke="midnightblue" d="M1992.62,-276.99C2103.64,-276.38 2408.43,-270.98 2658.57,-232 2872.51,-198.66 3122.09,-123.93 3214.11,-95.13"/>
<polygon fill="midnightblue" stroke="midnightblue" points="3215.3,-98.43 3223.79,-92.09 3213.2,-91.75 3215.3,-98.43"/>
</g>
<!-- Node26&#45;&gt;Node6 -->
<g id="edge36" class="edge">
<title>Node26&#45;&gt;Node6</title>
<path fill="none" stroke="midnightblue" d="M2195.94,-67.4C2224.79,-55.89 2265.14,-39.8 2292.7,-28.81"/>
<polygon fill="midnightblue" stroke="midnightblue" points="2294.24,-31.96 2302.23,-25.01 2291.65,-25.46 2294.24,-31.96"/>
</g>
<!-- Node26&#45;&gt;Node7 -->
<g id="edge37" class="edge">
<title>Node26&#45;&gt;Node7</title>
<path fill="none" stroke="midnightblue" d="M2126.07,-67.4C2097.92,-55.89 2058.56,-39.8 2031.67,-28.81"/>
<polygon fill="midnightblue" stroke="midnightblue" points="2032.96,-25.55 2022.38,-25.01 2030.31,-32.03 2032.96,-25.55"/>
</g>
<!-- Node26&#45;&gt;Node8 -->
<g id="edge38" class="edge">
<title>Node26&#45;&gt;Node8</title>
<path fill="none" stroke="midnightblue" d="M2096.38,-72.35C2081.06,-70.38 2064.75,-68.45 2049.57,-67 1788.5,-42 1721.38,-58.61 1460.57,-31 1449.16,-29.79 1437.03,-28.2 1425.37,-26.52"/>
<polygon fill="midnightblue" stroke="midnightblue" points="1425.68,-23.03 1415.28,-25.02 1424.66,-29.95 1425.68,-23.03"/>
</g>
<!-- Node26&#45;&gt;Node9 -->
<g id="edge39" class="edge">
<title>Node26&#45;&gt;Node9</title>
<path fill="none" stroke="midnightblue" d="M2096.39,-72.21C2081.08,-70.24 2064.76,-68.35 2049.57,-67 1716.73,-37.33 1631.65,-57.82 1298.57,-31 1282.41,-29.7 1265.15,-27.97 1248.7,-26.17"/>
<polygon fill="midnightblue" stroke="midnightblue" points="1248.9,-22.67 1238.58,-25.03 1248.13,-29.62 1248.9,-22.67"/>
</g>
<!-- Node26&#45;&gt;Node10 -->
<g id="edge40" class="edge">
<title>Node26&#45;&gt;Node10</title>
<path fill="none" stroke="midnightblue" d="M2224.94,-68.42C2284.9,-56.24 2373.17,-38.31 2428.73,-27.03"/>
<polygon fill="midnightblue" stroke="midnightblue" points="2429.6,-30.42 2438.71,-25 2428.21,-23.56 2429.6,-30.42"/>
</g>
<!-- Node26&#45;&gt;Node13 -->
<g id="edge35" class="edge">
<title>Node26&#45;&gt;Node13</title>
<path fill="none" stroke="midnightblue" d="M2096.35,-72.68C2081.03,-70.7 2064.73,-68.68 2049.57,-67 1856.82,-45.6 1625.47,-26.6 1535.74,-19.48"/>
<polygon fill="midnightblue" stroke="midnightblue" points="1536,-15.99 1525.75,-18.69 1535.45,-22.97 1536,-15.99"/>
</g>
<!-- Node26&#45;&gt;Node15 -->
<g id="edge34" class="edge">
<title>Node26&#45;&gt;Node15</title>
<path fill="none" stroke="midnightblue" d="M2162.3,-67.4C2163.27,-59.56 2164.49,-49.6 2165.61,-40.57"/>
<polygon fill="midnightblue" stroke="midnightblue" points="2169.09,-40.93 2166.84,-30.58 2162.14,-40.07 2169.09,-40.93"/>
</g>
<!-- Node45&#45;&gt;Node6 -->
<g id="edge43" class="edge">
<title>Node45&#45;&gt;Node6</title>
<path fill="none" stroke="midnightblue" d="M2040.62,-69.5C2105.91,-57.27 2206.17,-38.49 2268.15,-26.88"/>
<polygon fill="midnightblue" stroke="midnightblue" points="2268.95,-30.29 2278.14,-25.01 2267.66,-23.41 2268.95,-30.29"/>
</g>
<!-- Node45&#45;&gt;Node7 -->
<g id="edge44" class="edge">
<title>Node45&#45;&gt;Node7</title>
<path fill="none" stroke="midnightblue" d="M1981.99,-67.4C1985.7,-57.76 1990.64,-44.91 1994.63,-34.54"/>
<polygon fill="midnightblue" stroke="midnightblue" points="1997.9,-35.78 1998.22,-25.19 1991.37,-33.27 1997.9,-35.78"/>
</g>
<!-- Node45&#45;&gt;Node8 -->
<g id="edge45" class="edge">
<title>Node45&#45;&gt;Node8</title>
<path fill="none" stroke="midnightblue" d="M1912.54,-68.35C1909.51,-67.86 1906.51,-67.41 1903.57,-67 1707.92,-39.71 1656.79,-53.76 1460.57,-31 1449.67,-29.74 1438.11,-28.18 1426.93,-26.56"/>
<polygon fill="midnightblue" stroke="midnightblue" points="1427.2,-23.06 1416.8,-25.06 1426.17,-29.98 1427.2,-23.06"/>
</g>
<!-- Node45&#45;&gt;Node9 -->
<g id="edge46" class="edge">
<title>Node45&#45;&gt;Node9</title>
<path fill="none" stroke="midnightblue" d="M1912.55,-68.27C1909.52,-67.81 1906.52,-67.38 1903.57,-67 1636.4,-32.68 1566.93,-54.17 1298.57,-31 1282.7,-29.63 1265.75,-27.9 1249.56,-26.12"/>
<polygon fill="midnightblue" stroke="midnightblue" points="1249.91,-22.63 1239.59,-25 1249.14,-29.59 1249.91,-22.63"/>
</g>
<!-- Node45&#45;&gt;Node10 -->
<g id="edge47" class="edge">
<title>Node45&#45;&gt;Node10</title>
<path fill="none" stroke="midnightblue" d="M2040.82,-72.92C2056.13,-70.93 2072.42,-68.85 2087.57,-67 2227.88,-49.84 2263.8,-52.09 2403.57,-31 2411.6,-29.79 2420.08,-28.35 2428.35,-26.86"/>
<polygon fill="midnightblue" stroke="midnightblue" points="2429.1,-30.28 2438.3,-25.03 2427.83,-23.4 2429.1,-30.28"/>
</g>
<!-- Node45&#45;&gt;Node13 -->
<g id="edge48" class="edge">
<title>Node45&#45;&gt;Node13</title>
<path fill="none" stroke="midnightblue" d="M1912.52,-68.51C1909.5,-67.98 1906.5,-67.47 1903.57,-67 1768.89,-45.28 1607.78,-27.73 1535.7,-20.31"/>
<polygon fill="midnightblue" stroke="midnightblue" points="1536.03,-16.83 1525.72,-19.29 1535.32,-23.79 1536.03,-16.83"/>
</g>
<!-- Node45&#45;&gt;Node20 -->
<g id="edge42" class="edge">
<title>Node45&#45;&gt;Node20</title>
<path fill="none" stroke="midnightblue" d="M2040.74,-72.21C2056.06,-70.25 2072.37,-68.36 2087.57,-67 2425.64,-36.76 2827.27,-23.71 3017.35,-18.91"/>
<polygon fill="midnightblue" stroke="midnightblue" points="3017.44,-22.4 3027.35,-18.66 3017.26,-15.41 3017.44,-22.4"/>
</g>
<!-- Node46&#45;&gt;Node6 -->
<g id="edge52" class="edge">
<title>Node46&#45;&gt;Node6</title>
<path fill="none" stroke="midnightblue" d="M1710.77,-72.5C1726.09,-70.53 1742.39,-68.56 1757.57,-67 1970.38,-45.14 2025.2,-56.81 2237.57,-31 2247.38,-29.81 2257.77,-28.28 2267.82,-26.67"/>
<polygon fill="midnightblue" stroke="midnightblue" points="2268.41,-30.12 2277.71,-25.04 2267.27,-23.21 2268.41,-30.12"/>
</g>
<!-- Node46&#45;&gt;Node7 -->
<g id="edge53" class="edge">
<title>Node46&#45;&gt;Node7</title>
<path fill="none" stroke="midnightblue" d="M1710.84,-69.53C1715.48,-68.67 1720.1,-67.82 1724.57,-67 1800.6,-53 1888.41,-37.03 1944.43,-26.86"/>
<polygon fill="midnightblue" stroke="midnightblue" points="1945.29,-30.26 1954.51,-25.03 1944.04,-23.37 1945.29,-30.26"/>
</g>
<!-- Node46&#45;&gt;Node8 -->
<g id="edge54" class="edge">
<title>Node46&#45;&gt;Node8</title>
<path fill="none" stroke="midnightblue" d="M1585.72,-67.48C1533.42,-55.42 1459.09,-38.29 1411.34,-27.28"/>
<polygon fill="midnightblue" stroke="midnightblue" points="1412.1,-23.86 1401.57,-25.03 1410.53,-30.69 1412.1,-23.86"/>
</g>
<!-- Node46&#45;&gt;Node9 -->
<g id="edge55" class="edge">
<title>Node46&#45;&gt;Node9</title>
<path fill="none" stroke="midnightblue" d="M1582.37,-72.73C1494.07,-60.68 1335.59,-39.04 1243.11,-26.41"/>
<polygon fill="midnightblue" stroke="midnightblue" points="1243.37,-22.91 1232.99,-25.02 1242.43,-29.85 1243.37,-22.91"/>
</g>
<!-- Node46&#45;&gt;Node10 -->
<g id="edge56" class="edge">
<title>Node46&#45;&gt;Node10</title>
<path fill="none" stroke="midnightblue" d="M1710.75,-72.29C1726.07,-70.32 1742.38,-68.41 1757.57,-67 2043.89,-40.36 2118.11,-65.68 2403.57,-31 2412.4,-29.93 2421.74,-28.46 2430.76,-26.86"/>
<polygon fill="midnightblue" stroke="midnightblue" points="2431.56,-30.27 2440.76,-25.02 2430.29,-23.39 2431.56,-30.27"/>
</g>
<!-- Node46&#45;&gt;Node13 -->
<g id="edge51" class="edge">
<title>Node46&#45;&gt;Node13</title>
<path fill="none" stroke="midnightblue" d="M1614.24,-67.4C1588.09,-55.99 1551.62,-40.08 1526.45,-29.1"/>
<polygon fill="midnightblue" stroke="midnightblue" points="1527.63,-25.8 1517.07,-25.01 1524.83,-32.21 1527.63,-25.8"/>
</g>
<!-- Node46&#45;&gt;Node15 -->
<g id="edge50" class="edge">
<title>Node46&#45;&gt;Node15</title>
<path fill="none" stroke="midnightblue" d="M1710.82,-72.93C1726.13,-70.93 1742.42,-68.85 1757.57,-67 1897.43,-49.87 1932.88,-49.53 2072.57,-31 2080.79,-29.91 2089.41,-28.7 2097.95,-27.46"/>
<polygon fill="midnightblue" stroke="midnightblue" points="2098.54,-30.91 2107.93,-26 2097.53,-23.99 2098.54,-30.91"/>
</g>
<!-- Node47&#45;&gt;Node6 -->
<g id="edge60" class="edge">
<title>Node47&#45;&gt;Node6</title>
<path fill="none" stroke="midnightblue" d="M1894.6,-68.45C1897.63,-67.93 1900.63,-67.45 1903.57,-67 2051.16,-44.43 2089.67,-51.42 2237.57,-31 2246.71,-29.74 2256.37,-28.25 2265.79,-26.73"/>
<polygon fill="midnightblue" stroke="midnightblue" points="2266.59,-30.14 2275.88,-25.06 2265.45,-23.24 2266.59,-30.14"/>
</g>
<!-- Node47&#45;&gt;Node7 -->
<g id="edge61" class="edge">
<title>Node47&#45;&gt;Node7</title>
<path fill="none" stroke="midnightblue" d="M1867.67,-67.4C1898.07,-55.84 1940.65,-39.66 1969.57,-28.66"/>
<polygon fill="midnightblue" stroke="midnightblue" points="1971.08,-31.83 1979.19,-25.01 1968.6,-25.29 1971.08,-31.83"/>
</g>
<!-- Node47&#45;&gt;Node8 -->
<g id="edge62" class="edge">
<title>Node47&#45;&gt;Node8</title>
<path fill="none" stroke="midnightblue" d="M1766.36,-73.02C1692.54,-63.2 1567.73,-46.41 1460.57,-31 1450.74,-29.59 1440.36,-28.06 1430.2,-26.54"/>
<polygon fill="midnightblue" stroke="midnightblue" points="1430.54,-23.05 1420.13,-25.03 1429.5,-29.98 1430.54,-23.05"/>
</g>
<!-- Node47&#45;&gt;Node9 -->
<g id="edge63" class="edge">
<title>Node47&#45;&gt;Node9</title>
<path fill="none" stroke="midnightblue" d="M1766.35,-72.62C1751.04,-70.64 1734.74,-68.64 1719.57,-67 1532.86,-46.83 1485.44,-49.57 1298.57,-31 1283.69,-29.52 1267.85,-27.83 1252.57,-26.13"/>
<polygon fill="midnightblue" stroke="midnightblue" points="1252.95,-22.65 1242.63,-25.01 1252.17,-29.61 1252.95,-22.65"/>
</g>
<!-- Node47&#45;&gt;Node10 -->
<g id="edge64" class="edge">
<title>Node47&#45;&gt;Node10</title>
<path fill="none" stroke="midnightblue" d="M1894.59,-68.32C1897.62,-67.84 1900.62,-67.4 1903.57,-67 2124.37,-37.24 2182.62,-59.66 2403.57,-31 2412.1,-29.89 2421.12,-28.45 2429.86,-26.9"/>
<polygon fill="midnightblue" stroke="midnightblue" points="2430.74,-30.3 2439.95,-25.05 2429.48,-23.41 2430.74,-30.3"/>
</g>
<!-- Node47&#45;&gt;Node13 -->
<g id="edge59" class="edge">
<title>Node47&#45;&gt;Node13</title>
<path fill="none" stroke="midnightblue" d="M1766.36,-68.97C1698.04,-55.63 1592.2,-34.97 1535.88,-23.98"/>
<polygon fill="midnightblue" stroke="midnightblue" points="1536.44,-20.52 1525.96,-22.04 1535.1,-27.39 1536.44,-20.52"/>
</g>
<!-- Node47&#45;&gt;Node15 -->
<g id="edge58" class="edge">
<title>Node47&#45;&gt;Node15</title>
<path fill="none" stroke="midnightblue" d="M1894.66,-68.74C1897.67,-68.15 1900.65,-67.57 1903.57,-67 1969.43,-54.18 2044.57,-39.9 2097.98,-29.8"/>
<polygon fill="midnightblue" stroke="midnightblue" points="2098.85,-33.2 2108.02,-27.9 2097.55,-26.32 2098.85,-33.2"/>
</g>
<!-- Node48&#45;&gt;Node13 -->
<g id="edge67" class="edge">
<title>Node48&#45;&gt;Node13</title>
<path fill="none" stroke="midnightblue" d="M2644.49,-68.34C2641.14,-67.84 2637.82,-67.39 2634.57,-67 2523.66,-53.75 1721.67,-24.51 1535.91,-17.86"/>
<polygon fill="midnightblue" stroke="midnightblue" points="1535.92,-14.36 1525.8,-17.5 1535.67,-21.36 1535.92,-14.36"/>
</g>
<!-- Node48&#45;&gt;Node20 -->
<g id="edge66" class="edge">
<title>Node48&#45;&gt;Node20</title>
<path fill="none" stroke="midnightblue" d="M2772.63,-68.58C2775.65,-68.03 2778.64,-67.5 2781.57,-67 2874.51,-51 2982.08,-35.82 3052.28,-26.36"/>
<polygon fill="midnightblue" stroke="midnightblue" points="3052.92,-29.8 3062.36,-25 3051.99,-22.87 3052.92,-29.8"/>
</g>
<!-- Node49&#45;&gt;Node23 -->
<g id="edge69" class="edge">
<title>Node49&#45;&gt;Node23</title>
<path fill="none" stroke="midnightblue" d="M1111.46,-207.2C1094.49,-205.17 1076.37,-203 1059.57,-201 992.02,-192.95 800.75,-215.85 755.57,-165 741.65,-149.33 748.15,-125.04 756.32,-107.04"/>
<polygon fill="midnightblue" stroke="midnightblue" points="759.6,-108.31 760.9,-97.79 753.33,-105.2 759.6,-108.31"/>
</g>
<!-- Node51&#45;&gt;Node6 -->
<g id="edge94" class="edge">
<title>Node51&#45;&gt;Node6</title>
<path fill="none" stroke="midnightblue" d="M2081.54,-206.9C2121.7,-190.38 2208.2,-151.13 2266.57,-98 2287.16,-79.26 2304.42,-51.79 2314.38,-34.03"/>
<polygon fill="midnightblue" stroke="midnightblue" points="2317.56,-35.51 2319.26,-25.05 2311.41,-32.17 2317.56,-35.51"/>
</g>
<!-- Node51&#45;&gt;Node7 -->
<g id="edge95" class="edge">
<title>Node51&#45;&gt;Node7</title>
<path fill="none" stroke="midnightblue" d="M2060.92,-206.99C2064.27,-183.49 2071.17,-116.21 2049.57,-67 2043.43,-53.02 2031.67,-40.54 2021.33,-31.49"/>
<polygon fill="midnightblue" stroke="midnightblue" points="2023.41,-28.67 2013.47,-25 2018.95,-34.07 2023.41,-28.67"/>
</g>
<!-- Node51&#45;&gt;Node8 -->
<g id="edge96" class="edge">
<title>Node51&#45;&gt;Node8</title>
<path fill="none" stroke="midnightblue" d="M2015.02,-211.89C1973.72,-208.64 1910.52,-203.95 1855.57,-201 1800.55,-198.05 902.81,-204.66 864.57,-165 832.02,-131.25 890.64,-77.87 908.57,-67 976.55,-25.76 1185.65,-40.71 1264.57,-31 1275.68,-29.63 1287.46,-28.05 1298.89,-26.44"/>
<polygon fill="midnightblue" stroke="midnightblue" points="1299.42,-29.9 1308.82,-25.02 1298.43,-22.97 1299.42,-29.9"/>
</g>
<!-- Node51&#45;&gt;Node9 -->
<g id="edge97" class="edge">
<title>Node51&#45;&gt;Node9</title>
<path fill="none" stroke="midnightblue" d="M2015.02,-211.88C1973.72,-208.63 1910.52,-203.94 1855.57,-201 1632.63,-189.08 1069.17,-214.92 851.57,-165 779.61,-148.49 739.89,-159.84 699.57,-98 692.04,-86.46 690.36,-77.25 699.57,-67 724.19,-39.59 945.15,-25.81 1075.49,-20.01"/>
<polygon fill="midnightblue" stroke="midnightblue" points="1075.65,-23.5 1085.49,-19.57 1075.35,-16.51 1075.65,-23.5"/>
</g>
<!-- Node51&#45;&gt;Node10 -->
<g id="edge98" class="edge">
<title>Node51&#45;&gt;Node10</title>
<path fill="none" stroke="midnightblue" d="M2090.04,-206.97C2120.77,-197.96 2169.3,-182.65 2209.57,-165 2305.45,-122.98 2412.6,-58.75 2458.15,-30.57"/>
<polygon fill="midnightblue" stroke="midnightblue" points="2460.26,-33.38 2466.9,-25.13 2456.56,-27.43 2460.26,-33.38"/>
</g>
<!-- Node51&#45;&gt;Node12 -->
<g id="edge71" class="edge">
<title>Node51&#45;&gt;Node12</title>
<path fill="none" stroke="midnightblue" d="M2014.74,-209.55C1913.13,-196.06 1657.48,-162.15 1443.57,-134 1321.36,-117.92 1289.72,-120.74 1168.57,-98 1163.06,-96.97 1157.3,-95.74 1151.62,-94.44"/>
<polygon fill="midnightblue" stroke="midnightblue" points="1152.12,-90.96 1141.58,-92.05 1150.5,-97.77 1152.12,-90.96"/>
</g>
<!-- Node51&#45;&gt;Node13 -->
<g id="edge72" class="edge">
<title>Node51&#45;&gt;Node13</title>
<path fill="none" stroke="midnightblue" d="M2044.96,-206.76C2015.34,-189.5 1945.56,-151.24 1881.57,-134 1801.8,-112.51 1572.08,-154.24 1511.57,-98 1494.59,-82.22 1493.46,-53.94 1494.94,-35.19"/>
<polygon fill="midnightblue" stroke="midnightblue" points="1498.42,-35.51 1496.04,-25.19 1491.47,-34.74 1498.42,-35.51"/>
</g>
<!-- Node51&#45;&gt;Node17 -->
<g id="edge74" class="edge">
<title>Node51&#45;&gt;Node17</title>
<path fill="none" stroke="midnightblue" d="M2104.36,-215.08C2199.43,-213.38 2427.98,-205.09 2614.57,-165 2654.56,-156.41 2763.88,-116.18 2818.55,-95.64"/>
<polygon fill="midnightblue" stroke="midnightblue" points="2819.97,-98.84 2828.09,-92.04 2817.5,-92.29 2819.97,-98.84"/>
</g>
<!-- Node31 -->
<g id="node33" class="node">
<title>Node31</title>
<g id="a_node33"><a xlink:title=" ">
<polygon fill="none" stroke="#bfbfbf" points="2509.07,-73 2509.07,-92 2626.07,-92 2626.07,-73 2509.07,-73"/>
<text text-anchor="middle" x="2567.57" y="-80" font-family="Helvetica,sans-Serif" font-size="10.00">seerep_msgs/aabb.h</text>
</a>
</g>
</g>
<!-- Node51&#45;&gt;Node31 -->
<g id="edge73" class="edge">
<title>Node51&#45;&gt;Node31</title>
<path fill="none" stroke="midnightblue" d="M2104.13,-207.66C2153.45,-198.68 2235.17,-182.86 2304.57,-165 2387.51,-143.66 2483.17,-112.27 2533.12,-95.35"/>
<polygon fill="midnightblue" stroke="midnightblue" points="2534.44,-98.6 2542.78,-92.07 2532.18,-91.97 2534.44,-98.6"/>
</g>
<!-- Node51&#45;&gt;Node58 -->
<g id="edge75" class="edge">
<title>Node51&#45;&gt;Node58</title>
<path fill="none" stroke="midnightblue" d="M2028.23,-206.87C1986.06,-195.25 1910.98,-174.58 1864.42,-161.75"/>
<polygon fill="midnightblue" stroke="midnightblue" points="1865.23,-158.34 1854.66,-159.06 1863.37,-165.09 1865.23,-158.34"/>
</g>
<!-- Node51&#45;&gt;Node60 -->
<g id="edge84" class="edge">
<title>Node51&#45;&gt;Node60</title>
<path fill="none" stroke="midnightblue" d="M2104.14,-211.21C2183.05,-203.42 2352.39,-185.8 2494.57,-165 2508.47,-162.97 2523.64,-160.38 2537.11,-157.97"/>
<polygon fill="midnightblue" stroke="midnightblue" points="2537.82,-161.4 2547.03,-156.16 2536.57,-154.51 2537.82,-161.4"/>
</g>
<!-- Node58&#45;&gt;Node6 -->
<g id="edge79" class="edge">
<title>Node58&#45;&gt;Node6</title>
<path fill="none" stroke="midnightblue" d="M1872.57,-146.16C1966.95,-141.06 2170.23,-126.99 2233.57,-98 2250.56,-90.22 2287.2,-54.11 2308.11,-32.65"/>
<polygon fill="midnightblue" stroke="midnightblue" points="2310.85,-34.86 2315.28,-25.23 2305.82,-29.99 2310.85,-34.86"/>
</g>
<!-- Node58&#45;&gt;Node7 -->
<g id="edge80" class="edge">
<title>Node58&#45;&gt;Node7</title>
<path fill="none" stroke="midnightblue" d="M1807.5,-139.92C1781.68,-125.05 1735.96,-93.54 1757.57,-67 1778.89,-40.81 1864.98,-27.78 1928.89,-21.6"/>
<polygon fill="midnightblue" stroke="midnightblue" points="1929.31,-25.08 1938.95,-20.67 1928.67,-18.11 1929.31,-25.08"/>
</g>
<!-- Node58&#45;&gt;Node8 -->
<g id="edge81" class="edge">
<title>Node58&#45;&gt;Node8</title>
<path fill="none" stroke="midnightblue" d="M1790.05,-139.94C1780.57,-137.75 1770.21,-135.57 1760.57,-134 1678.59,-120.66 1452.6,-150.89 1388.57,-98 1370.12,-82.76 1365.41,-54.1 1364.44,-35.15"/>
<polygon fill="midnightblue" stroke="midnightblue" points="1367.94,-34.98 1364.23,-25.06 1360.94,-35.13 1367.94,-34.98"/>
</g>
<!-- Node58&#45;&gt;Node9 -->
<g id="edge82" class="edge">
<title>Node58&#45;&gt;Node9</title>
<path fill="none" stroke="midnightblue" d="M1791.06,-139.95C1781.32,-137.68 1770.56,-135.46 1760.57,-134 1697.66,-124.84 1238.09,-139.07 1189.57,-98 1171.57,-82.77 1168.76,-54.11 1169.11,-35.16"/>
<polygon fill="midnightblue" stroke="midnightblue" points="1172.61,-35.22 1169.61,-25.06 1165.62,-34.87 1172.61,-35.22"/>
</g>
<!-- Node58&#45;&gt;Node10 -->
<g id="edge83" class="edge">
<title>Node58&#45;&gt;Node10</title>
<path fill="none" stroke="midnightblue" d="M1872.78,-146.9C1955.29,-143.34 2126.3,-132.13 2266.57,-98 2336.16,-81.07 2413.78,-47.61 2453.67,-29.27"/>
<polygon fill="midnightblue" stroke="midnightblue" points="2455.14,-32.44 2462.74,-25.05 2452.19,-26.09 2455.14,-32.44"/>
</g>
<!-- Node58&#45;&gt;Node12 -->
<g id="edge76" class="edge">
<title>Node58&#45;&gt;Node12</title>
<path fill="none" stroke="midnightblue" d="M1791.06,-139.93C1781.32,-137.66 1770.57,-135.44 1760.57,-134 1494.39,-95.71 1421.17,-145.98 1156.57,-98 1152.1,-97.19 1147.46,-96.09 1142.91,-94.86"/>
<polygon fill="midnightblue" stroke="midnightblue" points="1143.78,-91.47 1133.2,-92 1141.81,-98.18 1143.78,-91.47"/>
</g>
<!-- Node58&#45;&gt;Node13 -->
<g id="edge77" class="edge">
<title>Node58&#45;&gt;Node13</title>
<path fill="none" stroke="midnightblue" d="M1789.37,-139.94C1780.07,-137.8 1769.96,-135.65 1760.57,-134 1695.3,-122.55 1508.5,-147.6 1464.57,-98 1447.87,-79.15 1466.4,-50.74 1481.69,-32.93"/>
<polygon fill="midnightblue" stroke="midnightblue" points="1484.64,-34.88 1488.77,-25.12 1479.46,-30.18 1484.64,-34.88"/>
</g>
<!-- Node58&#45;&gt;Node45 -->
<g id="edge78" class="edge">
<title>Node58&#45;&gt;Node45</title>
<path fill="none" stroke="midnightblue" d="M1843.88,-139.87C1866.84,-130.12 1904.85,-113.97 1934.31,-101.45"/>
<polygon fill="midnightblue" stroke="midnightblue" points="1935.71,-104.66 1943.55,-97.53 1932.98,-98.22 1935.71,-104.66"/>
</g>
<!-- Node60&#45;&gt;Node12 -->
<g id="edge85" class="edge">
<title>Node60&#45;&gt;Node12</title>
<path fill="none" stroke="midnightblue" d="M2546.82,-148C2370.98,-144.93 1465.96,-127.92 1189.57,-98 1177.29,-96.67 1164.06,-94.56 1151.96,-92.35"/>
<polygon fill="midnightblue" stroke="midnightblue" points="1152.59,-88.9 1142.11,-90.49 1151.29,-95.78 1152.59,-88.9"/>
</g>
<!-- Node60&#45;&gt;Node13 -->
<g id="edge86" class="edge">
<title>Node60&#45;&gt;Node13</title>
<path fill="none" stroke="midnightblue" d="M2546.96,-147.88C2382.21,-144.33 1584.14,-125.75 1540.57,-98 1518.35,-83.86 1506.93,-54.2 1501.6,-34.84"/>
<polygon fill="midnightblue" stroke="midnightblue" points="1504.98,-33.93 1499.19,-25.06 1498.19,-35.6 1504.98,-33.93"/>
</g>
<!-- Node60&#45;&gt;Node17 -->
<g id="edge88" class="edge">
<title>Node60&#45;&gt;Node17</title>
<path fill="none" stroke="midnightblue" d="M2601.1,-139.92C2607.41,-137.86 2614.21,-135.74 2620.57,-134 2637.75,-129.3 2738.15,-107.59 2800.49,-94.21"/>
<polygon fill="midnightblue" stroke="midnightblue" points="2801.48,-97.58 2810.53,-92.06 2800.01,-90.73 2801.48,-97.58"/>
</g>
<!-- Node60&#45;&gt;Node19 -->
<g id="edge89" class="edge">
<title>Node60&#45;&gt;Node19</title>
<path fill="none" stroke="midnightblue" d="M2606.37,-144.53C2665.85,-136.51 2803.47,-117.47 2918.57,-98 2926.03,-96.74 2933.88,-95.33 2941.6,-93.9"/>
<polygon fill="midnightblue" stroke="midnightblue" points="2942.44,-97.3 2951.62,-92.02 2941.14,-90.42 2942.44,-97.3"/>
</g>
<!-- Node60&#45;&gt;Node20 -->
<g id="edge90" class="edge">
<title>Node60&#45;&gt;Node20</title>
<path fill="none" stroke="midnightblue" d="M2606.26,-148.61C2700.32,-148.47 2990.19,-144.21 3069.57,-98 3094.5,-83.48 3111.5,-53.48 3120.36,-34.21"/>
<polygon fill="midnightblue" stroke="midnightblue" points="3123.58,-35.58 3124.35,-25.01 3117.16,-32.79 3123.58,-35.58"/>
</g>
<!-- Node60&#45;&gt;Node48 -->
<g id="edge91" class="edge">
<title>Node60&#45;&gt;Node48</title>
<path fill="none" stroke="midnightblue" d="M2594.1,-139.87C2613.5,-130.31 2645.36,-114.63 2670.54,-102.22"/>
<polygon fill="midnightblue" stroke="midnightblue" points="2672.4,-105.21 2679.83,-97.65 2669.31,-98.93 2672.4,-105.21"/>
</g>
<!-- Node60&#45;&gt;Node31 -->
<g id="edge87" class="edge">
<title>Node60&#45;&gt;Node31</title>
<path fill="none" stroke="midnightblue" d="M2575.35,-139.73C2574.03,-130.18 2571.88,-114.62 2570.17,-102.28"/>
<polygon fill="midnightblue" stroke="midnightblue" points="2573.6,-101.55 2568.76,-92.13 2566.67,-102.51 2573.6,-101.55"/>
</g>
<!-- Node60&#45;&gt;Node37 -->
<g id="edge92" class="edge">
<title>Node60&#45;&gt;Node37</title>
<path fill="none" stroke="midnightblue" d="M2546.82,-147.81C2337.34,-142.91 1081.28,-113.31 699.57,-98 636.09,-95.45 564.33,-91.59 510.46,-88.49"/>
<polygon fill="midnightblue" stroke="midnightblue" points="510.46,-84.98 500.28,-87.9 510.06,-91.97 510.46,-84.98"/>
</g>
<!-- Node60&#45;&gt;Node38 -->
<g id="edge93" class="edge">
<title>Node60&#45;&gt;Node38</title>
<path fill="none" stroke="midnightblue" d="M2606.32,-146.3C2690.46,-139.96 2937.25,-120.71 3141.57,-98 3155.16,-96.49 3169.67,-94.69 3183.53,-92.88"/>
<polygon fill="midnightblue" stroke="midnightblue" points="3184.03,-96.34 3193.49,-91.56 3183.12,-89.4 3184.03,-96.34"/>
</g>
<!-- Node66&#45;&gt;Node3 -->
<g id="edge153" class="edge">
<title>Node66&#45;&gt;Node3</title>
<path fill="none" stroke="midnightblue" d="M3297.91,-451.47C3162.27,-427.87 2824.11,-369.02 2687.35,-345.23"/>
<polygon fill="midnightblue" stroke="midnightblue" points="2687.92,-341.77 2677.47,-343.51 2686.72,-348.67 2687.92,-341.77"/>
</g>
<!-- Node66&#45;&gt;Node6 -->
<g id="edge154" class="edge">
<title>Node66&#45;&gt;Node6</title>
<path fill="none" stroke="midnightblue" d="M3413.32,-456.73C3720.78,-430.29 5143.1,-294.77 4918.57,-67 4869.6,-17.32 2477.03,-37.45 2407.57,-31 2397.07,-30.02 2385.91,-28.47 2375.27,-26.73"/>
<polygon fill="midnightblue" stroke="midnightblue" points="2375.71,-23.26 2365.27,-25.02 2374.54,-30.16 2375.71,-23.26"/>
</g>
<!-- Node66&#45;&gt;Node7 -->
<g id="edge155" class="edge">
<title>Node66&#45;&gt;Node7</title>
<path fill="none" stroke="midnightblue" d="M3309.39,-447.46C3183.28,-408.54 2823.39,-293.65 2537.57,-165 2511.27,-153.16 2506.89,-145.79 2480.57,-134 2399.99,-97.91 2378.94,-89.5 2293.57,-67 2251.99,-56.04 2140.24,-37.87 2067.66,-26.57"/>
<polygon fill="midnightblue" stroke="midnightblue" points="2068.11,-23.1 2057.69,-25.02 2067.04,-30.02 2068.11,-23.1"/>
</g>
<!-- Node66&#45;&gt;Node8 -->
<g id="edge156" class="edge">
<title>Node66&#45;&gt;Node8</title>
<path fill="none" stroke="midnightblue" d="M3297.9,-461.31C2920.06,-459.98 804.54,-450.79 520.57,-411 390.74,-392.81 235.57,-466.09 235.57,-335 235.57,-335 235.57,-335 235.57,-277 235.57,-173.24 250.7,-123.75 337.57,-67 423.86,-10.62 1161.92,-40.41 1264.57,-31 1277.04,-29.86 1290.34,-28.22 1303.03,-26.46"/>
<polygon fill="midnightblue" stroke="midnightblue" points="1303.64,-29.91 1313.05,-25.03 1302.65,-22.98 1303.64,-29.91"/>
</g>
<!-- Node66&#45;&gt;Node9 -->
<g id="edge157" class="edge">
<title>Node66&#45;&gt;Node9</title>
<path fill="none" stroke="midnightblue" d="M3297.94,-461.27C2878.89,-459.52 314.16,-447.31 243.57,-411 86.1,-330.01 -79.81,-194.98 42.57,-67 78.01,-29.93 809.55,-19.72 1075.22,-17.23"/>
<polygon fill="midnightblue" stroke="midnightblue" points="1075.27,-20.73 1085.24,-17.14 1075.21,-13.73 1075.27,-20.73"/>
</g>
<!-- Node66&#45;&gt;Node10 -->
<g id="edge158" class="edge">
<title>Node66&#45;&gt;Node10</title>
<path fill="none" stroke="midnightblue" d="M3413.19,-460.34C3712.11,-453.94 5072.57,-420.14 5072.57,-335 5072.57,-335 5072.57,-335 5072.57,-148.5 5072.57,-17.42 5113.29,-78.9 3018.57,-31 2852.68,-27.21 2658.05,-21.7 2554.38,-18.68"/>
<polygon fill="midnightblue" stroke="midnightblue" points="2554.43,-15.18 2544.33,-18.39 2554.23,-22.18 2554.43,-15.18"/>
</g>
<!-- Node66&#45;&gt;Node12 -->
<g id="edge106" class="edge">
<title>Node66&#45;&gt;Node12</title>
<path fill="none" stroke="midnightblue" d="M3298.06,-461.66C2960.2,-462.38 1240.37,-463.48 1011.57,-411 932.48,-392.86 845.57,-416.14 845.57,-335 845.57,-335 845.57,-335 845.57,-215.5 845.57,-178.31 837.93,-159.96 864.57,-134 892.79,-106.49 1004.15,-92.61 1066.57,-86.85"/>
<polygon fill="midnightblue" stroke="midnightblue" points="1067.23,-90.31 1076.88,-85.93 1066.61,-83.33 1067.23,-90.31"/>
</g>
<!-- Node66&#45;&gt;Node13 -->
<g id="edge107" class="edge">
<title>Node66&#45;&gt;Node13</title>
<path fill="none" stroke="midnightblue" d="M3297.92,-461.18C2947.38,-459.09 1108.71,-446.52 860.57,-411 732.5,-392.67 579.57,-464.38 579.57,-335 579.57,-335 579.57,-335 579.57,-215.5 579.57,-130.64 623.92,-105.45 699.57,-67 771.96,-30.21 1349.04,-41.5 1429.57,-31 1439.34,-29.73 1449.79,-27.79 1459.5,-25.74"/>
<polygon fill="midnightblue" stroke="midnightblue" points="1460.27,-29.16 1469.29,-23.59 1458.77,-22.32 1460.27,-29.16"/>
</g>
<!-- Node66&#45;&gt;Node17 -->
<g id="edge146" class="edge">
<title>Node66&#45;&gt;Node17</title>
<path fill="none" stroke="midnightblue" d="M3362.32,-447.35C3373.87,-420.9 3393.93,-363.1 3369.57,-324 3314.26,-235.21 2998.5,-129.68 2888.42,-95.1"/>
<polygon fill="midnightblue" stroke="midnightblue" points="2889.31,-91.71 2878.72,-92.07 2887.22,-98.39 2889.31,-91.71"/>
</g>
<!-- Node66&#45;&gt;Node18 -->
<g id="edge147" class="edge">
<title>Node66&#45;&gt;Node18</title>
<path fill="none" stroke="midnightblue" d="M3413.21,-461.89C3510.99,-461.33 3703.54,-454.54 3752.57,-411 3778.6,-387.88 3771.57,-369.82 3771.57,-335 3771.57,-335 3771.57,-335 3771.57,-215.5 3771.57,-169.99 3793.57,-155.71 3833.57,-134 3928.75,-82.35 4211.75,-108.19 4319.57,-98 4334.58,-96.58 4350.58,-94.88 4365.97,-93.16"/>
<polygon fill="midnightblue" stroke="midnightblue" points="4366.43,-96.63 4375.97,-92.02 4365.64,-89.67 4366.43,-96.63"/>
</g>
<!-- Node66&#45;&gt;Node37 -->
<g id="edge159" class="edge">
<title>Node66&#45;&gt;Node37</title>
<path fill="none" stroke="midnightblue" d="M3298,-461.26C2904.59,-459.54 625.95,-448 565.57,-411 459.95,-346.28 469.69,-283.79 434.57,-165 429.07,-146.41 427.45,-124.47 427.13,-108.05"/>
<polygon fill="midnightblue" stroke="midnightblue" points="430.62,-107.64 427.08,-97.66 423.62,-107.67 430.62,-107.64"/>
</g>
<!-- Node66&#45;&gt;Node38 -->
<g id="edge160" class="edge">
<title>Node66&#45;&gt;Node38</title>
<path fill="none" stroke="midnightblue" d="M3413.23,-453.61C3439.27,-446.86 3467.71,-434.31 3483.57,-411 3519.32,-358.46 3512.44,-324.62 3483.57,-268 3448.14,-198.55 3402.24,-213.96 3341.57,-165 3314.52,-143.17 3284.8,-115.89 3266.92,-99.08"/>
<polygon fill="midnightblue" stroke="midnightblue" points="3269.27,-96.48 3259.59,-92.15 3264.46,-101.57 3269.27,-96.48"/>
</g>
<!-- Node67 -->
<g id="node39" class="node">
<title>Node67</title>
<g id="a_node39"><a xlink:href="core__fb__conversion_8h.html" target="_top" xlink:title=" ">
<polygon fill="none" stroke="red" points="3383.57,-140 3383.57,-159 3503.57,-159 3503.57,-140 3383.57,-140"/>
<text text-anchor="middle" x="3443.57" y="-147" font-family="Helvetica,sans-Serif" font-size="10.00">core_fb_conversion.h</text>
</a>
</g>
</g>
<!-- Node66&#45;&gt;Node67 -->
<g id="edge108" class="edge">
<title>Node66&#45;&gt;Node67</title>
<path fill="none" stroke="midnightblue" d="M3413.13,-453.64C3465.77,-445.34 3538.55,-430.73 3559.57,-411 3585.39,-386.76 3583.57,-370.42 3583.57,-335 3583.57,-335 3583.57,-335 3583.57,-277 3583.57,-219.53 3517.82,-181.42 3476.44,-163.12"/>
<polygon fill="midnightblue" stroke="midnightblue" points="3477.57,-159.8 3467,-159.11 3474.83,-166.24 3477.57,-159.8"/>
</g>
<!-- Node76 -->
<g id="node45" class="node">
<title>Node76</title>
<g id="a_node45"><a xlink:title=" ">
<polygon fill="none" stroke="#bfbfbf" points="4541.07,-67.5 4541.07,-97.5 4698.07,-97.5 4698.07,-67.5 4541.07,-67.5"/>
<text text-anchor="start" x="4549.07" y="-85.5" font-family="Helvetica,sans-Serif" font-size="10.00">seerep_msgs/point_stamped</text>
<text text-anchor="middle" x="4619.57" y="-74.5" font-family="Helvetica,sans-Serif" font-size="10.00">_generated.h</text>
</a>
</g>
</g>
<!-- Node66&#45;&gt;Node76 -->
<g id="edge144" class="edge">
<title>Node66&#45;&gt;Node76</title>
<path fill="none" stroke="midnightblue" d="M3413.28,-459.38C3513.13,-454.92 3713.4,-442.27 3775.57,-411 3817.13,-390.09 3847.57,-381.53 3847.57,-335 3847.57,-335 3847.57,-335 3847.57,-215.5 3847.57,-169.99 3869.39,-155.38 3909.57,-134 3968.47,-102.65 4427.77,-105.38 4530.89,-97.78"/>
<polygon fill="midnightblue" stroke="midnightblue" points="4531.29,-101.26 4540.94,-96.88 4530.67,-94.28 4531.29,-101.26"/>
</g>
<!-- Node79 -->
<g id="node46" class="node">
<title>Node79</title>
<g id="a_node46"><a xlink:title=" ">
<polygon fill="none" stroke="#bfbfbf" points="4716.57,-73 4716.57,-92 4892.57,-92 4892.57,-73 4716.57,-73"/>
<text text-anchor="middle" x="4804.57" y="-80" font-family="Helvetica,sans-Serif" font-size="10.00">seerep_msgs/query_generated.h</text>
</a>
</g>
</g>
<!-- Node66&#45;&gt;Node79 -->
<g id="edge145" class="edge">
<title>Node66&#45;&gt;Node79</title>
<path fill="none" stroke="midnightblue" d="M3413.33,-459.09C3520.27,-453.98 3744.74,-440.09 3816.57,-411 3874.99,-387.34 3872.69,-353.16 3928.57,-324 4008.8,-282.12 4314.22,-211.36 4608.57,-134 4660.93,-120.24 4721.27,-104.75 4761.01,-94.59"/>
<polygon fill="midnightblue" stroke="midnightblue" points="4762.08,-97.93 4770.9,-92.07 4760.35,-91.15 4762.08,-97.93"/>
</g>
<!-- Node85 -->
<g id="node47" class="node">
<title>Node85</title>
<g id="a_node47"><a xlink:href="core__fb__general_8h.html" target="_top" xlink:title=" ">
<polygon fill="none" stroke="red" points="2038.57,-386 2038.57,-405 2142.57,-405 2142.57,-386 2038.57,-386"/>
<text text-anchor="middle" x="2090.57" y="-393" font-family="Helvetica,sans-Serif" font-size="10.00">core_fb_general.h</text>
</a>
</g>
</g>
<!-- Node66&#45;&gt;Node85 -->
<g id="edge131" class="edge">
<title>Node66&#45;&gt;Node85</title>
<path fill="none" stroke="midnightblue" d="M3297.93,-458.54C3088.68,-447.79 2370.12,-410.86 2153.12,-399.71"/>
<polygon fill="midnightblue" stroke="midnightblue" points="2153.03,-396.21 2142.86,-399.19 2152.67,-403.2 2153.03,-396.21"/>
</g>
<!-- Node88 -->
<g id="node48" class="node">
<title>Node88</title>
<g id="a_node48"><a xlink:title=" ">
<polygon fill="none" stroke="#bfbfbf" points="3612.07,-380.5 3612.07,-410.5 3743.07,-410.5 3743.07,-380.5 3612.07,-380.5"/>
<text text-anchor="start" x="3620.07" y="-398.5" font-family="Helvetica,sans-Serif" font-size="10.00">seerep_msgs/attributes</text>
<text text-anchor="middle" x="3677.57" y="-387.5" font-family="Helvetica,sans-Serif" font-size="10.00">_stamped_generated.h</text>
</a>
</g>
</g>
<!-- Node66&#45;&gt;Node88 -->
<g id="edge143" class="edge">
<title>Node66&#45;&gt;Node88</title>
<path fill="none" stroke="midnightblue" d="M3413.13,-449.88C3465.89,-439.23 3544.34,-423.39 3602.09,-411.74"/>
<polygon fill="midnightblue" stroke="midnightblue" points="3602.79,-415.17 3611.9,-409.76 3601.41,-408.3 3602.79,-415.17"/>
</g>
<!-- Node89 -->
<g id="node49" class="node">
<title>Node89</title>
<g id="a_node49"><a xlink:href="hdf5__fb__point_8h.html" target="_top" xlink:title=" ">
<polygon fill="none" stroke="red" points="873.57,-134.5 873.57,-164.5 989.57,-164.5 989.57,-134.5 873.57,-134.5"/>
<text text-anchor="start" x="881.57" y="-152.5" font-family="Helvetica,sans-Serif" font-size="10.00">seerep_hdf5_fb/hdf5</text>
<text text-anchor="middle" x="931.57" y="-141.5" font-family="Helvetica,sans-Serif" font-size="10.00">_fb_point.h</text>
</a>
</g>
</g>
<!-- Node66&#45;&gt;Node89 -->
<g id="edge148" class="edge">
<title>Node66&#45;&gt;Node89</title>
<path fill="none" stroke="midnightblue" d="M3297.8,-461.65C2925.84,-462.27 883.57,-459.99 883.57,-335 883.57,-335 883.57,-335 883.57,-277 883.57,-238.84 902.89,-198.18 917.02,-173.55"/>
<polygon fill="midnightblue" stroke="midnightblue" points="920.22,-175.02 922.31,-164.63 914.2,-171.45 920.22,-175.02"/>
</g>
<!-- Node67&#45;&gt;Node6 -->
<g id="edge126" class="edge">
<title>Node67&#45;&gt;Node6</title>
<path fill="none" stroke="midnightblue" d="M3440.64,-139.84C3434.21,-122.37 3417.05,-83.21 3387.57,-67 3292.09,-14.5 2515.94,-42.29 2407.57,-31 2397.52,-29.95 2386.86,-28.43 2376.63,-26.77"/>
<polygon fill="midnightblue" stroke="midnightblue" points="2377.02,-23.29 2366.58,-25.07 2375.85,-30.19 2377.02,-23.29"/>
</g>
<!-- Node67&#45;&gt;Node7 -->
<g id="edge127" class="edge">
<title>Node67&#45;&gt;Node7</title>
<path fill="none" stroke="midnightblue" d="M3424.34,-139.99C3404.72,-130.9 3373.78,-115.42 3349.57,-98 3333.23,-86.25 3335.17,-74.69 3316.57,-67 3191.44,-15.29 2233.42,-43.03 2098.57,-31 2086.38,-29.91 2073.39,-28.29 2061,-26.53"/>
<polygon fill="midnightblue" stroke="midnightblue" points="2061.18,-23.01 2050.78,-25.01 2060.16,-29.94 2061.18,-23.01"/>
</g>
<!-- Node67&#45;&gt;Node8 -->
<g id="edge128" class="edge">
<title>Node67&#45;&gt;Node8</title>
<path fill="none" stroke="midnightblue" d="M3383.41,-147.24C3064.53,-140.54 1584.52,-108.87 1538.57,-98 1480.36,-84.23 1418.33,-49.77 1386.39,-30.36"/>
<polygon fill="midnightblue" stroke="midnightblue" points="1388.19,-27.35 1377.84,-25.08 1384.52,-33.31 1388.19,-27.35"/>
</g>
<!-- Node67&#45;&gt;Node9 -->
<g id="edge129" class="edge">
<title>Node67&#45;&gt;Node9</title>
<path fill="none" stroke="midnightblue" d="M3383.46,-147.41C3061.22,-141.52 1549.26,-113.15 1451.57,-98 1358.86,-83.63 1253.67,-47.57 1202.25,-28.6"/>
<polygon fill="midnightblue" stroke="midnightblue" points="1203.3,-25.26 1192.71,-25.05 1200.86,-31.82 1203.3,-25.26"/>
</g>
<!-- Node67&#45;&gt;Node10 -->
<g id="edge130" class="edge">
<title>Node67&#45;&gt;Node10</title>
<path fill="none" stroke="midnightblue" d="M3444.66,-139.94C3446.28,-123 3447.12,-85.28 3425.57,-67 3392.5,-38.95 2771.1,-22.82 2554.38,-18.02"/>
<polygon fill="midnightblue" stroke="midnightblue" points="2554.44,-14.52 2544.37,-17.8 2554.29,-21.52 2554.44,-14.52"/>
</g>
<!-- Node67&#45;&gt;Node12 -->
<g id="edge109" class="edge">
<title>Node67&#45;&gt;Node12</title>
<path fill="none" stroke="midnightblue" d="M3383.43,-147.42C3036.42,-141.15 1301.68,-109.35 1189.57,-98 1177.28,-96.76 1164.05,-94.67 1151.95,-92.46"/>
<polygon fill="midnightblue" stroke="midnightblue" points="1152.58,-89.02 1142.1,-90.59 1151.27,-95.89 1152.58,-89.02"/>
</g>
<!-- Node67&#45;&gt;Node13 -->
<g id="edge110" class="edge">
<title>Node67&#45;&gt;Node13</title>
<path fill="none" stroke="midnightblue" d="M3383.38,-147.51C3067.7,-142.25 1615.78,-117.04 1573.57,-98 1565.63,-94.42 1531.28,-55.58 1511.59,-32.84"/>
<polygon fill="midnightblue" stroke="midnightblue" points="1514.02,-30.3 1504.84,-25.01 1508.72,-34.87 1514.02,-30.3"/>
</g>
<!-- Node67&#45;&gt;Node15 -->
<g id="edge121" class="edge">
<title>Node67&#45;&gt;Node15</title>
<path fill="none" stroke="midnightblue" d="M3433.8,-139.72C3410.79,-119.07 3354.67,-69 3349.57,-67 3234.98,-22.11 2364.85,-44.88 2242.57,-31 2241.63,-30.89 2240.68,-30.78 2239.73,-30.66"/>
<polygon fill="midnightblue" stroke="midnightblue" points="2239.81,-27.14 2229.42,-29.23 2238.85,-34.07 2239.81,-27.14"/>
</g>
<!-- Node67&#45;&gt;Node16 -->
<g id="edge119" class="edge">
<title>Node67&#45;&gt;Node16</title>
<path fill="none" stroke="midnightblue" d="M3481.81,-139.98C3493.26,-137.71 3505.88,-135.47 3517.57,-134 3793.62,-99.17 3866.56,-133.19 4142.57,-98 4143.83,-97.84 4145.1,-97.67 4146.38,-97.49"/>
<polygon fill="midnightblue" stroke="midnightblue" points="4146.96,-100.94 4156.32,-95.98 4145.91,-94.02 4146.96,-100.94"/>
</g>
<!-- Node67&#45;&gt;Node17 -->
<g id="edge122" class="edge">
<title>Node67&#45;&gt;Node17</title>
<path fill="none" stroke="midnightblue" d="M3383.45,-144.96C3285.6,-138.69 3085.99,-123.82 2918.57,-98 2911.43,-96.9 2903.92,-95.52 2896.59,-94.06"/>
<polygon fill="midnightblue" stroke="midnightblue" points="2897.28,-90.62 2886.78,-92.02 2895.86,-97.48 2897.28,-90.62"/>
</g>
<!-- Node67&#45;&gt;Node18 -->
<g id="edge123" class="edge">
<title>Node67&#45;&gt;Node18</title>
<path fill="none" stroke="midnightblue" d="M3503.66,-143.53C3540.55,-140.56 3588.78,-136.83 3631.57,-134 3921.15,-114.84 3994.1,-118.94 4283.57,-98 4307.84,-96.24 4334.13,-94.03 4358.33,-91.86"/>
<polygon fill="midnightblue" stroke="midnightblue" points="4358.92,-95.32 4368.56,-90.93 4358.29,-88.35 4358.92,-95.32"/>
</g>
<!-- Node67&#45;&gt;Node19 -->
<g id="edge124" class="edge">
<title>Node67&#45;&gt;Node19</title>
<path fill="none" stroke="midnightblue" d="M3384.41,-139.94C3301.6,-127.95 3151.45,-106.21 3063.63,-93.5"/>
<polygon fill="midnightblue" stroke="midnightblue" points="3063.9,-90 3053.5,-92.03 3062.9,-96.93 3063.9,-90"/>
</g>
<!-- Node67&#45;&gt;Node20 -->
<g id="edge125" class="edge">
<title>Node67&#45;&gt;Node20</title>
<path fill="none" stroke="midnightblue" d="M3503.65,-140C3520.43,-137.83 3538.69,-135.64 3555.57,-134 3678.99,-122.01 4194.97,-156.91 4109.57,-67 4079.94,-35.81 3488.1,-22.43 3237.81,-18.15"/>
<polygon fill="midnightblue" stroke="midnightblue" points="3237.66,-14.64 3227.6,-17.98 3237.54,-21.64 3237.66,-14.64"/>
</g>
<!-- Node67&#45;&gt;Node23 -->
<g id="edge117" class="edge">
<title>Node67&#45;&gt;Node23</title>
<path fill="none" stroke="midnightblue" d="M3383.51,-147.45C3061.73,-141.77 1538.67,-114.46 1067.57,-98 989.88,-95.28 900.87,-90.77 840.51,-87.5"/>
<polygon fill="midnightblue" stroke="midnightblue" points="840.51,-83.99 830.33,-86.94 840.13,-90.98 840.51,-83.99"/>
</g>
<!-- Node67&#45;&gt;Node31 -->
<g id="edge115" class="edge">
<title>Node67&#45;&gt;Node31</title>
<path fill="none" stroke="midnightblue" d="M3383.46,-147.77C3248.89,-145.48 2913.37,-136.09 2635.57,-98 2628.08,-96.97 2620.2,-95.58 2612.55,-94.07"/>
<polygon fill="midnightblue" stroke="midnightblue" points="2613.19,-90.63 2602.69,-92.02 2611.77,-97.48 2613.19,-90.63"/>
</g>
<!-- Node68 -->
<g id="node40" class="node">
<title>Node68</title>
<g id="a_node40"><a xlink:title=" ">
<polygon fill="none" stroke="#bfbfbf" points="3477.57,-73 3477.57,-92 3605.57,-92 3605.57,-73 3477.57,-73"/>
<text text-anchor="middle" x="3541.57" y="-80" font-family="Helvetica,sans-Serif" font-size="10.00">flatbuffers/flatbuffers.h</text>
</a>
</g>
</g>
<!-- Node67&#45;&gt;Node68 -->
<g id="edge111" class="edge">
<title>Node67&#45;&gt;Node68</title>
<path fill="none" stroke="midnightblue" d="M3456.78,-139.73C3473.02,-128.96 3500.78,-110.55 3520.1,-97.74"/>
<polygon fill="midnightblue" stroke="midnightblue" points="3522.16,-100.57 3528.56,-92.13 3518.29,-94.74 3522.16,-100.57"/>
</g>
<!-- Node69 -->
<g id="node41" class="node">
<title>Node69</title>
<g id="a_node41"><a xlink:title=" ">
<polygon fill="none" stroke="#bfbfbf" points="1199.07,-73 1199.07,-92 1298.07,-92 1298.07,-73 1199.07,-73"/>
<text text-anchor="middle" x="1248.57" y="-80" font-family="Helvetica,sans-Serif" font-size="10.00">flatbuffers/grpc.h</text>
</a>
</g>
</g>
<!-- Node67&#45;&gt;Node69 -->
<g id="edge112" class="edge">
<title>Node67&#45;&gt;Node69</title>
<path fill="none" stroke="midnightblue" d="M3383.45,-147.41C3047.92,-141.3 1417.95,-111.05 1312.57,-98 1305.34,-97.1 1297.73,-95.75 1290.38,-94.23"/>
<polygon fill="midnightblue" stroke="midnightblue" points="1291.1,-90.8 1280.58,-92.07 1289.59,-97.64 1291.1,-90.8"/>
</g>
<!-- Node70 -->
<g id="node42" class="node">
<title>Node70</title>
<g id="a_node42"><a xlink:title=" ">
<polygon fill="none" stroke="#bfbfbf" points="3623.57,-67.5 3623.57,-97.5 3753.57,-97.5 3753.57,-67.5 3623.57,-67.5"/>
<text text-anchor="start" x="3631.57" y="-85.5" font-family="Helvetica,sans-Serif" font-size="10.00">seerep_msgs/camera</text>
<text text-anchor="middle" x="3688.57" y="-74.5" font-family="Helvetica,sans-Serif" font-size="10.00">_intrinsics_generated.h</text>
</a>
</g>
</g>
<!-- Node67&#45;&gt;Node70 -->
<g id="edge113" class="edge">
<title>Node67&#45;&gt;Node70</title>
<path fill="none" stroke="midnightblue" d="M3475.85,-139.94C3513.82,-129.86 3577.74,-112.9 3625.62,-100.2"/>
<polygon fill="midnightblue" stroke="midnightblue" points="3626.81,-103.51 3635.58,-97.56 3625.01,-96.74 3626.81,-103.51"/>
</g>
<!-- Node71 -->
<g id="node43" class="node">
<title>Node71</title>
<g id="a_node43"><a xlink:title=" ">
<polygon fill="none" stroke="#bfbfbf" points="3772.07,-67.5 3772.07,-97.5 3935.07,-97.5 3935.07,-67.5 3772.07,-67.5"/>
<text text-anchor="start" x="3780.07" y="-85.5" font-family="Helvetica,sans-Serif" font-size="10.00">seerep_msgs/camera</text>
<text text-anchor="middle" x="3853.57" y="-74.5" font-family="Helvetica,sans-Serif" font-size="10.00">_intrinsics_query_generated.h</text>
</a>
</g>
</g>
<!-- Node67&#45;&gt;Node71 -->
<g id="edge114" class="edge">
<title>Node67&#45;&gt;Node71</title>
<path fill="none" stroke="midnightblue" d="M3485.38,-139.95C3495.87,-137.9 3507.12,-135.79 3517.57,-134 3622.87,-115.96 3652.08,-114.72 3761.58,-98.13"/>
<polygon fill="midnightblue" stroke="midnightblue" points="3762.36,-101.56 3771.72,-96.59 3761.31,-94.64 3762.36,-101.56"/>
</g>
<!-- Node72 -->
<g id="node44" class="node">
<title>Node72</title>
<g id="a_node44"><a xlink:title=" ">
<polygon fill="none" stroke="#bfbfbf" points="3953.07,-67.5 3953.07,-97.5 4100.07,-97.5 4100.07,-67.5 3953.07,-67.5"/>
<text text-anchor="start" x="3961.07" y="-85.5" font-family="Helvetica,sans-Serif" font-size="10.00">seerep_msgs/boundingbox</text>
<text text-anchor="middle" x="4026.57" y="-74.5" font-family="Helvetica,sans-Serif" font-size="10.00">_generated.h</text>
</a>
</g>
</g>
<!-- Node67&#45;&gt;Node72 -->
<g id="edge116" class="edge">
<title>Node67&#45;&gt;Node72</title>
<path fill="none" stroke="midnightblue" d="M3482.99,-139.95C3494.13,-137.76 3506.29,-135.58 3517.57,-134 3702.96,-108.1 3753.98,-122.11 3942.88,-98.14"/>
<polygon fill="midnightblue" stroke="midnightblue" points="3943.39,-101.61 3952.86,-96.86 3942.49,-94.67 3943.39,-101.61"/>
</g>
<!-- Node67&#45;&gt;Node76 -->
<g id="edge118" class="edge">
<title>Node67&#45;&gt;Node76</title>
<path fill="none" stroke="midnightblue" d="M3503.79,-146.12C3711.47,-137.85 4392.21,-110.26 4530.89,-97.89"/>
<polygon fill="midnightblue" stroke="midnightblue" points="4531.33,-101.37 4540.95,-96.92 4530.66,-94.4 4531.33,-101.37"/>
</g>
<!-- Node67&#45;&gt;Node79 -->
<g id="edge120" class="edge">
<title>Node67&#45;&gt;Node79</title>
<path fill="none" stroke="midnightblue" d="M3503.59,-146.49C3738.32,-138.56 4587.18,-109.37 4707.57,-98 4719.49,-96.87 4732.18,-95.27 4744.31,-93.54"/>
<polygon fill="midnightblue" stroke="midnightblue" points="4744.97,-96.98 4754.35,-92.07 4743.95,-90.06 4744.97,-96.98"/>
</g>
<!-- Node85&#45;&gt;Node3 -->
<g id="edge135" class="edge">
<title>Node85&#45;&gt;Node3</title>
<path fill="none" stroke="midnightblue" d="M2142.64,-388.74C2241.38,-377.82 2455.57,-354.13 2563.55,-342.19"/>
<polygon fill="midnightblue" stroke="midnightblue" points="2564.11,-345.65 2573.66,-341.07 2563.34,-338.69 2564.11,-345.65"/>
</g>
<!-- Node85&#45;&gt;Node6 -->
<g id="edge136" class="edge">
<title>Node85&#45;&gt;Node6</title>
<path fill="none" stroke="midnightblue" d="M2142.64,-393.85C2346.36,-391.07 3089.53,-378.72 3322.57,-344 3571.96,-306.85 3623.38,-245.46 3871.57,-201 3885.72,-198.47 4891.92,-108.66 4901.57,-98 4910.81,-87.78 4911.24,-76.81 4901.57,-67 4852.93,-17.66 2476.56,-37.41 2407.57,-31 2397.07,-30.02 2385.91,-28.47 2375.27,-26.73"/>
<polygon fill="midnightblue" stroke="midnightblue" points="2375.71,-23.26 2365.27,-25.02 2374.54,-30.16 2375.71,-23.26"/>
</g>
<!-- Node85&#45;&gt;Node7 -->
<g id="edge137" class="edge">
<title>Node85&#45;&gt;Node7</title>
<path fill="none" stroke="midnightblue" d="M2038.5,-395.23C1847.04,-396.62 1187.2,-389.77 1071.57,-232 1028.2,-172.83 1017.12,-120.25 1067.57,-67 1082.35,-51.4 1711.78,-27.05 1928.86,-19.1"/>
<polygon fill="midnightblue" stroke="midnightblue" points="1929.02,-22.6 1938.89,-18.74 1928.76,-15.61 1929.02,-22.6"/>
</g>
<!-- Node85&#45;&gt;Node8 -->
<g id="edge138" class="edge">
<title>Node85&#45;&gt;Node8</title>
<path fill="none" stroke="midnightblue" d="M2038.48,-394.03C1829.41,-391.89 1050.87,-381.52 807.57,-344 714.22,-329.61 691.53,-319.72 602.57,-288 468.77,-240.3 375.25,-236.91 345.57,-98 342.69,-84.53 336.02,-76.93 345.57,-67 380.98,-30.17 1213.69,-35.67 1264.57,-31 1277.04,-29.85 1290.34,-28.22 1303.03,-26.46"/>
<polygon fill="midnightblue" stroke="midnightblue" points="1303.64,-29.91 1313.05,-25.02 1302.65,-22.98 1303.64,-29.91"/>
</g>
<!-- Node85&#45;&gt;Node9 -->
<g id="edge139" class="edge">
<title>Node85&#45;&gt;Node9</title>
<path fill="none" stroke="midnightblue" d="M2038.56,-393.93C1819.54,-391.31 971.44,-379.09 706.57,-344 487.26,-314.95 429.51,-307.51 221.57,-232 131.14,-199.16 76.11,-191.02 51.57,-98 48.05,-84.68 42.05,-76.96 51.57,-67 86.69,-30.26 810.86,-19.85 1075.12,-17.26"/>
<polygon fill="midnightblue" stroke="midnightblue" points="1075.5,-20.76 1085.47,-17.17 1075.43,-13.76 1075.5,-20.76"/>
</g>
<!-- Node85&#45;&gt;Node10 -->
<g id="edge140" class="edge">
<title>Node85&#45;&gt;Node10</title>
<path fill="none" stroke="midnightblue" d="M2142.7,-394.73C2318.67,-395.01 2906.72,-392.05 3389.57,-344 3732.02,-309.92 4695.38,-359.96 4918.57,-98 4927.5,-87.51 4928.22,-76.83 4918.57,-67 4881.6,-29.32 3071.34,-32.21 3018.57,-31 2852.68,-27.19 2658.05,-21.69 2554.38,-18.68"/>
<polygon fill="midnightblue" stroke="midnightblue" points="2554.43,-15.18 2544.33,-18.38 2554.23,-22.17 2554.43,-15.18"/>
</g>
<!-- Node85&#45;&gt;Node12 -->
<g id="edge132" class="edge">
<title>Node85&#45;&gt;Node12</title>
<path fill="none" stroke="midnightblue" d="M2038.51,-392.25C1864.75,-384.03 1315.57,-352.29 1315.57,-279 1315.57,-279 1315.57,-279 1315.57,-215.5 1315.57,-174.44 1198.1,-120.12 1140.57,-95.98"/>
<polygon fill="midnightblue" stroke="midnightblue" points="1141.8,-92.7 1131.22,-92.1 1139.12,-99.17 1141.8,-92.7"/>
</g>
<!-- Node85&#45;&gt;Node13 -->
<g id="edge133" class="edge">
<title>Node85&#45;&gt;Node13</title>
<path fill="none" stroke="midnightblue" d="M2038.43,-393.71C1878.39,-390.93 1395.86,-379.72 1243.57,-344 1146.26,-321.18 1100.49,-317.4 1048.57,-232 1010.43,-169.28 988.24,-117.44 1041.57,-67 1104.48,-7.5 1343.96,-44.05 1429.57,-31 1439.31,-29.51 1449.75,-27.5 1459.46,-25.45"/>
<polygon fill="midnightblue" stroke="midnightblue" points="1460.23,-28.87 1469.25,-23.32 1458.74,-22.03 1460.23,-28.87"/>
</g>
<!-- Node85&#45;&gt;Node37 -->
<g id="edge141" class="edge">
<title>Node85&#45;&gt;Node37</title>
<path fill="none" stroke="midnightblue" d="M2038.35,-393.65C1844.82,-390.25 1168.62,-376.31 955.57,-344 761.59,-314.59 702.02,-323.69 528.57,-232 488.46,-210.8 476.07,-203.18 451.57,-165 440.46,-147.69 434.33,-125.05 431.05,-108.03"/>
<polygon fill="midnightblue" stroke="midnightblue" points="434.43,-107.03 429.29,-97.77 427.53,-108.22 434.43,-107.03"/>
</g>
<!-- Node85&#45;&gt;Node38 -->
<g id="edge142" class="edge">
<title>Node85&#45;&gt;Node38</title>
<path fill="none" stroke="midnightblue" d="M2142.81,-394.99C2372.28,-396.46 3279.57,-394.95 3279.57,-279 3279.57,-279 3279.57,-279 3279.57,-215.5 3279.57,-174.01 3265.73,-126.86 3257.17,-101.66"/>
<polygon fill="midnightblue" stroke="midnightblue" points="3260.4,-100.28 3253.78,-92.01 3253.79,-102.6 3260.4,-100.28"/>
</g>
<!-- Node85&#45;&gt;Node67 -->
<g id="edge134" class="edge">
<title>Node85&#45;&gt;Node67</title>
<path fill="none" stroke="midnightblue" d="M2142.77,-394.88C2360.58,-396.11 3190.43,-397.26 3293.57,-344 3369.15,-304.97 3418.22,-208.72 3436.05,-168.56"/>
<polygon fill="midnightblue" stroke="midnightblue" points="3439.33,-169.78 3440.08,-159.21 3432.9,-167.01 3439.33,-169.78"/>
</g>
<!-- Node89&#45;&gt;Node2 -->
<g id="edge150" class="edge">
<title>Node89&#45;&gt;Node2</title>
<path fill="none" stroke="midnightblue" d="M873.36,-143.56C744.7,-132.64 434.55,-106.32 270.84,-92.43"/>
<polygon fill="midnightblue" stroke="midnightblue" points="271.01,-88.93 260.75,-91.58 270.42,-95.91 271.01,-88.93"/>
</g>
<!-- Node89&#45;&gt;Node13 -->
<g id="edge152" class="edge">
<title>Node89&#45;&gt;Node13</title>
<path fill="none" stroke="midnightblue" d="M923.69,-134.37C914.8,-116.29 903.63,-85.18 920.57,-67 959.22,-25.52 1373.43,-38.93 1429.57,-31 1439.33,-29.62 1449.78,-27.65 1459.48,-25.6"/>
<polygon fill="midnightblue" stroke="midnightblue" points="1460.25,-29.01 1469.27,-23.46 1458.75,-22.17 1460.25,-29.01"/>
</g>
<!-- Node89&#45;&gt;Node46 -->
<g id="edge149" class="edge">
<title>Node89&#45;&gt;Node46</title>
<path fill="none" stroke="midnightblue" d="M989.78,-143.21C1118.96,-131.46 1429.44,-103.24 1572.32,-90.25"/>
<polygon fill="midnightblue" stroke="midnightblue" points="1572.67,-93.73 1582.32,-89.34 1572.04,-86.76 1572.67,-93.73"/>
</g>
<!-- Node89&#45;&gt;Node69 -->
<g id="edge151" class="edge">
<title>Node89&#45;&gt;Node69</title>
<path fill="none" stroke="midnightblue" d="M989.71,-136.58C1049.06,-124.41 1140.31,-105.7 1197.12,-94.05"/>
<polygon fill="midnightblue" stroke="midnightblue" points="1197.87,-97.47 1206.96,-92.03 1196.46,-90.61 1197.87,-97.47"/>
</g>
</g>
</svg>
