<?xml version="1.0" encoding="UTF-8" standalone="no"?>
<!DOCTYPE svg PUBLIC "-//W3C//DTD SVG 1.1//EN"
 "http://www.w3.org/Graphics/SVG/1.1/DTD/svg11.dtd">
<!-- Generated by graphviz version 2.43.0 (0)
 -->
<!-- Title: seerep_hdf5/seerep_hdf5_fb/src/hdf5_fb_pointcloud.cpp Pages: 1 -->
<svg width="2451pt" height="318pt"
 viewBox="0.00 0.00 2450.50 318.00" xmlns="http://www.w3.org/2000/svg" xmlns:xlink="http://www.w3.org/1999/xlink">
<g id="graph0" class="graph" transform="scale(1 1) rotate(0) translate(4 314)">
<title>seerep_hdf5/seerep_hdf5_fb/src/hdf5_fb_pointcloud.cpp</title>
<!-- Node1 -->
<g id="node1" class="node">
<title>Node1</title>
<g id="a_node1"><a xlink:title=" ">
<polygon fill="#bfbfbf" stroke="black" points="1424.5,-268.5 1424.5,-309.5 1540.5,-309.5 1540.5,-268.5 1424.5,-268.5"/>
<text text-anchor="start" x="1432.5" y="-297.5" font-family="Helvetica,sans-Serif" font-size="10.00">seerep_hdf5/seerep</text>
<text text-anchor="start" x="1432.5" y="-286.5" font-family="Helvetica,sans-Serif" font-size="10.00">_hdf5_fb/src/hdf5_fb</text>
<text text-anchor="middle" x="1482.5" y="-275.5" font-family="Helvetica,sans-Serif" font-size="10.00">_pointcloud.cpp</text>
</a>
</g>
</g>
<!-- Node2 -->
<g id="node2" class="node">
<title>Node2</title>
<g id="a_node2"><a xlink:href="hdf5__fb__pointcloud_8h.html" target="_top" xlink:title=" ">
<polygon fill="none" stroke="black" points="1353.5,-201.5 1353.5,-231.5 1469.5,-231.5 1469.5,-201.5 1353.5,-201.5"/>
<text text-anchor="start" x="1361.5" y="-219.5" font-family="Helvetica,sans-Serif" font-size="10.00">seerep_hdf5_fb/hdf5</text>
<text text-anchor="middle" x="1411.5" y="-208.5" font-family="Helvetica,sans-Serif" font-size="10.00">_fb_pointcloud.h</text>
</a>
</g>
</g>
<!-- Node1&#45;&gt;Node2 -->
<g id="edge1" class="edge">
<title>Node1&#45;&gt;Node2</title>
<path fill="none" stroke="midnightblue" d="M1462.72,-268.36C1453.53,-259.23 1442.57,-248.35 1433.15,-239"/>
<polygon fill="midnightblue" stroke="midnightblue" points="1435.56,-236.45 1425.99,-231.89 1430.62,-241.42 1435.56,-236.45"/>
</g>
<!-- Node35 -->
<g id="node35" class="node">
<title>Node35</title>
<g id="a_node35"><a xlink:title=" ">
<polygon fill="none" stroke="#bfbfbf" points="1487.5,-207 1487.5,-226 1619.5,-226 1619.5,-207 1487.5,-207"/>
<text text-anchor="middle" x="1553.5" y="-214" font-family="Helvetica,sans-Serif" font-size="10.00">highfive/H5DataSet.hpp</text>
</a>
</g>
</g>
<!-- Node1&#45;&gt;Node35 -->
<g id="edge56" class="edge">
<title>Node1&#45;&gt;Node35</title>
<path fill="none" stroke="midnightblue" d="M1502.28,-268.36C1513.39,-257.32 1527.09,-243.72 1537.52,-233.37"/>
<polygon fill="midnightblue" stroke="midnightblue" points="1540.14,-235.7 1544.77,-226.17 1535.2,-230.74 1540.14,-235.7"/>
</g>
<!-- Node3 -->
<g id="node3" class="node">
<title>Node3</title>
<g id="a_node3"><a xlink:title=" ">
<polygon fill="none" stroke="#bfbfbf" points="1970.5,-6 1970.5,-25 2080.5,-25 2080.5,-6 1970.5,-6"/>
<text text-anchor="middle" x="2025.5" y="-13" font-family="Helvetica,sans-Serif" font-size="10.00">highfive/H5File.hpp</text>
</a>
</g>
</g>
<!-- Node2&#45;&gt;Node3 -->
<g id="edge2" class="edge">
<title>Node2&#45;&gt;Node3</title>
<path fill="none" stroke="midnightblue" d="M1389.11,-201.34C1347.88,-173.63 1267.79,-111.07 1309.5,-67 1359.37,-14.3 1889.64,-41.05 1961.5,-31 1968.4,-30.04 1975.65,-28.7 1982.7,-27.24"/>
<polygon fill="midnightblue" stroke="midnightblue" points="1983.79,-30.58 1992.81,-25.02 1982.29,-23.74 1983.79,-30.58"/>
</g>
<!-- Node4 -->
<g id="node4" class="node">
<title>Node4</title>
<g id="a_node4"><a xlink:href="hdf5__core__point__cloud_8h.html" target="_top" xlink:title=" ">
<polygon fill="none" stroke="black" points="677.5,-134.5 677.5,-164.5 805.5,-164.5 805.5,-134.5 677.5,-134.5"/>
<text text-anchor="start" x="685.5" y="-152.5" font-family="Helvetica,sans-Serif" font-size="10.00">seerep_hdf5_core/hdf5</text>
<text text-anchor="middle" x="741.5" y="-141.5" font-family="Helvetica,sans-Serif" font-size="10.00">_core_point_cloud.h</text>
</a>
</g>
</g>
<!-- Node2&#45;&gt;Node4 -->
<g id="edge3" class="edge">
<title>Node2&#45;&gt;Node4</title>
<path fill="none" stroke="midnightblue" d="M1353.1,-212.12C1247.51,-205.63 1017.92,-189.85 825.5,-165 822.27,-164.58 818.98,-164.13 815.65,-163.65"/>
<polygon fill="midnightblue" stroke="midnightblue" points="816.03,-160.17 805.62,-162.15 814.99,-167.09 816.03,-160.17"/>
</g>
<!-- Node8 -->
<g id="node8" class="node">
<title>Node8</title>
<g id="a_node8"><a xlink:title=" ">
<polygon fill="none" stroke="#bfbfbf" points="747.5,-6 747.5,-25 803.5,-25 803.5,-6 747.5,-6"/>
<text text-anchor="middle" x="775.5" y="-13" font-family="Helvetica,sans-Serif" font-size="10.00">optional</text>
</a>
</g>
</g>
<!-- Node2&#45;&gt;Node8 -->
<g id="edge54" class="edge">
<title>Node2&#45;&gt;Node8</title>
<path fill="none" stroke="midnightblue" d="M1353.49,-210.38C1254,-199.9 1046.13,-170.59 886.5,-98 849.39,-81.13 812.47,-50.58 791.95,-32.05"/>
<polygon fill="midnightblue" stroke="midnightblue" points="794.18,-29.34 784.45,-25.15 789.44,-34.49 794.18,-29.34"/>
</g>
<!-- Node14 -->
<g id="node14" class="node">
<title>Node14</title>
<g id="a_node14"><a xlink:title=" ">
<polygon fill="none" stroke="#bfbfbf" points="1839,-6 1839,-25 1952,-25 1952,-6 1839,-6"/>
<text text-anchor="middle" x="1895.5" y="-13" font-family="Helvetica,sans-Serif" font-size="10.00">boost/geometry.hpp</text>
</a>
</g>
</g>
<!-- Node2&#45;&gt;Node14 -->
<g id="edge53" class="edge">
<title>Node2&#45;&gt;Node14</title>
<path fill="none" stroke="midnightblue" d="M1353.21,-209.02C1325.12,-202.63 1293.83,-189.98 1276.5,-165 1258.86,-139.57 1292,-72.05 1298.5,-67 1345.28,-30.65 1771.86,-39.47 1830.5,-31 1837.42,-30 1844.7,-28.66 1851.78,-27.21"/>
<polygon fill="midnightblue" stroke="midnightblue" points="1852.91,-30.54 1861.94,-25.01 1851.43,-23.7 1852.91,-30.54"/>
</g>
<!-- Node24 -->
<g id="node24" class="node">
<title>Node24</title>
<g id="a_node24"><a xlink:href="hdf5__fb__general_8h.html" target="_top" xlink:title=" ">
<polygon fill="none" stroke="black" points="1562.5,-140 1562.5,-159 1666.5,-159 1666.5,-140 1562.5,-140"/>
<text text-anchor="middle" x="1614.5" y="-147" font-family="Helvetica,sans-Serif" font-size="10.00">hdf5_fb_general.h</text>
</a>
</g>
</g>
<!-- Node2&#45;&gt;Node24 -->
<g id="edge36" class="edge">
<title>Node2&#45;&gt;Node24</title>
<path fill="none" stroke="midnightblue" d="M1455.55,-201.4C1492.27,-189.64 1543.95,-173.09 1578.3,-162.09"/>
<polygon fill="midnightblue" stroke="midnightblue" points="1579.48,-165.39 1587.93,-159.01 1577.34,-158.72 1579.48,-165.39"/>
</g>
<!-- Node32 -->
<g id="node32" class="node">
<title>Node32</title>
<g id="a_node32"><a xlink:title=" ">
<polygon fill="none" stroke="#bfbfbf" points="1684.5,-134.5 1684.5,-164.5 1824.5,-164.5 1824.5,-134.5 1684.5,-134.5"/>
<text text-anchor="start" x="1692.5" y="-152.5" font-family="Helvetica,sans-Serif" font-size="10.00">seerep_msgs/point_cloud</text>
<text text-anchor="middle" x="1754.5" y="-141.5" font-family="Helvetica,sans-Serif" font-size="10.00">_2_generated.h</text>
</a>
</g>
</g>
<!-- Node2&#45;&gt;Node32 -->
<g id="edge51" class="edge">
<title>Node2&#45;&gt;Node32</title>
<path fill="none" stroke="midnightblue" d="M1469.58,-202.81C1472.6,-202.19 1475.58,-201.58 1478.5,-201 1562.72,-184.2 1586.31,-181.23 1674.4,-165.2"/>
<polygon fill="midnightblue" stroke="midnightblue" points="1675.08,-168.63 1684.29,-163.39 1673.82,-161.74 1675.08,-168.63"/>
</g>
<!-- Node33 -->
<g id="node33" class="node">
<title>Node33</title>
<g id="a_node33"><a xlink:title=" ">
<polygon fill="none" stroke="#bfbfbf" points="1843,-134.5 1843,-164.5 1978,-164.5 1978,-134.5 1843,-134.5"/>
<text text-anchor="start" x="1851" y="-152.5" font-family="Helvetica,sans-Serif" font-size="10.00">seerep_com/point_cloud</text>
<text text-anchor="middle" x="1910.5" y="-141.5" font-family="Helvetica,sans-Serif" font-size="10.00">_service.grpc.fb.h</text>
</a>
</g>
</g>
<!-- Node2&#45;&gt;Node33 -->
<g id="edge52" class="edge">
<title>Node2&#45;&gt;Node33</title>
<path fill="none" stroke="midnightblue" d="M1469.53,-202.52C1472.56,-201.98 1475.56,-201.47 1478.5,-201 1631.92,-176.7 1674.8,-187.24 1832.87,-165"/>
<polygon fill="midnightblue" stroke="midnightblue" points="1833.54,-168.44 1842.95,-163.56 1832.55,-161.51 1833.54,-168.44"/>
</g>
<!-- Node34 -->
<g id="node34" class="node">
<title>Node34</title>
<g id="a_node34"><a xlink:title=" ">
<polygon fill="none" stroke="#bfbfbf" points="1996,-140 1996,-159 2151,-159 2151,-140 1996,-140"/>
<text text-anchor="middle" x="2073.5" y="-147" font-family="Helvetica,sans-Serif" font-size="10.00">impl/hdf5_fb_pointcloud.hpp</text>
</a>
</g>
</g>
<!-- Node2&#45;&gt;Node34 -->
<g id="edge55" class="edge">
<title>Node2&#45;&gt;Node34</title>
<path fill="none" stroke="midnightblue" d="M1469.51,-202.42C1472.55,-201.9 1475.55,-201.42 1478.5,-201 1703.01,-168.93 1762.31,-191.88 1987.5,-165 1997.31,-163.83 2007.71,-162.31 2017.75,-160.7"/>
<polygon fill="midnightblue" stroke="midnightblue" points="2018.35,-164.15 2027.65,-159.07 2017.21,-157.25 2018.35,-164.15"/>
</g>
<!-- Node4&#45;&gt;Node3 -->
<g id="edge4" class="edge">
<title>Node4&#45;&gt;Node3</title>
<path fill="none" stroke="midnightblue" d="M805.56,-143.21C887.08,-135.9 1032.03,-120.95 1154.5,-98 1209.49,-87.7 1221.19,-75.4 1276.5,-67 1577.91,-21.24 1659.52,-72.83 1961.5,-31 1968.4,-30.04 1975.65,-28.72 1982.7,-27.25"/>
<polygon fill="midnightblue" stroke="midnightblue" points="1983.79,-30.6 1992.81,-25.03 1982.29,-23.76 1983.79,-30.6"/>
</g>
<!-- Node5 -->
<g id="node5" class="node">
<title>Node5</title>
<g id="a_node5"><a xlink:href="hdf5__core__datatype__interface_8h.html" target="_top" xlink:title=" ">
<polygon fill="none" stroke="black" points="598,-67.5 598,-97.5 711,-97.5 711,-67.5 598,-67.5"/>
<text text-anchor="start" x="606" y="-85.5" font-family="Helvetica,sans-Serif" font-size="10.00">hdf5_core_datatype</text>
<text text-anchor="middle" x="654.5" y="-74.5" font-family="Helvetica,sans-Serif" font-size="10.00">_interface.h</text>
</a>
</g>
</g>
<!-- Node4&#45;&gt;Node5 -->
<g id="edge5" class="edge">
<title>Node4&#45;&gt;Node5</title>
<path fill="none" stroke="midnightblue" d="M722.62,-134.4C710.65,-125.45 694.97,-113.74 681.67,-103.8"/>
<polygon fill="midnightblue" stroke="midnightblue" points="683.45,-100.76 673.34,-97.58 679.26,-106.37 683.45,-100.76"/>
</g>
<!-- Node6 -->
<g id="node6" class="node">
<title>Node6</title>
<g id="a_node6"><a xlink:title=" ">
<polygon fill="none" stroke="#bfbfbf" points="608,-0.5 608,-30.5 729,-30.5 729,-0.5 608,-0.5"/>
<text text-anchor="start" x="616" y="-18.5" font-family="Helvetica,sans-Serif" font-size="10.00">seerep_msgs/dataset</text>
<text text-anchor="middle" x="668.5" y="-7.5" font-family="Helvetica,sans-Serif" font-size="10.00">_indexable.h</text>
</a>
</g>
</g>
<!-- Node4&#45;&gt;Node6 -->
<g id="edge28" class="edge">
<title>Node4&#45;&gt;Node6</title>
<path fill="none" stroke="midnightblue" d="M740.21,-134.36C738.14,-117.37 732.97,-88.48 720.5,-67 714.1,-55.97 704.62,-45.76 695.5,-37.45"/>
<polygon fill="midnightblue" stroke="midnightblue" points="697.51,-34.57 687.66,-30.67 692.93,-39.86 697.51,-34.57"/>
</g>
<!-- Node7 -->
<g id="node7" class="node">
<title>Node7</title>
<g id="a_node7"><a xlink:title=" ">
<polygon fill="none" stroke="#bfbfbf" points="288,-6 288,-25 401,-25 401,-6 288,-6"/>
<text text-anchor="middle" x="344.5" y="-13" font-family="Helvetica,sans-Serif" font-size="10.00">boost/uuid/uuid.hpp</text>
</a>
</g>
</g>
<!-- Node4&#45;&gt;Node7 -->
<g id="edge33" class="edge">
<title>Node4&#45;&gt;Node7</title>
<path fill="none" stroke="midnightblue" d="M678.55,-134.4C640.05,-125.23 590.01,-112.34 546.5,-98 483.36,-77.19 411.69,-46.53 372.97,-29.36"/>
<polygon fill="midnightblue" stroke="midnightblue" points="373.97,-25.97 363.41,-25.1 371.12,-32.36 373.97,-25.97"/>
</g>
<!-- Node4&#45;&gt;Node8 -->
<g id="edge30" class="edge">
<title>Node4&#45;&gt;Node8</title>
<path fill="none" stroke="midnightblue" d="M745.14,-134.37C751.31,-110.4 763.85,-61.75 770.72,-35.06"/>
<polygon fill="midnightblue" stroke="midnightblue" points="774.18,-35.65 773.29,-25.1 767.4,-33.91 774.18,-35.65"/>
</g>
<!-- Node9 -->
<g id="node9" class="node">
<title>Node9</title>
<g id="a_node9"><a xlink:href="hdf5__core__general_8h.html" target="_top" xlink:title=" ">
<polygon fill="none" stroke="black" points="994.5,-73 994.5,-92 1110.5,-92 1110.5,-73 994.5,-73"/>
<text text-anchor="middle" x="1052.5" y="-80" font-family="Helvetica,sans-Serif" font-size="10.00">hdf5_core_general.h</text>
</a>
</g>
</g>
<!-- Node4&#45;&gt;Node9 -->
<g id="edge9" class="edge">
<title>Node4&#45;&gt;Node9</title>
<path fill="none" stroke="midnightblue" d="M805.56,-135.11C863.7,-122.96 948.27,-105.28 1001.82,-94.09"/>
<polygon fill="midnightblue" stroke="midnightblue" points="1002.7,-97.48 1011.77,-92.01 1001.27,-90.63 1002.7,-97.48"/>
</g>
<!-- Node4&#45;&gt;Node14 -->
<g id="edge29" class="edge">
<title>Node4&#45;&gt;Node14</title>
<path fill="none" stroke="midnightblue" d="M805.75,-149.32C882.94,-148.2 1015.08,-139.55 1119.5,-98 1141.39,-89.29 1140.28,-74.84 1162.5,-67 1302.69,-17.53 1683.23,-51.25 1830.5,-31 1837.5,-30.04 1844.87,-28.71 1852.02,-27.24"/>
<polygon fill="midnightblue" stroke="midnightblue" points="1853.26,-30.55 1862.29,-25.02 1851.78,-23.71 1853.26,-30.55"/>
</g>
<!-- Node19 -->
<g id="node19" class="node">
<title>Node19</title>
<g id="a_node19"><a xlink:title=" ">
<polygon fill="none" stroke="#bfbfbf" points="822,-6 822,-25 965,-25 965,-6 822,-6"/>
<text text-anchor="middle" x="893.5" y="-13" font-family="Helvetica,sans-Serif" font-size="10.00">boost/functional/hash.hpp</text>
</a>
</g>
</g>
<!-- Node4&#45;&gt;Node19 -->
<g id="edge31" class="edge">
<title>Node4&#45;&gt;Node19</title>
<path fill="none" stroke="midnightblue" d="M757.77,-134.37C786.49,-109.43 845.94,-57.8 875.71,-31.95"/>
<polygon fill="midnightblue" stroke="midnightblue" points="878.34,-34.3 883.6,-25.1 873.75,-29.01 878.34,-34.3"/>
</g>
<!-- Node20 -->
<g id="node20" class="node">
<title>Node20</title>
<g id="a_node20"><a xlink:title=" ">
<polygon fill="none" stroke="#bfbfbf" points="145,-6 145,-25 270,-25 270,-6 145,-6"/>
<text text-anchor="middle" x="207.5" y="-13" font-family="Helvetica,sans-Serif" font-size="10.00">boost/lexical_cast.hpp</text>
</a>
</g>
</g>
<!-- Node4&#45;&gt;Node20 -->
<g id="edge32" class="edge">
<title>Node4&#45;&gt;Node20</title>
<path fill="none" stroke="midnightblue" d="M677.23,-139.68C619.32,-131.12 532.07,-116.69 457.5,-98 377.92,-78.06 286.86,-45.95 239.67,-28.58"/>
<polygon fill="midnightblue" stroke="midnightblue" points="240.87,-25.3 230.28,-25.11 238.45,-31.86 240.87,-25.3"/>
</g>
<!-- Node21 -->
<g id="node21" class="node">
<title>Node21</title>
<g id="a_node21"><a xlink:title=" ">
<polygon fill="none" stroke="#bfbfbf" points="419.5,-6 419.5,-25 589.5,-25 589.5,-6 419.5,-6"/>
<text text-anchor="middle" x="504.5" y="-13" font-family="Helvetica,sans-Serif" font-size="10.00">boost/uuid/uuid_generators.hpp</text>
</a>
</g>
</g>
<!-- Node4&#45;&gt;Node21 -->
<g id="edge34" class="edge">
<title>Node4&#45;&gt;Node21</title>
<path fill="none" stroke="midnightblue" d="M678.88,-134.44C650.34,-126.38 616.89,-114.51 589.5,-98 560.61,-80.58 533.65,-51.76 518.13,-33.47"/>
<polygon fill="midnightblue" stroke="midnightblue" points="520.55,-30.9 511.48,-25.43 515.16,-35.37 520.55,-30.9"/>
</g>
<!-- Node22 -->
<g id="node22" class="node">
<title>Node22</title>
<g id="a_node22"><a xlink:title=" ">
<polygon fill="none" stroke="#bfbfbf" points="0,-6 0,-25 127,-25 127,-6 0,-6"/>
<text text-anchor="middle" x="63.5" y="-13" font-family="Helvetica,sans-Serif" font-size="10.00">boost/uuid/uuid_io.hpp</text>
</a>
</g>
</g>
<!-- Node4&#45;&gt;Node22 -->
<g id="edge35" class="edge">
<title>Node4&#45;&gt;Node22</title>
<path fill="none" stroke="midnightblue" d="M677.19,-143.19C599.13,-136.06 463.76,-121.5 349.5,-98 257.57,-79.09 151.99,-45.94 98.5,-28.31"/>
<polygon fill="midnightblue" stroke="midnightblue" points="99.41,-24.93 88.82,-25.1 97.21,-31.57 99.41,-24.93"/>
</g>
<!-- Node5&#45;&gt;Node6 -->
<g id="edge6" class="edge">
<title>Node5&#45;&gt;Node6</title>
<path fill="none" stroke="midnightblue" d="M657.54,-67.4C659.23,-59.56 661.37,-49.6 663.32,-40.57"/>
<polygon fill="midnightblue" stroke="midnightblue" points="666.78,-41.09 665.47,-30.58 659.94,-39.62 666.78,-41.09"/>
</g>
<!-- Node5&#45;&gt;Node7 -->
<g id="edge7" class="edge">
<title>Node5&#45;&gt;Node7</title>
<path fill="none" stroke="midnightblue" d="M597.76,-69.96C548.28,-59.85 474.6,-44.67 410.5,-31 404.77,-29.78 398.76,-28.48 392.8,-27.18"/>
<polygon fill="midnightblue" stroke="midnightblue" points="393.39,-23.73 382.87,-25.01 391.89,-30.57 393.39,-23.73"/>
</g>
<!-- Node5&#45;&gt;Node8 -->
<g id="edge8" class="edge">
<title>Node5&#45;&gt;Node8</title>
<path fill="none" stroke="midnightblue" d="M680.76,-67.4C701.52,-56.24 730.3,-40.78 750.68,-29.83"/>
<polygon fill="midnightblue" stroke="midnightblue" points="752.51,-32.82 759.66,-25.01 749.2,-26.66 752.51,-32.82"/>
</g>
<!-- Node9&#45;&gt;Node3 -->
<g id="edge10" class="edge">
<title>Node9&#45;&gt;Node3</title>
<path fill="none" stroke="midnightblue" d="M1110.69,-76.54C1147.35,-73.52 1195.67,-69.74 1238.5,-67 1559.58,-46.5 1642.75,-74.71 1961.5,-31 1968.4,-30.05 1975.66,-28.73 1982.7,-27.27"/>
<polygon fill="midnightblue" stroke="midnightblue" points="1983.79,-30.61 1992.81,-25.05 1982.29,-23.78 1983.79,-30.61"/>
</g>
<!-- Node9&#45;&gt;Node6 -->
<g id="edge12" class="edge">
<title>Node9&#45;&gt;Node6</title>
<path fill="none" stroke="midnightblue" d="M994.49,-72.97C933.53,-63.82 834.61,-48.47 739.28,-31.09"/>
<polygon fill="midnightblue" stroke="midnightblue" points="739.64,-27.6 729.17,-29.24 738.38,-34.49 739.64,-27.6"/>
</g>
<!-- Node9&#45;&gt;Node7 -->
<g id="edge24" class="edge">
<title>Node9&#45;&gt;Node7</title>
<path fill="none" stroke="midnightblue" d="M994.21,-79.6C881.11,-75.33 624.22,-62.73 410.5,-31 403.56,-29.97 396.26,-28.63 389.15,-27.18"/>
<polygon fill="midnightblue" stroke="midnightblue" points="389.44,-23.66 378.93,-25 387.98,-30.51 389.44,-23.66"/>
</g>
<!-- Node9&#45;&gt;Node8 -->
<g id="edge18" class="edge">
<title>Node9&#45;&gt;Node8</title>
<path fill="none" stroke="midnightblue" d="M1000.64,-72.96C951.83,-64.35 876.96,-49.69 813.5,-31 810.92,-30.24 808.27,-29.39 805.62,-28.48"/>
<polygon fill="midnightblue" stroke="midnightblue" points="806.8,-25.19 796.21,-25.07 804.42,-31.77 806.8,-25.19"/>
</g>
<!-- Node10 -->
<g id="node10" class="node">
<title>Node10</title>
<g id="a_node10"><a xlink:title=" ">
<polygon fill="none" stroke="#bfbfbf" points="1154,-6 1154,-25 1271,-25 1271,-6 1154,-6"/>
<text text-anchor="middle" x="1212.5" y="-13" font-family="Helvetica,sans-Serif" font-size="10.00">seerep_msgs/aabb.h</text>
</a>
</g>
</g>
<!-- Node9&#45;&gt;Node10 -->
<g id="edge11" class="edge">
<title>Node9&#45;&gt;Node10</title>
<path fill="none" stroke="midnightblue" d="M1073.75,-72.87C1101.44,-61.62 1150.06,-41.87 1181.77,-28.99"/>
<polygon fill="midnightblue" stroke="midnightblue" points="1183.47,-32.07 1191.42,-25.06 1180.84,-25.58 1183.47,-32.07"/>
</g>
<!-- Node11 -->
<g id="node11" class="node">
<title>Node11</title>
<g id="a_node11"><a xlink:title=" ">
<polygon fill="none" stroke="#bfbfbf" points="1289.5,-0.5 1289.5,-30.5 1415.5,-30.5 1415.5,-0.5 1289.5,-0.5"/>
<text text-anchor="start" x="1297.5" y="-18.5" font-family="Helvetica,sans-Serif" font-size="10.00">seerep_msgs/geodetic</text>
<text text-anchor="middle" x="1352.5" y="-7.5" font-family="Helvetica,sans-Serif" font-size="10.00">_coordinates.h</text>
</a>
</g>
</g>
<!-- Node9&#45;&gt;Node11 -->
<g id="edge13" class="edge">
<title>Node9&#45;&gt;Node11</title>
<path fill="none" stroke="midnightblue" d="M1092.03,-72.94C1139.56,-62.64 1220.29,-45.15 1279.3,-32.36"/>
<polygon fill="midnightblue" stroke="midnightblue" points="1280.28,-35.73 1289.32,-30.19 1278.8,-28.89 1280.28,-35.73"/>
</g>
<!-- Node12 -->
<g id="node12" class="node">
<title>Node12</title>
<g id="a_node12"><a xlink:title=" ">
<polygon fill="none" stroke="#bfbfbf" points="1434,-6 1434,-25 1551,-25 1551,-6 1434,-6"/>
<text text-anchor="middle" x="1492.5" y="-13" font-family="Helvetica,sans-Serif" font-size="10.00">seerep_msgs/label.h</text>
</a>
</g>
</g>
<!-- Node9&#45;&gt;Node12 -->
<g id="edge14" class="edge">
<title>Node9&#45;&gt;Node12</title>
<path fill="none" stroke="midnightblue" d="M1092.01,-72.96C1102.54,-70.84 1113.92,-68.7 1124.5,-67 1257.09,-45.73 1292.03,-53.03 1424.5,-31 1431.3,-29.87 1438.45,-28.52 1445.46,-27.11"/>
<polygon fill="midnightblue" stroke="midnightblue" points="1446.48,-30.47 1455.56,-25.01 1445.06,-23.62 1446.48,-30.47"/>
</g>
<!-- Node13 -->
<g id="node13" class="node">
<title>Node13</title>
<g id="a_node13"><a xlink:title=" ">
<polygon fill="none" stroke="#bfbfbf" points="1569.5,-6 1569.5,-25 1733.5,-25 1733.5,-6 1569.5,-6"/>
<text text-anchor="middle" x="1651.5" y="-13" font-family="Helvetica,sans-Serif" font-size="10.00">seerep_msgs/label_category.h</text>
</a>
</g>
</g>
<!-- Node9&#45;&gt;Node13 -->
<g id="edge15" class="edge">
<title>Node9&#45;&gt;Node13</title>
<path fill="none" stroke="midnightblue" d="M1090.47,-72.99C1101.41,-70.78 1113.39,-68.57 1124.5,-67 1317.02,-39.76 1367.47,-54.31 1560.5,-31 1570.85,-29.75 1581.83,-28.2 1592.44,-26.58"/>
<polygon fill="midnightblue" stroke="midnightblue" points="1593.14,-30.01 1602.48,-25.01 1592.06,-23.09 1593.14,-30.01"/>
</g>
<!-- Node9&#45;&gt;Node14 -->
<g id="edge16" class="edge">
<title>Node9&#45;&gt;Node14</title>
<path fill="none" stroke="midnightblue" d="M1089.33,-72.99C1100.56,-70.69 1112.99,-68.44 1124.5,-67 1436.24,-27.88 1519.18,-73.35 1830.5,-31 1837.5,-30.05 1844.87,-28.72 1852.03,-27.26"/>
<polygon fill="midnightblue" stroke="midnightblue" points="1853.26,-30.57 1862.29,-25.04 1851.78,-23.73 1853.26,-30.57"/>
</g>
<!-- Node15 -->
<g id="node15" class="node">
<title>Node15</title>
<g id="a_node15"><a xlink:title=" ">
<polygon fill="none" stroke="#bfbfbf" points="2098.5,-6 2098.5,-25 2146.5,-25 2146.5,-6 2098.5,-6"/>
<text text-anchor="middle" x="2122.5" y="-13" font-family="Helvetica,sans-Serif" font-size="10.00">mutex</text>
</a>
</g>
</g>
<!-- Node9&#45;&gt;Node15 -->
<g id="edge17" class="edge">
<title>Node9&#45;&gt;Node15</title>
<path fill="none" stroke="midnightblue" d="M1110.67,-78.05C1162.75,-75 1241.22,-70.5 1309.5,-67 1482.79,-58.11 1920.55,-70.57 2089.5,-31 2091.86,-30.45 2094.27,-29.73 2096.65,-28.91"/>
<polygon fill="midnightblue" stroke="midnightblue" points="2098.14,-32.08 2106.12,-25.11 2095.54,-25.58 2098.14,-32.08"/>
</g>
<!-- Node16 -->
<g id="node16" class="node">
<title>Node16</title>
<g id="a_node16"><a xlink:title=" ">
<polygon fill="none" stroke="#bfbfbf" points="1752,-6 1752,-25 1821,-25 1821,-6 1752,-6"/>
<text text-anchor="middle" x="1786.5" y="-13" font-family="Helvetica,sans-Serif" font-size="10.00">type_traits</text>
</a>
</g>
</g>
<!-- Node9&#45;&gt;Node16 -->
<g id="edge19" class="edge">
<title>Node9&#45;&gt;Node16</title>
<path fill="none" stroke="midnightblue" d="M1089.7,-72.97C1100.84,-70.7 1113.12,-68.47 1124.5,-67 1397.37,-31.75 1472.23,-82.49 1742.5,-31 1746.48,-30.24 1750.59,-29.22 1754.63,-28.07"/>
<polygon fill="midnightblue" stroke="midnightblue" points="1755.91,-31.34 1764.41,-25.02 1753.82,-24.66 1755.91,-31.34"/>
</g>
<!-- Node17 -->
<g id="node17" class="node">
<title>Node17</title>
<g id="a_node17"><a xlink:title=" ">
<polygon fill="none" stroke="#bfbfbf" points="2165,-0.5 2165,-30.5 2310,-30.5 2310,-0.5 2165,-0.5"/>
<text text-anchor="start" x="2173" y="-18.5" font-family="Helvetica,sans-Serif" font-size="10.00">boost/log/sources/severity</text>
<text text-anchor="middle" x="2237.5" y="-7.5" font-family="Helvetica,sans-Serif" font-size="10.00">_logger.hpp</text>
</a>
</g>
</g>
<!-- Node9&#45;&gt;Node17 -->
<g id="edge20" class="edge">
<title>Node9&#45;&gt;Node17</title>
<path fill="none" stroke="midnightblue" d="M1110.67,-77.99C1162.75,-74.9 1241.21,-70.38 1309.5,-67 1682.08,-48.56 1779.67,-71.45 2154.65,-30.98"/>
<polygon fill="midnightblue" stroke="midnightblue" points="2155.13,-34.45 2164.69,-29.89 2154.37,-27.49 2155.13,-34.45"/>
</g>
<!-- Node18 -->
<g id="node18" class="node">
<title>Node18</title>
<g id="a_node18"><a xlink:title=" ">
<polygon fill="none" stroke="#bfbfbf" points="2328.5,-6 2328.5,-25 2442.5,-25 2442.5,-6 2328.5,-6"/>
<text text-anchor="middle" x="2385.5" y="-13" font-family="Helvetica,sans-Serif" font-size="10.00">boost/log/trivial.hpp</text>
</a>
</g>
</g>
<!-- Node9&#45;&gt;Node18 -->
<g id="edge21" class="edge">
<title>Node9&#45;&gt;Node18</title>
<path fill="none" stroke="midnightblue" d="M1110.66,-77.87C1162.74,-74.71 1241.2,-70.14 1309.5,-67 1758.2,-46.35 1873.88,-87.42 2319.5,-31 2326.86,-30.07 2334.61,-28.71 2342.12,-27.2"/>
<polygon fill="midnightblue" stroke="midnightblue" points="2343.08,-30.57 2352.13,-25.06 2341.62,-23.72 2343.08,-30.57"/>
</g>
<!-- Node9&#45;&gt;Node19 -->
<g id="edge22" class="edge">
<title>Node9&#45;&gt;Node19</title>
<path fill="none" stroke="midnightblue" d="M1031.39,-72.87C1003.87,-61.62 955.55,-41.87 924.04,-28.99"/>
<polygon fill="midnightblue" stroke="midnightblue" points="925.03,-25.61 914.45,-25.06 922.38,-32.09 925.03,-25.61"/>
</g>
<!-- Node9&#45;&gt;Node20 -->
<g id="edge23" class="edge">
<title>Node9&#45;&gt;Node20</title>
<path fill="none" stroke="midnightblue" d="M994.39,-78.71C839.25,-71.11 417.73,-49.35 279.5,-31 271.59,-29.95 263.24,-28.55 255.15,-27.03"/>
<polygon fill="midnightblue" stroke="midnightblue" points="255.57,-23.54 245.08,-25.05 254.22,-30.41 255.57,-23.54"/>
</g>
<!-- Node9&#45;&gt;Node21 -->
<g id="edge25" class="edge">
<title>Node9&#45;&gt;Node21</title>
<path fill="none" stroke="midnightblue" d="M994.49,-75.79C908.23,-67.13 741.11,-49.69 599.5,-31 589.22,-29.64 578.34,-28.09 567.74,-26.52"/>
<polygon fill="midnightblue" stroke="midnightblue" points="568.11,-23.03 557.71,-25.01 567.07,-29.96 568.11,-23.03"/>
</g>
<!-- Node9&#45;&gt;Node22 -->
<g id="edge26" class="edge">
<title>Node9&#45;&gt;Node22</title>
<path fill="none" stroke="midnightblue" d="M994.44,-78.78C806.38,-69.89 221.19,-41.69 136.5,-31 128.3,-29.96 119.64,-28.54 111.25,-26.99"/>
<polygon fill="midnightblue" stroke="midnightblue" points="111.71,-23.51 101.22,-25.05 110.38,-30.38 111.71,-23.51"/>
</g>
<!-- Node23 -->
<g id="node23" class="node">
<title>Node23</title>
<g id="a_node23"><a xlink:title=" ">
<polygon fill="none" stroke="#bfbfbf" points="983.5,-6 983.5,-25 1135.5,-25 1135.5,-6 983.5,-6"/>
<text text-anchor="middle" x="1059.5" y="-13" font-family="Helvetica,sans-Serif" font-size="10.00">impl/hdf5_core_general.hpp</text>
</a>
</g>
</g>
<!-- Node9&#45;&gt;Node23 -->
<g id="edge27" class="edge">
<title>Node9&#45;&gt;Node23</title>
<path fill="none" stroke="midnightblue" d="M1053.44,-72.73C1054.47,-63.18 1056.15,-47.62 1057.48,-35.28"/>
<polygon fill="midnightblue" stroke="midnightblue" points="1060.98,-35.44 1058.57,-25.13 1054.02,-34.7 1060.98,-35.44"/>
</g>
<!-- Node24&#45;&gt;Node3 -->
<g id="edge37" class="edge">
<title>Node24&#45;&gt;Node3</title>
<path fill="none" stroke="midnightblue" d="M1645.96,-139.94C1655.39,-137.66 1665.81,-135.44 1675.5,-134 1739.04,-124.54 2208.52,-144.81 2252.5,-98 2342.28,-2.44 2342.18,-87.53 2089.5,-31 2084.15,-29.8 2078.55,-28.54 2072.98,-27.29"/>
<polygon fill="midnightblue" stroke="midnightblue" points="2073.58,-23.84 2063.06,-25.04 2072.04,-30.66 2073.58,-23.84"/>
</g>
<!-- Node24&#45;&gt;Node8 -->
<g id="edge47" class="edge">
<title>Node24&#45;&gt;Node8</title>
<path fill="none" stroke="midnightblue" d="M1562.37,-149.37C1453.63,-150.09 1195.34,-146.06 985.5,-98 916.62,-82.22 840.36,-48.12 801.45,-29.41"/>
<polygon fill="midnightblue" stroke="midnightblue" points="802.91,-26.23 792.39,-25.01 799.85,-32.53 802.91,-26.23"/>
</g>
<!-- Node24&#45;&gt;Node9 -->
<g id="edge38" class="edge">
<title>Node24&#45;&gt;Node9</title>
<path fill="none" stroke="midnightblue" d="M1562.38,-142.47C1460.43,-130.68 1234.62,-104.56 1120.85,-91.4"/>
<polygon fill="midnightblue" stroke="midnightblue" points="1121.19,-87.92 1110.86,-90.25 1120.39,-94.88 1121.19,-87.92"/>
</g>
<!-- Node24&#45;&gt;Node14 -->
<g id="edge44" class="edge">
<title>Node24&#45;&gt;Node14</title>
<path fill="none" stroke="midnightblue" d="M1562.31,-147.67C1483.86,-145.19 1341.31,-135.51 1309.5,-98 1300.59,-87.49 1300.1,-77.07 1309.5,-67 1349.09,-24.58 1773.08,-39.34 1830.5,-31 1837.34,-30.01 1844.53,-28.69 1851.54,-27.25"/>
<polygon fill="midnightblue" stroke="midnightblue" points="1852.57,-30.6 1861.61,-25.07 1851.09,-23.76 1852.57,-30.6"/>
</g>
<!-- Node24&#45;&gt;Node15 -->
<g id="edge46" class="edge">
<title>Node24&#45;&gt;Node15</title>
<path fill="none" stroke="midnightblue" d="M1645.64,-139.99C1655.16,-137.69 1665.7,-135.44 1675.5,-134 1742.23,-124.16 2235.24,-147.09 2281.5,-98 2290.95,-87.97 2289.79,-78.01 2281.5,-67 2246.73,-20.81 2210.97,-50.38 2156.5,-31 2154.64,-30.34 2152.74,-29.63 2150.83,-28.89"/>
<polygon fill="midnightblue" stroke="midnightblue" points="2151.98,-25.58 2141.4,-25.05 2149.34,-32.06 2151.98,-25.58"/>
</g>
<!-- Node24&#45;&gt;Node17 -->
<g id="edge48" class="edge">
<title>Node24&#45;&gt;Node17</title>
<path fill="none" stroke="midnightblue" d="M1645.64,-139.98C1655.16,-137.68 1665.7,-135.44 1675.5,-134 1744.1,-123.94 2250.91,-148.42 2298.5,-98 2316.87,-78.54 2292.17,-53.59 2268.93,-36.45"/>
<polygon fill="midnightblue" stroke="midnightblue" points="2270.7,-33.42 2260.51,-30.52 2266.66,-39.14 2270.7,-33.42"/>
</g>
<!-- Node24&#45;&gt;Node18 -->
<g id="edge49" class="edge">
<title>Node24&#45;&gt;Node18</title>
<path fill="none" stroke="midnightblue" d="M1645.64,-139.98C1655.16,-137.67 1665.7,-135.43 1675.5,-134 1816.46,-113.45 2187.78,-161.07 2315.5,-98 2343.54,-84.15 2364.88,-53.48 2376.27,-33.97"/>
<polygon fill="midnightblue" stroke="midnightblue" points="2379.36,-35.6 2381.17,-25.16 2373.24,-32.2 2379.36,-35.6"/>
</g>
<!-- Node25 -->
<g id="node25" class="node">
<title>Node25</title>
<g id="a_node25"><a xlink:title=" ">
<polygon fill="none" stroke="#bfbfbf" points="1318.5,-67.5 1318.5,-97.5 1436.5,-97.5 1436.5,-67.5 1318.5,-67.5"/>
<text text-anchor="start" x="1326.5" y="-85.5" font-family="Helvetica,sans-Serif" font-size="10.00">seerep_msgs/header</text>
<text text-anchor="middle" x="1377.5" y="-74.5" font-family="Helvetica,sans-Serif" font-size="10.00">_generated.h</text>
</a>
</g>
</g>
<!-- Node24&#45;&gt;Node25 -->
<g id="edge39" class="edge">
<title>Node24&#45;&gt;Node25</title>
<path fill="none" stroke="midnightblue" d="M1583.03,-139.87C1546.31,-129.8 1484.75,-112.91 1438.55,-100.24"/>
<polygon fill="midnightblue" stroke="midnightblue" points="1439.22,-96.8 1428.65,-97.53 1437.37,-103.55 1439.22,-96.8"/>
</g>
<!-- Node26 -->
<g id="node26" class="node">
<title>Node26</title>
<g id="a_node26"><a xlink:title=" ">
<polygon fill="none" stroke="#bfbfbf" points="1454.5,-67.5 1454.5,-97.5 1610.5,-97.5 1610.5,-67.5 1454.5,-67.5"/>
<text text-anchor="start" x="1462.5" y="-85.5" font-family="Helvetica,sans-Serif" font-size="10.00">seerep_msgs/label_category</text>
<text text-anchor="middle" x="1532.5" y="-74.5" font-family="Helvetica,sans-Serif" font-size="10.00">_generated.h</text>
</a>
</g>
</g>
<!-- Node24&#45;&gt;Node26 -->
<g id="edge40" class="edge">
<title>Node24&#45;&gt;Node26</title>
<path fill="none" stroke="midnightblue" d="M1603.44,-139.73C1591.93,-130.61 1573.5,-116 1558.31,-103.96"/>
<polygon fill="midnightblue" stroke="midnightblue" points="1560.28,-101.06 1550.27,-97.59 1555.94,-106.54 1560.28,-101.06"/>
</g>
<!-- Node27 -->
<g id="node27" class="node">
<title>Node27</title>
<g id="a_node27"><a xlink:title=" ">
<polygon fill="none" stroke="#bfbfbf" points="1628.5,-67.5 1628.5,-97.5 1766.5,-97.5 1766.5,-67.5 1628.5,-67.5"/>
<text text-anchor="start" x="1636.5" y="-85.5" font-family="Helvetica,sans-Serif" font-size="10.00">seerep_msgs/union_map</text>
<text text-anchor="middle" x="1697.5" y="-74.5" font-family="Helvetica,sans-Serif" font-size="10.00">_entry_generated.h</text>
</a>
</g>
</g>
<!-- Node24&#45;&gt;Node27 -->
<g id="edge41" class="edge">
<title>Node24&#45;&gt;Node27</title>
<path fill="none" stroke="midnightblue" d="M1625.69,-139.73C1637.34,-130.61 1656,-116 1671.37,-103.96"/>
<polygon fill="midnightblue" stroke="midnightblue" points="1673.79,-106.51 1679.51,-97.59 1669.48,-101 1673.79,-106.51"/>
</g>
<!-- Node28 -->
<g id="node28" class="node">
<title>Node28</title>
<g id="a_node28"><a xlink:title=" ">
<polygon fill="none" stroke="#bfbfbf" points="1785,-73 1785,-92 1884,-92 1884,-73 1785,-73"/>
<text text-anchor="middle" x="1834.5" y="-80" font-family="Helvetica,sans-Serif" font-size="10.00">flatbuffers/grpc.h</text>
</a>
</g>
</g>
<!-- Node24&#45;&gt;Node28 -->
<g id="edge42" class="edge">
<title>Node24&#45;&gt;Node28</title>
<path fill="none" stroke="midnightblue" d="M1643.71,-139.87C1682.86,-128.3 1752.43,-107.75 1795.87,-94.91"/>
<polygon fill="midnightblue" stroke="midnightblue" points="1796.92,-98.25 1805.52,-92.06 1794.93,-91.54 1796.92,-98.25"/>
</g>
<!-- Node29 -->
<g id="node29" class="node">
<title>Node29</title>
<g id="a_node29"><a xlink:title=" ">
<polygon fill="none" stroke="#bfbfbf" points="1902,-73 1902,-92 1997,-92 1997,-73 1902,-73"/>
<text text-anchor="middle" x="1949.5" y="-80" font-family="Helvetica,sans-Serif" font-size="10.00">grpcpp/grpcpp.h</text>
</a>
</g>
</g>
<!-- Node24&#45;&gt;Node29 -->
<g id="edge43" class="edge">
<title>Node24&#45;&gt;Node29</title>
<path fill="none" stroke="midnightblue" d="M1648.61,-139.95C1657.35,-137.88 1666.75,-135.76 1675.5,-134 1771.77,-114.63 1797.43,-118.33 1893.5,-98 1898.47,-96.95 1903.66,-95.75 1908.79,-94.49"/>
<polygon fill="midnightblue" stroke="midnightblue" points="1909.67,-97.88 1918.52,-92.05 1907.96,-91.09 1909.67,-97.88"/>
</g>
<!-- Node30 -->
<g id="node30" class="node">
<title>Node30</title>
<g id="a_node30"><a xlink:title=" ">
<polygon fill="none" stroke="#bfbfbf" points="2015.5,-73 2015.5,-92 2083.5,-92 2083.5,-73 2015.5,-73"/>
<text text-anchor="middle" x="2049.5" y="-80" font-family="Helvetica,sans-Serif" font-size="10.00">filesystem</text>
</a>
</g>
</g>
<!-- Node24&#45;&gt;Node30 -->
<g id="edge45" class="edge">
<title>Node24&#45;&gt;Node30</title>
<path fill="none" stroke="midnightblue" d="M1646.95,-139.99C1656.13,-137.8 1666.17,-135.61 1675.5,-134 1821.32,-108.84 1861.98,-129.83 2006.5,-98 2009.99,-97.23 2013.6,-96.28 2017.16,-95.23"/>
<polygon fill="midnightblue" stroke="midnightblue" points="2018.53,-98.47 2027,-92.11 2016.41,-91.8 2018.53,-98.47"/>
</g>
<!-- Node31 -->
<g id="node31" class="node">
<title>Node31</title>
<g id="a_node31"><a xlink:title=" ">
<polygon fill="none" stroke="#bfbfbf" points="2102,-73 2102,-92 2243,-92 2243,-73 2102,-73"/>
<text text-anchor="middle" x="2172.5" y="-80" font-family="Helvetica,sans-Serif" font-size="10.00">impl/hdf5_fb_general.hpp</text>
</a>
</g>
</g>
<!-- Node24&#45;&gt;Node31 -->
<g id="edge50" class="edge">
<title>Node24&#45;&gt;Node31</title>
<path fill="none" stroke="midnightblue" d="M1646.61,-139.93C1655.88,-137.71 1666.04,-135.52 1675.5,-134 1859.15,-104.41 1908.11,-122.61 2092.5,-98 2101.24,-96.83 2110.48,-95.37 2119.46,-93.83"/>
<polygon fill="midnightblue" stroke="midnightblue" points="2120.2,-97.25 2129.44,-92.07 2118.98,-90.36 2120.2,-97.25"/>
</g>
</g>
</svg>
