<?xml version="1.0" encoding="UTF-8" standalone="no"?>
<!DOCTYPE svg PUBLIC "-//W3C//DTD SVG 1.1//EN"
 "http://www.w3.org/Graphics/SVG/1.1/DTD/svg11.dtd">
<!-- Generated by graphviz version 2.43.0 (0)
 -->
<!-- Title: seerep_hdf5/seerep_hdf5_py/include/seerep_hdf5_py/hdf5_py_tf.h Pages: 1 -->
<svg width="2449pt" height="240pt"
 viewBox="0.00 0.00 2449.00 240.00" xmlns="http://www.w3.org/2000/svg" xmlns:xlink="http://www.w3.org/1999/xlink">
<g id="graph0" class="graph" transform="scale(1 1) rotate(0) translate(4 236)">
<title>seerep_hdf5/seerep_hdf5_py/include/seerep_hdf5_py/hdf5_py_tf.h</title>
<!-- Node1 -->
<g id="node1" class="node">
<title>Node1</title>
<g id="a_node1"><a xlink:title=" ">
<polygon fill="#bfbfbf" stroke="black" points="968.5,-190.5 968.5,-231.5 1103.5,-231.5 1103.5,-190.5 968.5,-190.5"/>
<text text-anchor="start" x="976.5" y="-219.5" font-family="Helvetica,sans-Serif" font-size="10.00">seerep_hdf5/seerep</text>
<text text-anchor="start" x="976.5" y="-208.5" font-family="Helvetica,sans-Serif" font-size="10.00">_hdf5_py/include/seerep</text>
<text text-anchor="middle" x="1036" y="-197.5" font-family="Helvetica,sans-Serif" font-size="10.00">_hdf5_py/hdf5_py_tf.h</text>
</a>
</g>
</g>
<!-- Node2 -->
<g id="node2" class="node">
<title>Node2</title>
<g id="a_node2"><a xlink:title=" ">
<polygon fill="none" stroke="#bfbfbf" points="2331,-6 2331,-25 2441,-25 2441,-6 2331,-6"/>
<text text-anchor="middle" x="2386" y="-13" font-family="Helvetica,sans-Serif" font-size="10.00">highfive/H5File.hpp</text>
</a>
</g>
</g>
<!-- Node1&#45;&gt;Node2 -->
<g id="edge1" class="edge">
<title>Node1&#45;&gt;Node2</title>
<path fill="none" stroke="midnightblue" d="M1103.65,-196.07C1195.4,-177.52 1364.55,-144.56 1510,-123 1869.27,-69.74 1963.9,-91.66 2322,-31 2328.34,-29.93 2334.99,-28.62 2341.52,-27.24"/>
<polygon fill="midnightblue" stroke="midnightblue" points="2342.58,-30.59 2351.59,-25.03 2341.08,-23.75 2342.58,-30.59"/>
</g>
<!-- Node3 -->
<g id="node3" class="node">
<title>Node3</title>
<g id="a_node3"><a xlink:href="hdf5__core__tf_8h.html" target="_top" xlink:title=" ">
<polygon fill="none" stroke="black" points="707,-123.5 707,-153.5 835,-153.5 835,-123.5 707,-123.5"/>
<text text-anchor="start" x="715" y="-141.5" font-family="Helvetica,sans-Serif" font-size="10.00">seerep_hdf5_core/hdf5</text>
<text text-anchor="middle" x="771" y="-130.5" font-family="Helvetica,sans-Serif" font-size="10.00">_core_tf.h</text>
</a>
</g>
</g>
<!-- Node1&#45;&gt;Node3 -->
<g id="edge2" class="edge">
<title>Node1&#45;&gt;Node3</title>
<path fill="none" stroke="midnightblue" d="M968.44,-192.03C926.94,-180.98 874.13,-166.94 833.58,-156.15"/>
<polygon fill="midnightblue" stroke="midnightblue" points="834.37,-152.74 823.81,-153.55 832.57,-159.5 834.37,-152.74"/>
</g>
<!-- Node5 -->
<g id="node5" class="node">
<title>Node5</title>
<g id="a_node5"><a xlink:title=" ">
<polygon fill="none" stroke="#bfbfbf" points="0,-6 0,-25 56,-25 56,-6 0,-6"/>
<text text-anchor="middle" x="28" y="-13" font-family="Helvetica,sans-Serif" font-size="10.00">optional</text>
</a>
</g>
</g>
<!-- Node1&#45;&gt;Node5 -->
<g id="edge35" class="edge">
<title>Node1&#45;&gt;Node5</title>
<path fill="none" stroke="midnightblue" d="M968.36,-203.56C829.24,-189.46 501.54,-151.83 233,-87 169.26,-71.61 97.32,-44.51 57.87,-28.77"/>
<polygon fill="midnightblue" stroke="midnightblue" points="59.15,-25.51 48.57,-25.03 56.54,-32.01 59.15,-25.51"/>
</g>
<!-- Node12 -->
<g id="node12" class="node">
<title>Node12</title>
<g id="a_node12"><a xlink:title=" ">
<polygon fill="none" stroke="#bfbfbf" points="74.5,-6 74.5,-25 187.5,-25 187.5,-6 74.5,-6"/>
<text text-anchor="middle" x="131" y="-13" font-family="Helvetica,sans-Serif" font-size="10.00">boost/geometry.hpp</text>
</a>
</g>
</g>
<!-- Node1&#45;&gt;Node12 -->
<g id="edge34" class="edge">
<title>Node1&#45;&gt;Node12</title>
<path fill="none" stroke="midnightblue" d="M1019.97,-190.47C991.91,-157.93 930.33,-93.58 862,-67 723.87,-13.27 342.83,-51.2 196,-31 189,-30.04 181.63,-28.71 174.48,-27.24"/>
<polygon fill="midnightblue" stroke="midnightblue" points="174.72,-23.71 164.21,-25.02 173.24,-30.55 174.72,-23.71"/>
</g>
<!-- Node23 -->
<g id="node23" class="node">
<title>Node23</title>
<g id="a_node23"><a xlink:href="hdf5__py__general_8h.html" target="_top" xlink:title=" ">
<polygon fill="none" stroke="black" points="1137.5,-129 1137.5,-148 1244.5,-148 1244.5,-129 1137.5,-129"/>
<text text-anchor="middle" x="1191" y="-136" font-family="Helvetica,sans-Serif" font-size="10.00">hdf5_py_general.h</text>
</a>
</g>
</g>
<!-- Node1&#45;&gt;Node23 -->
<g id="edge24" class="edge">
<title>Node1&#45;&gt;Node23</title>
<path fill="none" stroke="midnightblue" d="M1079.18,-190.36C1105.83,-178.24 1139.26,-163.03 1162.6,-152.42"/>
<polygon fill="midnightblue" stroke="midnightblue" points="1164.28,-155.5 1171.93,-148.17 1161.38,-149.13 1164.28,-155.5"/>
</g>
<!-- Node26 -->
<g id="node26" class="node">
<title>Node26</title>
<g id="a_node26"><a xlink:title=" ">
<polygon fill="none" stroke="#bfbfbf" points="1519,-123.5 1519,-153.5 1651,-153.5 1651,-123.5 1519,-123.5"/>
<text text-anchor="start" x="1527" y="-141.5" font-family="Helvetica,sans-Serif" font-size="10.00">seerep_msgs/transform</text>
<text text-anchor="middle" x="1585" y="-130.5" font-family="Helvetica,sans-Serif" font-size="10.00">_stamped.pb.h</text>
</a>
</g>
</g>
<!-- Node1&#45;&gt;Node26 -->
<g id="edge33" class="edge">
<title>Node1&#45;&gt;Node26</title>
<path fill="none" stroke="midnightblue" d="M1103.74,-203.21C1195.08,-193.76 1362.68,-175.37 1505,-154 1506.26,-153.81 1507.52,-153.62 1508.8,-153.42"/>
<polygon fill="midnightblue" stroke="midnightblue" points="1509.38,-156.87 1518.7,-151.84 1508.27,-149.96 1509.38,-156.87"/>
</g>
<!-- Node4 -->
<g id="node4" class="node">
<title>Node4</title>
<g id="a_node4"><a xlink:title=" ">
<polygon fill="none" stroke="#bfbfbf" points="653,-67.5 653,-86.5 853,-86.5 853,-67.5 653,-67.5"/>
<text text-anchor="middle" x="753" y="-74.5" font-family="Helvetica,sans-Serif" font-size="10.00">geometry_msgs/TransformStamped.h</text>
</a>
</g>
</g>
<!-- Node3&#45;&gt;Node4 -->
<g id="edge3" class="edge">
<title>Node3&#45;&gt;Node4</title>
<path fill="none" stroke="midnightblue" d="M766.73,-123.4C764.28,-115.29 761.17,-105.01 758.53,-96.28"/>
<polygon fill="midnightblue" stroke="midnightblue" points="761.86,-95.22 755.62,-86.66 755.16,-97.24 761.86,-95.22"/>
</g>
<!-- Node3&#45;&gt;Node5 -->
<g id="edge4" class="edge">
<title>Node3&#45;&gt;Node5</title>
<path fill="none" stroke="midnightblue" d="M706.73,-132.65C581.49,-122.14 296.69,-93.04 65,-31 62.34,-30.29 59.62,-29.45 56.9,-28.53"/>
<polygon fill="midnightblue" stroke="midnightblue" points="57.91,-25.17 47.31,-25.01 55.49,-31.74 57.91,-25.17"/>
</g>
<!-- Node6 -->
<g id="node6" class="node">
<title>Node6</title>
<g id="a_node6"><a xlink:href="hdf5__core__general_8h.html" target="_top" xlink:title=" ">
<polygon fill="none" stroke="black" points="985,-67.5 985,-86.5 1101,-86.5 1101,-67.5 985,-67.5"/>
<text text-anchor="middle" x="1043" y="-74.5" font-family="Helvetica,sans-Serif" font-size="10.00">hdf5_core_general.h</text>
</a>
</g>
</g>
<!-- Node3&#45;&gt;Node6 -->
<g id="edge5" class="edge">
<title>Node3&#45;&gt;Node6</title>
<path fill="none" stroke="midnightblue" d="M835.12,-123.47C883.78,-112.83 949.68,-98.41 994.14,-88.69"/>
<polygon fill="midnightblue" stroke="midnightblue" points="995.09,-92.06 1004.11,-86.51 993.6,-85.22 995.09,-92.06"/>
</g>
<!-- Node6&#45;&gt;Node2 -->
<g id="edge6" class="edge">
<title>Node6&#45;&gt;Node2</title>
<path fill="none" stroke="midnightblue" d="M1101.06,-67.82C1104.08,-67.52 1107.08,-67.24 1110,-67 1647.11,-23.07 1787.38,-98.85 2322,-31 2329.23,-30.08 2336.84,-28.72 2344.18,-27.19"/>
<polygon fill="midnightblue" stroke="midnightblue" points="2344.97,-30.6 2353.99,-25.03 2343.47,-23.76 2344.97,-30.6"/>
</g>
<!-- Node6&#45;&gt;Node5 -->
<g id="edge14" class="edge">
<title>Node6&#45;&gt;Node5</title>
<path fill="none" stroke="midnightblue" d="M984.8,-70.8C968.09,-69.42 949.83,-68.04 933,-67 740.31,-55.13 253.91,-70.77 65,-31 61.99,-30.37 58.91,-29.51 55.87,-28.54"/>
<polygon fill="midnightblue" stroke="midnightblue" points="57.05,-25.24 46.45,-25.12 54.66,-31.82 57.05,-25.24"/>
</g>
<!-- Node7 -->
<g id="node7" class="node">
<title>Node7</title>
<g id="a_node7"><a xlink:title=" ">
<polygon fill="none" stroke="#bfbfbf" points="205.5,-6 205.5,-25 322.5,-25 322.5,-6 205.5,-6"/>
<text text-anchor="middle" x="264" y="-13" font-family="Helvetica,sans-Serif" font-size="10.00">seerep_msgs/aabb.h</text>
</a>
</g>
</g>
<!-- Node6&#45;&gt;Node7 -->
<g id="edge7" class="edge">
<title>Node6&#45;&gt;Node7</title>
<path fill="none" stroke="midnightblue" d="M984.88,-68.39C980.19,-67.88 975.52,-67.41 971,-67 687.27,-41.32 613.31,-69.25 331,-31 323.7,-30.01 316.02,-28.65 308.56,-27.16"/>
<polygon fill="midnightblue" stroke="midnightblue" points="309.1,-23.7 298.59,-25.07 307.66,-30.55 309.1,-23.7"/>
</g>
<!-- Node8 -->
<g id="node8" class="node">
<title>Node8</title>
<g id="a_node8"><a xlink:title=" ">
<polygon fill="none" stroke="#bfbfbf" points="340.5,-0.5 340.5,-30.5 461.5,-30.5 461.5,-0.5 340.5,-0.5"/>
<text text-anchor="start" x="348.5" y="-18.5" font-family="Helvetica,sans-Serif" font-size="10.00">seerep_msgs/dataset</text>
<text text-anchor="middle" x="401" y="-7.5" font-family="Helvetica,sans-Serif" font-size="10.00">_indexable.h</text>
</a>
</g>
</g>
<!-- Node6&#45;&gt;Node8 -->
<g id="edge8" class="edge">
<title>Node6&#45;&gt;Node8</title>
<path fill="none" stroke="midnightblue" d="M984.87,-68.47C980.18,-67.94 975.51,-67.44 971,-67 752.52,-45.49 693.4,-61.19 471.62,-30.95"/>
<polygon fill="midnightblue" stroke="midnightblue" points="472.01,-27.47 461.62,-29.57 471.05,-34.4 472.01,-27.47"/>
</g>
<!-- Node9 -->
<g id="node9" class="node">
<title>Node9</title>
<g id="a_node9"><a xlink:title=" ">
<polygon fill="none" stroke="#bfbfbf" points="480,-0.5 480,-30.5 606,-30.5 606,-0.5 480,-0.5"/>
<text text-anchor="start" x="488" y="-18.5" font-family="Helvetica,sans-Serif" font-size="10.00">seerep_msgs/geodetic</text>
<text text-anchor="middle" x="543" y="-7.5" font-family="Helvetica,sans-Serif" font-size="10.00">_coordinates.h</text>
</a>
</g>
</g>
<!-- Node6&#45;&gt;Node9 -->
<g id="edge9" class="edge">
<title>Node6&#45;&gt;Node9</title>
<path fill="none" stroke="midnightblue" d="M984.86,-68.61C980.17,-68.05 975.51,-67.51 971,-67 816.22,-49.5 773.97,-54.51 616.22,-31.09"/>
<polygon fill="midnightblue" stroke="midnightblue" points="616.56,-27.6 606.15,-29.58 615.52,-34.53 616.56,-27.6"/>
</g>
<!-- Node10 -->
<g id="node10" class="node">
<title>Node10</title>
<g id="a_node10"><a xlink:title=" ">
<polygon fill="none" stroke="#bfbfbf" points="624.5,-6 624.5,-25 741.5,-25 741.5,-6 624.5,-6"/>
<text text-anchor="middle" x="683" y="-13" font-family="Helvetica,sans-Serif" font-size="10.00">seerep_msgs/label.h</text>
</a>
</g>
</g>
<!-- Node6&#45;&gt;Node10 -->
<g id="edge10" class="edge">
<title>Node6&#45;&gt;Node10</title>
<path fill="none" stroke="midnightblue" d="M984.94,-68.05C925.9,-59.73 831.85,-45.84 751,-31 744.61,-29.83 737.9,-28.51 731.29,-27.15"/>
<polygon fill="midnightblue" stroke="midnightblue" points="731.55,-23.63 721.05,-25.01 730.12,-30.48 731.55,-23.63"/>
</g>
<!-- Node11 -->
<g id="node11" class="node">
<title>Node11</title>
<g id="a_node11"><a xlink:title=" ">
<polygon fill="none" stroke="#bfbfbf" points="760,-6 760,-25 924,-25 924,-6 760,-6"/>
<text text-anchor="middle" x="842" y="-13" font-family="Helvetica,sans-Serif" font-size="10.00">seerep_msgs/label_category.h</text>
</a>
</g>
</g>
<!-- Node6&#45;&gt;Node11 -->
<g id="edge11" class="edge">
<title>Node6&#45;&gt;Node11</title>
<path fill="none" stroke="midnightblue" d="M1014.2,-67.48C979.13,-57.09 919.74,-39.51 880.69,-27.95"/>
<polygon fill="midnightblue" stroke="midnightblue" points="881.33,-24.49 870.74,-25.01 879.34,-31.2 881.33,-24.49"/>
</g>
<!-- Node6&#45;&gt;Node12 -->
<g id="edge12" class="edge">
<title>Node6&#45;&gt;Node12</title>
<path fill="none" stroke="midnightblue" d="M984.88,-68.34C980.19,-67.84 975.52,-67.39 971,-67 627.44,-37.59 537.77,-76.71 196,-31 188.99,-30.06 181.63,-28.75 174.47,-27.29"/>
<polygon fill="midnightblue" stroke="midnightblue" points="174.72,-23.76 164.2,-25.07 173.24,-30.6 174.72,-23.76"/>
</g>
<!-- Node13 -->
<g id="node13" class="node">
<title>Node13</title>
<g id="a_node13"><a xlink:title=" ">
<polygon fill="none" stroke="#bfbfbf" points="942,-6 942,-25 990,-25 990,-6 942,-6"/>
<text text-anchor="middle" x="966" y="-13" font-family="Helvetica,sans-Serif" font-size="10.00">mutex</text>
</a>
</g>
</g>
<!-- Node6&#45;&gt;Node13 -->
<g id="edge13" class="edge">
<title>Node6&#45;&gt;Node13</title>
<path fill="none" stroke="midnightblue" d="M1031.97,-67.48C1019.73,-58.02 999.77,-42.6 985.01,-31.19"/>
<polygon fill="midnightblue" stroke="midnightblue" points="987.06,-28.35 977.01,-25.01 982.78,-33.89 987.06,-28.35"/>
</g>
<!-- Node14 -->
<g id="node14" class="node">
<title>Node14</title>
<g id="a_node14"><a xlink:title=" ">
<polygon fill="none" stroke="#bfbfbf" points="1008.5,-6 1008.5,-25 1077.5,-25 1077.5,-6 1008.5,-6"/>
<text text-anchor="middle" x="1043" y="-13" font-family="Helvetica,sans-Serif" font-size="10.00">type_traits</text>
</a>
</g>
</g>
<!-- Node6&#45;&gt;Node14 -->
<g id="edge15" class="edge">
<title>Node6&#45;&gt;Node14</title>
<path fill="none" stroke="midnightblue" d="M1043,-67.48C1043,-59.08 1043,-45.98 1043,-35.16"/>
<polygon fill="midnightblue" stroke="midnightblue" points="1046.5,-35.01 1043,-25.01 1039.5,-35.01 1046.5,-35.01"/>
</g>
<!-- Node15 -->
<g id="node15" class="node">
<title>Node15</title>
<g id="a_node15"><a xlink:title=" ">
<polygon fill="none" stroke="#bfbfbf" points="2035.5,-0.5 2035.5,-30.5 2180.5,-30.5 2180.5,-0.5 2035.5,-0.5"/>
<text text-anchor="start" x="2043.5" y="-18.5" font-family="Helvetica,sans-Serif" font-size="10.00">boost/log/sources/severity</text>
<text text-anchor="middle" x="2108" y="-7.5" font-family="Helvetica,sans-Serif" font-size="10.00">_logger.hpp</text>
</a>
</g>
</g>
<!-- Node6&#45;&gt;Node15 -->
<g id="edge16" class="edge">
<title>Node6&#45;&gt;Node15</title>
<path fill="none" stroke="midnightblue" d="M1101.07,-67.86C1104.09,-67.54 1107.08,-67.25 1110,-67 1512.64,-32.12 1619.2,-73.89 2025.24,-30.97"/>
<polygon fill="midnightblue" stroke="midnightblue" points="2025.62,-34.44 2035.2,-29.9 2024.88,-27.48 2025.62,-34.44"/>
</g>
<!-- Node16 -->
<g id="node16" class="node">
<title>Node16</title>
<g id="a_node16"><a xlink:title=" ">
<polygon fill="none" stroke="#bfbfbf" points="2199,-6 2199,-25 2313,-25 2313,-6 2199,-6"/>
<text text-anchor="middle" x="2256" y="-13" font-family="Helvetica,sans-Serif" font-size="10.00">boost/log/trivial.hpp</text>
</a>
</g>
</g>
<!-- Node6&#45;&gt;Node16 -->
<g id="edge17" class="edge">
<title>Node6&#45;&gt;Node16</title>
<path fill="none" stroke="midnightblue" d="M1101.07,-67.84C1104.08,-67.53 1107.08,-67.24 1110,-67 1588.6,-26.98 1713.47,-90.78 2190,-31 2197.36,-30.08 2205.12,-28.72 2212.62,-27.21"/>
<polygon fill="midnightblue" stroke="midnightblue" points="2213.58,-30.58 2222.63,-25.07 2212.12,-23.74 2213.58,-30.58"/>
</g>
<!-- Node17 -->
<g id="node17" class="node">
<title>Node17</title>
<g id="a_node17"><a xlink:title=" ">
<polygon fill="none" stroke="#bfbfbf" points="1095.5,-6 1095.5,-25 1238.5,-25 1238.5,-6 1095.5,-6"/>
<text text-anchor="middle" x="1167" y="-13" font-family="Helvetica,sans-Serif" font-size="10.00">boost/functional/hash.hpp</text>
</a>
</g>
</g>
<!-- Node6&#45;&gt;Node17 -->
<g id="edge18" class="edge">
<title>Node6&#45;&gt;Node17</title>
<path fill="none" stroke="midnightblue" d="M1060.77,-67.48C1081.48,-57.53 1115.95,-40.99 1139.99,-29.46"/>
<polygon fill="midnightblue" stroke="midnightblue" points="1141.77,-32.49 1149.27,-25.01 1138.74,-26.18 1141.77,-32.49"/>
</g>
<!-- Node18 -->
<g id="node18" class="node">
<title>Node18</title>
<g id="a_node18"><a xlink:title=" ">
<polygon fill="none" stroke="#bfbfbf" points="1256.5,-6 1256.5,-25 1381.5,-25 1381.5,-6 1256.5,-6"/>
<text text-anchor="middle" x="1319" y="-13" font-family="Helvetica,sans-Serif" font-size="10.00">boost/lexical_cast.hpp</text>
</a>
</g>
</g>
<!-- Node6&#45;&gt;Node18 -->
<g id="edge19" class="edge">
<title>Node6&#45;&gt;Node18</title>
<path fill="none" stroke="midnightblue" d="M1082.54,-67.48C1131.83,-56.85 1216.09,-38.68 1269.59,-27.15"/>
<polygon fill="midnightblue" stroke="midnightblue" points="1270.49,-30.54 1279.53,-25.01 1269.02,-23.7 1270.49,-30.54"/>
</g>
<!-- Node19 -->
<g id="node19" class="node">
<title>Node19</title>
<g id="a_node19"><a xlink:title=" ">
<polygon fill="none" stroke="#bfbfbf" points="1399.5,-6 1399.5,-25 1512.5,-25 1512.5,-6 1399.5,-6"/>
<text text-anchor="middle" x="1456" y="-13" font-family="Helvetica,sans-Serif" font-size="10.00">boost/uuid/uuid.hpp</text>
</a>
</g>
</g>
<!-- Node6&#45;&gt;Node19 -->
<g id="edge20" class="edge">
<title>Node6&#45;&gt;Node19</title>
<path fill="none" stroke="midnightblue" d="M1101.1,-68.17C1104.11,-67.77 1107.09,-67.38 1110,-67 1234.84,-50.62 1266.98,-52.73 1391,-31 1397.28,-29.9 1403.87,-28.6 1410.34,-27.24"/>
<polygon fill="midnightblue" stroke="midnightblue" points="1411.33,-30.61 1420.36,-25.07 1409.84,-23.77 1411.33,-30.61"/>
</g>
<!-- Node20 -->
<g id="node20" class="node">
<title>Node20</title>
<g id="a_node20"><a xlink:title=" ">
<polygon fill="none" stroke="#bfbfbf" points="1531,-6 1531,-25 1701,-25 1701,-6 1531,-6"/>
<text text-anchor="middle" x="1616" y="-13" font-family="Helvetica,sans-Serif" font-size="10.00">boost/uuid/uuid_generators.hpp</text>
</a>
</g>
</g>
<!-- Node6&#45;&gt;Node20 -->
<g id="edge21" class="edge">
<title>Node6&#45;&gt;Node20</title>
<path fill="none" stroke="midnightblue" d="M1101.08,-68.03C1104.1,-67.67 1107.08,-67.32 1110,-67 1292.69,-46.76 1339.52,-53.02 1522,-31 1532.67,-29.71 1543.99,-28.14 1554.94,-26.52"/>
<polygon fill="midnightblue" stroke="midnightblue" points="1555.5,-29.97 1564.86,-25.01 1554.45,-23.05 1555.5,-29.97"/>
</g>
<!-- Node21 -->
<g id="node21" class="node">
<title>Node21</title>
<g id="a_node21"><a xlink:title=" ">
<polygon fill="none" stroke="#bfbfbf" points="1719.5,-6 1719.5,-25 1846.5,-25 1846.5,-6 1719.5,-6"/>
<text text-anchor="middle" x="1783" y="-13" font-family="Helvetica,sans-Serif" font-size="10.00">boost/uuid/uuid_io.hpp</text>
</a>
</g>
</g>
<!-- Node6&#45;&gt;Node21 -->
<g id="edge22" class="edge">
<title>Node6&#45;&gt;Node21</title>
<path fill="none" stroke="midnightblue" d="M1101.07,-67.93C1104.09,-67.6 1107.08,-67.28 1110,-67 1375.9,-41.2 1445.04,-65.1 1710,-31 1718.2,-29.94 1726.86,-28.51 1735.24,-26.95"/>
<polygon fill="midnightblue" stroke="midnightblue" points="1736.12,-30.35 1745.27,-25.01 1734.79,-23.48 1736.12,-30.35"/>
</g>
<!-- Node22 -->
<g id="node22" class="node">
<title>Node22</title>
<g id="a_node22"><a xlink:title=" ">
<polygon fill="none" stroke="#bfbfbf" points="1865,-6 1865,-25 2017,-25 2017,-6 1865,-6"/>
<text text-anchor="middle" x="1941" y="-13" font-family="Helvetica,sans-Serif" font-size="10.00">impl/hdf5_core_general.hpp</text>
</a>
</g>
</g>
<!-- Node6&#45;&gt;Node22 -->
<g id="edge23" class="edge">
<title>Node6&#45;&gt;Node22</title>
<path fill="none" stroke="midnightblue" d="M1101.07,-67.89C1104.09,-67.57 1107.08,-67.27 1110,-67 1440.57,-36.88 1526.01,-66.98 1856,-31 1866.05,-29.9 1876.7,-28.38 1886.95,-26.73"/>
<polygon fill="midnightblue" stroke="midnightblue" points="1887.74,-30.14 1897.03,-25.04 1886.58,-23.24 1887.74,-30.14"/>
</g>
<!-- Node23&#45;&gt;Node2 -->
<g id="edge25" class="edge">
<title>Node23&#45;&gt;Node2</title>
<path fill="none" stroke="midnightblue" d="M1220.44,-128.99C1251.54,-119.71 1301.82,-103.93 1344,-87 1363.19,-79.3 1365.92,-71.94 1386,-67 1588.12,-17.23 2115.62,-58.11 2322,-31 2328.98,-30.08 2336.32,-28.76 2343.44,-27.29"/>
<polygon fill="midnightblue" stroke="midnightblue" points="2344.63,-30.61 2353.65,-25.05 2343.13,-23.77 2344.63,-30.61"/>
</g>
<!-- Node23&#45;&gt;Node5 -->
<g id="edge29" class="edge">
<title>Node23&#45;&gt;Node5</title>
<path fill="none" stroke="midnightblue" d="M1140.8,-128.92C1088.62,-119.71 1004.7,-104.09 933,-87 901.11,-79.4 894.37,-72.22 862,-67 511.94,-10.56 411.84,-104.68 65,-31 61.99,-30.36 58.91,-29.51 55.87,-28.53"/>
<polygon fill="midnightblue" stroke="midnightblue" points="57.05,-25.23 46.45,-25.1 54.66,-31.81 57.05,-25.23"/>
</g>
<!-- Node23&#45;&gt;Node6 -->
<g id="edge26" class="edge">
<title>Node23&#45;&gt;Node6</title>
<path fill="none" stroke="midnightblue" d="M1169.8,-128.98C1144.63,-118.86 1102.46,-101.9 1073.72,-90.35"/>
<polygon fill="midnightblue" stroke="midnightblue" points="1074.75,-86.99 1064.17,-86.51 1072.14,-93.49 1074.75,-86.99"/>
</g>
<!-- Node23&#45;&gt;Node12 -->
<g id="edge27" class="edge">
<title>Node23&#45;&gt;Node12</title>
<path fill="none" stroke="midnightblue" d="M1141.95,-128.95C1097.84,-120.56 1031.62,-106.24 976,-87 956.08,-80.11 953.46,-72.05 933,-67 614.62,11.62 521,-74.86 196,-31 188.99,-30.05 181.63,-28.73 174.47,-27.27"/>
<polygon fill="midnightblue" stroke="midnightblue" points="174.72,-23.74 164.2,-25.05 173.24,-30.59 174.72,-23.74"/>
</g>
<!-- Node23&#45;&gt;Node15 -->
<g id="edge30" class="edge">
<title>Node23&#45;&gt;Node15</title>
<path fill="none" stroke="midnightblue" d="M1204.4,-128.82C1231.39,-111.51 1291.7,-73.79 1315,-67 1463.91,-23.57 1853.2,-47.82 2025.18,-30.92"/>
<polygon fill="midnightblue" stroke="midnightblue" points="2025.61,-34.39 2035.19,-29.86 2024.88,-27.43 2025.61,-34.39"/>
</g>
<!-- Node23&#45;&gt;Node16 -->
<g id="edge31" class="edge">
<title>Node23&#45;&gt;Node16</title>
<path fill="none" stroke="midnightblue" d="M1210.9,-128.99C1234.21,-119 1273.95,-101.91 1308,-87 1328.05,-78.22 1331.69,-72 1353,-67 1534.24,-24.45 2005.39,-55.06 2190,-31 2197.36,-30.04 2205.11,-28.67 2212.61,-27.15"/>
<polygon fill="midnightblue" stroke="midnightblue" points="2213.57,-30.52 2222.62,-25.01 2212.11,-23.68 2213.57,-30.52"/>
</g>
<!-- Node24 -->
<g id="node24" class="node">
<title>Node24</title>
<g id="a_node24"><a xlink:title=" ">
<polygon fill="none" stroke="#bfbfbf" points="1395,-67.5 1395,-86.5 1463,-86.5 1463,-67.5 1395,-67.5"/>
<text text-anchor="middle" x="1429" y="-74.5" font-family="Helvetica,sans-Serif" font-size="10.00">filesystem</text>
</a>
</g>
</g>
<!-- Node23&#45;&gt;Node24 -->
<g id="edge28" class="edge">
<title>Node23&#45;&gt;Node24</title>
<path fill="none" stroke="midnightblue" d="M1225.1,-128.98C1267.25,-118.44 1339.05,-100.49 1385.23,-88.94"/>
<polygon fill="midnightblue" stroke="midnightblue" points="1386.11,-92.33 1394.96,-86.51 1384.41,-85.54 1386.11,-92.33"/>
</g>
<!-- Node25 -->
<g id="node25" class="node">
<title>Node25</title>
<g id="a_node25"><a xlink:title=" ">
<polygon fill="none" stroke="#bfbfbf" points="1119.5,-67.5 1119.5,-86.5 1262.5,-86.5 1262.5,-67.5 1119.5,-67.5"/>
<text text-anchor="middle" x="1191" y="-74.5" font-family="Helvetica,sans-Serif" font-size="10.00">impl/hdf5_py_general.hpp</text>
</a>
</g>
</g>
<!-- Node23&#45;&gt;Node25 -->
<g id="edge32" class="edge">
<title>Node23&#45;&gt;Node25</title>
<path fill="none" stroke="midnightblue" d="M1191,-128.98C1191,-120.58 1191,-107.48 1191,-96.66"/>
<polygon fill="midnightblue" stroke="midnightblue" points="1194.5,-96.51 1191,-86.51 1187.5,-96.51 1194.5,-96.51"/>
</g>
</g>
</svg>
