<?xml version="1.0" encoding="UTF-8" standalone="no"?>
<!DOCTYPE svg PUBLIC "-//W3C//DTD SVG 1.1//EN"
 "http://www.w3.org/Graphics/SVG/1.1/DTD/svg11.dtd">
<!-- Generated by graphviz version 2.43.0 (0)
 -->
<!-- Title: seerep&#45;hdf5/seerep&#45;hdf5&#45;py/include/seerep&#45;hdf5&#45;py/hdf5&#45;py&#45;pointcloud.h Pages: 1 -->
<svg width="2253pt" height="262pt"
 viewBox="0.00 0.00 2253.00 262.00" xmlns="http://www.w3.org/2000/svg" xmlns:xlink="http://www.w3.org/1999/xlink">
<g id="graph0" class="graph" transform="scale(1 1) rotate(0) translate(4 258)">
<title>seerep&#45;hdf5/seerep&#45;hdf5&#45;py/include/seerep&#45;hdf5&#45;py/hdf5&#45;py&#45;pointcloud.h</title>
<!-- Node1 -->
<g id="node1" class="node">
<title>Node1</title>
<g id="a_node1"><a xlink:title=" ">
<polygon fill="#bfbfbf" stroke="black" points="1353,-212.5 1353,-253.5 1515,-253.5 1515,-212.5 1353,-212.5"/>
<text text-anchor="start" x="1361" y="-241.5" font-family="Helvetica,sans-Serif" font-size="10.00">seerep&#45;hdf5/seerep</text>
<text text-anchor="start" x="1361" y="-230.5" font-family="Helvetica,sans-Serif" font-size="10.00">&#45;hdf5&#45;py/include/seerep</text>
<text text-anchor="middle" x="1434" y="-219.5" font-family="Helvetica,sans-Serif" font-size="10.00">&#45;hdf5&#45;py/hdf5&#45;py&#45;pointcloud.h</text>
</a>
</g>
</g>
<!-- Node2 -->
<g id="node2" class="node">
<title>Node2</title>
<g id="a_node2"><a xlink:title=" ">
<polygon fill="none" stroke="#bfbfbf" points="1839,-11.5 1839,-30.5 1949,-30.5 1949,-11.5 1839,-11.5"/>
<text text-anchor="middle" x="1894" y="-18.5" font-family="Helvetica,sans-Serif" font-size="10.00">highfive/H5File.hpp</text>
</a>
</g>
</g>
<!-- Node1&#45;&gt;Node2 -->
<g id="edge1" class="edge">
<title>Node1&#45;&gt;Node2</title>
<path fill="none" stroke="midnightblue" d="M1352.97,-217.45C1330.1,-209.2 1307.72,-196.27 1294,-176 1264.27,-132.09 1347.95,-78.55 1349,-78 1444.12,-28.59 1724.72,-62.12 1830,-42 1840.46,-40 1851.62,-36.88 1861.64,-33.69"/>
<polygon fill="midnightblue" stroke="midnightblue" points="1862.83,-36.98 1871.22,-30.51 1860.62,-30.34 1862.83,-36.98"/>
</g>
<!-- Node3 -->
<g id="node3" class="node">
<title>Node3</title>
<g id="a_node3"><a xlink:href="hdf5-core-point-cloud_8h.html" target="_top" xlink:title=" ">
<polygon fill="none" stroke="black" points="591.5,-145.5 591.5,-175.5 716.5,-175.5 716.5,-145.5 591.5,-145.5"/>
<text text-anchor="start" x="599.5" y="-163.5" font-family="Helvetica,sans-Serif" font-size="10.00">seerep&#45;hdf5&#45;core/hdf5</text>
<text text-anchor="middle" x="654" y="-152.5" font-family="Helvetica,sans-Serif" font-size="10.00">&#45;core&#45;point&#45;cloud.h</text>
</a>
</g>
</g>
<!-- Node1&#45;&gt;Node3 -->
<g id="edge2" class="edge">
<title>Node1&#45;&gt;Node3</title>
<path fill="none" stroke="midnightblue" d="M1352.73,-224.65C1200.13,-210.86 872.94,-181.29 726.94,-168.09"/>
<polygon fill="midnightblue" stroke="midnightblue" points="727.02,-164.59 716.75,-167.17 726.39,-171.56 727.02,-164.59"/>
</g>
<!-- Node7 -->
<g id="node7" class="node">
<title>Node7</title>
<g id="a_node7"><a xlink:title=" ">
<polygon fill="none" stroke="#bfbfbf" points="0,-11.5 0,-30.5 56,-30.5 56,-11.5 0,-11.5"/>
<text text-anchor="middle" x="28" y="-18.5" font-family="Helvetica,sans-Serif" font-size="10.00">optional</text>
</a>
</g>
</g>
<!-- Node1&#45;&gt;Node7 -->
<g id="edge45" class="edge">
<title>Node1&#45;&gt;Node7</title>
<path fill="none" stroke="midnightblue" d="M1352.84,-229.58C1074.54,-220.64 170.38,-185.87 67,-109 44.92,-92.58 35.07,-60.81 30.88,-40.54"/>
<polygon fill="midnightblue" stroke="midnightblue" points="34.31,-39.85 29.09,-30.63 27.42,-41.1 34.31,-39.85"/>
</g>
<!-- Node12 -->
<g id="node12" class="node">
<title>Node12</title>
<g id="a_node12"><a xlink:title=" ">
<polygon fill="none" stroke="#bfbfbf" points="980.5,-11.5 980.5,-30.5 1093.5,-30.5 1093.5,-11.5 980.5,-11.5"/>
<text text-anchor="middle" x="1037" y="-18.5" font-family="Helvetica,sans-Serif" font-size="10.00">boost/geometry.hpp</text>
</a>
</g>
</g>
<!-- Node1&#45;&gt;Node12 -->
<g id="edge44" class="edge">
<title>Node1&#45;&gt;Node12</title>
<path fill="none" stroke="midnightblue" d="M1352.92,-230.42C1263.66,-223.97 1122.91,-199.02 1048,-109 1032.13,-89.92 1032.01,-59.87 1034.02,-40.55"/>
<polygon fill="midnightblue" stroke="midnightblue" points="1037.49,-40.95 1035.34,-30.58 1030.55,-40.03 1037.49,-40.95"/>
</g>
<!-- Node22 -->
<g id="node22" class="node">
<title>Node22</title>
<g id="a_node22"><a xlink:href="hdf5-py-general_8h.html" target="_top" xlink:title=" ">
<polygon fill="none" stroke="black" points="1303,-145.5 1303,-175.5 1419,-175.5 1419,-145.5 1303,-145.5"/>
<text text-anchor="start" x="1311" y="-163.5" font-family="Helvetica,sans-Serif" font-size="10.00">seerep&#45;hdf5&#45;py/hdf5</text>
<text text-anchor="middle" x="1361" y="-152.5" font-family="Helvetica,sans-Serif" font-size="10.00">&#45;py&#45;general.h</text>
</a>
</g>
</g>
<!-- Node1&#45;&gt;Node22 -->
<g id="edge34" class="edge">
<title>Node1&#45;&gt;Node22</title>
<path fill="none" stroke="midnightblue" d="M1413.67,-212.36C1404.21,-203.23 1392.94,-192.35 1383.26,-183"/>
<polygon fill="midnightblue" stroke="midnightblue" points="1385.53,-180.32 1375.9,-175.89 1380.66,-185.36 1385.53,-180.32"/>
</g>
<!-- Node25 -->
<g id="node25" class="node">
<title>Node25</title>
<g id="a_node25"><a xlink:title=" ">
<polygon fill="none" stroke="#bfbfbf" points="1437.5,-145.5 1437.5,-175.5 1576.5,-175.5 1576.5,-145.5 1437.5,-145.5"/>
<text text-anchor="start" x="1445.5" y="-163.5" font-family="Helvetica,sans-Serif" font-size="10.00">seerep&#45;msgs/point_cloud</text>
<text text-anchor="middle" x="1507" y="-152.5" font-family="Helvetica,sans-Serif" font-size="10.00">_2.pb.h</text>
</a>
</g>
</g>
<!-- Node1&#45;&gt;Node25 -->
<g id="edge43" class="edge">
<title>Node1&#45;&gt;Node25</title>
<path fill="none" stroke="midnightblue" d="M1454.33,-212.36C1463.79,-203.23 1475.06,-192.35 1484.74,-183"/>
<polygon fill="midnightblue" stroke="midnightblue" points="1487.34,-185.36 1492.1,-175.89 1482.47,-180.32 1487.34,-185.36"/>
</g>
<!-- Node26 -->
<g id="node26" class="node">
<title>Node26</title>
<g id="a_node26"><a xlink:title=" ">
<polygon fill="none" stroke="#bfbfbf" points="1594.5,-145.5 1594.5,-175.5 1739.5,-175.5 1739.5,-145.5 1594.5,-145.5"/>
<text text-anchor="start" x="1602.5" y="-163.5" font-family="Helvetica,sans-Serif" font-size="10.00">pybind11_catkin/pybind11</text>
<text text-anchor="middle" x="1667" y="-152.5" font-family="Helvetica,sans-Serif" font-size="10.00">/numpy.h</text>
</a>
</g>
</g>
<!-- Node1&#45;&gt;Node26 -->
<g id="edge46" class="edge">
<title>Node1&#45;&gt;Node26</title>
<path fill="none" stroke="midnightblue" d="M1498.59,-212.46C1533.77,-201.81 1576.89,-188.76 1610.69,-178.54"/>
<polygon fill="midnightblue" stroke="midnightblue" points="1611.85,-181.84 1620.41,-175.6 1609.83,-175.14 1611.85,-181.84"/>
</g>
<!-- Node27 -->
<g id="node27" class="node">
<title>Node27</title>
<g id="a_node27"><a xlink:title=" ">
<polygon fill="none" stroke="#bfbfbf" points="1757.5,-145.5 1757.5,-175.5 1902.5,-175.5 1902.5,-145.5 1757.5,-145.5"/>
<text text-anchor="start" x="1765.5" y="-163.5" font-family="Helvetica,sans-Serif" font-size="10.00">pybind11_catkin/pybind11</text>
<text text-anchor="middle" x="1830" y="-152.5" font-family="Helvetica,sans-Serif" font-size="10.00">/pybind11.h</text>
</a>
</g>
</g>
<!-- Node1&#45;&gt;Node27 -->
<g id="edge47" class="edge">
<title>Node1&#45;&gt;Node27</title>
<path fill="none" stroke="midnightblue" d="M1515.26,-217.58C1576.45,-206.72 1662.71,-191.39 1747.13,-176.33"/>
<polygon fill="midnightblue" stroke="midnightblue" points="1747.91,-179.75 1757.14,-174.55 1746.68,-172.86 1747.91,-179.75"/>
</g>
<!-- Node28 -->
<g id="node28" class="node">
<title>Node28</title>
<g id="a_node28"><a xlink:title=" ">
<polygon fill="none" stroke="#bfbfbf" points="1920.5,-145.5 1920.5,-175.5 2065.5,-175.5 2065.5,-145.5 1920.5,-145.5"/>
<text text-anchor="start" x="1928.5" y="-163.5" font-family="Helvetica,sans-Serif" font-size="10.00">pybind11_catkin/pybind11</text>
<text text-anchor="middle" x="1993" y="-152.5" font-family="Helvetica,sans-Serif" font-size="10.00">/stl.h</text>
</a>
</g>
</g>
<!-- Node1&#45;&gt;Node28 -->
<g id="edge48" class="edge">
<title>Node1&#45;&gt;Node28</title>
<path fill="none" stroke="midnightblue" d="M1515.39,-223.98C1608.54,-214.46 1765.88,-197.33 1910.25,-176.21"/>
<polygon fill="midnightblue" stroke="midnightblue" points="1910.79,-179.67 1920.18,-174.75 1909.77,-172.75 1910.79,-179.67"/>
</g>
<!-- Node29 -->
<g id="node29" class="node">
<title>Node29</title>
<g id="a_node29"><a xlink:title=" ">
<polygon fill="none" stroke="#bfbfbf" points="2083.5,-151 2083.5,-170 2238.5,-170 2238.5,-151 2083.5,-151"/>
<text text-anchor="middle" x="2161" y="-158" font-family="Helvetica,sans-Serif" font-size="10.00">impl/hdf5&#45;py&#45;pointcloud.hpp</text>
</a>
</g>
</g>
<!-- Node1&#45;&gt;Node29 -->
<g id="edge49" class="edge">
<title>Node1&#45;&gt;Node29</title>
<path fill="none" stroke="midnightblue" d="M1515.17,-227C1637.05,-219.01 1874.44,-201.63 2075,-176 2084.59,-174.78 2094.74,-173.26 2104.58,-171.67"/>
<polygon fill="midnightblue" stroke="midnightblue" points="2105.39,-175.09 2114.68,-170.01 2104.25,-168.18 2105.39,-175.09"/>
</g>
<!-- Node3&#45;&gt;Node2 -->
<g id="edge3" class="edge">
<title>Node3&#45;&gt;Node2</title>
<path fill="none" stroke="midnightblue" d="M716.57,-158.05C843.64,-154.44 1127.5,-142.75 1218,-109 1240.07,-100.77 1238.82,-85.94 1261,-78 1380.28,-35.28 1705.42,-65.06 1830,-42 1840.47,-40.06 1851.64,-36.95 1861.66,-33.76"/>
<polygon fill="midnightblue" stroke="midnightblue" points="1862.84,-37.05 1871.23,-30.58 1860.64,-30.41 1862.84,-37.05"/>
</g>
<!-- Node4 -->
<g id="node4" class="node">
<title>Node4</title>
<g id="a_node4"><a xlink:href="hdf5-core-datatype-interface_8h.html" target="_top" xlink:title=" ">
<polygon fill="none" stroke="black" points="194.5,-78.5 194.5,-108.5 339.5,-108.5 339.5,-78.5 194.5,-78.5"/>
<text text-anchor="start" x="202.5" y="-96.5" font-family="Helvetica,sans-Serif" font-size="10.00">seerep&#45;hdf5&#45;core/hdf5</text>
<text text-anchor="middle" x="267" y="-85.5" font-family="Helvetica,sans-Serif" font-size="10.00">&#45;core&#45;datatype&#45;interface.h</text>
</a>
</g>
</g>
<!-- Node3&#45;&gt;Node4 -->
<g id="edge4" class="edge">
<title>Node3&#45;&gt;Node4</title>
<path fill="none" stroke="midnightblue" d="M591.39,-148.98C525.7,-137.95 422.13,-120.56 349.74,-108.4"/>
<polygon fill="midnightblue" stroke="midnightblue" points="350.18,-104.92 339.74,-106.72 349.02,-111.83 350.18,-104.92"/>
</g>
<!-- Node5 -->
<g id="node5" class="node">
<title>Node5</title>
<g id="a_node5"><a xlink:title=" ">
<polygon fill="none" stroke="#bfbfbf" points="74.5,-6 74.5,-36 193.5,-36 193.5,-6 74.5,-6"/>
<text text-anchor="start" x="82.5" y="-24" font-family="Helvetica,sans-Serif" font-size="10.00">seerep&#45;msgs/dataset</text>
<text text-anchor="middle" x="134" y="-13" font-family="Helvetica,sans-Serif" font-size="10.00">&#45;indexable.h</text>
</a>
</g>
</g>
<!-- Node3&#45;&gt;Node5 -->
<g id="edge26" class="edge">
<title>Node3&#45;&gt;Node5</title>
<path fill="none" stroke="midnightblue" d="M591.35,-159.6C479.42,-158.67 250.68,-151.46 185,-109 162.49,-94.44 148.66,-66.17 141.18,-45.8"/>
<polygon fill="midnightblue" stroke="midnightblue" points="144.47,-44.59 137.92,-36.26 137.84,-46.85 144.47,-44.59"/>
</g>
<!-- Node6 -->
<g id="node6" class="node">
<title>Node6</title>
<g id="a_node6"><a xlink:title=" ">
<polygon fill="none" stroke="#bfbfbf" points="211.5,-11.5 211.5,-30.5 324.5,-30.5 324.5,-11.5 211.5,-11.5"/>
<text text-anchor="middle" x="268" y="-18.5" font-family="Helvetica,sans-Serif" font-size="10.00">boost/uuid/uuid.hpp</text>
</a>
</g>
</g>
<!-- Node3&#45;&gt;Node6 -->
<g id="edge31" class="edge">
<title>Node3&#45;&gt;Node6</title>
<path fill="none" stroke="midnightblue" d="M611.22,-145.46C581.15,-135.5 540.02,-121.7 504,-109 430.87,-83.22 345.65,-51.34 300.29,-34.23"/>
<polygon fill="midnightblue" stroke="midnightblue" points="301.3,-30.87 290.7,-30.61 298.82,-37.42 301.3,-30.87"/>
</g>
<!-- Node3&#45;&gt;Node7 -->
<g id="edge28" class="edge">
<title>Node3&#45;&gt;Node7</title>
<path fill="none" stroke="midnightblue" d="M591.04,-159.24C466.24,-157.81 192.36,-149.97 109,-109 77.34,-93.44 51.85,-59.87 38.4,-39.28"/>
<polygon fill="midnightblue" stroke="midnightblue" points="41.23,-37.2 32.94,-30.6 35.3,-40.93 41.23,-37.2"/>
</g>
<!-- Node8 -->
<g id="node8" class="node">
<title>Node8</title>
<g id="a_node8"><a xlink:href="hdf5-core-general_8h.html" target="_top" xlink:title=" ">
<polygon fill="none" stroke="black" points="1083.5,-78.5 1083.5,-108.5 1208.5,-108.5 1208.5,-78.5 1083.5,-78.5"/>
<text text-anchor="start" x="1091.5" y="-96.5" font-family="Helvetica,sans-Serif" font-size="10.00">seerep&#45;hdf5&#45;core/hdf5</text>
<text text-anchor="middle" x="1146" y="-85.5" font-family="Helvetica,sans-Serif" font-size="10.00">&#45;core&#45;general.h</text>
</a>
</g>
</g>
<!-- Node3&#45;&gt;Node8 -->
<g id="edge8" class="edge">
<title>Node3&#45;&gt;Node8</title>
<path fill="none" stroke="midnightblue" d="M716.56,-151.23C807.8,-139.18 976.98,-116.83 1073.52,-104.08"/>
<polygon fill="midnightblue" stroke="midnightblue" points="1074.03,-107.54 1083.49,-102.76 1073.12,-100.6 1074.03,-107.54"/>
</g>
<!-- Node3&#45;&gt;Node12 -->
<g id="edge27" class="edge">
<title>Node3&#45;&gt;Node12</title>
<path fill="none" stroke="midnightblue" d="M693.19,-145.43C768.6,-118.36 932.69,-59.45 1003.44,-34.05"/>
<polygon fill="midnightblue" stroke="midnightblue" points="1004.95,-37.23 1013.17,-30.55 1002.58,-30.64 1004.95,-37.23"/>
</g>
<!-- Node17 -->
<g id="node17" class="node">
<title>Node17</title>
<g id="a_node17"><a xlink:title=" ">
<polygon fill="none" stroke="#bfbfbf" points="819.5,-11.5 819.5,-30.5 962.5,-30.5 962.5,-11.5 819.5,-11.5"/>
<text text-anchor="middle" x="891" y="-18.5" font-family="Helvetica,sans-Serif" font-size="10.00">boost/functional/hash.hpp</text>
</a>
</g>
</g>
<!-- Node3&#45;&gt;Node17 -->
<g id="edge29" class="edge">
<title>Node3&#45;&gt;Node17</title>
<path fill="none" stroke="midnightblue" d="M678.47,-145.3C724.29,-118.72 822.47,-61.76 867.52,-35.62"/>
<polygon fill="midnightblue" stroke="midnightblue" points="869.4,-38.58 876.29,-30.53 865.88,-32.52 869.4,-38.58"/>
</g>
<!-- Node18 -->
<g id="node18" class="node">
<title>Node18</title>
<g id="a_node18"><a xlink:title=" ">
<polygon fill="none" stroke="#bfbfbf" points="342.5,-11.5 342.5,-30.5 467.5,-30.5 467.5,-11.5 342.5,-11.5"/>
<text text-anchor="middle" x="405" y="-18.5" font-family="Helvetica,sans-Serif" font-size="10.00">boost/lexical_cast.hpp</text>
</a>
</g>
</g>
<!-- Node3&#45;&gt;Node18 -->
<g id="edge30" class="edge">
<title>Node3&#45;&gt;Node18</title>
<path fill="none" stroke="midnightblue" d="M628.29,-145.3C580.05,-118.66 476.57,-61.52 429.37,-35.46"/>
<polygon fill="midnightblue" stroke="midnightblue" points="430.9,-32.3 420.45,-30.53 427.52,-38.43 430.9,-32.3"/>
</g>
<!-- Node19 -->
<g id="node19" class="node">
<title>Node19</title>
<g id="a_node19"><a xlink:title=" ">
<polygon fill="none" stroke="#bfbfbf" points="486,-11.5 486,-30.5 656,-30.5 656,-11.5 486,-11.5"/>
<text text-anchor="middle" x="571" y="-18.5" font-family="Helvetica,sans-Serif" font-size="10.00">boost/uuid/uuid_generators.hpp</text>
</a>
</g>
</g>
<!-- Node3&#45;&gt;Node19 -->
<g id="edge32" class="edge">
<title>Node3&#45;&gt;Node19</title>
<path fill="none" stroke="midnightblue" d="M645.43,-145.3C630.16,-120 598.28,-67.2 581.64,-39.62"/>
<polygon fill="midnightblue" stroke="midnightblue" points="584.42,-37.45 576.25,-30.7 578.42,-41.07 584.42,-37.45"/>
</g>
<!-- Node20 -->
<g id="node20" class="node">
<title>Node20</title>
<g id="a_node20"><a xlink:title=" ">
<polygon fill="none" stroke="#bfbfbf" points="674.5,-11.5 674.5,-30.5 801.5,-30.5 801.5,-11.5 674.5,-11.5"/>
<text text-anchor="middle" x="738" y="-18.5" font-family="Helvetica,sans-Serif" font-size="10.00">boost/uuid/uuid_io.hpp</text>
</a>
</g>
</g>
<!-- Node3&#45;&gt;Node20 -->
<g id="edge33" class="edge">
<title>Node3&#45;&gt;Node20</title>
<path fill="none" stroke="midnightblue" d="M662.67,-145.3C678.2,-119.89 710.67,-66.73 727.46,-39.26"/>
<polygon fill="midnightblue" stroke="midnightblue" points="730.46,-41.06 732.68,-30.7 724.48,-37.41 730.46,-41.06"/>
</g>
<!-- Node4&#45;&gt;Node5 -->
<g id="edge5" class="edge">
<title>Node4&#45;&gt;Node5</title>
<path fill="none" stroke="midnightblue" d="M240.41,-78.4C220.02,-67.6 191.69,-52.58 169.39,-40.76"/>
<polygon fill="midnightblue" stroke="midnightblue" points="171.02,-37.66 160.55,-36.07 167.75,-43.85 171.02,-37.66"/>
</g>
<!-- Node4&#45;&gt;Node6 -->
<g id="edge6" class="edge">
<title>Node4&#45;&gt;Node6</title>
<path fill="none" stroke="midnightblue" d="M267.2,-78.23C267.35,-67.5 267.56,-52.69 267.73,-40.96"/>
<polygon fill="midnightblue" stroke="midnightblue" points="271.23,-40.94 267.87,-30.89 264.23,-40.84 271.23,-40.94"/>
</g>
<!-- Node4&#45;&gt;Node7 -->
<g id="edge7" class="edge">
<title>Node4&#45;&gt;Node7</title>
<path fill="none" stroke="midnightblue" d="M194.12,-78.9C155.09,-70.48 106.62,-58.15 65,-42 60.31,-40.18 55.47,-37.89 50.89,-35.52"/>
<polygon fill="midnightblue" stroke="midnightblue" points="52.46,-32.39 42.01,-30.65 49.1,-38.53 52.46,-32.39"/>
</g>
<!-- Node8&#45;&gt;Node2 -->
<g id="edge9" class="edge">
<title>Node8&#45;&gt;Node2</title>
<path fill="none" stroke="midnightblue" d="M1208.51,-80.04C1213.4,-79.28 1218.27,-78.58 1223,-78 1491.22,-44.93 1564.17,-90.67 1830,-42 1840.48,-40.08 1851.64,-36.98 1861.66,-33.79"/>
<polygon fill="midnightblue" stroke="midnightblue" points="1862.85,-37.08 1871.23,-30.6 1860.64,-30.44 1862.85,-37.08"/>
</g>
<!-- Node8&#45;&gt;Node5 -->
<g id="edge11" class="edge">
<title>Node8&#45;&gt;Node5</title>
<path fill="none" stroke="midnightblue" d="M1083.27,-91.05C900.78,-86.52 372.26,-71.18 202,-42 196.69,-41.09 191.22,-39.91 185.78,-38.57"/>
<polygon fill="midnightblue" stroke="midnightblue" points="186.64,-35.18 176.08,-36.03 184.87,-41.95 186.64,-35.18"/>
</g>
<!-- Node8&#45;&gt;Node6 -->
<g id="edge22" class="edge">
<title>Node8&#45;&gt;Node6</title>
<path fill="none" stroke="midnightblue" d="M1083.28,-90.52C918.61,-85.02 476.82,-68.21 333,-42 322.37,-40.06 311.04,-36.96 300.86,-33.76"/>
<polygon fill="midnightblue" stroke="midnightblue" points="301.73,-30.36 291.14,-30.58 299.55,-37.02 301.73,-30.36"/>
</g>
<!-- Node8&#45;&gt;Node7 -->
<g id="edge16" class="edge">
<title>Node8&#45;&gt;Node7</title>
<path fill="none" stroke="midnightblue" d="M1083.36,-91.2C867.57,-86.5 162.92,-69.22 65,-42 59.68,-40.52 54.28,-38.17 49.31,-35.6"/>
<polygon fill="midnightblue" stroke="midnightblue" points="50.83,-32.44 40.41,-30.53 47.37,-38.52 50.83,-32.44"/>
</g>
<!-- Node9 -->
<g id="node9" class="node">
<title>Node9</title>
<g id="a_node9"><a xlink:title=" ">
<polygon fill="none" stroke="#bfbfbf" points="1365,-11.5 1365,-30.5 1481,-30.5 1481,-11.5 1365,-11.5"/>
<text text-anchor="middle" x="1423" y="-18.5" font-family="Helvetica,sans-Serif" font-size="10.00">seerep&#45;msgs/aabb.h</text>
</a>
</g>
</g>
<!-- Node8&#45;&gt;Node9 -->
<g id="edge10" class="edge">
<title>Node8&#45;&gt;Node9</title>
<path fill="none" stroke="midnightblue" d="M1208.57,-78.55C1250.68,-68.91 1307.37,-55.44 1357,-42 1366.61,-39.4 1376.93,-36.38 1386.5,-33.48"/>
<polygon fill="midnightblue" stroke="midnightblue" points="1387.59,-36.81 1396.13,-30.54 1385.54,-30.11 1387.59,-36.81"/>
</g>
<!-- Node10 -->
<g id="node10" class="node">
<title>Node10</title>
<g id="a_node10"><a xlink:title=" ">
<polygon fill="none" stroke="#bfbfbf" points="1499.5,-6 1499.5,-36 1624.5,-36 1624.5,-6 1499.5,-6"/>
<text text-anchor="start" x="1507.5" y="-24" font-family="Helvetica,sans-Serif" font-size="10.00">seerep&#45;msgs/geodetic</text>
<text text-anchor="middle" x="1562" y="-13" font-family="Helvetica,sans-Serif" font-size="10.00">&#45;coordinates.h</text>
</a>
</g>
</g>
<!-- Node8&#45;&gt;Node10 -->
<g id="edge12" class="edge">
<title>Node8&#45;&gt;Node10</title>
<path fill="none" stroke="midnightblue" d="M1208.57,-80.44C1213.45,-79.58 1218.3,-78.76 1223,-78 1341.21,-58.91 1372.71,-66.08 1490,-42 1494.96,-40.98 1500.07,-39.81 1505.19,-38.56"/>
<polygon fill="midnightblue" stroke="midnightblue" points="1506.15,-41.92 1514.97,-36.06 1504.42,-35.14 1506.15,-41.92"/>
</g>
<!-- Node11 -->
<g id="node11" class="node">
<title>Node11</title>
<g id="a_node11"><a xlink:title=" ">
<polygon fill="none" stroke="#bfbfbf" points="1643,-0.5 1643,-41.5 1755,-41.5 1755,-0.5 1643,-0.5"/>
<text text-anchor="start" x="1651" y="-29.5" font-family="Helvetica,sans-Serif" font-size="10.00">seerep&#45;msgs/labels</text>
<text text-anchor="start" x="1651" y="-18.5" font-family="Helvetica,sans-Serif" font-size="10.00">&#45;with&#45;instance&#45;with</text>
<text text-anchor="middle" x="1699" y="-7.5" font-family="Helvetica,sans-Serif" font-size="10.00">&#45;category.h</text>
</a>
</g>
</g>
<!-- Node8&#45;&gt;Node11 -->
<g id="edge13" class="edge">
<title>Node8&#45;&gt;Node11</title>
<path fill="none" stroke="midnightblue" d="M1208.53,-80.19C1213.42,-79.39 1218.28,-78.65 1223,-78 1401.46,-53.44 1452.26,-76.32 1632.99,-41.98"/>
<polygon fill="midnightblue" stroke="midnightblue" points="1633.66,-45.42 1642.81,-40.08 1632.33,-38.54 1633.66,-45.42"/>
</g>
<!-- Node8&#45;&gt;Node12 -->
<g id="edge14" class="edge">
<title>Node8&#45;&gt;Node12</title>
<path fill="none" stroke="midnightblue" d="M1124.2,-78.4C1105.2,-66.11 1077.77,-48.37 1058.77,-36.08"/>
<polygon fill="midnightblue" stroke="midnightblue" points="1060.49,-33.03 1050.19,-30.53 1056.69,-38.9 1060.49,-33.03"/>
</g>
<!-- Node13 -->
<g id="node13" class="node">
<title>Node13</title>
<g id="a_node13"><a xlink:title=" ">
<polygon fill="none" stroke="#bfbfbf" points="1773,-11.5 1773,-30.5 1821,-30.5 1821,-11.5 1773,-11.5"/>
<text text-anchor="middle" x="1797" y="-18.5" font-family="Helvetica,sans-Serif" font-size="10.00">mutex</text>
</a>
</g>
</g>
<!-- Node8&#45;&gt;Node13 -->
<g id="edge15" class="edge">
<title>Node8&#45;&gt;Node13</title>
<path fill="none" stroke="midnightblue" d="M1208.52,-80.08C1213.41,-79.31 1218.28,-78.6 1223,-78 1462.06,-47.65 1534.19,-114.51 1764,-42 1768.51,-40.58 1773.03,-38.42 1777.23,-36.04"/>
<polygon fill="midnightblue" stroke="midnightblue" points="1779.15,-38.97 1785.75,-30.68 1775.42,-33.05 1779.15,-38.97"/>
</g>
<!-- Node14 -->
<g id="node14" class="node">
<title>Node14</title>
<g id="a_node14"><a xlink:title=" ">
<polygon fill="none" stroke="#bfbfbf" points="1111.5,-11.5 1111.5,-30.5 1180.5,-30.5 1180.5,-11.5 1111.5,-11.5"/>
<text text-anchor="middle" x="1146" y="-18.5" font-family="Helvetica,sans-Serif" font-size="10.00">type_traits</text>
</a>
</g>
</g>
<!-- Node8&#45;&gt;Node14 -->
<g id="edge17" class="edge">
<title>Node8&#45;&gt;Node14</title>
<path fill="none" stroke="midnightblue" d="M1146,-78.23C1146,-67.5 1146,-52.69 1146,-40.96"/>
<polygon fill="midnightblue" stroke="midnightblue" points="1149.5,-40.89 1146,-30.89 1142.5,-40.89 1149.5,-40.89"/>
</g>
<!-- Node15 -->
<g id="node15" class="node">
<title>Node15</title>
<g id="a_node15"><a xlink:title=" ">
<polygon fill="none" stroke="#bfbfbf" points="1967.5,-6 1967.5,-36 2112.5,-36 2112.5,-6 1967.5,-6"/>
<text text-anchor="start" x="1975.5" y="-24" font-family="Helvetica,sans-Serif" font-size="10.00">boost/log/sources/severity</text>
<text text-anchor="middle" x="2040" y="-13" font-family="Helvetica,sans-Serif" font-size="10.00">_logger.hpp</text>
</a>
</g>
</g>
<!-- Node8&#45;&gt;Node15 -->
<g id="edge18" class="edge">
<title>Node8&#45;&gt;Node15</title>
<path fill="none" stroke="midnightblue" d="M1208.58,-88.29C1252.6,-85.35 1312.9,-81.36 1366,-78 1629.07,-61.33 1697.36,-81.39 1958,-42 1964.72,-40.98 1971.69,-39.68 1978.61,-38.23"/>
<polygon fill="midnightblue" stroke="midnightblue" points="1979.65,-41.58 1988.66,-36.01 1978.14,-34.75 1979.65,-41.58"/>
</g>
<!-- Node16 -->
<g id="node16" class="node">
<title>Node16</title>
<g id="a_node16"><a xlink:title=" ">
<polygon fill="none" stroke="#bfbfbf" points="2131,-11.5 2131,-30.5 2245,-30.5 2245,-11.5 2131,-11.5"/>
<text text-anchor="middle" x="2188" y="-18.5" font-family="Helvetica,sans-Serif" font-size="10.00">boost/log/trivial.hpp</text>
</a>
</g>
</g>
<!-- Node8&#45;&gt;Node16 -->
<g id="edge19" class="edge">
<title>Node8&#45;&gt;Node16</title>
<path fill="none" stroke="midnightblue" d="M1208.56,-88.88C1260.8,-85.88 1337.25,-81.55 1404,-78 1723.06,-61.04 1807.21,-96.74 2122,-42 2133,-40.09 2144.73,-36.92 2155.22,-33.66"/>
<polygon fill="midnightblue" stroke="midnightblue" points="2156.38,-36.96 2164.82,-30.54 2154.22,-30.3 2156.38,-36.96"/>
</g>
<!-- Node8&#45;&gt;Node17 -->
<g id="edge20" class="edge">
<title>Node8&#45;&gt;Node17</title>
<path fill="none" stroke="midnightblue" d="M1095.32,-78.49C1047.34,-65.22 976.24,-45.57 931.82,-33.28"/>
<polygon fill="midnightblue" stroke="midnightblue" points="932.51,-29.85 921.94,-30.55 930.65,-36.59 932.51,-29.85"/>
</g>
<!-- Node8&#45;&gt;Node18 -->
<g id="edge21" class="edge">
<title>Node8&#45;&gt;Node18</title>
<path fill="none" stroke="midnightblue" d="M1083.24,-91.84C964.15,-89.69 697.58,-80.58 477,-42 465.04,-39.91 452.2,-36.67 440.73,-33.41"/>
<polygon fill="midnightblue" stroke="midnightblue" points="441.63,-30.03 431.05,-30.56 439.66,-36.74 441.63,-30.03"/>
</g>
<!-- Node8&#45;&gt;Node19 -->
<g id="edge23" class="edge">
<title>Node8&#45;&gt;Node19</title>
<path fill="none" stroke="midnightblue" d="M1083.46,-88.04C991.43,-81.01 814.28,-65.65 665,-42 649.33,-39.52 632.34,-36.12 617.17,-32.83"/>
<polygon fill="midnightblue" stroke="midnightblue" points="617.51,-29.32 606.99,-30.58 616,-36.16 617.51,-29.32"/>
</g>
<!-- Node8&#45;&gt;Node20 -->
<g id="edge24" class="edge">
<title>Node8&#45;&gt;Node20</title>
<path fill="none" stroke="midnightblue" d="M1083.25,-85.28C1015.64,-76.98 905.08,-61.91 811,-42 799.58,-39.58 787.3,-36.44 776.13,-33.36"/>
<polygon fill="midnightblue" stroke="midnightblue" points="776.81,-29.91 766.24,-30.57 774.91,-36.65 776.81,-29.91"/>
</g>
<!-- Node21 -->
<g id="node21" class="node">
<title>Node21</title>
<g id="a_node21"><a xlink:title=" ">
<polygon fill="none" stroke="#bfbfbf" points="1198.5,-11.5 1198.5,-30.5 1347.5,-30.5 1347.5,-11.5 1198.5,-11.5"/>
<text text-anchor="middle" x="1273" y="-18.5" font-family="Helvetica,sans-Serif" font-size="10.00">impl/hdf5&#45;core&#45;general.hpp</text>
</a>
</g>
</g>
<!-- Node8&#45;&gt;Node21 -->
<g id="edge25" class="edge">
<title>Node8&#45;&gt;Node21</title>
<path fill="none" stroke="midnightblue" d="M1171.4,-78.4C1193.94,-65.89 1226.66,-47.72 1248.83,-35.42"/>
<polygon fill="midnightblue" stroke="midnightblue" points="1250.58,-38.45 1257.63,-30.53 1247.19,-32.33 1250.58,-38.45"/>
</g>
<!-- Node22&#45;&gt;Node2 -->
<g id="edge35" class="edge">
<title>Node22&#45;&gt;Node2</title>
<path fill="none" stroke="midnightblue" d="M1356.96,-145.5C1352.65,-127.27 1348.6,-95.68 1366,-78 1402.27,-41.14 1779.22,-51.77 1830,-42 1840.37,-40 1851.44,-36.91 1861.39,-33.75"/>
<polygon fill="midnightblue" stroke="midnightblue" points="1862.52,-37.06 1870.92,-30.6 1860.32,-30.41 1862.52,-37.06"/>
</g>
<!-- Node22&#45;&gt;Node7 -->
<g id="edge39" class="edge">
<title>Node22&#45;&gt;Node7</title>
<path fill="none" stroke="midnightblue" d="M1302.68,-158.57C1080.34,-154.79 292.94,-139.39 185,-109 131.14,-93.83 75.59,-57.14 47.22,-36.58"/>
<polygon fill="midnightblue" stroke="midnightblue" points="49.13,-33.64 39.01,-30.52 44.98,-39.27 49.13,-33.64"/>
</g>
<!-- Node22&#45;&gt;Node8 -->
<g id="edge36" class="edge">
<title>Node22&#45;&gt;Node8</title>
<path fill="none" stroke="midnightblue" d="M1314.61,-145.48C1281.66,-135.51 1237.25,-122.09 1202.27,-111.51"/>
<polygon fill="midnightblue" stroke="midnightblue" points="1203.26,-108.15 1192.67,-108.61 1201.23,-114.86 1203.26,-108.15"/>
</g>
<!-- Node22&#45;&gt;Node12 -->
<g id="edge37" class="edge">
<title>Node22&#45;&gt;Node12</title>
<path fill="none" stroke="midnightblue" d="M1302.69,-155.65C1229.55,-149.75 1109.52,-136.17 1075,-109 1053.57,-92.13 1043.97,-60.73 1039.86,-40.62"/>
<polygon fill="midnightblue" stroke="midnightblue" points="1043.26,-39.76 1038.06,-30.53 1036.37,-40.99 1043.26,-39.76"/>
</g>
<!-- Node22&#45;&gt;Node15 -->
<g id="edge40" class="edge">
<title>Node22&#45;&gt;Node15</title>
<path fill="none" stroke="midnightblue" d="M1363.97,-145.41C1368.78,-126.47 1380.24,-93.4 1404,-78 1455.76,-44.45 1897.03,-51.34 1958,-42 1964.62,-40.99 1971.48,-39.7 1978.3,-38.26"/>
<polygon fill="midnightblue" stroke="midnightblue" points="1979.21,-41.65 1988.22,-36.07 1977.7,-34.81 1979.21,-41.65"/>
</g>
<!-- Node22&#45;&gt;Node16 -->
<g id="edge41" class="edge">
<title>Node22&#45;&gt;Node16</title>
<path fill="none" stroke="midnightblue" d="M1373.11,-145.4C1392.42,-123.1 1428.85,-81.8 1437,-78 1575.15,-13.57 1971.85,-68.3 2122,-42 2132.99,-40.07 2144.73,-36.9 2155.21,-33.64"/>
<polygon fill="midnightblue" stroke="midnightblue" points="2156.38,-36.94 2164.81,-30.53 2154.22,-30.28 2156.38,-36.94"/>
</g>
<!-- Node23 -->
<g id="node23" class="node">
<title>Node23</title>
<g id="a_node23"><a xlink:title=" ">
<polygon fill="none" stroke="#bfbfbf" points="1446,-84 1446,-103 1514,-103 1514,-84 1446,-84"/>
<text text-anchor="middle" x="1480" y="-91" font-family="Helvetica,sans-Serif" font-size="10.00">filesystem</text>
</a>
</g>
</g>
<!-- Node22&#45;&gt;Node23 -->
<g id="edge38" class="edge">
<title>Node22&#45;&gt;Node23</title>
<path fill="none" stroke="midnightblue" d="M1386.82,-145.4C1407.24,-134.24 1435.55,-118.78 1455.59,-107.83"/>
<polygon fill="midnightblue" stroke="midnightblue" points="1457.33,-110.87 1464.43,-103.01 1453.97,-104.73 1457.33,-110.87"/>
</g>
<!-- Node24 -->
<g id="node24" class="node">
<title>Node24</title>
<g id="a_node24"><a xlink:title=" ">
<polygon fill="none" stroke="#bfbfbf" points="1532,-84 1532,-103 1672,-103 1672,-84 1532,-84"/>
<text text-anchor="middle" x="1602" y="-91" font-family="Helvetica,sans-Serif" font-size="10.00">impl/hdf5&#45;py&#45;general.hpp</text>
</a>
</g>
</g>
<!-- Node22&#45;&gt;Node24 -->
<g id="edge42" class="edge">
<title>Node22&#45;&gt;Node24</title>
<path fill="none" stroke="midnightblue" d="M1413,-145.48C1457.13,-133.57 1519.63,-116.72 1560.48,-105.7"/>
<polygon fill="midnightblue" stroke="midnightblue" points="1561.63,-109.01 1570.38,-103.03 1559.81,-102.25 1561.63,-109.01"/>
</g>
</g>
</svg>
