<?xml version="1.0" encoding="UTF-8" standalone="no"?>
<!DOCTYPE svg PUBLIC "-//W3C//DTD SVG 1.1//EN"
 "http://www.w3.org/Graphics/SVG/1.1/DTD/svg11.dtd">
<!-- Generated by graphviz version 2.43.0 (0)
 -->
<!-- Title: seerep_hdf5/seerep_hdf5_core/include/seerep_hdf5_core/hdf5_core_tf.h Pages: 1 -->
<svg width="2450pt" height="173pt"
 viewBox="0.00 0.00 2450.00 173.00" xmlns="http://www.w3.org/2000/svg" xmlns:xlink="http://www.w3.org/1999/xlink">
<g id="graph0" class="graph" transform="scale(1 1) rotate(0) translate(4 169)">
<title>seerep_hdf5/seerep_hdf5_core/include/seerep_hdf5_core/hdf5_core_tf.h</title>
<!-- Node1 -->
<g id="node1" class="node">
<title>Node1</title>
<g id="a_node1"><a xlink:title=" ">
<polygon fill="#bfbfbf" stroke="black" points="216,-123.5 216,-164.5 360,-164.5 360,-123.5 216,-123.5"/>
<text text-anchor="start" x="224" y="-152.5" font-family="Helvetica,sans-Serif" font-size="10.00">seerep_hdf5/seerep</text>
<text text-anchor="start" x="224" y="-141.5" font-family="Helvetica,sans-Serif" font-size="10.00">_hdf5_core/include/seerep</text>
<text text-anchor="middle" x="288" y="-130.5" font-family="Helvetica,sans-Serif" font-size="10.00">_hdf5_core/hdf5_core_tf.h</text>
</a>
</g>
</g>
<!-- Node2 -->
<g id="node2" class="node">
<title>Node2</title>
<g id="a_node2"><a xlink:title=" ">
<polygon fill="none" stroke="#bfbfbf" points="0,-6 0,-25 110,-25 110,-6 0,-6"/>
<text text-anchor="middle" x="55" y="-13" font-family="Helvetica,sans-Serif" font-size="10.00">highfive/H5File.hpp</text>
</a>
</g>
</g>
<!-- Node1&#45;&gt;Node2 -->
<g id="edge1" class="edge">
<title>Node1&#45;&gt;Node2</title>
<path fill="none" stroke="midnightblue" d="M251.85,-123.37C203.94,-97.36 120.69,-52.16 79.51,-29.81"/>
<polygon fill="midnightblue" stroke="midnightblue" points="81.15,-26.71 70.69,-25.02 77.81,-32.86 81.15,-26.71"/>
</g>
<!-- Node3 -->
<g id="node3" class="node">
<title>Node3</title>
<g id="a_node3"><a xlink:href="hdf5__core__general_8h.html" target="_top" xlink:title=" ">
<polygon fill="none" stroke="black" points="1043,-67.5 1043,-86.5 1159,-86.5 1159,-67.5 1043,-67.5"/>
<text text-anchor="middle" x="1101" y="-74.5" font-family="Helvetica,sans-Serif" font-size="10.00">hdf5_core_general.h</text>
</a>
</g>
</g>
<!-- Node1&#45;&gt;Node3 -->
<g id="edge2" class="edge">
<title>Node1&#45;&gt;Node3</title>
<path fill="none" stroke="midnightblue" d="M360.15,-137.23C515.71,-124.79 880.89,-95.6 1032.82,-83.45"/>
<polygon fill="midnightblue" stroke="midnightblue" points="1033.26,-86.93 1042.95,-82.64 1032.7,-79.95 1033.26,-86.93"/>
</g>
<!-- Node9 -->
<g id="node9" class="node">
<title>Node9</title>
<g id="a_node9"><a xlink:title=" ">
<polygon fill="none" stroke="#bfbfbf" points="128.5,-6 128.5,-25 241.5,-25 241.5,-6 128.5,-6"/>
<text text-anchor="middle" x="185" y="-13" font-family="Helvetica,sans-Serif" font-size="10.00">boost/geometry.hpp</text>
</a>
</g>
</g>
<!-- Node1&#45;&gt;Node9 -->
<g id="edge22" class="edge">
<title>Node1&#45;&gt;Node9</title>
<path fill="none" stroke="midnightblue" d="M271.91,-123.23C251.74,-98.46 217.53,-56.45 198.6,-33.21"/>
<polygon fill="midnightblue" stroke="midnightblue" points="201.19,-30.84 192.16,-25.29 195.76,-35.26 201.19,-30.84"/>
</g>
<!-- Node11 -->
<g id="node11" class="node">
<title>Node11</title>
<g id="a_node11"><a xlink:title=" ">
<polygon fill="none" stroke="#bfbfbf" points="260,-6 260,-25 316,-25 316,-6 260,-6"/>
<text text-anchor="middle" x="288" y="-13" font-family="Helvetica,sans-Serif" font-size="10.00">optional</text>
</a>
</g>
</g>
<!-- Node1&#45;&gt;Node11 -->
<g id="edge23" class="edge">
<title>Node1&#45;&gt;Node11</title>
<path fill="none" stroke="midnightblue" d="M288,-123.23C288,-99.23 288,-59.02 288,-35.41"/>
<polygon fill="midnightblue" stroke="midnightblue" points="291.5,-35.29 288,-25.29 284.5,-35.29 291.5,-35.29"/>
</g>
<!-- Node21 -->
<g id="node21" class="node">
<title>Node21</title>
<g id="a_node21"><a xlink:title=" ">
<polygon fill="none" stroke="#bfbfbf" points="1177,-67.5 1177,-86.5 1377,-86.5 1377,-67.5 1177,-67.5"/>
<text text-anchor="middle" x="1277" y="-74.5" font-family="Helvetica,sans-Serif" font-size="10.00">geometry_msgs/TransformStamped.h</text>
</a>
</g>
</g>
<!-- Node1&#45;&gt;Node21 -->
<g id="edge21" class="edge">
<title>Node1&#45;&gt;Node21</title>
<path fill="none" stroke="midnightblue" d="M360.18,-138.87C508.83,-130.26 860.17,-109.39 1166.5,-87.1"/>
<polygon fill="midnightblue" stroke="midnightblue" points="1167.2,-90.56 1176.92,-86.34 1166.69,-83.57 1167.2,-90.56"/>
</g>
<!-- Node3&#45;&gt;Node2 -->
<g id="edge3" class="edge">
<title>Node3&#45;&gt;Node2</title>
<path fill="none" stroke="midnightblue" d="M1042.76,-74.69C859.98,-70.35 299.23,-55.35 119,-31 112.02,-30.06 104.68,-28.72 97.56,-27.24"/>
<polygon fill="midnightblue" stroke="midnightblue" points="97.87,-23.73 87.36,-25 96.37,-30.57 97.87,-23.73"/>
</g>
<!-- Node4 -->
<g id="node4" class="node">
<title>Node4</title>
<g id="a_node4"><a xlink:title=" ">
<polygon fill="none" stroke="#bfbfbf" points="1274.5,-6 1274.5,-25 1391.5,-25 1391.5,-6 1274.5,-6"/>
<text text-anchor="middle" x="1333" y="-13" font-family="Helvetica,sans-Serif" font-size="10.00">seerep_msgs/aabb.h</text>
</a>
</g>
</g>
<!-- Node3&#45;&gt;Node4 -->
<g id="edge4" class="edge">
<title>Node3&#45;&gt;Node4</title>
<path fill="none" stroke="midnightblue" d="M1134.24,-67.48C1175.24,-56.96 1245.03,-39.06 1290.05,-27.51"/>
<polygon fill="midnightblue" stroke="midnightblue" points="1291,-30.88 1299.82,-25.01 1289.27,-24.1 1291,-30.88"/>
</g>
<!-- Node5 -->
<g id="node5" class="node">
<title>Node5</title>
<g id="a_node5"><a xlink:title=" ">
<polygon fill="none" stroke="#bfbfbf" points="1409.5,-0.5 1409.5,-30.5 1530.5,-30.5 1530.5,-0.5 1409.5,-0.5"/>
<text text-anchor="start" x="1417.5" y="-18.5" font-family="Helvetica,sans-Serif" font-size="10.00">seerep_msgs/dataset</text>
<text text-anchor="middle" x="1470" y="-7.5" font-family="Helvetica,sans-Serif" font-size="10.00">_indexable.h</text>
</a>
</g>
</g>
<!-- Node3&#45;&gt;Node5 -->
<g id="edge5" class="edge">
<title>Node3&#45;&gt;Node5</title>
<path fill="none" stroke="midnightblue" d="M1159.11,-67.7C1228.5,-57.71 1341.53,-41.22 1399.33,-31.22"/>
<polygon fill="midnightblue" stroke="midnightblue" points="1400.22,-34.62 1409.46,-29.43 1399,-27.72 1400.22,-34.62"/>
</g>
<!-- Node6 -->
<g id="node6" class="node">
<title>Node6</title>
<g id="a_node6"><a xlink:title=" ">
<polygon fill="none" stroke="#bfbfbf" points="1549,-0.5 1549,-30.5 1675,-30.5 1675,-0.5 1549,-0.5"/>
<text text-anchor="start" x="1557" y="-18.5" font-family="Helvetica,sans-Serif" font-size="10.00">seerep_msgs/geodetic</text>
<text text-anchor="middle" x="1612" y="-7.5" font-family="Helvetica,sans-Serif" font-size="10.00">_coordinates.h</text>
</a>
</g>
</g>
<!-- Node3&#45;&gt;Node6 -->
<g id="edge6" class="edge">
<title>Node3&#45;&gt;Node6</title>
<path fill="none" stroke="midnightblue" d="M1159.09,-68.06C1162.1,-67.69 1165.09,-67.34 1168,-67 1329.79,-48.31 1373.99,-55.15 1538.85,-31.07"/>
<polygon fill="midnightblue" stroke="midnightblue" points="1539.47,-34.52 1548.85,-29.6 1538.44,-27.6 1539.47,-34.52"/>
</g>
<!-- Node7 -->
<g id="node7" class="node">
<title>Node7</title>
<g id="a_node7"><a xlink:title=" ">
<polygon fill="none" stroke="#bfbfbf" points="1693.5,-6 1693.5,-25 1810.5,-25 1810.5,-6 1693.5,-6"/>
<text text-anchor="middle" x="1752" y="-13" font-family="Helvetica,sans-Serif" font-size="10.00">seerep_msgs/label.h</text>
</a>
</g>
</g>
<!-- Node3&#45;&gt;Node7 -->
<g id="edge7" class="edge">
<title>Node3&#45;&gt;Node7</title>
<path fill="none" stroke="midnightblue" d="M1159.08,-67.97C1162.09,-67.62 1165.08,-67.3 1168,-67 1396.71,-43.69 1456.35,-63.05 1684,-31 1691.31,-29.97 1699.02,-28.6 1706.5,-27.12"/>
<polygon fill="midnightblue" stroke="midnightblue" points="1707.44,-30.5 1716.52,-25.05 1706.02,-23.65 1707.44,-30.5"/>
</g>
<!-- Node8 -->
<g id="node8" class="node">
<title>Node8</title>
<g id="a_node8"><a xlink:title=" ">
<polygon fill="none" stroke="#bfbfbf" points="1829,-6 1829,-25 1993,-25 1993,-6 1829,-6"/>
<text text-anchor="middle" x="1911" y="-13" font-family="Helvetica,sans-Serif" font-size="10.00">seerep_msgs/label_category.h</text>
</a>
</g>
</g>
<!-- Node3&#45;&gt;Node8 -->
<g id="edge8" class="edge">
<title>Node3&#45;&gt;Node8</title>
<path fill="none" stroke="midnightblue" d="M1159.07,-67.92C1162.09,-67.58 1165.08,-67.28 1168,-67 1456.93,-39.66 1531.43,-61.87 1820,-31 1830.84,-29.84 1842.36,-28.27 1853.42,-26.59"/>
<polygon fill="midnightblue" stroke="midnightblue" points="1854.08,-30.03 1863.42,-25.03 1853,-23.11 1854.08,-30.03"/>
</g>
<!-- Node3&#45;&gt;Node9 -->
<g id="edge9" class="edge">
<title>Node3&#45;&gt;Node9</title>
<path fill="none" stroke="midnightblue" d="M1042.98,-76.18C905.02,-75.91 546.81,-71.05 251,-31 243.73,-30.02 236.07,-28.65 228.64,-27.14"/>
<polygon fill="midnightblue" stroke="midnightblue" points="229.24,-23.69 218.73,-25.02 227.77,-30.53 229.24,-23.69"/>
</g>
<!-- Node10 -->
<g id="node10" class="node">
<title>Node10</title>
<g id="a_node10"><a xlink:title=" ">
<polygon fill="none" stroke="#bfbfbf" points="2011,-6 2011,-25 2059,-25 2059,-6 2011,-6"/>
<text text-anchor="middle" x="2035" y="-13" font-family="Helvetica,sans-Serif" font-size="10.00">mutex</text>
</a>
</g>
</g>
<!-- Node3&#45;&gt;Node10 -->
<g id="edge10" class="edge">
<title>Node3&#45;&gt;Node10</title>
<path fill="none" stroke="midnightblue" d="M1159.07,-67.87C1162.09,-67.55 1165.08,-67.26 1168,-67 1352.78,-50.63 1821.32,-73.03 2002,-31 2004.37,-30.45 2006.77,-29.73 2009.15,-28.91"/>
<polygon fill="midnightblue" stroke="midnightblue" points="2010.64,-32.09 2018.63,-25.12 2008.04,-25.59 2010.64,-32.09"/>
</g>
<!-- Node3&#45;&gt;Node11 -->
<g id="edge11" class="edge">
<title>Node3&#45;&gt;Node11</title>
<path fill="none" stroke="midnightblue" d="M1042.81,-74.92C886.97,-71.67 462.72,-60.32 326,-31 322.92,-30.34 319.77,-29.47 316.65,-28.48"/>
<polygon fill="midnightblue" stroke="midnightblue" points="317.58,-25.1 306.98,-25.05 315.24,-31.7 317.58,-25.1"/>
</g>
<!-- Node12 -->
<g id="node12" class="node">
<title>Node12</title>
<g id="a_node12"><a xlink:title=" ">
<polygon fill="none" stroke="#bfbfbf" points="2077.5,-6 2077.5,-25 2146.5,-25 2146.5,-6 2077.5,-6"/>
<text text-anchor="middle" x="2112" y="-13" font-family="Helvetica,sans-Serif" font-size="10.00">type_traits</text>
</a>
</g>
</g>
<!-- Node3&#45;&gt;Node12 -->
<g id="edge12" class="edge">
<title>Node3&#45;&gt;Node12</title>
<path fill="none" stroke="midnightblue" d="M1159.07,-67.86C1162.09,-67.54 1165.08,-67.25 1168,-67 1566.81,-32.31 1674.09,-102.34 2068,-31 2071.98,-30.28 2076.1,-29.28 2080.14,-28.14"/>
<polygon fill="midnightblue" stroke="midnightblue" points="2081.42,-31.41 2089.93,-25.1 2079.34,-24.73 2081.42,-31.41"/>
</g>
<!-- Node13 -->
<g id="node13" class="node">
<title>Node13</title>
<g id="a_node13"><a xlink:title=" ">
<polygon fill="none" stroke="#bfbfbf" points="2164.5,-0.5 2164.5,-30.5 2309.5,-30.5 2309.5,-0.5 2164.5,-0.5"/>
<text text-anchor="start" x="2172.5" y="-18.5" font-family="Helvetica,sans-Serif" font-size="10.00">boost/log/sources/severity</text>
<text text-anchor="middle" x="2237" y="-7.5" font-family="Helvetica,sans-Serif" font-size="10.00">_logger.hpp</text>
</a>
</g>
</g>
<!-- Node3&#45;&gt;Node13 -->
<g id="edge13" class="edge">
<title>Node3&#45;&gt;Node13</title>
<path fill="none" stroke="midnightblue" d="M1159.07,-67.85C1162.09,-67.54 1165.08,-67.25 1168,-67 1602.5,-29.99 1717.37,-77.11 2154.16,-31.1"/>
<polygon fill="midnightblue" stroke="midnightblue" points="2154.64,-34.57 2164.21,-30.03 2153.9,-27.61 2154.64,-34.57"/>
</g>
<!-- Node14 -->
<g id="node14" class="node">
<title>Node14</title>
<g id="a_node14"><a xlink:title=" ">
<polygon fill="none" stroke="#bfbfbf" points="2328,-6 2328,-25 2442,-25 2442,-6 2328,-6"/>
<text text-anchor="middle" x="2385" y="-13" font-family="Helvetica,sans-Serif" font-size="10.00">boost/log/trivial.hpp</text>
</a>
</g>
</g>
<!-- Node3&#45;&gt;Node14 -->
<g id="edge14" class="edge">
<title>Node3&#45;&gt;Node14</title>
<path fill="none" stroke="midnightblue" d="M1159.07,-67.83C1162.08,-67.52 1165.08,-67.24 1168,-67 1678.07,-24.88 1811.11,-94.18 2319,-31 2326.53,-30.06 2334.46,-28.67 2342.12,-27.12"/>
<polygon fill="midnightblue" stroke="midnightblue" points="2342.93,-30.53 2351.97,-25.01 2341.46,-23.69 2342.93,-30.53"/>
</g>
<!-- Node15 -->
<g id="node15" class="node">
<title>Node15</title>
<g id="a_node15"><a xlink:title=" ">
<polygon fill="none" stroke="#bfbfbf" points="334.5,-6 334.5,-25 477.5,-25 477.5,-6 334.5,-6"/>
<text text-anchor="middle" x="406" y="-13" font-family="Helvetica,sans-Serif" font-size="10.00">boost/functional/hash.hpp</text>
</a>
</g>
</g>
<!-- Node3&#45;&gt;Node15 -->
<g id="edge15" class="edge">
<title>Node3&#45;&gt;Node15</title>
<path fill="none" stroke="midnightblue" d="M1042.81,-73.75C933.55,-69.09 690.35,-56.58 487,-31 477.84,-29.85 468.14,-28.35 458.76,-26.76"/>
<polygon fill="midnightblue" stroke="midnightblue" points="459.2,-23.29 448.75,-25.01 458,-30.18 459.2,-23.29"/>
</g>
<!-- Node16 -->
<g id="node16" class="node">
<title>Node16</title>
<g id="a_node16"><a xlink:title=" ">
<polygon fill="none" stroke="#bfbfbf" points="495.5,-6 495.5,-25 620.5,-25 620.5,-6 495.5,-6"/>
<text text-anchor="middle" x="558" y="-13" font-family="Helvetica,sans-Serif" font-size="10.00">boost/lexical_cast.hpp</text>
</a>
</g>
</g>
<!-- Node3&#45;&gt;Node16 -->
<g id="edge16" class="edge">
<title>Node3&#45;&gt;Node16</title>
<path fill="none" stroke="midnightblue" d="M1042.76,-72.38C953.56,-66.4 777.89,-52.9 630,-31 622.46,-29.88 614.51,-28.5 606.76,-27.03"/>
<polygon fill="midnightblue" stroke="midnightblue" points="607.22,-23.55 596.73,-25.07 605.87,-30.42 607.22,-23.55"/>
</g>
<!-- Node17 -->
<g id="node17" class="node">
<title>Node17</title>
<g id="a_node17"><a xlink:title=" ">
<polygon fill="none" stroke="#bfbfbf" points="638.5,-6 638.5,-25 751.5,-25 751.5,-6 638.5,-6"/>
<text text-anchor="middle" x="695" y="-13" font-family="Helvetica,sans-Serif" font-size="10.00">boost/uuid/uuid.hpp</text>
</a>
</g>
</g>
<!-- Node3&#45;&gt;Node17 -->
<g id="edge17" class="edge">
<title>Node3&#45;&gt;Node17</title>
<path fill="none" stroke="midnightblue" d="M1042.72,-69.81C974.82,-62.24 859.38,-48.28 761,-31 754.63,-29.88 747.94,-28.57 741.37,-27.21"/>
<polygon fill="midnightblue" stroke="midnightblue" points="741.71,-23.7 731.2,-25.03 740.25,-30.54 741.71,-23.7"/>
</g>
<!-- Node18 -->
<g id="node18" class="node">
<title>Node18</title>
<g id="a_node18"><a xlink:title=" ">
<polygon fill="none" stroke="#bfbfbf" points="770,-6 770,-25 940,-25 940,-6 770,-6"/>
<text text-anchor="middle" x="855" y="-13" font-family="Helvetica,sans-Serif" font-size="10.00">boost/uuid/uuid_generators.hpp</text>
</a>
</g>
</g>
<!-- Node3&#45;&gt;Node18 -->
<g id="edge18" class="edge">
<title>Node3&#45;&gt;Node18</title>
<path fill="none" stroke="midnightblue" d="M1065.75,-67.48C1022.1,-56.92 947.66,-38.91 899.94,-27.37"/>
<polygon fill="midnightblue" stroke="midnightblue" points="900.72,-23.96 890.18,-25.01 899.08,-30.76 900.72,-23.96"/>
</g>
<!-- Node19 -->
<g id="node19" class="node">
<title>Node19</title>
<g id="a_node19"><a xlink:title=" ">
<polygon fill="none" stroke="#bfbfbf" points="958.5,-6 958.5,-25 1085.5,-25 1085.5,-6 958.5,-6"/>
<text text-anchor="middle" x="1022" y="-13" font-family="Helvetica,sans-Serif" font-size="10.00">boost/uuid/uuid_io.hpp</text>
</a>
</g>
</g>
<!-- Node3&#45;&gt;Node19 -->
<g id="edge19" class="edge">
<title>Node3&#45;&gt;Node19</title>
<path fill="none" stroke="midnightblue" d="M1089.68,-67.48C1077.13,-58.02 1056.65,-42.6 1041.5,-31.19"/>
<polygon fill="midnightblue" stroke="midnightblue" points="1043.39,-28.23 1033.3,-25.01 1039.18,-33.82 1043.39,-28.23"/>
</g>
<!-- Node20 -->
<g id="node20" class="node">
<title>Node20</title>
<g id="a_node20"><a xlink:title=" ">
<polygon fill="none" stroke="#bfbfbf" points="1104,-6 1104,-25 1256,-25 1256,-6 1104,-6"/>
<text text-anchor="middle" x="1180" y="-13" font-family="Helvetica,sans-Serif" font-size="10.00">impl/hdf5_core_general.hpp</text>
</a>
</g>
</g>
<!-- Node3&#45;&gt;Node20 -->
<g id="edge20" class="edge">
<title>Node3&#45;&gt;Node20</title>
<path fill="none" stroke="midnightblue" d="M1112.32,-67.48C1124.87,-58.02 1145.35,-42.6 1160.5,-31.19"/>
<polygon fill="midnightblue" stroke="midnightblue" points="1162.82,-33.82 1168.7,-25.01 1158.61,-28.23 1162.82,-33.82"/>
</g>
</g>
</svg>
