<?xml version="1.0" encoding="UTF-8" standalone="no"?>
<!DOCTYPE svg PUBLIC "-//W3C//DTD SVG 1.1//EN"
 "http://www.w3.org/Graphics/SVG/1.1/DTD/svg11.dtd">
<!-- Generated by graphviz version 2.43.0 (0)
 -->
<!-- Title: seerep&#45;hdf5/seerep&#45;hdf5&#45;pb/include/seerep&#45;hdf5&#45;pb/hdf5&#45;pb&#45;tf.h Pages: 1 -->
<svg width="688pt" height="362pt"
 viewBox="0.00 0.00 687.50 362.00" xmlns="http://www.w3.org/2000/svg" xmlns:xlink="http://www.w3.org/1999/xlink">
<g id="graph0" class="graph" transform="scale(1 1) rotate(0) translate(4 358)">
<title>seerep&#45;hdf5/seerep&#45;hdf5&#45;pb/include/seerep&#45;hdf5&#45;pb/hdf5&#45;pb&#45;tf.h</title>
<!-- Node1 -->
<g id="node1" class="node">
<title>Node1</title>
<g id="a_node1"><a xlink:title=" ">
<polygon fill="#bfbfbf" stroke="black" points="145,-312.5 145,-353.5 277,-353.5 277,-312.5 145,-312.5"/>
<text text-anchor="start" x="153" y="-341.5" font-family="Helvetica,sans-Serif" font-size="10.00">seerep&#45;hdf5/seerep</text>
<text text-anchor="start" x="153" y="-330.5" font-family="Helvetica,sans-Serif" font-size="10.00">&#45;hdf5&#45;pb/include/seerep</text>
<text text-anchor="middle" x="211" y="-319.5" font-family="Helvetica,sans-Serif" font-size="10.00">&#45;hdf5&#45;pb/hdf5&#45;pb&#45;tf.h</text>
</a>
</g>
</g>
<!-- Node2 -->
<g id="node2" class="node">
<title>Node2</title>
<g id="a_node2"><a xlink:href="hdf5-pb-tf_8cpp.html" target="_top" xlink:title=" ">
<polygon fill="none" stroke="black" points="0,-229 0,-270 116,-270 116,-229 0,-229"/>
<text text-anchor="start" x="8" y="-258" font-family="Helvetica,sans-Serif" font-size="10.00">seerep&#45;hdf5/seerep</text>
<text text-anchor="start" x="8" y="-247" font-family="Helvetica,sans-Serif" font-size="10.00">&#45;hdf5&#45;pb/src/hdf5&#45;pb</text>
<text text-anchor="middle" x="58" y="-236" font-family="Helvetica,sans-Serif" font-size="10.00">&#45;tf.cpp</text>
</a>
</g>
</g>
<!-- Node1&#45;&gt;Node2 -->
<g id="edge1" class="edge">
<title>Node1&#45;&gt;Node2</title>
<path fill="none" stroke="midnightblue" d="M165.29,-307.65C142.7,-295.62 115.82,-281.3 94.61,-270"/>
<polygon fill="midnightblue" stroke="midnightblue" points="163.88,-310.87 174.35,-312.48 167.17,-304.69 163.88,-310.87"/>
</g>
<!-- Node3 -->
<g id="node3" class="node">
<title>Node3</title>
<g id="a_node3"><a xlink:href="hdf5dump_8h.html" target="_top" xlink:title=" ">
<polygon fill="none" stroke="black" points="134,-223.5 134,-275.5 288,-275.5 288,-223.5 134,-223.5"/>
<text text-anchor="start" x="142" y="-263.5" font-family="Helvetica,sans-Serif" font-size="10.00">seerep&#45;ros/seerep_ros</text>
<text text-anchor="start" x="142" y="-252.5" font-family="Helvetica,sans-Serif" font-size="10.00">_communication/include</text>
<text text-anchor="start" x="142" y="-241.5" font-family="Helvetica,sans-Serif" font-size="10.00">/seerep_ros_communication</text>
<text text-anchor="middle" x="211" y="-230.5" font-family="Helvetica,sans-Serif" font-size="10.00">/hdf5dump.h</text>
</a>
</g>
</g>
<!-- Node1&#45;&gt;Node3 -->
<g id="edge2" class="edge">
<title>Node1&#45;&gt;Node3</title>
<path fill="none" stroke="midnightblue" d="M211,-302.12C211,-293.41 211,-283.99 211,-275.61"/>
<polygon fill="midnightblue" stroke="midnightblue" points="207.5,-302.27 211,-312.27 214.5,-302.27 207.5,-302.27"/>
</g>
<!-- Node5 -->
<g id="node5" class="node">
<title>Node5</title>
<g id="a_node5"><a xlink:href="core-pb-tf_8h.html" target="_top" xlink:title=" ">
<polygon fill="none" stroke="black" points="314.5,-229 314.5,-270 445.5,-270 445.5,-229 314.5,-229"/>
<text text-anchor="start" x="322.5" y="-258" font-family="Helvetica,sans-Serif" font-size="10.00">seerep&#45;srv/seerep&#45;core</text>
<text text-anchor="start" x="322.5" y="-247" font-family="Helvetica,sans-Serif" font-size="10.00">&#45;pb/include/seerep&#45;core</text>
<text text-anchor="middle" x="380" y="-236" font-family="Helvetica,sans-Serif" font-size="10.00">&#45;pb/core&#45;pb&#45;tf.h</text>
</a>
</g>
</g>
<!-- Node1&#45;&gt;Node5 -->
<g id="edge4" class="edge">
<title>Node1&#45;&gt;Node5</title>
<path fill="none" stroke="midnightblue" d="M260.5,-308.13C285.65,-296 315.82,-281.45 339.56,-270"/>
<polygon fill="midnightblue" stroke="midnightblue" points="258.97,-304.98 251.48,-312.48 262.01,-311.29 258.97,-304.98"/>
</g>
<!-- Node4 -->
<g id="node4" class="node">
<title>Node4</title>
<g id="a_node4"><a xlink:href="hdf5dump_8cpp.html" target="_top" xlink:title=" ">
<polygon fill="none" stroke="black" points="109,-151 109,-181 297,-181 297,-151 109,-151"/>
<text text-anchor="start" x="117" y="-169" font-family="Helvetica,sans-Serif" font-size="10.00">seerep&#45;ros/seerep_ros</text>
<text text-anchor="middle" x="203" y="-158" font-family="Helvetica,sans-Serif" font-size="10.00">_communication/src/hdf5dump.cpp</text>
</a>
</g>
</g>
<!-- Node3&#45;&gt;Node4 -->
<g id="edge3" class="edge">
<title>Node3&#45;&gt;Node4</title>
<path fill="none" stroke="midnightblue" d="M207.52,-213.08C206.42,-201.82 205.26,-190.01 204.39,-181.17"/>
<polygon fill="midnightblue" stroke="midnightblue" points="204.05,-213.55 208.51,-223.16 211.02,-212.87 204.05,-213.55"/>
</g>
<!-- Node6 -->
<g id="node6" class="node">
<title>Node6</title>
<g id="a_node6"><a xlink:href="core-pb-tf_8cpp.html" target="_top" xlink:title=" ">
<polygon fill="none" stroke="black" points="315.5,-151 315.5,-181 444.5,-181 444.5,-151 315.5,-151"/>
<text text-anchor="start" x="323.5" y="-169" font-family="Helvetica,sans-Serif" font-size="10.00">seerep&#45;srv/seerep&#45;core</text>
<text text-anchor="middle" x="380" y="-158" font-family="Helvetica,sans-Serif" font-size="10.00">&#45;pb/src/core&#45;pb&#45;tf.cpp</text>
</a>
</g>
</g>
<!-- Node5&#45;&gt;Node6 -->
<g id="edge5" class="edge">
<title>Node5&#45;&gt;Node6</title>
<path fill="none" stroke="midnightblue" d="M380,-218.53C380,-205.76 380,-191.47 380,-181.18"/>
<polygon fill="midnightblue" stroke="midnightblue" points="376.5,-218.77 380,-228.77 383.5,-218.77 376.5,-218.77"/>
</g>
<!-- Node7 -->
<g id="node7" class="node">
<title>Node7</title>
<g id="a_node7"><a xlink:href="pb-tf-service_8h.html" target="_top" xlink:title=" ">
<polygon fill="none" stroke="black" points="462.5,-145.5 462.5,-186.5 601.5,-186.5 601.5,-145.5 462.5,-145.5"/>
<text text-anchor="start" x="470.5" y="-174.5" font-family="Helvetica,sans-Serif" font-size="10.00">seerep&#45;srv/seerep&#45;server</text>
<text text-anchor="start" x="470.5" y="-163.5" font-family="Helvetica,sans-Serif" font-size="10.00">/include/seerep&#45;server</text>
<text text-anchor="middle" x="532" y="-152.5" font-family="Helvetica,sans-Serif" font-size="10.00">/pb&#45;tf&#45;service.h</text>
</a>
</g>
</g>
<!-- Node5&#45;&gt;Node7 -->
<g id="edge6" class="edge">
<title>Node5&#45;&gt;Node7</title>
<path fill="none" stroke="midnightblue" d="M425.41,-224.15C447.85,-212.12 474.56,-197.8 495.63,-186.5"/>
<polygon fill="midnightblue" stroke="midnightblue" points="423.57,-221.17 416.41,-228.98 426.87,-227.34 423.57,-221.17"/>
</g>
<!-- Node8 -->
<g id="node8" class="node">
<title>Node8</title>
<g id="a_node8"><a xlink:href="server_8h.html" target="_top" xlink:title=" ">
<polygon fill="none" stroke="black" points="383.5,-67.5 383.5,-108.5 522.5,-108.5 522.5,-67.5 383.5,-67.5"/>
<text text-anchor="start" x="391.5" y="-96.5" font-family="Helvetica,sans-Serif" font-size="10.00">seerep&#45;srv/seerep&#45;server</text>
<text text-anchor="start" x="391.5" y="-85.5" font-family="Helvetica,sans-Serif" font-size="10.00">/include/seerep&#45;server</text>
<text text-anchor="middle" x="453" y="-74.5" font-family="Helvetica,sans-Serif" font-size="10.00">/server.h</text>
</a>
</g>
</g>
<!-- Node7&#45;&gt;Node8 -->
<g id="edge7" class="edge">
<title>Node7&#45;&gt;Node8</title>
<path fill="none" stroke="midnightblue" d="M504.45,-138.49C494.19,-128.63 482.76,-117.63 473.28,-108.51"/>
<polygon fill="midnightblue" stroke="midnightblue" points="502.02,-141.02 511.66,-145.43 506.88,-135.97 502.02,-141.02"/>
</g>
<!-- Node10 -->
<g id="node10" class="node">
<title>Node10</title>
<g id="a_node10"><a xlink:href="pb-tf-service_8cpp.html" target="_top" xlink:title=" ">
<polygon fill="none" stroke="black" points="540.5,-73 540.5,-103 679.5,-103 679.5,-73 540.5,-73"/>
<text text-anchor="start" x="548.5" y="-91" font-family="Helvetica,sans-Serif" font-size="10.00">seerep&#45;srv/seerep&#45;server</text>
<text text-anchor="middle" x="610" y="-80" font-family="Helvetica,sans-Serif" font-size="10.00">/src/pb&#45;tf&#45;service.cpp</text>
</a>
</g>
</g>
<!-- Node7&#45;&gt;Node10 -->
<g id="edge9" class="edge">
<title>Node7&#45;&gt;Node10</title>
<path fill="none" stroke="midnightblue" d="M559.38,-138.32C571.51,-126.51 585.28,-113.08 595.4,-103.23"/>
<polygon fill="midnightblue" stroke="midnightblue" points="556.81,-135.94 552.09,-145.43 561.69,-140.96 556.81,-135.94"/>
</g>
<!-- Node9 -->
<g id="node9" class="node">
<title>Node9</title>
<g id="a_node9"><a xlink:href="server_8cpp.html" target="_top" xlink:title=" ">
<polygon fill="none" stroke="black" points="383.5,-0.5 383.5,-30.5 522.5,-30.5 522.5,-0.5 383.5,-0.5"/>
<text text-anchor="start" x="391.5" y="-18.5" font-family="Helvetica,sans-Serif" font-size="10.00">seerep&#45;srv/seerep&#45;server</text>
<text text-anchor="middle" x="453" y="-7.5" font-family="Helvetica,sans-Serif" font-size="10.00">/src/server.cpp</text>
</a>
</g>
</g>
<!-- Node8&#45;&gt;Node9 -->
<g id="edge8" class="edge">
<title>Node8&#45;&gt;Node9</title>
<path fill="none" stroke="midnightblue" d="M453,-57.08C453,-48.01 453,-38.45 453,-30.89"/>
<polygon fill="midnightblue" stroke="midnightblue" points="449.5,-57.36 453,-67.36 456.5,-57.36 449.5,-57.36"/>
</g>
</g>
</svg>
