<?xml version="1.0" encoding="UTF-8" standalone="no"?>
<!DOCTYPE svg PUBLIC "-//W3C//DTD SVG 1.1//EN"
 "http://www.w3.org/Graphics/SVG/1.1/DTD/svg11.dtd">
<!-- Generated by graphviz version 2.43.0 (0)
 -->
<!-- Title: seerep&#45;hdf5/seerep&#45;hdf5&#45;pb/include/seerep&#45;hdf5&#45;pb/hdf5&#45;pb&#45;point&#45;cloud2&#45;iterator.h Pages: 1 -->
<svg width="465pt" height="440pt"
 viewBox="0.00 0.00 464.50 440.00" xmlns="http://www.w3.org/2000/svg" xmlns:xlink="http://www.w3.org/1999/xlink">
<g id="graph0" class="graph" transform="scale(1 1) rotate(0) translate(4 436)">
<title>seerep&#45;hdf5/seerep&#45;hdf5&#45;pb/include/seerep&#45;hdf5&#45;pb/hdf5&#45;pb&#45;point&#45;cloud2&#45;iterator.h</title>
<!-- Node1 -->
<g id="node1" class="node">
<title>Node1</title>
<g id="a_node1"><a xlink:title=" ">
<polygon fill="#bfbfbf" stroke="black" points="64,-379.5 64,-431.5 196,-431.5 196,-379.5 64,-379.5"/>
<text text-anchor="start" x="72" y="-419.5" font-family="Helvetica,sans-Serif" font-size="10.00">seerep&#45;hdf5/seerep</text>
<text text-anchor="start" x="72" y="-408.5" font-family="Helvetica,sans-Serif" font-size="10.00">&#45;hdf5&#45;pb/include/seerep</text>
<text text-anchor="start" x="72" y="-397.5" font-family="Helvetica,sans-Serif" font-size="10.00">&#45;hdf5&#45;pb/hdf5&#45;pb&#45;point</text>
<text text-anchor="middle" x="130" y="-386.5" font-family="Helvetica,sans-Serif" font-size="10.00">&#45;cloud2&#45;iterator.h</text>
</a>
</g>
</g>
<!-- Node2 -->
<g id="node2" class="node">
<title>Node2</title>
<g id="a_node2"><a xlink:href="hdf5-pb-pointcloud_8h.html" target="_top" xlink:title=" ">
<polygon fill="none" stroke="black" points="49,-301.5 49,-342.5 211,-342.5 211,-301.5 49,-301.5"/>
<text text-anchor="start" x="57" y="-330.5" font-family="Helvetica,sans-Serif" font-size="10.00">seerep&#45;hdf5/seerep</text>
<text text-anchor="start" x="57" y="-319.5" font-family="Helvetica,sans-Serif" font-size="10.00">&#45;hdf5&#45;pb/include/seerep</text>
<text text-anchor="middle" x="130" y="-308.5" font-family="Helvetica,sans-Serif" font-size="10.00">&#45;hdf5&#45;pb/hdf5&#45;pb&#45;pointcloud.h</text>
</a>
</g>
</g>
<!-- Node1&#45;&gt;Node2 -->
<g id="edge1" class="edge">
<title>Node1&#45;&gt;Node2</title>
<path fill="none" stroke="midnightblue" d="M130,-369.15C130,-360.05 130,-350.6 130,-342.63"/>
<polygon fill="midnightblue" stroke="midnightblue" points="126.5,-369.16 130,-379.16 133.5,-369.16 126.5,-369.16"/>
</g>
<!-- Node3 -->
<g id="node3" class="node">
<title>Node3</title>
<g id="a_node3"><a xlink:href="hdf5-pb-pointcloud_8cpp.html" target="_top" xlink:title=" ">
<polygon fill="none" stroke="black" points="0,-223.5 0,-264.5 116,-264.5 116,-223.5 0,-223.5"/>
<text text-anchor="start" x="8" y="-252.5" font-family="Helvetica,sans-Serif" font-size="10.00">seerep&#45;hdf5/seerep</text>
<text text-anchor="start" x="8" y="-241.5" font-family="Helvetica,sans-Serif" font-size="10.00">&#45;hdf5&#45;pb/src/hdf5&#45;pb</text>
<text text-anchor="middle" x="58" y="-230.5" font-family="Helvetica,sans-Serif" font-size="10.00">&#45;pointcloud.cpp</text>
</a>
</g>
</g>
<!-- Node2&#45;&gt;Node3 -->
<g id="edge2" class="edge">
<title>Node2&#45;&gt;Node3</title>
<path fill="none" stroke="midnightblue" d="M104.34,-293.92C95.14,-284.2 84.95,-273.45 76.48,-264.51"/>
<polygon fill="midnightblue" stroke="midnightblue" points="102.04,-296.58 111.46,-301.43 107.12,-291.76 102.04,-296.58"/>
</g>
<!-- Node4 -->
<g id="node4" class="node">
<title>Node4</title>
<g id="a_node4"><a xlink:href="core-pb-pointcloud_8h.html" target="_top" xlink:title=" ">
<polygon fill="none" stroke="black" points="134,-223.5 134,-264.5 270,-264.5 270,-223.5 134,-223.5"/>
<text text-anchor="start" x="142" y="-252.5" font-family="Helvetica,sans-Serif" font-size="10.00">seerep&#45;srv/seerep&#45;core</text>
<text text-anchor="start" x="142" y="-241.5" font-family="Helvetica,sans-Serif" font-size="10.00">&#45;pb/include/seerep&#45;core</text>
<text text-anchor="middle" x="202" y="-230.5" font-family="Helvetica,sans-Serif" font-size="10.00">&#45;pb/core&#45;pb&#45;pointcloud.h</text>
</a>
</g>
</g>
<!-- Node2&#45;&gt;Node4 -->
<g id="edge3" class="edge">
<title>Node2&#45;&gt;Node4</title>
<path fill="none" stroke="midnightblue" d="M155.66,-293.92C164.86,-284.2 175.05,-273.45 183.52,-264.51"/>
<polygon fill="midnightblue" stroke="midnightblue" points="152.88,-291.76 148.54,-301.43 157.96,-296.58 152.88,-291.76"/>
</g>
<!-- Node5 -->
<g id="node5" class="node">
<title>Node5</title>
<g id="a_node5"><a xlink:href="core-pb-pointcloud_8cpp.html" target="_top" xlink:title=" ">
<polygon fill="none" stroke="black" points="35,-151 35,-181 199,-181 199,-151 35,-151"/>
<text text-anchor="start" x="43" y="-169" font-family="Helvetica,sans-Serif" font-size="10.00">seerep&#45;srv/seerep&#45;core</text>
<text text-anchor="middle" x="117" y="-158" font-family="Helvetica,sans-Serif" font-size="10.00">&#45;pb/src/core&#45;pb&#45;pointcloud.cpp</text>
</a>
</g>
</g>
<!-- Node4&#45;&gt;Node5 -->
<g id="edge4" class="edge">
<title>Node4&#45;&gt;Node5</title>
<path fill="none" stroke="midnightblue" d="M172.54,-216.66C159.23,-204.76 144.04,-191.18 132.91,-181.23"/>
<polygon fill="midnightblue" stroke="midnightblue" points="170.32,-219.37 180.11,-223.43 174.99,-214.15 170.32,-219.37"/>
</g>
<!-- Node6 -->
<g id="node6" class="node">
<title>Node6</title>
<g id="a_node6"><a xlink:href="pb-point-cloud-service_8h.html" target="_top" xlink:title=" ">
<polygon fill="none" stroke="black" points="217.5,-145.5 217.5,-186.5 356.5,-186.5 356.5,-145.5 217.5,-145.5"/>
<text text-anchor="start" x="225.5" y="-174.5" font-family="Helvetica,sans-Serif" font-size="10.00">seerep&#45;srv/seerep&#45;server</text>
<text text-anchor="start" x="225.5" y="-163.5" font-family="Helvetica,sans-Serif" font-size="10.00">/include/seerep&#45;server</text>
<text text-anchor="middle" x="287" y="-152.5" font-family="Helvetica,sans-Serif" font-size="10.00">/pb&#45;point&#45;cloud&#45;service.h</text>
</a>
</g>
</g>
<!-- Node4&#45;&gt;Node6 -->
<g id="edge5" class="edge">
<title>Node4&#45;&gt;Node6</title>
<path fill="none" stroke="midnightblue" d="M231.65,-216.49C242.68,-206.63 254.98,-195.63 265.18,-186.51"/>
<polygon fill="midnightblue" stroke="midnightblue" points="229.01,-214.15 223.89,-223.43 233.68,-219.37 229.01,-214.15"/>
</g>
<!-- Node7 -->
<g id="node7" class="node">
<title>Node7</title>
<g id="a_node7"><a xlink:href="server_8h.html" target="_top" xlink:title=" ">
<polygon fill="none" stroke="black" points="132.5,-67.5 132.5,-108.5 271.5,-108.5 271.5,-67.5 132.5,-67.5"/>
<text text-anchor="start" x="140.5" y="-96.5" font-family="Helvetica,sans-Serif" font-size="10.00">seerep&#45;srv/seerep&#45;server</text>
<text text-anchor="start" x="140.5" y="-85.5" font-family="Helvetica,sans-Serif" font-size="10.00">/include/seerep&#45;server</text>
<text text-anchor="middle" x="202" y="-74.5" font-family="Helvetica,sans-Serif" font-size="10.00">/server.h</text>
</a>
</g>
</g>
<!-- Node6&#45;&gt;Node7 -->
<g id="edge6" class="edge">
<title>Node6&#45;&gt;Node7</title>
<path fill="none" stroke="midnightblue" d="M257.35,-138.49C246.32,-128.63 234.02,-117.63 223.82,-108.51"/>
<polygon fill="midnightblue" stroke="midnightblue" points="255.32,-141.37 265.11,-145.43 259.99,-136.15 255.32,-141.37"/>
</g>
<!-- Node9 -->
<g id="node9" class="node">
<title>Node9</title>
<g id="a_node9"><a xlink:href="pb-point-cloud-service_8cpp.html" target="_top" xlink:title=" ">
<polygon fill="none" stroke="black" points="289.5,-73 289.5,-103 456.5,-103 456.5,-73 289.5,-73"/>
<text text-anchor="start" x="297.5" y="-91" font-family="Helvetica,sans-Serif" font-size="10.00">seerep&#45;srv/seerep&#45;server</text>
<text text-anchor="middle" x="373" y="-80" font-family="Helvetica,sans-Serif" font-size="10.00">/src/pb&#45;point&#45;cloud&#45;service.cpp</text>
</a>
</g>
</g>
<!-- Node6&#45;&gt;Node9 -->
<g id="edge8" class="edge">
<title>Node6&#45;&gt;Node9</title>
<path fill="none" stroke="midnightblue" d="M316.81,-138.66C330.27,-126.76 345.64,-113.18 356.9,-103.23"/>
<polygon fill="midnightblue" stroke="midnightblue" points="314.32,-136.18 309.15,-145.43 318.96,-141.43 314.32,-136.18"/>
</g>
<!-- Node8 -->
<g id="node8" class="node">
<title>Node8</title>
<g id="a_node8"><a xlink:href="server_8cpp.html" target="_top" xlink:title=" ">
<polygon fill="none" stroke="black" points="132.5,-0.5 132.5,-30.5 271.5,-30.5 271.5,-0.5 132.5,-0.5"/>
<text text-anchor="start" x="140.5" y="-18.5" font-family="Helvetica,sans-Serif" font-size="10.00">seerep&#45;srv/seerep&#45;server</text>
<text text-anchor="middle" x="202" y="-7.5" font-family="Helvetica,sans-Serif" font-size="10.00">/src/server.cpp</text>
</a>
</g>
</g>
<!-- Node7&#45;&gt;Node8 -->
<g id="edge7" class="edge">
<title>Node7&#45;&gt;Node8</title>
<path fill="none" stroke="midnightblue" d="M202,-57.08C202,-48.01 202,-38.45 202,-30.89"/>
<polygon fill="midnightblue" stroke="midnightblue" points="198.5,-57.36 202,-67.36 205.5,-57.36 198.5,-57.36"/>
</g>
</g>
</svg>
