<?xml version="1.0" encoding="UTF-8" standalone="no"?>
<!DOCTYPE svg PUBLIC "-//W3C//DTD SVG 1.1//EN"
 "http://www.w3.org/Graphics/SVG/1.1/DTD/svg11.dtd">
<!-- Generated by graphviz version 2.43.0 (0)
 -->
<!-- Title: seerep&#45;hdf5/seerep&#45;hdf5&#45;fb/include/seerep&#45;hdf5&#45;fb/hdf5&#45;fb&#45;general.h Pages: 1 -->
<svg width="1667pt" height="184pt"
 viewBox="0.00 0.00 1667.00 184.00" xmlns="http://www.w3.org/2000/svg" xmlns:xlink="http://www.w3.org/1999/xlink">
<g id="graph0" class="graph" transform="scale(1 1) rotate(0) translate(4 180)">
<title>seerep&#45;hdf5/seerep&#45;hdf5&#45;fb/include/seerep&#45;hdf5&#45;fb/hdf5&#45;fb&#45;general.h</title>
<!-- Node1 -->
<g id="node1" class="node">
<title>Node1</title>
<g id="a_node1"><a xlink:title=" ">
<polygon fill="#bfbfbf" stroke="black" points="764.5,-134.5 764.5,-175.5 907.5,-175.5 907.5,-134.5 764.5,-134.5"/>
<text text-anchor="start" x="772.5" y="-163.5" font-family="Helvetica,sans-Serif" font-size="10.00">seerep&#45;hdf5/seerep</text>
<text text-anchor="start" x="772.5" y="-152.5" font-family="Helvetica,sans-Serif" font-size="10.00">&#45;hdf5&#45;fb/include/seerep</text>
<text text-anchor="middle" x="836" y="-141.5" font-family="Helvetica,sans-Serif" font-size="10.00">&#45;hdf5&#45;fb/hdf5&#45;fb&#45;general.h</text>
</a>
</g>
</g>
<!-- Node2 -->
<g id="node2" class="node">
<title>Node2</title>
<g id="a_node2"><a xlink:title=" ">
<polygon fill="none" stroke="#bfbfbf" points="0,-6 0,-25 110,-25 110,-6 0,-6"/>
<text text-anchor="middle" x="55" y="-13" font-family="Helvetica,sans-Serif" font-size="10.00">highfive/H5File.hpp</text>
</a>
</g>
</g>
<!-- Node1&#45;&gt;Node2 -->
<g id="edge1" class="edge">
<title>Node1&#45;&gt;Node2</title>
<path fill="none" stroke="midnightblue" d="M764.4,-146.99C678.25,-138.04 529.42,-120.92 403,-98 291.44,-77.78 161.84,-44.9 96.79,-27.74"/>
<polygon fill="midnightblue" stroke="midnightblue" points="97.48,-24.3 86.92,-25.12 95.69,-31.07 97.48,-24.3"/>
</g>
<!-- Node3 -->
<g id="node3" class="node">
<title>Node3</title>
<g id="a_node3"><a xlink:href="hdf5-core-general_8h.html" target="_top" xlink:title=" ">
<polygon fill="none" stroke="black" points="555.5,-67.5 555.5,-97.5 680.5,-97.5 680.5,-67.5 555.5,-67.5"/>
<text text-anchor="start" x="563.5" y="-85.5" font-family="Helvetica,sans-Serif" font-size="10.00">seerep&#45;hdf5&#45;core/hdf5</text>
<text text-anchor="middle" x="618" y="-74.5" font-family="Helvetica,sans-Serif" font-size="10.00">&#45;core&#45;general.h</text>
</a>
</g>
</g>
<!-- Node1&#45;&gt;Node3 -->
<g id="edge2" class="edge">
<title>Node1&#45;&gt;Node3</title>
<path fill="none" stroke="midnightblue" d="M775.56,-134.46C742.93,-123.9 703,-110.99 671.5,-100.8"/>
<polygon fill="midnightblue" stroke="midnightblue" points="672.18,-97.34 661.59,-97.6 670.03,-104 672.18,-97.34"/>
</g>
<!-- Node6 -->
<g id="node6" class="node">
<title>Node6</title>
<g id="a_node6"><a xlink:title=" ">
<polygon fill="none" stroke="#bfbfbf" points="128.5,-6 128.5,-25 241.5,-25 241.5,-6 128.5,-6"/>
<text text-anchor="middle" x="185" y="-13" font-family="Helvetica,sans-Serif" font-size="10.00">boost/geometry.hpp</text>
</a>
</g>
</g>
<!-- Node1&#45;&gt;Node6 -->
<g id="edge16" class="edge">
<title>Node1&#45;&gt;Node6</title>
<path fill="none" stroke="midnightblue" d="M764.37,-140.81C705.6,-129.84 620.28,-113.55 546,-98 432.5,-74.24 299.6,-43.47 231.08,-27.39"/>
<polygon fill="midnightblue" stroke="midnightblue" points="231.58,-23.91 221.04,-25.03 229.98,-30.72 231.58,-23.91"/>
</g>
<!-- Node7 -->
<g id="node7" class="node">
<title>Node7</title>
<g id="a_node7"><a xlink:title=" ">
<polygon fill="none" stroke="#bfbfbf" points="698,-6 698,-25 746,-25 746,-6 698,-6"/>
<text text-anchor="middle" x="722" y="-13" font-family="Helvetica,sans-Serif" font-size="10.00">mutex</text>
</a>
</g>
</g>
<!-- Node1&#45;&gt;Node7 -->
<g id="edge18" class="edge">
<title>Node1&#45;&gt;Node7</title>
<path fill="none" stroke="midnightblue" d="M812.55,-134.43C800.92,-124.17 787.05,-111.05 776,-98 758.58,-77.42 741.99,-51.01 731.91,-33.92"/>
<polygon fill="midnightblue" stroke="midnightblue" points="734.81,-31.95 726.76,-25.05 728.75,-35.46 734.81,-31.95"/>
</g>
<!-- Node8 -->
<g id="node8" class="node">
<title>Node8</title>
<g id="a_node8"><a xlink:title=" ">
<polygon fill="none" stroke="#bfbfbf" points="764,-6 764,-25 820,-25 820,-6 764,-6"/>
<text text-anchor="middle" x="792" y="-13" font-family="Helvetica,sans-Serif" font-size="10.00">optional</text>
</a>
</g>
</g>
<!-- Node1&#45;&gt;Node8 -->
<g id="edge19" class="edge">
<title>Node1&#45;&gt;Node8</title>
<path fill="none" stroke="midnightblue" d="M810.85,-134.42C800.44,-124.72 789.53,-112.08 784,-98 775.99,-77.59 780.53,-52.19 785.41,-35.23"/>
<polygon fill="midnightblue" stroke="midnightblue" points="788.83,-36.02 788.54,-25.43 782.16,-33.89 788.83,-36.02"/>
</g>
<!-- Node9 -->
<g id="node9" class="node">
<title>Node9</title>
<g id="a_node9"><a xlink:title=" ">
<polygon fill="none" stroke="#bfbfbf" points="838.5,-0.5 838.5,-30.5 983.5,-30.5 983.5,-0.5 838.5,-0.5"/>
<text text-anchor="start" x="846.5" y="-18.5" font-family="Helvetica,sans-Serif" font-size="10.00">boost/log/sources/severity</text>
<text text-anchor="middle" x="911" y="-7.5" font-family="Helvetica,sans-Serif" font-size="10.00">_logger.hpp</text>
</a>
</g>
</g>
<!-- Node1&#45;&gt;Node9 -->
<g id="edge20" class="edge">
<title>Node1&#45;&gt;Node9</title>
<path fill="none" stroke="midnightblue" d="M825.92,-134.34C817.92,-115.78 809.91,-87.76 822,-67 830.07,-53.15 843.5,-42.79 857.52,-35.18"/>
<polygon fill="midnightblue" stroke="midnightblue" points="859.39,-38.16 866.77,-30.56 856.26,-31.9 859.39,-38.16"/>
</g>
<!-- Node10 -->
<g id="node10" class="node">
<title>Node10</title>
<g id="a_node10"><a xlink:title=" ">
<polygon fill="none" stroke="#bfbfbf" points="1002,-6 1002,-25 1116,-25 1116,-6 1002,-6"/>
<text text-anchor="middle" x="1059" y="-13" font-family="Helvetica,sans-Serif" font-size="10.00">boost/log/trivial.hpp</text>
</a>
</g>
</g>
<!-- Node1&#45;&gt;Node10 -->
<g id="edge21" class="edge">
<title>Node1&#45;&gt;Node10</title>
<path fill="none" stroke="midnightblue" d="M834.74,-134.32C834.6,-114.65 837.64,-84.84 855,-67 860.5,-61.34 951.72,-40.27 1010.3,-27.2"/>
<polygon fill="midnightblue" stroke="midnightblue" points="1011.11,-30.61 1020.12,-25.02 1009.59,-23.77 1011.11,-30.61"/>
</g>
<!-- Node12 -->
<g id="node12" class="node">
<title>Node12</title>
<g id="a_node12"><a xlink:title=" ">
<polygon fill="none" stroke="#bfbfbf" points="864,-67.5 864,-97.5 1022,-97.5 1022,-67.5 864,-67.5"/>
<text text-anchor="start" x="872" y="-85.5" font-family="Helvetica,sans-Serif" font-size="10.00">seerep&#45;msgs/boundingbox2d</text>
<text text-anchor="middle" x="943" y="-74.5" font-family="Helvetica,sans-Serif" font-size="10.00">_labeled_generated.h</text>
</a>
</g>
</g>
<!-- Node1&#45;&gt;Node12 -->
<g id="edge12" class="edge">
<title>Node1&#45;&gt;Node12</title>
<path fill="none" stroke="midnightblue" d="M865.81,-134.36C880.45,-124.71 898.07,-113.11 912.77,-103.42"/>
<polygon fill="midnightblue" stroke="midnightblue" points="915.07,-106.09 921.49,-97.67 911.22,-100.25 915.07,-106.09"/>
</g>
<!-- Node13 -->
<g id="node13" class="node">
<title>Node13</title>
<g id="a_node13"><a xlink:title=" ">
<polygon fill="none" stroke="#bfbfbf" points="1040,-67.5 1040,-97.5 1186,-97.5 1186,-67.5 1040,-67.5"/>
<text text-anchor="start" x="1048" y="-85.5" font-family="Helvetica,sans-Serif" font-size="10.00">seerep&#45;msgs/boundingbox</text>
<text text-anchor="middle" x="1113" y="-74.5" font-family="Helvetica,sans-Serif" font-size="10.00">_labeled_generated.h</text>
</a>
</g>
</g>
<!-- Node1&#45;&gt;Node13 -->
<g id="edge13" class="edge">
<title>Node1&#45;&gt;Node13</title>
<path fill="none" stroke="midnightblue" d="M907.69,-135.75C951.03,-124.72 1005.84,-110.77 1047.92,-100.06"/>
<polygon fill="midnightblue" stroke="midnightblue" points="1048.96,-103.41 1057.78,-97.55 1047.23,-96.63 1048.96,-103.41"/>
</g>
<!-- Node14 -->
<g id="node14" class="node">
<title>Node14</title>
<g id="a_node14"><a xlink:title=" ">
<polygon fill="none" stroke="#bfbfbf" points="1204.5,-73 1204.5,-92 1299.5,-92 1299.5,-73 1204.5,-73"/>
<text text-anchor="middle" x="1252" y="-80" font-family="Helvetica,sans-Serif" font-size="10.00">grpcpp/grpcpp.h</text>
</a>
</g>
</g>
<!-- Node1&#45;&gt;Node14 -->
<g id="edge14" class="edge">
<title>Node1&#45;&gt;Node14</title>
<path fill="none" stroke="midnightblue" d="M907.54,-144.87C980.25,-135.11 1095.97,-118.27 1195,-98 1200.12,-96.95 1205.47,-95.74 1210.76,-94.48"/>
<polygon fill="midnightblue" stroke="midnightblue" points="1211.89,-97.8 1220.76,-92.01 1210.22,-91.01 1211.89,-97.8"/>
</g>
<!-- Node15 -->
<g id="node15" class="node">
<title>Node15</title>
<g id="a_node15"><a xlink:title=" ">
<polygon fill="none" stroke="#bfbfbf" points="1317.5,-73 1317.5,-92 1416.5,-92 1416.5,-73 1317.5,-73"/>
<text text-anchor="middle" x="1367" y="-80" font-family="Helvetica,sans-Serif" font-size="10.00">flatbuffers/grpc.h</text>
</a>
</g>
</g>
<!-- Node1&#45;&gt;Node15 -->
<g id="edge15" class="edge">
<title>Node1&#45;&gt;Node15</title>
<path fill="none" stroke="midnightblue" d="M907.74,-148.37C1000.79,-140.41 1167.88,-123.88 1309,-98 1314.49,-96.99 1320.23,-95.77 1325.87,-94.47"/>
<polygon fill="midnightblue" stroke="midnightblue" points="1326.95,-97.81 1335.85,-92.06 1325.31,-91 1326.95,-97.81"/>
</g>
<!-- Node16 -->
<g id="node16" class="node">
<title>Node16</title>
<g id="a_node16"><a xlink:title=" ">
<polygon fill="none" stroke="#bfbfbf" points="1435,-73 1435,-92 1503,-92 1503,-73 1435,-73"/>
<text text-anchor="middle" x="1469" y="-80" font-family="Helvetica,sans-Serif" font-size="10.00">filesystem</text>
</a>
</g>
</g>
<!-- Node1&#45;&gt;Node16 -->
<g id="edge17" class="edge">
<title>Node1&#45;&gt;Node16</title>
<path fill="none" stroke="midnightblue" d="M907.64,-152.51C1019.48,-148.99 1241.84,-137.24 1426,-98 1429.68,-97.22 1433.49,-96.22 1437.25,-95.11"/>
<polygon fill="midnightblue" stroke="midnightblue" points="1438.49,-98.39 1446.95,-92.02 1436.36,-91.72 1438.49,-98.39"/>
</g>
<!-- Node17 -->
<g id="node17" class="node">
<title>Node17</title>
<g id="a_node17"><a xlink:title=" ">
<polygon fill="none" stroke="#bfbfbf" points="1521,-73 1521,-92 1659,-92 1659,-73 1521,-73"/>
<text text-anchor="middle" x="1590" y="-80" font-family="Helvetica,sans-Serif" font-size="10.00">impl/hdf5&#45;fb&#45;general.hpp</text>
</a>
</g>
</g>
<!-- Node1&#45;&gt;Node17 -->
<g id="edge22" class="edge">
<title>Node1&#45;&gt;Node17</title>
<path fill="none" stroke="midnightblue" d="M907.8,-150.44C1031.55,-143.78 1292.86,-127.37 1512,-98 1520.54,-96.86 1529.56,-95.41 1538.31,-93.87"/>
<polygon fill="midnightblue" stroke="midnightblue" points="1539.22,-97.26 1548.43,-92.03 1537.97,-90.37 1539.22,-97.26"/>
</g>
<!-- Node3&#45;&gt;Node2 -->
<g id="edge3" class="edge">
<title>Node3&#45;&gt;Node2</title>
<path fill="none" stroke="midnightblue" d="M555.44,-77.63C460.61,-71.21 274.98,-56.46 119,-31 112.58,-29.95 105.84,-28.65 99.24,-27.26"/>
<polygon fill="midnightblue" stroke="midnightblue" points="99.58,-23.75 89.06,-25.03 98.08,-30.59 99.58,-23.75"/>
</g>
<!-- Node4 -->
<g id="node4" class="node">
<title>Node4</title>
<g id="a_node4"><a xlink:title=" ">
<polygon fill="none" stroke="#bfbfbf" points="260,-6 260,-25 376,-25 376,-6 260,-6"/>
<text text-anchor="middle" x="318" y="-13" font-family="Helvetica,sans-Serif" font-size="10.00">seerep&#45;msgs/aabb.h</text>
</a>
</g>
</g>
<!-- Node3&#45;&gt;Node4 -->
<g id="edge4" class="edge">
<title>Node3&#45;&gt;Node4</title>
<path fill="none" stroke="midnightblue" d="M555.48,-67.95C499.61,-55.85 418.87,-38.35 367.41,-27.21"/>
<polygon fill="midnightblue" stroke="midnightblue" points="368.04,-23.76 357.53,-25.06 366.56,-30.6 368.04,-23.76"/>
</g>
<!-- Node5 -->
<g id="node5" class="node">
<title>Node5</title>
<g id="a_node5"><a xlink:title=" ">
<polygon fill="none" stroke="#bfbfbf" points="394.5,-0.5 394.5,-30.5 513.5,-30.5 513.5,-0.5 394.5,-0.5"/>
<text text-anchor="start" x="402.5" y="-18.5" font-family="Helvetica,sans-Serif" font-size="10.00">seerep&#45;msgs/dataset</text>
<text text-anchor="middle" x="454" y="-7.5" font-family="Helvetica,sans-Serif" font-size="10.00">&#45;indexable.h</text>
</a>
</g>
</g>
<!-- Node3&#45;&gt;Node5 -->
<g id="edge5" class="edge">
<title>Node3&#45;&gt;Node5</title>
<path fill="none" stroke="midnightblue" d="M582.41,-67.4C557.91,-57.69 525.17,-44.71 498.88,-34.29"/>
<polygon fill="midnightblue" stroke="midnightblue" points="500.1,-31.01 489.52,-30.58 497.52,-37.51 500.1,-31.01"/>
</g>
<!-- Node3&#45;&gt;Node6 -->
<g id="edge6" class="edge">
<title>Node3&#45;&gt;Node6</title>
<path fill="none" stroke="midnightblue" d="M555.42,-74.43C482.18,-65.79 357.37,-49.97 251,-31 244.71,-29.88 238.11,-28.58 231.61,-27.22"/>
<polygon fill="midnightblue" stroke="midnightblue" points="232.06,-23.74 221.55,-25.07 230.6,-30.59 232.06,-23.74"/>
</g>
<!-- Node3&#45;&gt;Node7 -->
<g id="edge7" class="edge">
<title>Node3&#45;&gt;Node7</title>
<path fill="none" stroke="midnightblue" d="M640.57,-67.4C658.01,-56.5 682.03,-41.48 699.47,-30.58"/>
<polygon fill="midnightblue" stroke="midnightblue" points="701.76,-33.28 708.39,-25.01 698.05,-27.34 701.76,-33.28"/>
</g>
<!-- Node3&#45;&gt;Node8 -->
<g id="edge8" class="edge">
<title>Node3&#45;&gt;Node8</title>
<path fill="none" stroke="midnightblue" d="M656.76,-67.45C684.24,-57.43 721.95,-43.57 755,-31 756.89,-30.28 758.82,-29.54 760.78,-28.79"/>
<polygon fill="midnightblue" stroke="midnightblue" points="762.45,-31.89 770.51,-25.01 759.92,-25.37 762.45,-31.89"/>
</g>
<!-- Node3&#45;&gt;Node9 -->
<g id="edge9" class="edge">
<title>Node3&#45;&gt;Node9</title>
<path fill="none" stroke="midnightblue" d="M680.86,-67.56C726.95,-57.33 789.65,-43.42 837.97,-32.7"/>
<polygon fill="midnightblue" stroke="midnightblue" points="838.74,-36.12 847.74,-30.53 837.22,-29.28 838.74,-36.12"/>
</g>
<!-- Node3&#45;&gt;Node10 -->
<g id="edge10" class="edge">
<title>Node3&#45;&gt;Node10</title>
<path fill="none" stroke="midnightblue" d="M680.61,-74.67C755.27,-66.15 883.68,-50.34 993,-31 999.37,-29.87 1006.05,-28.56 1012.63,-27.19"/>
<polygon fill="midnightblue" stroke="midnightblue" points="1013.75,-30.53 1022.8,-25.02 1012.29,-23.69 1013.75,-30.53"/>
</g>
<!-- Node11 -->
<g id="node11" class="node">
<title>Node11</title>
<g id="a_node11"><a xlink:title=" ">
<polygon fill="none" stroke="#bfbfbf" points="531.5,-6 531.5,-25 680.5,-25 680.5,-6 531.5,-6"/>
<text text-anchor="middle" x="606" y="-13" font-family="Helvetica,sans-Serif" font-size="10.00">impl/hdf5&#45;core&#45;general.hpp</text>
</a>
</g>
</g>
<!-- Node3&#45;&gt;Node11 -->
<g id="edge11" class="edge">
<title>Node3&#45;&gt;Node11</title>
<path fill="none" stroke="midnightblue" d="M615.4,-67.4C613.65,-57.96 611.34,-45.45 609.45,-35.19"/>
<polygon fill="midnightblue" stroke="midnightblue" points="612.86,-34.39 607.61,-25.19 605.98,-35.66 612.86,-34.39"/>
</g>
</g>
</svg>
