<?xml version="1.0" encoding="UTF-8" standalone="no"?>
<!DOCTYPE svg PUBLIC "-//W3C//DTD SVG 1.1//EN"
 "http://www.w3.org/Graphics/SVG/1.1/DTD/svg11.dtd">
<!-- Generated by graphviz version 2.43.0 (0)
 -->
<!-- Title: seerep_hdf5/seerep_hdf5_pb/include/seerep_hdf5_pb/hdf5_pb_tf.h Pages: 1 -->
<svg width="441pt" height="351pt"
 viewBox="0.00 0.00 441.00 351.00" xmlns="http://www.w3.org/2000/svg" xmlns:xlink="http://www.w3.org/1999/xlink">
<g id="graph0" class="graph" transform="scale(1 1) rotate(0) translate(4 347)">
<title>seerep_hdf5/seerep_hdf5_pb/include/seerep_hdf5_pb/hdf5_pb_tf.h</title>
<!-- Node1 -->
<g id="node1" class="node">
<title>Node1</title>
<g id="a_node1"><a xlink:title=" ">
<polygon fill="#bfbfbf" stroke="black" points="64.5,-301.5 64.5,-342.5 199.5,-342.5 199.5,-301.5 64.5,-301.5"/>
<text text-anchor="start" x="72.5" y="-330.5" font-family="Helvetica,sans-Serif" font-size="10.00">seerep_hdf5/seerep</text>
<text text-anchor="start" x="72.5" y="-319.5" font-family="Helvetica,sans-Serif" font-size="10.00">_hdf5_pb/include/seerep</text>
<text text-anchor="middle" x="132" y="-308.5" font-family="Helvetica,sans-Serif" font-size="10.00">_hdf5_pb/hdf5_pb_tf.h</text>
</a>
</g>
</g>
<!-- Node2 -->
<g id="node2" class="node">
<title>Node2</title>
<g id="a_node2"><a xlink:href="hdf5__pb__tf_8cpp.html" target="_top" xlink:title=" ">
<polygon fill="none" stroke="black" points="0,-223.5 0,-264.5 120,-264.5 120,-223.5 0,-223.5"/>
<text text-anchor="start" x="8" y="-252.5" font-family="Helvetica,sans-Serif" font-size="10.00">seerep_hdf5/seerep</text>
<text text-anchor="start" x="8" y="-241.5" font-family="Helvetica,sans-Serif" font-size="10.00">_hdf5_pb/src/hdf5_pb</text>
<text text-anchor="middle" x="60" y="-230.5" font-family="Helvetica,sans-Serif" font-size="10.00">_tf.cpp</text>
</a>
</g>
</g>
<!-- Node1&#45;&gt;Node2 -->
<g id="edge1" class="edge">
<title>Node1&#45;&gt;Node2</title>
<path fill="none" stroke="midnightblue" d="M106.34,-293.92C97.14,-284.2 86.95,-273.45 78.48,-264.51"/>
<polygon fill="midnightblue" stroke="midnightblue" points="104.04,-296.58 113.46,-301.43 109.12,-291.76 104.04,-296.58"/>
</g>
<!-- Node3 -->
<g id="node3" class="node">
<title>Node3</title>
<g id="a_node3"><a xlink:href="core__pb__tf_8h.html" target="_top" xlink:title=" ">
<polygon fill="none" stroke="black" points="138,-223.5 138,-264.5 272,-264.5 272,-223.5 138,-223.5"/>
<text text-anchor="start" x="146" y="-252.5" font-family="Helvetica,sans-Serif" font-size="10.00">seerep_srv/seerep_core</text>
<text text-anchor="start" x="146" y="-241.5" font-family="Helvetica,sans-Serif" font-size="10.00">_pb/include/seerep_core</text>
<text text-anchor="middle" x="205" y="-230.5" font-family="Helvetica,sans-Serif" font-size="10.00">_pb/core_pb_tf.h</text>
</a>
</g>
</g>
<!-- Node1&#45;&gt;Node3 -->
<g id="edge2" class="edge">
<title>Node1&#45;&gt;Node3</title>
<path fill="none" stroke="midnightblue" d="M157.74,-294.2C167.14,-284.42 177.59,-273.54 186.26,-264.51"/>
<polygon fill="midnightblue" stroke="midnightblue" points="155.2,-291.79 150.8,-301.43 160.25,-296.64 155.2,-291.79"/>
</g>
<!-- Node4 -->
<g id="node4" class="node">
<title>Node4</title>
<g id="a_node4"><a xlink:href="core__pb__tf_8cpp.html" target="_top" xlink:title=" ">
<polygon fill="none" stroke="black" points="61,-151 61,-181 193,-181 193,-151 61,-151"/>
<text text-anchor="start" x="69" y="-169" font-family="Helvetica,sans-Serif" font-size="10.00">seerep_srv/seerep_core</text>
<text text-anchor="middle" x="127" y="-158" font-family="Helvetica,sans-Serif" font-size="10.00">_pb/src/core_pb_tf.cpp</text>
</a>
</g>
</g>
<!-- Node3&#45;&gt;Node4 -->
<g id="edge3" class="edge">
<title>Node3&#45;&gt;Node4</title>
<path fill="none" stroke="midnightblue" d="M177.62,-216.32C165.49,-204.51 151.72,-191.08 141.6,-181.23"/>
<polygon fill="midnightblue" stroke="midnightblue" points="175.31,-218.96 184.91,-223.43 180.19,-213.94 175.31,-218.96"/>
</g>
<!-- Node5 -->
<g id="node5" class="node">
<title>Node5</title>
<g id="a_node5"><a xlink:href="pb__tf__service_8h.html" target="_top" xlink:title=" ">
<polygon fill="none" stroke="black" points="211,-145.5 211,-186.5 353,-186.5 353,-145.5 211,-145.5"/>
<text text-anchor="start" x="219" y="-174.5" font-family="Helvetica,sans-Serif" font-size="10.00">seerep_srv/seerep_server</text>
<text text-anchor="start" x="219" y="-163.5" font-family="Helvetica,sans-Serif" font-size="10.00">/include/seerep_server</text>
<text text-anchor="middle" x="282" y="-152.5" font-family="Helvetica,sans-Serif" font-size="10.00">/pb_tf_service.h</text>
</a>
</g>
</g>
<!-- Node3&#45;&gt;Node5 -->
<g id="edge4" class="edge">
<title>Node3&#45;&gt;Node5</title>
<path fill="none" stroke="midnightblue" d="M232.15,-216.2C242.07,-206.42 253.09,-195.54 262.24,-186.51"/>
<polygon fill="midnightblue" stroke="midnightblue" points="229.49,-213.91 224.83,-223.43 234.41,-218.89 229.49,-213.91"/>
</g>
<!-- Node6 -->
<g id="node6" class="node">
<title>Node6</title>
<g id="a_node6"><a xlink:href="server_8h.html" target="_top" xlink:title=" ">
<polygon fill="none" stroke="black" points="131,-67.5 131,-108.5 273,-108.5 273,-67.5 131,-67.5"/>
<text text-anchor="start" x="139" y="-96.5" font-family="Helvetica,sans-Serif" font-size="10.00">seerep_srv/seerep_server</text>
<text text-anchor="start" x="139" y="-85.5" font-family="Helvetica,sans-Serif" font-size="10.00">/include/seerep_server</text>
<text text-anchor="middle" x="202" y="-74.5" font-family="Helvetica,sans-Serif" font-size="10.00">/server.h</text>
</a>
</g>
</g>
<!-- Node5&#45;&gt;Node6 -->
<g id="edge5" class="edge">
<title>Node5&#45;&gt;Node6</title>
<path fill="none" stroke="midnightblue" d="M254.1,-138.49C243.72,-128.63 232.13,-117.63 222.53,-108.51"/>
<polygon fill="midnightblue" stroke="midnightblue" points="251.74,-141.08 261.4,-145.43 256.56,-136 251.74,-141.08"/>
</g>
<!-- Node8 -->
<g id="node8" class="node">
<title>Node8</title>
<g id="a_node8"><a xlink:href="pb__tf__service_8cpp.html" target="_top" xlink:title=" ">
<polygon fill="none" stroke="black" points="291,-73 291,-103 433,-103 433,-73 291,-73"/>
<text text-anchor="start" x="299" y="-91" font-family="Helvetica,sans-Serif" font-size="10.00">seerep_srv/seerep_server</text>
<text text-anchor="middle" x="362" y="-80" font-family="Helvetica,sans-Serif" font-size="10.00">/src/pb_tf_service.cpp</text>
</a>
</g>
</g>
<!-- Node5&#45;&gt;Node8 -->
<g id="edge7" class="edge">
<title>Node5&#45;&gt;Node8</title>
<path fill="none" stroke="midnightblue" d="M310.08,-138.32C322.52,-126.51 336.65,-113.08 347.03,-103.23"/>
<polygon fill="midnightblue" stroke="midnightblue" points="307.44,-136 302.6,-145.43 312.26,-141.08 307.44,-136"/>
</g>
<!-- Node7 -->
<g id="node7" class="node">
<title>Node7</title>
<g id="a_node7"><a xlink:href="server_8cpp.html" target="_top" xlink:title=" ">
<polygon fill="none" stroke="black" points="131,-0.5 131,-30.5 273,-30.5 273,-0.5 131,-0.5"/>
<text text-anchor="start" x="139" y="-18.5" font-family="Helvetica,sans-Serif" font-size="10.00">seerep_srv/seerep_server</text>
<text text-anchor="middle" x="202" y="-7.5" font-family="Helvetica,sans-Serif" font-size="10.00">/src/server.cpp</text>
</a>
</g>
</g>
<!-- Node6&#45;&gt;Node7 -->
<g id="edge6" class="edge">
<title>Node6&#45;&gt;Node7</title>
<path fill="none" stroke="midnightblue" d="M202,-57.08C202,-48.01 202,-38.45 202,-30.89"/>
<polygon fill="midnightblue" stroke="midnightblue" points="198.5,-57.36 202,-67.36 205.5,-57.36 198.5,-57.36"/>
</g>
</g>
</svg>
