<?xml version="1.0" encoding="UTF-8" standalone="no"?>
<!DOCTYPE svg PUBLIC "-//W3C//DTD SVG 1.1//EN"
 "http://www.w3.org/Graphics/SVG/1.1/DTD/svg11.dtd">
<!-- Generated by graphviz version 2.43.0 (0)
 -->
<!-- Title: seerep_hdf5/seerep_hdf5_core/src/hdf5_core_image.cpp Pages: 1 -->
<svg width="2451pt" height="374pt"
 viewBox="0.00 0.00 2451.00 374.00" xmlns="http://www.w3.org/2000/svg" xmlns:xlink="http://www.w3.org/1999/xlink">
<g id="graph0" class="graph" transform="scale(1 1) rotate(0) translate(4 370)">
<title>seerep_hdf5/seerep_hdf5_core/src/hdf5_core_image.cpp</title>
<!-- Node1 -->
<g id="node1" class="node">
<title>Node1</title>
<g id="a_node1"><a xlink:title=" ">
<polygon fill="#bfbfbf" stroke="black" points="523,-324.5 523,-365.5 636,-365.5 636,-324.5 523,-324.5"/>
<text text-anchor="start" x="531" y="-353.5" font-family="Helvetica,sans-Serif" font-size="10.00">seerep_hdf5/seerep</text>
<text text-anchor="start" x="531" y="-342.5" font-family="Helvetica,sans-Serif" font-size="10.00">_hdf5_core/src/hdf5</text>
<text text-anchor="middle" x="579.5" y="-331.5" font-family="Helvetica,sans-Serif" font-size="10.00">_core_image.cpp</text>
</a>
</g>
</g>
<!-- Node2 -->
<g id="node2" class="node">
<title>Node2</title>
<g id="a_node2"><a xlink:href="hdf5__core__image_8h.html" target="_top" xlink:title=" ">
<polygon fill="none" stroke="black" points="1004.5,-257.5 1004.5,-287.5 1132.5,-287.5 1132.5,-257.5 1004.5,-257.5"/>
<text text-anchor="start" x="1012.5" y="-275.5" font-family="Helvetica,sans-Serif" font-size="10.00">seerep_hdf5_core/hdf5</text>
<text text-anchor="middle" x="1068.5" y="-264.5" font-family="Helvetica,sans-Serif" font-size="10.00">_core_image.h</text>
</a>
</g>
</g>
<!-- Node1&#45;&gt;Node2 -->
<g id="edge1" class="edge">
<title>Node1&#45;&gt;Node2</title>
<path fill="none" stroke="midnightblue" d="M636.07,-335.84C724.58,-323.08 895.81,-298.4 994.17,-284.22"/>
<polygon fill="midnightblue" stroke="midnightblue" points="994.93,-287.64 1004.33,-282.75 993.93,-280.71 994.93,-287.64"/>
</g>
<!-- Node5 -->
<g id="node5" class="node">
<title>Node5</title>
<g id="a_node5"><a xlink:title=" ">
<polygon fill="none" stroke="#bfbfbf" points="2.5,-140 2.5,-159 134.5,-159 134.5,-140 2.5,-140"/>
<text text-anchor="middle" x="68.5" y="-147" font-family="Helvetica,sans-Serif" font-size="10.00">highfive/H5DataSet.hpp</text>
</a>
</g>
</g>
<!-- Node1&#45;&gt;Node5 -->
<g id="edge45" class="edge">
<title>Node1&#45;&gt;Node5</title>
<path fill="none" stroke="midnightblue" d="M522.71,-325.85C452.51,-303.04 329.66,-261.9 226.5,-221 179.89,-202.52 126.88,-178.16 95.64,-163.45"/>
<polygon fill="midnightblue" stroke="midnightblue" points="96.83,-160.14 86.3,-159.03 93.84,-166.47 96.83,-160.14"/>
</g>
<!-- Node3 -->
<g id="node3" class="node">
<title>Node3</title>
<g id="a_node3"><a xlink:title=" ">
<polygon fill="none" stroke="#bfbfbf" points="315.5,-67.5 315.5,-86.5 425.5,-86.5 425.5,-67.5 315.5,-67.5"/>
<text text-anchor="middle" x="370.5" y="-74.5" font-family="Helvetica,sans-Serif" font-size="10.00">highfive/H5File.hpp</text>
</a>
</g>
</g>
<!-- Node2&#45;&gt;Node3 -->
<g id="edge2" class="edge">
<title>Node2&#45;&gt;Node3</title>
<path fill="none" stroke="midnightblue" d="M1004.27,-264.12C942.47,-256.24 846.69,-241.98 765.5,-221 693.37,-202.36 675.86,-194.61 607.5,-165 579.96,-153.07 575.24,-145.46 547.5,-134 544.16,-132.62 458.45,-105.63 407.55,-89.64"/>
<polygon fill="midnightblue" stroke="midnightblue" points="408.46,-86.25 397.87,-86.59 406.36,-92.93 408.46,-86.25"/>
</g>
<!-- Node4 -->
<g id="node4" class="node">
<title>Node4</title>
<g id="a_node4"><a xlink:href="hdf5__core__cameraintrinsics_8h.html" target="_top" xlink:title=" ">
<polygon fill="none" stroke="black" points="381.5,-201.5 381.5,-220.5 541.5,-220.5 541.5,-201.5 381.5,-201.5"/>
<text text-anchor="middle" x="461.5" y="-208.5" font-family="Helvetica,sans-Serif" font-size="10.00">hdf5_core_cameraintrinsics.h</text>
</a>
</g>
</g>
<!-- Node2&#45;&gt;Node4 -->
<g id="edge3" class="edge">
<title>Node2&#45;&gt;Node4</title>
<path fill="none" stroke="midnightblue" d="M1004.4,-265.22C895.91,-254.58 675.83,-233.01 551.78,-220.85"/>
<polygon fill="midnightblue" stroke="midnightblue" points="551.84,-217.34 541.55,-219.85 551.16,-224.31 551.84,-217.34"/>
</g>
<!-- Node6 -->
<g id="node6" class="node">
<title>Node6</title>
<g id="a_node6"><a xlink:href="hdf5__core__general_8h.html" target="_top" xlink:title=" ">
<polygon fill="none" stroke="black" points="1118.5,-134.5 1118.5,-164.5 1246.5,-164.5 1246.5,-134.5 1118.5,-134.5"/>
<text text-anchor="start" x="1126.5" y="-152.5" font-family="Helvetica,sans-Serif" font-size="10.00">seerep_hdf5_core/hdf5</text>
<text text-anchor="middle" x="1182.5" y="-141.5" font-family="Helvetica,sans-Serif" font-size="10.00">_core_general.h</text>
</a>
</g>
</g>
<!-- Node2&#45;&gt;Node6 -->
<g id="edge35" class="edge">
<title>Node2&#45;&gt;Node6</title>
<path fill="none" stroke="midnightblue" d="M1082.02,-257.14C1101.82,-236.13 1138.85,-196.83 1162,-172.26"/>
<polygon fill="midnightblue" stroke="midnightblue" points="1164.68,-174.52 1168.99,-164.84 1159.59,-169.72 1164.68,-174.52"/>
</g>
<!-- Node8 -->
<g id="node8" class="node">
<title>Node8</title>
<g id="a_node8"><a xlink:title=" ">
<polygon fill="none" stroke="#bfbfbf" points="444,-62 444,-92 565,-92 565,-62 444,-62"/>
<text text-anchor="start" x="452" y="-80" font-family="Helvetica,sans-Serif" font-size="10.00">seerep_msgs/dataset</text>
<text text-anchor="middle" x="504.5" y="-69" font-family="Helvetica,sans-Serif" font-size="10.00">_indexable.h</text>
</a>
</g>
</g>
<!-- Node2&#45;&gt;Node8 -->
<g id="edge36" class="edge">
<title>Node2&#45;&gt;Node8</title>
<path fill="none" stroke="midnightblue" d="M1039.58,-257.37C982.96,-230.19 853.04,-170.11 738.5,-134 667.33,-111.56 646.86,-116.26 574.5,-98 570.43,-96.97 566.24,-95.88 562.03,-94.75"/>
<polygon fill="midnightblue" stroke="midnightblue" points="562.78,-91.32 552.21,-92.06 560.94,-98.08 562.78,-91.32"/>
</g>
<!-- Node10 -->
<g id="node10" class="node">
<title>Node10</title>
<g id="a_node10"><a xlink:title=" ">
<polygon fill="none" stroke="#bfbfbf" points="1557.5,-56.5 1557.5,-97.5 1673.5,-97.5 1673.5,-56.5 1557.5,-56.5"/>
<text text-anchor="start" x="1565.5" y="-85.5" font-family="Helvetica,sans-Serif" font-size="10.00">seerep_msgs/labels</text>
<text text-anchor="start" x="1565.5" y="-74.5" font-family="Helvetica,sans-Serif" font-size="10.00">_with_instance_with</text>
<text text-anchor="middle" x="1615.5" y="-63.5" font-family="Helvetica,sans-Serif" font-size="10.00">_category.h</text>
</a>
</g>
</g>
<!-- Node2&#45;&gt;Node10 -->
<g id="edge37" class="edge">
<title>Node2&#45;&gt;Node10</title>
<path fill="none" stroke="midnightblue" d="M1108.28,-257.43C1201.68,-224.39 1435.76,-141.58 1550.31,-101.06"/>
<polygon fill="midnightblue" stroke="midnightblue" points="1551.75,-104.26 1560.01,-97.63 1549.41,-97.66 1551.75,-104.26"/>
</g>
<!-- Node11 -->
<g id="node11" class="node">
<title>Node11</title>
<g id="a_node11"><a xlink:title=" ">
<polygon fill="none" stroke="#bfbfbf" points="1692,-67.5 1692,-86.5 1805,-86.5 1805,-67.5 1692,-67.5"/>
<text text-anchor="middle" x="1748.5" y="-74.5" font-family="Helvetica,sans-Serif" font-size="10.00">boost/geometry.hpp</text>
</a>
</g>
</g>
<!-- Node2&#45;&gt;Node11 -->
<g id="edge38" class="edge">
<title>Node2&#45;&gt;Node11</title>
<path fill="none" stroke="midnightblue" d="M1120.78,-257.42C1157.86,-247.39 1208.77,-233.52 1253.5,-221 1444.51,-167.55 1492.25,-154.1 1682.5,-98 1691.69,-95.29 1701.59,-92.32 1710.85,-89.52"/>
<polygon fill="midnightblue" stroke="midnightblue" points="1712.04,-92.81 1720.59,-86.56 1710,-86.12 1712.04,-92.81"/>
</g>
<!-- Node13 -->
<g id="node13" class="node">
<title>Node13</title>
<g id="a_node13"><a xlink:title=" ">
<polygon fill="none" stroke="#bfbfbf" points="583.5,-67.5 583.5,-86.5 639.5,-86.5 639.5,-67.5 583.5,-67.5"/>
<text text-anchor="middle" x="611.5" y="-74.5" font-family="Helvetica,sans-Serif" font-size="10.00">optional</text>
</a>
</g>
</g>
<!-- Node2&#45;&gt;Node13 -->
<g id="edge39" class="edge">
<title>Node2&#45;&gt;Node13</title>
<path fill="none" stroke="midnightblue" d="M1051.02,-257.42C1015.07,-229.23 929.22,-165.82 846.5,-134 763.02,-101.89 732.89,-127.63 648.5,-98 643.67,-96.3 638.72,-94.04 634.06,-91.64"/>
<polygon fill="midnightblue" stroke="midnightblue" points="635.52,-88.45 625.08,-86.68 632.14,-94.58 635.52,-88.45"/>
</g>
<!-- Node17 -->
<g id="node17" class="node">
<title>Node17</title>
<g id="a_node17"><a xlink:title=" ">
<polygon fill="none" stroke="#bfbfbf" points="1823,-67.5 1823,-86.5 1966,-86.5 1966,-67.5 1823,-67.5"/>
<text text-anchor="middle" x="1894.5" y="-74.5" font-family="Helvetica,sans-Serif" font-size="10.00">boost/functional/hash.hpp</text>
</a>
</g>
</g>
<!-- Node2&#45;&gt;Node17 -->
<g id="edge40" class="edge">
<title>Node2&#45;&gt;Node17</title>
<path fill="none" stroke="midnightblue" d="M1132.87,-257.94C1179.7,-247.99 1244.6,-233.99 1301.5,-221 1530.08,-168.83 1586.77,-153.77 1814.5,-98 1826.22,-95.13 1838.9,-91.98 1850.63,-89.05"/>
<polygon fill="midnightblue" stroke="midnightblue" points="1851.8,-92.36 1860.65,-86.54 1850.1,-85.57 1851.8,-92.36"/>
</g>
<!-- Node18 -->
<g id="node18" class="node">
<title>Node18</title>
<g id="a_node18"><a xlink:title=" ">
<polygon fill="none" stroke="#bfbfbf" points="1984,-67.5 1984,-86.5 2109,-86.5 2109,-67.5 1984,-67.5"/>
<text text-anchor="middle" x="2046.5" y="-74.5" font-family="Helvetica,sans-Serif" font-size="10.00">boost/lexical_cast.hpp</text>
</a>
</g>
</g>
<!-- Node2&#45;&gt;Node18 -->
<g id="edge41" class="edge">
<title>Node2&#45;&gt;Node18</title>
<path fill="none" stroke="midnightblue" d="M1132.63,-260.68C1191.05,-250.73 1279.66,-235.37 1356.5,-221 1632.21,-169.44 1702.74,-163.41 1975.5,-98 1986.16,-95.44 1997.64,-92.36 2008.19,-89.39"/>
<polygon fill="midnightblue" stroke="midnightblue" points="2009.31,-92.71 2017.96,-86.59 2007.38,-85.98 2009.31,-92.71"/>
</g>
<!-- Node19 -->
<g id="node19" class="node">
<title>Node19</title>
<g id="a_node19"><a xlink:title=" ">
<polygon fill="none" stroke="#bfbfbf" points="184,-67.5 184,-86.5 297,-86.5 297,-67.5 184,-67.5"/>
<text text-anchor="middle" x="240.5" y="-74.5" font-family="Helvetica,sans-Serif" font-size="10.00">boost/uuid/uuid.hpp</text>
</a>
</g>
</g>
<!-- Node2&#45;&gt;Node19 -->
<g id="edge42" class="edge">
<title>Node2&#45;&gt;Node19</title>
<path fill="none" stroke="midnightblue" d="M1004.42,-270C855.65,-266.03 490.55,-253.2 372.5,-221 318.42,-206.25 293.99,-209.18 259.5,-165 244.14,-145.33 240.6,-115.88 240.08,-96.8"/>
<polygon fill="midnightblue" stroke="midnightblue" points="243.58,-96.67 240.06,-86.68 236.58,-96.68 243.58,-96.67"/>
</g>
<!-- Node20 -->
<g id="node20" class="node">
<title>Node20</title>
<g id="a_node20"><a xlink:title=" ">
<polygon fill="none" stroke="#bfbfbf" points="2127.5,-67.5 2127.5,-86.5 2297.5,-86.5 2297.5,-67.5 2127.5,-67.5"/>
<text text-anchor="middle" x="2212.5" y="-74.5" font-family="Helvetica,sans-Serif" font-size="10.00">boost/uuid/uuid_generators.hpp</text>
</a>
</g>
</g>
<!-- Node2&#45;&gt;Node20 -->
<g id="edge43" class="edge">
<title>Node2&#45;&gt;Node20</title>
<path fill="none" stroke="midnightblue" d="M1132.71,-262.88C1203.87,-253.21 1322.01,-236.8 1423.5,-221 1733.45,-172.74 1810.81,-159.04 2118.5,-98 2133.26,-95.07 2149.29,-91.72 2163.86,-88.62"/>
<polygon fill="midnightblue" stroke="midnightblue" points="2164.63,-92.03 2173.68,-86.51 2163.16,-85.19 2164.63,-92.03"/>
</g>
<!-- Node21 -->
<g id="node21" class="node">
<title>Node21</title>
<g id="a_node21"><a xlink:title=" ">
<polygon fill="none" stroke="#bfbfbf" points="2316,-67.5 2316,-86.5 2443,-86.5 2443,-67.5 2316,-67.5"/>
<text text-anchor="middle" x="2379.5" y="-74.5" font-family="Helvetica,sans-Serif" font-size="10.00">boost/uuid/uuid_io.hpp</text>
</a>
</g>
</g>
<!-- Node2&#45;&gt;Node21 -->
<g id="edge44" class="edge">
<title>Node2&#45;&gt;Node21</title>
<path fill="none" stroke="midnightblue" d="M1132.76,-264.59C1216.56,-255.43 1367.67,-238.38 1496.5,-221 1857.36,-172.33 1950.3,-173.57 2306.5,-98 2317.92,-95.58 2330.2,-92.43 2341.37,-89.35"/>
<polygon fill="midnightblue" stroke="midnightblue" points="2342.58,-92.64 2351.26,-86.56 2340.69,-85.91 2342.58,-92.64"/>
</g>
<!-- Node29 -->
<g id="node29" class="node">
<title>Node29</title>
<g id="a_node29"><a xlink:href="hdf5__core__datatype__interface_8h.html" target="_top" xlink:title=" ">
<polygon fill="none" stroke="black" points="617,-134.5 617,-164.5 730,-164.5 730,-134.5 617,-134.5"/>
<text text-anchor="start" x="625" y="-152.5" font-family="Helvetica,sans-Serif" font-size="10.00">hdf5_core_datatype</text>
<text text-anchor="middle" x="673.5" y="-141.5" font-family="Helvetica,sans-Serif" font-size="10.00">_interface.h</text>
</a>
</g>
</g>
<!-- Node2&#45;&gt;Node29 -->
<g id="edge31" class="edge">
<title>Node2&#45;&gt;Node29</title>
<path fill="none" stroke="midnightblue" d="M1004.4,-263.13C953.19,-255.35 880.06,-241.81 818.5,-221 778.42,-207.45 735.12,-185.33 706.38,-169.48"/>
<polygon fill="midnightblue" stroke="midnightblue" points="708.02,-166.38 697.58,-164.57 704.61,-172.5 708.02,-166.38"/>
</g>
<!-- Node4&#45;&gt;Node3 -->
<g id="edge5" class="edge">
<title>Node4&#45;&gt;Node3</title>
<path fill="none" stroke="midnightblue" d="M485.29,-201.5C501.22,-194.41 520.96,-182.61 530.5,-165 537.06,-152.89 538.47,-145.24 530.5,-134 526.77,-128.74 453.25,-104.47 407.18,-89.66"/>
<polygon fill="midnightblue" stroke="midnightblue" points="408.11,-86.28 397.52,-86.56 405.98,-92.95 408.11,-86.28"/>
</g>
<!-- Node4&#45;&gt;Node5 -->
<g id="edge4" class="edge">
<title>Node4&#45;&gt;Node5</title>
<path fill="none" stroke="midnightblue" d="M394.35,-201.5C329.88,-193.1 229.84,-179.45 143.5,-165 136.04,-163.75 128.19,-162.34 120.48,-160.9"/>
<polygon fill="midnightblue" stroke="midnightblue" points="120.96,-157.43 110.48,-159 119.65,-164.31 120.96,-157.43"/>
</g>
<!-- Node4&#45;&gt;Node6 -->
<g id="edge6" class="edge">
<title>Node4&#45;&gt;Node6</title>
<path fill="none" stroke="midnightblue" d="M541.76,-203.38C682.44,-191.77 971.54,-167.91 1108.03,-156.65"/>
<polygon fill="midnightblue" stroke="midnightblue" points="1108.7,-160.1 1118.38,-155.79 1108.13,-153.13 1108.7,-160.1"/>
</g>
<!-- Node23 -->
<g id="node23" class="node">
<title>Node23</title>
<g id="a_node23"><a xlink:href="header_8h.html" target="_top" xlink:title=" ">
<polygon fill="none" stroke="black" points="153,-140 153,-159 212,-159 212,-140 153,-140"/>
<text text-anchor="middle" x="182.5" y="-147" font-family="Helvetica,sans-Serif" font-size="10.00">header.h</text>
</a>
</g>
</g>
<!-- Node4&#45;&gt;Node23 -->
<g id="edge24" class="edge">
<title>Node4&#45;&gt;Node23</title>
<path fill="none" stroke="midnightblue" d="M421.53,-201.48C368.41,-190.15 275.14,-170.26 222.17,-158.96"/>
<polygon fill="midnightblue" stroke="midnightblue" points="222.65,-155.48 212.14,-156.82 221.19,-162.33 222.65,-155.48"/>
</g>
<!-- Node27 -->
<g id="node27" class="node">
<title>Node27</title>
<g id="a_node27"><a xlink:href="region__of__interest_8h.html" target="_top" xlink:title=" ">
<polygon fill="none" stroke="black" points="268.5,-140 268.5,-159 382.5,-159 382.5,-140 268.5,-140"/>
<text text-anchor="middle" x="325.5" y="-147" font-family="Helvetica,sans-Serif" font-size="10.00">region_of_interest.h</text>
</a>
</g>
</g>
<!-- Node4&#45;&gt;Node27 -->
<g id="edge29" class="edge">
<title>Node4&#45;&gt;Node27</title>
<path fill="none" stroke="midnightblue" d="M442.01,-201.48C419.09,-191.45 380.81,-174.7 354.42,-163.15"/>
<polygon fill="midnightblue" stroke="midnightblue" points="355.51,-159.81 344.95,-159.01 352.71,-166.22 355.51,-159.81"/>
</g>
<!-- Node28 -->
<g id="node28" class="node">
<title>Node28</title>
<g id="a_node28"><a xlink:title=" ">
<polygon fill="none" stroke="#bfbfbf" points="401,-134.5 401,-164.5 522,-164.5 522,-134.5 401,-134.5"/>
<text text-anchor="start" x="409" y="-152.5" font-family="Helvetica,sans-Serif" font-size="10.00">seerep_msgs/camera</text>
<text text-anchor="middle" x="461.5" y="-141.5" font-family="Helvetica,sans-Serif" font-size="10.00">_intrinsics.h</text>
</a>
</g>
</g>
<!-- Node4&#45;&gt;Node28 -->
<g id="edge30" class="edge">
<title>Node4&#45;&gt;Node28</title>
<path fill="none" stroke="midnightblue" d="M461.5,-201.48C461.5,-194.47 461.5,-184.19 461.5,-174.7"/>
<polygon fill="midnightblue" stroke="midnightblue" points="465,-174.52 461.5,-164.52 458,-174.52 465,-174.52"/>
</g>
<!-- Node6&#45;&gt;Node3 -->
<g id="edge7" class="edge">
<title>Node6&#45;&gt;Node3</title>
<path fill="none" stroke="midnightblue" d="M1118.32,-146.11C962.01,-139.98 564.91,-122.43 434.5,-98 424.03,-96.04 412.87,-92.92 402.85,-89.73"/>
<polygon fill="midnightblue" stroke="midnightblue" points="403.87,-86.38 393.27,-86.55 401.66,-93.03 403.87,-86.38"/>
</g>
<!-- Node7 -->
<g id="node7" class="node">
<title>Node7</title>
<g id="a_node7"><a xlink:title=" ">
<polygon fill="none" stroke="#bfbfbf" points="1124,-67.5 1124,-86.5 1241,-86.5 1241,-67.5 1124,-67.5"/>
<text text-anchor="middle" x="1182.5" y="-74.5" font-family="Helvetica,sans-Serif" font-size="10.00">seerep_msgs/aabb.h</text>
</a>
</g>
</g>
<!-- Node6&#45;&gt;Node7 -->
<g id="edge8" class="edge">
<title>Node6&#45;&gt;Node7</title>
<path fill="none" stroke="midnightblue" d="M1182.5,-134.23C1182.5,-123.5 1182.5,-108.69 1182.5,-96.96"/>
<polygon fill="midnightblue" stroke="midnightblue" points="1186,-96.89 1182.5,-86.89 1179,-96.89 1186,-96.89"/>
</g>
<!-- Node6&#45;&gt;Node8 -->
<g id="edge9" class="edge">
<title>Node6&#45;&gt;Node8</title>
<path fill="none" stroke="midnightblue" d="M1118.06,-147.27C1006.46,-144.23 770.39,-133.76 574.5,-98 569.22,-97.04 563.76,-95.84 558.33,-94.52"/>
<polygon fill="midnightblue" stroke="midnightblue" points="559.18,-91.12 548.63,-92.02 557.44,-97.9 559.18,-91.12"/>
</g>
<!-- Node9 -->
<g id="node9" class="node">
<title>Node9</title>
<g id="a_node9"><a xlink:title=" ">
<polygon fill="none" stroke="#bfbfbf" points="1259.5,-62 1259.5,-92 1385.5,-92 1385.5,-62 1259.5,-62"/>
<text text-anchor="start" x="1267.5" y="-80" font-family="Helvetica,sans-Serif" font-size="10.00">seerep_msgs/geodetic</text>
<text text-anchor="middle" x="1322.5" y="-69" font-family="Helvetica,sans-Serif" font-size="10.00">_coordinates.h</text>
</a>
</g>
</g>
<!-- Node6&#45;&gt;Node9 -->
<g id="edge10" class="edge">
<title>Node6&#45;&gt;Node9</title>
<path fill="none" stroke="midnightblue" d="M1210.49,-134.4C1232.05,-123.55 1262.04,-108.45 1285.56,-96.6"/>
<polygon fill="midnightblue" stroke="midnightblue" points="1287.2,-99.7 1294.55,-92.07 1284.05,-93.44 1287.2,-99.7"/>
</g>
<!-- Node6&#45;&gt;Node10 -->
<g id="edge11" class="edge">
<title>Node6&#45;&gt;Node10</title>
<path fill="none" stroke="midnightblue" d="M1246.82,-142.63C1318.18,-135.45 1436.77,-121.52 1547.2,-98.13"/>
<polygon fill="midnightblue" stroke="midnightblue" points="1548.13,-101.51 1557.17,-95.98 1546.66,-94.66 1548.13,-101.51"/>
</g>
<!-- Node6&#45;&gt;Node11 -->
<g id="edge12" class="edge">
<title>Node6&#45;&gt;Node11</title>
<path fill="none" stroke="midnightblue" d="M1246.62,-145.99C1342.33,-141.36 1527.86,-128.94 1682.5,-98 1693.07,-95.89 1704.36,-92.79 1714.56,-89.66"/>
<polygon fill="midnightblue" stroke="midnightblue" points="1715.87,-92.91 1724.34,-86.55 1713.75,-86.24 1715.87,-92.91"/>
</g>
<!-- Node12 -->
<g id="node12" class="node">
<title>Node12</title>
<g id="a_node12"><a xlink:title=" ">
<polygon fill="none" stroke="#bfbfbf" points="1403.5,-67.5 1403.5,-86.5 1451.5,-86.5 1451.5,-67.5 1403.5,-67.5"/>
<text text-anchor="middle" x="1427.5" y="-74.5" font-family="Helvetica,sans-Serif" font-size="10.00">mutex</text>
</a>
</g>
</g>
<!-- Node6&#45;&gt;Node12 -->
<g id="edge13" class="edge">
<title>Node6&#45;&gt;Node12</title>
<path fill="none" stroke="midnightblue" d="M1246.72,-138.58C1289.62,-130.66 1346.72,-117.6 1394.5,-98 1398.61,-96.31 1402.81,-94.15 1406.78,-91.89"/>
<polygon fill="midnightblue" stroke="midnightblue" points="1408.76,-94.77 1415.45,-86.55 1405.09,-88.81 1408.76,-94.77"/>
</g>
<!-- Node6&#45;&gt;Node13 -->
<g id="edge14" class="edge">
<title>Node6&#45;&gt;Node13</title>
<path fill="none" stroke="midnightblue" d="M1118.21,-142.3C1091.4,-139.72 1059.95,-136.7 1031.5,-134 861.29,-117.83 812.1,-147.65 648.5,-98 643.31,-96.42 638.01,-94.08 633.1,-91.54"/>
<polygon fill="midnightblue" stroke="midnightblue" points="634.72,-88.43 624.29,-86.58 631.29,-94.53 634.72,-88.43"/>
</g>
<!-- Node14 -->
<g id="node14" class="node">
<title>Node14</title>
<g id="a_node14"><a xlink:title=" ">
<polygon fill="none" stroke="#bfbfbf" points="1470,-67.5 1470,-86.5 1539,-86.5 1539,-67.5 1470,-67.5"/>
<text text-anchor="middle" x="1504.5" y="-74.5" font-family="Helvetica,sans-Serif" font-size="10.00">type_traits</text>
</a>
</g>
</g>
<!-- Node6&#45;&gt;Node14 -->
<g id="edge15" class="edge">
<title>Node6&#45;&gt;Node14</title>
<path fill="none" stroke="midnightblue" d="M1246.51,-141.43C1303.56,-134.07 1388.87,-120.41 1460.5,-98 1466.55,-96.11 1472.87,-93.59 1478.76,-90.98"/>
<polygon fill="midnightblue" stroke="midnightblue" points="1480.58,-93.99 1488.17,-86.59 1477.62,-87.65 1480.58,-93.99"/>
</g>
<!-- Node15 -->
<g id="node15" class="node">
<title>Node15</title>
<g id="a_node15"><a xlink:title=" ">
<polygon fill="none" stroke="#bfbfbf" points="658,-62 658,-92 803,-92 803,-62 658,-62"/>
<text text-anchor="start" x="666" y="-80" font-family="Helvetica,sans-Serif" font-size="10.00">boost/log/sources/severity</text>
<text text-anchor="middle" x="730.5" y="-69" font-family="Helvetica,sans-Serif" font-size="10.00">_logger.hpp</text>
</a>
</g>
</g>
<!-- Node6&#45;&gt;Node15 -->
<g id="edge16" class="edge">
<title>Node6&#45;&gt;Node15</title>
<path fill="none" stroke="midnightblue" d="M1118.34,-141.79C1044.29,-133.56 919.03,-118.21 812.5,-98 806.69,-96.9 800.67,-95.65 794.66,-94.32"/>
<polygon fill="midnightblue" stroke="midnightblue" points="795.11,-90.83 784.58,-92.03 793.56,-97.66 795.11,-90.83"/>
</g>
<!-- Node16 -->
<g id="node16" class="node">
<title>Node16</title>
<g id="a_node16"><a xlink:title=" ">
<polygon fill="none" stroke="#bfbfbf" points="821.5,-67.5 821.5,-86.5 935.5,-86.5 935.5,-67.5 821.5,-67.5"/>
<text text-anchor="middle" x="878.5" y="-74.5" font-family="Helvetica,sans-Serif" font-size="10.00">boost/log/trivial.hpp</text>
</a>
</g>
</g>
<!-- Node6&#45;&gt;Node16 -->
<g id="edge17" class="edge">
<title>Node6&#45;&gt;Node16</title>
<path fill="none" stroke="midnightblue" d="M1118.26,-136.41C1070.17,-126.99 1002.9,-113.01 944.5,-98 934.77,-95.5 924.34,-92.49 914.7,-89.58"/>
<polygon fill="midnightblue" stroke="midnightblue" points="915.6,-86.19 905.01,-86.6 913.54,-92.88 915.6,-86.19"/>
</g>
<!-- Node6&#45;&gt;Node17 -->
<g id="edge18" class="edge">
<title>Node6&#45;&gt;Node17</title>
<path fill="none" stroke="midnightblue" d="M1246.61,-146.87C1361.26,-143.19 1608.66,-131.72 1814.5,-98 1827.88,-95.81 1842.3,-92.5 1855.17,-89.21"/>
<polygon fill="midnightblue" stroke="midnightblue" points="1856.33,-92.52 1865.11,-86.59 1854.55,-85.75 1856.33,-92.52"/>
</g>
<!-- Node6&#45;&gt;Node18 -->
<g id="edge19" class="edge">
<title>Node6&#45;&gt;Node18</title>
<path fill="none" stroke="midnightblue" d="M1246.5,-148.98C1382.01,-148.99 1707.44,-143.76 1975.5,-98 1987.41,-95.97 2000.19,-92.71 2011.57,-89.42"/>
<polygon fill="midnightblue" stroke="midnightblue" points="2012.59,-92.77 2021.16,-86.54 2010.58,-86.06 2012.59,-92.77"/>
</g>
<!-- Node6&#45;&gt;Node19 -->
<g id="edge20" class="edge">
<title>Node6&#45;&gt;Node19</title>
<path fill="none" stroke="midnightblue" d="M1118.42,-146.77C943.87,-141.75 462.58,-125.74 306.5,-98 295.6,-96.06 283.97,-92.92 273.55,-89.69"/>
<polygon fill="midnightblue" stroke="midnightblue" points="274.59,-86.34 264,-86.6 272.44,-93.01 274.59,-86.34"/>
</g>
<!-- Node6&#45;&gt;Node20 -->
<g id="edge21" class="edge">
<title>Node6&#45;&gt;Node20</title>
<path fill="none" stroke="midnightblue" d="M1246.65,-148.47C1398.74,-147.66 1792.82,-141.16 2118.5,-98 2135.05,-95.81 2153.03,-92.27 2168.79,-88.78"/>
<polygon fill="midnightblue" stroke="midnightblue" points="2169.81,-92.14 2178.78,-86.5 2168.26,-85.31 2169.81,-92.14"/>
</g>
<!-- Node6&#45;&gt;Node21 -->
<g id="edge22" class="edge">
<title>Node6&#45;&gt;Node21</title>
<path fill="none" stroke="midnightblue" d="M1246.66,-147.49C1453.31,-143.95 2100.03,-130.51 2306.5,-98 2318.85,-96.06 2332.1,-92.79 2343.88,-89.46"/>
<polygon fill="midnightblue" stroke="midnightblue" points="2345.18,-92.73 2353.79,-86.55 2343.21,-86.01 2345.18,-92.73"/>
</g>
<!-- Node22 -->
<g id="node22" class="node">
<title>Node22</title>
<g id="a_node22"><a xlink:title=" ">
<polygon fill="none" stroke="#bfbfbf" points="953.5,-67.5 953.5,-86.5 1105.5,-86.5 1105.5,-67.5 953.5,-67.5"/>
<text text-anchor="middle" x="1029.5" y="-74.5" font-family="Helvetica,sans-Serif" font-size="10.00">impl/hdf5_core_general.hpp</text>
</a>
</g>
</g>
<!-- Node6&#45;&gt;Node22 -->
<g id="edge23" class="edge">
<title>Node6&#45;&gt;Node22</title>
<path fill="none" stroke="midnightblue" d="M1151.91,-134.4C1124.26,-121.66 1083.91,-103.07 1057.2,-90.76"/>
<polygon fill="midnightblue" stroke="midnightblue" points="1058.57,-87.54 1048.02,-86.53 1055.64,-93.9 1058.57,-87.54"/>
</g>
<!-- Node23&#45;&gt;Node19 -->
<g id="edge25" class="edge">
<title>Node23&#45;&gt;Node19</title>
<path fill="none" stroke="midnightblue" d="M189.61,-139.86C198.83,-128.65 215.1,-108.87 226.77,-94.69"/>
<polygon fill="midnightblue" stroke="midnightblue" points="229.68,-96.66 233.33,-86.72 224.27,-92.21 229.68,-96.66"/>
</g>
<!-- Node24 -->
<g id="node24" class="node">
<title>Node24</title>
<g id="a_node24"><a xlink:href="datatype_8h.html" target="_top" xlink:title=" ">
<polygon fill="none" stroke="black" points="0,-67.5 0,-86.5 69,-86.5 69,-67.5 0,-67.5"/>
<text text-anchor="middle" x="34.5" y="-74.5" font-family="Helvetica,sans-Serif" font-size="10.00">datatype.h</text>
</a>
</g>
</g>
<!-- Node23&#45;&gt;Node24 -->
<g id="edge26" class="edge">
<title>Node23&#45;&gt;Node24</title>
<path fill="none" stroke="midnightblue" d="M164.65,-140C138.98,-127.77 91.45,-105.13 61.48,-90.85"/>
<polygon fill="midnightblue" stroke="midnightblue" points="62.95,-87.67 52.42,-86.53 59.94,-93.99 62.95,-87.67"/>
</g>
<!-- Node25 -->
<g id="node25" class="node">
<title>Node25</title>
<g id="a_node25"><a xlink:href="timestamp_8h.html" target="_top" xlink:title=" ">
<polygon fill="none" stroke="black" points="87,-67.5 87,-86.5 166,-86.5 166,-67.5 87,-67.5"/>
<text text-anchor="middle" x="126.5" y="-74.5" font-family="Helvetica,sans-Serif" font-size="10.00">timestamp.h</text>
</a>
</g>
</g>
<!-- Node23&#45;&gt;Node25 -->
<g id="edge27" class="edge">
<title>Node23&#45;&gt;Node25</title>
<path fill="none" stroke="midnightblue" d="M175.63,-139.86C166.73,-128.65 151.02,-108.87 139.76,-94.69"/>
<polygon fill="midnightblue" stroke="midnightblue" points="142.38,-92.37 133.42,-86.72 136.9,-96.72 142.38,-92.37"/>
</g>
<!-- Node26 -->
<g id="node26" class="node">
<title>Node26</title>
<g id="a_node26"><a xlink:title=" ">
<polygon fill="none" stroke="#bfbfbf" points="94,-0.5 94,-19.5 159,-19.5 159,-0.5 94,-0.5"/>
<text text-anchor="middle" x="126.5" y="-7.5" font-family="Helvetica,sans-Serif" font-size="10.00">functional</text>
</a>
</g>
</g>
<!-- Node25&#45;&gt;Node26 -->
<g id="edge28" class="edge">
<title>Node25&#45;&gt;Node26</title>
<path fill="none" stroke="midnightblue" d="M126.5,-67.23C126.5,-57.68 126.5,-42.12 126.5,-29.78"/>
<polygon fill="midnightblue" stroke="midnightblue" points="130,-29.63 126.5,-19.63 123,-29.63 130,-29.63"/>
</g>
<!-- Node29&#45;&gt;Node8 -->
<g id="edge32" class="edge">
<title>Node29&#45;&gt;Node8</title>
<path fill="none" stroke="midnightblue" d="M639.71,-134.4C613.22,-123.36 576.2,-107.91 547.59,-95.97"/>
<polygon fill="midnightblue" stroke="midnightblue" points="548.81,-92.69 538.23,-92.07 546.12,-99.15 548.81,-92.69"/>
</g>
<!-- Node29&#45;&gt;Node13 -->
<g id="edge34" class="edge">
<title>Node29&#45;&gt;Node13</title>
<path fill="none" stroke="midnightblue" d="M660.95,-134.23C650.83,-122.73 636.59,-106.53 625.98,-94.47"/>
<polygon fill="midnightblue" stroke="midnightblue" points="628.55,-92.09 619.32,-86.89 623.3,-96.71 628.55,-92.09"/>
</g>
<!-- Node29&#45;&gt;Node19 -->
<g id="edge33" class="edge">
<title>Node29&#45;&gt;Node19</title>
<path fill="none" stroke="midnightblue" d="M616.81,-141.81C529.05,-131.26 364.38,-110.67 306.5,-98 296.15,-95.73 285.07,-92.64 275,-89.57"/>
<polygon fill="midnightblue" stroke="midnightblue" points="275.92,-86.19 265.33,-86.54 273.82,-92.87 275.92,-86.19"/>
</g>
</g>
</svg>
