<?xml version="1.0" encoding="UTF-8" standalone="no"?>
<!DOCTYPE svg PUBLIC "-//W3C//DTD SVG 1.1//EN"
 "http://www.w3.org/Graphics/SVG/1.1/DTD/svg11.dtd">
<!-- Generated by graphviz version 2.43.0 (0)
 -->
<!-- Title: seerep_hdf5/seerep_hdf5_pb/src/hdf5_pb_tf.cpp Pages: 1 -->
<svg width="2463pt" height="340pt"
 viewBox="0.00 0.00 2462.52 340.00" xmlns="http://www.w3.org/2000/svg" xmlns:xlink="http://www.w3.org/1999/xlink">
<g id="graph0" class="graph" transform="scale(1 1) rotate(0) translate(4 336)">
<title>seerep_hdf5/seerep_hdf5_pb/src/hdf5_pb_tf.cpp</title>
<!-- Node1 -->
<g id="node1" class="node">
<title>Node1</title>
<g id="a_node1"><a xlink:title=" ">
<polygon fill="#bfbfbf" stroke="black" points="1259,-290.5 1259,-331.5 1379,-331.5 1379,-290.5 1259,-290.5"/>
<text text-anchor="start" x="1267" y="-319.5" font-family="Helvetica,sans-Serif" font-size="10.00">seerep_hdf5/seerep</text>
<text text-anchor="start" x="1267" y="-308.5" font-family="Helvetica,sans-Serif" font-size="10.00">_hdf5_pb/src/hdf5_pb</text>
<text text-anchor="middle" x="1319" y="-297.5" font-family="Helvetica,sans-Serif" font-size="10.00">_tf.cpp</text>
</a>
</g>
</g>
<!-- Node2 -->
<g id="node2" class="node">
<title>Node2</title>
<g id="a_node2"><a xlink:href="hdf5__pb__tf_8h.html" target="_top" xlink:title=" ">
<polygon fill="none" stroke="black" points="1259.5,-223.5 1259.5,-253.5 1378.5,-253.5 1378.5,-223.5 1259.5,-223.5"/>
<text text-anchor="start" x="1267.5" y="-241.5" font-family="Helvetica,sans-Serif" font-size="10.00">seerep_hdf5_pb/hdf5</text>
<text text-anchor="middle" x="1319" y="-230.5" font-family="Helvetica,sans-Serif" font-size="10.00">_pb_tf.h</text>
</a>
</g>
</g>
<!-- Node1&#45;&gt;Node2 -->
<g id="edge1" class="edge">
<title>Node1&#45;&gt;Node2</title>
<path fill="none" stroke="midnightblue" d="M1319,-290.36C1319,-282.23 1319,-272.7 1319,-264.11"/>
<polygon fill="midnightblue" stroke="midnightblue" points="1322.5,-263.89 1319,-253.89 1315.5,-263.89 1322.5,-263.89"/>
</g>
<!-- Node29 -->
<g id="node29" class="node">
<title>Node29</title>
<g id="a_node29"><a xlink:title=" ">
<polygon fill="none" stroke="#bfbfbf" points="1397,-229 1397,-248 1529,-248 1529,-229 1397,-229"/>
<text text-anchor="middle" x="1463" y="-236" font-family="Helvetica,sans-Serif" font-size="10.00">highfive/H5DataSet.hpp</text>
</a>
</g>
</g>
<!-- Node1&#45;&gt;Node29 -->
<g id="edge36" class="edge">
<title>Node1&#45;&gt;Node29</title>
<path fill="none" stroke="midnightblue" d="M1359.11,-290.36C1383.65,-278.35 1414.38,-263.3 1436.03,-252.7"/>
<polygon fill="midnightblue" stroke="midnightblue" points="1437.84,-255.71 1445.28,-248.17 1434.76,-249.43 1437.84,-255.71"/>
</g>
<!-- Node30 -->
<g id="node30" class="node">
<title>Node30</title>
<g id="a_node30"><a xlink:href="hdf5__core__tf_8h.html" target="_top" xlink:title=" ">
<polygon fill="none" stroke="black" points="1060,-156.5 1060,-186.5 1188,-186.5 1188,-156.5 1060,-156.5"/>
<text text-anchor="start" x="1068" y="-174.5" font-family="Helvetica,sans-Serif" font-size="10.00">seerep_hdf5_core/hdf5</text>
<text text-anchor="middle" x="1124" y="-163.5" font-family="Helvetica,sans-Serif" font-size="10.00">_core_tf.h</text>
</a>
</g>
</g>
<!-- Node1&#45;&gt;Node30 -->
<g id="edge37" class="edge">
<title>Node1&#45;&gt;Node30</title>
<path fill="none" stroke="midnightblue" d="M1291.06,-290.3C1254.11,-264.24 1189.35,-218.58 1152.24,-192.42"/>
<polygon fill="midnightblue" stroke="midnightblue" points="1154.07,-189.42 1143.88,-186.52 1150.04,-195.14 1154.07,-189.42"/>
</g>
<!-- Node3 -->
<g id="node3" class="node">
<title>Node3</title>
<g id="a_node3"><a xlink:title=" ">
<polygon fill="none" stroke="#bfbfbf" points="0,-11.5 0,-30.5 110,-30.5 110,-11.5 0,-11.5"/>
<text text-anchor="middle" x="55" y="-18.5" font-family="Helvetica,sans-Serif" font-size="10.00">highfive/H5File.hpp</text>
</a>
</g>
</g>
<!-- Node2&#45;&gt;Node3 -->
<g id="edge2" class="edge">
<title>Node2&#45;&gt;Node3</title>
<path fill="none" stroke="midnightblue" d="M1259.42,-230.82C1083.42,-210.45 551.14,-144.18 119,-42 109.16,-39.67 98.64,-36.62 89.02,-33.61"/>
<polygon fill="midnightblue" stroke="midnightblue" points="89.98,-30.24 79.39,-30.51 87.84,-36.91 89.98,-30.24"/>
</g>
<!-- Node4 -->
<g id="node4" class="node">
<title>Node4</title>
<g id="a_node4"><a xlink:href="hdf5__pb__general_8h.html" target="_top" xlink:title=" ">
<polygon fill="none" stroke="black" points="1626.5,-162 1626.5,-181 1733.5,-181 1733.5,-162 1626.5,-162"/>
<text text-anchor="middle" x="1680" y="-169" font-family="Helvetica,sans-Serif" font-size="10.00">hdf5_pb_general.h</text>
</a>
</g>
</g>
<!-- Node2&#45;&gt;Node4 -->
<g id="edge3" class="edge">
<title>Node2&#45;&gt;Node4</title>
<path fill="none" stroke="midnightblue" d="M1378.81,-224.79C1381.92,-224.18 1384.99,-223.58 1388,-223 1466.93,-207.89 1558.26,-192.41 1617.47,-182.65"/>
<polygon fill="midnightblue" stroke="midnightblue" points="1618.11,-186.09 1627.41,-181.01 1616.98,-179.18 1618.11,-186.09"/>
</g>
<!-- Node10 -->
<g id="node10" class="node">
<title>Node10</title>
<g id="a_node10"><a xlink:title=" ">
<polygon fill="none" stroke="#bfbfbf" points="1773.5,-11.5 1773.5,-30.5 1886.5,-30.5 1886.5,-11.5 1773.5,-11.5"/>
<text text-anchor="middle" x="1830" y="-18.5" font-family="Helvetica,sans-Serif" font-size="10.00">boost/geometry.hpp</text>
</a>
</g>
</g>
<!-- Node2&#45;&gt;Node10 -->
<g id="edge34" class="edge">
<title>Node2&#45;&gt;Node10</title>
<path fill="none" stroke="midnightblue" d="M1326.86,-223.36C1332.48,-213.24 1340.21,-199.28 1347,-187 1373.74,-138.6 1360.86,-108.49 1407,-78 1473.71,-33.92 1686.63,-57.83 1765,-42 1775.42,-39.9 1786.54,-36.8 1796.59,-33.67"/>
<polygon fill="midnightblue" stroke="midnightblue" points="1797.77,-36.96 1806.22,-30.56 1795.62,-30.3 1797.77,-36.96"/>
</g>
<!-- Node12 -->
<g id="node12" class="node">
<title>Node12</title>
<g id="a_node12"><a xlink:title=" ">
<polygon fill="none" stroke="#bfbfbf" points="2310,-11.5 2310,-30.5 2366,-30.5 2366,-11.5 2310,-11.5"/>
<text text-anchor="middle" x="2338" y="-18.5" font-family="Helvetica,sans-Serif" font-size="10.00">optional</text>
</a>
</g>
</g>
<!-- Node2&#45;&gt;Node12 -->
<g id="edge35" class="edge">
<title>Node2&#45;&gt;Node12</title>
<path fill="none" stroke="midnightblue" d="M1378.77,-224.52C1381.88,-223.97 1384.98,-223.46 1388,-223 1504.75,-205.11 2366.63,-207.47 2446,-120 2458.54,-106.18 2455.7,-93.95 2446,-78 2430.86,-53.1 2400.66,-38.77 2376.04,-30.85"/>
<polygon fill="midnightblue" stroke="midnightblue" points="2376.82,-27.43 2366.23,-27.93 2374.82,-34.14 2376.82,-27.43"/>
</g>
<!-- Node28 -->
<g id="node28" class="node">
<title>Node28</title>
<g id="a_node28"><a xlink:title=" ">
<polygon fill="none" stroke="#bfbfbf" points="1206,-156.5 1206,-186.5 1338,-186.5 1338,-156.5 1206,-156.5"/>
<text text-anchor="start" x="1214" y="-174.5" font-family="Helvetica,sans-Serif" font-size="10.00">seerep_msgs/transform</text>
<text text-anchor="middle" x="1272" y="-163.5" font-family="Helvetica,sans-Serif" font-size="10.00">_stamped.pb.h</text>
</a>
</g>
</g>
<!-- Node2&#45;&gt;Node28 -->
<g id="edge33" class="edge">
<title>Node2&#45;&gt;Node28</title>
<path fill="none" stroke="midnightblue" d="M1308.8,-223.4C1302.77,-215.05 1294.98,-204.29 1288.13,-194.81"/>
<polygon fill="midnightblue" stroke="midnightblue" points="1290.87,-192.63 1282.18,-186.58 1285.2,-196.73 1290.87,-192.63"/>
</g>
<!-- Node4&#45;&gt;Node3 -->
<g id="edge4" class="edge">
<title>Node4&#45;&gt;Node3</title>
<path fill="none" stroke="midnightblue" d="M1626.5,-168.17C1488.47,-161.87 1127.72,-143.34 1079,-120 1055.75,-108.86 1062.49,-88.62 1039,-78 945.78,-35.87 219.81,-59.41 119,-42 108.33,-40.16 96.97,-37.01 86.82,-33.76"/>
<polygon fill="midnightblue" stroke="midnightblue" points="87.75,-30.38 77.15,-30.51 85.52,-37.01 87.75,-30.38"/>
</g>
<!-- Node5 -->
<g id="node5" class="node">
<title>Node5</title>
<g id="a_node5"><a xlink:href="hdf5__core__general_8h.html" target="_top" xlink:title=" ">
<polygon fill="none" stroke="black" points="1088,-84 1088,-114 1216,-114 1216,-84 1088,-84"/>
<text text-anchor="start" x="1096" y="-102" font-family="Helvetica,sans-Serif" font-size="10.00">seerep_hdf5_core/hdf5</text>
<text text-anchor="middle" x="1152" y="-91" font-family="Helvetica,sans-Serif" font-size="10.00">_core_general.h</text>
</a>
</g>
</g>
<!-- Node4&#45;&gt;Node5 -->
<g id="edge5" class="edge">
<title>Node4&#45;&gt;Node5</title>
<path fill="none" stroke="midnightblue" d="M1626.47,-163.35C1531.73,-150.7 1334.39,-124.35 1226.46,-109.94"/>
<polygon fill="midnightblue" stroke="midnightblue" points="1226.68,-106.44 1216.3,-108.59 1225.75,-113.38 1226.68,-106.44"/>
</g>
<!-- Node4&#45;&gt;Node10 -->
<g id="edge27" class="edge">
<title>Node4&#45;&gt;Node10</title>
<path fill="none" stroke="midnightblue" d="M1626.27,-168.62C1534.38,-163.58 1362.56,-145.14 1423,-78 1474.13,-21.2 1690.13,-57.31 1765,-42 1775.41,-39.87 1786.54,-36.77 1796.58,-33.64"/>
<polygon fill="midnightblue" stroke="midnightblue" points="1797.77,-36.93 1806.21,-30.53 1795.62,-30.27 1797.77,-36.93"/>
</g>
<!-- Node4&#45;&gt;Node12 -->
<g id="edge29" class="edge">
<title>Node4&#45;&gt;Node12</title>
<path fill="none" stroke="midnightblue" d="M1733.65,-171C1897.13,-171.96 2380.81,-170.48 2428,-120 2440.75,-106.36 2437.07,-94.32 2428,-78 2416.56,-57.4 2394.04,-43.4 2374.4,-34.55"/>
<polygon fill="midnightblue" stroke="midnightblue" points="2375.62,-31.26 2365.05,-30.61 2372.9,-37.72 2375.62,-31.26"/>
</g>
<!-- Node14 -->
<g id="node14" class="node">
<title>Node14</title>
<g id="a_node14"><a xlink:title=" ">
<polygon fill="none" stroke="#bfbfbf" points="2037.5,-6 2037.5,-36 2182.5,-36 2182.5,-6 2037.5,-6"/>
<text text-anchor="start" x="2045.5" y="-24" font-family="Helvetica,sans-Serif" font-size="10.00">boost/log/sources/severity</text>
<text text-anchor="middle" x="2110" y="-13" font-family="Helvetica,sans-Serif" font-size="10.00">_logger.hpp</text>
</a>
</g>
</g>
<!-- Node4&#45;&gt;Node14 -->
<g id="edge30" class="edge">
<title>Node4&#45;&gt;Node14</title>
<path fill="none" stroke="midnightblue" d="M1678.79,-161.77C1676.76,-143.24 1675,-99.85 1699,-78 1753.38,-28.48 1955.56,-54.74 2028,-42 2034.16,-40.92 2040.54,-39.64 2046.9,-38.26"/>
<polygon fill="midnightblue" stroke="midnightblue" points="2047.85,-41.64 2056.84,-36.03 2046.32,-34.81 2047.85,-41.64"/>
</g>
<!-- Node15 -->
<g id="node15" class="node">
<title>Node15</title>
<g id="a_node15"><a xlink:title=" ">
<polygon fill="none" stroke="#bfbfbf" points="1905,-11.5 1905,-30.5 2019,-30.5 2019,-11.5 1905,-11.5"/>
<text text-anchor="middle" x="1962" y="-18.5" font-family="Helvetica,sans-Serif" font-size="10.00">boost/log/trivial.hpp</text>
</a>
</g>
</g>
<!-- Node4&#45;&gt;Node15 -->
<g id="edge31" class="edge">
<title>Node4&#45;&gt;Node15</title>
<path fill="none" stroke="midnightblue" d="M1674.8,-161.9C1664.7,-143.98 1645.2,-102.31 1666,-78 1699.63,-38.69 1845.57,-53.53 1896,-42 1906.24,-39.66 1917.22,-36.57 1927.22,-33.53"/>
<polygon fill="midnightblue" stroke="midnightblue" points="1928.33,-36.85 1936.83,-30.52 1926.25,-30.16 1928.33,-36.85"/>
</g>
<!-- Node22 -->
<g id="node22" class="node">
<title>Node22</title>
<g id="a_node22"><a xlink:title=" ">
<polygon fill="none" stroke="#bfbfbf" points="1707.5,-84 1707.5,-114 1866.5,-114 1866.5,-84 1707.5,-84"/>
<text text-anchor="start" x="1715.5" y="-102" font-family="Helvetica,sans-Serif" font-size="10.00">seerep_msgs/boundingbox2d</text>
<text text-anchor="middle" x="1787" y="-91" font-family="Helvetica,sans-Serif" font-size="10.00">_labeled_with_category.pb.h</text>
</a>
</g>
</g>
<!-- Node4&#45;&gt;Node22 -->
<g id="edge23" class="edge">
<title>Node4&#45;&gt;Node22</title>
<path fill="none" stroke="midnightblue" d="M1693.12,-161.86C1708.94,-151.43 1736.02,-133.59 1757.05,-119.73"/>
<polygon fill="midnightblue" stroke="midnightblue" points="1759.21,-122.5 1765.64,-114.08 1755.36,-116.66 1759.21,-122.5"/>
</g>
<!-- Node23 -->
<g id="node23" class="node">
<title>Node23</title>
<g id="a_node23"><a xlink:title=" ">
<polygon fill="none" stroke="#bfbfbf" points="1884.5,-84 1884.5,-114 2039.5,-114 2039.5,-84 1884.5,-84"/>
<text text-anchor="start" x="1892.5" y="-102" font-family="Helvetica,sans-Serif" font-size="10.00">seerep_msgs/boundingbox</text>
<text text-anchor="middle" x="1962" y="-91" font-family="Helvetica,sans-Serif" font-size="10.00">_labeled_with_category.pb.h</text>
</a>
</g>
</g>
<!-- Node4&#45;&gt;Node23 -->
<g id="edge24" class="edge">
<title>Node4&#45;&gt;Node23</title>
<path fill="none" stroke="midnightblue" d="M1714.02,-162C1758.93,-150.77 1838.97,-130.76 1895.97,-116.51"/>
<polygon fill="midnightblue" stroke="midnightblue" points="1897.12,-119.83 1905.98,-114.01 1895.43,-113.04 1897.12,-119.83"/>
</g>
<!-- Node24 -->
<g id="node24" class="node">
<title>Node24</title>
<g id="a_node24"><a xlink:title=" ">
<polygon fill="none" stroke="#bfbfbf" points="2057.5,-89.5 2057.5,-108.5 2198.5,-108.5 2198.5,-89.5 2057.5,-89.5"/>
<text text-anchor="middle" x="2128" y="-96.5" font-family="Helvetica,sans-Serif" font-size="10.00">seerep_msgs/header.pb.h</text>
</a>
</g>
</g>
<!-- Node4&#45;&gt;Node24 -->
<g id="edge25" class="edge">
<title>Node4&#45;&gt;Node24</title>
<path fill="none" stroke="midnightblue" d="M1733.78,-165.05C1805.9,-157.31 1937.77,-141.62 2049,-120 2061.59,-117.55 2075.16,-114.33 2087.45,-111.19"/>
<polygon fill="midnightblue" stroke="midnightblue" points="2088.62,-114.5 2097.42,-108.59 2086.86,-107.73 2088.62,-114.5"/>
</g>
<!-- Node25 -->
<g id="node25" class="node">
<title>Node25</title>
<g id="a_node25"><a xlink:title=" ">
<polygon fill="none" stroke="#bfbfbf" points="2217,-78.5 2217,-119.5 2333,-119.5 2333,-78.5 2217,-78.5"/>
<text text-anchor="start" x="2225" y="-107.5" font-family="Helvetica,sans-Serif" font-size="10.00">seerep_msgs/labels</text>
<text text-anchor="start" x="2225" y="-96.5" font-family="Helvetica,sans-Serif" font-size="10.00">_with_instance_with</text>
<text text-anchor="middle" x="2275" y="-85.5" font-family="Helvetica,sans-Serif" font-size="10.00">_category.pb.h</text>
</a>
</g>
</g>
<!-- Node4&#45;&gt;Node25 -->
<g id="edge26" class="edge">
<title>Node4&#45;&gt;Node25</title>
<path fill="none" stroke="midnightblue" d="M1733.7,-168.81C1827.92,-165.11 2029.09,-153.85 2206.66,-120.07"/>
<polygon fill="midnightblue" stroke="midnightblue" points="2207.55,-123.46 2216.7,-118.13 2206.22,-116.59 2207.55,-123.46"/>
</g>
<!-- Node26 -->
<g id="node26" class="node">
<title>Node26</title>
<g id="a_node26"><a xlink:title=" ">
<polygon fill="none" stroke="#bfbfbf" points="2351,-89.5 2351,-108.5 2419,-108.5 2419,-89.5 2351,-89.5"/>
<text text-anchor="middle" x="2385" y="-96.5" font-family="Helvetica,sans-Serif" font-size="10.00">filesystem</text>
</a>
</g>
</g>
<!-- Node4&#45;&gt;Node26 -->
<g id="edge28" class="edge">
<title>Node4&#45;&gt;Node26</title>
<path fill="none" stroke="midnightblue" d="M1733.74,-168.88C1870.21,-164.36 2227.42,-149.96 2342,-120 2348.23,-118.37 2354.66,-115.87 2360.59,-113.19"/>
<polygon fill="midnightblue" stroke="midnightblue" points="2362.52,-116.14 2369.98,-108.61 2359.45,-109.85 2362.52,-116.14"/>
</g>
<!-- Node27 -->
<g id="node27" class="node">
<title>Node27</title>
<g id="a_node27"><a xlink:title=" ">
<polygon fill="none" stroke="#bfbfbf" points="1432.5,-89.5 1432.5,-108.5 1575.5,-108.5 1575.5,-89.5 1432.5,-89.5"/>
<text text-anchor="middle" x="1504" y="-96.5" font-family="Helvetica,sans-Serif" font-size="10.00">impl/hdf5_pb_general.hpp</text>
</a>
</g>
</g>
<!-- Node4&#45;&gt;Node27 -->
<g id="edge32" class="edge">
<title>Node4&#45;&gt;Node27</title>
<path fill="none" stroke="midnightblue" d="M1658.77,-162C1627.85,-149.61 1570.25,-126.54 1534.7,-112.3"/>
<polygon fill="midnightblue" stroke="midnightblue" points="1535.89,-109 1525.31,-108.53 1533.29,-115.5 1535.89,-109"/>
</g>
<!-- Node5&#45;&gt;Node3 -->
<g id="edge6" class="edge">
<title>Node5&#45;&gt;Node3</title>
<path fill="none" stroke="midnightblue" d="M1104.06,-84C1094.2,-81.6 1083.82,-79.43 1074,-78 653.67,-16.9 537.6,-113.98 119,-42 108.33,-40.17 96.97,-37.02 86.82,-33.77"/>
<polygon fill="midnightblue" stroke="midnightblue" points="87.75,-30.39 77.15,-30.52 85.52,-37.02 87.75,-30.39"/>
</g>
<!-- Node6 -->
<g id="node6" class="node">
<title>Node6</title>
<g id="a_node6"><a xlink:title=" ">
<polygon fill="none" stroke="#bfbfbf" points="298.5,-11.5 298.5,-30.5 415.5,-30.5 415.5,-11.5 298.5,-11.5"/>
<text text-anchor="middle" x="357" y="-18.5" font-family="Helvetica,sans-Serif" font-size="10.00">seerep_msgs/aabb.h</text>
</a>
</g>
</g>
<!-- Node5&#45;&gt;Node6 -->
<g id="edge7" class="edge">
<title>Node5&#45;&gt;Node6</title>
<path fill="none" stroke="midnightblue" d="M1103.2,-83.93C1093.59,-81.6 1083.53,-79.47 1074,-78 788.06,-33.86 709.03,-91.72 424,-42 412.85,-40.06 400.94,-36.88 390.3,-33.62"/>
<polygon fill="midnightblue" stroke="midnightblue" points="391.14,-30.21 380.55,-30.51 389.01,-36.88 391.14,-30.21"/>
</g>
<!-- Node7 -->
<g id="node7" class="node">
<title>Node7</title>
<g id="a_node7"><a xlink:title=" ">
<polygon fill="none" stroke="#bfbfbf" points="433.5,-6 433.5,-36 554.5,-36 554.5,-6 433.5,-6"/>
<text text-anchor="start" x="441.5" y="-24" font-family="Helvetica,sans-Serif" font-size="10.00">seerep_msgs/dataset</text>
<text text-anchor="middle" x="494" y="-13" font-family="Helvetica,sans-Serif" font-size="10.00">_indexable.h</text>
</a>
</g>
</g>
<!-- Node5&#45;&gt;Node7 -->
<g id="edge8" class="edge">
<title>Node5&#45;&gt;Node7</title>
<path fill="none" stroke="midnightblue" d="M1102.77,-83.95C1093.29,-81.65 1083.38,-79.52 1074,-78 849.7,-41.63 787.78,-81.43 564,-42 558.63,-41.05 553.09,-39.86 547.57,-38.53"/>
<polygon fill="midnightblue" stroke="midnightblue" points="548.29,-35.1 537.74,-36 546.55,-41.88 548.29,-35.1"/>
</g>
<!-- Node8 -->
<g id="node8" class="node">
<title>Node8</title>
<g id="a_node8"><a xlink:title=" ">
<polygon fill="none" stroke="#bfbfbf" points="573,-6 573,-36 699,-36 699,-6 573,-6"/>
<text text-anchor="start" x="581" y="-24" font-family="Helvetica,sans-Serif" font-size="10.00">seerep_msgs/geodetic</text>
<text text-anchor="middle" x="636" y="-13" font-family="Helvetica,sans-Serif" font-size="10.00">_coordinates.h</text>
</a>
</g>
</g>
<!-- Node5&#45;&gt;Node8 -->
<g id="edge9" class="edge">
<title>Node5&#45;&gt;Node8</title>
<path fill="none" stroke="midnightblue" d="M1101.9,-83.95C1092.67,-81.71 1083.09,-79.6 1074,-78 913.03,-49.62 868.68,-71.99 708,-42 702.87,-41.04 697.58,-39.89 692.29,-38.63"/>
<polygon fill="midnightblue" stroke="midnightblue" points="692.75,-35.14 682.2,-36.1 691.05,-41.93 692.75,-35.14"/>
</g>
<!-- Node9 -->
<g id="node9" class="node">
<title>Node9</title>
<g id="a_node9"><a xlink:title=" ">
<polygon fill="none" stroke="#bfbfbf" points="717,-0.5 717,-41.5 833,-41.5 833,-0.5 717,-0.5"/>
<text text-anchor="start" x="725" y="-29.5" font-family="Helvetica,sans-Serif" font-size="10.00">seerep_msgs/labels</text>
<text text-anchor="start" x="725" y="-18.5" font-family="Helvetica,sans-Serif" font-size="10.00">_with_instance_with</text>
<text text-anchor="middle" x="775" y="-7.5" font-family="Helvetica,sans-Serif" font-size="10.00">_category.h</text>
</a>
</g>
</g>
<!-- Node5&#45;&gt;Node9 -->
<g id="edge10" class="edge">
<title>Node5&#45;&gt;Node9</title>
<path fill="none" stroke="midnightblue" d="M1100.14,-83.95C1091.44,-81.81 1082.49,-79.74 1074,-78 974.88,-57.65 945.55,-64.52 843.15,-42.11"/>
<polygon fill="midnightblue" stroke="midnightblue" points="843.86,-38.68 833.34,-39.92 842.34,-45.52 843.86,-38.68"/>
</g>
<!-- Node5&#45;&gt;Node10 -->
<g id="edge11" class="edge">
<title>Node5&#45;&gt;Node10</title>
<path fill="none" stroke="midnightblue" d="M1216.28,-87.43C1238.34,-84.06 1263.21,-80.55 1286,-78 1498.16,-54.23 1555.22,-81.64 1765,-42 1775.62,-39.99 1786.95,-36.87 1797.12,-33.68"/>
<polygon fill="midnightblue" stroke="midnightblue" points="1798.43,-36.93 1806.85,-30.5 1796.26,-30.28 1798.43,-36.93"/>
</g>
<!-- Node11 -->
<g id="node11" class="node">
<title>Node11</title>
<g id="a_node11"><a xlink:title=" ">
<polygon fill="none" stroke="#bfbfbf" points="851,-11.5 851,-30.5 899,-30.5 899,-11.5 851,-11.5"/>
<text text-anchor="middle" x="875" y="-18.5" font-family="Helvetica,sans-Serif" font-size="10.00">mutex</text>
</a>
</g>
</g>
<!-- Node5&#45;&gt;Node11 -->
<g id="edge12" class="edge">
<title>Node5&#45;&gt;Node11</title>
<path fill="none" stroke="midnightblue" d="M1098.36,-83.96C1090.21,-81.91 1081.89,-79.87 1074,-78 1000.53,-60.62 978.13,-69.95 908,-42 903.87,-40.35 899.66,-38.22 895.7,-35.95"/>
<polygon fill="midnightblue" stroke="midnightblue" points="897.38,-32.88 887.03,-30.62 893.71,-38.84 897.38,-32.88"/>
</g>
<!-- Node5&#45;&gt;Node12 -->
<g id="edge13" class="edge">
<title>Node5&#45;&gt;Node12</title>
<path fill="none" stroke="midnightblue" d="M1216.03,-92.79C1270.92,-88.43 1352.13,-82.27 1423,-78 1764.53,-57.41 1851.28,-73.25 2192,-42 2228.65,-38.64 2270.2,-32.74 2299.58,-28.22"/>
<polygon fill="midnightblue" stroke="midnightblue" points="2300.48,-31.62 2309.82,-26.62 2299.4,-24.7 2300.48,-31.62"/>
</g>
<!-- Node13 -->
<g id="node13" class="node">
<title>Node13</title>
<g id="a_node13"><a xlink:title=" ">
<polygon fill="none" stroke="#bfbfbf" points="917.5,-11.5 917.5,-30.5 986.5,-30.5 986.5,-11.5 917.5,-11.5"/>
<text text-anchor="middle" x="952" y="-18.5" font-family="Helvetica,sans-Serif" font-size="10.00">type_traits</text>
</a>
</g>
</g>
<!-- Node5&#45;&gt;Node13 -->
<g id="edge14" class="edge">
<title>Node5&#45;&gt;Node13</title>
<path fill="none" stroke="midnightblue" d="M1109.28,-83.96C1077.48,-73.22 1033.16,-57.64 995,-42 989.67,-39.81 984.04,-37.33 978.67,-34.87"/>
<polygon fill="midnightblue" stroke="midnightblue" points="979.95,-31.61 969.41,-30.55 976.99,-37.95 979.95,-31.61"/>
</g>
<!-- Node5&#45;&gt;Node14 -->
<g id="edge15" class="edge">
<title>Node5&#45;&gt;Node14</title>
<path fill="none" stroke="midnightblue" d="M1216.05,-93.02C1270.95,-88.8 1352.16,-82.72 1423,-78 1691.77,-60.09 1761.63,-82.08 2028,-42 2034.72,-40.99 2041.69,-39.69 2048.61,-38.24"/>
<polygon fill="midnightblue" stroke="midnightblue" points="2049.65,-41.59 2058.66,-36.02 2048.15,-34.75 2049.65,-41.59"/>
</g>
<!-- Node5&#45;&gt;Node15 -->
<g id="edge16" class="edge">
<title>Node5&#45;&gt;Node15</title>
<path fill="none" stroke="midnightblue" d="M1216.22,-93.26C1395.29,-80.03 1887.67,-43.56 1896,-42 1906.68,-40 1918.08,-36.91 1928.35,-33.75"/>
<polygon fill="midnightblue" stroke="midnightblue" points="1929.72,-36.98 1938.18,-30.6 1927.59,-30.32 1929.72,-36.98"/>
</g>
<!-- Node16 -->
<g id="node16" class="node">
<title>Node16</title>
<g id="a_node16"><a xlink:title=" ">
<polygon fill="none" stroke="#bfbfbf" points="1004.5,-11.5 1004.5,-30.5 1147.5,-30.5 1147.5,-11.5 1004.5,-11.5"/>
<text text-anchor="middle" x="1076" y="-18.5" font-family="Helvetica,sans-Serif" font-size="10.00">boost/functional/hash.hpp</text>
</a>
</g>
</g>
<!-- Node5&#45;&gt;Node16 -->
<g id="edge17" class="edge">
<title>Node5&#45;&gt;Node16</title>
<path fill="none" stroke="midnightblue" d="M1137.7,-83.7C1124.62,-70.62 1105.3,-51.3 1091.77,-37.77"/>
<polygon fill="midnightblue" stroke="midnightblue" points="1094.11,-35.16 1084.56,-30.56 1089.16,-40.11 1094.11,-35.16"/>
</g>
<!-- Node17 -->
<g id="node17" class="node">
<title>Node17</title>
<g id="a_node17"><a xlink:title=" ">
<polygon fill="none" stroke="#bfbfbf" points="1165.5,-11.5 1165.5,-30.5 1290.5,-30.5 1290.5,-11.5 1165.5,-11.5"/>
<text text-anchor="middle" x="1228" y="-18.5" font-family="Helvetica,sans-Serif" font-size="10.00">boost/lexical_cast.hpp</text>
</a>
</g>
</g>
<!-- Node5&#45;&gt;Node17 -->
<g id="edge18" class="edge">
<title>Node5&#45;&gt;Node17</title>
<path fill="none" stroke="midnightblue" d="M1166.3,-83.7C1179.38,-70.62 1198.7,-51.3 1212.23,-37.77"/>
<polygon fill="midnightblue" stroke="midnightblue" points="1214.84,-40.11 1219.44,-30.56 1209.89,-35.16 1214.84,-40.11"/>
</g>
<!-- Node18 -->
<g id="node18" class="node">
<title>Node18</title>
<g id="a_node18"><a xlink:title=" ">
<polygon fill="none" stroke="#bfbfbf" points="1308.5,-11.5 1308.5,-30.5 1421.5,-30.5 1421.5,-11.5 1308.5,-11.5"/>
<text text-anchor="middle" x="1365" y="-18.5" font-family="Helvetica,sans-Serif" font-size="10.00">boost/uuid/uuid.hpp</text>
</a>
</g>
</g>
<!-- Node5&#45;&gt;Node18 -->
<g id="edge19" class="edge">
<title>Node5&#45;&gt;Node18</title>
<path fill="none" stroke="midnightblue" d="M1191.56,-83.88C1231.76,-69.54 1293.36,-47.56 1331.31,-34.02"/>
<polygon fill="midnightblue" stroke="midnightblue" points="1332.64,-37.26 1340.88,-30.61 1330.29,-30.67 1332.64,-37.26"/>
</g>
<!-- Node19 -->
<g id="node19" class="node">
<title>Node19</title>
<g id="a_node19"><a xlink:title=" ">
<polygon fill="none" stroke="#bfbfbf" points="1440,-11.5 1440,-30.5 1610,-30.5 1610,-11.5 1440,-11.5"/>
<text text-anchor="middle" x="1525" y="-18.5" font-family="Helvetica,sans-Serif" font-size="10.00">boost/uuid/uuid_generators.hpp</text>
</a>
</g>
</g>
<!-- Node5&#45;&gt;Node19 -->
<g id="edge20" class="edge">
<title>Node5&#45;&gt;Node19</title>
<path fill="none" stroke="midnightblue" d="M1216.07,-85.26C1272.44,-74.01 1356.7,-57.1 1430,-42 1444.62,-38.99 1460.49,-35.67 1475,-32.61"/>
<polygon fill="midnightblue" stroke="midnightblue" points="1475.74,-36.03 1484.8,-30.54 1474.29,-29.18 1475.74,-36.03"/>
</g>
<!-- Node20 -->
<g id="node20" class="node">
<title>Node20</title>
<g id="a_node20"><a xlink:title=" ">
<polygon fill="none" stroke="#bfbfbf" points="1628.5,-11.5 1628.5,-30.5 1755.5,-30.5 1755.5,-11.5 1628.5,-11.5"/>
<text text-anchor="middle" x="1692" y="-18.5" font-family="Helvetica,sans-Serif" font-size="10.00">boost/uuid/uuid_io.hpp</text>
</a>
</g>
</g>
<!-- Node5&#45;&gt;Node20 -->
<g id="edge21" class="edge">
<title>Node5&#45;&gt;Node20</title>
<path fill="none" stroke="midnightblue" d="M1216.34,-87.86C1238.4,-84.52 1263.25,-80.93 1286,-78 1433.65,-59.01 1472.75,-69.76 1619,-42 1630.88,-39.74 1643.66,-36.53 1655.15,-33.33"/>
<polygon fill="midnightblue" stroke="midnightblue" points="1656.21,-36.67 1664.86,-30.55 1654.28,-29.94 1656.21,-36.67"/>
</g>
<!-- Node21 -->
<g id="node21" class="node">
<title>Node21</title>
<g id="a_node21"><a xlink:title=" ">
<polygon fill="none" stroke="#bfbfbf" points="128,-11.5 128,-30.5 280,-30.5 280,-11.5 128,-11.5"/>
<text text-anchor="middle" x="204" y="-18.5" font-family="Helvetica,sans-Serif" font-size="10.00">impl/hdf5_core_general.hpp</text>
</a>
</g>
</g>
<!-- Node5&#45;&gt;Node21 -->
<g id="edge22" class="edge">
<title>Node5&#45;&gt;Node21</title>
<path fill="none" stroke="midnightblue" d="M1103.63,-83.96C1093.9,-81.6 1083.68,-79.45 1074,-78 728.58,-26.36 634.91,-90.2 289,-42 274.14,-39.93 258.06,-36.47 243.93,-33.01"/>
<polygon fill="midnightblue" stroke="midnightblue" points="244.59,-29.56 234.03,-30.5 242.87,-36.35 244.59,-29.56"/>
</g>
<!-- Node30&#45;&gt;Node3 -->
<g id="edge38" class="edge">
<title>Node30&#45;&gt;Node3</title>
<path fill="none" stroke="midnightblue" d="M1099.6,-156.43C1083.78,-146.89 1063.01,-133.59 1046,-120 1025.13,-103.32 1027.53,-88.58 1003,-78 912.73,-39.07 215.86,-58.8 119,-42 108.33,-40.15 96.97,-37 86.82,-33.75"/>
<polygon fill="midnightblue" stroke="midnightblue" points="87.75,-30.37 77.16,-30.5 85.52,-37 87.75,-30.37"/>
</g>
<!-- Node30&#45;&gt;Node5 -->
<g id="edge39" class="edge">
<title>Node30&#45;&gt;Node5</title>
<path fill="none" stroke="midnightblue" d="M1129.67,-156.23C1133.39,-146.87 1138.34,-134.4 1142.64,-123.58"/>
<polygon fill="midnightblue" stroke="midnightblue" points="1145.9,-124.83 1146.34,-114.25 1139.4,-122.25 1145.9,-124.83"/>
</g>
<!-- Node30&#45;&gt;Node10 -->
<g id="edge41" class="edge">
<title>Node30&#45;&gt;Node10</title>
<path fill="none" stroke="midnightblue" d="M1151.19,-156.34C1193.06,-135.27 1276.41,-96.19 1352,-78 1531.14,-34.89 1584.16,-77.29 1765,-42 1775.52,-39.95 1786.74,-36.84 1796.86,-33.68"/>
<polygon fill="midnightblue" stroke="midnightblue" points="1798.1,-36.95 1806.53,-30.54 1795.94,-30.29 1798.1,-36.95"/>
</g>
<!-- Node30&#45;&gt;Node12 -->
<g id="edge42" class="edge">
<title>Node30&#45;&gt;Node12</title>
<path fill="none" stroke="midnightblue" d="M1188.03,-157.39C1191.06,-156.9 1194.06,-156.43 1197,-156 1367.94,-131.14 1415.48,-157.94 1584,-120 1637.08,-108.05 1645.8,-89.42 1699,-78 1913.8,-31.87 1973.5,-64.92 2192,-42 2228.6,-38.16 2270.16,-32.32 2299.55,-27.94"/>
<polygon fill="midnightblue" stroke="midnightblue" points="2300.43,-31.35 2309.8,-26.4 2299.39,-24.43 2300.43,-31.35"/>
</g>
<!-- Node31 -->
<g id="node31" class="node">
<title>Node31</title>
<g id="a_node31"><a xlink:title=" ">
<polygon fill="none" stroke="#bfbfbf" points="794,-89.5 794,-108.5 994,-108.5 994,-89.5 794,-89.5"/>
<text text-anchor="middle" x="894" y="-96.5" font-family="Helvetica,sans-Serif" font-size="10.00">geometry_msgs/TransformStamped.h</text>
</a>
</g>
</g>
<!-- Node30&#45;&gt;Node31 -->
<g id="edge40" class="edge">
<title>Node30&#45;&gt;Node31</title>
<path fill="none" stroke="midnightblue" d="M1078.28,-156.49C1035.29,-143.31 971.7,-123.82 931.58,-111.52"/>
<polygon fill="midnightblue" stroke="midnightblue" points="932.5,-108.14 921.91,-108.55 930.45,-114.83 932.5,-108.14"/>
</g>
</g>
</svg>
