<?xml version="1.0" encoding="UTF-8" standalone="no"?>
<!DOCTYPE svg PUBLIC "-//W3C//DTD SVG 1.1//EN"
 "http://www.w3.org/Graphics/SVG/1.1/DTD/svg11.dtd">
<!-- Generated by graphviz version 2.43.0 (0)
 -->
<!-- Title: seerep_hdf5/seerep_hdf5_fb/include/seerep_hdf5_fb/hdf5_fb_general.h Pages: 1 -->
<svg width="1408pt" height="429pt"
 viewBox="0.00 0.00 1408.00 429.00" xmlns="http://www.w3.org/2000/svg" xmlns:xlink="http://www.w3.org/1999/xlink">
<g id="graph0" class="graph" transform="scale(1 1) rotate(0) translate(4 425)">
<title>seerep_hdf5/seerep_hdf5_fb/include/seerep_hdf5_fb/hdf5_fb_general.h</title>
<!-- Node1 -->
<g id="node1" class="node">
<title>Node1</title>
<g id="a_node1"><a xlink:title=" ">
<polygon fill="#bfbfbf" stroke="black" points="767.5,-379.5 767.5,-420.5 916.5,-420.5 916.5,-379.5 767.5,-379.5"/>
<text text-anchor="start" x="775.5" y="-408.5" font-family="Helvetica,sans-Serif" font-size="10.00">seerep_hdf5/seerep</text>
<text text-anchor="start" x="775.5" y="-397.5" font-family="Helvetica,sans-Serif" font-size="10.00">_hdf5_fb/include/seerep</text>
<text text-anchor="middle" x="842" y="-386.5" font-family="Helvetica,sans-Serif" font-size="10.00">_hdf5_fb/hdf5_fb_general.h</text>
</a>
</g>
</g>
<!-- Node2 -->
<g id="node2" class="node">
<title>Node2</title>
<g id="a_node2"><a xlink:href="hdf5__fb__image_8h.html" target="_top" xlink:title=" ">
<polygon fill="none" stroke="black" points="197.5,-301.5 197.5,-342.5 340.5,-342.5 340.5,-301.5 197.5,-301.5"/>
<text text-anchor="start" x="205.5" y="-330.5" font-family="Helvetica,sans-Serif" font-size="10.00">seerep_hdf5/seerep</text>
<text text-anchor="start" x="205.5" y="-319.5" font-family="Helvetica,sans-Serif" font-size="10.00">_hdf5_fb/include/seerep</text>
<text text-anchor="middle" x="269" y="-308.5" font-family="Helvetica,sans-Serif" font-size="10.00">_hdf5_fb/hdf5_fb_image.h</text>
</a>
</g>
</g>
<!-- Node1&#45;&gt;Node2 -->
<g id="edge1" class="edge">
<title>Node1&#45;&gt;Node2</title>
<path fill="none" stroke="midnightblue" d="M757.41,-387.78C644.59,-372.82 446.81,-346.58 340.85,-332.53"/>
<polygon fill="midnightblue" stroke="midnightblue" points="757.01,-391.26 767.38,-389.1 757.93,-384.32 757.01,-391.26"/>
</g>
<!-- Node11 -->
<g id="node11" class="node">
<title>Node11</title>
<g id="a_node11"><a xlink:href="hdf5__fb__point_8h.html" target="_top" xlink:title=" ">
<polygon fill="none" stroke="black" points="557.5,-301.5 557.5,-342.5 694.5,-342.5 694.5,-301.5 557.5,-301.5"/>
<text text-anchor="start" x="565.5" y="-330.5" font-family="Helvetica,sans-Serif" font-size="10.00">seerep_hdf5/seerep</text>
<text text-anchor="start" x="565.5" y="-319.5" font-family="Helvetica,sans-Serif" font-size="10.00">_hdf5_fb/include/seerep</text>
<text text-anchor="middle" x="626" y="-308.5" font-family="Helvetica,sans-Serif" font-size="10.00">_hdf5_fb/hdf5_fb_point.h</text>
</a>
</g>
</g>
<!-- Node1&#45;&gt;Node11 -->
<g id="edge10" class="edge">
<title>Node1&#45;&gt;Node11</title>
<path fill="none" stroke="midnightblue" d="M776.71,-376.03C746.3,-365.33 710.51,-352.73 681.44,-342.51"/>
<polygon fill="midnightblue" stroke="midnightblue" points="775.78,-379.41 786.37,-379.43 778.1,-372.81 775.78,-379.41"/>
</g>
<!-- Node17 -->
<g id="node17" class="node">
<title>Node17</title>
<g id="a_node17"><a xlink:href="hdf5__fb__pointcloud_8h.html" target="_top" xlink:title=" ">
<polygon fill="none" stroke="black" points="760,-301.5 760,-342.5 924,-342.5 924,-301.5 760,-301.5"/>
<text text-anchor="start" x="768" y="-330.5" font-family="Helvetica,sans-Serif" font-size="10.00">seerep_hdf5/seerep</text>
<text text-anchor="start" x="768" y="-319.5" font-family="Helvetica,sans-Serif" font-size="10.00">_hdf5_fb/include/seerep</text>
<text text-anchor="middle" x="842" y="-308.5" font-family="Helvetica,sans-Serif" font-size="10.00">_hdf5_fb/hdf5_fb_pointcloud.h</text>
</a>
</g>
</g>
<!-- Node1&#45;&gt;Node17 -->
<g id="edge17" class="edge">
<title>Node1&#45;&gt;Node17</title>
<path fill="none" stroke="midnightblue" d="M842,-369.3C842,-360.3 842,-350.65 842,-342.51"/>
<polygon fill="midnightblue" stroke="midnightblue" points="838.5,-369.43 842,-379.43 845.5,-369.43 838.5,-369.43"/>
</g>
<!-- Node23 -->
<g id="node23" class="node">
<title>Node23</title>
<g id="a_node23"><a xlink:href="hdf5__fb__tf_8h.html" target="_top" xlink:title=" ">
<polygon fill="none" stroke="black" points="965.5,-301.5 965.5,-342.5 1098.5,-342.5 1098.5,-301.5 965.5,-301.5"/>
<text text-anchor="start" x="973.5" y="-330.5" font-family="Helvetica,sans-Serif" font-size="10.00">seerep_hdf5/seerep</text>
<text text-anchor="start" x="973.5" y="-319.5" font-family="Helvetica,sans-Serif" font-size="10.00">_hdf5_fb/include/seerep</text>
<text text-anchor="middle" x="1032" y="-308.5" font-family="Helvetica,sans-Serif" font-size="10.00">_hdf5_fb/hdf5_fb_tf.h</text>
</a>
</g>
</g>
<!-- Node1&#45;&gt;Node23 -->
<g id="edge24" class="edge">
<title>Node1&#45;&gt;Node23</title>
<path fill="none" stroke="midnightblue" d="M900.48,-375.61C927,-365 958,-352.6 983.24,-342.51"/>
<polygon fill="midnightblue" stroke="midnightblue" points="898.91,-372.46 890.93,-379.43 901.51,-378.96 898.91,-372.46"/>
</g>
<!-- Node29 -->
<g id="node29" class="node">
<title>Node29</title>
<g id="a_node29"><a xlink:href="hdf5__fb__general_8cpp.html" target="_top" xlink:title=" ">
<polygon fill="none" stroke="black" points="1117,-301.5 1117,-342.5 1233,-342.5 1233,-301.5 1117,-301.5"/>
<text text-anchor="start" x="1125" y="-330.5" font-family="Helvetica,sans-Serif" font-size="10.00">seerep_hdf5/seerep</text>
<text text-anchor="start" x="1125" y="-319.5" font-family="Helvetica,sans-Serif" font-size="10.00">_hdf5_fb/src/hdf5_fb</text>
<text text-anchor="middle" x="1175" y="-308.5" font-family="Helvetica,sans-Serif" font-size="10.00">_general.cpp</text>
</a>
</g>
</g>
<!-- Node1&#45;&gt;Node29 -->
<g id="edge31" class="edge">
<title>Node1&#45;&gt;Node29</title>
<path fill="none" stroke="midnightblue" d="M926.56,-383.05C979.04,-372.7 1047.73,-358.31 1108,-343 1110.94,-342.25 1113.95,-341.46 1116.98,-340.64"/>
<polygon fill="midnightblue" stroke="midnightblue" points="925.76,-379.64 916.62,-385 927.11,-386.51 925.76,-379.64"/>
</g>
<!-- Node3 -->
<g id="node3" class="node">
<title>Node3</title>
<g id="a_node3"><a xlink:href="hdf5__fb__image_8cpp.html" target="_top" xlink:title=" ">
<polygon fill="none" stroke="black" points="0,-223.5 0,-264.5 116,-264.5 116,-223.5 0,-223.5"/>
<text text-anchor="start" x="8" y="-252.5" font-family="Helvetica,sans-Serif" font-size="10.00">seerep_hdf5/seerep</text>
<text text-anchor="start" x="8" y="-241.5" font-family="Helvetica,sans-Serif" font-size="10.00">_hdf5_fb/src/hdf5_fb</text>
<text text-anchor="middle" x="58" y="-230.5" font-family="Helvetica,sans-Serif" font-size="10.00">_image.cpp</text>
</a>
</g>
</g>
<!-- Node2&#45;&gt;Node3 -->
<g id="edge2" class="edge">
<title>Node2&#45;&gt;Node3</title>
<path fill="none" stroke="midnightblue" d="M205.22,-298.03C175.51,-287.33 140.55,-274.73 112.15,-264.51"/>
<polygon fill="midnightblue" stroke="midnightblue" points="204.07,-301.33 214.66,-301.43 206.44,-294.75 204.07,-301.33"/>
</g>
<!-- Node4 -->
<g id="node4" class="node">
<title>Node4</title>
<g id="a_node4"><a xlink:href="fb__write__load__test_8cpp.html" target="_top" xlink:title=" ">
<polygon fill="none" stroke="black" points="134.5,-223.5 134.5,-264.5 257.5,-264.5 257.5,-223.5 134.5,-223.5"/>
<text text-anchor="start" x="142.5" y="-252.5" font-family="Helvetica,sans-Serif" font-size="10.00">seerep_hdf5/seerep</text>
<text text-anchor="start" x="142.5" y="-241.5" font-family="Helvetica,sans-Serif" font-size="10.00">_hdf5_fb/test/fb_write</text>
<text text-anchor="middle" x="196" y="-230.5" font-family="Helvetica,sans-Serif" font-size="10.00">_load_test.cpp</text>
</a>
</g>
</g>
<!-- Node2&#45;&gt;Node4 -->
<g id="edge3" class="edge">
<title>Node2&#45;&gt;Node4</title>
<path fill="none" stroke="midnightblue" d="M243.26,-294.2C233.86,-284.42 223.41,-273.54 214.74,-264.51"/>
<polygon fill="midnightblue" stroke="midnightblue" points="240.75,-296.64 250.2,-301.43 245.8,-291.79 240.75,-296.64"/>
</g>
<!-- Node5 -->
<g id="node5" class="node">
<title>Node5</title>
<g id="a_node5"><a xlink:href="core__fb__image_8h.html" target="_top" xlink:title=" ">
<polygon fill="none" stroke="black" points="276,-223.5 276,-264.5 408,-264.5 408,-223.5 276,-223.5"/>
<text text-anchor="start" x="284" y="-252.5" font-family="Helvetica,sans-Serif" font-size="10.00">seerep_srv/seerep_core</text>
<text text-anchor="start" x="284" y="-241.5" font-family="Helvetica,sans-Serif" font-size="10.00">_fb/include/seerep_core</text>
<text text-anchor="middle" x="342" y="-230.5" font-family="Helvetica,sans-Serif" font-size="10.00">_fb/core_fb_image.h</text>
</a>
</g>
</g>
<!-- Node2&#45;&gt;Node5 -->
<g id="edge4" class="edge">
<title>Node2&#45;&gt;Node5</title>
<path fill="none" stroke="midnightblue" d="M294.74,-294.2C304.14,-284.42 314.59,-273.54 323.26,-264.51"/>
<polygon fill="midnightblue" stroke="midnightblue" points="292.2,-291.79 287.8,-301.43 297.25,-296.64 292.2,-291.79"/>
</g>
<!-- Node6 -->
<g id="node6" class="node">
<title>Node6</title>
<g id="a_node6"><a xlink:href="core__fb__image_8cpp.html" target="_top" xlink:title=" ">
<polygon fill="none" stroke="black" points="288,-151 288,-181 432,-181 432,-151 288,-151"/>
<text text-anchor="start" x="296" y="-169" font-family="Helvetica,sans-Serif" font-size="10.00">seerep_srv/seerep_core</text>
<text text-anchor="middle" x="360" y="-158" font-family="Helvetica,sans-Serif" font-size="10.00">_fb/src/core_fb_image.cpp</text>
</a>
</g>
</g>
<!-- Node5&#45;&gt;Node6 -->
<g id="edge5" class="edge">
<title>Node5&#45;&gt;Node6</title>
<path fill="none" stroke="midnightblue" d="M348.96,-213.62C351.59,-202.5 354.47,-190.34 356.63,-181.23"/>
<polygon fill="midnightblue" stroke="midnightblue" points="345.53,-212.89 346.64,-223.43 352.35,-214.5 345.53,-212.89"/>
</g>
<!-- Node7 -->
<g id="node7" class="node">
<title>Node7</title>
<g id="a_node7"><a xlink:href="fb__image__service_8h.html" target="_top" xlink:title=" ">
<polygon fill="none" stroke="black" points="128,-145.5 128,-186.5 270,-186.5 270,-145.5 128,-145.5"/>
<text text-anchor="start" x="136" y="-174.5" font-family="Helvetica,sans-Serif" font-size="10.00">seerep_srv/seerep_server</text>
<text text-anchor="start" x="136" y="-163.5" font-family="Helvetica,sans-Serif" font-size="10.00">/include/seerep_server</text>
<text text-anchor="middle" x="199" y="-152.5" font-family="Helvetica,sans-Serif" font-size="10.00">/fb_image_service.h</text>
</a>
</g>
</g>
<!-- Node5&#45;&gt;Node7 -->
<g id="edge6" class="edge">
<title>Node5&#45;&gt;Node7</title>
<path fill="none" stroke="midnightblue" d="M296.14,-218.63C276.6,-208.24 254.11,-196.29 235.7,-186.51"/>
<polygon fill="midnightblue" stroke="midnightblue" points="294.7,-221.83 305.17,-223.43 297.99,-215.64 294.7,-221.83"/>
</g>
<!-- Node8 -->
<g id="node8" class="node">
<title>Node8</title>
<g id="a_node8"><a xlink:href="server_8h.html" target="_top" xlink:title=" ">
<polygon fill="none" stroke="black" points="601,-67.5 601,-108.5 743,-108.5 743,-67.5 601,-67.5"/>
<text text-anchor="start" x="609" y="-96.5" font-family="Helvetica,sans-Serif" font-size="10.00">seerep_srv/seerep_server</text>
<text text-anchor="start" x="609" y="-85.5" font-family="Helvetica,sans-Serif" font-size="10.00">/include/seerep_server</text>
<text text-anchor="middle" x="672" y="-74.5" font-family="Helvetica,sans-Serif" font-size="10.00">/server.h</text>
</a>
</g>
</g>
<!-- Node7&#45;&gt;Node8 -->
<g id="edge7" class="edge">
<title>Node7&#45;&gt;Node8</title>
<path fill="none" stroke="midnightblue" d="M280.54,-144.84C418.58,-120.6 457.46,-133.45 592,-109 594.82,-108.49 597.68,-107.93 600.57,-107.35"/>
<polygon fill="midnightblue" stroke="midnightblue" points="279.66,-141.44 270.43,-146.65 280.89,-148.34 279.66,-141.44"/>
</g>
<!-- Node10 -->
<g id="node10" class="node">
<title>Node10</title>
<g id="a_node10"><a xlink:href="fb__image__service_8cpp.html" target="_top" xlink:title=" ">
<polygon fill="none" stroke="black" points="127.5,-73 127.5,-103 270.5,-103 270.5,-73 127.5,-73"/>
<text text-anchor="start" x="135.5" y="-91" font-family="Helvetica,sans-Serif" font-size="10.00">seerep_srv/seerep_server</text>
<text text-anchor="middle" x="199" y="-80" font-family="Helvetica,sans-Serif" font-size="10.00">/src/fb_image_service.cpp</text>
</a>
</g>
</g>
<!-- Node7&#45;&gt;Node10 -->
<g id="edge9" class="edge">
<title>Node7&#45;&gt;Node10</title>
<path fill="none" stroke="midnightblue" d="M199,-135.28C199,-124.25 199,-112.25 199,-103.23"/>
<polygon fill="midnightblue" stroke="midnightblue" points="195.5,-135.43 199,-145.43 202.5,-135.43 195.5,-135.43"/>
</g>
<!-- Node9 -->
<g id="node9" class="node">
<title>Node9</title>
<g id="a_node9"><a xlink:href="server_8cpp.html" target="_top" xlink:title=" ">
<polygon fill="none" stroke="black" points="601,-0.5 601,-30.5 743,-30.5 743,-0.5 601,-0.5"/>
<text text-anchor="start" x="609" y="-18.5" font-family="Helvetica,sans-Serif" font-size="10.00">seerep_srv/seerep_server</text>
<text text-anchor="middle" x="672" y="-7.5" font-family="Helvetica,sans-Serif" font-size="10.00">/src/server.cpp</text>
</a>
</g>
</g>
<!-- Node8&#45;&gt;Node9 -->
<g id="edge8" class="edge">
<title>Node8&#45;&gt;Node9</title>
<path fill="none" stroke="midnightblue" d="M672,-57.08C672,-48.01 672,-38.45 672,-30.89"/>
<polygon fill="midnightblue" stroke="midnightblue" points="668.5,-57.36 672,-67.36 675.5,-57.36 668.5,-57.36"/>
</g>
<!-- Node12 -->
<g id="node12" class="node">
<title>Node12</title>
<g id="a_node12"><a xlink:href="hdf5__fb__point_8cpp.html" target="_top" xlink:title=" ">
<polygon fill="none" stroke="black" points="426,-223.5 426,-264.5 542,-264.5 542,-223.5 426,-223.5"/>
<text text-anchor="start" x="434" y="-252.5" font-family="Helvetica,sans-Serif" font-size="10.00">seerep_hdf5/seerep</text>
<text text-anchor="start" x="434" y="-241.5" font-family="Helvetica,sans-Serif" font-size="10.00">_hdf5_fb/src/hdf5_fb</text>
<text text-anchor="middle" x="484" y="-230.5" font-family="Helvetica,sans-Serif" font-size="10.00">_point.cpp</text>
</a>
</g>
</g>
<!-- Node11&#45;&gt;Node12 -->
<g id="edge11" class="edge">
<title>Node11&#45;&gt;Node12</title>
<path fill="none" stroke="midnightblue" d="M580.46,-296.63C561.06,-286.24 538.73,-274.29 520.44,-264.51"/>
<polygon fill="midnightblue" stroke="midnightblue" points="578.96,-299.8 589.43,-301.43 582.27,-293.62 578.96,-299.8"/>
</g>
<!-- Node13 -->
<g id="node13" class="node">
<title>Node13</title>
<g id="a_node13"><a xlink:href="core__fb__point_8h.html" target="_top" xlink:title=" ">
<polygon fill="none" stroke="black" points="560,-223.5 560,-264.5 692,-264.5 692,-223.5 560,-223.5"/>
<text text-anchor="start" x="568" y="-252.5" font-family="Helvetica,sans-Serif" font-size="10.00">seerep_srv/seerep_core</text>
<text text-anchor="start" x="568" y="-241.5" font-family="Helvetica,sans-Serif" font-size="10.00">_fb/include/seerep_core</text>
<text text-anchor="middle" x="626" y="-230.5" font-family="Helvetica,sans-Serif" font-size="10.00">_fb/core_fb_point.h</text>
</a>
</g>
</g>
<!-- Node11&#45;&gt;Node13 -->
<g id="edge12" class="edge">
<title>Node11&#45;&gt;Node13</title>
<path fill="none" stroke="midnightblue" d="M626,-291.3C626,-282.3 626,-272.65 626,-264.51"/>
<polygon fill="midnightblue" stroke="midnightblue" points="622.5,-291.43 626,-301.43 629.5,-291.43 622.5,-291.43"/>
</g>
<!-- Node14 -->
<g id="node14" class="node">
<title>Node14</title>
<g id="a_node14"><a xlink:href="core__fb__point_8cpp.html" target="_top" xlink:title=" ">
<polygon fill="none" stroke="black" points="610,-151 610,-181 748,-181 748,-151 610,-151"/>
<text text-anchor="start" x="618" y="-169" font-family="Helvetica,sans-Serif" font-size="10.00">seerep_srv/seerep_core</text>
<text text-anchor="middle" x="679" y="-158" font-family="Helvetica,sans-Serif" font-size="10.00">_fb/src/core_fb_point.cpp</text>
</a>
</g>
</g>
<!-- Node13&#45;&gt;Node14 -->
<g id="edge13" class="edge">
<title>Node13&#45;&gt;Node14</title>
<path fill="none" stroke="midnightblue" d="M645.54,-214.98C653.55,-203.5 662.46,-190.71 669.08,-181.23"/>
<polygon fill="midnightblue" stroke="midnightblue" points="642.5,-213.22 639.65,-223.43 648.24,-217.23 642.5,-213.22"/>
</g>
<!-- Node15 -->
<g id="node15" class="node">
<title>Node15</title>
<g id="a_node15"><a xlink:href="fb__point__service_8h.html" target="_top" xlink:title=" ">
<polygon fill="none" stroke="black" points="450,-145.5 450,-186.5 592,-186.5 592,-145.5 450,-145.5"/>
<text text-anchor="start" x="458" y="-174.5" font-family="Helvetica,sans-Serif" font-size="10.00">seerep_srv/seerep_server</text>
<text text-anchor="start" x="458" y="-163.5" font-family="Helvetica,sans-Serif" font-size="10.00">/include/seerep_server</text>
<text text-anchor="middle" x="521" y="-152.5" font-family="Helvetica,sans-Serif" font-size="10.00">/fb_point_service.h</text>
</a>
</g>
</g>
<!-- Node13&#45;&gt;Node15 -->
<g id="edge14" class="edge">
<title>Node13&#45;&gt;Node15</title>
<path fill="none" stroke="midnightblue" d="M590.56,-217.35C576.64,-207.27 560.92,-195.89 547.95,-186.51"/>
<polygon fill="midnightblue" stroke="midnightblue" points="588.81,-220.4 598.96,-223.43 592.91,-214.73 588.81,-220.4"/>
</g>
<!-- Node15&#45;&gt;Node8 -->
<g id="edge15" class="edge">
<title>Node15&#45;&gt;Node8</title>
<path fill="none" stroke="midnightblue" d="M568.87,-140.91C589.63,-130.46 613.63,-118.38 633.25,-108.51"/>
<polygon fill="midnightblue" stroke="midnightblue" points="567.25,-137.81 559.89,-145.43 570.39,-144.06 567.25,-137.81"/>
</g>
<!-- Node16 -->
<g id="node16" class="node">
<title>Node16</title>
<g id="a_node16"><a xlink:href="fb__point__service_8cpp.html" target="_top" xlink:title=" ">
<polygon fill="none" stroke="black" points="441,-73 441,-103 583,-103 583,-73 441,-73"/>
<text text-anchor="start" x="449" y="-91" font-family="Helvetica,sans-Serif" font-size="10.00">seerep_srv/seerep_server</text>
<text text-anchor="middle" x="512" y="-80" font-family="Helvetica,sans-Serif" font-size="10.00">/src/fb_point_service.cpp</text>
</a>
</g>
</g>
<!-- Node15&#45;&gt;Node16 -->
<g id="edge16" class="edge">
<title>Node15&#45;&gt;Node16</title>
<path fill="none" stroke="midnightblue" d="M517.48,-135.28C516.17,-124.25 514.75,-112.25 513.68,-103.23"/>
<polygon fill="midnightblue" stroke="midnightblue" points="514.03,-135.91 518.68,-145.43 520.98,-135.09 514.03,-135.91"/>
</g>
<!-- Node18 -->
<g id="node18" class="node">
<title>Node18</title>
<g id="a_node18"><a xlink:href="hdf5__fb__pointcloud_8cpp.html" target="_top" xlink:title=" ">
<polygon fill="none" stroke="black" points="710,-223.5 710,-264.5 826,-264.5 826,-223.5 710,-223.5"/>
<text text-anchor="start" x="718" y="-252.5" font-family="Helvetica,sans-Serif" font-size="10.00">seerep_hdf5/seerep</text>
<text text-anchor="start" x="718" y="-241.5" font-family="Helvetica,sans-Serif" font-size="10.00">_hdf5_fb/src/hdf5_fb</text>
<text text-anchor="middle" x="768" y="-230.5" font-family="Helvetica,sans-Serif" font-size="10.00">_pointcloud.cpp</text>
</a>
</g>
</g>
<!-- Node17&#45;&gt;Node18 -->
<g id="edge18" class="edge">
<title>Node17&#45;&gt;Node18</title>
<path fill="none" stroke="midnightblue" d="M815.91,-294.2C806.38,-284.42 795.79,-273.54 786.99,-264.51"/>
<polygon fill="midnightblue" stroke="midnightblue" points="813.46,-296.71 822.94,-301.43 818.47,-291.82 813.46,-296.71"/>
</g>
<!-- Node19 -->
<g id="node19" class="node">
<title>Node19</title>
<g id="a_node19"><a xlink:href="core__fb__pointcloud_8h.html" target="_top" xlink:title=" ">
<polygon fill="none" stroke="black" points="844,-223.5 844,-264.5 980,-264.5 980,-223.5 844,-223.5"/>
<text text-anchor="start" x="852" y="-252.5" font-family="Helvetica,sans-Serif" font-size="10.00">seerep_srv/seerep_core</text>
<text text-anchor="start" x="852" y="-241.5" font-family="Helvetica,sans-Serif" font-size="10.00">_fb/include/seerep_core</text>
<text text-anchor="middle" x="912" y="-230.5" font-family="Helvetica,sans-Serif" font-size="10.00">_fb/core_fb_pointcloud.h</text>
</a>
</g>
</g>
<!-- Node17&#45;&gt;Node19 -->
<g id="edge19" class="edge">
<title>Node17&#45;&gt;Node19</title>
<path fill="none" stroke="midnightblue" d="M866.95,-293.92C875.89,-284.2 885.8,-273.45 894.03,-264.51"/>
<polygon fill="midnightblue" stroke="midnightblue" points="864.23,-291.7 860.03,-301.43 869.38,-296.44 864.23,-291.7"/>
</g>
<!-- Node20 -->
<g id="node20" class="node">
<title>Node20</title>
<g id="a_node20"><a xlink:href="core__fb__pointcloud_8cpp.html" target="_top" xlink:title=" ">
<polygon fill="none" stroke="black" points="926,-151 926,-181 1090,-181 1090,-151 926,-151"/>
<text text-anchor="start" x="934" y="-169" font-family="Helvetica,sans-Serif" font-size="10.00">seerep_srv/seerep_core</text>
<text text-anchor="middle" x="1008" y="-158" font-family="Helvetica,sans-Serif" font-size="10.00">_fb/src/core_fb_pointcloud.cpp</text>
</a>
</g>
</g>
<!-- Node19&#45;&gt;Node20 -->
<g id="edge20" class="edge">
<title>Node19&#45;&gt;Node20</title>
<path fill="none" stroke="midnightblue" d="M944.85,-216.99C959.98,-205.02 977.34,-191.27 990.03,-181.23"/>
<polygon fill="midnightblue" stroke="midnightblue" points="942.39,-214.48 936.72,-223.43 946.74,-219.97 942.39,-214.48"/>
</g>
<!-- Node21 -->
<g id="node21" class="node">
<title>Node21</title>
<g id="a_node21"><a xlink:href="fb__point__cloud__service_8h.html" target="_top" xlink:title=" ">
<polygon fill="none" stroke="black" points="766,-145.5 766,-186.5 908,-186.5 908,-145.5 766,-145.5"/>
<text text-anchor="start" x="774" y="-174.5" font-family="Helvetica,sans-Serif" font-size="10.00">seerep_srv/seerep_server</text>
<text text-anchor="start" x="774" y="-163.5" font-family="Helvetica,sans-Serif" font-size="10.00">/include/seerep_server</text>
<text text-anchor="middle" x="837" y="-152.5" font-family="Helvetica,sans-Serif" font-size="10.00">/fb_point_cloud_service.h</text>
</a>
</g>
</g>
<!-- Node19&#45;&gt;Node21 -->
<g id="edge21" class="edge">
<title>Node19&#45;&gt;Node21</title>
<path fill="none" stroke="midnightblue" d="M885.56,-216.2C875.9,-206.42 865.16,-195.54 856.25,-186.51"/>
<polygon fill="midnightblue" stroke="midnightblue" points="883.17,-218.77 892.69,-223.43 888.15,-213.85 883.17,-218.77"/>
</g>
<!-- Node21&#45;&gt;Node8 -->
<g id="edge22" class="edge">
<title>Node21&#45;&gt;Node8</title>
<path fill="none" stroke="midnightblue" d="M785.31,-141.19C762.48,-130.67 735.98,-118.47 714.35,-108.51"/>
<polygon fill="midnightblue" stroke="midnightblue" points="783.96,-144.42 794.51,-145.43 786.89,-138.07 783.96,-144.42"/>
</g>
<!-- Node22 -->
<g id="node22" class="node">
<title>Node22</title>
<g id="a_node22"><a xlink:href="fb__point__cloud__service_8cpp.html" target="_top" xlink:title=" ">
<polygon fill="none" stroke="black" points="761.5,-73 761.5,-103 930.5,-103 930.5,-73 761.5,-73"/>
<text text-anchor="start" x="769.5" y="-91" font-family="Helvetica,sans-Serif" font-size="10.00">seerep_srv/seerep_server</text>
<text text-anchor="middle" x="846" y="-80" font-family="Helvetica,sans-Serif" font-size="10.00">/src/fb_point_cloud_service.cpp</text>
</a>
</g>
</g>
<!-- Node21&#45;&gt;Node22 -->
<g id="edge23" class="edge">
<title>Node21&#45;&gt;Node22</title>
<path fill="none" stroke="midnightblue" d="M840.52,-135.28C841.83,-124.25 843.25,-112.25 844.32,-103.23"/>
<polygon fill="midnightblue" stroke="midnightblue" points="837.02,-135.09 839.32,-145.43 843.97,-135.91 837.02,-135.09"/>
</g>
<!-- Node24 -->
<g id="node24" class="node">
<title>Node24</title>
<g id="a_node24"><a xlink:href="hdf5__fb__tf_8cpp.html" target="_top" xlink:title=" ">
<polygon fill="none" stroke="black" points="998,-223.5 998,-264.5 1114,-264.5 1114,-223.5 998,-223.5"/>
<text text-anchor="start" x="1006" y="-252.5" font-family="Helvetica,sans-Serif" font-size="10.00">seerep_hdf5/seerep</text>
<text text-anchor="start" x="1006" y="-241.5" font-family="Helvetica,sans-Serif" font-size="10.00">_hdf5_fb/src/hdf5_fb</text>
<text text-anchor="middle" x="1056" y="-230.5" font-family="Helvetica,sans-Serif" font-size="10.00">_tf.cpp</text>
</a>
</g>
</g>
<!-- Node23&#45;&gt;Node24 -->
<g id="edge25" class="edge">
<title>Node23&#45;&gt;Node24</title>
<path fill="none" stroke="midnightblue" d="M1041.2,-291.88C1044.09,-282.72 1047.21,-272.83 1049.84,-264.51"/>
<polygon fill="midnightblue" stroke="midnightblue" points="1037.85,-290.84 1038.18,-301.43 1044.53,-292.95 1037.85,-290.84"/>
</g>
<!-- Node25 -->
<g id="node25" class="node">
<title>Node25</title>
<g id="a_node25"><a xlink:href="core__fb__tf_8h.html" target="_top" xlink:title=" ">
<polygon fill="none" stroke="black" points="1132,-223.5 1132,-264.5 1264,-264.5 1264,-223.5 1132,-223.5"/>
<text text-anchor="start" x="1140" y="-252.5" font-family="Helvetica,sans-Serif" font-size="10.00">seerep_srv/seerep_core</text>
<text text-anchor="start" x="1140" y="-241.5" font-family="Helvetica,sans-Serif" font-size="10.00">_fb/include/seerep_core</text>
<text text-anchor="middle" x="1198" y="-230.5" font-family="Helvetica,sans-Serif" font-size="10.00">_fb/core_fb_tf.h</text>
</a>
</g>
</g>
<!-- Node23&#45;&gt;Node25 -->
<g id="edge26" class="edge">
<title>Node23&#45;&gt;Node25</title>
<path fill="none" stroke="midnightblue" d="M1084.01,-297.19C1106.97,-286.67 1133.63,-274.47 1155.4,-264.51"/>
<polygon fill="midnightblue" stroke="midnightblue" points="1082.38,-294.08 1074.75,-301.43 1085.3,-300.45 1082.38,-294.08"/>
</g>
<!-- Node26 -->
<g id="node26" class="node">
<title>Node26</title>
<g id="a_node26"><a xlink:href="core__fb__tf_8cpp.html" target="_top" xlink:title=" ">
<polygon fill="none" stroke="black" points="1268,-151 1268,-181 1400,-181 1400,-151 1268,-151"/>
<text text-anchor="start" x="1276" y="-169" font-family="Helvetica,sans-Serif" font-size="10.00">seerep_srv/seerep_core</text>
<text text-anchor="middle" x="1334" y="-158" font-family="Helvetica,sans-Serif" font-size="10.00">_fb/src/core_fb_tf.cpp</text>
</a>
</g>
</g>
<!-- Node25&#45;&gt;Node26 -->
<g id="edge27" class="edge">
<title>Node25&#45;&gt;Node26</title>
<path fill="none" stroke="midnightblue" d="M1241.88,-218.48C1263.91,-206.17 1289.82,-191.69 1308.54,-181.23"/>
<polygon fill="midnightblue" stroke="midnightblue" points="1240.05,-215.49 1233.02,-223.43 1243.46,-221.61 1240.05,-215.49"/>
</g>
<!-- Node27 -->
<g id="node27" class="node">
<title>Node27</title>
<g id="a_node27"><a xlink:href="fb__tf__service_8h.html" target="_top" xlink:title=" ">
<polygon fill="none" stroke="black" points="1108,-145.5 1108,-186.5 1250,-186.5 1250,-145.5 1108,-145.5"/>
<text text-anchor="start" x="1116" y="-174.5" font-family="Helvetica,sans-Serif" font-size="10.00">seerep_srv/seerep_server</text>
<text text-anchor="start" x="1116" y="-163.5" font-family="Helvetica,sans-Serif" font-size="10.00">/include/seerep_server</text>
<text text-anchor="middle" x="1179" y="-152.5" font-family="Helvetica,sans-Serif" font-size="10.00">/fb_tf_service.h</text>
</a>
</g>
</g>
<!-- Node25&#45;&gt;Node27 -->
<g id="edge28" class="edge">
<title>Node25&#45;&gt;Node27</title>
<path fill="none" stroke="midnightblue" d="M1190.65,-213.59C1188.38,-204.51 1185.94,-194.74 1183.88,-186.51"/>
<polygon fill="midnightblue" stroke="midnightblue" points="1187.29,-214.58 1193.11,-223.43 1194.08,-212.88 1187.29,-214.58"/>
</g>
<!-- Node27&#45;&gt;Node8 -->
<g id="edge29" class="edge">
<title>Node27&#45;&gt;Node8</title>
<path fill="none" stroke="midnightblue" d="M1097.35,-144.84C944.46,-118.87 901.42,-135.29 752,-109 749.18,-108.5 746.31,-107.96 743.42,-107.39"/>
<polygon fill="midnightblue" stroke="midnightblue" points="1097.13,-148.35 1107.58,-146.61 1098.32,-141.46 1097.13,-148.35"/>
</g>
<!-- Node28 -->
<g id="node28" class="node">
<title>Node28</title>
<g id="a_node28"><a xlink:href="fb__tf__service_8cpp.html" target="_top" xlink:title=" ">
<polygon fill="none" stroke="black" points="1108,-73 1108,-103 1250,-103 1250,-73 1108,-73"/>
<text text-anchor="start" x="1116" y="-91" font-family="Helvetica,sans-Serif" font-size="10.00">seerep_srv/seerep_server</text>
<text text-anchor="middle" x="1179" y="-80" font-family="Helvetica,sans-Serif" font-size="10.00">/src/fb_tf_service.cpp</text>
</a>
</g>
</g>
<!-- Node27&#45;&gt;Node28 -->
<g id="edge30" class="edge">
<title>Node27&#45;&gt;Node28</title>
<path fill="none" stroke="midnightblue" d="M1179,-135.28C1179,-124.25 1179,-112.25 1179,-103.23"/>
<polygon fill="midnightblue" stroke="midnightblue" points="1175.5,-135.43 1179,-145.43 1182.5,-135.43 1175.5,-135.43"/>
</g>
</g>
</svg>
