<?xml version="1.0" encoding="UTF-8" standalone="no"?>
<!DOCTYPE svg PUBLIC "-//W3C//DTD SVG 1.1//EN"
 "http://www.w3.org/Graphics/SVG/1.1/DTD/svg11.dtd">
<!-- Generated by graphviz version 2.43.0 (0)
 -->
<!-- Title: seerep_hdf5/seerep_hdf5_core/include/seerep_hdf5_core/hdf5_core_image.h Pages: 1 -->
<svg width="2633pt" height="296pt"
 viewBox="0.00 0.00 2633.00 296.00" xmlns="http://www.w3.org/2000/svg" xmlns:xlink="http://www.w3.org/1999/xlink">
<g id="graph0" class="graph" transform="scale(1 1) rotate(0) translate(4 292)">
<title>seerep_hdf5/seerep_hdf5_core/include/seerep_hdf5_core/hdf5_core_image.h</title>
<!-- Node1 -->
<g id="node1" class="node">
<title>Node1</title>
<g id="a_node1"><a xlink:title=" ">
<polygon fill="#bfbfbf" stroke="black" points="1745,-246.5 1745,-287.5 1911,-287.5 1911,-246.5 1745,-246.5"/>
<text text-anchor="start" x="1753" y="-275.5" font-family="Helvetica,sans-Serif" font-size="10.00">seerep_hdf5/seerep</text>
<text text-anchor="start" x="1753" y="-264.5" font-family="Helvetica,sans-Serif" font-size="10.00">_hdf5_core/include/seerep</text>
<text text-anchor="middle" x="1828" y="-253.5" font-family="Helvetica,sans-Serif" font-size="10.00">_hdf5_core/hdf5_core_image.h</text>
</a>
</g>
</g>
<!-- Node2 -->
<g id="node2" class="node">
<title>Node2</title>
<g id="a_node2"><a xlink:title=" ">
<polygon fill="none" stroke="#bfbfbf" points="0,-62 0,-81 110,-81 110,-62 0,-62"/>
<text text-anchor="middle" x="55" y="-69" font-family="Helvetica,sans-Serif" font-size="10.00">highfive/H5File.hpp</text>
</a>
</g>
</g>
<!-- Node1&#45;&gt;Node2 -->
<g id="edge1" class="edge">
<title>Node1&#45;&gt;Node2</title>
<path fill="none" stroke="midnightblue" d="M1744.95,-263.47C1526.62,-255.94 918.86,-229.3 419,-154 300.53,-136.15 163.19,-101.54 96.13,-83.71"/>
<polygon fill="midnightblue" stroke="midnightblue" points="96.93,-80.3 86.36,-81.1 95.12,-87.07 96.93,-80.3"/>
</g>
<!-- Node3 -->
<g id="node3" class="node">
<title>Node3</title>
<g id="a_node3"><a xlink:href="hdf5__core__cameraintrinsics_8h.html" target="_top" xlink:title=" ">
<polygon fill="none" stroke="black" points="1433,-190.5 1433,-209.5 1593,-209.5 1593,-190.5 1433,-190.5"/>
<text text-anchor="middle" x="1513" y="-197.5" font-family="Helvetica,sans-Serif" font-size="10.00">hdf5_core_cameraintrinsics.h</text>
</a>
</g>
</g>
<!-- Node1&#45;&gt;Node3 -->
<g id="edge2" class="edge">
<title>Node1&#45;&gt;Node3</title>
<path fill="none" stroke="midnightblue" d="M1744.83,-248.84C1687.48,-237 1613.07,-221.65 1564.23,-211.57"/>
<polygon fill="midnightblue" stroke="midnightblue" points="1564.71,-208.1 1554.21,-209.5 1563.29,-214.95 1564.71,-208.1"/>
</g>
<!-- Node5 -->
<g id="node5" class="node">
<title>Node5</title>
<g id="a_node5"><a xlink:href="hdf5__core__general_8h.html" target="_top" xlink:title=" ">
<polygon fill="none" stroke="black" points="1136,-123.5 1136,-153.5 1264,-153.5 1264,-123.5 1136,-123.5"/>
<text text-anchor="start" x="1144" y="-141.5" font-family="Helvetica,sans-Serif" font-size="10.00">seerep_hdf5_core/hdf5</text>
<text text-anchor="middle" x="1200" y="-130.5" font-family="Helvetica,sans-Serif" font-size="10.00">_core_general.h</text>
</a>
</g>
</g>
<!-- Node1&#45;&gt;Node5 -->
<g id="edge35" class="edge">
<title>Node1&#45;&gt;Node5</title>
<path fill="none" stroke="midnightblue" d="M1744.88,-263.84C1612.27,-259.35 1359.46,-246.2 1278,-210 1253.85,-199.27 1232.07,-178.13 1217.7,-161.79"/>
<polygon fill="midnightblue" stroke="midnightblue" points="1220.03,-159.12 1210.89,-153.76 1214.69,-163.65 1220.03,-159.12"/>
</g>
<!-- Node7 -->
<g id="node7" class="node">
<title>Node7</title>
<g id="a_node7"><a xlink:title=" ">
<polygon fill="none" stroke="#bfbfbf" points="2429.5,-56.5 2429.5,-86.5 2550.5,-86.5 2550.5,-56.5 2429.5,-56.5"/>
<text text-anchor="start" x="2437.5" y="-74.5" font-family="Helvetica,sans-Serif" font-size="10.00">seerep_msgs/dataset</text>
<text text-anchor="middle" x="2490" y="-63.5" font-family="Helvetica,sans-Serif" font-size="10.00">_indexable.h</text>
</a>
</g>
</g>
<!-- Node1&#45;&gt;Node7 -->
<g id="edge36" class="edge">
<title>Node1&#45;&gt;Node7</title>
<path fill="none" stroke="midnightblue" d="M1911.21,-262.97C2006.16,-257.94 2165.44,-244.68 2298,-210 2360.84,-193.56 2382.36,-194.69 2433,-154 2452.65,-138.21 2468.42,-113.93 2478.35,-95.98"/>
<polygon fill="midnightblue" stroke="midnightblue" points="2481.65,-97.22 2483.25,-86.75 2475.47,-93.94 2481.65,-97.22"/>
</g>
<!-- Node10 -->
<g id="node10" class="node">
<title>Node10</title>
<g id="a_node10"><a xlink:title=" ">
<polygon fill="none" stroke="#bfbfbf" points="1163,-62 1163,-81 1327,-81 1327,-62 1163,-62"/>
<text text-anchor="middle" x="1245" y="-69" font-family="Helvetica,sans-Serif" font-size="10.00">seerep_msgs/label_category.h</text>
</a>
</g>
</g>
<!-- Node1&#45;&gt;Node10 -->
<g id="edge37" class="edge">
<title>Node1&#45;&gt;Node10</title>
<path fill="none" stroke="midnightblue" d="M1744.68,-262.28C1661.79,-256.77 1531.76,-243.21 1424,-210 1370.43,-193.49 1354.76,-189.03 1311,-154 1287.97,-135.57 1267.66,-107.83 1255.85,-89.94"/>
<polygon fill="midnightblue" stroke="midnightblue" points="1258.54,-87.66 1250.2,-81.14 1252.65,-91.44 1258.54,-87.66"/>
</g>
<!-- Node11 -->
<g id="node11" class="node">
<title>Node11</title>
<g id="a_node11"><a xlink:title=" ">
<polygon fill="none" stroke="#bfbfbf" points="1345.5,-62 1345.5,-81 1458.5,-81 1458.5,-62 1345.5,-62"/>
<text text-anchor="middle" x="1402" y="-69" font-family="Helvetica,sans-Serif" font-size="10.00">boost/geometry.hpp</text>
</a>
</g>
</g>
<!-- Node1&#45;&gt;Node11 -->
<g id="edge38" class="edge">
<title>Node1&#45;&gt;Node11</title>
<path fill="none" stroke="midnightblue" d="M1817.55,-246.23C1798.35,-210.65 1757.19,-138.15 1733,-123 1631.89,-59.68 1584.44,-108.01 1467,-87 1460.73,-85.88 1454.14,-84.57 1447.67,-83.2"/>
<polygon fill="midnightblue" stroke="midnightblue" points="1448.17,-79.73 1437.65,-81.03 1446.68,-86.57 1448.17,-79.73"/>
</g>
<!-- Node13 -->
<g id="node13" class="node">
<title>Node13</title>
<g id="a_node13"><a xlink:title=" ">
<polygon fill="none" stroke="#bfbfbf" points="2569,-62 2569,-81 2625,-81 2625,-62 2569,-62"/>
<text text-anchor="middle" x="2597" y="-69" font-family="Helvetica,sans-Serif" font-size="10.00">optional</text>
</a>
</g>
</g>
<!-- Node1&#45;&gt;Node13 -->
<g id="edge39" class="edge">
<title>Node1&#45;&gt;Node13</title>
<path fill="none" stroke="midnightblue" d="M1911.27,-266.07C2015.45,-264.11 2198.36,-253.92 2348,-210 2440.95,-182.72 2537.65,-116.51 2577.78,-87.05"/>
<polygon fill="midnightblue" stroke="midnightblue" points="2579.95,-89.8 2585.89,-81.03 2575.78,-84.18 2579.95,-89.8"/>
</g>
<!-- Node17 -->
<g id="node17" class="node">
<title>Node17</title>
<g id="a_node17"><a xlink:title=" ">
<polygon fill="none" stroke="#bfbfbf" points="1476.5,-62 1476.5,-81 1619.5,-81 1619.5,-62 1476.5,-62"/>
<text text-anchor="middle" x="1548" y="-69" font-family="Helvetica,sans-Serif" font-size="10.00">boost/functional/hash.hpp</text>
</a>
</g>
</g>
<!-- Node1&#45;&gt;Node17 -->
<g id="edge40" class="edge">
<title>Node1&#45;&gt;Node17</title>
<path fill="none" stroke="midnightblue" d="M1825.21,-246.5C1819.71,-215.45 1804.46,-155.04 1766,-123 1753.59,-112.66 1665.23,-94.43 1604.89,-82.93"/>
<polygon fill="midnightblue" stroke="midnightblue" points="1605.19,-79.43 1594.71,-81.01 1603.89,-86.31 1605.19,-79.43"/>
</g>
<!-- Node18 -->
<g id="node18" class="node">
<title>Node18</title>
<g id="a_node18"><a xlink:title=" ">
<polygon fill="none" stroke="#bfbfbf" points="1637.5,-62 1637.5,-81 1762.5,-81 1762.5,-62 1637.5,-62"/>
<text text-anchor="middle" x="1700" y="-69" font-family="Helvetica,sans-Serif" font-size="10.00">boost/lexical_cast.hpp</text>
</a>
</g>
</g>
<!-- Node1&#45;&gt;Node18 -->
<g id="edge41" class="edge">
<title>Node1&#45;&gt;Node18</title>
<path fill="none" stroke="midnightblue" d="M1830.03,-246.26C1832,-216.48 1831.45,-159.68 1804,-123 1789.93,-104.2 1767.01,-92.04 1746.25,-84.37"/>
<polygon fill="midnightblue" stroke="midnightblue" points="1747.2,-81 1736.6,-81.06 1744.92,-87.62 1747.2,-81"/>
</g>
<!-- Node19 -->
<g id="node19" class="node">
<title>Node19</title>
<g id="a_node19"><a xlink:title=" ">
<polygon fill="none" stroke="#bfbfbf" points="2298.5,-62 2298.5,-81 2411.5,-81 2411.5,-62 2298.5,-62"/>
<text text-anchor="middle" x="2355" y="-69" font-family="Helvetica,sans-Serif" font-size="10.00">boost/uuid/uuid.hpp</text>
</a>
</g>
</g>
<!-- Node1&#45;&gt;Node19 -->
<g id="edge42" class="edge">
<title>Node1&#45;&gt;Node19</title>
<path fill="none" stroke="midnightblue" d="M1911.08,-247.89C1990.41,-229.2 2112.43,-196.77 2213,-154 2257.93,-134.9 2306.49,-104.74 2333.58,-86.96"/>
<polygon fill="midnightblue" stroke="midnightblue" points="2335.83,-89.67 2342.23,-81.23 2331.96,-83.84 2335.83,-89.67"/>
</g>
<!-- Node20 -->
<g id="node20" class="node">
<title>Node20</title>
<g id="a_node20"><a xlink:title=" ">
<polygon fill="none" stroke="#bfbfbf" points="1781,-62 1781,-81 1951,-81 1951,-62 1781,-62"/>
<text text-anchor="middle" x="1866" y="-69" font-family="Helvetica,sans-Serif" font-size="10.00">boost/uuid/uuid_generators.hpp</text>
</a>
</g>
</g>
<!-- Node1&#45;&gt;Node20 -->
<g id="edge43" class="edge">
<title>Node1&#45;&gt;Node20</title>
<path fill="none" stroke="midnightblue" d="M1833.27,-246.38C1836.06,-235.68 1839.42,-222.16 1842,-210 1850.93,-167.87 1859.03,-117.98 1863.14,-91.4"/>
<polygon fill="midnightblue" stroke="midnightblue" points="1866.65,-91.64 1864.7,-81.23 1859.73,-90.58 1866.65,-91.64"/>
</g>
<!-- Node21 -->
<g id="node21" class="node">
<title>Node21</title>
<g id="a_node21"><a xlink:title=" ">
<polygon fill="none" stroke="#bfbfbf" points="1969.5,-62 1969.5,-81 2096.5,-81 2096.5,-62 1969.5,-62"/>
<text text-anchor="middle" x="2033" y="-69" font-family="Helvetica,sans-Serif" font-size="10.00">boost/uuid/uuid_io.hpp</text>
</a>
</g>
</g>
<!-- Node1&#45;&gt;Node21 -->
<g id="edge44" class="edge">
<title>Node1&#45;&gt;Node21</title>
<path fill="none" stroke="midnightblue" d="M1848.78,-246.38C1889.48,-207.97 1978.93,-123.54 2016.19,-88.37"/>
<polygon fill="midnightblue" stroke="midnightblue" points="2018.84,-90.68 2023.71,-81.27 2014.03,-85.59 2018.84,-90.68"/>
</g>
<!-- Node29 -->
<g id="node29" class="node">
<title>Node29</title>
<g id="a_node29"><a xlink:href="hdf5__core__datatype__interface_8h.html" target="_top" xlink:title=" ">
<polygon fill="none" stroke="black" points="2310.5,-123.5 2310.5,-153.5 2423.5,-153.5 2423.5,-123.5 2310.5,-123.5"/>
<text text-anchor="start" x="2318.5" y="-141.5" font-family="Helvetica,sans-Serif" font-size="10.00">hdf5_core_datatype</text>
<text text-anchor="middle" x="2367" y="-130.5" font-family="Helvetica,sans-Serif" font-size="10.00">_interface.h</text>
</a>
</g>
</g>
<!-- Node1&#45;&gt;Node29 -->
<g id="edge31" class="edge">
<title>Node1&#45;&gt;Node29</title>
<path fill="none" stroke="midnightblue" d="M1911.35,-260.18C2020.11,-251.77 2203.97,-234.48 2267,-210 2296.45,-198.56 2325.44,-176.61 2344.56,-160.23"/>
<polygon fill="midnightblue" stroke="midnightblue" points="2346.91,-162.82 2352.12,-153.6 2342.3,-157.56 2346.91,-162.82"/>
</g>
<!-- Node3&#45;&gt;Node2 -->
<g id="edge4" class="edge">
<title>Node3&#45;&gt;Node2</title>
<path fill="none" stroke="midnightblue" d="M1432.78,-196.56C1218.43,-189.17 614.93,-162.71 119,-87 112.27,-85.97 105.19,-84.63 98.29,-83.18"/>
<polygon fill="midnightblue" stroke="midnightblue" points="98.89,-79.73 88.38,-81.01 97.39,-86.57 98.89,-79.73"/>
</g>
<!-- Node4 -->
<g id="node4" class="node">
<title>Node4</title>
<g id="a_node4"><a xlink:title=" ">
<polygon fill="none" stroke="#bfbfbf" points="1592,-129 1592,-148 1724,-148 1724,-129 1592,-129"/>
<text text-anchor="middle" x="1658" y="-136" font-family="Helvetica,sans-Serif" font-size="10.00">highfive/H5DataSet.hpp</text>
</a>
</g>
</g>
<!-- Node3&#45;&gt;Node4 -->
<g id="edge3" class="edge">
<title>Node3&#45;&gt;Node4</title>
<path fill="none" stroke="midnightblue" d="M1533.77,-190.48C1558.43,-180.36 1599.75,-163.4 1627.9,-151.85"/>
<polygon fill="midnightblue" stroke="midnightblue" points="1629.34,-155.04 1637.26,-148.01 1626.68,-148.57 1629.34,-155.04"/>
</g>
<!-- Node3&#45;&gt;Node5 -->
<g id="edge5" class="edge">
<title>Node3&#45;&gt;Node5</title>
<path fill="none" stroke="midnightblue" d="M1468.15,-190.48C1417.48,-180.84 1334.2,-165.01 1273.88,-153.54"/>
<polygon fill="midnightblue" stroke="midnightblue" points="1274.51,-150.1 1264.03,-151.67 1273.2,-156.98 1274.51,-150.1"/>
</g>
<!-- Node23 -->
<g id="node23" class="node">
<title>Node23</title>
<g id="a_node23"><a xlink:href="header_8h.html" target="_top" xlink:title=" ">
<polygon fill="none" stroke="black" points="2144.5,-129 2144.5,-148 2203.5,-148 2203.5,-129 2144.5,-129"/>
<text text-anchor="middle" x="2174" y="-136" font-family="Helvetica,sans-Serif" font-size="10.00">header.h</text>
</a>
</g>
</g>
<!-- Node3&#45;&gt;Node23 -->
<g id="edge24" class="edge">
<title>Node3&#45;&gt;Node23</title>
<path fill="none" stroke="midnightblue" d="M1593.06,-191.79C1735.6,-178.96 2028.34,-152.61 2134.47,-143.06"/>
<polygon fill="midnightblue" stroke="midnightblue" points="2134.79,-146.54 2144.44,-142.16 2134.16,-139.57 2134.79,-146.54"/>
</g>
<!-- Node27 -->
<g id="node27" class="node">
<title>Node27</title>
<g id="a_node27"><a xlink:href="region__of__interest_8h.html" target="_top" xlink:title=" ">
<polygon fill="none" stroke="black" points="1320,-129 1320,-148 1434,-148 1434,-129 1320,-129"/>
<text text-anchor="middle" x="1377" y="-136" font-family="Helvetica,sans-Serif" font-size="10.00">region_of_interest.h</text>
</a>
</g>
</g>
<!-- Node3&#45;&gt;Node27 -->
<g id="edge29" class="edge">
<title>Node3&#45;&gt;Node27</title>
<path fill="none" stroke="midnightblue" d="M1493.51,-190.48C1470.59,-180.45 1432.31,-163.7 1405.92,-152.15"/>
<polygon fill="midnightblue" stroke="midnightblue" points="1407.01,-148.81 1396.45,-148.01 1404.21,-155.22 1407.01,-148.81"/>
</g>
<!-- Node28 -->
<g id="node28" class="node">
<title>Node28</title>
<g id="a_node28"><a xlink:title=" ">
<polygon fill="none" stroke="#bfbfbf" points="1452.5,-123.5 1452.5,-153.5 1573.5,-153.5 1573.5,-123.5 1452.5,-123.5"/>
<text text-anchor="start" x="1460.5" y="-141.5" font-family="Helvetica,sans-Serif" font-size="10.00">seerep_msgs/camera</text>
<text text-anchor="middle" x="1513" y="-130.5" font-family="Helvetica,sans-Serif" font-size="10.00">_intrinsics.h</text>
</a>
</g>
</g>
<!-- Node3&#45;&gt;Node28 -->
<g id="edge30" class="edge">
<title>Node3&#45;&gt;Node28</title>
<path fill="none" stroke="midnightblue" d="M1513,-190.48C1513,-183.47 1513,-173.19 1513,-163.7"/>
<polygon fill="midnightblue" stroke="midnightblue" points="1516.5,-163.52 1513,-153.52 1509.5,-163.52 1516.5,-163.52"/>
</g>
<!-- Node5&#45;&gt;Node2 -->
<g id="edge6" class="edge">
<title>Node5&#45;&gt;Node2</title>
<path fill="none" stroke="midnightblue" d="M1135.72,-134.65C906.92,-124.48 144.31,-90.43 119,-87 112.1,-86.06 104.84,-84.75 97.79,-83.29"/>
<polygon fill="midnightblue" stroke="midnightblue" points="98.2,-79.79 87.69,-81.07 96.7,-86.63 98.2,-79.79"/>
</g>
<!-- Node6 -->
<g id="node6" class="node">
<title>Node6</title>
<g id="a_node6"><a xlink:title=" ">
<polygon fill="none" stroke="#bfbfbf" points="681.5,-62 681.5,-81 798.5,-81 798.5,-62 681.5,-62"/>
<text text-anchor="middle" x="740" y="-69" font-family="Helvetica,sans-Serif" font-size="10.00">seerep_msgs/aabb.h</text>
</a>
</g>
</g>
<!-- Node5&#45;&gt;Node6 -->
<g id="edge7" class="edge">
<title>Node5&#45;&gt;Node6</title>
<path fill="none" stroke="midnightblue" d="M1135.94,-130.88C1058.12,-122.46 922.99,-106.63 808,-87 801.28,-85.85 794.23,-84.51 787.3,-83.11"/>
<polygon fill="midnightblue" stroke="midnightblue" points="787.81,-79.64 777.31,-81.03 786.38,-86.49 787.81,-79.64"/>
</g>
<!-- Node5&#45;&gt;Node7 -->
<g id="edge8" class="edge">
<title>Node5&#45;&gt;Node7</title>
<path fill="none" stroke="midnightblue" d="M1264.16,-128.04C1279.48,-126.08 1295.79,-124.24 1311,-123 1799.6,-83.26 1929.18,-145.12 2418.98,-87.11"/>
<polygon fill="midnightblue" stroke="midnightblue" points="2419.63,-90.55 2429.14,-85.89 2418.8,-83.6 2419.63,-90.55"/>
</g>
<!-- Node8 -->
<g id="node8" class="node">
<title>Node8</title>
<g id="a_node8"><a xlink:title=" ">
<polygon fill="none" stroke="#bfbfbf" points="817,-56.5 817,-86.5 943,-86.5 943,-56.5 817,-56.5"/>
<text text-anchor="start" x="825" y="-74.5" font-family="Helvetica,sans-Serif" font-size="10.00">seerep_msgs/geodetic</text>
<text text-anchor="middle" x="880" y="-63.5" font-family="Helvetica,sans-Serif" font-size="10.00">_coordinates.h</text>
</a>
</g>
</g>
<!-- Node5&#45;&gt;Node8 -->
<g id="edge9" class="edge">
<title>Node5&#45;&gt;Node8</title>
<path fill="none" stroke="midnightblue" d="M1135.63,-124.42C1082.88,-113.71 1008.23,-98.55 953.21,-87.37"/>
<polygon fill="midnightblue" stroke="midnightblue" points="953.67,-83.89 943.18,-85.33 952.28,-90.75 953.67,-83.89"/>
</g>
<!-- Node9 -->
<g id="node9" class="node">
<title>Node9</title>
<g id="a_node9"><a xlink:title=" ">
<polygon fill="none" stroke="#bfbfbf" points="961.5,-62 961.5,-81 1078.5,-81 1078.5,-62 961.5,-62"/>
<text text-anchor="middle" x="1020" y="-69" font-family="Helvetica,sans-Serif" font-size="10.00">seerep_msgs/label.h</text>
</a>
</g>
</g>
<!-- Node5&#45;&gt;Node9 -->
<g id="edge10" class="edge">
<title>Node5&#45;&gt;Node9</title>
<path fill="none" stroke="midnightblue" d="M1160.94,-123.4C1128.8,-111.79 1083.73,-95.51 1053.28,-84.52"/>
<polygon fill="midnightblue" stroke="midnightblue" points="1054.15,-81.11 1043.56,-81.01 1051.77,-87.7 1054.15,-81.11"/>
</g>
<!-- Node5&#45;&gt;Node10 -->
<g id="edge11" class="edge">
<title>Node5&#45;&gt;Node10</title>
<path fill="none" stroke="midnightblue" d="M1209.76,-123.4C1216.64,-113.46 1225.89,-100.11 1233.18,-89.57"/>
<polygon fill="midnightblue" stroke="midnightblue" points="1236.17,-91.41 1238.98,-81.19 1230.41,-87.42 1236.17,-91.41"/>
</g>
<!-- Node5&#45;&gt;Node11 -->
<g id="edge12" class="edge">
<title>Node5&#45;&gt;Node11</title>
<path fill="none" stroke="midnightblue" d="M1243.83,-123.4C1280.37,-111.64 1331.8,-95.09 1365.98,-84.09"/>
<polygon fill="midnightblue" stroke="midnightblue" points="1367.12,-87.4 1375.56,-81.01 1364.97,-80.74 1367.12,-87.4"/>
</g>
<!-- Node12 -->
<g id="node12" class="node">
<title>Node12</title>
<g id="a_node12"><a xlink:title=" ">
<polygon fill="none" stroke="#bfbfbf" points="1097,-62 1097,-81 1145,-81 1145,-62 1097,-62"/>
<text text-anchor="middle" x="1121" y="-69" font-family="Helvetica,sans-Serif" font-size="10.00">mutex</text>
</a>
</g>
</g>
<!-- Node5&#45;&gt;Node12 -->
<g id="edge13" class="edge">
<title>Node5&#45;&gt;Node12</title>
<path fill="none" stroke="midnightblue" d="M1182.86,-123.4C1170.05,-112.86 1152.57,-98.48 1139.46,-87.69"/>
<polygon fill="midnightblue" stroke="midnightblue" points="1141.51,-84.85 1131.57,-81.19 1137.07,-90.25 1141.51,-84.85"/>
</g>
<!-- Node5&#45;&gt;Node13 -->
<g id="edge14" class="edge">
<title>Node5&#45;&gt;Node13</title>
<path fill="none" stroke="midnightblue" d="M1264.16,-128C1279.47,-126.04 1295.79,-124.21 1311,-123 1587.8,-100.99 2287.93,-142.48 2560,-87 2563.08,-86.37 2566.23,-85.51 2569.34,-84.51"/>
<polygon fill="midnightblue" stroke="midnightblue" points="2570.74,-87.73 2578.94,-81.01 2568.34,-81.15 2570.74,-87.73"/>
</g>
<!-- Node14 -->
<g id="node14" class="node">
<title>Node14</title>
<g id="a_node14"><a xlink:title=" ">
<polygon fill="none" stroke="#bfbfbf" points="128.5,-62 128.5,-81 197.5,-81 197.5,-62 128.5,-62"/>
<text text-anchor="middle" x="163" y="-69" font-family="Helvetica,sans-Serif" font-size="10.00">type_traits</text>
</a>
</g>
</g>
<!-- Node5&#45;&gt;Node14 -->
<g id="edge15" class="edge">
<title>Node5&#45;&gt;Node14</title>
<path fill="none" stroke="midnightblue" d="M1135.93,-134.73C923.28,-125.47 251.67,-95.69 206,-87 202.11,-86.26 198.08,-85.25 194.13,-84.11"/>
<polygon fill="midnightblue" stroke="midnightblue" points="195.16,-80.76 184.56,-81.06 193.03,-87.43 195.16,-80.76"/>
</g>
<!-- Node15 -->
<g id="node15" class="node">
<title>Node15</title>
<g id="a_node15"><a xlink:title=" ">
<polygon fill="none" stroke="#bfbfbf" points="215.5,-56.5 215.5,-86.5 360.5,-86.5 360.5,-56.5 215.5,-56.5"/>
<text text-anchor="start" x="223.5" y="-74.5" font-family="Helvetica,sans-Serif" font-size="10.00">boost/log/sources/severity</text>
<text text-anchor="middle" x="288" y="-63.5" font-family="Helvetica,sans-Serif" font-size="10.00">_logger.hpp</text>
</a>
</g>
</g>
<!-- Node5&#45;&gt;Node15 -->
<g id="edge16" class="edge">
<title>Node5&#45;&gt;Node15</title>
<path fill="none" stroke="midnightblue" d="M1135.81,-134.55C971.29,-126.83 536.44,-105.44 370.85,-86.98"/>
<polygon fill="midnightblue" stroke="midnightblue" points="371.15,-83.49 360.81,-85.82 370.35,-90.44 371.15,-83.49"/>
</g>
<!-- Node16 -->
<g id="node16" class="node">
<title>Node16</title>
<g id="a_node16"><a xlink:title=" ">
<polygon fill="none" stroke="#bfbfbf" points="379,-62 379,-81 493,-81 493,-62 379,-62"/>
<text text-anchor="middle" x="436" y="-69" font-family="Helvetica,sans-Serif" font-size="10.00">boost/log/trivial.hpp</text>
</a>
</g>
</g>
<!-- Node5&#45;&gt;Node16 -->
<g id="edge17" class="edge">
<title>Node5&#45;&gt;Node16</title>
<path fill="none" stroke="midnightblue" d="M1135.86,-134.05C987.37,-125.86 623.36,-104.63 502,-87 495.06,-85.99 487.76,-84.66 480.65,-83.22"/>
<polygon fill="midnightblue" stroke="midnightblue" points="480.93,-79.7 470.42,-81.04 479.48,-86.55 480.93,-79.7"/>
</g>
<!-- Node5&#45;&gt;Node17 -->
<g id="edge18" class="edge">
<title>Node5&#45;&gt;Node17</title>
<path fill="none" stroke="midnightblue" d="M1264.23,-125.5C1329.72,-113.27 1430.26,-94.49 1492.43,-82.88"/>
<polygon fill="midnightblue" stroke="midnightblue" points="1493.25,-86.29 1502.44,-81.01 1491.97,-79.41 1493.25,-86.29"/>
</g>
<!-- Node5&#45;&gt;Node18 -->
<g id="edge19" class="edge">
<title>Node5&#45;&gt;Node18</title>
<path fill="none" stroke="midnightblue" d="M1264.25,-128.92C1279.56,-126.92 1295.86,-124.85 1311,-123 1452.19,-105.79 1488.52,-109.25 1629,-87 1636.26,-85.85 1643.91,-84.47 1651.38,-83.02"/>
<polygon fill="midnightblue" stroke="midnightblue" points="1652.3,-86.41 1661.42,-81.03 1650.93,-79.54 1652.3,-86.41"/>
</g>
<!-- Node5&#45;&gt;Node19 -->
<g id="edge20" class="edge">
<title>Node5&#45;&gt;Node19</title>
<path fill="none" stroke="midnightblue" d="M1264.16,-128.09C1279.48,-126.12 1295.8,-124.27 1311,-123 1744.89,-86.76 1858.16,-142.63 2290,-87 2297.25,-86.07 2304.89,-84.71 2312.28,-83.19"/>
<polygon fill="midnightblue" stroke="midnightblue" points="2313.11,-86.59 2322.14,-81.05 2311.63,-79.75 2313.11,-86.59"/>
</g>
<!-- Node5&#45;&gt;Node20 -->
<g id="edge21" class="edge">
<title>Node5&#45;&gt;Node20</title>
<path fill="none" stroke="midnightblue" d="M1264.21,-128.54C1279.52,-126.56 1295.83,-124.58 1311,-123 1515.4,-101.68 1567.86,-110.68 1772,-87 1782.8,-85.75 1794.26,-84.18 1805.33,-82.54"/>
<polygon fill="midnightblue" stroke="midnightblue" points="1805.99,-85.98 1815.36,-81.03 1804.95,-79.06 1805.99,-85.98"/>
</g>
<!-- Node5&#45;&gt;Node21 -->
<g id="edge22" class="edge">
<title>Node5&#45;&gt;Node21</title>
<path fill="none" stroke="midnightblue" d="M1264.18,-128.29C1279.5,-126.32 1295.81,-124.41 1311,-123 1598.65,-96.27 1673.39,-123.23 1960,-87 1968.2,-85.96 1976.86,-84.54 1985.24,-82.99"/>
<polygon fill="midnightblue" stroke="midnightblue" points="1986.12,-86.38 1995.28,-81.04 1984.79,-79.51 1986.12,-86.38"/>
</g>
<!-- Node22 -->
<g id="node22" class="node">
<title>Node22</title>
<g id="a_node22"><a xlink:title=" ">
<polygon fill="none" stroke="#bfbfbf" points="511,-62 511,-81 663,-81 663,-62 511,-62"/>
<text text-anchor="middle" x="587" y="-69" font-family="Helvetica,sans-Serif" font-size="10.00">impl/hdf5_core_general.hpp</text>
</a>
</g>
</g>
<!-- Node5&#45;&gt;Node22 -->
<g id="edge23" class="edge">
<title>Node5&#45;&gt;Node22</title>
<path fill="none" stroke="midnightblue" d="M1135.62,-132.88C1036,-125.38 838.59,-109.15 672,-87 662.64,-85.76 652.73,-84.24 643.11,-82.67"/>
<polygon fill="midnightblue" stroke="midnightblue" points="643.67,-79.22 633.23,-81.02 642.51,-86.12 643.67,-79.22"/>
</g>
<!-- Node23&#45;&gt;Node19 -->
<g id="edge25" class="edge">
<title>Node23&#45;&gt;Node19</title>
<path fill="none" stroke="midnightblue" d="M2198.04,-128.87C2229.77,-117.47 2285.79,-97.35 2321.62,-84.49"/>
<polygon fill="midnightblue" stroke="midnightblue" points="2322.92,-87.74 2331.15,-81.06 2320.56,-81.15 2322.92,-87.74"/>
</g>
<!-- Node24 -->
<g id="node24" class="node">
<title>Node24</title>
<g id="a_node24"><a xlink:href="datatype_8h.html" target="_top" xlink:title=" ">
<polygon fill="none" stroke="black" points="2211.5,-62 2211.5,-81 2280.5,-81 2280.5,-62 2211.5,-62"/>
<text text-anchor="middle" x="2246" y="-69" font-family="Helvetica,sans-Serif" font-size="10.00">datatype.h</text>
</a>
</g>
</g>
<!-- Node23&#45;&gt;Node24 -->
<g id="edge26" class="edge">
<title>Node23&#45;&gt;Node24</title>
<path fill="none" stroke="midnightblue" d="M2183.71,-128.73C2195.26,-118.31 2214.75,-100.71 2228.86,-87.97"/>
<polygon fill="midnightblue" stroke="midnightblue" points="2231.37,-90.43 2236.44,-81.13 2226.68,-85.23 2231.37,-90.43"/>
</g>
<!-- Node25 -->
<g id="node25" class="node">
<title>Node25</title>
<g id="a_node25"><a xlink:href="timestamp_8h.html" target="_top" xlink:title=" ">
<polygon fill="none" stroke="black" points="2114.5,-62 2114.5,-81 2193.5,-81 2193.5,-62 2114.5,-62"/>
<text text-anchor="middle" x="2154" y="-69" font-family="Helvetica,sans-Serif" font-size="10.00">timestamp.h</text>
</a>
</g>
</g>
<!-- Node23&#45;&gt;Node25 -->
<g id="edge27" class="edge">
<title>Node23&#45;&gt;Node25</title>
<path fill="none" stroke="midnightblue" d="M2171.3,-128.73C2168.33,-119.09 2163.48,-103.3 2159.66,-90.91"/>
<polygon fill="midnightblue" stroke="midnightblue" points="2162.94,-89.66 2156.65,-81.13 2156.25,-91.71 2162.94,-89.66"/>
</g>
<!-- Node26 -->
<g id="node26" class="node">
<title>Node26</title>
<g id="a_node26"><a xlink:title=" ">
<polygon fill="none" stroke="#bfbfbf" points="2121.5,-0.5 2121.5,-19.5 2186.5,-19.5 2186.5,-0.5 2121.5,-0.5"/>
<text text-anchor="middle" x="2154" y="-7.5" font-family="Helvetica,sans-Serif" font-size="10.00">functional</text>
</a>
</g>
</g>
<!-- Node25&#45;&gt;Node26 -->
<g id="edge28" class="edge">
<title>Node25&#45;&gt;Node26</title>
<path fill="none" stroke="midnightblue" d="M2154,-61.98C2154,-53.58 2154,-40.48 2154,-29.66"/>
<polygon fill="midnightblue" stroke="midnightblue" points="2157.5,-29.51 2154,-19.51 2150.5,-29.51 2157.5,-29.51"/>
</g>
<!-- Node29&#45;&gt;Node7 -->
<g id="edge32" class="edge">
<title>Node29&#45;&gt;Node7</title>
<path fill="none" stroke="midnightblue" d="M2393.69,-123.4C2411.5,-113.98 2435.12,-101.5 2454.51,-91.26"/>
<polygon fill="midnightblue" stroke="midnightblue" points="2456.16,-94.34 2463.36,-86.58 2452.89,-88.15 2456.16,-94.34"/>
</g>
<!-- Node29&#45;&gt;Node13 -->
<g id="edge34" class="edge">
<title>Node29&#45;&gt;Node13</title>
<path fill="none" stroke="midnightblue" d="M2423.67,-124.53C2462.4,-115.22 2514.72,-101.74 2560,-87 2562.27,-86.26 2564.6,-85.46 2566.94,-84.62"/>
<polygon fill="midnightblue" stroke="midnightblue" points="2568.28,-87.85 2576.41,-81.06 2565.82,-81.3 2568.28,-87.85"/>
</g>
<!-- Node29&#45;&gt;Node19 -->
<g id="edge33" class="edge">
<title>Node29&#45;&gt;Node19</title>
<path fill="none" stroke="midnightblue" d="M2364.4,-123.4C2362.65,-113.96 2360.34,-101.45 2358.45,-91.19"/>
<polygon fill="midnightblue" stroke="midnightblue" points="2361.86,-90.39 2356.61,-81.19 2354.98,-91.66 2361.86,-90.39"/>
</g>
</g>
</svg>
