<?xml version="1.0" encoding="UTF-8" standalone="no"?>
<!DOCTYPE svg PUBLIC "-//W3C//DTD SVG 1.1//EN"
 "http://www.w3.org/Graphics/SVG/1.1/DTD/svg11.dtd">
<!-- Generated by graphviz version 2.43.0 (0)
 -->
<!-- Title: seerep&#45;hdf5/seerep&#45;hdf5&#45;core/src/hdf5&#45;core&#45;general.cpp Pages: 1 -->
<svg width="1125pt" height="184pt"
 viewBox="0.00 0.00 1124.50 184.00" xmlns="http://www.w3.org/2000/svg" xmlns:xlink="http://www.w3.org/1999/xlink">
<g id="graph0" class="graph" transform="scale(1 1) rotate(0) translate(4 180)">
<title>seerep&#45;hdf5/seerep&#45;hdf5&#45;core/src/hdf5&#45;core&#45;general.cpp</title>
<!-- Node1 -->
<g id="node1" class="node">
<title>Node1</title>
<g id="a_node1"><a xlink:title=" ">
<polygon fill="#bfbfbf" stroke="black" points="572.5,-134.5 572.5,-175.5 683.5,-175.5 683.5,-134.5 572.5,-134.5"/>
<text text-anchor="start" x="580.5" y="-163.5" font-family="Helvetica,sans-Serif" font-size="10.00">seerep&#45;hdf5/seerep</text>
<text text-anchor="start" x="580.5" y="-152.5" font-family="Helvetica,sans-Serif" font-size="10.00">&#45;hdf5&#45;core/src/hdf5</text>
<text text-anchor="middle" x="628" y="-141.5" font-family="Helvetica,sans-Serif" font-size="10.00">&#45;core&#45;general.cpp</text>
</a>
</g>
</g>
<!-- Node2 -->
<g id="node2" class="node">
<title>Node2</title>
<g id="a_node2"><a xlink:href="hdf5-core-general_8h.html" target="_top" xlink:title=" ">
<polygon fill="none" stroke="black" points="492.5,-67.5 492.5,-97.5 617.5,-97.5 617.5,-67.5 492.5,-67.5"/>
<text text-anchor="start" x="500.5" y="-85.5" font-family="Helvetica,sans-Serif" font-size="10.00">seerep&#45;hdf5&#45;core/hdf5</text>
<text text-anchor="middle" x="555" y="-74.5" font-family="Helvetica,sans-Serif" font-size="10.00">&#45;core&#45;general.h</text>
</a>
</g>
</g>
<!-- Node1&#45;&gt;Node2 -->
<g id="edge1" class="edge">
<title>Node1&#45;&gt;Node2</title>
<path fill="none" stroke="midnightblue" d="M607.67,-134.36C598.21,-125.23 586.94,-114.35 577.26,-105"/>
<polygon fill="midnightblue" stroke="midnightblue" points="579.53,-102.32 569.9,-97.89 574.66,-107.36 579.53,-102.32"/>
</g>
<!-- Node12 -->
<g id="node12" class="node">
<title>Node12</title>
<g id="a_node12"><a xlink:title=" ">
<polygon fill="none" stroke="#bfbfbf" points="636,-73 636,-92 768,-92 768,-73 636,-73"/>
<text text-anchor="middle" x="702" y="-80" font-family="Helvetica,sans-Serif" font-size="10.00">highfive/H5DataSet.hpp</text>
</a>
</g>
</g>
<!-- Node1&#45;&gt;Node12 -->
<g id="edge11" class="edge">
<title>Node1&#45;&gt;Node12</title>
<path fill="none" stroke="midnightblue" d="M648.61,-134.36C660.2,-123.32 674.47,-109.72 685.35,-99.37"/>
<polygon fill="midnightblue" stroke="midnightblue" points="688.07,-101.61 692.9,-92.17 683.24,-96.54 688.07,-101.61"/>
</g>
<!-- Node3 -->
<g id="node3" class="node">
<title>Node3</title>
<g id="a_node3"><a xlink:title=" ">
<polygon fill="none" stroke="#bfbfbf" points="0,-6 0,-25 110,-25 110,-6 0,-6"/>
<text text-anchor="middle" x="55" y="-13" font-family="Helvetica,sans-Serif" font-size="10.00">highfive/H5File.hpp</text>
</a>
</g>
</g>
<!-- Node2&#45;&gt;Node3 -->
<g id="edge2" class="edge">
<title>Node2&#45;&gt;Node3</title>
<path fill="none" stroke="midnightblue" d="M492.25,-76.37C407.26,-68.93 251.01,-53.53 119,-31 112.66,-29.92 106.01,-28.61 99.49,-27.22"/>
<polygon fill="midnightblue" stroke="midnightblue" points="99.93,-23.74 89.41,-25.01 98.42,-30.57 99.93,-23.74"/>
</g>
<!-- Node4 -->
<g id="node4" class="node">
<title>Node4</title>
<g id="a_node4"><a xlink:title=" ">
<polygon fill="none" stroke="#bfbfbf" points="128,-6 128,-25 244,-25 244,-6 128,-6"/>
<text text-anchor="middle" x="186" y="-13" font-family="Helvetica,sans-Serif" font-size="10.00">seerep&#45;msgs/aabb.h</text>
</a>
</g>
</g>
<!-- Node2&#45;&gt;Node4 -->
<g id="edge3" class="edge">
<title>Node2&#45;&gt;Node4</title>
<path fill="none" stroke="midnightblue" d="M492.38,-71.92C431.19,-62.34 335.49,-46.81 253,-31 246.79,-29.81 240.27,-28.49 233.83,-27.14"/>
<polygon fill="midnightblue" stroke="midnightblue" points="234.36,-23.67 223.85,-25.02 232.9,-30.52 234.36,-23.67"/>
</g>
<!-- Node5 -->
<g id="node5" class="node">
<title>Node5</title>
<g id="a_node5"><a xlink:title=" ">
<polygon fill="none" stroke="#bfbfbf" points="262.5,-0.5 262.5,-30.5 381.5,-30.5 381.5,-0.5 262.5,-0.5"/>
<text text-anchor="start" x="270.5" y="-18.5" font-family="Helvetica,sans-Serif" font-size="10.00">seerep&#45;msgs/dataset</text>
<text text-anchor="middle" x="322" y="-7.5" font-family="Helvetica,sans-Serif" font-size="10.00">&#45;indexable.h</text>
</a>
</g>
</g>
<!-- Node2&#45;&gt;Node5 -->
<g id="edge4" class="edge">
<title>Node2&#45;&gt;Node5</title>
<path fill="none" stroke="midnightblue" d="M504.73,-67.48C468.87,-57.47 420.47,-43.97 382.5,-33.38"/>
<polygon fill="midnightblue" stroke="midnightblue" points="383.15,-29.93 372.58,-30.61 381.27,-36.67 383.15,-29.93"/>
</g>
<!-- Node6 -->
<g id="node6" class="node">
<title>Node6</title>
<g id="a_node6"><a xlink:title=" ">
<polygon fill="none" stroke="#bfbfbf" points="399.5,-6 399.5,-25 512.5,-25 512.5,-6 399.5,-6"/>
<text text-anchor="middle" x="456" y="-13" font-family="Helvetica,sans-Serif" font-size="10.00">boost/geometry.hpp</text>
</a>
</g>
</g>
<!-- Node2&#45;&gt;Node6 -->
<g id="edge5" class="edge">
<title>Node2&#45;&gt;Node6</title>
<path fill="none" stroke="midnightblue" d="M533.52,-67.4C516.92,-56.5 494.04,-41.48 477.45,-30.58"/>
<polygon fill="midnightblue" stroke="midnightblue" points="479.24,-27.57 468.96,-25.01 475.4,-33.42 479.24,-27.57"/>
</g>
<!-- Node7 -->
<g id="node7" class="node">
<title>Node7</title>
<g id="a_node7"><a xlink:title=" ">
<polygon fill="none" stroke="#bfbfbf" points="531,-6 531,-25 579,-25 579,-6 531,-6"/>
<text text-anchor="middle" x="555" y="-13" font-family="Helvetica,sans-Serif" font-size="10.00">mutex</text>
</a>
</g>
</g>
<!-- Node2&#45;&gt;Node7 -->
<g id="edge6" class="edge">
<title>Node2&#45;&gt;Node7</title>
<path fill="none" stroke="midnightblue" d="M555,-67.4C555,-58.06 555,-45.71 555,-35.52"/>
<polygon fill="midnightblue" stroke="midnightblue" points="558.5,-35.19 555,-25.19 551.5,-35.19 558.5,-35.19"/>
</g>
<!-- Node8 -->
<g id="node8" class="node">
<title>Node8</title>
<g id="a_node8"><a xlink:title=" ">
<polygon fill="none" stroke="#bfbfbf" points="597,-6 597,-25 653,-25 653,-6 597,-6"/>
<text text-anchor="middle" x="625" y="-13" font-family="Helvetica,sans-Serif" font-size="10.00">optional</text>
</a>
</g>
</g>
<!-- Node2&#45;&gt;Node8 -->
<g id="edge7" class="edge">
<title>Node2&#45;&gt;Node8</title>
<path fill="none" stroke="midnightblue" d="M570.19,-67.4C581.32,-57.06 596.44,-43.02 607.97,-32.31"/>
<polygon fill="midnightblue" stroke="midnightblue" points="610.69,-34.56 615.64,-25.19 605.93,-29.43 610.69,-34.56"/>
</g>
<!-- Node9 -->
<g id="node9" class="node">
<title>Node9</title>
<g id="a_node9"><a xlink:title=" ">
<polygon fill="none" stroke="#bfbfbf" points="671.5,-0.5 671.5,-30.5 816.5,-30.5 816.5,-0.5 671.5,-0.5"/>
<text text-anchor="start" x="679.5" y="-18.5" font-family="Helvetica,sans-Serif" font-size="10.00">boost/log/sources/severity</text>
<text text-anchor="middle" x="744" y="-7.5" font-family="Helvetica,sans-Serif" font-size="10.00">_logger.hpp</text>
</a>
</g>
</g>
<!-- Node2&#45;&gt;Node9 -->
<g id="edge8" class="edge">
<title>Node2&#45;&gt;Node9</title>
<path fill="none" stroke="midnightblue" d="M596.01,-67.4C624.62,-57.56 662.97,-44.37 693.47,-33.88"/>
<polygon fill="midnightblue" stroke="midnightblue" points="694.75,-37.14 703.07,-30.58 692.48,-30.52 694.75,-37.14"/>
</g>
<!-- Node10 -->
<g id="node10" class="node">
<title>Node10</title>
<g id="a_node10"><a xlink:title=" ">
<polygon fill="none" stroke="#bfbfbf" points="835,-6 835,-25 949,-25 949,-6 835,-6"/>
<text text-anchor="middle" x="892" y="-13" font-family="Helvetica,sans-Serif" font-size="10.00">boost/log/trivial.hpp</text>
</a>
</g>
</g>
<!-- Node2&#45;&gt;Node10 -->
<g id="edge9" class="edge">
<title>Node2&#45;&gt;Node10</title>
<path fill="none" stroke="midnightblue" d="M617.81,-68.77C620.92,-68.17 623.99,-67.57 627,-67 715.28,-50.13 737.87,-48.65 826,-31 831.9,-29.82 838.08,-28.53 844.19,-27.22"/>
<polygon fill="midnightblue" stroke="midnightblue" points="845.32,-30.56 854.36,-25.02 843.84,-23.72 845.32,-30.56"/>
</g>
<!-- Node11 -->
<g id="node11" class="node">
<title>Node11</title>
<g id="a_node11"><a xlink:title=" ">
<polygon fill="none" stroke="#bfbfbf" points="967.5,-6 967.5,-25 1116.5,-25 1116.5,-6 967.5,-6"/>
<text text-anchor="middle" x="1042" y="-13" font-family="Helvetica,sans-Serif" font-size="10.00">impl/hdf5&#45;core&#45;general.hpp</text>
</a>
</g>
</g>
<!-- Node2&#45;&gt;Node11 -->
<g id="edge10" class="edge">
<title>Node2&#45;&gt;Node11</title>
<path fill="none" stroke="midnightblue" d="M617.77,-68.51C620.89,-67.98 623.98,-67.47 627,-67 773.24,-44.37 811.46,-51.6 958,-31 966.84,-29.76 976.17,-28.3 985.28,-26.79"/>
<polygon fill="midnightblue" stroke="midnightblue" points="986.15,-30.19 995.43,-25.07 984.99,-23.29 986.15,-30.19"/>
</g>
</g>
</svg>
