<?xml version="1.0" encoding="UTF-8" standalone="no"?>
<!DOCTYPE svg PUBLIC "-//W3C//DTD SVG 1.1//EN"
 "http://www.w3.org/Graphics/SVG/1.1/DTD/svg11.dtd">
<!-- Generated by graphviz version 2.43.0 (0)
 -->
<!-- Title: seerep_hdf5/seerep_hdf5_fb/src/hdf5_fb_image.cpp Pages: 1 -->
<svg width="2969pt" height="430pt"
 viewBox="0.00 0.00 2969.00 430.00" xmlns="http://www.w3.org/2000/svg" xmlns:xlink="http://www.w3.org/1999/xlink">
<g id="graph0" class="graph" transform="scale(1 1) rotate(0) translate(4 426)">
<title>seerep_hdf5/seerep_hdf5_fb/src/hdf5_fb_image.cpp</title>
<!-- Node1 -->
<g id="node1" class="node">
<title>Node1</title>
<g id="a_node1"><a xlink:title=" ">
<polygon fill="#bfbfbf" stroke="black" points="1413.5,-380.5 1413.5,-421.5 1529.5,-421.5 1529.5,-380.5 1413.5,-380.5"/>
<text text-anchor="start" x="1421.5" y="-409.5" font-family="Helvetica,sans-Serif" font-size="10.00">seerep_hdf5/seerep</text>
<text text-anchor="start" x="1421.5" y="-398.5" font-family="Helvetica,sans-Serif" font-size="10.00">_hdf5_fb/src/hdf5_fb</text>
<text text-anchor="middle" x="1471.5" y="-387.5" font-family="Helvetica,sans-Serif" font-size="10.00">_image.cpp</text>
</a>
</g>
</g>
<!-- Node2 -->
<g id="node2" class="node">
<title>Node2</title>
<g id="a_node2"><a xlink:href="hdf5__fb__image_8h.html" target="_top" xlink:title=" ">
<polygon fill="none" stroke="black" points="1188.5,-313.5 1188.5,-343.5 1304.5,-343.5 1304.5,-313.5 1188.5,-313.5"/>
<text text-anchor="start" x="1196.5" y="-331.5" font-family="Helvetica,sans-Serif" font-size="10.00">seerep_hdf5_fb/hdf5</text>
<text text-anchor="middle" x="1246.5" y="-320.5" font-family="Helvetica,sans-Serif" font-size="10.00">_fb_image.h</text>
</a>
</g>
</g>
<!-- Node1&#45;&gt;Node2 -->
<g id="edge1" class="edge">
<title>Node1&#45;&gt;Node2</title>
<path fill="none" stroke="midnightblue" d="M1413.26,-381.75C1378.66,-370.91 1335.05,-357.24 1301.1,-346.61"/>
<polygon fill="midnightblue" stroke="midnightblue" points="1301.94,-343.2 1291.35,-343.55 1299.85,-349.88 1301.94,-343.2"/>
</g>
<!-- Node6 -->
<g id="node6" class="node">
<title>Node6</title>
<g id="a_node6"><a xlink:title=" ">
<polygon fill="none" stroke="#bfbfbf" points="1582.5,-129 1582.5,-148 1714.5,-148 1714.5,-129 1582.5,-129"/>
<text text-anchor="middle" x="1648.5" y="-136" font-family="Helvetica,sans-Serif" font-size="10.00">highfive/H5DataSet.hpp</text>
</a>
</g>
</g>
<!-- Node1&#45;&gt;Node6 -->
<g id="edge69" class="edge">
<title>Node1&#45;&gt;Node6</title>
<path fill="none" stroke="midnightblue" d="M1529.66,-386.25C1583.57,-370.07 1660.68,-337.41 1696.5,-277 1720.37,-236.75 1684.64,-182.83 1663.01,-156.04"/>
<polygon fill="midnightblue" stroke="midnightblue" points="1665.42,-153.48 1656.32,-148.06 1660.06,-157.97 1665.42,-153.48"/>
</g>
<!-- Node3 -->
<g id="node3" class="node">
<title>Node3</title>
<g id="a_node3"><a xlink:title=" ">
<polygon fill="none" stroke="#bfbfbf" points="829.5,-62 829.5,-81 939.5,-81 939.5,-62 829.5,-62"/>
<text text-anchor="middle" x="884.5" y="-69" font-family="Helvetica,sans-Serif" font-size="10.00">highfive/H5File.hpp</text>
</a>
</g>
</g>
<!-- Node2&#45;&gt;Node3 -->
<g id="edge2" class="edge">
<title>Node2&#45;&gt;Node3</title>
<path fill="none" stroke="midnightblue" d="M1250.3,-313.45C1259.34,-276.52 1277.77,-175.9 1226.5,-123 1183.15,-78.27 1009.83,-97.89 948.5,-87 942.32,-85.9 935.83,-84.6 929.45,-83.24"/>
<polygon fill="midnightblue" stroke="midnightblue" points="930.11,-79.8 919.59,-81.07 928.6,-86.64 930.11,-79.8"/>
</g>
<!-- Node4 -->
<g id="node4" class="node">
<title>Node4</title>
<g id="a_node4"><a xlink:href="hdf5__core__image_8h.html" target="_top" xlink:title=" ">
<polygon fill="none" stroke="black" points="1969.5,-246.5 1969.5,-276.5 2097.5,-276.5 2097.5,-246.5 1969.5,-246.5"/>
<text text-anchor="start" x="1977.5" y="-264.5" font-family="Helvetica,sans-Serif" font-size="10.00">seerep_hdf5_core/hdf5</text>
<text text-anchor="middle" x="2033.5" y="-253.5" font-family="Helvetica,sans-Serif" font-size="10.00">_core_image.h</text>
</a>
</g>
</g>
<!-- Node2&#45;&gt;Node4 -->
<g id="edge3" class="edge">
<title>Node2&#45;&gt;Node4</title>
<path fill="none" stroke="midnightblue" d="M1304.69,-322.69C1445.21,-311.09 1802.97,-281.54 1958.93,-268.66"/>
<polygon fill="midnightblue" stroke="midnightblue" points="1959.67,-272.11 1969.35,-267.8 1959.1,-265.13 1959.67,-272.11"/>
</g>
<!-- Node13 -->
<g id="node13" class="node">
<title>Node13</title>
<g id="a_node13"><a xlink:title=" ">
<polygon fill="none" stroke="#bfbfbf" points="0,-62 0,-81 113,-81 113,-62 0,-62"/>
<text text-anchor="middle" x="56.5" y="-69" font-family="Helvetica,sans-Serif" font-size="10.00">boost/geometry.hpp</text>
</a>
</g>
</g>
<!-- Node2&#45;&gt;Node13 -->
<g id="edge67" class="edge">
<title>Node2&#45;&gt;Node13</title>
<path fill="none" stroke="midnightblue" d="M1188.44,-324.42C992.84,-313.52 359.37,-274.03 166.5,-210 119.98,-194.56 99.58,-194.17 71.5,-154 58.59,-135.53 55.86,-109.14 55.69,-91.44"/>
<polygon fill="midnightblue" stroke="midnightblue" points="59.19,-91.3 55.87,-81.24 52.19,-91.18 59.19,-91.3"/>
</g>
<!-- Node15 -->
<g id="node15" class="node">
<title>Node15</title>
<g id="a_node15"><a xlink:title=" ">
<polygon fill="none" stroke="#bfbfbf" points="957.5,-62 957.5,-81 1013.5,-81 1013.5,-62 957.5,-62"/>
<text text-anchor="middle" x="985.5" y="-69" font-family="Helvetica,sans-Serif" font-size="10.00">optional</text>
</a>
</g>
</g>
<!-- Node2&#45;&gt;Node15 -->
<g id="edge68" class="edge">
<title>Node2&#45;&gt;Node15</title>
<path fill="none" stroke="midnightblue" d="M1253.49,-313.24C1270.29,-276.65 1308.19,-178.44 1260.5,-123 1225.62,-82.45 1074.17,-100.84 1022.5,-87 1019.84,-86.29 1017.12,-85.45 1014.4,-84.53"/>
<polygon fill="midnightblue" stroke="midnightblue" points="1015.41,-81.17 1004.81,-81.01 1012.99,-87.74 1015.41,-81.17"/>
</g>
<!-- Node32 -->
<g id="node32" class="node">
<title>Node32</title>
<g id="a_node32"><a xlink:href="hdf5__fb__general_8h.html" target="_top" xlink:title=" ">
<polygon fill="none" stroke="black" points="750.5,-190.5 750.5,-209.5 854.5,-209.5 854.5,-190.5 750.5,-190.5"/>
<text text-anchor="middle" x="802.5" y="-197.5" font-family="Helvetica,sans-Serif" font-size="10.00">hdf5_fb_general.h</text>
</a>
</g>
</g>
<!-- Node2&#45;&gt;Node32 -->
<g id="edge48" class="edge">
<title>Node2&#45;&gt;Node32</title>
<path fill="none" stroke="midnightblue" d="M1197.29,-313.48C1108.62,-288.22 923.72,-235.54 842.37,-212.36"/>
<polygon fill="midnightblue" stroke="midnightblue" points="843.09,-208.93 832.52,-209.55 841.17,-215.66 843.09,-208.93"/>
</g>
<!-- Node36 -->
<g id="node36" class="node">
<title>Node36</title>
<g id="a_node36"><a xlink:title=" ">
<polygon fill="none" stroke="#bfbfbf" points="1006,-129 1006,-148 1105,-148 1105,-129 1006,-129"/>
<text text-anchor="middle" x="1055.5" y="-136" font-family="Helvetica,sans-Serif" font-size="10.00">flatbuffers/grpc.h</text>
</a>
</g>
</g>
<!-- Node2&#45;&gt;Node36 -->
<g id="edge65" class="edge">
<title>Node2&#45;&gt;Node36</title>
<path fill="none" stroke="midnightblue" d="M1232.14,-313.37C1197.3,-279.07 1108.43,-191.6 1071.73,-155.48"/>
<polygon fill="midnightblue" stroke="midnightblue" points="1073.93,-152.73 1064.35,-148.21 1069.02,-157.72 1073.93,-152.73"/>
</g>
<!-- Node37 -->
<g id="node37" class="node">
<title>Node37</title>
<g id="a_node37"><a xlink:title=" ">
<polygon fill="none" stroke="#bfbfbf" points="1123,-129 1123,-148 1218,-148 1218,-129 1123,-129"/>
<text text-anchor="middle" x="1170.5" y="-136" font-family="Helvetica,sans-Serif" font-size="10.00">grpcpp/grpcpp.h</text>
</a>
</g>
</g>
<!-- Node2&#45;&gt;Node37 -->
<g id="edge66" class="edge">
<title>Node2&#45;&gt;Node37</title>
<path fill="none" stroke="midnightblue" d="M1235.55,-313.11C1228.51,-303.33 1219.58,-289.88 1213.5,-277 1194.35,-236.43 1180.93,-185.2 1174.6,-158.18"/>
<polygon fill="midnightblue" stroke="midnightblue" points="1177.96,-157.15 1172.33,-148.18 1171.13,-158.7 1177.96,-157.15"/>
</g>
<!-- Node40 -->
<g id="node40" class="node">
<title>Node40</title>
<g id="a_node40"><a xlink:title=" ">
<polygon fill="none" stroke="#bfbfbf" points="1294,-252 1294,-271 1473,-271 1473,-252 1294,-252"/>
<text text-anchor="middle" x="1383.5" y="-259" font-family="Helvetica,sans-Serif" font-size="10.00">seerep_msgs/image_generated.h</text>
</a>
</g>
</g>
<!-- Node2&#45;&gt;Node40 -->
<g id="edge63" class="edge">
<title>Node2&#45;&gt;Node40</title>
<path fill="none" stroke="midnightblue" d="M1276.23,-313.4C1300.05,-302.09 1333.21,-286.36 1356.33,-275.39"/>
<polygon fill="midnightblue" stroke="midnightblue" points="1358.04,-278.46 1365.57,-271.01 1355.03,-272.13 1358.04,-278.46"/>
</g>
<!-- Node41 -->
<g id="node41" class="node">
<title>Node41</title>
<g id="a_node41"><a xlink:title=" ">
<polygon fill="none" stroke="#bfbfbf" points="1491.5,-252 1491.5,-271 1687.5,-271 1687.5,-252 1491.5,-252"/>
<text text-anchor="middle" x="1589.5" y="-259" font-family="Helvetica,sans-Serif" font-size="10.00">seerep_com/image_service.grpc.fb.h</text>
</a>
</g>
</g>
<!-- Node2&#45;&gt;Node41 -->
<g id="edge64" class="edge">
<title>Node2&#45;&gt;Node41</title>
<path fill="none" stroke="midnightblue" d="M1304.69,-316.47C1368.87,-304.31 1471.38,-284.88 1534.33,-272.96"/>
<polygon fill="midnightblue" stroke="midnightblue" points="1535.29,-276.34 1544.46,-271.03 1533.99,-269.46 1535.29,-276.34"/>
</g>
<!-- Node4&#45;&gt;Node3 -->
<g id="edge4" class="edge">
<title>Node4&#45;&gt;Node3</title>
<path fill="none" stroke="midnightblue" d="M1969.24,-256.1C1812.96,-244.61 1417.11,-210.64 1298.5,-154 1278.83,-144.61 1280.58,-131.48 1260.5,-123 1131.91,-68.7 1086.1,-110.46 948.5,-87 942.16,-85.92 935.51,-84.61 928.98,-83.23"/>
<polygon fill="midnightblue" stroke="midnightblue" points="929.43,-79.74 918.91,-81.01 927.92,-86.58 929.43,-79.74"/>
</g>
<!-- Node5 -->
<g id="node5" class="node">
<title>Node5</title>
<g id="a_node5"><a xlink:href="hdf5__core__cameraintrinsics_8h.html" target="_top" xlink:title=" ">
<polygon fill="none" stroke="black" points="1781.5,-190.5 1781.5,-209.5 1941.5,-209.5 1941.5,-190.5 1781.5,-190.5"/>
<text text-anchor="middle" x="1861.5" y="-197.5" font-family="Helvetica,sans-Serif" font-size="10.00">hdf5_core_cameraintrinsics.h</text>
</a>
</g>
</g>
<!-- Node4&#45;&gt;Node5 -->
<g id="edge5" class="edge">
<title>Node4&#45;&gt;Node5</title>
<path fill="none" stroke="midnightblue" d="M1992.74,-246.4C1963.28,-236.21 1923.91,-222.59 1896,-212.93"/>
<polygon fill="midnightblue" stroke="midnightblue" points="1896.87,-209.53 1886.28,-209.57 1894.58,-216.15 1896.87,-209.53"/>
</g>
<!-- Node7 -->
<g id="node7" class="node">
<title>Node7</title>
<g id="a_node7"><a xlink:href="hdf5__core__general_8h.html" target="_top" xlink:title=" ">
<polygon fill="none" stroke="black" points="1426.5,-123.5 1426.5,-153.5 1554.5,-153.5 1554.5,-123.5 1426.5,-123.5"/>
<text text-anchor="start" x="1434.5" y="-141.5" font-family="Helvetica,sans-Serif" font-size="10.00">seerep_hdf5_core/hdf5</text>
<text text-anchor="middle" x="1490.5" y="-130.5" font-family="Helvetica,sans-Serif" font-size="10.00">_core_general.h</text>
</a>
</g>
</g>
<!-- Node4&#45;&gt;Node7 -->
<g id="edge38" class="edge">
<title>Node4&#45;&gt;Node7</title>
<path fill="none" stroke="midnightblue" d="M1969.48,-249.11C1916.52,-239.44 1839.41,-224.83 1772.5,-210 1696.62,-193.19 1609.98,-171.09 1552.99,-156.15"/>
<polygon fill="midnightblue" stroke="midnightblue" points="1553.61,-152.69 1543.05,-153.54 1551.84,-159.47 1553.61,-152.69"/>
</g>
<!-- Node9 -->
<g id="node9" class="node">
<title>Node9</title>
<g id="a_node9"><a xlink:title=" ">
<polygon fill="none" stroke="#bfbfbf" points="2840,-56.5 2840,-86.5 2961,-86.5 2961,-56.5 2840,-56.5"/>
<text text-anchor="start" x="2848" y="-74.5" font-family="Helvetica,sans-Serif" font-size="10.00">seerep_msgs/dataset</text>
<text text-anchor="middle" x="2900.5" y="-63.5" font-family="Helvetica,sans-Serif" font-size="10.00">_indexable.h</text>
</a>
</g>
</g>
<!-- Node4&#45;&gt;Node9 -->
<g id="edge39" class="edge">
<title>Node4&#45;&gt;Node9</title>
<path fill="none" stroke="midnightblue" d="M2097.52,-258.78C2242.96,-254.39 2594.42,-240.83 2708.5,-210 2763.38,-195.17 2777.68,-187.65 2823.5,-154 2846.69,-136.97 2868.77,-112.43 2883.29,-94.74"/>
<polygon fill="midnightblue" stroke="midnightblue" points="2886.25,-96.65 2889.79,-86.66 2880.79,-92.26 2886.25,-96.65"/>
</g>
<!-- Node12 -->
<g id="node12" class="node">
<title>Node12</title>
<g id="a_node12"><a xlink:title=" ">
<polygon fill="none" stroke="#bfbfbf" points="1704.5,-62 1704.5,-81 1868.5,-81 1868.5,-62 1704.5,-62"/>
<text text-anchor="middle" x="1786.5" y="-69" font-family="Helvetica,sans-Serif" font-size="10.00">seerep_msgs/label_category.h</text>
</a>
</g>
</g>
<!-- Node4&#45;&gt;Node12 -->
<g id="edge40" class="edge">
<title>Node4&#45;&gt;Node12</title>
<path fill="none" stroke="midnightblue" d="M2033.97,-246.09C2034.04,-218.15 2030.02,-156.42 1995.5,-123 1984.43,-112.28 1900.72,-94.39 1842.66,-83.03"/>
<polygon fill="midnightblue" stroke="midnightblue" points="1842.99,-79.53 1832.51,-81.06 1841.66,-86.4 1842.99,-79.53"/>
</g>
<!-- Node4&#45;&gt;Node13 -->
<g id="edge41" class="edge">
<title>Node4&#45;&gt;Node13</title>
<path fill="none" stroke="midnightblue" d="M1969.21,-257.63C1901.4,-254.63 1791.44,-249.83 1696.5,-246 1272.1,-228.87 1165.42,-236.52 741.5,-210 456.53,-192.17 340.84,-309.71 101.5,-154 79.31,-139.57 67.1,-110.25 61.17,-90.99"/>
<polygon fill="midnightblue" stroke="midnightblue" points="64.51,-89.94 58.45,-81.25 57.77,-91.82 64.51,-89.94"/>
</g>
<!-- Node4&#45;&gt;Node15 -->
<g id="edge42" class="edge">
<title>Node4&#45;&gt;Node15</title>
<path fill="none" stroke="midnightblue" d="M1969.44,-252.51C1899.1,-243.45 1782.94,-227.62 1683.5,-210 1564.54,-188.92 1533.39,-188.14 1417.5,-154 1380.52,-143.11 1373.94,-132.16 1336.5,-123 1200.05,-89.63 1158.81,-120.91 1022.5,-87 1019.83,-86.34 1017.09,-85.53 1014.38,-84.63"/>
<polygon fill="midnightblue" stroke="midnightblue" points="1015.37,-81.27 1004.78,-81.14 1012.98,-87.85 1015.37,-81.27"/>
</g>
<!-- Node19 -->
<g id="node19" class="node">
<title>Node19</title>
<g id="a_node19"><a xlink:title=" ">
<polygon fill="none" stroke="#bfbfbf" points="1887,-62 1887,-81 2030,-81 2030,-62 1887,-62"/>
<text text-anchor="middle" x="1958.5" y="-69" font-family="Helvetica,sans-Serif" font-size="10.00">boost/functional/hash.hpp</text>
</a>
</g>
</g>
<!-- Node4&#45;&gt;Node19 -->
<g id="edge43" class="edge">
<title>Node4&#45;&gt;Node19</title>
<path fill="none" stroke="midnightblue" d="M2036.86,-246.19C2042.21,-219.97 2050.02,-163.23 2028.5,-123 2019.72,-106.59 2002.98,-94.21 1988.07,-85.82"/>
<polygon fill="midnightblue" stroke="midnightblue" points="1989.59,-82.67 1979.11,-81.11 1986.34,-88.86 1989.59,-82.67"/>
</g>
<!-- Node20 -->
<g id="node20" class="node">
<title>Node20</title>
<g id="a_node20"><a xlink:title=" ">
<polygon fill="none" stroke="#bfbfbf" points="2048,-62 2048,-81 2173,-81 2173,-62 2048,-62"/>
<text text-anchor="middle" x="2110.5" y="-69" font-family="Helvetica,sans-Serif" font-size="10.00">boost/lexical_cast.hpp</text>
</a>
</g>
</g>
<!-- Node4&#45;&gt;Node20 -->
<g id="edge44" class="edge">
<title>Node4&#45;&gt;Node20</title>
<path fill="none" stroke="midnightblue" d="M2039.78,-246.4C2044.24,-236.3 2050.34,-222.35 2055.5,-210 2073.27,-167.46 2093.13,-117.06 2103.43,-90.68"/>
<polygon fill="midnightblue" stroke="midnightblue" points="2106.75,-91.81 2107.12,-81.22 2100.22,-89.27 2106.75,-91.81"/>
</g>
<!-- Node21 -->
<g id="node21" class="node">
<title>Node21</title>
<g id="a_node21"><a xlink:title=" ">
<polygon fill="none" stroke="#bfbfbf" points="2709,-62 2709,-81 2822,-81 2822,-62 2709,-62"/>
<text text-anchor="middle" x="2765.5" y="-69" font-family="Helvetica,sans-Serif" font-size="10.00">boost/uuid/uuid.hpp</text>
</a>
</g>
</g>
<!-- Node4&#45;&gt;Node21 -->
<g id="edge45" class="edge">
<title>Node4&#45;&gt;Node21</title>
<path fill="none" stroke="midnightblue" d="M2097.65,-256.93C2209.58,-249.01 2446.36,-224.67 2632.5,-154 2655.54,-145.25 2713.06,-107.74 2744.38,-86.79"/>
<polygon fill="midnightblue" stroke="midnightblue" points="2746.48,-89.6 2752.83,-81.11 2742.57,-83.78 2746.48,-89.6"/>
</g>
<!-- Node22 -->
<g id="node22" class="node">
<title>Node22</title>
<g id="a_node22"><a xlink:title=" ">
<polygon fill="none" stroke="#bfbfbf" points="2191.5,-62 2191.5,-81 2361.5,-81 2361.5,-62 2191.5,-62"/>
<text text-anchor="middle" x="2276.5" y="-69" font-family="Helvetica,sans-Serif" font-size="10.00">boost/uuid/uuid_generators.hpp</text>
</a>
</g>
</g>
<!-- Node4&#45;&gt;Node22 -->
<g id="edge46" class="edge">
<title>Node4&#45;&gt;Node22</title>
<path fill="none" stroke="midnightblue" d="M2051.76,-246.37C2096.56,-211.71 2211.54,-122.75 2257.3,-87.35"/>
<polygon fill="midnightblue" stroke="midnightblue" points="2259.48,-90.09 2265.25,-81.21 2255.2,-84.56 2259.48,-90.09"/>
</g>
<!-- Node23 -->
<g id="node23" class="node">
<title>Node23</title>
<g id="a_node23"><a xlink:title=" ">
<polygon fill="none" stroke="#bfbfbf" points="2380,-62 2380,-81 2507,-81 2507,-62 2380,-62"/>
<text text-anchor="middle" x="2443.5" y="-69" font-family="Helvetica,sans-Serif" font-size="10.00">boost/uuid/uuid_io.hpp</text>
</a>
</g>
</g>
<!-- Node4&#45;&gt;Node23 -->
<g id="edge47" class="edge">
<title>Node4&#45;&gt;Node23</title>
<path fill="none" stroke="midnightblue" d="M2064.32,-246.37C2141.31,-211.06 2341.21,-119.41 2415.31,-85.42"/>
<polygon fill="midnightblue" stroke="midnightblue" points="2416.88,-88.56 2424.51,-81.21 2413.96,-82.19 2416.88,-88.56"/>
</g>
<!-- Node31 -->
<g id="node31" class="node">
<title>Node31</title>
<g id="a_node31"><a xlink:href="hdf5__core__datatype__interface_8h.html" target="_top" xlink:title=" ">
<polygon fill="none" stroke="black" points="2701,-123.5 2701,-153.5 2814,-153.5 2814,-123.5 2701,-123.5"/>
<text text-anchor="start" x="2709" y="-141.5" font-family="Helvetica,sans-Serif" font-size="10.00">hdf5_core_datatype</text>
<text text-anchor="middle" x="2757.5" y="-130.5" font-family="Helvetica,sans-Serif" font-size="10.00">_interface.h</text>
</a>
</g>
</g>
<!-- Node4&#45;&gt;Node31 -->
<g id="edge34" class="edge">
<title>Node4&#45;&gt;Node31</title>
<path fill="none" stroke="midnightblue" d="M2097.61,-260.69C2239.59,-260.29 2576.11,-254.51 2679.5,-210 2703.91,-199.49 2725.79,-178.13 2740.12,-161.66"/>
<polygon fill="midnightblue" stroke="midnightblue" points="2743.15,-163.49 2746.9,-153.57 2737.79,-158.99 2743.15,-163.49"/>
</g>
<!-- Node5&#45;&gt;Node3 -->
<g id="edge7" class="edge">
<title>Node5&#45;&gt;Node3</title>
<path fill="none" stroke="midnightblue" d="M1781.18,-194.59C1691.85,-188.82 1543.51,-176.66 1417.5,-154 1363.71,-144.33 1352.28,-132.71 1298.5,-123 1144.61,-95.21 1102.81,-112.32 948.5,-87 942.08,-85.95 935.34,-84.64 928.75,-83.25"/>
<polygon fill="midnightblue" stroke="midnightblue" points="929.08,-79.74 918.56,-81.02 927.58,-86.58 929.08,-79.74"/>
</g>
<!-- Node5&#45;&gt;Node6 -->
<g id="edge6" class="edge">
<title>Node5&#45;&gt;Node6</title>
<path fill="none" stroke="midnightblue" d="M1830.98,-190.48C1793.58,-180.03 1730.07,-162.29 1688.71,-150.73"/>
<polygon fill="midnightblue" stroke="midnightblue" points="1689.53,-147.33 1678.96,-148.01 1687.65,-154.07 1689.53,-147.33"/>
</g>
<!-- Node5&#45;&gt;Node7 -->
<g id="edge8" class="edge">
<title>Node5&#45;&gt;Node7</title>
<path fill="none" stroke="midnightblue" d="M1804.89,-190.46C1746.78,-181.63 1653.76,-167.28 1573.5,-154 1570.66,-153.53 1567.76,-153.05 1564.84,-152.55"/>
<polygon fill="midnightblue" stroke="midnightblue" points="1565.27,-149.08 1554.82,-150.85 1564.1,-155.98 1565.27,-149.08"/>
</g>
<!-- Node25 -->
<g id="node25" class="node">
<title>Node25</title>
<g id="a_node25"><a xlink:href="header_8h.html" target="_top" xlink:title=" ">
<polygon fill="none" stroke="black" points="2564,-129 2564,-148 2623,-148 2623,-129 2564,-129"/>
<text text-anchor="middle" x="2593.5" y="-136" font-family="Helvetica,sans-Serif" font-size="10.00">header.h</text>
</a>
</g>
</g>
<!-- Node5&#45;&gt;Node25 -->
<g id="edge27" class="edge">
<title>Node5&#45;&gt;Node25</title>
<path fill="none" stroke="midnightblue" d="M1941.58,-192.49C2097.71,-179.8 2437.65,-152.17 2553.73,-142.73"/>
<polygon fill="midnightblue" stroke="midnightblue" points="2554.25,-146.2 2563.93,-141.9 2553.68,-139.23 2554.25,-146.2"/>
</g>
<!-- Node29 -->
<g id="node29" class="node">
<title>Node29</title>
<g id="a_node29"><a xlink:href="region__of__interest_8h.html" target="_top" xlink:title=" ">
<polygon fill="none" stroke="black" points="1732.5,-129 1732.5,-148 1846.5,-148 1846.5,-129 1732.5,-129"/>
<text text-anchor="middle" x="1789.5" y="-136" font-family="Helvetica,sans-Serif" font-size="10.00">region_of_interest.h</text>
</a>
</g>
</g>
<!-- Node5&#45;&gt;Node29 -->
<g id="edge32" class="edge">
<title>Node5&#45;&gt;Node29</title>
<path fill="none" stroke="midnightblue" d="M1851.18,-190.48C1839.85,-181.11 1821.43,-165.88 1807.66,-154.51"/>
<polygon fill="midnightblue" stroke="midnightblue" points="1809.73,-151.68 1799.8,-148.01 1805.28,-157.08 1809.73,-151.68"/>
</g>
<!-- Node30 -->
<g id="node30" class="node">
<title>Node30</title>
<g id="a_node30"><a xlink:title=" ">
<polygon fill="none" stroke="#bfbfbf" points="1865,-123.5 1865,-153.5 1986,-153.5 1986,-123.5 1865,-123.5"/>
<text text-anchor="start" x="1873" y="-141.5" font-family="Helvetica,sans-Serif" font-size="10.00">seerep_msgs/camera</text>
<text text-anchor="middle" x="1925.5" y="-130.5" font-family="Helvetica,sans-Serif" font-size="10.00">_intrinsics.h</text>
</a>
</g>
</g>
<!-- Node5&#45;&gt;Node30 -->
<g id="edge33" class="edge">
<title>Node5&#45;&gt;Node30</title>
<path fill="none" stroke="midnightblue" d="M1870.67,-190.48C1879.09,-182.64 1891.92,-170.71 1903.06,-160.37"/>
<polygon fill="midnightblue" stroke="midnightblue" points="1905.48,-162.9 1910.42,-153.52 1900.71,-157.77 1905.48,-162.9"/>
</g>
<!-- Node7&#45;&gt;Node3 -->
<g id="edge9" class="edge">
<title>Node7&#45;&gt;Node3</title>
<path fill="none" stroke="midnightblue" d="M1426.43,-129.03C1409.56,-126.92 1391.35,-124.76 1374.5,-123 1185.52,-103.21 1136.27,-116.06 948.5,-87 941.84,-85.97 934.85,-84.64 928.02,-83.21"/>
<polygon fill="midnightblue" stroke="midnightblue" points="928.73,-79.78 918.21,-81.06 927.23,-86.62 928.73,-79.78"/>
</g>
<!-- Node8 -->
<g id="node8" class="node">
<title>Node8</title>
<g id="a_node8"><a xlink:title=" ">
<polygon fill="none" stroke="#bfbfbf" points="1032,-62 1032,-81 1149,-81 1149,-62 1032,-62"/>
<text text-anchor="middle" x="1090.5" y="-69" font-family="Helvetica,sans-Serif" font-size="10.00">seerep_msgs/aabb.h</text>
</a>
</g>
</g>
<!-- Node7&#45;&gt;Node8 -->
<g id="edge10" class="edge">
<title>Node7&#45;&gt;Node8</title>
<path fill="none" stroke="midnightblue" d="M1426.27,-125.33C1421.61,-124.52 1416.99,-123.73 1412.5,-123 1299.98,-104.58 1270.77,-106.9 1158.5,-87 1151.87,-85.83 1144.9,-84.47 1138.06,-83.08"/>
<polygon fill="midnightblue" stroke="midnightblue" points="1138.68,-79.63 1128.18,-81.02 1137.25,-86.49 1138.68,-79.63"/>
</g>
<!-- Node7&#45;&gt;Node9 -->
<g id="edge11" class="edge">
<title>Node7&#45;&gt;Node9</title>
<path fill="none" stroke="midnightblue" d="M1554.72,-125.34C1561.05,-124.42 1567.39,-123.62 1573.5,-123 2126.61,-67.07 2274.24,-151.73 2829.37,-87.11"/>
<polygon fill="midnightblue" stroke="midnightblue" points="2830.12,-90.55 2839.64,-85.9 2829.3,-83.59 2830.12,-90.55"/>
</g>
<!-- Node10 -->
<g id="node10" class="node">
<title>Node10</title>
<g id="a_node10"><a xlink:title=" ">
<polygon fill="none" stroke="#bfbfbf" points="1167.5,-56.5 1167.5,-86.5 1293.5,-86.5 1293.5,-56.5 1167.5,-56.5"/>
<text text-anchor="start" x="1175.5" y="-74.5" font-family="Helvetica,sans-Serif" font-size="10.00">seerep_msgs/geodetic</text>
<text text-anchor="middle" x="1230.5" y="-63.5" font-family="Helvetica,sans-Serif" font-size="10.00">_coordinates.h</text>
</a>
</g>
</g>
<!-- Node7&#45;&gt;Node10 -->
<g id="edge12" class="edge">
<title>Node7&#45;&gt;Node10</title>
<path fill="none" stroke="midnightblue" d="M1434.4,-123.48C1393.96,-113.37 1339.24,-99.68 1296.66,-89.04"/>
<polygon fill="midnightblue" stroke="midnightblue" points="1297.49,-85.64 1286.94,-86.61 1295.8,-92.43 1297.49,-85.64"/>
</g>
<!-- Node11 -->
<g id="node11" class="node">
<title>Node11</title>
<g id="a_node11"><a xlink:title=" ">
<polygon fill="none" stroke="#bfbfbf" points="1312,-62 1312,-81 1429,-81 1429,-62 1312,-62"/>
<text text-anchor="middle" x="1370.5" y="-69" font-family="Helvetica,sans-Serif" font-size="10.00">seerep_msgs/label.h</text>
</a>
</g>
</g>
<!-- Node7&#45;&gt;Node11 -->
<g id="edge13" class="edge">
<title>Node7&#45;&gt;Node11</title>
<path fill="none" stroke="midnightblue" d="M1464.46,-123.4C1443.87,-112.24 1415.33,-96.78 1395.12,-85.83"/>
<polygon fill="midnightblue" stroke="midnightblue" points="1396.67,-82.69 1386.21,-81.01 1393.33,-88.85 1396.67,-82.69"/>
</g>
<!-- Node7&#45;&gt;Node12 -->
<g id="edge14" class="edge">
<title>Node7&#45;&gt;Node12</title>
<path fill="none" stroke="midnightblue" d="M1554.36,-123.48C1609.38,-111.4 1687.62,-94.21 1737.72,-83.21"/>
<polygon fill="midnightblue" stroke="midnightblue" points="1738.65,-86.59 1747.66,-81.03 1737.14,-79.76 1738.65,-86.59"/>
</g>
<!-- Node7&#45;&gt;Node13 -->
<g id="edge15" class="edge">
<title>Node7&#45;&gt;Node13</title>
<path fill="none" stroke="midnightblue" d="M1426.23,-133.63C1372.78,-130.49 1294.71,-126.1 1226.5,-123 782.67,-102.82 670.98,-113.78 227.5,-87 193.02,-84.92 154.69,-81.75 123.08,-78.9"/>
<polygon fill="midnightblue" stroke="midnightblue" points="123.34,-75.41 113.06,-77.99 122.7,-82.38 123.34,-75.41"/>
</g>
<!-- Node14 -->
<g id="node14" class="node">
<title>Node14</title>
<g id="a_node14"><a xlink:title=" ">
<polygon fill="none" stroke="#bfbfbf" points="236.5,-62 236.5,-81 284.5,-81 284.5,-62 236.5,-62"/>
<text text-anchor="middle" x="260.5" y="-69" font-family="Helvetica,sans-Serif" font-size="10.00">mutex</text>
</a>
</g>
</g>
<!-- Node7&#45;&gt;Node14 -->
<g id="edge16" class="edge">
<title>Node7&#45;&gt;Node14</title>
<path fill="none" stroke="midnightblue" d="M1426.49,-133.83C1373.03,-130.8 1294.81,-126.45 1226.5,-123 880.35,-105.5 793.43,-108.4 447.5,-87 394.25,-83.71 332.57,-78.69 295.06,-75.5"/>
<polygon fill="midnightblue" stroke="midnightblue" points="294.95,-71.98 284.69,-74.62 294.36,-78.96 294.95,-71.98"/>
</g>
<!-- Node7&#45;&gt;Node15 -->
<g id="edge17" class="edge">
<title>Node7&#45;&gt;Node15</title>
<path fill="none" stroke="midnightblue" d="M1426.3,-125.08C1421.64,-124.33 1417,-123.62 1412.5,-123 1240.08,-99.07 1191.88,-127.15 1022.5,-87 1019.67,-86.33 1016.76,-85.48 1013.89,-84.54"/>
<polygon fill="midnightblue" stroke="midnightblue" points="1014.97,-81.21 1004.37,-81.08 1012.57,-87.79 1014.97,-81.21"/>
</g>
<!-- Node16 -->
<g id="node16" class="node">
<title>Node16</title>
<g id="a_node16"><a xlink:title=" ">
<polygon fill="none" stroke="#bfbfbf" points="1447,-62 1447,-81 1516,-81 1516,-62 1447,-62"/>
<text text-anchor="middle" x="1481.5" y="-69" font-family="Helvetica,sans-Serif" font-size="10.00">type_traits</text>
</a>
</g>
</g>
<!-- Node7&#45;&gt;Node16 -->
<g id="edge18" class="edge">
<title>Node7&#45;&gt;Node16</title>
<path fill="none" stroke="midnightblue" d="M1488.55,-123.4C1487.24,-113.96 1485.51,-101.45 1484.09,-91.19"/>
<polygon fill="midnightblue" stroke="midnightblue" points="1487.54,-90.62 1482.7,-81.19 1480.61,-91.58 1487.54,-90.62"/>
</g>
<!-- Node17 -->
<g id="node17" class="node">
<title>Node17</title>
<g id="a_node17"><a xlink:title=" ">
<polygon fill="none" stroke="#bfbfbf" points="457,-56.5 457,-86.5 602,-86.5 602,-56.5 457,-56.5"/>
<text text-anchor="start" x="465" y="-74.5" font-family="Helvetica,sans-Serif" font-size="10.00">boost/log/sources/severity</text>
<text text-anchor="middle" x="529.5" y="-63.5" font-family="Helvetica,sans-Serif" font-size="10.00">_logger.hpp</text>
</a>
</g>
</g>
<!-- Node7&#45;&gt;Node17 -->
<g id="edge19" class="edge">
<title>Node7&#45;&gt;Node17</title>
<path fill="none" stroke="midnightblue" d="M1426.26,-134.07C1290.15,-126.66 962.7,-108.13 688.5,-87 663.72,-85.09 636.8,-82.74 612.28,-80.49"/>
<polygon fill="midnightblue" stroke="midnightblue" points="612.57,-77 602.29,-79.57 611.92,-83.97 612.57,-77"/>
</g>
<!-- Node18 -->
<g id="node18" class="node">
<title>Node18</title>
<g id="a_node18"><a xlink:title=" ">
<polygon fill="none" stroke="#bfbfbf" points="697.5,-62 697.5,-81 811.5,-81 811.5,-62 697.5,-62"/>
<text text-anchor="middle" x="754.5" y="-69" font-family="Helvetica,sans-Serif" font-size="10.00">boost/log/trivial.hpp</text>
</a>
</g>
</g>
<!-- Node7&#45;&gt;Node18 -->
<g id="edge20" class="edge">
<title>Node7&#45;&gt;Node18</title>
<path fill="none" stroke="midnightblue" d="M1426.27,-133.82C1282.08,-125.37 936.27,-103.99 820.5,-87 813.56,-85.98 806.26,-84.65 799.15,-83.2"/>
<polygon fill="midnightblue" stroke="midnightblue" points="799.44,-79.68 788.93,-81.03 797.98,-86.53 799.44,-79.68"/>
</g>
<!-- Node7&#45;&gt;Node19 -->
<g id="edge21" class="edge">
<title>Node7&#45;&gt;Node19</title>
<path fill="none" stroke="midnightblue" d="M1554.79,-125.91C1561.1,-124.88 1567.42,-123.89 1573.5,-123 1708.12,-103.29 1742.92,-107 1877.5,-87 1885.93,-85.75 1894.83,-84.29 1903.52,-82.79"/>
<polygon fill="midnightblue" stroke="midnightblue" points="1904.35,-86.2 1913.59,-81.03 1903.14,-79.31 1904.35,-86.2"/>
</g>
<!-- Node7&#45;&gt;Node20 -->
<g id="edge22" class="edge">
<title>Node7&#45;&gt;Node20</title>
<path fill="none" stroke="midnightblue" d="M1554.75,-125.65C1561.07,-124.67 1567.4,-123.77 1573.5,-123 1779.61,-97.1 1833.78,-115.84 2039.5,-87 2047.21,-85.92 2055.34,-84.51 2063.24,-83"/>
<polygon fill="midnightblue" stroke="midnightblue" points="2063.94,-86.43 2073.07,-81.05 2062.58,-79.57 2063.94,-86.43"/>
</g>
<!-- Node7&#45;&gt;Node21 -->
<g id="edge23" class="edge">
<title>Node7&#45;&gt;Node21</title>
<path fill="none" stroke="midnightblue" d="M1554.72,-125.36C1561.05,-124.44 1567.39,-123.63 1573.5,-123 2072.02,-71.75 2203.31,-149.83 2700.5,-87 2707.83,-86.07 2715.56,-84.7 2723.02,-83.17"/>
<polygon fill="midnightblue" stroke="midnightblue" points="2723.95,-86.55 2732.98,-81.01 2722.46,-79.71 2723.95,-86.55"/>
</g>
<!-- Node7&#45;&gt;Node22 -->
<g id="edge24" class="edge">
<title>Node7&#45;&gt;Node22</title>
<path fill="none" stroke="midnightblue" d="M1554.74,-125.53C1561.06,-124.58 1567.4,-123.71 1573.5,-123 1842.82,-91.62 1912.88,-115.7 2182.5,-87 2193.56,-85.82 2205.31,-84.26 2216.62,-82.6"/>
<polygon fill="midnightblue" stroke="midnightblue" points="2217.49,-86.01 2226.85,-81.05 2216.44,-79.09 2217.49,-86.01"/>
</g>
<!-- Node7&#45;&gt;Node23 -->
<g id="edge25" class="edge">
<title>Node7&#45;&gt;Node23</title>
<path fill="none" stroke="midnightblue" d="M1554.73,-125.44C1561.06,-124.51 1567.39,-123.67 1573.5,-123 1925.98,-84.41 2018.49,-129.66 2370.5,-87 2378.89,-85.98 2387.76,-84.54 2396.31,-82.95"/>
<polygon fill="midnightblue" stroke="midnightblue" points="2397.01,-86.38 2406.16,-81.04 2395.68,-79.51 2397.01,-86.38"/>
</g>
<!-- Node24 -->
<g id="node24" class="node">
<title>Node24</title>
<g id="a_node24"><a xlink:title=" ">
<polygon fill="none" stroke="#bfbfbf" points="1534.5,-62 1534.5,-81 1686.5,-81 1686.5,-62 1534.5,-62"/>
<text text-anchor="middle" x="1610.5" y="-69" font-family="Helvetica,sans-Serif" font-size="10.00">impl/hdf5_core_general.hpp</text>
</a>
</g>
</g>
<!-- Node7&#45;&gt;Node24 -->
<g id="edge26" class="edge">
<title>Node7&#45;&gt;Node24</title>
<path fill="none" stroke="midnightblue" d="M1516.54,-123.4C1537.13,-112.24 1565.67,-96.78 1585.88,-85.83"/>
<polygon fill="midnightblue" stroke="midnightblue" points="1587.67,-88.85 1594.79,-81.01 1584.33,-82.69 1587.67,-88.85"/>
</g>
<!-- Node25&#45;&gt;Node21 -->
<g id="edge28" class="edge">
<title>Node25&#45;&gt;Node21</title>
<path fill="none" stroke="midnightblue" d="M2616.34,-128.87C2646.37,-117.52 2699.28,-97.52 2733.34,-84.65"/>
<polygon fill="midnightblue" stroke="midnightblue" points="2734.72,-87.87 2742.84,-81.06 2732.25,-81.32 2734.72,-87.87"/>
</g>
<!-- Node26 -->
<g id="node26" class="node">
<title>Node26</title>
<g id="a_node26"><a xlink:href="datatype_8h.html" target="_top" xlink:title=" ">
<polygon fill="none" stroke="black" points="2622,-62 2622,-81 2691,-81 2691,-62 2622,-62"/>
<text text-anchor="middle" x="2656.5" y="-69" font-family="Helvetica,sans-Serif" font-size="10.00">datatype.h</text>
</a>
</g>
</g>
<!-- Node25&#45;&gt;Node26 -->
<g id="edge29" class="edge">
<title>Node25&#45;&gt;Node26</title>
<path fill="none" stroke="midnightblue" d="M2602,-128.73C2612.01,-118.4 2628.84,-101.04 2641.16,-88.33"/>
<polygon fill="midnightblue" stroke="midnightblue" points="2643.69,-90.74 2648.14,-81.13 2638.67,-85.87 2643.69,-90.74"/>
</g>
<!-- Node27 -->
<g id="node27" class="node">
<title>Node27</title>
<g id="a_node27"><a xlink:href="timestamp_8h.html" target="_top" xlink:title=" ">
<polygon fill="none" stroke="black" points="2525,-62 2525,-81 2604,-81 2604,-62 2525,-62"/>
<text text-anchor="middle" x="2564.5" y="-69" font-family="Helvetica,sans-Serif" font-size="10.00">timestamp.h</text>
</a>
</g>
</g>
<!-- Node25&#45;&gt;Node27 -->
<g id="edge30" class="edge">
<title>Node25&#45;&gt;Node27</title>
<path fill="none" stroke="midnightblue" d="M2589.59,-128.73C2585.24,-118.99 2578.1,-102.98 2572.54,-90.53"/>
<polygon fill="midnightblue" stroke="midnightblue" points="2575.62,-88.83 2568.35,-81.13 2569.23,-91.69 2575.62,-88.83"/>
</g>
<!-- Node28 -->
<g id="node28" class="node">
<title>Node28</title>
<g id="a_node28"><a xlink:title=" ">
<polygon fill="none" stroke="#bfbfbf" points="2532,-0.5 2532,-19.5 2597,-19.5 2597,-0.5 2532,-0.5"/>
<text text-anchor="middle" x="2564.5" y="-7.5" font-family="Helvetica,sans-Serif" font-size="10.00">functional</text>
</a>
</g>
</g>
<!-- Node27&#45;&gt;Node28 -->
<g id="edge31" class="edge">
<title>Node27&#45;&gt;Node28</title>
<path fill="none" stroke="midnightblue" d="M2564.5,-61.98C2564.5,-53.58 2564.5,-40.48 2564.5,-29.66"/>
<polygon fill="midnightblue" stroke="midnightblue" points="2568,-29.51 2564.5,-19.51 2561,-29.51 2568,-29.51"/>
</g>
<!-- Node31&#45;&gt;Node9 -->
<g id="edge35" class="edge">
<title>Node31&#45;&gt;Node9</title>
<path fill="none" stroke="midnightblue" d="M2788.53,-123.4C2809.52,-113.86 2837.44,-101.16 2860.15,-90.84"/>
<polygon fill="midnightblue" stroke="midnightblue" points="2861.88,-93.9 2869.53,-86.58 2858.98,-87.53 2861.88,-93.9"/>
</g>
<!-- Node31&#45;&gt;Node15 -->
<g id="edge37" class="edge">
<title>Node31&#45;&gt;Node15</title>
<path fill="none" stroke="midnightblue" d="M2700.98,-129.81C2679.57,-127.2 2654.95,-124.55 2632.5,-123 2275.48,-98.36 1373.38,-157.37 1022.5,-87 1019.42,-86.38 1016.27,-85.53 1013.16,-84.53"/>
<polygon fill="midnightblue" stroke="midnightblue" points="1014.15,-81.17 1003.56,-81.04 1011.76,-87.75 1014.15,-81.17"/>
</g>
<!-- Node31&#45;&gt;Node21 -->
<g id="edge36" class="edge">
<title>Node31&#45;&gt;Node21</title>
<path fill="none" stroke="midnightblue" d="M2759.24,-123.4C2760.4,-113.96 2761.94,-101.45 2763.2,-91.19"/>
<polygon fill="midnightblue" stroke="midnightblue" points="2766.68,-91.55 2764.43,-81.19 2759.73,-90.69 2766.68,-91.55"/>
</g>
<!-- Node32&#45;&gt;Node3 -->
<g id="edge49" class="edge">
<title>Node32&#45;&gt;Node3</title>
<path fill="none" stroke="midnightblue" d="M843.97,-190.5C864.09,-184.06 886.45,-172.95 898.5,-154 910.8,-134.66 902.31,-107.74 894.18,-90.22"/>
<polygon fill="midnightblue" stroke="midnightblue" points="897.22,-88.47 889.59,-81.12 890.97,-91.62 897.22,-88.47"/>
</g>
<!-- Node32&#45;&gt;Node7 -->
<g id="edge50" class="edge">
<title>Node32&#45;&gt;Node7</title>
<path fill="none" stroke="midnightblue" d="M854.78,-194.48C975.85,-184.01 1275.82,-158.07 1416.04,-145.94"/>
<polygon fill="midnightblue" stroke="midnightblue" points="1416.6,-149.4 1426.26,-145.06 1415.99,-142.43 1416.6,-149.4"/>
</g>
<!-- Node32&#45;&gt;Node13 -->
<g id="edge56" class="edge">
<title>Node32&#45;&gt;Node13</title>
<path fill="none" stroke="midnightblue" d="M750.45,-199.62C615.75,-200.57 258.65,-198.66 150.5,-154 116.41,-139.93 85.98,-108.37 69.49,-88.92"/>
<polygon fill="midnightblue" stroke="midnightblue" points="72.18,-86.67 63.12,-81.17 66.77,-91.12 72.18,-86.67"/>
</g>
<!-- Node32&#45;&gt;Node14 -->
<g id="edge58" class="edge">
<title>Node32&#45;&gt;Node14</title>
<path fill="none" stroke="midnightblue" d="M750.34,-199.32C604.47,-199.68 200.38,-196.78 160.5,-154 134.28,-125.88 188.19,-98.83 226.55,-84.05"/>
<polygon fill="midnightblue" stroke="midnightblue" points="228.24,-87.16 236.4,-80.39 225.8,-80.6 228.24,-87.16"/>
</g>
<!-- Node32&#45;&gt;Node15 -->
<g id="edge59" class="edge">
<title>Node32&#45;&gt;Node15</title>
<path fill="none" stroke="midnightblue" d="M836.34,-190.42C860.24,-183.27 892.21,-171.42 916.5,-154 941.13,-136.34 962.45,-107.99 974.63,-89.81"/>
<polygon fill="midnightblue" stroke="midnightblue" points="977.62,-91.64 980.14,-81.35 971.76,-87.82 977.62,-91.64"/>
</g>
<!-- Node32&#45;&gt;Node17 -->
<g id="edge60" class="edge">
<title>Node32&#45;&gt;Node17</title>
<path fill="none" stroke="midnightblue" d="M750.38,-199.26C606.12,-199.44 209.67,-196.06 170.5,-154 161.11,-143.92 161.46,-133.4 170.5,-123 188.36,-102.45 346.13,-86.6 446.49,-78.5"/>
<polygon fill="midnightblue" stroke="midnightblue" points="446.93,-81.97 456.62,-77.69 446.37,-74.99 446.93,-81.97"/>
</g>
<!-- Node32&#45;&gt;Node18 -->
<g id="edge61" class="edge">
<title>Node32&#45;&gt;Node18</title>
<path fill="none" stroke="midnightblue" d="M832.38,-190.39C850.04,-183.59 870.95,-172.15 881.5,-154 888.42,-142.09 889.24,-134.4 881.5,-123 871.57,-108.36 830.14,-93.65 797.26,-83.91"/>
<polygon fill="midnightblue" stroke="midnightblue" points="797.95,-80.47 787.38,-81.05 796.01,-87.19 797.95,-80.47"/>
</g>
<!-- Node33 -->
<g id="node33" class="node">
<title>Node33</title>
<g id="a_node33"><a xlink:title=" ">
<polygon fill="none" stroke="#bfbfbf" points="179.5,-123.5 179.5,-153.5 297.5,-153.5 297.5,-123.5 179.5,-123.5"/>
<text text-anchor="start" x="187.5" y="-141.5" font-family="Helvetica,sans-Serif" font-size="10.00">seerep_msgs/header</text>
<text text-anchor="middle" x="238.5" y="-130.5" font-family="Helvetica,sans-Serif" font-size="10.00">_generated.h</text>
</a>
</g>
</g>
<!-- Node32&#45;&gt;Node33 -->
<g id="edge51" class="edge">
<title>Node32&#45;&gt;Node33</title>
<path fill="none" stroke="midnightblue" d="M750.48,-196.33C661.66,-191.33 474.91,-178.87 307.73,-154.07"/>
<polygon fill="midnightblue" stroke="midnightblue" points="308.17,-150.6 297.76,-152.57 307.13,-157.52 308.17,-150.6"/>
</g>
<!-- Node34 -->
<g id="node34" class="node">
<title>Node34</title>
<g id="a_node34"><a xlink:title=" ">
<polygon fill="none" stroke="#bfbfbf" points="315.5,-123.5 315.5,-153.5 471.5,-153.5 471.5,-123.5 315.5,-123.5"/>
<text text-anchor="start" x="323.5" y="-141.5" font-family="Helvetica,sans-Serif" font-size="10.00">seerep_msgs/label_category</text>
<text text-anchor="middle" x="393.5" y="-130.5" font-family="Helvetica,sans-Serif" font-size="10.00">_generated.h</text>
</a>
</g>
</g>
<!-- Node32&#45;&gt;Node34 -->
<g id="edge52" class="edge">
<title>Node32&#45;&gt;Node34</title>
<path fill="none" stroke="midnightblue" d="M750.29,-192.13C688.6,-183.92 582.6,-169.52 481.79,-154.18"/>
<polygon fill="midnightblue" stroke="midnightblue" points="482.15,-150.69 471.74,-152.64 481.1,-157.61 482.15,-150.69"/>
</g>
<!-- Node35 -->
<g id="node35" class="node">
<title>Node35</title>
<g id="a_node35"><a xlink:title=" ">
<polygon fill="none" stroke="#bfbfbf" points="489.5,-123.5 489.5,-153.5 627.5,-153.5 627.5,-123.5 489.5,-123.5"/>
<text text-anchor="start" x="497.5" y="-141.5" font-family="Helvetica,sans-Serif" font-size="10.00">seerep_msgs/union_map</text>
<text text-anchor="middle" x="558.5" y="-130.5" font-family="Helvetica,sans-Serif" font-size="10.00">_entry_generated.h</text>
</a>
</g>
</g>
<!-- Node32&#45;&gt;Node35 -->
<g id="edge53" class="edge">
<title>Node32&#45;&gt;Node35</title>
<path fill="none" stroke="midnightblue" d="M767.54,-190.48C730.71,-181.49 671.8,-167.13 625.89,-155.93"/>
<polygon fill="midnightblue" stroke="midnightblue" points="626.55,-152.49 616.01,-153.52 624.89,-159.29 626.55,-152.49"/>
</g>
<!-- Node32&#45;&gt;Node36 -->
<g id="edge54" class="edge">
<title>Node32&#45;&gt;Node36</title>
<path fill="none" stroke="midnightblue" d="M838.75,-190.48C883.65,-179.92 960.21,-161.91 1009.28,-150.37"/>
<polygon fill="midnightblue" stroke="midnightblue" points="1010.39,-153.71 1019.32,-148.01 1008.78,-146.89 1010.39,-153.71"/>
</g>
<!-- Node32&#45;&gt;Node37 -->
<g id="edge55" class="edge">
<title>Node32&#45;&gt;Node37</title>
<path fill="none" stroke="midnightblue" d="M854.51,-193.17C916.5,-185.84 1023.07,-171.99 1113.5,-154 1118.63,-152.98 1123.98,-151.79 1129.27,-150.53"/>
<polygon fill="midnightblue" stroke="midnightblue" points="1130.4,-153.86 1139.28,-148.07 1128.73,-147.06 1130.4,-153.86"/>
</g>
<!-- Node38 -->
<g id="node38" class="node">
<title>Node38</title>
<g id="a_node38"><a xlink:title=" ">
<polygon fill="none" stroke="#bfbfbf" points="645.5,-129 645.5,-148 713.5,-148 713.5,-129 645.5,-129"/>
<text text-anchor="middle" x="679.5" y="-136" font-family="Helvetica,sans-Serif" font-size="10.00">filesystem</text>
</a>
</g>
</g>
<!-- Node32&#45;&gt;Node38 -->
<g id="edge57" class="edge">
<title>Node32&#45;&gt;Node38</title>
<path fill="none" stroke="midnightblue" d="M784.88,-190.48C764.33,-180.53 730.14,-163.99 706.29,-152.46"/>
<polygon fill="midnightblue" stroke="midnightblue" points="707.62,-149.21 697.09,-148.01 704.57,-155.51 707.62,-149.21"/>
</g>
<!-- Node39 -->
<g id="node39" class="node">
<title>Node39</title>
<g id="a_node39"><a xlink:title=" ">
<polygon fill="none" stroke="#bfbfbf" points="732,-129 732,-148 873,-148 873,-129 732,-129"/>
<text text-anchor="middle" x="802.5" y="-136" font-family="Helvetica,sans-Serif" font-size="10.00">impl/hdf5_fb_general.hpp</text>
</a>
</g>
</g>
<!-- Node32&#45;&gt;Node39 -->
<g id="edge62" class="edge">
<title>Node32&#45;&gt;Node39</title>
<path fill="none" stroke="midnightblue" d="M802.5,-190.48C802.5,-182.08 802.5,-168.98 802.5,-158.16"/>
<polygon fill="midnightblue" stroke="midnightblue" points="806,-158.01 802.5,-148.01 799,-158.01 806,-158.01"/>
</g>
</g>
</svg>
