<?xml version="1.0" encoding="UTF-8" standalone="no"?>
<!DOCTYPE svg PUBLIC "-//W3C//DTD SVG 1.1//EN"
 "http://www.w3.org/Graphics/SVG/1.1/DTD/svg11.dtd">
<!-- Generated by graphviz version 2.43.0 (0)
 -->
<!-- Title: seerep_hdf5/seerep_hdf5_fb/include/seerep_hdf5_fb/hdf5_fb_tf.h Pages: 1 -->
<svg width="2550pt" height="251pt"
 viewBox="0.00 0.00 2550.00 251.00" xmlns="http://www.w3.org/2000/svg" xmlns:xlink="http://www.w3.org/1999/xlink">
<g id="graph0" class="graph" transform="scale(1 1) rotate(0) translate(4 247)">
<title>seerep_hdf5/seerep_hdf5_fb/include/seerep_hdf5_fb/hdf5_fb_tf.h</title>
<!-- Node1 -->
<g id="node1" class="node">
<title>Node1</title>
<g id="a_node1"><a xlink:title=" ">
<polygon fill="#bfbfbf" stroke="black" points="2021.5,-201.5 2021.5,-242.5 2154.5,-242.5 2154.5,-201.5 2021.5,-201.5"/>
<text text-anchor="start" x="2029.5" y="-230.5" font-family="Helvetica,sans-Serif" font-size="10.00">seerep_hdf5/seerep</text>
<text text-anchor="start" x="2029.5" y="-219.5" font-family="Helvetica,sans-Serif" font-size="10.00">_hdf5_fb/include/seerep</text>
<text text-anchor="middle" x="2088" y="-208.5" font-family="Helvetica,sans-Serif" font-size="10.00">_hdf5_fb/hdf5_fb_tf.h</text>
</a>
</g>
</g>
<!-- Node2 -->
<g id="node2" class="node">
<title>Node2</title>
<g id="a_node2"><a xlink:title=" ">
<polygon fill="none" stroke="#bfbfbf" points="2200,-6 2200,-25 2310,-25 2310,-6 2200,-6"/>
<text text-anchor="middle" x="2255" y="-13" font-family="Helvetica,sans-Serif" font-size="10.00">highfive/H5File.hpp</text>
</a>
</g>
</g>
<!-- Node1&#45;&gt;Node2 -->
<g id="edge1" class="edge">
<title>Node1&#45;&gt;Node2</title>
<path fill="none" stroke="midnightblue" d="M2140.82,-201.49C2184.01,-182.38 2242.15,-148.7 2269,-98 2279.57,-78.04 2271.86,-51.83 2264.34,-34.59"/>
<polygon fill="midnightblue" stroke="midnightblue" points="2267.31,-32.68 2259.86,-25.15 2260.99,-35.69 2267.31,-32.68"/>
</g>
<!-- Node3 -->
<g id="node3" class="node">
<title>Node3</title>
<g id="a_node3"><a xlink:href="hdf5__core__tf_8h.html" target="_top" xlink:title=" ">
<polygon fill="none" stroke="black" points="998,-134.5 998,-164.5 1126,-164.5 1126,-134.5 998,-134.5"/>
<text text-anchor="start" x="1006" y="-152.5" font-family="Helvetica,sans-Serif" font-size="10.00">seerep_hdf5_core/hdf5</text>
<text text-anchor="middle" x="1062" y="-141.5" font-family="Helvetica,sans-Serif" font-size="10.00">_core_tf.h</text>
</a>
</g>
</g>
<!-- Node1&#45;&gt;Node3 -->
<g id="edge2" class="edge">
<title>Node1&#45;&gt;Node3</title>
<path fill="none" stroke="midnightblue" d="M2021.47,-216.43C1838.36,-203.85 1327.81,-168.76 1136.05,-155.59"/>
<polygon fill="midnightblue" stroke="midnightblue" points="1136.28,-152.1 1126.07,-154.9 1135.8,-159.08 1136.28,-152.1"/>
</g>
<!-- Node5 -->
<g id="node5" class="node">
<title>Node5</title>
<g id="a_node5"><a xlink:title=" ">
<polygon fill="none" stroke="#bfbfbf" points="0,-6 0,-25 56,-25 56,-6 0,-6"/>
<text text-anchor="middle" x="28" y="-13" font-family="Helvetica,sans-Serif" font-size="10.00">optional</text>
</a>
</g>
</g>
<!-- Node1&#45;&gt;Node5 -->
<g id="edge41" class="edge">
<title>Node1&#45;&gt;Node5</title>
<path fill="none" stroke="midnightblue" d="M2021.25,-219.76C1849.61,-216.11 1379.02,-203.13 989,-165 576.01,-124.62 466.15,-137.18 65,-31 62.34,-30.3 59.61,-29.46 56.9,-28.55"/>
<polygon fill="midnightblue" stroke="midnightblue" points="57.9,-25.19 47.31,-25.03 55.49,-31.76 57.9,-25.19"/>
</g>
<!-- Node12 -->
<g id="node12" class="node">
<title>Node12</title>
<g id="a_node12"><a xlink:title=" ">
<polygon fill="none" stroke="#bfbfbf" points="2328.5,-6 2328.5,-25 2441.5,-25 2441.5,-6 2328.5,-6"/>
<text text-anchor="middle" x="2385" y="-13" font-family="Helvetica,sans-Serif" font-size="10.00">boost/geometry.hpp</text>
</a>
</g>
</g>
<!-- Node1&#45;&gt;Node12 -->
<g id="edge40" class="edge">
<title>Node1&#45;&gt;Node12</title>
<path fill="none" stroke="midnightblue" d="M2154.78,-202.96C2181.87,-193.93 2212.67,-181.37 2238,-165 2295.98,-127.52 2348.99,-63.7 2372.38,-33.41"/>
<polygon fill="midnightblue" stroke="midnightblue" points="2375.39,-35.23 2378.66,-25.15 2369.82,-30.99 2375.39,-35.23"/>
</g>
<!-- Node23 -->
<g id="node23" class="node">
<title>Node23</title>
<g id="a_node23"><a xlink:href="hdf5__fb__general_8h.html" target="_top" xlink:title=" ">
<polygon fill="none" stroke="black" points="1780,-140 1780,-159 1884,-159 1884,-140 1780,-140"/>
<text text-anchor="middle" x="1832" y="-147" font-family="Helvetica,sans-Serif" font-size="10.00">hdf5_fb_general.h</text>
</a>
</g>
</g>
<!-- Node1&#45;&gt;Node23 -->
<g id="edge24" class="edge">
<title>Node1&#45;&gt;Node23</title>
<path fill="none" stroke="midnightblue" d="M2021.41,-202.66C1974.29,-189.69 1912.62,-172.7 1872.66,-161.7"/>
<polygon fill="midnightblue" stroke="midnightblue" points="1873.56,-158.32 1862.99,-159.04 1871.71,-165.07 1873.56,-158.32"/>
</g>
<!-- Node31 -->
<g id="node31" class="node">
<title>Node31</title>
<g id="a_node31"><a xlink:title=" ">
<polygon fill="none" stroke="#bfbfbf" points="2410,-134.5 2410,-164.5 2542,-164.5 2542,-134.5 2410,-134.5"/>
<text text-anchor="start" x="2418" y="-152.5" font-family="Helvetica,sans-Serif" font-size="10.00">seerep_msgs/transform</text>
<text text-anchor="middle" x="2476" y="-141.5" font-family="Helvetica,sans-Serif" font-size="10.00">_stamped_generated.h</text>
</a>
</g>
</g>
<!-- Node1&#45;&gt;Node31 -->
<g id="edge39" class="edge">
<title>Node1&#45;&gt;Node31</title>
<path fill="none" stroke="midnightblue" d="M2154.7,-208.88C2222.75,-196.52 2328.2,-177.36 2399.57,-164.39"/>
<polygon fill="midnightblue" stroke="midnightblue" points="2400.63,-167.75 2409.85,-162.52 2399.38,-160.86 2400.63,-167.75"/>
</g>
<!-- Node4 -->
<g id="node4" class="node">
<title>Node4</title>
<g id="a_node4"><a xlink:title=" ">
<polygon fill="none" stroke="#bfbfbf" points="772,-73 772,-92 972,-92 972,-73 772,-73"/>
<text text-anchor="middle" x="872" y="-80" font-family="Helvetica,sans-Serif" font-size="10.00">geometry_msgs/TransformStamped.h</text>
</a>
</g>
</g>
<!-- Node3&#45;&gt;Node4 -->
<g id="edge3" class="edge">
<title>Node3&#45;&gt;Node4</title>
<path fill="none" stroke="midnightblue" d="M1020.77,-134.4C986.7,-122.74 938.86,-106.37 906.71,-95.38"/>
<polygon fill="midnightblue" stroke="midnightblue" points="907.46,-91.93 896.87,-92.01 905.2,-98.56 907.46,-91.93"/>
</g>
<!-- Node3&#45;&gt;Node5 -->
<g id="edge4" class="edge">
<title>Node3&#45;&gt;Node5</title>
<path fill="none" stroke="midnightblue" d="M1053.08,-134.39C1039.97,-115.1 1013.51,-81.28 981,-67 887.74,-26.04 164.69,-51.87 65,-31 61.99,-30.37 58.91,-29.52 55.87,-28.55"/>
<polygon fill="midnightblue" stroke="midnightblue" points="57.04,-25.25 46.45,-25.13 54.66,-31.83 57.04,-25.25"/>
</g>
<!-- Node6 -->
<g id="node6" class="node">
<title>Node6</title>
<g id="a_node6"><a xlink:href="hdf5__core__general_8h.html" target="_top" xlink:title=" ">
<polygon fill="none" stroke="black" points="1066,-73 1066,-92 1182,-92 1182,-73 1066,-73"/>
<text text-anchor="middle" x="1124" y="-80" font-family="Helvetica,sans-Serif" font-size="10.00">hdf5_core_general.h</text>
</a>
</g>
</g>
<!-- Node3&#45;&gt;Node6 -->
<g id="edge5" class="edge">
<title>Node3&#45;&gt;Node6</title>
<path fill="none" stroke="midnightblue" d="M1075.45,-134.4C1085.22,-124.16 1098.44,-110.3 1108.62,-99.62"/>
<polygon fill="midnightblue" stroke="midnightblue" points="1111.34,-101.85 1115.71,-92.19 1106.27,-97.01 1111.34,-101.85"/>
</g>
<!-- Node6&#45;&gt;Node2 -->
<g id="edge6" class="edge">
<title>Node6&#45;&gt;Node2</title>
<path fill="none" stroke="midnightblue" d="M1178.11,-72.98C1194.43,-70.69 1212.41,-68.45 1229,-67 1655.22,-29.69 1766.76,-86.51 2191,-31 2197.98,-30.09 2205.32,-28.77 2212.45,-27.3"/>
<polygon fill="midnightblue" stroke="midnightblue" points="2213.63,-30.62 2222.65,-25.05 2212.13,-23.78 2213.63,-30.62"/>
</g>
<!-- Node6&#45;&gt;Node5 -->
<g id="edge14" class="edge">
<title>Node6&#45;&gt;Node5</title>
<path fill="none" stroke="midnightblue" d="M1087.56,-72.97C1076.23,-70.64 1063.65,-68.38 1052,-67 834.04,-41.25 279.88,-75.67 65,-31 61.99,-30.37 58.91,-29.53 55.87,-28.55"/>
<polygon fill="midnightblue" stroke="midnightblue" points="57.04,-25.26 46.45,-25.14 54.65,-31.84 57.04,-25.26"/>
</g>
<!-- Node7 -->
<g id="node7" class="node">
<title>Node7</title>
<g id="a_node7"><a xlink:title=" ">
<polygon fill="none" stroke="#bfbfbf" points="74.5,-6 74.5,-25 191.5,-25 191.5,-6 74.5,-6"/>
<text text-anchor="middle" x="133" y="-13" font-family="Helvetica,sans-Serif" font-size="10.00">seerep_msgs/aabb.h</text>
</a>
</g>
</g>
<!-- Node6&#45;&gt;Node7 -->
<g id="edge7" class="edge">
<title>Node6&#45;&gt;Node7</title>
<path fill="none" stroke="midnightblue" d="M1087.18,-72.93C1075.95,-70.63 1063.52,-68.39 1052,-67 675.74,-21.45 575.92,-79.26 200,-31 192.45,-30.03 184.49,-28.64 176.79,-27.1"/>
<polygon fill="midnightblue" stroke="midnightblue" points="177.4,-23.65 166.89,-25.01 175.95,-30.5 177.4,-23.65"/>
</g>
<!-- Node8 -->
<g id="node8" class="node">
<title>Node8</title>
<g id="a_node8"><a xlink:title=" ">
<polygon fill="none" stroke="#bfbfbf" points="209.5,-0.5 209.5,-30.5 330.5,-30.5 330.5,-0.5 209.5,-0.5"/>
<text text-anchor="start" x="217.5" y="-18.5" font-family="Helvetica,sans-Serif" font-size="10.00">seerep_msgs/dataset</text>
<text text-anchor="middle" x="270" y="-7.5" font-family="Helvetica,sans-Serif" font-size="10.00">_indexable.h</text>
</a>
</g>
</g>
<!-- Node6&#45;&gt;Node8 -->
<g id="edge8" class="edge">
<title>Node6&#45;&gt;Node8</title>
<path fill="none" stroke="midnightblue" d="M1087.17,-72.99C1075.94,-70.69 1063.51,-68.44 1052,-67 740.99,-28.04 656.1,-70.33 340.96,-30.96"/>
<polygon fill="midnightblue" stroke="midnightblue" points="340.97,-27.43 330.61,-29.65 340.09,-34.38 340.97,-27.43"/>
</g>
<!-- Node9 -->
<g id="node9" class="node">
<title>Node9</title>
<g id="a_node9"><a xlink:title=" ">
<polygon fill="none" stroke="#bfbfbf" points="349,-0.5 349,-30.5 475,-30.5 475,-0.5 349,-0.5"/>
<text text-anchor="start" x="357" y="-18.5" font-family="Helvetica,sans-Serif" font-size="10.00">seerep_msgs/geodetic</text>
<text text-anchor="middle" x="412" y="-7.5" font-family="Helvetica,sans-Serif" font-size="10.00">_coordinates.h</text>
</a>
</g>
</g>
<!-- Node6&#45;&gt;Node9 -->
<g id="edge9" class="edge">
<title>Node6&#45;&gt;Node9</title>
<path fill="none" stroke="midnightblue" d="M1086.42,-72.93C1075.38,-70.69 1063.25,-68.48 1052,-67 804.52,-34.39 736.57,-63.26 485.3,-31.04"/>
<polygon fill="midnightblue" stroke="midnightblue" points="485.5,-27.54 475.14,-29.72 484.6,-34.48 485.5,-27.54"/>
</g>
<!-- Node10 -->
<g id="node10" class="node">
<title>Node10</title>
<g id="a_node10"><a xlink:title=" ">
<polygon fill="none" stroke="#bfbfbf" points="493.5,-6 493.5,-25 610.5,-25 610.5,-6 493.5,-6"/>
<text text-anchor="middle" x="552" y="-13" font-family="Helvetica,sans-Serif" font-size="10.00">seerep_msgs/label.h</text>
</a>
</g>
</g>
<!-- Node6&#45;&gt;Node10 -->
<g id="edge10" class="edge">
<title>Node6&#45;&gt;Node10</title>
<path fill="none" stroke="midnightblue" d="M1086.03,-73C1075.09,-70.78 1063.11,-68.58 1052,-67 861.24,-39.94 810.6,-59.15 620,-31 612.78,-29.93 605.17,-28.56 597.76,-27.09"/>
<polygon fill="midnightblue" stroke="midnightblue" points="598.34,-23.63 587.84,-25.03 596.92,-30.49 598.34,-23.63"/>
</g>
<!-- Node11 -->
<g id="node11" class="node">
<title>Node11</title>
<g id="a_node11"><a xlink:title=" ">
<polygon fill="none" stroke="#bfbfbf" points="629,-6 629,-25 793,-25 793,-6 629,-6"/>
<text text-anchor="middle" x="711" y="-13" font-family="Helvetica,sans-Serif" font-size="10.00">seerep_msgs/label_category.h</text>
</a>
</g>
</g>
<!-- Node6&#45;&gt;Node11 -->
<g id="edge11" class="edge">
<title>Node6&#45;&gt;Node11</title>
<path fill="none" stroke="midnightblue" d="M1083.71,-72.97C1073.39,-70.9 1062.3,-68.78 1052,-67 941.38,-47.91 912.99,-47.83 802,-31 792.94,-29.63 783.38,-28.14 773.99,-26.66"/>
<polygon fill="midnightblue" stroke="midnightblue" points="774.33,-23.17 763.91,-25.07 773.24,-30.09 774.33,-23.17"/>
</g>
<!-- Node6&#45;&gt;Node12 -->
<g id="edge12" class="edge">
<title>Node6&#45;&gt;Node12</title>
<path fill="none" stroke="midnightblue" d="M1177.84,-72.97C1194.22,-70.67 1212.31,-68.42 1229,-67 1711.95,-25.79 1838.05,-91.26 2319,-31 2326.36,-30.08 2334.12,-28.73 2341.62,-27.21"/>
<polygon fill="midnightblue" stroke="midnightblue" points="2342.58,-30.59 2351.63,-25.08 2341.12,-23.74 2342.58,-30.59"/>
</g>
<!-- Node13 -->
<g id="node13" class="node">
<title>Node13</title>
<g id="a_node13"><a xlink:title=" ">
<polygon fill="none" stroke="#bfbfbf" points="1970,-6 1970,-25 2018,-25 2018,-6 1970,-6"/>
<text text-anchor="middle" x="1994" y="-13" font-family="Helvetica,sans-Serif" font-size="10.00">mutex</text>
</a>
</g>
</g>
<!-- Node6&#45;&gt;Node13 -->
<g id="edge13" class="edge">
<title>Node6&#45;&gt;Node13</title>
<path fill="none" stroke="midnightblue" d="M1178.93,-72.98C1195.03,-70.74 1212.69,-68.52 1229,-67 1391.16,-51.85 1802.48,-68.38 1961,-31 1963.36,-30.44 1965.77,-29.72 1968.15,-28.9"/>
<polygon fill="midnightblue" stroke="midnightblue" points="1969.64,-32.07 1977.62,-25.1 1967.04,-25.57 1969.64,-32.07"/>
</g>
<!-- Node14 -->
<g id="node14" class="node">
<title>Node14</title>
<g id="a_node14"><a xlink:title=" ">
<polygon fill="none" stroke="#bfbfbf" points="811.5,-6 811.5,-25 880.5,-25 880.5,-6 811.5,-6"/>
<text text-anchor="middle" x="846" y="-13" font-family="Helvetica,sans-Serif" font-size="10.00">type_traits</text>
</a>
</g>
</g>
<!-- Node6&#45;&gt;Node14 -->
<g id="edge15" class="edge">
<title>Node6&#45;&gt;Node14</title>
<path fill="none" stroke="midnightblue" d="M1081.33,-72.94C1023.88,-61.3 924.71,-40.82 889,-31 885.98,-30.17 882.87,-29.25 879.76,-28.28"/>
<polygon fill="midnightblue" stroke="midnightblue" points="880.55,-24.86 869.96,-25.12 878.4,-31.52 880.55,-24.86"/>
</g>
<!-- Node15 -->
<g id="node15" class="node">
<title>Node15</title>
<g id="a_node15"><a xlink:title=" ">
<polygon fill="none" stroke="#bfbfbf" points="2036.5,-0.5 2036.5,-30.5 2181.5,-30.5 2181.5,-0.5 2036.5,-0.5"/>
<text text-anchor="start" x="2044.5" y="-18.5" font-family="Helvetica,sans-Serif" font-size="10.00">boost/log/sources/severity</text>
<text text-anchor="middle" x="2109" y="-7.5" font-family="Helvetica,sans-Serif" font-size="10.00">_logger.hpp</text>
</a>
</g>
</g>
<!-- Node6&#45;&gt;Node15 -->
<g id="edge16" class="edge">
<title>Node6&#45;&gt;Node15</title>
<path fill="none" stroke="midnightblue" d="M1178.66,-72.98C1194.83,-70.72 1212.6,-68.5 1229,-67 1579.27,-34.98 1672.4,-69.34 2026.19,-30.98"/>
<polygon fill="midnightblue" stroke="midnightblue" points="2026.63,-34.45 2036.19,-29.88 2025.87,-27.49 2026.63,-34.45"/>
</g>
<!-- Node16 -->
<g id="node16" class="node">
<title>Node16</title>
<g id="a_node16"><a xlink:title=" ">
<polygon fill="none" stroke="#bfbfbf" points="1838,-6 1838,-25 1952,-25 1952,-6 1838,-6"/>
<text text-anchor="middle" x="1895" y="-13" font-family="Helvetica,sans-Serif" font-size="10.00">boost/log/trivial.hpp</text>
</a>
</g>
</g>
<!-- Node6&#45;&gt;Node16 -->
<g id="edge17" class="edge">
<title>Node6&#45;&gt;Node16</title>
<path fill="none" stroke="midnightblue" d="M1161.2,-72.96C1172.34,-70.69 1184.62,-68.46 1196,-67 1475.49,-31.09 1549.83,-69.35 1829,-31 1836.19,-30.01 1843.76,-28.65 1851.11,-27.16"/>
<polygon fill="midnightblue" stroke="midnightblue" points="1851.88,-30.58 1860.93,-25.07 1850.42,-23.73 1851.88,-30.58"/>
</g>
<!-- Node17 -->
<g id="node17" class="node">
<title>Node17</title>
<g id="a_node17"><a xlink:title=" ">
<polygon fill="none" stroke="#bfbfbf" points="898.5,-6 898.5,-25 1041.5,-25 1041.5,-6 898.5,-6"/>
<text text-anchor="middle" x="970" y="-13" font-family="Helvetica,sans-Serif" font-size="10.00">boost/functional/hash.hpp</text>
</a>
</g>
</g>
<!-- Node6&#45;&gt;Node17 -->
<g id="edge18" class="edge">
<title>Node6&#45;&gt;Node17</title>
<path fill="none" stroke="midnightblue" d="M1103.55,-72.87C1076.97,-61.65 1030.36,-41.98 999.83,-29.09"/>
<polygon fill="midnightblue" stroke="midnightblue" points="1001.11,-25.83 990.53,-25.17 998.39,-32.28 1001.11,-25.83"/>
</g>
<!-- Node18 -->
<g id="node18" class="node">
<title>Node18</title>
<g id="a_node18"><a xlink:title=" ">
<polygon fill="none" stroke="#bfbfbf" points="1059.5,-6 1059.5,-25 1184.5,-25 1184.5,-6 1059.5,-6"/>
<text text-anchor="middle" x="1122" y="-13" font-family="Helvetica,sans-Serif" font-size="10.00">boost/lexical_cast.hpp</text>
</a>
</g>
</g>
<!-- Node6&#45;&gt;Node18 -->
<g id="edge19" class="edge">
<title>Node6&#45;&gt;Node18</title>
<path fill="none" stroke="midnightblue" d="M1123.73,-72.73C1123.44,-63.18 1122.96,-47.62 1122.58,-35.28"/>
<polygon fill="midnightblue" stroke="midnightblue" points="1126.07,-35.01 1122.27,-25.13 1119.07,-35.23 1126.07,-35.01"/>
</g>
<!-- Node19 -->
<g id="node19" class="node">
<title>Node19</title>
<g id="a_node19"><a xlink:title=" ">
<polygon fill="none" stroke="#bfbfbf" points="1202.5,-6 1202.5,-25 1315.5,-25 1315.5,-6 1202.5,-6"/>
<text text-anchor="middle" x="1259" y="-13" font-family="Helvetica,sans-Serif" font-size="10.00">boost/uuid/uuid.hpp</text>
</a>
</g>
</g>
<!-- Node6&#45;&gt;Node19 -->
<g id="edge20" class="edge">
<title>Node6&#45;&gt;Node19</title>
<path fill="none" stroke="midnightblue" d="M1141.93,-72.87C1164.92,-61.8 1205.03,-42.49 1231.8,-29.6"/>
<polygon fill="midnightblue" stroke="midnightblue" points="1233.51,-32.66 1241,-25.17 1230.47,-26.35 1233.51,-32.66"/>
</g>
<!-- Node20 -->
<g id="node20" class="node">
<title>Node20</title>
<g id="a_node20"><a xlink:title=" ">
<polygon fill="none" stroke="#bfbfbf" points="1334,-6 1334,-25 1504,-25 1504,-6 1334,-6"/>
<text text-anchor="middle" x="1419" y="-13" font-family="Helvetica,sans-Serif" font-size="10.00">boost/uuid/uuid_generators.hpp</text>
</a>
</g>
</g>
<!-- Node6&#45;&gt;Node20 -->
<g id="edge21" class="edge">
<title>Node6&#45;&gt;Node20</title>
<path fill="none" stroke="midnightblue" d="M1162.87,-72.94C1216.15,-61.2 1311.87,-40.11 1370,-27.3"/>
<polygon fill="midnightblue" stroke="midnightblue" points="1371.03,-30.65 1380.04,-25.08 1369.53,-23.82 1371.03,-30.65"/>
</g>
<!-- Node21 -->
<g id="node21" class="node">
<title>Node21</title>
<g id="a_node21"><a xlink:title=" ">
<polygon fill="none" stroke="#bfbfbf" points="1522.5,-6 1522.5,-25 1649.5,-25 1649.5,-6 1522.5,-6"/>
<text text-anchor="middle" x="1586" y="-13" font-family="Helvetica,sans-Serif" font-size="10.00">boost/uuid/uuid_io.hpp</text>
</a>
</g>
</g>
<!-- Node6&#45;&gt;Node21 -->
<g id="edge22" class="edge">
<title>Node6&#45;&gt;Node21</title>
<path fill="none" stroke="midnightblue" d="M1163.13,-72.99C1173.76,-70.85 1185.29,-68.68 1196,-67 1336.07,-44.98 1372.9,-52.83 1513,-31 1520.55,-29.82 1528.5,-28.42 1536.27,-26.95"/>
<polygon fill="midnightblue" stroke="midnightblue" points="1537.17,-30.34 1546.33,-25 1535.84,-23.47 1537.17,-30.34"/>
</g>
<!-- Node22 -->
<g id="node22" class="node">
<title>Node22</title>
<g id="a_node22"><a xlink:title=" ">
<polygon fill="none" stroke="#bfbfbf" points="1668,-6 1668,-25 1820,-25 1820,-6 1668,-6"/>
<text text-anchor="middle" x="1744" y="-13" font-family="Helvetica,sans-Serif" font-size="10.00">impl/hdf5_core_general.hpp</text>
</a>
</g>
</g>
<!-- Node6&#45;&gt;Node22 -->
<g id="edge23" class="edge">
<title>Node6&#45;&gt;Node22</title>
<path fill="none" stroke="midnightblue" d="M1161.97,-72.96C1172.91,-70.74 1184.89,-68.55 1196,-67 1399.99,-38.62 1453.59,-56.15 1658,-31 1667.81,-29.79 1678.2,-28.26 1688.25,-26.65"/>
<polygon fill="midnightblue" stroke="midnightblue" points="1688.84,-30.09 1698.14,-25.01 1687.7,-23.19 1688.84,-30.09"/>
</g>
<!-- Node23&#45;&gt;Node2 -->
<g id="edge25" class="edge">
<title>Node23&#45;&gt;Node2</title>
<path fill="none" stroke="midnightblue" d="M1884.29,-145.83C1990.63,-139.88 2224.21,-123.99 2249,-98 2264.81,-81.43 2263.07,-53.35 2259.62,-34.87"/>
<polygon fill="midnightblue" stroke="midnightblue" points="2263.02,-34.04 2257.46,-25.02 2256.19,-35.54 2263.02,-34.04"/>
</g>
<!-- Node23&#45;&gt;Node5 -->
<g id="edge35" class="edge">
<title>Node23&#45;&gt;Node5</title>
<path fill="none" stroke="midnightblue" d="M1779.83,-149.05C1628.17,-150.02 1189.71,-148.28 1057,-98 1035.97,-90.03 1038.14,-74.68 1017,-67 818.02,5.31 272.25,-74.23 65,-31 61.99,-30.37 58.91,-29.52 55.87,-28.55"/>
<polygon fill="midnightblue" stroke="midnightblue" points="57.04,-25.25 46.45,-25.13 54.66,-31.83 57.04,-25.25"/>
</g>
<!-- Node23&#45;&gt;Node6 -->
<g id="edge26" class="edge">
<title>Node23&#45;&gt;Node6</title>
<path fill="none" stroke="midnightblue" d="M1779.83,-146.47C1670.91,-141.77 1411.55,-128.15 1196,-98 1188.19,-96.91 1179.94,-95.5 1171.94,-93.98"/>
<polygon fill="midnightblue" stroke="midnightblue" points="1172.45,-90.52 1161.97,-92.03 1171.11,-97.39 1172.45,-90.52"/>
</g>
<!-- Node23&#45;&gt;Node12 -->
<g id="edge32" class="edge">
<title>Node23&#45;&gt;Node12</title>
<path fill="none" stroke="midnightblue" d="M1884.3,-145.69C1984.5,-139.77 2199.77,-124.36 2269,-98 2308.8,-82.85 2347.79,-50.95 2368.89,-31.86"/>
<polygon fill="midnightblue" stroke="midnightblue" points="2371.33,-34.36 2376.3,-25 2366.58,-29.22 2371.33,-34.36"/>
</g>
<!-- Node23&#45;&gt;Node13 -->
<g id="edge34" class="edge">
<title>Node23&#45;&gt;Node13</title>
<path fill="none" stroke="midnightblue" d="M1832.08,-139.6C1832.71,-123.07 1836.42,-87.46 1856,-67 1890.11,-31.36 1915.04,-48.94 1961,-31 1962.6,-30.37 1964.24,-29.72 1965.89,-29.04"/>
<polygon fill="midnightblue" stroke="midnightblue" points="1967.43,-32.19 1975.27,-25.06 1964.69,-25.74 1967.43,-32.19"/>
</g>
<!-- Node23&#45;&gt;Node15 -->
<g id="edge36" class="edge">
<title>Node23&#45;&gt;Node15</title>
<path fill="none" stroke="midnightblue" d="M1835.63,-139.77C1843.13,-122.88 1861.99,-85.73 1890,-67 1901.67,-59.2 1969.38,-44.22 2026.47,-32.59"/>
<polygon fill="midnightblue" stroke="midnightblue" points="2027.51,-35.95 2036.62,-30.53 2026.12,-29.09 2027.51,-35.95"/>
</g>
<!-- Node23&#45;&gt;Node16 -->
<g id="edge37" class="edge">
<title>Node23&#45;&gt;Node16</title>
<path fill="none" stroke="midnightblue" d="M1779.75,-148.07C1640.04,-146.4 1265.94,-138.16 1229,-98 1219.67,-87.86 1219.55,-77.03 1229,-67 1274.79,-18.38 1762.85,-40.19 1829,-31 1836.19,-30 1843.76,-28.64 1851.11,-27.14"/>
<polygon fill="midnightblue" stroke="midnightblue" points="1851.88,-30.56 1860.93,-25.05 1850.42,-23.71 1851.88,-30.56"/>
</g>
<!-- Node24 -->
<g id="node24" class="node">
<title>Node24</title>
<g id="a_node24"><a xlink:title=" ">
<polygon fill="none" stroke="#bfbfbf" points="1238,-67.5 1238,-97.5 1356,-97.5 1356,-67.5 1238,-67.5"/>
<text text-anchor="start" x="1246" y="-85.5" font-family="Helvetica,sans-Serif" font-size="10.00">seerep_msgs/header</text>
<text text-anchor="middle" x="1297" y="-74.5" font-family="Helvetica,sans-Serif" font-size="10.00">_generated.h</text>
</a>
</g>
</g>
<!-- Node23&#45;&gt;Node24 -->
<g id="edge27" class="edge">
<title>Node23&#45;&gt;Node24</title>
<path fill="none" stroke="midnightblue" d="M1779.94,-144.62C1695.29,-137.93 1522.4,-122.68 1366.51,-98.14"/>
<polygon fill="midnightblue" stroke="midnightblue" points="1366.7,-94.63 1356.27,-96.51 1365.6,-101.54 1366.7,-94.63"/>
</g>
<!-- Node25 -->
<g id="node25" class="node">
<title>Node25</title>
<g id="a_node25"><a xlink:title=" ">
<polygon fill="none" stroke="#bfbfbf" points="1374,-67.5 1374,-97.5 1530,-97.5 1530,-67.5 1374,-67.5"/>
<text text-anchor="start" x="1382" y="-85.5" font-family="Helvetica,sans-Serif" font-size="10.00">seerep_msgs/label_category</text>
<text text-anchor="middle" x="1452" y="-74.5" font-family="Helvetica,sans-Serif" font-size="10.00">_generated.h</text>
</a>
</g>
</g>
<!-- Node23&#45;&gt;Node25 -->
<g id="edge28" class="edge">
<title>Node23&#45;&gt;Node25</title>
<path fill="none" stroke="midnightblue" d="M1781.93,-139.94C1720.5,-129.43 1615.28,-111.43 1540.18,-98.58"/>
<polygon fill="midnightblue" stroke="midnightblue" points="1540.7,-95.12 1530.25,-96.88 1539.52,-102.02 1540.7,-95.12"/>
</g>
<!-- Node26 -->
<g id="node26" class="node">
<title>Node26</title>
<g id="a_node26"><a xlink:title=" ">
<polygon fill="none" stroke="#bfbfbf" points="1548,-67.5 1548,-97.5 1686,-97.5 1686,-67.5 1548,-67.5"/>
<text text-anchor="start" x="1556" y="-85.5" font-family="Helvetica,sans-Serif" font-size="10.00">seerep_msgs/union_map</text>
<text text-anchor="middle" x="1617" y="-74.5" font-family="Helvetica,sans-Serif" font-size="10.00">_entry_generated.h</text>
</a>
</g>
</g>
<!-- Node23&#45;&gt;Node26 -->
<g id="edge29" class="edge">
<title>Node23&#45;&gt;Node26</title>
<path fill="none" stroke="midnightblue" d="M1803.45,-139.87C1770.35,-129.86 1715,-113.13 1673.18,-100.48"/>
<polygon fill="midnightblue" stroke="midnightblue" points="1673.99,-97.07 1663.4,-97.53 1671.96,-103.77 1673.99,-97.07"/>
</g>
<!-- Node27 -->
<g id="node27" class="node">
<title>Node27</title>
<g id="a_node27"><a xlink:title=" ">
<polygon fill="none" stroke="#bfbfbf" points="1704.5,-73 1704.5,-92 1803.5,-92 1803.5,-73 1704.5,-73"/>
<text text-anchor="middle" x="1754" y="-80" font-family="Helvetica,sans-Serif" font-size="10.00">flatbuffers/grpc.h</text>
</a>
</g>
</g>
<!-- Node23&#45;&gt;Node27 -->
<g id="edge30" class="edge">
<title>Node23&#45;&gt;Node27</title>
<path fill="none" stroke="midnightblue" d="M1821.48,-139.73C1808.85,-129.21 1787.46,-111.38 1772.14,-98.62"/>
<polygon fill="midnightblue" stroke="midnightblue" points="1774.28,-95.84 1764.35,-92.13 1769.79,-101.22 1774.28,-95.84"/>
</g>
<!-- Node28 -->
<g id="node28" class="node">
<title>Node28</title>
<g id="a_node28"><a xlink:title=" ">
<polygon fill="none" stroke="#bfbfbf" points="1898.5,-73 1898.5,-92 1993.5,-92 1993.5,-73 1898.5,-73"/>
<text text-anchor="middle" x="1946" y="-80" font-family="Helvetica,sans-Serif" font-size="10.00">grpcpp/grpcpp.h</text>
</a>
</g>
</g>
<!-- Node23&#45;&gt;Node28 -->
<g id="edge31" class="edge">
<title>Node23&#45;&gt;Node28</title>
<path fill="none" stroke="midnightblue" d="M1847.37,-139.73C1866.52,-128.82 1899.44,-110.05 1921.94,-97.22"/>
<polygon fill="midnightblue" stroke="midnightblue" points="1923.92,-100.12 1930.87,-92.13 1920.45,-94.04 1923.92,-100.12"/>
</g>
<!-- Node29 -->
<g id="node29" class="node">
<title>Node29</title>
<g id="a_node29"><a xlink:title=" ">
<polygon fill="none" stroke="#bfbfbf" points="2012,-73 2012,-92 2080,-92 2080,-73 2012,-73"/>
<text text-anchor="middle" x="2046" y="-80" font-family="Helvetica,sans-Serif" font-size="10.00">filesystem</text>
</a>
</g>
</g>
<!-- Node23&#45;&gt;Node29 -->
<g id="edge33" class="edge">
<title>Node23&#45;&gt;Node29</title>
<path fill="none" stroke="midnightblue" d="M1862.07,-140C1896.3,-130.22 1953.86,-113.54 2003,-98 2005.75,-97.13 2008.59,-96.22 2011.43,-95.28"/>
<polygon fill="midnightblue" stroke="midnightblue" points="2012.65,-98.57 2021.04,-92.1 2010.45,-91.92 2012.65,-98.57"/>
</g>
<!-- Node30 -->
<g id="node30" class="node">
<title>Node30</title>
<g id="a_node30"><a xlink:title=" ">
<polygon fill="none" stroke="#bfbfbf" points="2098.5,-73 2098.5,-92 2239.5,-92 2239.5,-73 2098.5,-73"/>
<text text-anchor="middle" x="2169" y="-80" font-family="Helvetica,sans-Serif" font-size="10.00">impl/hdf5_fb_general.hpp</text>
</a>
</g>
</g>
<!-- Node23&#45;&gt;Node30 -->
<g id="edge38" class="edge">
<title>Node23&#45;&gt;Node30</title>
<path fill="none" stroke="midnightblue" d="M1876.4,-139.94C1937.86,-128.08 2048.74,-106.7 2114.94,-93.93"/>
<polygon fill="midnightblue" stroke="midnightblue" points="2115.61,-97.36 2124.77,-92.03 2114.28,-90.49 2115.61,-97.36"/>
</g>
</g>
</svg>
