<?xml version="1.0" encoding="UTF-8" standalone="no"?>
<!DOCTYPE svg PUBLIC "-//W3C//DTD SVG 1.1//EN"
 "http://www.w3.org/Graphics/SVG/1.1/DTD/svg11.dtd">
<!-- Generated by graphviz version 2.43.0 (0)
 -->
<!-- Title: seerep_hdf5/seerep_hdf5_fb/include/seerep_hdf5_fb/hdf5_fb_image.h Pages: 1 -->
<svg width="3499pt" height="385pt"
 viewBox="0.00 0.00 3499.00 385.00" xmlns="http://www.w3.org/2000/svg" xmlns:xlink="http://www.w3.org/1999/xlink">
<g id="graph0" class="graph" transform="scale(1 1) rotate(0) translate(4 381)">
<title>seerep_hdf5/seerep_hdf5_fb/include/seerep_hdf5_fb/hdf5_fb_image.h</title>
<!-- Node1 -->
<g id="node1" class="node">
<title>Node1</title>
<g id="a_node1"><a xlink:title=" ">
<polygon fill="#bfbfbf" stroke="black" points="1793,-335.5 1793,-376.5 1936,-376.5 1936,-335.5 1793,-335.5"/>
<text text-anchor="start" x="1801" y="-364.5" font-family="Helvetica,sans-Serif" font-size="10.00">seerep_hdf5/seerep</text>
<text text-anchor="start" x="1801" y="-353.5" font-family="Helvetica,sans-Serif" font-size="10.00">_hdf5_fb/include/seerep</text>
<text text-anchor="middle" x="1864.5" y="-342.5" font-family="Helvetica,sans-Serif" font-size="10.00">_hdf5_fb/hdf5_fb_image.h</text>
</a>
</g>
</g>
<!-- Node2 -->
<g id="node2" class="node">
<title>Node2</title>
<g id="a_node2"><a xlink:title=" ">
<polygon fill="none" stroke="#bfbfbf" points="1540.5,-67.5 1540.5,-86.5 1650.5,-86.5 1650.5,-67.5 1540.5,-67.5"/>
<text text-anchor="middle" x="1595.5" y="-74.5" font-family="Helvetica,sans-Serif" font-size="10.00">highfive/H5File.hpp</text>
</a>
</g>
</g>
<!-- Node1&#45;&gt;Node2 -->
<g id="edge1" class="edge">
<title>Node1&#45;&gt;Node2</title>
<path fill="none" stroke="midnightblue" d="M1869.61,-335.47C1879.46,-292.88 1895.88,-190.9 1844.5,-134 1788.36,-71.83 1740.71,-118.52 1659.5,-98 1649.97,-95.59 1639.76,-92.6 1630.36,-89.66"/>
<polygon fill="midnightblue" stroke="midnightblue" points="1631.14,-86.24 1620.55,-86.53 1629.01,-92.9 1631.14,-86.24"/>
</g>
<!-- Node3 -->
<g id="node3" class="node">
<title>Node3</title>
<g id="a_node3"><a xlink:href="hdf5__core__image_8h.html" target="_top" xlink:title=" ">
<polygon fill="none" stroke="black" points="2483.5,-268.5 2483.5,-298.5 2611.5,-298.5 2611.5,-268.5 2483.5,-268.5"/>
<text text-anchor="start" x="2491.5" y="-286.5" font-family="Helvetica,sans-Serif" font-size="10.00">seerep_hdf5_core/hdf5</text>
<text text-anchor="middle" x="2547.5" y="-275.5" font-family="Helvetica,sans-Serif" font-size="10.00">_core_image.h</text>
</a>
</g>
</g>
<!-- Node1&#45;&gt;Node3 -->
<g id="edge2" class="edge">
<title>Node1&#45;&gt;Node3</title>
<path fill="none" stroke="midnightblue" d="M1936.3,-347.59C2066.65,-334.13 2340.93,-305.82 2473.14,-292.18"/>
<polygon fill="midnightblue" stroke="midnightblue" points="2473.59,-295.65 2483.17,-291.14 2472.87,-288.69 2473.59,-295.65"/>
</g>
<!-- Node11 -->
<g id="node11" class="node">
<title>Node11</title>
<g id="a_node11"><a xlink:title=" ">
<polygon fill="none" stroke="#bfbfbf" points="0,-67.5 0,-86.5 113,-86.5 113,-67.5 0,-67.5"/>
<text text-anchor="middle" x="56.5" y="-74.5" font-family="Helvetica,sans-Serif" font-size="10.00">boost/geometry.hpp</text>
</a>
</g>
</g>
<!-- Node1&#45;&gt;Node11 -->
<g id="edge69" class="edge">
<title>Node1&#45;&gt;Node11</title>
<path fill="none" stroke="midnightblue" d="M1792.77,-355.22C1562.93,-354.73 824.87,-343.93 227.5,-232 143.48,-216.26 94.39,-244.68 43.5,-176 26.11,-152.54 37.58,-116.97 47.23,-95.75"/>
<polygon fill="midnightblue" stroke="midnightblue" points="50.45,-97.13 51.69,-86.61 44.16,-94.06 50.45,-97.13"/>
</g>
<!-- Node13 -->
<g id="node13" class="node">
<title>Node13</title>
<g id="a_node13"><a xlink:title=" ">
<polygon fill="none" stroke="#bfbfbf" points="2684.5,-67.5 2684.5,-86.5 2740.5,-86.5 2740.5,-67.5 2684.5,-67.5"/>
<text text-anchor="middle" x="2712.5" y="-74.5" font-family="Helvetica,sans-Serif" font-size="10.00">optional</text>
</a>
</g>
</g>
<!-- Node1&#45;&gt;Node13 -->
<g id="edge70" class="edge">
<title>Node1&#45;&gt;Node13</title>
<path fill="none" stroke="midnightblue" d="M1907.71,-335.47C1970.8,-305.88 2090.28,-245.71 2179.5,-176 2199.81,-160.13 2196.22,-145.08 2219.5,-134 2403.06,-46.62 2480.53,-155.58 2675.5,-98 2680.71,-96.46 2686.01,-94.13 2690.91,-91.6"/>
<polygon fill="midnightblue" stroke="midnightblue" points="2692.73,-94.59 2699.72,-86.63 2689.29,-88.49 2692.73,-94.59"/>
</g>
<!-- Node30 -->
<g id="node30" class="node">
<title>Node30</title>
<g id="a_node30"><a xlink:href="hdf5__fb__general_8h.html" target="_top" xlink:title=" ">
<polygon fill="none" stroke="black" points="1269.5,-212.5 1269.5,-231.5 1373.5,-231.5 1373.5,-212.5 1269.5,-212.5"/>
<text text-anchor="middle" x="1321.5" y="-219.5" font-family="Helvetica,sans-Serif" font-size="10.00">hdf5_fb_general.h</text>
</a>
</g>
</g>
<!-- Node1&#45;&gt;Node30 -->
<g id="edge46" class="edge">
<title>Node1&#45;&gt;Node30</title>
<path fill="none" stroke="midnightblue" d="M1792.95,-337.61C1679.31,-309.98 1460.78,-256.86 1366.56,-233.95"/>
<polygon fill="midnightblue" stroke="midnightblue" points="1367.31,-230.53 1356.76,-231.57 1365.65,-237.34 1367.31,-230.53"/>
</g>
<!-- Node38 -->
<g id="node38" class="node">
<title>Node38</title>
<g id="a_node38"><a xlink:title=" ">
<polygon fill="none" stroke="#bfbfbf" points="1624,-145.5 1624,-164.5 1723,-164.5 1723,-145.5 1624,-145.5"/>
<text text-anchor="middle" x="1673.5" y="-152.5" font-family="Helvetica,sans-Serif" font-size="10.00">flatbuffers/grpc.h</text>
</a>
</g>
</g>
<!-- Node1&#45;&gt;Node38 -->
<g id="edge67" class="edge">
<title>Node1&#45;&gt;Node38</title>
<path fill="none" stroke="midnightblue" d="M1845.49,-335.19C1807.59,-295.71 1723.32,-207.91 1688.75,-171.89"/>
<polygon fill="midnightblue" stroke="midnightblue" points="1691.25,-169.44 1681.8,-164.65 1686.2,-174.28 1691.25,-169.44"/>
</g>
<!-- Node39 -->
<g id="node39" class="node">
<title>Node39</title>
<g id="a_node39"><a xlink:title=" ">
<polygon fill="none" stroke="#bfbfbf" points="1741,-145.5 1741,-164.5 1836,-164.5 1836,-145.5 1741,-145.5"/>
<text text-anchor="middle" x="1788.5" y="-152.5" font-family="Helvetica,sans-Serif" font-size="10.00">grpcpp/grpcpp.h</text>
</a>
</g>
</g>
<!-- Node1&#45;&gt;Node39 -->
<g id="edge68" class="edge">
<title>Node1&#45;&gt;Node39</title>
<path fill="none" stroke="midnightblue" d="M1856.93,-335.19C1842.17,-296.54 1809.72,-211.58 1795.46,-174.23"/>
<polygon fill="midnightblue" stroke="midnightblue" points="1798.64,-172.74 1791.8,-164.65 1792.1,-175.24 1798.64,-172.74"/>
</g>
<!-- Node42 -->
<g id="node42" class="node">
<title>Node42</title>
<g id="a_node42"><a xlink:title=" ">
<polygon fill="none" stroke="#bfbfbf" points="2630,-274 2630,-293 2809,-293 2809,-274 2630,-274"/>
<text text-anchor="middle" x="2719.5" y="-281" font-family="Helvetica,sans-Serif" font-size="10.00">seerep_msgs/image_generated.h</text>
</a>
</g>
</g>
<!-- Node1&#45;&gt;Node42 -->
<g id="edge65" class="edge">
<title>Node1&#45;&gt;Node42</title>
<path fill="none" stroke="midnightblue" d="M1936.06,-351.41C2070.44,-344.28 2369.66,-326.62 2620.5,-299 2631.98,-297.74 2644.19,-296.15 2655.95,-294.49"/>
<polygon fill="midnightblue" stroke="midnightblue" points="2656.76,-297.91 2666.16,-293.03 2655.76,-290.99 2656.76,-297.91"/>
</g>
<!-- Node43 -->
<g id="node43" class="node">
<title>Node43</title>
<g id="a_node43"><a xlink:title=" ">
<polygon fill="none" stroke="#bfbfbf" points="2827.5,-274 2827.5,-293 3023.5,-293 3023.5,-274 2827.5,-274"/>
<text text-anchor="middle" x="2925.5" y="-281" font-family="Helvetica,sans-Serif" font-size="10.00">seerep_com/image_service.grpc.fb.h</text>
</a>
</g>
</g>
<!-- Node1&#45;&gt;Node43 -->
<g id="edge66" class="edge">
<title>Node1&#45;&gt;Node43</title>
<path fill="none" stroke="midnightblue" d="M1936.15,-352.66C2095.2,-347.05 2489.67,-330.88 2818.5,-299 2831.51,-297.74 2845.37,-296.09 2858.65,-294.36"/>
<polygon fill="midnightblue" stroke="midnightblue" points="2859.23,-297.81 2868.67,-293.02 2858.3,-290.87 2859.23,-297.81"/>
</g>
<!-- Node3&#45;&gt;Node2 -->
<g id="edge3" class="edge">
<title>Node3&#45;&gt;Node2</title>
<path fill="none" stroke="midnightblue" d="M2483.28,-277.6C2342.49,-265.92 2011.66,-233.06 1916.5,-176 1894.91,-163.05 1900.6,-146.05 1878.5,-134 1791.9,-86.78 1755.48,-120.77 1659.5,-98 1649.66,-95.67 1639.14,-92.62 1629.52,-89.6"/>
<polygon fill="midnightblue" stroke="midnightblue" points="1630.49,-86.24 1619.89,-86.51 1628.34,-92.9 1630.49,-86.24"/>
</g>
<!-- Node4 -->
<g id="node4" class="node">
<title>Node4</title>
<g id="a_node4"><a xlink:href="hdf5__core__cameraintrinsics_8h.html" target="_top" xlink:title=" ">
<polygon fill="none" stroke="black" points="2354.5,-212.5 2354.5,-231.5 2514.5,-231.5 2514.5,-212.5 2354.5,-212.5"/>
<text text-anchor="middle" x="2434.5" y="-219.5" font-family="Helvetica,sans-Serif" font-size="10.00">hdf5_core_cameraintrinsics.h</text>
</a>
</g>
</g>
<!-- Node3&#45;&gt;Node4 -->
<g id="edge4" class="edge">
<title>Node3&#45;&gt;Node4</title>
<path fill="none" stroke="midnightblue" d="M2520.72,-268.4C2502.44,-258.77 2478.35,-246.09 2460.29,-236.58"/>
<polygon fill="midnightblue" stroke="midnightblue" points="2461.42,-233.22 2450.94,-231.66 2458.16,-239.41 2461.42,-233.22"/>
</g>
<!-- Node6 -->
<g id="node6" class="node">
<title>Node6</title>
<g id="a_node6"><a xlink:href="hdf5__core__general_8h.html" target="_top" xlink:title=" ">
<polygon fill="none" stroke="black" points="2006.5,-140 2006.5,-170 2134.5,-170 2134.5,-140 2006.5,-140"/>
<text text-anchor="start" x="2014.5" y="-158" font-family="Helvetica,sans-Serif" font-size="10.00">seerep_hdf5_core/hdf5</text>
<text text-anchor="middle" x="2070.5" y="-147" font-family="Helvetica,sans-Serif" font-size="10.00">_core_general.h</text>
</a>
</g>
</g>
<!-- Node3&#45;&gt;Node6 -->
<g id="edge36" class="edge">
<title>Node3&#45;&gt;Node6</title>
<path fill="none" stroke="midnightblue" d="M2489.5,-268.4C2449.07,-258.48 2393.92,-244.74 2345.5,-232 2270.94,-212.38 2185.38,-188.52 2129.77,-172.83"/>
<polygon fill="midnightblue" stroke="midnightblue" points="2130.65,-169.45 2120.08,-170.1 2128.75,-176.18 2130.65,-169.45"/>
</g>
<!-- Node8 -->
<g id="node8" class="node">
<title>Node8</title>
<g id="a_node8"><a xlink:title=" ">
<polygon fill="none" stroke="#bfbfbf" points="3370,-62 3370,-92 3491,-92 3491,-62 3370,-62"/>
<text text-anchor="start" x="3378" y="-80" font-family="Helvetica,sans-Serif" font-size="10.00">seerep_msgs/dataset</text>
<text text-anchor="middle" x="3430.5" y="-69" font-family="Helvetica,sans-Serif" font-size="10.00">_indexable.h</text>
</a>
</g>
</g>
<!-- Node3&#45;&gt;Node8 -->
<g id="edge37" class="edge">
<title>Node3&#45;&gt;Node8</title>
<path fill="none" stroke="midnightblue" d="M2611.62,-269.59C2614.95,-269.02 2618.26,-268.49 2621.5,-268 2769.12,-245.62 2809.33,-262.44 2955.5,-232 3037.11,-215.01 3055.15,-201.55 3134.5,-176 3220.47,-148.32 3320.11,-115.09 3379.09,-95.31"/>
<polygon fill="midnightblue" stroke="midnightblue" points="3380.54,-98.51 3388.9,-92.01 3378.31,-91.88 3380.54,-98.51"/>
</g>
<!-- Node10 -->
<g id="node10" class="node">
<title>Node10</title>
<g id="a_node10"><a xlink:title=" ">
<polygon fill="none" stroke="#bfbfbf" points="3074.5,-56.5 3074.5,-97.5 3190.5,-97.5 3190.5,-56.5 3074.5,-56.5"/>
<text text-anchor="start" x="3082.5" y="-85.5" font-family="Helvetica,sans-Serif" font-size="10.00">seerep_msgs/labels</text>
<text text-anchor="start" x="3082.5" y="-74.5" font-family="Helvetica,sans-Serif" font-size="10.00">_with_instance_with</text>
<text text-anchor="middle" x="3132.5" y="-63.5" font-family="Helvetica,sans-Serif" font-size="10.00">_category.h</text>
</a>
</g>
</g>
<!-- Node3&#45;&gt;Node10 -->
<g id="edge38" class="edge">
<title>Node3&#45;&gt;Node10</title>
<path fill="none" stroke="midnightblue" d="M2611.64,-269.73C2614.97,-269.13 2618.27,-268.55 2621.5,-268 2791.95,-238.95 2849.53,-262.05 2999.5,-176 3036.32,-154.88 3075.01,-125.43 3101.11,-104.34"/>
<polygon fill="midnightblue" stroke="midnightblue" points="3103.58,-106.84 3109.12,-97.8 3099.16,-101.41 3103.58,-106.84"/>
</g>
<!-- Node3&#45;&gt;Node11 -->
<g id="edge39" class="edge">
<title>Node3&#45;&gt;Node11</title>
<path fill="none" stroke="midnightblue" d="M2483.26,-282.15C2102.14,-279.8 151.28,-263.51 62.5,-176 41.73,-155.53 46.04,-118.65 51.19,-96.43"/>
<polygon fill="midnightblue" stroke="midnightblue" points="54.62,-97.14 53.75,-86.58 47.85,-95.38 54.62,-97.14"/>
</g>
<!-- Node3&#45;&gt;Node13 -->
<g id="edge40" class="edge">
<title>Node3&#45;&gt;Node13</title>
<path fill="none" stroke="midnightblue" d="M2608.06,-268.44C2643.02,-259.05 2682.24,-245.92 2693.5,-232 2725.34,-192.64 2720.67,-128.08 2715.94,-96.53"/>
<polygon fill="midnightblue" stroke="midnightblue" points="2719.36,-95.79 2714.26,-86.51 2712.46,-96.95 2719.36,-95.79"/>
</g>
<!-- Node17 -->
<g id="node17" class="node">
<title>Node17</title>
<g id="a_node17"><a xlink:title=" ">
<polygon fill="none" stroke="#bfbfbf" points="3209,-67.5 3209,-86.5 3352,-86.5 3352,-67.5 3209,-67.5"/>
<text text-anchor="middle" x="3280.5" y="-74.5" font-family="Helvetica,sans-Serif" font-size="10.00">boost/functional/hash.hpp</text>
</a>
</g>
</g>
<!-- Node3&#45;&gt;Node17 -->
<g id="edge41" class="edge">
<title>Node3&#45;&gt;Node17</title>
<path fill="none" stroke="midnightblue" d="M2611.63,-269.65C2614.96,-269.07 2618.27,-268.52 2621.5,-268 2750.19,-247.46 2786.55,-265.47 2912.5,-232 3046.96,-196.27 3196.99,-121.79 3255.37,-91.38"/>
<polygon fill="midnightblue" stroke="midnightblue" points="3257.33,-94.3 3264.56,-86.55 3254.07,-88.1 3257.33,-94.3"/>
</g>
<!-- Node18 -->
<g id="node18" class="node">
<title>Node18</title>
<g id="a_node18"><a xlink:title=" ">
<polygon fill="none" stroke="#bfbfbf" points="1669,-67.5 1669,-86.5 1794,-86.5 1794,-67.5 1669,-67.5"/>
<text text-anchor="middle" x="1731.5" y="-74.5" font-family="Helvetica,sans-Serif" font-size="10.00">boost/lexical_cast.hpp</text>
</a>
</g>
</g>
<!-- Node3&#45;&gt;Node18 -->
<g id="edge42" class="edge">
<title>Node3&#45;&gt;Node18</title>
<path fill="none" stroke="midnightblue" d="M2483.49,-271.04C2427.93,-261.01 2345.33,-245.9 2273.5,-232 2150.62,-208.21 2115.53,-217.65 1997.5,-176 1959.26,-162.5 1954.07,-149.27 1916.5,-134 1890.22,-123.31 1817.94,-102.31 1771.9,-89.29"/>
<polygon fill="midnightblue" stroke="midnightblue" points="1772.79,-85.9 1762.22,-86.55 1770.89,-92.64 1772.79,-85.9"/>
</g>
<!-- Node19 -->
<g id="node19" class="node">
<title>Node19</title>
<g id="a_node19"><a xlink:title=" ">
<polygon fill="none" stroke="#bfbfbf" points="2943,-67.5 2943,-86.5 3056,-86.5 3056,-67.5 2943,-67.5"/>
<text text-anchor="middle" x="2999.5" y="-74.5" font-family="Helvetica,sans-Serif" font-size="10.00">boost/uuid/uuid.hpp</text>
</a>
</g>
</g>
<!-- Node3&#45;&gt;Node19 -->
<g id="edge43" class="edge">
<title>Node3&#45;&gt;Node19</title>
<path fill="none" stroke="midnightblue" d="M2611.76,-269.51C2670.85,-257.46 2754.07,-240.19 2786.5,-232 2871.85,-210.44 2916.02,-239.97 2976.5,-176 2996.75,-154.58 3000.3,-118.84 3000.37,-96.95"/>
<polygon fill="midnightblue" stroke="midnightblue" points="3003.86,-96.57 3000.14,-86.65 2996.86,-96.73 3003.86,-96.57"/>
</g>
<!-- Node20 -->
<g id="node20" class="node">
<title>Node20</title>
<g id="a_node20"><a xlink:title=" ">
<polygon fill="none" stroke="#bfbfbf" points="2350.5,-67.5 2350.5,-86.5 2520.5,-86.5 2520.5,-67.5 2350.5,-67.5"/>
<text text-anchor="middle" x="2435.5" y="-74.5" font-family="Helvetica,sans-Serif" font-size="10.00">boost/uuid/uuid_generators.hpp</text>
</a>
</g>
</g>
<!-- Node3&#45;&gt;Node20 -->
<g id="edge44" class="edge">
<title>Node3&#45;&gt;Node20</title>
<path fill="none" stroke="midnightblue" d="M2568.27,-268.45C2605.68,-241.43 2677.26,-180.78 2641.5,-134 2632,-121.57 2545.4,-101.17 2487.55,-88.73"/>
<polygon fill="midnightblue" stroke="midnightblue" points="2487.98,-85.24 2477.47,-86.58 2486.51,-92.08 2487.98,-85.24"/>
</g>
<!-- Node21 -->
<g id="node21" class="node">
<title>Node21</title>
<g id="a_node21"><a xlink:title=" ">
<polygon fill="none" stroke="#bfbfbf" points="2539,-67.5 2539,-86.5 2666,-86.5 2666,-67.5 2539,-67.5"/>
<text text-anchor="middle" x="2602.5" y="-74.5" font-family="Helvetica,sans-Serif" font-size="10.00">boost/uuid/uuid_io.hpp</text>
</a>
</g>
</g>
<!-- Node3&#45;&gt;Node21 -->
<g id="edge45" class="edge">
<title>Node3&#45;&gt;Node21</title>
<path fill="none" stroke="midnightblue" d="M2599.08,-268.42C2630.16,-258.77 2665.44,-245.35 2674.5,-232 2698.96,-195.96 2693.64,-173.13 2674.5,-134 2665.37,-115.33 2646.68,-101.08 2630.63,-91.63"/>
<polygon fill="midnightblue" stroke="midnightblue" points="2632.02,-88.4 2621.57,-86.63 2628.63,-94.53 2632.02,-88.4"/>
</g>
<!-- Node29 -->
<g id="node29" class="node">
<title>Node29</title>
<g id="a_node29"><a xlink:href="hdf5__core__datatype__interface_8h.html" target="_top" xlink:title=" ">
<polygon fill="none" stroke="black" points="2854,-140 2854,-170 2967,-170 2967,-140 2854,-140"/>
<text text-anchor="start" x="2862" y="-158" font-family="Helvetica,sans-Serif" font-size="10.00">hdf5_core_datatype</text>
<text text-anchor="middle" x="2910.5" y="-147" font-family="Helvetica,sans-Serif" font-size="10.00">_interface.h</text>
</a>
</g>
</g>
<!-- Node3&#45;&gt;Node29 -->
<g id="edge32" class="edge">
<title>Node3&#45;&gt;Node29</title>
<path fill="none" stroke="midnightblue" d="M2611.56,-270C2652.01,-261.27 2705.02,-248.27 2750.5,-232 2795.3,-215.97 2844.39,-191.55 2876.23,-174.74"/>
<polygon fill="midnightblue" stroke="midnightblue" points="2877.95,-177.79 2885.13,-170 2874.66,-171.62 2877.95,-177.79"/>
</g>
<!-- Node4&#45;&gt;Node2 -->
<g id="edge6" class="edge">
<title>Node4&#45;&gt;Node2</title>
<path fill="none" stroke="midnightblue" d="M2354.21,-221.65C2265.2,-220.34 2118.25,-212.1 1997.5,-176 1958.65,-164.39 1955.13,-146.32 1916.5,-134 1806.62,-98.95 1772.03,-123.29 1659.5,-98 1649.55,-95.76 1638.92,-92.72 1629.24,-89.68"/>
<polygon fill="midnightblue" stroke="midnightblue" points="1630.15,-86.29 1619.56,-86.54 1627.99,-92.95 1630.15,-86.29"/>
</g>
<!-- Node5 -->
<g id="node5" class="node">
<title>Node5</title>
<g id="a_node5"><a xlink:title=" ">
<polygon fill="none" stroke="#bfbfbf" points="2368.5,-145.5 2368.5,-164.5 2500.5,-164.5 2500.5,-145.5 2368.5,-145.5"/>
<text text-anchor="middle" x="2434.5" y="-152.5" font-family="Helvetica,sans-Serif" font-size="10.00">highfive/H5DataSet.hpp</text>
</a>
</g>
</g>
<!-- Node4&#45;&gt;Node5 -->
<g id="edge5" class="edge">
<title>Node4&#45;&gt;Node5</title>
<path fill="none" stroke="midnightblue" d="M2434.5,-212.23C2434.5,-202.68 2434.5,-187.12 2434.5,-174.78"/>
<polygon fill="midnightblue" stroke="midnightblue" points="2438,-174.63 2434.5,-164.63 2431,-174.63 2438,-174.63"/>
</g>
<!-- Node4&#45;&gt;Node6 -->
<g id="edge7" class="edge">
<title>Node4&#45;&gt;Node6</title>
<path fill="none" stroke="midnightblue" d="M2386.54,-212.44C2324.77,-201.41 2216.79,-182.12 2144.47,-169.21"/>
<polygon fill="midnightblue" stroke="midnightblue" points="2144.97,-165.74 2134.51,-167.43 2143.74,-172.63 2144.97,-165.74"/>
</g>
<!-- Node23 -->
<g id="node23" class="node">
<title>Node23</title>
<g id="a_node23"><a xlink:href="header_8h.html" target="_top" xlink:title=" ">
<polygon fill="none" stroke="black" points="2771,-145.5 2771,-164.5 2830,-164.5 2830,-145.5 2771,-145.5"/>
<text text-anchor="middle" x="2800.5" y="-152.5" font-family="Helvetica,sans-Serif" font-size="10.00">header.h</text>
</a>
</g>
</g>
<!-- Node4&#45;&gt;Node23 -->
<g id="edge25" class="edge">
<title>Node4&#45;&gt;Node23</title>
<path fill="none" stroke="midnightblue" d="M2482.72,-212.44C2555.69,-199.48 2692.8,-175.13 2760.54,-163.1"/>
<polygon fill="midnightblue" stroke="midnightblue" points="2761.56,-166.47 2770.79,-161.28 2760.34,-159.58 2761.56,-166.47"/>
</g>
<!-- Node27 -->
<g id="node27" class="node">
<title>Node27</title>
<g id="a_node27"><a xlink:href="region__of__interest_8h.html" target="_top" xlink:title=" ">
<polygon fill="none" stroke="black" points="2518.5,-145.5 2518.5,-164.5 2632.5,-164.5 2632.5,-145.5 2518.5,-145.5"/>
<text text-anchor="middle" x="2575.5" y="-152.5" font-family="Helvetica,sans-Serif" font-size="10.00">region_of_interest.h</text>
</a>
</g>
</g>
<!-- Node4&#45;&gt;Node27 -->
<g id="edge30" class="edge">
<title>Node4&#45;&gt;Node27</title>
<path fill="none" stroke="midnightblue" d="M2453.22,-212.37C2477.35,-201.25 2519.5,-181.82 2547.45,-168.93"/>
<polygon fill="midnightblue" stroke="midnightblue" points="2549.08,-172.03 2556.7,-164.67 2546.15,-165.68 2549.08,-172.03"/>
</g>
<!-- Node28 -->
<g id="node28" class="node">
<title>Node28</title>
<g id="a_node28"><a xlink:title=" ">
<polygon fill="none" stroke="#bfbfbf" points="2229,-140 2229,-170 2350,-170 2350,-140 2229,-140"/>
<text text-anchor="start" x="2237" y="-158" font-family="Helvetica,sans-Serif" font-size="10.00">seerep_msgs/camera</text>
<text text-anchor="middle" x="2289.5" y="-147" font-family="Helvetica,sans-Serif" font-size="10.00">_intrinsics.h</text>
</a>
</g>
</g>
<!-- Node4&#45;&gt;Node28 -->
<g id="edge31" class="edge">
<title>Node4&#45;&gt;Node28</title>
<path fill="none" stroke="midnightblue" d="M2415.25,-212.37C2393.68,-202.7 2358.09,-186.75 2330.27,-174.28"/>
<polygon fill="midnightblue" stroke="midnightblue" points="2331.35,-170.92 2320.79,-170.03 2328.49,-177.31 2331.35,-170.92"/>
</g>
<!-- Node6&#45;&gt;Node2 -->
<g id="edge8" class="edge">
<title>Node6&#45;&gt;Node2</title>
<path fill="none" stroke="midnightblue" d="M2006.47,-142.38C1989.59,-139.48 1971.38,-136.48 1954.5,-134 1823.82,-114.77 1788.62,-125.81 1659.5,-98 1649.45,-95.84 1638.72,-92.78 1628.97,-89.71"/>
<polygon fill="midnightblue" stroke="midnightblue" points="1629.83,-86.31 1619.23,-86.55 1627.66,-92.97 1629.83,-86.31"/>
</g>
<!-- Node7 -->
<g id="node7" class="node">
<title>Node7</title>
<g id="a_node7"><a xlink:title=" ">
<polygon fill="none" stroke="#bfbfbf" points="1983,-67.5 1983,-86.5 2100,-86.5 2100,-67.5 1983,-67.5"/>
<text text-anchor="middle" x="2041.5" y="-74.5" font-family="Helvetica,sans-Serif" font-size="10.00">seerep_msgs/aabb.h</text>
</a>
</g>
</g>
<!-- Node6&#45;&gt;Node7 -->
<g id="edge9" class="edge">
<title>Node6&#45;&gt;Node7</title>
<path fill="none" stroke="midnightblue" d="M2065.05,-139.7C2060.33,-127.35 2053.5,-109.44 2048.4,-96.1"/>
<polygon fill="midnightblue" stroke="midnightblue" points="2051.6,-94.66 2044.77,-86.56 2045.06,-97.15 2051.6,-94.66"/>
</g>
<!-- Node6&#45;&gt;Node8 -->
<g id="edge10" class="edge">
<title>Node6&#45;&gt;Node8</title>
<path fill="none" stroke="midnightblue" d="M2134.52,-143.95C2160.79,-140.21 2191.54,-136.31 2219.5,-134 2725.58,-92.17 2859.92,-177.31 3361.5,-98 3366.97,-97.14 3372.61,-95.97 3378.21,-94.63"/>
<polygon fill="midnightblue" stroke="midnightblue" points="3379.37,-97.95 3388.18,-92.07 3377.63,-91.17 3379.37,-97.95"/>
</g>
<!-- Node9 -->
<g id="node9" class="node">
<title>Node9</title>
<g id="a_node9"><a xlink:title=" ">
<polygon fill="none" stroke="#bfbfbf" points="2118.5,-62 2118.5,-92 2244.5,-92 2244.5,-62 2118.5,-62"/>
<text text-anchor="start" x="2126.5" y="-80" font-family="Helvetica,sans-Serif" font-size="10.00">seerep_msgs/geodetic</text>
<text text-anchor="middle" x="2181.5" y="-69" font-family="Helvetica,sans-Serif" font-size="10.00">_coordinates.h</text>
</a>
</g>
</g>
<!-- Node6&#45;&gt;Node9 -->
<g id="edge11" class="edge">
<title>Node6&#45;&gt;Node9</title>
<path fill="none" stroke="midnightblue" d="M2091.12,-139.88C2108.41,-128.05 2133.29,-111.01 2152.57,-97.8"/>
<polygon fill="midnightblue" stroke="midnightblue" points="2154.72,-100.58 2160.99,-92.04 2150.76,-94.8 2154.72,-100.58"/>
</g>
<!-- Node6&#45;&gt;Node10 -->
<g id="edge12" class="edge">
<title>Node6&#45;&gt;Node10</title>
<path fill="none" stroke="midnightblue" d="M2134.53,-144.11C2160.8,-140.39 2191.55,-136.47 2219.5,-134 2591.09,-101.22 2692.57,-159.26 3064.28,-97.98"/>
<polygon fill="midnightblue" stroke="midnightblue" points="3064.95,-101.41 3074.24,-96.32 3063.8,-94.51 3064.95,-101.41"/>
</g>
<!-- Node6&#45;&gt;Node11 -->
<g id="edge13" class="edge">
<title>Node6&#45;&gt;Node11</title>
<path fill="none" stroke="midnightblue" d="M2006.28,-147.34C1961.08,-142.89 1899.15,-137.27 1844.5,-134 1173.61,-93.84 359.27,-81.56 123.43,-78.72"/>
<polygon fill="midnightblue" stroke="midnightblue" points="123.34,-75.22 113.3,-78.6 123.26,-82.22 123.34,-75.22"/>
</g>
<!-- Node12 -->
<g id="node12" class="node">
<title>Node12</title>
<g id="a_node12"><a xlink:title=" ">
<polygon fill="none" stroke="#bfbfbf" points="1310.5,-67.5 1310.5,-86.5 1358.5,-86.5 1358.5,-67.5 1310.5,-67.5"/>
<text text-anchor="middle" x="1334.5" y="-74.5" font-family="Helvetica,sans-Serif" font-size="10.00">mutex</text>
</a>
</g>
</g>
<!-- Node6&#45;&gt;Node12 -->
<g id="edge14" class="edge">
<title>Node6&#45;&gt;Node12</title>
<path fill="none" stroke="midnightblue" d="M2006.22,-148.09C1961.01,-143.99 1899.07,-138.47 1844.5,-134 1738.55,-125.31 1468.73,-130.44 1367.5,-98 1363,-96.56 1358.48,-94.39 1354.28,-92.01"/>
<polygon fill="midnightblue" stroke="midnightblue" points="1356.09,-89.02 1345.76,-86.65 1352.36,-94.94 1356.09,-89.02"/>
</g>
<!-- Node6&#45;&gt;Node13 -->
<g id="edge15" class="edge">
<title>Node6&#45;&gt;Node13</title>
<path fill="none" stroke="midnightblue" d="M2119.73,-139.93C2129.21,-137.63 2139.11,-135.51 2148.5,-134 2380.28,-96.69 2450,-163.3 2675.5,-98 2680.71,-96.49 2686.02,-94.17 2690.93,-91.64"/>
<polygon fill="midnightblue" stroke="midnightblue" points="2692.75,-94.63 2699.73,-86.67 2689.3,-88.53 2692.75,-94.63"/>
</g>
<!-- Node14 -->
<g id="node14" class="node">
<title>Node14</title>
<g id="a_node14"><a xlink:title=" ">
<polygon fill="none" stroke="#bfbfbf" points="2263,-67.5 2263,-86.5 2332,-86.5 2332,-67.5 2263,-67.5"/>
<text text-anchor="middle" x="2297.5" y="-74.5" font-family="Helvetica,sans-Serif" font-size="10.00">type_traits</text>
</a>
</g>
</g>
<!-- Node6&#45;&gt;Node14 -->
<g id="edge16" class="edge">
<title>Node6&#45;&gt;Node14</title>
<path fill="none" stroke="midnightblue" d="M2122.77,-139.96C2159.71,-129.56 2210.15,-114.41 2253.5,-98 2259.23,-95.83 2265.27,-93.27 2270.98,-90.72"/>
<polygon fill="midnightblue" stroke="midnightblue" points="2272.53,-93.86 2280.16,-86.51 2269.61,-87.5 2272.53,-93.86"/>
</g>
<!-- Node15 -->
<g id="node15" class="node">
<title>Node15</title>
<g id="a_node15"><a xlink:title=" ">
<polygon fill="none" stroke="#bfbfbf" points="1377,-62 1377,-92 1522,-92 1522,-62 1377,-62"/>
<text text-anchor="start" x="1385" y="-80" font-family="Helvetica,sans-Serif" font-size="10.00">boost/log/sources/severity</text>
<text text-anchor="middle" x="1449.5" y="-69" font-family="Helvetica,sans-Serif" font-size="10.00">_logger.hpp</text>
</a>
</g>
</g>
<!-- Node6&#45;&gt;Node15 -->
<g id="edge17" class="edge">
<title>Node6&#45;&gt;Node15</title>
<path fill="none" stroke="midnightblue" d="M2006.32,-148.43C1883.91,-137.64 1621.3,-113.54 1531.5,-98 1525.34,-96.93 1518.96,-95.67 1512.6,-94.3"/>
<polygon fill="midnightblue" stroke="midnightblue" points="1513.18,-90.84 1502.65,-92.07 1511.65,-97.67 1513.18,-90.84"/>
</g>
<!-- Node16 -->
<g id="node16" class="node">
<title>Node16</title>
<g id="a_node16"><a xlink:title=" ">
<polygon fill="none" stroke="#bfbfbf" points="1178.5,-67.5 1178.5,-86.5 1292.5,-86.5 1292.5,-67.5 1178.5,-67.5"/>
<text text-anchor="middle" x="1235.5" y="-74.5" font-family="Helvetica,sans-Serif" font-size="10.00">boost/log/trivial.hpp</text>
</a>
</g>
</g>
<!-- Node6&#45;&gt;Node16 -->
<g id="edge18" class="edge">
<title>Node6&#45;&gt;Node16</title>
<path fill="none" stroke="midnightblue" d="M2006.24,-147.93C1961.03,-143.76 1899.09,-138.22 1844.5,-134 1603.36,-115.34 1539.45,-141.35 1301.5,-98 1290.61,-96.02 1278.98,-92.86 1268.56,-89.63"/>
<polygon fill="midnightblue" stroke="midnightblue" points="1269.6,-86.29 1259.01,-86.55 1267.45,-92.95 1269.6,-86.29"/>
</g>
<!-- Node6&#45;&gt;Node17 -->
<g id="edge19" class="edge">
<title>Node6&#45;&gt;Node17</title>
<path fill="none" stroke="midnightblue" d="M2134.52,-144.02C2160.79,-140.29 2191.54,-136.38 2219.5,-134 2653.77,-96.97 2767.88,-158.56 3199.5,-98 3213.56,-96.03 3228.73,-92.63 3242.09,-89.2"/>
<polygon fill="midnightblue" stroke="midnightblue" points="3243.15,-92.54 3251.91,-86.58 3241.35,-85.77 3243.15,-92.54"/>
</g>
<!-- Node6&#45;&gt;Node18 -->
<g id="edge20" class="edge">
<title>Node6&#45;&gt;Node18</title>
<path fill="none" stroke="midnightblue" d="M2017.74,-139.99C2009.32,-137.9 2000.69,-135.83 1992.5,-134 1909.04,-115.37 1886.77,-117.46 1803.5,-98 1792.47,-95.42 1780.6,-92.28 1769.73,-89.25"/>
<polygon fill="midnightblue" stroke="midnightblue" points="1770.66,-85.88 1760.09,-86.53 1768.76,-92.62 1770.66,-85.88"/>
</g>
<!-- Node6&#45;&gt;Node19 -->
<g id="edge21" class="edge">
<title>Node6&#45;&gt;Node19</title>
<path fill="none" stroke="midnightblue" d="M2134.54,-144.22C2160.81,-140.51 2191.56,-136.57 2219.5,-134 2536.34,-104.81 2621.15,-153.21 2934.5,-98 2945.23,-96.11 2956.66,-92.99 2966.9,-89.76"/>
<polygon fill="midnightblue" stroke="midnightblue" points="2968.27,-93 2976.68,-86.55 2966.08,-86.35 2968.27,-93"/>
</g>
<!-- Node6&#45;&gt;Node20 -->
<g id="edge22" class="edge">
<title>Node6&#45;&gt;Node20</title>
<path fill="none" stroke="midnightblue" d="M2123.25,-139.97C2131.68,-137.88 2140.31,-135.82 2148.5,-134 2233.26,-115.21 2255.35,-114.94 2340.5,-98 2355.27,-95.06 2371.31,-91.74 2385.93,-88.65"/>
<polygon fill="midnightblue" stroke="midnightblue" points="2386.73,-92.06 2395.79,-86.56 2385.28,-85.21 2386.73,-92.06"/>
</g>
<!-- Node6&#45;&gt;Node21 -->
<g id="edge23" class="edge">
<title>Node6&#45;&gt;Node21</title>
<path fill="none" stroke="midnightblue" d="M2120.6,-139.92C2129.82,-137.68 2139.41,-135.58 2148.5,-134 2316.06,-104.79 2362.19,-128.59 2529.5,-98 2541.5,-95.81 2554.39,-92.58 2565.95,-89.35"/>
<polygon fill="midnightblue" stroke="midnightblue" points="2567.07,-92.67 2575.72,-86.54 2565.14,-85.94 2567.07,-92.67"/>
</g>
<!-- Node22 -->
<g id="node22" class="node">
<title>Node22</title>
<g id="a_node22"><a xlink:title=" ">
<polygon fill="none" stroke="#bfbfbf" points="1812.5,-67.5 1812.5,-86.5 1964.5,-86.5 1964.5,-67.5 1812.5,-67.5"/>
<text text-anchor="middle" x="1888.5" y="-74.5" font-family="Helvetica,sans-Serif" font-size="10.00">impl/hdf5_core_general.hpp</text>
</a>
</g>
</g>
<!-- Node6&#45;&gt;Node22 -->
<g id="edge24" class="edge">
<title>Node6&#45;&gt;Node22</title>
<path fill="none" stroke="midnightblue" d="M2036.69,-139.88C2002.78,-125.72 1951.05,-104.12 1918.54,-90.54"/>
<polygon fill="midnightblue" stroke="midnightblue" points="1919.69,-87.23 1909.11,-86.61 1916.99,-93.69 1919.69,-87.23"/>
</g>
<!-- Node23&#45;&gt;Node19 -->
<g id="edge26" class="edge">
<title>Node23&#45;&gt;Node19</title>
<path fill="none" stroke="midnightblue" d="M2819.2,-145.34C2827.24,-141.71 2836.78,-137.52 2845.5,-134 2885.97,-117.67 2933.23,-100.8 2964.62,-89.91"/>
<polygon fill="midnightblue" stroke="midnightblue" points="2965.92,-93.16 2974.22,-86.59 2963.63,-86.55 2965.92,-93.16"/>
</g>
<!-- Node24 -->
<g id="node24" class="node">
<title>Node24</title>
<g id="a_node24"><a xlink:href="datatype_8h.html" target="_top" xlink:title=" ">
<polygon fill="none" stroke="black" points="2856,-67.5 2856,-86.5 2925,-86.5 2925,-67.5 2856,-67.5"/>
<text text-anchor="middle" x="2890.5" y="-74.5" font-family="Helvetica,sans-Serif" font-size="10.00">datatype.h</text>
</a>
</g>
</g>
<!-- Node23&#45;&gt;Node24 -->
<g id="edge27" class="edge">
<title>Node23&#45;&gt;Node24</title>
<path fill="none" stroke="midnightblue" d="M2810.82,-145.28C2825.88,-132.57 2854.07,-108.76 2872.56,-93.15"/>
<polygon fill="midnightblue" stroke="midnightblue" points="2874.91,-95.74 2880.3,-86.62 2870.4,-90.39 2874.91,-95.74"/>
</g>
<!-- Node25 -->
<g id="node25" class="node">
<title>Node25</title>
<g id="a_node25"><a xlink:href="timestamp_8h.html" target="_top" xlink:title=" ">
<polygon fill="none" stroke="black" points="2759,-67.5 2759,-86.5 2838,-86.5 2838,-67.5 2759,-67.5"/>
<text text-anchor="middle" x="2798.5" y="-74.5" font-family="Helvetica,sans-Serif" font-size="10.00">timestamp.h</text>
</a>
</g>
</g>
<!-- Node23&#45;&gt;Node25 -->
<g id="edge28" class="edge">
<title>Node23&#45;&gt;Node25</title>
<path fill="none" stroke="midnightblue" d="M2800.27,-145.28C2799.96,-133.49 2799.4,-112.13 2798.99,-96.64"/>
<polygon fill="midnightblue" stroke="midnightblue" points="2802.49,-96.52 2798.73,-86.62 2795.49,-96.71 2802.49,-96.52"/>
</g>
<!-- Node26 -->
<g id="node26" class="node">
<title>Node26</title>
<g id="a_node26"><a xlink:title=" ">
<polygon fill="none" stroke="#bfbfbf" points="2766,-0.5 2766,-19.5 2831,-19.5 2831,-0.5 2766,-0.5"/>
<text text-anchor="middle" x="2798.5" y="-7.5" font-family="Helvetica,sans-Serif" font-size="10.00">functional</text>
</a>
</g>
</g>
<!-- Node25&#45;&gt;Node26 -->
<g id="edge29" class="edge">
<title>Node25&#45;&gt;Node26</title>
<path fill="none" stroke="midnightblue" d="M2798.5,-67.23C2798.5,-57.68 2798.5,-42.12 2798.5,-29.78"/>
<polygon fill="midnightblue" stroke="midnightblue" points="2802,-29.63 2798.5,-19.63 2795,-29.63 2802,-29.63"/>
</g>
<!-- Node29&#45;&gt;Node8 -->
<g id="edge33" class="edge">
<title>Node29&#45;&gt;Node8</title>
<path fill="none" stroke="midnightblue" d="M2967.22,-149.86C3053.16,-142.94 3221.23,-126.85 3361.5,-98 3366.21,-97.03 3371.08,-95.9 3375.93,-94.68"/>
<polygon fill="midnightblue" stroke="midnightblue" points="3377.07,-98 3385.85,-92.06 3375.28,-91.23 3377.07,-98"/>
</g>
<!-- Node29&#45;&gt;Node13 -->
<g id="edge35" class="edge">
<title>Node29&#45;&gt;Node13</title>
<path fill="none" stroke="midnightblue" d="M2864.64,-139.94C2832.27,-129.54 2788.14,-114.39 2750.5,-98 2745.87,-95.99 2741.04,-93.64 2736.42,-91.28"/>
<polygon fill="midnightblue" stroke="midnightblue" points="2737.89,-88.09 2727.41,-86.5 2734.61,-94.28 2737.89,-88.09"/>
</g>
<!-- Node29&#45;&gt;Node19 -->
<g id="edge34" class="edge">
<title>Node29&#45;&gt;Node19</title>
<path fill="none" stroke="midnightblue" d="M2927.24,-139.7C2942.71,-126.5 2965.62,-106.93 2981.48,-93.39"/>
<polygon fill="midnightblue" stroke="midnightblue" points="2984.14,-95.72 2989.47,-86.56 2979.59,-90.4 2984.14,-95.72"/>
</g>
<!-- Node30&#45;&gt;Node2 -->
<g id="edge47" class="edge">
<title>Node30&#45;&gt;Node2</title>
<path fill="none" stroke="midnightblue" d="M1373.89,-221.46C1420.54,-219.38 1488.62,-210.01 1536.5,-176 1564.33,-156.23 1581.38,-118.83 1589.59,-96.39"/>
<polygon fill="midnightblue" stroke="midnightblue" points="1592.97,-97.31 1592.91,-86.71 1586.35,-95.03 1592.97,-97.31"/>
</g>
<!-- Node30&#45;&gt;Node6 -->
<g id="edge48" class="edge">
<title>Node30&#45;&gt;Node6</title>
<path fill="none" stroke="midnightblue" d="M1373.84,-216.54C1468,-208.5 1672.23,-191.03 1844.5,-176 1895.1,-171.58 1952.07,-166.54 1996.15,-162.63"/>
<polygon fill="midnightblue" stroke="midnightblue" points="1996.56,-166.1 2006.21,-161.73 1995.94,-159.13 1996.56,-166.1"/>
</g>
<!-- Node30&#45;&gt;Node11 -->
<g id="edge58" class="edge">
<title>Node30&#45;&gt;Node11</title>
<path fill="none" stroke="midnightblue" d="M1269.49,-220.69C1041.78,-219.13 141.9,-210.79 93.5,-176 68.11,-157.75 60.13,-119.8 57.63,-96.85"/>
<polygon fill="midnightblue" stroke="midnightblue" points="61.1,-96.34 56.78,-86.67 54.13,-96.93 61.1,-96.34"/>
</g>
<!-- Node30&#45;&gt;Node12 -->
<g id="edge60" class="edge">
<title>Node30&#45;&gt;Node12</title>
<path fill="none" stroke="midnightblue" d="M1373.87,-214.87C1420.66,-208.19 1484.13,-195.74 1499.5,-176 1510.97,-161.27 1510.83,-148.83 1499.5,-134 1462.59,-85.67 1423.38,-121.99 1367.5,-98 1363.48,-96.28 1359.37,-94.13 1355.47,-91.89"/>
<polygon fill="midnightblue" stroke="midnightblue" points="1357.26,-88.89 1346.91,-86.65 1353.61,-94.86 1357.26,-88.89"/>
</g>
<!-- Node30&#45;&gt;Node13 -->
<g id="edge61" class="edge">
<title>Node30&#45;&gt;Node13</title>
<path fill="none" stroke="midnightblue" d="M1373.77,-220.27C1543.66,-217.59 2073.34,-206.84 2143.5,-176 2167.96,-165.25 2162.15,-144.98 2186.5,-134 2385.16,-44.43 2466.34,-159.17 2675.5,-98 2680.71,-96.48 2686.01,-94.15 2690.92,-91.62"/>
<polygon fill="midnightblue" stroke="midnightblue" points="2692.74,-94.61 2699.73,-86.65 2689.3,-88.51 2692.74,-94.61"/>
</g>
<!-- Node30&#45;&gt;Node15 -->
<g id="edge62" class="edge">
<title>Node30&#45;&gt;Node15</title>
<path fill="none" stroke="midnightblue" d="M1373.55,-216.35C1425.68,-210.49 1500.68,-198.36 1518.5,-176 1530.14,-161.4 1526.53,-150.85 1518.5,-134 1511.43,-119.15 1498.27,-106.95 1485.33,-97.78"/>
<polygon fill="midnightblue" stroke="midnightblue" points="1487.19,-94.81 1476.92,-92.18 1483.31,-100.64 1487.19,-94.81"/>
</g>
<!-- Node30&#45;&gt;Node16 -->
<g id="edge63" class="edge">
<title>Node30&#45;&gt;Node16</title>
<path fill="none" stroke="midnightblue" d="M1321.42,-212.17C1320.88,-195.63 1317.88,-159.39 1302.5,-134 1291.96,-116.61 1274.07,-102.06 1259.42,-92.16"/>
<polygon fill="midnightblue" stroke="midnightblue" points="1261.12,-89.09 1250.82,-86.61 1257.32,-94.97 1261.12,-89.09"/>
</g>
<!-- Node31 -->
<g id="node31" class="node">
<title>Node31</title>
<g id="a_node31"><a xlink:title=" ">
<polygon fill="none" stroke="#bfbfbf" points="103,-140 103,-170 262,-170 262,-140 103,-140"/>
<text text-anchor="start" x="111" y="-158" font-family="Helvetica,sans-Serif" font-size="10.00">seerep_msgs/boundingbox2d</text>
<text text-anchor="middle" x="182.5" y="-147" font-family="Helvetica,sans-Serif" font-size="10.00">_labeled_generated.h</text>
</a>
</g>
</g>
<!-- Node30&#45;&gt;Node31 -->
<g id="edge49" class="edge">
<title>Node30&#45;&gt;Node31</title>
<path fill="none" stroke="midnightblue" d="M1269.43,-220.02C1085.51,-216.35 466.9,-202.3 270.5,-176 262.86,-174.98 254.9,-173.61 247.03,-172.06"/>
<polygon fill="midnightblue" stroke="midnightblue" points="247.65,-168.62 237.14,-170.03 246.23,-175.47 247.65,-168.62"/>
</g>
<!-- Node32 -->
<g id="node32" class="node">
<title>Node32</title>
<g id="a_node32"><a xlink:title=" ">
<polygon fill="none" stroke="#bfbfbf" points="280,-134.5 280,-175.5 439,-175.5 439,-134.5 280,-134.5"/>
<text text-anchor="start" x="288" y="-163.5" font-family="Helvetica,sans-Serif" font-size="10.00">seerep_msgs/boundingbox2d</text>
<text text-anchor="start" x="288" y="-152.5" font-family="Helvetica,sans-Serif" font-size="10.00">_labeled_with_category</text>
<text text-anchor="middle" x="359.5" y="-141.5" font-family="Helvetica,sans-Serif" font-size="10.00">_generated.h</text>
</a>
</g>
</g>
<!-- Node30&#45;&gt;Node32 -->
<g id="edge50" class="edge">
<title>Node30&#45;&gt;Node32</title>
<path fill="none" stroke="midnightblue" d="M1269.49,-221.43C1135.09,-221.88 765.22,-218.9 449.29,-176.12"/>
<polygon fill="midnightblue" stroke="midnightblue" points="449.4,-172.61 439.01,-174.72 448.44,-179.54 449.4,-172.61"/>
</g>
<!-- Node33 -->
<g id="node33" class="node">
<title>Node33</title>
<g id="a_node33"><a xlink:title=" ">
<polygon fill="none" stroke="#bfbfbf" points="457,-140 457,-170 604,-170 604,-140 457,-140"/>
<text text-anchor="start" x="465" y="-158" font-family="Helvetica,sans-Serif" font-size="10.00">seerep_msgs/boundingbox</text>
<text text-anchor="middle" x="530.5" y="-147" font-family="Helvetica,sans-Serif" font-size="10.00">_labeled_generated.h</text>
</a>
</g>
</g>
<!-- Node30&#45;&gt;Node33 -->
<g id="edge51" class="edge">
<title>Node30&#45;&gt;Node33</title>
<path fill="none" stroke="midnightblue" d="M1269.13,-220.82C1151.19,-219.72 856.05,-213.14 612.5,-176 605.88,-174.99 599.01,-173.7 592.2,-172.27"/>
<polygon fill="midnightblue" stroke="midnightblue" points="592.8,-168.82 582.28,-170.09 591.29,-175.66 592.8,-168.82"/>
</g>
<!-- Node34 -->
<g id="node34" class="node">
<title>Node34</title>
<g id="a_node34"><a xlink:title=" ">
<polygon fill="none" stroke="#bfbfbf" points="622,-134.5 622,-175.5 769,-175.5 769,-134.5 622,-134.5"/>
<text text-anchor="start" x="630" y="-163.5" font-family="Helvetica,sans-Serif" font-size="10.00">seerep_msgs/boundingbox</text>
<text text-anchor="start" x="630" y="-152.5" font-family="Helvetica,sans-Serif" font-size="10.00">_labeled_with_category</text>
<text text-anchor="middle" x="695.5" y="-141.5" font-family="Helvetica,sans-Serif" font-size="10.00">_generated.h</text>
</a>
</g>
</g>
<!-- Node30&#45;&gt;Node34 -->
<g id="edge52" class="edge">
<title>Node30&#45;&gt;Node34</title>
<path fill="none" stroke="midnightblue" d="M1269.14,-219.34C1173.62,-215.72 964.63,-205.13 779.08,-175.95"/>
<polygon fill="midnightblue" stroke="midnightblue" points="779.57,-172.49 769.15,-174.37 778.47,-179.4 779.57,-172.49"/>
</g>
<!-- Node35 -->
<g id="node35" class="node">
<title>Node35</title>
<g id="a_node35"><a xlink:title=" ">
<polygon fill="none" stroke="#bfbfbf" points="787.5,-140 787.5,-170 905.5,-170 905.5,-140 787.5,-140"/>
<text text-anchor="start" x="795.5" y="-158" font-family="Helvetica,sans-Serif" font-size="10.00">seerep_msgs/header</text>
<text text-anchor="middle" x="846.5" y="-147" font-family="Helvetica,sans-Serif" font-size="10.00">_generated.h</text>
</a>
</g>
</g>
<!-- Node30&#45;&gt;Node35 -->
<g id="edge53" class="edge">
<title>Node30&#45;&gt;Node35</title>
<path fill="none" stroke="midnightblue" d="M1269.33,-218.18C1191.46,-213.3 1040.48,-201.29 914.5,-176 909.77,-175.05 904.9,-173.92 900.03,-172.7"/>
<polygon fill="midnightblue" stroke="midnightblue" points="900.68,-169.24 890.11,-170.06 898.88,-176.01 900.68,-169.24"/>
</g>
<!-- Node36 -->
<g id="node36" class="node">
<title>Node36</title>
<g id="a_node36"><a xlink:title=" ">
<polygon fill="none" stroke="#bfbfbf" points="923.5,-134.5 923.5,-175.5 1051.5,-175.5 1051.5,-134.5 923.5,-134.5"/>
<text text-anchor="start" x="931.5" y="-163.5" font-family="Helvetica,sans-Serif" font-size="10.00">seerep_msgs/labels</text>
<text text-anchor="start" x="931.5" y="-152.5" font-family="Helvetica,sans-Serif" font-size="10.00">_with_instance_with</text>
<text text-anchor="middle" x="987.5" y="-141.5" font-family="Helvetica,sans-Serif" font-size="10.00">_category_generated.h</text>
</a>
</g>
</g>
<!-- Node30&#45;&gt;Node36 -->
<g id="edge54" class="edge">
<title>Node30&#45;&gt;Node36</title>
<path fill="none" stroke="midnightblue" d="M1269.21,-213.51C1218.48,-205.9 1139.15,-193.09 1061.46,-176.11"/>
<polygon fill="midnightblue" stroke="midnightblue" points="1062.03,-172.65 1051.51,-173.91 1060.52,-179.49 1062.03,-172.65"/>
</g>
<!-- Node37 -->
<g id="node37" class="node">
<title>Node37</title>
<g id="a_node37"><a xlink:title=" ">
<polygon fill="none" stroke="#bfbfbf" points="1069.5,-140 1069.5,-170 1207.5,-170 1207.5,-140 1069.5,-140"/>
<text text-anchor="start" x="1077.5" y="-158" font-family="Helvetica,sans-Serif" font-size="10.00">seerep_msgs/union_map</text>
<text text-anchor="middle" x="1138.5" y="-147" font-family="Helvetica,sans-Serif" font-size="10.00">_entry_generated.h</text>
</a>
</g>
</g>
<!-- Node30&#45;&gt;Node37 -->
<g id="edge55" class="edge">
<title>Node30&#45;&gt;Node37</title>
<path fill="none" stroke="midnightblue" d="M1297.2,-212.37C1269.38,-202.49 1223.1,-186.05 1187.67,-173.47"/>
<polygon fill="midnightblue" stroke="midnightblue" points="1188.59,-170.08 1177.99,-170.03 1186.25,-176.67 1188.59,-170.08"/>
</g>
<!-- Node30&#45;&gt;Node38 -->
<g id="edge56" class="edge">
<title>Node30&#45;&gt;Node38</title>
<path fill="none" stroke="midnightblue" d="M1373.71,-215.2C1431.75,-208.21 1528.05,-194.98 1609.5,-176 1619.34,-173.71 1629.87,-170.67 1639.49,-167.65"/>
<polygon fill="midnightblue" stroke="midnightblue" points="1640.67,-170.95 1649.12,-164.55 1638.53,-164.29 1640.67,-170.95"/>
</g>
<!-- Node30&#45;&gt;Node39 -->
<g id="edge57" class="edge">
<title>Node30&#45;&gt;Node39</title>
<path fill="none" stroke="midnightblue" d="M1373.58,-219.08C1452.07,-215.35 1604.94,-204.75 1731.5,-176 1740.32,-174 1749.67,-171.07 1758.19,-168.08"/>
<polygon fill="midnightblue" stroke="midnightblue" points="1759.54,-171.31 1767.72,-164.58 1757.13,-164.74 1759.54,-171.31"/>
</g>
<!-- Node40 -->
<g id="node40" class="node">
<title>Node40</title>
<g id="a_node40"><a xlink:title=" ">
<polygon fill="none" stroke="#bfbfbf" points="1225.5,-145.5 1225.5,-164.5 1293.5,-164.5 1293.5,-145.5 1225.5,-145.5"/>
<text text-anchor="middle" x="1259.5" y="-152.5" font-family="Helvetica,sans-Serif" font-size="10.00">filesystem</text>
</a>
</g>
</g>
<!-- Node30&#45;&gt;Node40 -->
<g id="edge59" class="edge">
<title>Node30&#45;&gt;Node40</title>
<path fill="none" stroke="midnightblue" d="M1313.14,-212.23C1303.38,-202 1287.03,-184.86 1274.95,-172.19"/>
<polygon fill="midnightblue" stroke="midnightblue" points="1277.16,-169.45 1267.73,-164.63 1272.1,-174.28 1277.16,-169.45"/>
</g>
<!-- Node41 -->
<g id="node41" class="node">
<title>Node41</title>
<g id="a_node41"><a xlink:title=" ">
<polygon fill="none" stroke="#bfbfbf" points="1350,-145.5 1350,-164.5 1491,-164.5 1491,-145.5 1350,-145.5"/>
<text text-anchor="middle" x="1420.5" y="-152.5" font-family="Helvetica,sans-Serif" font-size="10.00">impl/hdf5_fb_general.hpp</text>
</a>
</g>
</g>
<!-- Node30&#45;&gt;Node41 -->
<g id="edge64" class="edge">
<title>Node30&#45;&gt;Node41</title>
<path fill="none" stroke="midnightblue" d="M1334.85,-212.23C1351.25,-201.46 1379.3,-183.05 1398.81,-170.24"/>
<polygon fill="midnightblue" stroke="midnightblue" points="1400.92,-173.04 1407.36,-164.63 1397.08,-167.19 1400.92,-173.04"/>
</g>
</g>
</svg>
