<?xml version="1.0" encoding="UTF-8" standalone="no"?>
<!DOCTYPE svg PUBLIC "-//W3C//DTD SVG 1.1//EN"
 "http://www.w3.org/Graphics/SVG/1.1/DTD/svg11.dtd">
<!-- Generated by graphviz version 2.43.0 (0)
 -->
<!-- Title: seerep&#45;hdf5/seerep&#45;hdf5&#45;py/include/seerep&#45;hdf5&#45;py/hdf5&#45;py&#45;pointcloud.h Pages: 1 -->
<svg width="274pt" height="206pt"
 viewBox="0.00 0.00 274.00 206.00" xmlns="http://www.w3.org/2000/svg" xmlns:xlink="http://www.w3.org/1999/xlink">
<g id="graph0" class="graph" transform="scale(1 1) rotate(0) translate(4 202)">
<title>seerep&#45;hdf5/seerep&#45;hdf5&#45;py/include/seerep&#45;hdf5&#45;py/hdf5&#45;py&#45;pointcloud.h</title>
<!-- Node1 -->
<g id="node1" class="node">
<title>Node1</title>
<g id="a_node1"><a xlink:title=" ">
<polygon fill="#bfbfbf" stroke="black" points="56,-156.5 56,-197.5 218,-197.5 218,-156.5 56,-156.5"/>
<text text-anchor="start" x="64" y="-185.5" font-family="Helvetica,sans-Serif" font-size="10.00">seerep&#45;hdf5/seerep</text>
<text text-anchor="start" x="64" y="-174.5" font-family="Helvetica,sans-Serif" font-size="10.00">&#45;hdf5&#45;py/include/seerep</text>
<text text-anchor="middle" x="137" y="-163.5" font-family="Helvetica,sans-Serif" font-size="10.00">&#45;hdf5&#45;py/hdf5&#45;py&#45;pointcloud.h</text>
</a>
</g>
</g>
<!-- Node2 -->
<g id="node2" class="node">
<title>Node2</title>
<g id="a_node2"><a xlink:href="hdf5-py_8h.html" target="_top" xlink:title=" ">
<polygon fill="none" stroke="black" points="0,-78.5 0,-119.5 132,-119.5 132,-78.5 0,-78.5"/>
<text text-anchor="start" x="8" y="-107.5" font-family="Helvetica,sans-Serif" font-size="10.00">seerep&#45;hdf5/seerep</text>
<text text-anchor="start" x="8" y="-96.5" font-family="Helvetica,sans-Serif" font-size="10.00">&#45;hdf5&#45;py/include/seerep</text>
<text text-anchor="middle" x="66" y="-85.5" font-family="Helvetica,sans-Serif" font-size="10.00">&#45;hdf5&#45;py/hdf5&#45;py.h</text>
</a>
</g>
</g>
<!-- Node1&#45;&gt;Node2 -->
<g id="edge1" class="edge">
<title>Node1&#45;&gt;Node2</title>
<path fill="none" stroke="midnightblue" d="M111.7,-148.92C102.62,-139.2 92.58,-128.45 84.22,-119.51"/>
<polygon fill="midnightblue" stroke="midnightblue" points="109.33,-151.51 118.72,-156.43 114.45,-146.73 109.33,-151.51"/>
</g>
<!-- Node4 -->
<g id="node4" class="node">
<title>Node4</title>
<g id="a_node4"><a xlink:href="hdf5-py-pointcloud_8cpp.html" target="_top" xlink:title=" ">
<polygon fill="none" stroke="black" points="150,-78.5 150,-119.5 266,-119.5 266,-78.5 150,-78.5"/>
<text text-anchor="start" x="158" y="-107.5" font-family="Helvetica,sans-Serif" font-size="10.00">seerep&#45;hdf5/seerep</text>
<text text-anchor="start" x="158" y="-96.5" font-family="Helvetica,sans-Serif" font-size="10.00">&#45;hdf5&#45;py/src/hdf5&#45;py</text>
<text text-anchor="middle" x="208" y="-85.5" font-family="Helvetica,sans-Serif" font-size="10.00">&#45;pointcloud.cpp</text>
</a>
</g>
</g>
<!-- Node1&#45;&gt;Node4 -->
<g id="edge3" class="edge">
<title>Node1&#45;&gt;Node4</title>
<path fill="none" stroke="midnightblue" d="M162.3,-148.92C171.38,-139.2 181.42,-128.45 189.78,-119.51"/>
<polygon fill="midnightblue" stroke="midnightblue" points="159.55,-146.73 155.28,-156.43 164.67,-151.51 159.55,-146.73"/>
</g>
<!-- Node3 -->
<g id="node3" class="node">
<title>Node3</title>
<g id="a_node3"><a xlink:href="hdf5-py-tf_8cpp.html" target="_top" xlink:title=" ">
<polygon fill="none" stroke="black" points="8,-0.5 8,-41.5 124,-41.5 124,-0.5 8,-0.5"/>
<text text-anchor="start" x="16" y="-29.5" font-family="Helvetica,sans-Serif" font-size="10.00">seerep&#45;hdf5/seerep</text>
<text text-anchor="start" x="16" y="-18.5" font-family="Helvetica,sans-Serif" font-size="10.00">&#45;hdf5&#45;py/src/hdf5&#45;py</text>
<text text-anchor="middle" x="66" y="-7.5" font-family="Helvetica,sans-Serif" font-size="10.00">&#45;tf.cpp</text>
</a>
</g>
</g>
<!-- Node2&#45;&gt;Node3 -->
<g id="edge2" class="edge">
<title>Node2&#45;&gt;Node3</title>
<path fill="none" stroke="midnightblue" d="M66,-68.3C66,-59.3 66,-49.65 66,-41.51"/>
<polygon fill="midnightblue" stroke="midnightblue" points="62.5,-68.43 66,-78.43 69.5,-68.43 62.5,-68.43"/>
</g>
</g>
</svg>
