<?xml version="1.0" encoding="UTF-8" standalone="no"?>
<!DOCTYPE svg PUBLIC "-//W3C//DTD SVG 1.1//EN"
 "http://www.w3.org/Graphics/SVG/1.1/DTD/svg11.dtd">
<!-- Generated by graphviz version 2.43.0 (0)
 -->
<!-- Title: seerep_hdf5/seerep_hdf5_py/include/seerep_hdf5_py/hdf5_py_image.h Pages: 1 -->
<svg width="3015pt" height="363pt"
 viewBox="0.00 0.00 3015.00 363.00" xmlns="http://www.w3.org/2000/svg" xmlns:xlink="http://www.w3.org/1999/xlink">
<g id="graph0" class="graph" transform="scale(1 1) rotate(0) translate(4 359)">
<title>seerep_hdf5/seerep_hdf5_py/include/seerep_hdf5_py/hdf5_py_image.h</title>
<!-- Node1 -->
<g id="node1" class="node">
<title>Node1</title>
<g id="a_node1"><a xlink:title=" ">
<polygon fill="#bfbfbf" stroke="black" points="2270.5,-313.5 2270.5,-354.5 2418.5,-354.5 2418.5,-313.5 2270.5,-313.5"/>
<text text-anchor="start" x="2278.5" y="-342.5" font-family="Helvetica,sans-Serif" font-size="10.00">seerep_hdf5/seerep</text>
<text text-anchor="start" x="2278.5" y="-331.5" font-family="Helvetica,sans-Serif" font-size="10.00">_hdf5_py/include/seerep</text>
<text text-anchor="middle" x="2344.5" y="-320.5" font-family="Helvetica,sans-Serif" font-size="10.00">_hdf5_py/hdf5_py_image.h</text>
</a>
</g>
</g>
<!-- Node2 -->
<g id="node2" class="node">
<title>Node2</title>
<g id="a_node2"><a xlink:title=" ">
<polygon fill="none" stroke="#bfbfbf" points="315.5,-62 315.5,-81 425.5,-81 425.5,-62 315.5,-62"/>
<text text-anchor="middle" x="370.5" y="-69" font-family="Helvetica,sans-Serif" font-size="10.00">highfive/H5File.hpp</text>
</a>
</g>
</g>
<!-- Node1&#45;&gt;Node2 -->
<g id="edge1" class="edge">
<title>Node1&#45;&gt;Node2</title>
<path fill="none" stroke="midnightblue" d="M2270.32,-330.35C1982.6,-319.68 940.26,-277.13 616.5,-210 539.85,-194.11 515.73,-195.73 449.5,-154 421.85,-136.58 396.87,-107.52 382.7,-89.22"/>
<polygon fill="midnightblue" stroke="midnightblue" points="385.47,-87.07 376.65,-81.19 379.88,-91.29 385.47,-87.07"/>
</g>
<!-- Node3 -->
<g id="node3" class="node">
<title>Node3</title>
<g id="a_node3"><a xlink:href="hdf5__core__image_8h.html" target="_top" xlink:title=" ">
<polygon fill="none" stroke="black" points="1408.5,-246.5 1408.5,-276.5 1536.5,-276.5 1536.5,-246.5 1408.5,-246.5"/>
<text text-anchor="start" x="1416.5" y="-264.5" font-family="Helvetica,sans-Serif" font-size="10.00">seerep_hdf5_core/hdf5</text>
<text text-anchor="middle" x="1472.5" y="-253.5" font-family="Helvetica,sans-Serif" font-size="10.00">_core_image.h</text>
</a>
</g>
</g>
<!-- Node1&#45;&gt;Node3 -->
<g id="edge2" class="edge">
<title>Node1&#45;&gt;Node3</title>
<path fill="none" stroke="midnightblue" d="M2270.15,-326.99C2105.46,-313.67 1711.47,-281.82 1546.81,-268.51"/>
<polygon fill="midnightblue" stroke="midnightblue" points="1547.02,-265.01 1536.77,-267.7 1546.46,-271.99 1547.02,-265.01"/>
</g>
<!-- Node12 -->
<g id="node12" class="node">
<title>Node12</title>
<g id="a_node12"><a xlink:title=" ">
<polygon fill="none" stroke="#bfbfbf" points="2513,-62 2513,-81 2626,-81 2626,-62 2513,-62"/>
<text text-anchor="middle" x="2569.5" y="-69" font-family="Helvetica,sans-Serif" font-size="10.00">boost/geometry.hpp</text>
</a>
</g>
</g>
<!-- Node1&#45;&gt;Node12 -->
<g id="edge57" class="edge">
<title>Node1&#45;&gt;Node12</title>
<path fill="none" stroke="midnightblue" d="M2378.77,-313.26C2425.5,-284.48 2508.32,-226.44 2551.5,-154 2563.06,-134.6 2567.22,-108.61 2568.7,-91.25"/>
<polygon fill="midnightblue" stroke="midnightblue" points="2572.2,-91.45 2569.34,-81.24 2565.21,-91 2572.2,-91.45"/>
</g>
<!-- Node14 -->
<g id="node14" class="node">
<title>Node14</title>
<g id="a_node14"><a xlink:title=" ">
<polygon fill="none" stroke="#bfbfbf" points="2142.5,-62 2142.5,-81 2198.5,-81 2198.5,-62 2142.5,-62"/>
<text text-anchor="middle" x="2170.5" y="-69" font-family="Helvetica,sans-Serif" font-size="10.00">optional</text>
</a>
</g>
</g>
<!-- Node1&#45;&gt;Node14 -->
<g id="edge58" class="edge">
<title>Node1&#45;&gt;Node14</title>
<path fill="none" stroke="midnightblue" d="M2305.56,-313.38C2269.06,-292.82 2216.11,-256.98 2188.5,-210 2166.42,-172.42 2166.57,-119.22 2168.55,-91.29"/>
<polygon fill="midnightblue" stroke="midnightblue" points="2172.04,-91.56 2169.42,-81.29 2165.06,-90.95 2172.04,-91.56"/>
</g>
<!-- Node31 -->
<g id="node31" class="node">
<title>Node31</title>
<g id="a_node31"><a xlink:href="hdf5__py__general_8h.html" target="_top" xlink:title=" ">
<polygon fill="none" stroke="black" points="2197,-190.5 2197,-209.5 2304,-209.5 2304,-190.5 2197,-190.5"/>
<text text-anchor="middle" x="2250.5" y="-197.5" font-family="Helvetica,sans-Serif" font-size="10.00">hdf5_py_general.h</text>
</a>
</g>
</g>
<!-- Node1&#45;&gt;Node31 -->
<g id="edge47" class="edge">
<title>Node1&#45;&gt;Node31</title>
<path fill="none" stroke="midnightblue" d="M2330.43,-313.24C2311.99,-287.35 2279.96,-242.37 2262.57,-217.96"/>
<polygon fill="midnightblue" stroke="midnightblue" points="2265.34,-215.8 2256.69,-209.69 2259.63,-219.86 2265.34,-215.8"/>
</g>
<!-- Node34 -->
<g id="node34" class="node">
<title>Node34</title>
<g id="a_node34"><a xlink:title=" ">
<polygon fill="none" stroke="#bfbfbf" points="2542,-252 2542,-271 2681,-271 2681,-252 2542,-252"/>
<text text-anchor="middle" x="2611.5" y="-259" font-family="Helvetica,sans-Serif" font-size="10.00">seerep_msgs/image.pb.h</text>
</a>
</g>
</g>
<!-- Node1&#45;&gt;Node34 -->
<g id="edge56" class="edge">
<title>Node1&#45;&gt;Node34</title>
<path fill="none" stroke="midnightblue" d="M2418.52,-313.46C2467.18,-300.61 2529.09,-284.26 2569.48,-273.6"/>
<polygon fill="midnightblue" stroke="midnightblue" points="2570.48,-276.95 2579.26,-271.01 2568.7,-270.18 2570.48,-276.95"/>
</g>
<!-- Node35 -->
<g id="node35" class="node">
<title>Node35</title>
<g id="a_node35"><a xlink:title=" ">
<polygon fill="none" stroke="#bfbfbf" points="2699,-246.5 2699,-276.5 2844,-276.5 2844,-246.5 2699,-246.5"/>
<text text-anchor="start" x="2707" y="-264.5" font-family="Helvetica,sans-Serif" font-size="10.00">pybind11_catkin/pybind11</text>
<text text-anchor="middle" x="2771.5" y="-253.5" font-family="Helvetica,sans-Serif" font-size="10.00">/numpy.h</text>
</a>
</g>
</g>
<!-- Node1&#45;&gt;Node35 -->
<g id="edge59" class="edge">
<title>Node1&#45;&gt;Node35</title>
<path fill="none" stroke="midnightblue" d="M2418.8,-321.34C2486.58,-310.62 2589.79,-294.09 2688.5,-277.33"/>
<polygon fill="midnightblue" stroke="midnightblue" points="2689.38,-280.73 2698.65,-275.6 2688.21,-273.83 2689.38,-280.73"/>
</g>
<!-- Node36 -->
<g id="node36" class="node">
<title>Node36</title>
<g id="a_node36"><a xlink:title=" ">
<polygon fill="none" stroke="#bfbfbf" points="2862,-246.5 2862,-276.5 3007,-276.5 3007,-246.5 2862,-246.5"/>
<text text-anchor="start" x="2870" y="-264.5" font-family="Helvetica,sans-Serif" font-size="10.00">pybind11_catkin/pybind11</text>
<text text-anchor="middle" x="2934.5" y="-253.5" font-family="Helvetica,sans-Serif" font-size="10.00">/pybind11.h</text>
</a>
</g>
</g>
<!-- Node1&#45;&gt;Node36 -->
<g id="edge60" class="edge">
<title>Node1&#45;&gt;Node36</title>
<path fill="none" stroke="midnightblue" d="M2418.88,-326.4C2516.17,-317.42 2692.12,-299.96 2851.68,-277.21"/>
<polygon fill="midnightblue" stroke="midnightblue" points="2852.28,-280.66 2861.68,-275.78 2851.28,-273.73 2852.28,-280.66"/>
</g>
<!-- Node3&#45;&gt;Node2 -->
<g id="edge3" class="edge">
<title>Node3&#45;&gt;Node2</title>
<path fill="none" stroke="midnightblue" d="M1408.48,-260.33C1278.61,-259.07 975.22,-251.49 724.5,-210 629.2,-194.23 603.92,-190.53 514.5,-154 468.39,-135.16 418.68,-104.45 391.4,-86.6"/>
<polygon fill="midnightblue" stroke="midnightblue" points="393.32,-83.67 383.05,-81.07 389.45,-89.51 393.32,-83.67"/>
</g>
<!-- Node4 -->
<g id="node4" class="node">
<title>Node4</title>
<g id="a_node4"><a xlink:href="hdf5__core__cameraintrinsics_8h.html" target="_top" xlink:title=" ">
<polygon fill="none" stroke="black" points="733.5,-190.5 733.5,-209.5 893.5,-209.5 893.5,-190.5 733.5,-190.5"/>
<text text-anchor="middle" x="813.5" y="-197.5" font-family="Helvetica,sans-Serif" font-size="10.00">hdf5_core_cameraintrinsics.h</text>
</a>
</g>
</g>
<!-- Node3&#45;&gt;Node4 -->
<g id="edge4" class="edge">
<title>Node3&#45;&gt;Node4</title>
<path fill="none" stroke="midnightblue" d="M1408.41,-254.71C1290.6,-244.08 1039.3,-221.39 904.09,-209.18"/>
<polygon fill="midnightblue" stroke="midnightblue" points="904.03,-205.66 893.76,-208.25 903.4,-212.63 904.03,-205.66"/>
</g>
<!-- Node6 -->
<g id="node6" class="node">
<title>Node6</title>
<g id="a_node6"><a xlink:href="hdf5__core__general_8h.html" target="_top" xlink:title=" ">
<polygon fill="none" stroke="black" points="1322.5,-123.5 1322.5,-153.5 1450.5,-153.5 1450.5,-123.5 1322.5,-123.5"/>
<text text-anchor="start" x="1330.5" y="-141.5" font-family="Helvetica,sans-Serif" font-size="10.00">seerep_hdf5_core/hdf5</text>
<text text-anchor="middle" x="1386.5" y="-130.5" font-family="Helvetica,sans-Serif" font-size="10.00">_core_general.h</text>
</a>
</g>
</g>
<!-- Node3&#45;&gt;Node6 -->
<g id="edge37" class="edge">
<title>Node3&#45;&gt;Node6</title>
<path fill="none" stroke="midnightblue" d="M1462.3,-246.14C1447.56,-225.4 1420.15,-186.85 1402.65,-162.22"/>
<polygon fill="midnightblue" stroke="midnightblue" points="1405.34,-159.96 1396.69,-153.84 1399.63,-164.02 1405.34,-159.96"/>
</g>
<!-- Node8 -->
<g id="node8" class="node">
<title>Node8</title>
<g id="a_node8"><a xlink:title=" ">
<polygon fill="none" stroke="#bfbfbf" points="589,-56.5 589,-86.5 710,-86.5 710,-56.5 589,-56.5"/>
<text text-anchor="start" x="597" y="-74.5" font-family="Helvetica,sans-Serif" font-size="10.00">seerep_msgs/dataset</text>
<text text-anchor="middle" x="649.5" y="-63.5" font-family="Helvetica,sans-Serif" font-size="10.00">_indexable.h</text>
</a>
</g>
</g>
<!-- Node3&#45;&gt;Node8 -->
<g id="edge38" class="edge">
<title>Node3&#45;&gt;Node8</title>
<path fill="none" stroke="midnightblue" d="M1454.3,-246.35C1415.54,-217.12 1320.93,-150.55 1229.5,-123 1014.7,-58.28 946,-116.72 720.53,-87.14"/>
<polygon fill="midnightblue" stroke="midnightblue" points="720.75,-83.64 710.37,-85.76 719.81,-90.58 720.75,-83.64"/>
</g>
<!-- Node11 -->
<g id="node11" class="node">
<title>Node11</title>
<g id="a_node11"><a xlink:title=" ">
<polygon fill="none" stroke="#bfbfbf" points="1467.5,-62 1467.5,-81 1631.5,-81 1631.5,-62 1467.5,-62"/>
<text text-anchor="middle" x="1549.5" y="-69" font-family="Helvetica,sans-Serif" font-size="10.00">seerep_msgs/label_category.h</text>
</a>
</g>
</g>
<!-- Node3&#45;&gt;Node11 -->
<g id="edge39" class="edge">
<title>Node3&#45;&gt;Node11</title>
<path fill="none" stroke="midnightblue" d="M1478.29,-246.37C1492.04,-212.79 1526.67,-128.25 1542,-90.82"/>
<polygon fill="midnightblue" stroke="midnightblue" points="1545.38,-91.79 1545.93,-81.21 1538.91,-89.13 1545.38,-91.79"/>
</g>
<!-- Node3&#45;&gt;Node12 -->
<g id="edge40" class="edge">
<title>Node3&#45;&gt;Node12</title>
<path fill="none" stroke="midnightblue" d="M1536.53,-260.96C1677.77,-261.05 2026.28,-256.09 2313.5,-210 2409.72,-194.56 2448.93,-214.29 2525.5,-154 2545.99,-137.87 2558.18,-109.47 2564.36,-90.82"/>
<polygon fill="midnightblue" stroke="midnightblue" points="2567.74,-91.72 2567.32,-81.13 2561.05,-89.67 2567.74,-91.72"/>
</g>
<!-- Node3&#45;&gt;Node14 -->
<g id="edge41" class="edge">
<title>Node3&#45;&gt;Node14</title>
<path fill="none" stroke="midnightblue" d="M1527.44,-246.45C1566.75,-236.37 1620.9,-222.43 1668.5,-210 1875.34,-156 1930.31,-153.44 2133.5,-87 2135.77,-86.26 2138.1,-85.45 2140.43,-84.61"/>
<polygon fill="midnightblue" stroke="midnightblue" points="2141.78,-87.85 2149.91,-81.05 2139.32,-81.29 2141.78,-87.85"/>
</g>
<!-- Node18 -->
<g id="node18" class="node">
<title>Node18</title>
<g id="a_node18"><a xlink:title=" ">
<polygon fill="none" stroke="#bfbfbf" points="1650,-62 1650,-81 1793,-81 1793,-62 1650,-62"/>
<text text-anchor="middle" x="1721.5" y="-69" font-family="Helvetica,sans-Serif" font-size="10.00">boost/functional/hash.hpp</text>
</a>
</g>
</g>
<!-- Node3&#45;&gt;Node18 -->
<g id="edge42" class="edge">
<title>Node3&#45;&gt;Node18</title>
<path fill="none" stroke="midnightblue" d="M1491.22,-246.37C1537.12,-211.71 1654.94,-122.75 1701.83,-87.35"/>
<polygon fill="midnightblue" stroke="midnightblue" points="1704.1,-90.03 1709.97,-81.21 1699.88,-84.44 1704.1,-90.03"/>
</g>
<!-- Node19 -->
<g id="node19" class="node">
<title>Node19</title>
<g id="a_node19"><a xlink:title=" ">
<polygon fill="none" stroke="#bfbfbf" points="1811,-62 1811,-81 1936,-81 1936,-62 1811,-62"/>
<text text-anchor="middle" x="1873.5" y="-69" font-family="Helvetica,sans-Serif" font-size="10.00">boost/lexical_cast.hpp</text>
</a>
</g>
</g>
<!-- Node3&#45;&gt;Node19 -->
<g id="edge43" class="edge">
<title>Node3&#45;&gt;Node19</title>
<path fill="none" stroke="midnightblue" d="M1502.64,-246.37C1577.79,-211.14 1772.65,-119.78 1845.49,-85.63"/>
<polygon fill="midnightblue" stroke="midnightblue" points="1847.36,-88.62 1854.93,-81.21 1844.39,-82.28 1847.36,-88.62"/>
</g>
<!-- Node20 -->
<g id="node20" class="node">
<title>Node20</title>
<g id="a_node20"><a xlink:title=" ">
<polygon fill="none" stroke="#bfbfbf" points="184,-62 184,-81 297,-81 297,-62 184,-62"/>
<text text-anchor="middle" x="240.5" y="-69" font-family="Helvetica,sans-Serif" font-size="10.00">boost/uuid/uuid.hpp</text>
</a>
</g>
</g>
<!-- Node3&#45;&gt;Node20 -->
<g id="edge44" class="edge">
<title>Node3&#45;&gt;Node20</title>
<path fill="none" stroke="midnightblue" d="M1408.3,-258.91C1236.34,-254.3 768.14,-239.36 616.5,-210 539.64,-195.12 523.1,-180.67 449.5,-154 385.4,-130.77 311.23,-101.2 270.74,-84.82"/>
<polygon fill="midnightblue" stroke="midnightblue" points="272.02,-81.56 261.44,-81.05 269.39,-88.05 272.02,-81.56"/>
</g>
<!-- Node21 -->
<g id="node21" class="node">
<title>Node21</title>
<g id="a_node21"><a xlink:title=" ">
<polygon fill="none" stroke="#bfbfbf" points="1954.5,-62 1954.5,-81 2124.5,-81 2124.5,-62 1954.5,-62"/>
<text text-anchor="middle" x="2039.5" y="-69" font-family="Helvetica,sans-Serif" font-size="10.00">boost/uuid/uuid_generators.hpp</text>
</a>
</g>
</g>
<!-- Node3&#45;&gt;Node21 -->
<g id="edge45" class="edge">
<title>Node3&#45;&gt;Node21</title>
<path fill="none" stroke="midnightblue" d="M1515.12,-246.37C1622.81,-210.66 1904.35,-117.31 2003.95,-84.29"/>
<polygon fill="midnightblue" stroke="midnightblue" points="2005.16,-87.57 2013.55,-81.1 2002.96,-80.93 2005.16,-87.57"/>
</g>
<!-- Node22 -->
<g id="node22" class="node">
<title>Node22</title>
<g id="a_node22"><a xlink:title=" ">
<polygon fill="none" stroke="#bfbfbf" points="444,-62 444,-81 571,-81 571,-62 444,-62"/>
<text text-anchor="middle" x="507.5" y="-69" font-family="Helvetica,sans-Serif" font-size="10.00">boost/uuid/uuid_io.hpp</text>
</a>
</g>
</g>
<!-- Node3&#45;&gt;Node22 -->
<g id="edge46" class="edge">
<title>Node3&#45;&gt;Node22</title>
<path fill="none" stroke="midnightblue" d="M1408.48,-249.57C1361.26,-240.79 1295.72,-227.13 1239.5,-210 1175,-190.35 1160.3,-180.97 1098.5,-154 1069.17,-141.2 1064.41,-131.29 1033.5,-123 838,-70.56 779.96,-115.03 579.5,-87 571.69,-85.91 563.44,-84.5 555.44,-82.98"/>
<polygon fill="midnightblue" stroke="midnightblue" points="555.95,-79.52 545.47,-81.03 554.61,-86.39 555.95,-79.52"/>
</g>
<!-- Node30 -->
<g id="node30" class="node">
<title>Node30</title>
<g id="a_node30"><a xlink:href="hdf5__core__datatype__interface_8h.html" target="_top" xlink:title=" ">
<polygon fill="none" stroke="black" points="1108,-123.5 1108,-153.5 1221,-153.5 1221,-123.5 1108,-123.5"/>
<text text-anchor="start" x="1116" y="-141.5" font-family="Helvetica,sans-Serif" font-size="10.00">hdf5_core_datatype</text>
<text text-anchor="middle" x="1164.5" y="-130.5" font-family="Helvetica,sans-Serif" font-size="10.00">_interface.h</text>
</a>
</g>
</g>
<!-- Node3&#45;&gt;Node30 -->
<g id="edge33" class="edge">
<title>Node3&#45;&gt;Node30</title>
<path fill="none" stroke="midnightblue" d="M1408.36,-248.67C1370.04,-240.4 1320.92,-227.66 1279.5,-210 1247.74,-196.46 1214.42,-175.13 1191.87,-159.48"/>
<polygon fill="midnightblue" stroke="midnightblue" points="1193.68,-156.47 1183.49,-153.58 1189.65,-162.2 1193.68,-156.47"/>
</g>
<!-- Node4&#45;&gt;Node2 -->
<g id="edge6" class="edge">
<title>Node4&#45;&gt;Node2</title>
<path fill="none" stroke="midnightblue" d="M768.63,-190.44C727.47,-182.24 664.96,-168.95 611.5,-154 535.61,-132.78 448.45,-101.55 402.58,-84.57"/>
<polygon fill="midnightblue" stroke="midnightblue" points="403.77,-81.28 393.17,-81.08 401.33,-87.84 403.77,-81.28"/>
</g>
<!-- Node5 -->
<g id="node5" class="node">
<title>Node5</title>
<g id="a_node5"><a xlink:title=" ">
<polygon fill="none" stroke="#bfbfbf" points="892.5,-129 892.5,-148 1024.5,-148 1024.5,-129 892.5,-129"/>
<text text-anchor="middle" x="958.5" y="-136" font-family="Helvetica,sans-Serif" font-size="10.00">highfive/H5DataSet.hpp</text>
</a>
</g>
</g>
<!-- Node4&#45;&gt;Node5 -->
<g id="edge5" class="edge">
<title>Node4&#45;&gt;Node5</title>
<path fill="none" stroke="midnightblue" d="M834.27,-190.48C858.93,-180.36 900.25,-163.4 928.4,-151.85"/>
<polygon fill="midnightblue" stroke="midnightblue" points="929.84,-155.04 937.76,-148.01 927.18,-148.57 929.84,-155.04"/>
</g>
<!-- Node4&#45;&gt;Node6 -->
<g id="edge7" class="edge">
<title>Node4&#45;&gt;Node6</title>
<path fill="none" stroke="midnightblue" d="M893.78,-190.66C1004.92,-179.12 1204.16,-158.43 1312.1,-147.23"/>
<polygon fill="midnightblue" stroke="midnightblue" points="1312.67,-150.69 1322.25,-146.17 1311.94,-143.72 1312.67,-150.69"/>
</g>
<!-- Node24 -->
<g id="node24" class="node">
<title>Node24</title>
<g id="a_node24"><a xlink:href="header_8h.html" target="_top" xlink:title=" ">
<polygon fill="none" stroke="black" points="154,-129 154,-148 213,-148 213,-129 154,-129"/>
<text text-anchor="middle" x="183.5" y="-136" font-family="Helvetica,sans-Serif" font-size="10.00">header.h</text>
</a>
</g>
</g>
<!-- Node4&#45;&gt;Node24 -->
<g id="edge26" class="edge">
<title>Node4&#45;&gt;Node24</title>
<path fill="none" stroke="midnightblue" d="M733.39,-191.43C597.19,-178.57 325.37,-152.9 223.38,-143.27"/>
<polygon fill="midnightblue" stroke="midnightblue" points="223.49,-139.76 213.21,-142.31 222.83,-146.73 223.49,-139.76"/>
</g>
<!-- Node28 -->
<g id="node28" class="node">
<title>Node28</title>
<g id="a_node28"><a xlink:href="region__of__interest_8h.html" target="_top" xlink:title=" ">
<polygon fill="none" stroke="black" points="620.5,-129 620.5,-148 734.5,-148 734.5,-129 620.5,-129"/>
<text text-anchor="middle" x="677.5" y="-136" font-family="Helvetica,sans-Serif" font-size="10.00">region_of_interest.h</text>
</a>
</g>
</g>
<!-- Node4&#45;&gt;Node28 -->
<g id="edge31" class="edge">
<title>Node4&#45;&gt;Node28</title>
<path fill="none" stroke="midnightblue" d="M794.01,-190.48C771.09,-180.45 732.81,-163.7 706.42,-152.15"/>
<polygon fill="midnightblue" stroke="midnightblue" points="707.51,-148.81 696.95,-148.01 704.71,-155.22 707.51,-148.81"/>
</g>
<!-- Node29 -->
<g id="node29" class="node">
<title>Node29</title>
<g id="a_node29"><a xlink:title=" ">
<polygon fill="none" stroke="#bfbfbf" points="753,-123.5 753,-153.5 874,-153.5 874,-123.5 753,-123.5"/>
<text text-anchor="start" x="761" y="-141.5" font-family="Helvetica,sans-Serif" font-size="10.00">seerep_msgs/camera</text>
<text text-anchor="middle" x="813.5" y="-130.5" font-family="Helvetica,sans-Serif" font-size="10.00">_intrinsics.h</text>
</a>
</g>
</g>
<!-- Node4&#45;&gt;Node29 -->
<g id="edge32" class="edge">
<title>Node4&#45;&gt;Node29</title>
<path fill="none" stroke="midnightblue" d="M813.5,-190.48C813.5,-183.47 813.5,-173.19 813.5,-163.7"/>
<polygon fill="midnightblue" stroke="midnightblue" points="817,-163.52 813.5,-153.52 810,-163.52 817,-163.52"/>
</g>
<!-- Node6&#45;&gt;Node2 -->
<g id="edge8" class="edge">
<title>Node6&#45;&gt;Node2</title>
<path fill="none" stroke="midnightblue" d="M1322.36,-128.75C1304.62,-126.59 1285.34,-124.47 1267.5,-123 898.18,-92.57 801.8,-136.14 434.5,-87 427.52,-86.07 420.18,-84.74 413.06,-83.26"/>
<polygon fill="midnightblue" stroke="midnightblue" points="413.37,-79.75 402.85,-81.02 411.87,-86.58 413.37,-79.75"/>
</g>
<!-- Node7 -->
<g id="node7" class="node">
<title>Node7</title>
<g id="a_node7"><a xlink:title=" ">
<polygon fill="none" stroke="#bfbfbf" points="1188,-62 1188,-81 1305,-81 1305,-62 1188,-62"/>
<text text-anchor="middle" x="1246.5" y="-69" font-family="Helvetica,sans-Serif" font-size="10.00">seerep_msgs/aabb.h</text>
</a>
</g>
</g>
<!-- Node6&#45;&gt;Node7 -->
<g id="edge9" class="edge">
<title>Node6&#45;&gt;Node7</title>
<path fill="none" stroke="midnightblue" d="M1356.12,-123.4C1331.67,-112.04 1297.59,-96.22 1273.95,-85.24"/>
<polygon fill="midnightblue" stroke="midnightblue" points="1275.37,-82.04 1264.82,-81.01 1272.42,-88.39 1275.37,-82.04"/>
</g>
<!-- Node6&#45;&gt;Node8 -->
<g id="edge10" class="edge">
<title>Node6&#45;&gt;Node8</title>
<path fill="none" stroke="midnightblue" d="M1322.36,-125.06C1317.34,-124.29 1312.34,-123.59 1307.5,-123 1050.47,-91.67 980.19,-121.29 720.48,-87.14"/>
<polygon fill="midnightblue" stroke="midnightblue" points="720.74,-83.65 710.37,-85.79 719.82,-90.59 720.74,-83.65"/>
</g>
<!-- Node9 -->
<g id="node9" class="node">
<title>Node9</title>
<g id="a_node9"><a xlink:title=" ">
<polygon fill="none" stroke="#bfbfbf" points="1323.5,-56.5 1323.5,-86.5 1449.5,-86.5 1449.5,-56.5 1323.5,-56.5"/>
<text text-anchor="start" x="1331.5" y="-74.5" font-family="Helvetica,sans-Serif" font-size="10.00">seerep_msgs/geodetic</text>
<text text-anchor="middle" x="1386.5" y="-63.5" font-family="Helvetica,sans-Serif" font-size="10.00">_coordinates.h</text>
</a>
</g>
</g>
<!-- Node6&#45;&gt;Node9 -->
<g id="edge11" class="edge">
<title>Node6&#45;&gt;Node9</title>
<path fill="none" stroke="midnightblue" d="M1386.5,-123.4C1386.5,-115.64 1386.5,-105.81 1386.5,-96.86"/>
<polygon fill="midnightblue" stroke="midnightblue" points="1390,-96.58 1386.5,-86.58 1383,-96.58 1390,-96.58"/>
</g>
<!-- Node10 -->
<g id="node10" class="node">
<title>Node10</title>
<g id="a_node10"><a xlink:title=" ">
<polygon fill="none" stroke="#bfbfbf" points="728,-62 728,-81 845,-81 845,-62 728,-62"/>
<text text-anchor="middle" x="786.5" y="-69" font-family="Helvetica,sans-Serif" font-size="10.00">seerep_msgs/label.h</text>
</a>
</g>
</g>
<!-- Node6&#45;&gt;Node10 -->
<g id="edge12" class="edge">
<title>Node6&#45;&gt;Node10</title>
<path fill="none" stroke="midnightblue" d="M1322.35,-125.16C1317.33,-124.37 1312.34,-123.63 1307.5,-123 1107.25,-96.74 1054.36,-116.12 854.5,-87 847.27,-85.95 839.66,-84.58 832.26,-83.11"/>
<polygon fill="midnightblue" stroke="midnightblue" points="832.84,-79.66 822.34,-81.06 831.42,-86.51 832.84,-79.66"/>
</g>
<!-- Node6&#45;&gt;Node11 -->
<g id="edge13" class="edge">
<title>Node6&#45;&gt;Node11</title>
<path fill="none" stroke="midnightblue" d="M1421.87,-123.4C1450.72,-111.89 1491.08,-95.8 1518.64,-84.81"/>
<polygon fill="midnightblue" stroke="midnightblue" points="1520.17,-87.96 1528.17,-81.01 1517.58,-81.46 1520.17,-87.96"/>
</g>
<!-- Node6&#45;&gt;Node12 -->
<g id="edge14" class="edge">
<title>Node6&#45;&gt;Node12</title>
<path fill="none" stroke="midnightblue" d="M1450.56,-136.05C1656.13,-131.15 2297.68,-114.06 2503.5,-87 2510.78,-86.04 2518.44,-84.69 2525.86,-83.19"/>
<polygon fill="midnightblue" stroke="midnightblue" points="2526.73,-86.58 2535.78,-81.07 2525.27,-79.73 2526.73,-86.58"/>
</g>
<!-- Node13 -->
<g id="node13" class="node">
<title>Node13</title>
<g id="a_node13"><a xlink:title=" ">
<polygon fill="none" stroke="#bfbfbf" points="863.5,-62 863.5,-81 911.5,-81 911.5,-62 863.5,-62"/>
<text text-anchor="middle" x="887.5" y="-69" font-family="Helvetica,sans-Serif" font-size="10.00">mutex</text>
</a>
</g>
</g>
<!-- Node6&#45;&gt;Node13 -->
<g id="edge15" class="edge">
<title>Node6&#45;&gt;Node13</title>
<path fill="none" stroke="midnightblue" d="M1322.34,-125.23C1317.32,-124.42 1312.33,-123.67 1307.5,-123 1136.38,-99.38 1087.73,-130.3 920.5,-87 918.2,-86.4 915.86,-85.67 913.53,-84.84"/>
<polygon fill="midnightblue" stroke="midnightblue" points="914.84,-81.59 904.25,-81.1 912.22,-88.09 914.84,-81.59"/>
</g>
<!-- Node6&#45;&gt;Node14 -->
<g id="edge16" class="edge">
<title>Node6&#45;&gt;Node14</title>
<path fill="none" stroke="midnightblue" d="M1450.72,-135.68C1607.08,-130.83 2004.21,-115.98 2133.5,-87 2136.5,-86.33 2139.58,-85.45 2142.61,-84.46"/>
<polygon fill="midnightblue" stroke="midnightblue" points="2143.84,-87.74 2152.03,-81.02 2141.43,-81.16 2143.84,-87.74"/>
</g>
<!-- Node15 -->
<g id="node15" class="node">
<title>Node15</title>
<g id="a_node15"><a xlink:title=" ">
<polygon fill="none" stroke="#bfbfbf" points="930,-62 930,-81 999,-81 999,-62 930,-62"/>
<text text-anchor="middle" x="964.5" y="-69" font-family="Helvetica,sans-Serif" font-size="10.00">type_traits</text>
</a>
</g>
</g>
<!-- Node6&#45;&gt;Node15 -->
<g id="edge17" class="edge">
<title>Node6&#45;&gt;Node15</title>
<path fill="none" stroke="midnightblue" d="M1322.31,-125.38C1317.31,-124.54 1312.33,-123.73 1307.5,-123 1175.17,-102.91 1139.15,-116.09 1008.5,-87 1004.83,-86.18 1001.03,-85.18 997.28,-84.09"/>
<polygon fill="midnightblue" stroke="midnightblue" points="998.14,-80.69 987.55,-81.05 996.05,-87.37 998.14,-80.69"/>
</g>
<!-- Node16 -->
<g id="node16" class="node">
<title>Node16</title>
<g id="a_node16"><a xlink:title=" ">
<polygon fill="none" stroke="#bfbfbf" points="2217,-56.5 2217,-86.5 2362,-86.5 2362,-56.5 2217,-56.5"/>
<text text-anchor="start" x="2225" y="-74.5" font-family="Helvetica,sans-Serif" font-size="10.00">boost/log/sources/severity</text>
<text text-anchor="middle" x="2289.5" y="-63.5" font-family="Helvetica,sans-Serif" font-size="10.00">_logger.hpp</text>
</a>
</g>
</g>
<!-- Node6&#45;&gt;Node16 -->
<g id="edge18" class="edge">
<title>Node6&#45;&gt;Node16</title>
<path fill="none" stroke="midnightblue" d="M1450.59,-136.03C1587.52,-132.37 1918.84,-120.63 2206.47,-87.02"/>
<polygon fill="midnightblue" stroke="midnightblue" points="2207.17,-90.47 2216.69,-85.82 2206.34,-83.51 2207.17,-90.47"/>
</g>
<!-- Node17 -->
<g id="node17" class="node">
<title>Node17</title>
<g id="a_node17"><a xlink:title=" ">
<polygon fill="none" stroke="#bfbfbf" points="2380.5,-62 2380.5,-81 2494.5,-81 2494.5,-62 2380.5,-62"/>
<text text-anchor="middle" x="2437.5" y="-69" font-family="Helvetica,sans-Serif" font-size="10.00">boost/log/trivial.hpp</text>
</a>
</g>
</g>
<!-- Node6&#45;&gt;Node17 -->
<g id="edge19" class="edge">
<title>Node6&#45;&gt;Node17</title>
<path fill="none" stroke="midnightblue" d="M1450.5,-137.86C1607.95,-137.96 2026.37,-133.44 2371.5,-87 2378.77,-86.02 2386.43,-84.65 2393.86,-83.15"/>
<polygon fill="midnightblue" stroke="midnightblue" points="2394.73,-86.54 2403.78,-81.03 2393.27,-79.7 2394.73,-86.54"/>
</g>
<!-- Node6&#45;&gt;Node18 -->
<g id="edge20" class="edge">
<title>Node6&#45;&gt;Node18</title>
<path fill="none" stroke="midnightblue" d="M1450.69,-125.04C1513.55,-112.85 1608.26,-94.47 1667.4,-83"/>
<polygon fill="midnightblue" stroke="midnightblue" points="1668.14,-86.42 1677.29,-81.08 1666.81,-79.55 1668.14,-86.42"/>
</g>
<!-- Node6&#45;&gt;Node19 -->
<g id="edge21" class="edge">
<title>Node6&#45;&gt;Node19</title>
<path fill="none" stroke="midnightblue" d="M1450.51,-131.35C1532.39,-123.11 1678.45,-107.16 1802.5,-87 1809.67,-85.83 1817.22,-84.46 1824.61,-83.02"/>
<polygon fill="midnightblue" stroke="midnightblue" points="1825.42,-86.43 1834.54,-81.04 1824.05,-79.57 1825.42,-86.43"/>
</g>
<!-- Node6&#45;&gt;Node20 -->
<g id="edge22" class="edge">
<title>Node6&#45;&gt;Node20</title>
<path fill="none" stroke="midnightblue" d="M1322.4,-130.8C1293.97,-128.03 1260.09,-125.01 1229.5,-123 819.85,-96.11 713.7,-139.25 306.5,-87 299.14,-86.06 291.39,-84.69 283.89,-83.18"/>
<polygon fill="midnightblue" stroke="midnightblue" points="284.39,-79.7 273.87,-81.04 282.92,-86.55 284.39,-79.7"/>
</g>
<!-- Node6&#45;&gt;Node21 -->
<g id="edge23" class="edge">
<title>Node6&#45;&gt;Node21</title>
<path fill="none" stroke="midnightblue" d="M1450.77,-133.02C1554.89,-125.45 1766.8,-108.83 1945.5,-87 1955.93,-85.73 1966.99,-84.19 1977.72,-82.6"/>
<polygon fill="midnightblue" stroke="midnightblue" points="1978.5,-86.02 1987.87,-81.06 1977.45,-79.1 1978.5,-86.02"/>
</g>
<!-- Node6&#45;&gt;Node22 -->
<g id="edge24" class="edge">
<title>Node6&#45;&gt;Node22</title>
<path fill="none" stroke="midnightblue" d="M1322.36,-128.86C1304.61,-126.7 1285.33,-124.55 1267.5,-123 962.46,-96.47 883.29,-125.33 579.5,-87 571.41,-85.98 562.86,-84.56 554.59,-83.01"/>
<polygon fill="midnightblue" stroke="midnightblue" points="555.18,-79.56 544.7,-81.07 553.84,-86.43 555.18,-79.56"/>
</g>
<!-- Node23 -->
<g id="node23" class="node">
<title>Node23</title>
<g id="a_node23"><a xlink:title=" ">
<polygon fill="none" stroke="#bfbfbf" points="1017.5,-62 1017.5,-81 1169.5,-81 1169.5,-62 1017.5,-62"/>
<text text-anchor="middle" x="1093.5" y="-69" font-family="Helvetica,sans-Serif" font-size="10.00">impl/hdf5_core_general.hpp</text>
</a>
</g>
</g>
<!-- Node6&#45;&gt;Node23 -->
<g id="edge25" class="edge">
<title>Node6&#45;&gt;Node23</title>
<path fill="none" stroke="midnightblue" d="M1323.28,-123.48C1268.83,-111.4 1191.38,-94.21 1141.78,-83.21"/>
<polygon fill="midnightblue" stroke="midnightblue" points="1142.47,-79.78 1131.94,-81.03 1140.95,-86.61 1142.47,-79.78"/>
</g>
<!-- Node24&#45;&gt;Node20 -->
<g id="edge27" class="edge">
<title>Node24&#45;&gt;Node20</title>
<path fill="none" stroke="midnightblue" d="M191.19,-128.73C200.16,-118.5 215.19,-101.36 226.3,-88.69"/>
<polygon fill="midnightblue" stroke="midnightblue" points="228.97,-90.95 232.93,-81.13 223.71,-86.34 228.97,-90.95"/>
</g>
<!-- Node25 -->
<g id="node25" class="node">
<title>Node25</title>
<g id="a_node25"><a xlink:href="datatype_8h.html" target="_top" xlink:title=" ">
<polygon fill="none" stroke="black" points="0,-62 0,-81 69,-81 69,-62 0,-62"/>
<text text-anchor="middle" x="34.5" y="-69" font-family="Helvetica,sans-Serif" font-size="10.00">datatype.h</text>
</a>
</g>
</g>
<!-- Node24&#45;&gt;Node25 -->
<g id="edge28" class="edge">
<title>Node24&#45;&gt;Node25</title>
<path fill="none" stroke="midnightblue" d="M163.71,-128.87C138.11,-117.7 93.29,-98.15 63.75,-85.26"/>
<polygon fill="midnightblue" stroke="midnightblue" points="64.93,-81.96 54.37,-81.17 62.13,-88.37 64.93,-81.96"/>
</g>
<!-- Node26 -->
<g id="node26" class="node">
<title>Node26</title>
<g id="a_node26"><a xlink:href="timestamp_8h.html" target="_top" xlink:title=" ">
<polygon fill="none" stroke="black" points="87,-62 87,-81 166,-81 166,-62 87,-62"/>
<text text-anchor="middle" x="126.5" y="-69" font-family="Helvetica,sans-Serif" font-size="10.00">timestamp.h</text>
</a>
</g>
</g>
<!-- Node24&#45;&gt;Node26 -->
<g id="edge29" class="edge">
<title>Node24&#45;&gt;Node26</title>
<path fill="none" stroke="midnightblue" d="M175.81,-128.73C166.84,-118.5 151.81,-101.36 140.7,-88.69"/>
<polygon fill="midnightblue" stroke="midnightblue" points="143.29,-86.34 134.07,-81.13 138.03,-90.95 143.29,-86.34"/>
</g>
<!-- Node27 -->
<g id="node27" class="node">
<title>Node27</title>
<g id="a_node27"><a xlink:title=" ">
<polygon fill="none" stroke="#bfbfbf" points="94,-0.5 94,-19.5 159,-19.5 159,-0.5 94,-0.5"/>
<text text-anchor="middle" x="126.5" y="-7.5" font-family="Helvetica,sans-Serif" font-size="10.00">functional</text>
</a>
</g>
</g>
<!-- Node26&#45;&gt;Node27 -->
<g id="edge30" class="edge">
<title>Node26&#45;&gt;Node27</title>
<path fill="none" stroke="midnightblue" d="M126.5,-61.98C126.5,-53.58 126.5,-40.48 126.5,-29.66"/>
<polygon fill="midnightblue" stroke="midnightblue" points="130,-29.51 126.5,-19.51 123,-29.51 130,-29.51"/>
</g>
<!-- Node30&#45;&gt;Node8 -->
<g id="edge34" class="edge">
<title>Node30&#45;&gt;Node8</title>
<path fill="none" stroke="midnightblue" d="M1107.78,-126.63C1099.97,-125.31 1092.05,-124.05 1084.5,-123 925.94,-100.87 881.85,-111.39 720.32,-87.17"/>
<polygon fill="midnightblue" stroke="midnightblue" points="720.43,-83.65 710.01,-85.61 719.37,-90.57 720.43,-83.65"/>
</g>
<!-- Node30&#45;&gt;Node14 -->
<g id="edge36" class="edge">
<title>Node30&#45;&gt;Node14</title>
<path fill="none" stroke="midnightblue" d="M1221.04,-131.28C1248.86,-128.41 1282.91,-125.16 1313.5,-123 1495.45,-110.16 1955.06,-124.79 2133.5,-87 2136.51,-86.36 2139.59,-85.51 2142.63,-84.53"/>
<polygon fill="midnightblue" stroke="midnightblue" points="2143.84,-87.81 2152.05,-81.11 2141.45,-81.23 2143.84,-87.81"/>
</g>
<!-- Node30&#45;&gt;Node20 -->
<g id="edge35" class="edge">
<title>Node30&#45;&gt;Node20</title>
<path fill="none" stroke="midnightblue" d="M1107.83,-130.47C1084.8,-127.81 1057.91,-124.95 1033.5,-123 711.02,-97.19 627.16,-129.86 306.5,-87 299.23,-86.03 291.56,-84.66 284.14,-83.16"/>
<polygon fill="midnightblue" stroke="midnightblue" points="284.73,-79.71 274.22,-81.04 283.27,-86.55 284.73,-79.71"/>
</g>
<!-- Node31&#45;&gt;Node2 -->
<g id="edge48" class="edge">
<title>Node31&#45;&gt;Node2</title>
<path fill="none" stroke="midnightblue" d="M2196.9,-198.57C2024.3,-196.85 1484.26,-188.75 1313.5,-154 1274.5,-146.06 1268.51,-130.88 1229.5,-123 882.81,-52.94 785.02,-134.26 434.5,-87 427.52,-86.06 420.18,-84.73 413.06,-83.25"/>
<polygon fill="midnightblue" stroke="midnightblue" points="413.37,-79.73 402.86,-81 411.87,-86.57 413.37,-79.73"/>
</g>
<!-- Node31&#45;&gt;Node6 -->
<g id="edge49" class="edge">
<title>Node31&#45;&gt;Node6</title>
<path fill="none" stroke="midnightblue" d="M2196.78,-195.3C2048.2,-185.07 1631.48,-156.37 1460.81,-144.62"/>
<polygon fill="midnightblue" stroke="midnightblue" points="1460.88,-141.11 1450.66,-143.92 1460.4,-148.1 1460.88,-141.11"/>
</g>
<!-- Node31&#45;&gt;Node12 -->
<g id="edge50" class="edge">
<title>Node31&#45;&gt;Node12</title>
<path fill="none" stroke="midnightblue" d="M2304.43,-198.57C2355.93,-196.04 2434.25,-186.5 2493.5,-154 2521.8,-138.48 2545.49,-108.58 2558.56,-89.63"/>
<polygon fill="midnightblue" stroke="midnightblue" points="2561.62,-91.35 2564.25,-81.09 2555.79,-87.47 2561.62,-91.35"/>
</g>
<!-- Node31&#45;&gt;Node14 -->
<g id="edge52" class="edge">
<title>Node31&#45;&gt;Node14</title>
<path fill="none" stroke="midnightblue" d="M2236.76,-190.2C2225.09,-182.08 2208.66,-169.04 2198.5,-154 2185.38,-134.58 2177.83,-108.4 2173.95,-91.01"/>
<polygon fill="midnightblue" stroke="midnightblue" points="2177.34,-90.11 2171.9,-81.01 2170.48,-91.51 2177.34,-90.11"/>
</g>
<!-- Node31&#45;&gt;Node16 -->
<g id="edge53" class="edge">
<title>Node31&#45;&gt;Node16</title>
<path fill="none" stroke="midnightblue" d="M2238,-190.3C2227.63,-182.25 2213.61,-169.24 2207.5,-154 2202.37,-141.21 2200.78,-135.03 2207.5,-123 2215.12,-109.35 2228.12,-98.93 2241.55,-91.21"/>
<polygon fill="midnightblue" stroke="midnightblue" points="2243.19,-94.3 2250.38,-86.52 2239.91,-88.12 2243.19,-94.3"/>
</g>
<!-- Node31&#45;&gt;Node17 -->
<g id="edge54" class="edge">
<title>Node31&#45;&gt;Node17</title>
<path fill="none" stroke="midnightblue" d="M2258.4,-190.11C2272.25,-174.9 2302.34,-143.54 2332.5,-123 2355.41,-107.4 2383.87,-94.03 2405.38,-84.98"/>
<polygon fill="midnightblue" stroke="midnightblue" points="2406.82,-88.17 2414.73,-81.13 2404.15,-81.7 2406.82,-88.17"/>
</g>
<!-- Node32 -->
<g id="node32" class="node">
<title>Node32</title>
<g id="a_node32"><a xlink:title=" ">
<polygon fill="none" stroke="#bfbfbf" points="2216.5,-129 2216.5,-148 2284.5,-148 2284.5,-129 2216.5,-129"/>
<text text-anchor="middle" x="2250.5" y="-136" font-family="Helvetica,sans-Serif" font-size="10.00">filesystem</text>
</a>
</g>
</g>
<!-- Node31&#45;&gt;Node32 -->
<g id="edge51" class="edge">
<title>Node31&#45;&gt;Node32</title>
<path fill="none" stroke="midnightblue" d="M2250.5,-190.48C2250.5,-182.08 2250.5,-168.98 2250.5,-158.16"/>
<polygon fill="midnightblue" stroke="midnightblue" points="2254,-158.01 2250.5,-148.01 2247,-158.01 2254,-158.01"/>
</g>
<!-- Node33 -->
<g id="node33" class="node">
<title>Node33</title>
<g id="a_node33"><a xlink:title=" ">
<polygon fill="none" stroke="#bfbfbf" points="2341,-129 2341,-148 2484,-148 2484,-129 2341,-129"/>
<text text-anchor="middle" x="2412.5" y="-136" font-family="Helvetica,sans-Serif" font-size="10.00">impl/hdf5_py_general.hpp</text>
</a>
</g>
</g>
<!-- Node31&#45;&gt;Node33 -->
<g id="edge55" class="edge">
<title>Node31&#45;&gt;Node33</title>
<path fill="none" stroke="midnightblue" d="M2273.71,-190.48C2301.5,-180.27 2348.22,-163.11 2379.69,-151.55"/>
<polygon fill="midnightblue" stroke="midnightblue" points="2381.15,-154.74 2389.33,-148.01 2378.74,-148.17 2381.15,-154.74"/>
</g>
</g>
</svg>
