<?xml version="1.0" encoding="UTF-8" standalone="no"?>
<!DOCTYPE svg PUBLIC "-//W3C//DTD SVG 1.1//EN"
 "http://www.w3.org/Graphics/SVG/1.1/DTD/svg11.dtd">
<!-- Generated by graphviz version 2.43.0 (0)
 -->
<!-- Title: seerep&#45;hdf5/seerep&#45;hdf5&#45;pb/src/hdf5&#45;pb&#45;pointcloud.cpp Pages: 1 -->
<svg width="2670pt" height="340pt"
 viewBox="0.00 0.00 2670.00 340.00" xmlns="http://www.w3.org/2000/svg" xmlns:xlink="http://www.w3.org/1999/xlink">
<g id="graph0" class="graph" transform="scale(1 1) rotate(0) translate(4 336)">
<title>seerep&#45;hdf5/seerep&#45;hdf5&#45;pb/src/hdf5&#45;pb&#45;pointcloud.cpp</title>
<!-- Node1 -->
<g id="node1" class="node">
<title>Node1</title>
<g id="a_node1"><a xlink:title=" ">
<polygon fill="#bfbfbf" stroke="black" points="1178,-290.5 1178,-331.5 1294,-331.5 1294,-290.5 1178,-290.5"/>
<text text-anchor="start" x="1186" y="-319.5" font-family="Helvetica,sans-Serif" font-size="10.00">seerep&#45;hdf5/seerep</text>
<text text-anchor="start" x="1186" y="-308.5" font-family="Helvetica,sans-Serif" font-size="10.00">&#45;hdf5&#45;pb/src/hdf5&#45;pb</text>
<text text-anchor="middle" x="1236" y="-297.5" font-family="Helvetica,sans-Serif" font-size="10.00">&#45;pointcloud.cpp</text>
</a>
</g>
</g>
<!-- Node2 -->
<g id="node2" class="node">
<title>Node2</title>
<g id="a_node2"><a xlink:href="hdf5-pb-pointcloud_8h.html" target="_top" xlink:title=" ">
<polygon fill="none" stroke="black" points="1107,-223.5 1107,-253.5 1223,-253.5 1223,-223.5 1107,-223.5"/>
<text text-anchor="start" x="1115" y="-241.5" font-family="Helvetica,sans-Serif" font-size="10.00">seerep&#45;hdf5&#45;pb/hdf5</text>
<text text-anchor="middle" x="1165" y="-230.5" font-family="Helvetica,sans-Serif" font-size="10.00">&#45;pb&#45;pointcloud.h</text>
</a>
</g>
</g>
<!-- Node1&#45;&gt;Node2 -->
<g id="edge1" class="edge">
<title>Node1&#45;&gt;Node2</title>
<path fill="none" stroke="midnightblue" d="M1216.22,-290.36C1207.03,-281.23 1196.07,-270.35 1186.65,-261"/>
<polygon fill="midnightblue" stroke="midnightblue" points="1189.06,-258.45 1179.49,-253.89 1184.12,-263.42 1189.06,-258.45"/>
</g>
<!-- Node36 -->
<g id="node36" class="node">
<title>Node36</title>
<g id="a_node36"><a xlink:title=" ">
<polygon fill="none" stroke="#bfbfbf" points="1241,-229 1241,-248 1373,-248 1373,-229 1241,-229"/>
<text text-anchor="middle" x="1307" y="-236" font-family="Helvetica,sans-Serif" font-size="10.00">highfive/H5DataSet.hpp</text>
</a>
</g>
</g>
<!-- Node1&#45;&gt;Node36 -->
<g id="edge57" class="edge">
<title>Node1&#45;&gt;Node36</title>
<path fill="none" stroke="midnightblue" d="M1255.78,-290.36C1266.89,-279.32 1280.59,-265.72 1291.02,-255.37"/>
<polygon fill="midnightblue" stroke="midnightblue" points="1293.64,-257.7 1298.27,-248.17 1288.7,-252.74 1293.64,-257.7"/>
</g>
<!-- Node3 -->
<g id="node3" class="node">
<title>Node3</title>
<g id="a_node3"><a xlink:title=" ">
<polygon fill="none" stroke="#bfbfbf" points="981,-11.5 981,-30.5 1091,-30.5 1091,-11.5 981,-11.5"/>
<text text-anchor="middle" x="1036" y="-18.5" font-family="Helvetica,sans-Serif" font-size="10.00">highfive/H5File.hpp</text>
</a>
</g>
</g>
<!-- Node2&#45;&gt;Node3 -->
<g id="edge2" class="edge">
<title>Node2&#45;&gt;Node3</title>
<path fill="none" stroke="midnightblue" d="M1107.99,-223.46C1057.3,-207.62 986.21,-176.38 953,-120 943.53,-103.92 944.24,-94.48 953,-78 963.56,-58.13 984.66,-44.04 1002.94,-34.96"/>
<polygon fill="midnightblue" stroke="midnightblue" points="1004.59,-38.06 1012.18,-30.67 1001.63,-31.71 1004.59,-38.06"/>
</g>
<!-- Node4 -->
<g id="node4" class="node">
<title>Node4</title>
<g id="a_node4"><a xlink:href="hdf5-core-point-cloud_8h.html" target="_top" xlink:title=" ">
<polygon fill="none" stroke="black" points="607.5,-156.5 607.5,-186.5 732.5,-186.5 732.5,-156.5 607.5,-156.5"/>
<text text-anchor="start" x="615.5" y="-174.5" font-family="Helvetica,sans-Serif" font-size="10.00">seerep&#45;hdf5&#45;core/hdf5</text>
<text text-anchor="middle" x="670" y="-163.5" font-family="Helvetica,sans-Serif" font-size="10.00">&#45;core&#45;point&#45;cloud.h</text>
</a>
</g>
</g>
<!-- Node2&#45;&gt;Node4 -->
<g id="edge3" class="edge">
<title>Node2&#45;&gt;Node4</title>
<path fill="none" stroke="midnightblue" d="M1106.76,-229.85C1016.18,-217.96 841.69,-195.04 742.88,-182.07"/>
<polygon fill="midnightblue" stroke="midnightblue" points="743.05,-178.56 732.68,-180.73 742.14,-185.5 743.05,-178.56"/>
</g>
<!-- Node8 -->
<g id="node8" class="node">
<title>Node8</title>
<g id="a_node8"><a xlink:title=" ">
<polygon fill="none" stroke="#bfbfbf" points="0,-11.5 0,-30.5 56,-30.5 56,-11.5 0,-11.5"/>
<text text-anchor="middle" x="28" y="-18.5" font-family="Helvetica,sans-Serif" font-size="10.00">optional</text>
</a>
</g>
</g>
<!-- Node2&#45;&gt;Node8 -->
<g id="edge56" class="edge">
<title>Node2&#45;&gt;Node8</title>
<path fill="none" stroke="midnightblue" d="M1106.81,-234.55C893.23,-223.27 160.4,-180.45 76,-120 49.52,-101.03 36.95,-63.33 31.56,-40.62"/>
<polygon fill="midnightblue" stroke="midnightblue" points="34.92,-39.6 29.41,-30.56 28.08,-41.07 34.92,-39.6"/>
</g>
<!-- Node13 -->
<g id="node13" class="node">
<title>Node13</title>
<g id="a_node13"><a xlink:title=" ">
<polygon fill="none" stroke="#bfbfbf" points="1837.5,-11.5 1837.5,-30.5 1950.5,-30.5 1950.5,-11.5 1837.5,-11.5"/>
<text text-anchor="middle" x="1894" y="-18.5" font-family="Helvetica,sans-Serif" font-size="10.00">boost/geometry.hpp</text>
</a>
</g>
</g>
<!-- Node2&#45;&gt;Node13 -->
<g id="edge55" class="edge">
<title>Node2&#45;&gt;Node13</title>
<path fill="none" stroke="midnightblue" d="M1161.49,-223.42C1154.62,-192.06 1143.34,-116.18 1184,-78 1236.24,-28.94 1757.43,-54.48 1828,-42 1838.99,-40.06 1850.73,-36.88 1861.21,-33.62"/>
<polygon fill="midnightblue" stroke="midnightblue" points="1862.38,-36.92 1870.81,-30.51 1860.22,-30.26 1862.38,-36.92"/>
</g>
<!-- Node23 -->
<g id="node23" class="node">
<title>Node23</title>
<g id="a_node23"><a xlink:href="hdf5-pb-general_8h.html" target="_top" xlink:title=" ">
<polygon fill="none" stroke="black" points="1555,-156.5 1555,-186.5 1671,-186.5 1671,-156.5 1555,-156.5"/>
<text text-anchor="start" x="1563" y="-174.5" font-family="Helvetica,sans-Serif" font-size="10.00">seerep&#45;hdf5&#45;pb/hdf5</text>
<text text-anchor="middle" x="1613" y="-163.5" font-family="Helvetica,sans-Serif" font-size="10.00">&#45;pb&#45;general.h</text>
</a>
</g>
</g>
<!-- Node2&#45;&gt;Node23 -->
<g id="edge35" class="edge">
<title>Node2&#45;&gt;Node23</title>
<path fill="none" stroke="midnightblue" d="M1223.05,-224.63C1226.07,-224.06 1229.07,-223.51 1232,-223 1340.83,-204.04 1468.26,-188.48 1544.7,-179.86"/>
<polygon fill="midnightblue" stroke="midnightblue" points="1545.14,-183.33 1554.68,-178.74 1544.35,-176.37 1545.14,-183.33"/>
</g>
<!-- Node30 -->
<g id="node30" class="node">
<title>Node30</title>
<g id="a_node30"><a xlink:href="hdf5-pb-point-cloud2-iterator_8h.html" target="_top" xlink:title=" ">
<polygon fill="none" stroke="black" points="2350.5,-156.5 2350.5,-186.5 2495.5,-186.5 2495.5,-156.5 2350.5,-156.5"/>
<text text-anchor="start" x="2358.5" y="-174.5" font-family="Helvetica,sans-Serif" font-size="10.00">seerep&#45;hdf5&#45;pb/hdf5</text>
<text text-anchor="middle" x="2423" y="-163.5" font-family="Helvetica,sans-Serif" font-size="10.00">&#45;pb&#45;point&#45;cloud2&#45;iterator.h</text>
</a>
</g>
</g>
<!-- Node2&#45;&gt;Node30 -->
<g id="edge48" class="edge">
<title>Node2&#45;&gt;Node30</title>
<path fill="none" stroke="midnightblue" d="M1223.36,-224.26C1226.28,-223.79 1229.17,-223.36 1232,-223 1340.95,-209 2088.34,-183.49 2340.28,-175.19"/>
<polygon fill="midnightblue" stroke="midnightblue" points="2340.59,-178.68 2350.47,-174.85 2340.36,-171.68 2340.59,-178.68"/>
</g>
<!-- Node31 -->
<g id="node31" class="node">
<title>Node31</title>
<g id="a_node31"><a xlink:title=" ">
<polygon fill="none" stroke="#bfbfbf" points="2193.5,-84 2193.5,-114 2332.5,-114 2332.5,-84 2193.5,-84"/>
<text text-anchor="start" x="2201.5" y="-102" font-family="Helvetica,sans-Serif" font-size="10.00">seerep&#45;msgs/point_cloud</text>
<text text-anchor="middle" x="2263" y="-91" font-family="Helvetica,sans-Serif" font-size="10.00">_2.pb.h</text>
</a>
</g>
</g>
<!-- Node2&#45;&gt;Node31 -->
<g id="edge54" class="edge">
<title>Node2&#45;&gt;Node31</title>
<path fill="none" stroke="midnightblue" d="M1223.02,-224.45C1226.05,-223.92 1229.06,-223.43 1232,-223 1429.61,-193.81 1481.5,-209.32 1680,-187 1886.62,-163.77 1937.55,-151.98 2143,-120 2155.97,-117.98 2169.72,-115.76 2183.1,-113.56"/>
<polygon fill="midnightblue" stroke="midnightblue" points="2183.95,-116.97 2193.24,-111.89 2182.8,-110.06 2183.95,-116.97"/>
</g>
<!-- Node4&#45;&gt;Node3 -->
<g id="edge4" class="edge">
<title>Node4&#45;&gt;Node3</title>
<path fill="none" stroke="midnightblue" d="M705.95,-156.39C731.22,-146.41 765.76,-132.6 796,-120 839.36,-101.93 849.57,-95.9 893,-78 930.71,-62.46 974.41,-45.5 1003.48,-34.36"/>
<polygon fill="midnightblue" stroke="midnightblue" points="1005.02,-37.52 1013.12,-30.68 1002.52,-30.98 1005.02,-37.52"/>
</g>
<!-- Node5 -->
<g id="node5" class="node">
<title>Node5</title>
<g id="a_node5"><a xlink:href="hdf5-core-datatype-interface_8h.html" target="_top" xlink:title=" ">
<polygon fill="none" stroke="black" points="188.5,-84 188.5,-114 333.5,-114 333.5,-84 188.5,-84"/>
<text text-anchor="start" x="196.5" y="-102" font-family="Helvetica,sans-Serif" font-size="10.00">seerep&#45;hdf5&#45;core/hdf5</text>
<text text-anchor="middle" x="261" y="-91" font-family="Helvetica,sans-Serif" font-size="10.00">&#45;core&#45;datatype&#45;interface.h</text>
</a>
</g>
</g>
<!-- Node4&#45;&gt;Node5 -->
<g id="edge5" class="edge">
<title>Node4&#45;&gt;Node5</title>
<path fill="none" stroke="midnightblue" d="M607.44,-159.72C536.87,-147.55 421.81,-127.72 343.84,-114.28"/>
<polygon fill="midnightblue" stroke="midnightblue" points="344.01,-110.76 333.56,-112.51 342.82,-117.66 344.01,-110.76"/>
</g>
<!-- Node6 -->
<g id="node6" class="node">
<title>Node6</title>
<g id="a_node6"><a xlink:title=" ">
<polygon fill="none" stroke="#bfbfbf" points="205.5,-6 205.5,-36 324.5,-36 324.5,-6 205.5,-6"/>
<text text-anchor="start" x="213.5" y="-24" font-family="Helvetica,sans-Serif" font-size="10.00">seerep&#45;msgs/dataset</text>
<text text-anchor="middle" x="265" y="-13" font-family="Helvetica,sans-Serif" font-size="10.00">&#45;indexable.h</text>
</a>
</g>
</g>
<!-- Node4&#45;&gt;Node6 -->
<g id="edge27" class="edge">
<title>Node4&#45;&gt;Node6</title>
<path fill="none" stroke="midnightblue" d="M619.89,-156.43C587.64,-147 544.98,-133.81 508,-120 464.37,-103.71 455.11,-95.63 412,-78 379.07,-64.53 341.59,-50.27 312.71,-39.51"/>
<polygon fill="midnightblue" stroke="midnightblue" points="313.86,-36.2 303.27,-36 311.43,-42.76 313.86,-36.2"/>
</g>
<!-- Node7 -->
<g id="node7" class="node">
<title>Node7</title>
<g id="a_node7"><a xlink:title=" ">
<polygon fill="none" stroke="#bfbfbf" points="74.5,-11.5 74.5,-30.5 187.5,-30.5 187.5,-11.5 74.5,-11.5"/>
<text text-anchor="middle" x="131" y="-18.5" font-family="Helvetica,sans-Serif" font-size="10.00">boost/uuid/uuid.hpp</text>
</a>
</g>
</g>
<!-- Node4&#45;&gt;Node7 -->
<g id="edge32" class="edge">
<title>Node4&#45;&gt;Node7</title>
<path fill="none" stroke="midnightblue" d="M607.33,-164.39C554.02,-157.76 476.12,-144.64 412,-120 378.13,-106.99 375.54,-91.83 342,-78 280.21,-52.52 260.41,-59.83 196,-42 186.64,-39.41 176.59,-36.42 167.25,-33.55"/>
<polygon fill="midnightblue" stroke="midnightblue" points="168.05,-30.14 157.47,-30.52 165.98,-36.82 168.05,-30.14"/>
</g>
<!-- Node4&#45;&gt;Node8 -->
<g id="edge29" class="edge">
<title>Node4&#45;&gt;Node8</title>
<path fill="none" stroke="midnightblue" d="M607.09,-169.36C485.22,-166.36 221.63,-155.82 139,-120 96.96,-101.78 59.66,-61.43 40.87,-38.59"/>
<polygon fill="midnightblue" stroke="midnightblue" points="43.59,-36.39 34.6,-30.78 38.13,-40.77 43.59,-36.39"/>
</g>
<!-- Node9 -->
<g id="node9" class="node">
<title>Node9</title>
<g id="a_node9"><a xlink:href="hdf5-core-general_8h.html" target="_top" xlink:title=" ">
<polygon fill="none" stroke="black" points="973.5,-84 973.5,-114 1098.5,-114 1098.5,-84 973.5,-84"/>
<text text-anchor="start" x="981.5" y="-102" font-family="Helvetica,sans-Serif" font-size="10.00">seerep&#45;hdf5&#45;core/hdf5</text>
<text text-anchor="middle" x="1036" y="-91" font-family="Helvetica,sans-Serif" font-size="10.00">&#45;core&#45;general.h</text>
</a>
</g>
</g>
<!-- Node4&#45;&gt;Node9 -->
<g id="edge9" class="edge">
<title>Node4&#45;&gt;Node9</title>
<path fill="none" stroke="midnightblue" d="M732.5,-158.46C796.49,-146.14 895.86,-126.99 963.32,-114"/>
<polygon fill="midnightblue" stroke="midnightblue" points="964.29,-117.38 973.45,-112.05 962.97,-110.5 964.29,-117.38"/>
</g>
<!-- Node4&#45;&gt;Node13 -->
<g id="edge28" class="edge">
<title>Node4&#45;&gt;Node13</title>
<path fill="none" stroke="midnightblue" d="M732.78,-168.14C837.34,-163.4 1042.09,-150.45 1107,-120 1131.48,-108.52 1126.18,-88.72 1151,-78 1289.31,-18.27 1679.61,-68.03 1828,-42 1838.99,-40.07 1850.73,-36.9 1861.21,-33.64"/>
<polygon fill="midnightblue" stroke="midnightblue" points="1862.38,-36.94 1870.81,-30.52 1860.22,-30.28 1862.38,-36.94"/>
</g>
<!-- Node18 -->
<g id="node18" class="node">
<title>Node18</title>
<g id="a_node18"><a xlink:title=" ">
<polygon fill="none" stroke="#bfbfbf" points="342.5,-11.5 342.5,-30.5 485.5,-30.5 485.5,-11.5 342.5,-11.5"/>
<text text-anchor="middle" x="414" y="-18.5" font-family="Helvetica,sans-Serif" font-size="10.00">boost/functional/hash.hpp</text>
</a>
</g>
</g>
<!-- Node4&#45;&gt;Node18 -->
<g id="edge30" class="edge">
<title>Node4&#45;&gt;Node18</title>
<path fill="none" stroke="midnightblue" d="M645.45,-156.26C596.29,-127.75 486.33,-63.96 437.8,-35.8"/>
<polygon fill="midnightblue" stroke="midnightblue" points="439.35,-32.66 428.94,-30.67 435.84,-38.71 439.35,-32.66"/>
</g>
<!-- Node19 -->
<g id="node19" class="node">
<title>Node19</title>
<g id="a_node19"><a xlink:title=" ">
<polygon fill="none" stroke="#bfbfbf" points="503.5,-11.5 503.5,-30.5 628.5,-30.5 628.5,-11.5 503.5,-11.5"/>
<text text-anchor="middle" x="566" y="-18.5" font-family="Helvetica,sans-Serif" font-size="10.00">boost/lexical_cast.hpp</text>
</a>
</g>
</g>
<!-- Node4&#45;&gt;Node19 -->
<g id="edge31" class="edge">
<title>Node4&#45;&gt;Node19</title>
<path fill="none" stroke="midnightblue" d="M660.03,-156.26C640.85,-128.88 598.9,-68.98 578.14,-39.33"/>
<polygon fill="midnightblue" stroke="midnightblue" points="580.8,-37.03 572.2,-30.85 575.07,-41.05 580.8,-37.03"/>
</g>
<!-- Node20 -->
<g id="node20" class="node">
<title>Node20</title>
<g id="a_node20"><a xlink:title=" ">
<polygon fill="none" stroke="#bfbfbf" points="647,-11.5 647,-30.5 817,-30.5 817,-11.5 647,-11.5"/>
<text text-anchor="middle" x="732" y="-18.5" font-family="Helvetica,sans-Serif" font-size="10.00">boost/uuid/uuid_generators.hpp</text>
</a>
</g>
</g>
<!-- Node4&#45;&gt;Node20 -->
<g id="edge33" class="edge">
<title>Node4&#45;&gt;Node20</title>
<path fill="none" stroke="midnightblue" d="M675.94,-156.26C687.28,-129.12 711.95,-70.01 724.44,-40.11"/>
<polygon fill="midnightblue" stroke="midnightblue" points="727.68,-41.42 728.31,-30.85 721.22,-38.73 727.68,-41.42"/>
</g>
<!-- Node21 -->
<g id="node21" class="node">
<title>Node21</title>
<g id="a_node21"><a xlink:title=" ">
<polygon fill="none" stroke="#bfbfbf" points="835.5,-11.5 835.5,-30.5 962.5,-30.5 962.5,-11.5 835.5,-11.5"/>
<text text-anchor="middle" x="899" y="-18.5" font-family="Helvetica,sans-Serif" font-size="10.00">boost/uuid/uuid_io.hpp</text>
</a>
</g>
</g>
<!-- Node4&#45;&gt;Node21 -->
<g id="edge34" class="edge">
<title>Node4&#45;&gt;Node21</title>
<path fill="none" stroke="midnightblue" d="M691.96,-156.26C735.75,-127.86 833.48,-64.49 877.17,-36.16"/>
<polygon fill="midnightblue" stroke="midnightblue" points="879.15,-39.05 885.63,-30.67 875.34,-33.17 879.15,-39.05"/>
</g>
<!-- Node5&#45;&gt;Node6 -->
<g id="edge6" class="edge">
<title>Node5&#45;&gt;Node6</title>
<path fill="none" stroke="midnightblue" d="M261.75,-83.7C262.31,-73.2 263.07,-58.66 263.72,-46.33"/>
<polygon fill="midnightblue" stroke="midnightblue" points="267.22,-46.4 264.25,-36.23 260.23,-46.03 267.22,-46.4"/>
</g>
<!-- Node5&#45;&gt;Node7 -->
<g id="edge7" class="edge">
<title>Node5&#45;&gt;Node7</title>
<path fill="none" stroke="midnightblue" d="M236.85,-83.88C213.36,-70.15 177.9,-49.42 154.6,-35.8"/>
<polygon fill="midnightblue" stroke="midnightblue" points="156.12,-32.63 145.72,-30.61 152.59,-38.67 156.12,-32.63"/>
</g>
<!-- Node5&#45;&gt;Node8 -->
<g id="edge8" class="edge">
<title>Node5&#45;&gt;Node8</title>
<path fill="none" stroke="midnightblue" d="M198.93,-83.94C159.79,-74.18 108.59,-59.76 65,-42 60.34,-40.1 55.51,-37.78 50.94,-35.39"/>
<polygon fill="midnightblue" stroke="midnightblue" points="52.51,-32.26 42.06,-30.53 49.15,-38.4 52.51,-32.26"/>
</g>
<!-- Node9&#45;&gt;Node3 -->
<g id="edge10" class="edge">
<title>Node9&#45;&gt;Node3</title>
<path fill="none" stroke="midnightblue" d="M1036,-83.7C1036,-71.6 1036,-54.15 1036,-40.89"/>
<polygon fill="midnightblue" stroke="midnightblue" points="1039.5,-40.56 1036,-30.56 1032.5,-40.56 1039.5,-40.56"/>
</g>
<!-- Node9&#45;&gt;Node6 -->
<g id="edge12" class="edge">
<title>Node9&#45;&gt;Node6</title>
<path fill="none" stroke="midnightblue" d="M973.37,-97.33C849.85,-95.07 566.57,-85.17 333,-42 327.99,-41.07 322.81,-39.92 317.66,-38.64"/>
<polygon fill="midnightblue" stroke="midnightblue" points="318.4,-35.22 307.84,-36.06 316.62,-41.99 318.4,-35.22"/>
</g>
<!-- Node9&#45;&gt;Node7 -->
<g id="edge23" class="edge">
<title>Node9&#45;&gt;Node7</title>
<path fill="none" stroke="midnightblue" d="M973.48,-98.75C833.14,-99.38 482.92,-94.96 196,-42 185.38,-40.04 174.04,-36.92 163.86,-33.73"/>
<polygon fill="midnightblue" stroke="midnightblue" points="164.73,-30.33 154.14,-30.55 162.56,-36.99 164.73,-30.33"/>
</g>
<!-- Node9&#45;&gt;Node8 -->
<g id="edge17" class="edge">
<title>Node9&#45;&gt;Node8</title>
<path fill="none" stroke="midnightblue" d="M973.19,-95.96C772.04,-89.23 151.9,-66.67 65,-42 59.78,-40.52 54.47,-38.21 49.56,-35.68"/>
<polygon fill="midnightblue" stroke="midnightblue" points="51.18,-32.58 40.76,-30.7 47.74,-38.67 51.18,-32.58"/>
</g>
<!-- Node10 -->
<g id="node10" class="node">
<title>Node10</title>
<g id="a_node10"><a xlink:title=" ">
<polygon fill="none" stroke="#bfbfbf" points="1703,-11.5 1703,-30.5 1819,-30.5 1819,-11.5 1703,-11.5"/>
<text text-anchor="middle" x="1761" y="-18.5" font-family="Helvetica,sans-Serif" font-size="10.00">seerep&#45;msgs/aabb.h</text>
</a>
</g>
</g>
<!-- Node9&#45;&gt;Node10 -->
<g id="edge11" class="edge">
<title>Node9&#45;&gt;Node10</title>
<path fill="none" stroke="midnightblue" d="M1084.17,-83.98C1093.66,-81.64 1103.59,-79.5 1113,-78 1368.49,-37.29 1439.28,-87.3 1694,-42 1705.05,-40.04 1716.86,-36.88 1727.43,-33.65"/>
<polygon fill="midnightblue" stroke="midnightblue" points="1728.66,-36.94 1737.13,-30.57 1726.54,-30.26 1728.66,-36.94"/>
</g>
<!-- Node11 -->
<g id="node11" class="node">
<title>Node11</title>
<g id="a_node11"><a xlink:title=" ">
<polygon fill="none" stroke="#bfbfbf" points="1109.5,-6 1109.5,-36 1234.5,-36 1234.5,-6 1109.5,-6"/>
<text text-anchor="start" x="1117.5" y="-24" font-family="Helvetica,sans-Serif" font-size="10.00">seerep&#45;msgs/geodetic</text>
<text text-anchor="middle" x="1172" y="-13" font-family="Helvetica,sans-Serif" font-size="10.00">&#45;coordinates.h</text>
</a>
</g>
</g>
<!-- Node9&#45;&gt;Node11 -->
<g id="edge13" class="edge">
<title>Node9&#45;&gt;Node11</title>
<path fill="none" stroke="midnightblue" d="M1061.26,-83.88C1082.83,-71.83 1114.04,-54.39 1137.83,-41.1"/>
<polygon fill="midnightblue" stroke="midnightblue" points="1139.85,-43.97 1146.87,-36.04 1136.44,-37.86 1139.85,-43.97"/>
</g>
<!-- Node12 -->
<g id="node12" class="node">
<title>Node12</title>
<g id="a_node12"><a xlink:title=" ">
<polygon fill="none" stroke="#bfbfbf" points="1253,-0.5 1253,-41.5 1365,-41.5 1365,-0.5 1253,-0.5"/>
<text text-anchor="start" x="1261" y="-29.5" font-family="Helvetica,sans-Serif" font-size="10.00">seerep&#45;msgs/labels</text>
<text text-anchor="start" x="1261" y="-18.5" font-family="Helvetica,sans-Serif" font-size="10.00">&#45;with&#45;instance&#45;with</text>
<text text-anchor="middle" x="1309" y="-7.5" font-family="Helvetica,sans-Serif" font-size="10.00">&#45;category.h</text>
</a>
</g>
</g>
<!-- Node9&#45;&gt;Node12 -->
<g id="edge14" class="edge">
<title>Node9&#45;&gt;Node12</title>
<path fill="none" stroke="midnightblue" d="M1089.73,-83.94C1131.59,-72.87 1191.11,-56.88 1243,-42 1243.1,-41.97 1243.2,-41.94 1243.3,-41.91"/>
<polygon fill="midnightblue" stroke="midnightblue" points="1244.24,-45.29 1252.86,-39.14 1242.29,-38.56 1244.24,-45.29"/>
</g>
<!-- Node9&#45;&gt;Node13 -->
<g id="edge15" class="edge">
<title>Node9&#45;&gt;Node13</title>
<path fill="none" stroke="midnightblue" d="M1083.74,-83.99C1093.36,-81.63 1103.44,-79.47 1113,-78 1427.5,-29.75 1514.53,-96.54 1828,-42 1838.99,-40.09 1850.73,-36.92 1861.22,-33.66"/>
<polygon fill="midnightblue" stroke="midnightblue" points="1862.38,-36.96 1870.82,-30.54 1860.22,-30.3 1862.38,-36.96"/>
</g>
<!-- Node14 -->
<g id="node14" class="node">
<title>Node14</title>
<g id="a_node14"><a xlink:title=" ">
<polygon fill="none" stroke="#bfbfbf" points="1383,-11.5 1383,-30.5 1431,-30.5 1431,-11.5 1383,-11.5"/>
<text text-anchor="middle" x="1407" y="-18.5" font-family="Helvetica,sans-Serif" font-size="10.00">mutex</text>
</a>
</g>
</g>
<!-- Node9&#45;&gt;Node14 -->
<g id="edge16" class="edge">
<title>Node9&#45;&gt;Node14</title>
<path fill="none" stroke="midnightblue" d="M1086.75,-83.92C1095.47,-81.76 1104.46,-79.69 1113,-78 1227.87,-55.24 1263.64,-81.16 1374,-42 1378.26,-40.49 1382.57,-38.38 1386.6,-36.1"/>
<polygon fill="midnightblue" stroke="midnightblue" points="1388.72,-38.91 1395.37,-30.66 1385.03,-32.96 1388.72,-38.91"/>
</g>
<!-- Node15 -->
<g id="node15" class="node">
<title>Node15</title>
<g id="a_node15"><a xlink:title=" ">
<polygon fill="none" stroke="#bfbfbf" points="1449.5,-11.5 1449.5,-30.5 1518.5,-30.5 1518.5,-11.5 1449.5,-11.5"/>
<text text-anchor="middle" x="1484" y="-18.5" font-family="Helvetica,sans-Serif" font-size="10.00">type_traits</text>
</a>
</g>
</g>
<!-- Node9&#45;&gt;Node15 -->
<g id="edge18" class="edge">
<title>Node9&#45;&gt;Node15</title>
<path fill="none" stroke="midnightblue" d="M1085.88,-83.93C1094.86,-81.71 1104.17,-79.62 1113,-78 1256.8,-51.55 1299.01,-80.74 1440,-42 1446.37,-40.25 1452.99,-37.68 1459.09,-34.97"/>
<polygon fill="midnightblue" stroke="midnightblue" points="1460.62,-38.12 1468.16,-30.68 1457.62,-31.79 1460.62,-38.12"/>
</g>
<!-- Node16 -->
<g id="node16" class="node">
<title>Node16</title>
<g id="a_node16"><a xlink:title=" ">
<polygon fill="none" stroke="#bfbfbf" points="1968.5,-6 1968.5,-36 2113.5,-36 2113.5,-6 1968.5,-6"/>
<text text-anchor="start" x="1976.5" y="-24" font-family="Helvetica,sans-Serif" font-size="10.00">boost/log/sources/severity</text>
<text text-anchor="middle" x="2041" y="-13" font-family="Helvetica,sans-Serif" font-size="10.00">_logger.hpp</text>
</a>
</g>
</g>
<!-- Node9&#45;&gt;Node16 -->
<g id="edge19" class="edge">
<title>Node9&#45;&gt;Node16</title>
<path fill="none" stroke="midnightblue" d="M1098.51,-88.31C1124.84,-84.55 1155.85,-80.55 1184,-78 1527.41,-46.88 1617.7,-91.08 1959,-42 1965.82,-41.02 1972.9,-39.72 1979.92,-38.26"/>
<polygon fill="midnightblue" stroke="midnightblue" points="1981.1,-41.59 1990.12,-36.02 1979.6,-34.75 1981.1,-41.59"/>
</g>
<!-- Node17 -->
<g id="node17" class="node">
<title>Node17</title>
<g id="a_node17"><a xlink:title=" ">
<polygon fill="none" stroke="#bfbfbf" points="2132,-11.5 2132,-30.5 2246,-30.5 2246,-11.5 2132,-11.5"/>
<text text-anchor="middle" x="2189" y="-18.5" font-family="Helvetica,sans-Serif" font-size="10.00">boost/log/trivial.hpp</text>
</a>
</g>
</g>
<!-- Node9&#45;&gt;Node17 -->
<g id="edge20" class="edge">
<title>Node9&#45;&gt;Node17</title>
<path fill="none" stroke="midnightblue" d="M1098.5,-88.2C1124.83,-84.42 1155.84,-80.44 1184,-78 1600.08,-41.99 1711.12,-111.12 2123,-42 2134.1,-40.14 2145.94,-36.95 2156.48,-33.66"/>
<polygon fill="midnightblue" stroke="midnightblue" points="2157.71,-36.94 2166.13,-30.51 2155.54,-30.28 2157.71,-36.94"/>
</g>
<!-- Node9&#45;&gt;Node18 -->
<g id="edge21" class="edge">
<title>Node9&#45;&gt;Node18</title>
<path fill="none" stroke="midnightblue" d="M973.42,-94.43C872.1,-88.01 666.13,-72.25 494,-42 480.76,-39.67 466.47,-36.36 453.68,-33.1"/>
<polygon fill="midnightblue" stroke="midnightblue" points="454.36,-29.66 443.8,-30.52 452.59,-36.43 454.36,-29.66"/>
</g>
<!-- Node9&#45;&gt;Node19 -->
<g id="edge22" class="edge">
<title>Node9&#45;&gt;Node19</title>
<path fill="none" stroke="midnightblue" d="M973.17,-91.74C894.37,-83.29 755.33,-66.44 638,-42 626.62,-39.63 614.39,-36.47 603.3,-33.36"/>
<polygon fill="midnightblue" stroke="midnightblue" points="604.06,-29.94 593.49,-30.55 602.13,-36.67 604.06,-29.94"/>
</g>
<!-- Node9&#45;&gt;Node20 -->
<g id="edge24" class="edge">
<title>Node9&#45;&gt;Node20</title>
<path fill="none" stroke="midnightblue" d="M979.89,-83.97C921.06,-69.26 829.84,-46.46 776.01,-33"/>
<polygon fill="midnightblue" stroke="midnightblue" points="776.63,-29.55 766.08,-30.52 774.93,-36.34 776.63,-29.55"/>
</g>
<!-- Node9&#45;&gt;Node21 -->
<g id="edge25" class="edge">
<title>Node9&#45;&gt;Node21</title>
<path fill="none" stroke="midnightblue" d="M1010.55,-83.88C985.69,-70.09 948.09,-49.23 923.54,-35.61"/>
<polygon fill="midnightblue" stroke="midnightblue" points="924.96,-32.4 914.51,-30.61 921.56,-38.52 924.96,-32.4"/>
</g>
<!-- Node22 -->
<g id="node22" class="node">
<title>Node22</title>
<g id="a_node22"><a xlink:title=" ">
<polygon fill="none" stroke="#bfbfbf" points="1536.5,-11.5 1536.5,-30.5 1685.5,-30.5 1685.5,-11.5 1536.5,-11.5"/>
<text text-anchor="middle" x="1611" y="-18.5" font-family="Helvetica,sans-Serif" font-size="10.00">impl/hdf5&#45;core&#45;general.hpp</text>
</a>
</g>
</g>
<!-- Node9&#45;&gt;Node22 -->
<g id="edge26" class="edge">
<title>Node9&#45;&gt;Node22</title>
<path fill="none" stroke="midnightblue" d="M1085.03,-83.96C1094.26,-81.69 1103.88,-79.57 1113,-78 1295.02,-46.67 1344.67,-71.47 1527,-42 1541.15,-39.71 1556.45,-36.34 1570.07,-33.02"/>
<polygon fill="midnightblue" stroke="midnightblue" points="1571.25,-36.33 1580.1,-30.51 1569.55,-29.54 1571.25,-36.33"/>
</g>
<!-- Node23&#45;&gt;Node3 -->
<g id="edge36" class="edge">
<title>Node23&#45;&gt;Node3</title>
<path fill="none" stroke="midnightblue" d="M1554.86,-170.37C1403.05,-169.44 1003.69,-162.9 964,-120 951.32,-106.3 955.8,-94.77 964,-78 973.13,-59.33 991.82,-45.08 1007.87,-35.63"/>
<polygon fill="midnightblue" stroke="midnightblue" points="1009.87,-38.53 1016.93,-30.63 1006.48,-32.4 1009.87,-38.53"/>
</g>
<!-- Node23&#45;&gt;Node8 -->
<g id="edge44" class="edge">
<title>Node23&#45;&gt;Node8</title>
<path fill="none" stroke="midnightblue" d="M1554.9,-169.44C1294.5,-164.56 244.71,-143.52 179,-120 150.04,-109.64 149.55,-95.11 124,-78 100.58,-62.31 72.62,-46.29 52.94,-35.43"/>
<polygon fill="midnightblue" stroke="midnightblue" points="54.45,-32.26 44,-30.53 51.09,-38.41 54.45,-32.26"/>
</g>
<!-- Node23&#45;&gt;Node9 -->
<g id="edge37" class="edge">
<title>Node23&#45;&gt;Node9</title>
<path fill="none" stroke="midnightblue" d="M1554.67,-163.96C1472.11,-154.62 1316.43,-136.74 1184,-120 1159.47,-116.9 1132.67,-113.33 1108.7,-110.08"/>
<polygon fill="midnightblue" stroke="midnightblue" points="1109,-106.59 1098.62,-108.7 1108.06,-113.52 1109,-106.59"/>
</g>
<!-- Node23&#45;&gt;Node13 -->
<g id="edge42" class="edge">
<title>Node23&#45;&gt;Node13</title>
<path fill="none" stroke="midnightblue" d="M1671.35,-168.32C1788.59,-163.33 2043.84,-149.21 2070,-120 2082.45,-106.09 2081.02,-93.07 2070,-78 2068.94,-76.55 1982.81,-49.59 1931.45,-33.62"/>
<polygon fill="midnightblue" stroke="midnightblue" points="1932.26,-30.2 1921.67,-30.58 1930.18,-36.89 1932.26,-30.2"/>
</g>
<!-- Node23&#45;&gt;Node16 -->
<g id="edge45" class="edge">
<title>Node23&#45;&gt;Node16</title>
<path fill="none" stroke="midnightblue" d="M1671.45,-168.59C1792.47,-164.03 2061.52,-150.54 2089,-120 2109.4,-97.32 2085.15,-64.4 2064.35,-43.1"/>
<polygon fill="midnightblue" stroke="midnightblue" points="2066.79,-40.59 2057.21,-36.08 2061.89,-45.59 2066.79,-40.59"/>
</g>
<!-- Node23&#45;&gt;Node17 -->
<g id="edge46" class="edge">
<title>Node23&#45;&gt;Node17</title>
<path fill="none" stroke="midnightblue" d="M1671.43,-169.92C1785.22,-167.92 2031.89,-159.06 2106,-120 2140.53,-101.8 2166.66,-62.65 2179.72,-39.73"/>
<polygon fill="midnightblue" stroke="midnightblue" points="2182.91,-41.19 2184.64,-30.73 2176.77,-37.82 2182.91,-41.19"/>
</g>
<!-- Node24 -->
<g id="node24" class="node">
<title>Node24</title>
<g id="a_node24"><a xlink:title=" ">
<polygon fill="none" stroke="#bfbfbf" points="1193,-84 1193,-114 1351,-114 1351,-84 1193,-84"/>
<text text-anchor="start" x="1201" y="-102" font-family="Helvetica,sans-Serif" font-size="10.00">seerep&#45;msgs/boundingbox2d</text>
<text text-anchor="middle" x="1272" y="-91" font-family="Helvetica,sans-Serif" font-size="10.00">_labeled_with_category.pb.h</text>
</a>
</g>
</g>
<!-- Node23&#45;&gt;Node24 -->
<g id="edge38" class="edge">
<title>Node23&#45;&gt;Node24</title>
<path fill="none" stroke="midnightblue" d="M1554.88,-159.35C1503.54,-149.4 1426.69,-134.23 1360,-120 1354.4,-118.81 1348.62,-117.55 1342.8,-116.26"/>
<polygon fill="midnightblue" stroke="midnightblue" points="1343.54,-112.84 1333.02,-114.09 1342.02,-119.68 1343.54,-112.84"/>
</g>
<!-- Node25 -->
<g id="node25" class="node">
<title>Node25</title>
<g id="a_node25"><a xlink:title=" ">
<polygon fill="none" stroke="#bfbfbf" points="1369.5,-84 1369.5,-114 1524.5,-114 1524.5,-84 1369.5,-84"/>
<text text-anchor="start" x="1377.5" y="-102" font-family="Helvetica,sans-Serif" font-size="10.00">seerep&#45;msgs/boundingbox</text>
<text text-anchor="middle" x="1447" y="-91" font-family="Helvetica,sans-Serif" font-size="10.00">_labeled_with_category.pb.h</text>
</a>
</g>
</g>
<!-- Node23&#45;&gt;Node25 -->
<g id="edge39" class="edge">
<title>Node23&#45;&gt;Node25</title>
<path fill="none" stroke="midnightblue" d="M1579.81,-156.4C1553.91,-145.4 1517.74,-130.04 1489.69,-118.13"/>
<polygon fill="midnightblue" stroke="midnightblue" points="1490.71,-114.76 1480.14,-114.07 1487.97,-121.2 1490.71,-114.76"/>
</g>
<!-- Node26 -->
<g id="node26" class="node">
<title>Node26</title>
<g id="a_node26"><a xlink:title=" ">
<polygon fill="none" stroke="#bfbfbf" points="1543,-89.5 1543,-108.5 1683,-108.5 1683,-89.5 1543,-89.5"/>
<text text-anchor="middle" x="1613" y="-96.5" font-family="Helvetica,sans-Serif" font-size="10.00">seerep&#45;msgs/header.pb.h</text>
</a>
</g>
</g>
<!-- Node23&#45;&gt;Node26 -->
<g id="edge40" class="edge">
<title>Node23&#45;&gt;Node26</title>
<path fill="none" stroke="midnightblue" d="M1613,-156.23C1613,-145.5 1613,-130.69 1613,-118.96"/>
<polygon fill="midnightblue" stroke="midnightblue" points="1616.5,-118.89 1613,-108.89 1609.5,-118.89 1616.5,-118.89"/>
</g>
<!-- Node27 -->
<g id="node27" class="node">
<title>Node27</title>
<g id="a_node27"><a xlink:title=" ">
<polygon fill="none" stroke="#bfbfbf" points="1701,-78.5 1701,-119.5 1817,-119.5 1817,-78.5 1701,-78.5"/>
<text text-anchor="start" x="1709" y="-107.5" font-family="Helvetica,sans-Serif" font-size="10.00">seerep&#45;msgs/labels</text>
<text text-anchor="start" x="1709" y="-96.5" font-family="Helvetica,sans-Serif" font-size="10.00">_with_instance_with</text>
<text text-anchor="middle" x="1759" y="-85.5" font-family="Helvetica,sans-Serif" font-size="10.00">_category.pb.h</text>
</a>
</g>
</g>
<!-- Node23&#45;&gt;Node27 -->
<g id="edge41" class="edge">
<title>Node23&#45;&gt;Node27</title>
<path fill="none" stroke="midnightblue" d="M1642.19,-156.4C1661.43,-147.11 1687.1,-134.72 1709.48,-123.91"/>
<polygon fill="midnightblue" stroke="midnightblue" points="1711.04,-127.05 1718.52,-119.55 1707.99,-120.74 1711.04,-127.05"/>
</g>
<!-- Node28 -->
<g id="node28" class="node">
<title>Node28</title>
<g id="a_node28"><a xlink:title=" ">
<polygon fill="none" stroke="#bfbfbf" points="1835,-89.5 1835,-108.5 1903,-108.5 1903,-89.5 1835,-89.5"/>
<text text-anchor="middle" x="1869" y="-96.5" font-family="Helvetica,sans-Serif" font-size="10.00">filesystem</text>
</a>
</g>
</g>
<!-- Node23&#45;&gt;Node28 -->
<g id="edge43" class="edge">
<title>Node23&#45;&gt;Node28</title>
<path fill="none" stroke="midnightblue" d="M1671.31,-159.99C1714.64,-151.39 1774.84,-137.76 1826,-120 1831.78,-117.99 1837.83,-115.47 1843.5,-112.89"/>
<polygon fill="midnightblue" stroke="midnightblue" points="1845.04,-116.03 1852.58,-108.59 1842.04,-109.71 1845.04,-116.03"/>
</g>
<!-- Node29 -->
<g id="node29" class="node">
<title>Node29</title>
<g id="a_node29"><a xlink:title=" ">
<polygon fill="none" stroke="#bfbfbf" points="1921,-89.5 1921,-108.5 2061,-108.5 2061,-89.5 1921,-89.5"/>
<text text-anchor="middle" x="1991" y="-96.5" font-family="Helvetica,sans-Serif" font-size="10.00">impl/hdf5&#45;pb&#45;general.hpp</text>
</a>
</g>
</g>
<!-- Node23&#45;&gt;Node29 -->
<g id="edge47" class="edge">
<title>Node23&#45;&gt;Node29</title>
<path fill="none" stroke="midnightblue" d="M1671.14,-162.1C1731.58,-153.04 1828.8,-137.53 1912,-120 1924.33,-117.4 1937.64,-114.19 1949.76,-111.11"/>
<polygon fill="midnightblue" stroke="midnightblue" points="1950.81,-114.45 1959.61,-108.57 1949.06,-107.68 1950.81,-114.45"/>
</g>
<!-- Node30&#45;&gt;Node31 -->
<g id="edge49" class="edge">
<title>Node30&#45;&gt;Node31</title>
<path fill="none" stroke="midnightblue" d="M2391.01,-156.4C2366.04,-145.4 2331.19,-130.04 2304.15,-118.13"/>
<polygon fill="midnightblue" stroke="midnightblue" points="2305.5,-114.9 2294.94,-114.07 2302.68,-121.31 2305.5,-114.9"/>
</g>
<!-- Node32 -->
<g id="node32" class="node">
<title>Node32</title>
<g id="a_node32"><a xlink:title=" ">
<polygon fill="none" stroke="#bfbfbf" points="2546.5,-89.5 2546.5,-108.5 2599.5,-108.5 2599.5,-89.5 2546.5,-89.5"/>
<text text-anchor="middle" x="2573" y="-96.5" font-family="Helvetica,sans-Serif" font-size="10.00">cstdarg</text>
</a>
</g>
</g>
<!-- Node30&#45;&gt;Node32 -->
<g id="edge50" class="edge">
<title>Node30&#45;&gt;Node32</title>
<path fill="none" stroke="midnightblue" d="M2457.66,-156.41C2480.71,-146.76 2511.51,-133.34 2538,-120 2541.94,-118.02 2546.06,-115.8 2550.03,-113.58"/>
<polygon fill="midnightblue" stroke="midnightblue" points="2551.94,-116.52 2558.88,-108.52 2548.46,-110.45 2551.94,-116.52"/>
</g>
<!-- Node33 -->
<g id="node33" class="node">
<title>Node33</title>
<g id="a_node33"><a xlink:title=" ">
<polygon fill="none" stroke="#bfbfbf" points="2618,-89.5 2618,-108.5 2662,-108.5 2662,-89.5 2618,-89.5"/>
<text text-anchor="middle" x="2640" y="-96.5" font-family="Helvetica,sans-Serif" font-size="10.00">string</text>
</a>
</g>
</g>
<!-- Node30&#45;&gt;Node33 -->
<g id="edge51" class="edge">
<title>Node30&#45;&gt;Node33</title>
<path fill="none" stroke="midnightblue" d="M2494.99,-156.41C2530.24,-148.15 2572.78,-136.13 2609,-120 2612.61,-118.39 2616.27,-116.4 2619.76,-114.3"/>
<polygon fill="midnightblue" stroke="midnightblue" points="2621.93,-117.07 2628.42,-108.69 2618.12,-111.19 2621.93,-117.07"/>
</g>
<!-- Node34 -->
<g id="node34" class="node">
<title>Node34</title>
<g id="a_node34"><a xlink:title=" ">
<polygon fill="none" stroke="#bfbfbf" points="2350.5,-89.5 2350.5,-108.5 2397.5,-108.5 2397.5,-89.5 2350.5,-89.5"/>
<text text-anchor="middle" x="2374" y="-96.5" font-family="Helvetica,sans-Serif" font-size="10.00">vector</text>
</a>
</g>
</g>
<!-- Node30&#45;&gt;Node34 -->
<g id="edge52" class="edge">
<title>Node30&#45;&gt;Node34</title>
<path fill="none" stroke="midnightblue" d="M2413.08,-156.23C2405.24,-144.95 2394.26,-129.15 2385.93,-117.17"/>
<polygon fill="midnightblue" stroke="midnightblue" points="2388.76,-115.11 2380.18,-108.89 2383.01,-119.1 2388.76,-115.11"/>
</g>
<!-- Node35 -->
<g id="node35" class="node">
<title>Node35</title>
<g id="a_node35"><a xlink:title=" ">
<polygon fill="none" stroke="#bfbfbf" points="2415.5,-84 2415.5,-114 2528.5,-114 2528.5,-84 2415.5,-84"/>
<text text-anchor="start" x="2423.5" y="-102" font-family="Helvetica,sans-Serif" font-size="10.00">impl/hdf5&#45;pb&#45;point</text>
<text text-anchor="middle" x="2472" y="-91" font-family="Helvetica,sans-Serif" font-size="10.00">&#45;cloud2&#45;iterator.hpp</text>
</a>
</g>
</g>
<!-- Node30&#45;&gt;Node35 -->
<g id="edge53" class="edge">
<title>Node30&#45;&gt;Node35</title>
<path fill="none" stroke="midnightblue" d="M2432.92,-156.23C2439.62,-146.58 2448.63,-133.63 2456.3,-122.59"/>
<polygon fill="midnightblue" stroke="midnightblue" points="2459.27,-124.45 2462.1,-114.25 2453.52,-120.46 2459.27,-124.45"/>
</g>
</g>
</svg>
