<?xml version="1.0" encoding="UTF-8" standalone="no"?>
<!DOCTYPE svg PUBLIC "-//W3C//DTD SVG 1.1//EN"
 "http://www.w3.org/Graphics/SVG/1.1/DTD/svg11.dtd">
<!-- Generated by graphviz version 2.43.0 (0)
 -->
<!-- Title: seerep_hdf5/seerep_hdf5_py/include/seerep_hdf5_py/hdf5_py_general.h Pages: 1 -->
<svg width="680pt" height="284pt"
 viewBox="0.00 0.00 680.00 284.00" xmlns="http://www.w3.org/2000/svg" xmlns:xlink="http://www.w3.org/1999/xlink">
<g id="graph0" class="graph" transform="scale(1 1) rotate(0) translate(4 280)">
<title>seerep_hdf5/seerep_hdf5_py/include/seerep_hdf5_py/hdf5_py_general.h</title>
<!-- Node1 -->
<g id="node1" class="node">
<title>Node1</title>
<g id="a_node1"><a xlink:title=" ">
<polygon fill="#bfbfbf" stroke="black" points="203,-234.5 203,-275.5 357,-275.5 357,-234.5 203,-234.5"/>
<text text-anchor="start" x="211" y="-263.5" font-family="Helvetica,sans-Serif" font-size="10.00">seerep_hdf5/seerep</text>
<text text-anchor="start" x="211" y="-252.5" font-family="Helvetica,sans-Serif" font-size="10.00">_hdf5_py/include/seerep</text>
<text text-anchor="middle" x="280" y="-241.5" font-family="Helvetica,sans-Serif" font-size="10.00">_hdf5_py/hdf5_py_general.h</text>
</a>
</g>
</g>
<!-- Node2 -->
<g id="node2" class="node">
<title>Node2</title>
<g id="a_node2"><a xlink:href="hdf5__py_8h.html" target="_top" xlink:title=" ">
<polygon fill="none" stroke="black" points="138.5,-78.5 138.5,-119.5 273.5,-119.5 273.5,-78.5 138.5,-78.5"/>
<text text-anchor="start" x="146.5" y="-107.5" font-family="Helvetica,sans-Serif" font-size="10.00">seerep_hdf5/seerep</text>
<text text-anchor="start" x="146.5" y="-96.5" font-family="Helvetica,sans-Serif" font-size="10.00">_hdf5_py/include/seerep</text>
<text text-anchor="middle" x="206" y="-85.5" font-family="Helvetica,sans-Serif" font-size="10.00">_hdf5_py/hdf5_py.h</text>
</a>
</g>
</g>
<!-- Node1&#45;&gt;Node2 -->
<g id="edge1" class="edge">
<title>Node1&#45;&gt;Node2</title>
<path fill="none" stroke="midnightblue" d="M230.51,-228.56C219.48,-220.38 209.22,-210.21 203,-198 190.41,-173.28 195.07,-140.31 200.12,-119.61"/>
<polygon fill="midnightblue" stroke="midnightblue" points="228.82,-231.64 239.05,-234.42 232.79,-225.87 228.82,-231.64"/>
</g>
<!-- Node4 -->
<g id="node4" class="node">
<title>Node4</title>
<g id="a_node4"><a xlink:href="hdf5__py__image_8h.html" target="_top" xlink:title=" ">
<polygon fill="none" stroke="black" points="8,-156.5 8,-197.5 156,-197.5 156,-156.5 8,-156.5"/>
<text text-anchor="start" x="16" y="-185.5" font-family="Helvetica,sans-Serif" font-size="10.00">seerep_hdf5/seerep</text>
<text text-anchor="start" x="16" y="-174.5" font-family="Helvetica,sans-Serif" font-size="10.00">_hdf5_py/include/seerep</text>
<text text-anchor="middle" x="82" y="-163.5" font-family="Helvetica,sans-Serif" font-size="10.00">_hdf5_py/hdf5_py_image.h</text>
</a>
</g>
</g>
<!-- Node1&#45;&gt;Node4 -->
<g id="edge3" class="edge">
<title>Node1&#45;&gt;Node4</title>
<path fill="none" stroke="midnightblue" d="M219.42,-230.75C191.71,-220.11 159.24,-207.65 132.82,-197.51"/>
<polygon fill="midnightblue" stroke="midnightblue" points="218.42,-234.11 229.01,-234.43 220.93,-227.58 218.42,-234.11"/>
</g>
<!-- Node6 -->
<g id="node6" class="node">
<title>Node6</title>
<g id="a_node6"><a xlink:href="hdf5__py__pointcloud_8h.html" target="_top" xlink:title=" ">
<polygon fill="none" stroke="black" points="366,-156.5 366,-197.5 534,-197.5 534,-156.5 366,-156.5"/>
<text text-anchor="start" x="374" y="-185.5" font-family="Helvetica,sans-Serif" font-size="10.00">seerep_hdf5/seerep</text>
<text text-anchor="start" x="374" y="-174.5" font-family="Helvetica,sans-Serif" font-size="10.00">_hdf5_py/include/seerep</text>
<text text-anchor="middle" x="450" y="-163.5" font-family="Helvetica,sans-Serif" font-size="10.00">_hdf5_py/hdf5_py_pointcloud.h</text>
</a>
</g>
</g>
<!-- Node1&#45;&gt;Node6 -->
<g id="edge6" class="edge">
<title>Node1&#45;&gt;Node6</title>
<path fill="none" stroke="midnightblue" d="M332.95,-230.33C356.54,-219.78 383.98,-207.51 406.37,-197.51"/>
<polygon fill="midnightblue" stroke="midnightblue" points="331.48,-227.15 323.78,-234.43 334.34,-233.54 331.48,-227.15"/>
</g>
<!-- Node8 -->
<g id="node8" class="node">
<title>Node8</title>
<g id="a_node8"><a xlink:href="hdf5__py__tf_8h.html" target="_top" xlink:title=" ">
<polygon fill="none" stroke="black" points="212.5,-156.5 212.5,-197.5 347.5,-197.5 347.5,-156.5 212.5,-156.5"/>
<text text-anchor="start" x="220.5" y="-185.5" font-family="Helvetica,sans-Serif" font-size="10.00">seerep_hdf5/seerep</text>
<text text-anchor="start" x="220.5" y="-174.5" font-family="Helvetica,sans-Serif" font-size="10.00">_hdf5_py/include/seerep</text>
<text text-anchor="middle" x="280" y="-163.5" font-family="Helvetica,sans-Serif" font-size="10.00">_hdf5_py/hdf5_py_tf.h</text>
</a>
</g>
</g>
<!-- Node1&#45;&gt;Node8 -->
<g id="edge9" class="edge">
<title>Node1&#45;&gt;Node8</title>
<path fill="none" stroke="midnightblue" d="M280,-224.3C280,-215.3 280,-205.65 280,-197.51"/>
<polygon fill="midnightblue" stroke="midnightblue" points="276.5,-224.43 280,-234.43 283.5,-224.43 276.5,-224.43"/>
</g>
<!-- Node9 -->
<g id="node9" class="node">
<title>Node9</title>
<g id="a_node9"><a xlink:href="hdf5__py__general_8cpp.html" target="_top" xlink:title=" ">
<polygon fill="none" stroke="black" points="552,-156.5 552,-197.5 672,-197.5 672,-156.5 552,-156.5"/>
<text text-anchor="start" x="560" y="-185.5" font-family="Helvetica,sans-Serif" font-size="10.00">seerep_hdf5/seerep</text>
<text text-anchor="start" x="560" y="-174.5" font-family="Helvetica,sans-Serif" font-size="10.00">_hdf5_py/src/hdf5_py</text>
<text text-anchor="middle" x="612" y="-163.5" font-family="Helvetica,sans-Serif" font-size="10.00">_general.cpp</text>
</a>
</g>
</g>
<!-- Node1&#45;&gt;Node9 -->
<g id="edge12" class="edge">
<title>Node1&#45;&gt;Node9</title>
<path fill="none" stroke="midnightblue" d="M367.23,-237.07C418.6,-226.7 484.74,-212.63 543,-198 545.9,-197.27 548.87,-196.5 551.86,-195.71"/>
<polygon fill="midnightblue" stroke="midnightblue" points="366.27,-233.7 357.15,-239.1 367.65,-240.56 366.27,-233.7"/>
</g>
<!-- Node3 -->
<g id="node3" class="node">
<title>Node3</title>
<g id="a_node3"><a xlink:href="hdf5__py__tf_8cpp.html" target="_top" xlink:title=" ">
<polygon fill="none" stroke="black" points="194,-0.5 194,-41.5 314,-41.5 314,-0.5 194,-0.5"/>
<text text-anchor="start" x="202" y="-29.5" font-family="Helvetica,sans-Serif" font-size="10.00">seerep_hdf5/seerep</text>
<text text-anchor="start" x="202" y="-18.5" font-family="Helvetica,sans-Serif" font-size="10.00">_hdf5_py/src/hdf5_py</text>
<text text-anchor="middle" x="254" y="-7.5" font-family="Helvetica,sans-Serif" font-size="10.00">_tf.cpp</text>
</a>
</g>
</g>
<!-- Node2&#45;&gt;Node3 -->
<g id="edge2" class="edge">
<title>Node2&#45;&gt;Node3</title>
<path fill="none" stroke="midnightblue" d="M223.84,-69.76C229.78,-60.35 236.26,-50.1 241.68,-41.51"/>
<polygon fill="midnightblue" stroke="midnightblue" points="220.74,-68.1 218.36,-78.43 226.66,-71.84 220.74,-68.1"/>
</g>
<!-- Node4&#45;&gt;Node2 -->
<g id="edge4" class="edge">
<title>Node4&#45;&gt;Node2</title>
<path fill="none" stroke="midnightblue" d="M122.92,-150.92C139.59,-140.7 158.57,-129.07 174.18,-119.51"/>
<polygon fill="midnightblue" stroke="midnightblue" points="120.63,-148.22 113.93,-156.43 124.29,-154.19 120.63,-148.22"/>
</g>
<!-- Node5 -->
<g id="node5" class="node">
<title>Node5</title>
<g id="a_node5"><a xlink:href="hdf5__py__image_8cpp.html" target="_top" xlink:title=" ">
<polygon fill="none" stroke="black" points="0,-78.5 0,-119.5 120,-119.5 120,-78.5 0,-78.5"/>
<text text-anchor="start" x="8" y="-107.5" font-family="Helvetica,sans-Serif" font-size="10.00">seerep_hdf5/seerep</text>
<text text-anchor="start" x="8" y="-96.5" font-family="Helvetica,sans-Serif" font-size="10.00">_hdf5_py/src/hdf5_py</text>
<text text-anchor="middle" x="60" y="-85.5" font-family="Helvetica,sans-Serif" font-size="10.00">_image.cpp</text>
</a>
</g>
</g>
<!-- Node4&#45;&gt;Node5 -->
<g id="edge5" class="edge">
<title>Node4&#45;&gt;Node5</title>
<path fill="none" stroke="midnightblue" d="M73.49,-146.59C70.86,-137.51 68.03,-127.74 65.65,-119.51"/>
<polygon fill="midnightblue" stroke="midnightblue" points="70.19,-147.8 76.33,-156.43 76.92,-145.85 70.19,-147.8"/>
</g>
<!-- Node6&#45;&gt;Node2 -->
<g id="edge7" class="edge">
<title>Node6&#45;&gt;Node2</title>
<path fill="none" stroke="midnightblue" d="M377.58,-153.44C342.95,-142.66 301.89,-129.87 268.62,-119.51"/>
<polygon fill="midnightblue" stroke="midnightblue" points="376.58,-156.8 387.16,-156.43 378.66,-150.11 376.58,-156.8"/>
</g>
<!-- Node7 -->
<g id="node7" class="node">
<title>Node7</title>
<g id="a_node7"><a xlink:href="hdf5__py__pointcloud_8cpp.html" target="_top" xlink:title=" ">
<polygon fill="none" stroke="black" points="390,-78.5 390,-119.5 510,-119.5 510,-78.5 390,-78.5"/>
<text text-anchor="start" x="398" y="-107.5" font-family="Helvetica,sans-Serif" font-size="10.00">seerep_hdf5/seerep</text>
<text text-anchor="start" x="398" y="-96.5" font-family="Helvetica,sans-Serif" font-size="10.00">_hdf5_py/src/hdf5_py</text>
<text text-anchor="middle" x="450" y="-85.5" font-family="Helvetica,sans-Serif" font-size="10.00">_pointcloud.cpp</text>
</a>
</g>
</g>
<!-- Node6&#45;&gt;Node7 -->
<g id="edge8" class="edge">
<title>Node6&#45;&gt;Node7</title>
<path fill="none" stroke="midnightblue" d="M450,-146.3C450,-137.3 450,-127.65 450,-119.51"/>
<polygon fill="midnightblue" stroke="midnightblue" points="446.5,-146.43 450,-156.43 453.5,-146.43 446.5,-146.43"/>
</g>
<!-- Node8&#45;&gt;Node2 -->
<g id="edge10" class="edge">
<title>Node8&#45;&gt;Node2</title>
<path fill="none" stroke="midnightblue" d="M253.91,-149.2C244.38,-139.42 233.79,-128.54 224.99,-119.51"/>
<polygon fill="midnightblue" stroke="midnightblue" points="251.46,-151.71 260.94,-156.43 256.47,-146.82 251.46,-151.71"/>
</g>
<!-- Node8&#45;&gt;Node3 -->
<g id="edge11" class="edge">
<title>Node8&#45;&gt;Node3</title>
<path fill="none" stroke="midnightblue" d="M285.02,-145.98C287.31,-126.36 288.44,-100.33 283,-78 279.86,-65.13 273.21,-51.91 267.07,-41.56"/>
<polygon fill="midnightblue" stroke="midnightblue" points="281.52,-145.78 283.67,-156.16 288.46,-146.7 281.52,-145.78"/>
</g>
</g>
</svg>
