<?xml version="1.0" encoding="UTF-8" standalone="no"?>
<!DOCTYPE svg PUBLIC "-//W3C//DTD SVG 1.1//EN"
 "http://www.w3.org/Graphics/SVG/1.1/DTD/svg11.dtd">
<!-- Generated by graphviz version 2.43.0 (0)
 -->
<!-- Title: seerep&#45;hdf5/seerep&#45;hdf5&#45;core/include/seerep&#45;hdf5&#45;core/hdf5&#45;core&#45;point.h Pages: 1 -->
<svg width="2803pt" height="574pt"
 viewBox="0.00 0.00 2803.00 574.00" xmlns="http://www.w3.org/2000/svg" xmlns:xlink="http://www.w3.org/1999/xlink">
<g id="graph0" class="graph" transform="scale(1 1) rotate(0) translate(4 570)">
<title>seerep&#45;hdf5/seerep&#45;hdf5&#45;core/include/seerep&#45;hdf5&#45;core/hdf5&#45;core&#45;point.h</title>
<!-- Node1 -->
<g id="node1" class="node">
<title>Node1</title>
<g id="a_node1"><a xlink:title=" ">
<polygon fill="#bfbfbf" stroke="black" points="1119,-524.5 1119,-565.5 1273,-565.5 1273,-524.5 1119,-524.5"/>
<text text-anchor="start" x="1127" y="-553.5" font-family="Helvetica,sans-Serif" font-size="10.00">seerep&#45;hdf5/seerep</text>
<text text-anchor="start" x="1127" y="-542.5" font-family="Helvetica,sans-Serif" font-size="10.00">&#45;hdf5&#45;core/include/seerep</text>
<text text-anchor="middle" x="1196" y="-531.5" font-family="Helvetica,sans-Serif" font-size="10.00">&#45;hdf5&#45;core/hdf5&#45;core&#45;point.h</text>
</a>
</g>
</g>
<!-- Node2 -->
<g id="node2" class="node">
<title>Node2</title>
<g id="a_node2"><a xlink:href="hdf5-core-point_8cpp.html" target="_top" xlink:title=" ">
<polygon fill="none" stroke="black" points="1068.5,-446.5 1068.5,-487.5 1179.5,-487.5 1179.5,-446.5 1068.5,-446.5"/>
<text text-anchor="start" x="1076.5" y="-475.5" font-family="Helvetica,sans-Serif" font-size="10.00">seerep&#45;hdf5/seerep</text>
<text text-anchor="start" x="1076.5" y="-464.5" font-family="Helvetica,sans-Serif" font-size="10.00">&#45;hdf5&#45;core/src/hdf5</text>
<text text-anchor="middle" x="1124" y="-453.5" font-family="Helvetica,sans-Serif" font-size="10.00">&#45;core&#45;point.cpp</text>
</a>
</g>
</g>
<!-- Node1&#45;&gt;Node2 -->
<g id="edge1" class="edge">
<title>Node1&#45;&gt;Node2</title>
<path fill="none" stroke="midnightblue" d="M1170.34,-516.92C1161.14,-507.2 1150.95,-496.45 1142.48,-487.51"/>
<polygon fill="midnightblue" stroke="midnightblue" points="1168.04,-519.58 1177.46,-524.43 1173.12,-514.76 1168.04,-519.58"/>
</g>
<!-- Node3 -->
<g id="node3" class="node">
<title>Node3</title>
<g id="a_node3"><a xlink:href="core-project_8h.html" target="_top" xlink:title=" ">
<polygon fill="none" stroke="black" points="1198,-446.5 1198,-487.5 1338,-487.5 1338,-446.5 1198,-446.5"/>
<text text-anchor="start" x="1206" y="-475.5" font-family="Helvetica,sans-Serif" font-size="10.00">seerep&#45;srv/seerep&#45;core</text>
<text text-anchor="start" x="1206" y="-464.5" font-family="Helvetica,sans-Serif" font-size="10.00">/include/seerep&#45;core/core</text>
<text text-anchor="middle" x="1268" y="-453.5" font-family="Helvetica,sans-Serif" font-size="10.00">&#45;project.h</text>
</a>
</g>
</g>
<!-- Node1&#45;&gt;Node3 -->
<g id="edge2" class="edge">
<title>Node1&#45;&gt;Node3</title>
<path fill="none" stroke="midnightblue" d="M1221.66,-516.92C1230.86,-507.2 1241.05,-496.45 1249.52,-487.51"/>
<polygon fill="midnightblue" stroke="midnightblue" points="1218.88,-514.76 1214.54,-524.43 1223.96,-519.58 1218.88,-514.76"/>
</g>
<!-- Node4 -->
<g id="node4" class="node">
<title>Node4</title>
<g id="a_node4"><a xlink:href="core_8h.html" target="_top" xlink:title=" ">
<polygon fill="none" stroke="black" points="1115.5,-379.5 1115.5,-409.5 1264.5,-409.5 1264.5,-379.5 1115.5,-379.5"/>
<text text-anchor="start" x="1123.5" y="-397.5" font-family="Helvetica,sans-Serif" font-size="10.00">seerep&#45;srv/seerep&#45;core</text>
<text text-anchor="middle" x="1190" y="-386.5" font-family="Helvetica,sans-Serif" font-size="10.00">/include/seerep&#45;core/core.h</text>
</a>
</g>
</g>
<!-- Node3&#45;&gt;Node4 -->
<g id="edge3" class="edge">
<title>Node3&#45;&gt;Node4</title>
<path fill="none" stroke="midnightblue" d="M1238.79,-439.6C1227.65,-429.53 1215.38,-418.44 1205.92,-409.89"/>
<polygon fill="midnightblue" stroke="midnightblue" points="1236.51,-442.25 1246.27,-446.36 1241.2,-437.06 1236.51,-442.25"/>
</g>
<!-- Node44 -->
<g id="node44" class="node">
<title>Node44</title>
<g id="a_node44"><a xlink:href="core-project_8cpp.html" target="_top" xlink:title=" ">
<polygon fill="none" stroke="black" points="1282.5,-379.5 1282.5,-409.5 1411.5,-409.5 1411.5,-379.5 1282.5,-379.5"/>
<text text-anchor="start" x="1290.5" y="-397.5" font-family="Helvetica,sans-Serif" font-size="10.00">seerep&#45;srv/seerep&#45;core</text>
<text text-anchor="middle" x="1347" y="-386.5" font-family="Helvetica,sans-Serif" font-size="10.00">/src/core&#45;project.cpp</text>
</a>
</g>
</g>
<!-- Node3&#45;&gt;Node44 -->
<g id="edge62" class="edge">
<title>Node3&#45;&gt;Node44</title>
<path fill="none" stroke="midnightblue" d="M1297.64,-439.55C1309,-429.41 1321.53,-418.23 1331.12,-409.67"/>
<polygon fill="midnightblue" stroke="midnightblue" points="1295.14,-437.09 1290.01,-446.36 1299.8,-442.31 1295.14,-437.09"/>
</g>
<!-- Node5 -->
<g id="node5" class="node">
<title>Node5</title>
<g id="a_node5"><a xlink:href="fb-write-load-test_8cpp.html" target="_top" xlink:title=" ">
<polygon fill="none" stroke="black" points="59.5,-301.5 59.5,-342.5 178.5,-342.5 178.5,-301.5 59.5,-301.5"/>
<text text-anchor="start" x="67.5" y="-330.5" font-family="Helvetica,sans-Serif" font-size="10.00">seerep&#45;hdf5/seerep</text>
<text text-anchor="start" x="67.5" y="-319.5" font-family="Helvetica,sans-Serif" font-size="10.00">&#45;hdf5&#45;fb/test/fb&#45;write</text>
<text text-anchor="middle" x="119" y="-308.5" font-family="Helvetica,sans-Serif" font-size="10.00">&#45;load&#45;test.cpp</text>
</a>
</g>
</g>
<!-- Node4&#45;&gt;Node5 -->
<g id="edge4" class="edge">
<title>Node4&#45;&gt;Node5</title>
<path fill="none" stroke="midnightblue" d="M1105.08,-391.53C897.32,-386.33 367.64,-370.7 193,-343 188.27,-342.25 183.4,-341.31 178.54,-340.26"/>
<polygon fill="midnightblue" stroke="midnightblue" points="1105.24,-395.03 1115.33,-391.78 1105.42,-388.03 1105.24,-395.03"/>
</g>
<!-- Node6 -->
<g id="node6" class="node">
<title>Node6</title>
<g id="a_node6"><a xlink:href="core-fb-general_8h.html" target="_top" xlink:title=" ">
<polygon fill="none" stroke="black" points="524.5,-301.5 524.5,-342.5 653.5,-342.5 653.5,-301.5 524.5,-301.5"/>
<text text-anchor="start" x="532.5" y="-330.5" font-family="Helvetica,sans-Serif" font-size="10.00">seerep&#45;srv/seerep&#45;core</text>
<text text-anchor="start" x="532.5" y="-319.5" font-family="Helvetica,sans-Serif" font-size="10.00">&#45;fb/include/seerep&#45;core</text>
<text text-anchor="middle" x="589" y="-308.5" font-family="Helvetica,sans-Serif" font-size="10.00">&#45;fb/core&#45;fb&#45;general.h</text>
</a>
</g>
</g>
<!-- Node4&#45;&gt;Node6 -->
<g id="edge5" class="edge">
<title>Node4&#45;&gt;Node6</title>
<path fill="none" stroke="midnightblue" d="M1105.34,-388.88C1002.38,-382.42 823.55,-368.52 672,-343 666.01,-341.99 659.81,-340.79 653.61,-339.49"/>
<polygon fill="midnightblue" stroke="midnightblue" points="1105.17,-392.37 1115.37,-389.5 1105.61,-385.39 1105.17,-392.37"/>
</g>
<!-- Node7 -->
<g id="node7" class="node">
<title>Node7</title>
<g id="a_node7"><a xlink:href="core-fb-image_8h.html" target="_top" xlink:title=" ">
<polygon fill="none" stroke="black" points="235.5,-223.5 235.5,-264.5 364.5,-264.5 364.5,-223.5 235.5,-223.5"/>
<text text-anchor="start" x="243.5" y="-252.5" font-family="Helvetica,sans-Serif" font-size="10.00">seerep&#45;srv/seerep&#45;core</text>
<text text-anchor="start" x="243.5" y="-241.5" font-family="Helvetica,sans-Serif" font-size="10.00">&#45;fb/include/seerep&#45;core</text>
<text text-anchor="middle" x="300" y="-230.5" font-family="Helvetica,sans-Serif" font-size="10.00">&#45;fb/core&#45;fb&#45;image.h</text>
</a>
</g>
</g>
<!-- Node4&#45;&gt;Node7 -->
<g id="edge22" class="edge">
<title>Node4&#45;&gt;Node7</title>
<path fill="none" stroke="midnightblue" d="M1105.09,-392.07C910.12,-388.23 442.25,-375.71 379,-343 345.81,-325.83 321.71,-287.88 309.37,-264.56"/>
<polygon fill="midnightblue" stroke="midnightblue" points="1105.22,-395.57 1115.29,-392.27 1105.36,-388.57 1105.22,-395.57"/>
</g>
<!-- Node9 -->
<g id="node9" class="node">
<title>Node9</title>
<g id="a_node9"><a xlink:href="fb-image-service_8h.html" target="_top" xlink:title=" ">
<polygon fill="none" stroke="black" points="0.5,-145.5 0.5,-186.5 139.5,-186.5 139.5,-145.5 0.5,-145.5"/>
<text text-anchor="start" x="8.5" y="-174.5" font-family="Helvetica,sans-Serif" font-size="10.00">seerep&#45;srv/seerep&#45;server</text>
<text text-anchor="start" x="8.5" y="-163.5" font-family="Helvetica,sans-Serif" font-size="10.00">/include/seerep&#45;server</text>
<text text-anchor="middle" x="70" y="-152.5" font-family="Helvetica,sans-Serif" font-size="10.00">/fb&#45;image&#45;service.h</text>
</a>
</g>
</g>
<!-- Node4&#45;&gt;Node9 -->
<g id="edge46" class="edge">
<title>Node4&#45;&gt;Node9</title>
<path fill="none" stroke="midnightblue" d="M1105.08,-394.2C917.18,-394.83 471.69,-391.04 330,-343 229.59,-308.96 131.67,-225.05 90.42,-186.7"/>
<polygon fill="midnightblue" stroke="midnightblue" points="1105.2,-397.7 1115.18,-394.16 1105.17,-390.7 1105.2,-397.7"/>
</g>
<!-- Node10 -->
<g id="node10" class="node">
<title>Node10</title>
<g id="a_node10"><a xlink:href="server_8h.html" target="_top" xlink:title=" ">
<polygon fill="none" stroke="black" points="1131.5,-67.5 1131.5,-108.5 1270.5,-108.5 1270.5,-67.5 1131.5,-67.5"/>
<text text-anchor="start" x="1139.5" y="-96.5" font-family="Helvetica,sans-Serif" font-size="10.00">seerep&#45;srv/seerep&#45;server</text>
<text text-anchor="start" x="1139.5" y="-85.5" font-family="Helvetica,sans-Serif" font-size="10.00">/include/seerep&#45;server</text>
<text text-anchor="middle" x="1201" y="-74.5" font-family="Helvetica,sans-Serif" font-size="10.00">/server.h</text>
</a>
</g>
</g>
<!-- Node4&#45;&gt;Node10 -->
<g id="edge61" class="edge">
<title>Node4&#45;&gt;Node10</title>
<path fill="none" stroke="midnightblue" d="M1274.69,-379.1C1522.41,-356.54 2103.16,-408.26 2324,-343 2388.62,-323.9 2420.8,-323.63 2454,-265 2484.87,-210.47 2436.97,-171.1 2380,-145 2279.34,-98.89 1508.32,-90.72 1270.58,-89.3"/>
<polygon fill="midnightblue" stroke="midnightblue" points="1274.2,-375.63 1264.58,-380.08 1274.87,-382.6 1274.2,-375.63"/>
</g>
<!-- Node13 -->
<g id="node13" class="node">
<title>Node13</title>
<g id="a_node13"><a xlink:href="core-fb-point_8h.html" target="_top" xlink:title=" ">
<polygon fill="none" stroke="black" points="421.5,-223.5 421.5,-264.5 550.5,-264.5 550.5,-223.5 421.5,-223.5"/>
<text text-anchor="start" x="429.5" y="-252.5" font-family="Helvetica,sans-Serif" font-size="10.00">seerep&#45;srv/seerep&#45;core</text>
<text text-anchor="start" x="429.5" y="-241.5" font-family="Helvetica,sans-Serif" font-size="10.00">&#45;fb/include/seerep&#45;core</text>
<text text-anchor="middle" x="486" y="-230.5" font-family="Helvetica,sans-Serif" font-size="10.00">&#45;fb/core&#45;fb&#45;point.h</text>
</a>
</g>
</g>
<!-- Node4&#45;&gt;Node13 -->
<g id="edge28" class="edge">
<title>Node4&#45;&gt;Node13</title>
<path fill="none" stroke="midnightblue" d="M1105.12,-392.46C933.99,-389.62 559.95,-379.27 515,-343 491.66,-324.17 486.5,-287.49 485.69,-264.74"/>
<polygon fill="midnightblue" stroke="midnightblue" points="1105.3,-395.97 1115.35,-392.63 1105.41,-388.97 1105.3,-395.97"/>
</g>
<!-- Node15 -->
<g id="node15" class="node">
<title>Node15</title>
<g id="a_node15"><a xlink:href="fb-point-service_8h.html" target="_top" xlink:title=" ">
<polygon fill="none" stroke="black" points="316.5,-145.5 316.5,-186.5 455.5,-186.5 455.5,-145.5 316.5,-145.5"/>
<text text-anchor="start" x="324.5" y="-174.5" font-family="Helvetica,sans-Serif" font-size="10.00">seerep&#45;srv/seerep&#45;server</text>
<text text-anchor="start" x="324.5" y="-163.5" font-family="Helvetica,sans-Serif" font-size="10.00">/include/seerep&#45;server</text>
<text text-anchor="middle" x="386" y="-152.5" font-family="Helvetica,sans-Serif" font-size="10.00">/fb&#45;point&#45;service.h</text>
</a>
</g>
</g>
<!-- Node4&#45;&gt;Node15 -->
<g id="edge51" class="edge">
<title>Node4&#45;&gt;Node15</title>
<path fill="none" stroke="midnightblue" d="M1105.06,-390.81C930.19,-384.77 541.69,-368.64 487,-343 443.45,-322.59 435.59,-306.91 412,-265 397.93,-240 391.24,-207.1 388.23,-186.5"/>
<polygon fill="midnightblue" stroke="midnightblue" points="1105.14,-394.31 1115.25,-391.15 1105.38,-387.31 1105.14,-394.31"/>
</g>
<!-- Node17 -->
<g id="node17" class="node">
<title>Node17</title>
<g id="a_node17"><a xlink:href="core-fb-tf_8h.html" target="_top" xlink:title=" ">
<polygon fill="none" stroke="black" points="568.5,-223.5 568.5,-264.5 697.5,-264.5 697.5,-223.5 568.5,-223.5"/>
<text text-anchor="start" x="576.5" y="-252.5" font-family="Helvetica,sans-Serif" font-size="10.00">seerep&#45;srv/seerep&#45;core</text>
<text text-anchor="start" x="576.5" y="-241.5" font-family="Helvetica,sans-Serif" font-size="10.00">&#45;fb/include/seerep&#45;core</text>
<text text-anchor="middle" x="633" y="-230.5" font-family="Helvetica,sans-Serif" font-size="10.00">&#45;fb/core&#45;fb&#45;tf.h</text>
</a>
</g>
</g>
<!-- Node4&#45;&gt;Node17 -->
<g id="edge29" class="edge">
<title>Node4&#45;&gt;Node17</title>
<path fill="none" stroke="midnightblue" d="M1105.11,-392.27C986.35,-389.24 777.78,-378.83 712,-343 679.38,-325.23 655.24,-287.84 642.71,-264.73"/>
<polygon fill="midnightblue" stroke="midnightblue" points="1105.18,-395.77 1115.26,-392.51 1105.35,-388.77 1105.18,-395.77"/>
</g>
<!-- Node19 -->
<g id="node19" class="node">
<title>Node19</title>
<g id="a_node19"><a xlink:href="fb-tf-service_8h.html" target="_top" xlink:title=" ">
<polygon fill="none" stroke="black" points="773.5,-145.5 773.5,-186.5 912.5,-186.5 912.5,-145.5 773.5,-145.5"/>
<text text-anchor="start" x="781.5" y="-174.5" font-family="Helvetica,sans-Serif" font-size="10.00">seerep&#45;srv/seerep&#45;server</text>
<text text-anchor="start" x="781.5" y="-163.5" font-family="Helvetica,sans-Serif" font-size="10.00">/include/seerep&#45;server</text>
<text text-anchor="middle" x="843" y="-152.5" font-family="Helvetica,sans-Serif" font-size="10.00">/fb&#45;tf&#45;service.h</text>
</a>
</g>
</g>
<!-- Node4&#45;&gt;Node19 -->
<g id="edge52" class="edge">
<title>Node4&#45;&gt;Node19</title>
<path fill="none" stroke="midnightblue" d="M1105.08,-382.17C987.27,-364.39 784.23,-325.58 745,-265 734.85,-249.33 735.63,-239.14 745,-223 754.29,-206.98 770.08,-195.16 786.3,-186.62"/>
<polygon fill="midnightblue" stroke="midnightblue" points="1104.75,-385.66 1115.16,-383.67 1105.78,-378.73 1104.75,-385.66"/>
</g>
<!-- Node21 -->
<g id="node21" class="node">
<title>Node21</title>
<g id="a_node21"><a xlink:href="core-fb-instance_8h.html" target="_top" xlink:title=" ">
<polygon fill="none" stroke="black" points="2147.5,-301.5 2147.5,-342.5 2276.5,-342.5 2276.5,-301.5 2147.5,-301.5"/>
<text text-anchor="start" x="2155.5" y="-330.5" font-family="Helvetica,sans-Serif" font-size="10.00">seerep&#45;srv/seerep&#45;core</text>
<text text-anchor="start" x="2155.5" y="-319.5" font-family="Helvetica,sans-Serif" font-size="10.00">&#45;fb/include/seerep&#45;core</text>
<text text-anchor="middle" x="2212" y="-308.5" font-family="Helvetica,sans-Serif" font-size="10.00">&#45;fb/core&#45;fb&#45;instance.h</text>
</a>
</g>
</g>
<!-- Node4&#45;&gt;Node21 -->
<g id="edge23" class="edge">
<title>Node4&#45;&gt;Node21</title>
<path fill="none" stroke="midnightblue" d="M1274.64,-379.04C1611.86,-342.71 1700.21,-369.63 2034,-343 2071.66,-340 2113.67,-335.34 2147.42,-331.27"/>
<polygon fill="midnightblue" stroke="midnightblue" points="1274.15,-375.57 1264.59,-380.13 1274.91,-382.53 1274.15,-375.57"/>
</g>
<!-- Node23 -->
<g id="node23" class="node">
<title>Node23</title>
<g id="a_node23"><a xlink:href="fb-instance-service_8h.html" target="_top" xlink:title=" ">
<polygon fill="none" stroke="black" points="2305.5,-223.5 2305.5,-264.5 2444.5,-264.5 2444.5,-223.5 2305.5,-223.5"/>
<text text-anchor="start" x="2313.5" y="-252.5" font-family="Helvetica,sans-Serif" font-size="10.00">seerep&#45;srv/seerep&#45;server</text>
<text text-anchor="start" x="2313.5" y="-241.5" font-family="Helvetica,sans-Serif" font-size="10.00">/include/seerep&#45;server</text>
<text text-anchor="middle" x="2375" y="-230.5" font-family="Helvetica,sans-Serif" font-size="10.00">/fb&#45;instance&#45;service.h</text>
</a>
</g>
</g>
<!-- Node4&#45;&gt;Node23 -->
<g id="edge47" class="edge">
<title>Node4&#45;&gt;Node23</title>
<path fill="none" stroke="midnightblue" d="M1274.66,-379.22C1424.47,-368.48 2186.43,-389.21 2286,-343 2321.65,-326.46 2349.38,-288.29 2363.87,-264.77"/>
<polygon fill="midnightblue" stroke="midnightblue" points="1274.25,-375.74 1264.58,-380.09 1274.85,-382.72 1274.25,-375.74"/>
</g>
<!-- Node25 -->
<g id="node25" class="node">
<title>Node25</title>
<g id="a_node25"><a xlink:href="core-pb-image_8h.html" target="_top" xlink:title=" ">
<polygon fill="none" stroke="black" points="1316.5,-301.5 1316.5,-342.5 1447.5,-342.5 1447.5,-301.5 1316.5,-301.5"/>
<text text-anchor="start" x="1324.5" y="-330.5" font-family="Helvetica,sans-Serif" font-size="10.00">seerep&#45;srv/seerep&#45;core</text>
<text text-anchor="start" x="1324.5" y="-319.5" font-family="Helvetica,sans-Serif" font-size="10.00">&#45;pb/include/seerep&#45;core</text>
<text text-anchor="middle" x="1382" y="-308.5" font-family="Helvetica,sans-Serif" font-size="10.00">&#45;pb/core&#45;pb&#45;image.h</text>
</a>
</g>
</g>
<!-- Node4&#45;&gt;Node25 -->
<g id="edge30" class="edge">
<title>Node4&#45;&gt;Node25</title>
<path fill="none" stroke="midnightblue" d="M1237.84,-375.93C1265.47,-365.79 1300.28,-353.01 1328.77,-342.55"/>
<polygon fill="midnightblue" stroke="midnightblue" points="1236.57,-372.67 1228.39,-379.4 1238.99,-379.24 1236.57,-372.67"/>
</g>
<!-- Node27 -->
<g id="node27" class="node">
<title>Node27</title>
<g id="a_node27"><a xlink:href="pb-image-service_8h.html" target="_top" xlink:title=" ">
<polygon fill="none" stroke="black" points="1302.5,-223.5 1302.5,-264.5 1441.5,-264.5 1441.5,-223.5 1302.5,-223.5"/>
<text text-anchor="start" x="1310.5" y="-252.5" font-family="Helvetica,sans-Serif" font-size="10.00">seerep&#45;srv/seerep&#45;server</text>
<text text-anchor="start" x="1310.5" y="-241.5" font-family="Helvetica,sans-Serif" font-size="10.00">/include/seerep&#45;server</text>
<text text-anchor="middle" x="1372" y="-230.5" font-family="Helvetica,sans-Serif" font-size="10.00">/pb&#45;image&#45;service.h</text>
</a>
</g>
</g>
<!-- Node4&#45;&gt;Node27 -->
<g id="edge53" class="edge">
<title>Node4&#45;&gt;Node27</title>
<path fill="none" stroke="midnightblue" d="M1224.31,-374.19C1238.69,-365.44 1255.24,-354.49 1269,-343 1288.56,-326.68 1289.72,-318.74 1308,-301 1320.92,-288.45 1336.06,-275.15 1348.37,-264.65"/>
<polygon fill="midnightblue" stroke="midnightblue" points="1222.47,-371.21 1215.68,-379.34 1226.06,-377.22 1222.47,-371.21"/>
</g>
<!-- Node29 -->
<g id="node29" class="node">
<title>Node29</title>
<g id="a_node29"><a xlink:href="core-pb-pointcloud_8h.html" target="_top" xlink:title=" ">
<polygon fill="none" stroke="black" points="928,-301.5 928,-342.5 1064,-342.5 1064,-301.5 928,-301.5"/>
<text text-anchor="start" x="936" y="-330.5" font-family="Helvetica,sans-Serif" font-size="10.00">seerep&#45;srv/seerep&#45;core</text>
<text text-anchor="start" x="936" y="-319.5" font-family="Helvetica,sans-Serif" font-size="10.00">&#45;pb/include/seerep&#45;core</text>
<text text-anchor="middle" x="996" y="-308.5" font-family="Helvetica,sans-Serif" font-size="10.00">&#45;pb/core&#45;pb&#45;pointcloud.h</text>
</a>
</g>
</g>
<!-- Node4&#45;&gt;Node29 -->
<g id="edge35" class="edge">
<title>Node4&#45;&gt;Node29</title>
<path fill="none" stroke="midnightblue" d="M1141.66,-375.93C1113.74,-365.79 1078.57,-353.01 1049.79,-342.55"/>
<polygon fill="midnightblue" stroke="midnightblue" points="1140.61,-379.28 1151.21,-379.4 1143,-372.7 1140.61,-379.28"/>
</g>
<!-- Node31 -->
<g id="node31" class="node">
<title>Node31</title>
<g id="a_node31"><a xlink:href="pb-point-cloud-service_8h.html" target="_top" xlink:title=" ">
<polygon fill="none" stroke="black" points="936.5,-223.5 936.5,-264.5 1075.5,-264.5 1075.5,-223.5 936.5,-223.5"/>
<text text-anchor="start" x="944.5" y="-252.5" font-family="Helvetica,sans-Serif" font-size="10.00">seerep&#45;srv/seerep&#45;server</text>
<text text-anchor="start" x="944.5" y="-241.5" font-family="Helvetica,sans-Serif" font-size="10.00">/include/seerep&#45;server</text>
<text text-anchor="middle" x="1006" y="-230.5" font-family="Helvetica,sans-Serif" font-size="10.00">/pb&#45;point&#45;cloud&#45;service.h</text>
</a>
</g>
</g>
<!-- Node4&#45;&gt;Node31 -->
<g id="edge57" class="edge">
<title>Node4&#45;&gt;Node31</title>
<path fill="none" stroke="midnightblue" d="M1156.06,-374.08C1141.88,-365.32 1125.58,-354.4 1112,-343 1092.49,-326.62 1091.48,-318.54 1073,-301 1059.59,-288.27 1043.74,-274.95 1030.83,-264.5"/>
<polygon fill="midnightblue" stroke="midnightblue" points="1154.65,-377.31 1165.02,-379.5 1158.27,-371.33 1154.65,-377.31"/>
</g>
<!-- Node33 -->
<g id="node33" class="node">
<title>Node33</title>
<g id="a_node33"><a xlink:href="core-pb-tf_8h.html" target="_top" xlink:title=" ">
<polygon fill="none" stroke="black" points="1831.5,-301.5 1831.5,-342.5 1962.5,-342.5 1962.5,-301.5 1831.5,-301.5"/>
<text text-anchor="start" x="1839.5" y="-330.5" font-family="Helvetica,sans-Serif" font-size="10.00">seerep&#45;srv/seerep&#45;core</text>
<text text-anchor="start" x="1839.5" y="-319.5" font-family="Helvetica,sans-Serif" font-size="10.00">&#45;pb/include/seerep&#45;core</text>
<text text-anchor="middle" x="1897" y="-308.5" font-family="Helvetica,sans-Serif" font-size="10.00">&#45;pb/core&#45;pb&#45;tf.h</text>
</a>
</g>
</g>
<!-- Node4&#45;&gt;Node33 -->
<g id="edge40" class="edge">
<title>Node4&#45;&gt;Node33</title>
<path fill="none" stroke="midnightblue" d="M1274.57,-379.01C1469.01,-354.63 1520.21,-361.11 1711,-343 1750.93,-339.21 1795.62,-334.42 1831.19,-330.48"/>
<polygon fill="midnightblue" stroke="midnightblue" points="1274.08,-375.54 1264.6,-380.27 1274.96,-382.49 1274.08,-375.54"/>
</g>
<!-- Node35 -->
<g id="node35" class="node">
<title>Node35</title>
<g id="a_node35"><a xlink:href="pb-tf-service_8h.html" target="_top" xlink:title=" ">
<polygon fill="none" stroke="black" points="1979.5,-223.5 1979.5,-264.5 2118.5,-264.5 2118.5,-223.5 1979.5,-223.5"/>
<text text-anchor="start" x="1987.5" y="-252.5" font-family="Helvetica,sans-Serif" font-size="10.00">seerep&#45;srv/seerep&#45;server</text>
<text text-anchor="start" x="1987.5" y="-241.5" font-family="Helvetica,sans-Serif" font-size="10.00">/include/seerep&#45;server</text>
<text text-anchor="middle" x="2049" y="-230.5" font-family="Helvetica,sans-Serif" font-size="10.00">/pb&#45;tf&#45;service.h</text>
</a>
</g>
</g>
<!-- Node4&#45;&gt;Node35 -->
<g id="edge60" class="edge">
<title>Node4&#45;&gt;Node35</title>
<path fill="none" stroke="midnightblue" d="M1274.72,-379.23C1387.29,-370.89 1905.34,-377.55 1972,-343 2004.85,-325.97 2028.17,-287.97 2040.04,-264.61"/>
<polygon fill="midnightblue" stroke="midnightblue" points="1274.23,-375.76 1264.59,-380.15 1274.86,-382.73 1274.23,-375.76"/>
</g>
<!-- Node37 -->
<g id="node37" class="node">
<title>Node37</title>
<g id="a_node37"><a xlink:href="core_8cpp.html" target="_top" xlink:title=" ">
<polygon fill="none" stroke="black" points="2501.5,-307 2501.5,-337 2630.5,-337 2630.5,-307 2501.5,-307"/>
<text text-anchor="start" x="2509.5" y="-325" font-family="Helvetica,sans-Serif" font-size="10.00">seerep&#45;srv/seerep&#45;core</text>
<text text-anchor="middle" x="2566" y="-314" font-family="Helvetica,sans-Serif" font-size="10.00">/src/core.cpp</text>
</a>
</g>
</g>
<!-- Node4&#45;&gt;Node37 -->
<g id="edge45" class="edge">
<title>Node4&#45;&gt;Node37</title>
<path fill="none" stroke="midnightblue" d="M1274.53,-379.07C1812.39,-326.12 1956.1,-417.17 2487,-343 2496.95,-341.61 2507.46,-339.45 2517.45,-337.06"/>
<polygon fill="midnightblue" stroke="midnightblue" points="1274.18,-375.59 1264.58,-380.06 1274.88,-382.55 1274.18,-375.59"/>
</g>
<!-- Node38 -->
<g id="node38" class="node">
<title>Node38</title>
<g id="a_node38"><a xlink:href="fb-meta-operations_8h.html" target="_top" xlink:title=" ">
<polygon fill="none" stroke="black" points="1120.5,-301.5 1120.5,-342.5 1259.5,-342.5 1259.5,-301.5 1120.5,-301.5"/>
<text text-anchor="start" x="1128.5" y="-330.5" font-family="Helvetica,sans-Serif" font-size="10.00">seerep&#45;srv/seerep&#45;server</text>
<text text-anchor="start" x="1128.5" y="-319.5" font-family="Helvetica,sans-Serif" font-size="10.00">/include/seerep&#45;server</text>
<text text-anchor="middle" x="1190" y="-308.5" font-family="Helvetica,sans-Serif" font-size="10.00">/fb&#45;meta&#45;operations.h</text>
</a>
</g>
</g>
<!-- Node4&#45;&gt;Node38 -->
<g id="edge48" class="edge">
<title>Node4&#45;&gt;Node38</title>
<path fill="none" stroke="midnightblue" d="M1190,-368.98C1190,-360.35 1190,-350.76 1190,-342.59"/>
<polygon fill="midnightblue" stroke="midnightblue" points="1186.5,-369.23 1190,-379.23 1193.5,-369.23 1186.5,-369.23"/>
</g>
<!-- Node40 -->
<g id="node40" class="node">
<title>Node40</title>
<g id="a_node40"><a xlink:href="pb-meta-operations_8h.html" target="_top" xlink:title=" ">
<polygon fill="none" stroke="black" points="1562.5,-301.5 1562.5,-342.5 1701.5,-342.5 1701.5,-301.5 1562.5,-301.5"/>
<text text-anchor="start" x="1570.5" y="-330.5" font-family="Helvetica,sans-Serif" font-size="10.00">seerep&#45;srv/seerep&#45;server</text>
<text text-anchor="start" x="1570.5" y="-319.5" font-family="Helvetica,sans-Serif" font-size="10.00">/include/seerep&#45;server</text>
<text text-anchor="middle" x="1632" y="-308.5" font-family="Helvetica,sans-Serif" font-size="10.00">/pb&#45;meta&#45;operations.h</text>
</a>
</g>
</g>
<!-- Node4&#45;&gt;Node40 -->
<g id="edge54" class="edge">
<title>Node4&#45;&gt;Node40</title>
<path fill="none" stroke="midnightblue" d="M1274.6,-378.92C1381.08,-361.45 1492.32,-344.26 1562.31,-333.57"/>
<polygon fill="midnightblue" stroke="midnightblue" points="1273.94,-375.48 1264.64,-380.55 1275.08,-382.38 1273.94,-375.48"/>
</g>
<!-- Node42 -->
<g id="node42" class="node">
<title>Node42</title>
<g id="a_node42"><a xlink:href="pb-receive-sensor-msgs_8h.html" target="_top" xlink:title=" ">
<polygon fill="none" stroke="black" points="2649,-301.5 2649,-342.5 2795,-342.5 2795,-301.5 2649,-301.5"/>
<text text-anchor="start" x="2657" y="-330.5" font-family="Helvetica,sans-Serif" font-size="10.00">seerep&#45;srv/seerep&#45;server</text>
<text text-anchor="start" x="2657" y="-319.5" font-family="Helvetica,sans-Serif" font-size="10.00">/include/seerep&#45;server</text>
<text text-anchor="middle" x="2722" y="-308.5" font-family="Helvetica,sans-Serif" font-size="10.00">/pb&#45;receive&#45;sensor&#45;msgs.h</text>
</a>
</g>
</g>
<!-- Node4&#45;&gt;Node42 -->
<g id="edge58" class="edge">
<title>Node4&#45;&gt;Node42</title>
<path fill="none" stroke="midnightblue" d="M1274.88,-379.04C1880.18,-320.35 2041.4,-422.96 2640,-343 2642.9,-342.61 2645.86,-342.16 2648.83,-341.66"/>
<polygon fill="midnightblue" stroke="midnightblue" points="1274.19,-375.59 1264.58,-380.05 1274.87,-382.56 1274.19,-375.59"/>
</g>
<!-- Node6&#45;&gt;Node7 -->
<g id="edge6" class="edge">
<title>Node6&#45;&gt;Node7</title>
<path fill="none" stroke="midnightblue" d="M514.45,-301.39C468.07,-289.2 409.03,-273.67 364.64,-262"/>
<polygon fill="midnightblue" stroke="midnightblue" points="513.58,-304.79 524.14,-303.94 515.36,-298.02 513.58,-304.79"/>
</g>
<!-- Node6&#45;&gt;Node13 -->
<g id="edge12" class="edge">
<title>Node6&#45;&gt;Node13</title>
<path fill="none" stroke="midnightblue" d="M554.24,-295.35C540.58,-285.27 525.16,-273.89 512.44,-264.51"/>
<polygon fill="midnightblue" stroke="midnightblue" points="552.35,-298.31 562.47,-301.43 556.51,-292.67 552.35,-298.31"/>
</g>
<!-- Node6&#45;&gt;Node17 -->
<g id="edge17" class="edge">
<title>Node6&#45;&gt;Node17</title>
<path fill="none" stroke="midnightblue" d="M605.35,-292.76C610.8,-283.35 616.73,-273.1 621.71,-264.51"/>
<polygon fill="midnightblue" stroke="midnightblue" points="602.31,-291.02 600.33,-301.43 608.37,-294.53 602.31,-291.02"/>
</g>
<!-- Node8 -->
<g id="node8" class="node">
<title>Node8</title>
<g id="a_node8"><a xlink:href="core-fb-image_8cpp.html" target="_top" xlink:title=" ">
<polygon fill="none" stroke="black" points="158,-151 158,-181 298,-181 298,-151 158,-151"/>
<text text-anchor="start" x="166" y="-169" font-family="Helvetica,sans-Serif" font-size="10.00">seerep&#45;srv/seerep&#45;core</text>
<text text-anchor="middle" x="228" y="-158" font-family="Helvetica,sans-Serif" font-size="10.00">&#45;fb/src/core&#45;fb&#45;image.cpp</text>
</a>
</g>
</g>
<!-- Node7&#45;&gt;Node8 -->
<g id="edge7" class="edge">
<title>Node7&#45;&gt;Node8</title>
<path fill="none" stroke="midnightblue" d="M274.41,-215.99C263.29,-204.25 250.73,-190.99 241.48,-181.23"/>
<polygon fill="midnightblue" stroke="midnightblue" points="272.04,-218.58 281.46,-223.43 277.12,-213.76 272.04,-218.58"/>
</g>
<!-- Node7&#45;&gt;Node9 -->
<g id="edge8" class="edge">
<title>Node7&#45;&gt;Node9</title>
<path fill="none" stroke="midnightblue" d="M230.89,-220.17C198.43,-209.44 160.12,-196.78 129.03,-186.51"/>
<polygon fill="midnightblue" stroke="midnightblue" points="230.18,-223.61 240.77,-223.43 232.37,-216.97 230.18,-223.61"/>
</g>
<!-- Node9&#45;&gt;Node10 -->
<g id="edge9" class="edge">
<title>Node9&#45;&gt;Node10</title>
<path fill="none" stroke="midnightblue" d="M149.54,-145.1C490.49,-95.25 581.38,-129.04 921,-109 992.76,-104.76 1074.78,-98.77 1131.42,-94.45"/>
<polygon fill="midnightblue" stroke="midnightblue" points="149.01,-141.64 139.63,-146.56 150.04,-148.57 149.01,-141.64"/>
</g>
<!-- Node12 -->
<g id="node12" class="node">
<title>Node12</title>
<g id="a_node12"><a xlink:href="fb-image-service_8cpp.html" target="_top" xlink:title=" ">
<polygon fill="none" stroke="black" points="0,-73 0,-103 140,-103 140,-73 0,-73"/>
<text text-anchor="start" x="8" y="-91" font-family="Helvetica,sans-Serif" font-size="10.00">seerep&#45;srv/seerep&#45;server</text>
<text text-anchor="middle" x="70" y="-80" font-family="Helvetica,sans-Serif" font-size="10.00">/src/fb&#45;image&#45;service.cpp</text>
</a>
</g>
</g>
<!-- Node9&#45;&gt;Node12 -->
<g id="edge11" class="edge">
<title>Node9&#45;&gt;Node12</title>
<path fill="none" stroke="midnightblue" d="M70,-135.28C70,-124.25 70,-112.25 70,-103.23"/>
<polygon fill="midnightblue" stroke="midnightblue" points="66.5,-135.43 70,-145.43 73.5,-135.43 66.5,-135.43"/>
</g>
<!-- Node11 -->
<g id="node11" class="node">
<title>Node11</title>
<g id="a_node11"><a xlink:href="server_8cpp.html" target="_top" xlink:title=" ">
<polygon fill="none" stroke="black" points="1131.5,-0.5 1131.5,-30.5 1270.5,-30.5 1270.5,-0.5 1131.5,-0.5"/>
<text text-anchor="start" x="1139.5" y="-18.5" font-family="Helvetica,sans-Serif" font-size="10.00">seerep&#45;srv/seerep&#45;server</text>
<text text-anchor="middle" x="1201" y="-7.5" font-family="Helvetica,sans-Serif" font-size="10.00">/src/server.cpp</text>
</a>
</g>
</g>
<!-- Node10&#45;&gt;Node11 -->
<g id="edge10" class="edge">
<title>Node10&#45;&gt;Node11</title>
<path fill="none" stroke="midnightblue" d="M1201,-57.08C1201,-48.01 1201,-38.45 1201,-30.89"/>
<polygon fill="midnightblue" stroke="midnightblue" points="1197.5,-57.36 1201,-67.36 1204.5,-57.36 1197.5,-57.36"/>
</g>
<!-- Node14 -->
<g id="node14" class="node">
<title>Node14</title>
<g id="a_node14"><a xlink:href="core-fb-point_8cpp.html" target="_top" xlink:title=" ">
<polygon fill="none" stroke="black" points="474,-151 474,-181 608,-181 608,-151 474,-151"/>
<text text-anchor="start" x="482" y="-169" font-family="Helvetica,sans-Serif" font-size="10.00">seerep&#45;srv/seerep&#45;core</text>
<text text-anchor="middle" x="541" y="-158" font-family="Helvetica,sans-Serif" font-size="10.00">&#45;fb/src/core&#45;fb&#45;point.cpp</text>
</a>
</g>
</g>
<!-- Node13&#45;&gt;Node14 -->
<g id="edge13" class="edge">
<title>Node13&#45;&gt;Node14</title>
<path fill="none" stroke="midnightblue" d="M506.03,-215.32C514.4,-203.75 523.77,-190.8 530.71,-181.23"/>
<polygon fill="midnightblue" stroke="midnightblue" points="503.19,-213.27 500.16,-223.43 508.86,-217.38 503.19,-213.27"/>
</g>
<!-- Node13&#45;&gt;Node15 -->
<g id="edge14" class="edge">
<title>Node13&#45;&gt;Node15</title>
<path fill="none" stroke="midnightblue" d="M452.25,-217.35C438.99,-207.27 424.02,-195.89 411.67,-186.51"/>
<polygon fill="midnightblue" stroke="midnightblue" points="450.17,-220.16 460.25,-223.43 454.4,-214.59 450.17,-220.16"/>
</g>
<!-- Node15&#45;&gt;Node10 -->
<g id="edge15" class="edge">
<title>Node15&#45;&gt;Node10</title>
<path fill="none" stroke="midnightblue" d="M465.64,-145.36C544.96,-136.25 963.64,-105.99 1131.47,-93.97"/>
<polygon fill="midnightblue" stroke="midnightblue" points="465.11,-141.9 455.65,-146.68 466.02,-148.84 465.11,-141.9"/>
</g>
<!-- Node16 -->
<g id="node16" class="node">
<title>Node16</title>
<g id="a_node16"><a xlink:href="fb-point-service_8cpp.html" target="_top" xlink:title=" ">
<polygon fill="none" stroke="black" points="316.5,-73 316.5,-103 455.5,-103 455.5,-73 316.5,-73"/>
<text text-anchor="start" x="324.5" y="-91" font-family="Helvetica,sans-Serif" font-size="10.00">seerep&#45;srv/seerep&#45;server</text>
<text text-anchor="middle" x="386" y="-80" font-family="Helvetica,sans-Serif" font-size="10.00">/src/fb&#45;point&#45;service.cpp</text>
</a>
</g>
</g>
<!-- Node15&#45;&gt;Node16 -->
<g id="edge16" class="edge">
<title>Node15&#45;&gt;Node16</title>
<path fill="none" stroke="midnightblue" d="M386,-135.28C386,-124.25 386,-112.25 386,-103.23"/>
<polygon fill="midnightblue" stroke="midnightblue" points="382.5,-135.43 386,-145.43 389.5,-135.43 382.5,-135.43"/>
</g>
<!-- Node18 -->
<g id="node18" class="node">
<title>Node18</title>
<g id="a_node18"><a xlink:href="core-fb-tf_8cpp.html" target="_top" xlink:title=" ">
<polygon fill="none" stroke="black" points="626.5,-151 626.5,-181 755.5,-181 755.5,-151 626.5,-151"/>
<text text-anchor="start" x="634.5" y="-169" font-family="Helvetica,sans-Serif" font-size="10.00">seerep&#45;srv/seerep&#45;core</text>
<text text-anchor="middle" x="691" y="-158" font-family="Helvetica,sans-Serif" font-size="10.00">&#45;fb/src/core&#45;fb&#45;tf.cpp</text>
</a>
</g>
</g>
<!-- Node17&#45;&gt;Node18 -->
<g id="edge18" class="edge">
<title>Node17&#45;&gt;Node18</title>
<path fill="none" stroke="midnightblue" d="M654.13,-215.32C662.95,-203.75 672.83,-190.8 680.14,-181.23"/>
<polygon fill="midnightblue" stroke="midnightblue" points="651.22,-213.36 647.94,-223.43 656.79,-217.6 651.22,-213.36"/>
</g>
<!-- Node17&#45;&gt;Node19 -->
<g id="edge19" class="edge">
<title>Node17&#45;&gt;Node19</title>
<path fill="none" stroke="midnightblue" d="M696.86,-219.89C726.34,-209.22 760.96,-196.69 789.1,-186.51"/>
<polygon fill="midnightblue" stroke="midnightblue" points="695.29,-216.73 687.08,-223.43 697.67,-223.32 695.29,-216.73"/>
</g>
<!-- Node19&#45;&gt;Node10 -->
<g id="edge20" class="edge">
<title>Node19&#45;&gt;Node10</title>
<path fill="none" stroke="midnightblue" d="M922.52,-144.7C999.12,-127.4 1076.99,-112.13 1131.45,-101.84"/>
<polygon fill="midnightblue" stroke="midnightblue" points="921.67,-141.3 912.7,-146.93 923.22,-148.13 921.67,-141.3"/>
</g>
<!-- Node20 -->
<g id="node20" class="node">
<title>Node20</title>
<g id="a_node20"><a xlink:href="fb-tf-service_8cpp.html" target="_top" xlink:title=" ">
<polygon fill="none" stroke="black" points="773.5,-73 773.5,-103 912.5,-103 912.5,-73 773.5,-73"/>
<text text-anchor="start" x="781.5" y="-91" font-family="Helvetica,sans-Serif" font-size="10.00">seerep&#45;srv/seerep&#45;server</text>
<text text-anchor="middle" x="843" y="-80" font-family="Helvetica,sans-Serif" font-size="10.00">/src/fb&#45;tf&#45;service.cpp</text>
</a>
</g>
</g>
<!-- Node19&#45;&gt;Node20 -->
<g id="edge21" class="edge">
<title>Node19&#45;&gt;Node20</title>
<path fill="none" stroke="midnightblue" d="M843,-135.28C843,-124.25 843,-112.25 843,-103.23"/>
<polygon fill="midnightblue" stroke="midnightblue" points="839.5,-135.43 843,-145.43 846.5,-135.43 839.5,-135.43"/>
</g>
<!-- Node22 -->
<g id="node22" class="node">
<title>Node22</title>
<g id="a_node22"><a xlink:href="core-fb-instance_8cpp.html" target="_top" xlink:title=" ">
<polygon fill="none" stroke="black" points="2137,-229 2137,-259 2287,-259 2287,-229 2137,-229"/>
<text text-anchor="start" x="2145" y="-247" font-family="Helvetica,sans-Serif" font-size="10.00">seerep&#45;srv/seerep&#45;core</text>
<text text-anchor="middle" x="2212" y="-236" font-family="Helvetica,sans-Serif" font-size="10.00">&#45;fb/src/core&#45;fb&#45;instance.cpp</text>
</a>
</g>
</g>
<!-- Node21&#45;&gt;Node22 -->
<g id="edge24" class="edge">
<title>Node21&#45;&gt;Node22</title>
<path fill="none" stroke="midnightblue" d="M2212,-291.28C2212,-280.25 2212,-268.25 2212,-259.23"/>
<polygon fill="midnightblue" stroke="midnightblue" points="2208.5,-291.43 2212,-301.43 2215.5,-291.43 2208.5,-291.43"/>
</g>
<!-- Node21&#45;&gt;Node23 -->
<g id="edge25" class="edge">
<title>Node21&#45;&gt;Node23</title>
<path fill="none" stroke="midnightblue" d="M2263.07,-297.19C2285.62,-286.67 2311.8,-274.47 2333.17,-264.51"/>
<polygon fill="midnightblue" stroke="midnightblue" points="2261.56,-294.03 2253.98,-301.43 2264.52,-300.37 2261.56,-294.03"/>
</g>
<!-- Node23&#45;&gt;Node10 -->
<g id="edge26" class="edge">
<title>Node23&#45;&gt;Node10</title>
<path fill="none" stroke="midnightblue" d="M2378.09,-213.09C2378.58,-190.8 2375.02,-161.48 2356,-145 2314.86,-109.37 1514.49,-93.92 1270.81,-90.03"/>
<polygon fill="midnightblue" stroke="midnightblue" points="2374.58,-213.22 2377.58,-223.38 2381.57,-213.57 2374.58,-213.22"/>
</g>
<!-- Node24 -->
<g id="node24" class="node">
<title>Node24</title>
<g id="a_node24"><a xlink:href="fb-instance-service_8cpp.html" target="_top" xlink:title=" ">
<polygon fill="none" stroke="black" points="2195.5,-151 2195.5,-181 2346.5,-181 2346.5,-151 2195.5,-151"/>
<text text-anchor="start" x="2203.5" y="-169" font-family="Helvetica,sans-Serif" font-size="10.00">seerep&#45;srv/seerep&#45;server</text>
<text text-anchor="middle" x="2271" y="-158" font-family="Helvetica,sans-Serif" font-size="10.00">/src/fb&#45;instance&#45;service.cpp</text>
</a>
</g>
</g>
<!-- Node23&#45;&gt;Node24 -->
<g id="edge27" class="edge">
<title>Node23&#45;&gt;Node24</title>
<path fill="none" stroke="midnightblue" d="M2339.86,-217.32C2323.37,-205.27 2304.34,-191.36 2290.47,-181.23"/>
<polygon fill="midnightblue" stroke="midnightblue" points="2338.08,-220.35 2348.22,-223.43 2342.21,-214.7 2338.08,-220.35"/>
</g>
<!-- Node26 -->
<g id="node26" class="node">
<title>Node26</title>
<g id="a_node26"><a xlink:href="core-pb-image_8cpp.html" target="_top" xlink:title=" ">
<polygon fill="none" stroke="black" points="1460,-229 1460,-259 1604,-259 1604,-229 1460,-229"/>
<text text-anchor="start" x="1468" y="-247" font-family="Helvetica,sans-Serif" font-size="10.00">seerep&#45;srv/seerep&#45;core</text>
<text text-anchor="middle" x="1532" y="-236" font-family="Helvetica,sans-Serif" font-size="10.00">&#45;pb/src/core&#45;pb&#45;image.cpp</text>
</a>
</g>
</g>
<!-- Node25&#45;&gt;Node26 -->
<g id="edge31" class="edge">
<title>Node25&#45;&gt;Node26</title>
<path fill="none" stroke="midnightblue" d="M1429.75,-296.81C1454.19,-284.43 1483.09,-269.78 1503.92,-259.23"/>
<polygon fill="midnightblue" stroke="midnightblue" points="1427.97,-293.79 1420.63,-301.43 1431.13,-300.03 1427.97,-293.79"/>
</g>
<!-- Node25&#45;&gt;Node27 -->
<g id="edge32" class="edge">
<title>Node25&#45;&gt;Node27</title>
<path fill="none" stroke="midnightblue" d="M1378.09,-291.3C1376.91,-282.3 1375.64,-272.65 1374.57,-264.51"/>
<polygon fill="midnightblue" stroke="midnightblue" points="1374.65,-291.97 1379.42,-301.43 1381.59,-291.06 1374.65,-291.97"/>
</g>
<!-- Node27&#45;&gt;Node10 -->
<g id="edge33" class="edge">
<title>Node27&#45;&gt;Node10</title>
<path fill="none" stroke="midnightblue" d="M1332.36,-217.7C1319.07,-208.59 1304.48,-197.87 1292,-187 1263.46,-162.14 1234.37,-129.21 1217,-108.56"/>
<polygon fill="midnightblue" stroke="midnightblue" points="1330.61,-220.75 1340.86,-223.44 1334.53,-214.94 1330.61,-220.75"/>
</g>
<!-- Node28 -->
<g id="node28" class="node">
<title>Node28</title>
<g id="a_node28"><a xlink:href="pb-image-service_8cpp.html" target="_top" xlink:title=" ">
<polygon fill="none" stroke="black" points="1300.5,-151 1300.5,-181 1443.5,-181 1443.5,-151 1300.5,-151"/>
<text text-anchor="start" x="1308.5" y="-169" font-family="Helvetica,sans-Serif" font-size="10.00">seerep&#45;srv/seerep&#45;server</text>
<text text-anchor="middle" x="1372" y="-158" font-family="Helvetica,sans-Serif" font-size="10.00">/src/pb&#45;image&#45;service.cpp</text>
</a>
</g>
</g>
<!-- Node27&#45;&gt;Node28 -->
<g id="edge34" class="edge">
<title>Node27&#45;&gt;Node28</title>
<path fill="none" stroke="midnightblue" d="M1372,-213.28C1372,-202.25 1372,-190.25 1372,-181.23"/>
<polygon fill="midnightblue" stroke="midnightblue" points="1368.5,-213.43 1372,-223.43 1375.5,-213.43 1368.5,-213.43"/>
</g>
<!-- Node30 -->
<g id="node30" class="node">
<title>Node30</title>
<g id="a_node30"><a xlink:href="core-pb-pointcloud_8cpp.html" target="_top" xlink:title=" ">
<polygon fill="none" stroke="black" points="754,-229 754,-259 918,-259 918,-229 754,-229"/>
<text text-anchor="start" x="762" y="-247" font-family="Helvetica,sans-Serif" font-size="10.00">seerep&#45;srv/seerep&#45;core</text>
<text text-anchor="middle" x="836" y="-236" font-family="Helvetica,sans-Serif" font-size="10.00">&#45;pb/src/core&#45;pb&#45;pointcloud.cpp</text>
</a>
</g>
</g>
<!-- Node29&#45;&gt;Node30 -->
<g id="edge36" class="edge">
<title>Node29&#45;&gt;Node30</title>
<path fill="none" stroke="midnightblue" d="M945.75,-297.13C919.54,-284.68 888.36,-269.87 865.95,-259.23"/>
<polygon fill="midnightblue" stroke="midnightblue" points="944.26,-300.3 954.8,-301.43 947.26,-293.98 944.26,-300.3"/>
</g>
<!-- Node29&#45;&gt;Node31 -->
<g id="edge37" class="edge">
<title>Node29&#45;&gt;Node31</title>
<path fill="none" stroke="midnightblue" d="M999.91,-291.3C1001.09,-282.3 1002.36,-272.65 1003.43,-264.51"/>
<polygon fill="midnightblue" stroke="midnightblue" points="996.41,-291.06 998.58,-301.43 1003.35,-291.97 996.41,-291.06"/>
</g>
<!-- Node31&#45;&gt;Node10 -->
<g id="edge38" class="edge">
<title>Node31&#45;&gt;Node10</title>
<path fill="none" stroke="midnightblue" d="M1056.09,-218.65C1072.63,-209.67 1090.7,-198.77 1106,-187 1114.4,-180.53 1157.5,-135.2 1182.67,-108.51"/>
<polygon fill="midnightblue" stroke="midnightblue" points="1054.27,-215.66 1047.08,-223.45 1057.56,-221.84 1054.27,-215.66"/>
</g>
<!-- Node32 -->
<g id="node32" class="node">
<title>Node32</title>
<g id="a_node32"><a xlink:href="pb-point-cloud-service_8cpp.html" target="_top" xlink:title=" ">
<polygon fill="none" stroke="black" points="930.5,-151 930.5,-181 1097.5,-181 1097.5,-151 930.5,-151"/>
<text text-anchor="start" x="938.5" y="-169" font-family="Helvetica,sans-Serif" font-size="10.00">seerep&#45;srv/seerep&#45;server</text>
<text text-anchor="middle" x="1014" y="-158" font-family="Helvetica,sans-Serif" font-size="10.00">/src/pb&#45;point&#45;cloud&#45;service.cpp</text>
</a>
</g>
</g>
<!-- Node31&#45;&gt;Node32 -->
<g id="edge39" class="edge">
<title>Node31&#45;&gt;Node32</title>
<path fill="none" stroke="midnightblue" d="M1009.13,-213.28C1010.29,-202.25 1011.55,-190.25 1012.5,-181.23"/>
<polygon fill="midnightblue" stroke="midnightblue" points="1005.63,-213.12 1008.06,-223.43 1012.59,-213.85 1005.63,-213.12"/>
</g>
<!-- Node34 -->
<g id="node34" class="node">
<title>Node34</title>
<g id="a_node34"><a xlink:href="core-pb-tf_8cpp.html" target="_top" xlink:title=" ">
<polygon fill="none" stroke="black" points="1832.5,-229 1832.5,-259 1961.5,-259 1961.5,-229 1832.5,-229"/>
<text text-anchor="start" x="1840.5" y="-247" font-family="Helvetica,sans-Serif" font-size="10.00">seerep&#45;srv/seerep&#45;core</text>
<text text-anchor="middle" x="1897" y="-236" font-family="Helvetica,sans-Serif" font-size="10.00">&#45;pb/src/core&#45;pb&#45;tf.cpp</text>
</a>
</g>
</g>
<!-- Node33&#45;&gt;Node34 -->
<g id="edge41" class="edge">
<title>Node33&#45;&gt;Node34</title>
<path fill="none" stroke="midnightblue" d="M1897,-291.28C1897,-280.25 1897,-268.25 1897,-259.23"/>
<polygon fill="midnightblue" stroke="midnightblue" points="1893.5,-291.43 1897,-301.43 1900.5,-291.43 1893.5,-291.43"/>
</g>
<!-- Node33&#45;&gt;Node35 -->
<g id="edge42" class="edge">
<title>Node33&#45;&gt;Node35</title>
<path fill="none" stroke="midnightblue" d="M1945.18,-296.91C1966.08,-286.46 1990.24,-274.38 2009.99,-264.51"/>
<polygon fill="midnightblue" stroke="midnightblue" points="1943.52,-293.83 1936.14,-301.43 1946.65,-300.09 1943.52,-293.83"/>
</g>
<!-- Node35&#45;&gt;Node10 -->
<g id="edge43" class="edge">
<title>Node35&#45;&gt;Node10</title>
<path fill="none" stroke="midnightblue" d="M2052,-213.19C2052.44,-190.96 2048.87,-161.66 2030,-145 1973.67,-95.26 1459.8,-89.39 1270.55,-88.93"/>
<polygon fill="midnightblue" stroke="midnightblue" points="2048.49,-213.3 2051.52,-223.45 2055.49,-213.63 2048.49,-213.3"/>
</g>
<!-- Node36 -->
<g id="node36" class="node">
<title>Node36</title>
<g id="a_node36"><a xlink:href="pb-tf-service_8cpp.html" target="_top" xlink:title=" ">
<polygon fill="none" stroke="black" points="1881.5,-151 1881.5,-181 2020.5,-181 2020.5,-151 1881.5,-151"/>
<text text-anchor="start" x="1889.5" y="-169" font-family="Helvetica,sans-Serif" font-size="10.00">seerep&#45;srv/seerep&#45;server</text>
<text text-anchor="middle" x="1951" y="-158" font-family="Helvetica,sans-Serif" font-size="10.00">/src/pb&#45;tf&#45;service.cpp</text>
</a>
</g>
</g>
<!-- Node35&#45;&gt;Node36 -->
<g id="edge44" class="edge">
<title>Node35&#45;&gt;Node36</title>
<path fill="none" stroke="midnightblue" d="M2015.46,-216.99C2000.02,-205.02 1982.29,-191.27 1969.34,-181.23"/>
<polygon fill="midnightblue" stroke="midnightblue" points="2013.72,-220.07 2023.76,-223.43 2018.01,-214.53 2013.72,-220.07"/>
</g>
<!-- Node38&#45;&gt;Node10 -->
<g id="edge49" class="edge">
<title>Node38&#45;&gt;Node10</title>
<path fill="none" stroke="midnightblue" d="M1147.64,-295.11C1137.72,-286.82 1128.47,-276.7 1123,-265 1115.09,-248.09 1118.14,-241.02 1123,-223 1126.33,-210.66 1167.68,-142.82 1188.78,-108.67"/>
<polygon fill="midnightblue" stroke="midnightblue" points="1145.62,-297.98 1155.66,-301.36 1149.92,-292.46 1145.62,-297.98"/>
</g>
<!-- Node39 -->
<g id="node39" class="node">
<title>Node39</title>
<g id="a_node39"><a xlink:href="fb-meta-operations_8cpp.html" target="_top" xlink:title=" ">
<polygon fill="none" stroke="black" points="1132,-229 1132,-259 1284,-259 1284,-229 1132,-229"/>
<text text-anchor="start" x="1140" y="-247" font-family="Helvetica,sans-Serif" font-size="10.00">seerep&#45;srv/seerep&#45;server</text>
<text text-anchor="middle" x="1208" y="-236" font-family="Helvetica,sans-Serif" font-size="10.00">/src/fb&#45;meta&#45;operations.cpp</text>
</a>
</g>
</g>
<!-- Node38&#45;&gt;Node39 -->
<g id="edge50" class="edge">
<title>Node38&#45;&gt;Node39</title>
<path fill="none" stroke="midnightblue" d="M1196.96,-291.62C1199.59,-280.5 1202.47,-268.34 1204.63,-259.23"/>
<polygon fill="midnightblue" stroke="midnightblue" points="1193.53,-290.89 1194.64,-301.43 1200.35,-292.5 1193.53,-290.89"/>
</g>
<!-- Node40&#45;&gt;Node10 -->
<g id="edge55" class="edge">
<title>Node40&#45;&gt;Node10</title>
<path fill="none" stroke="midnightblue" d="M1632.95,-291.25C1632.14,-270.21 1627.89,-242.41 1613,-223 1531.74,-117.07 1365.1,-93.61 1270.54,-89.19"/>
<polygon fill="midnightblue" stroke="midnightblue" points="1629.45,-291.31 1633.1,-301.26 1636.45,-291.2 1629.45,-291.31"/>
</g>
<!-- Node41 -->
<g id="node41" class="node">
<title>Node41</title>
<g id="a_node41"><a xlink:href="pb-meta-operations_8cpp.html" target="_top" xlink:title=" ">
<polygon fill="none" stroke="black" points="1660,-229 1660,-259 1814,-259 1814,-229 1660,-229"/>
<text text-anchor="start" x="1668" y="-247" font-family="Helvetica,sans-Serif" font-size="10.00">seerep&#45;srv/seerep&#45;server</text>
<text text-anchor="middle" x="1737" y="-236" font-family="Helvetica,sans-Serif" font-size="10.00">/src/pb&#45;meta&#45;operations.cpp</text>
</a>
</g>
</g>
<!-- Node40&#45;&gt;Node41 -->
<g id="edge56" class="edge">
<title>Node40&#45;&gt;Node41</title>
<path fill="none" stroke="midnightblue" d="M1667.47,-295.32C1684.13,-283.27 1703.34,-269.36 1717.35,-259.23"/>
<polygon fill="midnightblue" stroke="midnightblue" points="1665.09,-292.73 1659.04,-301.43 1669.19,-298.4 1665.09,-292.73"/>
</g>
<!-- Node43 -->
<g id="node43" class="node">
<title>Node43</title>
<g id="a_node43"><a xlink:href="pb-receive-sensor-msgs_8cpp.html" target="_top" xlink:title=" ">
<polygon fill="none" stroke="black" points="2652.5,-223.5 2652.5,-264.5 2791.5,-264.5 2791.5,-223.5 2652.5,-223.5"/>
<text text-anchor="start" x="2660.5" y="-252.5" font-family="Helvetica,sans-Serif" font-size="10.00">seerep&#45;srv/seerep&#45;server</text>
<text text-anchor="start" x="2660.5" y="-241.5" font-family="Helvetica,sans-Serif" font-size="10.00">/src/pb&#45;receive&#45;sensor</text>
<text text-anchor="middle" x="2722" y="-230.5" font-family="Helvetica,sans-Serif" font-size="10.00">&#45;msgs.cpp</text>
</a>
</g>
</g>
<!-- Node42&#45;&gt;Node43 -->
<g id="edge59" class="edge">
<title>Node42&#45;&gt;Node43</title>
<path fill="none" stroke="midnightblue" d="M2722,-291.3C2722,-282.3 2722,-272.65 2722,-264.51"/>
<polygon fill="midnightblue" stroke="midnightblue" points="2718.5,-291.43 2722,-301.43 2725.5,-291.43 2718.5,-291.43"/>
</g>
</g>
</svg>
