<?xml version="1.0" encoding="UTF-8" standalone="no"?>
<!DOCTYPE svg PUBLIC "-//W3C//DTD SVG 1.1//EN"
 "http://www.w3.org/Graphics/SVG/1.1/DTD/svg11.dtd">
<!-- Generated by graphviz version 2.43.0 (0)
 -->
<!-- Title: seerep_hdf5/seerep_hdf5_pb/include/seerep_hdf5_pb/hdf5_pb_image.h Pages: 1 -->
<svg width="2635pt" height="363pt"
 viewBox="0.00 0.00 2634.50 363.00" xmlns="http://www.w3.org/2000/svg" xmlns:xlink="http://www.w3.org/1999/xlink">
<g id="graph0" class="graph" transform="scale(1 1) rotate(0) translate(4 359)">
<title>seerep_hdf5/seerep_hdf5_pb/include/seerep_hdf5_pb/hdf5_pb_image.h</title>
<!-- Node1 -->
<g id="node1" class="node">
<title>Node1</title>
<g id="a_node1"><a xlink:title=" ">
<polygon fill="#bfbfbf" stroke="black" points="1483,-313.5 1483,-354.5 1631,-354.5 1631,-313.5 1483,-313.5"/>
<text text-anchor="start" x="1491" y="-342.5" font-family="Helvetica,sans-Serif" font-size="10.00">seerep_hdf5/seerep</text>
<text text-anchor="start" x="1491" y="-331.5" font-family="Helvetica,sans-Serif" font-size="10.00">_hdf5_pb/include/seerep</text>
<text text-anchor="middle" x="1557" y="-320.5" font-family="Helvetica,sans-Serif" font-size="10.00">_hdf5_pb/hdf5_pb_image.h</text>
</a>
</g>
</g>
<!-- Node2 -->
<g id="node2" class="node">
<title>Node2</title>
<g id="a_node2"><a xlink:title=" ">
<polygon fill="none" stroke="#bfbfbf" points="2201,-62 2201,-81 2311,-81 2311,-62 2201,-62"/>
<text text-anchor="middle" x="2256" y="-69" font-family="Helvetica,sans-Serif" font-size="10.00">highfive/H5File.hpp</text>
</a>
</g>
</g>
<!-- Node1&#45;&gt;Node2 -->
<g id="edge1" class="edge">
<title>Node1&#45;&gt;Node2</title>
<path fill="none" stroke="midnightblue" d="M1631.15,-324.97C1747.27,-310.85 1977.87,-276.55 2163,-210 2212.77,-192.11 2240.79,-199.35 2268,-154 2279.64,-134.6 2272.31,-108.06 2265.02,-90.61"/>
<polygon fill="midnightblue" stroke="midnightblue" points="2267.99,-88.7 2260.65,-81.06 2261.63,-91.61 2267.99,-88.7"/>
</g>
<!-- Node3 -->
<g id="node3" class="node">
<title>Node3</title>
<g id="a_node3"><a xlink:href="hdf5__core__image_8h.html" target="_top" xlink:title=" ">
<polygon fill="none" stroke="black" points="1398,-246.5 1398,-276.5 1526,-276.5 1526,-246.5 1398,-246.5"/>
<text text-anchor="start" x="1406" y="-264.5" font-family="Helvetica,sans-Serif" font-size="10.00">seerep_hdf5_core/hdf5</text>
<text text-anchor="middle" x="1462" y="-253.5" font-family="Helvetica,sans-Serif" font-size="10.00">_core_image.h</text>
</a>
</g>
</g>
<!-- Node1&#45;&gt;Node3 -->
<g id="edge2" class="edge">
<title>Node1&#45;&gt;Node3</title>
<path fill="none" stroke="midnightblue" d="M1530.54,-313.36C1517.66,-303.8 1502.19,-292.33 1489.21,-282.69"/>
<polygon fill="midnightblue" stroke="midnightblue" points="1491.21,-279.82 1481.09,-276.67 1487.04,-285.44 1491.21,-279.82"/>
</g>
<!-- Node12 -->
<g id="node12" class="node">
<title>Node12</title>
<g id="a_node12"><a xlink:title=" ">
<polygon fill="none" stroke="#bfbfbf" points="295.5,-62 295.5,-81 408.5,-81 408.5,-62 295.5,-62"/>
<text text-anchor="middle" x="352" y="-69" font-family="Helvetica,sans-Serif" font-size="10.00">boost/geometry.hpp</text>
</a>
</g>
</g>
<!-- Node1&#45;&gt;Node12 -->
<g id="edge59" class="edge">
<title>Node1&#45;&gt;Node12</title>
<path fill="none" stroke="midnightblue" d="M1482.99,-318.3C1398.47,-299.85 1257.39,-263.94 1145,-210 1105.54,-191.06 1098.25,-181.25 1064,-154 1048,-141.27 1048.84,-130.94 1030,-123 904.47,-70.07 552.95,-105.67 418,-87 410.81,-86 403.24,-84.64 395.89,-83.15"/>
<polygon fill="midnightblue" stroke="midnightblue" points="396.58,-79.72 386.07,-81.06 395.12,-86.57 396.58,-79.72"/>
</g>
<!-- Node14 -->
<g id="node14" class="node">
<title>Node14</title>
<g id="a_node14"><a xlink:title=" ">
<polygon fill="none" stroke="#bfbfbf" points="1987,-62 1987,-81 2043,-81 2043,-62 1987,-62"/>
<text text-anchor="middle" x="2015" y="-69" font-family="Helvetica,sans-Serif" font-size="10.00">optional</text>
</a>
</g>
</g>
<!-- Node1&#45;&gt;Node14 -->
<g id="edge60" class="edge">
<title>Node1&#45;&gt;Node14</title>
<path fill="none" stroke="midnightblue" d="M1561.37,-313.28C1571.97,-270.49 1603.42,-169.26 1672,-123 1728.76,-84.71 1911.58,-103.63 1978,-87 1980.67,-86.33 1983.4,-85.52 1986.12,-84.63"/>
<polygon fill="midnightblue" stroke="midnightblue" points="1987.52,-87.84 1995.72,-81.13 1985.13,-81.26 1987.52,-87.84"/>
</g>
<!-- Node31 -->
<g id="node31" class="node">
<title>Node31</title>
<g id="a_node31"><a xlink:href="hdf5__pb__general_8h.html" target="_top" xlink:title=" ">
<polygon fill="none" stroke="black" points="798.5,-190.5 798.5,-209.5 905.5,-209.5 905.5,-190.5 798.5,-190.5"/>
<text text-anchor="middle" x="852" y="-197.5" font-family="Helvetica,sans-Serif" font-size="10.00">hdf5_pb_general.h</text>
</a>
</g>
</g>
<!-- Node1&#45;&gt;Node31 -->
<g id="edge47" class="edge">
<title>Node1&#45;&gt;Node31</title>
<path fill="none" stroke="midnightblue" d="M1482.92,-331.63C1380.83,-328.27 1191.82,-316.69 1036,-277 976.91,-261.95 911.88,-231.55 877.16,-214.11"/>
<polygon fill="midnightblue" stroke="midnightblue" points="878.7,-210.96 868.2,-209.55 875.53,-217.2 878.7,-210.96"/>
</g>
<!-- Node36 -->
<g id="node36" class="node">
<title>Node36</title>
<g id="a_node36"><a xlink:title=" ">
<polygon fill="none" stroke="#bfbfbf" points="2386.5,-252 2386.5,-271 2525.5,-271 2525.5,-252 2386.5,-252"/>
<text text-anchor="middle" x="2456" y="-259" font-family="Helvetica,sans-Serif" font-size="10.00">seerep_msgs/image.pb.h</text>
</a>
</g>
</g>
<!-- Node1&#45;&gt;Node36 -->
<g id="edge58" class="edge">
<title>Node1&#45;&gt;Node36</title>
<path fill="none" stroke="midnightblue" d="M1631.13,-330.45C1774.59,-324.95 2100.06,-309.73 2372,-277 2381.6,-275.85 2391.76,-274.34 2401.59,-272.73"/>
<polygon fill="midnightblue" stroke="midnightblue" points="2402.38,-276.14 2411.66,-271.03 2401.22,-269.24 2402.38,-276.14"/>
</g>
<!-- Node3&#45;&gt;Node2 -->
<g id="edge3" class="edge">
<title>Node3&#45;&gt;Node2</title>
<path fill="none" stroke="midnightblue" d="M1526.06,-260.98C1641.13,-260.62 1889.87,-254.2 2094,-210 2165.59,-194.5 2204.39,-212.09 2249,-154 2262.69,-136.18 2262.13,-109.24 2259.7,-91.28"/>
<polygon fill="midnightblue" stroke="midnightblue" points="2263.12,-90.47 2258.02,-81.18 2256.21,-91.62 2263.12,-90.47"/>
</g>
<!-- Node4 -->
<g id="node4" class="node">
<title>Node4</title>
<g id="a_node4"><a xlink:href="hdf5__core__cameraintrinsics_8h.html" target="_top" xlink:title=" ">
<polygon fill="none" stroke="black" points="1925,-190.5 1925,-209.5 2085,-209.5 2085,-190.5 1925,-190.5"/>
<text text-anchor="middle" x="2005" y="-197.5" font-family="Helvetica,sans-Serif" font-size="10.00">hdf5_core_cameraintrinsics.h</text>
</a>
</g>
</g>
<!-- Node3&#45;&gt;Node4 -->
<g id="edge4" class="edge">
<title>Node3&#45;&gt;Node4</title>
<path fill="none" stroke="midnightblue" d="M1526.15,-253.47C1623.17,-242.84 1807.49,-222.64 1916.98,-210.65"/>
<polygon fill="midnightblue" stroke="midnightblue" points="1917.45,-214.11 1927.01,-209.55 1916.69,-207.16 1917.45,-214.11"/>
</g>
<!-- Node6 -->
<g id="node6" class="node">
<title>Node6</title>
<g id="a_node6"><a xlink:href="hdf5__core__general_8h.html" target="_top" xlink:title=" ">
<polygon fill="none" stroke="black" points="1268,-123.5 1268,-153.5 1396,-153.5 1396,-123.5 1268,-123.5"/>
<text text-anchor="start" x="1276" y="-141.5" font-family="Helvetica,sans-Serif" font-size="10.00">seerep_hdf5_core/hdf5</text>
<text text-anchor="middle" x="1332" y="-130.5" font-family="Helvetica,sans-Serif" font-size="10.00">_core_general.h</text>
</a>
</g>
</g>
<!-- Node3&#45;&gt;Node6 -->
<g id="edge37" class="edge">
<title>Node3&#45;&gt;Node6</title>
<path fill="none" stroke="midnightblue" d="M1446.83,-246.38C1424.13,-225.25 1381.16,-185.26 1354.71,-160.64"/>
<polygon fill="midnightblue" stroke="midnightblue" points="1356.78,-157.78 1347.07,-153.53 1352.01,-162.9 1356.78,-157.78"/>
</g>
<!-- Node8 -->
<g id="node8" class="node">
<title>Node8</title>
<g id="a_node8"><a xlink:title=" ">
<polygon fill="none" stroke="#bfbfbf" points="2061.5,-56.5 2061.5,-86.5 2182.5,-86.5 2182.5,-56.5 2061.5,-56.5"/>
<text text-anchor="start" x="2069.5" y="-74.5" font-family="Helvetica,sans-Serif" font-size="10.00">seerep_msgs/dataset</text>
<text text-anchor="middle" x="2122" y="-63.5" font-family="Helvetica,sans-Serif" font-size="10.00">_indexable.h</text>
</a>
</g>
</g>
<!-- Node3&#45;&gt;Node8 -->
<g id="edge38" class="edge">
<title>Node3&#45;&gt;Node8</title>
<path fill="none" stroke="midnightblue" d="M1477.41,-246.48C1510.3,-217.51 1590.98,-151.39 1672,-123 1829.05,-67.96 1882.22,-110.55 2051.38,-86.94"/>
<polygon fill="midnightblue" stroke="midnightblue" points="2051.97,-90.39 2061.37,-85.48 2050.97,-83.46 2051.97,-90.39"/>
</g>
<!-- Node11 -->
<g id="node11" class="node">
<title>Node11</title>
<g id="a_node11"><a xlink:title=" ">
<polygon fill="none" stroke="#bfbfbf" points="427,-62 427,-81 591,-81 591,-62 427,-62"/>
<text text-anchor="middle" x="509" y="-69" font-family="Helvetica,sans-Serif" font-size="10.00">seerep_msgs/label_category.h</text>
</a>
</g>
</g>
<!-- Node3&#45;&gt;Node11 -->
<g id="edge39" class="edge">
<title>Node3&#45;&gt;Node11</title>
<path fill="none" stroke="midnightblue" d="M1397.86,-252.9C1349.78,-245.73 1283.07,-232.61 1228,-210 1185.12,-192.39 1177.58,-181.14 1140,-154 1122.33,-141.24 1122.26,-131.04 1102,-123 998.05,-81.73 711.11,-99.81 600,-87 589.52,-85.79 578.41,-84.24 567.67,-82.61"/>
<polygon fill="midnightblue" stroke="midnightblue" points="567.96,-79.11 557.54,-81.03 566.88,-86.03 567.96,-79.11"/>
</g>
<!-- Node3&#45;&gt;Node12 -->
<g id="edge40" class="edge">
<title>Node3&#45;&gt;Node12</title>
<path fill="none" stroke="midnightblue" d="M1397.75,-256.16C1340.46,-250.57 1255.2,-238 1186,-210 1144.41,-193.17 1138.09,-180.66 1102,-154 1084.47,-141.05 1084.32,-130.88 1064,-123 929.95,-71.01 560.45,-106.49 418,-87 410.73,-86.01 403.07,-84.63 395.65,-83.12"/>
<polygon fill="midnightblue" stroke="midnightblue" points="396.24,-79.67 385.73,-81 394.78,-86.51 396.24,-79.67"/>
</g>
<!-- Node3&#45;&gt;Node14 -->
<g id="edge41" class="edge">
<title>Node3&#45;&gt;Node14</title>
<path fill="none" stroke="midnightblue" d="M1463.7,-246.25C1467.98,-217.44 1482.02,-152.53 1524,-123 1606.77,-64.76 1879.38,-109.71 1978,-87 1980.84,-86.35 1983.74,-85.52 1986.62,-84.58"/>
<polygon fill="midnightblue" stroke="midnightblue" points="1987.93,-87.83 1996.14,-81.13 1985.54,-81.25 1987.93,-87.83"/>
</g>
<!-- Node18 -->
<g id="node18" class="node">
<title>Node18</title>
<g id="a_node18"><a xlink:title=" ">
<polygon fill="none" stroke="#bfbfbf" points="609.5,-62 609.5,-81 752.5,-81 752.5,-62 609.5,-62"/>
<text text-anchor="middle" x="681" y="-69" font-family="Helvetica,sans-Serif" font-size="10.00">boost/functional/hash.hpp</text>
</a>
</g>
</g>
<!-- Node3&#45;&gt;Node18 -->
<g id="edge42" class="edge">
<title>Node3&#45;&gt;Node18</title>
<path fill="none" stroke="midnightblue" d="M1397.64,-248.06C1360.14,-239.68 1312.42,-227.02 1272,-210 1227.18,-191.13 1217.84,-181.89 1178,-154 1160.14,-141.5 1160.16,-131.28 1140,-123 983.47,-58.75 928.62,-110.11 761,-87 752.36,-85.81 743.24,-84.35 734.36,-82.82"/>
<polygon fill="midnightblue" stroke="midnightblue" points="734.95,-79.37 724.49,-81.07 733.73,-86.26 734.95,-79.37"/>
</g>
<!-- Node19 -->
<g id="node19" class="node">
<title>Node19</title>
<g id="a_node19"><a xlink:title=" ">
<polygon fill="none" stroke="#bfbfbf" points="770.5,-62 770.5,-81 895.5,-81 895.5,-62 770.5,-62"/>
<text text-anchor="middle" x="833" y="-69" font-family="Helvetica,sans-Serif" font-size="10.00">boost/lexical_cast.hpp</text>
</a>
</g>
</g>
<!-- Node3&#45;&gt;Node19 -->
<g id="edge43" class="edge">
<title>Node3&#45;&gt;Node19</title>
<path fill="none" stroke="midnightblue" d="M1415.85,-246.46C1387.22,-237.23 1349.94,-224.25 1318,-210 1270.77,-188.93 1258.88,-182.91 1216,-154 1197.93,-141.82 1198.01,-131.64 1178,-123 1065.65,-74.47 1025.72,-107.09 905,-87 897.82,-85.81 890.27,-84.42 882.86,-83"/>
<polygon fill="midnightblue" stroke="midnightblue" points="883.39,-79.53 872.9,-81.04 882.04,-86.4 883.39,-79.53"/>
</g>
<!-- Node20 -->
<g id="node20" class="node">
<title>Node20</title>
<g id="a_node20"><a xlink:title=" ">
<polygon fill="none" stroke="#bfbfbf" points="2329.5,-62 2329.5,-81 2442.5,-81 2442.5,-62 2329.5,-62"/>
<text text-anchor="middle" x="2386" y="-69" font-family="Helvetica,sans-Serif" font-size="10.00">boost/uuid/uuid.hpp</text>
</a>
</g>
</g>
<!-- Node3&#45;&gt;Node20 -->
<g id="edge44" class="edge">
<title>Node3&#45;&gt;Node20</title>
<path fill="none" stroke="midnightblue" d="M1526.05,-259.28C1675.68,-255.89 2044.45,-244.21 2163,-210 2248.36,-185.37 2333.29,-118.27 2368.75,-87.85"/>
<polygon fill="midnightblue" stroke="midnightblue" points="2371.05,-90.49 2376.3,-81.29 2366.46,-85.21 2371.05,-90.49"/>
</g>
<!-- Node21 -->
<g id="node21" class="node">
<title>Node21</title>
<g id="a_node21"><a xlink:title=" ">
<polygon fill="none" stroke="#bfbfbf" points="914,-62 914,-81 1084,-81 1084,-62 914,-62"/>
<text text-anchor="middle" x="999" y="-69" font-family="Helvetica,sans-Serif" font-size="10.00">boost/uuid/uuid_generators.hpp</text>
</a>
</g>
</g>
<!-- Node3&#45;&gt;Node21 -->
<g id="edge45" class="edge">
<title>Node3&#45;&gt;Node21</title>
<path fill="none" stroke="midnightblue" d="M1432.03,-246.43C1391.76,-227.16 1318.4,-190.74 1259,-154 1238.96,-141.61 1237.45,-132.75 1216,-123 1187.74,-110.15 1109.61,-93.56 1055.26,-82.98"/>
<polygon fill="midnightblue" stroke="midnightblue" points="1055.88,-79.53 1045.4,-81.07 1054.56,-86.4 1055.88,-79.53"/>
</g>
<!-- Node22 -->
<g id="node22" class="node">
<title>Node22</title>
<g id="a_node22"><a xlink:title=" ">
<polygon fill="none" stroke="#bfbfbf" points="1841.5,-62 1841.5,-81 1968.5,-81 1968.5,-62 1841.5,-62"/>
<text text-anchor="middle" x="1905" y="-69" font-family="Helvetica,sans-Serif" font-size="10.00">boost/uuid/uuid_io.hpp</text>
</a>
</g>
</g>
<!-- Node3&#45;&gt;Node22 -->
<g id="edge46" class="edge">
<title>Node3&#45;&gt;Node22</title>
<path fill="none" stroke="midnightblue" d="M1459.55,-246.29C1455.61,-218.14 1451.45,-155.23 1486,-123 1542.69,-70.12 1756.36,-98.67 1833,-87 1840.54,-85.85 1848.48,-84.45 1856.23,-82.97"/>
<polygon fill="midnightblue" stroke="midnightblue" points="1857.12,-86.37 1866.26,-81.01 1855.77,-79.5 1857.12,-86.37"/>
</g>
<!-- Node30 -->
<g id="node30" class="node">
<title>Node30</title>
<g id="a_node30"><a xlink:href="hdf5__core__datatype__interface_8h.html" target="_top" xlink:title=" ">
<polygon fill="none" stroke="black" points="1680.5,-123.5 1680.5,-153.5 1793.5,-153.5 1793.5,-123.5 1680.5,-123.5"/>
<text text-anchor="start" x="1688.5" y="-141.5" font-family="Helvetica,sans-Serif" font-size="10.00">hdf5_core_datatype</text>
<text text-anchor="middle" x="1737" y="-130.5" font-family="Helvetica,sans-Serif" font-size="10.00">_interface.h</text>
</a>
</g>
</g>
<!-- Node3&#45;&gt;Node30 -->
<g id="edge33" class="edge">
<title>Node3&#45;&gt;Node30</title>
<path fill="none" stroke="midnightblue" d="M1494.08,-246.38C1544.07,-224.39 1640.52,-181.95 1695.65,-157.69"/>
<polygon fill="midnightblue" stroke="midnightblue" points="1697.38,-160.76 1705.12,-153.53 1694.56,-154.35 1697.38,-160.76"/>
</g>
<!-- Node4&#45;&gt;Node2 -->
<g id="edge6" class="edge">
<title>Node4&#45;&gt;Node2</title>
<path fill="none" stroke="midnightblue" d="M2085.05,-190.77C2138.99,-183.73 2203.99,-171.86 2225,-154 2243.62,-138.17 2251.08,-109.9 2254.06,-91.17"/>
<polygon fill="midnightblue" stroke="midnightblue" points="2257.54,-91.55 2255.36,-81.18 2250.6,-90.64 2257.54,-91.55"/>
</g>
<!-- Node5 -->
<g id="node5" class="node">
<title>Node5</title>
<g id="a_node5"><a xlink:title=" ">
<polygon fill="none" stroke="#bfbfbf" points="2084,-129 2084,-148 2216,-148 2216,-129 2084,-129"/>
<text text-anchor="middle" x="2150" y="-136" font-family="Helvetica,sans-Serif" font-size="10.00">highfive/H5DataSet.hpp</text>
</a>
</g>
</g>
<!-- Node4&#45;&gt;Node5 -->
<g id="edge5" class="edge">
<title>Node4&#45;&gt;Node5</title>
<path fill="none" stroke="midnightblue" d="M2025.77,-190.48C2050.43,-180.36 2091.75,-163.4 2119.9,-151.85"/>
<polygon fill="midnightblue" stroke="midnightblue" points="2121.34,-155.04 2129.26,-148.01 2118.68,-148.57 2121.34,-155.04"/>
</g>
<!-- Node4&#45;&gt;Node6 -->
<g id="edge7" class="edge">
<title>Node4&#45;&gt;Node6</title>
<path fill="none" stroke="midnightblue" d="M1924.82,-191.91C1793.32,-180.29 1533.72,-157.33 1406.22,-146.06"/>
<polygon fill="midnightblue" stroke="midnightblue" points="1406.42,-142.57 1396.15,-145.17 1405.81,-149.54 1406.42,-142.57"/>
</g>
<!-- Node24 -->
<g id="node24" class="node">
<title>Node24</title>
<g id="a_node24"><a xlink:href="header_8h.html" target="_top" xlink:title=" ">
<polygon fill="none" stroke="black" points="2428.5,-129 2428.5,-148 2487.5,-148 2487.5,-129 2428.5,-129"/>
<text text-anchor="middle" x="2458" y="-136" font-family="Helvetica,sans-Serif" font-size="10.00">header.h</text>
</a>
</g>
</g>
<!-- Node4&#45;&gt;Node24 -->
<g id="edge26" class="edge">
<title>Node4&#45;&gt;Node24</title>
<path fill="none" stroke="midnightblue" d="M2069.9,-190.48C2165.2,-177.96 2340.11,-154.98 2418.35,-144.71"/>
<polygon fill="midnightblue" stroke="midnightblue" points="2418.83,-148.17 2428.29,-143.4 2417.92,-141.23 2418.83,-148.17"/>
</g>
<!-- Node28 -->
<g id="node28" class="node">
<title>Node28</title>
<g id="a_node28"><a xlink:href="region__of__interest_8h.html" target="_top" xlink:title=" ">
<polygon fill="none" stroke="black" points="1812,-129 1812,-148 1926,-148 1926,-129 1812,-129"/>
<text text-anchor="middle" x="1869" y="-136" font-family="Helvetica,sans-Serif" font-size="10.00">region_of_interest.h</text>
</a>
</g>
</g>
<!-- Node4&#45;&gt;Node28 -->
<g id="edge31" class="edge">
<title>Node4&#45;&gt;Node28</title>
<path fill="none" stroke="midnightblue" d="M1985.51,-190.48C1962.59,-180.45 1924.31,-163.7 1897.92,-152.15"/>
<polygon fill="midnightblue" stroke="midnightblue" points="1899.01,-148.81 1888.45,-148.01 1896.21,-155.22 1899.01,-148.81"/>
</g>
<!-- Node29 -->
<g id="node29" class="node">
<title>Node29</title>
<g id="a_node29"><a xlink:title=" ">
<polygon fill="none" stroke="#bfbfbf" points="1944.5,-123.5 1944.5,-153.5 2065.5,-153.5 2065.5,-123.5 1944.5,-123.5"/>
<text text-anchor="start" x="1952.5" y="-141.5" font-family="Helvetica,sans-Serif" font-size="10.00">seerep_msgs/camera</text>
<text text-anchor="middle" x="2005" y="-130.5" font-family="Helvetica,sans-Serif" font-size="10.00">_intrinsics.h</text>
</a>
</g>
</g>
<!-- Node4&#45;&gt;Node29 -->
<g id="edge32" class="edge">
<title>Node4&#45;&gt;Node29</title>
<path fill="none" stroke="midnightblue" d="M2005,-190.48C2005,-183.47 2005,-173.19 2005,-163.7"/>
<polygon fill="midnightblue" stroke="midnightblue" points="2008.5,-163.52 2005,-153.52 2001.5,-163.52 2008.5,-163.52"/>
</g>
<!-- Node6&#45;&gt;Node2 -->
<g id="edge8" class="edge">
<title>Node6&#45;&gt;Node2</title>
<path fill="none" stroke="midnightblue" d="M1396.13,-134.34C1582.2,-125.1 2114.02,-98.05 2192,-87 2198.82,-86.03 2205.99,-84.71 2212.96,-83.26"/>
<polygon fill="midnightblue" stroke="midnightblue" points="2213.96,-86.63 2222.97,-81.07 2212.46,-79.79 2213.96,-86.63"/>
</g>
<!-- Node7 -->
<g id="node7" class="node">
<title>Node7</title>
<g id="a_node7"><a xlink:title=" ">
<polygon fill="none" stroke="#bfbfbf" points="1426.5,-62 1426.5,-81 1543.5,-81 1543.5,-62 1426.5,-62"/>
<text text-anchor="middle" x="1485" y="-69" font-family="Helvetica,sans-Serif" font-size="10.00">seerep_msgs/aabb.h</text>
</a>
</g>
</g>
<!-- Node6&#45;&gt;Node7 -->
<g id="edge9" class="edge">
<title>Node6&#45;&gt;Node7</title>
<path fill="none" stroke="midnightblue" d="M1365.2,-123.4C1392.16,-111.94 1429.83,-95.94 1455.69,-84.95"/>
<polygon fill="midnightblue" stroke="midnightblue" points="1457.14,-88.14 1464.98,-81.01 1454.4,-81.7 1457.14,-88.14"/>
</g>
<!-- Node6&#45;&gt;Node8 -->
<g id="edge10" class="edge">
<title>Node6&#45;&gt;Node8</title>
<path fill="none" stroke="midnightblue" d="M1396.43,-132.52C1433.7,-129.66 1481.49,-126.05 1524,-123 1755.28,-106.38 1817.22,-118.57 2051.19,-86.97"/>
<polygon fill="midnightblue" stroke="midnightblue" points="2051.95,-90.4 2061.38,-85.58 2051,-83.47 2051.95,-90.4"/>
</g>
<!-- Node9 -->
<g id="node9" class="node">
<title>Node9</title>
<g id="a_node9"><a xlink:title=" ">
<polygon fill="none" stroke="#bfbfbf" points="1562,-56.5 1562,-86.5 1688,-86.5 1688,-56.5 1562,-56.5"/>
<text text-anchor="start" x="1570" y="-74.5" font-family="Helvetica,sans-Serif" font-size="10.00">seerep_msgs/geodetic</text>
<text text-anchor="middle" x="1625" y="-63.5" font-family="Helvetica,sans-Serif" font-size="10.00">_coordinates.h</text>
</a>
</g>
</g>
<!-- Node6&#45;&gt;Node9 -->
<g id="edge11" class="edge">
<title>Node6&#45;&gt;Node9</title>
<path fill="none" stroke="midnightblue" d="M1395.22,-123.48C1441.23,-113.27 1503.67,-99.42 1551.84,-88.73"/>
<polygon fill="midnightblue" stroke="midnightblue" points="1552.89,-92.08 1561.9,-86.5 1551.38,-85.25 1552.89,-92.08"/>
</g>
<!-- Node10 -->
<g id="node10" class="node">
<title>Node10</title>
<g id="a_node10"><a xlink:title=" ">
<polygon fill="none" stroke="#bfbfbf" points="1706.5,-62 1706.5,-81 1823.5,-81 1823.5,-62 1706.5,-62"/>
<text text-anchor="middle" x="1765" y="-69" font-family="Helvetica,sans-Serif" font-size="10.00">seerep_msgs/label.h</text>
</a>
</g>
</g>
<!-- Node6&#45;&gt;Node10 -->
<g id="edge12" class="edge">
<title>Node6&#45;&gt;Node10</title>
<path fill="none" stroke="midnightblue" d="M1396.22,-125.25C1400.88,-124.46 1405.51,-123.7 1410,-123 1537.03,-103.24 1570.24,-108.42 1697,-87 1703.72,-85.86 1710.78,-84.53 1717.7,-83.13"/>
<polygon fill="midnightblue" stroke="midnightblue" points="1718.62,-86.51 1727.7,-81.05 1717.2,-79.66 1718.62,-86.51"/>
</g>
<!-- Node6&#45;&gt;Node11 -->
<g id="edge13" class="edge">
<title>Node6&#45;&gt;Node11</title>
<path fill="none" stroke="midnightblue" d="M1267.57,-132.49C1230.31,-129.63 1182.51,-126.02 1140,-123 900.07,-105.94 839.02,-113.95 600,-87 589.52,-85.82 578.4,-84.28 567.67,-82.66"/>
<polygon fill="midnightblue" stroke="midnightblue" points="567.95,-79.16 557.53,-81.08 566.87,-86.07 567.95,-79.16"/>
</g>
<!-- Node6&#45;&gt;Node12 -->
<g id="edge14" class="edge">
<title>Node6&#45;&gt;Node12</title>
<path fill="none" stroke="midnightblue" d="M1267.57,-133.26C1221.46,-130.27 1157.92,-126.23 1102,-123 798.09,-105.42 719.67,-127.8 418,-87 410.73,-86.02 403.07,-84.65 395.64,-83.14"/>
<polygon fill="midnightblue" stroke="midnightblue" points="396.24,-79.69 385.73,-81.02 394.77,-86.53 396.24,-79.69"/>
</g>
<!-- Node13 -->
<g id="node13" class="node">
<title>Node13</title>
<g id="a_node13"><a xlink:title=" ">
<polygon fill="none" stroke="#bfbfbf" points="1102,-62 1102,-81 1150,-81 1150,-62 1102,-62"/>
<text text-anchor="middle" x="1126" y="-69" font-family="Helvetica,sans-Serif" font-size="10.00">mutex</text>
</a>
</g>
</g>
<!-- Node6&#45;&gt;Node13 -->
<g id="edge15" class="edge">
<title>Node6&#45;&gt;Node13</title>
<path fill="none" stroke="midnightblue" d="M1277.26,-123.48C1242.93,-114.21 1197.96,-101.18 1159,-87 1157.34,-86.4 1155.65,-85.75 1153.95,-85.08"/>
<polygon fill="midnightblue" stroke="midnightblue" points="1154.9,-81.68 1144.33,-81.06 1152.21,-88.14 1154.9,-81.68"/>
</g>
<!-- Node6&#45;&gt;Node14 -->
<g id="edge16" class="edge">
<title>Node6&#45;&gt;Node14</title>
<path fill="none" stroke="midnightblue" d="M1396.05,-128.84C1412.93,-126.73 1431.13,-124.63 1448,-123 1683.01,-100.35 1747.63,-138.68 1978,-87 1981,-86.33 1984.08,-85.45 1987.11,-84.46"/>
<polygon fill="midnightblue" stroke="midnightblue" points="1988.34,-87.74 1996.53,-81.02 1985.93,-81.16 1988.34,-87.74"/>
</g>
<!-- Node15 -->
<g id="node15" class="node">
<title>Node15</title>
<g id="a_node15"><a xlink:title=" ">
<polygon fill="none" stroke="#bfbfbf" points="1168.5,-62 1168.5,-81 1237.5,-81 1237.5,-62 1168.5,-62"/>
<text text-anchor="middle" x="1203" y="-69" font-family="Helvetica,sans-Serif" font-size="10.00">type_traits</text>
</a>
</g>
</g>
<!-- Node6&#45;&gt;Node15 -->
<g id="edge17" class="edge">
<title>Node6&#45;&gt;Node15</title>
<path fill="none" stroke="midnightblue" d="M1304.01,-123.4C1281.67,-112.14 1250.63,-96.5 1228.87,-85.54"/>
<polygon fill="midnightblue" stroke="midnightblue" points="1230.39,-82.38 1219.88,-81.01 1227.24,-88.63 1230.39,-82.38"/>
</g>
<!-- Node16 -->
<g id="node16" class="node">
<title>Node16</title>
<g id="a_node16"><a xlink:title=" ">
<polygon fill="none" stroke="#bfbfbf" points="132.5,-56.5 132.5,-86.5 277.5,-86.5 277.5,-56.5 132.5,-56.5"/>
<text text-anchor="start" x="140.5" y="-74.5" font-family="Helvetica,sans-Serif" font-size="10.00">boost/log/sources/severity</text>
<text text-anchor="middle" x="205" y="-63.5" font-family="Helvetica,sans-Serif" font-size="10.00">_logger.hpp</text>
</a>
</g>
</g>
<!-- Node6&#45;&gt;Node16 -->
<g id="edge18" class="edge">
<title>Node6&#45;&gt;Node16</title>
<path fill="none" stroke="midnightblue" d="M1267.96,-134.42C1055.06,-124.19 379.62,-91.7 287.99,-86.62"/>
<polygon fill="midnightblue" stroke="midnightblue" points="287.99,-83.11 277.79,-85.99 287.56,-90.1 287.99,-83.11"/>
</g>
<!-- Node17 -->
<g id="node17" class="node">
<title>Node17</title>
<g id="a_node17"><a xlink:title=" ">
<polygon fill="none" stroke="#bfbfbf" points="0,-62 0,-81 114,-81 114,-62 0,-62"/>
<text text-anchor="middle" x="57" y="-69" font-family="Helvetica,sans-Serif" font-size="10.00">boost/log/trivial.hpp</text>
</a>
</g>
</g>
<!-- Node6&#45;&gt;Node17 -->
<g id="edge19" class="edge">
<title>Node6&#45;&gt;Node17</title>
<path fill="none" stroke="midnightblue" d="M1267.79,-134.26C1206.66,-131.22 1112.07,-126.6 1030,-123 626.96,-105.33 523.13,-138.48 123,-87 115.64,-86.05 107.89,-84.69 100.39,-83.17"/>
<polygon fill="midnightblue" stroke="midnightblue" points="100.89,-79.7 90.38,-81.03 99.42,-86.54 100.89,-79.7"/>
</g>
<!-- Node6&#45;&gt;Node18 -->
<g id="edge20" class="edge">
<title>Node6&#45;&gt;Node18</title>
<path fill="none" stroke="midnightblue" d="M1267.95,-131.36C1240.29,-128.73 1207.55,-125.67 1178,-123 992.73,-106.28 945.39,-111.61 761,-87 752.26,-85.83 743.02,-84.37 734.04,-82.83"/>
<polygon fill="midnightblue" stroke="midnightblue" points="734.52,-79.36 724.06,-81.07 733.3,-86.25 734.52,-79.36"/>
</g>
<!-- Node6&#45;&gt;Node19 -->
<g id="edge21" class="edge">
<title>Node6&#45;&gt;Node19</title>
<path fill="none" stroke="midnightblue" d="M1267.89,-129.38C1251.02,-127.27 1232.83,-125.03 1216,-123 1077.85,-106.37 1042.43,-108.75 905,-87 897.64,-85.84 889.9,-84.45 882.32,-83"/>
<polygon fill="midnightblue" stroke="midnightblue" points="882.99,-79.56 872.5,-81.07 881.64,-86.43 882.99,-79.56"/>
</g>
<!-- Node6&#45;&gt;Node20 -->
<g id="edge22" class="edge">
<title>Node6&#45;&gt;Node20</title>
<path fill="none" stroke="midnightblue" d="M1396.06,-134.84C1600.45,-126.28 2228.99,-99.24 2320,-87 2327.27,-86.02 2334.93,-84.66 2342.36,-83.15"/>
<polygon fill="midnightblue" stroke="midnightblue" points="2343.23,-86.54 2352.28,-81.03 2341.77,-79.7 2343.23,-86.54"/>
</g>
<!-- Node6&#45;&gt;Node21 -->
<g id="edge23" class="edge">
<title>Node6&#45;&gt;Node21</title>
<path fill="none" stroke="midnightblue" d="M1267.79,-124.97C1205.39,-112.79 1111.69,-94.5 1053.01,-83.04"/>
<polygon fill="midnightblue" stroke="midnightblue" points="1053.32,-79.54 1042.83,-81.06 1051.98,-86.41 1053.32,-79.54"/>
</g>
<!-- Node6&#45;&gt;Node22 -->
<g id="edge24" class="edge">
<title>Node6&#45;&gt;Node22</title>
<path fill="none" stroke="midnightblue" d="M1396.19,-125.05C1400.86,-124.3 1405.5,-123.61 1410,-123 1596.98,-97.73 1646.21,-113.67 1833,-87 1840.72,-85.9 1848.86,-84.49 1856.79,-83"/>
<polygon fill="midnightblue" stroke="midnightblue" points="1857.51,-86.42 1866.65,-81.06 1856.17,-79.55 1857.51,-86.42"/>
</g>
<!-- Node23 -->
<g id="node23" class="node">
<title>Node23</title>
<g id="a_node23"><a xlink:title=" ">
<polygon fill="none" stroke="#bfbfbf" points="1256,-62 1256,-81 1408,-81 1408,-62 1256,-62"/>
<text text-anchor="middle" x="1332" y="-69" font-family="Helvetica,sans-Serif" font-size="10.00">impl/hdf5_core_general.hpp</text>
</a>
</g>
</g>
<!-- Node6&#45;&gt;Node23 -->
<g id="edge25" class="edge">
<title>Node6&#45;&gt;Node23</title>
<path fill="none" stroke="midnightblue" d="M1332,-123.4C1332,-114.06 1332,-101.71 1332,-91.52"/>
<polygon fill="midnightblue" stroke="midnightblue" points="1335.5,-91.19 1332,-81.19 1328.5,-91.19 1335.5,-91.19"/>
</g>
<!-- Node24&#45;&gt;Node20 -->
<g id="edge27" class="edge">
<title>Node24&#45;&gt;Node20</title>
<path fill="none" stroke="midnightblue" d="M2448.29,-128.73C2436.74,-118.31 2417.25,-100.71 2403.14,-87.97"/>
<polygon fill="midnightblue" stroke="midnightblue" points="2405.32,-85.23 2395.56,-81.13 2400.63,-90.43 2405.32,-85.23"/>
</g>
<!-- Node25 -->
<g id="node25" class="node">
<title>Node25</title>
<g id="a_node25"><a xlink:href="datatype_8h.html" target="_top" xlink:title=" ">
<polygon fill="none" stroke="black" points="2557.5,-62 2557.5,-81 2626.5,-81 2626.5,-62 2557.5,-62"/>
<text text-anchor="middle" x="2592" y="-69" font-family="Helvetica,sans-Serif" font-size="10.00">datatype.h</text>
</a>
</g>
</g>
<!-- Node24&#45;&gt;Node25 -->
<g id="edge28" class="edge">
<title>Node24&#45;&gt;Node25</title>
<path fill="none" stroke="midnightblue" d="M2475.79,-128.87C2498.62,-117.8 2538.43,-98.49 2565,-85.6"/>
<polygon fill="midnightblue" stroke="midnightblue" points="2566.66,-88.68 2574.13,-81.17 2563.61,-82.38 2566.66,-88.68"/>
</g>
<!-- Node26 -->
<g id="node26" class="node">
<title>Node26</title>
<g id="a_node26"><a xlink:href="timestamp_8h.html" target="_top" xlink:title=" ">
<polygon fill="none" stroke="black" points="2460.5,-62 2460.5,-81 2539.5,-81 2539.5,-62 2460.5,-62"/>
<text text-anchor="middle" x="2500" y="-69" font-family="Helvetica,sans-Serif" font-size="10.00">timestamp.h</text>
</a>
</g>
</g>
<!-- Node24&#45;&gt;Node26 -->
<g id="edge29" class="edge">
<title>Node24&#45;&gt;Node26</title>
<path fill="none" stroke="midnightblue" d="M2463.66,-128.73C2470.09,-118.79 2480.72,-102.34 2488.83,-89.79"/>
<polygon fill="midnightblue" stroke="midnightblue" points="2491.94,-91.43 2494.43,-81.13 2486.06,-87.63 2491.94,-91.43"/>
</g>
<!-- Node27 -->
<g id="node27" class="node">
<title>Node27</title>
<g id="a_node27"><a xlink:title=" ">
<polygon fill="none" stroke="#bfbfbf" points="2467.5,-0.5 2467.5,-19.5 2532.5,-19.5 2532.5,-0.5 2467.5,-0.5"/>
<text text-anchor="middle" x="2500" y="-7.5" font-family="Helvetica,sans-Serif" font-size="10.00">functional</text>
</a>
</g>
</g>
<!-- Node26&#45;&gt;Node27 -->
<g id="edge30" class="edge">
<title>Node26&#45;&gt;Node27</title>
<path fill="none" stroke="midnightblue" d="M2500,-61.98C2500,-53.58 2500,-40.48 2500,-29.66"/>
<polygon fill="midnightblue" stroke="midnightblue" points="2503.5,-29.51 2500,-19.51 2496.5,-29.51 2503.5,-29.51"/>
</g>
<!-- Node30&#45;&gt;Node8 -->
<g id="edge34" class="edge">
<title>Node30&#45;&gt;Node8</title>
<path fill="none" stroke="midnightblue" d="M1793.83,-124.74C1796.93,-124.13 1800,-123.55 1803,-123 1909.9,-103.56 1940.17,-106.18 2051.4,-87.03"/>
<polygon fill="midnightblue" stroke="midnightblue" points="2052.09,-90.46 2061.34,-85.3 2050.88,-83.57 2052.09,-90.46"/>
</g>
<!-- Node30&#45;&gt;Node14 -->
<g id="edge36" class="edge">
<title>Node30&#45;&gt;Node14</title>
<path fill="none" stroke="midnightblue" d="M1793.51,-125.03C1796.72,-124.34 1799.9,-123.66 1803,-123 1880.67,-106.48 1901.87,-109.57 1978,-87 1980.43,-86.28 1982.93,-85.47 1985.42,-84.6"/>
<polygon fill="midnightblue" stroke="midnightblue" points="1986.7,-87.86 1994.86,-81.11 1984.27,-81.3 1986.7,-87.86"/>
</g>
<!-- Node30&#45;&gt;Node20 -->
<g id="edge35" class="edge">
<title>Node30&#45;&gt;Node20</title>
<path fill="none" stroke="midnightblue" d="M1793.78,-124.47C1796.89,-123.93 1799.98,-123.43 1803,-123 2030.99,-90.2 2092.01,-119.8 2320,-87 2326.94,-86 2334.24,-84.68 2341.36,-83.24"/>
<polygon fill="midnightblue" stroke="midnightblue" points="2342.52,-86.57 2351.58,-81.06 2341.07,-79.72 2342.52,-86.57"/>
</g>
<!-- Node31&#45;&gt;Node2 -->
<g id="edge48" class="edge">
<title>Node31&#45;&gt;Node2</title>
<path fill="none" stroke="midnightblue" d="M905.71,-196.29C1011.71,-190.67 1255.22,-176.35 1459,-154 1554.09,-143.57 1576.88,-133.2 1672,-123 1902.34,-98.3 1962.8,-120.69 2192,-87 2198.82,-86 2205.98,-84.66 2212.95,-83.2"/>
<polygon fill="midnightblue" stroke="midnightblue" points="2213.95,-86.57 2222.96,-81 2212.45,-79.73 2213.95,-86.57"/>
</g>
<!-- Node31&#45;&gt;Node6 -->
<g id="edge49" class="edge">
<title>Node31&#45;&gt;Node6</title>
<path fill="none" stroke="midnightblue" d="M905.66,-192.35C991.55,-181.7 1160.11,-160.81 1257.58,-148.73"/>
<polygon fill="midnightblue" stroke="midnightblue" points="1258.16,-152.18 1267.65,-147.48 1257.3,-145.23 1258.16,-152.18"/>
</g>
<!-- Node31&#45;&gt;Node12 -->
<g id="edge52" class="edge">
<title>Node31&#45;&gt;Node12</title>
<path fill="none" stroke="midnightblue" d="M852.63,-190.29C853.27,-174.19 852.03,-139.88 832,-123 761.38,-63.5 509.29,-100.94 418,-87 411.14,-85.95 403.93,-84.62 396.9,-83.18"/>
<polygon fill="midnightblue" stroke="midnightblue" points="397.29,-79.68 386.78,-81.02 395.83,-86.53 397.29,-79.68"/>
</g>
<!-- Node31&#45;&gt;Node14 -->
<g id="edge54" class="edge">
<title>Node31&#45;&gt;Node14</title>
<path fill="none" stroke="midnightblue" d="M905.76,-199.65C1005.49,-199.76 1225.36,-194.81 1405,-154 1442.59,-145.46 1448.38,-131.38 1486,-123 1700,-75.31 1764.19,-135.55 1978,-87 1980.84,-86.36 1983.75,-85.53 1986.62,-84.6"/>
<polygon fill="midnightblue" stroke="midnightblue" points="1987.93,-87.85 1996.14,-81.15 1985.55,-81.27 1987.93,-87.85"/>
</g>
<!-- Node31&#45;&gt;Node16 -->
<g id="edge55" class="edge">
<title>Node31&#45;&gt;Node16</title>
<path fill="none" stroke="midnightblue" d="M798.36,-199.4C710.78,-198.81 532.25,-192.44 387,-154 332.62,-139.61 273.95,-110.65 238.35,-91.42"/>
<polygon fill="midnightblue" stroke="midnightblue" points="239.83,-88.24 229.37,-86.51 236.47,-94.38 239.83,-88.24"/>
</g>
<!-- Node31&#45;&gt;Node17 -->
<g id="edge56" class="edge">
<title>Node31&#45;&gt;Node17</title>
<path fill="none" stroke="midnightblue" d="M798.21,-198.88C698.92,-197.72 480.59,-190.77 301,-154 221.47,-137.72 131.88,-103.48 86.6,-84.98"/>
<polygon fill="midnightblue" stroke="midnightblue" points="87.69,-81.64 77.11,-81.07 85.02,-88.12 87.69,-81.64"/>
</g>
<!-- Node32 -->
<g id="node32" class="node">
<title>Node32</title>
<g id="a_node32"><a xlink:title=" ">
<polygon fill="none" stroke="#bfbfbf" points="880.5,-129 880.5,-148 1021.5,-148 1021.5,-129 880.5,-129"/>
<text text-anchor="middle" x="951" y="-136" font-family="Helvetica,sans-Serif" font-size="10.00">seerep_msgs/header.pb.h</text>
</a>
</g>
</g>
<!-- Node31&#45;&gt;Node32 -->
<g id="edge50" class="edge">
<title>Node31&#45;&gt;Node32</title>
<path fill="none" stroke="midnightblue" d="M866.18,-190.48C882.36,-180.75 909.03,-164.73 928.14,-153.24"/>
<polygon fill="midnightblue" stroke="midnightblue" points="930.07,-156.16 936.84,-148.01 926.47,-150.16 930.07,-156.16"/>
</g>
<!-- Node33 -->
<g id="node33" class="node">
<title>Node33</title>
<g id="a_node33"><a xlink:title=" ">
<polygon fill="none" stroke="#bfbfbf" points="396.5,-129 396.5,-148 575.5,-148 575.5,-129 396.5,-129"/>
<text text-anchor="middle" x="486" y="-136" font-family="Helvetica,sans-Serif" font-size="10.00">seerep_msgs/label_category.pb.h</text>
</a>
</g>
</g>
<!-- Node31&#45;&gt;Node33 -->
<g id="edge51" class="edge">
<title>Node31&#45;&gt;Node33</title>
<path fill="none" stroke="midnightblue" d="M799.56,-190.48C733.25,-179.69 619.2,-161.15 548.45,-149.65"/>
<polygon fill="midnightblue" stroke="midnightblue" points="548.77,-146.16 538.34,-148.01 547.65,-153.07 548.77,-146.16"/>
</g>
<!-- Node34 -->
<g id="node34" class="node">
<title>Node34</title>
<g id="a_node34"><a xlink:title=" ">
<polygon fill="none" stroke="#bfbfbf" points="594,-129 594,-148 662,-148 662,-129 594,-129"/>
<text text-anchor="middle" x="628" y="-136" font-family="Helvetica,sans-Serif" font-size="10.00">filesystem</text>
</a>
</g>
</g>
<!-- Node31&#45;&gt;Node34 -->
<g id="edge53" class="edge">
<title>Node31&#45;&gt;Node34</title>
<path fill="none" stroke="midnightblue" d="M813.97,-190.5C777.18,-182.05 719.95,-168.31 671,-154 668.07,-153.14 665.04,-152.21 662.01,-151.25"/>
<polygon fill="midnightblue" stroke="midnightblue" points="663.04,-147.91 652.45,-148.13 660.87,-154.56 663.04,-147.91"/>
</g>
<!-- Node35 -->
<g id="node35" class="node">
<title>Node35</title>
<g id="a_node35"><a xlink:title=" ">
<polygon fill="none" stroke="#bfbfbf" points="680.5,-129 680.5,-148 823.5,-148 823.5,-129 680.5,-129"/>
<text text-anchor="middle" x="752" y="-136" font-family="Helvetica,sans-Serif" font-size="10.00">impl/hdf5_pb_general.hpp</text>
</a>
</g>
</g>
<!-- Node31&#45;&gt;Node35 -->
<g id="edge57" class="edge">
<title>Node31&#45;&gt;Node35</title>
<path fill="none" stroke="midnightblue" d="M837.67,-190.48C821.34,-180.75 794.4,-164.73 775.09,-153.24"/>
<polygon fill="midnightblue" stroke="midnightblue" points="776.68,-150.11 766.3,-148.01 773.11,-156.13 776.68,-150.11"/>
</g>
</g>
</svg>
