<?xml version="1.0" encoding="UTF-8" standalone="no"?>
<!DOCTYPE svg PUBLIC "-//W3C//DTD SVG 1.1//EN"
 "http://www.w3.org/Graphics/SVG/1.1/DTD/svg11.dtd">
<!-- Generated by graphviz version 2.43.0 (0)
 -->
<!-- Title: seerep&#45;hdf5/seerep&#45;hdf5&#45;pb/src/hdf5&#45;pb&#45;tf.cpp Pages: 1 -->
<svg width="2292pt" height="340pt"
 viewBox="0.00 0.00 2292.00 340.00" xmlns="http://www.w3.org/2000/svg" xmlns:xlink="http://www.w3.org/1999/xlink">
<g id="graph0" class="graph" transform="scale(1 1) rotate(0) translate(4 336)">
<title>seerep&#45;hdf5/seerep&#45;hdf5&#45;pb/src/hdf5&#45;pb&#45;tf.cpp</title>
<!-- Node1 -->
<g id="node1" class="node">
<title>Node1</title>
<g id="a_node1"><a xlink:title=" ">
<polygon fill="#bfbfbf" stroke="black" points="2089,-290.5 2089,-331.5 2205,-331.5 2205,-290.5 2089,-290.5"/>
<text text-anchor="start" x="2097" y="-319.5" font-family="Helvetica,sans-Serif" font-size="10.00">seerep&#45;hdf5/seerep</text>
<text text-anchor="start" x="2097" y="-308.5" font-family="Helvetica,sans-Serif" font-size="10.00">&#45;hdf5&#45;pb/src/hdf5&#45;pb</text>
<text text-anchor="middle" x="2147" y="-297.5" font-family="Helvetica,sans-Serif" font-size="10.00">&#45;tf.cpp</text>
</a>
</g>
</g>
<!-- Node2 -->
<g id="node2" class="node">
<title>Node2</title>
<g id="a_node2"><a xlink:href="hdf5-pb-tf_8h.html" target="_top" xlink:title=" ">
<polygon fill="none" stroke="black" points="2018,-223.5 2018,-253.5 2134,-253.5 2134,-223.5 2018,-223.5"/>
<text text-anchor="start" x="2026" y="-241.5" font-family="Helvetica,sans-Serif" font-size="10.00">seerep&#45;hdf5&#45;pb/hdf5</text>
<text text-anchor="middle" x="2076" y="-230.5" font-family="Helvetica,sans-Serif" font-size="10.00">&#45;pb&#45;tf.h</text>
</a>
</g>
</g>
<!-- Node1&#45;&gt;Node2 -->
<g id="edge1" class="edge">
<title>Node1&#45;&gt;Node2</title>
<path fill="none" stroke="midnightblue" d="M2127.22,-290.36C2118.03,-281.23 2107.07,-270.35 2097.65,-261"/>
<polygon fill="midnightblue" stroke="midnightblue" points="2100.06,-258.45 2090.49,-253.89 2095.12,-263.42 2100.06,-258.45"/>
</g>
<!-- Node29 -->
<g id="node29" class="node">
<title>Node29</title>
<g id="a_node29"><a xlink:title=" ">
<polygon fill="none" stroke="#bfbfbf" points="2152,-229 2152,-248 2284,-248 2284,-229 2152,-229"/>
<text text-anchor="middle" x="2218" y="-236" font-family="Helvetica,sans-Serif" font-size="10.00">highfive/H5DataSet.hpp</text>
</a>
</g>
</g>
<!-- Node1&#45;&gt;Node29 -->
<g id="edge36" class="edge">
<title>Node1&#45;&gt;Node29</title>
<path fill="none" stroke="midnightblue" d="M2166.78,-290.36C2177.89,-279.32 2191.59,-265.72 2202.02,-255.37"/>
<polygon fill="midnightblue" stroke="midnightblue" points="2204.64,-257.7 2209.27,-248.17 2199.7,-252.74 2204.64,-257.7"/>
</g>
<!-- Node3 -->
<g id="node3" class="node">
<title>Node3</title>
<g id="a_node3"><a xlink:title=" ">
<polygon fill="none" stroke="#bfbfbf" points="0,-11.5 0,-30.5 110,-30.5 110,-11.5 0,-11.5"/>
<text text-anchor="middle" x="55" y="-18.5" font-family="Helvetica,sans-Serif" font-size="10.00">highfive/H5File.hpp</text>
</a>
</g>
</g>
<!-- Node2&#45;&gt;Node3 -->
<g id="edge2" class="edge">
<title>Node2&#45;&gt;Node3</title>
<path fill="none" stroke="midnightblue" d="M2017.61,-236.08C1750.71,-229.23 645.49,-196.66 309,-120 222.49,-100.29 126.27,-56.79 81.1,-34.99"/>
<polygon fill="midnightblue" stroke="midnightblue" points="82.53,-31.79 72.01,-30.56 79.47,-38.08 82.53,-31.79"/>
</g>
<!-- Node4 -->
<g id="node4" class="node">
<title>Node4</title>
<g id="a_node4"><a xlink:href="hdf5-pb-general_8h.html" target="_top" xlink:title=" ">
<polygon fill="none" stroke="black" points="1156,-156.5 1156,-186.5 1272,-186.5 1272,-156.5 1156,-156.5"/>
<text text-anchor="start" x="1164" y="-174.5" font-family="Helvetica,sans-Serif" font-size="10.00">seerep&#45;hdf5&#45;pb/hdf5</text>
<text text-anchor="middle" x="1214" y="-163.5" font-family="Helvetica,sans-Serif" font-size="10.00">&#45;pb&#45;general.h</text>
</a>
</g>
</g>
<!-- Node2&#45;&gt;Node4 -->
<g id="edge3" class="edge">
<title>Node2&#45;&gt;Node4</title>
<path fill="none" stroke="midnightblue" d="M2017.77,-233.11C1863.84,-221.5 1446.77,-190.05 1282.15,-177.64"/>
<polygon fill="midnightblue" stroke="midnightblue" points="1282.38,-174.15 1272.15,-176.88 1281.86,-181.13 1282.38,-174.15"/>
</g>
<!-- Node10 -->
<g id="node10" class="node">
<title>Node10</title>
<g id="a_node10"><a xlink:title=" ">
<polygon fill="none" stroke="#bfbfbf" points="2057.5,-11.5 2057.5,-30.5 2170.5,-30.5 2170.5,-11.5 2057.5,-11.5"/>
<text text-anchor="middle" x="2114" y="-18.5" font-family="Helvetica,sans-Serif" font-size="10.00">boost/geometry.hpp</text>
</a>
</g>
</g>
<!-- Node2&#45;&gt;Node10 -->
<g id="edge34" class="edge">
<title>Node2&#45;&gt;Node10</title>
<path fill="none" stroke="midnightblue" d="M2077.67,-223.34C2081.06,-195.4 2089.36,-131.27 2100,-78 2102.51,-65.45 2105.99,-51.5 2108.86,-40.65"/>
<polygon fill="midnightblue" stroke="midnightblue" points="2112.33,-41.24 2111.56,-30.67 2105.57,-39.41 2112.33,-41.24"/>
</g>
<!-- Node12 -->
<g id="node12" class="node">
<title>Node12</title>
<g id="a_node12"><a xlink:title=" ">
<polygon fill="none" stroke="#bfbfbf" points="2189,-11.5 2189,-30.5 2245,-30.5 2245,-11.5 2189,-11.5"/>
<text text-anchor="middle" x="2217" y="-18.5" font-family="Helvetica,sans-Serif" font-size="10.00">optional</text>
</a>
</g>
</g>
<!-- Node2&#45;&gt;Node12 -->
<g id="edge35" class="edge">
<title>Node2&#45;&gt;Node12</title>
<path fill="none" stroke="midnightblue" d="M2085.25,-223.36C2110.15,-185.31 2178.51,-80.82 2205.67,-39.32"/>
<polygon fill="midnightblue" stroke="midnightblue" points="2208.67,-41.12 2211.22,-30.83 2202.82,-37.28 2208.67,-41.12"/>
</g>
<!-- Node28 -->
<g id="node28" class="node">
<title>Node28</title>
<g id="a_node28"><a xlink:title=" ">
<polygon fill="none" stroke="#bfbfbf" points="2142.5,-156.5 2142.5,-186.5 2273.5,-186.5 2273.5,-156.5 2142.5,-156.5"/>
<text text-anchor="start" x="2150.5" y="-174.5" font-family="Helvetica,sans-Serif" font-size="10.00">seerep&#45;msgs/transform</text>
<text text-anchor="middle" x="2208" y="-163.5" font-family="Helvetica,sans-Serif" font-size="10.00">_stamped.pb.h</text>
</a>
</g>
</g>
<!-- Node2&#45;&gt;Node28 -->
<g id="edge33" class="edge">
<title>Node2&#45;&gt;Node28</title>
<path fill="none" stroke="midnightblue" d="M2104.64,-223.4C2123.84,-213.94 2149.33,-201.39 2170.19,-191.12"/>
<polygon fill="midnightblue" stroke="midnightblue" points="2171.99,-194.13 2179.41,-186.58 2168.9,-187.85 2171.99,-194.13"/>
</g>
<!-- Node4&#45;&gt;Node3 -->
<g id="edge4" class="edge">
<title>Node4&#45;&gt;Node3</title>
<path fill="none" stroke="midnightblue" d="M1215.9,-156.26C1217.79,-135.45 1217.68,-97.14 1195,-78 1149.29,-39.43 177.97,-52.01 119,-42 108.33,-40.19 96.96,-37.05 86.82,-33.8"/>
<polygon fill="midnightblue" stroke="midnightblue" points="87.74,-30.41 77.15,-30.54 85.51,-37.05 87.74,-30.41"/>
</g>
<!-- Node5 -->
<g id="node5" class="node">
<title>Node5</title>
<g id="a_node5"><a xlink:href="hdf5-core-general_8h.html" target="_top" xlink:title=" ">
<polygon fill="none" stroke="black" points="1280.5,-84 1280.5,-114 1405.5,-114 1405.5,-84 1280.5,-84"/>
<text text-anchor="start" x="1288.5" y="-102" font-family="Helvetica,sans-Serif" font-size="10.00">seerep&#45;hdf5&#45;core/hdf5</text>
<text text-anchor="middle" x="1343" y="-91" font-family="Helvetica,sans-Serif" font-size="10.00">&#45;core&#45;general.h</text>
</a>
</g>
</g>
<!-- Node4&#45;&gt;Node5 -->
<g id="edge5" class="edge">
<title>Node4&#45;&gt;Node5</title>
<path fill="none" stroke="midnightblue" d="M1239.8,-156.4C1259.48,-145.64 1286.8,-130.71 1308.39,-118.92"/>
<polygon fill="midnightblue" stroke="midnightblue" points="1310.15,-121.94 1317.25,-114.07 1306.8,-115.8 1310.15,-121.94"/>
</g>
<!-- Node4&#45;&gt;Node10 -->
<g id="edge27" class="edge">
<title>Node4&#45;&gt;Node10</title>
<path fill="none" stroke="midnightblue" d="M1272.12,-165.02C1408.97,-151.37 1761.63,-111.82 2049,-42 2058.88,-39.6 2069.46,-36.55 2079.16,-33.56"/>
<polygon fill="midnightblue" stroke="midnightblue" points="2080.4,-36.84 2088.88,-30.5 2078.29,-30.17 2080.4,-36.84"/>
</g>
<!-- Node4&#45;&gt;Node12 -->
<g id="edge29" class="edge">
<title>Node4&#45;&gt;Node12</title>
<path fill="none" stroke="midnightblue" d="M1272.03,-167.05C1373.13,-160.64 1587.94,-145.19 1768,-120 1952.57,-94.18 2004.39,-104.38 2180,-42 2184.82,-40.29 2189.77,-38.01 2194.43,-35.62"/>
<polygon fill="midnightblue" stroke="midnightblue" points="2196.35,-38.55 2203.41,-30.66 2192.97,-32.42 2196.35,-38.55"/>
</g>
<!-- Node14 -->
<g id="node14" class="node">
<title>Node14</title>
<g id="a_node14"><a xlink:title=" ">
<polygon fill="none" stroke="#bfbfbf" points="1894.5,-6 1894.5,-36 2039.5,-36 2039.5,-6 1894.5,-6"/>
<text text-anchor="start" x="1902.5" y="-24" font-family="Helvetica,sans-Serif" font-size="10.00">boost/log/sources/severity</text>
<text text-anchor="middle" x="1967" y="-13" font-family="Helvetica,sans-Serif" font-size="10.00">_logger.hpp</text>
</a>
</g>
</g>
<!-- Node4&#45;&gt;Node14 -->
<g id="edge30" class="edge">
<title>Node4&#45;&gt;Node14</title>
<path fill="none" stroke="midnightblue" d="M1272.09,-160.39C1388.67,-139.86 1659.29,-91.11 1885,-42 1890.28,-40.85 1895.74,-39.62 1901.22,-38.35"/>
<polygon fill="midnightblue" stroke="midnightblue" points="1902.13,-41.73 1911.07,-36.04 1900.53,-34.92 1902.13,-41.73"/>
</g>
<!-- Node15 -->
<g id="node15" class="node">
<title>Node15</title>
<g id="a_node15"><a xlink:title=" ">
<polygon fill="none" stroke="#bfbfbf" points="128,-11.5 128,-30.5 242,-30.5 242,-11.5 128,-11.5"/>
<text text-anchor="middle" x="185" y="-18.5" font-family="Helvetica,sans-Serif" font-size="10.00">boost/log/trivial.hpp</text>
</a>
</g>
</g>
<!-- Node4&#45;&gt;Node15 -->
<g id="edge31" class="edge">
<title>Node4&#45;&gt;Node15</title>
<path fill="none" stroke="midnightblue" d="M1222.33,-156.45C1233.12,-136.23 1248.29,-99.05 1228,-78 1190.31,-38.89 304.57,-50.95 251,-42 239.9,-40.15 228.06,-36.96 217.51,-33.67"/>
<polygon fill="midnightblue" stroke="midnightblue" points="218.46,-30.29 207.87,-30.52 216.29,-36.95 218.46,-30.29"/>
</g>
<!-- Node22 -->
<g id="node22" class="node">
<title>Node22</title>
<g id="a_node22"><a xlink:title=" ">
<polygon fill="none" stroke="#bfbfbf" points="318,-84 318,-114 476,-114 476,-84 318,-84"/>
<text text-anchor="start" x="326" y="-102" font-family="Helvetica,sans-Serif" font-size="10.00">seerep&#45;msgs/boundingbox2d</text>
<text text-anchor="middle" x="397" y="-91" font-family="Helvetica,sans-Serif" font-size="10.00">_labeled_with_category.pb.h</text>
</a>
</g>
</g>
<!-- Node4&#45;&gt;Node22 -->
<g id="edge23" class="edge">
<title>Node4&#45;&gt;Node22</title>
<path fill="none" stroke="midnightblue" d="M1155.56,-169.51C1031.42,-166.73 732.57,-156.48 485,-120 477.67,-118.92 470.05,-117.56 462.49,-116.05"/>
<polygon fill="midnightblue" stroke="midnightblue" points="463.12,-112.61 452.62,-114 461.7,-119.46 463.12,-112.61"/>
</g>
<!-- Node23 -->
<g id="node23" class="node">
<title>Node23</title>
<g id="a_node23"><a xlink:title=" ">
<polygon fill="none" stroke="#bfbfbf" points="494.5,-84 494.5,-114 649.5,-114 649.5,-84 494.5,-84"/>
<text text-anchor="start" x="502.5" y="-102" font-family="Helvetica,sans-Serif" font-size="10.00">seerep&#45;msgs/boundingbox</text>
<text text-anchor="middle" x="572" y="-91" font-family="Helvetica,sans-Serif" font-size="10.00">_labeled_with_category.pb.h</text>
</a>
</g>
</g>
<!-- Node4&#45;&gt;Node23 -->
<g id="edge24" class="edge">
<title>Node4&#45;&gt;Node23</title>
<path fill="none" stroke="midnightblue" d="M1155.75,-167.8C1054.31,-162.51 838.86,-148.72 659,-120 652.21,-118.92 645.17,-117.61 638.16,-116.19"/>
<polygon fill="midnightblue" stroke="midnightblue" points="638.45,-112.67 627.94,-114.03 637,-119.52 638.45,-112.67"/>
</g>
<!-- Node24 -->
<g id="node24" class="node">
<title>Node24</title>
<g id="a_node24"><a xlink:title=" ">
<polygon fill="none" stroke="#bfbfbf" points="668,-89.5 668,-108.5 808,-108.5 808,-89.5 668,-89.5"/>
<text text-anchor="middle" x="738" y="-96.5" font-family="Helvetica,sans-Serif" font-size="10.00">seerep&#45;msgs/header.pb.h</text>
</a>
</g>
</g>
<!-- Node4&#45;&gt;Node24 -->
<g id="edge25" class="edge">
<title>Node4&#45;&gt;Node24</title>
<path fill="none" stroke="midnightblue" d="M1155.8,-165.33C1078.12,-157.92 936.46,-142.63 817,-120 804.29,-117.59 790.59,-114.35 778.22,-111.19"/>
<polygon fill="midnightblue" stroke="midnightblue" points="778.76,-107.71 768.19,-108.56 776.98,-114.48 778.76,-107.71"/>
</g>
<!-- Node25 -->
<g id="node25" class="node">
<title>Node25</title>
<g id="a_node25"><a xlink:title=" ">
<polygon fill="none" stroke="#bfbfbf" points="826,-78.5 826,-119.5 942,-119.5 942,-78.5 826,-78.5"/>
<text text-anchor="start" x="834" y="-107.5" font-family="Helvetica,sans-Serif" font-size="10.00">seerep&#45;msgs/labels</text>
<text text-anchor="start" x="834" y="-96.5" font-family="Helvetica,sans-Serif" font-size="10.00">_with_instance_with</text>
<text text-anchor="middle" x="884" y="-85.5" font-family="Helvetica,sans-Serif" font-size="10.00">_category.pb.h</text>
</a>
</g>
</g>
<!-- Node4&#45;&gt;Node25 -->
<g id="edge26" class="edge">
<title>Node4&#45;&gt;Node25</title>
<path fill="none" stroke="midnightblue" d="M1155.92,-161.07C1104.58,-152.35 1027.53,-138.31 951.72,-120.07"/>
<polygon fill="midnightblue" stroke="midnightblue" points="952.55,-116.67 942.01,-117.7 950.9,-123.47 952.55,-116.67"/>
</g>
<!-- Node26 -->
<g id="node26" class="node">
<title>Node26</title>
<g id="a_node26"><a xlink:title=" ">
<polygon fill="none" stroke="#bfbfbf" points="960,-89.5 960,-108.5 1028,-108.5 1028,-89.5 960,-89.5"/>
<text text-anchor="middle" x="994" y="-96.5" font-family="Helvetica,sans-Serif" font-size="10.00">filesystem</text>
</a>
</g>
</g>
<!-- Node4&#45;&gt;Node26 -->
<g id="edge28" class="edge">
<title>Node4&#45;&gt;Node26</title>
<path fill="none" stroke="midnightblue" d="M1156.27,-156.49C1121.31,-147.4 1076.08,-134.56 1037,-120 1031.5,-117.95 1025.73,-115.49 1020.27,-113.01"/>
<polygon fill="midnightblue" stroke="midnightblue" points="1021.43,-109.69 1010.89,-108.61 1018.46,-116.03 1021.43,-109.69"/>
</g>
<!-- Node27 -->
<g id="node27" class="node">
<title>Node27</title>
<g id="a_node27"><a xlink:title=" ">
<polygon fill="none" stroke="#bfbfbf" points="1046,-89.5 1046,-108.5 1186,-108.5 1186,-89.5 1046,-89.5"/>
<text text-anchor="middle" x="1116" y="-96.5" font-family="Helvetica,sans-Serif" font-size="10.00">impl/hdf5&#45;pb&#45;general.hpp</text>
</a>
</g>
</g>
<!-- Node4&#45;&gt;Node27 -->
<g id="edge32" class="edge">
<title>Node4&#45;&gt;Node27</title>
<path fill="none" stroke="midnightblue" d="M1194.17,-156.23C1177.31,-144.1 1153.2,-126.76 1136.23,-114.55"/>
<polygon fill="midnightblue" stroke="midnightblue" points="1138.24,-111.69 1128.08,-108.69 1134.15,-117.37 1138.24,-111.69"/>
</g>
<!-- Node5&#45;&gt;Node3 -->
<g id="edge6" class="edge">
<title>Node5&#45;&gt;Node3</title>
<path fill="none" stroke="midnightblue" d="M1280.25,-85.45C1263.35,-82.52 1245.03,-79.75 1228,-78 737.43,-27.63 605.23,-124.3 119,-42 108.33,-40.19 96.96,-37.06 86.82,-33.8"/>
<polygon fill="midnightblue" stroke="midnightblue" points="87.74,-30.42 77.15,-30.55 85.51,-37.05 87.74,-30.42"/>
</g>
<!-- Node6 -->
<g id="node6" class="node">
<title>Node6</title>
<g id="a_node6"><a xlink:title=" ">
<polygon fill="none" stroke="#bfbfbf" points="1760,-11.5 1760,-30.5 1876,-30.5 1876,-11.5 1760,-11.5"/>
<text text-anchor="middle" x="1818" y="-18.5" font-family="Helvetica,sans-Serif" font-size="10.00">seerep&#45;msgs/aabb.h</text>
</a>
</g>
</g>
<!-- Node5&#45;&gt;Node6 -->
<g id="edge7" class="edge">
<title>Node5&#45;&gt;Node6</title>
<path fill="none" stroke="midnightblue" d="M1405.73,-92.41C1486.29,-84.55 1630.11,-68.18 1751,-42 1761.5,-39.73 1772.75,-36.63 1782.97,-33.56"/>
<polygon fill="midnightblue" stroke="midnightblue" points="1784.27,-36.82 1792.79,-30.53 1782.2,-30.14 1784.27,-36.82"/>
</g>
<!-- Node7 -->
<g id="node7" class="node">
<title>Node7</title>
<g id="a_node7"><a xlink:title=" ">
<polygon fill="none" stroke="#bfbfbf" points="1283.5,-6 1283.5,-36 1402.5,-36 1402.5,-6 1283.5,-6"/>
<text text-anchor="start" x="1291.5" y="-24" font-family="Helvetica,sans-Serif" font-size="10.00">seerep&#45;msgs/dataset</text>
<text text-anchor="middle" x="1343" y="-13" font-family="Helvetica,sans-Serif" font-size="10.00">&#45;indexable.h</text>
</a>
</g>
</g>
<!-- Node5&#45;&gt;Node7 -->
<g id="edge8" class="edge">
<title>Node5&#45;&gt;Node7</title>
<path fill="none" stroke="midnightblue" d="M1343,-83.7C1343,-73.2 1343,-58.66 1343,-46.33"/>
<polygon fill="midnightblue" stroke="midnightblue" points="1346.5,-46.23 1343,-36.23 1339.5,-46.23 1346.5,-46.23"/>
</g>
<!-- Node8 -->
<g id="node8" class="node">
<title>Node8</title>
<g id="a_node8"><a xlink:title=" ">
<polygon fill="none" stroke="#bfbfbf" points="1420.5,-6 1420.5,-36 1545.5,-36 1545.5,-6 1420.5,-6"/>
<text text-anchor="start" x="1428.5" y="-24" font-family="Helvetica,sans-Serif" font-size="10.00">seerep&#45;msgs/geodetic</text>
<text text-anchor="middle" x="1483" y="-13" font-family="Helvetica,sans-Serif" font-size="10.00">&#45;coordinates.h</text>
</a>
</g>
</g>
<!-- Node5&#45;&gt;Node8 -->
<g id="edge9" class="edge">
<title>Node5&#45;&gt;Node8</title>
<path fill="none" stroke="midnightblue" d="M1369,-83.88C1391.3,-71.78 1423.62,-54.24 1448.15,-40.92"/>
<polygon fill="midnightblue" stroke="midnightblue" points="1450.02,-43.89 1457.13,-36.04 1446.68,-37.74 1450.02,-43.89"/>
</g>
<!-- Node9 -->
<g id="node9" class="node">
<title>Node9</title>
<g id="a_node9"><a xlink:title=" ">
<polygon fill="none" stroke="#bfbfbf" points="1564,-0.5 1564,-41.5 1676,-41.5 1676,-0.5 1564,-0.5"/>
<text text-anchor="start" x="1572" y="-29.5" font-family="Helvetica,sans-Serif" font-size="10.00">seerep&#45;msgs/labels</text>
<text text-anchor="start" x="1572" y="-18.5" font-family="Helvetica,sans-Serif" font-size="10.00">&#45;with&#45;instance&#45;with</text>
<text text-anchor="middle" x="1620" y="-7.5" font-family="Helvetica,sans-Serif" font-size="10.00">&#45;category.h</text>
</a>
</g>
</g>
<!-- Node5&#45;&gt;Node9 -->
<g id="edge10" class="edge">
<title>Node5&#45;&gt;Node9</title>
<path fill="none" stroke="midnightblue" d="M1398.52,-83.99C1439.12,-73.59 1495.75,-58.78 1553.94,-42.26"/>
<polygon fill="midnightblue" stroke="midnightblue" points="1555.01,-45.59 1563.67,-39.48 1553.09,-38.86 1555.01,-45.59"/>
</g>
<!-- Node5&#45;&gt;Node10 -->
<g id="edge11" class="edge">
<title>Node5&#45;&gt;Node10</title>
<path fill="none" stroke="midnightblue" d="M1405.95,-97.62C1530.07,-95.85 1814.71,-86.77 2049,-42 2059.52,-39.99 2070.76,-36.89 2080.87,-33.73"/>
<polygon fill="midnightblue" stroke="midnightblue" points="2082.12,-37 2090.54,-30.58 2079.95,-30.35 2082.12,-37"/>
</g>
<!-- Node11 -->
<g id="node11" class="node">
<title>Node11</title>
<g id="a_node11"><a xlink:title=" ">
<polygon fill="none" stroke="#bfbfbf" points="1694,-11.5 1694,-30.5 1742,-30.5 1742,-11.5 1694,-11.5"/>
<text text-anchor="middle" x="1718" y="-18.5" font-family="Helvetica,sans-Serif" font-size="10.00">mutex</text>
</a>
</g>
</g>
<!-- Node5&#45;&gt;Node11 -->
<g id="edge12" class="edge">
<title>Node5&#45;&gt;Node11</title>
<path fill="none" stroke="midnightblue" d="M1405.66,-94.9C1475.67,-89.82 1591.44,-76.53 1685,-42 1689.24,-40.43 1693.54,-38.3 1697.57,-36.02"/>
<polygon fill="midnightblue" stroke="midnightblue" points="1699.69,-38.82 1706.34,-30.58 1696,-32.87 1699.69,-38.82"/>
</g>
<!-- Node5&#45;&gt;Node12 -->
<g id="edge13" class="edge">
<title>Node5&#45;&gt;Node12</title>
<path fill="none" stroke="midnightblue" d="M1405.5,-97.26C1573.99,-94.7 2034.66,-83.98 2180,-42 2185.22,-40.49 2190.52,-38.18 2195.43,-35.64"/>
<polygon fill="midnightblue" stroke="midnightblue" points="2197.25,-38.64 2204.23,-30.67 2193.81,-32.54 2197.25,-38.64"/>
</g>
<!-- Node13 -->
<g id="node13" class="node">
<title>Node13</title>
<g id="a_node13"><a xlink:title=" ">
<polygon fill="none" stroke="#bfbfbf" points="260.5,-11.5 260.5,-30.5 329.5,-30.5 329.5,-11.5 260.5,-11.5"/>
<text text-anchor="middle" x="295" y="-18.5" font-family="Helvetica,sans-Serif" font-size="10.00">type_traits</text>
</a>
</g>
</g>
<!-- Node5&#45;&gt;Node13 -->
<g id="edge14" class="edge">
<title>Node5&#45;&gt;Node13</title>
<path fill="none" stroke="midnightblue" d="M1295.27,-83.9C1285.66,-81.55 1275.56,-79.41 1266,-78 1061.83,-47.88 538.61,-90.47 338,-42 331.49,-40.43 324.77,-37.83 318.64,-35.03"/>
<polygon fill="midnightblue" stroke="midnightblue" points="320.11,-31.85 309.59,-30.56 317.01,-38.12 320.11,-31.85"/>
</g>
<!-- Node5&#45;&gt;Node14 -->
<g id="edge15" class="edge">
<title>Node5&#45;&gt;Node14</title>
<path fill="none" stroke="midnightblue" d="M1405.56,-94.32C1506.85,-87.73 1712.78,-71.76 1885,-42 1891.16,-40.94 1897.54,-39.67 1903.9,-38.3"/>
<polygon fill="midnightblue" stroke="midnightblue" points="1904.85,-41.68 1913.85,-36.08 1903.33,-34.84 1904.85,-41.68"/>
</g>
<!-- Node5&#45;&gt;Node15 -->
<g id="edge16" class="edge">
<title>Node5&#45;&gt;Node15</title>
<path fill="none" stroke="midnightblue" d="M1295.69,-83.98C1285.95,-81.58 1275.7,-79.41 1266,-78 819.33,-12.87 696.28,-116.07 251,-42 239.9,-40.15 228.06,-36.97 217.51,-33.68"/>
<polygon fill="midnightblue" stroke="midnightblue" points="218.46,-30.3 207.87,-30.53 216.29,-36.96 218.46,-30.3"/>
</g>
<!-- Node16 -->
<g id="node16" class="node">
<title>Node16</title>
<g id="a_node16"><a xlink:title=" ">
<polygon fill="none" stroke="#bfbfbf" points="347.5,-11.5 347.5,-30.5 490.5,-30.5 490.5,-11.5 347.5,-11.5"/>
<text text-anchor="middle" x="419" y="-18.5" font-family="Helvetica,sans-Serif" font-size="10.00">boost/functional/hash.hpp</text>
</a>
</g>
</g>
<!-- Node5&#45;&gt;Node16 -->
<g id="edge17" class="edge">
<title>Node5&#45;&gt;Node16</title>
<path fill="none" stroke="midnightblue" d="M1295.26,-83.96C1285.65,-81.6 1275.56,-79.45 1266,-78 928.59,-26.83 836.64,-91.63 499,-42 485.12,-39.96 470.14,-36.55 456.94,-33.12"/>
<polygon fill="midnightblue" stroke="midnightblue" points="457.8,-29.73 447.24,-30.51 455.98,-36.49 457.8,-29.73"/>
</g>
<!-- Node17 -->
<g id="node17" class="node">
<title>Node17</title>
<g id="a_node17"><a xlink:title=" ">
<polygon fill="none" stroke="#bfbfbf" points="508.5,-11.5 508.5,-30.5 633.5,-30.5 633.5,-11.5 508.5,-11.5"/>
<text text-anchor="middle" x="571" y="-18.5" font-family="Helvetica,sans-Serif" font-size="10.00">boost/lexical_cast.hpp</text>
</a>
</g>
</g>
<!-- Node5&#45;&gt;Node17 -->
<g id="edge18" class="edge">
<title>Node5&#45;&gt;Node17</title>
<path fill="none" stroke="midnightblue" d="M1294.84,-83.94C1285.35,-81.61 1275.41,-79.48 1266,-78 991.57,-34.87 915.97,-87.93 642,-42 630.08,-40 617.3,-36.76 605.92,-33.46"/>
<polygon fill="midnightblue" stroke="midnightblue" points="606.91,-30.11 596.33,-30.58 604.9,-36.81 606.91,-30.11"/>
</g>
<!-- Node18 -->
<g id="node18" class="node">
<title>Node18</title>
<g id="a_node18"><a xlink:title=" ">
<polygon fill="none" stroke="#bfbfbf" points="651.5,-11.5 651.5,-30.5 764.5,-30.5 764.5,-11.5 651.5,-11.5"/>
<text text-anchor="middle" x="708" y="-18.5" font-family="Helvetica,sans-Serif" font-size="10.00">boost/uuid/uuid.hpp</text>
</a>
</g>
</g>
<!-- Node5&#45;&gt;Node18 -->
<g id="edge19" class="edge">
<title>Node5&#45;&gt;Node18</title>
<path fill="none" stroke="midnightblue" d="M1294.4,-83.96C1285.04,-81.66 1275.27,-79.53 1266,-78 1049.68,-42.29 989.56,-82.04 774,-42 763.12,-39.98 751.49,-36.81 741.07,-33.58"/>
<polygon fill="midnightblue" stroke="midnightblue" points="742.11,-30.24 731.51,-30.51 739.96,-36.9 742.11,-30.24"/>
</g>
<!-- Node19 -->
<g id="node19" class="node">
<title>Node19</title>
<g id="a_node19"><a xlink:title=" ">
<polygon fill="none" stroke="#bfbfbf" points="783,-11.5 783,-30.5 953,-30.5 953,-11.5 783,-11.5"/>
<text text-anchor="middle" x="868" y="-18.5" font-family="Helvetica,sans-Serif" font-size="10.00">boost/uuid/uuid_generators.hpp</text>
</a>
</g>
</g>
<!-- Node5&#45;&gt;Node19 -->
<g id="edge20" class="edge">
<title>Node5&#45;&gt;Node19</title>
<path fill="none" stroke="midnightblue" d="M1293.11,-83.99C1284.13,-81.77 1274.82,-79.66 1266,-78 1132.29,-52.84 1096.24,-64.18 962,-42 946.49,-39.44 929.65,-36.05 914.58,-32.79"/>
<polygon fill="midnightblue" stroke="midnightblue" points="914.98,-29.3 904.46,-30.57 913.47,-36.13 914.98,-29.3"/>
</g>
<!-- Node20 -->
<g id="node20" class="node">
<title>Node20</title>
<g id="a_node20"><a xlink:title=" ">
<polygon fill="none" stroke="#bfbfbf" points="971.5,-11.5 971.5,-30.5 1098.5,-30.5 1098.5,-11.5 971.5,-11.5"/>
<text text-anchor="middle" x="1035" y="-18.5" font-family="Helvetica,sans-Serif" font-size="10.00">boost/uuid/uuid_io.hpp</text>
</a>
</g>
</g>
<!-- Node5&#45;&gt;Node20 -->
<g id="edge21" class="edge">
<title>Node5&#45;&gt;Node20</title>
<path fill="none" stroke="midnightblue" d="M1289.62,-83.91C1281.71,-81.89 1273.65,-79.86 1266,-78 1196.03,-60.94 1177.86,-59.52 1108,-42 1097.28,-39.31 1085.72,-36.23 1075.03,-33.3"/>
<polygon fill="midnightblue" stroke="midnightblue" points="1075.68,-29.85 1065.11,-30.57 1073.82,-36.6 1075.68,-29.85"/>
</g>
<!-- Node21 -->
<g id="node21" class="node">
<title>Node21</title>
<g id="a_node21"><a xlink:title=" ">
<polygon fill="none" stroke="#bfbfbf" points="1116.5,-11.5 1116.5,-30.5 1265.5,-30.5 1265.5,-11.5 1116.5,-11.5"/>
<text text-anchor="middle" x="1191" y="-18.5" font-family="Helvetica,sans-Serif" font-size="10.00">impl/hdf5&#45;core&#45;general.hpp</text>
</a>
</g>
</g>
<!-- Node5&#45;&gt;Node21 -->
<g id="edge22" class="edge">
<title>Node5&#45;&gt;Node21</title>
<path fill="none" stroke="midnightblue" d="M1314.77,-83.88C1286.93,-69.97 1244.73,-48.86 1217.51,-35.25"/>
<polygon fill="midnightblue" stroke="midnightblue" points="1218.72,-31.95 1208.21,-30.61 1215.59,-38.21 1218.72,-31.95"/>
</g>
</g>
</svg>
