<?xml version="1.0" encoding="UTF-8" standalone="no"?>
<!DOCTYPE svg PUBLIC "-//W3C//DTD SVG 1.1//EN"
 "http://www.w3.org/Graphics/SVG/1.1/DTD/svg11.dtd">
<!-- Generated by graphviz version 2.43.0 (0)
 -->
<!-- Title: seerep&#45;hdf5/seerep&#45;hdf5&#45;pb/include/seerep&#45;hdf5&#45;pb/hdf5&#45;pb&#45;pointcloud.h Pages: 1 -->
<svg width="737pt" height="362pt"
 viewBox="0.00 0.00 736.50 362.00" xmlns="http://www.w3.org/2000/svg" xmlns:xlink="http://www.w3.org/1999/xlink">
<g id="graph0" class="graph" transform="scale(1 1) rotate(0) translate(4 358)">
<title>seerep&#45;hdf5/seerep&#45;hdf5&#45;pb/include/seerep&#45;hdf5&#45;pb/hdf5&#45;pb&#45;pointcloud.h</title>
<!-- Node1 -->
<g id="node1" class="node">
<title>Node1</title>
<g id="a_node1"><a xlink:title=" ">
<polygon fill="#bfbfbf" stroke="black" points="130,-312.5 130,-353.5 292,-353.5 292,-312.5 130,-312.5"/>
<text text-anchor="start" x="138" y="-341.5" font-family="Helvetica,sans-Serif" font-size="10.00">seerep&#45;hdf5/seerep</text>
<text text-anchor="start" x="138" y="-330.5" font-family="Helvetica,sans-Serif" font-size="10.00">&#45;hdf5&#45;pb/include/seerep</text>
<text text-anchor="middle" x="211" y="-319.5" font-family="Helvetica,sans-Serif" font-size="10.00">&#45;hdf5&#45;pb/hdf5&#45;pb&#45;pointcloud.h</text>
</a>
</g>
</g>
<!-- Node2 -->
<g id="node2" class="node">
<title>Node2</title>
<g id="a_node2"><a xlink:href="hdf5-pb-pointcloud_8cpp.html" target="_top" xlink:title=" ">
<polygon fill="none" stroke="black" points="0,-229 0,-270 116,-270 116,-229 0,-229"/>
<text text-anchor="start" x="8" y="-258" font-family="Helvetica,sans-Serif" font-size="10.00">seerep&#45;hdf5/seerep</text>
<text text-anchor="start" x="8" y="-247" font-family="Helvetica,sans-Serif" font-size="10.00">&#45;hdf5&#45;pb/src/hdf5&#45;pb</text>
<text text-anchor="middle" x="58" y="-236" font-family="Helvetica,sans-Serif" font-size="10.00">&#45;pointcloud.cpp</text>
</a>
</g>
</g>
<!-- Node1&#45;&gt;Node2 -->
<g id="edge1" class="edge">
<title>Node1&#45;&gt;Node2</title>
<path fill="none" stroke="midnightblue" d="M165.29,-307.65C142.7,-295.62 115.82,-281.3 94.61,-270"/>
<polygon fill="midnightblue" stroke="midnightblue" points="163.88,-310.87 174.35,-312.48 167.17,-304.69 163.88,-310.87"/>
</g>
<!-- Node3 -->
<g id="node3" class="node">
<title>Node3</title>
<g id="a_node3"><a xlink:href="hdf5dump_8h.html" target="_top" xlink:title=" ">
<polygon fill="none" stroke="black" points="134,-223.5 134,-275.5 288,-275.5 288,-223.5 134,-223.5"/>
<text text-anchor="start" x="142" y="-263.5" font-family="Helvetica,sans-Serif" font-size="10.00">seerep&#45;ros/seerep_ros</text>
<text text-anchor="start" x="142" y="-252.5" font-family="Helvetica,sans-Serif" font-size="10.00">_communication/include</text>
<text text-anchor="start" x="142" y="-241.5" font-family="Helvetica,sans-Serif" font-size="10.00">/seerep_ros_communication</text>
<text text-anchor="middle" x="211" y="-230.5" font-family="Helvetica,sans-Serif" font-size="10.00">/hdf5dump.h</text>
</a>
</g>
</g>
<!-- Node1&#45;&gt;Node3 -->
<g id="edge2" class="edge">
<title>Node1&#45;&gt;Node3</title>
<path fill="none" stroke="midnightblue" d="M211,-302.12C211,-293.41 211,-283.99 211,-275.61"/>
<polygon fill="midnightblue" stroke="midnightblue" points="207.5,-302.27 211,-312.27 214.5,-302.27 207.5,-302.27"/>
</g>
<!-- Node5 -->
<g id="node5" class="node">
<title>Node5</title>
<g id="a_node5"><a xlink:href="core-pb-pointcloud_8h.html" target="_top" xlink:title=" ">
<polygon fill="none" stroke="black" points="322,-229 322,-270 458,-270 458,-229 322,-229"/>
<text text-anchor="start" x="330" y="-258" font-family="Helvetica,sans-Serif" font-size="10.00">seerep&#45;srv/seerep&#45;core</text>
<text text-anchor="start" x="330" y="-247" font-family="Helvetica,sans-Serif" font-size="10.00">&#45;pb/include/seerep&#45;core</text>
<text text-anchor="middle" x="390" y="-236" font-family="Helvetica,sans-Serif" font-size="10.00">&#45;pb/core&#45;pb&#45;pointcloud.h</text>
</a>
</g>
</g>
<!-- Node1&#45;&gt;Node5 -->
<g id="edge4" class="edge">
<title>Node1&#45;&gt;Node5</title>
<path fill="none" stroke="midnightblue" d="M263.08,-308.29C289.78,-296.13 321.91,-281.5 347.17,-270"/>
<polygon fill="midnightblue" stroke="midnightblue" points="261.53,-305.15 253.87,-312.48 264.43,-311.52 261.53,-305.15"/>
</g>
<!-- Node4 -->
<g id="node4" class="node">
<title>Node4</title>
<g id="a_node4"><a xlink:href="hdf5dump_8cpp.html" target="_top" xlink:title=" ">
<polygon fill="none" stroke="black" points="102,-151 102,-181 290,-181 290,-151 102,-151"/>
<text text-anchor="start" x="110" y="-169" font-family="Helvetica,sans-Serif" font-size="10.00">seerep&#45;ros/seerep_ros</text>
<text text-anchor="middle" x="196" y="-158" font-family="Helvetica,sans-Serif" font-size="10.00">_communication/src/hdf5dump.cpp</text>
</a>
</g>
</g>
<!-- Node3&#45;&gt;Node4 -->
<g id="edge3" class="edge">
<title>Node3&#45;&gt;Node4</title>
<path fill="none" stroke="midnightblue" d="M204.48,-213.08C202.41,-201.82 200.24,-190.01 198.61,-181.17"/>
<polygon fill="midnightblue" stroke="midnightblue" points="201.08,-213.96 206.34,-223.16 207.97,-212.69 201.08,-213.96"/>
</g>
<!-- Node6 -->
<g id="node6" class="node">
<title>Node6</title>
<g id="a_node6"><a xlink:href="core-pb-pointcloud_8cpp.html" target="_top" xlink:title=" ">
<polygon fill="none" stroke="black" points="308,-151 308,-181 472,-181 472,-151 308,-151"/>
<text text-anchor="start" x="316" y="-169" font-family="Helvetica,sans-Serif" font-size="10.00">seerep&#45;srv/seerep&#45;core</text>
<text text-anchor="middle" x="390" y="-158" font-family="Helvetica,sans-Serif" font-size="10.00">&#45;pb/src/core&#45;pb&#45;pointcloud.cpp</text>
</a>
</g>
</g>
<!-- Node5&#45;&gt;Node6 -->
<g id="edge5" class="edge">
<title>Node5&#45;&gt;Node6</title>
<path fill="none" stroke="midnightblue" d="M390,-218.53C390,-205.76 390,-191.47 390,-181.18"/>
<polygon fill="midnightblue" stroke="midnightblue" points="386.5,-218.77 390,-228.77 393.5,-218.77 386.5,-218.77"/>
</g>
<!-- Node7 -->
<g id="node7" class="node">
<title>Node7</title>
<g id="a_node7"><a xlink:href="pb-point-cloud-service_8h.html" target="_top" xlink:title=" ">
<polygon fill="none" stroke="black" points="490.5,-145.5 490.5,-186.5 629.5,-186.5 629.5,-145.5 490.5,-145.5"/>
<text text-anchor="start" x="498.5" y="-174.5" font-family="Helvetica,sans-Serif" font-size="10.00">seerep&#45;srv/seerep&#45;server</text>
<text text-anchor="start" x="498.5" y="-163.5" font-family="Helvetica,sans-Serif" font-size="10.00">/include/seerep&#45;server</text>
<text text-anchor="middle" x="560" y="-152.5" font-family="Helvetica,sans-Serif" font-size="10.00">/pb&#45;point&#45;cloud&#45;service.h</text>
</a>
</g>
</g>
<!-- Node5&#45;&gt;Node7 -->
<g id="edge6" class="edge">
<title>Node5&#45;&gt;Node7</title>
<path fill="none" stroke="midnightblue" d="M439.79,-224.63C465.09,-212.5 495.44,-197.95 519.32,-186.5"/>
<polygon fill="midnightblue" stroke="midnightblue" points="438.22,-221.5 430.72,-228.98 441.25,-227.81 438.22,-221.5"/>
</g>
<!-- Node8 -->
<g id="node8" class="node">
<title>Node8</title>
<g id="a_node8"><a xlink:href="server_8h.html" target="_top" xlink:title=" ">
<polygon fill="none" stroke="black" points="404.5,-67.5 404.5,-108.5 543.5,-108.5 543.5,-67.5 404.5,-67.5"/>
<text text-anchor="start" x="412.5" y="-96.5" font-family="Helvetica,sans-Serif" font-size="10.00">seerep&#45;srv/seerep&#45;server</text>
<text text-anchor="start" x="412.5" y="-85.5" font-family="Helvetica,sans-Serif" font-size="10.00">/include/seerep&#45;server</text>
<text text-anchor="middle" x="474" y="-74.5" font-family="Helvetica,sans-Serif" font-size="10.00">/server.h</text>
</a>
</g>
</g>
<!-- Node7&#45;&gt;Node8 -->
<g id="edge7" class="edge">
<title>Node7&#45;&gt;Node8</title>
<path fill="none" stroke="midnightblue" d="M530.33,-138.78C519.09,-128.84 506.49,-117.72 496.07,-108.51"/>
<polygon fill="midnightblue" stroke="midnightblue" points="528.04,-141.43 537.85,-145.43 532.68,-136.18 528.04,-141.43"/>
</g>
<!-- Node10 -->
<g id="node10" class="node">
<title>Node10</title>
<g id="a_node10"><a xlink:href="pb-point-cloud-service_8cpp.html" target="_top" xlink:title=" ">
<polygon fill="none" stroke="black" points="561.5,-73 561.5,-103 728.5,-103 728.5,-73 561.5,-73"/>
<text text-anchor="start" x="569.5" y="-91" font-family="Helvetica,sans-Serif" font-size="10.00">seerep&#45;srv/seerep&#45;server</text>
<text text-anchor="middle" x="645" y="-80" font-family="Helvetica,sans-Serif" font-size="10.00">/src/pb&#45;point&#45;cloud&#45;service.cpp</text>
</a>
</g>
</g>
<!-- Node7&#45;&gt;Node10 -->
<g id="edge9" class="edge">
<title>Node7&#45;&gt;Node10</title>
<path fill="none" stroke="midnightblue" d="M589.46,-138.66C602.77,-126.76 617.96,-113.18 629.09,-103.23"/>
<polygon fill="midnightblue" stroke="midnightblue" points="587.01,-136.15 581.89,-145.43 591.68,-141.37 587.01,-136.15"/>
</g>
<!-- Node9 -->
<g id="node9" class="node">
<title>Node9</title>
<g id="a_node9"><a xlink:href="server_8cpp.html" target="_top" xlink:title=" ">
<polygon fill="none" stroke="black" points="404.5,-0.5 404.5,-30.5 543.5,-30.5 543.5,-0.5 404.5,-0.5"/>
<text text-anchor="start" x="412.5" y="-18.5" font-family="Helvetica,sans-Serif" font-size="10.00">seerep&#45;srv/seerep&#45;server</text>
<text text-anchor="middle" x="474" y="-7.5" font-family="Helvetica,sans-Serif" font-size="10.00">/src/server.cpp</text>
</a>
</g>
</g>
<!-- Node8&#45;&gt;Node9 -->
<g id="edge8" class="edge">
<title>Node8&#45;&gt;Node9</title>
<path fill="none" stroke="midnightblue" d="M474,-57.08C474,-48.01 474,-38.45 474,-30.89"/>
<polygon fill="midnightblue" stroke="midnightblue" points="470.5,-57.36 474,-67.36 477.5,-57.36 470.5,-57.36"/>
</g>
</g>
</svg>
