<?xml version="1.0" encoding="UTF-8" standalone="no"?>
<!DOCTYPE svg PUBLIC "-//W3C//DTD SVG 1.1//EN"
 "http://www.w3.org/Graphics/SVG/1.1/DTD/svg11.dtd">
<!-- Generated by graphviz version 2.43.0 (0)
 -->
<!-- Title: seerep_hdf5/seerep_hdf5_py/include/seerep_hdf5_py/hdf5_py_image.h Pages: 1 -->
<svg width="2451pt" height="374pt"
 viewBox="0.00 0.00 2450.50 374.00" xmlns="http://www.w3.org/2000/svg" xmlns:xlink="http://www.w3.org/1999/xlink">
<g id="graph0" class="graph" transform="scale(1 1) rotate(0) translate(4 370)">
<title>seerep_hdf5/seerep_hdf5_py/include/seerep_hdf5_py/hdf5_py_image.h</title>
<!-- Node1 -->
<g id="node1" class="node">
<title>Node1</title>
<g id="a_node1"><a xlink:title=" ">
<polygon fill="#bfbfbf" stroke="black" points="1399,-324.5 1399,-365.5 1547,-365.5 1547,-324.5 1399,-324.5"/>
<text text-anchor="start" x="1407" y="-353.5" font-family="Helvetica,sans-Serif" font-size="10.00">seerep_hdf5/seerep</text>
<text text-anchor="start" x="1407" y="-342.5" font-family="Helvetica,sans-Serif" font-size="10.00">_hdf5_py/include/seerep</text>
<text text-anchor="middle" x="1473" y="-331.5" font-family="Helvetica,sans-Serif" font-size="10.00">_hdf5_py/hdf5_py_image.h</text>
</a>
</g>
</g>
<!-- Node2 -->
<g id="node2" class="node">
<title>Node2</title>
<g id="a_node2"><a xlink:title=" ">
<polygon fill="none" stroke="#bfbfbf" points="2017,-67.5 2017,-86.5 2127,-86.5 2127,-67.5 2017,-67.5"/>
<text text-anchor="middle" x="2072" y="-74.5" font-family="Helvetica,sans-Serif" font-size="10.00">highfive/H5File.hpp</text>
</a>
</g>
</g>
<!-- Node1&#45;&gt;Node2 -->
<g id="edge1" class="edge">
<title>Node1&#45;&gt;Node2</title>
<path fill="none" stroke="midnightblue" d="M1547.24,-326.38C1622.47,-308.6 1742.23,-280.49 1846,-257 1918.78,-240.52 1940.74,-248.78 2010,-221 2054.43,-203.18 2078.55,-206.73 2102,-165 2114.8,-142.23 2099.01,-113.06 2085.93,-94.95"/>
<polygon fill="midnightblue" stroke="midnightblue" points="2088.37,-92.38 2079.51,-86.58 2082.82,-96.64 2088.37,-92.38"/>
</g>
<!-- Node3 -->
<g id="node3" class="node">
<title>Node3</title>
<g id="a_node3"><a xlink:href="hdf5__core__image_8h.html" target="_top" xlink:title=" ">
<polygon fill="none" stroke="black" points="1287,-257.5 1287,-287.5 1415,-287.5 1415,-257.5 1287,-257.5"/>
<text text-anchor="start" x="1295" y="-275.5" font-family="Helvetica,sans-Serif" font-size="10.00">seerep_hdf5_core/hdf5</text>
<text text-anchor="middle" x="1351" y="-264.5" font-family="Helvetica,sans-Serif" font-size="10.00">_core_image.h</text>
</a>
</g>
</g>
<!-- Node1&#45;&gt;Node3 -->
<g id="edge2" class="edge">
<title>Node1&#45;&gt;Node3</title>
<path fill="none" stroke="midnightblue" d="M1439.02,-324.36C1422,-314.53 1401.47,-302.67 1384.52,-292.87"/>
<polygon fill="midnightblue" stroke="midnightblue" points="1385.93,-289.64 1375.52,-287.67 1382.43,-295.7 1385.93,-289.64"/>
</g>
<!-- Node11 -->
<g id="node11" class="node">
<title>Node11</title>
<g id="a_node11"><a xlink:title=" ">
<polygon fill="none" stroke="#bfbfbf" points="132.5,-67.5 132.5,-86.5 245.5,-86.5 245.5,-67.5 132.5,-67.5"/>
<text text-anchor="middle" x="189" y="-74.5" font-family="Helvetica,sans-Serif" font-size="10.00">boost/geometry.hpp</text>
</a>
</g>
</g>
<!-- Node1&#45;&gt;Node11 -->
<g id="edge56" class="edge">
<title>Node1&#45;&gt;Node11</title>
<path fill="none" stroke="midnightblue" d="M1398.94,-327.5C1309.17,-306.63 1153.91,-267.72 1025,-221 937.3,-189.22 924.5,-156.6 834,-134 583.42,-71.43 508.09,-144.3 254,-98 243.37,-96.06 232.04,-92.96 221.86,-89.76"/>
<polygon fill="midnightblue" stroke="midnightblue" points="222.73,-86.36 212.14,-86.58 220.55,-93.02 222.73,-86.36"/>
</g>
<!-- Node13 -->
<g id="node13" class="node">
<title>Node13</title>
<g id="a_node13"><a xlink:title=" ">
<polygon fill="none" stroke="#bfbfbf" points="1803,-67.5 1803,-86.5 1859,-86.5 1859,-67.5 1803,-67.5"/>
<text text-anchor="middle" x="1831" y="-74.5" font-family="Helvetica,sans-Serif" font-size="10.00">optional</text>
</a>
</g>
</g>
<!-- Node1&#45;&gt;Node13 -->
<g id="edge57" class="edge">
<title>Node1&#45;&gt;Node13</title>
<path fill="none" stroke="midnightblue" d="M1465.49,-324.19C1451.29,-282.99 1426.01,-187.44 1474,-134 1521.82,-80.76 1725.72,-119.41 1794,-98 1799.18,-96.38 1804.47,-94.01 1809.37,-91.47"/>
<polygon fill="midnightblue" stroke="midnightblue" points="1811.19,-94.46 1818.19,-86.51 1807.76,-88.36 1811.19,-94.46"/>
</g>
<!-- Node30 -->
<g id="node30" class="node">
<title>Node30</title>
<g id="a_node30"><a xlink:href="hdf5__py__general_8h.html" target="_top" xlink:title=" ">
<polygon fill="none" stroke="black" points="792.5,-201.5 792.5,-220.5 899.5,-220.5 899.5,-201.5 792.5,-201.5"/>
<text text-anchor="middle" x="846" y="-208.5" font-family="Helvetica,sans-Serif" font-size="10.00">hdf5_py_general.h</text>
</a>
</g>
</g>
<!-- Node1&#45;&gt;Node30 -->
<g id="edge46" class="edge">
<title>Node1&#45;&gt;Node30</title>
<path fill="none" stroke="midnightblue" d="M1398.99,-343.16C1266.98,-340.6 996.98,-330.19 914,-288 888.43,-275 867.99,-248.02 856.43,-229.96"/>
<polygon fill="midnightblue" stroke="midnightblue" points="859.15,-227.69 850.94,-220.99 853.18,-231.34 859.15,-227.69"/>
</g>
<!-- Node33 -->
<g id="node33" class="node">
<title>Node33</title>
<g id="a_node33"><a xlink:title=" ">
<polygon fill="none" stroke="#bfbfbf" points="1854.5,-263 1854.5,-282 1993.5,-282 1993.5,-263 1854.5,-263"/>
<text text-anchor="middle" x="1924" y="-270" font-family="Helvetica,sans-Serif" font-size="10.00">seerep_msgs/image.pb.h</text>
</a>
</g>
</g>
<!-- Node1&#45;&gt;Node33 -->
<g id="edge55" class="edge">
<title>Node1&#45;&gt;Node33</title>
<path fill="none" stroke="midnightblue" d="M1547.22,-333.11C1621.4,-322.12 1738.69,-304.47 1840,-288 1848.29,-286.65 1857.04,-285.19 1865.63,-283.73"/>
<polygon fill="midnightblue" stroke="midnightblue" points="1866.34,-287.16 1875.61,-282.02 1865.16,-280.26 1866.34,-287.16"/>
</g>
<!-- Node34 -->
<g id="node34" class="node">
<title>Node34</title>
<g id="a_node34"><a xlink:title=" ">
<polygon fill="none" stroke="#bfbfbf" points="2011.5,-257.5 2011.5,-287.5 2156.5,-287.5 2156.5,-257.5 2011.5,-257.5"/>
<text text-anchor="start" x="2019.5" y="-275.5" font-family="Helvetica,sans-Serif" font-size="10.00">pybind11_catkin/pybind11</text>
<text text-anchor="middle" x="2084" y="-264.5" font-family="Helvetica,sans-Serif" font-size="10.00">/numpy.h</text>
</a>
</g>
</g>
<!-- Node1&#45;&gt;Node34 -->
<g id="edge58" class="edge">
<title>Node1&#45;&gt;Node34</title>
<path fill="none" stroke="midnightblue" d="M1547.38,-337.84C1648.1,-329.12 1833.66,-311.71 2001.19,-288.2"/>
<polygon fill="midnightblue" stroke="midnightblue" points="2001.77,-291.66 2011.18,-286.79 2000.79,-284.72 2001.77,-291.66"/>
</g>
<!-- Node35 -->
<g id="node35" class="node">
<title>Node35</title>
<g id="a_node35"><a xlink:title=" ">
<polygon fill="none" stroke="#bfbfbf" points="2174.5,-257.5 2174.5,-287.5 2319.5,-287.5 2319.5,-257.5 2174.5,-257.5"/>
<text text-anchor="start" x="2182.5" y="-275.5" font-family="Helvetica,sans-Serif" font-size="10.00">pybind11_catkin/pybind11</text>
<text text-anchor="middle" x="2247" y="-264.5" font-family="Helvetica,sans-Serif" font-size="10.00">/pybind11.h</text>
</a>
</g>
</g>
<!-- Node1&#45;&gt;Node35 -->
<g id="edge59" class="edge">
<title>Node1&#45;&gt;Node35</title>
<path fill="none" stroke="midnightblue" d="M1547.09,-340.37C1672.27,-333.71 1933.75,-317.57 2163.95,-288.19"/>
<polygon fill="midnightblue" stroke="midnightblue" points="2164.72,-291.62 2174.19,-286.88 2163.83,-284.68 2164.72,-291.62"/>
</g>
<!-- Node3&#45;&gt;Node2 -->
<g id="edge3" class="edge">
<title>Node3&#45;&gt;Node2</title>
<path fill="none" stroke="midnightblue" d="M1415.19,-272.39C1525.65,-272.53 1758.13,-266.7 1948,-221 2011.95,-205.61 2048.33,-219.61 2085,-165 2098.94,-144.25 2089.74,-114.46 2081.29,-95.68"/>
<polygon fill="midnightblue" stroke="midnightblue" points="2084.35,-93.97 2076.82,-86.51 2078.05,-97.03 2084.35,-93.97"/>
</g>
<!-- Node4 -->
<g id="node4" class="node">
<title>Node4</title>
<g id="a_node4"><a xlink:href="hdf5__core__cameraintrinsics_8h.html" target="_top" xlink:title=" ">
<polygon fill="none" stroke="black" points="1779,-201.5 1779,-220.5 1939,-220.5 1939,-201.5 1779,-201.5"/>
<text text-anchor="middle" x="1859" y="-208.5" font-family="Helvetica,sans-Serif" font-size="10.00">hdf5_core_cameraintrinsics.h</text>
</a>
</g>
</g>
<!-- Node3&#45;&gt;Node4 -->
<g id="edge4" class="edge">
<title>Node3&#45;&gt;Node4</title>
<path fill="none" stroke="midnightblue" d="M1415.08,-263.99C1506.63,-253.27 1674.92,-233.56 1775.92,-221.73"/>
<polygon fill="midnightblue" stroke="midnightblue" points="1776.56,-225.18 1786.09,-220.54 1775.75,-218.23 1776.56,-225.18"/>
</g>
<!-- Node6 -->
<g id="node6" class="node">
<title>Node6</title>
<g id="a_node6"><a xlink:href="hdf5__core__general_8h.html" target="_top" xlink:title=" ">
<polygon fill="none" stroke="black" points="1108,-134.5 1108,-164.5 1236,-164.5 1236,-134.5 1108,-134.5"/>
<text text-anchor="start" x="1116" y="-152.5" font-family="Helvetica,sans-Serif" font-size="10.00">seerep_hdf5_core/hdf5</text>
<text text-anchor="middle" x="1172" y="-141.5" font-family="Helvetica,sans-Serif" font-size="10.00">_core_general.h</text>
</a>
</g>
</g>
<!-- Node3&#45;&gt;Node6 -->
<g id="edge36" class="edge">
<title>Node3&#45;&gt;Node6</title>
<path fill="none" stroke="midnightblue" d="M1330.12,-257.38C1298.32,-235.89 1237.65,-194.88 1201.41,-170.38"/>
<polygon fill="midnightblue" stroke="midnightblue" points="1203,-167.23 1192.75,-164.53 1199.08,-173.03 1203,-167.23"/>
</g>
<!-- Node8 -->
<g id="node8" class="node">
<title>Node8</title>
<g id="a_node8"><a xlink:title=" ">
<polygon fill="none" stroke="#bfbfbf" points="1877.5,-62 1877.5,-92 1998.5,-92 1998.5,-62 1877.5,-62"/>
<text text-anchor="start" x="1885.5" y="-80" font-family="Helvetica,sans-Serif" font-size="10.00">seerep_msgs/dataset</text>
<text text-anchor="middle" x="1938" y="-69" font-family="Helvetica,sans-Serif" font-size="10.00">_indexable.h</text>
</a>
</g>
</g>
<!-- Node3&#45;&gt;Node8 -->
<g id="edge37" class="edge">
<title>Node3&#45;&gt;Node8</title>
<path fill="none" stroke="midnightblue" d="M1395.06,-257.37C1447.21,-239.68 1535.72,-206.59 1605,-165 1623.69,-153.78 1623.11,-142.92 1643,-134 1735.41,-92.57 1769.14,-119.95 1868,-98 1872.62,-96.98 1877.38,-95.82 1882.14,-94.6"/>
<polygon fill="midnightblue" stroke="midnightblue" points="1883.12,-97.97 1891.89,-92.02 1881.32,-91.2 1883.12,-97.97"/>
</g>
<!-- Node10 -->
<g id="node10" class="node">
<title>Node10</title>
<g id="a_node10"><a xlink:title=" ">
<polygon fill="none" stroke="#bfbfbf" points="427,-56.5 427,-97.5 543,-97.5 543,-56.5 427,-56.5"/>
<text text-anchor="start" x="435" y="-85.5" font-family="Helvetica,sans-Serif" font-size="10.00">seerep_msgs/labels</text>
<text text-anchor="start" x="435" y="-74.5" font-family="Helvetica,sans-Serif" font-size="10.00">_with_instance_with</text>
<text text-anchor="middle" x="485" y="-63.5" font-family="Helvetica,sans-Serif" font-size="10.00">_category.h</text>
</a>
</g>
</g>
<!-- Node3&#45;&gt;Node10 -->
<g id="edge38" class="edge">
<title>Node3&#45;&gt;Node10</title>
<path fill="none" stroke="midnightblue" d="M1286.84,-263.32C1238.48,-255.84 1171.12,-242.58 1115,-221 1068.54,-203.13 1058.97,-193.27 1018,-165 1000.06,-152.62 1000.21,-142.17 980,-134 806.04,-63.69 741.77,-131.1 553.24,-97.99"/>
<polygon fill="midnightblue" stroke="midnightblue" points="553.76,-94.53 543.29,-96.17 552.5,-101.41 553.76,-94.53"/>
</g>
<!-- Node3&#45;&gt;Node11 -->
<g id="edge39" class="edge">
<title>Node3&#45;&gt;Node11</title>
<path fill="none" stroke="midnightblue" d="M1286.98,-267.21C1228.33,-261.64 1139.96,-249.05 1068,-221 1024.81,-204.16 1017.58,-192.14 980,-165 962.33,-152.24 962.33,-141.85 942,-134 799.17,-78.88 404.75,-124.71 254,-98 243.28,-96.1 231.84,-92.97 221.6,-89.75"/>
<polygon fill="midnightblue" stroke="midnightblue" points="222.42,-86.33 211.82,-86.53 220.23,-92.98 222.42,-86.33"/>
</g>
<!-- Node3&#45;&gt;Node13 -->
<g id="edge40" class="edge">
<title>Node3&#45;&gt;Node13</title>
<path fill="none" stroke="midnightblue" d="M1351.56,-257.38C1353.53,-228.82 1362.38,-164.34 1402,-134 1471.45,-80.81 1710.26,-123.31 1794,-98 1799.2,-96.43 1804.49,-94.08 1809.4,-91.55"/>
<polygon fill="midnightblue" stroke="midnightblue" points="1811.21,-94.54 1818.21,-86.58 1807.78,-88.44 1811.21,-94.54"/>
</g>
<!-- Node17 -->
<g id="node17" class="node">
<title>Node17</title>
<g id="a_node17"><a xlink:title=" ">
<polygon fill="none" stroke="#bfbfbf" points="561.5,-67.5 561.5,-86.5 704.5,-86.5 704.5,-67.5 561.5,-67.5"/>
<text text-anchor="middle" x="633" y="-74.5" font-family="Helvetica,sans-Serif" font-size="10.00">boost/functional/hash.hpp</text>
</a>
</g>
</g>
<!-- Node3&#45;&gt;Node17 -->
<g id="edge41" class="edge">
<title>Node3&#45;&gt;Node17</title>
<path fill="none" stroke="midnightblue" d="M1287.83,-257.47C1251.85,-248.66 1206.26,-236.12 1167,-221 1115.43,-201.14 1102.35,-195.09 1056,-165 1037.72,-153.13 1038.07,-142.51 1018,-134 892.33,-80.73 847.26,-122.6 713,-98 699.89,-95.6 685.73,-92.3 673.02,-89.07"/>
<polygon fill="midnightblue" stroke="midnightblue" points="673.75,-85.64 663.19,-86.52 671.99,-92.42 673.75,-85.64"/>
</g>
<!-- Node18 -->
<g id="node18" class="node">
<title>Node18</title>
<g id="a_node18"><a xlink:title=" ">
<polygon fill="none" stroke="#bfbfbf" points="722.5,-67.5 722.5,-86.5 847.5,-86.5 847.5,-67.5 722.5,-67.5"/>
<text text-anchor="middle" x="785" y="-74.5" font-family="Helvetica,sans-Serif" font-size="10.00">boost/lexical_cast.hpp</text>
</a>
</g>
</g>
<!-- Node3&#45;&gt;Node18 -->
<g id="edge42" class="edge">
<title>Node3&#45;&gt;Node18</title>
<path fill="none" stroke="midnightblue" d="M1309.96,-257.4C1258.97,-239.15 1170,-204.92 1099,-165 1078.46,-153.45 1077.69,-143.2 1056,-134 972.86,-98.72 944.01,-118.27 856,-98 845.12,-95.5 833.43,-92.38 822.72,-89.36"/>
<polygon fill="midnightblue" stroke="midnightblue" points="823.41,-85.91 812.83,-86.51 821.47,-92.64 823.41,-85.91"/>
</g>
<!-- Node19 -->
<g id="node19" class="node">
<title>Node19</title>
<g id="a_node19"><a xlink:title=" ">
<polygon fill="none" stroke="#bfbfbf" points="2145.5,-67.5 2145.5,-86.5 2258.5,-86.5 2258.5,-67.5 2145.5,-67.5"/>
<text text-anchor="middle" x="2202" y="-74.5" font-family="Helvetica,sans-Serif" font-size="10.00">boost/uuid/uuid.hpp</text>
</a>
</g>
</g>
<!-- Node3&#45;&gt;Node19 -->
<g id="edge43" class="edge">
<title>Node3&#45;&gt;Node19</title>
<path fill="none" stroke="midnightblue" d="M1415.05,-270.38C1558.29,-267.27 1900.51,-256.27 2010,-221 2086.99,-196.2 2157.88,-126.47 2187.45,-94.45"/>
<polygon fill="midnightblue" stroke="midnightblue" points="2190.24,-96.58 2194.37,-86.83 2185.06,-91.88 2190.24,-96.58"/>
</g>
<!-- Node20 -->
<g id="node20" class="node">
<title>Node20</title>
<g id="a_node20"><a xlink:title=" ">
<polygon fill="none" stroke="#bfbfbf" points="1469,-67.5 1469,-86.5 1639,-86.5 1639,-67.5 1469,-67.5"/>
<text text-anchor="middle" x="1554" y="-74.5" font-family="Helvetica,sans-Serif" font-size="10.00">boost/uuid/uuid_generators.hpp</text>
</a>
</g>
</g>
<!-- Node3&#45;&gt;Node20 -->
<g id="edge44" class="edge">
<title>Node3&#45;&gt;Node20</title>
<path fill="none" stroke="midnightblue" d="M1341.95,-257.31C1325.99,-230.29 1297.11,-170.85 1326,-134 1331.56,-126.91 1438.18,-102.91 1503.62,-88.73"/>
<polygon fill="midnightblue" stroke="midnightblue" points="1504.71,-92.07 1513.75,-86.54 1503.24,-85.23 1504.71,-92.07"/>
</g>
<!-- Node21 -->
<g id="node21" class="node">
<title>Node21</title>
<g id="a_node21"><a xlink:title=" ">
<polygon fill="none" stroke="#bfbfbf" points="1657.5,-67.5 1657.5,-86.5 1784.5,-86.5 1784.5,-67.5 1657.5,-67.5"/>
<text text-anchor="middle" x="1721" y="-74.5" font-family="Helvetica,sans-Serif" font-size="10.00">boost/uuid/uuid_io.hpp</text>
</a>
</g>
</g>
<!-- Node3&#45;&gt;Node21 -->
<g id="edge45" class="edge">
<title>Node3&#45;&gt;Node21</title>
<path fill="none" stroke="midnightblue" d="M1347.22,-257.09C1340.86,-229.15 1331.63,-167.41 1364,-134 1408.26,-88.31 1585.61,-110.44 1648,-98 1659.76,-95.66 1672.41,-92.44 1683.83,-89.27"/>
<polygon fill="midnightblue" stroke="midnightblue" points="1684.83,-92.63 1693.49,-86.53 1682.91,-85.9 1684.83,-92.63"/>
</g>
<!-- Node29 -->
<g id="node29" class="node">
<title>Node29</title>
<g id="a_node29"><a xlink:href="hdf5__core__datatype__interface_8h.html" target="_top" xlink:title=" ">
<polygon fill="none" stroke="black" points="1482.5,-134.5 1482.5,-164.5 1595.5,-164.5 1595.5,-134.5 1482.5,-134.5"/>
<text text-anchor="start" x="1490.5" y="-152.5" font-family="Helvetica,sans-Serif" font-size="10.00">hdf5_core_datatype</text>
<text text-anchor="middle" x="1539" y="-141.5" font-family="Helvetica,sans-Serif" font-size="10.00">_interface.h</text>
</a>
</g>
</g>
<!-- Node3&#45;&gt;Node29 -->
<g id="edge32" class="edge">
<title>Node3&#45;&gt;Node29</title>
<path fill="none" stroke="midnightblue" d="M1372.93,-257.38C1406.47,-235.8 1470.59,-194.53 1508.6,-170.07"/>
<polygon fill="midnightblue" stroke="midnightblue" points="1510.69,-172.88 1517.21,-164.53 1506.9,-167 1510.69,-172.88"/>
</g>
<!-- Node4&#45;&gt;Node2 -->
<g id="edge6" class="edge">
<title>Node4&#45;&gt;Node2</title>
<path fill="none" stroke="midnightblue" d="M1939.09,-202.29C1989.61,-195.66 2048.35,-184.06 2065,-165 2081.25,-146.4 2079.64,-116.21 2076.33,-96.74"/>
<polygon fill="midnightblue" stroke="midnightblue" points="2079.71,-95.79 2074.31,-86.67 2072.85,-97.17 2079.71,-95.79"/>
</g>
<!-- Node5 -->
<g id="node5" class="node">
<title>Node5</title>
<g id="a_node5"><a xlink:title=" ">
<polygon fill="none" stroke="#bfbfbf" points="1652,-140 1652,-159 1784,-159 1784,-140 1652,-140"/>
<text text-anchor="middle" x="1718" y="-147" font-family="Helvetica,sans-Serif" font-size="10.00">highfive/H5DataSet.hpp</text>
</a>
</g>
</g>
<!-- Node4&#45;&gt;Node5 -->
<g id="edge5" class="edge">
<title>Node4&#45;&gt;Node5</title>
<path fill="none" stroke="midnightblue" d="M1838.8,-201.48C1814.93,-191.4 1775,-174.55 1747.63,-163"/>
<polygon fill="midnightblue" stroke="midnightblue" points="1748.74,-159.67 1738.16,-159.01 1746.02,-166.12 1748.74,-159.67"/>
</g>
<!-- Node4&#45;&gt;Node6 -->
<g id="edge7" class="edge">
<title>Node4&#45;&gt;Node6</title>
<path fill="none" stroke="midnightblue" d="M1778.85,-203.06C1644.79,-191.45 1377,-168.25 1246.68,-156.97"/>
<polygon fill="midnightblue" stroke="midnightblue" points="1246.67,-153.45 1236.4,-156.08 1246.06,-160.43 1246.67,-153.45"/>
</g>
<!-- Node23 -->
<g id="node23" class="node">
<title>Node23</title>
<g id="a_node23"><a xlink:href="header_8h.html" target="_top" xlink:title=" ">
<polygon fill="none" stroke="black" points="2257.5,-140 2257.5,-159 2316.5,-159 2316.5,-140 2257.5,-140"/>
<text text-anchor="middle" x="2287" y="-147" font-family="Helvetica,sans-Serif" font-size="10.00">header.h</text>
</a>
</g>
</g>
<!-- Node4&#45;&gt;Node23 -->
<g id="edge25" class="edge">
<title>Node4&#45;&gt;Node23</title>
<path fill="none" stroke="midnightblue" d="M1920.32,-201.48C2009.51,-189.08 2172.52,-166.41 2247.43,-156"/>
<polygon fill="midnightblue" stroke="midnightblue" points="2247.98,-159.46 2257.4,-154.61 2247.02,-152.52 2247.98,-159.46"/>
</g>
<!-- Node27 -->
<g id="node27" class="node">
<title>Node27</title>
<g id="a_node27"><a xlink:href="region__of__interest_8h.html" target="_top" xlink:title=" ">
<polygon fill="none" stroke="black" points="1802,-140 1802,-159 1916,-159 1916,-140 1802,-140"/>
<text text-anchor="middle" x="1859" y="-147" font-family="Helvetica,sans-Serif" font-size="10.00">region_of_interest.h</text>
</a>
</g>
</g>
<!-- Node4&#45;&gt;Node27 -->
<g id="edge30" class="edge">
<title>Node4&#45;&gt;Node27</title>
<path fill="none" stroke="midnightblue" d="M1859,-201.48C1859,-193.08 1859,-179.98 1859,-169.16"/>
<polygon fill="midnightblue" stroke="midnightblue" points="1862.5,-169.01 1859,-159.01 1855.5,-169.01 1862.5,-169.01"/>
</g>
<!-- Node28 -->
<g id="node28" class="node">
<title>Node28</title>
<g id="a_node28"><a xlink:title=" ">
<polygon fill="none" stroke="#bfbfbf" points="1934.5,-134.5 1934.5,-164.5 2055.5,-164.5 2055.5,-134.5 1934.5,-134.5"/>
<text text-anchor="start" x="1942.5" y="-152.5" font-family="Helvetica,sans-Serif" font-size="10.00">seerep_msgs/camera</text>
<text text-anchor="middle" x="1995" y="-141.5" font-family="Helvetica,sans-Serif" font-size="10.00">_intrinsics.h</text>
</a>
</g>
</g>
<!-- Node4&#45;&gt;Node28 -->
<g id="edge31" class="edge">
<title>Node4&#45;&gt;Node28</title>
<path fill="none" stroke="midnightblue" d="M1878.49,-201.48C1898.02,-192.93 1928.71,-179.5 1953.69,-168.57"/>
<polygon fill="midnightblue" stroke="midnightblue" points="1955.19,-171.74 1962.95,-164.52 1952.38,-165.32 1955.19,-171.74"/>
</g>
<!-- Node6&#45;&gt;Node2 -->
<g id="edge8" class="edge">
<title>Node6&#45;&gt;Node2</title>
<path fill="none" stroke="midnightblue" d="M1236.24,-145.05C1425.53,-134.81 1970.24,-104.93 2008,-98 2018.48,-96.08 2029.64,-92.97 2039.66,-89.78"/>
<polygon fill="midnightblue" stroke="midnightblue" points="2040.85,-93.07 2049.23,-86.59 2038.64,-86.43 2040.85,-93.07"/>
</g>
<!-- Node7 -->
<g id="node7" class="node">
<title>Node7</title>
<g id="a_node7"><a xlink:title=" ">
<polygon fill="none" stroke="#bfbfbf" points="865.5,-67.5 865.5,-86.5 982.5,-86.5 982.5,-67.5 865.5,-67.5"/>
<text text-anchor="middle" x="924" y="-74.5" font-family="Helvetica,sans-Serif" font-size="10.00">seerep_msgs/aabb.h</text>
</a>
</g>
</g>
<!-- Node6&#45;&gt;Node7 -->
<g id="edge9" class="edge">
<title>Node6&#45;&gt;Node7</title>
<path fill="none" stroke="midnightblue" d="M1121.13,-134.41C1085.06,-124.38 1035.52,-110.5 992,-98 982.43,-95.25 972.12,-92.24 962.49,-89.41"/>
<polygon fill="midnightblue" stroke="midnightblue" points="963.34,-86.01 952.76,-86.55 961.37,-92.73 963.34,-86.01"/>
</g>
<!-- Node6&#45;&gt;Node8 -->
<g id="edge10" class="edge">
<title>Node6&#45;&gt;Node8</title>
<path fill="none" stroke="midnightblue" d="M1236.29,-144.59C1396.83,-134.73 1806.83,-108.84 1868,-98 1873.29,-97.06 1878.75,-95.89 1884.18,-94.57"/>
<polygon fill="midnightblue" stroke="midnightblue" points="1885.07,-97.96 1893.89,-92.09 1883.33,-91.18 1885.07,-97.96"/>
</g>
<!-- Node9 -->
<g id="node9" class="node">
<title>Node9</title>
<g id="a_node9"><a xlink:title=" ">
<polygon fill="none" stroke="#bfbfbf" points="1001,-62 1001,-92 1127,-92 1127,-62 1001,-62"/>
<text text-anchor="start" x="1009" y="-80" font-family="Helvetica,sans-Serif" font-size="10.00">seerep_msgs/geodetic</text>
<text text-anchor="middle" x="1064" y="-69" font-family="Helvetica,sans-Serif" font-size="10.00">_coordinates.h</text>
</a>
</g>
</g>
<!-- Node6&#45;&gt;Node9 -->
<g id="edge11" class="edge">
<title>Node6&#45;&gt;Node9</title>
<path fill="none" stroke="midnightblue" d="M1150.4,-134.4C1134.22,-123.84 1111.86,-109.24 1093.95,-97.55"/>
<polygon fill="midnightblue" stroke="midnightblue" points="1095.85,-94.61 1085.56,-92.07 1092.02,-100.47 1095.85,-94.61"/>
</g>
<!-- Node6&#45;&gt;Node10 -->
<g id="edge12" class="edge">
<title>Node6&#45;&gt;Node10</title>
<path fill="none" stroke="midnightblue" d="M1107.96,-142.23C1080.3,-139.58 1047.57,-136.53 1018,-134 814.26,-116.54 757.99,-135.32 553.15,-98.01"/>
<polygon fill="midnightblue" stroke="midnightblue" points="553.76,-94.57 543.29,-96.2 552.49,-101.45 553.76,-94.57"/>
</g>
<!-- Node6&#45;&gt;Node11 -->
<g id="edge13" class="edge">
<title>Node6&#45;&gt;Node11</title>
<path fill="none" stroke="midnightblue" d="M1107.59,-143.22C1070.33,-140.27 1022.54,-136.66 980,-134 657.57,-113.83 572.18,-153.94 254,-98 243.27,-96.11 231.84,-92.99 221.59,-89.77"/>
<polygon fill="midnightblue" stroke="midnightblue" points="222.41,-86.35 211.82,-86.55 220.23,-93 222.41,-86.35"/>
</g>
<!-- Node12 -->
<g id="node12" class="node">
<title>Node12</title>
<g id="a_node12"><a xlink:title=" ">
<polygon fill="none" stroke="#bfbfbf" points="1145,-67.5 1145,-86.5 1193,-86.5 1193,-67.5 1145,-67.5"/>
<text text-anchor="middle" x="1169" y="-74.5" font-family="Helvetica,sans-Serif" font-size="10.00">mutex</text>
</a>
</g>
</g>
<!-- Node6&#45;&gt;Node12 -->
<g id="edge14" class="edge">
<title>Node6&#45;&gt;Node12</title>
<path fill="none" stroke="midnightblue" d="M1171.39,-134.23C1170.94,-123.5 1170.31,-108.69 1169.81,-96.96"/>
<polygon fill="midnightblue" stroke="midnightblue" points="1173.3,-96.74 1169.38,-86.89 1166.31,-97.03 1173.3,-96.74"/>
</g>
<!-- Node6&#45;&gt;Node13 -->
<g id="edge15" class="edge">
<title>Node6&#45;&gt;Node13</title>
<path fill="none" stroke="midnightblue" d="M1236.18,-135.95C1240.85,-135.23 1245.49,-134.57 1250,-134 1490.42,-103.8 1561.18,-165.15 1794,-98 1799.22,-96.5 1804.52,-94.18 1809.43,-91.65"/>
<polygon fill="midnightblue" stroke="midnightblue" points="1811.25,-94.64 1818.24,-86.67 1807.81,-88.54 1811.25,-94.64"/>
</g>
<!-- Node14 -->
<g id="node14" class="node">
<title>Node14</title>
<g id="a_node14"><a xlink:title=" ">
<polygon fill="none" stroke="#bfbfbf" points="1211.5,-67.5 1211.5,-86.5 1280.5,-86.5 1280.5,-67.5 1211.5,-67.5"/>
<text text-anchor="middle" x="1246" y="-74.5" font-family="Helvetica,sans-Serif" font-size="10.00">type_traits</text>
</a>
</g>
</g>
<!-- Node6&#45;&gt;Node14 -->
<g id="edge16" class="edge">
<title>Node6&#45;&gt;Node14</title>
<path fill="none" stroke="midnightblue" d="M1186.98,-134.23C1199.17,-122.62 1216.38,-106.22 1229.08,-94.12"/>
<polygon fill="midnightblue" stroke="midnightblue" points="1231.84,-96.33 1236.67,-86.89 1227.01,-91.26 1231.84,-96.33"/>
</g>
<!-- Node15 -->
<g id="node15" class="node">
<title>Node15</title>
<g id="a_node15"><a xlink:title=" ">
<polygon fill="none" stroke="#bfbfbf" points="263.5,-62 263.5,-92 408.5,-92 408.5,-62 263.5,-62"/>
<text text-anchor="start" x="271.5" y="-80" font-family="Helvetica,sans-Serif" font-size="10.00">boost/log/sources/severity</text>
<text text-anchor="middle" x="336" y="-69" font-family="Helvetica,sans-Serif" font-size="10.00">_logger.hpp</text>
</a>
</g>
</g>
<!-- Node6&#45;&gt;Node15 -->
<g id="edge17" class="edge">
<title>Node6&#45;&gt;Node15</title>
<path fill="none" stroke="midnightblue" d="M1107.58,-143.45C1070.31,-140.58 1022.52,-136.97 980,-134 730.32,-116.58 665.42,-135.8 418,-98 411.38,-96.99 404.51,-95.7 397.7,-94.27"/>
<polygon fill="midnightblue" stroke="midnightblue" points="398.3,-90.82 387.78,-92.08 396.79,-97.65 398.3,-90.82"/>
</g>
<!-- Node16 -->
<g id="node16" class="node">
<title>Node16</title>
<g id="a_node16"><a xlink:title=" ">
<polygon fill="none" stroke="#bfbfbf" points="0,-67.5 0,-86.5 114,-86.5 114,-67.5 0,-67.5"/>
<text text-anchor="middle" x="57" y="-74.5" font-family="Helvetica,sans-Serif" font-size="10.00">boost/log/trivial.hpp</text>
</a>
</g>
</g>
<!-- Node6&#45;&gt;Node16 -->
<g id="edge18" class="edge">
<title>Node6&#45;&gt;Node16</title>
<path fill="none" stroke="midnightblue" d="M1107.88,-145.85C887.44,-136.68 171.59,-106.4 123,-98 112,-96.1 100.26,-92.93 89.78,-89.67"/>
<polygon fill="midnightblue" stroke="midnightblue" points="90.77,-86.31 80.18,-86.55 88.61,-92.97 90.77,-86.31"/>
</g>
<!-- Node6&#45;&gt;Node17 -->
<g id="edge19" class="edge">
<title>Node6&#45;&gt;Node17</title>
<path fill="none" stroke="midnightblue" d="M1107.91,-140.26C1091.03,-138.15 1072.84,-135.94 1056,-134 903.72,-116.49 863.95,-124.65 713,-98 699.76,-95.66 685.47,-92.35 672.68,-89.09"/>
<polygon fill="midnightblue" stroke="midnightblue" points="673.36,-85.65 662.8,-86.51 671.59,-92.42 673.36,-85.65"/>
</g>
<!-- Node6&#45;&gt;Node18 -->
<g id="edge20" class="edge">
<title>Node6&#45;&gt;Node18</title>
<path fill="none" stroke="midnightblue" d="M1107.76,-136.38C1103.1,-135.56 1098.48,-134.76 1094,-134 988.51,-116.22 960.58,-120.55 856,-98 844.88,-95.6 832.93,-92.46 822.07,-89.38"/>
<polygon fill="midnightblue" stroke="midnightblue" points="823.03,-86.02 812.45,-86.59 821.08,-92.74 823.03,-86.02"/>
</g>
<!-- Node6&#45;&gt;Node19 -->
<g id="edge21" class="edge">
<title>Node6&#45;&gt;Node19</title>
<path fill="none" stroke="midnightblue" d="M1236.18,-145.35C1448.18,-134.9 2113.8,-101.89 2136,-98 2146.99,-96.08 2158.73,-92.9 2169.21,-89.64"/>
<polygon fill="midnightblue" stroke="midnightblue" points="2170.38,-92.94 2178.81,-86.53 2168.22,-86.28 2170.38,-92.94"/>
</g>
<!-- Node6&#45;&gt;Node20 -->
<g id="edge22" class="edge">
<title>Node6&#45;&gt;Node20</title>
<path fill="none" stroke="midnightblue" d="M1236.26,-136.48C1240.91,-135.63 1245.53,-134.8 1250,-134 1343.22,-117.35 1367,-115.86 1460,-98 1474.91,-95.14 1491.1,-91.78 1505.77,-88.65"/>
<polygon fill="midnightblue" stroke="midnightblue" points="1506.61,-92.05 1515.65,-86.52 1505.14,-85.2 1506.61,-92.05"/>
</g>
<!-- Node6&#45;&gt;Node21 -->
<g id="edge23" class="edge">
<title>Node6&#45;&gt;Node21</title>
<path fill="none" stroke="midnightblue" d="M1236.2,-136.07C1240.86,-135.32 1245.5,-134.62 1250,-134 1425.95,-109.74 1473.22,-129.59 1648,-98 1660,-95.83 1672.9,-92.61 1684.46,-89.38"/>
<polygon fill="midnightblue" stroke="midnightblue" points="1685.58,-92.69 1694.22,-86.56 1683.64,-85.97 1685.58,-92.69"/>
</g>
<!-- Node22 -->
<g id="node22" class="node">
<title>Node22</title>
<g id="a_node22"><a xlink:title=" ">
<polygon fill="none" stroke="#bfbfbf" points="1299,-67.5 1299,-86.5 1451,-86.5 1451,-67.5 1299,-67.5"/>
<text text-anchor="middle" x="1375" y="-74.5" font-family="Helvetica,sans-Serif" font-size="10.00">impl/hdf5_core_general.hpp</text>
</a>
</g>
</g>
<!-- Node6&#45;&gt;Node22 -->
<g id="edge24" class="edge">
<title>Node6&#45;&gt;Node22</title>
<path fill="none" stroke="midnightblue" d="M1212.59,-134.4C1250.08,-121.38 1305.16,-102.25 1340.56,-89.96"/>
<polygon fill="midnightblue" stroke="midnightblue" points="1342.13,-93.12 1350.43,-86.53 1339.83,-86.51 1342.13,-93.12"/>
</g>
<!-- Node23&#45;&gt;Node19 -->
<g id="edge26" class="edge">
<title>Node23&#45;&gt;Node19</title>
<path fill="none" stroke="midnightblue" d="M2276.58,-139.86C2262.56,-128.23 2237.4,-107.36 2220.22,-93.11"/>
<polygon fill="midnightblue" stroke="midnightblue" points="2222.44,-90.41 2212.51,-86.72 2217.97,-95.79 2222.44,-90.41"/>
</g>
<!-- Node24 -->
<g id="node24" class="node">
<title>Node24</title>
<g id="a_node24"><a xlink:href="datatype_8h.html" target="_top" xlink:title=" ">
<polygon fill="none" stroke="black" points="2373.5,-67.5 2373.5,-86.5 2442.5,-86.5 2442.5,-67.5 2373.5,-67.5"/>
<text text-anchor="middle" x="2408" y="-74.5" font-family="Helvetica,sans-Serif" font-size="10.00">datatype.h</text>
</a>
</g>
</g>
<!-- Node23&#45;&gt;Node24 -->
<g id="edge27" class="edge">
<title>Node23&#45;&gt;Node24</title>
<path fill="none" stroke="midnightblue" d="M2301.84,-139.86C2322.43,-127.86 2359.9,-106.03 2384.36,-91.77"/>
<polygon fill="midnightblue" stroke="midnightblue" points="2386.16,-94.77 2393.04,-86.72 2382.64,-88.73 2386.16,-94.77"/>
</g>
<!-- Node25 -->
<g id="node25" class="node">
<title>Node25</title>
<g id="a_node25"><a xlink:href="timestamp_8h.html" target="_top" xlink:title=" ">
<polygon fill="none" stroke="black" points="2276.5,-67.5 2276.5,-86.5 2355.5,-86.5 2355.5,-67.5 2276.5,-67.5"/>
<text text-anchor="middle" x="2316" y="-74.5" font-family="Helvetica,sans-Serif" font-size="10.00">timestamp.h</text>
</a>
</g>
</g>
<!-- Node23&#45;&gt;Node25 -->
<g id="edge28" class="edge">
<title>Node23&#45;&gt;Node25</title>
<path fill="none" stroke="midnightblue" d="M2290.56,-139.86C2294.99,-129.07 2302.69,-110.35 2308.46,-96.32"/>
<polygon fill="midnightblue" stroke="midnightblue" points="2311.85,-97.3 2312.41,-86.72 2305.37,-94.63 2311.85,-97.3"/>
</g>
<!-- Node26 -->
<g id="node26" class="node">
<title>Node26</title>
<g id="a_node26"><a xlink:title=" ">
<polygon fill="none" stroke="#bfbfbf" points="2283.5,-0.5 2283.5,-19.5 2348.5,-19.5 2348.5,-0.5 2283.5,-0.5"/>
<text text-anchor="middle" x="2316" y="-7.5" font-family="Helvetica,sans-Serif" font-size="10.00">functional</text>
</a>
</g>
</g>
<!-- Node25&#45;&gt;Node26 -->
<g id="edge29" class="edge">
<title>Node25&#45;&gt;Node26</title>
<path fill="none" stroke="midnightblue" d="M2316,-67.23C2316,-57.68 2316,-42.12 2316,-29.78"/>
<polygon fill="midnightblue" stroke="midnightblue" points="2319.5,-29.63 2316,-19.63 2312.5,-29.63 2319.5,-29.63"/>
</g>
<!-- Node29&#45;&gt;Node8 -->
<g id="edge33" class="edge">
<title>Node29&#45;&gt;Node8</title>
<path fill="none" stroke="midnightblue" d="M1595.52,-136.62C1600.41,-135.7 1605.29,-134.81 1610,-134 1724.11,-114.41 1754.73,-121.96 1868,-98 1872.7,-97.01 1877.55,-95.87 1882.39,-94.65"/>
<polygon fill="midnightblue" stroke="midnightblue" points="1883.51,-97.97 1892.29,-92.05 1881.73,-91.2 1883.51,-97.97"/>
</g>
<!-- Node29&#45;&gt;Node13 -->
<g id="edge35" class="edge">
<title>Node29&#45;&gt;Node13</title>
<path fill="none" stroke="midnightblue" d="M1595.57,-136.9C1600.45,-135.92 1605.31,-134.94 1610,-134 1691.71,-117.66 1715.56,-126.13 1794,-98 1798.82,-96.27 1803.77,-93.99 1808.42,-91.59"/>
<polygon fill="midnightblue" stroke="midnightblue" points="1810.34,-94.53 1817.41,-86.63 1806.96,-88.4 1810.34,-94.53"/>
</g>
<!-- Node29&#45;&gt;Node19 -->
<g id="edge34" class="edge">
<title>Node29&#45;&gt;Node19</title>
<path fill="none" stroke="midnightblue" d="M1595.59,-139.92C1610.95,-137.78 1627.59,-135.64 1643,-134 1861.47,-110.82 1920,-138.1 2136,-98 2146.88,-95.98 2158.51,-92.81 2168.93,-89.58"/>
<polygon fill="midnightblue" stroke="midnightblue" points="2170.04,-92.91 2178.49,-86.51 2167.89,-86.24 2170.04,-92.91"/>
</g>
<!-- Node30&#45;&gt;Node2 -->
<g id="edge47" class="edge">
<title>Node30&#45;&gt;Node2</title>
<path fill="none" stroke="midnightblue" d="M899.65,-206.66C987.45,-200.79 1167.12,-187.13 1318,-165 1387.94,-154.74 1403.92,-143.29 1474,-134 1709.81,-102.75 1774.19,-141.78 2008,-98 2018.47,-96.04 2029.63,-92.93 2039.65,-89.73"/>
<polygon fill="midnightblue" stroke="midnightblue" points="2040.84,-93.03 2049.23,-86.55 2038.63,-86.38 2040.84,-93.03"/>
</g>
<!-- Node30&#45;&gt;Node6 -->
<g id="edge48" class="edge">
<title>Node30&#45;&gt;Node6</title>
<path fill="none" stroke="midnightblue" d="M892.71,-201.48C946.35,-191.68 1035.06,-175.49 1098.1,-163.99"/>
<polygon fill="midnightblue" stroke="midnightblue" points="1098.78,-167.42 1107.99,-162.18 1097.53,-160.54 1098.78,-167.42"/>
</g>
<!-- Node30&#45;&gt;Node11 -->
<g id="edge49" class="edge">
<title>Node30&#45;&gt;Node11</title>
<path fill="none" stroke="midnightblue" d="M844.37,-201.05C840.84,-184.56 830.8,-149.62 807,-134 704.05,-66.42 375.12,-120.26 254,-98 243.37,-96.05 232.04,-92.94 221.86,-89.74"/>
<polygon fill="midnightblue" stroke="midnightblue" points="222.73,-86.34 212.14,-86.56 220.56,-93 222.73,-86.34"/>
</g>
<!-- Node30&#45;&gt;Node13 -->
<g id="edge51" class="edge">
<title>Node30&#45;&gt;Node13</title>
<path fill="none" stroke="midnightblue" d="M899.6,-206.39C976.53,-200.67 1122.49,-187.75 1245,-165 1298.74,-155.02 1310.13,-143.2 1364,-134 1553.04,-101.71 1610.2,-152.76 1794,-98 1799.2,-96.45 1804.5,-94.11 1809.41,-91.58"/>
<polygon fill="midnightblue" stroke="midnightblue" points="1811.23,-94.57 1818.22,-86.61 1807.79,-88.47 1811.23,-94.57"/>
</g>
<!-- Node30&#45;&gt;Node15 -->
<g id="edge52" class="edge">
<title>Node30&#45;&gt;Node15</title>
<path fill="none" stroke="midnightblue" d="M848.62,-201.28C852.76,-185.46 858.69,-152.03 841,-134 807.97,-100.33 464.55,-105.61 418,-98 411.49,-96.94 404.73,-95.63 398.02,-94.19"/>
<polygon fill="midnightblue" stroke="midnightblue" points="398.77,-90.77 388.25,-92.02 397.25,-97.61 398.77,-90.77"/>
</g>
<!-- Node30&#45;&gt;Node16 -->
<g id="edge53" class="edge">
<title>Node30&#45;&gt;Node16</title>
<path fill="none" stroke="midnightblue" d="M792.45,-204.32C671.89,-190.95 370.38,-154.35 123,-98 112.76,-95.67 101.78,-92.58 91.78,-89.54"/>
<polygon fill="midnightblue" stroke="midnightblue" points="92.75,-86.18 82.16,-86.53 90.66,-92.86 92.75,-86.18"/>
</g>
<!-- Node31 -->
<g id="node31" class="node">
<title>Node31</title>
<g id="a_node31"><a xlink:title=" ">
<polygon fill="none" stroke="#bfbfbf" points="569,-140 569,-159 637,-159 637,-140 569,-140"/>
<text text-anchor="middle" x="603" y="-147" font-family="Helvetica,sans-Serif" font-size="10.00">filesystem</text>
</a>
</g>
</g>
<!-- Node30&#45;&gt;Node31 -->
<g id="edge50" class="edge">
<title>Node30&#45;&gt;Node31</title>
<path fill="none" stroke="midnightblue" d="M801.98,-201.47C761.23,-193.24 699.12,-179.89 646,-165 642.99,-164.16 639.87,-163.22 636.76,-162.25"/>
<polygon fill="midnightblue" stroke="midnightblue" points="637.56,-158.83 626.97,-159.07 635.4,-165.49 637.56,-158.83"/>
</g>
<!-- Node32 -->
<g id="node32" class="node">
<title>Node32</title>
<g id="a_node32"><a xlink:title=" ">
<polygon fill="none" stroke="#bfbfbf" points="655.5,-140 655.5,-159 798.5,-159 798.5,-140 655.5,-140"/>
<text text-anchor="middle" x="727" y="-147" font-family="Helvetica,sans-Serif" font-size="10.00">impl/hdf5_py_general.hpp</text>
</a>
</g>
</g>
<!-- Node30&#45;&gt;Node32 -->
<g id="edge54" class="edge">
<title>Node30&#45;&gt;Node32</title>
<path fill="none" stroke="midnightblue" d="M828.95,-201.48C809.16,-191.58 776.28,-175.14 753.23,-163.62"/>
<polygon fill="midnightblue" stroke="midnightblue" points="754.53,-160.35 744.02,-159.01 751.4,-166.61 754.53,-160.35"/>
</g>
</g>
</svg>
