<?xml version="1.0" encoding="UTF-8" standalone="no"?>
<!DOCTYPE svg PUBLIC "-//W3C//DTD SVG 1.1//EN"
 "http://www.w3.org/Graphics/SVG/1.1/DTD/svg11.dtd">
<!-- Generated by graphviz version 2.43.0 (0)
 -->
<!-- Title: seerep&#45;hdf5/seerep&#45;hdf5&#45;pb/include/seerep&#45;hdf5&#45;pb/hdf5&#45;pb&#45;general.h Pages: 1 -->
<svg width="1638pt" height="184pt"
 viewBox="0.00 0.00 1638.00 184.00" xmlns="http://www.w3.org/2000/svg" xmlns:xlink="http://www.w3.org/1999/xlink">
<g id="graph0" class="graph" transform="scale(1 1) rotate(0) translate(4 180)">
<title>seerep&#45;hdf5/seerep&#45;hdf5&#45;pb/include/seerep&#45;hdf5&#45;pb/hdf5&#45;pb&#45;general.h</title>
<!-- Node1 -->
<g id="node1" class="node">
<title>Node1</title>
<g id="a_node1"><a xlink:title=" ">
<polygon fill="#bfbfbf" stroke="black" points="804,-134.5 804,-175.5 952,-175.5 952,-134.5 804,-134.5"/>
<text text-anchor="start" x="812" y="-163.5" font-family="Helvetica,sans-Serif" font-size="10.00">seerep&#45;hdf5/seerep</text>
<text text-anchor="start" x="812" y="-152.5" font-family="Helvetica,sans-Serif" font-size="10.00">&#45;hdf5&#45;pb/include/seerep</text>
<text text-anchor="middle" x="878" y="-141.5" font-family="Helvetica,sans-Serif" font-size="10.00">&#45;hdf5&#45;pb/hdf5&#45;pb&#45;general.h</text>
</a>
</g>
</g>
<!-- Node2 -->
<g id="node2" class="node">
<title>Node2</title>
<g id="a_node2"><a xlink:title=" ">
<polygon fill="none" stroke="#bfbfbf" points="0,-6 0,-25 110,-25 110,-6 0,-6"/>
<text text-anchor="middle" x="55" y="-13" font-family="Helvetica,sans-Serif" font-size="10.00">highfive/H5File.hpp</text>
</a>
</g>
</g>
<!-- Node1&#45;&gt;Node2 -->
<g id="edge1" class="edge">
<title>Node1&#45;&gt;Node2</title>
<path fill="none" stroke="midnightblue" d="M803.96,-147.48C711.92,-138.83 550.2,-121.81 413,-98 297.71,-77.99 163.67,-44.77 97.06,-27.57"/>
<polygon fill="midnightblue" stroke="midnightblue" points="97.91,-24.18 87.35,-25.06 96.15,-30.95 97.91,-24.18"/>
</g>
<!-- Node3 -->
<g id="node3" class="node">
<title>Node3</title>
<g id="a_node3"><a xlink:href="hdf5-core-general_8h.html" target="_top" xlink:title=" ">
<polygon fill="none" stroke="black" points="570.5,-67.5 570.5,-97.5 695.5,-97.5 695.5,-67.5 570.5,-67.5"/>
<text text-anchor="start" x="578.5" y="-85.5" font-family="Helvetica,sans-Serif" font-size="10.00">seerep&#45;hdf5&#45;core/hdf5</text>
<text text-anchor="middle" x="633" y="-74.5" font-family="Helvetica,sans-Serif" font-size="10.00">&#45;core&#45;general.h</text>
</a>
</g>
</g>
<!-- Node1&#45;&gt;Node3 -->
<g id="edge2" class="edge">
<title>Node1&#45;&gt;Node3</title>
<path fill="none" stroke="midnightblue" d="M810.08,-134.46C772.93,-123.77 727.36,-110.65 691.75,-100.41"/>
<polygon fill="midnightblue" stroke="midnightblue" points="692.57,-97 681.99,-97.6 690.63,-103.73 692.57,-97"/>
</g>
<!-- Node6 -->
<g id="node6" class="node">
<title>Node6</title>
<g id="a_node6"><a xlink:title=" ">
<polygon fill="none" stroke="#bfbfbf" points="128.5,-6 128.5,-25 241.5,-25 241.5,-6 128.5,-6"/>
<text text-anchor="middle" x="185" y="-13" font-family="Helvetica,sans-Serif" font-size="10.00">boost/geometry.hpp</text>
</a>
</g>
</g>
<!-- Node1&#45;&gt;Node6 -->
<g id="edge16" class="edge">
<title>Node1&#45;&gt;Node6</title>
<path fill="none" stroke="midnightblue" d="M803.87,-141.72C739.53,-130.87 643.95,-114.28 561,-98 422.68,-70.85 388.73,-61.01 251,-31 245.35,-29.77 239.42,-28.47 233.54,-27.18"/>
<polygon fill="midnightblue" stroke="midnightblue" points="234.25,-23.76 223.73,-25.03 232.75,-30.59 234.25,-23.76"/>
</g>
<!-- Node8 -->
<g id="node8" class="node">
<title>Node8</title>
<g id="a_node8"><a xlink:title=" ">
<polygon fill="none" stroke="#bfbfbf" points="852,-6 852,-25 908,-25 908,-6 852,-6"/>
<text text-anchor="middle" x="880" y="-13" font-family="Helvetica,sans-Serif" font-size="10.00">optional</text>
</a>
</g>
</g>
<!-- Node1&#45;&gt;Node8 -->
<g id="edge18" class="edge">
<title>Node1&#45;&gt;Node8</title>
<path fill="none" stroke="midnightblue" d="M852.85,-134.42C842.44,-124.72 831.53,-112.08 826,-98 820.96,-85.18 820.52,-79.64 826,-67 832.46,-52.12 845.69,-39.63 857.44,-30.79"/>
<polygon fill="midnightblue" stroke="midnightblue" points="859.47,-33.65 865.62,-25.02 855.43,-27.93 859.47,-33.65"/>
</g>
<!-- Node10 -->
<g id="node10" class="node">
<title>Node10</title>
<g id="a_node10"><a xlink:title=" ">
<polygon fill="none" stroke="#bfbfbf" points="926.5,-0.5 926.5,-30.5 1071.5,-30.5 1071.5,-0.5 926.5,-0.5"/>
<text text-anchor="start" x="934.5" y="-18.5" font-family="Helvetica,sans-Serif" font-size="10.00">boost/log/sources/severity</text>
<text text-anchor="middle" x="999" y="-7.5" font-family="Helvetica,sans-Serif" font-size="10.00">_logger.hpp</text>
</a>
</g>
</g>
<!-- Node1&#45;&gt;Node10 -->
<g id="edge19" class="edge">
<title>Node1&#45;&gt;Node10</title>
<path fill="none" stroke="midnightblue" d="M867.36,-134.24C858.79,-115.35 850.22,-86.86 864,-67 872.62,-54.57 903.22,-42.61 933.1,-33.46"/>
<polygon fill="midnightblue" stroke="midnightblue" points="934.17,-36.8 942.75,-30.59 932.17,-30.09 934.17,-36.8"/>
</g>
<!-- Node11 -->
<g id="node11" class="node">
<title>Node11</title>
<g id="a_node11"><a xlink:title=" ">
<polygon fill="none" stroke="#bfbfbf" points="1090,-6 1090,-25 1204,-25 1204,-6 1090,-6"/>
<text text-anchor="middle" x="1147" y="-13" font-family="Helvetica,sans-Serif" font-size="10.00">boost/log/trivial.hpp</text>
</a>
</g>
</g>
<!-- Node1&#45;&gt;Node11 -->
<g id="edge20" class="edge">
<title>Node1&#45;&gt;Node11</title>
<path fill="none" stroke="midnightblue" d="M876.56,-134.14C876.28,-114.33 879.21,-84.41 897,-67 956.56,-8.72 999.41,-47.94 1081,-31 1086.81,-29.79 1092.91,-28.5 1098.94,-27.19"/>
<polygon fill="midnightblue" stroke="midnightblue" points="1099.96,-30.55 1108.99,-25.01 1098.47,-23.71 1099.96,-30.55"/>
</g>
<!-- Node13 -->
<g id="node13" class="node">
<title>Node13</title>
<g id="a_node13"><a xlink:title=" ">
<polygon fill="none" stroke="#bfbfbf" points="906,-67.5 906,-97.5 1064,-97.5 1064,-67.5 906,-67.5"/>
<text text-anchor="start" x="914" y="-85.5" font-family="Helvetica,sans-Serif" font-size="10.00">seerep&#45;msgs/boundingbox2d</text>
<text text-anchor="middle" x="985" y="-74.5" font-family="Helvetica,sans-Serif" font-size="10.00">_labeled.pb.h</text>
</a>
</g>
</g>
<!-- Node1&#45;&gt;Node13 -->
<g id="edge13" class="edge">
<title>Node1&#45;&gt;Node13</title>
<path fill="none" stroke="midnightblue" d="M907.81,-134.36C922.45,-124.71 940.07,-113.11 954.77,-103.42"/>
<polygon fill="midnightblue" stroke="midnightblue" points="957.07,-106.09 963.49,-97.67 953.22,-100.25 957.07,-106.09"/>
</g>
<!-- Node14 -->
<g id="node14" class="node">
<title>Node14</title>
<g id="a_node14"><a xlink:title=" ">
<polygon fill="none" stroke="#bfbfbf" points="1082,-67.5 1082,-97.5 1228,-97.5 1228,-67.5 1082,-67.5"/>
<text text-anchor="start" x="1090" y="-85.5" font-family="Helvetica,sans-Serif" font-size="10.00">seerep&#45;msgs/boundingbox</text>
<text text-anchor="middle" x="1155" y="-74.5" font-family="Helvetica,sans-Serif" font-size="10.00">_labeled.pb.h</text>
</a>
</g>
</g>
<!-- Node1&#45;&gt;Node14 -->
<g id="edge14" class="edge">
<title>Node1&#45;&gt;Node14</title>
<path fill="none" stroke="midnightblue" d="M952.23,-135.11C995.16,-124.18 1048.69,-110.56 1089.96,-100.05"/>
<polygon fill="midnightblue" stroke="midnightblue" points="1091.08,-103.38 1099.91,-97.52 1089.35,-96.6 1091.08,-103.38"/>
</g>
<!-- Node15 -->
<g id="node15" class="node">
<title>Node15</title>
<g id="a_node15"><a xlink:title=" ">
<polygon fill="none" stroke="#bfbfbf" points="1246,-73 1246,-92 1386,-92 1386,-73 1246,-73"/>
<text text-anchor="middle" x="1316" y="-80" font-family="Helvetica,sans-Serif" font-size="10.00">seerep&#45;msgs/header.pb.h</text>
</a>
</g>
</g>
<!-- Node1&#45;&gt;Node15 -->
<g id="edge15" class="edge">
<title>Node1&#45;&gt;Node15</title>
<path fill="none" stroke="midnightblue" d="M952.01,-143.05C1024.66,-132.16 1138.58,-114.7 1237,-98 1244.64,-96.7 1252.68,-95.29 1260.59,-93.86"/>
<polygon fill="midnightblue" stroke="midnightblue" points="1261.29,-97.29 1270.5,-92.07 1260.04,-90.41 1261.29,-97.29"/>
</g>
<!-- Node16 -->
<g id="node16" class="node">
<title>Node16</title>
<g id="a_node16"><a xlink:title=" ">
<polygon fill="none" stroke="#bfbfbf" points="1404,-73 1404,-92 1472,-92 1472,-73 1404,-73"/>
<text text-anchor="middle" x="1438" y="-80" font-family="Helvetica,sans-Serif" font-size="10.00">filesystem</text>
</a>
</g>
</g>
<!-- Node1&#45;&gt;Node16 -->
<g id="edge17" class="edge">
<title>Node1&#45;&gt;Node16</title>
<path fill="none" stroke="midnightblue" d="M952.01,-151.04C1053.12,-145.85 1239.59,-132.19 1395,-98 1398.49,-97.23 1402.1,-96.28 1405.66,-95.23"/>
<polygon fill="midnightblue" stroke="midnightblue" points="1407.03,-98.47 1415.5,-92.11 1404.91,-91.8 1407.03,-98.47"/>
</g>
<!-- Node17 -->
<g id="node17" class="node">
<title>Node17</title>
<g id="a_node17"><a xlink:title=" ">
<polygon fill="none" stroke="#bfbfbf" points="1490,-73 1490,-92 1630,-92 1630,-73 1490,-73"/>
<text text-anchor="middle" x="1560" y="-80" font-family="Helvetica,sans-Serif" font-size="10.00">impl/hdf5&#45;pb&#45;general.hpp</text>
</a>
</g>
</g>
<!-- Node1&#45;&gt;Node17 -->
<g id="edge21" class="edge">
<title>Node1&#45;&gt;Node17</title>
<path fill="none" stroke="midnightblue" d="M952.04,-149.25C1066.02,-141.47 1291.18,-124.18 1481,-98 1489.63,-96.81 1498.76,-95.34 1507.62,-93.79"/>
<polygon fill="midnightblue" stroke="midnightblue" points="1508.25,-97.23 1517.47,-92.02 1507.01,-90.34 1508.25,-97.23"/>
</g>
<!-- Node3&#45;&gt;Node2 -->
<g id="edge3" class="edge">
<title>Node3&#45;&gt;Node2</title>
<path fill="none" stroke="midnightblue" d="M570.17,-77.86C472.98,-71.67 280.54,-57.13 119,-31 112.58,-29.96 105.84,-28.66 99.24,-27.28"/>
<polygon fill="midnightblue" stroke="midnightblue" points="99.57,-23.77 89.06,-25.05 98.08,-30.6 99.57,-23.77"/>
</g>
<!-- Node4 -->
<g id="node4" class="node">
<title>Node4</title>
<g id="a_node4"><a xlink:title=" ">
<polygon fill="none" stroke="#bfbfbf" points="260,-6 260,-25 376,-25 376,-6 260,-6"/>
<text text-anchor="middle" x="318" y="-13" font-family="Helvetica,sans-Serif" font-size="10.00">seerep&#45;msgs/aabb.h</text>
</a>
</g>
</g>
<!-- Node3&#45;&gt;Node4 -->
<g id="edge4" class="edge">
<title>Node3&#45;&gt;Node4</title>
<path fill="none" stroke="midnightblue" d="M570.27,-68.95C520.11,-58.86 448,-44.23 385,-31 379.18,-29.78 373.08,-28.48 367.03,-27.18"/>
<polygon fill="midnightblue" stroke="midnightblue" points="367.47,-23.7 356.95,-25.01 365.99,-30.54 367.47,-23.7"/>
</g>
<!-- Node5 -->
<g id="node5" class="node">
<title>Node5</title>
<g id="a_node5"><a xlink:title=" ">
<polygon fill="none" stroke="#bfbfbf" points="394.5,-0.5 394.5,-30.5 513.5,-30.5 513.5,-0.5 394.5,-0.5"/>
<text text-anchor="start" x="402.5" y="-18.5" font-family="Helvetica,sans-Serif" font-size="10.00">seerep&#45;msgs/dataset</text>
<text text-anchor="middle" x="454" y="-7.5" font-family="Helvetica,sans-Serif" font-size="10.00">&#45;indexable.h</text>
</a>
</g>
</g>
<!-- Node3&#45;&gt;Node5 -->
<g id="edge5" class="edge">
<title>Node3&#45;&gt;Node5</title>
<path fill="none" stroke="midnightblue" d="M594.16,-67.4C567.18,-57.6 531.06,-44.48 502.23,-34.02"/>
<polygon fill="midnightblue" stroke="midnightblue" points="503.36,-30.7 492.76,-30.58 500.97,-37.28 503.36,-30.7"/>
</g>
<!-- Node3&#45;&gt;Node6 -->
<g id="edge6" class="edge">
<title>Node3&#45;&gt;Node6</title>
<path fill="none" stroke="midnightblue" d="M570.22,-74.85C494.32,-66.44 362.85,-50.64 251,-31 244.63,-29.88 237.94,-28.57 231.37,-27.21"/>
<polygon fill="midnightblue" stroke="midnightblue" points="231.71,-23.7 221.2,-25.03 230.25,-30.55 231.71,-23.7"/>
</g>
<!-- Node7 -->
<g id="node7" class="node">
<title>Node7</title>
<g id="a_node7"><a xlink:title=" ">
<polygon fill="none" stroke="#bfbfbf" points="532,-6 532,-25 580,-25 580,-6 532,-6"/>
<text text-anchor="middle" x="556" y="-13" font-family="Helvetica,sans-Serif" font-size="10.00">mutex</text>
</a>
</g>
</g>
<!-- Node3&#45;&gt;Node7 -->
<g id="edge7" class="edge">
<title>Node3&#45;&gt;Node7</title>
<path fill="none" stroke="midnightblue" d="M616.29,-67.4C603.81,-56.86 586.77,-42.48 573.99,-31.69"/>
<polygon fill="midnightblue" stroke="midnightblue" points="576.2,-28.97 566.3,-25.19 571.68,-34.32 576.2,-28.97"/>
</g>
<!-- Node3&#45;&gt;Node8 -->
<g id="edge8" class="edge">
<title>Node3&#45;&gt;Node8</title>
<path fill="none" stroke="midnightblue" d="M695.64,-68.8C737.71,-59.7 794.17,-46.36 843,-31 845.28,-30.28 847.61,-29.5 849.95,-28.67"/>
<polygon fill="midnightblue" stroke="midnightblue" points="851.29,-31.91 859.44,-25.14 848.84,-25.35 851.29,-31.91"/>
</g>
<!-- Node9 -->
<g id="node9" class="node">
<title>Node9</title>
<g id="a_node9"><a xlink:title=" ">
<polygon fill="none" stroke="#bfbfbf" points="598.5,-6 598.5,-25 667.5,-25 667.5,-6 598.5,-6"/>
<text text-anchor="middle" x="633" y="-13" font-family="Helvetica,sans-Serif" font-size="10.00">type_traits</text>
</a>
</g>
</g>
<!-- Node3&#45;&gt;Node9 -->
<g id="edge9" class="edge">
<title>Node3&#45;&gt;Node9</title>
<path fill="none" stroke="midnightblue" d="M633,-67.4C633,-58.06 633,-45.71 633,-35.52"/>
<polygon fill="midnightblue" stroke="midnightblue" points="636.5,-35.19 633,-25.19 629.5,-35.19 636.5,-35.19"/>
</g>
<!-- Node3&#45;&gt;Node10 -->
<g id="edge10" class="edge">
<title>Node3&#45;&gt;Node10</title>
<path fill="none" stroke="midnightblue" d="M695.5,-70.4C756.38,-59.59 849.29,-43.09 916.28,-31.19"/>
<polygon fill="midnightblue" stroke="midnightblue" points="917.15,-34.59 926.38,-29.4 915.92,-27.7 917.15,-34.59"/>
</g>
<!-- Node3&#45;&gt;Node11 -->
<g id="edge11" class="edge">
<title>Node3&#45;&gt;Node11</title>
<path fill="none" stroke="midnightblue" d="M695.61,-76.51C782.48,-69.12 944.33,-53.65 1081,-31 1087.69,-29.89 1094.72,-28.54 1101.6,-27.12"/>
<polygon fill="midnightblue" stroke="midnightblue" points="1102.46,-30.52 1111.51,-25.01 1101,-23.67 1102.46,-30.52"/>
</g>
<!-- Node12 -->
<g id="node12" class="node">
<title>Node12</title>
<g id="a_node12"><a xlink:title=" ">
<polygon fill="none" stroke="#bfbfbf" points="685.5,-6 685.5,-25 834.5,-25 834.5,-6 685.5,-6"/>
<text text-anchor="middle" x="760" y="-13" font-family="Helvetica,sans-Serif" font-size="10.00">impl/hdf5&#45;core&#45;general.hpp</text>
</a>
</g>
</g>
<!-- Node3&#45;&gt;Node12 -->
<g id="edge12" class="edge">
<title>Node3&#45;&gt;Node12</title>
<path fill="none" stroke="midnightblue" d="M660.56,-67.4C682.45,-56.19 712.83,-40.64 734.24,-29.69"/>
<polygon fill="midnightblue" stroke="midnightblue" points="736.07,-32.68 743.38,-25.01 732.88,-26.45 736.07,-32.68"/>
</g>
</g>
</svg>
