<?xml version="1.0" encoding="UTF-8" standalone="no"?>
<!DOCTYPE svg PUBLIC "-//W3C//DTD SVG 1.1//EN"
 "http://www.w3.org/Graphics/SVG/1.1/DTD/svg11.dtd">
<!-- Generated by graphviz version 2.43.0 (0)
 -->
<!-- Title: seerep_hdf5/seerep_hdf5_fb/include/seerep_hdf5_fb/hdf5_fb_image.h Pages: 1 -->
<svg width="1021pt" height="351pt"
 viewBox="0.00 0.00 1020.50 351.00" xmlns="http://www.w3.org/2000/svg" xmlns:xlink="http://www.w3.org/1999/xlink">
<g id="graph0" class="graph" transform="scale(1 1) rotate(0) translate(4 347)">
<title>seerep_hdf5/seerep_hdf5_fb/include/seerep_hdf5_fb/hdf5_fb_image.h</title>
<!-- Node1 -->
<g id="node1" class="node">
<title>Node1</title>
<g id="a_node1"><a xlink:title=" ">
<polygon fill="#bfbfbf" stroke="black" points="280.5,-301.5 280.5,-342.5 423.5,-342.5 423.5,-301.5 280.5,-301.5"/>
<text text-anchor="start" x="288.5" y="-330.5" font-family="Helvetica,sans-Serif" font-size="10.00">seerep_hdf5/seerep</text>
<text text-anchor="start" x="288.5" y="-319.5" font-family="Helvetica,sans-Serif" font-size="10.00">_hdf5_fb/include/seerep</text>
<text text-anchor="middle" x="352" y="-308.5" font-family="Helvetica,sans-Serif" font-size="10.00">_hdf5_fb/hdf5_fb_image.h</text>
</a>
</g>
</g>
<!-- Node2 -->
<g id="node2" class="node">
<title>Node2</title>
<g id="a_node2"><a xlink:href="hdf5__fb__image_8cpp.html" target="_top" xlink:title=" ">
<polygon fill="none" stroke="black" points="0,-223.5 0,-264.5 116,-264.5 116,-223.5 0,-223.5"/>
<text text-anchor="start" x="8" y="-252.5" font-family="Helvetica,sans-Serif" font-size="10.00">seerep_hdf5/seerep</text>
<text text-anchor="start" x="8" y="-241.5" font-family="Helvetica,sans-Serif" font-size="10.00">_hdf5_fb/src/hdf5_fb</text>
<text text-anchor="middle" x="58" y="-230.5" font-family="Helvetica,sans-Serif" font-size="10.00">_image.cpp</text>
</a>
</g>
</g>
<!-- Node1&#45;&gt;Node2 -->
<g id="edge1" class="edge">
<title>Node1&#45;&gt;Node2</title>
<path fill="none" stroke="midnightblue" d="M270.53,-301.91C227.19,-291.5 173.05,-278.09 125,-265 122.07,-264.2 119.08,-263.37 116.06,-262.52"/>
<polygon fill="midnightblue" stroke="midnightblue" points="269.92,-305.36 280.46,-304.29 271.55,-298.55 269.92,-305.36"/>
</g>
<!-- Node3 -->
<g id="node3" class="node">
<title>Node3</title>
<g id="a_node3"><a xlink:href="fb__write__load__test_8cpp.html" target="_top" xlink:title=" ">
<polygon fill="none" stroke="black" points="134.5,-223.5 134.5,-264.5 257.5,-264.5 257.5,-223.5 134.5,-223.5"/>
<text text-anchor="start" x="142.5" y="-252.5" font-family="Helvetica,sans-Serif" font-size="10.00">seerep_hdf5/seerep</text>
<text text-anchor="start" x="142.5" y="-241.5" font-family="Helvetica,sans-Serif" font-size="10.00">_hdf5_fb/test/fb_write</text>
<text text-anchor="middle" x="196" y="-230.5" font-family="Helvetica,sans-Serif" font-size="10.00">_load_test.cpp</text>
</a>
</g>
</g>
<!-- Node1&#45;&gt;Node3 -->
<g id="edge2" class="edge">
<title>Node1&#45;&gt;Node3</title>
<path fill="none" stroke="midnightblue" d="M302.55,-296.91C281.1,-286.46 256.31,-274.38 236.04,-264.51"/>
<polygon fill="midnightblue" stroke="midnightblue" points="301.3,-300.19 311.83,-301.43 304.37,-293.9 301.3,-300.19"/>
</g>
<!-- Node4 -->
<g id="node4" class="node">
<title>Node4</title>
<g id="a_node4"><a xlink:href="point__dumper_8h.html" target="_top" xlink:title=" ">
<polygon fill="none" stroke="black" points="276,-223.5 276,-264.5 428,-264.5 428,-223.5 276,-223.5"/>
<text text-anchor="start" x="284" y="-252.5" font-family="Helvetica,sans-Serif" font-size="10.00">seerep_ros/seerep_ros</text>
<text text-anchor="start" x="284" y="-241.5" font-family="Helvetica,sans-Serif" font-size="10.00">_comm/include/seerep</text>
<text text-anchor="middle" x="352" y="-230.5" font-family="Helvetica,sans-Serif" font-size="10.00">_ros_comm/point_dumper.h</text>
</a>
</g>
</g>
<!-- Node1&#45;&gt;Node4 -->
<g id="edge3" class="edge">
<title>Node1&#45;&gt;Node4</title>
<path fill="none" stroke="midnightblue" d="M352,-291.3C352,-282.3 352,-272.65 352,-264.51"/>
<polygon fill="midnightblue" stroke="midnightblue" points="348.5,-291.43 352,-301.43 355.5,-291.43 348.5,-291.43"/>
</g>
<!-- Node6 -->
<g id="node6" class="node">
<title>Node6</title>
<g id="a_node6"><a xlink:href="rosbag__dumper_8h.html" target="_top" xlink:title=" ">
<polygon fill="none" stroke="black" points="446,-223.5 446,-264.5 606,-264.5 606,-223.5 446,-223.5"/>
<text text-anchor="start" x="454" y="-252.5" font-family="Helvetica,sans-Serif" font-size="10.00">seerep_ros/seerep_ros</text>
<text text-anchor="start" x="454" y="-241.5" font-family="Helvetica,sans-Serif" font-size="10.00">_comm/include/seerep</text>
<text text-anchor="middle" x="526" y="-230.5" font-family="Helvetica,sans-Serif" font-size="10.00">_ros_comm/rosbag_dumper.h</text>
</a>
</g>
</g>
<!-- Node1&#45;&gt;Node6 -->
<g id="edge5" class="edge">
<title>Node1&#45;&gt;Node6</title>
<path fill="none" stroke="midnightblue" d="M406.19,-297.33C430.34,-286.78 458.43,-274.51 481.34,-264.51"/>
<polygon fill="midnightblue" stroke="midnightblue" points="404.57,-294.22 396.81,-301.43 407.37,-300.63 404.57,-294.22"/>
</g>
<!-- Node8 -->
<g id="node8" class="node">
<title>Node8</title>
<g id="a_node8"><a xlink:href="core__fb__image_8h.html" target="_top" xlink:title=" ">
<polygon fill="none" stroke="black" points="634,-223.5 634,-264.5 766,-264.5 766,-223.5 634,-223.5"/>
<text text-anchor="start" x="642" y="-252.5" font-family="Helvetica,sans-Serif" font-size="10.00">seerep_srv/seerep_core</text>
<text text-anchor="start" x="642" y="-241.5" font-family="Helvetica,sans-Serif" font-size="10.00">_fb/include/seerep_core</text>
<text text-anchor="middle" x="700" y="-230.5" font-family="Helvetica,sans-Serif" font-size="10.00">_fb/core_fb_image.h</text>
</a>
</g>
</g>
<!-- Node1&#45;&gt;Node8 -->
<g id="edge7" class="edge">
<title>Node1&#45;&gt;Node8</title>
<path fill="none" stroke="midnightblue" d="M433.37,-304.14C485.38,-293.25 554.23,-278.62 615,-265 621.07,-263.64 627.37,-262.2 633.68,-260.75"/>
<polygon fill="midnightblue" stroke="midnightblue" points="432.6,-300.73 423.53,-306.2 434.03,-307.58 432.6,-300.73"/>
</g>
<!-- Node5 -->
<g id="node5" class="node">
<title>Node5</title>
<g id="a_node5"><a xlink:href="point__dumper_8cpp.html" target="_top" xlink:title=" ">
<polygon fill="none" stroke="black" points="264,-151 264,-181 424,-181 424,-151 264,-151"/>
<text text-anchor="start" x="272" y="-169" font-family="Helvetica,sans-Serif" font-size="10.00">seerep_ros/seerep_ros</text>
<text text-anchor="middle" x="344" y="-158" font-family="Helvetica,sans-Serif" font-size="10.00">_comm/src/point_dumper.cpp</text>
</a>
</g>
</g>
<!-- Node4&#45;&gt;Node5 -->
<g id="edge4" class="edge">
<title>Node4&#45;&gt;Node5</title>
<path fill="none" stroke="midnightblue" d="M348.87,-213.28C347.71,-202.25 346.45,-190.25 345.5,-181.23"/>
<polygon fill="midnightblue" stroke="midnightblue" points="345.41,-213.85 349.94,-223.43 352.37,-213.12 345.41,-213.85"/>
</g>
<!-- Node7 -->
<g id="node7" class="node">
<title>Node7</title>
<g id="a_node7"><a xlink:href="rosbag__dumper_8cpp.html" target="_top" xlink:title=" ">
<polygon fill="none" stroke="black" points="442,-151 442,-181 610,-181 610,-151 442,-151"/>
<text text-anchor="start" x="450" y="-169" font-family="Helvetica,sans-Serif" font-size="10.00">seerep_ros/seerep_ros</text>
<text text-anchor="middle" x="526" y="-158" font-family="Helvetica,sans-Serif" font-size="10.00">_comm/src/rosbag_dumper.cpp</text>
</a>
</g>
</g>
<!-- Node6&#45;&gt;Node7 -->
<g id="edge6" class="edge">
<title>Node6&#45;&gt;Node7</title>
<path fill="none" stroke="midnightblue" d="M526,-213.28C526,-202.25 526,-190.25 526,-181.23"/>
<polygon fill="midnightblue" stroke="midnightblue" points="522.5,-213.43 526,-223.43 529.5,-213.43 522.5,-213.43"/>
</g>
<!-- Node9 -->
<g id="node9" class="node">
<title>Node9</title>
<g id="a_node9"><a xlink:href="core__fb__image_8cpp.html" target="_top" xlink:title=" ">
<polygon fill="none" stroke="black" points="628,-151 628,-181 772,-181 772,-151 628,-151"/>
<text text-anchor="start" x="636" y="-169" font-family="Helvetica,sans-Serif" font-size="10.00">seerep_srv/seerep_core</text>
<text text-anchor="middle" x="700" y="-158" font-family="Helvetica,sans-Serif" font-size="10.00">_fb/src/core_fb_image.cpp</text>
</a>
</g>
</g>
<!-- Node8&#45;&gt;Node9 -->
<g id="edge8" class="edge">
<title>Node8&#45;&gt;Node9</title>
<path fill="none" stroke="midnightblue" d="M700,-213.28C700,-202.25 700,-190.25 700,-181.23"/>
<polygon fill="midnightblue" stroke="midnightblue" points="696.5,-213.43 700,-223.43 703.5,-213.43 696.5,-213.43"/>
</g>
<!-- Node10 -->
<g id="node10" class="node">
<title>Node10</title>
<g id="a_node10"><a xlink:href="fb__image__service_8h.html" target="_top" xlink:title=" ">
<polygon fill="none" stroke="black" points="790,-145.5 790,-186.5 932,-186.5 932,-145.5 790,-145.5"/>
<text text-anchor="start" x="798" y="-174.5" font-family="Helvetica,sans-Serif" font-size="10.00">seerep_srv/seerep_server</text>
<text text-anchor="start" x="798" y="-163.5" font-family="Helvetica,sans-Serif" font-size="10.00">/include/seerep_server</text>
<text text-anchor="middle" x="861" y="-152.5" font-family="Helvetica,sans-Serif" font-size="10.00">/fb_image_service.h</text>
</a>
</g>
</g>
<!-- Node8&#45;&gt;Node10 -->
<g id="edge9" class="edge">
<title>Node8&#45;&gt;Node10</title>
<path fill="none" stroke="midnightblue" d="M750.74,-219.05C772.94,-208.57 798.67,-196.42 819.68,-186.51"/>
<polygon fill="midnightblue" stroke="midnightblue" points="749.01,-215.99 741.46,-223.43 752,-222.32 749.01,-215.99"/>
</g>
<!-- Node11 -->
<g id="node11" class="node">
<title>Node11</title>
<g id="a_node11"><a xlink:href="server_8h.html" target="_top" xlink:title=" ">
<polygon fill="none" stroke="black" points="709,-67.5 709,-108.5 851,-108.5 851,-67.5 709,-67.5"/>
<text text-anchor="start" x="717" y="-96.5" font-family="Helvetica,sans-Serif" font-size="10.00">seerep_srv/seerep_server</text>
<text text-anchor="start" x="717" y="-85.5" font-family="Helvetica,sans-Serif" font-size="10.00">/include/seerep_server</text>
<text text-anchor="middle" x="780" y="-74.5" font-family="Helvetica,sans-Serif" font-size="10.00">/server.h</text>
</a>
</g>
</g>
<!-- Node10&#45;&gt;Node11 -->
<g id="edge10" class="edge">
<title>Node10&#45;&gt;Node11</title>
<path fill="none" stroke="midnightblue" d="M832.75,-138.49C822.24,-128.63 810.51,-117.63 800.79,-108.51"/>
<polygon fill="midnightblue" stroke="midnightblue" points="830.45,-141.14 840.14,-145.43 835.24,-136.03 830.45,-141.14"/>
</g>
<!-- Node13 -->
<g id="node13" class="node">
<title>Node13</title>
<g id="a_node13"><a xlink:href="fb__image__service_8cpp.html" target="_top" xlink:title=" ">
<polygon fill="none" stroke="black" points="869.5,-73 869.5,-103 1012.5,-103 1012.5,-73 869.5,-73"/>
<text text-anchor="start" x="877.5" y="-91" font-family="Helvetica,sans-Serif" font-size="10.00">seerep_srv/seerep_server</text>
<text text-anchor="middle" x="941" y="-80" font-family="Helvetica,sans-Serif" font-size="10.00">/src/fb_image_service.cpp</text>
</a>
</g>
</g>
<!-- Node10&#45;&gt;Node13 -->
<g id="edge12" class="edge">
<title>Node10&#45;&gt;Node13</title>
<path fill="none" stroke="midnightblue" d="M889.08,-138.32C901.52,-126.51 915.65,-113.08 926.03,-103.23"/>
<polygon fill="midnightblue" stroke="midnightblue" points="886.44,-136 881.6,-145.43 891.26,-141.08 886.44,-136"/>
</g>
<!-- Node12 -->
<g id="node12" class="node">
<title>Node12</title>
<g id="a_node12"><a xlink:href="server_8cpp.html" target="_top" xlink:title=" ">
<polygon fill="none" stroke="black" points="709,-0.5 709,-30.5 851,-30.5 851,-0.5 709,-0.5"/>
<text text-anchor="start" x="717" y="-18.5" font-family="Helvetica,sans-Serif" font-size="10.00">seerep_srv/seerep_server</text>
<text text-anchor="middle" x="780" y="-7.5" font-family="Helvetica,sans-Serif" font-size="10.00">/src/server.cpp</text>
</a>
</g>
</g>
<!-- Node11&#45;&gt;Node12 -->
<g id="edge11" class="edge">
<title>Node11&#45;&gt;Node12</title>
<path fill="none" stroke="midnightblue" d="M780,-57.08C780,-48.01 780,-38.45 780,-30.89"/>
<polygon fill="midnightblue" stroke="midnightblue" points="776.5,-57.36 780,-67.36 783.5,-57.36 776.5,-57.36"/>
</g>
</g>
</svg>
