<?xml version="1.0" encoding="UTF-8" standalone="no"?>
<!DOCTYPE svg PUBLIC "-//W3C//DTD SVG 1.1//EN"
 "http://www.w3.org/Graphics/SVG/1.1/DTD/svg11.dtd">
<!-- Generated by graphviz version 2.43.0 (0)
 -->
<!-- Title: seerep&#45;hdf5/seerep&#45;hdf5&#45;fb/src/hdf5&#45;fb&#45;tf.cpp Pages: 1 -->
<svg width="3075pt" height="340pt"
 viewBox="0.00 0.00 3074.87 340.00" xmlns="http://www.w3.org/2000/svg" xmlns:xlink="http://www.w3.org/1999/xlink">
<g id="graph0" class="graph" transform="scale(1 1) rotate(0) translate(4 336)">
<title>seerep&#45;hdf5/seerep&#45;hdf5&#45;fb/src/hdf5&#45;fb&#45;tf.cpp</title>
<!-- Node1 -->
<g id="node1" class="node">
<title>Node1</title>
<g id="a_node1"><a xlink:title=" ">
<polygon fill="#bfbfbf" stroke="black" points="1787.5,-290.5 1787.5,-331.5 1898.5,-331.5 1898.5,-290.5 1787.5,-290.5"/>
<text text-anchor="start" x="1795.5" y="-319.5" font-family="Helvetica,sans-Serif" font-size="10.00">seerep&#45;hdf5/seerep</text>
<text text-anchor="start" x="1795.5" y="-308.5" font-family="Helvetica,sans-Serif" font-size="10.00">&#45;hdf5&#45;fb/src/hdf5&#45;fb</text>
<text text-anchor="middle" x="1843" y="-297.5" font-family="Helvetica,sans-Serif" font-size="10.00">&#45;tf.cpp</text>
</a>
</g>
</g>
<!-- Node2 -->
<g id="node2" class="node">
<title>Node2</title>
<g id="a_node2"><a xlink:href="hdf5-fb-tf_8h.html" target="_top" xlink:title=" ">
<polygon fill="none" stroke="black" points="1786.5,-223.5 1786.5,-253.5 1899.5,-253.5 1899.5,-223.5 1786.5,-223.5"/>
<text text-anchor="start" x="1794.5" y="-241.5" font-family="Helvetica,sans-Serif" font-size="10.00">seerep&#45;hdf5&#45;fb/hdf5</text>
<text text-anchor="middle" x="1843" y="-230.5" font-family="Helvetica,sans-Serif" font-size="10.00">&#45;fb&#45;tf.h</text>
</a>
</g>
</g>
<!-- Node1&#45;&gt;Node2 -->
<g id="edge1" class="edge">
<title>Node1&#45;&gt;Node2</title>
<path fill="none" stroke="midnightblue" d="M1843,-290.36C1843,-282.23 1843,-272.7 1843,-264.11"/>
<polygon fill="midnightblue" stroke="midnightblue" points="1846.5,-263.89 1843,-253.89 1839.5,-263.89 1846.5,-263.89"/>
</g>
<!-- Node4 -->
<g id="node4" class="node">
<title>Node4</title>
<g id="a_node4"><a xlink:href="hdf5-core-tf_8h.html" target="_top" xlink:title=" ">
<polygon fill="none" stroke="black" points="1294.5,-156.5 1294.5,-186.5 1419.5,-186.5 1419.5,-156.5 1294.5,-156.5"/>
<text text-anchor="start" x="1302.5" y="-174.5" font-family="Helvetica,sans-Serif" font-size="10.00">seerep&#45;hdf5&#45;core/hdf5</text>
<text text-anchor="middle" x="1357" y="-163.5" font-family="Helvetica,sans-Serif" font-size="10.00">&#45;core&#45;tf.h</text>
</a>
</g>
</g>
<!-- Node1&#45;&gt;Node4 -->
<g id="edge49" class="edge">
<title>Node1&#45;&gt;Node4</title>
<path fill="none" stroke="midnightblue" d="M1787.25,-294.23C1694.9,-268.1 1511,-216.07 1416.34,-189.29"/>
<polygon fill="midnightblue" stroke="midnightblue" points="1417.21,-185.9 1406.63,-186.54 1415.3,-192.63 1417.21,-185.9"/>
</g>
<!-- Node36 -->
<g id="node36" class="node">
<title>Node36</title>
<g id="a_node36"><a xlink:title=" ">
<polygon fill="none" stroke="#bfbfbf" points="1918,-229 1918,-248 2050,-248 2050,-229 1918,-229"/>
<text text-anchor="middle" x="1984" y="-236" font-family="Helvetica,sans-Serif" font-size="10.00">highfive/H5DataSet.hpp</text>
</a>
</g>
</g>
<!-- Node1&#45;&gt;Node36 -->
<g id="edge48" class="edge">
<title>Node1&#45;&gt;Node36</title>
<path fill="none" stroke="midnightblue" d="M1882.28,-290.36C1906.3,-278.35 1936.39,-263.3 1957.59,-252.7"/>
<polygon fill="midnightblue" stroke="midnightblue" points="1959.27,-255.78 1966.65,-248.17 1956.14,-249.52 1959.27,-255.78"/>
</g>
<!-- Node3 -->
<g id="node3" class="node">
<title>Node3</title>
<g id="a_node3"><a xlink:title=" ">
<polygon fill="none" stroke="#bfbfbf" points="2570,-11.5 2570,-30.5 2680,-30.5 2680,-11.5 2570,-11.5"/>
<text text-anchor="middle" x="2625" y="-18.5" font-family="Helvetica,sans-Serif" font-size="10.00">highfive/H5File.hpp</text>
</a>
</g>
</g>
<!-- Node2&#45;&gt;Node3 -->
<g id="edge2" class="edge">
<title>Node2&#45;&gt;Node3</title>
<path fill="none" stroke="midnightblue" d="M1899.77,-224.36C1902.88,-223.85 1905.97,-223.39 1909,-223 2318.4,-170.51 2429.96,-255.43 2837,-187 2938.22,-169.98 2996.85,-202.43 3058,-120 3069.12,-105.01 3070.32,-92.02 3058,-78 3034.14,-50.85 2805.45,-33.07 2690.41,-25.77"/>
<polygon fill="midnightblue" stroke="midnightblue" points="2690.51,-22.27 2680.31,-25.14 2690.08,-29.26 2690.51,-22.27"/>
</g>
<!-- Node2&#45;&gt;Node4 -->
<g id="edge3" class="edge">
<title>Node2&#45;&gt;Node4</title>
<path fill="none" stroke="midnightblue" d="M1786.3,-229.92C1697.91,-218.09 1527.33,-195.28 1429.91,-182.25"/>
<polygon fill="midnightblue" stroke="midnightblue" points="1430.23,-178.76 1419.85,-180.91 1429.3,-185.7 1430.23,-178.76"/>
</g>
<!-- Node10 -->
<g id="node10" class="node">
<title>Node10</title>
<g id="a_node10"><a xlink:title=" ">
<polygon fill="none" stroke="#bfbfbf" points="2004.5,-11.5 2004.5,-30.5 2117.5,-30.5 2117.5,-11.5 2004.5,-11.5"/>
<text text-anchor="middle" x="2061" y="-18.5" font-family="Helvetica,sans-Serif" font-size="10.00">boost/geometry.hpp</text>
</a>
</g>
</g>
<!-- Node2&#45;&gt;Node10 -->
<g id="edge46" class="edge">
<title>Node2&#45;&gt;Node10</title>
<path fill="none" stroke="midnightblue" d="M1899.8,-224.55C1902.9,-223.99 1905.99,-223.47 1909,-223 2033.7,-203.7 2954.91,-213.19 3040,-120 3052.59,-106.22 3052.82,-91.57 3040,-78 3024.3,-61.38 2345.46,-33.22 2127.57,-24.59"/>
<polygon fill="midnightblue" stroke="midnightblue" points="2127.68,-21.09 2117.55,-24.19 2127.4,-28.08 2127.68,-21.09"/>
</g>
<!-- Node12 -->
<g id="node12" class="node">
<title>Node12</title>
<g id="a_node12"><a xlink:title=" ">
<polygon fill="none" stroke="#bfbfbf" points="0,-11.5 0,-30.5 56,-30.5 56,-11.5 0,-11.5"/>
<text text-anchor="middle" x="28" y="-18.5" font-family="Helvetica,sans-Serif" font-size="10.00">optional</text>
</a>
</g>
</g>
<!-- Node2&#45;&gt;Node12 -->
<g id="edge47" class="edge">
<title>Node2&#45;&gt;Node12</title>
<path fill="none" stroke="midnightblue" d="M1786.32,-232.9C1685.42,-224.59 1468.09,-206.16 1285,-187 741.93,-130.16 585.52,-206.97 65,-42 60.04,-40.43 54.98,-38.18 50.25,-35.76"/>
<polygon fill="midnightblue" stroke="midnightblue" points="51.6,-32.5 41.16,-30.69 48.19,-38.62 51.6,-32.5"/>
</g>
<!-- Node23 -->
<g id="node23" class="node">
<title>Node23</title>
<g id="a_node23"><a xlink:href="hdf5-fb-general_8h.html" target="_top" xlink:title=" ">
<polygon fill="none" stroke="black" points="1786.5,-156.5 1786.5,-186.5 1899.5,-186.5 1899.5,-156.5 1786.5,-156.5"/>
<text text-anchor="start" x="1794.5" y="-174.5" font-family="Helvetica,sans-Serif" font-size="10.00">seerep&#45;hdf5&#45;fb/hdf5</text>
<text text-anchor="middle" x="1843" y="-163.5" font-family="Helvetica,sans-Serif" font-size="10.00">&#45;fb&#45;general.h</text>
</a>
</g>
</g>
<!-- Node2&#45;&gt;Node23 -->
<g id="edge26" class="edge">
<title>Node2&#45;&gt;Node23</title>
<path fill="none" stroke="midnightblue" d="M1843,-223.4C1843,-215.64 1843,-205.81 1843,-196.86"/>
<polygon fill="midnightblue" stroke="midnightblue" points="1846.5,-196.58 1843,-186.58 1839.5,-196.58 1846.5,-196.58"/>
</g>
<!-- Node35 -->
<g id="node35" class="node">
<title>Node35</title>
<g id="a_node35"><a xlink:title=" ">
<polygon fill="none" stroke="#bfbfbf" points="1917.5,-156.5 1917.5,-186.5 2048.5,-186.5 2048.5,-156.5 1917.5,-156.5"/>
<text text-anchor="start" x="1925.5" y="-174.5" font-family="Helvetica,sans-Serif" font-size="10.00">seerep&#45;msgs/transform</text>
<text text-anchor="middle" x="1983" y="-163.5" font-family="Helvetica,sans-Serif" font-size="10.00">_stamped_generated.h</text>
</a>
</g>
</g>
<!-- Node2&#45;&gt;Node35 -->
<g id="edge45" class="edge">
<title>Node2&#45;&gt;Node35</title>
<path fill="none" stroke="midnightblue" d="M1873.38,-223.4C1893.93,-213.86 1921.26,-201.16 1943.5,-190.84"/>
<polygon fill="midnightblue" stroke="midnightblue" points="1945.09,-193.96 1952.68,-186.58 1942.14,-187.61 1945.09,-193.96"/>
</g>
<!-- Node4&#45;&gt;Node3 -->
<g id="edge4" class="edge">
<title>Node4&#45;&gt;Node3</title>
<path fill="none" stroke="midnightblue" d="M1363.69,-156.29C1375.14,-132.67 1398.72,-87 1414,-78 1426.45,-70.67 2309.48,-34.67 2559.63,-24.62"/>
<polygon fill="midnightblue" stroke="midnightblue" points="2559.81,-28.11 2569.66,-24.21 2559.53,-21.12 2559.81,-28.11"/>
</g>
<!-- Node5 -->
<g id="node5" class="node">
<title>Node5</title>
<g id="a_node5"><a xlink:href="hdf5-core-general_8h.html" target="_top" xlink:title=" ">
<polygon fill="none" stroke="black" points="1089.5,-84 1089.5,-114 1214.5,-114 1214.5,-84 1089.5,-84"/>
<text text-anchor="start" x="1097.5" y="-102" font-family="Helvetica,sans-Serif" font-size="10.00">seerep&#45;hdf5&#45;core/hdf5</text>
<text text-anchor="middle" x="1152" y="-91" font-family="Helvetica,sans-Serif" font-size="10.00">&#45;core&#45;general.h</text>
</a>
</g>
</g>
<!-- Node4&#45;&gt;Node5 -->
<g id="edge5" class="edge">
<title>Node4&#45;&gt;Node5</title>
<path fill="none" stroke="midnightblue" d="M1316.01,-156.4C1283.33,-145.16 1237.41,-129.37 1202.46,-117.36"/>
<polygon fill="midnightblue" stroke="midnightblue" points="1203.52,-114.02 1192.92,-114.07 1201.24,-120.63 1203.52,-114.02"/>
</g>
<!-- Node4&#45;&gt;Node10 -->
<g id="edge24" class="edge">
<title>Node4&#45;&gt;Node10</title>
<path fill="none" stroke="midnightblue" d="M1356,-156.24C1355.41,-135.41 1357.8,-97.06 1381,-78 1433.8,-34.62 1927.72,-53.99 1995,-42 2005.9,-40.06 2017.53,-36.91 2027.95,-33.68"/>
<polygon fill="midnightblue" stroke="midnightblue" points="2029.06,-37 2037.5,-30.6 2026.91,-30.34 2029.06,-37"/>
</g>
<!-- Node4&#45;&gt;Node12 -->
<g id="edge25" class="edge">
<title>Node4&#45;&gt;Node12</title>
<path fill="none" stroke="midnightblue" d="M1294.2,-171.18C1229.05,-169.46 1125.86,-159.81 1047,-120 1023.15,-107.96 1028.54,-88.55 1004,-78 812.15,4.47 266.42,-97.08 65,-42 59.68,-40.54 54.27,-38.21 49.3,-35.63"/>
<polygon fill="midnightblue" stroke="midnightblue" points="50.82,-32.47 40.4,-30.56 47.36,-38.55 50.82,-32.47"/>
</g>
<!-- Node22 -->
<g id="node22" class="node">
<title>Node22</title>
<g id="a_node22"><a xlink:title=" ">
<polygon fill="none" stroke="#bfbfbf" points="795,-89.5 795,-108.5 995,-108.5 995,-89.5 795,-89.5"/>
<text text-anchor="middle" x="895" y="-96.5" font-family="Helvetica,sans-Serif" font-size="10.00">geometry_msgs/TransformStamped.h</text>
</a>
</g>
</g>
<!-- Node4&#45;&gt;Node22 -->
<g id="edge23" class="edge">
<title>Node4&#45;&gt;Node22</title>
<path fill="none" stroke="midnightblue" d="M1294.36,-161.98C1224.63,-152.36 1108.61,-135.96 1009,-120 990.33,-117.01 969.99,-113.52 951.73,-110.29"/>
<polygon fill="midnightblue" stroke="midnightblue" points="952.27,-106.83 941.82,-108.53 951.05,-113.73 952.27,-106.83"/>
</g>
<!-- Node5&#45;&gt;Node3 -->
<g id="edge6" class="edge">
<title>Node5&#45;&gt;Node3</title>
<path fill="none" stroke="midnightblue" d="M1214.64,-91.81C1260.63,-87.44 1324.65,-81.73 1381,-78 1613.65,-62.61 2337.42,-33.4 2559.52,-24.58"/>
<polygon fill="midnightblue" stroke="midnightblue" points="2559.86,-28.07 2569.71,-24.18 2559.58,-21.08 2559.86,-28.07"/>
</g>
<!-- Node6 -->
<g id="node6" class="node">
<title>Node6</title>
<g id="a_node6"><a xlink:title=" ">
<polygon fill="none" stroke="#bfbfbf" points="574,-11.5 574,-30.5 690,-30.5 690,-11.5 574,-11.5"/>
<text text-anchor="middle" x="632" y="-18.5" font-family="Helvetica,sans-Serif" font-size="10.00">seerep&#45;msgs/aabb.h</text>
</a>
</g>
</g>
<!-- Node5&#45;&gt;Node6 -->
<g id="edge7" class="edge">
<title>Node5&#45;&gt;Node6</title>
<path fill="none" stroke="midnightblue" d="M1102.55,-83.92C1093.44,-81.68 1083.98,-79.59 1075,-78 909.68,-48.81 863.77,-74.16 699,-42 688.17,-39.89 676.57,-36.75 666.13,-33.58"/>
<polygon fill="midnightblue" stroke="midnightblue" points="667.12,-30.23 656.53,-30.57 665.03,-36.91 667.12,-30.23"/>
</g>
<!-- Node7 -->
<g id="node7" class="node">
<title>Node7</title>
<g id="a_node7"><a xlink:title=" ">
<polygon fill="none" stroke="#bfbfbf" points="708.5,-6 708.5,-36 827.5,-36 827.5,-6 708.5,-6"/>
<text text-anchor="start" x="716.5" y="-24" font-family="Helvetica,sans-Serif" font-size="10.00">seerep&#45;msgs/dataset</text>
<text text-anchor="middle" x="768" y="-13" font-family="Helvetica,sans-Serif" font-size="10.00">&#45;indexable.h</text>
</a>
</g>
</g>
<!-- Node5&#45;&gt;Node7 -->
<g id="edge8" class="edge">
<title>Node5&#45;&gt;Node7</title>
<path fill="none" stroke="midnightblue" d="M1100.82,-83.91C1092.23,-81.77 1083.39,-79.72 1075,-78 969.76,-56.47 940.88,-65.21 836,-42 831.55,-41.02 826.97,-39.9 822.39,-38.71"/>
<polygon fill="midnightblue" stroke="midnightblue" points="822.97,-35.24 812.4,-36 821.14,-41.99 822.97,-35.24"/>
</g>
<!-- Node8 -->
<g id="node8" class="node">
<title>Node8</title>
<g id="a_node8"><a xlink:title=" ">
<polygon fill="none" stroke="#bfbfbf" points="845.5,-6 845.5,-36 970.5,-36 970.5,-6 845.5,-6"/>
<text text-anchor="start" x="853.5" y="-24" font-family="Helvetica,sans-Serif" font-size="10.00">seerep&#45;msgs/geodetic</text>
<text text-anchor="middle" x="908" y="-13" font-family="Helvetica,sans-Serif" font-size="10.00">&#45;coordinates.h</text>
</a>
</g>
</g>
<!-- Node5&#45;&gt;Node8 -->
<g id="edge9" class="edge">
<title>Node5&#45;&gt;Node8</title>
<path fill="none" stroke="midnightblue" d="M1106.96,-83.97C1066.25,-71.29 1006.22,-52.59 962.75,-39.05"/>
<polygon fill="midnightblue" stroke="midnightblue" points="963.78,-35.71 953.19,-36.07 961.69,-42.39 963.78,-35.71"/>
</g>
<!-- Node9 -->
<g id="node9" class="node">
<title>Node9</title>
<g id="a_node9"><a xlink:title=" ">
<polygon fill="none" stroke="#bfbfbf" points="989,-0.5 989,-41.5 1101,-41.5 1101,-0.5 989,-0.5"/>
<text text-anchor="start" x="997" y="-29.5" font-family="Helvetica,sans-Serif" font-size="10.00">seerep&#45;msgs/labels</text>
<text text-anchor="start" x="997" y="-18.5" font-family="Helvetica,sans-Serif" font-size="10.00">&#45;with&#45;instance&#45;with</text>
<text text-anchor="middle" x="1045" y="-7.5" font-family="Helvetica,sans-Serif" font-size="10.00">&#45;category.h</text>
</a>
</g>
</g>
<!-- Node5&#45;&gt;Node9 -->
<g id="edge10" class="edge">
<title>Node5&#45;&gt;Node9</title>
<path fill="none" stroke="midnightblue" d="M1132.12,-83.88C1117.92,-73.79 1098.4,-59.93 1081.43,-47.88"/>
<polygon fill="midnightblue" stroke="midnightblue" points="1083.02,-44.71 1072.84,-41.77 1078.96,-50.42 1083.02,-44.71"/>
</g>
<!-- Node5&#45;&gt;Node10 -->
<g id="edge11" class="edge">
<title>Node5&#45;&gt;Node10</title>
<path fill="none" stroke="midnightblue" d="M1214.73,-90.65C1251.96,-86.48 1300.13,-81.43 1343,-78 1632.3,-54.88 1709.2,-92.44 1995,-42 2005.99,-40.06 2017.73,-36.88 2028.21,-33.62"/>
<polygon fill="midnightblue" stroke="midnightblue" points="2029.38,-36.92 2037.81,-30.51 2027.22,-30.27 2029.38,-36.92"/>
</g>
<!-- Node11 -->
<g id="node11" class="node">
<title>Node11</title>
<g id="a_node11"><a xlink:title=" ">
<polygon fill="none" stroke="#bfbfbf" points="1642,-11.5 1642,-30.5 1690,-30.5 1690,-11.5 1642,-11.5"/>
<text text-anchor="middle" x="1666" y="-18.5" font-family="Helvetica,sans-Serif" font-size="10.00">mutex</text>
</a>
</g>
</g>
<!-- Node5&#45;&gt;Node11 -->
<g id="edge12" class="edge">
<title>Node5&#45;&gt;Node11</title>
<path fill="none" stroke="midnightblue" d="M1201.03,-83.98C1210.26,-81.7 1219.88,-79.58 1229,-78 1406.18,-47.29 1460.77,-96.93 1632,-42 1636.6,-40.52 1641.25,-38.34 1645.56,-35.96"/>
<polygon fill="midnightblue" stroke="midnightblue" points="1647.63,-38.8 1654.34,-30.6 1643.98,-32.82 1647.63,-38.8"/>
</g>
<!-- Node5&#45;&gt;Node12 -->
<g id="edge13" class="edge">
<title>Node5&#45;&gt;Node12</title>
<path fill="none" stroke="midnightblue" d="M1104.69,-83.98C1094.95,-81.58 1084.7,-79.42 1075,-78 852.77,-45.58 281.71,-100.95 65,-42 59.68,-40.55 54.27,-38.22 49.3,-35.64"/>
<polygon fill="midnightblue" stroke="midnightblue" points="50.82,-32.48 40.4,-30.57 47.35,-38.56 50.82,-32.48"/>
</g>
<!-- Node13 -->
<g id="node13" class="node">
<title>Node13</title>
<g id="a_node13"><a xlink:title=" ">
<polygon fill="none" stroke="#bfbfbf" points="1119.5,-11.5 1119.5,-30.5 1188.5,-30.5 1188.5,-11.5 1119.5,-11.5"/>
<text text-anchor="middle" x="1154" y="-18.5" font-family="Helvetica,sans-Serif" font-size="10.00">type_traits</text>
</a>
</g>
</g>
<!-- Node5&#45;&gt;Node13 -->
<g id="edge14" class="edge">
<title>Node5&#45;&gt;Node13</title>
<path fill="none" stroke="midnightblue" d="M1152.38,-83.7C1152.69,-71.6 1153.15,-54.15 1153.5,-40.89"/>
<polygon fill="midnightblue" stroke="midnightblue" points="1157.01,-40.65 1153.77,-30.56 1150.01,-40.47 1157.01,-40.65"/>
</g>
<!-- Node14 -->
<g id="node14" class="node">
<title>Node14</title>
<g id="a_node14"><a xlink:title=" ">
<polygon fill="none" stroke="#bfbfbf" points="1708.5,-6 1708.5,-36 1853.5,-36 1853.5,-6 1708.5,-6"/>
<text text-anchor="start" x="1716.5" y="-24" font-family="Helvetica,sans-Serif" font-size="10.00">boost/log/sources/severity</text>
<text text-anchor="middle" x="1781" y="-13" font-family="Helvetica,sans-Serif" font-size="10.00">_logger.hpp</text>
</a>
</g>
</g>
<!-- Node5&#45;&gt;Node14 -->
<g id="edge15" class="edge">
<title>Node5&#45;&gt;Node14</title>
<path fill="none" stroke="midnightblue" d="M1214.52,-86.09C1231.5,-83.13 1249.91,-80.19 1267,-78 1458.1,-53.47 1508.83,-72.92 1699,-42 1705.51,-40.94 1712.27,-39.64 1718.98,-38.21"/>
<polygon fill="midnightblue" stroke="midnightblue" points="1719.75,-41.62 1728.76,-36.03 1718.23,-34.79 1719.75,-41.62"/>
</g>
<!-- Node15 -->
<g id="node15" class="node">
<title>Node15</title>
<g id="a_node15"><a xlink:title=" ">
<polygon fill="none" stroke="#bfbfbf" points="1872,-11.5 1872,-30.5 1986,-30.5 1986,-11.5 1872,-11.5"/>
<text text-anchor="middle" x="1929" y="-18.5" font-family="Helvetica,sans-Serif" font-size="10.00">boost/log/trivial.hpp</text>
</a>
</g>
</g>
<!-- Node5&#45;&gt;Node15 -->
<g id="edge16" class="edge">
<title>Node5&#45;&gt;Node15</title>
<path fill="none" stroke="midnightblue" d="M1214.8,-88.85C1242.42,-85.07 1275.27,-80.9 1305,-78 1551.9,-53.91 1617.82,-85.76 1862,-42 1873.05,-40.02 1884.85,-36.86 1895.43,-33.63"/>
<polygon fill="midnightblue" stroke="midnightblue" points="1896.66,-36.92 1905.13,-30.56 1894.54,-30.25 1896.66,-36.92"/>
</g>
<!-- Node16 -->
<g id="node16" class="node">
<title>Node16</title>
<g id="a_node16"><a xlink:title=" ">
<polygon fill="none" stroke="#bfbfbf" points="1206.5,-11.5 1206.5,-30.5 1349.5,-30.5 1349.5,-11.5 1206.5,-11.5"/>
<text text-anchor="middle" x="1278" y="-18.5" font-family="Helvetica,sans-Serif" font-size="10.00">boost/functional/hash.hpp</text>
</a>
</g>
</g>
<!-- Node5&#45;&gt;Node16 -->
<g id="edge17" class="edge">
<title>Node5&#45;&gt;Node16</title>
<path fill="none" stroke="midnightblue" d="M1175.4,-83.88C1198.17,-70.15 1232.54,-49.42 1255.13,-35.8"/>
<polygon fill="midnightblue" stroke="midnightblue" points="1256.98,-38.77 1263.73,-30.61 1253.36,-32.77 1256.98,-38.77"/>
</g>
<!-- Node17 -->
<g id="node17" class="node">
<title>Node17</title>
<g id="a_node17"><a xlink:title=" ">
<polygon fill="none" stroke="#bfbfbf" points="1367.5,-11.5 1367.5,-30.5 1492.5,-30.5 1492.5,-11.5 1367.5,-11.5"/>
<text text-anchor="middle" x="1430" y="-18.5" font-family="Helvetica,sans-Serif" font-size="10.00">boost/lexical_cast.hpp</text>
</a>
</g>
</g>
<!-- Node5&#45;&gt;Node17 -->
<g id="edge18" class="edge">
<title>Node5&#45;&gt;Node17</title>
<path fill="none" stroke="midnightblue" d="M1204.09,-83.92C1245.75,-72.65 1305.65,-56.39 1358,-42 1368.33,-39.16 1379.49,-36.07 1389.87,-33.19"/>
<polygon fill="midnightblue" stroke="midnightblue" points="1390.83,-36.55 1399.53,-30.5 1388.96,-29.81 1390.83,-36.55"/>
</g>
<!-- Node18 -->
<g id="node18" class="node">
<title>Node18</title>
<g id="a_node18"><a xlink:title=" ">
<polygon fill="none" stroke="#bfbfbf" points="1510.5,-11.5 1510.5,-30.5 1623.5,-30.5 1623.5,-11.5 1510.5,-11.5"/>
<text text-anchor="middle" x="1567" y="-18.5" font-family="Helvetica,sans-Serif" font-size="10.00">boost/uuid/uuid.hpp</text>
</a>
</g>
</g>
<!-- Node5&#45;&gt;Node18 -->
<g id="edge19" class="edge">
<title>Node5&#45;&gt;Node18</title>
<path fill="none" stroke="midnightblue" d="M1202.33,-83.98C1211.17,-81.79 1220.32,-79.69 1229,-78 1348.68,-54.63 1381.81,-67.77 1501,-42 1511.36,-39.76 1522.44,-36.68 1532.51,-33.61"/>
<polygon fill="midnightblue" stroke="midnightblue" points="1533.69,-36.9 1542.18,-30.57 1531.59,-30.23 1533.69,-36.9"/>
</g>
<!-- Node19 -->
<g id="node19" class="node">
<title>Node19</title>
<g id="a_node19"><a xlink:title=" ">
<polygon fill="none" stroke="#bfbfbf" points="74,-11.5 74,-30.5 244,-30.5 244,-11.5 74,-11.5"/>
<text text-anchor="middle" x="159" y="-18.5" font-family="Helvetica,sans-Serif" font-size="10.00">boost/uuid/uuid_generators.hpp</text>
</a>
</g>
</g>
<!-- Node5&#45;&gt;Node19 -->
<g id="edge20" class="edge">
<title>Node5&#45;&gt;Node19</title>
<path fill="none" stroke="midnightblue" d="M1104.26,-83.94C1094.65,-81.58 1084.56,-79.43 1075,-78 713.37,-23.73 615.75,-88.21 253,-42 236.44,-39.89 218.46,-36.37 202.7,-32.87"/>
<polygon fill="midnightblue" stroke="midnightblue" points="203.23,-29.4 192.71,-30.59 201.67,-36.23 203.23,-29.4"/>
</g>
<!-- Node20 -->
<g id="node20" class="node">
<title>Node20</title>
<g id="a_node20"><a xlink:title=" ">
<polygon fill="none" stroke="#bfbfbf" points="262.5,-11.5 262.5,-30.5 389.5,-30.5 389.5,-11.5 262.5,-11.5"/>
<text text-anchor="middle" x="326" y="-18.5" font-family="Helvetica,sans-Serif" font-size="10.00">boost/uuid/uuid_io.hpp</text>
</a>
</g>
</g>
<!-- Node5&#45;&gt;Node20 -->
<g id="edge21" class="edge">
<title>Node5&#45;&gt;Node20</title>
<path fill="none" stroke="midnightblue" d="M1103.84,-83.91C1094.35,-81.58 1084.42,-79.46 1075,-78 777.23,-31.89 695.37,-90.61 398,-42 385.82,-40.01 372.75,-36.74 361.13,-33.41"/>
<polygon fill="midnightblue" stroke="midnightblue" points="361.94,-30 351.36,-30.5 359.94,-36.71 361.94,-30"/>
</g>
<!-- Node21 -->
<g id="node21" class="node">
<title>Node21</title>
<g id="a_node21"><a xlink:title=" ">
<polygon fill="none" stroke="#bfbfbf" points="407.5,-11.5 407.5,-30.5 556.5,-30.5 556.5,-11.5 407.5,-11.5"/>
<text text-anchor="middle" x="482" y="-18.5" font-family="Helvetica,sans-Serif" font-size="10.00">impl/hdf5&#45;core&#45;general.hpp</text>
</a>
</g>
</g>
<!-- Node5&#45;&gt;Node21 -->
<g id="edge22" class="edge">
<title>Node5&#45;&gt;Node21</title>
<path fill="none" stroke="midnightblue" d="M1103.41,-83.94C1094.05,-81.64 1084.27,-79.52 1075,-78 850.76,-41.28 789.56,-76.73 565,-42 550.88,-39.82 535.62,-36.44 522.08,-33.08"/>
<polygon fill="midnightblue" stroke="midnightblue" points="522.67,-29.62 512.11,-30.53 520.94,-36.4 522.67,-29.62"/>
</g>
<!-- Node23&#45;&gt;Node3 -->
<g id="edge27" class="edge">
<title>Node23&#45;&gt;Node3</title>
<path fill="none" stroke="midnightblue" d="M1899.61,-157.22C1902.44,-156.76 1905.25,-156.35 1908,-156 1970.42,-148.12 2996.22,-165.19 3040,-120 3052.99,-106.59 3052.29,-92.05 3040,-78 3017.35,-52.09 2801.19,-33.87 2690.16,-26.14"/>
<polygon fill="midnightblue" stroke="midnightblue" points="2690.29,-22.64 2680.07,-25.45 2689.81,-29.63 2690.29,-22.64"/>
</g>
<!-- Node23&#45;&gt;Node5 -->
<g id="edge28" class="edge">
<title>Node23&#45;&gt;Node5</title>
<path fill="none" stroke="midnightblue" d="M1786.3,-169.09C1677.51,-165.67 1432.25,-154.49 1229,-120 1223.16,-119.01 1217.11,-117.79 1211.08,-116.44"/>
<polygon fill="midnightblue" stroke="midnightblue" points="1211.56,-112.96 1201.02,-114.08 1209.95,-119.77 1211.56,-112.96"/>
</g>
<!-- Node23&#45;&gt;Node10 -->
<g id="edge38" class="edge">
<title>Node23&#45;&gt;Node10</title>
<path fill="none" stroke="midnightblue" d="M1899.69,-157.68C1956.72,-144.54 2036.98,-125.31 2042,-120 2062.17,-98.65 2063.96,-62.62 2062.87,-40.71"/>
<polygon fill="midnightblue" stroke="midnightblue" points="2066.35,-40.39 2062.12,-30.68 2059.37,-40.92 2066.35,-40.39"/>
</g>
<!-- Node23&#45;&gt;Node11 -->
<g id="edge40" class="edge">
<title>Node23&#45;&gt;Node11</title>
<path fill="none" stroke="midnightblue" d="M1786.15,-169.53C1652.08,-166.67 1324.86,-156.01 1292,-120 1279.42,-106.21 1279.51,-91.88 1292,-78 1342.82,-21.52 1559.85,-65.8 1632,-42 1636.59,-40.49 1641.23,-38.29 1645.54,-35.9"/>
<polygon fill="midnightblue" stroke="midnightblue" points="1647.61,-38.74 1654.33,-30.55 1643.97,-32.76 1647.61,-38.74"/>
</g>
<!-- Node23&#45;&gt;Node12 -->
<g id="edge41" class="edge">
<title>Node23&#45;&gt;Node12</title>
<path fill="none" stroke="midnightblue" d="M1786.44,-169.12C1620.63,-164.75 1143.42,-149.7 1080,-120 1056.65,-109.07 1063.5,-88.59 1040,-78 941.16,-33.46 169.59,-70.52 65,-42 59.68,-40.55 54.27,-38.21 49.3,-35.64"/>
<polygon fill="midnightblue" stroke="midnightblue" points="50.82,-32.48 40.4,-30.57 47.36,-38.56 50.82,-32.48"/>
</g>
<!-- Node23&#45;&gt;Node14 -->
<g id="edge42" class="edge">
<title>Node23&#45;&gt;Node14</title>
<path fill="none" stroke="midnightblue" d="M1786.03,-169.39C1654.21,-166.25 1336.94,-155.07 1305,-120 1292.43,-106.2 1292.42,-91.79 1305,-78 1334.64,-45.53 1655.64,-49.23 1699,-42 1705.26,-40.96 1711.75,-39.69 1718.21,-38.32"/>
<polygon fill="midnightblue" stroke="midnightblue" points="1719.3,-41.66 1728.31,-36.07 1717.78,-34.82 1719.3,-41.66"/>
</g>
<!-- Node23&#45;&gt;Node15 -->
<g id="edge43" class="edge">
<title>Node23&#45;&gt;Node15</title>
<path fill="none" stroke="midnightblue" d="M1786.1,-167.94C1675.1,-162.36 1438.32,-147.36 1414,-120 1401.6,-106.05 1401.34,-91.72 1414,-78 1447.87,-41.3 1812.92,-51.19 1862,-42 1872.94,-39.95 1884.64,-36.8 1895.15,-33.61"/>
<polygon fill="midnightblue" stroke="midnightblue" points="1896.32,-36.91 1904.8,-30.56 1894.21,-30.23 1896.32,-36.91"/>
</g>
<!-- Node24 -->
<g id="node24" class="node">
<title>Node24</title>
<g id="a_node24"><a xlink:title=" ">
<polygon fill="none" stroke="#bfbfbf" points="2089,-84 2089,-114 2247,-114 2247,-84 2089,-84"/>
<text text-anchor="start" x="2097" y="-102" font-family="Helvetica,sans-Serif" font-size="10.00">seerep&#45;msgs/boundingbox2d</text>
<text text-anchor="middle" x="2168" y="-91" font-family="Helvetica,sans-Serif" font-size="10.00">_labeled_generated.h</text>
</a>
</g>
</g>
<!-- Node23&#45;&gt;Node24 -->
<g id="edge29" class="edge">
<title>Node23&#45;&gt;Node24</title>
<path fill="none" stroke="midnightblue" d="M1899.71,-157.82C1902.52,-157.2 1905.29,-156.59 1908,-156 1925.97,-152.06 2022.38,-131.31 2092.57,-116.22"/>
<polygon fill="midnightblue" stroke="midnightblue" points="2093.68,-119.56 2102.72,-114.03 2092.21,-112.71 2093.68,-119.56"/>
</g>
<!-- Node25 -->
<g id="node25" class="node">
<title>Node25</title>
<g id="a_node25"><a xlink:title=" ">
<polygon fill="none" stroke="#bfbfbf" points="2265,-78.5 2265,-119.5 2423,-119.5 2423,-78.5 2265,-78.5"/>
<text text-anchor="start" x="2273" y="-107.5" font-family="Helvetica,sans-Serif" font-size="10.00">seerep&#45;msgs/boundingbox2d</text>
<text text-anchor="start" x="2273" y="-96.5" font-family="Helvetica,sans-Serif" font-size="10.00">_labeled_with_category</text>
<text text-anchor="middle" x="2344" y="-85.5" font-family="Helvetica,sans-Serif" font-size="10.00">_generated.h</text>
</a>
</g>
</g>
<!-- Node23&#45;&gt;Node25 -->
<g id="edge30" class="edge">
<title>Node23&#45;&gt;Node25</title>
<path fill="none" stroke="midnightblue" d="M1899.64,-157.46C1902.46,-156.94 1905.26,-156.45 1908,-156 2058.18,-131.57 2100.76,-144.68 2254.64,-120.12"/>
<polygon fill="midnightblue" stroke="midnightblue" points="2255.63,-123.5 2264.93,-118.44 2254.5,-116.59 2255.63,-123.5"/>
</g>
<!-- Node26 -->
<g id="node26" class="node">
<title>Node26</title>
<g id="a_node26"><a xlink:title=" ">
<polygon fill="none" stroke="#bfbfbf" points="2441,-84 2441,-114 2587,-114 2587,-84 2441,-84"/>
<text text-anchor="start" x="2449" y="-102" font-family="Helvetica,sans-Serif" font-size="10.00">seerep&#45;msgs/boundingbox</text>
<text text-anchor="middle" x="2514" y="-91" font-family="Helvetica,sans-Serif" font-size="10.00">_labeled_generated.h</text>
</a>
</g>
</g>
<!-- Node23&#45;&gt;Node26 -->
<g id="edge31" class="edge">
<title>Node23&#45;&gt;Node26</title>
<path fill="none" stroke="midnightblue" d="M1899.63,-157.34C1902.45,-156.85 1905.25,-156.4 1908,-156 2139.02,-122.49 2201.32,-155.79 2432,-120 2438.62,-118.97 2445.48,-117.68 2452.3,-116.24"/>
<polygon fill="midnightblue" stroke="midnightblue" points="2453.21,-119.62 2462.21,-114.04 2451.69,-112.79 2453.21,-119.62"/>
</g>
<!-- Node27 -->
<g id="node27" class="node">
<title>Node27</title>
<g id="a_node27"><a xlink:title=" ">
<polygon fill="none" stroke="#bfbfbf" points="2605,-78.5 2605,-119.5 2751,-119.5 2751,-78.5 2605,-78.5"/>
<text text-anchor="start" x="2613" y="-107.5" font-family="Helvetica,sans-Serif" font-size="10.00">seerep&#45;msgs/boundingbox</text>
<text text-anchor="start" x="2613" y="-96.5" font-family="Helvetica,sans-Serif" font-size="10.00">_labeled_with_category</text>
<text text-anchor="middle" x="2678" y="-85.5" font-family="Helvetica,sans-Serif" font-size="10.00">_generated.h</text>
</a>
</g>
</g>
<!-- Node23&#45;&gt;Node27 -->
<g id="edge32" class="edge">
<title>Node23&#45;&gt;Node27</title>
<path fill="none" stroke="midnightblue" d="M1899.62,-157.28C1902.45,-156.81 1905.25,-156.38 1908,-156 2208.11,-114.97 2291.27,-163.41 2594.85,-120.01"/>
<polygon fill="midnightblue" stroke="midnightblue" points="2595.42,-123.47 2604.82,-118.57 2594.42,-116.54 2595.42,-123.47"/>
</g>
<!-- Node28 -->
<g id="node28" class="node">
<title>Node28</title>
<g id="a_node28"><a xlink:title=" ">
<polygon fill="none" stroke="#bfbfbf" points="2769,-84 2769,-114 2885,-114 2885,-84 2769,-84"/>
<text text-anchor="start" x="2777" y="-102" font-family="Helvetica,sans-Serif" font-size="10.00">seerep&#45;msgs/header</text>
<text text-anchor="middle" x="2827" y="-91" font-family="Helvetica,sans-Serif" font-size="10.00">_generated.h</text>
</a>
</g>
</g>
<!-- Node23&#45;&gt;Node28 -->
<g id="edge33" class="edge">
<title>Node23&#45;&gt;Node28</title>
<path fill="none" stroke="midnightblue" d="M1899.61,-157.25C1902.44,-156.78 1905.25,-156.36 1908,-156 2283.76,-106.55 2386.22,-182.69 2760,-120 2765.31,-119.11 2770.8,-117.93 2776.23,-116.58"/>
<polygon fill="midnightblue" stroke="midnightblue" points="2777.15,-119.96 2785.92,-114 2775.36,-113.19 2777.15,-119.96"/>
</g>
<!-- Node29 -->
<g id="node29" class="node">
<title>Node29</title>
<g id="a_node29"><a xlink:title=" ">
<polygon fill="none" stroke="#bfbfbf" points="2903,-78.5 2903,-119.5 3031,-119.5 3031,-78.5 2903,-78.5"/>
<text text-anchor="start" x="2911" y="-107.5" font-family="Helvetica,sans-Serif" font-size="10.00">seerep&#45;msgs/labels</text>
<text text-anchor="start" x="2911" y="-96.5" font-family="Helvetica,sans-Serif" font-size="10.00">_with_instance_with</text>
<text text-anchor="middle" x="2967" y="-85.5" font-family="Helvetica,sans-Serif" font-size="10.00">_category_generated.h</text>
</a>
</g>
</g>
<!-- Node23&#45;&gt;Node29 -->
<g id="edge34" class="edge">
<title>Node23&#45;&gt;Node29</title>
<path fill="none" stroke="midnightblue" d="M1899.61,-157.23C1902.44,-156.77 1905.25,-156.35 1908,-156 2339.64,-100.45 2458.74,-185.08 2892.7,-120"/>
<polygon fill="midnightblue" stroke="midnightblue" points="2893.33,-123.45 2902.69,-118.49 2892.28,-116.53 2893.33,-123.45"/>
</g>
<!-- Node30 -->
<g id="node30" class="node">
<title>Node30</title>
<g id="a_node30"><a xlink:title=" ">
<polygon fill="none" stroke="#bfbfbf" points="1423.5,-84 1423.5,-114 1560.5,-114 1560.5,-84 1423.5,-84"/>
<text text-anchor="start" x="1431.5" y="-102" font-family="Helvetica,sans-Serif" font-size="10.00">seerep&#45;msgs/union_map</text>
<text text-anchor="middle" x="1492" y="-91" font-family="Helvetica,sans-Serif" font-size="10.00">_entry_generated.h</text>
</a>
</g>
</g>
<!-- Node23&#45;&gt;Node30 -->
<g id="edge35" class="edge">
<title>Node23&#45;&gt;Node30</title>
<path fill="none" stroke="midnightblue" d="M1786.35,-161.28C1730.77,-151.95 1643.73,-136.57 1569,-120 1564.07,-118.91 1558.98,-117.72 1553.87,-116.48"/>
<polygon fill="midnightblue" stroke="midnightblue" points="1554.61,-113.06 1544.07,-114.06 1552.94,-119.86 1554.61,-113.06"/>
</g>
<!-- Node31 -->
<g id="node31" class="node">
<title>Node31</title>
<g id="a_node31"><a xlink:title=" ">
<polygon fill="none" stroke="#bfbfbf" points="1578.5,-89.5 1578.5,-108.5 1673.5,-108.5 1673.5,-89.5 1578.5,-89.5"/>
<text text-anchor="middle" x="1626" y="-96.5" font-family="Helvetica,sans-Serif" font-size="10.00">grpcpp/grpcpp.h</text>
</a>
</g>
</g>
<!-- Node23&#45;&gt;Node31 -->
<g id="edge36" class="edge">
<title>Node23&#45;&gt;Node31</title>
<path fill="none" stroke="midnightblue" d="M1796.35,-156.39C1764.12,-146.52 1720.33,-132.85 1682,-120 1674.51,-117.49 1666.5,-114.69 1658.95,-112.01"/>
<polygon fill="midnightblue" stroke="midnightblue" points="1659.96,-108.65 1649.36,-108.57 1657.59,-115.24 1659.96,-108.65"/>
</g>
<!-- Node32 -->
<g id="node32" class="node">
<title>Node32</title>
<g id="a_node32"><a xlink:title=" ">
<polygon fill="none" stroke="#bfbfbf" points="1691.5,-89.5 1691.5,-108.5 1790.5,-108.5 1790.5,-89.5 1691.5,-89.5"/>
<text text-anchor="middle" x="1741" y="-96.5" font-family="Helvetica,sans-Serif" font-size="10.00">flatbuffers/grpc.h</text>
</a>
</g>
</g>
<!-- Node23&#45;&gt;Node32 -->
<g id="edge37" class="edge">
<title>Node23&#45;&gt;Node32</title>
<path fill="none" stroke="midnightblue" d="M1822.36,-156.23C1804.81,-144.1 1779.72,-126.76 1762.06,-114.55"/>
<polygon fill="midnightblue" stroke="midnightblue" points="1763.79,-111.5 1753.57,-108.69 1759.81,-117.26 1763.79,-111.5"/>
</g>
<!-- Node33 -->
<g id="node33" class="node">
<title>Node33</title>
<g id="a_node33"><a xlink:title=" ">
<polygon fill="none" stroke="#bfbfbf" points="1809,-89.5 1809,-108.5 1877,-108.5 1877,-89.5 1809,-89.5"/>
<text text-anchor="middle" x="1843" y="-96.5" font-family="Helvetica,sans-Serif" font-size="10.00">filesystem</text>
</a>
</g>
</g>
<!-- Node23&#45;&gt;Node33 -->
<g id="edge39" class="edge">
<title>Node23&#45;&gt;Node33</title>
<path fill="none" stroke="midnightblue" d="M1843,-156.23C1843,-145.5 1843,-130.69 1843,-118.96"/>
<polygon fill="midnightblue" stroke="midnightblue" points="1846.5,-118.89 1843,-108.89 1839.5,-118.89 1846.5,-118.89"/>
</g>
<!-- Node34 -->
<g id="node34" class="node">
<title>Node34</title>
<g id="a_node34"><a xlink:title=" ">
<polygon fill="none" stroke="#bfbfbf" points="1895,-89.5 1895,-108.5 2033,-108.5 2033,-89.5 1895,-89.5"/>
<text text-anchor="middle" x="1964" y="-96.5" font-family="Helvetica,sans-Serif" font-size="10.00">impl/hdf5&#45;fb&#45;general.hpp</text>
</a>
</g>
</g>
<!-- Node23&#45;&gt;Node34 -->
<g id="edge44" class="edge">
<title>Node23&#45;&gt;Node34</title>
<path fill="none" stroke="midnightblue" d="M1867.2,-156.4C1888.58,-143.94 1919.57,-125.88 1940.69,-113.58"/>
<polygon fill="midnightblue" stroke="midnightblue" points="1942.48,-116.59 1949.35,-108.53 1938.95,-110.54 1942.48,-116.59"/>
</g>
</g>
</svg>
