<?xml version="1.0" encoding="UTF-8" standalone="no"?>
<!DOCTYPE svg PUBLIC "-//W3C//DTD SVG 1.1//EN"
 "http://www.w3.org/Graphics/SVG/1.1/DTD/svg11.dtd">
<!-- Generated by graphviz version 2.43.0 (0)
 -->
<!-- Title: seerep&#45;hdf5/seerep&#45;hdf5&#45;pb/include/seerep&#45;hdf5&#45;pb/hdf5&#45;pb&#45;pointcloud.h Pages: 1 -->
<svg width="2508pt" height="251pt"
 viewBox="0.00 0.00 2507.92 251.00" xmlns="http://www.w3.org/2000/svg" xmlns:xlink="http://www.w3.org/1999/xlink">
<g id="graph0" class="graph" transform="scale(1 1) rotate(0) translate(4 247)">
<title>seerep&#45;hdf5/seerep&#45;hdf5&#45;pb/include/seerep&#45;hdf5&#45;pb/hdf5&#45;pb&#45;pointcloud.h</title>
<!-- Node1 -->
<g id="node1" class="node">
<title>Node1</title>
<g id="a_node1"><a xlink:title=" ">
<polygon fill="#bfbfbf" stroke="black" points="1204.42,-201.5 1204.42,-242.5 1366.42,-242.5 1366.42,-201.5 1204.42,-201.5"/>
<text text-anchor="start" x="1212.42" y="-230.5" font-family="Helvetica,sans-Serif" font-size="10.00">seerep&#45;hdf5/seerep</text>
<text text-anchor="start" x="1212.42" y="-219.5" font-family="Helvetica,sans-Serif" font-size="10.00">&#45;hdf5&#45;pb/include/seerep</text>
<text text-anchor="middle" x="1285.42" y="-208.5" font-family="Helvetica,sans-Serif" font-size="10.00">&#45;hdf5&#45;pb/hdf5&#45;pb&#45;pointcloud.h</text>
</a>
</g>
</g>
<!-- Node2 -->
<g id="node2" class="node">
<title>Node2</title>
<g id="a_node2"><a xlink:title=" ">
<polygon fill="none" stroke="#bfbfbf" points="193.42,-6 193.42,-25 303.42,-25 303.42,-6 193.42,-6"/>
<text text-anchor="middle" x="248.42" y="-13" font-family="Helvetica,sans-Serif" font-size="10.00">highfive/H5File.hpp</text>
</a>
</g>
</g>
<!-- Node1&#45;&gt;Node2 -->
<g id="edge1" class="edge">
<title>Node1&#45;&gt;Node2</title>
<path fill="none" stroke="midnightblue" d="M1204.12,-219.15C943.2,-212.36 139.57,-184.53 65.42,-98 27.75,-54.04 116.44,-32.79 183.09,-23.3"/>
<polygon fill="midnightblue" stroke="midnightblue" points="183.72,-26.75 193.16,-21.93 182.78,-19.81 183.72,-26.75"/>
</g>
<!-- Node3 -->
<g id="node3" class="node">
<title>Node3</title>
<g id="a_node3"><a xlink:href="hdf5-core-point-cloud_8h.html" target="_top" xlink:title=" ">
<polygon fill="none" stroke="black" points="1222.92,-134.5 1222.92,-164.5 1347.92,-164.5 1347.92,-134.5 1222.92,-134.5"/>
<text text-anchor="start" x="1230.92" y="-152.5" font-family="Helvetica,sans-Serif" font-size="10.00">seerep&#45;hdf5&#45;core/hdf5</text>
<text text-anchor="middle" x="1285.42" y="-141.5" font-family="Helvetica,sans-Serif" font-size="10.00">&#45;core&#45;point&#45;cloud.h</text>
</a>
</g>
</g>
<!-- Node1&#45;&gt;Node3 -->
<g id="edge2" class="edge">
<title>Node1&#45;&gt;Node3</title>
<path fill="none" stroke="midnightblue" d="M1285.42,-201.36C1285.42,-193.23 1285.42,-183.7 1285.42,-175.11"/>
<polygon fill="midnightblue" stroke="midnightblue" points="1288.92,-174.89 1285.42,-164.89 1281.92,-174.89 1288.92,-174.89"/>
</g>
<!-- Node7 -->
<g id="node7" class="node">
<title>Node7</title>
<g id="a_node7"><a xlink:title=" ">
<polygon fill="none" stroke="#bfbfbf" points="1291.42,-6 1291.42,-25 1347.42,-25 1347.42,-6 1291.42,-6"/>
<text text-anchor="middle" x="1319.42" y="-13" font-family="Helvetica,sans-Serif" font-size="10.00">optional</text>
</a>
</g>
</g>
<!-- Node1&#45;&gt;Node7 -->
<g id="edge45" class="edge">
<title>Node1&#45;&gt;Node7</title>
<path fill="none" stroke="midnightblue" d="M1366.57,-218.29C1526.18,-211.06 1871.77,-185.46 1944.42,-98 1953.22,-87.4 1953.76,-77.13 1944.42,-67 1924.43,-45.33 1490.71,-24.17 1357.79,-18.18"/>
<polygon fill="midnightblue" stroke="midnightblue" points="1357.82,-14.68 1347.67,-17.72 1357.5,-21.67 1357.82,-14.68"/>
</g>
<!-- Node10 -->
<g id="node10" class="node">
<title>Node10</title>
<g id="a_node10"><a xlink:title=" ">
<polygon fill="none" stroke="#bfbfbf" points="984.92,-6 984.92,-25 1097.92,-25 1097.92,-6 984.92,-6"/>
<text text-anchor="middle" x="1041.42" y="-13" font-family="Helvetica,sans-Serif" font-size="10.00">boost/geometry.hpp</text>
</a>
</g>
</g>
<!-- Node1&#45;&gt;Node10 -->
<g id="edge44" class="edge">
<title>Node1&#45;&gt;Node10</title>
<path fill="none" stroke="midnightblue" d="M1204.14,-202.05C1149.41,-184.7 1080.96,-153.07 1045.42,-98 1033.32,-79.26 1034.59,-52.75 1037.36,-35.11"/>
<polygon fill="midnightblue" stroke="midnightblue" points="1040.82,-35.67 1039.22,-25.2 1033.94,-34.38 1040.82,-35.67"/>
</g>
<!-- Node19 -->
<g id="node19" class="node">
<title>Node19</title>
<g id="a_node19"><a xlink:href="hdf5-pb-general_8h.html" target="_top" xlink:title=" ">
<polygon fill="none" stroke="black" points="506.42,-134.5 506.42,-164.5 622.42,-164.5 622.42,-134.5 506.42,-134.5"/>
<text text-anchor="start" x="514.42" y="-152.5" font-family="Helvetica,sans-Serif" font-size="10.00">seerep&#45;hdf5&#45;pb/hdf5</text>
<text text-anchor="middle" x="564.42" y="-141.5" font-family="Helvetica,sans-Serif" font-size="10.00">&#45;pb&#45;general.h</text>
</a>
</g>
</g>
<!-- Node1&#45;&gt;Node19 -->
<g id="edge26" class="edge">
<title>Node1&#45;&gt;Node19</title>
<path fill="none" stroke="midnightblue" d="M1204.11,-213.05C1060.9,-199.05 766.22,-170.23 632.77,-157.18"/>
<polygon fill="midnightblue" stroke="midnightblue" points="632.96,-153.69 622.67,-156.2 632.28,-160.65 632.96,-153.69"/>
</g>
<!-- Node24 -->
<g id="node24" class="node">
<title>Node24</title>
<g id="a_node24"><a xlink:href="hdf5-pb-point-cloud2-iterator_8h.html" target="_top" xlink:title=" ">
<polygon fill="none" stroke="black" points="2174.92,-134.5 2174.92,-164.5 2319.92,-164.5 2319.92,-134.5 2174.92,-134.5"/>
<text text-anchor="start" x="2182.92" y="-152.5" font-family="Helvetica,sans-Serif" font-size="10.00">seerep&#45;hdf5&#45;pb/hdf5</text>
<text text-anchor="middle" x="2247.42" y="-141.5" font-family="Helvetica,sans-Serif" font-size="10.00">&#45;pb&#45;point&#45;cloud2&#45;iterator.h</text>
</a>
</g>
</g>
<!-- Node1&#45;&gt;Node24 -->
<g id="edge37" class="edge">
<title>Node1&#45;&gt;Node24</title>
<path fill="none" stroke="midnightblue" d="M1366.55,-215.82C1510.96,-206.48 1822.08,-185.86 2084.42,-165 2110.55,-162.92 2139.01,-160.46 2164.73,-158.16"/>
<polygon fill="midnightblue" stroke="midnightblue" points="2165.17,-161.63 2174.82,-157.25 2164.55,-154.66 2165.17,-161.63"/>
</g>
<!-- Node25 -->
<g id="node25" class="node">
<title>Node25</title>
<g id="a_node25"><a xlink:title=" ">
<polygon fill="none" stroke="#bfbfbf" points="2030.92,-67.5 2030.92,-97.5 2169.92,-97.5 2169.92,-67.5 2030.92,-67.5"/>
<text text-anchor="start" x="2038.92" y="-85.5" font-family="Helvetica,sans-Serif" font-size="10.00">seerep&#45;msgs/point_cloud</text>
<text text-anchor="middle" x="2100.42" y="-74.5" font-family="Helvetica,sans-Serif" font-size="10.00">_2.pb.h</text>
</a>
</g>
</g>
<!-- Node1&#45;&gt;Node25 -->
<g id="edge43" class="edge">
<title>Node1&#45;&gt;Node25</title>
<path fill="none" stroke="midnightblue" d="M1366.42,-221.66C1531.79,-221.89 1902.26,-216.44 2016.42,-165 2044.98,-152.13 2069.61,-125.2 2084.68,-105.81"/>
<polygon fill="midnightblue" stroke="midnightblue" points="2087.51,-107.87 2090.72,-97.77 2081.92,-103.66 2087.51,-107.87"/>
</g>
<!-- Node3&#45;&gt;Node2 -->
<g id="edge3" class="edge">
<title>Node3&#45;&gt;Node2</title>
<path fill="none" stroke="midnightblue" d="M1222.69,-146.86C1103.89,-143.03 850.78,-131.13 770.42,-98 750.27,-89.69 752.62,-75.18 732.42,-67 558.77,3.34 497.55,-59.77 312.42,-31 305.76,-29.97 298.77,-28.64 291.94,-27.2"/>
<polygon fill="midnightblue" stroke="midnightblue" points="292.65,-23.77 282.13,-25.05 291.15,-30.61 292.65,-23.77"/>
</g>
<!-- Node4 -->
<g id="node4" class="node">
<title>Node4</title>
<g id="a_node4"><a xlink:href="hdf5-core-datatype-interface_8h.html" target="_top" xlink:title=" ">
<polygon fill="none" stroke="black" points="1313.92,-67.5 1313.92,-97.5 1458.92,-97.5 1458.92,-67.5 1313.92,-67.5"/>
<text text-anchor="start" x="1321.92" y="-85.5" font-family="Helvetica,sans-Serif" font-size="10.00">seerep&#45;hdf5&#45;core/hdf5</text>
<text text-anchor="middle" x="1386.42" y="-74.5" font-family="Helvetica,sans-Serif" font-size="10.00">&#45;core&#45;datatype&#45;interface.h</text>
</a>
</g>
</g>
<!-- Node3&#45;&gt;Node4 -->
<g id="edge4" class="edge">
<title>Node3&#45;&gt;Node4</title>
<path fill="none" stroke="midnightblue" d="M1307.33,-134.4C1321.5,-125.28 1340.13,-113.29 1355.75,-103.24"/>
<polygon fill="midnightblue" stroke="midnightblue" points="1358.03,-105.93 1364.55,-97.58 1354.24,-100.05 1358.03,-105.93"/>
</g>
<!-- Node5 -->
<g id="node5" class="node">
<title>Node5</title>
<g id="a_node5"><a xlink:title=" ">
<polygon fill="none" stroke="#bfbfbf" points="1153.92,-0.5 1153.92,-30.5 1272.92,-30.5 1272.92,-0.5 1153.92,-0.5"/>
<text text-anchor="start" x="1161.92" y="-18.5" font-family="Helvetica,sans-Serif" font-size="10.00">seerep&#45;msgs/dataset</text>
<text text-anchor="middle" x="1213.42" y="-7.5" font-family="Helvetica,sans-Serif" font-size="10.00">&#45;indexable.h</text>
</a>
</g>
</g>
<!-- Node3&#45;&gt;Node5 -->
<g id="edge18" class="edge">
<title>Node3&#45;&gt;Node5</title>
<path fill="none" stroke="midnightblue" d="M1277.71,-134.37C1265.32,-111.65 1240.83,-66.75 1225.91,-39.4"/>
<polygon fill="midnightblue" stroke="midnightblue" points="1228.93,-37.63 1221.07,-30.52 1222.78,-40.98 1228.93,-37.63"/>
</g>
<!-- Node6 -->
<g id="node6" class="node">
<title>Node6</title>
<g id="a_node6"><a xlink:title=" ">
<polygon fill="none" stroke="#bfbfbf" points="1653.92,-6 1653.92,-25 1766.92,-25 1766.92,-6 1653.92,-6"/>
<text text-anchor="middle" x="1710.42" y="-13" font-family="Helvetica,sans-Serif" font-size="10.00">boost/uuid/uuid.hpp</text>
</a>
</g>
</g>
<!-- Node3&#45;&gt;Node6 -->
<g id="edge23" class="edge">
<title>Node3&#45;&gt;Node6</title>
<path fill="none" stroke="midnightblue" d="M1348.13,-148.43C1504.94,-147.59 1904.41,-141.19 1944.42,-98 1996.37,-41.91 1863.43,-24.42 1777.26,-18.97"/>
<polygon fill="midnightblue" stroke="midnightblue" points="1777.45,-15.47 1767.26,-18.38 1777.03,-22.46 1777.45,-15.47"/>
</g>
<!-- Node3&#45;&gt;Node7 -->
<g id="edge20" class="edge">
<title>Node3&#45;&gt;Node7</title>
<path fill="none" stroke="midnightblue" d="M1288.46,-134.3C1292.01,-117.99 1298.21,-90.45 1304.42,-67 1307.28,-56.21 1310.82,-44.23 1313.74,-34.64"/>
<polygon fill="midnightblue" stroke="midnightblue" points="1317.1,-35.62 1316.71,-25.03 1310.42,-33.55 1317.1,-35.62"/>
</g>
<!-- Node8 -->
<g id="node8" class="node">
<title>Node8</title>
<g id="a_node8"><a xlink:href="hdf5-core-general_8h.html" target="_top" xlink:title=" ">
<polygon fill="none" stroke="black" points="779.92,-67.5 779.92,-97.5 904.92,-97.5 904.92,-67.5 779.92,-67.5"/>
<text text-anchor="start" x="787.92" y="-85.5" font-family="Helvetica,sans-Serif" font-size="10.00">seerep&#45;hdf5&#45;core/hdf5</text>
<text text-anchor="middle" x="842.42" y="-74.5" font-family="Helvetica,sans-Serif" font-size="10.00">&#45;core&#45;general.h</text>
</a>
</g>
</g>
<!-- Node3&#45;&gt;Node8 -->
<g id="edge8" class="edge">
<title>Node3&#45;&gt;Node8</title>
<path fill="none" stroke="midnightblue" d="M1222.89,-139.32C1141.79,-127.43 1000.59,-106.71 914.9,-94.14"/>
<polygon fill="midnightblue" stroke="midnightblue" points="915.39,-90.67 904.99,-92.68 914.37,-97.6 915.39,-90.67"/>
</g>
<!-- Node3&#45;&gt;Node10 -->
<g id="edge19" class="edge">
<title>Node3&#45;&gt;Node10</title>
<path fill="none" stroke="midnightblue" d="M1222.82,-141.09C1166.37,-133.19 1088.87,-118.91 1066.42,-98 1049.02,-81.79 1043.61,-53.83 1042,-35.25"/>
<polygon fill="midnightblue" stroke="midnightblue" points="1045.48,-34.86 1041.41,-25.08 1038.49,-35.27 1045.48,-34.86"/>
</g>
<!-- Node15 -->
<g id="node15" class="node">
<title>Node15</title>
<g id="a_node15"><a xlink:title=" ">
<polygon fill="none" stroke="#bfbfbf" points="1075.92,-73 1075.92,-92 1218.92,-92 1218.92,-73 1075.92,-73"/>
<text text-anchor="middle" x="1147.42" y="-80" font-family="Helvetica,sans-Serif" font-size="10.00">boost/functional/hash.hpp</text>
</a>
</g>
</g>
<!-- Node3&#45;&gt;Node15 -->
<g id="edge21" class="edge">
<title>Node3&#45;&gt;Node15</title>
<path fill="none" stroke="midnightblue" d="M1255.47,-134.4C1231.47,-123.09 1198.08,-107.36 1174.79,-96.39"/>
<polygon fill="midnightblue" stroke="midnightblue" points="1176.02,-93.1 1165.48,-92.01 1173.03,-99.43 1176.02,-93.1"/>
</g>
<!-- Node16 -->
<g id="node16" class="node">
<title>Node16</title>
<g id="a_node16"><a xlink:title=" ">
<polygon fill="none" stroke="#bfbfbf" points="1476.92,-73 1476.92,-92 1601.92,-92 1601.92,-73 1476.92,-73"/>
<text text-anchor="middle" x="1539.42" y="-80" font-family="Helvetica,sans-Serif" font-size="10.00">boost/lexical_cast.hpp</text>
</a>
</g>
</g>
<!-- Node3&#45;&gt;Node16 -->
<g id="edge22" class="edge">
<title>Node3&#45;&gt;Node16</title>
<path fill="none" stroke="midnightblue" d="M1340.22,-134.48C1386.93,-122.52 1453.16,-105.57 1496.21,-94.56"/>
<polygon fill="midnightblue" stroke="midnightblue" points="1497.27,-97.9 1506.09,-92.03 1495.54,-91.12 1497.27,-97.9"/>
</g>
<!-- Node17 -->
<g id="node17" class="node">
<title>Node17</title>
<g id="a_node17"><a xlink:title=" ">
<polygon fill="none" stroke="#bfbfbf" points="1620.42,-73 1620.42,-92 1790.42,-92 1790.42,-73 1620.42,-73"/>
<text text-anchor="middle" x="1705.42" y="-80" font-family="Helvetica,sans-Serif" font-size="10.00">boost/uuid/uuid_generators.hpp</text>
</a>
</g>
</g>
<!-- Node3&#45;&gt;Node17 -->
<g id="edge24" class="edge">
<title>Node3&#45;&gt;Node17</title>
<path fill="none" stroke="midnightblue" d="M1348.3,-138.77C1426.97,-126.59 1561.01,-105.85 1640.59,-93.53"/>
<polygon fill="midnightblue" stroke="midnightblue" points="1641.14,-96.99 1650.49,-92 1640.07,-90.07 1641.14,-96.99"/>
</g>
<!-- Node18 -->
<g id="node18" class="node">
<title>Node18</title>
<g id="a_node18"><a xlink:title=" ">
<polygon fill="none" stroke="#bfbfbf" points="1808.92,-73 1808.92,-92 1935.92,-92 1935.92,-73 1808.92,-73"/>
<text text-anchor="middle" x="1872.42" y="-80" font-family="Helvetica,sans-Serif" font-size="10.00">boost/uuid/uuid_io.hpp</text>
</a>
</g>
</g>
<!-- Node3&#45;&gt;Node18 -->
<g id="edge25" class="edge">
<title>Node3&#45;&gt;Node18</title>
<path fill="none" stroke="midnightblue" d="M1348.17,-144.33C1445.24,-137.43 1637.54,-121.97 1799.42,-98 1807.15,-96.86 1815.3,-95.44 1823.24,-93.95"/>
<polygon fill="midnightblue" stroke="midnightblue" points="1823.99,-97.37 1833.14,-92.04 1822.66,-90.5 1823.99,-97.37"/>
</g>
<!-- Node4&#45;&gt;Node5 -->
<g id="edge5" class="edge">
<title>Node4&#45;&gt;Node5</title>
<path fill="none" stroke="midnightblue" d="M1348.88,-67.4C1322.92,-57.64 1288.19,-44.59 1260.4,-34.15"/>
<polygon fill="midnightblue" stroke="midnightblue" points="1261.48,-30.82 1250.88,-30.58 1259.01,-37.37 1261.48,-30.82"/>
</g>
<!-- Node4&#45;&gt;Node6 -->
<g id="edge6" class="edge">
<title>Node4&#45;&gt;Node6</title>
<path fill="none" stroke="midnightblue" d="M1456.32,-67.48C1516.92,-55.32 1603.25,-38 1658.05,-27.01"/>
<polygon fill="midnightblue" stroke="midnightblue" points="1658.79,-30.43 1667.91,-25.03 1657.41,-23.56 1658.79,-30.43"/>
</g>
<!-- Node4&#45;&gt;Node7 -->
<g id="edge7" class="edge">
<title>Node4&#45;&gt;Node7</title>
<path fill="none" stroke="midnightblue" d="M1371.88,-67.4C1361.23,-57.06 1346.76,-43.02 1335.71,-32.31"/>
<polygon fill="midnightblue" stroke="midnightblue" points="1337.99,-29.65 1328.38,-25.19 1333.12,-34.67 1337.99,-29.65"/>
</g>
<!-- Node8&#45;&gt;Node2 -->
<g id="edge9" class="edge">
<title>Node8&#45;&gt;Node2</title>
<path fill="none" stroke="midnightblue" d="M779.89,-69.15C775.01,-68.36 770.14,-67.63 765.42,-67 565.23,-40.27 512.09,-61.39 312.42,-31 305.68,-29.97 298.6,-28.64 291.71,-27.19"/>
<polygon fill="midnightblue" stroke="midnightblue" points="292.31,-23.74 281.79,-25.01 290.81,-30.58 292.31,-23.74"/>
</g>
<!-- Node8&#45;&gt;Node5 -->
<g id="edge11" class="edge">
<title>Node8&#45;&gt;Node5</title>
<path fill="none" stroke="midnightblue" d="M904.93,-70.55C971.07,-58.96 1075.16,-40.72 1143.85,-28.69"/>
<polygon fill="midnightblue" stroke="midnightblue" points="1144.47,-32.13 1153.72,-26.96 1143.27,-25.24 1144.47,-32.13"/>
</g>
<!-- Node8&#45;&gt;Node7 -->
<g id="edge14" class="edge">
<title>Node8&#45;&gt;Node7</title>
<path fill="none" stroke="midnightblue" d="M905.18,-75.16C1017.79,-63.65 1245.74,-39.71 1281.42,-31 1284.25,-30.31 1287.15,-29.46 1290.03,-28.53"/>
<polygon fill="midnightblue" stroke="midnightblue" points="1291.35,-31.78 1299.6,-25.13 1289.01,-25.18 1291.35,-31.78"/>
</g>
<!-- Node9 -->
<g id="node9" class="node">
<title>Node9</title>
<g id="a_node9"><a xlink:title=" ">
<polygon fill="none" stroke="#bfbfbf" points="784.42,-6 784.42,-25 900.42,-25 900.42,-6 784.42,-6"/>
<text text-anchor="middle" x="842.42" y="-13" font-family="Helvetica,sans-Serif" font-size="10.00">seerep&#45;msgs/aabb.h</text>
</a>
</g>
</g>
<!-- Node8&#45;&gt;Node9 -->
<g id="edge10" class="edge">
<title>Node8&#45;&gt;Node9</title>
<path fill="none" stroke="midnightblue" d="M842.42,-67.4C842.42,-58.06 842.42,-45.71 842.42,-35.52"/>
<polygon fill="midnightblue" stroke="midnightblue" points="845.92,-35.19 842.42,-25.19 838.92,-35.19 845.92,-35.19"/>
</g>
<!-- Node8&#45;&gt;Node10 -->
<g id="edge12" class="edge">
<title>Node8&#45;&gt;Node10</title>
<path fill="none" stroke="midnightblue" d="M885.6,-67.4C921.44,-55.69 971.83,-39.23 1005.5,-28.23"/>
<polygon fill="midnightblue" stroke="midnightblue" points="1006.95,-31.44 1015.37,-25.01 1004.78,-24.78 1006.95,-31.44"/>
</g>
<!-- Node11 -->
<g id="node11" class="node">
<title>Node11</title>
<g id="a_node11"><a xlink:title=" ">
<polygon fill="none" stroke="#bfbfbf" points="918.42,-6 918.42,-25 966.42,-25 966.42,-6 918.42,-6"/>
<text text-anchor="middle" x="942.42" y="-13" font-family="Helvetica,sans-Serif" font-size="10.00">mutex</text>
</a>
</g>
</g>
<!-- Node8&#45;&gt;Node11 -->
<g id="edge13" class="edge">
<title>Node8&#45;&gt;Node11</title>
<path fill="none" stroke="midnightblue" d="M864.12,-67.4C880.89,-56.5 903.99,-41.48 920.75,-30.58"/>
<polygon fill="midnightblue" stroke="midnightblue" points="922.85,-33.39 929.33,-25.01 919.04,-27.52 922.85,-33.39"/>
</g>
<!-- Node12 -->
<g id="node12" class="node">
<title>Node12</title>
<g id="a_node12"><a xlink:title=" ">
<polygon fill="none" stroke="#bfbfbf" points="321.92,-0.5 321.92,-30.5 466.92,-30.5 466.92,-0.5 321.92,-0.5"/>
<text text-anchor="start" x="329.92" y="-18.5" font-family="Helvetica,sans-Serif" font-size="10.00">boost/log/sources/severity</text>
<text text-anchor="middle" x="394.42" y="-7.5" font-family="Helvetica,sans-Serif" font-size="10.00">_logger.hpp</text>
</a>
</g>
</g>
<!-- Node8&#45;&gt;Node12 -->
<g id="edge15" class="edge">
<title>Node8&#45;&gt;Node12</title>
<path fill="none" stroke="midnightblue" d="M779.86,-69.38C774.98,-68.54 770.12,-67.74 765.42,-67 640.78,-47.52 606.15,-50.12 477.51,-31.11"/>
<polygon fill="midnightblue" stroke="midnightblue" points="477.67,-27.6 467.26,-29.58 476.64,-34.52 477.67,-27.6"/>
</g>
<!-- Node13 -->
<g id="node13" class="node">
<title>Node13</title>
<g id="a_node13"><a xlink:title=" ">
<polygon fill="none" stroke="#bfbfbf" points="485.42,-6 485.42,-25 599.42,-25 599.42,-6 485.42,-6"/>
<text text-anchor="middle" x="542.42" y="-13" font-family="Helvetica,sans-Serif" font-size="10.00">boost/log/trivial.hpp</text>
</a>
</g>
</g>
<!-- Node8&#45;&gt;Node13 -->
<g id="edge16" class="edge">
<title>Node8&#45;&gt;Node13</title>
<path fill="none" stroke="midnightblue" d="M779.83,-68.06C732.7,-57.92 666.49,-43.65 608.42,-31 602.76,-29.77 596.84,-28.47 590.95,-27.18"/>
<polygon fill="midnightblue" stroke="midnightblue" points="591.67,-23.76 581.15,-25.03 590.17,-30.6 591.67,-23.76"/>
</g>
<!-- Node14 -->
<g id="node14" class="node">
<title>Node14</title>
<g id="a_node14"><a xlink:title=" ">
<polygon fill="none" stroke="#bfbfbf" points="617.92,-6 617.92,-25 766.92,-25 766.92,-6 617.92,-6"/>
<text text-anchor="middle" x="692.42" y="-13" font-family="Helvetica,sans-Serif" font-size="10.00">impl/hdf5&#45;core&#45;general.hpp</text>
</a>
</g>
</g>
<!-- Node8&#45;&gt;Node14 -->
<g id="edge17" class="edge">
<title>Node8&#45;&gt;Node14</title>
<path fill="none" stroke="midnightblue" d="M809.87,-67.4C783.55,-55.99 746.83,-40.08 721.49,-29.1"/>
<polygon fill="midnightblue" stroke="midnightblue" points="722.62,-25.77 712.05,-25.01 719.83,-32.19 722.62,-25.77"/>
</g>
<!-- Node19&#45;&gt;Node2 -->
<g id="edge27" class="edge">
<title>Node19&#45;&gt;Node2</title>
<path fill="none" stroke="midnightblue" d="M506.22,-142.17C440.58,-134.17 338.78,-118.87 306.42,-98 282.41,-82.51 265.3,-53.27 256.14,-34.35"/>
<polygon fill="midnightblue" stroke="midnightblue" points="259.23,-32.68 251.88,-25.05 252.87,-35.6 259.23,-32.68"/>
</g>
<!-- Node19&#45;&gt;Node7 -->
<g id="edge33" class="edge">
<title>Node19&#45;&gt;Node7</title>
<path fill="none" stroke="midnightblue" d="M622.52,-143.23C698.23,-135.83 834.5,-120.66 949.42,-98 1002.2,-87.59 1013.83,-78.34 1066.42,-67 1161.13,-46.57 1187.92,-56.4 1281.42,-31 1284.07,-30.28 1286.8,-29.44 1289.52,-28.54"/>
<polygon fill="midnightblue" stroke="midnightblue" points="1290.92,-31.75 1299.15,-25.08 1288.56,-25.16 1290.92,-31.75"/>
</g>
<!-- Node19&#45;&gt;Node8 -->
<g id="edge28" class="edge">
<title>Node19&#45;&gt;Node8</title>
<path fill="none" stroke="midnightblue" d="M622.7,-134.87C666.31,-124.68 726.14,-110.69 772.35,-99.88"/>
<polygon fill="midnightblue" stroke="midnightblue" points="773.36,-103.24 782.3,-97.56 771.76,-96.43 773.36,-103.24"/>
</g>
<!-- Node19&#45;&gt;Node10 -->
<g id="edge31" class="edge">
<title>Node19&#45;&gt;Node10</title>
<path fill="none" stroke="midnightblue" d="M622.44,-148.29C693.47,-146.21 816.29,-136.65 913.42,-98 935.64,-89.16 937.38,-80.06 957.42,-67 977.39,-53.99 1000.65,-40.1 1017.62,-30.19"/>
<polygon fill="midnightblue" stroke="midnightblue" points="1019.46,-33.17 1026.35,-25.12 1015.94,-27.11 1019.46,-33.17"/>
</g>
<!-- Node19&#45;&gt;Node12 -->
<g id="edge34" class="edge">
<title>Node19&#45;&gt;Node12</title>
<path fill="none" stroke="midnightblue" d="M506.09,-146.42C387.47,-141.6 127.07,-127.71 100.42,-98 -5.18,19.71 -127.54,-105.65 311.4,-31.15"/>
<polygon fill="midnightblue" stroke="midnightblue" points="312.28,-34.55 321.54,-29.41 311.1,-27.65 312.28,-34.55"/>
</g>
<!-- Node19&#45;&gt;Node13 -->
<g id="edge35" class="edge">
<title>Node19&#45;&gt;Node13</title>
<path fill="none" stroke="midnightblue" d="M506.01,-146.27C389.34,-141.21 136.37,-126.99 110.42,-98 101.23,-87.73 101.17,-77.21 110.42,-67 165.15,-6.61 394.9,-43.64 475.42,-31 482.29,-29.92 489.52,-28.58 496.58,-27.15"/>
<polygon fill="midnightblue" stroke="midnightblue" points="497.68,-30.5 506.75,-25.01 496.24,-23.64 497.68,-30.5"/>
</g>
<!-- Node20 -->
<g id="node20" class="node">
<title>Node20</title>
<g id="a_node20"><a xlink:title=" ">
<polygon fill="none" stroke="#bfbfbf" points="315.42,-67.5 315.42,-97.5 473.42,-97.5 473.42,-67.5 315.42,-67.5"/>
<text text-anchor="start" x="323.42" y="-85.5" font-family="Helvetica,sans-Serif" font-size="10.00">seerep&#45;msgs/boundingbox2d</text>
<text text-anchor="middle" x="394.42" y="-74.5" font-family="Helvetica,sans-Serif" font-size="10.00">_labeled.pb.h</text>
</a>
</g>
</g>
<!-- Node19&#45;&gt;Node20 -->
<g id="edge29" class="edge">
<title>Node19&#45;&gt;Node20</title>
<path fill="none" stroke="midnightblue" d="M527.53,-134.4C502.02,-124.64 467.9,-111.59 440.58,-101.15"/>
<polygon fill="midnightblue" stroke="midnightblue" points="441.82,-97.88 431.23,-97.58 439.32,-104.42 441.82,-97.88"/>
</g>
<!-- Node21 -->
<g id="node21" class="node">
<title>Node21</title>
<g id="a_node21"><a xlink:title=" ">
<polygon fill="none" stroke="#bfbfbf" points="491.42,-67.5 491.42,-97.5 637.42,-97.5 637.42,-67.5 491.42,-67.5"/>
<text text-anchor="start" x="499.42" y="-85.5" font-family="Helvetica,sans-Serif" font-size="10.00">seerep&#45;msgs/boundingbox</text>
<text text-anchor="middle" x="564.42" y="-74.5" font-family="Helvetica,sans-Serif" font-size="10.00">_labeled.pb.h</text>
</a>
</g>
</g>
<!-- Node19&#45;&gt;Node21 -->
<g id="edge30" class="edge">
<title>Node19&#45;&gt;Node21</title>
<path fill="none" stroke="midnightblue" d="M564.42,-134.4C564.42,-126.64 564.42,-116.81 564.42,-107.86"/>
<polygon fill="midnightblue" stroke="midnightblue" points="567.92,-107.58 564.42,-97.58 560.92,-107.58 567.92,-107.58"/>
</g>
<!-- Node22 -->
<g id="node22" class="node">
<title>Node22</title>
<g id="a_node22"><a xlink:title=" ">
<polygon fill="none" stroke="#bfbfbf" points="655.42,-73 655.42,-92 723.42,-92 723.42,-73 655.42,-73"/>
<text text-anchor="middle" x="689.42" y="-80" font-family="Helvetica,sans-Serif" font-size="10.00">filesystem</text>
</a>
</g>
</g>
<!-- Node19&#45;&gt;Node22 -->
<g id="edge32" class="edge">
<title>Node19&#45;&gt;Node22</title>
<path fill="none" stroke="midnightblue" d="M591.54,-134.4C613.09,-123.19 642.99,-107.64 664.06,-96.69"/>
<polygon fill="midnightblue" stroke="midnightblue" points="665.8,-99.73 673.06,-92.01 662.57,-93.52 665.8,-99.73"/>
</g>
<!-- Node23 -->
<g id="node23" class="node">
<title>Node23</title>
<g id="a_node23"><a xlink:title=" ">
<polygon fill="none" stroke="#bfbfbf" points="119.42,-73 119.42,-92 259.42,-92 259.42,-73 119.42,-73"/>
<text text-anchor="middle" x="189.42" y="-80" font-family="Helvetica,sans-Serif" font-size="10.00">impl/hdf5&#45;pb&#45;general.hpp</text>
</a>
</g>
</g>
<!-- Node19&#45;&gt;Node23 -->
<g id="edge36" class="edge">
<title>Node19&#45;&gt;Node23</title>
<path fill="none" stroke="midnightblue" d="M506.24,-138.42C436.14,-126.26 319.02,-105.96 248.52,-93.74"/>
<polygon fill="midnightblue" stroke="midnightblue" points="248.91,-90.26 238.46,-92 247.72,-97.16 248.91,-90.26"/>
</g>
<!-- Node24&#45;&gt;Node25 -->
<g id="edge38" class="edge">
<title>Node24&#45;&gt;Node25</title>
<path fill="none" stroke="midnightblue" d="M2215.52,-134.4C2193.85,-124.81 2164.98,-112.05 2141.58,-101.7"/>
<polygon fill="midnightblue" stroke="midnightblue" points="2142.81,-98.42 2132.25,-97.58 2139.98,-104.82 2142.81,-98.42"/>
</g>
<!-- Node26 -->
<g id="node26" class="node">
<title>Node26</title>
<g id="a_node26"><a xlink:title=" ">
<polygon fill="none" stroke="#bfbfbf" points="2187.92,-73 2187.92,-92 2240.92,-92 2240.92,-73 2187.92,-73"/>
<text text-anchor="middle" x="2214.42" y="-80" font-family="Helvetica,sans-Serif" font-size="10.00">cstdarg</text>
</a>
</g>
</g>
<!-- Node24&#45;&gt;Node26 -->
<g id="edge39" class="edge">
<title>Node24&#45;&gt;Node26</title>
<path fill="none" stroke="midnightblue" d="M2240.26,-134.4C2235.32,-124.66 2228.71,-111.65 2223.41,-101.21"/>
<polygon fill="midnightblue" stroke="midnightblue" points="2226.48,-99.53 2218.83,-92.19 2220.24,-102.7 2226.48,-99.53"/>
</g>
<!-- Node27 -->
<g id="node27" class="node">
<title>Node27</title>
<g id="a_node27"><a xlink:title=" ">
<polygon fill="none" stroke="#bfbfbf" points="2259.42,-73 2259.42,-92 2303.42,-92 2303.42,-73 2259.42,-73"/>
<text text-anchor="middle" x="2281.42" y="-80" font-family="Helvetica,sans-Serif" font-size="10.00">string</text>
</a>
</g>
</g>
<!-- Node24&#45;&gt;Node27 -->
<g id="edge40" class="edge">
<title>Node24&#45;&gt;Node27</title>
<path fill="none" stroke="midnightblue" d="M2254.8,-134.4C2259.89,-124.66 2266.7,-111.65 2272.15,-101.21"/>
<polygon fill="midnightblue" stroke="midnightblue" points="2275.34,-102.68 2276.87,-92.19 2269.13,-99.43 2275.34,-102.68"/>
</g>
<!-- Node28 -->
<g id="node28" class="node">
<title>Node28</title>
<g id="a_node28"><a xlink:title=" ">
<polygon fill="none" stroke="#bfbfbf" points="2321.92,-73 2321.92,-92 2368.92,-92 2368.92,-73 2321.92,-73"/>
<text text-anchor="middle" x="2345.42" y="-80" font-family="Helvetica,sans-Serif" font-size="10.00">vector</text>
</a>
</g>
</g>
<!-- Node24&#45;&gt;Node28 -->
<g id="edge41" class="edge">
<title>Node24&#45;&gt;Node28</title>
<path fill="none" stroke="midnightblue" d="M2268.68,-134.4C2285.12,-123.5 2307.76,-108.48 2324.18,-97.58"/>
<polygon fill="midnightblue" stroke="midnightblue" points="2326.19,-100.45 2332.59,-92.01 2322.32,-94.62 2326.19,-100.45"/>
</g>
<!-- Node29 -->
<g id="node29" class="node">
<title>Node29</title>
<g id="a_node29"><a xlink:title=" ">
<polygon fill="none" stroke="#bfbfbf" points="2386.92,-67.5 2386.92,-97.5 2499.92,-97.5 2499.92,-67.5 2386.92,-67.5"/>
<text text-anchor="start" x="2394.92" y="-85.5" font-family="Helvetica,sans-Serif" font-size="10.00">impl/hdf5&#45;pb&#45;point</text>
<text text-anchor="middle" x="2443.42" y="-74.5" font-family="Helvetica,sans-Serif" font-size="10.00">&#45;cloud2&#45;iterator.hpp</text>
</a>
</g>
</g>
<!-- Node24&#45;&gt;Node29 -->
<g id="edge42" class="edge">
<title>Node24&#45;&gt;Node29</title>
<path fill="none" stroke="midnightblue" d="M2289.95,-134.4C2319.74,-124.52 2359.73,-111.25 2391.42,-100.74"/>
<polygon fill="midnightblue" stroke="midnightblue" points="2392.58,-104.05 2400.97,-97.58 2390.38,-97.4 2392.58,-104.05"/>
</g>
</g>
</svg>
