<?xml version="1.0" encoding="UTF-8" standalone="no"?>
<!DOCTYPE svg PUBLIC "-//W3C//DTD SVG 1.1//EN"
 "http://www.w3.org/Graphics/SVG/1.1/DTD/svg11.dtd">
<!-- Generated by graphviz version 2.43.0 (0)
 -->
<!-- Title: seerep&#45;hdf5/seerep&#45;hdf5&#45;core/include/seerep&#45;hdf5&#45;core/hdf5&#45;core&#45;point.h Pages: 1 -->
<svg width="1342pt" height="184pt"
 viewBox="0.00 0.00 1342.00 184.00" xmlns="http://www.w3.org/2000/svg" xmlns:xlink="http://www.w3.org/1999/xlink">
<g id="graph0" class="graph" transform="scale(1 1) rotate(0) translate(4 180)">
<title>seerep&#45;hdf5/seerep&#45;hdf5&#45;core/include/seerep&#45;hdf5&#45;core/hdf5&#45;core&#45;point.h</title>
<!-- Node1 -->
<g id="node1" class="node">
<title>Node1</title>
<g id="a_node1"><a xlink:title=" ">
<polygon fill="#bfbfbf" stroke="black" points="375.5,-134.5 375.5,-175.5 529.5,-175.5 529.5,-134.5 375.5,-134.5"/>
<text text-anchor="start" x="383.5" y="-163.5" font-family="Helvetica,sans-Serif" font-size="10.00">seerep&#45;hdf5/seerep</text>
<text text-anchor="start" x="383.5" y="-152.5" font-family="Helvetica,sans-Serif" font-size="10.00">&#45;hdf5&#45;core/include/seerep</text>
<text text-anchor="middle" x="452.5" y="-141.5" font-family="Helvetica,sans-Serif" font-size="10.00">&#45;hdf5&#45;core/hdf5&#45;core&#45;point.h</text>
</a>
</g>
</g>
<!-- Node2 -->
<g id="node2" class="node">
<title>Node2</title>
<g id="a_node2"><a xlink:title=" ">
<polygon fill="none" stroke="#bfbfbf" points="342.5,-6 342.5,-25 452.5,-25 452.5,-6 342.5,-6"/>
<text text-anchor="middle" x="397.5" y="-13" font-family="Helvetica,sans-Serif" font-size="10.00">highfive/H5File.hpp</text>
</a>
</g>
</g>
<!-- Node1&#45;&gt;Node2 -->
<g id="edge1" class="edge">
<title>Node1&#45;&gt;Node2</title>
<path fill="none" stroke="midnightblue" d="M444.62,-134.3C433.92,-107.54 414.94,-60.1 404.64,-34.34"/>
<polygon fill="midnightblue" stroke="midnightblue" points="407.88,-33.02 400.92,-25.04 401.38,-35.62 407.88,-33.02"/>
</g>
<!-- Node3 -->
<g id="node3" class="node">
<title>Node3</title>
<g id="a_node3"><a xlink:href="hdf5-core-datatype-interface_8h.html" target="_top" xlink:title=" ">
<polygon fill="none" stroke="black" points="203,-67.5 203,-97.5 348,-97.5 348,-67.5 203,-67.5"/>
<text text-anchor="start" x="211" y="-85.5" font-family="Helvetica,sans-Serif" font-size="10.00">seerep&#45;hdf5&#45;core/hdf5</text>
<text text-anchor="middle" x="275.5" y="-74.5" font-family="Helvetica,sans-Serif" font-size="10.00">&#45;core&#45;datatype&#45;interface.h</text>
</a>
</g>
</g>
<!-- Node1&#45;&gt;Node3 -->
<g id="edge2" class="edge">
<title>Node1&#45;&gt;Node3</title>
<path fill="none" stroke="midnightblue" d="M403.2,-134.36C377.16,-123.99 345.46,-111.37 320.16,-101.29"/>
<polygon fill="midnightblue" stroke="midnightblue" points="321.38,-98.01 310.8,-97.56 318.79,-104.51 321.38,-98.01"/>
</g>
<!-- Node4 -->
<g id="node4" class="node">
<title>Node4</title>
<g id="a_node4"><a xlink:title=" ">
<polygon fill="none" stroke="#bfbfbf" points="131,-0.5 131,-30.5 250,-30.5 250,-0.5 131,-0.5"/>
<text text-anchor="start" x="139" y="-18.5" font-family="Helvetica,sans-Serif" font-size="10.00">seerep&#45;msgs/dataset</text>
<text text-anchor="middle" x="190.5" y="-7.5" font-family="Helvetica,sans-Serif" font-size="10.00">&#45;indexable.h</text>
</a>
</g>
</g>
<!-- Node1&#45;&gt;Node4 -->
<g id="edge17" class="edge">
<title>Node1&#45;&gt;Node4</title>
<path fill="none" stroke="midnightblue" d="M375.36,-147.63C307.68,-140.28 216.54,-125.51 193.5,-98 180.41,-82.38 181.09,-58.56 184.2,-40.7"/>
<polygon fill="midnightblue" stroke="midnightblue" points="187.66,-41.23 186.28,-30.72 180.81,-39.8 187.66,-41.23"/>
</g>
<!-- Node5 -->
<g id="node5" class="node">
<title>Node5</title>
<g id="a_node5"><a xlink:title=" ">
<polygon fill="none" stroke="#bfbfbf" points="0,-6 0,-25 113,-25 113,-6 0,-6"/>
<text text-anchor="middle" x="56.5" y="-13" font-family="Helvetica,sans-Serif" font-size="10.00">boost/uuid/uuid.hpp</text>
</a>
</g>
</g>
<!-- Node1&#45;&gt;Node5 -->
<g id="edge22" class="edge">
<title>Node1&#45;&gt;Node5</title>
<path fill="none" stroke="midnightblue" d="M375.46,-146.18C319.46,-138.6 242.72,-124.27 179.5,-98 138.81,-81.09 97.26,-50.11 74.39,-31.6"/>
<polygon fill="midnightblue" stroke="midnightblue" points="76.52,-28.82 66.57,-25.17 72.07,-34.23 76.52,-28.82"/>
</g>
<!-- Node6 -->
<g id="node6" class="node">
<title>Node6</title>
<g id="a_node6"><a xlink:title=" ">
<polygon fill="none" stroke="#bfbfbf" points="268.5,-6 268.5,-25 324.5,-25 324.5,-6 268.5,-6"/>
<text text-anchor="middle" x="296.5" y="-13" font-family="Helvetica,sans-Serif" font-size="10.00">optional</text>
</a>
</g>
</g>
<!-- Node1&#45;&gt;Node6 -->
<g id="edge19" class="edge">
<title>Node1&#45;&gt;Node6</title>
<path fill="none" stroke="midnightblue" d="M431.35,-134.42C412.03,-116.64 382.59,-89.79 356.5,-67 342.8,-55.04 327.06,-41.81 315.14,-31.89"/>
<polygon fill="midnightblue" stroke="midnightblue" points="317.15,-29.01 307.22,-25.32 312.68,-34.4 317.15,-29.01"/>
</g>
<!-- Node7 -->
<g id="node7" class="node">
<title>Node7</title>
<g id="a_node7"><a xlink:href="hdf5-core-general_8h.html" target="_top" xlink:title=" ">
<polygon fill="none" stroke="black" points="481,-67.5 481,-97.5 606,-97.5 606,-67.5 481,-67.5"/>
<text text-anchor="start" x="489" y="-85.5" font-family="Helvetica,sans-Serif" font-size="10.00">seerep&#45;hdf5&#45;core/hdf5</text>
<text text-anchor="middle" x="543.5" y="-74.5" font-family="Helvetica,sans-Serif" font-size="10.00">&#45;core&#45;general.h</text>
</a>
</g>
</g>
<!-- Node1&#45;&gt;Node7 -->
<g id="edge6" class="edge">
<title>Node1&#45;&gt;Node7</title>
<path fill="none" stroke="midnightblue" d="M477.85,-134.36C490.07,-124.89 504.72,-113.54 517.08,-103.97"/>
<polygon fill="midnightblue" stroke="midnightblue" points="519.45,-106.56 525.21,-97.67 515.16,-101.03 519.45,-106.56"/>
</g>
<!-- Node9 -->
<g id="node9" class="node">
<title>Node9</title>
<g id="a_node9"><a xlink:title=" ">
<polygon fill="none" stroke="#bfbfbf" points="471,-6 471,-25 584,-25 584,-6 471,-6"/>
<text text-anchor="middle" x="527.5" y="-13" font-family="Helvetica,sans-Serif" font-size="10.00">boost/geometry.hpp</text>
</a>
</g>
</g>
<!-- Node1&#45;&gt;Node9 -->
<g id="edge18" class="edge">
<title>Node1&#45;&gt;Node9</title>
<path fill="none" stroke="midnightblue" d="M453.67,-134.47C455.51,-115.99 460.26,-88.03 472.5,-67 480.71,-52.89 494.15,-40.45 505.68,-31.44"/>
<polygon fill="midnightblue" stroke="midnightblue" points="508.08,-34.02 514.02,-25.25 503.9,-28.4 508.08,-34.02"/>
</g>
<!-- Node15 -->
<g id="node15" class="node">
<title>Node15</title>
<g id="a_node15"><a xlink:title=" ">
<polygon fill="none" stroke="#bfbfbf" points="624,-73 624,-92 767,-92 767,-73 624,-73"/>
<text text-anchor="middle" x="695.5" y="-80" font-family="Helvetica,sans-Serif" font-size="10.00">boost/functional/hash.hpp</text>
</a>
</g>
</g>
<!-- Node1&#45;&gt;Node15 -->
<g id="edge20" class="edge">
<title>Node1&#45;&gt;Node15</title>
<path fill="none" stroke="midnightblue" d="M519.87,-134.46C563.77,-121.72 619.54,-105.54 656.31,-94.87"/>
<polygon fill="midnightblue" stroke="midnightblue" points="657.53,-98.16 666.16,-92.01 655.58,-91.44 657.53,-98.16"/>
</g>
<!-- Node16 -->
<g id="node16" class="node">
<title>Node16</title>
<g id="a_node16"><a xlink:title=" ">
<polygon fill="none" stroke="#bfbfbf" points="785,-73 785,-92 910,-92 910,-73 785,-73"/>
<text text-anchor="middle" x="847.5" y="-80" font-family="Helvetica,sans-Serif" font-size="10.00">boost/lexical_cast.hpp</text>
</a>
</g>
</g>
<!-- Node1&#45;&gt;Node16 -->
<g id="edge21" class="edge">
<title>Node1&#45;&gt;Node16</title>
<path fill="none" stroke="midnightblue" d="M529.54,-141.36C595.26,-130.42 692.22,-113.89 776.5,-98 783.06,-96.76 789.96,-95.42 796.76,-94.06"/>
<polygon fill="midnightblue" stroke="midnightblue" points="797.51,-97.48 806.62,-92.07 796.12,-90.62 797.51,-97.48"/>
</g>
<!-- Node17 -->
<g id="node17" class="node">
<title>Node17</title>
<g id="a_node17"><a xlink:title=" ">
<polygon fill="none" stroke="#bfbfbf" points="928.5,-73 928.5,-92 1098.5,-92 1098.5,-73 928.5,-73"/>
<text text-anchor="middle" x="1013.5" y="-80" font-family="Helvetica,sans-Serif" font-size="10.00">boost/uuid/uuid_generators.hpp</text>
</a>
</g>
</g>
<!-- Node1&#45;&gt;Node17 -->
<g id="edge23" class="edge">
<title>Node1&#45;&gt;Node17</title>
<path fill="none" stroke="midnightblue" d="M529.86,-145.53C622.58,-135.2 782.57,-116.76 919.5,-98 929.44,-96.64 939.95,-95.11 950.21,-93.56"/>
<polygon fill="midnightblue" stroke="midnightblue" points="950.99,-96.98 960.35,-92.02 949.94,-90.06 950.99,-96.98"/>
</g>
<!-- Node18 -->
<g id="node18" class="node">
<title>Node18</title>
<g id="a_node18"><a xlink:title=" ">
<polygon fill="none" stroke="#bfbfbf" points="1117,-73 1117,-92 1244,-92 1244,-73 1117,-73"/>
<text text-anchor="middle" x="1180.5" y="-80" font-family="Helvetica,sans-Serif" font-size="10.00">boost/uuid/uuid_io.hpp</text>
</a>
</g>
</g>
<!-- Node1&#45;&gt;Node18 -->
<g id="edge24" class="edge">
<title>Node1&#45;&gt;Node18</title>
<path fill="none" stroke="midnightblue" d="M529.7,-150.18C652.5,-143.47 899.72,-127.43 1107.5,-98 1115.33,-96.89 1123.58,-95.49 1131.61,-93.99"/>
<polygon fill="midnightblue" stroke="midnightblue" points="1132.46,-97.39 1141.61,-92.05 1131.13,-90.51 1132.46,-97.39"/>
</g>
<!-- Node3&#45;&gt;Node4 -->
<g id="edge3" class="edge">
<title>Node3&#45;&gt;Node4</title>
<path fill="none" stroke="midnightblue" d="M257.06,-67.4C245.36,-58.45 230.04,-46.74 217.05,-36.8"/>
<polygon fill="midnightblue" stroke="midnightblue" points="218.98,-33.87 208.91,-30.58 214.73,-39.43 218.98,-33.87"/>
</g>
<!-- Node3&#45;&gt;Node5 -->
<g id="edge4" class="edge">
<title>Node3&#45;&gt;Node5</title>
<path fill="none" stroke="midnightblue" d="M228.25,-67.48C188.48,-55.67 132.31,-39 95.17,-27.98"/>
<polygon fill="midnightblue" stroke="midnightblue" points="95.82,-24.52 85.24,-25.03 93.83,-31.23 95.82,-24.52"/>
</g>
<!-- Node3&#45;&gt;Node6 -->
<g id="edge5" class="edge">
<title>Node3&#45;&gt;Node6</title>
<path fill="none" stroke="midnightblue" d="M280.06,-67.4C283.14,-57.86 287.23,-45.18 290.57,-34.86"/>
<polygon fill="midnightblue" stroke="midnightblue" points="293.95,-35.79 293.69,-25.19 287.29,-33.63 293.95,-35.79"/>
</g>
<!-- Node7&#45;&gt;Node2 -->
<g id="edge7" class="edge">
<title>Node7&#45;&gt;Node2</title>
<path fill="none" stroke="midnightblue" d="M511.82,-67.4C486.2,-55.99 450.46,-40.08 425.8,-29.1"/>
<polygon fill="midnightblue" stroke="midnightblue" points="427.17,-25.88 416.61,-25.01 424.32,-32.27 427.17,-25.88"/>
</g>
<!-- Node7&#45;&gt;Node4 -->
<g id="edge9" class="edge">
<title>Node7&#45;&gt;Node4</title>
<path fill="none" stroke="midnightblue" d="M480.79,-70.93C425.42,-61.46 342.26,-46.92 260.3,-31.12"/>
<polygon fill="midnightblue" stroke="midnightblue" points="260.8,-27.65 250.32,-29.19 259.47,-34.53 260.8,-27.65"/>
</g>
<!-- Node7&#45;&gt;Node6 -->
<g id="edge12" class="edge">
<title>Node7&#45;&gt;Node6</title>
<path fill="none" stroke="midnightblue" d="M480.86,-68.8C438.79,-59.7 382.33,-46.36 333.5,-31 331.22,-30.28 328.89,-29.5 326.55,-28.67"/>
<polygon fill="midnightblue" stroke="midnightblue" points="327.66,-25.35 317.06,-25.14 325.21,-31.91 327.66,-25.35"/>
</g>
<!-- Node8 -->
<g id="node8" class="node">
<title>Node8</title>
<g id="a_node8"><a xlink:title=" ">
<polygon fill="none" stroke="#bfbfbf" points="1064.5,-6 1064.5,-25 1180.5,-25 1180.5,-6 1064.5,-6"/>
<text text-anchor="middle" x="1122.5" y="-13" font-family="Helvetica,sans-Serif" font-size="10.00">seerep&#45;msgs/aabb.h</text>
</a>
</g>
</g>
<!-- Node7&#45;&gt;Node8 -->
<g id="edge8" class="edge">
<title>Node7&#45;&gt;Node8</title>
<path fill="none" stroke="midnightblue" d="M606.25,-68.41C609.37,-67.9 612.47,-67.43 615.5,-67 810.23,-39.54 862.02,-60.16 1056.5,-31 1063.36,-29.97 1070.57,-28.64 1077.61,-27.21"/>
<polygon fill="midnightblue" stroke="midnightblue" points="1078.67,-30.56 1087.73,-25.06 1077.22,-23.72 1078.67,-30.56"/>
</g>
<!-- Node7&#45;&gt;Node9 -->
<g id="edge10" class="edge">
<title>Node7&#45;&gt;Node9</title>
<path fill="none" stroke="midnightblue" d="M540.03,-67.4C537.71,-57.96 534.63,-45.45 532.1,-35.19"/>
<polygon fill="midnightblue" stroke="midnightblue" points="535.43,-34.07 529.64,-25.19 528.63,-35.74 535.43,-34.07"/>
</g>
<!-- Node10 -->
<g id="node10" class="node">
<title>Node10</title>
<g id="a_node10"><a xlink:title=" ">
<polygon fill="none" stroke="#bfbfbf" points="1198.5,-6 1198.5,-25 1246.5,-25 1246.5,-6 1198.5,-6"/>
<text text-anchor="middle" x="1222.5" y="-13" font-family="Helvetica,sans-Serif" font-size="10.00">mutex</text>
</a>
</g>
</g>
<!-- Node7&#45;&gt;Node10 -->
<g id="edge11" class="edge">
<title>Node7&#45;&gt;Node10</title>
<path fill="none" stroke="midnightblue" d="M606.24,-68.34C609.37,-67.85 612.47,-67.4 615.5,-67 868.93,-33.69 941.11,-91.34 1189.5,-31 1191.86,-30.43 1194.26,-29.69 1196.64,-28.86"/>
<polygon fill="midnightblue" stroke="midnightblue" points="1198.14,-32.03 1206.11,-25.05 1195.53,-25.54 1198.14,-32.03"/>
</g>
<!-- Node11 -->
<g id="node11" class="node">
<title>Node11</title>
<g id="a_node11"><a xlink:title=" ">
<polygon fill="none" stroke="#bfbfbf" points="1265,-6 1265,-25 1334,-25 1334,-6 1265,-6"/>
<text text-anchor="middle" x="1299.5" y="-13" font-family="Helvetica,sans-Serif" font-size="10.00">type_traits</text>
</a>
</g>
</g>
<!-- Node7&#45;&gt;Node11 -->
<g id="edge13" class="edge">
<title>Node7&#45;&gt;Node11</title>
<path fill="none" stroke="midnightblue" d="M606.24,-68.32C609.37,-67.83 612.46,-67.39 615.5,-67 898.08,-30.79 975.59,-84.04 1255.5,-31 1259.48,-30.25 1263.59,-29.23 1267.63,-28.08"/>
<polygon fill="midnightblue" stroke="midnightblue" points="1268.91,-31.35 1277.41,-25.03 1266.83,-24.67 1268.91,-31.35"/>
</g>
<!-- Node12 -->
<g id="node12" class="node">
<title>Node12</title>
<g id="a_node12"><a xlink:title=" ">
<polygon fill="none" stroke="#bfbfbf" points="602,-0.5 602,-30.5 747,-30.5 747,-0.5 602,-0.5"/>
<text text-anchor="start" x="610" y="-18.5" font-family="Helvetica,sans-Serif" font-size="10.00">boost/log/sources/severity</text>
<text text-anchor="middle" x="674.5" y="-7.5" font-family="Helvetica,sans-Serif" font-size="10.00">_logger.hpp</text>
</a>
</g>
</g>
<!-- Node7&#45;&gt;Node12 -->
<g id="edge14" class="edge">
<title>Node7&#45;&gt;Node12</title>
<path fill="none" stroke="midnightblue" d="M571.93,-67.4C590.98,-57.94 616.28,-45.39 636.98,-35.12"/>
<polygon fill="midnightblue" stroke="midnightblue" points="638.73,-38.16 646.13,-30.58 635.62,-31.89 638.73,-38.16"/>
</g>
<!-- Node13 -->
<g id="node13" class="node">
<title>Node13</title>
<g id="a_node13"><a xlink:title=" ">
<polygon fill="none" stroke="#bfbfbf" points="765.5,-6 765.5,-25 879.5,-25 879.5,-6 765.5,-6"/>
<text text-anchor="middle" x="822.5" y="-13" font-family="Helvetica,sans-Serif" font-size="10.00">boost/log/trivial.hpp</text>
</a>
</g>
</g>
<!-- Node7&#45;&gt;Node13 -->
<g id="edge15" class="edge">
<title>Node7&#45;&gt;Node13</title>
<path fill="none" stroke="midnightblue" d="M603.7,-67.48C655.33,-55.45 728.68,-38.36 775.93,-27.35"/>
<polygon fill="midnightblue" stroke="midnightblue" points="776.95,-30.71 785.89,-25.03 775.36,-23.89 776.95,-30.71"/>
</g>
<!-- Node14 -->
<g id="node14" class="node">
<title>Node14</title>
<g id="a_node14"><a xlink:title=" ">
<polygon fill="none" stroke="#bfbfbf" points="898,-6 898,-25 1047,-25 1047,-6 898,-6"/>
<text text-anchor="middle" x="972.5" y="-13" font-family="Helvetica,sans-Serif" font-size="10.00">impl/hdf5&#45;core&#45;general.hpp</text>
</a>
</g>
</g>
<!-- Node7&#45;&gt;Node14 -->
<g id="edge16" class="edge">
<title>Node7&#45;&gt;Node14</title>
<path fill="none" stroke="midnightblue" d="M606.28,-68.6C609.4,-68.04 612.48,-67.5 615.5,-67 736.22,-46.91 767.51,-49.41 888.5,-31 897.11,-29.69 906.2,-28.22 915.1,-26.72"/>
<polygon fill="midnightblue" stroke="midnightblue" points="915.75,-30.16 925.02,-25.04 914.58,-23.26 915.75,-30.16"/>
</g>
</g>
</svg>
