<?xml version="1.0" encoding="UTF-8" standalone="no"?>
<!DOCTYPE svg PUBLIC "-//W3C//DTD SVG 1.1//EN"
 "http://www.w3.org/Graphics/SVG/1.1/DTD/svg11.dtd">
<!-- Generated by graphviz version 2.43.0 (0)
 -->
<!-- Title: seerep&#45;hdf5/seerep&#45;hdf5&#45;fb/src/hdf5&#45;fb&#45;tf.cpp Pages: 1 -->
<svg width="1596pt" height="318pt"
 viewBox="0.00 0.00 1595.95 318.00" xmlns="http://www.w3.org/2000/svg" xmlns:xlink="http://www.w3.org/1999/xlink">
<g id="graph0" class="graph" transform="scale(1 1) rotate(0) translate(4 314)">
<title>seerep&#45;hdf5/seerep&#45;hdf5&#45;fb/src/hdf5&#45;fb&#45;tf.cpp</title>
<!-- Node1 -->
<g id="node1" class="node">
<title>Node1</title>
<g id="a_node1"><a xlink:title=" ">
<polygon fill="#bfbfbf" stroke="black" points="1326.45,-268.5 1326.45,-309.5 1437.45,-309.5 1437.45,-268.5 1326.45,-268.5"/>
<text text-anchor="start" x="1334.45" y="-297.5" font-family="Helvetica,sans-Serif" font-size="10.00">seerep&#45;hdf5/seerep</text>
<text text-anchor="start" x="1334.45" y="-286.5" font-family="Helvetica,sans-Serif" font-size="10.00">&#45;hdf5&#45;fb/src/hdf5&#45;fb</text>
<text text-anchor="middle" x="1381.95" y="-275.5" font-family="Helvetica,sans-Serif" font-size="10.00">&#45;tf.cpp</text>
</a>
</g>
</g>
<!-- Node2 -->
<g id="node2" class="node">
<title>Node2</title>
<g id="a_node2"><a xlink:href="hdf5-fb-tf_8h.html" target="_top" xlink:title=" ">
<polygon fill="none" stroke="black" points="1255.45,-201.5 1255.45,-231.5 1368.45,-231.5 1368.45,-201.5 1255.45,-201.5"/>
<text text-anchor="start" x="1263.45" y="-219.5" font-family="Helvetica,sans-Serif" font-size="10.00">seerep&#45;hdf5&#45;fb/hdf5</text>
<text text-anchor="middle" x="1311.95" y="-208.5" font-family="Helvetica,sans-Serif" font-size="10.00">&#45;fb&#45;tf.h</text>
</a>
</g>
</g>
<!-- Node1&#45;&gt;Node2 -->
<g id="edge1" class="edge">
<title>Node1&#45;&gt;Node2</title>
<path fill="none" stroke="midnightblue" d="M1362.45,-268.36C1353.39,-259.23 1342.58,-248.35 1333.3,-239"/>
<polygon fill="midnightblue" stroke="midnightblue" points="1335.77,-236.52 1326.24,-231.89 1330.8,-241.45 1335.77,-236.52"/>
</g>
<!-- Node21 -->
<g id="node21" class="node">
<title>Node21</title>
<g id="a_node21"><a xlink:title=" ">
<polygon fill="none" stroke="#bfbfbf" points="1386.95,-207 1386.95,-226 1518.95,-226 1518.95,-207 1386.95,-207"/>
<text text-anchor="middle" x="1452.95" y="-214" font-family="Helvetica,sans-Serif" font-size="10.00">highfive/H5DataSet.hpp</text>
</a>
</g>
</g>
<!-- Node1&#45;&gt;Node21 -->
<g id="edge29" class="edge">
<title>Node1&#45;&gt;Node21</title>
<path fill="none" stroke="midnightblue" d="M1401.73,-268.36C1412.85,-257.32 1426.54,-243.72 1436.97,-233.37"/>
<polygon fill="midnightblue" stroke="midnightblue" points="1439.59,-235.7 1444.22,-226.17 1434.66,-230.74 1439.59,-235.7"/>
</g>
<!-- Node3 -->
<g id="node3" class="node">
<title>Node3</title>
<g id="a_node3"><a xlink:title=" ">
<polygon fill="none" stroke="#bfbfbf" points="1477.95,-6 1477.95,-25 1587.95,-25 1587.95,-6 1477.95,-6"/>
<text text-anchor="middle" x="1532.95" y="-13" font-family="Helvetica,sans-Serif" font-size="10.00">highfive/H5File.hpp</text>
</a>
</g>
</g>
<!-- Node2&#45;&gt;Node3 -->
<g id="edge2" class="edge">
<title>Node2&#45;&gt;Node3</title>
<path fill="none" stroke="midnightblue" d="M1319.96,-201.48C1330.17,-184.35 1349.02,-155.06 1369.95,-134 1413.79,-89.9 1475.6,-50.25 1509.11,-30.23"/>
<polygon fill="midnightblue" stroke="midnightblue" points="1510.93,-33.21 1517.77,-25.12 1507.38,-27.19 1510.93,-33.21"/>
</g>
<!-- Node4 -->
<g id="node4" class="node">
<title>Node4</title>
<g id="a_node4"><a xlink:href="hdf5-fb-general_8h.html" target="_top" xlink:title=" ">
<polygon fill="none" stroke="black" points="801.45,-134.5 801.45,-164.5 914.45,-164.5 914.45,-134.5 801.45,-134.5"/>
<text text-anchor="start" x="809.45" y="-152.5" font-family="Helvetica,sans-Serif" font-size="10.00">seerep&#45;hdf5&#45;fb/hdf5</text>
<text text-anchor="middle" x="857.95" y="-141.5" font-family="Helvetica,sans-Serif" font-size="10.00">&#45;fb&#45;general.h</text>
</a>
</g>
</g>
<!-- Node2&#45;&gt;Node4 -->
<g id="edge3" class="edge">
<title>Node2&#45;&gt;Node4</title>
<path fill="none" stroke="midnightblue" d="M1255.37,-207.4C1171.37,-195.37 1014.01,-172.84 924.56,-160.04"/>
<polygon fill="midnightblue" stroke="midnightblue" points="924.93,-156.55 914.53,-158.6 923.93,-163.48 924.93,-156.55"/>
</g>
<!-- Node8 -->
<g id="node8" class="node">
<title>Node8</title>
<g id="a_node8"><a xlink:title=" ">
<polygon fill="none" stroke="#bfbfbf" points="1346.45,-6 1346.45,-25 1459.45,-25 1459.45,-6 1346.45,-6"/>
<text text-anchor="middle" x="1402.95" y="-13" font-family="Helvetica,sans-Serif" font-size="10.00">boost/geometry.hpp</text>
</a>
</g>
</g>
<!-- Node2&#45;&gt;Node8 -->
<g id="edge27" class="edge">
<title>Node2&#45;&gt;Node8</title>
<path fill="none" stroke="midnightblue" d="M1310.89,-201.22C1309.5,-173.3 1309.79,-110.39 1335.95,-67 1345.45,-51.24 1361.89,-38.74 1376.11,-30.12"/>
<polygon fill="midnightblue" stroke="midnightblue" points="1378.09,-33.01 1385.04,-25.01 1374.62,-26.94 1378.09,-33.01"/>
</g>
<!-- Node10 -->
<g id="node10" class="node">
<title>Node10</title>
<g id="a_node10"><a xlink:title=" ">
<polygon fill="none" stroke="#bfbfbf" points="472.95,-6 472.95,-25 528.95,-25 528.95,-6 472.95,-6"/>
<text text-anchor="middle" x="500.95" y="-13" font-family="Helvetica,sans-Serif" font-size="10.00">optional</text>
</a>
</g>
</g>
<!-- Node2&#45;&gt;Node10 -->
<g id="edge28" class="edge">
<title>Node2&#45;&gt;Node10</title>
<path fill="none" stroke="midnightblue" d="M1255.15,-214.79C1015.1,-211.2 92.32,-191.4 6.95,-98 -2.34,-87.83 -2.28,-77.23 6.95,-67 37.39,-33.3 352.37,-20.86 462.89,-17.52"/>
<polygon fill="midnightblue" stroke="midnightblue" points="463.03,-21.02 472.93,-17.22 462.83,-14.02 463.03,-21.02"/>
</g>
<!-- Node20 -->
<g id="node20" class="node">
<title>Node20</title>
<g id="a_node20"><a xlink:title=" ">
<polygon fill="none" stroke="#bfbfbf" points="1378.45,-134.5 1378.45,-164.5 1509.45,-164.5 1509.45,-134.5 1378.45,-134.5"/>
<text text-anchor="start" x="1386.45" y="-152.5" font-family="Helvetica,sans-Serif" font-size="10.00">seerep&#45;msgs/transform</text>
<text text-anchor="middle" x="1443.95" y="-141.5" font-family="Helvetica,sans-Serif" font-size="10.00">_stamped_generated.h</text>
</a>
</g>
</g>
<!-- Node2&#45;&gt;Node20 -->
<g id="edge26" class="edge">
<title>Node2&#45;&gt;Node20</title>
<path fill="none" stroke="midnightblue" d="M1340.59,-201.4C1359.79,-191.94 1385.28,-179.39 1406.15,-169.12"/>
<polygon fill="midnightblue" stroke="midnightblue" points="1407.94,-172.13 1415.37,-164.58 1404.85,-165.85 1407.94,-172.13"/>
</g>
<!-- Node4&#45;&gt;Node3 -->
<g id="edge4" class="edge">
<title>Node4&#45;&gt;Node3</title>
<path fill="none" stroke="midnightblue" d="M914.6,-141.1C979.98,-132.24 1090.64,-116.3 1184.95,-98 1295.68,-76.52 1424.62,-44.45 1490.08,-27.66"/>
<polygon fill="midnightblue" stroke="midnightblue" points="1491.21,-30.98 1500.03,-25.1 1489.47,-24.21 1491.21,-30.98"/>
</g>
<!-- Node5 -->
<g id="node5" class="node">
<title>Node5</title>
<g id="a_node5"><a xlink:href="hdf5-core-general_8h.html" target="_top" xlink:title=" ">
<polygon fill="none" stroke="black" points="981.45,-67.5 981.45,-97.5 1106.45,-97.5 1106.45,-67.5 981.45,-67.5"/>
<text text-anchor="start" x="989.45" y="-85.5" font-family="Helvetica,sans-Serif" font-size="10.00">seerep&#45;hdf5&#45;core/hdf5</text>
<text text-anchor="middle" x="1043.95" y="-74.5" font-family="Helvetica,sans-Serif" font-size="10.00">&#45;core&#45;general.h</text>
</a>
</g>
</g>
<!-- Node4&#45;&gt;Node5 -->
<g id="edge5" class="edge">
<title>Node4&#45;&gt;Node5</title>
<path fill="none" stroke="midnightblue" d="M898.31,-134.4C926.46,-124.56 964.21,-111.37 994.22,-100.88"/>
<polygon fill="midnightblue" stroke="midnightblue" points="995.39,-104.18 1003.67,-97.58 993.08,-97.57 995.39,-104.18"/>
</g>
<!-- Node4&#45;&gt;Node8 -->
<g id="edge19" class="edge">
<title>Node4&#45;&gt;Node8</title>
<path fill="none" stroke="midnightblue" d="M914.61,-138.81C967.08,-129.51 1047.15,-114.47 1115.95,-98 1206.58,-76.3 1311.57,-44.85 1365.97,-28.07"/>
<polygon fill="midnightblue" stroke="midnightblue" points="1367.33,-31.32 1375.85,-25.02 1365.26,-24.63 1367.33,-31.32"/>
</g>
<!-- Node9 -->
<g id="node9" class="node">
<title>Node9</title>
<g id="a_node9"><a xlink:title=" ">
<polygon fill="none" stroke="#bfbfbf" points="678.95,-6 678.95,-25 726.95,-25 726.95,-6 678.95,-6"/>
<text text-anchor="middle" x="702.95" y="-13" font-family="Helvetica,sans-Serif" font-size="10.00">mutex</text>
</a>
</g>
</g>
<!-- Node4&#45;&gt;Node9 -->
<g id="edge21" class="edge">
<title>Node4&#45;&gt;Node9</title>
<path fill="none" stroke="midnightblue" d="M871.82,-134.27C887.01,-116.94 907.19,-87.44 890.95,-67 846.96,-11.62 803.06,-53.32 735.95,-31 734.08,-30.38 732.17,-29.69 730.26,-28.96"/>
<polygon fill="midnightblue" stroke="midnightblue" points="731.45,-25.66 720.87,-25.09 728.78,-32.14 731.45,-25.66"/>
</g>
<!-- Node4&#45;&gt;Node10 -->
<g id="edge22" class="edge">
<title>Node4&#45;&gt;Node10</title>
<path fill="none" stroke="midnightblue" d="M855.64,-134.34C851.78,-115.65 842.14,-83.2 819.95,-67 717.91,7.51 660.37,-62.29 537.95,-31 535.29,-30.32 532.55,-29.5 529.84,-28.6"/>
<polygon fill="midnightblue" stroke="midnightblue" points="530.84,-25.24 520.24,-25.1 528.44,-31.81 530.84,-25.24"/>
</g>
<!-- Node11 -->
<g id="node11" class="node">
<title>Node11</title>
<g id="a_node11"><a xlink:title=" ">
<polygon fill="none" stroke="#bfbfbf" points="745.45,-0.5 745.45,-30.5 890.45,-30.5 890.45,-0.5 745.45,-0.5"/>
<text text-anchor="start" x="753.45" y="-18.5" font-family="Helvetica,sans-Serif" font-size="10.00">boost/log/sources/severity</text>
<text text-anchor="middle" x="817.95" y="-7.5" font-family="Helvetica,sans-Serif" font-size="10.00">_logger.hpp</text>
</a>
</g>
</g>
<!-- Node4&#45;&gt;Node11 -->
<g id="edge23" class="edge">
<title>Node4&#45;&gt;Node11</title>
<path fill="none" stroke="midnightblue" d="M890.1,-134.34C904.78,-126.03 920.7,-114 928.95,-98 935.27,-85.76 936.41,-78.59 928.95,-67 919.56,-52.42 904.82,-41.99 889.1,-34.56"/>
<polygon fill="midnightblue" stroke="midnightblue" points="890.34,-31.29 879.77,-30.53 887.56,-37.71 890.34,-31.29"/>
</g>
<!-- Node12 -->
<g id="node12" class="node">
<title>Node12</title>
<g id="a_node12"><a xlink:title=" ">
<polygon fill="none" stroke="#bfbfbf" points="546.95,-6 546.95,-25 660.95,-25 660.95,-6 546.95,-6"/>
<text text-anchor="middle" x="603.95" y="-13" font-family="Helvetica,sans-Serif" font-size="10.00">boost/log/trivial.hpp</text>
</a>
</g>
</g>
<!-- Node4&#45;&gt;Node12 -->
<g id="edge24" class="edge">
<title>Node4&#45;&gt;Node12</title>
<path fill="none" stroke="midnightblue" d="M861.74,-134.48C865.67,-116.54 869.2,-85.56 852.95,-67 798.36,-4.62 751.1,-47.89 669.95,-31 664.14,-29.79 658.05,-28.49 652.01,-27.19"/>
<polygon fill="midnightblue" stroke="midnightblue" points="652.48,-23.71 641.96,-25 650.99,-30.55 652.48,-23.71"/>
</g>
<!-- Node14 -->
<g id="node14" class="node">
<title>Node14</title>
<g id="a_node14"><a xlink:title=" ">
<polygon fill="none" stroke="#bfbfbf" points="15.95,-67.5 15.95,-97.5 173.95,-97.5 173.95,-67.5 15.95,-67.5"/>
<text text-anchor="start" x="23.95" y="-85.5" font-family="Helvetica,sans-Serif" font-size="10.00">seerep&#45;msgs/boundingbox2d</text>
<text text-anchor="middle" x="94.95" y="-74.5" font-family="Helvetica,sans-Serif" font-size="10.00">_labeled_generated.h</text>
</a>
</g>
</g>
<!-- Node4&#45;&gt;Node14 -->
<g id="edge15" class="edge">
<title>Node4&#45;&gt;Node14</title>
<path fill="none" stroke="midnightblue" d="M801.34,-145.96C686.77,-140.46 419.08,-125.73 184.16,-98.07"/>
<polygon fill="midnightblue" stroke="midnightblue" points="184.4,-94.58 174.06,-96.87 183.58,-101.53 184.4,-94.58"/>
</g>
<!-- Node15 -->
<g id="node15" class="node">
<title>Node15</title>
<g id="a_node15"><a xlink:title=" ">
<polygon fill="none" stroke="#bfbfbf" points="191.95,-67.5 191.95,-97.5 337.95,-97.5 337.95,-67.5 191.95,-67.5"/>
<text text-anchor="start" x="199.95" y="-85.5" font-family="Helvetica,sans-Serif" font-size="10.00">seerep&#45;msgs/boundingbox</text>
<text text-anchor="middle" x="264.95" y="-74.5" font-family="Helvetica,sans-Serif" font-size="10.00">_labeled_generated.h</text>
</a>
</g>
</g>
<!-- Node4&#45;&gt;Node15 -->
<g id="edge16" class="edge">
<title>Node4&#45;&gt;Node15</title>
<path fill="none" stroke="midnightblue" d="M801.07,-144.31C708.38,-137.16 518.81,-121.24 348.39,-98.13"/>
<polygon fill="midnightblue" stroke="midnightblue" points="348.61,-94.63 338.23,-96.74 347.66,-101.57 348.61,-94.63"/>
</g>
<!-- Node16 -->
<g id="node16" class="node">
<title>Node16</title>
<g id="a_node16"><a xlink:title=" ">
<polygon fill="none" stroke="#bfbfbf" points="356.45,-73 356.45,-92 451.45,-92 451.45,-73 356.45,-73"/>
<text text-anchor="middle" x="403.95" y="-80" font-family="Helvetica,sans-Serif" font-size="10.00">grpcpp/grpcpp.h</text>
</a>
</g>
</g>
<!-- Node4&#45;&gt;Node16 -->
<g id="edge17" class="edge">
<title>Node4&#45;&gt;Node16</title>
<path fill="none" stroke="midnightblue" d="M801.24,-143.59C723.72,-136.37 580.51,-121.16 459.95,-98 454.78,-97.01 449.38,-95.81 444.07,-94.54"/>
<polygon fill="midnightblue" stroke="midnightblue" points="444.57,-91.06 434.02,-92.03 442.87,-97.85 444.57,-91.06"/>
</g>
<!-- Node17 -->
<g id="node17" class="node">
<title>Node17</title>
<g id="a_node17"><a xlink:title=" ">
<polygon fill="none" stroke="#bfbfbf" points="469.45,-73 469.45,-92 568.45,-92 568.45,-73 469.45,-73"/>
<text text-anchor="middle" x="518.95" y="-80" font-family="Helvetica,sans-Serif" font-size="10.00">flatbuffers/grpc.h</text>
</a>
</g>
</g>
<!-- Node4&#45;&gt;Node17 -->
<g id="edge18" class="edge">
<title>Node4&#45;&gt;Node17</title>
<path fill="none" stroke="midnightblue" d="M801.44,-139.37C744.74,-129.97 655.01,-114.4 577.95,-98 572.86,-96.92 567.54,-95.71 562.26,-94.47"/>
<polygon fill="midnightblue" stroke="midnightblue" points="562.8,-91 552.25,-92.07 561.16,-97.81 562.8,-91"/>
</g>
<!-- Node18 -->
<g id="node18" class="node">
<title>Node18</title>
<g id="a_node18"><a xlink:title=" ">
<polygon fill="none" stroke="#bfbfbf" points="586.95,-73 586.95,-92 654.95,-92 654.95,-73 586.95,-73"/>
<text text-anchor="middle" x="620.95" y="-80" font-family="Helvetica,sans-Serif" font-size="10.00">filesystem</text>
</a>
</g>
</g>
<!-- Node4&#45;&gt;Node18 -->
<g id="edge20" class="edge">
<title>Node4&#45;&gt;Node18</title>
<path fill="none" stroke="midnightblue" d="M801.21,-134.85C762.37,-125.23 709.81,-111.68 663.95,-98 661.03,-97.13 658,-96.19 654.97,-95.22"/>
<polygon fill="midnightblue" stroke="midnightblue" points="656.01,-91.87 645.42,-92.08 653.83,-98.52 656.01,-91.87"/>
</g>
<!-- Node19 -->
<g id="node19" class="node">
<title>Node19</title>
<g id="a_node19"><a xlink:title=" ">
<polygon fill="none" stroke="#bfbfbf" points="672.95,-73 672.95,-92 810.95,-92 810.95,-73 672.95,-73"/>
<text text-anchor="middle" x="741.95" y="-80" font-family="Helvetica,sans-Serif" font-size="10.00">impl/hdf5&#45;fb&#45;general.hpp</text>
</a>
</g>
</g>
<!-- Node4&#45;&gt;Node19 -->
<g id="edge25" class="edge">
<title>Node4&#45;&gt;Node19</title>
<path fill="none" stroke="midnightblue" d="M832.78,-134.4C812.97,-123.29 785.53,-107.92 766.01,-96.98"/>
<polygon fill="midnightblue" stroke="midnightblue" points="767.57,-93.84 757.13,-92.01 764.15,-99.95 767.57,-93.84"/>
</g>
<!-- Node5&#45;&gt;Node3 -->
<g id="edge6" class="edge">
<title>Node5&#45;&gt;Node3</title>
<path fill="none" stroke="midnightblue" d="M1106.54,-76.13C1189.69,-68.52 1340.99,-53.04 1468.95,-31 1475.22,-29.92 1481.79,-28.62 1488.24,-27.26"/>
<polygon fill="midnightblue" stroke="midnightblue" points="1489.19,-30.63 1498.21,-25.07 1487.69,-23.79 1489.19,-30.63"/>
</g>
<!-- Node6 -->
<g id="node6" class="node">
<title>Node6</title>
<g id="a_node6"><a xlink:title=" ">
<polygon fill="none" stroke="#bfbfbf" points="1211.95,-6 1211.95,-25 1327.95,-25 1327.95,-6 1211.95,-6"/>
<text text-anchor="middle" x="1269.95" y="-13" font-family="Helvetica,sans-Serif" font-size="10.00">seerep&#45;msgs/aabb.h</text>
</a>
</g>
</g>
<!-- Node5&#45;&gt;Node6 -->
<g id="edge7" class="edge">
<title>Node5&#45;&gt;Node6</title>
<path fill="none" stroke="midnightblue" d="M1092.71,-67.48C1133.93,-55.62 1192.21,-38.86 1230.53,-27.84"/>
<polygon fill="midnightblue" stroke="midnightblue" points="1231.66,-31.16 1240.3,-25.03 1229.72,-24.43 1231.66,-31.16"/>
</g>
<!-- Node7 -->
<g id="node7" class="node">
<title>Node7</title>
<g id="a_node7"><a xlink:title=" ">
<polygon fill="none" stroke="#bfbfbf" points="908.45,-0.5 908.45,-30.5 1027.45,-30.5 1027.45,-0.5 908.45,-0.5"/>
<text text-anchor="start" x="916.45" y="-18.5" font-family="Helvetica,sans-Serif" font-size="10.00">seerep&#45;msgs/dataset</text>
<text text-anchor="middle" x="967.95" y="-7.5" font-family="Helvetica,sans-Serif" font-size="10.00">&#45;indexable.h</text>
</a>
</g>
</g>
<!-- Node5&#45;&gt;Node7 -->
<g id="edge8" class="edge">
<title>Node5&#45;&gt;Node7</title>
<path fill="none" stroke="midnightblue" d="M1027.46,-67.4C1017.1,-58.54 1003.57,-46.96 992.02,-37.09"/>
<polygon fill="midnightblue" stroke="midnightblue" points="994.29,-34.42 984.41,-30.58 989.74,-39.74 994.29,-34.42"/>
</g>
<!-- Node5&#45;&gt;Node8 -->
<g id="edge9" class="edge">
<title>Node5&#45;&gt;Node8</title>
<path fill="none" stroke="midnightblue" d="M1106.69,-71.54C1166.12,-61.9 1257.8,-46.51 1336.95,-31 1343.07,-29.8 1349.5,-28.47 1355.83,-27.13"/>
<polygon fill="midnightblue" stroke="midnightblue" points="1356.63,-30.53 1365.67,-25 1355.15,-23.69 1356.63,-30.53"/>
</g>
<!-- Node5&#45;&gt;Node9 -->
<g id="edge10" class="edge">
<title>Node5&#45;&gt;Node9</title>
<path fill="none" stroke="midnightblue" d="M981.33,-73.13C905.03,-62.6 780.76,-44.29 735.95,-31 733.81,-30.36 731.62,-29.62 729.44,-28.82"/>
<polygon fill="midnightblue" stroke="midnightblue" points="730.69,-25.55 720.11,-25.02 728.05,-32.03 730.69,-25.55"/>
</g>
<!-- Node5&#45;&gt;Node10 -->
<g id="edge11" class="edge">
<title>Node5&#45;&gt;Node10</title>
<path fill="none" stroke="midnightblue" d="M981.01,-76.19C854.97,-65.41 580.06,-41.15 537.95,-31 535.12,-30.32 532.22,-29.47 529.35,-28.52"/>
<polygon fill="midnightblue" stroke="midnightblue" points="530.43,-25.19 519.83,-25.05 528.03,-31.77 530.43,-25.19"/>
</g>
<!-- Node5&#45;&gt;Node11 -->
<g id="edge12" class="edge">
<title>Node5&#45;&gt;Node11</title>
<path fill="none" stroke="midnightblue" d="M995.19,-67.48C960.41,-57.47 913.47,-43.97 876.63,-33.38"/>
<polygon fill="midnightblue" stroke="midnightblue" points="877.59,-30.01 867.01,-30.61 875.66,-36.74 877.59,-30.01"/>
</g>
<!-- Node5&#45;&gt;Node12 -->
<g id="edge13" class="edge">
<title>Node5&#45;&gt;Node12</title>
<path fill="none" stroke="midnightblue" d="M981.17,-74.62C906.67,-66.08 778.82,-50.28 669.95,-31 663.58,-29.87 656.9,-28.56 650.33,-27.19"/>
<polygon fill="midnightblue" stroke="midnightblue" points="650.67,-23.68 640.16,-25.01 649.2,-30.53 650.67,-23.68"/>
</g>
<!-- Node13 -->
<g id="node13" class="node">
<title>Node13</title>
<g id="a_node13"><a xlink:title=" ">
<polygon fill="none" stroke="#bfbfbf" points="1045.45,-6 1045.45,-25 1194.45,-25 1194.45,-6 1045.45,-6"/>
<text text-anchor="middle" x="1119.95" y="-13" font-family="Helvetica,sans-Serif" font-size="10.00">impl/hdf5&#45;core&#45;general.hpp</text>
</a>
</g>
</g>
<!-- Node5&#45;&gt;Node13 -->
<g id="edge14" class="edge">
<title>Node5&#45;&gt;Node13</title>
<path fill="none" stroke="midnightblue" d="M1060.44,-67.4C1072.65,-56.96 1089.26,-42.75 1101.83,-32"/>
<polygon fill="midnightblue" stroke="midnightblue" points="1104.46,-34.35 1109.79,-25.19 1099.91,-29.03 1104.46,-34.35"/>
</g>
</g>
</svg>
