<?xml version="1.0" encoding="UTF-8" standalone="no"?>
<!DOCTYPE svg PUBLIC "-//W3C//DTD SVG 1.1//EN"
 "http://www.w3.org/Graphics/SVG/1.1/DTD/svg11.dtd">
<!-- Generated by graphviz version 2.43.0 (0)
 -->
<!-- Title: seerep_hdf5/seerep_hdf5_ros/include/seerep_hdf5_ros/hdf5_ros.h Pages: 1 -->
<svg width="342pt" height="195pt"
 viewBox="0.00 0.00 342.00 195.00" xmlns="http://www.w3.org/2000/svg" xmlns:xlink="http://www.w3.org/1999/xlink">
<g id="graph0" class="graph" transform="scale(1 1) rotate(0) translate(4 191)">
<title>seerep_hdf5/seerep_hdf5_ros/include/seerep_hdf5_ros/hdf5_ros.h</title>
<!-- Node1 -->
<g id="node1" class="node">
<title>Node1</title>
<g id="a_node1"><a xlink:title=" ">
<polygon fill="#bfbfbf" stroke="black" points="91,-145.5 91,-186.5 229,-186.5 229,-145.5 91,-145.5"/>
<text text-anchor="start" x="99" y="-174.5" font-family="Helvetica,sans-Serif" font-size="10.00">seerep_hdf5/seerep</text>
<text text-anchor="start" x="99" y="-163.5" font-family="Helvetica,sans-Serif" font-size="10.00">_hdf5_ros/include/seerep</text>
<text text-anchor="middle" x="160" y="-152.5" font-family="Helvetica,sans-Serif" font-size="10.00">_hdf5_ros/hdf5_ros.h</text>
</a>
</g>
</g>
<!-- Node2 -->
<g id="node2" class="node">
<title>Node2</title>
<g id="a_node2"><a xlink:href="hdf5__ros_8cpp.html" target="_top" xlink:title=" ">
<polygon fill="none" stroke="black" points="0,-73 0,-103 146,-103 146,-73 0,-73"/>
<text text-anchor="start" x="8" y="-91" font-family="Helvetica,sans-Serif" font-size="10.00">seerep_hdf5/seerep</text>
<text text-anchor="middle" x="73" y="-80" font-family="Helvetica,sans-Serif" font-size="10.00">_hdf5_ros/src/hdf5_ros.cpp</text>
</a>
</g>
</g>
<!-- Node1&#45;&gt;Node2 -->
<g id="edge1" class="edge">
<title>Node1&#45;&gt;Node2</title>
<path fill="none" stroke="midnightblue" d="M129.85,-138.66C116.23,-126.76 100.67,-113.18 89.28,-103.23"/>
<polygon fill="midnightblue" stroke="midnightblue" points="127.76,-141.49 137.6,-145.43 132.37,-136.21 127.76,-141.49"/>
</g>
<!-- Node3 -->
<g id="node3" class="node">
<title>Node3</title>
<g id="a_node3"><a xlink:href="rostopic__dumper_8h.html" target="_top" xlink:title=" ">
<polygon fill="none" stroke="black" points="164,-67.5 164,-108.5 330,-108.5 330,-67.5 164,-67.5"/>
<text text-anchor="start" x="172" y="-96.5" font-family="Helvetica,sans-Serif" font-size="10.00">seerep_ros/seerep_ros</text>
<text text-anchor="start" x="172" y="-85.5" font-family="Helvetica,sans-Serif" font-size="10.00">_comm/include/seerep</text>
<text text-anchor="middle" x="247" y="-74.5" font-family="Helvetica,sans-Serif" font-size="10.00">_ros_comm/rostopic_dumper.h</text>
</a>
</g>
</g>
<!-- Node1&#45;&gt;Node3 -->
<g id="edge2" class="edge">
<title>Node1&#45;&gt;Node3</title>
<path fill="none" stroke="midnightblue" d="M190.02,-138.78C201.39,-128.84 214.13,-117.72 224.67,-108.51"/>
<polygon fill="midnightblue" stroke="midnightblue" points="187.63,-136.21 182.4,-145.43 192.24,-141.49 187.63,-136.21"/>
</g>
<!-- Node4 -->
<g id="node4" class="node">
<title>Node4</title>
<g id="a_node4"><a xlink:href="rostopic__dumper_8cpp.html" target="_top" xlink:title=" ">
<polygon fill="none" stroke="black" points="160,-0.5 160,-30.5 334,-30.5 334,-0.5 160,-0.5"/>
<text text-anchor="start" x="168" y="-18.5" font-family="Helvetica,sans-Serif" font-size="10.00">seerep_ros/seerep_ros</text>
<text text-anchor="middle" x="247" y="-7.5" font-family="Helvetica,sans-Serif" font-size="10.00">_comm/src/rostopic_dumper.cpp</text>
</a>
</g>
</g>
<!-- Node3&#45;&gt;Node4 -->
<g id="edge3" class="edge">
<title>Node3&#45;&gt;Node4</title>
<path fill="none" stroke="midnightblue" d="M247,-57.08C247,-48.01 247,-38.45 247,-30.89"/>
<polygon fill="midnightblue" stroke="midnightblue" points="243.5,-57.36 247,-67.36 250.5,-57.36 243.5,-57.36"/>
</g>
</g>
</svg>
