<?xml version="1.0" encoding="UTF-8" standalone="no"?>
<!DOCTYPE svg PUBLIC "-//W3C//DTD SVG 1.1//EN"
 "http://www.w3.org/Graphics/SVG/1.1/DTD/svg11.dtd">
<!-- Generated by graphviz version 2.43.0 (0)
 -->
<!-- Title: seerep_hdf5/seerep_hdf5_pb/include/seerep_hdf5_pb/hdf5_pb_tf.h Pages: 1 -->
<svg width="2490pt" height="251pt"
 viewBox="0.00 0.00 2490.00 251.00" xmlns="http://www.w3.org/2000/svg" xmlns:xlink="http://www.w3.org/1999/xlink">
<g id="graph0" class="graph" transform="scale(1 1) rotate(0) translate(4 247)">
<title>seerep_hdf5/seerep_hdf5_pb/include/seerep_hdf5_pb/hdf5_pb_tf.h</title>
<!-- Node1 -->
<g id="node1" class="node">
<title>Node1</title>
<g id="a_node1"><a xlink:title=" ">
<polygon fill="#bfbfbf" stroke="black" points="2216.5,-201.5 2216.5,-242.5 2351.5,-242.5 2351.5,-201.5 2216.5,-201.5"/>
<text text-anchor="start" x="2224.5" y="-230.5" font-family="Helvetica,sans-Serif" font-size="10.00">seerep_hdf5/seerep</text>
<text text-anchor="start" x="2224.5" y="-219.5" font-family="Helvetica,sans-Serif" font-size="10.00">_hdf5_pb/include/seerep</text>
<text text-anchor="middle" x="2284" y="-208.5" font-family="Helvetica,sans-Serif" font-size="10.00">_hdf5_pb/hdf5_pb_tf.h</text>
</a>
</g>
</g>
<!-- Node2 -->
<g id="node2" class="node">
<title>Node2</title>
<g id="a_node2"><a xlink:title=" ">
<polygon fill="none" stroke="#bfbfbf" points="0,-6 0,-25 110,-25 110,-6 0,-6"/>
<text text-anchor="middle" x="55" y="-13" font-family="Helvetica,sans-Serif" font-size="10.00">highfive/H5File.hpp</text>
</a>
</g>
</g>
<!-- Node1&#45;&gt;Node2 -->
<g id="edge1" class="edge">
<title>Node1&#45;&gt;Node2</title>
<path fill="none" stroke="midnightblue" d="M2216.3,-218.91C2045.48,-213.33 1583.21,-196.34 1199,-165 931.56,-143.19 865.23,-131.44 599,-98 385.28,-71.16 330.89,-69.72 119,-31 112.82,-29.87 106.34,-28.56 99.96,-27.19"/>
<polygon fill="midnightblue" stroke="midnightblue" points="100.62,-23.75 90.1,-25.01 99.11,-30.58 100.62,-23.75"/>
</g>
<!-- Node3 -->
<g id="node3" class="node">
<title>Node3</title>
<g id="a_node3"><a xlink:href="hdf5__pb__general_8h.html" target="_top" xlink:title=" ">
<polygon fill="none" stroke="black" points="1207.5,-140 1207.5,-159 1314.5,-159 1314.5,-140 1207.5,-140"/>
<text text-anchor="middle" x="1261" y="-147" font-family="Helvetica,sans-Serif" font-size="10.00">hdf5_pb_general.h</text>
</a>
</g>
</g>
<!-- Node1&#45;&gt;Node3 -->
<g id="edge2" class="edge">
<title>Node1&#45;&gt;Node3</title>
<path fill="none" stroke="midnightblue" d="M2216.48,-216.35C2029.6,-203.47 1507.29,-167.47 1324.86,-154.9"/>
<polygon fill="midnightblue" stroke="midnightblue" points="1324.84,-151.39 1314.62,-154.2 1324.36,-158.37 1324.84,-151.39"/>
</g>
<!-- Node10 -->
<g id="node10" class="node">
<title>Node10</title>
<g id="a_node10"><a xlink:title=" ">
<polygon fill="none" stroke="#bfbfbf" points="2253.5,-6 2253.5,-25 2366.5,-25 2366.5,-6 2253.5,-6"/>
<text text-anchor="middle" x="2310" y="-13" font-family="Helvetica,sans-Serif" font-size="10.00">boost/geometry.hpp</text>
</a>
</g>
</g>
<!-- Node1&#45;&gt;Node10 -->
<g id="edge32" class="edge">
<title>Node1&#45;&gt;Node10</title>
<path fill="none" stroke="midnightblue" d="M2286.49,-201.39C2291.49,-162.07 2302.68,-74.06 2307.6,-35.36"/>
<polygon fill="midnightblue" stroke="midnightblue" points="2311.12,-35.41 2308.91,-25.04 2304.18,-34.52 2311.12,-35.41"/>
</g>
<!-- Node12 -->
<g id="node12" class="node">
<title>Node12</title>
<g id="a_node12"><a xlink:title=" ">
<polygon fill="none" stroke="#bfbfbf" points="2385,-6 2385,-25 2441,-25 2441,-6 2385,-6"/>
<text text-anchor="middle" x="2413" y="-13" font-family="Helvetica,sans-Serif" font-size="10.00">optional</text>
</a>
</g>
</g>
<!-- Node1&#45;&gt;Node12 -->
<g id="edge33" class="edge">
<title>Node1&#45;&gt;Node12</title>
<path fill="none" stroke="midnightblue" d="M2296.37,-201.39C2321.49,-161.56 2378.13,-71.77 2402.03,-33.89"/>
<polygon fill="midnightblue" stroke="midnightblue" points="2405.23,-35.37 2407.61,-25.04 2399.31,-31.64 2405.23,-35.37"/>
</g>
<!-- Node26 -->
<g id="node26" class="node">
<title>Node26</title>
<g id="a_node26"><a xlink:title=" ">
<polygon fill="none" stroke="#bfbfbf" points="2350,-134.5 2350,-164.5 2482,-164.5 2482,-134.5 2350,-134.5"/>
<text text-anchor="start" x="2358" y="-152.5" font-family="Helvetica,sans-Serif" font-size="10.00">seerep_msgs/transform</text>
<text text-anchor="middle" x="2416" y="-141.5" font-family="Helvetica,sans-Serif" font-size="10.00">_stamped.pb.h</text>
</a>
</g>
</g>
<!-- Node1&#45;&gt;Node26 -->
<g id="edge31" class="edge">
<title>Node1&#45;&gt;Node26</title>
<path fill="none" stroke="midnightblue" d="M2320.77,-201.36C2339.43,-191.39 2362.01,-179.34 2380.49,-169.47"/>
<polygon fill="midnightblue" stroke="midnightblue" points="2382.3,-172.47 2389.47,-164.67 2379,-166.29 2382.3,-172.47"/>
</g>
<!-- Node3&#45;&gt;Node2 -->
<g id="edge3" class="edge">
<title>Node3&#45;&gt;Node2</title>
<path fill="none" stroke="midnightblue" d="M1257.98,-139.83C1251.36,-122.33 1233.75,-83.13 1204,-67 1097.96,-9.51 238.64,-46.4 119,-31 111.78,-30.07 104.17,-28.7 96.82,-27.17"/>
<polygon fill="midnightblue" stroke="midnightblue" points="97.54,-23.74 87.02,-25 96.03,-30.58 97.54,-23.74"/>
</g>
<!-- Node4 -->
<g id="node4" class="node">
<title>Node4</title>
<g id="a_node4"><a xlink:href="hdf5__core__general_8h.html" target="_top" xlink:title=" ">
<polygon fill="none" stroke="black" points="1289,-67.5 1289,-97.5 1417,-97.5 1417,-67.5 1289,-67.5"/>
<text text-anchor="start" x="1297" y="-85.5" font-family="Helvetica,sans-Serif" font-size="10.00">seerep_hdf5_core/hdf5</text>
<text text-anchor="middle" x="1353" y="-74.5" font-family="Helvetica,sans-Serif" font-size="10.00">_core_general.h</text>
</a>
</g>
</g>
<!-- Node3&#45;&gt;Node4 -->
<g id="edge4" class="edge">
<title>Node3&#45;&gt;Node4</title>
<path fill="none" stroke="midnightblue" d="M1273.41,-139.73C1286.44,-130.53 1307.38,-115.73 1324.51,-103.63"/>
<polygon fill="midnightblue" stroke="midnightblue" points="1326.91,-106.22 1333.06,-97.59 1322.87,-100.5 1326.91,-106.22"/>
</g>
<!-- Node3&#45;&gt;Node10 -->
<g id="edge25" class="edge">
<title>Node3&#45;&gt;Node10</title>
<path fill="none" stroke="midnightblue" d="M1314.65,-144.29C1463.3,-132.16 1892.72,-93.92 2245,-31 2251.27,-29.88 2257.86,-28.57 2264.33,-27.2"/>
<polygon fill="midnightblue" stroke="midnightblue" points="2265.32,-30.57 2274.35,-25.03 2263.84,-23.73 2265.32,-30.57"/>
</g>
<!-- Node3&#45;&gt;Node12 -->
<g id="edge27" class="edge">
<title>Node3&#45;&gt;Node12</title>
<path fill="none" stroke="midnightblue" d="M1314.87,-145.48C1426.11,-139 1689.17,-122.31 1909,-98 2117.41,-74.95 2173.26,-84.5 2376,-31 2378.66,-30.3 2381.39,-29.46 2384.1,-28.55"/>
<polygon fill="midnightblue" stroke="midnightblue" points="2385.51,-31.76 2393.69,-25.04 2383.1,-25.19 2385.51,-31.76"/>
</g>
<!-- Node14 -->
<g id="node14" class="node">
<title>Node14</title>
<g id="a_node14"><a xlink:title=" ">
<polygon fill="none" stroke="#bfbfbf" points="2090.5,-0.5 2090.5,-30.5 2235.5,-30.5 2235.5,-0.5 2090.5,-0.5"/>
<text text-anchor="start" x="2098.5" y="-18.5" font-family="Helvetica,sans-Serif" font-size="10.00">boost/log/sources/severity</text>
<text text-anchor="middle" x="2163" y="-7.5" font-family="Helvetica,sans-Serif" font-size="10.00">_logger.hpp</text>
</a>
</g>
</g>
<!-- Node3&#45;&gt;Node14 -->
<g id="edge28" class="edge">
<title>Node3&#45;&gt;Node14</title>
<path fill="none" stroke="midnightblue" d="M1314.82,-141.41C1444.55,-124.18 1784.96,-78.18 2080.1,-31.11"/>
<polygon fill="midnightblue" stroke="midnightblue" points="2080.82,-34.54 2090.14,-29.51 2079.72,-27.63 2080.82,-34.54"/>
</g>
<!-- Node15 -->
<g id="node15" class="node">
<title>Node15</title>
<g id="a_node15"><a xlink:title=" ">
<polygon fill="none" stroke="#bfbfbf" points="128,-6 128,-25 242,-25 242,-6 128,-6"/>
<text text-anchor="middle" x="185" y="-13" font-family="Helvetica,sans-Serif" font-size="10.00">boost/log/trivial.hpp</text>
</a>
</g>
</g>
<!-- Node3&#45;&gt;Node15 -->
<g id="edge29" class="edge">
<title>Node3&#45;&gt;Node15</title>
<path fill="none" stroke="midnightblue" d="M1261.43,-139.83C1261.75,-122.7 1259.71,-84.65 1237,-67 1193.71,-33.37 305.38,-37.91 251,-31 243.64,-30.06 235.89,-28.71 228.39,-27.19"/>
<polygon fill="midnightblue" stroke="midnightblue" points="228.88,-23.72 218.37,-25.05 227.42,-30.56 228.88,-23.72"/>
</g>
<!-- Node22 -->
<g id="node22" class="node">
<title>Node22</title>
<g id="a_node22"><a xlink:title=" ">
<polygon fill="none" stroke="#bfbfbf" points="608.5,-73 608.5,-92 749.5,-92 749.5,-73 608.5,-73"/>
<text text-anchor="middle" x="679" y="-80" font-family="Helvetica,sans-Serif" font-size="10.00">seerep_msgs/header.pb.h</text>
</a>
</g>
</g>
<!-- Node3&#45;&gt;Node22 -->
<g id="edge23" class="edge">
<title>Node3&#45;&gt;Node22</title>
<path fill="none" stroke="midnightblue" d="M1207.23,-144.55C1115.02,-137.45 920.93,-121.09 758,-98 749.57,-96.8 740.66,-95.35 731.98,-93.84"/>
<polygon fill="midnightblue" stroke="midnightblue" points="732.41,-90.36 721.95,-92.04 731.17,-97.25 732.41,-90.36"/>
</g>
<!-- Node23 -->
<g id="node23" class="node">
<title>Node23</title>
<g id="a_node23"><a xlink:title=" ">
<polygon fill="none" stroke="#bfbfbf" points="767.5,-73 767.5,-92 946.5,-92 946.5,-73 767.5,-73"/>
<text text-anchor="middle" x="857" y="-80" font-family="Helvetica,sans-Serif" font-size="10.00">seerep_msgs/label_category.pb.h</text>
</a>
</g>
</g>
<!-- Node3&#45;&gt;Node23 -->
<g id="edge24" class="edge">
<title>Node3&#45;&gt;Node23</title>
<path fill="none" stroke="midnightblue" d="M1207.77,-139.94C1133.64,-128.01 999.53,-106.43 920.35,-93.69"/>
<polygon fill="midnightblue" stroke="midnightblue" points="920.46,-90.16 910.03,-92.03 919.35,-97.08 920.46,-90.16"/>
</g>
<!-- Node24 -->
<g id="node24" class="node">
<title>Node24</title>
<g id="a_node24"><a xlink:title=" ">
<polygon fill="none" stroke="#bfbfbf" points="965,-73 965,-92 1033,-92 1033,-73 965,-73"/>
<text text-anchor="middle" x="999" y="-80" font-family="Helvetica,sans-Serif" font-size="10.00">filesystem</text>
</a>
</g>
</g>
<!-- Node3&#45;&gt;Node24 -->
<g id="edge26" class="edge">
<title>Node3&#45;&gt;Node24</title>
<path fill="none" stroke="midnightblue" d="M1218.92,-139.94C1174.81,-130.68 1103.61,-114.97 1043,-98 1039.82,-97.11 1036.54,-96.13 1033.26,-95.12"/>
<polygon fill="midnightblue" stroke="midnightblue" points="1034.14,-91.73 1023.55,-92.03 1032.01,-98.4 1034.14,-91.73"/>
</g>
<!-- Node25 -->
<g id="node25" class="node">
<title>Node25</title>
<g id="a_node25"><a xlink:title=" ">
<polygon fill="none" stroke="#bfbfbf" points="1051.5,-73 1051.5,-92 1194.5,-92 1194.5,-73 1051.5,-73"/>
<text text-anchor="middle" x="1123" y="-80" font-family="Helvetica,sans-Serif" font-size="10.00">impl/hdf5_pb_general.hpp</text>
</a>
</g>
</g>
<!-- Node3&#45;&gt;Node25 -->
<g id="edge30" class="edge">
<title>Node3&#45;&gt;Node25</title>
<path fill="none" stroke="midnightblue" d="M1242.67,-139.87C1219.06,-128.75 1177.81,-109.32 1150.45,-96.43"/>
<polygon fill="midnightblue" stroke="midnightblue" points="1151.94,-93.26 1141.4,-92.17 1148.96,-99.59 1151.94,-93.26"/>
</g>
<!-- Node4&#45;&gt;Node2 -->
<g id="edge5" class="edge">
<title>Node4&#45;&gt;Node2</title>
<path fill="none" stroke="midnightblue" d="M1288.99,-72.43C1272.11,-70.33 1253.89,-68.33 1237,-67 741.38,-28.13 612.11,-94.21 119,-31 111.77,-30.07 104.17,-28.71 96.82,-27.17"/>
<polygon fill="midnightblue" stroke="midnightblue" points="97.54,-23.75 87.02,-25.01 96.03,-30.58 97.54,-23.75"/>
</g>
<!-- Node5 -->
<g id="node5" class="node">
<title>Node5</title>
<g id="a_node5"><a xlink:title=" ">
<polygon fill="none" stroke="#bfbfbf" points="260.5,-6 260.5,-25 377.5,-25 377.5,-6 260.5,-6"/>
<text text-anchor="middle" x="319" y="-13" font-family="Helvetica,sans-Serif" font-size="10.00">seerep_msgs/aabb.h</text>
</a>
</g>
</g>
<!-- Node4&#45;&gt;Node5 -->
<g id="edge6" class="edge">
<title>Node4&#45;&gt;Node5</title>
<path fill="none" stroke="midnightblue" d="M1288.84,-68.82C1284.17,-68.13 1279.52,-67.51 1275,-67 882.05,-22.75 778.26,-81.01 386,-31 378.45,-30.04 370.49,-28.65 362.79,-27.11"/>
<polygon fill="midnightblue" stroke="midnightblue" points="363.39,-23.66 352.89,-25.02 361.95,-30.51 363.39,-23.66"/>
</g>
<!-- Node6 -->
<g id="node6" class="node">
<title>Node6</title>
<g id="a_node6"><a xlink:title=" ">
<polygon fill="none" stroke="#bfbfbf" points="1422.5,-0.5 1422.5,-30.5 1543.5,-30.5 1543.5,-0.5 1422.5,-0.5"/>
<text text-anchor="start" x="1430.5" y="-18.5" font-family="Helvetica,sans-Serif" font-size="10.00">seerep_msgs/dataset</text>
<text text-anchor="middle" x="1483" y="-7.5" font-family="Helvetica,sans-Serif" font-size="10.00">_indexable.h</text>
</a>
</g>
</g>
<!-- Node4&#45;&gt;Node6 -->
<g id="edge7" class="edge">
<title>Node4&#45;&gt;Node6</title>
<path fill="none" stroke="midnightblue" d="M1381.21,-67.4C1400.12,-57.94 1425.22,-45.39 1445.77,-35.12"/>
<polygon fill="midnightblue" stroke="midnightblue" points="1447.47,-38.18 1454.85,-30.58 1444.34,-31.92 1447.47,-38.18"/>
</g>
<!-- Node7 -->
<g id="node7" class="node">
<title>Node7</title>
<g id="a_node7"><a xlink:title=" ">
<polygon fill="none" stroke="#bfbfbf" points="1562,-0.5 1562,-30.5 1688,-30.5 1688,-0.5 1562,-0.5"/>
<text text-anchor="start" x="1570" y="-18.5" font-family="Helvetica,sans-Serif" font-size="10.00">seerep_msgs/geodetic</text>
<text text-anchor="middle" x="1625" y="-7.5" font-family="Helvetica,sans-Serif" font-size="10.00">_coordinates.h</text>
</a>
</g>
</g>
<!-- Node4&#45;&gt;Node7 -->
<g id="edge8" class="edge">
<title>Node4&#45;&gt;Node7</title>
<path fill="none" stroke="midnightblue" d="M1411.69,-67.48C1454.08,-57.34 1511.49,-43.63 1556.07,-32.97"/>
<polygon fill="midnightblue" stroke="midnightblue" points="1557.04,-36.34 1565.95,-30.61 1555.41,-29.53 1557.04,-36.34"/>
</g>
<!-- Node8 -->
<g id="node8" class="node">
<title>Node8</title>
<g id="a_node8"><a xlink:title=" ">
<polygon fill="none" stroke="#bfbfbf" points="1706.5,-6 1706.5,-25 1823.5,-25 1823.5,-6 1706.5,-6"/>
<text text-anchor="middle" x="1765" y="-13" font-family="Helvetica,sans-Serif" font-size="10.00">seerep_msgs/label.h</text>
</a>
</g>
</g>
<!-- Node4&#45;&gt;Node8 -->
<g id="edge9" class="edge">
<title>Node4&#45;&gt;Node8</title>
<path fill="none" stroke="midnightblue" d="M1417.23,-73.33C1486.49,-64.22 1599.87,-48.47 1697,-31 1703.39,-29.85 1710.1,-28.54 1716.71,-27.2"/>
<polygon fill="midnightblue" stroke="midnightblue" points="1717.89,-30.53 1726.96,-25.06 1716.46,-23.67 1717.89,-30.53"/>
</g>
<!-- Node9 -->
<g id="node9" class="node">
<title>Node9</title>
<g id="a_node9"><a xlink:title=" ">
<polygon fill="none" stroke="#bfbfbf" points="1842,-6 1842,-25 2006,-25 2006,-6 1842,-6"/>
<text text-anchor="middle" x="1924" y="-13" font-family="Helvetica,sans-Serif" font-size="10.00">seerep_msgs/label_category.h</text>
</a>
</g>
</g>
<!-- Node4&#45;&gt;Node9 -->
<g id="edge10" class="edge">
<title>Node4&#45;&gt;Node9</title>
<path fill="none" stroke="midnightblue" d="M1417.18,-75.84C1509.36,-67.47 1684.51,-50.63 1833,-31 1842.87,-29.7 1853.32,-28.17 1863.49,-26.6"/>
<polygon fill="midnightblue" stroke="midnightblue" points="1864.19,-30.04 1873.53,-25.03 1863.11,-23.12 1864.19,-30.04"/>
</g>
<!-- Node4&#45;&gt;Node10 -->
<g id="edge11" class="edge">
<title>Node4&#45;&gt;Node10</title>
<path fill="none" stroke="midnightblue" d="M1417.16,-81.44C1564.28,-80.53 1936.96,-73.79 2245,-31 2252,-30.03 2259.37,-28.69 2266.52,-27.22"/>
<polygon fill="midnightblue" stroke="midnightblue" points="2267.75,-30.54 2276.79,-25 2266.27,-23.7 2267.75,-30.54"/>
</g>
<!-- Node11 -->
<g id="node11" class="node">
<title>Node11</title>
<g id="a_node11"><a xlink:title=" ">
<polygon fill="none" stroke="#bfbfbf" points="2024,-6 2024,-25 2072,-25 2072,-6 2024,-6"/>
<text text-anchor="middle" x="2048" y="-13" font-family="Helvetica,sans-Serif" font-size="10.00">mutex</text>
</a>
</g>
</g>
<!-- Node4&#45;&gt;Node11 -->
<g id="edge12" class="edge">
<title>Node4&#45;&gt;Node11</title>
<path fill="none" stroke="midnightblue" d="M1417.05,-79.36C1560.32,-74.13 1902.9,-59.04 2015,-31 2017.36,-30.41 2019.76,-29.67 2022.13,-28.83"/>
<polygon fill="midnightblue" stroke="midnightblue" points="2023.64,-32 2031.6,-25.01 2021.02,-25.51 2023.64,-32"/>
</g>
<!-- Node4&#45;&gt;Node12 -->
<g id="edge13" class="edge">
<title>Node4&#45;&gt;Node12</title>
<path fill="none" stroke="midnightblue" d="M1417.28,-81.04C1611.77,-79.22 2191.82,-70.53 2376,-31 2379.01,-30.35 2382.09,-29.49 2385.12,-28.51"/>
<polygon fill="midnightblue" stroke="midnightblue" points="2386.34,-31.8 2394.54,-25.09 2383.95,-25.22 2386.34,-31.8"/>
</g>
<!-- Node13 -->
<g id="node13" class="node">
<title>Node13</title>
<g id="a_node13"><a xlink:title=" ">
<polygon fill="none" stroke="#bfbfbf" points="395.5,-6 395.5,-25 464.5,-25 464.5,-6 395.5,-6"/>
<text text-anchor="middle" x="430" y="-13" font-family="Helvetica,sans-Serif" font-size="10.00">type_traits</text>
</a>
</g>
</g>
<!-- Node4&#45;&gt;Node13 -->
<g id="edge14" class="edge">
<title>Node4&#45;&gt;Node13</title>
<path fill="none" stroke="midnightblue" d="M1288.83,-68.84C1284.16,-68.14 1279.52,-67.52 1275,-67 920.53,-26.3 823.71,-96.65 473,-31 469.1,-30.27 465.08,-29.27 461.12,-28.13"/>
<polygon fill="midnightblue" stroke="midnightblue" points="462.15,-24.78 451.56,-25.09 460.03,-31.45 462.15,-24.78"/>
</g>
<!-- Node4&#45;&gt;Node14 -->
<g id="edge15" class="edge">
<title>Node4&#45;&gt;Node14</title>
<path fill="none" stroke="midnightblue" d="M1417,-79.34C1542.33,-74.6 1829.04,-61.34 2080.14,-31.01"/>
<polygon fill="midnightblue" stroke="midnightblue" points="2080.68,-34.47 2090.18,-29.79 2079.83,-27.52 2080.68,-34.47"/>
</g>
<!-- Node4&#45;&gt;Node15 -->
<g id="edge16" class="edge">
<title>Node4&#45;&gt;Node15</title>
<path fill="none" stroke="midnightblue" d="M1288.84,-68.79C1284.17,-68.11 1279.52,-67.5 1275,-67 822.33,-17.25 702.8,-88.09 251,-31 243.64,-30.07 235.89,-28.71 228.38,-27.2"/>
<polygon fill="midnightblue" stroke="midnightblue" points="228.88,-23.73 218.37,-25.06 227.42,-30.57 228.88,-23.73"/>
</g>
<!-- Node16 -->
<g id="node16" class="node">
<title>Node16</title>
<g id="a_node16"><a xlink:title=" ">
<polygon fill="none" stroke="#bfbfbf" points="482.5,-6 482.5,-25 625.5,-25 625.5,-6 482.5,-6"/>
<text text-anchor="middle" x="554" y="-13" font-family="Helvetica,sans-Serif" font-size="10.00">boost/functional/hash.hpp</text>
</a>
</g>
</g>
<!-- Node4&#45;&gt;Node16 -->
<g id="edge17" class="edge">
<title>Node4&#45;&gt;Node16</title>
<path fill="none" stroke="midnightblue" d="M1288.83,-68.9C1284.16,-68.19 1279.51,-67.54 1275,-67 991.71,-32.86 917.36,-64.51 634,-31 624.74,-29.9 614.92,-28.41 605.46,-26.79"/>
<polygon fill="midnightblue" stroke="midnightblue" points="605.83,-23.3 595.38,-25 604.61,-30.19 605.83,-23.3"/>
</g>
<!-- Node17 -->
<g id="node17" class="node">
<title>Node17</title>
<g id="a_node17"><a xlink:title=" ">
<polygon fill="none" stroke="#bfbfbf" points="643.5,-6 643.5,-25 768.5,-25 768.5,-6 643.5,-6"/>
<text text-anchor="middle" x="706" y="-13" font-family="Helvetica,sans-Serif" font-size="10.00">boost/lexical_cast.hpp</text>
</a>
</g>
</g>
<!-- Node4&#45;&gt;Node17 -->
<g id="edge18" class="edge">
<title>Node4&#45;&gt;Node17</title>
<path fill="none" stroke="midnightblue" d="M1288.82,-68.98C1284.15,-68.25 1279.51,-67.58 1275,-67 1054.9,-38.68 996.84,-61.26 777,-31 769.2,-29.93 760.97,-28.51 752.99,-26.99"/>
<polygon fill="midnightblue" stroke="midnightblue" points="753.55,-23.53 743.06,-25.01 752.19,-30.39 753.55,-23.53"/>
</g>
<!-- Node18 -->
<g id="node18" class="node">
<title>Node18</title>
<g id="a_node18"><a xlink:title=" ">
<polygon fill="none" stroke="#bfbfbf" points="786.5,-6 786.5,-25 899.5,-25 899.5,-6 786.5,-6"/>
<text text-anchor="middle" x="843" y="-13" font-family="Helvetica,sans-Serif" font-size="10.00">boost/uuid/uuid.hpp</text>
</a>
</g>
</g>
<!-- Node4&#45;&gt;Node18 -->
<g id="edge19" class="edge">
<title>Node4&#45;&gt;Node18</title>
<path fill="none" stroke="midnightblue" d="M1288.8,-69.11C1284.14,-68.35 1279.5,-67.64 1275,-67 1113.17,-44.04 1070.44,-56.58 909,-31 902.23,-29.93 895.11,-28.59 888.15,-27.16"/>
<polygon fill="midnightblue" stroke="midnightblue" points="888.64,-23.69 878.13,-25.03 887.18,-30.53 888.64,-23.69"/>
</g>
<!-- Node19 -->
<g id="node19" class="node">
<title>Node19</title>
<g id="a_node19"><a xlink:title=" ">
<polygon fill="none" stroke="#bfbfbf" points="918,-6 918,-25 1088,-25 1088,-6 918,-6"/>
<text text-anchor="middle" x="1003" y="-13" font-family="Helvetica,sans-Serif" font-size="10.00">boost/uuid/uuid_generators.hpp</text>
</a>
</g>
</g>
<!-- Node4&#45;&gt;Node19 -->
<g id="edge20" class="edge">
<title>Node4&#45;&gt;Node19</title>
<path fill="none" stroke="midnightblue" d="M1288.73,-69.55C1284.08,-68.69 1279.47,-67.83 1275,-67 1200.32,-53.13 1114.1,-37.12 1059.1,-26.91"/>
<polygon fill="midnightblue" stroke="midnightblue" points="1059.67,-23.46 1049.2,-25.07 1058.4,-30.34 1059.67,-23.46"/>
</g>
<!-- Node20 -->
<g id="node20" class="node">
<title>Node20</title>
<g id="a_node20"><a xlink:title=" ">
<polygon fill="none" stroke="#bfbfbf" points="1106.5,-6 1106.5,-25 1233.5,-25 1233.5,-6 1106.5,-6"/>
<text text-anchor="middle" x="1170" y="-13" font-family="Helvetica,sans-Serif" font-size="10.00">boost/uuid/uuid_io.hpp</text>
</a>
</g>
</g>
<!-- Node4&#45;&gt;Node20 -->
<g id="edge21" class="edge">
<title>Node4&#45;&gt;Node20</title>
<path fill="none" stroke="midnightblue" d="M1313.29,-67.4C1280.47,-55.74 1234.4,-39.37 1203.44,-28.38"/>
<polygon fill="midnightblue" stroke="midnightblue" points="1204.55,-25.06 1193.95,-25.01 1202.2,-31.65 1204.55,-25.06"/>
</g>
<!-- Node21 -->
<g id="node21" class="node">
<title>Node21</title>
<g id="a_node21"><a xlink:title=" ">
<polygon fill="none" stroke="#bfbfbf" points="1252,-6 1252,-25 1404,-25 1404,-6 1252,-6"/>
<text text-anchor="middle" x="1328" y="-13" font-family="Helvetica,sans-Serif" font-size="10.00">impl/hdf5_core_general.hpp</text>
</a>
</g>
</g>
<!-- Node4&#45;&gt;Node21 -->
<g id="edge22" class="edge">
<title>Node4&#45;&gt;Node21</title>
<path fill="none" stroke="midnightblue" d="M1347.58,-67.4C1343.87,-57.76 1338.93,-44.91 1334.94,-34.54"/>
<polygon fill="midnightblue" stroke="midnightblue" points="1338.2,-33.27 1331.34,-25.19 1331.67,-35.78 1338.2,-33.27"/>
</g>
</g>
</svg>
