<?xml version="1.0" encoding="UTF-8" standalone="no"?>
<!DOCTYPE svg PUBLIC "-//W3C//DTD SVG 1.1//EN"
 "http://www.w3.org/Graphics/SVG/1.1/DTD/svg11.dtd">
<!-- Generated by graphviz version 2.43.0 (0)
 -->
<!-- Title: seerep&#45;hdf5/seerep&#45;hdf5&#45;fb/include/seerep&#45;hdf5&#45;fb/hdf5&#45;fb&#45;general.h Pages: 1 -->
<svg width="1822pt" height="184pt"
 viewBox="0.00 0.00 1822.00 184.00" xmlns="http://www.w3.org/2000/svg" xmlns:xlink="http://www.w3.org/1999/xlink">
<g id="graph0" class="graph" transform="scale(1 1) rotate(0) translate(4 180)">
<title>seerep&#45;hdf5/seerep&#45;hdf5&#45;fb/include/seerep&#45;hdf5&#45;fb/hdf5&#45;fb&#45;general.h</title>
<!-- Node1 -->
<g id="node1" class="node">
<title>Node1</title>
<g id="a_node1"><a xlink:title=" ">
<polygon fill="#bfbfbf" stroke="black" points="817.5,-134.5 817.5,-175.5 960.5,-175.5 960.5,-134.5 817.5,-134.5"/>
<text text-anchor="start" x="825.5" y="-163.5" font-family="Helvetica,sans-Serif" font-size="10.00">seerep&#45;hdf5/seerep</text>
<text text-anchor="start" x="825.5" y="-152.5" font-family="Helvetica,sans-Serif" font-size="10.00">&#45;hdf5&#45;fb/include/seerep</text>
<text text-anchor="middle" x="889" y="-141.5" font-family="Helvetica,sans-Serif" font-size="10.00">&#45;hdf5&#45;fb/hdf5&#45;fb&#45;general.h</text>
</a>
</g>
</g>
<!-- Node2 -->
<g id="node2" class="node">
<title>Node2</title>
<g id="a_node2"><a xlink:title=" ">
<polygon fill="none" stroke="#bfbfbf" points="0,-6 0,-25 110,-25 110,-6 0,-6"/>
<text text-anchor="middle" x="55" y="-13" font-family="Helvetica,sans-Serif" font-size="10.00">highfive/H5File.hpp</text>
</a>
</g>
</g>
<!-- Node1&#45;&gt;Node2 -->
<g id="edge1" class="edge">
<title>Node1&#45;&gt;Node2</title>
<path fill="none" stroke="midnightblue" d="M817.4,-148.35C722.28,-140.25 549.22,-123.46 403,-98 290.72,-78.45 160.41,-45 95.75,-27.66"/>
<polygon fill="midnightblue" stroke="midnightblue" points="96.51,-24.24 85.95,-25.02 94.69,-31 96.51,-24.24"/>
</g>
<!-- Node3 -->
<g id="node3" class="node">
<title>Node3</title>
<g id="a_node3"><a xlink:href="hdf5-core-general_8h.html" target="_top" xlink:title=" ">
<polygon fill="none" stroke="black" points="555.5,-67.5 555.5,-97.5 680.5,-97.5 680.5,-67.5 555.5,-67.5"/>
<text text-anchor="start" x="563.5" y="-85.5" font-family="Helvetica,sans-Serif" font-size="10.00">seerep&#45;hdf5&#45;core/hdf5</text>
<text text-anchor="middle" x="618" y="-74.5" font-family="Helvetica,sans-Serif" font-size="10.00">&#45;core&#45;general.h</text>
</a>
</g>
</g>
<!-- Node1&#45;&gt;Node3 -->
<g id="edge2" class="edge">
<title>Node1&#45;&gt;Node3</title>
<path fill="none" stroke="midnightblue" d="M817.44,-135.38C775.29,-124.42 722.41,-110.66 681.7,-100.07"/>
<polygon fill="midnightblue" stroke="midnightblue" points="682.45,-96.65 671.89,-97.52 680.69,-103.42 682.45,-96.65"/>
</g>
<!-- Node6 -->
<g id="node6" class="node">
<title>Node6</title>
<g id="a_node6"><a xlink:title=" ">
<polygon fill="none" stroke="#bfbfbf" points="128.5,-6 128.5,-25 241.5,-25 241.5,-6 128.5,-6"/>
<text text-anchor="middle" x="185" y="-13" font-family="Helvetica,sans-Serif" font-size="10.00">boost/geometry.hpp</text>
</a>
</g>
</g>
<!-- Node1&#45;&gt;Node6 -->
<g id="edge17" class="edge">
<title>Node1&#45;&gt;Node6</title>
<path fill="none" stroke="midnightblue" d="M817.17,-143.56C747.62,-133.15 639.29,-116.13 546,-98 431.27,-75.7 297.31,-43.94 229.38,-27.43"/>
<polygon fill="midnightblue" stroke="midnightblue" points="230,-23.97 219.45,-25.01 228.34,-30.77 230,-23.97"/>
</g>
<!-- Node7 -->
<g id="node7" class="node">
<title>Node7</title>
<g id="a_node7"><a xlink:title=" ">
<polygon fill="none" stroke="#bfbfbf" points="698,-6 698,-25 746,-25 746,-6 698,-6"/>
<text text-anchor="middle" x="722" y="-13" font-family="Helvetica,sans-Serif" font-size="10.00">mutex</text>
</a>
</g>
</g>
<!-- Node1&#45;&gt;Node7 -->
<g id="edge19" class="edge">
<title>Node1&#45;&gt;Node7</title>
<path fill="none" stroke="midnightblue" d="M850.21,-134.39C832.55,-124.6 811.86,-111.89 795,-98 771.15,-78.36 748.14,-50.78 734.53,-33.27"/>
<polygon fill="midnightblue" stroke="midnightblue" points="737.16,-30.96 728.31,-25.13 731.6,-35.21 737.16,-30.96"/>
</g>
<!-- Node8 -->
<g id="node8" class="node">
<title>Node8</title>
<g id="a_node8"><a xlink:title=" ">
<polygon fill="none" stroke="#bfbfbf" points="764,-6 764,-25 820,-25 820,-6 764,-6"/>
<text text-anchor="middle" x="792" y="-13" font-family="Helvetica,sans-Serif" font-size="10.00">optional</text>
</a>
</g>
</g>
<!-- Node1&#45;&gt;Node8 -->
<g id="edge20" class="edge">
<title>Node1&#45;&gt;Node8</title>
<path fill="none" stroke="midnightblue" d="M852.49,-134.46C838.26,-125.15 823,-112.8 813,-98 800.19,-79.03 795.19,-52.75 793.24,-35.22"/>
<polygon fill="midnightblue" stroke="midnightblue" points="796.72,-34.77 792.35,-25.12 789.75,-35.39 796.72,-34.77"/>
</g>
<!-- Node9 -->
<g id="node9" class="node">
<title>Node9</title>
<g id="a_node9"><a xlink:title=" ">
<polygon fill="none" stroke="#bfbfbf" points="838.5,-0.5 838.5,-30.5 983.5,-30.5 983.5,-0.5 838.5,-0.5"/>
<text text-anchor="start" x="846.5" y="-18.5" font-family="Helvetica,sans-Serif" font-size="10.00">boost/log/sources/severity</text>
<text text-anchor="middle" x="911" y="-7.5" font-family="Helvetica,sans-Serif" font-size="10.00">_logger.hpp</text>
</a>
</g>
</g>
<!-- Node1&#45;&gt;Node9 -->
<g id="edge21" class="edge">
<title>Node1&#45;&gt;Node9</title>
<path fill="none" stroke="midnightblue" d="M856.65,-134.31C833.09,-117.33 807.61,-91.71 822,-67 830.07,-53.15 843.5,-42.79 857.52,-35.18"/>
<polygon fill="midnightblue" stroke="midnightblue" points="859.39,-38.16 866.77,-30.56 856.26,-31.9 859.39,-38.16"/>
</g>
<!-- Node10 -->
<g id="node10" class="node">
<title>Node10</title>
<g id="a_node10"><a xlink:title=" ">
<polygon fill="none" stroke="#bfbfbf" points="1002,-6 1002,-25 1116,-25 1116,-6 1002,-6"/>
<text text-anchor="middle" x="1059" y="-13" font-family="Helvetica,sans-Serif" font-size="10.00">boost/log/trivial.hpp</text>
</a>
</g>
</g>
<!-- Node1&#45;&gt;Node10 -->
<g id="edge22" class="edge">
<title>Node1&#45;&gt;Node10</title>
<path fill="none" stroke="midnightblue" d="M870.92,-134.38C855.86,-115.59 839.21,-87.18 855,-67 857.47,-63.84 952.78,-41.2 1012.24,-27.33"/>
<polygon fill="midnightblue" stroke="midnightblue" points="1013.22,-30.69 1022.17,-25.01 1011.64,-23.87 1013.22,-30.69"/>
</g>
<!-- Node12 -->
<g id="node12" class="node">
<title>Node12</title>
<g id="a_node12"><a xlink:title=" ">
<polygon fill="none" stroke="#bfbfbf" points="864,-67.5 864,-97.5 1022,-97.5 1022,-67.5 864,-67.5"/>
<text text-anchor="start" x="872" y="-85.5" font-family="Helvetica,sans-Serif" font-size="10.00">seerep&#45;msgs/boundingbox2d</text>
<text text-anchor="middle" x="943" y="-74.5" font-family="Helvetica,sans-Serif" font-size="10.00">_labeled_generated.h</text>
</a>
</g>
</g>
<!-- Node1&#45;&gt;Node12 -->
<g id="edge12" class="edge">
<title>Node1&#45;&gt;Node12</title>
<path fill="none" stroke="midnightblue" d="M904.04,-134.36C910.83,-125.5 918.88,-115 925.89,-105.84"/>
<polygon fill="midnightblue" stroke="midnightblue" points="928.67,-107.96 931.98,-97.89 923.12,-103.7 928.67,-107.96"/>
</g>
<!-- Node13 -->
<g id="node13" class="node">
<title>Node13</title>
<g id="a_node13"><a xlink:title=" ">
<polygon fill="none" stroke="#bfbfbf" points="1040,-67.5 1040,-97.5 1186,-97.5 1186,-67.5 1040,-67.5"/>
<text text-anchor="start" x="1048" y="-85.5" font-family="Helvetica,sans-Serif" font-size="10.00">seerep&#45;msgs/boundingbox</text>
<text text-anchor="middle" x="1113" y="-74.5" font-family="Helvetica,sans-Serif" font-size="10.00">_labeled_generated.h</text>
</a>
</g>
</g>
<!-- Node1&#45;&gt;Node13 -->
<g id="edge13" class="edge">
<title>Node1&#45;&gt;Node13</title>
<path fill="none" stroke="midnightblue" d="M951.1,-134.46C984.77,-123.86 1026.02,-110.88 1058.45,-100.67"/>
<polygon fill="midnightblue" stroke="midnightblue" points="1059.72,-103.94 1068.21,-97.6 1057.62,-97.26 1059.72,-103.94"/>
</g>
<!-- Node14 -->
<g id="node14" class="node">
<title>Node14</title>
<g id="a_node14"><a xlink:title=" ">
<polygon fill="none" stroke="#bfbfbf" points="1204.5,-67.5 1204.5,-97.5 1341.5,-97.5 1341.5,-67.5 1204.5,-67.5"/>
<text text-anchor="start" x="1212.5" y="-85.5" font-family="Helvetica,sans-Serif" font-size="10.00">seerep&#45;msgs/union_map</text>
<text text-anchor="middle" x="1273" y="-74.5" font-family="Helvetica,sans-Serif" font-size="10.00">_entry_generated.h</text>
</a>
</g>
</g>
<!-- Node1&#45;&gt;Node14 -->
<g id="edge14" class="edge">
<title>Node1&#45;&gt;Node14</title>
<path fill="none" stroke="midnightblue" d="M960.73,-140.93C1020.45,-130.04 1108.01,-114.03 1194.15,-98.15"/>
<polygon fill="midnightblue" stroke="midnightblue" points="1194.9,-101.58 1204.1,-96.32 1193.63,-94.69 1194.9,-101.58"/>
</g>
<!-- Node15 -->
<g id="node15" class="node">
<title>Node15</title>
<g id="a_node15"><a xlink:title=" ">
<polygon fill="none" stroke="#bfbfbf" points="1359.5,-73 1359.5,-92 1454.5,-92 1454.5,-73 1359.5,-73"/>
<text text-anchor="middle" x="1407" y="-80" font-family="Helvetica,sans-Serif" font-size="10.00">grpcpp/grpcpp.h</text>
</a>
</g>
</g>
<!-- Node1&#45;&gt;Node15 -->
<g id="edge15" class="edge">
<title>Node1&#45;&gt;Node15</title>
<path fill="none" stroke="midnightblue" d="M960.68,-148.28C1051.9,-140.33 1214.06,-123.91 1351,-98 1356.17,-97.02 1361.57,-95.84 1366.89,-94.57"/>
<polygon fill="midnightblue" stroke="midnightblue" points="1368.08,-97.88 1376.94,-92.07 1366.39,-91.09 1368.08,-97.88"/>
</g>
<!-- Node16 -->
<g id="node16" class="node">
<title>Node16</title>
<g id="a_node16"><a xlink:title=" ">
<polygon fill="none" stroke="#bfbfbf" points="1472.5,-73 1472.5,-92 1571.5,-92 1571.5,-73 1472.5,-73"/>
<text text-anchor="middle" x="1522" y="-80" font-family="Helvetica,sans-Serif" font-size="10.00">flatbuffers/grpc.h</text>
</a>
</g>
</g>
<!-- Node1&#45;&gt;Node16 -->
<g id="edge16" class="edge">
<title>Node1&#45;&gt;Node16</title>
<path fill="none" stroke="midnightblue" d="M960.72,-150.43C1069.97,-144.22 1284.37,-129.03 1464,-98 1469.77,-97 1475.81,-95.74 1481.72,-94.38"/>
<polygon fill="midnightblue" stroke="midnightblue" points="1482.58,-97.78 1491.48,-92.03 1480.94,-90.97 1482.58,-97.78"/>
</g>
<!-- Node17 -->
<g id="node17" class="node">
<title>Node17</title>
<g id="a_node17"><a xlink:title=" ">
<polygon fill="none" stroke="#bfbfbf" points="1590,-73 1590,-92 1658,-92 1658,-73 1590,-73"/>
<text text-anchor="middle" x="1624" y="-80" font-family="Helvetica,sans-Serif" font-size="10.00">filesystem</text>
</a>
</g>
</g>
<!-- Node1&#45;&gt;Node17 -->
<g id="edge18" class="edge">
<title>Node1&#45;&gt;Node17</title>
<path fill="none" stroke="midnightblue" d="M960.54,-153.94C1087.03,-152.56 1357.87,-143.93 1581,-98 1584.69,-97.24 1588.5,-96.26 1592.26,-95.16"/>
<polygon fill="midnightblue" stroke="midnightblue" points="1593.5,-98.44 1601.97,-92.08 1591.38,-91.77 1593.5,-98.44"/>
</g>
<!-- Node18 -->
<g id="node18" class="node">
<title>Node18</title>
<g id="a_node18"><a xlink:title=" ">
<polygon fill="none" stroke="#bfbfbf" points="1676,-73 1676,-92 1814,-92 1814,-73 1676,-73"/>
<text text-anchor="middle" x="1745" y="-80" font-family="Helvetica,sans-Serif" font-size="10.00">impl/hdf5&#45;fb&#45;general.hpp</text>
</a>
</g>
</g>
<!-- Node1&#45;&gt;Node18 -->
<g id="edge23" class="edge">
<title>Node1&#45;&gt;Node18</title>
<path fill="none" stroke="midnightblue" d="M960.6,-151.53C1098.02,-146.19 1408.11,-131.27 1667,-98 1675.73,-96.88 1684.97,-95.41 1693.92,-93.84"/>
<polygon fill="midnightblue" stroke="midnightblue" points="1694.63,-97.27 1703.85,-92.04 1693.38,-90.38 1694.63,-97.27"/>
</g>
<!-- Node3&#45;&gt;Node2 -->
<g id="edge3" class="edge">
<title>Node3&#45;&gt;Node2</title>
<path fill="none" stroke="midnightblue" d="M555.44,-77.63C460.61,-71.21 274.98,-56.46 119,-31 112.58,-29.95 105.84,-28.65 99.24,-27.26"/>
<polygon fill="midnightblue" stroke="midnightblue" points="99.58,-23.75 89.06,-25.03 98.08,-30.59 99.58,-23.75"/>
</g>
<!-- Node4 -->
<g id="node4" class="node">
<title>Node4</title>
<g id="a_node4"><a xlink:title=" ">
<polygon fill="none" stroke="#bfbfbf" points="260,-6 260,-25 376,-25 376,-6 260,-6"/>
<text text-anchor="middle" x="318" y="-13" font-family="Helvetica,sans-Serif" font-size="10.00">seerep&#45;msgs/aabb.h</text>
</a>
</g>
</g>
<!-- Node3&#45;&gt;Node4 -->
<g id="edge4" class="edge">
<title>Node3&#45;&gt;Node4</title>
<path fill="none" stroke="midnightblue" d="M555.48,-67.95C499.61,-55.85 418.87,-38.35 367.41,-27.21"/>
<polygon fill="midnightblue" stroke="midnightblue" points="368.04,-23.76 357.53,-25.06 366.56,-30.6 368.04,-23.76"/>
</g>
<!-- Node5 -->
<g id="node5" class="node">
<title>Node5</title>
<g id="a_node5"><a xlink:title=" ">
<polygon fill="none" stroke="#bfbfbf" points="394.5,-0.5 394.5,-30.5 513.5,-30.5 513.5,-0.5 394.5,-0.5"/>
<text text-anchor="start" x="402.5" y="-18.5" font-family="Helvetica,sans-Serif" font-size="10.00">seerep&#45;msgs/dataset</text>
<text text-anchor="middle" x="454" y="-7.5" font-family="Helvetica,sans-Serif" font-size="10.00">&#45;indexable.h</text>
</a>
</g>
</g>
<!-- Node3&#45;&gt;Node5 -->
<g id="edge5" class="edge">
<title>Node3&#45;&gt;Node5</title>
<path fill="none" stroke="midnightblue" d="M582.41,-67.4C557.91,-57.69 525.17,-44.71 498.88,-34.29"/>
<polygon fill="midnightblue" stroke="midnightblue" points="500.1,-31.01 489.52,-30.58 497.52,-37.51 500.1,-31.01"/>
</g>
<!-- Node3&#45;&gt;Node6 -->
<g id="edge6" class="edge">
<title>Node3&#45;&gt;Node6</title>
<path fill="none" stroke="midnightblue" d="M555.42,-74.43C482.18,-65.79 357.37,-49.97 251,-31 244.71,-29.88 238.11,-28.58 231.61,-27.22"/>
<polygon fill="midnightblue" stroke="midnightblue" points="232.06,-23.74 221.55,-25.07 230.6,-30.59 232.06,-23.74"/>
</g>
<!-- Node3&#45;&gt;Node7 -->
<g id="edge7" class="edge">
<title>Node3&#45;&gt;Node7</title>
<path fill="none" stroke="midnightblue" d="M640.57,-67.4C658.01,-56.5 682.03,-41.48 699.47,-30.58"/>
<polygon fill="midnightblue" stroke="midnightblue" points="701.76,-33.28 708.39,-25.01 698.05,-27.34 701.76,-33.28"/>
</g>
<!-- Node3&#45;&gt;Node8 -->
<g id="edge8" class="edge">
<title>Node3&#45;&gt;Node8</title>
<path fill="none" stroke="midnightblue" d="M656.76,-67.45C684.24,-57.43 721.95,-43.57 755,-31 756.89,-30.28 758.82,-29.54 760.78,-28.79"/>
<polygon fill="midnightblue" stroke="midnightblue" points="762.45,-31.89 770.51,-25.01 759.92,-25.37 762.45,-31.89"/>
</g>
<!-- Node3&#45;&gt;Node9 -->
<g id="edge9" class="edge">
<title>Node3&#45;&gt;Node9</title>
<path fill="none" stroke="midnightblue" d="M680.86,-67.56C726.95,-57.33 789.65,-43.42 837.97,-32.7"/>
<polygon fill="midnightblue" stroke="midnightblue" points="838.74,-36.12 847.74,-30.53 837.22,-29.28 838.74,-36.12"/>
</g>
<!-- Node3&#45;&gt;Node10 -->
<g id="edge10" class="edge">
<title>Node3&#45;&gt;Node10</title>
<path fill="none" stroke="midnightblue" d="M680.61,-74.67C755.27,-66.15 883.68,-50.34 993,-31 999.37,-29.87 1006.05,-28.56 1012.63,-27.19"/>
<polygon fill="midnightblue" stroke="midnightblue" points="1013.75,-30.53 1022.8,-25.02 1012.29,-23.69 1013.75,-30.53"/>
</g>
<!-- Node11 -->
<g id="node11" class="node">
<title>Node11</title>
<g id="a_node11"><a xlink:title=" ">
<polygon fill="none" stroke="#bfbfbf" points="531.5,-6 531.5,-25 680.5,-25 680.5,-6 531.5,-6"/>
<text text-anchor="middle" x="606" y="-13" font-family="Helvetica,sans-Serif" font-size="10.00">impl/hdf5&#45;core&#45;general.hpp</text>
</a>
</g>
</g>
<!-- Node3&#45;&gt;Node11 -->
<g id="edge11" class="edge">
<title>Node3&#45;&gt;Node11</title>
<path fill="none" stroke="midnightblue" d="M615.4,-67.4C613.65,-57.96 611.34,-45.45 609.45,-35.19"/>
<polygon fill="midnightblue" stroke="midnightblue" points="612.86,-34.39 607.61,-25.19 605.98,-35.66 612.86,-34.39"/>
</g>
</g>
</svg>
