<?xml version="1.0" encoding="UTF-8" standalone="no"?>
<!DOCTYPE svg PUBLIC "-//W3C//DTD SVG 1.1//EN"
 "http://www.w3.org/Graphics/SVG/1.1/DTD/svg11.dtd">
<!-- Generated by graphviz version 2.43.0 (0)
 -->
<!-- Title: seerep_hdf5/seerep_hdf5_pb/include/seerep_hdf5_pb/hdf5_pb_general.h Pages: 1 -->
<svg width="2266pt" height="206pt"
 viewBox="0.00 0.00 2266.00 206.00" xmlns="http://www.w3.org/2000/svg" xmlns:xlink="http://www.w3.org/1999/xlink">
<g id="graph0" class="graph" transform="scale(1 1) rotate(0) translate(4 202)">
<title>seerep_hdf5/seerep_hdf5_pb/include/seerep_hdf5_pb/hdf5_pb_general.h</title>
<!-- Node1 -->
<g id="node1" class="node">
<title>Node1</title>
<g id="a_node1"><a xlink:title=" ">
<polygon fill="#bfbfbf" stroke="black" points="1019,-156.5 1019,-197.5 1173,-197.5 1173,-156.5 1019,-156.5"/>
<text text-anchor="start" x="1027" y="-185.5" font-family="Helvetica,sans-Serif" font-size="10.00">seerep_hdf5/seerep</text>
<text text-anchor="start" x="1027" y="-174.5" font-family="Helvetica,sans-Serif" font-size="10.00">_hdf5_pb/include/seerep</text>
<text text-anchor="middle" x="1096" y="-163.5" font-family="Helvetica,sans-Serif" font-size="10.00">_hdf5_pb/hdf5_pb_general.h</text>
</a>
</g>
</g>
<!-- Node2 -->
<g id="node2" class="node">
<title>Node2</title>
<g id="a_node2"><a xlink:title=" ">
<polygon fill="none" stroke="#bfbfbf" points="0,-11.5 0,-30.5 110,-30.5 110,-11.5 0,-11.5"/>
<text text-anchor="middle" x="55" y="-18.5" font-family="Helvetica,sans-Serif" font-size="10.00">highfive/H5File.hpp</text>
</a>
</g>
</g>
<!-- Node1&#45;&gt;Node2 -->
<g id="edge1" class="edge">
<title>Node1&#45;&gt;Node2</title>
<path fill="none" stroke="midnightblue" d="M1018.94,-175.43C886.55,-173.24 607.88,-163.36 377,-120 268.1,-99.55 143.87,-55.63 86.76,-34.23"/>
<polygon fill="midnightblue" stroke="midnightblue" points="87.81,-30.88 77.22,-30.62 85.34,-37.43 87.81,-30.88"/>
</g>
<!-- Node3 -->
<g id="node3" class="node">
<title>Node3</title>
<g id="a_node3"><a xlink:href="hdf5__core__general_8h.html" target="_top" xlink:title=" ">
<polygon fill="none" stroke="black" points="849,-84 849,-114 977,-114 977,-84 849,-84"/>
<text text-anchor="start" x="857" y="-102" font-family="Helvetica,sans-Serif" font-size="10.00">seerep_hdf5_core/hdf5</text>
<text text-anchor="middle" x="913" y="-91" font-family="Helvetica,sans-Serif" font-size="10.00">_core_general.h</text>
</a>
</g>
</g>
<!-- Node1&#45;&gt;Node3 -->
<g id="edge2" class="edge">
<title>Node1&#45;&gt;Node3</title>
<path fill="none" stroke="midnightblue" d="M1048.87,-156.43C1020.36,-144.59 984.26,-129.59 956.44,-118.04"/>
<polygon fill="midnightblue" stroke="midnightblue" points="957.54,-114.71 946.97,-114.11 954.86,-121.17 957.54,-114.71"/>
</g>
<!-- Node8 -->
<g id="node8" class="node">
<title>Node8</title>
<g id="a_node8"><a xlink:title=" ">
<polygon fill="none" stroke="#bfbfbf" points="128.5,-11.5 128.5,-30.5 241.5,-30.5 241.5,-11.5 128.5,-11.5"/>
<text text-anchor="middle" x="185" y="-18.5" font-family="Helvetica,sans-Serif" font-size="10.00">boost/geometry.hpp</text>
</a>
</g>
</g>
<!-- Node1&#45;&gt;Node8 -->
<g id="edge24" class="edge">
<title>Node1&#45;&gt;Node8</title>
<path fill="none" stroke="midnightblue" d="M1018.88,-171.27C914.97,-164.12 724.51,-148.31 564,-120 422.81,-95.1 389.2,-80.13 251,-42 241.49,-39.38 231.27,-36.37 221.77,-33.5"/>
<polygon fill="midnightblue" stroke="midnightblue" points="222.79,-30.15 212.21,-30.58 220.75,-36.85 222.79,-30.15"/>
</g>
<!-- Node10 -->
<g id="node10" class="node">
<title>Node10</title>
<g id="a_node10"><a xlink:title=" ">
<polygon fill="none" stroke="#bfbfbf" points="260,-11.5 260,-30.5 316,-30.5 316,-11.5 260,-11.5"/>
<text text-anchor="middle" x="288" y="-18.5" font-family="Helvetica,sans-Serif" font-size="10.00">optional</text>
</a>
</g>
</g>
<!-- Node1&#45;&gt;Node10 -->
<g id="edge26" class="edge">
<title>Node1&#45;&gt;Node10</title>
<path fill="none" stroke="midnightblue" d="M1018.61,-160.92C915.18,-140.96 726.1,-105.13 564,-78 458.05,-60.27 426.88,-76.05 325,-42 320.07,-40.35 315.01,-38.07 310.29,-35.64"/>
<polygon fill="midnightblue" stroke="midnightblue" points="311.64,-32.38 301.2,-30.58 308.24,-38.5 311.64,-32.38"/>
</g>
<!-- Node12 -->
<g id="node12" class="node">
<title>Node12</title>
<g id="a_node12"><a xlink:title=" ">
<polygon fill="none" stroke="#bfbfbf" points="1980.5,-6 1980.5,-36 2125.5,-36 2125.5,-6 1980.5,-6"/>
<text text-anchor="start" x="1988.5" y="-24" font-family="Helvetica,sans-Serif" font-size="10.00">boost/log/sources/severity</text>
<text text-anchor="middle" x="2053" y="-13" font-family="Helvetica,sans-Serif" font-size="10.00">_logger.hpp</text>
</a>
</g>
</g>
<!-- Node1&#45;&gt;Node12 -->
<g id="edge27" class="edge">
<title>Node1&#45;&gt;Node12</title>
<path fill="none" stroke="midnightblue" d="M1061.66,-156.36C1048.94,-147.12 1035.93,-134.83 1029,-120 1021.09,-103.09 1016.06,-91.45 1029,-78 1065.32,-40.27 1919.13,-49.24 1971,-42 1977.83,-41.05 1984.91,-39.77 1991.93,-38.32"/>
<polygon fill="midnightblue" stroke="midnightblue" points="1993.11,-41.64 2002.13,-36.09 1991.61,-34.81 1993.11,-41.64"/>
</g>
<!-- Node13 -->
<g id="node13" class="node">
<title>Node13</title>
<g id="a_node13"><a xlink:title=" ">
<polygon fill="none" stroke="#bfbfbf" points="2144,-11.5 2144,-30.5 2258,-30.5 2258,-11.5 2144,-11.5"/>
<text text-anchor="middle" x="2201" y="-18.5" font-family="Helvetica,sans-Serif" font-size="10.00">boost/log/trivial.hpp</text>
</a>
</g>
</g>
<!-- Node1&#45;&gt;Node13 -->
<g id="edge28" class="edge">
<title>Node1&#45;&gt;Node13</title>
<path fill="none" stroke="midnightblue" d="M1078.64,-156.15C1061.68,-134.32 1041.22,-99.49 1062,-78 1103.46,-35.12 2076.15,-51.73 2135,-42 2146.1,-40.16 2157.94,-36.98 2168.49,-33.69"/>
<polygon fill="midnightblue" stroke="midnightblue" points="2169.72,-36.97 2178.14,-30.54 2167.54,-30.31 2169.72,-36.97"/>
</g>
<!-- Node20 -->
<g id="node20" class="node">
<title>Node20</title>
<g id="a_node20"><a xlink:title=" ">
<polygon fill="none" stroke="#bfbfbf" points="1070.5,-84 1070.5,-114 1229.5,-114 1229.5,-84 1070.5,-84"/>
<text text-anchor="start" x="1078.5" y="-102" font-family="Helvetica,sans-Serif" font-size="10.00">seerep_msgs/boundingbox2d</text>
<text text-anchor="middle" x="1150" y="-91" font-family="Helvetica,sans-Serif" font-size="10.00">_labeled_with_category.pb.h</text>
</a>
</g>
</g>
<!-- Node1&#45;&gt;Node20 -->
<g id="edge20" class="edge">
<title>Node1&#45;&gt;Node20</title>
<path fill="none" stroke="midnightblue" d="M1109.91,-156.43C1117.23,-146.12 1126.25,-133.42 1133.88,-122.69"/>
<polygon fill="midnightblue" stroke="midnightblue" points="1136.95,-124.4 1139.89,-114.23 1131.25,-120.35 1136.95,-124.4"/>
</g>
<!-- Node21 -->
<g id="node21" class="node">
<title>Node21</title>
<g id="a_node21"><a xlink:title=" ">
<polygon fill="none" stroke="#bfbfbf" points="1247.5,-84 1247.5,-114 1402.5,-114 1402.5,-84 1247.5,-84"/>
<text text-anchor="start" x="1255.5" y="-102" font-family="Helvetica,sans-Serif" font-size="10.00">seerep_msgs/boundingbox</text>
<text text-anchor="middle" x="1325" y="-91" font-family="Helvetica,sans-Serif" font-size="10.00">_labeled_with_category.pb.h</text>
</a>
</g>
</g>
<!-- Node1&#45;&gt;Node21 -->
<g id="edge21" class="edge">
<title>Node1&#45;&gt;Node21</title>
<path fill="none" stroke="midnightblue" d="M1154.97,-156.43C1191.43,-144.33 1237.81,-128.94 1272.91,-117.29"/>
<polygon fill="midnightblue" stroke="midnightblue" points="1274.11,-120.58 1282.49,-114.11 1271.9,-113.93 1274.11,-120.58"/>
</g>
<!-- Node22 -->
<g id="node22" class="node">
<title>Node22</title>
<g id="a_node22"><a xlink:title=" ">
<polygon fill="none" stroke="#bfbfbf" points="1420.5,-89.5 1420.5,-108.5 1561.5,-108.5 1561.5,-89.5 1420.5,-89.5"/>
<text text-anchor="middle" x="1491" y="-96.5" font-family="Helvetica,sans-Serif" font-size="10.00">seerep_msgs/header.pb.h</text>
</a>
</g>
</g>
<!-- Node1&#45;&gt;Node22 -->
<g id="edge22" class="edge">
<title>Node1&#45;&gt;Node22</title>
<path fill="none" stroke="midnightblue" d="M1173.25,-163.92C1237.42,-153.5 1330.97,-137.41 1412,-120 1424.32,-117.35 1437.63,-114.13 1449.75,-111.05"/>
<polygon fill="midnightblue" stroke="midnightblue" points="1450.79,-114.39 1459.6,-108.51 1449.04,-107.61 1450.79,-114.39"/>
</g>
<!-- Node23 -->
<g id="node23" class="node">
<title>Node23</title>
<g id="a_node23"><a xlink:title=" ">
<polygon fill="none" stroke="#bfbfbf" points="1580,-78.5 1580,-119.5 1696,-119.5 1696,-78.5 1580,-78.5"/>
<text text-anchor="start" x="1588" y="-107.5" font-family="Helvetica,sans-Serif" font-size="10.00">seerep_msgs/labels</text>
<text text-anchor="start" x="1588" y="-96.5" font-family="Helvetica,sans-Serif" font-size="10.00">_with_instance_with</text>
<text text-anchor="middle" x="1638" y="-85.5" font-family="Helvetica,sans-Serif" font-size="10.00">_category.pb.h</text>
</a>
</g>
</g>
<!-- Node1&#45;&gt;Node23 -->
<g id="edge23" class="edge">
<title>Node1&#45;&gt;Node23</title>
<path fill="none" stroke="midnightblue" d="M1173.16,-171.02C1265.56,-164.13 1424.99,-149.33 1569.73,-120.09"/>
<polygon fill="midnightblue" stroke="midnightblue" points="1570.59,-123.49 1579.69,-118.05 1569.19,-116.63 1570.59,-123.49"/>
</g>
<!-- Node24 -->
<g id="node24" class="node">
<title>Node24</title>
<g id="a_node24"><a xlink:title=" ">
<polygon fill="none" stroke="#bfbfbf" points="1714,-89.5 1714,-108.5 1782,-108.5 1782,-89.5 1714,-89.5"/>
<text text-anchor="middle" x="1748" y="-96.5" font-family="Helvetica,sans-Serif" font-size="10.00">filesystem</text>
</a>
</g>
</g>
<!-- Node1&#45;&gt;Node24 -->
<g id="edge25" class="edge">
<title>Node1&#45;&gt;Node24</title>
<path fill="none" stroke="midnightblue" d="M1173.25,-172.2C1314,-164.73 1606.72,-146.52 1705,-120 1711.21,-118.32 1717.64,-115.81 1723.57,-113.12"/>
<polygon fill="midnightblue" stroke="midnightblue" points="1725.5,-116.07 1732.96,-108.55 1722.44,-109.78 1725.5,-116.07"/>
</g>
<!-- Node25 -->
<g id="node25" class="node">
<title>Node25</title>
<g id="a_node25"><a xlink:title=" ">
<polygon fill="none" stroke="#bfbfbf" points="1800.5,-89.5 1800.5,-108.5 1943.5,-108.5 1943.5,-89.5 1800.5,-89.5"/>
<text text-anchor="middle" x="1872" y="-96.5" font-family="Helvetica,sans-Serif" font-size="10.00">impl/hdf5_pb_general.hpp</text>
</a>
</g>
</g>
<!-- Node1&#45;&gt;Node25 -->
<g id="edge29" class="edge">
<title>Node1&#45;&gt;Node25</title>
<path fill="none" stroke="midnightblue" d="M1173.11,-173.85C1301.86,-169.36 1568.47,-156.19 1791,-120 1804.54,-117.8 1819.14,-114.49 1832.17,-111.19"/>
<polygon fill="midnightblue" stroke="midnightblue" points="1833.44,-114.48 1842.23,-108.57 1831.67,-107.71 1833.44,-114.48"/>
</g>
<!-- Node3&#45;&gt;Node2 -->
<g id="edge3" class="edge">
<title>Node3&#45;&gt;Node2</title>
<path fill="none" stroke="midnightblue" d="M848.8,-98.5C712.91,-98.45 386.68,-92.55 119,-42 108.53,-40.02 97.37,-36.9 87.35,-33.71"/>
<polygon fill="midnightblue" stroke="midnightblue" points="88.37,-30.36 77.78,-30.54 86.17,-37.01 88.37,-30.36"/>
</g>
<!-- Node4 -->
<g id="node4" class="node">
<title>Node4</title>
<g id="a_node4"><a xlink:title=" ">
<polygon fill="none" stroke="#bfbfbf" points="1561.5,-11.5 1561.5,-30.5 1678.5,-30.5 1678.5,-11.5 1561.5,-11.5"/>
<text text-anchor="middle" x="1620" y="-18.5" font-family="Helvetica,sans-Serif" font-size="10.00">seerep_msgs/aabb.h</text>
</a>
</g>
</g>
<!-- Node3&#45;&gt;Node4 -->
<g id="edge4" class="edge">
<title>Node3&#45;&gt;Node4</title>
<path fill="none" stroke="midnightblue" d="M961.81,-84C971.42,-81.66 981.47,-79.51 991,-78 1237.75,-38.8 1305.97,-85.52 1552,-42 1563.2,-40.02 1575.18,-36.86 1585.92,-33.63"/>
<polygon fill="midnightblue" stroke="midnightblue" points="1587.26,-36.88 1595.76,-30.55 1585.17,-30.2 1587.26,-36.88"/>
</g>
<!-- Node5 -->
<g id="node5" class="node">
<title>Node5</title>
<g id="a_node5"><a xlink:title=" ">
<polygon fill="none" stroke="#bfbfbf" points="1696.5,-6 1696.5,-36 1817.5,-36 1817.5,-6 1696.5,-6"/>
<text text-anchor="start" x="1704.5" y="-24" font-family="Helvetica,sans-Serif" font-size="10.00">seerep_msgs/dataset</text>
<text text-anchor="middle" x="1757" y="-13" font-family="Helvetica,sans-Serif" font-size="10.00">_indexable.h</text>
</a>
</g>
</g>
<!-- Node3&#45;&gt;Node5 -->
<g id="edge5" class="edge">
<title>Node3&#45;&gt;Node5</title>
<path fill="none" stroke="midnightblue" d="M961.79,-83.9C971.4,-81.58 981.46,-79.45 991,-78 1297.65,-31.25 1382.12,-93.52 1688,-42 1693.38,-41.09 1698.94,-39.91 1704.45,-38.58"/>
<polygon fill="midnightblue" stroke="midnightblue" points="1705.48,-41.93 1714.29,-36.04 1703.73,-35.15 1705.48,-41.93"/>
</g>
<!-- Node6 -->
<g id="node6" class="node">
<title>Node6</title>
<g id="a_node6"><a xlink:title=" ">
<polygon fill="none" stroke="#bfbfbf" points="1836,-6 1836,-36 1962,-36 1962,-6 1836,-6"/>
<text text-anchor="start" x="1844" y="-24" font-family="Helvetica,sans-Serif" font-size="10.00">seerep_msgs/geodetic</text>
<text text-anchor="middle" x="1899" y="-13" font-family="Helvetica,sans-Serif" font-size="10.00">_coordinates.h</text>
</a>
</g>
</g>
<!-- Node3&#45;&gt;Node6 -->
<g id="edge6" class="edge">
<title>Node3&#45;&gt;Node6</title>
<path fill="none" stroke="midnightblue" d="M961.36,-83.94C971.1,-81.58 981.32,-79.43 991,-78 1358.89,-23.52 1459.67,-100.15 1827,-42 1832.75,-41.09 1838.69,-39.89 1844.58,-38.52"/>
<polygon fill="midnightblue" stroke="midnightblue" points="1845.55,-41.88 1854.41,-36.08 1843.86,-35.09 1845.55,-41.88"/>
</g>
<!-- Node7 -->
<g id="node7" class="node">
<title>Node7</title>
<g id="a_node7"><a xlink:title=" ">
<polygon fill="none" stroke="#bfbfbf" points="334,-0.5 334,-41.5 450,-41.5 450,-0.5 334,-0.5"/>
<text text-anchor="start" x="342" y="-29.5" font-family="Helvetica,sans-Serif" font-size="10.00">seerep_msgs/labels</text>
<text text-anchor="start" x="342" y="-18.5" font-family="Helvetica,sans-Serif" font-size="10.00">_with_instance_with</text>
<text text-anchor="middle" x="392" y="-7.5" font-family="Helvetica,sans-Serif" font-size="10.00">_category.h</text>
</a>
</g>
</g>
<!-- Node3&#45;&gt;Node7 -->
<g id="edge7" class="edge">
<title>Node3&#45;&gt;Node7</title>
<path fill="none" stroke="midnightblue" d="M848.88,-89.67C820.7,-86.04 787.21,-81.76 757,-78 627.85,-61.92 591.38,-68.82 460.33,-42.11"/>
<polygon fill="midnightblue" stroke="midnightblue" points="460.82,-38.64 450.32,-40.04 459.4,-45.49 460.82,-38.64"/>
</g>
<!-- Node3&#45;&gt;Node8 -->
<g id="edge8" class="edge">
<title>Node3&#45;&gt;Node8</title>
<path fill="none" stroke="midnightblue" d="M848.89,-94.3C705.89,-85.76 364.49,-63.75 251,-42 240.33,-39.96 228.93,-36.85 218.66,-33.69"/>
<polygon fill="midnightblue" stroke="midnightblue" points="219.42,-30.26 208.83,-30.55 217.29,-36.92 219.42,-30.26"/>
</g>
<!-- Node9 -->
<g id="node9" class="node">
<title>Node9</title>
<g id="a_node9"><a xlink:title=" ">
<polygon fill="none" stroke="#bfbfbf" points="468,-11.5 468,-30.5 516,-30.5 516,-11.5 468,-11.5"/>
<text text-anchor="middle" x="492" y="-18.5" font-family="Helvetica,sans-Serif" font-size="10.00">mutex</text>
</a>
</g>
</g>
<!-- Node3&#45;&gt;Node9 -->
<g id="edge9" class="edge">
<title>Node3&#45;&gt;Node9</title>
<path fill="none" stroke="midnightblue" d="M848.6,-89.39C742.25,-75.07 540.06,-47.4 525,-42 520.74,-40.47 516.44,-38.36 512.4,-36.08"/>
<polygon fill="midnightblue" stroke="midnightblue" points="513.98,-32.94 503.64,-30.64 510.29,-38.89 513.98,-32.94"/>
</g>
<!-- Node3&#45;&gt;Node10 -->
<g id="edge10" class="edge">
<title>Node3&#45;&gt;Node10</title>
<path fill="none" stroke="midnightblue" d="M848.94,-89.14C820.77,-85.41 787.28,-81.2 757,-78 565.4,-57.74 509.66,-96.97 325,-42 319.8,-40.45 314.5,-38.12 309.59,-35.58"/>
<polygon fill="midnightblue" stroke="midnightblue" points="311.21,-32.48 300.78,-30.61 307.77,-38.57 311.21,-32.48"/>
</g>
<!-- Node11 -->
<g id="node11" class="node">
<title>Node11</title>
<g id="a_node11"><a xlink:title=" ">
<polygon fill="none" stroke="#bfbfbf" points="534.5,-11.5 534.5,-30.5 603.5,-30.5 603.5,-11.5 534.5,-11.5"/>
<text text-anchor="middle" x="569" y="-18.5" font-family="Helvetica,sans-Serif" font-size="10.00">type_traits</text>
</a>
</g>
</g>
<!-- Node3&#45;&gt;Node11 -->
<g id="edge11" class="edge">
<title>Node3&#45;&gt;Node11</title>
<path fill="none" stroke="midnightblue" d="M848.73,-90.8C786.99,-82.78 691.61,-67.47 612,-42 606.07,-40.1 599.9,-37.58 594.13,-34.97"/>
<polygon fill="midnightblue" stroke="midnightblue" points="595.48,-31.74 584.95,-30.59 592.47,-38.05 595.48,-31.74"/>
</g>
<!-- Node3&#45;&gt;Node12 -->
<g id="edge12" class="edge">
<title>Node3&#45;&gt;Node12</title>
<path fill="none" stroke="midnightblue" d="M960.94,-83.99C970.8,-81.6 981.18,-79.42 991,-78 1422.35,-15.51 1539.29,-101.95 1971,-42 1977.83,-41.05 1984.91,-39.78 1991.93,-38.33"/>
<polygon fill="midnightblue" stroke="midnightblue" points="1993.11,-41.65 2002.13,-36.1 1991.61,-34.82 1993.11,-41.65"/>
</g>
<!-- Node3&#45;&gt;Node13 -->
<g id="edge13" class="edge">
<title>Node3&#45;&gt;Node13</title>
<path fill="none" stroke="midnightblue" d="M977.21,-85.3C994,-82.43 1012.13,-79.72 1029,-78 1518.28,-28.1 1649.73,-122 2135,-42 2146.1,-40.17 2157.94,-36.99 2168.49,-33.69"/>
<polygon fill="midnightblue" stroke="midnightblue" points="2169.72,-36.98 2178.14,-30.54 2167.54,-30.32 2169.72,-36.98"/>
</g>
<!-- Node14 -->
<g id="node14" class="node">
<title>Node14</title>
<g id="a_node14"><a xlink:title=" ">
<polygon fill="none" stroke="#bfbfbf" points="621.5,-11.5 621.5,-30.5 764.5,-30.5 764.5,-11.5 621.5,-11.5"/>
<text text-anchor="middle" x="693" y="-18.5" font-family="Helvetica,sans-Serif" font-size="10.00">boost/functional/hash.hpp</text>
</a>
</g>
</g>
<!-- Node3&#45;&gt;Node14 -->
<g id="edge14" class="edge">
<title>Node3&#45;&gt;Node14</title>
<path fill="none" stroke="midnightblue" d="M872.39,-83.97C830.7,-69.57 766.54,-47.41 727.31,-33.85"/>
<polygon fill="midnightblue" stroke="midnightblue" points="728.26,-30.48 717.66,-30.52 725.97,-37.09 728.26,-30.48"/>
</g>
<!-- Node15 -->
<g id="node15" class="node">
<title>Node15</title>
<g id="a_node15"><a xlink:title=" ">
<polygon fill="none" stroke="#bfbfbf" points="782.5,-11.5 782.5,-30.5 907.5,-30.5 907.5,-11.5 782.5,-11.5"/>
<text text-anchor="middle" x="845" y="-18.5" font-family="Helvetica,sans-Serif" font-size="10.00">boost/lexical_cast.hpp</text>
</a>
</g>
</g>
<!-- Node3&#45;&gt;Node15 -->
<g id="edge15" class="edge">
<title>Node3&#45;&gt;Node15</title>
<path fill="none" stroke="midnightblue" d="M900.21,-83.7C888.61,-70.74 871.53,-51.66 859.45,-38.15"/>
<polygon fill="midnightblue" stroke="midnightblue" points="861.94,-35.68 852.66,-30.56 856.72,-40.35 861.94,-35.68"/>
</g>
<!-- Node16 -->
<g id="node16" class="node">
<title>Node16</title>
<g id="a_node16"><a xlink:title=" ">
<polygon fill="none" stroke="#bfbfbf" points="925.5,-11.5 925.5,-30.5 1038.5,-30.5 1038.5,-11.5 925.5,-11.5"/>
<text text-anchor="middle" x="982" y="-18.5" font-family="Helvetica,sans-Serif" font-size="10.00">boost/uuid/uuid.hpp</text>
</a>
</g>
</g>
<!-- Node3&#45;&gt;Node16 -->
<g id="edge16" class="edge">
<title>Node3&#45;&gt;Node16</title>
<path fill="none" stroke="midnightblue" d="M925.98,-83.7C937.75,-70.74 955.08,-51.66 967.34,-38.15"/>
<polygon fill="midnightblue" stroke="midnightblue" points="970.09,-40.32 974.23,-30.56 964.91,-35.61 970.09,-40.32"/>
</g>
<!-- Node17 -->
<g id="node17" class="node">
<title>Node17</title>
<g id="a_node17"><a xlink:title=" ">
<polygon fill="none" stroke="#bfbfbf" points="1057,-11.5 1057,-30.5 1227,-30.5 1227,-11.5 1057,-11.5"/>
<text text-anchor="middle" x="1142" y="-18.5" font-family="Helvetica,sans-Serif" font-size="10.00">boost/uuid/uuid_generators.hpp</text>
</a>
</g>
</g>
<!-- Node3&#45;&gt;Node17 -->
<g id="edge17" class="edge">
<title>Node3&#45;&gt;Node17</title>
<path fill="none" stroke="midnightblue" d="M955.27,-83.97C998.85,-69.51 1066.02,-47.22 1106.8,-33.68"/>
<polygon fill="midnightblue" stroke="midnightblue" points="1107.94,-36.99 1116.33,-30.52 1105.73,-30.35 1107.94,-36.99"/>
</g>
<!-- Node18 -->
<g id="node18" class="node">
<title>Node18</title>
<g id="a_node18"><a xlink:title=" ">
<polygon fill="none" stroke="#bfbfbf" points="1245.5,-11.5 1245.5,-30.5 1372.5,-30.5 1372.5,-11.5 1245.5,-11.5"/>
<text text-anchor="middle" x="1309" y="-18.5" font-family="Helvetica,sans-Serif" font-size="10.00">boost/uuid/uuid_io.hpp</text>
</a>
</g>
</g>
<!-- Node3&#45;&gt;Node18 -->
<g id="edge18" class="edge">
<title>Node3&#45;&gt;Node18</title>
<path fill="none" stroke="midnightblue" d="M964.43,-84C973.26,-81.83 982.37,-79.74 991,-78 1098.9,-56.3 1128.28,-64.58 1236,-42 1247.42,-39.61 1259.71,-36.47 1270.88,-33.38"/>
<polygon fill="midnightblue" stroke="midnightblue" points="1272.09,-36.68 1280.77,-30.6 1270.19,-29.94 1272.09,-36.68"/>
</g>
<!-- Node19 -->
<g id="node19" class="node">
<title>Node19</title>
<g id="a_node19"><a xlink:title=" ">
<polygon fill="none" stroke="#bfbfbf" points="1391,-11.5 1391,-30.5 1543,-30.5 1543,-11.5 1391,-11.5"/>
<text text-anchor="middle" x="1467" y="-18.5" font-family="Helvetica,sans-Serif" font-size="10.00">impl/hdf5_core_general.hpp</text>
</a>
</g>
</g>
<!-- Node3&#45;&gt;Node19 -->
<g id="edge19" class="edge">
<title>Node3&#45;&gt;Node19</title>
<path fill="none" stroke="midnightblue" d="M963.1,-83.9C972.32,-81.67 981.91,-79.57 991,-78 1162.96,-48.23 1209.76,-70.05 1382,-42 1396.19,-39.69 1411.53,-36.35 1425.22,-33.05"/>
<polygon fill="midnightblue" stroke="midnightblue" points="1426.45,-36.35 1435.32,-30.56 1424.78,-29.56 1426.45,-36.35"/>
</g>
</g>
</svg>
