<?xml version="1.0" encoding="UTF-8" standalone="no"?>
<!DOCTYPE svg PUBLIC "-//W3C//DTD SVG 1.1//EN"
 "http://www.w3.org/Graphics/SVG/1.1/DTD/svg11.dtd">
<!-- Generated by graphviz version 2.43.0 (0)
 -->
<!-- Title: seerep&#45;hdf5/seerep&#45;hdf5&#45;fb/include/seerep&#45;hdf5&#45;fb/hdf5&#45;fb&#45;general.h Pages: 1 -->
<svg width="2675pt" height="206pt"
 viewBox="0.00 0.00 2675.00 206.00" xmlns="http://www.w3.org/2000/svg" xmlns:xlink="http://www.w3.org/1999/xlink">
<g id="graph0" class="graph" transform="scale(1 1) rotate(0) translate(4 202)">
<title>seerep&#45;hdf5/seerep&#45;hdf5&#45;fb/include/seerep&#45;hdf5&#45;fb/hdf5&#45;fb&#45;general.h</title>
<!-- Node1 -->
<g id="node1" class="node">
<title>Node1</title>
<g id="a_node1"><a xlink:title=" ">
<polygon fill="#bfbfbf" stroke="black" points="1365.5,-156.5 1365.5,-197.5 1508.5,-197.5 1508.5,-156.5 1365.5,-156.5"/>
<text text-anchor="start" x="1373.5" y="-185.5" font-family="Helvetica,sans-Serif" font-size="10.00">seerep&#45;hdf5/seerep</text>
<text text-anchor="start" x="1373.5" y="-174.5" font-family="Helvetica,sans-Serif" font-size="10.00">&#45;hdf5&#45;fb/include/seerep</text>
<text text-anchor="middle" x="1437" y="-163.5" font-family="Helvetica,sans-Serif" font-size="10.00">&#45;hdf5&#45;fb/hdf5&#45;fb&#45;general.h</text>
</a>
</g>
</g>
<!-- Node2 -->
<g id="node2" class="node">
<title>Node2</title>
<g id="a_node2"><a xlink:title=" ">
<polygon fill="none" stroke="#bfbfbf" points="0,-11.5 0,-30.5 110,-30.5 110,-11.5 0,-11.5"/>
<text text-anchor="middle" x="55" y="-18.5" font-family="Helvetica,sans-Serif" font-size="10.00">highfive/H5File.hpp</text>
</a>
</g>
</g>
<!-- Node1&#45;&gt;Node2 -->
<g id="edge1" class="edge">
<title>Node1&#45;&gt;Node2</title>
<path fill="none" stroke="midnightblue" d="M1365.19,-175.85C1146.38,-174.88 490.28,-167.92 283,-120 204.5,-101.85 119.02,-57.92 78.65,-35.56"/>
<polygon fill="midnightblue" stroke="midnightblue" points="80.27,-32.46 69.84,-30.62 76.85,-38.57 80.27,-32.46"/>
</g>
<!-- Node3 -->
<g id="node3" class="node">
<title>Node3</title>
<g id="a_node3"><a xlink:href="hdf5-core-general_8h.html" target="_top" xlink:title=" ">
<polygon fill="none" stroke="black" points="877.5,-84 877.5,-114 1002.5,-114 1002.5,-84 877.5,-84"/>
<text text-anchor="start" x="885.5" y="-102" font-family="Helvetica,sans-Serif" font-size="10.00">seerep&#45;hdf5&#45;core/hdf5</text>
<text text-anchor="middle" x="940" y="-91" font-family="Helvetica,sans-Serif" font-size="10.00">&#45;core&#45;general.h</text>
</a>
</g>
</g>
<!-- Node1&#45;&gt;Node3 -->
<g id="edge2" class="edge">
<title>Node1&#45;&gt;Node3</title>
<path fill="none" stroke="midnightblue" d="M1365.23,-169.12C1281.26,-160.44 1138.28,-143.74 1017,-120 1011.58,-118.94 1005.97,-117.72 1000.37,-116.42"/>
<polygon fill="midnightblue" stroke="midnightblue" points="1000.87,-112.94 990.33,-114.01 999.24,-119.75 1000.87,-112.94"/>
</g>
<!-- Node8 -->
<g id="node8" class="node">
<title>Node8</title>
<g id="a_node8"><a xlink:title=" ">
<polygon fill="none" stroke="#bfbfbf" points="128.5,-11.5 128.5,-30.5 241.5,-30.5 241.5,-11.5 128.5,-11.5"/>
<text text-anchor="middle" x="185" y="-18.5" font-family="Helvetica,sans-Serif" font-size="10.00">boost/geometry.hpp</text>
</a>
</g>
</g>
<!-- Node1&#45;&gt;Node8 -->
<g id="edge29" class="edge">
<title>Node1&#45;&gt;Node8</title>
<path fill="none" stroke="midnightblue" d="M1365.31,-175.8C1160.4,-174.65 575.1,-167.2 390,-120 319.12,-101.93 243.37,-58.62 206.99,-36.12"/>
<polygon fill="midnightblue" stroke="midnightblue" points="208.54,-32.96 198.21,-30.61 204.82,-38.89 208.54,-32.96"/>
</g>
<!-- Node9 -->
<g id="node9" class="node">
<title>Node9</title>
<g id="a_node9"><a xlink:title=" ">
<polygon fill="none" stroke="#bfbfbf" points="260,-11.5 260,-30.5 308,-30.5 308,-11.5 260,-11.5"/>
<text text-anchor="middle" x="284" y="-18.5" font-family="Helvetica,sans-Serif" font-size="10.00">mutex</text>
</a>
</g>
</g>
<!-- Node1&#45;&gt;Node9 -->
<g id="edge31" class="edge">
<title>Node1&#45;&gt;Node9</title>
<path fill="none" stroke="midnightblue" d="M1365.19,-174.34C1179.16,-169.61 684.99,-154.11 525,-120 428.44,-99.41 405.82,-85.11 317,-42 313.24,-40.18 309.36,-38.06 305.63,-35.89"/>
<polygon fill="midnightblue" stroke="midnightblue" points="307.22,-32.76 296.85,-30.56 303.58,-38.74 307.22,-32.76"/>
</g>
<!-- Node10 -->
<g id="node10" class="node">
<title>Node10</title>
<g id="a_node10"><a xlink:title=" ">
<polygon fill="none" stroke="#bfbfbf" points="326,-11.5 326,-30.5 382,-30.5 382,-11.5 326,-11.5"/>
<text text-anchor="middle" x="354" y="-18.5" font-family="Helvetica,sans-Serif" font-size="10.00">optional</text>
</a>
</g>
</g>
<!-- Node1&#45;&gt;Node10 -->
<g id="edge32" class="edge">
<title>Node1&#45;&gt;Node10</title>
<path fill="none" stroke="midnightblue" d="M1365.34,-176.58C1192.7,-175.9 742.09,-161.8 391,-42 386.08,-40.32 381.03,-38.03 376.3,-35.59"/>
<polygon fill="midnightblue" stroke="midnightblue" points="377.65,-32.34 367.21,-30.54 374.25,-38.46 377.65,-32.34"/>
</g>
<!-- Node12 -->
<g id="node12" class="node">
<title>Node12</title>
<g id="a_node12"><a xlink:title=" ">
<polygon fill="none" stroke="#bfbfbf" points="1968.5,-6 1968.5,-36 2113.5,-36 2113.5,-6 1968.5,-6"/>
<text text-anchor="start" x="1976.5" y="-24" font-family="Helvetica,sans-Serif" font-size="10.00">boost/log/sources/severity</text>
<text text-anchor="middle" x="2041" y="-13" font-family="Helvetica,sans-Serif" font-size="10.00">_logger.hpp</text>
</a>
</g>
</g>
<!-- Node1&#45;&gt;Node12 -->
<g id="edge33" class="edge">
<title>Node1&#45;&gt;Node12</title>
<path fill="none" stroke="midnightblue" d="M1365.17,-176.17C1265.84,-174.71 1094.28,-165.46 1055,-120 1042.8,-105.88 1042.07,-91.46 1055,-78 1089.87,-41.72 1910.18,-49.07 1960,-42 1966.74,-41.04 1973.75,-39.76 1980.68,-38.31"/>
<polygon fill="midnightblue" stroke="midnightblue" points="1981.75,-41.66 1990.76,-36.08 1980.23,-34.82 1981.75,-41.66"/>
</g>
<!-- Node13 -->
<g id="node13" class="node">
<title>Node13</title>
<g id="a_node13"><a xlink:title=" ">
<polygon fill="none" stroke="#bfbfbf" points="2132,-11.5 2132,-30.5 2246,-30.5 2246,-11.5 2132,-11.5"/>
<text text-anchor="middle" x="2189" y="-18.5" font-family="Helvetica,sans-Serif" font-size="10.00">boost/log/trivial.hpp</text>
</a>
</g>
</g>
<!-- Node1&#45;&gt;Node13 -->
<g id="edge34" class="edge">
<title>Node1&#45;&gt;Node13</title>
<path fill="none" stroke="midnightblue" d="M1365.27,-176.98C1240.48,-176.49 1004.38,-164.57 1088,-78 1127.97,-36.62 2066.24,-51.42 2123,-42 2134.1,-40.16 2145.94,-36.97 2156.49,-33.68"/>
<polygon fill="midnightblue" stroke="midnightblue" points="2157.72,-36.96 2166.14,-30.53 2155.54,-30.31 2157.72,-36.96"/>
</g>
<!-- Node20 -->
<g id="node20" class="node">
<title>Node20</title>
<g id="a_node20"><a xlink:title=" ">
<polygon fill="none" stroke="#bfbfbf" points="1097,-84 1097,-114 1255,-114 1255,-84 1097,-84"/>
<text text-anchor="start" x="1105" y="-102" font-family="Helvetica,sans-Serif" font-size="10.00">seerep&#45;msgs/boundingbox2d</text>
<text text-anchor="middle" x="1176" y="-91" font-family="Helvetica,sans-Serif" font-size="10.00">_labeled_generated.h</text>
</a>
</g>
</g>
<!-- Node1&#45;&gt;Node20 -->
<g id="edge20" class="edge">
<title>Node1&#45;&gt;Node20</title>
<path fill="none" stroke="midnightblue" d="M1369.79,-156.43C1327.79,-144.2 1274.25,-128.61 1234.09,-116.92"/>
<polygon fill="midnightblue" stroke="midnightblue" points="1235.02,-113.54 1224.44,-114.11 1233.07,-120.26 1235.02,-113.54"/>
</g>
<!-- Node21 -->
<g id="node21" class="node">
<title>Node21</title>
<g id="a_node21"><a xlink:title=" ">
<polygon fill="none" stroke="#bfbfbf" points="1273,-78.5 1273,-119.5 1431,-119.5 1431,-78.5 1273,-78.5"/>
<text text-anchor="start" x="1281" y="-107.5" font-family="Helvetica,sans-Serif" font-size="10.00">seerep&#45;msgs/boundingbox2d</text>
<text text-anchor="start" x="1281" y="-96.5" font-family="Helvetica,sans-Serif" font-size="10.00">_labeled_with_category</text>
<text text-anchor="middle" x="1352" y="-85.5" font-family="Helvetica,sans-Serif" font-size="10.00">_generated.h</text>
</a>
</g>
</g>
<!-- Node1&#45;&gt;Node21 -->
<g id="edge21" class="edge">
<title>Node1&#45;&gt;Node21</title>
<path fill="none" stroke="midnightblue" d="M1415.11,-156.43C1404.9,-147.3 1392.59,-136.29 1381.57,-126.44"/>
<polygon fill="midnightblue" stroke="midnightblue" points="1383.6,-123.56 1373.82,-119.51 1378.94,-128.78 1383.6,-123.56"/>
</g>
<!-- Node22 -->
<g id="node22" class="node">
<title>Node22</title>
<g id="a_node22"><a xlink:title=" ">
<polygon fill="none" stroke="#bfbfbf" points="1449,-84 1449,-114 1595,-114 1595,-84 1449,-84"/>
<text text-anchor="start" x="1457" y="-102" font-family="Helvetica,sans-Serif" font-size="10.00">seerep&#45;msgs/boundingbox</text>
<text text-anchor="middle" x="1522" y="-91" font-family="Helvetica,sans-Serif" font-size="10.00">_labeled_generated.h</text>
</a>
</g>
</g>
<!-- Node1&#45;&gt;Node22 -->
<g id="edge22" class="edge">
<title>Node1&#45;&gt;Node22</title>
<path fill="none" stroke="midnightblue" d="M1458.89,-156.43C1470.99,-145.6 1486.04,-132.15 1498.41,-121.09"/>
<polygon fill="midnightblue" stroke="midnightblue" points="1500.97,-123.5 1506.09,-114.23 1496.3,-118.28 1500.97,-123.5"/>
</g>
<!-- Node23 -->
<g id="node23" class="node">
<title>Node23</title>
<g id="a_node23"><a xlink:title=" ">
<polygon fill="none" stroke="#bfbfbf" points="1613,-78.5 1613,-119.5 1759,-119.5 1759,-78.5 1613,-78.5"/>
<text text-anchor="start" x="1621" y="-107.5" font-family="Helvetica,sans-Serif" font-size="10.00">seerep&#45;msgs/boundingbox</text>
<text text-anchor="start" x="1621" y="-96.5" font-family="Helvetica,sans-Serif" font-size="10.00">_labeled_with_category</text>
<text text-anchor="middle" x="1686" y="-85.5" font-family="Helvetica,sans-Serif" font-size="10.00">_generated.h</text>
</a>
</g>
</g>
<!-- Node1&#45;&gt;Node23 -->
<g id="edge23" class="edge">
<title>Node1&#45;&gt;Node23</title>
<path fill="none" stroke="midnightblue" d="M1501.12,-156.43C1535.11,-146.06 1577.01,-133.27 1612.32,-122.49"/>
<polygon fill="midnightblue" stroke="midnightblue" points="1613.55,-125.77 1622.09,-119.51 1611.51,-119.08 1613.55,-125.77"/>
</g>
<!-- Node24 -->
<g id="node24" class="node">
<title>Node24</title>
<g id="a_node24"><a xlink:title=" ">
<polygon fill="none" stroke="#bfbfbf" points="1777,-84 1777,-114 1893,-114 1893,-84 1777,-84"/>
<text text-anchor="start" x="1785" y="-102" font-family="Helvetica,sans-Serif" font-size="10.00">seerep&#45;msgs/header</text>
<text text-anchor="middle" x="1835" y="-91" font-family="Helvetica,sans-Serif" font-size="10.00">_generated.h</text>
</a>
</g>
</g>
<!-- Node1&#45;&gt;Node24 -->
<g id="edge24" class="edge">
<title>Node1&#45;&gt;Node24</title>
<path fill="none" stroke="midnightblue" d="M1508.53,-166.48C1575.91,-156.91 1679.45,-140.63 1768,-120 1772.31,-119 1776.74,-117.87 1781.19,-116.69"/>
<polygon fill="midnightblue" stroke="midnightblue" points="1782.17,-120.05 1790.88,-114 1780.3,-113.3 1782.17,-120.05"/>
</g>
<!-- Node25 -->
<g id="node25" class="node">
<title>Node25</title>
<g id="a_node25"><a xlink:title=" ">
<polygon fill="none" stroke="#bfbfbf" points="1911,-78.5 1911,-119.5 2039,-119.5 2039,-78.5 1911,-78.5"/>
<text text-anchor="start" x="1919" y="-107.5" font-family="Helvetica,sans-Serif" font-size="10.00">seerep&#45;msgs/labels</text>
<text text-anchor="start" x="1919" y="-96.5" font-family="Helvetica,sans-Serif" font-size="10.00">_with_instance_with</text>
<text text-anchor="middle" x="1975" y="-85.5" font-family="Helvetica,sans-Serif" font-size="10.00">_category_generated.h</text>
</a>
</g>
</g>
<!-- Node1&#45;&gt;Node25 -->
<g id="edge25" class="edge">
<title>Node1&#45;&gt;Node25</title>
<path fill="none" stroke="midnightblue" d="M1508.81,-170.66C1598.54,-163.25 1756.85,-147.75 1900.74,-120.11"/>
<polygon fill="midnightblue" stroke="midnightblue" points="1901.49,-123.53 1910.64,-118.19 1900.15,-116.66 1901.49,-123.53"/>
</g>
<!-- Node26 -->
<g id="node26" class="node">
<title>Node26</title>
<g id="a_node26"><a xlink:title=" ">
<polygon fill="none" stroke="#bfbfbf" points="2057.5,-84 2057.5,-114 2194.5,-114 2194.5,-84 2057.5,-84"/>
<text text-anchor="start" x="2065.5" y="-102" font-family="Helvetica,sans-Serif" font-size="10.00">seerep&#45;msgs/union_map</text>
<text text-anchor="middle" x="2126" y="-91" font-family="Helvetica,sans-Serif" font-size="10.00">_entry_generated.h</text>
</a>
</g>
</g>
<!-- Node1&#45;&gt;Node26 -->
<g id="edge26" class="edge">
<title>Node1&#45;&gt;Node26</title>
<path fill="none" stroke="midnightblue" d="M1508.51,-173.15C1623.09,-167.75 1854.6,-153.44 2048,-120 2053.82,-118.99 2059.85,-117.77 2065.86,-116.44"/>
<polygon fill="midnightblue" stroke="midnightblue" points="2066.96,-119.78 2075.9,-114.1 2065.37,-112.96 2066.96,-119.78"/>
</g>
<!-- Node27 -->
<g id="node27" class="node">
<title>Node27</title>
<g id="a_node27"><a xlink:title=" ">
<polygon fill="none" stroke="#bfbfbf" points="2212.5,-89.5 2212.5,-108.5 2307.5,-108.5 2307.5,-89.5 2212.5,-89.5"/>
<text text-anchor="middle" x="2260" y="-96.5" font-family="Helvetica,sans-Serif" font-size="10.00">grpcpp/grpcpp.h</text>
</a>
</g>
</g>
<!-- Node1&#45;&gt;Node27 -->
<g id="edge27" class="edge">
<title>Node1&#45;&gt;Node27</title>
<path fill="none" stroke="midnightblue" d="M1508.59,-173.24C1672.77,-166.52 2072.38,-147.77 2204,-120 2212.86,-118.13 2222.22,-115.2 2230.7,-112.14"/>
<polygon fill="midnightblue" stroke="midnightblue" points="2232.05,-115.38 2240.16,-108.57 2229.57,-108.83 2232.05,-115.38"/>
</g>
<!-- Node28 -->
<g id="node28" class="node">
<title>Node28</title>
<g id="a_node28"><a xlink:title=" ">
<polygon fill="none" stroke="#bfbfbf" points="2325.5,-89.5 2325.5,-108.5 2424.5,-108.5 2424.5,-89.5 2325.5,-89.5"/>
<text text-anchor="middle" x="2375" y="-96.5" font-family="Helvetica,sans-Serif" font-size="10.00">flatbuffers/grpc.h</text>
</a>
</g>
</g>
<!-- Node1&#45;&gt;Node28 -->
<g id="edge28" class="edge">
<title>Node1&#45;&gt;Node28</title>
<path fill="none" stroke="midnightblue" d="M1508.55,-173.92C1689.67,-168.26 2162.86,-150.89 2317,-120 2326.33,-118.13 2336.22,-115.13 2345.13,-112.01"/>
<polygon fill="midnightblue" stroke="midnightblue" points="2346.52,-115.23 2354.7,-108.5 2344.11,-108.66 2346.52,-115.23"/>
</g>
<!-- Node29 -->
<g id="node29" class="node">
<title>Node29</title>
<g id="a_node29"><a xlink:title=" ">
<polygon fill="none" stroke="#bfbfbf" points="2443,-89.5 2443,-108.5 2511,-108.5 2511,-89.5 2443,-89.5"/>
<text text-anchor="middle" x="2477" y="-96.5" font-family="Helvetica,sans-Serif" font-size="10.00">filesystem</text>
</a>
</g>
</g>
<!-- Node1&#45;&gt;Node29 -->
<g id="edge30" class="edge">
<title>Node1&#45;&gt;Node29</title>
<path fill="none" stroke="midnightblue" d="M1508.77,-175.48C1706.94,-173.47 2258.59,-163.99 2434,-120 2440.24,-118.43 2446.68,-115.96 2452.61,-113.28"/>
<polygon fill="midnightblue" stroke="midnightblue" points="2454.55,-116.23 2462,-108.69 2451.48,-109.94 2454.55,-116.23"/>
</g>
<!-- Node30 -->
<g id="node30" class="node">
<title>Node30</title>
<g id="a_node30"><a xlink:title=" ">
<polygon fill="none" stroke="#bfbfbf" points="2529,-89.5 2529,-108.5 2667,-108.5 2667,-89.5 2529,-89.5"/>
<text text-anchor="middle" x="2598" y="-96.5" font-family="Helvetica,sans-Serif" font-size="10.00">impl/hdf5&#45;fb&#45;general.hpp</text>
</a>
</g>
</g>
<!-- Node1&#45;&gt;Node30 -->
<g id="edge35" class="edge">
<title>Node1&#45;&gt;Node30</title>
<path fill="none" stroke="midnightblue" d="M1508.54,-174.16C1717.41,-168.5 2323.99,-149.89 2520,-120 2533.3,-117.97 2547.63,-114.64 2560.33,-111.27"/>
<polygon fill="midnightblue" stroke="midnightblue" points="2561.4,-114.61 2570.12,-108.59 2559.55,-107.86 2561.4,-114.61"/>
</g>
<!-- Node3&#45;&gt;Node2 -->
<g id="edge3" class="edge">
<title>Node3&#45;&gt;Node2</title>
<path fill="none" stroke="midnightblue" d="M877.32,-98.71C739.1,-99.18 398.25,-94.4 119,-42 108.53,-40.04 97.37,-36.92 87.35,-33.73"/>
<polygon fill="midnightblue" stroke="midnightblue" points="88.37,-30.38 77.78,-30.55 86.16,-37.02 88.37,-30.38"/>
</g>
<!-- Node4 -->
<g id="node4" class="node">
<title>Node4</title>
<g id="a_node4"><a xlink:title=" ">
<polygon fill="none" stroke="#bfbfbf" points="1032,-11.5 1032,-30.5 1148,-30.5 1148,-11.5 1032,-11.5"/>
<text text-anchor="middle" x="1090" y="-18.5" font-family="Helvetica,sans-Serif" font-size="10.00">seerep&#45;msgs/aabb.h</text>
</a>
</g>
</g>
<!-- Node3&#45;&gt;Node4 -->
<g id="edge4" class="edge">
<title>Node3&#45;&gt;Node4</title>
<path fill="none" stroke="midnightblue" d="M967.86,-83.88C995.33,-69.97 1036.98,-48.86 1063.84,-35.25"/>
<polygon fill="midnightblue" stroke="midnightblue" points="1065.68,-38.25 1073.01,-30.61 1062.51,-32 1065.68,-38.25"/>
</g>
<!-- Node5 -->
<g id="node5" class="node">
<title>Node5</title>
<g id="a_node5"><a xlink:title=" ">
<polygon fill="none" stroke="#bfbfbf" points="1166.5,-6 1166.5,-36 1285.5,-36 1285.5,-6 1166.5,-6"/>
<text text-anchor="start" x="1174.5" y="-24" font-family="Helvetica,sans-Serif" font-size="10.00">seerep&#45;msgs/dataset</text>
<text text-anchor="middle" x="1226" y="-13" font-family="Helvetica,sans-Serif" font-size="10.00">&#45;indexable.h</text>
</a>
</g>
</g>
<!-- Node3&#45;&gt;Node5 -->
<g id="edge5" class="edge">
<title>Node3&#45;&gt;Node5</title>
<path fill="none" stroke="midnightblue" d="M993.85,-84C1001.61,-81.98 1009.51,-79.94 1017,-78 1079.2,-61.92 1095.03,-58.94 1157,-42 1160.75,-40.97 1164.61,-39.9 1168.5,-38.81"/>
<polygon fill="midnightblue" stroke="midnightblue" points="1169.5,-42.16 1178.17,-36.07 1167.59,-35.43 1169.5,-42.16"/>
</g>
<!-- Node6 -->
<g id="node6" class="node">
<title>Node6</title>
<g id="a_node6"><a xlink:title=" ">
<polygon fill="none" stroke="#bfbfbf" points="1303.5,-6 1303.5,-36 1428.5,-36 1428.5,-6 1303.5,-6"/>
<text text-anchor="start" x="1311.5" y="-24" font-family="Helvetica,sans-Serif" font-size="10.00">seerep&#45;msgs/geodetic</text>
<text text-anchor="middle" x="1366" y="-13" font-family="Helvetica,sans-Serif" font-size="10.00">&#45;coordinates.h</text>
</a>
</g>
</g>
<!-- Node3&#45;&gt;Node6 -->
<g id="edge6" class="edge">
<title>Node3&#45;&gt;Node6</title>
<path fill="none" stroke="midnightblue" d="M990.32,-83.96C999.17,-81.77 1008.32,-79.68 1017,-78 1139.31,-54.29 1172.94,-66.96 1295,-42 1299.97,-40.98 1305.1,-39.8 1310.23,-38.53"/>
<polygon fill="midnightblue" stroke="midnightblue" points="1311.22,-41.89 1320.03,-36 1309.47,-35.11 1311.22,-41.89"/>
</g>
<!-- Node7 -->
<g id="node7" class="node">
<title>Node7</title>
<g id="a_node7"><a xlink:title=" ">
<polygon fill="none" stroke="#bfbfbf" points="1447,-0.5 1447,-41.5 1559,-41.5 1559,-0.5 1447,-0.5"/>
<text text-anchor="start" x="1455" y="-29.5" font-family="Helvetica,sans-Serif" font-size="10.00">seerep&#45;msgs/labels</text>
<text text-anchor="start" x="1455" y="-18.5" font-family="Helvetica,sans-Serif" font-size="10.00">&#45;with&#45;instance&#45;with</text>
<text text-anchor="middle" x="1503" y="-7.5" font-family="Helvetica,sans-Serif" font-size="10.00">&#45;category.h</text>
</a>
</g>
</g>
<!-- Node3&#45;&gt;Node7 -->
<g id="edge7" class="edge">
<title>Node3&#45;&gt;Node7</title>
<path fill="none" stroke="midnightblue" d="M989.02,-83.95C998.26,-81.68 1007.88,-79.56 1017,-78 1198.84,-46.84 1251.8,-76.73 1436.76,-42.02"/>
<polygon fill="midnightblue" stroke="midnightblue" points="1437.65,-45.41 1446.82,-40.09 1436.34,-38.53 1437.65,-45.41"/>
</g>
<!-- Node3&#45;&gt;Node8 -->
<g id="edge8" class="edge">
<title>Node3&#45;&gt;Node8</title>
<path fill="none" stroke="midnightblue" d="M877.17,-97.35C755.33,-95.12 478.85,-85.27 251,-42 240.33,-39.97 228.93,-36.87 218.65,-33.71"/>
<polygon fill="midnightblue" stroke="midnightblue" points="219.42,-30.28 208.83,-30.56 217.29,-36.95 219.42,-30.28"/>
</g>
<!-- Node3&#45;&gt;Node9 -->
<g id="edge9" class="edge">
<title>Node3&#45;&gt;Node9</title>
<path fill="none" stroke="midnightblue" d="M877.4,-95.96C740.78,-90.93 419.92,-75.79 317,-42 312.51,-40.53 307.99,-38.35 303.8,-35.96"/>
<polygon fill="midnightblue" stroke="midnightblue" points="305.61,-32.96 295.28,-30.61 301.88,-38.89 305.61,-32.96"/>
</g>
<!-- Node3&#45;&gt;Node10 -->
<g id="edge10" class="edge">
<title>Node3&#45;&gt;Node10</title>
<path fill="none" stroke="midnightblue" d="M877.03,-94.68C752.78,-87.63 480.39,-69.52 391,-42 385.81,-40.4 380.52,-38.05 375.61,-35.51"/>
<polygon fill="midnightblue" stroke="midnightblue" points="377.23,-32.4 366.8,-30.55 373.8,-38.5 377.23,-32.4"/>
</g>
<!-- Node11 -->
<g id="node11" class="node">
<title>Node11</title>
<g id="a_node11"><a xlink:title=" ">
<polygon fill="none" stroke="#bfbfbf" points="1577.5,-11.5 1577.5,-30.5 1646.5,-30.5 1646.5,-11.5 1577.5,-11.5"/>
<text text-anchor="middle" x="1612" y="-18.5" font-family="Helvetica,sans-Serif" font-size="10.00">type_traits</text>
</a>
</g>
</g>
<!-- Node3&#45;&gt;Node11 -->
<g id="edge11" class="edge">
<title>Node3&#45;&gt;Node11</title>
<path fill="none" stroke="midnightblue" d="M988.59,-83.9C997.95,-81.6 1007.73,-79.49 1017,-78 1259.29,-38.98 1329.97,-101.75 1568,-42 1574.52,-40.36 1581.26,-37.8 1587.45,-35.04"/>
<polygon fill="midnightblue" stroke="midnightblue" points="1589.1,-38.13 1596.62,-30.65 1586.08,-31.81 1589.1,-38.13"/>
</g>
<!-- Node3&#45;&gt;Node12 -->
<g id="edge12" class="edge">
<title>Node3&#45;&gt;Node12</title>
<path fill="none" stroke="midnightblue" d="M987.32,-84C997.06,-81.6 1007.3,-79.43 1017,-78 1431.95,-16.92 1544.69,-100.57 1960,-42 1966.75,-41.05 1973.75,-39.77 1980.68,-38.32"/>
<polygon fill="midnightblue" stroke="midnightblue" points="1981.75,-41.67 1990.76,-36.09 1980.24,-34.83 1981.75,-41.67"/>
</g>
<!-- Node3&#45;&gt;Node13 -->
<g id="edge13" class="edge">
<title>Node3&#45;&gt;Node13</title>
<path fill="none" stroke="midnightblue" d="M1002.75,-85.47C1019.65,-82.54 1037.97,-79.76 1055,-78 1527.42,-29.19 1654.43,-119.52 2123,-42 2134.1,-40.16 2145.94,-36.98 2156.49,-33.69"/>
<polygon fill="midnightblue" stroke="midnightblue" points="2157.72,-36.97 2166.14,-30.54 2155.54,-30.31 2157.72,-36.97"/>
</g>
<!-- Node14 -->
<g id="node14" class="node">
<title>Node14</title>
<g id="a_node14"><a xlink:title=" ">
<polygon fill="none" stroke="#bfbfbf" points="1664.5,-11.5 1664.5,-30.5 1807.5,-30.5 1807.5,-11.5 1664.5,-11.5"/>
<text text-anchor="middle" x="1736" y="-18.5" font-family="Helvetica,sans-Serif" font-size="10.00">boost/functional/hash.hpp</text>
</a>
</g>
</g>
<!-- Node3&#45;&gt;Node14 -->
<g id="edge14" class="edge">
<title>Node3&#45;&gt;Node14</title>
<path fill="none" stroke="midnightblue" d="M988.16,-83.93C997.65,-81.61 1007.58,-79.47 1017,-78 1298.03,-34.03 1374.77,-84.68 1656,-42 1669.63,-39.93 1684.32,-36.59 1697.34,-33.23"/>
<polygon fill="midnightblue" stroke="midnightblue" points="1698.62,-36.51 1707.38,-30.55 1696.82,-29.74 1698.62,-36.51"/>
</g>
<!-- Node15 -->
<g id="node15" class="node">
<title>Node15</title>
<g id="a_node15"><a xlink:title=" ">
<polygon fill="none" stroke="#bfbfbf" points="1825.5,-11.5 1825.5,-30.5 1950.5,-30.5 1950.5,-11.5 1825.5,-11.5"/>
<text text-anchor="middle" x="1888" y="-18.5" font-family="Helvetica,sans-Serif" font-size="10.00">boost/lexical_cast.hpp</text>
</a>
</g>
</g>
<!-- Node3&#45;&gt;Node15 -->
<g id="edge15" class="edge">
<title>Node3&#45;&gt;Node15</title>
<path fill="none" stroke="midnightblue" d="M987.74,-83.95C997.35,-81.59 1007.44,-79.44 1017,-78 1368.94,-24.97 1465.62,-98.62 1817,-42 1829.03,-40.06 1841.92,-36.8 1853.38,-33.47"/>
<polygon fill="midnightblue" stroke="midnightblue" points="1854.45,-36.8 1863.01,-30.56 1852.43,-30.1 1854.45,-36.8"/>
</g>
<!-- Node16 -->
<g id="node16" class="node">
<title>Node16</title>
<g id="a_node16"><a xlink:title=" ">
<polygon fill="none" stroke="#bfbfbf" points="400.5,-11.5 400.5,-30.5 513.5,-30.5 513.5,-11.5 400.5,-11.5"/>
<text text-anchor="middle" x="457" y="-18.5" font-family="Helvetica,sans-Serif" font-size="10.00">boost/uuid/uuid.hpp</text>
</a>
</g>
</g>
<!-- Node3&#45;&gt;Node16 -->
<g id="edge16" class="edge">
<title>Node3&#45;&gt;Node16</title>
<path fill="none" stroke="midnightblue" d="M877.29,-92.75C795.21,-85.15 647.2,-68.98 523,-42 512.65,-39.75 501.56,-36.67 491.49,-33.59"/>
<polygon fill="midnightblue" stroke="midnightblue" points="492.41,-30.21 481.82,-30.56 490.31,-36.89 492.41,-30.21"/>
</g>
<!-- Node17 -->
<g id="node17" class="node">
<title>Node17</title>
<g id="a_node17"><a xlink:title=" ">
<polygon fill="none" stroke="#bfbfbf" points="532,-11.5 532,-30.5 702,-30.5 702,-11.5 532,-11.5"/>
<text text-anchor="middle" x="617" y="-18.5" font-family="Helvetica,sans-Serif" font-size="10.00">boost/uuid/uuid_generators.hpp</text>
</a>
</g>
</g>
<!-- Node3&#45;&gt;Node17 -->
<g id="edge17" class="edge">
<title>Node3&#45;&gt;Node17</title>
<path fill="none" stroke="midnightblue" d="M880.38,-83.97C817.62,-69.2 720.15,-46.27 663.05,-32.83"/>
<polygon fill="midnightblue" stroke="midnightblue" points="663.75,-29.4 653.21,-30.52 662.15,-36.22 663.75,-29.4"/>
</g>
<!-- Node18 -->
<g id="node18" class="node">
<title>Node18</title>
<g id="a_node18"><a xlink:title=" ">
<polygon fill="none" stroke="#bfbfbf" points="720.5,-11.5 720.5,-30.5 847.5,-30.5 847.5,-11.5 720.5,-11.5"/>
<text text-anchor="middle" x="784" y="-18.5" font-family="Helvetica,sans-Serif" font-size="10.00">boost/uuid/uuid_io.hpp</text>
</a>
</g>
</g>
<!-- Node3&#45;&gt;Node18 -->
<g id="edge18" class="edge">
<title>Node3&#45;&gt;Node18</title>
<path fill="none" stroke="midnightblue" d="M911.02,-83.88C882.33,-69.91 838.76,-48.68 810.84,-35.08"/>
<polygon fill="midnightblue" stroke="midnightblue" points="812.19,-31.84 801.67,-30.61 809.12,-38.13 812.19,-31.84"/>
</g>
<!-- Node19 -->
<g id="node19" class="node">
<title>Node19</title>
<g id="a_node19"><a xlink:title=" ">
<polygon fill="none" stroke="#bfbfbf" points="865.5,-11.5 865.5,-30.5 1014.5,-30.5 1014.5,-11.5 865.5,-11.5"/>
<text text-anchor="middle" x="940" y="-18.5" font-family="Helvetica,sans-Serif" font-size="10.00">impl/hdf5&#45;core&#45;general.hpp</text>
</a>
</g>
</g>
<!-- Node3&#45;&gt;Node19 -->
<g id="edge19" class="edge">
<title>Node3&#45;&gt;Node19</title>
<path fill="none" stroke="midnightblue" d="M940,-83.7C940,-71.6 940,-54.15 940,-40.89"/>
<polygon fill="midnightblue" stroke="midnightblue" points="943.5,-40.56 940,-30.56 936.5,-40.56 943.5,-40.56"/>
</g>
</g>
</svg>
