<?xml version="1.0" encoding="UTF-8" standalone="no"?>
<!DOCTYPE svg PUBLIC "-//W3C//DTD SVG 1.1//EN"
 "http://www.w3.org/Graphics/SVG/1.1/DTD/svg11.dtd">
<!-- Generated by graphviz version 2.43.0 (0)
 -->
<!-- Title: seerep_hdf5/seerep_hdf5_core/include/seerep_hdf5_core/hdf5_core_general.h Pages: 1 -->
<svg width="2266pt" height="128pt"
 viewBox="0.00 0.00 2266.00 128.00" xmlns="http://www.w3.org/2000/svg" xmlns:xlink="http://www.w3.org/1999/xlink">
<g id="graph0" class="graph" transform="scale(1 1) rotate(0) translate(4 124)">
<title>seerep_hdf5/seerep_hdf5_core/include/seerep_hdf5_core/hdf5_core_general.h</title>
<!-- Node1 -->
<g id="node1" class="node">
<title>Node1</title>
<g id="a_node1"><a xlink:title=" ">
<polygon fill="#bfbfbf" stroke="black" points="902,-78.5 902,-119.5 1074,-119.5 1074,-78.5 902,-78.5"/>
<text text-anchor="start" x="910" y="-107.5" font-family="Helvetica,sans-Serif" font-size="10.00">seerep_hdf5/seerep</text>
<text text-anchor="start" x="910" y="-96.5" font-family="Helvetica,sans-Serif" font-size="10.00">_hdf5_core/include/seerep</text>
<text text-anchor="middle" x="988" y="-85.5" font-family="Helvetica,sans-Serif" font-size="10.00">_hdf5_core/hdf5_core_general.h</text>
</a>
</g>
</g>
<!-- Node2 -->
<g id="node2" class="node">
<title>Node2</title>
<g id="a_node2"><a xlink:title=" ">
<polygon fill="none" stroke="#bfbfbf" points="0,-11.5 0,-30.5 110,-30.5 110,-11.5 0,-11.5"/>
<text text-anchor="middle" x="55" y="-18.5" font-family="Helvetica,sans-Serif" font-size="10.00">highfive/H5File.hpp</text>
</a>
</g>
</g>
<!-- Node1&#45;&gt;Node2 -->
<g id="edge1" class="edge">
<title>Node1&#45;&gt;Node2</title>
<path fill="none" stroke="midnightblue" d="M901.72,-95.06C712.75,-88.19 267.36,-69.55 119,-42 108.53,-40.06 97.37,-36.95 87.34,-33.75"/>
<polygon fill="midnightblue" stroke="midnightblue" points="88.36,-30.4 77.77,-30.57 86.16,-37.05 88.36,-30.4"/>
</g>
<!-- Node3 -->
<g id="node3" class="node">
<title>Node3</title>
<g id="a_node3"><a xlink:title=" ">
<polygon fill="none" stroke="#bfbfbf" points="128.5,-11.5 128.5,-30.5 245.5,-30.5 245.5,-11.5 128.5,-11.5"/>
<text text-anchor="middle" x="187" y="-18.5" font-family="Helvetica,sans-Serif" font-size="10.00">seerep_msgs/aabb.h</text>
</a>
</g>
</g>
<!-- Node1&#45;&gt;Node3 -->
<g id="edge2" class="edge">
<title>Node1&#45;&gt;Node3</title>
<path fill="none" stroke="midnightblue" d="M901.91,-97.37C764,-95.04 485.54,-84.88 254,-42 243.06,-39.97 231.35,-36.83 220.84,-33.64"/>
<polygon fill="midnightblue" stroke="midnightblue" points="221.79,-30.26 211.2,-30.59 219.68,-36.94 221.79,-30.26"/>
</g>
<!-- Node4 -->
<g id="node4" class="node">
<title>Node4</title>
<g id="a_node4"><a xlink:title=" ">
<polygon fill="none" stroke="#bfbfbf" points="263.5,-6 263.5,-36 384.5,-36 384.5,-6 263.5,-6"/>
<text text-anchor="start" x="271.5" y="-24" font-family="Helvetica,sans-Serif" font-size="10.00">seerep_msgs/dataset</text>
<text text-anchor="middle" x="324" y="-13" font-family="Helvetica,sans-Serif" font-size="10.00">_indexable.h</text>
</a>
</g>
</g>
<!-- Node1&#45;&gt;Node4 -->
<g id="edge3" class="edge">
<title>Node1&#45;&gt;Node4</title>
<path fill="none" stroke="midnightblue" d="M901.73,-94.85C785.52,-89.48 572.65,-75.64 394,-42 388.93,-41.04 383.69,-39.89 378.48,-38.61"/>
<polygon fill="midnightblue" stroke="midnightblue" points="379.07,-35.15 368.52,-36.04 377.33,-41.93 379.07,-35.15"/>
</g>
<!-- Node5 -->
<g id="node5" class="node">
<title>Node5</title>
<g id="a_node5"><a xlink:title=" ">
<polygon fill="none" stroke="#bfbfbf" points="403,-6 403,-36 529,-36 529,-6 403,-6"/>
<text text-anchor="start" x="411" y="-24" font-family="Helvetica,sans-Serif" font-size="10.00">seerep_msgs/geodetic</text>
<text text-anchor="middle" x="466" y="-13" font-family="Helvetica,sans-Serif" font-size="10.00">_coordinates.h</text>
</a>
</g>
</g>
<!-- Node1&#45;&gt;Node5 -->
<g id="edge4" class="edge">
<title>Node1&#45;&gt;Node5</title>
<path fill="none" stroke="midnightblue" d="M901.97,-91.09C810.95,-82.89 663.45,-67.09 538,-42 532.96,-40.99 527.76,-39.82 522.56,-38.55"/>
<polygon fill="midnightblue" stroke="midnightblue" points="523.18,-35.1 512.62,-36.03 521.45,-41.88 523.18,-35.1"/>
</g>
<!-- Node6 -->
<g id="node6" class="node">
<title>Node6</title>
<g id="a_node6"><a xlink:title=" ">
<polygon fill="none" stroke="#bfbfbf" points="547,-0.5 547,-41.5 663,-41.5 663,-0.5 547,-0.5"/>
<text text-anchor="start" x="555" y="-29.5" font-family="Helvetica,sans-Serif" font-size="10.00">seerep_msgs/labels</text>
<text text-anchor="start" x="555" y="-18.5" font-family="Helvetica,sans-Serif" font-size="10.00">_with_instance_with</text>
<text text-anchor="middle" x="605" y="-7.5" font-family="Helvetica,sans-Serif" font-size="10.00">_category.h</text>
</a>
</g>
</g>
<!-- Node1&#45;&gt;Node6 -->
<g id="edge5" class="edge">
<title>Node1&#45;&gt;Node6</title>
<path fill="none" stroke="midnightblue" d="M901.95,-85.48C840.53,-75.91 755.86,-61.43 673.17,-42.16"/>
<polygon fill="midnightblue" stroke="midnightblue" points="673.9,-38.74 663.36,-39.85 672.29,-45.55 673.9,-38.74"/>
</g>
<!-- Node7 -->
<g id="node7" class="node">
<title>Node7</title>
<g id="a_node7"><a xlink:title=" ">
<polygon fill="none" stroke="#bfbfbf" points="681.5,-11.5 681.5,-30.5 794.5,-30.5 794.5,-11.5 681.5,-11.5"/>
<text text-anchor="middle" x="738" y="-18.5" font-family="Helvetica,sans-Serif" font-size="10.00">boost/geometry.hpp</text>
</a>
</g>
</g>
<!-- Node1&#45;&gt;Node7 -->
<g id="edge6" class="edge">
<title>Node1&#45;&gt;Node7</title>
<path fill="none" stroke="midnightblue" d="M923.62,-78.43C876.77,-64.19 814.94,-45.39 775.81,-33.49"/>
<polygon fill="midnightblue" stroke="midnightblue" points="776.72,-30.11 766.13,-30.55 774.68,-36.81 776.72,-30.11"/>
</g>
<!-- Node8 -->
<g id="node8" class="node">
<title>Node8</title>
<g id="a_node8"><a xlink:title=" ">
<polygon fill="none" stroke="#bfbfbf" points="813,-11.5 813,-30.5 861,-30.5 861,-11.5 813,-11.5"/>
<text text-anchor="middle" x="837" y="-18.5" font-family="Helvetica,sans-Serif" font-size="10.00">mutex</text>
</a>
</g>
</g>
<!-- Node1&#45;&gt;Node8 -->
<g id="edge7" class="edge">
<title>Node1&#45;&gt;Node8</title>
<path fill="none" stroke="midnightblue" d="M944.04,-78.43C921.61,-68.12 894.06,-54.96 870,-42 866.55,-40.14 862.96,-38.09 859.47,-36.03"/>
<polygon fill="midnightblue" stroke="midnightblue" points="860.99,-32.87 850.63,-30.69 857.37,-38.86 860.99,-32.87"/>
</g>
<!-- Node9 -->
<g id="node9" class="node">
<title>Node9</title>
<g id="a_node9"><a xlink:title=" ">
<polygon fill="none" stroke="#bfbfbf" points="879,-11.5 879,-30.5 935,-30.5 935,-11.5 879,-11.5"/>
<text text-anchor="middle" x="907" y="-18.5" font-family="Helvetica,sans-Serif" font-size="10.00">optional</text>
</a>
</g>
</g>
<!-- Node1&#45;&gt;Node9 -->
<g id="edge8" class="edge">
<title>Node1&#45;&gt;Node9</title>
<path fill="none" stroke="midnightblue" d="M967.14,-78.43C953.61,-65.73 936.21,-49.41 923.61,-37.59"/>
<polygon fill="midnightblue" stroke="midnightblue" points="925.8,-34.84 916.11,-30.55 921.01,-39.95 925.8,-34.84"/>
</g>
<!-- Node10 -->
<g id="node10" class="node">
<title>Node10</title>
<g id="a_node10"><a xlink:title=" ">
<polygon fill="none" stroke="#bfbfbf" points="953.5,-11.5 953.5,-30.5 1022.5,-30.5 1022.5,-11.5 953.5,-11.5"/>
<text text-anchor="middle" x="988" y="-18.5" font-family="Helvetica,sans-Serif" font-size="10.00">type_traits</text>
</a>
</g>
</g>
<!-- Node1&#45;&gt;Node10 -->
<g id="edge9" class="edge">
<title>Node1&#45;&gt;Node10</title>
<path fill="none" stroke="midnightblue" d="M988,-78.43C988,-66.82 988,-52.18 988,-40.72"/>
<polygon fill="midnightblue" stroke="midnightblue" points="991.5,-40.55 988,-30.55 984.5,-40.55 991.5,-40.55"/>
</g>
<!-- Node11 -->
<g id="node11" class="node">
<title>Node11</title>
<g id="a_node11"><a xlink:title=" ">
<polygon fill="none" stroke="#bfbfbf" points="1040.5,-6 1040.5,-36 1185.5,-36 1185.5,-6 1040.5,-6"/>
<text text-anchor="start" x="1048.5" y="-24" font-family="Helvetica,sans-Serif" font-size="10.00">boost/log/sources/severity</text>
<text text-anchor="middle" x="1113" y="-13" font-family="Helvetica,sans-Serif" font-size="10.00">_logger.hpp</text>
</a>
</g>
</g>
<!-- Node1&#45;&gt;Node11 -->
<g id="edge10" class="edge">
<title>Node1&#45;&gt;Node11</title>
<path fill="none" stroke="midnightblue" d="M1020.19,-78.43C1038.84,-67.09 1062.24,-52.86 1080.88,-41.53"/>
<polygon fill="midnightblue" stroke="midnightblue" points="1082.88,-44.41 1089.6,-36.23 1079.24,-38.43 1082.88,-44.41"/>
</g>
<!-- Node12 -->
<g id="node12" class="node">
<title>Node12</title>
<g id="a_node12"><a xlink:title=" ">
<polygon fill="none" stroke="#bfbfbf" points="1204,-11.5 1204,-30.5 1318,-30.5 1318,-11.5 1204,-11.5"/>
<text text-anchor="middle" x="1261" y="-18.5" font-family="Helvetica,sans-Serif" font-size="10.00">boost/log/trivial.hpp</text>
</a>
</g>
</g>
<!-- Node1&#45;&gt;Node12 -->
<g id="edge11" class="edge">
<title>Node1&#45;&gt;Node12</title>
<path fill="none" stroke="midnightblue" d="M1062.4,-78.45C1101.88,-67.93 1151.16,-54.57 1195,-42 1204.3,-39.33 1214.3,-36.36 1223.63,-33.54"/>
<polygon fill="midnightblue" stroke="midnightblue" points="1224.89,-36.81 1233.44,-30.55 1222.85,-30.12 1224.89,-36.81"/>
</g>
<!-- Node13 -->
<g id="node13" class="node">
<title>Node13</title>
<g id="a_node13"><a xlink:title=" ">
<polygon fill="none" stroke="#bfbfbf" points="1336.5,-11.5 1336.5,-30.5 1479.5,-30.5 1479.5,-11.5 1336.5,-11.5"/>
<text text-anchor="middle" x="1408" y="-18.5" font-family="Helvetica,sans-Serif" font-size="10.00">boost/functional/hash.hpp</text>
</a>
</g>
</g>
<!-- Node1&#45;&gt;Node13 -->
<g id="edge12" class="edge">
<title>Node1&#45;&gt;Node13</title>
<path fill="none" stroke="midnightblue" d="M1074.03,-85.69C1142.76,-75.4 1241.4,-59.61 1327,-42 1339.76,-39.37 1353.56,-36.12 1366.08,-33.01"/>
<polygon fill="midnightblue" stroke="midnightblue" points="1366.97,-36.4 1375.81,-30.56 1365.26,-29.61 1366.97,-36.4"/>
</g>
<!-- Node14 -->
<g id="node14" class="node">
<title>Node14</title>
<g id="a_node14"><a xlink:title=" ">
<polygon fill="none" stroke="#bfbfbf" points="1497.5,-11.5 1497.5,-30.5 1622.5,-30.5 1622.5,-11.5 1497.5,-11.5"/>
<text text-anchor="middle" x="1560" y="-18.5" font-family="Helvetica,sans-Serif" font-size="10.00">boost/lexical_cast.hpp</text>
</a>
</g>
</g>
<!-- Node1&#45;&gt;Node14 -->
<g id="edge13" class="edge">
<title>Node1&#45;&gt;Node14</title>
<path fill="none" stroke="midnightblue" d="M1074.19,-92.66C1174.53,-85.45 1344.91,-70.15 1489,-42 1500.45,-39.76 1512.74,-36.58 1523.83,-33.42"/>
<polygon fill="midnightblue" stroke="midnightblue" points="1525.01,-36.72 1533.61,-30.54 1523.03,-30.01 1525.01,-36.72"/>
</g>
<!-- Node15 -->
<g id="node15" class="node">
<title>Node15</title>
<g id="a_node15"><a xlink:title=" ">
<polygon fill="none" stroke="#bfbfbf" points="1640.5,-11.5 1640.5,-30.5 1753.5,-30.5 1753.5,-11.5 1640.5,-11.5"/>
<text text-anchor="middle" x="1697" y="-18.5" font-family="Helvetica,sans-Serif" font-size="10.00">boost/uuid/uuid.hpp</text>
</a>
</g>
</g>
<!-- Node1&#45;&gt;Node15 -->
<g id="edge14" class="edge">
<title>Node1&#45;&gt;Node15</title>
<path fill="none" stroke="midnightblue" d="M1074.22,-96.29C1198.53,-92.51 1434.83,-80.46 1632,-42 1642.52,-39.95 1653.75,-36.84 1663.86,-33.68"/>
<polygon fill="midnightblue" stroke="midnightblue" points="1665.1,-36.95 1673.53,-30.54 1662.94,-30.3 1665.1,-36.95"/>
</g>
<!-- Node16 -->
<g id="node16" class="node">
<title>Node16</title>
<g id="a_node16"><a xlink:title=" ">
<polygon fill="none" stroke="#bfbfbf" points="1772,-11.5 1772,-30.5 1942,-30.5 1942,-11.5 1772,-11.5"/>
<text text-anchor="middle" x="1857" y="-18.5" font-family="Helvetica,sans-Serif" font-size="10.00">boost/uuid/uuid_generators.hpp</text>
</a>
</g>
</g>
<!-- Node1&#45;&gt;Node16 -->
<g id="edge15" class="edge">
<title>Node1&#45;&gt;Node16</title>
<path fill="none" stroke="midnightblue" d="M1074.13,-95.64C1217.63,-90.85 1514.41,-77.26 1763,-42 1779.26,-39.69 1796.92,-36.2 1812.49,-32.78"/>
<polygon fill="midnightblue" stroke="midnightblue" points="1813.4,-36.17 1822.38,-30.56 1811.86,-29.34 1813.4,-36.17"/>
</g>
<!-- Node17 -->
<g id="node17" class="node">
<title>Node17</title>
<g id="a_node17"><a xlink:title=" ">
<polygon fill="none" stroke="#bfbfbf" points="1960.5,-11.5 1960.5,-30.5 2087.5,-30.5 2087.5,-11.5 1960.5,-11.5"/>
<text text-anchor="middle" x="2024" y="-18.5" font-family="Helvetica,sans-Serif" font-size="10.00">boost/uuid/uuid_io.hpp</text>
</a>
</g>
</g>
<!-- Node1&#45;&gt;Node17 -->
<g id="edge16" class="edge">
<title>Node1&#45;&gt;Node17</title>
<path fill="none" stroke="midnightblue" d="M1074.3,-95.3C1277.89,-88.55 1783.57,-69.49 1951,-42 1963.24,-39.99 1976.37,-36.75 1988.08,-33.45"/>
<polygon fill="midnightblue" stroke="midnightblue" points="1989.32,-36.73 1997.94,-30.57 1987.36,-30.01 1989.32,-36.73"/>
</g>
<!-- Node18 -->
<g id="node18" class="node">
<title>Node18</title>
<g id="a_node18"><a xlink:title=" ">
<polygon fill="none" stroke="#bfbfbf" points="2106,-11.5 2106,-30.5 2258,-30.5 2258,-11.5 2106,-11.5"/>
<text text-anchor="middle" x="2182" y="-18.5" font-family="Helvetica,sans-Serif" font-size="10.00">impl/hdf5_core_general.hpp</text>
</a>
</g>
</g>
<!-- Node1&#45;&gt;Node18 -->
<g id="edge17" class="edge">
<title>Node1&#45;&gt;Node18</title>
<path fill="none" stroke="midnightblue" d="M1074.25,-95.66C1299.19,-89.24 1899.92,-69.93 2097,-42 2111.74,-39.91 2127.67,-36.48 2141.72,-33.05"/>
<polygon fill="midnightblue" stroke="midnightblue" points="2142.72,-36.41 2151.57,-30.57 2141.01,-29.62 2142.72,-36.41"/>
</g>
</g>
</svg>
