<?xml version="1.0" encoding="UTF-8" standalone="no"?>
<!DOCTYPE svg PUBLIC "-//W3C//DTD SVG 1.1//EN"
 "http://www.w3.org/Graphics/SVG/1.1/DTD/svg11.dtd">
<!-- Generated by graphviz version 2.43.0 (0)
 -->
<!-- Title: seerep_hdf5/seerep_hdf5_py/src/hdf5_py_image.cpp Pages: 1 -->
<svg width="2642pt" height="430pt"
 viewBox="0.00 0.00 2642.00 430.00" xmlns="http://www.w3.org/2000/svg" xmlns:xlink="http://www.w3.org/1999/xlink">
<g id="graph0" class="graph" transform="scale(1 1) rotate(0) translate(4 426)">
<title>seerep_hdf5/seerep_hdf5_py/src/hdf5_py_image.cpp</title>
<!-- Node1 -->
<g id="node1" class="node">
<title>Node1</title>
<g id="a_node1"><a xlink:title=" ">
<polygon fill="#bfbfbf" stroke="black" points="991.5,-380.5 991.5,-421.5 1111.5,-421.5 1111.5,-380.5 991.5,-380.5"/>
<text text-anchor="start" x="999.5" y="-409.5" font-family="Helvetica,sans-Serif" font-size="10.00">seerep_hdf5/seerep</text>
<text text-anchor="start" x="999.5" y="-398.5" font-family="Helvetica,sans-Serif" font-size="10.00">_hdf5_py/src/hdf5_py</text>
<text text-anchor="middle" x="1051.5" y="-387.5" font-family="Helvetica,sans-Serif" font-size="10.00">_image.cpp</text>
</a>
</g>
</g>
<!-- Node2 -->
<g id="node2" class="node">
<title>Node2</title>
<g id="a_node2"><a xlink:href="hdf5__py__image_8h.html" target="_top" xlink:title=" ">
<polygon fill="none" stroke="black" points="362,-313.5 362,-343.5 481,-343.5 481,-313.5 362,-313.5"/>
<text text-anchor="start" x="370" y="-331.5" font-family="Helvetica,sans-Serif" font-size="10.00">seerep_hdf5_py/hdf5</text>
<text text-anchor="middle" x="421.5" y="-320.5" font-family="Helvetica,sans-Serif" font-size="10.00">_py_image.h</text>
</a>
</g>
</g>
<!-- Node1&#45;&gt;Node2 -->
<g id="edge1" class="edge">
<title>Node1&#45;&gt;Node2</title>
<path fill="none" stroke="midnightblue" d="M991.38,-393.27C874.26,-380.17 616.13,-351.28 491.52,-337.34"/>
<polygon fill="midnightblue" stroke="midnightblue" points="491.66,-333.83 481.33,-336.2 490.88,-340.79 491.66,-333.83"/>
</g>
<!-- Node6 -->
<g id="node6" class="node">
<title>Node6</title>
<g id="a_node6"><a xlink:title=" ">
<polygon fill="none" stroke="#bfbfbf" points="1446.5,-129 1446.5,-148 1578.5,-148 1578.5,-129 1446.5,-129"/>
<text text-anchor="middle" x="1512.5" y="-136" font-family="Helvetica,sans-Serif" font-size="10.00">highfive/H5DataSet.hpp</text>
</a>
</g>
</g>
<!-- Node1&#45;&gt;Node6 -->
<g id="edge62" class="edge">
<title>Node1&#45;&gt;Node6</title>
<path fill="none" stroke="midnightblue" d="M1086.15,-380.42C1175.51,-329.93 1412.1,-196.24 1488.41,-153.11"/>
<polygon fill="midnightblue" stroke="midnightblue" points="1490.31,-156.06 1497.3,-148.09 1486.87,-149.96 1490.31,-156.06"/>
</g>
<!-- Node3 -->
<g id="node3" class="node">
<title>Node3</title>
<g id="a_node3"><a xlink:title=" ">
<polygon fill="none" stroke="#bfbfbf" points="508.5,-62 508.5,-81 618.5,-81 618.5,-62 508.5,-62"/>
<text text-anchor="middle" x="563.5" y="-69" font-family="Helvetica,sans-Serif" font-size="10.00">highfive/H5File.hpp</text>
</a>
</g>
</g>
<!-- Node2&#45;&gt;Node3 -->
<g id="edge2" class="edge">
<title>Node2&#45;&gt;Node3</title>
<path fill="none" stroke="midnightblue" d="M481.2,-323.59C545.81,-317.97 642.69,-305.01 665.5,-277 691.34,-245.26 609.27,-131.85 576.45,-89.03"/>
<polygon fill="midnightblue" stroke="midnightblue" points="579.14,-86.78 570.25,-81.02 573.6,-91.07 579.14,-86.78"/>
</g>
<!-- Node4 -->
<g id="node4" class="node">
<title>Node4</title>
<g id="a_node4"><a xlink:href="hdf5__core__image_8h.html" target="_top" xlink:title=" ">
<polygon fill="none" stroke="black" points="892.5,-246.5 892.5,-276.5 1020.5,-276.5 1020.5,-246.5 892.5,-246.5"/>
<text text-anchor="start" x="900.5" y="-264.5" font-family="Helvetica,sans-Serif" font-size="10.00">seerep_hdf5_core/hdf5</text>
<text text-anchor="middle" x="956.5" y="-253.5" font-family="Helvetica,sans-Serif" font-size="10.00">_core_image.h</text>
</a>
</g>
</g>
<!-- Node2&#45;&gt;Node4 -->
<g id="edge3" class="edge">
<title>Node2&#45;&gt;Node4</title>
<path fill="none" stroke="midnightblue" d="M481.06,-320.26C579.34,-308.32 775.26,-284.52 882.36,-271.51"/>
<polygon fill="midnightblue" stroke="midnightblue" points="882.94,-274.96 892.44,-270.28 882.09,-268.01 882.94,-274.96"/>
</g>
<!-- Node13 -->
<g id="node13" class="node">
<title>Node13</title>
<g id="a_node13"><a xlink:title=" ">
<polygon fill="none" stroke="#bfbfbf" points="0,-62 0,-81 113,-81 113,-62 0,-62"/>
<text text-anchor="middle" x="56.5" y="-69" font-family="Helvetica,sans-Serif" font-size="10.00">boost/geometry.hpp</text>
</a>
</g>
</g>
<!-- Node2&#45;&gt;Node13 -->
<g id="edge58" class="edge">
<title>Node2&#45;&gt;Node13</title>
<path fill="none" stroke="midnightblue" d="M361.99,-322.56C290.88,-315.67 177.14,-301.22 142.5,-277 79.31,-232.82 62.36,-132.69 57.97,-91.13"/>
<polygon fill="midnightblue" stroke="midnightblue" points="61.44,-90.69 57.04,-81.05 54.47,-91.33 61.44,-90.69"/>
</g>
<!-- Node15 -->
<g id="node15" class="node">
<title>Node15</title>
<g id="a_node15"><a xlink:title=" ">
<polygon fill="none" stroke="#bfbfbf" points="138.5,-62 138.5,-81 194.5,-81 194.5,-62 138.5,-62"/>
<text text-anchor="middle" x="166.5" y="-69" font-family="Helvetica,sans-Serif" font-size="10.00">optional</text>
</a>
</g>
</g>
<!-- Node2&#45;&gt;Node15 -->
<g id="edge59" class="edge">
<title>Node2&#45;&gt;Node15</title>
<path fill="none" stroke="midnightblue" d="M361.75,-323.06C295.97,-316.9 196,-303.43 169.5,-277 120.4,-228.04 130.36,-190.88 144.5,-123 146.88,-111.59 151.98,-99.59 156.67,-90.16"/>
<polygon fill="midnightblue" stroke="midnightblue" points="159.89,-91.55 161.46,-81.07 153.7,-88.29 159.89,-91.55"/>
</g>
<!-- Node32 -->
<g id="node32" class="node">
<title>Node32</title>
<g id="a_node32"><a xlink:href="hdf5__py__general_8h.html" target="_top" xlink:title=" ">
<polygon fill="none" stroke="black" points="358,-190.5 358,-209.5 465,-209.5 465,-190.5 358,-190.5"/>
<text text-anchor="middle" x="411.5" y="-197.5" font-family="Helvetica,sans-Serif" font-size="10.00">hdf5_py_general.h</text>
</a>
</g>
</g>
<!-- Node2&#45;&gt;Node32 -->
<g id="edge48" class="edge">
<title>Node2&#45;&gt;Node32</title>
<path fill="none" stroke="midnightblue" d="M361.87,-323.3C298.58,-317.46 204.67,-304.34 182.5,-277 135.52,-219.06 264.7,-204.95 347.7,-201.73"/>
<polygon fill="midnightblue" stroke="midnightblue" points="347.96,-205.23 357.83,-201.38 347.71,-198.23 347.96,-205.23"/>
</g>
<!-- Node35 -->
<g id="node35" class="node">
<title>Node35</title>
<g id="a_node35"><a xlink:title=" ">
<polygon fill="none" stroke="#bfbfbf" points="192,-252 192,-271 331,-271 331,-252 192,-252"/>
<text text-anchor="middle" x="261.5" y="-259" font-family="Helvetica,sans-Serif" font-size="10.00">seerep_msgs/image.pb.h</text>
</a>
</g>
</g>
<!-- Node2&#45;&gt;Node35 -->
<g id="edge57" class="edge">
<title>Node2&#45;&gt;Node35</title>
<path fill="none" stroke="midnightblue" d="M386.78,-313.4C358.46,-301.89 318.85,-285.8 291.79,-274.81"/>
<polygon fill="midnightblue" stroke="midnightblue" points="293.02,-271.53 282.44,-271.01 290.39,-278.01 293.02,-271.53"/>
</g>
<!-- Node36 -->
<g id="node36" class="node">
<title>Node36</title>
<g id="a_node36"><a xlink:title=" ">
<polygon fill="none" stroke="#bfbfbf" points="349,-246.5 349,-276.5 494,-276.5 494,-246.5 349,-246.5"/>
<text text-anchor="start" x="357" y="-264.5" font-family="Helvetica,sans-Serif" font-size="10.00">pybind11_catkin/pybind11</text>
<text text-anchor="middle" x="421.5" y="-253.5" font-family="Helvetica,sans-Serif" font-size="10.00">/numpy.h</text>
</a>
</g>
</g>
<!-- Node2&#45;&gt;Node36 -->
<g id="edge60" class="edge">
<title>Node2&#45;&gt;Node36</title>
<path fill="none" stroke="midnightblue" d="M421.5,-313.4C421.5,-305.64 421.5,-295.81 421.5,-286.86"/>
<polygon fill="midnightblue" stroke="midnightblue" points="425,-286.58 421.5,-276.58 418,-286.58 425,-286.58"/>
</g>
<!-- Node37 -->
<g id="node37" class="node">
<title>Node37</title>
<g id="a_node37"><a xlink:title=" ">
<polygon fill="none" stroke="#bfbfbf" points="512,-246.5 512,-276.5 657,-276.5 657,-246.5 512,-246.5"/>
<text text-anchor="start" x="520" y="-264.5" font-family="Helvetica,sans-Serif" font-size="10.00">pybind11_catkin/pybind11</text>
<text text-anchor="middle" x="584.5" y="-253.5" font-family="Helvetica,sans-Serif" font-size="10.00">/pybind11.h</text>
</a>
</g>
</g>
<!-- Node2&#45;&gt;Node37 -->
<g id="edge61" class="edge">
<title>Node2&#45;&gt;Node37</title>
<path fill="none" stroke="midnightblue" d="M456.87,-313.4C481.22,-303.69 513.76,-290.71 539.89,-280.29"/>
<polygon fill="midnightblue" stroke="midnightblue" points="541.21,-283.53 549.2,-276.58 538.62,-277.03 541.21,-283.53"/>
</g>
<!-- Node4&#45;&gt;Node3 -->
<g id="edge4" class="edge">
<title>Node4&#45;&gt;Node3</title>
<path fill="none" stroke="midnightblue" d="M914.59,-246.37C861.45,-227.85 767.58,-193.08 691.5,-154 651.64,-133.52 608.23,-104.27 583.6,-86.95"/>
<polygon fill="midnightblue" stroke="midnightblue" points="585.59,-84.08 575.41,-81.15 581.54,-89.79 585.59,-84.08"/>
</g>
<!-- Node5 -->
<g id="node5" class="node">
<title>Node5</title>
<g id="a_node5"><a xlink:href="hdf5__core__cameraintrinsics_8h.html" target="_top" xlink:title=" ">
<polygon fill="none" stroke="black" points="1074.5,-190.5 1074.5,-209.5 1234.5,-209.5 1234.5,-190.5 1074.5,-190.5"/>
<text text-anchor="middle" x="1154.5" y="-197.5" font-family="Helvetica,sans-Serif" font-size="10.00">hdf5_core_cameraintrinsics.h</text>
</a>
</g>
</g>
<!-- Node4&#45;&gt;Node5 -->
<g id="edge5" class="edge">
<title>Node4&#45;&gt;Node5</title>
<path fill="none" stroke="midnightblue" d="M1003.17,-246.47C1037.63,-236.12 1083.96,-222.2 1116.24,-212.5"/>
<polygon fill="midnightblue" stroke="midnightblue" points="1117.62,-215.74 1126.19,-209.51 1115.61,-209.03 1117.62,-215.74"/>
</g>
<!-- Node7 -->
<g id="node7" class="node">
<title>Node7</title>
<g id="a_node7"><a xlink:href="hdf5__core__general_8h.html" target="_top" xlink:title=" ">
<polygon fill="none" stroke="black" points="951.5,-123.5 951.5,-153.5 1079.5,-153.5 1079.5,-123.5 951.5,-123.5"/>
<text text-anchor="start" x="959.5" y="-141.5" font-family="Helvetica,sans-Serif" font-size="10.00">seerep_hdf5_core/hdf5</text>
<text text-anchor="middle" x="1015.5" y="-130.5" font-family="Helvetica,sans-Serif" font-size="10.00">_core_general.h</text>
</a>
</g>
</g>
<!-- Node4&#45;&gt;Node7 -->
<g id="edge38" class="edge">
<title>Node4&#45;&gt;Node7</title>
<path fill="none" stroke="midnightblue" d="M963.5,-246.14C973.52,-225.59 992.08,-187.53 1004.1,-162.87"/>
<polygon fill="midnightblue" stroke="midnightblue" points="1007.27,-164.36 1008.51,-153.84 1000.98,-161.29 1007.27,-164.36"/>
</g>
<!-- Node9 -->
<g id="node9" class="node">
<title>Node9</title>
<g id="a_node9"><a xlink:title=" ">
<polygon fill="none" stroke="#bfbfbf" points="637,-56.5 637,-86.5 758,-86.5 758,-56.5 637,-56.5"/>
<text text-anchor="start" x="645" y="-74.5" font-family="Helvetica,sans-Serif" font-size="10.00">seerep_msgs/dataset</text>
<text text-anchor="middle" x="697.5" y="-63.5" font-family="Helvetica,sans-Serif" font-size="10.00">_indexable.h</text>
</a>
</g>
</g>
<!-- Node4&#45;&gt;Node9 -->
<g id="edge39" class="edge">
<title>Node4&#45;&gt;Node9</title>
<path fill="none" stroke="midnightblue" d="M948.64,-246.09C931.09,-214.39 888.48,-140.07 865.5,-123 849.68,-111.24 806.91,-98.47 768.49,-88.71"/>
<polygon fill="midnightblue" stroke="midnightblue" points="768.86,-85.19 758.31,-86.16 767.17,-91.98 768.86,-85.19"/>
</g>
<!-- Node12 -->
<g id="node12" class="node">
<title>Node12</title>
<g id="a_node12"><a xlink:title=" ">
<polygon fill="none" stroke="#bfbfbf" points="1647.5,-62 1647.5,-81 1811.5,-81 1811.5,-62 1647.5,-62"/>
<text text-anchor="middle" x="1729.5" y="-69" font-family="Helvetica,sans-Serif" font-size="10.00">seerep_msgs/label_category.h</text>
</a>
</g>
</g>
<!-- Node4&#45;&gt;Node12 -->
<g id="edge40" class="edge">
<title>Node4&#45;&gt;Node12</title>
<path fill="none" stroke="midnightblue" d="M1020.94,-259.18C1138.16,-254.74 1392.23,-235.62 1587.5,-154 1609.24,-144.91 1610.39,-135.28 1630.5,-123 1653.57,-108.92 1681.03,-95.12 1701.18,-85.52"/>
<polygon fill="midnightblue" stroke="midnightblue" points="1702.87,-88.59 1710.42,-81.16 1699.89,-82.26 1702.87,-88.59"/>
</g>
<!-- Node4&#45;&gt;Node13 -->
<g id="edge41" class="edge">
<title>Node4&#45;&gt;Node13</title>
<path fill="none" stroke="midnightblue" d="M892.26,-258.07C780.97,-253.21 545.34,-240.08 348.5,-210 235.94,-192.8 188.62,-223.6 98.5,-154 78.07,-138.22 66.67,-109.73 61.06,-90.96"/>
<polygon fill="midnightblue" stroke="midnightblue" points="64.4,-89.93 58.4,-81.2 57.65,-91.77 64.4,-89.93"/>
</g>
<!-- Node4&#45;&gt;Node15 -->
<g id="edge42" class="edge">
<title>Node4&#45;&gt;Node15</title>
<path fill="none" stroke="midnightblue" d="M903.23,-246.41C786.17,-215.54 509.35,-143.09 414.5,-123 321.43,-103.29 295.15,-112.49 203.5,-87 200.91,-86.28 198.25,-85.44 195.6,-84.54"/>
<polygon fill="midnightblue" stroke="midnightblue" points="196.81,-81.26 186.22,-81.09 194.39,-87.82 196.81,-81.26"/>
</g>
<!-- Node19 -->
<g id="node19" class="node">
<title>Node19</title>
<g id="a_node19"><a xlink:title=" ">
<polygon fill="none" stroke="#bfbfbf" points="1830,-62 1830,-81 1973,-81 1973,-62 1830,-62"/>
<text text-anchor="middle" x="1901.5" y="-69" font-family="Helvetica,sans-Serif" font-size="10.00">boost/functional/hash.hpp</text>
</a>
</g>
</g>
<!-- Node4&#45;&gt;Node19 -->
<g id="edge43" class="edge">
<title>Node4&#45;&gt;Node19</title>
<path fill="none" stroke="midnightblue" d="M1020.62,-258.38C1117.75,-254.22 1307.61,-242.37 1465.5,-210 1620.76,-178.17 1799.07,-112.34 1870.02,-84.92"/>
<polygon fill="midnightblue" stroke="midnightblue" points="1871.64,-88.04 1879.69,-81.16 1869.1,-81.52 1871.64,-88.04"/>
</g>
<!-- Node20 -->
<g id="node20" class="node">
<title>Node20</title>
<g id="a_node20"><a xlink:title=" ">
<polygon fill="none" stroke="#bfbfbf" points="1991,-62 1991,-81 2116,-81 2116,-62 1991,-62"/>
<text text-anchor="middle" x="2053.5" y="-69" font-family="Helvetica,sans-Serif" font-size="10.00">boost/lexical_cast.hpp</text>
</a>
</g>
</g>
<!-- Node4&#45;&gt;Node20 -->
<g id="edge44" class="edge">
<title>Node4&#45;&gt;Node20</title>
<path fill="none" stroke="midnightblue" d="M1020.57,-258.12C1125.36,-253.47 1339.66,-240.8 1518.5,-210 1617.08,-193.02 1639.61,-178.9 1736.5,-154 1834.31,-128.86 1949.09,-99.35 2010.14,-83.65"/>
<polygon fill="midnightblue" stroke="midnightblue" points="2011.37,-86.95 2020.18,-81.07 2009.63,-80.17 2011.37,-86.95"/>
</g>
<!-- Node21 -->
<g id="node21" class="node">
<title>Node21</title>
<g id="a_node21"><a xlink:title=" ">
<polygon fill="none" stroke="#bfbfbf" points="776,-62 776,-81 889,-81 889,-62 776,-62"/>
<text text-anchor="middle" x="832.5" y="-69" font-family="Helvetica,sans-Serif" font-size="10.00">boost/uuid/uuid.hpp</text>
</a>
</g>
</g>
<!-- Node4&#45;&gt;Node21 -->
<g id="edge45" class="edge">
<title>Node4&#45;&gt;Node21</title>
<path fill="none" stroke="midnightblue" d="M953.29,-246.37C946.75,-219.96 929.88,-162.23 899.5,-123 887.94,-108.07 870.91,-95.32 856.92,-86.36"/>
<polygon fill="midnightblue" stroke="midnightblue" points="858.6,-83.28 848.24,-81.04 854.94,-89.25 858.6,-83.28"/>
</g>
<!-- Node22 -->
<g id="node22" class="node">
<title>Node22</title>
<g id="a_node22"><a xlink:title=" ">
<polygon fill="none" stroke="#bfbfbf" points="2134.5,-62 2134.5,-81 2304.5,-81 2304.5,-62 2134.5,-62"/>
<text text-anchor="middle" x="2219.5" y="-69" font-family="Helvetica,sans-Serif" font-size="10.00">boost/uuid/uuid_generators.hpp</text>
</a>
</g>
</g>
<!-- Node4&#45;&gt;Node22 -->
<g id="edge46" class="edge">
<title>Node4&#45;&gt;Node22</title>
<path fill="none" stroke="midnightblue" d="M1020.73,-258.03C1133.79,-253.07 1375.51,-239.72 1577.5,-210 1805.91,-176.4 2074.77,-109.89 2177.09,-83.59"/>
<polygon fill="midnightblue" stroke="midnightblue" points="2178.23,-86.91 2187.03,-81.02 2176.48,-80.13 2178.23,-86.91"/>
</g>
<!-- Node23 -->
<g id="node23" class="node">
<title>Node23</title>
<g id="a_node23"><a xlink:title=" ">
<polygon fill="none" stroke="#bfbfbf" points="2323,-62 2323,-81 2450,-81 2450,-62 2323,-62"/>
<text text-anchor="middle" x="2386.5" y="-69" font-family="Helvetica,sans-Serif" font-size="10.00">boost/uuid/uuid_io.hpp</text>
</a>
</g>
</g>
<!-- Node4&#45;&gt;Node23 -->
<g id="edge47" class="edge">
<title>Node4&#45;&gt;Node23</title>
<path fill="none" stroke="midnightblue" d="M1020.55,-258.08C1142.82,-252.97 1417.78,-239.06 1647.5,-210 1786.4,-192.43 1819.81,-179.39 1957.5,-154 2115.83,-124.8 2155.43,-117.57 2313.5,-87 2320.15,-85.71 2327.13,-84.35 2334.04,-82.99"/>
<polygon fill="midnightblue" stroke="midnightblue" points="2334.92,-86.38 2344.05,-81.01 2333.56,-79.51 2334.92,-86.38"/>
</g>
<!-- Node31 -->
<g id="node31" class="node">
<title>Node31</title>
<g id="a_node31"><a xlink:href="hdf5__core__datatype__interface_8h.html" target="_top" xlink:title=" ">
<polygon fill="none" stroke="black" points="744,-123.5 744,-153.5 857,-153.5 857,-123.5 744,-123.5"/>
<text text-anchor="start" x="752" y="-141.5" font-family="Helvetica,sans-Serif" font-size="10.00">hdf5_core_datatype</text>
<text text-anchor="middle" x="800.5" y="-130.5" font-family="Helvetica,sans-Serif" font-size="10.00">_interface.h</text>
</a>
</g>
</g>
<!-- Node4&#45;&gt;Node31 -->
<g id="edge34" class="edge">
<title>Node4&#45;&gt;Node31</title>
<path fill="none" stroke="midnightblue" d="M928.99,-246.41C911.79,-237.06 889.55,-223.98 871.5,-210 852.5,-195.28 833.29,-175.88 819.66,-161.15"/>
<polygon fill="midnightblue" stroke="midnightblue" points="822.02,-158.54 812.69,-153.51 816.84,-163.26 822.02,-158.54"/>
</g>
<!-- Node5&#45;&gt;Node3 -->
<g id="edge7" class="edge">
<title>Node5&#45;&gt;Node3</title>
<path fill="none" stroke="midnightblue" d="M1074.3,-195.3C970.18,-189.66 794.68,-177.04 734.5,-154 712.5,-145.58 712.17,-134.3 691.5,-123 662.13,-106.95 626.57,-93.34 600.39,-84.31"/>
<polygon fill="midnightblue" stroke="midnightblue" points="601.45,-80.97 590.85,-81.08 599.2,-87.6 601.45,-80.97"/>
</g>
<!-- Node5&#45;&gt;Node6 -->
<g id="edge6" class="edge">
<title>Node5&#45;&gt;Node6</title>
<path fill="none" stroke="midnightblue" d="M1211.78,-190.46C1269.01,-181.8 1359.48,-167.74 1437.5,-154 1444.68,-152.73 1452.24,-151.34 1459.68,-149.94"/>
<polygon fill="midnightblue" stroke="midnightblue" points="1460.54,-153.34 1469.71,-148.03 1459.23,-146.46 1460.54,-153.34"/>
</g>
<!-- Node5&#45;&gt;Node7 -->
<g id="edge8" class="edge">
<title>Node5&#45;&gt;Node7</title>
<path fill="none" stroke="midnightblue" d="M1134.58,-190.48C1114.62,-181.93 1083.25,-168.5 1057.72,-157.57"/>
<polygon fill="midnightblue" stroke="midnightblue" points="1058.83,-154.24 1048.26,-153.52 1056.08,-160.68 1058.83,-154.24"/>
</g>
<!-- Node25 -->
<g id="node25" class="node">
<title>Node25</title>
<g id="a_node25"><a xlink:href="header_8h.html" target="_top" xlink:title=" ">
<polygon fill="none" stroke="black" points="1369,-129 1369,-148 1428,-148 1428,-129 1369,-129"/>
<text text-anchor="middle" x="1398.5" y="-136" font-family="Helvetica,sans-Serif" font-size="10.00">header.h</text>
</a>
</g>
</g>
<!-- Node5&#45;&gt;Node25 -->
<g id="edge27" class="edge">
<title>Node5&#45;&gt;Node25</title>
<path fill="none" stroke="midnightblue" d="M1202.2,-190.49C1244.06,-182.56 1306.36,-169.63 1359.5,-154 1362.14,-153.22 1364.85,-152.36 1367.57,-151.45"/>
<polygon fill="midnightblue" stroke="midnightblue" points="1368.97,-154.66 1377.22,-148.02 1366.63,-148.07 1368.97,-154.66"/>
</g>
<!-- Node29 -->
<g id="node29" class="node">
<title>Node29</title>
<g id="a_node29"><a xlink:href="region__of__interest_8h.html" target="_top" xlink:title=" ">
<polygon fill="none" stroke="black" points="1097.5,-129 1097.5,-148 1211.5,-148 1211.5,-129 1097.5,-129"/>
<text text-anchor="middle" x="1154.5" y="-136" font-family="Helvetica,sans-Serif" font-size="10.00">region_of_interest.h</text>
</a>
</g>
</g>
<!-- Node5&#45;&gt;Node29 -->
<g id="edge32" class="edge">
<title>Node5&#45;&gt;Node29</title>
<path fill="none" stroke="midnightblue" d="M1154.5,-190.48C1154.5,-182.08 1154.5,-168.98 1154.5,-158.16"/>
<polygon fill="midnightblue" stroke="midnightblue" points="1158,-158.01 1154.5,-148.01 1151,-158.01 1158,-158.01"/>
</g>
<!-- Node30 -->
<g id="node30" class="node">
<title>Node30</title>
<g id="a_node30"><a xlink:title=" ">
<polygon fill="none" stroke="#bfbfbf" points="1230,-123.5 1230,-153.5 1351,-153.5 1351,-123.5 1230,-123.5"/>
<text text-anchor="start" x="1238" y="-141.5" font-family="Helvetica,sans-Serif" font-size="10.00">seerep_msgs/camera</text>
<text text-anchor="middle" x="1290.5" y="-130.5" font-family="Helvetica,sans-Serif" font-size="10.00">_intrinsics.h</text>
</a>
</g>
</g>
<!-- Node5&#45;&gt;Node30 -->
<g id="edge33" class="edge">
<title>Node5&#45;&gt;Node30</title>
<path fill="none" stroke="midnightblue" d="M1173.99,-190.48C1193.52,-181.93 1224.21,-168.5 1249.19,-157.57"/>
<polygon fill="midnightblue" stroke="midnightblue" points="1250.69,-160.74 1258.45,-153.52 1247.88,-154.32 1250.69,-160.74"/>
</g>
<!-- Node7&#45;&gt;Node3 -->
<g id="edge9" class="edge">
<title>Node7&#45;&gt;Node3</title>
<path fill="none" stroke="midnightblue" d="M951.37,-131.01C874.2,-122.77 740.86,-107.17 627.5,-87 621.32,-85.9 614.83,-84.6 608.45,-83.24"/>
<polygon fill="midnightblue" stroke="midnightblue" points="609.11,-79.8 598.59,-81.07 607.61,-86.64 609.11,-79.8"/>
</g>
<!-- Node8 -->
<g id="node8" class="node">
<title>Node8</title>
<g id="a_node8"><a xlink:title=" ">
<polygon fill="none" stroke="#bfbfbf" points="1078,-62 1078,-81 1195,-81 1195,-62 1078,-62"/>
<text text-anchor="middle" x="1136.5" y="-69" font-family="Helvetica,sans-Serif" font-size="10.00">seerep_msgs/aabb.h</text>
</a>
</g>
</g>
<!-- Node7&#45;&gt;Node8 -->
<g id="edge10" class="edge">
<title>Node7&#45;&gt;Node8</title>
<path fill="none" stroke="midnightblue" d="M1041.76,-123.4C1062.52,-112.24 1091.3,-96.78 1111.68,-85.83"/>
<polygon fill="midnightblue" stroke="midnightblue" points="1113.51,-88.82 1120.66,-81.01 1110.2,-82.66 1113.51,-88.82"/>
</g>
<!-- Node7&#45;&gt;Node9 -->
<g id="edge11" class="edge">
<title>Node7&#45;&gt;Node9</title>
<path fill="none" stroke="midnightblue" d="M951.24,-124.6C903.31,-114.94 835.92,-101.31 768.09,-87.32"/>
<polygon fill="midnightblue" stroke="midnightblue" points="768.58,-83.85 758.08,-85.26 767.16,-90.7 768.58,-83.85"/>
</g>
<!-- Node10 -->
<g id="node10" class="node">
<title>Node10</title>
<g id="a_node10"><a xlink:title=" ">
<polygon fill="none" stroke="#bfbfbf" points="1213.5,-56.5 1213.5,-86.5 1339.5,-86.5 1339.5,-56.5 1213.5,-56.5"/>
<text text-anchor="start" x="1221.5" y="-74.5" font-family="Helvetica,sans-Serif" font-size="10.00">seerep_msgs/geodetic</text>
<text text-anchor="middle" x="1276.5" y="-63.5" font-family="Helvetica,sans-Serif" font-size="10.00">_coordinates.h</text>
</a>
</g>
</g>
<!-- Node7&#45;&gt;Node10 -->
<g id="edge12" class="edge">
<title>Node7&#45;&gt;Node10</title>
<path fill="none" stroke="midnightblue" d="M1071.81,-123.48C1112.41,-113.37 1167.35,-99.68 1210.09,-89.04"/>
<polygon fill="midnightblue" stroke="midnightblue" points="1210.98,-92.42 1219.84,-86.61 1209.29,-85.63 1210.98,-92.42"/>
</g>
<!-- Node11 -->
<g id="node11" class="node">
<title>Node11</title>
<g id="a_node11"><a xlink:title=" ">
<polygon fill="none" stroke="#bfbfbf" points="1358,-62 1358,-81 1475,-81 1475,-62 1358,-62"/>
<text text-anchor="middle" x="1416.5" y="-69" font-family="Helvetica,sans-Serif" font-size="10.00">seerep_msgs/label.h</text>
</a>
</g>
</g>
<!-- Node7&#45;&gt;Node11 -->
<g id="edge13" class="edge">
<title>Node7&#45;&gt;Node11</title>
<path fill="none" stroke="midnightblue" d="M1079.56,-124.56C1082.58,-124.02 1085.57,-123.49 1088.5,-123 1203.54,-103.63 1233.6,-107.18 1348.5,-87 1355.13,-85.84 1362.1,-84.49 1368.94,-83.1"/>
<polygon fill="midnightblue" stroke="midnightblue" points="1369.75,-86.51 1378.83,-81.04 1368.33,-79.65 1369.75,-86.51"/>
</g>
<!-- Node7&#45;&gt;Node12 -->
<g id="edge14" class="edge">
<title>Node7&#45;&gt;Node12</title>
<path fill="none" stroke="midnightblue" d="M1079.52,-124.29C1082.55,-123.82 1085.55,-123.39 1088.5,-123 1331.38,-91.07 1395.06,-114.3 1638.5,-87 1649.21,-85.8 1660.59,-84.23 1671.54,-82.56"/>
<polygon fill="midnightblue" stroke="midnightblue" points="1672.1,-86.01 1681.44,-81.01 1671.02,-79.1 1672.1,-86.01"/>
</g>
<!-- Node7&#45;&gt;Node13 -->
<g id="edge15" class="edge">
<title>Node7&#45;&gt;Node13</title>
<path fill="none" stroke="midnightblue" d="M951.32,-130.62C924.78,-127.95 893.68,-125.05 865.5,-123 538.86,-99.24 454.55,-127.01 129.5,-87 121.11,-85.97 112.24,-84.52 103.69,-82.93"/>
<polygon fill="midnightblue" stroke="midnightblue" points="104.32,-79.48 93.84,-81.02 102.99,-86.36 104.32,-79.48"/>
</g>
<!-- Node14 -->
<g id="node14" class="node">
<title>Node14</title>
<g id="a_node14"><a xlink:title=" ">
<polygon fill="none" stroke="#bfbfbf" points="1493.5,-62 1493.5,-81 1541.5,-81 1541.5,-62 1493.5,-62"/>
<text text-anchor="middle" x="1517.5" y="-69" font-family="Helvetica,sans-Serif" font-size="10.00">mutex</text>
</a>
</g>
</g>
<!-- Node7&#45;&gt;Node14 -->
<g id="edge16" class="edge">
<title>Node7&#45;&gt;Node14</title>
<path fill="none" stroke="midnightblue" d="M1079.53,-124.39C1082.56,-123.89 1085.56,-123.42 1088.5,-123 1263.41,-97.75 1313.37,-131.12 1484.5,-87 1486.8,-86.41 1489.14,-85.67 1491.47,-84.85"/>
<polygon fill="midnightblue" stroke="midnightblue" points="1492.78,-88.09 1500.75,-81.11 1490.16,-81.6 1492.78,-88.09"/>
</g>
<!-- Node7&#45;&gt;Node15 -->
<g id="edge17" class="edge">
<title>Node7&#45;&gt;Node15</title>
<path fill="none" stroke="midnightblue" d="M951.32,-130.7C924.78,-128.04 893.68,-125.13 865.5,-123 571.68,-100.82 491.44,-149.55 203.5,-87 200.5,-86.35 197.42,-85.48 194.38,-84.5"/>
<polygon fill="midnightblue" stroke="midnightblue" points="195.56,-81.2 184.96,-81.07 193.16,-87.78 195.56,-81.2"/>
</g>
<!-- Node16 -->
<g id="node16" class="node">
<title>Node16</title>
<g id="a_node16"><a xlink:title=" ">
<polygon fill="none" stroke="#bfbfbf" points="1560,-62 1560,-81 1629,-81 1629,-62 1560,-62"/>
<text text-anchor="middle" x="1594.5" y="-69" font-family="Helvetica,sans-Serif" font-size="10.00">type_traits</text>
</a>
</g>
</g>
<!-- Node7&#45;&gt;Node16 -->
<g id="edge18" class="edge">
<title>Node7&#45;&gt;Node16</title>
<path fill="none" stroke="midnightblue" d="M1079.52,-124.34C1082.55,-123.86 1085.56,-123.41 1088.5,-123 1292.53,-94.89 1348.57,-127.52 1550.5,-87 1554.38,-86.22 1558.4,-85.21 1562.35,-84.07"/>
<polygon fill="midnightblue" stroke="midnightblue" points="1563.44,-87.4 1571.94,-81.09 1561.36,-80.72 1563.44,-87.4"/>
</g>
<!-- Node17 -->
<g id="node17" class="node">
<title>Node17</title>
<g id="a_node17"><a xlink:title=" ">
<polygon fill="none" stroke="#bfbfbf" points="213,-56.5 213,-86.5 358,-86.5 358,-56.5 213,-56.5"/>
<text text-anchor="start" x="221" y="-74.5" font-family="Helvetica,sans-Serif" font-size="10.00">boost/log/sources/severity</text>
<text text-anchor="middle" x="285.5" y="-63.5" font-family="Helvetica,sans-Serif" font-size="10.00">_logger.hpp</text>
</a>
</g>
</g>
<!-- Node7&#45;&gt;Node17 -->
<g id="edge19" class="edge">
<title>Node7&#45;&gt;Node17</title>
<path fill="none" stroke="midnightblue" d="M951.3,-130.95C924.75,-128.33 893.66,-125.38 865.5,-123 647.62,-104.6 589.41,-114.07 368.29,-87.01"/>
<polygon fill="midnightblue" stroke="midnightblue" points="368.67,-83.53 358.32,-85.78 367.81,-90.48 368.67,-83.53"/>
</g>
<!-- Node18 -->
<g id="node18" class="node">
<title>Node18</title>
<g id="a_node18"><a xlink:title=" ">
<polygon fill="none" stroke="#bfbfbf" points="376.5,-62 376.5,-81 490.5,-81 490.5,-62 376.5,-62"/>
<text text-anchor="middle" x="433.5" y="-69" font-family="Helvetica,sans-Serif" font-size="10.00">boost/log/trivial.hpp</text>
</a>
</g>
</g>
<!-- Node7&#45;&gt;Node18 -->
<g id="edge20" class="edge">
<title>Node7&#45;&gt;Node18</title>
<path fill="none" stroke="midnightblue" d="M951.49,-131.28C814.54,-117.98 505.04,-87.88 499.5,-87 492.73,-85.93 485.61,-84.59 478.65,-83.16"/>
<polygon fill="midnightblue" stroke="midnightblue" points="479.14,-79.69 468.63,-81.03 477.68,-86.54 479.14,-79.69"/>
</g>
<!-- Node7&#45;&gt;Node19 -->
<g id="edge21" class="edge">
<title>Node7&#45;&gt;Node19</title>
<path fill="none" stroke="midnightblue" d="M1079.51,-124.23C1082.54,-123.78 1085.55,-123.36 1088.5,-123 1411.78,-83.16 1496.86,-123.77 1820.5,-87 1829.98,-85.92 1840.03,-84.42 1849.7,-82.79"/>
<polygon fill="midnightblue" stroke="midnightblue" points="1850.36,-86.23 1859.61,-81.05 1849.16,-79.33 1850.36,-86.23"/>
</g>
<!-- Node7&#45;&gt;Node20 -->
<g id="edge22" class="edge">
<title>Node7&#45;&gt;Node20</title>
<path fill="none" stroke="midnightblue" d="M1079.5,-124.2C1082.54,-123.75 1085.55,-123.35 1088.5,-123 1483.38,-76.12 1587.74,-134.94 1982.5,-87 1990.67,-86.01 1999.3,-84.58 2007.62,-82.99"/>
<polygon fill="midnightblue" stroke="midnightblue" points="2008.44,-86.4 2017.56,-81.01 2007.07,-79.53 2008.44,-86.4"/>
</g>
<!-- Node7&#45;&gt;Node21 -->
<g id="edge23" class="edge">
<title>Node7&#45;&gt;Node21</title>
<path fill="none" stroke="midnightblue" d="M975.79,-123.4C942.97,-111.74 896.9,-95.37 865.94,-84.38"/>
<polygon fill="midnightblue" stroke="midnightblue" points="867.05,-81.06 856.45,-81.01 864.7,-87.65 867.05,-81.06"/>
</g>
<!-- Node7&#45;&gt;Node22 -->
<g id="edge24" class="edge">
<title>Node7&#45;&gt;Node22</title>
<path fill="none" stroke="midnightblue" d="M1079.5,-124.18C1082.54,-123.74 1085.55,-123.34 1088.5,-123 1546.6,-69.9 1666.36,-130.23 2125.5,-87 2137.07,-85.91 2149.38,-84.32 2161.16,-82.6"/>
<polygon fill="midnightblue" stroke="midnightblue" points="2161.97,-86.01 2171.33,-81.05 2160.92,-79.09 2161.97,-86.01"/>
</g>
<!-- Node7&#45;&gt;Node23 -->
<g id="edge25" class="edge">
<title>Node7&#45;&gt;Node23</title>
<path fill="none" stroke="midnightblue" d="M1079.9,-124.1C1082.8,-123.69 1085.68,-123.32 1088.5,-123 1629.72,-61.73 1772.28,-148.27 2313.5,-87 2322.08,-86.03 2331.16,-84.58 2339.89,-82.96"/>
<polygon fill="midnightblue" stroke="midnightblue" points="2340.78,-86.35 2349.92,-81.01 2339.44,-79.48 2340.78,-86.35"/>
</g>
<!-- Node24 -->
<g id="node24" class="node">
<title>Node24</title>
<g id="a_node24"><a xlink:title=" ">
<polygon fill="none" stroke="#bfbfbf" points="907.5,-62 907.5,-81 1059.5,-81 1059.5,-62 907.5,-62"/>
<text text-anchor="middle" x="983.5" y="-69" font-family="Helvetica,sans-Serif" font-size="10.00">impl/hdf5_core_general.hpp</text>
</a>
</g>
</g>
<!-- Node7&#45;&gt;Node24 -->
<g id="edge26" class="edge">
<title>Node7&#45;&gt;Node24</title>
<path fill="none" stroke="midnightblue" d="M1008.56,-123.4C1003.76,-113.66 997.36,-100.65 992.22,-90.21"/>
<polygon fill="midnightblue" stroke="midnightblue" points="995.34,-88.62 987.78,-81.19 989.06,-91.71 995.34,-88.62"/>
</g>
<!-- Node25&#45;&gt;Node21 -->
<g id="edge28" class="edge">
<title>Node25&#45;&gt;Node21</title>
<path fill="none" stroke="midnightblue" d="M1378.58,-128.88C1372.55,-126.61 1365.85,-124.4 1359.5,-123 1158.8,-78.76 1101.79,-117.12 898.5,-87 891.56,-85.97 884.26,-84.63 877.15,-83.18"/>
<polygon fill="midnightblue" stroke="midnightblue" points="877.44,-79.67 866.93,-81.01 875.98,-86.51 877.44,-79.67"/>
</g>
<!-- Node26 -->
<g id="node26" class="node">
<title>Node26</title>
<g id="a_node26"><a xlink:href="datatype_8h.html" target="_top" xlink:title=" ">
<polygon fill="none" stroke="black" points="2565,-62 2565,-81 2634,-81 2634,-62 2565,-62"/>
<text text-anchor="middle" x="2599.5" y="-69" font-family="Helvetica,sans-Serif" font-size="10.00">datatype.h</text>
</a>
</g>
</g>
<!-- Node25&#45;&gt;Node26 -->
<g id="edge29" class="edge">
<title>Node25&#45;&gt;Node26</title>
<path fill="none" stroke="midnightblue" d="M1417.98,-128.85C1424.11,-126.51 1430.98,-124.28 1437.5,-123 1925.75,-27.04 2066.83,-175.45 2556.5,-87 2560.4,-86.3 2564.43,-85.31 2568.38,-84.18"/>
<polygon fill="midnightblue" stroke="midnightblue" points="2569.48,-87.5 2577.95,-81.14 2567.36,-80.83 2569.48,-87.5"/>
</g>
<!-- Node27 -->
<g id="node27" class="node">
<title>Node27</title>
<g id="a_node27"><a xlink:href="timestamp_8h.html" target="_top" xlink:title=" ">
<polygon fill="none" stroke="black" points="2468,-62 2468,-81 2547,-81 2547,-62 2468,-62"/>
<text text-anchor="middle" x="2507.5" y="-69" font-family="Helvetica,sans-Serif" font-size="10.00">timestamp.h</text>
</a>
</g>
</g>
<!-- Node25&#45;&gt;Node27 -->
<g id="edge30" class="edge">
<title>Node25&#45;&gt;Node27</title>
<path fill="none" stroke="midnightblue" d="M1417.98,-128.86C1424.11,-126.53 1430.98,-124.29 1437.5,-123 1883.34,-34.67 2011.12,-161.33 2459.5,-87 2464.07,-86.24 2468.81,-85.17 2473.46,-83.96"/>
<polygon fill="midnightblue" stroke="midnightblue" points="2474.72,-87.23 2483.37,-81.12 2472.79,-80.51 2474.72,-87.23"/>
</g>
<!-- Node28 -->
<g id="node28" class="node">
<title>Node28</title>
<g id="a_node28"><a xlink:title=" ">
<polygon fill="none" stroke="#bfbfbf" points="2475,-0.5 2475,-19.5 2540,-19.5 2540,-0.5 2475,-0.5"/>
<text text-anchor="middle" x="2507.5" y="-7.5" font-family="Helvetica,sans-Serif" font-size="10.00">functional</text>
</a>
</g>
</g>
<!-- Node27&#45;&gt;Node28 -->
<g id="edge31" class="edge">
<title>Node27&#45;&gt;Node28</title>
<path fill="none" stroke="midnightblue" d="M2507.5,-61.98C2507.5,-53.58 2507.5,-40.48 2507.5,-29.66"/>
<polygon fill="midnightblue" stroke="midnightblue" points="2511,-29.51 2507.5,-19.51 2504,-29.51 2511,-29.51"/>
</g>
<!-- Node31&#45;&gt;Node9 -->
<g id="edge35" class="edge">
<title>Node31&#45;&gt;Node9</title>
<path fill="none" stroke="midnightblue" d="M778.15,-123.4C763.57,-114.2 744.35,-102.07 728.33,-91.95"/>
<polygon fill="midnightblue" stroke="midnightblue" points="730.13,-88.95 719.81,-86.58 726.39,-94.87 730.13,-88.95"/>
</g>
<!-- Node31&#45;&gt;Node15 -->
<g id="edge37" class="edge">
<title>Node31&#45;&gt;Node15</title>
<path fill="none" stroke="midnightblue" d="M743.77,-134.79C615.28,-128.33 305.31,-110.72 203.5,-87 200.67,-86.34 197.76,-85.5 194.88,-84.57"/>
<polygon fill="midnightblue" stroke="midnightblue" points="195.96,-81.23 185.37,-81.11 193.57,-87.81 195.96,-81.23"/>
</g>
<!-- Node31&#45;&gt;Node21 -->
<g id="edge36" class="edge">
<title>Node31&#45;&gt;Node21</title>
<path fill="none" stroke="midnightblue" d="M807.44,-123.4C812.24,-113.66 818.64,-100.65 823.78,-90.21"/>
<polygon fill="midnightblue" stroke="midnightblue" points="826.94,-91.71 828.22,-81.19 820.66,-88.62 826.94,-91.71"/>
</g>
<!-- Node32&#45;&gt;Node3 -->
<g id="edge49" class="edge">
<title>Node32&#45;&gt;Node3</title>
<path fill="none" stroke="midnightblue" d="M426.1,-190.43C440.25,-181.88 462.07,-168.02 479.5,-154 505.35,-133.2 532.4,-105.78 548.6,-88.64"/>
<polygon fill="midnightblue" stroke="midnightblue" points="551.35,-90.83 555.63,-81.13 546.24,-86.04 551.35,-90.83"/>
</g>
<!-- Node32&#45;&gt;Node7 -->
<g id="edge50" class="edge">
<title>Node32&#45;&gt;Node7</title>
<path fill="none" stroke="midnightblue" d="M465.1,-193.72C573.22,-183.07 817.61,-158.99 941.1,-146.83"/>
<polygon fill="midnightblue" stroke="midnightblue" points="941.61,-150.3 951.22,-145.83 940.93,-143.33 941.61,-150.3"/>
</g>
<!-- Node32&#45;&gt;Node13 -->
<g id="edge51" class="edge">
<title>Node32&#45;&gt;Node13</title>
<path fill="none" stroke="midnightblue" d="M357.84,-198.86C301.88,-196.73 212.94,-187.66 144.5,-154 113.04,-138.53 84.91,-108.17 69.32,-89.18"/>
<polygon fill="midnightblue" stroke="midnightblue" points="71.87,-86.76 62.9,-81.12 66.4,-91.13 71.87,-86.76"/>
</g>
<!-- Node32&#45;&gt;Node15 -->
<g id="edge53" class="edge">
<title>Node32&#45;&gt;Node15</title>
<path fill="none" stroke="midnightblue" d="M411.96,-190.48C412.32,-174.69 410.64,-140.88 391.5,-123 329.33,-64.93 285.23,-110.62 203.5,-87 200.92,-86.25 198.26,-85.4 195.62,-84.48"/>
<polygon fill="midnightblue" stroke="midnightblue" points="196.83,-81.2 186.24,-81.01 194.4,-87.77 196.83,-81.2"/>
</g>
<!-- Node32&#45;&gt;Node17 -->
<g id="edge54" class="edge">
<title>Node32&#45;&gt;Node17</title>
<path fill="none" stroke="midnightblue" d="M417.01,-190.13C425.65,-174.95 440,-143.64 425.5,-123 416.59,-110.31 385.26,-98.42 354.5,-89.37"/>
<polygon fill="midnightblue" stroke="midnightblue" points="355.14,-85.91 344.56,-86.53 353.22,-92.64 355.14,-85.91"/>
</g>
<!-- Node32&#45;&gt;Node18 -->
<g id="edge55" class="edge">
<title>Node32&#45;&gt;Node18</title>
<path fill="none" stroke="midnightblue" d="M427.28,-190.47C439.7,-182.77 456.11,-170.18 463.5,-154 473.44,-132.25 459.55,-106.16 447.53,-89.46"/>
<polygon fill="midnightblue" stroke="midnightblue" points="450.09,-87.04 441.22,-81.24 444.53,-91.3 450.09,-87.04"/>
</g>
<!-- Node33 -->
<g id="node33" class="node">
<title>Node33</title>
<g id="a_node33"><a xlink:title=" ">
<polygon fill="none" stroke="#bfbfbf" points="153.5,-129 153.5,-148 221.5,-148 221.5,-129 153.5,-129"/>
<text text-anchor="middle" x="187.5" y="-136" font-family="Helvetica,sans-Serif" font-size="10.00">filesystem</text>
</a>
</g>
</g>
<!-- Node32&#45;&gt;Node33 -->
<g id="edge52" class="edge">
<title>Node32&#45;&gt;Node33</title>
<path fill="none" stroke="midnightblue" d="M373.47,-190.5C336.68,-182.05 279.45,-168.31 230.5,-154 227.57,-153.14 224.54,-152.21 221.51,-151.25"/>
<polygon fill="midnightblue" stroke="midnightblue" points="222.54,-147.91 211.95,-148.13 220.37,-154.56 222.54,-147.91"/>
</g>
<!-- Node34 -->
<g id="node34" class="node">
<title>Node34</title>
<g id="a_node34"><a xlink:title=" ">
<polygon fill="none" stroke="#bfbfbf" points="240,-129 240,-148 383,-148 383,-129 240,-129"/>
<text text-anchor="middle" x="311.5" y="-136" font-family="Helvetica,sans-Serif" font-size="10.00">impl/hdf5_py_general.hpp</text>
</a>
</g>
</g>
<!-- Node32&#45;&gt;Node34 -->
<g id="edge56" class="edge">
<title>Node32&#45;&gt;Node34</title>
<path fill="none" stroke="midnightblue" d="M397.17,-190.48C380.84,-180.75 353.9,-164.73 334.59,-153.24"/>
<polygon fill="midnightblue" stroke="midnightblue" points="336.18,-150.11 325.8,-148.01 332.61,-156.13 336.18,-150.11"/>
</g>
</g>
</svg>
