<?xml version="1.0" encoding="UTF-8" standalone="no"?>
<!DOCTYPE svg PUBLIC "-//W3C//DTD SVG 1.1//EN"
 "http://www.w3.org/Graphics/SVG/1.1/DTD/svg11.dtd">
<!-- Generated by graphviz version 2.43.0 (0)
 -->
<!-- Title: seerep&#45;hdf5/seerep&#45;hdf5&#45;fb/src/hdf5&#45;fb&#45;tf.cpp Pages: 1 -->
<svg width="2776pt" height="340pt"
 viewBox="0.00 0.00 2775.50 340.00" xmlns="http://www.w3.org/2000/svg" xmlns:xlink="http://www.w3.org/1999/xlink">
<g id="graph0" class="graph" transform="scale(1 1) rotate(0) translate(4 336)">
<title>seerep&#45;hdf5/seerep&#45;hdf5&#45;fb/src/hdf5&#45;fb&#45;tf.cpp</title>
<!-- Node1 -->
<g id="node1" class="node">
<title>Node1</title>
<g id="a_node1"><a xlink:title=" ">
<polygon fill="#bfbfbf" stroke="black" points="1169.5,-290.5 1169.5,-331.5 1280.5,-331.5 1280.5,-290.5 1169.5,-290.5"/>
<text text-anchor="start" x="1177.5" y="-319.5" font-family="Helvetica,sans-Serif" font-size="10.00">seerep&#45;hdf5/seerep</text>
<text text-anchor="start" x="1177.5" y="-308.5" font-family="Helvetica,sans-Serif" font-size="10.00">&#45;hdf5&#45;fb/src/hdf5&#45;fb</text>
<text text-anchor="middle" x="1225" y="-297.5" font-family="Helvetica,sans-Serif" font-size="10.00">&#45;tf.cpp</text>
</a>
</g>
</g>
<!-- Node2 -->
<g id="node2" class="node">
<title>Node2</title>
<g id="a_node2"><a xlink:href="hdf5-fb-tf_8h.html" target="_top" xlink:title=" ">
<polygon fill="none" stroke="black" points="1098.5,-223.5 1098.5,-253.5 1211.5,-253.5 1211.5,-223.5 1098.5,-223.5"/>
<text text-anchor="start" x="1106.5" y="-241.5" font-family="Helvetica,sans-Serif" font-size="10.00">seerep&#45;hdf5&#45;fb/hdf5</text>
<text text-anchor="middle" x="1155" y="-230.5" font-family="Helvetica,sans-Serif" font-size="10.00">&#45;fb&#45;tf.h</text>
</a>
</g>
</g>
<!-- Node1&#45;&gt;Node2 -->
<g id="edge1" class="edge">
<title>Node1&#45;&gt;Node2</title>
<path fill="none" stroke="midnightblue" d="M1205.5,-290.36C1196.44,-281.23 1185.63,-270.35 1176.35,-261"/>
<polygon fill="midnightblue" stroke="midnightblue" points="1178.82,-258.52 1169.29,-253.89 1173.85,-263.45 1178.82,-258.52"/>
</g>
<!-- Node36 -->
<g id="node36" class="node">
<title>Node36</title>
<g id="a_node36"><a xlink:title=" ">
<polygon fill="none" stroke="#bfbfbf" points="1230,-229 1230,-248 1362,-248 1362,-229 1230,-229"/>
<text text-anchor="middle" x="1296" y="-236" font-family="Helvetica,sans-Serif" font-size="10.00">highfive/H5DataSet.hpp</text>
</a>
</g>
</g>
<!-- Node1&#45;&gt;Node36 -->
<g id="edge48" class="edge">
<title>Node1&#45;&gt;Node36</title>
<path fill="none" stroke="midnightblue" d="M1244.78,-290.36C1255.89,-279.32 1269.59,-265.72 1280.02,-255.37"/>
<polygon fill="midnightblue" stroke="midnightblue" points="1282.64,-257.7 1287.27,-248.17 1277.7,-252.74 1282.64,-257.7"/>
</g>
<!-- Node3 -->
<g id="node3" class="node">
<title>Node3</title>
<g id="a_node3"><a xlink:title=" ">
<polygon fill="none" stroke="#bfbfbf" points="0,-11.5 0,-30.5 110,-30.5 110,-11.5 0,-11.5"/>
<text text-anchor="middle" x="55" y="-18.5" font-family="Helvetica,sans-Serif" font-size="10.00">highfive/H5File.hpp</text>
</a>
</g>
</g>
<!-- Node2&#45;&gt;Node3 -->
<g id="edge2" class="edge">
<title>Node2&#45;&gt;Node3</title>
<path fill="none" stroke="midnightblue" d="M1098.47,-237.68C975.64,-237.19 675.57,-231.11 429,-187 324.61,-168.32 295.97,-165.12 200,-120 150.84,-96.89 99.62,-58.26 73.2,-37.06"/>
<polygon fill="midnightblue" stroke="midnightblue" points="75.2,-34.17 65.23,-30.59 70.78,-39.61 75.2,-34.17"/>
</g>
<!-- Node4 -->
<g id="node4" class="node">
<title>Node4</title>
<g id="a_node4"><a xlink:href="hdf5-core-tf_8h.html" target="_top" xlink:title=" ">
<polygon fill="none" stroke="black" points="611.5,-156.5 611.5,-186.5 736.5,-186.5 736.5,-156.5 611.5,-156.5"/>
<text text-anchor="start" x="619.5" y="-174.5" font-family="Helvetica,sans-Serif" font-size="10.00">seerep&#45;hdf5&#45;core/hdf5</text>
<text text-anchor="middle" x="674" y="-163.5" font-family="Helvetica,sans-Serif" font-size="10.00">&#45;core&#45;tf.h</text>
</a>
</g>
</g>
<!-- Node2&#45;&gt;Node4 -->
<g id="edge3" class="edge">
<title>Node2&#45;&gt;Node4</title>
<path fill="none" stroke="midnightblue" d="M1098.41,-229.85C1010.98,-218.04 843.14,-195.36 746.79,-182.34"/>
<polygon fill="midnightblue" stroke="midnightblue" points="747.22,-178.86 736.84,-180.99 746.28,-185.8 747.22,-178.86"/>
</g>
<!-- Node10 -->
<g id="node10" class="node">
<title>Node10</title>
<g id="a_node10"><a xlink:title=" ">
<polygon fill="none" stroke="#bfbfbf" points="128.5,-11.5 128.5,-30.5 241.5,-30.5 241.5,-11.5 128.5,-11.5"/>
<text text-anchor="middle" x="185" y="-18.5" font-family="Helvetica,sans-Serif" font-size="10.00">boost/geometry.hpp</text>
</a>
</g>
</g>
<!-- Node2&#45;&gt;Node10 -->
<g id="edge46" class="edge">
<title>Node2&#45;&gt;Node10</title>
<path fill="none" stroke="midnightblue" d="M1098.1,-235.21C997.44,-230.52 781.63,-217.55 602,-187 481.39,-166.49 447.09,-169.02 335,-120 283.82,-97.62 230.64,-58.42 203.44,-37.01"/>
<polygon fill="midnightblue" stroke="midnightblue" points="205.56,-34.22 195.56,-30.72 201.2,-39.69 205.56,-34.22"/>
</g>
<!-- Node12 -->
<g id="node12" class="node">
<title>Node12</title>
<g id="a_node12"><a xlink:title=" ">
<polygon fill="none" stroke="#bfbfbf" points="2190,-11.5 2190,-30.5 2246,-30.5 2246,-11.5 2190,-11.5"/>
<text text-anchor="middle" x="2218" y="-18.5" font-family="Helvetica,sans-Serif" font-size="10.00">optional</text>
</a>
</g>
</g>
<!-- Node2&#45;&gt;Node12 -->
<g id="edge47" class="edge">
<title>Node2&#45;&gt;Node12</title>
<path fill="none" stroke="midnightblue" d="M1211.79,-224.49C1214.9,-223.95 1217.98,-223.44 1221,-223 1371.82,-200.87 2485.34,-231.76 2589,-120 2601.69,-106.31 2601.17,-92.15 2589,-78 2546.33,-28.41 2342.2,-22.16 2256.27,-21.77"/>
<polygon fill="midnightblue" stroke="midnightblue" points="2256.16,-18.27 2246.15,-21.75 2256.14,-25.27 2256.16,-18.27"/>
</g>
<!-- Node23 -->
<g id="node23" class="node">
<title>Node23</title>
<g id="a_node23"><a xlink:href="hdf5-fb-general_8h.html" target="_top" xlink:title=" ">
<polygon fill="none" stroke="black" points="1516.5,-156.5 1516.5,-186.5 1629.5,-186.5 1629.5,-156.5 1516.5,-156.5"/>
<text text-anchor="start" x="1524.5" y="-174.5" font-family="Helvetica,sans-Serif" font-size="10.00">seerep&#45;hdf5&#45;fb/hdf5</text>
<text text-anchor="middle" x="1573" y="-163.5" font-family="Helvetica,sans-Serif" font-size="10.00">&#45;fb&#45;general.h</text>
</a>
</g>
</g>
<!-- Node2&#45;&gt;Node23 -->
<g id="edge26" class="edge">
<title>Node2&#45;&gt;Node23</title>
<path fill="none" stroke="midnightblue" d="M1211.83,-224.74C1214.93,-224.13 1218,-223.54 1221,-223 1319.86,-205.07 1435.29,-189.53 1506.26,-180.59"/>
<polygon fill="midnightblue" stroke="midnightblue" points="1506.91,-184.03 1516.4,-179.31 1506.04,-177.08 1506.91,-184.03"/>
</g>
<!-- Node35 -->
<g id="node35" class="node">
<title>Node35</title>
<g id="a_node35"><a xlink:title=" ">
<polygon fill="none" stroke="#bfbfbf" points="2636.5,-156.5 2636.5,-186.5 2767.5,-186.5 2767.5,-156.5 2636.5,-156.5"/>
<text text-anchor="start" x="2644.5" y="-174.5" font-family="Helvetica,sans-Serif" font-size="10.00">seerep&#45;msgs/transform</text>
<text text-anchor="middle" x="2702" y="-163.5" font-family="Helvetica,sans-Serif" font-size="10.00">_stamped_generated.h</text>
</a>
</g>
</g>
<!-- Node2&#45;&gt;Node35 -->
<g id="edge45" class="edge">
<title>Node2&#45;&gt;Node35</title>
<path fill="none" stroke="midnightblue" d="M1211.76,-224.31C1214.88,-223.81 1217.97,-223.37 1221,-223 1839.32,-147.83 2002.4,-250.73 2622,-187 2623.3,-186.87 2624.62,-186.72 2625.94,-186.57"/>
<polygon fill="midnightblue" stroke="midnightblue" points="2626.72,-190 2636.19,-185.25 2625.83,-183.06 2626.72,-190"/>
</g>
<!-- Node4&#45;&gt;Node3 -->
<g id="edge4" class="edge">
<title>Node4&#45;&gt;Node3</title>
<path fill="none" stroke="midnightblue" d="M611.45,-164.76C542.9,-157.64 430.02,-143.48 335,-120 241.49,-96.89 135.16,-55.24 84.66,-34.47"/>
<polygon fill="midnightblue" stroke="midnightblue" points="85.9,-31.2 75.32,-30.61 83.22,-37.67 85.9,-31.2"/>
</g>
<!-- Node5 -->
<g id="node5" class="node">
<title>Node5</title>
<g id="a_node5"><a xlink:href="hdf5-core-general_8h.html" target="_top" xlink:title=" ">
<polygon fill="none" stroke="black" points="676.5,-84 676.5,-114 801.5,-114 801.5,-84 676.5,-84"/>
<text text-anchor="start" x="684.5" y="-102" font-family="Helvetica,sans-Serif" font-size="10.00">seerep&#45;hdf5&#45;core/hdf5</text>
<text text-anchor="middle" x="739" y="-91" font-family="Helvetica,sans-Serif" font-size="10.00">&#45;core&#45;general.h</text>
</a>
</g>
</g>
<!-- Node4&#45;&gt;Node5 -->
<g id="edge5" class="edge">
<title>Node4&#45;&gt;Node5</title>
<path fill="none" stroke="midnightblue" d="M687.15,-156.23C696.32,-146.3 708.7,-132.86 719.07,-121.61"/>
<polygon fill="midnightblue" stroke="midnightblue" points="721.66,-123.97 725.87,-114.25 716.51,-119.23 721.66,-123.97"/>
</g>
<!-- Node4&#45;&gt;Node10 -->
<g id="edge24" class="edge">
<title>Node4&#45;&gt;Node10</title>
<path fill="none" stroke="midnightblue" d="M660.69,-156.32C639.94,-135.21 597.59,-96.09 553,-78 427.34,-27.01 382.68,-70.05 250,-42 239.69,-39.82 228.67,-36.73 218.68,-33.63"/>
<polygon fill="midnightblue" stroke="midnightblue" points="219.7,-30.28 209.11,-30.56 217.56,-36.94 219.7,-30.28"/>
</g>
<!-- Node4&#45;&gt;Node12 -->
<g id="edge25" class="edge">
<title>Node4&#45;&gt;Node12</title>
<path fill="none" stroke="midnightblue" d="M716.6,-156.45C743.73,-147.07 779.4,-133.94 810,-120 845.47,-103.84 849.36,-88.16 887,-78 1164.73,-3.05 1903.13,-116.42 2181,-42 2186.33,-40.57 2191.74,-38.25 2196.71,-35.67"/>
<polygon fill="midnightblue" stroke="midnightblue" points="2198.66,-38.59 2205.61,-30.6 2195.19,-32.51 2198.66,-38.59"/>
</g>
<!-- Node22 -->
<g id="node22" class="node">
<title>Node22</title>
<g id="a_node22"><a xlink:title=" ">
<polygon fill="none" stroke="#bfbfbf" points="344,-89.5 344,-108.5 544,-108.5 544,-89.5 344,-89.5"/>
<text text-anchor="middle" x="444" y="-96.5" font-family="Helvetica,sans-Serif" font-size="10.00">geometry_msgs/TransformStamped.h</text>
</a>
</g>
</g>
<!-- Node4&#45;&gt;Node22 -->
<g id="edge23" class="edge">
<title>Node4&#45;&gt;Node22</title>
<path fill="none" stroke="midnightblue" d="M628.28,-156.49C585.29,-143.31 521.7,-123.82 481.58,-111.52"/>
<polygon fill="midnightblue" stroke="midnightblue" points="482.5,-108.14 471.91,-108.55 480.45,-114.83 482.5,-108.14"/>
</g>
<!-- Node5&#45;&gt;Node3 -->
<g id="edge6" class="edge">
<title>Node5&#45;&gt;Node3</title>
<path fill="none" stroke="midnightblue" d="M676.19,-89.03C648.56,-85.28 615.71,-81.08 586,-78 378.94,-56.5 323.43,-81.3 119,-42 108.63,-40.01 97.56,-36.91 87.61,-33.75"/>
<polygon fill="midnightblue" stroke="midnightblue" points="88.68,-30.42 78.08,-30.6 86.48,-37.06 88.68,-30.42"/>
</g>
<!-- Node6 -->
<g id="node6" class="node">
<title>Node6</title>
<g id="a_node6"><a xlink:title=" ">
<polygon fill="none" stroke="#bfbfbf" points="1195,-11.5 1195,-30.5 1311,-30.5 1311,-11.5 1195,-11.5"/>
<text text-anchor="middle" x="1253" y="-18.5" font-family="Helvetica,sans-Serif" font-size="10.00">seerep&#45;msgs/aabb.h</text>
</a>
</g>
</g>
<!-- Node5&#45;&gt;Node6 -->
<g id="edge7" class="edge">
<title>Node5&#45;&gt;Node6</title>
<path fill="none" stroke="midnightblue" d="M788.45,-83.93C797.56,-81.69 807.02,-79.59 816,-78 978.68,-49.14 1023.86,-73.78 1186,-42 1196.83,-39.88 1208.42,-36.74 1218.87,-33.57"/>
<polygon fill="midnightblue" stroke="midnightblue" points="1219.97,-36.9 1228.47,-30.56 1217.88,-30.22 1219.97,-36.9"/>
</g>
<!-- Node7 -->
<g id="node7" class="node">
<title>Node7</title>
<g id="a_node7"><a xlink:title=" ">
<polygon fill="none" stroke="#bfbfbf" points="1329.5,-6 1329.5,-36 1448.5,-36 1448.5,-6 1329.5,-6"/>
<text text-anchor="start" x="1337.5" y="-24" font-family="Helvetica,sans-Serif" font-size="10.00">seerep&#45;msgs/dataset</text>
<text text-anchor="middle" x="1389" y="-13" font-family="Helvetica,sans-Serif" font-size="10.00">&#45;indexable.h</text>
</a>
</g>
</g>
<!-- Node5&#45;&gt;Node7 -->
<g id="edge8" class="edge">
<title>Node5&#45;&gt;Node7</title>
<path fill="none" stroke="midnightblue" d="M787.59,-83.95C796.95,-81.65 806.73,-79.52 816,-78 1037.6,-41.62 1098.93,-81.48 1320,-42 1325.29,-41.05 1330.76,-39.86 1336.2,-38.53"/>
<polygon fill="midnightblue" stroke="midnightblue" points="1337.1,-41.91 1345.9,-36 1335.34,-35.13 1337.1,-41.91"/>
</g>
<!-- Node8 -->
<g id="node8" class="node">
<title>Node8</title>
<g id="a_node8"><a xlink:title=" ">
<polygon fill="none" stroke="#bfbfbf" points="1466.5,-6 1466.5,-36 1591.5,-36 1591.5,-6 1466.5,-6"/>
<text text-anchor="start" x="1474.5" y="-24" font-family="Helvetica,sans-Serif" font-size="10.00">seerep&#45;msgs/geodetic</text>
<text text-anchor="middle" x="1529" y="-13" font-family="Helvetica,sans-Serif" font-size="10.00">&#45;coordinates.h</text>
</a>
</g>
</g>
<!-- Node5&#45;&gt;Node8 -->
<g id="edge9" class="edge">
<title>Node5&#45;&gt;Node8</title>
<path fill="none" stroke="midnightblue" d="M787.16,-83.93C796.65,-81.6 806.58,-79.47 816,-78 1097.91,-33.92 1175.47,-88.45 1457,-42 1462.52,-41.09 1468.22,-39.92 1473.89,-38.6"/>
<polygon fill="midnightblue" stroke="midnightblue" points="1475.15,-41.89 1484.01,-36.09 1473.46,-35.1 1475.15,-41.89"/>
</g>
<!-- Node9 -->
<g id="node9" class="node">
<title>Node9</title>
<g id="a_node9"><a xlink:title=" ">
<polygon fill="none" stroke="#bfbfbf" points="1610,-0.5 1610,-41.5 1722,-41.5 1722,-0.5 1610,-0.5"/>
<text text-anchor="start" x="1618" y="-29.5" font-family="Helvetica,sans-Serif" font-size="10.00">seerep&#45;msgs/labels</text>
<text text-anchor="start" x="1618" y="-18.5" font-family="Helvetica,sans-Serif" font-size="10.00">&#45;with&#45;instance&#45;with</text>
<text text-anchor="middle" x="1666" y="-7.5" font-family="Helvetica,sans-Serif" font-size="10.00">&#45;category.h</text>
</a>
</g>
</g>
<!-- Node5&#45;&gt;Node9 -->
<g id="edge10" class="edge">
<title>Node5&#45;&gt;Node9</title>
<path fill="none" stroke="midnightblue" d="M786.74,-83.96C796.35,-81.59 806.44,-79.44 816,-78 1157.61,-26.37 1254.38,-99.61 1599.67,-41.77"/>
<polygon fill="midnightblue" stroke="midnightblue" points="1600.42,-45.19 1609.7,-40.07 1599.25,-38.29 1600.42,-45.19"/>
</g>
<!-- Node5&#45;&gt;Node10 -->
<g id="edge11" class="edge">
<title>Node5&#45;&gt;Node10</title>
<path fill="none" stroke="midnightblue" d="M689.97,-83.96C680.74,-81.69 671.12,-79.57 662,-78 480.86,-46.79 430.4,-77.22 250,-42 239.48,-39.95 228.26,-36.84 218.14,-33.68"/>
<polygon fill="midnightblue" stroke="midnightblue" points="219.06,-30.29 208.47,-30.54 216.9,-36.95 219.06,-30.29"/>
</g>
<!-- Node11 -->
<g id="node11" class="node">
<title>Node11</title>
<g id="a_node11"><a xlink:title=" ">
<polygon fill="none" stroke="#bfbfbf" points="1828,-11.5 1828,-30.5 1876,-30.5 1876,-11.5 1828,-11.5"/>
<text text-anchor="middle" x="1852" y="-18.5" font-family="Helvetica,sans-Serif" font-size="10.00">mutex</text>
</a>
</g>
</g>
<!-- Node5&#45;&gt;Node11 -->
<g id="edge12" class="edge">
<title>Node5&#45;&gt;Node11</title>
<path fill="none" stroke="midnightblue" d="M786.31,-83.98C796.05,-81.59 806.3,-79.42 816,-78 1036.47,-45.8 1604.1,-104.39 1818,-42 1822.84,-40.59 1827.71,-38.33 1832.19,-35.84"/>
<polygon fill="midnightblue" stroke="midnightblue" points="1834.04,-38.81 1840.71,-30.57 1830.36,-32.86 1834.04,-38.81"/>
</g>
<!-- Node5&#45;&gt;Node12 -->
<g id="edge13" class="edge">
<title>Node5&#45;&gt;Node12</title>
<path fill="none" stroke="midnightblue" d="M786.3,-83.91C796.04,-81.52 806.29,-79.37 816,-78 1116.46,-35.58 1887.83,-120.29 2181,-42 2186.33,-40.58 2191.74,-38.25 2196.71,-35.68"/>
<polygon fill="midnightblue" stroke="midnightblue" points="2198.66,-38.6 2205.61,-30.61 2195.19,-32.52 2198.66,-38.6"/>
</g>
<!-- Node13 -->
<g id="node13" class="node">
<title>Node13</title>
<g id="a_node13"><a xlink:title=" ">
<polygon fill="none" stroke="#bfbfbf" points="1740.5,-11.5 1740.5,-30.5 1809.5,-30.5 1809.5,-11.5 1740.5,-11.5"/>
<text text-anchor="middle" x="1775" y="-18.5" font-family="Helvetica,sans-Serif" font-size="10.00">type_traits</text>
</a>
</g>
</g>
<!-- Node5&#45;&gt;Node13 -->
<g id="edge14" class="edge">
<title>Node5&#45;&gt;Node13</title>
<path fill="none" stroke="midnightblue" d="M786.73,-83.91C796.34,-81.55 806.44,-79.41 816,-78 1017.3,-48.25 1533.01,-88.98 1731,-42 1737.64,-40.42 1744.51,-37.83 1750.79,-35.02"/>
<polygon fill="midnightblue" stroke="midnightblue" points="1752.56,-38.05 1760.04,-30.55 1749.52,-31.75 1752.56,-38.05"/>
</g>
<!-- Node14 -->
<g id="node14" class="node">
<title>Node14</title>
<g id="a_node14"><a xlink:title=" ">
<polygon fill="none" stroke="#bfbfbf" points="1894.5,-6 1894.5,-36 2039.5,-36 2039.5,-6 1894.5,-6"/>
<text text-anchor="start" x="1902.5" y="-24" font-family="Helvetica,sans-Serif" font-size="10.00">boost/log/sources/severity</text>
<text text-anchor="middle" x="1967" y="-13" font-family="Helvetica,sans-Serif" font-size="10.00">_logger.hpp</text>
</a>
</g>
</g>
<!-- Node5&#45;&gt;Node14 -->
<g id="edge15" class="edge">
<title>Node5&#45;&gt;Node14</title>
<path fill="none" stroke="midnightblue" d="M786.31,-83.96C796.05,-81.57 806.3,-79.41 816,-78 1286.47,-9.83 1414.04,-106.66 1885,-42 1892.09,-41.03 1899.45,-39.7 1906.73,-38.18"/>
<polygon fill="midnightblue" stroke="midnightblue" points="1907.56,-41.59 1916.57,-36.02 1906.05,-34.75 1907.56,-41.59"/>
</g>
<!-- Node15 -->
<g id="node15" class="node">
<title>Node15</title>
<g id="a_node15"><a xlink:title=" ">
<polygon fill="none" stroke="#bfbfbf" points="2058,-11.5 2058,-30.5 2172,-30.5 2172,-11.5 2058,-11.5"/>
<text text-anchor="middle" x="2115" y="-18.5" font-family="Helvetica,sans-Serif" font-size="10.00">boost/log/trivial.hpp</text>
</a>
</g>
</g>
<!-- Node5&#45;&gt;Node15 -->
<g id="edge16" class="edge">
<title>Node5&#45;&gt;Node15</title>
<path fill="none" stroke="midnightblue" d="M786.31,-83.93C796.05,-81.54 806.29,-79.38 816,-78 1358.3,-0.65 1507.18,-129.08 2048,-42 2059.26,-40.19 2071.28,-37.01 2081.99,-33.71"/>
<polygon fill="midnightblue" stroke="midnightblue" points="2083.34,-36.96 2091.78,-30.56 2081.19,-30.29 2083.34,-36.96"/>
</g>
<!-- Node16 -->
<g id="node16" class="node">
<title>Node16</title>
<g id="a_node16"><a xlink:title=" ">
<polygon fill="none" stroke="#bfbfbf" points="259.5,-11.5 259.5,-30.5 402.5,-30.5 402.5,-11.5 259.5,-11.5"/>
<text text-anchor="middle" x="331" y="-18.5" font-family="Helvetica,sans-Serif" font-size="10.00">boost/functional/hash.hpp</text>
</a>
</g>
</g>
<!-- Node5&#45;&gt;Node16 -->
<g id="edge17" class="edge">
<title>Node5&#45;&gt;Node16</title>
<path fill="none" stroke="midnightblue" d="M688.24,-83.96C679.53,-81.8 670.53,-79.71 662,-78 551.51,-55.8 521.59,-63.7 411,-42 398.14,-39.48 384.25,-36.2 371.71,-33.03"/>
<polygon fill="midnightblue" stroke="midnightblue" points="372.54,-29.64 361.99,-30.53 370.8,-36.41 372.54,-29.64"/>
</g>
<!-- Node17 -->
<g id="node17" class="node">
<title>Node17</title>
<g id="a_node17"><a xlink:title=" ">
<polygon fill="none" stroke="#bfbfbf" points="420.5,-11.5 420.5,-30.5 545.5,-30.5 545.5,-11.5 420.5,-11.5"/>
<text text-anchor="middle" x="483" y="-18.5" font-family="Helvetica,sans-Serif" font-size="10.00">boost/lexical_cast.hpp</text>
</a>
</g>
</g>
<!-- Node5&#45;&gt;Node17 -->
<g id="edge18" class="edge">
<title>Node5&#45;&gt;Node17</title>
<path fill="none" stroke="midnightblue" d="M691.75,-83.97C642.72,-69.42 566.99,-46.93 521.48,-33.42"/>
<polygon fill="midnightblue" stroke="midnightblue" points="522.28,-30.01 511.7,-30.52 520.29,-36.72 522.28,-30.01"/>
</g>
<!-- Node18 -->
<g id="node18" class="node">
<title>Node18</title>
<g id="a_node18"><a xlink:title=" ">
<polygon fill="none" stroke="#bfbfbf" points="563.5,-11.5 563.5,-30.5 676.5,-30.5 676.5,-11.5 563.5,-11.5"/>
<text text-anchor="middle" x="620" y="-18.5" font-family="Helvetica,sans-Serif" font-size="10.00">boost/uuid/uuid.hpp</text>
</a>
</g>
</g>
<!-- Node5&#45;&gt;Node18 -->
<g id="edge19" class="edge">
<title>Node5&#45;&gt;Node18</title>
<path fill="none" stroke="midnightblue" d="M716.9,-83.88C695.58,-70.27 663.51,-49.79 642.17,-36.16"/>
<polygon fill="midnightblue" stroke="midnightblue" points="643.79,-33.04 633.48,-30.61 640.02,-38.94 643.79,-33.04"/>
</g>
<!-- Node19 -->
<g id="node19" class="node">
<title>Node19</title>
<g id="a_node19"><a xlink:title=" ">
<polygon fill="none" stroke="#bfbfbf" points="695,-11.5 695,-30.5 865,-30.5 865,-11.5 695,-11.5"/>
<text text-anchor="middle" x="780" y="-18.5" font-family="Helvetica,sans-Serif" font-size="10.00">boost/uuid/uuid_generators.hpp</text>
</a>
</g>
</g>
<!-- Node5&#45;&gt;Node19 -->
<g id="edge20" class="edge">
<title>Node5&#45;&gt;Node19</title>
<path fill="none" stroke="midnightblue" d="M746.71,-83.7C753.44,-71.23 763.23,-53.09 770.45,-39.7"/>
<polygon fill="midnightblue" stroke="midnightblue" points="773.71,-41.03 775.38,-30.56 767.55,-37.7 773.71,-41.03"/>
</g>
<!-- Node20 -->
<g id="node20" class="node">
<title>Node20</title>
<g id="a_node20"><a xlink:title=" ">
<polygon fill="none" stroke="#bfbfbf" points="883.5,-11.5 883.5,-30.5 1010.5,-30.5 1010.5,-11.5 883.5,-11.5"/>
<text text-anchor="middle" x="947" y="-18.5" font-family="Helvetica,sans-Serif" font-size="10.00">boost/uuid/uuid_io.hpp</text>
</a>
</g>
</g>
<!-- Node5&#45;&gt;Node20 -->
<g id="edge21" class="edge">
<title>Node5&#45;&gt;Node20</title>
<path fill="none" stroke="midnightblue" d="M777.64,-83.88C816.73,-69.6 876.53,-47.75 913.62,-34.2"/>
<polygon fill="midnightblue" stroke="midnightblue" points="915.25,-37.33 923.45,-30.61 912.85,-30.75 915.25,-37.33"/>
</g>
<!-- Node21 -->
<g id="node21" class="node">
<title>Node21</title>
<g id="a_node21"><a xlink:title=" ">
<polygon fill="none" stroke="#bfbfbf" points="1028.5,-11.5 1028.5,-30.5 1177.5,-30.5 1177.5,-11.5 1028.5,-11.5"/>
<text text-anchor="middle" x="1103" y="-18.5" font-family="Helvetica,sans-Serif" font-size="10.00">impl/hdf5&#45;core&#45;general.hpp</text>
</a>
</g>
</g>
<!-- Node5&#45;&gt;Node21 -->
<g id="edge22" class="edge">
<title>Node5&#45;&gt;Node21</title>
<path fill="none" stroke="midnightblue" d="M790.64,-83.99C799.09,-81.87 807.77,-79.8 816,-78 905.52,-58.47 929.28,-60.62 1019,-42 1032.09,-39.28 1046.25,-36.03 1059.15,-32.95"/>
<polygon fill="midnightblue" stroke="midnightblue" points="1060.28,-36.28 1069.18,-30.53 1058.63,-29.47 1060.28,-36.28"/>
</g>
<!-- Node23&#45;&gt;Node3 -->
<g id="edge27" class="edge">
<title>Node23&#45;&gt;Node3</title>
<path fill="none" stroke="midnightblue" d="M1516.49,-169.86C1321.07,-167.33 681.34,-156.35 597,-120 572.17,-109.3 577.66,-89.08 553,-78 464.73,-38.32 213.98,-60.55 119,-42 108.63,-39.98 97.57,-36.87 87.61,-33.71"/>
<polygon fill="midnightblue" stroke="midnightblue" points="88.68,-30.38 78.09,-30.57 86.49,-37.03 88.68,-30.38"/>
</g>
<!-- Node23&#45;&gt;Node5 -->
<g id="edge28" class="edge">
<title>Node23&#45;&gt;Node5</title>
<path fill="none" stroke="midnightblue" d="M1516.42,-168.49C1394.81,-163.74 1099.64,-149.91 854,-120 840.32,-118.33 825.8,-116.14 811.84,-113.82"/>
<polygon fill="midnightblue" stroke="midnightblue" points="812.24,-110.34 801.8,-112.11 811.07,-117.24 812.24,-110.34"/>
</g>
<!-- Node23&#45;&gt;Node10 -->
<g id="edge38" class="edge">
<title>Node23&#45;&gt;Node10</title>
<path fill="none" stroke="midnightblue" d="M1516.3,-171.07C1343.58,-172.21 826.06,-171.16 667,-120 633.9,-109.35 633.84,-89.41 601,-78 452.87,-26.52 403.68,-73.21 250,-42 239.59,-39.89 228.46,-36.79 218.41,-33.65"/>
<polygon fill="midnightblue" stroke="midnightblue" points="219.38,-30.29 208.79,-30.55 217.23,-36.95 219.38,-30.29"/>
</g>
<!-- Node23&#45;&gt;Node11 -->
<g id="edge40" class="edge">
<title>Node23&#45;&gt;Node11</title>
<path fill="none" stroke="midnightblue" d="M1516.42,-170.64C1359.83,-170.44 929.47,-165.71 887,-120 874.29,-106.32 874.06,-91.45 887,-78 922.89,-40.7 1768.33,-56.56 1818,-42 1822.84,-40.58 1827.71,-38.32 1832.19,-35.83"/>
<polygon fill="midnightblue" stroke="midnightblue" points="1834.04,-38.8 1840.7,-30.56 1830.36,-32.84 1834.04,-38.8"/>
</g>
<!-- Node23&#45;&gt;Node12 -->
<g id="edge41" class="edge">
<title>Node23&#45;&gt;Node12</title>
<path fill="none" stroke="midnightblue" d="M1629.73,-168.52C1768.08,-163.3 2114.75,-147.58 2159,-120 2188.24,-101.77 2204.95,-63.23 2212.68,-40.29"/>
<polygon fill="midnightblue" stroke="midnightblue" points="2216.03,-41.29 2215.69,-30.7 2209.35,-39.19 2216.03,-41.29"/>
</g>
<!-- Node23&#45;&gt;Node14 -->
<g id="edge42" class="edge">
<title>Node23&#45;&gt;Node14</title>
<path fill="none" stroke="midnightblue" d="M1629.74,-169.53C1763.58,-166.64 2090.2,-155.95 2123,-120 2135.58,-106.21 2133.74,-93.27 2123,-78 2112.4,-62.93 2073.37,-48.93 2037,-38.69"/>
<polygon fill="midnightblue" stroke="midnightblue" points="2037.91,-35.31 2027.34,-36.04 2036.06,-42.06 2037.91,-35.31"/>
</g>
<!-- Node23&#45;&gt;Node15 -->
<g id="edge43" class="edge">
<title>Node23&#45;&gt;Node15</title>
<path fill="none" stroke="midnightblue" d="M1629.57,-169.71C1766.47,-167.2 2106.92,-157.25 2141,-120 2161.69,-97.39 2142.21,-60.2 2127.63,-38.72"/>
<polygon fill="midnightblue" stroke="midnightblue" points="2130.47,-36.68 2121.81,-30.57 2124.77,-40.74 2130.47,-36.68"/>
</g>
<!-- Node24 -->
<g id="node24" class="node">
<title>Node24</title>
<g id="a_node24"><a xlink:title=" ">
<polygon fill="none" stroke="#bfbfbf" points="2246,-84 2246,-114 2404,-114 2404,-84 2246,-84"/>
<text text-anchor="start" x="2254" y="-102" font-family="Helvetica,sans-Serif" font-size="10.00">seerep&#45;msgs/boundingbox2d</text>
<text text-anchor="middle" x="2325" y="-91" font-family="Helvetica,sans-Serif" font-size="10.00">_labeled_generated.h</text>
</a>
</g>
</g>
<!-- Node23&#45;&gt;Node24 -->
<g id="edge29" class="edge">
<title>Node23&#45;&gt;Node24</title>
<path fill="none" stroke="midnightblue" d="M1629.7,-168.74C1744.11,-164.62 2010.57,-152.14 2232,-120 2239.7,-118.88 2247.71,-117.5 2255.67,-115.98"/>
<polygon fill="midnightblue" stroke="midnightblue" points="2256.55,-119.38 2265.68,-114.01 2255.19,-112.51 2256.55,-119.38"/>
</g>
<!-- Node25 -->
<g id="node25" class="node">
<title>Node25</title>
<g id="a_node25"><a xlink:title=" ">
<polygon fill="none" stroke="#bfbfbf" points="2422,-78.5 2422,-119.5 2580,-119.5 2580,-78.5 2422,-78.5"/>
<text text-anchor="start" x="2430" y="-107.5" font-family="Helvetica,sans-Serif" font-size="10.00">seerep&#45;msgs/boundingbox2d</text>
<text text-anchor="start" x="2430" y="-96.5" font-family="Helvetica,sans-Serif" font-size="10.00">_labeled_with_category</text>
<text text-anchor="middle" x="2501" y="-85.5" font-family="Helvetica,sans-Serif" font-size="10.00">_generated.h</text>
</a>
</g>
</g>
<!-- Node23&#45;&gt;Node25 -->
<g id="edge30" class="edge">
<title>Node23&#45;&gt;Node25</title>
<path fill="none" stroke="midnightblue" d="M1629.6,-170.28C1763.91,-169.07 2112.36,-161.94 2411.78,-120.05"/>
<polygon fill="midnightblue" stroke="midnightblue" points="2412.55,-123.47 2421.96,-118.6 2411.57,-116.54 2412.55,-123.47"/>
</g>
<!-- Node26 -->
<g id="node26" class="node">
<title>Node26</title>
<g id="a_node26"><a xlink:title=" ">
<polygon fill="none" stroke="#bfbfbf" points="896,-84 896,-114 1042,-114 1042,-84 896,-84"/>
<text text-anchor="start" x="904" y="-102" font-family="Helvetica,sans-Serif" font-size="10.00">seerep&#45;msgs/boundingbox</text>
<text text-anchor="middle" x="969" y="-91" font-family="Helvetica,sans-Serif" font-size="10.00">_labeled_generated.h</text>
</a>
</g>
</g>
<!-- Node23&#45;&gt;Node26 -->
<g id="edge31" class="edge">
<title>Node23&#45;&gt;Node26</title>
<path fill="none" stroke="midnightblue" d="M1516.26,-167.67C1420.02,-162.28 1218.87,-148.44 1051,-120 1044.74,-118.94 1038.26,-117.67 1031.79,-116.28"/>
<polygon fill="midnightblue" stroke="midnightblue" points="1032.22,-112.79 1021.7,-114.03 1030.7,-119.62 1032.22,-112.79"/>
</g>
<!-- Node27 -->
<g id="node27" class="node">
<title>Node27</title>
<g id="a_node27"><a xlink:title=" ">
<polygon fill="none" stroke="#bfbfbf" points="1060,-78.5 1060,-119.5 1206,-119.5 1206,-78.5 1060,-78.5"/>
<text text-anchor="start" x="1068" y="-107.5" font-family="Helvetica,sans-Serif" font-size="10.00">seerep&#45;msgs/boundingbox</text>
<text text-anchor="start" x="1068" y="-96.5" font-family="Helvetica,sans-Serif" font-size="10.00">_labeled_with_category</text>
<text text-anchor="middle" x="1133" y="-85.5" font-family="Helvetica,sans-Serif" font-size="10.00">_generated.h</text>
</a>
</g>
</g>
<!-- Node23&#45;&gt;Node27 -->
<g id="edge32" class="edge">
<title>Node23&#45;&gt;Node27</title>
<path fill="none" stroke="midnightblue" d="M1516.29,-164.26C1447.53,-156.3 1327.98,-141.21 1216.33,-120.17"/>
<polygon fill="midnightblue" stroke="midnightblue" points="1216.72,-116.68 1206.24,-118.24 1215.41,-123.55 1216.72,-116.68"/>
</g>
<!-- Node28 -->
<g id="node28" class="node">
<title>Node28</title>
<g id="a_node28"><a xlink:title=" ">
<polygon fill="none" stroke="#bfbfbf" points="1224,-84 1224,-114 1340,-114 1340,-84 1224,-84"/>
<text text-anchor="start" x="1232" y="-102" font-family="Helvetica,sans-Serif" font-size="10.00">seerep&#45;msgs/header</text>
<text text-anchor="middle" x="1282" y="-91" font-family="Helvetica,sans-Serif" font-size="10.00">_generated.h</text>
</a>
</g>
</g>
<!-- Node23&#45;&gt;Node28 -->
<g id="edge33" class="edge">
<title>Node23&#45;&gt;Node28</title>
<path fill="none" stroke="midnightblue" d="M1516.12,-158.8C1470.69,-149.18 1405.5,-134.78 1349,-120 1345.21,-119.01 1341.31,-117.95 1337.39,-116.86"/>
<polygon fill="midnightblue" stroke="midnightblue" points="1338.23,-113.45 1327.65,-114.08 1336.31,-120.19 1338.23,-113.45"/>
</g>
<!-- Node29 -->
<g id="node29" class="node">
<title>Node29</title>
<g id="a_node29"><a xlink:title=" ">
<polygon fill="none" stroke="#bfbfbf" points="1358,-78.5 1358,-119.5 1486,-119.5 1486,-78.5 1358,-78.5"/>
<text text-anchor="start" x="1366" y="-107.5" font-family="Helvetica,sans-Serif" font-size="10.00">seerep&#45;msgs/labels</text>
<text text-anchor="start" x="1366" y="-96.5" font-family="Helvetica,sans-Serif" font-size="10.00">_with_instance_with</text>
<text text-anchor="middle" x="1422" y="-85.5" font-family="Helvetica,sans-Serif" font-size="10.00">_category_generated.h</text>
</a>
</g>
</g>
<!-- Node23&#45;&gt;Node29 -->
<g id="edge34" class="edge">
<title>Node23&#45;&gt;Node29</title>
<path fill="none" stroke="midnightblue" d="M1542.81,-156.4C1522.91,-147.11 1496.36,-134.72 1473.21,-123.91"/>
<polygon fill="midnightblue" stroke="midnightblue" points="1474.41,-120.61 1463.87,-119.55 1471.45,-126.95 1474.41,-120.61"/>
</g>
<!-- Node30 -->
<g id="node30" class="node">
<title>Node30</title>
<g id="a_node30"><a xlink:title=" ">
<polygon fill="none" stroke="#bfbfbf" points="1504.5,-84 1504.5,-114 1641.5,-114 1641.5,-84 1504.5,-84"/>
<text text-anchor="start" x="1512.5" y="-102" font-family="Helvetica,sans-Serif" font-size="10.00">seerep&#45;msgs/union_map</text>
<text text-anchor="middle" x="1573" y="-91" font-family="Helvetica,sans-Serif" font-size="10.00">_entry_generated.h</text>
</a>
</g>
</g>
<!-- Node23&#45;&gt;Node30 -->
<g id="edge35" class="edge">
<title>Node23&#45;&gt;Node30</title>
<path fill="none" stroke="midnightblue" d="M1573,-156.23C1573,-147.16 1573,-135.16 1573,-124.58"/>
<polygon fill="midnightblue" stroke="midnightblue" points="1576.5,-124.25 1573,-114.25 1569.5,-124.25 1576.5,-124.25"/>
</g>
<!-- Node31 -->
<g id="node31" class="node">
<title>Node31</title>
<g id="a_node31"><a xlink:title=" ">
<polygon fill="none" stroke="#bfbfbf" points="1659.5,-89.5 1659.5,-108.5 1754.5,-108.5 1754.5,-89.5 1659.5,-89.5"/>
<text text-anchor="middle" x="1707" y="-96.5" font-family="Helvetica,sans-Serif" font-size="10.00">grpcpp/grpcpp.h</text>
</a>
</g>
</g>
<!-- Node23&#45;&gt;Node31 -->
<g id="edge36" class="edge">
<title>Node23&#45;&gt;Node31</title>
<path fill="none" stroke="midnightblue" d="M1599.79,-156.4C1623.69,-143.83 1658.42,-125.56 1681.81,-113.25"/>
<polygon fill="midnightblue" stroke="midnightblue" points="1683.56,-116.29 1690.78,-108.53 1680.3,-110.09 1683.56,-116.29"/>
</g>
<!-- Node32 -->
<g id="node32" class="node">
<title>Node32</title>
<g id="a_node32"><a xlink:title=" ">
<polygon fill="none" stroke="#bfbfbf" points="1772.5,-89.5 1772.5,-108.5 1871.5,-108.5 1871.5,-89.5 1772.5,-89.5"/>
<text text-anchor="middle" x="1822" y="-96.5" font-family="Helvetica,sans-Serif" font-size="10.00">flatbuffers/grpc.h</text>
</a>
</g>
</g>
<!-- Node23&#45;&gt;Node32 -->
<g id="edge37" class="edge">
<title>Node23&#45;&gt;Node32</title>
<path fill="none" stroke="midnightblue" d="M1629.81,-156.46C1667.72,-146.83 1718.56,-133.42 1763,-120 1771.24,-117.51 1780.07,-114.63 1788.31,-111.85"/>
<polygon fill="midnightblue" stroke="midnightblue" points="1789.67,-115.09 1798,-108.54 1787.41,-108.46 1789.67,-115.09"/>
</g>
<!-- Node33 -->
<g id="node33" class="node">
<title>Node33</title>
<g id="a_node33"><a xlink:title=" ">
<polygon fill="none" stroke="#bfbfbf" points="1890,-89.5 1890,-108.5 1958,-108.5 1958,-89.5 1890,-89.5"/>
<text text-anchor="middle" x="1924" y="-96.5" font-family="Helvetica,sans-Serif" font-size="10.00">filesystem</text>
</a>
</g>
</g>
<!-- Node23&#45;&gt;Node33 -->
<g id="edge39" class="edge">
<title>Node23&#45;&gt;Node33</title>
<path fill="none" stroke="midnightblue" d="M1629.75,-165.68C1692.15,-159.35 1794.85,-145.86 1880,-120 1886.07,-118.16 1892.39,-115.66 1898.29,-113.05"/>
<polygon fill="midnightblue" stroke="midnightblue" points="1900.11,-116.06 1907.69,-108.66 1897.14,-109.72 1900.11,-116.06"/>
</g>
<!-- Node34 -->
<g id="node34" class="node">
<title>Node34</title>
<g id="a_node34"><a xlink:title=" ">
<polygon fill="none" stroke="#bfbfbf" points="1976,-89.5 1976,-108.5 2114,-108.5 2114,-89.5 1976,-89.5"/>
<text text-anchor="middle" x="2045" y="-96.5" font-family="Helvetica,sans-Serif" font-size="10.00">impl/hdf5&#45;fb&#45;general.hpp</text>
</a>
</g>
</g>
<!-- Node23&#45;&gt;Node34 -->
<g id="edge44" class="edge">
<title>Node23&#45;&gt;Node34</title>
<path fill="none" stroke="midnightblue" d="M1629.79,-165.45C1706.67,-158.1 1847.96,-142.8 1967,-120 1979.55,-117.6 1993.08,-114.36 2005.3,-111.19"/>
<polygon fill="midnightblue" stroke="midnightblue" points="2006.42,-114.51 2015.19,-108.56 2004.63,-107.75 2006.42,-114.51"/>
</g>
</g>
</svg>
