<?xml version="1.0" encoding="UTF-8" standalone="no"?>
<!DOCTYPE svg PUBLIC "-//W3C//DTD SVG 1.1//EN"
 "http://www.w3.org/Graphics/SVG/1.1/DTD/svg11.dtd">
<!-- Generated by graphviz version 2.43.0 (0)
 -->
<!-- Title: seerep&#45;hdf5/seerep&#45;hdf5&#45;core/include/seerep&#45;hdf5&#45;core/hdf5&#45;core&#45;point&#45;cloud.h Pages: 1 -->
<svg width="1255pt" height="195pt"
 viewBox="0.00 0.00 1255.00 195.00" xmlns="http://www.w3.org/2000/svg" xmlns:xlink="http://www.w3.org/1999/xlink">
<g id="graph0" class="graph" transform="scale(1 1) rotate(0) translate(4 191)">
<title>seerep&#45;hdf5/seerep&#45;hdf5&#45;core/include/seerep&#45;hdf5&#45;core/hdf5&#45;core&#45;point&#45;cloud.h</title>
<!-- Node1 -->
<g id="node1" class="node">
<title>Node1</title>
<g id="a_node1"><a xlink:title=" ">
<polygon fill="#bfbfbf" stroke="black" points="416,-134.5 416,-186.5 561,-186.5 561,-134.5 416,-134.5"/>
<text text-anchor="start" x="424" y="-174.5" font-family="Helvetica,sans-Serif" font-size="10.00">seerep&#45;hdf5/seerep</text>
<text text-anchor="start" x="424" y="-163.5" font-family="Helvetica,sans-Serif" font-size="10.00">&#45;hdf5&#45;core/include/seerep</text>
<text text-anchor="start" x="424" y="-152.5" font-family="Helvetica,sans-Serif" font-size="10.00">&#45;hdf5&#45;core/hdf5&#45;core&#45;point</text>
<text text-anchor="middle" x="488.5" y="-141.5" font-family="Helvetica,sans-Serif" font-size="10.00">&#45;cloud.h</text>
</a>
</g>
</g>
<!-- Node2 -->
<g id="node2" class="node">
<title>Node2</title>
<g id="a_node2"><a xlink:title=" ">
<polygon fill="none" stroke="#bfbfbf" points="342.5,-6 342.5,-25 452.5,-25 452.5,-6 342.5,-6"/>
<text text-anchor="middle" x="397.5" y="-13" font-family="Helvetica,sans-Serif" font-size="10.00">highfive/H5File.hpp</text>
</a>
</g>
</g>
<!-- Node1&#45;&gt;Node2 -->
<g id="edge1" class="edge">
<title>Node1&#45;&gt;Node2</title>
<path fill="none" stroke="midnightblue" d="M451.01,-134.32C438.7,-124.34 426.01,-111.91 417.5,-98 405.59,-78.53 400.77,-52.36 398.82,-34.99"/>
<polygon fill="midnightblue" stroke="midnightblue" points="402.3,-34.64 397.91,-25 395.33,-35.28 402.3,-34.64"/>
</g>
<!-- Node3 -->
<g id="node3" class="node">
<title>Node3</title>
<g id="a_node3"><a xlink:href="hdf5-core-datatype-interface_8h.html" target="_top" xlink:title=" ">
<polygon fill="none" stroke="black" points="122,-67.5 122,-97.5 267,-97.5 267,-67.5 122,-67.5"/>
<text text-anchor="start" x="130" y="-85.5" font-family="Helvetica,sans-Serif" font-size="10.00">seerep&#45;hdf5&#45;core/hdf5</text>
<text text-anchor="middle" x="194.5" y="-74.5" font-family="Helvetica,sans-Serif" font-size="10.00">&#45;core&#45;datatype&#45;interface.h</text>
</a>
</g>
</g>
<!-- Node1&#45;&gt;Node3 -->
<g id="edge2" class="edge">
<title>Node1&#45;&gt;Node3</title>
<path fill="none" stroke="midnightblue" d="M415.83,-140.71C367.67,-128.26 305.06,-112.08 258.73,-100.1"/>
<polygon fill="midnightblue" stroke="midnightblue" points="259.37,-96.65 248.81,-97.54 257.62,-103.43 259.37,-96.65"/>
</g>
<!-- Node4 -->
<g id="node4" class="node">
<title>Node4</title>
<g id="a_node4"><a xlink:title=" ">
<polygon fill="none" stroke="#bfbfbf" points="131,-0.5 131,-30.5 250,-30.5 250,-0.5 131,-0.5"/>
<text text-anchor="start" x="139" y="-18.5" font-family="Helvetica,sans-Serif" font-size="10.00">seerep&#45;msgs/dataset</text>
<text text-anchor="middle" x="190.5" y="-7.5" font-family="Helvetica,sans-Serif" font-size="10.00">&#45;indexable.h</text>
</a>
</g>
</g>
<!-- Node1&#45;&gt;Node4 -->
<g id="edge16" class="edge">
<title>Node1&#45;&gt;Node4</title>
<path fill="none" stroke="midnightblue" d="M433.35,-134.38C409.36,-123.36 380.98,-110.18 355.5,-98 311.42,-76.93 261.14,-51.95 227.78,-35.25"/>
<polygon fill="midnightblue" stroke="midnightblue" points="228.93,-31.91 218.42,-30.56 225.79,-38.17 228.93,-31.91"/>
</g>
<!-- Node5 -->
<g id="node5" class="node">
<title>Node5</title>
<g id="a_node5"><a xlink:title=" ">
<polygon fill="none" stroke="#bfbfbf" points="0,-6 0,-25 113,-25 113,-6 0,-6"/>
<text text-anchor="middle" x="56.5" y="-13" font-family="Helvetica,sans-Serif" font-size="10.00">boost/uuid/uuid.hpp</text>
</a>
</g>
</g>
<!-- Node1&#45;&gt;Node5 -->
<g id="edge21" class="edge">
<title>Node1&#45;&gt;Node5</title>
<path fill="none" stroke="midnightblue" d="M415.69,-154.37C320.94,-146.56 161.65,-129.19 112.5,-98 88.65,-82.87 72.33,-53.52 63.7,-34.48"/>
<polygon fill="midnightblue" stroke="midnightblue" points="66.85,-32.94 59.71,-25.12 60.42,-35.69 66.85,-32.94"/>
</g>
<!-- Node6 -->
<g id="node6" class="node">
<title>Node6</title>
<g id="a_node6"><a xlink:title=" ">
<polygon fill="none" stroke="#bfbfbf" points="268.5,-6 268.5,-25 324.5,-25 324.5,-6 268.5,-6"/>
<text text-anchor="middle" x="296.5" y="-13" font-family="Helvetica,sans-Serif" font-size="10.00">optional</text>
</a>
</g>
</g>
<!-- Node1&#45;&gt;Node6 -->
<g id="edge18" class="edge">
<title>Node1&#45;&gt;Node6</title>
<path fill="none" stroke="midnightblue" d="M451.36,-134.21C435.54,-123.27 416.98,-110.2 400.5,-98 370.01,-75.43 335.51,-48.01 314.91,-31.42"/>
<polygon fill="midnightblue" stroke="midnightblue" points="316.96,-28.58 306.98,-25.02 312.57,-34.03 316.96,-28.58"/>
</g>
<!-- Node7 -->
<g id="node7" class="node">
<title>Node7</title>
<g id="a_node7"><a xlink:href="hdf5-core-general_8h.html" target="_top" xlink:title=" ">
<polygon fill="none" stroke="black" points="426,-67.5 426,-97.5 551,-97.5 551,-67.5 426,-67.5"/>
<text text-anchor="start" x="434" y="-85.5" font-family="Helvetica,sans-Serif" font-size="10.00">seerep&#45;hdf5&#45;core/hdf5</text>
<text text-anchor="middle" x="488.5" y="-74.5" font-family="Helvetica,sans-Serif" font-size="10.00">&#45;core&#45;general.h</text>
</a>
</g>
</g>
<!-- Node1&#45;&gt;Node7 -->
<g id="edge6" class="edge">
<title>Node1&#45;&gt;Node7</title>
<path fill="none" stroke="midnightblue" d="M488.5,-134.19C488.5,-125.79 488.5,-116.44 488.5,-108.09"/>
<polygon fill="midnightblue" stroke="midnightblue" points="492,-107.85 488.5,-97.85 485,-107.85 492,-107.85"/>
</g>
<!-- Node9 -->
<g id="node9" class="node">
<title>Node9</title>
<g id="a_node9"><a xlink:title=" ">
<polygon fill="none" stroke="#bfbfbf" points="1134,-6 1134,-25 1247,-25 1247,-6 1134,-6"/>
<text text-anchor="middle" x="1190.5" y="-13" font-family="Helvetica,sans-Serif" font-size="10.00">boost/geometry.hpp</text>
</a>
</g>
</g>
<!-- Node1&#45;&gt;Node9 -->
<g id="edge17" class="edge">
<title>Node1&#45;&gt;Node9</title>
<path fill="none" stroke="midnightblue" d="M517.66,-134.44C548.88,-107.72 594.64,-68.95 599.5,-67 708.24,-23.37 1009.55,-47.8 1125.5,-31 1132.42,-30 1139.7,-28.66 1146.78,-27.2"/>
<polygon fill="midnightblue" stroke="midnightblue" points="1147.91,-30.54 1156.94,-25 1146.43,-23.69 1147.91,-30.54"/>
</g>
<!-- Node14 -->
<g id="node14" class="node">
<title>Node14</title>
<g id="a_node14"><a xlink:title=" ">
<polygon fill="none" stroke="#bfbfbf" points="608,-73 608,-92 751,-92 751,-73 608,-73"/>
<text text-anchor="middle" x="679.5" y="-80" font-family="Helvetica,sans-Serif" font-size="10.00">boost/functional/hash.hpp</text>
</a>
</g>
</g>
<!-- Node1&#45;&gt;Node14 -->
<g id="edge19" class="edge">
<title>Node1&#45;&gt;Node14</title>
<path fill="none" stroke="midnightblue" d="M551.57,-134.4C584.14,-121.45 622.41,-106.22 648.55,-95.81"/>
<polygon fill="midnightblue" stroke="midnightblue" points="649.94,-99.03 657.94,-92.08 647.36,-92.52 649.94,-99.03"/>
</g>
<!-- Node15 -->
<g id="node15" class="node">
<title>Node15</title>
<g id="a_node15"><a xlink:title=" ">
<polygon fill="none" stroke="#bfbfbf" points="769,-73 769,-92 894,-92 894,-73 769,-73"/>
<text text-anchor="middle" x="831.5" y="-80" font-family="Helvetica,sans-Serif" font-size="10.00">boost/lexical_cast.hpp</text>
</a>
</g>
</g>
<!-- Node1&#45;&gt;Node15 -->
<g id="edge20" class="edge">
<title>Node1&#45;&gt;Node15</title>
<path fill="none" stroke="midnightblue" d="M561.24,-143.38C628.03,-128.58 725.12,-107.07 782.93,-94.26"/>
<polygon fill="midnightblue" stroke="midnightblue" points="783.9,-97.63 792.9,-92.05 782.38,-90.8 783.9,-97.63"/>
</g>
<!-- Node16 -->
<g id="node16" class="node">
<title>Node16</title>
<g id="a_node16"><a xlink:title=" ">
<polygon fill="none" stroke="#bfbfbf" points="912.5,-73 912.5,-92 1082.5,-92 1082.5,-73 912.5,-73"/>
<text text-anchor="middle" x="997.5" y="-80" font-family="Helvetica,sans-Serif" font-size="10.00">boost/uuid/uuid_generators.hpp</text>
</a>
</g>
</g>
<!-- Node1&#45;&gt;Node16 -->
<g id="edge22" class="edge">
<title>Node1&#45;&gt;Node16</title>
<path fill="none" stroke="midnightblue" d="M561.24,-148.85C644.11,-136.69 783.59,-116.13 903.5,-98 912.83,-96.59 922.68,-95.09 932.35,-93.6"/>
<polygon fill="midnightblue" stroke="midnightblue" points="932.98,-97.04 942.34,-92.07 931.92,-90.13 932.98,-97.04"/>
</g>
<!-- Node17 -->
<g id="node17" class="node">
<title>Node17</title>
<g id="a_node17"><a xlink:title=" ">
<polygon fill="none" stroke="#bfbfbf" points="1101,-73 1101,-92 1228,-92 1228,-73 1101,-73"/>
<text text-anchor="middle" x="1164.5" y="-80" font-family="Helvetica,sans-Serif" font-size="10.00">boost/uuid/uuid_io.hpp</text>
</a>
</g>
</g>
<!-- Node1&#45;&gt;Node17 -->
<g id="edge23" class="edge">
<title>Node1&#45;&gt;Node17</title>
<path fill="none" stroke="midnightblue" d="M561.18,-154.32C674.75,-145.71 901.06,-126.56 1091.5,-98 1099.23,-96.84 1107.38,-95.42 1115.32,-93.93"/>
<polygon fill="midnightblue" stroke="midnightblue" points="1116.07,-97.35 1125.22,-92.01 1114.74,-90.48 1116.07,-97.35"/>
</g>
<!-- Node3&#45;&gt;Node4 -->
<g id="edge3" class="edge">
<title>Node3&#45;&gt;Node4</title>
<path fill="none" stroke="midnightblue" d="M193.63,-67.4C193.15,-59.56 192.54,-49.6 191.98,-40.57"/>
<polygon fill="midnightblue" stroke="midnightblue" points="195.47,-40.34 191.37,-30.58 188.49,-40.77 195.47,-40.34"/>
</g>
<!-- Node3&#45;&gt;Node5 -->
<g id="edge4" class="edge">
<title>Node3&#45;&gt;Node5</title>
<path fill="none" stroke="midnightblue" d="M164.56,-67.4C140.56,-56.09 107.16,-40.36 83.87,-29.39"/>
<polygon fill="midnightblue" stroke="midnightblue" points="85.1,-26.1 74.56,-25.01 82.12,-32.43 85.1,-26.1"/>
</g>
<!-- Node3&#45;&gt;Node6 -->
<g id="edge5" class="edge">
<title>Node3&#45;&gt;Node6</title>
<path fill="none" stroke="midnightblue" d="M216.63,-67.4C233.74,-56.5 257.3,-41.48 274.4,-30.58"/>
<polygon fill="midnightblue" stroke="midnightblue" points="276.6,-33.33 283.15,-25.01 272.84,-27.43 276.6,-33.33"/>
</g>
<!-- Node7&#45;&gt;Node2 -->
<g id="edge7" class="edge">
<title>Node7&#45;&gt;Node2</title>
<path fill="none" stroke="midnightblue" d="M468.75,-67.4C453.64,-56.6 432.86,-41.76 417.64,-30.89"/>
<polygon fill="midnightblue" stroke="midnightblue" points="419.58,-27.97 409.41,-25.01 415.51,-33.67 419.58,-27.97"/>
</g>
<!-- Node7&#45;&gt;Node4 -->
<g id="edge9" class="edge">
<title>Node7&#45;&gt;Node4</title>
<path fill="none" stroke="midnightblue" d="M425.67,-67.79C377.16,-57.21 310.09,-42.58 259.99,-31.66"/>
<polygon fill="midnightblue" stroke="midnightblue" points="260.72,-28.23 250.2,-29.52 259.23,-35.07 260.72,-28.23"/>
</g>
<!-- Node7&#45;&gt;Node6 -->
<g id="edge12" class="edge">
<title>Node7&#45;&gt;Node6</title>
<path fill="none" stroke="midnightblue" d="M443.16,-67.5C412.13,-57.73 370.13,-44.13 333.5,-31 331.6,-30.32 329.65,-29.6 327.69,-28.87"/>
<polygon fill="midnightblue" stroke="midnightblue" points="328.53,-25.45 317.94,-25.15 326.03,-31.99 328.53,-25.45"/>
</g>
<!-- Node8 -->
<g id="node8" class="node">
<title>Node8</title>
<g id="a_node8"><a xlink:title=" ">
<polygon fill="none" stroke="#bfbfbf" points="470.5,-6 470.5,-25 586.5,-25 586.5,-6 470.5,-6"/>
<text text-anchor="middle" x="528.5" y="-13" font-family="Helvetica,sans-Serif" font-size="10.00">seerep&#45;msgs/aabb.h</text>
</a>
</g>
</g>
<!-- Node7&#45;&gt;Node8 -->
<g id="edge8" class="edge">
<title>Node7&#45;&gt;Node8</title>
<path fill="none" stroke="midnightblue" d="M497.18,-67.4C503.23,-57.56 511.34,-44.38 517.8,-33.89"/>
<polygon fill="midnightblue" stroke="midnightblue" points="520.89,-35.55 523.15,-25.19 514.93,-31.88 520.89,-35.55"/>
</g>
<!-- Node7&#45;&gt;Node9 -->
<g id="edge10" class="edge">
<title>Node7&#45;&gt;Node9</title>
<path fill="none" stroke="midnightblue" d="M551.01,-69.07C555.9,-68.3 560.78,-67.59 565.5,-67 812.95,-35.87 878.6,-66.26 1125.5,-31 1132.42,-30.01 1139.7,-28.68 1146.78,-27.23"/>
<polygon fill="midnightblue" stroke="midnightblue" points="1147.91,-30.56 1156.95,-25.03 1146.43,-23.72 1147.91,-30.56"/>
</g>
<!-- Node10 -->
<g id="node10" class="node">
<title>Node10</title>
<g id="a_node10"><a xlink:title=" ">
<polygon fill="none" stroke="#bfbfbf" points="604.5,-6 604.5,-25 652.5,-25 652.5,-6 604.5,-6"/>
<text text-anchor="middle" x="628.5" y="-13" font-family="Helvetica,sans-Serif" font-size="10.00">mutex</text>
</a>
</g>
</g>
<!-- Node7&#45;&gt;Node10 -->
<g id="edge11" class="edge">
<title>Node7&#45;&gt;Node10</title>
<path fill="none" stroke="midnightblue" d="M518.88,-67.4C543.33,-56.04 577.41,-40.22 601.05,-29.24"/>
<polygon fill="midnightblue" stroke="midnightblue" points="602.58,-32.39 610.18,-25.01 599.63,-26.04 602.58,-32.39"/>
</g>
<!-- Node11 -->
<g id="node11" class="node">
<title>Node11</title>
<g id="a_node11"><a xlink:title=" ">
<polygon fill="none" stroke="#bfbfbf" points="671,-0.5 671,-30.5 816,-30.5 816,-0.5 671,-0.5"/>
<text text-anchor="start" x="679" y="-18.5" font-family="Helvetica,sans-Serif" font-size="10.00">boost/log/sources/severity</text>
<text text-anchor="middle" x="743.5" y="-7.5" font-family="Helvetica,sans-Serif" font-size="10.00">_logger.hpp</text>
</a>
</g>
</g>
<!-- Node7&#45;&gt;Node11 -->
<g id="edge13" class="edge">
<title>Node7&#45;&gt;Node11</title>
<path fill="none" stroke="midnightblue" d="M543.52,-67.48C583.1,-57.39 636.63,-43.74 678.35,-33.11"/>
<polygon fill="midnightblue" stroke="midnightblue" points="679.32,-36.47 688.14,-30.61 677.59,-29.69 679.32,-36.47"/>
</g>
<!-- Node12 -->
<g id="node12" class="node">
<title>Node12</title>
<g id="a_node12"><a xlink:title=" ">
<polygon fill="none" stroke="#bfbfbf" points="834.5,-6 834.5,-25 948.5,-25 948.5,-6 834.5,-6"/>
<text text-anchor="middle" x="891.5" y="-13" font-family="Helvetica,sans-Serif" font-size="10.00">boost/log/trivial.hpp</text>
</a>
</g>
</g>
<!-- Node7&#45;&gt;Node12 -->
<g id="edge14" class="edge">
<title>Node7&#45;&gt;Node12</title>
<path fill="none" stroke="midnightblue" d="M551.07,-69.45C555.95,-68.6 560.8,-67.77 565.5,-67 680.63,-48.2 710.66,-51.53 825.5,-31 831.79,-29.88 838.39,-28.57 844.89,-27.22"/>
<polygon fill="midnightblue" stroke="midnightblue" points="845.9,-30.58 854.95,-25.07 844.44,-23.74 845.9,-30.58"/>
</g>
<!-- Node13 -->
<g id="node13" class="node">
<title>Node13</title>
<g id="a_node13"><a xlink:title=" ">
<polygon fill="none" stroke="#bfbfbf" points="967,-6 967,-25 1116,-25 1116,-6 967,-6"/>
<text text-anchor="middle" x="1041.5" y="-13" font-family="Helvetica,sans-Serif" font-size="10.00">impl/hdf5&#45;core&#45;general.hpp</text>
</a>
</g>
</g>
<!-- Node7&#45;&gt;Node13 -->
<g id="edge15" class="edge">
<title>Node7&#45;&gt;Node13</title>
<path fill="none" stroke="midnightblue" d="M551.03,-69.21C555.92,-68.41 560.78,-67.66 565.5,-67 738.77,-42.78 784.05,-53.9 957.5,-31 966.66,-29.79 976.34,-28.31 985.76,-26.76"/>
<polygon fill="midnightblue" stroke="midnightblue" points="986.55,-30.18 995.83,-25.06 985.38,-23.27 986.55,-30.18"/>
</g>
</g>
</svg>
