<?xml version="1.0" encoding="UTF-8" standalone="no"?>
<!DOCTYPE svg PUBLIC "-//W3C//DTD SVG 1.1//EN"
 "http://www.w3.org/Graphics/SVG/1.1/DTD/svg11.dtd">
<!-- Generated by graphviz version 2.43.0 (0)
 -->
<!-- Title: seerep_hdf5/seerep_hdf5_py/src/hdf5_py_pointcloud.cpp Pages: 1 -->
<svg width="2265pt" height="329pt"
 viewBox="0.00 0.00 2265.00 329.00" xmlns="http://www.w3.org/2000/svg" xmlns:xlink="http://www.w3.org/1999/xlink">
<g id="graph0" class="graph" transform="scale(1 1) rotate(0) translate(4 325)">
<title>seerep_hdf5/seerep_hdf5_py/src/hdf5_py_pointcloud.cpp</title>
<!-- Node1 -->
<g id="node1" class="node">
<title>Node1</title>
<g id="a_node1"><a xlink:title=" ">
<polygon fill="#bfbfbf" stroke="black" points="1437,-279.5 1437,-320.5 1557,-320.5 1557,-279.5 1437,-279.5"/>
<text text-anchor="start" x="1445" y="-308.5" font-family="Helvetica,sans-Serif" font-size="10.00">seerep_hdf5/seerep</text>
<text text-anchor="start" x="1445" y="-297.5" font-family="Helvetica,sans-Serif" font-size="10.00">_hdf5_py/src/hdf5_py</text>
<text text-anchor="middle" x="1497" y="-286.5" font-family="Helvetica,sans-Serif" font-size="10.00">_pointcloud.cpp</text>
</a>
</g>
</g>
<!-- Node2 -->
<g id="node2" class="node">
<title>Node2</title>
<g id="a_node2"><a xlink:href="hdf5__py__pointcloud_8h.html" target="_top" xlink:title=" ">
<polygon fill="none" stroke="black" points="1365.5,-212.5 1365.5,-242.5 1484.5,-242.5 1484.5,-212.5 1365.5,-212.5"/>
<text text-anchor="start" x="1373.5" y="-230.5" font-family="Helvetica,sans-Serif" font-size="10.00">seerep_hdf5_py/hdf5</text>
<text text-anchor="middle" x="1425" y="-219.5" font-family="Helvetica,sans-Serif" font-size="10.00">_py_pointcloud.h</text>
</a>
</g>
</g>
<!-- Node1&#45;&gt;Node2 -->
<g id="edge1" class="edge">
<title>Node1&#45;&gt;Node2</title>
<path fill="none" stroke="midnightblue" d="M1476.94,-279.36C1467.62,-270.23 1456.51,-259.35 1446.96,-250"/>
<polygon fill="midnightblue" stroke="midnightblue" points="1449.29,-247.39 1439.7,-242.89 1444.39,-252.39 1449.29,-247.39"/>
</g>
<!-- Node31 -->
<g id="node31" class="node">
<title>Node31</title>
<g id="a_node31"><a xlink:title=" ">
<polygon fill="none" stroke="#bfbfbf" points="1503,-218 1503,-237 1635,-237 1635,-218 1503,-218"/>
<text text-anchor="middle" x="1569" y="-225" font-family="Helvetica,sans-Serif" font-size="10.00">highfive/H5DataSet.hpp</text>
</a>
</g>
</g>
<!-- Node1&#45;&gt;Node31 -->
<g id="edge51" class="edge">
<title>Node1&#45;&gt;Node31</title>
<path fill="none" stroke="midnightblue" d="M1517.06,-279.36C1528.33,-268.32 1542.22,-254.72 1552.8,-244.37"/>
<polygon fill="midnightblue" stroke="midnightblue" points="1555.45,-246.67 1560.14,-237.17 1550.55,-241.67 1555.45,-246.67"/>
</g>
<!-- Node3 -->
<g id="node3" class="node">
<title>Node3</title>
<g id="a_node3"><a xlink:title=" ">
<polygon fill="none" stroke="#bfbfbf" points="1851,-11.5 1851,-30.5 1961,-30.5 1961,-11.5 1851,-11.5"/>
<text text-anchor="middle" x="1906" y="-18.5" font-family="Helvetica,sans-Serif" font-size="10.00">highfive/H5File.hpp</text>
</a>
</g>
</g>
<!-- Node2&#45;&gt;Node3 -->
<g id="edge2" class="edge">
<title>Node2&#45;&gt;Node3</title>
<path fill="none" stroke="midnightblue" d="M1365.5,-219.29C1338.35,-212.7 1308.62,-200.09 1292,-176 1263.72,-135.01 1340.64,-78.75 1342,-78 1439.72,-24.52 1732.55,-62.75 1842,-42 1852.47,-40.02 1863.63,-36.89 1873.65,-33.7"/>
<polygon fill="midnightblue" stroke="midnightblue" points="1874.83,-37 1883.22,-30.53 1872.63,-30.35 1874.83,-37"/>
</g>
<!-- Node4 -->
<g id="node4" class="node">
<title>Node4</title>
<g id="a_node4"><a xlink:href="hdf5__core__point__cloud_8h.html" target="_top" xlink:title=" ">
<polygon fill="none" stroke="black" points="592,-145.5 592,-175.5 720,-175.5 720,-145.5 592,-145.5"/>
<text text-anchor="start" x="600" y="-163.5" font-family="Helvetica,sans-Serif" font-size="10.00">seerep_hdf5_core/hdf5</text>
<text text-anchor="middle" x="656" y="-152.5" font-family="Helvetica,sans-Serif" font-size="10.00">_core_point_cloud.h</text>
</a>
</g>
</g>
<!-- Node2&#45;&gt;Node4 -->
<g id="edge3" class="edge">
<title>Node2&#45;&gt;Node4</title>
<path fill="none" stroke="midnightblue" d="M1365.3,-221.45C1226.54,-209.72 882.55,-180.65 730.41,-167.79"/>
<polygon fill="midnightblue" stroke="midnightblue" points="730.49,-164.28 720.23,-166.93 729.9,-171.26 730.49,-164.28"/>
</g>
<!-- Node8 -->
<g id="node8" class="node">
<title>Node8</title>
<g id="a_node8"><a xlink:title=" ">
<polygon fill="none" stroke="#bfbfbf" points="0,-11.5 0,-30.5 56,-30.5 56,-11.5 0,-11.5"/>
<text text-anchor="middle" x="28" y="-18.5" font-family="Helvetica,sans-Serif" font-size="10.00">optional</text>
</a>
</g>
</g>
<!-- Node2&#45;&gt;Node8 -->
<g id="edge46" class="edge">
<title>Node2&#45;&gt;Node8</title>
<path fill="none" stroke="midnightblue" d="M1365.44,-225.02C1116.97,-218.36 171.17,-187.95 66,-109 44.09,-92.55 34.61,-60.79 30.66,-40.53"/>
<polygon fill="midnightblue" stroke="midnightblue" points="34.1,-39.9 28.99,-30.63 27.2,-41.07 34.1,-39.9"/>
</g>
<!-- Node13 -->
<g id="node13" class="node">
<title>Node13</title>
<g id="a_node13"><a xlink:title=" ">
<polygon fill="none" stroke="#bfbfbf" points="982.5,-11.5 982.5,-30.5 1095.5,-30.5 1095.5,-11.5 982.5,-11.5"/>
<text text-anchor="middle" x="1039" y="-18.5" font-family="Helvetica,sans-Serif" font-size="10.00">boost/geometry.hpp</text>
</a>
</g>
</g>
<!-- Node2&#45;&gt;Node13 -->
<g id="edge45" class="edge">
<title>Node2&#45;&gt;Node13</title>
<path fill="none" stroke="midnightblue" d="M1365.37,-226.18C1281.59,-222.25 1130.51,-201.77 1052,-109 1035.92,-90 1035.05,-59.92 1036.53,-40.58"/>
<polygon fill="midnightblue" stroke="midnightblue" points="1040.02,-40.9 1037.59,-30.59 1033.06,-40.17 1040.02,-40.9"/>
</g>
<!-- Node23 -->
<g id="node23" class="node">
<title>Node23</title>
<g id="a_node23"><a xlink:href="hdf5__py__general_8h.html" target="_top" xlink:title=" ">
<polygon fill="none" stroke="black" points="1300.5,-151 1300.5,-170 1407.5,-170 1407.5,-151 1300.5,-151"/>
<text text-anchor="middle" x="1354" y="-158" font-family="Helvetica,sans-Serif" font-size="10.00">hdf5_py_general.h</text>
</a>
</g>
</g>
<!-- Node2&#45;&gt;Node23 -->
<g id="edge35" class="edge">
<title>Node2&#45;&gt;Node23</title>
<path fill="none" stroke="midnightblue" d="M1409.59,-212.4C1398.19,-201.96 1382.67,-187.75 1370.93,-177"/>
<polygon fill="midnightblue" stroke="midnightblue" points="1373.24,-174.37 1363.5,-170.19 1368.51,-179.53 1373.24,-174.37"/>
</g>
<!-- Node26 -->
<g id="node26" class="node">
<title>Node26</title>
<g id="a_node26"><a xlink:title=" ">
<polygon fill="none" stroke="#bfbfbf" points="1426,-145.5 1426,-175.5 1566,-175.5 1566,-145.5 1426,-145.5"/>
<text text-anchor="start" x="1434" y="-163.5" font-family="Helvetica,sans-Serif" font-size="10.00">seerep_msgs/point_cloud</text>
<text text-anchor="middle" x="1496" y="-152.5" font-family="Helvetica,sans-Serif" font-size="10.00">_2.pb.h</text>
</a>
</g>
</g>
<!-- Node2&#45;&gt;Node26 -->
<g id="edge44" class="edge">
<title>Node2&#45;&gt;Node26</title>
<path fill="none" stroke="midnightblue" d="M1440.41,-212.4C1449.99,-203.62 1462.49,-192.18 1473.2,-182.37"/>
<polygon fill="midnightblue" stroke="midnightblue" points="1475.61,-184.91 1480.62,-175.58 1470.88,-179.75 1475.61,-184.91"/>
</g>
<!-- Node27 -->
<g id="node27" class="node">
<title>Node27</title>
<g id="a_node27"><a xlink:title=" ">
<polygon fill="none" stroke="#bfbfbf" points="1584.5,-145.5 1584.5,-175.5 1729.5,-175.5 1729.5,-145.5 1584.5,-145.5"/>
<text text-anchor="start" x="1592.5" y="-163.5" font-family="Helvetica,sans-Serif" font-size="10.00">pybind11_catkin/pybind11</text>
<text text-anchor="middle" x="1657" y="-152.5" font-family="Helvetica,sans-Serif" font-size="10.00">/numpy.h</text>
</a>
</g>
</g>
<!-- Node2&#45;&gt;Node27 -->
<g id="edge47" class="edge">
<title>Node2&#45;&gt;Node27</title>
<path fill="none" stroke="midnightblue" d="M1475.05,-212.48C1510.76,-202.47 1558.95,-188.97 1596.76,-178.38"/>
<polygon fill="midnightblue" stroke="midnightblue" points="1597.95,-181.68 1606.63,-175.61 1596.06,-174.94 1597.95,-181.68"/>
</g>
<!-- Node28 -->
<g id="node28" class="node">
<title>Node28</title>
<g id="a_node28"><a xlink:title=" ">
<polygon fill="none" stroke="#bfbfbf" points="1747.5,-145.5 1747.5,-175.5 1892.5,-175.5 1892.5,-145.5 1747.5,-145.5"/>
<text text-anchor="start" x="1755.5" y="-163.5" font-family="Helvetica,sans-Serif" font-size="10.00">pybind11_catkin/pybind11</text>
<text text-anchor="middle" x="1820" y="-152.5" font-family="Helvetica,sans-Serif" font-size="10.00">/pybind11.h</text>
</a>
</g>
</g>
<!-- Node2&#45;&gt;Node28 -->
<g id="edge48" class="edge">
<title>Node2&#45;&gt;Node28</title>
<path fill="none" stroke="midnightblue" d="M1484.8,-213.7C1487.91,-213.11 1490.99,-212.54 1494,-212 1599.17,-193.24 1628.66,-193.66 1737.12,-176.27"/>
<polygon fill="midnightblue" stroke="midnightblue" points="1737.85,-179.7 1747.16,-174.65 1736.73,-172.79 1737.85,-179.7"/>
</g>
<!-- Node29 -->
<g id="node29" class="node">
<title>Node29</title>
<g id="a_node29"><a xlink:title=" ">
<polygon fill="none" stroke="#bfbfbf" points="1910.5,-145.5 1910.5,-175.5 2055.5,-175.5 2055.5,-145.5 1910.5,-145.5"/>
<text text-anchor="start" x="1918.5" y="-163.5" font-family="Helvetica,sans-Serif" font-size="10.00">pybind11_catkin/pybind11</text>
<text text-anchor="middle" x="1983" y="-152.5" font-family="Helvetica,sans-Serif" font-size="10.00">/stl.h</text>
</a>
</g>
</g>
<!-- Node2&#45;&gt;Node29 -->
<g id="edge49" class="edge">
<title>Node2&#45;&gt;Node29</title>
<path fill="none" stroke="midnightblue" d="M1484.76,-213.49C1487.88,-212.95 1490.97,-212.45 1494,-212 1670.81,-185.72 1719.8,-199.54 1900.1,-176.18"/>
<polygon fill="midnightblue" stroke="midnightblue" points="1900.73,-179.62 1910.19,-174.85 1899.82,-172.68 1900.73,-179.62"/>
</g>
<!-- Node30 -->
<g id="node30" class="node">
<title>Node30</title>
<g id="a_node30"><a xlink:title=" ">
<polygon fill="none" stroke="#bfbfbf" points="2074,-151 2074,-170 2232,-170 2232,-151 2074,-151"/>
<text text-anchor="middle" x="2153" y="-158" font-family="Helvetica,sans-Serif" font-size="10.00">impl/hdf5_py_pointcloud.hpp</text>
</a>
</g>
</g>
<!-- Node2&#45;&gt;Node30 -->
<g id="edge50" class="edge">
<title>Node2&#45;&gt;Node30</title>
<path fill="none" stroke="midnightblue" d="M1484.75,-213.39C1487.87,-212.88 1490.97,-212.41 1494,-212 1745.97,-177.76 1812.34,-204.71 2065,-176 2075.26,-174.83 2086.15,-173.29 2096.64,-171.65"/>
<polygon fill="midnightblue" stroke="midnightblue" points="2097.22,-175.1 2106.54,-170.05 2096.11,-168.19 2097.22,-175.1"/>
</g>
<!-- Node4&#45;&gt;Node3 -->
<g id="edge4" class="edge">
<title>Node4&#45;&gt;Node3</title>
<path fill="none" stroke="midnightblue" d="M720.44,-157.94C847.53,-154.17 1125.88,-142.28 1215,-109 1237.07,-100.76 1235.81,-85.93 1258,-78 1380.45,-34.26 1714.13,-65.56 1842,-42 1852.48,-40.07 1863.64,-36.96 1873.66,-33.77"/>
<polygon fill="midnightblue" stroke="midnightblue" points="1874.85,-37.06 1883.23,-30.59 1872.64,-30.42 1874.85,-37.06"/>
</g>
<!-- Node5 -->
<g id="node5" class="node">
<title>Node5</title>
<g id="a_node5"><a xlink:href="hdf5__core__datatype__interface_8h.html" target="_top" xlink:title=" ">
<polygon fill="none" stroke="black" points="192.5,-78.5 192.5,-108.5 305.5,-108.5 305.5,-78.5 192.5,-78.5"/>
<text text-anchor="start" x="200.5" y="-96.5" font-family="Helvetica,sans-Serif" font-size="10.00">hdf5_core_datatype</text>
<text text-anchor="middle" x="249" y="-85.5" font-family="Helvetica,sans-Serif" font-size="10.00">_interface.h</text>
</a>
</g>
</g>
<!-- Node4&#45;&gt;Node5 -->
<g id="edge5" class="edge">
<title>Node4&#45;&gt;Node5</title>
<path fill="none" stroke="midnightblue" d="M591.96,-149.27C516.65,-137.25 392.25,-117.38 315.78,-105.17"/>
<polygon fill="midnightblue" stroke="midnightblue" points="316.21,-101.69 305.78,-103.57 315.1,-108.6 316.21,-101.69"/>
</g>
<!-- Node6 -->
<g id="node6" class="node">
<title>Node6</title>
<g id="a_node6"><a xlink:title=" ">
<polygon fill="none" stroke="#bfbfbf" points="74.5,-6 74.5,-36 195.5,-36 195.5,-6 74.5,-6"/>
<text text-anchor="start" x="82.5" y="-24" font-family="Helvetica,sans-Serif" font-size="10.00">seerep_msgs/dataset</text>
<text text-anchor="middle" x="135" y="-13" font-family="Helvetica,sans-Serif" font-size="10.00">_indexable.h</text>
</a>
</g>
</g>
<!-- Node4&#45;&gt;Node6 -->
<g id="edge27" class="edge">
<title>Node4&#45;&gt;Node6</title>
<path fill="none" stroke="midnightblue" d="M591.82,-159.82C478.45,-159.24 248.52,-152.54 183,-109 161.1,-94.45 148.26,-66.38 141.46,-46.05"/>
<polygon fill="midnightblue" stroke="midnightblue" points="144.72,-44.77 138.44,-36.24 138.04,-46.83 144.72,-44.77"/>
</g>
<!-- Node7 -->
<g id="node7" class="node">
<title>Node7</title>
<g id="a_node7"><a xlink:title=" ">
<polygon fill="none" stroke="#bfbfbf" points="213.5,-11.5 213.5,-30.5 326.5,-30.5 326.5,-11.5 213.5,-11.5"/>
<text text-anchor="middle" x="270" y="-18.5" font-family="Helvetica,sans-Serif" font-size="10.00">boost/uuid/uuid.hpp</text>
</a>
</g>
</g>
<!-- Node4&#45;&gt;Node7 -->
<g id="edge32" class="edge">
<title>Node4&#45;&gt;Node7</title>
<path fill="none" stroke="midnightblue" d="M613.22,-145.46C583.15,-135.5 542.02,-121.7 506,-109 432.87,-83.22 347.65,-51.34 302.29,-34.23"/>
<polygon fill="midnightblue" stroke="midnightblue" points="303.3,-30.87 292.7,-30.61 300.82,-37.42 303.3,-30.87"/>
</g>
<!-- Node4&#45;&gt;Node8 -->
<g id="edge29" class="edge">
<title>Node4&#45;&gt;Node8</title>
<path fill="none" stroke="midnightblue" d="M591.71,-159.3C465.74,-157.99 191.49,-150.32 108,-109 76.57,-93.44 51.44,-59.87 38.22,-39.28"/>
<polygon fill="midnightblue" stroke="midnightblue" points="41.09,-37.27 32.85,-30.6 35.13,-40.95 41.09,-37.27"/>
</g>
<!-- Node9 -->
<g id="node9" class="node">
<title>Node9</title>
<g id="a_node9"><a xlink:href="hdf5__core__general_8h.html" target="_top" xlink:title=" ">
<polygon fill="none" stroke="black" points="1090,-84 1090,-103 1206,-103 1206,-84 1090,-84"/>
<text text-anchor="middle" x="1148" y="-91" font-family="Helvetica,sans-Serif" font-size="10.00">hdf5_core_general.h</text>
</a>
</g>
</g>
<!-- Node4&#45;&gt;Node9 -->
<g id="edge9" class="edge">
<title>Node4&#45;&gt;Node9</title>
<path fill="none" stroke="midnightblue" d="M720.07,-151.04C812.97,-138.76 984.36,-116.12 1079.63,-103.53"/>
<polygon fill="midnightblue" stroke="midnightblue" points="1080.27,-106.98 1089.73,-102.2 1079.36,-100.04 1080.27,-106.98"/>
</g>
<!-- Node4&#45;&gt;Node13 -->
<g id="edge28" class="edge">
<title>Node4&#45;&gt;Node13</title>
<path fill="none" stroke="midnightblue" d="M695.19,-145.43C770.6,-118.36 934.69,-59.45 1005.44,-34.05"/>
<polygon fill="midnightblue" stroke="midnightblue" points="1006.95,-37.23 1015.17,-30.55 1004.58,-30.64 1006.95,-37.23"/>
</g>
<!-- Node18 -->
<g id="node18" class="node">
<title>Node18</title>
<g id="a_node18"><a xlink:title=" ">
<polygon fill="none" stroke="#bfbfbf" points="821.5,-11.5 821.5,-30.5 964.5,-30.5 964.5,-11.5 821.5,-11.5"/>
<text text-anchor="middle" x="893" y="-18.5" font-family="Helvetica,sans-Serif" font-size="10.00">boost/functional/hash.hpp</text>
</a>
</g>
</g>
<!-- Node4&#45;&gt;Node18 -->
<g id="edge30" class="edge">
<title>Node4&#45;&gt;Node18</title>
<path fill="none" stroke="midnightblue" d="M680.47,-145.3C726.29,-118.72 824.47,-61.76 869.52,-35.62"/>
<polygon fill="midnightblue" stroke="midnightblue" points="871.4,-38.58 878.29,-30.53 867.88,-32.52 871.4,-38.58"/>
</g>
<!-- Node19 -->
<g id="node19" class="node">
<title>Node19</title>
<g id="a_node19"><a xlink:title=" ">
<polygon fill="none" stroke="#bfbfbf" points="344.5,-11.5 344.5,-30.5 469.5,-30.5 469.5,-11.5 344.5,-11.5"/>
<text text-anchor="middle" x="407" y="-18.5" font-family="Helvetica,sans-Serif" font-size="10.00">boost/lexical_cast.hpp</text>
</a>
</g>
</g>
<!-- Node4&#45;&gt;Node19 -->
<g id="edge31" class="edge">
<title>Node4&#45;&gt;Node19</title>
<path fill="none" stroke="midnightblue" d="M630.29,-145.3C582.05,-118.66 478.57,-61.52 431.37,-35.46"/>
<polygon fill="midnightblue" stroke="midnightblue" points="432.9,-32.3 422.45,-30.53 429.52,-38.43 432.9,-32.3"/>
</g>
<!-- Node20 -->
<g id="node20" class="node">
<title>Node20</title>
<g id="a_node20"><a xlink:title=" ">
<polygon fill="none" stroke="#bfbfbf" points="488,-11.5 488,-30.5 658,-30.5 658,-11.5 488,-11.5"/>
<text text-anchor="middle" x="573" y="-18.5" font-family="Helvetica,sans-Serif" font-size="10.00">boost/uuid/uuid_generators.hpp</text>
</a>
</g>
</g>
<!-- Node4&#45;&gt;Node20 -->
<g id="edge33" class="edge">
<title>Node4&#45;&gt;Node20</title>
<path fill="none" stroke="midnightblue" d="M647.43,-145.3C632.16,-120 600.28,-67.2 583.64,-39.62"/>
<polygon fill="midnightblue" stroke="midnightblue" points="586.42,-37.45 578.25,-30.7 580.42,-41.07 586.42,-37.45"/>
</g>
<!-- Node21 -->
<g id="node21" class="node">
<title>Node21</title>
<g id="a_node21"><a xlink:title=" ">
<polygon fill="none" stroke="#bfbfbf" points="676.5,-11.5 676.5,-30.5 803.5,-30.5 803.5,-11.5 676.5,-11.5"/>
<text text-anchor="middle" x="740" y="-18.5" font-family="Helvetica,sans-Serif" font-size="10.00">boost/uuid/uuid_io.hpp</text>
</a>
</g>
</g>
<!-- Node4&#45;&gt;Node21 -->
<g id="edge34" class="edge">
<title>Node4&#45;&gt;Node21</title>
<path fill="none" stroke="midnightblue" d="M664.67,-145.3C680.2,-119.89 712.67,-66.73 729.46,-39.26"/>
<polygon fill="midnightblue" stroke="midnightblue" points="732.46,-41.06 734.68,-30.7 726.48,-37.41 732.46,-41.06"/>
</g>
<!-- Node5&#45;&gt;Node6 -->
<g id="edge6" class="edge">
<title>Node5&#45;&gt;Node6</title>
<path fill="none" stroke="midnightblue" d="M226.2,-78.4C209.04,-67.79 185.31,-53.11 166.36,-41.39"/>
<polygon fill="midnightblue" stroke="midnightblue" points="168.1,-38.36 157.76,-36.07 164.42,-44.31 168.1,-38.36"/>
</g>
<!-- Node5&#45;&gt;Node7 -->
<g id="edge7" class="edge">
<title>Node5&#45;&gt;Node7</title>
<path fill="none" stroke="midnightblue" d="M253.25,-78.23C256.48,-67.39 260.95,-52.38 264.46,-40.6"/>
<polygon fill="midnightblue" stroke="midnightblue" points="267.85,-41.48 267.35,-30.89 261.14,-39.48 267.85,-41.48"/>
</g>
<!-- Node5&#45;&gt;Node8 -->
<g id="edge8" class="edge">
<title>Node5&#45;&gt;Node8</title>
<path fill="none" stroke="midnightblue" d="M192.35,-80.48C155.4,-71.79 106.5,-58.66 65,-42 60.33,-40.13 55.5,-37.81 50.93,-35.43"/>
<polygon fill="midnightblue" stroke="midnightblue" points="52.49,-32.3 42.04,-30.57 49.13,-38.44 52.49,-32.3"/>
</g>
<!-- Node9&#45;&gt;Node3 -->
<g id="edge10" class="edge">
<title>Node9&#45;&gt;Node3</title>
<path fill="none" stroke="midnightblue" d="M1185.2,-83.97C1196.34,-81.7 1208.62,-79.47 1220,-78 1494.63,-42.58 1569.58,-91.67 1842,-42 1852.56,-40.07 1863.83,-36.94 1873.91,-33.72"/>
<polygon fill="midnightblue" stroke="midnightblue" points="1875.15,-36.99 1883.53,-30.51 1872.94,-30.35 1875.15,-36.99"/>
</g>
<!-- Node9&#45;&gt;Node6 -->
<g id="edge12" class="edge">
<title>Node9&#45;&gt;Node6</title>
<path fill="none" stroke="midnightblue" d="M1089.76,-91.13C911.61,-86.66 375.73,-71.09 204,-42 198.62,-41.09 193.06,-39.9 187.55,-38.57"/>
<polygon fill="midnightblue" stroke="midnightblue" points="188.27,-35.14 177.71,-36.02 186.52,-41.92 188.27,-35.14"/>
</g>
<!-- Node9&#45;&gt;Node7 -->
<g id="edge23" class="edge">
<title>Node9&#45;&gt;Node7</title>
<path fill="none" stroke="midnightblue" d="M1089.98,-90.68C929.19,-85.35 480.21,-68.46 335,-42 324.37,-40.06 313.04,-36.96 302.86,-33.76"/>
<polygon fill="midnightblue" stroke="midnightblue" points="303.73,-30.36 293.14,-30.58 301.55,-37.02 303.73,-30.36"/>
</g>
<!-- Node9&#45;&gt;Node8 -->
<g id="edge17" class="edge">
<title>Node9&#45;&gt;Node8</title>
<path fill="none" stroke="midnightblue" d="M1089.67,-91.3C878.87,-86.76 163.78,-69.45 65,-42 59.68,-40.52 54.28,-38.17 49.31,-35.6"/>
<polygon fill="midnightblue" stroke="midnightblue" points="50.83,-32.44 40.41,-30.53 47.37,-38.52 50.83,-32.44"/>
</g>
<!-- Node10 -->
<g id="node10" class="node">
<title>Node10</title>
<g id="a_node10"><a xlink:title=" ">
<polygon fill="none" stroke="#bfbfbf" points="1371.5,-11.5 1371.5,-30.5 1488.5,-30.5 1488.5,-11.5 1371.5,-11.5"/>
<text text-anchor="middle" x="1430" y="-18.5" font-family="Helvetica,sans-Serif" font-size="10.00">seerep_msgs/aabb.h</text>
</a>
</g>
</g>
<!-- Node9&#45;&gt;Node10 -->
<g id="edge11" class="edge">
<title>Node9&#45;&gt;Node10</title>
<path fill="none" stroke="midnightblue" d="M1187.21,-83.92C1230.25,-74.34 1301.3,-58.08 1362,-42 1371.99,-39.35 1382.75,-36.29 1392.69,-33.37"/>
<polygon fill="midnightblue" stroke="midnightblue" points="1393.71,-36.72 1402.3,-30.52 1391.72,-30.01 1393.71,-36.72"/>
</g>
<!-- Node11 -->
<g id="node11" class="node">
<title>Node11</title>
<g id="a_node11"><a xlink:title=" ">
<polygon fill="none" stroke="#bfbfbf" points="1507,-6 1507,-36 1633,-36 1633,-6 1507,-6"/>
<text text-anchor="start" x="1515" y="-24" font-family="Helvetica,sans-Serif" font-size="10.00">seerep_msgs/geodetic</text>
<text text-anchor="middle" x="1570" y="-13" font-family="Helvetica,sans-Serif" font-size="10.00">_coordinates.h</text>
</a>
</g>
</g>
<!-- Node9&#45;&gt;Node11 -->
<g id="edge13" class="edge">
<title>Node9&#45;&gt;Node11</title>
<path fill="none" stroke="midnightblue" d="M1187.9,-83.95C1198.32,-81.86 1209.56,-79.73 1220,-78 1342.92,-57.69 1375.89,-66.73 1498,-42 1502.96,-41 1508.08,-39.83 1513.19,-38.58"/>
<polygon fill="midnightblue" stroke="midnightblue" points="1514.15,-41.95 1522.98,-36.09 1512.43,-35.17 1514.15,-41.95"/>
</g>
<!-- Node12 -->
<g id="node12" class="node">
<title>Node12</title>
<g id="a_node12"><a xlink:title=" ">
<polygon fill="none" stroke="#bfbfbf" points="1651,-0.5 1651,-41.5 1767,-41.5 1767,-0.5 1651,-0.5"/>
<text text-anchor="start" x="1659" y="-29.5" font-family="Helvetica,sans-Serif" font-size="10.00">seerep_msgs/labels</text>
<text text-anchor="start" x="1659" y="-18.5" font-family="Helvetica,sans-Serif" font-size="10.00">_with_instance_with</text>
<text text-anchor="middle" x="1709" y="-7.5" font-family="Helvetica,sans-Serif" font-size="10.00">_category.h</text>
</a>
</g>
</g>
<!-- Node9&#45;&gt;Node12 -->
<g id="edge14" class="edge">
<title>Node9&#45;&gt;Node12</title>
<path fill="none" stroke="midnightblue" d="M1186.35,-83.94C1197.19,-81.75 1209.02,-79.57 1220,-78 1403.07,-51.84 1455.24,-76.22 1640.63,-42.06"/>
<polygon fill="midnightblue" stroke="midnightblue" points="1641.52,-45.45 1650.71,-40.17 1640.23,-38.57 1641.52,-45.45"/>
</g>
<!-- Node9&#45;&gt;Node13 -->
<g id="edge15" class="edge">
<title>Node9&#45;&gt;Node13</title>
<path fill="none" stroke="midnightblue" d="M1134.63,-83.86C1116.25,-71.96 1082.93,-50.41 1060.88,-36.15"/>
<polygon fill="midnightblue" stroke="midnightblue" points="1062.77,-33.21 1052.47,-30.72 1058.97,-39.09 1062.77,-33.21"/>
</g>
<!-- Node14 -->
<g id="node14" class="node">
<title>Node14</title>
<g id="a_node14"><a xlink:title=" ">
<polygon fill="none" stroke="#bfbfbf" points="1785,-11.5 1785,-30.5 1833,-30.5 1833,-11.5 1785,-11.5"/>
<text text-anchor="middle" x="1809" y="-18.5" font-family="Helvetica,sans-Serif" font-size="10.00">mutex</text>
</a>
</g>
</g>
<!-- Node9&#45;&gt;Node14 -->
<g id="edge16" class="edge">
<title>Node9&#45;&gt;Node14</title>
<path fill="none" stroke="midnightblue" d="M1185.58,-83.94C1196.62,-81.7 1208.75,-79.49 1220,-78 1465.48,-45.48 1539.78,-116.3 1776,-42 1780.51,-40.58 1785.04,-38.43 1789.23,-36.05"/>
<polygon fill="midnightblue" stroke="midnightblue" points="1791.15,-38.98 1797.75,-30.69 1787.42,-33.05 1791.15,-38.98"/>
</g>
<!-- Node15 -->
<g id="node15" class="node">
<title>Node15</title>
<g id="a_node15"><a xlink:title=" ">
<polygon fill="none" stroke="#bfbfbf" points="1113.5,-11.5 1113.5,-30.5 1182.5,-30.5 1182.5,-11.5 1113.5,-11.5"/>
<text text-anchor="middle" x="1148" y="-18.5" font-family="Helvetica,sans-Serif" font-size="10.00">type_traits</text>
</a>
</g>
</g>
<!-- Node9&#45;&gt;Node15 -->
<g id="edge18" class="edge">
<title>Node9&#45;&gt;Node15</title>
<path fill="none" stroke="midnightblue" d="M1148,-83.86C1148,-73.18 1148,-54.72 1148,-40.73"/>
<polygon fill="midnightblue" stroke="midnightblue" points="1151.5,-40.72 1148,-30.72 1144.5,-40.72 1151.5,-40.72"/>
</g>
<!-- Node16 -->
<g id="node16" class="node">
<title>Node16</title>
<g id="a_node16"><a xlink:title=" ">
<polygon fill="none" stroke="#bfbfbf" points="1979.5,-6 1979.5,-36 2124.5,-36 2124.5,-6 1979.5,-6"/>
<text text-anchor="start" x="1987.5" y="-24" font-family="Helvetica,sans-Serif" font-size="10.00">boost/log/sources/severity</text>
<text text-anchor="middle" x="2052" y="-13" font-family="Helvetica,sans-Serif" font-size="10.00">_logger.hpp</text>
</a>
</g>
</g>
<!-- Node9&#45;&gt;Node16 -->
<g id="edge19" class="edge">
<title>Node9&#45;&gt;Node16</title>
<path fill="none" stroke="midnightblue" d="M1206.2,-88.35C1248.57,-85.36 1307.33,-81.3 1359,-78 1630.47,-60.67 1700.99,-82.39 1970,-42 1976.72,-40.99 1983.69,-39.69 1990.61,-38.24"/>
<polygon fill="midnightblue" stroke="midnightblue" points="1991.65,-41.59 2000.67,-36.02 1990.15,-34.76 1991.65,-41.59"/>
</g>
<!-- Node17 -->
<g id="node17" class="node">
<title>Node17</title>
<g id="a_node17"><a xlink:title=" ">
<polygon fill="none" stroke="#bfbfbf" points="2143,-11.5 2143,-30.5 2257,-30.5 2257,-11.5 2143,-11.5"/>
<text text-anchor="middle" x="2200" y="-18.5" font-family="Helvetica,sans-Serif" font-size="10.00">boost/log/trivial.hpp</text>
</a>
</g>
</g>
<!-- Node9&#45;&gt;Node17 -->
<g id="edge20" class="edge">
<title>Node9&#45;&gt;Node17</title>
<path fill="none" stroke="midnightblue" d="M1206.1,-88.96C1256.56,-85.93 1331.6,-81.5 1397,-78 1724.48,-60.47 1810.87,-97.97 2134,-42 2145,-40.1 2156.73,-36.93 2167.22,-33.67"/>
<polygon fill="midnightblue" stroke="midnightblue" points="2168.39,-36.97 2176.82,-30.55 2166.23,-30.31 2168.39,-36.97"/>
</g>
<!-- Node9&#45;&gt;Node18 -->
<g id="edge21" class="edge">
<title>Node9&#45;&gt;Node18</title>
<path fill="none" stroke="midnightblue" d="M1117.24,-84C1071.29,-71.29 984.68,-47.35 933.59,-33.22"/>
<polygon fill="midnightblue" stroke="midnightblue" points="934.44,-29.83 923.87,-30.53 932.57,-36.57 934.44,-29.83"/>
</g>
<!-- Node9&#45;&gt;Node19 -->
<g id="edge22" class="edge">
<title>Node9&#45;&gt;Node19</title>
<path fill="none" stroke="midnightblue" d="M1089.81,-91.92C973.09,-89.93 702.45,-81.08 479,-42 467.04,-39.91 454.2,-36.67 442.73,-33.41"/>
<polygon fill="midnightblue" stroke="midnightblue" points="443.63,-30.03 433.05,-30.56 441.66,-36.74 443.63,-30.03"/>
</g>
<!-- Node9&#45;&gt;Node20 -->
<g id="edge24" class="edge">
<title>Node9&#45;&gt;Node20</title>
<path fill="none" stroke="midnightblue" d="M1089.99,-88.39C999.35,-81.52 818.76,-66.04 667,-42 651.33,-39.52 634.34,-36.12 619.17,-32.83"/>
<polygon fill="midnightblue" stroke="midnightblue" points="619.51,-29.32 608.99,-30.58 618,-36.16 619.51,-29.32"/>
</g>
<!-- Node9&#45;&gt;Node21 -->
<g id="edge25" class="edge">
<title>Node9&#45;&gt;Node21</title>
<path fill="none" stroke="midnightblue" d="M1089.83,-85.84C1022.72,-77.67 909.24,-62.36 813,-42 801.58,-39.58 789.3,-36.44 778.13,-33.36"/>
<polygon fill="midnightblue" stroke="midnightblue" points="778.81,-29.91 768.24,-30.57 776.91,-36.65 778.81,-29.91"/>
</g>
<!-- Node22 -->
<g id="node22" class="node">
<title>Node22</title>
<g id="a_node22"><a xlink:title=" ">
<polygon fill="none" stroke="#bfbfbf" points="1201,-11.5 1201,-30.5 1353,-30.5 1353,-11.5 1201,-11.5"/>
<text text-anchor="middle" x="1277" y="-18.5" font-family="Helvetica,sans-Serif" font-size="10.00">impl/hdf5_core_general.hpp</text>
</a>
</g>
</g>
<!-- Node9&#45;&gt;Node22 -->
<g id="edge26" class="edge">
<title>Node9&#45;&gt;Node22</title>
<path fill="none" stroke="midnightblue" d="M1163.56,-84C1185.64,-71.93 1226.29,-49.71 1252.46,-35.41"/>
<polygon fill="midnightblue" stroke="midnightblue" points="1254.29,-38.4 1261.38,-30.53 1250.93,-32.26 1254.29,-38.4"/>
</g>
<!-- Node23&#45;&gt;Node3 -->
<g id="edge36" class="edge">
<title>Node23&#45;&gt;Node3</title>
<path fill="none" stroke="midnightblue" d="M1351.34,-150.92C1346.77,-134.28 1339.68,-97.57 1359,-78 1396.8,-39.7 1789.14,-52.09 1842,-42 1852.46,-40 1863.62,-36.88 1873.64,-33.69"/>
<polygon fill="midnightblue" stroke="midnightblue" points="1874.83,-36.98 1883.22,-30.51 1872.62,-30.34 1874.83,-36.98"/>
</g>
<!-- Node23&#45;&gt;Node8 -->
<g id="edge40" class="edge">
<title>Node23&#45;&gt;Node8</title>
<path fill="none" stroke="midnightblue" d="M1300.38,-158.65C1085.26,-155.05 291.13,-139.78 183,-109 129.7,-93.83 74.91,-57.14 46.95,-36.58"/>
<polygon fill="midnightblue" stroke="midnightblue" points="48.95,-33.71 38.85,-30.52 44.76,-39.31 48.95,-33.71"/>
</g>
<!-- Node23&#45;&gt;Node9 -->
<g id="edge37" class="edge">
<title>Node23&#45;&gt;Node9</title>
<path fill="none" stroke="midnightblue" d="M1326.64,-150.87C1290.14,-139.35 1225.4,-118.92 1184.69,-106.08"/>
<polygon fill="midnightblue" stroke="midnightblue" points="1185.73,-102.74 1175.14,-103.06 1183.62,-109.41 1185.73,-102.74"/>
</g>
<!-- Node23&#45;&gt;Node13 -->
<g id="edge38" class="edge">
<title>Node23&#45;&gt;Node13</title>
<path fill="none" stroke="midnightblue" d="M1300.26,-155.3C1230.78,-148.91 1114.67,-134.7 1081,-109 1058.84,-92.08 1047.75,-60.46 1042.7,-40.35"/>
<polygon fill="midnightblue" stroke="midnightblue" points="1046.1,-39.52 1040.48,-30.54 1039.27,-41.06 1046.1,-39.52"/>
</g>
<!-- Node23&#45;&gt;Node16 -->
<g id="edge41" class="edge">
<title>Node23&#45;&gt;Node16</title>
<path fill="none" stroke="midnightblue" d="M1355.64,-150.97C1359.45,-133.76 1370.67,-95.03 1397,-78 1450.57,-43.36 1906.93,-51.6 1970,-42 1976.62,-40.99 1983.49,-39.71 1990.3,-38.28"/>
<polygon fill="midnightblue" stroke="midnightblue" points="1991.21,-41.66 2000.22,-36.09 1989.7,-34.83 1991.21,-41.66"/>
</g>
<!-- Node23&#45;&gt;Node17 -->
<g id="edge42" class="edge">
<title>Node23&#45;&gt;Node17</title>
<path fill="none" stroke="midnightblue" d="M1361.28,-151C1378.53,-130.96 1421.1,-82.14 1430,-78 1572.01,-11.89 1979.68,-68.91 2134,-42 2144.99,-40.08 2156.73,-36.91 2167.21,-33.65"/>
<polygon fill="midnightblue" stroke="midnightblue" points="2168.38,-36.95 2176.81,-30.54 2166.22,-30.29 2168.38,-36.95"/>
</g>
<!-- Node24 -->
<g id="node24" class="node">
<title>Node24</title>
<g id="a_node24"><a xlink:title=" ">
<polygon fill="none" stroke="#bfbfbf" points="1439,-84 1439,-103 1507,-103 1507,-84 1439,-84"/>
<text text-anchor="middle" x="1473" y="-91" font-family="Helvetica,sans-Serif" font-size="10.00">filesystem</text>
</a>
</g>
</g>
<!-- Node23&#45;&gt;Node24 -->
<g id="edge39" class="edge">
<title>Node23&#45;&gt;Node24</title>
<path fill="none" stroke="midnightblue" d="M1370.05,-150.73C1390.12,-139.77 1424.7,-120.88 1448.19,-108.05"/>
<polygon fill="midnightblue" stroke="midnightblue" points="1450.11,-110.99 1457.21,-103.13 1446.75,-104.85 1450.11,-110.99"/>
</g>
<!-- Node25 -->
<g id="node25" class="node">
<title>Node25</title>
<g id="a_node25"><a xlink:title=" ">
<polygon fill="none" stroke="#bfbfbf" points="1525.5,-84 1525.5,-103 1668.5,-103 1668.5,-84 1525.5,-84"/>
<text text-anchor="middle" x="1597" y="-91" font-family="Helvetica,sans-Serif" font-size="10.00">impl/hdf5_py_general.hpp</text>
</a>
</g>
</g>
<!-- Node23&#45;&gt;Node25 -->
<g id="edge43" class="edge">
<title>Node23&#45;&gt;Node25</title>
<path fill="none" stroke="midnightblue" d="M1386.02,-150.94C1429.45,-139.32 1507.12,-118.54 1555.14,-105.7"/>
<polygon fill="midnightblue" stroke="midnightblue" points="1556.16,-109.05 1564.91,-103.08 1554.35,-102.29 1556.16,-109.05"/>
</g>
</g>
</svg>
