<?xml version="1.0" encoding="UTF-8" standalone="no"?>
<!DOCTYPE svg PUBLIC "-//W3C//DTD SVG 1.1//EN"
 "http://www.w3.org/Graphics/SVG/1.1/DTD/svg11.dtd">
<!-- Generated by graphviz version 2.43.0 (0)
 -->
<!-- Title: seerep&#45;hdf5/seerep&#45;hdf5&#45;fb/include/seerep&#45;hdf5&#45;fb/hdf5&#45;fb&#45;point&#45;cloud2&#45;iterator.h Pages: 1 -->
<svg width="701pt" height="128pt"
 viewBox="0.00 0.00 700.50 128.00" xmlns="http://www.w3.org/2000/svg" xmlns:xlink="http://www.w3.org/1999/xlink">
<g id="graph0" class="graph" transform="scale(1 1) rotate(0) translate(4 124)">
<title>seerep&#45;hdf5/seerep&#45;hdf5&#45;fb/include/seerep&#45;hdf5&#45;fb/hdf5&#45;fb&#45;point&#45;cloud2&#45;iterator.h</title>
<!-- Node1 -->
<g id="node1" class="node">
<title>Node1</title>
<g id="a_node1"><a xlink:title=" ">
<polygon fill="#bfbfbf" stroke="black" points="355,-67.5 355,-119.5 485,-119.5 485,-67.5 355,-67.5"/>
<text text-anchor="start" x="363" y="-107.5" font-family="Helvetica,sans-Serif" font-size="10.00">seerep&#45;hdf5/seerep</text>
<text text-anchor="start" x="363" y="-96.5" font-family="Helvetica,sans-Serif" font-size="10.00">&#45;hdf5&#45;fb/include/seerep</text>
<text text-anchor="start" x="363" y="-85.5" font-family="Helvetica,sans-Serif" font-size="10.00">&#45;hdf5&#45;fb/hdf5&#45;fb&#45;point</text>
<text text-anchor="middle" x="420" y="-74.5" font-family="Helvetica,sans-Serif" font-size="10.00">&#45;cloud2&#45;iterator.h</text>
</a>
</g>
</g>
<!-- Node2 -->
<g id="node2" class="node">
<title>Node2</title>
<g id="a_node2"><a xlink:title=" ">
<polygon fill="none" stroke="#bfbfbf" points="0,-6 0,-25 124,-25 124,-6 0,-6"/>
<text text-anchor="middle" x="62" y="-13" font-family="Helvetica,sans-Serif" font-size="10.00">flatbuffers/reflection.h</text>
</a>
</g>
</g>
<!-- Node1&#45;&gt;Node2 -->
<g id="edge1" class="edge">
<title>Node1&#45;&gt;Node2</title>
<path fill="none" stroke="midnightblue" d="M354.75,-78.65C284.93,-63.83 175.67,-40.63 112.24,-27.16"/>
<polygon fill="midnightblue" stroke="midnightblue" points="112.59,-23.66 102.08,-25.01 111.14,-30.51 112.59,-23.66"/>
</g>
<!-- Node3 -->
<g id="node3" class="node">
<title>Node3</title>
<g id="a_node3"><a xlink:title=" ">
<polygon fill="none" stroke="#bfbfbf" points="142.5,-0.5 142.5,-30.5 281.5,-30.5 281.5,-0.5 142.5,-0.5"/>
<text text-anchor="start" x="150.5" y="-18.5" font-family="Helvetica,sans-Serif" font-size="10.00">seerep&#45;msgs/point_cloud</text>
<text text-anchor="middle" x="212" y="-7.5" font-family="Helvetica,sans-Serif" font-size="10.00">_2_generated.h</text>
</a>
</g>
</g>
<!-- Node1&#45;&gt;Node3 -->
<g id="edge2" class="edge">
<title>Node1&#45;&gt;Node3</title>
<path fill="none" stroke="midnightblue" d="M354.76,-68.66C324.06,-57.45 288.12,-44.31 259.97,-34.03"/>
<polygon fill="midnightblue" stroke="midnightblue" points="260.96,-30.66 250.36,-30.52 258.55,-37.24 260.96,-30.66"/>
</g>
<!-- Node4 -->
<g id="node4" class="node">
<title>Node4</title>
<g id="a_node4"><a xlink:title=" ">
<polygon fill="none" stroke="#bfbfbf" points="300,-0.5 300,-30.5 434,-30.5 434,-0.5 300,-0.5"/>
<text text-anchor="start" x="308" y="-18.5" font-family="Helvetica,sans-Serif" font-size="10.00">seerep&#45;msgs/point_field</text>
<text text-anchor="middle" x="367" y="-7.5" font-family="Helvetica,sans-Serif" font-size="10.00">_generated.h</text>
</a>
</g>
</g>
<!-- Node1&#45;&gt;Node4 -->
<g id="edge3" class="edge">
<title>Node1&#45;&gt;Node4</title>
<path fill="none" stroke="midnightblue" d="M402.35,-67.19C396.03,-58.13 388.94,-47.97 382.79,-39.14"/>
<polygon fill="midnightblue" stroke="midnightblue" points="385.59,-37.05 377,-30.85 379.85,-41.05 385.59,-37.05"/>
</g>
<!-- Node5 -->
<g id="node5" class="node">
<title>Node5</title>
<g id="a_node5"><a xlink:title=" ">
<polygon fill="none" stroke="#bfbfbf" points="452,-6 452,-25 496,-25 496,-6 452,-6"/>
<text text-anchor="middle" x="474" y="-13" font-family="Helvetica,sans-Serif" font-size="10.00">string</text>
</a>
</g>
</g>
<!-- Node1&#45;&gt;Node5 -->
<g id="edge4" class="edge">
<title>Node1&#45;&gt;Node5</title>
<path fill="none" stroke="midnightblue" d="M437.98,-67.19C445.87,-56.08 454.93,-43.34 461.98,-33.41"/>
<polygon fill="midnightblue" stroke="midnightblue" points="464.87,-35.39 467.81,-25.21 459.17,-31.33 464.87,-35.39"/>
</g>
<!-- Node6 -->
<g id="node6" class="node">
<title>Node6</title>
<g id="a_node6"><a xlink:title=" ">
<polygon fill="none" stroke="#bfbfbf" points="514.5,-6 514.5,-25 561.5,-25 561.5,-6 514.5,-6"/>
<text text-anchor="middle" x="538" y="-13" font-family="Helvetica,sans-Serif" font-size="10.00">vector</text>
</a>
</g>
</g>
<!-- Node1&#45;&gt;Node6 -->
<g id="edge5" class="edge">
<title>Node1&#45;&gt;Node6</title>
<path fill="none" stroke="midnightblue" d="M458.96,-67.4C477.93,-55.19 500.03,-40.95 516.04,-30.65"/>
<polygon fill="midnightblue" stroke="midnightblue" points="518.17,-33.44 524.68,-25.08 514.38,-27.55 518.17,-33.44"/>
</g>
<!-- Node7 -->
<g id="node7" class="node">
<title>Node7</title>
<g id="a_node7"><a xlink:title=" ">
<polygon fill="none" stroke="#bfbfbf" points="579.5,-0.5 579.5,-30.5 692.5,-30.5 692.5,-0.5 579.5,-0.5"/>
<text text-anchor="start" x="587.5" y="-18.5" font-family="Helvetica,sans-Serif" font-size="10.00">impl/hdf5&#45;fb&#45;point</text>
<text text-anchor="middle" x="636" y="-7.5" font-family="Helvetica,sans-Serif" font-size="10.00">&#45;cloud2&#45;iterator.hpp</text>
</a>
</g>
</g>
<!-- Node1&#45;&gt;Node7 -->
<g id="edge6" class="edge">
<title>Node1&#45;&gt;Node7</title>
<path fill="none" stroke="midnightblue" d="M485.1,-69.59C517.72,-58.12 556.57,-44.45 586.68,-33.85"/>
<polygon fill="midnightblue" stroke="midnightblue" points="587.86,-37.15 596.13,-30.53 585.54,-30.55 587.86,-37.15"/>
</g>
</g>
</svg>
