<?xml version="1.0" encoding="UTF-8" standalone="no"?>
<!DOCTYPE svg PUBLIC "-//W3C//DTD SVG 1.1//EN"
 "http://www.w3.org/Graphics/SVG/1.1/DTD/svg11.dtd">
<!-- Generated by graphviz version 2.43.0 (0)
 -->
<!-- Title: seerep_hdf5/seerep_hdf5_pb/include/seerep_hdf5_pb/hdf5_pb_image.h Pages: 1 -->
<svg width="2486pt" height="385pt"
 viewBox="0.00 0.00 2486.00 385.00" xmlns="http://www.w3.org/2000/svg" xmlns:xlink="http://www.w3.org/1999/xlink">
<g id="graph0" class="graph" transform="scale(1 1) rotate(0) translate(4 381)">
<title>seerep_hdf5/seerep_hdf5_pb/include/seerep_hdf5_pb/hdf5_pb_image.h</title>
<!-- Node1 -->
<g id="node1" class="node">
<title>Node1</title>
<g id="a_node1"><a xlink:title=" ">
<polygon fill="#bfbfbf" stroke="black" points="1429.5,-335.5 1429.5,-376.5 1577.5,-376.5 1577.5,-335.5 1429.5,-335.5"/>
<text text-anchor="start" x="1437.5" y="-364.5" font-family="Helvetica,sans-Serif" font-size="10.00">seerep_hdf5/seerep</text>
<text text-anchor="start" x="1437.5" y="-353.5" font-family="Helvetica,sans-Serif" font-size="10.00">_hdf5_pb/include/seerep</text>
<text text-anchor="middle" x="1503.5" y="-342.5" font-family="Helvetica,sans-Serif" font-size="10.00">_hdf5_pb/hdf5_pb_image.h</text>
</a>
</g>
</g>
<!-- Node2 -->
<g id="node2" class="node">
<title>Node2</title>
<g id="a_node2"><a xlink:title=" ">
<polygon fill="none" stroke="#bfbfbf" points="2052.5,-67.5 2052.5,-86.5 2162.5,-86.5 2162.5,-67.5 2052.5,-67.5"/>
<text text-anchor="middle" x="2107.5" y="-74.5" font-family="Helvetica,sans-Serif" font-size="10.00">highfive/H5File.hpp</text>
</a>
</g>
</g>
<!-- Node1&#45;&gt;Node2 -->
<g id="edge1" class="edge">
<title>Node1&#45;&gt;Node2</title>
<path fill="none" stroke="midnightblue" d="M1577.75,-348.59C1743.11,-332.45 2132.1,-283.52 2194.5,-176 2203.87,-159.86 2203.44,-150.39 2194.5,-134 2183.39,-113.63 2161.34,-99.56 2142.22,-90.62"/>
<polygon fill="midnightblue" stroke="midnightblue" points="2143.41,-87.32 2132.85,-86.52 2140.61,-93.73 2143.41,-87.32"/>
</g>
<!-- Node3 -->
<g id="node3" class="node">
<title>Node3</title>
<g id="a_node3"><a xlink:href="hdf5__core__image_8h.html" target="_top" xlink:title=" ">
<polygon fill="none" stroke="black" points="1382.5,-268.5 1382.5,-298.5 1510.5,-298.5 1510.5,-268.5 1382.5,-268.5"/>
<text text-anchor="start" x="1390.5" y="-286.5" font-family="Helvetica,sans-Serif" font-size="10.00">seerep_hdf5_core/hdf5</text>
<text text-anchor="middle" x="1446.5" y="-275.5" font-family="Helvetica,sans-Serif" font-size="10.00">_core_image.h</text>
</a>
</g>
</g>
<!-- Node1&#45;&gt;Node3 -->
<g id="edge2" class="edge">
<title>Node1&#45;&gt;Node3</title>
<path fill="none" stroke="midnightblue" d="M1487.62,-335.36C1480.46,-326.5 1471.96,-316 1464.56,-306.84"/>
<polygon fill="midnightblue" stroke="midnightblue" points="1467.14,-304.47 1458.14,-298.89 1461.7,-308.87 1467.14,-304.47"/>
</g>
<!-- Node11 -->
<g id="node11" class="node">
<title>Node11</title>
<g id="a_node11"><a xlink:title=" ">
<polygon fill="none" stroke="#bfbfbf" points="0,-67.5 0,-86.5 113,-86.5 113,-67.5 0,-67.5"/>
<text text-anchor="middle" x="56.5" y="-74.5" font-family="Helvetica,sans-Serif" font-size="10.00">boost/geometry.hpp</text>
</a>
</g>
</g>
<!-- Node1&#45;&gt;Node11 -->
<g id="edge60" class="edge">
<title>Node1&#45;&gt;Node11</title>
<path fill="none" stroke="midnightblue" d="M1429.14,-354.4C1229.94,-351.39 668.63,-333.78 215.5,-232 144.03,-215.95 103.8,-235.08 60.5,-176 43.53,-152.84 47.18,-117.68 51.65,-96.37"/>
<polygon fill="midnightblue" stroke="midnightblue" points="55.06,-97.16 53.95,-86.62 48.24,-95.55 55.06,-97.16"/>
</g>
<!-- Node13 -->
<g id="node13" class="node">
<title>Node13</title>
<g id="a_node13"><a xlink:title=" ">
<polygon fill="none" stroke="#bfbfbf" points="1802.5,-67.5 1802.5,-86.5 1858.5,-86.5 1858.5,-67.5 1802.5,-67.5"/>
<text text-anchor="middle" x="1830.5" y="-74.5" font-family="Helvetica,sans-Serif" font-size="10.00">optional</text>
</a>
</g>
</g>
<!-- Node1&#45;&gt;Node13 -->
<g id="edge61" class="edge">
<title>Node1&#45;&gt;Node13</title>
<path fill="none" stroke="midnightblue" d="M1509.27,-335.18C1524.99,-281.24 1567.54,-135.72 1569.5,-134 1645.31,-67.51 1698.02,-130.43 1793.5,-98 1798.43,-96.33 1803.48,-94.04 1808.2,-91.6"/>
<polygon fill="midnightblue" stroke="midnightblue" points="1810.25,-94.47 1817.29,-86.55 1806.85,-88.35 1810.25,-94.47"/>
</g>
<!-- Node30 -->
<g id="node30" class="node">
<title>Node30</title>
<g id="a_node30"><a xlink:href="hdf5__pb__general_8h.html" target="_top" xlink:title=" ">
<polygon fill="none" stroke="black" points="836,-212.5 836,-231.5 943,-231.5 943,-212.5 836,-212.5"/>
<text text-anchor="middle" x="889.5" y="-219.5" font-family="Helvetica,sans-Serif" font-size="10.00">hdf5_pb_general.h</text>
</a>
</g>
</g>
<!-- Node1&#45;&gt;Node30 -->
<g id="edge46" class="edge">
<title>Node1&#45;&gt;Node30</title>
<path fill="none" stroke="midnightblue" d="M1429.44,-339.08C1302.6,-311.81 1047.06,-256.87 939.27,-233.7"/>
<polygon fill="midnightblue" stroke="midnightblue" points="939.82,-230.24 929.31,-231.56 938.35,-237.08 939.82,-230.24"/>
</g>
<!-- Node37 -->
<g id="node37" class="node">
<title>Node37</title>
<g id="a_node37"><a xlink:title=" ">
<polygon fill="none" stroke="#bfbfbf" points="2303,-274 2303,-293 2442,-293 2442,-274 2303,-274"/>
<text text-anchor="middle" x="2372.5" y="-281" font-family="Helvetica,sans-Serif" font-size="10.00">seerep_msgs/image.pb.h</text>
</a>
</g>
</g>
<!-- Node1&#45;&gt;Node37 -->
<g id="edge59" class="edge">
<title>Node1&#45;&gt;Node37</title>
<path fill="none" stroke="midnightblue" d="M1577.6,-352.18C1717.14,-346.32 2028.26,-330.66 2288.5,-299 2298.09,-297.83 2308.26,-296.32 2318.08,-294.71"/>
<polygon fill="midnightblue" stroke="midnightblue" points="2318.88,-298.12 2328.16,-293.01 2317.71,-291.22 2318.88,-298.12"/>
</g>
<!-- Node3&#45;&gt;Node2 -->
<g id="edge3" class="edge">
<title>Node3&#45;&gt;Node2</title>
<path fill="none" stroke="midnightblue" d="M1510.79,-282.67C1619.17,-281.68 1844.52,-274.16 2029.5,-232 2098.07,-216.37 2137.53,-233.86 2177.5,-176 2188.11,-160.64 2185.59,-150.82 2177.5,-134 2168.6,-115.47 2150.25,-101.16 2134.57,-91.64"/>
<polygon fill="midnightblue" stroke="midnightblue" points="2136.16,-88.52 2125.74,-86.59 2132.68,-94.59 2136.16,-88.52"/>
</g>
<!-- Node4 -->
<g id="node4" class="node">
<title>Node4</title>
<g id="a_node4"><a xlink:href="hdf5__core__cameraintrinsics_8h.html" target="_top" xlink:title=" ">
<polygon fill="none" stroke="black" points="1860.5,-212.5 1860.5,-231.5 2020.5,-231.5 2020.5,-212.5 1860.5,-212.5"/>
<text text-anchor="middle" x="1940.5" y="-219.5" font-family="Helvetica,sans-Serif" font-size="10.00">hdf5_core_cameraintrinsics.h</text>
</a>
</g>
</g>
<!-- Node3&#45;&gt;Node4 -->
<g id="edge4" class="edge">
<title>Node3&#45;&gt;Node4</title>
<path fill="none" stroke="midnightblue" d="M1510.58,-274.78C1599.96,-264.02 1762.05,-244.49 1859.64,-232.74"/>
<polygon fill="midnightblue" stroke="midnightblue" points="1860.24,-236.19 1869.75,-231.52 1859.41,-229.24 1860.24,-236.19"/>
</g>
<!-- Node6 -->
<g id="node6" class="node">
<title>Node6</title>
<g id="a_node6"><a xlink:href="hdf5__core__general_8h.html" target="_top" xlink:title=" ">
<polygon fill="none" stroke="black" points="1203.5,-140 1203.5,-170 1331.5,-170 1331.5,-140 1203.5,-140"/>
<text text-anchor="start" x="1211.5" y="-158" font-family="Helvetica,sans-Serif" font-size="10.00">seerep_hdf5_core/hdf5</text>
<text text-anchor="middle" x="1267.5" y="-147" font-family="Helvetica,sans-Serif" font-size="10.00">_core_general.h</text>
</a>
</g>
</g>
<!-- Node3&#45;&gt;Node6 -->
<g id="edge36" class="edge">
<title>Node3&#45;&gt;Node6</title>
<path fill="none" stroke="midnightblue" d="M1426.66,-268.48C1394.81,-245.97 1332.14,-201.68 1295.67,-175.91"/>
<polygon fill="midnightblue" stroke="midnightblue" points="1297.62,-173 1287.43,-170.08 1293.58,-178.71 1297.62,-173"/>
</g>
<!-- Node8 -->
<g id="node8" class="node">
<title>Node8</title>
<g id="a_node8"><a xlink:title=" ">
<polygon fill="none" stroke="#bfbfbf" points="1877,-62 1877,-92 1998,-92 1998,-62 1877,-62"/>
<text text-anchor="start" x="1885" y="-80" font-family="Helvetica,sans-Serif" font-size="10.00">seerep_msgs/dataset</text>
<text text-anchor="middle" x="1937.5" y="-69" font-family="Helvetica,sans-Serif" font-size="10.00">_indexable.h</text>
</a>
</g>
</g>
<!-- Node3&#45;&gt;Node8 -->
<g id="edge37" class="edge">
<title>Node3&#45;&gt;Node8</title>
<path fill="none" stroke="midnightblue" d="M1497.53,-268.38C1551.31,-251.9 1636.89,-221.04 1700.5,-176 1721.04,-161.45 1717.09,-147.24 1738.5,-134 1789.13,-102.7 1810.22,-114.18 1867.5,-98 1871.23,-96.95 1875.06,-95.86 1878.93,-94.76"/>
<polygon fill="midnightblue" stroke="midnightblue" points="1879.89,-98.13 1888.56,-92.03 1877.98,-91.39 1879.89,-98.13"/>
</g>
<!-- Node10 -->
<g id="node10" class="node">
<title>Node10</title>
<g id="a_node10"><a xlink:title=" ">
<polygon fill="none" stroke="#bfbfbf" points="426.5,-56.5 426.5,-97.5 542.5,-97.5 542.5,-56.5 426.5,-56.5"/>
<text text-anchor="start" x="434.5" y="-85.5" font-family="Helvetica,sans-Serif" font-size="10.00">seerep_msgs/labels</text>
<text text-anchor="start" x="434.5" y="-74.5" font-family="Helvetica,sans-Serif" font-size="10.00">_with_instance_with</text>
<text text-anchor="middle" x="484.5" y="-63.5" font-family="Helvetica,sans-Serif" font-size="10.00">_category.h</text>
</a>
</g>
</g>
<!-- Node3&#45;&gt;Node10 -->
<g id="edge38" class="edge">
<title>Node3&#45;&gt;Node10</title>
<path fill="none" stroke="midnightblue" d="M1382.33,-275.26C1332.52,-268.2 1262.42,-255.05 1204.5,-232 1160.38,-214.44 1152.27,-203.42 1113.5,-176 1089.24,-158.85 1089.14,-144.88 1061.5,-134 958.57,-93.49 678.57,-117.05 552.67,-97.87"/>
<polygon fill="midnightblue" stroke="midnightblue" points="553.22,-94.42 542.78,-96.22 552.07,-101.32 553.22,-94.42"/>
</g>
<!-- Node3&#45;&gt;Node11 -->
<g id="edge39" class="edge">
<title>Node3&#45;&gt;Node11</title>
<path fill="none" stroke="midnightblue" d="M1382.25,-281.56C1126.85,-277.27 192.36,-256.18 89.5,-176 65.15,-157.02 58.63,-119.32 56.96,-96.62"/>
<polygon fill="midnightblue" stroke="midnightblue" points="60.46,-96.37 56.47,-86.55 53.46,-96.71 60.46,-96.37"/>
</g>
<!-- Node3&#45;&gt;Node13 -->
<g id="edge40" class="edge">
<title>Node3&#45;&gt;Node13</title>
<path fill="none" stroke="midnightblue" d="M1446.71,-268.32C1447.98,-238.22 1455.55,-167.96 1497.5,-134 1549,-92.31 1730.36,-118.11 1793.5,-98 1798.46,-96.42 1803.52,-94.17 1808.25,-91.75"/>
<polygon fill="midnightblue" stroke="midnightblue" points="1810.3,-94.61 1817.34,-86.69 1806.9,-88.49 1810.3,-94.61"/>
</g>
<!-- Node17 -->
<g id="node17" class="node">
<title>Node17</title>
<g id="a_node17"><a xlink:title=" ">
<polygon fill="none" stroke="#bfbfbf" points="561,-67.5 561,-86.5 704,-86.5 704,-67.5 561,-67.5"/>
<text text-anchor="middle" x="632.5" y="-74.5" font-family="Helvetica,sans-Serif" font-size="10.00">boost/functional/hash.hpp</text>
</a>
</g>
</g>
<!-- Node3&#45;&gt;Node17 -->
<g id="edge41" class="edge">
<title>Node3&#45;&gt;Node17</title>
<path fill="none" stroke="midnightblue" d="M1382.43,-269.35C1345.03,-260.72 1297.31,-248.06 1256.5,-232 1207.28,-212.63 1193.2,-208.54 1151.5,-176 1131.65,-160.51 1136.03,-145.23 1113.5,-134 1033.43,-94.08 800.72,-112.89 712.5,-98 699.13,-95.74 684.71,-92.42 671.84,-89.13"/>
<polygon fill="midnightblue" stroke="midnightblue" points="672.46,-85.67 661.9,-86.51 670.68,-92.44 672.46,-85.67"/>
</g>
<!-- Node18 -->
<g id="node18" class="node">
<title>Node18</title>
<g id="a_node18"><a xlink:title=" ">
<polygon fill="none" stroke="#bfbfbf" points="722,-67.5 722,-86.5 847,-86.5 847,-67.5 722,-67.5"/>
<text text-anchor="middle" x="784.5" y="-74.5" font-family="Helvetica,sans-Serif" font-size="10.00">boost/lexical_cast.hpp</text>
</a>
</g>
</g>
<!-- Node3&#45;&gt;Node18 -->
<g id="edge42" class="edge">
<title>Node3&#45;&gt;Node18</title>
<path fill="none" stroke="midnightblue" d="M1399.31,-268.45C1346.62,-251.47 1260.16,-219.65 1194.5,-176 1172.25,-161.21 1175.59,-145.56 1151.5,-134 1032.01,-76.67 985.44,-124.04 855.5,-98 844.16,-95.73 831.98,-92.57 820.96,-89.43"/>
<polygon fill="midnightblue" stroke="midnightblue" points="821.82,-86.03 811.24,-86.58 819.85,-92.75 821.82,-86.03"/>
</g>
<!-- Node19 -->
<g id="node19" class="node">
<title>Node19</title>
<g id="a_node19"><a xlink:title=" ">
<polygon fill="none" stroke="#bfbfbf" points="2181,-67.5 2181,-86.5 2294,-86.5 2294,-67.5 2181,-67.5"/>
<text text-anchor="middle" x="2237.5" y="-74.5" font-family="Helvetica,sans-Serif" font-size="10.00">boost/uuid/uuid.hpp</text>
</a>
</g>
</g>
<!-- Node3&#45;&gt;Node19 -->
<g id="edge43" class="edge">
<title>Node3&#45;&gt;Node19</title>
<path fill="none" stroke="midnightblue" d="M1510.67,-281.08C1652.44,-277.38 1988.31,-265.27 2096.5,-232 2144.45,-217.25 2160.95,-213.3 2194.5,-176 2215.45,-152.71 2227.46,-117.59 2233.21,-96.32"/>
<polygon fill="midnightblue" stroke="midnightblue" points="2236.61,-97.15 2235.67,-86.6 2229.83,-95.44 2236.61,-97.15"/>
</g>
<!-- Node20 -->
<g id="node20" class="node">
<title>Node20</title>
<g id="a_node20"><a xlink:title=" ">
<polygon fill="none" stroke="#bfbfbf" points="1468.5,-67.5 1468.5,-86.5 1638.5,-86.5 1638.5,-67.5 1468.5,-67.5"/>
<text text-anchor="middle" x="1553.5" y="-74.5" font-family="Helvetica,sans-Serif" font-size="10.00">boost/uuid/uuid_generators.hpp</text>
</a>
</g>
</g>
<!-- Node3&#45;&gt;Node20 -->
<g id="edge44" class="edge">
<title>Node3&#45;&gt;Node20</title>
<path fill="none" stroke="midnightblue" d="M1438.12,-268.46C1422.59,-240.42 1393.36,-176.51 1421.5,-134 1436.79,-110.9 1463.73,-97.3 1489.3,-89.31"/>
<polygon fill="midnightblue" stroke="midnightblue" points="1490.37,-92.64 1499.01,-86.51 1488.43,-85.92 1490.37,-92.64"/>
</g>
<!-- Node21 -->
<g id="node21" class="node">
<title>Node21</title>
<g id="a_node21"><a xlink:title=" ">
<polygon fill="none" stroke="#bfbfbf" points="1657,-67.5 1657,-86.5 1784,-86.5 1784,-67.5 1657,-67.5"/>
<text text-anchor="middle" x="1720.5" y="-74.5" font-family="Helvetica,sans-Serif" font-size="10.00">boost/uuid/uuid_io.hpp</text>
</a>
</g>
</g>
<!-- Node3&#45;&gt;Node21 -->
<g id="edge45" class="edge">
<title>Node3&#45;&gt;Node21</title>
<path fill="none" stroke="midnightblue" d="M1442.71,-268.06C1435.94,-238.7 1425.51,-171.65 1459.5,-134 1516.52,-70.86 1564.63,-117.25 1647.5,-98 1658.67,-95.4 1670.71,-92.25 1681.73,-89.23"/>
<polygon fill="midnightblue" stroke="midnightblue" points="1682.81,-92.56 1691.5,-86.5 1680.93,-85.82 1682.81,-92.56"/>
</g>
<!-- Node29 -->
<g id="node29" class="node">
<title>Node29</title>
<g id="a_node29"><a xlink:href="hdf5__core__datatype__interface_8h.html" target="_top" xlink:title=" ">
<polygon fill="none" stroke="black" points="1578,-140 1578,-170 1691,-170 1691,-140 1578,-140"/>
<text text-anchor="start" x="1586" y="-158" font-family="Helvetica,sans-Serif" font-size="10.00">hdf5_core_datatype</text>
<text text-anchor="middle" x="1634.5" y="-147" font-family="Helvetica,sans-Serif" font-size="10.00">_interface.h</text>
</a>
</g>
</g>
<!-- Node3&#45;&gt;Node29 -->
<g id="edge32" class="edge">
<title>Node3&#45;&gt;Node29</title>
<path fill="none" stroke="midnightblue" d="M1467.34,-268.48C1500.79,-245.97 1566.61,-201.68 1604.92,-175.91"/>
<polygon fill="midnightblue" stroke="midnightblue" points="1607.23,-178.57 1613.57,-170.08 1603.32,-172.76 1607.23,-178.57"/>
</g>
<!-- Node4&#45;&gt;Node2 -->
<g id="edge6" class="edge">
<title>Node4&#45;&gt;Node2</title>
<path fill="none" stroke="midnightblue" d="M2020.66,-215.09C2076.06,-209.15 2142.84,-197.63 2160.5,-176 2181.96,-149.71 2149.11,-113.42 2126.31,-93.19"/>
<polygon fill="midnightblue" stroke="midnightblue" points="2128.37,-90.34 2118.49,-86.51 2123.82,-95.67 2128.37,-90.34"/>
</g>
<!-- Node5 -->
<g id="node5" class="node">
<title>Node5</title>
<g id="a_node5"><a xlink:title=" ">
<polygon fill="none" stroke="#bfbfbf" points="2019.5,-145.5 2019.5,-164.5 2151.5,-164.5 2151.5,-145.5 2019.5,-145.5"/>
<text text-anchor="middle" x="2085.5" y="-152.5" font-family="Helvetica,sans-Serif" font-size="10.00">highfive/H5DataSet.hpp</text>
</a>
</g>
</g>
<!-- Node4&#45;&gt;Node5 -->
<g id="edge5" class="edge">
<title>Node4&#45;&gt;Node5</title>
<path fill="none" stroke="midnightblue" d="M1959.75,-212.37C1984.67,-201.2 2028.29,-181.65 2057.03,-168.76"/>
<polygon fill="midnightblue" stroke="midnightblue" points="2058.47,-171.95 2066.17,-164.67 2055.61,-165.56 2058.47,-171.95"/>
</g>
<!-- Node4&#45;&gt;Node6 -->
<g id="edge7" class="edge">
<title>Node4&#45;&gt;Node6</title>
<path fill="none" stroke="midnightblue" d="M1860.32,-213.26C1728.82,-200.56 1469.22,-175.48 1341.72,-163.17"/>
<polygon fill="midnightblue" stroke="midnightblue" points="1341.94,-159.67 1331.65,-162.2 1341.27,-166.64 1341.94,-159.67"/>
</g>
<!-- Node23 -->
<g id="node23" class="node">
<title>Node23</title>
<g id="a_node23"><a xlink:href="header_8h.html" target="_top" xlink:title=" ">
<polygon fill="none" stroke="black" points="2322,-145.5 2322,-164.5 2381,-164.5 2381,-145.5 2322,-145.5"/>
<text text-anchor="middle" x="2351.5" y="-152.5" font-family="Helvetica,sans-Serif" font-size="10.00">header.h</text>
</a>
</g>
</g>
<!-- Node4&#45;&gt;Node23 -->
<g id="edge25" class="edge">
<title>Node4&#45;&gt;Node23</title>
<path fill="none" stroke="midnightblue" d="M1994.65,-212.44C2078.38,-199.19 2237.32,-174.06 2311.5,-162.33"/>
<polygon fill="midnightblue" stroke="midnightblue" points="2312.48,-165.71 2321.81,-160.7 2311.39,-158.8 2312.48,-165.71"/>
</g>
<!-- Node27 -->
<g id="node27" class="node">
<title>Node27</title>
<g id="a_node27"><a xlink:href="region__of__interest_8h.html" target="_top" xlink:title=" ">
<polygon fill="none" stroke="black" points="1747.5,-145.5 1747.5,-164.5 1861.5,-164.5 1861.5,-145.5 1747.5,-145.5"/>
<text text-anchor="middle" x="1804.5" y="-152.5" font-family="Helvetica,sans-Serif" font-size="10.00">region_of_interest.h</text>
</a>
</g>
</g>
<!-- Node4&#45;&gt;Node27 -->
<g id="edge30" class="edge">
<title>Node4&#45;&gt;Node27</title>
<path fill="none" stroke="midnightblue" d="M1922.44,-212.37C1899.27,-201.3 1858.87,-181.99 1831.9,-169.1"/>
<polygon fill="midnightblue" stroke="midnightblue" points="1833.17,-165.82 1822.63,-164.67 1830.15,-172.14 1833.17,-165.82"/>
</g>
<!-- Node28 -->
<g id="node28" class="node">
<title>Node28</title>
<g id="a_node28"><a xlink:title=" ">
<polygon fill="none" stroke="#bfbfbf" points="1880,-140 1880,-170 2001,-170 2001,-140 1880,-140"/>
<text text-anchor="start" x="1888" y="-158" font-family="Helvetica,sans-Serif" font-size="10.00">seerep_msgs/camera</text>
<text text-anchor="middle" x="1940.5" y="-147" font-family="Helvetica,sans-Serif" font-size="10.00">_intrinsics.h</text>
</a>
</g>
</g>
<!-- Node4&#45;&gt;Node28 -->
<g id="edge31" class="edge">
<title>Node4&#45;&gt;Node28</title>
<path fill="none" stroke="midnightblue" d="M1940.5,-212.23C1940.5,-204.04 1940.5,-191.42 1940.5,-180.21"/>
<polygon fill="midnightblue" stroke="midnightblue" points="1944,-180.09 1940.5,-170.09 1937,-180.09 1944,-180.09"/>
</g>
<!-- Node6&#45;&gt;Node2 -->
<g id="edge8" class="edge">
<title>Node6&#45;&gt;Node2</title>
<path fill="none" stroke="midnightblue" d="M1331.69,-149.19C1510.05,-135.83 1999.15,-99.15 2007.5,-98 2024.79,-95.63 2043.58,-92.12 2060.16,-88.7"/>
<polygon fill="midnightblue" stroke="midnightblue" points="2061.1,-92.08 2070.17,-86.59 2059.66,-85.23 2061.1,-92.08"/>
</g>
<!-- Node7 -->
<g id="node7" class="node">
<title>Node7</title>
<g id="a_node7"><a xlink:title=" ">
<polygon fill="none" stroke="#bfbfbf" points="865,-67.5 865,-86.5 982,-86.5 982,-67.5 865,-67.5"/>
<text text-anchor="middle" x="923.5" y="-74.5" font-family="Helvetica,sans-Serif" font-size="10.00">seerep_msgs/aabb.h</text>
</a>
</g>
</g>
<!-- Node6&#45;&gt;Node7 -->
<g id="edge9" class="edge">
<title>Node6&#45;&gt;Node7</title>
<path fill="none" stroke="midnightblue" d="M1214.76,-139.93C1206.33,-137.84 1197.69,-135.79 1189.5,-134 1102.12,-114.88 1078.53,-118.65 991.5,-98 981.17,-95.55 970.09,-92.48 959.92,-89.49"/>
<polygon fill="midnightblue" stroke="midnightblue" points="960.72,-86.07 950.13,-86.55 958.7,-92.77 960.72,-86.07"/>
</g>
<!-- Node6&#45;&gt;Node8 -->
<g id="edge10" class="edge">
<title>Node6&#45;&gt;Node8</title>
<path fill="none" stroke="midnightblue" d="M1331.52,-149.53C1464.36,-140.02 1766.03,-117.06 1867.5,-98 1872.57,-97.05 1877.81,-95.89 1883.02,-94.62"/>
<polygon fill="midnightblue" stroke="midnightblue" points="1884.17,-97.93 1892.98,-92.05 1882.43,-91.16 1884.17,-97.93"/>
</g>
<!-- Node9 -->
<g id="node9" class="node">
<title>Node9</title>
<g id="a_node9"><a xlink:title=" ">
<polygon fill="none" stroke="#bfbfbf" points="1000.5,-62 1000.5,-92 1126.5,-92 1126.5,-62 1000.5,-62"/>
<text text-anchor="start" x="1008.5" y="-80" font-family="Helvetica,sans-Serif" font-size="10.00">seerep_msgs/geodetic</text>
<text text-anchor="middle" x="1063.5" y="-69" font-family="Helvetica,sans-Serif" font-size="10.00">_coordinates.h</text>
</a>
</g>
</g>
<!-- Node6&#45;&gt;Node9 -->
<g id="edge11" class="edge">
<title>Node6&#45;&gt;Node9</title>
<path fill="none" stroke="midnightblue" d="M1229.61,-139.88C1196.11,-127.41 1147.11,-109.15 1111.01,-95.7"/>
<polygon fill="midnightblue" stroke="midnightblue" points="1111.78,-92.25 1101.19,-92.04 1109.34,-98.81 1111.78,-92.25"/>
</g>
<!-- Node6&#45;&gt;Node10 -->
<g id="edge12" class="edge">
<title>Node6&#45;&gt;Node10</title>
<path fill="none" stroke="midnightblue" d="M1203.17,-144.69C1175.6,-140.95 1143.02,-136.86 1113.5,-134 867.66,-110.19 799.66,-141.24 552.77,-98.01"/>
<polygon fill="midnightblue" stroke="midnightblue" points="553.24,-94.54 542.78,-96.24 552.01,-101.43 553.24,-94.54"/>
</g>
<!-- Node6&#45;&gt;Node11 -->
<g id="edge13" class="edge">
<title>Node6&#45;&gt;Node11</title>
<path fill="none" stroke="midnightblue" d="M1203.07,-147.42C1158.11,-143.04 1096.7,-137.47 1042.5,-134 633.69,-107.86 525.32,-166.81 121.5,-98 110.56,-96.14 98.9,-92.95 88.51,-89.65"/>
<polygon fill="midnightblue" stroke="midnightblue" points="89.6,-86.33 79.01,-86.51 87.4,-92.97 89.6,-86.33"/>
</g>
<!-- Node12 -->
<g id="node12" class="node">
<title>Node12</title>
<g id="a_node12"><a xlink:title=" ">
<polygon fill="none" stroke="#bfbfbf" points="1144.5,-67.5 1144.5,-86.5 1192.5,-86.5 1192.5,-67.5 1144.5,-67.5"/>
<text text-anchor="middle" x="1168.5" y="-74.5" font-family="Helvetica,sans-Serif" font-size="10.00">mutex</text>
</a>
</g>
</g>
<!-- Node6&#45;&gt;Node12 -->
<g id="edge14" class="edge">
<title>Node6&#45;&gt;Node12</title>
<path fill="none" stroke="midnightblue" d="M1248.88,-139.7C1231.52,-126.38 1205.72,-106.57 1188.06,-93.01"/>
<polygon fill="midnightblue" stroke="midnightblue" points="1189.72,-89.88 1179.66,-86.56 1185.46,-95.43 1189.72,-89.88"/>
</g>
<!-- Node6&#45;&gt;Node13 -->
<g id="edge15" class="edge">
<title>Node6&#45;&gt;Node13</title>
<path fill="none" stroke="midnightblue" d="M1317.16,-139.92C1326.52,-137.65 1336.26,-135.54 1345.5,-134 1542.52,-101.07 1601.97,-154.71 1793.5,-98 1798.71,-96.46 1804.01,-94.13 1808.91,-91.59"/>
<polygon fill="midnightblue" stroke="midnightblue" points="1810.73,-94.58 1817.72,-86.62 1807.29,-88.49 1810.73,-94.58"/>
</g>
<!-- Node14 -->
<g id="node14" class="node">
<title>Node14</title>
<g id="a_node14"><a xlink:title=" ">
<polygon fill="none" stroke="#bfbfbf" points="1211,-67.5 1211,-86.5 1280,-86.5 1280,-67.5 1211,-67.5"/>
<text text-anchor="middle" x="1245.5" y="-74.5" font-family="Helvetica,sans-Serif" font-size="10.00">type_traits</text>
</a>
</g>
</g>
<!-- Node6&#45;&gt;Node14 -->
<g id="edge16" class="edge">
<title>Node6&#45;&gt;Node14</title>
<path fill="none" stroke="midnightblue" d="M1263.36,-139.7C1259.82,-127.48 1254.7,-109.8 1250.85,-96.49"/>
<polygon fill="midnightblue" stroke="midnightblue" points="1254.12,-95.2 1247.98,-86.56 1247.4,-97.14 1254.12,-95.2"/>
</g>
<!-- Node15 -->
<g id="node15" class="node">
<title>Node15</title>
<g id="a_node15"><a xlink:title=" ">
<polygon fill="none" stroke="#bfbfbf" points="131,-62 131,-92 276,-92 276,-62 131,-62"/>
<text text-anchor="start" x="139" y="-80" font-family="Helvetica,sans-Serif" font-size="10.00">boost/log/sources/severity</text>
<text text-anchor="middle" x="203.5" y="-69" font-family="Helvetica,sans-Serif" font-size="10.00">_logger.hpp</text>
</a>
</g>
</g>
<!-- Node6&#45;&gt;Node15 -->
<g id="edge17" class="edge">
<title>Node6&#45;&gt;Node15</title>
<path fill="none" stroke="midnightblue" d="M1203.06,-147.56C1158.1,-143.25 1096.69,-137.7 1042.5,-134 706.46,-111.08 618.87,-146.13 285.5,-98 278.68,-97.02 271.6,-95.72 264.58,-94.25"/>
<polygon fill="midnightblue" stroke="midnightblue" points="264.9,-90.74 254.38,-92.01 263.4,-97.58 264.9,-90.74"/>
</g>
<!-- Node16 -->
<g id="node16" class="node">
<title>Node16</title>
<g id="a_node16"><a xlink:title=" ">
<polygon fill="none" stroke="#bfbfbf" points="294.5,-67.5 294.5,-86.5 408.5,-86.5 408.5,-67.5 294.5,-67.5"/>
<text text-anchor="middle" x="351.5" y="-74.5" font-family="Helvetica,sans-Serif" font-size="10.00">boost/log/trivial.hpp</text>
</a>
</g>
</g>
<!-- Node6&#45;&gt;Node16 -->
<g id="edge18" class="edge">
<title>Node6&#45;&gt;Node16</title>
<path fill="none" stroke="midnightblue" d="M1203.13,-146.5C1165.89,-142.36 1118.1,-137.38 1075.5,-134 783.54,-110.82 705.94,-148.83 417.5,-98 406.51,-96.06 394.77,-92.89 384.29,-89.63"/>
<polygon fill="midnightblue" stroke="midnightblue" points="385.28,-86.27 374.69,-86.52 383.12,-92.93 385.28,-86.27"/>
</g>
<!-- Node6&#45;&gt;Node17 -->
<g id="edge19" class="edge">
<title>Node6&#45;&gt;Node17</title>
<path fill="none" stroke="midnightblue" d="M1203.23,-141.87C1186.44,-138.99 1168.33,-136.14 1151.5,-134 957.29,-109.34 905.66,-129.85 712.5,-98 699.12,-95.79 684.7,-92.48 671.83,-89.19"/>
<polygon fill="midnightblue" stroke="midnightblue" points="672.46,-85.73 661.89,-86.57 670.67,-92.5 672.46,-85.73"/>
</g>
<!-- Node6&#45;&gt;Node18 -->
<g id="edge20" class="edge">
<title>Node6&#45;&gt;Node18</title>
<path fill="none" stroke="midnightblue" d="M1216.96,-139.92C1207.87,-137.71 1198.44,-135.62 1189.5,-134 1042.59,-107.39 1002.09,-126.34 855.5,-98 844.04,-95.79 831.75,-92.61 820.66,-89.45"/>
<polygon fill="midnightblue" stroke="midnightblue" points="821.46,-86.03 810.88,-86.57 819.49,-92.75 821.46,-86.03"/>
</g>
<!-- Node6&#45;&gt;Node19 -->
<g id="edge21" class="edge">
<title>Node6&#45;&gt;Node19</title>
<path fill="none" stroke="midnightblue" d="M1331.71,-149.63C1392.84,-145.49 1487.43,-139.17 1569.5,-134 1837,-117.14 1907.65,-145.19 2171.5,-98 2182.4,-96.05 2194.03,-92.9 2204.45,-89.67"/>
<polygon fill="midnightblue" stroke="midnightblue" points="2205.56,-92.99 2214,-86.59 2203.41,-86.33 2205.56,-92.99"/>
</g>
<!-- Node6&#45;&gt;Node20 -->
<g id="edge22" class="edge">
<title>Node6&#45;&gt;Node20</title>
<path fill="none" stroke="midnightblue" d="M1320.29,-139.97C1375.4,-125.33 1460.74,-102.65 1511.47,-89.17"/>
<polygon fill="midnightblue" stroke="midnightblue" points="1512.67,-92.47 1521.44,-86.52 1510.87,-85.71 1512.67,-92.47"/>
</g>
<!-- Node6&#45;&gt;Node21 -->
<g id="edge23" class="edge">
<title>Node6&#45;&gt;Node21</title>
<path fill="none" stroke="midnightblue" d="M1318.47,-139.9C1327.43,-137.72 1336.71,-135.64 1345.5,-134 1478.37,-109.16 1514.84,-123.93 1647.5,-98 1659.27,-95.7 1671.93,-92.5 1683.34,-89.33"/>
<polygon fill="midnightblue" stroke="midnightblue" points="1684.34,-92.68 1693,-86.58 1682.42,-85.95 1684.34,-92.68"/>
</g>
<!-- Node22 -->
<g id="node22" class="node">
<title>Node22</title>
<g id="a_node22"><a xlink:title=" ">
<polygon fill="none" stroke="#bfbfbf" points="1298.5,-67.5 1298.5,-86.5 1450.5,-86.5 1450.5,-67.5 1298.5,-67.5"/>
<text text-anchor="middle" x="1374.5" y="-74.5" font-family="Helvetica,sans-Serif" font-size="10.00">impl/hdf5_core_general.hpp</text>
</a>
</g>
</g>
<!-- Node6&#45;&gt;Node22 -->
<g id="edge24" class="edge">
<title>Node6&#45;&gt;Node22</title>
<path fill="none" stroke="midnightblue" d="M1287.38,-139.88C1306.37,-126.39 1334.86,-106.15 1354.05,-92.53"/>
<polygon fill="midnightblue" stroke="midnightblue" points="1356.26,-95.25 1362.38,-86.61 1352.2,-89.54 1356.26,-95.25"/>
</g>
<!-- Node23&#45;&gt;Node19 -->
<g id="edge26" class="edge">
<title>Node23&#45;&gt;Node19</title>
<path fill="none" stroke="midnightblue" d="M2338.42,-145.28C2319.01,-132.34 2282.35,-107.9 2258.96,-92.31"/>
<polygon fill="midnightblue" stroke="midnightblue" points="2260.69,-89.25 2250.42,-86.62 2256.8,-95.08 2260.69,-89.25"/>
</g>
<!-- Node24 -->
<g id="node24" class="node">
<title>Node24</title>
<g id="a_node24"><a xlink:href="datatype_8h.html" target="_top" xlink:title=" ">
<polygon fill="none" stroke="black" points="2409,-67.5 2409,-86.5 2478,-86.5 2478,-67.5 2409,-67.5"/>
<text text-anchor="middle" x="2443.5" y="-74.5" font-family="Helvetica,sans-Serif" font-size="10.00">datatype.h</text>
</a>
</g>
</g>
<!-- Node23&#45;&gt;Node24 -->
<g id="edge27" class="edge">
<title>Node23&#45;&gt;Node24</title>
<path fill="none" stroke="midnightblue" d="M2362.05,-145.28C2377.44,-132.57 2406.26,-108.76 2425.17,-93.15"/>
<polygon fill="midnightblue" stroke="midnightblue" points="2427.59,-95.68 2433.07,-86.62 2423.13,-90.29 2427.59,-95.68"/>
</g>
<!-- Node25 -->
<g id="node25" class="node">
<title>Node25</title>
<g id="a_node25"><a xlink:href="timestamp_8h.html" target="_top" xlink:title=" ">
<polygon fill="none" stroke="black" points="2312,-67.5 2312,-86.5 2391,-86.5 2391,-67.5 2312,-67.5"/>
<text text-anchor="middle" x="2351.5" y="-74.5" font-family="Helvetica,sans-Serif" font-size="10.00">timestamp.h</text>
</a>
</g>
</g>
<!-- Node23&#45;&gt;Node25 -->
<g id="edge28" class="edge">
<title>Node23&#45;&gt;Node25</title>
<path fill="none" stroke="midnightblue" d="M2351.5,-145.28C2351.5,-133.49 2351.5,-112.13 2351.5,-96.64"/>
<polygon fill="midnightblue" stroke="midnightblue" points="2355,-96.62 2351.5,-86.62 2348,-96.62 2355,-96.62"/>
</g>
<!-- Node26 -->
<g id="node26" class="node">
<title>Node26</title>
<g id="a_node26"><a xlink:title=" ">
<polygon fill="none" stroke="#bfbfbf" points="2319,-0.5 2319,-19.5 2384,-19.5 2384,-0.5 2319,-0.5"/>
<text text-anchor="middle" x="2351.5" y="-7.5" font-family="Helvetica,sans-Serif" font-size="10.00">functional</text>
</a>
</g>
</g>
<!-- Node25&#45;&gt;Node26 -->
<g id="edge29" class="edge">
<title>Node25&#45;&gt;Node26</title>
<path fill="none" stroke="midnightblue" d="M2351.5,-67.23C2351.5,-57.68 2351.5,-42.12 2351.5,-29.78"/>
<polygon fill="midnightblue" stroke="midnightblue" points="2355,-29.63 2351.5,-19.63 2348,-29.63 2355,-29.63"/>
</g>
<!-- Node29&#45;&gt;Node8 -->
<g id="edge33" class="edge">
<title>Node29&#45;&gt;Node8</title>
<path fill="none" stroke="midnightblue" d="M1682.91,-139.97C1690.45,-137.9 1698.17,-135.84 1705.5,-134 1777.02,-115.99 1796.01,-116.14 1867.5,-98 1871.57,-96.97 1875.75,-95.87 1879.96,-94.73"/>
<polygon fill="midnightblue" stroke="midnightblue" points="1881.06,-98.06 1889.78,-92.04 1879.21,-91.31 1881.06,-98.06"/>
</g>
<!-- Node29&#45;&gt;Node13 -->
<g id="edge35" class="edge">
<title>Node29&#45;&gt;Node13</title>
<path fill="none" stroke="midnightblue" d="M1680.47,-139.93C1712.63,-129.57 1756.31,-114.48 1793.5,-98 1797.9,-96.05 1802.49,-93.78 1806.87,-91.48"/>
<polygon fill="midnightblue" stroke="midnightblue" points="1808.89,-94.37 1816,-86.52 1805.54,-88.22 1808.89,-94.37"/>
</g>
<!-- Node29&#45;&gt;Node19 -->
<g id="edge34" class="edge">
<title>Node29&#45;&gt;Node19</title>
<path fill="none" stroke="midnightblue" d="M1691.26,-141.94C1706.55,-139.01 1723.11,-136.11 1738.5,-134 1929.81,-107.73 1981.82,-134.2 2171.5,-98 2182.17,-95.96 2193.57,-92.86 2203.84,-89.7"/>
<polygon fill="midnightblue" stroke="midnightblue" points="2205.21,-92.93 2213.67,-86.55 2203.08,-86.27 2205.21,-92.93"/>
</g>
<!-- Node30&#45;&gt;Node2 -->
<g id="edge47" class="edge">
<title>Node30&#45;&gt;Node2</title>
<path fill="none" stroke="midnightblue" d="M943.09,-219.53C1038.39,-216.22 1243.32,-205.97 1413.5,-176 1484.21,-163.55 1498.76,-146.32 1569.5,-134 1761.92,-100.47 1814.08,-125.2 2007.5,-98 2024.78,-95.57 2043.57,-92.05 2060.15,-88.63"/>
<polygon fill="midnightblue" stroke="midnightblue" points="2061.09,-92.01 2070.16,-86.53 2059.65,-85.16 2061.09,-92.01"/>
</g>
<!-- Node30&#45;&gt;Node6 -->
<g id="edge48" class="edge">
<title>Node30&#45;&gt;Node6</title>
<path fill="none" stroke="midnightblue" d="M939.31,-212.44C1004.25,-201.27 1118.4,-181.64 1193.49,-168.73"/>
<polygon fill="midnightblue" stroke="midnightblue" points="1194.1,-172.17 1203.36,-167.03 1192.91,-165.28 1194.1,-172.17"/>
</g>
<!-- Node30&#45;&gt;Node11 -->
<g id="edge53" class="edge">
<title>Node30&#45;&gt;Node11</title>
<path fill="none" stroke="midnightblue" d="M835.92,-220.19C674.85,-217.41 202.3,-206.7 140.5,-176 105.19,-158.46 78.73,-118.73 65.64,-95.6"/>
<polygon fill="midnightblue" stroke="midnightblue" points="68.57,-93.67 60.72,-86.55 62.42,-97.01 68.57,-93.67"/>
</g>
<!-- Node30&#45;&gt;Node13 -->
<g id="edge55" class="edge">
<title>Node30&#45;&gt;Node13</title>
<path fill="none" stroke="midnightblue" d="M943.27,-219.79C1028.49,-216.94 1199.38,-207.46 1340.5,-176 1395.24,-163.79 1404.81,-146.42 1459.5,-134 1605.1,-100.93 1650.93,-142.33 1793.5,-98 1798.68,-96.39 1803.98,-94.03 1808.88,-91.48"/>
<polygon fill="midnightblue" stroke="midnightblue" points="1810.69,-94.48 1817.69,-86.53 1807.26,-88.38 1810.69,-94.48"/>
</g>
<!-- Node30&#45;&gt;Node15 -->
<g id="edge56" class="edge">
<title>Node30&#45;&gt;Node15</title>
<path fill="none" stroke="midnightblue" d="M835.72,-219.72C669.69,-215.5 174.91,-200.88 151.5,-176 130.25,-153.41 156.3,-120.47 178.56,-99.13"/>
<polygon fill="midnightblue" stroke="midnightblue" points="181.21,-101.46 186.19,-92.11 176.46,-96.31 181.21,-101.46"/>
</g>
<!-- Node30&#45;&gt;Node16 -->
<g id="edge57" class="edge">
<title>Node30&#45;&gt;Node16</title>
<path fill="none" stroke="midnightblue" d="M941.66,-212.49C981.01,-204.88 1030.23,-192.4 1042.5,-176 1053.68,-161.05 1055.31,-147.57 1042.5,-134 994.75,-83.42 485.99,-110.17 417.5,-98 406.6,-96.06 394.97,-92.92 384.55,-89.69"/>
<polygon fill="midnightblue" stroke="midnightblue" points="385.59,-86.35 375,-86.6 383.44,-93.01 385.59,-86.35"/>
</g>
<!-- Node31 -->
<g id="node31" class="node">
<title>Node31</title>
<g id="a_node31"><a xlink:title=" ">
<polygon fill="none" stroke="#bfbfbf" points="322,-140 322,-170 481,-170 481,-140 322,-140"/>
<text text-anchor="start" x="330" y="-158" font-family="Helvetica,sans-Serif" font-size="10.00">seerep_msgs/boundingbox2d</text>
<text text-anchor="middle" x="401.5" y="-147" font-family="Helvetica,sans-Serif" font-size="10.00">_labeled_with_category.pb.h</text>
</a>
</g>
</g>
<!-- Node30&#45;&gt;Node31 -->
<g id="edge49" class="edge">
<title>Node30&#45;&gt;Node31</title>
<path fill="none" stroke="midnightblue" d="M835.86,-216.88C758.85,-210.53 612.66,-196.86 489.5,-176 482.86,-174.88 475.96,-173.56 469.09,-172.16"/>
<polygon fill="midnightblue" stroke="midnightblue" points="469.57,-168.69 459.07,-170.05 468.13,-175.54 469.57,-168.69"/>
</g>
<!-- Node32 -->
<g id="node32" class="node">
<title>Node32</title>
<g id="a_node32"><a xlink:title=" ">
<polygon fill="none" stroke="#bfbfbf" points="499,-140 499,-170 654,-170 654,-140 499,-140"/>
<text text-anchor="start" x="507" y="-158" font-family="Helvetica,sans-Serif" font-size="10.00">seerep_msgs/boundingbox</text>
<text text-anchor="middle" x="576.5" y="-147" font-family="Helvetica,sans-Serif" font-size="10.00">_labeled_with_category.pb.h</text>
</a>
</g>
</g>
<!-- Node30&#45;&gt;Node32 -->
<g id="edge50" class="edge">
<title>Node30&#45;&gt;Node32</title>
<path fill="none" stroke="midnightblue" d="M844.19,-212.47C798.3,-203.73 725.34,-189.53 662.5,-176 657.07,-174.83 651.45,-173.59 645.81,-172.32"/>
<polygon fill="midnightblue" stroke="midnightblue" points="646.19,-168.82 635.66,-170.03 644.64,-175.65 646.19,-168.82"/>
</g>
<!-- Node33 -->
<g id="node33" class="node">
<title>Node33</title>
<g id="a_node33"><a xlink:title=" ">
<polygon fill="none" stroke="#bfbfbf" points="672,-145.5 672,-164.5 813,-164.5 813,-145.5 672,-145.5"/>
<text text-anchor="middle" x="742.5" y="-152.5" font-family="Helvetica,sans-Serif" font-size="10.00">seerep_msgs/header.pb.h</text>
</a>
</g>
</g>
<!-- Node30&#45;&gt;Node33 -->
<g id="edge51" class="edge">
<title>Node30&#45;&gt;Node33</title>
<path fill="none" stroke="midnightblue" d="M869.98,-212.37C844.72,-201.2 800.5,-181.65 771.36,-168.76"/>
<polygon fill="midnightblue" stroke="midnightblue" points="772.66,-165.51 762.1,-164.67 769.83,-171.91 772.66,-165.51"/>
</g>
<!-- Node34 -->
<g id="node34" class="node">
<title>Node34</title>
<g id="a_node34"><a xlink:title=" ">
<polygon fill="none" stroke="#bfbfbf" points="831.5,-134.5 831.5,-175.5 947.5,-175.5 947.5,-134.5 831.5,-134.5"/>
<text text-anchor="start" x="839.5" y="-163.5" font-family="Helvetica,sans-Serif" font-size="10.00">seerep_msgs/labels</text>
<text text-anchor="start" x="839.5" y="-152.5" font-family="Helvetica,sans-Serif" font-size="10.00">_with_instance_with</text>
<text text-anchor="middle" x="889.5" y="-141.5" font-family="Helvetica,sans-Serif" font-size="10.00">_category.pb.h</text>
</a>
</g>
</g>
<!-- Node30&#45;&gt;Node34 -->
<g id="edge52" class="edge">
<title>Node30&#45;&gt;Node34</title>
<path fill="none" stroke="midnightblue" d="M889.5,-212.23C889.5,-205.36 889.5,-195.38 889.5,-185.73"/>
<polygon fill="midnightblue" stroke="midnightblue" points="893,-185.54 889.5,-175.54 886,-185.54 893,-185.54"/>
</g>
<!-- Node35 -->
<g id="node35" class="node">
<title>Node35</title>
<g id="a_node35"><a xlink:title=" ">
<polygon fill="none" stroke="#bfbfbf" points="965.5,-145.5 965.5,-164.5 1033.5,-164.5 1033.5,-145.5 965.5,-145.5"/>
<text text-anchor="middle" x="999.5" y="-152.5" font-family="Helvetica,sans-Serif" font-size="10.00">filesystem</text>
</a>
</g>
</g>
<!-- Node30&#45;&gt;Node35 -->
<g id="edge54" class="edge">
<title>Node30&#45;&gt;Node35</title>
<path fill="none" stroke="midnightblue" d="M904.34,-212.23C922.81,-201.32 954.57,-182.55 976.28,-169.72"/>
<polygon fill="midnightblue" stroke="midnightblue" points="978.07,-172.73 984.9,-164.63 974.51,-166.7 978.07,-172.73"/>
</g>
<!-- Node36 -->
<g id="node36" class="node">
<title>Node36</title>
<g id="a_node36"><a xlink:title=" ">
<polygon fill="none" stroke="#bfbfbf" points="161,-145.5 161,-164.5 304,-164.5 304,-145.5 161,-145.5"/>
<text text-anchor="middle" x="232.5" y="-152.5" font-family="Helvetica,sans-Serif" font-size="10.00">impl/hdf5_pb_general.hpp</text>
</a>
</g>
</g>
<!-- Node30&#45;&gt;Node36 -->
<g id="edge58" class="edge">
<title>Node30&#45;&gt;Node36</title>
<path fill="none" stroke="midnightblue" d="M835.85,-219.8C733.46,-216.86 503.41,-207.08 312.5,-176 299.12,-173.82 284.69,-170.52 271.83,-167.22"/>
<polygon fill="midnightblue" stroke="midnightblue" points="272.45,-163.77 261.89,-164.6 270.66,-170.53 272.45,-163.77"/>
</g>
</g>
</svg>
