<?xml version="1.0" encoding="UTF-8" standalone="no"?>
<!DOCTYPE svg PUBLIC "-//W3C//DTD SVG 1.1//EN"
 "http://www.w3.org/Graphics/SVG/1.1/DTD/svg11.dtd">
<!-- Generated by graphviz version 2.43.0 (0)
 -->
<!-- Title: seerep&#45;hdf5/seerep&#45;hdf5&#45;pb/include/seerep&#45;hdf5&#45;pb/hdf5&#45;pb&#45;image.h Pages: 1 -->
<svg width="2126pt" height="251pt"
 viewBox="0.00 0.00 2125.84 251.00" xmlns="http://www.w3.org/2000/svg" xmlns:xlink="http://www.w3.org/1999/xlink">
<g id="graph0" class="graph" transform="scale(1 1) rotate(0) translate(4 247)">
<title>seerep&#45;hdf5/seerep&#45;hdf5&#45;pb/include/seerep&#45;hdf5&#45;pb/hdf5&#45;pb&#45;image.h</title>
<!-- Node1 -->
<g id="node1" class="node">
<title>Node1</title>
<g id="a_node1"><a xlink:title=" ">
<polygon fill="#bfbfbf" stroke="black" points="860.34,-201.5 860.34,-242.5 1002.34,-242.5 1002.34,-201.5 860.34,-201.5"/>
<text text-anchor="start" x="868.34" y="-230.5" font-family="Helvetica,sans-Serif" font-size="10.00">seerep&#45;hdf5/seerep</text>
<text text-anchor="start" x="868.34" y="-219.5" font-family="Helvetica,sans-Serif" font-size="10.00">&#45;hdf5&#45;pb/include/seerep</text>
<text text-anchor="middle" x="931.34" y="-208.5" font-family="Helvetica,sans-Serif" font-size="10.00">&#45;hdf5&#45;pb/hdf5&#45;pb&#45;image.h</text>
</a>
</g>
</g>
<!-- Node2 -->
<g id="node2" class="node">
<title>Node2</title>
<g id="a_node2"><a xlink:title=" ">
<polygon fill="none" stroke="#bfbfbf" points="330.34,-6 330.34,-25 440.34,-25 440.34,-6 330.34,-6"/>
<text text-anchor="middle" x="385.34" y="-13" font-family="Helvetica,sans-Serif" font-size="10.00">highfive/H5File.hpp</text>
</a>
</g>
</g>
<!-- Node1&#45;&gt;Node2 -->
<g id="edge1" class="edge">
<title>Node1&#45;&gt;Node2</title>
<path fill="none" stroke="midnightblue" d="M860.09,-216.75C654.43,-203.76 70.94,-161.56 15.34,-98 6.27,-87.63 6.28,-77.38 15.34,-67 25.27,-55.63 216.69,-34.06 320.2,-23.16"/>
<polygon fill="midnightblue" stroke="midnightblue" points="320.66,-26.63 330.24,-22.11 319.93,-19.67 320.66,-26.63"/>
</g>
<!-- Node3 -->
<g id="node3" class="node">
<title>Node3</title>
<g id="a_node3"><a xlink:href="hdf5-core-image_8h.html" target="_top" xlink:title=" ">
<polygon fill="none" stroke="black" points="1223.84,-134.5 1223.84,-164.5 1348.84,-164.5 1348.84,-134.5 1223.84,-134.5"/>
<text text-anchor="start" x="1231.84" y="-152.5" font-family="Helvetica,sans-Serif" font-size="10.00">seerep&#45;hdf5&#45;core/hdf5</text>
<text text-anchor="middle" x="1286.34" y="-141.5" font-family="Helvetica,sans-Serif" font-size="10.00">&#45;core&#45;image.h</text>
</a>
</g>
</g>
<!-- Node1&#45;&gt;Node3 -->
<g id="edge2" class="edge">
<title>Node1&#45;&gt;Node3</title>
<path fill="none" stroke="midnightblue" d="M1002.76,-206.82C1064.04,-194.65 1151.96,-177.19 1213.62,-164.94"/>
<polygon fill="midnightblue" stroke="midnightblue" points="1214.53,-168.33 1223.66,-162.95 1213.17,-161.46 1214.53,-168.33"/>
</g>
<!-- Node7 -->
<g id="node7" class="node">
<title>Node7</title>
<g id="a_node7"><a xlink:title=" ">
<polygon fill="none" stroke="#bfbfbf" points="1315.34,-6 1315.34,-25 1371.34,-25 1371.34,-6 1315.34,-6"/>
<text text-anchor="middle" x="1343.34" y="-13" font-family="Helvetica,sans-Serif" font-size="10.00">optional</text>
</a>
</g>
</g>
<!-- Node1&#45;&gt;Node7 -->
<g id="edge41" class="edge">
<title>Node1&#45;&gt;Node7</title>
<path fill="none" stroke="midnightblue" d="M960.46,-201.32C1008.12,-169.76 1106.51,-107.26 1196.34,-67 1243.29,-45.96 1257.93,-48.39 1306.34,-31 1308.24,-30.32 1310.19,-29.6 1312.15,-28.87"/>
<polygon fill="midnightblue" stroke="midnightblue" points="1313.81,-31.98 1321.9,-25.14 1311.31,-25.44 1313.81,-31.98"/>
</g>
<!-- Node10 -->
<g id="node10" class="node">
<title>Node10</title>
<g id="a_node10"><a xlink:title=" ">
<polygon fill="none" stroke="#bfbfbf" points="122.84,-6 122.84,-25 235.84,-25 235.84,-6 122.84,-6"/>
<text text-anchor="middle" x="179.34" y="-13" font-family="Helvetica,sans-Serif" font-size="10.00">boost/geometry.hpp</text>
</a>
</g>
</g>
<!-- Node1&#45;&gt;Node10 -->
<g id="edge40" class="edge">
<title>Node1&#45;&gt;Node10</title>
<path fill="none" stroke="midnightblue" d="M860.32,-220.78C686.91,-219.51 245.96,-211.63 107.34,-165 55.94,-147.71 31.1,-145.73 5.34,-98 -19.85,-51.31 53.42,-31.18 112.54,-22.62"/>
<polygon fill="midnightblue" stroke="midnightblue" points="113.2,-26.07 122.63,-21.25 112.25,-19.13 113.2,-26.07"/>
</g>
<!-- Node20 -->
<g id="node20" class="node">
<title>Node20</title>
<g id="a_node20"><a xlink:href="hdf5-pb-general_8h.html" target="_top" xlink:title=" ">
<polygon fill="none" stroke="black" points="577.34,-134.5 577.34,-164.5 693.34,-164.5 693.34,-134.5 577.34,-134.5"/>
<text text-anchor="start" x="585.34" y="-152.5" font-family="Helvetica,sans-Serif" font-size="10.00">seerep&#45;hdf5&#45;pb/hdf5</text>
<text text-anchor="middle" x="635.34" y="-141.5" font-family="Helvetica,sans-Serif" font-size="10.00">&#45;pb&#45;general.h</text>
</a>
</g>
</g>
<!-- Node1&#45;&gt;Node20 -->
<g id="edge27" class="edge">
<title>Node1&#45;&gt;Node20</title>
<path fill="none" stroke="midnightblue" d="M860.07,-204.02C812.48,-192.69 750.25,-177.87 703.35,-166.7"/>
<polygon fill="midnightblue" stroke="midnightblue" points="704.12,-163.28 693.59,-164.37 702.5,-170.09 704.12,-163.28"/>
</g>
<!-- Node26 -->
<g id="node26" class="node">
<title>Node26</title>
<g id="a_node26"><a xlink:title=" ">
<polygon fill="none" stroke="#bfbfbf" points="1366.84,-140 1366.84,-159 1503.84,-159 1503.84,-140 1366.84,-140"/>
<text text-anchor="middle" x="1435.34" y="-147" font-family="Helvetica,sans-Serif" font-size="10.00">seerep&#45;msgs/image.pb.h</text>
</a>
</g>
</g>
<!-- Node1&#45;&gt;Node26 -->
<g id="edge39" class="edge">
<title>Node1&#45;&gt;Node26</title>
<path fill="none" stroke="midnightblue" d="M1002.54,-212.89C1087.45,-202.94 1233.57,-184.91 1358.34,-165 1366.09,-163.76 1374.25,-162.35 1382.25,-160.9"/>
<polygon fill="midnightblue" stroke="midnightblue" points="1383.05,-164.31 1392.25,-159.05 1381.78,-157.43 1383.05,-164.31"/>
</g>
<!-- Node3&#45;&gt;Node2 -->
<g id="edge3" class="edge">
<title>Node3&#45;&gt;Node2</title>
<path fill="none" stroke="midnightblue" d="M1223.82,-141.22C1155.53,-132.8 1043.1,-117.55 947.34,-98 893.79,-87.07 882.07,-77.01 828.34,-67 757.55,-53.81 555.67,-33.12 450.63,-22.8"/>
<polygon fill="midnightblue" stroke="midnightblue" points="450.76,-19.29 440.47,-21.8 450.08,-26.26 450.76,-19.29"/>
</g>
<!-- Node4 -->
<g id="node4" class="node">
<title>Node4</title>
<g id="a_node4"><a xlink:href="hdf5-core-datatype-interface_8h.html" target="_top" xlink:title=" ">
<polygon fill="none" stroke="black" points="1852.84,-67.5 1852.84,-97.5 1997.84,-97.5 1997.84,-67.5 1852.84,-67.5"/>
<text text-anchor="start" x="1860.84" y="-85.5" font-family="Helvetica,sans-Serif" font-size="10.00">seerep&#45;hdf5&#45;core/hdf5</text>
<text text-anchor="middle" x="1925.34" y="-74.5" font-family="Helvetica,sans-Serif" font-size="10.00">&#45;core&#45;datatype&#45;interface.h</text>
</a>
</g>
</g>
<!-- Node3&#45;&gt;Node4 -->
<g id="edge4" class="edge">
<title>Node3&#45;&gt;Node4</title>
<path fill="none" stroke="midnightblue" d="M1349.09,-135.38C1352.22,-134.88 1355.31,-134.42 1358.34,-134 1569.68,-105.01 1627.71,-124.51 1842.52,-98.15"/>
<polygon fill="midnightblue" stroke="midnightblue" points="1843.05,-101.61 1852.54,-96.9 1842.18,-94.66 1843.05,-101.61"/>
</g>
<!-- Node5 -->
<g id="node5" class="node">
<title>Node5</title>
<g id="a_node5"><a xlink:title=" ">
<polygon fill="none" stroke="#bfbfbf" points="1865.84,-0.5 1865.84,-30.5 1984.84,-30.5 1984.84,-0.5 1865.84,-0.5"/>
<text text-anchor="start" x="1873.84" y="-18.5" font-family="Helvetica,sans-Serif" font-size="10.00">seerep&#45;msgs/dataset</text>
<text text-anchor="middle" x="1925.34" y="-7.5" font-family="Helvetica,sans-Serif" font-size="10.00">&#45;indexable.h</text>
</a>
</g>
</g>
<!-- Node3&#45;&gt;Node5 -->
<g id="edge19" class="edge">
<title>Node3&#45;&gt;Node5</title>
<path fill="none" stroke="midnightblue" d="M1349.09,-135.31C1352.21,-134.83 1355.31,-134.39 1358.34,-134 1429.98,-124.85 1957.71,-150.46 2007.34,-98 2028.16,-76 1995.95,-51.62 1965.99,-35.31"/>
<polygon fill="midnightblue" stroke="midnightblue" points="1967.31,-32.05 1956.83,-30.52 1964.07,-38.25 1967.31,-32.05"/>
</g>
<!-- Node6 -->
<g id="node6" class="node">
<title>Node6</title>
<g id="a_node6"><a xlink:title=" ">
<polygon fill="none" stroke="#bfbfbf" points="2004.84,-6 2004.84,-25 2117.84,-25 2117.84,-6 2004.84,-6"/>
<text text-anchor="middle" x="2061.34" y="-13" font-family="Helvetica,sans-Serif" font-size="10.00">boost/uuid/uuid.hpp</text>
</a>
</g>
</g>
<!-- Node3&#45;&gt;Node6 -->
<g id="edge24" class="edge">
<title>Node3&#45;&gt;Node6</title>
<path fill="none" stroke="midnightblue" d="M1349.08,-135.31C1352.21,-134.83 1355.31,-134.39 1358.34,-134 1431.86,-124.66 1963.15,-139.8 2024.34,-98 2045.37,-83.64 2054.64,-54.28 2058.58,-35"/>
<polygon fill="midnightblue" stroke="midnightblue" points="2062.06,-35.46 2060.34,-25 2055.16,-34.24 2062.06,-35.46"/>
</g>
<!-- Node3&#45;&gt;Node7 -->
<g id="edge21" class="edge">
<title>Node3&#45;&gt;Node7</title>
<path fill="none" stroke="midnightblue" d="M1247.69,-134.37C1231.58,-126.34 1214.51,-114.52 1205.34,-98 1198.66,-85.95 1197.4,-78.26 1205.34,-67 1232.81,-28.05 1261.71,-47.7 1306.34,-31 1308.23,-30.29 1310.18,-29.56 1312.13,-28.81"/>
<polygon fill="midnightblue" stroke="midnightblue" points="1313.8,-31.92 1321.87,-25.05 1311.28,-25.39 1313.8,-31.92"/>
</g>
<!-- Node8 -->
<g id="node8" class="node">
<title>Node8</title>
<g id="a_node8"><a xlink:href="hdf5-core-general_8h.html" target="_top" xlink:title=" ">
<polygon fill="none" stroke="black" points="956.84,-67.5 956.84,-97.5 1081.84,-97.5 1081.84,-67.5 956.84,-67.5"/>
<text text-anchor="start" x="964.84" y="-85.5" font-family="Helvetica,sans-Serif" font-size="10.00">seerep&#45;hdf5&#45;core/hdf5</text>
<text text-anchor="middle" x="1019.34" y="-74.5" font-family="Helvetica,sans-Serif" font-size="10.00">&#45;core&#45;general.h</text>
</a>
</g>
</g>
<!-- Node3&#45;&gt;Node8 -->
<g id="edge8" class="edge">
<title>Node3&#45;&gt;Node8</title>
<path fill="none" stroke="midnightblue" d="M1228.74,-134.48C1187.21,-124.37 1131.01,-110.68 1087.28,-100.04"/>
<polygon fill="midnightblue" stroke="midnightblue" points="1087.85,-96.58 1077.31,-97.61 1086.2,-103.38 1087.85,-96.58"/>
</g>
<!-- Node3&#45;&gt;Node10 -->
<g id="edge20" class="edge">
<title>Node3&#45;&gt;Node10</title>
<path fill="none" stroke="midnightblue" d="M1223.62,-146.47C1115.06,-142.16 897.18,-129.73 828.34,-98 810.07,-89.57 813.76,-75.11 795.34,-67 698.67,-24.41 426.56,-40.37 321.34,-31 296.72,-28.81 269.73,-26.12 245.95,-23.66"/>
<polygon fill="midnightblue" stroke="midnightblue" points="246.28,-20.18 235.97,-22.62 245.56,-27.14 246.28,-20.18"/>
</g>
<!-- Node16 -->
<g id="node16" class="node">
<title>Node16</title>
<g id="a_node16"><a xlink:title=" ">
<polygon fill="none" stroke="#bfbfbf" points="1214.84,-73 1214.84,-92 1357.84,-92 1357.84,-73 1214.84,-73"/>
<text text-anchor="middle" x="1286.34" y="-80" font-family="Helvetica,sans-Serif" font-size="10.00">boost/functional/hash.hpp</text>
</a>
</g>
</g>
<!-- Node3&#45;&gt;Node16 -->
<g id="edge22" class="edge">
<title>Node3&#45;&gt;Node16</title>
<path fill="none" stroke="midnightblue" d="M1286.34,-134.4C1286.34,-125.06 1286.34,-112.71 1286.34,-102.52"/>
<polygon fill="midnightblue" stroke="midnightblue" points="1289.84,-102.19 1286.34,-92.19 1282.84,-102.19 1289.84,-102.19"/>
</g>
<!-- Node17 -->
<g id="node17" class="node">
<title>Node17</title>
<g id="a_node17"><a xlink:title=" ">
<polygon fill="none" stroke="#bfbfbf" points="1375.84,-73 1375.84,-92 1500.84,-92 1500.84,-73 1375.84,-73"/>
<text text-anchor="middle" x="1438.34" y="-80" font-family="Helvetica,sans-Serif" font-size="10.00">boost/lexical_cast.hpp</text>
</a>
</g>
</g>
<!-- Node3&#45;&gt;Node17 -->
<g id="edge23" class="edge">
<title>Node3&#45;&gt;Node17</title>
<path fill="none" stroke="midnightblue" d="M1319.33,-134.4C1346.11,-122.94 1383.53,-106.94 1409.23,-95.95"/>
<polygon fill="midnightblue" stroke="midnightblue" points="1410.63,-99.16 1418.45,-92.01 1407.88,-92.72 1410.63,-99.16"/>
</g>
<!-- Node18 -->
<g id="node18" class="node">
<title>Node18</title>
<g id="a_node18"><a xlink:title=" ">
<polygon fill="none" stroke="#bfbfbf" points="1519.34,-73 1519.34,-92 1689.34,-92 1689.34,-73 1519.34,-73"/>
<text text-anchor="middle" x="1604.34" y="-80" font-family="Helvetica,sans-Serif" font-size="10.00">boost/uuid/uuid_generators.hpp</text>
</a>
</g>
</g>
<!-- Node3&#45;&gt;Node18 -->
<g id="edge25" class="edge">
<title>Node3&#45;&gt;Node18</title>
<path fill="none" stroke="midnightblue" d="M1349.17,-135.66C1408.64,-123.5 1496.86,-105.47 1552.45,-94.11"/>
<polygon fill="midnightblue" stroke="midnightblue" points="1553.33,-97.5 1562.43,-92.07 1551.93,-90.64 1553.33,-97.5"/>
</g>
<!-- Node19 -->
<g id="node19" class="node">
<title>Node19</title>
<g id="a_node19"><a xlink:title=" ">
<polygon fill="none" stroke="#bfbfbf" points="1707.84,-73 1707.84,-92 1834.84,-92 1834.84,-73 1707.84,-73"/>
<text text-anchor="middle" x="1771.34" y="-80" font-family="Helvetica,sans-Serif" font-size="10.00">boost/uuid/uuid_io.hpp</text>
</a>
</g>
</g>
<!-- Node3&#45;&gt;Node19 -->
<g id="edge26" class="edge">
<title>Node3&#45;&gt;Node19</title>
<path fill="none" stroke="midnightblue" d="M1349.11,-135.5C1352.23,-134.97 1355.32,-134.46 1358.34,-134 1508.55,-110.98 1548.11,-120.83 1698.34,-98 1705.89,-96.85 1713.85,-95.46 1721.62,-94"/>
<polygon fill="midnightblue" stroke="midnightblue" points="1722.52,-97.39 1731.68,-92.06 1721.2,-90.52 1722.52,-97.39"/>
</g>
<!-- Node4&#45;&gt;Node5 -->
<g id="edge5" class="edge">
<title>Node4&#45;&gt;Node5</title>
<path fill="none" stroke="midnightblue" d="M1925.34,-67.4C1925.34,-59.64 1925.34,-49.81 1925.34,-40.86"/>
<polygon fill="midnightblue" stroke="midnightblue" points="1928.84,-40.58 1925.34,-30.58 1921.84,-40.58 1928.84,-40.58"/>
</g>
<!-- Node4&#45;&gt;Node6 -->
<g id="edge6" class="edge">
<title>Node4&#45;&gt;Node6</title>
<path fill="none" stroke="midnightblue" d="M1954.85,-67.4C1978.51,-56.09 2011.42,-40.36 2034.37,-29.39"/>
<polygon fill="midnightblue" stroke="midnightblue" points="2036.03,-32.48 2043.54,-25.01 2033.01,-26.16 2036.03,-32.48"/>
</g>
<!-- Node4&#45;&gt;Node7 -->
<g id="edge7" class="edge">
<title>Node4&#45;&gt;Node7</title>
<path fill="none" stroke="midnightblue" d="M1852.53,-68.19C1849.77,-67.78 1847.03,-67.38 1844.34,-67 1672.27,-42.96 1465.41,-25.81 1381.49,-19.34"/>
<polygon fill="midnightblue" stroke="midnightblue" points="1381.65,-15.84 1371.41,-18.57 1381.11,-22.82 1381.65,-15.84"/>
</g>
<!-- Node8&#45;&gt;Node2 -->
<g id="edge9" class="edge">
<title>Node8&#45;&gt;Node2</title>
<path fill="none" stroke="midnightblue" d="M956.71,-73.28C939.73,-71.13 921.34,-68.9 904.34,-67 741.42,-48.81 549.29,-31.08 450.8,-22.27"/>
<polygon fill="midnightblue" stroke="midnightblue" points="450.97,-18.77 440.7,-21.37 450.35,-25.74 450.97,-18.77"/>
</g>
<!-- Node8&#45;&gt;Node5 -->
<g id="edge11" class="edge">
<title>Node8&#45;&gt;Node5</title>
<path fill="none" stroke="midnightblue" d="M1082.18,-76.48C1118.22,-73.63 1164.32,-70.04 1205.34,-67 1443.82,-49.34 1726.84,-29.95 1855.49,-21.22"/>
<polygon fill="midnightblue" stroke="midnightblue" points="1855.85,-24.7 1865.59,-20.53 1855.38,-17.72 1855.85,-24.7"/>
</g>
<!-- Node8&#45;&gt;Node7 -->
<g id="edge14" class="edge">
<title>Node8&#45;&gt;Node7</title>
<path fill="none" stroke="midnightblue" d="M1081.94,-69.62C1086.81,-68.73 1091.66,-67.84 1096.34,-67 1189.54,-50.24 1215.12,-56.41 1306.34,-31 1308.93,-30.28 1311.59,-29.44 1314.24,-28.54"/>
<polygon fill="midnightblue" stroke="midnightblue" points="1315.45,-31.82 1323.63,-25.08 1313.03,-25.25 1315.45,-31.82"/>
</g>
<!-- Node9 -->
<g id="node9" class="node">
<title>Node9</title>
<g id="a_node9"><a xlink:title=" ">
<polygon fill="none" stroke="#bfbfbf" points="861.34,-6 861.34,-25 977.34,-25 977.34,-6 861.34,-6"/>
<text text-anchor="middle" x="919.34" y="-13" font-family="Helvetica,sans-Serif" font-size="10.00">seerep&#45;msgs/aabb.h</text>
</a>
</g>
</g>
<!-- Node8&#45;&gt;Node9 -->
<g id="edge10" class="edge">
<title>Node8&#45;&gt;Node9</title>
<path fill="none" stroke="midnightblue" d="M997.65,-67.4C980.88,-56.5 957.77,-41.48 941.01,-30.58"/>
<polygon fill="midnightblue" stroke="midnightblue" points="942.72,-27.52 932.43,-25.01 938.91,-33.39 942.72,-27.52"/>
</g>
<!-- Node8&#45;&gt;Node10 -->
<g id="edge12" class="edge">
<title>Node8&#45;&gt;Node10</title>
<path fill="none" stroke="midnightblue" d="M956.55,-76.66C919.29,-73.8 871.13,-70.14 828.34,-67 603.05,-50.45 546.4,-50.48 321.34,-31 296.72,-28.87 269.72,-26.2 245.94,-23.73"/>
<polygon fill="midnightblue" stroke="midnightblue" points="246.28,-20.25 235.97,-22.69 245.55,-27.21 246.28,-20.25"/>
</g>
<!-- Node11 -->
<g id="node11" class="node">
<title>Node11</title>
<g id="a_node11"><a xlink:title=" ">
<polygon fill="none" stroke="#bfbfbf" points="995.34,-6 995.34,-25 1043.34,-25 1043.34,-6 995.34,-6"/>
<text text-anchor="middle" x="1019.34" y="-13" font-family="Helvetica,sans-Serif" font-size="10.00">mutex</text>
</a>
</g>
</g>
<!-- Node8&#45;&gt;Node11 -->
<g id="edge13" class="edge">
<title>Node8&#45;&gt;Node11</title>
<path fill="none" stroke="midnightblue" d="M1019.34,-67.4C1019.34,-58.06 1019.34,-45.71 1019.34,-35.52"/>
<polygon fill="midnightblue" stroke="midnightblue" points="1022.84,-35.19 1019.34,-25.19 1015.84,-35.19 1022.84,-35.19"/>
</g>
<!-- Node12 -->
<g id="node12" class="node">
<title>Node12</title>
<g id="a_node12"><a xlink:title=" ">
<polygon fill="none" stroke="#bfbfbf" points="1061.84,-6 1061.84,-25 1130.84,-25 1130.84,-6 1061.84,-6"/>
<text text-anchor="middle" x="1096.34" y="-13" font-family="Helvetica,sans-Serif" font-size="10.00">type_traits</text>
</a>
</g>
</g>
<!-- Node8&#45;&gt;Node12 -->
<g id="edge15" class="edge">
<title>Node8&#45;&gt;Node12</title>
<path fill="none" stroke="midnightblue" d="M1036.05,-67.4C1048.53,-56.86 1065.57,-42.48 1078.35,-31.69"/>
<polygon fill="midnightblue" stroke="midnightblue" points="1080.66,-34.32 1086.04,-25.19 1076.15,-28.97 1080.66,-34.32"/>
</g>
<!-- Node13 -->
<g id="node13" class="node">
<title>Node13</title>
<g id="a_node13"><a xlink:title=" ">
<polygon fill="none" stroke="#bfbfbf" points="565.84,-0.5 565.84,-30.5 710.84,-30.5 710.84,-0.5 565.84,-0.5"/>
<text text-anchor="start" x="573.84" y="-18.5" font-family="Helvetica,sans-Serif" font-size="10.00">boost/log/sources/severity</text>
<text text-anchor="middle" x="638.34" y="-7.5" font-family="Helvetica,sans-Serif" font-size="10.00">_logger.hpp</text>
</a>
</g>
</g>
<!-- Node8&#45;&gt;Node13 -->
<g id="edge16" class="edge">
<title>Node8&#45;&gt;Node13</title>
<path fill="none" stroke="midnightblue" d="M956.61,-71.05C898.34,-61.31 808.86,-46.27 721.33,-31.16"/>
<polygon fill="midnightblue" stroke="midnightblue" points="721.67,-27.67 711.22,-29.42 720.47,-34.57 721.67,-27.67"/>
</g>
<!-- Node14 -->
<g id="node14" class="node">
<title>Node14</title>
<g id="a_node14"><a xlink:title=" ">
<polygon fill="none" stroke="#bfbfbf" points="729.34,-6 729.34,-25 843.34,-25 843.34,-6 729.34,-6"/>
<text text-anchor="middle" x="786.34" y="-13" font-family="Helvetica,sans-Serif" font-size="10.00">boost/log/trivial.hpp</text>
</a>
</g>
</g>
<!-- Node8&#45;&gt;Node14 -->
<g id="edge17" class="edge">
<title>Node8&#45;&gt;Node14</title>
<path fill="none" stroke="midnightblue" d="M969.07,-67.48C926.49,-55.6 866.23,-38.79 826.73,-27.77"/>
<polygon fill="midnightblue" stroke="midnightblue" points="827.49,-24.34 816.92,-25.03 825.61,-31.09 827.49,-24.34"/>
</g>
<!-- Node15 -->
<g id="node15" class="node">
<title>Node15</title>
<g id="a_node15"><a xlink:title=" ">
<polygon fill="none" stroke="#bfbfbf" points="1148.84,-6 1148.84,-25 1297.84,-25 1297.84,-6 1148.84,-6"/>
<text text-anchor="middle" x="1223.34" y="-13" font-family="Helvetica,sans-Serif" font-size="10.00">impl/hdf5&#45;core&#45;general.hpp</text>
</a>
</g>
</g>
<!-- Node8&#45;&gt;Node15 -->
<g id="edge18" class="edge">
<title>Node8&#45;&gt;Node15</title>
<path fill="none" stroke="midnightblue" d="M1063.36,-67.48C1100.24,-55.72 1152.28,-39.14 1186.87,-28.12"/>
<polygon fill="midnightblue" stroke="midnightblue" points="1188.11,-31.4 1196.58,-25.03 1185.99,-24.73 1188.11,-31.4"/>
</g>
<!-- Node20&#45;&gt;Node2 -->
<g id="edge28" class="edge">
<title>Node20&#45;&gt;Node2</title>
<path fill="none" stroke="midnightblue" d="M577.21,-148.56C490.27,-147.26 332.78,-139.13 297.34,-98 274.46,-71.44 319.75,-44.56 353.43,-29.27"/>
<polygon fill="midnightblue" stroke="midnightblue" points="355.23,-32.31 362.99,-25.1 352.42,-25.89 355.23,-32.31"/>
</g>
<!-- Node20&#45;&gt;Node7 -->
<g id="edge35" class="edge">
<title>Node20&#45;&gt;Node7</title>
<path fill="none" stroke="midnightblue" d="M693.47,-145.66C799.3,-139.88 1019.09,-125 1090.34,-98 1112.71,-89.52 1112.41,-76.54 1134.34,-67 1205.97,-35.86 1231.5,-53.33 1306.34,-31 1308.77,-30.28 1311.27,-29.46 1313.76,-28.59"/>
<polygon fill="midnightblue" stroke="midnightblue" points="1315.04,-31.85 1323.2,-25.1 1312.61,-25.29 1315.04,-31.85"/>
</g>
<!-- Node20&#45;&gt;Node8 -->
<g id="edge29" class="edge">
<title>Node20&#45;&gt;Node8</title>
<path fill="none" stroke="midnightblue" d="M693.41,-139.36C755.19,-129.53 855.77,-113.27 942.34,-98 943.81,-97.74 945.29,-97.48 946.78,-97.21"/>
<polygon fill="midnightblue" stroke="midnightblue" points="947.53,-100.63 956.75,-95.41 946.29,-93.74 947.53,-100.63"/>
</g>
<!-- Node20&#45;&gt;Node10 -->
<g id="edge33" class="edge">
<title>Node20&#45;&gt;Node10</title>
<path fill="none" stroke="midnightblue" d="M577.14,-148.14C430.16,-146.65 52.97,-138.82 15.34,-98 -19.08,-60.65 53.33,-38.18 112.64,-26.56"/>
<polygon fill="midnightblue" stroke="midnightblue" points="113.6,-29.94 122.78,-24.65 112.3,-23.06 113.6,-29.94"/>
</g>
<!-- Node20&#45;&gt;Node13 -->
<g id="edge36" class="edge">
<title>Node20&#45;&gt;Node13</title>
<path fill="none" stroke="midnightblue" d="M693.6,-146.52C729.19,-141.93 772.18,-129.6 795.34,-98 803.49,-86.89 803.46,-78.13 795.34,-67 785.48,-53.47 751.86,-41.76 718.25,-33.03"/>
<polygon fill="midnightblue" stroke="midnightblue" points="718.87,-29.58 708.32,-30.54 717.17,-36.37 718.87,-29.58"/>
</g>
<!-- Node20&#45;&gt;Node14 -->
<g id="edge37" class="edge">
<title>Node20&#45;&gt;Node14</title>
<path fill="none" stroke="midnightblue" d="M693.69,-139.66C739.81,-131.35 798.77,-117.28 813.34,-98 827.96,-78.66 813.11,-51 800.33,-33.39"/>
<polygon fill="midnightblue" stroke="midnightblue" points="802.88,-30.98 794,-25.2 797.34,-35.26 802.88,-30.98"/>
</g>
<!-- Node21 -->
<g id="node21" class="node">
<title>Node21</title>
<g id="a_node21"><a xlink:title=" ">
<polygon fill="none" stroke="#bfbfbf" points="306.34,-67.5 306.34,-97.5 464.34,-97.5 464.34,-67.5 306.34,-67.5"/>
<text text-anchor="start" x="314.34" y="-85.5" font-family="Helvetica,sans-Serif" font-size="10.00">seerep&#45;msgs/boundingbox2d</text>
<text text-anchor="middle" x="385.34" y="-74.5" font-family="Helvetica,sans-Serif" font-size="10.00">_labeled.pb.h</text>
</a>
</g>
</g>
<!-- Node20&#45;&gt;Node21 -->
<g id="edge30" class="edge">
<title>Node20&#45;&gt;Node21</title>
<path fill="none" stroke="midnightblue" d="M581.41,-134.48C542.68,-124.41 490.34,-110.8 449.48,-100.17"/>
<polygon fill="midnightblue" stroke="midnightblue" points="450.18,-96.74 439.62,-97.61 448.41,-103.51 450.18,-96.74"/>
</g>
<!-- Node22 -->
<g id="node22" class="node">
<title>Node22</title>
<g id="a_node22"><a xlink:title=" ">
<polygon fill="none" stroke="#bfbfbf" points="482.34,-67.5 482.34,-97.5 628.34,-97.5 628.34,-67.5 482.34,-67.5"/>
<text text-anchor="start" x="490.34" y="-85.5" font-family="Helvetica,sans-Serif" font-size="10.00">seerep&#45;msgs/boundingbox</text>
<text text-anchor="middle" x="555.34" y="-74.5" font-family="Helvetica,sans-Serif" font-size="10.00">_labeled.pb.h</text>
</a>
</g>
</g>
<!-- Node20&#45;&gt;Node22 -->
<g id="edge31" class="edge">
<title>Node20&#45;&gt;Node22</title>
<path fill="none" stroke="midnightblue" d="M617.99,-134.4C607.08,-125.54 592.83,-113.96 580.68,-104.09"/>
<polygon fill="midnightblue" stroke="midnightblue" points="582.64,-101.17 572.67,-97.58 578.22,-106.6 582.64,-101.17"/>
</g>
<!-- Node23 -->
<g id="node23" class="node">
<title>Node23</title>
<g id="a_node23"><a xlink:title=" ">
<polygon fill="none" stroke="#bfbfbf" points="646.34,-73 646.34,-92 786.34,-92 786.34,-73 646.34,-73"/>
<text text-anchor="middle" x="716.34" y="-80" font-family="Helvetica,sans-Serif" font-size="10.00">seerep&#45;msgs/header.pb.h</text>
</a>
</g>
</g>
<!-- Node20&#45;&gt;Node23 -->
<g id="edge32" class="edge">
<title>Node20&#45;&gt;Node23</title>
<path fill="none" stroke="midnightblue" d="M652.92,-134.4C666.05,-123.86 683.97,-109.48 697.42,-98.69"/>
<polygon fill="midnightblue" stroke="midnightblue" points="699.9,-101.18 705.51,-92.19 695.52,-95.72 699.9,-101.18"/>
</g>
<!-- Node24 -->
<g id="node24" class="node">
<title>Node24</title>
<g id="a_node24"><a xlink:title=" ">
<polygon fill="none" stroke="#bfbfbf" points="24.34,-73 24.34,-92 92.34,-92 92.34,-73 24.34,-73"/>
<text text-anchor="middle" x="58.34" y="-80" font-family="Helvetica,sans-Serif" font-size="10.00">filesystem</text>
</a>
</g>
</g>
<!-- Node20&#45;&gt;Node24 -->
<g id="edge34" class="edge">
<title>Node20&#45;&gt;Node24</title>
<path fill="none" stroke="midnightblue" d="M577,-147.37C478.09,-144.49 271.67,-134.26 101.34,-98 97.66,-97.22 93.85,-96.22 90.09,-95.12"/>
<polygon fill="midnightblue" stroke="midnightblue" points="90.98,-91.72 80.39,-92.02 88.85,-98.39 90.98,-91.72"/>
</g>
<!-- Node25 -->
<g id="node25" class="node">
<title>Node25</title>
<g id="a_node25"><a xlink:title=" ">
<polygon fill="none" stroke="#bfbfbf" points="110.34,-73 110.34,-92 250.34,-92 250.34,-73 110.34,-73"/>
<text text-anchor="middle" x="180.34" y="-80" font-family="Helvetica,sans-Serif" font-size="10.00">impl/hdf5&#45;pb&#45;general.hpp</text>
</a>
</g>
</g>
<!-- Node20&#45;&gt;Node25 -->
<g id="edge38" class="edge">
<title>Node20&#45;&gt;Node25</title>
<path fill="none" stroke="midnightblue" d="M577.1,-141.22C503.96,-131.94 374.68,-115.03 264.34,-98 255.74,-96.67 246.65,-95.19 237.75,-93.69"/>
<polygon fill="midnightblue" stroke="midnightblue" points="238.27,-90.23 227.83,-92 237.1,-97.13 238.27,-90.23"/>
</g>
</g>
</svg>
