<?xml version="1.0" encoding="UTF-8" standalone="no"?>
<!DOCTYPE svg PUBLIC "-//W3C//DTD SVG 1.1//EN"
 "http://www.w3.org/Graphics/SVG/1.1/DTD/svg11.dtd">
<!-- Generated by graphviz version 2.43.0 (0)
 -->
<!-- Title: seerep&#45;hdf5/seerep&#45;hdf5&#45;fb/src/hdf5&#45;fb&#45;general.cpp Pages: 1 -->
<svg width="1667pt" height="251pt"
 viewBox="0.00 0.00 1667.00 251.00" xmlns="http://www.w3.org/2000/svg" xmlns:xlink="http://www.w3.org/1999/xlink">
<g id="graph0" class="graph" transform="scale(1 1) rotate(0) translate(4 247)">
<title>seerep&#45;hdf5/seerep&#45;hdf5&#45;fb/src/hdf5&#45;fb&#45;general.cpp</title>
<!-- Node1 -->
<g id="node1" class="node">
<title>Node1</title>
<g id="a_node1"><a xlink:title=" ">
<polygon fill="#bfbfbf" stroke="black" points="850.5,-201.5 850.5,-242.5 961.5,-242.5 961.5,-201.5 850.5,-201.5"/>
<text text-anchor="start" x="858.5" y="-230.5" font-family="Helvetica,sans-Serif" font-size="10.00">seerep&#45;hdf5/seerep</text>
<text text-anchor="start" x="858.5" y="-219.5" font-family="Helvetica,sans-Serif" font-size="10.00">&#45;hdf5&#45;fb/src/hdf5&#45;fb</text>
<text text-anchor="middle" x="906" y="-208.5" font-family="Helvetica,sans-Serif" font-size="10.00">&#45;general.cpp</text>
</a>
</g>
</g>
<!-- Node2 -->
<g id="node2" class="node">
<title>Node2</title>
<g id="a_node2"><a xlink:href="hdf5-fb-general_8h.html" target="_top" xlink:title=" ">
<polygon fill="none" stroke="black" points="779.5,-134.5 779.5,-164.5 892.5,-164.5 892.5,-134.5 779.5,-134.5"/>
<text text-anchor="start" x="787.5" y="-152.5" font-family="Helvetica,sans-Serif" font-size="10.00">seerep&#45;hdf5&#45;fb/hdf5</text>
<text text-anchor="middle" x="836" y="-141.5" font-family="Helvetica,sans-Serif" font-size="10.00">&#45;fb&#45;general.h</text>
</a>
</g>
</g>
<!-- Node1&#45;&gt;Node2 -->
<g id="edge1" class="edge">
<title>Node1&#45;&gt;Node2</title>
<path fill="none" stroke="midnightblue" d="M886.5,-201.36C877.44,-192.23 866.63,-181.35 857.35,-172"/>
<polygon fill="midnightblue" stroke="midnightblue" points="859.82,-169.52 850.29,-164.89 854.85,-174.45 859.82,-169.52"/>
</g>
<!-- Node19 -->
<g id="node19" class="node">
<title>Node19</title>
<g id="a_node19"><a xlink:title=" ">
<polygon fill="none" stroke="#bfbfbf" points="911,-140 911,-159 1043,-159 1043,-140 911,-140"/>
<text text-anchor="middle" x="977" y="-147" font-family="Helvetica,sans-Serif" font-size="10.00">highfive/H5DataSet.hpp</text>
</a>
</g>
</g>
<!-- Node1&#45;&gt;Node19 -->
<g id="edge24" class="edge">
<title>Node1&#45;&gt;Node19</title>
<path fill="none" stroke="midnightblue" d="M925.78,-201.36C936.89,-190.32 950.59,-176.72 961.02,-166.37"/>
<polygon fill="midnightblue" stroke="midnightblue" points="963.64,-168.7 968.27,-159.17 958.7,-163.74 963.64,-168.7"/>
</g>
<!-- Node3 -->
<g id="node3" class="node">
<title>Node3</title>
<g id="a_node3"><a xlink:title=" ">
<polygon fill="none" stroke="#bfbfbf" points="0,-6 0,-25 110,-25 110,-6 0,-6"/>
<text text-anchor="middle" x="55" y="-13" font-family="Helvetica,sans-Serif" font-size="10.00">highfive/H5File.hpp</text>
</a>
</g>
</g>
<!-- Node2&#45;&gt;Node3 -->
<g id="edge2" class="edge">
<title>Node2&#45;&gt;Node3</title>
<path fill="none" stroke="midnightblue" d="M779.31,-143.96C696.3,-136.85 537.01,-121.43 403,-98 290.73,-78.37 160.42,-44.96 95.75,-27.64"/>
<polygon fill="midnightblue" stroke="midnightblue" points="96.52,-24.22 85.95,-25 94.7,-30.98 96.52,-24.22"/>
</g>
<!-- Node4 -->
<g id="node4" class="node">
<title>Node4</title>
<g id="a_node4"><a xlink:href="hdf5-core-general_8h.html" target="_top" xlink:title=" ">
<polygon fill="none" stroke="black" points="555.5,-67.5 555.5,-97.5 680.5,-97.5 680.5,-67.5 555.5,-67.5"/>
<text text-anchor="start" x="563.5" y="-85.5" font-family="Helvetica,sans-Serif" font-size="10.00">seerep&#45;hdf5&#45;core/hdf5</text>
<text text-anchor="middle" x="618" y="-74.5" font-family="Helvetica,sans-Serif" font-size="10.00">&#45;core&#45;general.h</text>
</a>
</g>
</g>
<!-- Node2&#45;&gt;Node4 -->
<g id="edge3" class="edge">
<title>Node2&#45;&gt;Node4</title>
<path fill="none" stroke="midnightblue" d="M788.97,-134.48C755.56,-124.51 710.52,-111.09 675.06,-100.51"/>
<polygon fill="midnightblue" stroke="midnightblue" points="675.91,-97.11 665.33,-97.61 673.91,-103.82 675.91,-97.11"/>
</g>
<!-- Node7 -->
<g id="node7" class="node">
<title>Node7</title>
<g id="a_node7"><a xlink:title=" ">
<polygon fill="none" stroke="#bfbfbf" points="128.5,-6 128.5,-25 241.5,-25 241.5,-6 128.5,-6"/>
<text text-anchor="middle" x="185" y="-13" font-family="Helvetica,sans-Serif" font-size="10.00">boost/geometry.hpp</text>
</a>
</g>
</g>
<!-- Node2&#45;&gt;Node7 -->
<g id="edge17" class="edge">
<title>Node2&#45;&gt;Node7</title>
<path fill="none" stroke="midnightblue" d="M779.44,-139.5C720.88,-129.99 626.81,-114.15 546,-98 431.69,-75.16 298.08,-43.76 229.94,-27.4"/>
<polygon fill="midnightblue" stroke="midnightblue" points="230.52,-23.94 219.98,-25 228.88,-30.75 230.52,-23.94"/>
</g>
<!-- Node8 -->
<g id="node8" class="node">
<title>Node8</title>
<g id="a_node8"><a xlink:title=" ">
<polygon fill="none" stroke="#bfbfbf" points="698,-6 698,-25 746,-25 746,-6 698,-6"/>
<text text-anchor="middle" x="722" y="-13" font-family="Helvetica,sans-Serif" font-size="10.00">mutex</text>
</a>
</g>
</g>
<!-- Node2&#45;&gt;Node8 -->
<g id="edge19" class="edge">
<title>Node2&#45;&gt;Node8</title>
<path fill="none" stroke="midnightblue" d="M816.38,-134.3C804.01,-124.82 788.14,-111.62 776,-98 758.06,-77.88 741.59,-51.35 731.68,-34.12"/>
<polygon fill="midnightblue" stroke="midnightblue" points="734.59,-32.16 726.64,-25.16 728.49,-35.59 734.59,-32.16"/>
</g>
<!-- Node9 -->
<g id="node9" class="node">
<title>Node9</title>
<g id="a_node9"><a xlink:title=" ">
<polygon fill="none" stroke="#bfbfbf" points="764,-6 764,-25 820,-25 820,-6 764,-6"/>
<text text-anchor="middle" x="792" y="-13" font-family="Helvetica,sans-Serif" font-size="10.00">optional</text>
</a>
</g>
</g>
<!-- Node2&#45;&gt;Node9 -->
<g id="edge20" class="edge">
<title>Node2&#45;&gt;Node9</title>
<path fill="none" stroke="midnightblue" d="M814.7,-134.38C803.27,-125.46 790.27,-112.84 784,-98 775.46,-77.81 780.11,-52.36 785.16,-35.33"/>
<polygon fill="midnightblue" stroke="midnightblue" points="788.6,-36.08 788.4,-25.49 781.95,-33.89 788.6,-36.08"/>
</g>
<!-- Node10 -->
<g id="node10" class="node">
<title>Node10</title>
<g id="a_node10"><a xlink:title=" ">
<polygon fill="none" stroke="#bfbfbf" points="838.5,-0.5 838.5,-30.5 983.5,-30.5 983.5,-0.5 838.5,-0.5"/>
<text text-anchor="start" x="846.5" y="-18.5" font-family="Helvetica,sans-Serif" font-size="10.00">boost/log/sources/severity</text>
<text text-anchor="middle" x="911" y="-7.5" font-family="Helvetica,sans-Serif" font-size="10.00">_logger.hpp</text>
</a>
</g>
</g>
<!-- Node2&#45;&gt;Node10 -->
<g id="edge21" class="edge">
<title>Node2&#45;&gt;Node10</title>
<path fill="none" stroke="midnightblue" d="M828.16,-134.23C819.92,-117.11 809.72,-88.09 822,-67 830.07,-53.15 843.5,-42.79 857.52,-35.18"/>
<polygon fill="midnightblue" stroke="midnightblue" points="859.39,-38.16 866.77,-30.56 856.26,-31.9 859.39,-38.16"/>
</g>
<!-- Node11 -->
<g id="node11" class="node">
<title>Node11</title>
<g id="a_node11"><a xlink:title=" ">
<polygon fill="none" stroke="#bfbfbf" points="1002,-6 1002,-25 1116,-25 1116,-6 1002,-6"/>
<text text-anchor="middle" x="1059" y="-13" font-family="Helvetica,sans-Serif" font-size="10.00">boost/log/trivial.hpp</text>
</a>
</g>
</g>
<!-- Node2&#45;&gt;Node11 -->
<g id="edge22" class="edge">
<title>Node2&#45;&gt;Node11</title>
<path fill="none" stroke="midnightblue" d="M835.13,-134.31C834.85,-116.18 837.25,-85 855,-67 860.54,-61.38 951.75,-40.3 1010.31,-27.21"/>
<polygon fill="midnightblue" stroke="midnightblue" points="1011.13,-30.62 1020.13,-25.03 1009.6,-23.79 1011.13,-30.62"/>
</g>
<!-- Node13 -->
<g id="node13" class="node">
<title>Node13</title>
<g id="a_node13"><a xlink:title=" ">
<polygon fill="none" stroke="#bfbfbf" points="864,-67.5 864,-97.5 1022,-97.5 1022,-67.5 864,-67.5"/>
<text text-anchor="start" x="872" y="-85.5" font-family="Helvetica,sans-Serif" font-size="10.00">seerep&#45;msgs/boundingbox2d</text>
<text text-anchor="middle" x="943" y="-74.5" font-family="Helvetica,sans-Serif" font-size="10.00">_labeled_generated.h</text>
</a>
</g>
</g>
<!-- Node2&#45;&gt;Node13 -->
<g id="edge13" class="edge">
<title>Node2&#45;&gt;Node13</title>
<path fill="none" stroke="midnightblue" d="M859.22,-134.4C874.36,-125.2 894.33,-113.07 910.97,-102.95"/>
<polygon fill="midnightblue" stroke="midnightblue" points="913.1,-105.76 919.83,-97.58 909.46,-99.78 913.1,-105.76"/>
</g>
<!-- Node14 -->
<g id="node14" class="node">
<title>Node14</title>
<g id="a_node14"><a xlink:title=" ">
<polygon fill="none" stroke="#bfbfbf" points="1040,-67.5 1040,-97.5 1186,-97.5 1186,-67.5 1040,-67.5"/>
<text text-anchor="start" x="1048" y="-85.5" font-family="Helvetica,sans-Serif" font-size="10.00">seerep&#45;msgs/boundingbox</text>
<text text-anchor="middle" x="1113" y="-74.5" font-family="Helvetica,sans-Serif" font-size="10.00">_labeled_generated.h</text>
</a>
</g>
</g>
<!-- Node2&#45;&gt;Node14 -->
<g id="edge14" class="edge">
<title>Node2&#45;&gt;Node14</title>
<path fill="none" stroke="midnightblue" d="M892.72,-135.19C936.22,-124.98 996.49,-110.84 1043,-99.93"/>
<polygon fill="midnightblue" stroke="midnightblue" points="1044.06,-103.27 1053,-97.58 1042.46,-96.46 1044.06,-103.27"/>
</g>
<!-- Node15 -->
<g id="node15" class="node">
<title>Node15</title>
<g id="a_node15"><a xlink:title=" ">
<polygon fill="none" stroke="#bfbfbf" points="1204.5,-73 1204.5,-92 1299.5,-92 1299.5,-73 1204.5,-73"/>
<text text-anchor="middle" x="1252" y="-80" font-family="Helvetica,sans-Serif" font-size="10.00">grpcpp/grpcpp.h</text>
</a>
</g>
</g>
<!-- Node2&#45;&gt;Node15 -->
<g id="edge15" class="edge">
<title>Node2&#45;&gt;Node15</title>
<path fill="none" stroke="midnightblue" d="M892.82,-135.66C895.92,-135.07 898.99,-134.51 902,-134 1031.33,-111.9 1066.05,-122.22 1195,-98 1200.39,-96.99 1206.04,-95.76 1211.58,-94.45"/>
<polygon fill="midnightblue" stroke="midnightblue" points="1212.52,-97.83 1221.39,-92.05 1210.85,-91.03 1212.52,-97.83"/>
</g>
<!-- Node16 -->
<g id="node16" class="node">
<title>Node16</title>
<g id="a_node16"><a xlink:title=" ">
<polygon fill="none" stroke="#bfbfbf" points="1317.5,-73 1317.5,-92 1416.5,-92 1416.5,-73 1317.5,-73"/>
<text text-anchor="middle" x="1367" y="-80" font-family="Helvetica,sans-Serif" font-size="10.00">flatbuffers/grpc.h</text>
</a>
</g>
</g>
<!-- Node2&#45;&gt;Node16 -->
<g id="edge16" class="edge">
<title>Node2&#45;&gt;Node16</title>
<path fill="none" stroke="midnightblue" d="M892.8,-135.54C895.9,-134.98 898.99,-134.46 902,-134 1081.49,-106.46 1129.92,-128.11 1309,-98 1314.84,-97.02 1320.95,-95.76 1326.93,-94.38"/>
<polygon fill="midnightblue" stroke="midnightblue" points="1327.89,-97.75 1336.79,-92.01 1326.24,-90.95 1327.89,-97.75"/>
</g>
<!-- Node17 -->
<g id="node17" class="node">
<title>Node17</title>
<g id="a_node17"><a xlink:title=" ">
<polygon fill="none" stroke="#bfbfbf" points="1435,-73 1435,-92 1503,-92 1503,-73 1435,-73"/>
<text text-anchor="middle" x="1469" y="-80" font-family="Helvetica,sans-Serif" font-size="10.00">filesystem</text>
</a>
</g>
</g>
<!-- Node2&#45;&gt;Node17 -->
<g id="edge18" class="edge">
<title>Node2&#45;&gt;Node17</title>
<path fill="none" stroke="midnightblue" d="M892.78,-135.47C895.89,-134.93 898.98,-134.43 902,-134 1133.07,-100.86 1197.07,-143.67 1426,-98 1429.69,-97.26 1433.51,-96.3 1437.27,-95.21"/>
<polygon fill="midnightblue" stroke="midnightblue" points="1438.5,-98.49 1446.98,-92.13 1436.39,-91.82 1438.5,-98.49"/>
</g>
<!-- Node18 -->
<g id="node18" class="node">
<title>Node18</title>
<g id="a_node18"><a xlink:title=" ">
<polygon fill="none" stroke="#bfbfbf" points="1521,-73 1521,-92 1659,-92 1659,-73 1521,-73"/>
<text text-anchor="middle" x="1590" y="-80" font-family="Helvetica,sans-Serif" font-size="10.00">impl/hdf5&#45;fb&#45;general.hpp</text>
</a>
</g>
</g>
<!-- Node2&#45;&gt;Node18 -->
<g id="edge23" class="edge">
<title>Node2&#45;&gt;Node18</title>
<path fill="none" stroke="midnightblue" d="M892.78,-135.43C895.89,-134.9 898.98,-134.42 902,-134 1171.02,-96.75 1242.42,-130.88 1512,-98 1520.84,-96.92 1530.19,-95.46 1539.23,-93.88"/>
<polygon fill="midnightblue" stroke="midnightblue" points="1540.05,-97.29 1549.26,-92.07 1538.8,-90.41 1540.05,-97.29"/>
</g>
<!-- Node4&#45;&gt;Node3 -->
<g id="edge4" class="edge">
<title>Node4&#45;&gt;Node3</title>
<path fill="none" stroke="midnightblue" d="M555.44,-77.63C460.61,-71.21 274.98,-56.46 119,-31 112.58,-29.95 105.84,-28.65 99.24,-27.26"/>
<polygon fill="midnightblue" stroke="midnightblue" points="99.58,-23.75 89.06,-25.03 98.08,-30.59 99.58,-23.75"/>
</g>
<!-- Node5 -->
<g id="node5" class="node">
<title>Node5</title>
<g id="a_node5"><a xlink:title=" ">
<polygon fill="none" stroke="#bfbfbf" points="260,-6 260,-25 376,-25 376,-6 260,-6"/>
<text text-anchor="middle" x="318" y="-13" font-family="Helvetica,sans-Serif" font-size="10.00">seerep&#45;msgs/aabb.h</text>
</a>
</g>
</g>
<!-- Node4&#45;&gt;Node5 -->
<g id="edge5" class="edge">
<title>Node4&#45;&gt;Node5</title>
<path fill="none" stroke="midnightblue" d="M555.48,-67.95C499.61,-55.85 418.87,-38.35 367.41,-27.21"/>
<polygon fill="midnightblue" stroke="midnightblue" points="368.04,-23.76 357.53,-25.06 366.56,-30.6 368.04,-23.76"/>
</g>
<!-- Node6 -->
<g id="node6" class="node">
<title>Node6</title>
<g id="a_node6"><a xlink:title=" ">
<polygon fill="none" stroke="#bfbfbf" points="394.5,-0.5 394.5,-30.5 513.5,-30.5 513.5,-0.5 394.5,-0.5"/>
<text text-anchor="start" x="402.5" y="-18.5" font-family="Helvetica,sans-Serif" font-size="10.00">seerep&#45;msgs/dataset</text>
<text text-anchor="middle" x="454" y="-7.5" font-family="Helvetica,sans-Serif" font-size="10.00">&#45;indexable.h</text>
</a>
</g>
</g>
<!-- Node4&#45;&gt;Node6 -->
<g id="edge6" class="edge">
<title>Node4&#45;&gt;Node6</title>
<path fill="none" stroke="midnightblue" d="M582.41,-67.4C557.91,-57.69 525.17,-44.71 498.88,-34.29"/>
<polygon fill="midnightblue" stroke="midnightblue" points="500.1,-31.01 489.52,-30.58 497.52,-37.51 500.1,-31.01"/>
</g>
<!-- Node4&#45;&gt;Node7 -->
<g id="edge7" class="edge">
<title>Node4&#45;&gt;Node7</title>
<path fill="none" stroke="midnightblue" d="M555.42,-74.43C482.18,-65.79 357.37,-49.97 251,-31 244.71,-29.88 238.11,-28.58 231.61,-27.22"/>
<polygon fill="midnightblue" stroke="midnightblue" points="232.06,-23.74 221.55,-25.07 230.6,-30.59 232.06,-23.74"/>
</g>
<!-- Node4&#45;&gt;Node8 -->
<g id="edge8" class="edge">
<title>Node4&#45;&gt;Node8</title>
<path fill="none" stroke="midnightblue" d="M640.57,-67.4C658.01,-56.5 682.03,-41.48 699.47,-30.58"/>
<polygon fill="midnightblue" stroke="midnightblue" points="701.76,-33.28 708.39,-25.01 698.05,-27.34 701.76,-33.28"/>
</g>
<!-- Node4&#45;&gt;Node9 -->
<g id="edge9" class="edge">
<title>Node4&#45;&gt;Node9</title>
<path fill="none" stroke="midnightblue" d="M656.76,-67.45C684.24,-57.43 721.95,-43.57 755,-31 756.89,-30.28 758.82,-29.54 760.78,-28.79"/>
<polygon fill="midnightblue" stroke="midnightblue" points="762.45,-31.89 770.51,-25.01 759.92,-25.37 762.45,-31.89"/>
</g>
<!-- Node4&#45;&gt;Node10 -->
<g id="edge10" class="edge">
<title>Node4&#45;&gt;Node10</title>
<path fill="none" stroke="midnightblue" d="M680.86,-67.56C726.95,-57.33 789.65,-43.42 837.97,-32.7"/>
<polygon fill="midnightblue" stroke="midnightblue" points="838.74,-36.12 847.74,-30.53 837.22,-29.28 838.74,-36.12"/>
</g>
<!-- Node4&#45;&gt;Node11 -->
<g id="edge11" class="edge">
<title>Node4&#45;&gt;Node11</title>
<path fill="none" stroke="midnightblue" d="M680.61,-74.67C755.27,-66.15 883.68,-50.34 993,-31 999.37,-29.87 1006.05,-28.56 1012.63,-27.19"/>
<polygon fill="midnightblue" stroke="midnightblue" points="1013.75,-30.53 1022.8,-25.02 1012.29,-23.69 1013.75,-30.53"/>
</g>
<!-- Node12 -->
<g id="node12" class="node">
<title>Node12</title>
<g id="a_node12"><a xlink:title=" ">
<polygon fill="none" stroke="#bfbfbf" points="531.5,-6 531.5,-25 680.5,-25 680.5,-6 531.5,-6"/>
<text text-anchor="middle" x="606" y="-13" font-family="Helvetica,sans-Serif" font-size="10.00">impl/hdf5&#45;core&#45;general.hpp</text>
</a>
</g>
</g>
<!-- Node4&#45;&gt;Node12 -->
<g id="edge12" class="edge">
<title>Node4&#45;&gt;Node12</title>
<path fill="none" stroke="midnightblue" d="M615.4,-67.4C613.65,-57.96 611.34,-45.45 609.45,-35.19"/>
<polygon fill="midnightblue" stroke="midnightblue" points="612.86,-34.39 607.61,-25.19 605.98,-35.66 612.86,-34.39"/>
</g>
</g>
</svg>
