<?xml version="1.0" encoding="UTF-8" standalone="no"?>
<!DOCTYPE svg PUBLIC "-//W3C//DTD SVG 1.1//EN"
 "http://www.w3.org/Graphics/SVG/1.1/DTD/svg11.dtd">
<!-- Generated by graphviz version 2.43.0 (0)
 -->
<!-- Title: seerep&#45;hdf5/seerep&#45;hdf5&#45;fb/include/seerep&#45;hdf5&#45;fb/hdf5&#45;fb&#45;pointcloud.h Pages: 1 -->
<svg width="3493pt" height="273pt"
 viewBox="0.00 0.00 3493.00 273.00" xmlns="http://www.w3.org/2000/svg" xmlns:xlink="http://www.w3.org/1999/xlink">
<g id="graph0" class="graph" transform="scale(1 1) rotate(0) translate(4 269)">
<title>seerep&#45;hdf5/seerep&#45;hdf5&#45;fb/include/seerep&#45;hdf5&#45;fb/hdf5&#45;fb&#45;pointcloud.h</title>
<!-- Node1 -->
<g id="node1" class="node">
<title>Node1</title>
<g id="a_node1"><a xlink:title=" ">
<polygon fill="#bfbfbf" stroke="black" points="2647.5,-223.5 2647.5,-264.5 2805.5,-264.5 2805.5,-223.5 2647.5,-223.5"/>
<text text-anchor="start" x="2655.5" y="-252.5" font-family="Helvetica,sans-Serif" font-size="10.00">seerep&#45;hdf5/seerep</text>
<text text-anchor="start" x="2655.5" y="-241.5" font-family="Helvetica,sans-Serif" font-size="10.00">&#45;hdf5&#45;fb/include/seerep</text>
<text text-anchor="middle" x="2726.5" y="-230.5" font-family="Helvetica,sans-Serif" font-size="10.00">&#45;hdf5&#45;fb/hdf5&#45;fb&#45;pointcloud.h</text>
</a>
</g>
</g>
<!-- Node2 -->
<g id="node2" class="node">
<title>Node2</title>
<g id="a_node2"><a xlink:title=" ">
<polygon fill="none" stroke="#bfbfbf" points="2380.5,-11.5 2380.5,-30.5 2490.5,-30.5 2490.5,-11.5 2380.5,-11.5"/>
<text text-anchor="middle" x="2435.5" y="-18.5" font-family="Helvetica,sans-Serif" font-size="10.00">highfive/H5File.hpp</text>
</a>
</g>
</g>
<!-- Node1&#45;&gt;Node2 -->
<g id="edge1" class="edge">
<title>Node1&#45;&gt;Node2</title>
<path fill="none" stroke="midnightblue" d="M2718.17,-223.49C2699.91,-180.92 2657.52,-83.06 2651.5,-78 2628.57,-58.73 2554.54,-42.31 2499.5,-32.32"/>
<polygon fill="midnightblue" stroke="midnightblue" points="2499.92,-28.84 2489.46,-30.54 2498.69,-35.74 2499.92,-28.84"/>
</g>
<!-- Node3 -->
<g id="node3" class="node">
<title>Node3</title>
<g id="a_node3"><a xlink:href="hdf5-core-point-cloud_8h.html" target="_top" xlink:title=" ">
<polygon fill="none" stroke="black" points="533,-156.5 533,-186.5 658,-186.5 658,-156.5 533,-156.5"/>
<text text-anchor="start" x="541" y="-174.5" font-family="Helvetica,sans-Serif" font-size="10.00">seerep&#45;hdf5&#45;core/hdf5</text>
<text text-anchor="middle" x="595.5" y="-163.5" font-family="Helvetica,sans-Serif" font-size="10.00">&#45;core&#45;point&#45;cloud.h</text>
</a>
</g>
</g>
<!-- Node1&#45;&gt;Node3 -->
<g id="edge2" class="edge">
<title>Node1&#45;&gt;Node3</title>
<path fill="none" stroke="midnightblue" d="M2647.49,-240.39C2310.21,-229.23 993.47,-185.67 668.37,-174.91"/>
<polygon fill="midnightblue" stroke="midnightblue" points="668.24,-171.4 658.13,-174.57 668.01,-178.4 668.24,-171.4"/>
</g>
<!-- Node7 -->
<g id="node7" class="node">
<title>Node7</title>
<g id="a_node7"><a xlink:title=" ">
<polygon fill="none" stroke="#bfbfbf" points="137.5,-11.5 137.5,-30.5 193.5,-30.5 193.5,-11.5 137.5,-11.5"/>
<text text-anchor="middle" x="165.5" y="-18.5" font-family="Helvetica,sans-Serif" font-size="10.00">optional</text>
</a>
</g>
</g>
<!-- Node1&#45;&gt;Node7 -->
<g id="edge63" class="edge">
<title>Node1&#45;&gt;Node7</title>
<path fill="none" stroke="midnightblue" d="M2647.25,-242.82C2304.44,-241.78 947.41,-234.67 523.5,-187 373.48,-170.13 299.95,-223.98 190.5,-120 168.82,-99.4 164.92,-62.84 164.74,-40.67"/>
<polygon fill="midnightblue" stroke="midnightblue" points="168.24,-40.6 164.91,-30.54 161.24,-40.48 168.24,-40.6"/>
</g>
<!-- Node12 -->
<g id="node12" class="node">
<title>Node12</title>
<g id="a_node12"><a xlink:title=" ">
<polygon fill="none" stroke="#bfbfbf" points="2576,-11.5 2576,-30.5 2689,-30.5 2689,-11.5 2576,-11.5"/>
<text text-anchor="middle" x="2632.5" y="-18.5" font-family="Helvetica,sans-Serif" font-size="10.00">boost/geometry.hpp</text>
</a>
</g>
</g>
<!-- Node1&#45;&gt;Node12 -->
<g id="edge62" class="edge">
<title>Node1&#45;&gt;Node12</title>
<path fill="none" stroke="midnightblue" d="M2722.08,-223.34C2714.43,-191.52 2696.97,-127.31 2670.5,-78 2663.12,-64.25 2653.17,-49.7 2645.3,-38.87"/>
<polygon fill="midnightblue" stroke="midnightblue" points="2648.05,-36.7 2639.29,-30.76 2642.43,-40.87 2648.05,-36.7"/>
</g>
<!-- Node22 -->
<g id="node22" class="node">
<title>Node22</title>
<g id="a_node22"><a xlink:href="hdf5-fb-general_8h.html" target="_top" xlink:title=" ">
<polygon fill="none" stroke="black" points="1811,-156.5 1811,-186.5 1924,-186.5 1924,-156.5 1811,-156.5"/>
<text text-anchor="start" x="1819" y="-174.5" font-family="Helvetica,sans-Serif" font-size="10.00">seerep&#45;hdf5&#45;fb/hdf5</text>
<text text-anchor="middle" x="1867.5" y="-163.5" font-family="Helvetica,sans-Serif" font-size="10.00">&#45;fb&#45;general.h</text>
</a>
</g>
</g>
<!-- Node1&#45;&gt;Node22 -->
<g id="edge34" class="edge">
<title>Node1&#45;&gt;Node22</title>
<path fill="none" stroke="midnightblue" d="M2647.23,-236.49C2479.44,-222.72 2091.03,-190.85 1934.58,-178.01"/>
<polygon fill="midnightblue" stroke="midnightblue" points="1934.43,-174.48 1924.17,-177.15 1933.85,-181.46 1934.43,-174.48"/>
</g>
<!-- Node34 -->
<g id="node34" class="node">
<title>Node34</title>
<g id="a_node34"><a xlink:href="hdf5-fb-point-cloud2-iterator_8h.html" target="_top" xlink:title=" ">
<polygon fill="none" stroke="black" points="3014,-156.5 3014,-186.5 3157,-186.5 3157,-156.5 3014,-156.5"/>
<text text-anchor="start" x="3022" y="-174.5" font-family="Helvetica,sans-Serif" font-size="10.00">seerep&#45;hdf5&#45;fb/hdf5</text>
<text text-anchor="middle" x="3085.5" y="-163.5" font-family="Helvetica,sans-Serif" font-size="10.00">&#45;fb&#45;point&#45;cloud2&#45;iterator.h</text>
</a>
</g>
</g>
<!-- Node1&#45;&gt;Node34 -->
<g id="edge53" class="edge">
<title>Node1&#45;&gt;Node34</title>
<path fill="none" stroke="midnightblue" d="M2805.73,-227.44C2864.58,-215.88 2944.6,-200.17 3003.99,-188.51"/>
<polygon fill="midnightblue" stroke="midnightblue" points="3004.95,-191.89 3014.08,-186.52 3003.6,-185.02 3004.95,-191.89"/>
</g>
<!-- Node36 -->
<g id="node36" class="node">
<title>Node36</title>
<g id="a_node36"><a xlink:title=" ">
<polygon fill="none" stroke="#bfbfbf" points="2793,-84 2793,-114 2932,-114 2932,-84 2793,-84"/>
<text text-anchor="start" x="2801" y="-102" font-family="Helvetica,sans-Serif" font-size="10.00">seerep&#45;msgs/point_cloud</text>
<text text-anchor="middle" x="2862.5" y="-91" font-family="Helvetica,sans-Serif" font-size="10.00">_2_generated.h</text>
</a>
</g>
</g>
<!-- Node1&#45;&gt;Node36 -->
<g id="edge60" class="edge">
<title>Node1&#45;&gt;Node36</title>
<path fill="none" stroke="midnightblue" d="M2745.13,-223.42C2770.42,-196.82 2815.48,-149.44 2841.81,-121.76"/>
<polygon fill="midnightblue" stroke="midnightblue" points="2844.66,-123.84 2849.02,-114.18 2839.59,-119.01 2844.66,-123.84"/>
</g>
<!-- Node41 -->
<g id="node41" class="node">
<title>Node41</title>
<g id="a_node41"><a xlink:title=" ">
<polygon fill="none" stroke="#bfbfbf" points="3175.5,-156.5 3175.5,-186.5 3309.5,-186.5 3309.5,-156.5 3175.5,-156.5"/>
<text text-anchor="start" x="3183.5" y="-174.5" font-family="Helvetica,sans-Serif" font-size="10.00">seerep&#45;com/point_cloud</text>
<text text-anchor="middle" x="3242.5" y="-163.5" font-family="Helvetica,sans-Serif" font-size="10.00">_service.grpc.fb.h</text>
</a>
</g>
</g>
<!-- Node1&#45;&gt;Node41 -->
<g id="edge61" class="edge">
<title>Node1&#45;&gt;Node41</title>
<path fill="none" stroke="midnightblue" d="M2805.8,-234.4C2891.9,-224.73 3033.69,-207.82 3165.53,-187.1"/>
<polygon fill="midnightblue" stroke="midnightblue" points="3166.07,-190.55 3175.4,-185.53 3164.98,-183.64 3166.07,-190.55"/>
</g>
<!-- Node3&#45;&gt;Node2 -->
<g id="edge3" class="edge">
<title>Node3&#45;&gt;Node2</title>
<path fill="none" stroke="midnightblue" d="M658.17,-167.99C712.3,-163.6 791.23,-151.75 852.5,-120 876.5,-107.56 871.54,-88.39 896.5,-78 1034,-20.75 2087.86,-51.45 2236.5,-42 2281.19,-39.16 2331.36,-34.1 2370.15,-29.79"/>
<polygon fill="midnightblue" stroke="midnightblue" points="2370.71,-33.24 2380.26,-28.65 2369.93,-26.29 2370.71,-33.24"/>
</g>
<!-- Node4 -->
<g id="node4" class="node">
<title>Node4</title>
<g id="a_node4"><a xlink:href="hdf5-core-datatype-interface_8h.html" target="_top" xlink:title=" ">
<polygon fill="none" stroke="black" points="200,-84 200,-114 345,-114 345,-84 200,-84"/>
<text text-anchor="start" x="208" y="-102" font-family="Helvetica,sans-Serif" font-size="10.00">seerep&#45;hdf5&#45;core/hdf5</text>
<text text-anchor="middle" x="272.5" y="-91" font-family="Helvetica,sans-Serif" font-size="10.00">&#45;core&#45;datatype&#45;interface.h</text>
</a>
</g>
</g>
<!-- Node3&#45;&gt;Node4 -->
<g id="edge4" class="edge">
<title>Node3&#45;&gt;Node4</title>
<path fill="none" stroke="midnightblue" d="M532.84,-156.82C479.53,-145.19 402.89,-128.46 346.56,-116.16"/>
<polygon fill="midnightblue" stroke="midnightblue" points="347.16,-112.71 336.64,-114 345.67,-119.55 347.16,-112.71"/>
</g>
<!-- Node5 -->
<g id="node5" class="node">
<title>Node5</title>
<g id="a_node5"><a xlink:title=" ">
<polygon fill="none" stroke="#bfbfbf" points="0,-6 0,-36 119,-36 119,-6 0,-6"/>
<text text-anchor="start" x="8" y="-24" font-family="Helvetica,sans-Serif" font-size="10.00">seerep&#45;msgs/dataset</text>
<text text-anchor="middle" x="59.5" y="-13" font-family="Helvetica,sans-Serif" font-size="10.00">&#45;indexable.h</text>
</a>
</g>
</g>
<!-- Node3&#45;&gt;Node5 -->
<g id="edge26" class="edge">
<title>Node3&#45;&gt;Node5</title>
<path fill="none" stroke="midnightblue" d="M532.95,-166.63C435.23,-159.92 251.21,-144.47 190.5,-120 146.76,-102.37 104.65,-66.39 80.46,-43.27"/>
<polygon fill="midnightblue" stroke="midnightblue" points="82.86,-40.73 73.26,-36.26 77.98,-45.74 82.86,-40.73"/>
</g>
<!-- Node6 -->
<g id="node6" class="node">
<title>Node6</title>
<g id="a_node6"><a xlink:title=" ">
<polygon fill="none" stroke="#bfbfbf" points="212,-11.5 212,-30.5 325,-30.5 325,-11.5 212,-11.5"/>
<text text-anchor="middle" x="268.5" y="-18.5" font-family="Helvetica,sans-Serif" font-size="10.00">boost/uuid/uuid.hpp</text>
</a>
</g>
</g>
<!-- Node3&#45;&gt;Node6 -->
<g id="edge31" class="edge">
<title>Node3&#45;&gt;Node6</title>
<path fill="none" stroke="midnightblue" d="M564.06,-156.42C542.77,-146.67 514.15,-133.13 489.5,-120 457.14,-102.76 451.58,-93.81 418.5,-78 381.09,-60.13 336.36,-44.07 305.54,-33.78"/>
<polygon fill="midnightblue" stroke="midnightblue" points="306.24,-30.33 295.65,-30.52 304.05,-36.98 306.24,-30.33"/>
</g>
<!-- Node3&#45;&gt;Node7 -->
<g id="edge28" class="edge">
<title>Node3&#45;&gt;Node7</title>
<path fill="none" stroke="midnightblue" d="M532.88,-157.42C498.27,-149.03 455.02,-136.56 418.5,-120 387.18,-105.79 385.13,-91.52 353.5,-78 290.06,-50.89 266.95,-66.61 202.5,-42 197.8,-40.21 192.95,-37.93 188.38,-35.56"/>
<polygon fill="midnightblue" stroke="midnightblue" points="189.95,-32.43 179.49,-30.69 186.58,-38.57 189.95,-32.43"/>
</g>
<!-- Node8 -->
<g id="node8" class="node">
<title>Node8</title>
<g id="a_node8"><a xlink:href="hdf5-core-general_8h.html" target="_top" xlink:title=" ">
<polygon fill="none" stroke="black" points="719,-84 719,-114 844,-114 844,-84 719,-84"/>
<text text-anchor="start" x="727" y="-102" font-family="Helvetica,sans-Serif" font-size="10.00">seerep&#45;hdf5&#45;core/hdf5</text>
<text text-anchor="middle" x="781.5" y="-91" font-family="Helvetica,sans-Serif" font-size="10.00">&#45;core&#45;general.h</text>
</a>
</g>
</g>
<!-- Node3&#45;&gt;Node8 -->
<g id="edge8" class="edge">
<title>Node3&#45;&gt;Node8</title>
<path fill="none" stroke="midnightblue" d="M632.69,-156.4C662.09,-145.26 703.3,-129.64 734.9,-117.66"/>
<polygon fill="midnightblue" stroke="midnightblue" points="736.26,-120.89 744.37,-114.07 733.78,-114.34 736.26,-120.89"/>
</g>
<!-- Node3&#45;&gt;Node12 -->
<g id="edge27" class="edge">
<title>Node3&#45;&gt;Node12</title>
<path fill="none" stroke="midnightblue" d="M658.19,-162.91C717.98,-154.92 810.26,-140.62 888.5,-120 941.93,-105.92 951.19,-88.13 1005.5,-78 1331.97,-17.12 2168.65,-70.75 2499.5,-42 2524.53,-39.83 2552.01,-35.95 2575.46,-32.18"/>
<polygon fill="midnightblue" stroke="midnightblue" points="2576.28,-35.59 2585.58,-30.52 2575.15,-28.68 2576.28,-35.59"/>
</g>
<!-- Node17 -->
<g id="node17" class="node">
<title>Node17</title>
<g id="a_node17"><a xlink:title=" ">
<polygon fill="none" stroke="#bfbfbf" points="532,-11.5 532,-30.5 675,-30.5 675,-11.5 532,-11.5"/>
<text text-anchor="middle" x="603.5" y="-18.5" font-family="Helvetica,sans-Serif" font-size="10.00">boost/functional/hash.hpp</text>
</a>
</g>
</g>
<!-- Node3&#45;&gt;Node17 -->
<g id="edge29" class="edge">
<title>Node3&#45;&gt;Node17</title>
<path fill="none" stroke="midnightblue" d="M596.27,-156.26C597.72,-129.35 600.86,-71.04 602.48,-40.9"/>
<polygon fill="midnightblue" stroke="midnightblue" points="605.98,-41.02 603.02,-30.85 598.99,-40.64 605.98,-41.02"/>
</g>
<!-- Node18 -->
<g id="node18" class="node">
<title>Node18</title>
<g id="a_node18"><a xlink:title=" ">
<polygon fill="none" stroke="#bfbfbf" points="693,-11.5 693,-30.5 818,-30.5 818,-11.5 693,-11.5"/>
<text text-anchor="middle" x="755.5" y="-18.5" font-family="Helvetica,sans-Serif" font-size="10.00">boost/lexical_cast.hpp</text>
</a>
</g>
</g>
<!-- Node3&#45;&gt;Node18 -->
<g id="edge30" class="edge">
<title>Node3&#45;&gt;Node18</title>
<path fill="none" stroke="midnightblue" d="M606.12,-156.42C620.78,-137.45 648.61,-103.17 676.5,-78 694.03,-62.18 716.1,-46.87 732.45,-36.26"/>
<polygon fill="midnightblue" stroke="midnightblue" points="734.79,-38.92 741.35,-30.59 731.03,-33.02 734.79,-38.92"/>
</g>
<!-- Node19 -->
<g id="node19" class="node">
<title>Node19</title>
<g id="a_node19"><a xlink:title=" ">
<polygon fill="none" stroke="#bfbfbf" points="343.5,-11.5 343.5,-30.5 513.5,-30.5 513.5,-11.5 343.5,-11.5"/>
<text text-anchor="middle" x="428.5" y="-18.5" font-family="Helvetica,sans-Serif" font-size="10.00">boost/uuid/uuid_generators.hpp</text>
</a>
</g>
</g>
<!-- Node3&#45;&gt;Node19 -->
<g id="edge32" class="edge">
<title>Node3&#45;&gt;Node19</title>
<path fill="none" stroke="midnightblue" d="M579.49,-156.26C548.16,-128.41 478.99,-66.89 446.29,-37.82"/>
<polygon fill="midnightblue" stroke="midnightblue" points="448.25,-34.88 438.45,-30.85 443.6,-40.11 448.25,-34.88"/>
</g>
<!-- Node20 -->
<g id="node20" class="node">
<title>Node20</title>
<g id="a_node20"><a xlink:title=" ">
<polygon fill="none" stroke="#bfbfbf" points="836,-11.5 836,-30.5 963,-30.5 963,-11.5 836,-11.5"/>
<text text-anchor="middle" x="899.5" y="-18.5" font-family="Helvetica,sans-Serif" font-size="10.00">boost/uuid/uuid_io.hpp</text>
</a>
</g>
</g>
<!-- Node3&#45;&gt;Node20 -->
<g id="edge33" class="edge">
<title>Node3&#45;&gt;Node20</title>
<path fill="none" stroke="midnightblue" d="M619.87,-156.46C635.35,-147.04 655.41,-133.85 671.5,-120 690.58,-103.57 688.19,-91.39 709.5,-78 715.96,-73.94 804.86,-48.57 858.73,-33.41"/>
<polygon fill="midnightblue" stroke="midnightblue" points="860,-36.69 868.68,-30.61 858.11,-29.95 860,-36.69"/>
</g>
<!-- Node4&#45;&gt;Node5 -->
<g id="edge5" class="edge">
<title>Node4&#45;&gt;Node5</title>
<path fill="none" stroke="midnightblue" d="M232.94,-83.88C197.82,-71.35 146.36,-52.99 108.62,-39.53"/>
<polygon fill="midnightblue" stroke="midnightblue" points="109.45,-36.11 98.85,-36.04 107.09,-42.7 109.45,-36.11"/>
</g>
<!-- Node4&#45;&gt;Node6 -->
<g id="edge6" class="edge">
<title>Node4&#45;&gt;Node6</title>
<path fill="none" stroke="midnightblue" d="M271.75,-83.7C271.11,-71.6 270.19,-54.15 269.49,-40.89"/>
<polygon fill="midnightblue" stroke="midnightblue" points="272.97,-40.37 268.95,-30.56 265.98,-40.73 272.97,-40.37"/>
</g>
<!-- Node4&#45;&gt;Node7 -->
<g id="edge7" class="edge">
<title>Node4&#45;&gt;Node7</title>
<path fill="none" stroke="midnightblue" d="M252.62,-83.88C233.63,-70.39 205.14,-50.15 185.95,-36.53"/>
<polygon fill="midnightblue" stroke="midnightblue" points="187.8,-33.54 177.62,-30.61 183.74,-39.25 187.8,-33.54"/>
</g>
<!-- Node8&#45;&gt;Node2 -->
<g id="edge9" class="edge">
<title>Node8&#45;&gt;Node2</title>
<path fill="none" stroke="midnightblue" d="M828.8,-83.91C838.54,-81.52 848.79,-79.37 858.5,-78 1161.82,-35.22 1930.78,-61.33 2236.5,-42 2281.19,-39.17 2331.36,-34.12 2370.15,-29.8"/>
<polygon fill="midnightblue" stroke="midnightblue" points="2370.72,-33.26 2380.26,-28.66 2369.93,-26.3 2370.72,-33.26"/>
</g>
<!-- Node8&#45;&gt;Node5 -->
<g id="edge11" class="edge">
<title>Node8&#45;&gt;Node5</title>
<path fill="none" stroke="midnightblue" d="M718.83,-96.71C601.85,-93.41 342.73,-81.83 128.5,-42 123.42,-41.06 118.17,-39.89 112.95,-38.61"/>
<polygon fill="midnightblue" stroke="midnightblue" points="113.55,-35.15 102.99,-36.01 111.78,-41.92 113.55,-35.15"/>
</g>
<!-- Node8&#45;&gt;Node6 -->
<g id="edge22" class="edge">
<title>Node8&#45;&gt;Node6</title>
<path fill="none" stroke="midnightblue" d="M718.95,-86.37C701.96,-83.42 683.56,-80.41 666.5,-78 519.53,-57.27 479.93,-71.65 334.5,-42 323.94,-39.85 312.65,-36.74 302.45,-33.61"/>
<polygon fill="midnightblue" stroke="midnightblue" points="303.26,-30.19 292.67,-30.51 301.14,-36.87 303.26,-30.19"/>
</g>
<!-- Node8&#45;&gt;Node7 -->
<g id="edge16" class="edge">
<title>Node8&#45;&gt;Node7</title>
<path fill="none" stroke="midnightblue" d="M718.99,-86.02C702.01,-83.07 683.59,-80.14 666.5,-78 461.27,-52.25 400.91,-100.45 202.5,-42 197.29,-40.47 191.99,-38.14 187.09,-35.6"/>
<polygon fill="midnightblue" stroke="midnightblue" points="188.71,-32.5 178.28,-30.63 185.27,-38.59 188.71,-32.5"/>
</g>
<!-- Node9 -->
<g id="node9" class="node">
<title>Node9</title>
<g id="a_node9"><a xlink:title=" ">
<polygon fill="none" stroke="#bfbfbf" points="1147.5,-11.5 1147.5,-30.5 1263.5,-30.5 1263.5,-11.5 1147.5,-11.5"/>
<text text-anchor="middle" x="1205.5" y="-18.5" font-family="Helvetica,sans-Serif" font-size="10.00">seerep&#45;msgs/aabb.h</text>
</a>
</g>
</g>
<!-- Node8&#45;&gt;Node9 -->
<g id="edge10" class="edge">
<title>Node8&#45;&gt;Node9</title>
<path fill="none" stroke="midnightblue" d="M831.82,-83.96C840.67,-81.77 849.82,-79.68 858.5,-78 981.69,-54.18 1015.76,-68.03 1138.5,-42 1149.01,-39.77 1160.26,-36.69 1170.48,-33.62"/>
<polygon fill="midnightblue" stroke="midnightblue" points="1171.78,-36.88 1180.3,-30.58 1169.71,-30.19 1171.78,-36.88"/>
</g>
<!-- Node10 -->
<g id="node10" class="node">
<title>Node10</title>
<g id="a_node10"><a xlink:title=" ">
<polygon fill="none" stroke="#bfbfbf" points="1282,-6 1282,-36 1407,-36 1407,-6 1282,-6"/>
<text text-anchor="start" x="1290" y="-24" font-family="Helvetica,sans-Serif" font-size="10.00">seerep&#45;msgs/geodetic</text>
<text text-anchor="middle" x="1344.5" y="-13" font-family="Helvetica,sans-Serif" font-size="10.00">&#45;coordinates.h</text>
</a>
</g>
</g>
<!-- Node8&#45;&gt;Node10 -->
<g id="edge12" class="edge">
<title>Node8&#45;&gt;Node10</title>
<path fill="none" stroke="midnightblue" d="M830.53,-83.96C839.76,-81.69 849.38,-79.57 858.5,-78 1040.52,-46.67 1090.75,-74.86 1272.5,-42 1277.85,-41.03 1283.37,-39.85 1288.87,-38.54"/>
<polygon fill="midnightblue" stroke="midnightblue" points="1289.85,-41.9 1298.7,-36.08 1288.15,-35.11 1289.85,-41.9"/>
</g>
<!-- Node11 -->
<g id="node11" class="node">
<title>Node11</title>
<g id="a_node11"><a xlink:title=" ">
<polygon fill="none" stroke="#bfbfbf" points="1425.5,-0.5 1425.5,-41.5 1537.5,-41.5 1537.5,-0.5 1425.5,-0.5"/>
<text text-anchor="start" x="1433.5" y="-29.5" font-family="Helvetica,sans-Serif" font-size="10.00">seerep&#45;msgs/labels</text>
<text text-anchor="start" x="1433.5" y="-18.5" font-family="Helvetica,sans-Serif" font-size="10.00">&#45;with&#45;instance&#45;with</text>
<text text-anchor="middle" x="1481.5" y="-7.5" font-family="Helvetica,sans-Serif" font-size="10.00">&#45;category.h</text>
</a>
</g>
</g>
<!-- Node8&#45;&gt;Node11 -->
<g id="edge13" class="edge">
<title>Node8&#45;&gt;Node11</title>
<path fill="none" stroke="midnightblue" d="M829.67,-84C839.16,-81.66 849.09,-79.51 858.5,-78 1100.2,-39.16 1169.59,-85.02 1415.24,-41.78"/>
<polygon fill="midnightblue" stroke="midnightblue" points="1415.96,-45.2 1425.18,-39.99 1414.72,-38.31 1415.96,-45.2"/>
</g>
<!-- Node8&#45;&gt;Node12 -->
<g id="edge14" class="edge">
<title>Node8&#45;&gt;Node12</title>
<path fill="none" stroke="midnightblue" d="M844.24,-85.34C861.14,-82.41 879.46,-79.66 896.5,-78 1605.75,-8.76 1789.5,-103.11 2499.5,-42 2524.53,-39.85 2552.01,-35.97 2575.46,-32.2"/>
<polygon fill="midnightblue" stroke="midnightblue" points="2576.28,-35.61 2585.58,-30.54 2575.15,-28.7 2576.28,-35.61"/>
</g>
<!-- Node13 -->
<g id="node13" class="node">
<title>Node13</title>
<g id="a_node13"><a xlink:title=" ">
<polygon fill="none" stroke="#bfbfbf" points="1643.5,-11.5 1643.5,-30.5 1691.5,-30.5 1691.5,-11.5 1643.5,-11.5"/>
<text text-anchor="middle" x="1667.5" y="-18.5" font-family="Helvetica,sans-Serif" font-size="10.00">mutex</text>
</a>
</g>
</g>
<!-- Node8&#45;&gt;Node13 -->
<g id="edge15" class="edge">
<title>Node8&#45;&gt;Node13</title>
<path fill="none" stroke="midnightblue" d="M829.24,-83.96C838.85,-81.6 848.94,-79.45 858.5,-78 1028.96,-52.19 1468.25,-91.15 1633.5,-42 1638.33,-40.56 1643.2,-38.3 1647.68,-35.8"/>
<polygon fill="midnightblue" stroke="midnightblue" points="1649.53,-38.77 1656.2,-30.54 1645.85,-32.82 1649.53,-38.77"/>
</g>
<!-- Node14 -->
<g id="node14" class="node">
<title>Node14</title>
<g id="a_node14"><a xlink:title=" ">
<polygon fill="none" stroke="#bfbfbf" points="1556,-11.5 1556,-30.5 1625,-30.5 1625,-11.5 1556,-11.5"/>
<text text-anchor="middle" x="1590.5" y="-18.5" font-family="Helvetica,sans-Serif" font-size="10.00">type_traits</text>
</a>
</g>
</g>
<!-- Node8&#45;&gt;Node14 -->
<g id="edge17" class="edge">
<title>Node8&#45;&gt;Node14</title>
<path fill="none" stroke="midnightblue" d="M829.66,-83.9C839.15,-81.58 849.08,-79.45 858.5,-78 1161.11,-31.27 1249.04,-114.62 1546.5,-42 1553.13,-40.38 1560,-37.77 1566.27,-34.96"/>
<polygon fill="midnightblue" stroke="midnightblue" points="1568.04,-37.99 1575.53,-30.5 1565,-31.69 1568.04,-37.99"/>
</g>
<!-- Node15 -->
<g id="node15" class="node">
<title>Node15</title>
<g id="a_node15"><a xlink:title=" ">
<polygon fill="none" stroke="#bfbfbf" points="1710,-6 1710,-36 1855,-36 1855,-6 1710,-6"/>
<text text-anchor="start" x="1718" y="-24" font-family="Helvetica,sans-Serif" font-size="10.00">boost/log/sources/severity</text>
<text text-anchor="middle" x="1782.5" y="-13" font-family="Helvetica,sans-Serif" font-size="10.00">_logger.hpp</text>
</a>
</g>
</g>
<!-- Node8&#45;&gt;Node15 -->
<g id="edge18" class="edge">
<title>Node8&#45;&gt;Node15</title>
<path fill="none" stroke="midnightblue" d="M829.23,-83.93C838.85,-81.57 848.94,-79.43 858.5,-78 1228.95,-22.61 1329.65,-94.63 1700.5,-42 1707.32,-41.03 1714.41,-39.74 1721.43,-38.29"/>
<polygon fill="midnightblue" stroke="midnightblue" points="1722.61,-41.61 1731.62,-36.05 1721.11,-34.77 1722.61,-41.61"/>
</g>
<!-- Node16 -->
<g id="node16" class="node">
<title>Node16</title>
<g id="a_node16"><a xlink:title=" ">
<polygon fill="none" stroke="#bfbfbf" points="2113.5,-11.5 2113.5,-30.5 2227.5,-30.5 2227.5,-11.5 2113.5,-11.5"/>
<text text-anchor="middle" x="2170.5" y="-18.5" font-family="Helvetica,sans-Serif" font-size="10.00">boost/log/trivial.hpp</text>
</a>
</g>
</g>
<!-- Node8&#45;&gt;Node16 -->
<g id="edge19" class="edge">
<title>Node8&#45;&gt;Node16</title>
<path fill="none" stroke="midnightblue" d="M828.81,-83.98C838.55,-81.59 848.8,-79.42 858.5,-78 1300.77,-13.43 1417.12,-64.53 1863.5,-42 1946.12,-37.83 2041.14,-31.39 2103.31,-26.94"/>
<polygon fill="midnightblue" stroke="midnightblue" points="2103.66,-30.43 2113.38,-26.22 2103.16,-23.45 2103.66,-30.43"/>
</g>
<!-- Node8&#45;&gt;Node17 -->
<g id="edge20" class="edge">
<title>Node8&#45;&gt;Node17</title>
<path fill="none" stroke="midnightblue" d="M748.44,-83.88C715.27,-69.72 664.68,-48.12 632.88,-34.54"/>
<polygon fill="midnightblue" stroke="midnightblue" points="634.23,-31.31 623.66,-30.61 631.48,-37.75 634.23,-31.31"/>
</g>
<!-- Node8&#45;&gt;Node18 -->
<g id="edge21" class="edge">
<title>Node8&#45;&gt;Node18</title>
<path fill="none" stroke="midnightblue" d="M776.61,-83.7C772.38,-71.35 766.26,-53.44 761.69,-40.1"/>
<polygon fill="midnightblue" stroke="midnightblue" points="764.98,-38.89 758.43,-30.56 758.35,-41.16 764.98,-38.89"/>
</g>
<!-- Node8&#45;&gt;Node19 -->
<g id="edge23" class="edge">
<title>Node8&#45;&gt;Node19</title>
<path fill="none" stroke="midnightblue" d="M718.8,-84.5C650.11,-69.71 541.34,-46.29 478.26,-32.71"/>
<polygon fill="midnightblue" stroke="midnightblue" points="478.68,-29.22 468.16,-30.54 477.2,-36.07 478.68,-29.22"/>
</g>
<!-- Node8&#45;&gt;Node20 -->
<g id="edge24" class="edge">
<title>Node8&#45;&gt;Node20</title>
<path fill="none" stroke="midnightblue" d="M803.42,-83.88C824.55,-70.27 856.36,-49.79 877.51,-36.16"/>
<polygon fill="midnightblue" stroke="midnightblue" points="879.63,-38.96 886.14,-30.61 875.84,-33.08 879.63,-38.96"/>
</g>
<!-- Node21 -->
<g id="node21" class="node">
<title>Node21</title>
<g id="a_node21"><a xlink:title=" ">
<polygon fill="none" stroke="#bfbfbf" points="981,-11.5 981,-30.5 1130,-30.5 1130,-11.5 981,-11.5"/>
<text text-anchor="middle" x="1055.5" y="-18.5" font-family="Helvetica,sans-Serif" font-size="10.00">impl/hdf5&#45;core&#45;general.hpp</text>
</a>
</g>
</g>
<!-- Node8&#45;&gt;Node21 -->
<g id="edge25" class="edge">
<title>Node8&#45;&gt;Node21</title>
<path fill="none" stroke="midnightblue" d="M832.08,-83.97C884.77,-69.36 966.29,-46.74 1014.92,-33.25"/>
<polygon fill="midnightblue" stroke="midnightblue" points="1016.08,-36.57 1024.78,-30.52 1014.21,-29.82 1016.08,-36.57"/>
</g>
<!-- Node22&#45;&gt;Node2 -->
<g id="edge35" class="edge">
<title>Node22&#45;&gt;Node2</title>
<path fill="none" stroke="midnightblue" d="M1924.08,-171.1C2092.75,-172.31 2583.44,-171.34 2631.5,-120 2675.95,-72.52 2573.62,-44.75 2500.73,-31.54"/>
<polygon fill="midnightblue" stroke="midnightblue" points="2501.11,-28.05 2490.66,-29.77 2499.9,-34.95 2501.11,-28.05"/>
</g>
<!-- Node22&#45;&gt;Node7 -->
<g id="edge49" class="edge">
<title>Node22&#45;&gt;Node7</title>
<path fill="none" stroke="midnightblue" d="M1810.71,-170.21C1642.3,-168.89 1131.06,-161.49 709.5,-120 652.78,-114.42 256.53,-60.15 202.5,-42 197.57,-40.34 192.52,-38.06 187.79,-35.63"/>
<polygon fill="midnightblue" stroke="midnightblue" points="189.14,-32.37 178.7,-30.57 185.74,-38.49 189.14,-32.37"/>
</g>
<!-- Node22&#45;&gt;Node8 -->
<g id="edge36" class="edge">
<title>Node22&#45;&gt;Node8</title>
<path fill="none" stroke="midnightblue" d="M1810.86,-168.93C1665.21,-164.58 1265.84,-150.58 934.5,-120 908.24,-117.58 879.56,-114.06 854.19,-110.65"/>
<polygon fill="midnightblue" stroke="midnightblue" points="854.66,-107.18 844.28,-109.3 853.72,-114.12 854.66,-107.18"/>
</g>
<!-- Node22&#45;&gt;Node12 -->
<g id="edge46" class="edge">
<title>Node22&#45;&gt;Node12</title>
<path fill="none" stroke="midnightblue" d="M1924.02,-168.96C2099.79,-163.88 2626.65,-146.51 2651.5,-120 2671.96,-98.18 2656.2,-61.25 2643.76,-39.49"/>
<polygon fill="midnightblue" stroke="midnightblue" points="2646.59,-37.41 2638.41,-30.67 2640.6,-41.04 2646.59,-37.41"/>
</g>
<!-- Node22&#45;&gt;Node13 -->
<g id="edge48" class="edge">
<title>Node22&#45;&gt;Node13</title>
<path fill="none" stroke="midnightblue" d="M1810.84,-169.35C1621.45,-165.22 1020.64,-149.81 992.5,-120 979.69,-106.43 979.68,-91.56 992.5,-78 1041.51,-26.16 1565.22,-62.67 1633.5,-42 1638.33,-40.54 1643.19,-38.26 1647.67,-35.76"/>
<polygon fill="midnightblue" stroke="midnightblue" points="1649.51,-38.74 1656.19,-30.51 1645.84,-32.78 1649.51,-38.74"/>
</g>
<!-- Node22&#45;&gt;Node15 -->
<g id="edge50" class="edge">
<title>Node22&#45;&gt;Node15</title>
<path fill="none" stroke="midnightblue" d="M1810.71,-169.29C1623.04,-165.03 1033.16,-149.33 1005.5,-120 992.69,-106.42 992.65,-91.54 1005.5,-78 1058.74,-21.93 1623.99,-53.21 1700.5,-42 1707.22,-41.02 1714.2,-39.73 1721.12,-38.29"/>
<polygon fill="midnightblue" stroke="midnightblue" points="1722.16,-41.64 1731.17,-36.08 1720.66,-34.81 1722.16,-41.64"/>
</g>
<!-- Node22&#45;&gt;Node16 -->
<g id="edge51" class="edge">
<title>Node22&#45;&gt;Node16</title>
<path fill="none" stroke="midnightblue" d="M1924.24,-169.53C2058.08,-166.64 2384.7,-155.95 2417.5,-120 2473.47,-58.65 2328.62,-35.13 2237.68,-26.56"/>
<polygon fill="midnightblue" stroke="midnightblue" points="2237.97,-23.08 2227.69,-25.66 2237.34,-30.05 2237.97,-23.08"/>
</g>
<!-- Node23 -->
<g id="node23" class="node">
<title>Node23</title>
<g id="a_node23"><a xlink:title=" ">
<polygon fill="none" stroke="#bfbfbf" points="2464.5,-84 2464.5,-114 2622.5,-114 2622.5,-84 2464.5,-84"/>
<text text-anchor="start" x="2472.5" y="-102" font-family="Helvetica,sans-Serif" font-size="10.00">seerep&#45;msgs/boundingbox2d</text>
<text text-anchor="middle" x="2543.5" y="-91" font-family="Helvetica,sans-Serif" font-size="10.00">_labeled_generated.h</text>
</a>
</g>
</g>
<!-- Node22&#45;&gt;Node23 -->
<g id="edge37" class="edge">
<title>Node22&#45;&gt;Node23</title>
<path fill="none" stroke="midnightblue" d="M1924.06,-167.96C2028.52,-162.75 2258.61,-148.83 2450.5,-120 2458.08,-118.86 2465.97,-117.48 2473.8,-115.98"/>
<polygon fill="midnightblue" stroke="midnightblue" points="2474.54,-119.4 2483.67,-114.02 2473.18,-112.53 2474.54,-119.4"/>
</g>
<!-- Node24 -->
<g id="node24" class="node">
<title>Node24</title>
<g id="a_node24"><a xlink:title=" ">
<polygon fill="none" stroke="#bfbfbf" points="1014.5,-78.5 1014.5,-119.5 1172.5,-119.5 1172.5,-78.5 1014.5,-78.5"/>
<text text-anchor="start" x="1022.5" y="-107.5" font-family="Helvetica,sans-Serif" font-size="10.00">seerep&#45;msgs/boundingbox2d</text>
<text text-anchor="start" x="1022.5" y="-96.5" font-family="Helvetica,sans-Serif" font-size="10.00">_labeled_with_category</text>
<text text-anchor="middle" x="1093.5" y="-85.5" font-family="Helvetica,sans-Serif" font-size="10.00">_generated.h</text>
</a>
</g>
</g>
<!-- Node22&#45;&gt;Node24 -->
<g id="edge38" class="edge">
<title>Node22&#45;&gt;Node24</title>
<path fill="none" stroke="midnightblue" d="M1810.71,-169.2C1694.45,-165.91 1420.9,-154.97 1182.44,-120.02"/>
<polygon fill="midnightblue" stroke="midnightblue" points="1182.95,-116.56 1172.55,-118.55 1181.93,-123.48 1182.95,-116.56"/>
</g>
<!-- Node25 -->
<g id="node25" class="node">
<title>Node25</title>
<g id="a_node25"><a xlink:title=" ">
<polygon fill="none" stroke="#bfbfbf" points="1190.5,-84 1190.5,-114 1336.5,-114 1336.5,-84 1190.5,-84"/>
<text text-anchor="start" x="1198.5" y="-102" font-family="Helvetica,sans-Serif" font-size="10.00">seerep&#45;msgs/boundingbox</text>
<text text-anchor="middle" x="1263.5" y="-91" font-family="Helvetica,sans-Serif" font-size="10.00">_labeled_generated.h</text>
</a>
</g>
</g>
<!-- Node22&#45;&gt;Node25 -->
<g id="edge39" class="edge">
<title>Node22&#45;&gt;Node25</title>
<path fill="none" stroke="midnightblue" d="M1810.76,-167.67C1714.52,-162.28 1513.37,-148.44 1345.5,-120 1339.24,-118.94 1332.76,-117.67 1326.29,-116.28"/>
<polygon fill="midnightblue" stroke="midnightblue" points="1326.72,-112.79 1316.2,-114.03 1325.2,-119.62 1326.72,-112.79"/>
</g>
<!-- Node26 -->
<g id="node26" class="node">
<title>Node26</title>
<g id="a_node26"><a xlink:title=" ">
<polygon fill="none" stroke="#bfbfbf" points="1354.5,-78.5 1354.5,-119.5 1500.5,-119.5 1500.5,-78.5 1354.5,-78.5"/>
<text text-anchor="start" x="1362.5" y="-107.5" font-family="Helvetica,sans-Serif" font-size="10.00">seerep&#45;msgs/boundingbox</text>
<text text-anchor="start" x="1362.5" y="-96.5" font-family="Helvetica,sans-Serif" font-size="10.00">_labeled_with_category</text>
<text text-anchor="middle" x="1427.5" y="-85.5" font-family="Helvetica,sans-Serif" font-size="10.00">_generated.h</text>
</a>
</g>
</g>
<!-- Node22&#45;&gt;Node26 -->
<g id="edge40" class="edge">
<title>Node22&#45;&gt;Node26</title>
<path fill="none" stroke="midnightblue" d="M1810.79,-164.26C1742.03,-156.3 1622.48,-141.21 1510.83,-120.17"/>
<polygon fill="midnightblue" stroke="midnightblue" points="1511.22,-116.68 1500.74,-118.24 1509.91,-123.55 1511.22,-116.68"/>
</g>
<!-- Node27 -->
<g id="node27" class="node">
<title>Node27</title>
<g id="a_node27"><a xlink:title=" ">
<polygon fill="none" stroke="#bfbfbf" points="1518.5,-84 1518.5,-114 1634.5,-114 1634.5,-84 1518.5,-84"/>
<text text-anchor="start" x="1526.5" y="-102" font-family="Helvetica,sans-Serif" font-size="10.00">seerep&#45;msgs/header</text>
<text text-anchor="middle" x="1576.5" y="-91" font-family="Helvetica,sans-Serif" font-size="10.00">_generated.h</text>
</a>
</g>
</g>
<!-- Node22&#45;&gt;Node27 -->
<g id="edge41" class="edge">
<title>Node22&#45;&gt;Node27</title>
<path fill="none" stroke="midnightblue" d="M1810.62,-158.8C1765.19,-149.18 1700,-134.78 1643.5,-120 1639.71,-119.01 1635.81,-117.95 1631.89,-116.86"/>
<polygon fill="midnightblue" stroke="midnightblue" points="1632.73,-113.45 1622.15,-114.08 1630.81,-120.19 1632.73,-113.45"/>
</g>
<!-- Node28 -->
<g id="node28" class="node">
<title>Node28</title>
<g id="a_node28"><a xlink:title=" ">
<polygon fill="none" stroke="#bfbfbf" points="1652.5,-78.5 1652.5,-119.5 1780.5,-119.5 1780.5,-78.5 1652.5,-78.5"/>
<text text-anchor="start" x="1660.5" y="-107.5" font-family="Helvetica,sans-Serif" font-size="10.00">seerep&#45;msgs/labels</text>
<text text-anchor="start" x="1660.5" y="-96.5" font-family="Helvetica,sans-Serif" font-size="10.00">_with_instance_with</text>
<text text-anchor="middle" x="1716.5" y="-85.5" font-family="Helvetica,sans-Serif" font-size="10.00">_category_generated.h</text>
</a>
</g>
</g>
<!-- Node22&#45;&gt;Node28 -->
<g id="edge42" class="edge">
<title>Node22&#45;&gt;Node28</title>
<path fill="none" stroke="midnightblue" d="M1837.31,-156.4C1817.41,-147.11 1790.86,-134.72 1767.71,-123.91"/>
<polygon fill="midnightblue" stroke="midnightblue" points="1768.91,-120.61 1758.37,-119.55 1765.95,-126.95 1768.91,-120.61"/>
</g>
<!-- Node29 -->
<g id="node29" class="node">
<title>Node29</title>
<g id="a_node29"><a xlink:title=" ">
<polygon fill="none" stroke="#bfbfbf" points="1799,-84 1799,-114 1936,-114 1936,-84 1799,-84"/>
<text text-anchor="start" x="1807" y="-102" font-family="Helvetica,sans-Serif" font-size="10.00">seerep&#45;msgs/union_map</text>
<text text-anchor="middle" x="1867.5" y="-91" font-family="Helvetica,sans-Serif" font-size="10.00">_entry_generated.h</text>
</a>
</g>
</g>
<!-- Node22&#45;&gt;Node29 -->
<g id="edge43" class="edge">
<title>Node22&#45;&gt;Node29</title>
<path fill="none" stroke="midnightblue" d="M1867.5,-156.23C1867.5,-147.16 1867.5,-135.16 1867.5,-124.58"/>
<polygon fill="midnightblue" stroke="midnightblue" points="1871,-124.25 1867.5,-114.25 1864,-124.25 1871,-124.25"/>
</g>
<!-- Node30 -->
<g id="node30" class="node">
<title>Node30</title>
<g id="a_node30"><a xlink:title=" ">
<polygon fill="none" stroke="#bfbfbf" points="1954,-89.5 1954,-108.5 2049,-108.5 2049,-89.5 1954,-89.5"/>
<text text-anchor="middle" x="2001.5" y="-96.5" font-family="Helvetica,sans-Serif" font-size="10.00">grpcpp/grpcpp.h</text>
</a>
</g>
</g>
<!-- Node22&#45;&gt;Node30 -->
<g id="edge44" class="edge">
<title>Node22&#45;&gt;Node30</title>
<path fill="none" stroke="midnightblue" d="M1894.29,-156.4C1918.19,-143.83 1952.92,-125.56 1976.31,-113.25"/>
<polygon fill="midnightblue" stroke="midnightblue" points="1978.06,-116.29 1985.28,-108.53 1974.8,-110.09 1978.06,-116.29"/>
</g>
<!-- Node31 -->
<g id="node31" class="node">
<title>Node31</title>
<g id="a_node31"><a xlink:title=" ">
<polygon fill="none" stroke="#bfbfbf" points="2067,-89.5 2067,-108.5 2166,-108.5 2166,-89.5 2067,-89.5"/>
<text text-anchor="middle" x="2116.5" y="-96.5" font-family="Helvetica,sans-Serif" font-size="10.00">flatbuffers/grpc.h</text>
</a>
</g>
</g>
<!-- Node22&#45;&gt;Node31 -->
<g id="edge45" class="edge">
<title>Node22&#45;&gt;Node31</title>
<path fill="none" stroke="midnightblue" d="M1924.31,-156.46C1962.22,-146.83 2013.06,-133.42 2057.5,-120 2065.74,-117.51 2074.57,-114.63 2082.81,-111.85"/>
<polygon fill="midnightblue" stroke="midnightblue" points="2084.17,-115.09 2092.5,-108.54 2081.91,-108.46 2084.17,-115.09"/>
</g>
<!-- Node32 -->
<g id="node32" class="node">
<title>Node32</title>
<g id="a_node32"><a xlink:title=" ">
<polygon fill="none" stroke="#bfbfbf" points="2184.5,-89.5 2184.5,-108.5 2252.5,-108.5 2252.5,-89.5 2184.5,-89.5"/>
<text text-anchor="middle" x="2218.5" y="-96.5" font-family="Helvetica,sans-Serif" font-size="10.00">filesystem</text>
</a>
</g>
</g>
<!-- Node22&#45;&gt;Node32 -->
<g id="edge47" class="edge">
<title>Node22&#45;&gt;Node32</title>
<path fill="none" stroke="midnightblue" d="M1924.25,-165.68C1986.65,-159.35 2089.35,-145.86 2174.5,-120 2180.57,-118.16 2186.89,-115.66 2192.79,-113.05"/>
<polygon fill="midnightblue" stroke="midnightblue" points="2194.61,-116.06 2202.19,-108.66 2191.64,-109.72 2194.61,-116.06"/>
</g>
<!-- Node33 -->
<g id="node33" class="node">
<title>Node33</title>
<g id="a_node33"><a xlink:title=" ">
<polygon fill="none" stroke="#bfbfbf" points="2270.5,-89.5 2270.5,-108.5 2408.5,-108.5 2408.5,-89.5 2270.5,-89.5"/>
<text text-anchor="middle" x="2339.5" y="-96.5" font-family="Helvetica,sans-Serif" font-size="10.00">impl/hdf5&#45;fb&#45;general.hpp</text>
</a>
</g>
</g>
<!-- Node22&#45;&gt;Node33 -->
<g id="edge52" class="edge">
<title>Node22&#45;&gt;Node33</title>
<path fill="none" stroke="midnightblue" d="M1924.29,-165.45C2001.17,-158.1 2142.46,-142.8 2261.5,-120 2274.05,-117.6 2287.58,-114.36 2299.8,-111.19"/>
<polygon fill="midnightblue" stroke="midnightblue" points="2300.92,-114.51 2309.69,-108.56 2299.13,-107.75 2300.92,-114.51"/>
</g>
<!-- Node35 -->
<g id="node35" class="node">
<title>Node35</title>
<g id="a_node35"><a xlink:title=" ">
<polygon fill="none" stroke="#bfbfbf" points="2950.5,-89.5 2950.5,-108.5 3074.5,-108.5 3074.5,-89.5 2950.5,-89.5"/>
<text text-anchor="middle" x="3012.5" y="-96.5" font-family="Helvetica,sans-Serif" font-size="10.00">flatbuffers/reflection.h</text>
</a>
</g>
</g>
<!-- Node34&#45;&gt;Node35 -->
<g id="edge54" class="edge">
<title>Node34&#45;&gt;Node35</title>
<path fill="none" stroke="midnightblue" d="M3070.73,-156.23C3058.7,-144.62 3041.72,-128.22 3029.2,-116.12"/>
<polygon fill="midnightblue" stroke="midnightblue" points="3031.33,-113.32 3021.71,-108.89 3026.47,-118.36 3031.33,-113.32"/>
</g>
<!-- Node34&#45;&gt;Node36 -->
<g id="edge55" class="edge">
<title>Node34&#45;&gt;Node36</title>
<path fill="none" stroke="midnightblue" d="M3041.18,-156.49C3005.5,-145.21 2955.19,-129.3 2917.04,-117.24"/>
<polygon fill="midnightblue" stroke="midnightblue" points="2917.71,-113.78 2907.12,-114.11 2915.6,-120.46 2917.71,-113.78"/>
</g>
<!-- Node37 -->
<g id="node37" class="node">
<title>Node37</title>
<g id="a_node37"><a xlink:title=" ">
<polygon fill="none" stroke="#bfbfbf" points="3092.5,-84 3092.5,-114 3226.5,-114 3226.5,-84 3092.5,-84"/>
<text text-anchor="start" x="3100.5" y="-102" font-family="Helvetica,sans-Serif" font-size="10.00">seerep&#45;msgs/point_field</text>
<text text-anchor="middle" x="3159.5" y="-91" font-family="Helvetica,sans-Serif" font-size="10.00">_generated.h</text>
</a>
</g>
</g>
<!-- Node34&#45;&gt;Node37 -->
<g id="edge56" class="edge">
<title>Node34&#45;&gt;Node37</title>
<path fill="none" stroke="midnightblue" d="M3100.48,-156.23C3111.01,-146.2 3125.28,-132.6 3137.16,-121.29"/>
<polygon fill="midnightblue" stroke="midnightblue" points="3139.72,-123.68 3144.55,-114.25 3134.89,-118.61 3139.72,-123.68"/>
</g>
<!-- Node38 -->
<g id="node38" class="node">
<title>Node38</title>
<g id="a_node38"><a xlink:title=" ">
<polygon fill="none" stroke="#bfbfbf" points="3244.5,-89.5 3244.5,-108.5 3288.5,-108.5 3288.5,-89.5 3244.5,-89.5"/>
<text text-anchor="middle" x="3266.5" y="-96.5" font-family="Helvetica,sans-Serif" font-size="10.00">string</text>
</a>
</g>
</g>
<!-- Node34&#45;&gt;Node38 -->
<g id="edge57" class="edge">
<title>Node34&#45;&gt;Node38</title>
<path fill="none" stroke="midnightblue" d="M3137.43,-156.49C3166.9,-147.69 3204.06,-135.14 3235.5,-120 3239.06,-118.29 3242.7,-116.24 3246.17,-114.12"/>
<polygon fill="midnightblue" stroke="midnightblue" points="3248.34,-116.88 3254.83,-108.51 3244.54,-111.01 3248.34,-116.88"/>
</g>
<!-- Node39 -->
<g id="node39" class="node">
<title>Node39</title>
<g id="a_node39"><a xlink:title=" ">
<polygon fill="none" stroke="#bfbfbf" points="3307,-89.5 3307,-108.5 3354,-108.5 3354,-89.5 3307,-89.5"/>
<text text-anchor="middle" x="3330.5" y="-96.5" font-family="Helvetica,sans-Serif" font-size="10.00">vector</text>
</a>
</g>
</g>
<!-- Node34&#45;&gt;Node39 -->
<g id="edge58" class="edge">
<title>Node34&#45;&gt;Node39</title>
<path fill="none" stroke="midnightblue" d="M3154.61,-156.46C3206.14,-145.54 3271.86,-130.52 3297.5,-120 3301.61,-118.31 3305.81,-116.15 3309.78,-113.89"/>
<polygon fill="midnightblue" stroke="midnightblue" points="3311.76,-116.77 3318.45,-108.55 3308.09,-110.81 3311.76,-116.77"/>
</g>
<!-- Node40 -->
<g id="node40" class="node">
<title>Node40</title>
<g id="a_node40"><a xlink:title=" ">
<polygon fill="none" stroke="#bfbfbf" points="3372,-84 3372,-114 3485,-114 3485,-84 3372,-84"/>
<text text-anchor="start" x="3380" y="-102" font-family="Helvetica,sans-Serif" font-size="10.00">impl/hdf5&#45;fb&#45;point</text>
<text text-anchor="middle" x="3428.5" y="-91" font-family="Helvetica,sans-Serif" font-size="10.00">&#45;cloud2&#45;iterator.hpp</text>
</a>
</g>
</g>
<!-- Node34&#45;&gt;Node40 -->
<g id="edge59" class="edge">
<title>Node34&#45;&gt;Node40</title>
<path fill="none" stroke="midnightblue" d="M3157.18,-157.59C3237.86,-143.03 3358.44,-121.23 3363.5,-120 3367.39,-119.05 3371.39,-118 3375.4,-116.9"/>
<polygon fill="midnightblue" stroke="midnightblue" points="3376.69,-120.17 3385.34,-114.06 3374.77,-113.44 3376.69,-120.17"/>
</g>
</g>
</svg>
