<?xml version="1.0" encoding="UTF-8" standalone="no"?>
<!DOCTYPE svg PUBLIC "-//W3C//DTD SVG 1.1//EN"
 "http://www.w3.org/Graphics/SVG/1.1/DTD/svg11.dtd">
<!-- Generated by graphviz version 2.43.0 (0)
 -->
<!-- Title: seerep&#45;hdf5/seerep&#45;hdf5&#45;fb/src/hdf5&#45;fb&#45;point.cpp Pages: 1 -->
<svg width="2644pt" height="318pt"
 viewBox="0.00 0.00 2643.50 318.00" xmlns="http://www.w3.org/2000/svg" xmlns:xlink="http://www.w3.org/1999/xlink">
<g id="graph0" class="graph" transform="scale(1 1) rotate(0) translate(4 314)">
<title>seerep&#45;hdf5/seerep&#45;hdf5&#45;fb/src/hdf5&#45;fb&#45;point.cpp</title>
<!-- Node1 -->
<g id="node1" class="node">
<title>Node1</title>
<g id="a_node1"><a xlink:title=" ">
<polygon fill="#bfbfbf" stroke="black" points="1995,-268.5 1995,-309.5 2106,-309.5 2106,-268.5 1995,-268.5"/>
<text text-anchor="start" x="2003" y="-297.5" font-family="Helvetica,sans-Serif" font-size="10.00">seerep&#45;hdf5/seerep</text>
<text text-anchor="start" x="2003" y="-286.5" font-family="Helvetica,sans-Serif" font-size="10.00">&#45;hdf5&#45;fb/src/hdf5&#45;fb</text>
<text text-anchor="middle" x="2050.5" y="-275.5" font-family="Helvetica,sans-Serif" font-size="10.00">&#45;point.cpp</text>
</a>
</g>
</g>
<!-- Node2 -->
<g id="node2" class="node">
<title>Node2</title>
<g id="a_node2"><a xlink:href="hdf5-fb-point_8h.html" target="_top" xlink:title=" ">
<polygon fill="none" stroke="black" points="1924,-201.5 1924,-231.5 2037,-231.5 2037,-201.5 1924,-201.5"/>
<text text-anchor="start" x="1932" y="-219.5" font-family="Helvetica,sans-Serif" font-size="10.00">seerep&#45;hdf5&#45;fb/hdf5</text>
<text text-anchor="middle" x="1980.5" y="-208.5" font-family="Helvetica,sans-Serif" font-size="10.00">&#45;fb&#45;point.h</text>
</a>
</g>
</g>
<!-- Node1&#45;&gt;Node2 -->
<g id="edge1" class="edge">
<title>Node1&#45;&gt;Node2</title>
<path fill="none" stroke="midnightblue" d="M2031,-268.36C2021.94,-259.23 2011.13,-248.35 2001.85,-239"/>
<polygon fill="midnightblue" stroke="midnightblue" points="2004.32,-236.52 1994.79,-231.89 1999.35,-241.45 2004.32,-236.52"/>
</g>
<!-- Node29 -->
<g id="node29" class="node">
<title>Node29</title>
<g id="a_node29"><a xlink:title=" ">
<polygon fill="none" stroke="#bfbfbf" points="2055.5,-207 2055.5,-226 2187.5,-226 2187.5,-207 2055.5,-207"/>
<text text-anchor="middle" x="2121.5" y="-214" font-family="Helvetica,sans-Serif" font-size="10.00">highfive/H5DataSet.hpp</text>
</a>
</g>
</g>
<!-- Node1&#45;&gt;Node29 -->
<g id="edge47" class="edge">
<title>Node1&#45;&gt;Node29</title>
<path fill="none" stroke="midnightblue" d="M2070.28,-268.36C2081.39,-257.32 2095.09,-243.72 2105.52,-233.37"/>
<polygon fill="midnightblue" stroke="midnightblue" points="2108.14,-235.7 2112.77,-226.17 2103.2,-230.74 2108.14,-235.7"/>
</g>
<!-- Node3 -->
<g id="node3" class="node">
<title>Node3</title>
<g id="a_node3"><a xlink:title=" ">
<polygon fill="none" stroke="#bfbfbf" points="871.5,-6 871.5,-25 981.5,-25 981.5,-6 871.5,-6"/>
<text text-anchor="middle" x="926.5" y="-13" font-family="Helvetica,sans-Serif" font-size="10.00">highfive/H5File.hpp</text>
</a>
</g>
</g>
<!-- Node2&#45;&gt;Node3 -->
<g id="edge2" class="edge">
<title>Node2&#45;&gt;Node3</title>
<path fill="none" stroke="midnightblue" d="M1923.96,-216.09C1758.37,-217.19 1276.95,-215.81 1129.5,-165 1048.44,-137.06 972.3,-64.62 941.22,-32.38"/>
<polygon fill="midnightblue" stroke="midnightblue" points="943.74,-29.94 934.32,-25.1 938.66,-34.76 943.74,-29.94"/>
</g>
<!-- Node4 -->
<g id="node4" class="node">
<title>Node4</title>
<g id="a_node4"><a xlink:href="hdf5-core-point_8h.html" target="_top" xlink:title=" ">
<polygon fill="none" stroke="black" points="648,-134.5 648,-164.5 773,-164.5 773,-134.5 648,-134.5"/>
<text text-anchor="start" x="656" y="-152.5" font-family="Helvetica,sans-Serif" font-size="10.00">seerep&#45;hdf5&#45;core/hdf5</text>
<text text-anchor="middle" x="710.5" y="-141.5" font-family="Helvetica,sans-Serif" font-size="10.00">&#45;core&#45;point.h</text>
</a>
</g>
</g>
<!-- Node2&#45;&gt;Node4 -->
<g id="edge3" class="edge">
<title>Node2&#45;&gt;Node4</title>
<path fill="none" stroke="midnightblue" d="M1923.74,-213.3C1764.31,-207.03 1298.84,-188 912.5,-165 869.65,-162.45 821.73,-159.03 783.32,-156.16"/>
<polygon fill="midnightblue" stroke="midnightblue" points="783.49,-152.66 773.26,-155.4 782.97,-159.64 783.49,-152.66"/>
</g>
<!-- Node8 -->
<g id="node8" class="node">
<title>Node8</title>
<g id="a_node8"><a xlink:title=" ">
<polygon fill="none" stroke="#bfbfbf" points="999.5,-6 999.5,-25 1055.5,-25 1055.5,-6 999.5,-6"/>
<text text-anchor="middle" x="1027.5" y="-13" font-family="Helvetica,sans-Serif" font-size="10.00">optional</text>
</a>
</g>
</g>
<!-- Node2&#45;&gt;Node8 -->
<g id="edge46" class="edge">
<title>Node2&#45;&gt;Node8</title>
<path fill="none" stroke="midnightblue" d="M1923.78,-215.74C1744.27,-215.39 1192.41,-205.4 1057.5,-98 1038.36,-82.76 1031.43,-54.1 1028.92,-35.16"/>
<polygon fill="midnightblue" stroke="midnightblue" points="1032.39,-34.65 1027.88,-25.06 1025.43,-35.36 1032.39,-34.65"/>
</g>
<!-- Node11 -->
<g id="node11" class="node">
<title>Node11</title>
<g id="a_node11"><a xlink:title=" ">
<polygon fill="none" stroke="#bfbfbf" points="1753,-6 1753,-25 1866,-25 1866,-6 1753,-6"/>
<text text-anchor="middle" x="1809.5" y="-13" font-family="Helvetica,sans-Serif" font-size="10.00">boost/geometry.hpp</text>
</a>
</g>
</g>
<!-- Node2&#45;&gt;Node11 -->
<g id="edge45" class="edge">
<title>Node2&#45;&gt;Node11</title>
<path fill="none" stroke="midnightblue" d="M2037.07,-201.61C2149.1,-173.84 2389.4,-112.86 2400.5,-98 2408.74,-86.96 2409.82,-77.15 2400.5,-67 2365.62,-29.01 2023.46,-19.55 1876.27,-17.24"/>
<polygon fill="midnightblue" stroke="midnightblue" points="1876.07,-13.73 1866.01,-17.08 1875.96,-20.73 1876.07,-13.73"/>
</g>
<!-- Node20 -->
<g id="node20" class="node">
<title>Node20</title>
<g id="a_node20"><a xlink:href="hdf5-fb-general_8h.html" target="_top" xlink:title=" ">
<polygon fill="none" stroke="black" points="1678,-134.5 1678,-164.5 1791,-164.5 1791,-134.5 1678,-134.5"/>
<text text-anchor="start" x="1686" y="-152.5" font-family="Helvetica,sans-Serif" font-size="10.00">seerep&#45;hdf5&#45;fb/hdf5</text>
<text text-anchor="middle" x="1734.5" y="-141.5" font-family="Helvetica,sans-Serif" font-size="10.00">&#45;fb&#45;general.h</text>
</a>
</g>
</g>
<!-- Node2&#45;&gt;Node20 -->
<g id="edge27" class="edge">
<title>Node2&#45;&gt;Node20</title>
<path fill="none" stroke="midnightblue" d="M1927.42,-201.48C1889.32,-191.41 1837.82,-177.8 1797.61,-167.17"/>
<polygon fill="midnightblue" stroke="midnightblue" points="1798.47,-163.78 1787.9,-164.61 1796.68,-170.55 1798.47,-163.78"/>
</g>
<!-- Node24 -->
<g id="node24" class="node">
<title>Node24</title>
<g id="a_node24"><a xlink:title=" ">
<polygon fill="none" stroke="#bfbfbf" points="2179,-73 2179,-92 2274,-92 2274,-73 2179,-73"/>
<text text-anchor="middle" x="2226.5" y="-80" font-family="Helvetica,sans-Serif" font-size="10.00">grpcpp/grpcpp.h</text>
</a>
</g>
</g>
<!-- Node2&#45;&gt;Node24 -->
<g id="edge44" class="edge">
<title>Node2&#45;&gt;Node24</title>
<path fill="none" stroke="midnightblue" d="M2006.83,-201.37C2054.6,-175.74 2154.94,-121.9 2201.63,-96.85"/>
<polygon fill="midnightblue" stroke="midnightblue" points="2203.32,-99.91 2210.48,-92.1 2200.01,-93.74 2203.32,-99.91"/>
</g>
<!-- Node25 -->
<g id="node25" class="node">
<title>Node25</title>
<g id="a_node25"><a xlink:title=" ">
<polygon fill="none" stroke="#bfbfbf" points="2292,-73 2292,-92 2391,-92 2391,-73 2292,-73"/>
<text text-anchor="middle" x="2341.5" y="-80" font-family="Helvetica,sans-Serif" font-size="10.00">flatbuffers/grpc.h</text>
</a>
</g>
</g>
<!-- Node2&#45;&gt;Node25 -->
<g id="edge43" class="edge">
<title>Node2&#45;&gt;Node25</title>
<path fill="none" stroke="midnightblue" d="M2018.79,-201.5C2089.9,-175.5 2241.21,-120.17 2308.29,-95.64"/>
<polygon fill="midnightblue" stroke="midnightblue" points="2309.74,-98.84 2317.93,-92.12 2307.34,-92.26 2309.74,-98.84"/>
</g>
<!-- Node28 -->
<g id="node28" class="node">
<title>Node28</title>
<g id="a_node28"><a xlink:title=" ">
<polygon fill="none" stroke="#bfbfbf" points="2447.5,-140 2447.5,-159 2635.5,-159 2635.5,-140 2447.5,-140"/>
<text text-anchor="middle" x="2541.5" y="-147" font-family="Helvetica,sans-Serif" font-size="10.00">seerep&#45;com/point_service.grpc.fb.h</text>
</a>
</g>
</g>
<!-- Node2&#45;&gt;Node28 -->
<g id="edge42" class="edge">
<title>Node2&#45;&gt;Node28</title>
<path fill="none" stroke="midnightblue" d="M2037.3,-202.56C2040.4,-201.99 2043.49,-201.47 2046.5,-201 2217.18,-174.42 2261.86,-184.5 2433.5,-165 2445.74,-163.61 2458.73,-161.99 2471.31,-160.35"/>
<polygon fill="midnightblue" stroke="midnightblue" points="2471.83,-163.81 2481.29,-159.03 2470.92,-156.87 2471.83,-163.81"/>
</g>
<!-- Node4&#45;&gt;Node3 -->
<g id="edge4" class="edge">
<title>Node4&#45;&gt;Node3</title>
<path fill="none" stroke="midnightblue" d="M773.35,-138.41C804.51,-131.07 841.38,-118.67 869.5,-98 892.27,-81.26 909.23,-52.61 918.49,-34.12"/>
<polygon fill="midnightblue" stroke="midnightblue" points="921.68,-35.57 922.84,-25.03 915.37,-32.54 921.68,-35.57"/>
</g>
<!-- Node5 -->
<g id="node5" class="node">
<title>Node5</title>
<g id="a_node5"><a xlink:href="hdf5-core-datatype-interface_8h.html" target="_top" xlink:title=" ">
<polygon fill="none" stroke="black" points="715,-67.5 715,-97.5 860,-97.5 860,-67.5 715,-67.5"/>
<text text-anchor="start" x="723" y="-85.5" font-family="Helvetica,sans-Serif" font-size="10.00">seerep&#45;hdf5&#45;core/hdf5</text>
<text text-anchor="middle" x="787.5" y="-74.5" font-family="Helvetica,sans-Serif" font-size="10.00">&#45;core&#45;datatype&#45;interface.h</text>
</a>
</g>
</g>
<!-- Node4&#45;&gt;Node5 -->
<g id="edge5" class="edge">
<title>Node4&#45;&gt;Node5</title>
<path fill="none" stroke="midnightblue" d="M727.21,-134.4C737.7,-125.54 751.42,-113.96 763.11,-104.09"/>
<polygon fill="midnightblue" stroke="midnightblue" points="765.44,-106.7 770.82,-97.58 760.93,-101.35 765.44,-106.7"/>
</g>
<!-- Node6 -->
<g id="node6" class="node">
<title>Node6</title>
<g id="a_node6"><a xlink:title=" ">
<polygon fill="none" stroke="#bfbfbf" points="728,-0.5 728,-30.5 847,-30.5 847,-0.5 728,-0.5"/>
<text text-anchor="start" x="736" y="-18.5" font-family="Helvetica,sans-Serif" font-size="10.00">seerep&#45;msgs/dataset</text>
<text text-anchor="middle" x="787.5" y="-7.5" font-family="Helvetica,sans-Serif" font-size="10.00">&#45;indexable.h</text>
</a>
</g>
</g>
<!-- Node4&#45;&gt;Node6 -->
<g id="edge19" class="edge">
<title>Node4&#45;&gt;Node6</title>
<path fill="none" stroke="midnightblue" d="M647.55,-146.51C523.29,-141.93 256.06,-128.59 228.5,-98 219.28,-87.76 219.21,-77.17 228.5,-67 244.8,-49.16 571.47,-28.65 717.73,-20.31"/>
<polygon fill="midnightblue" stroke="midnightblue" points="718.16,-23.8 727.95,-19.74 717.76,-16.81 718.16,-23.8"/>
</g>
<!-- Node7 -->
<g id="node7" class="node">
<title>Node7</title>
<g id="a_node7"><a xlink:title=" ">
<polygon fill="none" stroke="#bfbfbf" points="356,-6 356,-25 469,-25 469,-6 356,-6"/>
<text text-anchor="middle" x="412.5" y="-13" font-family="Helvetica,sans-Serif" font-size="10.00">boost/uuid/uuid.hpp</text>
</a>
</g>
</g>
<!-- Node4&#45;&gt;Node7 -->
<g id="edge24" class="edge">
<title>Node4&#45;&gt;Node7</title>
<path fill="none" stroke="midnightblue" d="M647.7,-146.66C521.51,-142.31 246.76,-129.31 218.5,-98 177.26,-52.31 274.31,-31.46 345.5,-22.55"/>
<polygon fill="midnightblue" stroke="midnightblue" points="346.28,-25.98 355.8,-21.31 345.45,-19.03 346.28,-25.98"/>
</g>
<!-- Node4&#45;&gt;Node8 -->
<g id="edge21" class="edge">
<title>Node4&#45;&gt;Node8</title>
<path fill="none" stroke="midnightblue" d="M773.12,-136.46C810.21,-128.15 857.59,-115.43 897.5,-98 939.46,-79.67 983.68,-49.21 1008.21,-31.18"/>
<polygon fill="midnightblue" stroke="midnightblue" points="1010.39,-33.92 1016.32,-25.14 1006.2,-28.31 1010.39,-33.92"/>
</g>
<!-- Node9 -->
<g id="node9" class="node">
<title>Node9</title>
<g id="a_node9"><a xlink:href="hdf5-core-general_8h.html" target="_top" xlink:title=" ">
<polygon fill="none" stroke="black" points="1107,-67.5 1107,-97.5 1232,-97.5 1232,-67.5 1107,-67.5"/>
<text text-anchor="start" x="1115" y="-85.5" font-family="Helvetica,sans-Serif" font-size="10.00">seerep&#45;hdf5&#45;core/hdf5</text>
<text text-anchor="middle" x="1169.5" y="-74.5" font-family="Helvetica,sans-Serif" font-size="10.00">&#45;core&#45;general.h</text>
</a>
</g>
</g>
<!-- Node4&#45;&gt;Node9 -->
<g id="edge9" class="edge">
<title>Node4&#45;&gt;Node9</title>
<path fill="none" stroke="midnightblue" d="M773.36,-139.6C857.76,-127.65 1007.39,-106.46 1096.62,-93.82"/>
<polygon fill="midnightblue" stroke="midnightblue" points="1097.25,-97.27 1106.66,-92.4 1096.27,-90.34 1097.25,-97.27"/>
</g>
<!-- Node4&#45;&gt;Node11 -->
<g id="edge20" class="edge">
<title>Node4&#45;&gt;Node11</title>
<path fill="none" stroke="midnightblue" d="M773.25,-146.99C894.85,-143.33 1157.98,-131.67 1241.5,-98 1262.04,-89.72 1259.89,-75.1 1280.5,-67 1376.54,-29.24 1641.41,-46.11 1743.5,-31 1750.44,-29.97 1757.74,-28.63 1764.85,-27.19"/>
<polygon fill="midnightblue" stroke="midnightblue" points="1766.02,-30.52 1775.07,-25.01 1764.56,-23.67 1766.02,-30.52"/>
</g>
<!-- Node16 -->
<g id="node16" class="node">
<title>Node16</title>
<g id="a_node16"><a xlink:title=" ">
<polygon fill="none" stroke="#bfbfbf" points="0,-73 0,-92 143,-92 143,-73 0,-73"/>
<text text-anchor="middle" x="71.5" y="-80" font-family="Helvetica,sans-Serif" font-size="10.00">boost/functional/hash.hpp</text>
</a>
</g>
</g>
<!-- Node4&#45;&gt;Node16 -->
<g id="edge22" class="edge">
<title>Node4&#45;&gt;Node16</title>
<path fill="none" stroke="midnightblue" d="M647.72,-144.33C544.97,-137.15 334.61,-120.98 157.5,-98 148.03,-96.77 138,-95.27 128.27,-93.7"/>
<polygon fill="midnightblue" stroke="midnightblue" points="128.71,-90.22 118.27,-92.05 127.57,-97.13 128.71,-90.22"/>
</g>
<!-- Node17 -->
<g id="node17" class="node">
<title>Node17</title>
<g id="a_node17"><a xlink:title=" ">
<polygon fill="none" stroke="#bfbfbf" points="238,-73 238,-92 363,-92 363,-73 238,-73"/>
<text text-anchor="middle" x="300.5" y="-80" font-family="Helvetica,sans-Serif" font-size="10.00">boost/lexical_cast.hpp</text>
</a>
</g>
</g>
<!-- Node4&#45;&gt;Node17 -->
<g id="edge23" class="edge">
<title>Node4&#45;&gt;Node17</title>
<path fill="none" stroke="midnightblue" d="M647.74,-140.09C579.76,-130.75 468.2,-114.77 372.5,-98 365.66,-96.8 358.48,-95.46 351.41,-94.08"/>
<polygon fill="midnightblue" stroke="midnightblue" points="351.66,-90.57 341.18,-92.06 350.31,-97.43 351.66,-90.57"/>
</g>
<!-- Node18 -->
<g id="node18" class="node">
<title>Node18</title>
<g id="a_node18"><a xlink:title=" ">
<polygon fill="none" stroke="#bfbfbf" points="381.5,-73 381.5,-92 551.5,-92 551.5,-73 381.5,-73"/>
<text text-anchor="middle" x="466.5" y="-80" font-family="Helvetica,sans-Serif" font-size="10.00">boost/uuid/uuid_generators.hpp</text>
</a>
</g>
</g>
<!-- Node4&#45;&gt;Node18 -->
<g id="edge25" class="edge">
<title>Node4&#45;&gt;Node18</title>
<path fill="none" stroke="midnightblue" d="M657.86,-134.48C613.08,-122.55 549.63,-105.64 508.27,-94.63"/>
<polygon fill="midnightblue" stroke="midnightblue" points="509.08,-91.22 498.52,-92.03 507.28,-97.98 509.08,-91.22"/>
</g>
<!-- Node19 -->
<g id="node19" class="node">
<title>Node19</title>
<g id="a_node19"><a xlink:title=" ">
<polygon fill="none" stroke="#bfbfbf" points="570,-73 570,-92 697,-92 697,-73 570,-73"/>
<text text-anchor="middle" x="633.5" y="-80" font-family="Helvetica,sans-Serif" font-size="10.00">boost/uuid/uuid_io.hpp</text>
</a>
</g>
</g>
<!-- Node4&#45;&gt;Node19 -->
<g id="edge26" class="edge">
<title>Node4&#45;&gt;Node19</title>
<path fill="none" stroke="midnightblue" d="M693.79,-134.4C681.31,-123.86 664.27,-109.48 651.49,-98.69"/>
<polygon fill="midnightblue" stroke="midnightblue" points="653.7,-95.97 643.8,-92.19 649.18,-101.32 653.7,-95.97"/>
</g>
<!-- Node5&#45;&gt;Node6 -->
<g id="edge6" class="edge">
<title>Node5&#45;&gt;Node6</title>
<path fill="none" stroke="midnightblue" d="M787.5,-67.4C787.5,-59.64 787.5,-49.81 787.5,-40.86"/>
<polygon fill="midnightblue" stroke="midnightblue" points="791,-40.58 787.5,-30.58 784,-40.58 791,-40.58"/>
</g>
<!-- Node5&#45;&gt;Node7 -->
<g id="edge7" class="edge">
<title>Node5&#45;&gt;Node7</title>
<path fill="none" stroke="midnightblue" d="M714.65,-68.43C711.9,-67.95 709.17,-67.47 706.5,-67 625.61,-52.81 532.12,-36.82 472.68,-26.71"/>
<polygon fill="midnightblue" stroke="midnightblue" points="473.16,-23.24 462.72,-25.02 471.99,-30.14 473.16,-23.24"/>
</g>
<!-- Node5&#45;&gt;Node8 -->
<g id="edge8" class="edge">
<title>Node5&#45;&gt;Node8</title>
<path fill="none" stroke="midnightblue" d="M853.01,-67.47C893.08,-58.34 945.17,-45.45 990.5,-31 992.77,-30.27 995.11,-29.48 997.45,-28.65"/>
<polygon fill="midnightblue" stroke="midnightblue" points="998.78,-31.89 1006.93,-25.11 996.33,-25.33 998.78,-31.89"/>
</g>
<!-- Node9&#45;&gt;Node3 -->
<g id="edge10" class="edge">
<title>Node9&#45;&gt;Node3</title>
<path fill="none" stroke="midnightblue" d="M1117.07,-67.48C1072.47,-55.55 1009.28,-38.64 968.1,-27.63"/>
<polygon fill="midnightblue" stroke="midnightblue" points="968.95,-24.23 958.38,-25.03 967.14,-30.99 968.95,-24.23"/>
</g>
<!-- Node9&#45;&gt;Node6 -->
<g id="edge12" class="edge">
<title>Node9&#45;&gt;Node6</title>
<path fill="none" stroke="midnightblue" d="M1106.79,-71.71C1044.69,-61.89 946.91,-46.1 862.5,-31 860.79,-30.69 859.07,-30.38 857.33,-30.07"/>
<polygon fill="midnightblue" stroke="midnightblue" points="857.71,-26.58 847.24,-28.21 856.44,-33.46 857.71,-26.58"/>
</g>
<!-- Node9&#45;&gt;Node8 -->
<g id="edge15" class="edge">
<title>Node9&#45;&gt;Node8</title>
<path fill="none" stroke="midnightblue" d="M1138.69,-67.4C1113.88,-56.04 1079.32,-40.22 1055.34,-29.24"/>
<polygon fill="midnightblue" stroke="midnightblue" points="1056.63,-25.99 1046.08,-25.01 1053.72,-32.35 1056.63,-25.99"/>
</g>
<!-- Node10 -->
<g id="node10" class="node">
<title>Node10</title>
<g id="a_node10"><a xlink:title=" ">
<polygon fill="none" stroke="#bfbfbf" points="1081.5,-6 1081.5,-25 1197.5,-25 1197.5,-6 1081.5,-6"/>
<text text-anchor="middle" x="1139.5" y="-13" font-family="Helvetica,sans-Serif" font-size="10.00">seerep&#45;msgs/aabb.h</text>
</a>
</g>
</g>
<!-- Node9&#45;&gt;Node10 -->
<g id="edge11" class="edge">
<title>Node9&#45;&gt;Node10</title>
<path fill="none" stroke="midnightblue" d="M1162.99,-67.4C1158.54,-57.76 1152.61,-44.91 1147.82,-34.54"/>
<polygon fill="midnightblue" stroke="midnightblue" points="1150.88,-32.81 1143.51,-25.19 1144.53,-35.74 1150.88,-32.81"/>
</g>
<!-- Node9&#45;&gt;Node11 -->
<g id="edge13" class="edge">
<title>Node9&#45;&gt;Node11</title>
<path fill="none" stroke="midnightblue" d="M1232.02,-69.11C1236.91,-68.33 1241.78,-67.61 1246.5,-67 1466.12,-38.46 1524.33,-62.84 1743.5,-31 1750.44,-29.99 1757.74,-28.66 1764.85,-27.22"/>
<polygon fill="midnightblue" stroke="midnightblue" points="1766.02,-30.55 1775.08,-25.04 1764.57,-23.7 1766.02,-30.55"/>
</g>
<!-- Node12 -->
<g id="node12" class="node">
<title>Node12</title>
<g id="a_node12"><a xlink:title=" ">
<polygon fill="none" stroke="#bfbfbf" points="1521.5,-6 1521.5,-25 1569.5,-25 1569.5,-6 1521.5,-6"/>
<text text-anchor="middle" x="1545.5" y="-13" font-family="Helvetica,sans-Serif" font-size="10.00">mutex</text>
</a>
</g>
</g>
<!-- Node9&#45;&gt;Node12 -->
<g id="edge14" class="edge">
<title>Node9&#45;&gt;Node12</title>
<path fill="none" stroke="midnightblue" d="M1232.07,-69.44C1236.95,-68.59 1241.8,-67.76 1246.5,-67 1363.39,-48.04 1396.19,-61.92 1510.5,-31 1512.94,-30.34 1515.45,-29.55 1517.93,-28.68"/>
<polygon fill="midnightblue" stroke="midnightblue" points="1519.21,-31.94 1527.28,-25.09 1516.69,-25.41 1519.21,-31.94"/>
</g>
<!-- Node13 -->
<g id="node13" class="node">
<title>Node13</title>
<g id="a_node13"><a xlink:title=" ">
<polygon fill="none" stroke="#bfbfbf" points="1589,-0.5 1589,-30.5 1734,-30.5 1734,-0.5 1589,-0.5"/>
<text text-anchor="start" x="1597" y="-18.5" font-family="Helvetica,sans-Serif" font-size="10.00">boost/log/sources/severity</text>
<text text-anchor="middle" x="1661.5" y="-7.5" font-family="Helvetica,sans-Serif" font-size="10.00">_logger.hpp</text>
</a>
</g>
</g>
<!-- Node9&#45;&gt;Node13 -->
<g id="edge16" class="edge">
<title>Node9&#45;&gt;Node13</title>
<path fill="none" stroke="midnightblue" d="M1232.05,-69.3C1236.93,-68.48 1241.79,-67.7 1246.5,-67 1393.32,-45.25 1431.54,-51.78 1578.5,-31 1578.6,-30.99 1578.71,-30.97 1578.81,-30.96"/>
<polygon fill="midnightblue" stroke="midnightblue" points="1579.29,-34.42 1588.67,-29.5 1578.26,-27.5 1579.29,-34.42"/>
</g>
<!-- Node14 -->
<g id="node14" class="node">
<title>Node14</title>
<g id="a_node14"><a xlink:title=" ">
<polygon fill="none" stroke="#bfbfbf" points="1387.5,-6 1387.5,-25 1501.5,-25 1501.5,-6 1387.5,-6"/>
<text text-anchor="middle" x="1444.5" y="-13" font-family="Helvetica,sans-Serif" font-size="10.00">boost/log/trivial.hpp</text>
</a>
</g>
</g>
<!-- Node9&#45;&gt;Node14 -->
<g id="edge17" class="edge">
<title>Node9&#45;&gt;Node14</title>
<path fill="none" stroke="midnightblue" d="M1228.83,-67.48C1279.73,-55.45 1352.02,-38.36 1398.6,-27.35"/>
<polygon fill="midnightblue" stroke="midnightblue" points="1399.49,-30.74 1408.42,-25.03 1397.88,-23.92 1399.49,-30.74"/>
</g>
<!-- Node15 -->
<g id="node15" class="node">
<title>Node15</title>
<g id="a_node15"><a xlink:title=" ">
<polygon fill="none" stroke="#bfbfbf" points="1216,-6 1216,-25 1365,-25 1365,-6 1216,-6"/>
<text text-anchor="middle" x="1290.5" y="-13" font-family="Helvetica,sans-Serif" font-size="10.00">impl/hdf5&#45;core&#45;general.hpp</text>
</a>
</g>
</g>
<!-- Node9&#45;&gt;Node15 -->
<g id="edge18" class="edge">
<title>Node9&#45;&gt;Node15</title>
<path fill="none" stroke="midnightblue" d="M1195.76,-67.4C1216.52,-56.24 1245.3,-40.78 1265.68,-29.83"/>
<polygon fill="midnightblue" stroke="midnightblue" points="1267.51,-32.82 1274.66,-25.01 1264.2,-26.66 1267.51,-32.82"/>
</g>
<!-- Node20&#45;&gt;Node3 -->
<g id="edge28" class="edge">
<title>Node20&#45;&gt;Node3</title>
<path fill="none" stroke="midnightblue" d="M1677.76,-147.74C1536.5,-145.29 1172.2,-135.44 1057.5,-98 1013.05,-83.49 968.31,-50.87 944.34,-31.59"/>
<polygon fill="midnightblue" stroke="midnightblue" points="946.44,-28.79 936.49,-25.15 942,-34.2 946.44,-28.79"/>
</g>
<!-- Node20&#45;&gt;Node8 -->
<g id="edge38" class="edge">
<title>Node20&#45;&gt;Node8</title>
<path fill="none" stroke="midnightblue" d="M1677.82,-146.44C1531.61,-140.79 1149.54,-123.71 1098.5,-98 1070.4,-83.84 1048.65,-53.27 1036.99,-33.86"/>
<polygon fill="midnightblue" stroke="midnightblue" points="1039.98,-32.03 1031.96,-25.11 1033.91,-35.52 1039.98,-32.03"/>
</g>
<!-- Node20&#45;&gt;Node9 -->
<g id="edge29" class="edge">
<title>Node20&#45;&gt;Node9</title>
<path fill="none" stroke="midnightblue" d="M1677.84,-142.55C1591.88,-133.44 1423.4,-115.28 1280.5,-98 1268.17,-96.51 1255.08,-94.86 1242.37,-93.22"/>
<polygon fill="midnightblue" stroke="midnightblue" points="1242.65,-89.73 1232.29,-91.91 1241.75,-96.67 1242.65,-89.73"/>
</g>
<!-- Node20&#45;&gt;Node11 -->
<g id="edge35" class="edge">
<title>Node20&#45;&gt;Node11</title>
<path fill="none" stroke="midnightblue" d="M1743.03,-134.42C1749.1,-124.33 1757.4,-110.39 1764.5,-98 1777.01,-76.17 1790.95,-50.75 1799.95,-34.18"/>
<polygon fill="midnightblue" stroke="midnightblue" points="1803.17,-35.58 1804.86,-25.12 1797.02,-32.24 1803.17,-35.58"/>
</g>
<!-- Node20&#45;&gt;Node12 -->
<g id="edge37" class="edge">
<title>Node20&#45;&gt;Node12</title>
<path fill="none" stroke="midnightblue" d="M1734.32,-134.31C1733.31,-116.18 1728.79,-85 1710.5,-67 1667.76,-24.95 1637.19,-50.51 1580.5,-31 1578.59,-30.34 1576.63,-29.63 1574.66,-28.89"/>
<polygon fill="midnightblue" stroke="midnightblue" points="1575.55,-25.48 1564.96,-25.06 1572.97,-31.99 1575.55,-25.48"/>
</g>
<!-- Node20&#45;&gt;Node13 -->
<g id="edge39" class="edge">
<title>Node20&#45;&gt;Node13</title>
<path fill="none" stroke="midnightblue" d="M1742.3,-134.25C1750.51,-117.15 1760.68,-88.15 1748.5,-67 1740.57,-53.22 1727.27,-42.85 1713.43,-35.22"/>
<polygon fill="midnightblue" stroke="midnightblue" points="1714.81,-31.99 1704.31,-30.58 1711.64,-38.23 1714.81,-31.99"/>
</g>
<!-- Node20&#45;&gt;Node14 -->
<g id="edge40" class="edge">
<title>Node20&#45;&gt;Node14</title>
<path fill="none" stroke="midnightblue" d="M1728.55,-134.21C1720.06,-115.67 1702.66,-83.73 1677.5,-67 1676.53,-66.36 1562.63,-41.84 1494.46,-27.21"/>
<polygon fill="midnightblue" stroke="midnightblue" points="1494.85,-23.72 1484.34,-25.04 1493.39,-30.56 1494.85,-23.72"/>
</g>
<!-- Node21 -->
<g id="node21" class="node">
<title>Node21</title>
<g id="a_node21"><a xlink:title=" ">
<polygon fill="none" stroke="#bfbfbf" points="1838.5,-67.5 1838.5,-97.5 1996.5,-97.5 1996.5,-67.5 1838.5,-67.5"/>
<text text-anchor="start" x="1846.5" y="-85.5" font-family="Helvetica,sans-Serif" font-size="10.00">seerep&#45;msgs/boundingbox2d</text>
<text text-anchor="middle" x="1917.5" y="-74.5" font-family="Helvetica,sans-Serif" font-size="10.00">_labeled_generated.h</text>
</a>
</g>
</g>
<!-- Node20&#45;&gt;Node21 -->
<g id="edge30" class="edge">
<title>Node20&#45;&gt;Node21</title>
<path fill="none" stroke="midnightblue" d="M1774.21,-134.4C1801.79,-124.6 1838.72,-111.48 1868.19,-101.02"/>
<polygon fill="midnightblue" stroke="midnightblue" points="1869.62,-104.22 1877.87,-97.58 1867.27,-97.63 1869.62,-104.22"/>
</g>
<!-- Node22 -->
<g id="node22" class="node">
<title>Node22</title>
<g id="a_node22"><a xlink:title=" ">
<polygon fill="none" stroke="#bfbfbf" points="2014.5,-67.5 2014.5,-97.5 2160.5,-97.5 2160.5,-67.5 2014.5,-67.5"/>
<text text-anchor="start" x="2022.5" y="-85.5" font-family="Helvetica,sans-Serif" font-size="10.00">seerep&#45;msgs/boundingbox</text>
<text text-anchor="middle" x="2087.5" y="-74.5" font-family="Helvetica,sans-Serif" font-size="10.00">_labeled_generated.h</text>
</a>
</g>
</g>
<!-- Node20&#45;&gt;Node22 -->
<g id="edge31" class="edge">
<title>Node20&#45;&gt;Node22</title>
<path fill="none" stroke="midnightblue" d="M1791.22,-138.06C1848.87,-127.44 1938.8,-110.88 2004.47,-98.79"/>
<polygon fill="midnightblue" stroke="midnightblue" points="2005.19,-102.22 2014.39,-96.96 2003.92,-95.33 2005.19,-102.22"/>
</g>
<!-- Node23 -->
<g id="node23" class="node">
<title>Node23</title>
<g id="a_node23"><a xlink:title=" ">
<polygon fill="none" stroke="#bfbfbf" points="1289,-67.5 1289,-97.5 1426,-97.5 1426,-67.5 1289,-67.5"/>
<text text-anchor="start" x="1297" y="-85.5" font-family="Helvetica,sans-Serif" font-size="10.00">seerep&#45;msgs/union_map</text>
<text text-anchor="middle" x="1357.5" y="-74.5" font-family="Helvetica,sans-Serif" font-size="10.00">_entry_generated.h</text>
</a>
</g>
</g>
<!-- Node20&#45;&gt;Node23 -->
<g id="edge32" class="edge">
<title>Node20&#45;&gt;Node23</title>
<path fill="none" stroke="midnightblue" d="M1677.97,-139.24C1619.92,-129.66 1526.7,-114.11 1436.27,-98.12"/>
<polygon fill="midnightblue" stroke="midnightblue" points="1436.85,-94.67 1426.39,-96.37 1435.63,-101.56 1436.85,-94.67"/>
</g>
<!-- Node20&#45;&gt;Node24 -->
<g id="edge33" class="edge">
<title>Node20&#45;&gt;Node24</title>
<path fill="none" stroke="midnightblue" d="M1791.17,-144.35C1874.53,-137.7 2034.92,-122.82 2169.5,-98 2174.96,-96.99 2180.67,-95.76 2186.28,-94.44"/>
<polygon fill="midnightblue" stroke="midnightblue" points="2187.32,-97.79 2196.2,-92.01 2185.65,-90.99 2187.32,-97.79"/>
</g>
<!-- Node20&#45;&gt;Node25 -->
<g id="edge34" class="edge">
<title>Node20&#45;&gt;Node25</title>
<path fill="none" stroke="midnightblue" d="M1791.38,-146.14C1891.48,-141.36 2105.39,-128.27 2283.5,-98 2289.27,-97.02 2295.31,-95.77 2301.22,-94.41"/>
<polygon fill="midnightblue" stroke="midnightblue" points="2302.08,-97.81 2310.98,-92.06 2300.44,-91 2302.08,-97.81"/>
</g>
<!-- Node26 -->
<g id="node26" class="node">
<title>Node26</title>
<g id="a_node26"><a xlink:title=" ">
<polygon fill="none" stroke="#bfbfbf" points="1444.5,-73 1444.5,-92 1512.5,-92 1512.5,-73 1444.5,-73"/>
<text text-anchor="middle" x="1478.5" y="-80" font-family="Helvetica,sans-Serif" font-size="10.00">filesystem</text>
</a>
</g>
</g>
<!-- Node20&#45;&gt;Node26 -->
<g id="edge36" class="edge">
<title>Node20&#45;&gt;Node26</title>
<path fill="none" stroke="midnightblue" d="M1677.62,-136.52C1634.51,-127.07 1573.93,-113.02 1521.5,-98 1518.49,-97.14 1515.38,-96.19 1512.27,-95.22"/>
<polygon fill="midnightblue" stroke="midnightblue" points="1513.08,-91.8 1502.48,-92.02 1510.91,-98.45 1513.08,-91.8"/>
</g>
<!-- Node27 -->
<g id="node27" class="node">
<title>Node27</title>
<g id="a_node27"><a xlink:title=" ">
<polygon fill="none" stroke="#bfbfbf" points="1530.5,-73 1530.5,-92 1668.5,-92 1668.5,-73 1530.5,-73"/>
<text text-anchor="middle" x="1599.5" y="-80" font-family="Helvetica,sans-Serif" font-size="10.00">impl/hdf5&#45;fb&#45;general.hpp</text>
</a>
</g>
</g>
<!-- Node20&#45;&gt;Node27 -->
<g id="edge41" class="edge">
<title>Node20&#45;&gt;Node27</title>
<path fill="none" stroke="midnightblue" d="M1705.21,-134.4C1681.73,-123.09 1649.06,-107.36 1626.27,-96.39"/>
<polygon fill="midnightblue" stroke="midnightblue" points="1627.7,-93.19 1617.17,-92.01 1624.66,-99.5 1627.7,-93.19"/>
</g>
</g>
</svg>
