<?xml version="1.0" encoding="UTF-8" standalone="no"?>
<!DOCTYPE svg PUBLIC "-//W3C//DTD SVG 1.1//EN"
 "http://www.w3.org/Graphics/SVG/1.1/DTD/svg11.dtd">
<!-- Generated by graphviz version 2.43.0 (0)
 -->
<!-- Title: seerep&#45;hdf5/seerep&#45;hdf5&#45;core/include/seerep&#45;hdf5&#45;core/hdf5&#45;core&#45;datatype&#45;interface.h Pages: 1 -->
<svg width="333pt" height="128pt"
 viewBox="0.00 0.00 332.50 128.00" xmlns="http://www.w3.org/2000/svg" xmlns:xlink="http://www.w3.org/1999/xlink">
<g id="graph0" class="graph" transform="scale(1 1) rotate(0) translate(4 124)">
<title>seerep&#45;hdf5/seerep&#45;hdf5&#45;core/include/seerep&#45;hdf5&#45;core/hdf5&#45;core&#45;datatype&#45;interface.h</title>
<!-- Node1 -->
<g id="node1" class="node">
<title>Node1</title>
<g id="a_node1"><a xlink:title=" ">
<polygon fill="#bfbfbf" stroke="black" points="111.5,-67.5 111.5,-119.5 275.5,-119.5 275.5,-67.5 111.5,-67.5"/>
<text text-anchor="start" x="119.5" y="-107.5" font-family="Helvetica,sans-Serif" font-size="10.00">seerep&#45;hdf5/seerep</text>
<text text-anchor="start" x="119.5" y="-96.5" font-family="Helvetica,sans-Serif" font-size="10.00">&#45;hdf5&#45;core/include/seerep</text>
<text text-anchor="start" x="119.5" y="-85.5" font-family="Helvetica,sans-Serif" font-size="10.00">&#45;hdf5&#45;core/hdf5&#45;core&#45;datatype</text>
<text text-anchor="middle" x="193.5" y="-74.5" font-family="Helvetica,sans-Serif" font-size="10.00">&#45;interface.h</text>
</a>
</g>
</g>
<!-- Node2 -->
<g id="node2" class="node">
<title>Node2</title>
<g id="a_node2"><a xlink:title=" ">
<polygon fill="none" stroke="#bfbfbf" points="0,-0.5 0,-30.5 119,-30.5 119,-0.5 0,-0.5"/>
<text text-anchor="start" x="8" y="-18.5" font-family="Helvetica,sans-Serif" font-size="10.00">seerep&#45;msgs/dataset</text>
<text text-anchor="middle" x="59.5" y="-7.5" font-family="Helvetica,sans-Serif" font-size="10.00">&#45;indexable.h</text>
</a>
</g>
</g>
<!-- Node1&#45;&gt;Node2 -->
<g id="edge1" class="edge">
<title>Node1&#45;&gt;Node2</title>
<path fill="none" stroke="midnightblue" d="M149.25,-67.4C131.11,-57.12 110.45,-45.4 93.53,-35.8"/>
<polygon fill="midnightblue" stroke="midnightblue" points="94.97,-32.6 84.55,-30.71 91.52,-38.68 94.97,-32.6"/>
</g>
<!-- Node3 -->
<g id="node3" class="node">
<title>Node3</title>
<g id="a_node3"><a xlink:title=" ">
<polygon fill="none" stroke="#bfbfbf" points="137,-6 137,-25 250,-25 250,-6 137,-6"/>
<text text-anchor="middle" x="193.5" y="-13" font-family="Helvetica,sans-Serif" font-size="10.00">boost/uuid/uuid.hpp</text>
</a>
</g>
</g>
<!-- Node1&#45;&gt;Node3 -->
<g id="edge2" class="edge">
<title>Node1&#45;&gt;Node3</title>
<path fill="none" stroke="midnightblue" d="M193.5,-67.19C193.5,-56.76 193.5,-44.9 193.5,-35.27"/>
<polygon fill="midnightblue" stroke="midnightblue" points="197,-35.21 193.5,-25.21 190,-35.21 197,-35.21"/>
</g>
<!-- Node4 -->
<g id="node4" class="node">
<title>Node4</title>
<g id="a_node4"><a xlink:title=" ">
<polygon fill="none" stroke="#bfbfbf" points="268.5,-6 268.5,-25 324.5,-25 324.5,-6 268.5,-6"/>
<text text-anchor="middle" x="296.5" y="-13" font-family="Helvetica,sans-Serif" font-size="10.00">optional</text>
</a>
</g>
</g>
<!-- Node1&#45;&gt;Node4 -->
<g id="edge3" class="edge">
<title>Node1&#45;&gt;Node4</title>
<path fill="none" stroke="midnightblue" d="M227.51,-67.4C243.66,-55.49 262.42,-41.65 276.29,-31.41"/>
<polygon fill="midnightblue" stroke="midnightblue" points="278.66,-34.01 284.63,-25.26 274.5,-28.38 278.66,-34.01"/>
</g>
</g>
</svg>
