<?xml version="1.0" encoding="UTF-8" standalone="no"?>
<!DOCTYPE svg PUBLIC "-//W3C//DTD SVG 1.1//EN"
 "http://www.w3.org/Graphics/SVG/1.1/DTD/svg11.dtd">
<!-- Generated by graphviz version 2.43.0 (0)
 -->
<!-- Title: seerep_hdf5/seerep_hdf5_core/src/hdf5_core_cameraintrinsics.cpp Pages: 1 -->
<svg width="2635pt" height="307pt"
 viewBox="0.00 0.00 2634.50 307.00" xmlns="http://www.w3.org/2000/svg" xmlns:xlink="http://www.w3.org/1999/xlink">
<g id="graph0" class="graph" transform="scale(1 1) rotate(0) translate(4 303)">
<title>seerep_hdf5/seerep_hdf5_core/src/hdf5_core_cameraintrinsics.cpp</title>
<!-- Node1 -->
<g id="node1" class="node">
<title>Node1</title>
<g id="a_node1"><a xlink:title=" ">
<polygon fill="#bfbfbf" stroke="black" points="1490.5,-257.5 1490.5,-298.5 1639.5,-298.5 1639.5,-257.5 1490.5,-257.5"/>
<text text-anchor="start" x="1498.5" y="-286.5" font-family="Helvetica,sans-Serif" font-size="10.00">seerep_hdf5/seerep</text>
<text text-anchor="start" x="1498.5" y="-275.5" font-family="Helvetica,sans-Serif" font-size="10.00">_hdf5_core/src/hdf5</text>
<text text-anchor="middle" x="1565" y="-264.5" font-family="Helvetica,sans-Serif" font-size="10.00">_core_cameraintrinsics.cpp</text>
</a>
</g>
</g>
<!-- Node2 -->
<g id="node2" class="node">
<title>Node2</title>
<g id="a_node2"><a xlink:href="hdf5__core__cameraintrinsics_8h.html" target="_top" xlink:title=" ">
<polygon fill="none" stroke="black" points="1496,-190.5 1496,-220.5 1634,-220.5 1634,-190.5 1496,-190.5"/>
<text text-anchor="start" x="1504" y="-208.5" font-family="Helvetica,sans-Serif" font-size="10.00">seerep_hdf5_core/hdf5</text>
<text text-anchor="middle" x="1565" y="-197.5" font-family="Helvetica,sans-Serif" font-size="10.00">_core_cameraintrinsics.h</text>
</a>
</g>
</g>
<!-- Node1&#45;&gt;Node2 -->
<g id="edge1" class="edge">
<title>Node1&#45;&gt;Node2</title>
<path fill="none" stroke="midnightblue" d="M1565,-257.36C1565,-249.23 1565,-239.7 1565,-231.11"/>
<polygon fill="midnightblue" stroke="midnightblue" points="1568.5,-230.89 1565,-220.89 1561.5,-230.89 1568.5,-230.89"/>
</g>
<!-- Node3 -->
<g id="node3" class="node">
<title>Node3</title>
<g id="a_node3"><a xlink:title=" ">
<polygon fill="none" stroke="#bfbfbf" points="982,-129 982,-148 1114,-148 1114,-129 982,-129"/>
<text text-anchor="middle" x="1048" y="-136" font-family="Helvetica,sans-Serif" font-size="10.00">highfive/H5DataSet.hpp</text>
</a>
</g>
</g>
<!-- Node2&#45;&gt;Node3 -->
<g id="edge2" class="edge">
<title>Node2&#45;&gt;Node3</title>
<path fill="none" stroke="midnightblue" d="M1495.94,-197.9C1409.66,-189.34 1257.56,-173.21 1128,-154 1119.67,-152.77 1110.88,-151.32 1102.29,-149.83"/>
<polygon fill="midnightblue" stroke="midnightblue" points="1102.8,-146.36 1092.35,-148.06 1101.58,-153.25 1102.8,-146.36"/>
</g>
<!-- Node4 -->
<g id="node4" class="node">
<title>Node4</title>
<g id="a_node4"><a xlink:title=" ">
<polygon fill="none" stroke="#bfbfbf" points="0,-62 0,-81 110,-81 110,-62 0,-62"/>
<text text-anchor="middle" x="55" y="-69" font-family="Helvetica,sans-Serif" font-size="10.00">highfive/H5File.hpp</text>
</a>
</g>
</g>
<!-- Node2&#45;&gt;Node4 -->
<g id="edge3" class="edge">
<title>Node2&#45;&gt;Node4</title>
<path fill="none" stroke="midnightblue" d="M1495.61,-200.46C1396.44,-193.91 1219.65,-179.1 1161,-154 1140.96,-145.43 1143.4,-130.68 1123,-123 1018.53,-83.67 229.7,-101.4 119,-87 112.02,-86.09 104.67,-84.78 97.55,-83.3"/>
<polygon fill="midnightblue" stroke="midnightblue" points="97.87,-79.79 87.35,-81.06 96.36,-86.63 97.87,-79.79"/>
</g>
<!-- Node5 -->
<g id="node5" class="node">
<title>Node5</title>
<g id="a_node5"><a xlink:href="hdf5__core__general_8h.html" target="_top" xlink:title=" ">
<polygon fill="none" stroke="black" points="1170,-123.5 1170,-153.5 1298,-153.5 1298,-123.5 1170,-123.5"/>
<text text-anchor="start" x="1178" y="-141.5" font-family="Helvetica,sans-Serif" font-size="10.00">seerep_hdf5_core/hdf5</text>
<text text-anchor="middle" x="1234" y="-130.5" font-family="Helvetica,sans-Serif" font-size="10.00">_core_general.h</text>
</a>
</g>
</g>
<!-- Node2&#45;&gt;Node5 -->
<g id="edge4" class="edge">
<title>Node2&#45;&gt;Node5</title>
<path fill="none" stroke="midnightblue" d="M1495.61,-190.87C1440.71,-180.09 1364.21,-165.07 1308.12,-154.06"/>
<polygon fill="midnightblue" stroke="midnightblue" points="1308.73,-150.61 1298.24,-152.12 1307.38,-157.48 1308.73,-150.61"/>
</g>
<!-- Node23 -->
<g id="node23" class="node">
<title>Node23</title>
<g id="a_node23"><a xlink:href="header_8h.html" target="_top" xlink:title=" ">
<polygon fill="none" stroke="black" points="1867.5,-129 1867.5,-148 1926.5,-148 1926.5,-129 1867.5,-129"/>
<text text-anchor="middle" x="1897" y="-136" font-family="Helvetica,sans-Serif" font-size="10.00">header.h</text>
</a>
</g>
</g>
<!-- Node2&#45;&gt;Node23 -->
<g id="edge23" class="edge">
<title>Node2&#45;&gt;Node23</title>
<path fill="none" stroke="midnightblue" d="M1634.19,-190.95C1701.68,-177.74 1801.98,-158.1 1857.1,-147.31"/>
<polygon fill="midnightblue" stroke="midnightblue" points="1858.04,-150.69 1867.18,-145.34 1856.69,-143.82 1858.04,-150.69"/>
</g>
<!-- Node27 -->
<g id="node27" class="node">
<title>Node27</title>
<g id="a_node27"><a xlink:href="region__of__interest_8h.html" target="_top" xlink:title=" ">
<polygon fill="none" stroke="black" points="1945,-129 1945,-148 2059,-148 2059,-129 1945,-129"/>
<text text-anchor="middle" x="2002" y="-136" font-family="Helvetica,sans-Serif" font-size="10.00">region_of_interest.h</text>
</a>
</g>
</g>
<!-- Node2&#45;&gt;Node27 -->
<g id="edge28" class="edge">
<title>Node2&#45;&gt;Node27</title>
<path fill="none" stroke="midnightblue" d="M1634.32,-196.76C1709.05,-188.03 1831.36,-172.59 1936,-154 1942.37,-152.87 1949.05,-151.55 1955.62,-150.18"/>
<polygon fill="midnightblue" stroke="midnightblue" points="1956.75,-153.52 1965.79,-148.01 1955.28,-146.68 1956.75,-153.52"/>
</g>
<!-- Node28 -->
<g id="node28" class="node">
<title>Node28</title>
<g id="a_node28"><a xlink:title=" ">
<polygon fill="none" stroke="#bfbfbf" points="2077.5,-123.5 2077.5,-153.5 2198.5,-153.5 2198.5,-123.5 2077.5,-123.5"/>
<text text-anchor="start" x="2085.5" y="-141.5" font-family="Helvetica,sans-Serif" font-size="10.00">seerep_msgs/camera</text>
<text text-anchor="middle" x="2138" y="-130.5" font-family="Helvetica,sans-Serif" font-size="10.00">_intrinsics.h</text>
</a>
</g>
</g>
<!-- Node2&#45;&gt;Node28 -->
<g id="edge29" class="edge">
<title>Node2&#45;&gt;Node28</title>
<path fill="none" stroke="midnightblue" d="M1634.04,-199.86C1729.24,-192.95 1906.35,-178.26 2067.28,-154"/>
<polygon fill="midnightblue" stroke="midnightblue" points="2068,-157.43 2077.36,-152.46 2066.95,-150.51 2068,-157.43"/>
</g>
<!-- Node5&#45;&gt;Node4 -->
<g id="edge5" class="edge">
<title>Node5&#45;&gt;Node4</title>
<path fill="none" stroke="midnightblue" d="M1169.84,-124.79C1165.17,-124.1 1160.52,-123.5 1156,-123 697.58,-72.72 576.35,-146.21 119,-87 112.02,-86.1 104.67,-84.78 97.55,-83.31"/>
<polygon fill="midnightblue" stroke="midnightblue" points="97.86,-79.8 87.35,-81.07 96.36,-86.63 97.86,-79.8"/>
</g>
<!-- Node6 -->
<g id="node6" class="node">
<title>Node6</title>
<g id="a_node6"><a xlink:title=" ">
<polygon fill="none" stroke="#bfbfbf" points="128.5,-62 128.5,-81 245.5,-81 245.5,-62 128.5,-62"/>
<text text-anchor="middle" x="187" y="-69" font-family="Helvetica,sans-Serif" font-size="10.00">seerep_msgs/aabb.h</text>
</a>
</g>
</g>
<!-- Node5&#45;&gt;Node6 -->
<g id="edge6" class="edge">
<title>Node5&#45;&gt;Node6</title>
<path fill="none" stroke="midnightblue" d="M1169.84,-124.82C1165.17,-124.12 1160.52,-123.51 1156,-123 757.74,-78.26 652.64,-136.97 255,-87 247.34,-86.04 239.26,-84.65 231.45,-83.11"/>
<polygon fill="midnightblue" stroke="midnightblue" points="231.9,-79.63 221.4,-81.02 230.48,-86.48 231.9,-79.63"/>
</g>
<!-- Node7 -->
<g id="node7" class="node">
<title>Node7</title>
<g id="a_node7"><a xlink:title=" ">
<polygon fill="none" stroke="#bfbfbf" points="263.5,-56.5 263.5,-86.5 384.5,-86.5 384.5,-56.5 263.5,-56.5"/>
<text text-anchor="start" x="271.5" y="-74.5" font-family="Helvetica,sans-Serif" font-size="10.00">seerep_msgs/dataset</text>
<text text-anchor="middle" x="324" y="-63.5" font-family="Helvetica,sans-Serif" font-size="10.00">_indexable.h</text>
</a>
</g>
</g>
<!-- Node5&#45;&gt;Node7 -->
<g id="edge7" class="edge">
<title>Node5&#45;&gt;Node7</title>
<path fill="none" stroke="midnightblue" d="M1169.83,-124.85C1165.16,-124.15 1160.52,-123.52 1156,-123 822.5,-84.31 732.13,-128.63 394.67,-86.92"/>
<polygon fill="midnightblue" stroke="midnightblue" points="394.97,-83.43 384.61,-85.66 394.1,-90.38 394.97,-83.43"/>
</g>
<!-- Node8 -->
<g id="node8" class="node">
<title>Node8</title>
<g id="a_node8"><a xlink:title=" ">
<polygon fill="none" stroke="#bfbfbf" points="403,-56.5 403,-86.5 529,-86.5 529,-56.5 403,-56.5"/>
<text text-anchor="start" x="411" y="-74.5" font-family="Helvetica,sans-Serif" font-size="10.00">seerep_msgs/geodetic</text>
<text text-anchor="middle" x="466" y="-63.5" font-family="Helvetica,sans-Serif" font-size="10.00">_coordinates.h</text>
</a>
</g>
</g>
<!-- Node5&#45;&gt;Node8 -->
<g id="edge8" class="edge">
<title>Node5&#45;&gt;Node8</title>
<path fill="none" stroke="midnightblue" d="M1169.83,-124.91C1165.16,-124.2 1160.51,-123.55 1156,-123 886.65,-90.24 813.25,-121.07 539.46,-86.91"/>
<polygon fill="midnightblue" stroke="midnightblue" points="539.58,-83.39 529.22,-85.61 538.7,-90.34 539.58,-83.39"/>
</g>
<!-- Node9 -->
<g id="node9" class="node">
<title>Node9</title>
<g id="a_node9"><a xlink:title=" ">
<polygon fill="none" stroke="#bfbfbf" points="547.5,-62 547.5,-81 664.5,-81 664.5,-62 547.5,-62"/>
<text text-anchor="middle" x="606" y="-69" font-family="Helvetica,sans-Serif" font-size="10.00">seerep_msgs/label.h</text>
</a>
</g>
</g>
<!-- Node5&#45;&gt;Node9 -->
<g id="edge9" class="edge">
<title>Node5&#45;&gt;Node9</title>
<path fill="none" stroke="midnightblue" d="M1169.81,-124.99C1165.15,-124.26 1160.51,-123.59 1156,-123 942.97,-95.33 886.65,-117.47 674,-87 666.69,-85.95 658.99,-84.58 651.5,-83.09"/>
<polygon fill="midnightblue" stroke="midnightblue" points="651.98,-79.62 641.48,-81.02 650.56,-86.47 651.98,-79.62"/>
</g>
<!-- Node10 -->
<g id="node10" class="node">
<title>Node10</title>
<g id="a_node10"><a xlink:title=" ">
<polygon fill="none" stroke="#bfbfbf" points="683,-62 683,-81 847,-81 847,-62 683,-62"/>
<text text-anchor="middle" x="765" y="-69" font-family="Helvetica,sans-Serif" font-size="10.00">seerep_msgs/label_category.h</text>
</a>
</g>
</g>
<!-- Node5&#45;&gt;Node10 -->
<g id="edge10" class="edge">
<title>Node5&#45;&gt;Node10</title>
<path fill="none" stroke="midnightblue" d="M1169.78,-125.23C1165.12,-124.44 1160.49,-123.69 1156,-123 1023.69,-102.76 989.57,-105.42 857,-87 847.27,-85.65 836.98,-84.12 826.94,-82.58"/>
<polygon fill="midnightblue" stroke="midnightblue" points="827.43,-79.11 817.01,-81.04 826.36,-86.03 827.43,-79.11"/>
</g>
<!-- Node11 -->
<g id="node11" class="node">
<title>Node11</title>
<g id="a_node11"><a xlink:title=" ">
<polygon fill="none" stroke="#bfbfbf" points="865.5,-62 865.5,-81 978.5,-81 978.5,-62 865.5,-62"/>
<text text-anchor="middle" x="922" y="-69" font-family="Helvetica,sans-Serif" font-size="10.00">boost/geometry.hpp</text>
</a>
</g>
</g>
<!-- Node5&#45;&gt;Node11 -->
<g id="edge11" class="edge">
<title>Node5&#45;&gt;Node11</title>
<path fill="none" stroke="midnightblue" d="M1169.98,-124.61C1120.3,-114.55 1049.73,-100.12 988,-87 982.27,-85.78 976.26,-84.49 970.3,-83.19"/>
<polygon fill="midnightblue" stroke="midnightblue" points="970.89,-79.74 960.37,-81.02 969.39,-86.58 970.89,-79.74"/>
</g>
<!-- Node12 -->
<g id="node12" class="node">
<title>Node12</title>
<g id="a_node12"><a xlink:title=" ">
<polygon fill="none" stroke="#bfbfbf" points="997,-62 997,-81 1045,-81 1045,-62 997,-62"/>
<text text-anchor="middle" x="1021" y="-69" font-family="Helvetica,sans-Serif" font-size="10.00">mutex</text>
</a>
</g>
</g>
<!-- Node5&#45;&gt;Node12 -->
<g id="edge12" class="edge">
<title>Node5&#45;&gt;Node12</title>
<path fill="none" stroke="midnightblue" d="M1176.2,-123.49C1140.58,-114.32 1094.18,-101.38 1054,-87 1052.34,-86.41 1050.64,-85.77 1048.94,-85.1"/>
<polygon fill="midnightblue" stroke="midnightblue" points="1049.89,-81.7 1039.32,-81.09 1047.2,-88.17 1049.89,-81.7"/>
</g>
<!-- Node13 -->
<g id="node13" class="node">
<title>Node13</title>
<g id="a_node13"><a xlink:title=" ">
<polygon fill="none" stroke="#bfbfbf" points="1063,-62 1063,-81 1119,-81 1119,-62 1063,-62"/>
<text text-anchor="middle" x="1091" y="-69" font-family="Helvetica,sans-Serif" font-size="10.00">optional</text>
</a>
</g>
</g>
<!-- Node5&#45;&gt;Node13 -->
<g id="edge13" class="edge">
<title>Node5&#45;&gt;Node13</title>
<path fill="none" stroke="midnightblue" d="M1202.97,-123.4C1177.99,-112.04 1143.18,-96.22 1119.04,-85.24"/>
<polygon fill="midnightblue" stroke="midnightblue" points="1120.27,-81.96 1109.72,-81.01 1117.37,-88.33 1120.27,-81.96"/>
</g>
<!-- Node14 -->
<g id="node14" class="node">
<title>Node14</title>
<g id="a_node14"><a xlink:title=" ">
<polygon fill="none" stroke="#bfbfbf" points="1137.5,-62 1137.5,-81 1206.5,-81 1206.5,-62 1137.5,-62"/>
<text text-anchor="middle" x="1172" y="-69" font-family="Helvetica,sans-Serif" font-size="10.00">type_traits</text>
</a>
</g>
</g>
<!-- Node5&#45;&gt;Node14 -->
<g id="edge14" class="edge">
<title>Node5&#45;&gt;Node14</title>
<path fill="none" stroke="midnightblue" d="M1220.55,-123.4C1210.78,-113.16 1197.56,-99.3 1187.38,-88.62"/>
<polygon fill="midnightblue" stroke="midnightblue" points="1189.73,-86.01 1180.29,-81.19 1184.66,-90.85 1189.73,-86.01"/>
</g>
<!-- Node15 -->
<g id="node15" class="node">
<title>Node15</title>
<g id="a_node15"><a xlink:title=" ">
<polygon fill="none" stroke="#bfbfbf" points="1224.5,-56.5 1224.5,-86.5 1369.5,-86.5 1369.5,-56.5 1224.5,-56.5"/>
<text text-anchor="start" x="1232.5" y="-74.5" font-family="Helvetica,sans-Serif" font-size="10.00">boost/log/sources/severity</text>
<text text-anchor="middle" x="1297" y="-63.5" font-family="Helvetica,sans-Serif" font-size="10.00">_logger.hpp</text>
</a>
</g>
</g>
<!-- Node5&#45;&gt;Node15 -->
<g id="edge15" class="edge">
<title>Node5&#45;&gt;Node15</title>
<path fill="none" stroke="midnightblue" d="M1247.67,-123.4C1256.01,-114.79 1266.83,-103.63 1276.22,-93.94"/>
<polygon fill="midnightblue" stroke="midnightblue" points="1278.91,-96.19 1283.36,-86.58 1273.88,-91.32 1278.91,-96.19"/>
</g>
<!-- Node16 -->
<g id="node16" class="node">
<title>Node16</title>
<g id="a_node16"><a xlink:title=" ">
<polygon fill="none" stroke="#bfbfbf" points="1388,-62 1388,-81 1502,-81 1502,-62 1388,-62"/>
<text text-anchor="middle" x="1445" y="-69" font-family="Helvetica,sans-Serif" font-size="10.00">boost/log/trivial.hpp</text>
</a>
</g>
</g>
<!-- Node5&#45;&gt;Node16 -->
<g id="edge16" class="edge">
<title>Node5&#45;&gt;Node16</title>
<path fill="none" stroke="midnightblue" d="M1279.52,-123.48C1317.84,-111.67 1371.96,-95 1407.74,-83.98"/>
<polygon fill="midnightblue" stroke="midnightblue" points="1408.79,-87.32 1417.31,-81.03 1406.73,-80.63 1408.79,-87.32"/>
</g>
<!-- Node17 -->
<g id="node17" class="node">
<title>Node17</title>
<g id="a_node17"><a xlink:title=" ">
<polygon fill="none" stroke="#bfbfbf" points="1520.5,-62 1520.5,-81 1663.5,-81 1663.5,-62 1520.5,-62"/>
<text text-anchor="middle" x="1592" y="-69" font-family="Helvetica,sans-Serif" font-size="10.00">boost/functional/hash.hpp</text>
</a>
</g>
</g>
<!-- Node5&#45;&gt;Node17 -->
<g id="edge17" class="edge">
<title>Node5&#45;&gt;Node17</title>
<path fill="none" stroke="midnightblue" d="M1298,-125.88C1365.39,-113.64 1470.49,-94.56 1535.08,-82.83"/>
<polygon fill="midnightblue" stroke="midnightblue" points="1535.88,-86.25 1545.09,-81.02 1534.63,-79.36 1535.88,-86.25"/>
</g>
<!-- Node18 -->
<g id="node18" class="node">
<title>Node18</title>
<g id="a_node18"><a xlink:title=" ">
<polygon fill="none" stroke="#bfbfbf" points="1681.5,-62 1681.5,-81 1806.5,-81 1806.5,-62 1681.5,-62"/>
<text text-anchor="middle" x="1744" y="-69" font-family="Helvetica,sans-Serif" font-size="10.00">boost/lexical_cast.hpp</text>
</a>
</g>
</g>
<!-- Node5&#45;&gt;Node18 -->
<g id="edge18" class="edge">
<title>Node5&#45;&gt;Node18</title>
<path fill="none" stroke="midnightblue" d="M1298.22,-131.88C1383.95,-123.97 1540.42,-108.12 1673,-87 1680.26,-85.84 1687.91,-84.46 1695.38,-83.01"/>
<polygon fill="midnightblue" stroke="midnightblue" points="1696.3,-86.4 1705.42,-81.01 1694.93,-79.53 1696.3,-86.4"/>
</g>
<!-- Node19 -->
<g id="node19" class="node">
<title>Node19</title>
<g id="a_node19"><a xlink:title=" ">
<polygon fill="none" stroke="#bfbfbf" points="2329.5,-62 2329.5,-81 2442.5,-81 2442.5,-62 2329.5,-62"/>
<text text-anchor="middle" x="2386" y="-69" font-family="Helvetica,sans-Serif" font-size="10.00">boost/uuid/uuid.hpp</text>
</a>
</g>
</g>
<!-- Node5&#45;&gt;Node19 -->
<g id="edge19" class="edge">
<title>Node5&#45;&gt;Node19</title>
<path fill="none" stroke="midnightblue" d="M1298.05,-135.95C1499.79,-130.85 2120.48,-113.36 2320,-87 2327.28,-86.04 2334.94,-84.68 2342.36,-83.18"/>
<polygon fill="midnightblue" stroke="midnightblue" points="2343.23,-86.57 2352.28,-81.06 2341.77,-79.73 2343.23,-86.57"/>
</g>
<!-- Node20 -->
<g id="node20" class="node">
<title>Node20</title>
<g id="a_node20"><a xlink:title=" ">
<polygon fill="none" stroke="#bfbfbf" points="1825,-62 1825,-81 1995,-81 1995,-62 1825,-62"/>
<text text-anchor="middle" x="1910" y="-69" font-family="Helvetica,sans-Serif" font-size="10.00">boost/uuid/uuid_generators.hpp</text>
</a>
</g>
</g>
<!-- Node5&#45;&gt;Node20 -->
<g id="edge20" class="edge">
<title>Node5&#45;&gt;Node20</title>
<path fill="none" stroke="midnightblue" d="M1298.3,-133.32C1405.74,-126.03 1628.46,-109.58 1816,-87 1826.67,-85.72 1837.99,-84.15 1848.94,-82.52"/>
<polygon fill="midnightblue" stroke="midnightblue" points="1849.5,-85.98 1858.86,-81.02 1848.45,-79.06 1849.5,-85.98"/>
</g>
<!-- Node21 -->
<g id="node21" class="node">
<title>Node21</title>
<g id="a_node21"><a xlink:title=" ">
<polygon fill="none" stroke="#bfbfbf" points="2013.5,-62 2013.5,-81 2140.5,-81 2140.5,-62 2013.5,-62"/>
<text text-anchor="middle" x="2077" y="-69" font-family="Helvetica,sans-Serif" font-size="10.00">boost/uuid/uuid_io.hpp</text>
</a>
</g>
</g>
<!-- Node5&#45;&gt;Node21 -->
<g id="edge21" class="edge">
<title>Node5&#45;&gt;Node21</title>
<path fill="none" stroke="midnightblue" d="M1298.16,-136.12C1430.61,-132.65 1743.67,-121.24 2004,-87 2012.11,-85.93 2020.66,-84.51 2028.96,-82.97"/>
<polygon fill="midnightblue" stroke="midnightblue" points="2029.74,-86.38 2038.89,-81.05 2028.41,-79.51 2029.74,-86.38"/>
</g>
<!-- Node22 -->
<g id="node22" class="node">
<title>Node22</title>
<g id="a_node22"><a xlink:title=" ">
<polygon fill="none" stroke="#bfbfbf" points="2159,-62 2159,-81 2311,-81 2311,-62 2159,-62"/>
<text text-anchor="middle" x="2235" y="-69" font-family="Helvetica,sans-Serif" font-size="10.00">impl/hdf5_core_general.hpp</text>
</a>
</g>
</g>
<!-- Node5&#45;&gt;Node22 -->
<g id="edge22" class="edge">
<title>Node5&#45;&gt;Node22</title>
<path fill="none" stroke="midnightblue" d="M1298.06,-136.48C1447.67,-133.54 1831.48,-122.83 2150,-87 2159.93,-85.88 2170.46,-84.36 2180.6,-82.73"/>
<polygon fill="midnightblue" stroke="midnightblue" points="2181.29,-86.16 2190.58,-81.06 2180.14,-79.25 2181.29,-86.16"/>
</g>
<!-- Node23&#45;&gt;Node19 -->
<g id="edge24" class="edge">
<title>Node23&#45;&gt;Node19</title>
<path fill="none" stroke="midnightblue" d="M1916.93,-128.94C1922.96,-126.67 1929.66,-124.45 1936,-123 2103.11,-84.8 2150.64,-113.44 2320,-87 2326.78,-85.94 2333.9,-84.61 2340.86,-83.19"/>
<polygon fill="midnightblue" stroke="midnightblue" points="2341.82,-86.56 2350.87,-81.06 2340.36,-79.71 2341.82,-86.56"/>
</g>
<!-- Node24 -->
<g id="node24" class="node">
<title>Node24</title>
<g id="a_node24"><a xlink:href="datatype_8h.html" target="_top" xlink:title=" ">
<polygon fill="none" stroke="black" points="2460.5,-62 2460.5,-81 2529.5,-81 2529.5,-62 2460.5,-62"/>
<text text-anchor="middle" x="2495" y="-69" font-family="Helvetica,sans-Serif" font-size="10.00">datatype.h</text>
</a>
</g>
</g>
<!-- Node23&#45;&gt;Node24 -->
<g id="edge25" class="edge">
<title>Node23&#45;&gt;Node24</title>
<path fill="none" stroke="midnightblue" d="M1916.91,-128.85C1922.94,-126.57 1929.65,-124.37 1936,-123 2160.7,-74.45 2226.58,-132.1 2452,-87 2455.69,-86.26 2459.51,-85.29 2463.27,-84.21"/>
<polygon fill="midnightblue" stroke="midnightblue" points="2464.5,-87.49 2472.98,-81.13 2462.39,-80.81 2464.5,-87.49"/>
</g>
<!-- Node25 -->
<g id="node25" class="node">
<title>Node25</title>
<g id="a_node25"><a xlink:href="timestamp_8h.html" target="_top" xlink:title=" ">
<polygon fill="none" stroke="black" points="2547.5,-62 2547.5,-81 2626.5,-81 2626.5,-62 2547.5,-62"/>
<text text-anchor="middle" x="2587" y="-69" font-family="Helvetica,sans-Serif" font-size="10.00">timestamp.h</text>
</a>
</g>
</g>
<!-- Node23&#45;&gt;Node25 -->
<g id="edge26" class="edge">
<title>Node23&#45;&gt;Node25</title>
<path fill="none" stroke="midnightblue" d="M1916.5,-128.96C1922.63,-126.63 1929.5,-124.37 1936,-123 2198.7,-67.61 2274.69,-134.14 2539,-87 2543.46,-86.2 2548.09,-85.13 2552.63,-83.93"/>
<polygon fill="midnightblue" stroke="midnightblue" points="2553.71,-87.27 2562.36,-81.15 2551.78,-80.54 2553.71,-87.27"/>
</g>
<!-- Node26 -->
<g id="node26" class="node">
<title>Node26</title>
<g id="a_node26"><a xlink:title=" ">
<polygon fill="none" stroke="#bfbfbf" points="2554.5,-0.5 2554.5,-19.5 2619.5,-19.5 2619.5,-0.5 2554.5,-0.5"/>
<text text-anchor="middle" x="2587" y="-7.5" font-family="Helvetica,sans-Serif" font-size="10.00">functional</text>
</a>
</g>
</g>
<!-- Node25&#45;&gt;Node26 -->
<g id="edge27" class="edge">
<title>Node25&#45;&gt;Node26</title>
<path fill="none" stroke="midnightblue" d="M2587,-61.98C2587,-53.58 2587,-40.48 2587,-29.66"/>
<polygon fill="midnightblue" stroke="midnightblue" points="2590.5,-29.51 2587,-19.51 2583.5,-29.51 2590.5,-29.51"/>
</g>
</g>
</svg>
