<?xml version="1.0" encoding="UTF-8" standalone="no"?>
<!DOCTYPE svg PUBLIC "-//W3C//DTD SVG 1.1//EN"
 "http://www.w3.org/Graphics/SVG/1.1/DTD/svg11.dtd">
<!-- Generated by graphviz version 2.43.0 (0)
 -->
<!-- Title: seerep_hdf5/seerep_hdf5_pb/src/hdf5_pb_image.cpp Pages: 1 -->
<svg width="2634pt" height="430pt"
 viewBox="0.00 0.00 2633.50 430.00" xmlns="http://www.w3.org/2000/svg" xmlns:xlink="http://www.w3.org/1999/xlink">
<g id="graph0" class="graph" transform="scale(1 1) rotate(0) translate(4 426)">
<title>seerep_hdf5/seerep_hdf5_pb/src/hdf5_pb_image.cpp</title>
<!-- Node1 -->
<g id="node1" class="node">
<title>Node1</title>
<g id="a_node1"><a xlink:title=" ">
<polygon fill="#bfbfbf" stroke="black" points="2091.5,-380.5 2091.5,-421.5 2211.5,-421.5 2211.5,-380.5 2091.5,-380.5"/>
<text text-anchor="start" x="2099.5" y="-409.5" font-family="Helvetica,sans-Serif" font-size="10.00">seerep_hdf5/seerep</text>
<text text-anchor="start" x="2099.5" y="-398.5" font-family="Helvetica,sans-Serif" font-size="10.00">_hdf5_pb/src/hdf5_pb</text>
<text text-anchor="middle" x="2151.5" y="-387.5" font-family="Helvetica,sans-Serif" font-size="10.00">_image.cpp</text>
</a>
</g>
</g>
<!-- Node2 -->
<g id="node2" class="node">
<title>Node2</title>
<g id="a_node2"><a xlink:href="hdf5__pb__image_8h.html" target="_top" xlink:title=" ">
<polygon fill="none" stroke="black" points="1660,-313.5 1660,-343.5 1779,-343.5 1779,-313.5 1660,-313.5"/>
<text text-anchor="start" x="1668" y="-331.5" font-family="Helvetica,sans-Serif" font-size="10.00">seerep_hdf5_pb/hdf5</text>
<text text-anchor="middle" x="1719.5" y="-320.5" font-family="Helvetica,sans-Serif" font-size="10.00">_pb_image.h</text>
</a>
</g>
</g>
<!-- Node1&#45;&gt;Node2 -->
<g id="edge1" class="edge">
<title>Node1&#45;&gt;Node2</title>
<path fill="none" stroke="midnightblue" d="M2091.43,-390.2C2012.12,-377.25 1872.75,-354.51 1788.99,-340.84"/>
<polygon fill="midnightblue" stroke="midnightblue" points="1789.49,-337.38 1779.06,-339.22 1788.36,-344.28 1789.49,-337.38"/>
</g>
<!-- Node6 -->
<g id="node6" class="node">
<title>Node6</title>
<g id="a_node6"><a xlink:title=" ">
<polygon fill="none" stroke="#bfbfbf" points="2437.5,-129 2437.5,-148 2569.5,-148 2569.5,-129 2437.5,-129"/>
<text text-anchor="middle" x="2503.5" y="-136" font-family="Helvetica,sans-Serif" font-size="10.00">highfive/H5DataSet.hpp</text>
</a>
</g>
</g>
<!-- Node1&#45;&gt;Node6 -->
<g id="edge62" class="edge">
<title>Node1&#45;&gt;Node6</title>
<path fill="none" stroke="midnightblue" d="M2177.96,-380.42C2245.63,-330.34 2423.9,-198.41 2483.66,-154.19"/>
<polygon fill="midnightblue" stroke="midnightblue" points="2485.93,-156.85 2491.89,-148.09 2481.77,-151.23 2485.93,-156.85"/>
</g>
<!-- Node3 -->
<g id="node3" class="node">
<title>Node3</title>
<g id="a_node3"><a xlink:title=" ">
<polygon fill="none" stroke="#bfbfbf" points="1986.5,-62 1986.5,-81 2096.5,-81 2096.5,-62 1986.5,-62"/>
<text text-anchor="middle" x="2041.5" y="-69" font-family="Helvetica,sans-Serif" font-size="10.00">highfive/H5File.hpp</text>
</a>
</g>
</g>
<!-- Node2&#45;&gt;Node3 -->
<g id="edge2" class="edge">
<title>Node2&#45;&gt;Node3</title>
<path fill="none" stroke="midnightblue" d="M1750.5,-313.4C1766.59,-304.8 1785.53,-292.46 1798.5,-277 1846.13,-220.21 1807.07,-172.2 1862.5,-123 1872.55,-114.08 1945.27,-95.39 1994.87,-83.42"/>
<polygon fill="midnightblue" stroke="midnightblue" points="1995.86,-86.79 2004.77,-81.05 1994.23,-79.98 1995.86,-86.79"/>
</g>
<!-- Node4 -->
<g id="node4" class="node">
<title>Node4</title>
<g id="a_node4"><a xlink:href="hdf5__core__image_8h.html" target="_top" xlink:title=" ">
<polygon fill="none" stroke="black" points="1503.5,-246.5 1503.5,-276.5 1631.5,-276.5 1631.5,-246.5 1503.5,-246.5"/>
<text text-anchor="start" x="1511.5" y="-264.5" font-family="Helvetica,sans-Serif" font-size="10.00">seerep_hdf5_core/hdf5</text>
<text text-anchor="middle" x="1567.5" y="-253.5" font-family="Helvetica,sans-Serif" font-size="10.00">_core_image.h</text>
</a>
</g>
</g>
<!-- Node2&#45;&gt;Node4 -->
<g id="edge3" class="edge">
<title>Node2&#45;&gt;Node4</title>
<path fill="none" stroke="midnightblue" d="M1686.52,-313.4C1664.01,-303.77 1634,-290.94 1609.74,-280.56"/>
<polygon fill="midnightblue" stroke="midnightblue" points="1610.99,-277.29 1600.42,-276.58 1608.24,-283.73 1610.99,-277.29"/>
</g>
<!-- Node13 -->
<g id="node13" class="node">
<title>Node13</title>
<g id="a_node13"><a xlink:title=" ">
<polygon fill="none" stroke="#bfbfbf" points="163,-62 163,-81 276,-81 276,-62 163,-62"/>
<text text-anchor="middle" x="219.5" y="-69" font-family="Helvetica,sans-Serif" font-size="10.00">boost/geometry.hpp</text>
</a>
</g>
</g>
<!-- Node2&#45;&gt;Node13 -->
<g id="edge60" class="edge">
<title>Node2&#45;&gt;Node13</title>
<path fill="none" stroke="midnightblue" d="M1659.82,-320.11C1560.46,-306.52 1355.99,-272.99 1193.5,-210 1157.21,-195.93 1078.86,-133.89 1041.5,-123 880.03,-75.92 452.23,-109.12 285.5,-87 278.22,-86.03 270.56,-84.67 263.14,-83.17"/>
<polygon fill="midnightblue" stroke="midnightblue" points="263.73,-79.72 253.22,-81.06 262.27,-86.57 263.73,-79.72"/>
</g>
<!-- Node15 -->
<g id="node15" class="node">
<title>Node15</title>
<g id="a_node15"><a xlink:title=" ">
<polygon fill="none" stroke="#bfbfbf" points="2569.5,-62 2569.5,-81 2625.5,-81 2625.5,-62 2569.5,-62"/>
<text text-anchor="middle" x="2597.5" y="-69" font-family="Helvetica,sans-Serif" font-size="10.00">optional</text>
</a>
</g>
</g>
<!-- Node2&#45;&gt;Node15 -->
<g id="edge61" class="edge">
<title>Node2&#45;&gt;Node15</title>
<path fill="none" stroke="midnightblue" d="M1779.15,-326.41C1913.14,-322.29 2246.6,-302.74 2506.5,-210 2552.3,-193.66 2576.47,-196.28 2600.5,-154 2611.46,-134.71 2607.88,-108.51 2603.45,-91.07"/>
<polygon fill="midnightblue" stroke="midnightblue" points="2606.7,-89.69 2600.57,-81.05 2599.97,-91.63 2606.7,-89.69"/>
</g>
<!-- Node32 -->
<g id="node32" class="node">
<title>Node32</title>
<g id="a_node32"><a xlink:href="hdf5__pb__general_8h.html" target="_top" xlink:title=" ">
<polygon fill="none" stroke="black" points="953,-190.5 953,-209.5 1060,-209.5 1060,-190.5 953,-190.5"/>
<text text-anchor="middle" x="1006.5" y="-197.5" font-family="Helvetica,sans-Serif" font-size="10.00">hdf5_pb_general.h</text>
</a>
</g>
</g>
<!-- Node2&#45;&gt;Node32 -->
<g id="edge48" class="edge">
<title>Node2&#45;&gt;Node32</title>
<path fill="none" stroke="midnightblue" d="M1659.87,-325.36C1510.06,-319.62 1126.19,-302.58 1074.5,-277 1048.53,-264.15 1027.97,-236.66 1016.52,-218.51"/>
<polygon fill="midnightblue" stroke="midnightblue" points="1019.27,-216.3 1011.12,-209.53 1013.27,-219.91 1019.27,-216.3"/>
</g>
<!-- Node37 -->
<g id="node37" class="node">
<title>Node37</title>
<g id="a_node37"><a xlink:title=" ">
<polygon fill="none" stroke="#bfbfbf" points="1650,-252 1650,-271 1789,-271 1789,-252 1650,-252"/>
<text text-anchor="middle" x="1719.5" y="-259" font-family="Helvetica,sans-Serif" font-size="10.00">seerep_msgs/image.pb.h</text>
</a>
</g>
</g>
<!-- Node2&#45;&gt;Node37 -->
<g id="edge59" class="edge">
<title>Node2&#45;&gt;Node37</title>
<path fill="none" stroke="midnightblue" d="M1719.5,-313.4C1719.5,-304.06 1719.5,-291.71 1719.5,-281.52"/>
<polygon fill="midnightblue" stroke="midnightblue" points="1723,-281.19 1719.5,-271.19 1716,-281.19 1723,-281.19"/>
</g>
<!-- Node4&#45;&gt;Node3 -->
<g id="edge4" class="edge">
<title>Node4&#45;&gt;Node3</title>
<path fill="none" stroke="midnightblue" d="M1586.71,-246.29C1632.17,-212.77 1743.98,-131 1763.5,-123 1852.73,-86.4 1882.88,-105.66 1977.5,-87 1983.3,-85.86 1989.38,-84.58 1995.38,-83.27"/>
<polygon fill="midnightblue" stroke="midnightblue" points="1996.35,-86.64 2005.36,-81.06 1994.84,-79.81 1996.35,-86.64"/>
</g>
<!-- Node5 -->
<g id="node5" class="node">
<title>Node5</title>
<g id="a_node5"><a xlink:href="hdf5__core__cameraintrinsics_8h.html" target="_top" xlink:title=" ">
<polygon fill="none" stroke="black" points="1858.5,-190.5 1858.5,-209.5 2018.5,-209.5 2018.5,-190.5 1858.5,-190.5"/>
<text text-anchor="middle" x="1938.5" y="-197.5" font-family="Helvetica,sans-Serif" font-size="10.00">hdf5_core_cameraintrinsics.h</text>
</a>
</g>
</g>
<!-- Node4&#45;&gt;Node5 -->
<g id="edge5" class="edge">
<title>Node4&#45;&gt;Node5</title>
<path fill="none" stroke="midnightblue" d="M1631.64,-247.76C1634.97,-247.15 1638.28,-246.56 1641.5,-246 1718.24,-232.67 1806.54,-219.58 1866.78,-210.98"/>
<polygon fill="midnightblue" stroke="midnightblue" points="1867.53,-214.41 1876.94,-209.54 1866.55,-207.48 1867.53,-214.41"/>
</g>
<!-- Node7 -->
<g id="node7" class="node">
<title>Node7</title>
<g id="a_node7"><a xlink:href="hdf5__core__general_8h.html" target="_top" xlink:title=" ">
<polygon fill="none" stroke="black" points="1344.5,-123.5 1344.5,-153.5 1472.5,-153.5 1472.5,-123.5 1344.5,-123.5"/>
<text text-anchor="start" x="1352.5" y="-141.5" font-family="Helvetica,sans-Serif" font-size="10.00">seerep_hdf5_core/hdf5</text>
<text text-anchor="middle" x="1408.5" y="-130.5" font-family="Helvetica,sans-Serif" font-size="10.00">_core_general.h</text>
</a>
</g>
</g>
<!-- Node4&#45;&gt;Node7 -->
<g id="edge38" class="edge">
<title>Node4&#45;&gt;Node7</title>
<path fill="none" stroke="midnightblue" d="M1548.95,-246.38C1520.83,-224.98 1467.27,-184.22 1435.03,-159.69"/>
<polygon fill="midnightblue" stroke="midnightblue" points="1437.01,-156.8 1426.93,-153.53 1432.77,-162.37 1437.01,-156.8"/>
</g>
<!-- Node9 -->
<g id="node9" class="node">
<title>Node9</title>
<g id="a_node9"><a xlink:title=" ">
<polygon fill="none" stroke="#bfbfbf" points="2115,-56.5 2115,-86.5 2236,-86.5 2236,-56.5 2115,-56.5"/>
<text text-anchor="start" x="2123" y="-74.5" font-family="Helvetica,sans-Serif" font-size="10.00">seerep_msgs/dataset</text>
<text text-anchor="middle" x="2175.5" y="-63.5" font-family="Helvetica,sans-Serif" font-size="10.00">_indexable.h</text>
</a>
</g>
</g>
<!-- Node4&#45;&gt;Node9 -->
<g id="edge39" class="edge">
<title>Node4&#45;&gt;Node9</title>
<path fill="none" stroke="midnightblue" d="M1595.94,-246.49C1660.43,-214.9 1816.54,-139.6 1872.5,-123 1969.92,-94.1 2000.54,-104.92 2104.84,-87.03"/>
<polygon fill="midnightblue" stroke="midnightblue" points="2105.59,-90.45 2114.83,-85.26 2104.37,-83.55 2105.59,-90.45"/>
</g>
<!-- Node12 -->
<g id="node12" class="node">
<title>Node12</title>
<g id="a_node12"><a xlink:title=" ">
<polygon fill="none" stroke="#bfbfbf" points="426.5,-62 426.5,-81 590.5,-81 590.5,-62 426.5,-62"/>
<text text-anchor="middle" x="508.5" y="-69" font-family="Helvetica,sans-Serif" font-size="10.00">seerep_msgs/label_category.h</text>
</a>
</g>
</g>
<!-- Node4&#45;&gt;Node12 -->
<g id="edge40" class="edge">
<title>Node4&#45;&gt;Node12</title>
<path fill="none" stroke="midnightblue" d="M1503.23,-251.34C1449.73,-242.95 1371.87,-228.96 1305.5,-210 1201.61,-180.33 1183.93,-146.63 1078.5,-123 870.18,-76.31 811.54,-111.82 599.5,-87 589.14,-85.79 578.16,-84.25 567.55,-82.64"/>
<polygon fill="midnightblue" stroke="midnightblue" points="567.93,-79.16 557.51,-81.07 566.85,-86.07 567.93,-79.16"/>
</g>
<!-- Node4&#45;&gt;Node13 -->
<g id="edge41" class="edge">
<title>Node4&#45;&gt;Node13</title>
<path fill="none" stroke="midnightblue" d="M1503.38,-256.76C1437.31,-251.46 1332.03,-238.94 1245.5,-210 1195.34,-193.22 1184.53,-183.3 1140.5,-154 1122.35,-141.93 1122.87,-130.76 1102.5,-123 932.69,-58.27 465.69,-110.59 285.5,-87 278.14,-86.04 270.39,-84.66 262.89,-83.14"/>
<polygon fill="midnightblue" stroke="midnightblue" points="263.39,-79.67 252.88,-81 261.93,-86.52 263.39,-79.67"/>
</g>
<!-- Node4&#45;&gt;Node15 -->
<g id="edge42" class="edge">
<title>Node4&#45;&gt;Node15</title>
<path fill="none" stroke="midnightblue" d="M1631.59,-247.41C1634.94,-246.89 1638.25,-246.42 1641.5,-246 1849.01,-219.26 2424.99,-296.15 2578.5,-154 2595.63,-138.14 2598.74,-110.09 2598.68,-91.39"/>
<polygon fill="midnightblue" stroke="midnightblue" points="2602.17,-91.03 2598.34,-81.16 2595.18,-91.27 2602.17,-91.03"/>
</g>
<!-- Node19 -->
<g id="node19" class="node">
<title>Node19</title>
<g id="a_node19"><a xlink:title=" ">
<polygon fill="none" stroke="#bfbfbf" points="609,-62 609,-81 752,-81 752,-62 609,-62"/>
<text text-anchor="middle" x="680.5" y="-69" font-family="Helvetica,sans-Serif" font-size="10.00">boost/functional/hash.hpp</text>
</a>
</g>
</g>
<!-- Node4&#45;&gt;Node19 -->
<g id="edge43" class="edge">
<title>Node4&#45;&gt;Node19</title>
<path fill="none" stroke="midnightblue" d="M1503.15,-250.57C1459.4,-242.6 1400.74,-229.48 1351.5,-210 1305.21,-191.69 1295.47,-182.27 1254.5,-154 1236.56,-141.62 1236.73,-131.12 1216.5,-123 1122.16,-85.15 861.3,-100.08 760.5,-87 751.65,-85.85 742.3,-84.39 733.22,-82.83"/>
<polygon fill="midnightblue" stroke="midnightblue" points="733.6,-79.34 723.14,-81.05 732.38,-86.24 733.6,-79.34"/>
</g>
<!-- Node20 -->
<g id="node20" class="node">
<title>Node20</title>
<g id="a_node20"><a xlink:title=" ">
<polygon fill="none" stroke="#bfbfbf" points="770,-62 770,-81 895,-81 895,-62 770,-62"/>
<text text-anchor="middle" x="832.5" y="-69" font-family="Helvetica,sans-Serif" font-size="10.00">boost/lexical_cast.hpp</text>
</a>
</g>
</g>
<!-- Node4&#45;&gt;Node20 -->
<g id="edge44" class="edge">
<title>Node4&#45;&gt;Node20</title>
<path fill="none" stroke="midnightblue" d="M1513.18,-246.44C1480.59,-237.38 1438.61,-224.59 1402.5,-210 1351.63,-189.45 1338.46,-183.95 1292.5,-154 1274.24,-142.1 1274.63,-131.35 1254.5,-123 1110.07,-63.06 1059.11,-110.46 904.5,-87 896.96,-85.86 889.02,-84.46 881.27,-82.98"/>
<polygon fill="midnightblue" stroke="midnightblue" points="881.73,-79.5 871.24,-81.01 880.38,-86.37 881.73,-79.5"/>
</g>
<!-- Node21 -->
<g id="node21" class="node">
<title>Node21</title>
<g id="a_node21"><a xlink:title=" ">
<polygon fill="none" stroke="#bfbfbf" points="2438,-62 2438,-81 2551,-81 2551,-62 2438,-62"/>
<text text-anchor="middle" x="2494.5" y="-69" font-family="Helvetica,sans-Serif" font-size="10.00">boost/uuid/uuid.hpp</text>
</a>
</g>
</g>
<!-- Node4&#45;&gt;Node21 -->
<g id="edge45" class="edge">
<title>Node4&#45;&gt;Node21</title>
<path fill="none" stroke="midnightblue" d="M1631.6,-247.48C1634.94,-246.95 1638.26,-246.45 1641.5,-246 1957.14,-202.39 2054.69,-267.29 2352.5,-154 2398.6,-136.46 2447.46,-105.25 2474.14,-86.96"/>
<polygon fill="midnightblue" stroke="midnightblue" points="2476.4,-89.65 2482.62,-81.08 2472.41,-83.91 2476.4,-89.65"/>
</g>
<!-- Node22 -->
<g id="node22" class="node">
<title>Node22</title>
<g id="a_node22"><a xlink:title=" ">
<polygon fill="none" stroke="#bfbfbf" points="913.5,-62 913.5,-81 1083.5,-81 1083.5,-62 913.5,-62"/>
<text text-anchor="middle" x="998.5" y="-69" font-family="Helvetica,sans-Serif" font-size="10.00">boost/uuid/uuid_generators.hpp</text>
</a>
</g>
</g>
<!-- Node4&#45;&gt;Node22 -->
<g id="edge46" class="edge">
<title>Node4&#45;&gt;Node22</title>
<path fill="none" stroke="midnightblue" d="M1531.04,-246.34C1484.41,-227.66 1401.75,-192.59 1335.5,-154 1315.14,-142.14 1314.22,-132.12 1292.5,-123 1281.93,-118.56 1145.26,-96.09 1062.04,-82.67"/>
<polygon fill="midnightblue" stroke="midnightblue" points="1062.34,-79.17 1051.91,-81.04 1061.23,-86.08 1062.34,-79.17"/>
</g>
<!-- Node23 -->
<g id="node23" class="node">
<title>Node23</title>
<g id="a_node23"><a xlink:title=" ">
<polygon fill="none" stroke="#bfbfbf" points="1841,-62 1841,-81 1968,-81 1968,-62 1841,-62"/>
<text text-anchor="middle" x="1904.5" y="-69" font-family="Helvetica,sans-Serif" font-size="10.00">boost/uuid/uuid_io.hpp</text>
</a>
</g>
</g>
<!-- Node4&#45;&gt;Node23 -->
<g id="edge47" class="edge">
<title>Node4&#45;&gt;Node23</title>
<path fill="none" stroke="midnightblue" d="M1578.41,-246.42C1600.8,-218.52 1654.89,-156.02 1714.5,-123 1738.19,-109.87 1805.54,-93.61 1853.3,-83.15"/>
<polygon fill="midnightblue" stroke="midnightblue" points="1854.14,-86.55 1863.17,-81.01 1852.66,-79.71 1854.14,-86.55"/>
</g>
<!-- Node31 -->
<g id="node31" class="node">
<title>Node31</title>
<g id="a_node31"><a xlink:href="hdf5__core__datatype__interface_8h.html" target="_top" xlink:title=" ">
<polygon fill="none" stroke="black" points="2230,-123.5 2230,-153.5 2343,-153.5 2343,-123.5 2230,-123.5"/>
<text text-anchor="start" x="2238" y="-141.5" font-family="Helvetica,sans-Serif" font-size="10.00">hdf5_core_datatype</text>
<text text-anchor="middle" x="2286.5" y="-130.5" font-family="Helvetica,sans-Serif" font-size="10.00">_interface.h</text>
</a>
</g>
</g>
<!-- Node4&#45;&gt;Node31 -->
<g id="edge34" class="edge">
<title>Node4&#45;&gt;Node31</title>
<path fill="none" stroke="midnightblue" d="M1631.61,-247.53C1634.95,-246.98 1638.26,-246.47 1641.5,-246 1812.04,-221.4 1857.96,-240.74 2027.5,-210 2100.3,-196.8 2182.42,-172.86 2234.3,-156.57"/>
<polygon fill="midnightblue" stroke="midnightblue" points="2235.46,-159.88 2243.94,-153.52 2233.35,-153.2 2235.46,-159.88"/>
</g>
<!-- Node5&#45;&gt;Node3 -->
<g id="edge7" class="edge">
<title>Node5&#45;&gt;Node3</title>
<path fill="none" stroke="midnightblue" d="M1916.04,-190.38C1900.73,-183.18 1881.64,-171.29 1872.5,-154 1866.06,-141.82 1864.27,-134.05 1872.5,-123 1880.01,-112.91 1947.5,-94.97 1994.88,-83.41"/>
<polygon fill="midnightblue" stroke="midnightblue" points="1995.76,-86.8 2004.66,-81.05 1994.12,-80 1995.76,-86.8"/>
</g>
<!-- Node5&#45;&gt;Node6 -->
<g id="edge6" class="edge">
<title>Node5&#45;&gt;Node6</title>
<path fill="none" stroke="midnightblue" d="M2018.56,-193.71C2114.91,-186.85 2281.49,-173.42 2423.5,-154 2432.24,-152.8 2441.48,-151.33 2450.45,-149.78"/>
<polygon fill="midnightblue" stroke="midnightblue" points="2451.19,-153.2 2460.43,-148.01 2449.97,-146.31 2451.19,-153.2"/>
</g>
<!-- Node5&#45;&gt;Node7 -->
<g id="edge8" class="edge">
<title>Node5&#45;&gt;Node7</title>
<path fill="none" stroke="midnightblue" d="M1862.56,-190.48C1761.28,-179.1 1583.12,-159.1 1482.72,-147.83"/>
<polygon fill="midnightblue" stroke="midnightblue" points="1482.98,-144.34 1472.65,-146.7 1482.2,-151.3 1482.98,-144.34"/>
</g>
<!-- Node25 -->
<g id="node25" class="node">
<title>Node25</title>
<g id="a_node25"><a xlink:href="header_8h.html" target="_top" xlink:title=" ">
<polygon fill="none" stroke="black" points="2153,-129 2153,-148 2212,-148 2212,-129 2153,-129"/>
<text text-anchor="middle" x="2182.5" y="-136" font-family="Helvetica,sans-Serif" font-size="10.00">header.h</text>
</a>
</g>
</g>
<!-- Node5&#45;&gt;Node25 -->
<g id="edge27" class="edge">
<title>Node5&#45;&gt;Node25</title>
<path fill="none" stroke="midnightblue" d="M1987.3,-190.47C2029.38,-182.61 2091.53,-169.8 2144.5,-154 2147.08,-153.23 2149.73,-152.37 2152.37,-151.46"/>
<polygon fill="midnightblue" stroke="midnightblue" points="2153.58,-154.75 2161.79,-148.05 2151.19,-148.17 2153.58,-154.75"/>
</g>
<!-- Node29 -->
<g id="node29" class="node">
<title>Node29</title>
<g id="a_node29"><a xlink:href="region__of__interest_8h.html" target="_top" xlink:title=" ">
<polygon fill="none" stroke="black" points="1881.5,-129 1881.5,-148 1995.5,-148 1995.5,-129 1881.5,-129"/>
<text text-anchor="middle" x="1938.5" y="-136" font-family="Helvetica,sans-Serif" font-size="10.00">region_of_interest.h</text>
</a>
</g>
</g>
<!-- Node5&#45;&gt;Node29 -->
<g id="edge32" class="edge">
<title>Node5&#45;&gt;Node29</title>
<path fill="none" stroke="midnightblue" d="M1938.5,-190.48C1938.5,-182.08 1938.5,-168.98 1938.5,-158.16"/>
<polygon fill="midnightblue" stroke="midnightblue" points="1942,-158.01 1938.5,-148.01 1935,-158.01 1942,-158.01"/>
</g>
<!-- Node30 -->
<g id="node30" class="node">
<title>Node30</title>
<g id="a_node30"><a xlink:title=" ">
<polygon fill="none" stroke="#bfbfbf" points="2014,-123.5 2014,-153.5 2135,-153.5 2135,-123.5 2014,-123.5"/>
<text text-anchor="start" x="2022" y="-141.5" font-family="Helvetica,sans-Serif" font-size="10.00">seerep_msgs/camera</text>
<text text-anchor="middle" x="2074.5" y="-130.5" font-family="Helvetica,sans-Serif" font-size="10.00">_intrinsics.h</text>
</a>
</g>
</g>
<!-- Node5&#45;&gt;Node30 -->
<g id="edge33" class="edge">
<title>Node5&#45;&gt;Node30</title>
<path fill="none" stroke="midnightblue" d="M1957.99,-190.48C1977.52,-181.93 2008.21,-168.5 2033.19,-157.57"/>
<polygon fill="midnightblue" stroke="midnightblue" points="2034.69,-160.74 2042.45,-153.52 2031.88,-154.32 2034.69,-160.74"/>
</g>
<!-- Node7&#45;&gt;Node3 -->
<g id="edge9" class="edge">
<title>Node7&#45;&gt;Node3</title>
<path fill="none" stroke="midnightblue" d="M1472.67,-131.86C1620.19,-118.89 1971.31,-87.97 1977.5,-87 1984.15,-85.96 1991.15,-84.62 1997.97,-83.18"/>
<polygon fill="midnightblue" stroke="midnightblue" points="1998.77,-86.59 2007.78,-81.03 1997.27,-79.76 1998.77,-86.59"/>
</g>
<!-- Node8 -->
<g id="node8" class="node">
<title>Node8</title>
<g id="a_node8"><a xlink:title=" ">
<polygon fill="none" stroke="#bfbfbf" points="1426,-62 1426,-81 1543,-81 1543,-62 1426,-62"/>
<text text-anchor="middle" x="1484.5" y="-69" font-family="Helvetica,sans-Serif" font-size="10.00">seerep_msgs/aabb.h</text>
</a>
</g>
</g>
<!-- Node7&#45;&gt;Node8 -->
<g id="edge10" class="edge">
<title>Node7&#45;&gt;Node8</title>
<path fill="none" stroke="midnightblue" d="M1424.99,-123.4C1437.19,-112.96 1453.81,-98.75 1466.38,-88"/>
<polygon fill="midnightblue" stroke="midnightblue" points="1469.01,-90.35 1474.33,-81.19 1464.46,-85.03 1469.01,-90.35"/>
</g>
<!-- Node7&#45;&gt;Node9 -->
<g id="edge11" class="edge">
<title>Node7&#45;&gt;Node9</title>
<path fill="none" stroke="midnightblue" d="M1472.7,-135.68C1594.17,-131.62 1866.04,-119.58 2104.62,-86.98"/>
<polygon fill="midnightblue" stroke="midnightblue" points="2105.45,-90.4 2114.88,-85.57 2104.49,-83.47 2105.45,-90.4"/>
</g>
<!-- Node10 -->
<g id="node10" class="node">
<title>Node10</title>
<g id="a_node10"><a xlink:title=" ">
<polygon fill="none" stroke="#bfbfbf" points="1561.5,-56.5 1561.5,-86.5 1687.5,-86.5 1687.5,-56.5 1561.5,-56.5"/>
<text text-anchor="start" x="1569.5" y="-74.5" font-family="Helvetica,sans-Serif" font-size="10.00">seerep_msgs/geodetic</text>
<text text-anchor="middle" x="1624.5" y="-63.5" font-family="Helvetica,sans-Serif" font-size="10.00">_coordinates.h</text>
</a>
</g>
</g>
<!-- Node7&#45;&gt;Node10 -->
<g id="edge12" class="edge">
<title>Node7&#45;&gt;Node10</title>
<path fill="none" stroke="midnightblue" d="M1455.1,-123.48C1488.2,-113.51 1532.83,-100.09 1567.97,-89.51"/>
<polygon fill="midnightblue" stroke="midnightblue" points="1569.04,-92.84 1577.61,-86.61 1567.02,-86.14 1569.04,-92.84"/>
</g>
<!-- Node11 -->
<g id="node11" class="node">
<title>Node11</title>
<g id="a_node11"><a xlink:title=" ">
<polygon fill="none" stroke="#bfbfbf" points="1706,-62 1706,-81 1823,-81 1823,-62 1706,-62"/>
<text text-anchor="middle" x="1764.5" y="-69" font-family="Helvetica,sans-Serif" font-size="10.00">seerep_msgs/label.h</text>
</a>
</g>
</g>
<!-- Node7&#45;&gt;Node11 -->
<g id="edge13" class="edge">
<title>Node7&#45;&gt;Node11</title>
<path fill="none" stroke="midnightblue" d="M1472.68,-126.94C1531.13,-117.15 1619.76,-101.9 1696.5,-87 1702.72,-85.79 1709.25,-84.47 1715.7,-83.13"/>
<polygon fill="midnightblue" stroke="midnightblue" points="1716.65,-86.51 1725.71,-81.03 1715.21,-79.66 1716.65,-86.51"/>
</g>
<!-- Node7&#45;&gt;Node12 -->
<g id="edge14" class="edge">
<title>Node7&#45;&gt;Node12</title>
<path fill="none" stroke="midnightblue" d="M1344.08,-132.36C1306.82,-129.45 1259.03,-125.85 1216.5,-123 942.42,-104.66 872.58,-116.65 599.5,-87 588.78,-85.84 577.41,-84.28 566.46,-82.62"/>
<polygon fill="midnightblue" stroke="midnightblue" points="566.97,-79.16 556.55,-81.07 565.89,-86.08 566.97,-79.16"/>
</g>
<!-- Node7&#45;&gt;Node13 -->
<g id="edge15" class="edge">
<title>Node7&#45;&gt;Node13</title>
<path fill="none" stroke="midnightblue" d="M1344.34,-133.81C1290.06,-130.74 1210.2,-126.35 1140.5,-123 760.6,-104.73 662.67,-135.99 285.5,-87 278.14,-86.04 270.39,-84.68 262.89,-83.16"/>
<polygon fill="midnightblue" stroke="midnightblue" points="263.39,-79.68 252.88,-81.02 261.92,-86.53 263.39,-79.68"/>
</g>
<!-- Node14 -->
<g id="node14" class="node">
<title>Node14</title>
<g id="a_node14"><a xlink:title=" ">
<polygon fill="none" stroke="#bfbfbf" points="1101.5,-62 1101.5,-81 1149.5,-81 1149.5,-62 1101.5,-62"/>
<text text-anchor="middle" x="1125.5" y="-69" font-family="Helvetica,sans-Serif" font-size="10.00">mutex</text>
</a>
</g>
</g>
<!-- Node7&#45;&gt;Node14 -->
<g id="edge16" class="edge">
<title>Node7&#45;&gt;Node14</title>
<path fill="none" stroke="midnightblue" d="M1344.33,-125.28C1276.24,-112.19 1176.05,-92.56 1158.5,-87 1156.58,-86.39 1154.61,-85.7 1152.65,-84.97"/>
<polygon fill="midnightblue" stroke="midnightblue" points="1153.62,-81.59 1143.04,-81.04 1150.97,-88.07 1153.62,-81.59"/>
</g>
<!-- Node7&#45;&gt;Node15 -->
<g id="edge17" class="edge">
<title>Node7&#45;&gt;Node15</title>
<path fill="none" stroke="midnightblue" d="M1472.78,-135.27C1707.44,-127.04 2507.07,-98.31 2560.5,-87 2563.51,-86.36 2566.59,-85.51 2569.63,-84.53"/>
<polygon fill="midnightblue" stroke="midnightblue" points="2570.84,-87.81 2579.05,-81.11 2568.45,-81.24 2570.84,-87.81"/>
</g>
<!-- Node16 -->
<g id="node16" class="node">
<title>Node16</title>
<g id="a_node16"><a xlink:title=" ">
<polygon fill="none" stroke="#bfbfbf" points="1168,-62 1168,-81 1237,-81 1237,-62 1168,-62"/>
<text text-anchor="middle" x="1202.5" y="-69" font-family="Helvetica,sans-Serif" font-size="10.00">type_traits</text>
</a>
</g>
</g>
<!-- Node7&#45;&gt;Node16 -->
<g id="edge18" class="edge">
<title>Node7&#45;&gt;Node16</title>
<path fill="none" stroke="midnightblue" d="M1362.7,-123.44C1330.22,-113.42 1285.63,-99.55 1246.5,-87 1243.61,-86.07 1240.61,-85.1 1237.6,-84.12"/>
<polygon fill="midnightblue" stroke="midnightblue" points="1238.66,-80.79 1228.07,-81 1236.49,-87.44 1238.66,-80.79"/>
</g>
<!-- Node17 -->
<g id="node17" class="node">
<title>Node17</title>
<g id="a_node17"><a xlink:title=" ">
<polygon fill="none" stroke="#bfbfbf" points="0,-56.5 0,-86.5 145,-86.5 145,-56.5 0,-56.5"/>
<text text-anchor="start" x="8" y="-74.5" font-family="Helvetica,sans-Serif" font-size="10.00">boost/log/sources/severity</text>
<text text-anchor="middle" x="72.5" y="-63.5" font-family="Helvetica,sans-Serif" font-size="10.00">_logger.hpp</text>
</a>
</g>
</g>
<!-- Node7&#45;&gt;Node17 -->
<g id="edge19" class="edge">
<title>Node7&#45;&gt;Node17</title>
<path fill="none" stroke="midnightblue" d="M1344.09,-135.03C1103.15,-125.77 263.65,-93.36 155.55,-86.77"/>
<polygon fill="midnightblue" stroke="midnightblue" points="155.52,-83.26 145.29,-86.02 155.01,-90.24 155.52,-83.26"/>
</g>
<!-- Node18 -->
<g id="node18" class="node">
<title>Node18</title>
<g id="a_node18"><a xlink:title=" ">
<polygon fill="none" stroke="#bfbfbf" points="294.5,-62 294.5,-81 408.5,-81 408.5,-62 294.5,-62"/>
<text text-anchor="middle" x="351.5" y="-69" font-family="Helvetica,sans-Serif" font-size="10.00">boost/log/trivial.hpp</text>
</a>
</g>
</g>
<!-- Node7&#45;&gt;Node18 -->
<g id="edge20" class="edge">
<title>Node7&#45;&gt;Node18</title>
<path fill="none" stroke="midnightblue" d="M1344.07,-133.17C1297.97,-130.13 1234.43,-126.09 1178.5,-123 840.41,-104.35 753.17,-131.49 417.5,-87 410.22,-86.04 402.56,-84.68 395.14,-83.17"/>
<polygon fill="midnightblue" stroke="midnightblue" points="395.73,-79.72 385.22,-81.06 394.27,-86.57 395.73,-79.72"/>
</g>
<!-- Node7&#45;&gt;Node19 -->
<g id="edge21" class="edge">
<title>Node7&#45;&gt;Node19</title>
<path fill="none" stroke="midnightblue" d="M1344.46,-131.17C1316.81,-128.51 1284.07,-125.47 1254.5,-123 1035.13,-104.68 978.89,-114.67 760.5,-87 751.45,-85.85 741.87,-84.36 732.61,-82.77"/>
<polygon fill="midnightblue" stroke="midnightblue" points="733.18,-79.32 722.72,-81.02 731.95,-86.21 733.18,-79.32"/>
</g>
<!-- Node7&#45;&gt;Node20 -->
<g id="edge22" class="edge">
<title>Node7&#45;&gt;Node20</title>
<path fill="none" stroke="midnightblue" d="M1344.42,-129.12C1327.55,-127.01 1309.35,-124.83 1292.5,-123 1120.33,-104.26 1075.85,-112.13 904.5,-87 896.78,-85.87 888.64,-84.45 880.72,-82.95"/>
<polygon fill="midnightblue" stroke="midnightblue" points="881.34,-79.5 870.86,-81.01 879.99,-86.37 881.34,-79.5"/>
</g>
<!-- Node7&#45;&gt;Node21 -->
<g id="edge23" class="edge">
<title>Node7&#45;&gt;Node21</title>
<path fill="none" stroke="midnightblue" d="M1472.78,-135.75C1666.59,-130.26 2243.3,-112.19 2429.5,-87 2436.51,-86.05 2443.87,-84.73 2451.03,-83.27"/>
<polygon fill="midnightblue" stroke="midnightblue" points="2452.26,-86.58 2461.29,-81.05 2450.78,-79.74 2452.26,-86.58"/>
</g>
<!-- Node7&#45;&gt;Node22 -->
<g id="edge24" class="edge">
<title>Node7&#45;&gt;Node22</title>
<path fill="none" stroke="midnightblue" d="M1344.26,-125.38C1339.6,-124.56 1334.98,-123.76 1330.5,-123 1225.01,-105.22 1198.25,-103.15 1092.5,-87 1083.17,-85.58 1073.32,-84.06 1063.65,-82.58"/>
<polygon fill="midnightblue" stroke="midnightblue" points="1064.08,-79.1 1053.67,-81.04 1063.02,-86.02 1064.08,-79.1"/>
</g>
<!-- Node7&#45;&gt;Node23 -->
<g id="edge25" class="edge">
<title>Node7&#45;&gt;Node23</title>
<path fill="none" stroke="midnightblue" d="M1472.65,-131.48C1555.89,-123.29 1705.5,-107.32 1832.5,-87 1839.85,-85.82 1847.6,-84.43 1855.18,-82.98"/>
<polygon fill="midnightblue" stroke="midnightblue" points="1855.85,-86.41 1864.99,-81.05 1854.5,-79.54 1855.85,-86.41"/>
</g>
<!-- Node24 -->
<g id="node24" class="node">
<title>Node24</title>
<g id="a_node24"><a xlink:title=" ">
<polygon fill="none" stroke="#bfbfbf" points="1255.5,-62 1255.5,-81 1407.5,-81 1407.5,-62 1255.5,-62"/>
<text text-anchor="middle" x="1331.5" y="-69" font-family="Helvetica,sans-Serif" font-size="10.00">impl/hdf5_core_general.hpp</text>
</a>
</g>
</g>
<!-- Node7&#45;&gt;Node24 -->
<g id="edge26" class="edge">
<title>Node7&#45;&gt;Node24</title>
<path fill="none" stroke="midnightblue" d="M1391.79,-123.4C1379.31,-112.86 1362.27,-98.48 1349.49,-87.69"/>
<polygon fill="midnightblue" stroke="midnightblue" points="1351.7,-84.97 1341.8,-81.19 1347.18,-90.32 1351.7,-84.97"/>
</g>
<!-- Node25&#45;&gt;Node21 -->
<g id="edge28" class="edge">
<title>Node25&#45;&gt;Node21</title>
<path fill="none" stroke="midnightblue" d="M2203.32,-128.95C2209.13,-126.79 2215.5,-124.62 2221.5,-123 2312.08,-98.55 2337.47,-105.22 2429.5,-87 2435.39,-85.83 2441.56,-84.55 2447.65,-83.23"/>
<polygon fill="midnightblue" stroke="midnightblue" points="2448.76,-86.57 2457.78,-81.01 2447.27,-79.73 2448.76,-86.57"/>
</g>
<!-- Node26 -->
<g id="node26" class="node">
<title>Node26</title>
<g id="a_node26"><a xlink:href="datatype_8h.html" target="_top" xlink:title=" ">
<polygon fill="none" stroke="black" points="2351,-62 2351,-81 2420,-81 2420,-62 2351,-62"/>
<text text-anchor="middle" x="2385.5" y="-69" font-family="Helvetica,sans-Serif" font-size="10.00">datatype.h</text>
</a>
</g>
</g>
<!-- Node25&#45;&gt;Node26 -->
<g id="edge29" class="edge">
<title>Node25&#45;&gt;Node26</title>
<path fill="none" stroke="midnightblue" d="M2204.68,-128.96C2210.16,-126.93 2216.02,-124.83 2221.5,-123 2274.71,-105.21 2289.02,-103.97 2342.5,-87 2345.25,-86.13 2348.08,-85.21 2350.93,-84.28"/>
<polygon fill="midnightblue" stroke="midnightblue" points="2352.15,-87.56 2360.54,-81.09 2349.95,-80.92 2352.15,-87.56"/>
</g>
<!-- Node27 -->
<g id="node27" class="node">
<title>Node27</title>
<g id="a_node27"><a xlink:href="timestamp_8h.html" target="_top" xlink:title=" ">
<polygon fill="none" stroke="black" points="2254,-62 2254,-81 2333,-81 2333,-62 2254,-62"/>
<text text-anchor="middle" x="2293.5" y="-69" font-family="Helvetica,sans-Serif" font-size="10.00">timestamp.h</text>
</a>
</g>
</g>
<!-- Node25&#45;&gt;Node27 -->
<g id="edge30" class="edge">
<title>Node25&#45;&gt;Node27</title>
<path fill="none" stroke="midnightblue" d="M2197.47,-128.73C2216.11,-117.82 2248.16,-99.05 2270.07,-86.22"/>
<polygon fill="midnightblue" stroke="midnightblue" points="2271.91,-89.2 2278.77,-81.13 2268.37,-83.16 2271.91,-89.2"/>
</g>
<!-- Node28 -->
<g id="node28" class="node">
<title>Node28</title>
<g id="a_node28"><a xlink:title=" ">
<polygon fill="none" stroke="#bfbfbf" points="2261,-0.5 2261,-19.5 2326,-19.5 2326,-0.5 2261,-0.5"/>
<text text-anchor="middle" x="2293.5" y="-7.5" font-family="Helvetica,sans-Serif" font-size="10.00">functional</text>
</a>
</g>
</g>
<!-- Node27&#45;&gt;Node28 -->
<g id="edge31" class="edge">
<title>Node27&#45;&gt;Node28</title>
<path fill="none" stroke="midnightblue" d="M2293.5,-61.98C2293.5,-53.58 2293.5,-40.48 2293.5,-29.66"/>
<polygon fill="midnightblue" stroke="midnightblue" points="2297,-29.51 2293.5,-19.51 2290,-29.51 2297,-29.51"/>
</g>
<!-- Node31&#45;&gt;Node9 -->
<g id="edge35" class="edge">
<title>Node31&#45;&gt;Node9</title>
<path fill="none" stroke="midnightblue" d="M2262.41,-123.4C2246.56,-114.11 2225.61,-101.84 2208.24,-91.67"/>
<polygon fill="midnightblue" stroke="midnightblue" points="2209.94,-88.61 2199.54,-86.58 2206.4,-94.65 2209.94,-88.61"/>
</g>
<!-- Node31&#45;&gt;Node15 -->
<g id="edge37" class="edge">
<title>Node31&#45;&gt;Node15</title>
<path fill="none" stroke="midnightblue" d="M2343.11,-130.29C2399.03,-122.42 2486.66,-108.06 2560.5,-87 2563.09,-86.26 2565.74,-85.41 2568.39,-84.5"/>
<polygon fill="midnightblue" stroke="midnightblue" points="2569.6,-87.79 2577.77,-81.04 2567.18,-81.22 2569.6,-87.79"/>
</g>
<!-- Node31&#45;&gt;Node21 -->
<g id="edge36" class="edge">
<title>Node31&#45;&gt;Node21</title>
<path fill="none" stroke="midnightblue" d="M2331.38,-123.48C2368.99,-111.72 2422.04,-95.14 2457.31,-84.12"/>
<polygon fill="midnightblue" stroke="midnightblue" points="2458.71,-87.35 2467.21,-81.03 2456.62,-80.67 2458.71,-87.35"/>
</g>
<!-- Node32&#45;&gt;Node3 -->
<g id="edge49" class="edge">
<title>Node32&#45;&gt;Node3</title>
<path fill="none" stroke="midnightblue" d="M1060.36,-194.6C1148.51,-187.24 1329.05,-171.51 1481.5,-154 1495.31,-152.41 1963.82,-89.47 1977.5,-87 1983.68,-85.88 1990.17,-84.58 1996.54,-83.21"/>
<polygon fill="midnightblue" stroke="midnightblue" points="1997.39,-86.61 2006.4,-81.04 1995.89,-79.77 1997.39,-86.61"/>
</g>
<!-- Node32&#45;&gt;Node7 -->
<g id="edge50" class="edge">
<title>Node32&#45;&gt;Node7</title>
<path fill="none" stroke="midnightblue" d="M1060.3,-191.04C1130.88,-180.59 1255.06,-162.21 1334.47,-150.46"/>
<polygon fill="midnightblue" stroke="midnightblue" points="1335.03,-153.91 1344.41,-148.99 1334,-146.99 1335.03,-153.91"/>
</g>
<!-- Node32&#45;&gt;Node13 -->
<g id="edge53" class="edge">
<title>Node32&#45;&gt;Node13</title>
<path fill="none" stroke="midnightblue" d="M1012.68,-190.41C1023.08,-174.8 1041.31,-141.7 1023.5,-123 995.19,-93.28 326.19,-92.42 285.5,-87 278.22,-86.03 270.56,-84.67 263.14,-83.16"/>
<polygon fill="midnightblue" stroke="midnightblue" points="263.73,-79.71 253.22,-81.05 262.27,-86.56 263.73,-79.71"/>
</g>
<!-- Node32&#45;&gt;Node15 -->
<g id="edge55" class="edge">
<title>Node32&#45;&gt;Node15</title>
<path fill="none" stroke="midnightblue" d="M1060.29,-198.32C1295.17,-195.21 2224.81,-181.26 2352.5,-154 2388.18,-146.38 2393.95,-134.71 2428.5,-123 2486.09,-103.48 2502.78,-106.12 2560.5,-87 2562.77,-86.25 2565.09,-85.44 2567.43,-84.59"/>
<polygon fill="midnightblue" stroke="midnightblue" points="2568.78,-87.83 2576.9,-81.02 2566.31,-81.28 2568.78,-87.83"/>
</g>
<!-- Node32&#45;&gt;Node17 -->
<g id="edge56" class="edge">
<title>Node32&#45;&gt;Node17</title>
<path fill="none" stroke="midnightblue" d="M1007.58,-190.25C1009.02,-174.08 1009.41,-139.66 989.5,-123 955.31,-94.39 260.36,-92.24 155.42,-86.73"/>
<polygon fill="midnightblue" stroke="midnightblue" points="155.52,-83.23 145.29,-86.01 155.01,-90.21 155.52,-83.23"/>
</g>
<!-- Node32&#45;&gt;Node18 -->
<g id="edge57" class="edge">
<title>Node32&#45;&gt;Node18</title>
<path fill="none" stroke="midnightblue" d="M1023.7,-190.39C1036.75,-182.79 1053.73,-170.39 1061.5,-154 1067.4,-141.55 1070.97,-133.01 1061.5,-123 1012.26,-70.93 488.51,-96.72 417.5,-87 410.23,-86 402.57,-84.63 395.15,-83.12"/>
<polygon fill="midnightblue" stroke="midnightblue" points="395.74,-79.67 385.23,-81 394.28,-86.51 395.74,-79.67"/>
</g>
<!-- Node33 -->
<g id="node33" class="node">
<title>Node33</title>
<g id="a_node33"><a xlink:title=" ">
<polygon fill="none" stroke="#bfbfbf" points="395,-129 395,-148 536,-148 536,-129 395,-129"/>
<text text-anchor="middle" x="465.5" y="-136" font-family="Helvetica,sans-Serif" font-size="10.00">seerep_msgs/header.pb.h</text>
</a>
</g>
</g>
<!-- Node32&#45;&gt;Node33 -->
<g id="edge51" class="edge">
<title>Node32&#45;&gt;Node33</title>
<path fill="none" stroke="midnightblue" d="M952.97,-195.26C866.72,-188.91 691.74,-174.65 544.5,-154 536.06,-152.82 527.15,-151.37 518.48,-149.86"/>
<polygon fill="midnightblue" stroke="midnightblue" points="518.9,-146.38 508.44,-148.06 517.67,-153.27 518.9,-146.38"/>
</g>
<!-- Node34 -->
<g id="node34" class="node">
<title>Node34</title>
<g id="a_node34"><a xlink:title=" ">
<polygon fill="none" stroke="#bfbfbf" points="554,-129 554,-148 733,-148 733,-129 554,-129"/>
<text text-anchor="middle" x="643.5" y="-136" font-family="Helvetica,sans-Serif" font-size="10.00">seerep_msgs/label_category.pb.h</text>
</a>
</g>
</g>
<!-- Node32&#45;&gt;Node34 -->
<g id="edge52" class="edge">
<title>Node32&#45;&gt;Node34</title>
<path fill="none" stroke="midnightblue" d="M954.49,-190.48C888.72,-179.69 775.61,-161.15 705.44,-149.65"/>
<polygon fill="midnightblue" stroke="midnightblue" points="705.85,-146.17 695.41,-148.01 704.71,-153.08 705.85,-146.17"/>
</g>
<!-- Node35 -->
<g id="node35" class="node">
<title>Node35</title>
<g id="a_node35"><a xlink:title=" ">
<polygon fill="none" stroke="#bfbfbf" points="751.5,-129 751.5,-148 819.5,-148 819.5,-129 751.5,-129"/>
<text text-anchor="middle" x="785.5" y="-136" font-family="Helvetica,sans-Serif" font-size="10.00">filesystem</text>
</a>
</g>
</g>
<!-- Node32&#45;&gt;Node35 -->
<g id="edge54" class="edge">
<title>Node32&#45;&gt;Node35</title>
<path fill="none" stroke="midnightblue" d="M969.11,-190.44C932.93,-181.95 876.66,-168.18 828.5,-154 825.57,-153.14 822.54,-152.2 819.52,-151.24"/>
<polygon fill="midnightblue" stroke="midnightblue" points="820.55,-147.9 809.95,-148.11 818.37,-154.55 820.55,-147.9"/>
</g>
<!-- Node36 -->
<g id="node36" class="node">
<title>Node36</title>
<g id="a_node36"><a xlink:title=" ">
<polygon fill="none" stroke="#bfbfbf" points="838,-129 838,-148 981,-148 981,-129 838,-129"/>
<text text-anchor="middle" x="909.5" y="-136" font-family="Helvetica,sans-Serif" font-size="10.00">impl/hdf5_pb_general.hpp</text>
</a>
</g>
</g>
<!-- Node32&#45;&gt;Node36 -->
<g id="edge58" class="edge">
<title>Node32&#45;&gt;Node36</title>
<path fill="none" stroke="midnightblue" d="M992.6,-190.48C976.83,-180.8 950.86,-164.87 932.15,-153.39"/>
<polygon fill="midnightblue" stroke="midnightblue" points="933.73,-150.25 923.37,-148.01 930.07,-156.22 933.73,-150.25"/>
</g>
</g>
</svg>
