<?xml version="1.0" encoding="UTF-8" standalone="no"?>
<!DOCTYPE svg PUBLIC "-//W3C//DTD SVG 1.1//EN"
 "http://www.w3.org/Graphics/SVG/1.1/DTD/svg11.dtd">
<!-- Generated by graphviz version 2.43.0 (0)
 -->
<!-- Title: seerep&#45;hdf5/seerep&#45;hdf5&#45;fb/include/seerep&#45;hdf5&#45;fb/hdf5&#45;fb&#45;point.h Pages: 1 -->
<svg width="428pt" height="351pt"
 viewBox="0.00 0.00 428.00 351.00" xmlns="http://www.w3.org/2000/svg" xmlns:xlink="http://www.w3.org/1999/xlink">
<g id="graph0" class="graph" transform="scale(1 1) rotate(0) translate(4 347)">
<title>seerep&#45;hdf5/seerep&#45;hdf5&#45;fb/include/seerep&#45;hdf5&#45;fb/hdf5&#45;fb&#45;point.h</title>
<!-- Node1 -->
<g id="node1" class="node">
<title>Node1</title>
<g id="a_node1"><a xlink:title=" ">
<polygon fill="#bfbfbf" stroke="black" points="59,-301.5 59,-342.5 190,-342.5 190,-301.5 59,-301.5"/>
<text text-anchor="start" x="67" y="-330.5" font-family="Helvetica,sans-Serif" font-size="10.00">seerep&#45;hdf5/seerep</text>
<text text-anchor="start" x="67" y="-319.5" font-family="Helvetica,sans-Serif" font-size="10.00">&#45;hdf5&#45;fb/include/seerep</text>
<text text-anchor="middle" x="124.5" y="-308.5" font-family="Helvetica,sans-Serif" font-size="10.00">&#45;hdf5&#45;fb/hdf5&#45;fb&#45;point.h</text>
</a>
</g>
</g>
<!-- Node2 -->
<g id="node2" class="node">
<title>Node2</title>
<g id="a_node2"><a xlink:href="hdf5-fb-point_8cpp.html" target="_top" xlink:title=" ">
<polygon fill="none" stroke="black" points="0,-223.5 0,-264.5 111,-264.5 111,-223.5 0,-223.5"/>
<text text-anchor="start" x="8" y="-252.5" font-family="Helvetica,sans-Serif" font-size="10.00">seerep&#45;hdf5/seerep</text>
<text text-anchor="start" x="8" y="-241.5" font-family="Helvetica,sans-Serif" font-size="10.00">&#45;hdf5&#45;fb/src/hdf5&#45;fb</text>
<text text-anchor="middle" x="55.5" y="-230.5" font-family="Helvetica,sans-Serif" font-size="10.00">&#45;point.cpp</text>
</a>
</g>
</g>
<!-- Node1&#45;&gt;Node2 -->
<g id="edge1" class="edge">
<title>Node1&#45;&gt;Node2</title>
<path fill="none" stroke="midnightblue" d="M99.91,-293.92C91.09,-284.2 81.33,-273.45 73.21,-264.51"/>
<polygon fill="midnightblue" stroke="midnightblue" points="97.42,-296.38 106.73,-301.43 102.6,-291.67 97.42,-296.38"/>
</g>
<!-- Node3 -->
<g id="node3" class="node">
<title>Node3</title>
<g id="a_node3"><a xlink:href="core-fb-point_8h.html" target="_top" xlink:title=" ">
<polygon fill="none" stroke="black" points="129,-223.5 129,-264.5 258,-264.5 258,-223.5 129,-223.5"/>
<text text-anchor="start" x="137" y="-252.5" font-family="Helvetica,sans-Serif" font-size="10.00">seerep&#45;srv/seerep&#45;core</text>
<text text-anchor="start" x="137" y="-241.5" font-family="Helvetica,sans-Serif" font-size="10.00">&#45;fb/include/seerep&#45;core</text>
<text text-anchor="middle" x="193.5" y="-230.5" font-family="Helvetica,sans-Serif" font-size="10.00">&#45;fb/core&#45;fb&#45;point.h</text>
</a>
</g>
</g>
<!-- Node1&#45;&gt;Node3 -->
<g id="edge2" class="edge">
<title>Node1&#45;&gt;Node3</title>
<path fill="none" stroke="midnightblue" d="M149.09,-293.92C157.91,-284.2 167.67,-273.45 175.79,-264.51"/>
<polygon fill="midnightblue" stroke="midnightblue" points="146.4,-291.67 142.27,-301.43 151.58,-296.38 146.4,-291.67"/>
</g>
<!-- Node4 -->
<g id="node4" class="node">
<title>Node4</title>
<g id="a_node4"><a xlink:href="core-fb-point_8cpp.html" target="_top" xlink:title=" ">
<polygon fill="none" stroke="black" points="49.5,-151 49.5,-181 183.5,-181 183.5,-151 49.5,-151"/>
<text text-anchor="start" x="57.5" y="-169" font-family="Helvetica,sans-Serif" font-size="10.00">seerep&#45;srv/seerep&#45;core</text>
<text text-anchor="middle" x="116.5" y="-158" font-family="Helvetica,sans-Serif" font-size="10.00">&#45;fb/src/core&#45;fb&#45;point.cpp</text>
</a>
</g>
</g>
<!-- Node3&#45;&gt;Node4 -->
<g id="edge3" class="edge">
<title>Node3&#45;&gt;Node4</title>
<path fill="none" stroke="midnightblue" d="M166.47,-216.32C154.5,-204.51 140.9,-191.08 130.91,-181.23"/>
<polygon fill="midnightblue" stroke="midnightblue" points="164.09,-218.89 173.67,-223.43 169.01,-213.91 164.09,-218.89"/>
</g>
<!-- Node5 -->
<g id="node5" class="node">
<title>Node5</title>
<g id="a_node5"><a xlink:href="fb-point-service_8h.html" target="_top" xlink:title=" ">
<polygon fill="none" stroke="black" points="202,-145.5 202,-186.5 341,-186.5 341,-145.5 202,-145.5"/>
<text text-anchor="start" x="210" y="-174.5" font-family="Helvetica,sans-Serif" font-size="10.00">seerep&#45;srv/seerep&#45;server</text>
<text text-anchor="start" x="210" y="-163.5" font-family="Helvetica,sans-Serif" font-size="10.00">/include/seerep&#45;server</text>
<text text-anchor="middle" x="271.5" y="-152.5" font-family="Helvetica,sans-Serif" font-size="10.00">/fb&#45;point&#45;service.h</text>
</a>
</g>
</g>
<!-- Node3&#45;&gt;Node5 -->
<g id="edge4" class="edge">
<title>Node3&#45;&gt;Node5</title>
<path fill="none" stroke="midnightblue" d="M221,-216.2C231.05,-206.42 242.21,-195.54 251.48,-186.51"/>
<polygon fill="midnightblue" stroke="midnightblue" points="218.31,-213.94 213.59,-223.43 223.19,-218.96 218.31,-213.94"/>
</g>
<!-- Node6 -->
<g id="node6" class="node">
<title>Node6</title>
<g id="a_node6"><a xlink:href="server_8h.html" target="_top" xlink:title=" ">
<polygon fill="none" stroke="black" points="124,-67.5 124,-108.5 263,-108.5 263,-67.5 124,-67.5"/>
<text text-anchor="start" x="132" y="-96.5" font-family="Helvetica,sans-Serif" font-size="10.00">seerep&#45;srv/seerep&#45;server</text>
<text text-anchor="start" x="132" y="-85.5" font-family="Helvetica,sans-Serif" font-size="10.00">/include/seerep&#45;server</text>
<text text-anchor="middle" x="193.5" y="-74.5" font-family="Helvetica,sans-Serif" font-size="10.00">/server.h</text>
</a>
</g>
</g>
<!-- Node5&#45;&gt;Node6 -->
<g id="edge5" class="edge">
<title>Node5&#45;&gt;Node6</title>
<path fill="none" stroke="midnightblue" d="M244,-138.2C233.95,-128.42 222.79,-117.54 213.52,-108.51"/>
<polygon fill="midnightblue" stroke="midnightblue" points="241.81,-140.96 251.41,-145.43 246.69,-135.94 241.81,-140.96"/>
</g>
<!-- Node8 -->
<g id="node8" class="node">
<title>Node8</title>
<g id="a_node8"><a xlink:href="fb-point-service_8cpp.html" target="_top" xlink:title=" ">
<polygon fill="none" stroke="black" points="281,-73 281,-103 420,-103 420,-73 281,-73"/>
<text text-anchor="start" x="289" y="-91" font-family="Helvetica,sans-Serif" font-size="10.00">seerep&#45;srv/seerep&#45;server</text>
<text text-anchor="middle" x="350.5" y="-80" font-family="Helvetica,sans-Serif" font-size="10.00">/src/fb&#45;point&#45;service.cpp</text>
</a>
</g>
</g>
<!-- Node5&#45;&gt;Node8 -->
<g id="edge7" class="edge">
<title>Node5&#45;&gt;Node8</title>
<path fill="none" stroke="midnightblue" d="M299.23,-138.32C311.51,-126.51 325.47,-113.08 335.71,-103.23"/>
<polygon fill="midnightblue" stroke="midnightblue" points="296.62,-135.97 291.84,-145.43 301.48,-141.02 296.62,-135.97"/>
</g>
<!-- Node7 -->
<g id="node7" class="node">
<title>Node7</title>
<g id="a_node7"><a xlink:href="server_8cpp.html" target="_top" xlink:title=" ">
<polygon fill="none" stroke="black" points="124,-0.5 124,-30.5 263,-30.5 263,-0.5 124,-0.5"/>
<text text-anchor="start" x="132" y="-18.5" font-family="Helvetica,sans-Serif" font-size="10.00">seerep&#45;srv/seerep&#45;server</text>
<text text-anchor="middle" x="193.5" y="-7.5" font-family="Helvetica,sans-Serif" font-size="10.00">/src/server.cpp</text>
</a>
</g>
</g>
<!-- Node6&#45;&gt;Node7 -->
<g id="edge6" class="edge">
<title>Node6&#45;&gt;Node7</title>
<path fill="none" stroke="midnightblue" d="M193.5,-57.08C193.5,-48.01 193.5,-38.45 193.5,-30.89"/>
<polygon fill="midnightblue" stroke="midnightblue" points="190,-57.36 193.5,-67.36 197,-57.36 190,-57.36"/>
</g>
</g>
</svg>
