<?xml version="1.0" encoding="UTF-8" standalone="no"?>
<!DOCTYPE svg PUBLIC "-//W3C//DTD SVG 1.1//EN"
 "http://www.w3.org/Graphics/SVG/1.1/DTD/svg11.dtd">
<!-- Generated by graphviz version 2.43.0 (0)
 -->
<!-- Title: seerep_hdf5/seerep_hdf5_ros/include/seerep_hdf5_ros/hdf5_ros.h Pages: 1 -->
<svg width="2267pt" height="195pt"
 viewBox="0.00 0.00 2267.00 195.00" xmlns="http://www.w3.org/2000/svg" xmlns:xlink="http://www.w3.org/1999/xlink">
<g id="graph0" class="graph" transform="scale(1 1) rotate(0) translate(4 191)">
<title>seerep_hdf5/seerep_hdf5_ros/include/seerep_hdf5_ros/hdf5_ros.h</title>
<!-- Node1 -->
<g id="node1" class="node">
<title>Node1</title>
<g id="a_node1"><a xlink:title=" ">
<polygon fill="#bfbfbf" stroke="black" points="615,-145.5 615,-186.5 753,-186.5 753,-145.5 615,-145.5"/>
<text text-anchor="start" x="623" y="-174.5" font-family="Helvetica,sans-Serif" font-size="10.00">seerep_hdf5/seerep</text>
<text text-anchor="start" x="623" y="-163.5" font-family="Helvetica,sans-Serif" font-size="10.00">_hdf5_ros/include/seerep</text>
<text text-anchor="middle" x="684" y="-152.5" font-family="Helvetica,sans-Serif" font-size="10.00">_hdf5_ros/hdf5_ros.h</text>
</a>
</g>
</g>
<!-- Node2 -->
<g id="node2" class="node">
<title>Node2</title>
<g id="a_node2"><a xlink:title=" ">
<polygon fill="none" stroke="#bfbfbf" points="0,-11.5 0,-30.5 48,-30.5 48,-11.5 0,-11.5"/>
<text text-anchor="middle" x="24" y="-18.5" font-family="Helvetica,sans-Serif" font-size="10.00">mutex</text>
</a>
</g>
</g>
<!-- Node1&#45;&gt;Node2 -->
<g id="edge1" class="edge">
<title>Node1&#45;&gt;Node2</title>
<path fill="none" stroke="midnightblue" d="M614.91,-160.87C496.38,-151.75 248.56,-123.75 57,-42 52.98,-40.28 48.86,-38.14 44.96,-35.91"/>
<polygon fill="midnightblue" stroke="midnightblue" points="46.76,-32.9 36.4,-30.67 43.1,-38.87 46.76,-32.9"/>
</g>
<!-- Node3 -->
<g id="node3" class="node">
<title>Node3</title>
<g id="a_node3"><a xlink:title=" ">
<polygon fill="none" stroke="#bfbfbf" points="878,-84 878,-103 922,-103 922,-84 878,-84"/>
<text text-anchor="middle" x="900" y="-91" font-family="Helvetica,sans-Serif" font-size="10.00">string</text>
</a>
</g>
</g>
<!-- Node1&#45;&gt;Node3 -->
<g id="edge2" class="edge">
<title>Node1&#45;&gt;Node3</title>
<path fill="none" stroke="midnightblue" d="M753.32,-146.57C788.39,-136.61 831.39,-123.4 869,-109 870.42,-108.46 871.87,-107.87 873.32,-107.27"/>
<polygon fill="midnightblue" stroke="midnightblue" points="875.08,-110.32 882.81,-103.08 872.25,-103.92 875.08,-110.32"/>
</g>
<!-- Node4 -->
<g id="node4" class="node">
<title>Node4</title>
<g id="a_node4"><a xlink:title=" ">
<polygon fill="none" stroke="#bfbfbf" points="940.5,-84 940.5,-103 1055.5,-103 1055.5,-84 940.5,-84"/>
<text text-anchor="middle" x="998" y="-91" font-family="Helvetica,sans-Serif" font-size="10.00">highfive/H5Easy.hpp</text>
</a>
</g>
</g>
<!-- Node1&#45;&gt;Node4 -->
<g id="edge3" class="edge">
<title>Node1&#45;&gt;Node4</title>
<path fill="none" stroke="midnightblue" d="M753.3,-149.44C812.9,-136.06 897.32,-117.1 949.81,-105.32"/>
<polygon fill="midnightblue" stroke="midnightblue" points="950.88,-108.67 959.87,-103.06 949.35,-101.84 950.88,-108.67"/>
</g>
<!-- Node5 -->
<g id="node5" class="node">
<title>Node5</title>
<g id="a_node5"><a xlink:title=" ">
<polygon fill="none" stroke="#bfbfbf" points="66,-11.5 66,-30.5 176,-30.5 176,-11.5 66,-11.5"/>
<text text-anchor="middle" x="121" y="-18.5" font-family="Helvetica,sans-Serif" font-size="10.00">highfive/H5File.hpp</text>
</a>
</g>
</g>
<!-- Node1&#45;&gt;Node5 -->
<g id="edge4" class="edge">
<title>Node1&#45;&gt;Node5</title>
<path fill="none" stroke="midnightblue" d="M614.78,-150.81C563.36,-140.03 491.6,-124.46 429,-109 319.82,-82.04 292.91,-73.67 185,-42 176.07,-39.38 166.48,-36.45 157.51,-33.65"/>
<polygon fill="midnightblue" stroke="midnightblue" points="158.31,-30.23 147.72,-30.58 156.21,-36.91 158.31,-30.23"/>
</g>
<!-- Node6 -->
<g id="node6" class="node">
<title>Node6</title>
<g id="a_node6"><a xlink:title=" ">
<polygon fill="none" stroke="#bfbfbf" points="194.5,-11.5 194.5,-30.5 319.5,-30.5 319.5,-11.5 194.5,-11.5"/>
<text text-anchor="middle" x="257" y="-18.5" font-family="Helvetica,sans-Serif" font-size="10.00">boost/lexical_cast.hpp</text>
</a>
</g>
</g>
<!-- Node1&#45;&gt;Node6 -->
<g id="edge5" class="edge">
<title>Node1&#45;&gt;Node6</title>
<path fill="none" stroke="midnightblue" d="M625.52,-145.42C535.43,-115.24 365.43,-58.31 292.11,-33.76"/>
<polygon fill="midnightblue" stroke="midnightblue" points="293.02,-30.37 282.43,-30.51 290.8,-37.01 293.02,-30.37"/>
</g>
<!-- Node7 -->
<g id="node7" class="node">
<title>Node7</title>
<g id="a_node7"><a xlink:title=" ">
<polygon fill="none" stroke="#bfbfbf" points="338,-11.5 338,-30.5 508,-30.5 508,-11.5 338,-11.5"/>
<text text-anchor="middle" x="423" y="-18.5" font-family="Helvetica,sans-Serif" font-size="10.00">boost/uuid/uuid_generators.hpp</text>
</a>
</g>
</g>
<!-- Node1&#45;&gt;Node7 -->
<g id="edge6" class="edge">
<title>Node1&#45;&gt;Node7</title>
<path fill="none" stroke="midnightblue" d="M648.26,-145.42C594.43,-115.92 493.92,-60.86 447.57,-35.46"/>
<polygon fill="midnightblue" stroke="midnightblue" points="448.99,-32.25 438.54,-30.51 445.63,-38.39 448.99,-32.25"/>
</g>
<!-- Node8 -->
<g id="node8" class="node">
<title>Node8</title>
<g id="a_node8"><a xlink:title=" ">
<polygon fill="none" stroke="#bfbfbf" points="526.5,-11.5 526.5,-30.5 653.5,-30.5 653.5,-11.5 526.5,-11.5"/>
<text text-anchor="middle" x="590" y="-18.5" font-family="Helvetica,sans-Serif" font-size="10.00">boost/uuid/uuid_io.hpp</text>
</a>
</g>
</g>
<!-- Node1&#45;&gt;Node8 -->
<g id="edge7" class="edge">
<title>Node1&#45;&gt;Node8</title>
<path fill="none" stroke="midnightblue" d="M671.13,-145.42C652.68,-117.35 619,-66.12 601.4,-39.35"/>
<polygon fill="midnightblue" stroke="midnightblue" points="604.12,-37.11 595.7,-30.68 598.27,-40.96 604.12,-37.11"/>
</g>
<!-- Node9 -->
<g id="node9" class="node">
<title>Node9</title>
<g id="a_node9"><a xlink:title=" ">
<polygon fill="none" stroke="#bfbfbf" points="1073.5,-84 1073.5,-103 1196.5,-103 1196.5,-84 1073.5,-84"/>
<text text-anchor="middle" x="1135" y="-91" font-family="Helvetica,sans-Serif" font-size="10.00">sensor_msgs/Image.h</text>
</a>
</g>
</g>
<!-- Node1&#45;&gt;Node9 -->
<g id="edge8" class="edge">
<title>Node1&#45;&gt;Node9</title>
<path fill="none" stroke="midnightblue" d="M753.02,-156.09C829.5,-145.93 956.37,-128.22 1065,-109 1071.73,-107.81 1078.81,-106.46 1085.77,-105.07"/>
<polygon fill="midnightblue" stroke="midnightblue" points="1086.73,-108.45 1095.83,-103.03 1085.34,-101.59 1086.73,-108.45"/>
</g>
<!-- Node10 -->
<g id="node10" class="node">
<title>Node10</title>
<g id="a_node10"><a xlink:title=" ">
<polygon fill="none" stroke="#bfbfbf" points="1215,-84 1215,-103 1325,-103 1325,-84 1215,-84"/>
<text text-anchor="middle" x="1270" y="-91" font-family="Helvetica,sans-Serif" font-size="10.00">std_msgs/Header.h</text>
</a>
</g>
</g>
<!-- Node1&#45;&gt;Node10 -->
<g id="edge9" class="edge">
<title>Node1&#45;&gt;Node10</title>
<path fill="none" stroke="midnightblue" d="M753.17,-160.15C853.44,-152.53 1044.84,-135.81 1206,-109 1212.34,-107.94 1219,-106.65 1225.52,-105.27"/>
<polygon fill="midnightblue" stroke="midnightblue" points="1226.58,-108.62 1235.6,-103.06 1225.08,-101.79 1226.58,-108.62"/>
</g>
<!-- Node11 -->
<g id="node11" class="node">
<title>Node11</title>
<g id="a_node11"><a xlink:href="hdf5__core__general_8h.html" target="_top" xlink:title=" ">
<polygon fill="none" stroke="black" points="732,-78.5 732,-108.5 860,-108.5 860,-78.5 732,-78.5"/>
<text text-anchor="start" x="740" y="-96.5" font-family="Helvetica,sans-Serif" font-size="10.00">seerep_hdf5_core/hdf5</text>
<text text-anchor="middle" x="796" y="-85.5" font-family="Helvetica,sans-Serif" font-size="10.00">_core_general.h</text>
</a>
</g>
</g>
<!-- Node1&#45;&gt;Node11 -->
<g id="edge10" class="edge">
<title>Node1&#45;&gt;Node11</title>
<path fill="none" stroke="midnightblue" d="M715.2,-145.36C730.67,-135.62 749.31,-123.89 764.79,-114.15"/>
<polygon fill="midnightblue" stroke="midnightblue" points="766.89,-116.96 773.49,-108.67 763.16,-111.04 766.89,-116.96"/>
</g>
<!-- Node11&#45;&gt;Node2 -->
<g id="edge17" class="edge">
<title>Node11&#45;&gt;Node2</title>
<path fill="none" stroke="midnightblue" d="M731.82,-91.99C576.11,-90.13 181.9,-81.53 57,-42 52.5,-40.57 47.97,-38.42 43.77,-36.04"/>
<polygon fill="midnightblue" stroke="midnightblue" points="45.58,-33.04 35.25,-30.68 41.85,-38.96 45.58,-33.04"/>
</g>
<!-- Node11&#45;&gt;Node5 -->
<g id="edge11" class="edge">
<title>Node11&#45;&gt;Node5</title>
<path fill="none" stroke="midnightblue" d="M731.59,-91.82C619.49,-89.62 381.66,-80.37 185,-42 174.63,-39.98 163.57,-36.88 153.61,-33.71"/>
<polygon fill="midnightblue" stroke="midnightblue" points="154.68,-30.38 144.09,-30.57 152.49,-37.03 154.68,-30.38"/>
</g>
<!-- Node11&#45;&gt;Node6 -->
<g id="edge23" class="edge">
<title>Node11&#45;&gt;Node6</title>
<path fill="none" stroke="midnightblue" d="M731.68,-88.88C641.17,-83.02 471.36,-69.28 329,-42 317.39,-39.78 304.93,-36.6 293.68,-33.43"/>
<polygon fill="midnightblue" stroke="midnightblue" points="294.34,-29.98 283.76,-30.56 292.39,-36.7 294.34,-29.98"/>
</g>
<!-- Node11&#45;&gt;Node7 -->
<g id="edge25" class="edge">
<title>Node11&#45;&gt;Node7</title>
<path fill="none" stroke="midnightblue" d="M731.9,-81.47C675.28,-71.59 590.53,-56.47 517,-42 502.24,-39.09 486.21,-35.75 471.64,-32.64"/>
<polygon fill="midnightblue" stroke="midnightblue" points="472.33,-29.21 461.82,-30.54 470.86,-36.06 472.33,-29.21"/>
</g>
<!-- Node11&#45;&gt;Node8 -->
<g id="edge26" class="edge">
<title>Node11&#45;&gt;Node8</title>
<path fill="none" stroke="midnightblue" d="M754.81,-78.4C716.6,-65.33 660.39,-46.09 624.49,-33.8"/>
<polygon fill="midnightblue" stroke="midnightblue" points="625.53,-30.46 614.93,-30.53 623.26,-37.08 625.53,-30.46"/>
</g>
<!-- Node12 -->
<g id="node12" class="node">
<title>Node12</title>
<g id="a_node12"><a xlink:title=" ">
<polygon fill="none" stroke="#bfbfbf" points="1858.5,-11.5 1858.5,-30.5 1975.5,-30.5 1975.5,-11.5 1858.5,-11.5"/>
<text text-anchor="middle" x="1917" y="-18.5" font-family="Helvetica,sans-Serif" font-size="10.00">seerep_msgs/aabb.h</text>
</a>
</g>
</g>
<!-- Node11&#45;&gt;Node12 -->
<g id="edge12" class="edge">
<title>Node11&#45;&gt;Node12</title>
<path fill="none" stroke="midnightblue" d="M860,-79.19C863.04,-78.75 866.05,-78.35 869,-78 1301.9,-27.38 1418.81,-112.03 1849,-42 1860.53,-40.12 1872.86,-36.89 1883.81,-33.56"/>
<polygon fill="midnightblue" stroke="midnightblue" points="1884.94,-36.87 1893.42,-30.51 1882.83,-30.2 1884.94,-36.87"/>
</g>
<!-- Node13 -->
<g id="node13" class="node">
<title>Node13</title>
<g id="a_node13"><a xlink:title=" ">
<polygon fill="none" stroke="#bfbfbf" points="1993.5,-6 1993.5,-36 2114.5,-36 2114.5,-6 1993.5,-6"/>
<text text-anchor="start" x="2001.5" y="-24" font-family="Helvetica,sans-Serif" font-size="10.00">seerep_msgs/dataset</text>
<text text-anchor="middle" x="2054" y="-13" font-family="Helvetica,sans-Serif" font-size="10.00">_indexable.h</text>
</a>
</g>
</g>
<!-- Node11&#45;&gt;Node13 -->
<g id="edge13" class="edge">
<title>Node11&#45;&gt;Node13</title>
<path fill="none" stroke="midnightblue" d="M860,-79.17C863.04,-78.73 866.05,-78.34 869,-78 1362.03,-21.47 1494.86,-119.68 1985,-42 1990.47,-41.13 1996.11,-39.97 2001.71,-38.63"/>
<polygon fill="midnightblue" stroke="midnightblue" points="2002.87,-41.95 2011.68,-36.07 2001.12,-35.17 2002.87,-41.95"/>
</g>
<!-- Node14 -->
<g id="node14" class="node">
<title>Node14</title>
<g id="a_node14"><a xlink:title=" ">
<polygon fill="none" stroke="#bfbfbf" points="2133,-6 2133,-36 2259,-36 2259,-6 2133,-6"/>
<text text-anchor="start" x="2141" y="-24" font-family="Helvetica,sans-Serif" font-size="10.00">seerep_msgs/geodetic</text>
<text text-anchor="middle" x="2196" y="-13" font-family="Helvetica,sans-Serif" font-size="10.00">_coordinates.h</text>
</a>
</g>
</g>
<!-- Node11&#45;&gt;Node14 -->
<g id="edge14" class="edge">
<title>Node11&#45;&gt;Node14</title>
<path fill="none" stroke="midnightblue" d="M860.4,-79.1C863.3,-78.69 866.18,-78.32 869,-78 1423.49,-15.42 1572.24,-125.28 2124,-42 2129.83,-41.12 2135.87,-39.92 2141.85,-38.54"/>
<polygon fill="midnightblue" stroke="midnightblue" points="2142.94,-41.88 2151.81,-36.08 2141.26,-35.08 2142.94,-41.88"/>
</g>
<!-- Node15 -->
<g id="node15" class="node">
<title>Node15</title>
<g id="a_node15"><a xlink:title=" ">
<polygon fill="none" stroke="#bfbfbf" points="672,-0.5 672,-41.5 788,-41.5 788,-0.5 672,-0.5"/>
<text text-anchor="start" x="680" y="-29.5" font-family="Helvetica,sans-Serif" font-size="10.00">seerep_msgs/labels</text>
<text text-anchor="start" x="680" y="-18.5" font-family="Helvetica,sans-Serif" font-size="10.00">_with_instance_with</text>
<text text-anchor="middle" x="730" y="-7.5" font-family="Helvetica,sans-Serif" font-size="10.00">_category.h</text>
</a>
</g>
</g>
<!-- Node11&#45;&gt;Node15 -->
<g id="edge15" class="edge">
<title>Node11&#45;&gt;Node15</title>
<path fill="none" stroke="midnightblue" d="M782.64,-78.23C774.78,-69.83 764.58,-58.93 755.25,-48.97"/>
<polygon fill="midnightblue" stroke="midnightblue" points="757.73,-46.5 748.34,-41.59 752.62,-51.28 757.73,-46.5"/>
</g>
<!-- Node16 -->
<g id="node16" class="node">
<title>Node16</title>
<g id="a_node16"><a xlink:title=" ">
<polygon fill="none" stroke="#bfbfbf" points="806.5,-11.5 806.5,-30.5 919.5,-30.5 919.5,-11.5 806.5,-11.5"/>
<text text-anchor="middle" x="863" y="-18.5" font-family="Helvetica,sans-Serif" font-size="10.00">boost/geometry.hpp</text>
</a>
</g>
</g>
<!-- Node11&#45;&gt;Node16 -->
<g id="edge16" class="edge">
<title>Node11&#45;&gt;Node16</title>
<path fill="none" stroke="midnightblue" d="M809.56,-78.23C820.49,-66.73 835.89,-50.53 847.35,-38.47"/>
<polygon fill="midnightblue" stroke="midnightblue" points="850.2,-40.55 854.55,-30.89 845.12,-35.73 850.2,-40.55"/>
</g>
<!-- Node17 -->
<g id="node17" class="node">
<title>Node17</title>
<g id="a_node17"><a xlink:title=" ">
<polygon fill="none" stroke="#bfbfbf" points="938,-11.5 938,-30.5 994,-30.5 994,-11.5 938,-11.5"/>
<text text-anchor="middle" x="966" y="-18.5" font-family="Helvetica,sans-Serif" font-size="10.00">optional</text>
</a>
</g>
</g>
<!-- Node11&#45;&gt;Node17 -->
<g id="edge18" class="edge">
<title>Node11&#45;&gt;Node17</title>
<path fill="none" stroke="midnightblue" d="M837.32,-78.41C863.88,-68.96 898.91,-55.77 929,-42 933.3,-40.03 937.79,-37.78 942.1,-35.51"/>
<polygon fill="midnightblue" stroke="midnightblue" points="943.98,-38.48 951.11,-30.63 940.65,-32.32 943.98,-38.48"/>
</g>
<!-- Node18 -->
<g id="node18" class="node">
<title>Node18</title>
<g id="a_node18"><a xlink:title=" ">
<polygon fill="none" stroke="#bfbfbf" points="1012.5,-11.5 1012.5,-30.5 1081.5,-30.5 1081.5,-11.5 1012.5,-11.5"/>
<text text-anchor="middle" x="1047" y="-18.5" font-family="Helvetica,sans-Serif" font-size="10.00">type_traits</text>
</a>
</g>
</g>
<!-- Node11&#45;&gt;Node18 -->
<g id="edge19" class="edge">
<title>Node11&#45;&gt;Node18</title>
<path fill="none" stroke="midnightblue" d="M859.09,-78.47C909.77,-66.95 976.69,-51.1 1003,-42 1008.89,-39.96 1015.07,-37.42 1020.88,-34.84"/>
<polygon fill="midnightblue" stroke="midnightblue" points="1022.56,-37.92 1030.17,-30.55 1019.62,-31.57 1022.56,-37.92"/>
</g>
<!-- Node19 -->
<g id="node19" class="node">
<title>Node19</title>
<g id="a_node19"><a xlink:title=" ">
<polygon fill="none" stroke="#bfbfbf" points="1099.5,-6 1099.5,-36 1244.5,-36 1244.5,-6 1099.5,-6"/>
<text text-anchor="start" x="1107.5" y="-24" font-family="Helvetica,sans-Serif" font-size="10.00">boost/log/sources/severity</text>
<text text-anchor="middle" x="1172" y="-13" font-family="Helvetica,sans-Serif" font-size="10.00">_logger.hpp</text>
</a>
</g>
</g>
<!-- Node11&#45;&gt;Node19 -->
<g id="edge20" class="edge">
<title>Node11&#45;&gt;Node19</title>
<path fill="none" stroke="midnightblue" d="M860.07,-79.64C863.09,-79.08 866.08,-78.53 869,-78 967.37,-60.26 993.07,-62 1091,-42 1096.41,-40.9 1102.01,-39.68 1107.61,-38.4"/>
<polygon fill="midnightblue" stroke="midnightblue" points="1108.73,-41.73 1117.67,-36.06 1107.14,-34.92 1108.73,-41.73"/>
</g>
<!-- Node20 -->
<g id="node20" class="node">
<title>Node20</title>
<g id="a_node20"><a xlink:title=" ">
<polygon fill="none" stroke="#bfbfbf" points="1263,-11.5 1263,-30.5 1377,-30.5 1377,-11.5 1263,-11.5"/>
<text text-anchor="middle" x="1320" y="-18.5" font-family="Helvetica,sans-Serif" font-size="10.00">boost/log/trivial.hpp</text>
</a>
</g>
</g>
<!-- Node11&#45;&gt;Node20 -->
<g id="edge21" class="edge">
<title>Node11&#45;&gt;Node20</title>
<path fill="none" stroke="midnightblue" d="M860.03,-79.39C863.06,-78.9 866.06,-78.43 869,-78 1039.06,-53.23 1085.36,-75.09 1254,-42 1264.57,-39.93 1275.87,-36.84 1286.07,-33.71"/>
<polygon fill="midnightblue" stroke="midnightblue" points="1287.38,-36.96 1295.85,-30.59 1285.26,-30.29 1287.38,-36.96"/>
</g>
<!-- Node21 -->
<g id="node21" class="node">
<title>Node21</title>
<g id="a_node21"><a xlink:title=" ">
<polygon fill="none" stroke="#bfbfbf" points="1395.5,-11.5 1395.5,-30.5 1538.5,-30.5 1538.5,-11.5 1395.5,-11.5"/>
<text text-anchor="middle" x="1467" y="-18.5" font-family="Helvetica,sans-Serif" font-size="10.00">boost/functional/hash.hpp</text>
</a>
</g>
</g>
<!-- Node11&#45;&gt;Node21 -->
<g id="edge22" class="edge">
<title>Node11&#45;&gt;Node21</title>
<path fill="none" stroke="midnightblue" d="M860.02,-79.31C863.05,-78.83 866.05,-78.39 869,-78 1097.31,-47.5 1158.46,-77.74 1386,-42 1399.8,-39.83 1414.69,-36.46 1427.9,-33.1"/>
<polygon fill="midnightblue" stroke="midnightblue" points="1428.84,-36.47 1437.63,-30.55 1427.07,-29.7 1428.84,-36.47"/>
</g>
<!-- Node22 -->
<g id="node22" class="node">
<title>Node22</title>
<g id="a_node22"><a xlink:title=" ">
<polygon fill="none" stroke="#bfbfbf" points="1556.5,-11.5 1556.5,-30.5 1669.5,-30.5 1669.5,-11.5 1556.5,-11.5"/>
<text text-anchor="middle" x="1613" y="-18.5" font-family="Helvetica,sans-Serif" font-size="10.00">boost/uuid/uuid.hpp</text>
</a>
</g>
</g>
<!-- Node11&#45;&gt;Node22 -->
<g id="edge24" class="edge">
<title>Node11&#45;&gt;Node22</title>
<path fill="none" stroke="midnightblue" d="M860.01,-79.25C863.04,-78.79 866.05,-78.37 869,-78 1168.86,-40.47 1250.45,-94.83 1548,-42 1558.72,-40.1 1570.16,-36.97 1580.4,-33.74"/>
<polygon fill="midnightblue" stroke="midnightblue" points="1581.77,-36.98 1590.17,-30.53 1579.58,-30.33 1581.77,-36.98"/>
</g>
<!-- Node23 -->
<g id="node23" class="node">
<title>Node23</title>
<g id="a_node23"><a xlink:title=" ">
<polygon fill="none" stroke="#bfbfbf" points="1688,-11.5 1688,-30.5 1840,-30.5 1840,-11.5 1688,-11.5"/>
<text text-anchor="middle" x="1764" y="-18.5" font-family="Helvetica,sans-Serif" font-size="10.00">impl/hdf5_core_general.hpp</text>
</a>
</g>
</g>
<!-- Node11&#45;&gt;Node23 -->
<g id="edge27" class="edge">
<title>Node11&#45;&gt;Node23</title>
<path fill="none" stroke="midnightblue" d="M860.01,-79.22C863.04,-78.77 866.05,-78.36 869,-78 1226.75,-34.77 1322.06,-91.48 1679,-42 1693.86,-39.94 1709.94,-36.48 1724.07,-33.02"/>
<polygon fill="midnightblue" stroke="midnightblue" points="1725.13,-36.36 1733.97,-30.51 1723.41,-29.57 1725.13,-36.36"/>
</g>
</g>
</svg>
