<?xml version="1.0" encoding="UTF-8" standalone="no"?>
<!DOCTYPE svg PUBLIC "-//W3C//DTD SVG 1.1//EN"
 "http://www.w3.org/Graphics/SVG/1.1/DTD/svg11.dtd">
<!-- Generated by graphviz version 2.43.0 (0)
 -->
<!-- Title: seerep&#45;hdf5/seerep&#45;hdf5&#45;pb/include/seerep&#45;hdf5&#45;pb/hdf5&#45;pb&#45;general.h Pages: 1 -->
<svg width="1449pt" height="184pt"
 viewBox="0.00 0.00 1449.00 184.00" xmlns="http://www.w3.org/2000/svg" xmlns:xlink="http://www.w3.org/1999/xlink">
<g id="graph0" class="graph" transform="scale(1 1) rotate(0) translate(4 180)">
<title>seerep&#45;hdf5/seerep&#45;hdf5&#45;pb/include/seerep&#45;hdf5&#45;pb/hdf5&#45;pb&#45;general.h</title>
<!-- Node1 -->
<g id="node1" class="node">
<title>Node1</title>
<g id="a_node1"><a xlink:title=" ">
<polygon fill="#bfbfbf" stroke="black" points="754,-134.5 754,-175.5 902,-175.5 902,-134.5 754,-134.5"/>
<text text-anchor="start" x="762" y="-163.5" font-family="Helvetica,sans-Serif" font-size="10.00">seerep&#45;hdf5/seerep</text>
<text text-anchor="start" x="762" y="-152.5" font-family="Helvetica,sans-Serif" font-size="10.00">&#45;hdf5&#45;pb/include/seerep</text>
<text text-anchor="middle" x="828" y="-141.5" font-family="Helvetica,sans-Serif" font-size="10.00">&#45;hdf5&#45;pb/hdf5&#45;pb&#45;general.h</text>
</a>
</g>
</g>
<!-- Node2 -->
<g id="node2" class="node">
<title>Node2</title>
<g id="a_node2"><a xlink:title=" ">
<polygon fill="none" stroke="#bfbfbf" points="0,-6 0,-25 110,-25 110,-6 0,-6"/>
<text text-anchor="middle" x="55" y="-13" font-family="Helvetica,sans-Serif" font-size="10.00">highfive/H5File.hpp</text>
</a>
</g>
</g>
<!-- Node1&#45;&gt;Node2 -->
<g id="edge1" class="edge">
<title>Node1&#45;&gt;Node2</title>
<path fill="none" stroke="midnightblue" d="M753.82,-145.64C672.02,-135.99 536.66,-118.75 421,-98 285.68,-73.72 253.16,-61.08 119,-31 113.65,-29.8 108.05,-28.54 102.48,-27.28"/>
<polygon fill="midnightblue" stroke="midnightblue" points="103.08,-23.83 92.56,-25.04 101.54,-30.66 103.08,-23.83"/>
</g>
<!-- Node3 -->
<g id="node3" class="node">
<title>Node3</title>
<g id="a_node3"><a xlink:href="hdf5-core-general_8h.html" target="_top" xlink:title=" ">
<polygon fill="none" stroke="black" points="577.5,-67.5 577.5,-97.5 702.5,-97.5 702.5,-67.5 577.5,-67.5"/>
<text text-anchor="start" x="585.5" y="-85.5" font-family="Helvetica,sans-Serif" font-size="10.00">seerep&#45;hdf5&#45;core/hdf5</text>
<text text-anchor="middle" x="640" y="-74.5" font-family="Helvetica,sans-Serif" font-size="10.00">&#45;core&#45;general.h</text>
</a>
</g>
</g>
<!-- Node1&#45;&gt;Node3 -->
<g id="edge2" class="edge">
<title>Node1&#45;&gt;Node3</title>
<path fill="none" stroke="midnightblue" d="M775.63,-134.36C747.86,-123.95 714.01,-111.25 687.08,-101.15"/>
<polygon fill="midnightblue" stroke="midnightblue" points="688.08,-97.79 677.49,-97.56 685.63,-104.35 688.08,-97.79"/>
</g>
<!-- Node6 -->
<g id="node6" class="node">
<title>Node6</title>
<g id="a_node6"><a xlink:title=" ">
<polygon fill="none" stroke="#bfbfbf" points="128.5,-6 128.5,-25 241.5,-25 241.5,-6 128.5,-6"/>
<text text-anchor="middle" x="185" y="-13" font-family="Helvetica,sans-Serif" font-size="10.00">boost/geometry.hpp</text>
</a>
</g>
</g>
<!-- Node1&#45;&gt;Node6 -->
<g id="edge14" class="edge">
<title>Node1&#45;&gt;Node6</title>
<path fill="none" stroke="midnightblue" d="M753.59,-138.41C643.48,-115.28 430.68,-70.38 250,-31 244.56,-29.82 238.87,-28.56 233.22,-27.31"/>
<polygon fill="midnightblue" stroke="midnightblue" points="233.66,-23.82 223.14,-25.07 232.14,-30.66 233.66,-23.82"/>
</g>
<!-- Node8 -->
<g id="node8" class="node">
<title>Node8</title>
<g id="a_node8"><a xlink:title=" ">
<polygon fill="none" stroke="#bfbfbf" points="764,-6 764,-25 820,-25 820,-6 764,-6"/>
<text text-anchor="middle" x="792" y="-13" font-family="Helvetica,sans-Serif" font-size="10.00">optional</text>
</a>
</g>
</g>
<!-- Node1&#45;&gt;Node8 -->
<g id="edge16" class="edge">
<title>Node1&#45;&gt;Node8</title>
<path fill="none" stroke="midnightblue" d="M813.17,-134.38C806.29,-124.11 798.8,-111 795,-98 788.93,-77.24 789.03,-52.24 790.11,-35.45"/>
<polygon fill="midnightblue" stroke="midnightblue" points="793.61,-35.54 790.94,-25.29 786.63,-34.97 793.61,-35.54"/>
</g>
<!-- Node9 -->
<g id="node9" class="node">
<title>Node9</title>
<g id="a_node9"><a xlink:title=" ">
<polygon fill="none" stroke="#bfbfbf" points="838.5,-0.5 838.5,-30.5 983.5,-30.5 983.5,-0.5 838.5,-0.5"/>
<text text-anchor="start" x="846.5" y="-18.5" font-family="Helvetica,sans-Serif" font-size="10.00">boost/log/sources/severity</text>
<text text-anchor="middle" x="911" y="-7.5" font-family="Helvetica,sans-Serif" font-size="10.00">_logger.hpp</text>
</a>
</g>
</g>
<!-- Node1&#45;&gt;Node9 -->
<g id="edge17" class="edge">
<title>Node1&#45;&gt;Node9</title>
<path fill="none" stroke="midnightblue" d="M824.31,-134.24C821.88,-115.6 821.06,-87.53 833,-67 840.71,-53.74 853.45,-43.37 866.42,-35.56"/>
<polygon fill="midnightblue" stroke="midnightblue" points="868.35,-38.5 875.38,-30.57 864.94,-32.38 868.35,-38.5"/>
</g>
<!-- Node10 -->
<g id="node10" class="node">
<title>Node10</title>
<g id="a_node10"><a xlink:title=" ">
<polygon fill="none" stroke="#bfbfbf" points="1002,-6 1002,-25 1116,-25 1116,-6 1002,-6"/>
<text text-anchor="middle" x="1059" y="-13" font-family="Helvetica,sans-Serif" font-size="10.00">boost/log/trivial.hpp</text>
</a>
</g>
</g>
<!-- Node1&#45;&gt;Node10 -->
<g id="edge18" class="edge">
<title>Node1&#45;&gt;Node10</title>
<path fill="none" stroke="midnightblue" d="M831.4,-134.44C835.88,-114.58 845.71,-84.35 866,-67 871.7,-62.13 958.05,-40.73 1013.3,-27.4"/>
<polygon fill="midnightblue" stroke="midnightblue" points="1014.32,-30.75 1023.22,-25.01 1012.68,-23.95 1014.32,-30.75"/>
</g>
<!-- Node12 -->
<g id="node12" class="node">
<title>Node12</title>
<g id="a_node12"><a xlink:title=" ">
<polygon fill="none" stroke="#bfbfbf" points="875,-67.5 875,-97.5 1033,-97.5 1033,-67.5 875,-67.5"/>
<text text-anchor="start" x="883" y="-85.5" font-family="Helvetica,sans-Serif" font-size="10.00">seerep&#45;msgs/boundingbox2d</text>
<text text-anchor="middle" x="954" y="-74.5" font-family="Helvetica,sans-Serif" font-size="10.00">_labeled.pb.h</text>
</a>
</g>
</g>
<!-- Node1&#45;&gt;Node12 -->
<g id="edge12" class="edge">
<title>Node1&#45;&gt;Node12</title>
<path fill="none" stroke="midnightblue" d="M863.1,-134.36C880.83,-124.44 902.26,-112.45 919.86,-102.6"/>
<polygon fill="midnightblue" stroke="midnightblue" points="921.66,-105.61 928.67,-97.67 918.24,-99.5 921.66,-105.61"/>
</g>
<!-- Node13 -->
<g id="node13" class="node">
<title>Node13</title>
<g id="a_node13"><a xlink:title=" ">
<polygon fill="none" stroke="#bfbfbf" points="1051,-67.5 1051,-97.5 1197,-97.5 1197,-67.5 1051,-67.5"/>
<text text-anchor="start" x="1059" y="-85.5" font-family="Helvetica,sans-Serif" font-size="10.00">seerep&#45;msgs/boundingbox</text>
<text text-anchor="middle" x="1124" y="-74.5" font-family="Helvetica,sans-Serif" font-size="10.00">_labeled.pb.h</text>
</a>
</g>
</g>
<!-- Node1&#45;&gt;Node13 -->
<g id="edge13" class="edge">
<title>Node1&#45;&gt;Node13</title>
<path fill="none" stroke="midnightblue" d="M902.31,-136.3C949.22,-125.13 1009.38,-110.8 1055.2,-99.89"/>
<polygon fill="midnightblue" stroke="midnightblue" points="1056.12,-103.27 1065.04,-97.54 1054.5,-96.46 1056.12,-103.27"/>
</g>
<!-- Node14 -->
<g id="node14" class="node">
<title>Node14</title>
<g id="a_node14"><a xlink:title=" ">
<polygon fill="none" stroke="#bfbfbf" points="1215,-73 1215,-92 1283,-92 1283,-73 1215,-73"/>
<text text-anchor="middle" x="1249" y="-80" font-family="Helvetica,sans-Serif" font-size="10.00">filesystem</text>
</a>
</g>
</g>
<!-- Node1&#45;&gt;Node14 -->
<g id="edge15" class="edge">
<title>Node1&#45;&gt;Node14</title>
<path fill="none" stroke="midnightblue" d="M902.27,-146.95C979.04,-138.75 1101.99,-123.03 1206,-98 1209.4,-97.18 1212.91,-96.21 1216.39,-95.17"/>
<polygon fill="midnightblue" stroke="midnightblue" points="1217.55,-98.47 1226.01,-92.09 1215.42,-91.8 1217.55,-98.47"/>
</g>
<!-- Node15 -->
<g id="node15" class="node">
<title>Node15</title>
<g id="a_node15"><a xlink:title=" ">
<polygon fill="none" stroke="#bfbfbf" points="1301,-73 1301,-92 1441,-92 1441,-73 1301,-73"/>
<text text-anchor="middle" x="1371" y="-80" font-family="Helvetica,sans-Serif" font-size="10.00">impl/hdf5&#45;pb&#45;general.hpp</text>
</a>
</g>
</g>
<!-- Node1&#45;&gt;Node15 -->
<g id="edge19" class="edge">
<title>Node1&#45;&gt;Node15</title>
<path fill="none" stroke="midnightblue" d="M902.12,-146.47C993.88,-136.83 1154.83,-118.85 1292,-98 1300.13,-96.76 1308.72,-95.33 1317.11,-93.85"/>
<polygon fill="midnightblue" stroke="midnightblue" points="1317.98,-97.25 1327.2,-92.03 1316.74,-90.36 1317.98,-97.25"/>
</g>
<!-- Node3&#45;&gt;Node2 -->
<g id="edge3" class="edge">
<title>Node3&#45;&gt;Node2</title>
<path fill="none" stroke="midnightblue" d="M577.12,-77.97C478.87,-71.89 283.19,-57.45 119,-31 112.58,-29.97 105.84,-28.67 99.24,-27.28"/>
<polygon fill="midnightblue" stroke="midnightblue" points="99.57,-23.77 89.06,-25.05 98.07,-30.61 99.57,-23.77"/>
</g>
<!-- Node4 -->
<g id="node4" class="node">
<title>Node4</title>
<g id="a_node4"><a xlink:title=" ">
<polygon fill="none" stroke="#bfbfbf" points="426,-6 426,-25 542,-25 542,-6 426,-6"/>
<text text-anchor="middle" x="484" y="-13" font-family="Helvetica,sans-Serif" font-size="10.00">seerep&#45;msgs/aabb.h</text>
</a>
</g>
</g>
<!-- Node3&#45;&gt;Node4 -->
<g id="edge4" class="edge">
<title>Node3&#45;&gt;Node4</title>
<path fill="none" stroke="midnightblue" d="M606.15,-67.4C578.66,-55.94 540.25,-39.94 513.89,-28.95"/>
<polygon fill="midnightblue" stroke="midnightblue" points="514.99,-25.62 504.42,-25.01 512.3,-32.08 514.99,-25.62"/>
</g>
<!-- Node5 -->
<g id="node5" class="node">
<title>Node5</title>
<g id="a_node5"><a xlink:title=" ">
<polygon fill="none" stroke="#bfbfbf" points="560.5,-0.5 560.5,-30.5 679.5,-30.5 679.5,-0.5 560.5,-0.5"/>
<text text-anchor="start" x="568.5" y="-18.5" font-family="Helvetica,sans-Serif" font-size="10.00">seerep&#45;msgs/dataset</text>
<text text-anchor="middle" x="620" y="-7.5" font-family="Helvetica,sans-Serif" font-size="10.00">&#45;indexable.h</text>
</a>
</g>
</g>
<!-- Node3&#45;&gt;Node5 -->
<g id="edge5" class="edge">
<title>Node3&#45;&gt;Node5</title>
<path fill="none" stroke="midnightblue" d="M635.66,-67.4C633.22,-59.47 630.12,-49.38 627.31,-40.27"/>
<polygon fill="midnightblue" stroke="midnightblue" points="630.62,-39.1 624.33,-30.58 623.93,-41.16 630.62,-39.1"/>
</g>
<!-- Node3&#45;&gt;Node6 -->
<g id="edge6" class="edge">
<title>Node3&#45;&gt;Node6</title>
<path fill="none" stroke="midnightblue" d="M577.25,-75.15C499.97,-66.92 364.81,-51.2 250,-31 243.72,-29.9 237.14,-28.59 230.66,-27.23"/>
<polygon fill="midnightblue" stroke="midnightblue" points="231.16,-23.76 220.64,-25.06 229.68,-30.6 231.16,-23.76"/>
</g>
<!-- Node7 -->
<g id="node7" class="node">
<title>Node7</title>
<g id="a_node7"><a xlink:title=" ">
<polygon fill="none" stroke="#bfbfbf" points="698,-6 698,-25 746,-25 746,-6 698,-6"/>
<text text-anchor="middle" x="722" y="-13" font-family="Helvetica,sans-Serif" font-size="10.00">mutex</text>
</a>
</g>
</g>
<!-- Node3&#45;&gt;Node7 -->
<g id="edge7" class="edge">
<title>Node3&#45;&gt;Node7</title>
<path fill="none" stroke="midnightblue" d="M657.79,-67.4C671.08,-56.86 689.23,-42.48 702.84,-31.69"/>
<polygon fill="midnightblue" stroke="midnightblue" points="705.37,-34.15 711.03,-25.19 701.02,-28.66 705.37,-34.15"/>
</g>
<!-- Node3&#45;&gt;Node8 -->
<g id="edge8" class="edge">
<title>Node3&#45;&gt;Node8</title>
<path fill="none" stroke="midnightblue" d="M672.98,-67.4C699.77,-55.94 737.19,-39.94 762.88,-28.95"/>
<polygon fill="midnightblue" stroke="midnightblue" points="764.29,-32.16 772.11,-25.01 761.54,-25.72 764.29,-32.16"/>
</g>
<!-- Node3&#45;&gt;Node9 -->
<g id="edge9" class="edge">
<title>Node3&#45;&gt;Node9</title>
<path fill="none" stroke="midnightblue" d="M698.47,-67.48C740.71,-57.34 797.9,-43.63 842.32,-32.97"/>
<polygon fill="midnightblue" stroke="midnightblue" points="843.26,-36.35 852.17,-30.61 841.63,-29.54 843.26,-36.35"/>
</g>
<!-- Node3&#45;&gt;Node10 -->
<g id="edge10" class="edge">
<title>Node3&#45;&gt;Node10</title>
<path fill="none" stroke="midnightblue" d="M702.72,-73.95C773.47,-65.11 891.88,-49.32 993,-31 999.29,-29.86 1005.89,-28.55 1012.38,-27.19"/>
<polygon fill="midnightblue" stroke="midnightblue" points="1013.4,-30.56 1022.44,-25.04 1011.93,-23.71 1013.4,-30.56"/>
</g>
<!-- Node11 -->
<g id="node11" class="node">
<title>Node11</title>
<g id="a_node11"><a xlink:title=" ">
<polygon fill="none" stroke="#bfbfbf" points="259.5,-6 259.5,-25 408.5,-25 408.5,-6 259.5,-6"/>
<text text-anchor="middle" x="334" y="-13" font-family="Helvetica,sans-Serif" font-size="10.00">impl/hdf5&#45;core&#45;general.hpp</text>
</a>
</g>
</g>
<!-- Node3&#45;&gt;Node11 -->
<g id="edge11" class="edge">
<title>Node3&#45;&gt;Node11</title>
<path fill="none" stroke="midnightblue" d="M577.34,-68.19C520.17,-56.05 436.8,-38.34 383.99,-27.12"/>
<polygon fill="midnightblue" stroke="midnightblue" points="384.69,-23.69 374.18,-25.03 383.23,-30.54 384.69,-23.69"/>
</g>
</g>
</svg>
