<?xml version="1.0" encoding="UTF-8" standalone="no"?>
<!DOCTYPE svg PUBLIC "-//W3C//DTD SVG 1.1//EN"
 "http://www.w3.org/Graphics/SVG/1.1/DTD/svg11.dtd">
<!-- Generated by graphviz version 2.43.0 (0)
 -->
<!-- Title: seerep_hdf5/seerep_hdf5_core/include/seerep_hdf5_core/hdf5_core_general.h Pages: 1 -->
<svg width="2450pt" height="117pt"
 viewBox="0.00 0.00 2450.00 117.00" xmlns="http://www.w3.org/2000/svg" xmlns:xlink="http://www.w3.org/1999/xlink">
<g id="graph0" class="graph" transform="scale(1 1) rotate(0) translate(4 113)">
<title>seerep_hdf5/seerep_hdf5_core/include/seerep_hdf5_core/hdf5_core_general.h</title>
<!-- Node1 -->
<g id="node1" class="node">
<title>Node1</title>
<g id="a_node1"><a xlink:title=" ">
<polygon fill="#bfbfbf" stroke="black" points="1045,-67.5 1045,-108.5 1217,-108.5 1217,-67.5 1045,-67.5"/>
<text text-anchor="start" x="1053" y="-96.5" font-family="Helvetica,sans-Serif" font-size="10.00">seerep_hdf5/seerep</text>
<text text-anchor="start" x="1053" y="-85.5" font-family="Helvetica,sans-Serif" font-size="10.00">_hdf5_core/include/seerep</text>
<text text-anchor="middle" x="1131" y="-74.5" font-family="Helvetica,sans-Serif" font-size="10.00">_hdf5_core/hdf5_core_general.h</text>
</a>
</g>
</g>
<!-- Node2 -->
<g id="node2" class="node">
<title>Node2</title>
<g id="a_node2"><a xlink:title=" ">
<polygon fill="none" stroke="#bfbfbf" points="0,-6 0,-25 110,-25 110,-6 0,-6"/>
<text text-anchor="middle" x="55" y="-13" font-family="Helvetica,sans-Serif" font-size="10.00">highfive/H5File.hpp</text>
</a>
</g>
</g>
<!-- Node1&#45;&gt;Node2 -->
<g id="edge1" class="edge">
<title>Node1&#45;&gt;Node2</title>
<path fill="none" stroke="midnightblue" d="M1044.9,-87.08C869.7,-86.18 459.47,-78.65 119,-31 112.1,-30.03 104.85,-28.7 97.8,-27.24"/>
<polygon fill="midnightblue" stroke="midnightblue" points="98.21,-23.74 87.69,-25.02 96.71,-30.58 98.21,-23.74"/>
</g>
<!-- Node3 -->
<g id="node3" class="node">
<title>Node3</title>
<g id="a_node3"><a xlink:title=" ">
<polygon fill="none" stroke="#bfbfbf" points="128.5,-6 128.5,-25 245.5,-25 245.5,-6 128.5,-6"/>
<text text-anchor="middle" x="187" y="-13" font-family="Helvetica,sans-Serif" font-size="10.00">seerep_msgs/aabb.h</text>
</a>
</g>
</g>
<!-- Node1&#45;&gt;Node3 -->
<g id="edge2" class="edge">
<title>Node1&#45;&gt;Node3</title>
<path fill="none" stroke="midnightblue" d="M1044.99,-85.76C887.39,-82.55 542.05,-71.14 254,-31 246.71,-29.98 239.02,-28.61 231.57,-27.12"/>
<polygon fill="midnightblue" stroke="midnightblue" points="232.1,-23.65 221.6,-25.02 230.66,-30.5 232.1,-23.65"/>
</g>
<!-- Node4 -->
<g id="node4" class="node">
<title>Node4</title>
<g id="a_node4"><a xlink:title=" ">
<polygon fill="none" stroke="#bfbfbf" points="263.5,-0.5 263.5,-30.5 384.5,-30.5 384.5,-0.5 263.5,-0.5"/>
<text text-anchor="start" x="271.5" y="-18.5" font-family="Helvetica,sans-Serif" font-size="10.00">seerep_msgs/dataset</text>
<text text-anchor="middle" x="324" y="-7.5" font-family="Helvetica,sans-Serif" font-size="10.00">_indexable.h</text>
</a>
</g>
</g>
<!-- Node1&#45;&gt;Node4 -->
<g id="edge3" class="edge">
<title>Node1&#45;&gt;Node4</title>
<path fill="none" stroke="midnightblue" d="M1044.94,-84.05C908.89,-78.58 635.71,-64.4 394.63,-30.96"/>
<polygon fill="midnightblue" stroke="midnightblue" points="395.01,-27.48 384.62,-29.55 394.04,-34.41 395.01,-27.48"/>
</g>
<!-- Node5 -->
<g id="node5" class="node">
<title>Node5</title>
<g id="a_node5"><a xlink:title=" ">
<polygon fill="none" stroke="#bfbfbf" points="403,-0.5 403,-30.5 529,-30.5 529,-0.5 403,-0.5"/>
<text text-anchor="start" x="411" y="-18.5" font-family="Helvetica,sans-Serif" font-size="10.00">seerep_msgs/geodetic</text>
<text text-anchor="middle" x="466" y="-7.5" font-family="Helvetica,sans-Serif" font-size="10.00">_coordinates.h</text>
</a>
</g>
</g>
<!-- Node1&#45;&gt;Node5 -->
<g id="edge4" class="edge">
<title>Node1&#45;&gt;Node5</title>
<path fill="none" stroke="midnightblue" d="M1044.73,-81.69C931.04,-74.06 724.7,-58.02 539.09,-31.06"/>
<polygon fill="midnightblue" stroke="midnightblue" points="539.55,-27.59 529.15,-29.61 538.54,-34.52 539.55,-27.59"/>
</g>
<!-- Node6 -->
<g id="node6" class="node">
<title>Node6</title>
<g id="a_node6"><a xlink:title=" ">
<polygon fill="none" stroke="#bfbfbf" points="547.5,-6 547.5,-25 664.5,-25 664.5,-6 547.5,-6"/>
<text text-anchor="middle" x="606" y="-13" font-family="Helvetica,sans-Serif" font-size="10.00">seerep_msgs/label.h</text>
</a>
</g>
</g>
<!-- Node1&#45;&gt;Node6 -->
<g id="edge5" class="edge">
<title>Node1&#45;&gt;Node6</title>
<path fill="none" stroke="midnightblue" d="M1044.76,-78.72C952.64,-69.35 802.5,-52.53 674,-31 667.28,-29.87 660.22,-28.54 653.29,-27.14"/>
<polygon fill="midnightblue" stroke="midnightblue" points="653.8,-23.67 643.3,-25.07 652.38,-30.53 653.8,-23.67"/>
</g>
<!-- Node7 -->
<g id="node7" class="node">
<title>Node7</title>
<g id="a_node7"><a xlink:title=" ">
<polygon fill="none" stroke="#bfbfbf" points="683,-6 683,-25 847,-25 847,-6 683,-6"/>
<text text-anchor="middle" x="765" y="-13" font-family="Helvetica,sans-Serif" font-size="10.00">seerep_msgs/label_category.h</text>
</a>
</g>
</g>
<!-- Node1&#45;&gt;Node7 -->
<g id="edge6" class="edge">
<title>Node1&#45;&gt;Node7</title>
<path fill="none" stroke="midnightblue" d="M1044.73,-70.38C975,-56.95 878.99,-38.46 819.52,-27"/>
<polygon fill="midnightblue" stroke="midnightblue" points="820.06,-23.54 809.57,-25.09 818.73,-30.41 820.06,-23.54"/>
</g>
<!-- Node8 -->
<g id="node8" class="node">
<title>Node8</title>
<g id="a_node8"><a xlink:title=" ">
<polygon fill="none" stroke="#bfbfbf" points="865.5,-6 865.5,-25 978.5,-25 978.5,-6 865.5,-6"/>
<text text-anchor="middle" x="922" y="-13" font-family="Helvetica,sans-Serif" font-size="10.00">boost/geometry.hpp</text>
</a>
</g>
</g>
<!-- Node1&#45;&gt;Node8 -->
<g id="edge7" class="edge">
<title>Node1&#45;&gt;Node8</title>
<path fill="none" stroke="midnightblue" d="M1073.06,-67.46C1035.78,-54.88 988.56,-38.95 956.93,-28.28"/>
<polygon fill="midnightblue" stroke="midnightblue" points="957.83,-24.89 947.24,-25.01 955.59,-31.53 957.83,-24.89"/>
</g>
<!-- Node9 -->
<g id="node9" class="node">
<title>Node9</title>
<g id="a_node9"><a xlink:title=" ">
<polygon fill="none" stroke="#bfbfbf" points="997,-6 997,-25 1045,-25 1045,-6 997,-6"/>
<text text-anchor="middle" x="1021" y="-13" font-family="Helvetica,sans-Serif" font-size="10.00">mutex</text>
</a>
</g>
</g>
<!-- Node1&#45;&gt;Node9 -->
<g id="edge8" class="edge">
<title>Node1&#45;&gt;Node9</title>
<path fill="none" stroke="midnightblue" d="M1100.36,-67.36C1082.12,-55.67 1059.41,-41.12 1042.96,-30.57"/>
<polygon fill="midnightblue" stroke="midnightblue" points="1044.84,-27.62 1034.53,-25.17 1041.06,-33.52 1044.84,-27.62"/>
</g>
<!-- Node10 -->
<g id="node10" class="node">
<title>Node10</title>
<g id="a_node10"><a xlink:title=" ">
<polygon fill="none" stroke="#bfbfbf" points="1063,-6 1063,-25 1119,-25 1119,-6 1063,-6"/>
<text text-anchor="middle" x="1091" y="-13" font-family="Helvetica,sans-Serif" font-size="10.00">optional</text>
</a>
</g>
</g>
<!-- Node1&#45;&gt;Node10 -->
<g id="edge9" class="edge">
<title>Node1&#45;&gt;Node10</title>
<path fill="none" stroke="midnightblue" d="M1119.86,-67.36C1113.9,-56.86 1106.63,-44.05 1100.88,-33.91"/>
<polygon fill="midnightblue" stroke="midnightblue" points="1103.9,-32.14 1095.92,-25.17 1097.81,-35.6 1103.9,-32.14"/>
</g>
<!-- Node11 -->
<g id="node11" class="node">
<title>Node11</title>
<g id="a_node11"><a xlink:title=" ">
<polygon fill="none" stroke="#bfbfbf" points="1137.5,-6 1137.5,-25 1206.5,-25 1206.5,-6 1137.5,-6"/>
<text text-anchor="middle" x="1172" y="-13" font-family="Helvetica,sans-Serif" font-size="10.00">type_traits</text>
</a>
</g>
</g>
<!-- Node1&#45;&gt;Node11 -->
<g id="edge10" class="edge">
<title>Node1&#45;&gt;Node11</title>
<path fill="none" stroke="midnightblue" d="M1142.42,-67.36C1148.53,-56.86 1155.98,-44.05 1161.87,-33.91"/>
<polygon fill="midnightblue" stroke="midnightblue" points="1164.95,-35.58 1166.96,-25.17 1158.9,-32.06 1164.95,-35.58"/>
</g>
<!-- Node12 -->
<g id="node12" class="node">
<title>Node12</title>
<g id="a_node12"><a xlink:title=" ">
<polygon fill="none" stroke="#bfbfbf" points="1224.5,-0.5 1224.5,-30.5 1369.5,-30.5 1369.5,-0.5 1224.5,-0.5"/>
<text text-anchor="start" x="1232.5" y="-18.5" font-family="Helvetica,sans-Serif" font-size="10.00">boost/log/sources/severity</text>
<text text-anchor="middle" x="1297" y="-7.5" font-family="Helvetica,sans-Serif" font-size="10.00">_logger.hpp</text>
</a>
</g>
</g>
<!-- Node1&#45;&gt;Node12 -->
<g id="edge11" class="edge">
<title>Node1&#45;&gt;Node12</title>
<path fill="none" stroke="midnightblue" d="M1177.24,-67.36C1201.44,-57.08 1230.86,-44.59 1254.49,-34.55"/>
<polygon fill="midnightblue" stroke="midnightblue" points="1256.06,-37.69 1263.9,-30.56 1253.32,-31.25 1256.06,-37.69"/>
</g>
<!-- Node13 -->
<g id="node13" class="node">
<title>Node13</title>
<g id="a_node13"><a xlink:title=" ">
<polygon fill="none" stroke="#bfbfbf" points="1388,-6 1388,-25 1502,-25 1502,-6 1388,-6"/>
<text text-anchor="middle" x="1445" y="-13" font-family="Helvetica,sans-Serif" font-size="10.00">boost/log/trivial.hpp</text>
</a>
</g>
</g>
<!-- Node1&#45;&gt;Node13 -->
<g id="edge12" class="edge">
<title>Node1&#45;&gt;Node13</title>
<path fill="none" stroke="midnightblue" d="M1217.22,-67.64C1275.06,-54.65 1349.13,-38.03 1396.82,-27.32"/>
<polygon fill="midnightblue" stroke="midnightblue" points="1397.89,-30.67 1406.88,-25.06 1396.35,-23.84 1397.89,-30.67"/>
</g>
<!-- Node14 -->
<g id="node14" class="node">
<title>Node14</title>
<g id="a_node14"><a xlink:title=" ">
<polygon fill="none" stroke="#bfbfbf" points="1520.5,-6 1520.5,-25 1663.5,-25 1663.5,-6 1520.5,-6"/>
<text text-anchor="middle" x="1592" y="-13" font-family="Helvetica,sans-Serif" font-size="10.00">boost/functional/hash.hpp</text>
</a>
</g>
</g>
<!-- Node1&#45;&gt;Node14 -->
<g id="edge13" class="edge">
<title>Node1&#45;&gt;Node14</title>
<path fill="none" stroke="midnightblue" d="M1217.14,-75.08C1294.24,-64.22 1410.3,-47.43 1511,-31 1519.02,-29.69 1527.47,-28.25 1535.77,-26.8"/>
<polygon fill="midnightblue" stroke="midnightblue" points="1536.54,-30.21 1545.78,-25.03 1535.32,-23.32 1536.54,-30.21"/>
</g>
<!-- Node15 -->
<g id="node15" class="node">
<title>Node15</title>
<g id="a_node15"><a xlink:title=" ">
<polygon fill="none" stroke="#bfbfbf" points="1681.5,-6 1681.5,-25 1806.5,-25 1806.5,-6 1681.5,-6"/>
<text text-anchor="middle" x="1744" y="-13" font-family="Helvetica,sans-Serif" font-size="10.00">boost/lexical_cast.hpp</text>
</a>
</g>
</g>
<!-- Node1&#45;&gt;Node15 -->
<g id="edge14" class="edge">
<title>Node1&#45;&gt;Node15</title>
<path fill="none" stroke="midnightblue" d="M1217.23,-80.73C1324.44,-72.32 1512.87,-55.56 1673,-31 1680.44,-29.86 1688.27,-28.46 1695.92,-26.99"/>
<polygon fill="midnightblue" stroke="midnightblue" points="1696.68,-30.4 1705.8,-25.02 1695.31,-23.54 1696.68,-30.4"/>
</g>
<!-- Node16 -->
<g id="node16" class="node">
<title>Node16</title>
<g id="a_node16"><a xlink:title=" ">
<polygon fill="none" stroke="#bfbfbf" points="1824.5,-6 1824.5,-25 1937.5,-25 1937.5,-6 1824.5,-6"/>
<text text-anchor="middle" x="1881" y="-13" font-family="Helvetica,sans-Serif" font-size="10.00">boost/uuid/uuid.hpp</text>
</a>
</g>
</g>
<!-- Node1&#45;&gt;Node16 -->
<g id="edge15" class="edge">
<title>Node1&#45;&gt;Node16</title>
<path fill="none" stroke="midnightblue" d="M1217.14,-83.77C1347.41,-78.03 1602.03,-63.45 1816,-31 1822.76,-29.97 1829.86,-28.65 1836.79,-27.22"/>
<polygon fill="midnightblue" stroke="midnightblue" points="1837.72,-30.6 1846.76,-25.07 1836.25,-23.76 1837.72,-30.6"/>
</g>
<!-- Node17 -->
<g id="node17" class="node">
<title>Node17</title>
<g id="a_node17"><a xlink:title=" ">
<polygon fill="none" stroke="#bfbfbf" points="1956,-6 1956,-25 2126,-25 2126,-6 1956,-6"/>
<text text-anchor="middle" x="2041" y="-13" font-family="Helvetica,sans-Serif" font-size="10.00">boost/uuid/uuid_generators.hpp</text>
</a>
</g>
</g>
<!-- Node1&#45;&gt;Node17 -->
<g id="edge16" class="edge">
<title>Node1&#45;&gt;Node17</title>
<path fill="none" stroke="midnightblue" d="M1217.27,-83.48C1366.39,-76.86 1681.85,-60.49 1947,-31 1957.93,-29.78 1969.54,-28.22 1980.73,-26.57"/>
<polygon fill="midnightblue" stroke="midnightblue" points="1981.49,-29.99 1990.86,-25.04 1980.45,-23.07 1981.49,-29.99"/>
</g>
<!-- Node18 -->
<g id="node18" class="node">
<title>Node18</title>
<g id="a_node18"><a xlink:title=" ">
<polygon fill="none" stroke="#bfbfbf" points="2144.5,-6 2144.5,-25 2271.5,-25 2271.5,-6 2144.5,-6"/>
<text text-anchor="middle" x="2208" y="-13" font-family="Helvetica,sans-Serif" font-size="10.00">boost/uuid/uuid_io.hpp</text>
</a>
</g>
</g>
<!-- Node1&#45;&gt;Node18 -->
<g id="edge17" class="edge">
<title>Node1&#45;&gt;Node18</title>
<path fill="none" stroke="midnightblue" d="M1217.32,-86.26C1391.51,-83.86 1797.27,-73.75 2135,-31 2143.2,-29.96 2151.86,-28.54 2160.24,-26.98"/>
<polygon fill="midnightblue" stroke="midnightblue" points="2161.12,-30.38 2170.28,-25.04 2159.79,-23.51 2161.12,-30.38"/>
</g>
<!-- Node19 -->
<g id="node19" class="node">
<title>Node19</title>
<g id="a_node19"><a xlink:title=" ">
<polygon fill="none" stroke="#bfbfbf" points="2290,-6 2290,-25 2442,-25 2442,-6 2290,-6"/>
<text text-anchor="middle" x="2366" y="-13" font-family="Helvetica,sans-Serif" font-size="10.00">impl/hdf5_core_general.hpp</text>
</a>
</g>
</g>
<!-- Node1&#45;&gt;Node19 -->
<g id="edge18" class="edge">
<title>Node1&#45;&gt;Node19</title>
<path fill="none" stroke="midnightblue" d="M1217.11,-86.34C1408.81,-84.1 1885.08,-74.25 2281,-31 2291.05,-29.9 2301.7,-28.38 2311.95,-26.72"/>
<polygon fill="midnightblue" stroke="midnightblue" points="2312.74,-30.14 2322.02,-25.04 2311.58,-23.24 2312.74,-30.14"/>
</g>
</g>
</svg>
