<?xml version="1.0" encoding="UTF-8" standalone="no"?>
<!DOCTYPE svg PUBLIC "-//W3C//DTD SVG 1.1//EN"
 "http://www.w3.org/Graphics/SVG/1.1/DTD/svg11.dtd">
<!-- Generated by graphviz version 2.43.0 (0)
 -->
<!-- Title: seerep_hdf5/seerep_hdf5_core/src/hdf5_core_cameraintrinsics.cpp Pages: 1 -->
<svg width="2451pt" height="318pt"
 viewBox="0.00 0.00 2450.50 318.00" xmlns="http://www.w3.org/2000/svg" xmlns:xlink="http://www.w3.org/1999/xlink">
<g id="graph0" class="graph" transform="scale(1 1) rotate(0) translate(4 314)">
<title>seerep_hdf5/seerep_hdf5_core/src/hdf5_core_cameraintrinsics.cpp</title>
<!-- Node1 -->
<g id="node1" class="node">
<title>Node1</title>
<g id="a_node1"><a xlink:title=" ">
<polygon fill="#bfbfbf" stroke="black" points="1338.5,-268.5 1338.5,-309.5 1487.5,-309.5 1487.5,-268.5 1338.5,-268.5"/>
<text text-anchor="start" x="1346.5" y="-297.5" font-family="Helvetica,sans-Serif" font-size="10.00">seerep_hdf5/seerep</text>
<text text-anchor="start" x="1346.5" y="-286.5" font-family="Helvetica,sans-Serif" font-size="10.00">_hdf5_core/src/hdf5</text>
<text text-anchor="middle" x="1413" y="-275.5" font-family="Helvetica,sans-Serif" font-size="10.00">_core_cameraintrinsics.cpp</text>
</a>
</g>
</g>
<!-- Node2 -->
<g id="node2" class="node">
<title>Node2</title>
<g id="a_node2"><a xlink:href="hdf5__core__cameraintrinsics_8h.html" target="_top" xlink:title=" ">
<polygon fill="none" stroke="black" points="1344,-201.5 1344,-231.5 1482,-231.5 1482,-201.5 1344,-201.5"/>
<text text-anchor="start" x="1352" y="-219.5" font-family="Helvetica,sans-Serif" font-size="10.00">seerep_hdf5_core/hdf5</text>
<text text-anchor="middle" x="1413" y="-208.5" font-family="Helvetica,sans-Serif" font-size="10.00">_core_cameraintrinsics.h</text>
</a>
</g>
</g>
<!-- Node1&#45;&gt;Node2 -->
<g id="edge1" class="edge">
<title>Node1&#45;&gt;Node2</title>
<path fill="none" stroke="midnightblue" d="M1413,-268.36C1413,-260.23 1413,-250.7 1413,-242.11"/>
<polygon fill="midnightblue" stroke="midnightblue" points="1416.5,-241.89 1413,-231.89 1409.5,-241.89 1416.5,-241.89"/>
</g>
<!-- Node3 -->
<g id="node3" class="node">
<title>Node3</title>
<g id="a_node3"><a xlink:title=" ">
<polygon fill="none" stroke="#bfbfbf" points="861,-140 861,-159 993,-159 993,-140 861,-140"/>
<text text-anchor="middle" x="927" y="-147" font-family="Helvetica,sans-Serif" font-size="10.00">highfive/H5DataSet.hpp</text>
</a>
</g>
</g>
<!-- Node2&#45;&gt;Node3 -->
<g id="edge2" class="edge">
<title>Node2&#45;&gt;Node3</title>
<path fill="none" stroke="midnightblue" d="M1343.88,-208.09C1262.95,-199.13 1124.96,-183.01 1007,-165 998.87,-163.76 990.29,-162.33 981.89,-160.86"/>
<polygon fill="midnightblue" stroke="midnightblue" points="982.23,-157.37 971.78,-159.07 981.01,-164.26 982.23,-157.37"/>
</g>
<!-- Node4 -->
<g id="node4" class="node">
<title>Node4</title>
<g id="a_node4"><a xlink:title=" ">
<polygon fill="none" stroke="#bfbfbf" points="0,-67.5 0,-86.5 110,-86.5 110,-67.5 0,-67.5"/>
<text text-anchor="middle" x="55" y="-74.5" font-family="Helvetica,sans-Serif" font-size="10.00">highfive/H5File.hpp</text>
</a>
</g>
</g>
<!-- Node2&#45;&gt;Node4 -->
<g id="edge3" class="edge">
<title>Node2&#45;&gt;Node4</title>
<path fill="none" stroke="midnightblue" d="M1343.91,-210.65C1251.5,-203.39 1093.13,-188.06 1040,-165 1020.01,-156.32 1022.38,-141.73 1002,-134 818.38,-64.36 312.49,-131.58 119,-98 108.33,-96.15 96.97,-93 86.82,-89.75"/>
<polygon fill="midnightblue" stroke="midnightblue" points="87.75,-86.37 77.16,-86.5 85.52,-93 87.75,-86.37"/>
</g>
<!-- Node5 -->
<g id="node5" class="node">
<title>Node5</title>
<g id="a_node5"><a xlink:href="hdf5__core__general_8h.html" target="_top" xlink:title=" ">
<polygon fill="none" stroke="black" points="1049,-134.5 1049,-164.5 1177,-164.5 1177,-134.5 1049,-134.5"/>
<text text-anchor="start" x="1057" y="-152.5" font-family="Helvetica,sans-Serif" font-size="10.00">seerep_hdf5_core/hdf5</text>
<text text-anchor="middle" x="1113" y="-141.5" font-family="Helvetica,sans-Serif" font-size="10.00">_core_general.h</text>
</a>
</g>
</g>
<!-- Node2&#45;&gt;Node5 -->
<g id="edge4" class="edge">
<title>Node2&#45;&gt;Node5</title>
<path fill="none" stroke="midnightblue" d="M1348.27,-201.48C1300.9,-191.21 1236.52,-177.26 1187.09,-166.55"/>
<polygon fill="midnightblue" stroke="midnightblue" points="1187.61,-163.08 1177.09,-164.39 1186.13,-169.93 1187.61,-163.08"/>
</g>
<!-- Node22 -->
<g id="node22" class="node">
<title>Node22</title>
<g id="a_node22"><a xlink:href="header_8h.html" target="_top" xlink:title=" ">
<polygon fill="none" stroke="black" points="1683.5,-140 1683.5,-159 1742.5,-159 1742.5,-140 1683.5,-140"/>
<text text-anchor="middle" x="1713" y="-147" font-family="Helvetica,sans-Serif" font-size="10.00">header.h</text>
</a>
</g>
</g>
<!-- Node2&#45;&gt;Node22 -->
<g id="edge22" class="edge">
<title>Node2&#45;&gt;Node22</title>
<path fill="none" stroke="midnightblue" d="M1477.73,-201.48C1537.23,-188.58 1623.53,-169.88 1673.39,-159.08"/>
<polygon fill="midnightblue" stroke="midnightblue" points="1674.42,-162.44 1683.45,-156.9 1672.94,-155.6 1674.42,-162.44"/>
</g>
<!-- Node26 -->
<g id="node26" class="node">
<title>Node26</title>
<g id="a_node26"><a xlink:href="region__of__interest_8h.html" target="_top" xlink:title=" ">
<polygon fill="none" stroke="black" points="1761,-140 1761,-159 1875,-159 1875,-140 1761,-140"/>
<text text-anchor="middle" x="1818" y="-147" font-family="Helvetica,sans-Serif" font-size="10.00">region_of_interest.h</text>
</a>
</g>
</g>
<!-- Node2&#45;&gt;Node26 -->
<g id="edge27" class="edge">
<title>Node2&#45;&gt;Node26</title>
<path fill="none" stroke="midnightblue" d="M1482.05,-206.62C1550.72,-197.46 1658.95,-182.13 1752,-165 1758.28,-163.84 1764.88,-162.52 1771.38,-161.16"/>
<polygon fill="midnightblue" stroke="midnightblue" points="1772.39,-164.52 1781.43,-159 1770.92,-157.68 1772.39,-164.52"/>
</g>
<!-- Node27 -->
<g id="node27" class="node">
<title>Node27</title>
<g id="a_node27"><a xlink:title=" ">
<polygon fill="none" stroke="#bfbfbf" points="1893.5,-134.5 1893.5,-164.5 2014.5,-164.5 2014.5,-134.5 1893.5,-134.5"/>
<text text-anchor="start" x="1901.5" y="-152.5" font-family="Helvetica,sans-Serif" font-size="10.00">seerep_msgs/camera</text>
<text text-anchor="middle" x="1954" y="-141.5" font-family="Helvetica,sans-Serif" font-size="10.00">_intrinsics.h</text>
</a>
</g>
</g>
<!-- Node2&#45;&gt;Node27 -->
<g id="edge28" class="edge">
<title>Node2&#45;&gt;Node27</title>
<path fill="none" stroke="midnightblue" d="M1482.31,-210.2C1572.34,-202.83 1734.53,-187.95 1883.14,-165.03"/>
<polygon fill="midnightblue" stroke="midnightblue" points="1884.02,-168.44 1893.36,-163.44 1882.94,-161.52 1884.02,-168.44"/>
</g>
<!-- Node5&#45;&gt;Node4 -->
<g id="edge5" class="edge">
<title>Node5&#45;&gt;Node4</title>
<path fill="none" stroke="midnightblue" d="M1048.84,-135.81C1044.17,-135.12 1039.52,-134.51 1035,-134 630.11,-88.65 520.48,-167.36 119,-98 108.33,-96.16 96.97,-93.01 86.82,-89.76"/>
<polygon fill="midnightblue" stroke="midnightblue" points="87.75,-86.38 77.15,-86.51 85.52,-93.01 87.75,-86.38"/>
</g>
<!-- Node6 -->
<g id="node6" class="node">
<title>Node6</title>
<g id="a_node6"><a xlink:title=" ">
<polygon fill="none" stroke="#bfbfbf" points="128.5,-67.5 128.5,-86.5 245.5,-86.5 245.5,-67.5 128.5,-67.5"/>
<text text-anchor="middle" x="187" y="-74.5" font-family="Helvetica,sans-Serif" font-size="10.00">seerep_msgs/aabb.h</text>
</a>
</g>
</g>
<!-- Node5&#45;&gt;Node6 -->
<g id="edge6" class="edge">
<title>Node5&#45;&gt;Node6</title>
<path fill="none" stroke="midnightblue" d="M1048.83,-135.85C1044.16,-135.15 1039.52,-134.52 1035,-134 690.25,-94.19 597.26,-155.37 255,-98 243.57,-96.08 231.35,-92.87 220.46,-89.58"/>
<polygon fill="midnightblue" stroke="midnightblue" points="221.49,-86.23 210.9,-86.56 219.39,-92.91 221.49,-86.23"/>
</g>
<!-- Node7 -->
<g id="node7" class="node">
<title>Node7</title>
<g id="a_node7"><a xlink:title=" ">
<polygon fill="none" stroke="#bfbfbf" points="263.5,-62 263.5,-92 384.5,-92 384.5,-62 263.5,-62"/>
<text text-anchor="start" x="271.5" y="-80" font-family="Helvetica,sans-Serif" font-size="10.00">seerep_msgs/dataset</text>
<text text-anchor="middle" x="324" y="-69" font-family="Helvetica,sans-Serif" font-size="10.00">_indexable.h</text>
</a>
</g>
</g>
<!-- Node5&#45;&gt;Node7 -->
<g id="edge7" class="edge">
<title>Node5&#45;&gt;Node7</title>
<path fill="none" stroke="midnightblue" d="M1048.83,-135.9C1044.16,-135.19 1039.51,-134.54 1035,-134 751.71,-99.86 675.36,-145.49 394,-98 388.63,-97.09 383.08,-95.92 377.56,-94.61"/>
<polygon fill="midnightblue" stroke="midnightblue" points="378.27,-91.18 367.72,-92.1 376.55,-97.96 378.27,-91.18"/>
</g>
<!-- Node8 -->
<g id="node8" class="node">
<title>Node8</title>
<g id="a_node8"><a xlink:title=" ">
<polygon fill="none" stroke="#bfbfbf" points="403,-62 403,-92 529,-92 529,-62 403,-62"/>
<text text-anchor="start" x="411" y="-80" font-family="Helvetica,sans-Serif" font-size="10.00">seerep_msgs/geodetic</text>
<text text-anchor="middle" x="466" y="-69" font-family="Helvetica,sans-Serif" font-size="10.00">_coordinates.h</text>
</a>
</g>
</g>
<!-- Node5&#45;&gt;Node8 -->
<g id="edge8" class="edge">
<title>Node5&#45;&gt;Node8</title>
<path fill="none" stroke="midnightblue" d="M1048.82,-135.98C1044.15,-135.25 1039.51,-134.58 1035,-134 815.35,-105.72 756.21,-135.82 538,-98 532.57,-97.06 526.95,-95.88 521.37,-94.56"/>
<polygon fill="midnightblue" stroke="midnightblue" points="521.94,-91.1 511.4,-92.08 520.25,-97.89 521.94,-91.1"/>
</g>
<!-- Node9 -->
<g id="node9" class="node">
<title>Node9</title>
<g id="a_node9"><a xlink:title=" ">
<polygon fill="none" stroke="#bfbfbf" points="547,-56.5 547,-97.5 663,-97.5 663,-56.5 547,-56.5"/>
<text text-anchor="start" x="555" y="-85.5" font-family="Helvetica,sans-Serif" font-size="10.00">seerep_msgs/labels</text>
<text text-anchor="start" x="555" y="-74.5" font-family="Helvetica,sans-Serif" font-size="10.00">_with_instance_with</text>
<text text-anchor="middle" x="605" y="-63.5" font-family="Helvetica,sans-Serif" font-size="10.00">_category.h</text>
</a>
</g>
</g>
<!-- Node5&#45;&gt;Node9 -->
<g id="edge9" class="edge">
<title>Node5&#45;&gt;Node9</title>
<path fill="none" stroke="midnightblue" d="M1048.8,-136.12C1044.14,-135.36 1039.5,-134.64 1035,-134 874.93,-111.2 831.69,-128.95 673,-98 672.9,-97.98 672.8,-97.96 672.69,-97.94"/>
<polygon fill="midnightblue" stroke="midnightblue" points="673.58,-94.55 663.06,-95.85 672.09,-101.39 673.58,-94.55"/>
</g>
<!-- Node10 -->
<g id="node10" class="node">
<title>Node10</title>
<g id="a_node10"><a xlink:title=" ">
<polygon fill="none" stroke="#bfbfbf" points="681.5,-67.5 681.5,-86.5 794.5,-86.5 794.5,-67.5 681.5,-67.5"/>
<text text-anchor="middle" x="738" y="-74.5" font-family="Helvetica,sans-Serif" font-size="10.00">boost/geometry.hpp</text>
</a>
</g>
</g>
<!-- Node5&#45;&gt;Node10 -->
<g id="edge10" class="edge">
<title>Node5&#45;&gt;Node10</title>
<path fill="none" stroke="midnightblue" d="M1048.75,-136.4C1044.1,-135.57 1039.48,-134.77 1035,-134 932.58,-116.5 905.3,-121.12 804,-98 793.76,-95.66 782.78,-92.58 772.78,-89.53"/>
<polygon fill="midnightblue" stroke="midnightblue" points="773.75,-86.17 763.16,-86.53 771.67,-92.85 773.75,-86.17"/>
</g>
<!-- Node11 -->
<g id="node11" class="node">
<title>Node11</title>
<g id="a_node11"><a xlink:title=" ">
<polygon fill="none" stroke="#bfbfbf" points="813,-67.5 813,-86.5 861,-86.5 861,-67.5 813,-67.5"/>
<text text-anchor="middle" x="837" y="-74.5" font-family="Helvetica,sans-Serif" font-size="10.00">mutex</text>
</a>
</g>
</g>
<!-- Node5&#45;&gt;Node11 -->
<g id="edge11" class="edge">
<title>Node5&#45;&gt;Node11</title>
<path fill="none" stroke="midnightblue" d="M1048.98,-136.36C982.71,-123.61 886.54,-104.51 870,-98 865.86,-96.37 861.65,-94.24 857.68,-91.98"/>
<polygon fill="midnightblue" stroke="midnightblue" points="859.37,-88.91 849.02,-86.65 855.7,-94.87 859.37,-88.91"/>
</g>
<!-- Node12 -->
<g id="node12" class="node">
<title>Node12</title>
<g id="a_node12"><a xlink:title=" ">
<polygon fill="none" stroke="#bfbfbf" points="879,-67.5 879,-86.5 935,-86.5 935,-67.5 879,-67.5"/>
<text text-anchor="middle" x="907" y="-74.5" font-family="Helvetica,sans-Serif" font-size="10.00">optional</text>
</a>
</g>
</g>
<!-- Node5&#45;&gt;Node12 -->
<g id="edge12" class="edge">
<title>Node5&#45;&gt;Node12</title>
<path fill="none" stroke="midnightblue" d="M1056.45,-134.42C1023.41,-125.48 981.22,-112.82 945,-98 940.33,-96.09 935.47,-93.79 930.85,-91.44"/>
<polygon fill="midnightblue" stroke="midnightblue" points="932.32,-88.26 921.84,-86.66 929.04,-94.44 932.32,-88.26"/>
</g>
<!-- Node13 -->
<g id="node13" class="node">
<title>Node13</title>
<g id="a_node13"><a xlink:title=" ">
<polygon fill="none" stroke="#bfbfbf" points="953.5,-67.5 953.5,-86.5 1022.5,-86.5 1022.5,-67.5 953.5,-67.5"/>
<text text-anchor="middle" x="988" y="-74.5" font-family="Helvetica,sans-Serif" font-size="10.00">type_traits</text>
</a>
</g>
</g>
<!-- Node5&#45;&gt;Node13 -->
<g id="edge13" class="edge">
<title>Node5&#45;&gt;Node13</title>
<path fill="none" stroke="midnightblue" d="M1088,-134.4C1065.91,-121.94 1033.89,-103.88 1012.08,-91.58"/>
<polygon fill="midnightblue" stroke="midnightblue" points="1013.56,-88.4 1003.13,-86.53 1010.12,-94.49 1013.56,-88.4"/>
</g>
<!-- Node14 -->
<g id="node14" class="node">
<title>Node14</title>
<g id="a_node14"><a xlink:title=" ">
<polygon fill="none" stroke="#bfbfbf" points="1040.5,-62 1040.5,-92 1185.5,-92 1185.5,-62 1040.5,-62"/>
<text text-anchor="start" x="1048.5" y="-80" font-family="Helvetica,sans-Serif" font-size="10.00">boost/log/sources/severity</text>
<text text-anchor="middle" x="1113" y="-69" font-family="Helvetica,sans-Serif" font-size="10.00">_logger.hpp</text>
</a>
</g>
</g>
<!-- Node5&#45;&gt;Node14 -->
<g id="edge14" class="edge">
<title>Node5&#45;&gt;Node14</title>
<path fill="none" stroke="midnightblue" d="M1113,-134.23C1113,-125.16 1113,-113.16 1113,-102.58"/>
<polygon fill="midnightblue" stroke="midnightblue" points="1116.5,-102.25 1113,-92.25 1109.5,-102.25 1116.5,-102.25"/>
</g>
<!-- Node15 -->
<g id="node15" class="node">
<title>Node15</title>
<g id="a_node15"><a xlink:title=" ">
<polygon fill="none" stroke="#bfbfbf" points="1204,-67.5 1204,-86.5 1318,-86.5 1318,-67.5 1204,-67.5"/>
<text text-anchor="middle" x="1261" y="-74.5" font-family="Helvetica,sans-Serif" font-size="10.00">boost/log/trivial.hpp</text>
</a>
</g>
</g>
<!-- Node5&#45;&gt;Node15 -->
<g id="edge15" class="edge">
<title>Node5&#45;&gt;Node15</title>
<path fill="none" stroke="midnightblue" d="M1142.59,-134.4C1169.22,-121.72 1208.03,-103.23 1233.87,-90.92"/>
<polygon fill="midnightblue" stroke="midnightblue" points="1235.56,-93.99 1243.09,-86.53 1232.55,-87.67 1235.56,-93.99"/>
</g>
<!-- Node16 -->
<g id="node16" class="node">
<title>Node16</title>
<g id="a_node16"><a xlink:title=" ">
<polygon fill="none" stroke="#bfbfbf" points="1336.5,-67.5 1336.5,-86.5 1479.5,-86.5 1479.5,-67.5 1336.5,-67.5"/>
<text text-anchor="middle" x="1408" y="-74.5" font-family="Helvetica,sans-Serif" font-size="10.00">boost/functional/hash.hpp</text>
</a>
</g>
</g>
<!-- Node5&#45;&gt;Node16 -->
<g id="edge16" class="edge">
<title>Node5&#45;&gt;Node16</title>
<path fill="none" stroke="midnightblue" d="M1173.46,-134.41C1216.34,-124.37 1275.24,-110.5 1327,-98 1338.99,-95.11 1351.97,-91.92 1363.95,-88.97"/>
<polygon fill="midnightblue" stroke="midnightblue" points="1364.86,-92.34 1373.73,-86.54 1363.18,-85.55 1364.86,-92.34"/>
</g>
<!-- Node17 -->
<g id="node17" class="node">
<title>Node17</title>
<g id="a_node17"><a xlink:title=" ">
<polygon fill="none" stroke="#bfbfbf" points="1497.5,-67.5 1497.5,-86.5 1622.5,-86.5 1622.5,-67.5 1497.5,-67.5"/>
<text text-anchor="middle" x="1560" y="-74.5" font-family="Helvetica,sans-Serif" font-size="10.00">boost/lexical_cast.hpp</text>
</a>
</g>
</g>
<!-- Node5&#45;&gt;Node17 -->
<g id="edge17" class="edge">
<title>Node5&#45;&gt;Node17</title>
<path fill="none" stroke="midnightblue" d="M1177.33,-142.65C1252.58,-135.16 1380.64,-120.42 1489,-98 1500.33,-95.66 1512.51,-92.48 1523.52,-89.34"/>
<polygon fill="midnightblue" stroke="midnightblue" points="1524.63,-92.66 1533.25,-86.5 1522.67,-85.94 1524.63,-92.66"/>
</g>
<!-- Node18 -->
<g id="node18" class="node">
<title>Node18</title>
<g id="a_node18"><a xlink:title=" ">
<polygon fill="none" stroke="#bfbfbf" points="2145.5,-67.5 2145.5,-86.5 2258.5,-86.5 2258.5,-67.5 2145.5,-67.5"/>
<text text-anchor="middle" x="2202" y="-74.5" font-family="Helvetica,sans-Serif" font-size="10.00">boost/uuid/uuid.hpp</text>
</a>
</g>
</g>
<!-- Node5&#45;&gt;Node18 -->
<g id="edge18" class="edge">
<title>Node5&#45;&gt;Node18</title>
<path fill="none" stroke="midnightblue" d="M1177.16,-147.39C1371.28,-143.69 1950.39,-130.2 2136,-98 2147,-96.09 2158.73,-92.92 2169.22,-89.66"/>
<polygon fill="midnightblue" stroke="midnightblue" points="2170.39,-92.96 2178.82,-86.55 2168.22,-86.3 2170.39,-92.96"/>
</g>
<!-- Node19 -->
<g id="node19" class="node">
<title>Node19</title>
<g id="a_node19"><a xlink:title=" ">
<polygon fill="none" stroke="#bfbfbf" points="1641,-67.5 1641,-86.5 1811,-86.5 1811,-67.5 1641,-67.5"/>
<text text-anchor="middle" x="1726" y="-74.5" font-family="Helvetica,sans-Serif" font-size="10.00">boost/uuid/uuid_generators.hpp</text>
</a>
</g>
</g>
<!-- Node5&#45;&gt;Node19 -->
<g id="edge19" class="edge">
<title>Node5&#45;&gt;Node19</title>
<path fill="none" stroke="midnightblue" d="M1177.21,-144.59C1275.54,-138.07 1469.17,-123.16 1632,-98 1647.96,-95.53 1665.29,-92.07 1680.67,-88.72"/>
<polygon fill="midnightblue" stroke="midnightblue" points="1681.46,-92.13 1690.47,-86.55 1679.94,-85.3 1681.46,-92.13"/>
</g>
<!-- Node20 -->
<g id="node20" class="node">
<title>Node20</title>
<g id="a_node20"><a xlink:title=" ">
<polygon fill="none" stroke="#bfbfbf" points="1829.5,-67.5 1829.5,-86.5 1956.5,-86.5 1956.5,-67.5 1829.5,-67.5"/>
<text text-anchor="middle" x="1893" y="-74.5" font-family="Helvetica,sans-Serif" font-size="10.00">boost/uuid/uuid_io.hpp</text>
</a>
</g>
</g>
<!-- Node5&#45;&gt;Node20 -->
<g id="edge20" class="edge">
<title>Node5&#45;&gt;Node20</title>
<path fill="none" stroke="midnightblue" d="M1177.36,-148.11C1302.21,-146.43 1585.6,-138.08 1820,-98 1832.12,-95.93 1845.14,-92.7 1856.77,-89.43"/>
<polygon fill="midnightblue" stroke="midnightblue" points="1857.96,-92.73 1866.58,-86.58 1856,-86.01 1857.96,-92.73"/>
</g>
<!-- Node21 -->
<g id="node21" class="node">
<title>Node21</title>
<g id="a_node21"><a xlink:title=" ">
<polygon fill="none" stroke="#bfbfbf" points="1975,-67.5 1975,-86.5 2127,-86.5 2127,-67.5 1975,-67.5"/>
<text text-anchor="middle" x="2051" y="-74.5" font-family="Helvetica,sans-Serif" font-size="10.00">impl/hdf5_core_general.hpp</text>
</a>
</g>
</g>
<!-- Node5&#45;&gt;Node21 -->
<g id="edge21" class="edge">
<title>Node5&#45;&gt;Node21</title>
<path fill="none" stroke="midnightblue" d="M1177.05,-148.46C1319.59,-147.54 1673.52,-140.74 1966,-98 1980.73,-95.85 1996.66,-92.41 2010.71,-88.98"/>
<polygon fill="midnightblue" stroke="midnightblue" points="2011.71,-92.33 2020.56,-86.5 2010.01,-85.55 2011.71,-92.33"/>
</g>
<!-- Node22&#45;&gt;Node18 -->
<g id="edge23" class="edge">
<title>Node22&#45;&gt;Node18</title>
<path fill="none" stroke="midnightblue" d="M1732.93,-139.94C1738.96,-137.67 1745.66,-135.45 1752,-134 1919.11,-95.8 1967.8,-131.02 2136,-98 2146.57,-95.92 2157.87,-92.84 2168.07,-89.7"/>
<polygon fill="midnightblue" stroke="midnightblue" points="2169.38,-92.96 2177.85,-86.59 2167.26,-86.29 2169.38,-92.96"/>
</g>
<!-- Node23 -->
<g id="node23" class="node">
<title>Node23</title>
<g id="a_node23"><a xlink:href="datatype_8h.html" target="_top" xlink:title=" ">
<polygon fill="none" stroke="black" points="2276.5,-67.5 2276.5,-86.5 2345.5,-86.5 2345.5,-67.5 2276.5,-67.5"/>
<text text-anchor="middle" x="2311" y="-74.5" font-family="Helvetica,sans-Serif" font-size="10.00">datatype.h</text>
</a>
</g>
</g>
<!-- Node22&#45;&gt;Node23 -->
<g id="edge24" class="edge">
<title>Node22&#45;&gt;Node23</title>
<path fill="none" stroke="midnightblue" d="M1732.91,-139.85C1738.94,-137.57 1745.65,-135.37 1752,-134 1976.7,-85.45 2045.4,-155.43 2268,-98 2274.23,-96.39 2280.66,-93.9 2286.6,-91.22"/>
<polygon fill="midnightblue" stroke="midnightblue" points="2288.53,-94.17 2295.98,-86.64 2285.46,-87.88 2288.53,-94.17"/>
</g>
<!-- Node24 -->
<g id="node24" class="node">
<title>Node24</title>
<g id="a_node24"><a xlink:href="timestamp_8h.html" target="_top" xlink:title=" ">
<polygon fill="none" stroke="black" points="2363.5,-67.5 2363.5,-86.5 2442.5,-86.5 2442.5,-67.5 2363.5,-67.5"/>
<text text-anchor="middle" x="2403" y="-74.5" font-family="Helvetica,sans-Serif" font-size="10.00">timestamp.h</text>
</a>
</g>
</g>
<!-- Node22&#45;&gt;Node24 -->
<g id="edge25" class="edge">
<title>Node22&#45;&gt;Node24</title>
<path fill="none" stroke="midnightblue" d="M1732.5,-139.96C1738.63,-137.63 1745.5,-135.37 1752,-134 2014.7,-78.61 2093.42,-158.48 2355,-98 2362.21,-96.33 2369.72,-93.68 2376.61,-90.85"/>
<polygon fill="midnightblue" stroke="midnightblue" points="2378.39,-93.89 2386.13,-86.66 2375.57,-87.48 2378.39,-93.89"/>
</g>
<!-- Node25 -->
<g id="node25" class="node">
<title>Node25</title>
<g id="a_node25"><a xlink:title=" ">
<polygon fill="none" stroke="#bfbfbf" points="2370.5,-0.5 2370.5,-19.5 2435.5,-19.5 2435.5,-0.5 2370.5,-0.5"/>
<text text-anchor="middle" x="2403" y="-7.5" font-family="Helvetica,sans-Serif" font-size="10.00">functional</text>
</a>
</g>
</g>
<!-- Node24&#45;&gt;Node25 -->
<g id="edge26" class="edge">
<title>Node24&#45;&gt;Node25</title>
<path fill="none" stroke="midnightblue" d="M2403,-67.23C2403,-57.68 2403,-42.12 2403,-29.78"/>
<polygon fill="midnightblue" stroke="midnightblue" points="2406.5,-29.63 2403,-19.63 2399.5,-29.63 2406.5,-29.63"/>
</g>
</g>
</svg>
