<?xml version="1.0" encoding="UTF-8" standalone="no"?>
<!DOCTYPE svg PUBLIC "-//W3C//DTD SVG 1.1//EN"
 "http://www.w3.org/Graphics/SVG/1.1/DTD/svg11.dtd">
<!-- Generated by graphviz version 2.43.0 (0)
 -->
<!-- Title: seerep&#45;hdf5/seerep&#45;hdf5&#45;fb/include/seerep&#45;hdf5&#45;fb/hdf5&#45;fb&#45;point.h Pages: 1 -->
<svg width="1806pt" height="251pt"
 viewBox="0.00 0.00 1806.00 251.00" xmlns="http://www.w3.org/2000/svg" xmlns:xlink="http://www.w3.org/1999/xlink">
<g id="graph0" class="graph" transform="scale(1 1) rotate(0) translate(4 247)">
<title>seerep&#45;hdf5/seerep&#45;hdf5&#45;fb/include/seerep&#45;hdf5&#45;fb/hdf5&#45;fb&#45;point.h</title>
<!-- Node1 -->
<g id="node1" class="node">
<title>Node1</title>
<g id="a_node1"><a xlink:title=" ">
<polygon fill="#bfbfbf" stroke="black" points="1323.5,-201.5 1323.5,-242.5 1454.5,-242.5 1454.5,-201.5 1323.5,-201.5"/>
<text text-anchor="start" x="1331.5" y="-230.5" font-family="Helvetica,sans-Serif" font-size="10.00">seerep&#45;hdf5/seerep</text>
<text text-anchor="start" x="1331.5" y="-219.5" font-family="Helvetica,sans-Serif" font-size="10.00">&#45;hdf5&#45;fb/include/seerep</text>
<text text-anchor="middle" x="1389" y="-208.5" font-family="Helvetica,sans-Serif" font-size="10.00">&#45;hdf5&#45;fb/hdf5&#45;fb&#45;point.h</text>
</a>
</g>
</g>
<!-- Node2 -->
<g id="node2" class="node">
<title>Node2</title>
<g id="a_node2"><a xlink:title=" ">
<polygon fill="none" stroke="#bfbfbf" points="0,-6 0,-25 110,-25 110,-6 0,-6"/>
<text text-anchor="middle" x="55" y="-13" font-family="Helvetica,sans-Serif" font-size="10.00">highfive/H5File.hpp</text>
</a>
</g>
</g>
<!-- Node1&#45;&gt;Node2 -->
<g id="edge1" class="edge">
<title>Node1&#45;&gt;Node2</title>
<path fill="none" stroke="midnightblue" d="M1323.35,-219.91C1125.45,-216.23 536.76,-202.36 349,-165 261.18,-147.53 237.5,-141.07 159,-98 125.04,-79.36 90.63,-49.85 71.14,-31.92"/>
<polygon fill="midnightblue" stroke="midnightblue" points="73.44,-29.28 63.74,-25.01 68.66,-34.39 73.44,-29.28"/>
</g>
<!-- Node3 -->
<g id="node3" class="node">
<title>Node3</title>
<g id="a_node3"><a xlink:href="hdf5-fb-general_8h.html" target="_top" xlink:title=" ">
<polygon fill="none" stroke="black" points="820.5,-134.5 820.5,-164.5 933.5,-164.5 933.5,-134.5 820.5,-134.5"/>
<text text-anchor="start" x="828.5" y="-152.5" font-family="Helvetica,sans-Serif" font-size="10.00">seerep&#45;hdf5&#45;fb/hdf5</text>
<text text-anchor="middle" x="877" y="-141.5" font-family="Helvetica,sans-Serif" font-size="10.00">&#45;fb&#45;general.h</text>
</a>
</g>
</g>
<!-- Node1&#45;&gt;Node3 -->
<g id="edge2" class="edge">
<title>Node1&#45;&gt;Node3</title>
<path fill="none" stroke="midnightblue" d="M1323.37,-211.96C1225.51,-198.49 1042.33,-173.26 943.79,-159.7"/>
<polygon fill="midnightblue" stroke="midnightblue" points="944.04,-156.2 933.66,-158.3 943.09,-163.13 944.04,-156.2"/>
</g>
<!-- Node7 -->
<g id="node7" class="node">
<title>Node7</title>
<g id="a_node7"><a xlink:title=" ">
<polygon fill="none" stroke="#bfbfbf" points="128.5,-6 128.5,-25 241.5,-25 241.5,-6 128.5,-6"/>
<text text-anchor="middle" x="185" y="-13" font-family="Helvetica,sans-Serif" font-size="10.00">boost/geometry.hpp</text>
</a>
</g>
</g>
<!-- Node1&#45;&gt;Node7 -->
<g id="edge28" class="edge">
<title>Node1&#45;&gt;Node7</title>
<path fill="none" stroke="midnightblue" d="M1323.31,-220.47C1109.65,-217.74 437.46,-200.98 251,-98 224.53,-83.38 204.63,-53.44 193.92,-34.2"/>
<polygon fill="midnightblue" stroke="midnightblue" points="196.95,-32.44 189.16,-25.25 190.76,-35.73 196.95,-32.44"/>
</g>
<!-- Node9 -->
<g id="node9" class="node">
<title>Node9</title>
<g id="a_node9"><a xlink:title=" ">
<polygon fill="none" stroke="#bfbfbf" points="1285,-6 1285,-25 1341,-25 1341,-6 1285,-6"/>
<text text-anchor="middle" x="1313" y="-13" font-family="Helvetica,sans-Serif" font-size="10.00">optional</text>
</a>
</g>
</g>
<!-- Node1&#45;&gt;Node9 -->
<g id="edge29" class="edge">
<title>Node1&#45;&gt;Node9</title>
<path fill="none" stroke="midnightblue" d="M1442.25,-201.5C1508.58,-174.28 1608.02,-122.03 1563,-67 1536.7,-34.86 1414.75,-22.71 1351.41,-18.51"/>
<polygon fill="midnightblue" stroke="midnightblue" points="1351.61,-15.01 1341.41,-17.88 1351.17,-22 1351.61,-15.01"/>
</g>
<!-- Node16 -->
<g id="node16" class="node">
<title>Node16</title>
<g id="a_node16"><a xlink:title=" ">
<polygon fill="none" stroke="#bfbfbf" points="1341.5,-73 1341.5,-92 1436.5,-92 1436.5,-73 1341.5,-73"/>
<text text-anchor="middle" x="1389" y="-80" font-family="Helvetica,sans-Serif" font-size="10.00">grpcpp/grpcpp.h</text>
</a>
</g>
</g>
<!-- Node1&#45;&gt;Node16 -->
<g id="edge27" class="edge">
<title>Node1&#45;&gt;Node16</title>
<path fill="none" stroke="midnightblue" d="M1389,-201.3C1389,-174.9 1389,-128.36 1389,-102.38"/>
<polygon fill="midnightblue" stroke="midnightblue" points="1392.5,-102.04 1389,-92.04 1385.5,-102.04 1392.5,-102.04"/>
</g>
<!-- Node17 -->
<g id="node17" class="node">
<title>Node17</title>
<g id="a_node17"><a xlink:title=" ">
<polygon fill="none" stroke="#bfbfbf" points="1454.5,-73 1454.5,-92 1553.5,-92 1553.5,-73 1454.5,-73"/>
<text text-anchor="middle" x="1504" y="-80" font-family="Helvetica,sans-Serif" font-size="10.00">flatbuffers/grpc.h</text>
</a>
</g>
</g>
<!-- Node1&#45;&gt;Node17 -->
<g id="edge30" class="edge">
<title>Node1&#45;&gt;Node17</title>
<path fill="none" stroke="midnightblue" d="M1405.48,-201.3C1428.25,-174.06 1468.95,-125.4 1490.21,-99.99"/>
<polygon fill="midnightblue" stroke="midnightblue" points="1493.13,-101.95 1496.86,-92.04 1487.76,-97.46 1493.13,-101.95"/>
</g>
<!-- Node20 -->
<g id="node20" class="node">
<title>Node20</title>
<g id="a_node20"><a xlink:title=" ">
<polygon fill="none" stroke="#bfbfbf" points="1610,-140 1610,-159 1798,-159 1798,-140 1610,-140"/>
<text text-anchor="middle" x="1704" y="-147" font-family="Helvetica,sans-Serif" font-size="10.00">seerep&#45;com/point_service.grpc.fb.h</text>
</a>
</g>
</g>
<!-- Node1&#45;&gt;Node20 -->
<g id="edge26" class="edge">
<title>Node1&#45;&gt;Node20</title>
<path fill="none" stroke="midnightblue" d="M1454.65,-206.31C1514.62,-192.89 1601.88,-173.35 1655.68,-161.31"/>
<polygon fill="midnightblue" stroke="midnightblue" points="1656.66,-164.68 1665.65,-159.08 1655.13,-157.85 1656.66,-164.68"/>
</g>
<!-- Node3&#45;&gt;Node2 -->
<g id="edge3" class="edge">
<title>Node3&#45;&gt;Node2</title>
<path fill="none" stroke="midnightblue" d="M820.47,-146.21C687.54,-140.44 358.3,-123.95 251,-98 186.55,-82.41 115.88,-48.48 79.57,-29.69"/>
<polygon fill="midnightblue" stroke="midnightblue" points="81.17,-26.57 70.68,-25.03 77.92,-32.77 81.17,-26.57"/>
</g>
<!-- Node4 -->
<g id="node4" class="node">
<title>Node4</title>
<g id="a_node4"><a xlink:href="hdf5-core-general_8h.html" target="_top" xlink:title=" ">
<polygon fill="none" stroke="black" points="345.5,-67.5 345.5,-97.5 470.5,-97.5 470.5,-67.5 345.5,-67.5"/>
<text text-anchor="start" x="353.5" y="-85.5" font-family="Helvetica,sans-Serif" font-size="10.00">seerep&#45;hdf5&#45;core/hdf5</text>
<text text-anchor="middle" x="408" y="-74.5" font-family="Helvetica,sans-Serif" font-size="10.00">&#45;core&#45;general.h</text>
</a>
</g>
</g>
<!-- Node3&#45;&gt;Node4 -->
<g id="edge4" class="edge">
<title>Node3&#45;&gt;Node4</title>
<path fill="none" stroke="midnightblue" d="M820.27,-142.59C745.02,-134.46 607.86,-118.63 480.7,-98.04"/>
<polygon fill="midnightblue" stroke="midnightblue" points="481.21,-94.58 470.78,-96.42 480.09,-101.49 481.21,-94.58"/>
</g>
<!-- Node3&#45;&gt;Node7 -->
<g id="edge19" class="edge">
<title>Node3&#45;&gt;Node7</title>
<path fill="none" stroke="midnightblue" d="M820.49,-146.76C697.18,-142.43 407.61,-129.18 315,-98 270.93,-83.16 226.52,-50.66 202.72,-31.49"/>
<polygon fill="midnightblue" stroke="midnightblue" points="204.87,-28.73 194.92,-25.09 200.43,-34.14 204.87,-28.73"/>
</g>
<!-- Node8 -->
<g id="node8" class="node">
<title>Node8</title>
<g id="a_node8"><a xlink:title=" ">
<polygon fill="none" stroke="#bfbfbf" points="830,-6 830,-25 878,-25 878,-6 830,-6"/>
<text text-anchor="middle" x="854" y="-13" font-family="Helvetica,sans-Serif" font-size="10.00">mutex</text>
</a>
</g>
</g>
<!-- Node3&#45;&gt;Node8 -->
<g id="edge21" class="edge">
<title>Node3&#45;&gt;Node8</title>
<path fill="none" stroke="midnightblue" d="M872.46,-134.49C869.37,-124.44 865.41,-110.51 863,-98 858.89,-76.65 856.48,-51.76 855.2,-35.16"/>
<polygon fill="midnightblue" stroke="midnightblue" points="858.69,-34.86 854.5,-25.13 851.71,-35.36 858.69,-34.86"/>
</g>
<!-- Node3&#45;&gt;Node9 -->
<g id="edge22" class="edge">
<title>Node3&#45;&gt;Node9</title>
<path fill="none" stroke="midnightblue" d="M933.57,-149.38C1035.01,-149.74 1242.09,-144.56 1294,-98 1311.46,-82.34 1314.45,-54.03 1314.28,-35.24"/>
<polygon fill="midnightblue" stroke="midnightblue" points="1317.78,-35.07 1313.89,-25.21 1310.79,-35.34 1317.78,-35.07"/>
</g>
<!-- Node10 -->
<g id="node10" class="node">
<title>Node10</title>
<g id="a_node10"><a xlink:title=" ">
<polygon fill="none" stroke="#bfbfbf" points="896.5,-0.5 896.5,-30.5 1041.5,-30.5 1041.5,-0.5 896.5,-0.5"/>
<text text-anchor="start" x="904.5" y="-18.5" font-family="Helvetica,sans-Serif" font-size="10.00">boost/log/sources/severity</text>
<text text-anchor="middle" x="969" y="-7.5" font-family="Helvetica,sans-Serif" font-size="10.00">_logger.hpp</text>
</a>
</g>
</g>
<!-- Node3&#45;&gt;Node10 -->
<g id="edge23" class="edge">
<title>Node3&#45;&gt;Node10</title>
<path fill="none" stroke="midnightblue" d="M877.27,-134.31C878.24,-117.01 882.03,-87.54 896,-67 904.66,-54.27 917.69,-43.78 930.35,-35.72"/>
<polygon fill="midnightblue" stroke="midnightblue" points="932.22,-38.68 938.99,-30.54 928.62,-32.68 932.22,-38.68"/>
</g>
<!-- Node11 -->
<g id="node11" class="node">
<title>Node11</title>
<g id="a_node11"><a xlink:title=" ">
<polygon fill="none" stroke="#bfbfbf" points="260,-6 260,-25 374,-25 374,-6 260,-6"/>
<text text-anchor="middle" x="317" y="-13" font-family="Helvetica,sans-Serif" font-size="10.00">boost/log/trivial.hpp</text>
</a>
</g>
</g>
<!-- Node3&#45;&gt;Node11 -->
<g id="edge24" class="edge">
<title>Node3&#45;&gt;Node11</title>
<path fill="none" stroke="midnightblue" d="M820.22,-146.9C688.76,-142.69 371.94,-129.36 336,-98 318.24,-82.5 315.36,-53.91 315.63,-35.05"/>
<polygon fill="midnightblue" stroke="midnightblue" points="319.13,-35.15 316.09,-25 312.14,-34.84 319.13,-35.15"/>
</g>
<!-- Node13 -->
<g id="node13" class="node">
<title>Node13</title>
<g id="a_node13"><a xlink:title=" ">
<polygon fill="none" stroke="#bfbfbf" points="489,-67.5 489,-97.5 647,-97.5 647,-67.5 489,-67.5"/>
<text text-anchor="start" x="497" y="-85.5" font-family="Helvetica,sans-Serif" font-size="10.00">seerep&#45;msgs/boundingbox2d</text>
<text text-anchor="middle" x="568" y="-74.5" font-family="Helvetica,sans-Serif" font-size="10.00">_labeled_generated.h</text>
</a>
</g>
</g>
<!-- Node3&#45;&gt;Node13 -->
<g id="edge14" class="edge">
<title>Node3&#45;&gt;Node13</title>
<path fill="none" stroke="midnightblue" d="M820.32,-136.58C771.04,-126.21 699.18,-111.1 644.75,-99.64"/>
<polygon fill="midnightblue" stroke="midnightblue" points="645.3,-96.18 634.8,-97.55 643.86,-103.03 645.3,-96.18"/>
</g>
<!-- Node14 -->
<g id="node14" class="node">
<title>Node14</title>
<g id="a_node14"><a xlink:title=" ">
<polygon fill="none" stroke="#bfbfbf" points="665,-67.5 665,-97.5 811,-97.5 811,-67.5 665,-67.5"/>
<text text-anchor="start" x="673" y="-85.5" font-family="Helvetica,sans-Serif" font-size="10.00">seerep&#45;msgs/boundingbox</text>
<text text-anchor="middle" x="738" y="-74.5" font-family="Helvetica,sans-Serif" font-size="10.00">_labeled_generated.h</text>
</a>
</g>
</g>
<!-- Node3&#45;&gt;Node14 -->
<g id="edge15" class="edge">
<title>Node3&#45;&gt;Node14</title>
<path fill="none" stroke="midnightblue" d="M846.84,-134.4C826.44,-124.86 799.3,-112.16 777.22,-101.84"/>
<polygon fill="midnightblue" stroke="midnightblue" points="778.64,-98.64 768.1,-97.58 775.68,-104.98 778.64,-98.64"/>
</g>
<!-- Node15 -->
<g id="node15" class="node">
<title>Node15</title>
<g id="a_node15"><a xlink:title=" ">
<polygon fill="none" stroke="#bfbfbf" points="905.5,-67.5 905.5,-97.5 1042.5,-97.5 1042.5,-67.5 905.5,-67.5"/>
<text text-anchor="start" x="913.5" y="-85.5" font-family="Helvetica,sans-Serif" font-size="10.00">seerep&#45;msgs/union_map</text>
<text text-anchor="middle" x="974" y="-74.5" font-family="Helvetica,sans-Serif" font-size="10.00">_entry_generated.h</text>
</a>
</g>
</g>
<!-- Node3&#45;&gt;Node15 -->
<g id="edge16" class="edge">
<title>Node3&#45;&gt;Node15</title>
<path fill="none" stroke="midnightblue" d="M898.05,-134.4C911.65,-125.28 929.54,-113.29 944.55,-103.24"/>
<polygon fill="midnightblue" stroke="midnightblue" points="946.63,-106.05 952.99,-97.58 942.74,-100.24 946.63,-106.05"/>
</g>
<!-- Node3&#45;&gt;Node16 -->
<g id="edge17" class="edge">
<title>Node3&#45;&gt;Node16</title>
<path fill="none" stroke="midnightblue" d="M933.78,-144.29C1019.42,-137.45 1186.58,-122.21 1327,-98 1333.15,-96.94 1339.6,-95.64 1345.92,-94.26"/>
<polygon fill="midnightblue" stroke="midnightblue" points="1346.7,-97.68 1355.68,-92.05 1345.16,-90.85 1346.7,-97.68"/>
</g>
<!-- Node3&#45;&gt;Node17 -->
<g id="edge18" class="edge">
<title>Node3&#45;&gt;Node17</title>
<path fill="none" stroke="midnightblue" d="M933.5,-146.41C1036.17,-141.98 1259.94,-129.32 1446,-98 1451.84,-97.02 1457.95,-95.75 1463.93,-94.38"/>
<polygon fill="midnightblue" stroke="midnightblue" points="1464.89,-97.75 1473.79,-92 1463.24,-90.95 1464.89,-97.75"/>
</g>
<!-- Node18 -->
<g id="node18" class="node">
<title>Node18</title>
<g id="a_node18"><a xlink:title=" ">
<polygon fill="none" stroke="#bfbfbf" points="1061,-73 1061,-92 1129,-92 1129,-73 1061,-73"/>
<text text-anchor="middle" x="1095" y="-80" font-family="Helvetica,sans-Serif" font-size="10.00">filesystem</text>
</a>
</g>
</g>
<!-- Node3&#45;&gt;Node18 -->
<g id="edge20" class="edge">
<title>Node3&#45;&gt;Node18</title>
<path fill="none" stroke="midnightblue" d="M927.02,-134.5C961.87,-124.61 1009.39,-110.89 1051,-98 1053.9,-97.1 1056.91,-96.15 1059.92,-95.19"/>
<polygon fill="midnightblue" stroke="midnightblue" points="1061.03,-98.51 1069.46,-92.09 1058.86,-91.85 1061.03,-98.51"/>
</g>
<!-- Node19 -->
<g id="node19" class="node">
<title>Node19</title>
<g id="a_node19"><a xlink:title=" ">
<polygon fill="none" stroke="#bfbfbf" points="1147,-73 1147,-92 1285,-92 1285,-73 1147,-73"/>
<text text-anchor="middle" x="1216" y="-80" font-family="Helvetica,sans-Serif" font-size="10.00">impl/hdf5&#45;fb&#45;general.hpp</text>
</a>
</g>
</g>
<!-- Node3&#45;&gt;Node19 -->
<g id="edge25" class="edge">
<title>Node3&#45;&gt;Node19</title>
<path fill="none" stroke="midnightblue" d="M933.74,-137.62C997.13,-125.47 1099.01,-105.93 1161.48,-93.95"/>
<polygon fill="midnightblue" stroke="midnightblue" points="1162.37,-97.35 1171.53,-92.03 1161.05,-90.47 1162.37,-97.35"/>
</g>
<!-- Node4&#45;&gt;Node2 -->
<g id="edge5" class="edge">
<title>Node4&#45;&gt;Node2</title>
<path fill="none" stroke="midnightblue" d="M345.26,-71.46C286.6,-61.86 196.66,-46.57 119,-31 113.2,-29.84 107.13,-28.55 101.12,-27.24"/>
<polygon fill="midnightblue" stroke="midnightblue" points="101.67,-23.77 91.15,-25.02 100.15,-30.61 101.67,-23.77"/>
</g>
<!-- Node5 -->
<g id="node5" class="node">
<title>Node5</title>
<g id="a_node5"><a xlink:title=" ">
<polygon fill="none" stroke="#bfbfbf" points="696,-6 696,-25 812,-25 812,-6 696,-6"/>
<text text-anchor="middle" x="754" y="-13" font-family="Helvetica,sans-Serif" font-size="10.00">seerep&#45;msgs/aabb.h</text>
</a>
</g>
</g>
<!-- Node4&#45;&gt;Node5 -->
<g id="edge6" class="edge">
<title>Node4&#45;&gt;Node5</title>
<path fill="none" stroke="midnightblue" d="M470.81,-68.75C473.92,-68.15 476.99,-67.56 480,-67 571.78,-49.78 595.35,-48.88 687,-31 693.13,-29.8 699.57,-28.49 705.92,-27.15"/>
<polygon fill="midnightblue" stroke="midnightblue" points="706.74,-30.56 715.79,-25.05 705.28,-23.71 706.74,-30.56"/>
</g>
<!-- Node6 -->
<g id="node6" class="node">
<title>Node6</title>
<g id="a_node6"><a xlink:title=" ">
<polygon fill="none" stroke="#bfbfbf" points="392.5,-0.5 392.5,-30.5 511.5,-30.5 511.5,-0.5 392.5,-0.5"/>
<text text-anchor="start" x="400.5" y="-18.5" font-family="Helvetica,sans-Serif" font-size="10.00">seerep&#45;msgs/dataset</text>
<text text-anchor="middle" x="452" y="-7.5" font-family="Helvetica,sans-Serif" font-size="10.00">&#45;indexable.h</text>
</a>
</g>
</g>
<!-- Node4&#45;&gt;Node6 -->
<g id="edge7" class="edge">
<title>Node4&#45;&gt;Node6</title>
<path fill="none" stroke="midnightblue" d="M417.55,-67.4C423.14,-59.13 430.33,-48.51 436.7,-39.1"/>
<polygon fill="midnightblue" stroke="midnightblue" points="439.76,-40.82 442.47,-30.58 433.97,-36.9 439.76,-40.82"/>
</g>
<!-- Node4&#45;&gt;Node7 -->
<g id="edge8" class="edge">
<title>Node4&#45;&gt;Node7</title>
<path fill="none" stroke="midnightblue" d="M359.89,-67.48C319.22,-55.62 261.71,-38.86 223.9,-27.84"/>
<polygon fill="midnightblue" stroke="midnightblue" points="224.84,-24.47 214.26,-25.03 222.88,-31.19 224.84,-24.47"/>
</g>
<!-- Node4&#45;&gt;Node8 -->
<g id="edge9" class="edge">
<title>Node4&#45;&gt;Node8</title>
<path fill="none" stroke="midnightblue" d="M470.77,-68.5C473.88,-67.97 476.98,-67.46 480,-67 630.64,-43.93 673.71,-70.12 821,-31 823.3,-30.39 825.64,-29.64 827.96,-28.81"/>
<polygon fill="midnightblue" stroke="midnightblue" points="829.28,-32.05 837.23,-25.06 826.65,-25.56 829.28,-32.05"/>
</g>
<!-- Node4&#45;&gt;Node9 -->
<g id="edge10" class="edge">
<title>Node4&#45;&gt;Node9</title>
<path fill="none" stroke="midnightblue" d="M470.74,-68.33C473.87,-67.84 476.97,-67.4 480,-67 519.85,-61.8 1116.49,-27.67 1274.72,-18.67"/>
<polygon fill="midnightblue" stroke="midnightblue" points="1275.14,-22.15 1284.92,-18.09 1274.74,-15.17 1275.14,-22.15"/>
</g>
<!-- Node4&#45;&gt;Node10 -->
<g id="edge11" class="edge">
<title>Node4&#45;&gt;Node10</title>
<path fill="none" stroke="midnightblue" d="M470.76,-68.44C473.88,-67.92 476.97,-67.44 480,-67 656.48,-41.5 705.23,-54.35 886.06,-31.04"/>
<polygon fill="midnightblue" stroke="midnightblue" points="886.71,-34.48 896.17,-29.72 885.8,-27.54 886.71,-34.48"/>
</g>
<!-- Node4&#45;&gt;Node11 -->
<g id="edge12" class="edge">
<title>Node4&#45;&gt;Node11</title>
<path fill="none" stroke="midnightblue" d="M388.25,-67.4C373.14,-56.6 352.36,-41.76 337.14,-30.89"/>
<polygon fill="midnightblue" stroke="midnightblue" points="339.08,-27.97 328.91,-25.01 335.01,-33.67 339.08,-27.97"/>
</g>
<!-- Node12 -->
<g id="node12" class="node">
<title>Node12</title>
<g id="a_node12"><a xlink:title=" ">
<polygon fill="none" stroke="#bfbfbf" points="529.5,-6 529.5,-25 678.5,-25 678.5,-6 529.5,-6"/>
<text text-anchor="middle" x="604" y="-13" font-family="Helvetica,sans-Serif" font-size="10.00">impl/hdf5&#45;core&#45;general.hpp</text>
</a>
</g>
</g>
<!-- Node4&#45;&gt;Node12 -->
<g id="edge13" class="edge">
<title>Node4&#45;&gt;Node12</title>
<path fill="none" stroke="midnightblue" d="M450.53,-67.4C485.83,-55.69 535.46,-39.23 568.62,-28.23"/>
<polygon fill="midnightblue" stroke="midnightblue" points="569.96,-31.48 578.35,-25.01 567.75,-24.83 569.96,-31.48"/>
</g>
</g>
</svg>
