<?xml version="1.0" encoding="UTF-8" standalone="no"?>
<!DOCTYPE svg PUBLIC "-//W3C//DTD SVG 1.1//EN"
 "http://www.w3.org/Graphics/SVG/1.1/DTD/svg11.dtd">
<!-- Generated by graphviz version 2.43.0 (0)
 -->
<!-- Title: seerep&#45;hdf5/seerep&#45;hdf5&#45;fb/include/seerep&#45;hdf5&#45;fb/hdf5&#45;fb&#45;general.h Pages: 1 -->
<svg width="1372pt" height="429pt"
 viewBox="0.00 0.00 1372.00 429.00" xmlns="http://www.w3.org/2000/svg" xmlns:xlink="http://www.w3.org/1999/xlink">
<g id="graph0" class="graph" transform="scale(1 1) rotate(0) translate(4 425)">
<title>seerep&#45;hdf5/seerep&#45;hdf5&#45;fb/include/seerep&#45;hdf5&#45;fb/hdf5&#45;fb&#45;general.h</title>
<!-- Node1 -->
<g id="node1" class="node">
<title>Node1</title>
<g id="a_node1"><a xlink:title=" ">
<polygon fill="#bfbfbf" stroke="black" points="743,-379.5 743,-420.5 886,-420.5 886,-379.5 743,-379.5"/>
<text text-anchor="start" x="751" y="-408.5" font-family="Helvetica,sans-Serif" font-size="10.00">seerep&#45;hdf5/seerep</text>
<text text-anchor="start" x="751" y="-397.5" font-family="Helvetica,sans-Serif" font-size="10.00">&#45;hdf5&#45;fb/include/seerep</text>
<text text-anchor="middle" x="814.5" y="-386.5" font-family="Helvetica,sans-Serif" font-size="10.00">&#45;hdf5&#45;fb/hdf5&#45;fb&#45;general.h</text>
</a>
</g>
</g>
<!-- Node2 -->
<g id="node2" class="node">
<title>Node2</title>
<g id="a_node2"><a xlink:href="hdf5-fb-image_8h.html" target="_top" xlink:title=" ">
<polygon fill="none" stroke="black" points="191,-301.5 191,-342.5 328,-342.5 328,-301.5 191,-301.5"/>
<text text-anchor="start" x="199" y="-330.5" font-family="Helvetica,sans-Serif" font-size="10.00">seerep&#45;hdf5/seerep</text>
<text text-anchor="start" x="199" y="-319.5" font-family="Helvetica,sans-Serif" font-size="10.00">&#45;hdf5&#45;fb/include/seerep</text>
<text text-anchor="middle" x="259.5" y="-308.5" font-family="Helvetica,sans-Serif" font-size="10.00">&#45;hdf5&#45;fb/hdf5&#45;fb&#45;image.h</text>
</a>
</g>
</g>
<!-- Node1&#45;&gt;Node2 -->
<g id="edge1" class="edge">
<title>Node1&#45;&gt;Node2</title>
<path fill="none" stroke="midnightblue" d="M732.79,-387.81C623.3,-372.82 430.92,-346.47 328.39,-332.43"/>
<polygon fill="midnightblue" stroke="midnightblue" points="732.41,-391.29 742.8,-389.18 733.36,-384.36 732.41,-391.29"/>
</g>
<!-- Node11 -->
<g id="node11" class="node">
<title>Node11</title>
<g id="a_node11"><a xlink:href="hdf5-fb-point_8h.html" target="_top" xlink:title=" ">
<polygon fill="none" stroke="black" points="541,-301.5 541,-342.5 672,-342.5 672,-301.5 541,-301.5"/>
<text text-anchor="start" x="549" y="-330.5" font-family="Helvetica,sans-Serif" font-size="10.00">seerep&#45;hdf5/seerep</text>
<text text-anchor="start" x="549" y="-319.5" font-family="Helvetica,sans-Serif" font-size="10.00">&#45;hdf5&#45;fb/include/seerep</text>
<text text-anchor="middle" x="606.5" y="-308.5" font-family="Helvetica,sans-Serif" font-size="10.00">&#45;hdf5&#45;fb/hdf5&#45;fb&#45;point.h</text>
</a>
</g>
</g>
<!-- Node1&#45;&gt;Node11 -->
<g id="edge10" class="edge">
<title>Node1&#45;&gt;Node11</title>
<path fill="none" stroke="midnightblue" d="M751.24,-375.89C722.05,-365.22 687.76,-352.69 659.88,-342.51"/>
<polygon fill="midnightblue" stroke="midnightblue" points="750.34,-379.28 760.93,-379.43 752.74,-372.71 750.34,-379.28"/>
</g>
<!-- Node17 -->
<g id="node17" class="node">
<title>Node17</title>
<g id="a_node17"><a xlink:href="hdf5-fb-pointcloud_8h.html" target="_top" xlink:title=" ">
<polygon fill="none" stroke="black" points="735.5,-301.5 735.5,-342.5 893.5,-342.5 893.5,-301.5 735.5,-301.5"/>
<text text-anchor="start" x="743.5" y="-330.5" font-family="Helvetica,sans-Serif" font-size="10.00">seerep&#45;hdf5/seerep</text>
<text text-anchor="start" x="743.5" y="-319.5" font-family="Helvetica,sans-Serif" font-size="10.00">&#45;hdf5&#45;fb/include/seerep</text>
<text text-anchor="middle" x="814.5" y="-308.5" font-family="Helvetica,sans-Serif" font-size="10.00">&#45;hdf5&#45;fb/hdf5&#45;fb&#45;pointcloud.h</text>
</a>
</g>
</g>
<!-- Node1&#45;&gt;Node17 -->
<g id="edge17" class="edge">
<title>Node1&#45;&gt;Node17</title>
<path fill="none" stroke="midnightblue" d="M814.5,-369.3C814.5,-360.3 814.5,-350.65 814.5,-342.51"/>
<polygon fill="midnightblue" stroke="midnightblue" points="811,-369.43 814.5,-379.43 818,-369.43 811,-369.43"/>
</g>
<!-- Node23 -->
<g id="node23" class="node">
<title>Node23</title>
<g id="a_node23"><a xlink:href="hdf5-fb-tf_8h.html" target="_top" xlink:title=" ">
<polygon fill="none" stroke="black" points="934.5,-301.5 934.5,-342.5 1064.5,-342.5 1064.5,-301.5 934.5,-301.5"/>
<text text-anchor="start" x="942.5" y="-330.5" font-family="Helvetica,sans-Serif" font-size="10.00">seerep&#45;hdf5/seerep</text>
<text text-anchor="start" x="942.5" y="-319.5" font-family="Helvetica,sans-Serif" font-size="10.00">&#45;hdf5&#45;fb/include/seerep</text>
<text text-anchor="middle" x="999.5" y="-308.5" font-family="Helvetica,sans-Serif" font-size="10.00">&#45;hdf5&#45;fb/hdf5&#45;fb&#45;tf.h</text>
</a>
</g>
</g>
<!-- Node1&#45;&gt;Node23 -->
<g id="edge24" class="edge">
<title>Node1&#45;&gt;Node23</title>
<path fill="none" stroke="midnightblue" d="M871.44,-375.61C897.26,-365 927.44,-352.6 952.02,-342.51"/>
<polygon fill="midnightblue" stroke="midnightblue" points="870.06,-372.39 862.14,-379.43 872.72,-378.87 870.06,-372.39"/>
</g>
<!-- Node29 -->
<g id="node29" class="node">
<title>Node29</title>
<g id="a_node29"><a xlink:href="hdf5-fb-general_8cpp.html" target="_top" xlink:title=" ">
<polygon fill="none" stroke="black" points="1083,-301.5 1083,-342.5 1194,-342.5 1194,-301.5 1083,-301.5"/>
<text text-anchor="start" x="1091" y="-330.5" font-family="Helvetica,sans-Serif" font-size="10.00">seerep&#45;hdf5/seerep</text>
<text text-anchor="start" x="1091" y="-319.5" font-family="Helvetica,sans-Serif" font-size="10.00">&#45;hdf5&#45;fb/src/hdf5&#45;fb</text>
<text text-anchor="middle" x="1138.5" y="-308.5" font-family="Helvetica,sans-Serif" font-size="10.00">&#45;general.cpp</text>
</a>
</g>
</g>
<!-- Node1&#45;&gt;Node29 -->
<g id="edge31" class="edge">
<title>Node1&#45;&gt;Node29</title>
<path fill="none" stroke="midnightblue" d="M896.09,-383.22C947.3,-372.86 1014.56,-358.41 1073.5,-343 1076.58,-342.19 1079.74,-341.33 1082.92,-340.44"/>
<polygon fill="midnightblue" stroke="midnightblue" points="895.18,-379.83 886.07,-385.24 896.56,-386.7 895.18,-379.83"/>
</g>
<!-- Node3 -->
<g id="node3" class="node">
<title>Node3</title>
<g id="a_node3"><a xlink:href="hdf5-fb-image_8cpp.html" target="_top" xlink:title=" ">
<polygon fill="none" stroke="black" points="0,-223.5 0,-264.5 111,-264.5 111,-223.5 0,-223.5"/>
<text text-anchor="start" x="8" y="-252.5" font-family="Helvetica,sans-Serif" font-size="10.00">seerep&#45;hdf5/seerep</text>
<text text-anchor="start" x="8" y="-241.5" font-family="Helvetica,sans-Serif" font-size="10.00">&#45;hdf5&#45;fb/src/hdf5&#45;fb</text>
<text text-anchor="middle" x="55.5" y="-230.5" font-family="Helvetica,sans-Serif" font-size="10.00">&#45;image.cpp</text>
</a>
</g>
</g>
<!-- Node2&#45;&gt;Node3 -->
<g id="edge2" class="edge">
<title>Node2&#45;&gt;Node3</title>
<path fill="none" stroke="midnightblue" d="M197.46,-297.89C168.82,-287.22 135.19,-274.69 107.86,-264.51"/>
<polygon fill="midnightblue" stroke="midnightblue" points="196.37,-301.22 206.96,-301.43 198.82,-294.66 196.37,-301.22"/>
</g>
<!-- Node4 -->
<g id="node4" class="node">
<title>Node4</title>
<g id="a_node4"><a xlink:href="fb-write-load-test_8cpp.html" target="_top" xlink:title=" ">
<polygon fill="none" stroke="black" points="129,-223.5 129,-264.5 248,-264.5 248,-223.5 129,-223.5"/>
<text text-anchor="start" x="137" y="-252.5" font-family="Helvetica,sans-Serif" font-size="10.00">seerep&#45;hdf5/seerep</text>
<text text-anchor="start" x="137" y="-241.5" font-family="Helvetica,sans-Serif" font-size="10.00">&#45;hdf5&#45;fb/test/fb&#45;write</text>
<text text-anchor="middle" x="188.5" y="-230.5" font-family="Helvetica,sans-Serif" font-size="10.00">&#45;load&#45;test.cpp</text>
</a>
</g>
</g>
<!-- Node2&#45;&gt;Node4 -->
<g id="edge3" class="edge">
<title>Node2&#45;&gt;Node4</title>
<path fill="none" stroke="midnightblue" d="M234.2,-293.92C225.12,-284.2 215.08,-273.45 206.72,-264.51"/>
<polygon fill="midnightblue" stroke="midnightblue" points="231.83,-296.51 241.22,-301.43 236.95,-291.73 231.83,-296.51"/>
</g>
<!-- Node5 -->
<g id="node5" class="node">
<title>Node5</title>
<g id="a_node5"><a xlink:href="core-fb-image_8h.html" target="_top" xlink:title=" ">
<polygon fill="none" stroke="black" points="266,-223.5 266,-264.5 395,-264.5 395,-223.5 266,-223.5"/>
<text text-anchor="start" x="274" y="-252.5" font-family="Helvetica,sans-Serif" font-size="10.00">seerep&#45;srv/seerep&#45;core</text>
<text text-anchor="start" x="274" y="-241.5" font-family="Helvetica,sans-Serif" font-size="10.00">&#45;fb/include/seerep&#45;core</text>
<text text-anchor="middle" x="330.5" y="-230.5" font-family="Helvetica,sans-Serif" font-size="10.00">&#45;fb/core&#45;fb&#45;image.h</text>
</a>
</g>
</g>
<!-- Node2&#45;&gt;Node5 -->
<g id="edge4" class="edge">
<title>Node2&#45;&gt;Node5</title>
<path fill="none" stroke="midnightblue" d="M284.8,-293.92C293.88,-284.2 303.92,-273.45 312.28,-264.51"/>
<polygon fill="midnightblue" stroke="midnightblue" points="282.05,-291.73 277.78,-301.43 287.17,-296.51 282.05,-291.73"/>
</g>
<!-- Node6 -->
<g id="node6" class="node">
<title>Node6</title>
<g id="a_node6"><a xlink:href="core-fb-image_8cpp.html" target="_top" xlink:title=" ">
<polygon fill="none" stroke="black" points="273.5,-151 273.5,-181 413.5,-181 413.5,-151 273.5,-151"/>
<text text-anchor="start" x="281.5" y="-169" font-family="Helvetica,sans-Serif" font-size="10.00">seerep&#45;srv/seerep&#45;core</text>
<text text-anchor="middle" x="343.5" y="-158" font-family="Helvetica,sans-Serif" font-size="10.00">&#45;fb/src/core&#45;fb&#45;image.cpp</text>
</a>
</g>
</g>
<!-- Node5&#45;&gt;Node6 -->
<g id="edge5" class="edge">
<title>Node5&#45;&gt;Node6</title>
<path fill="none" stroke="midnightblue" d="M335.58,-213.28C337.47,-202.25 339.52,-190.25 341.07,-181.23"/>
<polygon fill="midnightblue" stroke="midnightblue" points="332.08,-212.98 333.85,-223.43 338.98,-214.16 332.08,-212.98"/>
</g>
<!-- Node7 -->
<g id="node7" class="node">
<title>Node7</title>
<g id="a_node7"><a xlink:href="fb-image-service_8h.html" target="_top" xlink:title=" ">
<polygon fill="none" stroke="black" points="116,-145.5 116,-186.5 255,-186.5 255,-145.5 116,-145.5"/>
<text text-anchor="start" x="124" y="-174.5" font-family="Helvetica,sans-Serif" font-size="10.00">seerep&#45;srv/seerep&#45;server</text>
<text text-anchor="start" x="124" y="-163.5" font-family="Helvetica,sans-Serif" font-size="10.00">/include/seerep&#45;server</text>
<text text-anchor="middle" x="185.5" y="-152.5" font-family="Helvetica,sans-Serif" font-size="10.00">/fb&#45;image&#45;service.h</text>
</a>
</g>
</g>
<!-- Node5&#45;&gt;Node7 -->
<g id="edge6" class="edge">
<title>Node5&#45;&gt;Node7</title>
<path fill="none" stroke="midnightblue" d="M284.27,-218.77C264.39,-208.35 241.47,-196.34 222.71,-186.51"/>
<polygon fill="midnightblue" stroke="midnightblue" points="282.68,-221.89 293.16,-223.43 285.93,-215.69 282.68,-221.89"/>
</g>
<!-- Node8 -->
<g id="node8" class="node">
<title>Node8</title>
<g id="a_node8"><a xlink:href="server_8h.html" target="_top" xlink:title=" ">
<polygon fill="none" stroke="black" points="580,-67.5 580,-108.5 719,-108.5 719,-67.5 580,-67.5"/>
<text text-anchor="start" x="588" y="-96.5" font-family="Helvetica,sans-Serif" font-size="10.00">seerep&#45;srv/seerep&#45;server</text>
<text text-anchor="start" x="588" y="-85.5" font-family="Helvetica,sans-Serif" font-size="10.00">/include/seerep&#45;server</text>
<text text-anchor="middle" x="649.5" y="-74.5" font-family="Helvetica,sans-Serif" font-size="10.00">/server.h</text>
</a>
</g>
</g>
<!-- Node7&#45;&gt;Node8 -->
<g id="edge7" class="edge">
<title>Node7&#45;&gt;Node8</title>
<path fill="none" stroke="midnightblue" d="M265.13,-145.02C400.94,-120.76 438.99,-133.27 570.5,-109 573.56,-108.44 576.68,-107.82 579.82,-107.17"/>
<polygon fill="midnightblue" stroke="midnightblue" points="264.39,-141.6 255.18,-146.83 265.64,-148.49 264.39,-141.6"/>
</g>
<!-- Node10 -->
<g id="node10" class="node">
<title>Node10</title>
<g id="a_node10"><a xlink:href="fb-image-service_8cpp.html" target="_top" xlink:title=" ">
<polygon fill="none" stroke="black" points="115.5,-73 115.5,-103 255.5,-103 255.5,-73 115.5,-73"/>
<text text-anchor="start" x="123.5" y="-91" font-family="Helvetica,sans-Serif" font-size="10.00">seerep&#45;srv/seerep&#45;server</text>
<text text-anchor="middle" x="185.5" y="-80" font-family="Helvetica,sans-Serif" font-size="10.00">/src/fb&#45;image&#45;service.cpp</text>
</a>
</g>
</g>
<!-- Node7&#45;&gt;Node10 -->
<g id="edge9" class="edge">
<title>Node7&#45;&gt;Node10</title>
<path fill="none" stroke="midnightblue" d="M185.5,-135.28C185.5,-124.25 185.5,-112.25 185.5,-103.23"/>
<polygon fill="midnightblue" stroke="midnightblue" points="182,-135.43 185.5,-145.43 189,-135.43 182,-135.43"/>
</g>
<!-- Node9 -->
<g id="node9" class="node">
<title>Node9</title>
<g id="a_node9"><a xlink:href="server_8cpp.html" target="_top" xlink:title=" ">
<polygon fill="none" stroke="black" points="580,-0.5 580,-30.5 719,-30.5 719,-0.5 580,-0.5"/>
<text text-anchor="start" x="588" y="-18.5" font-family="Helvetica,sans-Serif" font-size="10.00">seerep&#45;srv/seerep&#45;server</text>
<text text-anchor="middle" x="649.5" y="-7.5" font-family="Helvetica,sans-Serif" font-size="10.00">/src/server.cpp</text>
</a>
</g>
</g>
<!-- Node8&#45;&gt;Node9 -->
<g id="edge8" class="edge">
<title>Node8&#45;&gt;Node9</title>
<path fill="none" stroke="midnightblue" d="M649.5,-57.08C649.5,-48.01 649.5,-38.45 649.5,-30.89"/>
<polygon fill="midnightblue" stroke="midnightblue" points="646,-57.36 649.5,-67.36 653,-57.36 646,-57.36"/>
</g>
<!-- Node12 -->
<g id="node12" class="node">
<title>Node12</title>
<g id="a_node12"><a xlink:href="hdf5-fb-point_8cpp.html" target="_top" xlink:title=" ">
<polygon fill="none" stroke="black" points="413,-223.5 413,-264.5 524,-264.5 524,-223.5 413,-223.5"/>
<text text-anchor="start" x="421" y="-252.5" font-family="Helvetica,sans-Serif" font-size="10.00">seerep&#45;hdf5/seerep</text>
<text text-anchor="start" x="421" y="-241.5" font-family="Helvetica,sans-Serif" font-size="10.00">&#45;hdf5&#45;fb/src/hdf5&#45;fb</text>
<text text-anchor="middle" x="468.5" y="-230.5" font-family="Helvetica,sans-Serif" font-size="10.00">&#45;point.cpp</text>
</a>
</g>
</g>
<!-- Node11&#45;&gt;Node12 -->
<g id="edge11" class="edge">
<title>Node11&#45;&gt;Node12</title>
<path fill="none" stroke="midnightblue" d="M561.99,-296.49C543.19,-286.13 521.61,-274.25 503.92,-264.51"/>
<polygon fill="midnightblue" stroke="midnightblue" points="560.51,-299.67 570.96,-301.43 563.89,-293.54 560.51,-299.67"/>
</g>
<!-- Node13 -->
<g id="node13" class="node">
<title>Node13</title>
<g id="a_node13"><a xlink:href="core-fb-point_8h.html" target="_top" xlink:title=" ">
<polygon fill="none" stroke="black" points="542,-223.5 542,-264.5 671,-264.5 671,-223.5 542,-223.5"/>
<text text-anchor="start" x="550" y="-252.5" font-family="Helvetica,sans-Serif" font-size="10.00">seerep&#45;srv/seerep&#45;core</text>
<text text-anchor="start" x="550" y="-241.5" font-family="Helvetica,sans-Serif" font-size="10.00">&#45;fb/include/seerep&#45;core</text>
<text text-anchor="middle" x="606.5" y="-230.5" font-family="Helvetica,sans-Serif" font-size="10.00">&#45;fb/core&#45;fb&#45;point.h</text>
</a>
</g>
</g>
<!-- Node11&#45;&gt;Node13 -->
<g id="edge12" class="edge">
<title>Node11&#45;&gt;Node13</title>
<path fill="none" stroke="midnightblue" d="M606.5,-291.3C606.5,-282.3 606.5,-272.65 606.5,-264.51"/>
<polygon fill="midnightblue" stroke="midnightblue" points="603,-291.43 606.5,-301.43 610,-291.43 603,-291.43"/>
</g>
<!-- Node14 -->
<g id="node14" class="node">
<title>Node14</title>
<g id="a_node14"><a xlink:href="core-fb-point_8cpp.html" target="_top" xlink:title=" ">
<polygon fill="none" stroke="black" points="589.5,-151 589.5,-181 723.5,-181 723.5,-151 589.5,-151"/>
<text text-anchor="start" x="597.5" y="-169" font-family="Helvetica,sans-Serif" font-size="10.00">seerep&#45;srv/seerep&#45;core</text>
<text text-anchor="middle" x="656.5" y="-158" font-family="Helvetica,sans-Serif" font-size="10.00">&#45;fb/src/core&#45;fb&#45;point.cpp</text>
</a>
</g>
</g>
<!-- Node13&#45;&gt;Node14 -->
<g id="edge13" class="edge">
<title>Node13&#45;&gt;Node14</title>
<path fill="none" stroke="midnightblue" d="M624.93,-214.98C632.49,-203.5 640.9,-190.71 647.14,-181.23"/>
<polygon fill="midnightblue" stroke="midnightblue" points="621.95,-213.15 619.38,-223.43 627.8,-217 621.95,-213.15"/>
</g>
<!-- Node15 -->
<g id="node15" class="node">
<title>Node15</title>
<g id="a_node15"><a xlink:href="fb-point-service_8h.html" target="_top" xlink:title=" ">
<polygon fill="none" stroke="black" points="432,-145.5 432,-186.5 571,-186.5 571,-145.5 432,-145.5"/>
<text text-anchor="start" x="440" y="-174.5" font-family="Helvetica,sans-Serif" font-size="10.00">seerep&#45;srv/seerep&#45;server</text>
<text text-anchor="start" x="440" y="-163.5" font-family="Helvetica,sans-Serif" font-size="10.00">/include/seerep&#45;server</text>
<text text-anchor="middle" x="501.5" y="-152.5" font-family="Helvetica,sans-Serif" font-size="10.00">/fb&#45;point&#45;service.h</text>
</a>
</g>
</g>
<!-- Node13&#45;&gt;Node15 -->
<g id="edge14" class="edge">
<title>Node13&#45;&gt;Node15</title>
<path fill="none" stroke="midnightblue" d="M571.06,-217.35C557.14,-207.27 541.42,-195.89 528.45,-186.51"/>
<polygon fill="midnightblue" stroke="midnightblue" points="569.31,-220.4 579.46,-223.43 573.41,-214.73 569.31,-220.4"/>
</g>
<!-- Node15&#45;&gt;Node8 -->
<g id="edge15" class="edge">
<title>Node15&#45;&gt;Node8</title>
<path fill="none" stroke="midnightblue" d="M548.69,-140.77C568.98,-130.35 592.37,-118.34 611.52,-108.51"/>
<polygon fill="midnightblue" stroke="midnightblue" points="546.91,-137.75 539.61,-145.43 550.11,-143.97 546.91,-137.75"/>
</g>
<!-- Node16 -->
<g id="node16" class="node">
<title>Node16</title>
<g id="a_node16"><a xlink:href="fb-point-service_8cpp.html" target="_top" xlink:title=" ">
<polygon fill="none" stroke="black" points="423,-73 423,-103 562,-103 562,-73 423,-73"/>
<text text-anchor="start" x="431" y="-91" font-family="Helvetica,sans-Serif" font-size="10.00">seerep&#45;srv/seerep&#45;server</text>
<text text-anchor="middle" x="492.5" y="-80" font-family="Helvetica,sans-Serif" font-size="10.00">/src/fb&#45;point&#45;service.cpp</text>
</a>
</g>
</g>
<!-- Node15&#45;&gt;Node16 -->
<g id="edge16" class="edge">
<title>Node15&#45;&gt;Node16</title>
<path fill="none" stroke="midnightblue" d="M497.98,-135.28C496.67,-124.25 495.25,-112.25 494.18,-103.23"/>
<polygon fill="midnightblue" stroke="midnightblue" points="494.53,-135.91 499.18,-145.43 501.48,-135.09 494.53,-135.91"/>
</g>
<!-- Node18 -->
<g id="node18" class="node">
<title>Node18</title>
<g id="a_node18"><a xlink:href="hdf5-fb-pointcloud_8cpp.html" target="_top" xlink:title=" ">
<polygon fill="none" stroke="black" points="689,-223.5 689,-264.5 800,-264.5 800,-223.5 689,-223.5"/>
<text text-anchor="start" x="697" y="-252.5" font-family="Helvetica,sans-Serif" font-size="10.00">seerep&#45;hdf5/seerep</text>
<text text-anchor="start" x="697" y="-241.5" font-family="Helvetica,sans-Serif" font-size="10.00">&#45;hdf5&#45;fb/src/hdf5&#45;fb</text>
<text text-anchor="middle" x="744.5" y="-230.5" font-family="Helvetica,sans-Serif" font-size="10.00">&#45;pointcloud.cpp</text>
</a>
</g>
</g>
<!-- Node17&#45;&gt;Node18 -->
<g id="edge18" class="edge">
<title>Node17&#45;&gt;Node18</title>
<path fill="none" stroke="midnightblue" d="M789.55,-293.92C780.61,-284.2 770.7,-273.45 762.47,-264.51"/>
<polygon fill="midnightblue" stroke="midnightblue" points="787.12,-296.44 796.47,-301.43 792.27,-291.7 787.12,-296.44"/>
</g>
<!-- Node19 -->
<g id="node19" class="node">
<title>Node19</title>
<g id="a_node19"><a xlink:href="core-fb-pointcloud_8h.html" target="_top" xlink:title=" ">
<polygon fill="none" stroke="black" points="818,-223.5 818,-264.5 949,-264.5 949,-223.5 818,-223.5"/>
<text text-anchor="start" x="826" y="-252.5" font-family="Helvetica,sans-Serif" font-size="10.00">seerep&#45;srv/seerep&#45;core</text>
<text text-anchor="start" x="826" y="-241.5" font-family="Helvetica,sans-Serif" font-size="10.00">&#45;fb/include/seerep&#45;core</text>
<text text-anchor="middle" x="883.5" y="-230.5" font-family="Helvetica,sans-Serif" font-size="10.00">&#45;fb/core&#45;fb&#45;pointcloud.h</text>
</a>
</g>
</g>
<!-- Node17&#45;&gt;Node19 -->
<g id="edge19" class="edge">
<title>Node17&#45;&gt;Node19</title>
<path fill="none" stroke="midnightblue" d="M839.09,-293.92C847.91,-284.2 857.67,-273.45 865.79,-264.51"/>
<polygon fill="midnightblue" stroke="midnightblue" points="836.4,-291.67 832.27,-301.43 841.58,-296.38 836.4,-291.67"/>
</g>
<!-- Node20 -->
<g id="node20" class="node">
<title>Node20</title>
<g id="a_node20"><a xlink:href="core-fb-pointcloud_8cpp.html" target="_top" xlink:title=" ">
<polygon fill="none" stroke="black" points="899.5,-151 899.5,-181 1059.5,-181 1059.5,-151 899.5,-151"/>
<text text-anchor="start" x="907.5" y="-169" font-family="Helvetica,sans-Serif" font-size="10.00">seerep&#45;srv/seerep&#45;core</text>
<text text-anchor="middle" x="979.5" y="-158" font-family="Helvetica,sans-Serif" font-size="10.00">&#45;fb/src/core&#45;fb&#45;pointcloud.cpp</text>
</a>
</g>
</g>
<!-- Node19&#45;&gt;Node20 -->
<g id="edge20" class="edge">
<title>Node19&#45;&gt;Node20</title>
<path fill="none" stroke="midnightblue" d="M916.35,-216.99C931.48,-205.02 948.84,-191.27 961.53,-181.23"/>
<polygon fill="midnightblue" stroke="midnightblue" points="913.89,-214.48 908.22,-223.43 918.24,-219.97 913.89,-214.48"/>
</g>
<!-- Node21 -->
<g id="node21" class="node">
<title>Node21</title>
<g id="a_node21"><a xlink:href="fb-point-cloud-service_8h.html" target="_top" xlink:title=" ">
<polygon fill="none" stroke="black" points="742,-145.5 742,-186.5 881,-186.5 881,-145.5 742,-145.5"/>
<text text-anchor="start" x="750" y="-174.5" font-family="Helvetica,sans-Serif" font-size="10.00">seerep&#45;srv/seerep&#45;server</text>
<text text-anchor="start" x="750" y="-163.5" font-family="Helvetica,sans-Serif" font-size="10.00">/include/seerep&#45;server</text>
<text text-anchor="middle" x="811.5" y="-152.5" font-family="Helvetica,sans-Serif" font-size="10.00">/fb&#45;point&#45;cloud&#45;service.h</text>
</a>
</g>
</g>
<!-- Node19&#45;&gt;Node21 -->
<g id="edge21" class="edge">
<title>Node19&#45;&gt;Node21</title>
<path fill="none" stroke="midnightblue" d="M857.84,-215.92C848.64,-206.2 838.45,-195.45 829.98,-186.51"/>
<polygon fill="midnightblue" stroke="midnightblue" points="855.54,-218.58 864.96,-223.43 860.62,-213.76 855.54,-218.58"/>
</g>
<!-- Node21&#45;&gt;Node8 -->
<g id="edge22" class="edge">
<title>Node21&#45;&gt;Node8</title>
<path fill="none" stroke="midnightblue" d="M760.45,-141.05C738.1,-130.57 712.22,-118.42 691.08,-108.51"/>
<polygon fill="midnightblue" stroke="midnightblue" points="759.24,-144.35 769.78,-145.43 762.21,-138.01 759.24,-144.35"/>
</g>
<!-- Node22 -->
<g id="node22" class="node">
<title>Node22</title>
<g id="a_node22"><a xlink:href="fb-point-cloud-service_8cpp.html" target="_top" xlink:title=" ">
<polygon fill="none" stroke="black" points="737.5,-73 737.5,-103 901.5,-103 901.5,-73 737.5,-73"/>
<text text-anchor="start" x="745.5" y="-91" font-family="Helvetica,sans-Serif" font-size="10.00">seerep&#45;srv/seerep&#45;server</text>
<text text-anchor="middle" x="819.5" y="-80" font-family="Helvetica,sans-Serif" font-size="10.00">/src/fb&#45;point&#45;cloud&#45;service.cpp</text>
</a>
</g>
</g>
<!-- Node21&#45;&gt;Node22 -->
<g id="edge23" class="edge">
<title>Node21&#45;&gt;Node22</title>
<path fill="none" stroke="midnightblue" d="M814.63,-135.28C815.79,-124.25 817.05,-112.25 818,-103.23"/>
<polygon fill="midnightblue" stroke="midnightblue" points="811.13,-135.12 813.56,-145.43 818.09,-135.85 811.13,-135.12"/>
</g>
<!-- Node24 -->
<g id="node24" class="node">
<title>Node24</title>
<g id="a_node24"><a xlink:href="hdf5-fb-tf_8cpp.html" target="_top" xlink:title=" ">
<polygon fill="none" stroke="black" points="967,-223.5 967,-264.5 1078,-264.5 1078,-223.5 967,-223.5"/>
<text text-anchor="start" x="975" y="-252.5" font-family="Helvetica,sans-Serif" font-size="10.00">seerep&#45;hdf5/seerep</text>
<text text-anchor="start" x="975" y="-241.5" font-family="Helvetica,sans-Serif" font-size="10.00">&#45;hdf5&#45;fb/src/hdf5&#45;fb</text>
<text text-anchor="middle" x="1022.5" y="-230.5" font-family="Helvetica,sans-Serif" font-size="10.00">&#45;tf.cpp</text>
</a>
</g>
</g>
<!-- Node23&#45;&gt;Node24 -->
<g id="edge25" class="edge">
<title>Node23&#45;&gt;Node24</title>
<path fill="none" stroke="midnightblue" d="M1008.4,-291.59C1011.15,-282.51 1014.1,-272.74 1016.6,-264.51"/>
<polygon fill="midnightblue" stroke="midnightblue" points="1004.97,-290.84 1005.42,-301.43 1011.67,-292.87 1004.97,-290.84"/>
</g>
<!-- Node25 -->
<g id="node25" class="node">
<title>Node25</title>
<g id="a_node25"><a xlink:href="core-fb-tf_8h.html" target="_top" xlink:title=" ">
<polygon fill="none" stroke="black" points="1096,-223.5 1096,-264.5 1225,-264.5 1225,-223.5 1096,-223.5"/>
<text text-anchor="start" x="1104" y="-252.5" font-family="Helvetica,sans-Serif" font-size="10.00">seerep&#45;srv/seerep&#45;core</text>
<text text-anchor="start" x="1104" y="-241.5" font-family="Helvetica,sans-Serif" font-size="10.00">&#45;fb/include/seerep&#45;core</text>
<text text-anchor="middle" x="1160.5" y="-230.5" font-family="Helvetica,sans-Serif" font-size="10.00">&#45;fb/core&#45;fb&#45;tf.h</text>
</a>
</g>
</g>
<!-- Node23&#45;&gt;Node25 -->
<g id="edge26" class="edge">
<title>Node23&#45;&gt;Node25</title>
<path fill="none" stroke="midnightblue" d="M1050.24,-297.05C1072.44,-286.57 1098.17,-274.42 1119.18,-264.51"/>
<polygon fill="midnightblue" stroke="midnightblue" points="1048.51,-293.99 1040.96,-301.43 1051.5,-300.32 1048.51,-293.99"/>
</g>
<!-- Node26 -->
<g id="node26" class="node">
<title>Node26</title>
<g id="a_node26"><a xlink:href="core-fb-tf_8cpp.html" target="_top" xlink:title=" ">
<polygon fill="none" stroke="black" points="1235,-151 1235,-181 1364,-181 1364,-151 1235,-151"/>
<text text-anchor="start" x="1243" y="-169" font-family="Helvetica,sans-Serif" font-size="10.00">seerep&#45;srv/seerep&#45;core</text>
<text text-anchor="middle" x="1299.5" y="-158" font-family="Helvetica,sans-Serif" font-size="10.00">&#45;fb/src/core&#45;fb&#45;tf.cpp</text>
</a>
</g>
</g>
<!-- Node25&#45;&gt;Node26 -->
<g id="edge27" class="edge">
<title>Node25&#45;&gt;Node26</title>
<path fill="none" stroke="midnightblue" d="M1205.35,-218.48C1227.86,-206.17 1254.35,-191.69 1273.48,-181.23"/>
<polygon fill="midnightblue" stroke="midnightblue" points="1203.39,-215.56 1196.3,-223.43 1206.75,-221.7 1203.39,-215.56"/>
</g>
<!-- Node27 -->
<g id="node27" class="node">
<title>Node27</title>
<g id="a_node27"><a xlink:href="fb-tf-service_8h.html" target="_top" xlink:title=" ">
<polygon fill="none" stroke="black" points="1078,-145.5 1078,-186.5 1217,-186.5 1217,-145.5 1078,-145.5"/>
<text text-anchor="start" x="1086" y="-174.5" font-family="Helvetica,sans-Serif" font-size="10.00">seerep&#45;srv/seerep&#45;server</text>
<text text-anchor="start" x="1086" y="-163.5" font-family="Helvetica,sans-Serif" font-size="10.00">/include/seerep&#45;server</text>
<text text-anchor="middle" x="1147.5" y="-152.5" font-family="Helvetica,sans-Serif" font-size="10.00">/fb&#45;tf&#45;service.h</text>
</a>
</g>
</g>
<!-- Node25&#45;&gt;Node27 -->
<g id="edge28" class="edge">
<title>Node25&#45;&gt;Node27</title>
<path fill="none" stroke="midnightblue" d="M1155.42,-213.3C1153.88,-204.3 1152.23,-194.65 1150.84,-186.51"/>
<polygon fill="midnightblue" stroke="midnightblue" points="1152.02,-214.16 1157.15,-223.43 1158.92,-212.98 1152.02,-214.16"/>
</g>
<!-- Node27&#45;&gt;Node8 -->
<g id="edge29" class="edge">
<title>Node27&#45;&gt;Node8</title>
<path fill="none" stroke="midnightblue" d="M1067.75,-145.01C917.11,-119.01 874.88,-135.14 728.5,-109 725.44,-108.45 722.32,-107.85 719.17,-107.21"/>
<polygon fill="midnightblue" stroke="midnightblue" points="1067.37,-148.5 1077.83,-146.79 1068.59,-141.61 1067.37,-148.5"/>
</g>
<!-- Node28 -->
<g id="node28" class="node">
<title>Node28</title>
<g id="a_node28"><a xlink:href="fb-tf-service_8cpp.html" target="_top" xlink:title=" ">
<polygon fill="none" stroke="black" points="1078,-73 1078,-103 1217,-103 1217,-73 1078,-73"/>
<text text-anchor="start" x="1086" y="-91" font-family="Helvetica,sans-Serif" font-size="10.00">seerep&#45;srv/seerep&#45;server</text>
<text text-anchor="middle" x="1147.5" y="-80" font-family="Helvetica,sans-Serif" font-size="10.00">/src/fb&#45;tf&#45;service.cpp</text>
</a>
</g>
</g>
<!-- Node27&#45;&gt;Node28 -->
<g id="edge30" class="edge">
<title>Node27&#45;&gt;Node28</title>
<path fill="none" stroke="midnightblue" d="M1147.5,-135.28C1147.5,-124.25 1147.5,-112.25 1147.5,-103.23"/>
<polygon fill="midnightblue" stroke="midnightblue" points="1144,-135.43 1147.5,-145.43 1151,-135.43 1144,-135.43"/>
</g>
</g>
</svg>
