<?xml version="1.0" encoding="UTF-8" standalone="no"?>
<!DOCTYPE svg PUBLIC "-//W3C//DTD SVG 1.1//EN"
 "http://www.w3.org/Graphics/SVG/1.1/DTD/svg11.dtd">
<!-- Generated by graphviz version 2.43.0 (0)
 -->
<!-- Title: seerep&#45;hdf5/seerep&#45;hdf5&#45;pb/src/hdf5&#45;pb&#45;tf.cpp Pages: 1 -->
<svg width="1347pt" height="318pt"
 viewBox="0.00 0.00 1347.00 318.00" xmlns="http://www.w3.org/2000/svg" xmlns:xlink="http://www.w3.org/1999/xlink">
<g id="graph0" class="graph" transform="scale(1 1) rotate(0) translate(4 314)">
<title>seerep&#45;hdf5/seerep&#45;hdf5&#45;pb/src/hdf5&#45;pb&#45;tf.cpp</title>
<!-- Node1 -->
<g id="node1" class="node">
<title>Node1</title>
<g id="a_node1"><a xlink:title=" ">
<polygon fill="#bfbfbf" stroke="black" points="1144,-268.5 1144,-309.5 1260,-309.5 1260,-268.5 1144,-268.5"/>
<text text-anchor="start" x="1152" y="-297.5" font-family="Helvetica,sans-Serif" font-size="10.00">seerep&#45;hdf5/seerep</text>
<text text-anchor="start" x="1152" y="-286.5" font-family="Helvetica,sans-Serif" font-size="10.00">&#45;hdf5&#45;pb/src/hdf5&#45;pb</text>
<text text-anchor="middle" x="1202" y="-275.5" font-family="Helvetica,sans-Serif" font-size="10.00">&#45;tf.cpp</text>
</a>
</g>
</g>
<!-- Node2 -->
<g id="node2" class="node">
<title>Node2</title>
<g id="a_node2"><a xlink:href="hdf5-pb-tf_8h.html" target="_top" xlink:title=" ">
<polygon fill="none" stroke="black" points="1073,-201.5 1073,-231.5 1189,-231.5 1189,-201.5 1073,-201.5"/>
<text text-anchor="start" x="1081" y="-219.5" font-family="Helvetica,sans-Serif" font-size="10.00">seerep&#45;hdf5&#45;pb/hdf5</text>
<text text-anchor="middle" x="1131" y="-208.5" font-family="Helvetica,sans-Serif" font-size="10.00">&#45;pb&#45;tf.h</text>
</a>
</g>
</g>
<!-- Node1&#45;&gt;Node2 -->
<g id="edge1" class="edge">
<title>Node1&#45;&gt;Node2</title>
<path fill="none" stroke="midnightblue" d="M1182.22,-268.36C1173.03,-259.23 1162.07,-248.35 1152.65,-239"/>
<polygon fill="midnightblue" stroke="midnightblue" points="1155.06,-236.45 1145.49,-231.89 1150.12,-241.42 1155.06,-236.45"/>
</g>
<!-- Node21 -->
<g id="node21" class="node">
<title>Node21</title>
<g id="a_node21"><a xlink:title=" ">
<polygon fill="none" stroke="#bfbfbf" points="1207,-207 1207,-226 1339,-226 1339,-207 1207,-207"/>
<text text-anchor="middle" x="1273" y="-214" font-family="Helvetica,sans-Serif" font-size="10.00">highfive/H5DataSet.hpp</text>
</a>
</g>
</g>
<!-- Node1&#45;&gt;Node21 -->
<g id="edge28" class="edge">
<title>Node1&#45;&gt;Node21</title>
<path fill="none" stroke="midnightblue" d="M1221.78,-268.36C1232.89,-257.32 1246.59,-243.72 1257.02,-233.37"/>
<polygon fill="midnightblue" stroke="midnightblue" points="1259.64,-235.7 1264.27,-226.17 1254.7,-230.74 1259.64,-235.7"/>
</g>
<!-- Node3 -->
<g id="node3" class="node">
<title>Node3</title>
<g id="a_node3"><a xlink:title=" ">
<polygon fill="none" stroke="#bfbfbf" points="0,-6 0,-25 110,-25 110,-6 0,-6"/>
<text text-anchor="middle" x="55" y="-13" font-family="Helvetica,sans-Serif" font-size="10.00">highfive/H5File.hpp</text>
</a>
</g>
</g>
<!-- Node2&#45;&gt;Node3 -->
<g id="edge2" class="edge">
<title>Node2&#45;&gt;Node3</title>
<path fill="none" stroke="midnightblue" d="M1072.98,-212.48C865.16,-201.21 166.13,-159.03 88,-98 68.48,-82.75 60.45,-54.1 57.18,-35.15"/>
<polygon fill="midnightblue" stroke="midnightblue" points="60.62,-34.46 55.73,-25.06 53.69,-35.45 60.62,-34.46"/>
</g>
<!-- Node4 -->
<g id="node4" class="node">
<title>Node4</title>
<g id="a_node4"><a xlink:href="hdf5-pb-general_8h.html" target="_top" xlink:title=" ">
<polygon fill="none" stroke="black" points="572,-134.5 572,-164.5 688,-164.5 688,-134.5 572,-134.5"/>
<text text-anchor="start" x="580" y="-152.5" font-family="Helvetica,sans-Serif" font-size="10.00">seerep&#45;hdf5&#45;pb/hdf5</text>
<text text-anchor="middle" x="630" y="-141.5" font-family="Helvetica,sans-Serif" font-size="10.00">&#45;pb&#45;general.h</text>
</a>
</g>
</g>
<!-- Node2&#45;&gt;Node4 -->
<g id="edge3" class="edge">
<title>Node2&#45;&gt;Node4</title>
<path fill="none" stroke="midnightblue" d="M1072.55,-207.92C979.31,-195.82 797.36,-172.21 698.28,-159.36"/>
<polygon fill="midnightblue" stroke="midnightblue" points="698.45,-155.85 688.08,-158.04 697.55,-162.79 698.45,-155.85"/>
</g>
<!-- Node8 -->
<g id="node8" class="node">
<title>Node8</title>
<g id="a_node8"><a xlink:title=" ">
<polygon fill="none" stroke="#bfbfbf" points="1116.5,-6 1116.5,-25 1229.5,-25 1229.5,-6 1116.5,-6"/>
<text text-anchor="middle" x="1173" y="-13" font-family="Helvetica,sans-Serif" font-size="10.00">boost/geometry.hpp</text>
</a>
</g>
</g>
<!-- Node2&#45;&gt;Node8 -->
<g id="edge26" class="edge">
<title>Node2&#45;&gt;Node8</title>
<path fill="none" stroke="midnightblue" d="M1135.24,-201.43C1138.2,-191.35 1142.12,-177.41 1145,-165 1155.76,-118.73 1165.3,-63.63 1169.97,-35.33"/>
<polygon fill="midnightblue" stroke="midnightblue" points="1173.46,-35.69 1171.61,-25.26 1166.55,-34.56 1173.46,-35.69"/>
</g>
<!-- Node10 -->
<g id="node10" class="node">
<title>Node10</title>
<g id="a_node10"><a xlink:title=" ">
<polygon fill="none" stroke="#bfbfbf" points="1042,-6 1042,-25 1098,-25 1098,-6 1042,-6"/>
<text text-anchor="middle" x="1070" y="-13" font-family="Helvetica,sans-Serif" font-size="10.00">optional</text>
</a>
</g>
</g>
<!-- Node2&#45;&gt;Node10 -->
<g id="edge27" class="edge">
<title>Node2&#45;&gt;Node10</title>
<path fill="none" stroke="midnightblue" d="M1126.61,-201.19C1115.78,-165.83 1087.75,-74.39 1075.67,-35"/>
<polygon fill="midnightblue" stroke="midnightblue" points="1078.99,-33.9 1072.72,-25.36 1072.3,-35.95 1078.99,-33.9"/>
</g>
<!-- Node20 -->
<g id="node20" class="node">
<title>Node20</title>
<g id="a_node20"><a xlink:title=" ">
<polygon fill="none" stroke="#bfbfbf" points="1197.5,-134.5 1197.5,-164.5 1328.5,-164.5 1328.5,-134.5 1197.5,-134.5"/>
<text text-anchor="start" x="1205.5" y="-152.5" font-family="Helvetica,sans-Serif" font-size="10.00">seerep&#45;msgs/transform</text>
<text text-anchor="middle" x="1263" y="-141.5" font-family="Helvetica,sans-Serif" font-size="10.00">_stamped.pb.h</text>
</a>
</g>
</g>
<!-- Node2&#45;&gt;Node20 -->
<g id="edge25" class="edge">
<title>Node2&#45;&gt;Node20</title>
<path fill="none" stroke="midnightblue" d="M1159.64,-201.4C1178.84,-191.94 1204.33,-179.39 1225.19,-169.12"/>
<polygon fill="midnightblue" stroke="midnightblue" points="1226.99,-172.13 1234.41,-164.58 1223.9,-165.85 1226.99,-172.13"/>
</g>
<!-- Node4&#45;&gt;Node3 -->
<g id="edge4" class="edge">
<title>Node4&#45;&gt;Node3</title>
<path fill="none" stroke="midnightblue" d="M571.93,-147.87C456.84,-145.79 204.33,-136.8 128,-98 99.61,-83.57 77.09,-53.08 64.93,-33.76"/>
<polygon fill="midnightblue" stroke="midnightblue" points="67.84,-31.81 59.68,-25.05 61.85,-35.42 67.84,-31.81"/>
</g>
<!-- Node5 -->
<g id="node5" class="node">
<title>Node5</title>
<g id="a_node5"><a xlink:href="hdf5-core-general_8h.html" target="_top" xlink:title=" ">
<polygon fill="none" stroke="black" points="901.5,-67.5 901.5,-97.5 1026.5,-97.5 1026.5,-67.5 901.5,-67.5"/>
<text text-anchor="start" x="909.5" y="-85.5" font-family="Helvetica,sans-Serif" font-size="10.00">seerep&#45;hdf5&#45;core/hdf5</text>
<text text-anchor="middle" x="964" y="-74.5" font-family="Helvetica,sans-Serif" font-size="10.00">&#45;core&#45;general.h</text>
</a>
</g>
</g>
<!-- Node4&#45;&gt;Node5 -->
<g id="edge5" class="edge">
<title>Node4&#45;&gt;Node5</title>
<path fill="none" stroke="midnightblue" d="M688.04,-137.46C738.87,-127.75 815.01,-113.14 890.95,-98.2"/>
<polygon fill="midnightblue" stroke="midnightblue" points="892.04,-101.55 901.18,-96.18 890.69,-94.68 892.04,-101.55"/>
</g>
<!-- Node4&#45;&gt;Node8 -->
<g id="edge19" class="edge">
<title>Node4&#45;&gt;Node8</title>
<path fill="none" stroke="midnightblue" d="M688.28,-145.34C789.76,-139.22 994.43,-124.04 1061,-98 1099.58,-82.91 1136.95,-51.22 1157.27,-32.11"/>
<polygon fill="midnightblue" stroke="midnightblue" points="1159.88,-34.46 1164.66,-25 1155.03,-29.41 1159.88,-34.46"/>
</g>
<!-- Node4&#45;&gt;Node10 -->
<g id="edge21" class="edge">
<title>Node4&#45;&gt;Node10</title>
<path fill="none" stroke="midnightblue" d="M688.28,-148.27C787.25,-146.76 982.62,-138.55 1036,-98 1055.81,-82.95 1064.16,-54.24 1067.63,-35.23"/>
<polygon fill="midnightblue" stroke="midnightblue" points="1071.13,-35.51 1069.18,-25.1 1064.21,-34.45 1071.13,-35.51"/>
</g>
<!-- Node12 -->
<g id="node12" class="node">
<title>Node12</title>
<g id="a_node12"><a xlink:title=" ">
<polygon fill="none" stroke="#bfbfbf" points="135.5,-0.5 135.5,-30.5 280.5,-30.5 280.5,-0.5 135.5,-0.5"/>
<text text-anchor="start" x="143.5" y="-18.5" font-family="Helvetica,sans-Serif" font-size="10.00">boost/log/sources/severity</text>
<text text-anchor="middle" x="208" y="-7.5" font-family="Helvetica,sans-Serif" font-size="10.00">_logger.hpp</text>
</a>
</g>
</g>
<!-- Node4&#45;&gt;Node12 -->
<g id="edge22" class="edge">
<title>Node4&#45;&gt;Node12</title>
<path fill="none" stroke="midnightblue" d="M571.6,-146.8C447.71,-142.58 167.53,-129.61 139,-98 120.25,-77.23 147.6,-52.62 173.2,-35.92"/>
<polygon fill="midnightblue" stroke="midnightblue" points="175.12,-38.84 181.75,-30.57 171.41,-32.91 175.12,-38.84"/>
</g>
<!-- Node13 -->
<g id="node13" class="node">
<title>Node13</title>
<g id="a_node13"><a xlink:title=" ">
<polygon fill="none" stroke="#bfbfbf" points="312,-6 312,-25 426,-25 426,-6 312,-6"/>
<text text-anchor="middle" x="369" y="-13" font-family="Helvetica,sans-Serif" font-size="10.00">boost/log/trivial.hpp</text>
</a>
</g>
</g>
<!-- Node4&#45;&gt;Node13 -->
<g id="edge23" class="edge">
<title>Node4&#45;&gt;Node13</title>
<path fill="none" stroke="midnightblue" d="M571.98,-146.66C450.4,-142.21 177.79,-128.86 150,-98 140.78,-87.76 141.42,-77.78 150,-67 155.24,-60.42 252.88,-39.77 316,-27.01"/>
<polygon fill="midnightblue" stroke="midnightblue" points="316.7,-30.44 325.81,-25.03 315.32,-23.57 316.7,-30.44"/>
</g>
<!-- Node15 -->
<g id="node15" class="node">
<title>Node15</title>
<g id="a_node15"><a xlink:title=" ">
<polygon fill="none" stroke="#bfbfbf" points="159,-67.5 159,-97.5 317,-97.5 317,-67.5 159,-67.5"/>
<text text-anchor="start" x="167" y="-85.5" font-family="Helvetica,sans-Serif" font-size="10.00">seerep&#45;msgs/boundingbox2d</text>
<text text-anchor="middle" x="238" y="-74.5" font-family="Helvetica,sans-Serif" font-size="10.00">_labeled.pb.h</text>
</a>
</g>
</g>
<!-- Node4&#45;&gt;Node15 -->
<g id="edge16" class="edge">
<title>Node4&#45;&gt;Node15</title>
<path fill="none" stroke="midnightblue" d="M571.74,-138.84C507.13,-128.13 402.16,-110.72 327.2,-98.29"/>
<polygon fill="midnightblue" stroke="midnightblue" points="327.73,-94.83 317.29,-96.65 326.58,-101.74 327.73,-94.83"/>
</g>
<!-- Node16 -->
<g id="node16" class="node">
<title>Node16</title>
<g id="a_node16"><a xlink:title=" ">
<polygon fill="none" stroke="#bfbfbf" points="335,-67.5 335,-97.5 481,-97.5 481,-67.5 335,-67.5"/>
<text text-anchor="start" x="343" y="-85.5" font-family="Helvetica,sans-Serif" font-size="10.00">seerep&#45;msgs/boundingbox</text>
<text text-anchor="middle" x="408" y="-74.5" font-family="Helvetica,sans-Serif" font-size="10.00">_labeled.pb.h</text>
</a>
</g>
</g>
<!-- Node4&#45;&gt;Node16 -->
<g id="edge17" class="edge">
<title>Node4&#45;&gt;Node16</title>
<path fill="none" stroke="midnightblue" d="M582.1,-134.48C548.08,-124.51 502.22,-111.09 466.1,-100.51"/>
<polygon fill="midnightblue" stroke="midnightblue" points="466.77,-97.06 456.19,-97.61 464.81,-103.78 466.77,-97.06"/>
</g>
<!-- Node17 -->
<g id="node17" class="node">
<title>Node17</title>
<g id="a_node17"><a xlink:title=" ">
<polygon fill="none" stroke="#bfbfbf" points="499,-73 499,-92 639,-92 639,-73 499,-73"/>
<text text-anchor="middle" x="569" y="-80" font-family="Helvetica,sans-Serif" font-size="10.00">seerep&#45;msgs/header.pb.h</text>
</a>
</g>
</g>
<!-- Node4&#45;&gt;Node17 -->
<g id="edge18" class="edge">
<title>Node4&#45;&gt;Node17</title>
<path fill="none" stroke="midnightblue" d="M616.76,-134.4C607.16,-124.16 594.15,-110.3 584.13,-99.62"/>
<polygon fill="midnightblue" stroke="midnightblue" points="586.55,-97.09 577.16,-92.19 581.45,-101.88 586.55,-97.09"/>
</g>
<!-- Node18 -->
<g id="node18" class="node">
<title>Node18</title>
<g id="a_node18"><a xlink:title=" ">
<polygon fill="none" stroke="#bfbfbf" points="657,-73 657,-92 725,-92 725,-73 657,-73"/>
<text text-anchor="middle" x="691" y="-80" font-family="Helvetica,sans-Serif" font-size="10.00">filesystem</text>
</a>
</g>
</g>
<!-- Node4&#45;&gt;Node18 -->
<g id="edge20" class="edge">
<title>Node4&#45;&gt;Node18</title>
<path fill="none" stroke="midnightblue" d="M643.24,-134.4C652.84,-124.16 665.85,-110.3 675.87,-99.62"/>
<polygon fill="midnightblue" stroke="midnightblue" points="678.55,-101.88 682.84,-92.19 673.45,-97.09 678.55,-101.88"/>
</g>
<!-- Node19 -->
<g id="node19" class="node">
<title>Node19</title>
<g id="a_node19"><a xlink:title=" ">
<polygon fill="none" stroke="#bfbfbf" points="743,-73 743,-92 883,-92 883,-73 743,-73"/>
<text text-anchor="middle" x="813" y="-80" font-family="Helvetica,sans-Serif" font-size="10.00">impl/hdf5&#45;pb&#45;general.hpp</text>
</a>
</g>
</g>
<!-- Node4&#45;&gt;Node19 -->
<g id="edge24" class="edge">
<title>Node4&#45;&gt;Node19</title>
<path fill="none" stroke="midnightblue" d="M669.71,-134.4C702.53,-122.74 748.6,-106.37 779.56,-95.38"/>
<polygon fill="midnightblue" stroke="midnightblue" points="780.8,-98.65 789.05,-92.01 778.45,-92.06 780.8,-98.65"/>
</g>
<!-- Node5&#45;&gt;Node3 -->
<g id="edge6" class="edge">
<title>Node5&#45;&gt;Node3</title>
<path fill="none" stroke="midnightblue" d="M901.26,-68.28C898.14,-67.81 895.04,-67.38 892,-67 554.19,-25.28 464.81,-72.72 127,-31 118.81,-29.99 110.17,-28.56 101.81,-27"/>
<polygon fill="midnightblue" stroke="midnightblue" points="102.31,-23.53 91.82,-25.03 100.96,-30.4 102.31,-23.53"/>
</g>
<!-- Node6 -->
<g id="node6" class="node">
<title>Node6</title>
<g id="a_node6"><a xlink:title=" ">
<polygon fill="none" stroke="#bfbfbf" points="770,-6 770,-25 886,-25 886,-6 770,-6"/>
<text text-anchor="middle" x="828" y="-13" font-family="Helvetica,sans-Serif" font-size="10.00">seerep&#45;msgs/aabb.h</text>
</a>
</g>
</g>
<!-- Node5&#45;&gt;Node6 -->
<g id="edge7" class="edge">
<title>Node5&#45;&gt;Node6</title>
<path fill="none" stroke="midnightblue" d="M934.49,-67.4C910.84,-56.09 877.92,-40.36 854.97,-29.39"/>
<polygon fill="midnightblue" stroke="midnightblue" points="856.33,-26.16 845.8,-25.01 853.31,-32.48 856.33,-26.16"/>
</g>
<!-- Node7 -->
<g id="node7" class="node">
<title>Node7</title>
<g id="a_node7"><a xlink:title=" ">
<polygon fill="none" stroke="#bfbfbf" points="904.5,-0.5 904.5,-30.5 1023.5,-30.5 1023.5,-0.5 904.5,-0.5"/>
<text text-anchor="start" x="912.5" y="-18.5" font-family="Helvetica,sans-Serif" font-size="10.00">seerep&#45;msgs/dataset</text>
<text text-anchor="middle" x="964" y="-7.5" font-family="Helvetica,sans-Serif" font-size="10.00">&#45;indexable.h</text>
</a>
</g>
</g>
<!-- Node5&#45;&gt;Node7 -->
<g id="edge8" class="edge">
<title>Node5&#45;&gt;Node7</title>
<path fill="none" stroke="midnightblue" d="M964,-67.4C964,-59.64 964,-49.81 964,-40.86"/>
<polygon fill="midnightblue" stroke="midnightblue" points="967.5,-40.58 964,-30.58 960.5,-40.58 967.5,-40.58"/>
</g>
<!-- Node5&#45;&gt;Node8 -->
<g id="edge9" class="edge">
<title>Node5&#45;&gt;Node8</title>
<path fill="none" stroke="midnightblue" d="M1009.09,-67.48C1046.88,-55.72 1100.19,-39.14 1135.64,-28.12"/>
<polygon fill="midnightblue" stroke="midnightblue" points="1137.07,-31.34 1145.58,-25.03 1134.99,-24.66 1137.07,-31.34"/>
</g>
<!-- Node9 -->
<g id="node9" class="node">
<title>Node9</title>
<g id="a_node9"><a xlink:title=" ">
<polygon fill="none" stroke="#bfbfbf" points="450,-6 450,-25 498,-25 498,-6 450,-6"/>
<text text-anchor="middle" x="474" y="-13" font-family="Helvetica,sans-Serif" font-size="10.00">mutex</text>
</a>
</g>
</g>
<!-- Node5&#45;&gt;Node9 -->
<g id="edge10" class="edge">
<title>Node5&#45;&gt;Node9</title>
<path fill="none" stroke="midnightblue" d="M901.24,-68.46C898.12,-67.93 895.03,-67.45 892,-67 722.41,-42.04 674.16,-73.13 508,-31 505.64,-30.4 503.23,-29.66 500.84,-28.83"/>
<polygon fill="midnightblue" stroke="midnightblue" points="501.87,-25.48 491.29,-25.09 499.32,-32 501.87,-25.48"/>
</g>
<!-- Node5&#45;&gt;Node10 -->
<g id="edge11" class="edge">
<title>Node5&#45;&gt;Node10</title>
<path fill="none" stroke="midnightblue" d="M987,-67.4C1004.94,-56.39 1029.72,-41.2 1047.52,-30.28"/>
<polygon fill="midnightblue" stroke="midnightblue" points="1049.43,-33.22 1056.13,-25.01 1045.77,-27.25 1049.43,-33.22"/>
</g>
<!-- Node11 -->
<g id="node11" class="node">
<title>Node11</title>
<g id="a_node11"><a xlink:title=" ">
<polygon fill="none" stroke="#bfbfbf" points="516.5,-6 516.5,-25 585.5,-25 585.5,-6 516.5,-6"/>
<text text-anchor="middle" x="551" y="-13" font-family="Helvetica,sans-Serif" font-size="10.00">type_traits</text>
</a>
</g>
</g>
<!-- Node5&#45;&gt;Node11 -->
<g id="edge12" class="edge">
<title>Node5&#45;&gt;Node11</title>
<path fill="none" stroke="midnightblue" d="M901.22,-68.56C898.11,-68.01 895.02,-67.49 892,-67 760.73,-45.86 724.78,-59.95 595,-31 591.33,-30.18 587.53,-29.18 583.78,-28.09"/>
<polygon fill="midnightblue" stroke="midnightblue" points="584.64,-24.69 574.05,-25.05 582.55,-31.37 584.64,-24.69"/>
</g>
<!-- Node5&#45;&gt;Node12 -->
<g id="edge13" class="edge">
<title>Node5&#45;&gt;Node12</title>
<path fill="none" stroke="midnightblue" d="M901.26,-68.34C898.13,-67.85 895.03,-67.4 892,-67 631.94,-33.03 563.79,-58.81 303,-31 298.89,-30.56 294.69,-30.07 290.46,-29.55"/>
<polygon fill="midnightblue" stroke="midnightblue" points="290.89,-26.08 280.53,-28.26 289.99,-33.02 290.89,-26.08"/>
</g>
<!-- Node5&#45;&gt;Node13 -->
<g id="edge14" class="edge">
<title>Node5&#45;&gt;Node13</title>
<path fill="none" stroke="midnightblue" d="M901.25,-68.4C898.13,-67.9 895.03,-67.42 892,-67 692.86,-39.1 640.14,-58.9 441,-31 433.19,-29.91 424.94,-28.49 416.94,-26.98"/>
<polygon fill="midnightblue" stroke="midnightblue" points="417.46,-23.52 406.97,-25.03 416.11,-30.38 417.46,-23.52"/>
</g>
<!-- Node14 -->
<g id="node14" class="node">
<title>Node14</title>
<g id="a_node14"><a xlink:title=" ">
<polygon fill="none" stroke="#bfbfbf" points="603.5,-6 603.5,-25 752.5,-25 752.5,-6 603.5,-6"/>
<text text-anchor="middle" x="678" y="-13" font-family="Helvetica,sans-Serif" font-size="10.00">impl/hdf5&#45;core&#45;general.hpp</text>
</a>
</g>
</g>
<!-- Node5&#45;&gt;Node14 -->
<g id="edge15" class="edge">
<title>Node5&#45;&gt;Node14</title>
<path fill="none" stroke="midnightblue" d="M902.29,-67.48C849.25,-55.42 773.86,-38.29 725.43,-27.28"/>
<polygon fill="midnightblue" stroke="midnightblue" points="726.05,-23.83 715.53,-25.03 724.5,-30.66 726.05,-23.83"/>
</g>
</g>
</svg>
