<?xml version="1.0" encoding="UTF-8" standalone="no"?>
<!DOCTYPE svg PUBLIC "-//W3C//DTD SVG 1.1//EN"
 "http://www.w3.org/Graphics/SVG/1.1/DTD/svg11.dtd">
<!-- Generated by graphviz version 2.43.0 (0)
 -->
<!-- Title: seerep&#45;hdf5/seerep&#45;hdf5&#45;pb/include/seerep&#45;hdf5&#45;pb/hdf5&#45;pb&#45;tf.h Pages: 1 -->
<svg width="433pt" height="351pt"
 viewBox="0.00 0.00 432.50 351.00" xmlns="http://www.w3.org/2000/svg" xmlns:xlink="http://www.w3.org/1999/xlink">
<g id="graph0" class="graph" transform="scale(1 1) rotate(0) translate(4 347)">
<title>seerep&#45;hdf5/seerep&#45;hdf5&#45;pb/include/seerep&#45;hdf5&#45;pb/hdf5&#45;pb&#45;tf.h</title>
<!-- Node1 -->
<g id="node1" class="node">
<title>Node1</title>
<g id="a_node1"><a xlink:title=" ">
<polygon fill="#bfbfbf" stroke="black" points="63,-301.5 63,-342.5 195,-342.5 195,-301.5 63,-301.5"/>
<text text-anchor="start" x="71" y="-330.5" font-family="Helvetica,sans-Serif" font-size="10.00">seerep&#45;hdf5/seerep</text>
<text text-anchor="start" x="71" y="-319.5" font-family="Helvetica,sans-Serif" font-size="10.00">&#45;hdf5&#45;pb/include/seerep</text>
<text text-anchor="middle" x="129" y="-308.5" font-family="Helvetica,sans-Serif" font-size="10.00">&#45;hdf5&#45;pb/hdf5&#45;pb&#45;tf.h</text>
</a>
</g>
</g>
<!-- Node2 -->
<g id="node2" class="node">
<title>Node2</title>
<g id="a_node2"><a xlink:href="hdf5-pb-tf_8cpp.html" target="_top" xlink:title=" ">
<polygon fill="none" stroke="black" points="0,-223.5 0,-264.5 116,-264.5 116,-223.5 0,-223.5"/>
<text text-anchor="start" x="8" y="-252.5" font-family="Helvetica,sans-Serif" font-size="10.00">seerep&#45;hdf5/seerep</text>
<text text-anchor="start" x="8" y="-241.5" font-family="Helvetica,sans-Serif" font-size="10.00">&#45;hdf5&#45;pb/src/hdf5&#45;pb</text>
<text text-anchor="middle" x="58" y="-230.5" font-family="Helvetica,sans-Serif" font-size="10.00">&#45;tf.cpp</text>
</a>
</g>
</g>
<!-- Node1&#45;&gt;Node2 -->
<g id="edge1" class="edge">
<title>Node1&#45;&gt;Node2</title>
<path fill="none" stroke="midnightblue" d="M103.7,-293.92C94.62,-284.2 84.58,-273.45 76.22,-264.51"/>
<polygon fill="midnightblue" stroke="midnightblue" points="101.33,-296.51 110.72,-301.43 106.45,-291.73 101.33,-296.51"/>
</g>
<!-- Node3 -->
<g id="node3" class="node">
<title>Node3</title>
<g id="a_node3"><a xlink:href="core-pb-tf_8h.html" target="_top" xlink:title=" ">
<polygon fill="none" stroke="black" points="134.5,-223.5 134.5,-264.5 265.5,-264.5 265.5,-223.5 134.5,-223.5"/>
<text text-anchor="start" x="142.5" y="-252.5" font-family="Helvetica,sans-Serif" font-size="10.00">seerep&#45;srv/seerep&#45;core</text>
<text text-anchor="start" x="142.5" y="-241.5" font-family="Helvetica,sans-Serif" font-size="10.00">&#45;pb/include/seerep&#45;core</text>
<text text-anchor="middle" x="200" y="-230.5" font-family="Helvetica,sans-Serif" font-size="10.00">&#45;pb/core&#45;pb&#45;tf.h</text>
</a>
</g>
</g>
<!-- Node1&#45;&gt;Node3 -->
<g id="edge2" class="edge">
<title>Node1&#45;&gt;Node3</title>
<path fill="none" stroke="midnightblue" d="M154.3,-293.92C163.38,-284.2 173.42,-273.45 181.78,-264.51"/>
<polygon fill="midnightblue" stroke="midnightblue" points="151.55,-291.73 147.28,-301.43 156.67,-296.51 151.55,-291.73"/>
</g>
<!-- Node4 -->
<g id="node4" class="node">
<title>Node4</title>
<g id="a_node4"><a xlink:href="core-pb-tf_8cpp.html" target="_top" xlink:title=" ">
<polygon fill="none" stroke="black" points="59.5,-151 59.5,-181 188.5,-181 188.5,-151 59.5,-151"/>
<text text-anchor="start" x="67.5" y="-169" font-family="Helvetica,sans-Serif" font-size="10.00">seerep&#45;srv/seerep&#45;core</text>
<text text-anchor="middle" x="124" y="-158" font-family="Helvetica,sans-Serif" font-size="10.00">&#45;pb/src/core&#45;pb&#45;tf.cpp</text>
</a>
</g>
</g>
<!-- Node3&#45;&gt;Node4 -->
<g id="edge3" class="edge">
<title>Node3&#45;&gt;Node4</title>
<path fill="none" stroke="midnightblue" d="M173.32,-216.32C161.51,-204.51 148.08,-191.08 138.23,-181.23"/>
<polygon fill="midnightblue" stroke="midnightblue" points="170.88,-218.83 180.43,-223.43 175.83,-213.88 170.88,-218.83"/>
</g>
<!-- Node5 -->
<g id="node5" class="node">
<title>Node5</title>
<g id="a_node5"><a xlink:href="pb-tf-service_8h.html" target="_top" xlink:title=" ">
<polygon fill="none" stroke="black" points="206.5,-145.5 206.5,-186.5 345.5,-186.5 345.5,-145.5 206.5,-145.5"/>
<text text-anchor="start" x="214.5" y="-174.5" font-family="Helvetica,sans-Serif" font-size="10.00">seerep&#45;srv/seerep&#45;server</text>
<text text-anchor="start" x="214.5" y="-163.5" font-family="Helvetica,sans-Serif" font-size="10.00">/include/seerep&#45;server</text>
<text text-anchor="middle" x="276" y="-152.5" font-family="Helvetica,sans-Serif" font-size="10.00">/pb&#45;tf&#45;service.h</text>
</a>
</g>
</g>
<!-- Node3&#45;&gt;Node5 -->
<g id="edge4" class="edge">
<title>Node3&#45;&gt;Node5</title>
<path fill="none" stroke="midnightblue" d="M226.8,-216.2C236.58,-206.42 247.46,-195.54 256.49,-186.51"/>
<polygon fill="midnightblue" stroke="midnightblue" points="224.17,-213.88 219.57,-223.43 229.12,-218.83 224.17,-213.88"/>
</g>
<!-- Node6 -->
<g id="node6" class="node">
<title>Node6</title>
<g id="a_node6"><a xlink:href="server_8h.html" target="_top" xlink:title=" ">
<polygon fill="none" stroke="black" points="128.5,-67.5 128.5,-108.5 267.5,-108.5 267.5,-67.5 128.5,-67.5"/>
<text text-anchor="start" x="136.5" y="-96.5" font-family="Helvetica,sans-Serif" font-size="10.00">seerep&#45;srv/seerep&#45;server</text>
<text text-anchor="start" x="136.5" y="-85.5" font-family="Helvetica,sans-Serif" font-size="10.00">/include/seerep&#45;server</text>
<text text-anchor="middle" x="198" y="-74.5" font-family="Helvetica,sans-Serif" font-size="10.00">/server.h</text>
</a>
</g>
</g>
<!-- Node5&#45;&gt;Node6 -->
<g id="edge5" class="edge">
<title>Node5&#45;&gt;Node6</title>
<path fill="none" stroke="midnightblue" d="M248.5,-138.2C238.45,-128.42 227.29,-117.54 218.02,-108.51"/>
<polygon fill="midnightblue" stroke="midnightblue" points="246.31,-140.96 255.91,-145.43 251.19,-135.94 246.31,-140.96"/>
</g>
<!-- Node8 -->
<g id="node8" class="node">
<title>Node8</title>
<g id="a_node8"><a xlink:href="pb-tf-service_8cpp.html" target="_top" xlink:title=" ">
<polygon fill="none" stroke="black" points="285.5,-73 285.5,-103 424.5,-103 424.5,-73 285.5,-73"/>
<text text-anchor="start" x="293.5" y="-91" font-family="Helvetica,sans-Serif" font-size="10.00">seerep&#45;srv/seerep&#45;server</text>
<text text-anchor="middle" x="355" y="-80" font-family="Helvetica,sans-Serif" font-size="10.00">/src/pb&#45;tf&#45;service.cpp</text>
</a>
</g>
</g>
<!-- Node5&#45;&gt;Node8 -->
<g id="edge7" class="edge">
<title>Node5&#45;&gt;Node8</title>
<path fill="none" stroke="midnightblue" d="M303.73,-138.32C316.01,-126.51 329.97,-113.08 340.21,-103.23"/>
<polygon fill="midnightblue" stroke="midnightblue" points="301.12,-135.97 296.34,-145.43 305.98,-141.02 301.12,-135.97"/>
</g>
<!-- Node7 -->
<g id="node7" class="node">
<title>Node7</title>
<g id="a_node7"><a xlink:href="server_8cpp.html" target="_top" xlink:title=" ">
<polygon fill="none" stroke="black" points="128.5,-0.5 128.5,-30.5 267.5,-30.5 267.5,-0.5 128.5,-0.5"/>
<text text-anchor="start" x="136.5" y="-18.5" font-family="Helvetica,sans-Serif" font-size="10.00">seerep&#45;srv/seerep&#45;server</text>
<text text-anchor="middle" x="198" y="-7.5" font-family="Helvetica,sans-Serif" font-size="10.00">/src/server.cpp</text>
</a>
</g>
</g>
<!-- Node6&#45;&gt;Node7 -->
<g id="edge6" class="edge">
<title>Node6&#45;&gt;Node7</title>
<path fill="none" stroke="midnightblue" d="M198,-57.08C198,-48.01 198,-38.45 198,-30.89"/>
<polygon fill="midnightblue" stroke="midnightblue" points="194.5,-57.36 198,-67.36 201.5,-57.36 194.5,-57.36"/>
</g>
</g>
</svg>
