<?xml version="1.0" encoding="UTF-8" standalone="no"?>
<!DOCTYPE svg PUBLIC "-//W3C//DTD SVG 1.1//EN"
 "http://www.w3.org/Graphics/SVG/1.1/DTD/svg11.dtd">
<!-- Generated by graphviz version 2.43.0 (0)
 -->
<!-- Title: seerep&#45;hdf5/seerep&#45;hdf5&#45;core/src/hdf5&#45;core&#45;general.cpp Pages: 1 -->
<svg width="1212pt" height="184pt"
 viewBox="0.00 0.00 1211.50 184.00" xmlns="http://www.w3.org/2000/svg" xmlns:xlink="http://www.w3.org/1999/xlink">
<g id="graph0" class="graph" transform="scale(1 1) rotate(0) translate(4 180)">
<title>seerep&#45;hdf5/seerep&#45;hdf5&#45;core/src/hdf5&#45;core&#45;general.cpp</title>
<!-- Node1 -->
<g id="node1" class="node">
<title>Node1</title>
<g id="a_node1"><a xlink:title=" ">
<polygon fill="#bfbfbf" stroke="black" points="607.5,-134.5 607.5,-175.5 718.5,-175.5 718.5,-134.5 607.5,-134.5"/>
<text text-anchor="start" x="615.5" y="-163.5" font-family="Helvetica,sans-Serif" font-size="10.00">seerep&#45;hdf5/seerep</text>
<text text-anchor="start" x="615.5" y="-152.5" font-family="Helvetica,sans-Serif" font-size="10.00">&#45;hdf5&#45;core/src/hdf5</text>
<text text-anchor="middle" x="663" y="-141.5" font-family="Helvetica,sans-Serif" font-size="10.00">&#45;core&#45;general.cpp</text>
</a>
</g>
</g>
<!-- Node2 -->
<g id="node2" class="node">
<title>Node2</title>
<g id="a_node2"><a xlink:href="hdf5-core-general_8h.html" target="_top" xlink:title=" ">
<polygon fill="none" stroke="black" points="527.5,-67.5 527.5,-97.5 652.5,-97.5 652.5,-67.5 527.5,-67.5"/>
<text text-anchor="start" x="535.5" y="-85.5" font-family="Helvetica,sans-Serif" font-size="10.00">seerep&#45;hdf5&#45;core/hdf5</text>
<text text-anchor="middle" x="590" y="-74.5" font-family="Helvetica,sans-Serif" font-size="10.00">&#45;core&#45;general.h</text>
</a>
</g>
</g>
<!-- Node1&#45;&gt;Node2 -->
<g id="edge1" class="edge">
<title>Node1&#45;&gt;Node2</title>
<path fill="none" stroke="midnightblue" d="M642.67,-134.36C633.21,-125.23 621.94,-114.35 612.26,-105"/>
<polygon fill="midnightblue" stroke="midnightblue" points="614.53,-102.32 604.9,-97.89 609.66,-107.36 614.53,-102.32"/>
</g>
<!-- Node13 -->
<g id="node13" class="node">
<title>Node13</title>
<g id="a_node13"><a xlink:title=" ">
<polygon fill="none" stroke="#bfbfbf" points="671,-73 671,-92 803,-92 803,-73 671,-73"/>
<text text-anchor="middle" x="737" y="-80" font-family="Helvetica,sans-Serif" font-size="10.00">highfive/H5DataSet.hpp</text>
</a>
</g>
</g>
<!-- Node1&#45;&gt;Node13 -->
<g id="edge12" class="edge">
<title>Node1&#45;&gt;Node13</title>
<path fill="none" stroke="midnightblue" d="M683.61,-134.36C695.2,-123.32 709.47,-109.72 720.35,-99.37"/>
<polygon fill="midnightblue" stroke="midnightblue" points="723.07,-101.61 727.9,-92.17 718.24,-96.54 723.07,-101.61"/>
</g>
<!-- Node3 -->
<g id="node3" class="node">
<title>Node3</title>
<g id="a_node3"><a xlink:title=" ">
<polygon fill="none" stroke="#bfbfbf" points="0,-6 0,-25 110,-25 110,-6 0,-6"/>
<text text-anchor="middle" x="55" y="-13" font-family="Helvetica,sans-Serif" font-size="10.00">highfive/H5File.hpp</text>
</a>
</g>
</g>
<!-- Node2&#45;&gt;Node3 -->
<g id="edge2" class="edge">
<title>Node2&#45;&gt;Node3</title>
<path fill="none" stroke="midnightblue" d="M527.21,-77.1C436.63,-70.22 264.21,-55.15 119,-31 112.66,-29.95 106,-28.65 99.48,-27.27"/>
<polygon fill="midnightblue" stroke="midnightblue" points="99.92,-23.79 89.4,-25.06 98.42,-30.62 99.92,-23.79"/>
</g>
<!-- Node4 -->
<g id="node4" class="node">
<title>Node4</title>
<g id="a_node4"><a xlink:title=" ">
<polygon fill="none" stroke="#bfbfbf" points="128,-6 128,-25 244,-25 244,-6 128,-6"/>
<text text-anchor="middle" x="186" y="-13" font-family="Helvetica,sans-Serif" font-size="10.00">seerep&#45;msgs/aabb.h</text>
</a>
</g>
</g>
<!-- Node2&#45;&gt;Node4 -->
<g id="edge3" class="edge">
<title>Node2&#45;&gt;Node4</title>
<path fill="none" stroke="midnightblue" d="M527.38,-73.34C459.56,-64.23 348.29,-48.43 253,-31 246.7,-29.85 240.09,-28.54 233.57,-27.19"/>
<polygon fill="midnightblue" stroke="midnightblue" points="233.98,-23.7 223.48,-25.06 232.54,-30.55 233.98,-23.7"/>
</g>
<!-- Node5 -->
<g id="node5" class="node">
<title>Node5</title>
<g id="a_node5"><a xlink:title=" ">
<polygon fill="none" stroke="#bfbfbf" points="262.5,-0.5 262.5,-30.5 381.5,-30.5 381.5,-0.5 262.5,-0.5"/>
<text text-anchor="start" x="270.5" y="-18.5" font-family="Helvetica,sans-Serif" font-size="10.00">seerep&#45;msgs/dataset</text>
<text text-anchor="middle" x="322" y="-7.5" font-family="Helvetica,sans-Serif" font-size="10.00">&#45;indexable.h</text>
</a>
</g>
</g>
<!-- Node2&#45;&gt;Node5 -->
<g id="edge4" class="edge">
<title>Node2&#45;&gt;Node5</title>
<path fill="none" stroke="midnightblue" d="M532.18,-67.48C490.41,-57.34 433.84,-43.63 389.92,-32.97"/>
<polygon fill="midnightblue" stroke="midnightblue" points="390.72,-29.57 380.18,-30.61 389.07,-36.37 390.72,-29.57"/>
</g>
<!-- Node6 -->
<g id="node6" class="node">
<title>Node6</title>
<g id="a_node6"><a xlink:title=" ">
<polygon fill="none" stroke="#bfbfbf" points="399.5,-6 399.5,-25 512.5,-25 512.5,-6 399.5,-6"/>
<text text-anchor="middle" x="456" y="-13" font-family="Helvetica,sans-Serif" font-size="10.00">boost/geometry.hpp</text>
</a>
</g>
</g>
<!-- Node2&#45;&gt;Node6 -->
<g id="edge5" class="edge">
<title>Node2&#45;&gt;Node6</title>
<path fill="none" stroke="midnightblue" d="M560.92,-67.4C537.62,-56.09 505.19,-40.36 482.57,-29.39"/>
<polygon fill="midnightblue" stroke="midnightblue" points="484.06,-26.22 473.54,-25.01 481.01,-32.52 484.06,-26.22"/>
</g>
<!-- Node7 -->
<g id="node7" class="node">
<title>Node7</title>
<g id="a_node7"><a xlink:title=" ">
<polygon fill="none" stroke="#bfbfbf" points="531,-6 531,-25 579,-25 579,-6 531,-6"/>
<text text-anchor="middle" x="555" y="-13" font-family="Helvetica,sans-Serif" font-size="10.00">mutex</text>
</a>
</g>
</g>
<!-- Node2&#45;&gt;Node7 -->
<g id="edge6" class="edge">
<title>Node2&#45;&gt;Node7</title>
<path fill="none" stroke="midnightblue" d="M582.41,-67.4C577.16,-57.66 570.16,-44.65 564.54,-34.21"/>
<polygon fill="midnightblue" stroke="midnightblue" points="567.5,-32.34 559.68,-25.19 561.34,-35.66 567.5,-32.34"/>
</g>
<!-- Node8 -->
<g id="node8" class="node">
<title>Node8</title>
<g id="a_node8"><a xlink:title=" ">
<polygon fill="none" stroke="#bfbfbf" points="597,-6 597,-25 653,-25 653,-6 597,-6"/>
<text text-anchor="middle" x="625" y="-13" font-family="Helvetica,sans-Serif" font-size="10.00">optional</text>
</a>
</g>
</g>
<!-- Node2&#45;&gt;Node8 -->
<g id="edge7" class="edge">
<title>Node2&#45;&gt;Node8</title>
<path fill="none" stroke="midnightblue" d="M597.59,-67.4C602.84,-57.66 609.84,-44.65 615.46,-34.21"/>
<polygon fill="midnightblue" stroke="midnightblue" points="618.66,-35.66 620.32,-25.19 612.5,-32.34 618.66,-35.66"/>
</g>
<!-- Node9 -->
<g id="node9" class="node">
<title>Node9</title>
<g id="a_node9"><a xlink:title=" ">
<polygon fill="none" stroke="#bfbfbf" points="671.5,-6 671.5,-25 740.5,-25 740.5,-6 671.5,-6"/>
<text text-anchor="middle" x="706" y="-13" font-family="Helvetica,sans-Serif" font-size="10.00">type_traits</text>
</a>
</g>
</g>
<!-- Node2&#45;&gt;Node9 -->
<g id="edge8" class="edge">
<title>Node2&#45;&gt;Node9</title>
<path fill="none" stroke="midnightblue" d="M615.17,-67.4C634.98,-56.29 662.42,-40.92 681.94,-29.98"/>
<polygon fill="midnightblue" stroke="midnightblue" points="683.81,-32.95 690.82,-25.01 680.38,-26.84 683.81,-32.95"/>
</g>
<!-- Node10 -->
<g id="node10" class="node">
<title>Node10</title>
<g id="a_node10"><a xlink:title=" ">
<polygon fill="none" stroke="#bfbfbf" points="758.5,-0.5 758.5,-30.5 903.5,-30.5 903.5,-0.5 758.5,-0.5"/>
<text text-anchor="start" x="766.5" y="-18.5" font-family="Helvetica,sans-Serif" font-size="10.00">boost/log/sources/severity</text>
<text text-anchor="middle" x="831" y="-7.5" font-family="Helvetica,sans-Serif" font-size="10.00">_logger.hpp</text>
</a>
</g>
</g>
<!-- Node2&#45;&gt;Node10 -->
<g id="edge9" class="edge">
<title>Node2&#45;&gt;Node10</title>
<path fill="none" stroke="midnightblue" d="M642,-67.48C679.25,-57.43 729.57,-43.86 768.93,-33.24"/>
<polygon fill="midnightblue" stroke="midnightblue" points="769.94,-36.59 778.68,-30.61 768.11,-29.84 769.94,-36.59"/>
</g>
<!-- Node11 -->
<g id="node11" class="node">
<title>Node11</title>
<g id="a_node11"><a xlink:title=" ">
<polygon fill="none" stroke="#bfbfbf" points="922,-6 922,-25 1036,-25 1036,-6 922,-6"/>
<text text-anchor="middle" x="979" y="-13" font-family="Helvetica,sans-Serif" font-size="10.00">boost/log/trivial.hpp</text>
</a>
</g>
</g>
<!-- Node2&#45;&gt;Node11 -->
<g id="edge10" class="edge">
<title>Node2&#45;&gt;Node11</title>
<path fill="none" stroke="midnightblue" d="M652.79,-68.64C655.9,-68.07 658.98,-67.52 662,-67 773.06,-47.87 802.11,-51.1 913,-31 919.29,-29.86 925.89,-28.55 932.38,-27.19"/>
<polygon fill="midnightblue" stroke="midnightblue" points="933.4,-30.55 942.44,-25.04 931.93,-23.71 933.4,-30.55"/>
</g>
<!-- Node12 -->
<g id="node12" class="node">
<title>Node12</title>
<g id="a_node12"><a xlink:title=" ">
<polygon fill="none" stroke="#bfbfbf" points="1054.5,-6 1054.5,-25 1203.5,-25 1203.5,-6 1054.5,-6"/>
<text text-anchor="middle" x="1129" y="-13" font-family="Helvetica,sans-Serif" font-size="10.00">impl/hdf5&#45;core&#45;general.hpp</text>
</a>
</g>
</g>
<!-- Node2&#45;&gt;Node12 -->
<g id="edge11" class="edge">
<title>Node2&#45;&gt;Node12</title>
<path fill="none" stroke="midnightblue" d="M652.76,-68.46C655.88,-67.94 658.97,-67.45 662,-67 831.15,-42.09 875.52,-53.56 1045,-31 1054.16,-29.78 1063.84,-28.29 1073.25,-26.74"/>
<polygon fill="midnightblue" stroke="midnightblue" points="1074.04,-30.16 1083.32,-25.04 1072.88,-23.26 1074.04,-30.16"/>
</g>
</g>
</svg>
