<?xml version="1.0" encoding="UTF-8" standalone="no"?>
<!DOCTYPE svg PUBLIC "-//W3C//DTD SVG 1.1//EN"
 "http://www.w3.org/Graphics/SVG/1.1/DTD/svg11.dtd">
<!-- Generated by graphviz version 2.43.0 (0)
 -->
<!-- Title: seerep&#45;hdf5/seerep&#45;hdf5&#45;fb/include/seerep&#45;hdf5&#45;fb/hdf5&#45;fb&#45;image.h Pages: 1 -->
<svg width="3250pt" height="273pt"
 viewBox="0.00 0.00 3250.00 273.00" xmlns="http://www.w3.org/2000/svg" xmlns:xlink="http://www.w3.org/1999/xlink">
<g id="graph0" class="graph" transform="scale(1 1) rotate(0) translate(4 269)">
<title>seerep&#45;hdf5/seerep&#45;hdf5&#45;fb/include/seerep&#45;hdf5&#45;fb/hdf5&#45;fb&#45;image.h</title>
<!-- Node1 -->
<g id="node1" class="node">
<title>Node1</title>
<g id="a_node1"><a xlink:title=" ">
<polygon fill="#bfbfbf" stroke="black" points="2564.5,-223.5 2564.5,-264.5 2701.5,-264.5 2701.5,-223.5 2564.5,-223.5"/>
<text text-anchor="start" x="2572.5" y="-252.5" font-family="Helvetica,sans-Serif" font-size="10.00">seerep&#45;hdf5/seerep</text>
<text text-anchor="start" x="2572.5" y="-241.5" font-family="Helvetica,sans-Serif" font-size="10.00">&#45;hdf5&#45;fb/include/seerep</text>
<text text-anchor="middle" x="2633" y="-230.5" font-family="Helvetica,sans-Serif" font-size="10.00">&#45;hdf5&#45;fb/hdf5&#45;fb&#45;image.h</text>
</a>
</g>
</g>
<!-- Node2 -->
<g id="node2" class="node">
<title>Node2</title>
<g id="a_node2"><a xlink:title=" ">
<polygon fill="none" stroke="#bfbfbf" points="1642,-11.5 1642,-30.5 1752,-30.5 1752,-11.5 1642,-11.5"/>
<text text-anchor="middle" x="1697" y="-18.5" font-family="Helvetica,sans-Serif" font-size="10.00">highfive/H5File.hpp</text>
</a>
</g>
</g>
<!-- Node1&#45;&gt;Node2 -->
<g id="edge1" class="edge">
<title>Node1&#45;&gt;Node2</title>
<path fill="none" stroke="midnightblue" d="M2564.28,-242.92C2276.49,-241.88 1178.25,-230.65 1076,-120 1063.33,-106.29 1063.23,-91.62 1076,-78 1118.42,-32.75 1572.03,-53.33 1633,-42 1643.47,-40.05 1654.63,-36.94 1664.66,-33.75"/>
<polygon fill="midnightblue" stroke="midnightblue" points="1665.84,-37.04 1674.23,-30.57 1663.64,-30.4 1665.84,-37.04"/>
</g>
<!-- Node3 -->
<g id="node3" class="node">
<title>Node3</title>
<g id="a_node3"><a xlink:href="hdf5-core-image_8h.html" target="_top" xlink:title=" ">
<polygon fill="none" stroke="black" points="574.5,-156.5 574.5,-186.5 699.5,-186.5 699.5,-156.5 574.5,-156.5"/>
<text text-anchor="start" x="582.5" y="-174.5" font-family="Helvetica,sans-Serif" font-size="10.00">seerep&#45;hdf5&#45;core/hdf5</text>
<text text-anchor="middle" x="637" y="-163.5" font-family="Helvetica,sans-Serif" font-size="10.00">&#45;core&#45;image.h</text>
</a>
</g>
</g>
<!-- Node1&#45;&gt;Node3 -->
<g id="edge2" class="edge">
<title>Node1&#45;&gt;Node3</title>
<path fill="none" stroke="midnightblue" d="M2564.34,-241C2335.97,-234.28 1581,-211.56 957,-187 872.08,-183.66 774.51,-179.14 709.65,-176.04"/>
<polygon fill="midnightblue" stroke="midnightblue" points="709.69,-172.54 699.53,-175.55 709.36,-179.53 709.69,-172.54"/>
</g>
<!-- Node7 -->
<g id="node7" class="node">
<title>Node7</title>
<g id="a_node7"><a xlink:title=" ">
<polygon fill="none" stroke="#bfbfbf" points="0,-11.5 0,-30.5 56,-30.5 56,-11.5 0,-11.5"/>
<text text-anchor="middle" x="28" y="-18.5" font-family="Helvetica,sans-Serif" font-size="10.00">optional</text>
</a>
</g>
</g>
<!-- Node1&#45;&gt;Node7 -->
<g id="edge58" class="edge">
<title>Node1&#45;&gt;Node7</title>
<path fill="none" stroke="midnightblue" d="M2564.27,-242.19C2252.29,-238.36 967.2,-220.8 566,-187 354.87,-169.21 273.57,-232.47 94,-120 63.83,-101.11 44.24,-62.8 34.74,-40.08"/>
<polygon fill="midnightblue" stroke="midnightblue" points="37.93,-38.61 30.99,-30.6 31.42,-41.18 37.93,-38.61"/>
</g>
<!-- Node12 -->
<g id="node12" class="node">
<title>Node12</title>
<g id="a_node12"><a xlink:title=" ">
<polygon fill="none" stroke="#bfbfbf" points="2454.5,-11.5 2454.5,-30.5 2567.5,-30.5 2567.5,-11.5 2454.5,-11.5"/>
<text text-anchor="middle" x="2511" y="-18.5" font-family="Helvetica,sans-Serif" font-size="10.00">boost/geometry.hpp</text>
</a>
</g>
</g>
<!-- Node1&#45;&gt;Node12 -->
<g id="edge57" class="edge">
<title>Node1&#45;&gt;Node12</title>
<path fill="none" stroke="midnightblue" d="M2682.26,-223.39C2749.07,-194 2854.88,-135.78 2807,-78 2778.5,-43.6 2656.23,-30.17 2578.02,-25.05"/>
<polygon fill="midnightblue" stroke="midnightblue" points="2577.97,-21.54 2567.77,-24.41 2577.53,-28.52 2577.97,-21.54"/>
</g>
<!-- Node22 -->
<g id="node22" class="node">
<title>Node22</title>
<g id="a_node22"><a xlink:href="hdf5-fb-general_8h.html" target="_top" xlink:title=" ">
<polygon fill="none" stroke="black" points="1934.5,-156.5 1934.5,-186.5 2047.5,-186.5 2047.5,-156.5 1934.5,-156.5"/>
<text text-anchor="start" x="1942.5" y="-174.5" font-family="Helvetica,sans-Serif" font-size="10.00">seerep&#45;hdf5&#45;fb/hdf5</text>
<text text-anchor="middle" x="1991" y="-163.5" font-family="Helvetica,sans-Serif" font-size="10.00">&#45;fb&#45;general.h</text>
</a>
</g>
</g>
<!-- Node1&#45;&gt;Node22 -->
<g id="edge35" class="edge">
<title>Node1&#45;&gt;Node22</title>
<path fill="none" stroke="midnightblue" d="M2564.29,-235.46C2440.17,-221.83 2180.1,-193.27 2057.56,-179.81"/>
<polygon fill="midnightblue" stroke="midnightblue" points="2057.88,-176.32 2047.56,-178.71 2057.12,-183.28 2057.88,-176.32"/>
</g>
<!-- Node30 -->
<g id="node30" class="node">
<title>Node30</title>
<g id="a_node30"><a xlink:title=" ">
<polygon fill="none" stroke="#bfbfbf" points="2585.5,-89.5 2585.5,-108.5 2680.5,-108.5 2680.5,-89.5 2585.5,-89.5"/>
<text text-anchor="middle" x="2633" y="-96.5" font-family="Helvetica,sans-Serif" font-size="10.00">grpcpp/grpcpp.h</text>
</a>
</g>
</g>
<!-- Node1&#45;&gt;Node30 -->
<g id="edge56" class="edge">
<title>Node1&#45;&gt;Node30</title>
<path fill="none" stroke="midnightblue" d="M2633,-223.42C2633,-195.84 2633,-145.91 2633,-118.78"/>
<polygon fill="midnightblue" stroke="midnightblue" points="2636.5,-118.68 2633,-108.68 2629.5,-118.68 2636.5,-118.68"/>
</g>
<!-- Node31 -->
<g id="node31" class="node">
<title>Node31</title>
<g id="a_node31"><a xlink:title=" ">
<polygon fill="none" stroke="#bfbfbf" points="2698.5,-89.5 2698.5,-108.5 2797.5,-108.5 2797.5,-89.5 2698.5,-89.5"/>
<text text-anchor="middle" x="2748" y="-96.5" font-family="Helvetica,sans-Serif" font-size="10.00">flatbuffers/grpc.h</text>
</a>
</g>
</g>
<!-- Node1&#45;&gt;Node31 -->
<g id="edge59" class="edge">
<title>Node1&#45;&gt;Node31</title>
<path fill="none" stroke="midnightblue" d="M2648.75,-223.42C2671.52,-195.1 2713.24,-143.22 2734.61,-116.65"/>
<polygon fill="midnightblue" stroke="midnightblue" points="2737.48,-118.66 2741.02,-108.68 2732.03,-114.28 2737.48,-118.66"/>
</g>
<!-- Node34 -->
<g id="node34" class="node">
<title>Node34</title>
<g id="a_node34"><a xlink:title=" ">
<polygon fill="none" stroke="#bfbfbf" points="2853.5,-162 2853.5,-181 3030.5,-181 3030.5,-162 2853.5,-162"/>
<text text-anchor="middle" x="2942" y="-169" font-family="Helvetica,sans-Serif" font-size="10.00">seerep&#45;msgs/image_generated.h</text>
</a>
</g>
</g>
<!-- Node1&#45;&gt;Node34 -->
<g id="edge54" class="edge">
<title>Node1&#45;&gt;Node34</title>
<path fill="none" stroke="midnightblue" d="M2701.58,-227.35C2760.25,-213.97 2843.17,-195.05 2894.7,-183.29"/>
<polygon fill="midnightblue" stroke="midnightblue" points="2895.6,-186.68 2904.57,-181.04 2894.05,-179.85 2895.6,-186.68"/>
</g>
<!-- Node35 -->
<g id="node35" class="node">
<title>Node35</title>
<g id="a_node35"><a xlink:title=" ">
<polygon fill="none" stroke="#bfbfbf" points="3048,-162 3048,-181 3242,-181 3242,-162 3048,-162"/>
<text text-anchor="middle" x="3145" y="-169" font-family="Helvetica,sans-Serif" font-size="10.00">seerep&#45;com/image_service.grpc.fb.h</text>
</a>
</g>
</g>
<!-- Node1&#45;&gt;Node35 -->
<g id="edge55" class="edge">
<title>Node1&#45;&gt;Node35</title>
<path fill="none" stroke="midnightblue" d="M2701.77,-233.55C2782.7,-222.42 2921.12,-203.39 3040,-187 3050.75,-185.52 3062.11,-183.95 3073.24,-182.41"/>
<polygon fill="midnightblue" stroke="midnightblue" points="3073.94,-185.85 3083.37,-181.02 3072.99,-178.92 3073.94,-185.85"/>
</g>
<!-- Node3&#45;&gt;Node2 -->
<g id="edge3" class="edge">
<title>Node3&#45;&gt;Node2</title>
<path fill="none" stroke="midnightblue" d="M699.77,-169.43C758.21,-166.1 846.25,-155.01 914,-120 937.73,-107.74 932.54,-88.73 957,-78 1094.76,-17.56 1484.94,-68.64 1633,-42 1643.57,-40.1 1654.83,-36.97 1664.92,-33.75"/>
<polygon fill="midnightblue" stroke="midnightblue" points="1666.16,-37.02 1674.54,-30.53 1663.94,-30.38 1666.16,-37.02"/>
</g>
<!-- Node4 -->
<g id="node4" class="node">
<title>Node4</title>
<g id="a_node4"><a xlink:href="hdf5-core-datatype-interface_8h.html" target="_top" xlink:title=" ">
<polygon fill="none" stroke="black" points="182.5,-84 182.5,-114 327.5,-114 327.5,-84 182.5,-84"/>
<text text-anchor="start" x="190.5" y="-102" font-family="Helvetica,sans-Serif" font-size="10.00">seerep&#45;hdf5&#45;core/hdf5</text>
<text text-anchor="middle" x="255" y="-91" font-family="Helvetica,sans-Serif" font-size="10.00">&#45;core&#45;datatype&#45;interface.h</text>
</a>
</g>
</g>
<!-- Node3&#45;&gt;Node4 -->
<g id="edge4" class="edge">
<title>Node3&#45;&gt;Node4</title>
<path fill="none" stroke="midnightblue" d="M574.35,-158.94C509.89,-147.04 409.14,-128.45 338.07,-115.33"/>
<polygon fill="midnightblue" stroke="midnightblue" points="338.27,-111.81 327.8,-113.44 337,-118.69 338.27,-111.81"/>
</g>
<!-- Node5 -->
<g id="node5" class="node">
<title>Node5</title>
<g id="a_node5"><a xlink:title=" ">
<polygon fill="none" stroke="#bfbfbf" points="74.5,-6 74.5,-36 193.5,-36 193.5,-6 74.5,-6"/>
<text text-anchor="start" x="82.5" y="-24" font-family="Helvetica,sans-Serif" font-size="10.00">seerep&#45;msgs/dataset</text>
<text text-anchor="middle" x="134" y="-13" font-family="Helvetica,sans-Serif" font-size="10.00">&#45;indexable.h</text>
</a>
</g>
</g>
<!-- Node3&#45;&gt;Node5 -->
<g id="edge26" class="edge">
<title>Node3&#45;&gt;Node5</title>
<path fill="none" stroke="midnightblue" d="M574.46,-160.33C530,-152.08 469.31,-138.73 418,-120 379.54,-105.96 374.21,-92.73 336,-78 278.46,-55.82 261.36,-58.7 202,-42 198.41,-40.99 194.72,-39.94 191,-38.87"/>
<polygon fill="midnightblue" stroke="midnightblue" points="191.73,-35.44 181.15,-36.02 189.78,-42.16 191.73,-35.44"/>
</g>
<!-- Node6 -->
<g id="node6" class="node">
<title>Node6</title>
<g id="a_node6"><a xlink:title=" ">
<polygon fill="none" stroke="#bfbfbf" points="211.5,-11.5 211.5,-30.5 324.5,-30.5 324.5,-11.5 211.5,-11.5"/>
<text text-anchor="middle" x="268" y="-18.5" font-family="Helvetica,sans-Serif" font-size="10.00">boost/uuid/uuid.hpp</text>
</a>
</g>
</g>
<!-- Node3&#45;&gt;Node6 -->
<g id="edge32" class="edge">
<title>Node3&#45;&gt;Node6</title>
<path fill="none" stroke="midnightblue" d="M589.1,-156.45C560.17,-147.35 522.85,-134.51 491,-120 456.94,-104.48 451.87,-93.93 418,-78 380.37,-60.3 335.5,-44.16 304.7,-33.81"/>
<polygon fill="midnightblue" stroke="midnightblue" points="305.42,-30.36 294.83,-30.52 303.21,-37 305.42,-30.36"/>
</g>
<!-- Node3&#45;&gt;Node7 -->
<g id="edge29" class="edge">
<title>Node3&#45;&gt;Node7</title>
<path fill="none" stroke="midnightblue" d="M574.36,-167.42C465.28,-161.44 245.18,-146.46 173,-120 121.48,-101.11 70.49,-60.11 44.92,-37.59"/>
<polygon fill="midnightblue" stroke="midnightblue" points="47.04,-34.79 37.26,-30.72 42.37,-40 47.04,-34.79"/>
</g>
<!-- Node8 -->
<g id="node8" class="node">
<title>Node8</title>
<g id="a_node8"><a xlink:href="hdf5-core-general_8h.html" target="_top" xlink:title=" ">
<polygon fill="none" stroke="black" points="779.5,-84 779.5,-114 904.5,-114 904.5,-84 779.5,-84"/>
<text text-anchor="start" x="787.5" y="-102" font-family="Helvetica,sans-Serif" font-size="10.00">seerep&#45;hdf5&#45;core/hdf5</text>
<text text-anchor="middle" x="842" y="-91" font-family="Helvetica,sans-Serif" font-size="10.00">&#45;core&#45;general.h</text>
</a>
</g>
</g>
<!-- Node3&#45;&gt;Node8 -->
<g id="edge8" class="edge">
<title>Node3&#45;&gt;Node8</title>
<path fill="none" stroke="midnightblue" d="M677.99,-156.4C710.67,-145.16 756.59,-129.37 791.54,-117.36"/>
<polygon fill="midnightblue" stroke="midnightblue" points="792.76,-120.63 801.08,-114.07 790.48,-114.02 792.76,-120.63"/>
</g>
<!-- Node11 -->
<g id="node11" class="node">
<title>Node11</title>
<g id="a_node11"><a xlink:title=" ">
<polygon fill="none" stroke="#bfbfbf" points="488,-0.5 488,-41.5 600,-41.5 600,-0.5 488,-0.5"/>
<text text-anchor="start" x="496" y="-29.5" font-family="Helvetica,sans-Serif" font-size="10.00">seerep&#45;msgs/labels</text>
<text text-anchor="start" x="496" y="-18.5" font-family="Helvetica,sans-Serif" font-size="10.00">&#45;with&#45;instance&#45;with</text>
<text text-anchor="middle" x="544" y="-7.5" font-family="Helvetica,sans-Serif" font-size="10.00">&#45;category.h</text>
</a>
</g>
</g>
<!-- Node3&#45;&gt;Node11 -->
<g id="edge27" class="edge">
<title>Node3&#45;&gt;Node11</title>
<path fill="none" stroke="midnightblue" d="M628.08,-156.26C612.86,-131.95 581.57,-81.99 561.75,-50.34"/>
<polygon fill="midnightblue" stroke="midnightblue" points="564.52,-48.16 556.24,-41.55 558.58,-51.88 564.52,-48.16"/>
</g>
<!-- Node3&#45;&gt;Node12 -->
<g id="edge28" class="edge">
<title>Node3&#45;&gt;Node12</title>
<path fill="none" stroke="midnightblue" d="M699.51,-162.33C762.76,-153.62 863.18,-138.52 949,-120 1018.77,-104.94 1033.39,-88.4 1104,-78 1673.64,5.88 1826.23,-100.77 2399,-42 2419.66,-39.88 2442.25,-36.13 2461.7,-32.44"/>
<polygon fill="midnightblue" stroke="midnightblue" points="2462.4,-35.87 2471.55,-30.53 2461.07,-29 2462.4,-35.87"/>
</g>
<!-- Node17 -->
<g id="node17" class="node">
<title>Node17</title>
<g id="a_node17"><a xlink:title=" ">
<polygon fill="none" stroke="#bfbfbf" points="618.5,-11.5 618.5,-30.5 761.5,-30.5 761.5,-11.5 618.5,-11.5"/>
<text text-anchor="middle" x="690" y="-18.5" font-family="Helvetica,sans-Serif" font-size="10.00">boost/functional/hash.hpp</text>
</a>
</g>
</g>
<!-- Node3&#45;&gt;Node17 -->
<g id="edge30" class="edge">
<title>Node3&#45;&gt;Node17</title>
<path fill="none" stroke="midnightblue" d="M639.63,-156.41C643.3,-138 650.67,-104.96 661,-78 666.1,-64.69 673.51,-50.44 679.56,-39.65"/>
<polygon fill="midnightblue" stroke="midnightblue" points="682.68,-41.24 684.63,-30.83 676.61,-37.75 682.68,-41.24"/>
</g>
<!-- Node18 -->
<g id="node18" class="node">
<title>Node18</title>
<g id="a_node18"><a xlink:title=" ">
<polygon fill="none" stroke="#bfbfbf" points="779.5,-11.5 779.5,-30.5 904.5,-30.5 904.5,-11.5 779.5,-11.5"/>
<text text-anchor="middle" x="842" y="-18.5" font-family="Helvetica,sans-Serif" font-size="10.00">boost/lexical_cast.hpp</text>
</a>
</g>
</g>
<!-- Node3&#45;&gt;Node18 -->
<g id="edge31" class="edge">
<title>Node3&#45;&gt;Node18</title>
<path fill="none" stroke="midnightblue" d="M649.95,-156.44C668.14,-137.19 702.89,-102.26 737,-78 761.35,-60.69 791.69,-45.06 813.49,-34.75"/>
<polygon fill="midnightblue" stroke="midnightblue" points="814.96,-37.92 822.55,-30.53 812.01,-31.57 814.96,-37.92"/>
</g>
<!-- Node19 -->
<g id="node19" class="node">
<title>Node19</title>
<g id="a_node19"><a xlink:title=" ">
<polygon fill="none" stroke="#bfbfbf" points="923,-11.5 923,-30.5 1093,-30.5 1093,-11.5 923,-11.5"/>
<text text-anchor="middle" x="1008" y="-18.5" font-family="Helvetica,sans-Serif" font-size="10.00">boost/uuid/uuid_generators.hpp</text>
</a>
</g>
</g>
<!-- Node3&#45;&gt;Node19 -->
<g id="edge33" class="edge">
<title>Node3&#45;&gt;Node19</title>
<path fill="none" stroke="midnightblue" d="M665.71,-156.42C683.68,-147.07 706.96,-133.99 726,-120 748.05,-103.8 746.88,-90.91 771,-78 779.38,-73.52 892.86,-47.71 959.7,-32.75"/>
<polygon fill="midnightblue" stroke="midnightblue" points="960.61,-36.13 969.61,-30.53 959.08,-29.3 960.61,-36.13"/>
</g>
<!-- Node20 -->
<g id="node20" class="node">
<title>Node20</title>
<g id="a_node20"><a xlink:title=" ">
<polygon fill="none" stroke="#bfbfbf" points="342.5,-11.5 342.5,-30.5 469.5,-30.5 469.5,-11.5 342.5,-11.5"/>
<text text-anchor="middle" x="406" y="-18.5" font-family="Helvetica,sans-Serif" font-size="10.00">boost/uuid/uuid_io.hpp</text>
</a>
</g>
</g>
<!-- Node3&#45;&gt;Node20 -->
<g id="edge34" class="edge">
<title>Node3&#45;&gt;Node20</title>
<path fill="none" stroke="midnightblue" d="M614.85,-156.26C570.68,-127.86 472.09,-64.49 428.02,-36.16"/>
<polygon fill="midnightblue" stroke="midnightblue" points="429.79,-33.13 419.49,-30.67 426,-39.02 429.79,-33.13"/>
</g>
<!-- Node4&#45;&gt;Node5 -->
<g id="edge5" class="edge">
<title>Node4&#45;&gt;Node5</title>
<path fill="none" stroke="midnightblue" d="M232.52,-83.88C213.51,-71.94 186.06,-54.7 164.96,-41.45"/>
<polygon fill="midnightblue" stroke="midnightblue" points="166.69,-38.4 156.36,-36.04 162.96,-44.32 166.69,-38.4"/>
</g>
<!-- Node4&#45;&gt;Node6 -->
<g id="edge6" class="edge">
<title>Node4&#45;&gt;Node6</title>
<path fill="none" stroke="midnightblue" d="M257.45,-83.7C259.54,-71.48 262.56,-53.8 264.84,-40.49"/>
<polygon fill="midnightblue" stroke="midnightblue" points="268.3,-41.01 266.54,-30.56 261.4,-39.83 268.3,-41.01"/>
</g>
<!-- Node4&#45;&gt;Node7 -->
<g id="edge7" class="edge">
<title>Node4&#45;&gt;Node7</title>
<path fill="none" stroke="midnightblue" d="M195.7,-83.94C157.66,-74.09 107.6,-59.57 65,-42 60.35,-40.08 55.52,-37.75 50.95,-35.36"/>
<polygon fill="midnightblue" stroke="midnightblue" points="52.52,-32.23 42.07,-30.51 49.16,-38.37 52.52,-32.23"/>
</g>
<!-- Node8&#45;&gt;Node2 -->
<g id="edge9" class="edge">
<title>Node8&#45;&gt;Node2</title>
<path fill="none" stroke="midnightblue" d="M889.74,-83.99C899.36,-81.63 909.44,-79.47 919,-78 1233.06,-29.81 1320.21,-97.83 1633,-42 1643.57,-40.11 1654.84,-36.99 1664.92,-33.76"/>
<polygon fill="midnightblue" stroke="midnightblue" points="1666.17,-37.04 1674.54,-30.55 1663.95,-30.4 1666.17,-37.04"/>
</g>
<!-- Node8&#45;&gt;Node5 -->
<g id="edge11" class="edge">
<title>Node8&#45;&gt;Node5</title>
<path fill="none" stroke="midnightblue" d="M779.21,-85.87C762.31,-82.93 744,-80.06 727,-78 494.81,-49.93 432.22,-83.24 202,-42 196.91,-41.09 191.65,-39.94 186.43,-38.65"/>
<polygon fill="midnightblue" stroke="midnightblue" points="187.03,-35.19 176.46,-36.03 185.25,-41.96 187.03,-35.19"/>
</g>
<!-- Node8&#45;&gt;Node6 -->
<g id="edge22" class="edge">
<title>Node8&#45;&gt;Node6</title>
<path fill="none" stroke="midnightblue" d="M779.47,-86.18C762.49,-83.23 744.08,-80.26 727,-78 552.68,-54.92 505.51,-76.04 333,-42 322.49,-39.93 311.26,-36.81 301.15,-33.65"/>
<polygon fill="midnightblue" stroke="midnightblue" points="302.06,-30.27 291.47,-30.51 299.9,-36.93 302.06,-30.27"/>
</g>
<!-- Node8&#45;&gt;Node7 -->
<g id="edge16" class="edge">
<title>Node8&#45;&gt;Node7</title>
<path fill="none" stroke="midnightblue" d="M779.22,-85.7C762.33,-82.77 744.01,-79.94 727,-78 580.62,-61.35 206.8,-82 65,-42 59.69,-40.5 54.29,-38.15 49.32,-35.57"/>
<polygon fill="midnightblue" stroke="midnightblue" points="50.84,-32.41 40.42,-30.51 47.38,-38.49 50.84,-32.41"/>
</g>
<!-- Node9 -->
<g id="node9" class="node">
<title>Node9</title>
<g id="a_node9"><a xlink:title=" ">
<polygon fill="none" stroke="#bfbfbf" points="1508,-11.5 1508,-30.5 1624,-30.5 1624,-11.5 1508,-11.5"/>
<text text-anchor="middle" x="1566" y="-18.5" font-family="Helvetica,sans-Serif" font-size="10.00">seerep&#45;msgs/aabb.h</text>
</a>
</g>
</g>
<!-- Node8&#45;&gt;Node9 -->
<g id="edge10" class="edge">
<title>Node8&#45;&gt;Node9</title>
<path fill="none" stroke="midnightblue" d="M890.17,-83.98C899.66,-81.64 909.59,-79.5 919,-78 1174.49,-37.29 1245.37,-87.82 1500,-42 1510.89,-40.04 1522.53,-36.89 1532.95,-33.66"/>
<polygon fill="midnightblue" stroke="midnightblue" points="1534.06,-36.98 1542.5,-30.58 1531.91,-30.32 1534.06,-36.98"/>
</g>
<!-- Node10 -->
<g id="node10" class="node">
<title>Node10</title>
<g id="a_node10"><a xlink:title=" ">
<polygon fill="none" stroke="#bfbfbf" points="1111.5,-6 1111.5,-36 1236.5,-36 1236.5,-6 1111.5,-6"/>
<text text-anchor="start" x="1119.5" y="-24" font-family="Helvetica,sans-Serif" font-size="10.00">seerep&#45;msgs/geodetic</text>
<text text-anchor="middle" x="1174" y="-13" font-family="Helvetica,sans-Serif" font-size="10.00">&#45;coordinates.h</text>
</a>
</g>
</g>
<!-- Node8&#45;&gt;Node10 -->
<g id="edge12" class="edge">
<title>Node8&#45;&gt;Node10</title>
<path fill="none" stroke="midnightblue" d="M894.5,-83.92C902.68,-81.85 911.06,-79.81 919,-78 999.82,-59.57 1021.34,-61.11 1102,-42 1106.38,-40.96 1110.89,-39.84 1115.43,-38.67"/>
<polygon fill="midnightblue" stroke="midnightblue" points="1116.55,-41.99 1125.33,-36.06 1114.77,-35.23 1116.55,-41.99"/>
</g>
<!-- Node8&#45;&gt;Node11 -->
<g id="edge13" class="edge">
<title>Node8&#45;&gt;Node11</title>
<path fill="none" stroke="midnightblue" d="M779.72,-83.99C732.86,-73.2 667.17,-57.55 610,-42 609.9,-41.97 609.8,-41.94 609.7,-41.92"/>
<polygon fill="midnightblue" stroke="midnightblue" points="610.68,-38.56 600.11,-39.24 608.8,-45.3 610.68,-38.56"/>
</g>
<!-- Node8&#45;&gt;Node12 -->
<g id="edge14" class="edge">
<title>Node8&#45;&gt;Node12</title>
<path fill="none" stroke="midnightblue" d="M904.62,-91.51C950.6,-86.99 1014.62,-81.22 1071,-78 1660.48,-44.3 1811.62,-102.06 2399,-42 2419.67,-39.89 2442.25,-36.13 2461.7,-32.45"/>
<polygon fill="midnightblue" stroke="midnightblue" points="2462.4,-35.88 2471.55,-30.53 2461.07,-29 2462.4,-35.88"/>
</g>
<!-- Node13 -->
<g id="node13" class="node">
<title>Node13</title>
<g id="a_node13"><a xlink:title=" ">
<polygon fill="none" stroke="#bfbfbf" points="1770,-11.5 1770,-30.5 1818,-30.5 1818,-11.5 1770,-11.5"/>
<text text-anchor="middle" x="1794" y="-18.5" font-family="Helvetica,sans-Serif" font-size="10.00">mutex</text>
</a>
</g>
</g>
<!-- Node8&#45;&gt;Node13 -->
<g id="edge15" class="edge">
<title>Node8&#45;&gt;Node13</title>
<path fill="none" stroke="midnightblue" d="M904.72,-90.56C941.95,-86.36 990.12,-81.3 1033,-78 1194.5,-65.56 1606.12,-89.42 1761,-42 1765.59,-40.59 1770.2,-38.41 1774.45,-35.99"/>
<polygon fill="midnightblue" stroke="midnightblue" points="1776.49,-38.84 1783.06,-30.53 1772.74,-32.93 1776.49,-38.84"/>
</g>
<!-- Node14 -->
<g id="node14" class="node">
<title>Node14</title>
<g id="a_node14"><a xlink:title=" ">
<polygon fill="none" stroke="#bfbfbf" points="1254.5,-11.5 1254.5,-30.5 1323.5,-30.5 1323.5,-11.5 1254.5,-11.5"/>
<text text-anchor="middle" x="1289" y="-18.5" font-family="Helvetica,sans-Serif" font-size="10.00">type_traits</text>
</a>
</g>
</g>
<!-- Node8&#45;&gt;Node14 -->
<g id="edge17" class="edge">
<title>Node8&#45;&gt;Node14</title>
<path fill="none" stroke="midnightblue" d="M891.88,-83.93C900.86,-81.71 910.17,-79.62 919,-78 1062.8,-51.55 1105.18,-81.35 1246,-42 1252.1,-40.3 1258.41,-37.81 1264.26,-35.17"/>
<polygon fill="midnightblue" stroke="midnightblue" points="1266.06,-38.19 1273.54,-30.68 1263.02,-31.88 1266.06,-38.19"/>
</g>
<!-- Node15 -->
<g id="node15" class="node">
<title>Node15</title>
<g id="a_node15"><a xlink:title=" ">
<polygon fill="none" stroke="#bfbfbf" points="2020.5,-6 2020.5,-36 2165.5,-36 2165.5,-6 2020.5,-6"/>
<text text-anchor="start" x="2028.5" y="-24" font-family="Helvetica,sans-Serif" font-size="10.00">boost/log/sources/severity</text>
<text text-anchor="middle" x="2093" y="-13" font-family="Helvetica,sans-Serif" font-size="10.00">_logger.hpp</text>
</a>
</g>
</g>
<!-- Node8&#45;&gt;Node15 -->
<g id="edge18" class="edge">
<title>Node8&#45;&gt;Node15</title>
<path fill="none" stroke="midnightblue" d="M904.64,-91.86C950.64,-87.51 1014.66,-81.8 1071,-78 1406.62,-55.36 1491.25,-62.61 1827,-42 1888.43,-38.23 1957.76,-32.98 2010.24,-28.81"/>
<polygon fill="midnightblue" stroke="midnightblue" points="2010.81,-32.28 2020.5,-27.99 2010.25,-25.3 2010.81,-32.28"/>
</g>
<!-- Node16 -->
<g id="node16" class="node">
<title>Node16</title>
<g id="a_node16"><a xlink:title=" ">
<polygon fill="none" stroke="#bfbfbf" points="2276,-11.5 2276,-30.5 2390,-30.5 2390,-11.5 2276,-11.5"/>
<text text-anchor="middle" x="2333" y="-18.5" font-family="Helvetica,sans-Serif" font-size="10.00">boost/log/trivial.hpp</text>
</a>
</g>
</g>
<!-- Node8&#45;&gt;Node16 -->
<g id="edge19" class="edge">
<title>Node8&#45;&gt;Node16</title>
<path fill="none" stroke="midnightblue" d="M904.62,-91.6C950.61,-87.13 1014.63,-81.38 1071,-78 1561.05,-48.63 1685.61,-80.87 2175,-42 2204.95,-39.62 2237.94,-35.66 2265.99,-31.89"/>
<polygon fill="midnightblue" stroke="midnightblue" points="2266.65,-35.33 2276.09,-30.51 2265.71,-28.39 2266.65,-35.33"/>
</g>
<!-- Node8&#45;&gt;Node17 -->
<g id="edge20" class="edge">
<title>Node8&#45;&gt;Node17</title>
<path fill="none" stroke="midnightblue" d="M813.77,-83.88C785.93,-69.97 743.73,-48.86 716.51,-35.25"/>
<polygon fill="midnightblue" stroke="midnightblue" points="717.72,-31.95 707.21,-30.61 714.59,-38.21 717.72,-31.95"/>
</g>
<!-- Node8&#45;&gt;Node18 -->
<g id="edge21" class="edge">
<title>Node8&#45;&gt;Node18</title>
<path fill="none" stroke="midnightblue" d="M842,-83.7C842,-71.6 842,-54.15 842,-40.89"/>
<polygon fill="midnightblue" stroke="midnightblue" points="845.5,-40.56 842,-30.56 838.5,-40.56 845.5,-40.56"/>
</g>
<!-- Node8&#45;&gt;Node19 -->
<g id="edge23" class="edge">
<title>Node8&#45;&gt;Node19</title>
<path fill="none" stroke="midnightblue" d="M872.83,-83.88C903.5,-69.84 950.13,-48.49 979.83,-34.9"/>
<polygon fill="midnightblue" stroke="midnightblue" points="981.57,-37.95 989.2,-30.61 978.65,-31.59 981.57,-37.95"/>
</g>
<!-- Node8&#45;&gt;Node20 -->
<g id="edge24" class="edge">
<title>Node8&#45;&gt;Node20</title>
<path fill="none" stroke="midnightblue" d="M779.38,-86.78C762.4,-83.83 744.01,-80.71 727,-78 617.01,-60.46 588.03,-64.76 479,-42 467.48,-39.59 455.08,-36.42 443.83,-33.32"/>
<polygon fill="midnightblue" stroke="midnightblue" points="444.46,-29.86 433.88,-30.51 442.55,-36.59 444.46,-29.86"/>
</g>
<!-- Node21 -->
<g id="node21" class="node">
<title>Node21</title>
<g id="a_node21"><a xlink:title=" ">
<polygon fill="none" stroke="#bfbfbf" points="1341.5,-11.5 1341.5,-30.5 1490.5,-30.5 1490.5,-11.5 1341.5,-11.5"/>
<text text-anchor="middle" x="1416" y="-18.5" font-family="Helvetica,sans-Serif" font-size="10.00">impl/hdf5&#45;core&#45;general.hpp</text>
</a>
</g>
</g>
<!-- Node8&#45;&gt;Node21 -->
<g id="edge25" class="edge">
<title>Node8&#45;&gt;Node21</title>
<path fill="none" stroke="midnightblue" d="M891.03,-83.96C900.26,-81.69 909.88,-79.57 919,-78 1101.02,-46.67 1150.71,-71.72 1333,-42 1346.99,-39.72 1362.11,-36.35 1375.56,-33.03"/>
<polygon fill="midnightblue" stroke="midnightblue" points="1376.64,-36.36 1385.48,-30.51 1374.92,-29.58 1376.64,-36.36"/>
</g>
<!-- Node22&#45;&gt;Node2 -->
<g id="edge36" class="edge">
<title>Node22&#45;&gt;Node2</title>
<path fill="none" stroke="midnightblue" d="M1934.35,-169.44C1741.24,-165.57 1119.08,-150.75 1090,-120 1077.18,-106.44 1077.24,-91.63 1090,-78 1131.32,-33.85 1573.56,-53.1 1633,-42 1643.47,-40.05 1654.63,-36.93 1664.65,-33.74"/>
<polygon fill="midnightblue" stroke="midnightblue" points="1665.84,-37.03 1674.23,-30.56 1663.63,-30.39 1665.84,-37.03"/>
</g>
<!-- Node22&#45;&gt;Node7 -->
<g id="edge50" class="edge">
<title>Node22&#45;&gt;Node7</title>
<path fill="none" stroke="midnightblue" d="M1934.37,-169.54C1760.43,-166.29 1218.6,-153.95 771,-120 731.65,-117.02 102.67,-53.77 65,-42 59.82,-40.38 54.53,-38.02 49.62,-35.47"/>
<polygon fill="midnightblue" stroke="midnightblue" points="51.24,-32.37 40.81,-30.52 47.81,-38.47 51.24,-32.37"/>
</g>
<!-- Node22&#45;&gt;Node8 -->
<g id="edge37" class="edge">
<title>Node22&#45;&gt;Node8</title>
<path fill="none" stroke="midnightblue" d="M1934.45,-169.2C1782.33,-165.38 1351.72,-152.31 995,-120 968.74,-117.62 940.05,-114.12 914.69,-110.7"/>
<polygon fill="midnightblue" stroke="midnightblue" points="915.16,-107.23 904.78,-109.35 914.21,-114.17 915.16,-107.23"/>
</g>
<!-- Node22&#45;&gt;Node12 -->
<g id="edge47" class="edge">
<title>Node22&#45;&gt;Node12</title>
<path fill="none" stroke="midnightblue" d="M2047.66,-168.76C2173.19,-164.35 2466.14,-150.84 2498,-120 2519.1,-99.58 2517.8,-62.68 2514.62,-40.45"/>
<polygon fill="midnightblue" stroke="midnightblue" points="2518.07,-39.86 2512.95,-30.59 2511.17,-41.03 2518.07,-39.86"/>
</g>
<!-- Node22&#45;&gt;Node13 -->
<g id="edge49" class="edge">
<title>Node22&#45;&gt;Node13</title>
<path fill="none" stroke="midnightblue" d="M1934.23,-169.39C1742.99,-165.38 1132.57,-150.24 1104,-120 1091.18,-106.43 1091.17,-91.56 1104,-78 1154.26,-24.91 1691.15,-63.59 1761,-42 1765.59,-40.58 1770.19,-38.39 1774.45,-35.97"/>
<polygon fill="midnightblue" stroke="midnightblue" points="1776.48,-38.82 1783.06,-30.51 1772.74,-32.91 1776.48,-38.82"/>
</g>
<!-- Node22&#45;&gt;Node15 -->
<g id="edge51" class="edge">
<title>Node22&#45;&gt;Node15</title>
<path fill="none" stroke="midnightblue" d="M2047.93,-168.58C2167.24,-163.96 2434.76,-150.32 2462,-120 2474.48,-106.11 2474.17,-92.15 2462,-78 2452.7,-67.19 2281.65,-44.76 2175.73,-31.81"/>
<polygon fill="midnightblue" stroke="midnightblue" points="2176.05,-28.32 2165.7,-30.58 2175.2,-35.27 2176.05,-28.32"/>
</g>
<!-- Node22&#45;&gt;Node16 -->
<g id="edge52" class="edge">
<title>Node22&#45;&gt;Node16</title>
<path fill="none" stroke="midnightblue" d="M2047.78,-168.83C2170.44,-164.62 2451.49,-151.61 2480,-120 2492.5,-106.14 2490.59,-93.37 2480,-78 2461.9,-51.74 2429.72,-37.78 2400.07,-30.37"/>
<polygon fill="midnightblue" stroke="midnightblue" points="2400.66,-26.92 2390.14,-28.1 2399.1,-33.74 2400.66,-26.92"/>
</g>
<!-- Node23 -->
<g id="node23" class="node">
<title>Node23</title>
<g id="a_node23"><a xlink:title=" ">
<polygon fill="none" stroke="#bfbfbf" points="1113,-84 1113,-114 1271,-114 1271,-84 1113,-84"/>
<text text-anchor="start" x="1121" y="-102" font-family="Helvetica,sans-Serif" font-size="10.00">seerep&#45;msgs/boundingbox2d</text>
<text text-anchor="middle" x="1192" y="-91" font-family="Helvetica,sans-Serif" font-size="10.00">_labeled_generated.h</text>
</a>
</g>
</g>
<!-- Node22&#45;&gt;Node23 -->
<g id="edge38" class="edge">
<title>Node22&#45;&gt;Node23</title>
<path fill="none" stroke="midnightblue" d="M1934.46,-169.41C1813.67,-166.44 1521.76,-155.84 1280,-120 1272.86,-118.94 1265.44,-117.62 1258.08,-116.16"/>
<polygon fill="midnightblue" stroke="midnightblue" points="1258.59,-112.69 1248.09,-114.09 1257.18,-119.54 1258.59,-112.69"/>
</g>
<!-- Node24 -->
<g id="node24" class="node">
<title>Node24</title>
<g id="a_node24"><a xlink:title=" ">
<polygon fill="none" stroke="#bfbfbf" points="1289,-78.5 1289,-119.5 1447,-119.5 1447,-78.5 1289,-78.5"/>
<text text-anchor="start" x="1297" y="-107.5" font-family="Helvetica,sans-Serif" font-size="10.00">seerep&#45;msgs/boundingbox2d</text>
<text text-anchor="start" x="1297" y="-96.5" font-family="Helvetica,sans-Serif" font-size="10.00">_labeled_with_category</text>
<text text-anchor="middle" x="1368" y="-85.5" font-family="Helvetica,sans-Serif" font-size="10.00">_generated.h</text>
</a>
</g>
</g>
<!-- Node22&#45;&gt;Node24 -->
<g id="edge39" class="edge">
<title>Node22&#45;&gt;Node24</title>
<path fill="none" stroke="midnightblue" d="M1934.47,-167.57C1838.3,-162.07 1636.64,-148.25 1456.96,-120.05"/>
<polygon fill="midnightblue" stroke="midnightblue" points="1457.49,-116.59 1447.06,-118.48 1456.39,-123.5 1457.49,-116.59"/>
</g>
<!-- Node25 -->
<g id="node25" class="node">
<title>Node25</title>
<g id="a_node25"><a xlink:title=" ">
<polygon fill="none" stroke="#bfbfbf" points="1465,-84 1465,-114 1611,-114 1611,-84 1465,-84"/>
<text text-anchor="start" x="1473" y="-102" font-family="Helvetica,sans-Serif" font-size="10.00">seerep&#45;msgs/boundingbox</text>
<text text-anchor="middle" x="1538" y="-91" font-family="Helvetica,sans-Serif" font-size="10.00">_labeled_generated.h</text>
</a>
</g>
</g>
<!-- Node22&#45;&gt;Node25 -->
<g id="edge40" class="edge">
<title>Node22&#45;&gt;Node25</title>
<path fill="none" stroke="midnightblue" d="M1934.45,-164.65C1861.45,-156.68 1730.65,-140.97 1620,-120 1614.19,-118.9 1608.17,-117.65 1602.16,-116.32"/>
<polygon fill="midnightblue" stroke="midnightblue" points="1602.61,-112.83 1592.08,-114.03 1601.06,-119.66 1602.61,-112.83"/>
</g>
<!-- Node26 -->
<g id="node26" class="node">
<title>Node26</title>
<g id="a_node26"><a xlink:title=" ">
<polygon fill="none" stroke="#bfbfbf" points="1629,-78.5 1629,-119.5 1775,-119.5 1775,-78.5 1629,-78.5"/>
<text text-anchor="start" x="1637" y="-107.5" font-family="Helvetica,sans-Serif" font-size="10.00">seerep&#45;msgs/boundingbox</text>
<text text-anchor="start" x="1637" y="-96.5" font-family="Helvetica,sans-Serif" font-size="10.00">_labeled_with_category</text>
<text text-anchor="middle" x="1702" y="-85.5" font-family="Helvetica,sans-Serif" font-size="10.00">_generated.h</text>
</a>
</g>
</g>
<!-- Node22&#45;&gt;Node26 -->
<g id="edge41" class="edge">
<title>Node22&#45;&gt;Node26</title>
<path fill="none" stroke="midnightblue" d="M1934.25,-156.66C1891.65,-146.26 1832.67,-131.88 1784.81,-120.2"/>
<polygon fill="midnightblue" stroke="midnightblue" points="1785.63,-116.8 1775.09,-117.83 1783.98,-123.6 1785.63,-116.8"/>
</g>
<!-- Node27 -->
<g id="node27" class="node">
<title>Node27</title>
<g id="a_node27"><a xlink:title=" ">
<polygon fill="none" stroke="#bfbfbf" points="1793,-84 1793,-114 1909,-114 1909,-84 1793,-84"/>
<text text-anchor="start" x="1801" y="-102" font-family="Helvetica,sans-Serif" font-size="10.00">seerep&#45;msgs/header</text>
<text text-anchor="middle" x="1851" y="-91" font-family="Helvetica,sans-Serif" font-size="10.00">_generated.h</text>
</a>
</g>
</g>
<!-- Node22&#45;&gt;Node27 -->
<g id="edge42" class="edge">
<title>Node22&#45;&gt;Node27</title>
<path fill="none" stroke="midnightblue" d="M1963.01,-156.4C1941.45,-145.55 1911.46,-130.45 1887.94,-118.6"/>
<polygon fill="midnightblue" stroke="midnightblue" points="1889.45,-115.44 1878.95,-114.07 1886.3,-121.7 1889.45,-115.44"/>
</g>
<!-- Node28 -->
<g id="node28" class="node">
<title>Node28</title>
<g id="a_node28"><a xlink:title=" ">
<polygon fill="none" stroke="#bfbfbf" points="1927,-78.5 1927,-119.5 2055,-119.5 2055,-78.5 1927,-78.5"/>
<text text-anchor="start" x="1935" y="-107.5" font-family="Helvetica,sans-Serif" font-size="10.00">seerep&#45;msgs/labels</text>
<text text-anchor="start" x="1935" y="-96.5" font-family="Helvetica,sans-Serif" font-size="10.00">_with_instance_with</text>
<text text-anchor="middle" x="1991" y="-85.5" font-family="Helvetica,sans-Serif" font-size="10.00">_category_generated.h</text>
</a>
</g>
</g>
<!-- Node22&#45;&gt;Node28 -->
<g id="edge43" class="edge">
<title>Node22&#45;&gt;Node28</title>
<path fill="none" stroke="midnightblue" d="M1991,-156.23C1991,-148.57 1991,-138.84 1991,-129.63"/>
<polygon fill="midnightblue" stroke="midnightblue" points="1994.5,-129.59 1991,-119.59 1987.5,-129.59 1994.5,-129.59"/>
</g>
<!-- Node29 -->
<g id="node29" class="node">
<title>Node29</title>
<g id="a_node29"><a xlink:title=" ">
<polygon fill="none" stroke="#bfbfbf" points="2073.5,-84 2073.5,-114 2210.5,-114 2210.5,-84 2073.5,-84"/>
<text text-anchor="start" x="2081.5" y="-102" font-family="Helvetica,sans-Serif" font-size="10.00">seerep&#45;msgs/union_map</text>
<text text-anchor="middle" x="2142" y="-91" font-family="Helvetica,sans-Serif" font-size="10.00">_entry_generated.h</text>
</a>
</g>
</g>
<!-- Node22&#45;&gt;Node29 -->
<g id="edge44" class="edge">
<title>Node22&#45;&gt;Node29</title>
<path fill="none" stroke="midnightblue" d="M2021.19,-156.4C2044.55,-145.5 2077.08,-130.31 2102.5,-118.44"/>
<polygon fill="midnightblue" stroke="midnightblue" points="2104.28,-121.47 2111.86,-114.07 2101.32,-115.13 2104.28,-121.47"/>
</g>
<!-- Node22&#45;&gt;Node30 -->
<g id="edge45" class="edge">
<title>Node22&#45;&gt;Node30</title>
<path fill="none" stroke="midnightblue" d="M2047.59,-169.78C2152.05,-167.53 2381.77,-158.25 2571,-120 2580.96,-117.99 2591.56,-114.93 2601.12,-111.8"/>
<polygon fill="midnightblue" stroke="midnightblue" points="2602.31,-115.09 2610.65,-108.56 2600.06,-108.47 2602.31,-115.09"/>
</g>
<!-- Node22&#45;&gt;Node31 -->
<g id="edge46" class="edge">
<title>Node22&#45;&gt;Node31</title>
<path fill="none" stroke="midnightblue" d="M2047.85,-171.36C2167.83,-172.08 2455.19,-168.11 2690,-120 2699.25,-118.1 2709.05,-115.12 2717.9,-112.04"/>
<polygon fill="midnightblue" stroke="midnightblue" points="2719.23,-115.28 2727.43,-108.56 2716.83,-108.7 2719.23,-115.28"/>
</g>
<!-- Node32 -->
<g id="node32" class="node">
<title>Node32</title>
<g id="a_node32"><a xlink:title=" ">
<polygon fill="none" stroke="#bfbfbf" points="2229,-89.5 2229,-108.5 2297,-108.5 2297,-89.5 2229,-89.5"/>
<text text-anchor="middle" x="2263" y="-96.5" font-family="Helvetica,sans-Serif" font-size="10.00">filesystem</text>
</a>
</g>
</g>
<!-- Node22&#45;&gt;Node32 -->
<g id="edge48" class="edge">
<title>Node22&#45;&gt;Node32</title>
<path fill="none" stroke="midnightblue" d="M2047.93,-161.51C2094.85,-153.26 2162.73,-139.37 2220,-120 2225.8,-118.04 2231.85,-115.53 2237.52,-112.96"/>
<polygon fill="midnightblue" stroke="midnightblue" points="2239.07,-116.1 2246.6,-108.66 2236.07,-109.78 2239.07,-116.1"/>
</g>
<!-- Node33 -->
<g id="node33" class="node">
<title>Node33</title>
<g id="a_node33"><a xlink:title=" ">
<polygon fill="none" stroke="#bfbfbf" points="2315,-89.5 2315,-108.5 2453,-108.5 2453,-89.5 2315,-89.5"/>
<text text-anchor="middle" x="2384" y="-96.5" font-family="Helvetica,sans-Serif" font-size="10.00">impl/hdf5&#45;fb&#45;general.hpp</text>
</a>
</g>
</g>
<!-- Node22&#45;&gt;Node33 -->
<g id="edge53" class="edge">
<title>Node22&#45;&gt;Node33</title>
<path fill="none" stroke="midnightblue" d="M2047.62,-163.02C2110.9,-154.3 2216.26,-138.66 2306,-120 2318.3,-117.44 2331.57,-114.22 2343.62,-111.11"/>
<polygon fill="midnightblue" stroke="midnightblue" points="2344.62,-114.46 2353.4,-108.54 2342.84,-107.69 2344.62,-114.46"/>
</g>
</g>
</svg>
