<?xml version="1.0" encoding="UTF-8" standalone="no"?>
<!DOCTYPE svg PUBLIC "-//W3C//DTD SVG 1.1//EN"
 "http://www.w3.org/Graphics/SVG/1.1/DTD/svg11.dtd">
<!-- Generated by graphviz version 2.43.0 (0)
 -->
<!-- Title: seerep&#45;hdf5/seerep&#45;hdf5&#45;pb/include/seerep&#45;hdf5&#45;pb/hdf5&#45;pb&#45;general.h Pages: 1 -->
<svg width="1161pt" height="440pt"
 viewBox="0.00 0.00 1161.00 440.00" xmlns="http://www.w3.org/2000/svg" xmlns:xlink="http://www.w3.org/1999/xlink">
<g id="graph0" class="graph" transform="scale(1 1) rotate(0) translate(4 436)">
<title>seerep&#45;hdf5/seerep&#45;hdf5&#45;pb/include/seerep&#45;hdf5&#45;pb/hdf5&#45;pb&#45;general.h</title>
<!-- Node1 -->
<g id="node1" class="node">
<title>Node1</title>
<g id="a_node1"><a xlink:title=" ">
<polygon fill="#bfbfbf" stroke="black" points="553.5,-390.5 553.5,-431.5 701.5,-431.5 701.5,-390.5 553.5,-390.5"/>
<text text-anchor="start" x="561.5" y="-419.5" font-family="Helvetica,sans-Serif" font-size="10.00">seerep&#45;hdf5/seerep</text>
<text text-anchor="start" x="561.5" y="-408.5" font-family="Helvetica,sans-Serif" font-size="10.00">&#45;hdf5&#45;pb/include/seerep</text>
<text text-anchor="middle" x="627.5" y="-397.5" font-family="Helvetica,sans-Serif" font-size="10.00">&#45;hdf5&#45;pb/hdf5&#45;pb&#45;general.h</text>
</a>
</g>
</g>
<!-- Node2 -->
<g id="node2" class="node">
<title>Node2</title>
<g id="a_node2"><a xlink:href="hdf5-pb-image_8h.html" target="_top" xlink:title=" ">
<polygon fill="none" stroke="black" points="232.5,-312.5 232.5,-353.5 374.5,-353.5 374.5,-312.5 232.5,-312.5"/>
<text text-anchor="start" x="240.5" y="-341.5" font-family="Helvetica,sans-Serif" font-size="10.00">seerep&#45;hdf5/seerep</text>
<text text-anchor="start" x="240.5" y="-330.5" font-family="Helvetica,sans-Serif" font-size="10.00">&#45;hdf5&#45;pb/include/seerep</text>
<text text-anchor="middle" x="303.5" y="-319.5" font-family="Helvetica,sans-Serif" font-size="10.00">&#45;hdf5&#45;pb/hdf5&#45;pb&#45;image.h</text>
</a>
</g>
</g>
<!-- Node1&#45;&gt;Node2 -->
<g id="edge1" class="edge">
<title>Node1&#45;&gt;Node2</title>
<path fill="none" stroke="midnightblue" d="M543.24,-390.23C490.9,-377.96 424.39,-362.36 374.7,-350.7"/>
<polygon fill="midnightblue" stroke="midnightblue" points="542.63,-393.69 553.17,-392.56 544.23,-386.87 542.63,-393.69"/>
</g>
<!-- Node12 -->
<g id="node12" class="node">
<title>Node12</title>
<g id="a_node12"><a xlink:href="hdf5-pb-pointcloud_8h.html" target="_top" xlink:title=" ">
<polygon fill="none" stroke="black" points="464.5,-312.5 464.5,-353.5 626.5,-353.5 626.5,-312.5 464.5,-312.5"/>
<text text-anchor="start" x="472.5" y="-341.5" font-family="Helvetica,sans-Serif" font-size="10.00">seerep&#45;hdf5/seerep</text>
<text text-anchor="start" x="472.5" y="-330.5" font-family="Helvetica,sans-Serif" font-size="10.00">&#45;hdf5&#45;pb/include/seerep</text>
<text text-anchor="middle" x="545.5" y="-319.5" font-family="Helvetica,sans-Serif" font-size="10.00">&#45;hdf5&#45;pb/hdf5&#45;pb&#45;pointcloud.h</text>
</a>
</g>
</g>
<!-- Node1&#45;&gt;Node12 -->
<g id="edge11" class="edge">
<title>Node1&#45;&gt;Node12</title>
<path fill="none" stroke="midnightblue" d="M598.9,-383.49C588.26,-373.63 576.39,-362.63 566.55,-353.51"/>
<polygon fill="midnightblue" stroke="midnightblue" points="596.67,-386.2 606.38,-390.43 601.43,-381.06 596.67,-386.2"/>
</g>
<!-- Node18 -->
<g id="node18" class="node">
<title>Node18</title>
<g id="a_node18"><a xlink:href="hdf5-pb-tf_8h.html" target="_top" xlink:title=" ">
<polygon fill="none" stroke="black" points="644.5,-312.5 644.5,-353.5 776.5,-353.5 776.5,-312.5 644.5,-312.5"/>
<text text-anchor="start" x="652.5" y="-341.5" font-family="Helvetica,sans-Serif" font-size="10.00">seerep&#45;hdf5/seerep</text>
<text text-anchor="start" x="652.5" y="-330.5" font-family="Helvetica,sans-Serif" font-size="10.00">&#45;hdf5&#45;pb/include/seerep</text>
<text text-anchor="middle" x="710.5" y="-319.5" font-family="Helvetica,sans-Serif" font-size="10.00">&#45;hdf5&#45;pb/hdf5&#45;pb&#45;tf.h</text>
</a>
</g>
</g>
<!-- Node1&#45;&gt;Node18 -->
<g id="edge19" class="edge">
<title>Node1&#45;&gt;Node18</title>
<path fill="none" stroke="midnightblue" d="M656.45,-383.49C667.22,-373.63 679.24,-362.63 689.2,-353.51"/>
<polygon fill="midnightblue" stroke="midnightblue" points="653.89,-381.09 648.87,-390.43 658.61,-386.26 653.89,-381.09"/>
</g>
<!-- Node24 -->
<g id="node24" class="node">
<title>Node24</title>
<g id="a_node24"><a xlink:href="hdf5-pb-general_8cpp.html" target="_top" xlink:title=" ">
<polygon fill="none" stroke="black" points="794.5,-312.5 794.5,-353.5 910.5,-353.5 910.5,-312.5 794.5,-312.5"/>
<text text-anchor="start" x="802.5" y="-341.5" font-family="Helvetica,sans-Serif" font-size="10.00">seerep&#45;hdf5/seerep</text>
<text text-anchor="start" x="802.5" y="-330.5" font-family="Helvetica,sans-Serif" font-size="10.00">&#45;hdf5&#45;pb/src/hdf5&#45;pb</text>
<text text-anchor="middle" x="852.5" y="-319.5" font-family="Helvetica,sans-Serif" font-size="10.00">&#45;general.cpp</text>
</a>
</g>
</g>
<!-- Node1&#45;&gt;Node24 -->
<g id="edge27" class="edge">
<title>Node1&#45;&gt;Node24</title>
<path fill="none" stroke="midnightblue" d="M695.1,-387.17C726.87,-376.44 764.34,-363.78 794.75,-353.51"/>
<polygon fill="midnightblue" stroke="midnightblue" points="693.8,-383.91 685.44,-390.43 696.04,-390.54 693.8,-383.91"/>
</g>
<!-- Node3 -->
<g id="node3" class="node">
<title>Node3</title>
<g id="a_node3"><a xlink:href="hdf5-pb-image_8cpp.html" target="_top" xlink:title=" ">
<polygon fill="none" stroke="black" points="31.5,-229 31.5,-270 147.5,-270 147.5,-229 31.5,-229"/>
<text text-anchor="start" x="39.5" y="-258" font-family="Helvetica,sans-Serif" font-size="10.00">seerep&#45;hdf5/seerep</text>
<text text-anchor="start" x="39.5" y="-247" font-family="Helvetica,sans-Serif" font-size="10.00">&#45;hdf5&#45;pb/src/hdf5&#45;pb</text>
<text text-anchor="middle" x="89.5" y="-236" font-family="Helvetica,sans-Serif" font-size="10.00">&#45;image.cpp</text>
</a>
</g>
</g>
<!-- Node2&#45;&gt;Node3 -->
<g id="edge2" class="edge">
<title>Node2&#45;&gt;Node3</title>
<path fill="none" stroke="midnightblue" d="M242.49,-308.77C210.32,-296.51 171.29,-281.65 140.71,-270"/>
<polygon fill="midnightblue" stroke="midnightblue" points="241.65,-312.19 252.24,-312.48 244.14,-305.65 241.65,-312.19"/>
</g>
<!-- Node4 -->
<g id="node4" class="node">
<title>Node4</title>
<g id="a_node4"><a xlink:href="hdf5dump_8h.html" target="_top" xlink:title=" ">
<polygon fill="none" stroke="black" points="315.5,-223.5 315.5,-275.5 469.5,-275.5 469.5,-223.5 315.5,-223.5"/>
<text text-anchor="start" x="323.5" y="-263.5" font-family="Helvetica,sans-Serif" font-size="10.00">seerep&#45;ros/seerep_ros</text>
<text text-anchor="start" x="323.5" y="-252.5" font-family="Helvetica,sans-Serif" font-size="10.00">_communication/include</text>
<text text-anchor="start" x="323.5" y="-241.5" font-family="Helvetica,sans-Serif" font-size="10.00">/seerep_ros_communication</text>
<text text-anchor="middle" x="392.5" y="-230.5" font-family="Helvetica,sans-Serif" font-size="10.00">/hdf5dump.h</text>
</a>
</g>
</g>
<!-- Node2&#45;&gt;Node4 -->
<g id="edge3" class="edge">
<title>Node2&#45;&gt;Node4</title>
<path fill="none" stroke="midnightblue" d="M332.72,-305.24C343.13,-295.71 354.82,-285 365.08,-275.61"/>
<polygon fill="midnightblue" stroke="midnightblue" points="330.06,-302.94 325.04,-312.27 334.78,-308.1 330.06,-302.94"/>
</g>
<!-- Node6 -->
<g id="node6" class="node">
<title>Node6</title>
<g id="a_node6"><a xlink:href="core-pb-image_8h.html" target="_top" xlink:title=" ">
<polygon fill="none" stroke="black" points="166,-229 166,-270 297,-270 297,-229 166,-229"/>
<text text-anchor="start" x="174" y="-258" font-family="Helvetica,sans-Serif" font-size="10.00">seerep&#45;srv/seerep&#45;core</text>
<text text-anchor="start" x="174" y="-247" font-family="Helvetica,sans-Serif" font-size="10.00">&#45;pb/include/seerep&#45;core</text>
<text text-anchor="middle" x="231.5" y="-236" font-family="Helvetica,sans-Serif" font-size="10.00">&#45;pb/core&#45;pb&#45;image.h</text>
</a>
</g>
</g>
<!-- Node2&#45;&gt;Node6 -->
<g id="edge5" class="edge">
<title>Node2&#45;&gt;Node6</title>
<path fill="none" stroke="midnightblue" d="M279.39,-304.71C269.36,-293.36 257.94,-280.43 248.77,-270.05"/>
<polygon fill="midnightblue" stroke="midnightblue" points="276.83,-307.09 286.07,-312.27 282.07,-302.46 276.83,-307.09"/>
</g>
<!-- Node5 -->
<g id="node5" class="node">
<title>Node5</title>
<g id="a_node5"><a xlink:href="hdf5dump_8cpp.html" target="_top" xlink:title=" ">
<polygon fill="none" stroke="black" points="321.5,-151 321.5,-181 509.5,-181 509.5,-151 321.5,-151"/>
<text text-anchor="start" x="329.5" y="-169" font-family="Helvetica,sans-Serif" font-size="10.00">seerep&#45;ros/seerep_ros</text>
<text text-anchor="middle" x="415.5" y="-158" font-family="Helvetica,sans-Serif" font-size="10.00">_communication/src/hdf5dump.cpp</text>
</a>
</g>
</g>
<!-- Node4&#45;&gt;Node5 -->
<g id="edge4" class="edge">
<title>Node4&#45;&gt;Node5</title>
<path fill="none" stroke="midnightblue" d="M402.4,-213.42C405.61,-202.06 408.98,-190.1 411.5,-181.17"/>
<polygon fill="midnightblue" stroke="midnightblue" points="399,-212.58 399.65,-223.16 405.74,-214.49 399,-212.58"/>
</g>
<!-- Node7 -->
<g id="node7" class="node">
<title>Node7</title>
<g id="a_node7"><a xlink:href="core-pb-image_8cpp.html" target="_top" xlink:title=" ">
<polygon fill="none" stroke="black" points="159.5,-151 159.5,-181 303.5,-181 303.5,-151 159.5,-151"/>
<text text-anchor="start" x="167.5" y="-169" font-family="Helvetica,sans-Serif" font-size="10.00">seerep&#45;srv/seerep&#45;core</text>
<text text-anchor="middle" x="231.5" y="-158" font-family="Helvetica,sans-Serif" font-size="10.00">&#45;pb/src/core&#45;pb&#45;image.cpp</text>
</a>
</g>
</g>
<!-- Node6&#45;&gt;Node7 -->
<g id="edge6" class="edge">
<title>Node6&#45;&gt;Node7</title>
<path fill="none" stroke="midnightblue" d="M231.5,-218.53C231.5,-205.76 231.5,-191.47 231.5,-181.18"/>
<polygon fill="midnightblue" stroke="midnightblue" points="228,-218.77 231.5,-228.77 235,-218.77 228,-218.77"/>
</g>
<!-- Node8 -->
<g id="node8" class="node">
<title>Node8</title>
<g id="a_node8"><a xlink:href="pb-image-service_8h.html" target="_top" xlink:title=" ">
<polygon fill="none" stroke="black" points="2,-145.5 2,-186.5 141,-186.5 141,-145.5 2,-145.5"/>
<text text-anchor="start" x="10" y="-174.5" font-family="Helvetica,sans-Serif" font-size="10.00">seerep&#45;srv/seerep&#45;server</text>
<text text-anchor="start" x="10" y="-163.5" font-family="Helvetica,sans-Serif" font-size="10.00">/include/seerep&#45;server</text>
<text text-anchor="middle" x="71.5" y="-152.5" font-family="Helvetica,sans-Serif" font-size="10.00">/pb&#45;image&#45;service.h</text>
</a>
</g>
</g>
<!-- Node6&#45;&gt;Node8 -->
<g id="edge7" class="edge">
<title>Node6&#45;&gt;Node8</title>
<path fill="none" stroke="midnightblue" d="M184.01,-224.31C160.33,-212.25 132.06,-197.85 109.79,-186.5"/>
<polygon fill="midnightblue" stroke="midnightblue" points="182.68,-227.56 193.18,-228.98 185.85,-221.32 182.68,-227.56"/>
</g>
<!-- Node9 -->
<g id="node9" class="node">
<title>Node9</title>
<g id="a_node9"><a xlink:href="server_8h.html" target="_top" xlink:title=" ">
<polygon fill="none" stroke="black" points="605,-67.5 605,-108.5 744,-108.5 744,-67.5 605,-67.5"/>
<text text-anchor="start" x="613" y="-96.5" font-family="Helvetica,sans-Serif" font-size="10.00">seerep&#45;srv/seerep&#45;server</text>
<text text-anchor="start" x="613" y="-85.5" font-family="Helvetica,sans-Serif" font-size="10.00">/include/seerep&#45;server</text>
<text text-anchor="middle" x="674.5" y="-74.5" font-family="Helvetica,sans-Serif" font-size="10.00">/server.h</text>
</a>
</g>
</g>
<!-- Node8&#45;&gt;Node9 -->
<g id="edge8" class="edge">
<title>Node8&#45;&gt;Node9</title>
<path fill="none" stroke="midnightblue" d="M151.2,-145.01C319.4,-115.47 506.17,-100.07 604.97,-93.29"/>
<polygon fill="midnightblue" stroke="midnightblue" points="150.4,-141.6 141.17,-146.79 151.63,-148.49 150.4,-141.6"/>
</g>
<!-- Node11 -->
<g id="node11" class="node">
<title>Node11</title>
<g id="a_node11"><a xlink:href="pb-image-service_8cpp.html" target="_top" xlink:title=" ">
<polygon fill="none" stroke="black" points="0,-73 0,-103 143,-103 143,-73 0,-73"/>
<text text-anchor="start" x="8" y="-91" font-family="Helvetica,sans-Serif" font-size="10.00">seerep&#45;srv/seerep&#45;server</text>
<text text-anchor="middle" x="71.5" y="-80" font-family="Helvetica,sans-Serif" font-size="10.00">/src/pb&#45;image&#45;service.cpp</text>
</a>
</g>
</g>
<!-- Node8&#45;&gt;Node11 -->
<g id="edge10" class="edge">
<title>Node8&#45;&gt;Node11</title>
<path fill="none" stroke="midnightblue" d="M71.5,-135.28C71.5,-124.25 71.5,-112.25 71.5,-103.23"/>
<polygon fill="midnightblue" stroke="midnightblue" points="68,-135.43 71.5,-145.43 75,-135.43 68,-135.43"/>
</g>
<!-- Node10 -->
<g id="node10" class="node">
<title>Node10</title>
<g id="a_node10"><a xlink:href="server_8cpp.html" target="_top" xlink:title=" ">
<polygon fill="none" stroke="black" points="605,-0.5 605,-30.5 744,-30.5 744,-0.5 605,-0.5"/>
<text text-anchor="start" x="613" y="-18.5" font-family="Helvetica,sans-Serif" font-size="10.00">seerep&#45;srv/seerep&#45;server</text>
<text text-anchor="middle" x="674.5" y="-7.5" font-family="Helvetica,sans-Serif" font-size="10.00">/src/server.cpp</text>
</a>
</g>
</g>
<!-- Node9&#45;&gt;Node10 -->
<g id="edge9" class="edge">
<title>Node9&#45;&gt;Node10</title>
<path fill="none" stroke="midnightblue" d="M674.5,-57.08C674.5,-48.01 674.5,-38.45 674.5,-30.89"/>
<polygon fill="midnightblue" stroke="midnightblue" points="671,-57.36 674.5,-67.36 678,-57.36 671,-57.36"/>
</g>
<!-- Node12&#45;&gt;Node4 -->
<g id="edge13" class="edge">
<title>Node12&#45;&gt;Node4</title>
<path fill="none" stroke="midnightblue" d="M499.79,-307.65C480.78,-297.53 458.73,-285.78 439.58,-275.58"/>
<polygon fill="midnightblue" stroke="midnightblue" points="498.38,-310.87 508.85,-312.48 501.67,-304.69 498.38,-310.87"/>
</g>
<!-- Node13 -->
<g id="node13" class="node">
<title>Node13</title>
<g id="a_node13"><a xlink:href="hdf5-pb-pointcloud_8cpp.html" target="_top" xlink:title=" ">
<polygon fill="none" stroke="black" points="487.5,-229 487.5,-270 603.5,-270 603.5,-229 487.5,-229"/>
<text text-anchor="start" x="495.5" y="-258" font-family="Helvetica,sans-Serif" font-size="10.00">seerep&#45;hdf5/seerep</text>
<text text-anchor="start" x="495.5" y="-247" font-family="Helvetica,sans-Serif" font-size="10.00">&#45;hdf5&#45;pb/src/hdf5&#45;pb</text>
<text text-anchor="middle" x="545.5" y="-236" font-family="Helvetica,sans-Serif" font-size="10.00">&#45;pointcloud.cpp</text>
</a>
</g>
</g>
<!-- Node12&#45;&gt;Node13 -->
<g id="edge12" class="edge">
<title>Node12&#45;&gt;Node13</title>
<path fill="none" stroke="midnightblue" d="M545.5,-302.06C545.5,-291.38 545.5,-279.63 545.5,-270.05"/>
<polygon fill="midnightblue" stroke="midnightblue" points="542,-302.27 545.5,-312.27 549,-302.27 542,-302.27"/>
</g>
<!-- Node14 -->
<g id="node14" class="node">
<title>Node14</title>
<g id="a_node14"><a xlink:href="core-pb-pointcloud_8h.html" target="_top" xlink:title=" ">
<polygon fill="none" stroke="black" points="621.5,-229 621.5,-270 757.5,-270 757.5,-229 621.5,-229"/>
<text text-anchor="start" x="629.5" y="-258" font-family="Helvetica,sans-Serif" font-size="10.00">seerep&#45;srv/seerep&#45;core</text>
<text text-anchor="start" x="629.5" y="-247" font-family="Helvetica,sans-Serif" font-size="10.00">&#45;pb/include/seerep&#45;core</text>
<text text-anchor="middle" x="689.5" y="-236" font-family="Helvetica,sans-Serif" font-size="10.00">&#45;pb/core&#45;pb&#45;pointcloud.h</text>
</a>
</g>
</g>
<!-- Node12&#45;&gt;Node14 -->
<g id="edge14" class="edge">
<title>Node12&#45;&gt;Node14</title>
<path fill="none" stroke="midnightblue" d="M588.77,-307.51C609.89,-295.56 634.95,-281.37 654.79,-270.14"/>
<polygon fill="midnightblue" stroke="midnightblue" points="586.97,-304.51 579.99,-312.48 590.42,-310.6 586.97,-304.51"/>
</g>
<!-- Node15 -->
<g id="node15" class="node">
<title>Node15</title>
<g id="a_node15"><a xlink:href="core-pb-pointcloud_8cpp.html" target="_top" xlink:title=" ">
<polygon fill="none" stroke="black" points="527.5,-151 527.5,-181 691.5,-181 691.5,-151 527.5,-151"/>
<text text-anchor="start" x="535.5" y="-169" font-family="Helvetica,sans-Serif" font-size="10.00">seerep&#45;srv/seerep&#45;core</text>
<text text-anchor="middle" x="609.5" y="-158" font-family="Helvetica,sans-Serif" font-size="10.00">&#45;pb/src/core&#45;pb&#45;pointcloud.cpp</text>
</a>
</g>
</g>
<!-- Node14&#45;&gt;Node15 -->
<g id="edge15" class="edge">
<title>Node14&#45;&gt;Node15</title>
<path fill="none" stroke="midnightblue" d="M663.05,-221.56C649.81,-208.07 634.33,-192.29 623.42,-181.18"/>
<polygon fill="midnightblue" stroke="midnightblue" points="660.63,-224.09 670.13,-228.77 665.63,-219.18 660.63,-224.09"/>
</g>
<!-- Node16 -->
<g id="node16" class="node">
<title>Node16</title>
<g id="a_node16"><a xlink:href="pb-point-cloud-service_8h.html" target="_top" xlink:title=" ">
<polygon fill="none" stroke="black" points="710,-145.5 710,-186.5 849,-186.5 849,-145.5 710,-145.5"/>
<text text-anchor="start" x="718" y="-174.5" font-family="Helvetica,sans-Serif" font-size="10.00">seerep&#45;srv/seerep&#45;server</text>
<text text-anchor="start" x="718" y="-163.5" font-family="Helvetica,sans-Serif" font-size="10.00">/include/seerep&#45;server</text>
<text text-anchor="middle" x="779.5" y="-152.5" font-family="Helvetica,sans-Serif" font-size="10.00">/pb&#45;point&#45;cloud&#45;service.h</text>
</a>
</g>
</g>
<!-- Node14&#45;&gt;Node16 -->
<g id="edge16" class="edge">
<title>Node14&#45;&gt;Node16</title>
<path fill="none" stroke="midnightblue" d="M718.91,-221.86C731.62,-210.35 746.23,-197.13 757.91,-186.55"/>
<polygon fill="midnightblue" stroke="midnightblue" points="716.35,-219.46 711.29,-228.77 721.05,-224.65 716.35,-219.46"/>
</g>
<!-- Node16&#45;&gt;Node9 -->
<g id="edge17" class="edge">
<title>Node16&#45;&gt;Node9</title>
<path fill="none" stroke="midnightblue" d="M744.06,-139.35C730.14,-129.27 714.42,-117.89 701.45,-108.51"/>
<polygon fill="midnightblue" stroke="midnightblue" points="742.31,-142.4 752.46,-145.43 746.41,-136.73 742.31,-142.4"/>
</g>
<!-- Node17 -->
<g id="node17" class="node">
<title>Node17</title>
<g id="a_node17"><a xlink:href="pb-point-cloud-service_8cpp.html" target="_top" xlink:title=" ">
<polygon fill="none" stroke="black" points="762,-73 762,-103 929,-103 929,-73 762,-73"/>
<text text-anchor="start" x="770" y="-91" font-family="Helvetica,sans-Serif" font-size="10.00">seerep&#45;srv/seerep&#45;server</text>
<text text-anchor="middle" x="845.5" y="-80" font-family="Helvetica,sans-Serif" font-size="10.00">/src/pb&#45;point&#45;cloud&#45;service.cpp</text>
</a>
</g>
</g>
<!-- Node16&#45;&gt;Node17 -->
<g id="edge18" class="edge">
<title>Node16&#45;&gt;Node17</title>
<path fill="none" stroke="midnightblue" d="M803.25,-137.65C813.37,-126 824.75,-112.9 833.15,-103.23"/>
<polygon fill="midnightblue" stroke="midnightblue" points="800.41,-135.58 796.5,-145.43 805.7,-140.17 800.41,-135.58"/>
</g>
<!-- Node18&#45;&gt;Node4 -->
<g id="edge21" class="edge">
<title>Node18&#45;&gt;Node4</title>
<path fill="none" stroke="midnightblue" d="M634.51,-311.8C564.35,-294.69 544.77,-293.4 478.5,-276 475.64,-275.25 472.73,-274.47 469.79,-273.67"/>
<polygon fill="midnightblue" stroke="midnightblue" points="633.73,-315.21 644.28,-314.21 635.41,-308.42 633.73,-315.21"/>
</g>
<!-- Node19 -->
<g id="node19" class="node">
<title>Node19</title>
<g id="a_node19"><a xlink:href="hdf5-pb-tf_8cpp.html" target="_top" xlink:title=" ">
<polygon fill="none" stroke="black" points="775.5,-229 775.5,-270 891.5,-270 891.5,-229 775.5,-229"/>
<text text-anchor="start" x="783.5" y="-258" font-family="Helvetica,sans-Serif" font-size="10.00">seerep&#45;hdf5/seerep</text>
<text text-anchor="start" x="783.5" y="-247" font-family="Helvetica,sans-Serif" font-size="10.00">&#45;hdf5&#45;pb/src/hdf5&#45;pb</text>
<text text-anchor="middle" x="833.5" y="-236" font-family="Helvetica,sans-Serif" font-size="10.00">&#45;tf.cpp</text>
</a>
</g>
</g>
<!-- Node18&#45;&gt;Node19 -->
<g id="edge20" class="edge">
<title>Node18&#45;&gt;Node19</title>
<path fill="none" stroke="midnightblue" d="M748.43,-306.87C766.26,-295.05 787.21,-281.17 803.85,-270.14"/>
<polygon fill="midnightblue" stroke="midnightblue" points="746.36,-304.04 739.96,-312.48 750.23,-309.87 746.36,-304.04"/>
</g>
<!-- Node20 -->
<g id="node20" class="node">
<title>Node20</title>
<g id="a_node20"><a xlink:href="core-pb-tf_8h.html" target="_top" xlink:title=" ">
<polygon fill="none" stroke="black" points="910,-229 910,-270 1041,-270 1041,-229 910,-229"/>
<text text-anchor="start" x="918" y="-258" font-family="Helvetica,sans-Serif" font-size="10.00">seerep&#45;srv/seerep&#45;core</text>
<text text-anchor="start" x="918" y="-247" font-family="Helvetica,sans-Serif" font-size="10.00">&#45;pb/include/seerep&#45;core</text>
<text text-anchor="middle" x="975.5" y="-236" font-family="Helvetica,sans-Serif" font-size="10.00">&#45;pb/core&#45;pb&#45;tf.h</text>
</a>
</g>
</g>
<!-- Node18&#45;&gt;Node20 -->
<g id="edge22" class="edge">
<title>Node18&#45;&gt;Node20</title>
<path fill="none" stroke="midnightblue" d="M786.3,-310.43C821.18,-300.31 863.05,-287.88 900.5,-276 906.4,-274.13 912.54,-272.13 918.66,-270.1"/>
<polygon fill="midnightblue" stroke="midnightblue" points="785.28,-307.08 776.65,-313.23 787.23,-313.81 785.28,-307.08"/>
</g>
<!-- Node21 -->
<g id="node21" class="node">
<title>Node21</title>
<g id="a_node21"><a xlink:href="core-pb-tf_8cpp.html" target="_top" xlink:title=" ">
<polygon fill="none" stroke="black" points="867,-151 867,-181 996,-181 996,-151 867,-151"/>
<text text-anchor="start" x="875" y="-169" font-family="Helvetica,sans-Serif" font-size="10.00">seerep&#45;srv/seerep&#45;core</text>
<text text-anchor="middle" x="931.5" y="-158" font-family="Helvetica,sans-Serif" font-size="10.00">&#45;pb/src/core&#45;pb&#45;tf.cpp</text>
</a>
</g>
</g>
<!-- Node20&#45;&gt;Node21 -->
<g id="edge23" class="edge">
<title>Node20&#45;&gt;Node21</title>
<path fill="none" stroke="midnightblue" d="M959.94,-219.67C952.89,-206.62 944.88,-191.78 939.16,-181.18"/>
<polygon fill="midnightblue" stroke="midnightblue" points="957.02,-221.63 964.85,-228.77 963.18,-218.31 957.02,-221.63"/>
</g>
<!-- Node22 -->
<g id="node22" class="node">
<title>Node22</title>
<g id="a_node22"><a xlink:href="pb-tf-service_8h.html" target="_top" xlink:title=" ">
<polygon fill="none" stroke="black" points="1014,-145.5 1014,-186.5 1153,-186.5 1153,-145.5 1014,-145.5"/>
<text text-anchor="start" x="1022" y="-174.5" font-family="Helvetica,sans-Serif" font-size="10.00">seerep&#45;srv/seerep&#45;server</text>
<text text-anchor="start" x="1022" y="-163.5" font-family="Helvetica,sans-Serif" font-size="10.00">/include/seerep&#45;server</text>
<text text-anchor="middle" x="1083.5" y="-152.5" font-family="Helvetica,sans-Serif" font-size="10.00">/pb&#45;tf&#45;service.h</text>
</a>
</g>
</g>
<!-- Node20&#45;&gt;Node22 -->
<g id="edge24" class="edge">
<title>Node20&#45;&gt;Node22</title>
<path fill="none" stroke="midnightblue" d="M1009.66,-222.72C1025.13,-211.05 1043.12,-197.47 1057.47,-186.64"/>
<polygon fill="midnightblue" stroke="midnightblue" points="1007.24,-220.16 1001.37,-228.98 1011.46,-225.75 1007.24,-220.16"/>
</g>
<!-- Node22&#45;&gt;Node9 -->
<g id="edge25" class="edge">
<title>Node22&#45;&gt;Node9</title>
<path fill="none" stroke="midnightblue" d="M1003.92,-144.79C892.77,-123.35 861.35,-130.29 753.5,-109 750.45,-108.4 747.33,-107.75 744.2,-107.07"/>
<polygon fill="midnightblue" stroke="midnightblue" points="1003.36,-148.25 1013.85,-146.74 1004.71,-141.38 1003.36,-148.25"/>
</g>
<!-- Node23 -->
<g id="node23" class="node">
<title>Node23</title>
<g id="a_node23"><a xlink:href="pb-tf-service_8cpp.html" target="_top" xlink:title=" ">
<polygon fill="none" stroke="black" points="1014,-73 1014,-103 1153,-103 1153,-73 1014,-73"/>
<text text-anchor="start" x="1022" y="-91" font-family="Helvetica,sans-Serif" font-size="10.00">seerep&#45;srv/seerep&#45;server</text>
<text text-anchor="middle" x="1083.5" y="-80" font-family="Helvetica,sans-Serif" font-size="10.00">/src/pb&#45;tf&#45;service.cpp</text>
</a>
</g>
</g>
<!-- Node22&#45;&gt;Node23 -->
<g id="edge26" class="edge">
<title>Node22&#45;&gt;Node23</title>
<path fill="none" stroke="midnightblue" d="M1083.5,-135.28C1083.5,-124.25 1083.5,-112.25 1083.5,-103.23"/>
<polygon fill="midnightblue" stroke="midnightblue" points="1080,-135.43 1083.5,-145.43 1087,-135.43 1080,-135.43"/>
</g>
</g>
</svg>
