<?xml version="1.0" encoding="UTF-8" standalone="no"?>
<!DOCTYPE svg PUBLIC "-//W3C//DTD SVG 1.1//EN"
 "http://www.w3.org/Graphics/SVG/1.1/DTD/svg11.dtd">
<!-- Generated by graphviz version 2.43.0 (0)
 -->
<!-- Title: seerep_hdf5/seerep_hdf5_py/include/seerep_hdf5_py/hdf5_py_tf.h Pages: 1 -->
<svg width="2450pt" height="240pt"
 viewBox="0.00 0.00 2450.00 240.00" xmlns="http://www.w3.org/2000/svg" xmlns:xlink="http://www.w3.org/1999/xlink">
<g id="graph0" class="graph" transform="scale(1 1) rotate(0) translate(4 236)">
<title>seerep_hdf5/seerep_hdf5_py/include/seerep_hdf5_py/hdf5_py_tf.h</title>
<!-- Node1 -->
<g id="node1" class="node">
<title>Node1</title>
<g id="a_node1"><a xlink:title=" ">
<polygon fill="#bfbfbf" stroke="black" points="977.5,-190.5 977.5,-231.5 1112.5,-231.5 1112.5,-190.5 977.5,-190.5"/>
<text text-anchor="start" x="985.5" y="-219.5" font-family="Helvetica,sans-Serif" font-size="10.00">seerep_hdf5/seerep</text>
<text text-anchor="start" x="985.5" y="-208.5" font-family="Helvetica,sans-Serif" font-size="10.00">_hdf5_py/include/seerep</text>
<text text-anchor="middle" x="1045" y="-197.5" font-family="Helvetica,sans-Serif" font-size="10.00">_hdf5_py/hdf5_py_tf.h</text>
</a>
</g>
</g>
<!-- Node2 -->
<g id="node2" class="node">
<title>Node2</title>
<g id="a_node2"><a xlink:title=" ">
<polygon fill="none" stroke="#bfbfbf" points="2036,-6 2036,-25 2146,-25 2146,-6 2036,-6"/>
<text text-anchor="middle" x="2091" y="-13" font-family="Helvetica,sans-Serif" font-size="10.00">highfive/H5File.hpp</text>
</a>
</g>
</g>
<!-- Node1&#45;&gt;Node2 -->
<g id="edge1" class="edge">
<title>Node1&#45;&gt;Node2</title>
<path fill="none" stroke="midnightblue" d="M1058.5,-190.43C1082.29,-157.84 1135.14,-93.39 1198,-67 1282.91,-31.35 1934.71,-43.07 2026,-31 2033.25,-30.04 2040.89,-28.67 2048.27,-27.15"/>
<polygon fill="midnightblue" stroke="midnightblue" points="2049.1,-30.55 2058.13,-25.01 2047.62,-23.71 2049.1,-30.55"/>
</g>
<!-- Node3 -->
<g id="node3" class="node">
<title>Node3</title>
<g id="a_node3"><a xlink:href="hdf5__core__tf_8h.html" target="_top" xlink:title=" ">
<polygon fill="none" stroke="black" points="765,-123.5 765,-153.5 893,-153.5 893,-123.5 765,-123.5"/>
<text text-anchor="start" x="773" y="-141.5" font-family="Helvetica,sans-Serif" font-size="10.00">seerep_hdf5_core/hdf5</text>
<text text-anchor="middle" x="829" y="-130.5" font-family="Helvetica,sans-Serif" font-size="10.00">_core_tf.h</text>
</a>
</g>
</g>
<!-- Node1&#45;&gt;Node3 -->
<g id="edge2" class="edge">
<title>Node1&#45;&gt;Node3</title>
<path fill="none" stroke="midnightblue" d="M985.12,-190.46C952.79,-179.9 913.22,-166.99 882.01,-156.8"/>
<polygon fill="midnightblue" stroke="midnightblue" points="882.78,-153.37 872.19,-153.6 880.61,-160.03 882.78,-153.37"/>
</g>
<!-- Node10 -->
<g id="node10" class="node">
<title>Node10</title>
<g id="a_node10"><a xlink:title=" ">
<polygon fill="none" stroke="#bfbfbf" points="74.5,-6 74.5,-25 187.5,-25 187.5,-6 74.5,-6"/>
<text text-anchor="middle" x="131" y="-13" font-family="Helvetica,sans-Serif" font-size="10.00">boost/geometry.hpp</text>
</a>
</g>
</g>
<!-- Node1&#45;&gt;Node10 -->
<g id="edge36" class="edge">
<title>Node1&#45;&gt;Node10</title>
<path fill="none" stroke="midnightblue" d="M1024.3,-190.47C988.32,-157.94 910.45,-93.59 831,-67 697.18,-22.22 336.8,-50.2 197,-31 189.81,-30.01 182.24,-28.65 174.89,-27.16"/>
<polygon fill="midnightblue" stroke="midnightblue" points="175.58,-23.73 165.07,-25.07 174.12,-30.58 175.58,-23.73"/>
</g>
<!-- Node12 -->
<g id="node12" class="node">
<title>Node12</title>
<g id="a_node12"><a xlink:title=" ">
<polygon fill="none" stroke="#bfbfbf" points="0,-6 0,-25 56,-25 56,-6 0,-6"/>
<text text-anchor="middle" x="28" y="-13" font-family="Helvetica,sans-Serif" font-size="10.00">optional</text>
</a>
</g>
</g>
<!-- Node1&#45;&gt;Node12 -->
<g id="edge37" class="edge">
<title>Node1&#45;&gt;Node12</title>
<path fill="none" stroke="midnightblue" d="M977.29,-204.12C836.04,-190.93 500.31,-154.68 226,-87 164.54,-71.83 95.44,-44.84 57.29,-29.02"/>
<polygon fill="midnightblue" stroke="midnightblue" points="58.41,-25.7 47.83,-25.06 55.7,-32.15 58.41,-25.7"/>
</g>
<!-- Node23 -->
<g id="node23" class="node">
<title>Node23</title>
<g id="a_node23"><a xlink:href="hdf5__py__general_8h.html" target="_top" xlink:title=" ">
<polygon fill="none" stroke="black" points="1197.5,-129 1197.5,-148 1304.5,-148 1304.5,-129 1197.5,-129"/>
<text text-anchor="middle" x="1251" y="-136" font-family="Helvetica,sans-Serif" font-size="10.00">hdf5_py_general.h</text>
</a>
</g>
</g>
<!-- Node1&#45;&gt;Node23 -->
<g id="edge26" class="edge">
<title>Node1&#45;&gt;Node23</title>
<path fill="none" stroke="midnightblue" d="M1102.11,-190.46C1138.85,-177.88 1185.4,-161.95 1216.57,-151.28"/>
<polygon fill="midnightblue" stroke="midnightblue" points="1217.8,-154.56 1226.13,-148.01 1215.53,-147.94 1217.8,-154.56"/>
</g>
<!-- Node26 -->
<g id="node26" class="node">
<title>Node26</title>
<g id="a_node26"><a xlink:title=" ">
<polygon fill="none" stroke="#bfbfbf" points="1323,-123.5 1323,-153.5 1455,-153.5 1455,-123.5 1323,-123.5"/>
<text text-anchor="start" x="1331" y="-141.5" font-family="Helvetica,sans-Serif" font-size="10.00">seerep_msgs/transform</text>
<text text-anchor="middle" x="1389" y="-130.5" font-family="Helvetica,sans-Serif" font-size="10.00">_stamped.pb.h</text>
</a>
</g>
</g>
<!-- Node1&#45;&gt;Node26 -->
<g id="edge35" class="edge">
<title>Node1&#45;&gt;Node26</title>
<path fill="none" stroke="midnightblue" d="M1112.55,-196.16C1170.08,-184.37 1252.69,-167.44 1312.61,-155.16"/>
<polygon fill="midnightblue" stroke="midnightblue" points="1313.68,-158.51 1322.77,-153.07 1312.27,-151.65 1313.68,-158.51"/>
</g>
<!-- Node3&#45;&gt;Node2 -->
<g id="edge3" class="edge">
<title>Node3&#45;&gt;Node2</title>
<path fill="none" stroke="midnightblue" d="M893.08,-130.86C951.19,-123.72 1038.71,-110.15 1112,-87 1132.1,-80.65 1134.52,-71.98 1155,-67 1343.24,-21.27 1833.92,-56.19 2026,-31 2033.25,-30.05 2040.89,-28.68 2048.27,-27.16"/>
<polygon fill="midnightblue" stroke="midnightblue" points="2049.11,-30.57 2058.14,-25.03 2047.62,-23.73 2049.11,-30.57"/>
</g>
<!-- Node4 -->
<g id="node4" class="node">
<title>Node4</title>
<g id="a_node4"><a xlink:href="hdf5__core__general_8h.html" target="_top" xlink:title=" ">
<polygon fill="none" stroke="black" points="987,-67.5 987,-86.5 1103,-86.5 1103,-67.5 987,-67.5"/>
<text text-anchor="middle" x="1045" y="-74.5" font-family="Helvetica,sans-Serif" font-size="10.00">hdf5_core_general.h</text>
</a>
</g>
</g>
<!-- Node3&#45;&gt;Node4 -->
<g id="edge4" class="edge">
<title>Node3&#45;&gt;Node4</title>
<path fill="none" stroke="midnightblue" d="M879.92,-123.47C917.83,-113.03 968.92,-98.96 1004.17,-89.25"/>
<polygon fill="midnightblue" stroke="midnightblue" points="1005.41,-92.54 1014.12,-86.51 1003.55,-85.79 1005.41,-92.54"/>
</g>
<!-- Node3&#45;&gt;Node10 -->
<g id="edge24" class="edge">
<title>Node3&#45;&gt;Node10</title>
<path fill="none" stroke="midnightblue" d="M829.67,-123.29C829.57,-106.92 826.62,-80.52 810,-67 757.08,-23.93 264.58,-40.35 197,-31 189.81,-30.01 182.24,-28.64 174.89,-27.15"/>
<polygon fill="midnightblue" stroke="midnightblue" points="175.58,-23.72 165.07,-25.06 174.12,-30.57 175.58,-23.72"/>
</g>
<!-- Node3&#45;&gt;Node12 -->
<g id="edge25" class="edge">
<title>Node3&#45;&gt;Node12</title>
<path fill="none" stroke="midnightblue" d="M764.87,-133.66C632.27,-124.62 319.09,-97.51 65,-31 62.34,-30.3 59.61,-29.47 56.9,-28.56"/>
<polygon fill="midnightblue" stroke="midnightblue" points="57.89,-25.2 47.3,-25.05 55.49,-31.78 57.89,-25.2"/>
</g>
<!-- Node22 -->
<g id="node22" class="node">
<title>Node22</title>
<g id="a_node22"><a xlink:title=" ">
<polygon fill="none" stroke="#bfbfbf" points="601,-67.5 601,-86.5 801,-86.5 801,-67.5 601,-67.5"/>
<text text-anchor="middle" x="701" y="-74.5" font-family="Helvetica,sans-Serif" font-size="10.00">geometry_msgs/TransformStamped.h</text>
</a>
</g>
</g>
<!-- Node3&#45;&gt;Node22 -->
<g id="edge23" class="edge">
<title>Node3&#45;&gt;Node22</title>
<path fill="none" stroke="midnightblue" d="M798.67,-123.4C777.48,-113.55 749.41,-100.5 728.8,-90.92"/>
<polygon fill="midnightblue" stroke="midnightblue" points="730.17,-87.7 719.63,-86.66 727.22,-94.05 730.17,-87.7"/>
</g>
<!-- Node4&#45;&gt;Node2 -->
<g id="edge5" class="edge">
<title>Node4&#45;&gt;Node2</title>
<path fill="none" stroke="midnightblue" d="M1103.12,-68.31C1107.81,-67.82 1112.48,-67.37 1117,-67 1519.96,-33.9 1625.07,-83.23 2026,-31 2033.25,-30.06 2040.89,-28.69 2048.28,-27.18"/>
<polygon fill="midnightblue" stroke="midnightblue" points="2049.11,-30.58 2058.14,-25.04 2047.62,-23.74 2049.11,-30.58"/>
</g>
<!-- Node5 -->
<g id="node5" class="node">
<title>Node5</title>
<g id="a_node5"><a xlink:title=" ">
<polygon fill="none" stroke="#bfbfbf" points="1761.5,-6 1761.5,-25 1878.5,-25 1878.5,-6 1761.5,-6"/>
<text text-anchor="middle" x="1820" y="-13" font-family="Helvetica,sans-Serif" font-size="10.00">seerep_msgs/aabb.h</text>
</a>
</g>
</g>
<!-- Node4&#45;&gt;Node5 -->
<g id="edge6" class="edge">
<title>Node4&#45;&gt;Node5</title>
<path fill="none" stroke="midnightblue" d="M1103.12,-68.39C1107.81,-67.88 1112.48,-67.41 1117,-67 1398.52,-41.45 1471.83,-68.59 1752,-31 1759.49,-30 1767.38,-28.62 1775.02,-27.1"/>
<polygon fill="midnightblue" stroke="midnightblue" points="1775.8,-30.52 1784.89,-25.06 1774.38,-23.66 1775.8,-30.52"/>
</g>
<!-- Node6 -->
<g id="node6" class="node">
<title>Node6</title>
<g id="a_node6"><a xlink:title=" ">
<polygon fill="none" stroke="#bfbfbf" points="1896.5,-0.5 1896.5,-30.5 2017.5,-30.5 2017.5,-0.5 1896.5,-0.5"/>
<text text-anchor="start" x="1904.5" y="-18.5" font-family="Helvetica,sans-Serif" font-size="10.00">seerep_msgs/dataset</text>
<text text-anchor="middle" x="1957" y="-7.5" font-family="Helvetica,sans-Serif" font-size="10.00">_indexable.h</text>
</a>
</g>
</g>
<!-- Node4&#45;&gt;Node6 -->
<g id="edge7" class="edge">
<title>Node4&#45;&gt;Node6</title>
<path fill="none" stroke="midnightblue" d="M1103.12,-68.34C1107.81,-67.84 1112.48,-67.39 1117,-67 1455.01,-38.02 1545.34,-73.18 1886.23,-30.94"/>
<polygon fill="midnightblue" stroke="midnightblue" points="1886.9,-34.38 1896.39,-29.66 1886.03,-27.43 1886.9,-34.38"/>
</g>
<!-- Node7 -->
<g id="node7" class="node">
<title>Node7</title>
<g id="a_node7"><a xlink:title=" ">
<polygon fill="none" stroke="#bfbfbf" points="206,-0.5 206,-30.5 332,-30.5 332,-0.5 206,-0.5"/>
<text text-anchor="start" x="214" y="-18.5" font-family="Helvetica,sans-Serif" font-size="10.00">seerep_msgs/geodetic</text>
<text text-anchor="middle" x="269" y="-7.5" font-family="Helvetica,sans-Serif" font-size="10.00">_coordinates.h</text>
</a>
</g>
</g>
<!-- Node4&#45;&gt;Node7 -->
<g id="edge8" class="edge">
<title>Node4&#45;&gt;Node7</title>
<path fill="none" stroke="midnightblue" d="M986.88,-68.39C982.19,-67.88 977.52,-67.41 973,-67 696.09,-41.84 621.78,-66.28 342.17,-31.02"/>
<polygon fill="midnightblue" stroke="midnightblue" points="342.49,-27.53 332.13,-29.74 341.61,-34.48 342.49,-27.53"/>
</g>
<!-- Node8 -->
<g id="node8" class="node">
<title>Node8</title>
<g id="a_node8"><a xlink:title=" ">
<polygon fill="none" stroke="#bfbfbf" points="350.5,-6 350.5,-25 467.5,-25 467.5,-6 350.5,-6"/>
<text text-anchor="middle" x="409" y="-13" font-family="Helvetica,sans-Serif" font-size="10.00">seerep_msgs/label.h</text>
</a>
</g>
</g>
<!-- Node4&#45;&gt;Node8 -->
<g id="edge9" class="edge">
<title>Node4&#45;&gt;Node8</title>
<path fill="none" stroke="midnightblue" d="M986.87,-68.47C982.18,-67.94 977.51,-67.45 973,-67 753.04,-45.29 695.82,-62.12 477,-31 469.69,-29.96 461.99,-28.59 454.5,-27.1"/>
<polygon fill="midnightblue" stroke="midnightblue" points="454.98,-23.63 444.48,-25.03 453.56,-30.48 454.98,-23.63"/>
</g>
<!-- Node9 -->
<g id="node9" class="node">
<title>Node9</title>
<g id="a_node9"><a xlink:title=" ">
<polygon fill="none" stroke="#bfbfbf" points="486,-6 486,-25 650,-25 650,-6 486,-6"/>
<text text-anchor="middle" x="568" y="-13" font-family="Helvetica,sans-Serif" font-size="10.00">seerep_msgs/label_category.h</text>
</a>
</g>
</g>
<!-- Node4&#45;&gt;Node9 -->
<g id="edge10" class="edge">
<title>Node4&#45;&gt;Node9</title>
<path fill="none" stroke="midnightblue" d="M986.85,-68.68C982.16,-68.11 977.5,-67.54 973,-67 833.53,-50.29 798.17,-50.06 659,-31 649.25,-29.67 638.94,-28.13 628.89,-26.58"/>
<polygon fill="midnightblue" stroke="midnightblue" points="629.38,-23.11 618.96,-25.02 628.3,-30.03 629.38,-23.11"/>
</g>
<!-- Node4&#45;&gt;Node10 -->
<g id="edge11" class="edge">
<title>Node4&#45;&gt;Node10</title>
<path fill="none" stroke="midnightblue" d="M986.88,-68.34C982.19,-67.84 977.52,-67.39 973,-67 629,-37.57 539.29,-76.21 197,-31 189.72,-30.04 182.06,-28.68 174.64,-27.18"/>
<polygon fill="midnightblue" stroke="midnightblue" points="175.23,-23.73 164.72,-25.06 173.77,-30.57 175.23,-23.73"/>
</g>
<!-- Node11 -->
<g id="node11" class="node">
<title>Node11</title>
<g id="a_node11"><a xlink:title=" ">
<polygon fill="none" stroke="#bfbfbf" points="668,-6 668,-25 716,-25 716,-6 668,-6"/>
<text text-anchor="middle" x="692" y="-13" font-family="Helvetica,sans-Serif" font-size="10.00">mutex</text>
</a>
</g>
</g>
<!-- Node4&#45;&gt;Node11 -->
<g id="edge12" class="edge">
<title>Node4&#45;&gt;Node11</title>
<path fill="none" stroke="midnightblue" d="M986.75,-68.69C901.35,-57.83 749.59,-37.99 725,-31 722.85,-30.39 720.65,-29.67 718.47,-28.87"/>
<polygon fill="midnightblue" stroke="midnightblue" points="719.72,-25.6 709.14,-25.09 717.09,-32.09 719.72,-25.6"/>
</g>
<!-- Node4&#45;&gt;Node12 -->
<g id="edge13" class="edge">
<title>Node4&#45;&gt;Node12</title>
<path fill="none" stroke="midnightblue" d="M986.86,-72.45C957.52,-70.71 921.38,-68.64 889,-67 705.95,-57.72 244.31,-68.95 65,-31 61.99,-30.36 58.91,-29.51 55.87,-28.53"/>
<polygon fill="midnightblue" stroke="midnightblue" points="57.05,-25.24 46.45,-25.11 54.66,-31.81 57.05,-25.24"/>
</g>
<!-- Node13 -->
<g id="node13" class="node">
<title>Node13</title>
<g id="a_node13"><a xlink:title=" ">
<polygon fill="none" stroke="#bfbfbf" points="734.5,-6 734.5,-25 803.5,-25 803.5,-6 734.5,-6"/>
<text text-anchor="middle" x="769" y="-13" font-family="Helvetica,sans-Serif" font-size="10.00">type_traits</text>
</a>
</g>
</g>
<!-- Node4&#45;&gt;Node13 -->
<g id="edge14" class="edge">
<title>Node4&#45;&gt;Node13</title>
<path fill="none" stroke="midnightblue" d="M989.45,-67.43C941.94,-59.59 871.95,-46.82 812,-31 808.8,-30.16 805.49,-29.2 802.2,-28.19"/>
<polygon fill="midnightblue" stroke="midnightblue" points="803.08,-24.79 792.48,-25.05 800.93,-31.45 803.08,-24.79"/>
</g>
<!-- Node14 -->
<g id="node14" class="node">
<title>Node14</title>
<g id="a_node14"><a xlink:title=" ">
<polygon fill="none" stroke="#bfbfbf" points="2164.5,-0.5 2164.5,-30.5 2309.5,-30.5 2309.5,-0.5 2164.5,-0.5"/>
<text text-anchor="start" x="2172.5" y="-18.5" font-family="Helvetica,sans-Serif" font-size="10.00">boost/log/sources/severity</text>
<text text-anchor="middle" x="2237" y="-7.5" font-family="Helvetica,sans-Serif" font-size="10.00">_logger.hpp</text>
</a>
</g>
</g>
<!-- Node4&#45;&gt;Node14 -->
<g id="edge15" class="edge">
<title>Node4&#45;&gt;Node14</title>
<path fill="none" stroke="midnightblue" d="M1103.11,-72.29C1131.68,-70.54 1166.64,-68.51 1198,-67 1619.82,-46.66 1730.05,-75.7 2154.12,-30.98"/>
<polygon fill="midnightblue" stroke="midnightblue" points="2154.62,-34.45 2164.2,-29.91 2153.88,-27.48 2154.62,-34.45"/>
</g>
<!-- Node15 -->
<g id="node15" class="node">
<title>Node15</title>
<g id="a_node15"><a xlink:title=" ">
<polygon fill="none" stroke="#bfbfbf" points="2328,-6 2328,-25 2442,-25 2442,-6 2328,-6"/>
<text text-anchor="middle" x="2385" y="-13" font-family="Helvetica,sans-Serif" font-size="10.00">boost/log/trivial.hpp</text>
</a>
</g>
</g>
<!-- Node4&#45;&gt;Node15 -->
<g id="edge16" class="edge">
<title>Node4&#45;&gt;Node15</title>
<path fill="none" stroke="midnightblue" d="M1103.1,-72.22C1131.68,-70.45 1166.63,-68.43 1198,-67 1695.96,-44.36 1824.36,-92.74 2319,-31 2326.53,-30.06 2334.46,-28.67 2342.12,-27.12"/>
<polygon fill="midnightblue" stroke="midnightblue" points="2342.93,-30.52 2351.97,-25.01 2341.46,-23.68 2342.93,-30.52"/>
</g>
<!-- Node16 -->
<g id="node16" class="node">
<title>Node16</title>
<g id="a_node16"><a xlink:title=" ">
<polygon fill="none" stroke="#bfbfbf" points="821.5,-6 821.5,-25 964.5,-25 964.5,-6 821.5,-6"/>
<text text-anchor="middle" x="893" y="-13" font-family="Helvetica,sans-Serif" font-size="10.00">boost/functional/hash.hpp</text>
</a>
</g>
</g>
<!-- Node4&#45;&gt;Node16 -->
<g id="edge17" class="edge">
<title>Node4&#45;&gt;Node16</title>
<path fill="none" stroke="midnightblue" d="M1023.22,-67.48C997.26,-57.31 953.69,-40.26 924.17,-28.7"/>
<polygon fill="midnightblue" stroke="midnightblue" points="925.33,-25.4 914.74,-25.01 922.77,-31.91 925.33,-25.4"/>
</g>
<!-- Node17 -->
<g id="node17" class="node">
<title>Node17</title>
<g id="a_node17"><a xlink:title=" ">
<polygon fill="none" stroke="#bfbfbf" points="982.5,-6 982.5,-25 1107.5,-25 1107.5,-6 982.5,-6"/>
<text text-anchor="middle" x="1045" y="-13" font-family="Helvetica,sans-Serif" font-size="10.00">boost/lexical_cast.hpp</text>
</a>
</g>
</g>
<!-- Node4&#45;&gt;Node17 -->
<g id="edge18" class="edge">
<title>Node4&#45;&gt;Node17</title>
<path fill="none" stroke="midnightblue" d="M1045,-67.48C1045,-59.08 1045,-45.98 1045,-35.16"/>
<polygon fill="midnightblue" stroke="midnightblue" points="1048.5,-35.01 1045,-25.01 1041.5,-35.01 1048.5,-35.01"/>
</g>
<!-- Node18 -->
<g id="node18" class="node">
<title>Node18</title>
<g id="a_node18"><a xlink:title=" ">
<polygon fill="none" stroke="#bfbfbf" points="1125.5,-6 1125.5,-25 1238.5,-25 1238.5,-6 1125.5,-6"/>
<text text-anchor="middle" x="1182" y="-13" font-family="Helvetica,sans-Serif" font-size="10.00">boost/uuid/uuid.hpp</text>
</a>
</g>
</g>
<!-- Node4&#45;&gt;Node18 -->
<g id="edge19" class="edge">
<title>Node4&#45;&gt;Node18</title>
<path fill="none" stroke="midnightblue" d="M1064.63,-67.48C1087.82,-57.4 1126.62,-40.55 1153.21,-29"/>
<polygon fill="midnightblue" stroke="midnightblue" points="1154.63,-32.2 1162.41,-25.01 1151.84,-25.78 1154.63,-32.2"/>
</g>
<!-- Node19 -->
<g id="node19" class="node">
<title>Node19</title>
<g id="a_node19"><a xlink:title=" ">
<polygon fill="none" stroke="#bfbfbf" points="1257,-6 1257,-25 1427,-25 1427,-6 1257,-6"/>
<text text-anchor="middle" x="1342" y="-13" font-family="Helvetica,sans-Serif" font-size="10.00">boost/uuid/uuid_generators.hpp</text>
</a>
</g>
</g>
<!-- Node4&#45;&gt;Node19 -->
<g id="edge20" class="edge">
<title>Node4&#45;&gt;Node19</title>
<path fill="none" stroke="midnightblue" d="M1087.55,-67.48C1140.81,-56.8 1232.02,-38.53 1289.54,-27.01"/>
<polygon fill="midnightblue" stroke="midnightblue" points="1290.41,-30.41 1299.53,-25.01 1289.03,-23.54 1290.41,-30.41"/>
</g>
<!-- Node20 -->
<g id="node20" class="node">
<title>Node20</title>
<g id="a_node20"><a xlink:title=" ">
<polygon fill="none" stroke="#bfbfbf" points="1445.5,-6 1445.5,-25 1572.5,-25 1572.5,-6 1445.5,-6"/>
<text text-anchor="middle" x="1509" y="-13" font-family="Helvetica,sans-Serif" font-size="10.00">boost/uuid/uuid_io.hpp</text>
</a>
</g>
</g>
<!-- Node4&#45;&gt;Node20 -->
<g id="edge21" class="edge">
<title>Node4&#45;&gt;Node20</title>
<path fill="none" stroke="midnightblue" d="M1103.15,-68.67C1107.84,-68.1 1112.5,-67.54 1117,-67 1258.68,-50.15 1295.02,-52.92 1436,-31 1443.55,-29.83 1451.5,-28.42 1459.27,-26.96"/>
<polygon fill="midnightblue" stroke="midnightblue" points="1460.17,-30.35 1469.33,-25.01 1458.84,-23.47 1460.17,-30.35"/>
</g>
<!-- Node21 -->
<g id="node21" class="node">
<title>Node21</title>
<g id="a_node21"><a xlink:title=" ">
<polygon fill="none" stroke="#bfbfbf" points="1591,-6 1591,-25 1743,-25 1743,-6 1591,-6"/>
<text text-anchor="middle" x="1667" y="-13" font-family="Helvetica,sans-Serif" font-size="10.00">impl/hdf5_core_general.hpp</text>
</a>
</g>
</g>
<!-- Node4&#45;&gt;Node21 -->
<g id="edge22" class="edge">
<title>Node4&#45;&gt;Node21</title>
<path fill="none" stroke="midnightblue" d="M1103.13,-68.5C1107.82,-67.96 1112.49,-67.46 1117,-67 1322.79,-46.17 1375.7,-56.22 1581,-31 1590.81,-29.8 1601.2,-28.26 1611.25,-26.65"/>
<polygon fill="midnightblue" stroke="midnightblue" points="1611.84,-30.1 1621.14,-25.01 1610.7,-23.19 1611.84,-30.1"/>
</g>
<!-- Node23&#45;&gt;Node2 -->
<g id="edge27" class="edge">
<title>Node23&#45;&gt;Node2</title>
<path fill="none" stroke="midnightblue" d="M1285.21,-128.99C1294.51,-126.85 1304.61,-124.68 1314,-123 1628.07,-66.7 1711.74,-86.24 2026,-31 2032.28,-29.9 2038.87,-28.6 2045.34,-27.23"/>
<polygon fill="midnightblue" stroke="midnightblue" points="2046.32,-30.6 2055.36,-25.06 2044.84,-23.76 2046.32,-30.6"/>
</g>
<!-- Node23&#45;&gt;Node4 -->
<g id="edge28" class="edge">
<title>Node23&#45;&gt;Node4</title>
<path fill="none" stroke="midnightblue" d="M1221.49,-128.98C1185.38,-118.55 1124.15,-100.86 1084.15,-89.31"/>
<polygon fill="midnightblue" stroke="midnightblue" points="1085.04,-85.92 1074.46,-86.51 1083.1,-92.65 1085.04,-85.92"/>
</g>
<!-- Node23&#45;&gt;Node10 -->
<g id="edge29" class="edge">
<title>Node23&#45;&gt;Node10</title>
<path fill="none" stroke="midnightblue" d="M1197.44,-131.65C1141.67,-124.63 1052.27,-110.72 978,-87 957.92,-80.59 955.46,-72.05 935,-67 616.18,11.71 522.51,-74.38 197,-31 189.72,-30.03 182.06,-28.67 174.64,-27.16"/>
<polygon fill="midnightblue" stroke="midnightblue" points="175.23,-23.71 164.72,-25.05 173.77,-30.56 175.23,-23.71"/>
</g>
<!-- Node23&#45;&gt;Node12 -->
<g id="edge31" class="edge">
<title>Node23&#45;&gt;Node12</title>
<path fill="none" stroke="midnightblue" d="M1197.48,-129.18C1133.91,-119.26 1024.7,-102.14 931,-87 877.19,-78.31 864.2,-72.77 810,-67 480.36,-31.91 389.15,-100.39 65,-31 61.99,-30.36 58.91,-29.5 55.87,-28.52"/>
<polygon fill="midnightblue" stroke="midnightblue" points="57.05,-25.22 46.46,-25.09 54.66,-31.8 57.05,-25.22"/>
</g>
<!-- Node23&#45;&gt;Node14 -->
<g id="edge32" class="edge">
<title>Node23&#45;&gt;Node14</title>
<path fill="none" stroke="midnightblue" d="M1284.52,-128.94C1294,-126.75 1304.36,-124.57 1314,-123 1477.07,-96.42 1519.74,-104.75 1684,-87 1890.31,-64.7 1944.77,-61.89 2154.07,-31.09"/>
<polygon fill="midnightblue" stroke="midnightblue" points="2154.78,-34.52 2164.16,-29.6 2153.75,-27.6 2154.78,-34.52"/>
</g>
<!-- Node23&#45;&gt;Node15 -->
<g id="edge33" class="edge">
<title>Node23&#45;&gt;Node15</title>
<path fill="none" stroke="midnightblue" d="M1283.84,-128.95C1293.5,-126.71 1304.12,-124.5 1314,-123 1525.07,-90.97 1580.39,-106.3 1793,-87 2027.14,-65.74 2086.95,-68.73 2319,-31 2325.69,-29.91 2332.72,-28.58 2339.6,-27.16"/>
<polygon fill="midnightblue" stroke="midnightblue" points="2340.46,-30.56 2349.52,-25.05 2339.01,-23.71 2340.46,-30.56"/>
</g>
<!-- Node24 -->
<g id="node24" class="node">
<title>Node24</title>
<g id="a_node24"><a xlink:title=" ">
<polygon fill="none" stroke="#bfbfbf" points="1207,-67.5 1207,-86.5 1275,-86.5 1275,-67.5 1207,-67.5"/>
<text text-anchor="middle" x="1241" y="-74.5" font-family="Helvetica,sans-Serif" font-size="10.00">filesystem</text>
</a>
</g>
</g>
<!-- Node23&#45;&gt;Node24 -->
<g id="edge30" class="edge">
<title>Node23&#45;&gt;Node24</title>
<path fill="none" stroke="midnightblue" d="M1249.57,-128.98C1248.16,-120.58 1245.95,-107.48 1244.14,-96.66"/>
<polygon fill="midnightblue" stroke="midnightblue" points="1247.54,-95.79 1242.43,-86.51 1240.64,-96.95 1247.54,-95.79"/>
</g>
<!-- Node25 -->
<g id="node25" class="node">
<title>Node25</title>
<g id="a_node25"><a xlink:title=" ">
<polygon fill="none" stroke="#bfbfbf" points="1293.5,-67.5 1293.5,-86.5 1436.5,-86.5 1436.5,-67.5 1293.5,-67.5"/>
<text text-anchor="middle" x="1365" y="-74.5" font-family="Helvetica,sans-Serif" font-size="10.00">impl/hdf5_py_general.hpp</text>
</a>
</g>
</g>
<!-- Node23&#45;&gt;Node25 -->
<g id="edge34" class="edge">
<title>Node23&#45;&gt;Node25</title>
<path fill="none" stroke="midnightblue" d="M1267.33,-128.98C1286.21,-119.12 1317.51,-102.79 1339.58,-91.27"/>
<polygon fill="midnightblue" stroke="midnightblue" points="1341.45,-94.24 1348.7,-86.51 1338.21,-88.03 1341.45,-94.24"/>
</g>
</g>
</svg>
