<?xml version="1.0" encoding="UTF-8" standalone="no"?>
<!DOCTYPE svg PUBLIC "-//W3C//DTD SVG 1.1//EN"
 "http://www.w3.org/Graphics/SVG/1.1/DTD/svg11.dtd">
<!-- Generated by graphviz version 2.43.0 (0)
 -->
<!-- Title: seerep_hdf5/seerep_hdf5_core/include/seerep_hdf5_core/hdf5_core_image.h Pages: 1 -->
<svg width="2450pt" height="307pt"
 viewBox="0.00 0.00 2449.50 307.00" xmlns="http://www.w3.org/2000/svg" xmlns:xlink="http://www.w3.org/1999/xlink">
<g id="graph0" class="graph" transform="scale(1 1) rotate(0) translate(4 303)">
<title>seerep_hdf5/seerep_hdf5_core/include/seerep_hdf5_core/hdf5_core_image.h</title>
<!-- Node1 -->
<g id="node1" class="node">
<title>Node1</title>
<g id="a_node1"><a xlink:title=" ">
<polygon fill="#bfbfbf" stroke="black" points="1617.5,-257.5 1617.5,-298.5 1783.5,-298.5 1783.5,-257.5 1617.5,-257.5"/>
<text text-anchor="start" x="1625.5" y="-286.5" font-family="Helvetica,sans-Serif" font-size="10.00">seerep_hdf5/seerep</text>
<text text-anchor="start" x="1625.5" y="-275.5" font-family="Helvetica,sans-Serif" font-size="10.00">_hdf5_core/include/seerep</text>
<text text-anchor="middle" x="1700.5" y="-264.5" font-family="Helvetica,sans-Serif" font-size="10.00">_hdf5_core/hdf5_core_image.h</text>
</a>
</g>
</g>
<!-- Node2 -->
<g id="node2" class="node">
<title>Node2</title>
<g id="a_node2"><a xlink:title=" ">
<polygon fill="none" stroke="#bfbfbf" points="184.5,-67.5 184.5,-86.5 294.5,-86.5 294.5,-67.5 184.5,-67.5"/>
<text text-anchor="middle" x="239.5" y="-74.5" font-family="Helvetica,sans-Serif" font-size="10.00">highfive/H5File.hpp</text>
</a>
</g>
</g>
<!-- Node1&#45;&gt;Node2 -->
<g id="edge1" class="edge">
<title>Node1&#45;&gt;Node2</title>
<path fill="none" stroke="midnightblue" d="M1617.46,-277.85C1417.78,-278.07 896.19,-267.87 476.5,-165 398.89,-145.98 311.63,-109.93 267.82,-90.75"/>
<polygon fill="midnightblue" stroke="midnightblue" points="268.96,-87.43 258.4,-86.59 266.14,-93.83 268.96,-87.43"/>
</g>
<!-- Node3 -->
<g id="node3" class="node">
<title>Node3</title>
<g id="a_node3"><a xlink:href="hdf5__core__cameraintrinsics_8h.html" target="_top" xlink:title=" ">
<polygon fill="none" stroke="black" points="917.5,-201.5 917.5,-220.5 1077.5,-220.5 1077.5,-201.5 917.5,-201.5"/>
<text text-anchor="middle" x="997.5" y="-208.5" font-family="Helvetica,sans-Serif" font-size="10.00">hdf5_core_cameraintrinsics.h</text>
</a>
</g>
</g>
<!-- Node1&#45;&gt;Node3 -->
<g id="edge2" class="edge">
<title>Node1&#45;&gt;Node3</title>
<path fill="none" stroke="midnightblue" d="M1617.44,-269.32C1484.52,-257.03 1225.03,-233.04 1087.72,-220.34"/>
<polygon fill="midnightblue" stroke="midnightblue" points="1087.92,-216.85 1077.64,-219.41 1087.28,-223.82 1087.92,-216.85"/>
</g>
<!-- Node5 -->
<g id="node5" class="node">
<title>Node5</title>
<g id="a_node5"><a xlink:href="hdf5__core__general_8h.html" target="_top" xlink:title=" ">
<polygon fill="none" stroke="black" points="1229.5,-134.5 1229.5,-164.5 1357.5,-164.5 1357.5,-134.5 1229.5,-134.5"/>
<text text-anchor="start" x="1237.5" y="-152.5" font-family="Helvetica,sans-Serif" font-size="10.00">seerep_hdf5_core/hdf5</text>
<text text-anchor="middle" x="1293.5" y="-141.5" font-family="Helvetica,sans-Serif" font-size="10.00">_core_general.h</text>
</a>
</g>
</g>
<!-- Node1&#45;&gt;Node5 -->
<g id="edge34" class="edge">
<title>Node1&#45;&gt;Node5</title>
<path fill="none" stroke="midnightblue" d="M1617.38,-263.64C1566.67,-254.31 1500.96,-240.09 1444.5,-221 1403.2,-207.03 1358.2,-185.08 1328.17,-169.38"/>
<polygon fill="midnightblue" stroke="midnightblue" points="1329.44,-166.1 1318.97,-164.53 1326.17,-172.29 1329.44,-166.1"/>
</g>
<!-- Node7 -->
<g id="node7" class="node">
<title>Node7</title>
<g id="a_node7"><a xlink:title=" ">
<polygon fill="none" stroke="#bfbfbf" points="2246,-62 2246,-92 2367,-92 2367,-62 2246,-62"/>
<text text-anchor="start" x="2254" y="-80" font-family="Helvetica,sans-Serif" font-size="10.00">seerep_msgs/dataset</text>
<text text-anchor="middle" x="2306.5" y="-69" font-family="Helvetica,sans-Serif" font-size="10.00">_indexable.h</text>
</a>
</g>
</g>
<!-- Node1&#45;&gt;Node7 -->
<g id="edge35" class="edge">
<title>Node1&#45;&gt;Node7</title>
<path fill="none" stroke="midnightblue" d="M1783.61,-269.18C1918.73,-254.99 2178.12,-221.17 2249.5,-165 2270.99,-148.09 2287,-120.75 2296.49,-101.23"/>
<polygon fill="midnightblue" stroke="midnightblue" points="2299.7,-102.64 2300.74,-92.1 2293.35,-99.69 2299.7,-102.64"/>
</g>
<!-- Node9 -->
<g id="node9" class="node">
<title>Node9</title>
<g id="a_node9"><a xlink:title=" ">
<polygon fill="none" stroke="#bfbfbf" points="312.5,-56.5 312.5,-97.5 428.5,-97.5 428.5,-56.5 312.5,-56.5"/>
<text text-anchor="start" x="320.5" y="-85.5" font-family="Helvetica,sans-Serif" font-size="10.00">seerep_msgs/labels</text>
<text text-anchor="start" x="320.5" y="-74.5" font-family="Helvetica,sans-Serif" font-size="10.00">_with_instance_with</text>
<text text-anchor="middle" x="370.5" y="-63.5" font-family="Helvetica,sans-Serif" font-size="10.00">_category.h</text>
</a>
</g>
</g>
<!-- Node1&#45;&gt;Node9 -->
<g id="edge36" class="edge">
<title>Node1&#45;&gt;Node9</title>
<path fill="none" stroke="midnightblue" d="M1617.25,-264.02C1555.46,-253.85 1469.3,-238.5 1394.5,-221 1257.66,-188.98 1229.08,-157.35 1090.5,-134 807.1,-86.25 725.67,-146.53 438.63,-97.97"/>
<polygon fill="midnightblue" stroke="midnightblue" points="439.22,-94.52 428.77,-96.27 438.03,-101.42 439.22,-94.52"/>
</g>
<!-- Node10 -->
<g id="node10" class="node">
<title>Node10</title>
<g id="a_node10"><a xlink:title=" ">
<polygon fill="none" stroke="#bfbfbf" points="1346,-67.5 1346,-86.5 1459,-86.5 1459,-67.5 1346,-67.5"/>
<text text-anchor="middle" x="1402.5" y="-74.5" font-family="Helvetica,sans-Serif" font-size="10.00">boost/geometry.hpp</text>
</a>
</g>
</g>
<!-- Node1&#45;&gt;Node10 -->
<g id="edge37" class="edge">
<title>Node1&#45;&gt;Node10</title>
<path fill="none" stroke="midnightblue" d="M1671.11,-257.37C1611.27,-217.41 1476.51,-127.42 1424.01,-92.36"/>
<polygon fill="midnightblue" stroke="midnightblue" points="1425.74,-89.31 1415.48,-86.67 1421.85,-95.13 1425.74,-89.31"/>
</g>
<!-- Node12 -->
<g id="node12" class="node">
<title>Node12</title>
<g id="a_node12"><a xlink:title=" ">
<polygon fill="none" stroke="#bfbfbf" points="2385.5,-67.5 2385.5,-86.5 2441.5,-86.5 2441.5,-67.5 2385.5,-67.5"/>
<text text-anchor="middle" x="2413.5" y="-74.5" font-family="Helvetica,sans-Serif" font-size="10.00">optional</text>
</a>
</g>
</g>
<!-- Node1&#45;&gt;Node12 -->
<g id="edge38" class="edge">
<title>Node1&#45;&gt;Node12</title>
<path fill="none" stroke="midnightblue" d="M1783.65,-273.35C1873.86,-267.82 2021.47,-254.17 2144.5,-221 2206.03,-204.41 2220.08,-194.63 2276.5,-165 2319.57,-142.39 2366.85,-110.71 2393.08,-92.47"/>
<polygon fill="midnightblue" stroke="midnightblue" points="2395.26,-95.22 2401.44,-86.62 2391.24,-89.49 2395.26,-95.22"/>
</g>
<!-- Node16 -->
<g id="node16" class="node">
<title>Node16</title>
<g id="a_node16"><a xlink:title=" ">
<polygon fill="none" stroke="#bfbfbf" points="1477,-67.5 1477,-86.5 1620,-86.5 1620,-67.5 1477,-67.5"/>
<text text-anchor="middle" x="1548.5" y="-74.5" font-family="Helvetica,sans-Serif" font-size="10.00">boost/functional/hash.hpp</text>
</a>
</g>
</g>
<!-- Node1&#45;&gt;Node16 -->
<g id="edge39" class="edge">
<title>Node1&#45;&gt;Node16</title>
<path fill="none" stroke="midnightblue" d="M1685.37,-257.19C1655.46,-218.04 1589.27,-131.38 1561.34,-94.81"/>
<polygon fill="midnightblue" stroke="midnightblue" points="1563.96,-92.47 1555.1,-86.65 1558.39,-96.72 1563.96,-92.47"/>
</g>
<!-- Node17 -->
<g id="node17" class="node">
<title>Node17</title>
<g id="a_node17"><a xlink:title=" ">
<polygon fill="none" stroke="#bfbfbf" points="1638,-67.5 1638,-86.5 1763,-86.5 1763,-67.5 1638,-67.5"/>
<text text-anchor="middle" x="1700.5" y="-74.5" font-family="Helvetica,sans-Serif" font-size="10.00">boost/lexical_cast.hpp</text>
</a>
</g>
</g>
<!-- Node1&#45;&gt;Node17 -->
<g id="edge40" class="edge">
<title>Node1&#45;&gt;Node17</title>
<path fill="none" stroke="midnightblue" d="M1700.5,-257.19C1700.5,-218.7 1700.5,-134.3 1700.5,-96.71"/>
<polygon fill="midnightblue" stroke="midnightblue" points="1704,-96.65 1700.5,-86.65 1697,-96.65 1704,-96.65"/>
</g>
<!-- Node18 -->
<g id="node18" class="node">
<title>Node18</title>
<g id="a_node18"><a xlink:title=" ">
<polygon fill="none" stroke="#bfbfbf" points="2115,-67.5 2115,-86.5 2228,-86.5 2228,-67.5 2115,-67.5"/>
<text text-anchor="middle" x="2171.5" y="-74.5" font-family="Helvetica,sans-Serif" font-size="10.00">boost/uuid/uuid.hpp</text>
</a>
</g>
</g>
<!-- Node1&#45;&gt;Node18 -->
<g id="edge41" class="edge">
<title>Node1&#45;&gt;Node18</title>
<path fill="none" stroke="midnightblue" d="M1746.95,-257.37C1843.1,-216.75 2061.61,-124.43 2141.52,-90.67"/>
<polygon fill="midnightblue" stroke="midnightblue" points="2143.14,-93.78 2150.99,-86.67 2140.41,-87.33 2143.14,-93.78"/>
</g>
<!-- Node19 -->
<g id="node19" class="node">
<title>Node19</title>
<g id="a_node19"><a xlink:title=" ">
<polygon fill="none" stroke="#bfbfbf" points="1781.5,-67.5 1781.5,-86.5 1951.5,-86.5 1951.5,-67.5 1781.5,-67.5"/>
<text text-anchor="middle" x="1866.5" y="-74.5" font-family="Helvetica,sans-Serif" font-size="10.00">boost/uuid/uuid_generators.hpp</text>
</a>
</g>
</g>
<!-- Node1&#45;&gt;Node19 -->
<g id="edge42" class="edge">
<title>Node1&#45;&gt;Node19</title>
<path fill="none" stroke="midnightblue" d="M1717.02,-257.19C1749.82,-217.87 1822.59,-130.64 1852.87,-94.34"/>
<polygon fill="midnightblue" stroke="midnightblue" points="1855.57,-96.57 1859.29,-86.65 1850.19,-92.08 1855.57,-96.57"/>
</g>
<!-- Node20 -->
<g id="node20" class="node">
<title>Node20</title>
<g id="a_node20"><a xlink:title=" ">
<polygon fill="none" stroke="#bfbfbf" points="1970,-67.5 1970,-86.5 2097,-86.5 2097,-67.5 1970,-67.5"/>
<text text-anchor="middle" x="2033.5" y="-74.5" font-family="Helvetica,sans-Serif" font-size="10.00">boost/uuid/uuid_io.hpp</text>
</a>
</g>
</g>
<!-- Node1&#45;&gt;Node20 -->
<g id="edge43" class="edge">
<title>Node1&#45;&gt;Node20</title>
<path fill="none" stroke="midnightblue" d="M1733.34,-257.37C1800.49,-217.25 1952.04,-126.68 2010.19,-91.93"/>
<polygon fill="midnightblue" stroke="midnightblue" points="2012.21,-94.8 2019,-86.67 2008.62,-88.79 2012.21,-94.8"/>
</g>
<!-- Node28 -->
<g id="node28" class="node">
<title>Node28</title>
<g id="a_node28"><a xlink:href="hdf5__core__datatype__interface_8h.html" target="_top" xlink:title=" ">
<polygon fill="none" stroke="black" points="2127,-134.5 2127,-164.5 2240,-164.5 2240,-134.5 2127,-134.5"/>
<text text-anchor="start" x="2135" y="-152.5" font-family="Helvetica,sans-Serif" font-size="10.00">hdf5_core_datatype</text>
<text text-anchor="middle" x="2183.5" y="-141.5" font-family="Helvetica,sans-Serif" font-size="10.00">_interface.h</text>
</a>
</g>
</g>
<!-- Node1&#45;&gt;Node28 -->
<g id="edge30" class="edge">
<title>Node1&#45;&gt;Node28</title>
<path fill="none" stroke="midnightblue" d="M1783.67,-272.3C1857.34,-266.2 1966.93,-252.31 2057.5,-221 2093.16,-208.67 2130.44,-186.47 2155.11,-170.27"/>
<polygon fill="midnightblue" stroke="midnightblue" points="2157.23,-173.06 2163.61,-164.6 2153.35,-167.24 2157.23,-173.06"/>
</g>
<!-- Node3&#45;&gt;Node2 -->
<g id="edge4" class="edge">
<title>Node3&#45;&gt;Node2</title>
<path fill="none" stroke="midnightblue" d="M1024.78,-201.45C1041.79,-194.55 1062.33,-182.97 1072.5,-165 1079.29,-153.01 1082.01,-143.97 1072.5,-134 1013.45,-72.12 387.73,-112.88 303.5,-98 292.92,-96.13 281.66,-93.01 271.58,-89.79"/>
<polygon fill="midnightblue" stroke="midnightblue" points="272.55,-86.42 261.96,-86.57 270.33,-93.06 272.55,-86.42"/>
</g>
<!-- Node4 -->
<g id="node4" class="node">
<title>Node4</title>
<g id="a_node4"><a xlink:title=" ">
<polygon fill="none" stroke="#bfbfbf" points="931.5,-140 931.5,-159 1063.5,-159 1063.5,-140 931.5,-140"/>
<text text-anchor="middle" x="997.5" y="-147" font-family="Helvetica,sans-Serif" font-size="10.00">highfive/H5DataSet.hpp</text>
</a>
</g>
</g>
<!-- Node3&#45;&gt;Node4 -->
<g id="edge3" class="edge">
<title>Node3&#45;&gt;Node4</title>
<path fill="none" stroke="midnightblue" d="M997.5,-201.48C997.5,-193.08 997.5,-179.98 997.5,-169.16"/>
<polygon fill="midnightblue" stroke="midnightblue" points="1001,-169.01 997.5,-159.01 994,-169.01 1001,-169.01"/>
</g>
<!-- Node3&#45;&gt;Node5 -->
<g id="edge5" class="edge">
<title>Node3&#45;&gt;Node5</title>
<path fill="none" stroke="midnightblue" d="M1039.91,-201.48C1086.66,-192.08 1162.74,-176.79 1219.39,-165.4"/>
<polygon fill="midnightblue" stroke="midnightblue" points="1220.26,-168.79 1229.37,-163.39 1218.88,-161.93 1220.26,-168.79"/>
</g>
<!-- Node22 -->
<g id="node22" class="node">
<title>Node22</title>
<g id="a_node22"><a xlink:href="header_8h.html" target="_top" xlink:title=" ">
<polygon fill="none" stroke="black" points="486,-140 486,-159 545,-159 545,-140 486,-140"/>
<text text-anchor="middle" x="515.5" y="-147" font-family="Helvetica,sans-Serif" font-size="10.00">header.h</text>
</a>
</g>
</g>
<!-- Node3&#45;&gt;Node22 -->
<g id="edge23" class="edge">
<title>Node3&#45;&gt;Node22</title>
<path fill="none" stroke="midnightblue" d="M928.44,-201.48C826.07,-188.84 637.34,-165.54 555.31,-155.41"/>
<polygon fill="midnightblue" stroke="midnightblue" points="555.51,-151.91 545.15,-154.16 554.65,-158.86 555.51,-151.91"/>
</g>
<!-- Node26 -->
<g id="node26" class="node">
<title>Node26</title>
<g id="a_node26"><a xlink:href="region__of__interest_8h.html" target="_top" xlink:title=" ">
<polygon fill="none" stroke="black" points="659.5,-140 659.5,-159 773.5,-159 773.5,-140 659.5,-140"/>
<text text-anchor="middle" x="716.5" y="-147" font-family="Helvetica,sans-Serif" font-size="10.00">region_of_interest.h</text>
</a>
</g>
</g>
<!-- Node3&#45;&gt;Node26 -->
<g id="edge28" class="edge">
<title>Node3&#45;&gt;Node26</title>
<path fill="none" stroke="midnightblue" d="M956.26,-201.49C912.96,-192.54 842.91,-177.96 782.5,-165 776.84,-163.79 770.91,-162.5 765.03,-161.22"/>
<polygon fill="midnightblue" stroke="midnightblue" points="765.74,-157.79 755.22,-159.08 764.25,-164.63 765.74,-157.79"/>
</g>
<!-- Node27 -->
<g id="node27" class="node">
<title>Node27</title>
<g id="a_node27"><a xlink:title=" ">
<polygon fill="none" stroke="#bfbfbf" points="792,-134.5 792,-164.5 913,-164.5 913,-134.5 792,-134.5"/>
<text text-anchor="start" x="800" y="-152.5" font-family="Helvetica,sans-Serif" font-size="10.00">seerep_msgs/camera</text>
<text text-anchor="middle" x="852.5" y="-141.5" font-family="Helvetica,sans-Serif" font-size="10.00">_intrinsics.h</text>
</a>
</g>
</g>
<!-- Node3&#45;&gt;Node27 -->
<g id="edge29" class="edge">
<title>Node3&#45;&gt;Node27</title>
<path fill="none" stroke="midnightblue" d="M976.73,-201.48C955.8,-192.89 922.89,-179.38 896.19,-168.43"/>
<polygon fill="midnightblue" stroke="midnightblue" points="897.25,-165.08 886.67,-164.52 894.6,-171.56 897.25,-165.08"/>
</g>
<!-- Node5&#45;&gt;Node2 -->
<g id="edge6" class="edge">
<title>Node5&#45;&gt;Node2</title>
<path fill="none" stroke="midnightblue" d="M1229.15,-143.02C1192.86,-140.06 1146.67,-136.51 1105.5,-134 749.36,-112.28 654.92,-159.73 303.5,-98 292.92,-96.14 281.66,-93.03 271.58,-89.8"/>
<polygon fill="midnightblue" stroke="midnightblue" points="272.55,-86.44 261.95,-86.58 270.33,-93.07 272.55,-86.44"/>
</g>
<!-- Node6 -->
<g id="node6" class="node">
<title>Node6</title>
<g id="a_node6"><a xlink:title=" ">
<polygon fill="none" stroke="#bfbfbf" points="913,-67.5 913,-86.5 1030,-86.5 1030,-67.5 913,-67.5"/>
<text text-anchor="middle" x="971.5" y="-74.5" font-family="Helvetica,sans-Serif" font-size="10.00">seerep_msgs/aabb.h</text>
</a>
</g>
</g>
<!-- Node5&#45;&gt;Node6 -->
<g id="edge7" class="edge">
<title>Node5&#45;&gt;Node6</title>
<path fill="none" stroke="midnightblue" d="M1229.47,-137.42C1177.9,-128.09 1103.68,-113.78 1039.5,-98 1029.28,-95.49 1018.31,-92.42 1008.22,-89.45"/>
<polygon fill="midnightblue" stroke="midnightblue" points="1009.07,-86.05 998.48,-86.54 1007.06,-92.76 1009.07,-86.05"/>
</g>
<!-- Node5&#45;&gt;Node7 -->
<g id="edge8" class="edge">
<title>Node5&#45;&gt;Node7</title>
<path fill="none" stroke="midnightblue" d="M1357.53,-146.98C1541.21,-142.32 2067.59,-126.78 2237.5,-98 2242.88,-97.09 2248.44,-95.9 2253.95,-94.57"/>
<polygon fill="midnightblue" stroke="midnightblue" points="2254.98,-97.92 2263.79,-92.02 2253.23,-91.14 2254.98,-97.92"/>
</g>
<!-- Node8 -->
<g id="node8" class="node">
<title>Node8</title>
<g id="a_node8"><a xlink:title=" ">
<polygon fill="none" stroke="#bfbfbf" points="1048.5,-62 1048.5,-92 1174.5,-92 1174.5,-62 1048.5,-62"/>
<text text-anchor="start" x="1056.5" y="-80" font-family="Helvetica,sans-Serif" font-size="10.00">seerep_msgs/geodetic</text>
<text text-anchor="middle" x="1111.5" y="-69" font-family="Helvetica,sans-Serif" font-size="10.00">_coordinates.h</text>
</a>
</g>
</g>
<!-- Node5&#45;&gt;Node8 -->
<g id="edge9" class="edge">
<title>Node5&#45;&gt;Node8</title>
<path fill="none" stroke="midnightblue" d="M1257.11,-134.4C1228.46,-123.31 1188.37,-107.78 1157.5,-95.82"/>
<polygon fill="midnightblue" stroke="midnightblue" points="1158.42,-92.42 1147.83,-92.07 1155.89,-98.95 1158.42,-92.42"/>
</g>
<!-- Node5&#45;&gt;Node9 -->
<g id="edge10" class="edge">
<title>Node5&#45;&gt;Node9</title>
<path fill="none" stroke="midnightblue" d="M1229.4,-138.46C1216.86,-136.75 1203.79,-135.16 1191.5,-134 860.76,-102.67 769.99,-153.39 438.64,-97.97"/>
<polygon fill="midnightblue" stroke="midnightblue" points="439.21,-94.52 428.77,-96.3 438.04,-101.42 439.21,-94.52"/>
</g>
<!-- Node5&#45;&gt;Node10 -->
<g id="edge11" class="edge">
<title>Node5&#45;&gt;Node10</title>
<path fill="none" stroke="midnightblue" d="M1315.3,-134.4C1334.3,-122.11 1361.73,-104.37 1380.73,-92.08"/>
<polygon fill="midnightblue" stroke="midnightblue" points="1382.81,-94.9 1389.31,-86.53 1379.01,-89.03 1382.81,-94.9"/>
</g>
<!-- Node11 -->
<g id="node11" class="node">
<title>Node11</title>
<g id="a_node11"><a xlink:title=" ">
<polygon fill="none" stroke="#bfbfbf" points="1192.5,-67.5 1192.5,-86.5 1240.5,-86.5 1240.5,-67.5 1192.5,-67.5"/>
<text text-anchor="middle" x="1216.5" y="-74.5" font-family="Helvetica,sans-Serif" font-size="10.00">mutex</text>
</a>
</g>
</g>
<!-- Node5&#45;&gt;Node11 -->
<g id="edge12" class="edge">
<title>Node5&#45;&gt;Node11</title>
<path fill="none" stroke="midnightblue" d="M1277.92,-134.23C1265.11,-122.5 1246.98,-105.9 1233.73,-93.78"/>
<polygon fill="midnightblue" stroke="midnightblue" points="1235.95,-91.06 1226.21,-86.89 1231.23,-96.23 1235.95,-91.06"/>
</g>
<!-- Node5&#45;&gt;Node12 -->
<g id="edge13" class="edge">
<title>Node5&#45;&gt;Node12</title>
<path fill="none" stroke="midnightblue" d="M1357.76,-147.17C1575.71,-142.44 2278.63,-125.2 2376.5,-98 2381.82,-96.52 2387.22,-94.17 2392.19,-91.6"/>
<polygon fill="midnightblue" stroke="midnightblue" points="2394.13,-94.52 2401.09,-86.53 2390.67,-88.44 2394.13,-94.52"/>
</g>
<!-- Node13 -->
<g id="node13" class="node">
<title>Node13</title>
<g id="a_node13"><a xlink:title=" ">
<polygon fill="none" stroke="#bfbfbf" points="1259,-67.5 1259,-86.5 1328,-86.5 1328,-67.5 1259,-67.5"/>
<text text-anchor="middle" x="1293.5" y="-74.5" font-family="Helvetica,sans-Serif" font-size="10.00">type_traits</text>
</a>
</g>
</g>
<!-- Node5&#45;&gt;Node13 -->
<g id="edge14" class="edge">
<title>Node5&#45;&gt;Node13</title>
<path fill="none" stroke="midnightblue" d="M1293.5,-134.23C1293.5,-123.5 1293.5,-108.69 1293.5,-96.96"/>
<polygon fill="midnightblue" stroke="midnightblue" points="1297,-96.89 1293.5,-86.89 1290,-96.89 1297,-96.89"/>
</g>
<!-- Node14 -->
<g id="node14" class="node">
<title>Node14</title>
<g id="a_node14"><a xlink:title=" ">
<polygon fill="none" stroke="#bfbfbf" points="447,-62 447,-92 592,-92 592,-62 447,-62"/>
<text text-anchor="start" x="455" y="-80" font-family="Helvetica,sans-Serif" font-size="10.00">boost/log/sources/severity</text>
<text text-anchor="middle" x="519.5" y="-69" font-family="Helvetica,sans-Serif" font-size="10.00">_logger.hpp</text>
</a>
</g>
</g>
<!-- Node5&#45;&gt;Node14 -->
<g id="edge15" class="edge">
<title>Node5&#45;&gt;Node14</title>
<path fill="none" stroke="midnightblue" d="M1229.39,-138.59C1216.85,-136.87 1203.78,-135.25 1191.5,-134 930.13,-107.49 861.26,-137.28 601.5,-98 594.78,-96.98 587.81,-95.68 580.89,-94.23"/>
<polygon fill="midnightblue" stroke="midnightblue" points="581.36,-90.74 570.84,-92 579.85,-97.58 581.36,-90.74"/>
</g>
<!-- Node15 -->
<g id="node15" class="node">
<title>Node15</title>
<g id="a_node15"><a xlink:title=" ">
<polygon fill="none" stroke="#bfbfbf" points="610.5,-67.5 610.5,-86.5 724.5,-86.5 724.5,-67.5 610.5,-67.5"/>
<text text-anchor="middle" x="667.5" y="-74.5" font-family="Helvetica,sans-Serif" font-size="10.00">boost/log/trivial.hpp</text>
</a>
</g>
</g>
<!-- Node5&#45;&gt;Node15 -->
<g id="edge16" class="edge">
<title>Node5&#45;&gt;Node15</title>
<path fill="none" stroke="midnightblue" d="M1229.37,-138.76C1216.83,-137.03 1203.77,-135.35 1191.5,-134 988.55,-111.62 934.15,-135.83 733.5,-98 722.82,-95.99 711.42,-92.89 701.15,-89.73"/>
<polygon fill="midnightblue" stroke="midnightblue" points="701.92,-86.3 691.33,-86.58 699.78,-92.96 701.92,-86.3"/>
</g>
<!-- Node5&#45;&gt;Node16 -->
<g id="edge17" class="edge">
<title>Node5&#45;&gt;Node16</title>
<path fill="none" stroke="midnightblue" d="M1344.18,-134.49C1392.16,-121.22 1463.26,-101.57 1507.68,-89.28"/>
<polygon fill="midnightblue" stroke="midnightblue" points="1508.85,-92.59 1517.56,-86.55 1506.99,-85.85 1508.85,-92.59"/>
</g>
<!-- Node5&#45;&gt;Node17 -->
<g id="edge18" class="edge">
<title>Node5&#45;&gt;Node17</title>
<path fill="none" stroke="midnightblue" d="M1357.72,-141.28C1425.66,-133.07 1535.79,-118.16 1629.5,-98 1640.62,-95.61 1652.57,-92.47 1663.43,-89.39"/>
<polygon fill="midnightblue" stroke="midnightblue" points="1664.42,-92.75 1673.05,-86.6 1662.47,-86.02 1664.42,-92.75"/>
</g>
<!-- Node5&#45;&gt;Node18 -->
<g id="edge19" class="edge">
<title>Node5&#45;&gt;Node18</title>
<path fill="none" stroke="midnightblue" d="M1357.72,-146.47C1523.56,-140.92 1963.11,-124.13 2106.5,-98 2117.13,-96.06 2128.46,-92.96 2138.64,-89.76"/>
<polygon fill="midnightblue" stroke="midnightblue" points="2139.95,-93.02 2148.36,-86.58 2137.77,-86.36 2139.95,-93.02"/>
</g>
<!-- Node5&#45;&gt;Node19 -->
<g id="edge20" class="edge">
<title>Node5&#45;&gt;Node19</title>
<path fill="none" stroke="midnightblue" d="M1357.7,-143.88C1449.87,-136.76 1624.87,-121.42 1772.5,-98 1788.17,-95.51 1805.16,-92.12 1820.33,-88.83"/>
<polygon fill="midnightblue" stroke="midnightblue" points="1821.5,-92.15 1830.51,-86.58 1819.99,-85.32 1821.5,-92.15"/>
</g>
<!-- Node5&#45;&gt;Node20 -->
<g id="edge21" class="edge">
<title>Node5&#45;&gt;Node20</title>
<path fill="none" stroke="midnightblue" d="M1357.93,-147.72C1477.54,-145.36 1741.66,-135.9 1960.5,-98 1972.62,-95.9 1985.63,-92.66 1997.27,-89.4"/>
<polygon fill="midnightblue" stroke="midnightblue" points="1998.45,-92.7 2007.08,-86.56 1996.5,-85.98 1998.45,-92.7"/>
</g>
<!-- Node21 -->
<g id="node21" class="node">
<title>Node21</title>
<g id="a_node21"><a xlink:title=" ">
<polygon fill="none" stroke="#bfbfbf" points="742.5,-67.5 742.5,-86.5 894.5,-86.5 894.5,-67.5 742.5,-67.5"/>
<text text-anchor="middle" x="818.5" y="-74.5" font-family="Helvetica,sans-Serif" font-size="10.00">impl/hdf5_core_general.hpp</text>
</a>
</g>
</g>
<!-- Node5&#45;&gt;Node21 -->
<g id="edge22" class="edge">
<title>Node5&#45;&gt;Node21</title>
<path fill="none" stroke="midnightblue" d="M1229.32,-139.21C1216.78,-137.44 1203.73,-135.63 1191.5,-134 1063.64,-116.92 1030.46,-120.81 903.5,-98 889.59,-95.5 874.54,-92.17 861.02,-88.94"/>
<polygon fill="midnightblue" stroke="midnightblue" points="861.57,-85.48 851.02,-86.51 859.91,-92.28 861.57,-85.48"/>
</g>
<!-- Node22&#45;&gt;Node18 -->
<g id="edge24" class="edge">
<title>Node22&#45;&gt;Node18</title>
<path fill="none" stroke="midnightblue" d="M545.2,-144.6C572.51,-141.18 614.16,-136.4 650.5,-134 973.45,-112.7 1787.06,-150.08 2106.5,-98 2117.45,-96.21 2129.12,-93.05 2139.5,-89.75"/>
<polygon fill="midnightblue" stroke="midnightblue" points="2140.62,-93.07 2149,-86.59 2138.41,-86.42 2140.62,-93.07"/>
</g>
<!-- Node23 -->
<g id="node23" class="node">
<title>Node23</title>
<g id="a_node23"><a xlink:href="datatype_8h.html" target="_top" xlink:title=" ">
<polygon fill="none" stroke="black" points="97,-67.5 97,-86.5 166,-86.5 166,-67.5 97,-67.5"/>
<text text-anchor="middle" x="131.5" y="-74.5" font-family="Helvetica,sans-Serif" font-size="10.00">datatype.h</text>
</a>
</g>
</g>
<!-- Node22&#45;&gt;Node23 -->
<g id="edge25" class="edge">
<title>Node22&#45;&gt;Node23</title>
<path fill="none" stroke="midnightblue" d="M485.8,-146.88C425.96,-143 287.11,-130.95 175.5,-98 169.16,-96.13 162.56,-93.52 156.46,-90.8"/>
<polygon fill="midnightblue" stroke="midnightblue" points="157.92,-87.62 147.38,-86.52 154.94,-93.95 157.92,-87.62"/>
</g>
<!-- Node24 -->
<g id="node24" class="node">
<title>Node24</title>
<g id="a_node24"><a xlink:href="timestamp_8h.html" target="_top" xlink:title=" ">
<polygon fill="none" stroke="black" points="0,-67.5 0,-86.5 79,-86.5 79,-67.5 0,-67.5"/>
<text text-anchor="middle" x="39.5" y="-74.5" font-family="Helvetica,sans-Serif" font-size="10.00">timestamp.h</text>
</a>
</g>
</g>
<!-- Node22&#45;&gt;Node24 -->
<g id="edge26" class="edge">
<title>Node22&#45;&gt;Node24</title>
<path fill="none" stroke="midnightblue" d="M485.92,-147.82C415.66,-145.59 233.71,-136.29 87.5,-98 80.46,-96.16 73.09,-93.49 66.3,-90.7"/>
<polygon fill="midnightblue" stroke="midnightblue" points="67.44,-87.38 56.87,-86.61 64.66,-93.8 67.44,-87.38"/>
</g>
<!-- Node25 -->
<g id="node25" class="node">
<title>Node25</title>
<g id="a_node25"><a xlink:title=" ">
<polygon fill="none" stroke="#bfbfbf" points="7,-0.5 7,-19.5 72,-19.5 72,-0.5 7,-0.5"/>
<text text-anchor="middle" x="39.5" y="-7.5" font-family="Helvetica,sans-Serif" font-size="10.00">functional</text>
</a>
</g>
</g>
<!-- Node24&#45;&gt;Node25 -->
<g id="edge27" class="edge">
<title>Node24&#45;&gt;Node25</title>
<path fill="none" stroke="midnightblue" d="M39.5,-67.23C39.5,-57.68 39.5,-42.12 39.5,-29.78"/>
<polygon fill="midnightblue" stroke="midnightblue" points="43,-29.63 39.5,-19.63 36,-29.63 43,-29.63"/>
</g>
<!-- Node28&#45;&gt;Node7 -->
<g id="edge31" class="edge">
<title>Node28&#45;&gt;Node7</title>
<path fill="none" stroke="midnightblue" d="M2208.1,-134.4C2226.78,-123.69 2252.68,-108.85 2273.22,-97.07"/>
<polygon fill="midnightblue" stroke="midnightblue" points="2275.01,-100.08 2281.95,-92.07 2271.53,-94.01 2275.01,-100.08"/>
</g>
<!-- Node28&#45;&gt;Node12 -->
<g id="edge33" class="edge">
<title>Node28&#45;&gt;Node12</title>
<path fill="none" stroke="midnightblue" d="M2240.37,-137.38C2279.43,-128.84 2332.04,-115.54 2376.5,-98 2381.18,-96.15 2386.02,-93.85 2390.59,-91.48"/>
<polygon fill="midnightblue" stroke="midnightblue" points="2392.39,-94.49 2399.48,-86.61 2389.02,-88.35 2392.39,-94.49"/>
</g>
<!-- Node28&#45;&gt;Node18 -->
<g id="edge32" class="edge">
<title>Node28&#45;&gt;Node18</title>
<path fill="none" stroke="midnightblue" d="M2181.07,-134.23C2179.24,-123.5 2176.72,-108.69 2174.73,-96.96"/>
<polygon fill="midnightblue" stroke="midnightblue" points="2178.14,-96.16 2173.01,-86.89 2171.24,-97.34 2178.14,-96.16"/>
</g>
</g>
</svg>
