<?xml version="1.0" encoding="UTF-8" standalone="no"?>
<!DOCTYPE svg PUBLIC "-//W3C//DTD SVG 1.1//EN"
 "http://www.w3.org/Graphics/SVG/1.1/DTD/svg11.dtd">
<!-- Generated by graphviz version 2.43.0 (0)
 -->
<!-- Title: seerep&#45;hdf5/seerep&#45;hdf5&#45;pb/src/hdf5&#45;pb&#45;image.cpp Pages: 1 -->
<svg width="2425pt" height="340pt"
 viewBox="0.00 0.00 2425.00 340.00" xmlns="http://www.w3.org/2000/svg" xmlns:xlink="http://www.w3.org/1999/xlink">
<g id="graph0" class="graph" transform="scale(1 1) rotate(0) translate(4 336)">
<title>seerep&#45;hdf5/seerep&#45;hdf5&#45;pb/src/hdf5&#45;pb&#45;image.cpp</title>
<!-- Node1 -->
<g id="node1" class="node">
<title>Node1</title>
<g id="a_node1"><a xlink:title=" ">
<polygon fill="#bfbfbf" stroke="black" points="1365.5,-290.5 1365.5,-331.5 1481.5,-331.5 1481.5,-290.5 1365.5,-290.5"/>
<text text-anchor="start" x="1373.5" y="-319.5" font-family="Helvetica,sans-Serif" font-size="10.00">seerep&#45;hdf5/seerep</text>
<text text-anchor="start" x="1373.5" y="-308.5" font-family="Helvetica,sans-Serif" font-size="10.00">&#45;hdf5&#45;pb/src/hdf5&#45;pb</text>
<text text-anchor="middle" x="1423.5" y="-297.5" font-family="Helvetica,sans-Serif" font-size="10.00">&#45;image.cpp</text>
</a>
</g>
</g>
<!-- Node2 -->
<g id="node2" class="node">
<title>Node2</title>
<g id="a_node2"><a xlink:href="hdf5-pb-image_8h.html" target="_top" xlink:title=" ">
<polygon fill="none" stroke="black" points="1294.5,-223.5 1294.5,-253.5 1410.5,-253.5 1410.5,-223.5 1294.5,-223.5"/>
<text text-anchor="start" x="1302.5" y="-241.5" font-family="Helvetica,sans-Serif" font-size="10.00">seerep&#45;hdf5&#45;pb/hdf5</text>
<text text-anchor="middle" x="1352.5" y="-230.5" font-family="Helvetica,sans-Serif" font-size="10.00">&#45;pb&#45;image.h</text>
</a>
</g>
</g>
<!-- Node1&#45;&gt;Node2 -->
<g id="edge1" class="edge">
<title>Node1&#45;&gt;Node2</title>
<path fill="none" stroke="midnightblue" d="M1403.72,-290.36C1394.53,-281.23 1383.57,-270.35 1374.15,-261"/>
<polygon fill="midnightblue" stroke="midnightblue" points="1376.56,-258.45 1366.99,-253.89 1371.62,-263.42 1376.56,-258.45"/>
</g>
<!-- Node31 -->
<g id="node31" class="node">
<title>Node31</title>
<g id="a_node31"><a xlink:title=" ">
<polygon fill="none" stroke="#bfbfbf" points="1428.5,-229 1428.5,-248 1560.5,-248 1560.5,-229 1428.5,-229"/>
<text text-anchor="middle" x="1494.5" y="-236" font-family="Helvetica,sans-Serif" font-size="10.00">highfive/H5DataSet.hpp</text>
</a>
</g>
</g>
<!-- Node1&#45;&gt;Node31 -->
<g id="edge52" class="edge">
<title>Node1&#45;&gt;Node31</title>
<path fill="none" stroke="midnightblue" d="M1443.28,-290.36C1454.39,-279.32 1468.09,-265.72 1478.52,-255.37"/>
<polygon fill="midnightblue" stroke="midnightblue" points="1481.14,-257.7 1485.77,-248.17 1476.2,-252.74 1481.14,-257.7"/>
</g>
<!-- Node3 -->
<g id="node3" class="node">
<title>Node3</title>
<g id="a_node3"><a xlink:title=" ">
<polygon fill="none" stroke="#bfbfbf" points="1709.5,-11.5 1709.5,-30.5 1819.5,-30.5 1819.5,-11.5 1709.5,-11.5"/>
<text text-anchor="middle" x="1764.5" y="-18.5" font-family="Helvetica,sans-Serif" font-size="10.00">highfive/H5File.hpp</text>
</a>
</g>
</g>
<!-- Node2&#45;&gt;Node3 -->
<g id="edge2" class="edge">
<title>Node2&#45;&gt;Node3</title>
<path fill="none" stroke="midnightblue" d="M1325.13,-223.45C1273.39,-195.18 1170.52,-129.69 1218.5,-78 1255.03,-38.64 1647.75,-52.07 1700.5,-42 1710.96,-40 1722.12,-36.88 1732.14,-33.69"/>
<polygon fill="midnightblue" stroke="midnightblue" points="1733.33,-36.98 1741.72,-30.51 1731.12,-30.34 1733.33,-36.98"/>
</g>
<!-- Node4 -->
<g id="node4" class="node">
<title>Node4</title>
<g id="a_node4"><a xlink:href="hdf5-core-image_8h.html" target="_top" xlink:title=" ">
<polygon fill="none" stroke="black" points="628,-156.5 628,-186.5 753,-186.5 753,-156.5 628,-156.5"/>
<text text-anchor="start" x="636" y="-174.5" font-family="Helvetica,sans-Serif" font-size="10.00">seerep&#45;hdf5&#45;core/hdf5</text>
<text text-anchor="middle" x="690.5" y="-163.5" font-family="Helvetica,sans-Serif" font-size="10.00">&#45;core&#45;image.h</text>
</a>
</g>
</g>
<!-- Node2&#45;&gt;Node4 -->
<g id="edge3" class="edge">
<title>Node2&#45;&gt;Node4</title>
<path fill="none" stroke="midnightblue" d="M1294.33,-231.79C1173.49,-219.92 895.52,-192.63 763.14,-179.63"/>
<polygon fill="midnightblue" stroke="midnightblue" points="763.39,-176.14 753.1,-178.65 762.71,-183.11 763.39,-176.14"/>
</g>
<!-- Node8 -->
<g id="node8" class="node">
<title>Node8</title>
<g id="a_node8"><a xlink:title=" ">
<polygon fill="none" stroke="#bfbfbf" points="268.5,-11.5 268.5,-30.5 324.5,-30.5 324.5,-11.5 268.5,-11.5"/>
<text text-anchor="middle" x="296.5" y="-18.5" font-family="Helvetica,sans-Serif" font-size="10.00">optional</text>
</a>
</g>
</g>
<!-- Node2&#45;&gt;Node8 -->
<g id="edge51" class="edge">
<title>Node2&#45;&gt;Node8</title>
<path fill="none" stroke="midnightblue" d="M1294.46,-235.85C1144.63,-231.23 747.62,-216.48 619.5,-187 494.98,-158.34 364.92,-71.44 316.34,-36.64"/>
<polygon fill="midnightblue" stroke="midnightblue" points="318.14,-33.62 307.98,-30.59 314.03,-39.29 318.14,-33.62"/>
</g>
<!-- Node13 -->
<g id="node13" class="node">
<title>Node13</title>
<g id="a_node13"><a xlink:title=" ">
<polygon fill="none" stroke="#bfbfbf" points="2145,-11.5 2145,-30.5 2258,-30.5 2258,-11.5 2145,-11.5"/>
<text text-anchor="middle" x="2201.5" y="-18.5" font-family="Helvetica,sans-Serif" font-size="10.00">boost/geometry.hpp</text>
</a>
</g>
</g>
<!-- Node2&#45;&gt;Node13 -->
<g id="edge50" class="edge">
<title>Node2&#45;&gt;Node13</title>
<path fill="none" stroke="midnightblue" d="M1410.55,-224.62C1413.57,-224.05 1416.57,-223.51 1419.5,-223 1595.27,-192.66 2097.75,-253.97 2215.5,-120 2234.99,-97.82 2222.02,-61.28 2211.37,-39.64"/>
<polygon fill="midnightblue" stroke="midnightblue" points="2214.38,-37.82 2206.63,-30.59 2208.18,-41.07 2214.38,-37.82"/>
</g>
<!-- Node23 -->
<g id="node23" class="node">
<title>Node23</title>
<g id="a_node23"><a xlink:href="hdf5-pb-general_8h.html" target="_top" xlink:title=" ">
<polygon fill="none" stroke="black" points="1509.5,-156.5 1509.5,-186.5 1625.5,-186.5 1625.5,-156.5 1509.5,-156.5"/>
<text text-anchor="start" x="1517.5" y="-174.5" font-family="Helvetica,sans-Serif" font-size="10.00">seerep&#45;hdf5&#45;pb/hdf5</text>
<text text-anchor="middle" x="1567.5" y="-163.5" font-family="Helvetica,sans-Serif" font-size="10.00">&#45;pb&#45;general.h</text>
</a>
</g>
</g>
<!-- Node2&#45;&gt;Node23 -->
<g id="edge36" class="edge">
<title>Node2&#45;&gt;Node23</title>
<path fill="none" stroke="midnightblue" d="M1398.89,-223.48C1431.84,-213.51 1476.25,-200.09 1511.23,-189.51"/>
<polygon fill="midnightblue" stroke="midnightblue" points="1512.27,-192.86 1520.83,-186.61 1510.24,-186.15 1512.27,-192.86"/>
</g>
<!-- Node30 -->
<g id="node30" class="node">
<title>Node30</title>
<g id="a_node30"><a xlink:title=" ">
<polygon fill="none" stroke="#bfbfbf" points="2280,-162 2280,-181 2417,-181 2417,-162 2280,-162"/>
<text text-anchor="middle" x="2348.5" y="-169" font-family="Helvetica,sans-Serif" font-size="10.00">seerep&#45;msgs/image.pb.h</text>
</a>
</g>
</g>
<!-- Node2&#45;&gt;Node30 -->
<g id="edge49" class="edge">
<title>Node2&#45;&gt;Node30</title>
<path fill="none" stroke="midnightblue" d="M1410.86,-224.26C1413.78,-223.79 1416.67,-223.36 1419.5,-223 1792.77,-175.02 1891.34,-227.47 2265.5,-187 2275.43,-185.93 2285.96,-184.39 2296.07,-182.73"/>
<polygon fill="midnightblue" stroke="midnightblue" points="2296.74,-186.16 2306,-181.02 2295.55,-179.26 2296.74,-186.16"/>
</g>
<!-- Node4&#45;&gt;Node3 -->
<g id="edge4" class="edge">
<title>Node4&#45;&gt;Node3</title>
<path fill="none" stroke="midnightblue" d="M753.06,-167.22C848.19,-161.42 1024.13,-147.31 1080.5,-120 1104.54,-108.35 1099.09,-88.84 1123.5,-78 1240.91,-25.85 1574.16,-65.33 1700.5,-42 1710.97,-40.07 1722.14,-36.96 1732.16,-33.77"/>
<polygon fill="midnightblue" stroke="midnightblue" points="1733.35,-37.06 1741.73,-30.58 1731.14,-30.42 1733.35,-37.06"/>
</g>
<!-- Node5 -->
<g id="node5" class="node">
<title>Node5</title>
<g id="a_node5"><a xlink:href="hdf5-core-datatype-interface_8h.html" target="_top" xlink:title=" ">
<polygon fill="none" stroke="black" points="125,-84 125,-114 270,-114 270,-84 125,-84"/>
<text text-anchor="start" x="133" y="-102" font-family="Helvetica,sans-Serif" font-size="10.00">seerep&#45;hdf5&#45;core/hdf5</text>
<text text-anchor="middle" x="197.5" y="-91" font-family="Helvetica,sans-Serif" font-size="10.00">&#45;core&#45;datatype&#45;interface.h</text>
</a>
</g>
</g>
<!-- Node4&#45;&gt;Node5 -->
<g id="edge5" class="edge">
<title>Node4&#45;&gt;Node5</title>
<path fill="none" stroke="midnightblue" d="M627.81,-161.54C539.52,-148.91 378.38,-125.87 280.32,-111.84"/>
<polygon fill="midnightblue" stroke="midnightblue" points="280.54,-108.34 270.15,-110.39 279.55,-115.27 280.54,-108.34"/>
</g>
<!-- Node6 -->
<g id="node6" class="node">
<title>Node6</title>
<g id="a_node6"><a xlink:title=" ">
<polygon fill="none" stroke="#bfbfbf" points="0,-6 0,-36 119,-36 119,-6 0,-6"/>
<text text-anchor="start" x="8" y="-24" font-family="Helvetica,sans-Serif" font-size="10.00">seerep&#45;msgs/dataset</text>
<text text-anchor="middle" x="59.5" y="-13" font-family="Helvetica,sans-Serif" font-size="10.00">&#45;indexable.h</text>
</a>
</g>
</g>
<!-- Node4&#45;&gt;Node6 -->
<g id="edge27" class="edge">
<title>Node4&#45;&gt;Node6</title>
<path fill="none" stroke="midnightblue" d="M627.89,-168.26C487.78,-162.78 157.88,-147.14 115.5,-120 89.17,-103.14 73.91,-69.22 66.14,-46.06"/>
<polygon fill="midnightblue" stroke="midnightblue" points="69.41,-44.78 63.09,-36.28 62.73,-46.87 69.41,-44.78"/>
</g>
<!-- Node7 -->
<g id="node7" class="node">
<title>Node7</title>
<g id="a_node7"><a xlink:title=" ">
<polygon fill="none" stroke="#bfbfbf" points="137,-11.5 137,-30.5 250,-30.5 250,-11.5 137,-11.5"/>
<text text-anchor="middle" x="193.5" y="-18.5" font-family="Helvetica,sans-Serif" font-size="10.00">boost/uuid/uuid.hpp</text>
</a>
</g>
</g>
<!-- Node4&#45;&gt;Node7 -->
<g id="edge33" class="edge">
<title>Node4&#45;&gt;Node7</title>
<path fill="none" stroke="midnightblue" d="M627.59,-159.38C580.36,-150.42 514.31,-136.61 457.5,-120 370.58,-94.59 271.22,-54.64 222.94,-34.5"/>
<polygon fill="midnightblue" stroke="midnightblue" points="224.28,-31.27 213.71,-30.63 221.58,-37.72 224.28,-31.27"/>
</g>
<!-- Node4&#45;&gt;Node8 -->
<g id="edge30" class="edge">
<title>Node4&#45;&gt;Node8</title>
<path fill="none" stroke="midnightblue" d="M646.58,-156.41C617.83,-146.87 579.59,-133.57 546.5,-120 506.03,-103.41 498.41,-93.48 457.5,-78 403.83,-57.69 386.6,-63.77 333.5,-42 328.85,-40.09 324.02,-37.76 319.45,-35.38"/>
<polygon fill="midnightblue" stroke="midnightblue" points="321.02,-32.25 310.56,-30.52 317.66,-38.39 321.02,-32.25"/>
</g>
<!-- Node9 -->
<g id="node9" class="node">
<title>Node9</title>
<g id="a_node9"><a xlink:href="hdf5-core-general_8h.html" target="_top" xlink:title=" ">
<polygon fill="none" stroke="black" points="946,-84 946,-114 1071,-114 1071,-84 946,-84"/>
<text text-anchor="start" x="954" y="-102" font-family="Helvetica,sans-Serif" font-size="10.00">seerep&#45;hdf5&#45;core/hdf5</text>
<text text-anchor="middle" x="1008.5" y="-91" font-family="Helvetica,sans-Serif" font-size="10.00">&#45;core&#45;general.h</text>
</a>
</g>
</g>
<!-- Node4&#45;&gt;Node9 -->
<g id="edge9" class="edge">
<title>Node4&#45;&gt;Node9</title>
<path fill="none" stroke="midnightblue" d="M753.33,-156.57C805.81,-144.94 880.69,-128.34 935.76,-116.13"/>
<polygon fill="midnightblue" stroke="midnightblue" points="936.8,-119.48 945.8,-113.9 935.28,-112.65 936.8,-119.48"/>
</g>
<!-- Node12 -->
<g id="node12" class="node">
<title>Node12</title>
<g id="a_node12"><a xlink:title=" ">
<polygon fill="none" stroke="#bfbfbf" points="488.5,-0.5 488.5,-41.5 600.5,-41.5 600.5,-0.5 488.5,-0.5"/>
<text text-anchor="start" x="496.5" y="-29.5" font-family="Helvetica,sans-Serif" font-size="10.00">seerep&#45;msgs/labels</text>
<text text-anchor="start" x="496.5" y="-18.5" font-family="Helvetica,sans-Serif" font-size="10.00">&#45;with&#45;instance&#45;with</text>
<text text-anchor="middle" x="544.5" y="-7.5" font-family="Helvetica,sans-Serif" font-size="10.00">&#45;category.h</text>
</a>
</g>
</g>
<!-- Node4&#45;&gt;Node12 -->
<g id="edge28" class="edge">
<title>Node4&#45;&gt;Node12</title>
<path fill="none" stroke="midnightblue" d="M679.27,-156.48C664.13,-137.87 636.02,-104.31 609.5,-78 599.3,-67.89 587.57,-57.45 576.9,-48.36"/>
<polygon fill="midnightblue" stroke="midnightblue" points="578.89,-45.47 568.99,-41.71 574.39,-50.82 578.89,-45.47"/>
</g>
<!-- Node4&#45;&gt;Node13 -->
<g id="edge29" class="edge">
<title>Node4&#45;&gt;Node13</title>
<path fill="none" stroke="midnightblue" d="M753.21,-167.49C836.81,-162.47 988.94,-149.83 1115.5,-120 1169.28,-107.33 1178.27,-88.57 1232.5,-78 1621.94,-2.1 1732.03,-100.21 2124.5,-42 2137.76,-40.03 2152.03,-36.68 2164.65,-33.28"/>
<polygon fill="midnightblue" stroke="midnightblue" points="2165.66,-36.63 2174.35,-30.57 2163.78,-29.89 2165.66,-36.63"/>
</g>
<!-- Node18 -->
<g id="node18" class="node">
<title>Node18</title>
<g id="a_node18"><a xlink:title=" ">
<polygon fill="none" stroke="#bfbfbf" points="619,-11.5 619,-30.5 762,-30.5 762,-11.5 619,-11.5"/>
<text text-anchor="middle" x="690.5" y="-18.5" font-family="Helvetica,sans-Serif" font-size="10.00">boost/functional/hash.hpp</text>
</a>
</g>
</g>
<!-- Node4&#45;&gt;Node18 -->
<g id="edge31" class="edge">
<title>Node4&#45;&gt;Node18</title>
<path fill="none" stroke="midnightblue" d="M690.5,-156.26C690.5,-129.35 690.5,-71.04 690.5,-40.9"/>
<polygon fill="midnightblue" stroke="midnightblue" points="694,-40.85 690.5,-30.85 687,-40.85 694,-40.85"/>
</g>
<!-- Node19 -->
<g id="node19" class="node">
<title>Node19</title>
<g id="a_node19"><a xlink:title=" ">
<polygon fill="none" stroke="#bfbfbf" points="780,-11.5 780,-30.5 905,-30.5 905,-11.5 780,-11.5"/>
<text text-anchor="middle" x="842.5" y="-18.5" font-family="Helvetica,sans-Serif" font-size="10.00">boost/lexical_cast.hpp</text>
</a>
</g>
</g>
<!-- Node4&#45;&gt;Node19 -->
<g id="edge32" class="edge">
<title>Node4&#45;&gt;Node19</title>
<path fill="none" stroke="midnightblue" d="M705.07,-156.26C733.46,-128.52 796.01,-67.42 825.93,-38.19"/>
<polygon fill="midnightblue" stroke="midnightblue" points="828.74,-40.34 833.45,-30.85 823.85,-35.33 828.74,-40.34"/>
</g>
<!-- Node20 -->
<g id="node20" class="node">
<title>Node20</title>
<g id="a_node20"><a xlink:title=" ">
<polygon fill="none" stroke="#bfbfbf" points="923.5,-11.5 923.5,-30.5 1093.5,-30.5 1093.5,-11.5 923.5,-11.5"/>
<text text-anchor="middle" x="1008.5" y="-18.5" font-family="Helvetica,sans-Serif" font-size="10.00">boost/uuid/uuid_generators.hpp</text>
</a>
</g>
</g>
<!-- Node4&#45;&gt;Node20 -->
<g id="edge34" class="edge">
<title>Node4&#45;&gt;Node20</title>
<path fill="none" stroke="midnightblue" d="M720.7,-156.4C782.38,-127.59 921.98,-62.4 981.16,-34.77"/>
<polygon fill="midnightblue" stroke="midnightblue" points="982.69,-37.92 990.27,-30.51 979.73,-31.57 982.69,-37.92"/>
</g>
<!-- Node21 -->
<g id="node21" class="node">
<title>Node21</title>
<g id="a_node21"><a xlink:title=" ">
<polygon fill="none" stroke="#bfbfbf" points="343,-11.5 343,-30.5 470,-30.5 470,-11.5 343,-11.5"/>
<text text-anchor="middle" x="406.5" y="-18.5" font-family="Helvetica,sans-Serif" font-size="10.00">boost/uuid/uuid_io.hpp</text>
</a>
</g>
</g>
<!-- Node4&#45;&gt;Node21 -->
<g id="edge35" class="edge">
<title>Node4&#45;&gt;Node21</title>
<path fill="none" stroke="midnightblue" d="M667.34,-156.32C651.08,-146.3 628.86,-132.48 609.5,-120 581.22,-101.76 576.28,-93.67 546.5,-78 512.3,-60.01 471,-44.15 442.15,-33.94"/>
<polygon fill="midnightblue" stroke="midnightblue" points="443.1,-30.57 432.5,-30.57 440.79,-37.17 443.1,-30.57"/>
</g>
<!-- Node5&#45;&gt;Node6 -->
<g id="edge6" class="edge">
<title>Node5&#45;&gt;Node6</title>
<path fill="none" stroke="midnightblue" d="M171.87,-83.88C149.89,-71.78 118.04,-54.24 93.85,-40.92"/>
<polygon fill="midnightblue" stroke="midnightblue" points="95.44,-37.8 85,-36.04 92.07,-43.93 95.44,-37.8"/>
</g>
<!-- Node5&#45;&gt;Node7 -->
<g id="edge7" class="edge">
<title>Node5&#45;&gt;Node7</title>
<path fill="none" stroke="midnightblue" d="M196.75,-83.7C196.11,-71.6 195.19,-54.15 194.49,-40.89"/>
<polygon fill="midnightblue" stroke="midnightblue" points="197.97,-40.37 193.95,-30.56 190.98,-40.73 197.97,-40.37"/>
</g>
<!-- Node5&#45;&gt;Node8 -->
<g id="edge8" class="edge">
<title>Node5&#45;&gt;Node8</title>
<path fill="none" stroke="midnightblue" d="M216.12,-83.7C233.48,-70.38 259.28,-50.57 276.94,-37.01"/>
<polygon fill="midnightblue" stroke="midnightblue" points="279.54,-39.43 285.34,-30.56 275.28,-33.88 279.54,-39.43"/>
</g>
<!-- Node9&#45;&gt;Node3 -->
<g id="edge10" class="edge">
<title>Node9&#45;&gt;Node3</title>
<path fill="none" stroke="midnightblue" d="M1056.66,-83.95C1066.15,-81.62 1076.09,-79.48 1085.5,-78 1355.96,-35.38 1431.16,-91.2 1700.5,-42 1711.06,-40.07 1722.33,-36.93 1732.41,-33.71"/>
<polygon fill="midnightblue" stroke="midnightblue" points="1733.65,-36.99 1742.03,-30.5 1731.44,-30.35 1733.65,-36.99"/>
</g>
<!-- Node9&#45;&gt;Node6 -->
<g id="edge12" class="edge">
<title>Node9&#45;&gt;Node6</title>
<path fill="none" stroke="midnightblue" d="M945.99,-98.77C800.96,-99.54 430.86,-95.56 127.5,-42 122.4,-41.1 117.15,-39.96 111.92,-38.67"/>
<polygon fill="midnightblue" stroke="midnightblue" points="112.52,-35.21 101.96,-36.06 110.74,-41.98 112.52,-35.21"/>
</g>
<!-- Node9&#45;&gt;Node7 -->
<g id="edge23" class="edge">
<title>Node9&#45;&gt;Node7</title>
<path fill="none" stroke="midnightblue" d="M945.76,-97.94C816.32,-96.8 510.74,-88.87 259.5,-42 248.62,-39.97 236.99,-36.8 226.57,-33.57"/>
<polygon fill="midnightblue" stroke="midnightblue" points="227.61,-30.23 217.02,-30.5 225.46,-36.89 227.61,-30.23"/>
</g>
<!-- Node9&#45;&gt;Node8 -->
<g id="edge17" class="edge">
<title>Node9&#45;&gt;Node8</title>
<path fill="none" stroke="midnightblue" d="M945.95,-89.2C917.22,-85.37 882.67,-81.07 851.5,-78 621.83,-55.41 555.13,-106.32 333.5,-42 328.29,-40.49 322.98,-38.17 318.08,-35.63"/>
<polygon fill="midnightblue" stroke="midnightblue" points="319.7,-32.53 309.27,-30.66 316.26,-38.63 319.7,-32.53"/>
</g>
<!-- Node10 -->
<g id="node10" class="node">
<title>Node10</title>
<g id="a_node10"><a xlink:title=" ">
<polygon fill="none" stroke="#bfbfbf" points="1575.5,-11.5 1575.5,-30.5 1691.5,-30.5 1691.5,-11.5 1575.5,-11.5"/>
<text text-anchor="middle" x="1633.5" y="-18.5" font-family="Helvetica,sans-Serif" font-size="10.00">seerep&#45;msgs/aabb.h</text>
</a>
</g>
</g>
<!-- Node9&#45;&gt;Node10 -->
<g id="edge11" class="edge">
<title>Node9&#45;&gt;Node10</title>
<path fill="none" stroke="midnightblue" d="M1057.1,-83.97C1066.46,-81.67 1076.23,-79.54 1085.5,-78 1297.42,-42.86 1356.32,-81.39 1567.5,-42 1578.38,-39.97 1590.01,-36.8 1600.43,-33.57"/>
<polygon fill="midnightblue" stroke="midnightblue" points="1601.54,-36.89 1609.98,-30.5 1599.39,-30.23 1601.54,-36.89"/>
</g>
<!-- Node11 -->
<g id="node11" class="node">
<title>Node11</title>
<g id="a_node11"><a xlink:title=" ">
<polygon fill="none" stroke="#bfbfbf" points="1112,-6 1112,-36 1237,-36 1237,-6 1112,-6"/>
<text text-anchor="start" x="1120" y="-24" font-family="Helvetica,sans-Serif" font-size="10.00">seerep&#45;msgs/geodetic</text>
<text text-anchor="middle" x="1174.5" y="-13" font-family="Helvetica,sans-Serif" font-size="10.00">&#45;coordinates.h</text>
</a>
</g>
</g>
<!-- Node9&#45;&gt;Node11 -->
<g id="edge13" class="edge">
<title>Node9&#45;&gt;Node11</title>
<path fill="none" stroke="midnightblue" d="M1039.33,-83.88C1066.24,-71.57 1105.44,-53.62 1134.71,-40.22"/>
<polygon fill="midnightblue" stroke="midnightblue" points="1136.2,-43.39 1143.83,-36.04 1133.28,-37.02 1136.2,-43.39"/>
</g>
<!-- Node9&#45;&gt;Node12 -->
<g id="edge14" class="edge">
<title>Node9&#45;&gt;Node12</title>
<path fill="none" stroke="midnightblue" d="M945.95,-89.74C842.16,-75.95 642.53,-49.06 610.5,-42 610.4,-41.98 610.3,-41.95 610.19,-41.93"/>
<polygon fill="midnightblue" stroke="midnightblue" points="611.05,-38.54 600.51,-39.62 609.43,-45.35 611.05,-38.54"/>
</g>
<!-- Node9&#45;&gt;Node13 -->
<g id="edge15" class="edge">
<title>Node9&#45;&gt;Node13</title>
<path fill="none" stroke="midnightblue" d="M1071.26,-88.46C1098.87,-84.61 1131.74,-80.5 1161.5,-78 1588.3,-42.2 1700.74,-104.2 2124.5,-42 2137.76,-40.05 2152.04,-36.71 2164.65,-33.3"/>
<polygon fill="midnightblue" stroke="midnightblue" points="2165.67,-36.65 2174.36,-30.59 2163.78,-29.91 2165.67,-36.65"/>
</g>
<!-- Node14 -->
<g id="node14" class="node">
<title>Node14</title>
<g id="a_node14"><a xlink:title=" ">
<polygon fill="none" stroke="#bfbfbf" points="1255.5,-11.5 1255.5,-30.5 1303.5,-30.5 1303.5,-11.5 1255.5,-11.5"/>
<text text-anchor="middle" x="1279.5" y="-18.5" font-family="Helvetica,sans-Serif" font-size="10.00">mutex</text>
</a>
</g>
</g>
<!-- Node9&#45;&gt;Node14 -->
<g id="edge16" class="edge">
<title>Node9&#45;&gt;Node14</title>
<path fill="none" stroke="midnightblue" d="M1061.46,-83.99C1069.5,-81.94 1077.71,-79.88 1085.5,-78 1156.77,-60.78 1178.47,-69.36 1246.5,-42 1250.63,-40.34 1254.83,-38.2 1258.8,-35.93"/>
<polygon fill="midnightblue" stroke="midnightblue" points="1260.78,-38.82 1267.46,-30.6 1257.11,-32.86 1260.78,-38.82"/>
</g>
<!-- Node15 -->
<g id="node15" class="node">
<title>Node15</title>
<g id="a_node15"><a xlink:title=" ">
<polygon fill="none" stroke="#bfbfbf" points="1322,-11.5 1322,-30.5 1391,-30.5 1391,-11.5 1322,-11.5"/>
<text text-anchor="middle" x="1356.5" y="-18.5" font-family="Helvetica,sans-Serif" font-size="10.00">type_traits</text>
</a>
</g>
</g>
<!-- Node9&#45;&gt;Node15 -->
<g id="edge18" class="edge">
<title>Node9&#45;&gt;Node15</title>
<path fill="none" stroke="midnightblue" d="M1059.7,-83.96C1068.28,-81.82 1077.12,-79.75 1085.5,-78 1185.5,-57.14 1214.67,-71.4 1312.5,-42 1318.57,-40.17 1324.9,-37.68 1330.79,-35.08"/>
<polygon fill="midnightblue" stroke="midnightblue" points="1332.62,-38.09 1340.19,-30.69 1329.65,-31.75 1332.62,-38.09"/>
</g>
<!-- Node16 -->
<g id="node16" class="node">
<title>Node16</title>
<g id="a_node16"><a xlink:title=" ">
<polygon fill="none" stroke="#bfbfbf" points="1970,-6 1970,-36 2115,-36 2115,-6 1970,-6"/>
<text text-anchor="start" x="1978" y="-24" font-family="Helvetica,sans-Serif" font-size="10.00">boost/log/sources/severity</text>
<text text-anchor="middle" x="2042.5" y="-13" font-family="Helvetica,sans-Serif" font-size="10.00">_logger.hpp</text>
</a>
</g>
</g>
<!-- Node9&#45;&gt;Node16 -->
<g id="edge19" class="edge">
<title>Node9&#45;&gt;Node16</title>
<path fill="none" stroke="midnightblue" d="M1071.27,-88.57C1098.89,-84.74 1131.75,-80.61 1161.5,-78 1515.61,-46.93 1608.61,-92.35 1960.5,-42 1967.32,-41.02 1974.41,-39.73 1981.42,-38.27"/>
<polygon fill="midnightblue" stroke="midnightblue" points="1982.6,-41.6 1991.62,-36.03 1981.1,-34.76 1982.6,-41.6"/>
</g>
<!-- Node17 -->
<g id="node17" class="node">
<title>Node17</title>
<g id="a_node17"><a xlink:title=" ">
<polygon fill="none" stroke="#bfbfbf" points="1837.5,-11.5 1837.5,-30.5 1951.5,-30.5 1951.5,-11.5 1837.5,-11.5"/>
<text text-anchor="middle" x="1894.5" y="-18.5" font-family="Helvetica,sans-Serif" font-size="10.00">boost/log/trivial.hpp</text>
</a>
</g>
</g>
<!-- Node9&#45;&gt;Node17 -->
<g id="edge20" class="edge">
<title>Node9&#45;&gt;Node17</title>
<path fill="none" stroke="midnightblue" d="M1071.28,-88.7C1098.9,-84.89 1131.76,-80.74 1161.5,-78 1457.12,-50.74 1536.11,-93.42 1828.5,-42 1839.49,-40.07 1851.23,-36.89 1861.71,-33.63"/>
<polygon fill="midnightblue" stroke="midnightblue" points="1862.88,-36.93 1871.31,-30.52 1860.72,-30.27 1862.88,-36.93"/>
</g>
<!-- Node9&#45;&gt;Node18 -->
<g id="edge21" class="edge">
<title>Node9&#45;&gt;Node18</title>
<path fill="none" stroke="midnightblue" d="M948.07,-83.9C900.15,-72.67 831.5,-56.5 771.5,-42 759.51,-39.1 746.53,-35.92 734.56,-32.96"/>
<polygon fill="midnightblue" stroke="midnightblue" points="735.32,-29.55 724.77,-30.54 733.64,-36.34 735.32,-29.55"/>
</g>
<!-- Node9&#45;&gt;Node19 -->
<g id="edge22" class="edge">
<title>Node9&#45;&gt;Node19</title>
<path fill="none" stroke="midnightblue" d="M977.67,-83.88C947,-69.84 900.37,-48.49 870.67,-34.9"/>
<polygon fill="midnightblue" stroke="midnightblue" points="871.85,-31.59 861.3,-30.61 868.93,-37.95 871.85,-31.59"/>
</g>
<!-- Node9&#45;&gt;Node20 -->
<g id="edge24" class="edge">
<title>Node9&#45;&gt;Node20</title>
<path fill="none" stroke="midnightblue" d="M1008.5,-83.7C1008.5,-71.6 1008.5,-54.15 1008.5,-40.89"/>
<polygon fill="midnightblue" stroke="midnightblue" points="1012,-40.56 1008.5,-30.56 1005,-40.56 1012,-40.56"/>
</g>
<!-- Node9&#45;&gt;Node21 -->
<g id="edge25" class="edge">
<title>Node9&#45;&gt;Node21</title>
<path fill="none" stroke="midnightblue" d="M945.91,-89.59C917.17,-85.84 882.63,-81.49 851.5,-78 686.43,-59.5 642.86,-72.06 479.5,-42 467.51,-39.79 454.61,-36.56 443.05,-33.33"/>
<polygon fill="midnightblue" stroke="midnightblue" points="443.86,-29.92 433.29,-30.52 441.93,-36.65 443.86,-29.92"/>
</g>
<!-- Node22 -->
<g id="node22" class="node">
<title>Node22</title>
<g id="a_node22"><a xlink:title=" ">
<polygon fill="none" stroke="#bfbfbf" points="1409,-11.5 1409,-30.5 1558,-30.5 1558,-11.5 1409,-11.5"/>
<text text-anchor="middle" x="1483.5" y="-18.5" font-family="Helvetica,sans-Serif" font-size="10.00">impl/hdf5&#45;core&#45;general.hpp</text>
</a>
</g>
</g>
<!-- Node9&#45;&gt;Node22 -->
<g id="edge26" class="edge">
<title>Node9&#45;&gt;Node22</title>
<path fill="none" stroke="midnightblue" d="M1058.39,-83.96C1067.37,-81.74 1076.67,-79.64 1085.5,-78 1224.03,-52.22 1261.74,-66.55 1400.5,-42 1414.22,-39.57 1429.06,-36.23 1442.35,-32.97"/>
<polygon fill="midnightblue" stroke="midnightblue" points="1443.31,-36.34 1452.16,-30.51 1441.61,-29.55 1443.31,-36.34"/>
</g>
<!-- Node23&#45;&gt;Node3 -->
<g id="edge37" class="edge">
<title>Node23&#45;&gt;Node3</title>
<path fill="none" stroke="midnightblue" d="M1509.17,-170.46C1422.85,-169.02 1267.51,-160.68 1232.5,-120 1220.32,-105.85 1219.82,-91.7 1232.5,-78 1267.94,-39.73 1649.28,-51.84 1700.5,-42 1710.87,-40.01 1721.94,-36.91 1731.89,-33.75"/>
<polygon fill="midnightblue" stroke="midnightblue" points="1733.02,-37.06 1741.42,-30.6 1730.82,-30.42 1733.02,-37.06"/>
</g>
<!-- Node23&#45;&gt;Node8 -->
<g id="edge45" class="edge">
<title>Node23&#45;&gt;Node8</title>
<path fill="none" stroke="midnightblue" d="M1509.22,-166.78C1397.94,-159.45 1147.58,-141.97 937.5,-120 802.9,-105.92 462.3,-83.54 333.5,-42 328.55,-40.4 323.49,-38.15 318.76,-35.72"/>
<polygon fill="midnightblue" stroke="midnightblue" points="320.11,-32.47 309.67,-30.66 316.71,-38.58 320.11,-32.47"/>
</g>
<!-- Node23&#45;&gt;Node9 -->
<g id="edge38" class="edge">
<title>Node23&#45;&gt;Node9</title>
<path fill="none" stroke="midnightblue" d="M1509.26,-163.15C1406.62,-150.21 1193.79,-123.37 1081.51,-109.21"/>
<polygon fill="midnightblue" stroke="midnightblue" points="1081.65,-105.7 1071.29,-107.92 1080.78,-112.64 1081.65,-105.7"/>
</g>
<!-- Node23&#45;&gt;Node13 -->
<g id="edge43" class="edge">
<title>Node23&#45;&gt;Node13</title>
<path fill="none" stroke="midnightblue" d="M1625.65,-170.04C1773.5,-168.29 2154.94,-159.92 2194.5,-120 2215.04,-99.27 2211.25,-62.48 2206.48,-40.35"/>
<polygon fill="midnightblue" stroke="midnightblue" points="2209.86,-39.43 2204.09,-30.54 2203.06,-41.08 2209.86,-39.43"/>
</g>
<!-- Node23&#45;&gt;Node16 -->
<g id="edge46" class="edge">
<title>Node23&#45;&gt;Node16</title>
<path fill="none" stroke="midnightblue" d="M1625.65,-169.56C1725.57,-166.96 1924.73,-157.13 1982.5,-120 2009.4,-102.71 2026.13,-68.66 2034.89,-45.61"/>
<polygon fill="midnightblue" stroke="midnightblue" points="2038.19,-46.78 2038.26,-36.19 2031.6,-44.42 2038.19,-46.78"/>
</g>
<!-- Node23&#45;&gt;Node17 -->
<g id="edge47" class="edge">
<title>Node23&#45;&gt;Node17</title>
<path fill="none" stroke="midnightblue" d="M1625.52,-165.02C1667.65,-158.96 1724.7,-146.3 1768.5,-120 1790.08,-107.04 1787.26,-94.24 1806.5,-78 1826.18,-61.39 1851.15,-45.95 1869.46,-35.51"/>
<polygon fill="midnightblue" stroke="midnightblue" points="1871.35,-38.46 1878.37,-30.53 1867.93,-32.36 1871.35,-38.46"/>
</g>
<!-- Node24 -->
<g id="node24" class="node">
<title>Node24</title>
<g id="a_node24"><a xlink:title=" ">
<polygon fill="none" stroke="#bfbfbf" points="1815.5,-84 1815.5,-114 1973.5,-114 1973.5,-84 1815.5,-84"/>
<text text-anchor="start" x="1823.5" y="-102" font-family="Helvetica,sans-Serif" font-size="10.00">seerep&#45;msgs/boundingbox2d</text>
<text text-anchor="middle" x="1894.5" y="-91" font-family="Helvetica,sans-Serif" font-size="10.00">_labeled_with_category.pb.h</text>
</a>
</g>
</g>
<!-- Node23&#45;&gt;Node24 -->
<g id="edge39" class="edge">
<title>Node23&#45;&gt;Node24</title>
<path fill="none" stroke="midnightblue" d="M1625.58,-157.98C1679.63,-146.33 1760.46,-128.9 1819.39,-116.19"/>
<polygon fill="midnightblue" stroke="midnightblue" points="1820.35,-119.57 1829.38,-114.04 1818.87,-112.73 1820.35,-119.57"/>
</g>
<!-- Node25 -->
<g id="node25" class="node">
<title>Node25</title>
<g id="a_node25"><a xlink:title=" ">
<polygon fill="none" stroke="#bfbfbf" points="2030,-84 2030,-114 2185,-114 2185,-84 2030,-84"/>
<text text-anchor="start" x="2038" y="-102" font-family="Helvetica,sans-Serif" font-size="10.00">seerep&#45;msgs/boundingbox</text>
<text text-anchor="middle" x="2107.5" y="-91" font-family="Helvetica,sans-Serif" font-size="10.00">_labeled_with_category.pb.h</text>
</a>
</g>
</g>
<!-- Node23&#45;&gt;Node25 -->
<g id="edge40" class="edge">
<title>Node23&#45;&gt;Node25</title>
<path fill="none" stroke="midnightblue" d="M1625.75,-165.84C1711.48,-158.55 1876.48,-142.88 2015.5,-120 2022.6,-118.83 2029.97,-117.47 2037.32,-116.03"/>
<polygon fill="midnightblue" stroke="midnightblue" points="2038.19,-119.42 2047.29,-114.01 2036.8,-112.56 2038.19,-119.42"/>
</g>
<!-- Node26 -->
<g id="node26" class="node">
<title>Node26</title>
<g id="a_node26"><a xlink:title=" ">
<polygon fill="none" stroke="#bfbfbf" points="1241.5,-89.5 1241.5,-108.5 1381.5,-108.5 1381.5,-89.5 1241.5,-89.5"/>
<text text-anchor="middle" x="1311.5" y="-96.5" font-family="Helvetica,sans-Serif" font-size="10.00">seerep&#45;msgs/header.pb.h</text>
</a>
</g>
</g>
<!-- Node23&#45;&gt;Node26 -->
<g id="edge41" class="edge">
<title>Node23&#45;&gt;Node26</title>
<path fill="none" stroke="midnightblue" d="M1516.62,-156.49C1468.46,-143.22 1397.08,-123.57 1352.48,-111.28"/>
<polygon fill="midnightblue" stroke="midnightblue" points="1353.14,-107.84 1342.56,-108.55 1351.28,-114.58 1353.14,-107.84"/>
</g>
<!-- Node27 -->
<g id="node27" class="node">
<title>Node27</title>
<g id="a_node27"><a xlink:title=" ">
<polygon fill="none" stroke="#bfbfbf" points="1399.5,-78.5 1399.5,-119.5 1515.5,-119.5 1515.5,-78.5 1399.5,-78.5"/>
<text text-anchor="start" x="1407.5" y="-107.5" font-family="Helvetica,sans-Serif" font-size="10.00">seerep&#45;msgs/labels</text>
<text text-anchor="start" x="1407.5" y="-96.5" font-family="Helvetica,sans-Serif" font-size="10.00">_with_instance_with</text>
<text text-anchor="middle" x="1457.5" y="-85.5" font-family="Helvetica,sans-Serif" font-size="10.00">_category.pb.h</text>
</a>
</g>
</g>
<!-- Node23&#45;&gt;Node27 -->
<g id="edge42" class="edge">
<title>Node23&#45;&gt;Node27</title>
<path fill="none" stroke="midnightblue" d="M1545.5,-156.4C1531.64,-147.52 1513.35,-135.79 1497.03,-125.33"/>
<polygon fill="midnightblue" stroke="midnightblue" points="1498.51,-122.13 1488.21,-119.68 1494.74,-128.02 1498.51,-122.13"/>
</g>
<!-- Node28 -->
<g id="node28" class="node">
<title>Node28</title>
<g id="a_node28"><a xlink:title=" ">
<polygon fill="none" stroke="#bfbfbf" points="1533.5,-89.5 1533.5,-108.5 1601.5,-108.5 1601.5,-89.5 1533.5,-89.5"/>
<text text-anchor="middle" x="1567.5" y="-96.5" font-family="Helvetica,sans-Serif" font-size="10.00">filesystem</text>
</a>
</g>
</g>
<!-- Node23&#45;&gt;Node28 -->
<g id="edge44" class="edge">
<title>Node23&#45;&gt;Node28</title>
<path fill="none" stroke="midnightblue" d="M1567.5,-156.23C1567.5,-145.5 1567.5,-130.69 1567.5,-118.96"/>
<polygon fill="midnightblue" stroke="midnightblue" points="1571,-118.89 1567.5,-108.89 1564,-118.89 1571,-118.89"/>
</g>
<!-- Node29 -->
<g id="node29" class="node">
<title>Node29</title>
<g id="a_node29"><a xlink:title=" ">
<polygon fill="none" stroke="#bfbfbf" points="1619.5,-89.5 1619.5,-108.5 1759.5,-108.5 1759.5,-89.5 1619.5,-89.5"/>
<text text-anchor="middle" x="1689.5" y="-96.5" font-family="Helvetica,sans-Serif" font-size="10.00">impl/hdf5&#45;pb&#45;general.hpp</text>
</a>
</g>
</g>
<!-- Node23&#45;&gt;Node29 -->
<g id="edge48" class="edge">
<title>Node23&#45;&gt;Node29</title>
<path fill="none" stroke="midnightblue" d="M1591.9,-156.4C1613.46,-143.94 1644.71,-125.88 1666,-113.58"/>
<polygon fill="midnightblue" stroke="midnightblue" points="1667.83,-116.57 1674.73,-108.53 1664.32,-110.51 1667.83,-116.57"/>
</g>
</g>
</svg>
