<?xml version="1.0" encoding="UTF-8" standalone="no"?>
<!DOCTYPE svg PUBLIC "-//W3C//DTD SVG 1.1//EN"
 "http://www.w3.org/Graphics/SVG/1.1/DTD/svg11.dtd">
<!-- Generated by graphviz version 2.43.0 (0)
 -->
<!-- Title: seerep&#45;hdf5/seerep&#45;hdf5&#45;core/src/hdf5&#45;core&#45;tf.cpp Pages: 1 -->
<svg width="1124pt" height="251pt"
 viewBox="0.00 0.00 1124.00 251.00" xmlns="http://www.w3.org/2000/svg" xmlns:xlink="http://www.w3.org/1999/xlink">
<g id="graph0" class="graph" transform="scale(1 1) rotate(0) translate(4 247)">
<title>seerep&#45;hdf5/seerep&#45;hdf5&#45;core/src/hdf5&#45;core&#45;tf.cpp</title>
<!-- Node1 -->
<g id="node1" class="node">
<title>Node1</title>
<g id="a_node1"><a xlink:title=" ">
<polygon fill="#bfbfbf" stroke="black" points="572.5,-201.5 572.5,-242.5 683.5,-242.5 683.5,-201.5 572.5,-201.5"/>
<text text-anchor="start" x="580.5" y="-230.5" font-family="Helvetica,sans-Serif" font-size="10.00">seerep&#45;hdf5/seerep</text>
<text text-anchor="start" x="580.5" y="-219.5" font-family="Helvetica,sans-Serif" font-size="10.00">&#45;hdf5&#45;core/src/hdf5</text>
<text text-anchor="middle" x="628" y="-208.5" font-family="Helvetica,sans-Serif" font-size="10.00">&#45;core&#45;tf.cpp</text>
</a>
</g>
</g>
<!-- Node2 -->
<g id="node2" class="node">
<title>Node2</title>
<g id="a_node2"><a xlink:href="hdf5-core-tf_8h.html" target="_top" xlink:title=" ">
<polygon fill="none" stroke="black" points="492.5,-134.5 492.5,-164.5 617.5,-164.5 617.5,-134.5 492.5,-134.5"/>
<text text-anchor="start" x="500.5" y="-152.5" font-family="Helvetica,sans-Serif" font-size="10.00">seerep&#45;hdf5&#45;core/hdf5</text>
<text text-anchor="middle" x="555" y="-141.5" font-family="Helvetica,sans-Serif" font-size="10.00">&#45;core&#45;tf.h</text>
</a>
</g>
</g>
<!-- Node1&#45;&gt;Node2 -->
<g id="edge1" class="edge">
<title>Node1&#45;&gt;Node2</title>
<path fill="none" stroke="midnightblue" d="M607.67,-201.36C598.21,-192.23 586.94,-181.35 577.26,-172"/>
<polygon fill="midnightblue" stroke="midnightblue" points="579.53,-169.32 569.9,-164.89 574.66,-174.36 579.53,-169.32"/>
</g>
<!-- Node14 -->
<g id="node14" class="node">
<title>Node14</title>
<g id="a_node14"><a xlink:title=" ">
<polygon fill="none" stroke="#bfbfbf" points="636,-140 636,-159 768,-159 768,-140 636,-140"/>
<text text-anchor="middle" x="702" y="-147" font-family="Helvetica,sans-Serif" font-size="10.00">highfive/H5DataSet.hpp</text>
</a>
</g>
</g>
<!-- Node1&#45;&gt;Node14 -->
<g id="edge16" class="edge">
<title>Node1&#45;&gt;Node14</title>
<path fill="none" stroke="midnightblue" d="M648.61,-201.36C660.2,-190.32 674.47,-176.72 685.35,-166.37"/>
<polygon fill="midnightblue" stroke="midnightblue" points="688.07,-168.61 692.9,-159.17 683.24,-163.54 688.07,-168.61"/>
</g>
<!-- Node3 -->
<g id="node3" class="node">
<title>Node3</title>
<g id="a_node3"><a xlink:title=" ">
<polygon fill="none" stroke="#bfbfbf" points="0,-6 0,-25 110,-25 110,-6 0,-6"/>
<text text-anchor="middle" x="55" y="-13" font-family="Helvetica,sans-Serif" font-size="10.00">highfive/H5File.hpp</text>
</a>
</g>
</g>
<!-- Node2&#45;&gt;Node3 -->
<g id="edge2" class="edge">
<title>Node2&#45;&gt;Node3</title>
<path fill="none" stroke="midnightblue" d="M492.07,-135.27C447.49,-125.63 386.36,-111.88 333,-98 245.89,-75.35 144.71,-44.54 91.7,-28.04"/>
<polygon fill="midnightblue" stroke="midnightblue" points="92.66,-24.68 82.07,-25.04 90.58,-31.36 92.66,-24.68"/>
</g>
<!-- Node4 -->
<g id="node4" class="node">
<title>Node4</title>
<g id="a_node4"><a xlink:href="hdf5-core-general_8h.html" target="_top" xlink:title=" ">
<polygon fill="none" stroke="black" points="492.5,-67.5 492.5,-97.5 617.5,-97.5 617.5,-67.5 492.5,-67.5"/>
<text text-anchor="start" x="500.5" y="-85.5" font-family="Helvetica,sans-Serif" font-size="10.00">seerep&#45;hdf5&#45;core/hdf5</text>
<text text-anchor="middle" x="555" y="-74.5" font-family="Helvetica,sans-Serif" font-size="10.00">&#45;core&#45;general.h</text>
</a>
</g>
</g>
<!-- Node2&#45;&gt;Node4 -->
<g id="edge3" class="edge">
<title>Node2&#45;&gt;Node4</title>
<path fill="none" stroke="midnightblue" d="M555,-134.4C555,-126.64 555,-116.81 555,-107.86"/>
<polygon fill="midnightblue" stroke="midnightblue" points="558.5,-107.58 555,-97.58 551.5,-107.58 558.5,-107.58"/>
</g>
<!-- Node7 -->
<g id="node7" class="node">
<title>Node7</title>
<g id="a_node7"><a xlink:title=" ">
<polygon fill="none" stroke="#bfbfbf" points="128.5,-6 128.5,-25 241.5,-25 241.5,-6 128.5,-6"/>
<text text-anchor="middle" x="185" y="-13" font-family="Helvetica,sans-Serif" font-size="10.00">boost/geometry.hpp</text>
</a>
</g>
</g>
<!-- Node2&#45;&gt;Node7 -->
<g id="edge14" class="edge">
<title>Node2&#45;&gt;Node7</title>
<path fill="none" stroke="midnightblue" d="M515.75,-134.5C442.72,-108.44 287.15,-52.94 218.61,-28.49"/>
<polygon fill="midnightblue" stroke="midnightblue" points="219.75,-25.18 209.15,-25.12 217.4,-31.77 219.75,-25.18"/>
</g>
<!-- Node9 -->
<g id="node9" class="node">
<title>Node9</title>
<g id="a_node9"><a xlink:title=" ">
<polygon fill="none" stroke="#bfbfbf" points="1060,-6 1060,-25 1116,-25 1116,-6 1060,-6"/>
<text text-anchor="middle" x="1088" y="-13" font-family="Helvetica,sans-Serif" font-size="10.00">optional</text>
</a>
</g>
</g>
<!-- Node2&#45;&gt;Node9 -->
<g id="edge15" class="edge">
<title>Node2&#45;&gt;Node9</title>
<path fill="none" stroke="midnightblue" d="M576.08,-134.31C590.59,-124.4 610.2,-110.72 627,-98 644.38,-84.84 644.83,-75.26 665,-67 824.45,-1.71 883.37,-70.82 1051,-31 1053.83,-30.33 1056.74,-29.48 1059.61,-28.54"/>
<polygon fill="midnightblue" stroke="midnightblue" points="1060.93,-31.79 1069.12,-25.07 1058.53,-25.21 1060.93,-31.79"/>
</g>
<!-- Node13 -->
<g id="node13" class="node">
<title>Node13</title>
<g id="a_node13"><a xlink:title=" ">
<polygon fill="none" stroke="#bfbfbf" points="674,-73 674,-92 874,-92 874,-73 674,-73"/>
<text text-anchor="middle" x="774" y="-80" font-family="Helvetica,sans-Serif" font-size="10.00">geometry_msgs/TransformStamped.h</text>
</a>
</g>
</g>
<!-- Node2&#45;&gt;Node13 -->
<g id="edge13" class="edge">
<title>Node2&#45;&gt;Node13</title>
<path fill="none" stroke="midnightblue" d="M602.25,-134.48C642.02,-122.67 698.19,-106 735.33,-94.98"/>
<polygon fill="midnightblue" stroke="midnightblue" points="736.67,-98.23 745.26,-92.03 734.68,-91.52 736.67,-98.23"/>
</g>
<!-- Node4&#45;&gt;Node3 -->
<g id="edge4" class="edge">
<title>Node4&#45;&gt;Node3</title>
<path fill="none" stroke="midnightblue" d="M492.25,-76.37C407.26,-68.93 251.01,-53.53 119,-31 112.66,-29.92 106.01,-28.61 99.49,-27.22"/>
<polygon fill="midnightblue" stroke="midnightblue" points="99.93,-23.74 89.41,-25.01 98.42,-30.57 99.93,-23.74"/>
</g>
<!-- Node5 -->
<g id="node5" class="node">
<title>Node5</title>
<g id="a_node5"><a xlink:title=" ">
<polygon fill="none" stroke="#bfbfbf" points="722,-6 722,-25 838,-25 838,-6 722,-6"/>
<text text-anchor="middle" x="780" y="-13" font-family="Helvetica,sans-Serif" font-size="10.00">seerep&#45;msgs/aabb.h</text>
</a>
</g>
</g>
<!-- Node4&#45;&gt;Node5 -->
<g id="edge5" class="edge">
<title>Node4&#45;&gt;Node5</title>
<path fill="none" stroke="midnightblue" d="M603.54,-67.48C644.58,-55.62 702.61,-38.86 740.75,-27.84"/>
<polygon fill="midnightblue" stroke="midnightblue" points="741.84,-31.17 750.48,-25.03 739.9,-24.44 741.84,-31.17"/>
</g>
<!-- Node6 -->
<g id="node6" class="node">
<title>Node6</title>
<g id="a_node6"><a xlink:title=" ">
<polygon fill="none" stroke="#bfbfbf" points="856.5,-0.5 856.5,-30.5 975.5,-30.5 975.5,-0.5 856.5,-0.5"/>
<text text-anchor="start" x="864.5" y="-18.5" font-family="Helvetica,sans-Serif" font-size="10.00">seerep&#45;msgs/dataset</text>
<text text-anchor="middle" x="916" y="-7.5" font-family="Helvetica,sans-Serif" font-size="10.00">&#45;indexable.h</text>
</a>
</g>
</g>
<!-- Node4&#45;&gt;Node6 -->
<g id="edge6" class="edge">
<title>Node4&#45;&gt;Node6</title>
<path fill="none" stroke="midnightblue" d="M617.6,-69.6C622.47,-68.71 627.31,-67.83 632,-67 724.31,-50.58 750.15,-49.05 846.34,-31.08"/>
<polygon fill="midnightblue" stroke="midnightblue" points="847.01,-34.51 856.19,-29.23 845.72,-27.63 847.01,-34.51"/>
</g>
<!-- Node4&#45;&gt;Node7 -->
<g id="edge7" class="edge">
<title>Node4&#45;&gt;Node7</title>
<path fill="none" stroke="midnightblue" d="M492.32,-72.16C430.53,-62.71 333.51,-47.22 250,-31 244.11,-29.86 237.94,-28.58 231.84,-27.27"/>
<polygon fill="midnightblue" stroke="midnightblue" points="232.22,-23.78 221.71,-25.06 230.73,-30.61 232.22,-23.78"/>
</g>
<!-- Node8 -->
<g id="node8" class="node">
<title>Node8</title>
<g id="a_node8"><a xlink:title=" ">
<polygon fill="none" stroke="#bfbfbf" points="994,-6 994,-25 1042,-25 1042,-6 994,-6"/>
<text text-anchor="middle" x="1018" y="-13" font-family="Helvetica,sans-Serif" font-size="10.00">mutex</text>
</a>
</g>
</g>
<!-- Node4&#45;&gt;Node8 -->
<g id="edge8" class="edge">
<title>Node4&#45;&gt;Node8</title>
<path fill="none" stroke="midnightblue" d="M617.54,-69.27C622.43,-68.45 627.29,-67.68 632,-67 788.07,-44.39 832.51,-71.21 985,-31 987.3,-30.39 989.64,-29.65 991.96,-28.82"/>
<polygon fill="midnightblue" stroke="midnightblue" points="993.28,-32.06 1001.24,-25.07 990.65,-25.57 993.28,-32.06"/>
</g>
<!-- Node4&#45;&gt;Node9 -->
<g id="edge9" class="edge">
<title>Node4&#45;&gt;Node9</title>
<path fill="none" stroke="midnightblue" d="M617.53,-69.18C622.42,-68.38 627.28,-67.65 632,-67 817.18,-41.67 869,-73.54 1051,-31 1053.83,-30.34 1056.74,-29.5 1059.61,-28.56"/>
<polygon fill="midnightblue" stroke="midnightblue" points="1060.93,-31.81 1069.13,-25.1 1058.54,-25.23 1060.93,-31.81"/>
</g>
<!-- Node10 -->
<g id="node10" class="node">
<title>Node10</title>
<g id="a_node10"><a xlink:title=" ">
<polygon fill="none" stroke="#bfbfbf" points="259.5,-0.5 259.5,-30.5 404.5,-30.5 404.5,-0.5 259.5,-0.5"/>
<text text-anchor="start" x="267.5" y="-18.5" font-family="Helvetica,sans-Serif" font-size="10.00">boost/log/sources/severity</text>
<text text-anchor="middle" x="332" y="-7.5" font-family="Helvetica,sans-Serif" font-size="10.00">_logger.hpp</text>
</a>
</g>
</g>
<!-- Node4&#45;&gt;Node10 -->
<g id="edge10" class="edge">
<title>Node4&#45;&gt;Node10</title>
<path fill="none" stroke="midnightblue" d="M506.89,-67.48C472.71,-57.51 426.64,-44.09 390.37,-33.51"/>
<polygon fill="midnightblue" stroke="midnightblue" points="390.99,-30.05 380.41,-30.61 389.03,-36.77 390.99,-30.05"/>
</g>
<!-- Node11 -->
<g id="node11" class="node">
<title>Node11</title>
<g id="a_node11"><a xlink:title=" ">
<polygon fill="none" stroke="#bfbfbf" points="423,-6 423,-25 537,-25 537,-6 423,-6"/>
<text text-anchor="middle" x="480" y="-13" font-family="Helvetica,sans-Serif" font-size="10.00">boost/log/trivial.hpp</text>
</a>
</g>
</g>
<!-- Node4&#45;&gt;Node11 -->
<g id="edge11" class="edge">
<title>Node4&#45;&gt;Node11</title>
<path fill="none" stroke="midnightblue" d="M538.73,-67.4C526.68,-56.96 510.29,-42.75 497.88,-32"/>
<polygon fill="midnightblue" stroke="midnightblue" points="499.88,-29.1 490.03,-25.19 495.3,-34.39 499.88,-29.1"/>
</g>
<!-- Node12 -->
<g id="node12" class="node">
<title>Node12</title>
<g id="a_node12"><a xlink:title=" ">
<polygon fill="none" stroke="#bfbfbf" points="555.5,-6 555.5,-25 704.5,-25 704.5,-6 555.5,-6"/>
<text text-anchor="middle" x="630" y="-13" font-family="Helvetica,sans-Serif" font-size="10.00">impl/hdf5&#45;core&#45;general.hpp</text>
</a>
</g>
</g>
<!-- Node4&#45;&gt;Node12 -->
<g id="edge12" class="edge">
<title>Node4&#45;&gt;Node12</title>
<path fill="none" stroke="midnightblue" d="M571.27,-67.4C583.32,-56.96 599.71,-42.75 612.12,-32"/>
<polygon fill="midnightblue" stroke="midnightblue" points="614.7,-34.39 619.97,-25.19 610.12,-29.1 614.7,-34.39"/>
</g>
</g>
</svg>
