<?xml version="1.0" encoding="UTF-8" standalone="no"?>
<!DOCTYPE svg PUBLIC "-//W3C//DTD SVG 1.1//EN"
 "http://www.w3.org/Graphics/SVG/1.1/DTD/svg11.dtd">
<!-- Generated by graphviz version 2.43.0 (0)
 -->
<!-- Title: seerep_hdf5/seerep_hdf5_core/src/hdf5_core_image.cpp Pages: 1 -->
<svg width="2633pt" height="363pt"
 viewBox="0.00 0.00 2633.00 363.00" xmlns="http://www.w3.org/2000/svg" xmlns:xlink="http://www.w3.org/1999/xlink">
<g id="graph0" class="graph" transform="scale(1 1) rotate(0) translate(4 359)">
<title>seerep_hdf5/seerep_hdf5_core/src/hdf5_core_image.cpp</title>
<!-- Node1 -->
<g id="node1" class="node">
<title>Node1</title>
<g id="a_node1"><a xlink:title=" ">
<polygon fill="#bfbfbf" stroke="black" points="2065.5,-313.5 2065.5,-354.5 2178.5,-354.5 2178.5,-313.5 2065.5,-313.5"/>
<text text-anchor="start" x="2073.5" y="-342.5" font-family="Helvetica,sans-Serif" font-size="10.00">seerep_hdf5/seerep</text>
<text text-anchor="start" x="2073.5" y="-331.5" font-family="Helvetica,sans-Serif" font-size="10.00">_hdf5_core/src/hdf5</text>
<text text-anchor="middle" x="2122" y="-320.5" font-family="Helvetica,sans-Serif" font-size="10.00">_core_image.cpp</text>
</a>
</g>
</g>
<!-- Node2 -->
<g id="node2" class="node">
<title>Node2</title>
<g id="a_node2"><a xlink:href="hdf5__core__image_8h.html" target="_top" xlink:title=" ">
<polygon fill="none" stroke="black" points="1783,-246.5 1783,-276.5 1911,-276.5 1911,-246.5 1783,-246.5"/>
<text text-anchor="start" x="1791" y="-264.5" font-family="Helvetica,sans-Serif" font-size="10.00">seerep_hdf5_core/hdf5</text>
<text text-anchor="middle" x="1847" y="-253.5" font-family="Helvetica,sans-Serif" font-size="10.00">_core_image.h</text>
</a>
</g>
</g>
<!-- Node1&#45;&gt;Node2 -->
<g id="edge1" class="edge">
<title>Node1&#45;&gt;Node2</title>
<path fill="none" stroke="midnightblue" d="M2065.35,-318.48C2020.58,-307 1958.07,-290.98 1911.4,-279.01"/>
<polygon fill="midnightblue" stroke="midnightblue" points="1912.25,-275.62 1901.7,-276.52 1910.52,-282.4 1912.25,-275.62"/>
</g>
<!-- Node5 -->
<g id="node5" class="node">
<title>Node5</title>
<g id="a_node5"><a xlink:title=" ">
<polygon fill="none" stroke="#bfbfbf" points="1987,-129 1987,-148 2119,-148 2119,-129 1987,-129"/>
<text text-anchor="middle" x="2053" y="-136" font-family="Helvetica,sans-Serif" font-size="10.00">highfive/H5DataSet.hpp</text>
</a>
</g>
</g>
<!-- Node1&#45;&gt;Node5 -->
<g id="edge46" class="edge">
<title>Node1&#45;&gt;Node5</title>
<path fill="none" stroke="midnightblue" d="M2115,-313.38C2101.65,-275.94 2072.71,-194.77 2059.64,-158.12"/>
<polygon fill="midnightblue" stroke="midnightblue" points="2062.78,-156.52 2056.13,-148.27 2056.19,-158.87 2062.78,-156.52"/>
</g>
<!-- Node3 -->
<g id="node3" class="node">
<title>Node3</title>
<g id="a_node3"><a xlink:title=" ">
<polygon fill="none" stroke="#bfbfbf" points="0,-62 0,-81 110,-81 110,-62 0,-62"/>
<text text-anchor="middle" x="55" y="-69" font-family="Helvetica,sans-Serif" font-size="10.00">highfive/H5File.hpp</text>
</a>
</g>
</g>
<!-- Node2&#45;&gt;Node3 -->
<g id="edge2" class="edge">
<title>Node2&#45;&gt;Node3</title>
<path fill="none" stroke="midnightblue" d="M1782.67,-259.43C1578.72,-255.27 928.66,-236.01 398,-154 286.27,-136.73 157.2,-101.95 93.98,-83.92"/>
<polygon fill="midnightblue" stroke="midnightblue" points="94.63,-80.47 84.05,-81.07 92.7,-87.19 94.63,-80.47"/>
</g>
<!-- Node4 -->
<g id="node4" class="node">
<title>Node4</title>
<g id="a_node4"><a xlink:href="hdf5__core__cameraintrinsics_8h.html" target="_top" xlink:title=" ">
<polygon fill="none" stroke="black" points="1526,-190.5 1526,-209.5 1686,-209.5 1686,-190.5 1526,-190.5"/>
<text text-anchor="middle" x="1606" y="-197.5" font-family="Helvetica,sans-Serif" font-size="10.00">hdf5_core_cameraintrinsics.h</text>
</a>
</g>
</g>
<!-- Node2&#45;&gt;Node4 -->
<g id="edge3" class="edge">
<title>Node2&#45;&gt;Node4</title>
<path fill="none" stroke="midnightblue" d="M1790.19,-246.47C1747.43,-235.92 1689.66,-221.66 1650.29,-211.94"/>
<polygon fill="midnightblue" stroke="midnightblue" points="1651,-208.51 1640.45,-209.51 1649.32,-215.3 1651,-208.51"/>
</g>
<!-- Node6 -->
<g id="node6" class="node">
<title>Node6</title>
<g id="a_node6"><a xlink:href="hdf5__core__general_8h.html" target="_top" xlink:title=" ">
<polygon fill="none" stroke="black" points="1229,-123.5 1229,-153.5 1357,-153.5 1357,-123.5 1229,-123.5"/>
<text text-anchor="start" x="1237" y="-141.5" font-family="Helvetica,sans-Serif" font-size="10.00">seerep_hdf5_core/hdf5</text>
<text text-anchor="middle" x="1293" y="-130.5" font-family="Helvetica,sans-Serif" font-size="10.00">_core_general.h</text>
</a>
</g>
</g>
<!-- Node2&#45;&gt;Node6 -->
<g id="edge36" class="edge">
<title>Node2&#45;&gt;Node6</title>
<path fill="none" stroke="midnightblue" d="M1782.88,-253.64C1715.98,-245.79 1608.31,-231.22 1517,-210 1455.22,-195.64 1385.79,-172.69 1340.84,-156.9"/>
<polygon fill="midnightblue" stroke="midnightblue" points="1341.95,-153.58 1331.35,-153.55 1339.61,-160.18 1341.95,-153.58"/>
</g>
<!-- Node8 -->
<g id="node8" class="node">
<title>Node8</title>
<g id="a_node8"><a xlink:title=" ">
<polygon fill="none" stroke="#bfbfbf" points="2429.5,-56.5 2429.5,-86.5 2550.5,-86.5 2550.5,-56.5 2429.5,-56.5"/>
<text text-anchor="start" x="2437.5" y="-74.5" font-family="Helvetica,sans-Serif" font-size="10.00">seerep_msgs/dataset</text>
<text text-anchor="middle" x="2490" y="-63.5" font-family="Helvetica,sans-Serif" font-size="10.00">_indexable.h</text>
</a>
</g>
</g>
<!-- Node2&#45;&gt;Node8 -->
<g id="edge37" class="edge">
<title>Node2&#45;&gt;Node8</title>
<path fill="none" stroke="midnightblue" d="M1911.08,-254.78C1969.39,-248.24 2057.2,-235.04 2130,-210 2180.38,-192.67 2189.77,-180.5 2236,-154 2258.68,-141 2261.91,-133.15 2286,-123 2309.98,-112.89 2370.6,-98.37 2419.56,-87.49"/>
<polygon fill="midnightblue" stroke="midnightblue" points="2420.49,-90.86 2429.5,-85.29 2418.98,-84.03 2420.49,-90.86"/>
</g>
<!-- Node11 -->
<g id="node11" class="node">
<title>Node11</title>
<g id="a_node11"><a xlink:title=" ">
<polygon fill="none" stroke="#bfbfbf" points="1163,-62 1163,-81 1327,-81 1327,-62 1163,-62"/>
<text text-anchor="middle" x="1245" y="-69" font-family="Helvetica,sans-Serif" font-size="10.00">seerep_msgs/label_category.h</text>
</a>
</g>
</g>
<!-- Node2&#45;&gt;Node11 -->
<g id="edge38" class="edge">
<title>Node2&#45;&gt;Node11</title>
<path fill="none" stroke="midnightblue" d="M1831.02,-246.49C1791.87,-212.23 1693.67,-126.7 1685,-123 1541.58,-61.81 1490.61,-107.28 1336,-87 1326.13,-85.71 1315.67,-84.18 1305.51,-82.62"/>
<polygon fill="midnightblue" stroke="midnightblue" points="1305.89,-79.14 1295.47,-81.05 1304.81,-86.05 1305.89,-79.14"/>
</g>
<!-- Node12 -->
<g id="node12" class="node">
<title>Node12</title>
<g id="a_node12"><a xlink:title=" ">
<polygon fill="none" stroke="#bfbfbf" points="1345.5,-62 1345.5,-81 1458.5,-81 1458.5,-62 1345.5,-62"/>
<text text-anchor="middle" x="1402" y="-69" font-family="Helvetica,sans-Serif" font-size="10.00">boost/geometry.hpp</text>
</a>
</g>
</g>
<!-- Node2&#45;&gt;Node12 -->
<g id="edge39" class="edge">
<title>Node2&#45;&gt;Node12</title>
<path fill="none" stroke="midnightblue" d="M1836.74,-246.28C1813.34,-214.27 1755.89,-138.13 1728,-123 1625.08,-67.14 1582.24,-107.77 1467,-87 1460.73,-85.87 1454.14,-84.55 1447.67,-83.18"/>
<polygon fill="midnightblue" stroke="midnightblue" points="1448.17,-79.71 1437.65,-81.01 1446.68,-86.55 1448.17,-79.71"/>
</g>
<!-- Node14 -->
<g id="node14" class="node">
<title>Node14</title>
<g id="a_node14"><a xlink:title=" ">
<polygon fill="none" stroke="#bfbfbf" points="2569,-62 2569,-81 2625,-81 2625,-62 2569,-62"/>
<text text-anchor="middle" x="2597" y="-69" font-family="Helvetica,sans-Serif" font-size="10.00">optional</text>
</a>
</g>
</g>
<!-- Node2&#45;&gt;Node14 -->
<g id="edge40" class="edge">
<title>Node2&#45;&gt;Node14</title>
<path fill="none" stroke="midnightblue" d="M1911.09,-260C2000.66,-257.82 2167.62,-248.39 2304,-210 2410.49,-180.02 2526.48,-114.83 2574.37,-86.32"/>
<polygon fill="midnightblue" stroke="midnightblue" points="2576.25,-89.27 2583.02,-81.13 2572.65,-83.27 2576.25,-89.27"/>
</g>
<!-- Node18 -->
<g id="node18" class="node">
<title>Node18</title>
<g id="a_node18"><a xlink:title=" ">
<polygon fill="none" stroke="#bfbfbf" points="1476.5,-62 1476.5,-81 1619.5,-81 1619.5,-62 1476.5,-62"/>
<text text-anchor="middle" x="1548" y="-69" font-family="Helvetica,sans-Serif" font-size="10.00">boost/functional/hash.hpp</text>
</a>
</g>
</g>
<!-- Node2&#45;&gt;Node18 -->
<g id="edge41" class="edge">
<title>Node2&#45;&gt;Node18</title>
<path fill="none" stroke="midnightblue" d="M1842.81,-246.24C1833.76,-218.01 1809.56,-154.96 1766,-123 1752.88,-113.37 1663.54,-94.71 1603.38,-82.97"/>
<polygon fill="midnightblue" stroke="midnightblue" points="1603.74,-79.47 1593.26,-81 1602.41,-86.35 1603.74,-79.47"/>
</g>
<!-- Node19 -->
<g id="node19" class="node">
<title>Node19</title>
<g id="a_node19"><a xlink:title=" ">
<polygon fill="none" stroke="#bfbfbf" points="1637.5,-62 1637.5,-81 1762.5,-81 1762.5,-62 1637.5,-62"/>
<text text-anchor="middle" x="1700" y="-69" font-family="Helvetica,sans-Serif" font-size="10.00">boost/lexical_cast.hpp</text>
</a>
</g>
</g>
<!-- Node2&#45;&gt;Node19 -->
<g id="edge42" class="edge">
<title>Node2&#45;&gt;Node19</title>
<path fill="none" stroke="midnightblue" d="M1846.19,-246.26C1843.94,-219.16 1835.5,-159.58 1804,-123 1788.17,-104.62 1764.11,-92.34 1743.11,-84.49"/>
<polygon fill="midnightblue" stroke="midnightblue" points="1744.01,-81.1 1733.41,-81.09 1741.69,-87.7 1744.01,-81.1"/>
</g>
<!-- Node20 -->
<g id="node20" class="node">
<title>Node20</title>
<g id="a_node20"><a xlink:title=" ">
<polygon fill="none" stroke="#bfbfbf" points="2298.5,-62 2298.5,-81 2411.5,-81 2411.5,-62 2298.5,-62"/>
<text text-anchor="middle" x="2355" y="-69" font-family="Helvetica,sans-Serif" font-size="10.00">boost/uuid/uuid.hpp</text>
</a>
</g>
</g>
<!-- Node2&#45;&gt;Node20 -->
<g id="edge43" class="edge">
<title>Node2&#45;&gt;Node20</title>
<path fill="none" stroke="midnightblue" d="M1911.23,-253.1C1962.23,-245.88 2034.73,-232.61 2095,-210 2168.24,-182.52 2178.58,-159.05 2248,-123 2274.24,-109.37 2304.8,-95.1 2326.53,-85.22"/>
<polygon fill="midnightblue" stroke="midnightblue" points="2328.18,-88.32 2335.84,-81.01 2325.29,-81.94 2328.18,-88.32"/>
</g>
<!-- Node21 -->
<g id="node21" class="node">
<title>Node21</title>
<g id="a_node21"><a xlink:title=" ">
<polygon fill="none" stroke="#bfbfbf" points="1781,-62 1781,-81 1951,-81 1951,-62 1781,-62"/>
<text text-anchor="middle" x="1866" y="-69" font-family="Helvetica,sans-Serif" font-size="10.00">boost/uuid/uuid_generators.hpp</text>
</a>
</g>
</g>
<!-- Node2&#45;&gt;Node21 -->
<g id="edge44" class="edge">
<title>Node2&#45;&gt;Node21</title>
<path fill="none" stroke="midnightblue" d="M1848.43,-246.37C1851.81,-212.94 1860.29,-128.97 1864.1,-91.3"/>
<polygon fill="midnightblue" stroke="midnightblue" points="1867.6,-91.51 1865.12,-81.21 1860.63,-90.8 1867.6,-91.51"/>
</g>
<!-- Node22 -->
<g id="node22" class="node">
<title>Node22</title>
<g id="a_node22"><a xlink:title=" ">
<polygon fill="none" stroke="#bfbfbf" points="1969.5,-62 1969.5,-81 2096.5,-81 2096.5,-62 1969.5,-62"/>
<text text-anchor="middle" x="2033" y="-69" font-family="Helvetica,sans-Serif" font-size="10.00">boost/uuid/uuid_io.hpp</text>
</a>
</g>
</g>
<!-- Node2&#45;&gt;Node22 -->
<g id="edge45" class="edge">
<title>Node2&#45;&gt;Node22</title>
<path fill="none" stroke="midnightblue" d="M1911.26,-256.37C1978.05,-248.24 2079.46,-224.3 2128,-154 2135.83,-142.66 2135.1,-134.81 2128,-123 2116.81,-104.37 2096.17,-92.25 2076.98,-84.56"/>
<polygon fill="midnightblue" stroke="midnightblue" points="2078.02,-81.21 2067.43,-81.03 2075.6,-87.78 2078.02,-81.21"/>
</g>
<!-- Node30 -->
<g id="node30" class="node">
<title>Node30</title>
<g id="a_node30"><a xlink:href="hdf5__core__datatype__interface_8h.html" target="_top" xlink:title=" ">
<polygon fill="none" stroke="black" points="2294.5,-123.5 2294.5,-153.5 2407.5,-153.5 2407.5,-123.5 2294.5,-123.5"/>
<text text-anchor="start" x="2302.5" y="-141.5" font-family="Helvetica,sans-Serif" font-size="10.00">hdf5_core_datatype</text>
<text text-anchor="middle" x="2351" y="-130.5" font-family="Helvetica,sans-Serif" font-size="10.00">_interface.h</text>
</a>
</g>
</g>
<!-- Node2&#45;&gt;Node30 -->
<g id="edge32" class="edge">
<title>Node2&#45;&gt;Node30</title>
<path fill="none" stroke="midnightblue" d="M1911.09,-257.86C2014.43,-252.8 2212.69,-239.48 2276,-210 2299.45,-199.08 2320.36,-177.96 2334.11,-161.68"/>
<polygon fill="midnightblue" stroke="midnightblue" points="2337.02,-163.65 2340.62,-153.68 2331.59,-159.23 2337.02,-163.65"/>
</g>
<!-- Node4&#45;&gt;Node3 -->
<g id="edge5" class="edge">
<title>Node4&#45;&gt;Node3</title>
<path fill="none" stroke="midnightblue" d="M1525.74,-197.12C1301.91,-190.97 652.17,-167.03 119,-87 112.26,-85.99 105.18,-84.66 98.28,-83.21"/>
<polygon fill="midnightblue" stroke="midnightblue" points="98.89,-79.76 88.37,-81.04 97.39,-86.6 98.89,-79.76"/>
</g>
<!-- Node4&#45;&gt;Node5 -->
<g id="edge4" class="edge">
<title>Node4&#45;&gt;Node5</title>
<path fill="none" stroke="midnightblue" d="M1686.05,-190.97C1761.54,-183 1877.74,-169.74 1978,-154 1985.74,-152.79 1993.9,-151.36 2001.87,-149.88"/>
<polygon fill="midnightblue" stroke="midnightblue" points="2002.65,-153.3 2011.83,-148 2001.35,-146.42 2002.65,-153.3"/>
</g>
<!-- Node4&#45;&gt;Node6 -->
<g id="edge6" class="edge">
<title>Node4&#45;&gt;Node6</title>
<path fill="none" stroke="midnightblue" d="M1561.15,-190.48C1510.48,-180.84 1427.2,-165.01 1366.88,-153.54"/>
<polygon fill="midnightblue" stroke="midnightblue" points="1367.51,-150.1 1357.03,-151.67 1366.2,-156.98 1367.51,-150.1"/>
</g>
<!-- Node24 -->
<g id="node24" class="node">
<title>Node24</title>
<g id="a_node24"><a xlink:href="header_8h.html" target="_top" xlink:title=" ">
<polygon fill="none" stroke="black" points="1909.5,-129 1909.5,-148 1968.5,-148 1968.5,-129 1909.5,-129"/>
<text text-anchor="middle" x="1939" y="-136" font-family="Helvetica,sans-Serif" font-size="10.00">header.h</text>
</a>
</g>
</g>
<!-- Node4&#45;&gt;Node24 -->
<g id="edge25" class="edge">
<title>Node4&#45;&gt;Node24</title>
<path fill="none" stroke="midnightblue" d="M1653.71,-190.48C1719.67,-178.69 1837.53,-157.63 1899.09,-146.63"/>
<polygon fill="midnightblue" stroke="midnightblue" points="1899.95,-150.03 1909.18,-144.83 1898.72,-143.14 1899.95,-150.03"/>
</g>
<!-- Node28 -->
<g id="node28" class="node">
<title>Node28</title>
<g id="a_node28"><a xlink:href="region__of__interest_8h.html" target="_top" xlink:title=" ">
<polygon fill="none" stroke="black" points="1423,-129 1423,-148 1537,-148 1537,-129 1423,-129"/>
<text text-anchor="middle" x="1480" y="-136" font-family="Helvetica,sans-Serif" font-size="10.00">region_of_interest.h</text>
</a>
</g>
</g>
<!-- Node4&#45;&gt;Node28 -->
<g id="edge30" class="edge">
<title>Node4&#45;&gt;Node28</title>
<path fill="none" stroke="midnightblue" d="M1587.95,-190.48C1566.8,-180.49 1531.56,-163.85 1507.12,-152.31"/>
<polygon fill="midnightblue" stroke="midnightblue" points="1508.56,-149.11 1498.02,-148.01 1505.57,-155.44 1508.56,-149.11"/>
</g>
<!-- Node29 -->
<g id="node29" class="node">
<title>Node29</title>
<g id="a_node29"><a xlink:title=" ">
<polygon fill="none" stroke="#bfbfbf" points="1555.5,-123.5 1555.5,-153.5 1676.5,-153.5 1676.5,-123.5 1555.5,-123.5"/>
<text text-anchor="start" x="1563.5" y="-141.5" font-family="Helvetica,sans-Serif" font-size="10.00">seerep_msgs/camera</text>
<text text-anchor="middle" x="1616" y="-130.5" font-family="Helvetica,sans-Serif" font-size="10.00">_intrinsics.h</text>
</a>
</g>
</g>
<!-- Node4&#45;&gt;Node29 -->
<g id="edge31" class="edge">
<title>Node4&#45;&gt;Node29</title>
<path fill="none" stroke="midnightblue" d="M1607.43,-190.48C1608.62,-183.4 1610.37,-172.97 1611.98,-163.39"/>
<polygon fill="midnightblue" stroke="midnightblue" points="1615.44,-163.96 1613.64,-153.52 1608.53,-162.8 1615.44,-163.96"/>
</g>
<!-- Node6&#45;&gt;Node3 -->
<g id="edge7" class="edge">
<title>Node6&#45;&gt;Node3</title>
<path fill="none" stroke="midnightblue" d="M1228.63,-134.77C984.07,-124.39 125.94,-87.93 119,-87 112.02,-86.07 104.68,-84.74 97.56,-83.26"/>
<polygon fill="midnightblue" stroke="midnightblue" points="97.87,-79.75 87.35,-81.02 96.37,-86.58 97.87,-79.75"/>
</g>
<!-- Node7 -->
<g id="node7" class="node">
<title>Node7</title>
<g id="a_node7"><a xlink:title=" ">
<polygon fill="none" stroke="#bfbfbf" points="747.5,-62 747.5,-81 864.5,-81 864.5,-62 747.5,-62"/>
<text text-anchor="middle" x="806" y="-69" font-family="Helvetica,sans-Serif" font-size="10.00">seerep_msgs/aabb.h</text>
</a>
</g>
</g>
<!-- Node6&#45;&gt;Node7 -->
<g id="edge8" class="edge">
<title>Node6&#45;&gt;Node7</title>
<path fill="none" stroke="midnightblue" d="M1228.86,-131.58C1146.43,-123.56 999.03,-107.82 874,-87 867.2,-85.87 860.05,-84.52 853.04,-83.11"/>
<polygon fill="midnightblue" stroke="midnightblue" points="853.44,-79.61 842.94,-81.01 852.02,-86.47 853.44,-79.61"/>
</g>
<!-- Node6&#45;&gt;Node8 -->
<g id="edge9" class="edge">
<title>Node6&#45;&gt;Node8</title>
<path fill="none" stroke="midnightblue" d="M1357.27,-128.79C1375.57,-126.58 1395.54,-124.43 1414,-123 1857.12,-88.59 1974.68,-140.45 2418.92,-87.12"/>
<polygon fill="midnightblue" stroke="midnightblue" points="2419.64,-90.56 2429.14,-85.88 2418.79,-83.61 2419.64,-90.56"/>
</g>
<!-- Node9 -->
<g id="node9" class="node">
<title>Node9</title>
<g id="a_node9"><a xlink:title=" ">
<polygon fill="none" stroke="#bfbfbf" points="883,-56.5 883,-86.5 1009,-86.5 1009,-56.5 883,-56.5"/>
<text text-anchor="start" x="891" y="-74.5" font-family="Helvetica,sans-Serif" font-size="10.00">seerep_msgs/geodetic</text>
<text text-anchor="middle" x="946" y="-63.5" font-family="Helvetica,sans-Serif" font-size="10.00">_coordinates.h</text>
</a>
</g>
</g>
<!-- Node6&#45;&gt;Node9 -->
<g id="edge10" class="edge">
<title>Node6&#45;&gt;Node9</title>
<path fill="none" stroke="midnightblue" d="M1228.76,-126.02C1175.28,-116.4 1096.85,-102.11 1019.17,-87.21"/>
<polygon fill="midnightblue" stroke="midnightblue" points="1019.69,-83.74 1009.2,-85.29 1018.36,-90.62 1019.69,-83.74"/>
</g>
<!-- Node10 -->
<g id="node10" class="node">
<title>Node10</title>
<g id="a_node10"><a xlink:title=" ">
<polygon fill="none" stroke="#bfbfbf" points="1027.5,-62 1027.5,-81 1144.5,-81 1144.5,-62 1027.5,-62"/>
<text text-anchor="middle" x="1086" y="-69" font-family="Helvetica,sans-Serif" font-size="10.00">seerep_msgs/label.h</text>
</a>
</g>
</g>
<!-- Node6&#45;&gt;Node10 -->
<g id="edge11" class="edge">
<title>Node6&#45;&gt;Node10</title>
<path fill="none" stroke="midnightblue" d="M1248.34,-123.48C1210.91,-111.72 1158.11,-95.14 1123.01,-84.12"/>
<polygon fill="midnightblue" stroke="midnightblue" points="1123.75,-80.69 1113.16,-81.03 1121.65,-87.36 1123.75,-80.69"/>
</g>
<!-- Node6&#45;&gt;Node11 -->
<g id="edge12" class="edge">
<title>Node6&#45;&gt;Node11</title>
<path fill="none" stroke="midnightblue" d="M1282.58,-123.4C1275.17,-113.36 1265.19,-99.84 1257.37,-89.25"/>
<polygon fill="midnightblue" stroke="midnightblue" points="1260.18,-87.16 1251.42,-81.19 1254.55,-91.32 1260.18,-87.16"/>
</g>
<!-- Node6&#45;&gt;Node12 -->
<g id="edge13" class="edge">
<title>Node6&#45;&gt;Node12</title>
<path fill="none" stroke="midnightblue" d="M1316.65,-123.4C1335.18,-112.34 1360.81,-97.06 1379.14,-86.13"/>
<polygon fill="midnightblue" stroke="midnightblue" points="1380.94,-89.13 1387.73,-81.01 1377.35,-83.12 1380.94,-89.13"/>
</g>
<!-- Node13 -->
<g id="node13" class="node">
<title>Node13</title>
<g id="a_node13"><a xlink:title=" ">
<polygon fill="none" stroke="#bfbfbf" points="128,-62 128,-81 176,-81 176,-62 128,-62"/>
<text text-anchor="middle" x="152" y="-69" font-family="Helvetica,sans-Serif" font-size="10.00">mutex</text>
</a>
</g>
</g>
<!-- Node6&#45;&gt;Node13 -->
<g id="edge14" class="edge">
<title>Node6&#45;&gt;Node13</title>
<path fill="none" stroke="midnightblue" d="M1228.66,-134.72C994.09,-124.59 197.79,-89.99 185,-87 182.64,-86.45 180.23,-85.73 177.85,-84.91"/>
<polygon fill="midnightblue" stroke="midnightblue" points="178.96,-81.58 168.38,-81.11 176.36,-88.08 178.96,-81.58"/>
</g>
<!-- Node6&#45;&gt;Node14 -->
<g id="edge15" class="edge">
<title>Node6&#45;&gt;Node14</title>
<path fill="none" stroke="midnightblue" d="M1357.26,-128.73C1375.56,-126.53 1395.54,-124.39 1414,-123 1668.07,-103.82 2310.41,-138.23 2560,-87 2563.08,-86.37 2566.23,-85.5 2569.33,-84.51"/>
<polygon fill="midnightblue" stroke="midnightblue" points="2570.74,-87.72 2578.93,-81 2568.34,-81.14 2570.74,-87.72"/>
</g>
<!-- Node15 -->
<g id="node15" class="node">
<title>Node15</title>
<g id="a_node15"><a xlink:title=" ">
<polygon fill="none" stroke="#bfbfbf" points="194.5,-62 194.5,-81 263.5,-81 263.5,-62 194.5,-62"/>
<text text-anchor="middle" x="229" y="-69" font-family="Helvetica,sans-Serif" font-size="10.00">type_traits</text>
</a>
</g>
</g>
<!-- Node6&#45;&gt;Node15 -->
<g id="edge16" class="edge">
<title>Node6&#45;&gt;Node15</title>
<path fill="none" stroke="midnightblue" d="M1228.71,-134.81C1011.97,-125.67 319.03,-95.91 272,-87 268.11,-86.26 264.08,-85.25 260.13,-84.11"/>
<polygon fill="midnightblue" stroke="midnightblue" points="261.15,-80.76 250.56,-81.07 259.03,-87.43 261.15,-80.76"/>
</g>
<!-- Node16 -->
<g id="node16" class="node">
<title>Node16</title>
<g id="a_node16"><a xlink:title=" ">
<polygon fill="none" stroke="#bfbfbf" points="281.5,-56.5 281.5,-86.5 426.5,-86.5 426.5,-56.5 281.5,-56.5"/>
<text text-anchor="start" x="289.5" y="-74.5" font-family="Helvetica,sans-Serif" font-size="10.00">boost/log/sources/severity</text>
<text text-anchor="middle" x="354" y="-63.5" font-family="Helvetica,sans-Serif" font-size="10.00">_logger.hpp</text>
</a>
</g>
</g>
<!-- Node6&#45;&gt;Node16 -->
<g id="edge17" class="edge">
<title>Node6&#45;&gt;Node16</title>
<path fill="none" stroke="midnightblue" d="M1228.91,-134.69C1060.67,-127.17 608.18,-105.92 436.95,-86.98"/>
<polygon fill="midnightblue" stroke="midnightblue" points="437.15,-83.48 426.81,-85.83 436.35,-90.44 437.15,-83.48"/>
</g>
<!-- Node17 -->
<g id="node17" class="node">
<title>Node17</title>
<g id="a_node17"><a xlink:title=" ">
<polygon fill="none" stroke="#bfbfbf" points="445,-62 445,-81 559,-81 559,-62 445,-62"/>
<text text-anchor="middle" x="502" y="-69" font-family="Helvetica,sans-Serif" font-size="10.00">boost/log/trivial.hpp</text>
</a>
</g>
</g>
<!-- Node6&#45;&gt;Node17 -->
<g id="edge18" class="edge">
<title>Node6&#45;&gt;Node17</title>
<path fill="none" stroke="midnightblue" d="M1228.94,-134.25C1076.37,-126.31 694.76,-105.24 568,-87 561.06,-86 553.76,-84.68 546.64,-83.24"/>
<polygon fill="midnightblue" stroke="midnightblue" points="546.93,-79.72 536.42,-81.06 545.48,-86.57 546.93,-79.72"/>
</g>
<!-- Node6&#45;&gt;Node18 -->
<g id="edge19" class="edge">
<title>Node6&#45;&gt;Node18</title>
<path fill="none" stroke="midnightblue" d="M1348.02,-123.48C1394.92,-111.52 1461.41,-94.57 1504.62,-83.56"/>
<polygon fill="midnightblue" stroke="midnightblue" points="1505.72,-86.89 1514.54,-81.03 1503.99,-80.11 1505.72,-86.89"/>
</g>
<!-- Node6&#45;&gt;Node19 -->
<g id="edge20" class="edge">
<title>Node6&#45;&gt;Node19</title>
<path fill="none" stroke="midnightblue" d="M1357.06,-128.8C1424.6,-119.4 1534.01,-103.54 1628,-87 1634.83,-85.8 1642.02,-84.45 1649.09,-83.08"/>
<polygon fill="midnightblue" stroke="midnightblue" points="1650.19,-86.43 1659.32,-81.05 1648.83,-79.56 1650.19,-86.43"/>
</g>
<!-- Node6&#45;&gt;Node20 -->
<g id="edge21" class="edge">
<title>Node6&#45;&gt;Node20</title>
<path fill="none" stroke="midnightblue" d="M1357.27,-128.85C1375.57,-126.65 1395.55,-124.48 1414,-123 1802.41,-91.79 1903.64,-137.62 2290,-87 2297.25,-86.05 2304.89,-84.68 2312.27,-83.17"/>
<polygon fill="midnightblue" stroke="midnightblue" points="2313.11,-86.57 2322.14,-81.03 2311.62,-79.73 2313.11,-86.57"/>
</g>
<!-- Node6&#45;&gt;Node21 -->
<g id="edge22" class="edge">
<title>Node6&#45;&gt;Node21</title>
<path fill="none" stroke="midnightblue" d="M1357.03,-129.6C1375.41,-127.39 1395.49,-125.04 1414,-123 1572.95,-105.49 1613.37,-107.2 1772,-87 1782.3,-85.69 1793.22,-84.15 1803.82,-82.57"/>
<polygon fill="midnightblue" stroke="midnightblue" points="1804.5,-86 1813.86,-81.04 1803.45,-79.08 1804.5,-86"/>
</g>
<!-- Node6&#45;&gt;Node22 -->
<g id="edge23" class="edge">
<title>Node6&#45;&gt;Node22</title>
<path fill="none" stroke="midnightblue" d="M1357.3,-129.15C1375.6,-126.95 1395.57,-124.71 1414,-123 1656.15,-100.52 1718.89,-118.76 1960,-87 1968.11,-85.93 1976.66,-84.51 1984.96,-82.97"/>
<polygon fill="midnightblue" stroke="midnightblue" points="1985.74,-86.38 1994.89,-81.04 1984.41,-79.51 1985.74,-86.38"/>
</g>
<!-- Node23 -->
<g id="node23" class="node">
<title>Node23</title>
<g id="a_node23"><a xlink:title=" ">
<polygon fill="none" stroke="#bfbfbf" points="577,-62 577,-81 729,-81 729,-62 577,-62"/>
<text text-anchor="middle" x="653" y="-69" font-family="Helvetica,sans-Serif" font-size="10.00">impl/hdf5_core_general.hpp</text>
</a>
</g>
</g>
<!-- Node6&#45;&gt;Node23 -->
<g id="edge24" class="edge">
<title>Node6&#45;&gt;Node23</title>
<path fill="none" stroke="midnightblue" d="M1228.73,-133.29C1125.15,-126.14 915.01,-110.11 738,-87 728.64,-85.78 718.72,-84.28 709.11,-82.71"/>
<polygon fill="midnightblue" stroke="midnightblue" points="709.66,-79.25 699.22,-81.06 708.51,-86.16 709.66,-79.25"/>
</g>
<!-- Node24&#45;&gt;Node20 -->
<g id="edge26" class="edge">
<title>Node24&#45;&gt;Node20</title>
<path fill="none" stroke="midnightblue" d="M1959.36,-128.88C1965.28,-126.66 1971.82,-124.48 1978,-123 2113.74,-90.44 2152.36,-110.23 2290,-87 2296.43,-85.91 2303.19,-84.6 2309.81,-83.22"/>
<polygon fill="midnightblue" stroke="midnightblue" points="2311.02,-86.54 2320.05,-81 2309.53,-79.7 2311.02,-86.54"/>
</g>
<!-- Node25 -->
<g id="node25" class="node">
<title>Node25</title>
<g id="a_node25"><a xlink:href="datatype_8h.html" target="_top" xlink:title=" ">
<polygon fill="none" stroke="black" points="2211.5,-62 2211.5,-81 2280.5,-81 2280.5,-62 2211.5,-62"/>
<text text-anchor="middle" x="2246" y="-69" font-family="Helvetica,sans-Serif" font-size="10.00">datatype.h</text>
</a>
</g>
</g>
<!-- Node24&#45;&gt;Node25 -->
<g id="edge27" class="edge">
<title>Node24&#45;&gt;Node25</title>
<path fill="none" stroke="midnightblue" d="M1959.81,-128.9C1965.62,-126.74 1971.99,-124.58 1978,-123 2075.94,-97.23 2104.68,-111.26 2203,-87 2206.39,-86.16 2209.9,-85.18 2213.38,-84.13"/>
<polygon fill="midnightblue" stroke="midnightblue" points="2214.55,-87.43 2223,-81.04 2212.41,-80.76 2214.55,-87.43"/>
</g>
<!-- Node26 -->
<g id="node26" class="node">
<title>Node26</title>
<g id="a_node26"><a xlink:href="timestamp_8h.html" target="_top" xlink:title=" ">
<polygon fill="none" stroke="black" points="2114.5,-62 2114.5,-81 2193.5,-81 2193.5,-62 2114.5,-62"/>
<text text-anchor="middle" x="2154" y="-69" font-family="Helvetica,sans-Serif" font-size="10.00">timestamp.h</text>
</a>
</g>
</g>
<!-- Node24&#45;&gt;Node26 -->
<g id="edge28" class="edge">
<title>Node24&#45;&gt;Node26</title>
<path fill="none" stroke="midnightblue" d="M1961.16,-128.9C1966.64,-126.88 1972.51,-124.79 1978,-123 2034.19,-104.69 2049.27,-103.55 2106,-87 2109.36,-86.02 2112.85,-84.99 2116.35,-83.95"/>
<polygon fill="midnightblue" stroke="midnightblue" points="2117.53,-87.25 2126.11,-81.02 2115.52,-80.54 2117.53,-87.25"/>
</g>
<!-- Node27 -->
<g id="node27" class="node">
<title>Node27</title>
<g id="a_node27"><a xlink:title=" ">
<polygon fill="none" stroke="#bfbfbf" points="2121.5,-0.5 2121.5,-19.5 2186.5,-19.5 2186.5,-0.5 2121.5,-0.5"/>
<text text-anchor="middle" x="2154" y="-7.5" font-family="Helvetica,sans-Serif" font-size="10.00">functional</text>
</a>
</g>
</g>
<!-- Node26&#45;&gt;Node27 -->
<g id="edge29" class="edge">
<title>Node26&#45;&gt;Node27</title>
<path fill="none" stroke="midnightblue" d="M2154,-61.98C2154,-53.58 2154,-40.48 2154,-29.66"/>
<polygon fill="midnightblue" stroke="midnightblue" points="2157.5,-29.51 2154,-19.51 2150.5,-29.51 2157.5,-29.51"/>
</g>
<!-- Node30&#45;&gt;Node8 -->
<g id="edge33" class="edge">
<title>Node30&#45;&gt;Node8</title>
<path fill="none" stroke="midnightblue" d="M2381.16,-123.4C2401.56,-113.86 2428.7,-101.16 2450.78,-90.84"/>
<polygon fill="midnightblue" stroke="midnightblue" points="2452.32,-93.98 2459.9,-86.58 2449.36,-87.64 2452.32,-93.98"/>
</g>
<!-- Node30&#45;&gt;Node14 -->
<g id="edge35" class="edge">
<title>Node30&#45;&gt;Node14</title>
<path fill="none" stroke="midnightblue" d="M2407.9,-125.95C2450.25,-116.82 2509.27,-102.99 2560,-87 2562.28,-86.28 2564.61,-85.49 2566.95,-84.67"/>
<polygon fill="midnightblue" stroke="midnightblue" points="2568.29,-87.91 2576.43,-81.13 2565.84,-81.35 2568.29,-87.91"/>
</g>
<!-- Node30&#45;&gt;Node20 -->
<g id="edge34" class="edge">
<title>Node30&#45;&gt;Node20</title>
<path fill="none" stroke="midnightblue" d="M2351.87,-123.4C2352.45,-113.96 2353.22,-101.45 2353.85,-91.19"/>
<polygon fill="midnightblue" stroke="midnightblue" points="2357.34,-91.39 2354.46,-81.19 2350.36,-90.96 2357.34,-91.39"/>
</g>
</g>
</svg>
