<?xml version="1.0" encoding="UTF-8" standalone="no"?>
<!DOCTYPE svg PUBLIC "-//W3C//DTD SVG 1.1//EN"
 "http://www.w3.org/Graphics/SVG/1.1/DTD/svg11.dtd">
<!-- Generated by graphviz version 2.43.0 (0)
 -->
<!-- Title: seerep&#45;hdf5/seerep&#45;hdf5&#45;ros/include/seerep&#45;hdf5&#45;ros/hdf5&#45;ros.h Pages: 1 -->
<svg width="2255pt" height="195pt"
 viewBox="0.00 0.00 2254.50 195.00" xmlns="http://www.w3.org/2000/svg" xmlns:xlink="http://www.w3.org/1999/xlink">
<g id="graph0" class="graph" transform="scale(1 1) rotate(0) translate(4 191)">
<title>seerep&#45;hdf5/seerep&#45;hdf5&#45;ros/include/seerep&#45;hdf5&#45;ros/hdf5&#45;ros.h</title>
<!-- Node1 -->
<g id="node1" class="node">
<title>Node1</title>
<g id="a_node1"><a xlink:title=" ">
<polygon fill="#bfbfbf" stroke="black" points="614.5,-145.5 614.5,-186.5 749.5,-186.5 749.5,-145.5 614.5,-145.5"/>
<text text-anchor="start" x="622.5" y="-174.5" font-family="Helvetica,sans-Serif" font-size="10.00">seerep&#45;hdf5/seerep</text>
<text text-anchor="start" x="622.5" y="-163.5" font-family="Helvetica,sans-Serif" font-size="10.00">&#45;hdf5&#45;ros/include/seerep</text>
<text text-anchor="middle" x="682" y="-152.5" font-family="Helvetica,sans-Serif" font-size="10.00">&#45;hdf5&#45;ros/hdf5&#45;ros.h</text>
</a>
</g>
</g>
<!-- Node2 -->
<g id="node2" class="node">
<title>Node2</title>
<g id="a_node2"><a xlink:title=" ">
<polygon fill="none" stroke="#bfbfbf" points="0,-11.5 0,-30.5 48,-30.5 48,-11.5 0,-11.5"/>
<text text-anchor="middle" x="24" y="-18.5" font-family="Helvetica,sans-Serif" font-size="10.00">mutex</text>
</a>
</g>
</g>
<!-- Node1&#45;&gt;Node2 -->
<g id="edge1" class="edge">
<title>Node1&#45;&gt;Node2</title>
<path fill="none" stroke="midnightblue" d="M614.08,-160.88C496.31,-151.76 248.48,-123.71 57,-42 52.98,-40.28 48.86,-38.14 44.96,-35.91"/>
<polygon fill="midnightblue" stroke="midnightblue" points="46.76,-32.9 36.4,-30.67 43.1,-38.87 46.76,-32.9"/>
</g>
<!-- Node3 -->
<g id="node3" class="node">
<title>Node3</title>
<g id="a_node3"><a xlink:title=" ">
<polygon fill="none" stroke="#bfbfbf" points="874,-84 874,-103 918,-103 918,-84 874,-84"/>
<text text-anchor="middle" x="896" y="-91" font-family="Helvetica,sans-Serif" font-size="10.00">string</text>
</a>
</g>
</g>
<!-- Node1&#45;&gt;Node3 -->
<g id="edge2" class="edge">
<title>Node1&#45;&gt;Node3</title>
<path fill="none" stroke="midnightblue" d="M749.69,-146.75C784.54,-136.73 827.48,-123.43 865,-109 866.42,-108.45 867.87,-107.87 869.32,-107.27"/>
<polygon fill="midnightblue" stroke="midnightblue" points="871.08,-110.31 878.81,-103.07 868.25,-103.91 871.08,-110.31"/>
</g>
<!-- Node4 -->
<g id="node4" class="node">
<title>Node4</title>
<g id="a_node4"><a xlink:title=" ">
<polygon fill="none" stroke="#bfbfbf" points="936.5,-84 936.5,-103 1051.5,-103 1051.5,-84 936.5,-84"/>
<text text-anchor="middle" x="994" y="-91" font-family="Helvetica,sans-Serif" font-size="10.00">highfive/H5Easy.hpp</text>
</a>
</g>
</g>
<!-- Node1&#45;&gt;Node4 -->
<g id="edge3" class="edge">
<title>Node1&#45;&gt;Node4</title>
<path fill="none" stroke="midnightblue" d="M749.7,-149.7C809.01,-136.3 893.71,-117.16 946.2,-105.3"/>
<polygon fill="midnightblue" stroke="midnightblue" points="947.27,-108.65 956.26,-103.03 945.73,-101.82 947.27,-108.65"/>
</g>
<!-- Node5 -->
<g id="node5" class="node">
<title>Node5</title>
<g id="a_node5"><a xlink:title=" ">
<polygon fill="none" stroke="#bfbfbf" points="66,-11.5 66,-30.5 176,-30.5 176,-11.5 66,-11.5"/>
<text text-anchor="middle" x="121" y="-18.5" font-family="Helvetica,sans-Serif" font-size="10.00">highfive/H5File.hpp</text>
</a>
</g>
</g>
<!-- Node1&#45;&gt;Node5 -->
<g id="edge4" class="edge">
<title>Node1&#45;&gt;Node5</title>
<path fill="none" stroke="midnightblue" d="M614.39,-151.09C563.09,-140.3 490.9,-124.59 428,-109 319.26,-82.04 292.48,-73.6 185,-42 176.07,-39.38 166.48,-36.44 157.51,-33.64"/>
<polygon fill="midnightblue" stroke="midnightblue" points="158.31,-30.23 147.72,-30.57 156.21,-36.9 158.31,-30.23"/>
</g>
<!-- Node6 -->
<g id="node6" class="node">
<title>Node6</title>
<g id="a_node6"><a xlink:title=" ">
<polygon fill="none" stroke="#bfbfbf" points="194.5,-11.5 194.5,-30.5 319.5,-30.5 319.5,-11.5 194.5,-11.5"/>
<text text-anchor="middle" x="257" y="-18.5" font-family="Helvetica,sans-Serif" font-size="10.00">boost/lexical_cast.hpp</text>
</a>
</g>
</g>
<!-- Node1&#45;&gt;Node6 -->
<g id="edge5" class="edge">
<title>Node1&#45;&gt;Node6</title>
<path fill="none" stroke="midnightblue" d="M623.8,-145.42C534.12,-115.24 364.92,-58.31 291.95,-33.76"/>
<polygon fill="midnightblue" stroke="midnightblue" points="292.9,-30.39 282.31,-30.51 290.67,-37.02 292.9,-30.39"/>
</g>
<!-- Node7 -->
<g id="node7" class="node">
<title>Node7</title>
<g id="a_node7"><a xlink:title=" ">
<polygon fill="none" stroke="#bfbfbf" points="338,-11.5 338,-30.5 508,-30.5 508,-11.5 338,-11.5"/>
<text text-anchor="middle" x="423" y="-18.5" font-family="Helvetica,sans-Serif" font-size="10.00">boost/uuid/uuid_generators.hpp</text>
</a>
</g>
</g>
<!-- Node1&#45;&gt;Node7 -->
<g id="edge6" class="edge">
<title>Node1&#45;&gt;Node7</title>
<path fill="none" stroke="midnightblue" d="M646.53,-145.42C593.11,-115.92 493.38,-60.86 447.39,-35.46"/>
<polygon fill="midnightblue" stroke="midnightblue" points="448.87,-32.28 438.42,-30.51 445.48,-38.41 448.87,-32.28"/>
</g>
<!-- Node8 -->
<g id="node8" class="node">
<title>Node8</title>
<g id="a_node8"><a xlink:title=" ">
<polygon fill="none" stroke="#bfbfbf" points="526.5,-11.5 526.5,-30.5 653.5,-30.5 653.5,-11.5 526.5,-11.5"/>
<text text-anchor="middle" x="590" y="-18.5" font-family="Helvetica,sans-Serif" font-size="10.00">boost/uuid/uuid_io.hpp</text>
</a>
</g>
</g>
<!-- Node1&#45;&gt;Node8 -->
<g id="edge7" class="edge">
<title>Node1&#45;&gt;Node8</title>
<path fill="none" stroke="midnightblue" d="M669.4,-145.42C651.34,-117.35 618.39,-66.12 601.16,-39.35"/>
<polygon fill="midnightblue" stroke="midnightblue" points="603.94,-37.19 595.58,-30.68 598.05,-40.98 603.94,-37.19"/>
</g>
<!-- Node9 -->
<g id="node9" class="node">
<title>Node9</title>
<g id="a_node9"><a xlink:title=" ">
<polygon fill="none" stroke="#bfbfbf" points="1069.5,-84 1069.5,-103 1192.5,-103 1192.5,-84 1069.5,-84"/>
<text text-anchor="middle" x="1131" y="-91" font-family="Helvetica,sans-Serif" font-size="10.00">sensor_msgs/Image.h</text>
</a>
</g>
</g>
<!-- Node1&#45;&gt;Node9 -->
<g id="edge8" class="edge">
<title>Node1&#45;&gt;Node9</title>
<path fill="none" stroke="midnightblue" d="M749.63,-156.2C825.58,-146.05 952.45,-128.25 1061,-109 1067.73,-107.81 1074.81,-106.45 1081.77,-105.07"/>
<polygon fill="midnightblue" stroke="midnightblue" points="1082.73,-108.45 1091.83,-103.03 1081.34,-101.59 1082.73,-108.45"/>
</g>
<!-- Node10 -->
<g id="node10" class="node">
<title>Node10</title>
<g id="a_node10"><a xlink:title=" ">
<polygon fill="none" stroke="#bfbfbf" points="1211,-84 1211,-103 1321,-103 1321,-84 1211,-84"/>
<text text-anchor="middle" x="1266" y="-91" font-family="Helvetica,sans-Serif" font-size="10.00">std_msgs/Header.h</text>
</a>
</g>
</g>
<!-- Node1&#45;&gt;Node10 -->
<g id="edge9" class="edge">
<title>Node1&#45;&gt;Node10</title>
<path fill="none" stroke="midnightblue" d="M749.65,-160.22C849.2,-152.63 1040.78,-135.85 1202,-109 1208.34,-107.94 1215,-106.65 1221.52,-105.27"/>
<polygon fill="midnightblue" stroke="midnightblue" points="1222.58,-108.62 1231.6,-103.06 1221.08,-101.78 1222.58,-108.62"/>
</g>
<!-- Node11 -->
<g id="node11" class="node">
<title>Node11</title>
<g id="a_node11"><a xlink:href="hdf5-core-general_8h.html" target="_top" xlink:title=" ">
<polygon fill="none" stroke="black" points="730.5,-78.5 730.5,-108.5 855.5,-108.5 855.5,-78.5 730.5,-78.5"/>
<text text-anchor="start" x="738.5" y="-96.5" font-family="Helvetica,sans-Serif" font-size="10.00">seerep&#45;hdf5&#45;core/hdf5</text>
<text text-anchor="middle" x="793" y="-85.5" font-family="Helvetica,sans-Serif" font-size="10.00">&#45;core&#45;general.h</text>
</a>
</g>
</g>
<!-- Node1&#45;&gt;Node11 -->
<g id="edge10" class="edge">
<title>Node1&#45;&gt;Node11</title>
<path fill="none" stroke="midnightblue" d="M712.92,-145.36C728.26,-135.62 746.73,-123.89 762.07,-114.15"/>
<polygon fill="midnightblue" stroke="midnightblue" points="764.12,-116.99 770.69,-108.67 760.37,-111.08 764.12,-116.99"/>
</g>
<!-- Node11&#45;&gt;Node2 -->
<g id="edge17" class="edge">
<title>Node11&#45;&gt;Node2</title>
<path fill="none" stroke="midnightblue" d="M730.22,-91.98C575.93,-90.11 181.7,-81.49 57,-42 52.5,-40.57 47.97,-38.41 43.77,-36.04"/>
<polygon fill="midnightblue" stroke="midnightblue" points="45.58,-33.04 35.25,-30.67 41.85,-38.96 45.58,-33.04"/>
</g>
<!-- Node11&#45;&gt;Node5 -->
<g id="edge11" class="edge">
<title>Node11&#45;&gt;Node5</title>
<path fill="none" stroke="midnightblue" d="M730.23,-91.82C619.24,-89.61 381.47,-80.37 185,-42 174.63,-39.98 163.57,-36.87 153.61,-33.71"/>
<polygon fill="midnightblue" stroke="midnightblue" points="154.68,-30.38 144.09,-30.57 152.49,-37.03 154.68,-30.38"/>
</g>
<!-- Node11&#45;&gt;Node6 -->
<g id="edge23" class="edge">
<title>Node11&#45;&gt;Node6</title>
<path fill="none" stroke="midnightblue" d="M730.23,-88.92C640.59,-83.06 471.05,-69.27 329,-42 317.39,-39.77 304.93,-36.6 293.69,-33.43"/>
<polygon fill="midnightblue" stroke="midnightblue" points="294.34,-29.98 283.76,-30.55 292.39,-36.7 294.34,-29.98"/>
</g>
<!-- Node11&#45;&gt;Node7 -->
<g id="edge25" class="edge">
<title>Node11&#45;&gt;Node7</title>
<path fill="none" stroke="midnightblue" d="M730.42,-81.58C674.42,-71.68 590.11,-56.46 517,-42 502.24,-39.08 486.21,-35.73 471.64,-32.63"/>
<polygon fill="midnightblue" stroke="midnightblue" points="472.33,-29.2 461.82,-30.52 470.87,-36.04 472.33,-29.2"/>
</g>
<!-- Node11&#45;&gt;Node8 -->
<g id="edge26" class="edge">
<title>Node11&#45;&gt;Node8</title>
<path fill="none" stroke="midnightblue" d="M752.41,-78.4C714.92,-65.38 659.84,-46.25 624.44,-33.96"/>
<polygon fill="midnightblue" stroke="midnightblue" points="625.17,-30.51 614.57,-30.53 622.87,-37.12 625.17,-30.51"/>
</g>
<!-- Node12 -->
<g id="node12" class="node">
<title>Node12</title>
<g id="a_node12"><a xlink:title=" ">
<polygon fill="none" stroke="#bfbfbf" points="1850,-11.5 1850,-30.5 1966,-30.5 1966,-11.5 1850,-11.5"/>
<text text-anchor="middle" x="1908" y="-18.5" font-family="Helvetica,sans-Serif" font-size="10.00">seerep&#45;msgs/aabb.h</text>
</a>
</g>
</g>
<!-- Node11&#45;&gt;Node12 -->
<g id="edge12" class="edge">
<title>Node11&#45;&gt;Node12</title>
<path fill="none" stroke="midnightblue" d="M855.73,-79.24C858.86,-78.78 861.96,-78.36 865,-78 1296.51,-26.94 1413.42,-113.6 1842,-42 1853.1,-40.15 1864.94,-36.96 1875.49,-33.67"/>
<polygon fill="midnightblue" stroke="midnightblue" points="1876.71,-36.95 1885.13,-30.52 1874.54,-30.29 1876.71,-36.95"/>
</g>
<!-- Node13 -->
<g id="node13" class="node">
<title>Node13</title>
<g id="a_node13"><a xlink:title=" ">
<polygon fill="none" stroke="#bfbfbf" points="1984.5,-6 1984.5,-36 2103.5,-36 2103.5,-6 1984.5,-6"/>
<text text-anchor="start" x="1992.5" y="-24" font-family="Helvetica,sans-Serif" font-size="10.00">seerep&#45;msgs/dataset</text>
<text text-anchor="middle" x="2044" y="-13" font-family="Helvetica,sans-Serif" font-size="10.00">&#45;indexable.h</text>
</a>
</g>
</g>
<!-- Node11&#45;&gt;Node13 -->
<g id="edge13" class="edge">
<title>Node11&#45;&gt;Node13</title>
<path fill="none" stroke="midnightblue" d="M855.73,-79.23C858.86,-78.77 861.96,-78.35 865,-78 1355.3,-21.08 1487.5,-119.31 1975,-42 1980.47,-41.13 1986.11,-39.97 1991.71,-38.63"/>
<polygon fill="midnightblue" stroke="midnightblue" points="1992.87,-41.94 2001.68,-36.07 1991.12,-35.16 1992.87,-41.94"/>
</g>
<!-- Node14 -->
<g id="node14" class="node">
<title>Node14</title>
<g id="a_node14"><a xlink:title=" ">
<polygon fill="none" stroke="#bfbfbf" points="2121.5,-6 2121.5,-36 2246.5,-36 2246.5,-6 2121.5,-6"/>
<text text-anchor="start" x="2129.5" y="-24" font-family="Helvetica,sans-Serif" font-size="10.00">seerep&#45;msgs/geodetic</text>
<text text-anchor="middle" x="2184" y="-13" font-family="Helvetica,sans-Serif" font-size="10.00">&#45;coordinates.h</text>
</a>
</g>
</g>
<!-- Node11&#45;&gt;Node14 -->
<g id="edge14" class="edge">
<title>Node11&#45;&gt;Node14</title>
<path fill="none" stroke="midnightblue" d="M855.73,-79.21C858.86,-78.76 861.96,-78.35 865,-78 1416.31,-15 1564.48,-125.86 2113,-42 2118.76,-41.12 2124.71,-39.92 2130.61,-38.54"/>
<polygon fill="midnightblue" stroke="midnightblue" points="2131.58,-41.91 2140.44,-36.09 2129.89,-35.12 2131.58,-41.91"/>
</g>
<!-- Node15 -->
<g id="node15" class="node">
<title>Node15</title>
<g id="a_node15"><a xlink:title=" ">
<polygon fill="none" stroke="#bfbfbf" points="672,-0.5 672,-41.5 784,-41.5 784,-0.5 672,-0.5"/>
<text text-anchor="start" x="680" y="-29.5" font-family="Helvetica,sans-Serif" font-size="10.00">seerep&#45;msgs/labels</text>
<text text-anchor="start" x="680" y="-18.5" font-family="Helvetica,sans-Serif" font-size="10.00">&#45;with&#45;instance&#45;with</text>
<text text-anchor="middle" x="728" y="-7.5" font-family="Helvetica,sans-Serif" font-size="10.00">&#45;category.h</text>
</a>
</g>
</g>
<!-- Node11&#45;&gt;Node15 -->
<g id="edge15" class="edge">
<title>Node11&#45;&gt;Node15</title>
<path fill="none" stroke="midnightblue" d="M779.85,-78.23C772.1,-69.83 762.05,-58.93 752.86,-48.97"/>
<polygon fill="midnightblue" stroke="midnightblue" points="755.41,-46.57 746.06,-41.59 750.27,-51.31 755.41,-46.57"/>
</g>
<!-- Node16 -->
<g id="node16" class="node">
<title>Node16</title>
<g id="a_node16"><a xlink:title=" ">
<polygon fill="none" stroke="#bfbfbf" points="802.5,-11.5 802.5,-30.5 915.5,-30.5 915.5,-11.5 802.5,-11.5"/>
<text text-anchor="middle" x="859" y="-18.5" font-family="Helvetica,sans-Serif" font-size="10.00">boost/geometry.hpp</text>
</a>
</g>
</g>
<!-- Node11&#45;&gt;Node16 -->
<g id="edge16" class="edge">
<title>Node11&#45;&gt;Node16</title>
<path fill="none" stroke="midnightblue" d="M806.36,-78.23C817.13,-66.73 832.29,-50.53 843.58,-38.47"/>
<polygon fill="midnightblue" stroke="midnightblue" points="846.4,-40.59 850.67,-30.89 841.29,-35.8 846.4,-40.59"/>
</g>
<!-- Node17 -->
<g id="node17" class="node">
<title>Node17</title>
<g id="a_node17"><a xlink:title=" ">
<polygon fill="none" stroke="#bfbfbf" points="934,-11.5 934,-30.5 990,-30.5 990,-11.5 934,-11.5"/>
<text text-anchor="middle" x="962" y="-18.5" font-family="Helvetica,sans-Serif" font-size="10.00">optional</text>
</a>
</g>
</g>
<!-- Node11&#45;&gt;Node17 -->
<g id="edge18" class="edge">
<title>Node11&#45;&gt;Node17</title>
<path fill="none" stroke="midnightblue" d="M833.71,-78.48C860.1,-69.01 895.01,-55.77 925,-42 929.3,-40.03 933.79,-37.77 938.1,-35.51"/>
<polygon fill="midnightblue" stroke="midnightblue" points="939.98,-38.47 947.1,-30.63 936.64,-32.31 939.98,-38.47"/>
</g>
<!-- Node18 -->
<g id="node18" class="node">
<title>Node18</title>
<g id="a_node18"><a xlink:title=" ">
<polygon fill="none" stroke="#bfbfbf" points="1008.5,-11.5 1008.5,-30.5 1077.5,-30.5 1077.5,-11.5 1008.5,-11.5"/>
<text text-anchor="middle" x="1043" y="-18.5" font-family="Helvetica,sans-Serif" font-size="10.00">type_traits</text>
</a>
</g>
</g>
<!-- Node11&#45;&gt;Node18 -->
<g id="edge19" class="edge">
<title>Node11&#45;&gt;Node18</title>
<path fill="none" stroke="midnightblue" d="M855.53,-78.52C906,-66.98 972.77,-51.09 999,-42 1004.89,-39.96 1011.07,-37.42 1016.87,-34.84"/>
<polygon fill="midnightblue" stroke="midnightblue" points="1018.56,-37.92 1026.17,-30.54 1015.62,-31.56 1018.56,-37.92"/>
</g>
<!-- Node19 -->
<g id="node19" class="node">
<title>Node19</title>
<g id="a_node19"><a xlink:title=" ">
<polygon fill="none" stroke="#bfbfbf" points="1095.5,-6 1095.5,-36 1240.5,-36 1240.5,-6 1095.5,-6"/>
<text text-anchor="start" x="1103.5" y="-24" font-family="Helvetica,sans-Serif" font-size="10.00">boost/log/sources/severity</text>
<text text-anchor="middle" x="1168" y="-13" font-family="Helvetica,sans-Serif" font-size="10.00">_logger.hpp</text>
</a>
</g>
</g>
<!-- Node11&#45;&gt;Node19 -->
<g id="edge20" class="edge">
<title>Node11&#45;&gt;Node19</title>
<path fill="none" stroke="midnightblue" d="M855.8,-79.71C858.91,-79.12 861.99,-78.55 865,-78 963.35,-60.13 989.07,-62 1087,-42 1092.41,-40.9 1098.01,-39.68 1103.61,-38.4"/>
<polygon fill="midnightblue" stroke="midnightblue" points="1104.73,-41.73 1113.67,-36.06 1103.14,-34.92 1104.73,-41.73"/>
</g>
<!-- Node20 -->
<g id="node20" class="node">
<title>Node20</title>
<g id="a_node20"><a xlink:title=" ">
<polygon fill="none" stroke="#bfbfbf" points="1259,-11.5 1259,-30.5 1373,-30.5 1373,-11.5 1259,-11.5"/>
<text text-anchor="middle" x="1316" y="-18.5" font-family="Helvetica,sans-Serif" font-size="10.00">boost/log/trivial.hpp</text>
</a>
</g>
</g>
<!-- Node11&#45;&gt;Node20 -->
<g id="edge21" class="edge">
<title>Node11&#45;&gt;Node20</title>
<path fill="none" stroke="midnightblue" d="M855.76,-79.46C858.88,-78.93 861.97,-78.45 865,-78 1035.03,-53 1081.36,-75.09 1250,-42 1260.57,-39.93 1271.87,-36.84 1282.07,-33.71"/>
<polygon fill="midnightblue" stroke="midnightblue" points="1283.38,-36.96 1291.85,-30.59 1281.26,-30.29 1283.38,-36.96"/>
</g>
<!-- Node21 -->
<g id="node21" class="node">
<title>Node21</title>
<g id="a_node21"><a xlink:title=" ">
<polygon fill="none" stroke="#bfbfbf" points="1391.5,-11.5 1391.5,-30.5 1534.5,-30.5 1534.5,-11.5 1391.5,-11.5"/>
<text text-anchor="middle" x="1463" y="-18.5" font-family="Helvetica,sans-Serif" font-size="10.00">boost/functional/hash.hpp</text>
</a>
</g>
</g>
<!-- Node11&#45;&gt;Node21 -->
<g id="edge22" class="edge">
<title>Node11&#45;&gt;Node21</title>
<path fill="none" stroke="midnightblue" d="M855.75,-79.37C858.87,-78.87 861.97,-78.41 865,-78 1093.27,-47.2 1154.46,-77.74 1382,-42 1395.8,-39.83 1410.69,-36.46 1423.9,-33.1"/>
<polygon fill="midnightblue" stroke="midnightblue" points="1424.84,-36.47 1433.63,-30.55 1423.07,-29.7 1424.84,-36.47"/>
</g>
<!-- Node22 -->
<g id="node22" class="node">
<title>Node22</title>
<g id="a_node22"><a xlink:title=" ">
<polygon fill="none" stroke="#bfbfbf" points="1552.5,-11.5 1552.5,-30.5 1665.5,-30.5 1665.5,-11.5 1552.5,-11.5"/>
<text text-anchor="middle" x="1609" y="-18.5" font-family="Helvetica,sans-Serif" font-size="10.00">boost/uuid/uuid.hpp</text>
</a>
</g>
</g>
<!-- Node11&#45;&gt;Node22 -->
<g id="edge24" class="edge">
<title>Node11&#45;&gt;Node22</title>
<path fill="none" stroke="midnightblue" d="M855.74,-79.3C858.86,-78.82 861.96,-78.38 865,-78 1164.81,-40.07 1246.45,-94.83 1544,-42 1554.72,-40.1 1566.16,-36.97 1576.4,-33.74"/>
<polygon fill="midnightblue" stroke="midnightblue" points="1577.77,-36.98 1586.17,-30.53 1575.58,-30.33 1577.77,-36.98"/>
</g>
<!-- Node23 -->
<g id="node23" class="node">
<title>Node23</title>
<g id="a_node23"><a xlink:title=" ">
<polygon fill="none" stroke="#bfbfbf" points="1683.5,-11.5 1683.5,-30.5 1832.5,-30.5 1832.5,-11.5 1683.5,-11.5"/>
<text text-anchor="middle" x="1758" y="-18.5" font-family="Helvetica,sans-Serif" font-size="10.00">impl/hdf5&#45;core&#45;general.hpp</text>
</a>
</g>
</g>
<!-- Node11&#45;&gt;Node23 -->
<g id="edge27" class="edge">
<title>Node11&#45;&gt;Node23</title>
<path fill="none" stroke="midnightblue" d="M855.74,-79.27C858.86,-78.8 861.96,-78.37 865,-78 1222.7,-34.3 1318.19,-92.44 1675,-42 1689.39,-39.97 1704.92,-36.56 1718.62,-33.13"/>
<polygon fill="midnightblue" stroke="midnightblue" points="1719.88,-36.41 1728.69,-30.52 1718.13,-29.64 1719.88,-36.41"/>
</g>
</g>
</svg>
