<?xml version="1.0" encoding="UTF-8" standalone="no"?>
<!DOCTYPE svg PUBLIC "-//W3C//DTD SVG 1.1//EN"
 "http://www.w3.org/Graphics/SVG/1.1/DTD/svg11.dtd">
<!-- Generated by graphviz version 2.43.0 (0)
 -->
<!-- Title: seerep&#45;hdf5/seerep&#45;hdf5&#45;fb/include/seerep&#45;hdf5&#45;fb/hdf5&#45;fb&#45;image.h Pages: 1 -->
<svg width="2629pt" height="251pt"
 viewBox="0.00 0.00 2628.76 251.00" xmlns="http://www.w3.org/2000/svg" xmlns:xlink="http://www.w3.org/1999/xlink">
<g id="graph0" class="graph" transform="scale(1 1) rotate(0) translate(4 247)">
<title>seerep&#45;hdf5/seerep&#45;hdf5&#45;fb/include/seerep&#45;hdf5&#45;fb/hdf5&#45;fb&#45;image.h</title>
<!-- Node1 -->
<g id="node1" class="node">
<title>Node1</title>
<g id="a_node1"><a xlink:title=" ">
<polygon fill="#bfbfbf" stroke="black" points="1943.26,-201.5 1943.26,-242.5 2080.26,-242.5 2080.26,-201.5 1943.26,-201.5"/>
<text text-anchor="start" x="1951.26" y="-230.5" font-family="Helvetica,sans-Serif" font-size="10.00">seerep&#45;hdf5/seerep</text>
<text text-anchor="start" x="1951.26" y="-219.5" font-family="Helvetica,sans-Serif" font-size="10.00">&#45;hdf5&#45;fb/include/seerep</text>
<text text-anchor="middle" x="2011.76" y="-208.5" font-family="Helvetica,sans-Serif" font-size="10.00">&#45;hdf5&#45;fb/hdf5&#45;fb&#45;image.h</text>
</a>
</g>
</g>
<!-- Node2 -->
<g id="node2" class="node">
<title>Node2</title>
<g id="a_node2"><a xlink:title=" ">
<polygon fill="none" stroke="#bfbfbf" points="911.76,-6 911.76,-25 1021.76,-25 1021.76,-6 911.76,-6"/>
<text text-anchor="middle" x="966.76" y="-13" font-family="Helvetica,sans-Serif" font-size="10.00">highfive/H5File.hpp</text>
</a>
</g>
</g>
<!-- Node1&#45;&gt;Node2 -->
<g id="edge1" class="edge">
<title>Node1&#45;&gt;Node2</title>
<path fill="none" stroke="midnightblue" d="M1942.92,-221.54C1739.59,-221.79 1146.64,-212.48 998.76,-98 979.26,-82.9 971.62,-54.21 968.64,-35.21"/>
<polygon fill="midnightblue" stroke="midnightblue" points="972.09,-34.56 967.35,-25.09 965.15,-35.45 972.09,-34.56"/>
</g>
<!-- Node3 -->
<g id="node3" class="node">
<title>Node3</title>
<g id="a_node3"><a xlink:href="hdf5-core-image_8h.html" target="_top" xlink:title=" ">
<polygon fill="none" stroke="black" points="638.26,-134.5 638.26,-164.5 763.26,-164.5 763.26,-134.5 638.26,-134.5"/>
<text text-anchor="start" x="646.26" y="-152.5" font-family="Helvetica,sans-Serif" font-size="10.00">seerep&#45;hdf5&#45;core/hdf5</text>
<text text-anchor="middle" x="700.76" y="-141.5" font-family="Helvetica,sans-Serif" font-size="10.00">&#45;core&#45;image.h</text>
</a>
</g>
</g>
<!-- Node1&#45;&gt;Node3 -->
<g id="edge2" class="edge">
<title>Node1&#45;&gt;Node3</title>
<path fill="none" stroke="midnightblue" d="M1943.05,-217.33C1776.03,-208.41 1335.46,-184.85 967.76,-165 902,-161.45 827.13,-157.38 773.45,-154.46"/>
<polygon fill="midnightblue" stroke="midnightblue" points="773.51,-150.96 763.34,-153.91 773.13,-157.95 773.51,-150.96"/>
</g>
<!-- Node7 -->
<g id="node7" class="node">
<title>Node7</title>
<g id="a_node7"><a xlink:title=" ">
<polygon fill="none" stroke="#bfbfbf" points="434.76,-6 434.76,-25 490.76,-25 490.76,-6 434.76,-6"/>
<text text-anchor="middle" x="462.76" y="-13" font-family="Helvetica,sans-Serif" font-size="10.00">optional</text>
</a>
</g>
</g>
<!-- Node1&#45;&gt;Node7 -->
<g id="edge44" class="edge">
<title>Node1&#45;&gt;Node7</title>
<path fill="none" stroke="midnightblue" d="M1943.01,-219.45C1598.62,-211.38 74.81,-171.56 8.76,-98 -0.45,-87.75 -0.43,-77.27 8.76,-67 22.61,-51.52 317.9,-27.55 424.67,-19.36"/>
<polygon fill="midnightblue" stroke="midnightblue" points="424.99,-22.84 434.69,-18.59 424.45,-15.87 424.99,-22.84"/>
</g>
<!-- Node10 -->
<g id="node10" class="node">
<title>Node10</title>
<g id="a_node10"><a xlink:title=" ">
<polygon fill="none" stroke="#bfbfbf" points="1703.26,-6 1703.26,-25 1816.26,-25 1816.26,-6 1703.26,-6"/>
<text text-anchor="middle" x="1759.76" y="-13" font-family="Helvetica,sans-Serif" font-size="10.00">boost/geometry.hpp</text>
</a>
</g>
</g>
<!-- Node1&#45;&gt;Node10 -->
<g id="edge43" class="edge">
<title>Node1&#45;&gt;Node10</title>
<path fill="none" stroke="midnightblue" d="M2064.51,-201.42C2131.56,-173.71 2233.25,-120.45 2185.76,-67 2162.32,-40.62 1940.09,-25.62 1826.26,-19.61"/>
<polygon fill="midnightblue" stroke="midnightblue" points="1826.43,-16.11 1816.26,-19.09 1826.07,-23.1 1826.43,-16.11"/>
</g>
<!-- Node19 -->
<g id="node19" class="node">
<title>Node19</title>
<g id="a_node19"><a xlink:href="hdf5-fb-general_8h.html" target="_top" xlink:title=" ">
<polygon fill="none" stroke="black" points="1579.26,-134.5 1579.26,-164.5 1692.26,-164.5 1692.26,-134.5 1579.26,-134.5"/>
<text text-anchor="start" x="1587.26" y="-152.5" font-family="Helvetica,sans-Serif" font-size="10.00">seerep&#45;hdf5&#45;fb/hdf5</text>
<text text-anchor="middle" x="1635.76" y="-141.5" font-family="Helvetica,sans-Serif" font-size="10.00">&#45;fb&#45;general.h</text>
</a>
</g>
</g>
<!-- Node1&#45;&gt;Node19 -->
<g id="edge26" class="edge">
<title>Node1&#45;&gt;Node19</title>
<path fill="none" stroke="midnightblue" d="M1943.23,-208.15C1874.83,-195.33 1770.4,-175.75 1702.6,-163.03"/>
<polygon fill="midnightblue" stroke="midnightblue" points="1702.93,-159.53 1692.46,-161.13 1701.64,-166.41 1702.93,-159.53"/>
</g>
<!-- Node22 -->
<g id="node22" class="node">
<title>Node22</title>
<g id="a_node22"><a xlink:title=" ">
<polygon fill="none" stroke="#bfbfbf" points="1964.26,-73 1964.26,-92 2059.26,-92 2059.26,-73 1964.26,-73"/>
<text text-anchor="middle" x="2011.76" y="-80" font-family="Helvetica,sans-Serif" font-size="10.00">grpcpp/grpcpp.h</text>
</a>
</g>
</g>
<!-- Node1&#45;&gt;Node22 -->
<g id="edge42" class="edge">
<title>Node1&#45;&gt;Node22</title>
<path fill="none" stroke="midnightblue" d="M2011.76,-201.3C2011.76,-174.9 2011.76,-128.36 2011.76,-102.38"/>
<polygon fill="midnightblue" stroke="midnightblue" points="2015.26,-102.04 2011.76,-92.04 2008.26,-102.04 2015.26,-102.04"/>
</g>
<!-- Node23 -->
<g id="node23" class="node">
<title>Node23</title>
<g id="a_node23"><a xlink:title=" ">
<polygon fill="none" stroke="#bfbfbf" points="2077.26,-73 2077.26,-92 2176.26,-92 2176.26,-73 2077.26,-73"/>
<text text-anchor="middle" x="2126.76" y="-80" font-family="Helvetica,sans-Serif" font-size="10.00">flatbuffers/grpc.h</text>
</a>
</g>
</g>
<!-- Node1&#45;&gt;Node23 -->
<g id="edge45" class="edge">
<title>Node1&#45;&gt;Node23</title>
<path fill="none" stroke="midnightblue" d="M2028.24,-201.3C2051.01,-174.06 2091.71,-125.4 2112.97,-99.99"/>
<polygon fill="midnightblue" stroke="midnightblue" points="2115.89,-101.95 2119.62,-92.04 2110.52,-97.46 2115.89,-101.95"/>
</g>
<!-- Node26 -->
<g id="node26" class="node">
<title>Node26</title>
<g id="a_node26"><a xlink:title=" ">
<polygon fill="none" stroke="#bfbfbf" points="2232.26,-140 2232.26,-159 2409.26,-159 2409.26,-140 2232.26,-140"/>
<text text-anchor="middle" x="2320.76" y="-147" font-family="Helvetica,sans-Serif" font-size="10.00">seerep&#45;msgs/image_generated.h</text>
</a>
</g>
</g>
<!-- Node1&#45;&gt;Node26 -->
<g id="edge40" class="edge">
<title>Node1&#45;&gt;Node26</title>
<path fill="none" stroke="midnightblue" d="M2080.34,-205.35C2139.01,-191.97 2221.93,-173.05 2273.46,-161.29"/>
<polygon fill="midnightblue" stroke="midnightblue" points="2274.36,-164.68 2283.33,-159.04 2272.8,-157.85 2274.36,-164.68"/>
</g>
<!-- Node27 -->
<g id="node27" class="node">
<title>Node27</title>
<g id="a_node27"><a xlink:title=" ">
<polygon fill="none" stroke="#bfbfbf" points="2426.76,-140 2426.76,-159 2620.76,-159 2620.76,-140 2426.76,-140"/>
<text text-anchor="middle" x="2523.76" y="-147" font-family="Helvetica,sans-Serif" font-size="10.00">seerep&#45;com/image_service.grpc.fb.h</text>
</a>
</g>
</g>
<!-- Node1&#45;&gt;Node27 -->
<g id="edge41" class="edge">
<title>Node1&#45;&gt;Node27</title>
<path fill="none" stroke="midnightblue" d="M2080.53,-211.55C2161.46,-200.42 2299.88,-181.39 2418.76,-165 2429.51,-163.52 2440.87,-161.95 2452,-160.41"/>
<polygon fill="midnightblue" stroke="midnightblue" points="2452.7,-163.85 2462.13,-159.02 2451.75,-156.92 2452.7,-163.85"/>
</g>
<!-- Node3&#45;&gt;Node2 -->
<g id="edge3" class="edge">
<title>Node3&#45;&gt;Node2</title>
<path fill="none" stroke="midnightblue" d="M763.31,-135.36C795.13,-127.21 833.74,-114.99 865.76,-98 899.19,-80.25 932.24,-50.7 951.01,-32.48"/>
<polygon fill="midnightblue" stroke="midnightblue" points="953.49,-34.95 958.14,-25.43 948.57,-29.97 953.49,-34.95"/>
</g>
<!-- Node4 -->
<g id="node4" class="node">
<title>Node4</title>
<g id="a_node4"><a xlink:href="hdf5-core-datatype-interface_8h.html" target="_top" xlink:title=" ">
<polygon fill="none" stroke="black" points="390.26,-67.5 390.26,-97.5 535.26,-97.5 535.26,-67.5 390.26,-67.5"/>
<text text-anchor="start" x="398.26" y="-85.5" font-family="Helvetica,sans-Serif" font-size="10.00">seerep&#45;hdf5&#45;core/hdf5</text>
<text text-anchor="middle" x="462.76" y="-74.5" font-family="Helvetica,sans-Serif" font-size="10.00">&#45;core&#45;datatype&#45;interface.h</text>
</a>
</g>
</g>
<!-- Node3&#45;&gt;Node4 -->
<g id="edge4" class="edge">
<title>Node3&#45;&gt;Node4</title>
<path fill="none" stroke="midnightblue" d="M649.41,-134.48C612.78,-124.47 563.35,-110.97 524.55,-100.38"/>
<polygon fill="midnightblue" stroke="midnightblue" points="525,-96.87 514.43,-97.61 523.15,-103.62 525,-96.87"/>
</g>
<!-- Node5 -->
<g id="node5" class="node">
<title>Node5</title>
<g id="a_node5"><a xlink:title=" ">
<polygon fill="none" stroke="#bfbfbf" points="774.26,-0.5 774.26,-30.5 893.26,-30.5 893.26,-0.5 774.26,-0.5"/>
<text text-anchor="start" x="782.26" y="-18.5" font-family="Helvetica,sans-Serif" font-size="10.00">seerep&#45;msgs/dataset</text>
<text text-anchor="middle" x="833.76" y="-7.5" font-family="Helvetica,sans-Serif" font-size="10.00">&#45;indexable.h</text>
</a>
</g>
</g>
<!-- Node3&#45;&gt;Node5 -->
<g id="edge18" class="edge">
<title>Node3&#45;&gt;Node5</title>
<path fill="none" stroke="midnightblue" d="M763.36,-143.76C794.4,-137.88 829.33,-125.16 848.76,-98 860.91,-81.02 854.46,-57.1 846.6,-39.56"/>
<polygon fill="midnightblue" stroke="midnightblue" points="849.73,-38.01 842.19,-30.57 843.45,-41.09 849.73,-38.01"/>
</g>
<!-- Node6 -->
<g id="node6" class="node">
<title>Node6</title>
<g id="a_node6"><a xlink:title=" ">
<polygon fill="none" stroke="#bfbfbf" points="99.26,-6 99.26,-25 212.26,-25 212.26,-6 99.26,-6"/>
<text text-anchor="middle" x="155.76" y="-13" font-family="Helvetica,sans-Serif" font-size="10.00">boost/uuid/uuid.hpp</text>
</a>
</g>
</g>
<!-- Node3&#45;&gt;Node6 -->
<g id="edge23" class="edge">
<title>Node3&#45;&gt;Node6</title>
<path fill="none" stroke="midnightblue" d="M638.19,-148.67C475.91,-148.48 51.13,-143.57 8.76,-98 -23.51,-63.29 44.31,-39.82 98.23,-27.3"/>
<polygon fill="midnightblue" stroke="midnightblue" points="99.11,-30.69 108.1,-25.09 97.58,-23.86 99.11,-30.69"/>
</g>
<!-- Node3&#45;&gt;Node7 -->
<g id="edge20" class="edge">
<title>Node3&#45;&gt;Node7</title>
<path fill="none" stroke="midnightblue" d="M637.93,-147.83C554.54,-145.46 414.03,-135.79 381.76,-98 359.86,-72.36 402.18,-45.05 433.47,-29.45"/>
<polygon fill="midnightblue" stroke="midnightblue" points="435.25,-32.49 442.75,-25 432.22,-26.18 435.25,-32.49"/>
</g>
<!-- Node8 -->
<g id="node8" class="node">
<title>Node8</title>
<g id="a_node8"><a xlink:href="hdf5-core-general_8h.html" target="_top" xlink:title=" ">
<polygon fill="none" stroke="black" points="1048.26,-67.5 1048.26,-97.5 1173.26,-97.5 1173.26,-67.5 1048.26,-67.5"/>
<text text-anchor="start" x="1056.26" y="-85.5" font-family="Helvetica,sans-Serif" font-size="10.00">seerep&#45;hdf5&#45;core/hdf5</text>
<text text-anchor="middle" x="1110.76" y="-74.5" font-family="Helvetica,sans-Serif" font-size="10.00">&#45;core&#45;general.h</text>
</a>
</g>
</g>
<!-- Node3&#45;&gt;Node8 -->
<g id="edge8" class="edge">
<title>Node3&#45;&gt;Node8</title>
<path fill="none" stroke="midnightblue" d="M763.48,-138.56C837.33,-126.85 959.79,-107.43 1037.82,-95.06"/>
<polygon fill="midnightblue" stroke="midnightblue" points="1038.72,-98.46 1048.05,-93.44 1037.62,-91.55 1038.72,-98.46"/>
</g>
<!-- Node3&#45;&gt;Node10 -->
<g id="edge19" class="edge">
<title>Node3&#45;&gt;Node10</title>
<path fill="none" stroke="midnightblue" d="M763.36,-147.56C856.25,-144.91 1035.45,-134.96 1182.76,-98 1218.14,-89.12 1223.28,-75.49 1258.76,-67 1447.86,-21.76 1502.53,-60.24 1694.76,-31 1701.52,-29.97 1708.62,-28.65 1715.55,-27.21"/>
<polygon fill="midnightblue" stroke="midnightblue" points="1716.48,-30.59 1725.52,-25.06 1715,-23.75 1716.48,-30.59"/>
</g>
<!-- Node15 -->
<g id="node15" class="node">
<title>Node15</title>
<g id="a_node15"><a xlink:title=" ">
<polygon fill="none" stroke="#bfbfbf" points="553.26,-73 553.26,-92 696.26,-92 696.26,-73 553.26,-73"/>
<text text-anchor="middle" x="624.76" y="-80" font-family="Helvetica,sans-Serif" font-size="10.00">boost/functional/hash.hpp</text>
</a>
</g>
</g>
<!-- Node3&#45;&gt;Node15 -->
<g id="edge21" class="edge">
<title>Node3&#45;&gt;Node15</title>
<path fill="none" stroke="midnightblue" d="M684.27,-134.4C672.07,-123.96 655.45,-109.75 642.88,-99"/>
<polygon fill="midnightblue" stroke="midnightblue" points="644.8,-96.03 634.92,-92.19 640.25,-101.35 644.8,-96.03"/>
</g>
<!-- Node16 -->
<g id="node16" class="node">
<title>Node16</title>
<g id="a_node16"><a xlink:title=" ">
<polygon fill="none" stroke="#bfbfbf" points="714.26,-73 714.26,-92 839.26,-92 839.26,-73 714.26,-73"/>
<text text-anchor="middle" x="776.76" y="-80" font-family="Helvetica,sans-Serif" font-size="10.00">boost/lexical_cast.hpp</text>
</a>
</g>
</g>
<!-- Node3&#45;&gt;Node16 -->
<g id="edge22" class="edge">
<title>Node3&#45;&gt;Node16</title>
<path fill="none" stroke="midnightblue" d="M717.25,-134.4C729.45,-123.96 746.07,-109.75 758.64,-99"/>
<polygon fill="midnightblue" stroke="midnightblue" points="761.27,-101.35 766.59,-92.19 756.72,-96.03 761.27,-101.35"/>
</g>
<!-- Node17 -->
<g id="node17" class="node">
<title>Node17</title>
<g id="a_node17"><a xlink:title=" ">
<polygon fill="none" stroke="#bfbfbf" points="17.76,-73 17.76,-92 187.76,-92 187.76,-73 17.76,-73"/>
<text text-anchor="middle" x="102.76" y="-80" font-family="Helvetica,sans-Serif" font-size="10.00">boost/uuid/uuid_generators.hpp</text>
</a>
</g>
</g>
<!-- Node3&#45;&gt;Node17 -->
<g id="edge24" class="edge">
<title>Node3&#45;&gt;Node17</title>
<path fill="none" stroke="midnightblue" d="M638.17,-143.31C542.77,-135.15 355.31,-118.16 196.76,-98 186.46,-96.69 175.54,-95.15 164.94,-93.57"/>
<polygon fill="midnightblue" stroke="midnightblue" points="165.31,-90.08 154.9,-92.05 164.26,-97.01 165.31,-90.08"/>
</g>
<!-- Node18 -->
<g id="node18" class="node">
<title>Node18</title>
<g id="a_node18"><a xlink:title=" ">
<polygon fill="none" stroke="#bfbfbf" points="206.26,-73 206.26,-92 333.26,-92 333.26,-73 206.26,-73"/>
<text text-anchor="middle" x="269.76" y="-80" font-family="Helvetica,sans-Serif" font-size="10.00">boost/uuid/uuid_io.hpp</text>
</a>
</g>
</g>
<!-- Node3&#45;&gt;Node18 -->
<g id="edge25" class="edge">
<title>Node3&#45;&gt;Node18</title>
<path fill="none" stroke="midnightblue" d="M638.15,-140.35C567.49,-130.96 449.17,-114.67 347.76,-98 340.02,-96.73 331.86,-95.3 323.86,-93.86"/>
<polygon fill="midnightblue" stroke="midnightblue" points="324.31,-90.38 313.84,-92.03 323.05,-97.27 324.31,-90.38"/>
</g>
<!-- Node4&#45;&gt;Node5 -->
<g id="edge5" class="edge">
<title>Node4&#45;&gt;Node5</title>
<path fill="none" stroke="midnightblue" d="M535.63,-68.61C538.72,-68.06 541.77,-67.53 544.76,-67 619.8,-53.81 705.83,-38.79 764.37,-28.58"/>
<polygon fill="midnightblue" stroke="midnightblue" points="765,-32.03 774.25,-26.86 763.8,-25.13 765,-32.03"/>
</g>
<!-- Node4&#45;&gt;Node6 -->
<g id="edge6" class="edge">
<title>Node4&#45;&gt;Node6</title>
<path fill="none" stroke="midnightblue" d="M396.52,-67.48C339.35,-55.37 257.98,-38.14 206.02,-27.14"/>
<polygon fill="midnightblue" stroke="midnightblue" points="206.55,-23.68 196.04,-25.03 205.1,-30.52 206.55,-23.68"/>
</g>
<!-- Node4&#45;&gt;Node7 -->
<g id="edge7" class="edge">
<title>Node4&#45;&gt;Node7</title>
<path fill="none" stroke="midnightblue" d="M462.76,-67.4C462.76,-58.06 462.76,-45.71 462.76,-35.52"/>
<polygon fill="midnightblue" stroke="midnightblue" points="466.26,-35.19 462.76,-25.19 459.26,-35.19 466.26,-35.19"/>
</g>
<!-- Node8&#45;&gt;Node2 -->
<g id="edge9" class="edge">
<title>Node8&#45;&gt;Node2</title>
<path fill="none" stroke="midnightblue" d="M1079.51,-67.4C1054.36,-56.04 1019.31,-40.22 994.99,-29.24"/>
<polygon fill="midnightblue" stroke="midnightblue" points="996.16,-25.93 985.61,-25.01 993.28,-32.31 996.16,-25.93"/>
</g>
<!-- Node8&#45;&gt;Node5 -->
<g id="edge11" class="edge">
<title>Node8&#45;&gt;Node5</title>
<path fill="none" stroke="midnightblue" d="M1050.99,-67.48C1007.58,-57.29 948.71,-43.47 903.21,-32.8"/>
<polygon fill="midnightblue" stroke="midnightblue" points="903.95,-29.38 893.42,-30.5 902.35,-36.19 903.95,-29.38"/>
</g>
<!-- Node8&#45;&gt;Node7 -->
<g id="edge14" class="edge">
<title>Node8&#45;&gt;Node7</title>
<path fill="none" stroke="midnightblue" d="M1048.04,-75.21C915.09,-61.87 608.36,-31.11 500.84,-20.32"/>
<polygon fill="midnightblue" stroke="midnightblue" points="501.07,-16.83 490.77,-19.31 500.37,-23.79 501.07,-16.83"/>
</g>
<!-- Node9 -->
<g id="node9" class="node">
<title>Node9</title>
<g id="a_node9"><a xlink:title=" ">
<polygon fill="none" stroke="#bfbfbf" points="1039.76,-6 1039.76,-25 1155.76,-25 1155.76,-6 1039.76,-6"/>
<text text-anchor="middle" x="1097.76" y="-13" font-family="Helvetica,sans-Serif" font-size="10.00">seerep&#45;msgs/aabb.h</text>
</a>
</g>
</g>
<!-- Node8&#45;&gt;Node9 -->
<g id="edge10" class="edge">
<title>Node8&#45;&gt;Node9</title>
<path fill="none" stroke="midnightblue" d="M1107.94,-67.4C1106.05,-57.96 1103.55,-45.45 1101.5,-35.19"/>
<polygon fill="midnightblue" stroke="midnightblue" points="1104.89,-34.31 1099.5,-25.19 1098.03,-35.69 1104.89,-34.31"/>
</g>
<!-- Node8&#45;&gt;Node10 -->
<g id="edge12" class="edge">
<title>Node8&#45;&gt;Node10</title>
<path fill="none" stroke="midnightblue" d="M1173.28,-69.1C1178.17,-68.32 1183.04,-67.61 1187.76,-67 1411.8,-38.05 1471.23,-63.68 1694.76,-31 1701.6,-30 1708.79,-28.68 1715.8,-27.23"/>
<polygon fill="midnightblue" stroke="midnightblue" points="1716.83,-30.59 1725.86,-25.06 1715.35,-23.75 1716.83,-30.59"/>
</g>
<!-- Node11 -->
<g id="node11" class="node">
<title>Node11</title>
<g id="a_node11"><a xlink:title=" ">
<polygon fill="none" stroke="#bfbfbf" points="1473.76,-6 1473.76,-25 1521.76,-25 1521.76,-6 1473.76,-6"/>
<text text-anchor="middle" x="1497.76" y="-13" font-family="Helvetica,sans-Serif" font-size="10.00">mutex</text>
</a>
</g>
</g>
<!-- Node8&#45;&gt;Node11 -->
<g id="edge13" class="edge">
<title>Node8&#45;&gt;Node11</title>
<path fill="none" stroke="midnightblue" d="M1173.32,-69.41C1178.2,-68.56 1183.06,-67.75 1187.76,-67 1310.36,-47.5 1345.16,-64.31 1464.76,-31 1466.91,-30.4 1469.11,-29.68 1471.3,-28.9"/>
<polygon fill="midnightblue" stroke="midnightblue" points="1472.67,-32.12 1480.63,-25.13 1470.05,-25.63 1472.67,-32.12"/>
</g>
<!-- Node12 -->
<g id="node12" class="node">
<title>Node12</title>
<g id="a_node12"><a xlink:title=" ">
<polygon fill="none" stroke="#bfbfbf" points="1540.26,-0.5 1540.26,-30.5 1685.26,-30.5 1685.26,-0.5 1540.26,-0.5"/>
<text text-anchor="start" x="1548.26" y="-18.5" font-family="Helvetica,sans-Serif" font-size="10.00">boost/log/sources/severity</text>
<text text-anchor="middle" x="1612.76" y="-7.5" font-family="Helvetica,sans-Serif" font-size="10.00">_logger.hpp</text>
</a>
</g>
</g>
<!-- Node8&#45;&gt;Node12 -->
<g id="edge15" class="edge">
<title>Node8&#45;&gt;Node12</title>
<path fill="none" stroke="midnightblue" d="M1173.3,-69.28C1178.19,-68.46 1183.05,-67.69 1187.76,-67 1336.17,-45.28 1377.22,-52.05 1529.72,-31.08"/>
<polygon fill="midnightblue" stroke="midnightblue" points="1530.5,-34.5 1539.92,-29.65 1529.54,-27.57 1530.5,-34.5"/>
</g>
<!-- Node13 -->
<g id="node13" class="node">
<title>Node13</title>
<g id="a_node13"><a xlink:title=" ">
<polygon fill="none" stroke="#bfbfbf" points="1341.76,-6 1341.76,-25 1455.76,-25 1455.76,-6 1341.76,-6"/>
<text text-anchor="middle" x="1398.76" y="-13" font-family="Helvetica,sans-Serif" font-size="10.00">boost/log/trivial.hpp</text>
</a>
</g>
</g>
<!-- Node8&#45;&gt;Node13 -->
<g id="edge16" class="edge">
<title>Node8&#45;&gt;Node13</title>
<path fill="none" stroke="midnightblue" d="M1172.9,-67.48C1226.31,-55.42 1302.23,-38.29 1350.99,-27.28"/>
<polygon fill="midnightblue" stroke="midnightblue" points="1351.99,-30.64 1360.97,-25.03 1350.44,-23.82 1351.99,-30.64"/>
</g>
<!-- Node14 -->
<g id="node14" class="node">
<title>Node14</title>
<g id="a_node14"><a xlink:title=" ">
<polygon fill="none" stroke="#bfbfbf" points="1174.26,-6 1174.26,-25 1323.26,-25 1323.26,-6 1174.26,-6"/>
<text text-anchor="middle" x="1248.76" y="-13" font-family="Helvetica,sans-Serif" font-size="10.00">impl/hdf5&#45;core&#45;general.hpp</text>
</a>
</g>
</g>
<!-- Node8&#45;&gt;Node14 -->
<g id="edge17" class="edge">
<title>Node8&#45;&gt;Node14</title>
<path fill="none" stroke="midnightblue" d="M1140.7,-67.4C1164.7,-56.09 1198.1,-40.36 1221.39,-29.39"/>
<polygon fill="midnightblue" stroke="midnightblue" points="1223.14,-32.43 1230.7,-25.01 1220.16,-26.1 1223.14,-32.43"/>
</g>
<!-- Node19&#45;&gt;Node2 -->
<g id="edge27" class="edge">
<title>Node19&#45;&gt;Node2</title>
<path fill="none" stroke="midnightblue" d="M1578.95,-148.95C1448.87,-149.16 1133.39,-144.68 1039.76,-98 1011.25,-83.79 988.77,-53.23 976.65,-33.84"/>
<polygon fill="midnightblue" stroke="midnightblue" points="979.56,-31.88 971.42,-25.09 973.55,-35.47 979.56,-31.88"/>
</g>
<!-- Node19&#45;&gt;Node7 -->
<g id="edge36" class="edge">
<title>Node19&#45;&gt;Node7</title>
<path fill="none" stroke="midnightblue" d="M1578.83,-146.37C1467.12,-141.66 1211.55,-128.3 998.76,-98 931.36,-88.4 915.89,-78.31 848.76,-67 721.98,-45.64 570.47,-28.14 500.99,-20.56"/>
<polygon fill="midnightblue" stroke="midnightblue" points="501.27,-17.07 490.96,-19.47 500.52,-24.03 501.27,-17.07"/>
</g>
<!-- Node19&#45;&gt;Node8 -->
<g id="edge28" class="edge">
<title>Node19&#45;&gt;Node8</title>
<path fill="none" stroke="midnightblue" d="M1579.05,-141.57C1499.92,-131.88 1351.9,-113.72 1225.76,-98 1212.1,-96.3 1197.53,-94.47 1183.51,-92.71"/>
<polygon fill="midnightblue" stroke="midnightblue" points="1183.78,-89.21 1173.42,-91.43 1182.91,-96.16 1183.78,-89.21"/>
</g>
<!-- Node19&#45;&gt;Node10 -->
<g id="edge33" class="edge">
<title>Node19&#45;&gt;Node10</title>
<path fill="none" stroke="midnightblue" d="M1664.52,-134.32C1680.41,-125.47 1699.72,-112.92 1713.76,-98 1731.37,-79.28 1744.78,-52.58 1752.46,-34.91"/>
<polygon fill="midnightblue" stroke="midnightblue" points="1755.88,-35.8 1756.48,-25.22 1749.41,-33.11 1755.88,-35.8"/>
</g>
<!-- Node19&#45;&gt;Node11 -->
<g id="edge35" class="edge">
<title>Node19&#45;&gt;Node11</title>
<path fill="none" stroke="midnightblue" d="M1648.39,-134.26C1662.18,-116.91 1680.37,-87.39 1664.76,-67 1627.54,-18.37 1589.62,-51.06 1531.76,-31 1529.89,-30.35 1527.99,-29.65 1526.07,-28.92"/>
<polygon fill="midnightblue" stroke="midnightblue" points="1527.22,-25.61 1516.64,-25.1 1524.59,-32.1 1527.22,-25.61"/>
</g>
<!-- Node19&#45;&gt;Node12 -->
<g id="edge37" class="edge">
<title>Node19&#45;&gt;Node12</title>
<path fill="none" stroke="midnightblue" d="M1662.32,-134.47C1675.59,-125.88 1690.37,-113.55 1697.76,-98 1703.67,-85.56 1704.57,-78.97 1697.76,-67 1689.96,-53.29 1676.81,-42.92 1663.16,-35.25"/>
<polygon fill="midnightblue" stroke="midnightblue" points="1664.65,-32.09 1654.16,-30.6 1661.43,-38.3 1664.65,-32.09"/>
</g>
<!-- Node19&#45;&gt;Node13 -->
<g id="edge38" class="edge">
<title>Node19&#45;&gt;Node13</title>
<path fill="none" stroke="midnightblue" d="M1579.2,-144.98C1479.16,-138.16 1279.52,-121.73 1258.76,-98 1249.69,-87.63 1250.84,-78.27 1258.76,-67 1269.72,-51.39 1314.59,-36.99 1350.62,-27.6"/>
<polygon fill="midnightblue" stroke="midnightblue" points="1351.68,-30.94 1360.51,-25.08 1349.96,-24.16 1351.68,-30.94"/>
</g>
<!-- Node20 -->
<g id="node20" class="node">
<title>Node20</title>
<g id="a_node20"><a xlink:title=" ">
<polygon fill="none" stroke="#bfbfbf" points="1787.76,-67.5 1787.76,-97.5 1945.76,-97.5 1945.76,-67.5 1787.76,-67.5"/>
<text text-anchor="start" x="1795.76" y="-85.5" font-family="Helvetica,sans-Serif" font-size="10.00">seerep&#45;msgs/boundingbox2d</text>
<text text-anchor="middle" x="1866.76" y="-74.5" font-family="Helvetica,sans-Serif" font-size="10.00">_labeled_generated.h</text>
</a>
</g>
</g>
<!-- Node19&#45;&gt;Node20 -->
<g id="edge29" class="edge">
<title>Node19&#45;&gt;Node20</title>
<path fill="none" stroke="midnightblue" d="M1685.6,-134.48C1721.15,-124.47 1769.13,-110.97 1806.78,-100.38"/>
<polygon fill="midnightblue" stroke="midnightblue" points="1807.93,-103.69 1816.61,-97.61 1806.04,-96.95 1807.93,-103.69"/>
</g>
<!-- Node21 -->
<g id="node21" class="node">
<title>Node21</title>
<g id="a_node21"><a xlink:title=" ">
<polygon fill="none" stroke="#bfbfbf" points="1267.76,-67.5 1267.76,-97.5 1413.76,-97.5 1413.76,-67.5 1267.76,-67.5"/>
<text text-anchor="start" x="1275.76" y="-85.5" font-family="Helvetica,sans-Serif" font-size="10.00">seerep&#45;msgs/boundingbox</text>
<text text-anchor="middle" x="1340.76" y="-74.5" font-family="Helvetica,sans-Serif" font-size="10.00">_labeled_generated.h</text>
</a>
</g>
</g>
<!-- Node19&#45;&gt;Node21 -->
<g id="edge30" class="edge">
<title>Node19&#45;&gt;Node21</title>
<path fill="none" stroke="midnightblue" d="M1579.23,-136.04C1532.41,-125.73 1465.53,-110.99 1414.51,-99.75"/>
<polygon fill="midnightblue" stroke="midnightblue" points="1415.04,-96.28 1404.52,-97.55 1413.54,-103.12 1415.04,-96.28"/>
</g>
<!-- Node19&#45;&gt;Node22 -->
<g id="edge31" class="edge">
<title>Node19&#45;&gt;Node22</title>
<path fill="none" stroke="midnightblue" d="M1692.51,-141.12C1756.53,-132.43 1863.59,-116.77 1954.76,-98 1959.82,-96.96 1965.1,-95.76 1970.33,-94.51"/>
<polygon fill="midnightblue" stroke="midnightblue" points="1971.35,-97.87 1980.22,-92.07 1969.67,-91.07 1971.35,-97.87"/>
</g>
<!-- Node19&#45;&gt;Node23 -->
<g id="edge32" class="edge">
<title>Node19&#45;&gt;Node23</title>
<path fill="none" stroke="midnightblue" d="M1692.5,-144.23C1775.56,-137.45 1934.93,-122.43 2068.76,-98 2074.25,-97 2079.99,-95.78 2085.63,-94.48"/>
<polygon fill="midnightblue" stroke="midnightblue" points="2086.71,-97.81 2095.61,-92.07 2085.07,-91.01 2086.71,-97.81"/>
</g>
<!-- Node24 -->
<g id="node24" class="node">
<title>Node24</title>
<g id="a_node24"><a xlink:title=" ">
<polygon fill="none" stroke="#bfbfbf" points="1431.76,-73 1431.76,-92 1499.76,-92 1499.76,-73 1431.76,-73"/>
<text text-anchor="middle" x="1465.76" y="-80" font-family="Helvetica,sans-Serif" font-size="10.00">filesystem</text>
</a>
</g>
</g>
<!-- Node19&#45;&gt;Node24 -->
<g id="edge34" class="edge">
<title>Node19&#45;&gt;Node24</title>
<path fill="none" stroke="midnightblue" d="M1598.87,-134.4C1568.65,-122.84 1526.32,-106.66 1497.57,-95.66"/>
<polygon fill="midnightblue" stroke="midnightblue" points="1498.6,-92.31 1488.01,-92.01 1496.1,-98.85 1498.6,-92.31"/>
</g>
<!-- Node25 -->
<g id="node25" class="node">
<title>Node25</title>
<g id="a_node25"><a xlink:title=" ">
<polygon fill="none" stroke="#bfbfbf" points="1517.76,-73 1517.76,-92 1655.76,-92 1655.76,-73 1517.76,-73"/>
<text text-anchor="middle" x="1586.76" y="-80" font-family="Helvetica,sans-Serif" font-size="10.00">impl/hdf5&#45;fb&#45;general.hpp</text>
</a>
</g>
</g>
<!-- Node19&#45;&gt;Node25 -->
<g id="edge39" class="edge">
<title>Node19&#45;&gt;Node25</title>
<path fill="none" stroke="midnightblue" d="M1625.13,-134.4C1617.56,-124.36 1607.37,-110.84 1599.39,-100.25"/>
<polygon fill="midnightblue" stroke="midnightblue" points="1602.13,-98.07 1593.31,-92.19 1596.54,-102.29 1602.13,-98.07"/>
</g>
</g>
</svg>
