<?xml version="1.0" encoding="UTF-8" standalone="no"?>
<!DOCTYPE svg PUBLIC "-//W3C//DTD SVG 1.1//EN"
 "http://www.w3.org/Graphics/SVG/1.1/DTD/svg11.dtd">
<!-- Generated by graphviz version 2.43.0 (0)
 -->
<!-- Title: seerep_hdf5/seerep_hdf5_core/src/hdf5_core_tf.cpp Pages: 1 -->
<svg width="2267pt" height="251pt"
 viewBox="0.00 0.00 2266.50 251.00" xmlns="http://www.w3.org/2000/svg" xmlns:xlink="http://www.w3.org/1999/xlink">
<g id="graph0" class="graph" transform="scale(1 1) rotate(0) translate(4 247)">
<title>seerep_hdf5/seerep_hdf5_core/src/hdf5_core_tf.cpp</title>
<!-- Node1 -->
<g id="node1" class="node">
<title>Node1</title>
<g id="a_node1"><a xlink:title=" ">
<polygon fill="#bfbfbf" stroke="black" points="305.5,-201.5 305.5,-242.5 418.5,-242.5 418.5,-201.5 305.5,-201.5"/>
<text text-anchor="start" x="313.5" y="-230.5" font-family="Helvetica,sans-Serif" font-size="10.00">seerep_hdf5/seerep</text>
<text text-anchor="start" x="313.5" y="-219.5" font-family="Helvetica,sans-Serif" font-size="10.00">_hdf5_core/src/hdf5</text>
<text text-anchor="middle" x="362" y="-208.5" font-family="Helvetica,sans-Serif" font-size="10.00">_core_tf.cpp</text>
</a>
</g>
</g>
<!-- Node2 -->
<g id="node2" class="node">
<title>Node2</title>
<g id="a_node2"><a xlink:href="hdf5__core__tf_8h.html" target="_top" xlink:title=" ">
<polygon fill="none" stroke="black" points="224,-134.5 224,-164.5 352,-164.5 352,-134.5 224,-134.5"/>
<text text-anchor="start" x="232" y="-152.5" font-family="Helvetica,sans-Serif" font-size="10.00">seerep_hdf5_core/hdf5</text>
<text text-anchor="middle" x="288" y="-141.5" font-family="Helvetica,sans-Serif" font-size="10.00">_core_tf.h</text>
</a>
</g>
</g>
<!-- Node1&#45;&gt;Node2 -->
<g id="edge1" class="edge">
<title>Node1&#45;&gt;Node2</title>
<path fill="none" stroke="midnightblue" d="M341.39,-201.36C331.8,-192.23 320.38,-181.35 310.57,-172"/>
<polygon fill="midnightblue" stroke="midnightblue" points="312.76,-169.26 303.11,-164.89 307.93,-174.32 312.76,-169.26"/>
</g>
<!-- Node22 -->
<g id="node22" class="node">
<title>Node22</title>
<g id="a_node22"><a xlink:title=" ">
<polygon fill="none" stroke="#bfbfbf" points="370,-140 370,-159 502,-159 502,-140 370,-140"/>
<text text-anchor="middle" x="436" y="-147" font-family="Helvetica,sans-Serif" font-size="10.00">highfive/H5DataSet.hpp</text>
</a>
</g>
</g>
<!-- Node1&#45;&gt;Node22 -->
<g id="edge24" class="edge">
<title>Node1&#45;&gt;Node22</title>
<path fill="none" stroke="midnightblue" d="M382.61,-201.36C394.2,-190.32 408.47,-176.72 419.35,-166.37"/>
<polygon fill="midnightblue" stroke="midnightblue" points="422.07,-168.61 426.9,-159.17 417.24,-163.54 422.07,-168.61"/>
</g>
<!-- Node3 -->
<g id="node3" class="node">
<title>Node3</title>
<g id="a_node3"><a xlink:title=" ">
<polygon fill="none" stroke="#bfbfbf" points="0,-11.5 0,-30.5 110,-30.5 110,-11.5 0,-11.5"/>
<text text-anchor="middle" x="55" y="-18.5" font-family="Helvetica,sans-Serif" font-size="10.00">highfive/H5File.hpp</text>
</a>
</g>
</g>
<!-- Node2&#45;&gt;Node3 -->
<g id="edge2" class="edge">
<title>Node2&#45;&gt;Node3</title>
<path fill="none" stroke="midnightblue" d="M262.17,-134.48C217.03,-109.97 124.33,-59.64 79.87,-35.5"/>
<polygon fill="midnightblue" stroke="midnightblue" points="81.35,-32.33 70.9,-30.63 78.01,-38.48 81.35,-32.33"/>
</g>
<!-- Node4 -->
<g id="node4" class="node">
<title>Node4</title>
<g id="a_node4"><a xlink:href="hdf5__core__general_8h.html" target="_top" xlink:title=" ">
<polygon fill="none" stroke="black" points="961,-78.5 961,-97.5 1077,-97.5 1077,-78.5 961,-78.5"/>
<text text-anchor="middle" x="1019" y="-85.5" font-family="Helvetica,sans-Serif" font-size="10.00">hdf5_core_general.h</text>
</a>
</g>
</g>
<!-- Node2&#45;&gt;Node4 -->
<g id="edge3" class="edge">
<title>Node2&#45;&gt;Node4</title>
<path fill="none" stroke="midnightblue" d="M352.02,-135.3C355.05,-134.83 358.05,-134.39 361,-134 574.96,-105.55 830.6,-94.6 950.52,-90.8"/>
<polygon fill="midnightblue" stroke="midnightblue" points="950.77,-94.3 960.66,-90.49 950.55,-87.3 950.77,-94.3"/>
</g>
<!-- Node9 -->
<g id="node9" class="node">
<title>Node9</title>
<g id="a_node9"><a xlink:title=" ">
<polygon fill="none" stroke="#bfbfbf" points="128.5,-11.5 128.5,-30.5 241.5,-30.5 241.5,-11.5 128.5,-11.5"/>
<text text-anchor="middle" x="185" y="-18.5" font-family="Helvetica,sans-Serif" font-size="10.00">boost/geometry.hpp</text>
</a>
</g>
</g>
<!-- Node2&#45;&gt;Node9 -->
<g id="edge22" class="edge">
<title>Node2&#45;&gt;Node9</title>
<path fill="none" stroke="midnightblue" d="M276.58,-134.48C257.47,-111 219.07,-63.84 198.59,-38.69"/>
<polygon fill="midnightblue" stroke="midnightblue" points="201.18,-36.33 192.16,-30.79 195.76,-40.75 201.18,-36.33"/>
</g>
<!-- Node11 -->
<g id="node11" class="node">
<title>Node11</title>
<g id="a_node11"><a xlink:title=" ">
<polygon fill="none" stroke="#bfbfbf" points="260,-11.5 260,-30.5 316,-30.5 316,-11.5 260,-11.5"/>
<text text-anchor="middle" x="288" y="-18.5" font-family="Helvetica,sans-Serif" font-size="10.00">optional</text>
</a>
</g>
</g>
<!-- Node2&#45;&gt;Node11 -->
<g id="edge23" class="edge">
<title>Node2&#45;&gt;Node11</title>
<path fill="none" stroke="midnightblue" d="M288,-134.48C288,-111.72 288,-66.7 288,-41.06"/>
<polygon fill="midnightblue" stroke="midnightblue" points="291.5,-40.79 288,-30.79 284.5,-40.79 291.5,-40.79"/>
</g>
<!-- Node21 -->
<g id="node21" class="node">
<title>Node21</title>
<g id="a_node21"><a xlink:title=" ">
<polygon fill="none" stroke="#bfbfbf" points="1095,-78.5 1095,-97.5 1295,-97.5 1295,-78.5 1095,-78.5"/>
<text text-anchor="middle" x="1195" y="-85.5" font-family="Helvetica,sans-Serif" font-size="10.00">geometry_msgs/TransformStamped.h</text>
</a>
</g>
</g>
<!-- Node2&#45;&gt;Node21 -->
<g id="edge21" class="edge">
<title>Node2&#45;&gt;Node21</title>
<path fill="none" stroke="midnightblue" d="M352.01,-135.24C355.04,-134.78 358.05,-134.36 361,-134 677.9,-94.87 762.36,-118.77 1084.83,-98.05"/>
<polygon fill="midnightblue" stroke="midnightblue" points="1085.18,-101.53 1094.93,-97.39 1084.72,-94.55 1085.18,-101.53"/>
</g>
<!-- Node4&#45;&gt;Node3 -->
<g id="edge4" class="edge">
<title>Node4&#45;&gt;Node3</title>
<path fill="none" stroke="midnightblue" d="M960.72,-86.01C788.13,-82.77 281.58,-70.98 119,-42 108.43,-40.12 97.16,-36.99 87.08,-33.77"/>
<polygon fill="midnightblue" stroke="midnightblue" points="88.05,-30.4 77.46,-30.55 85.83,-37.04 88.05,-30.4"/>
</g>
<!-- Node5 -->
<g id="node5" class="node">
<title>Node5</title>
<g id="a_node5"><a xlink:title=" ">
<polygon fill="none" stroke="#bfbfbf" points="1113.5,-11.5 1113.5,-30.5 1230.5,-30.5 1230.5,-11.5 1113.5,-11.5"/>
<text text-anchor="middle" x="1172" y="-18.5" font-family="Helvetica,sans-Serif" font-size="10.00">seerep_msgs/aabb.h</text>
</a>
</g>
</g>
<!-- Node4&#45;&gt;Node5 -->
<g id="edge5" class="edge">
<title>Node4&#45;&gt;Node5</title>
<path fill="none" stroke="midnightblue" d="M1039.32,-78.37C1065.72,-67.15 1112.03,-47.48 1142.36,-34.59"/>
<polygon fill="midnightblue" stroke="midnightblue" points="1143.76,-37.8 1151.6,-30.67 1141.03,-31.36 1143.76,-37.8"/>
</g>
<!-- Node6 -->
<g id="node6" class="node">
<title>Node6</title>
<g id="a_node6"><a xlink:title=" ">
<polygon fill="none" stroke="#bfbfbf" points="1248.5,-6 1248.5,-36 1369.5,-36 1369.5,-6 1248.5,-6"/>
<text text-anchor="start" x="1256.5" y="-24" font-family="Helvetica,sans-Serif" font-size="10.00">seerep_msgs/dataset</text>
<text text-anchor="middle" x="1309" y="-13" font-family="Helvetica,sans-Serif" font-size="10.00">_indexable.h</text>
</a>
</g>
</g>
<!-- Node4&#45;&gt;Node6 -->
<g id="edge6" class="edge">
<title>Node4&#45;&gt;Node6</title>
<path fill="none" stroke="midnightblue" d="M1066.67,-78.45C1111.6,-70.12 1180.69,-56.61 1240,-42 1244.09,-40.99 1248.3,-39.9 1252.52,-38.77"/>
<polygon fill="midnightblue" stroke="midnightblue" points="1253.65,-42.09 1262.37,-36.07 1251.8,-35.34 1253.65,-42.09"/>
</g>
<!-- Node7 -->
<g id="node7" class="node">
<title>Node7</title>
<g id="a_node7"><a xlink:title=" ">
<polygon fill="none" stroke="#bfbfbf" points="1388,-6 1388,-36 1514,-36 1514,-6 1388,-6"/>
<text text-anchor="start" x="1396" y="-24" font-family="Helvetica,sans-Serif" font-size="10.00">seerep_msgs/geodetic</text>
<text text-anchor="middle" x="1451" y="-13" font-family="Helvetica,sans-Serif" font-size="10.00">_coordinates.h</text>
</a>
</g>
</g>
<!-- Node4&#45;&gt;Node7 -->
<g id="edge7" class="edge">
<title>Node4&#45;&gt;Node7</title>
<path fill="none" stroke="midnightblue" d="M1077.1,-79.15C1080.11,-78.76 1083.09,-78.37 1086,-78 1216.13,-61.27 1250.33,-67.63 1379,-42 1384.04,-41 1389.24,-39.82 1394.44,-38.56"/>
<polygon fill="midnightblue" stroke="midnightblue" points="1395.55,-41.89 1404.38,-36.04 1393.83,-35.11 1395.55,-41.89"/>
</g>
<!-- Node8 -->
<g id="node8" class="node">
<title>Node8</title>
<g id="a_node8"><a xlink:title=" ">
<polygon fill="none" stroke="#bfbfbf" points="1532,-0.5 1532,-41.5 1648,-41.5 1648,-0.5 1532,-0.5"/>
<text text-anchor="start" x="1540" y="-29.5" font-family="Helvetica,sans-Serif" font-size="10.00">seerep_msgs/labels</text>
<text text-anchor="start" x="1540" y="-18.5" font-family="Helvetica,sans-Serif" font-size="10.00">_with_instance_with</text>
<text text-anchor="middle" x="1590" y="-7.5" font-family="Helvetica,sans-Serif" font-size="10.00">_category.h</text>
</a>
</g>
</g>
<!-- Node4&#45;&gt;Node8 -->
<g id="edge8" class="edge">
<title>Node4&#45;&gt;Node8</title>
<path fill="none" stroke="midnightblue" d="M1077.08,-79.01C1080.1,-78.66 1083.08,-78.32 1086,-78 1276.53,-57.37 1329.73,-77.38 1521.86,-42.02"/>
<polygon fill="midnightblue" stroke="midnightblue" points="1522.52,-45.45 1531.71,-40.18 1521.24,-38.57 1522.52,-45.45"/>
</g>
<!-- Node4&#45;&gt;Node9 -->
<g id="edge9" class="edge">
<title>Node4&#45;&gt;Node9</title>
<path fill="none" stroke="midnightblue" d="M960.88,-85.37C806.24,-80.74 387.26,-66.29 251,-42 240.1,-40.06 228.47,-36.91 218.05,-33.68"/>
<polygon fill="midnightblue" stroke="midnightblue" points="219.09,-30.34 208.5,-30.6 216.94,-37 219.09,-30.34"/>
</g>
<!-- Node10 -->
<g id="node10" class="node">
<title>Node10</title>
<g id="a_node10"><a xlink:title=" ">
<polygon fill="none" stroke="#bfbfbf" points="1666,-11.5 1666,-30.5 1714,-30.5 1714,-11.5 1666,-11.5"/>
<text text-anchor="middle" x="1690" y="-18.5" font-family="Helvetica,sans-Serif" font-size="10.00">mutex</text>
</a>
</g>
</g>
<!-- Node4&#45;&gt;Node10 -->
<g id="edge10" class="edge">
<title>Node4&#45;&gt;Node10</title>
<path fill="none" stroke="midnightblue" d="M1077.08,-78.94C1080.09,-78.61 1083.08,-78.29 1086,-78 1212.53,-65.53 1535.69,-80.05 1657,-42 1661.51,-40.59 1666.04,-38.43 1670.23,-36.06"/>
<polygon fill="midnightblue" stroke="midnightblue" points="1672.15,-38.98 1678.75,-30.69 1668.42,-33.06 1672.15,-38.98"/>
</g>
<!-- Node4&#45;&gt;Node11 -->
<g id="edge11" class="edge">
<title>Node4&#45;&gt;Node11</title>
<path fill="none" stroke="midnightblue" d="M960.82,-86.33C816.42,-84.18 444.73,-75.46 326,-42 320.67,-40.5 315.22,-38.18 310.19,-35.65"/>
<polygon fill="midnightblue" stroke="midnightblue" points="311.59,-32.42 301.14,-30.67 308.22,-38.56 311.59,-32.42"/>
</g>
<!-- Node12 -->
<g id="node12" class="node">
<title>Node12</title>
<g id="a_node12"><a xlink:title=" ">
<polygon fill="none" stroke="#bfbfbf" points="1732.5,-11.5 1732.5,-30.5 1801.5,-30.5 1801.5,-11.5 1732.5,-11.5"/>
<text text-anchor="middle" x="1767" y="-18.5" font-family="Helvetica,sans-Serif" font-size="10.00">type_traits</text>
</a>
</g>
</g>
<!-- Node4&#45;&gt;Node12 -->
<g id="edge12" class="edge">
<title>Node4&#45;&gt;Node12</title>
<path fill="none" stroke="midnightblue" d="M1077.07,-78.92C1080.09,-78.59 1083.08,-78.28 1086,-78 1368.28,-51.1 1447.67,-109.83 1723,-42 1729.52,-40.39 1736.27,-37.84 1742.46,-35.08"/>
<polygon fill="midnightblue" stroke="midnightblue" points="1744.12,-38.17 1751.62,-30.69 1741.09,-31.85 1744.12,-38.17"/>
</g>
<!-- Node13 -->
<g id="node13" class="node">
<title>Node13</title>
<g id="a_node13"><a xlink:title=" ">
<polygon fill="none" stroke="#bfbfbf" points="1819.5,-6 1819.5,-36 1964.5,-36 1964.5,-6 1819.5,-6"/>
<text text-anchor="start" x="1827.5" y="-24" font-family="Helvetica,sans-Serif" font-size="10.00">boost/log/sources/severity</text>
<text text-anchor="middle" x="1892" y="-13" font-family="Helvetica,sans-Serif" font-size="10.00">_logger.hpp</text>
</a>
</g>
</g>
<!-- Node4&#45;&gt;Node13 -->
<g id="edge13" class="edge">
<title>Node4&#45;&gt;Node13</title>
<path fill="none" stroke="midnightblue" d="M1077.07,-78.9C1080.09,-78.57 1083.08,-78.27 1086,-78 1407.27,-48.5 1491.81,-88.89 1811,-42 1817.64,-41.02 1824.54,-39.75 1831.37,-38.31"/>
<polygon fill="midnightblue" stroke="midnightblue" points="1832.31,-41.68 1841.31,-36.1 1830.79,-34.85 1832.31,-41.68"/>
</g>
<!-- Node14 -->
<g id="node14" class="node">
<title>Node14</title>
<g id="a_node14"><a xlink:title=" ">
<polygon fill="none" stroke="#bfbfbf" points="1983,-11.5 1983,-30.5 2097,-30.5 2097,-11.5 1983,-11.5"/>
<text text-anchor="middle" x="2040" y="-18.5" font-family="Helvetica,sans-Serif" font-size="10.00">boost/log/trivial.hpp</text>
</a>
</g>
</g>
<!-- Node4&#45;&gt;Node14 -->
<g id="edge14" class="edge">
<title>Node4&#45;&gt;Node14</title>
<path fill="none" stroke="midnightblue" d="M1077.07,-78.86C1080.09,-78.55 1083.08,-78.26 1086,-78 1479.5,-43.67 1584.53,-107.8 1974,-42 1985,-40.14 1996.74,-36.98 2007.23,-33.72"/>
<polygon fill="midnightblue" stroke="midnightblue" points="2008.4,-37.02 2016.83,-30.6 2006.23,-30.36 2008.4,-37.02"/>
</g>
<!-- Node15 -->
<g id="node15" class="node">
<title>Node15</title>
<g id="a_node15"><a xlink:title=" ">
<polygon fill="none" stroke="#bfbfbf" points="2115.5,-11.5 2115.5,-30.5 2258.5,-30.5 2258.5,-11.5 2115.5,-11.5"/>
<text text-anchor="middle" x="2187" y="-18.5" font-family="Helvetica,sans-Serif" font-size="10.00">boost/functional/hash.hpp</text>
</a>
</g>
</g>
<!-- Node4&#45;&gt;Node15 -->
<g id="edge15" class="edge">
<title>Node4&#45;&gt;Node15</title>
<path fill="none" stroke="midnightblue" d="M1077.07,-78.84C1080.08,-78.53 1083.08,-78.25 1086,-78 1538,-39.76 1656.74,-104.7 2106,-42 2120.06,-40.04 2135.23,-36.65 2148.59,-33.21"/>
<polygon fill="midnightblue" stroke="midnightblue" points="2149.65,-36.55 2158.42,-30.59 2147.85,-29.78 2149.65,-36.55"/>
</g>
<!-- Node16 -->
<g id="node16" class="node">
<title>Node16</title>
<g id="a_node16"><a xlink:title=" ">
<polygon fill="none" stroke="#bfbfbf" points="334.5,-11.5 334.5,-30.5 459.5,-30.5 459.5,-11.5 334.5,-11.5"/>
<text text-anchor="middle" x="397" y="-18.5" font-family="Helvetica,sans-Serif" font-size="10.00">boost/lexical_cast.hpp</text>
</a>
</g>
</g>
<!-- Node4&#45;&gt;Node16 -->
<g id="edge16" class="edge">
<title>Node4&#45;&gt;Node16</title>
<path fill="none" stroke="midnightblue" d="M960.73,-85.85C859.82,-83.05 646.32,-73.59 469,-42 457.05,-39.87 444.21,-36.63 432.74,-33.36"/>
<polygon fill="midnightblue" stroke="midnightblue" points="433.64,-29.98 423.06,-30.52 431.67,-36.7 433.64,-29.98"/>
</g>
<!-- Node17 -->
<g id="node17" class="node">
<title>Node17</title>
<g id="a_node17"><a xlink:title=" ">
<polygon fill="none" stroke="#bfbfbf" points="477.5,-11.5 477.5,-30.5 590.5,-30.5 590.5,-11.5 477.5,-11.5"/>
<text text-anchor="middle" x="534" y="-18.5" font-family="Helvetica,sans-Serif" font-size="10.00">boost/uuid/uuid.hpp</text>
</a>
</g>
</g>
<!-- Node4&#45;&gt;Node17 -->
<g id="edge17" class="edge">
<title>Node4&#45;&gt;Node17</title>
<path fill="none" stroke="midnightblue" d="M960.87,-84.2C879.48,-79.5 727.26,-67.88 600,-42 589.44,-39.85 578.15,-36.74 567.94,-33.61"/>
<polygon fill="midnightblue" stroke="midnightblue" points="568.76,-30.2 558.17,-30.51 566.64,-36.87 568.76,-30.2"/>
</g>
<!-- Node18 -->
<g id="node18" class="node">
<title>Node18</title>
<g id="a_node18"><a xlink:title=" ">
<polygon fill="none" stroke="#bfbfbf" points="609,-11.5 609,-30.5 779,-30.5 779,-11.5 609,-11.5"/>
<text text-anchor="middle" x="694" y="-18.5" font-family="Helvetica,sans-Serif" font-size="10.00">boost/uuid/uuid_generators.hpp</text>
</a>
</g>
</g>
<!-- Node4&#45;&gt;Node18 -->
<g id="edge18" class="edge">
<title>Node4&#45;&gt;Node18</title>
<path fill="none" stroke="midnightblue" d="M974.44,-78.48C928.08,-69.56 853.4,-55.08 789,-42 774.37,-39.03 758.5,-35.72 743.98,-32.66"/>
<polygon fill="midnightblue" stroke="midnightblue" points="744.7,-29.24 734.19,-30.59 743.25,-36.09 744.7,-29.24"/>
</g>
<!-- Node19 -->
<g id="node19" class="node">
<title>Node19</title>
<g id="a_node19"><a xlink:title=" ">
<polygon fill="none" stroke="#bfbfbf" points="797.5,-11.5 797.5,-30.5 924.5,-30.5 924.5,-11.5 797.5,-11.5"/>
<text text-anchor="middle" x="861" y="-18.5" font-family="Helvetica,sans-Serif" font-size="10.00">boost/uuid/uuid_io.hpp</text>
</a>
</g>
</g>
<!-- Node4&#45;&gt;Node19 -->
<g id="edge19" class="edge">
<title>Node4&#45;&gt;Node19</title>
<path fill="none" stroke="midnightblue" d="M998.02,-78.37C970.75,-67.15 922.93,-47.48 891.61,-34.59"/>
<polygon fill="midnightblue" stroke="midnightblue" points="892.65,-31.24 882.07,-30.67 889.98,-37.71 892.65,-31.24"/>
</g>
<!-- Node20 -->
<g id="node20" class="node">
<title>Node20</title>
<g id="a_node20"><a xlink:title=" ">
<polygon fill="none" stroke="#bfbfbf" points="943,-11.5 943,-30.5 1095,-30.5 1095,-11.5 943,-11.5"/>
<text text-anchor="middle" x="1019" y="-18.5" font-family="Helvetica,sans-Serif" font-size="10.00">impl/hdf5_core_general.hpp</text>
</a>
</g>
</g>
<!-- Node4&#45;&gt;Node20 -->
<g id="edge20" class="edge">
<title>Node4&#45;&gt;Node20</title>
<path fill="none" stroke="midnightblue" d="M1019,-78.23C1019,-68.68 1019,-53.12 1019,-40.78"/>
<polygon fill="midnightblue" stroke="midnightblue" points="1022.5,-40.63 1019,-30.63 1015.5,-40.63 1022.5,-40.63"/>
</g>
</g>
</svg>
