<?xml version="1.0" encoding="UTF-8" standalone="no"?>
<!DOCTYPE svg PUBLIC "-//W3C//DTD SVG 1.1//EN"
 "http://www.w3.org/Graphics/SVG/1.1/DTD/svg11.dtd">
<!-- Generated by graphviz version 2.43.0 (0)
 -->
<!-- Title: seerep&#45;hdf5/seerep&#45;hdf5&#45;pb/src/hdf5&#45;pb&#45;general.cpp Pages: 1 -->
<svg width="1449pt" height="251pt"
 viewBox="0.00 0.00 1449.00 251.00" xmlns="http://www.w3.org/2000/svg" xmlns:xlink="http://www.w3.org/1999/xlink">
<g id="graph0" class="graph" transform="scale(1 1) rotate(0) translate(4 247)">
<title>seerep&#45;hdf5/seerep&#45;hdf5&#45;pb/src/hdf5&#45;pb&#45;general.cpp</title>
<!-- Node1 -->
<g id="node1" class="node">
<title>Node1</title>
<g id="a_node1"><a xlink:title=" ">
<polygon fill="#bfbfbf" stroke="black" points="841,-201.5 841,-242.5 957,-242.5 957,-201.5 841,-201.5"/>
<text text-anchor="start" x="849" y="-230.5" font-family="Helvetica,sans-Serif" font-size="10.00">seerep&#45;hdf5/seerep</text>
<text text-anchor="start" x="849" y="-219.5" font-family="Helvetica,sans-Serif" font-size="10.00">&#45;hdf5&#45;pb/src/hdf5&#45;pb</text>
<text text-anchor="middle" x="899" y="-208.5" font-family="Helvetica,sans-Serif" font-size="10.00">&#45;general.cpp</text>
</a>
</g>
</g>
<!-- Node2 -->
<g id="node2" class="node">
<title>Node2</title>
<g id="a_node2"><a xlink:href="hdf5-pb-general_8h.html" target="_top" xlink:title=" ">
<polygon fill="none" stroke="black" points="770,-134.5 770,-164.5 886,-164.5 886,-134.5 770,-134.5"/>
<text text-anchor="start" x="778" y="-152.5" font-family="Helvetica,sans-Serif" font-size="10.00">seerep&#45;hdf5&#45;pb/hdf5</text>
<text text-anchor="middle" x="828" y="-141.5" font-family="Helvetica,sans-Serif" font-size="10.00">&#45;pb&#45;general.h</text>
</a>
</g>
</g>
<!-- Node1&#45;&gt;Node2 -->
<g id="edge1" class="edge">
<title>Node1&#45;&gt;Node2</title>
<path fill="none" stroke="midnightblue" d="M879.22,-201.36C870.03,-192.23 859.07,-181.35 849.65,-172"/>
<polygon fill="midnightblue" stroke="midnightblue" points="852.06,-169.45 842.49,-164.89 847.12,-174.42 852.06,-169.45"/>
</g>
<!-- Node17 -->
<g id="node17" class="node">
<title>Node17</title>
<g id="a_node17"><a xlink:title=" ">
<polygon fill="none" stroke="#bfbfbf" points="904,-140 904,-159 1036,-159 1036,-140 904,-140"/>
<text text-anchor="middle" x="970" y="-147" font-family="Helvetica,sans-Serif" font-size="10.00">highfive/H5DataSet.hpp</text>
</a>
</g>
</g>
<!-- Node1&#45;&gt;Node17 -->
<g id="edge21" class="edge">
<title>Node1&#45;&gt;Node17</title>
<path fill="none" stroke="midnightblue" d="M918.78,-201.36C929.89,-190.32 943.59,-176.72 954.02,-166.37"/>
<polygon fill="midnightblue" stroke="midnightblue" points="956.64,-168.7 961.27,-159.17 951.7,-163.74 956.64,-168.7"/>
</g>
<!-- Node3 -->
<g id="node3" class="node">
<title>Node3</title>
<g id="a_node3"><a xlink:title=" ">
<polygon fill="none" stroke="#bfbfbf" points="0,-6 0,-25 110,-25 110,-6 0,-6"/>
<text text-anchor="middle" x="55" y="-13" font-family="Helvetica,sans-Serif" font-size="10.00">highfive/H5File.hpp</text>
</a>
</g>
</g>
<!-- Node2&#45;&gt;Node3 -->
<g id="edge2" class="edge">
<title>Node2&#45;&gt;Node3</title>
<path fill="none" stroke="midnightblue" d="M769.74,-143.21C689.68,-135.52 541.32,-119.76 416,-98 282.68,-74.85 250.99,-60.84 119,-31 113.65,-29.79 108.05,-28.52 102.49,-27.26"/>
<polygon fill="midnightblue" stroke="midnightblue" points="103.09,-23.81 92.56,-25.02 101.54,-30.64 103.09,-23.81"/>
</g>
<!-- Node4 -->
<g id="node4" class="node">
<title>Node4</title>
<g id="a_node4"><a xlink:href="hdf5-core-general_8h.html" target="_top" xlink:title=" ">
<polygon fill="none" stroke="black" points="577.5,-67.5 577.5,-97.5 702.5,-97.5 702.5,-67.5 577.5,-67.5"/>
<text text-anchor="start" x="585.5" y="-85.5" font-family="Helvetica,sans-Serif" font-size="10.00">seerep&#45;hdf5&#45;core/hdf5</text>
<text text-anchor="middle" x="640" y="-74.5" font-family="Helvetica,sans-Serif" font-size="10.00">&#45;core&#45;general.h</text>
</a>
</g>
</g>
<!-- Node2&#45;&gt;Node4 -->
<g id="edge3" class="edge">
<title>Node2&#45;&gt;Node4</title>
<path fill="none" stroke="midnightblue" d="M787.21,-134.4C758.75,-124.56 720.6,-111.37 690.27,-100.88"/>
<polygon fill="midnightblue" stroke="midnightblue" points="691.31,-97.54 680.71,-97.58 689.02,-104.15 691.31,-97.54"/>
</g>
<!-- Node7 -->
<g id="node7" class="node">
<title>Node7</title>
<g id="a_node7"><a xlink:title=" ">
<polygon fill="none" stroke="#bfbfbf" points="128.5,-6 128.5,-25 241.5,-25 241.5,-6 128.5,-6"/>
<text text-anchor="middle" x="185" y="-13" font-family="Helvetica,sans-Serif" font-size="10.00">boost/geometry.hpp</text>
</a>
</g>
</g>
<!-- Node2&#45;&gt;Node7 -->
<g id="edge15" class="edge">
<title>Node2&#45;&gt;Node7</title>
<path fill="none" stroke="midnightblue" d="M769.86,-137.48C717.14,-127.42 637.29,-112.03 568,-98 426.44,-69.34 391.15,-61.61 250,-31 244.35,-29.78 238.44,-28.48 232.57,-27.18"/>
<polygon fill="midnightblue" stroke="midnightblue" points="233.31,-23.76 222.79,-25.01 231.8,-30.59 233.31,-23.76"/>
</g>
<!-- Node9 -->
<g id="node9" class="node">
<title>Node9</title>
<g id="a_node9"><a xlink:title=" ">
<polygon fill="none" stroke="#bfbfbf" points="764,-6 764,-25 820,-25 820,-6 764,-6"/>
<text text-anchor="middle" x="792" y="-13" font-family="Helvetica,sans-Serif" font-size="10.00">optional</text>
</a>
</g>
</g>
<!-- Node2&#45;&gt;Node9 -->
<g id="edge17" class="edge">
<title>Node2&#45;&gt;Node9</title>
<path fill="none" stroke="midnightblue" d="M815.56,-134.14C808.09,-124.58 799.25,-111.37 795,-98 788.45,-77.39 788.65,-52.36 789.87,-35.52"/>
<polygon fill="midnightblue" stroke="midnightblue" points="793.38,-35.61 790.82,-25.33 786.41,-34.96 793.38,-35.61"/>
</g>
<!-- Node10 -->
<g id="node10" class="node">
<title>Node10</title>
<g id="a_node10"><a xlink:title=" ">
<polygon fill="none" stroke="#bfbfbf" points="838.5,-0.5 838.5,-30.5 983.5,-30.5 983.5,-0.5 838.5,-0.5"/>
<text text-anchor="start" x="846.5" y="-18.5" font-family="Helvetica,sans-Serif" font-size="10.00">boost/log/sources/severity</text>
<text text-anchor="middle" x="911" y="-7.5" font-family="Helvetica,sans-Serif" font-size="10.00">_logger.hpp</text>
</a>
</g>
</g>
<!-- Node2&#45;&gt;Node10 -->
<g id="edge18" class="edge">
<title>Node2&#45;&gt;Node10</title>
<path fill="none" stroke="midnightblue" d="M825.24,-134.43C822.65,-117.26 820.77,-87.93 833,-67 840.74,-53.76 853.48,-43.39 866.45,-35.58"/>
<polygon fill="midnightblue" stroke="midnightblue" points="868.38,-38.51 875.41,-30.58 864.97,-32.4 868.38,-38.51"/>
</g>
<!-- Node11 -->
<g id="node11" class="node">
<title>Node11</title>
<g id="a_node11"><a xlink:title=" ">
<polygon fill="none" stroke="#bfbfbf" points="1002,-6 1002,-25 1116,-25 1116,-6 1002,-6"/>
<text text-anchor="middle" x="1059" y="-13" font-family="Helvetica,sans-Serif" font-size="10.00">boost/log/trivial.hpp</text>
</a>
</g>
</g>
<!-- Node2&#45;&gt;Node11 -->
<g id="edge19" class="edge">
<title>Node2&#45;&gt;Node11</title>
<path fill="none" stroke="midnightblue" d="M830.7,-134.44C834.97,-116.16 845.02,-84.5 866,-67 871.76,-62.2 958.09,-40.77 1013.32,-27.42"/>
<polygon fill="midnightblue" stroke="midnightblue" points="1014.34,-30.77 1023.24,-25.03 1012.7,-23.97 1014.34,-30.77"/>
</g>
<!-- Node13 -->
<g id="node13" class="node">
<title>Node13</title>
<g id="a_node13"><a xlink:title=" ">
<polygon fill="none" stroke="#bfbfbf" points="875,-67.5 875,-97.5 1033,-97.5 1033,-67.5 875,-67.5"/>
<text text-anchor="start" x="883" y="-85.5" font-family="Helvetica,sans-Serif" font-size="10.00">seerep&#45;msgs/boundingbox2d</text>
<text text-anchor="middle" x="954" y="-74.5" font-family="Helvetica,sans-Serif" font-size="10.00">_labeled.pb.h</text>
</a>
</g>
</g>
<!-- Node2&#45;&gt;Node13 -->
<g id="edge13" class="edge">
<title>Node2&#45;&gt;Node13</title>
<path fill="none" stroke="midnightblue" d="M855.34,-134.4C873.59,-124.98 897.78,-112.5 917.64,-102.26"/>
<polygon fill="midnightblue" stroke="midnightblue" points="919.43,-105.27 926.71,-97.58 916.22,-99.05 919.43,-105.27"/>
</g>
<!-- Node14 -->
<g id="node14" class="node">
<title>Node14</title>
<g id="a_node14"><a xlink:title=" ">
<polygon fill="none" stroke="#bfbfbf" points="1051,-67.5 1051,-97.5 1197,-97.5 1197,-67.5 1051,-67.5"/>
<text text-anchor="start" x="1059" y="-85.5" font-family="Helvetica,sans-Serif" font-size="10.00">seerep&#45;msgs/boundingbox</text>
<text text-anchor="middle" x="1124" y="-74.5" font-family="Helvetica,sans-Serif" font-size="10.00">_labeled.pb.h</text>
</a>
</g>
</g>
<!-- Node2&#45;&gt;Node14 -->
<g id="edge14" class="edge">
<title>Node2&#45;&gt;Node14</title>
<path fill="none" stroke="midnightblue" d="M886.13,-135.74C933.09,-125.42 999.47,-110.85 1050.18,-99.71"/>
<polygon fill="midnightblue" stroke="midnightblue" points="1051.09,-103.09 1060.11,-97.53 1049.59,-96.26 1051.09,-103.09"/>
</g>
<!-- Node15 -->
<g id="node15" class="node">
<title>Node15</title>
<g id="a_node15"><a xlink:title=" ">
<polygon fill="none" stroke="#bfbfbf" points="1215,-73 1215,-92 1283,-92 1283,-73 1215,-73"/>
<text text-anchor="middle" x="1249" y="-80" font-family="Helvetica,sans-Serif" font-size="10.00">filesystem</text>
</a>
</g>
</g>
<!-- Node2&#45;&gt;Node15 -->
<g id="edge16" class="edge">
<title>Node2&#45;&gt;Node15</title>
<path fill="none" stroke="midnightblue" d="M886.04,-135.58C889.06,-135.02 892.06,-134.49 895,-134 1032.27,-111.26 1070.22,-128.4 1206,-98 1209.49,-97.22 1213.09,-96.26 1216.66,-95.21"/>
<polygon fill="midnightblue" stroke="midnightblue" points="1218.02,-98.45 1226.49,-92.08 1215.9,-91.78 1218.02,-98.45"/>
</g>
<!-- Node16 -->
<g id="node16" class="node">
<title>Node16</title>
<g id="a_node16"><a xlink:title=" ">
<polygon fill="none" stroke="#bfbfbf" points="1301,-73 1301,-92 1441,-92 1441,-73 1301,-73"/>
<text text-anchor="middle" x="1371" y="-80" font-family="Helvetica,sans-Serif" font-size="10.00">impl/hdf5&#45;pb&#45;general.hpp</text>
</a>
</g>
</g>
<!-- Node2&#45;&gt;Node16 -->
<g id="edge20" class="edge">
<title>Node2&#45;&gt;Node16</title>
<path fill="none" stroke="midnightblue" d="M886.02,-135.49C889.05,-134.95 892.06,-134.45 895,-134 1070.13,-107.21 1116.47,-122.02 1292,-98 1300.63,-96.82 1309.76,-95.35 1318.62,-93.81"/>
<polygon fill="midnightblue" stroke="midnightblue" points="1319.25,-97.25 1328.47,-92.04 1318.01,-90.36 1319.25,-97.25"/>
</g>
<!-- Node4&#45;&gt;Node3 -->
<g id="edge4" class="edge">
<title>Node4&#45;&gt;Node3</title>
<path fill="none" stroke="midnightblue" d="M577.12,-77.97C478.87,-71.89 283.19,-57.45 119,-31 112.58,-29.97 105.84,-28.67 99.24,-27.28"/>
<polygon fill="midnightblue" stroke="midnightblue" points="99.57,-23.77 89.06,-25.05 98.07,-30.61 99.57,-23.77"/>
</g>
<!-- Node5 -->
<g id="node5" class="node">
<title>Node5</title>
<g id="a_node5"><a xlink:title=" ">
<polygon fill="none" stroke="#bfbfbf" points="426,-6 426,-25 542,-25 542,-6 426,-6"/>
<text text-anchor="middle" x="484" y="-13" font-family="Helvetica,sans-Serif" font-size="10.00">seerep&#45;msgs/aabb.h</text>
</a>
</g>
</g>
<!-- Node4&#45;&gt;Node5 -->
<g id="edge5" class="edge">
<title>Node4&#45;&gt;Node5</title>
<path fill="none" stroke="midnightblue" d="M606.15,-67.4C578.66,-55.94 540.25,-39.94 513.89,-28.95"/>
<polygon fill="midnightblue" stroke="midnightblue" points="514.99,-25.62 504.42,-25.01 512.3,-32.08 514.99,-25.62"/>
</g>
<!-- Node6 -->
<g id="node6" class="node">
<title>Node6</title>
<g id="a_node6"><a xlink:title=" ">
<polygon fill="none" stroke="#bfbfbf" points="560.5,-0.5 560.5,-30.5 679.5,-30.5 679.5,-0.5 560.5,-0.5"/>
<text text-anchor="start" x="568.5" y="-18.5" font-family="Helvetica,sans-Serif" font-size="10.00">seerep&#45;msgs/dataset</text>
<text text-anchor="middle" x="620" y="-7.5" font-family="Helvetica,sans-Serif" font-size="10.00">&#45;indexable.h</text>
</a>
</g>
</g>
<!-- Node4&#45;&gt;Node6 -->
<g id="edge6" class="edge">
<title>Node4&#45;&gt;Node6</title>
<path fill="none" stroke="midnightblue" d="M635.66,-67.4C633.22,-59.47 630.12,-49.38 627.31,-40.27"/>
<polygon fill="midnightblue" stroke="midnightblue" points="630.62,-39.1 624.33,-30.58 623.93,-41.16 630.62,-39.1"/>
</g>
<!-- Node4&#45;&gt;Node7 -->
<g id="edge7" class="edge">
<title>Node4&#45;&gt;Node7</title>
<path fill="none" stroke="midnightblue" d="M577.25,-75.15C499.97,-66.92 364.81,-51.2 250,-31 243.72,-29.9 237.14,-28.59 230.66,-27.23"/>
<polygon fill="midnightblue" stroke="midnightblue" points="231.16,-23.76 220.64,-25.06 229.68,-30.6 231.16,-23.76"/>
</g>
<!-- Node8 -->
<g id="node8" class="node">
<title>Node8</title>
<g id="a_node8"><a xlink:title=" ">
<polygon fill="none" stroke="#bfbfbf" points="698,-6 698,-25 746,-25 746,-6 698,-6"/>
<text text-anchor="middle" x="722" y="-13" font-family="Helvetica,sans-Serif" font-size="10.00">mutex</text>
</a>
</g>
</g>
<!-- Node4&#45;&gt;Node8 -->
<g id="edge8" class="edge">
<title>Node4&#45;&gt;Node8</title>
<path fill="none" stroke="midnightblue" d="M657.79,-67.4C671.08,-56.86 689.23,-42.48 702.84,-31.69"/>
<polygon fill="midnightblue" stroke="midnightblue" points="705.37,-34.15 711.03,-25.19 701.02,-28.66 705.37,-34.15"/>
</g>
<!-- Node4&#45;&gt;Node9 -->
<g id="edge9" class="edge">
<title>Node4&#45;&gt;Node9</title>
<path fill="none" stroke="midnightblue" d="M672.98,-67.4C699.77,-55.94 737.19,-39.94 762.88,-28.95"/>
<polygon fill="midnightblue" stroke="midnightblue" points="764.29,-32.16 772.11,-25.01 761.54,-25.72 764.29,-32.16"/>
</g>
<!-- Node4&#45;&gt;Node10 -->
<g id="edge10" class="edge">
<title>Node4&#45;&gt;Node10</title>
<path fill="none" stroke="midnightblue" d="M698.47,-67.48C740.71,-57.34 797.9,-43.63 842.32,-32.97"/>
<polygon fill="midnightblue" stroke="midnightblue" points="843.26,-36.35 852.17,-30.61 841.63,-29.54 843.26,-36.35"/>
</g>
<!-- Node4&#45;&gt;Node11 -->
<g id="edge11" class="edge">
<title>Node4&#45;&gt;Node11</title>
<path fill="none" stroke="midnightblue" d="M702.72,-73.95C773.47,-65.11 891.88,-49.32 993,-31 999.29,-29.86 1005.89,-28.55 1012.38,-27.19"/>
<polygon fill="midnightblue" stroke="midnightblue" points="1013.4,-30.56 1022.44,-25.04 1011.93,-23.71 1013.4,-30.56"/>
</g>
<!-- Node12 -->
<g id="node12" class="node">
<title>Node12</title>
<g id="a_node12"><a xlink:title=" ">
<polygon fill="none" stroke="#bfbfbf" points="259.5,-6 259.5,-25 408.5,-25 408.5,-6 259.5,-6"/>
<text text-anchor="middle" x="334" y="-13" font-family="Helvetica,sans-Serif" font-size="10.00">impl/hdf5&#45;core&#45;general.hpp</text>
</a>
</g>
</g>
<!-- Node4&#45;&gt;Node12 -->
<g id="edge12" class="edge">
<title>Node4&#45;&gt;Node12</title>
<path fill="none" stroke="midnightblue" d="M577.34,-68.19C520.17,-56.05 436.8,-38.34 383.99,-27.12"/>
<polygon fill="midnightblue" stroke="midnightblue" points="384.69,-23.69 374.18,-25.03 383.23,-30.54 384.69,-23.69"/>
</g>
</g>
</svg>
