<?xml version="1.0" encoding="UTF-8" standalone="no"?>
<!DOCTYPE svg PUBLIC "-//W3C//DTD SVG 1.1//EN"
 "http://www.w3.org/Graphics/SVG/1.1/DTD/svg11.dtd">
<!-- Generated by graphviz version 2.43.0 (0)
 -->
<!-- Title: seerep_hdf5/seerep_hdf5_fb/include/seerep_hdf5_fb/hdf5_fb_pointcloud.h Pages: 1 -->
<svg width="3504pt" height="273pt"
 viewBox="0.00 0.00 3503.50 273.00" xmlns="http://www.w3.org/2000/svg" xmlns:xlink="http://www.w3.org/1999/xlink">
<g id="graph0" class="graph" transform="scale(1 1) rotate(0) translate(4 269)">
<title>seerep_hdf5/seerep_hdf5_fb/include/seerep_hdf5_fb/hdf5_fb_pointcloud.h</title>
<!-- Node1 -->
<g id="node1" class="node">
<title>Node1</title>
<g id="a_node1"><a xlink:title=" ">
<polygon fill="#bfbfbf" stroke="black" points="2649.5,-223.5 2649.5,-264.5 2813.5,-264.5 2813.5,-223.5 2649.5,-223.5"/>
<text text-anchor="start" x="2657.5" y="-252.5" font-family="Helvetica,sans-Serif" font-size="10.00">seerep_hdf5/seerep</text>
<text text-anchor="start" x="2657.5" y="-241.5" font-family="Helvetica,sans-Serif" font-size="10.00">_hdf5_fb/include/seerep</text>
<text text-anchor="middle" x="2731.5" y="-230.5" font-family="Helvetica,sans-Serif" font-size="10.00">_hdf5_fb/hdf5_fb_pointcloud.h</text>
</a>
</g>
</g>
<!-- Node2 -->
<g id="node2" class="node">
<title>Node2</title>
<g id="a_node2"><a xlink:title=" ">
<polygon fill="none" stroke="#bfbfbf" points="2388.5,-11.5 2388.5,-30.5 2498.5,-30.5 2498.5,-11.5 2388.5,-11.5"/>
<text text-anchor="middle" x="2443.5" y="-18.5" font-family="Helvetica,sans-Serif" font-size="10.00">highfive/H5File.hpp</text>
</a>
</g>
</g>
<!-- Node1&#45;&gt;Node2 -->
<g id="edge1" class="edge">
<title>Node1&#45;&gt;Node2</title>
<path fill="none" stroke="midnightblue" d="M2723.17,-223.5C2704.91,-180.93 2662.51,-83.07 2656.5,-78 2633.87,-58.91 2560.67,-42.43 2506.37,-32.38"/>
<polygon fill="midnightblue" stroke="midnightblue" points="2506.93,-28.92 2496.47,-30.58 2505.68,-35.81 2506.93,-28.92"/>
</g>
<!-- Node3 -->
<g id="node3" class="node">
<title>Node3</title>
<g id="a_node3"><a xlink:href="hdf5__core__point__cloud_8h.html" target="_top" xlink:title=" ">
<polygon fill="none" stroke="black" points="536.5,-156.5 536.5,-186.5 664.5,-186.5 664.5,-156.5 536.5,-156.5"/>
<text text-anchor="start" x="544.5" y="-174.5" font-family="Helvetica,sans-Serif" font-size="10.00">seerep_hdf5_core/hdf5</text>
<text text-anchor="middle" x="600.5" y="-163.5" font-family="Helvetica,sans-Serif" font-size="10.00">_core_point_cloud.h</text>
</a>
</g>
</g>
<!-- Node1&#45;&gt;Node3 -->
<g id="edge2" class="edge">
<title>Node1&#45;&gt;Node3</title>
<path fill="none" stroke="midnightblue" d="M2649.27,-240.28C2307.44,-228.97 1001.46,-185.77 674.87,-174.96"/>
<polygon fill="midnightblue" stroke="midnightblue" points="674.69,-171.45 664.58,-174.62 674.46,-178.45 674.69,-171.45"/>
</g>
<!-- Node7 -->
<g id="node7" class="node">
<title>Node7</title>
<g id="a_node7"><a xlink:title=" ">
<polygon fill="none" stroke="#bfbfbf" points="139.5,-11.5 139.5,-30.5 195.5,-30.5 195.5,-11.5 139.5,-11.5"/>
<text text-anchor="middle" x="167.5" y="-18.5" font-family="Helvetica,sans-Serif" font-size="10.00">optional</text>
</a>
</g>
</g>
<!-- Node1&#45;&gt;Node7 -->
<g id="edge63" class="edge">
<title>Node1&#45;&gt;Node7</title>
<path fill="none" stroke="midnightblue" d="M2649.29,-242.92C2301.58,-242.25 950.2,-236.48 527.5,-187 384.04,-170.21 321.19,-211.58 209.5,-120 185.01,-99.92 174.49,-62.91 170.21,-40.56"/>
<polygon fill="midnightblue" stroke="midnightblue" points="173.66,-39.93 168.54,-30.65 166.75,-41.09 173.66,-39.93"/>
</g>
<!-- Node12 -->
<g id="node12" class="node">
<title>Node12</title>
<g id="a_node12"><a xlink:title=" ">
<polygon fill="none" stroke="#bfbfbf" points="2584,-11.5 2584,-30.5 2697,-30.5 2697,-11.5 2584,-11.5"/>
<text text-anchor="middle" x="2640.5" y="-18.5" font-family="Helvetica,sans-Serif" font-size="10.00">boost/geometry.hpp</text>
</a>
</g>
</g>
<!-- Node1&#45;&gt;Node12 -->
<g id="edge62" class="edge">
<title>Node1&#45;&gt;Node12</title>
<path fill="none" stroke="midnightblue" d="M2727.05,-223.43C2719.39,-191.73 2702.04,-127.68 2676.5,-78 2669.55,-64.48 2660.24,-50.08 2652.83,-39.26"/>
<polygon fill="midnightblue" stroke="midnightblue" points="2655.51,-36.99 2646.92,-30.8 2649.78,-41 2655.51,-36.99"/>
</g>
<!-- Node22 -->
<g id="node22" class="node">
<title>Node22</title>
<g id="a_node22"><a xlink:href="hdf5__fb__general_8h.html" target="_top" xlink:title=" ">
<polygon fill="none" stroke="black" points="1815.5,-162 1815.5,-181 1919.5,-181 1919.5,-162 1815.5,-162"/>
<text text-anchor="middle" x="1867.5" y="-169" font-family="Helvetica,sans-Serif" font-size="10.00">hdf5_fb_general.h</text>
</a>
</g>
</g>
<!-- Node1&#45;&gt;Node22 -->
<g id="edge34" class="edge">
<title>Node1&#45;&gt;Node22</title>
<path fill="none" stroke="midnightblue" d="M2649.44,-236.3C2477.53,-222.28 2082.84,-190.07 1929.77,-177.58"/>
<polygon fill="midnightblue" stroke="midnightblue" points="1929.86,-174.08 1919.61,-176.75 1929.29,-181.05 1929.86,-174.08"/>
</g>
<!-- Node34 -->
<g id="node34" class="node">
<title>Node34</title>
<g id="a_node34"><a xlink:href="hdf5__fb__point__cloud2__iterator_8h.html" target="_top" xlink:title=" ">
<polygon fill="none" stroke="black" points="3031,-156.5 3031,-186.5 3152,-186.5 3152,-156.5 3031,-156.5"/>
<text text-anchor="start" x="3039" y="-174.5" font-family="Helvetica,sans-Serif" font-size="10.00">hdf5_fb_point_cloud2</text>
<text text-anchor="middle" x="3091.5" y="-163.5" font-family="Helvetica,sans-Serif" font-size="10.00">_iterator.h</text>
</a>
</g>
</g>
<!-- Node1&#45;&gt;Node34 -->
<g id="edge53" class="edge">
<title>Node1&#45;&gt;Node34</title>
<path fill="none" stroke="midnightblue" d="M2813.64,-226.91C2876.12,-214.68 2961.2,-198.02 3020.7,-186.37"/>
<polygon fill="midnightblue" stroke="midnightblue" points="3021.62,-189.75 3030.76,-184.4 3020.27,-182.88 3021.62,-189.75"/>
</g>
<!-- Node36 -->
<g id="node36" class="node">
<title>Node36</title>
<g id="a_node36"><a xlink:title=" ">
<polygon fill="none" stroke="#bfbfbf" points="2797.5,-84 2797.5,-114 2937.5,-114 2937.5,-84 2797.5,-84"/>
<text text-anchor="start" x="2805.5" y="-102" font-family="Helvetica,sans-Serif" font-size="10.00">seerep_msgs/point_cloud</text>
<text text-anchor="middle" x="2867.5" y="-91" font-family="Helvetica,sans-Serif" font-size="10.00">_2_generated.h</text>
</a>
</g>
</g>
<!-- Node1&#45;&gt;Node36 -->
<g id="edge60" class="edge">
<title>Node1&#45;&gt;Node36</title>
<path fill="none" stroke="midnightblue" d="M2750.13,-223.42C2775.42,-196.82 2820.48,-149.44 2846.81,-121.76"/>
<polygon fill="midnightblue" stroke="midnightblue" points="2849.66,-123.84 2854.02,-114.18 2844.59,-119.01 2849.66,-123.84"/>
</g>
<!-- Node41 -->
<g id="node41" class="node">
<title>Node41</title>
<g id="a_node41"><a xlink:title=" ">
<polygon fill="none" stroke="#bfbfbf" points="3170,-156.5 3170,-186.5 3305,-186.5 3305,-156.5 3170,-156.5"/>
<text text-anchor="start" x="3178" y="-174.5" font-family="Helvetica,sans-Serif" font-size="10.00">seerep_com/point_cloud</text>
<text text-anchor="middle" x="3237.5" y="-163.5" font-family="Helvetica,sans-Serif" font-size="10.00">_service.grpc.fb.h</text>
</a>
</g>
</g>
<!-- Node1&#45;&gt;Node41 -->
<g id="edge61" class="edge">
<title>Node1&#45;&gt;Node41</title>
<path fill="none" stroke="midnightblue" d="M2813.74,-233.75C2898.15,-223.93 3033.52,-207.25 3159.76,-187.23"/>
<polygon fill="midnightblue" stroke="midnightblue" points="3160.67,-190.63 3169.99,-185.59 3159.56,-183.71 3160.67,-190.63"/>
</g>
<!-- Node3&#45;&gt;Node2 -->
<g id="edge3" class="edge">
<title>Node3&#45;&gt;Node2</title>
<path fill="none" stroke="midnightblue" d="M664.73,-167.4C716.88,-162.61 790.94,-150.5 848.5,-120 872.11,-107.49 866.9,-88.41 891.5,-78 960.81,-48.69 2170.4,-46.78 2245.5,-42 2289.81,-39.18 2339.53,-34.15 2378.07,-29.84"/>
<polygon fill="midnightblue" stroke="midnightblue" points="2378.57,-33.3 2388.12,-28.7 2377.79,-26.35 2378.57,-33.3"/>
</g>
<!-- Node4 -->
<g id="node4" class="node">
<title>Node4</title>
<g id="a_node4"><a xlink:href="hdf5__core__datatype__interface_8h.html" target="_top" xlink:title=" ">
<polygon fill="none" stroke="black" points="219,-84 219,-114 332,-114 332,-84 219,-84"/>
<text text-anchor="start" x="227" y="-102" font-family="Helvetica,sans-Serif" font-size="10.00">hdf5_core_datatype</text>
<text text-anchor="middle" x="275.5" y="-91" font-family="Helvetica,sans-Serif" font-size="10.00">_interface.h</text>
</a>
</g>
</g>
<!-- Node3&#45;&gt;Node4 -->
<g id="edge4" class="edge">
<title>Node3&#45;&gt;Node4</title>
<path fill="none" stroke="midnightblue" d="M536.29,-156.57C480.18,-144.4 399.04,-126.8 342.21,-114.47"/>
<polygon fill="midnightblue" stroke="midnightblue" points="342.76,-111.01 332.24,-112.31 341.27,-117.85 342.76,-111.01"/>
</g>
<!-- Node5 -->
<g id="node5" class="node">
<title>Node5</title>
<g id="a_node5"><a xlink:title=" ">
<polygon fill="none" stroke="#bfbfbf" points="0,-6 0,-36 121,-36 121,-6 0,-6"/>
<text text-anchor="start" x="8" y="-24" font-family="Helvetica,sans-Serif" font-size="10.00">seerep_msgs/dataset</text>
<text text-anchor="middle" x="60.5" y="-13" font-family="Helvetica,sans-Serif" font-size="10.00">_indexable.h</text>
</a>
</g>
</g>
<!-- Node3&#45;&gt;Node5 -->
<g id="edge26" class="edge">
<title>Node3&#45;&gt;Node5</title>
<path fill="none" stroke="midnightblue" d="M536.45,-170.96C457.23,-169.58 319.4,-160.75 209.5,-120 161.09,-102.05 112.53,-65.9 84.55,-42.88"/>
<polygon fill="midnightblue" stroke="midnightblue" points="86.47,-39.92 76.55,-36.19 81.98,-45.29 86.47,-39.92"/>
</g>
<!-- Node6 -->
<g id="node6" class="node">
<title>Node6</title>
<g id="a_node6"><a xlink:title=" ">
<polygon fill="none" stroke="#bfbfbf" points="214,-11.5 214,-30.5 327,-30.5 327,-11.5 214,-11.5"/>
<text text-anchor="middle" x="270.5" y="-18.5" font-family="Helvetica,sans-Serif" font-size="10.00">boost/uuid/uuid.hpp</text>
</a>
</g>
</g>
<!-- Node3&#45;&gt;Node6 -->
<g id="edge31" class="edge">
<title>Node3&#45;&gt;Node6</title>
<path fill="none" stroke="midnightblue" d="M569.9,-156.48C548.02,-146.42 517.89,-132.48 491.5,-120 452.69,-101.64 443.66,-95.62 404.5,-78 369.48,-62.24 328.7,-45.42 301.41,-34.37"/>
<polygon fill="midnightblue" stroke="midnightblue" points="302.59,-31.07 292,-30.57 299.97,-37.56 302.59,-31.07"/>
</g>
<!-- Node3&#45;&gt;Node7 -->
<g id="edge28" class="edge">
<title>Node3&#45;&gt;Node7</title>
<path fill="none" stroke="midnightblue" d="M536.06,-159.46C496.93,-151.41 446.6,-138.62 404.5,-120 373.39,-106.24 371.57,-91.87 340.5,-78 283.4,-52.52 262.63,-65.03 204.5,-42 199.82,-40.15 194.99,-37.84 190.41,-35.47"/>
<polygon fill="midnightblue" stroke="midnightblue" points="191.98,-32.34 181.53,-30.6 188.62,-38.48 191.98,-32.34"/>
</g>
<!-- Node8 -->
<g id="node8" class="node">
<title>Node8</title>
<g id="a_node8"><a xlink:href="hdf5__core__general_8h.html" target="_top" xlink:title=" ">
<polygon fill="none" stroke="black" points="723.5,-89.5 723.5,-108.5 839.5,-108.5 839.5,-89.5 723.5,-89.5"/>
<text text-anchor="middle" x="781.5" y="-96.5" font-family="Helvetica,sans-Serif" font-size="10.00">hdf5_core_general.h</text>
</a>
</g>
</g>
<!-- Node3&#45;&gt;Node8 -->
<g id="edge8" class="edge">
<title>Node3&#45;&gt;Node8</title>
<path fill="none" stroke="midnightblue" d="M636.69,-156.4C669.83,-143.49 718.39,-124.58 749.97,-112.28"/>
<polygon fill="midnightblue" stroke="midnightblue" points="751.54,-115.42 759.59,-108.53 749,-108.9 751.54,-115.42"/>
</g>
<!-- Node3&#45;&gt;Node12 -->
<g id="edge27" class="edge">
<title>Node3&#45;&gt;Node12</title>
<path fill="none" stroke="midnightblue" d="M664.65,-162.35C722.67,-154.21 810.15,-140.02 884.5,-120 937.04,-105.85 946.04,-88.12 999.5,-78 1328.86,-15.68 2173.55,-70.98 2507.5,-42 2532.53,-39.83 2560.01,-35.95 2583.46,-32.18"/>
<polygon fill="midnightblue" stroke="midnightblue" points="2584.28,-35.59 2593.58,-30.52 2583.15,-28.69 2584.28,-35.59"/>
</g>
<!-- Node17 -->
<g id="node17" class="node">
<title>Node17</title>
<g id="a_node17"><a xlink:title=" ">
<polygon fill="none" stroke="#bfbfbf" points="534,-11.5 534,-30.5 677,-30.5 677,-11.5 534,-11.5"/>
<text text-anchor="middle" x="605.5" y="-18.5" font-family="Helvetica,sans-Serif" font-size="10.00">boost/functional/hash.hpp</text>
</a>
</g>
</g>
<!-- Node3&#45;&gt;Node17 -->
<g id="edge29" class="edge">
<title>Node3&#45;&gt;Node17</title>
<path fill="none" stroke="midnightblue" d="M600.98,-156.26C601.89,-129.35 603.85,-71.04 604.86,-40.9"/>
<polygon fill="midnightblue" stroke="midnightblue" points="608.36,-40.96 605.2,-30.85 601.37,-40.72 608.36,-40.96"/>
</g>
<!-- Node18 -->
<g id="node18" class="node">
<title>Node18</title>
<g id="a_node18"><a xlink:title=" ">
<polygon fill="none" stroke="#bfbfbf" points="695,-11.5 695,-30.5 820,-30.5 820,-11.5 695,-11.5"/>
<text text-anchor="middle" x="757.5" y="-18.5" font-family="Helvetica,sans-Serif" font-size="10.00">boost/lexical_cast.hpp</text>
</a>
</g>
</g>
<!-- Node3&#45;&gt;Node18 -->
<g id="edge30" class="edge">
<title>Node3&#45;&gt;Node18</title>
<path fill="none" stroke="midnightblue" d="M611.18,-156.49C625.93,-137.61 653.84,-103.42 681.5,-78 698.55,-62.33 719.92,-46.9 735.66,-36.22"/>
<polygon fill="midnightblue" stroke="midnightblue" points="737.83,-38.98 744.2,-30.51 733.94,-33.16 737.83,-38.98"/>
</g>
<!-- Node19 -->
<g id="node19" class="node">
<title>Node19</title>
<g id="a_node19"><a xlink:title=" ">
<polygon fill="none" stroke="#bfbfbf" points="345.5,-11.5 345.5,-30.5 515.5,-30.5 515.5,-11.5 345.5,-11.5"/>
<text text-anchor="middle" x="430.5" y="-18.5" font-family="Helvetica,sans-Serif" font-size="10.00">boost/uuid/uuid_generators.hpp</text>
</a>
</g>
</g>
<!-- Node3&#45;&gt;Node19 -->
<g id="edge32" class="edge">
<title>Node3&#45;&gt;Node19</title>
<path fill="none" stroke="midnightblue" d="M584.2,-156.26C552.18,-128.29 481.29,-66.37 448.18,-37.45"/>
<polygon fill="midnightblue" stroke="midnightblue" points="450.46,-34.79 440.63,-30.85 445.86,-40.06 450.46,-34.79"/>
</g>
<!-- Node20 -->
<g id="node20" class="node">
<title>Node20</title>
<g id="a_node20"><a xlink:title=" ">
<polygon fill="none" stroke="#bfbfbf" points="838,-11.5 838,-30.5 965,-30.5 965,-11.5 838,-11.5"/>
<text text-anchor="middle" x="901.5" y="-18.5" font-family="Helvetica,sans-Serif" font-size="10.00">boost/uuid/uuid_io.hpp</text>
</a>
</g>
</g>
<!-- Node3&#45;&gt;Node20 -->
<g id="edge33" class="edge">
<title>Node3&#45;&gt;Node20</title>
<path fill="none" stroke="midnightblue" d="M624.87,-156.46C640.35,-147.04 660.41,-133.85 676.5,-120 695.58,-103.57 693.21,-91.44 714.5,-78 720.88,-73.97 808.82,-48.47 861.8,-33.3"/>
<polygon fill="midnightblue" stroke="midnightblue" points="862.92,-36.62 871.57,-30.51 861,-29.89 862.92,-36.62"/>
</g>
<!-- Node4&#45;&gt;Node5 -->
<g id="edge5" class="edge">
<title>Node4&#45;&gt;Node5</title>
<path fill="none" stroke="midnightblue" d="M235.82,-83.97C200.4,-71.45 148.38,-53.06 110.2,-39.57"/>
<polygon fill="midnightblue" stroke="midnightblue" points="110.91,-36.11 100.32,-36.07 108.58,-42.71 110.91,-36.11"/>
</g>
<!-- Node4&#45;&gt;Node6 -->
<g id="edge6" class="edge">
<title>Node4&#45;&gt;Node6</title>
<path fill="none" stroke="midnightblue" d="M274.56,-83.7C273.76,-71.6 272.62,-54.15 271.74,-40.89"/>
<polygon fill="midnightblue" stroke="midnightblue" points="275.21,-40.31 271.06,-30.56 268.23,-40.77 275.21,-40.31"/>
</g>
<!-- Node4&#45;&gt;Node7 -->
<g id="edge7" class="edge">
<title>Node4&#45;&gt;Node7</title>
<path fill="none" stroke="midnightblue" d="M255.44,-83.88C236.27,-70.39 207.51,-50.15 188.15,-36.53"/>
<polygon fill="midnightblue" stroke="midnightblue" points="189.92,-33.5 179.73,-30.61 185.89,-39.22 189.92,-33.5"/>
</g>
<!-- Node8&#45;&gt;Node2 -->
<g id="edge9" class="edge">
<title>Node8&#45;&gt;Node2</title>
<path fill="none" stroke="midnightblue" d="M806.5,-89.43C820.2,-85.15 837.59,-80.38 853.5,-78 1159.54,-32.25 1936.68,-61.56 2245.5,-42 2289.81,-39.19 2339.53,-34.16 2378.07,-29.85"/>
<polygon fill="midnightblue" stroke="midnightblue" points="2378.57,-33.32 2388.12,-28.71 2377.79,-26.36 2378.57,-33.32"/>
</g>
<!-- Node8&#45;&gt;Node5 -->
<g id="edge11" class="edge">
<title>Node8&#45;&gt;Node5</title>
<path fill="none" stroke="midnightblue" d="M723.08,-96.74C608.52,-93.43 346.65,-81.79 130.5,-42 125.42,-41.07 120.19,-39.92 114.97,-38.66"/>
<polygon fill="midnightblue" stroke="midnightblue" points="115.56,-35.19 105.01,-36.1 113.82,-41.98 115.56,-35.19"/>
</g>
<!-- Node8&#45;&gt;Node6 -->
<g id="edge22" class="edge">
<title>Node8&#45;&gt;Node6</title>
<path fill="none" stroke="midnightblue" d="M738.78,-89.49C718.46,-85.63 693.78,-81.22 671.5,-78 523.29,-56.59 483.24,-71.84 336.5,-42 325.94,-39.85 314.65,-36.74 304.44,-33.61"/>
<polygon fill="midnightblue" stroke="midnightblue" points="305.26,-30.2 294.67,-30.51 303.14,-36.87 305.26,-30.2"/>
</g>
<!-- Node8&#45;&gt;Node7 -->
<g id="edge16" class="edge">
<title>Node8&#45;&gt;Node7</title>
<path fill="none" stroke="midnightblue" d="M740.39,-89.49C719.79,-85.49 694.41,-80.96 671.5,-78 465.04,-51.35 404.2,-100.78 204.5,-42 199.29,-40.47 193.99,-38.14 189.08,-35.6"/>
<polygon fill="midnightblue" stroke="midnightblue" points="190.7,-32.5 180.28,-30.64 187.27,-38.6 190.7,-32.5"/>
</g>
<!-- Node9 -->
<g id="node9" class="node">
<title>Node9</title>
<g id="a_node9"><a xlink:title=" ">
<polygon fill="none" stroke="#bfbfbf" points="1154,-11.5 1154,-30.5 1271,-30.5 1271,-11.5 1154,-11.5"/>
<text text-anchor="middle" x="1212.5" y="-18.5" font-family="Helvetica,sans-Serif" font-size="10.00">seerep_msgs/aabb.h</text>
</a>
</g>
</g>
<!-- Node8&#45;&gt;Node9 -->
<g id="edge10" class="edge">
<title>Node8&#45;&gt;Node9</title>
<path fill="none" stroke="midnightblue" d="M808.62,-89.44C822.02,-85.48 838.49,-81 853.5,-78 981.3,-52.49 1016.9,-68.47 1144.5,-42 1155.27,-39.76 1166.82,-36.65 1177.28,-33.54"/>
<polygon fill="midnightblue" stroke="midnightblue" points="1178.38,-36.87 1186.92,-30.6 1176.33,-30.17 1178.38,-36.87"/>
</g>
<!-- Node10 -->
<g id="node10" class="node">
<title>Node10</title>
<g id="a_node10"><a xlink:title=" ">
<polygon fill="none" stroke="#bfbfbf" points="1289.5,-6 1289.5,-36 1415.5,-36 1415.5,-6 1289.5,-6"/>
<text text-anchor="start" x="1297.5" y="-24" font-family="Helvetica,sans-Serif" font-size="10.00">seerep_msgs/geodetic</text>
<text text-anchor="middle" x="1352.5" y="-13" font-family="Helvetica,sans-Serif" font-size="10.00">_coordinates.h</text>
</a>
</g>
</g>
<!-- Node8&#45;&gt;Node10 -->
<g id="edge12" class="edge">
<title>Node8&#45;&gt;Node10</title>
<path fill="none" stroke="midnightblue" d="M807.56,-89.49C821.12,-85.39 838.05,-80.77 853.5,-78 1040.52,-44.43 1092.42,-75.24 1279.5,-42 1284.92,-41.04 1290.52,-39.85 1296.09,-38.55"/>
<polygon fill="midnightblue" stroke="midnightblue" points="1297.19,-41.88 1306.06,-36.09 1295.51,-35.09 1297.19,-41.88"/>
</g>
<!-- Node11 -->
<g id="node11" class="node">
<title>Node11</title>
<g id="a_node11"><a xlink:title=" ">
<polygon fill="none" stroke="#bfbfbf" points="1433.5,-0.5 1433.5,-41.5 1549.5,-41.5 1549.5,-0.5 1433.5,-0.5"/>
<text text-anchor="start" x="1441.5" y="-29.5" font-family="Helvetica,sans-Serif" font-size="10.00">seerep_msgs/labels</text>
<text text-anchor="start" x="1441.5" y="-18.5" font-family="Helvetica,sans-Serif" font-size="10.00">_with_instance_with</text>
<text text-anchor="middle" x="1491.5" y="-7.5" font-family="Helvetica,sans-Serif" font-size="10.00">_category.h</text>
</a>
</g>
</g>
<!-- Node8&#45;&gt;Node11 -->
<g id="edge13" class="edge">
<title>Node8&#45;&gt;Node11</title>
<path fill="none" stroke="midnightblue" d="M807.2,-89.46C820.81,-85.3 837.89,-80.63 853.5,-78 1100.94,-36.3 1172.29,-85.33 1423.07,-42.03"/>
<polygon fill="midnightblue" stroke="midnightblue" points="1423.98,-45.42 1433.22,-40.25 1422.77,-38.53 1423.98,-45.42"/>
</g>
<!-- Node8&#45;&gt;Node12 -->
<g id="edge14" class="edge">
<title>Node8&#45;&gt;Node12</title>
<path fill="none" stroke="midnightblue" d="M819.98,-89.47C841,-85.2 867.55,-80.43 891.5,-78 1606.23,-5.52 1791.74,-103.54 2507.5,-42 2532.53,-39.85 2560.01,-35.97 2583.46,-32.2"/>
<polygon fill="midnightblue" stroke="midnightblue" points="2584.28,-35.61 2593.58,-30.54 2583.15,-28.71 2584.28,-35.61"/>
</g>
<!-- Node13 -->
<g id="node13" class="node">
<title>Node13</title>
<g id="a_node13"><a xlink:title=" ">
<polygon fill="none" stroke="#bfbfbf" points="1655.5,-11.5 1655.5,-30.5 1703.5,-30.5 1703.5,-11.5 1655.5,-11.5"/>
<text text-anchor="middle" x="1679.5" y="-18.5" font-family="Helvetica,sans-Serif" font-size="10.00">mutex</text>
</a>
</g>
</g>
<!-- Node8&#45;&gt;Node13 -->
<g id="edge15" class="edge">
<title>Node8&#45;&gt;Node13</title>
<path fill="none" stroke="midnightblue" d="M806.85,-89.45C820.51,-85.23 837.74,-80.51 853.5,-78 1027.48,-50.25 1476.6,-92.14 1645.5,-42 1650.33,-40.57 1655.2,-38.3 1659.68,-35.8"/>
<polygon fill="midnightblue" stroke="midnightblue" points="1661.53,-38.77 1668.2,-30.54 1657.85,-32.82 1661.53,-38.77"/>
</g>
<!-- Node14 -->
<g id="node14" class="node">
<title>Node14</title>
<g id="a_node14"><a xlink:title=" ">
<polygon fill="none" stroke="#bfbfbf" points="1568,-11.5 1568,-30.5 1637,-30.5 1637,-11.5 1568,-11.5"/>
<text text-anchor="middle" x="1602.5" y="-18.5" font-family="Helvetica,sans-Serif" font-size="10.00">type_traits</text>
</a>
</g>
</g>
<!-- Node8&#45;&gt;Node14 -->
<g id="edge17" class="edge">
<title>Node8&#45;&gt;Node14</title>
<path fill="none" stroke="midnightblue" d="M806.85,-89.49C820.51,-85.27 837.75,-80.56 853.5,-78 1163.18,-27.71 1253.66,-116.22 1558.5,-42 1565.13,-40.38 1572,-37.78 1578.27,-34.97"/>
<polygon fill="midnightblue" stroke="midnightblue" points="1580.04,-38 1587.53,-30.51 1577,-31.69 1580.04,-38"/>
</g>
<!-- Node15 -->
<g id="node15" class="node">
<title>Node15</title>
<g id="a_node15"><a xlink:title=" ">
<polygon fill="none" stroke="#bfbfbf" points="1722,-6 1722,-36 1867,-36 1867,-6 1722,-6"/>
<text text-anchor="start" x="1730" y="-24" font-family="Helvetica,sans-Serif" font-size="10.00">boost/log/sources/severity</text>
<text text-anchor="middle" x="1794.5" y="-13" font-family="Helvetica,sans-Serif" font-size="10.00">_logger.hpp</text>
</a>
</g>
</g>
<!-- Node8&#45;&gt;Node15 -->
<g id="edge18" class="edge">
<title>Node8&#45;&gt;Node15</title>
<path fill="none" stroke="midnightblue" d="M806.84,-89.43C820.5,-85.2 837.74,-80.49 853.5,-78 1230.95,-18.47 1334.16,-95.53 1712.5,-42 1719.32,-41.03 1726.41,-39.75 1733.43,-38.29"/>
<polygon fill="midnightblue" stroke="midnightblue" points="1734.61,-41.62 1743.62,-36.06 1733.11,-34.78 1734.61,-41.62"/>
</g>
<!-- Node16 -->
<g id="node16" class="node">
<title>Node16</title>
<g id="a_node16"><a xlink:title=" ">
<polygon fill="none" stroke="#bfbfbf" points="2122.5,-11.5 2122.5,-30.5 2236.5,-30.5 2236.5,-11.5 2122.5,-11.5"/>
<text text-anchor="middle" x="2179.5" y="-18.5" font-family="Helvetica,sans-Serif" font-size="10.00">boost/log/trivial.hpp</text>
</a>
</g>
</g>
<!-- Node8&#45;&gt;Node16 -->
<g id="edge19" class="edge">
<title>Node8&#45;&gt;Node16</title>
<path fill="none" stroke="midnightblue" d="M806.51,-89.49C820.21,-85.22 837.6,-80.45 853.5,-78 1078.09,-43.35 1648.54,-53.46 1875.5,-42 1957.06,-37.88 2050.83,-31.46 2112.4,-27"/>
<polygon fill="midnightblue" stroke="midnightblue" points="2112.66,-30.49 2122.38,-26.28 2112.15,-23.51 2112.66,-30.49"/>
</g>
<!-- Node8&#45;&gt;Node17 -->
<g id="edge20" class="edge">
<title>Node8&#45;&gt;Node17</title>
<path fill="none" stroke="midnightblue" d="M761.65,-89.43C730.67,-76.05 670.66,-50.14 634.73,-34.62"/>
<polygon fill="midnightblue" stroke="midnightblue" points="635.84,-31.29 625.27,-30.54 633.07,-37.72 635.84,-31.29"/>
</g>
<!-- Node8&#45;&gt;Node18 -->
<g id="edge21" class="edge">
<title>Node8&#45;&gt;Node18</title>
<path fill="none" stroke="midnightblue" d="M778.75,-89.28C774.99,-77.37 768.15,-55.72 763.25,-40.19"/>
<polygon fill="midnightblue" stroke="midnightblue" points="766.57,-39.1 760.22,-30.62 759.89,-41.21 766.57,-39.1"/>
</g>
<!-- Node8&#45;&gt;Node19 -->
<g id="edge23" class="edge">
<title>Node8&#45;&gt;Node19</title>
<path fill="none" stroke="midnightblue" d="M741.92,-89.43C677.49,-75.48 550.11,-47.9 479.87,-32.69"/>
<polygon fill="midnightblue" stroke="midnightblue" points="480.45,-29.23 469.94,-30.54 478.97,-36.08 480.45,-29.23"/>
</g>
<!-- Node8&#45;&gt;Node20 -->
<g id="edge24" class="edge">
<title>Node8&#45;&gt;Node20</title>
<path fill="none" stroke="midnightblue" d="M795.27,-89.28C815.79,-76.28 854.63,-51.68 879.23,-36.1"/>
<polygon fill="midnightblue" stroke="midnightblue" points="881.32,-38.92 887.9,-30.62 877.57,-33.01 881.32,-38.92"/>
</g>
<!-- Node21 -->
<g id="node21" class="node">
<title>Node21</title>
<g id="a_node21"><a xlink:title=" ">
<polygon fill="none" stroke="#bfbfbf" points="983.5,-11.5 983.5,-30.5 1135.5,-30.5 1135.5,-11.5 983.5,-11.5"/>
<text text-anchor="middle" x="1059.5" y="-18.5" font-family="Helvetica,sans-Serif" font-size="10.00">impl/hdf5_core_general.hpp</text>
</a>
</g>
</g>
<!-- Node8&#45;&gt;Node21 -->
<g id="edge25" class="edge">
<title>Node8&#45;&gt;Node21</title>
<path fill="none" stroke="midnightblue" d="M811.97,-89.5C824.79,-85.93 839.86,-81.75 853.5,-78 910.45,-62.35 976.32,-44.48 1017.94,-33.22"/>
<polygon fill="midnightblue" stroke="midnightblue" points="1018.98,-36.57 1027.72,-30.58 1017.16,-29.81 1018.98,-36.57"/>
</g>
<!-- Node22&#45;&gt;Node2 -->
<g id="edge35" class="edge">
<title>Node22&#45;&gt;Node2</title>
<path fill="none" stroke="midnightblue" d="M1919.72,-171.09C2084.84,-172.43 2587.66,-172.16 2636.5,-120 2680.23,-73.3 2580.45,-45.38 2508.69,-31.9"/>
<polygon fill="midnightblue" stroke="midnightblue" points="2509.23,-28.45 2498.76,-30.1 2507.98,-35.33 2509.23,-28.45"/>
</g>
<!-- Node22&#45;&gt;Node7 -->
<g id="edge49" class="edge">
<title>Node22&#45;&gt;Node7</title>
<path fill="none" stroke="midnightblue" d="M1815.36,-170.22C1652.35,-168.91 1137.99,-161.54 714.5,-120 657.45,-114.4 258.85,-60.23 204.5,-42 199.57,-40.35 194.51,-38.06 189.79,-35.63"/>
<polygon fill="midnightblue" stroke="midnightblue" points="191.14,-32.38 180.7,-30.58 187.74,-38.49 191.14,-32.38"/>
</g>
<!-- Node22&#45;&gt;Node8 -->
<g id="edge36" class="edge">
<title>Node22&#45;&gt;Node8</title>
<path fill="none" stroke="midnightblue" d="M1815.27,-169.16C1672.92,-165.2 1266.2,-151.76 929.5,-120 902.27,-117.43 872.35,-113.58 846.58,-109.95"/>
<polygon fill="midnightblue" stroke="midnightblue" points="846.95,-106.46 836.55,-108.51 845.95,-113.39 846.95,-106.46"/>
</g>
<!-- Node22&#45;&gt;Node12 -->
<g id="edge46" class="edge">
<title>Node22&#45;&gt;Node12</title>
<path fill="none" stroke="midnightblue" d="M1919.79,-169.1C2091.9,-164.24 2631.26,-146.9 2656.5,-120 2676.85,-98.3 2662.5,-61.32 2650.98,-39.53"/>
<polygon fill="midnightblue" stroke="midnightblue" points="2653.96,-37.7 2646.02,-30.69 2647.86,-41.12 2653.96,-37.7"/>
</g>
<!-- Node22&#45;&gt;Node13 -->
<g id="edge48" class="edge">
<title>Node22&#45;&gt;Node13</title>
<path fill="none" stroke="midnightblue" d="M1815.34,-169.47C1630.33,-165.54 1015.08,-150.27 986.5,-120 973.68,-106.43 973.67,-91.55 986.5,-78 1036.92,-24.75 1575.3,-63.19 1645.5,-42 1650.33,-40.54 1655.19,-38.27 1659.67,-35.77"/>
<polygon fill="midnightblue" stroke="midnightblue" points="1661.52,-38.74 1668.19,-30.51 1657.84,-32.79 1661.52,-38.74"/>
</g>
<!-- Node22&#45;&gt;Node15 -->
<g id="edge50" class="edge">
<title>Node22&#45;&gt;Node15</title>
<path fill="none" stroke="midnightblue" d="M1815.48,-169.42C1632.43,-165.38 1027.62,-149.8 999.5,-120 986.69,-106.42 986.64,-91.53 999.5,-78 1054.16,-20.51 1634.01,-53.45 1712.5,-42 1719.22,-41.02 1726.2,-39.74 1733.12,-38.3"/>
<polygon fill="midnightblue" stroke="midnightblue" points="1734.16,-41.65 1743.18,-36.09 1732.66,-34.81 1734.16,-41.65"/>
</g>
<!-- Node22&#45;&gt;Node16 -->
<g id="edge51" class="edge">
<title>Node22&#45;&gt;Node16</title>
<path fill="none" stroke="midnightblue" d="M1919.76,-169.66C2051.31,-167 2388.05,-156.64 2421.5,-120 2476.24,-60.05 2335.94,-36.02 2246.71,-26.99"/>
<polygon fill="midnightblue" stroke="midnightblue" points="2246.93,-23.49 2236.64,-26.01 2246.25,-30.46 2246.93,-23.49"/>
</g>
<!-- Node23 -->
<g id="node23" class="node">
<title>Node23</title>
<g id="a_node23"><a xlink:title=" ">
<polygon fill="none" stroke="#bfbfbf" points="2469,-84 2469,-114 2628,-114 2628,-84 2469,-84"/>
<text text-anchor="start" x="2477" y="-102" font-family="Helvetica,sans-Serif" font-size="10.00">seerep_msgs/boundingbox2d</text>
<text text-anchor="middle" x="2548.5" y="-91" font-family="Helvetica,sans-Serif" font-size="10.00">_labeled_generated.h</text>
</a>
</g>
</g>
<!-- Node22&#45;&gt;Node23 -->
<g id="edge37" class="edge">
<title>Node22&#45;&gt;Node23</title>
<path fill="none" stroke="midnightblue" d="M1919.67,-168.23C2022.61,-163.27 2258.92,-149.46 2455.5,-120 2463.08,-118.86 2470.97,-117.48 2478.8,-115.98"/>
<polygon fill="midnightblue" stroke="midnightblue" points="2479.54,-119.4 2488.67,-114.03 2478.18,-112.54 2479.54,-119.4"/>
</g>
<!-- Node24 -->
<g id="node24" class="node">
<title>Node24</title>
<g id="a_node24"><a xlink:title=" ">
<polygon fill="none" stroke="#bfbfbf" points="1009,-78.5 1009,-119.5 1168,-119.5 1168,-78.5 1009,-78.5"/>
<text text-anchor="start" x="1017" y="-107.5" font-family="Helvetica,sans-Serif" font-size="10.00">seerep_msgs/boundingbox2d</text>
<text text-anchor="start" x="1017" y="-96.5" font-family="Helvetica,sans-Serif" font-size="10.00">_labeled_with_category</text>
<text text-anchor="middle" x="1088.5" y="-85.5" font-family="Helvetica,sans-Serif" font-size="10.00">_generated.h</text>
</a>
</g>
</g>
<!-- Node22&#45;&gt;Node24 -->
<g id="edge38" class="edge">
<title>Node22&#45;&gt;Node24</title>
<path fill="none" stroke="midnightblue" d="M1815.19,-169.36C1701.05,-166.3 1421.04,-155.64 1178.1,-120.13"/>
<polygon fill="midnightblue" stroke="midnightblue" points="1178.43,-116.64 1168.02,-118.64 1177.4,-123.56 1178.43,-116.64"/>
</g>
<!-- Node25 -->
<g id="node25" class="node">
<title>Node25</title>
<g id="a_node25"><a xlink:title=" ">
<polygon fill="none" stroke="#bfbfbf" points="1186,-84 1186,-114 1333,-114 1333,-84 1186,-84"/>
<text text-anchor="start" x="1194" y="-102" font-family="Helvetica,sans-Serif" font-size="10.00">seerep_msgs/boundingbox</text>
<text text-anchor="middle" x="1259.5" y="-91" font-family="Helvetica,sans-Serif" font-size="10.00">_labeled_generated.h</text>
</a>
</g>
</g>
<!-- Node22&#45;&gt;Node25 -->
<g id="edge39" class="edge">
<title>Node22&#45;&gt;Node25</title>
<path fill="none" stroke="midnightblue" d="M1815.29,-167.97C1720.4,-162.84 1513.59,-149.09 1341.5,-120 1335.24,-118.94 1328.75,-117.67 1322.29,-116.29"/>
<polygon fill="midnightblue" stroke="midnightblue" points="1322.72,-112.8 1312.2,-114.03 1321.2,-119.63 1322.72,-112.8"/>
</g>
<!-- Node26 -->
<g id="node26" class="node">
<title>Node26</title>
<g id="a_node26"><a xlink:title=" ">
<polygon fill="none" stroke="#bfbfbf" points="1351,-78.5 1351,-119.5 1498,-119.5 1498,-78.5 1351,-78.5"/>
<text text-anchor="start" x="1359" y="-107.5" font-family="Helvetica,sans-Serif" font-size="10.00">seerep_msgs/boundingbox</text>
<text text-anchor="start" x="1359" y="-96.5" font-family="Helvetica,sans-Serif" font-size="10.00">_labeled_with_category</text>
<text text-anchor="middle" x="1424.5" y="-85.5" font-family="Helvetica,sans-Serif" font-size="10.00">_generated.h</text>
</a>
</g>
</g>
<!-- Node22&#45;&gt;Node26 -->
<g id="edge40" class="edge">
<title>Node22&#45;&gt;Node26</title>
<path fill="none" stroke="midnightblue" d="M1815.37,-164.8C1747.11,-156.97 1623.56,-141.59 1508.25,-120.05"/>
<polygon fill="midnightblue" stroke="midnightblue" points="1508.66,-116.56 1498.19,-118.15 1507.36,-123.44 1508.66,-116.56"/>
</g>
<!-- Node27 -->
<g id="node27" class="node">
<title>Node27</title>
<g id="a_node27"><a xlink:title=" ">
<polygon fill="none" stroke="#bfbfbf" points="1516.5,-84 1516.5,-114 1634.5,-114 1634.5,-84 1516.5,-84"/>
<text text-anchor="start" x="1524.5" y="-102" font-family="Helvetica,sans-Serif" font-size="10.00">seerep_msgs/header</text>
<text text-anchor="middle" x="1575.5" y="-91" font-family="Helvetica,sans-Serif" font-size="10.00">_generated.h</text>
</a>
</g>
</g>
<!-- Node22&#45;&gt;Node27 -->
<g id="edge41" class="edge">
<title>Node22&#45;&gt;Node27</title>
<path fill="none" stroke="midnightblue" d="M1826.02,-161.98C1780.91,-152.53 1706.78,-136.42 1643.5,-120 1639.66,-119 1635.7,-117.94 1631.73,-116.84"/>
<polygon fill="midnightblue" stroke="midnightblue" points="1632.42,-113.4 1621.84,-114.06 1630.52,-120.14 1632.42,-113.4"/>
</g>
<!-- Node28 -->
<g id="node28" class="node">
<title>Node28</title>
<g id="a_node28"><a xlink:title=" ">
<polygon fill="none" stroke="#bfbfbf" points="1652.5,-78.5 1652.5,-119.5 1780.5,-119.5 1780.5,-78.5 1652.5,-78.5"/>
<text text-anchor="start" x="1660.5" y="-107.5" font-family="Helvetica,sans-Serif" font-size="10.00">seerep_msgs/labels</text>
<text text-anchor="start" x="1660.5" y="-96.5" font-family="Helvetica,sans-Serif" font-size="10.00">_with_instance_with</text>
<text text-anchor="middle" x="1716.5" y="-85.5" font-family="Helvetica,sans-Serif" font-size="10.00">_category_generated.h</text>
</a>
</g>
</g>
<!-- Node22&#45;&gt;Node28 -->
<g id="edge42" class="edge">
<title>Node22&#45;&gt;Node28</title>
<path fill="none" stroke="midnightblue" d="M1849.29,-162C1829.2,-152.62 1795.99,-137.11 1767.81,-123.96"/>
<polygon fill="midnightblue" stroke="midnightblue" points="1769.02,-120.66 1758.48,-119.6 1766.06,-127 1769.02,-120.66"/>
</g>
<!-- Node29 -->
<g id="node29" class="node">
<title>Node29</title>
<g id="a_node29"><a xlink:title=" ">
<polygon fill="none" stroke="#bfbfbf" points="1798.5,-84 1798.5,-114 1936.5,-114 1936.5,-84 1798.5,-84"/>
<text text-anchor="start" x="1806.5" y="-102" font-family="Helvetica,sans-Serif" font-size="10.00">seerep_msgs/union_map</text>
<text text-anchor="middle" x="1867.5" y="-91" font-family="Helvetica,sans-Serif" font-size="10.00">_entry_generated.h</text>
</a>
</g>
</g>
<!-- Node22&#45;&gt;Node29 -->
<g id="edge43" class="edge">
<title>Node22&#45;&gt;Node29</title>
<path fill="none" stroke="midnightblue" d="M1867.5,-161.86C1867.5,-152.55 1867.5,-137.33 1867.5,-124.31"/>
<polygon fill="midnightblue" stroke="midnightblue" points="1871,-124.08 1867.5,-114.08 1864,-124.08 1871,-124.08"/>
</g>
<!-- Node30 -->
<g id="node30" class="node">
<title>Node30</title>
<g id="a_node30"><a xlink:title=" ">
<polygon fill="none" stroke="#bfbfbf" points="1955,-89.5 1955,-108.5 2054,-108.5 2054,-89.5 1955,-89.5"/>
<text text-anchor="middle" x="2004.5" y="-96.5" font-family="Helvetica,sans-Serif" font-size="10.00">flatbuffers/grpc.h</text>
</a>
</g>
</g>
<!-- Node22&#45;&gt;Node30 -->
<g id="edge44" class="edge">
<title>Node22&#45;&gt;Node30</title>
<path fill="none" stroke="midnightblue" d="M1884.03,-162C1907.58,-149.87 1951.03,-127.52 1978.8,-113.22"/>
<polygon fill="midnightblue" stroke="midnightblue" points="1980.63,-116.22 1987.92,-108.53 1977.42,-110 1980.63,-116.22"/>
</g>
<!-- Node31 -->
<g id="node31" class="node">
<title>Node31</title>
<g id="a_node31"><a xlink:title=" ">
<polygon fill="none" stroke="#bfbfbf" points="2072,-89.5 2072,-108.5 2167,-108.5 2167,-89.5 2072,-89.5"/>
<text text-anchor="middle" x="2119.5" y="-96.5" font-family="Helvetica,sans-Serif" font-size="10.00">grpcpp/grpcpp.h</text>
</a>
</g>
</g>
<!-- Node22&#45;&gt;Node31 -->
<g id="edge45" class="edge">
<title>Node22&#45;&gt;Node31</title>
<path fill="none" stroke="midnightblue" d="M1904.42,-161.92C1943.82,-152.53 2007.97,-136.6 2062.5,-120 2070.47,-117.57 2078.99,-114.73 2086.94,-111.95"/>
<polygon fill="midnightblue" stroke="midnightblue" points="2088.37,-115.16 2096.63,-108.52 2086.03,-108.56 2088.37,-115.16"/>
</g>
<!-- Node32 -->
<g id="node32" class="node">
<title>Node32</title>
<g id="a_node32"><a xlink:title=" ">
<polygon fill="none" stroke="#bfbfbf" points="2185.5,-89.5 2185.5,-108.5 2253.5,-108.5 2253.5,-89.5 2185.5,-89.5"/>
<text text-anchor="middle" x="2219.5" y="-96.5" font-family="Helvetica,sans-Serif" font-size="10.00">filesystem</text>
</a>
</g>
</g>
<!-- Node22&#45;&gt;Node32 -->
<g id="edge47" class="edge">
<title>Node22&#45;&gt;Node32</title>
<path fill="none" stroke="midnightblue" d="M1919.68,-166.18C1981.71,-160.08 2087.87,-146.59 2175.5,-120 2181.57,-118.16 2187.89,-115.66 2193.79,-113.05"/>
<polygon fill="midnightblue" stroke="midnightblue" points="2195.61,-116.07 2203.19,-108.66 2192.65,-109.72 2195.61,-116.07"/>
</g>
<!-- Node33 -->
<g id="node33" class="node">
<title>Node33</title>
<g id="a_node33"><a xlink:title=" ">
<polygon fill="none" stroke="#bfbfbf" points="2272,-89.5 2272,-108.5 2413,-108.5 2413,-89.5 2272,-89.5"/>
<text text-anchor="middle" x="2342.5" y="-96.5" font-family="Helvetica,sans-Serif" font-size="10.00">impl/hdf5_fb_general.hpp</text>
</a>
</g>
</g>
<!-- Node22&#45;&gt;Node33 -->
<g id="edge52" class="edge">
<title>Node22&#45;&gt;Node33</title>
<path fill="none" stroke="midnightblue" d="M1919.57,-165.82C1995.41,-158.55 2140.55,-142.96 2262.5,-120 2275.49,-117.55 2289.51,-114.27 2302.14,-111.07"/>
<polygon fill="midnightblue" stroke="midnightblue" points="2303.11,-114.44 2311.92,-108.55 2301.36,-107.66 2303.11,-114.44"/>
</g>
<!-- Node35 -->
<g id="node35" class="node">
<title>Node35</title>
<g id="a_node35"><a xlink:title=" ">
<polygon fill="none" stroke="#bfbfbf" points="2955.5,-89.5 2955.5,-108.5 3079.5,-108.5 3079.5,-89.5 2955.5,-89.5"/>
<text text-anchor="middle" x="3017.5" y="-96.5" font-family="Helvetica,sans-Serif" font-size="10.00">flatbuffers/reflection.h</text>
</a>
</g>
</g>
<!-- Node34&#45;&gt;Node35 -->
<g id="edge54" class="edge">
<title>Node34&#45;&gt;Node35</title>
<path fill="none" stroke="midnightblue" d="M3076.52,-156.23C3064.33,-144.62 3047.12,-128.22 3034.42,-116.12"/>
<polygon fill="midnightblue" stroke="midnightblue" points="3036.49,-113.26 3026.83,-108.89 3031.66,-118.33 3036.49,-113.26"/>
</g>
<!-- Node34&#45;&gt;Node36 -->
<g id="edge55" class="edge">
<title>Node34&#45;&gt;Node36</title>
<path fill="none" stroke="midnightblue" d="M3046.98,-156.49C3011.14,-145.21 2960.6,-129.3 2922.28,-117.24"/>
<polygon fill="midnightblue" stroke="midnightblue" points="2922.91,-113.77 2912.32,-114.11 2920.81,-120.45 2922.91,-113.77"/>
</g>
<!-- Node37 -->
<g id="node37" class="node">
<title>Node37</title>
<g id="a_node37"><a xlink:title=" ">
<polygon fill="none" stroke="#bfbfbf" points="3098,-84 3098,-114 3233,-114 3233,-84 3098,-84"/>
<text text-anchor="start" x="3106" y="-102" font-family="Helvetica,sans-Serif" font-size="10.00">seerep_msgs/point_field</text>
<text text-anchor="middle" x="3165.5" y="-91" font-family="Helvetica,sans-Serif" font-size="10.00">_generated.h</text>
</a>
</g>
</g>
<!-- Node34&#45;&gt;Node37 -->
<g id="edge56" class="edge">
<title>Node34&#45;&gt;Node37</title>
<path fill="none" stroke="midnightblue" d="M3106.48,-156.23C3117.01,-146.2 3131.28,-132.6 3143.16,-121.29"/>
<polygon fill="midnightblue" stroke="midnightblue" points="3145.72,-123.68 3150.55,-114.25 3140.89,-118.61 3145.72,-123.68"/>
</g>
<!-- Node38 -->
<g id="node38" class="node">
<title>Node38</title>
<g id="a_node38"><a xlink:title=" ">
<polygon fill="none" stroke="#bfbfbf" points="3251.5,-89.5 3251.5,-108.5 3295.5,-108.5 3295.5,-89.5 3251.5,-89.5"/>
<text text-anchor="middle" x="3273.5" y="-96.5" font-family="Helvetica,sans-Serif" font-size="10.00">string</text>
</a>
</g>
</g>
<!-- Node34&#45;&gt;Node38 -->
<g id="edge57" class="edge">
<title>Node34&#45;&gt;Node38</title>
<path fill="none" stroke="midnightblue" d="M3144.13,-156.43C3173.74,-147.65 3210.98,-135.14 3242.5,-120 3246.06,-118.29 3249.7,-116.25 3253.18,-114.13"/>
<polygon fill="midnightblue" stroke="midnightblue" points="3255.35,-116.89 3261.84,-108.52 3251.54,-111.02 3255.35,-116.89"/>
</g>
<!-- Node39 -->
<g id="node39" class="node">
<title>Node39</title>
<g id="a_node39"><a xlink:title=" ">
<polygon fill="none" stroke="#bfbfbf" points="3314,-89.5 3314,-108.5 3361,-108.5 3361,-89.5 3314,-89.5"/>
<text text-anchor="middle" x="3337.5" y="-96.5" font-family="Helvetica,sans-Serif" font-size="10.00">vector</text>
</a>
</g>
</g>
<!-- Node34&#45;&gt;Node39 -->
<g id="edge58" class="edge">
<title>Node34&#45;&gt;Node39</title>
<path fill="none" stroke="midnightblue" d="M3152.15,-157.13C3210,-144.22 3290.37,-125.79 3304.5,-120 3308.61,-118.31 3312.81,-116.16 3316.78,-113.89"/>
<polygon fill="midnightblue" stroke="midnightblue" points="3318.76,-116.78 3325.45,-108.56 3315.1,-110.81 3318.76,-116.78"/>
</g>
<!-- Node40 -->
<g id="node40" class="node">
<title>Node40</title>
<g id="a_node40"><a xlink:title=" ">
<polygon fill="none" stroke="#bfbfbf" points="3379.5,-84 3379.5,-114 3495.5,-114 3495.5,-84 3379.5,-84"/>
<text text-anchor="start" x="3387.5" y="-102" font-family="Helvetica,sans-Serif" font-size="10.00">impl/hdf5_fb_point</text>
<text text-anchor="middle" x="3437.5" y="-91" font-family="Helvetica,sans-Serif" font-size="10.00">_cloud2_iterator.hpp</text>
</a>
</g>
</g>
<!-- Node34&#45;&gt;Node40 -->
<g id="edge59" class="edge">
<title>Node34&#45;&gt;Node40</title>
<path fill="none" stroke="midnightblue" d="M3152.18,-157.8C3155.33,-157.18 3158.45,-156.58 3161.5,-156 3254.11,-138.44 3278.73,-141.52 3370.5,-120 3374.62,-119.03 3378.86,-117.96 3383.12,-116.82"/>
<polygon fill="midnightblue" stroke="midnightblue" points="3384.3,-120.13 3393.01,-114.09 3382.44,-113.38 3384.3,-120.13"/>
</g>
</g>
</svg>
