<?xml version="1.0" encoding="UTF-8" standalone="no"?>
<!DOCTYPE svg PUBLIC "-//W3C//DTD SVG 1.1//EN"
 "http://www.w3.org/Graphics/SVG/1.1/DTD/svg11.dtd">
<!-- Generated by graphviz version 2.43.0 (0)
 -->
<!-- Title: seerep_hdf5/seerep_hdf5_core/src/hdf5_core_general.cpp Pages: 1 -->
<svg width="2450pt" height="184pt"
 viewBox="0.00 0.00 2450.00 184.00" xmlns="http://www.w3.org/2000/svg" xmlns:xlink="http://www.w3.org/1999/xlink">
<g id="graph0" class="graph" transform="scale(1 1) rotate(0) translate(4 180)">
<title>seerep_hdf5/seerep_hdf5_core/src/hdf5_core_general.cpp</title>
<!-- Node1 -->
<g id="node1" class="node">
<title>Node1</title>
<g id="a_node1"><a xlink:title=" ">
<polygon fill="#bfbfbf" stroke="black" points="1148.5,-134.5 1148.5,-175.5 1261.5,-175.5 1261.5,-134.5 1148.5,-134.5"/>
<text text-anchor="start" x="1156.5" y="-163.5" font-family="Helvetica,sans-Serif" font-size="10.00">seerep_hdf5/seerep</text>
<text text-anchor="start" x="1156.5" y="-152.5" font-family="Helvetica,sans-Serif" font-size="10.00">_hdf5_core/src/hdf5</text>
<text text-anchor="middle" x="1205" y="-141.5" font-family="Helvetica,sans-Serif" font-size="10.00">_core_general.cpp</text>
</a>
</g>
</g>
<!-- Node2 -->
<g id="node2" class="node">
<title>Node2</title>
<g id="a_node2"><a xlink:href="hdf5__core__general_8h.html" target="_top" xlink:title=" ">
<polygon fill="none" stroke="black" points="1067,-67.5 1067,-97.5 1195,-97.5 1195,-67.5 1067,-67.5"/>
<text text-anchor="start" x="1075" y="-85.5" font-family="Helvetica,sans-Serif" font-size="10.00">seerep_hdf5_core/hdf5</text>
<text text-anchor="middle" x="1131" y="-74.5" font-family="Helvetica,sans-Serif" font-size="10.00">_core_general.h</text>
</a>
</g>
</g>
<!-- Node1&#45;&gt;Node2 -->
<g id="edge1" class="edge">
<title>Node1&#45;&gt;Node2</title>
<path fill="none" stroke="midnightblue" d="M1184.39,-134.36C1174.8,-125.23 1163.38,-114.35 1153.57,-105"/>
<polygon fill="midnightblue" stroke="midnightblue" points="1155.76,-102.26 1146.11,-97.89 1150.93,-107.32 1155.76,-102.26"/>
</g>
<!-- Node21 -->
<g id="node21" class="node">
<title>Node21</title>
<g id="a_node21"><a xlink:title=" ">
<polygon fill="none" stroke="#bfbfbf" points="1213,-73 1213,-92 1345,-92 1345,-73 1213,-73"/>
<text text-anchor="middle" x="1279" y="-80" font-family="Helvetica,sans-Serif" font-size="10.00">highfive/H5DataSet.hpp</text>
</a>
</g>
</g>
<!-- Node1&#45;&gt;Node21 -->
<g id="edge20" class="edge">
<title>Node1&#45;&gt;Node21</title>
<path fill="none" stroke="midnightblue" d="M1225.61,-134.36C1237.2,-123.32 1251.47,-109.72 1262.35,-99.37"/>
<polygon fill="midnightblue" stroke="midnightblue" points="1265.07,-101.61 1269.9,-92.17 1260.24,-96.54 1265.07,-101.61"/>
</g>
<!-- Node3 -->
<g id="node3" class="node">
<title>Node3</title>
<g id="a_node3"><a xlink:title=" ">
<polygon fill="none" stroke="#bfbfbf" points="0,-6 0,-25 110,-25 110,-6 0,-6"/>
<text text-anchor="middle" x="55" y="-13" font-family="Helvetica,sans-Serif" font-size="10.00">highfive/H5File.hpp</text>
</a>
</g>
</g>
<!-- Node2&#45;&gt;Node3 -->
<g id="edge2" class="edge">
<title>Node2&#45;&gt;Node3</title>
<path fill="none" stroke="midnightblue" d="M1066.71,-82.13C906.07,-82.88 474.53,-79.77 119,-31 112.1,-30.05 104.84,-28.73 97.8,-27.27"/>
<polygon fill="midnightblue" stroke="midnightblue" points="98.21,-23.77 87.69,-25.05 96.71,-30.61 98.21,-23.77"/>
</g>
<!-- Node4 -->
<g id="node4" class="node">
<title>Node4</title>
<g id="a_node4"><a xlink:title=" ">
<polygon fill="none" stroke="#bfbfbf" points="128.5,-6 128.5,-25 245.5,-25 245.5,-6 128.5,-6"/>
<text text-anchor="middle" x="187" y="-13" font-family="Helvetica,sans-Serif" font-size="10.00">seerep_msgs/aabb.h</text>
</a>
</g>
</g>
<!-- Node2&#45;&gt;Node4 -->
<g id="edge3" class="edge">
<title>Node2&#45;&gt;Node4</title>
<path fill="none" stroke="midnightblue" d="M1066.85,-81.22C921.5,-79.83 556.23,-72.15 254,-31 246.7,-30.01 239.02,-28.65 231.56,-27.15"/>
<polygon fill="midnightblue" stroke="midnightblue" points="232.1,-23.69 221.59,-25.06 230.66,-30.54 232.1,-23.69"/>
</g>
<!-- Node5 -->
<g id="node5" class="node">
<title>Node5</title>
<g id="a_node5"><a xlink:title=" ">
<polygon fill="none" stroke="#bfbfbf" points="263.5,-0.5 263.5,-30.5 384.5,-30.5 384.5,-0.5 263.5,-0.5"/>
<text text-anchor="start" x="271.5" y="-18.5" font-family="Helvetica,sans-Serif" font-size="10.00">seerep_msgs/dataset</text>
<text text-anchor="middle" x="324" y="-7.5" font-family="Helvetica,sans-Serif" font-size="10.00">_indexable.h</text>
</a>
</g>
</g>
<!-- Node2&#45;&gt;Node5 -->
<g id="edge4" class="edge">
<title>Node2&#45;&gt;Node5</title>
<path fill="none" stroke="midnightblue" d="M1066.62,-80.03C939.86,-76.49 648.94,-65.21 394.79,-30.97"/>
<polygon fill="midnightblue" stroke="midnightblue" points="395,-27.46 384.62,-29.58 394.06,-34.4 395,-27.46"/>
</g>
<!-- Node6 -->
<g id="node6" class="node">
<title>Node6</title>
<g id="a_node6"><a xlink:title=" ">
<polygon fill="none" stroke="#bfbfbf" points="403,-0.5 403,-30.5 529,-30.5 529,-0.5 403,-0.5"/>
<text text-anchor="start" x="411" y="-18.5" font-family="Helvetica,sans-Serif" font-size="10.00">seerep_msgs/geodetic</text>
<text text-anchor="middle" x="466" y="-7.5" font-family="Helvetica,sans-Serif" font-size="10.00">_coordinates.h</text>
</a>
</g>
</g>
<!-- Node2&#45;&gt;Node6 -->
<g id="edge5" class="edge">
<title>Node2&#45;&gt;Node6</title>
<path fill="none" stroke="midnightblue" d="M1066.67,-78.42C959.34,-72.77 736.82,-58.79 539.14,-31.06"/>
<polygon fill="midnightblue" stroke="midnightblue" points="539.54,-27.58 529.15,-29.64 538.56,-34.51 539.54,-27.58"/>
</g>
<!-- Node7 -->
<g id="node7" class="node">
<title>Node7</title>
<g id="a_node7"><a xlink:title=" ">
<polygon fill="none" stroke="#bfbfbf" points="547.5,-6 547.5,-25 664.5,-25 664.5,-6 547.5,-6"/>
<text text-anchor="middle" x="606" y="-13" font-family="Helvetica,sans-Serif" font-size="10.00">seerep_msgs/label.h</text>
</a>
</g>
</g>
<!-- Node2&#45;&gt;Node7 -->
<g id="edge6" class="edge">
<title>Node2&#45;&gt;Node7</title>
<path fill="none" stroke="midnightblue" d="M1066.77,-76.44C978.09,-69 813.28,-53.49 674,-31 667.11,-29.89 659.87,-28.54 652.79,-27.12"/>
<polygon fill="midnightblue" stroke="midnightblue" points="653.08,-23.6 642.58,-25 651.66,-30.46 653.08,-23.6"/>
</g>
<!-- Node8 -->
<g id="node8" class="node">
<title>Node8</title>
<g id="a_node8"><a xlink:title=" ">
<polygon fill="none" stroke="#bfbfbf" points="683,-6 683,-25 847,-25 847,-6 683,-6"/>
<text text-anchor="middle" x="765" y="-13" font-family="Helvetica,sans-Serif" font-size="10.00">seerep_msgs/label_category.h</text>
</a>
</g>
</g>
<!-- Node2&#45;&gt;Node8 -->
<g id="edge7" class="edge">
<title>Node2&#45;&gt;Node8</title>
<path fill="none" stroke="midnightblue" d="M1066.83,-70.1C997.9,-57.86 889.33,-38.58 822.92,-26.79"/>
<polygon fill="midnightblue" stroke="midnightblue" points="823.49,-23.33 813.03,-25.03 822.27,-30.22 823.49,-23.33"/>
</g>
<!-- Node9 -->
<g id="node9" class="node">
<title>Node9</title>
<g id="a_node9"><a xlink:title=" ">
<polygon fill="none" stroke="#bfbfbf" points="865.5,-6 865.5,-25 978.5,-25 978.5,-6 865.5,-6"/>
<text text-anchor="middle" x="922" y="-13" font-family="Helvetica,sans-Serif" font-size="10.00">boost/geometry.hpp</text>
</a>
</g>
</g>
<!-- Node2&#45;&gt;Node9 -->
<g id="edge8" class="edge">
<title>Node2&#45;&gt;Node9</title>
<path fill="none" stroke="midnightblue" d="M1085.91,-67.48C1048.12,-55.72 994.81,-39.14 959.36,-28.12"/>
<polygon fill="midnightblue" stroke="midnightblue" points="960.01,-24.66 949.42,-25.03 957.93,-31.34 960.01,-24.66"/>
</g>
<!-- Node10 -->
<g id="node10" class="node">
<title>Node10</title>
<g id="a_node10"><a xlink:title=" ">
<polygon fill="none" stroke="#bfbfbf" points="997,-6 997,-25 1045,-25 1045,-6 997,-6"/>
<text text-anchor="middle" x="1021" y="-13" font-family="Helvetica,sans-Serif" font-size="10.00">mutex</text>
</a>
</g>
</g>
<!-- Node2&#45;&gt;Node10 -->
<g id="edge9" class="edge">
<title>Node2&#45;&gt;Node10</title>
<path fill="none" stroke="midnightblue" d="M1107.13,-67.4C1088.43,-56.34 1062.56,-41.06 1044.07,-30.13"/>
<polygon fill="midnightblue" stroke="midnightblue" points="1045.79,-27.08 1035.4,-25.01 1042.23,-33.11 1045.79,-27.08"/>
</g>
<!-- Node11 -->
<g id="node11" class="node">
<title>Node11</title>
<g id="a_node11"><a xlink:title=" ">
<polygon fill="none" stroke="#bfbfbf" points="1063,-6 1063,-25 1119,-25 1119,-6 1063,-6"/>
<text text-anchor="middle" x="1091" y="-13" font-family="Helvetica,sans-Serif" font-size="10.00">optional</text>
</a>
</g>
</g>
<!-- Node2&#45;&gt;Node11 -->
<g id="edge10" class="edge">
<title>Node2&#45;&gt;Node11</title>
<path fill="none" stroke="midnightblue" d="M1122.32,-67.4C1116.27,-57.56 1108.16,-44.38 1101.7,-33.89"/>
<polygon fill="midnightblue" stroke="midnightblue" points="1104.57,-31.88 1096.35,-25.19 1098.61,-35.55 1104.57,-31.88"/>
</g>
<!-- Node12 -->
<g id="node12" class="node">
<title>Node12</title>
<g id="a_node12"><a xlink:title=" ">
<polygon fill="none" stroke="#bfbfbf" points="1137.5,-6 1137.5,-25 1206.5,-25 1206.5,-6 1137.5,-6"/>
<text text-anchor="middle" x="1172" y="-13" font-family="Helvetica,sans-Serif" font-size="10.00">type_traits</text>
</a>
</g>
</g>
<!-- Node2&#45;&gt;Node12 -->
<g id="edge11" class="edge">
<title>Node2&#45;&gt;Node12</title>
<path fill="none" stroke="midnightblue" d="M1139.9,-67.4C1146.1,-57.56 1154.42,-44.38 1161.03,-33.89"/>
<polygon fill="midnightblue" stroke="midnightblue" points="1164.14,-35.52 1166.52,-25.19 1158.22,-31.79 1164.14,-35.52"/>
</g>
<!-- Node13 -->
<g id="node13" class="node">
<title>Node13</title>
<g id="a_node13"><a xlink:title=" ">
<polygon fill="none" stroke="#bfbfbf" points="1224.5,-0.5 1224.5,-30.5 1369.5,-30.5 1369.5,-0.5 1224.5,-0.5"/>
<text text-anchor="start" x="1232.5" y="-18.5" font-family="Helvetica,sans-Serif" font-size="10.00">boost/log/sources/severity</text>
<text text-anchor="middle" x="1297" y="-7.5" font-family="Helvetica,sans-Serif" font-size="10.00">_logger.hpp</text>
</a>
</g>
</g>
<!-- Node2&#45;&gt;Node13 -->
<g id="edge12" class="edge">
<title>Node2&#45;&gt;Node13</title>
<path fill="none" stroke="midnightblue" d="M1167.02,-67.4C1191.82,-57.69 1224.96,-44.71 1251.57,-34.29"/>
<polygon fill="midnightblue" stroke="midnightblue" points="1253.02,-37.48 1261.05,-30.58 1250.46,-30.96 1253.02,-37.48"/>
</g>
<!-- Node14 -->
<g id="node14" class="node">
<title>Node14</title>
<g id="a_node14"><a xlink:title=" ">
<polygon fill="none" stroke="#bfbfbf" points="1388,-6 1388,-25 1502,-25 1502,-6 1388,-6"/>
<text text-anchor="middle" x="1445" y="-13" font-family="Helvetica,sans-Serif" font-size="10.00">boost/log/trivial.hpp</text>
</a>
</g>
</g>
<!-- Node2&#45;&gt;Node14 -->
<g id="edge13" class="edge">
<title>Node2&#45;&gt;Node14</title>
<path fill="none" stroke="midnightblue" d="M1195.03,-68.74C1245.14,-58.69 1316.56,-44.22 1379,-31 1384.74,-29.79 1390.75,-28.49 1396.71,-27.2"/>
<polygon fill="midnightblue" stroke="midnightblue" points="1397.61,-30.59 1406.63,-25.03 1396.12,-23.75 1397.61,-30.59"/>
</g>
<!-- Node15 -->
<g id="node15" class="node">
<title>Node15</title>
<g id="a_node15"><a xlink:title=" ">
<polygon fill="none" stroke="#bfbfbf" points="1520.5,-6 1520.5,-25 1663.5,-25 1663.5,-6 1520.5,-6"/>
<text text-anchor="middle" x="1592" y="-13" font-family="Helvetica,sans-Serif" font-size="10.00">boost/functional/hash.hpp</text>
</a>
</g>
</g>
<!-- Node2&#45;&gt;Node15 -->
<g id="edge14" class="edge">
<title>Node2&#45;&gt;Node15</title>
<path fill="none" stroke="midnightblue" d="M1195.04,-68.48C1198.07,-67.96 1201.06,-67.46 1204,-67 1339.7,-45.6 1375.1,-51.11 1511,-31 1519.43,-29.75 1528.33,-28.3 1537.02,-26.8"/>
<polygon fill="midnightblue" stroke="midnightblue" points="1537.85,-30.21 1547.09,-25.04 1536.64,-23.32 1537.85,-30.21"/>
</g>
<!-- Node16 -->
<g id="node16" class="node">
<title>Node16</title>
<g id="a_node16"><a xlink:title=" ">
<polygon fill="none" stroke="#bfbfbf" points="1681.5,-6 1681.5,-25 1806.5,-25 1806.5,-6 1681.5,-6"/>
<text text-anchor="middle" x="1744" y="-13" font-family="Helvetica,sans-Serif" font-size="10.00">boost/lexical_cast.hpp</text>
</a>
</g>
</g>
<!-- Node2&#45;&gt;Node16 -->
<g id="edge15" class="edge">
<title>Node2&#45;&gt;Node16</title>
<path fill="none" stroke="midnightblue" d="M1195.02,-68.33C1198.05,-67.85 1201.06,-67.4 1204,-67 1411.12,-38.58 1465.96,-59.97 1673,-31 1680.71,-29.92 1688.84,-28.52 1696.74,-27.01"/>
<polygon fill="midnightblue" stroke="midnightblue" points="1697.44,-30.44 1706.57,-25.06 1696.08,-23.57 1697.44,-30.44"/>
</g>
<!-- Node17 -->
<g id="node17" class="node">
<title>Node17</title>
<g id="a_node17"><a xlink:title=" ">
<polygon fill="none" stroke="#bfbfbf" points="1824.5,-6 1824.5,-25 1937.5,-25 1937.5,-6 1824.5,-6"/>
<text text-anchor="middle" x="1881" y="-13" font-family="Helvetica,sans-Serif" font-size="10.00">boost/uuid/uuid.hpp</text>
</a>
</g>
</g>
<!-- Node2&#45;&gt;Node17 -->
<g id="edge16" class="edge">
<title>Node2&#45;&gt;Node17</title>
<path fill="none" stroke="midnightblue" d="M1195.01,-68.27C1198.04,-67.8 1201.05,-67.38 1204,-67 1474.26,-32.38 1546.16,-68.78 1816,-31 1822.92,-30.03 1830.2,-28.71 1837.28,-27.26"/>
<polygon fill="midnightblue" stroke="midnightblue" points="1838.42,-30.59 1847.45,-25.06 1836.94,-23.75 1838.42,-30.59"/>
</g>
<!-- Node18 -->
<g id="node18" class="node">
<title>Node18</title>
<g id="a_node18"><a xlink:title=" ">
<polygon fill="none" stroke="#bfbfbf" points="1956,-6 1956,-25 2126,-25 2126,-6 1956,-6"/>
<text text-anchor="middle" x="2041" y="-13" font-family="Helvetica,sans-Serif" font-size="10.00">boost/uuid/uuid_generators.hpp</text>
</a>
</g>
</g>
<!-- Node2&#45;&gt;Node18 -->
<g id="edge17" class="edge">
<title>Node2&#45;&gt;Node18</title>
<path fill="none" stroke="midnightblue" d="M1195.01,-68.23C1198.04,-67.78 1201.05,-67.36 1204,-67 1532.14,-26.68 1618.07,-64.25 1947,-31 1958.31,-29.86 1970.33,-28.28 1981.87,-26.59"/>
<polygon fill="midnightblue" stroke="midnightblue" points="1982.49,-30.03 1991.85,-25.07 1981.44,-23.11 1982.49,-30.03"/>
</g>
<!-- Node19 -->
<g id="node19" class="node">
<title>Node19</title>
<g id="a_node19"><a xlink:title=" ">
<polygon fill="none" stroke="#bfbfbf" points="2144.5,-6 2144.5,-25 2271.5,-25 2271.5,-6 2144.5,-6"/>
<text text-anchor="middle" x="2208" y="-13" font-family="Helvetica,sans-Serif" font-size="10.00">boost/uuid/uuid_io.hpp</text>
</a>
</g>
</g>
<!-- Node2&#45;&gt;Node19 -->
<g id="edge18" class="edge">
<title>Node2&#45;&gt;Node19</title>
<path fill="none" stroke="midnightblue" d="M1195,-68.19C1198.04,-67.75 1201.05,-67.35 1204,-67 1615.24,-18.51 1723.76,-79.49 2135,-31 2143.49,-30 2152.46,-28.55 2161.1,-26.95"/>
<polygon fill="midnightblue" stroke="midnightblue" points="2161.89,-30.36 2171.04,-25.01 2160.56,-23.49 2161.89,-30.36"/>
</g>
<!-- Node20 -->
<g id="node20" class="node">
<title>Node20</title>
<g id="a_node20"><a xlink:title=" ">
<polygon fill="none" stroke="#bfbfbf" points="2290,-6 2290,-25 2442,-25 2442,-6 2290,-6"/>
<text text-anchor="middle" x="2366" y="-13" font-family="Helvetica,sans-Serif" font-size="10.00">impl/hdf5_core_general.hpp</text>
</a>
</g>
</g>
<!-- Node2&#45;&gt;Node20 -->
<g id="edge19" class="edge">
<title>Node2&#45;&gt;Node20</title>
<path fill="none" stroke="midnightblue" d="M1195,-68.18C1198.04,-67.74 1201.05,-67.34 1204,-67 1679.78,-12.16 1804.52,-79.38 2281,-31 2291.38,-29.95 2302.42,-28.39 2312.97,-26.68"/>
<polygon fill="midnightblue" stroke="midnightblue" points="2313.63,-30.12 2322.91,-25.02 2312.47,-23.22 2313.63,-30.12"/>
</g>
</g>
</svg>
