<?xml version="1.0" encoding="UTF-8" standalone="no"?>
<!DOCTYPE svg PUBLIC "-//W3C//DTD SVG 1.1//EN"
 "http://www.w3.org/Graphics/SVG/1.1/DTD/svg11.dtd">
<!-- Generated by graphviz version 2.43.0 (0)
 -->
<!-- Title: seerep&#45;hdf5/seerep&#45;hdf5&#45;pb/include/seerep&#45;hdf5&#45;pb/hdf5&#45;pb&#45;general.h Pages: 1 -->
<svg width="1259pt" height="440pt"
 viewBox="0.00 0.00 1259.00 440.00" xmlns="http://www.w3.org/2000/svg" xmlns:xlink="http://www.w3.org/1999/xlink">
<g id="graph0" class="graph" transform="scale(1 1) rotate(0) translate(4 436)">
<title>seerep&#45;hdf5/seerep&#45;hdf5&#45;pb/include/seerep&#45;hdf5&#45;pb/hdf5&#45;pb&#45;general.h</title>
<!-- Node1 -->
<g id="node1" class="node">
<title>Node1</title>
<g id="a_node1"><a xlink:title=" ">
<polygon fill="#bfbfbf" stroke="black" points="674.5,-390.5 674.5,-431.5 822.5,-431.5 822.5,-390.5 674.5,-390.5"/>
<text text-anchor="start" x="682.5" y="-419.5" font-family="Helvetica,sans-Serif" font-size="10.00">seerep&#45;hdf5/seerep</text>
<text text-anchor="start" x="682.5" y="-408.5" font-family="Helvetica,sans-Serif" font-size="10.00">&#45;hdf5&#45;pb/include/seerep</text>
<text text-anchor="middle" x="748.5" y="-397.5" font-family="Helvetica,sans-Serif" font-size="10.00">&#45;hdf5&#45;pb/hdf5&#45;pb&#45;general.h</text>
</a>
</g>
</g>
<!-- Node2 -->
<g id="node2" class="node">
<title>Node2</title>
<g id="a_node2"><a xlink:href="hdf5-pb-image_8h.html" target="_top" xlink:title=" ">
<polygon fill="none" stroke="black" points="270.5,-312.5 270.5,-353.5 412.5,-353.5 412.5,-312.5 270.5,-312.5"/>
<text text-anchor="start" x="278.5" y="-341.5" font-family="Helvetica,sans-Serif" font-size="10.00">seerep&#45;hdf5/seerep</text>
<text text-anchor="start" x="278.5" y="-330.5" font-family="Helvetica,sans-Serif" font-size="10.00">&#45;hdf5&#45;pb/include/seerep</text>
<text text-anchor="middle" x="341.5" y="-319.5" font-family="Helvetica,sans-Serif" font-size="10.00">&#45;hdf5&#45;pb/hdf5&#45;pb&#45;image.h</text>
</a>
</g>
</g>
<!-- Node1&#45;&gt;Node2 -->
<g id="edge1" class="edge">
<title>Node1&#45;&gt;Node2</title>
<path fill="none" stroke="midnightblue" d="M664.07,-394.23C589.78,-380.36 482.84,-360.39 412.78,-347.31"/>
<polygon fill="midnightblue" stroke="midnightblue" points="663.85,-397.75 674.32,-396.15 665.14,-390.87 663.85,-397.75"/>
</g>
<!-- Node13 -->
<g id="node13" class="node">
<title>Node13</title>
<g id="a_node13"><a xlink:href="hdf5-pb-pointcloud_8h.html" target="_top" xlink:title=" ">
<polygon fill="none" stroke="black" points="585.5,-312.5 585.5,-353.5 747.5,-353.5 747.5,-312.5 585.5,-312.5"/>
<text text-anchor="start" x="593.5" y="-341.5" font-family="Helvetica,sans-Serif" font-size="10.00">seerep&#45;hdf5/seerep</text>
<text text-anchor="start" x="593.5" y="-330.5" font-family="Helvetica,sans-Serif" font-size="10.00">&#45;hdf5&#45;pb/include/seerep</text>
<text text-anchor="middle" x="666.5" y="-319.5" font-family="Helvetica,sans-Serif" font-size="10.00">&#45;hdf5&#45;pb/hdf5&#45;pb&#45;pointcloud.h</text>
</a>
</g>
</g>
<!-- Node1&#45;&gt;Node13 -->
<g id="edge12" class="edge">
<title>Node1&#45;&gt;Node13</title>
<path fill="none" stroke="midnightblue" d="M719.9,-383.49C709.26,-373.63 697.39,-362.63 687.55,-353.51"/>
<polygon fill="midnightblue" stroke="midnightblue" points="717.67,-386.2 727.38,-390.43 722.43,-381.06 717.67,-386.2"/>
</g>
<!-- Node19 -->
<g id="node19" class="node">
<title>Node19</title>
<g id="a_node19"><a xlink:href="hdf5-pb-tf_8h.html" target="_top" xlink:title=" ">
<polygon fill="none" stroke="black" points="765.5,-312.5 765.5,-353.5 897.5,-353.5 897.5,-312.5 765.5,-312.5"/>
<text text-anchor="start" x="773.5" y="-341.5" font-family="Helvetica,sans-Serif" font-size="10.00">seerep&#45;hdf5/seerep</text>
<text text-anchor="start" x="773.5" y="-330.5" font-family="Helvetica,sans-Serif" font-size="10.00">&#45;hdf5&#45;pb/include/seerep</text>
<text text-anchor="middle" x="831.5" y="-319.5" font-family="Helvetica,sans-Serif" font-size="10.00">&#45;hdf5&#45;pb/hdf5&#45;pb&#45;tf.h</text>
</a>
</g>
</g>
<!-- Node1&#45;&gt;Node19 -->
<g id="edge20" class="edge">
<title>Node1&#45;&gt;Node19</title>
<path fill="none" stroke="midnightblue" d="M777.45,-383.49C788.22,-373.63 800.24,-362.63 810.2,-353.51"/>
<polygon fill="midnightblue" stroke="midnightblue" points="774.89,-381.09 769.87,-390.43 779.61,-386.26 774.89,-381.09"/>
</g>
<!-- Node25 -->
<g id="node25" class="node">
<title>Node25</title>
<g id="a_node25"><a xlink:href="hdf5-pb-general_8cpp.html" target="_top" xlink:title=" ">
<polygon fill="none" stroke="black" points="915.5,-312.5 915.5,-353.5 1031.5,-353.5 1031.5,-312.5 915.5,-312.5"/>
<text text-anchor="start" x="923.5" y="-341.5" font-family="Helvetica,sans-Serif" font-size="10.00">seerep&#45;hdf5/seerep</text>
<text text-anchor="start" x="923.5" y="-330.5" font-family="Helvetica,sans-Serif" font-size="10.00">&#45;hdf5&#45;pb/src/hdf5&#45;pb</text>
<text text-anchor="middle" x="973.5" y="-319.5" font-family="Helvetica,sans-Serif" font-size="10.00">&#45;general.cpp</text>
</a>
</g>
</g>
<!-- Node1&#45;&gt;Node25 -->
<g id="edge28" class="edge">
<title>Node1&#45;&gt;Node25</title>
<path fill="none" stroke="midnightblue" d="M816.1,-387.17C847.87,-376.44 885.34,-363.78 915.75,-353.51"/>
<polygon fill="midnightblue" stroke="midnightblue" points="814.8,-383.91 806.44,-390.43 817.04,-390.54 814.8,-383.91"/>
</g>
<!-- Node3 -->
<g id="node3" class="node">
<title>Node3</title>
<g id="a_node3"><a xlink:href="hdf5-pb-image_8cpp.html" target="_top" xlink:title=" ">
<polygon fill="none" stroke="black" points="141.5,-229 141.5,-270 257.5,-270 257.5,-229 141.5,-229"/>
<text text-anchor="start" x="149.5" y="-258" font-family="Helvetica,sans-Serif" font-size="10.00">seerep&#45;hdf5/seerep</text>
<text text-anchor="start" x="149.5" y="-247" font-family="Helvetica,sans-Serif" font-size="10.00">&#45;hdf5&#45;pb/src/hdf5&#45;pb</text>
<text text-anchor="middle" x="199.5" y="-236" font-family="Helvetica,sans-Serif" font-size="10.00">&#45;image.cpp</text>
</a>
</g>
</g>
<!-- Node2&#45;&gt;Node3 -->
<g id="edge2" class="edge">
<title>Node2&#45;&gt;Node3</title>
<path fill="none" stroke="midnightblue" d="M298.55,-307.35C277.78,-295.43 253.21,-281.32 233.73,-270.14"/>
<polygon fill="midnightblue" stroke="midnightblue" points="297.07,-310.54 307.49,-312.48 300.56,-304.47 297.07,-310.54"/>
</g>
<!-- Node4 -->
<g id="node4" class="node">
<title>Node4</title>
<g id="a_node4"><a xlink:href="pb-write-load-test_8cpp.html" target="_top" xlink:title=" ">
<polygon fill="none" stroke="black" points="0,-229 0,-270 123,-270 123,-229 0,-229"/>
<text text-anchor="start" x="8" y="-258" font-family="Helvetica,sans-Serif" font-size="10.00">seerep&#45;hdf5/seerep</text>
<text text-anchor="start" x="8" y="-247" font-family="Helvetica,sans-Serif" font-size="10.00">&#45;hdf5&#45;pb/test/pb&#45;write</text>
<text text-anchor="middle" x="61.5" y="-236" font-family="Helvetica,sans-Serif" font-size="10.00">&#45;load&#45;test.cpp</text>
</a>
</g>
</g>
<!-- Node2&#45;&gt;Node4 -->
<g id="edge3" class="edge">
<title>Node2&#45;&gt;Node4</title>
<path fill="none" stroke="midnightblue" d="M260.74,-312.03C221.77,-301.97 174.47,-289.14 132.5,-276 126.63,-274.16 120.51,-272.14 114.45,-270.06"/>
<polygon fill="midnightblue" stroke="midnightblue" points="259.9,-315.43 270.46,-314.53 261.64,-308.65 259.9,-315.43"/>
</g>
<!-- Node5 -->
<g id="node5" class="node">
<title>Node5</title>
<g id="a_node5"><a xlink:href="hdf5dump_8h.html" target="_top" xlink:title=" ">
<polygon fill="none" stroke="black" points="436.5,-223.5 436.5,-275.5 590.5,-275.5 590.5,-223.5 436.5,-223.5"/>
<text text-anchor="start" x="444.5" y="-263.5" font-family="Helvetica,sans-Serif" font-size="10.00">seerep&#45;ros/seerep_ros</text>
<text text-anchor="start" x="444.5" y="-252.5" font-family="Helvetica,sans-Serif" font-size="10.00">_communication/include</text>
<text text-anchor="start" x="444.5" y="-241.5" font-family="Helvetica,sans-Serif" font-size="10.00">/seerep_ros_communication</text>
<text text-anchor="middle" x="513.5" y="-230.5" font-family="Helvetica,sans-Serif" font-size="10.00">/hdf5dump.h</text>
</a>
</g>
</g>
<!-- Node2&#45;&gt;Node5 -->
<g id="edge4" class="edge">
<title>Node2&#45;&gt;Node5</title>
<path fill="none" stroke="midnightblue" d="M392.01,-308.07C413.58,-297.85 438.75,-285.92 460.58,-275.58"/>
<polygon fill="midnightblue" stroke="midnightblue" points="390.24,-305.03 382.7,-312.48 393.23,-311.36 390.24,-305.03"/>
</g>
<!-- Node7 -->
<g id="node7" class="node">
<title>Node7</title>
<g id="a_node7"><a xlink:href="core-pb-image_8h.html" target="_top" xlink:title=" ">
<polygon fill="none" stroke="black" points="276,-229 276,-270 407,-270 407,-229 276,-229"/>
<text text-anchor="start" x="284" y="-258" font-family="Helvetica,sans-Serif" font-size="10.00">seerep&#45;srv/seerep&#45;core</text>
<text text-anchor="start" x="284" y="-247" font-family="Helvetica,sans-Serif" font-size="10.00">&#45;pb/include/seerep&#45;core</text>
<text text-anchor="middle" x="341.5" y="-236" font-family="Helvetica,sans-Serif" font-size="10.00">&#45;pb/core&#45;pb&#45;image.h</text>
</a>
</g>
</g>
<!-- Node2&#45;&gt;Node7 -->
<g id="edge6" class="edge">
<title>Node2&#45;&gt;Node7</title>
<path fill="none" stroke="midnightblue" d="M341.5,-302.06C341.5,-291.38 341.5,-279.63 341.5,-270.05"/>
<polygon fill="midnightblue" stroke="midnightblue" points="338,-302.27 341.5,-312.27 345,-302.27 338,-302.27"/>
</g>
<!-- Node6 -->
<g id="node6" class="node">
<title>Node6</title>
<g id="a_node6"><a xlink:href="hdf5dump_8cpp.html" target="_top" xlink:title=" ">
<polygon fill="none" stroke="black" points="419.5,-151 419.5,-181 607.5,-181 607.5,-151 419.5,-151"/>
<text text-anchor="start" x="427.5" y="-169" font-family="Helvetica,sans-Serif" font-size="10.00">seerep&#45;ros/seerep_ros</text>
<text text-anchor="middle" x="513.5" y="-158" font-family="Helvetica,sans-Serif" font-size="10.00">_communication/src/hdf5dump.cpp</text>
</a>
</g>
</g>
<!-- Node5&#45;&gt;Node6 -->
<g id="edge5" class="edge">
<title>Node5&#45;&gt;Node6</title>
<path fill="none" stroke="midnightblue" d="M513.5,-213.08C513.5,-201.82 513.5,-190.01 513.5,-181.17"/>
<polygon fill="midnightblue" stroke="midnightblue" points="510,-213.16 513.5,-223.16 517,-213.16 510,-213.16"/>
</g>
<!-- Node8 -->
<g id="node8" class="node">
<title>Node8</title>
<g id="a_node8"><a xlink:href="core-pb-image_8cpp.html" target="_top" xlink:title=" ">
<polygon fill="none" stroke="black" points="257.5,-151 257.5,-181 401.5,-181 401.5,-151 257.5,-151"/>
<text text-anchor="start" x="265.5" y="-169" font-family="Helvetica,sans-Serif" font-size="10.00">seerep&#45;srv/seerep&#45;core</text>
<text text-anchor="middle" x="329.5" y="-158" font-family="Helvetica,sans-Serif" font-size="10.00">&#45;pb/src/core&#45;pb&#45;image.cpp</text>
</a>
</g>
</g>
<!-- Node7&#45;&gt;Node8 -->
<g id="edge7" class="edge">
<title>Node7&#45;&gt;Node8</title>
<path fill="none" stroke="midnightblue" d="M337.09,-218.53C335.21,-205.76 333.1,-191.47 331.59,-181.18"/>
<polygon fill="midnightblue" stroke="midnightblue" points="333.68,-219.39 338.6,-228.77 340.6,-218.37 333.68,-219.39"/>
</g>
<!-- Node9 -->
<g id="node9" class="node">
<title>Node9</title>
<g id="a_node9"><a xlink:href="pb-image-service_8h.html" target="_top" xlink:title=" ">
<polygon fill="none" stroke="black" points="100,-145.5 100,-186.5 239,-186.5 239,-145.5 100,-145.5"/>
<text text-anchor="start" x="108" y="-174.5" font-family="Helvetica,sans-Serif" font-size="10.00">seerep&#45;srv/seerep&#45;server</text>
<text text-anchor="start" x="108" y="-163.5" font-family="Helvetica,sans-Serif" font-size="10.00">/include/seerep&#45;server</text>
<text text-anchor="middle" x="169.5" y="-152.5" font-family="Helvetica,sans-Serif" font-size="10.00">/pb&#45;image&#45;service.h</text>
</a>
</g>
</g>
<!-- Node7&#45;&gt;Node9 -->
<g id="edge8" class="edge">
<title>Node7&#45;&gt;Node9</title>
<path fill="none" stroke="midnightblue" d="M291.12,-224.63C265.53,-212.5 234.82,-197.95 210.66,-186.5"/>
<polygon fill="midnightblue" stroke="midnightblue" points="289.77,-227.86 300.3,-228.98 292.76,-221.53 289.77,-227.86"/>
</g>
<!-- Node10 -->
<g id="node10" class="node">
<title>Node10</title>
<g id="a_node10"><a xlink:href="server_8h.html" target="_top" xlink:title=" ">
<polygon fill="none" stroke="black" points="703,-67.5 703,-108.5 842,-108.5 842,-67.5 703,-67.5"/>
<text text-anchor="start" x="711" y="-96.5" font-family="Helvetica,sans-Serif" font-size="10.00">seerep&#45;srv/seerep&#45;server</text>
<text text-anchor="start" x="711" y="-85.5" font-family="Helvetica,sans-Serif" font-size="10.00">/include/seerep&#45;server</text>
<text text-anchor="middle" x="772.5" y="-74.5" font-family="Helvetica,sans-Serif" font-size="10.00">/server.h</text>
</a>
</g>
</g>
<!-- Node9&#45;&gt;Node10 -->
<g id="edge9" class="edge">
<title>Node9&#45;&gt;Node10</title>
<path fill="none" stroke="midnightblue" d="M249.2,-145.01C417.4,-115.47 604.17,-100.07 702.97,-93.29"/>
<polygon fill="midnightblue" stroke="midnightblue" points="248.4,-141.6 239.17,-146.79 249.63,-148.49 248.4,-141.6"/>
</g>
<!-- Node12 -->
<g id="node12" class="node">
<title>Node12</title>
<g id="a_node12"><a xlink:href="pb-image-service_8cpp.html" target="_top" xlink:title=" ">
<polygon fill="none" stroke="black" points="98,-73 98,-103 241,-103 241,-73 98,-73"/>
<text text-anchor="start" x="106" y="-91" font-family="Helvetica,sans-Serif" font-size="10.00">seerep&#45;srv/seerep&#45;server</text>
<text text-anchor="middle" x="169.5" y="-80" font-family="Helvetica,sans-Serif" font-size="10.00">/src/pb&#45;image&#45;service.cpp</text>
</a>
</g>
</g>
<!-- Node9&#45;&gt;Node12 -->
<g id="edge11" class="edge">
<title>Node9&#45;&gt;Node12</title>
<path fill="none" stroke="midnightblue" d="M169.5,-135.28C169.5,-124.25 169.5,-112.25 169.5,-103.23"/>
<polygon fill="midnightblue" stroke="midnightblue" points="166,-135.43 169.5,-145.43 173,-135.43 166,-135.43"/>
</g>
<!-- Node11 -->
<g id="node11" class="node">
<title>Node11</title>
<g id="a_node11"><a xlink:href="server_8cpp.html" target="_top" xlink:title=" ">
<polygon fill="none" stroke="black" points="703,-0.5 703,-30.5 842,-30.5 842,-0.5 703,-0.5"/>
<text text-anchor="start" x="711" y="-18.5" font-family="Helvetica,sans-Serif" font-size="10.00">seerep&#45;srv/seerep&#45;server</text>
<text text-anchor="middle" x="772.5" y="-7.5" font-family="Helvetica,sans-Serif" font-size="10.00">/src/server.cpp</text>
</a>
</g>
</g>
<!-- Node10&#45;&gt;Node11 -->
<g id="edge10" class="edge">
<title>Node10&#45;&gt;Node11</title>
<path fill="none" stroke="midnightblue" d="M772.5,-57.08C772.5,-48.01 772.5,-38.45 772.5,-30.89"/>
<polygon fill="midnightblue" stroke="midnightblue" points="769,-57.36 772.5,-67.36 776,-57.36 769,-57.36"/>
</g>
<!-- Node13&#45;&gt;Node5 -->
<g id="edge14" class="edge">
<title>Node13&#45;&gt;Node5</title>
<path fill="none" stroke="midnightblue" d="M620.79,-307.65C601.78,-297.53 579.73,-285.78 560.58,-275.58"/>
<polygon fill="midnightblue" stroke="midnightblue" points="619.38,-310.87 629.85,-312.48 622.67,-304.69 619.38,-310.87"/>
</g>
<!-- Node14 -->
<g id="node14" class="node">
<title>Node14</title>
<g id="a_node14"><a xlink:href="hdf5-pb-pointcloud_8cpp.html" target="_top" xlink:title=" ">
<polygon fill="none" stroke="black" points="608.5,-229 608.5,-270 724.5,-270 724.5,-229 608.5,-229"/>
<text text-anchor="start" x="616.5" y="-258" font-family="Helvetica,sans-Serif" font-size="10.00">seerep&#45;hdf5/seerep</text>
<text text-anchor="start" x="616.5" y="-247" font-family="Helvetica,sans-Serif" font-size="10.00">&#45;hdf5&#45;pb/src/hdf5&#45;pb</text>
<text text-anchor="middle" x="666.5" y="-236" font-family="Helvetica,sans-Serif" font-size="10.00">&#45;pointcloud.cpp</text>
</a>
</g>
</g>
<!-- Node13&#45;&gt;Node14 -->
<g id="edge13" class="edge">
<title>Node13&#45;&gt;Node14</title>
<path fill="none" stroke="midnightblue" d="M666.5,-302.06C666.5,-291.38 666.5,-279.63 666.5,-270.05"/>
<polygon fill="midnightblue" stroke="midnightblue" points="663,-302.27 666.5,-312.27 670,-302.27 663,-302.27"/>
</g>
<!-- Node15 -->
<g id="node15" class="node">
<title>Node15</title>
<g id="a_node15"><a xlink:href="core-pb-pointcloud_8h.html" target="_top" xlink:title=" ">
<polygon fill="none" stroke="black" points="742.5,-229 742.5,-270 878.5,-270 878.5,-229 742.5,-229"/>
<text text-anchor="start" x="750.5" y="-258" font-family="Helvetica,sans-Serif" font-size="10.00">seerep&#45;srv/seerep&#45;core</text>
<text text-anchor="start" x="750.5" y="-247" font-family="Helvetica,sans-Serif" font-size="10.00">&#45;pb/include/seerep&#45;core</text>
<text text-anchor="middle" x="810.5" y="-236" font-family="Helvetica,sans-Serif" font-size="10.00">&#45;pb/core&#45;pb&#45;pointcloud.h</text>
</a>
</g>
</g>
<!-- Node13&#45;&gt;Node15 -->
<g id="edge15" class="edge">
<title>Node13&#45;&gt;Node15</title>
<path fill="none" stroke="midnightblue" d="M709.77,-307.51C730.89,-295.56 755.95,-281.37 775.79,-270.14"/>
<polygon fill="midnightblue" stroke="midnightblue" points="707.97,-304.51 700.99,-312.48 711.42,-310.6 707.97,-304.51"/>
</g>
<!-- Node16 -->
<g id="node16" class="node">
<title>Node16</title>
<g id="a_node16"><a xlink:href="core-pb-pointcloud_8cpp.html" target="_top" xlink:title=" ">
<polygon fill="none" stroke="black" points="625.5,-151 625.5,-181 789.5,-181 789.5,-151 625.5,-151"/>
<text text-anchor="start" x="633.5" y="-169" font-family="Helvetica,sans-Serif" font-size="10.00">seerep&#45;srv/seerep&#45;core</text>
<text text-anchor="middle" x="707.5" y="-158" font-family="Helvetica,sans-Serif" font-size="10.00">&#45;pb/src/core&#45;pb&#45;pointcloud.cpp</text>
</a>
</g>
</g>
<!-- Node15&#45;&gt;Node16 -->
<g id="edge16" class="edge">
<title>Node15&#45;&gt;Node16</title>
<path fill="none" stroke="midnightblue" d="M777.6,-222.47C760.21,-208.71 739.56,-192.37 725.2,-181"/>
<polygon fill="midnightblue" stroke="midnightblue" points="775.82,-225.52 785.83,-228.98 780.16,-220.03 775.82,-225.52"/>
</g>
<!-- Node17 -->
<g id="node17" class="node">
<title>Node17</title>
<g id="a_node17"><a xlink:href="pb-point-cloud-service_8h.html" target="_top" xlink:title=" ">
<polygon fill="none" stroke="black" points="808,-145.5 808,-186.5 947,-186.5 947,-145.5 808,-145.5"/>
<text text-anchor="start" x="816" y="-174.5" font-family="Helvetica,sans-Serif" font-size="10.00">seerep&#45;srv/seerep&#45;server</text>
<text text-anchor="start" x="816" y="-163.5" font-family="Helvetica,sans-Serif" font-size="10.00">/include/seerep&#45;server</text>
<text text-anchor="middle" x="877.5" y="-152.5" font-family="Helvetica,sans-Serif" font-size="10.00">/pb&#45;point&#45;cloud&#45;service.h</text>
</a>
</g>
</g>
<!-- Node15&#45;&gt;Node17 -->
<g id="edge17" class="edge">
<title>Node15&#45;&gt;Node17</title>
<path fill="none" stroke="midnightblue" d="M833.2,-220.88C842.47,-209.61 852.98,-196.83 861.43,-186.55"/>
<polygon fill="midnightblue" stroke="midnightblue" points="830.37,-218.82 826.72,-228.77 835.77,-223.27 830.37,-218.82"/>
</g>
<!-- Node17&#45;&gt;Node10 -->
<g id="edge18" class="edge">
<title>Node17&#45;&gt;Node10</title>
<path fill="none" stroke="midnightblue" d="M842.06,-139.35C828.14,-129.27 812.42,-117.89 799.45,-108.51"/>
<polygon fill="midnightblue" stroke="midnightblue" points="840.31,-142.4 850.46,-145.43 844.41,-136.73 840.31,-142.4"/>
</g>
<!-- Node18 -->
<g id="node18" class="node">
<title>Node18</title>
<g id="a_node18"><a xlink:href="pb-point-cloud-service_8cpp.html" target="_top" xlink:title=" ">
<polygon fill="none" stroke="black" points="860,-73 860,-103 1027,-103 1027,-73 860,-73"/>
<text text-anchor="start" x="868" y="-91" font-family="Helvetica,sans-Serif" font-size="10.00">seerep&#45;srv/seerep&#45;server</text>
<text text-anchor="middle" x="943.5" y="-80" font-family="Helvetica,sans-Serif" font-size="10.00">/src/pb&#45;point&#45;cloud&#45;service.cpp</text>
</a>
</g>
</g>
<!-- Node17&#45;&gt;Node18 -->
<g id="edge19" class="edge">
<title>Node17&#45;&gt;Node18</title>
<path fill="none" stroke="midnightblue" d="M901.25,-137.65C911.37,-126 922.75,-112.9 931.15,-103.23"/>
<polygon fill="midnightblue" stroke="midnightblue" points="898.41,-135.58 894.5,-145.43 903.7,-140.17 898.41,-135.58"/>
</g>
<!-- Node19&#45;&gt;Node5 -->
<g id="edge22" class="edge">
<title>Node19&#45;&gt;Node5</title>
<path fill="none" stroke="midnightblue" d="M755.51,-311.8C685.35,-294.69 665.77,-293.4 599.5,-276 596.64,-275.25 593.73,-274.47 590.79,-273.67"/>
<polygon fill="midnightblue" stroke="midnightblue" points="754.73,-315.21 765.28,-314.21 756.41,-308.42 754.73,-315.21"/>
</g>
<!-- Node20 -->
<g id="node20" class="node">
<title>Node20</title>
<g id="a_node20"><a xlink:href="hdf5-pb-tf_8cpp.html" target="_top" xlink:title=" ">
<polygon fill="none" stroke="black" points="1079.5,-229 1079.5,-270 1195.5,-270 1195.5,-229 1079.5,-229"/>
<text text-anchor="start" x="1087.5" y="-258" font-family="Helvetica,sans-Serif" font-size="10.00">seerep&#45;hdf5/seerep</text>
<text text-anchor="start" x="1087.5" y="-247" font-family="Helvetica,sans-Serif" font-size="10.00">&#45;hdf5&#45;pb/src/hdf5&#45;pb</text>
<text text-anchor="middle" x="1137.5" y="-236" font-family="Helvetica,sans-Serif" font-size="10.00">&#45;tf.cpp</text>
</a>
</g>
</g>
<!-- Node19&#45;&gt;Node20 -->
<g id="edge21" class="edge">
<title>Node19&#45;&gt;Node20</title>
<path fill="none" stroke="midnightblue" d="M907.86,-311.74C980.83,-294.59 1002.06,-296.41 1070.5,-276 1076.46,-274.22 1082.65,-272.16 1088.75,-270.01"/>
<polygon fill="midnightblue" stroke="midnightblue" points="906.62,-308.44 897.71,-314.17 908.25,-315.25 906.62,-308.44"/>
</g>
<!-- Node21 -->
<g id="node21" class="node">
<title>Node21</title>
<g id="a_node21"><a xlink:href="core-pb-tf_8h.html" target="_top" xlink:title=" ">
<polygon fill="none" stroke="black" points="930,-229 930,-270 1061,-270 1061,-229 930,-229"/>
<text text-anchor="start" x="938" y="-258" font-family="Helvetica,sans-Serif" font-size="10.00">seerep&#45;srv/seerep&#45;core</text>
<text text-anchor="start" x="938" y="-247" font-family="Helvetica,sans-Serif" font-size="10.00">&#45;pb/include/seerep&#45;core</text>
<text text-anchor="middle" x="995.5" y="-236" font-family="Helvetica,sans-Serif" font-size="10.00">&#45;pb/core&#45;pb&#45;tf.h</text>
</a>
</g>
</g>
<!-- Node19&#45;&gt;Node21 -->
<g id="edge23" class="edge">
<title>Node19&#45;&gt;Node21</title>
<path fill="none" stroke="midnightblue" d="M879.85,-307.97C904.2,-295.87 933.32,-281.4 956.25,-270"/>
<polygon fill="midnightblue" stroke="midnightblue" points="878.18,-304.89 870.78,-312.48 881.29,-311.16 878.18,-304.89"/>
</g>
<!-- Node22 -->
<g id="node22" class="node">
<title>Node22</title>
<g id="a_node22"><a xlink:href="core-pb-tf_8cpp.html" target="_top" xlink:title=" ">
<polygon fill="none" stroke="black" points="965,-151 965,-181 1094,-181 1094,-151 965,-151"/>
<text text-anchor="start" x="973" y="-169" font-family="Helvetica,sans-Serif" font-size="10.00">seerep&#45;srv/seerep&#45;core</text>
<text text-anchor="middle" x="1029.5" y="-158" font-family="Helvetica,sans-Serif" font-size="10.00">&#45;pb/src/core&#45;pb&#45;tf.cpp</text>
</a>
</g>
</g>
<!-- Node21&#45;&gt;Node22 -->
<g id="edge24" class="edge">
<title>Node21&#45;&gt;Node22</title>
<path fill="none" stroke="midnightblue" d="M1007.69,-219.29C1013.09,-206.33 1019.21,-191.68 1023.58,-181.18"/>
<polygon fill="midnightblue" stroke="midnightblue" points="1004.35,-218.19 1003.73,-228.77 1010.81,-220.89 1004.35,-218.19"/>
</g>
<!-- Node23 -->
<g id="node23" class="node">
<title>Node23</title>
<g id="a_node23"><a xlink:href="pb-tf-service_8h.html" target="_top" xlink:title=" ">
<polygon fill="none" stroke="black" points="1112,-145.5 1112,-186.5 1251,-186.5 1251,-145.5 1112,-145.5"/>
<text text-anchor="start" x="1120" y="-174.5" font-family="Helvetica,sans-Serif" font-size="10.00">seerep&#45;srv/seerep&#45;server</text>
<text text-anchor="start" x="1120" y="-163.5" font-family="Helvetica,sans-Serif" font-size="10.00">/include/seerep&#45;server</text>
<text text-anchor="middle" x="1181.5" y="-152.5" font-family="Helvetica,sans-Serif" font-size="10.00">/pb&#45;tf&#45;service.h</text>
</a>
</g>
</g>
<!-- Node21&#45;&gt;Node23 -->
<g id="edge25" class="edge">
<title>Node21&#45;&gt;Node23</title>
<path fill="none" stroke="midnightblue" d="M1049.25,-224.95C1077.07,-212.76 1110.64,-198.05 1136.99,-186.5"/>
<polygon fill="midnightblue" stroke="midnightblue" points="1047.81,-221.76 1040.05,-228.98 1050.62,-228.17 1047.81,-221.76"/>
</g>
<!-- Node23&#45;&gt;Node10 -->
<g id="edge26" class="edge">
<title>Node23&#45;&gt;Node10</title>
<path fill="none" stroke="midnightblue" d="M1101.92,-144.79C990.77,-123.35 959.35,-130.29 851.5,-109 848.45,-108.4 845.33,-107.75 842.2,-107.07"/>
<polygon fill="midnightblue" stroke="midnightblue" points="1101.36,-148.25 1111.85,-146.74 1102.71,-141.38 1101.36,-148.25"/>
</g>
<!-- Node24 -->
<g id="node24" class="node">
<title>Node24</title>
<g id="a_node24"><a xlink:href="pb-tf-service_8cpp.html" target="_top" xlink:title=" ">
<polygon fill="none" stroke="black" points="1112,-73 1112,-103 1251,-103 1251,-73 1112,-73"/>
<text text-anchor="start" x="1120" y="-91" font-family="Helvetica,sans-Serif" font-size="10.00">seerep&#45;srv/seerep&#45;server</text>
<text text-anchor="middle" x="1181.5" y="-80" font-family="Helvetica,sans-Serif" font-size="10.00">/src/pb&#45;tf&#45;service.cpp</text>
</a>
</g>
</g>
<!-- Node23&#45;&gt;Node24 -->
<g id="edge27" class="edge">
<title>Node23&#45;&gt;Node24</title>
<path fill="none" stroke="midnightblue" d="M1181.5,-135.28C1181.5,-124.25 1181.5,-112.25 1181.5,-103.23"/>
<polygon fill="midnightblue" stroke="midnightblue" points="1178,-135.43 1181.5,-145.43 1185,-135.43 1178,-135.43"/>
</g>
</g>
</svg>
