<?xml version="1.0" encoding="UTF-8" standalone="no"?>
<!DOCTYPE svg PUBLIC "-//W3C//DTD SVG 1.1//EN"
 "http://www.w3.org/Graphics/SVG/1.1/DTD/svg11.dtd">
<!-- Generated by graphviz version 2.43.0 (0)
 -->
<!-- Title: seerep_hdf5/seerep_hdf5_fb/src/hdf5_fb_tf.cpp Pages: 1 -->
<svg width="2449pt" height="318pt"
 viewBox="0.00 0.00 2449.00 318.00" xmlns="http://www.w3.org/2000/svg" xmlns:xlink="http://www.w3.org/1999/xlink">
<g id="graph0" class="graph" transform="scale(1 1) rotate(0) translate(4 314)">
<title>seerep_hdf5/seerep_hdf5_fb/src/hdf5_fb_tf.cpp</title>
<!-- Node1 -->
<g id="node1" class="node">
<title>Node1</title>
<g id="a_node1"><a xlink:title=" ">
<polygon fill="#bfbfbf" stroke="black" points="1875,-268.5 1875,-309.5 1991,-309.5 1991,-268.5 1875,-268.5"/>
<text text-anchor="start" x="1883" y="-297.5" font-family="Helvetica,sans-Serif" font-size="10.00">seerep_hdf5/seerep</text>
<text text-anchor="start" x="1883" y="-286.5" font-family="Helvetica,sans-Serif" font-size="10.00">_hdf5_fb/src/hdf5_fb</text>
<text text-anchor="middle" x="1933" y="-275.5" font-family="Helvetica,sans-Serif" font-size="10.00">_tf.cpp</text>
</a>
</g>
</g>
<!-- Node2 -->
<g id="node2" class="node">
<title>Node2</title>
<g id="a_node2"><a xlink:href="hdf5__fb__tf_8h.html" target="_top" xlink:title=" ">
<polygon fill="none" stroke="black" points="1786,-201.5 1786,-231.5 1902,-231.5 1902,-201.5 1786,-201.5"/>
<text text-anchor="start" x="1794" y="-219.5" font-family="Helvetica,sans-Serif" font-size="10.00">seerep_hdf5_fb/hdf5</text>
<text text-anchor="middle" x="1844" y="-208.5" font-family="Helvetica,sans-Serif" font-size="10.00">_fb_tf.h</text>
</a>
</g>
</g>
<!-- Node1&#45;&gt;Node2 -->
<g id="edge1" class="edge">
<title>Node1&#45;&gt;Node2</title>
<path fill="none" stroke="midnightblue" d="M1908.21,-268.36C1896.26,-258.89 1881.93,-247.54 1869.84,-237.97"/>
<polygon fill="midnightblue" stroke="midnightblue" points="1871.9,-235.14 1861.89,-231.67 1867.55,-240.62 1871.9,-235.14"/>
</g>
<!-- Node4 -->
<g id="node4" class="node">
<title>Node4</title>
<g id="a_node4"><a xlink:href="hdf5__core__tf_8h.html" target="_top" xlink:title=" ">
<polygon fill="none" stroke="black" points="1872,-134.5 1872,-164.5 2000,-164.5 2000,-134.5 1872,-134.5"/>
<text text-anchor="start" x="1880" y="-152.5" font-family="Helvetica,sans-Serif" font-size="10.00">seerep_hdf5_core/hdf5</text>
<text text-anchor="middle" x="1936" y="-141.5" font-family="Helvetica,sans-Serif" font-size="10.00">_core_tf.h</text>
</a>
</g>
</g>
<!-- Node1&#45;&gt;Node4 -->
<g id="edge46" class="edge">
<title>Node1&#45;&gt;Node4</title>
<path fill="none" stroke="midnightblue" d="M1933.43,-268.3C1933.97,-243.63 1934.89,-201.38 1935.47,-174.75"/>
<polygon fill="midnightblue" stroke="midnightblue" points="1938.97,-174.79 1935.69,-164.72 1931.97,-174.64 1938.97,-174.79"/>
</g>
<!-- Node33 -->
<g id="node33" class="node">
<title>Node33</title>
<g id="a_node33"><a xlink:title=" ">
<polygon fill="none" stroke="#bfbfbf" points="1961,-207 1961,-226 2093,-226 2093,-207 1961,-207"/>
<text text-anchor="middle" x="2027" y="-214" font-family="Helvetica,sans-Serif" font-size="10.00">highfive/H5DataSet.hpp</text>
</a>
</g>
</g>
<!-- Node1&#45;&gt;Node33 -->
<g id="edge45" class="edge">
<title>Node1&#45;&gt;Node33</title>
<path fill="none" stroke="midnightblue" d="M1959.18,-268.36C1974.34,-257 1993.1,-242.92 2007.05,-232.46"/>
<polygon fill="midnightblue" stroke="midnightblue" points="2009.54,-234.97 2015.44,-226.17 2005.34,-229.37 2009.54,-234.97"/>
</g>
<!-- Node3 -->
<g id="node3" class="node">
<title>Node3</title>
<g id="a_node3"><a xlink:title=" ">
<polygon fill="none" stroke="#bfbfbf" points="2331,-6 2331,-25 2441,-25 2441,-6 2331,-6"/>
<text text-anchor="middle" x="2386" y="-13" font-family="Helvetica,sans-Serif" font-size="10.00">highfive/H5File.hpp</text>
</a>
</g>
</g>
<!-- Node2&#45;&gt;Node3 -->
<g id="edge2" class="edge">
<title>Node2&#45;&gt;Node3</title>
<path fill="none" stroke="midnightblue" d="M1902.25,-204.91C1984.68,-188.63 2138.92,-153.43 2261,-98 2301.37,-79.67 2343.63,-49.43 2367.21,-31.39"/>
<polygon fill="midnightblue" stroke="midnightblue" points="2369.53,-34.02 2375.29,-25.12 2365.24,-28.48 2369.53,-34.02"/>
</g>
<!-- Node2&#45;&gt;Node4 -->
<g id="edge3" class="edge">
<title>Node2&#45;&gt;Node4</title>
<path fill="none" stroke="midnightblue" d="M1863.96,-201.4C1876.74,-192.37 1893.52,-180.51 1907.67,-170.52"/>
<polygon fill="midnightblue" stroke="midnightblue" points="1909.93,-173.21 1916.08,-164.58 1905.89,-167.49 1909.93,-173.21"/>
</g>
<!-- Node11 -->
<g id="node11" class="node">
<title>Node11</title>
<g id="a_node11"><a xlink:title=" ">
<polygon fill="none" stroke="#bfbfbf" points="2199.5,-6 2199.5,-25 2312.5,-25 2312.5,-6 2199.5,-6"/>
<text text-anchor="middle" x="2256" y="-13" font-family="Helvetica,sans-Serif" font-size="10.00">boost/geometry.hpp</text>
</a>
</g>
</g>
<!-- Node2&#45;&gt;Node11 -->
<g id="edge43" class="edge">
<title>Node2&#45;&gt;Node11</title>
<path fill="none" stroke="midnightblue" d="M1844.3,-201.33C1845.31,-184.05 1849.12,-154.61 1863,-134 1891.87,-91.15 1910.09,-86.35 1958,-67 2055.16,-27.77 2088.03,-50.42 2191,-31 2197.11,-29.85 2203.53,-28.54 2209.85,-27.19"/>
<polygon fill="midnightblue" stroke="midnightblue" points="2210.62,-30.6 2219.65,-25.05 2209.13,-23.76 2210.62,-30.6"/>
</g>
<!-- Node13 -->
<g id="node13" class="node">
<title>Node13</title>
<g id="a_node13"><a xlink:title=" ">
<polygon fill="none" stroke="#bfbfbf" points="0,-6 0,-25 56,-25 56,-6 0,-6"/>
<text text-anchor="middle" x="28" y="-13" font-family="Helvetica,sans-Serif" font-size="10.00">optional</text>
</a>
</g>
</g>
<!-- Node2&#45;&gt;Node13 -->
<g id="edge44" class="edge">
<title>Node2&#45;&gt;Node13</title>
<path fill="none" stroke="midnightblue" d="M1785.9,-215.33C1526.51,-213.99 473.49,-202.09 163,-98 117.69,-82.81 71.4,-50.44 46.54,-31.38"/>
<polygon fill="midnightblue" stroke="midnightblue" points="48.42,-28.42 38.39,-25.02 44.12,-33.93 48.42,-28.42"/>
</g>
<!-- Node24 -->
<g id="node24" class="node">
<title>Node24</title>
<g id="a_node24"><a xlink:href="hdf5__fb__general_8h.html" target="_top" xlink:title=" ">
<polygon fill="none" stroke="black" points="815,-140 815,-159 919,-159 919,-140 815,-140"/>
<text text-anchor="middle" x="867" y="-147" font-family="Helvetica,sans-Serif" font-size="10.00">hdf5_fb_general.h</text>
</a>
</g>
</g>
<!-- Node2&#45;&gt;Node24 -->
<g id="edge27" class="edge">
<title>Node2&#45;&gt;Node24</title>
<path fill="none" stroke="midnightblue" d="M1785.81,-211.63C1613.52,-200.17 1106.99,-166.47 929.39,-154.65"/>
<polygon fill="midnightblue" stroke="midnightblue" points="929.38,-151.14 919.17,-153.97 928.92,-158.13 929.38,-151.14"/>
</g>
<!-- Node32 -->
<g id="node32" class="node">
<title>Node32</title>
<g id="a_node32"><a xlink:title=" ">
<polygon fill="none" stroke="#bfbfbf" points="1684,-134.5 1684,-164.5 1816,-164.5 1816,-134.5 1684,-134.5"/>
<text text-anchor="start" x="1692" y="-152.5" font-family="Helvetica,sans-Serif" font-size="10.00">seerep_msgs/transform</text>
<text text-anchor="middle" x="1750" y="-141.5" font-family="Helvetica,sans-Serif" font-size="10.00">_stamped_generated.h</text>
</a>
</g>
</g>
<!-- Node2&#45;&gt;Node32 -->
<g id="edge42" class="edge">
<title>Node2&#45;&gt;Node32</title>
<path fill="none" stroke="midnightblue" d="M1823.6,-201.4C1810.55,-192.37 1793.4,-180.51 1778.95,-170.52"/>
<polygon fill="midnightblue" stroke="midnightblue" points="1780.57,-167.39 1770.36,-164.58 1776.59,-173.14 1780.57,-167.39"/>
</g>
<!-- Node4&#45;&gt;Node3 -->
<g id="edge4" class="edge">
<title>Node4&#45;&gt;Node3</title>
<path fill="none" stroke="midnightblue" d="M2000.2,-141.4C2056.66,-134.06 2140.59,-120.46 2211,-98 2267.38,-80.02 2329.24,-48.07 2362.2,-29.98"/>
<polygon fill="midnightblue" stroke="midnightblue" points="2364.03,-32.96 2371.08,-25.05 2360.64,-26.84 2364.03,-32.96"/>
</g>
<!-- Node5 -->
<g id="node5" class="node">
<title>Node5</title>
<g id="a_node5"><a xlink:href="hdf5__core__general_8h.html" target="_top" xlink:title=" ">
<polygon fill="none" stroke="black" points="1293,-73 1293,-92 1409,-92 1409,-73 1293,-73"/>
<text text-anchor="middle" x="1351" y="-80" font-family="Helvetica,sans-Serif" font-size="10.00">hdf5_core_general.h</text>
</a>
</g>
</g>
<!-- Node4&#45;&gt;Node5 -->
<g id="edge5" class="edge">
<title>Node4&#45;&gt;Node5</title>
<path fill="none" stroke="midnightblue" d="M1871.76,-139.84C1856.45,-137.85 1840.15,-135.8 1825,-134 1680.64,-116.88 1511.21,-99.48 1419.09,-90.24"/>
<polygon fill="midnightblue" stroke="midnightblue" points="1419.36,-86.75 1409.06,-89.24 1418.66,-93.72 1419.36,-86.75"/>
</g>
<!-- Node4&#45;&gt;Node11 -->
<g id="edge25" class="edge">
<title>Node4&#45;&gt;Node11</title>
<path fill="none" stroke="midnightblue" d="M1941.73,-134.4C1950.07,-115.77 1967.42,-83.4 1993,-67 2068.29,-18.72 2103.33,-48.74 2191,-31 2196.81,-29.82 2202.9,-28.54 2208.92,-27.23"/>
<polygon fill="midnightblue" stroke="midnightblue" points="2209.91,-30.6 2218.93,-25.04 2208.41,-23.76 2209.91,-30.6"/>
</g>
<!-- Node4&#45;&gt;Node13 -->
<g id="edge26" class="edge">
<title>Node4&#45;&gt;Node13</title>
<path fill="none" stroke="midnightblue" d="M1871.81,-139.41C1856.49,-137.44 1840.18,-135.5 1825,-134 1705.09,-122.19 1396.38,-141.46 1284,-98 1263.35,-90.01 1265.79,-74.61 1245,-67 1121.83,-21.89 193.51,-57.32 65,-31 61.92,-30.37 58.77,-29.51 55.66,-28.51"/>
<polygon fill="midnightblue" stroke="midnightblue" points="56.66,-25.15 46.06,-25.01 54.26,-31.72 56.66,-25.15"/>
</g>
<!-- Node23 -->
<g id="node23" class="node">
<title>Node23</title>
<g id="a_node23"><a xlink:title=" ">
<polygon fill="none" stroke="#bfbfbf" points="2002,-73 2002,-92 2202,-92 2202,-73 2002,-73"/>
<text text-anchor="middle" x="2102" y="-80" font-family="Helvetica,sans-Serif" font-size="10.00">geometry_msgs/TransformStamped.h</text>
</a>
</g>
</g>
<!-- Node4&#45;&gt;Node23 -->
<g id="edge24" class="edge">
<title>Node4&#45;&gt;Node23</title>
<path fill="none" stroke="midnightblue" d="M1972.02,-134.4C2001.53,-122.84 2042.86,-106.66 2070.94,-95.66"/>
<polygon fill="midnightblue" stroke="midnightblue" points="2072.24,-98.91 2080.27,-92.01 2069.69,-92.39 2072.24,-98.91"/>
</g>
<!-- Node5&#45;&gt;Node3 -->
<g id="edge6" class="edge">
<title>Node5&#45;&gt;Node3</title>
<path fill="none" stroke="midnightblue" d="M1409.06,-81.93C1560.23,-82.29 1978.17,-78.54 2322,-31 2328.9,-30.05 2336.15,-28.72 2343.2,-27.26"/>
<polygon fill="midnightblue" stroke="midnightblue" points="2344.29,-30.6 2353.31,-25.04 2342.79,-23.76 2344.29,-30.6"/>
</g>
<!-- Node6 -->
<g id="node6" class="node">
<title>Node6</title>
<g id="a_node6"><a xlink:title=" ">
<polygon fill="none" stroke="#bfbfbf" points="1925.5,-6 1925.5,-25 2042.5,-25 2042.5,-6 1925.5,-6"/>
<text text-anchor="middle" x="1984" y="-13" font-family="Helvetica,sans-Serif" font-size="10.00">seerep_msgs/aabb.h</text>
</a>
</g>
</g>
<!-- Node5&#45;&gt;Node6 -->
<g id="edge7" class="edge">
<title>Node5&#45;&gt;Node6</title>
<path fill="none" stroke="midnightblue" d="M1409.02,-78.63C1511.7,-73.05 1731.95,-58.74 1916,-31 1923.14,-29.92 1930.65,-28.56 1937.98,-27.1"/>
<polygon fill="midnightblue" stroke="midnightblue" points="1938.72,-30.52 1947.8,-25.07 1937.3,-23.67 1938.72,-30.52"/>
</g>
<!-- Node7 -->
<g id="node7" class="node">
<title>Node7</title>
<g id="a_node7"><a xlink:title=" ">
<polygon fill="none" stroke="#bfbfbf" points="2060.5,-0.5 2060.5,-30.5 2181.5,-30.5 2181.5,-0.5 2060.5,-0.5"/>
<text text-anchor="start" x="2068.5" y="-18.5" font-family="Helvetica,sans-Serif" font-size="10.00">seerep_msgs/dataset</text>
<text text-anchor="middle" x="2121" y="-7.5" font-family="Helvetica,sans-Serif" font-size="10.00">_indexable.h</text>
</a>
</g>
</g>
<!-- Node5&#45;&gt;Node7 -->
<g id="edge8" class="edge">
<title>Node5&#45;&gt;Node7</title>
<path fill="none" stroke="midnightblue" d="M1409.16,-78.33C1550.51,-70.46 1910.16,-49.43 2050.39,-31.07"/>
<polygon fill="midnightblue" stroke="midnightblue" points="2051.06,-34.51 2060.5,-29.7 2050.12,-27.57 2051.06,-34.51"/>
</g>
<!-- Node8 -->
<g id="node8" class="node">
<title>Node8</title>
<g id="a_node8"><a xlink:title=" ">
<polygon fill="none" stroke="#bfbfbf" points="436,-0.5 436,-30.5 562,-30.5 562,-0.5 436,-0.5"/>
<text text-anchor="start" x="444" y="-18.5" font-family="Helvetica,sans-Serif" font-size="10.00">seerep_msgs/geodetic</text>
<text text-anchor="middle" x="499" y="-7.5" font-family="Helvetica,sans-Serif" font-size="10.00">_coordinates.h</text>
</a>
</g>
</g>
<!-- Node5&#45;&gt;Node8 -->
<g id="edge9" class="edge">
<title>Node5&#45;&gt;Node8</title>
<path fill="none" stroke="midnightblue" d="M1314.17,-72.99C1302.94,-70.69 1290.51,-68.44 1279,-67 969.73,-28.21 885.43,-69.31 572.41,-31.04"/>
<polygon fill="midnightblue" stroke="midnightblue" points="572.48,-27.52 562.13,-29.76 571.62,-34.47 572.48,-27.52"/>
</g>
<!-- Node9 -->
<g id="node9" class="node">
<title>Node9</title>
<g id="a_node9"><a xlink:title=" ">
<polygon fill="none" stroke="#bfbfbf" points="580.5,-6 580.5,-25 697.5,-25 697.5,-6 580.5,-6"/>
<text text-anchor="middle" x="639" y="-13" font-family="Helvetica,sans-Serif" font-size="10.00">seerep_msgs/label.h</text>
</a>
</g>
</g>
<!-- Node5&#45;&gt;Node9 -->
<g id="edge10" class="edge">
<title>Node5&#45;&gt;Node9</title>
<path fill="none" stroke="midnightblue" d="M1313.42,-72.93C1302.38,-70.68 1290.25,-68.48 1279,-67 1026.45,-33.78 959.36,-65.65 707,-31 699.52,-29.97 691.63,-28.58 683.98,-27.06"/>
<polygon fill="midnightblue" stroke="midnightblue" points="684.62,-23.62 674.12,-25.02 683.2,-30.48 684.62,-23.62"/>
</g>
<!-- Node10 -->
<g id="node10" class="node">
<title>Node10</title>
<g id="a_node10"><a xlink:title=" ">
<polygon fill="none" stroke="#bfbfbf" points="716,-6 716,-25 880,-25 880,-6 716,-6"/>
<text text-anchor="middle" x="798" y="-13" font-family="Helvetica,sans-Serif" font-size="10.00">seerep_msgs/label_category.h</text>
</a>
</g>
</g>
<!-- Node5&#45;&gt;Node10 -->
<g id="edge11" class="edge">
<title>Node5&#45;&gt;Node10</title>
<path fill="none" stroke="midnightblue" d="M1312.65,-72.99C1301.81,-70.8 1289.98,-68.61 1279,-67 1106.77,-41.78 1061.71,-52.71 889,-31 879,-29.74 868.41,-28.23 858.13,-26.65"/>
<polygon fill="midnightblue" stroke="midnightblue" points="858.4,-23.15 847.98,-25.07 857.32,-30.07 858.4,-23.15"/>
</g>
<!-- Node5&#45;&gt;Node11 -->
<g id="edge12" class="edge">
<title>Node5&#45;&gt;Node11</title>
<path fill="none" stroke="midnightblue" d="M1409.17,-78.54C1586.72,-69.44 2114.19,-41.81 2191,-31 2197.92,-30.03 2205.2,-28.7 2212.28,-27.25"/>
<polygon fill="midnightblue" stroke="midnightblue" points="2213.41,-30.59 2222.45,-25.06 2211.94,-23.74 2213.41,-30.59"/>
</g>
<!-- Node12 -->
<g id="node12" class="node">
<title>Node12</title>
<g id="a_node12"><a xlink:title=" ">
<polygon fill="none" stroke="#bfbfbf" points="74,-6 74,-25 122,-25 122,-6 74,-6"/>
<text text-anchor="middle" x="98" y="-13" font-family="Helvetica,sans-Serif" font-size="10.00">mutex</text>
</a>
</g>
</g>
<!-- Node5&#45;&gt;Node12 -->
<g id="edge13" class="edge">
<title>Node5&#45;&gt;Node12</title>
<path fill="none" stroke="midnightblue" d="M1314.56,-72.93C1303.23,-70.6 1290.65,-68.35 1279,-67 1025.45,-37.7 379.93,-87.37 131,-31 128.49,-30.43 125.93,-29.67 123.41,-28.8"/>
<polygon fill="midnightblue" stroke="midnightblue" points="124.61,-25.51 114.03,-25.01 121.99,-32 124.61,-25.51"/>
</g>
<!-- Node5&#45;&gt;Node13 -->
<g id="edge14" class="edge">
<title>Node5&#45;&gt;Node13</title>
<path fill="none" stroke="midnightblue" d="M1314.93,-72.99C1303.5,-70.63 1290.78,-68.35 1279,-67 1010.86,-36.25 329.43,-85.04 65,-31 61.92,-30.37 58.77,-29.51 55.66,-28.51"/>
<polygon fill="midnightblue" stroke="midnightblue" points="56.66,-25.15 46.06,-25.01 54.26,-31.73 56.66,-25.15"/>
</g>
<!-- Node14 -->
<g id="node14" class="node">
<title>Node14</title>
<g id="a_node14"><a xlink:title=" ">
<polygon fill="none" stroke="#bfbfbf" points="898.5,-6 898.5,-25 967.5,-25 967.5,-6 898.5,-6"/>
<text text-anchor="middle" x="933" y="-13" font-family="Helvetica,sans-Serif" font-size="10.00">type_traits</text>
</a>
</g>
</g>
<!-- Node5&#45;&gt;Node14 -->
<g id="edge15" class="edge">
<title>Node5&#45;&gt;Node14</title>
<path fill="none" stroke="midnightblue" d="M1311.49,-72.95C1300.96,-70.83 1289.58,-68.69 1279,-67 1145.09,-45.6 1108.29,-60.83 976,-31 972.51,-30.21 968.91,-29.25 965.34,-28.2"/>
<polygon fill="midnightblue" stroke="midnightblue" points="966.1,-24.77 955.51,-25.07 963.98,-31.44 966.1,-24.77"/>
</g>
<!-- Node15 -->
<g id="node15" class="node">
<title>Node15</title>
<g id="a_node15"><a xlink:title=" ">
<polygon fill="none" stroke="#bfbfbf" points="140.5,-0.5 140.5,-30.5 285.5,-30.5 285.5,-0.5 140.5,-0.5"/>
<text text-anchor="start" x="148.5" y="-18.5" font-family="Helvetica,sans-Serif" font-size="10.00">boost/log/sources/severity</text>
<text text-anchor="middle" x="213" y="-7.5" font-family="Helvetica,sans-Serif" font-size="10.00">_logger.hpp</text>
</a>
</g>
</g>
<!-- Node5&#45;&gt;Node15 -->
<g id="edge16" class="edge">
<title>Node5&#45;&gt;Node15</title>
<path fill="none" stroke="midnightblue" d="M1314.56,-72.97C1303.23,-70.64 1290.65,-68.38 1279,-67 847.69,-16.02 731.93,-76.29 295.84,-30.97"/>
<polygon fill="midnightblue" stroke="midnightblue" points="296.11,-27.48 285.8,-29.91 295.38,-34.44 296.11,-27.48"/>
</g>
<!-- Node16 -->
<g id="node16" class="node">
<title>Node16</title>
<g id="a_node16"><a xlink:title=" ">
<polygon fill="none" stroke="#bfbfbf" points="304,-6 304,-25 418,-25 418,-6 304,-6"/>
<text text-anchor="middle" x="361" y="-13" font-family="Helvetica,sans-Serif" font-size="10.00">boost/log/trivial.hpp</text>
</a>
</g>
</g>
<!-- Node5&#45;&gt;Node16 -->
<g id="edge17" class="edge">
<title>Node5&#45;&gt;Node16</title>
<path fill="none" stroke="midnightblue" d="M1314.18,-72.93C1302.95,-70.63 1290.52,-68.39 1279,-67 902.74,-21.45 802.84,-79.85 427,-31 419.64,-30.04 411.89,-28.67 404.39,-27.16"/>
<polygon fill="midnightblue" stroke="midnightblue" points="404.89,-23.68 394.38,-25.02 403.42,-30.53 404.89,-23.68"/>
</g>
<!-- Node17 -->
<g id="node17" class="node">
<title>Node17</title>
<g id="a_node17"><a xlink:title=" ">
<polygon fill="none" stroke="#bfbfbf" points="985.5,-6 985.5,-25 1128.5,-25 1128.5,-6 985.5,-6"/>
<text text-anchor="middle" x="1057" y="-13" font-family="Helvetica,sans-Serif" font-size="10.00">boost/functional/hash.hpp</text>
</a>
</g>
</g>
<!-- Node5&#45;&gt;Node17 -->
<g id="edge18" class="edge">
<title>Node5&#45;&gt;Node17</title>
<path fill="none" stroke="midnightblue" d="M1312.26,-72.94C1259.16,-61.2 1163.77,-40.11 1105.84,-27.3"/>
<polygon fill="midnightblue" stroke="midnightblue" points="1106.34,-23.82 1095.82,-25.08 1104.83,-30.66 1106.34,-23.82"/>
</g>
<!-- Node18 -->
<g id="node18" class="node">
<title>Node18</title>
<g id="a_node18"><a xlink:title=" ">
<polygon fill="none" stroke="#bfbfbf" points="1146.5,-6 1146.5,-25 1271.5,-25 1271.5,-6 1146.5,-6"/>
<text text-anchor="middle" x="1209" y="-13" font-family="Helvetica,sans-Serif" font-size="10.00">boost/lexical_cast.hpp</text>
</a>
</g>
</g>
<!-- Node5&#45;&gt;Node18 -->
<g id="edge19" class="edge">
<title>Node5&#45;&gt;Node18</title>
<path fill="none" stroke="midnightblue" d="M1332.14,-72.87C1307.85,-61.75 1265.4,-42.32 1237.24,-29.43"/>
<polygon fill="midnightblue" stroke="midnightblue" points="1238.48,-26.15 1227.93,-25.17 1235.57,-32.51 1238.48,-26.15"/>
</g>
<!-- Node19 -->
<g id="node19" class="node">
<title>Node19</title>
<g id="a_node19"><a xlink:title=" ">
<polygon fill="none" stroke="#bfbfbf" points="1289.5,-6 1289.5,-25 1402.5,-25 1402.5,-6 1289.5,-6"/>
<text text-anchor="middle" x="1346" y="-13" font-family="Helvetica,sans-Serif" font-size="10.00">boost/uuid/uuid.hpp</text>
</a>
</g>
</g>
<!-- Node5&#45;&gt;Node19 -->
<g id="edge20" class="edge">
<title>Node5&#45;&gt;Node19</title>
<path fill="none" stroke="midnightblue" d="M1350.33,-72.73C1349.59,-63.18 1348.39,-47.62 1347.44,-35.28"/>
<polygon fill="midnightblue" stroke="midnightblue" points="1350.92,-34.83 1346.66,-25.13 1343.94,-35.37 1350.92,-34.83"/>
</g>
<!-- Node20 -->
<g id="node20" class="node">
<title>Node20</title>
<g id="a_node20"><a xlink:title=" ">
<polygon fill="none" stroke="#bfbfbf" points="1421,-6 1421,-25 1591,-25 1591,-6 1421,-6"/>
<text text-anchor="middle" x="1506" y="-13" font-family="Helvetica,sans-Serif" font-size="10.00">boost/uuid/uuid_generators.hpp</text>
</a>
</g>
</g>
<!-- Node5&#45;&gt;Node20 -->
<g id="edge21" class="edge">
<title>Node5&#45;&gt;Node20</title>
<path fill="none" stroke="midnightblue" d="M1371.58,-72.87C1398.33,-61.65 1445.25,-41.98 1475.97,-29.09"/>
<polygon fill="midnightblue" stroke="midnightblue" points="1477.46,-32.26 1485.33,-25.17 1474.76,-25.81 1477.46,-32.26"/>
</g>
<!-- Node21 -->
<g id="node21" class="node">
<title>Node21</title>
<g id="a_node21"><a xlink:title=" ">
<polygon fill="none" stroke="#bfbfbf" points="1609.5,-6 1609.5,-25 1736.5,-25 1736.5,-6 1609.5,-6"/>
<text text-anchor="middle" x="1673" y="-13" font-family="Helvetica,sans-Serif" font-size="10.00">boost/uuid/uuid_io.hpp</text>
</a>
</g>
</g>
<!-- Node5&#45;&gt;Node21 -->
<g id="edge22" class="edge">
<title>Node5&#45;&gt;Node21</title>
<path fill="none" stroke="midnightblue" d="M1393.43,-72.94C1451.91,-61.13 1557.22,-39.87 1620.56,-27.09"/>
<polygon fill="midnightblue" stroke="midnightblue" points="1621.63,-30.44 1630.74,-25.03 1620.24,-23.58 1621.63,-30.44"/>
</g>
<!-- Node22 -->
<g id="node22" class="node">
<title>Node22</title>
<g id="a_node22"><a xlink:title=" ">
<polygon fill="none" stroke="#bfbfbf" points="1755,-6 1755,-25 1907,-25 1907,-6 1755,-6"/>
<text text-anchor="middle" x="1831" y="-13" font-family="Helvetica,sans-Serif" font-size="10.00">impl/hdf5_core_general.hpp</text>
</a>
</g>
</g>
<!-- Node5&#45;&gt;Node22 -->
<g id="edge23" class="edge">
<title>Node5&#45;&gt;Node22</title>
<path fill="none" stroke="midnightblue" d="M1409.18,-74.77C1486.14,-65.71 1625.96,-48.66 1745,-31 1753.91,-29.68 1763.32,-28.19 1772.52,-26.68"/>
<polygon fill="midnightblue" stroke="midnightblue" points="1773.1,-30.13 1782.39,-25.04 1771.95,-23.23 1773.1,-30.13"/>
</g>
<!-- Node24&#45;&gt;Node3 -->
<g id="edge28" class="edge">
<title>Node24&#45;&gt;Node3</title>
<path fill="none" stroke="midnightblue" d="M919.14,-145.75C1044.71,-139 1373.78,-120.49 1648,-98 1723.01,-91.85 2247.71,-43.06 2322,-31 2328.42,-29.96 2335.16,-28.66 2341.76,-27.27"/>
<polygon fill="midnightblue" stroke="midnightblue" points="2342.92,-30.6 2351.94,-25.04 2341.42,-23.76 2342.92,-30.6"/>
</g>
<!-- Node24&#45;&gt;Node5 -->
<g id="edge29" class="edge">
<title>Node24&#45;&gt;Node5</title>
<path fill="none" stroke="midnightblue" d="M919.29,-141.57C992.24,-131.88 1128.7,-113.72 1245,-98 1257.27,-96.34 1270.34,-94.56 1282.96,-92.84"/>
<polygon fill="midnightblue" stroke="midnightblue" points="1283.53,-96.29 1292.96,-91.47 1282.58,-89.36 1283.53,-96.29"/>
</g>
<!-- Node24&#45;&gt;Node11 -->
<g id="edge35" class="edge">
<title>Node24&#45;&gt;Node11</title>
<path fill="none" stroke="midnightblue" d="M919.3,-144.05C1157.03,-123.81 2127.01,-40.93 2191,-31 2197.76,-29.95 2204.86,-28.61 2211.79,-27.18"/>
<polygon fill="midnightblue" stroke="midnightblue" points="2212.72,-30.56 2221.75,-25.02 2211.24,-23.71 2212.72,-30.56"/>
</g>
<!-- Node24&#45;&gt;Node12 -->
<g id="edge37" class="edge">
<title>Node24&#45;&gt;Node12</title>
<path fill="none" stroke="midnightblue" d="M814.71,-147.63C681.96,-144.9 334.78,-134.39 226,-98 182.58,-83.48 139.12,-51.11 115.69,-31.82"/>
<polygon fill="midnightblue" stroke="midnightblue" points="117.64,-28.89 107.73,-25.13 113.13,-34.25 117.64,-28.89"/>
</g>
<!-- Node24&#45;&gt;Node13 -->
<g id="edge38" class="edge">
<title>Node24&#45;&gt;Node13</title>
<path fill="none" stroke="midnightblue" d="M867.87,-139.9C869.06,-122.89 868.95,-85.04 847,-67 779.81,-11.76 150.07,-49.11 65,-31 61.99,-30.36 58.91,-29.5 55.87,-28.52"/>
<polygon fill="midnightblue" stroke="midnightblue" points="57.05,-25.23 46.46,-25.1 54.66,-31.81 57.05,-25.23"/>
</g>
<!-- Node24&#45;&gt;Node15 -->
<g id="edge39" class="edge">
<title>Node24&#45;&gt;Node15</title>
<path fill="none" stroke="midnightblue" d="M814.78,-147.1C675.04,-142.95 299.98,-129.02 254,-98 234.39,-84.77 223.71,-59.24 218.21,-40.26"/>
<polygon fill="midnightblue" stroke="midnightblue" points="221.58,-39.31 215.66,-30.51 214.8,-41.07 221.58,-39.31"/>
</g>
<!-- Node24&#45;&gt;Node16 -->
<g id="edge40" class="edge">
<title>Node24&#45;&gt;Node16</title>
<path fill="none" stroke="midnightblue" d="M814.75,-148.07C675.04,-146.4 300.94,-138.16 264,-98 238.78,-70.58 289.39,-43.77 326.53,-28.76"/>
<polygon fill="midnightblue" stroke="midnightblue" points="328.05,-31.93 336.1,-25.03 325.51,-25.4 328.05,-31.93"/>
</g>
<!-- Node25 -->
<g id="node25" class="node">
<title>Node25</title>
<g id="a_node25"><a xlink:title=" ">
<polygon fill="none" stroke="#bfbfbf" points="273,-67.5 273,-97.5 391,-97.5 391,-67.5 273,-67.5"/>
<text text-anchor="start" x="281" y="-85.5" font-family="Helvetica,sans-Serif" font-size="10.00">seerep_msgs/header</text>
<text text-anchor="middle" x="332" y="-74.5" font-family="Helvetica,sans-Serif" font-size="10.00">_generated.h</text>
</a>
</g>
</g>
<!-- Node24&#45;&gt;Node25 -->
<g id="edge30" class="edge">
<title>Node24&#45;&gt;Node25</title>
<path fill="none" stroke="midnightblue" d="M814.94,-144.62C730.29,-137.93 557.4,-122.68 401.51,-98.14"/>
<polygon fill="midnightblue" stroke="midnightblue" points="401.7,-94.63 391.27,-96.51 400.6,-101.54 401.7,-94.63"/>
</g>
<!-- Node26 -->
<g id="node26" class="node">
<title>Node26</title>
<g id="a_node26"><a xlink:title=" ">
<polygon fill="none" stroke="#bfbfbf" points="409,-67.5 409,-97.5 565,-97.5 565,-67.5 409,-67.5"/>
<text text-anchor="start" x="417" y="-85.5" font-family="Helvetica,sans-Serif" font-size="10.00">seerep_msgs/label_category</text>
<text text-anchor="middle" x="487" y="-74.5" font-family="Helvetica,sans-Serif" font-size="10.00">_generated.h</text>
</a>
</g>
</g>
<!-- Node24&#45;&gt;Node26 -->
<g id="edge31" class="edge">
<title>Node24&#45;&gt;Node26</title>
<path fill="none" stroke="midnightblue" d="M816.93,-139.94C755.5,-129.43 650.28,-111.43 575.18,-98.58"/>
<polygon fill="midnightblue" stroke="midnightblue" points="575.7,-95.12 565.25,-96.88 574.52,-102.02 575.7,-95.12"/>
</g>
<!-- Node27 -->
<g id="node27" class="node">
<title>Node27</title>
<g id="a_node27"><a xlink:title=" ">
<polygon fill="none" stroke="#bfbfbf" points="583,-67.5 583,-97.5 721,-97.5 721,-67.5 583,-67.5"/>
<text text-anchor="start" x="591" y="-85.5" font-family="Helvetica,sans-Serif" font-size="10.00">seerep_msgs/union_map</text>
<text text-anchor="middle" x="652" y="-74.5" font-family="Helvetica,sans-Serif" font-size="10.00">_entry_generated.h</text>
</a>
</g>
</g>
<!-- Node24&#45;&gt;Node27 -->
<g id="edge32" class="edge">
<title>Node24&#45;&gt;Node27</title>
<path fill="none" stroke="midnightblue" d="M838.45,-139.87C805.35,-129.86 750,-113.13 708.18,-100.48"/>
<polygon fill="midnightblue" stroke="midnightblue" points="708.99,-97.07 698.4,-97.53 706.96,-103.77 708.99,-97.07"/>
</g>
<!-- Node28 -->
<g id="node28" class="node">
<title>Node28</title>
<g id="a_node28"><a xlink:title=" ">
<polygon fill="none" stroke="#bfbfbf" points="739.5,-73 739.5,-92 838.5,-92 838.5,-73 739.5,-73"/>
<text text-anchor="middle" x="789" y="-80" font-family="Helvetica,sans-Serif" font-size="10.00">flatbuffers/grpc.h</text>
</a>
</g>
</g>
<!-- Node24&#45;&gt;Node28 -->
<g id="edge33" class="edge">
<title>Node24&#45;&gt;Node28</title>
<path fill="none" stroke="midnightblue" d="M856.48,-139.73C843.85,-129.21 822.46,-111.38 807.14,-98.62"/>
<polygon fill="midnightblue" stroke="midnightblue" points="809.28,-95.84 799.35,-92.13 804.79,-101.22 809.28,-95.84"/>
</g>
<!-- Node29 -->
<g id="node29" class="node">
<title>Node29</title>
<g id="a_node29"><a xlink:title=" ">
<polygon fill="none" stroke="#bfbfbf" points="895.5,-73 895.5,-92 990.5,-92 990.5,-73 895.5,-73"/>
<text text-anchor="middle" x="943" y="-80" font-family="Helvetica,sans-Serif" font-size="10.00">grpcpp/grpcpp.h</text>
</a>
</g>
</g>
<!-- Node24&#45;&gt;Node29 -->
<g id="edge34" class="edge">
<title>Node24&#45;&gt;Node29</title>
<path fill="none" stroke="midnightblue" d="M877.25,-139.73C889.44,-129.31 910.02,-111.71 924.91,-98.97"/>
<polygon fill="midnightblue" stroke="midnightblue" points="927.59,-101.29 932.91,-92.13 923.04,-95.97 927.59,-101.29"/>
</g>
<!-- Node30 -->
<g id="node30" class="node">
<title>Node30</title>
<g id="a_node30"><a xlink:title=" ">
<polygon fill="none" stroke="#bfbfbf" points="1009,-73 1009,-92 1077,-92 1077,-73 1009,-73"/>
<text text-anchor="middle" x="1043" y="-80" font-family="Helvetica,sans-Serif" font-size="10.00">filesystem</text>
</a>
</g>
</g>
<!-- Node24&#45;&gt;Node30 -->
<g id="edge36" class="edge">
<title>Node24&#45;&gt;Node30</title>
<path fill="none" stroke="midnightblue" d="M890.37,-139.87C921.09,-128.52 975.24,-108.52 1010.1,-95.65"/>
<polygon fill="midnightblue" stroke="midnightblue" points="1011.64,-98.81 1019.81,-92.06 1009.22,-92.24 1011.64,-98.81"/>
</g>
<!-- Node31 -->
<g id="node31" class="node">
<title>Node31</title>
<g id="a_node31"><a xlink:title=" ">
<polygon fill="none" stroke="#bfbfbf" points="1095.5,-73 1095.5,-92 1236.5,-92 1236.5,-73 1095.5,-73"/>
<text text-anchor="middle" x="1166" y="-80" font-family="Helvetica,sans-Serif" font-size="10.00">impl/hdf5_fb_general.hpp</text>
</a>
</g>
</g>
<!-- Node24&#45;&gt;Node31 -->
<g id="edge41" class="edge">
<title>Node24&#45;&gt;Node31</title>
<path fill="none" stroke="midnightblue" d="M906.4,-139.94C960.51,-128.17 1057.82,-107.02 1116.7,-94.22"/>
<polygon fill="midnightblue" stroke="midnightblue" points="1117.49,-97.63 1126.52,-92.08 1116,-90.79 1117.49,-97.63"/>
</g>
</g>
</svg>
