<?xml version="1.0" encoding="UTF-8" standalone="no"?>
<!DOCTYPE svg PUBLIC "-//W3C//DTD SVG 1.1//EN"
 "http://www.w3.org/Graphics/SVG/1.1/DTD/svg11.dtd">
<!-- Generated by graphviz version 2.43.0 (0)
 -->
<!-- Title: seerep_hdf5/seerep_hdf5_core/src/hdf5_core_point.cpp Pages: 1 -->
<svg width="2449pt" height="251pt"
 viewBox="0.00 0.00 2449.00 251.00" xmlns="http://www.w3.org/2000/svg" xmlns:xlink="http://www.w3.org/1999/xlink">
<g id="graph0" class="graph" transform="scale(1 1) rotate(0) translate(4 247)">
<title>seerep_hdf5/seerep_hdf5_core/src/hdf5_core_point.cpp</title>
<!-- Node1 -->
<g id="node1" class="node">
<title>Node1</title>
<g id="a_node1"><a xlink:title=" ">
<polygon fill="#bfbfbf" stroke="black" points="547,-201.5 547,-242.5 660,-242.5 660,-201.5 547,-201.5"/>
<text text-anchor="start" x="555" y="-230.5" font-family="Helvetica,sans-Serif" font-size="10.00">seerep_hdf5/seerep</text>
<text text-anchor="start" x="555" y="-219.5" font-family="Helvetica,sans-Serif" font-size="10.00">_hdf5_core/src/hdf5</text>
<text text-anchor="middle" x="603.5" y="-208.5" font-family="Helvetica,sans-Serif" font-size="10.00">_core_point.cpp</text>
</a>
</g>
</g>
<!-- Node2 -->
<g id="node2" class="node">
<title>Node2</title>
<g id="a_node2"><a xlink:href="hdf5__core__point_8h.html" target="_top" xlink:title=" ">
<polygon fill="none" stroke="black" points="465.5,-134.5 465.5,-164.5 593.5,-164.5 593.5,-134.5 465.5,-134.5"/>
<text text-anchor="start" x="473.5" y="-152.5" font-family="Helvetica,sans-Serif" font-size="10.00">seerep_hdf5_core/hdf5</text>
<text text-anchor="middle" x="529.5" y="-141.5" font-family="Helvetica,sans-Serif" font-size="10.00">_core_point.h</text>
</a>
</g>
</g>
<!-- Node1&#45;&gt;Node2 -->
<g id="edge1" class="edge">
<title>Node1&#45;&gt;Node2</title>
<path fill="none" stroke="midnightblue" d="M582.89,-201.36C573.3,-192.23 561.88,-181.35 552.07,-172"/>
<polygon fill="midnightblue" stroke="midnightblue" points="554.26,-169.26 544.61,-164.89 549.43,-174.32 554.26,-169.26"/>
</g>
<!-- Node23 -->
<g id="node23" class="node">
<title>Node23</title>
<g id="a_node23"><a xlink:title=" ">
<polygon fill="none" stroke="#bfbfbf" points="611.5,-140 611.5,-159 743.5,-159 743.5,-140 611.5,-140"/>
<text text-anchor="middle" x="677.5" y="-147" font-family="Helvetica,sans-Serif" font-size="10.00">highfive/H5DataSet.hpp</text>
</a>
</g>
</g>
<!-- Node1&#45;&gt;Node23 -->
<g id="edge34" class="edge">
<title>Node1&#45;&gt;Node23</title>
<path fill="none" stroke="midnightblue" d="M624.11,-201.36C635.7,-190.32 649.97,-176.72 660.85,-166.37"/>
<polygon fill="midnightblue" stroke="midnightblue" points="663.57,-168.61 668.4,-159.17 658.74,-163.54 663.57,-168.61"/>
</g>
<!-- Node3 -->
<g id="node3" class="node">
<title>Node3</title>
<g id="a_node3"><a xlink:title=" ">
<polygon fill="none" stroke="#bfbfbf" points="344.5,-6 344.5,-25 454.5,-25 454.5,-6 344.5,-6"/>
<text text-anchor="middle" x="399.5" y="-13" font-family="Helvetica,sans-Serif" font-size="10.00">highfive/H5File.hpp</text>
</a>
</g>
</g>
<!-- Node2&#45;&gt;Node3 -->
<g id="edge2" class="edge">
<title>Node2&#45;&gt;Node3</title>
<path fill="none" stroke="midnightblue" d="M517.34,-134.26C503,-117.68 478.24,-89.66 455.5,-67 443.23,-54.78 428.69,-41.7 417.5,-31.92"/>
<polygon fill="midnightblue" stroke="midnightblue" points="419.54,-29.05 409.69,-25.15 414.95,-34.34 419.54,-29.05"/>
</g>
<!-- Node4 -->
<g id="node4" class="node">
<title>Node4</title>
<g id="a_node4"><a xlink:href="hdf5__core__datatype__interface_8h.html" target="_top" xlink:title=" ">
<polygon fill="none" stroke="black" points="204,-67.5 204,-97.5 317,-97.5 317,-67.5 204,-67.5"/>
<text text-anchor="start" x="212" y="-85.5" font-family="Helvetica,sans-Serif" font-size="10.00">hdf5_core_datatype</text>
<text text-anchor="middle" x="260.5" y="-74.5" font-family="Helvetica,sans-Serif" font-size="10.00">_interface.h</text>
</a>
</g>
</g>
<!-- Node2&#45;&gt;Node4 -->
<g id="edge3" class="edge">
<title>Node2&#45;&gt;Node4</title>
<path fill="none" stroke="midnightblue" d="M471.46,-134.48C428.96,-124.21 371.2,-110.25 326.87,-99.54"/>
<polygon fill="midnightblue" stroke="midnightblue" points="327.59,-96.11 317.05,-97.16 325.95,-102.92 327.59,-96.11"/>
</g>
<!-- Node5 -->
<g id="node5" class="node">
<title>Node5</title>
<g id="a_node5"><a xlink:title=" ">
<polygon fill="none" stroke="#bfbfbf" points="0,-0.5 0,-30.5 121,-30.5 121,-0.5 0,-0.5"/>
<text text-anchor="start" x="8" y="-18.5" font-family="Helvetica,sans-Serif" font-size="10.00">seerep_msgs/dataset</text>
<text text-anchor="middle" x="60.5" y="-7.5" font-family="Helvetica,sans-Serif" font-size="10.00">_indexable.h</text>
</a>
</g>
</g>
<!-- Node2&#45;&gt;Node5 -->
<g id="edge26" class="edge">
<title>Node2&#45;&gt;Node5</title>
<path fill="none" stroke="midnightblue" d="M465.3,-146.33C396.48,-142.3 284.9,-130.8 194.5,-98 154.03,-83.32 112.43,-55.68 86.54,-36.69"/>
<polygon fill="midnightblue" stroke="midnightblue" points="88.49,-33.78 78.38,-30.61 84.31,-39.4 88.49,-33.78"/>
</g>
<!-- Node6 -->
<g id="node6" class="node">
<title>Node6</title>
<g id="a_node6"><a xlink:title=" ">
<polygon fill="none" stroke="#bfbfbf" points="139,-6 139,-25 252,-25 252,-6 139,-6"/>
<text text-anchor="middle" x="195.5" y="-13" font-family="Helvetica,sans-Serif" font-size="10.00">boost/uuid/uuid.hpp</text>
</a>
</g>
</g>
<!-- Node2&#45;&gt;Node6 -->
<g id="edge31" class="edge">
<title>Node2&#45;&gt;Node6</title>
<path fill="none" stroke="midnightblue" d="M493.59,-134.46C467.91,-124.39 432.54,-110.45 401.5,-98 367.64,-84.42 359.39,-80.49 325.5,-67 292.19,-53.74 253.92,-38.92 227.57,-28.79"/>
<polygon fill="midnightblue" stroke="midnightblue" points="228.68,-25.46 218.09,-25.14 226.17,-32 228.68,-25.46"/>
</g>
<!-- Node7 -->
<g id="node7" class="node">
<title>Node7</title>
<g id="a_node7"><a xlink:title=" ">
<polygon fill="none" stroke="#bfbfbf" points="270.5,-6 270.5,-25 326.5,-25 326.5,-6 270.5,-6"/>
<text text-anchor="middle" x="298.5" y="-13" font-family="Helvetica,sans-Serif" font-size="10.00">optional</text>
</a>
</g>
</g>
<!-- Node2&#45;&gt;Node7 -->
<g id="edge28" class="edge">
<title>Node2&#45;&gt;Node7</title>
<path fill="none" stroke="midnightblue" d="M508.65,-134.21C483.67,-117.33 440.33,-88.79 401.5,-67 376.76,-53.12 347.66,-39.05 326.72,-29.3"/>
<polygon fill="midnightblue" stroke="midnightblue" points="327.98,-26.02 317.43,-25.01 325.04,-32.38 327.98,-26.02"/>
</g>
<!-- Node8 -->
<g id="node8" class="node">
<title>Node8</title>
<g id="a_node8"><a xlink:href="hdf5__core__general_8h.html" target="_top" xlink:title=" ">
<polygon fill="none" stroke="black" points="1043.5,-73 1043.5,-92 1159.5,-92 1159.5,-73 1043.5,-73"/>
<text text-anchor="middle" x="1101.5" y="-80" font-family="Helvetica,sans-Serif" font-size="10.00">hdf5_core_general.h</text>
</a>
</g>
</g>
<!-- Node2&#45;&gt;Node8 -->
<g id="edge7" class="edge">
<title>Node2&#45;&gt;Node8</title>
<path fill="none" stroke="midnightblue" d="M593.53,-135.42C596.56,-134.92 599.56,-134.44 602.5,-134 755.59,-111.1 936.69,-95.65 1033.08,-88.35"/>
<polygon fill="midnightblue" stroke="midnightblue" points="1033.56,-91.82 1043.27,-87.58 1033.04,-84.84 1033.56,-91.82"/>
</g>
<!-- Node13 -->
<g id="node13" class="node">
<title>Node13</title>
<g id="a_node13"><a xlink:title=" ">
<polygon fill="none" stroke="#bfbfbf" points="473,-6 473,-25 586,-25 586,-6 473,-6"/>
<text text-anchor="middle" x="529.5" y="-13" font-family="Helvetica,sans-Serif" font-size="10.00">boost/geometry.hpp</text>
</a>
</g>
</g>
<!-- Node2&#45;&gt;Node13 -->
<g id="edge27" class="edge">
<title>Node2&#45;&gt;Node13</title>
<path fill="none" stroke="midnightblue" d="M529.5,-134.37C529.5,-110.5 529.5,-62.18 529.5,-35.41"/>
<polygon fill="midnightblue" stroke="midnightblue" points="533,-35.1 529.5,-25.1 526,-35.1 533,-35.1"/>
</g>
<!-- Node18 -->
<g id="node18" class="node">
<title>Node18</title>
<g id="a_node18"><a xlink:title=" ">
<polygon fill="none" stroke="#bfbfbf" points="1821,-6 1821,-25 1964,-25 1964,-6 1821,-6"/>
<text text-anchor="middle" x="1892.5" y="-13" font-family="Helvetica,sans-Serif" font-size="10.00">boost/functional/hash.hpp</text>
</a>
</g>
</g>
<!-- Node2&#45;&gt;Node18 -->
<g id="edge29" class="edge">
<title>Node2&#45;&gt;Node18</title>
<path fill="none" stroke="midnightblue" d="M593.51,-135.29C596.55,-134.82 599.55,-134.38 602.5,-134 852.44,-101.37 917.32,-119.07 1168.5,-98 1454.82,-73.99 1527.01,-71.23 1811.5,-31 1820.13,-29.78 1829.25,-28.32 1838.14,-26.8"/>
<polygon fill="midnightblue" stroke="midnightblue" points="1838.78,-30.24 1848.03,-25.07 1837.58,-23.34 1838.78,-30.24"/>
</g>
<!-- Node19 -->
<g id="node19" class="node">
<title>Node19</title>
<g id="a_node19"><a xlink:title=" ">
<polygon fill="none" stroke="#bfbfbf" points="1982,-6 1982,-25 2107,-25 2107,-6 1982,-6"/>
<text text-anchor="middle" x="2044.5" y="-13" font-family="Helvetica,sans-Serif" font-size="10.00">boost/lexical_cast.hpp</text>
</a>
</g>
</g>
<!-- Node2&#45;&gt;Node19 -->
<g id="edge30" class="edge">
<title>Node2&#45;&gt;Node19</title>
<path fill="none" stroke="midnightblue" d="M593.51,-135.23C596.54,-134.77 599.55,-134.36 602.5,-134 937.27,-93.03 1024.26,-124.36 1360.5,-98 1633.29,-76.61 1702.11,-72.94 1972.5,-31 1979.95,-29.84 1987.79,-28.45 1995.46,-26.99"/>
<polygon fill="midnightblue" stroke="midnightblue" points="1996.24,-30.4 2005.38,-25.04 1994.89,-23.53 1996.24,-30.4"/>
</g>
<!-- Node20 -->
<g id="node20" class="node">
<title>Node20</title>
<g id="a_node20"><a xlink:title=" ">
<polygon fill="none" stroke="#bfbfbf" points="2125.5,-6 2125.5,-25 2295.5,-25 2295.5,-6 2125.5,-6"/>
<text text-anchor="middle" x="2210.5" y="-13" font-family="Helvetica,sans-Serif" font-size="10.00">boost/uuid/uuid_generators.hpp</text>
</a>
</g>
</g>
<!-- Node2&#45;&gt;Node20 -->
<g id="edge32" class="edge">
<title>Node2&#45;&gt;Node20</title>
<path fill="none" stroke="midnightblue" d="M593.5,-135.19C596.54,-134.75 599.55,-134.35 602.5,-134 1020.37,-84.86 1129.02,-130.71 1548.5,-98 1801.49,-78.27 1864.04,-65.04 2115.5,-31 2125.65,-29.63 2136.39,-28.08 2146.86,-26.52"/>
<polygon fill="midnightblue" stroke="midnightblue" points="2147.42,-29.97 2156.79,-25.02 2146.38,-23.05 2147.42,-29.97"/>
</g>
<!-- Node21 -->
<g id="node21" class="node">
<title>Node21</title>
<g id="a_node21"><a xlink:title=" ">
<polygon fill="none" stroke="#bfbfbf" points="2314,-6 2314,-25 2441,-25 2441,-6 2314,-6"/>
<text text-anchor="middle" x="2377.5" y="-13" font-family="Helvetica,sans-Serif" font-size="10.00">boost/uuid/uuid_io.hpp</text>
</a>
</g>
</g>
<!-- Node2&#45;&gt;Node21 -->
<g id="edge33" class="edge">
<title>Node2&#45;&gt;Node21</title>
<path fill="none" stroke="midnightblue" d="M593.5,-135.17C596.54,-134.73 599.55,-134.34 602.5,-134 1093.76,-77.64 1221.33,-133.93 1714.5,-98 1977.71,-78.83 2043.74,-71.63 2304.5,-31 2312.05,-29.82 2320,-28.42 2327.77,-26.95"/>
<polygon fill="midnightblue" stroke="midnightblue" points="2328.67,-30.34 2337.83,-25 2327.34,-23.47 2328.67,-30.34"/>
</g>
<!-- Node4&#45;&gt;Node5 -->
<g id="edge4" class="edge">
<title>Node4&#45;&gt;Node5</title>
<path fill="none" stroke="midnightblue" d="M217.1,-67.4C186.7,-57.52 145.89,-44.25 113.56,-33.74"/>
<polygon fill="midnightblue" stroke="midnightblue" points="114.4,-30.34 103.81,-30.58 112.24,-37 114.4,-30.34"/>
</g>
<!-- Node4&#45;&gt;Node6 -->
<g id="edge5" class="edge">
<title>Node4&#45;&gt;Node6</title>
<path fill="none" stroke="midnightblue" d="M246.4,-67.4C236.06,-57.06 222.02,-43.02 211.31,-32.31"/>
<polygon fill="midnightblue" stroke="midnightblue" points="213.74,-29.79 204.19,-25.19 208.79,-34.74 213.74,-29.79"/>
</g>
<!-- Node4&#45;&gt;Node7 -->
<g id="edge6" class="edge">
<title>Node4&#45;&gt;Node7</title>
<path fill="none" stroke="midnightblue" d="M268.75,-67.4C274.49,-57.56 282.2,-44.38 288.33,-33.89"/>
<polygon fill="midnightblue" stroke="midnightblue" points="291.39,-35.59 293.42,-25.19 285.35,-32.06 291.39,-35.59"/>
</g>
<!-- Node8&#45;&gt;Node3 -->
<g id="edge8" class="edge">
<title>Node8&#45;&gt;Node3</title>
<path fill="none" stroke="midnightblue" d="M1043.12,-79.69C930.47,-75.57 675.51,-63.24 463.5,-31 456.76,-29.98 449.68,-28.64 442.79,-27.19"/>
<polygon fill="midnightblue" stroke="midnightblue" points="443.39,-23.74 432.87,-25.02 441.89,-30.58 443.39,-23.74"/>
</g>
<!-- Node8&#45;&gt;Node5 -->
<g id="edge10" class="edge">
<title>Node8&#45;&gt;Node5</title>
<path fill="none" stroke="midnightblue" d="M1043.43,-81.62C893.64,-81.25 481.99,-75.98 131.46,-31.13"/>
<polygon fill="midnightblue" stroke="midnightblue" points="131.73,-27.64 121.37,-29.83 130.83,-34.58 131.73,-27.64"/>
</g>
<!-- Node8&#45;&gt;Node6 -->
<g id="edge22" class="edge">
<title>Node8&#45;&gt;Node6</title>
<path fill="none" stroke="midnightblue" d="M1043.4,-81.12C906.5,-79.56 553.26,-71.57 261.5,-31 254.31,-30 246.74,-28.64 239.39,-27.14"/>
<polygon fill="midnightblue" stroke="midnightblue" points="240.08,-23.71 229.57,-25.05 238.62,-30.56 240.08,-23.71"/>
</g>
<!-- Node8&#45;&gt;Node7 -->
<g id="edge16" class="edge">
<title>Node8&#45;&gt;Node7</title>
<path fill="none" stroke="midnightblue" d="M1043.41,-79.98C888.87,-75.56 470.29,-61.09 335.5,-31 332.5,-30.33 329.42,-29.45 326.39,-28.46"/>
<polygon fill="midnightblue" stroke="midnightblue" points="327.57,-25.17 316.97,-25.03 325.16,-31.74 327.57,-25.17"/>
</g>
<!-- Node9 -->
<g id="node9" class="node">
<title>Node9</title>
<g id="a_node9"><a xlink:title=" ">
<polygon fill="none" stroke="#bfbfbf" points="604,-6 604,-25 721,-25 721,-6 604,-6"/>
<text text-anchor="middle" x="662.5" y="-13" font-family="Helvetica,sans-Serif" font-size="10.00">seerep_msgs/aabb.h</text>
</a>
</g>
</g>
<!-- Node8&#45;&gt;Node9 -->
<g id="edge9" class="edge">
<title>Node8&#45;&gt;Node9</title>
<path fill="none" stroke="midnightblue" d="M1043.46,-74.96C970.26,-66.4 840.64,-50.21 730.5,-31 723.87,-29.84 716.9,-28.5 710.05,-27.11"/>
<polygon fill="midnightblue" stroke="midnightblue" points="710.67,-23.67 700.17,-25.06 709.25,-30.52 710.67,-23.67"/>
</g>
<!-- Node10 -->
<g id="node10" class="node">
<title>Node10</title>
<g id="a_node10"><a xlink:title=" ">
<polygon fill="none" stroke="#bfbfbf" points="739.5,-0.5 739.5,-30.5 865.5,-30.5 865.5,-0.5 739.5,-0.5"/>
<text text-anchor="start" x="747.5" y="-18.5" font-family="Helvetica,sans-Serif" font-size="10.00">seerep_msgs/geodetic</text>
<text text-anchor="middle" x="802.5" y="-7.5" font-family="Helvetica,sans-Serif" font-size="10.00">_coordinates.h</text>
</a>
</g>
</g>
<!-- Node8&#45;&gt;Node10 -->
<g id="edge11" class="edge">
<title>Node8&#45;&gt;Node10</title>
<path fill="none" stroke="midnightblue" d="M1062.1,-72.94C1014.81,-62.65 934.52,-45.2 875.73,-32.42"/>
<polygon fill="midnightblue" stroke="midnightblue" points="876.27,-28.96 865.76,-30.25 874.78,-35.8 876.27,-28.96"/>
</g>
<!-- Node11 -->
<g id="node11" class="node">
<title>Node11</title>
<g id="a_node11"><a xlink:title=" ">
<polygon fill="none" stroke="#bfbfbf" points="884,-6 884,-25 1001,-25 1001,-6 884,-6"/>
<text text-anchor="middle" x="942.5" y="-13" font-family="Helvetica,sans-Serif" font-size="10.00">seerep_msgs/label.h</text>
</a>
</g>
</g>
<!-- Node8&#45;&gt;Node11 -->
<g id="edge12" class="edge">
<title>Node8&#45;&gt;Node11</title>
<path fill="none" stroke="midnightblue" d="M1080.39,-72.87C1052.87,-61.62 1004.55,-41.87 973.04,-28.99"/>
<polygon fill="midnightblue" stroke="midnightblue" points="974.03,-25.61 963.45,-25.06 971.38,-32.09 974.03,-25.61"/>
</g>
<!-- Node12 -->
<g id="node12" class="node">
<title>Node12</title>
<g id="a_node12"><a xlink:title=" ">
<polygon fill="none" stroke="#bfbfbf" points="1019.5,-6 1019.5,-25 1183.5,-25 1183.5,-6 1019.5,-6"/>
<text text-anchor="middle" x="1101.5" y="-13" font-family="Helvetica,sans-Serif" font-size="10.00">seerep_msgs/label_category.h</text>
</a>
</g>
</g>
<!-- Node8&#45;&gt;Node12 -->
<g id="edge13" class="edge">
<title>Node8&#45;&gt;Node12</title>
<path fill="none" stroke="midnightblue" d="M1101.5,-72.73C1101.5,-63.18 1101.5,-47.62 1101.5,-35.28"/>
<polygon fill="midnightblue" stroke="midnightblue" points="1105,-35.13 1101.5,-25.13 1098,-35.13 1105,-35.13"/>
</g>
<!-- Node8&#45;&gt;Node13 -->
<g id="edge14" class="edge">
<title>Node8&#45;&gt;Node13</title>
<path fill="none" stroke="midnightblue" d="M1043.42,-77.99C948.89,-71.78 756.07,-56.97 594.5,-31 587.83,-29.93 580.81,-28.59 573.96,-27.16"/>
<polygon fill="midnightblue" stroke="midnightblue" points="574.61,-23.72 564.1,-25.03 573.13,-30.56 574.61,-23.72"/>
</g>
<!-- Node14 -->
<g id="node14" class="node">
<title>Node14</title>
<g id="a_node14"><a xlink:title=" ">
<polygon fill="none" stroke="#bfbfbf" points="1201.5,-6 1201.5,-25 1249.5,-25 1249.5,-6 1201.5,-6"/>
<text text-anchor="middle" x="1225.5" y="-13" font-family="Helvetica,sans-Serif" font-size="10.00">mutex</text>
</a>
</g>
</g>
<!-- Node8&#45;&gt;Node14 -->
<g id="edge15" class="edge">
<title>Node8&#45;&gt;Node14</title>
<path fill="none" stroke="midnightblue" d="M1117.97,-72.87C1138.9,-61.89 1175.28,-42.82 1199.86,-29.94"/>
<polygon fill="midnightblue" stroke="midnightblue" points="1201.73,-32.91 1208.97,-25.17 1198.48,-26.71 1201.73,-32.91"/>
</g>
<!-- Node15 -->
<g id="node15" class="node">
<title>Node15</title>
<g id="a_node15"><a xlink:title=" ">
<polygon fill="none" stroke="#bfbfbf" points="1268,-6 1268,-25 1337,-25 1337,-6 1268,-6"/>
<text text-anchor="middle" x="1302.5" y="-13" font-family="Helvetica,sans-Serif" font-size="10.00">type_traits</text>
</a>
</g>
</g>
<!-- Node8&#45;&gt;Node15 -->
<g id="edge17" class="edge">
<title>Node8&#45;&gt;Node15</title>
<path fill="none" stroke="midnightblue" d="M1128.19,-72.98C1159.44,-62.99 1212.76,-45.89 1258.5,-31 1261.22,-30.11 1264.04,-29.19 1266.88,-28.26"/>
<polygon fill="midnightblue" stroke="midnightblue" points="1268.04,-31.56 1276.45,-25.12 1265.86,-24.91 1268.04,-31.56"/>
</g>
<!-- Node16 -->
<g id="node16" class="node">
<title>Node16</title>
<g id="a_node16"><a xlink:title=" ">
<polygon fill="none" stroke="#bfbfbf" points="1355,-0.5 1355,-30.5 1500,-30.5 1500,-0.5 1355,-0.5"/>
<text text-anchor="start" x="1363" y="-18.5" font-family="Helvetica,sans-Serif" font-size="10.00">boost/log/sources/severity</text>
<text text-anchor="middle" x="1427.5" y="-7.5" font-family="Helvetica,sans-Serif" font-size="10.00">_logger.hpp</text>
</a>
</g>
</g>
<!-- Node8&#45;&gt;Node16 -->
<g id="edge18" class="edge">
<title>Node8&#45;&gt;Node16</title>
<path fill="none" stroke="midnightblue" d="M1144.45,-72.94C1195.82,-62.69 1282.88,-45.33 1346.92,-32.57"/>
<polygon fill="midnightblue" stroke="midnightblue" points="1347.87,-35.95 1356.99,-30.56 1346.5,-29.08 1347.87,-35.95"/>
</g>
<!-- Node17 -->
<g id="node17" class="node">
<title>Node17</title>
<g id="a_node17"><a xlink:title=" ">
<polygon fill="none" stroke="#bfbfbf" points="1518.5,-6 1518.5,-25 1632.5,-25 1632.5,-6 1518.5,-6"/>
<text text-anchor="middle" x="1575.5" y="-13" font-family="Helvetica,sans-Serif" font-size="10.00">boost/log/trivial.hpp</text>
</a>
</g>
</g>
<!-- Node8&#45;&gt;Node17 -->
<g id="edge19" class="edge">
<title>Node8&#45;&gt;Node17</title>
<path fill="none" stroke="midnightblue" d="M1159.7,-75.94C1238.91,-67.99 1384.96,-51.99 1508.5,-31 1515.12,-29.87 1522.08,-28.54 1528.91,-27.15"/>
<polygon fill="midnightblue" stroke="midnightblue" points="1529.69,-30.56 1538.75,-25.07 1528.25,-23.71 1529.69,-30.56"/>
</g>
<!-- Node8&#45;&gt;Node18 -->
<g id="edge20" class="edge">
<title>Node8&#45;&gt;Node18</title>
<path fill="none" stroke="midnightblue" d="M1159.68,-79.45C1281.18,-74.72 1570.54,-61.05 1811.5,-31 1820.66,-29.86 1830.36,-28.37 1839.74,-26.78"/>
<polygon fill="midnightblue" stroke="midnightblue" points="1840.5,-30.2 1849.75,-25.03 1839.3,-23.3 1840.5,-30.2"/>
</g>
<!-- Node8&#45;&gt;Node19 -->
<g id="edge21" class="edge">
<title>Node8&#45;&gt;Node19</title>
<path fill="none" stroke="midnightblue" d="M1159.6,-80.95C1299.91,-79.01 1668.11,-70.28 1972.5,-31 1980.59,-29.96 1989.14,-28.53 1997.4,-26.97"/>
<polygon fill="midnightblue" stroke="midnightblue" points="1998.16,-30.39 2007.3,-25.03 1996.81,-23.52 1998.16,-30.39"/>
</g>
<!-- Node8&#45;&gt;Node20 -->
<g id="edge23" class="edge">
<title>Node8&#45;&gt;Node20</title>
<path fill="none" stroke="midnightblue" d="M1159.67,-80.67C1315.15,-78.01 1753.14,-67.58 2115.5,-31 2126.93,-29.85 2139.08,-28.26 2150.74,-26.57"/>
<polygon fill="midnightblue" stroke="midnightblue" points="2151.45,-30 2160.82,-25.06 2150.42,-23.08 2151.45,-30"/>
</g>
<!-- Node8&#45;&gt;Node21 -->
<g id="edge24" class="edge">
<title>Node8&#45;&gt;Node21</title>
<path fill="none" stroke="midnightblue" d="M1159.63,-80.25C1368.24,-75.57 2078.78,-57.99 2304.5,-31 2312.89,-30 2321.76,-28.56 2330.31,-26.98"/>
<polygon fill="midnightblue" stroke="midnightblue" points="2331.01,-30.41 2340.16,-25.07 2329.68,-23.53 2331.01,-30.41"/>
</g>
<!-- Node22 -->
<g id="node22" class="node">
<title>Node22</title>
<g id="a_node22"><a xlink:title=" ">
<polygon fill="none" stroke="#bfbfbf" points="1650.5,-6 1650.5,-25 1802.5,-25 1802.5,-6 1650.5,-6"/>
<text text-anchor="middle" x="1726.5" y="-13" font-family="Helvetica,sans-Serif" font-size="10.00">impl/hdf5_core_general.hpp</text>
</a>
</g>
</g>
<!-- Node8&#45;&gt;Node22 -->
<g id="edge25" class="edge">
<title>Node8&#45;&gt;Node22</title>
<path fill="none" stroke="midnightblue" d="M1159.6,-77.52C1258.71,-70.4 1466.7,-54.05 1641.5,-31 1650.86,-29.77 1660.77,-28.26 1670.39,-26.69"/>
<polygon fill="midnightblue" stroke="midnightblue" points="1670.99,-30.14 1680.28,-25.04 1669.84,-23.23 1670.99,-30.14"/>
</g>
</g>
</svg>
