<?xml version="1.0" encoding="UTF-8" standalone="no"?>
<!DOCTYPE svg PUBLIC "-//W3C//DTD SVG 1.1//EN"
 "http://www.w3.org/Graphics/SVG/1.1/DTD/svg11.dtd">
<!-- Generated by graphviz version 2.43.0 (0)
 -->
<!-- Title: Graphical Class Hierarchy Pages: 1 -->
<svg width="574pt" height="302pt"
 viewBox="0.00 0.00 574.00 301.50" xmlns="http://www.w3.org/2000/svg" xmlns:xlink="http://www.w3.org/1999/xlink">
<g id="graph0" class="graph" transform="scale(1 1) rotate(0) translate(4 297.5)">
<title>Graphical Class Hierarchy</title>
<!-- Node0 -->
<g id="node1" class="node">
<title>Node0</title>
<g id="a_node1"><a xlink:href="classseerep__hdf5__core_1_1Hdf5CoreDatatypeInterface.html" target="_top" xlink:title=" ">
<polygon fill="none" stroke="black" points="0,-214 0,-244 155,-244 155,-214 0,-214"/>
<text text-anchor="start" x="8" y="-232" font-family="Helvetica,sans-Serif" font-size="10.00">seerep_hdf5_core::Hdf5Core</text>
<text text-anchor="middle" x="77.5" y="-221" font-family="Helvetica,sans-Serif" font-size="10.00">DatatypeInterface</text>
</a>
</g>
</g>
<!-- Node1 -->
<g id="node2" class="node">
<title>Node1</title>
<g id="a_node2"><a xlink:href="classseerep__hdf5__core_1_1Hdf5CoreImage.html" target="_top" xlink:title="This class encompasses all hdf5&#45;io functions which are message type independent.">
<polygon fill="none" stroke="black" points="200,-263 200,-293 355,-293 355,-263 200,-263"/>
<text text-anchor="start" x="208" y="-281" font-family="Helvetica,sans-Serif" font-size="10.00">seerep_hdf5_core::Hdf5Core</text>
<text text-anchor="middle" x="277.5" y="-270" font-family="Helvetica,sans-Serif" font-size="10.00">Image</text>
</a>
</g>
</g>
<!-- Node0&#45;&gt;Node1 -->
<g id="edge1" class="edge">
<title>Node0&#45;&gt;Node1</title>
<path fill="none" stroke="midnightblue" d="M149.12,-246.48C170.94,-251.88 194.78,-257.78 215.86,-262.99"/>
<polygon fill="midnightblue" stroke="midnightblue" points="149.8,-243.04 139.25,-244.03 148.12,-249.83 149.8,-243.04"/>
</g>
<!-- Node9 -->
<g id="node5" class="node">
<title>Node9</title>
<g id="a_node5"><a xlink:href="classseerep__hdf5__core_1_1Hdf5CorePoint.html" target="_top" xlink:title=" ">
<polygon fill="none" stroke="black" points="200,-214 200,-244 355,-244 355,-214 200,-214"/>
<text text-anchor="start" x="208" y="-232" font-family="Helvetica,sans-Serif" font-size="10.00">seerep_hdf5_core::Hdf5Core</text>
<text text-anchor="middle" x="277.5" y="-221" font-family="Helvetica,sans-Serif" font-size="10.00">Point</text>
</a>
</g>
</g>
<!-- Node0&#45;&gt;Node9 -->
<g id="edge4" class="edge">
<title>Node0&#45;&gt;Node9</title>
<path fill="none" stroke="midnightblue" d="M165.13,-229C176.68,-229 188.46,-229 199.83,-229"/>
<polygon fill="midnightblue" stroke="midnightblue" points="165.05,-225.5 155.05,-229 165.05,-232.5 165.05,-225.5"/>
</g>
<!-- Node10 -->
<g id="node6" class="node">
<title>Node10</title>
<g id="a_node6"><a xlink:href="classseerep__hdf5__core_1_1Hdf5CorePointCloud.html" target="_top" xlink:title=" ">
<polygon fill="none" stroke="black" points="200,-165 200,-195 355,-195 355,-165 200,-165"/>
<text text-anchor="start" x="208" y="-183" font-family="Helvetica,sans-Serif" font-size="10.00">seerep_hdf5_core::Hdf5Core</text>
<text text-anchor="middle" x="277.5" y="-172" font-family="Helvetica,sans-Serif" font-size="10.00">PointCloud</text>
</a>
</g>
</g>
<!-- Node0&#45;&gt;Node10 -->
<g id="edge5" class="edge">
<title>Node0&#45;&gt;Node10</title>
<path fill="none" stroke="midnightblue" d="M149.12,-211.52C170.94,-206.12 194.78,-200.22 215.86,-195.01"/>
<polygon fill="midnightblue" stroke="midnightblue" points="148.12,-208.17 139.25,-213.97 149.8,-214.96 148.12,-208.17"/>
</g>
<!-- Node2 -->
<g id="node3" class="node">
<title>Node2</title>
<g id="a_node3"><a xlink:href="classseerep__hdf5__fb_1_1Hdf5FbImage.html" target="_top" xlink:title="The class Hdf5FbImage is used to write and read flatbuffers image messages to/from hdf5 files.">
<polygon fill="none" stroke="black" points="401,-126.5 401,-145.5 565,-145.5 565,-126.5 401,-126.5"/>
<text text-anchor="middle" x="483" y="-133.5" font-family="Helvetica,sans-Serif" font-size="10.00">seerep_hdf5_fb::Hdf5FbImage</text>
</a>
</g>
</g>
<!-- Node1&#45;&gt;Node2 -->
<g id="edge2" class="edge">
<title>Node1&#45;&gt;Node2</title>
<path fill="none" stroke="midnightblue" d="M359.99,-257.39C361.38,-256.32 362.72,-255.19 364,-254 398.07,-222.5 365.39,-186.91 400,-156 404.81,-151.71 410.39,-148.3 416.33,-145.59"/>
<polygon fill="midnightblue" stroke="midnightblue" points="358,-254.51 351.6,-262.96 361.87,-260.35 358,-254.51"/>
</g>
<!-- Node13 -->
<g id="node4" class="node">
<title>Node13</title>
<g id="a_node4"><a xlink:href="classseerep__hdf5__pb_1_1Hdf5PbImage.html" target="_top" xlink:title=" ">
<polygon fill="none" stroke="black" points="400,-260.5 400,-279.5 566,-279.5 566,-260.5 400,-260.5"/>
<text text-anchor="middle" x="483" y="-267.5" font-family="Helvetica,sans-Serif" font-size="10.00">seerep_hdf5_pb::Hdf5PbImage</text>
</a>
</g>
</g>
<!-- Node1&#45;&gt;Node13 -->
<g id="edge3" class="edge">
<title>Node1&#45;&gt;Node13</title>
<path fill="none" stroke="midnightblue" d="M365.2,-274.59C376.73,-274.14 388.53,-273.67 399.99,-273.22"/>
<polygon fill="midnightblue" stroke="midnightblue" points="365,-271.1 355.14,-274.99 365.27,-278.09 365,-271.1"/>
</g>
<!-- Node7 -->
<g id="node7" class="node">
<title>Node7</title>
<g id="a_node7"><a xlink:href="classseerep__hdf5__core_1_1Hdf5CoreGeneral.html" target="_top" xlink:title=" ">
<polygon fill="none" stroke="black" points="0,-121 0,-151 155,-151 155,-121 0,-121"/>
<text text-anchor="start" x="8" y="-139" font-family="Helvetica,sans-Serif" font-size="10.00">seerep_hdf5_core::Hdf5Core</text>
<text text-anchor="middle" x="77.5" y="-128" font-family="Helvetica,sans-Serif" font-size="10.00">General</text>
</a>
</g>
</g>
<!-- Node7&#45;&gt;Node1 -->
<g id="edge6" class="edge">
<title>Node7&#45;&gt;Node1</title>
<path fill="none" stroke="midnightblue" d="M105.45,-157.95C120.7,-170.93 139.71,-188.1 155,-205 173.13,-225.04 168.78,-238.62 191,-254 195.94,-257.42 201.37,-260.36 207.01,-262.88"/>
<polygon fill="midnightblue" stroke="midnightblue" points="107.32,-154.95 97.41,-151.19 102.81,-160.31 107.32,-154.95"/>
</g>
<!-- Node7&#45;&gt;Node9 -->
<g id="edge8" class="edge">
<title>Node7&#45;&gt;Node9</title>
<path fill="none" stroke="midnightblue" d="M107.35,-156.79C129.38,-171.89 160.97,-191.88 191,-205 198.63,-208.33 206.84,-211.33 215.06,-213.98"/>
<polygon fill="midnightblue" stroke="midnightblue" points="109.32,-153.9 99.11,-151.07 105.32,-159.65 109.32,-153.9"/>
</g>
<!-- Node7&#45;&gt;Node10 -->
<g id="edge9" class="edge">
<title>Node7&#45;&gt;Node10</title>
<path fill="none" stroke="midnightblue" d="M156.21,-153.27C173.61,-157.14 191.93,-161.21 208.88,-164.97"/>
<polygon fill="midnightblue" stroke="midnightblue" points="156.61,-149.77 146.09,-151.02 155.09,-156.61 156.61,-149.77"/>
</g>
<!-- Node8 -->
<g id="node8" class="node">
<title>Node8</title>
<g id="a_node8"><a xlink:href="classseerep__hdf5__core_1_1Hdf5CoreInstance.html" target="_top" xlink:title=" ">
<polygon fill="none" stroke="black" points="200,-39 200,-69 355,-69 355,-39 200,-39"/>
<text text-anchor="start" x="208" y="-57" font-family="Helvetica,sans-Serif" font-size="10.00">seerep_hdf5_core::Hdf5Core</text>
<text text-anchor="middle" x="277.5" y="-46" font-family="Helvetica,sans-Serif" font-size="10.00">Instance</text>
</a>
</g>
</g>
<!-- Node7&#45;&gt;Node8 -->
<g id="edge7" class="edge">
<title>Node7&#45;&gt;Node8</title>
<path fill="none" stroke="midnightblue" d="M113.57,-116.12C135.38,-104.29 164.28,-89.57 191,-79 200.06,-75.42 209.84,-72.08 219.43,-69.09"/>
<polygon fill="midnightblue" stroke="midnightblue" points="111.77,-113.11 104.68,-120.99 115.13,-119.25 111.77,-113.11"/>
</g>
<!-- Node11 -->
<g id="node9" class="node">
<title>Node11</title>
<g id="a_node9"><a xlink:href="classseerep__hdf5__core_1_1Hdf5CoreTf.html" target="_top" xlink:title=" ">
<polygon fill="none" stroke="black" points="195.5,-0.5 195.5,-19.5 359.5,-19.5 359.5,-0.5 195.5,-0.5"/>
<text text-anchor="middle" x="277.5" y="-7.5" font-family="Helvetica,sans-Serif" font-size="10.00">seerep_hdf5_core::Hdf5CoreTf</text>
</a>
</g>
</g>
<!-- Node7&#45;&gt;Node11 -->
<g id="edge10" class="edge">
<title>Node7&#45;&gt;Node11</title>
<path fill="none" stroke="midnightblue" d="M96.31,-112.8C116.53,-88.13 151.84,-49.86 191,-29 198.25,-25.14 206.24,-22.06 214.34,-19.61"/>
<polygon fill="midnightblue" stroke="midnightblue" points="93.33,-110.91 89.8,-120.9 98.79,-115.29 93.33,-110.91"/>
</g>
<!-- Node3 -->
<g id="node10" class="node">
<title>Node3</title>
<g id="a_node10"><a xlink:href="classseerep__hdf5__fb_1_1Hdf5FbGeneral.html" target="_top" xlink:title="This class encompasses all read and write operations for the hdf5&#45;fb&#45;io which can be used by differen...">
<polygon fill="none" stroke="black" points="192,-88.5 192,-107.5 363,-107.5 363,-88.5 192,-88.5"/>
<text text-anchor="middle" x="277.5" y="-95.5" font-family="Helvetica,sans-Serif" font-size="10.00">seerep_hdf5_fb::Hdf5FbGeneral</text>
</a>
</g>
</g>
<!-- Node7&#45;&gt;Node3 -->
<g id="edge11" class="edge">
<title>Node7&#45;&gt;Node3</title>
<path fill="none" stroke="midnightblue" d="M165.01,-119.4C186.11,-115.35 207.98,-111.15 226.71,-107.56"/>
<polygon fill="midnightblue" stroke="midnightblue" points="164.21,-115.99 155.05,-121.31 165.53,-122.86 164.21,-115.99"/>
</g>
<!-- Node12 -->
<g id="node14" class="node">
<title>Node12</title>
<g id="a_node14"><a xlink:href="classseerep__hdf5__pb_1_1Hdf5PbGeneral.html" target="_top" xlink:title=" ">
<polygon fill="none" stroke="black" points="191,-126.5 191,-145.5 364,-145.5 364,-126.5 191,-126.5"/>
<text text-anchor="middle" x="277.5" y="-133.5" font-family="Helvetica,sans-Serif" font-size="10.00">seerep_hdf5_pb::Hdf5PbGeneral</text>
</a>
</g>
</g>
<!-- Node7&#45;&gt;Node12 -->
<g id="edge16" class="edge">
<title>Node7&#45;&gt;Node12</title>
<path fill="none" stroke="midnightblue" d="M165.06,-136C173.65,-136 182.36,-136 190.94,-136"/>
<polygon fill="midnightblue" stroke="midnightblue" points="165.05,-132.5 155.05,-136 165.05,-139.5 165.05,-132.5"/>
</g>
<!-- Node3&#45;&gt;Node2 -->
<g id="edge12" class="edge">
<title>Node3&#45;&gt;Node2</title>
<path fill="none" stroke="midnightblue" d="M339.65,-109.42C368.76,-114.86 403.19,-121.28 430.89,-126.46"/>
<polygon fill="midnightblue" stroke="midnightblue" points="340.06,-105.94 329.59,-107.54 338.78,-112.82 340.06,-105.94"/>
</g>
<!-- Node4 -->
<g id="node11" class="node">
<title>Node4</title>
<g id="a_node11"><a xlink:href="classseerep__hdf5__fb_1_1Hdf5FbPoint.html" target="_top" xlink:title=" ">
<polygon fill="none" stroke="black" points="404,-88.5 404,-107.5 562,-107.5 562,-88.5 404,-88.5"/>
<text text-anchor="middle" x="483" y="-95.5" font-family="Helvetica,sans-Serif" font-size="10.00">seerep_hdf5_fb::Hdf5FbPoint</text>
</a>
</g>
</g>
<!-- Node3&#45;&gt;Node4 -->
<g id="edge13" class="edge">
<title>Node3&#45;&gt;Node4</title>
<path fill="none" stroke="midnightblue" d="M373.25,-98C383.52,-98 393.88,-98 403.92,-98"/>
<polygon fill="midnightblue" stroke="midnightblue" points="373.03,-94.5 363.03,-98 373.03,-101.5 373.03,-94.5"/>
</g>
<!-- Node5 -->
<g id="node12" class="node">
<title>Node5</title>
<g id="a_node12"><a xlink:href="classseerep__hdf5__fb_1_1Hdf5FbPointCloud.html" target="_top" xlink:title=" ">
<polygon fill="none" stroke="black" points="404,-39 404,-69 562,-69 562,-39 404,-39"/>
<text text-anchor="start" x="412" y="-57" font-family="Helvetica,sans-Serif" font-size="10.00">seerep_hdf5_fb::Hdf5FbPoint</text>
<text text-anchor="middle" x="483" y="-46" font-family="Helvetica,sans-Serif" font-size="10.00">Cloud</text>
</a>
</g>
</g>
<!-- Node3&#45;&gt;Node5 -->
<g id="edge14" class="edge">
<title>Node3&#45;&gt;Node5</title>
<path fill="none" stroke="midnightblue" d="M332.48,-86.33C356.96,-81.04 386.21,-74.71 412.32,-69.07"/>
<polygon fill="midnightblue" stroke="midnightblue" points="331.69,-82.92 322.66,-88.45 333.17,-89.76 331.69,-82.92"/>
</g>
<!-- Node6 -->
<g id="node13" class="node">
<title>Node6</title>
<g id="a_node13"><a xlink:href="classseerep__hdf5__fb_1_1Hdf5FbTf.html" target="_top" xlink:title=" ">
<polygon fill="none" stroke="black" points="411.5,-0.5 411.5,-19.5 554.5,-19.5 554.5,-0.5 411.5,-0.5"/>
<text text-anchor="middle" x="483" y="-7.5" font-family="Helvetica,sans-Serif" font-size="10.00">seerep_hdf5_fb::Hdf5FbTf</text>
</a>
</g>
</g>
<!-- Node3&#45;&gt;Node6 -->
<g id="edge15" class="edge">
<title>Node3&#45;&gt;Node6</title>
<path fill="none" stroke="midnightblue" d="M351.8,-84.66C356.07,-82.73 360.18,-80.52 364,-78 386.55,-63.11 377.43,-43.86 400,-29 405.86,-25.14 412.4,-22.06 419.17,-19.61"/>
<polygon fill="midnightblue" stroke="midnightblue" points="350.25,-81.51 342.25,-88.46 352.83,-88.02 350.25,-81.51"/>
</g>
<!-- Node12&#45;&gt;Node13 -->
<g id="edge17" class="edge">
<title>Node12&#45;&gt;Node13</title>
<path fill="none" stroke="midnightblue" d="M356.27,-150.42C358.99,-152.09 361.58,-153.94 364,-156 395.89,-183.09 369.33,-214.53 400,-243 408.46,-250.85 419.25,-256.42 430.2,-260.38"/>
<polygon fill="midnightblue" stroke="midnightblue" points="357.68,-147.21 347.2,-145.68 354.44,-153.42 357.68,-147.21"/>
</g>
<!-- Node14 -->
<g id="node15" class="node">
<title>Node14</title>
<g id="a_node15"><a xlink:href="classseerep__hdf5__pb_1_1Hdf5PbPointCloud.html" target="_top" xlink:title=" ">
<polygon fill="none" stroke="black" points="403,-165 403,-195 563,-195 563,-165 403,-165"/>
<text text-anchor="start" x="411" y="-183" font-family="Helvetica,sans-Serif" font-size="10.00">seerep_hdf5_pb::Hdf5PbPoint</text>
<text text-anchor="middle" x="483" y="-172" font-family="Helvetica,sans-Serif" font-size="10.00">Cloud</text>
</a>
</g>
</g>
<!-- Node12&#45;&gt;Node14 -->
<g id="edge18" class="edge">
<title>Node12&#45;&gt;Node14</title>
<path fill="none" stroke="midnightblue" d="M332.48,-147.67C356.96,-152.96 386.21,-159.29 412.32,-164.93"/>
<polygon fill="midnightblue" stroke="midnightblue" points="333.17,-144.24 322.66,-145.55 331.69,-151.08 333.17,-144.24"/>
</g>
<!-- Node15 -->
<g id="node16" class="node">
<title>Node15</title>
<g id="a_node16"><a xlink:href="classseerep__hdf5__pb_1_1Hdf5PbTf.html" target="_top" xlink:title=" ">
<polygon fill="none" stroke="black" points="410.5,-214.5 410.5,-233.5 555.5,-233.5 555.5,-214.5 410.5,-214.5"/>
<text text-anchor="middle" x="483" y="-221.5" font-family="Helvetica,sans-Serif" font-size="10.00">seerep_hdf5_pb::Hdf5PbTf</text>
</a>
</g>
</g>
<!-- Node12&#45;&gt;Node15 -->
<g id="edge19" class="edge">
<title>Node12&#45;&gt;Node15</title>
<path fill="none" stroke="midnightblue" d="M351.8,-149.34C356.07,-151.27 360.18,-153.48 364,-156 386.55,-170.89 377.43,-190.14 400,-205 405.86,-208.86 412.4,-211.94 419.17,-214.39"/>
<polygon fill="midnightblue" stroke="midnightblue" points="352.83,-145.98 342.25,-145.54 350.25,-152.49 352.83,-145.98"/>
</g>
</g>
</svg>
