<?xml version="1.0" encoding="UTF-8" standalone="no"?>
<!DOCTYPE svg PUBLIC "-//W3C//DTD SVG 1.1//EN"
 "http://www.w3.org/Graphics/SVG/1.1/DTD/svg11.dtd">
<!-- Generated by graphviz version 2.43.0 (0)
 -->
<!-- Title: Graphical Class Hierarchy Pages: 1 -->
<svg width="574pt" height="381pt"
 viewBox="0.00 0.00 574.00 380.50" xmlns="http://www.w3.org/2000/svg" xmlns:xlink="http://www.w3.org/1999/xlink">
<g id="graph0" class="graph" transform="scale(1 1) rotate(0) translate(4 376.5)">
<title>Graphical Class Hierarchy</title>
<!-- Node0 -->
<g id="node1" class="node">
<title>Node0</title>
<g id="a_node1"><a xlink:href="classseerep__hdf5__core_1_1Hdf5CoreDatatypeInterface.html" target="_top" xlink:title=" ">
<polygon fill="none" stroke="black" points="0,-293 0,-323 155,-323 155,-293 0,-293"/>
<text text-anchor="start" x="8" y="-311" font-family="Helvetica,sans-Serif" font-size="10.00">seerep_hdf5_core::Hdf5Core</text>
<text text-anchor="middle" x="77.5" y="-300" font-family="Helvetica,sans-Serif" font-size="10.00">DatatypeInterface</text>
</a>
</g>
</g>
<!-- Node1 -->
<g id="node2" class="node">
<title>Node1</title>
<g id="a_node2"><a xlink:href="classseerep__hdf5__core_1_1Hdf5CoreImage.html" target="_top" xlink:title=" ">
<polygon fill="none" stroke="black" points="200,-342 200,-372 355,-372 355,-342 200,-342"/>
<text text-anchor="start" x="208" y="-360" font-family="Helvetica,sans-Serif" font-size="10.00">seerep_hdf5_core::Hdf5Core</text>
<text text-anchor="middle" x="277.5" y="-349" font-family="Helvetica,sans-Serif" font-size="10.00">Image</text>
</a>
</g>
</g>
<!-- Node0&#45;&gt;Node1 -->
<g id="edge1" class="edge">
<title>Node0&#45;&gt;Node1</title>
<path fill="none" stroke="midnightblue" d="M149.12,-325.48C170.94,-330.88 194.78,-336.78 215.86,-341.99"/>
<polygon fill="midnightblue" stroke="midnightblue" points="149.8,-322.04 139.25,-323.03 148.12,-328.83 149.8,-322.04"/>
</g>
<!-- Node4 -->
<g id="node3" class="node">
<title>Node4</title>
<g id="a_node3"><a xlink:href="classseerep__hdf5__core_1_1Hdf5CorePoint.html" target="_top" xlink:title=" ">
<polygon fill="none" stroke="black" points="200,-293 200,-323 355,-323 355,-293 200,-293"/>
<text text-anchor="start" x="208" y="-311" font-family="Helvetica,sans-Serif" font-size="10.00">seerep_hdf5_core::Hdf5Core</text>
<text text-anchor="middle" x="277.5" y="-300" font-family="Helvetica,sans-Serif" font-size="10.00">Point</text>
</a>
</g>
</g>
<!-- Node0&#45;&gt;Node4 -->
<g id="edge2" class="edge">
<title>Node0&#45;&gt;Node4</title>
<path fill="none" stroke="midnightblue" d="M165.13,-308C176.68,-308 188.46,-308 199.83,-308"/>
<polygon fill="midnightblue" stroke="midnightblue" points="165.05,-304.5 155.05,-308 165.05,-311.5 165.05,-304.5"/>
</g>
<!-- Node5 -->
<g id="node4" class="node">
<title>Node5</title>
<g id="a_node4"><a xlink:href="classseerep__hdf5__core_1_1Hdf5CorePointCloud.html" target="_top" xlink:title=" ">
<polygon fill="none" stroke="black" points="200,-244 200,-274 355,-274 355,-244 200,-244"/>
<text text-anchor="start" x="208" y="-262" font-family="Helvetica,sans-Serif" font-size="10.00">seerep_hdf5_core::Hdf5Core</text>
<text text-anchor="middle" x="277.5" y="-251" font-family="Helvetica,sans-Serif" font-size="10.00">PointCloud</text>
</a>
</g>
</g>
<!-- Node0&#45;&gt;Node5 -->
<g id="edge3" class="edge">
<title>Node0&#45;&gt;Node5</title>
<path fill="none" stroke="midnightblue" d="M149.12,-290.52C170.94,-285.12 194.78,-279.22 215.86,-274.01"/>
<polygon fill="midnightblue" stroke="midnightblue" points="148.12,-287.17 139.25,-292.97 149.8,-293.96 148.12,-287.17"/>
</g>
<!-- Node2 -->
<g id="node5" class="node">
<title>Node2</title>
<g id="a_node5"><a xlink:href="classseerep__hdf5__core_1_1Hdf5CoreGeneral.html" target="_top" xlink:title=" ">
<polygon fill="none" stroke="black" points="0,-200 0,-230 155,-230 155,-200 0,-200"/>
<text text-anchor="start" x="8" y="-218" font-family="Helvetica,sans-Serif" font-size="10.00">seerep_hdf5_core::Hdf5Core</text>
<text text-anchor="middle" x="77.5" y="-207" font-family="Helvetica,sans-Serif" font-size="10.00">General</text>
</a>
</g>
</g>
<!-- Node2&#45;&gt;Node1 -->
<g id="edge4" class="edge">
<title>Node2&#45;&gt;Node1</title>
<path fill="none" stroke="midnightblue" d="M105.45,-236.95C120.7,-249.93 139.71,-267.1 155,-284 173.13,-304.04 168.78,-317.62 191,-333 195.94,-336.42 201.37,-339.36 207.01,-341.88"/>
<polygon fill="midnightblue" stroke="midnightblue" points="107.32,-233.95 97.41,-230.19 102.81,-239.31 107.32,-233.95"/>
</g>
<!-- Node2&#45;&gt;Node4 -->
<g id="edge6" class="edge">
<title>Node2&#45;&gt;Node4</title>
<path fill="none" stroke="midnightblue" d="M107.35,-235.79C129.38,-250.89 160.97,-270.88 191,-284 198.63,-287.33 206.84,-290.33 215.06,-292.98"/>
<polygon fill="midnightblue" stroke="midnightblue" points="109.32,-232.9 99.11,-230.07 105.32,-238.65 109.32,-232.9"/>
</g>
<!-- Node2&#45;&gt;Node5 -->
<g id="edge7" class="edge">
<title>Node2&#45;&gt;Node5</title>
<path fill="none" stroke="midnightblue" d="M156.21,-232.27C173.61,-236.14 191.93,-240.21 208.88,-243.97"/>
<polygon fill="midnightblue" stroke="midnightblue" points="156.61,-228.77 146.09,-230.02 155.09,-235.61 156.61,-228.77"/>
</g>
<!-- Node3 -->
<g id="node6" class="node">
<title>Node3</title>
<g id="a_node6"><a xlink:href="classseerep__hdf5__core_1_1Hdf5CoreInstance.html" target="_top" xlink:title=" ">
<polygon fill="none" stroke="black" points="200,-156 200,-186 355,-186 355,-156 200,-156"/>
<text text-anchor="start" x="208" y="-174" font-family="Helvetica,sans-Serif" font-size="10.00">seerep_hdf5_core::Hdf5Core</text>
<text text-anchor="middle" x="277.5" y="-163" font-family="Helvetica,sans-Serif" font-size="10.00">Instance</text>
</a>
</g>
</g>
<!-- Node2&#45;&gt;Node3 -->
<g id="edge5" class="edge">
<title>Node2&#45;&gt;Node3</title>
<path fill="none" stroke="midnightblue" d="M156.21,-197.73C173.61,-193.86 191.93,-189.79 208.88,-186.03"/>
<polygon fill="midnightblue" stroke="midnightblue" points="155.09,-194.39 146.09,-199.98 156.61,-201.23 155.09,-194.39"/>
</g>
<!-- Node6 -->
<g id="node7" class="node">
<title>Node6</title>
<g id="a_node7"><a xlink:href="classseerep__hdf5__core_1_1Hdf5CoreTf.html" target="_top" xlink:title=" ">
<polygon fill="none" stroke="black" points="195.5,-117.5 195.5,-136.5 359.5,-136.5 359.5,-117.5 195.5,-117.5"/>
<text text-anchor="middle" x="277.5" y="-124.5" font-family="Helvetica,sans-Serif" font-size="10.00">seerep_hdf5_core::Hdf5CoreTf</text>
</a>
</g>
</g>
<!-- Node2&#45;&gt;Node6 -->
<g id="edge8" class="edge">
<title>Node2&#45;&gt;Node6</title>
<path fill="none" stroke="midnightblue" d="M106.74,-194.01C128.69,-178.63 160.44,-158.36 191,-146 200.44,-142.18 210.8,-139.06 220.95,-136.53"/>
<polygon fill="midnightblue" stroke="midnightblue" points="104.66,-191.19 98.55,-199.84 108.72,-196.89 104.66,-191.19"/>
</g>
<!-- Node7 -->
<g id="node8" class="node">
<title>Node7</title>
<g id="a_node8"><a xlink:href="classseerep__hdf5__fb_1_1Hdf5FbGeneral.html" target="_top" xlink:title=" ">
<polygon fill="none" stroke="black" points="192,-76.5 192,-95.5 363,-95.5 363,-76.5 192,-76.5"/>
<text text-anchor="middle" x="277.5" y="-83.5" font-family="Helvetica,sans-Serif" font-size="10.00">seerep_hdf5_fb::Hdf5FbGeneral</text>
</a>
</g>
</g>
<!-- Node2&#45;&gt;Node7 -->
<g id="edge9" class="edge">
<title>Node2&#45;&gt;Node7</title>
<path fill="none" stroke="midnightblue" d="M96.78,-191.64C117.17,-167.18 152.41,-129.39 191,-108 200.52,-102.72 211.33,-98.68 221.99,-95.6"/>
<polygon fill="midnightblue" stroke="midnightblue" points="93.82,-189.73 90.2,-199.69 99.24,-194.16 93.82,-189.73"/>
</g>
<!-- Node12 -->
<g id="node13" class="node">
<title>Node12</title>
<g id="a_node13"><a xlink:href="classseerep__hdf5__pb_1_1Hdf5PbGeneral.html" target="_top" xlink:title=" ">
<polygon fill="none" stroke="black" points="191,-205.5 191,-224.5 364,-224.5 364,-205.5 191,-205.5"/>
<text text-anchor="middle" x="277.5" y="-212.5" font-family="Helvetica,sans-Serif" font-size="10.00">seerep_hdf5_pb::Hdf5PbGeneral</text>
</a>
</g>
</g>
<!-- Node2&#45;&gt;Node12 -->
<g id="edge14" class="edge">
<title>Node2&#45;&gt;Node12</title>
<path fill="none" stroke="midnightblue" d="M165.06,-215C173.65,-215 182.36,-215 190.94,-215"/>
<polygon fill="midnightblue" stroke="midnightblue" points="165.05,-211.5 155.05,-215 165.05,-218.5 165.05,-211.5"/>
</g>
<!-- Node8 -->
<g id="node9" class="node">
<title>Node8</title>
<g id="a_node9"><a xlink:href="classseerep__hdf5__fb_1_1Hdf5FbImage.html" target="_top" xlink:title=" ">
<polygon fill="none" stroke="black" points="401,-38.5 401,-57.5 565,-57.5 565,-38.5 401,-38.5"/>
<text text-anchor="middle" x="483" y="-45.5" font-family="Helvetica,sans-Serif" font-size="10.00">seerep_hdf5_fb::Hdf5FbImage</text>
</a>
</g>
</g>
<!-- Node7&#45;&gt;Node8 -->
<g id="edge10" class="edge">
<title>Node7&#45;&gt;Node8</title>
<path fill="none" stroke="midnightblue" d="M339.65,-74.58C368.76,-69.14 403.19,-62.72 430.89,-57.54"/>
<polygon fill="midnightblue" stroke="midnightblue" points="338.78,-71.18 329.59,-76.46 340.06,-78.06 338.78,-71.18"/>
</g>
<!-- Node9 -->
<g id="node10" class="node">
<title>Node9</title>
<g id="a_node10"><a xlink:href="classseerep__hdf5__fb_1_1Hdf5FbPoint.html" target="_top" xlink:title=" ">
<polygon fill="none" stroke="black" points="404,-0.5 404,-19.5 562,-19.5 562,-0.5 404,-0.5"/>
<text text-anchor="middle" x="483" y="-7.5" font-family="Helvetica,sans-Serif" font-size="10.00">seerep_hdf5_fb::Hdf5FbPoint</text>
</a>
</g>
</g>
<!-- Node7&#45;&gt;Node9 -->
<g id="edge11" class="edge">
<title>Node7&#45;&gt;Node9</title>
<path fill="none" stroke="midnightblue" d="M304.61,-71.77C328.77,-59.09 365.98,-40.77 400,-29 410.5,-25.37 421.99,-22.22 432.96,-19.58"/>
<polygon fill="midnightblue" stroke="midnightblue" points="302.91,-68.72 295.72,-76.5 306.19,-74.9 302.91,-68.72"/>
</g>
<!-- Node10 -->
<g id="node11" class="node">
<title>Node10</title>
<g id="a_node11"><a xlink:href="classseerep__hdf5__fb_1_1Hdf5FbPointCloud.html" target="_top" xlink:title=" ">
<polygon fill="none" stroke="black" points="404,-115 404,-145 562,-145 562,-115 404,-115"/>
<text text-anchor="start" x="412" y="-133" font-family="Helvetica,sans-Serif" font-size="10.00">seerep_hdf5_fb::Hdf5FbPoint</text>
<text text-anchor="middle" x="483" y="-122" font-family="Helvetica,sans-Serif" font-size="10.00">Cloud</text>
</a>
</g>
</g>
<!-- Node7&#45;&gt;Node10 -->
<g id="edge12" class="edge">
<title>Node7&#45;&gt;Node10</title>
<path fill="none" stroke="midnightblue" d="M332.48,-97.67C356.96,-102.96 386.21,-109.29 412.32,-114.93"/>
<polygon fill="midnightblue" stroke="midnightblue" points="333.17,-94.24 322.66,-95.55 331.69,-101.08 333.17,-94.24"/>
</g>
<!-- Node11 -->
<g id="node12" class="node">
<title>Node11</title>
<g id="a_node12"><a xlink:href="classseerep__hdf5__fb_1_1Hdf5FbTf.html" target="_top" xlink:title=" ">
<polygon fill="none" stroke="black" points="411.5,-76.5 411.5,-95.5 554.5,-95.5 554.5,-76.5 411.5,-76.5"/>
<text text-anchor="middle" x="483" y="-83.5" font-family="Helvetica,sans-Serif" font-size="10.00">seerep_hdf5_fb::Hdf5FbTf</text>
</a>
</g>
</g>
<!-- Node7&#45;&gt;Node11 -->
<g id="edge13" class="edge">
<title>Node7&#45;&gt;Node11</title>
<path fill="none" stroke="midnightblue" d="M373.26,-86C386.06,-86 399.01,-86 411.3,-86"/>
<polygon fill="midnightblue" stroke="midnightblue" points="373.03,-82.5 363.03,-86 373.03,-89.5 373.03,-82.5"/>
</g>
<!-- Node13 -->
<g id="node14" class="node">
<title>Node13</title>
<g id="a_node14"><a xlink:href="classseerep__hdf5__pb_1_1Hdf5PbImage.html" target="_top" xlink:title=" ">
<polygon fill="none" stroke="black" points="400,-252.5 400,-271.5 566,-271.5 566,-252.5 400,-252.5"/>
<text text-anchor="middle" x="483" y="-259.5" font-family="Helvetica,sans-Serif" font-size="10.00">seerep_hdf5_pb::Hdf5PbImage</text>
</a>
</g>
</g>
<!-- Node12&#45;&gt;Node13 -->
<g id="edge15" class="edge">
<title>Node12&#45;&gt;Node13</title>
<path fill="none" stroke="midnightblue" d="M329.51,-226.78C363.8,-234.7 408.43,-245.01 440.53,-252.42"/>
<polygon fill="midnightblue" stroke="midnightblue" points="330.21,-223.35 319.68,-224.51 328.64,-230.17 330.21,-223.35"/>
</g>
<!-- Node14 -->
<g id="node15" class="node">
<title>Node14</title>
<g id="a_node15"><a xlink:href="classseerep__hdf5__pb_1_1Hdf5PbPointCloud.html" target="_top" xlink:title=" ">
<polygon fill="none" stroke="black" points="403,-203 403,-233 563,-233 563,-203 403,-203"/>
<text text-anchor="start" x="411" y="-221" font-family="Helvetica,sans-Serif" font-size="10.00">seerep_hdf5_pb::Hdf5PbPoint</text>
<text text-anchor="middle" x="483" y="-210" font-family="Helvetica,sans-Serif" font-size="10.00">Cloud</text>
</a>
</g>
</g>
<!-- Node12&#45;&gt;Node14 -->
<g id="edge16" class="edge">
<title>Node12&#45;&gt;Node14</title>
<path fill="none" stroke="midnightblue" d="M374.48,-216.42C383.99,-216.56 393.56,-216.7 402.87,-216.83"/>
<polygon fill="midnightblue" stroke="midnightblue" points="374.26,-212.91 364.21,-216.26 374.16,-219.91 374.26,-212.91"/>
</g>
<!-- Node15 -->
<g id="node16" class="node">
<title>Node15</title>
<g id="a_node16"><a xlink:href="classseerep__hdf5__pb_1_1Hdf5PbTf.html" target="_top" xlink:title=" ">
<polygon fill="none" stroke="black" points="410.5,-164.5 410.5,-183.5 555.5,-183.5 555.5,-164.5 410.5,-164.5"/>
<text text-anchor="middle" x="483" y="-171.5" font-family="Helvetica,sans-Serif" font-size="10.00">seerep_hdf5_pb::Hdf5PbTf</text>
</a>
</g>
</g>
<!-- Node12&#45;&gt;Node15 -->
<g id="edge17" class="edge">
<title>Node12&#45;&gt;Node15</title>
<path fill="none" stroke="midnightblue" d="M335.58,-203.5C366.85,-197.2 405.13,-189.49 434.71,-183.53"/>
<polygon fill="midnightblue" stroke="midnightblue" points="334.81,-200.08 325.7,-205.49 336.19,-206.95 334.81,-200.08"/>
</g>
</g>
</svg>
