<?xml version="1.0" encoding="UTF-8" standalone="no"?>
<!DOCTYPE svg PUBLIC "-//W3C//DTD SVG 1.1//EN"
 "http://www.w3.org/Graphics/SVG/1.1/DTD/svg11.dtd">
<!-- Generated by graphviz version 2.43.0 (0)
 -->
<!-- Title: Graphical Class Hierarchy Pages: 1 -->
<svg width="363pt" height="176pt"
 viewBox="0.00 0.00 363.00 175.50" xmlns="http://www.w3.org/2000/svg" xmlns:xlink="http://www.w3.org/1999/xlink">
<g id="graph0" class="graph" transform="scale(1 1) rotate(0) translate(4 171.5)">
<title>Graphical Class Hierarchy</title>
<!-- Node0 -->
<g id="node1" class="node">
<title>Node0</title>
<g id="a_node1"><a xlink:href="classseerep__hdf5__core_1_1Hdf5CoreDatatypeInterface.html" target="_top" xlink:title=" ">
<polygon fill="none" stroke="black" points="0,-124 0,-154 155,-154 155,-124 0,-124"/>
<text text-anchor="start" x="8" y="-142" font-family="Helvetica,sans-Serif" font-size="10.00">seerep_hdf5_core::Hdf5Core</text>
<text text-anchor="middle" x="77.5" y="-131" font-family="Helvetica,sans-Serif" font-size="10.00">DatatypeInterface</text>
</a>
</g>
</g>
<!-- Node1 -->
<g id="node2" class="node">
<title>Node1</title>
<g id="a_node2"><a xlink:href="classseerep__hdf5__core_1_1Hdf5CoreImage.html" target="_top" xlink:title=" ">
<polygon fill="none" stroke="black" points="195.5,-137 195.5,-167 350.5,-167 350.5,-137 195.5,-137"/>
<text text-anchor="start" x="203.5" y="-155" font-family="Helvetica,sans-Serif" font-size="10.00">seerep_hdf5_core::Hdf5Core</text>
<text text-anchor="middle" x="273" y="-144" font-family="Helvetica,sans-Serif" font-size="10.00">Image</text>
</a>
</g>
</g>
<!-- Node0&#45;&gt;Node1 -->
<g id="edge1" class="edge">
<title>Node0&#45;&gt;Node1</title>
<path fill="none" stroke="midnightblue" d="M165.54,-144.85C175.48,-145.52 185.55,-146.19 195.34,-146.85"/>
<polygon fill="midnightblue" stroke="midnightblue" points="165.47,-141.33 155.25,-144.16 165,-148.32 165.47,-141.33"/>
</g>
<!-- Node4 -->
<g id="node3" class="node">
<title>Node4</title>
<g id="a_node3"><a xlink:href="classseerep__hdf5__core_1_1Hdf5CorePointCloud.html" target="_top" xlink:title=" ">
<polygon fill="none" stroke="black" points="195.5,-88 195.5,-118 350.5,-118 350.5,-88 195.5,-88"/>
<text text-anchor="start" x="203.5" y="-106" font-family="Helvetica,sans-Serif" font-size="10.00">seerep_hdf5_core::Hdf5Core</text>
<text text-anchor="middle" x="273" y="-95" font-family="Helvetica,sans-Serif" font-size="10.00">PointCloud</text>
</a>
</g>
</g>
<!-- Node0&#45;&gt;Node4 -->
<g id="edge2" class="edge">
<title>Node0&#45;&gt;Node4</title>
<path fill="none" stroke="midnightblue" d="M165.23,-122.86C175.27,-121 185.45,-119.1 195.34,-117.26"/>
<polygon fill="midnightblue" stroke="midnightblue" points="164.45,-119.45 155.25,-124.72 165.73,-126.33 164.45,-119.45"/>
</g>
<!-- Node2 -->
<g id="node4" class="node">
<title>Node2</title>
<g id="a_node4"><a xlink:href="classseerep__hdf5__core_1_1Hdf5CoreGeneral.html" target="_top" xlink:title=" ">
<polygon fill="none" stroke="black" points="0,-63 0,-93 155,-93 155,-63 0,-63"/>
<text text-anchor="start" x="8" y="-81" font-family="Helvetica,sans-Serif" font-size="10.00">seerep_hdf5_core::Hdf5Core</text>
<text text-anchor="middle" x="77.5" y="-70" font-family="Helvetica,sans-Serif" font-size="10.00">General</text>
</a>
</g>
</g>
<!-- Node2&#45;&gt;Node1 -->
<g id="edge3" class="edge">
<title>Node2&#45;&gt;Node1</title>
<path fill="none" stroke="midnightblue" d="M118.9,-97.49C140.1,-107.32 166.65,-119.03 191,-128 199.53,-131.14 208.68,-134.17 217.65,-136.96"/>
<polygon fill="midnightblue" stroke="midnightblue" points="120.11,-94.19 109.57,-93.12 117.14,-100.53 120.11,-94.19"/>
</g>
<!-- Node2&#45;&gt;Node4 -->
<g id="edge5" class="edge">
<title>Node2&#45;&gt;Node4</title>
<path fill="none" stroke="midnightblue" d="M165.23,-89.21C175.27,-90.5 185.45,-91.82 195.34,-93.1"/>
<polygon fill="midnightblue" stroke="midnightblue" points="165.62,-85.73 155.25,-87.92 164.72,-92.67 165.62,-85.73"/>
</g>
<!-- Node3 -->
<g id="node5" class="node">
<title>Node3</title>
<g id="a_node5"><a xlink:href="classseerep__hdf5__core_1_1Hdf5CoreInstance.html" target="_top" xlink:title=" ">
<polygon fill="none" stroke="black" points="195.5,-39 195.5,-69 350.5,-69 350.5,-39 195.5,-39"/>
<text text-anchor="start" x="203.5" y="-57" font-family="Helvetica,sans-Serif" font-size="10.00">seerep_hdf5_core::Hdf5Core</text>
<text text-anchor="middle" x="273" y="-46" font-family="Helvetica,sans-Serif" font-size="10.00">Instance</text>
</a>
</g>
</g>
<!-- Node2&#45;&gt;Node3 -->
<g id="edge4" class="edge">
<title>Node2&#45;&gt;Node3</title>
<path fill="none" stroke="midnightblue" d="M165.23,-67.24C175.27,-66 185.45,-64.74 195.34,-63.51"/>
<polygon fill="midnightblue" stroke="midnightblue" points="164.75,-63.78 155.25,-68.48 165.61,-70.72 164.75,-63.78"/>
</g>
<!-- Node5 -->
<g id="node6" class="node">
<title>Node5</title>
<g id="a_node6"><a xlink:href="classseerep__hdf5__core_1_1Hdf5CoreTf.html" target="_top" xlink:title=" ">
<polygon fill="none" stroke="black" points="191,-0.5 191,-19.5 355,-19.5 355,-0.5 191,-0.5"/>
<text text-anchor="middle" x="273" y="-7.5" font-family="Helvetica,sans-Serif" font-size="10.00">seerep_hdf5_core::Hdf5CoreTf</text>
</a>
</g>
</g>
<!-- Node2&#45;&gt;Node5 -->
<g id="edge6" class="edge">
<title>Node2&#45;&gt;Node5</title>
<path fill="none" stroke="midnightblue" d="M118.29,-58.58C139.51,-48.75 166.28,-37.21 191,-29 201.83,-25.4 213.69,-22.22 224.91,-19.53"/>
<polygon fill="midnightblue" stroke="midnightblue" points="116.52,-55.54 108.95,-62.95 119.49,-61.88 116.52,-55.54"/>
</g>
</g>
</svg>
