<?xml version="1.0" encoding="UTF-8" standalone="no"?>
<!DOCTYPE svg PUBLIC "-//W3C//DTD SVG 1.1//EN"
 "http://www.w3.org/Graphics/SVG/1.1/DTD/svg11.dtd">
<!-- Generated by graphviz version 2.43.0 (0)
 -->
<!-- Title: seerep_msgs/core/label_datumaro.h Pages: 1 -->
<svg width="381pt" height="151pt"
 viewBox="0.00 0.00 381.00 151.00" xmlns="http://www.w3.org/2000/svg" xmlns:xlink="http://www.w3.org/1999/xlink">
<g id="graph0" class="graph" transform="scale(1 1) rotate(0) translate(4 147)">
<title>seerep_msgs/core/label_datumaro.h</title>
<!-- Node1 -->
<g id="node1" class="node">
<title>Node1</title>
<g id="a_node1"><a xlink:title=" ">
<polygon fill="#bfbfbf" stroke="black" points="90.5,-112.5 90.5,-142.5 222.5,-142.5 222.5,-112.5 90.5,-112.5"/>
<text text-anchor="start" x="98.5" y="-130.5" font-family="Helvetica,sans-Serif" font-size="10.00">seerep_msgs/core/label</text>
<text text-anchor="middle" x="156.5" y="-119.5" font-family="Helvetica,sans-Serif" font-size="10.00">_datumaro.h</text>
</a>
</g>
</g>
<!-- Node2 -->
<g id="node2" class="node">
<title>Node2</title>
<g id="a_node2"><a xlink:title=" ">
<polygon fill="none" stroke="#bfbfbf" points="0,-0.5 0,-19.5 53,-19.5 53,-0.5 0,-0.5"/>
<text text-anchor="middle" x="26.5" y="-7.5" font-family="Helvetica,sans-Serif" font-size="10.00">string.h</text>
</a>
</g>
</g>
<!-- Node1&#45;&gt;Node2 -->
<g id="edge1" class="edge">
<title>Node1&#45;&gt;Node2</title>
<path fill="none" stroke="midnightblue" d="M140.56,-112.34C116.07,-90.58 69.38,-49.09 43.99,-26.54"/>
<polygon fill="midnightblue" stroke="midnightblue" points="46.06,-23.69 36.26,-19.67 41.41,-28.93 46.06,-23.69"/>
</g>
<!-- Node3 -->
<g id="node3" class="node">
<title>Node3</title>
<g id="a_node3"><a xlink:title=" ">
<polygon fill="none" stroke="#bfbfbf" points="260,-0.5 260,-19.5 373,-19.5 373,-0.5 260,-0.5"/>
<text text-anchor="middle" x="316.5" y="-7.5" font-family="Helvetica,sans-Serif" font-size="10.00">boost/uuid/uuid.hpp</text>
</a>
</g>
</g>
<!-- Node1&#45;&gt;Node3 -->
<g id="edge2" class="edge">
<title>Node1&#45;&gt;Node3</title>
<path fill="none" stroke="midnightblue" d="M176.12,-112.34C206.65,-90.3 265.23,-48.01 296.19,-25.66"/>
<polygon fill="midnightblue" stroke="midnightblue" points="298.43,-28.36 304.49,-19.67 294.33,-22.68 298.43,-28.36"/>
</g>
<!-- Node4 -->
<g id="node4" class="node">
<title>Node4</title>
<g id="a_node4"><a xlink:href="label_8h.html" target="_top" xlink:title=" ">
<polygon fill="none" stroke="black" points="131.5,-56.5 131.5,-75.5 181.5,-75.5 181.5,-56.5 131.5,-56.5"/>
<text text-anchor="middle" x="156.5" y="-63.5" font-family="Helvetica,sans-Serif" font-size="10.00">label.h</text>
</a>
</g>
</g>
<!-- Node1&#45;&gt;Node4 -->
<g id="edge3" class="edge">
<title>Node1&#45;&gt;Node4</title>
<path fill="none" stroke="midnightblue" d="M156.5,-112.4C156.5,-104.47 156.5,-94.46 156.5,-85.86"/>
<polygon fill="midnightblue" stroke="midnightblue" points="160,-85.66 156.5,-75.66 153,-85.66 160,-85.66"/>
</g>
<!-- Node4&#45;&gt;Node2 -->
<g id="edge4" class="edge">
<title>Node4&#45;&gt;Node2</title>
<path fill="none" stroke="midnightblue" d="M135.9,-56.44C114.51,-47.56 80.82,-33.56 56.48,-23.45"/>
<polygon fill="midnightblue" stroke="midnightblue" points="57.58,-20.12 47,-19.52 54.89,-26.58 57.58,-20.12"/>
</g>
<!-- Node4&#45;&gt;Node3 -->
<g id="edge5" class="edge">
<title>Node4&#45;&gt;Node3</title>
<path fill="none" stroke="midnightblue" d="M181.85,-56.44C208.77,-47.36 251.5,-32.94 281.59,-22.78"/>
<polygon fill="midnightblue" stroke="midnightblue" points="282.91,-26.03 291.27,-19.52 280.67,-19.4 282.91,-26.03"/>
</g>
<!-- Node5 -->
<g id="node5" class="node">
<title>Node5</title>
<g id="a_node5"><a xlink:title=" ">
<polygon fill="none" stroke="#bfbfbf" points="71.5,-0.5 71.5,-19.5 241.5,-19.5 241.5,-0.5 71.5,-0.5"/>
<text text-anchor="middle" x="156.5" y="-7.5" font-family="Helvetica,sans-Serif" font-size="10.00">boost/uuid/uuid_generators.hpp</text>
</a>
</g>
</g>
<!-- Node4&#45;&gt;Node5 -->
<g id="edge6" class="edge">
<title>Node4&#45;&gt;Node5</title>
<path fill="none" stroke="midnightblue" d="M156.5,-56.08C156.5,-49.01 156.5,-38.86 156.5,-29.99"/>
<polygon fill="midnightblue" stroke="midnightblue" points="160,-29.75 156.5,-19.75 153,-29.75 160,-29.75"/>
</g>
</g>
</svg>
