<?xml version="1.0" encoding="UTF-8" standalone="no"?>
<!DOCTYPE svg PUBLIC "-//W3C//DTD SVG 1.1//EN"
 "http://www.w3.org/Graphics/SVG/1.1/DTD/svg11.dtd">
<!-- Generated by graphviz version 2.43.0 (0)
 -->
<!-- Title: seerep&#45;srv/seerep&#45;server/include/seerep&#45;server/pb&#45;image&#45;service.h Pages: 1 -->
<svg width="5157pt" height="631pt"
 viewBox="0.00 0.00 5157.00 631.00" xmlns="http://www.w3.org/2000/svg" xmlns:xlink="http://www.w3.org/1999/xlink">
<g id="graph0" class="graph" transform="scale(1 1) rotate(0) translate(4 627)">
<title>seerep&#45;srv/seerep&#45;server/include/seerep&#45;server/pb&#45;image&#45;service.h</title>
<!-- Node1 -->
<g id="node1" class="node">
<title>Node1</title>
<g id="a_node1"><a xlink:title=" ">
<polygon fill="#bfbfbf" stroke="black" points="1810,-581.5 1810,-622.5 1949,-622.5 1949,-581.5 1810,-581.5"/>
<text text-anchor="start" x="1818" y="-610.5" font-family="Helvetica,sans-Serif" font-size="10.00">seerep&#45;srv/seerep&#45;server</text>
<text text-anchor="start" x="1818" y="-599.5" font-family="Helvetica,sans-Serif" font-size="10.00">/include/seerep&#45;server</text>
<text text-anchor="middle" x="1879.5" y="-588.5" font-family="Helvetica,sans-Serif" font-size="10.00">/pb&#45;image&#45;service.h</text>
</a>
</g>
</g>
<!-- Node2 -->
<g id="node2" class="node">
<title>Node2</title>
<g id="a_node2"><a xlink:title=" ">
<polygon fill="none" stroke="#bfbfbf" points="0,-520 0,-539 195,-539 195,-520 0,-520"/>
<text text-anchor="middle" x="97.5" y="-527" font-family="Helvetica,sans-Serif" font-size="10.00">seerep&#45;com/image&#45;service.grpc.pb.h</text>
</a>
</g>
</g>
<!-- Node1&#45;&gt;Node2 -->
<g id="edge1" class="edge">
<title>Node1&#45;&gt;Node2</title>
<path fill="none" stroke="midnightblue" d="M1809.72,-601.07C1580.2,-600.77 827.96,-595.72 208.5,-545 194.32,-543.84 179.16,-542.16 164.76,-540.34"/>
<polygon fill="midnightblue" stroke="midnightblue" points="164.79,-536.82 154.43,-539.01 163.9,-543.76 164.79,-536.82"/>
</g>
<!-- Node3 -->
<g id="node3" class="node">
<title>Node3</title>
<g id="a_node3"><a xlink:href="core-pb-image_8h.html" target="_top" xlink:title=" ">
<polygon fill="none" stroke="black" points="1580.5,-514.5 1580.5,-544.5 1694.5,-544.5 1694.5,-514.5 1580.5,-514.5"/>
<text text-anchor="start" x="1588.5" y="-532.5" font-family="Helvetica,sans-Serif" font-size="10.00">seerep&#45;core&#45;pb/core</text>
<text text-anchor="middle" x="1637.5" y="-521.5" font-family="Helvetica,sans-Serif" font-size="10.00">&#45;pb&#45;image.h</text>
</a>
</g>
</g>
<!-- Node1&#45;&gt;Node3 -->
<g id="edge2" class="edge">
<title>Node1&#45;&gt;Node3</title>
<path fill="none" stroke="midnightblue" d="M1812.41,-581.46C1775.72,-570.77 1730.7,-557.65 1695.53,-547.41"/>
<polygon fill="midnightblue" stroke="midnightblue" points="1696.47,-544.03 1685.89,-544.6 1694.51,-550.75 1696.47,-544.03"/>
</g>
<!-- Node21 -->
<g id="node19" class="node">
<title>Node21</title>
<g id="a_node19"><a xlink:title=" ">
<polygon fill="none" stroke="#bfbfbf" points="245,-0.5 245,-30.5 390,-30.5 390,-0.5 245,-0.5"/>
<text text-anchor="start" x="253" y="-18.5" font-family="Helvetica,sans-Serif" font-size="10.00">boost/log/sources/severity</text>
<text text-anchor="middle" x="317.5" y="-7.5" font-family="Helvetica,sans-Serif" font-size="10.00">_logger.hpp</text>
</a>
</g>
</g>
<!-- Node1&#45;&gt;Node21 -->
<g id="edge189" class="edge">
<title>Node1&#45;&gt;Node21</title>
<path fill="none" stroke="midnightblue" d="M1809.89,-599.16C1495.39,-590.4 222.5,-549.94 222.5,-469 222.5,-469 222.5,-469 222.5,-148.5 222.5,-101.99 261.84,-60.68 289.89,-37.13"/>
<polygon fill="midnightblue" stroke="midnightblue" points="292.26,-39.71 297.82,-30.69 287.85,-34.28 292.26,-39.71"/>
</g>
<!-- Node22 -->
<g id="node20" class="node">
<title>Node22</title>
<g id="a_node20"><a xlink:title=" ">
<polygon fill="none" stroke="#bfbfbf" points="4451.5,-6 4451.5,-25 4565.5,-25 4565.5,-6 4451.5,-6"/>
<text text-anchor="middle" x="4508.5" y="-13" font-family="Helvetica,sans-Serif" font-size="10.00">boost/log/trivial.hpp</text>
</a>
</g>
</g>
<!-- Node1&#45;&gt;Node22 -->
<g id="edge190" class="edge">
<title>Node1&#45;&gt;Node22</title>
<path fill="none" stroke="midnightblue" d="M1949.05,-599.99C2415.26,-593.03 5067.5,-549.84 5067.5,-469 5067.5,-469 5067.5,-469 5067.5,-148.5 5067.5,-48.56 4724.81,-24.2 4576.06,-18.33"/>
<polygon fill="midnightblue" stroke="midnightblue" points="4575.82,-14.82 4565.7,-17.94 4575.56,-21.82 4575.82,-14.82"/>
</g>
<!-- Node34 -->
<g id="node31" class="node">
<title>Node34</title>
<g id="a_node31"><a xlink:href="core_8h.html" target="_top" xlink:title=" ">
<polygon fill="none" stroke="black" points="2445,-458.5 2445,-477.5 2552,-477.5 2552,-458.5 2445,-458.5"/>
<text text-anchor="middle" x="2498.5" y="-465.5" font-family="Helvetica,sans-Serif" font-size="10.00">seerep&#45;core/core.h</text>
</a>
</g>
</g>
<!-- Node1&#45;&gt;Node34 -->
<g id="edge187" class="edge">
<title>Node1&#45;&gt;Node34</title>
<path fill="none" stroke="midnightblue" d="M1949,-586.18C2075.03,-559.3 2338.4,-503.14 2448.47,-479.67"/>
<polygon fill="midnightblue" stroke="midnightblue" points="2449.27,-483.08 2458.32,-477.57 2447.81,-476.23 2449.27,-483.08"/>
</g>
<!-- Node59 -->
<g id="node50" class="node">
<title>Node59</title>
<g id="a_node50"><a xlink:title=" ">
<polygon fill="none" stroke="#bfbfbf" points="5096,-520 5096,-539 5149,-539 5149,-520 5096,-520"/>
<text text-anchor="middle" x="5122.5" y="-527" font-family="Helvetica,sans-Serif" font-size="10.00">util.hpp</text>
</a>
</g>
</g>
<!-- Node1&#45;&gt;Node59 -->
<g id="edge188" class="edge">
<title>Node1&#45;&gt;Node59</title>
<path fill="none" stroke="midnightblue" d="M1949.22,-601.13C2388.4,-601.74 4763.91,-602.37 5081.5,-545 5085.21,-544.33 5089.03,-543.37 5092.78,-542.26"/>
<polygon fill="midnightblue" stroke="midnightblue" points="5094.03,-545.53 5102.41,-539.06 5091.82,-538.89 5094.03,-545.53"/>
</g>
<!-- Node4 -->
<g id="node4" class="node">
<title>Node4</title>
<g id="a_node4"><a xlink:title=" ">
<polygon fill="none" stroke="#bfbfbf" points="3507,-140 3507,-159 3572,-159 3572,-140 3507,-140"/>
<text text-anchor="middle" x="3539.5" y="-147" font-family="Helvetica,sans-Serif" font-size="10.00">functional</text>
</a>
</g>
</g>
<!-- Node3&#45;&gt;Node4 -->
<g id="edge3" class="edge">
<title>Node3&#45;&gt;Node4</title>
<path fill="none" stroke="midnightblue" d="M1694.71,-516.07C1741.27,-505.93 1808.66,-491.17 1867.5,-478 2407.56,-357.1 2534.74,-286.62 3081.5,-201 3264.85,-172.29 3315.97,-203.57 3497.5,-165 3501,-164.26 3504.61,-163.31 3508.18,-162.25"/>
<polygon fill="midnightblue" stroke="midnightblue" points="3509.56,-165.48 3517.99,-159.06 3507.4,-158.82 3509.56,-165.48"/>
</g>
<!-- Node5 -->
<g id="node5" class="node">
<title>Node5</title>
<g id="a_node5"><a xlink:title=" ">
<polygon fill="none" stroke="#bfbfbf" points="2199.5,-6 2199.5,-25 2255.5,-25 2255.5,-6 2199.5,-6"/>
<text text-anchor="middle" x="2227.5" y="-13" font-family="Helvetica,sans-Serif" font-size="10.00">optional</text>
</a>
</g>
</g>
<!-- Node3&#45;&gt;Node5 -->
<g id="edge4" class="edge">
<title>Node3&#45;&gt;Node5</title>
<path fill="none" stroke="midnightblue" d="M1580.2,-526.17C1452.26,-519.42 1154.5,-494.38 1154.5,-407.5 1154.5,-407.5 1154.5,-407.5 1154.5,-215.5 1154.5,-178.31 1147.53,-160.63 1173.5,-134 1214.86,-91.59 1373.01,-76.36 1431.5,-67 1720.22,-20.79 2074.21,-16.45 2189.36,-16.35"/>
<polygon fill="midnightblue" stroke="midnightblue" points="2189.44,-19.85 2199.44,-16.35 2189.44,-12.85 2189.44,-19.85"/>
</g>
<!-- Node6 -->
<g id="node6" class="node">
<title>Node6</title>
<g id="a_node6"><a xlink:title=" ">
<polygon fill="none" stroke="#bfbfbf" points="989,-140 989,-159 1126,-159 1126,-140 989,-140"/>
<text text-anchor="middle" x="1057.5" y="-147" font-family="Helvetica,sans-Serif" font-size="10.00">seerep&#45;msgs/image.pb.h</text>
</a>
</g>
</g>
<!-- Node3&#45;&gt;Node6 -->
<g id="edge5" class="edge">
<title>Node3&#45;&gt;Node6</title>
<path fill="none" stroke="midnightblue" d="M1580.16,-525.96C1456.93,-520.04 1175.13,-503.83 1140.5,-478 1113.34,-457.74 1111.5,-441.38 1111.5,-407.5 1111.5,-407.5 1111.5,-407.5 1111.5,-277 1111.5,-235.03 1086.04,-191.05 1070.08,-167.61"/>
<polygon fill="midnightblue" stroke="midnightblue" points="1072.74,-165.31 1064.12,-159.16 1067.02,-169.35 1072.74,-165.31"/>
</g>
<!-- Node7 -->
<g id="node7" class="node">
<title>Node7</title>
<g id="a_node7"><a xlink:title=" ">
<polygon fill="none" stroke="#bfbfbf" points="1183,-140 1183,-159 1316,-159 1316,-140 1183,-140"/>
<text text-anchor="middle" x="1249.5" y="-147" font-family="Helvetica,sans-Serif" font-size="10.00">seerep&#45;msgs/query.pb.h</text>
</a>
</g>
</g>
<!-- Node3&#45;&gt;Node7 -->
<g id="edge6" class="edge">
<title>Node3&#45;&gt;Node7</title>
<path fill="none" stroke="midnightblue" d="M1580.22,-521.53C1477.72,-507.43 1273.5,-471.35 1273.5,-407.5 1273.5,-407.5 1273.5,-407.5 1273.5,-277 1273.5,-238.04 1262.37,-193.49 1255.27,-169.02"/>
<polygon fill="midnightblue" stroke="midnightblue" points="1258.58,-167.86 1252.35,-159.29 1251.87,-169.87 1258.58,-167.86"/>
</g>
<!-- Node8 -->
<g id="node8" class="node">
<title>Node8</title>
<g id="a_node8"><a xlink:title=" ">
<polygon fill="none" stroke="#bfbfbf" points="1449,-140 1449,-159 1600,-159 1600,-140 1449,-140"/>
<text text-anchor="middle" x="1524.5" y="-147" font-family="Helvetica,sans-Serif" font-size="10.00">seerep&#45;msgs/query&#45;result.h</text>
</a>
</g>
</g>
<!-- Node3&#45;&gt;Node8 -->
<g id="edge7" class="edge">
<title>Node3&#45;&gt;Node8</title>
<path fill="none" stroke="midnightblue" d="M1580.41,-527.51C1537.91,-523.78 1481.14,-512.09 1444.5,-478 1420.27,-455.46 1420.5,-440.6 1420.5,-407.5 1420.5,-407.5 1420.5,-407.5 1420.5,-277 1420.5,-226.54 1470.49,-185.25 1501.15,-164.66"/>
<polygon fill="midnightblue" stroke="midnightblue" points="1503.11,-167.56 1509.6,-159.18 1499.3,-161.69 1503.11,-167.56"/>
</g>
<!-- Node9 -->
<g id="node9" class="node">
<title>Node9</title>
<g id="a_node9"><a xlink:title=" ">
<polygon fill="none" stroke="#bfbfbf" points="2479.5,-140 2479.5,-159 2597.5,-159 2597.5,-140 2479.5,-140"/>
<text text-anchor="middle" x="2538.5" y="-147" font-family="Helvetica,sans-Serif" font-size="10.00">seerep&#45;msgs/query.h</text>
</a>
</g>
</g>
<!-- Node3&#45;&gt;Node9 -->
<g id="edge8" class="edge">
<title>Node3&#45;&gt;Node9</title>
<path fill="none" stroke="midnightblue" d="M1692.21,-514.46C1825.07,-479.06 2173.01,-378.42 2434.5,-232 2468.13,-213.17 2502.41,-183.96 2522,-166.1"/>
<polygon fill="midnightblue" stroke="midnightblue" points="2524.49,-168.56 2529.46,-159.2 2519.74,-163.42 2524.49,-168.56"/>
</g>
<!-- Node10 -->
<g id="node10" class="node">
<title>Node10</title>
<g id="a_node10"><a xlink:href="hdf5-pb-image_8h.html" target="_top" xlink:title=" ">
<polygon fill="none" stroke="black" points="902.5,-201.5 902.5,-231.5 1018.5,-231.5 1018.5,-201.5 902.5,-201.5"/>
<text text-anchor="start" x="910.5" y="-219.5" font-family="Helvetica,sans-Serif" font-size="10.00">seerep&#45;hdf5&#45;pb/hdf5</text>
<text text-anchor="middle" x="960.5" y="-208.5" font-family="Helvetica,sans-Serif" font-size="10.00">&#45;pb&#45;image.h</text>
</a>
</g>
</g>
<!-- Node3&#45;&gt;Node10 -->
<g id="edge9" class="edge">
<title>Node3&#45;&gt;Node10</title>
<path fill="none" stroke="midnightblue" d="M1580.21,-525.96C1460.33,-520.2 1186.74,-504.51 1097.5,-478 1032.99,-458.84 963.5,-474.8 963.5,-407.5 963.5,-407.5 963.5,-407.5 963.5,-338.5 963.5,-304.97 962.33,-266.23 961.46,-241.8"/>
<polygon fill="midnightblue" stroke="midnightblue" points="964.95,-241.52 961.08,-231.65 957.95,-241.78 964.95,-241.52"/>
</g>
<!-- Node15 -->
<g id="node15" class="node">
<title>Node15</title>
<g id="a_node15"><a xlink:title=" ">
<polygon fill="none" stroke="#bfbfbf" points="4286,-6 4286,-25 4399,-25 4399,-6 4286,-6"/>
<text text-anchor="middle" x="4342.5" y="-13" font-family="Helvetica,sans-Serif" font-size="10.00">boost/uuid/uuid.hpp</text>
</a>
</g>
</g>
<!-- Node3&#45;&gt;Node15 -->
<g id="edge184" class="edge">
<title>Node3&#45;&gt;Node15</title>
<path fill="none" stroke="midnightblue" d="M1694.75,-528.41C2047.98,-527.75 3935.09,-522.14 4511.5,-478 4743.17,-460.26 5029.5,-639.84 5029.5,-407.5 5029.5,-407.5 5029.5,-407.5 5029.5,-215.5 5029.5,-150.13 4564.6,-57.64 4399.68,-26.89"/>
<polygon fill="midnightblue" stroke="midnightblue" points="4400.19,-23.43 4389.72,-25.04 4398.91,-30.31 4400.19,-23.43"/>
</g>
<!-- Node24 -->
<g id="node21" class="node">
<title>Node24</title>
<g id="a_node21"><a xlink:title=" ">
<polygon fill="none" stroke="#bfbfbf" points="4030,-73 4030,-92 4173,-92 4173,-73 4030,-73"/>
<text text-anchor="middle" x="4101.5" y="-80" font-family="Helvetica,sans-Serif" font-size="10.00">boost/functional/hash.hpp</text>
</a>
</g>
</g>
<!-- Node3&#45;&gt;Node24 -->
<g id="edge182" class="edge">
<title>Node3&#45;&gt;Node24</title>
<path fill="none" stroke="midnightblue" d="M1694.73,-527.67C2117.88,-521.4 4746.28,-480.14 4802.5,-422 4844.11,-378.96 4907.66,-326.11 4417.5,-134 4395.27,-125.29 4260.35,-105.5 4174.14,-93.44"/>
<polygon fill="midnightblue" stroke="midnightblue" points="4174.53,-89.96 4164.14,-92.05 4173.56,-96.89 4174.53,-89.96"/>
</g>
<!-- Node25 -->
<g id="node22" class="node">
<title>Node25</title>
<g id="a_node22"><a xlink:title=" ">
<polygon fill="none" stroke="#bfbfbf" points="4230,-73 4230,-92 4355,-92 4355,-73 4230,-73"/>
<text text-anchor="middle" x="4292.5" y="-80" font-family="Helvetica,sans-Serif" font-size="10.00">boost/lexical_cast.hpp</text>
</a>
</g>
</g>
<!-- Node3&#45;&gt;Node25 -->
<g id="edge183" class="edge">
<title>Node3&#45;&gt;Node25</title>
<path fill="none" stroke="midnightblue" d="M1694.95,-528.86C1972.35,-530.27 3200.9,-532.96 4205.5,-478 4483.09,-462.81 4640.93,-627.19 4828.5,-422 4939.7,-300.36 4713.46,-167.35 4649.5,-134 4601.4,-108.92 4454.79,-94.65 4365.11,-88.05"/>
<polygon fill="midnightblue" stroke="midnightblue" points="4365.23,-84.55 4355,-87.32 4364.72,-91.53 4365.23,-84.55"/>
</g>
<!-- Node26 -->
<g id="node23" class="node">
<title>Node26</title>
<g id="a_node23"><a xlink:title=" ">
<polygon fill="none" stroke="#bfbfbf" points="2475.5,-73 2475.5,-92 2645.5,-92 2645.5,-73 2475.5,-73"/>
<text text-anchor="middle" x="2560.5" y="-80" font-family="Helvetica,sans-Serif" font-size="10.00">boost/uuid/uuid_generators.hpp</text>
</a>
</g>
</g>
<!-- Node3&#45;&gt;Node26 -->
<g id="edge185" class="edge">
<title>Node3&#45;&gt;Node26</title>
<path fill="none" stroke="midnightblue" d="M1630.44,-514.31C1625.87,-504.39 1620.28,-490.71 1617.5,-478 1597.15,-384.93 1582.31,-322.43 1660.5,-268 1889.75,-108.41 2022.06,-270.99 2280.5,-165 2302.63,-155.92 2302.58,-143.59 2324.5,-134 2371.62,-113.39 2427.81,-100.94 2473.54,-93.55"/>
<polygon fill="midnightblue" stroke="midnightblue" points="2474.09,-97.01 2483.43,-92.01 2473.01,-90.09 2474.09,-97.01"/>
</g>
<!-- Node27 -->
<g id="node24" class="node">
<title>Node27</title>
<g id="a_node24"><a xlink:title=" ">
<polygon fill="none" stroke="#bfbfbf" points="2664,-73 2664,-92 2791,-92 2791,-73 2664,-73"/>
<text text-anchor="middle" x="2727.5" y="-80" font-family="Helvetica,sans-Serif" font-size="10.00">boost/uuid/uuid_io.hpp</text>
</a>
</g>
</g>
<!-- Node3&#45;&gt;Node27 -->
<g id="edge186" class="edge">
<title>Node3&#45;&gt;Node27</title>
<path fill="none" stroke="midnightblue" d="M1673.2,-514.33C1814.93,-458 2331.76,-252.1 2363.5,-232 2417.98,-197.49 2412.93,-163.05 2470.5,-134 2544.89,-96.46 2572.75,-114.12 2654.5,-98 2661.06,-96.71 2667.95,-95.34 2674.77,-93.99"/>
<polygon fill="midnightblue" stroke="midnightblue" points="2675.53,-97.41 2684.66,-92.03 2674.17,-90.54 2675.53,-97.41"/>
</g>
<!-- Node3&#45;&gt;Node34 -->
<g id="edge48" class="edge">
<title>Node3&#45;&gt;Node34</title>
<path fill="none" stroke="midnightblue" d="M1694.66,-524.55C1848.93,-513.89 2272.99,-484.58 2434.7,-473.41"/>
<polygon fill="midnightblue" stroke="midnightblue" points="2435.24,-476.88 2444.97,-472.7 2434.75,-469.9 2435.24,-476.88"/>
</g>
<!-- Node56 -->
<g id="node47" class="node">
<title>Node56</title>
<g id="a_node47"><a xlink:href="core-pb-conversion_8h.html" target="_top" xlink:title=" ">
<polygon fill="none" stroke="black" points="2240.5,-201.5 2240.5,-231.5 2354.5,-231.5 2354.5,-201.5 2240.5,-201.5"/>
<text text-anchor="start" x="2248.5" y="-219.5" font-family="Helvetica,sans-Serif" font-size="10.00">seerep&#45;core&#45;pb/core</text>
<text text-anchor="middle" x="2297.5" y="-208.5" font-family="Helvetica,sans-Serif" font-size="10.00">&#45;pb&#45;conversion.h</text>
</a>
</g>
</g>
<!-- Node3&#45;&gt;Node56 -->
<g id="edge165" class="edge">
<title>Node3&#45;&gt;Node56</title>
<path fill="none" stroke="midnightblue" d="M1632.4,-514.13C1629.13,-504.14 1625.19,-490.44 1623.5,-478 1618.29,-439.69 1614.19,-428.53 1623.5,-391 1638.38,-330.99 1636.82,-301.95 1688.5,-268 1774.57,-211.46 2047.92,-241.05 2150.5,-232 2176.54,-229.7 2205.16,-226.93 2230.17,-224.44"/>
<polygon fill="midnightblue" stroke="midnightblue" points="2230.68,-227.9 2240.28,-223.42 2229.98,-220.94 2230.68,-227.9"/>
</g>
<!-- Node10&#45;&gt;Node5 -->
<g id="edge47" class="edge">
<title>Node10&#45;&gt;Node5</title>
<path fill="none" stroke="midnightblue" d="M940.48,-201.36C918.82,-184.38 889.73,-155.49 908.5,-134 947.59,-89.24 1115.92,-112.72 1173.5,-98 1210.85,-88.45 1216.79,-74.99 1254.5,-67 1437.7,-28.2 2031.85,-18.74 2189.05,-16.89"/>
<polygon fill="midnightblue" stroke="midnightblue" points="2189.22,-20.39 2199.18,-16.78 2189.14,-13.39 2189.22,-20.39"/>
</g>
<!-- Node10&#45;&gt;Node6 -->
<g id="edge45" class="edge">
<title>Node10&#45;&gt;Node6</title>
<path fill="none" stroke="midnightblue" d="M981.55,-201.4C997.81,-190.5 1020.22,-175.48 1036.48,-164.58"/>
<polygon fill="midnightblue" stroke="midnightblue" points="1038.45,-167.48 1044.8,-159.01 1034.55,-161.67 1038.45,-167.48"/>
</g>
<!-- Node11 -->
<g id="node11" class="node">
<title>Node11</title>
<g id="a_node11"><a xlink:title=" ">
<polygon fill="none" stroke="#bfbfbf" points="3055.5,-6 3055.5,-25 3165.5,-25 3165.5,-6 3055.5,-6"/>
<text text-anchor="middle" x="3110.5" y="-13" font-family="Helvetica,sans-Serif" font-size="10.00">highfive/H5File.hpp</text>
</a>
</g>
</g>
<!-- Node10&#45;&gt;Node11 -->
<g id="edge10" class="edge">
<title>Node10&#45;&gt;Node11</title>
<path fill="none" stroke="midnightblue" d="M959.19,-201.44C958.33,-182.86 960,-150.54 979.5,-134 1026.2,-94.38 1468.39,-102.05 1529.5,-98 1734.4,-84.4 1785.42,-77.48 1990.5,-67 2447.07,-43.66 2563.42,-74.67 3018.5,-31 3029.83,-29.91 3041.88,-28.33 3053.41,-26.6"/>
<polygon fill="midnightblue" stroke="midnightblue" points="3054.02,-30.05 3063.36,-25.05 3052.95,-23.13 3054.02,-30.05"/>
</g>
<!-- Node12 -->
<g id="node12" class="node">
<title>Node12</title>
<g id="a_node12"><a xlink:href="hdf5-core-image_8h.html" target="_top" xlink:title=" ">
<polygon fill="none" stroke="black" points="3139,-134.5 3139,-164.5 3264,-164.5 3264,-134.5 3139,-134.5"/>
<text text-anchor="start" x="3147" y="-152.5" font-family="Helvetica,sans-Serif" font-size="10.00">seerep&#45;hdf5&#45;core/hdf5</text>
<text text-anchor="middle" x="3201.5" y="-141.5" font-family="Helvetica,sans-Serif" font-size="10.00">&#45;core&#45;image.h</text>
</a>
</g>
</g>
<!-- Node10&#45;&gt;Node12 -->
<g id="edge11" class="edge">
<title>Node10&#45;&gt;Node12</title>
<path fill="none" stroke="midnightblue" d="M1018.54,-214.77C1337.44,-210.66 2871.34,-189.84 3128.59,-164.99"/>
<polygon fill="midnightblue" stroke="midnightblue" points="3129.29,-168.44 3138.88,-163.92 3128.57,-161.48 3129.29,-168.44"/>
</g>
<!-- Node18 -->
<g id="node18" class="node">
<title>Node18</title>
<g id="a_node18"><a xlink:title=" ">
<polygon fill="none" stroke="#bfbfbf" points="2896,-6 2896,-25 3009,-25 3009,-6 2896,-6"/>
<text text-anchor="middle" x="2952.5" y="-13" font-family="Helvetica,sans-Serif" font-size="10.00">boost/geometry.hpp</text>
</a>
</g>
</g>
<!-- Node10&#45;&gt;Node18 -->
<g id="edge46" class="edge">
<title>Node10&#45;&gt;Node18</title>
<path fill="none" stroke="midnightblue" d="M951.91,-201.44C942.15,-183.44 929.61,-152.4 946.5,-134 961.24,-117.94 1706.74,-68.38 1728.5,-67 2169.61,-39.02 2701.17,-23.19 2885.63,-18.22"/>
<polygon fill="midnightblue" stroke="midnightblue" points="2885.81,-21.72 2895.72,-17.95 2885.63,-14.72 2885.81,-21.72"/>
</g>
<!-- Node28 -->
<g id="node25" class="node">
<title>Node28</title>
<g id="a_node25"><a xlink:href="hdf5-pb-general_8h.html" target="_top" xlink:title=" ">
<polygon fill="none" stroke="black" points="702.5,-134.5 702.5,-164.5 818.5,-164.5 818.5,-134.5 702.5,-134.5"/>
<text text-anchor="start" x="710.5" y="-152.5" font-family="Helvetica,sans-Serif" font-size="10.00">seerep&#45;hdf5&#45;pb/hdf5</text>
<text text-anchor="middle" x="760.5" y="-141.5" font-family="Helvetica,sans-Serif" font-size="10.00">&#45;pb&#45;general.h</text>
</a>
</g>
</g>
<!-- Node10&#45;&gt;Node28 -->
<g id="edge33" class="edge">
<title>Node10&#45;&gt;Node28</title>
<path fill="none" stroke="midnightblue" d="M917.1,-201.4C886.7,-191.52 845.89,-178.25 813.56,-167.74"/>
<polygon fill="midnightblue" stroke="midnightblue" points="814.4,-164.34 803.81,-164.58 812.24,-171 814.4,-164.34"/>
</g>
<!-- Node12&#45;&gt;Node5 -->
<g id="edge27" class="edge">
<title>Node12&#45;&gt;Node5</title>
<path fill="none" stroke="midnightblue" d="M3149.31,-134.5C3070.53,-113.56 2924.81,-75.61 2871.5,-67 2643.7,-30.19 2366.07,-19.93 2265.86,-17.32"/>
<polygon fill="midnightblue" stroke="midnightblue" points="2265.71,-13.81 2255.63,-17.06 2265.54,-20.81 2265.71,-13.81"/>
</g>
<!-- Node12&#45;&gt;Node11 -->
<g id="edge12" class="edge">
<title>Node12&#45;&gt;Node11</title>
<path fill="none" stroke="midnightblue" d="M3208.04,-134.37C3214.96,-117.13 3223.26,-87.73 3210.5,-67 3198.85,-48.07 3177.67,-35.97 3157.79,-28.39"/>
<polygon fill="midnightblue" stroke="midnightblue" points="3158.78,-25.02 3148.18,-25.01 3156.46,-31.63 3158.78,-25.02"/>
</g>
<!-- Node13 -->
<g id="node13" class="node">
<title>Node13</title>
<g id="a_node13"><a xlink:href="hdf5-core-datatype-interface_8h.html" target="_top" xlink:title=" ">
<polygon fill="none" stroke="black" points="3714,-67.5 3714,-97.5 3859,-97.5 3859,-67.5 3714,-67.5"/>
<text text-anchor="start" x="3722" y="-85.5" font-family="Helvetica,sans-Serif" font-size="10.00">seerep&#45;hdf5&#45;core/hdf5</text>
<text text-anchor="middle" x="3786.5" y="-74.5" font-family="Helvetica,sans-Serif" font-size="10.00">&#45;core&#45;datatype&#45;interface.h</text>
</a>
</g>
</g>
<!-- Node12&#45;&gt;Node13 -->
<g id="edge13" class="edge">
<title>Node12&#45;&gt;Node13</title>
<path fill="none" stroke="midnightblue" d="M3264.01,-141.76C3352.51,-132.19 3519.4,-114.04 3661.5,-98 3675.13,-96.46 3689.58,-94.81 3703.65,-93.18"/>
<polygon fill="midnightblue" stroke="midnightblue" points="3704.27,-96.63 3713.8,-92.01 3703.47,-89.68 3704.27,-96.63"/>
</g>
<!-- Node14 -->
<g id="node14" class="node">
<title>Node14</title>
<g id="a_node14"><a xlink:title=" ">
<polygon fill="none" stroke="#bfbfbf" points="3777,-0.5 3777,-30.5 3896,-30.5 3896,-0.5 3777,-0.5"/>
<text text-anchor="start" x="3785" y="-18.5" font-family="Helvetica,sans-Serif" font-size="10.00">seerep&#45;msgs/dataset</text>
<text text-anchor="middle" x="3836.5" y="-7.5" font-family="Helvetica,sans-Serif" font-size="10.00">&#45;indexable.h</text>
</a>
</g>
</g>
<!-- Node12&#45;&gt;Node14 -->
<g id="edge25" class="edge">
<title>Node12&#45;&gt;Node14</title>
<path fill="none" stroke="midnightblue" d="M3264.12,-135.48C3383.39,-110.69 3642.32,-56.87 3766.85,-30.98"/>
<polygon fill="midnightblue" stroke="midnightblue" points="3767.59,-34.4 3776.67,-28.94 3766.16,-27.55 3767.59,-34.4"/>
</g>
<!-- Node12&#45;&gt;Node15 -->
<g id="edge30" class="edge">
<title>Node12&#45;&gt;Node15</title>
<path fill="none" stroke="midnightblue" d="M3264.25,-140.22C3330.98,-131.12 3439.51,-115.44 3532.5,-98 3594.71,-86.33 3608.89,-76.29 3671.5,-67 3891.02,-34.43 4154.22,-22.39 4275.41,-18.35"/>
<polygon fill="midnightblue" stroke="midnightblue" points="4275.76,-21.84 4285.64,-18.01 4275.53,-14.84 4275.76,-21.84"/>
</g>
<!-- Node16 -->
<g id="node16" class="node">
<title>Node16</title>
<g id="a_node16"><a xlink:href="hdf5-core-general_8h.html" target="_top" xlink:title=" ">
<polygon fill="none" stroke="red" points="3076,-67.5 3076,-97.5 3201,-97.5 3201,-67.5 3076,-67.5"/>
<text text-anchor="start" x="3084" y="-85.5" font-family="Helvetica,sans-Serif" font-size="10.00">seerep&#45;hdf5&#45;core/hdf5</text>
<text text-anchor="middle" x="3138.5" y="-74.5" font-family="Helvetica,sans-Serif" font-size="10.00">&#45;core&#45;general.h</text>
</a>
</g>
</g>
<!-- Node12&#45;&gt;Node16 -->
<g id="edge17" class="edge">
<title>Node12&#45;&gt;Node16</title>
<path fill="none" stroke="midnightblue" d="M3187.83,-134.4C3179.49,-125.79 3168.67,-114.63 3159.28,-104.94"/>
<polygon fill="midnightblue" stroke="midnightblue" points="3161.62,-102.32 3152.14,-97.58 3156.59,-107.19 3161.62,-102.32"/>
</g>
<!-- Node12&#45;&gt;Node18 -->
<g id="edge26" class="edge">
<title>Node12&#45;&gt;Node18</title>
<path fill="none" stroke="midnightblue" d="M3155.58,-134.45C3129.1,-125.56 3095.6,-112.93 3067.5,-98 3030.87,-78.54 2992.33,-49.12 2970.47,-31.46"/>
<polygon fill="midnightblue" stroke="midnightblue" points="2972.65,-28.72 2962.69,-25.1 2968.22,-34.14 2972.65,-28.72"/>
</g>
<!-- Node12&#45;&gt;Node24 -->
<g id="edge28" class="edge">
<title>Node12&#45;&gt;Node24</title>
<path fill="none" stroke="midnightblue" d="M3264.11,-141.94C3290.46,-139.29 3321.45,-136.32 3349.5,-134 3477.71,-123.42 3852.63,-99.3 4019.62,-88.68"/>
<polygon fill="midnightblue" stroke="midnightblue" points="4020.07,-92.16 4029.83,-88.03 4019.63,-85.17 4020.07,-92.16"/>
</g>
<!-- Node12&#45;&gt;Node25 -->
<g id="edge29" class="edge">
<title>Node12&#45;&gt;Node25</title>
<path fill="none" stroke="midnightblue" d="M3264.09,-141.61C3290.43,-138.9 3321.43,-135.98 3349.5,-134 3719.15,-107.92 3813.34,-130.25 4182.5,-98 4196.32,-96.79 4211.07,-95.12 4225.13,-93.33"/>
<polygon fill="midnightblue" stroke="midnightblue" points="4225.76,-96.78 4235.23,-92.02 4224.86,-89.84 4225.76,-96.78"/>
</g>
<!-- Node12&#45;&gt;Node26 -->
<g id="edge31" class="edge">
<title>Node12&#45;&gt;Node26</title>
<path fill="none" stroke="midnightblue" d="M3138.85,-135.26C3136.04,-134.81 3133.24,-134.38 3130.5,-134 2920.81,-104.76 2865.85,-121.99 2655.5,-98 2644.59,-96.76 2633,-95.19 2621.81,-93.56"/>
<polygon fill="midnightblue" stroke="midnightblue" points="2622.09,-90.06 2611.68,-92.04 2621.05,-96.98 2622.09,-90.06"/>
</g>
<!-- Node12&#45;&gt;Node27 -->
<g id="edge32" class="edge">
<title>Node12&#45;&gt;Node27</title>
<path fill="none" stroke="midnightblue" d="M3138.83,-135.43C3136.02,-134.93 3133.23,-134.45 3130.5,-134 3016.07,-115.17 2882.34,-99.69 2801.33,-91.03"/>
<polygon fill="midnightblue" stroke="midnightblue" points="2801.55,-87.53 2791.23,-89.96 2800.81,-94.5 2801.55,-87.53"/>
</g>
<!-- Node13&#45;&gt;Node5 -->
<g id="edge16" class="edge">
<title>Node13&#45;&gt;Node5</title>
<path fill="none" stroke="midnightblue" d="M3713.92,-78.47C3439.63,-67.04 2471.48,-26.67 2266.01,-18.11"/>
<polygon fill="midnightblue" stroke="midnightblue" points="2265.86,-14.6 2255.72,-17.68 2265.56,-21.59 2265.86,-14.6"/>
</g>
<!-- Node13&#45;&gt;Node14 -->
<g id="edge14" class="edge">
<title>Node13&#45;&gt;Node14</title>
<path fill="none" stroke="midnightblue" d="M3797.35,-67.4C3803.84,-58.96 3812.22,-48.07 3819.56,-38.52"/>
<polygon fill="midnightblue" stroke="midnightblue" points="3822.35,-40.64 3825.67,-30.58 3816.8,-36.37 3822.35,-40.64"/>
</g>
<!-- Node13&#45;&gt;Node15 -->
<g id="edge15" class="edge">
<title>Node13&#45;&gt;Node15</title>
<path fill="none" stroke="midnightblue" d="M3859.19,-73C3967.72,-60.31 4170.59,-36.6 4275.64,-24.32"/>
<polygon fill="midnightblue" stroke="midnightblue" points="4276.27,-27.77 4285.8,-23.13 4275.46,-20.81 4276.27,-27.77"/>
</g>
<!-- Node16&#45;&gt;Node5 -->
<g id="edge22" class="edge">
<title>Node16&#45;&gt;Node5</title>
<path fill="none" stroke="midnightblue" d="M3075.91,-72.89C3058.93,-70.75 3040.53,-68.61 3023.5,-67 2732.74,-39.47 2380.77,-23.03 2265.81,-18.09"/>
<polygon fill="midnightblue" stroke="midnightblue" points="2265.89,-14.59 2255.75,-17.66 2265.59,-21.58 2265.89,-14.59"/>
</g>
<!-- Node16&#45;&gt;Node11 -->
<g id="edge18" class="edge">
<title>Node16&#45;&gt;Node11</title>
<path fill="none" stroke="midnightblue" d="M3132.42,-67.4C3128.27,-57.76 3122.74,-44.91 3118.27,-34.54"/>
<polygon fill="midnightblue" stroke="midnightblue" points="3121.42,-32.99 3114.25,-25.19 3114.99,-35.76 3121.42,-32.99"/>
</g>
<!-- Node16&#45;&gt;Node14 -->
<g id="edge20" class="edge">
<title>Node16&#45;&gt;Node14</title>
<path fill="none" stroke="midnightblue" d="M3201.03,-69.16C3205.91,-68.37 3210.78,-67.63 3215.5,-67 3414.52,-40.24 3651.47,-25.74 3766.67,-19.78"/>
<polygon fill="midnightblue" stroke="midnightblue" points="3766.95,-23.27 3776.76,-19.27 3766.6,-16.28 3766.95,-23.27"/>
</g>
<!-- Node17 -->
<g id="node17" class="node">
<title>Node17</title>
<g id="a_node17"><a xlink:title=" ">
<polygon fill="none" stroke="#bfbfbf" points="3323.5,-6 3323.5,-25 3439.5,-25 3439.5,-6 3323.5,-6"/>
<text text-anchor="middle" x="3381.5" y="-13" font-family="Helvetica,sans-Serif" font-size="10.00">seerep&#45;msgs/aabb.h</text>
</a>
</g>
</g>
<!-- Node16&#45;&gt;Node17 -->
<g id="edge19" class="edge">
<title>Node16&#45;&gt;Node17</title>
<path fill="none" stroke="midnightblue" d="M3190.93,-67.48C3235.53,-55.55 3298.72,-38.64 3339.9,-27.63"/>
<polygon fill="midnightblue" stroke="midnightblue" points="3340.86,-30.99 3349.62,-25.03 3339.05,-24.23 3340.86,-30.99"/>
</g>
<!-- Node16&#45;&gt;Node18 -->
<g id="edge21" class="edge">
<title>Node16&#45;&gt;Node18</title>
<path fill="none" stroke="midnightblue" d="M3098.14,-67.4C3064.78,-55.74 3017.95,-39.37 2986.48,-28.38"/>
<polygon fill="midnightblue" stroke="midnightblue" points="2987.44,-25 2976.84,-25.01 2985.13,-31.61 2987.44,-25"/>
</g>
<!-- Node16&#45;&gt;Node21 -->
<g id="edge23" class="edge">
<title>Node16&#45;&gt;Node21</title>
<path fill="none" stroke="midnightblue" d="M3075.91,-78.39C3008.07,-75.12 2896.63,-70.04 2800.5,-67 1858.26,-37.21 714.31,-21.47 400.5,-17.51"/>
<polygon fill="midnightblue" stroke="midnightblue" points="400.18,-14.01 390.13,-17.38 400.09,-21 400.18,-14.01"/>
</g>
<!-- Node16&#45;&gt;Node22 -->
<g id="edge24" class="edge">
<title>Node16&#45;&gt;Node22</title>
<path fill="none" stroke="midnightblue" d="M3201.29,-78.33C3262.94,-75.26 3359.69,-70.56 3443.5,-67 3872.3,-48.81 3981.07,-69.85 4408.5,-31 4421.04,-29.86 4434.42,-28.22 4447.17,-26.45"/>
<polygon fill="midnightblue" stroke="midnightblue" points="4447.83,-29.89 4457.24,-25.01 4446.84,-22.96 4447.83,-29.89"/>
</g>
<!-- Node28&#45;&gt;Node5 -->
<g id="edge41" class="edge">
<title>Node28&#45;&gt;Node5</title>
<path fill="none" stroke="midnightblue" d="M818.66,-136.79C823.34,-135.84 828,-134.91 832.5,-134 912.05,-117.99 937.13,-130.46 1011.5,-98 1033.09,-88.58 1032.24,-74.72 1054.5,-67 1163.65,-29.14 1999.45,-18.73 2189.24,-16.85"/>
<polygon fill="midnightblue" stroke="midnightblue" points="2189.34,-20.34 2199.31,-16.75 2189.27,-13.34 2189.34,-20.34"/>
</g>
<!-- Node28&#45;&gt;Node11 -->
<g id="edge34" class="edge">
<title>Node28&#45;&gt;Node11</title>
<path fill="none" stroke="midnightblue" d="M818.52,-142.47C968.72,-127.11 1382.68,-86.37 1728.5,-67 2301.16,-34.93 2447.37,-83.76 3018.5,-31 3029.96,-29.94 3042.15,-28.35 3053.79,-26.61"/>
<polygon fill="midnightblue" stroke="midnightblue" points="3054.5,-30.04 3063.84,-25.04 3053.42,-23.12 3054.5,-30.04"/>
</g>
<!-- Node28&#45;&gt;Node16 -->
<g id="edge35" class="edge">
<title>Node28&#45;&gt;Node16</title>
<path fill="none" stroke="midnightblue" d="M818.56,-143.92C862.67,-140.62 924.87,-136.35 979.5,-134 1788.25,-99.25 1991.41,-123.35 2800.5,-98 2891.94,-95.14 2997.23,-90.39 3065.67,-87.11"/>
<polygon fill="midnightblue" stroke="midnightblue" points="3066.09,-90.59 3075.91,-86.62 3065.75,-83.6 3066.09,-90.59"/>
</g>
<!-- Node28&#45;&gt;Node18 -->
<g id="edge39" class="edge">
<title>Node28&#45;&gt;Node18</title>
<path fill="none" stroke="midnightblue" d="M818.63,-136.62C823.32,-135.72 827.99,-134.83 832.5,-134 927.78,-116.43 958.74,-136.85 1047.5,-98 1068.1,-88.98 1066.32,-74.57 1087.5,-67 1109.1,-59.28 2554.5,-25.64 2885.49,-18.03"/>
<polygon fill="midnightblue" stroke="midnightblue" points="2885.96,-21.52 2895.88,-17.79 2885.8,-14.53 2885.96,-21.52"/>
</g>
<!-- Node28&#45;&gt;Node21 -->
<g id="edge42" class="edge">
<title>Node28&#45;&gt;Node21</title>
<path fill="none" stroke="midnightblue" d="M702.37,-144.36C597.06,-136.42 383,-118.02 355.5,-98 336.84,-84.42 327.06,-59.35 322.13,-40.59"/>
<polygon fill="midnightblue" stroke="midnightblue" points="325.49,-39.6 319.81,-30.66 318.68,-41.2 325.49,-39.6"/>
</g>
<!-- Node28&#45;&gt;Node22 -->
<g id="edge43" class="edge">
<title>Node28&#45;&gt;Node22</title>
<path fill="none" stroke="midnightblue" d="M818.56,-143.86C862.67,-140.53 924.87,-136.25 979.5,-134 1970.35,-93.23 2219.58,-137 3210.5,-98 3430.76,-89.33 3485.43,-79.53 3705.5,-67 4017.85,-49.22 4097.13,-61.48 4408.5,-31 4420.64,-29.81 4433.56,-28.2 4445.95,-26.48"/>
<polygon fill="midnightblue" stroke="midnightblue" points="4446.79,-29.9 4456.19,-25.02 4445.8,-22.97 4446.79,-29.9"/>
</g>
<!-- Node29 -->
<g id="node26" class="node">
<title>Node29</title>
<g id="a_node26"><a xlink:title=" ">
<polygon fill="none" stroke="#bfbfbf" points="680.5,-67.5 680.5,-97.5 838.5,-97.5 838.5,-67.5 680.5,-67.5"/>
<text text-anchor="start" x="688.5" y="-85.5" font-family="Helvetica,sans-Serif" font-size="10.00">seerep&#45;msgs/boundingbox2d</text>
<text text-anchor="middle" x="759.5" y="-74.5" font-family="Helvetica,sans-Serif" font-size="10.00">_labeled.pb.h</text>
</a>
</g>
</g>
<!-- Node28&#45;&gt;Node29 -->
<g id="edge36" class="edge">
<title>Node28&#45;&gt;Node29</title>
<path fill="none" stroke="midnightblue" d="M760.28,-134.4C760.16,-126.64 760.01,-116.81 759.87,-107.86"/>
<polygon fill="midnightblue" stroke="midnightblue" points="763.37,-107.52 759.72,-97.58 756.37,-107.63 763.37,-107.52"/>
</g>
<!-- Node30 -->
<g id="node27" class="node">
<title>Node30</title>
<g id="a_node27"><a xlink:title=" ">
<polygon fill="none" stroke="#bfbfbf" points="856.5,-67.5 856.5,-97.5 1002.5,-97.5 1002.5,-67.5 856.5,-67.5"/>
<text text-anchor="start" x="864.5" y="-85.5" font-family="Helvetica,sans-Serif" font-size="10.00">seerep&#45;msgs/boundingbox</text>
<text text-anchor="middle" x="929.5" y="-74.5" font-family="Helvetica,sans-Serif" font-size="10.00">_labeled.pb.h</text>
</a>
</g>
</g>
<!-- Node28&#45;&gt;Node30 -->
<g id="edge37" class="edge">
<title>Node28&#45;&gt;Node30</title>
<path fill="none" stroke="midnightblue" d="M797.17,-134.4C822.42,-124.69 856.16,-111.71 883.25,-101.29"/>
<polygon fill="midnightblue" stroke="midnightblue" points="884.82,-104.43 892.9,-97.58 882.31,-97.9 884.82,-104.43"/>
</g>
<!-- Node31 -->
<g id="node28" class="node">
<title>Node31</title>
<g id="a_node28"><a xlink:title=" ">
<polygon fill="none" stroke="#bfbfbf" points="364.5,-73 364.5,-92 504.5,-92 504.5,-73 364.5,-73"/>
<text text-anchor="middle" x="434.5" y="-80" font-family="Helvetica,sans-Serif" font-size="10.00">seerep&#45;msgs/header.pb.h</text>
</a>
</g>
</g>
<!-- Node28&#45;&gt;Node31 -->
<g id="edge38" class="edge">
<title>Node28&#45;&gt;Node31</title>
<path fill="none" stroke="midnightblue" d="M702.22,-136.88C641.1,-124.69 545.93,-105.72 487.06,-93.98"/>
<polygon fill="midnightblue" stroke="midnightblue" points="487.71,-90.54 477.22,-92.02 486.34,-97.4 487.71,-90.54"/>
</g>
<!-- Node32 -->
<g id="node29" class="node">
<title>Node32</title>
<g id="a_node29"><a xlink:title=" ">
<polygon fill="none" stroke="#bfbfbf" points="1096.5,-73 1096.5,-92 1164.5,-92 1164.5,-73 1096.5,-73"/>
<text text-anchor="middle" x="1130.5" y="-80" font-family="Helvetica,sans-Serif" font-size="10.00">filesystem</text>
</a>
</g>
</g>
<!-- Node28&#45;&gt;Node32 -->
<g id="edge40" class="edge">
<title>Node28&#45;&gt;Node32</title>
<path fill="none" stroke="midnightblue" d="M818.61,-136.51C823.3,-135.63 827.98,-134.78 832.5,-134 943.12,-114.91 972.9,-122.3 1082.5,-98 1086.61,-97.09 1090.88,-96 1095.11,-94.84"/>
<polygon fill="midnightblue" stroke="midnightblue" points="1096.15,-98.19 1104.78,-92.05 1094.2,-91.46 1096.15,-98.19"/>
</g>
<!-- Node33 -->
<g id="node30" class="node">
<title>Node33</title>
<g id="a_node30"><a xlink:title=" ">
<polygon fill="none" stroke="#bfbfbf" points="522.5,-73 522.5,-92 662.5,-92 662.5,-73 522.5,-73"/>
<text text-anchor="middle" x="592.5" y="-80" font-family="Helvetica,sans-Serif" font-size="10.00">impl/hdf5&#45;pb&#45;general.hpp</text>
</a>
</g>
</g>
<!-- Node28&#45;&gt;Node33 -->
<g id="edge44" class="edge">
<title>Node28&#45;&gt;Node33</title>
<path fill="none" stroke="midnightblue" d="M724.05,-134.4C694.18,-122.84 652.35,-106.66 623.94,-95.66"/>
<polygon fill="midnightblue" stroke="midnightblue" points="625.08,-92.35 614.49,-92.01 622.55,-98.88 625.08,-92.35"/>
</g>
<!-- Node34&#45;&gt;Node4 -->
<g id="edge55" class="edge">
<title>Node34&#45;&gt;Node4</title>
<path fill="none" stroke="midnightblue" d="M2552.06,-466.02C2699.94,-462.95 3111.68,-451.9 3243.5,-422 3389.09,-388.98 3471.41,-413.98 3551.5,-288 3575.1,-250.88 3558.69,-196.31 3547.51,-168.39"/>
<polygon fill="midnightblue" stroke="midnightblue" points="3550.69,-166.93 3543.58,-159.08 3544.25,-169.66 3550.69,-166.93"/>
</g>
<!-- Node34&#45;&gt;Node5 -->
<g id="edge56" class="edge">
<title>Node34&#45;&gt;Node5</title>
<path fill="none" stroke="midnightblue" d="M2444.84,-465.8C2354.82,-462.95 2168.05,-453.44 2013.5,-422 1734.42,-365.23 1518.79,-434.43 1426.5,-165 1410.78,-119.12 1432.13,-90.59 1474.5,-67 1537.25,-32.06 2044.9,-19.93 2189.31,-17.16"/>
<polygon fill="midnightblue" stroke="midnightblue" points="2189.52,-20.66 2199.45,-16.97 2189.39,-13.66 2189.52,-20.66"/>
</g>
<!-- Node34&#45;&gt;Node8 -->
<g id="edge59" class="edge">
<title>Node34&#45;&gt;Node8</title>
<path fill="none" stroke="midnightblue" d="M2444.9,-460.89C2391.47,-454.08 2307.39,-441.41 2236.5,-422 1961.99,-346.85 1646.03,-206.27 1552.15,-163.3"/>
<polygon fill="midnightblue" stroke="midnightblue" points="1553.58,-160.1 1543.03,-159.11 1550.66,-166.47 1553.58,-160.1"/>
</g>
<!-- Node34&#45;&gt;Node9 -->
<g id="edge61" class="edge">
<title>Node34&#45;&gt;Node9</title>
<path fill="none" stroke="midnightblue" d="M2494.9,-458.22C2491.44,-449.28 2486.47,-434.94 2484.5,-422 2477.96,-378.94 2477.95,-367.06 2484.5,-324 2493.36,-265.69 2518.08,-200.01 2530.77,-168.83"/>
<polygon fill="midnightblue" stroke="midnightblue" points="2534.12,-169.88 2534.71,-159.31 2527.65,-167.21 2534.12,-169.88"/>
</g>
<!-- Node34&#45;&gt;Node14 -->
<g id="edge57" class="edge">
<title>Node34&#45;&gt;Node14</title>
<path fill="none" stroke="midnightblue" d="M2552.15,-466.98C2894.61,-466.74 4761.79,-463.51 4802.5,-422 4830.35,-393.6 4992.18,-369.31 4777.5,-134 4718.81,-69.67 4114.51,-31.42 3906.44,-20.08"/>
<polygon fill="midnightblue" stroke="midnightblue" points="3906.42,-16.57 3896.24,-19.53 3906.04,-23.56 3906.42,-16.57"/>
</g>
<!-- Node34&#45;&gt;Node15 -->
<g id="edge51" class="edge">
<title>Node34&#45;&gt;Node15</title>
<path fill="none" stroke="midnightblue" d="M2552.24,-467.45C2756.12,-468.74 3501.16,-469.71 4112.5,-422 4345.25,-403.84 4479.3,-530.3 4633.5,-355 4719.51,-257.22 5069.43,-591.46 4444.5,-67 4424.51,-50.22 4397.99,-37.31 4377.01,-28.75"/>
<polygon fill="midnightblue" stroke="midnightblue" points="4378.09,-25.41 4367.5,-25.01 4375.53,-31.93 4378.09,-25.41"/>
</g>
<!-- Node34&#45;&gt;Node21 -->
<g id="edge163" class="edge">
<title>Node34&#45;&gt;Node21</title>
<path fill="none" stroke="midnightblue" d="M2444.95,-467.54C2299.01,-468.35 1882.3,-466.29 1539.5,-422 1137.93,-370.12 1043.09,-322.82 648.5,-232 527.59,-204.17 485.32,-226.39 377.5,-165 341.18,-144.32 327.35,-136.68 311.5,-98 304.04,-79.8 306.42,-57.41 310.17,-40.71"/>
<polygon fill="midnightblue" stroke="midnightblue" points="313.65,-41.21 312.74,-30.65 306.87,-39.47 313.65,-41.21"/>
</g>
<!-- Node34&#45;&gt;Node22 -->
<g id="edge164" class="edge">
<title>Node34&#45;&gt;Node22</title>
<path fill="none" stroke="midnightblue" d="M2552.26,-466.68C2891.53,-464.58 4725.33,-451.85 4839.5,-422 4913.66,-402.61 4991.5,-417.15 4991.5,-340.5 4991.5,-340.5 4991.5,-340.5 4991.5,-148.5 4991.5,-63.35 4708.67,-31.22 4575.87,-20.83"/>
<polygon fill="midnightblue" stroke="midnightblue" points="4576.04,-17.33 4565.8,-20.06 4575.51,-24.31 4576.04,-17.33"/>
</g>
<!-- Node34&#45;&gt;Node24 -->
<g id="edge49" class="edge">
<title>Node34&#45;&gt;Node24</title>
<path fill="none" stroke="midnightblue" d="M2552.17,-466.84C2824.94,-465.06 4056.29,-445.18 4358.5,-232 4396.81,-204.98 4427.73,-169.83 4397.5,-134 4390.27,-125.43 4259.13,-105.58 4173.85,-93.47"/>
<polygon fill="midnightblue" stroke="midnightblue" points="4174.08,-89.97 4163.69,-92.04 4173.1,-96.9 4174.08,-89.97"/>
</g>
<!-- Node34&#45;&gt;Node25 -->
<g id="edge50" class="edge">
<title>Node34&#45;&gt;Node25</title>
<path fill="none" stroke="midnightblue" d="M2552.01,-467C2718.7,-466.56 3243.31,-461.87 3675.5,-422 3893.34,-401.9 4649.5,-497.76 4649.5,-279 4649.5,-279 4649.5,-279 4649.5,-215.5 4649.5,-177.74 4653.95,-158.83 4625.5,-134 4623.01,-131.83 4458.29,-107.59 4361.48,-93.5"/>
<polygon fill="midnightblue" stroke="midnightblue" points="4361.87,-90.01 4351.47,-92.04 4360.86,-96.94 4361.87,-90.01"/>
</g>
<!-- Node34&#45;&gt;Node26 -->
<g id="edge52" class="edge">
<title>Node34&#45;&gt;Node26</title>
<path fill="none" stroke="midnightblue" d="M2492.93,-458.46C2487.56,-449.72 2479.79,-435.52 2476.5,-422 2446.19,-297.61 2405.81,-244.48 2470.5,-134 2481.22,-115.7 2501.26,-103.53 2519.72,-95.73"/>
<polygon fill="midnightblue" stroke="midnightblue" points="2521.13,-98.93 2529.17,-92.04 2518.58,-92.41 2521.13,-98.93"/>
</g>
<!-- Node34&#45;&gt;Node27 -->
<g id="edge53" class="edge">
<title>Node34&#45;&gt;Node27</title>
<path fill="none" stroke="midnightblue" d="M2503.71,-458.27C2532.97,-409.28 2676.86,-168.31 2717.05,-100.99"/>
<polygon fill="midnightblue" stroke="midnightblue" points="2720.27,-102.43 2722.39,-92.05 2714.26,-98.84 2720.27,-102.43"/>
</g>
<!-- Node34&#45;&gt;Node32 -->
<g id="edge54" class="edge">
<title>Node34&#45;&gt;Node32</title>
<path fill="none" stroke="midnightblue" d="M2444.86,-465.87C2284.89,-462.23 1812.84,-449.39 1661.5,-422 1518.48,-396.12 1490.27,-360.2 1349.5,-324 1324.47,-317.56 909.87,-252 893.5,-232 881.74,-217.63 880.7,-154.07 898.5,-134 953.5,-71.98 1001,-117.78 1081.5,-98 1085.41,-97.04 1089.47,-95.96 1093.52,-94.84"/>
<polygon fill="midnightblue" stroke="midnightblue" points="1094.76,-98.13 1103.41,-92.01 1092.83,-91.4 1094.76,-98.13"/>
</g>
<!-- Node35 -->
<g id="node32" class="node">
<title>Node35</title>
<g id="a_node32"><a xlink:title=" ">
<polygon fill="none" stroke="#bfbfbf" points="4677.5,-391.5 4677.5,-421.5 4793.5,-421.5 4793.5,-391.5 4677.5,-391.5"/>
<text text-anchor="start" x="4685.5" y="-409.5" font-family="Helvetica,sans-Serif" font-size="10.00">seerep&#45;msgs/project</text>
<text text-anchor="middle" x="4735.5" y="-398.5" font-family="Helvetica,sans-Serif" font-size="10.00">&#45;info.h</text>
</a>
</g>
</g>
<!-- Node34&#45;&gt;Node35 -->
<g id="edge58" class="edge">
<title>Node34&#45;&gt;Node35</title>
<path fill="none" stroke="midnightblue" d="M2552.34,-467.18C2843.89,-467.96 4236.1,-469.1 4663.5,-422 4664.78,-421.86 4666.08,-421.71 4667.38,-421.54"/>
<polygon fill="midnightblue" stroke="midnightblue" points="4668.07,-424.98 4677.48,-420.11 4667.09,-418.05 4668.07,-424.98"/>
</g>
<!-- Node36 -->
<g id="node33" class="node">
<title>Node36</title>
<g id="a_node33"><a xlink:title=" ">
<polygon fill="none" stroke="#bfbfbf" points="3358.5,-140 3358.5,-159 3488.5,-159 3488.5,-140 3358.5,-140"/>
<text text-anchor="middle" x="3423.5" y="-147" font-family="Helvetica,sans-Serif" font-size="10.00">seerep&#45;msgs/query&#45;tf.h</text>
</a>
</g>
</g>
<!-- Node34&#45;&gt;Node36 -->
<g id="edge60" class="edge">
<title>Node34&#45;&gt;Node36</title>
<path fill="none" stroke="midnightblue" d="M2552.04,-465.14C2745.58,-457.73 3397.5,-426.4 3397.5,-340.5 3397.5,-340.5 3397.5,-340.5 3397.5,-277 3397.5,-237.92 3409.55,-193.41 3417.25,-168.99"/>
<polygon fill="midnightblue" stroke="midnightblue" points="3420.64,-169.86 3420.42,-159.27 3413.99,-167.69 3420.64,-169.86"/>
</g>
<!-- Node37 -->
<g id="node34" class="node">
<title>Node37</title>
<g id="a_node34"><a xlink:title=" ">
<polygon fill="none" stroke="#bfbfbf" points="1999.5,-73 1999.5,-92 2199.5,-92 2199.5,-73 1999.5,-73"/>
<text text-anchor="middle" x="2099.5" y="-80" font-family="Helvetica,sans-Serif" font-size="10.00">geometry_msgs/TransformStamped.h</text>
</a>
</g>
</g>
<!-- Node34&#45;&gt;Node37 -->
<g id="edge62" class="edge">
<title>Node34&#45;&gt;Node37</title>
<path fill="none" stroke="midnightblue" d="M2444.82,-464.08C2372.91,-459.33 2241.7,-447.74 2132.5,-422 1950.15,-379.01 1477.24,-219.57 1439.5,-165 1431.66,-153.67 1430.14,-144.11 1439.5,-134 1457.87,-114.17 1805.9,-96.2 1988.98,-88.08"/>
<polygon fill="midnightblue" stroke="midnightblue" points="1989.35,-91.57 1999.19,-87.63 1989.04,-84.57 1989.35,-91.57"/>
</g>
<!-- Node38 -->
<g id="node35" class="node">
<title>Node38</title>
<g id="a_node35"><a xlink:href="core-project_8h.html" target="_top" xlink:title=" ">
<polygon fill="none" stroke="black" points="2869.5,-397 2869.5,-416 2953.5,-416 2953.5,-397 2869.5,-397"/>
<text text-anchor="middle" x="2911.5" y="-404" font-family="Helvetica,sans-Serif" font-size="10.00">core&#45;project.h</text>
</a>
</g>
</g>
<!-- Node34&#45;&gt;Node38 -->
<g id="edge63" class="edge">
<title>Node34&#45;&gt;Node38</title>
<path fill="none" stroke="midnightblue" d="M2552.07,-459.28C2631.65,-447.82 2780.18,-426.42 2859.09,-415.05"/>
<polygon fill="midnightblue" stroke="midnightblue" points="2859.88,-418.47 2869.28,-413.58 2858.89,-411.54 2859.88,-418.47"/>
</g>
<!-- Node38&#45;&gt;Node4 -->
<g id="edge67" class="edge">
<title>Node38&#45;&gt;Node4</title>
<path fill="none" stroke="midnightblue" d="M2916.18,-396.84C2925.04,-381.01 2945.54,-346.93 2969.5,-324 3042.18,-254.45 3064.67,-234.58 3159.5,-201 3301.91,-150.57 3350.05,-197.86 3497.5,-165 3500.92,-164.24 3504.44,-163.29 3507.93,-162.25"/>
<polygon fill="midnightblue" stroke="midnightblue" points="3509.11,-165.55 3517.54,-159.13 3506.95,-158.89 3509.11,-165.55"/>
</g>
<!-- Node38&#45;&gt;Node5 -->
<g id="edge68" class="edge">
<title>Node38&#45;&gt;Node5</title>
<path fill="none" stroke="midnightblue" d="M2869.24,-405.69C2648.03,-405.72 1626.56,-393.36 1439.5,-165 1340.62,-44.28 2019.21,-21.11 2189.42,-17.22"/>
<polygon fill="midnightblue" stroke="midnightblue" points="2189.51,-20.72 2199.43,-17 2189.36,-13.72 2189.51,-20.72"/>
</g>
<!-- Node38&#45;&gt;Node9 -->
<g id="edge72" class="edge">
<title>Node38&#45;&gt;Node9</title>
<path fill="none" stroke="midnightblue" d="M2869.43,-404.14C2793.57,-400.82 2638.03,-389.86 2598.5,-355 2543.32,-306.34 2537.66,-209.9 2537.89,-169.26"/>
<polygon fill="midnightblue" stroke="midnightblue" points="2541.39,-169.22 2538.07,-159.15 2534.39,-169.09 2541.39,-169.22"/>
</g>
<!-- Node38&#45;&gt;Node12 -->
<g id="edge73" class="edge">
<title>Node38&#45;&gt;Node12</title>
<path fill="none" stroke="midnightblue" d="M2911.1,-396.86C2910.1,-364.24 2911.51,-247.97 2978.5,-201 2984.84,-196.55 3066.41,-178.74 3129.08,-165.53"/>
<polygon fill="midnightblue" stroke="midnightblue" points="3129.9,-168.93 3138.96,-163.45 3128.45,-162.08 3129.9,-168.93"/>
</g>
<!-- Node38&#45;&gt;Node14 -->
<g id="edge69" class="edge">
<title>Node38&#45;&gt;Node14</title>
<path fill="none" stroke="midnightblue" d="M2953.78,-405.93C3089.3,-406.74 3524.76,-405 3880.5,-355 4120.82,-321.22 4237.9,-400.55 4412.5,-232 4465.48,-180.86 4458.21,-108.67 4397.5,-67 4357.85,-39.79 4047.92,-24.58 3906.47,-18.99"/>
<polygon fill="midnightblue" stroke="midnightblue" points="3906.3,-15.48 3896.18,-18.59 3906.03,-22.48 3906.3,-15.48"/>
</g>
<!-- Node38&#45;&gt;Node15 -->
<g id="edge64" class="edge">
<title>Node38&#45;&gt;Node15</title>
<path fill="none" stroke="midnightblue" d="M2953.76,-405.79C3089.22,-406.2 3524.54,-403.38 3880.5,-355 4130.85,-320.97 4263.2,-416.79 4435.5,-232 4485.72,-178.14 4466.61,-124.41 4420.5,-67 4407.58,-50.91 4388.1,-38.3 4371.84,-29.7"/>
<polygon fill="midnightblue" stroke="midnightblue" points="4373.22,-26.47 4362.71,-25.1 4370.07,-32.72 4373.22,-26.47"/>
</g>
<!-- Node38&#45;&gt;Node21 -->
<g id="edge161" class="edge">
<title>Node38&#45;&gt;Node21</title>
<path fill="none" stroke="midnightblue" d="M2869.43,-404.84C2723.6,-402.27 2226.35,-391.23 1817.5,-355 1399.56,-317.96 1293.98,-308.85 881.5,-232 757.19,-208.84 413.16,-191.92 328.5,-98 314.66,-82.65 312.96,-58.59 314.09,-40.59"/>
<polygon fill="midnightblue" stroke="midnightblue" points="317.58,-40.84 315.04,-30.55 310.61,-40.17 317.58,-40.84"/>
</g>
<!-- Node38&#45;&gt;Node22 -->
<g id="edge162" class="edge">
<title>Node38&#45;&gt;Node22</title>
<path fill="none" stroke="midnightblue" d="M2953.62,-404.66C3136.64,-400.85 3863.8,-384.14 4090.5,-355 4230.31,-337.03 4275.87,-353.85 4400.5,-288 4432.47,-271.11 4441.22,-263.19 4459.5,-232 4497.63,-166.92 4506.09,-74.71 4507.97,-35.41"/>
<polygon fill="midnightblue" stroke="midnightblue" points="4511.47,-35.53 4508.35,-25.4 4504.47,-35.26 4511.47,-35.53"/>
</g>
<!-- Node38&#45;&gt;Node26 -->
<g id="edge65" class="edge">
<title>Node38&#45;&gt;Node26</title>
<path fill="none" stroke="midnightblue" d="M2869.36,-403.93C2827.68,-400.33 2764.12,-389.14 2721.5,-355 2635.08,-285.77 2669.87,-224.8 2606.5,-134 2597.8,-121.54 2586.29,-108.9 2576.96,-99.39"/>
<polygon fill="midnightblue" stroke="midnightblue" points="2579.3,-96.78 2569.74,-92.2 2574.36,-101.74 2579.3,-96.78"/>
</g>
<!-- Node38&#45;&gt;Node27 -->
<g id="edge66" class="edge">
<title>Node38&#45;&gt;Node27</title>
<path fill="none" stroke="midnightblue" d="M2893.33,-396.98C2876.67,-388.39 2852.27,-373.74 2836.5,-355 2769.42,-275.3 2739.86,-149.05 2730.76,-101.99"/>
<polygon fill="midnightblue" stroke="midnightblue" points="2734.18,-101.22 2728.92,-92.03 2727.3,-102.5 2734.18,-101.22"/>
</g>
<!-- Node38&#45;&gt;Node36 -->
<g id="edge71" class="edge">
<title>Node38&#45;&gt;Node36</title>
<path fill="none" stroke="midnightblue" d="M2953.55,-402.37C3029.59,-396.14 3186.55,-380.57 3234.5,-355 3245.74,-349 3366.67,-214.17 3408.98,-166.79"/>
<polygon fill="midnightblue" stroke="midnightblue" points="3411.66,-169.04 3415.71,-159.24 3406.44,-164.37 3411.66,-169.04"/>
</g>
<!-- Node39 -->
<g id="node36" class="node">
<title>Node39</title>
<g id="a_node36"><a xlink:title=" ">
<polygon fill="none" stroke="#bfbfbf" points="3083.5,-324.5 3083.5,-354.5 3225.5,-354.5 3225.5,-324.5 3083.5,-324.5"/>
<text text-anchor="start" x="3091.5" y="-342.5" font-family="Helvetica,sans-Serif" font-size="10.00">seerep&#45;msgs/query&#45;result</text>
<text text-anchor="middle" x="3154.5" y="-331.5" font-family="Helvetica,sans-Serif" font-size="10.00">&#45;project.h</text>
</a>
</g>
</g>
<!-- Node38&#45;&gt;Node39 -->
<g id="edge70" class="edge">
<title>Node38&#45;&gt;Node39</title>
<path fill="none" stroke="midnightblue" d="M2943.52,-396.94C2981.18,-386.86 3044.57,-369.9 3092.06,-357.2"/>
<polygon fill="midnightblue" stroke="midnightblue" points="3093.18,-360.52 3101.94,-354.56 3091.38,-353.76 3093.18,-360.52"/>
</g>
<!-- Node40 -->
<g id="node37" class="node">
<title>Node40</title>
<g id="a_node37"><a xlink:href="hdf5-core-instance_8h.html" target="_top" xlink:title=" ">
<polygon fill="none" stroke="black" points="2996,-134.5 2996,-164.5 3121,-164.5 3121,-134.5 2996,-134.5"/>
<text text-anchor="start" x="3004" y="-152.5" font-family="Helvetica,sans-Serif" font-size="10.00">seerep&#45;hdf5&#45;core/hdf5</text>
<text text-anchor="middle" x="3058.5" y="-141.5" font-family="Helvetica,sans-Serif" font-size="10.00">&#45;core&#45;instance.h</text>
</a>
</g>
</g>
<!-- Node38&#45;&gt;Node40 -->
<g id="edge74" class="edge">
<title>Node38&#45;&gt;Node40</title>
<path fill="none" stroke="midnightblue" d="M2899.35,-396.85C2887.46,-387.75 2869.7,-372.36 2859.5,-355 2824.05,-294.64 2782.58,-255.51 2826.5,-201 2846.27,-176.46 2925.19,-163.22 2985.55,-156.53"/>
<polygon fill="midnightblue" stroke="midnightblue" points="2986.25,-159.98 2995.82,-155.44 2985.51,-153.02 2986.25,-159.98"/>
</g>
<!-- Node41 -->
<g id="node38" class="node">
<title>Node41</title>
<g id="a_node38"><a xlink:href="hdf5-core-point-cloud_8h.html" target="_top" xlink:title=" ">
<polygon fill="none" stroke="black" points="3629,-134.5 3629,-164.5 3754,-164.5 3754,-134.5 3629,-134.5"/>
<text text-anchor="start" x="3637" y="-152.5" font-family="Helvetica,sans-Serif" font-size="10.00">seerep&#45;hdf5&#45;core/hdf5</text>
<text text-anchor="middle" x="3691.5" y="-141.5" font-family="Helvetica,sans-Serif" font-size="10.00">&#45;core&#45;point&#45;cloud.h</text>
</a>
</g>
</g>
<!-- Node38&#45;&gt;Node41 -->
<g id="edge85" class="edge">
<title>Node38&#45;&gt;Node41</title>
<path fill="none" stroke="midnightblue" d="M2953.51,-405.89C3138.88,-406.65 3880.62,-399.07 4020.5,-232 4135.61,-94.52 4373.47,-267.61 3764.23,-165.06"/>
<polygon fill="midnightblue" stroke="midnightblue" points="3764.73,-161.59 3754.29,-163.37 3763.56,-168.5 3764.73,-161.59"/>
</g>
<!-- Node42 -->
<g id="node39" class="node">
<title>Node42</title>
<g id="a_node39"><a xlink:href="hdf5-core-point_8h.html" target="_top" xlink:title=" ">
<polygon fill="none" stroke="black" points="3772,-134.5 3772,-164.5 3897,-164.5 3897,-134.5 3772,-134.5"/>
<text text-anchor="start" x="3780" y="-152.5" font-family="Helvetica,sans-Serif" font-size="10.00">seerep&#45;hdf5&#45;core/hdf5</text>
<text text-anchor="middle" x="3834.5" y="-141.5" font-family="Helvetica,sans-Serif" font-size="10.00">&#45;core&#45;point.h</text>
</a>
</g>
</g>
<!-- Node38&#45;&gt;Node42 -->
<g id="edge97" class="edge">
<title>Node38&#45;&gt;Node42</title>
<path fill="none" stroke="midnightblue" d="M2953.5,-404.63C3104.84,-401.25 3621.73,-387.53 3783.5,-355 3911.59,-329.24 3991.21,-348.43 4050.5,-232 4080.64,-172.82 3981.26,-156.1 3907.41,-151.68"/>
<polygon fill="midnightblue" stroke="midnightblue" points="3907.34,-148.17 3897.17,-151.13 3906.97,-155.16 3907.34,-148.17"/>
</g>
<!-- Node43 -->
<g id="node40" class="node">
<title>Node43</title>
<g id="a_node40"><a xlink:href="hdf5-core-tf_8h.html" target="_top" xlink:title=" ">
<polygon fill="none" stroke="black" points="2146,-134.5 2146,-164.5 2271,-164.5 2271,-134.5 2146,-134.5"/>
<text text-anchor="start" x="2154" y="-152.5" font-family="Helvetica,sans-Serif" font-size="10.00">seerep&#45;hdf5&#45;core/hdf5</text>
<text text-anchor="middle" x="2208.5" y="-141.5" font-family="Helvetica,sans-Serif" font-size="10.00">&#45;core&#45;tf.h</text>
</a>
</g>
</g>
<!-- Node38&#45;&gt;Node43 -->
<g id="edge109" class="edge">
<title>Node38&#45;&gt;Node43</title>
<path fill="none" stroke="midnightblue" d="M2869.37,-402.05C2804.28,-396.09 2675.69,-381.87 2569.5,-355 2414.52,-315.79 2340.28,-349.14 2231.5,-232 2217.1,-216.49 2211.62,-192.66 2209.59,-174.76"/>
<polygon fill="midnightblue" stroke="midnightblue" points="2213.07,-174.43 2208.73,-164.77 2206.1,-175.03 2213.07,-174.43"/>
</g>
<!-- Node44 -->
<g id="node41" class="node">
<title>Node44</title>
<g id="a_node41"><a xlink:href="core-dataset_8h.html" target="_top" xlink:title=" ">
<polygon fill="none" stroke="black" points="2978,-330 2978,-349 3065,-349 3065,-330 2978,-330"/>
<text text-anchor="middle" x="3021.5" y="-337" font-family="Helvetica,sans-Serif" font-size="10.00">core&#45;dataset.h</text>
</a>
</g>
</g>
<!-- Node38&#45;&gt;Node44 -->
<g id="edge115" class="edge">
<title>Node38&#45;&gt;Node44</title>
<path fill="none" stroke="midnightblue" d="M2926.34,-396.73C2944.81,-385.82 2976.57,-367.05 2998.28,-354.22"/>
<polygon fill="midnightblue" stroke="midnightblue" points="3000.07,-357.23 3006.9,-349.13 2996.51,-351.2 3000.07,-357.23"/>
</g>
<!-- Node47 -->
<g id="node44" class="node">
<title>Node47</title>
<g id="a_node44"><a xlink:href="core-instances_8h.html" target="_top" xlink:title=" ">
<polygon fill="none" stroke="red" points="3445,-268.5 3445,-287.5 3542,-287.5 3542,-268.5 3445,-268.5"/>
<text text-anchor="middle" x="3493.5" y="-275.5" font-family="Helvetica,sans-Serif" font-size="10.00">core&#45;instances.h</text>
</a>
</g>
</g>
<!-- Node38&#45;&gt;Node47 -->
<g id="edge159" class="edge">
<title>Node38&#45;&gt;Node47</title>
<path fill="none" stroke="midnightblue" d="M2953.62,-402.05C3020.72,-395.98 3155.73,-381.48 3267.5,-355 3339.06,-338.04 3420.14,-308.02 3463.07,-291.23"/>
<polygon fill="midnightblue" stroke="midnightblue" points="3464.36,-294.48 3472.38,-287.56 3461.79,-287.97 3464.36,-294.48"/>
</g>
<!-- Node50 -->
<g id="node46" class="node">
<title>Node50</title>
<g id="a_node46"><a xlink:href="core-tf_8h.html" target="_top" xlink:title=" ">
<polygon fill="none" stroke="red" points="2679,-207 2679,-226 2736,-226 2736,-207 2679,-207"/>
<text text-anchor="middle" x="2707.5" y="-214" font-family="Helvetica,sans-Serif" font-size="10.00">core&#45;tf.h</text>
</a>
</g>
</g>
<!-- Node38&#45;&gt;Node50 -->
<g id="edge160" class="edge">
<title>Node38&#45;&gt;Node50</title>
<path fill="none" stroke="midnightblue" d="M2869.23,-403.7C2831.72,-399.82 2777.98,-388.33 2745.5,-355 2713.76,-322.43 2708,-265.84 2707.28,-236.45"/>
<polygon fill="midnightblue" stroke="midnightblue" points="2710.78,-236.27 2707.21,-226.3 2703.78,-236.32 2710.78,-236.27"/>
</g>
<!-- Node40&#45;&gt;Node5 -->
<g id="edge84" class="edge">
<title>Node40&#45;&gt;Node5</title>
<path fill="none" stroke="midnightblue" d="M2995.88,-135.42C2961.28,-127.02 2918.03,-114.56 2881.5,-98 2858.37,-87.51 2857.54,-75.19 2833.5,-67 2727.63,-30.94 2381.87,-19.98 2265.85,-17.27"/>
<polygon fill="midnightblue" stroke="midnightblue" points="2265.75,-13.77 2255.67,-17.04 2265.59,-20.76 2265.75,-13.77"/>
</g>
<!-- Node40&#45;&gt;Node11 -->
<g id="edge75" class="edge">
<title>Node40&#45;&gt;Node11</title>
<path fill="none" stroke="midnightblue" d="M3057.61,-134.31C3057.09,-117.53 3057.96,-89.09 3067.5,-67 3073.21,-53.79 3083.59,-41.44 3092.73,-32.26"/>
<polygon fill="midnightblue" stroke="midnightblue" points="3095.16,-34.78 3099.98,-25.34 3090.32,-29.71 3095.16,-34.78"/>
</g>
<!-- Node40&#45;&gt;Node15 -->
<g id="edge80" class="edge">
<title>Node40&#45;&gt;Node15</title>
<path fill="none" stroke="midnightblue" d="M3121.27,-135.25C3211.08,-116.84 3381.64,-83.87 3528.5,-67 3804.68,-35.28 4136.03,-22.51 4275.47,-18.28"/>
<polygon fill="midnightblue" stroke="midnightblue" points="4275.68,-21.78 4285.58,-17.98 4275.48,-14.78 4275.68,-21.78"/>
</g>
<!-- Node40&#45;&gt;Node16 -->
<g id="edge76" class="edge">
<title>Node40&#45;&gt;Node16</title>
<path fill="none" stroke="midnightblue" d="M3075.86,-134.4C3086.76,-125.54 3101.01,-113.96 3113.16,-104.09"/>
<polygon fill="midnightblue" stroke="midnightblue" points="3115.62,-106.6 3121.18,-97.58 3111.21,-101.17 3115.62,-106.6"/>
</g>
<!-- Node40&#45;&gt;Node18 -->
<g id="edge83" class="edge">
<title>Node40&#45;&gt;Node18</title>
<path fill="none" stroke="midnightblue" d="M3006.39,-134.44C2987.88,-126.75 2968.85,-115.17 2957.5,-98 2945.19,-79.38 2946.13,-52.84 2948.68,-35.17"/>
<polygon fill="midnightblue" stroke="midnightblue" points="2952.14,-35.68 2950.42,-25.23 2945.25,-34.47 2952.14,-35.68"/>
</g>
<!-- Node40&#45;&gt;Node24 -->
<g id="edge78" class="edge">
<title>Node40&#45;&gt;Node24</title>
<path fill="none" stroke="midnightblue" d="M3121.24,-135.29C3124.36,-134.81 3127.46,-134.38 3130.5,-134 3456.38,-93.47 3540.61,-116.2 3868.5,-98 3918.71,-95.21 3974.99,-91.72 4019.66,-88.86"/>
<polygon fill="midnightblue" stroke="midnightblue" points="4020.12,-92.34 4029.87,-88.21 4019.67,-85.35 4020.12,-92.34"/>
</g>
<!-- Node40&#45;&gt;Node25 -->
<g id="edge79" class="edge">
<title>Node40&#45;&gt;Node25</title>
<path fill="none" stroke="midnightblue" d="M3121.23,-135.23C3124.36,-134.77 3127.46,-134.36 3130.5,-134 3595.16,-79.64 3716.27,-136.62 4182.5,-98 4196.56,-96.84 4211.57,-95.15 4225.85,-93.34"/>
<polygon fill="midnightblue" stroke="midnightblue" points="4226.62,-96.77 4236.09,-92 4225.72,-89.83 4226.62,-96.77"/>
</g>
<!-- Node40&#45;&gt;Node26 -->
<g id="edge81" class="edge">
<title>Node40&#45;&gt;Node26</title>
<path fill="none" stroke="midnightblue" d="M2995.95,-141.19C2916.66,-131.8 2775.8,-114.72 2655.5,-98 2645.58,-96.62 2635.1,-95.09 2624.85,-93.56"/>
<polygon fill="midnightblue" stroke="midnightblue" points="2625.13,-90.06 2614.72,-92.03 2624.09,-96.98 2625.13,-90.06"/>
</g>
<!-- Node40&#45;&gt;Node27 -->
<g id="edge82" class="edge">
<title>Node40&#45;&gt;Node27</title>
<path fill="none" stroke="midnightblue" d="M2995.85,-136.2C2933.79,-124.01 2839.77,-105.55 2781.08,-94.02"/>
<polygon fill="midnightblue" stroke="midnightblue" points="2781.39,-90.52 2770.9,-92.02 2780.04,-97.38 2781.39,-90.52"/>
</g>
<!-- Node40&#45;&gt;Node37 -->
<g id="edge77" class="edge">
<title>Node40&#45;&gt;Node37</title>
<path fill="none" stroke="midnightblue" d="M2995.95,-144.26C2836.24,-133.44 2411.81,-104.67 2209.6,-90.96"/>
<polygon fill="midnightblue" stroke="midnightblue" points="2209.76,-87.47 2199.55,-90.28 2209.29,-94.45 2209.76,-87.47"/>
</g>
<!-- Node41&#45;&gt;Node5 -->
<g id="edge91" class="edge">
<title>Node41&#45;&gt;Node5</title>
<path fill="none" stroke="midnightblue" d="M3628.98,-136.08C3624.09,-135.3 3619.22,-134.6 3614.5,-134 3372.79,-103.4 3307.93,-137.38 3067.5,-98 3014.41,-89.3 3003.57,-75.8 2950.5,-67 2691.32,-24.01 2373.96,-17.55 2265.74,-16.63"/>
<polygon fill="midnightblue" stroke="midnightblue" points="2265.66,-13.13 2255.64,-16.56 2265.61,-20.13 2265.66,-13.13"/>
</g>
<!-- Node41&#45;&gt;Node11 -->
<g id="edge86" class="edge">
<title>Node41&#45;&gt;Node11</title>
<path fill="none" stroke="midnightblue" d="M3629.87,-134.5C3513.29,-108.01 3262.76,-51.09 3158.04,-27.3"/>
<polygon fill="midnightblue" stroke="midnightblue" points="3158.6,-23.84 3148.07,-25.04 3157.05,-30.66 3158.6,-23.84"/>
</g>
<!-- Node41&#45;&gt;Node13 -->
<g id="edge87" class="edge">
<title>Node41&#45;&gt;Node13</title>
<path fill="none" stroke="midnightblue" d="M3712.11,-134.4C3725.43,-125.28 3742.96,-113.29 3757.66,-103.24"/>
<polygon fill="midnightblue" stroke="midnightblue" points="3759.65,-106.11 3765.93,-97.58 3755.7,-100.33 3759.65,-106.11"/>
</g>
<!-- Node41&#45;&gt;Node14 -->
<g id="edge89" class="edge">
<title>Node41&#45;&gt;Node14</title>
<path fill="none" stroke="midnightblue" d="M3690,-134.41C3688.9,-116.68 3689.76,-86.21 3705.5,-67 3720.98,-48.11 3744.41,-36.27 3767.19,-28.86"/>
<polygon fill="midnightblue" stroke="midnightblue" points="3768.32,-32.17 3776.89,-25.94 3766.3,-25.47 3768.32,-32.17"/>
</g>
<!-- Node41&#45;&gt;Node15 -->
<g id="edge94" class="edge">
<title>Node41&#45;&gt;Node15</title>
<path fill="none" stroke="midnightblue" d="M3740.68,-134.46C3822.06,-111.24 3976.01,-67.31 3977.5,-67 4080.63,-45.28 4202.19,-30.6 4275.75,-22.9"/>
<polygon fill="midnightblue" stroke="midnightblue" points="4276.21,-26.37 4285.8,-21.86 4275.49,-19.4 4276.21,-26.37"/>
</g>
<!-- Node41&#45;&gt;Node16 -->
<g id="edge88" class="edge">
<title>Node41&#45;&gt;Node16</title>
<path fill="none" stroke="midnightblue" d="M3628.96,-136.29C3624.07,-135.47 3619.21,-134.69 3614.5,-134 3538.58,-122.84 3324.48,-101.5 3211.08,-90.48"/>
<polygon fill="midnightblue" stroke="midnightblue" points="3211.38,-86.99 3201.09,-89.51 3210.71,-93.96 3211.38,-86.99"/>
</g>
<!-- Node41&#45;&gt;Node18 -->
<g id="edge90" class="edge">
<title>Node41&#45;&gt;Node18</title>
<path fill="none" stroke="midnightblue" d="M3628.9,-136.65C3624.03,-135.75 3619.18,-134.86 3614.5,-134 3392.14,-93.33 3127.37,-46.95 3011.6,-26.78"/>
<polygon fill="midnightblue" stroke="midnightblue" points="3011.98,-23.29 3001.53,-25.02 3010.78,-30.19 3011.98,-23.29"/>
</g>
<!-- Node41&#45;&gt;Node24 -->
<g id="edge92" class="edge">
<title>Node41&#45;&gt;Node24</title>
<path fill="none" stroke="midnightblue" d="M3754.29,-135.66C3757.4,-135.09 3760.49,-134.53 3763.5,-134 3854.11,-118.12 3958.94,-102.95 4027.53,-93.46"/>
<polygon fill="midnightblue" stroke="midnightblue" points="4028.38,-96.87 4037.8,-92.04 4027.42,-89.94 4028.38,-96.87"/>
</g>
<!-- Node41&#45;&gt;Node25 -->
<g id="edge93" class="edge">
<title>Node41&#45;&gt;Node25</title>
<path fill="none" stroke="midnightblue" d="M3754.26,-135.43C3757.38,-134.91 3760.47,-134.43 3763.5,-134 3948.52,-107.51 3996.69,-118.22 4182.5,-98 4195.12,-96.63 4208.53,-95 4221.48,-93.34"/>
<polygon fill="midnightblue" stroke="midnightblue" points="4222.29,-96.77 4231.75,-92.01 4221.39,-89.82 4222.29,-96.77"/>
</g>
<!-- Node41&#45;&gt;Node26 -->
<g id="edge95" class="edge">
<title>Node41&#45;&gt;Node26</title>
<path fill="none" stroke="midnightblue" d="M3628.78,-139.22C3613.35,-137.21 3596.85,-135.31 3581.5,-134 3171.12,-99.05 3065.5,-137.13 2655.5,-98 2643.69,-96.87 2631.12,-95.25 2619.11,-93.5"/>
<polygon fill="midnightblue" stroke="midnightblue" points="2619.6,-90.04 2609.19,-92.01 2618.55,-96.96 2619.6,-90.04"/>
</g>
<!-- Node41&#45;&gt;Node27 -->
<g id="edge96" class="edge">
<title>Node41&#45;&gt;Node27</title>
<path fill="none" stroke="midnightblue" d="M3628.99,-136.03C3624.1,-135.27 3619.23,-134.58 3614.5,-134 3594.41,-131.55 3010.65,-99.15 2801.31,-87.58"/>
<polygon fill="midnightblue" stroke="midnightblue" points="2801.21,-84.06 2791.03,-87.01 2800.83,-91.05 2801.21,-84.06"/>
</g>
<!-- Node42&#45;&gt;Node5 -->
<g id="edge103" class="edge">
<title>Node42&#45;&gt;Node5</title>
<path fill="none" stroke="midnightblue" d="M3771.85,-135.3C3769.03,-134.84 3766.24,-134.4 3763.5,-134 3584.25,-107.83 3536.67,-124.74 3357.5,-98 3291.46,-88.14 3276.71,-75.63 3210.5,-67 2845.06,-19.38 2397.72,-16.15 2265.81,-16.32"/>
<polygon fill="midnightblue" stroke="midnightblue" points="2265.79,-12.82 2255.8,-16.34 2265.8,-19.82 2265.79,-12.82"/>
</g>
<!-- Node42&#45;&gt;Node11 -->
<g id="edge98" class="edge">
<title>Node42&#45;&gt;Node11</title>
<path fill="none" stroke="midnightblue" d="M3771.79,-135.65C3768.99,-135.09 3766.22,-134.54 3763.5,-134 3608.57,-103.31 3569.97,-94.83 3414.5,-67 3331.69,-52.18 3235.91,-36.51 3174.34,-26.63"/>
<polygon fill="midnightblue" stroke="midnightblue" points="3174.81,-23.16 3164.39,-25.03 3173.71,-30.07 3174.81,-23.16"/>
</g>
<!-- Node42&#45;&gt;Node13 -->
<g id="edge99" class="edge">
<title>Node42&#45;&gt;Node13</title>
<path fill="none" stroke="midnightblue" d="M3824.08,-134.4C3817.92,-126.05 3809.97,-115.29 3802.98,-105.81"/>
<polygon fill="midnightblue" stroke="midnightblue" points="3805.65,-103.54 3796.89,-97.58 3800.02,-107.7 3805.65,-103.54"/>
</g>
<!-- Node42&#45;&gt;Node14 -->
<g id="edge101" class="edge">
<title>Node42&#45;&gt;Node14</title>
<path fill="none" stroke="midnightblue" d="M3847.49,-134.25C3855.24,-124.75 3864.36,-111.55 3868.5,-98 3872.52,-84.82 3872.34,-80.23 3868.5,-67 3865.65,-57.19 3860.27,-47.46 3854.71,-39.2"/>
<polygon fill="midnightblue" stroke="midnightblue" points="3857.41,-36.95 3848.74,-30.88 3851.73,-41.04 3857.41,-36.95"/>
</g>
<!-- Node42&#45;&gt;Node15 -->
<g id="edge106" class="edge">
<title>Node42&#45;&gt;Node15</title>
<path fill="none" stroke="midnightblue" d="M3884.87,-134.43C3912.92,-125.69 3948.02,-113.22 3977.5,-98 3998.76,-87.03 3999.33,-75.98 4021.5,-67 4104.88,-33.22 4208.94,-21.93 4275.56,-18.22"/>
<polygon fill="midnightblue" stroke="midnightblue" points="4276.12,-21.69 4285.92,-17.68 4275.76,-14.7 4276.12,-21.69"/>
</g>
<!-- Node42&#45;&gt;Node16 -->
<g id="edge100" class="edge">
<title>Node42&#45;&gt;Node16</title>
<path fill="none" stroke="midnightblue" d="M3771.85,-135.28C3769.03,-134.82 3766.24,-134.39 3763.5,-134 3736.56,-130.17 3370.3,-101.51 3211.31,-89.15"/>
<polygon fill="midnightblue" stroke="midnightblue" points="3211.38,-85.64 3201.14,-88.36 3210.84,-92.62 3211.38,-85.64"/>
</g>
<!-- Node42&#45;&gt;Node18 -->
<g id="edge102" class="edge">
<title>Node42&#45;&gt;Node18</title>
<path fill="none" stroke="midnightblue" d="M3771.82,-135.48C3769.01,-134.97 3766.23,-134.47 3763.5,-134 3651.15,-114.58 3621.85,-117.4 3509.5,-98 3441.56,-86.27 3425.59,-77.86 3357.5,-67 3220.09,-45.08 3184.4,-49.61 3046.5,-31 3036.56,-29.66 3026.04,-28.14 3015.78,-26.6"/>
<polygon fill="midnightblue" stroke="midnightblue" points="3016.05,-23.1 3005.64,-25.06 3015,-30.02 3016.05,-23.1"/>
</g>
<!-- Node42&#45;&gt;Node24 -->
<g id="edge104" class="edge">
<title>Node42&#45;&gt;Node24</title>
<path fill="none" stroke="midnightblue" d="M3892.11,-134.48C3941.42,-122.47 4011.42,-105.43 4056.65,-94.42"/>
<polygon fill="midnightblue" stroke="midnightblue" points="4057.58,-97.79 4066.47,-92.03 4055.92,-90.99 4057.58,-97.79"/>
</g>
<!-- Node42&#45;&gt;Node25 -->
<g id="edge105" class="edge">
<title>Node42&#45;&gt;Node25</title>
<path fill="none" stroke="midnightblue" d="M3897.22,-139.6C3982.26,-127.53 4133.68,-106.04 4222.38,-93.45"/>
<polygon fill="midnightblue" stroke="midnightblue" points="4222.94,-96.91 4232.35,-92.04 4221.96,-89.98 4222.94,-96.91"/>
</g>
<!-- Node42&#45;&gt;Node26 -->
<g id="edge107" class="edge">
<title>Node42&#45;&gt;Node26</title>
<path fill="none" stroke="midnightblue" d="M3771.87,-135.11C3769.05,-134.7 3766.25,-134.32 3763.5,-134 3274.16,-76.5 3146.12,-143.25 2655.5,-98 2643.69,-96.91 2631.11,-95.31 2619.1,-93.56"/>
<polygon fill="midnightblue" stroke="midnightblue" points="2619.59,-90.1 2609.18,-92.07 2618.55,-97.02 2619.59,-90.1"/>
</g>
<!-- Node42&#45;&gt;Node27 -->
<g id="edge108" class="edge">
<title>Node42&#45;&gt;Node27</title>
<path fill="none" stroke="midnightblue" d="M3771.87,-135.17C3769.04,-134.74 3766.25,-134.35 3763.5,-134 3715.93,-128.02 3030.47,-97.04 2801.42,-86.79"/>
<polygon fill="midnightblue" stroke="midnightblue" points="2801.33,-83.29 2791.18,-86.34 2801.02,-90.28 2801.33,-83.29"/>
</g>
<!-- Node43&#45;&gt;Node5 -->
<g id="edge114" class="edge">
<title>Node43&#45;&gt;Node5</title>
<path fill="none" stroke="midnightblue" d="M2210.53,-134.37C2213.98,-110.4 2220.99,-61.75 2224.83,-35.06"/>
<polygon fill="midnightblue" stroke="midnightblue" points="2228.3,-35.49 2226.26,-25.1 2221.37,-34.5 2228.3,-35.49"/>
</g>
<!-- Node43&#45;&gt;Node11 -->
<g id="edge110" class="edge">
<title>Node43&#45;&gt;Node11</title>
<path fill="none" stroke="midnightblue" d="M2243.7,-134.39C2292.73,-115.43 2384.78,-82.34 2466.5,-67 2708.13,-21.64 2774.15,-58.17 3018.5,-31 3029.33,-29.8 3040.83,-28.22 3051.9,-26.56"/>
<polygon fill="midnightblue" stroke="midnightblue" points="3052.56,-29.99 3061.91,-25.01 3051.49,-23.08 3052.56,-29.99"/>
</g>
<!-- Node43&#45;&gt;Node16 -->
<g id="edge111" class="edge">
<title>Node43&#45;&gt;Node16</title>
<path fill="none" stroke="midnightblue" d="M2271.33,-144.11C2437.64,-132.48 2888.71,-100.96 3065.77,-88.58"/>
<polygon fill="midnightblue" stroke="midnightblue" points="3066.03,-92.07 3075.77,-87.88 3065.55,-85.09 3066.03,-92.07"/>
</g>
<!-- Node43&#45;&gt;Node18 -->
<g id="edge113" class="edge">
<title>Node43&#45;&gt;Node18</title>
<path fill="none" stroke="midnightblue" d="M2227.74,-134.3C2254.73,-115.24 2306.09,-82.03 2355.5,-67 2452.97,-37.35 2750.85,-23.51 2885.35,-18.64"/>
<polygon fill="midnightblue" stroke="midnightblue" points="2885.65,-22.13 2895.52,-18.28 2885.4,-15.14 2885.65,-22.13"/>
</g>
<!-- Node43&#45;&gt;Node37 -->
<g id="edge112" class="edge">
<title>Node43&#45;&gt;Node37</title>
<path fill="none" stroke="midnightblue" d="M2184.85,-134.4C2166.32,-123.34 2140.69,-108.06 2122.36,-97.13"/>
<polygon fill="midnightblue" stroke="midnightblue" points="2124.15,-94.12 2113.77,-92.01 2120.56,-100.13 2124.15,-94.12"/>
</g>
<!-- Node44&#45;&gt;Node4 -->
<g id="edge117" class="edge">
<title>Node44&#45;&gt;Node4</title>
<path fill="none" stroke="midnightblue" d="M3027.25,-329.61C3037.48,-314.52 3060.34,-284 3087.5,-268 3249.39,-172.66 3317.42,-218.6 3497.5,-165 3500.27,-164.17 3503.13,-163.28 3506,-162.35"/>
<polygon fill="midnightblue" stroke="midnightblue" points="3507.25,-165.63 3515.63,-159.14 3505.03,-158.99 3507.25,-165.63"/>
</g>
<!-- Node44&#45;&gt;Node5 -->
<g id="edge118" class="edge">
<title>Node44&#45;&gt;Node5</title>
<path fill="none" stroke="midnightblue" d="M2977.89,-337.87C2845.03,-335.01 2434.55,-319.21 2108.5,-232 2074.84,-223 2070.21,-209.81 2036.5,-201 1962.57,-181.67 1745.63,-221.8 1694.5,-165 1670.99,-138.88 1710.07,-76.2 1722.5,-67 1759.8,-39.38 2077.8,-23.02 2189.17,-18.09"/>
<polygon fill="midnightblue" stroke="midnightblue" points="2189.44,-21.58 2199.28,-17.65 2189.14,-14.59 2189.44,-21.58"/>
</g>
<!-- Node44&#45;&gt;Node8 -->
<g id="edge121" class="edge">
<title>Node44&#45;&gt;Node8</title>
<path fill="none" stroke="midnightblue" d="M2977.76,-334.99C2850.72,-324.38 2471.09,-289.81 2160.5,-232 2104.65,-221.61 2092.5,-210.57 2036.5,-201 1867.53,-172.13 1823,-182.65 1652.5,-165 1638.04,-163.5 1622.67,-161.83 1607.79,-160.17"/>
<polygon fill="midnightblue" stroke="midnightblue" points="1607.91,-156.66 1597.58,-159.03 1607.12,-163.62 1607.91,-156.66"/>
</g>
<!-- Node44&#45;&gt;Node9 -->
<g id="edge122" class="edge">
<title>Node44&#45;&gt;Node9</title>
<path fill="none" stroke="midnightblue" d="M2980.41,-329.98C2913.44,-315.23 2777.49,-281.69 2670.5,-232 2628.73,-212.6 2583.87,-182.75 2558.68,-165.07"/>
<polygon fill="midnightblue" stroke="midnightblue" points="2560.51,-162.08 2550.33,-159.15 2556.46,-167.79 2560.51,-162.08"/>
</g>
<!-- Node44&#45;&gt;Node13 -->
<g id="edge123" class="edge">
<title>Node44&#45;&gt;Node13</title>
<path fill="none" stroke="midnightblue" d="M3048.22,-329.98C3056.55,-327.65 3065.83,-325.39 3074.5,-324 3568.13,-245.06 3712.12,-359.43 4195.5,-232 4273.63,-211.4 4319.1,-231.84 4364.5,-165 4372.24,-153.6 4373.81,-144.16 4364.5,-134 4356.23,-124.97 4026.95,-100.52 3869.16,-89.28"/>
<polygon fill="midnightblue" stroke="midnightblue" points="3869.25,-85.78 3859.02,-88.56 3868.75,-92.76 3869.25,-85.78"/>
</g>
<!-- Node44&#45;&gt;Node15 -->
<g id="edge156" class="edge">
<title>Node44&#45;&gt;Node15</title>
<path fill="none" stroke="midnightblue" d="M3047.93,-329.94C3056.33,-327.58 3065.73,-325.31 3074.5,-324 3342.97,-283.9 4031.7,-351.98 4295.5,-288 4351.53,-274.41 4381.77,-280.78 4412.5,-232 4430.9,-202.8 4460.73,-187.17 4399.5,-67 4391.92,-52.12 4377.94,-39.63 4365.72,-30.79"/>
<polygon fill="midnightblue" stroke="midnightblue" points="4367.49,-27.76 4357.25,-25.02 4363.54,-33.54 4367.49,-27.76"/>
</g>
<!-- Node44&#45;&gt;Node17 -->
<g id="edge119" class="edge">
<title>Node44&#45;&gt;Node17</title>
<path fill="none" stroke="midnightblue" d="M3047.93,-329.95C3056.33,-327.59 3065.73,-325.32 3074.5,-324 3582.38,-247.71 3724.67,-382.42 4229.5,-288 4303.14,-274.23 4334.36,-283.79 4388.5,-232 4411.7,-209.81 4409.39,-196.52 4415.5,-165 4424.85,-116.8 4407.92,-89.92 4364.5,-67 4344.27,-56.32 3669.54,-28.15 3449.87,-19.24"/>
<polygon fill="midnightblue" stroke="midnightblue" points="3449.89,-15.74 3439.76,-18.83 3449.61,-22.73 3449.89,-15.74"/>
</g>
<!-- Node44&#45;&gt;Node24 -->
<g id="edge154" class="edge">
<title>Node44&#45;&gt;Node24</title>
<path fill="none" stroke="midnightblue" d="M3047.93,-330C3056.34,-327.64 3065.73,-325.36 3074.5,-324 3473.19,-262.37 3580.69,-333.87 3981.5,-288 4166.29,-266.85 4291.75,-327.91 4381.5,-165 4388.15,-152.93 4390.34,-144.57 4381.5,-134 4374.67,-125.83 4250.09,-105.77 4169.43,-93.53"/>
<polygon fill="midnightblue" stroke="midnightblue" points="4169.74,-90.04 4159.33,-92.01 4168.69,-96.96 4169.74,-90.04"/>
</g>
<!-- Node44&#45;&gt;Node25 -->
<g id="edge155" class="edge">
<title>Node44&#45;&gt;Node25</title>
<path fill="none" stroke="midnightblue" d="M3047.93,-329.97C3056.34,-327.61 3065.73,-325.33 3074.5,-324 3541.88,-253.15 3669.48,-354.44 4137.5,-288 4237.82,-273.76 4277.59,-292.99 4358.5,-232 4395.93,-203.78 4422.45,-173.69 4397.5,-134 4385.46,-114.86 4363.92,-102.8 4343.46,-95.3"/>
<polygon fill="midnightblue" stroke="midnightblue" points="4344.46,-91.94 4333.86,-92.06 4342.22,-98.57 4344.46,-91.94"/>
</g>
<!-- Node44&#45;&gt;Node26 -->
<g id="edge157" class="edge">
<title>Node44&#45;&gt;Node26</title>
<path fill="none" stroke="midnightblue" d="M3005.9,-329.87C2938.05,-292.34 2668.36,-143.16 2585.11,-97.11"/>
<polygon fill="midnightblue" stroke="midnightblue" points="2586.78,-94.04 2576.34,-92.26 2583.39,-100.16 2586.78,-94.04"/>
</g>
<!-- Node44&#45;&gt;Node27 -->
<g id="edge158" class="edge">
<title>Node44&#45;&gt;Node27</title>
<path fill="none" stroke="midnightblue" d="M3020.95,-329.87C3019.65,-315.69 3015.39,-287.16 3001.5,-268 2937.22,-179.34 2816.39,-120.29 2759.13,-96.01"/>
<polygon fill="midnightblue" stroke="midnightblue" points="2760.43,-92.76 2749.85,-92.15 2757.74,-99.22 2760.43,-92.76"/>
</g>
<!-- Node45 -->
<g id="node42" class="node">
<title>Node45</title>
<g id="a_node42"><a xlink:title=" ">
<polygon fill="none" stroke="#bfbfbf" points="3096.5,-268.5 3096.5,-287.5 3146.5,-287.5 3146.5,-268.5 3096.5,-268.5"/>
<text text-anchor="middle" x="3121.5" y="-275.5" font-family="Helvetica,sans-Serif" font-size="10.00">cstdint</text>
</a>
</g>
</g>
<!-- Node44&#45;&gt;Node45 -->
<g id="edge116" class="edge">
<title>Node44&#45;&gt;Node45</title>
<path fill="none" stroke="midnightblue" d="M3035.83,-329.98C3052.16,-320.25 3079.1,-304.23 3098.41,-292.74"/>
<polygon fill="midnightblue" stroke="midnightblue" points="3100.39,-295.63 3107.2,-287.51 3096.82,-289.61 3100.39,-295.63"/>
</g>
<!-- Node46 -->
<g id="node43" class="node">
<title>Node46</title>
<g id="a_node43"><a xlink:title=" ">
<polygon fill="none" stroke="#bfbfbf" points="4220,-140 4220,-159 4355,-159 4355,-140 4220,-140"/>
<text text-anchor="middle" x="4287.5" y="-147" font-family="Helvetica,sans-Serif" font-size="10.00">seerep&#45;msgs/datatype.h</text>
</a>
</g>
</g>
<!-- Node44&#45;&gt;Node46 -->
<g id="edge120" class="edge">
<title>Node44&#45;&gt;Node46</title>
<path fill="none" stroke="midnightblue" d="M3048.78,-329.96C3056.98,-327.69 3066.04,-325.46 3074.5,-324 3284,-287.78 3339.65,-305.91 3551.5,-288 3817.49,-265.51 3895.56,-314.3 4149.5,-232 4195.91,-216.96 4243.48,-184.29 4268.85,-165.2"/>
<polygon fill="midnightblue" stroke="midnightblue" points="4271.05,-167.92 4276.86,-159.06 4266.79,-162.36 4271.05,-167.92"/>
</g>
<!-- Node44&#45;&gt;Node47 -->
<g id="edge124" class="edge">
<title>Node44&#45;&gt;Node47</title>
<path fill="none" stroke="midnightblue" d="M3049.36,-329.98C3057.41,-327.76 3066.25,-325.56 3074.5,-324 3201.69,-299.93 3353.21,-287.64 3434.68,-282.34"/>
<polygon fill="midnightblue" stroke="midnightblue" points="3434.98,-285.83 3444.74,-281.7 3434.54,-278.84 3434.98,-285.83"/>
</g>
<!-- Node44&#45;&gt;Node50 -->
<g id="edge144" class="edge">
<title>Node44&#45;&gt;Node50</title>
<path fill="none" stroke="midnightblue" d="M2999.42,-329.99C2944.83,-308.95 2803.32,-254.42 2739.52,-229.84"/>
<polygon fill="midnightblue" stroke="midnightblue" points="2740.57,-226.49 2729.98,-226.16 2738.05,-233.02 2740.57,-226.49"/>
</g>
<!-- Node47&#45;&gt;Node4 -->
<g id="edge125" class="edge">
<title>Node47&#45;&gt;Node4</title>
<path fill="none" stroke="midnightblue" d="M3496.66,-268.31C3504.08,-247.9 3522.74,-196.6 3532.81,-168.91"/>
<polygon fill="midnightblue" stroke="midnightblue" points="3536.19,-169.85 3536.32,-159.26 3529.61,-167.46 3536.19,-169.85"/>
</g>
<!-- Node47&#45;&gt;Node5 -->
<g id="edge126" class="edge">
<title>Node47&#45;&gt;Node5</title>
<path fill="none" stroke="midnightblue" d="M3444.78,-275.56C3220.11,-268.89 2292.48,-240.92 2231.5,-232 2177.42,-224.09 2166.34,-210.37 2112.5,-201 2068.54,-193.35 1742.61,-197.94 1712.5,-165 1663.81,-111.73 1747.02,-86.84 1793.5,-67 1864.54,-36.68 2097.21,-22.64 2189.39,-18.17"/>
<polygon fill="midnightblue" stroke="midnightblue" points="2189.58,-21.66 2199.41,-17.69 2189.25,-14.67 2189.58,-21.66"/>
</g>
<!-- Node47&#45;&gt;Node15 -->
<g id="edge141" class="edge">
<title>Node47&#45;&gt;Node15</title>
<path fill="none" stroke="midnightblue" d="M3542.14,-276.78C3687.67,-275.69 4117.99,-269.33 4252.5,-232 4314.37,-214.83 4346.84,-219.68 4380.5,-165 4403.33,-127.91 4395.57,-108.22 4381.5,-67 4377.02,-53.86 4367.58,-41.49 4359.11,-32.28"/>
<polygon fill="midnightblue" stroke="midnightblue" points="4361.56,-29.77 4352.07,-25.06 4356.55,-34.66 4361.56,-29.77"/>
</g>
<!-- Node47&#45;&gt;Node24 -->
<g id="edge139" class="edge">
<title>Node47&#45;&gt;Node24</title>
<path fill="none" stroke="midnightblue" d="M3542.32,-275.45C3665.32,-271.17 3981,-257.79 4020.5,-232 4067.14,-201.56 4089.13,-134.73 4097.39,-102.13"/>
<polygon fill="midnightblue" stroke="midnightblue" points="4100.86,-102.67 4099.76,-92.14 4094.05,-101.06 4100.86,-102.67"/>
</g>
<!-- Node47&#45;&gt;Node25 -->
<g id="edge140" class="edge">
<title>Node47&#45;&gt;Node25</title>
<path fill="none" stroke="midnightblue" d="M3542.13,-277.52C3651.62,-277.86 3925.38,-274.01 4149.5,-232 4247.87,-213.56 4305.18,-245.62 4364.5,-165 4372.67,-153.9 4370.86,-146.22 4364.5,-134 4355.81,-117.29 4338.77,-104.95 4323.45,-96.66"/>
<polygon fill="midnightblue" stroke="midnightblue" points="4324.72,-93.38 4314.22,-92.01 4321.58,-99.64 4324.72,-93.38"/>
</g>
<!-- Node47&#45;&gt;Node26 -->
<g id="edge142" class="edge">
<title>Node47&#45;&gt;Node26</title>
<path fill="none" stroke="midnightblue" d="M3444.98,-272.81C3373.57,-266.26 3236.15,-252.23 3120.5,-232 2989.77,-209.13 2948.7,-223.36 2829.5,-165 2809.92,-155.42 2811.13,-143.48 2791.5,-134 2762.25,-119.88 2680.89,-103.92 2623.03,-93.79"/>
<polygon fill="midnightblue" stroke="midnightblue" points="2623.32,-90.29 2612.87,-92.03 2622.13,-97.19 2623.32,-90.29"/>
</g>
<!-- Node47&#45;&gt;Node27 -->
<g id="edge143" class="edge">
<title>Node47&#45;&gt;Node27</title>
<path fill="none" stroke="midnightblue" d="M3444.63,-270.06C3391.98,-262.23 3305.86,-248.43 3232.5,-232 3182.1,-220.71 3170.65,-213.34 3120.5,-201 3046.77,-182.87 3023.64,-194.07 2953.5,-165 2930.04,-155.28 2928.64,-144.47 2905.5,-134 2865.24,-115.78 2816.85,-102.56 2780.69,-94.23"/>
<polygon fill="midnightblue" stroke="midnightblue" points="2781.36,-90.79 2770.83,-92.01 2779.82,-97.62 2781.36,-90.79"/>
</g>
<!-- Node47&#45;&gt;Node40 -->
<g id="edge138" class="edge">
<title>Node47&#45;&gt;Node40</title>
<path fill="none" stroke="midnightblue" d="M3463.94,-268.4C3392.65,-247.67 3210.22,-194.62 3116.3,-167.31"/>
<polygon fill="midnightblue" stroke="midnightblue" points="3117.25,-163.94 3106.67,-164.51 3115.29,-170.66 3117.25,-163.94"/>
</g>
<!-- Node47&#45;&gt;Node46 -->
<g id="edge137" class="edge">
<title>Node47&#45;&gt;Node46</title>
<path fill="none" stroke="midnightblue" d="M3542.43,-275.32C3665.89,-270.77 3987.58,-256.84 4091.5,-232 4155.99,-216.59 4226.65,-182.58 4262.94,-163.73"/>
<polygon fill="midnightblue" stroke="midnightblue" points="4264.6,-166.82 4271.82,-159.07 4261.34,-160.62 4264.6,-166.82"/>
</g>
<!-- Node48 -->
<g id="node45" class="node">
<title>Node48</title>
<g id="a_node45"><a xlink:href="core-instance_8h.html" target="_top" xlink:title=" ">
<polygon fill="none" stroke="red" points="3919.5,-207 3919.5,-226 4011.5,-226 4011.5,-207 3919.5,-207"/>
<text text-anchor="middle" x="3965.5" y="-214" font-family="Helvetica,sans-Serif" font-size="10.00">core&#45;instance.h</text>
</a>
</g>
</g>
<!-- Node47&#45;&gt;Node48 -->
<g id="edge127" class="edge">
<title>Node47&#45;&gt;Node48</title>
<path fill="none" stroke="midnightblue" d="M3542.23,-270.86C3630.43,-259.74 3816.03,-236.34 3909.37,-224.58"/>
<polygon fill="midnightblue" stroke="midnightblue" points="3909.99,-228.03 3919.47,-223.3 3909.11,-221.08 3909.99,-228.03"/>
</g>
<!-- Node48&#45;&gt;Node4 -->
<g id="edge128" class="edge">
<title>Node48&#45;&gt;Node4</title>
<path fill="none" stroke="midnightblue" d="M3933.27,-206.93C3924.33,-204.76 3914.58,-202.6 3905.5,-201 3765,-176.19 3726.17,-194.16 3586.5,-165 3582.36,-164.14 3578.07,-163.06 3573.83,-161.9"/>
<polygon fill="midnightblue" stroke="midnightblue" points="3574.73,-158.51 3564.15,-159.05 3572.76,-165.23 3574.73,-158.51"/>
</g>
<!-- Node48&#45;&gt;Node5 -->
<g id="edge129" class="edge">
<title>Node48&#45;&gt;Node5</title>
<path fill="none" stroke="midnightblue" d="M3919.41,-214.62C3737.63,-210.95 3076.08,-195.61 2987.5,-165 2964.89,-157.19 2964.88,-144.73 2943.5,-134 2897.52,-110.93 2877.75,-124.24 2833.5,-98 2816.19,-87.74 2818.87,-75.22 2800.5,-67 2704.48,-24 2378.35,-17.57 2265.95,-16.64"/>
<polygon fill="midnightblue" stroke="midnightblue" points="2265.78,-13.14 2255.76,-16.57 2265.73,-20.14 2265.78,-13.14"/>
</g>
<!-- Node48&#45;&gt;Node15 -->
<g id="edge134" class="edge">
<title>Node48&#45;&gt;Node15</title>
<path fill="none" stroke="midnightblue" d="M4011.63,-208.94C4053.66,-201.83 4116.72,-188.25 4167.5,-165 4189.25,-155.04 4189.68,-143.81 4211.5,-134 4275.22,-105.36 4321.13,-152.76 4364.5,-98 4379.38,-79.22 4366.28,-51.18 4354.87,-33.37"/>
<polygon fill="midnightblue" stroke="midnightblue" points="4357.74,-31.38 4349.21,-25.1 4351.97,-35.33 4357.74,-31.38"/>
</g>
<!-- Node48&#45;&gt;Node24 -->
<g id="edge132" class="edge">
<title>Node48&#45;&gt;Node24</title>
<path fill="none" stroke="midnightblue" d="M3974.42,-206.84C3997,-184.92 4056.65,-127.03 4085.47,-99.06"/>
<polygon fill="midnightblue" stroke="midnightblue" points="4087.98,-101.5 4092.72,-92.02 4083.11,-96.47 4087.98,-101.5"/>
</g>
<!-- Node48&#45;&gt;Node25 -->
<g id="edge133" class="edge">
<title>Node48&#45;&gt;Node25</title>
<path fill="none" stroke="midnightblue" d="M4003.39,-206.99C4037.34,-198.62 4088.05,-184.32 4129.5,-165 4152.52,-154.27 4155.14,-146.03 4177.5,-134 4204.72,-119.35 4237.05,-105.45 4260.49,-95.95"/>
<polygon fill="midnightblue" stroke="midnightblue" points="4261.97,-99.12 4269.95,-92.16 4259.37,-92.63 4261.97,-99.12"/>
</g>
<!-- Node48&#45;&gt;Node26 -->
<g id="edge135" class="edge">
<title>Node48&#45;&gt;Node26</title>
<path fill="none" stroke="midnightblue" d="M3919.25,-214.39C3747.11,-210.08 3143.71,-193.25 2953.5,-165 2897.31,-156.66 2885,-146.13 2829.5,-134 2758.05,-118.38 2675.27,-103.28 2620.62,-93.73"/>
<polygon fill="midnightblue" stroke="midnightblue" points="2621.21,-90.28 2610.75,-92.01 2620.01,-97.18 2621.21,-90.28"/>
</g>
<!-- Node48&#45;&gt;Node27 -->
<g id="edge136" class="edge">
<title>Node48&#45;&gt;Node27</title>
<path fill="none" stroke="midnightblue" d="M3932.94,-206.93C3924.08,-204.79 3914.46,-202.64 3905.5,-201 3779.92,-177.97 3738.16,-214.56 3620.5,-165 3600.09,-156.41 3602.18,-141.91 3581.5,-134 3572.43,-130.53 3007.13,-98.97 2801.36,-87.58"/>
<polygon fill="midnightblue" stroke="midnightblue" points="2801.43,-84.07 2791.25,-87.02 2801.04,-91.06 2801.43,-84.07"/>
</g>
<!-- Node48&#45;&gt;Node40 -->
<g id="edge131" class="edge">
<title>Node48&#45;&gt;Node40</title>
<path fill="none" stroke="midnightblue" d="M3919.12,-214.94C3793.67,-212.95 3437.1,-204.13 3131.19,-164.95"/>
<polygon fill="midnightblue" stroke="midnightblue" points="3131.61,-161.48 3121.24,-163.67 3130.71,-168.42 3131.61,-161.48"/>
</g>
<!-- Node48&#45;&gt;Node46 -->
<g id="edge130" class="edge">
<title>Node48&#45;&gt;Node46</title>
<path fill="none" stroke="midnightblue" d="M4007.93,-206.94C4066.41,-195.13 4171.72,-173.87 4235.06,-161.09"/>
<polygon fill="midnightblue" stroke="midnightblue" points="4236.13,-164.44 4245.24,-159.03 4234.74,-157.58 4236.13,-164.44"/>
</g>
<!-- Node50&#45;&gt;Node4 -->
<g id="edge145" class="edge">
<title>Node50&#45;&gt;Node4</title>
<path fill="none" stroke="midnightblue" d="M2736.17,-213.72C2876.88,-204.97 3487.96,-166.91 3497.5,-165 3501.2,-164.26 3505.01,-163.27 3508.77,-162.16"/>
<polygon fill="midnightblue" stroke="midnightblue" points="3510.02,-165.43 3518.44,-159.01 3507.85,-158.78 3510.02,-165.43"/>
</g>
<!-- Node50&#45;&gt;Node5 -->
<g id="edge146" class="edge">
<title>Node50&#45;&gt;Node5</title>
<path fill="none" stroke="midnightblue" d="M2699.47,-206.93C2683.42,-190.3 2645.56,-153.61 2606.5,-134 2549.08,-105.17 2528.06,-116.38 2466.5,-98 2391.95,-75.74 2305.9,-45.17 2260.12,-28.52"/>
<polygon fill="midnightblue" stroke="midnightblue" points="2261.31,-25.22 2250.72,-25.08 2258.91,-31.8 2261.31,-25.22"/>
</g>
<!-- Node50&#45;&gt;Node9 -->
<g id="edge149" class="edge">
<title>Node50&#45;&gt;Node9</title>
<path fill="none" stroke="midnightblue" d="M2685.06,-206.87C2655.68,-195.57 2604.01,-175.7 2570.53,-162.82"/>
<polygon fill="midnightblue" stroke="midnightblue" points="2571.36,-159.39 2560.77,-159.06 2568.84,-165.92 2571.36,-159.39"/>
</g>
<!-- Node50&#45;&gt;Node17 -->
<g id="edge147" class="edge">
<title>Node50&#45;&gt;Node17</title>
<path fill="none" stroke="midnightblue" d="M2736.15,-213.6C2847.94,-206.12 3249.87,-178.39 3273.5,-165 3326.33,-135.07 3360.33,-67.47 3374.28,-34.83"/>
<polygon fill="midnightblue" stroke="midnightblue" points="3377.67,-35.78 3378.24,-25.2 3371.2,-33.12 3377.67,-35.78"/>
</g>
<!-- Node50&#45;&gt;Node21 -->
<g id="edge152" class="edge">
<title>Node50&#45;&gt;Node21</title>
<path fill="none" stroke="midnightblue" d="M2678.86,-214.06C2575.28,-208.71 2220.37,-189.01 2109.5,-165 2069.38,-156.31 2062.64,-142.58 2022.5,-134 1652.35,-54.9 1551.11,-93.04 1173.5,-67 890.03,-47.46 553.43,-28.98 400.49,-20.85"/>
<polygon fill="midnightblue" stroke="midnightblue" points="400.42,-17.34 390.25,-20.3 400.05,-24.33 400.42,-17.34"/>
</g>
<!-- Node50&#45;&gt;Node22 -->
<g id="edge153" class="edge">
<title>Node50&#45;&gt;Node22</title>
<path fill="none" stroke="midnightblue" d="M2736.14,-215.43C2900.74,-214.89 3727.61,-209.91 3977.5,-165 4071.84,-148.05 4098.09,-143.43 4182.5,-98 4202,-87.51 4201.31,-76.09 4221.5,-67 4241.2,-58.13 4362.41,-38.61 4440.88,-26.61"/>
<polygon fill="midnightblue" stroke="midnightblue" points="4441.82,-30 4451.18,-25.03 4440.76,-23.08 4441.82,-30"/>
</g>
<!-- Node50&#45;&gt;Node36 -->
<g id="edge148" class="edge">
<title>Node50&#45;&gt;Node36</title>
<path fill="none" stroke="midnightblue" d="M2736.02,-213.63C2843.51,-206.52 3224.05,-180.79 3344.5,-165 3353.24,-163.85 3362.48,-162.39 3371.44,-160.84"/>
<polygon fill="midnightblue" stroke="midnightblue" points="3372.17,-164.26 3381.4,-159.05 3370.94,-157.37 3372.17,-164.26"/>
</g>
<!-- Node50&#45;&gt;Node37 -->
<g id="edge150" class="edge">
<title>Node50&#45;&gt;Node37</title>
<path fill="none" stroke="midnightblue" d="M2678.76,-214.62C2569.28,-211.05 2182.14,-196.29 2137.5,-165 2116.66,-150.39 2106.95,-121.34 2102.65,-102.17"/>
<polygon fill="midnightblue" stroke="midnightblue" points="2106.06,-101.34 2100.7,-92.2 2099.19,-102.69 2106.06,-101.34"/>
</g>
<!-- Node50&#45;&gt;Node43 -->
<g id="edge151" class="edge">
<title>Node50&#45;&gt;Node43</title>
<path fill="none" stroke="midnightblue" d="M2678.88,-211.77C2602.77,-201.86 2393.55,-174.6 2281.54,-160.01"/>
<polygon fill="midnightblue" stroke="midnightblue" points="2281.71,-156.51 2271.34,-158.69 2280.81,-163.45 2281.71,-156.51"/>
</g>
<!-- Node56&#45;&gt;Node4 -->
<g id="edge166" class="edge">
<title>Node56&#45;&gt;Node4</title>
<path fill="none" stroke="midnightblue" d="M2354.63,-213.21C2591.31,-203.69 3483.29,-167.69 3497.5,-165 3501.2,-164.3 3505.03,-163.34 3508.78,-162.24"/>
<polygon fill="midnightblue" stroke="midnightblue" points="3510.03,-165.51 3518.46,-159.1 3507.87,-158.86 3510.03,-165.51"/>
</g>
<!-- Node56&#45;&gt;Node5 -->
<g id="edge167" class="edge">
<title>Node56&#45;&gt;Node5</title>
<path fill="none" stroke="midnightblue" d="M2240.43,-207.31C2223.72,-205.07 2205.4,-202.78 2188.5,-201 2136.96,-195.58 1758.7,-203.03 1723.5,-165 1656.68,-92.8 2060.22,-36.85 2188.97,-21.02"/>
<polygon fill="midnightblue" stroke="midnightblue" points="2189.66,-24.46 2199.16,-19.78 2188.81,-17.51 2189.66,-24.46"/>
</g>
<!-- Node56&#45;&gt;Node6 -->
<g id="edge168" class="edge">
<title>Node56&#45;&gt;Node6</title>
<path fill="none" stroke="midnightblue" d="M2240.38,-214.54C2074.98,-211.4 1581.51,-199.61 1173.5,-165 1158.88,-163.76 1143.26,-162.06 1128.38,-160.27"/>
<polygon fill="midnightblue" stroke="midnightblue" points="1128.56,-156.76 1118.21,-159.01 1127.71,-163.71 1128.56,-156.76"/>
</g>
<!-- Node56&#45;&gt;Node7 -->
<g id="edge169" class="edge">
<title>Node56&#45;&gt;Node7</title>
<path fill="none" stroke="midnightblue" d="M2240.5,-212.49C2102.81,-205.14 1741.16,-185.39 1439.5,-165 1402.25,-162.48 1360.92,-159.37 1326.34,-156.67"/>
<polygon fill="midnightblue" stroke="midnightblue" points="1326.55,-153.18 1316.31,-155.88 1326,-160.15 1326.55,-153.18"/>
</g>
<!-- Node56&#45;&gt;Node8 -->
<g id="edge173" class="edge">
<title>Node56&#45;&gt;Node8</title>
<path fill="none" stroke="midnightblue" d="M2240.17,-210.81C2132.46,-201.98 1892.53,-182.23 1690.5,-165 1664.42,-162.78 1636.03,-160.31 1610.23,-158.06"/>
<polygon fill="midnightblue" stroke="midnightblue" points="1610.37,-154.56 1600.11,-157.17 1609.76,-161.53 1610.37,-154.56"/>
</g>
<!-- Node56&#45;&gt;Node9 -->
<g id="edge175" class="edge">
<title>Node56&#45;&gt;Node9</title>
<path fill="none" stroke="midnightblue" d="M2349.5,-201.48C2393.63,-189.57 2456.13,-172.72 2496.98,-161.7"/>
<polygon fill="midnightblue" stroke="midnightblue" points="2498.13,-165.01 2506.88,-159.03 2496.31,-158.25 2498.13,-165.01"/>
</g>
<!-- Node56&#45;&gt;Node14 -->
<g id="edge172" class="edge">
<title>Node56&#45;&gt;Node14</title>
<path fill="none" stroke="midnightblue" d="M2354.68,-213.1C2427.88,-210.08 2558.61,-204.8 2670.5,-201 2704.83,-199.83 3882.57,-189.64 3906.5,-165 3942.53,-127.9 3892.32,-68.79 3860.02,-37.51"/>
<polygon fill="midnightblue" stroke="midnightblue" points="3862.32,-34.87 3852.65,-30.54 3857.51,-39.96 3862.32,-34.87"/>
</g>
<!-- Node56&#45;&gt;Node15 -->
<g id="edge179" class="edge">
<title>Node56&#45;&gt;Node15</title>
<path fill="none" stroke="midnightblue" d="M2354.73,-213.07C2556.99,-204.41 3228.53,-175.03 3273.5,-165 3309.1,-157.06 3314.25,-143.41 3349.5,-134 3464.76,-103.23 3499.43,-125.56 3615.5,-98 3656.66,-88.23 3664.08,-75.63 3705.5,-67 3910.02,-24.39 4158.34,-17.14 4275.35,-16.29"/>
<polygon fill="midnightblue" stroke="midnightblue" points="4275.6,-19.79 4285.58,-16.23 4275.56,-12.79 4275.6,-19.79"/>
</g>
<!-- Node56&#45;&gt;Node24 -->
<g id="edge177" class="edge">
<title>Node56&#45;&gt;Node24</title>
<path fill="none" stroke="midnightblue" d="M2354.68,-213.09C2427.88,-210.05 2558.61,-204.76 2670.5,-201 2811.48,-196.26 3804.78,-206.81 3939.5,-165 3963.75,-157.47 3965.16,-146.07 3987.5,-134 4014.66,-119.33 4046.95,-105.33 4070.21,-95.81"/>
<polygon fill="midnightblue" stroke="midnightblue" points="4071.63,-99.01 4079.59,-92.01 4069,-92.52 4071.63,-99.01"/>
</g>
<!-- Node56&#45;&gt;Node25 -->
<g id="edge178" class="edge">
<title>Node56&#45;&gt;Node25</title>
<path fill="none" stroke="midnightblue" d="M2354.68,-213.08C2427.88,-210.02 2558.61,-204.72 2670.5,-201 2960.89,-191.36 3689.8,-205.65 3977.5,-165 4081.45,-150.31 4200.48,-114 4257.91,-95.2"/>
<polygon fill="midnightblue" stroke="midnightblue" points="4259.18,-98.47 4267.58,-92.01 4256.98,-91.82 4259.18,-98.47"/>
</g>
<!-- Node56&#45;&gt;Node26 -->
<g id="edge180" class="edge">
<title>Node56&#45;&gt;Node26</title>
<path fill="none" stroke="midnightblue" d="M2304.74,-201.34C2314.89,-182.95 2335.11,-151.17 2361.5,-134 2393.18,-113.39 2432.75,-101.19 2468.25,-93.97"/>
<polygon fill="midnightblue" stroke="midnightblue" points="2468.99,-97.39 2478.14,-92.06 2467.66,-90.52 2468.99,-97.39"/>
</g>
<!-- Node56&#45;&gt;Node27 -->
<g id="edge181" class="edge">
<title>Node56&#45;&gt;Node27</title>
<path fill="none" stroke="midnightblue" d="M2316.77,-201.2C2342.78,-182.64 2391.2,-150.68 2437.5,-134 2529.48,-100.86 2558.32,-115.53 2654.5,-98 2661.33,-96.75 2668.51,-95.39 2675.6,-94.02"/>
<polygon fill="midnightblue" stroke="midnightblue" points="2676.71,-97.37 2685.85,-92.01 2675.36,-90.5 2676.71,-97.37"/>
</g>
<!-- Node56&#45;&gt;Node36 -->
<g id="edge174" class="edge">
<title>Node56&#45;&gt;Node36</title>
<path fill="none" stroke="midnightblue" d="M2354.75,-213.19C2559.17,-204.86 3246.2,-176.34 3344.5,-165 3353.66,-163.94 3363.35,-162.47 3372.69,-160.86"/>
<polygon fill="midnightblue" stroke="midnightblue" points="3373.43,-164.28 3382.65,-159.07 3372.19,-157.39 3373.43,-164.28"/>
</g>
<!-- Node56&#45;&gt;Node37 -->
<g id="edge176" class="edge">
<title>Node56&#45;&gt;Node37</title>
<path fill="none" stroke="midnightblue" d="M2240.15,-208.12C2189.36,-200.3 2120.68,-186.13 2103.5,-165 2089.29,-147.52 2091.19,-120.32 2094.67,-102.21"/>
<polygon fill="midnightblue" stroke="midnightblue" points="2098.12,-102.8 2096.91,-92.28 2091.29,-101.26 2098.12,-102.8"/>
</g>
<!-- Node57 -->
<g id="node48" class="node">
<title>Node57</title>
<g id="a_node48"><a xlink:title=" ">
<polygon fill="none" stroke="#bfbfbf" points="1733,-134.5 1733,-164.5 1864,-164.5 1864,-134.5 1733,-134.5"/>
<text text-anchor="start" x="1741" y="-152.5" font-family="Helvetica,sans-Serif" font-size="10.00">seerep&#45;msgs/transform</text>
<text text-anchor="middle" x="1798.5" y="-141.5" font-family="Helvetica,sans-Serif" font-size="10.00">_stamped.pb.h</text>
</a>
</g>
</g>
<!-- Node56&#45;&gt;Node57 -->
<g id="edge170" class="edge">
<title>Node56&#45;&gt;Node57</title>
<path fill="none" stroke="midnightblue" d="M2240.39,-207.7C2223.67,-205.47 2205.36,-203.08 2188.5,-201 2051.5,-184.09 2013.94,-186.48 1874.44,-165.23"/>
<polygon fill="midnightblue" stroke="midnightblue" points="1874.64,-161.72 1864.22,-163.66 1873.57,-168.64 1874.64,-161.72"/>
</g>
<!-- Node58 -->
<g id="node49" class="node">
<title>Node58</title>
<g id="a_node49"><a xlink:title=" ">
<polygon fill="none" stroke="#bfbfbf" points="1882,-134.5 1882,-164.5 2013,-164.5 2013,-134.5 1882,-134.5"/>
<text text-anchor="start" x="1890" y="-152.5" font-family="Helvetica,sans-Serif" font-size="10.00">seerep&#45;msgs/transform</text>
<text text-anchor="middle" x="1947.5" y="-141.5" font-family="Helvetica,sans-Serif" font-size="10.00">_stamped_query.pb.h</text>
</a>
</g>
</g>
<!-- Node56&#45;&gt;Node58 -->
<g id="edge171" class="edge">
<title>Node56&#45;&gt;Node58</title>
<path fill="none" stroke="midnightblue" d="M2240.49,-204.91C2181.37,-193.93 2088.64,-176.71 2023.37,-164.59"/>
<polygon fill="midnightblue" stroke="midnightblue" points="2023.61,-161.07 2013.13,-162.69 2022.33,-167.96 2023.61,-161.07"/>
</g>
</g>
</svg>
