<?xml version="1.0" encoding="UTF-8" standalone="no"?>
<!DOCTYPE svg PUBLIC "-//W3C//DTD SVG 1.1//EN"
 "http://www.w3.org/Graphics/SVG/1.1/DTD/svg11.dtd">
<!-- Generated by graphviz version 2.43.0 (0)
 -->
<!-- Title: seerep&#45;srv/seerep&#45;server/include/seerep&#45;server/pb&#45;image&#45;service.h Pages: 1 -->
<svg width="5172pt" height="597pt"
 viewBox="0.00 0.00 5171.50 597.00" xmlns="http://www.w3.org/2000/svg" xmlns:xlink="http://www.w3.org/1999/xlink">
<g id="graph0" class="graph" transform="scale(1 1) rotate(0) translate(4 593)">
<title>seerep&#45;srv/seerep&#45;server/include/seerep&#45;server/pb&#45;image&#45;service.h</title>
<!-- Node1 -->
<g id="node1" class="node">
<title>Node1</title>
<g id="a_node1"><a xlink:title=" ">
<polygon fill="#bfbfbf" stroke="black" points="2531.5,-547.5 2531.5,-588.5 2670.5,-588.5 2670.5,-547.5 2531.5,-547.5"/>
<text text-anchor="start" x="2539.5" y="-576.5" font-family="Helvetica,sans-Serif" font-size="10.00">seerep&#45;srv/seerep&#45;server</text>
<text text-anchor="start" x="2539.5" y="-565.5" font-family="Helvetica,sans-Serif" font-size="10.00">/include/seerep&#45;server</text>
<text text-anchor="middle" x="2601" y="-554.5" font-family="Helvetica,sans-Serif" font-size="10.00">/pb&#45;image&#45;service.h</text>
</a>
</g>
</g>
<!-- Node2 -->
<g id="node2" class="node">
<title>Node2</title>
<g id="a_node2"><a xlink:title=" ">
<polygon fill="none" stroke="#bfbfbf" points="27.5,-424.5 27.5,-443.5 222.5,-443.5 222.5,-424.5 27.5,-424.5"/>
<text text-anchor="middle" x="125" y="-431.5" font-family="Helvetica,sans-Serif" font-size="10.00">seerep&#45;com/image&#45;service.grpc.pb.h</text>
</a>
</g>
</g>
<!-- Node1&#45;&gt;Node2 -->
<g id="edge1" class="edge">
<title>Node1&#45;&gt;Node2</title>
<path fill="none" stroke="midnightblue" d="M2531.31,-564.11C2246.43,-552.16 1142.63,-504.32 236,-444 234.91,-443.93 233.82,-443.85 232.73,-443.78"/>
<polygon fill="midnightblue" stroke="midnightblue" points="232.96,-440.29 222.75,-443.08 232.48,-447.27 232.96,-440.29"/>
</g>
<!-- Node3 -->
<g id="node3" class="node">
<title>Node3</title>
<g id="a_node3"><a xlink:href="core-pb-image_8h.html" target="_top" xlink:title=" ">
<polygon fill="none" stroke="black" points="1737,-480.5 1737,-510.5 1851,-510.5 1851,-480.5 1737,-480.5"/>
<text text-anchor="start" x="1745" y="-498.5" font-family="Helvetica,sans-Serif" font-size="10.00">seerep&#45;core&#45;pb/core</text>
<text text-anchor="middle" x="1794" y="-487.5" font-family="Helvetica,sans-Serif" font-size="10.00">&#45;pb&#45;image.h</text>
</a>
</g>
</g>
<!-- Node1&#45;&gt;Node3 -->
<g id="edge2" class="edge">
<title>Node1&#45;&gt;Node3</title>
<path fill="none" stroke="midnightblue" d="M2531.5,-560.93C2378.17,-547.53 2012.57,-515.59 1861.3,-502.38"/>
<polygon fill="midnightblue" stroke="midnightblue" points="1861.49,-498.88 1851.22,-501.5 1860.88,-505.86 1861.49,-498.88"/>
</g>
<!-- Node23 -->
<g id="node20" class="node">
<title>Node23</title>
<g id="a_node20"><a xlink:title=" ">
<polygon fill="none" stroke="#bfbfbf" points="101.5,-6 101.5,-36 246.5,-36 246.5,-6 101.5,-6"/>
<text text-anchor="start" x="109.5" y="-24" font-family="Helvetica,sans-Serif" font-size="10.00">boost/log/sources/severity</text>
<text text-anchor="middle" x="174" y="-13" font-family="Helvetica,sans-Serif" font-size="10.00">_logger.hpp</text>
</a>
</g>
</g>
<!-- Node1&#45;&gt;Node23 -->
<g id="edge187" class="edge">
<title>Node1&#45;&gt;Node23</title>
<path fill="none" stroke="midnightblue" d="M2531.43,-567.2C2117.8,-567.98 0,-565.56 0,-435 0,-435 0,-435 0,-170.5 0,-104.89 72.47,-62.11 123.87,-40.03"/>
<polygon fill="midnightblue" stroke="midnightblue" points="125.32,-43.22 133.2,-36.14 122.63,-36.75 125.32,-43.22"/>
</g>
<!-- Node24 -->
<g id="node21" class="node">
<title>Node24</title>
<g id="a_node21"><a xlink:title=" ">
<polygon fill="none" stroke="#bfbfbf" points="4835,-11.5 4835,-30.5 4949,-30.5 4949,-11.5 4835,-11.5"/>
<text text-anchor="middle" x="4892" y="-18.5" font-family="Helvetica,sans-Serif" font-size="10.00">boost/log/trivial.hpp</text>
</a>
</g>
</g>
<!-- Node1&#45;&gt;Node24 -->
<g id="edge188" class="edge">
<title>Node1&#45;&gt;Node24</title>
<path fill="none" stroke="midnightblue" d="M2670.6,-567.03C3072.83,-566.76 5082,-559.21 5082,-435 5082,-435 5082,-435 5082,-170.5 5082,-122.21 5061.67,-109.42 5025,-78 4999.84,-56.44 4965.18,-42.21 4937.55,-33.49"/>
<polygon fill="midnightblue" stroke="midnightblue" points="4938.3,-30.06 4927.72,-30.52 4936.28,-36.76 4938.3,-30.06"/>
</g>
<!-- Node37 -->
<g id="node33" class="node">
<title>Node37</title>
<g id="a_node33"><a xlink:href="core_8h.html" target="_top" xlink:title=" ">
<polygon fill="none" stroke="black" points="3329.5,-424.5 3329.5,-443.5 3436.5,-443.5 3436.5,-424.5 3329.5,-424.5"/>
<text text-anchor="middle" x="3383" y="-431.5" font-family="Helvetica,sans-Serif" font-size="10.00">seerep&#45;core/core.h</text>
</a>
</g>
</g>
<!-- Node1&#45;&gt;Node37 -->
<g id="edge185" class="edge">
<title>Node1&#45;&gt;Node37</title>
<path fill="none" stroke="midnightblue" d="M2670.74,-555.23C2822.27,-529.65 3179.39,-469.37 3322.32,-445.24"/>
<polygon fill="midnightblue" stroke="midnightblue" points="3322.95,-448.69 3332.23,-443.57 3321.79,-441.78 3322.95,-448.69"/>
</g>
<!-- Node63 -->
<g id="node50" class="node">
<title>Node63</title>
<g id="a_node50"><a xlink:title=" ">
<polygon fill="none" stroke="#bfbfbf" points="5110.5,-486 5110.5,-505 5163.5,-505 5163.5,-486 5110.5,-486"/>
<text text-anchor="middle" x="5137" y="-493" font-family="Helvetica,sans-Serif" font-size="10.00">util.hpp</text>
</a>
</g>
</g>
<!-- Node1&#45;&gt;Node63 -->
<g id="edge186" class="edge">
<title>Node1&#45;&gt;Node63</title>
<path fill="none" stroke="midnightblue" d="M2670.57,-566.75C3049.05,-565.23 4852.08,-555.68 5096,-511 5099.71,-510.32 5103.53,-509.35 5107.28,-508.24"/>
<polygon fill="midnightblue" stroke="midnightblue" points="5108.53,-511.51 5116.91,-505.03 5106.32,-504.87 5108.53,-511.51"/>
</g>
<!-- Node3&#45;&gt;Node2 -->
<g id="edge56" class="edge">
<title>Node3&#45;&gt;Node2</title>
<path fill="none" stroke="midnightblue" d="M1736.66,-493.64C1532.46,-490.39 821.65,-477.21 236,-444 234.91,-443.94 233.82,-443.88 232.73,-443.81"/>
<polygon fill="midnightblue" stroke="midnightblue" points="232.94,-440.32 222.74,-443.19 232.5,-447.3 232.94,-440.32"/>
</g>
<!-- Node4 -->
<g id="node4" class="node">
<title>Node4</title>
<g id="a_node4"><a xlink:title=" ">
<polygon fill="none" stroke="#bfbfbf" points="4152.5,-162 4152.5,-181 4217.5,-181 4217.5,-162 4152.5,-162"/>
<text text-anchor="middle" x="4185" y="-169" font-family="Helvetica,sans-Serif" font-size="10.00">functional</text>
</a>
</g>
</g>
<!-- Node3&#45;&gt;Node4 -->
<g id="edge3" class="edge">
<title>Node3&#45;&gt;Node4</title>
<path fill="none" stroke="midnightblue" d="M1851.29,-494.08C2212.18,-491.36 4164.36,-475.28 4428,-444 4542.79,-430.38 4609.59,-478.11 4682,-388 4690.63,-377.26 4690.59,-367.77 4682,-357 4618.06,-276.78 4314.51,-314.96 4232,-254 4210.6,-238.19 4197.4,-209.49 4190.63,-190.71"/>
<polygon fill="midnightblue" stroke="midnightblue" points="4193.95,-189.58 4187.45,-181.21 4187.31,-191.81 4193.95,-189.58"/>
</g>
<!-- Node5 -->
<g id="node5" class="node">
<title>Node5</title>
<g id="a_node5"><a xlink:title=" ">
<polygon fill="none" stroke="#bfbfbf" points="2620,-11.5 2620,-30.5 2676,-30.5 2676,-11.5 2620,-11.5"/>
<text text-anchor="middle" x="2648" y="-18.5" font-family="Helvetica,sans-Serif" font-size="10.00">optional</text>
</a>
</g>
</g>
<!-- Node3&#45;&gt;Node5 -->
<g id="edge4" class="edge">
<title>Node3&#45;&gt;Node5</title>
<path fill="none" stroke="midnightblue" d="M1771.97,-480.21C1743.9,-460.07 1699,-420.51 1699,-373.5 1699,-373.5 1699,-373.5 1699,-237.5 1699,-193.3 1718.29,-179.06 1756,-156 1855.9,-94.92 1901.09,-136.64 2017,-120 2249.63,-86.61 2308.2,-80.74 2540,-42 2563.17,-38.13 2589.05,-33.35 2609.66,-29.44"/>
<polygon fill="midnightblue" stroke="midnightblue" points="2610.46,-32.85 2619.62,-27.54 2609.15,-25.97 2610.46,-32.85"/>
</g>
<!-- Node6 -->
<g id="node6" class="node">
<title>Node6</title>
<g id="a_node6"><a xlink:title=" ">
<polygon fill="none" stroke="#bfbfbf" points="1229.5,-162 1229.5,-181 1366.5,-181 1366.5,-162 1229.5,-162"/>
<text text-anchor="middle" x="1298" y="-169" font-family="Helvetica,sans-Serif" font-size="10.00">seerep&#45;msgs/image.pb.h</text>
</a>
</g>
</g>
<!-- Node3&#45;&gt;Node6 -->
<g id="edge5" class="edge">
<title>Node3&#45;&gt;Node6</title>
<path fill="none" stroke="midnightblue" d="M1736.71,-491.45C1639.7,-485.63 1447.6,-471.02 1386,-444 1334.31,-421.32 1195.95,-286.99 1182,-254 1176.63,-241.31 1174.45,-234.52 1182,-223 1194.79,-203.48 1216.94,-191.47 1238.48,-184.09"/>
<polygon fill="midnightblue" stroke="midnightblue" points="1239.8,-187.34 1248.3,-181.02 1237.71,-180.66 1239.8,-187.34"/>
</g>
<!-- Node7 -->
<g id="node7" class="node">
<title>Node7</title>
<g id="a_node7"><a xlink:title=" ">
<polygon fill="none" stroke="#bfbfbf" points="1537.5,-162 1537.5,-181 1670.5,-181 1670.5,-162 1537.5,-162"/>
<text text-anchor="middle" x="1604" y="-169" font-family="Helvetica,sans-Serif" font-size="10.00">seerep&#45;msgs/query.pb.h</text>
</a>
</g>
</g>
<!-- Node3&#45;&gt;Node7 -->
<g id="edge6" class="edge">
<title>Node3&#45;&gt;Node7</title>
<path fill="none" stroke="midnightblue" d="M1736.8,-487.38C1635.01,-473.1 1433,-436.79 1433,-373.5 1433,-373.5 1433,-373.5 1433,-304.5 1433,-239.1 1512.34,-201.55 1562.93,-184.26"/>
<polygon fill="midnightblue" stroke="midnightblue" points="1564.23,-187.51 1572.64,-181.06 1562.04,-180.86 1564.23,-187.51"/>
</g>
<!-- Node8 -->
<g id="node8" class="node">
<title>Node8</title>
<g id="a_node8"><a xlink:title=" ">
<polygon fill="none" stroke="#bfbfbf" points="2478.5,-162 2478.5,-181 2629.5,-181 2629.5,-162 2478.5,-162"/>
<text text-anchor="middle" x="2554" y="-169" font-family="Helvetica,sans-Serif" font-size="10.00">seerep&#45;msgs/query&#45;result.h</text>
</a>
</g>
</g>
<!-- Node3&#45;&gt;Node8 -->
<g id="edge7" class="edge">
<title>Node3&#45;&gt;Node8</title>
<path fill="none" stroke="midnightblue" d="M1782.19,-480.25C1765.49,-458.61 1737,-415.53 1737,-373.5 1737,-373.5 1737,-373.5 1737,-304.5 1737,-139.75 2306.46,-213.91 2469,-187 2477.28,-185.63 2486.01,-184.16 2494.6,-182.71"/>
<polygon fill="midnightblue" stroke="midnightblue" points="2495.3,-186.14 2504.57,-181.02 2494.13,-179.24 2495.3,-186.14"/>
</g>
<!-- Node9 -->
<g id="node9" class="node">
<title>Node9</title>
<g id="a_node9"><a xlink:title=" ">
<polygon fill="none" stroke="#bfbfbf" points="4016,-162 4016,-181 4134,-181 4134,-162 4016,-162"/>
<text text-anchor="middle" x="4075" y="-169" font-family="Helvetica,sans-Serif" font-size="10.00">seerep&#45;msgs/query.h</text>
</a>
</g>
</g>
<!-- Node3&#45;&gt;Node9 -->
<g id="edge8" class="edge">
<title>Node3&#45;&gt;Node9</title>
<path fill="none" stroke="midnightblue" d="M1851.1,-494.61C2246.46,-495.12 4564.18,-493.56 4665,-388 4674.52,-378.04 4674.1,-367.34 4665,-357 4623.41,-309.74 4445.2,-335.76 4384,-321 4298.58,-300.41 4276.52,-293.44 4198,-254 4159.03,-234.43 4117.49,-204.84 4094.04,-187.22"/>
<polygon fill="midnightblue" stroke="midnightblue" points="4096.06,-184.36 4085.98,-181.1 4091.82,-189.93 4096.06,-184.36"/>
</g>
<!-- Node10 -->
<g id="node10" class="node">
<title>Node10</title>
<g id="a_node10"><a xlink:href="hdf5-pb-image_8h.html" target="_top" xlink:title=" ">
<polygon fill="none" stroke="black" points="1191,-223.5 1191,-253.5 1307,-253.5 1307,-223.5 1191,-223.5"/>
<text text-anchor="start" x="1199" y="-241.5" font-family="Helvetica,sans-Serif" font-size="10.00">seerep&#45;hdf5&#45;pb/hdf5</text>
<text text-anchor="middle" x="1249" y="-230.5" font-family="Helvetica,sans-Serif" font-size="10.00">&#45;pb&#45;image.h</text>
</a>
</g>
</g>
<!-- Node3&#45;&gt;Node10 -->
<g id="edge9" class="edge">
<title>Node3&#45;&gt;Node10</title>
<path fill="none" stroke="midnightblue" d="M1736.84,-491.85C1645.72,-486.8 1472.38,-473.55 1419,-444 1341.08,-400.87 1284.06,-306.62 1260.69,-262.78"/>
<polygon fill="midnightblue" stroke="midnightblue" points="1263.7,-260.99 1255.97,-253.74 1257.5,-264.23 1263.7,-260.99"/>
</g>
<!-- Node15 -->
<g id="node15" class="node">
<title>Node15</title>
<g id="a_node15"><a xlink:title=" ">
<polygon fill="none" stroke="#bfbfbf" points="3363.5,-11.5 3363.5,-30.5 3476.5,-30.5 3476.5,-11.5 3363.5,-11.5"/>
<text text-anchor="middle" x="3420" y="-18.5" font-family="Helvetica,sans-Serif" font-size="10.00">boost/uuid/uuid.hpp</text>
</a>
</g>
</g>
<!-- Node3&#45;&gt;Node15 -->
<g id="edge180" class="edge">
<title>Node3&#45;&gt;Node15</title>
<path fill="none" stroke="midnightblue" d="M1851.1,-490.38C2106.89,-470.91 3145.76,-380.93 3397,-187 3441.21,-152.87 3431.81,-76.35 3424.52,-40.81"/>
<polygon fill="midnightblue" stroke="midnightblue" points="3427.89,-39.81 3422.3,-30.81 3421.06,-41.33 3427.89,-39.81"/>
</g>
<!-- Node3&#45;&gt;Node23 -->
<g id="edge183" class="edge">
<title>Node3&#45;&gt;Node23</title>
<path fill="none" stroke="midnightblue" d="M1736.68,-492.97C1502.61,-486.63 625.91,-461.91 503,-444 403.59,-429.51 358.17,-455.76 284,-388 182.36,-295.14 173.22,-112.37 173.4,-46.44"/>
<polygon fill="midnightblue" stroke="midnightblue" points="176.91,-46.25 173.51,-36.21 169.91,-46.17 176.91,-46.25"/>
</g>
<!-- Node3&#45;&gt;Node24 -->
<g id="edge184" class="edge">
<title>Node3&#45;&gt;Node24</title>
<path fill="none" stroke="midnightblue" d="M1851.03,-494.32C2261.77,-492.93 4756.94,-482.89 4911,-444 4975.87,-427.62 5044,-440.4 5044,-373.5 5044,-373.5 5044,-373.5 5044,-170.5 5044,-102.96 4966.27,-56.08 4921.98,-34.85"/>
<polygon fill="midnightblue" stroke="midnightblue" points="4923.36,-31.63 4912.82,-30.59 4920.41,-37.98 4923.36,-31.63"/>
</g>
<!-- Node25 -->
<g id="node22" class="node">
<title>Node25</title>
<g id="a_node22"><a xlink:title=" ">
<polygon fill="none" stroke="#bfbfbf" points="3763.5,-11.5 3763.5,-30.5 3906.5,-30.5 3906.5,-11.5 3763.5,-11.5"/>
<text text-anchor="middle" x="3835" y="-18.5" font-family="Helvetica,sans-Serif" font-size="10.00">boost/functional/hash.hpp</text>
</a>
</g>
</g>
<!-- Node3&#45;&gt;Node25 -->
<g id="edge178" class="edge">
<title>Node3&#45;&gt;Node25</title>
<path fill="none" stroke="midnightblue" d="M1851.22,-494.28C2221.62,-492.71 4273.3,-482.36 4549,-444 4670.56,-427.09 4816,-496.23 4816,-373.5 4816,-373.5 4816,-373.5 4816,-170.5 4816,15.26 4174.7,-61.8 3990,-42 3962.73,-39.08 3932.83,-35.34 3906.63,-31.9"/>
<polygon fill="midnightblue" stroke="midnightblue" points="3906.78,-28.38 3896.4,-30.54 3905.86,-35.32 3906.78,-28.38"/>
</g>
<!-- Node26 -->
<g id="node23" class="node">
<title>Node26</title>
<g id="a_node23"><a xlink:title=" ">
<polygon fill="none" stroke="#bfbfbf" points="3998.5,-11.5 3998.5,-30.5 4123.5,-30.5 4123.5,-11.5 3998.5,-11.5"/>
<text text-anchor="middle" x="4061" y="-18.5" font-family="Helvetica,sans-Serif" font-size="10.00">boost/lexical_cast.hpp</text>
</a>
</g>
</g>
<!-- Node3&#45;&gt;Node26 -->
<g id="edge179" class="edge">
<title>Node3&#45;&gt;Node26</title>
<path fill="none" stroke="midnightblue" d="M1851.03,-494.42C2231.7,-493.74 4398.13,-487.95 4688,-444 4798.76,-427.21 4930,-485.53 4930,-373.5 4930,-373.5 4930,-373.5 4930,-170.5 4930,-90.66 4852.05,-102.32 4776,-78 4760.83,-73.15 4312.98,-40.27 4133.93,-27.27"/>
<polygon fill="midnightblue" stroke="midnightblue" points="4134.03,-23.77 4123.81,-26.54 4133.53,-30.75 4134.03,-23.77"/>
</g>
<!-- Node27 -->
<g id="node24" class="node">
<title>Node27</title>
<g id="a_node24"><a xlink:title=" ">
<polygon fill="none" stroke="#bfbfbf" points="4351,-11.5 4351,-30.5 4521,-30.5 4521,-11.5 4351,-11.5"/>
<text text-anchor="middle" x="4436" y="-18.5" font-family="Helvetica,sans-Serif" font-size="10.00">boost/uuid/uuid_generators.hpp</text>
</a>
</g>
</g>
<!-- Node3&#45;&gt;Node27 -->
<g id="edge181" class="edge">
<title>Node3&#45;&gt;Node27</title>
<path fill="none" stroke="midnightblue" d="M1851.02,-494.69C2241.36,-495.86 4512.6,-500.19 4814,-444 4903.36,-427.34 5006,-464.4 5006,-373.5 5006,-373.5 5006,-373.5 5006,-170.5 5006,-73.53 4693.16,-38.73 4531.01,-27.21"/>
<polygon fill="midnightblue" stroke="midnightblue" points="4531.25,-23.72 4521.03,-26.52 4530.76,-30.7 4531.25,-23.72"/>
</g>
<!-- Node28 -->
<g id="node25" class="node">
<title>Node28</title>
<g id="a_node25"><a xlink:title=" ">
<polygon fill="none" stroke="#bfbfbf" points="1680.5,-11.5 1680.5,-30.5 1807.5,-30.5 1807.5,-11.5 1680.5,-11.5"/>
<text text-anchor="middle" x="1744" y="-18.5" font-family="Helvetica,sans-Serif" font-size="10.00">boost/uuid/uuid_io.hpp</text>
</a>
</g>
</g>
<!-- Node3&#45;&gt;Node28 -->
<g id="edge182" class="edge">
<title>Node3&#45;&gt;Node28</title>
<path fill="none" stroke="midnightblue" d="M1736.8,-492.96C1461.71,-485.17 288,-447.6 288,-373.5 288,-373.5 288,-373.5 288,-170.5 288,-122.21 303.18,-102.14 345,-78 405.55,-43.04 1533.33,-47.92 1603,-42 1629.63,-39.74 1658.92,-35.82 1683.86,-32.05"/>
<polygon fill="midnightblue" stroke="midnightblue" points="1684.56,-35.48 1693.91,-30.5 1683.49,-28.56 1684.56,-35.48"/>
</g>
<!-- Node3&#45;&gt;Node37 -->
<g id="edge57" class="edge">
<title>Node3&#45;&gt;Node37</title>
<path fill="none" stroke="midnightblue" d="M1851.02,-492.36C2096.24,-483.18 3060.3,-447.08 3318.88,-437.4"/>
<polygon fill="midnightblue" stroke="midnightblue" points="3319.36,-440.89 3329.23,-437.01 3319.1,-433.89 3319.36,-440.89"/>
</g>
<!-- Node59 -->
<g id="node46" class="node">
<title>Node59</title>
<g id="a_node46"><a xlink:href="core-pb-conversion_8h.html" target="_top" xlink:title=" ">
<polygon fill="none" stroke="black" points="2554,-223.5 2554,-253.5 2668,-253.5 2668,-223.5 2554,-223.5"/>
<text text-anchor="start" x="2562" y="-241.5" font-family="Helvetica,sans-Serif" font-size="10.00">seerep&#45;core&#45;pb/core</text>
<text text-anchor="middle" x="2611" y="-230.5" font-family="Helvetica,sans-Serif" font-size="10.00">&#45;pb&#45;conversion.h</text>
</a>
</g>
</g>
<!-- Node3&#45;&gt;Node59 -->
<g id="edge160" class="edge">
<title>Node3&#45;&gt;Node59</title>
<path fill="none" stroke="midnightblue" d="M1789.29,-480.28C1781.13,-452.66 1768.04,-391.48 1799,-357 1897.44,-247.38 2367.06,-238.2 2543.66,-238.71"/>
<polygon fill="midnightblue" stroke="midnightblue" points="2543.84,-242.21 2553.86,-238.75 2543.87,-235.21 2543.84,-242.21"/>
</g>
<!-- Node10&#45;&gt;Node5 -->
<g id="edge55" class="edge">
<title>Node10&#45;&gt;Node5</title>
<path fill="none" stroke="midnightblue" d="M1289.13,-223.48C1342.87,-205.25 1441.47,-173.64 1528,-156 1600.14,-141.29 2112.82,-86.06 2186,-78 2343.19,-60.69 2383.45,-64.42 2540,-42 2563.25,-38.67 2589.14,-33.91 2609.73,-29.88"/>
<polygon fill="midnightblue" stroke="midnightblue" points="2610.55,-33.28 2619.68,-27.9 2609.19,-26.41 2610.55,-33.28"/>
</g>
<!-- Node10&#45;&gt;Node6 -->
<g id="edge53" class="edge">
<title>Node10&#45;&gt;Node6</title>
<path fill="none" stroke="midnightblue" d="M1259.63,-223.4C1267.2,-213.36 1277.39,-199.84 1285.37,-189.25"/>
<polygon fill="midnightblue" stroke="midnightblue" points="1288.22,-191.29 1291.45,-181.19 1282.63,-187.07 1288.22,-191.29"/>
</g>
<!-- Node11 -->
<g id="node11" class="node">
<title>Node11</title>
<g id="a_node11"><a xlink:title=" ">
<polygon fill="none" stroke="#bfbfbf" points="2421,-11.5 2421,-30.5 2531,-30.5 2531,-11.5 2421,-11.5"/>
<text text-anchor="middle" x="2476" y="-18.5" font-family="Helvetica,sans-Serif" font-size="10.00">highfive/H5File.hpp</text>
</a>
</g>
</g>
<!-- Node10&#45;&gt;Node11 -->
<g id="edge10" class="edge">
<title>Node10&#45;&gt;Node11</title>
<path fill="none" stroke="midnightblue" d="M1236.32,-223.42C1221.92,-205.69 1202.53,-175.23 1220,-156 1231.11,-143.77 2387.76,-45.01 2404,-42 2415.84,-39.8 2428.56,-36.57 2439.96,-33.34"/>
<polygon fill="midnightblue" stroke="midnightblue" points="2440.97,-36.69 2449.59,-30.53 2439.01,-29.97 2440.97,-36.69"/>
</g>
<!-- Node12 -->
<g id="node12" class="node">
<title>Node12</title>
<g id="a_node12"><a xlink:href="hdf5-core-image_8h.html" target="_top" xlink:title=" ">
<polygon fill="none" stroke="black" points="2335.5,-156.5 2335.5,-186.5 2460.5,-186.5 2460.5,-156.5 2335.5,-156.5"/>
<text text-anchor="start" x="2343.5" y="-174.5" font-family="Helvetica,sans-Serif" font-size="10.00">seerep&#45;hdf5&#45;core/hdf5</text>
<text text-anchor="middle" x="2398" y="-163.5" font-family="Helvetica,sans-Serif" font-size="10.00">&#45;core&#45;image.h</text>
</a>
</g>
</g>
<!-- Node10&#45;&gt;Node12 -->
<g id="edge11" class="edge">
<title>Node10&#45;&gt;Node12</title>
<path fill="none" stroke="midnightblue" d="M1307.04,-234.96C1456.8,-228.29 1868.46,-209.27 2211,-187 2248.71,-184.55 2290.65,-181.34 2325.25,-178.56"/>
<polygon fill="midnightblue" stroke="midnightblue" points="2325.58,-182.05 2335.27,-177.76 2325.02,-175.07 2325.58,-182.05"/>
</g>
<!-- Node20 -->
<g id="node19" class="node">
<title>Node20</title>
<g id="a_node19"><a xlink:title=" ">
<polygon fill="none" stroke="#bfbfbf" points="1957.5,-11.5 1957.5,-30.5 2070.5,-30.5 2070.5,-11.5 1957.5,-11.5"/>
<text text-anchor="middle" x="2014" y="-18.5" font-family="Helvetica,sans-Serif" font-size="10.00">boost/geometry.hpp</text>
</a>
</g>
</g>
<!-- Node10&#45;&gt;Node20 -->
<g id="edge54" class="edge">
<title>Node10&#45;&gt;Node20</title>
<path fill="none" stroke="midnightblue" d="M1225.22,-223.31C1200.43,-206.77 1167.7,-178.79 1187,-156 1199.39,-141.36 1753.04,-59.84 1947.4,-31.62"/>
<polygon fill="midnightblue" stroke="midnightblue" points="1948.09,-35.06 1957.49,-30.16 1947.09,-28.13 1948.09,-35.06"/>
</g>
<!-- Node30 -->
<g id="node26" class="node">
<title>Node30</title>
<g id="a_node26"><a xlink:href="hdf5-pb-general_8h.html" target="_top" xlink:title=" ">
<polygon fill="none" stroke="black" points="943,-156.5 943,-186.5 1059,-186.5 1059,-156.5 943,-156.5"/>
<text text-anchor="start" x="951" y="-174.5" font-family="Helvetica,sans-Serif" font-size="10.00">seerep&#45;hdf5&#45;pb/hdf5</text>
<text text-anchor="middle" x="1001" y="-163.5" font-family="Helvetica,sans-Serif" font-size="10.00">&#45;pb&#45;general.h</text>
</a>
</g>
</g>
<!-- Node10&#45;&gt;Node30 -->
<g id="edge40" class="edge">
<title>Node10&#45;&gt;Node30</title>
<path fill="none" stroke="midnightblue" d="M1195.49,-223.48C1157.08,-213.41 1105.16,-199.8 1064.62,-189.17"/>
<polygon fill="midnightblue" stroke="midnightblue" points="1065.4,-185.76 1054.84,-186.61 1063.62,-192.53 1065.4,-185.76"/>
</g>
<!-- Node12&#45;&gt;Node5 -->
<g id="edge34" class="edge">
<title>Node12&#45;&gt;Node5</title>
<path fill="none" stroke="midnightblue" d="M2387.95,-156.31C2375.32,-136.6 2357.44,-100.78 2376,-78 2379.72,-73.44 2536.09,-43.24 2610.02,-29.18"/>
<polygon fill="midnightblue" stroke="midnightblue" points="2610.71,-32.61 2619.88,-27.31 2609.4,-25.73 2610.71,-32.61"/>
</g>
<!-- Node12&#45;&gt;Node11 -->
<g id="edge12" class="edge">
<title>Node12&#45;&gt;Node11</title>
<path fill="none" stroke="midnightblue" d="M2341.34,-156.46C2308.44,-147.04 2271.63,-133.85 2262,-120 2251.34,-104.67 2250.54,-92.73 2262,-78 2301.98,-26.62 2341.07,-58.71 2404,-42 2414.45,-39.22 2425.73,-36.13 2436.19,-33.23"/>
<polygon fill="midnightblue" stroke="midnightblue" points="2437.22,-36.58 2445.91,-30.52 2435.34,-29.83 2437.22,-36.58"/>
</g>
<!-- Node13 -->
<g id="node13" class="node">
<title>Node13</title>
<g id="a_node13"><a xlink:href="hdf5-core-datatype-interface_8h.html" target="_top" xlink:title=" ">
<polygon fill="none" stroke="black" points="2790.5,-84 2790.5,-114 2935.5,-114 2935.5,-84 2790.5,-84"/>
<text text-anchor="start" x="2798.5" y="-102" font-family="Helvetica,sans-Serif" font-size="10.00">seerep&#45;hdf5&#45;core/hdf5</text>
<text text-anchor="middle" x="2863" y="-91" font-family="Helvetica,sans-Serif" font-size="10.00">&#45;core&#45;datatype&#45;interface.h</text>
</a>
</g>
</g>
<!-- Node12&#45;&gt;Node13 -->
<g id="edge13" class="edge">
<title>Node12&#45;&gt;Node13</title>
<path fill="none" stroke="midnightblue" d="M2460.68,-157.49C2463.49,-156.97 2466.27,-156.47 2469,-156 2576.07,-137.48 2700.29,-120.58 2780.17,-110.3"/>
<polygon fill="midnightblue" stroke="midnightblue" points="2780.7,-113.76 2790.18,-109.01 2779.81,-106.81 2780.7,-113.76"/>
</g>
<!-- Node14 -->
<g id="node14" class="node">
<title>Node14</title>
<g id="a_node14"><a xlink:title=" ">
<polygon fill="none" stroke="#bfbfbf" points="1475.5,-6 1475.5,-36 1594.5,-36 1594.5,-6 1475.5,-6"/>
<text text-anchor="start" x="1483.5" y="-24" font-family="Helvetica,sans-Serif" font-size="10.00">seerep&#45;msgs/dataset</text>
<text text-anchor="middle" x="1535" y="-13" font-family="Helvetica,sans-Serif" font-size="10.00">&#45;indexable.h</text>
</a>
</g>
</g>
<!-- Node12&#45;&gt;Node14 -->
<g id="edge31" class="edge">
<title>Node12&#45;&gt;Node14</title>
<path fill="none" stroke="midnightblue" d="M2335.15,-163.92C2307.52,-161.19 2274.67,-158.16 2245,-156 2205.89,-153.15 1567.73,-147.73 1540,-120 1521.07,-101.07 1523.5,-68.46 1528.19,-46.1"/>
<polygon fill="midnightblue" stroke="midnightblue" points="1531.6,-46.87 1530.52,-36.34 1524.79,-45.25 1531.6,-46.87"/>
</g>
<!-- Node12&#45;&gt;Node15 -->
<g id="edge37" class="edge">
<title>Node12&#45;&gt;Node15</title>
<path fill="none" stroke="midnightblue" d="M2445.9,-156.48C2517.95,-135.96 2658.81,-97.99 2781,-78 2987.96,-44.13 3236.21,-29.79 3353.02,-24.57"/>
<polygon fill="midnightblue" stroke="midnightblue" points="3353.39,-28.06 3363.23,-24.12 3353.09,-21.07 3353.39,-28.06"/>
</g>
<!-- Node16 -->
<g id="node16" class="node">
<title>Node16</title>
<g id="a_node16"><a xlink:href="hdf5-core-general_8h.html" target="_top" xlink:title=" ">
<polygon fill="none" stroke="red" points="2418.5,-84 2418.5,-114 2543.5,-114 2543.5,-84 2418.5,-84"/>
<text text-anchor="start" x="2426.5" y="-102" font-family="Helvetica,sans-Serif" font-size="10.00">seerep&#45;hdf5&#45;core/hdf5</text>
<text text-anchor="middle" x="2481" y="-91" font-family="Helvetica,sans-Serif" font-size="10.00">&#45;core&#45;general.h</text>
</a>
</g>
</g>
<!-- Node12&#45;&gt;Node16 -->
<g id="edge17" class="edge">
<title>Node12&#45;&gt;Node16</title>
<path fill="none" stroke="midnightblue" d="M2414.8,-156.23C2426.8,-146.04 2443.14,-132.16 2456.58,-120.74"/>
<polygon fill="midnightblue" stroke="midnightblue" points="2459.16,-123.15 2464.51,-114 2454.62,-117.81 2459.16,-123.15"/>
</g>
<!-- Node19 -->
<g id="node18" class="node">
<title>Node19</title>
<g id="a_node18"><a xlink:title=" ">
<polygon fill="none" stroke="#bfbfbf" points="2283,-0.5 2283,-41.5 2395,-41.5 2395,-0.5 2283,-0.5"/>
<text text-anchor="start" x="2291" y="-29.5" font-family="Helvetica,sans-Serif" font-size="10.00">seerep&#45;msgs/labels</text>
<text text-anchor="start" x="2291" y="-18.5" font-family="Helvetica,sans-Serif" font-size="10.00">&#45;with&#45;instance&#45;with</text>
<text text-anchor="middle" x="2339" y="-7.5" font-family="Helvetica,sans-Serif" font-size="10.00">&#45;category.h</text>
</a>
</g>
</g>
<!-- Node12&#45;&gt;Node19 -->
<g id="edge32" class="edge">
<title>Node12&#45;&gt;Node19</title>
<path fill="none" stroke="midnightblue" d="M2336.38,-156.43C2289.21,-145.04 2231.06,-129.4 2224,-120 2212.79,-105.07 2214.1,-93.83 2224,-78 2235.28,-59.96 2254.23,-47.58 2273.52,-39.15"/>
<polygon fill="midnightblue" stroke="midnightblue" points="2275.03,-42.31 2282.99,-35.32 2272.41,-35.82 2275.03,-42.31"/>
</g>
<!-- Node12&#45;&gt;Node20 -->
<g id="edge33" class="edge">
<title>Node12&#45;&gt;Node20</title>
<path fill="none" stroke="midnightblue" d="M2335.39,-156.57C2299.1,-147.72 2252.85,-135.09 2213,-120 2147.54,-95.21 2074.72,-56.22 2037.99,-35.69"/>
<polygon fill="midnightblue" stroke="midnightblue" points="2039.47,-32.51 2029.03,-30.65 2036.03,-38.61 2039.47,-32.51"/>
</g>
<!-- Node12&#45;&gt;Node25 -->
<g id="edge35" class="edge">
<title>Node12&#45;&gt;Node25</title>
<path fill="none" stroke="midnightblue" d="M2460.65,-157.26C2463.46,-156.81 2466.26,-156.38 2469,-156 2678.69,-126.76 2734.46,-150.25 2944,-120 3032.17,-107.27 3051.86,-90.94 3140,-78 3256.24,-60.94 3595.79,-37.55 3753.17,-27.24"/>
<polygon fill="midnightblue" stroke="midnightblue" points="3753.52,-30.73 3763.27,-26.58 3753.06,-23.74 3753.52,-30.73"/>
</g>
<!-- Node12&#45;&gt;Node26 -->
<g id="edge36" class="edge">
<title>Node12&#45;&gt;Node26</title>
<path fill="none" stroke="midnightblue" d="M2460.64,-157.21C2463.46,-156.77 2466.26,-156.36 2469,-156 2728.13,-121.77 2795.94,-146.2 3056,-120 3189.52,-106.55 3221.5,-91.64 3355,-78 3603.55,-52.6 3667.42,-67.09 3916,-42 3942.22,-39.35 3971,-35.57 3995.95,-32"/>
<polygon fill="midnightblue" stroke="midnightblue" points="3996.63,-35.44 4006.03,-30.54 3995.63,-28.51 3996.63,-35.44"/>
</g>
<!-- Node12&#45;&gt;Node27 -->
<g id="edge38" class="edge">
<title>Node12&#45;&gt;Node27</title>
<path fill="none" stroke="midnightblue" d="M2460.63,-157.17C2463.46,-156.74 2466.25,-156.34 2469,-156 2800.13,-114.49 2886.81,-151.87 3219,-120 3349.08,-107.52 3379.99,-91.11 3510,-78 3785.95,-50.16 3856.18,-59.13 4133,-42 4202.51,-37.7 4280.97,-32.51 4340.63,-28.5"/>
<polygon fill="midnightblue" stroke="midnightblue" points="4341.05,-31.98 4350.79,-27.81 4340.58,-24.99 4341.05,-31.98"/>
</g>
<!-- Node12&#45;&gt;Node28 -->
<g id="edge39" class="edge">
<title>Node12&#45;&gt;Node28</title>
<path fill="none" stroke="midnightblue" d="M2335.4,-158.64C2330.53,-157.74 2325.68,-156.85 2321,-156 2229.55,-139.4 2205.79,-139.89 2115,-120 1992.75,-93.22 1850.14,-52.97 1782.88,-33.44"/>
<polygon fill="midnightblue" stroke="midnightblue" points="1783.71,-30.04 1773.13,-30.6 1781.75,-36.76 1783.71,-30.04"/>
</g>
<!-- Node13&#45;&gt;Node5 -->
<g id="edge16" class="edge">
<title>Node13&#45;&gt;Node5</title>
<path fill="none" stroke="midnightblue" d="M2823.32,-83.97C2782.66,-69.6 2720.14,-47.5 2681.78,-33.94"/>
<polygon fill="midnightblue" stroke="midnightblue" points="2682.7,-30.55 2672.1,-30.52 2680.37,-37.15 2682.7,-30.55"/>
</g>
<!-- Node13&#45;&gt;Node14 -->
<g id="edge14" class="edge">
<title>Node13&#45;&gt;Node14</title>
<path fill="none" stroke="midnightblue" d="M2790.45,-92.85C2727.44,-88.5 2633.72,-82.3 2552,-78 2160.66,-57.42 2061.17,-78.56 1671,-42 1649.36,-39.97 1625.9,-36.86 1604.66,-33.68"/>
<polygon fill="midnightblue" stroke="midnightblue" points="1605.17,-30.22 1594.75,-32.17 1604.11,-37.14 1605.17,-30.22"/>
</g>
<!-- Node13&#45;&gt;Node15 -->
<g id="edge15" class="edge">
<title>Node13&#45;&gt;Node15</title>
<path fill="none" stroke="midnightblue" d="M2919.92,-83.99C2929.9,-81.8 2940.23,-79.7 2950,-78 3092.66,-53.18 3261.6,-36 3353.06,-27.7"/>
<polygon fill="midnightblue" stroke="midnightblue" points="3353.64,-31.16 3363.28,-26.78 3353.01,-24.19 3353.64,-31.16"/>
</g>
<!-- Node16&#45;&gt;Node5 -->
<g id="edge23" class="edge">
<title>Node16&#45;&gt;Node5</title>
<path fill="none" stroke="midnightblue" d="M2512.02,-83.88C2542.87,-69.84 2589.79,-48.49 2619.66,-34.9"/>
<polygon fill="midnightblue" stroke="midnightblue" points="2621.44,-37.93 2629.09,-30.61 2618.54,-31.56 2621.44,-37.93"/>
</g>
<!-- Node16&#45;&gt;Node11 -->
<g id="edge18" class="edge">
<title>Node16&#45;&gt;Node11</title>
<path fill="none" stroke="midnightblue" d="M2480.06,-83.7C2479.26,-71.6 2478.12,-54.15 2477.24,-40.89"/>
<polygon fill="midnightblue" stroke="midnightblue" points="2480.71,-40.31 2476.56,-30.56 2473.73,-40.77 2480.71,-40.31"/>
</g>
<!-- Node16&#45;&gt;Node14 -->
<g id="edge19" class="edge">
<title>Node16&#45;&gt;Node14</title>
<path fill="none" stroke="midnightblue" d="M2418.35,-95.31C2282.12,-89.11 1948.84,-71.99 1671,-42 1649.39,-39.67 1625.94,-36.46 1604.7,-33.3"/>
<polygon fill="midnightblue" stroke="midnightblue" points="1605.2,-29.84 1594.79,-31.81 1604.16,-36.76 1605.2,-29.84"/>
</g>
<!-- Node16&#45;&gt;Node15 -->
<g id="edge28" class="edge">
<title>Node16&#45;&gt;Node15</title>
<path fill="none" stroke="midnightblue" d="M2543.8,-88.94C2571.43,-85.18 2604.28,-81 2634,-78 2899.65,-51.2 3217.08,-32.71 3352.94,-25.44"/>
<polygon fill="midnightblue" stroke="midnightblue" points="3353.39,-28.92 3363.19,-24.9 3353.01,-21.93 3353.39,-28.92"/>
</g>
<!-- Node18 -->
<g id="node17" class="node">
<title>Node18</title>
<g id="a_node17"><a xlink:title=" ">
<polygon fill="none" stroke="#bfbfbf" points="2122.5,-6 2122.5,-36 2247.5,-36 2247.5,-6 2122.5,-6"/>
<text text-anchor="start" x="2130.5" y="-24" font-family="Helvetica,sans-Serif" font-size="10.00">seerep&#45;msgs/geodetic</text>
<text text-anchor="middle" x="2185" y="-13" font-family="Helvetica,sans-Serif" font-size="10.00">&#45;coordinates.h</text>
</a>
</g>
</g>
<!-- Node16&#45;&gt;Node18 -->
<g id="edge20" class="edge">
<title>Node16&#45;&gt;Node18</title>
<path fill="none" stroke="midnightblue" d="M2426.36,-83.97C2376.38,-71.14 2302.39,-52.14 2249.51,-38.56"/>
<polygon fill="midnightblue" stroke="midnightblue" points="2250.12,-35.11 2239.57,-36.01 2248.38,-41.89 2250.12,-35.11"/>
</g>
<!-- Node16&#45;&gt;Node19 -->
<g id="edge21" class="edge">
<title>Node16&#45;&gt;Node19</title>
<path fill="none" stroke="midnightblue" d="M2454.62,-83.88C2435.01,-73.39 2407.76,-58.8 2384.63,-46.42"/>
<polygon fill="midnightblue" stroke="midnightblue" points="2386.14,-43.26 2375.67,-41.63 2382.84,-49.43 2386.14,-43.26"/>
</g>
<!-- Node16&#45;&gt;Node20 -->
<g id="edge22" class="edge">
<title>Node16&#45;&gt;Node20</title>
<path fill="none" stroke="midnightblue" d="M2418.34,-89.41C2344.98,-79.13 2219.91,-60.92 2113,-42 2096.99,-39.17 2079.6,-35.76 2063.92,-32.57"/>
<polygon fill="midnightblue" stroke="midnightblue" points="2064.4,-29.1 2053.9,-30.52 2062.99,-35.96 2064.4,-29.1"/>
</g>
<!-- Node16&#45;&gt;Node23 -->
<g id="edge24" class="edge">
<title>Node16&#45;&gt;Node23</title>
<path fill="none" stroke="midnightblue" d="M2418.4,-95.94C2095.9,-85.31 623.03,-36.79 256.69,-24.72"/>
<polygon fill="midnightblue" stroke="midnightblue" points="256.8,-21.23 246.69,-24.39 256.57,-28.22 256.8,-21.23"/>
</g>
<!-- Node16&#45;&gt;Node24 -->
<g id="edge25" class="edge">
<title>Node16&#45;&gt;Node24</title>
<path fill="none" stroke="midnightblue" d="M2543.58,-92.99C2604.24,-88.33 2698.86,-81.58 2781,-78 3557.76,-44.13 3753.06,-71.45 4530,-42 4632.81,-38.1 4751.92,-31.03 4824.6,-26.42"/>
<polygon fill="midnightblue" stroke="midnightblue" points="4825.22,-29.89 4834.97,-25.76 4824.77,-22.9 4825.22,-29.89"/>
</g>
<!-- Node16&#45;&gt;Node25 -->
<g id="edge26" class="edge">
<title>Node16&#45;&gt;Node25</title>
<path fill="none" stroke="midnightblue" d="M2543.61,-93.54C2604.29,-89.29 2698.93,-82.83 2781,-78 3094.2,-59.56 3172.72,-58.98 3486,-42 3577.55,-37.04 3682.58,-30.97 3753.31,-26.83"/>
<polygon fill="midnightblue" stroke="midnightblue" points="3753.71,-30.31 3763.49,-26.23 3753.3,-23.32 3753.71,-30.31"/>
</g>
<!-- Node16&#45;&gt;Node26 -->
<g id="edge27" class="edge">
<title>Node16&#45;&gt;Node26</title>
<path fill="none" stroke="midnightblue" d="M2543.59,-93.19C2604.26,-88.68 2698.89,-82.04 2781,-78 3285.09,-53.21 3413.1,-84.54 3916,-42 3943.38,-39.68 3973.51,-35.76 3999.17,-31.99"/>
<polygon fill="midnightblue" stroke="midnightblue" points="3999.76,-35.44 4009.14,-30.5 3998.73,-28.52 3999.76,-35.44"/>
</g>
<!-- Node16&#45;&gt;Node27 -->
<g id="edge29" class="edge">
<title>Node16&#45;&gt;Node27</title>
<path fill="none" stroke="midnightblue" d="M2543.59,-93.1C2604.25,-88.52 2698.88,-81.83 2781,-78 3381.45,-50 3532.54,-69.8 4133,-42 4202.57,-38.78 4281.03,-33.56 4340.67,-29.26"/>
<polygon fill="midnightblue" stroke="midnightblue" points="4341.11,-32.73 4350.83,-28.52 4340.6,-25.75 4341.11,-32.73"/>
</g>
<!-- Node16&#45;&gt;Node28 -->
<g id="edge30" class="edge">
<title>Node16&#45;&gt;Node28</title>
<path fill="none" stroke="midnightblue" d="M2418.48,-91.55C2282.97,-77.58 1962.71,-44.55 1817.67,-29.6"/>
<polygon fill="midnightblue" stroke="midnightblue" points="1817.84,-26.1 1807.53,-28.55 1817.12,-33.06 1817.84,-26.1"/>
</g>
<!-- Node30&#45;&gt;Node5 -->
<g id="edge49" class="edge">
<title>Node30&#45;&gt;Node5</title>
<path fill="none" stroke="midnightblue" d="M1059.04,-165.82C1330.54,-143.89 2465.18,-52.03 2540,-42 2563.28,-38.88 2589.17,-34.13 2609.76,-30.04"/>
<polygon fill="midnightblue" stroke="midnightblue" points="2610.59,-33.45 2619.7,-28.04 2609.21,-26.59 2610.59,-33.45"/>
</g>
<!-- Node30&#45;&gt;Node11 -->
<g id="edge41" class="edge">
<title>Node30&#45;&gt;Node11</title>
<path fill="none" stroke="midnightblue" d="M1059.17,-157.53C1103.22,-147.08 1159.53,-132.17 1180,-120 1202.43,-106.67 1197.12,-88.49 1221,-78 1341.4,-25.11 2273.98,-61.74 2404,-42 2416.3,-40.13 2429.49,-36.86 2441.18,-33.49"/>
<polygon fill="midnightblue" stroke="midnightblue" points="2442.43,-36.77 2451,-30.54 2440.41,-30.07 2442.43,-36.77"/>
</g>
<!-- Node30&#45;&gt;Node16 -->
<g id="edge42" class="edge">
<title>Node30&#45;&gt;Node16</title>
<path fill="none" stroke="midnightblue" d="M1059.08,-166.31C1103.2,-163.21 1165.4,-159.02 1220,-156 1671.68,-131.02 2214.86,-109.91 2408.28,-102.68"/>
<polygon fill="midnightblue" stroke="midnightblue" points="2408.46,-106.17 2418.32,-102.3 2408.2,-99.18 2408.46,-106.17"/>
</g>
<!-- Node30&#45;&gt;Node20 -->
<g id="edge47" class="edge">
<title>Node30&#45;&gt;Node20</title>
<path fill="none" stroke="midnightblue" d="M1057.78,-156.47C1085.08,-148.26 1117.53,-136.26 1144,-120 1167.04,-105.85 1163.2,-88.77 1188,-78 1316.22,-22.32 1676.65,-53.03 1816,-42 1859.79,-38.53 1908.92,-33.58 1947.29,-29.47"/>
<polygon fill="midnightblue" stroke="midnightblue" points="1947.74,-32.94 1957.3,-28.39 1946.98,-25.98 1947.74,-32.94"/>
</g>
<!-- Node30&#45;&gt;Node23 -->
<g id="edge50" class="edge">
<title>Node30&#45;&gt;Node23</title>
<path fill="none" stroke="midnightblue" d="M942.8,-169.29C803.8,-165.89 455.88,-154.13 345,-120 289.7,-102.98 232.84,-65.68 200.62,-42.33"/>
<polygon fill="midnightblue" stroke="midnightblue" points="202.33,-39.24 192.2,-36.14 198.18,-44.88 202.33,-39.24"/>
</g>
<!-- Node30&#45;&gt;Node24 -->
<g id="edge51" class="edge">
<title>Node30&#45;&gt;Node24</title>
<path fill="none" stroke="midnightblue" d="M1059.06,-165.94C1103.17,-162.65 1165.37,-158.38 1220,-156 1985.66,-122.68 2178.08,-146.83 2944,-120 3649.31,-95.3 3825.22,-78.8 4530,-42 4632.75,-36.64 4751.87,-29.97 4824.57,-25.85"/>
<polygon fill="midnightblue" stroke="midnightblue" points="4825.16,-29.32 4834.95,-25.26 4824.77,-22.33 4825.16,-29.32"/>
</g>
<!-- Node31 -->
<g id="node27" class="node">
<title>Node31</title>
<g id="a_node27"><a xlink:title=" ">
<polygon fill="none" stroke="#bfbfbf" points="804,-84 804,-114 962,-114 962,-84 804,-84"/>
<text text-anchor="start" x="812" y="-102" font-family="Helvetica,sans-Serif" font-size="10.00">seerep&#45;msgs/boundingbox2d</text>
<text text-anchor="middle" x="883" y="-91" font-family="Helvetica,sans-Serif" font-size="10.00">_labeled_with_category.pb.h</text>
</a>
</g>
</g>
<!-- Node30&#45;&gt;Node31 -->
<g id="edge43" class="edge">
<title>Node30&#45;&gt;Node31</title>
<path fill="none" stroke="midnightblue" d="M977.4,-156.4C959.56,-145.74 934.85,-130.98 915.19,-119.23"/>
<polygon fill="midnightblue" stroke="midnightblue" points="916.93,-116.2 906.55,-114.07 913.34,-122.21 916.93,-116.2"/>
</g>
<!-- Node32 -->
<g id="node28" class="node">
<title>Node32</title>
<g id="a_node28"><a xlink:title=" ">
<polygon fill="none" stroke="#bfbfbf" points="980.5,-84 980.5,-114 1135.5,-114 1135.5,-84 980.5,-84"/>
<text text-anchor="start" x="988.5" y="-102" font-family="Helvetica,sans-Serif" font-size="10.00">seerep&#45;msgs/boundingbox</text>
<text text-anchor="middle" x="1058" y="-91" font-family="Helvetica,sans-Serif" font-size="10.00">_labeled_with_category.pb.h</text>
</a>
</g>
</g>
<!-- Node30&#45;&gt;Node32 -->
<g id="edge44" class="edge">
<title>Node30&#45;&gt;Node32</title>
<path fill="none" stroke="midnightblue" d="M1012.53,-156.23C1020.42,-146.49 1031.02,-133.37 1040,-122.26"/>
<polygon fill="midnightblue" stroke="midnightblue" points="1042.92,-124.22 1046.48,-114.25 1037.47,-119.82 1042.92,-124.22"/>
</g>
<!-- Node33 -->
<g id="node29" class="node">
<title>Node33</title>
<g id="a_node29"><a xlink:title=" ">
<polygon fill="none" stroke="#bfbfbf" points="354,-89.5 354,-108.5 494,-108.5 494,-89.5 354,-89.5"/>
<text text-anchor="middle" x="424" y="-96.5" font-family="Helvetica,sans-Serif" font-size="10.00">seerep&#45;msgs/header.pb.h</text>
</a>
</g>
</g>
<!-- Node30&#45;&gt;Node33 -->
<g id="edge45" class="edge">
<title>Node30&#45;&gt;Node33</title>
<path fill="none" stroke="midnightblue" d="M942.73,-167.37C849.36,-161.74 660.68,-147.8 503,-120 489.92,-117.69 475.8,-114.39 463.17,-111.13"/>
<polygon fill="midnightblue" stroke="midnightblue" points="463.98,-107.72 453.41,-108.54 462.18,-114.49 463.98,-107.72"/>
</g>
<!-- Node34 -->
<g id="node30" class="node">
<title>Node34</title>
<g id="a_node30"><a xlink:title=" ">
<polygon fill="none" stroke="#bfbfbf" points="512,-78.5 512,-119.5 628,-119.5 628,-78.5 512,-78.5"/>
<text text-anchor="start" x="520" y="-107.5" font-family="Helvetica,sans-Serif" font-size="10.00">seerep&#45;msgs/labels</text>
<text text-anchor="start" x="520" y="-96.5" font-family="Helvetica,sans-Serif" font-size="10.00">_with_instance_with</text>
<text text-anchor="middle" x="570" y="-85.5" font-family="Helvetica,sans-Serif" font-size="10.00">_category.pb.h</text>
</a>
</g>
</g>
<!-- Node30&#45;&gt;Node34 -->
<g id="edge46" class="edge">
<title>Node30&#45;&gt;Node34</title>
<path fill="none" stroke="midnightblue" d="M942.84,-165.19C872.62,-158.16 750.9,-144.03 638.16,-120.1"/>
<polygon fill="midnightblue" stroke="midnightblue" points="638.84,-116.66 628.33,-117.98 637.37,-123.51 638.84,-116.66"/>
</g>
<!-- Node35 -->
<g id="node31" class="node">
<title>Node35</title>
<g id="a_node31"><a xlink:title=" ">
<polygon fill="none" stroke="#bfbfbf" points="1230,-89.5 1230,-108.5 1298,-108.5 1298,-89.5 1230,-89.5"/>
<text text-anchor="middle" x="1264" y="-96.5" font-family="Helvetica,sans-Serif" font-size="10.00">filesystem</text>
</a>
</g>
</g>
<!-- Node30&#45;&gt;Node35 -->
<g id="edge48" class="edge">
<title>Node30&#45;&gt;Node35</title>
<path fill="none" stroke="midnightblue" d="M1059.24,-157.95C1112.51,-146.26 1187.27,-129.29 1216,-120 1222.69,-117.84 1229.76,-115.13 1236.35,-112.43"/>
<polygon fill="midnightblue" stroke="midnightblue" points="1237.74,-115.64 1245.57,-108.51 1235,-109.2 1237.74,-115.64"/>
</g>
<!-- Node36 -->
<g id="node32" class="node">
<title>Node36</title>
<g id="a_node32"><a xlink:title=" ">
<polygon fill="none" stroke="#bfbfbf" points="646,-89.5 646,-108.5 786,-108.5 786,-89.5 646,-89.5"/>
<text text-anchor="middle" x="716" y="-96.5" font-family="Helvetica,sans-Serif" font-size="10.00">impl/hdf5&#45;pb&#45;general.hpp</text>
</a>
</g>
</g>
<!-- Node30&#45;&gt;Node36 -->
<g id="edge52" class="edge">
<title>Node30&#45;&gt;Node36</title>
<path fill="none" stroke="midnightblue" d="M943.25,-156.47C901.94,-146.4 845.02,-132.46 795,-120 783.43,-117.12 770.91,-113.96 759.32,-111.03"/>
<polygon fill="midnightblue" stroke="midnightblue" points="759.98,-107.59 749.43,-108.52 758.26,-114.37 759.98,-107.59"/>
</g>
<!-- Node37&#45;&gt;Node4 -->
<g id="edge64" class="edge">
<title>Node37&#45;&gt;Node4</title>
<path fill="none" stroke="midnightblue" d="M3436.57,-431.97C3522.34,-429.37 3695.34,-420.23 3838,-388 3923.71,-368.64 3944.74,-358.93 4024,-321 4075.63,-296.29 4093.28,-294.23 4134,-254 4153.06,-235.17 4168.26,-207.92 4176.96,-190.2"/>
<polygon fill="midnightblue" stroke="midnightblue" points="4180.19,-191.55 4181.31,-181.01 4173.87,-188.56 4180.19,-191.55"/>
</g>
<!-- Node37&#45;&gt;Node5 -->
<g id="edge65" class="edge">
<title>Node37&#45;&gt;Node5</title>
<path fill="none" stroke="midnightblue" d="M3329.38,-428.79C3167.69,-415.4 2696,-370.81 2696,-306.5 2696,-306.5 2696,-306.5 2696,-237.5 2696,-181.09 2658.87,-175.35 2648,-120 2642.68,-92.93 2644.1,-60.83 2645.86,-40.93"/>
<polygon fill="midnightblue" stroke="midnightblue" points="2649.36,-41.06 2646.88,-30.76 2642.4,-40.36 2649.36,-41.06"/>
</g>
<!-- Node37&#45;&gt;Node8 -->
<g id="edge68" class="edge">
<title>Node37&#45;&gt;Node8</title>
<path fill="none" stroke="midnightblue" d="M3329.23,-431.57C3175.45,-427.19 2741.09,-412.75 2682,-388 2599.55,-353.47 2568.52,-335.59 2532,-254 2522.59,-232.98 2533.02,-207.05 2542.49,-190.17"/>
<polygon fill="midnightblue" stroke="midnightblue" points="2545.62,-191.74 2547.79,-181.37 2539.63,-188.13 2545.62,-191.74"/>
</g>
<!-- Node37&#45;&gt;Node9 -->
<g id="edge70" class="edge">
<title>Node37&#45;&gt;Node9</title>
<path fill="none" stroke="midnightblue" d="M3436.75,-428.08C3567.82,-415.33 3899.99,-378.12 3994,-321 4041.59,-292.08 4063.12,-224.52 4071.09,-191.43"/>
<polygon fill="midnightblue" stroke="midnightblue" points="4074.59,-191.81 4073.36,-181.29 4067.76,-190.28 4074.59,-191.81"/>
</g>
<!-- Node37&#45;&gt;Node14 -->
<g id="edge66" class="edge">
<title>Node37&#45;&gt;Node14</title>
<path fill="none" stroke="midnightblue" d="M3329.23,-433.35C2932.63,-435.33 470.77,-437.47 274,-187 244.07,-148.91 240.51,-113.01 274,-78 315.41,-34.71 1206.4,-24.51 1465.14,-22.46"/>
<polygon fill="midnightblue" stroke="midnightblue" points="1465.19,-25.96 1475.17,-22.39 1465.14,-18.96 1465.19,-25.96"/>
</g>
<!-- Node37&#45;&gt;Node15 -->
<g id="edge60" class="edge">
<title>Node37&#45;&gt;Node15</title>
<path fill="none" stroke="midnightblue" d="M3436.76,-433.73C3630.91,-434.93 4288.6,-426.14 4367,-254 4392.97,-196.98 4382.93,-126.34 4321,-78 4318.94,-76.39 3694.96,-38.6 3486.74,-26.02"/>
<polygon fill="midnightblue" stroke="midnightblue" points="3486.75,-22.52 3476.56,-25.41 3486.33,-29.51 3486.75,-22.52"/>
</g>
<!-- Node37&#45;&gt;Node23 -->
<g id="edge158" class="edge">
<title>Node37&#45;&gt;Node23</title>
<path fill="none" stroke="midnightblue" d="M3329.06,-432.89C3020.79,-432.1 1479.11,-426.27 1006,-388 699.84,-363.23 595.32,-405.29 328,-254 258.94,-214.91 244.94,-191.25 210,-120 197.97,-95.47 187.63,-65.85 181.15,-45.64"/>
<polygon fill="midnightblue" stroke="midnightblue" points="184.46,-44.5 178.13,-36.01 177.78,-46.6 184.46,-44.5"/>
</g>
<!-- Node37&#45;&gt;Node24 -->
<g id="edge159" class="edge">
<title>Node37&#45;&gt;Node24</title>
<path fill="none" stroke="midnightblue" d="M3436.63,-432.5C3676.96,-430.11 4645.56,-418.58 4702,-388 4829.92,-318.68 4844.78,-258.29 4890,-120 4898.66,-93.51 4897.06,-60.81 4894.78,-40.68"/>
<polygon fill="midnightblue" stroke="midnightblue" points="4898.24,-40.13 4893.47,-30.67 4891.3,-41.04 4898.24,-40.13"/>
</g>
<!-- Node37&#45;&gt;Node25 -->
<g id="edge58" class="edge">
<title>Node37&#45;&gt;Node25</title>
<path fill="none" stroke="midnightblue" d="M3436.76,-432.04C3588.84,-428.97 4020.01,-417.81 4158,-388 4239,-370.5 4268.33,-374.04 4332,-321 4383.94,-277.73 4389.47,-253.03 4404,-187 4414.59,-138.9 4421.5,-109.93 4384,-78 4317.06,-20.99 4077.39,-51.63 3990,-42 3962.86,-39.01 3933.1,-35.28 3906.98,-31.85"/>
<polygon fill="midnightblue" stroke="midnightblue" points="3907.16,-28.35 3896.79,-30.51 3906.24,-35.29 3907.16,-28.35"/>
</g>
<!-- Node37&#45;&gt;Node26 -->
<g id="edge59" class="edge">
<title>Node37&#45;&gt;Node26</title>
<path fill="none" stroke="midnightblue" d="M3436.53,-433.11C3598.44,-432.99 4081.13,-429.1 4232,-388 4294.33,-371.02 4313.27,-364.54 4361,-321 4442.45,-246.68 4487.74,-157.17 4411,-78 4373.64,-39.46 4224.65,-27.44 4133.53,-23.69"/>
<polygon fill="midnightblue" stroke="midnightblue" points="4133.67,-20.2 4123.54,-23.31 4133.4,-27.19 4133.67,-20.2"/>
</g>
<!-- Node37&#45;&gt;Node27 -->
<g id="edge61" class="edge">
<title>Node37&#45;&gt;Node27</title>
<path fill="none" stroke="midnightblue" d="M3436.85,-433.17C3674.76,-433.67 4621.74,-432.81 4665,-388 4702.18,-349.49 4820.55,-379.74 4540,-78 4521.27,-57.85 4493.61,-43.44 4471.52,-34.29"/>
<polygon fill="midnightblue" stroke="midnightblue" points="4472.72,-31 4462.13,-30.57 4470.14,-37.51 4472.72,-31"/>
</g>
<!-- Node37&#45;&gt;Node28 -->
<g id="edge62" class="edge">
<title>Node37&#45;&gt;Node28</title>
<path fill="none" stroke="midnightblue" d="M3329.25,-430.67C2999.09,-416.12 1257.28,-335.62 1182,-254 1152.45,-221.96 1151.04,-190.25 1178,-156 1186.16,-145.63 1558.44,-62.84 1694.7,-32.82"/>
<polygon fill="midnightblue" stroke="midnightblue" points="1695.85,-36.15 1704.86,-30.58 1694.34,-29.32 1695.85,-36.15"/>
</g>
<!-- Node37&#45;&gt;Node35 -->
<g id="edge63" class="edge">
<title>Node37&#45;&gt;Node35</title>
<path fill="none" stroke="midnightblue" d="M3329.17,-433.06C3080.6,-433.11 2050.05,-430.7 1913,-388 1888.75,-380.45 1889.13,-364.91 1865,-357 1611.14,-273.81 1520.85,-397.87 1265,-321 1168.93,-292.14 1052.82,-237.71 1111,-156 1139.37,-116.16 1169.23,-137.25 1215,-120 1221.21,-117.66 1227.81,-115.05 1234.09,-112.51"/>
<polygon fill="midnightblue" stroke="midnightblue" points="1235.67,-115.65 1243.59,-108.62 1233.01,-109.17 1235.67,-115.65"/>
</g>
<!-- Node38 -->
<g id="node34" class="node">
<title>Node38</title>
<g id="a_node34"><a xlink:title=" ">
<polygon fill="none" stroke="#bfbfbf" points="4540,-357.5 4540,-387.5 4656,-387.5 4656,-357.5 4540,-357.5"/>
<text text-anchor="start" x="4548" y="-375.5" font-family="Helvetica,sans-Serif" font-size="10.00">seerep&#45;msgs/project</text>
<text text-anchor="middle" x="4598" y="-364.5" font-family="Helvetica,sans-Serif" font-size="10.00">&#45;info.h</text>
</a>
</g>
</g>
<!-- Node37&#45;&gt;Node38 -->
<g id="edge67" class="edge">
<title>Node37&#45;&gt;Node38</title>
<path fill="none" stroke="midnightblue" d="M3436.53,-432.03C3632.56,-428.28 4310.94,-413.72 4526,-388 4527.28,-387.85 4528.58,-387.68 4529.88,-387.51"/>
<polygon fill="midnightblue" stroke="midnightblue" points="4530.59,-390.94 4539.97,-386.01 4529.56,-384.02 4530.59,-390.94"/>
</g>
<!-- Node39 -->
<g id="node35" class="node">
<title>Node39</title>
<g id="a_node35"><a xlink:title=" ">
<polygon fill="none" stroke="#bfbfbf" points="2724,-162 2724,-181 2854,-181 2854,-162 2724,-162"/>
<text text-anchor="middle" x="2789" y="-169" font-family="Helvetica,sans-Serif" font-size="10.00">seerep&#45;msgs/query&#45;tf.h</text>
</a>
</g>
</g>
<!-- Node37&#45;&gt;Node39 -->
<g id="edge69" class="edge">
<title>Node37&#45;&gt;Node39</title>
<path fill="none" stroke="midnightblue" d="M3329.31,-427.34C3240.59,-416.42 3059.42,-387.36 2921,-321 2876.99,-299.9 2865.79,-291.03 2834,-254 2817.35,-234.6 2804.09,-208.06 2796.4,-190.61"/>
<polygon fill="midnightblue" stroke="midnightblue" points="2799.47,-188.9 2792.34,-181.06 2793.03,-191.64 2799.47,-188.9"/>
</g>
<!-- Node40 -->
<g id="node36" class="node">
<title>Node40</title>
<g id="a_node36"><a xlink:title=" ">
<polygon fill="none" stroke="#bfbfbf" points="3942,-89.5 3942,-108.5 4142,-108.5 4142,-89.5 3942,-89.5"/>
<text text-anchor="middle" x="4042" y="-96.5" font-family="Helvetica,sans-Serif" font-size="10.00">geometry_msgs/TransformStamped.h</text>
</a>
</g>
</g>
<!-- Node37&#45;&gt;Node40 -->
<g id="edge71" class="edge">
<title>Node37&#45;&gt;Node40</title>
<path fill="none" stroke="midnightblue" d="M3436.6,-432.11C3622.93,-427.71 4237.11,-402.05 4347,-254 4410.6,-168.32 4234.23,-127.01 4123.72,-110.02"/>
<polygon fill="midnightblue" stroke="midnightblue" points="4123.98,-106.52 4113.57,-108.5 4122.95,-113.45 4123.98,-106.52"/>
</g>
<!-- Node41 -->
<g id="node37" class="node">
<title>Node41</title>
<g id="a_node37"><a xlink:href="core-project_8h.html" target="_top" xlink:title=" ">
<polygon fill="none" stroke="black" points="3341,-363 3341,-382 3425,-382 3425,-363 3341,-363"/>
<text text-anchor="middle" x="3383" y="-370" font-family="Helvetica,sans-Serif" font-size="10.00">core&#45;project.h</text>
</a>
</g>
</g>
<!-- Node37&#45;&gt;Node41 -->
<g id="edge72" class="edge">
<title>Node37&#45;&gt;Node41</title>
<path fill="none" stroke="midnightblue" d="M3383,-424.48C3383,-416.08 3383,-402.98 3383,-392.16"/>
<polygon fill="midnightblue" stroke="midnightblue" points="3386.5,-392.01 3383,-382.01 3379.5,-392.01 3386.5,-392.01"/>
</g>
<!-- Node41&#45;&gt;Node4 -->
<g id="edge76" class="edge">
<title>Node41&#45;&gt;Node4</title>
<path fill="none" stroke="midnightblue" d="M3425.01,-371.13C3545.43,-369.57 3889.87,-361.59 3994,-321 4070.16,-291.31 4140.91,-220.95 4170.46,-188.9"/>
<polygon fill="midnightblue" stroke="midnightblue" points="4173.24,-191.04 4177.37,-181.29 4168.05,-186.34 4173.24,-191.04"/>
</g>
<!-- Node41&#45;&gt;Node5 -->
<g id="edge77" class="edge">
<title>Node41&#45;&gt;Node5</title>
<path fill="none" stroke="midnightblue" d="M3350.81,-362.92C3320.94,-354.34 3275.69,-339.73 3239,-321 3146,-273.51 3130.19,-248.78 3046,-187 3027.87,-173.69 3026.76,-164.66 3006,-156 2893.47,-109.02 2841.53,-177.5 2734,-120 2699.05,-101.31 2671.68,-62.34 2657.87,-39.58"/>
<polygon fill="midnightblue" stroke="midnightblue" points="2660.72,-37.52 2652.65,-30.66 2654.68,-41.05 2660.72,-37.52"/>
</g>
<!-- Node41&#45;&gt;Node9 -->
<g id="edge82" class="edge">
<title>Node41&#45;&gt;Node9</title>
<path fill="none" stroke="midnightblue" d="M3425.4,-369.83C3551.48,-364.57 3918.2,-347.17 3965,-321 3992.64,-305.54 4043.08,-225.6 4064.7,-189.83"/>
<polygon fill="midnightblue" stroke="midnightblue" points="4067.86,-191.38 4070,-181 4061.85,-187.78 4067.86,-191.38"/>
</g>
<!-- Node41&#45;&gt;Node12 -->
<g id="edge83" class="edge">
<title>Node41&#45;&gt;Node12</title>
<path fill="none" stroke="midnightblue" d="M3340.73,-368.54C3259.16,-362.47 3074.55,-346.93 2921,-321 2860.3,-310.75 2846.53,-301.22 2786,-290 2673.89,-269.22 2639.35,-292.41 2532,-254 2491.46,-239.49 2449.88,-211.81 2424.01,-192.77"/>
<polygon fill="midnightblue" stroke="midnightblue" points="2425.96,-189.86 2415.86,-186.67 2421.77,-195.47 2425.96,-189.86"/>
</g>
<!-- Node41&#45;&gt;Node14 -->
<g id="edge78" class="edge">
<title>Node41&#45;&gt;Node14</title>
<path fill="none" stroke="midnightblue" d="M3340.89,-371.5C2989.25,-371.02 548.88,-359.11 345,-120 332.89,-105.8 332.11,-91.51 345,-78 383.83,-37.29 1216.49,-25.33 1465.36,-22.65"/>
<polygon fill="midnightblue" stroke="midnightblue" points="1465.4,-26.15 1475.37,-22.55 1465.33,-19.15 1465.4,-26.15"/>
</g>
<!-- Node41&#45;&gt;Node15 -->
<g id="edge73" class="edge">
<title>Node41&#45;&gt;Node15</title>
<path fill="none" stroke="midnightblue" d="M3405.94,-362.88C3510.25,-323.74 3935.88,-164.15 3965,-156 4051.32,-131.84 4211.92,-143.76 4151,-78 4139.76,-65.87 3664.94,-36.52 3486.68,-25.91"/>
<polygon fill="midnightblue" stroke="midnightblue" points="3486.83,-22.41 3476.64,-25.32 3486.42,-29.4 3486.83,-22.41"/>
</g>
<!-- Node41&#45;&gt;Node18 -->
<g id="edge79" class="edge">
<title>Node41&#45;&gt;Node18</title>
<path fill="none" stroke="midnightblue" d="M3340.88,-370.63C3076.56,-364.74 1653.57,-326.66 1528,-187 1518.79,-176.75 1519.29,-166.67 1528,-156 1532.67,-150.28 1942.39,-69.5 2112.36,-36.2"/>
<polygon fill="midnightblue" stroke="midnightblue" points="2113.09,-39.62 2122.23,-34.27 2111.75,-32.75 2113.09,-39.62"/>
</g>
<!-- Node41&#45;&gt;Node23 -->
<g id="edge156" class="edge">
<title>Node41&#45;&gt;Node23</title>
<path fill="none" stroke="midnightblue" d="M3340.99,-371.2C3071.59,-369.19 1583.43,-356.59 1130,-321 908.24,-303.59 851.72,-299.62 634,-254 458.73,-217.27 395.67,-229.54 254,-120 226.48,-98.72 202.39,-66.26 188.02,-44.6"/>
<polygon fill="midnightblue" stroke="midnightblue" points="190.85,-42.53 182.48,-36.04 184.98,-46.34 190.85,-42.53"/>
</g>
<!-- Node41&#45;&gt;Node24 -->
<g id="edge157" class="edge">
<title>Node41&#45;&gt;Node24</title>
<path fill="none" stroke="midnightblue" d="M3425.21,-372.13C3553.9,-373.42 3952.29,-372.62 4277,-321 4506.76,-284.48 4574.87,-290.95 4783,-187 4826.03,-165.51 4841.97,-160.45 4868,-120 4883.75,-95.51 4889.17,-61.51 4891.03,-40.67"/>
<polygon fill="midnightblue" stroke="midnightblue" points="4894.53,-40.81 4891.74,-30.59 4887.54,-40.32 4894.53,-40.81"/>
</g>
<!-- Node41&#45;&gt;Node27 -->
<g id="edge74" class="edge">
<title>Node41&#45;&gt;Node27</title>
<path fill="none" stroke="midnightblue" d="M3425.21,-371.11C3598.89,-368.88 4257.52,-353.86 4435,-254 4510.71,-211.4 4560.99,-154.59 4520,-78 4509.3,-58 4487.94,-43.91 4469.44,-34.86"/>
<polygon fill="midnightblue" stroke="midnightblue" points="4470.65,-31.57 4460.1,-30.59 4467.74,-37.93 4470.65,-31.57"/>
</g>
<!-- Node41&#45;&gt;Node28 -->
<g id="edge75" class="edge">
<title>Node41&#45;&gt;Node28</title>
<path fill="none" stroke="midnightblue" d="M3340.89,-370.77C3136.01,-367.09 2242.04,-349.66 1965,-321 1790.5,-302.95 1731.47,-335.28 1576,-254 1504.25,-216.49 1472.21,-135.7 1529,-78 1549.31,-57.36 1619.76,-41.67 1674.55,-32.22"/>
<polygon fill="midnightblue" stroke="midnightblue" points="1675.3,-35.64 1684.58,-30.53 1674.14,-28.74 1675.3,-35.64"/>
</g>
<!-- Node41&#45;&gt;Node39 -->
<g id="edge81" class="edge">
<title>Node41&#45;&gt;Node39</title>
<path fill="none" stroke="midnightblue" d="M3340.71,-369.1C3250.66,-363.52 3042.91,-348.06 2978,-321 2903.04,-289.75 2832.83,-220.19 2803.46,-188.63"/>
<polygon fill="midnightblue" stroke="midnightblue" points="2805.93,-186.14 2796.59,-181.14 2800.77,-190.87 2805.93,-186.14"/>
</g>
<!-- Node42 -->
<g id="node38" class="node">
<title>Node42</title>
<g id="a_node38"><a xlink:title=" ">
<polygon fill="none" stroke="#bfbfbf" points="3708,-290.5 3708,-320.5 3850,-320.5 3850,-290.5 3708,-290.5"/>
<text text-anchor="start" x="3716" y="-308.5" font-family="Helvetica,sans-Serif" font-size="10.00">seerep&#45;msgs/query&#45;result</text>
<text text-anchor="middle" x="3779" y="-297.5" font-family="Helvetica,sans-Serif" font-size="10.00">&#45;project.h</text>
</a>
</g>
</g>
<!-- Node41&#45;&gt;Node42 -->
<g id="edge80" class="edge">
<title>Node41&#45;&gt;Node42</title>
<path fill="none" stroke="midnightblue" d="M3425.02,-364.79C3484.8,-355.21 3597.82,-337.01 3694,-321 3695.11,-320.82 3696.22,-320.63 3697.35,-320.44"/>
<polygon fill="midnightblue" stroke="midnightblue" points="3698.3,-323.83 3707.59,-318.72 3697.14,-316.93 3698.3,-323.83"/>
</g>
<!-- Node43 -->
<g id="node39" class="node">
<title>Node43</title>
<g id="a_node39"><a xlink:href="hdf5-core-instance_8h.html" target="_top" xlink:title=" ">
<polygon fill="none" stroke="black" points="3554.5,-156.5 3554.5,-186.5 3679.5,-186.5 3679.5,-156.5 3554.5,-156.5"/>
<text text-anchor="start" x="3562.5" y="-174.5" font-family="Helvetica,sans-Serif" font-size="10.00">seerep&#45;hdf5&#45;core/hdf5</text>
<text text-anchor="middle" x="3617" y="-163.5" font-family="Helvetica,sans-Serif" font-size="10.00">&#45;core&#45;instance.h</text>
</a>
</g>
</g>
<!-- Node41&#45;&gt;Node43 -->
<g id="edge84" class="edge">
<title>Node41&#45;&gt;Node43</title>
<path fill="none" stroke="midnightblue" d="M3392.83,-362.88C3409.89,-347.95 3446.11,-316.35 3477,-290 3517.21,-255.7 3564.36,-216.29 3592.4,-192.95"/>
<polygon fill="midnightblue" stroke="midnightblue" points="3594.67,-195.61 3600.12,-186.52 3590.19,-190.23 3594.67,-195.61"/>
</g>
<!-- Node44 -->
<g id="node40" class="node">
<title>Node44</title>
<g id="a_node40"><a xlink:href="hdf5-core-point-cloud_8h.html" target="_top" xlink:title=" ">
<polygon fill="none" stroke="black" points="3236.5,-156.5 3236.5,-186.5 3361.5,-186.5 3361.5,-156.5 3236.5,-156.5"/>
<text text-anchor="start" x="3244.5" y="-174.5" font-family="Helvetica,sans-Serif" font-size="10.00">seerep&#45;hdf5&#45;core/hdf5</text>
<text text-anchor="middle" x="3299" y="-163.5" font-family="Helvetica,sans-Serif" font-size="10.00">&#45;core&#45;point&#45;cloud.h</text>
</a>
</g>
</g>
<!-- Node41&#45;&gt;Node44 -->
<g id="edge95" class="edge">
<title>Node41&#45;&gt;Node44</title>
<path fill="none" stroke="midnightblue" d="M3379.39,-362.95C3367.24,-334.17 3327.56,-240.15 3308.88,-195.91"/>
<polygon fill="midnightblue" stroke="midnightblue" points="3312.04,-194.38 3304.92,-186.53 3305.59,-197.11 3312.04,-194.38"/>
</g>
<!-- Node45 -->
<g id="node41" class="node">
<title>Node45</title>
<g id="a_node41"><a xlink:href="hdf5-core-point_8h.html" target="_top" xlink:title=" ">
<polygon fill="none" stroke="black" points="3054.5,-156.5 3054.5,-186.5 3179.5,-186.5 3179.5,-156.5 3054.5,-156.5"/>
<text text-anchor="start" x="3062.5" y="-174.5" font-family="Helvetica,sans-Serif" font-size="10.00">seerep&#45;hdf5&#45;core/hdf5</text>
<text text-anchor="middle" x="3117" y="-163.5" font-family="Helvetica,sans-Serif" font-size="10.00">&#45;core&#45;point.h</text>
</a>
</g>
</g>
<!-- Node41&#45;&gt;Node45 -->
<g id="edge107" class="edge">
<title>Node41&#45;&gt;Node45</title>
<path fill="none" stroke="midnightblue" d="M3366.12,-362.92C3331.87,-345.11 3252.5,-301.79 3194,-254 3171.85,-235.9 3149.75,-211.73 3134.95,-194.41"/>
<polygon fill="midnightblue" stroke="midnightblue" points="3137.42,-191.92 3128.3,-186.52 3132.07,-196.43 3137.42,-191.92"/>
</g>
<!-- Node46 -->
<g id="node42" class="node">
<title>Node46</title>
<g id="a_node42"><a xlink:href="hdf5-core-tf_8h.html" target="_top" xlink:title=" ">
<polygon fill="none" stroke="black" points="2872.5,-156.5 2872.5,-186.5 2997.5,-186.5 2997.5,-156.5 2872.5,-156.5"/>
<text text-anchor="start" x="2880.5" y="-174.5" font-family="Helvetica,sans-Serif" font-size="10.00">seerep&#45;hdf5&#45;core/hdf5</text>
<text text-anchor="middle" x="2935" y="-163.5" font-family="Helvetica,sans-Serif" font-size="10.00">&#45;core&#45;tf.h</text>
</a>
</g>
</g>
<!-- Node41&#45;&gt;Node46 -->
<g id="edge119" class="edge">
<title>Node41&#45;&gt;Node46</title>
<path fill="none" stroke="midnightblue" d="M3340.98,-370.56C3255.34,-367.88 3064.27,-357.84 3012,-321 2969.59,-291.11 2948.87,-230.61 2940.22,-196.79"/>
<polygon fill="midnightblue" stroke="midnightblue" points="2943.57,-195.72 2937.83,-186.81 2936.76,-197.35 2943.57,-195.72"/>
</g>
<!-- Node47 -->
<g id="node43" class="node">
<title>Node47</title>
<g id="a_node43"><a xlink:href="core-dataset_8h.html" target="_top" xlink:title=" ">
<polygon fill="none" stroke="red" points="3868.5,-296 3868.5,-315 3955.5,-315 3955.5,-296 3868.5,-296"/>
<text text-anchor="middle" x="3912" y="-303" font-family="Helvetica,sans-Serif" font-size="10.00">core&#45;dataset.h</text>
</a>
</g>
</g>
<!-- Node41&#45;&gt;Node47 -->
<g id="edge125" class="edge">
<title>Node41&#45;&gt;Node47</title>
<path fill="none" stroke="midnightblue" d="M3425.04,-369.32C3508.41,-364.51 3700.37,-350.91 3859,-321 3864.03,-320.05 3869.27,-318.87 3874.43,-317.58"/>
<polygon fill="midnightblue" stroke="midnightblue" points="3875.36,-320.95 3884.14,-315.03 3873.58,-314.18 3875.36,-320.95"/>
</g>
<!-- Node50 -->
<g id="node44" class="node">
<title>Node50</title>
<g id="a_node44"><a xlink:href="core-instances_8h.html" target="_top" xlink:title=" ">
<polygon fill="none" stroke="red" points="4240.5,-229 4240.5,-248 4337.5,-248 4337.5,-229 4240.5,-229"/>
<text text-anchor="middle" x="4289" y="-236" font-family="Helvetica,sans-Serif" font-size="10.00">core&#45;instances.h</text>
</a>
</g>
</g>
<!-- Node41&#45;&gt;Node50 -->
<g id="edge154" class="edge">
<title>Node41&#45;&gt;Node50</title>
<path fill="none" stroke="midnightblue" d="M3425.1,-371.64C3529.56,-371.26 3808.69,-365.76 4036,-321 4118.47,-304.76 4211.65,-270.38 4258.56,-251.88"/>
<polygon fill="midnightblue" stroke="midnightblue" points="4260.12,-255.03 4268.12,-248.08 4257.53,-248.53 4260.12,-255.03"/>
</g>
<!-- Node53 -->
<g id="node45" class="node">
<title>Node53</title>
<g id="a_node45"><a xlink:href="core-tf_8h.html" target="_top" xlink:title=" ">
<polygon fill="none" stroke="red" points="3595.5,-229 3595.5,-248 3652.5,-248 3652.5,-229 3595.5,-229"/>
<text text-anchor="middle" x="3624" y="-236" font-family="Helvetica,sans-Serif" font-size="10.00">core&#45;tf.h</text>
</a>
</g>
</g>
<!-- Node41&#45;&gt;Node53 -->
<g id="edge155" class="edge">
<title>Node41&#45;&gt;Node53</title>
<path fill="none" stroke="midnightblue" d="M3398.81,-362.84C3439.85,-340.36 3549.99,-280.04 3599.41,-252.97"/>
<polygon fill="midnightblue" stroke="midnightblue" points="3601.35,-255.89 3608.44,-248.02 3597.99,-249.76 3601.35,-255.89"/>
</g>
<!-- Node43&#45;&gt;Node5 -->
<g id="edge94" class="edge">
<title>Node43&#45;&gt;Node5</title>
<path fill="none" stroke="midnightblue" d="M3585.89,-156.34C3538.03,-135.27 3442.97,-96.19 3358,-78 3105.84,-24.03 2793.32,-20.83 2686.14,-21.5"/>
<polygon fill="midnightblue" stroke="midnightblue" points="2686.1,-18 2676.12,-21.57 2686.15,-25 2686.1,-18"/>
</g>
<!-- Node43&#45;&gt;Node11 -->
<g id="edge85" class="edge">
<title>Node43&#45;&gt;Node11</title>
<path fill="none" stroke="midnightblue" d="M3554.47,-158.52C3425.39,-133.81 3140.55,-79.36 3130,-78 2900.68,-48.37 2840.87,-66.96 2611,-42 2586.79,-39.37 2560.25,-35.63 2537.17,-32.09"/>
<polygon fill="midnightblue" stroke="midnightblue" points="2537.58,-28.61 2527.16,-30.54 2536.51,-35.53 2537.58,-28.61"/>
</g>
<!-- Node43&#45;&gt;Node15 -->
<g id="edge90" class="edge">
<title>Node43&#45;&gt;Node15</title>
<path fill="none" stroke="midnightblue" d="M3609.65,-156.48C3598.63,-136.64 3576.08,-100.3 3548,-78 3522.06,-57.4 3487.37,-42.84 3460.65,-33.74"/>
<polygon fill="midnightblue" stroke="midnightblue" points="3461.43,-30.32 3450.84,-30.52 3459.25,-36.97 3461.43,-30.32"/>
</g>
<!-- Node43&#45;&gt;Node16 -->
<g id="edge86" class="edge">
<title>Node43&#45;&gt;Node16</title>
<path fill="none" stroke="midnightblue" d="M3554.26,-166.76C3386.74,-156.77 2931.46,-129.56 2781,-120 2703.44,-115.07 2614.62,-109.11 2553.88,-104.99"/>
<polygon fill="midnightblue" stroke="midnightblue" points="2553.84,-101.48 2543.62,-104.29 2553.36,-108.46 2553.84,-101.48"/>
</g>
<!-- Node43&#45;&gt;Node20 -->
<g id="edge93" class="edge">
<title>Node43&#45;&gt;Node20</title>
<path fill="none" stroke="midnightblue" d="M3554.33,-166.43C3504.63,-163.3 3433.39,-159.01 3371,-156 2943.64,-135.41 2832.51,-180.81 2409,-120 2333.67,-109.18 2316.85,-96.37 2243,-78 2179.3,-62.15 2105.54,-44.18 2059.33,-32.97"/>
<polygon fill="midnightblue" stroke="midnightblue" points="2059.87,-29.5 2049.33,-30.55 2058.22,-36.31 2059.87,-29.5"/>
</g>
<!-- Node43&#45;&gt;Node25 -->
<g id="edge88" class="edge">
<title>Node43&#45;&gt;Node25</title>
<path fill="none" stroke="midnightblue" d="M3637.9,-156.26C3679.5,-127.92 3772.24,-64.75 3813.95,-36.34"/>
<polygon fill="midnightblue" stroke="midnightblue" points="3815.98,-39.19 3822.27,-30.67 3812.04,-33.41 3815.98,-39.19"/>
</g>
<!-- Node43&#45;&gt;Node26 -->
<g id="edge89" class="edge">
<title>Node43&#45;&gt;Node26</title>
<path fill="none" stroke="midnightblue" d="M3651.28,-156.42C3675.15,-146.5 3707.66,-132.77 3736,-120 3775.51,-102.2 3783.12,-92.4 3824,-78 3882.82,-57.28 3952.54,-41.85 4001.07,-32.48"/>
<polygon fill="midnightblue" stroke="midnightblue" points="4001.93,-35.89 4011.1,-30.58 4000.62,-29.01 4001.93,-35.89"/>
</g>
<!-- Node43&#45;&gt;Node27 -->
<g id="edge91" class="edge">
<title>Node43&#45;&gt;Node27</title>
<path fill="none" stroke="midnightblue" d="M3667.03,-156.45C3702.51,-146.43 3751.23,-132.56 3794,-120 3855.92,-101.81 3869.78,-90.96 3933,-78 4073.22,-49.26 4238.67,-34.42 4340.46,-27.43"/>
<polygon fill="midnightblue" stroke="midnightblue" points="4340.97,-30.9 4350.71,-26.74 4340.5,-23.92 4340.97,-30.9"/>
</g>
<!-- Node43&#45;&gt;Node28 -->
<g id="edge92" class="edge">
<title>Node43&#45;&gt;Node28</title>
<path fill="none" stroke="midnightblue" d="M3554.42,-166.4C3461.41,-159.77 3281.4,-144.85 3130,-120 3046.37,-106.27 3028.04,-88.91 2944,-78 2504.73,-20.97 2389.96,-71.62 1948,-42 1904.81,-39.11 1856.61,-34.45 1817.91,-30.35"/>
<polygon fill="midnightblue" stroke="midnightblue" points="1818.09,-26.85 1807.78,-29.27 1817.35,-33.81 1818.09,-26.85"/>
</g>
<!-- Node43&#45;&gt;Node40 -->
<g id="edge87" class="edge">
<title>Node43&#45;&gt;Node40</title>
<path fill="none" stroke="midnightblue" d="M3679.71,-160.1C3760.64,-146.67 3900.56,-123.46 3980.76,-110.16"/>
<polygon fill="midnightblue" stroke="midnightblue" points="3981.43,-113.6 3990.72,-108.51 3980.28,-106.69 3981.43,-113.6"/>
</g>
<!-- Node44&#45;&gt;Node5 -->
<g id="edge101" class="edge">
<title>Node44&#45;&gt;Node5</title>
<path fill="none" stroke="midnightblue" d="M3262.47,-156.41C3209.08,-136.31 3106.27,-99.47 3016,-78 2897.54,-49.83 2754.1,-32.79 2686.63,-25.76"/>
<polygon fill="midnightblue" stroke="midnightblue" points="2686.77,-22.25 2676.47,-24.71 2686.06,-29.22 2686.77,-22.25"/>
</g>
<!-- Node44&#45;&gt;Node11 -->
<g id="edge96" class="edge">
<title>Node44&#45;&gt;Node11</title>
<path fill="none" stroke="midnightblue" d="M3236.4,-158.64C3231.53,-157.74 3226.68,-156.85 3222,-156 3130.55,-139.4 3103.29,-151.92 3016,-120 2981.21,-107.28 2979.19,-89.58 2944,-78 2802.6,-31.47 2758.66,-60.91 2611,-42 2587.87,-39.04 2562.57,-35.4 2540.19,-32.04"/>
<polygon fill="midnightblue" stroke="midnightblue" points="2540.54,-28.55 2530.13,-30.52 2539.49,-35.47 2540.54,-28.55"/>
</g>
<!-- Node44&#45;&gt;Node13 -->
<g id="edge97" class="edge">
<title>Node44&#45;&gt;Node13</title>
<path fill="none" stroke="midnightblue" d="M3236.42,-158.53C3231.54,-157.66 3226.69,-156.8 3222,-156 3118.28,-138.26 3091.95,-136.31 2988,-120 2974.37,-117.86 2959.91,-115.57 2945.85,-113.33"/>
<polygon fill="midnightblue" stroke="midnightblue" points="2946.12,-109.83 2935.7,-111.71 2945.02,-116.74 2946.12,-109.83"/>
</g>
<!-- Node44&#45;&gt;Node14 -->
<g id="edge99" class="edge">
<title>Node44&#45;&gt;Node14</title>
<path fill="none" stroke="midnightblue" d="M3236.29,-161.11C3220.86,-159.11 3204.36,-157.23 3189,-156 2638.54,-111.86 2494.48,-192.27 1947,-120 1912.89,-115.5 1708.45,-65.2 1600.96,-38.47"/>
<polygon fill="midnightblue" stroke="midnightblue" points="1601.73,-35.06 1591.18,-36.04 1600.04,-41.85 1601.73,-35.06"/>
</g>
<!-- Node44&#45;&gt;Node15 -->
<g id="edge104" class="edge">
<title>Node44&#45;&gt;Node15</title>
<path fill="none" stroke="midnightblue" d="M3308.83,-156.35C3321.83,-137.89 3345.69,-104.78 3368,-78 3379.62,-64.06 3393.67,-49.02 3404.23,-38.05"/>
<polygon fill="midnightblue" stroke="midnightblue" points="3406.77,-40.46 3411.23,-30.85 3401.75,-35.58 3406.77,-40.46"/>
</g>
<!-- Node44&#45;&gt;Node16 -->
<g id="edge98" class="edge">
<title>Node44&#45;&gt;Node16</title>
<path fill="none" stroke="midnightblue" d="M3236.24,-161.65C3220.81,-159.64 3204.33,-157.62 3189,-156 2957.39,-131.59 2682.12,-112.72 2553.71,-104.5"/>
<polygon fill="midnightblue" stroke="midnightblue" points="2553.81,-101 2543.61,-103.85 2553.37,-107.98 2553.81,-101"/>
</g>
<!-- Node44&#45;&gt;Node20 -->
<g id="edge100" class="edge">
<title>Node44&#45;&gt;Node20</title>
<path fill="none" stroke="midnightblue" d="M3236.28,-161.23C3220.85,-159.23 3204.35,-157.32 3189,-156 2795.02,-122.13 2688.67,-192.85 2300,-120 2202.3,-101.69 2092.64,-56.84 2042.18,-34.74"/>
<polygon fill="midnightblue" stroke="midnightblue" points="2043.46,-31.48 2032.9,-30.63 2040.63,-37.88 2043.46,-31.48"/>
</g>
<!-- Node44&#45;&gt;Node25 -->
<g id="edge102" class="edge">
<title>Node44&#45;&gt;Node25</title>
<path fill="none" stroke="midnightblue" d="M3349.91,-156.4C3455.91,-127.03 3698.44,-59.83 3794.62,-33.19"/>
<polygon fill="midnightblue" stroke="midnightblue" points="3795.57,-36.56 3804.27,-30.51 3793.7,-29.81 3795.57,-36.56"/>
</g>
<!-- Node44&#45;&gt;Node26 -->
<g id="edge103" class="edge">
<title>Node44&#45;&gt;Node26</title>
<path fill="none" stroke="midnightblue" d="M3361.74,-161.05C3417.56,-152.14 3501.23,-137.55 3573,-120 3634.86,-104.87 3647.96,-92.39 3710,-78 3762.11,-65.92 3904.64,-44.51 3991.21,-31.96"/>
<polygon fill="midnightblue" stroke="midnightblue" points="3991.83,-35.4 4001.22,-30.51 3990.82,-28.48 3991.83,-35.4"/>
</g>
<!-- Node44&#45;&gt;Node27 -->
<g id="edge105" class="edge">
<title>Node44&#45;&gt;Node27</title>
<path fill="none" stroke="midnightblue" d="M3361.61,-164.7C3433.15,-157.35 3553.45,-142.84 3655,-120 3716.3,-106.21 3728.34,-90.12 3790,-78 3892.72,-57.81 4187.13,-37.4 4340.5,-27.75"/>
<polygon fill="midnightblue" stroke="midnightblue" points="4341.08,-31.22 4350.84,-27.1 4340.64,-24.23 4341.08,-31.22"/>
</g>
<!-- Node44&#45;&gt;Node28 -->
<g id="edge106" class="edge">
<title>Node44&#45;&gt;Node28</title>
<path fill="none" stroke="midnightblue" d="M3236.29,-161.17C3220.86,-159.17 3204.36,-157.28 3189,-156 2730.3,-117.88 2610.11,-181.81 2154,-120 2014.37,-101.08 1852.86,-55.19 1781.36,-33.6"/>
<polygon fill="midnightblue" stroke="midnightblue" points="1782.06,-30.15 1771.48,-30.59 1780.03,-36.85 1782.06,-30.15"/>
</g>
<!-- Node45&#45;&gt;Node5 -->
<g id="edge113" class="edge">
<title>Node45&#45;&gt;Node5</title>
<path fill="none" stroke="midnightblue" d="M3054.43,-158.46C3049.55,-157.6 3044.7,-156.77 3040,-156 2925.31,-137.24 2885.35,-171.16 2781,-120 2757.01,-108.24 2759.02,-94.49 2738,-78 2717.19,-61.68 2691.38,-46.03 2672.74,-35.45"/>
<polygon fill="midnightblue" stroke="midnightblue" points="2674.4,-32.37 2663.97,-30.54 2670.99,-38.48 2674.4,-32.37"/>
</g>
<!-- Node45&#45;&gt;Node11 -->
<g id="edge108" class="edge">
<title>Node45&#45;&gt;Node11</title>
<path fill="none" stroke="midnightblue" d="M3054.34,-162.24C2947.65,-148.17 2741.81,-120.95 2738,-120 2650.03,-97.99 2551.01,-55.95 2503.85,-34.81"/>
<polygon fill="midnightblue" stroke="midnightblue" points="2505.15,-31.56 2494.6,-30.63 2502.27,-37.94 2505.15,-31.56"/>
</g>
<!-- Node45&#45;&gt;Node13 -->
<g id="edge109" class="edge">
<title>Node45&#45;&gt;Node13</title>
<path fill="none" stroke="midnightblue" d="M3066.51,-156.49C3025.36,-145.06 2967.1,-128.9 2923.46,-116.78"/>
<polygon fill="midnightblue" stroke="midnightblue" points="2924.4,-113.41 2913.82,-114.11 2922.52,-120.15 2924.4,-113.41"/>
</g>
<!-- Node45&#45;&gt;Node14 -->
<g id="edge111" class="edge">
<title>Node45&#45;&gt;Node14</title>
<path fill="none" stroke="midnightblue" d="M3054.3,-161.2C3038.57,-159.17 3021.69,-157.26 3006,-156 2740.07,-134.69 2068.06,-169.99 1806,-120 1719.95,-103.58 1624.83,-63.78 1573.3,-40.26"/>
<polygon fill="midnightblue" stroke="midnightblue" points="1574.75,-37.07 1564.2,-36.06 1571.82,-43.43 1574.75,-37.07"/>
</g>
<!-- Node45&#45;&gt;Node15 -->
<g id="edge116" class="edge">
<title>Node45&#45;&gt;Node15</title>
<path fill="none" stroke="midnightblue" d="M3134.65,-156.28C3159.87,-136.53 3208.22,-100.66 3254,-78 3293.82,-58.29 3342.25,-42.84 3376.49,-33.21"/>
<polygon fill="midnightblue" stroke="midnightblue" points="3377.49,-36.56 3386.2,-30.52 3375.63,-29.81 3377.49,-36.56"/>
</g>
<!-- Node45&#45;&gt;Node16 -->
<g id="edge110" class="edge">
<title>Node45&#45;&gt;Node16</title>
<path fill="none" stroke="midnightblue" d="M3054.22,-162.04C3038.48,-159.99 3021.63,-157.85 3006,-156 2844.74,-136.87 2655.24,-117.4 2553.82,-107.22"/>
<polygon fill="midnightblue" stroke="midnightblue" points="2553.98,-103.72 2543.68,-106.2 2553.29,-110.68 2553.98,-103.72"/>
</g>
<!-- Node45&#45;&gt;Node20 -->
<g id="edge112" class="edge">
<title>Node45&#45;&gt;Node20</title>
<path fill="none" stroke="midnightblue" d="M3054.3,-161.29C3038.56,-159.26 3021.69,-157.32 3006,-156 2902.51,-147.26 2161.21,-173.17 2072,-120 2042.38,-102.35 2026.2,-63.27 2018.9,-40.15"/>
<polygon fill="midnightblue" stroke="midnightblue" points="2022.24,-39.13 2016.07,-30.51 2015.53,-41.09 2022.24,-39.13"/>
</g>
<!-- Node45&#45;&gt;Node25 -->
<g id="edge114" class="edge">
<title>Node45&#45;&gt;Node25</title>
<path fill="none" stroke="midnightblue" d="M3153.82,-156.35C3208.17,-136.01 3313.46,-98.67 3406,-78 3525.34,-51.34 3666.4,-35.94 3753.28,-28.26"/>
<polygon fill="midnightblue" stroke="midnightblue" points="3753.68,-31.74 3763.34,-27.39 3753.07,-24.77 3753.68,-31.74"/>
</g>
<!-- Node45&#45;&gt;Node26 -->
<g id="edge115" class="edge">
<title>Node45&#45;&gt;Node26</title>
<path fill="none" stroke="midnightblue" d="M3179.88,-156.72C3271.17,-137.08 3445.92,-100.9 3596,-78 3737.48,-56.42 3773.99,-59.78 3916,-42 3940.71,-38.91 3967.75,-35.25 3991.72,-31.92"/>
<polygon fill="midnightblue" stroke="midnightblue" points="3992.36,-35.36 4001.78,-30.51 3991.4,-28.43 3992.36,-35.36"/>
</g>
<!-- Node45&#45;&gt;Node27 -->
<g id="edge117" class="edge">
<title>Node45&#45;&gt;Node27</title>
<path fill="none" stroke="midnightblue" d="M3179.52,-162.3C3195.33,-160.24 3212.29,-158.03 3228,-156 3353.31,-139.82 3386.38,-146.12 3510,-120 3573.98,-106.48 3586.67,-89.73 3651,-78 3684.4,-71.91 4139.18,-41.52 4340.85,-28.23"/>
<polygon fill="midnightblue" stroke="midnightblue" points="4341.1,-31.72 4350.85,-27.57 4340.64,-24.74 4341.1,-31.72"/>
</g>
<!-- Node45&#45;&gt;Node28 -->
<g id="edge118" class="edge">
<title>Node45&#45;&gt;Node28</title>
<path fill="none" stroke="midnightblue" d="M3054.3,-161.23C3038.56,-159.2 3021.69,-157.28 3006,-156 2885.67,-146.17 2029.53,-170.8 1920,-120 1897.16,-109.41 1902.63,-92.43 1882,-78 1852.62,-57.45 1814.59,-42.73 1785.89,-33.56"/>
<polygon fill="midnightblue" stroke="midnightblue" points="1786.75,-30.16 1776.16,-30.54 1784.67,-36.85 1786.75,-30.16"/>
</g>
<!-- Node46&#45;&gt;Node5 -->
<g id="edge124" class="edge">
<title>Node46&#45;&gt;Node5</title>
<path fill="none" stroke="midnightblue" d="M2872.18,-157.8C2869.08,-157.19 2866,-156.59 2863,-156 2778.21,-139.47 2734.71,-179.42 2672,-120 2650.34,-99.48 2646.88,-62.89 2646.99,-40.69"/>
<polygon fill="midnightblue" stroke="midnightblue" points="2650.49,-40.66 2647.29,-30.56 2643.49,-40.45 2650.49,-40.66"/>
</g>
<!-- Node46&#45;&gt;Node11 -->
<g id="edge120" class="edge">
<title>Node46&#45;&gt;Node11</title>
<path fill="none" stroke="midnightblue" d="M2872.25,-157.4C2869.13,-156.9 2866.03,-156.42 2863,-156 2812.88,-148.99 2443.34,-157.17 2409,-120 2396.33,-106.29 2401.09,-94.91 2409,-78 2417.45,-59.92 2434.94,-45.62 2449.92,-36"/>
<polygon fill="midnightblue" stroke="midnightblue" points="2452.08,-38.79 2458.83,-30.62 2448.46,-32.8 2452.08,-38.79"/>
</g>
<!-- Node46&#45;&gt;Node16 -->
<g id="edge121" class="edge">
<title>Node46&#45;&gt;Node16</title>
<path fill="none" stroke="midnightblue" d="M2872.22,-157.61C2869.1,-157.05 2866.02,-156.51 2863,-156 2744.91,-136.17 2714.34,-138.26 2596,-120 2582.3,-117.89 2567.71,-115.47 2553.69,-113.07"/>
<polygon fill="midnightblue" stroke="midnightblue" points="2554.05,-109.58 2543.6,-111.33 2552.86,-116.48 2554.05,-109.58"/>
</g>
<!-- Node46&#45;&gt;Node20 -->
<g id="edge123" class="edge">
<title>Node46&#45;&gt;Node20</title>
<path fill="none" stroke="midnightblue" d="M2872.26,-157.27C2869.14,-156.8 2866.04,-156.37 2863,-156 2817.24,-150.43 2069.07,-149.92 2034,-120 2011.4,-100.71 2010.08,-63.43 2011.68,-40.83"/>
<polygon fill="midnightblue" stroke="midnightblue" points="2015.18,-41.07 2012.66,-30.78 2008.21,-40.39 2015.18,-41.07"/>
</g>
<!-- Node46&#45;&gt;Node40 -->
<g id="edge122" class="edge">
<title>Node46&#45;&gt;Node40</title>
<path fill="none" stroke="midnightblue" d="M2997.71,-161.34C3013.45,-159.31 3030.32,-157.36 3046,-156 3420.06,-123.65 3515.96,-152.52 3890,-120 3918.33,-117.54 3949.49,-113.65 3976.19,-109.95"/>
<polygon fill="midnightblue" stroke="midnightblue" points="3976.77,-113.4 3986.18,-108.54 3975.79,-106.47 3976.77,-113.4"/>
</g>
<!-- Node47&#45;&gt;Node4 -->
<g id="edge126" class="edge">
<title>Node47&#45;&gt;Node4</title>
<path fill="none" stroke="midnightblue" d="M3929.91,-295.84C3976.69,-273.22 4102.72,-212.28 4158.18,-185.47"/>
<polygon fill="midnightblue" stroke="midnightblue" points="4159.9,-188.53 4167.38,-181.02 4156.85,-182.22 4159.9,-188.53"/>
</g>
<!-- Node47&#45;&gt;Node5 -->
<g id="edge127" class="edge">
<title>Node47&#45;&gt;Node5</title>
<path fill="none" stroke="midnightblue" d="M3883.56,-295.96C3875.66,-293.79 3867.04,-291.62 3859,-290 3739.47,-265.86 3704.24,-287.55 3587,-254 3485.65,-224.99 3471.05,-189.2 3371,-156 3299.76,-132.36 3277.79,-141.9 3206,-120 3157.53,-105.22 3149.1,-90.55 3100,-78 2950.19,-39.71 2765.51,-27.24 2686.64,-23.49"/>
<polygon fill="midnightblue" stroke="midnightblue" points="2686.38,-19.97 2676.23,-23.01 2686.06,-26.96 2686.38,-19.97"/>
</g>
<!-- Node47&#45;&gt;Node8 -->
<g id="edge128" class="edge">
<title>Node47&#45;&gt;Node8</title>
<path fill="none" stroke="midnightblue" d="M3885.58,-295.93C3877.17,-293.57 3867.78,-291.3 3859,-290 3786.76,-279.29 2595.93,-306.34 2545,-254 2528.75,-237.3 2536.96,-208.64 2544.99,-190.13"/>
<polygon fill="midnightblue" stroke="midnightblue" points="2548.18,-191.58 2549.28,-181.04 2541.85,-188.59 2548.18,-191.58"/>
</g>
<!-- Node47&#45;&gt;Node9 -->
<g id="edge129" class="edge">
<title>Node47&#45;&gt;Node9</title>
<path fill="none" stroke="midnightblue" d="M3916.28,-295.79C3924.63,-279.59 3944.5,-244.49 3970,-223 3990.25,-205.93 4017.26,-193.11 4038.81,-184.66"/>
<polygon fill="midnightblue" stroke="midnightblue" points="4040.17,-187.89 4048.29,-181.08 4037.69,-181.34 4040.17,-187.89"/>
</g>
<!-- Node47&#45;&gt;Node13 -->
<g id="edge130" class="edge">
<title>Node47&#45;&gt;Node13</title>
<path fill="none" stroke="midnightblue" d="M3884.43,-295.95C3876.31,-293.71 3867.36,-291.5 3859,-290 3680.26,-257.91 3630.35,-288.19 3452,-254 3349.95,-234.43 3320.12,-235.09 3228,-187 3208.37,-176.75 3209.33,-164.78 3189,-156 3086.34,-111.68 3049.61,-142.09 2940,-120 2934.67,-118.93 2929.16,-117.71 2923.64,-116.42"/>
<polygon fill="midnightblue" stroke="midnightblue" points="2924.3,-112.98 2913.76,-114.03 2922.66,-119.78 2924.3,-112.98"/>
</g>
<!-- Node47&#45;&gt;Node15 -->
<g id="edge151" class="edge">
<title>Node47&#45;&gt;Node15</title>
<path fill="none" stroke="midnightblue" d="M3913.33,-295.83C3916.02,-280.26 3923.14,-246.99 3938,-223 3949.25,-204.83 3988.1,-165.98 4007,-156 4077.99,-118.53 4133.21,-182.16 4184,-120 4195.81,-105.55 4196.71,-91.67 4184,-78 4178.08,-71.63 3671.78,-38.28 3486.75,-26.3"/>
<polygon fill="midnightblue" stroke="midnightblue" points="3486.81,-22.79 3476.6,-25.64 3486.36,-29.78 3486.81,-22.79"/>
</g>
<!-- Node47&#45;&gt;Node25 -->
<g id="edge149" class="edge">
<title>Node47&#45;&gt;Node25</title>
<path fill="none" stroke="midnightblue" d="M3955.61,-302.54C4060.5,-297.39 4320.18,-281.94 4347,-254 4401.25,-197.47 4409.63,-136.04 4357,-78 4329.48,-47.65 4030.71,-46.62 3990,-42 3963.11,-38.95 3933.63,-35.24 3907.68,-31.84"/>
<polygon fill="midnightblue" stroke="midnightblue" points="3907.91,-28.34 3897.54,-30.51 3907,-35.28 3907.91,-28.34"/>
</g>
<!-- Node47&#45;&gt;Node26 -->
<g id="edge150" class="edge">
<title>Node47&#45;&gt;Node26</title>
<path fill="none" stroke="midnightblue" d="M3955.69,-305.04C4057.5,-305.48 4306.89,-301.52 4373,-254 4399.64,-234.85 4396.95,-219.04 4404,-187 4414.59,-138.9 4420.18,-111.42 4384,-78 4348.45,-45.16 4217.56,-31.24 4133.71,-25.59"/>
<polygon fill="midnightblue" stroke="midnightblue" points="4133.93,-22.1 4123.72,-24.94 4133.48,-29.08 4133.93,-22.1"/>
</g>
<!-- Node47&#45;&gt;Node27 -->
<g id="edge152" class="edge">
<title>Node47&#45;&gt;Node27</title>
<path fill="none" stroke="midnightblue" d="M3955.78,-304.24C4060.52,-302.94 4322.45,-295.52 4398,-254 4464.55,-217.43 4479.06,-191.72 4504,-120 4510.13,-102.37 4511.97,-94.88 4504,-78 4495.41,-59.79 4477.66,-45.5 4462.46,-35.91"/>
<polygon fill="midnightblue" stroke="midnightblue" points="4463.81,-32.64 4453.42,-30.56 4460.24,-38.66 4463.81,-32.64"/>
</g>
<!-- Node47&#45;&gt;Node28 -->
<g id="edge153" class="edge">
<title>Node47&#45;&gt;Node28</title>
<path fill="none" stroke="midnightblue" d="M3885.58,-295.93C3877.17,-293.57 3867.78,-291.3 3859,-290 3567.19,-246.77 2826.67,-267.82 2532,-254 2308.64,-243.52 1680.76,-350.29 1528,-187 1464.67,-119.31 1625.7,-58.35 1704.07,-33.65"/>
<polygon fill="midnightblue" stroke="midnightblue" points="1705.58,-36.84 1714.1,-30.54 1703.51,-30.16 1705.58,-36.84"/>
</g>
<!-- Node47&#45;&gt;Node50 -->
<g id="edge131" class="edge">
<title>Node47&#45;&gt;Node50</title>
<path fill="none" stroke="midnightblue" d="M3955.61,-296.98C4023.51,-285.27 4154.54,-262.68 4230.55,-249.58"/>
<polygon fill="midnightblue" stroke="midnightblue" points="4231.18,-253.02 4240.44,-247.87 4229.99,-246.12 4231.18,-253.02"/>
</g>
<!-- Node47&#45;&gt;Node53 -->
<g id="edge140" class="edge">
<title>Node47&#45;&gt;Node53</title>
<path fill="none" stroke="midnightblue" d="M3881.81,-295.93C3874.37,-293.9 3866.41,-291.81 3859,-290 3790.22,-273.21 3709.38,-256.5 3662.68,-247.13"/>
<polygon fill="midnightblue" stroke="midnightblue" points="3663.19,-243.66 3652.69,-245.13 3661.81,-250.52 3663.19,-243.66"/>
</g>
<!-- Node50&#45;&gt;Node4 -->
<g id="edge132" class="edge">
<title>Node50&#45;&gt;Node4</title>
<path fill="none" stroke="midnightblue" d="M4274.97,-228.73C4257.67,-217.92 4228.01,-199.38 4207.51,-186.57"/>
<polygon fill="midnightblue" stroke="midnightblue" points="4209.14,-183.46 4198.8,-181.13 4205.43,-189.4 4209.14,-183.46"/>
</g>
<!-- Node50&#45;&gt;Node5 -->
<g id="edge133" class="edge">
<title>Node50&#45;&gt;Node5</title>
<path fill="none" stroke="midnightblue" d="M4285.05,-229C4271.38,-200.73 4222.95,-109.94 4151,-78 4116.51,-62.69 2918.37,-29.36 2686.6,-23.04"/>
<polygon fill="midnightblue" stroke="midnightblue" points="2686.39,-19.54 2676.3,-22.76 2686.2,-26.53 2686.39,-19.54"/>
</g>
<!-- Node50&#45;&gt;Node15 -->
<g id="edge137" class="edge">
<title>Node50&#45;&gt;Node15</title>
<path fill="none" stroke="midnightblue" d="M4293.27,-228.78C4305.66,-202.12 4338.23,-120.88 4298,-78 4294.53,-74.3 3690.95,-38.1 3486.68,-25.95"/>
<polygon fill="midnightblue" stroke="midnightblue" points="3486.87,-22.46 3476.68,-25.36 3486.45,-29.45 3486.87,-22.46"/>
</g>
<!-- Node50&#45;&gt;Node25 -->
<g id="edge135" class="edge">
<title>Node50&#45;&gt;Node25</title>
<path fill="none" stroke="midnightblue" d="M4296.63,-228.64C4318.41,-202.26 4376.78,-123.24 4336,-78 4310.12,-49.29 4028.39,-46.47 3990,-42 3963.35,-38.9 3934.17,-35.21 3908.38,-31.85"/>
<polygon fill="midnightblue" stroke="midnightblue" points="3908.67,-28.35 3898.3,-30.53 3907.77,-35.29 3908.67,-28.35"/>
</g>
<!-- Node50&#45;&gt;Node26 -->
<g id="edge136" class="edge">
<title>Node50&#45;&gt;Node26</title>
<path fill="none" stroke="midnightblue" d="M4309.56,-228.99C4328.15,-220.51 4355.38,-206 4374,-187 4409.91,-150.36 4445.3,-117.03 4412,-78 4376.97,-36.94 4225.9,-25.84 4133.75,-22.94"/>
<polygon fill="midnightblue" stroke="midnightblue" points="4133.74,-19.44 4123.64,-22.64 4133.54,-26.43 4133.74,-19.44"/>
</g>
<!-- Node50&#45;&gt;Node27 -->
<g id="edge138" class="edge">
<title>Node50&#45;&gt;Node27</title>
<path fill="none" stroke="midnightblue" d="M4327.06,-228.99C4376.25,-215.58 4459.02,-184.17 4488,-120 4495.68,-102.99 4494.82,-95.38 4488,-78 4481.6,-61.7 4467.98,-47.33 4456.28,-37.22"/>
<polygon fill="midnightblue" stroke="midnightblue" points="4458.2,-34.27 4448.24,-30.65 4453.77,-39.69 4458.2,-34.27"/>
</g>
<!-- Node50&#45;&gt;Node28 -->
<g id="edge139" class="edge">
<title>Node50&#45;&gt;Node28</title>
<path fill="none" stroke="midnightblue" d="M4240.31,-236.32C3938.71,-229.01 2337.96,-190.07 2326,-187 2296.93,-179.54 2294.72,-164.72 2266,-156 2129.9,-114.67 2084.69,-159.35 1948,-120 1878.33,-99.95 1803.12,-57.89 1766.54,-35.97"/>
<polygon fill="midnightblue" stroke="midnightblue" points="1768.06,-32.79 1757.69,-30.6 1764.43,-38.78 1768.06,-32.79"/>
</g>
<!-- Node50&#45;&gt;Node43 -->
<g id="edge134" class="edge">
<title>Node50&#45;&gt;Node43</title>
<path fill="none" stroke="midnightblue" d="M4240.4,-232.8C4123.78,-221.52 3827.54,-192.87 3689.66,-179.53"/>
<polygon fill="midnightblue" stroke="midnightblue" points="3689.9,-176.04 3679.61,-178.56 3689.23,-183 3689.9,-176.04"/>
</g>
<!-- Node53&#45;&gt;Node4 -->
<g id="edge141" class="edge">
<title>Node53&#45;&gt;Node4</title>
<path fill="none" stroke="midnightblue" d="M3652.78,-237.06C3731.93,-235.36 3959.24,-227.07 4143,-187 4146.5,-186.24 4150.11,-185.27 4153.67,-184.21"/>
<polygon fill="midnightblue" stroke="midnightblue" points="4155.05,-187.44 4163.48,-181.02 4152.89,-180.78 4155.05,-187.44"/>
</g>
<!-- Node53&#45;&gt;Node5 -->
<g id="edge142" class="edge">
<title>Node53&#45;&gt;Node5</title>
<path fill="none" stroke="midnightblue" d="M3611.04,-228.76C3586.44,-212.49 3530.88,-177.28 3480,-156 3472.7,-152.95 3213.77,-79.48 3206,-78 3012.82,-41.11 2777.08,-27.57 2686.22,-23.5"/>
<polygon fill="midnightblue" stroke="midnightblue" points="2686.26,-20 2676.12,-23.06 2685.96,-26.99 2686.26,-20"/>
</g>
<!-- Node53&#45;&gt;Node9 -->
<g id="edge144" class="edge">
<title>Node53&#45;&gt;Node9</title>
<path fill="none" stroke="midnightblue" d="M3652.55,-233.38C3722.66,-223.28 3904.87,-197.02 4005.57,-182.51"/>
<polygon fill="midnightblue" stroke="midnightblue" points="4006.25,-185.94 4015.65,-181.05 4005.25,-179.02 4006.25,-185.94"/>
</g>
<!-- Node53&#45;&gt;Node23 -->
<g id="edge147" class="edge">
<title>Node53&#45;&gt;Node23</title>
<path fill="none" stroke="midnightblue" d="M3595.3,-237.3C3410.7,-235.92 2393.8,-226.56 2262,-187 2236.59,-179.37 2236.35,-163.82 2211,-156 2064.28,-110.75 1673.38,-138.83 1521,-120 1424.81,-108.11 1403.21,-89.76 1307,-78 915.89,-30.21 444.09,-22.91 256.61,-22.01"/>
<polygon fill="midnightblue" stroke="midnightblue" points="256.57,-18.51 246.55,-21.96 256.53,-25.51 256.57,-18.51"/>
</g>
<!-- Node53&#45;&gt;Node24 -->
<g id="edge148" class="edge">
<title>Node53&#45;&gt;Node24</title>
<path fill="none" stroke="midnightblue" d="M3652.52,-230.93C3728.93,-213.42 3937.21,-166.22 4007,-156 4202.45,-127.38 4254.67,-149.45 4450,-120 4599.14,-97.52 4773.03,-53.68 4850.78,-33.13"/>
<polygon fill="midnightblue" stroke="midnightblue" points="4851.89,-36.46 4860.66,-30.51 4850.09,-29.69 4851.89,-36.46"/>
</g>
<!-- Node53&#45;&gt;Node39 -->
<g id="edge143" class="edge">
<title>Node53&#45;&gt;Node39</title>
<path fill="none" stroke="midnightblue" d="M3595.19,-236.91C3494.19,-234.55 3146.92,-224.08 2863,-187 2854.79,-185.93 2846.11,-184.5 2837.71,-182.96"/>
<polygon fill="midnightblue" stroke="midnightblue" points="2838.12,-179.47 2827.64,-181.03 2836.8,-186.35 2838.12,-179.47"/>
</g>
<!-- Node53&#45;&gt;Node40 -->
<g id="edge145" class="edge">
<title>Node53&#45;&gt;Node40</title>
<path fill="none" stroke="midnightblue" d="M3650.15,-228.9C3722.3,-205.17 3924.25,-138.73 4006.48,-111.68"/>
<polygon fill="midnightblue" stroke="midnightblue" points="4007.72,-114.96 4016.13,-108.51 4005.54,-108.31 4007.72,-114.96"/>
</g>
<!-- Node53&#45;&gt;Node46 -->
<g id="edge146" class="edge">
<title>Node53&#45;&gt;Node46</title>
<path fill="none" stroke="midnightblue" d="M3595.39,-235.44C3511.12,-229.26 3256.54,-209.94 3046,-187 3033.65,-185.65 3020.55,-184.08 3007.84,-182.47"/>
<polygon fill="midnightblue" stroke="midnightblue" points="3008.12,-178.97 2997.76,-181.17 3007.23,-185.92 3008.12,-178.97"/>
</g>
<!-- Node59&#45;&gt;Node4 -->
<g id="edge161" class="edge">
<title>Node59&#45;&gt;Node4</title>
<path fill="none" stroke="midnightblue" d="M2668.21,-236.63C2928.68,-232.51 3996.13,-214.13 4143,-187 4146.71,-186.32 4150.53,-185.36 4154.29,-184.27"/>
<polygon fill="midnightblue" stroke="midnightblue" points="4155.53,-187.55 4163.97,-181.14 4153.37,-180.89 4155.53,-187.55"/>
</g>
<!-- Node59&#45;&gt;Node5 -->
<g id="edge162" class="edge">
<title>Node59&#45;&gt;Node5</title>
<path fill="none" stroke="midnightblue" d="M2623.19,-223.23C2636.75,-205.58 2654.66,-175.49 2638,-156 2571.04,-77.7 2475.96,-198.3 2409,-120 2396.87,-105.81 2397.4,-92.63 2409,-78 2415.28,-70.08 2543.68,-43.11 2609.63,-29.7"/>
<polygon fill="midnightblue" stroke="midnightblue" points="2610.54,-33.08 2619.64,-27.67 2609.15,-26.22 2610.54,-33.08"/>
</g>
<!-- Node59&#45;&gt;Node6 -->
<g id="edge163" class="edge">
<title>Node59&#45;&gt;Node6</title>
<path fill="none" stroke="midnightblue" d="M2553.74,-235.16C2392.37,-228.5 1920.1,-208.5 1528,-187 1477.69,-184.24 1421.21,-180.69 1376.82,-177.79"/>
<polygon fill="midnightblue" stroke="midnightblue" points="1376.88,-174.29 1366.67,-177.12 1376.42,-181.27 1376.88,-174.29"/>
</g>
<!-- Node59&#45;&gt;Node7 -->
<g id="edge165" class="edge">
<title>Node59&#45;&gt;Node7</title>
<path fill="none" stroke="midnightblue" d="M2553.77,-235.52C2412.5,-230.37 2035.99,-214.94 1723,-187 1708.35,-185.69 1692.71,-184 1677.76,-182.24"/>
<polygon fill="midnightblue" stroke="midnightblue" points="1677.88,-178.73 1667.53,-181.01 1677.04,-185.68 1677.88,-178.73"/>
</g>
<!-- Node59&#45;&gt;Node8 -->
<g id="edge169" class="edge">
<title>Node59&#45;&gt;Node8</title>
<path fill="none" stroke="midnightblue" d="M2598.63,-223.4C2589.74,-213.26 2577.74,-199.57 2568.41,-188.94"/>
<polygon fill="midnightblue" stroke="midnightblue" points="2570.85,-186.41 2561.62,-181.19 2565.59,-191.02 2570.85,-186.41"/>
</g>
<!-- Node59&#45;&gt;Node9 -->
<g id="edge171" class="edge">
<title>Node59&#45;&gt;Node9</title>
<path fill="none" stroke="midnightblue" d="M2668.14,-235.65C2844.28,-229.85 3394.5,-210.96 3850,-187 3902.22,-184.25 3961.21,-180.42 4005.69,-177.39"/>
<polygon fill="midnightblue" stroke="midnightblue" points="4006.07,-180.87 4015.81,-176.7 4005.59,-173.89 4006.07,-180.87"/>
</g>
<!-- Node59&#45;&gt;Node14 -->
<g id="edge168" class="edge">
<title>Node59&#45;&gt;Node14</title>
<path fill="none" stroke="midnightblue" d="M2553.75,-236.52C2387.79,-233.32 1908.61,-221.27 1756,-187 1720,-178.92 1714.21,-167.02 1679,-156 1610.27,-134.48 1565.92,-176.3 1521,-120 1504.18,-98.91 1513.25,-66.84 1522.78,-45.19"/>
<polygon fill="midnightblue" stroke="midnightblue" points="1525.99,-46.58 1527.1,-36.04 1519.66,-43.59 1525.99,-46.58"/>
</g>
<!-- Node59&#45;&gt;Node15 -->
<g id="edge175" class="edge">
<title>Node59&#45;&gt;Node15</title>
<path fill="none" stroke="midnightblue" d="M2668.14,-237.4C2835.55,-236.62 3316.51,-230.55 3371,-187 3415.88,-151.13 3420.99,-76.07 3420.75,-40.92"/>
<polygon fill="midnightblue" stroke="midnightblue" points="3424.24,-40.56 3420.51,-30.64 3417.24,-40.72 3424.24,-40.56"/>
</g>
<!-- Node59&#45;&gt;Node25 -->
<g id="edge173" class="edge">
<title>Node59&#45;&gt;Node25</title>
<path fill="none" stroke="midnightblue" d="M2668.03,-237.41C2877.47,-236.73 3596.75,-231.18 3689,-187 3756.51,-154.67 3806.12,-75.36 3825.75,-39.78"/>
<polygon fill="midnightblue" stroke="midnightblue" points="3829.02,-41.07 3830.67,-30.61 3822.86,-37.76 3829.02,-41.07"/>
</g>
<!-- Node59&#45;&gt;Node26 -->
<g id="edge174" class="edge">
<title>Node59&#45;&gt;Node26</title>
<path fill="none" stroke="midnightblue" d="M2668.36,-236.77C2887.97,-233.74 3668.27,-220.68 3774,-187 3798.2,-179.29 3798.07,-164.5 3822,-156 3891.31,-131.39 4101.9,-174.76 4151,-120 4163.46,-106.1 4160.07,-94.32 4151,-78 4139.56,-57.4 4117.04,-43.4 4097.4,-34.55"/>
<polygon fill="midnightblue" stroke="midnightblue" points="4098.62,-31.26 4088.05,-30.61 4095.9,-37.72 4098.62,-31.26"/>
</g>
<!-- Node59&#45;&gt;Node27 -->
<g id="edge176" class="edge">
<title>Node59&#45;&gt;Node27</title>
<path fill="none" stroke="midnightblue" d="M2668.06,-237.21C2892.09,-235.79 3704.52,-227.84 3812,-187 3832.37,-179.26 3829.91,-164.45 3850,-156 3981.51,-100.66 4030.15,-152.82 4169,-120 4258.95,-98.74 4360.11,-56.18 4407.99,-34.83"/>
<polygon fill="midnightblue" stroke="midnightblue" points="4409.69,-37.9 4417.38,-30.61 4406.82,-31.52 4409.69,-37.9"/>
</g>
<!-- Node59&#45;&gt;Node28 -->
<g id="edge177" class="edge">
<title>Node59&#45;&gt;Node28</title>
<path fill="none" stroke="midnightblue" d="M2553.98,-231.99C2489.77,-224.97 2382.69,-210.81 2293,-187 2255.34,-177 2249.04,-164.43 2211,-156 2158.68,-144.41 1766.45,-159.29 1730,-120 1709.92,-98.36 1723.09,-61.63 1733.93,-39.81"/>
<polygon fill="midnightblue" stroke="midnightblue" points="1737.18,-41.16 1738.77,-30.68 1730.99,-37.88 1737.18,-41.16"/>
</g>
<!-- Node59&#45;&gt;Node39 -->
<g id="edge170" class="edge">
<title>Node59&#45;&gt;Node39</title>
<path fill="none" stroke="midnightblue" d="M2649.62,-223.4C2681.41,-211.79 2725.98,-195.51 2756.09,-184.52"/>
<polygon fill="midnightblue" stroke="midnightblue" points="2757.51,-187.72 2765.7,-181.01 2755.11,-181.15 2757.51,-187.72"/>
</g>
<!-- Node59&#45;&gt;Node40 -->
<g id="edge172" class="edge">
<title>Node59&#45;&gt;Node40</title>
<path fill="none" stroke="midnightblue" d="M2668.32,-236.68C2883.22,-233.37 3634.03,-219.57 3736,-187 3760.19,-179.27 3760.55,-165.74 3784,-156 3819.31,-141.34 3918.16,-122 3982.75,-110.31"/>
<polygon fill="midnightblue" stroke="midnightblue" points="3983.58,-113.72 3992.8,-108.51 3982.34,-106.83 3983.58,-113.72"/>
</g>
<!-- Node60 -->
<g id="node47" class="node">
<title>Node60</title>
<g id="a_node47"><a xlink:title=" ">
<polygon fill="none" stroke="#bfbfbf" points="1765.5,-156.5 1765.5,-186.5 1904.5,-186.5 1904.5,-156.5 1765.5,-156.5"/>
<text text-anchor="start" x="1773.5" y="-174.5" font-family="Helvetica,sans-Serif" font-size="10.00">seerep&#45;msgs/point_cloud</text>
<text text-anchor="middle" x="1835" y="-163.5" font-family="Helvetica,sans-Serif" font-size="10.00">_2.pb.h</text>
</a>
</g>
</g>
<!-- Node59&#45;&gt;Node60 -->
<g id="edge164" class="edge">
<title>Node59&#45;&gt;Node60</title>
<path fill="none" stroke="midnightblue" d="M2553.78,-235.52C2435.95,-230.98 2157.54,-217.84 1914.76,-187.14"/>
<polygon fill="midnightblue" stroke="midnightblue" points="1915.04,-183.65 1904.68,-185.85 1914.16,-190.59 1915.04,-183.65"/>
</g>
<!-- Node61 -->
<g id="node48" class="node">
<title>Node61</title>
<g id="a_node48"><a xlink:title=" ">
<polygon fill="none" stroke="#bfbfbf" points="1922.5,-156.5 1922.5,-186.5 2053.5,-186.5 2053.5,-156.5 1922.5,-156.5"/>
<text text-anchor="start" x="1930.5" y="-174.5" font-family="Helvetica,sans-Serif" font-size="10.00">seerep&#45;msgs/transform</text>
<text text-anchor="middle" x="1988" y="-163.5" font-family="Helvetica,sans-Serif" font-size="10.00">_stamped.pb.h</text>
</a>
</g>
</g>
<!-- Node59&#45;&gt;Node61 -->
<g id="edge166" class="edge">
<title>Node59&#45;&gt;Node61</title>
<path fill="none" stroke="midnightblue" d="M2553.87,-234.17C2455.64,-228.02 2248.26,-213.19 2063.86,-187.18"/>
<polygon fill="midnightblue" stroke="midnightblue" points="2064.1,-183.68 2053.71,-185.74 2063.11,-190.61 2064.1,-183.68"/>
</g>
<!-- Node62 -->
<g id="node49" class="node">
<title>Node62</title>
<g id="a_node49"><a xlink:title=" ">
<polygon fill="none" stroke="#bfbfbf" points="2071.5,-156.5 2071.5,-186.5 2202.5,-186.5 2202.5,-156.5 2071.5,-156.5"/>
<text text-anchor="start" x="2079.5" y="-174.5" font-family="Helvetica,sans-Serif" font-size="10.00">seerep&#45;msgs/transform</text>
<text text-anchor="middle" x="2137" y="-163.5" font-family="Helvetica,sans-Serif" font-size="10.00">_stamped_query.pb.h</text>
</a>
</g>
</g>
<!-- Node59&#45;&gt;Node62 -->
<g id="edge167" class="edge">
<title>Node59&#45;&gt;Node62</title>
<path fill="none" stroke="midnightblue" d="M2553.78,-231.11C2476.99,-222.32 2336.44,-205.47 2217,-187 2215.71,-186.8 2214.4,-186.6 2213.08,-186.39"/>
<polygon fill="midnightblue" stroke="midnightblue" points="2213.31,-182.88 2202.88,-184.72 2212.18,-189.79 2213.31,-182.88"/>
</g>
</g>
</svg>
