<?xml version="1.0" encoding="UTF-8" standalone="no"?>
<!DOCTYPE svg PUBLIC "-//W3C//DTD SVG 1.1//EN"
 "http://www.w3.org/Graphics/SVG/1.1/DTD/svg11.dtd">
<!-- Generated by graphviz version 2.43.0 (0)
 -->
<!-- Title: seerep&#45;srv/seerep&#45;server/src/pb&#45;image&#45;service.cpp Pages: 1 -->
<svg width="4391pt" height="687pt"
 viewBox="0.00 0.00 4390.50 687.00" xmlns="http://www.w3.org/2000/svg" xmlns:xlink="http://www.w3.org/1999/xlink">
<g id="graph0" class="graph" transform="scale(1 1) rotate(0) translate(4 683)">
<title>seerep&#45;srv/seerep&#45;server/src/pb&#45;image&#45;service.cpp</title>
<!-- Node1 -->
<g id="node1" class="node">
<title>Node1</title>
<g id="a_node1"><a xlink:title=" ">
<polygon fill="#bfbfbf" stroke="black" points="1696,-648.5 1696,-678.5 1839,-678.5 1839,-648.5 1696,-648.5"/>
<text text-anchor="start" x="1704" y="-666.5" font-family="Helvetica,sans-Serif" font-size="10.00">seerep&#45;srv/seerep&#45;server</text>
<text text-anchor="middle" x="1767.5" y="-655.5" font-family="Helvetica,sans-Serif" font-size="10.00">/src/pb&#45;image&#45;service.cpp</text>
</a>
</g>
</g>
<!-- Node2 -->
<g id="node2" class="node">
<title>Node2</title>
<g id="a_node2"><a xlink:href="pb-image-service_8h.html" target="_top" xlink:title=" ">
<polygon fill="none" stroke="black" points="1700.5,-581.5 1700.5,-611.5 1834.5,-611.5 1834.5,-581.5 1700.5,-581.5"/>
<text text-anchor="start" x="1708.5" y="-599.5" font-family="Helvetica,sans-Serif" font-size="10.00">seerep&#45;server/pb&#45;image</text>
<text text-anchor="middle" x="1767.5" y="-588.5" font-family="Helvetica,sans-Serif" font-size="10.00">&#45;service.h</text>
</a>
</g>
</g>
<!-- Node1&#45;&gt;Node2 -->
<g id="edge1" class="edge">
<title>Node1&#45;&gt;Node2</title>
<path fill="none" stroke="midnightblue" d="M1767.5,-648.4C1767.5,-640.64 1767.5,-630.81 1767.5,-621.86"/>
<polygon fill="midnightblue" stroke="midnightblue" points="1771,-621.58 1767.5,-611.58 1764,-621.58 1771,-621.58"/>
</g>
<!-- Node3 -->
<g id="node3" class="node">
<title>Node3</title>
<g id="a_node3"><a xlink:title=" ">
<polygon fill="none" stroke="#bfbfbf" points="1455,-520 1455,-539 1650,-539 1650,-520 1455,-520"/>
<text text-anchor="middle" x="1552.5" y="-527" font-family="Helvetica,sans-Serif" font-size="10.00">seerep&#45;com/image&#45;service.grpc.pb.h</text>
</a>
</g>
</g>
<!-- Node2&#45;&gt;Node3 -->
<g id="edge2" class="edge">
<title>Node2&#45;&gt;Node3</title>
<path fill="none" stroke="midnightblue" d="M1721.11,-581.48C1682.07,-569.67 1626.93,-553 1590.47,-541.98"/>
<polygon fill="midnightblue" stroke="midnightblue" points="1591.3,-538.57 1580.71,-539.03 1589.27,-545.27 1591.3,-538.57"/>
</g>
<!-- Node4 -->
<g id="node4" class="node">
<title>Node4</title>
<g id="a_node4"><a xlink:href="core-pb-image_8h.html" target="_top" xlink:title=" ">
<polygon fill="none" stroke="black" points="1668.5,-514.5 1668.5,-544.5 1782.5,-544.5 1782.5,-514.5 1668.5,-514.5"/>
<text text-anchor="start" x="1676.5" y="-532.5" font-family="Helvetica,sans-Serif" font-size="10.00">seerep&#45;core&#45;pb/core</text>
<text text-anchor="middle" x="1725.5" y="-521.5" font-family="Helvetica,sans-Serif" font-size="10.00">&#45;pb&#45;image.h</text>
</a>
</g>
</g>
<!-- Node2&#45;&gt;Node4 -->
<g id="edge3" class="edge">
<title>Node2&#45;&gt;Node4</title>
<path fill="none" stroke="midnightblue" d="M1758.39,-581.4C1753.05,-573.13 1746.18,-562.51 1740.1,-553.1"/>
<polygon fill="midnightblue" stroke="midnightblue" points="1742.96,-551.08 1734.6,-544.58 1737.08,-554.88 1742.96,-551.08"/>
</g>
<!-- Node33 -->
<g id="node31" class="node">
<title>Node33</title>
<g id="a_node31"><a xlink:href="core_8h.html" target="_top" xlink:title=" ">
<polygon fill="none" stroke="black" points="1757,-458.5 1757,-477.5 1864,-477.5 1864,-458.5 1757,-458.5"/>
<text text-anchor="middle" x="1810.5" y="-465.5" font-family="Helvetica,sans-Serif" font-size="10.00">seerep&#45;core/core.h</text>
</a>
</g>
</g>
<!-- Node2&#45;&gt;Node33 -->
<g id="edge177" class="edge">
<title>Node2&#45;&gt;Node33</title>
<path fill="none" stroke="midnightblue" d="M1775.21,-581.24C1780.36,-571.3 1786.98,-557.61 1791.5,-545 1798.37,-525.84 1803.7,-503.1 1806.95,-487.52"/>
<polygon fill="midnightblue" stroke="midnightblue" points="1810.4,-488.09 1808.93,-477.6 1803.54,-486.72 1810.4,-488.09"/>
</g>
<!-- Node56 -->
<g id="node50" class="node">
<title>Node56</title>
<g id="a_node50"><a xlink:title=" ">
<polygon fill="none" stroke="#bfbfbf" points="1839,-520 1839,-539 1892,-539 1892,-520 1839,-520"/>
<text text-anchor="middle" x="1865.5" y="-527" font-family="Helvetica,sans-Serif" font-size="10.00">util.hpp</text>
</a>
</g>
</g>
<!-- Node2&#45;&gt;Node56 -->
<g id="edge178" class="edge">
<title>Node2&#45;&gt;Node56</title>
<path fill="none" stroke="midnightblue" d="M1788.76,-581.4C1805.2,-570.5 1827.84,-555.48 1844.27,-544.58"/>
<polygon fill="midnightblue" stroke="midnightblue" points="1846.28,-547.45 1852.67,-539.01 1842.41,-541.62 1846.28,-547.45"/>
</g>
<!-- Node5 -->
<g id="node5" class="node">
<title>Node5</title>
<g id="a_node5"><a xlink:title=" ">
<polygon fill="none" stroke="#bfbfbf" points="3301,-140 3301,-159 3366,-159 3366,-140 3301,-140"/>
<text text-anchor="middle" x="3333.5" y="-147" font-family="Helvetica,sans-Serif" font-size="10.00">functional</text>
</a>
</g>
</g>
<!-- Node4&#45;&gt;Node5 -->
<g id="edge4" class="edge">
<title>Node4&#45;&gt;Node5</title>
<path fill="none" stroke="midnightblue" d="M1782.59,-519.43C1798.1,-517.29 1814.91,-515.27 1830.5,-514 1909.49,-507.57 3192.65,-524.94 3256.5,-478 3283.17,-458.39 3280.5,-440.6 3280.5,-407.5 3280.5,-407.5 3280.5,-407.5 3280.5,-277 3280.5,-235.14 3305.49,-191.13 3321.15,-167.65"/>
<polygon fill="midnightblue" stroke="midnightblue" points="3324.2,-169.39 3327,-159.17 3318.44,-165.41 3324.2,-169.39"/>
</g>
<!-- Node6 -->
<g id="node6" class="node">
<title>Node6</title>
<g id="a_node6"><a xlink:title=" ">
<polygon fill="none" stroke="#bfbfbf" points="1847.5,-6 1847.5,-25 1903.5,-25 1903.5,-6 1847.5,-6"/>
<text text-anchor="middle" x="1875.5" y="-13" font-family="Helvetica,sans-Serif" font-size="10.00">optional</text>
</a>
</g>
</g>
<!-- Node4&#45;&gt;Node6 -->
<g id="edge5" class="edge">
<title>Node4&#45;&gt;Node6</title>
<path fill="none" stroke="midnightblue" d="M1668.23,-515.39C1664.95,-514.86 1661.69,-514.39 1658.5,-514 1531.83,-498.44 631.1,-519.74 510.5,-478 436.42,-452.36 389.14,-393.97 424.5,-324 443.42,-286.55 464.78,-290.01 500.5,-268 530.62,-249.44 542.8,-252.69 571.5,-232 621.72,-195.79 613.85,-158.98 670.5,-134 816.27,-69.73 1238.59,-157.18 1386.5,-98 1406.1,-90.16 1403.14,-75.44 1422.5,-67 1496.79,-34.62 1742.19,-21.73 1837.33,-17.87"/>
<polygon fill="midnightblue" stroke="midnightblue" points="1837.53,-21.36 1847.38,-17.47 1837.25,-14.37 1837.53,-21.36"/>
</g>
<!-- Node7 -->
<g id="node7" class="node">
<title>Node7</title>
<g id="a_node7"><a xlink:title=" ">
<polygon fill="none" stroke="#bfbfbf" points="349,-140 349,-159 486,-159 486,-140 349,-140"/>
<text text-anchor="middle" x="417.5" y="-147" font-family="Helvetica,sans-Serif" font-size="10.00">seerep&#45;msgs/image.pb.h</text>
</a>
</g>
</g>
<!-- Node4&#45;&gt;Node7 -->
<g id="edge6" class="edge">
<title>Node4&#45;&gt;Node7</title>
<path fill="none" stroke="midnightblue" d="M1668.24,-515.37C1664.95,-514.85 1661.69,-514.38 1658.5,-514 1504.22,-495.49 403.17,-539.56 260.5,-478 219.96,-460.51 190.5,-451.66 190.5,-407.5 190.5,-407.5 190.5,-407.5 190.5,-277 190.5,-206.52 275.04,-174.95 340.94,-161.05"/>
<polygon fill="midnightblue" stroke="midnightblue" points="341.81,-164.44 350.93,-159.04 340.43,-157.58 341.81,-164.44"/>
</g>
<!-- Node8 -->
<g id="node8" class="node">
<title>Node8</title>
<g id="a_node8"><a xlink:title=" ">
<polygon fill="none" stroke="#bfbfbf" points="733,-140 733,-159 866,-159 866,-140 733,-140"/>
<text text-anchor="middle" x="799.5" y="-147" font-family="Helvetica,sans-Serif" font-size="10.00">seerep&#45;msgs/query.pb.h</text>
</a>
</g>
</g>
<!-- Node4&#45;&gt;Node8 -->
<g id="edge7" class="edge">
<title>Node4&#45;&gt;Node8</title>
<path fill="none" stroke="midnightblue" d="M1668.21,-515.6C1664.93,-515.02 1661.68,-514.48 1658.5,-514 1523.96,-493.65 438.5,-543.57 438.5,-407.5 438.5,-407.5 438.5,-407.5 438.5,-338.5 438.5,-301.38 681.77,-198.51 768.91,-162.86"/>
<polygon fill="midnightblue" stroke="midnightblue" points="770.33,-166.06 778.27,-159.04 767.68,-159.58 770.33,-166.06"/>
</g>
<!-- Node9 -->
<g id="node9" class="node">
<title>Node9</title>
<g id="a_node9"><a xlink:title=" ">
<polygon fill="none" stroke="#bfbfbf" points="884,-140 884,-159 1035,-159 1035,-140 884,-140"/>
<text text-anchor="middle" x="959.5" y="-147" font-family="Helvetica,sans-Serif" font-size="10.00">seerep&#45;msgs/query&#45;result.h</text>
</a>
</g>
</g>
<!-- Node4&#45;&gt;Node9 -->
<g id="edge8" class="edge">
<title>Node4&#45;&gt;Node9</title>
<path fill="none" stroke="midnightblue" d="M1668.46,-516.09C1491.26,-477.49 961.71,-361.69 955.5,-355 907.45,-303.29 936.43,-208.59 951.79,-168.84"/>
<polygon fill="midnightblue" stroke="midnightblue" points="955.11,-169.95 955.6,-159.36 948.62,-167.33 955.11,-169.95"/>
</g>
<!-- Node10 -->
<g id="node10" class="node">
<title>Node10</title>
<g id="a_node10"><a xlink:title=" ">
<polygon fill="none" stroke="#bfbfbf" points="2168.5,-140 2168.5,-159 2286.5,-159 2286.5,-140 2168.5,-140"/>
<text text-anchor="middle" x="2227.5" y="-147" font-family="Helvetica,sans-Serif" font-size="10.00">seerep&#45;msgs/query.h</text>
</a>
</g>
</g>
<!-- Node4&#45;&gt;Node10 -->
<g id="edge9" class="edge">
<title>Node4&#45;&gt;Node10</title>
<path fill="none" stroke="midnightblue" d="M1781.18,-514.46C1809.77,-506.03 1844.57,-493.85 1873.5,-478 2027.13,-393.79 2067.92,-365.39 2181.5,-232 2198.16,-212.43 2211.79,-185.93 2219.78,-168.54"/>
<polygon fill="midnightblue" stroke="midnightblue" points="2223.14,-169.58 2224,-159.02 2216.75,-166.75 2223.14,-169.58"/>
</g>
<!-- Node11 -->
<g id="node11" class="node">
<title>Node11</title>
<g id="a_node11"><a xlink:href="hdf5-pb-image_8h.html" target="_top" xlink:title=" ">
<polygon fill="none" stroke="black" points="446.5,-201.5 446.5,-231.5 562.5,-231.5 562.5,-201.5 446.5,-201.5"/>
<text text-anchor="start" x="454.5" y="-219.5" font-family="Helvetica,sans-Serif" font-size="10.00">seerep&#45;hdf5&#45;pb/hdf5</text>
<text text-anchor="middle" x="504.5" y="-208.5" font-family="Helvetica,sans-Serif" font-size="10.00">&#45;pb&#45;image.h</text>
</a>
</g>
</g>
<!-- Node4&#45;&gt;Node11 -->
<g id="edge10" class="edge">
<title>Node4&#45;&gt;Node11</title>
<path fill="none" stroke="midnightblue" d="M1668.24,-515.38C1664.95,-514.85 1661.69,-514.39 1658.5,-514 1513.94,-496.52 488.47,-518.15 348.5,-478 289.04,-460.95 228.5,-469.36 228.5,-407.5 228.5,-407.5 228.5,-407.5 228.5,-338.5 228.5,-248.06 354.34,-224.59 436.07,-218.88"/>
<polygon fill="midnightblue" stroke="midnightblue" points="436.54,-222.36 446.3,-218.24 436.11,-215.37 436.54,-222.36"/>
</g>
<!-- Node16 -->
<g id="node16" class="node">
<title>Node16</title>
<g id="a_node16"><a xlink:title=" ">
<polygon fill="none" stroke="#bfbfbf" points="3566,-6 3566,-25 3679,-25 3679,-6 3566,-6"/>
<text text-anchor="middle" x="3622.5" y="-13" font-family="Helvetica,sans-Serif" font-size="10.00">boost/uuid/uuid.hpp</text>
</a>
</g>
</g>
<!-- Node4&#45;&gt;Node16 -->
<g id="edge174" class="edge">
<title>Node4&#45;&gt;Node16</title>
<path fill="none" stroke="midnightblue" d="M1782.59,-519.39C1798.09,-517.26 1814.91,-515.24 1830.5,-514 2571,-455.09 2759.51,-513.49 3501.5,-478 3599.59,-473.31 4382.5,-505.7 4382.5,-407.5 4382.5,-407.5 4382.5,-407.5 4382.5,-148.5 4382.5,-59.87 4286.28,-89.28 4200.5,-67 4105.58,-42.35 3820.63,-25.98 3689.67,-19.56"/>
<polygon fill="midnightblue" stroke="midnightblue" points="3689.54,-16.05 3679.38,-19.06 3689.2,-23.04 3689.54,-16.05"/>
</g>
<!-- Node24 -->
<g id="node22" class="node">
<title>Node24</title>
<g id="a_node22"><a xlink:title=" ">
<polygon fill="none" stroke="#bfbfbf" points="2245,-73 2245,-92 2388,-92 2388,-73 2245,-73"/>
<text text-anchor="middle" x="2316.5" y="-80" font-family="Helvetica,sans-Serif" font-size="10.00">boost/functional/hash.hpp</text>
</a>
</g>
</g>
<!-- Node4&#45;&gt;Node24 -->
<g id="edge172" class="edge">
<title>Node4&#45;&gt;Node24</title>
<path fill="none" stroke="midnightblue" d="M1711.29,-514.27C1691.62,-492.98 1658.5,-450.72 1658.5,-407.5 1658.5,-407.5 1658.5,-407.5 1658.5,-338.5 1658.5,-325.13 1774.13,-141.05 1785.5,-134 1858.49,-88.75 2104.45,-82.56 2234.43,-82.58"/>
<polygon fill="midnightblue" stroke="midnightblue" points="2234.72,-86.08 2244.73,-82.6 2234.73,-79.08 2234.72,-86.08"/>
</g>
<!-- Node25 -->
<g id="node23" class="node">
<title>Node25</title>
<g id="a_node23"><a xlink:title=" ">
<polygon fill="none" stroke="#bfbfbf" points="3263,-73 3263,-92 3388,-92 3388,-73 3263,-73"/>
<text text-anchor="middle" x="3325.5" y="-80" font-family="Helvetica,sans-Serif" font-size="10.00">boost/lexical_cast.hpp</text>
</a>
</g>
</g>
<!-- Node4&#45;&gt;Node25 -->
<g id="edge173" class="edge">
<title>Node4&#45;&gt;Node25</title>
<path fill="none" stroke="midnightblue" d="M1782.59,-519.43C1798.1,-517.29 1814.91,-515.27 1830.5,-514 1990.91,-500.97 3129.04,-537.68 3278.5,-478 3321.9,-460.67 3356.5,-454.23 3356.5,-407.5 3356.5,-407.5 3356.5,-407.5 3356.5,-277 3356.5,-212.89 3399.89,-193.29 3375.5,-134 3369.59,-119.63 3357.4,-107.18 3346.54,-98.24"/>
<polygon fill="midnightblue" stroke="midnightblue" points="3348.66,-95.46 3338.61,-92.11 3344.38,-101 3348.66,-95.46"/>
</g>
<!-- Node26 -->
<g id="node24" class="node">
<title>Node26</title>
<g id="a_node24"><a xlink:title=" ">
<polygon fill="none" stroke="#bfbfbf" points="3783.5,-73 3783.5,-92 3953.5,-92 3953.5,-73 3783.5,-73"/>
<text text-anchor="middle" x="3868.5" y="-80" font-family="Helvetica,sans-Serif" font-size="10.00">boost/uuid/uuid_generators.hpp</text>
</a>
</g>
</g>
<!-- Node4&#45;&gt;Node26 -->
<g id="edge175" class="edge">
<title>Node4&#45;&gt;Node26</title>
<path fill="none" stroke="midnightblue" d="M1782.59,-519.42C1798.1,-517.28 1814.91,-515.26 1830.5,-514 2488.99,-460.73 2656.56,-508.4 3316.5,-478 3683.18,-461.11 3774.32,-447.46 4140.5,-422 4231.18,-415.7 4344.5,-498.4 4344.5,-407.5 4344.5,-407.5 4344.5,-407.5 4344.5,-277 4344.5,-174.48 4257.15,-175.72 4163.5,-134 4100.46,-105.92 4023.43,-93.38 3963.89,-87.82"/>
<polygon fill="midnightblue" stroke="midnightblue" points="3964.01,-84.32 3953.74,-86.92 3963.39,-91.29 3964.01,-84.32"/>
</g>
<!-- Node27 -->
<g id="node25" class="node">
<title>Node27</title>
<g id="a_node25"><a xlink:title=" ">
<polygon fill="none" stroke="#bfbfbf" points="2761,-73 2761,-92 2888,-92 2888,-73 2761,-73"/>
<text text-anchor="middle" x="2824.5" y="-80" font-family="Helvetica,sans-Serif" font-size="10.00">boost/uuid/uuid_io.hpp</text>
</a>
</g>
</g>
<!-- Node4&#45;&gt;Node27 -->
<g id="edge176" class="edge">
<title>Node4&#45;&gt;Node27</title>
<path fill="none" stroke="midnightblue" d="M1782.62,-520.61C1930.52,-499.98 2318.19,-444.46 2372.5,-422 2568.11,-341.09 2755.29,-155.87 2809.11,-99.85"/>
<polygon fill="midnightblue" stroke="midnightblue" points="2811.97,-101.93 2816.33,-92.27 2806.9,-97.1 2811.97,-101.93"/>
</g>
<!-- Node4&#45;&gt;Node33 -->
<g id="edge48" class="edge">
<title>Node4&#45;&gt;Node33</title>
<path fill="none" stroke="midnightblue" d="M1745.64,-514.4C1758.89,-505.13 1776.18,-493.03 1789.58,-483.65"/>
<polygon fill="midnightblue" stroke="midnightblue" points="1791.95,-486.26 1798.13,-477.66 1787.93,-480.53 1791.95,-486.26"/>
</g>
<!-- Node53 -->
<g id="node47" class="node">
<title>Node53</title>
<g id="a_node47"><a xlink:href="core-pb-conversion_8h.html" target="_top" xlink:title=" ">
<polygon fill="none" stroke="black" points="1592.5,-201.5 1592.5,-231.5 1706.5,-231.5 1706.5,-201.5 1592.5,-201.5"/>
<text text-anchor="start" x="1600.5" y="-219.5" font-family="Helvetica,sans-Serif" font-size="10.00">seerep&#45;core&#45;pb/core</text>
<text text-anchor="middle" x="1649.5" y="-208.5" font-family="Helvetica,sans-Serif" font-size="10.00">&#45;pb&#45;conversion.h</text>
</a>
</g>
</g>
<!-- Node4&#45;&gt;Node53 -->
<g id="edge155" class="edge">
<title>Node4&#45;&gt;Node53</title>
<path fill="none" stroke="midnightblue" d="M1686.84,-514.37C1670.73,-506.34 1653.67,-494.52 1644.5,-478 1601.65,-400.78 1627.06,-289.83 1641.55,-241.51"/>
<polygon fill="midnightblue" stroke="midnightblue" points="1644.98,-242.25 1644.61,-231.66 1638.3,-240.17 1644.98,-242.25"/>
</g>
<!-- Node11&#45;&gt;Node6 -->
<g id="edge47" class="edge">
<title>Node11&#45;&gt;Node6</title>
<path fill="none" stroke="midnightblue" d="M524.91,-201.42C539.21,-191.44 558.7,-177.64 575.5,-165 593.19,-151.69 593.78,-141.81 614.5,-134 767.74,-76.28 1195.65,-151.27 1350.5,-98 1373.12,-90.22 1372.1,-75.41 1394.5,-67 1475.56,-36.56 1738.18,-22.39 1837.23,-18.03"/>
<polygon fill="midnightblue" stroke="midnightblue" points="1837.55,-21.52 1847.39,-17.59 1837.24,-14.53 1837.55,-21.52"/>
</g>
<!-- Node11&#45;&gt;Node7 -->
<g id="edge45" class="edge">
<title>Node11&#45;&gt;Node7</title>
<path fill="none" stroke="midnightblue" d="M485.62,-201.4C471.39,-190.76 451.9,-176.2 437.42,-165.38"/>
<polygon fill="midnightblue" stroke="midnightblue" points="439.24,-162.38 429.14,-159.19 435.05,-167.98 439.24,-162.38"/>
</g>
<!-- Node12 -->
<g id="node12" class="node">
<title>Node12</title>
<g id="a_node12"><a xlink:title=" ">
<polygon fill="none" stroke="#bfbfbf" points="1207.5,-6 1207.5,-25 1317.5,-25 1317.5,-6 1207.5,-6"/>
<text text-anchor="middle" x="1262.5" y="-13" font-family="Helvetica,sans-Serif" font-size="10.00">highfive/H5File.hpp</text>
</a>
</g>
</g>
<!-- Node11&#45;&gt;Node12 -->
<g id="edge11" class="edge">
<title>Node11&#45;&gt;Node12</title>
<path fill="none" stroke="midnightblue" d="M506.01,-201.27C508.83,-182.5 516.74,-149.96 538.5,-134 610.11,-81.47 848.94,-112.81 936.5,-98 936.5,-98 1129.38,-49.78 1218.41,-27.52"/>
<polygon fill="midnightblue" stroke="midnightblue" points="1219.38,-30.89 1228.23,-25.07 1217.68,-24.1 1219.38,-30.89"/>
</g>
<!-- Node13 -->
<g id="node13" class="node">
<title>Node13</title>
<g id="a_node13"><a xlink:href="hdf5-core-image_8h.html" target="_top" xlink:title=" ">
<polygon fill="none" stroke="black" points="1839,-134.5 1839,-164.5 1964,-164.5 1964,-134.5 1839,-134.5"/>
<text text-anchor="start" x="1847" y="-152.5" font-family="Helvetica,sans-Serif" font-size="10.00">seerep&#45;hdf5&#45;core/hdf5</text>
<text text-anchor="middle" x="1901.5" y="-141.5" font-family="Helvetica,sans-Serif" font-size="10.00">&#45;core&#45;image.h</text>
</a>
</g>
</g>
<!-- Node11&#45;&gt;Node13 -->
<g id="edge12" class="edge">
<title>Node11&#45;&gt;Node13</title>
<path fill="none" stroke="midnightblue" d="M562.75,-212.79C785.34,-202.43 1582.05,-165.36 1828.39,-153.9"/>
<polygon fill="midnightblue" stroke="midnightblue" points="1828.84,-157.38 1838.66,-153.42 1828.51,-150.39 1828.84,-157.38"/>
</g>
<!-- Node19 -->
<g id="node19" class="node">
<title>Node19</title>
<g id="a_node19"><a xlink:title=" ">
<polygon fill="none" stroke="#bfbfbf" points="1336,-6 1336,-25 1449,-25 1449,-6 1336,-6"/>
<text text-anchor="middle" x="1392.5" y="-13" font-family="Helvetica,sans-Serif" font-size="10.00">boost/geometry.hpp</text>
</a>
</g>
</g>
<!-- Node11&#45;&gt;Node19 -->
<g id="edge46" class="edge">
<title>Node11&#45;&gt;Node19</title>
<path fill="none" stroke="midnightblue" d="M514.96,-201.29C530.9,-180.06 561.06,-141.74 576.5,-134 663.2,-90.51 915.54,-112.12 1011.5,-98 1135.56,-79.75 1279.74,-45.19 1349.84,-27.52"/>
<polygon fill="midnightblue" stroke="midnightblue" points="1350.8,-30.88 1359.64,-25.04 1349.08,-24.1 1350.8,-30.88"/>
</g>
<!-- Node28 -->
<g id="node26" class="node">
<title>Node28</title>
<g id="a_node26"><a xlink:href="hdf5-pb-general_8h.html" target="_top" xlink:title=" ">
<polygon fill="none" stroke="black" points="138.5,-134.5 138.5,-164.5 254.5,-164.5 254.5,-134.5 138.5,-134.5"/>
<text text-anchor="start" x="146.5" y="-152.5" font-family="Helvetica,sans-Serif" font-size="10.00">seerep&#45;hdf5&#45;pb/hdf5</text>
<text text-anchor="middle" x="196.5" y="-141.5" font-family="Helvetica,sans-Serif" font-size="10.00">&#45;pb&#45;general.h</text>
</a>
</g>
</g>
<!-- Node11&#45;&gt;Node28 -->
<g id="edge34" class="edge">
<title>Node11&#45;&gt;Node28</title>
<path fill="none" stroke="midnightblue" d="M446.21,-203.2C394.49,-192.28 318.91,-176.33 264.47,-164.84"/>
<polygon fill="midnightblue" stroke="midnightblue" points="265.06,-161.39 254.56,-162.75 263.62,-168.24 265.06,-161.39"/>
</g>
<!-- Node13&#45;&gt;Node6 -->
<g id="edge28" class="edge">
<title>Node13&#45;&gt;Node6</title>
<path fill="none" stroke="midnightblue" d="M1898.72,-134.37C1893.99,-110.4 1884.41,-61.75 1879.15,-35.06"/>
<polygon fill="midnightblue" stroke="midnightblue" points="1882.56,-34.23 1877.19,-25.1 1875.69,-35.59 1882.56,-34.23"/>
</g>
<!-- Node13&#45;&gt;Node12 -->
<g id="edge13" class="edge">
<title>Node13&#45;&gt;Node12</title>
<path fill="none" stroke="midnightblue" d="M1871.01,-134.38C1821.72,-111.59 1729.25,-69.05 1721.5,-67 1551.05,-22.02 1500.62,-58.54 1326.5,-31 1319.85,-29.95 1312.85,-28.61 1306.03,-27.17"/>
<polygon fill="midnightblue" stroke="midnightblue" points="1306.74,-23.74 1296.22,-25.01 1305.23,-30.58 1306.74,-23.74"/>
</g>
<!-- Node14 -->
<g id="node14" class="node">
<title>Node14</title>
<g id="a_node14"><a xlink:href="hdf5-core-datatype-interface_8h.html" target="_top" xlink:title=" ">
<polygon fill="none" stroke="black" points="2521,-67.5 2521,-97.5 2666,-97.5 2666,-67.5 2521,-67.5"/>
<text text-anchor="start" x="2529" y="-85.5" font-family="Helvetica,sans-Serif" font-size="10.00">seerep&#45;hdf5&#45;core/hdf5</text>
<text text-anchor="middle" x="2593.5" y="-74.5" font-family="Helvetica,sans-Serif" font-size="10.00">&#45;core&#45;datatype&#45;interface.h</text>
</a>
</g>
</g>
<!-- Node13&#45;&gt;Node14 -->
<g id="edge14" class="edge">
<title>Node13&#45;&gt;Node14</title>
<path fill="none" stroke="midnightblue" d="M1964.25,-135.41C1967.37,-134.9 1970.47,-134.43 1973.5,-134 2025.33,-126.7 2354.23,-101.49 2510.82,-89.69"/>
<polygon fill="midnightblue" stroke="midnightblue" points="2511.18,-93.17 2520.89,-88.93 2510.65,-86.19 2511.18,-93.17"/>
</g>
<!-- Node15 -->
<g id="node15" class="node">
<title>Node15</title>
<g id="a_node15"><a xlink:title=" ">
<polygon fill="none" stroke="#bfbfbf" points="1053,-0.5 1053,-30.5 1172,-30.5 1172,-0.5 1053,-0.5"/>
<text text-anchor="start" x="1061" y="-18.5" font-family="Helvetica,sans-Serif" font-size="10.00">seerep&#45;msgs/dataset</text>
<text text-anchor="middle" x="1112.5" y="-7.5" font-family="Helvetica,sans-Serif" font-size="10.00">&#45;indexable.h</text>
</a>
</g>
</g>
<!-- Node13&#45;&gt;Node15 -->
<g id="edge26" class="edge">
<title>Node13&#45;&gt;Node15</title>
<path fill="none" stroke="midnightblue" d="M1838.71,-146.17C1678.85,-139.94 1264.99,-121.69 1207.5,-98 1176.38,-85.18 1148.15,-58.04 1130.69,-38.6"/>
<polygon fill="midnightblue" stroke="midnightblue" points="1133.11,-36.04 1123.9,-30.81 1127.83,-40.64 1133.11,-36.04"/>
</g>
<!-- Node13&#45;&gt;Node16 -->
<g id="edge31" class="edge">
<title>Node13&#45;&gt;Node16</title>
<path fill="none" stroke="midnightblue" d="M1946.45,-134.48C2010.23,-115.3 2130.96,-81.61 2236.5,-67 2269.52,-62.43 3283.24,-27.95 3555.66,-18.75"/>
<polygon fill="midnightblue" stroke="midnightblue" points="3555.93,-22.25 3565.8,-18.41 3555.69,-15.25 3555.93,-22.25"/>
</g>
<!-- Node17 -->
<g id="node17" class="node">
<title>Node17</title>
<g id="a_node17"><a xlink:href="hdf5-core-general_8h.html" target="_top" xlink:title=" ">
<polygon fill="none" stroke="red" points="1217,-67.5 1217,-97.5 1342,-97.5 1342,-67.5 1217,-67.5"/>
<text text-anchor="start" x="1225" y="-85.5" font-family="Helvetica,sans-Serif" font-size="10.00">seerep&#45;hdf5&#45;core/hdf5</text>
<text text-anchor="middle" x="1279.5" y="-74.5" font-family="Helvetica,sans-Serif" font-size="10.00">&#45;core&#45;general.h</text>
</a>
</g>
</g>
<!-- Node13&#45;&gt;Node17 -->
<g id="edge18" class="edge">
<title>Node13&#45;&gt;Node17</title>
<path fill="none" stroke="midnightblue" d="M1838.72,-141.94C1722.77,-129.82 1475.61,-103.99 1352.43,-91.12"/>
<polygon fill="midnightblue" stroke="midnightblue" points="1352.65,-87.63 1342.34,-90.07 1351.92,-94.59 1352.65,-87.63"/>
</g>
<!-- Node13&#45;&gt;Node19 -->
<g id="edge27" class="edge">
<title>Node13&#45;&gt;Node19</title>
<path fill="none" stroke="midnightblue" d="M1887.85,-134.48C1868.54,-115.63 1831.28,-82.66 1792.5,-67 1733.58,-43.2 1557.01,-27.76 1459.33,-20.79"/>
<polygon fill="midnightblue" stroke="midnightblue" points="1459.48,-17.29 1449.26,-20.08 1458.99,-24.27 1459.48,-17.29"/>
</g>
<!-- Node13&#45;&gt;Node24 -->
<g id="edge29" class="edge">
<title>Node13&#45;&gt;Node24</title>
<path fill="none" stroke="midnightblue" d="M1964.29,-135.65C1967.4,-135.08 1970.49,-134.53 1973.5,-134 2065.48,-117.98 2171.93,-102.83 2241.54,-93.38"/>
<polygon fill="midnightblue" stroke="midnightblue" points="2242.1,-96.84 2251.54,-92.03 2241.16,-89.9 2242.1,-96.84"/>
</g>
<!-- Node13&#45;&gt;Node25 -->
<g id="edge30" class="edge">
<title>Node13&#45;&gt;Node25</title>
<path fill="none" stroke="midnightblue" d="M1964.23,-135.25C1967.36,-134.78 1970.46,-134.36 1973.5,-134 2005.49,-130.21 2975.94,-95.81 3252.57,-86.07"/>
<polygon fill="midnightblue" stroke="midnightblue" points="3253.02,-89.55 3262.89,-85.7 3252.77,-82.56 3253.02,-89.55"/>
</g>
<!-- Node13&#45;&gt;Node26 -->
<g id="edge32" class="edge">
<title>Node13&#45;&gt;Node26</title>
<path fill="none" stroke="midnightblue" d="M1964.23,-135.2C1967.36,-134.75 1970.46,-134.34 1973.5,-134 2288.06,-98.62 3081.08,-106.87 3397.5,-98 3527.69,-94.35 3678.1,-89.63 3773.24,-86.59"/>
<polygon fill="midnightblue" stroke="midnightblue" points="3773.53,-90.08 3783.42,-86.26 3773.31,-83.08 3773.53,-90.08"/>
</g>
<!-- Node13&#45;&gt;Node27 -->
<g id="edge33" class="edge">
<title>Node13&#45;&gt;Node27</title>
<path fill="none" stroke="midnightblue" d="M1964.24,-135.3C1967.36,-134.82 1970.46,-134.38 1973.5,-134 2283.47,-95.06 2363.95,-121.14 2675.5,-98 2699.99,-96.18 2726.71,-93.73 2750.66,-91.36"/>
<polygon fill="midnightblue" stroke="midnightblue" points="2751.15,-94.83 2760.75,-90.35 2750.45,-87.86 2751.15,-94.83"/>
</g>
<!-- Node14&#45;&gt;Node6 -->
<g id="edge17" class="edge">
<title>Node14&#45;&gt;Node6</title>
<path fill="none" stroke="midnightblue" d="M2520.94,-68.93C2516.06,-68.23 2511.21,-67.58 2506.5,-67 2282.6,-39.43 2012.07,-23.61 1913.64,-18.42"/>
<polygon fill="midnightblue" stroke="midnightblue" points="1913.74,-14.92 1903.57,-17.89 1913.38,-21.91 1913.74,-14.92"/>
</g>
<!-- Node14&#45;&gt;Node15 -->
<g id="edge15" class="edge">
<title>Node14&#45;&gt;Node15</title>
<path fill="none" stroke="midnightblue" d="M2520.95,-74.11C2492.74,-71.49 2460.14,-68.75 2430.5,-67 1883.66,-34.72 1743.65,-84.66 1198.5,-31 1193.13,-30.47 1187.59,-29.81 1182.03,-29.06"/>
<polygon fill="midnightblue" stroke="midnightblue" points="1182.43,-25.58 1172.04,-27.63 1181.44,-32.51 1182.43,-25.58"/>
</g>
<!-- Node14&#45;&gt;Node16 -->
<g id="edge16" class="edge">
<title>Node14&#45;&gt;Node16</title>
<path fill="none" stroke="midnightblue" d="M2666.13,-72.33C2683.29,-70.37 2701.52,-68.46 2718.5,-67 3030.88,-40.18 3405.28,-24.5 3555.41,-18.88"/>
<polygon fill="midnightblue" stroke="midnightblue" points="3555.96,-22.36 3565.83,-18.49 3555.7,-15.36 3555.96,-22.36"/>
</g>
<!-- Node17&#45;&gt;Node6 -->
<g id="edge23" class="edge">
<title>Node17&#45;&gt;Node6</title>
<path fill="none" stroke="midnightblue" d="M1342.04,-69.24C1346.92,-68.43 1351.79,-67.67 1356.5,-67 1535.45,-41.5 1750.99,-25.05 1837.17,-19.05"/>
<polygon fill="midnightblue" stroke="midnightblue" points="1837.53,-22.54 1847.27,-18.36 1837.05,-15.55 1837.53,-22.54"/>
</g>
<!-- Node17&#45;&gt;Node12 -->
<g id="edge19" class="edge">
<title>Node17&#45;&gt;Node12</title>
<path fill="none" stroke="midnightblue" d="M1275.81,-67.4C1273.34,-57.96 1270.07,-45.45 1267.39,-35.19"/>
<polygon fill="midnightblue" stroke="midnightblue" points="1270.69,-33.98 1264.77,-25.19 1263.92,-35.75 1270.69,-33.98"/>
</g>
<!-- Node17&#45;&gt;Node15 -->
<g id="edge21" class="edge">
<title>Node17&#45;&gt;Node15</title>
<path fill="none" stroke="midnightblue" d="M1243.26,-67.4C1218.32,-57.69 1184.97,-44.71 1158.2,-34.29"/>
<polygon fill="midnightblue" stroke="midnightblue" points="1159.25,-30.94 1148.67,-30.58 1156.72,-37.47 1159.25,-30.94"/>
</g>
<!-- Node18 -->
<g id="node18" class="node">
<title>Node18</title>
<g id="a_node18"><a xlink:title=" ">
<polygon fill="none" stroke="#bfbfbf" points="3062.5,-6 3062.5,-25 3178.5,-25 3178.5,-6 3062.5,-6"/>
<text text-anchor="middle" x="3120.5" y="-13" font-family="Helvetica,sans-Serif" font-size="10.00">seerep&#45;msgs/aabb.h</text>
</a>
</g>
</g>
<!-- Node17&#45;&gt;Node18 -->
<g id="edge20" class="edge">
<title>Node17&#45;&gt;Node18</title>
<path fill="none" stroke="midnightblue" d="M1342.23,-76.88C1387.12,-73.71 1449,-69.61 1503.5,-67 2103.46,-38.22 2829.46,-22.28 3052.24,-17.82"/>
<polygon fill="midnightblue" stroke="midnightblue" points="3052.53,-21.31 3062.46,-17.61 3052.4,-14.31 3052.53,-21.31"/>
</g>
<!-- Node17&#45;&gt;Node19 -->
<g id="edge22" class="edge">
<title>Node17&#45;&gt;Node19</title>
<path fill="none" stroke="midnightblue" d="M1304.02,-67.4C1323.23,-56.34 1349.8,-41.06 1368.8,-30.13"/>
<polygon fill="midnightblue" stroke="midnightblue" points="1370.79,-33.03 1377.71,-25.01 1367.3,-26.96 1370.79,-33.03"/>
</g>
<!-- Node21 -->
<g id="node20" class="node">
<title>Node21</title>
<g id="a_node20"><a xlink:title=" ">
<polygon fill="none" stroke="#bfbfbf" points="0,-0.5 0,-30.5 145,-30.5 145,-0.5 0,-0.5"/>
<text text-anchor="start" x="8" y="-18.5" font-family="Helvetica,sans-Serif" font-size="10.00">boost/log/sources/severity</text>
<text text-anchor="middle" x="72.5" y="-7.5" font-family="Helvetica,sans-Serif" font-size="10.00">_logger.hpp</text>
</a>
</g>
</g>
<!-- Node17&#45;&gt;Node21 -->
<g id="edge24" class="edge">
<title>Node17&#45;&gt;Node21</title>
<path fill="none" stroke="midnightblue" d="M1216.73,-78.12C1015.02,-67.26 383.32,-33.24 155.48,-20.97"/>
<polygon fill="midnightblue" stroke="midnightblue" points="155.43,-17.46 145.26,-20.42 155.06,-24.45 155.43,-17.46"/>
</g>
<!-- Node22 -->
<g id="node21" class="node">
<title>Node22</title>
<g id="a_node21"><a xlink:title=" ">
<polygon fill="none" stroke="#bfbfbf" points="675.5,-6 675.5,-25 789.5,-25 789.5,-6 675.5,-6"/>
<text text-anchor="middle" x="732.5" y="-13" font-family="Helvetica,sans-Serif" font-size="10.00">boost/log/trivial.hpp</text>
</a>
</g>
</g>
<!-- Node17&#45;&gt;Node22 -->
<g id="edge25" class="edge">
<title>Node17&#45;&gt;Node22</title>
<path fill="none" stroke="midnightblue" d="M1216.75,-74.04C1112.9,-61.7 906.2,-37.14 799.57,-24.47"/>
<polygon fill="midnightblue" stroke="midnightblue" points="799.91,-20.99 789.57,-23.28 799.09,-27.94 799.91,-20.99"/>
</g>
<!-- Node28&#45;&gt;Node6 -->
<g id="edge41" class="edge">
<title>Node28&#45;&gt;Node6</title>
<path fill="none" stroke="midnightblue" d="M254.56,-142.22C280.53,-139.52 311.53,-136.42 339.5,-134 561.47,-114.76 617.38,-115.35 839.5,-98 1003.14,-85.22 1043.89,-80.08 1207.5,-67 1447.12,-47.85 1735.25,-26.7 1837.36,-19.27"/>
<polygon fill="midnightblue" stroke="midnightblue" points="1837.77,-22.75 1847.49,-18.53 1837.27,-15.77 1837.77,-22.75"/>
</g>
<!-- Node28&#45;&gt;Node12 -->
<g id="edge35" class="edge">
<title>Node28&#45;&gt;Node12</title>
<path fill="none" stroke="midnightblue" d="M254.58,-142.47C280.56,-139.81 311.56,-136.68 339.5,-134 515.86,-117.06 566.76,-148.77 736.5,-98 764.5,-89.62 766.51,-75.41 794.5,-67 959.51,-17.41 1009.74,-54.02 1180.5,-31 1189.35,-29.81 1198.7,-28.35 1207.8,-26.82"/>
<polygon fill="midnightblue" stroke="midnightblue" points="1208.66,-30.22 1217.92,-25.07 1207.47,-23.32 1208.66,-30.22"/>
</g>
<!-- Node28&#45;&gt;Node17 -->
<g id="edge36" class="edge">
<title>Node28&#45;&gt;Node17</title>
<path fill="none" stroke="midnightblue" d="M254.54,-141.98C280.51,-139.23 311.51,-136.17 339.5,-134 662.37,-108.97 1048.58,-92.43 1206.65,-86.24"/>
<polygon fill="midnightblue" stroke="midnightblue" points="1206.87,-89.73 1216.73,-85.84 1206.6,-82.74 1206.87,-89.73"/>
</g>
<!-- Node28&#45;&gt;Node19 -->
<g id="edge39" class="edge">
<title>Node28&#45;&gt;Node19</title>
<path fill="none" stroke="midnightblue" d="M254.57,-142.35C280.54,-139.67 311.54,-136.56 339.5,-134 534.89,-116.1 587.4,-137.94 779.5,-98 821.33,-89.3 828.66,-75.64 870.5,-67 1069.6,-25.9 1125.41,-60.88 1326.5,-31 1333.44,-29.97 1340.74,-28.63 1347.85,-27.18"/>
<polygon fill="midnightblue" stroke="midnightblue" points="1349.02,-30.51 1358.07,-25 1347.56,-23.66 1349.02,-30.51"/>
</g>
<!-- Node28&#45;&gt;Node21 -->
<g id="edge42" class="edge">
<title>Node28&#45;&gt;Node21</title>
<path fill="none" stroke="midnightblue" d="M196.75,-134.23C196.33,-116.59 193.13,-86.5 177.5,-67 165.97,-52.62 149.34,-42.08 132.71,-34.46"/>
<polygon fill="midnightblue" stroke="midnightblue" points="134.07,-31.24 123.5,-30.53 131.32,-37.68 134.07,-31.24"/>
</g>
<!-- Node28&#45;&gt;Node22 -->
<g id="edge43" class="edge">
<title>Node28&#45;&gt;Node22</title>
<path fill="none" stroke="midnightblue" d="M254.56,-136.2C259.26,-135.39 263.95,-134.64 268.5,-134 317.62,-127.09 675.92,-130.38 713.5,-98 731.36,-82.61 734.21,-53.99 733.91,-35.1"/>
<polygon fill="midnightblue" stroke="midnightblue" points="737.4,-34.85 733.43,-25.03 730.41,-35.18 737.4,-34.85"/>
</g>
<!-- Node29 -->
<g id="node27" class="node">
<title>Node29</title>
<g id="a_node27"><a xlink:title=" ">
<polygon fill="none" stroke="#bfbfbf" points="224.5,-67.5 224.5,-97.5 382.5,-97.5 382.5,-67.5 224.5,-67.5"/>
<text text-anchor="start" x="232.5" y="-85.5" font-family="Helvetica,sans-Serif" font-size="10.00">seerep&#45;msgs/boundingbox2d</text>
<text text-anchor="middle" x="303.5" y="-74.5" font-family="Helvetica,sans-Serif" font-size="10.00">_labeled.pb.h</text>
</a>
</g>
</g>
<!-- Node28&#45;&gt;Node29 -->
<g id="edge37" class="edge">
<title>Node28&#45;&gt;Node29</title>
<path fill="none" stroke="midnightblue" d="M219.72,-134.4C234.86,-125.2 254.83,-113.07 271.47,-102.95"/>
<polygon fill="midnightblue" stroke="midnightblue" points="273.6,-105.76 280.33,-97.58 269.96,-99.78 273.6,-105.76"/>
</g>
<!-- Node30 -->
<g id="node28" class="node">
<title>Node30</title>
<g id="a_node28"><a xlink:title=" ">
<polygon fill="none" stroke="#bfbfbf" points="400.5,-67.5 400.5,-97.5 546.5,-97.5 546.5,-67.5 400.5,-67.5"/>
<text text-anchor="start" x="408.5" y="-85.5" font-family="Helvetica,sans-Serif" font-size="10.00">seerep&#45;msgs/boundingbox</text>
<text text-anchor="middle" x="473.5" y="-74.5" font-family="Helvetica,sans-Serif" font-size="10.00">_labeled.pb.h</text>
</a>
</g>
</g>
<!-- Node28&#45;&gt;Node30 -->
<g id="edge38" class="edge">
<title>Node28&#45;&gt;Node30</title>
<path fill="none" stroke="midnightblue" d="M254.57,-134.87C298.02,-124.68 357.64,-110.69 403.69,-99.88"/>
<polygon fill="midnightblue" stroke="midnightblue" points="404.66,-103.25 413.6,-97.56 403.06,-96.43 404.66,-103.25"/>
</g>
<!-- Node31 -->
<g id="node29" class="node">
<title>Node31</title>
<g id="a_node29"><a xlink:title=" ">
<polygon fill="none" stroke="#bfbfbf" points="100.5,-73 100.5,-92 168.5,-92 168.5,-73 100.5,-73"/>
<text text-anchor="middle" x="134.5" y="-80" font-family="Helvetica,sans-Serif" font-size="10.00">filesystem</text>
</a>
</g>
</g>
<!-- Node28&#45;&gt;Node31 -->
<g id="edge40" class="edge">
<title>Node28&#45;&gt;Node31</title>
<path fill="none" stroke="midnightblue" d="M183.05,-134.4C173.28,-124.16 160.06,-110.3 149.88,-99.62"/>
<polygon fill="midnightblue" stroke="midnightblue" points="152.23,-97.01 142.79,-92.19 147.16,-101.85 152.23,-97.01"/>
</g>
<!-- Node32 -->
<g id="node30" class="node">
<title>Node32</title>
<g id="a_node30"><a xlink:title=" ">
<polygon fill="none" stroke="#bfbfbf" points="564.5,-73 564.5,-92 704.5,-92 704.5,-73 564.5,-73"/>
<text text-anchor="middle" x="634.5" y="-80" font-family="Helvetica,sans-Serif" font-size="10.00">impl/hdf5&#45;pb&#45;general.hpp</text>
</a>
</g>
</g>
<!-- Node28&#45;&gt;Node32 -->
<g id="edge44" class="edge">
<title>Node28&#45;&gt;Node32</title>
<path fill="none" stroke="midnightblue" d="M254.59,-136.42C259.29,-135.56 263.97,-134.74 268.5,-134 395.38,-113.3 428.45,-117.61 555.5,-98 563.53,-96.76 572.01,-95.33 580.3,-93.87"/>
<polygon fill="midnightblue" stroke="midnightblue" points="581.06,-97.29 590.29,-92.07 579.82,-90.4 581.06,-97.29"/>
</g>
<!-- Node33&#45;&gt;Node5 -->
<g id="edge55" class="edge">
<title>Node33&#45;&gt;Node5</title>
<path fill="none" stroke="midnightblue" d="M1864.33,-466.65C2106.67,-464.89 3087.09,-455.71 3142.5,-422 3238.72,-363.46 3192.4,-285.81 3266.5,-201 3279.08,-186.6 3296.37,-173.69 3310.24,-164.53"/>
<polygon fill="midnightblue" stroke="midnightblue" points="3312.23,-167.41 3318.77,-159.07 3308.46,-161.51 3312.23,-167.41"/>
</g>
<!-- Node33&#45;&gt;Node6 -->
<g id="edge56" class="edge">
<title>Node33&#45;&gt;Node6</title>
<path fill="none" stroke="midnightblue" d="M1756.98,-465.33C1596.64,-460.1 1127.14,-443.16 1061.5,-422 864.83,-358.6 554.05,-283.69 696.5,-134 752.18,-75.49 1344.31,-118.25 1422.5,-98 1452.71,-90.18 1455.62,-76.01 1485.5,-67 1610.47,-29.3 1766.3,-19.74 1837.19,-17.32"/>
<polygon fill="midnightblue" stroke="midnightblue" points="1837.54,-20.81 1847.42,-17 1837.32,-13.82 1837.54,-20.81"/>
</g>
<!-- Node33&#45;&gt;Node9 -->
<g id="edge59" class="edge">
<title>Node33&#45;&gt;Node9</title>
<path fill="none" stroke="midnightblue" d="M1756.94,-464.71C1570.26,-456.04 959.5,-421.48 959.5,-340.5 959.5,-340.5 959.5,-340.5 959.5,-277 959.5,-238.7 959.5,-193.88 959.5,-169.2"/>
<polygon fill="midnightblue" stroke="midnightblue" points="963,-169.09 959.5,-159.09 956,-169.09 963,-169.09"/>
</g>
<!-- Node33&#45;&gt;Node10 -->
<g id="edge61" class="edge">
<title>Node33&#45;&gt;Node10</title>
<path fill="none" stroke="midnightblue" d="M1823.75,-458.42C1879.01,-422.57 2091.07,-284.13 2151.5,-232 2175.2,-211.55 2199.3,-184.4 2213.83,-167.18"/>
<polygon fill="midnightblue" stroke="midnightblue" points="2216.79,-169.09 2220.5,-159.17 2211.41,-164.61 2216.79,-169.09"/>
</g>
<!-- Node33&#45;&gt;Node15 -->
<g id="edge57" class="edge">
<title>Node33&#45;&gt;Node15</title>
<path fill="none" stroke="midnightblue" d="M1756.97,-466.15C1593.84,-463.25 1104.54,-452.22 948.5,-422 802.28,-393.69 385.45,-303.03 329.5,-165 286.56,-59.07 448.75,-146.39 736.5,-98 792.52,-88.58 805.08,-79.47 860.5,-67 921.92,-53.18 992.18,-39.25 1042.89,-29.53"/>
<polygon fill="midnightblue" stroke="midnightblue" points="1043.59,-32.96 1052.76,-27.65 1042.28,-26.09 1043.59,-32.96"/>
</g>
<!-- Node33&#45;&gt;Node16 -->
<g id="edge51" class="edge">
<title>Node33&#45;&gt;Node16</title>
<path fill="none" stroke="midnightblue" d="M1864.1,-466.55C2175.48,-463.83 3745.31,-448.9 3958.5,-422 4116.1,-402.12 4306.5,-499.35 4306.5,-340.5 4306.5,-340.5 4306.5,-340.5 4306.5,-277 4306.5,-161.78 4263.61,-104.01 4154.5,-67 4070,-38.34 3812.16,-24.24 3689.15,-19"/>
<polygon fill="midnightblue" stroke="midnightblue" points="3689.24,-15.5 3679.1,-18.58 3688.95,-22.49 3689.24,-15.5"/>
</g>
<!-- Node33&#45;&gt;Node21 -->
<g id="edge153" class="edge">
<title>Node33&#45;&gt;Node21</title>
<path fill="none" stroke="midnightblue" d="M1756.8,-466.51C1519.05,-464.17 567.27,-452.95 437.5,-422 244.16,-375.89 162.77,-341.57 71.5,-165 50.95,-125.25 58.72,-71.15 65.86,-40.43"/>
<polygon fill="midnightblue" stroke="midnightblue" points="69.29,-41.14 68.31,-30.59 62.5,-39.45 69.29,-41.14"/>
</g>
<!-- Node33&#45;&gt;Node22 -->
<g id="edge154" class="edge">
<title>Node33&#45;&gt;Node22</title>
<path fill="none" stroke="midnightblue" d="M1756.88,-466.67C1529.05,-465.06 647.51,-456.64 528.5,-422 438.29,-395.75 192.33,-298.22 92.5,-165 65.99,-129.62 45.46,-99.43 75.5,-67 114.98,-24.37 505.59,-17.6 665.14,-16.62"/>
<polygon fill="midnightblue" stroke="midnightblue" points="665.33,-20.12 675.31,-16.56 665.29,-13.12 665.33,-20.12"/>
</g>
<!-- Node33&#45;&gt;Node24 -->
<g id="edge49" class="edge">
<title>Node33&#45;&gt;Node24</title>
<path fill="none" stroke="midnightblue" d="M1805.99,-458.37C1795.93,-438.29 1772.5,-386.59 1772.5,-340.5 1772.5,-340.5 1772.5,-340.5 1772.5,-215.5 1772.5,-171.04 1792.09,-156.4 1830.5,-134 1897.08,-95.18 2113.99,-86.02 2234.28,-83.98"/>
<polygon fill="midnightblue" stroke="midnightblue" points="2234.6,-87.48 2244.55,-83.82 2234.49,-80.48 2234.6,-87.48"/>
</g>
<!-- Node33&#45;&gt;Node25 -->
<g id="edge50" class="edge">
<title>Node33&#45;&gt;Node25</title>
<path fill="none" stroke="midnightblue" d="M1864.33,-466.6C2084.16,-464.76 2914.41,-455.66 3174.5,-422 3439.89,-387.65 3507.85,-373.27 3761.5,-288 3868.42,-252.06 3930.86,-264.76 3983.5,-165 3989.93,-152.81 3992.86,-144.11 3983.5,-134 3963.84,-112.77 3565.44,-93.6 3398.31,-86.46"/>
<polygon fill="midnightblue" stroke="midnightblue" points="3398.26,-82.95 3388.12,-86.03 3397.96,-89.95 3398.26,-82.95"/>
</g>
<!-- Node33&#45;&gt;Node26 -->
<g id="edge52" class="edge">
<title>Node33&#45;&gt;Node26</title>
<path fill="none" stroke="midnightblue" d="M1864.15,-467.09C2220.43,-467.32 4230.5,-463.2 4230.5,-340.5 4230.5,-340.5 4230.5,-340.5 4230.5,-215.5 4230.5,-153.27 4039.29,-111.77 3934.8,-93.74"/>
<polygon fill="midnightblue" stroke="midnightblue" points="3935.11,-90.24 3924.67,-92.02 3933.94,-97.14 3935.11,-90.24"/>
</g>
<!-- Node33&#45;&gt;Node27 -->
<g id="edge53" class="edge">
<title>Node33&#45;&gt;Node27</title>
<path fill="none" stroke="midnightblue" d="M1864.14,-466.26C2089.8,-462.61 2954.02,-442.94 3033.5,-355 3064.85,-320.31 2992.96,-310.95 2876.5,-165 2860.05,-144.38 2844.2,-118.36 2834.41,-101.35"/>
<polygon fill="midnightblue" stroke="midnightblue" points="2837.36,-99.45 2829.39,-92.48 2831.27,-102.9 2837.36,-99.45"/>
</g>
<!-- Node33&#45;&gt;Node31 -->
<g id="edge54" class="edge">
<title>Node33&#45;&gt;Node31</title>
<path fill="none" stroke="midnightblue" d="M1756.99,-466.72C1534.63,-465.33 689.99,-457.72 576.5,-422 552.28,-414.38 550.33,-403.98 528.5,-391 499.78,-373.92 490.9,-372.61 462.5,-355 361.06,-292.1 349.47,-253.94 242.5,-201 195.26,-177.62 160.6,-207.55 129.5,-165 116.14,-146.72 121.4,-119.52 127.24,-101.65"/>
<polygon fill="midnightblue" stroke="midnightblue" points="130.58,-102.71 130.71,-92.11 124,-100.32 130.58,-102.71"/>
</g>
<!-- Node34 -->
<g id="node32" class="node">
<title>Node34</title>
<g id="a_node32"><a xlink:title=" ">
<polygon fill="none" stroke="#bfbfbf" points="2247.5,-391.5 2247.5,-421.5 2363.5,-421.5 2363.5,-391.5 2247.5,-391.5"/>
<text text-anchor="start" x="2255.5" y="-409.5" font-family="Helvetica,sans-Serif" font-size="10.00">seerep&#45;msgs/project</text>
<text text-anchor="middle" x="2305.5" y="-398.5" font-family="Helvetica,sans-Serif" font-size="10.00">&#45;info.h</text>
</a>
</g>
</g>
<!-- Node33&#45;&gt;Node34 -->
<g id="edge58" class="edge">
<title>Node33&#45;&gt;Node34</title>
<path fill="none" stroke="midnightblue" d="M1864.13,-463.24C1943.52,-457.26 2097.18,-444.1 2237.4,-422.06"/>
<polygon fill="midnightblue" stroke="midnightblue" points="2238.14,-425.49 2247.47,-420.46 2237.04,-418.58 2238.14,-425.49"/>
</g>
<!-- Node35 -->
<g id="node33" class="node">
<title>Node35</title>
<g id="a_node33"><a xlink:title=" ">
<polygon fill="none" stroke="#bfbfbf" points="1982.5,-140 1982.5,-159 2112.5,-159 2112.5,-140 1982.5,-140"/>
<text text-anchor="middle" x="2047.5" y="-147" font-family="Helvetica,sans-Serif" font-size="10.00">seerep&#45;msgs/query&#45;tf.h</text>
</a>
</g>
</g>
<!-- Node33&#45;&gt;Node35 -->
<g id="edge60" class="edge">
<title>Node33&#45;&gt;Node35</title>
<path fill="none" stroke="midnightblue" d="M1815.01,-458.37C1825.07,-438.29 1848.5,-386.59 1848.5,-340.5 1848.5,-340.5 1848.5,-340.5 1848.5,-277 1848.5,-209.37 1931.36,-176.35 1990.15,-161.43"/>
<polygon fill="midnightblue" stroke="midnightblue" points="1991.19,-164.78 2000.09,-159.02 1989.54,-157.98 1991.19,-164.78"/>
</g>
<!-- Node36 -->
<g id="node34" class="node">
<title>Node36</title>
<g id="a_node34"><a xlink:title=" ">
<polygon fill="none" stroke="#bfbfbf" points="1512.5,-73 1512.5,-92 1712.5,-92 1712.5,-73 1512.5,-73"/>
<text text-anchor="middle" x="1612.5" y="-80" font-family="Helvetica,sans-Serif" font-size="10.00">geometry_msgs/TransformStamped.h</text>
</a>
</g>
</g>
<!-- Node33&#45;&gt;Node36 -->
<g id="edge62" class="edge">
<title>Node33&#45;&gt;Node36</title>
<path fill="none" stroke="midnightblue" d="M1756.96,-466.93C1608.13,-466.24 1191.9,-460.81 1061.5,-422 898.18,-373.4 819.5,-376.06 728.5,-232 593.34,-18.03 958.51,-134.18 1460.5,-98 1479.86,-96.6 1500.59,-94.82 1520.31,-92.98"/>
<polygon fill="midnightblue" stroke="midnightblue" points="1520.89,-96.45 1530.52,-92.02 1520.23,-89.48 1520.89,-96.45"/>
</g>
<!-- Node37 -->
<g id="node35" class="node">
<title>Node37</title>
<g id="a_node35"><a xlink:href="core-project_8h.html" target="_top" xlink:title=" ">
<polygon fill="none" stroke="black" points="2145.5,-397 2145.5,-416 2229.5,-416 2229.5,-397 2145.5,-397"/>
<text text-anchor="middle" x="2187.5" y="-404" font-family="Helvetica,sans-Serif" font-size="10.00">core&#45;project.h</text>
</a>
</g>
</g>
<!-- Node33&#45;&gt;Node37 -->
<g id="edge63" class="edge">
<title>Node33&#45;&gt;Node37</title>
<path fill="none" stroke="midnightblue" d="M1864.11,-458.54C1936.29,-447.15 2063.87,-427.01 2135.31,-415.74"/>
<polygon fill="midnightblue" stroke="midnightblue" points="2136.09,-419.16 2145.43,-414.14 2135,-412.24 2136.09,-419.16"/>
</g>
<!-- Node37&#45;&gt;Node5 -->
<g id="edge67" class="edge">
<title>Node37&#45;&gt;Node5</title>
<path fill="none" stroke="midnightblue" d="M2213.18,-396.94C2221.2,-394.61 2230.14,-392.36 2238.5,-391 2413.06,-362.63 2871.34,-425.57 3033.5,-355 3039.1,-352.56 3185.32,-204.23 3190.5,-201 3208.22,-189.95 3258.86,-173.21 3294.84,-162.07"/>
<polygon fill="midnightblue" stroke="midnightblue" points="3296.02,-165.37 3304.56,-159.09 3293.97,-158.68 3296.02,-165.37"/>
</g>
<!-- Node37&#45;&gt;Node6 -->
<g id="edge68" class="edge">
<title>Node37&#45;&gt;Node6</title>
<path fill="none" stroke="midnightblue" d="M2158.87,-396.95C2086.96,-373.7 1899.61,-301.72 1830.5,-165 1807.8,-120.09 1842.18,-61.66 1862.43,-33.35"/>
<polygon fill="midnightblue" stroke="midnightblue" points="1865.28,-35.39 1868.42,-25.27 1859.65,-31.22 1865.28,-35.39"/>
</g>
<!-- Node37&#45;&gt;Node10 -->
<g id="edge72" class="edge">
<title>Node37&#45;&gt;Node10</title>
<path fill="none" stroke="midnightblue" d="M2192.02,-396.98C2201.79,-378.04 2224.59,-330.75 2232.5,-288 2239.53,-249.98 2234.41,-239.62 2232.5,-201 2231.98,-190.37 2230.83,-178.54 2229.77,-169"/>
<polygon fill="midnightblue" stroke="midnightblue" points="2233.25,-168.58 2228.61,-159.06 2226.3,-169.4 2233.25,-168.58"/>
</g>
<!-- Node37&#45;&gt;Node13 -->
<g id="edge73" class="edge">
<title>Node37&#45;&gt;Node13</title>
<path fill="none" stroke="midnightblue" d="M2176.78,-396.67C2164.7,-386.68 2144.53,-369.86 2127.5,-355 2052,-289.11 1964.53,-208.8 1924.11,-171.46"/>
<polygon fill="midnightblue" stroke="midnightblue" points="1926.39,-168.8 1916.68,-164.58 1921.64,-173.94 1926.39,-168.8"/>
</g>
<!-- Node37&#45;&gt;Node15 -->
<g id="edge69" class="edge">
<title>Node37&#45;&gt;Node15</title>
<path fill="none" stroke="midnightblue" d="M2145.41,-402.64C1894.6,-385.45 602.41,-294.4 437.5,-232 415.46,-223.66 413.92,-214.34 394.5,-201 370.42,-184.45 353.39,-190.7 339.5,-165 332.95,-152.88 330.1,-144.07 339.5,-134 379.09,-91.58 803.98,-111.12 860.5,-98 896.03,-89.75 902.03,-78.94 936.5,-67 973,-54.36 1014.5,-42.34 1048.03,-33.2"/>
<polygon fill="midnightblue" stroke="midnightblue" points="1048.98,-36.57 1057.72,-30.58 1047.15,-29.82 1048.98,-36.57"/>
</g>
<!-- Node37&#45;&gt;Node16 -->
<g id="edge64" class="edge">
<title>Node37&#45;&gt;Node16</title>
<path fill="none" stroke="midnightblue" d="M2212.92,-396.98C2221,-394.62 2230.05,-392.34 2238.5,-391 2656.24,-324.69 2767.62,-385.38 3189.5,-355 3470.35,-334.77 3541.87,-334.97 3819.5,-288 4013.39,-255.2 4131.58,-325.99 4244.5,-165 4310.52,-70.87 3862.54,-31.85 3689.08,-20.38"/>
<polygon fill="midnightblue" stroke="midnightblue" points="3689.25,-16.88 3679.05,-19.73 3688.8,-23.87 3689.25,-16.88"/>
</g>
<!-- Node37&#45;&gt;Node21 -->
<g id="edge151" class="edge">
<title>Node37&#45;&gt;Node21</title>
<path fill="none" stroke="midnightblue" d="M2145.49,-404.77C1949.78,-401.22 1126.19,-384.77 870.5,-355 716.65,-337.09 680.06,-319.95 528.5,-288 331.49,-246.47 228.03,-313.89 92.5,-165 61.66,-131.12 63.79,-73.59 68.12,-40.97"/>
<polygon fill="midnightblue" stroke="midnightblue" points="71.6,-41.34 69.62,-30.93 64.68,-40.3 71.6,-41.34"/>
</g>
<!-- Node37&#45;&gt;Node22 -->
<g id="edge152" class="edge">
<title>Node37&#45;&gt;Node22</title>
<path fill="none" stroke="midnightblue" d="M2145.32,-405.5C1962.98,-404.81 1225,-395.21 631.5,-288 523.29,-268.45 497.01,-259.37 390.5,-232 341.3,-219.36 329.66,-213.78 280.5,-201 213.73,-183.64 184.65,-206.45 129.5,-165 92.15,-136.94 59.79,-101.31 91.5,-67 129.83,-25.53 508.05,-18.07 664.89,-16.76"/>
<polygon fill="midnightblue" stroke="midnightblue" points="665.38,-20.26 675.35,-16.68 665.32,-13.26 665.38,-20.26"/>
</g>
<!-- Node37&#45;&gt;Node26 -->
<g id="edge65" class="edge">
<title>Node37&#45;&gt;Node26</title>
<path fill="none" stroke="midnightblue" d="M2212.92,-397C2221.01,-394.64 2230.05,-392.35 2238.5,-391 2627.2,-328.74 2735.12,-419.22 3123.5,-355 3171.51,-347.06 3180.6,-332.58 3228.5,-324 3462.21,-282.13 3527.5,-328.22 3761.5,-288 3852.47,-272.36 3883.98,-282.11 3961.5,-232 4003.63,-204.77 4046.73,-174.77 4017.5,-134 4003.5,-114.48 3981.54,-102.41 3958.74,-94.98"/>
<polygon fill="midnightblue" stroke="midnightblue" points="3959.52,-91.56 3948.94,-92.07 3957.53,-98.27 3959.52,-91.56"/>
</g>
<!-- Node37&#45;&gt;Node27 -->
<g id="edge66" class="edge">
<title>Node37&#45;&gt;Node27</title>
<path fill="none" stroke="midnightblue" d="M2207.57,-396.83C2276.26,-366.97 2507.9,-264.71 2691.5,-165 2731.77,-143.13 2776.92,-114.56 2802.89,-97.71"/>
<polygon fill="midnightblue" stroke="midnightblue" points="2805.09,-100.46 2811.55,-92.06 2801.27,-94.59 2805.09,-100.46"/>
</g>
<!-- Node37&#45;&gt;Node35 -->
<g id="edge71" class="edge">
<title>Node37&#45;&gt;Node35</title>
<path fill="none" stroke="midnightblue" d="M2181.16,-396.66C2174.04,-386.65 2162.2,-369.81 2152.5,-355 2117.3,-301.24 2104.32,-289.93 2076.5,-232 2066.47,-211.12 2058,-185.82 2052.85,-169"/>
<polygon fill="midnightblue" stroke="midnightblue" points="2056.17,-167.89 2049.96,-159.31 2049.47,-169.89 2056.17,-167.89"/>
</g>
<!-- Node38 -->
<g id="node36" class="node">
<title>Node38</title>
<g id="a_node36"><a xlink:title=" ">
<polygon fill="none" stroke="#bfbfbf" points="2882.5,-324.5 2882.5,-354.5 3024.5,-354.5 3024.5,-324.5 2882.5,-324.5"/>
<text text-anchor="start" x="2890.5" y="-342.5" font-family="Helvetica,sans-Serif" font-size="10.00">seerep&#45;msgs/query&#45;result</text>
<text text-anchor="middle" x="2953.5" y="-331.5" font-family="Helvetica,sans-Serif" font-size="10.00">&#45;project.h</text>
</a>
</g>
</g>
<!-- Node37&#45;&gt;Node38 -->
<g id="edge70" class="edge">
<title>Node37&#45;&gt;Node38</title>
<path fill="none" stroke="midnightblue" d="M2213.45,-396.93C2221.41,-394.63 2230.24,-392.39 2238.5,-391 2513.98,-344.61 2590.99,-387.25 2872.37,-355.02"/>
<polygon fill="midnightblue" stroke="midnightblue" points="2872.94,-358.48 2882.47,-353.84 2872.13,-351.52 2872.94,-358.48"/>
</g>
<!-- Node39 -->
<g id="node37" class="node">
<title>Node39</title>
<g id="a_node37"><a xlink:href="hdf5-core-instance_8h.html" target="_top" xlink:title=" ">
<polygon fill="none" stroke="black" points="2929,-134.5 2929,-164.5 3054,-164.5 3054,-134.5 2929,-134.5"/>
<text text-anchor="start" x="2937" y="-152.5" font-family="Helvetica,sans-Serif" font-size="10.00">seerep&#45;hdf5&#45;core/hdf5</text>
<text text-anchor="middle" x="2991.5" y="-141.5" font-family="Helvetica,sans-Serif" font-size="10.00">&#45;core&#45;instance.h</text>
</a>
</g>
</g>
<!-- Node37&#45;&gt;Node39 -->
<g id="edge74" class="edge">
<title>Node37&#45;&gt;Node39</title>
<path fill="none" stroke="midnightblue" d="M2215.98,-396.95C2223.29,-394.88 2231.16,-392.76 2238.5,-391 2319.1,-371.65 2341.6,-377.06 2421.5,-355 2525.37,-326.33 2828.36,-212.45 2944.99,-168.21"/>
<polygon fill="midnightblue" stroke="midnightblue" points="2946.27,-171.47 2954.38,-164.65 2943.79,-164.92 2946.27,-171.47"/>
</g>
<!-- Node40 -->
<g id="node38" class="node">
<title>Node40</title>
<g id="a_node38"><a xlink:href="hdf5-core-point-cloud_8h.html" target="_top" xlink:title=" ">
<polygon fill="none" stroke="black" points="2457,-134.5 2457,-164.5 2582,-164.5 2582,-134.5 2457,-134.5"/>
<text text-anchor="start" x="2465" y="-152.5" font-family="Helvetica,sans-Serif" font-size="10.00">seerep&#45;hdf5&#45;core/hdf5</text>
<text text-anchor="middle" x="2519.5" y="-141.5" font-family="Helvetica,sans-Serif" font-size="10.00">&#45;core&#45;point&#45;cloud.h</text>
</a>
</g>
</g>
<!-- Node37&#45;&gt;Node40 -->
<g id="edge85" class="edge">
<title>Node37&#45;&gt;Node40</title>
<path fill="none" stroke="midnightblue" d="M2198.93,-396.72C2245.95,-360.61 2425.17,-222.95 2493.15,-170.74"/>
<polygon fill="midnightblue" stroke="midnightblue" points="2495.44,-173.39 2501.24,-164.53 2491.18,-167.84 2495.44,-173.39"/>
</g>
<!-- Node41 -->
<g id="node39" class="node">
<title>Node41</title>
<g id="a_node39"><a xlink:href="hdf5-core-tf_8h.html" target="_top" xlink:title=" ">
<polygon fill="none" stroke="black" points="1429,-134.5 1429,-164.5 1554,-164.5 1554,-134.5 1429,-134.5"/>
<text text-anchor="start" x="1437" y="-152.5" font-family="Helvetica,sans-Serif" font-size="10.00">seerep&#45;hdf5&#45;core/hdf5</text>
<text text-anchor="middle" x="1491.5" y="-141.5" font-family="Helvetica,sans-Serif" font-size="10.00">&#45;core&#45;tf.h</text>
</a>
</g>
</g>
<!-- Node37&#45;&gt;Node41 -->
<g id="edge97" class="edge">
<title>Node37&#45;&gt;Node41</title>
<path fill="none" stroke="midnightblue" d="M2145.26,-402.02C2084.14,-396.25 1967.89,-382.5 1872.5,-355 1738.37,-316.33 1701.5,-306.58 1583.5,-232 1556.6,-215 1529.81,-190.14 1512.14,-172.35"/>
<polygon fill="midnightblue" stroke="midnightblue" points="1514.19,-169.44 1504.69,-164.73 1509.18,-174.33 1514.19,-169.44"/>
</g>
<!-- Node42 -->
<g id="node40" class="node">
<title>Node42</title>
<g id="a_node40"><a xlink:href="core-dataset_8h.html" target="_top" xlink:title=" ">
<polygon fill="none" stroke="black" points="2777,-330 2777,-349 2864,-349 2864,-330 2777,-330"/>
<text text-anchor="middle" x="2820.5" y="-337" font-family="Helvetica,sans-Serif" font-size="10.00">core&#45;dataset.h</text>
</a>
</g>
</g>
<!-- Node37&#45;&gt;Node42 -->
<g id="edge103" class="edge">
<title>Node37&#45;&gt;Node42</title>
<path fill="none" stroke="midnightblue" d="M2213.73,-396.94C2221.62,-394.67 2230.34,-392.45 2238.5,-391 2451.77,-353.19 2509.26,-379.19 2724.5,-355 2738.11,-353.47 2752.76,-351.45 2766.41,-349.4"/>
<polygon fill="midnightblue" stroke="midnightblue" points="2767.27,-352.81 2776.62,-347.84 2766.21,-345.9 2767.27,-352.81"/>
</g>
<!-- Node44 -->
<g id="node42" class="node">
<title>Node44</title>
<g id="a_node42"><a xlink:href="core-instances_8h.html" target="_top" xlink:title=" ">
<polygon fill="none" stroke="black" points="3422,-268.5 3422,-287.5 3519,-287.5 3519,-268.5 3422,-268.5"/>
<text text-anchor="middle" x="3470.5" y="-275.5" font-family="Helvetica,sans-Serif" font-size="10.00">core&#45;instances.h</text>
</a>
</g>
</g>
<!-- Node37&#45;&gt;Node44 -->
<g id="edge149" class="edge">
<title>Node37&#45;&gt;Node44</title>
<path fill="none" stroke="midnightblue" d="M2213.18,-396.94C2221.2,-394.6 2230.14,-392.35 2238.5,-391 2602.13,-332.23 2705.11,-426.27 3066.5,-355 3106.36,-347.14 3113.07,-333.79 3152.5,-324 3241.44,-301.93 3347.25,-289.65 3411.61,-283.69"/>
<polygon fill="midnightblue" stroke="midnightblue" points="3412.32,-287.14 3421.96,-282.75 3411.69,-280.16 3412.32,-287.14"/>
</g>
<!-- Node47 -->
<g id="node45" class="node">
<title>Node47</title>
<g id="a_node45"><a xlink:href="core-tf_8h.html" target="_top" xlink:title=" ">
<polygon fill="none" stroke="red" points="2085,-207 2085,-226 2142,-226 2142,-207 2085,-207"/>
<text text-anchor="middle" x="2113.5" y="-214" font-family="Helvetica,sans-Serif" font-size="10.00">core&#45;tf.h</text>
</a>
</g>
</g>
<!-- Node37&#45;&gt;Node47 -->
<g id="edge150" class="edge">
<title>Node37&#45;&gt;Node47</title>
<path fill="none" stroke="midnightblue" d="M2184.13,-396.93C2172.84,-368.24 2136.19,-275.13 2120.61,-235.56"/>
<polygon fill="midnightblue" stroke="midnightblue" points="2123.81,-234.14 2116.89,-226.12 2117.3,-236.7 2123.81,-234.14"/>
</g>
<!-- Node39&#45;&gt;Node6 -->
<g id="edge84" class="edge">
<title>Node39&#45;&gt;Node6</title>
<path fill="none" stroke="midnightblue" d="M2992.1,-134.31C2992.04,-115.58 2988.77,-83.09 2968.5,-67 2926.36,-33.55 2102.45,-19.75 1913.77,-17.02"/>
<polygon fill="midnightblue" stroke="midnightblue" points="1913.55,-13.52 1903.51,-16.88 1913.46,-20.52 1913.55,-13.52"/>
</g>
<!-- Node39&#45;&gt;Node12 -->
<g id="edge75" class="edge">
<title>Node39&#45;&gt;Node12</title>
<path fill="none" stroke="midnightblue" d="M2973.9,-134.42C2961.58,-124.44 2944.83,-110.64 2930.5,-98 2915.41,-84.69 2916.12,-74.62 2897.5,-67 2735.91,-0.86 1499.79,-52.4 1326.5,-31 1319.27,-30.11 1311.66,-28.76 1304.31,-27.23"/>
<polygon fill="midnightblue" stroke="midnightblue" points="1305.03,-23.81 1294.51,-25.07 1303.52,-30.64 1305.03,-23.81"/>
</g>
<!-- Node39&#45;&gt;Node16 -->
<g id="edge80" class="edge">
<title>Node39&#45;&gt;Node16</title>
<path fill="none" stroke="midnightblue" d="M3017.83,-134.35C3053.89,-115.67 3121.16,-83.24 3182.5,-67 3311.91,-32.74 3468.82,-21.72 3555.96,-18.18"/>
<polygon fill="midnightblue" stroke="midnightblue" points="3556.12,-21.68 3565.97,-17.79 3555.85,-14.68 3556.12,-21.68"/>
</g>
<!-- Node39&#45;&gt;Node17 -->
<g id="edge76" class="edge">
<title>Node39&#45;&gt;Node17</title>
<path fill="none" stroke="midnightblue" d="M2928.88,-145.14C2868.2,-141.97 2773.56,-137.23 2691.5,-134 2163.67,-113.25 2031.15,-123.07 1503.5,-98 1452.94,-95.6 1396.03,-91.9 1352.22,-88.84"/>
<polygon fill="midnightblue" stroke="midnightblue" points="1352.45,-85.35 1342.23,-88.14 1351.96,-92.33 1352.45,-85.35"/>
</g>
<!-- Node39&#45;&gt;Node19 -->
<g id="edge83" class="edge">
<title>Node39&#45;&gt;Node19</title>
<path fill="none" stroke="midnightblue" d="M2985.73,-134.46C2976.99,-115.26 2958.4,-81.54 2930.5,-67 2929.46,-66.46 1754.33,-28.25 1459.15,-18.66"/>
<polygon fill="midnightblue" stroke="midnightblue" points="1459.13,-15.16 1449.02,-18.34 1458.9,-22.16 1459.13,-15.16"/>
</g>
<!-- Node39&#45;&gt;Node24 -->
<g id="edge78" class="edge">
<title>Node39&#45;&gt;Node24</title>
<path fill="none" stroke="midnightblue" d="M2928.91,-142.47C2806.31,-130.67 2534.63,-104.51 2398.13,-91.36"/>
<polygon fill="midnightblue" stroke="midnightblue" points="2398.43,-87.87 2388.14,-90.4 2397.76,-94.84 2398.43,-87.87"/>
</g>
<!-- Node39&#45;&gt;Node25 -->
<g id="edge79" class="edge">
<title>Node39&#45;&gt;Node25</title>
<path fill="none" stroke="midnightblue" d="M3054.32,-136.27C3117.02,-124.07 3212.35,-105.52 3271.67,-93.98"/>
<polygon fill="midnightblue" stroke="midnightblue" points="3272.45,-97.39 3281.6,-92.04 3271.11,-90.52 3272.45,-97.39"/>
</g>
<!-- Node39&#45;&gt;Node26 -->
<g id="edge81" class="edge">
<title>Node39&#45;&gt;Node26</title>
<path fill="none" stroke="midnightblue" d="M3054.3,-143.7C3091.56,-140.86 3139.72,-137.2 3182.5,-134 3393.45,-118.23 3640.91,-100.1 3773.36,-90.43"/>
<polygon fill="midnightblue" stroke="midnightblue" points="3773.75,-93.92 3783.47,-89.7 3773.25,-86.93 3773.75,-93.92"/>
</g>
<!-- Node39&#45;&gt;Node27 -->
<g id="edge82" class="edge">
<title>Node39&#45;&gt;Node27</title>
<path fill="none" stroke="midnightblue" d="M2955.26,-134.4C2925.57,-122.84 2883.99,-106.66 2855.75,-95.66"/>
<polygon fill="midnightblue" stroke="midnightblue" points="2856.94,-92.37 2846.36,-92.01 2854.41,-98.9 2856.94,-92.37"/>
</g>
<!-- Node39&#45;&gt;Node36 -->
<g id="edge77" class="edge">
<title>Node39&#45;&gt;Node36</title>
<path fill="none" stroke="midnightblue" d="M2928.87,-145.45C2868.18,-142.49 2773.53,-137.9 2691.5,-134 2337.48,-117.16 1918.1,-97.66 1722.81,-88.61"/>
<polygon fill="midnightblue" stroke="midnightblue" points="1722.69,-85.1 1712.54,-88.13 1722.37,-92.09 1722.69,-85.1"/>
</g>
<!-- Node40&#45;&gt;Node6 -->
<g id="edge91" class="edge">
<title>Node40&#45;&gt;Node6</title>
<path fill="none" stroke="midnightblue" d="M2582.27,-136.03C2620.48,-127.03 2664.07,-113.71 2675.5,-98 2683.6,-86.86 2684.93,-77.04 2675.5,-67 2649.14,-38.92 2069.94,-21.64 1913.92,-17.48"/>
<polygon fill="midnightblue" stroke="midnightblue" points="1913.94,-13.98 1903.85,-17.21 1913.75,-20.98 1913.94,-13.98"/>
</g>
<!-- Node40&#45;&gt;Node12 -->
<g id="edge86" class="edge">
<title>Node40&#45;&gt;Node12</title>
<path fill="none" stroke="midnightblue" d="M2505.2,-134.38C2482.42,-112.03 2439.52,-70.68 2430.5,-67 2316.85,-20.68 1448.23,-46.63 1326.5,-31 1319.28,-30.07 1311.67,-28.7 1304.32,-27.17"/>
<polygon fill="midnightblue" stroke="midnightblue" points="1305.04,-23.75 1294.52,-25.01 1303.53,-30.58 1305.04,-23.75"/>
</g>
<!-- Node40&#45;&gt;Node14 -->
<g id="edge87" class="edge">
<title>Node40&#45;&gt;Node14</title>
<path fill="none" stroke="midnightblue" d="M2535.56,-134.4C2545.54,-125.62 2558.57,-114.18 2569.74,-104.37"/>
<polygon fill="midnightblue" stroke="midnightblue" points="2572.27,-106.81 2577.47,-97.58 2567.65,-101.55 2572.27,-106.81"/>
</g>
<!-- Node40&#45;&gt;Node15 -->
<g id="edge89" class="edge">
<title>Node40&#45;&gt;Node15</title>
<path fill="none" stroke="midnightblue" d="M2490.78,-134.44C2472.8,-125.1 2449.52,-112.02 2430.5,-98 2414.3,-86.06 2416.1,-74.69 2397.5,-67 2274.33,-16.07 1331.14,-44.11 1198.5,-31 1193.13,-30.47 1187.59,-29.81 1182.03,-29.06"/>
<polygon fill="midnightblue" stroke="midnightblue" points="1182.43,-25.58 1172.04,-27.62 1181.44,-32.51 1182.43,-25.58"/>
</g>
<!-- Node40&#45;&gt;Node16 -->
<g id="edge94" class="edge">
<title>Node40&#45;&gt;Node16</title>
<path fill="none" stroke="midnightblue" d="M2578.11,-134.4C2612.06,-125.5 2655.31,-112.87 2692.5,-98 2720.37,-86.85 2723.55,-74.93 2752.5,-67 2829.11,-46.01 3365.52,-25.47 3555.77,-18.77"/>
<polygon fill="midnightblue" stroke="midnightblue" points="3556.05,-22.26 3565.92,-18.42 3555.8,-15.27 3556.05,-22.26"/>
</g>
<!-- Node40&#45;&gt;Node17 -->
<g id="edge88" class="edge">
<title>Node40&#45;&gt;Node17</title>
<path fill="none" stroke="midnightblue" d="M2456.76,-144.12C2411.86,-141.06 2349.98,-137 2295.5,-134 1943.67,-114.62 1855.33,-117.38 1503.5,-98 1452.96,-95.22 1396.04,-91.52 1352.23,-88.56"/>
<polygon fill="midnightblue" stroke="midnightblue" points="1352.45,-85.07 1342.24,-87.88 1351.98,-92.05 1352.45,-85.07"/>
</g>
<!-- Node40&#45;&gt;Node19 -->
<g id="edge90" class="edge">
<title>Node40&#45;&gt;Node19</title>
<path fill="none" stroke="midnightblue" d="M2515.21,-134.27C2508.62,-115.17 2494,-81.92 2468.5,-67 2446.64,-54.21 1691,-26.9 1459.34,-18.8"/>
<polygon fill="midnightblue" stroke="midnightblue" points="1459.15,-15.3 1449.03,-18.44 1458.91,-22.29 1459.15,-15.3"/>
</g>
<!-- Node40&#45;&gt;Node24 -->
<g id="edge92" class="edge">
<title>Node40&#45;&gt;Node24</title>
<path fill="none" stroke="midnightblue" d="M2475.45,-134.4C2438.73,-122.64 2387.05,-106.09 2352.7,-95.09"/>
<polygon fill="midnightblue" stroke="midnightblue" points="2353.66,-91.72 2343.07,-92.01 2351.52,-98.39 2353.66,-91.72"/>
</g>
<!-- Node40&#45;&gt;Node25 -->
<g id="edge93" class="edge">
<title>Node40&#45;&gt;Node25</title>
<path fill="none" stroke="midnightblue" d="M2582.25,-139.58C2597.68,-137.57 2614.17,-135.57 2629.5,-134 2856.27,-110.85 3125.67,-94.45 3252.54,-87.38"/>
<polygon fill="midnightblue" stroke="midnightblue" points="3252.74,-90.88 3262.53,-86.83 3252.35,-83.89 3252.74,-90.88"/>
</g>
<!-- Node40&#45;&gt;Node26 -->
<g id="edge95" class="edge">
<title>Node40&#45;&gt;Node26</title>
<path fill="none" stroke="midnightblue" d="M2582.22,-139.24C2597.65,-137.23 2614.15,-135.32 2629.5,-134 2851.24,-114.91 3523,-93.71 3773.23,-86.27"/>
<polygon fill="midnightblue" stroke="midnightblue" points="3773.49,-89.76 3783.39,-85.97 3773.29,-82.76 3773.49,-89.76"/>
</g>
<!-- Node40&#45;&gt;Node27 -->
<g id="edge96" class="edge">
<title>Node40&#45;&gt;Node27</title>
<path fill="none" stroke="midnightblue" d="M2582.33,-135.11C2639.22,-122.99 2721.94,-105.36 2774.47,-94.16"/>
<polygon fill="midnightblue" stroke="midnightblue" points="2775.5,-97.52 2784.56,-92.01 2774.05,-90.67 2775.5,-97.52"/>
</g>
<!-- Node41&#45;&gt;Node6 -->
<g id="edge102" class="edge">
<title>Node41&#45;&gt;Node6</title>
<path fill="none" stroke="midnightblue" d="M1489,-134.47C1486.63,-116.22 1485.7,-84.6 1503.5,-67 1549.99,-21.03 1752.1,-16.1 1837.35,-16.11"/>
<polygon fill="midnightblue" stroke="midnightblue" points="1837.38,-19.61 1847.38,-16.14 1837.39,-12.61 1837.38,-19.61"/>
</g>
<!-- Node41&#45;&gt;Node12 -->
<g id="edge98" class="edge">
<title>Node41&#45;&gt;Node12</title>
<path fill="none" stroke="midnightblue" d="M1428.91,-136.6C1424.03,-135.7 1419.19,-134.83 1414.5,-134 1366.37,-125.48 1229.11,-135.29 1197.5,-98 1177.82,-74.78 1212.05,-46.9 1237.85,-30.5"/>
<polygon fill="midnightblue" stroke="midnightblue" points="1239.81,-33.4 1246.52,-25.2 1236.16,-27.43 1239.81,-33.4"/>
</g>
<!-- Node41&#45;&gt;Node17 -->
<g id="edge99" class="edge">
<title>Node41&#45;&gt;Node17</title>
<path fill="none" stroke="midnightblue" d="M1445.76,-134.48C1413.41,-124.56 1369.85,-111.2 1335.43,-100.65"/>
<polygon fill="midnightblue" stroke="midnightblue" points="1336.11,-97.2 1325.52,-97.61 1334.06,-103.89 1336.11,-97.2"/>
</g>
<!-- Node41&#45;&gt;Node19 -->
<g id="edge101" class="edge">
<title>Node41&#45;&gt;Node19</title>
<path fill="none" stroke="midnightblue" d="M1428.9,-136.64C1424.03,-135.74 1419.18,-134.85 1414.5,-134 1368.56,-125.68 1237.55,-133.73 1207.5,-98 1198.63,-87.46 1199.14,-77.95 1207.5,-67 1211.84,-61.31 1293.79,-40.49 1347.15,-27.42"/>
<polygon fill="midnightblue" stroke="midnightblue" points="1348.19,-30.77 1357.08,-25 1346.53,-23.97 1348.19,-30.77"/>
</g>
<!-- Node41&#45;&gt;Node36 -->
<g id="edge100" class="edge">
<title>Node41&#45;&gt;Node36</title>
<path fill="none" stroke="midnightblue" d="M1517.76,-134.4C1538.52,-123.24 1567.3,-107.78 1587.68,-96.83"/>
<polygon fill="midnightblue" stroke="midnightblue" points="1589.51,-99.82 1596.66,-92.01 1586.2,-93.66 1589.51,-99.82"/>
</g>
<!-- Node42&#45;&gt;Node5 -->
<g id="edge104" class="edge">
<title>Node42&#45;&gt;Node5</title>
<path fill="none" stroke="midnightblue" d="M2849.3,-329.98C2891.28,-317.45 2965.47,-294.79 2976.5,-288 3022.79,-259.48 3014.16,-225.88 3062.5,-201 3152.16,-154.86 3188.31,-187.92 3286.5,-165 3290.32,-164.11 3294.28,-163.07 3298.21,-161.97"/>
<polygon fill="midnightblue" stroke="midnightblue" points="3299.22,-165.32 3307.82,-159.13 3297.24,-158.6 3299.22,-165.32"/>
</g>
<!-- Node42&#45;&gt;Node6 -->
<g id="edge105" class="edge">
<title>Node42&#45;&gt;Node6</title>
<path fill="none" stroke="midnightblue" d="M2776.61,-333.46C2721.9,-326.49 2625.92,-311.97 2546.5,-288 2485.88,-269.7 2469.67,-264.79 2415.5,-232 2386.05,-214.17 2325.81,-150.33 2295.5,-134 2207.76,-86.73 2177.5,-93.77 2081.5,-67 2023.3,-50.77 1955.07,-34.6 1913.58,-25.08"/>
<polygon fill="midnightblue" stroke="midnightblue" points="1914.16,-21.62 1903.63,-22.8 1912.6,-28.44 1914.16,-21.62"/>
</g>
<!-- Node42&#45;&gt;Node9 -->
<g id="edge108" class="edge">
<title>Node42&#45;&gt;Node9</title>
<path fill="none" stroke="midnightblue" d="M2776.89,-335.42C2617.27,-324.02 2049.9,-282.22 1583.5,-232 1381.05,-210.2 1142.64,-176.95 1027.94,-160.47"/>
<polygon fill="midnightblue" stroke="midnightblue" points="1028.29,-156.98 1017.89,-159.02 1027.29,-163.91 1028.29,-156.98"/>
</g>
<!-- Node42&#45;&gt;Node10 -->
<g id="edge109" class="edge">
<title>Node42&#45;&gt;Node10</title>
<path fill="none" stroke="midnightblue" d="M2776.88,-337.41C2709.29,-334.59 2575.95,-324.44 2469.5,-288 2380.43,-257.51 2286.77,-193.79 2247.09,-165.08"/>
<polygon fill="midnightblue" stroke="midnightblue" points="2248.97,-162.12 2238.83,-159.04 2244.84,-167.77 2248.97,-162.12"/>
</g>
<!-- Node42&#45;&gt;Node14 -->
<g id="edge110" class="edge">
<title>Node42&#45;&gt;Node14</title>
<path fill="none" stroke="midnightblue" d="M2817.11,-329.99C2804.65,-299.69 2758.65,-195.55 2691.5,-134 2676.98,-120.69 2658.29,-109.92 2641.13,-101.79"/>
<polygon fill="midnightblue" stroke="midnightblue" points="2642.35,-98.5 2631.79,-97.55 2639.45,-104.88 2642.35,-98.5"/>
</g>
<!-- Node42&#45;&gt;Node16 -->
<g id="edge146" class="edge">
<title>Node42&#45;&gt;Node16</title>
<path fill="none" stroke="midnightblue" d="M2847.21,-329.93C2855.54,-327.6 2864.83,-325.34 2873.5,-324 3263.83,-263.5 3371.39,-349.92 3761.5,-288 3852.24,-273.6 3872.54,-258.53 3960.5,-232 4053.48,-203.95 4111.31,-243.5 4168.5,-165 4227.36,-84.2 3847.5,-38.01 3689.32,-22.47"/>
<polygon fill="midnightblue" stroke="midnightblue" points="3689.52,-18.98 3679.23,-21.5 3688.85,-25.94 3689.52,-18.98"/>
</g>
<!-- Node42&#45;&gt;Node18 -->
<g id="edge106" class="edge">
<title>Node42&#45;&gt;Node18</title>
<path fill="none" stroke="midnightblue" d="M2826.75,-329.9C2844.78,-305.74 2899.57,-236.66 2961.5,-201 3013.08,-171.3 3044.47,-202.74 3090.5,-165 3126.15,-135.77 3126.32,-113.07 3124.5,-67 3124.08,-56.5 3123.19,-44.81 3122.35,-35.32"/>
<polygon fill="midnightblue" stroke="midnightblue" points="3125.8,-34.7 3121.39,-25.07 3118.83,-35.35 3125.8,-34.7"/>
</g>
<!-- Node42&#45;&gt;Node24 -->
<g id="edge144" class="edge">
<title>Node42&#45;&gt;Node24</title>
<path fill="none" stroke="midnightblue" d="M2776.68,-331.48C2689.75,-315.63 2492.95,-269.95 2366.5,-165 2345.9,-147.9 2331.42,-120.01 2323.51,-101.7"/>
<polygon fill="midnightblue" stroke="midnightblue" points="2326.74,-100.35 2319.71,-92.42 2320.26,-103 2326.74,-100.35"/>
</g>
<!-- Node42&#45;&gt;Node25 -->
<g id="edge145" class="edge">
<title>Node42&#45;&gt;Node25</title>
<path fill="none" stroke="midnightblue" d="M2833.27,-329.97C2848.22,-319.96 2873.71,-302.86 2895.5,-288 2951.73,-249.66 2958.32,-226.29 3021.5,-201 3116.33,-163.04 3158.16,-212.67 3248.5,-165 3277.35,-149.78 3301.42,-119.56 3314.61,-100.5"/>
<polygon fill="midnightblue" stroke="midnightblue" points="3317.54,-102.42 3320.19,-92.16 3311.72,-98.53 3317.54,-102.42"/>
</g>
<!-- Node42&#45;&gt;Node26 -->
<g id="edge147" class="edge">
<title>Node42&#45;&gt;Node26</title>
<path fill="none" stroke="midnightblue" d="M2847.21,-329.95C2855.55,-327.62 2864.83,-325.36 2873.5,-324 3225.09,-268.7 3320.82,-335.85 3673.5,-288 3784.18,-272.98 3818.31,-281.38 3918.5,-232 3969.19,-207.02 4031.47,-180.59 3999.5,-134 3985.92,-114.22 3963.42,-102.18 3940.86,-94.86"/>
<polygon fill="midnightblue" stroke="midnightblue" points="3941.8,-91.49 3931.21,-92 3939.81,-98.2 3941.8,-91.49"/>
</g>
<!-- Node42&#45;&gt;Node27 -->
<g id="edge148" class="edge">
<title>Node42&#45;&gt;Node27</title>
<path fill="none" stroke="midnightblue" d="M2820.64,-329.72C2821.21,-293.32 2823.4,-153.77 2824.2,-102.52"/>
<polygon fill="midnightblue" stroke="midnightblue" points="2827.71,-102.29 2824.36,-92.24 2820.71,-102.18 2827.71,-102.29"/>
</g>
<!-- Node43 -->
<g id="node41" class="node">
<title>Node43</title>
<g id="a_node41"><a xlink:title=" ">
<polygon fill="none" stroke="#bfbfbf" points="3839,-140 3839,-159 3974,-159 3974,-140 3839,-140"/>
<text text-anchor="middle" x="3906.5" y="-147" font-family="Helvetica,sans-Serif" font-size="10.00">seerep&#45;msgs/datatype.h</text>
</a>
</g>
</g>
<!-- Node42&#45;&gt;Node43 -->
<g id="edge107" class="edge">
<title>Node42&#45;&gt;Node43</title>
<path fill="none" stroke="midnightblue" d="M2847.49,-329.93C2855.76,-327.63 2864.93,-325.39 2873.5,-324 3161.28,-277.27 3238.76,-320.44 3528.5,-288 3676.34,-271.45 3736,-316.4 3858.5,-232 3880.64,-216.74 3894.1,-187.65 3900.92,-168.67"/>
<polygon fill="midnightblue" stroke="midnightblue" points="3904.28,-169.68 3904.11,-159.08 3897.63,-167.46 3904.28,-169.68"/>
</g>
<!-- Node42&#45;&gt;Node44 -->
<g id="edge111" class="edge">
<title>Node42&#45;&gt;Node44</title>
<path fill="none" stroke="midnightblue" d="M2847.78,-329.96C2855.98,-327.69 2865.04,-325.46 2873.5,-324 3068.72,-290.26 3304.18,-281.82 3411.74,-279.7"/>
<polygon fill="midnightblue" stroke="midnightblue" points="3411.81,-283.2 3421.75,-279.52 3411.68,-276.2 3411.81,-283.2"/>
</g>
<!-- Node42&#45;&gt;Node47 -->
<g id="edge133" class="edge">
<title>Node42&#45;&gt;Node47</title>
<path fill="none" stroke="midnightblue" d="M2776.85,-334.12C2704.68,-326.58 2556.1,-309.85 2431.5,-288 2329.88,-270.18 2211.59,-241.95 2152,-227.2"/>
<polygon fill="midnightblue" stroke="midnightblue" points="2152.82,-223.8 2142.27,-224.78 2151.13,-230.59 2152.82,-223.8"/>
</g>
<!-- Node44&#45;&gt;Node5 -->
<g id="edge112" class="edge">
<title>Node44&#45;&gt;Node5</title>
<path fill="none" stroke="midnightblue" d="M3464.71,-268.33C3454.5,-253.45 3432.15,-222.58 3408.5,-201 3393.04,-186.89 3373.34,-173.78 3358.01,-164.46"/>
<polygon fill="midnightblue" stroke="midnightblue" points="3359.49,-161.27 3349.11,-159.16 3355.91,-167.28 3359.49,-161.27"/>
</g>
<!-- Node44&#45;&gt;Node6 -->
<g id="edge113" class="edge">
<title>Node44&#45;&gt;Node6</title>
<path fill="none" stroke="midnightblue" d="M3514.53,-268.46C3595,-251.82 3760.45,-212.49 3791.5,-165 3799.04,-153.47 3800.26,-144.64 3791.5,-134 3693.07,-14.41 3603.41,-84.43 3449.5,-67 3138.42,-31.77 2124.23,-19.16 1913.9,-16.89"/>
<polygon fill="midnightblue" stroke="midnightblue" points="1913.71,-13.39 1903.67,-16.78 1913.63,-20.39 1913.71,-13.39"/>
</g>
<!-- Node44&#45;&gt;Node16 -->
<g id="edge130" class="edge">
<title>Node44&#45;&gt;Node16</title>
<path fill="none" stroke="midnightblue" d="M3519.21,-275.67C3619.88,-272.35 3847.36,-261.71 3918.5,-232 3961.61,-214 3979.61,-207.27 3999.5,-165 4057.48,-41.8 3812.26,-20.01 3689.19,-16.71"/>
<polygon fill="midnightblue" stroke="midnightblue" points="3689.19,-13.2 3679.11,-16.47 3689.03,-20.2 3689.19,-13.2"/>
</g>
<!-- Node44&#45;&gt;Node24 -->
<g id="edge128" class="edge">
<title>Node44&#45;&gt;Node24</title>
<path fill="none" stroke="midnightblue" d="M3421.76,-275.94C3238.25,-271.33 2590.01,-249.3 2404.5,-165 2395.94,-161.11 2355.62,-122.11 2332.64,-99.5"/>
<polygon fill="midnightblue" stroke="midnightblue" points="2334.89,-96.8 2325.32,-92.27 2329.98,-101.78 2334.89,-96.8"/>
</g>
<!-- Node44&#45;&gt;Node25 -->
<g id="edge129" class="edge">
<title>Node44&#45;&gt;Node25</title>
<path fill="none" stroke="midnightblue" d="M3471.68,-268.48C3474.51,-244.44 3479.21,-175.21 3446.5,-134 3430.96,-114.42 3406.49,-102.35 3383.61,-94.94"/>
<polygon fill="midnightblue" stroke="midnightblue" points="3384.51,-91.56 3373.93,-92.05 3382.5,-98.26 3384.51,-91.56"/>
</g>
<!-- Node44&#45;&gt;Node26 -->
<g id="edge131" class="edge">
<title>Node44&#45;&gt;Node26</title>
<path fill="none" stroke="midnightblue" d="M3519.19,-277.15C3593.9,-276.11 3740.57,-268.97 3858.5,-232 3918.65,-213.15 3951.13,-219.08 3983.5,-165 3990.58,-153.18 3991.03,-145.54 3983.5,-134 3970.78,-114.53 3948.7,-102.51 3927.26,-95.12"/>
<polygon fill="midnightblue" stroke="midnightblue" points="3928.08,-91.71 3917.49,-92.04 3925.98,-98.39 3928.08,-91.71"/>
</g>
<!-- Node44&#45;&gt;Node27 -->
<g id="edge132" class="edge">
<title>Node44&#45;&gt;Node27</title>
<path fill="none" stroke="midnightblue" d="M3421.84,-270.27C3304.62,-253.55 3009.68,-208.34 2920.5,-165 2902.99,-156.49 2863.37,-120.36 2840.88,-99.17"/>
<polygon fill="midnightblue" stroke="midnightblue" points="2843.11,-96.46 2833.45,-92.12 2838.3,-101.54 2843.11,-96.46"/>
</g>
<!-- Node44&#45;&gt;Node39 -->
<g id="edge127" class="edge">
<title>Node44&#45;&gt;Node39</title>
<path fill="none" stroke="midnightblue" d="M3458.27,-268.27C3435.01,-252.14 3382.26,-217.78 3332.5,-201 3243.04,-170.84 3134.36,-158.67 3064.11,-153.78"/>
<polygon fill="midnightblue" stroke="midnightblue" points="3064.24,-150.28 3054.03,-153.11 3063.77,-157.26 3064.24,-150.28"/>
</g>
<!-- Node44&#45;&gt;Node43 -->
<g id="edge125" class="edge">
<title>Node44&#45;&gt;Node43</title>
<path fill="none" stroke="midnightblue" d="M3519.07,-274.68C3603.12,-270.04 3771.76,-257.76 3824.5,-232 3854.86,-217.17 3880.75,-186.6 3894.92,-167.41"/>
<polygon fill="midnightblue" stroke="midnightblue" points="3897.78,-169.42 3900.74,-159.25 3892.08,-165.36 3897.78,-169.42"/>
</g>
<!-- Node45 -->
<g id="node43" class="node">
<title>Node45</title>
<g id="a_node43"><a xlink:href="core-instance_8h.html" target="_top" xlink:title=" ">
<polygon fill="none" stroke="black" points="3498.5,-207 3498.5,-226 3590.5,-226 3590.5,-207 3498.5,-207"/>
<text text-anchor="middle" x="3544.5" y="-214" font-family="Helvetica,sans-Serif" font-size="10.00">core&#45;instance.h</text>
</a>
</g>
</g>
<!-- Node44&#45;&gt;Node45 -->
<g id="edge114" class="edge">
<title>Node44&#45;&gt;Node45</title>
<path fill="none" stroke="midnightblue" d="M3481.1,-268.48C3492.75,-259.11 3511.69,-243.88 3525.83,-232.51"/>
<polygon fill="midnightblue" stroke="midnightblue" points="3528.32,-235 3533.92,-226.01 3523.93,-229.55 3528.32,-235"/>
</g>
<!-- Node46 -->
<g id="node44" class="node">
<title>Node46</title>
<g id="a_node44"><a xlink:title=" ">
<polygon fill="none" stroke="#bfbfbf" points="3651,-134.5 3651,-164.5 3782,-164.5 3782,-134.5 3651,-134.5"/>
<text text-anchor="start" x="3659" y="-152.5" font-family="Helvetica,sans-Serif" font-size="10.00">seerep&#45;msgs/label&#45;with</text>
<text text-anchor="middle" x="3716.5" y="-141.5" font-family="Helvetica,sans-Serif" font-size="10.00">&#45;instance.h</text>
</a>
</g>
</g>
<!-- Node44&#45;&gt;Node46 -->
<g id="edge126" class="edge">
<title>Node44&#45;&gt;Node46</title>
<path fill="none" stroke="midnightblue" d="M3502.5,-268.49C3529.23,-260.76 3567.92,-248.12 3599.5,-232 3633.32,-214.73 3668.62,-188.9 3691.48,-170.96"/>
<polygon fill="midnightblue" stroke="midnightblue" points="3693.95,-173.47 3699.61,-164.51 3689.6,-167.98 3693.95,-173.47"/>
</g>
<!-- Node45&#45;&gt;Node5 -->
<g id="edge115" class="edge">
<title>Node45&#45;&gt;Node5</title>
<path fill="none" stroke="midnightblue" d="M3516.64,-206.93C3484.01,-196.88 3428.33,-179.74 3380.5,-165 3377.4,-164.04 3374.18,-163.05 3370.95,-162.06"/>
<polygon fill="midnightblue" stroke="midnightblue" points="3371.92,-158.69 3361.33,-159.09 3369.86,-165.38 3371.92,-158.69"/>
</g>
<!-- Node45&#45;&gt;Node6 -->
<g id="edge116" class="edge">
<title>Node45&#45;&gt;Node6</title>
<path fill="none" stroke="midnightblue" d="M3543.06,-206.92C3540,-190.92 3531.5,-156.16 3512.5,-134 3474,-89.09 3454.34,-83.37 3397.5,-67 3251.19,-24.87 2135.87,-17.67 1913.86,-16.65"/>
<polygon fill="midnightblue" stroke="midnightblue" points="1913.7,-13.15 1903.68,-16.61 1913.67,-20.15 1913.7,-13.15"/>
</g>
<!-- Node45&#45;&gt;Node16 -->
<g id="edge122" class="edge">
<title>Node45&#45;&gt;Node16</title>
<path fill="none" stroke="midnightblue" d="M3547.85,-206.95C3559.6,-176.97 3599.09,-76.23 3615.38,-34.67"/>
<polygon fill="midnightblue" stroke="midnightblue" points="3618.68,-35.83 3619.07,-25.24 3612.17,-33.28 3618.68,-35.83"/>
</g>
<!-- Node45&#45;&gt;Node24 -->
<g id="edge120" class="edge">
<title>Node45&#45;&gt;Node24</title>
<path fill="none" stroke="midnightblue" d="M3498.43,-214.1C3296.67,-207.87 2498.85,-182.24 2448.5,-165 2425.87,-157.25 2424.67,-146.86 2404.5,-134 2383.69,-120.74 2359.31,-106.87 2341.5,-97.03"/>
<polygon fill="midnightblue" stroke="midnightblue" points="2342.79,-93.75 2332.34,-92.01 2339.42,-99.89 2342.79,-93.75"/>
</g>
<!-- Node45&#45;&gt;Node25 -->
<g id="edge121" class="edge">
<title>Node45&#45;&gt;Node25</title>
<path fill="none" stroke="midnightblue" d="M3540.52,-206.97C3532.38,-190.42 3512.21,-153.86 3484.5,-134 3456.67,-114.06 3420.64,-101.76 3389.92,-94.31"/>
<polygon fill="midnightblue" stroke="midnightblue" points="3390.68,-90.89 3380.15,-92.05 3389.11,-97.71 3390.68,-90.89"/>
</g>
<!-- Node45&#45;&gt;Node26 -->
<g id="edge123" class="edge">
<title>Node45&#45;&gt;Node26</title>
<path fill="none" stroke="midnightblue" d="M3553.67,-206.91C3574,-188.01 3622.64,-143.76 3642.5,-134 3684.67,-113.27 3735.45,-100.95 3778.18,-93.67"/>
<polygon fill="midnightblue" stroke="midnightblue" points="3778.98,-97.08 3788.29,-92.02 3777.85,-90.18 3778.98,-97.08"/>
</g>
<!-- Node45&#45;&gt;Node27 -->
<g id="edge124" class="edge">
<title>Node45&#45;&gt;Node27</title>
<path fill="none" stroke="midnightblue" d="M3531.14,-206.98C3503.4,-189.77 3437.03,-151.05 3375.5,-134 3287.62,-109.64 3027.03,-93.64 2898.24,-86.99"/>
<polygon fill="midnightblue" stroke="midnightblue" points="2898.24,-83.49 2888.07,-86.47 2897.88,-90.48 2898.24,-83.49"/>
</g>
<!-- Node45&#45;&gt;Node39 -->
<g id="edge119" class="edge">
<title>Node45&#45;&gt;Node39</title>
<path fill="none" stroke="midnightblue" d="M3498.3,-210.07C3402.17,-198.77 3179.97,-172.65 3064.36,-159.06"/>
<polygon fill="midnightblue" stroke="midnightblue" points="3064.53,-155.56 3054.19,-157.87 3063.71,-162.51 3064.53,-155.56"/>
</g>
<!-- Node45&#45;&gt;Node43 -->
<g id="edge117" class="edge">
<title>Node45&#45;&gt;Node43</title>
<path fill="none" stroke="midnightblue" d="M3590.72,-207.2C3656.57,-195.38 3777.35,-173.69 3848.93,-160.84"/>
<polygon fill="midnightblue" stroke="midnightblue" points="3849.9,-164.22 3859.13,-159.01 3848.66,-157.33 3849.9,-164.22"/>
</g>
<!-- Node45&#45;&gt;Node46 -->
<g id="edge118" class="edge">
<title>Node45&#45;&gt;Node46</title>
<path fill="none" stroke="midnightblue" d="M3567.34,-206.87C3593.37,-197.03 3636.61,-180.69 3669.85,-168.13"/>
<polygon fill="midnightblue" stroke="midnightblue" points="3671.26,-171.34 3679.38,-164.53 3668.79,-164.79 3671.26,-171.34"/>
</g>
<!-- Node47&#45;&gt;Node5 -->
<g id="edge134" class="edge">
<title>Node47&#45;&gt;Node5</title>
<path fill="none" stroke="midnightblue" d="M2142.36,-214.93C2268.85,-212.26 2786.76,-199.69 3210.5,-165 3237.29,-162.81 3267.24,-159.3 3290.88,-156.28"/>
<polygon fill="midnightblue" stroke="midnightblue" points="3291.47,-159.74 3300.93,-154.98 3290.57,-152.79 3291.47,-159.74"/>
</g>
<!-- Node47&#45;&gt;Node6 -->
<g id="edge136" class="edge">
<title>Node47&#45;&gt;Node6</title>
<path fill="none" stroke="midnightblue" d="M2117.59,-206.85C2124.4,-191.03 2135.98,-156.97 2121.5,-134 2075.51,-61.07 1970.41,-32.44 1913.61,-21.98"/>
<polygon fill="midnightblue" stroke="midnightblue" points="1914.05,-18.51 1903.59,-20.24 1912.84,-25.4 1914.05,-18.51"/>
</g>
<!-- Node47&#45;&gt;Node10 -->
<g id="edge139" class="edge">
<title>Node47&#45;&gt;Node10</title>
<path fill="none" stroke="midnightblue" d="M2128.87,-206.73C2148.02,-195.82 2180.94,-177.05 2203.44,-164.22"/>
<polygon fill="midnightblue" stroke="midnightblue" points="2205.42,-167.12 2212.37,-159.13 2201.95,-161.04 2205.42,-167.12"/>
</g>
<!-- Node47&#45;&gt;Node18 -->
<g id="edge137" class="edge">
<title>Node47&#45;&gt;Node18</title>
<path fill="none" stroke="midnightblue" d="M2142.38,-215.81C2293.29,-217.17 2987.36,-220.37 3063.5,-165 3105.67,-134.34 3116.64,-68.12 3119.5,-35.48"/>
<polygon fill="midnightblue" stroke="midnightblue" points="3123.02,-35.32 3120.22,-25.1 3116.03,-34.83 3123.02,-35.32"/>
</g>
<!-- Node47&#45;&gt;Node21 -->
<g id="edge142" class="edge">
<title>Node47&#45;&gt;Node21</title>
<path fill="none" stroke="midnightblue" d="M2084.54,-214.31C2018.89,-211.64 1853.73,-205.09 1715.5,-201 1627.4,-198.4 205.15,-210.22 129.5,-165 86.72,-139.43 75.93,-76.11 73.29,-40.98"/>
<polygon fill="midnightblue" stroke="midnightblue" points="76.76,-40.42 72.68,-30.64 69.77,-40.83 76.76,-40.42"/>
</g>
<!-- Node47&#45;&gt;Node22 -->
<g id="edge143" class="edge">
<title>Node47&#45;&gt;Node22</title>
<path fill="none" stroke="midnightblue" d="M2084.59,-214.4C1961.21,-209.59 1482.17,-189.46 1419.5,-165 1398.87,-156.95 1400.75,-142.95 1380.5,-134 1289.08,-93.59 1256.93,-115.39 1158.5,-98 1023.57,-74.16 865.22,-43.03 784.92,-27.02"/>
<polygon fill="midnightblue" stroke="midnightblue" points="785.55,-23.58 775.05,-25.05 784.18,-30.44 785.55,-23.58"/>
</g>
<!-- Node47&#45;&gt;Node35 -->
<g id="edge138" class="edge">
<title>Node47&#45;&gt;Node35</title>
<path fill="none" stroke="midnightblue" d="M2104.6,-206.73C2094.11,-196.4 2076.48,-179.04 2063.58,-166.33"/>
<polygon fill="midnightblue" stroke="midnightblue" points="2065.84,-163.65 2056.26,-159.13 2060.93,-168.64 2065.84,-163.65"/>
</g>
<!-- Node47&#45;&gt;Node36 -->
<g id="edge140" class="edge">
<title>Node47&#45;&gt;Node36</title>
<path fill="none" stroke="midnightblue" d="M2084.6,-212.1C2032.96,-205.64 1921.72,-189.97 1830.5,-165 1760.83,-145.93 1682.16,-113.75 1641.03,-96.07"/>
<polygon fill="midnightblue" stroke="midnightblue" points="1642.22,-92.77 1631.65,-92.01 1639.44,-99.2 1642.22,-92.77"/>
</g>
<!-- Node47&#45;&gt;Node41 -->
<g id="edge141" class="edge">
<title>Node47&#45;&gt;Node41</title>
<path fill="none" stroke="midnightblue" d="M2084.75,-212.5C1992.44,-202.85 1701.67,-172.46 1564.49,-158.13"/>
<polygon fill="midnightblue" stroke="midnightblue" points="1564.8,-154.64 1554.49,-157.08 1564.07,-161.6 1564.8,-154.64"/>
</g>
<!-- Node48 -->
<g id="node46" class="node">
<title>Node48</title>
<g id="a_node46"><a xlink:title=" ">
<polygon fill="none" stroke="#bfbfbf" points="2638.5,-140 2638.5,-159 2682.5,-159 2682.5,-140 2638.5,-140"/>
<text text-anchor="middle" x="2660.5" y="-147" font-family="Helvetica,sans-Serif" font-size="10.00">limits</text>
</a>
</g>
</g>
<!-- Node47&#45;&gt;Node48 -->
<g id="edge135" class="edge">
<title>Node47&#45;&gt;Node48</title>
<path fill="none" stroke="midnightblue" d="M2142.23,-215.5C2220.71,-214.89 2444.85,-209.1 2624.5,-165 2627.17,-164.34 2629.9,-163.53 2632.61,-162.62"/>
<polygon fill="midnightblue" stroke="midnightblue" points="2634.01,-165.84 2642.15,-159.06 2631.56,-159.28 2634.01,-165.84"/>
</g>
<!-- Node53&#45;&gt;Node5 -->
<g id="edge156" class="edge">
<title>Node53&#45;&gt;Node5</title>
<path fill="none" stroke="midnightblue" d="M1706.82,-213.51C1788.78,-210.68 1944.17,-205.35 2076.5,-201 2580.48,-184.44 2707.65,-202.55 3210.5,-165 3237.3,-163 3267.26,-159.49 3290.89,-156.43"/>
<polygon fill="midnightblue" stroke="midnightblue" points="3291.49,-159.88 3300.94,-155.11 3290.57,-152.94 3291.49,-159.88"/>
</g>
<!-- Node53&#45;&gt;Node6 -->
<g id="edge157" class="edge">
<title>Node53&#45;&gt;Node6</title>
<path fill="none" stroke="midnightblue" d="M1651.73,-201.39C1655.1,-183.9 1662.96,-153.97 1679.5,-134 1703.71,-104.77 1801.2,-53.6 1848.92,-29.61"/>
<polygon fill="midnightblue" stroke="midnightblue" points="1850.66,-32.66 1858.04,-25.06 1847.53,-26.4 1850.66,-32.66"/>
</g>
<!-- Node53&#45;&gt;Node7 -->
<g id="edge158" class="edge">
<title>Node53&#45;&gt;Node7</title>
<path fill="none" stroke="midnightblue" d="M1592.14,-212.47C1392.37,-201.93 726.84,-166.82 496.65,-154.68"/>
<polygon fill="midnightblue" stroke="midnightblue" points="496.52,-151.16 486.35,-154.13 496.15,-158.15 496.52,-151.16"/>
</g>
<!-- Node53&#45;&gt;Node8 -->
<g id="edge159" class="edge">
<title>Node53&#45;&gt;Node8</title>
<path fill="none" stroke="midnightblue" d="M1592.38,-214.24C1463.73,-210.86 1141.63,-199.39 874.5,-165 866.09,-163.92 857.19,-162.47 848.59,-160.91"/>
<polygon fill="midnightblue" stroke="midnightblue" points="849.14,-157.45 838.66,-159.04 847.84,-164.33 849.14,-157.45"/>
</g>
<!-- Node53&#45;&gt;Node9 -->
<g id="edge163" class="edge">
<title>Node53&#45;&gt;Node9</title>
<path fill="none" stroke="midnightblue" d="M1592.44,-207.26C1575.72,-205.03 1557.4,-202.74 1540.5,-201 1322.85,-178.56 1266.83,-190.43 1049.5,-165 1039.14,-163.79 1028.14,-162.24 1017.53,-160.61"/>
<polygon fill="midnightblue" stroke="midnightblue" points="1017.93,-157.12 1007.5,-159.02 1016.83,-164.04 1017.93,-157.12"/>
</g>
<!-- Node53&#45;&gt;Node10 -->
<g id="edge165" class="edge">
<title>Node53&#45;&gt;Node10</title>
<path fill="none" stroke="midnightblue" d="M1706.6,-209.94C1795.41,-201.16 1972,-183.22 2121.5,-165 2133.38,-163.55 2146,-161.91 2158.23,-160.27"/>
<polygon fill="midnightblue" stroke="midnightblue" points="2158.95,-163.71 2168.39,-158.9 2158.01,-156.77 2158.95,-163.71"/>
</g>
<!-- Node53&#45;&gt;Node15 -->
<g id="edge162" class="edge">
<title>Node53&#45;&gt;Node15</title>
<path fill="none" stroke="midnightblue" d="M1592.43,-207.32C1575.72,-205.08 1557.4,-202.79 1540.5,-201 1489.74,-195.63 1117.15,-202.48 1082.5,-165 1050.65,-130.55 1077.76,-72 1097.12,-39.67"/>
<polygon fill="midnightblue" stroke="midnightblue" points="1100.26,-41.25 1102.56,-30.91 1094.31,-37.56 1100.26,-41.25"/>
</g>
<!-- Node53&#45;&gt;Node16 -->
<g id="edge169" class="edge">
<title>Node53&#45;&gt;Node16</title>
<path fill="none" stroke="midnightblue" d="M1706.51,-213.53C1970.25,-204.41 3059.51,-166.66 3063.5,-165 3082.07,-157.26 3079.64,-144.99 3096.5,-134 3160.4,-92.35 3180.96,-87.25 3254.5,-67 3357.38,-38.67 3481.01,-25.86 3555.58,-20.35"/>
<polygon fill="midnightblue" stroke="midnightblue" points="3556.05,-23.83 3565.77,-19.62 3555.55,-16.84 3556.05,-23.83"/>
</g>
<!-- Node53&#45;&gt;Node24 -->
<g id="edge167" class="edge">
<title>Node53&#45;&gt;Node24</title>
<path fill="none" stroke="midnightblue" d="M1657.15,-201.3C1668.28,-182.23 1690.88,-149.02 1720.5,-134 1808.26,-89.5 2092.69,-83.21 2234.52,-82.94"/>
<polygon fill="midnightblue" stroke="midnightblue" points="2234.9,-86.44 2244.9,-82.93 2234.9,-79.44 2234.9,-86.44"/>
</g>
<!-- Node53&#45;&gt;Node25 -->
<g id="edge168" class="edge">
<title>Node53&#45;&gt;Node25</title>
<path fill="none" stroke="midnightblue" d="M1706.74,-213.56C1974.15,-204.5 3087.81,-166.67 3096.5,-165 3136.4,-157.31 3144.23,-147.65 3182.5,-134 3219.77,-120.7 3262.56,-105.61 3291.55,-95.42"/>
<polygon fill="midnightblue" stroke="midnightblue" points="3292.92,-98.65 3301.19,-92.03 3290.6,-92.04 3292.92,-98.65"/>
</g>
<!-- Node53&#45;&gt;Node26 -->
<g id="edge170" class="edge">
<title>Node53&#45;&gt;Node26</title>
<path fill="none" stroke="midnightblue" d="M1706.82,-213.54C1788.78,-210.75 1944.17,-205.46 2076.5,-201 2555.16,-184.87 2678.39,-225.39 3153.5,-165 3216.29,-157.02 3229.95,-143.67 3292.5,-134 3460.54,-108.01 3658.38,-94.31 3773.02,-88.01"/>
<polygon fill="midnightblue" stroke="midnightblue" points="3773.37,-91.49 3783.17,-87.46 3772.99,-84.5 3773.37,-91.49"/>
</g>
<!-- Node53&#45;&gt;Node27 -->
<g id="edge171" class="edge">
<title>Node53&#45;&gt;Node27</title>
<path fill="none" stroke="midnightblue" d="M1706.56,-213.42C1904.27,-206.08 2550.14,-180.99 2591.5,-165 2611.83,-157.14 2610.06,-143.85 2629.5,-134 2654.45,-121.36 2724.37,-104.8 2773.31,-94.15"/>
<polygon fill="midnightblue" stroke="midnightblue" points="2774.07,-97.57 2783.1,-92.04 2772.59,-90.72 2774.07,-97.57"/>
</g>
<!-- Node53&#45;&gt;Node35 -->
<g id="edge164" class="edge">
<title>Node53&#45;&gt;Node35</title>
<path fill="none" stroke="midnightblue" d="M1706.68,-207.27C1771.5,-197.79 1880.29,-181.39 1973.5,-165 1980.59,-163.75 1988.05,-162.37 1995.39,-160.97"/>
<polygon fill="midnightblue" stroke="midnightblue" points="1996.13,-164.4 2005.29,-159.07 1994.81,-157.52 1996.13,-164.4"/>
</g>
<!-- Node53&#45;&gt;Node36 -->
<g id="edge166" class="edge">
<title>Node53&#45;&gt;Node36</title>
<path fill="none" stroke="midnightblue" d="M1632.7,-201.47C1623.02,-192.24 1611.75,-179.26 1606.5,-165 1598.94,-144.47 1602.67,-119.1 1606.82,-102.17"/>
<polygon fill="midnightblue" stroke="midnightblue" points="1610.23,-102.97 1609.5,-92.4 1603.48,-101.12 1610.23,-102.97"/>
</g>
<!-- Node54 -->
<g id="node48" class="node">
<title>Node54</title>
<g id="a_node48"><a xlink:title=" ">
<polygon fill="none" stroke="#bfbfbf" points="1092,-134.5 1092,-164.5 1223,-164.5 1223,-134.5 1092,-134.5"/>
<text text-anchor="start" x="1100" y="-152.5" font-family="Helvetica,sans-Serif" font-size="10.00">seerep&#45;msgs/transform</text>
<text text-anchor="middle" x="1157.5" y="-141.5" font-family="Helvetica,sans-Serif" font-size="10.00">_stamped.pb.h</text>
</a>
</g>
</g>
<!-- Node53&#45;&gt;Node54 -->
<g id="edge160" class="edge">
<title>Node53&#45;&gt;Node54</title>
<path fill="none" stroke="midnightblue" d="M1592.39,-207.72C1575.67,-205.5 1557.36,-203.1 1540.5,-201 1406.52,-184.28 1369.82,-186.21 1233.23,-165.2"/>
<polygon fill="midnightblue" stroke="midnightblue" points="1233.64,-161.73 1223.22,-163.65 1232.57,-168.64 1233.64,-161.73"/>
</g>
<!-- Node55 -->
<g id="node49" class="node">
<title>Node55</title>
<g id="a_node49"><a xlink:title=" ">
<polygon fill="none" stroke="#bfbfbf" points="1241,-134.5 1241,-164.5 1372,-164.5 1372,-134.5 1241,-134.5"/>
<text text-anchor="start" x="1249" y="-152.5" font-family="Helvetica,sans-Serif" font-size="10.00">seerep&#45;msgs/transform</text>
<text text-anchor="middle" x="1306.5" y="-141.5" font-family="Helvetica,sans-Serif" font-size="10.00">_stamped_query.pb.h</text>
</a>
</g>
</g>
<!-- Node53&#45;&gt;Node55 -->
<g id="edge161" class="edge">
<title>Node53&#45;&gt;Node55</title>
<path fill="none" stroke="midnightblue" d="M1592.48,-204.69C1534.88,-193.78 1445.6,-176.86 1382.12,-164.83"/>
<polygon fill="midnightblue" stroke="midnightblue" points="1382.64,-161.37 1372.17,-162.94 1381.34,-168.24 1382.64,-161.37"/>
</g>
</g>
</svg>
