<?xml version="1.0" encoding="UTF-8" standalone="no"?>
<!DOCTYPE svg PUBLIC "-//W3C//DTD SVG 1.1//EN"
 "http://www.w3.org/Graphics/SVG/1.1/DTD/svg11.dtd">
<!-- Generated by graphviz version 2.43.0 (0)
 -->
<!-- Title: seerep&#45;srv/seerep&#45;server/include/seerep&#45;server/pb&#45;point&#45;cloud&#45;service.h Pages: 1 -->
<svg width="5295pt" height="586pt"
 viewBox="0.00 0.00 5295.00 586.00" xmlns="http://www.w3.org/2000/svg" xmlns:xlink="http://www.w3.org/1999/xlink">
<g id="graph0" class="graph" transform="scale(1 1) rotate(0) translate(4 582)">
<title>seerep&#45;srv/seerep&#45;server/include/seerep&#45;server/pb&#45;point&#45;cloud&#45;service.h</title>
<!-- Node1 -->
<g id="node1" class="node">
<title>Node1</title>
<g id="a_node1"><a xlink:title=" ">
<polygon fill="#bfbfbf" stroke="black" points="869.5,-536.5 869.5,-577.5 1008.5,-577.5 1008.5,-536.5 869.5,-536.5"/>
<text text-anchor="start" x="877.5" y="-565.5" font-family="Helvetica,sans-Serif" font-size="10.00">seerep&#45;srv/seerep&#45;server</text>
<text text-anchor="start" x="877.5" y="-554.5" font-family="Helvetica,sans-Serif" font-size="10.00">/include/seerep&#45;server</text>
<text text-anchor="middle" x="939" y="-543.5" font-family="Helvetica,sans-Serif" font-size="10.00">/pb&#45;point&#45;cloud&#45;service.h</text>
</a>
</g>
</g>
<!-- Node2 -->
<g id="node2" class="node">
<title>Node2</title>
<g id="a_node2"><a xlink:title=" ">
<polygon fill="none" stroke="#bfbfbf" points="0,-469.5 0,-499.5 132,-499.5 132,-469.5 0,-469.5"/>
<text text-anchor="start" x="8" y="-487.5" font-family="Helvetica,sans-Serif" font-size="10.00">seerep&#45;com/point&#45;cloud</text>
<text text-anchor="middle" x="66" y="-476.5" font-family="Helvetica,sans-Serif" font-size="10.00">&#45;service.grpc.pb.h</text>
</a>
</g>
</g>
<!-- Node1&#45;&gt;Node2 -->
<g id="edge1" class="edge">
<title>Node1&#45;&gt;Node2</title>
<path fill="none" stroke="midnightblue" d="M869.27,-553.63C730.91,-548.35 412.01,-533.4 146,-500 144.74,-499.84 143.47,-499.68 142.19,-499.51"/>
<polygon fill="midnightblue" stroke="midnightblue" points="142.66,-496.04 132.27,-498.08 141.67,-502.97 142.66,-496.04"/>
</g>
<!-- Node3 -->
<g id="node3" class="node">
<title>Node3</title>
<g id="a_node3"><a xlink:href="core-pb-pointcloud_8h.html" target="_top" xlink:title=" ">
<polygon fill="none" stroke="black" points="1566,-469.5 1566,-499.5 1680,-499.5 1680,-469.5 1566,-469.5"/>
<text text-anchor="start" x="1574" y="-487.5" font-family="Helvetica,sans-Serif" font-size="10.00">seerep&#45;core&#45;pb/core</text>
<text text-anchor="middle" x="1623" y="-476.5" font-family="Helvetica,sans-Serif" font-size="10.00">&#45;pb&#45;pointcloud.h</text>
</a>
</g>
</g>
<!-- Node1&#45;&gt;Node3 -->
<g id="edge2" class="edge">
<title>Node1&#45;&gt;Node3</title>
<path fill="none" stroke="midnightblue" d="M1008.67,-548.82C1140.61,-535.22 1425.37,-505.87 1555.56,-492.45"/>
<polygon fill="midnightblue" stroke="midnightblue" points="1556.21,-495.9 1565.79,-491.4 1555.49,-488.94 1556.21,-495.9"/>
</g>
<!-- Node23 -->
<g id="node19" class="node">
<title>Node23</title>
<g id="a_node19"><a xlink:title=" ">
<polygon fill="none" stroke="#bfbfbf" points="280.5,-0.5 280.5,-30.5 425.5,-30.5 425.5,-0.5 280.5,-0.5"/>
<text text-anchor="start" x="288.5" y="-18.5" font-family="Helvetica,sans-Serif" font-size="10.00">boost/log/sources/severity</text>
<text text-anchor="middle" x="353" y="-7.5" font-family="Helvetica,sans-Serif" font-size="10.00">_logger.hpp</text>
</a>
</g>
</g>
<!-- Node1&#45;&gt;Node23 -->
<g id="edge184" class="edge">
<title>Node1&#45;&gt;Node23</title>
<path fill="none" stroke="midnightblue" d="M869.35,-555.17C719.23,-552.6 369.89,-542.13 260,-500 207.88,-480.02 160,-479.82 160,-424 160,-424 160,-424 160,-159.5 160,-93.07 234.72,-53.95 291.17,-33.87"/>
<polygon fill="midnightblue" stroke="midnightblue" points="292.45,-37.13 300.77,-30.57 290.18,-30.51 292.45,-37.13"/>
</g>
<!-- Node24 -->
<g id="node20" class="node">
<title>Node24</title>
<g id="a_node20"><a xlink:title=" ">
<polygon fill="none" stroke="#bfbfbf" points="1508,-6 1508,-25 1622,-25 1622,-6 1508,-6"/>
<text text-anchor="middle" x="1565" y="-13" font-family="Helvetica,sans-Serif" font-size="10.00">boost/log/trivial.hpp</text>
</a>
</g>
</g>
<!-- Node1&#45;&gt;Node24 -->
<g id="edge185" class="edge">
<title>Node1&#45;&gt;Node24</title>
<path fill="none" stroke="midnightblue" d="M869.4,-556.74C698.87,-556.67 274,-544.43 274,-424 274,-424 274,-424 274,-159.5 274,-117.53 261.01,-94.16 293,-67 339.22,-27.76 1240.98,-18.69 1497.47,-16.89"/>
<polygon fill="midnightblue" stroke="midnightblue" points="1497.79,-20.39 1507.76,-16.82 1497.74,-13.39 1497.79,-20.39"/>
</g>
<!-- Node42 -->
<g id="node33" class="node">
<title>Node42</title>
<g id="a_node33"><a xlink:href="core_8h.html" target="_top" xlink:title=" ">
<polygon fill="none" stroke="black" points="2526.5,-413.5 2526.5,-432.5 2633.5,-432.5 2633.5,-413.5 2526.5,-413.5"/>
<text text-anchor="middle" x="2580" y="-420.5" font-family="Helvetica,sans-Serif" font-size="10.00">seerep&#45;core/core.h</text>
</a>
</g>
</g>
<!-- Node1&#45;&gt;Node42 -->
<g id="edge182" class="edge">
<title>Node1&#45;&gt;Node42</title>
<path fill="none" stroke="midnightblue" d="M1008.64,-555.99C1170.23,-555.14 1566.19,-548.07 1689,-500 1709.62,-491.93 1707.29,-476.85 1728,-469 1800.94,-441.36 2330.68,-428.74 2516.11,-425.13"/>
<polygon fill="midnightblue" stroke="midnightblue" points="2516.32,-428.63 2526.25,-424.94 2516.19,-421.63 2516.32,-428.63"/>
</g>
<!-- Node68 -->
<g id="node50" class="node">
<title>Node68</title>
<g id="a_node50"><a xlink:title=" ">
<polygon fill="none" stroke="#bfbfbf" points="1736.5,-475 1736.5,-494 1789.5,-494 1789.5,-475 1736.5,-475"/>
<text text-anchor="middle" x="1763" y="-482" font-family="Helvetica,sans-Serif" font-size="10.00">util.hpp</text>
</a>
</g>
</g>
<!-- Node1&#45;&gt;Node68 -->
<g id="edge183" class="edge">
<title>Node1&#45;&gt;Node68</title>
<path fill="none" stroke="midnightblue" d="M1008.68,-553.41C1174.09,-546.89 1586.67,-528.23 1722,-500 1725.43,-499.28 1728.96,-498.35 1732.45,-497.3"/>
<polygon fill="midnightblue" stroke="midnightblue" points="1733.64,-500.6 1742.03,-494.13 1731.44,-493.95 1733.64,-500.6"/>
</g>
<!-- Node4 -->
<g id="node4" class="node">
<title>Node4</title>
<g id="a_node4"><a xlink:title=" ">
<polygon fill="none" stroke="#bfbfbf" points="3788.5,-151 3788.5,-170 3853.5,-170 3853.5,-151 3788.5,-151"/>
<text text-anchor="middle" x="3821" y="-158" font-family="Helvetica,sans-Serif" font-size="10.00">functional</text>
</a>
</g>
</g>
<!-- Node3&#45;&gt;Node4 -->
<g id="edge3" class="edge">
<title>Node3&#45;&gt;Node4</title>
<path fill="none" stroke="midnightblue" d="M1680.09,-474.46C1695.6,-472.32 1712.41,-470.29 1728,-469 1909.34,-453.98 4875.15,-507.46 5002,-377 5181.17,-192.72 4112.64,-237.17 3863,-176 3859.78,-175.21 3856.45,-174.28 3853.15,-173.27"/>
<polygon fill="midnightblue" stroke="midnightblue" points="3854.03,-169.88 3843.44,-170.1 3851.86,-176.53 3854.03,-169.88"/>
</g>
<!-- Node5 -->
<g id="node5" class="node">
<title>Node5</title>
<g id="a_node5"><a xlink:title=" ">
<polygon fill="none" stroke="#bfbfbf" points="2372,-6 2372,-25 2428,-25 2428,-6 2372,-6"/>
<text text-anchor="middle" x="2400" y="-13" font-family="Helvetica,sans-Serif" font-size="10.00">optional</text>
</a>
</g>
</g>
<!-- Node3&#45;&gt;Node5 -->
<g id="edge4" class="edge">
<title>Node3&#45;&gt;Node5</title>
<path fill="none" stroke="midnightblue" d="M1565.62,-478.98C1450.86,-468.37 1204,-436.89 1204,-362.5 1204,-362.5 1204,-362.5 1204,-226.5 1204,-89.49 1364.28,-165.72 1489,-109 1520.99,-94.45 1522.53,-77.72 1556,-67 1709.09,-17.98 2218,-15.88 2361.84,-16.29"/>
<polygon fill="midnightblue" stroke="midnightblue" points="2361.92,-19.79 2371.94,-16.32 2361.95,-12.79 2361.92,-19.79"/>
</g>
<!-- Node6 -->
<g id="node6" class="node">
<title>Node6</title>
<g id="a_node6"><a xlink:title=" ">
<polygon fill="none" stroke="#bfbfbf" points="302.5,-73 302.5,-103 441.5,-103 441.5,-73 302.5,-73"/>
<text text-anchor="start" x="310.5" y="-91" font-family="Helvetica,sans-Serif" font-size="10.00">seerep&#45;msgs/point_cloud</text>
<text text-anchor="middle" x="372" y="-80" font-family="Helvetica,sans-Serif" font-size="10.00">_2.pb.h</text>
</a>
</g>
</g>
<!-- Node3&#45;&gt;Node6 -->
<g id="edge5" class="edge">
<title>Node3&#45;&gt;Node6</title>
<path fill="none" stroke="midnightblue" d="M1565.95,-481.18C1316.49,-470.67 334,-425.29 334,-362.5 334,-362.5 334,-362.5 334,-226.5 334,-185.21 350.11,-139.39 361.35,-112.45"/>
<polygon fill="midnightblue" stroke="midnightblue" points="364.64,-113.66 365.38,-103.1 358.21,-110.9 364.64,-113.66"/>
</g>
<!-- Node7 -->
<g id="node7" class="node">
<title>Node7</title>
<g id="a_node7"><a xlink:title=" ">
<polygon fill="none" stroke="#bfbfbf" points="1498.5,-151 1498.5,-170 1631.5,-170 1631.5,-151 1498.5,-151"/>
<text text-anchor="middle" x="1565" y="-158" font-family="Helvetica,sans-Serif" font-size="10.00">seerep&#45;msgs/query.pb.h</text>
</a>
</g>
</g>
<!-- Node3&#45;&gt;Node7 -->
<g id="edge6" class="edge">
<title>Node3&#45;&gt;Node7</title>
<path fill="none" stroke="midnightblue" d="M1611.13,-469.48C1603.71,-459.86 1594.69,-446.45 1590,-433 1558.48,-342.54 1561.17,-225.42 1563.68,-180.34"/>
<polygon fill="midnightblue" stroke="midnightblue" points="1567.18,-180.46 1564.31,-170.26 1560.19,-180.03 1567.18,-180.46"/>
</g>
<!-- Node8 -->
<g id="node8" class="node">
<title>Node8</title>
<g id="a_node8"><a xlink:title=" ">
<polygon fill="none" stroke="#bfbfbf" points="1764.5,-151 1764.5,-170 1915.5,-170 1915.5,-151 1764.5,-151"/>
<text text-anchor="middle" x="1840" y="-158" font-family="Helvetica,sans-Serif" font-size="10.00">seerep&#45;msgs/query&#45;result.h</text>
</a>
</g>
</g>
<!-- Node3&#45;&gt;Node8 -->
<g id="edge7" class="edge">
<title>Node3&#45;&gt;Node8</title>
<path fill="none" stroke="midnightblue" d="M1632.6,-469.25C1667.88,-416.9 1790.25,-235.32 1828.49,-178.58"/>
<polygon fill="midnightblue" stroke="midnightblue" points="1831.56,-180.28 1834.25,-170.03 1825.76,-176.37 1831.56,-180.28"/>
</g>
<!-- Node9 -->
<g id="node9" class="node">
<title>Node9</title>
<g id="a_node9"><a xlink:title=" ">
<polygon fill="none" stroke="#bfbfbf" points="2693,-151 2693,-170 2811,-170 2811,-151 2693,-151"/>
<text text-anchor="middle" x="2752" y="-158" font-family="Helvetica,sans-Serif" font-size="10.00">seerep&#45;msgs/query.h</text>
</a>
</g>
</g>
<!-- Node3&#45;&gt;Node9 -->
<g id="edge8" class="edge">
<title>Node3&#45;&gt;Node9</title>
<path fill="none" stroke="midnightblue" d="M1680.06,-469.95C1823.03,-435.64 2207.76,-341.04 2523,-243 2594.22,-220.85 2676.24,-190.44 2720.21,-173.73"/>
<polygon fill="midnightblue" stroke="midnightblue" points="2721.68,-176.92 2729.77,-170.09 2719.18,-170.38 2721.68,-176.92"/>
</g>
<!-- Node10 -->
<g id="node10" class="node">
<title>Node10</title>
<g id="a_node10"><a xlink:href="hdf5-pb-pointcloud_8h.html" target="_top" xlink:title=" ">
<polygon fill="none" stroke="black" points="1346,-212.5 1346,-242.5 1462,-242.5 1462,-212.5 1346,-212.5"/>
<text text-anchor="start" x="1354" y="-230.5" font-family="Helvetica,sans-Serif" font-size="10.00">seerep&#45;hdf5&#45;pb/hdf5</text>
<text text-anchor="middle" x="1404" y="-219.5" font-family="Helvetica,sans-Serif" font-size="10.00">&#45;pb&#45;pointcloud.h</text>
</a>
</g>
</g>
<!-- Node3&#45;&gt;Node10 -->
<g id="edge9" class="edge">
<title>Node3&#45;&gt;Node10</title>
<path fill="none" stroke="midnightblue" d="M1565.72,-476.03C1535.55,-469.36 1499.94,-456.76 1476,-433 1425.48,-382.86 1410.31,-295.21 1405.83,-252.83"/>
<polygon fill="midnightblue" stroke="midnightblue" points="1409.29,-252.23 1404.87,-242.61 1402.32,-252.89 1409.29,-252.23"/>
</g>
<!-- Node15 -->
<g id="node15" class="node">
<title>Node15</title>
<g id="a_node15"><a xlink:title=" ">
<polygon fill="none" stroke="#bfbfbf" points="4729.5,-6 4729.5,-25 4842.5,-25 4842.5,-6 4729.5,-6"/>
<text text-anchor="middle" x="4786" y="-13" font-family="Helvetica,sans-Serif" font-size="10.00">boost/uuid/uuid.hpp</text>
</a>
</g>
</g>
<!-- Node3&#45;&gt;Node15 -->
<g id="edge179" class="edge">
<title>Node3&#45;&gt;Node15</title>
<path fill="none" stroke="midnightblue" d="M1680.08,-474.28C1695.59,-472.14 1712.4,-470.16 1728,-469 2095.23,-441.76 4677.65,-486.4 5042,-433 5154.11,-416.57 5287,-475.81 5287,-362.5 5287,-362.5 5287,-362.5 5287,-226.5 5287,-130.43 4969.69,-54.27 4840.12,-27.17"/>
<polygon fill="midnightblue" stroke="midnightblue" points="4840.52,-23.68 4830.02,-25.08 4839.1,-30.54 4840.52,-23.68"/>
</g>
<!-- Node25 -->
<g id="node21" class="node">
<title>Node25</title>
<g id="a_node21"><a xlink:title=" ">
<polygon fill="none" stroke="#bfbfbf" points="3968.5,-6 3968.5,-25 4111.5,-25 4111.5,-6 3968.5,-6"/>
<text text-anchor="middle" x="4040" y="-13" font-family="Helvetica,sans-Serif" font-size="10.00">boost/functional/hash.hpp</text>
</a>
</g>
</g>
<!-- Node3&#45;&gt;Node25 -->
<g id="edge177" class="edge">
<title>Node3&#45;&gt;Node25</title>
<path fill="none" stroke="midnightblue" d="M1680.08,-474.29C1695.59,-472.15 1712.4,-470.16 1728,-469 2406.38,-418.37 4113.82,-516.04 4789,-433 4896,-419.84 4958.15,-461.57 5025,-377 5269.03,-68.29 4399.21,-23.89 4122.12,-17.54"/>
<polygon fill="midnightblue" stroke="midnightblue" points="4121.81,-14.04 4111.73,-17.32 4121.65,-21.04 4121.81,-14.04"/>
</g>
<!-- Node26 -->
<g id="node22" class="node">
<title>Node26</title>
<g id="a_node22"><a xlink:title=" ">
<polygon fill="none" stroke="#bfbfbf" points="2997.5,-6 2997.5,-25 3122.5,-25 3122.5,-6 2997.5,-6"/>
<text text-anchor="middle" x="3060" y="-13" font-family="Helvetica,sans-Serif" font-size="10.00">boost/lexical_cast.hpp</text>
</a>
</g>
</g>
<!-- Node3&#45;&gt;Node26 -->
<g id="edge178" class="edge">
<title>Node3&#45;&gt;Node26</title>
<path fill="none" stroke="midnightblue" d="M1623.74,-469.32C1627.3,-416.53 1647.41,-230.1 1756,-145 1951.69,8.36 2621.01,-48.84 2869,-31 2907.94,-28.2 2951.34,-24.92 2986.92,-22.19"/>
<polygon fill="midnightblue" stroke="midnightblue" points="2987.51,-25.65 2997.21,-21.39 2986.97,-18.67 2987.51,-25.65"/>
</g>
<!-- Node27 -->
<g id="node23" class="node">
<title>Node27</title>
<g id="a_node23"><a xlink:title=" ">
<polygon fill="none" stroke="#bfbfbf" points="2690,-6 2690,-25 2860,-25 2860,-6 2690,-6"/>
<text text-anchor="middle" x="2775" y="-13" font-family="Helvetica,sans-Serif" font-size="10.00">boost/uuid/uuid_generators.hpp</text>
</a>
</g>
</g>
<!-- Node3&#45;&gt;Node27 -->
<g id="edge180" class="edge">
<title>Node3&#45;&gt;Node27</title>
<path fill="none" stroke="midnightblue" d="M1587.36,-469.35C1547.96,-451.09 1490,-415.26 1490,-362.5 1490,-362.5 1490,-362.5 1490,-293.5 1490,-227.5 1447.45,-196.28 1489,-145 1495.58,-136.88 1846.64,-68.37 1857,-67 1936.83,-56.41 2461.22,-31.14 2679.7,-20.91"/>
<polygon fill="midnightblue" stroke="midnightblue" points="2680.05,-24.4 2689.87,-20.43 2679.72,-17.4 2680.05,-24.4"/>
</g>
<!-- Node28 -->
<g id="node24" class="node">
<title>Node28</title>
<g id="a_node24"><a xlink:title=" ">
<polygon fill="none" stroke="#bfbfbf" points="4577.5,-6 4577.5,-25 4704.5,-25 4704.5,-6 4577.5,-6"/>
<text text-anchor="middle" x="4641" y="-13" font-family="Helvetica,sans-Serif" font-size="10.00">boost/uuid/uuid_io.hpp</text>
</a>
</g>
</g>
<!-- Node3&#45;&gt;Node28 -->
<g id="edge181" class="edge">
<title>Node3&#45;&gt;Node28</title>
<path fill="none" stroke="midnightblue" d="M1680.08,-474.29C1695.59,-472.15 1712.4,-470.16 1728,-469 2079.61,-442.83 4551.51,-479.57 4901,-433 5024.79,-416.5 5173,-487.38 5173,-362.5 5173,-362.5 5173,-362.5 5173,-159.5 5173,-134.68 4823.17,-56.08 4690.87,-27.24"/>
<polygon fill="midnightblue" stroke="midnightblue" points="4691.5,-23.8 4680.99,-25.09 4690.01,-30.64 4691.5,-23.8"/>
</g>
<!-- Node3&#45;&gt;Node42 -->
<g id="edge56" class="edge">
<title>Node3&#45;&gt;Node42</title>
<path fill="none" stroke="midnightblue" d="M1680.23,-471.04C1684.87,-470.27 1689.51,-469.57 1694,-469 1853.27,-448.81 2340.69,-431.66 2516.19,-425.99"/>
<polygon fill="midnightblue" stroke="midnightblue" points="2516.42,-429.48 2526.3,-425.66 2516.2,-422.49 2516.42,-429.48"/>
</g>
<!-- Node64 -->
<g id="node46" class="node">
<title>Node64</title>
<g id="a_node46"><a xlink:href="core-pb-conversion_8h.html" target="_top" xlink:title=" ">
<polygon fill="none" stroke="black" points="2400,-212.5 2400,-242.5 2514,-242.5 2514,-212.5 2400,-212.5"/>
<text text-anchor="start" x="2408" y="-230.5" font-family="Helvetica,sans-Serif" font-size="10.00">seerep&#45;core&#45;pb/core</text>
<text text-anchor="middle" x="2457" y="-219.5" font-family="Helvetica,sans-Serif" font-size="10.00">&#45;pb&#45;conversion.h</text>
</a>
</g>
</g>
<!-- Node3&#45;&gt;Node64 -->
<g id="edge159" class="edge">
<title>Node3&#45;&gt;Node64</title>
<path fill="none" stroke="midnightblue" d="M1658.21,-469.37C1748.6,-433.52 1996.69,-337.68 2210,-279 2270.01,-262.49 2339.57,-248.74 2389.55,-239.78"/>
<polygon fill="midnightblue" stroke="midnightblue" points="2390.35,-243.19 2399.59,-237.99 2389.13,-236.3 2390.35,-243.19"/>
</g>
<!-- Node10&#45;&gt;Node5 -->
<g id="edge55" class="edge">
<title>Node10&#45;&gt;Node5</title>
<path fill="none" stroke="midnightblue" d="M1392.75,-212.27C1380.28,-194.67 1363.92,-164.62 1380,-145 1431.72,-81.91 1481.2,-130.13 1560,-109 1616.2,-93.93 1626.96,-78.47 1684,-67 1938.79,-15.75 2253.64,-14.49 2361.59,-15.78"/>
<polygon fill="midnightblue" stroke="midnightblue" points="2361.63,-19.28 2371.68,-15.92 2361.73,-12.28 2361.63,-19.28"/>
</g>
<!-- Node10&#45;&gt;Node6 -->
<g id="edge53" class="edge">
<title>Node10&#45;&gt;Node6</title>
<path fill="none" stroke="midnightblue" d="M1345.97,-213.98C1341.26,-213.22 1336.56,-212.54 1332,-212 1280.05,-205.82 431.11,-209.58 391,-176 373.01,-160.94 369.67,-133.17 369.94,-113.05"/>
<polygon fill="midnightblue" stroke="midnightblue" points="373.43,-113.2 370.36,-103.06 366.44,-112.9 373.43,-113.2"/>
</g>
<!-- Node11 -->
<g id="node11" class="node">
<title>Node11</title>
<g id="a_node11"><a xlink:title=" ">
<polygon fill="none" stroke="#bfbfbf" points="3468,-6 3468,-25 3578,-25 3578,-6 3468,-6"/>
<text text-anchor="middle" x="3523" y="-13" font-family="Helvetica,sans-Serif" font-size="10.00">highfive/H5File.hpp</text>
</a>
</g>
</g>
<!-- Node10&#45;&gt;Node11 -->
<g id="edge10" class="edge">
<title>Node10&#45;&gt;Node11</title>
<path fill="none" stroke="midnightblue" d="M1462.26,-224.02C1559.02,-219.2 1758.7,-206.26 1925,-176 1977.08,-166.52 1988.61,-157.71 2040,-145 2193.02,-107.14 2229.67,-87.28 2386,-67 2822.63,-10.34 2936.71,-60.62 3376,-31 3402.76,-29.2 3432.19,-26.44 3457.64,-23.82"/>
<polygon fill="midnightblue" stroke="midnightblue" points="3458.34,-27.27 3467.92,-22.75 3457.61,-20.31 3458.34,-27.27"/>
</g>
<!-- Node12 -->
<g id="node12" class="node">
<title>Node12</title>
<g id="a_node12"><a xlink:href="hdf5-core-point-cloud_8h.html" target="_top" xlink:title=" ">
<polygon fill="none" stroke="black" points="3606.5,-145.5 3606.5,-175.5 3731.5,-175.5 3731.5,-145.5 3606.5,-145.5"/>
<text text-anchor="start" x="3614.5" y="-163.5" font-family="Helvetica,sans-Serif" font-size="10.00">seerep&#45;hdf5&#45;core/hdf5</text>
<text text-anchor="middle" x="3669" y="-152.5" font-family="Helvetica,sans-Serif" font-size="10.00">&#45;core&#45;point&#45;cloud.h</text>
</a>
</g>
</g>
<!-- Node10&#45;&gt;Node12 -->
<g id="edge11" class="edge">
<title>Node10&#45;&gt;Node12</title>
<path fill="none" stroke="midnightblue" d="M1462.15,-225.78C1783.56,-221.73 3337.34,-201.07 3596.36,-175.97"/>
<polygon fill="midnightblue" stroke="midnightblue" points="3596.79,-179.44 3606.38,-174.92 3596.07,-172.48 3596.79,-179.44"/>
</g>
<!-- Node20 -->
<g id="node18" class="node">
<title>Node20</title>
<g id="a_node18"><a xlink:title=" ">
<polygon fill="none" stroke="#bfbfbf" points="3253.5,-6 3253.5,-25 3366.5,-25 3366.5,-6 3253.5,-6"/>
<text text-anchor="middle" x="3310" y="-13" font-family="Helvetica,sans-Serif" font-size="10.00">boost/geometry.hpp</text>
</a>
</g>
</g>
<!-- Node10&#45;&gt;Node20 -->
<g id="edge54" class="edge">
<title>Node10&#45;&gt;Node20</title>
<path fill="none" stroke="midnightblue" d="M1413.89,-212.32C1428.07,-193.29 1456.12,-160.11 1489,-145 1563.86,-110.59 1776.05,-117.51 1858,-109 2027.45,-91.4 2069.12,-79.77 2239,-67 2635.09,-37.22 2735.52,-55.13 3132,-31 3168.74,-28.76 3209.69,-25.48 3243.03,-22.61"/>
<polygon fill="midnightblue" stroke="midnightblue" points="3243.47,-26.08 3253.13,-21.73 3242.86,-19.11 3243.47,-26.08"/>
</g>
<!-- Node30 -->
<g id="node25" class="node">
<title>Node30</title>
<g id="a_node25"><a xlink:href="hdf5-pb-general_8h.html" target="_top" xlink:title=" ">
<polygon fill="none" stroke="black" points="1060,-145.5 1060,-175.5 1176,-175.5 1176,-145.5 1060,-145.5"/>
<text text-anchor="start" x="1068" y="-163.5" font-family="Helvetica,sans-Serif" font-size="10.00">seerep&#45;hdf5&#45;pb/hdf5</text>
<text text-anchor="middle" x="1118" y="-152.5" font-family="Helvetica,sans-Serif" font-size="10.00">&#45;pb&#45;general.h</text>
</a>
</g>
</g>
<!-- Node10&#45;&gt;Node30 -->
<g id="edge38" class="edge">
<title>Node10&#45;&gt;Node30</title>
<path fill="none" stroke="midnightblue" d="M1345.78,-213.27C1299.48,-202.75 1234.63,-188.01 1185.96,-176.94"/>
<polygon fill="midnightblue" stroke="midnightblue" points="1186.67,-173.52 1176.14,-174.71 1185.12,-180.34 1186.67,-173.52"/>
</g>
<!-- Node37 -->
<g id="node32" class="node">
<title>Node37</title>
<g id="a_node32"><a xlink:href="hdf5-pb-point-cloud2-iterator_8h.html" target="_top" xlink:title=" ">
<polygon fill="none" stroke="red" points="400.5,-145.5 400.5,-175.5 545.5,-175.5 545.5,-145.5 400.5,-145.5"/>
<text text-anchor="start" x="408.5" y="-163.5" font-family="Helvetica,sans-Serif" font-size="10.00">seerep&#45;hdf5&#45;pb/hdf5</text>
<text text-anchor="middle" x="473" y="-152.5" font-family="Helvetica,sans-Serif" font-size="10.00">&#45;pb&#45;point&#45;cloud2&#45;iterator.h</text>
</a>
</g>
</g>
<!-- Node10&#45;&gt;Node37 -->
<g id="edge51" class="edge">
<title>Node10&#45;&gt;Node37</title>
<path fill="none" stroke="midnightblue" d="M1345.96,-214.02C1341.25,-213.25 1336.56,-212.56 1332,-212 991.1,-169.97 901.56,-212.3 560,-176 558.52,-175.84 557.04,-175.68 555.54,-175.5"/>
<polygon fill="midnightblue" stroke="midnightblue" points="555.9,-172.02 545.54,-174.25 555.03,-178.97 555.9,-172.02"/>
</g>
<!-- Node12&#45;&gt;Node5 -->
<g id="edge32" class="edge">
<title>Node12&#45;&gt;Node5</title>
<path fill="none" stroke="midnightblue" d="M3606.36,-146.22C3603.54,-145.77 3600.74,-145.36 3598,-145 3345.94,-111.48 3279.2,-141.44 3027,-109 2930.43,-96.58 2908.16,-82.27 2812,-67 2674.97,-45.25 2511.02,-27.65 2438.15,-20.26"/>
<polygon fill="midnightblue" stroke="midnightblue" points="2438.37,-16.77 2428.07,-19.25 2437.67,-23.73 2438.37,-16.77"/>
</g>
<!-- Node12&#45;&gt;Node11 -->
<g id="edge12" class="edge">
<title>Node12&#45;&gt;Node11</title>
<path fill="none" stroke="midnightblue" d="M3654.47,-145.27C3627.04,-118.4 3567.84,-60.42 3539.19,-32.35"/>
<polygon fill="midnightblue" stroke="midnightblue" points="3541.56,-29.78 3531.97,-25.28 3536.66,-34.78 3541.56,-29.78"/>
</g>
<!-- Node13 -->
<g id="node13" class="node">
<title>Node13</title>
<g id="a_node13"><a xlink:href="hdf5-core-datatype-interface_8h.html" target="_top" xlink:title=" ">
<polygon fill="none" stroke="black" points="4277.5,-73 4277.5,-103 4422.5,-103 4422.5,-73 4277.5,-73"/>
<text text-anchor="start" x="4285.5" y="-91" font-family="Helvetica,sans-Serif" font-size="10.00">seerep&#45;hdf5&#45;core/hdf5</text>
<text text-anchor="middle" x="4350" y="-80" font-family="Helvetica,sans-Serif" font-size="10.00">&#45;core&#45;datatype&#45;interface.h</text>
</a>
</g>
</g>
<!-- Node12&#45;&gt;Node13 -->
<g id="edge13" class="edge">
<title>Node12&#45;&gt;Node13</title>
<path fill="none" stroke="midnightblue" d="M3731.75,-150.76C3747.48,-148.71 3764.35,-146.65 3780,-145 3977.32,-124.14 4028,-132.69 4225,-109 4238.7,-107.35 4253.19,-105.31 4267.27,-103.17"/>
<polygon fill="midnightblue" stroke="midnightblue" points="4268.08,-106.58 4277.43,-101.59 4267.01,-99.67 4268.08,-106.58"/>
</g>
<!-- Node14 -->
<g id="node14" class="node">
<title>Node14</title>
<g id="a_node14"><a xlink:title=" ">
<polygon fill="none" stroke="#bfbfbf" points="4967.5,-0.5 4967.5,-30.5 5086.5,-30.5 5086.5,-0.5 4967.5,-0.5"/>
<text text-anchor="start" x="4975.5" y="-18.5" font-family="Helvetica,sans-Serif" font-size="10.00">seerep&#45;msgs/dataset</text>
<text text-anchor="middle" x="5027" y="-7.5" font-family="Helvetica,sans-Serif" font-size="10.00">&#45;indexable.h</text>
</a>
</g>
</g>
<!-- Node12&#45;&gt;Node14 -->
<g id="edge30" class="edge">
<title>Node12&#45;&gt;Node14</title>
<path fill="none" stroke="midnightblue" d="M3731.78,-151.07C3747.52,-149.02 3764.37,-146.88 3780,-145 3926.05,-127.47 3964.36,-135.75 4109,-109 4181.29,-95.63 4196.41,-78.65 4269,-67 4525.32,-25.85 4593.07,-49.72 4852,-31 4886.71,-28.49 4925.26,-25.34 4957.32,-22.61"/>
<polygon fill="midnightblue" stroke="midnightblue" points="4957.82,-26.08 4967.49,-21.74 4957.23,-19.11 4957.82,-26.08"/>
</g>
<!-- Node12&#45;&gt;Node15 -->
<g id="edge35" class="edge">
<title>Node12&#45;&gt;Node15</title>
<path fill="none" stroke="midnightblue" d="M3731.76,-150.7C3797.33,-141.27 3903.12,-125.45 3994,-109 4084.66,-92.59 4105.73,-79.56 4197,-67 4425.18,-35.6 4485.73,-61.8 4714,-31 4721.91,-29.93 4730.25,-28.52 4738.35,-27"/>
<polygon fill="midnightblue" stroke="midnightblue" points="4739.27,-30.38 4748.41,-25.02 4737.93,-23.51 4739.27,-30.38"/>
</g>
<!-- Node16 -->
<g id="node16" class="node">
<title>Node16</title>
<g id="a_node16"><a xlink:href="hdf5-core-general_8h.html" target="_top" xlink:title=" ">
<polygon fill="none" stroke="red" points="3335.5,-73 3335.5,-103 3460.5,-103 3460.5,-73 3335.5,-73"/>
<text text-anchor="start" x="3343.5" y="-91" font-family="Helvetica,sans-Serif" font-size="10.00">seerep&#45;hdf5&#45;core/hdf5</text>
<text text-anchor="middle" x="3398" y="-80" font-family="Helvetica,sans-Serif" font-size="10.00">&#45;core&#45;general.h</text>
</a>
</g>
</g>
<!-- Node12&#45;&gt;Node16 -->
<g id="edge17" class="edge">
<title>Node12&#45;&gt;Node16</title>
<path fill="none" stroke="midnightblue" d="M3615.14,-145.49C3571.04,-134.02 3508.55,-117.76 3461.92,-105.63"/>
<polygon fill="midnightblue" stroke="midnightblue" points="3462.79,-102.24 3452.23,-103.11 3461.02,-109.01 3462.79,-102.24"/>
</g>
<!-- Node12&#45;&gt;Node20 -->
<g id="edge31" class="edge">
<title>Node12&#45;&gt;Node20</title>
<path fill="none" stroke="midnightblue" d="M3641.8,-145.48C3603.93,-126.29 3532.86,-91.41 3470,-67 3430.14,-51.52 3383.37,-37.19 3350.73,-27.77"/>
<polygon fill="midnightblue" stroke="midnightblue" points="3351.66,-24.4 3341.08,-25.02 3349.74,-31.13 3351.66,-24.4"/>
</g>
<!-- Node12&#45;&gt;Node25 -->
<g id="edge33" class="edge">
<title>Node12&#45;&gt;Node25</title>
<path fill="none" stroke="midnightblue" d="M3675.78,-145.2C3686.48,-124.31 3709.38,-85.89 3741,-67 3776.79,-45.62 3882.75,-31.37 3958.35,-23.6"/>
<polygon fill="midnightblue" stroke="midnightblue" points="3958.74,-27.08 3968.34,-22.6 3958.04,-20.12 3958.74,-27.08"/>
</g>
<!-- Node12&#45;&gt;Node26 -->
<g id="edge34" class="edge">
<title>Node12&#45;&gt;Node26</title>
<path fill="none" stroke="midnightblue" d="M3606.32,-146.45C3603.51,-145.95 3600.73,-145.46 3598,-145 3478.18,-124.83 3445.23,-137.03 3327,-109 3238.36,-87.98 3137.82,-48.78 3089.29,-28.84"/>
<polygon fill="midnightblue" stroke="midnightblue" points="3090.6,-25.59 3080.02,-25 3087.92,-32.06 3090.6,-25.59"/>
</g>
<!-- Node12&#45;&gt;Node27 -->
<g id="edge36" class="edge">
<title>Node12&#45;&gt;Node27</title>
<path fill="none" stroke="midnightblue" d="M3606.35,-146.3C3603.53,-145.84 3600.74,-145.4 3598,-145 3417.87,-118.75 3369.89,-136.86 3190,-109 3051.71,-87.58 2890.64,-47.16 2816.38,-27.62"/>
<polygon fill="midnightblue" stroke="midnightblue" points="2817.05,-24.18 2806.49,-25.01 2815.26,-30.95 2817.05,-24.18"/>
</g>
<!-- Node12&#45;&gt;Node28 -->
<g id="edge37" class="edge">
<title>Node12&#45;&gt;Node28</title>
<path fill="none" stroke="midnightblue" d="M3721.52,-145.47C3799.72,-125.09 3951.66,-87.53 4083,-67 4255.47,-40.04 4460.35,-26.06 4567.44,-20.11"/>
<polygon fill="midnightblue" stroke="midnightblue" points="4567.7,-23.61 4577.49,-19.56 4567.32,-16.62 4567.7,-23.61"/>
</g>
<!-- Node13&#45;&gt;Node5 -->
<g id="edge16" class="edge">
<title>Node13&#45;&gt;Node5</title>
<path fill="none" stroke="midnightblue" d="M4277.18,-85.03C4044.55,-78.62 3298.33,-57.28 2681,-31 2594.29,-27.31 2492.6,-21.76 2438.48,-18.71"/>
<polygon fill="midnightblue" stroke="midnightblue" points="2438.49,-15.2 2428.31,-18.13 2438.1,-22.19 2438.49,-15.2"/>
</g>
<!-- Node13&#45;&gt;Node14 -->
<g id="edge14" class="edge">
<title>Node13&#45;&gt;Node14</title>
<path fill="none" stroke="midnightblue" d="M4422.77,-79.42C4553.95,-65.76 4828.36,-37.19 4957.28,-23.76"/>
<polygon fill="midnightblue" stroke="midnightblue" points="4957.84,-27.22 4967.42,-22.7 4957.12,-20.26 4957.84,-27.22"/>
</g>
<!-- Node13&#45;&gt;Node15 -->
<g id="edge15" class="edge">
<title>Node13&#45;&gt;Node15</title>
<path fill="none" stroke="midnightblue" d="M4422.68,-76.82C4496.27,-66.29 4613.27,-48.88 4714,-31 4720.83,-29.79 4728.01,-28.43 4735.09,-27.06"/>
<polygon fill="midnightblue" stroke="midnightblue" points="4736.19,-30.41 4745.32,-25.03 4734.83,-23.54 4736.19,-30.41"/>
</g>
<!-- Node16&#45;&gt;Node5 -->
<g id="edge22" class="edge">
<title>Node16&#45;&gt;Node5</title>
<path fill="none" stroke="midnightblue" d="M3335.21,-77.78C3307.59,-73.99 3274.73,-69.83 3245,-67 3084.96,-51.78 2581.33,-25.69 2438.25,-18.43"/>
<polygon fill="midnightblue" stroke="midnightblue" points="2438.36,-14.93 2428.2,-17.92 2438.01,-21.92 2438.36,-14.93"/>
</g>
<!-- Node16&#45;&gt;Node11 -->
<g id="edge18" class="edge">
<title>Node16&#45;&gt;Node11</title>
<path fill="none" stroke="midnightblue" d="M3423,-72.9C3445.09,-60.44 3477.11,-42.38 3498.92,-30.08"/>
<polygon fill="midnightblue" stroke="midnightblue" points="3500.88,-32.99 3507.87,-25.03 3497.44,-26.9 3500.88,-32.99"/>
</g>
<!-- Node16&#45;&gt;Node14 -->
<g id="edge19" class="edge">
<title>Node16&#45;&gt;Node14</title>
<path fill="none" stroke="midnightblue" d="M3460.76,-85.57C3662.71,-80.77 4313.97,-63.64 4852,-31 4886.6,-28.9 4924.98,-25.81 4956.97,-23.01"/>
<polygon fill="midnightblue" stroke="midnightblue" points="4957.46,-26.49 4967.11,-22.12 4956.84,-19.51 4957.46,-26.49"/>
</g>
<!-- Node16&#45;&gt;Node15 -->
<g id="edge27" class="edge">
<title>Node16&#45;&gt;Node15</title>
<path fill="none" stroke="midnightblue" d="M3460.69,-84.61C3713.98,-74.89 4651.22,-38.61 4714,-31 4722.19,-30.01 4730.84,-28.59 4739.19,-27.03"/>
<polygon fill="midnightblue" stroke="midnightblue" points="4740.04,-30.43 4749.18,-25.07 4738.69,-23.56 4740.04,-30.43"/>
</g>
<!-- Node18 -->
<g id="node17" class="node">
<title>Node18</title>
<g id="a_node17"><a xlink:title=" ">
<polygon fill="none" stroke="#bfbfbf" points="3710.5,-0.5 3710.5,-30.5 3835.5,-30.5 3835.5,-0.5 3710.5,-0.5"/>
<text text-anchor="start" x="3718.5" y="-18.5" font-family="Helvetica,sans-Serif" font-size="10.00">seerep&#45;msgs/geodetic</text>
<text text-anchor="middle" x="3773" y="-7.5" font-family="Helvetica,sans-Serif" font-size="10.00">&#45;coordinates.h</text>
</a>
</g>
</g>
<!-- Node16&#45;&gt;Node18 -->
<g id="edge20" class="edge">
<title>Node16&#45;&gt;Node18</title>
<path fill="none" stroke="midnightblue" d="M3460.77,-75.2C3526.84,-62.78 3630.75,-43.24 3700.33,-30.16"/>
<polygon fill="midnightblue" stroke="midnightblue" points="3701.16,-33.57 3710.34,-28.28 3699.87,-26.69 3701.16,-33.57"/>
</g>
<!-- Node16&#45;&gt;Node20 -->
<g id="edge21" class="edge">
<title>Node16&#45;&gt;Node20</title>
<path fill="none" stroke="midnightblue" d="M3380.19,-72.73C3365.41,-60.89 3344.44,-44.09 3329.27,-31.94"/>
<polygon fill="midnightblue" stroke="midnightblue" points="3331.09,-28.91 3321.1,-25.39 3326.72,-34.38 3331.09,-28.91"/>
</g>
<!-- Node16&#45;&gt;Node23 -->
<g id="edge23" class="edge">
<title>Node16&#45;&gt;Node23</title>
<path fill="none" stroke="midnightblue" d="M3335.47,-85.37C3201.42,-81.88 2876.43,-73.49 2604,-67 1757.24,-46.84 731.26,-24.63 436.07,-18.28"/>
<polygon fill="midnightblue" stroke="midnightblue" points="435.95,-14.78 425.88,-18.06 435.8,-21.78 435.95,-14.78"/>
</g>
<!-- Node16&#45;&gt;Node24 -->
<g id="edge24" class="edge">
<title>Node16&#45;&gt;Node24</title>
<path fill="none" stroke="midnightblue" d="M3335.43,-84.59C3055.91,-73.84 1922.45,-30.25 1632.7,-19.1"/>
<polygon fill="midnightblue" stroke="midnightblue" points="1632.48,-15.59 1622.35,-18.71 1632.21,-22.59 1632.48,-15.59"/>
</g>
<!-- Node16&#45;&gt;Node25 -->
<g id="edge25" class="edge">
<title>Node16&#45;&gt;Node25</title>
<path fill="none" stroke="midnightblue" d="M3460.73,-80.11C3577.46,-67.29 3827.97,-39.78 3957.96,-25.51"/>
<polygon fill="midnightblue" stroke="midnightblue" points="3958.69,-28.95 3968.25,-24.38 3957.93,-21.99 3958.69,-28.95"/>
</g>
<!-- Node16&#45;&gt;Node26 -->
<g id="edge26" class="edge">
<title>Node16&#45;&gt;Node26</title>
<path fill="none" stroke="midnightblue" d="M3345.92,-73C3337.61,-70.9 3329.08,-68.83 3321,-67 3252.07,-51.4 3172.22,-36.39 3119.17,-26.85"/>
<polygon fill="midnightblue" stroke="midnightblue" points="3119.72,-23.39 3109.26,-25.08 3118.49,-30.28 3119.72,-23.39"/>
</g>
<!-- Node16&#45;&gt;Node27 -->
<g id="edge28" class="edge">
<title>Node16&#45;&gt;Node27</title>
<path fill="none" stroke="midnightblue" d="M3348.55,-72.9C3339.45,-70.66 3329.98,-68.57 3321,-67 3236.98,-52.3 3003.03,-33.44 2870.24,-23.44"/>
<polygon fill="midnightblue" stroke="midnightblue" points="2870.3,-19.93 2860.07,-22.68 2869.78,-26.91 2870.3,-19.93"/>
</g>
<!-- Node16&#45;&gt;Node28 -->
<g id="edge29" class="edge">
<title>Node16&#45;&gt;Node28</title>
<path fill="none" stroke="midnightblue" d="M3460.92,-83.43C3670.28,-71.56 4342.87,-33.41 4567.31,-20.68"/>
<polygon fill="midnightblue" stroke="midnightblue" points="4567.55,-24.17 4577.34,-20.11 4567.16,-17.18 4567.55,-24.17"/>
</g>
<!-- Node30&#45;&gt;Node5 -->
<g id="edge47" class="edge">
<title>Node30&#45;&gt;Node5</title>
<path fill="none" stroke="midnightblue" d="M1176.05,-147.75C1247.85,-133.2 1360.93,-110.15 1363,-109 1385.54,-96.49 1379.57,-77.75 1403,-67 1491.28,-26.49 2189.51,-18.2 2361.71,-16.77"/>
<polygon fill="midnightblue" stroke="midnightblue" points="2361.86,-20.27 2371.83,-16.69 2361.8,-13.27 2361.86,-20.27"/>
</g>
<!-- Node30&#45;&gt;Node11 -->
<g id="edge39" class="edge">
<title>Node30&#45;&gt;Node11</title>
<path fill="none" stroke="midnightblue" d="M1176.11,-156.36C1301.02,-149.43 1604.36,-131.62 1858,-109 2027.69,-93.86 2069.07,-79.04 2239,-67 2743.32,-31.27 2871.48,-63.83 3376,-31 3402.77,-29.26 3432.2,-26.52 3457.65,-23.89"/>
<polygon fill="midnightblue" stroke="midnightblue" points="3458.34,-27.34 3467.93,-22.81 3457.61,-20.37 3458.34,-27.34"/>
</g>
<!-- Node30&#45;&gt;Node16 -->
<g id="edge40" class="edge">
<title>Node30&#45;&gt;Node16</title>
<path fill="none" stroke="midnightblue" d="M1176.15,-157.05C1249.19,-154.02 1378.36,-148.78 1489,-145 2204.78,-120.51 3071.77,-97.48 3325.19,-90.88"/>
<polygon fill="midnightblue" stroke="midnightblue" points="3325.47,-94.37 3335.37,-90.62 3325.28,-87.38 3325.47,-94.37"/>
</g>
<!-- Node30&#45;&gt;Node20 -->
<g id="edge45" class="edge">
<title>Node30&#45;&gt;Node20</title>
<path fill="none" stroke="midnightblue" d="M1176.03,-152.68C1325.79,-135.34 1737.64,-89.4 2082,-67 2547.96,-36.69 2665.84,-57.96 3132,-31 3168.75,-28.87 3209.69,-25.6 3243.04,-22.7"/>
<polygon fill="midnightblue" stroke="midnightblue" points="3243.48,-26.18 3253.13,-21.82 3242.86,-19.21 3243.48,-26.18"/>
</g>
<!-- Node30&#45;&gt;Node23 -->
<g id="edge48" class="edge">
<title>Node30&#45;&gt;Node23</title>
<path fill="none" stroke="midnightblue" d="M1059.95,-159.47C930.22,-158.61 620.86,-151.98 527,-109 502.71,-97.88 506.48,-81.43 484,-67 462.28,-53.06 436.12,-42.01 412.91,-33.85"/>
<polygon fill="midnightblue" stroke="midnightblue" points="413.76,-30.44 403.16,-30.53 411.5,-37.06 413.76,-30.44"/>
</g>
<!-- Node30&#45;&gt;Node24 -->
<g id="edge49" class="edge">
<title>Node30&#45;&gt;Node24</title>
<path fill="none" stroke="midnightblue" d="M1176.23,-147.09C1233.34,-134.65 1313.75,-116.33 1327,-109 1350.38,-96.07 1346.73,-80.12 1370,-67 1409.37,-44.8 1458.69,-32.14 1497.88,-25.05"/>
<polygon fill="midnightblue" stroke="midnightblue" points="1498.61,-28.48 1507.87,-23.32 1497.42,-21.58 1498.61,-28.48"/>
</g>
<!-- Node31 -->
<g id="node26" class="node">
<title>Node31</title>
<g id="a_node26"><a xlink:title=" ">
<polygon fill="none" stroke="#bfbfbf" points="536,-73 536,-103 694,-103 694,-73 536,-73"/>
<text text-anchor="start" x="544" y="-91" font-family="Helvetica,sans-Serif" font-size="10.00">seerep&#45;msgs/boundingbox2d</text>
<text text-anchor="middle" x="615" y="-80" font-family="Helvetica,sans-Serif" font-size="10.00">_labeled_with_category.pb.h</text>
</a>
</g>
</g>
<!-- Node30&#45;&gt;Node31 -->
<g id="edge41" class="edge">
<title>Node30&#45;&gt;Node31</title>
<path fill="none" stroke="midnightblue" d="M1059.99,-154.33C979.5,-146.73 829.56,-131.02 703,-109 696.47,-107.86 689.69,-106.56 682.92,-105.16"/>
<polygon fill="midnightblue" stroke="midnightblue" points="683.56,-101.72 673.05,-103.08 682.11,-108.57 683.56,-101.72"/>
</g>
<!-- Node32 -->
<g id="node27" class="node">
<title>Node32</title>
<g id="a_node27"><a xlink:title=" ">
<polygon fill="none" stroke="#bfbfbf" points="712.5,-73 712.5,-103 867.5,-103 867.5,-73 712.5,-73"/>
<text text-anchor="start" x="720.5" y="-91" font-family="Helvetica,sans-Serif" font-size="10.00">seerep&#45;msgs/boundingbox</text>
<text text-anchor="middle" x="790" y="-80" font-family="Helvetica,sans-Serif" font-size="10.00">_labeled_with_category.pb.h</text>
</a>
</g>
</g>
<!-- Node30&#45;&gt;Node32 -->
<g id="edge42" class="edge">
<title>Node30&#45;&gt;Node32</title>
<path fill="none" stroke="midnightblue" d="M1059.98,-147.67C1011.13,-137.63 939.42,-122.71 877,-109 871.61,-107.82 866.03,-106.57 860.43,-105.31"/>
<polygon fill="midnightblue" stroke="midnightblue" points="860.87,-101.82 850.34,-103.03 859.32,-108.65 860.87,-101.82"/>
</g>
<!-- Node33 -->
<g id="node28" class="node">
<title>Node33</title>
<g id="a_node28"><a xlink:title=" ">
<polygon fill="none" stroke="#bfbfbf" points="886,-78.5 886,-97.5 1026,-97.5 1026,-78.5 886,-78.5"/>
<text text-anchor="middle" x="956" y="-85.5" font-family="Helvetica,sans-Serif" font-size="10.00">seerep&#45;msgs/header.pb.h</text>
</a>
</g>
</g>
<!-- Node30&#45;&gt;Node33 -->
<g id="edge43" class="edge">
<title>Node30&#45;&gt;Node33</title>
<path fill="none" stroke="midnightblue" d="M1085.61,-145.4C1056.2,-132.61 1013.24,-113.91 984.95,-101.6"/>
<polygon fill="midnightblue" stroke="midnightblue" points="986.18,-98.31 975.61,-97.53 983.38,-104.73 986.18,-98.31"/>
</g>
<!-- Node34 -->
<g id="node29" class="node">
<title>Node34</title>
<g id="a_node29"><a xlink:title=" ">
<polygon fill="none" stroke="#bfbfbf" points="1044,-67.5 1044,-108.5 1160,-108.5 1160,-67.5 1044,-67.5"/>
<text text-anchor="start" x="1052" y="-96.5" font-family="Helvetica,sans-Serif" font-size="10.00">seerep&#45;msgs/labels</text>
<text text-anchor="start" x="1052" y="-85.5" font-family="Helvetica,sans-Serif" font-size="10.00">_with_instance_with</text>
<text text-anchor="middle" x="1102" y="-74.5" font-family="Helvetica,sans-Serif" font-size="10.00">_category.pb.h</text>
</a>
</g>
</g>
<!-- Node30&#45;&gt;Node34 -->
<g id="edge44" class="edge">
<title>Node30&#45;&gt;Node34</title>
<path fill="none" stroke="midnightblue" d="M1114.76,-145.23C1113.02,-137.57 1110.81,-127.84 1108.72,-118.63"/>
<polygon fill="midnightblue" stroke="midnightblue" points="1112.07,-117.57 1106.45,-108.59 1105.25,-119.12 1112.07,-117.57"/>
</g>
<!-- Node35 -->
<g id="node30" class="node">
<title>Node35</title>
<g id="a_node30"><a xlink:title=" ">
<polygon fill="none" stroke="#bfbfbf" points="1412,-78.5 1412,-97.5 1480,-97.5 1480,-78.5 1412,-78.5"/>
<text text-anchor="middle" x="1446" y="-85.5" font-family="Helvetica,sans-Serif" font-size="10.00">filesystem</text>
</a>
</g>
</g>
<!-- Node30&#45;&gt;Node35 -->
<g id="edge46" class="edge">
<title>Node30&#45;&gt;Node35</title>
<path fill="none" stroke="midnightblue" d="M1176.13,-147.65C1180.82,-146.74 1185.49,-145.84 1190,-145 1282.22,-127.74 1307.92,-135.21 1398,-109 1404.87,-107 1412.09,-104.32 1418.78,-101.58"/>
<polygon fill="midnightblue" stroke="midnightblue" points="1420.3,-104.73 1428.11,-97.58 1417.54,-98.3 1420.3,-104.73"/>
</g>
<!-- Node36 -->
<g id="node31" class="node">
<title>Node36</title>
<g id="a_node31"><a xlink:title=" ">
<polygon fill="none" stroke="#bfbfbf" points="1178,-78.5 1178,-97.5 1318,-97.5 1318,-78.5 1178,-78.5"/>
<text text-anchor="middle" x="1248" y="-85.5" font-family="Helvetica,sans-Serif" font-size="10.00">impl/hdf5&#45;pb&#45;general.hpp</text>
</a>
</g>
</g>
<!-- Node30&#45;&gt;Node36 -->
<g id="edge50" class="edge">
<title>Node30&#45;&gt;Node36</title>
<path fill="none" stroke="midnightblue" d="M1143.99,-145.4C1167.08,-132.89 1200.57,-114.72 1223.26,-102.42"/>
<polygon fill="midnightblue" stroke="midnightblue" points="1225.14,-105.38 1232.26,-97.53 1221.81,-99.22 1225.14,-105.38"/>
</g>
<!-- Node37&#45;&gt;Node6 -->
<g id="edge52" class="edge">
<title>Node37&#45;&gt;Node6</title>
<path fill="none" stroke="midnightblue" d="M452.56,-145.23C437.54,-134.75 416.94,-120.37 400.33,-108.78"/>
<polygon fill="midnightblue" stroke="midnightblue" points="402.27,-105.86 392.06,-103 398.26,-111.6 402.27,-105.86"/>
</g>
<!-- Node42&#45;&gt;Node4 -->
<g id="edge63" class="edge">
<title>Node42&#45;&gt;Node4</title>
<path fill="none" stroke="midnightblue" d="M2633.8,-421.47C2805.13,-419.47 3336.59,-410.64 3505,-377 3636.37,-350.76 3688.12,-344.97 3775,-243 3791.67,-223.44 3805.3,-196.94 3813.28,-179.54"/>
<polygon fill="midnightblue" stroke="midnightblue" points="3816.65,-180.59 3817.5,-170.03 3810.25,-177.75 3816.65,-180.59"/>
</g>
<!-- Node42&#45;&gt;Node5 -->
<g id="edge64" class="edge">
<title>Node42&#45;&gt;Node5</title>
<path fill="none" stroke="midnightblue" d="M2526.39,-420.67C2358.55,-416.26 1850.15,-401.05 1780,-377 1705.66,-351.51 1525.51,-245.6 1489,-176 1482.6,-163.8 1480.49,-155.84 1489,-145 1530.52,-92.08 1570.76,-125.39 1636,-109 1708.56,-90.77 1725.24,-79.51 1799,-67 2009.7,-31.26 2266.44,-20.41 2361.89,-17.48"/>
<polygon fill="midnightblue" stroke="midnightblue" points="2362.04,-20.98 2371.93,-17.18 2361.83,-13.98 2362.04,-20.98"/>
</g>
<!-- Node42&#45;&gt;Node8 -->
<g id="edge67" class="edge">
<title>Node42&#45;&gt;Node8</title>
<path fill="none" stroke="midnightblue" d="M2540.95,-413.47C2444.18,-391.66 2186.46,-329.41 1984,-243 1938.42,-223.55 1888.89,-193.31 1861.42,-175.65"/>
<polygon fill="midnightblue" stroke="midnightblue" points="1863.28,-172.68 1852.99,-170.17 1859.47,-178.56 1863.28,-172.68"/>
</g>
<!-- Node42&#45;&gt;Node9 -->
<g id="edge69" class="edge">
<title>Node42&#45;&gt;Node9</title>
<path fill="none" stroke="midnightblue" d="M2579.39,-413.22C2578.17,-389.68 2577.52,-323.88 2604,-279 2633.03,-229.8 2691.04,-193.17 2725.18,-174.77"/>
<polygon fill="midnightblue" stroke="midnightblue" points="2726.9,-177.82 2734.13,-170.07 2723.65,-171.62 2726.9,-177.82"/>
</g>
<!-- Node42&#45;&gt;Node14 -->
<g id="edge65" class="edge">
<title>Node42&#45;&gt;Node14</title>
<path fill="none" stroke="midnightblue" d="M2633.75,-421.61C2988.64,-418.95 4982.42,-402.91 5039,-377 5075.34,-360.36 5084.73,-347.34 5099,-310 5136.23,-212.63 5072.29,-89.6 5041.8,-39.4"/>
<polygon fill="midnightblue" stroke="midnightblue" points="5044.61,-37.28 5036.36,-30.63 5038.66,-40.97 5044.61,-37.28"/>
</g>
<!-- Node42&#45;&gt;Node15 -->
<g id="edge59" class="edge">
<title>Node42&#45;&gt;Node15</title>
<path fill="none" stroke="midnightblue" d="M2633.56,-421.7C2985,-419.66 4948.54,-406.91 5002,-377 5070.37,-338.74 5097,-306.85 5097,-228.5 5097,-228.5 5097,-228.5 5097,-159.5 5097,-52.82 4944.06,-25.44 4852.69,-18.6"/>
<polygon fill="midnightblue" stroke="midnightblue" points="4852.9,-15.1 4842.68,-17.91 4852.42,-22.09 4852.9,-15.1"/>
</g>
<!-- Node42&#45;&gt;Node23 -->
<g id="edge157" class="edge">
<title>Node42&#45;&gt;Node23</title>
<path fill="none" stroke="midnightblue" d="M2526.18,-420.98C2325.85,-417.02 1623.55,-401.67 1401,-377 912.26,-322.81 697.67,-482.32 313,-176 273.79,-144.77 261.32,-111.71 284,-67 290.49,-54.22 301.9,-43.89 313.59,-35.99"/>
<polygon fill="midnightblue" stroke="midnightblue" points="315.48,-38.94 322.09,-30.66 311.76,-33.01 315.48,-38.94"/>
</g>
<!-- Node42&#45;&gt;Node24 -->
<g id="edge158" class="edge">
<title>Node42&#45;&gt;Node24</title>
<path fill="none" stroke="midnightblue" d="M2526.41,-421.3C2361.91,-418.82 1865.79,-408.84 1708,-377 1622.07,-359.66 1387.37,-314.74 1337,-243 1280.75,-162.88 1369.93,-217.56 1489,-109 1514.85,-85.43 1539.57,-52.86 1553.46,-33.32"/>
<polygon fill="midnightblue" stroke="midnightblue" points="1556.35,-35.3 1559.21,-25.1 1550.61,-31.29 1556.35,-35.3"/>
</g>
<!-- Node42&#45;&gt;Node25 -->
<g id="edge57" class="edge">
<title>Node42&#45;&gt;Node25</title>
<path fill="none" stroke="midnightblue" d="M2633.53,-422.59C2783.85,-423.6 3222.38,-422.14 3583,-377 3874.38,-340.53 3955.01,-346.04 4230,-243 4343.67,-200.41 4406.74,-213.8 4468,-109 4477.42,-92.88 4480.4,-80.95 4468,-67 4445.45,-41.63 4239.82,-26.85 4121.99,-20.4"/>
<polygon fill="midnightblue" stroke="midnightblue" points="4122.09,-16.9 4111.92,-19.86 4121.71,-23.89 4122.09,-16.9"/>
</g>
<!-- Node42&#45;&gt;Node26 -->
<g id="edge58" class="edge">
<title>Node42&#45;&gt;Node26</title>
<path fill="none" stroke="midnightblue" d="M2578.88,-413.39C2577.74,-404.34 2576.01,-389.69 2575,-377 2566.85,-274.1 2631.23,-223.33 2564,-145 2511.43,-83.75 2437.1,-171.47 2386,-109 2374.18,-94.55 2373.3,-80.68 2386,-67 2422.61,-27.56 2815.34,-35.04 2869,-31 2907.93,-28.07 2951.33,-24.78 2986.91,-22.07"/>
<polygon fill="midnightblue" stroke="midnightblue" points="2987.5,-25.54 2997.2,-21.29 2986.97,-18.56 2987.5,-25.54"/>
</g>
<!-- Node42&#45;&gt;Node27 -->
<g id="edge60" class="edge">
<title>Node42&#45;&gt;Node27</title>
<path fill="none" stroke="midnightblue" d="M2526.4,-422.55C2313.5,-422.96 1549.05,-406.57 1756,-145 1779.38,-115.45 2048.76,-72.73 2086,-67 2197.65,-49.83 2518.02,-30.58 2679.51,-21.62"/>
<polygon fill="midnightblue" stroke="midnightblue" points="2680.12,-25.09 2689.91,-21.04 2679.74,-18.1 2680.12,-25.09"/>
</g>
<!-- Node42&#45;&gt;Node28 -->
<g id="edge61" class="edge">
<title>Node42&#45;&gt;Node28</title>
<path fill="none" stroke="midnightblue" d="M2633.52,-422.2C2797.32,-422.32 3306.1,-419.01 3725,-377 4095.49,-339.84 4200.78,-366.65 4552,-243 4637.9,-212.76 4684.27,-197.18 4707,-109 4711.66,-90.92 4715.27,-83.74 4707,-67 4699.08,-50.98 4683.38,-38.64 4669.27,-30.17"/>
<polygon fill="midnightblue" stroke="midnightblue" points="4670.77,-26.99 4660.33,-25.16 4667.35,-33.1 4670.77,-26.99"/>
</g>
<!-- Node42&#45;&gt;Node35 -->
<g id="edge62" class="edge">
<title>Node42&#45;&gt;Node35</title>
<path fill="none" stroke="midnightblue" d="M2526.27,-421.28C2356.44,-418.71 1832.57,-408.38 1666,-377 1481.75,-342.29 1375.51,-395.18 1266,-243 1240.56,-207.65 1239.6,-179.64 1266,-145 1302.6,-96.98 1339.84,-128.44 1397,-109 1403.66,-106.73 1410.72,-104.03 1417.35,-101.36"/>
<polygon fill="midnightblue" stroke="midnightblue" points="1418.74,-104.57 1426.65,-97.52 1416.07,-98.1 1418.74,-104.57"/>
</g>
<!-- Node43 -->
<g id="node34" class="node">
<title>Node43</title>
<g id="a_node34"><a xlink:title=" ">
<polygon fill="none" stroke="#bfbfbf" points="4877,-346.5 4877,-376.5 4993,-376.5 4993,-346.5 4877,-346.5"/>
<text text-anchor="start" x="4885" y="-364.5" font-family="Helvetica,sans-Serif" font-size="10.00">seerep&#45;msgs/project</text>
<text text-anchor="middle" x="4935" y="-353.5" font-family="Helvetica,sans-Serif" font-size="10.00">&#45;info.h</text>
</a>
</g>
</g>
<!-- Node42&#45;&gt;Node43 -->
<g id="edge66" class="edge">
<title>Node42&#45;&gt;Node43</title>
<path fill="none" stroke="midnightblue" d="M2633.79,-422.25C2934.57,-423.43 4410.81,-426.59 4863,-377 4864.28,-376.86 4865.58,-376.71 4866.88,-376.54"/>
<polygon fill="midnightblue" stroke="midnightblue" points="4867.57,-379.98 4876.98,-375.11 4866.59,-373.05 4867.57,-379.98"/>
</g>
<!-- Node44 -->
<g id="node35" class="node">
<title>Node44</title>
<g id="a_node35"><a xlink:title=" ">
<polygon fill="none" stroke="#bfbfbf" points="2829,-151 2829,-170 2959,-170 2959,-151 2829,-151"/>
<text text-anchor="middle" x="2894" y="-158" font-family="Helvetica,sans-Serif" font-size="10.00">seerep&#45;msgs/query&#45;tf.h</text>
</a>
</g>
</g>
<!-- Node42&#45;&gt;Node44 -->
<g id="edge68" class="edge">
<title>Node42&#45;&gt;Node44</title>
<path fill="none" stroke="midnightblue" d="M2582.83,-413.39C2592.05,-385.74 2621.81,-299.75 2642,-279 2698.89,-220.54 2790.48,-188.06 2846.16,-172.74"/>
<polygon fill="midnightblue" stroke="midnightblue" points="2847.37,-176.04 2856.13,-170.07 2845.56,-169.27 2847.37,-176.04"/>
</g>
<!-- Node45 -->
<g id="node36" class="node">
<title>Node45</title>
<g id="a_node36"><a xlink:title=" ">
<polygon fill="none" stroke="#bfbfbf" points="2395,-78.5 2395,-97.5 2595,-97.5 2595,-78.5 2395,-78.5"/>
<text text-anchor="middle" x="2495" y="-85.5" font-family="Helvetica,sans-Serif" font-size="10.00">geometry_msgs/TransformStamped.h</text>
</a>
</g>
</g>
<!-- Node42&#45;&gt;Node45 -->
<g id="edge70" class="edge">
<title>Node42&#45;&gt;Node45</title>
<path fill="none" stroke="midnightblue" d="M2625.46,-413.48C2771.15,-384.54 3208.23,-284.01 3057,-145 3019.5,-110.53 2650.48,-115.78 2600,-109 2581.7,-106.54 2561.77,-102.98 2544.24,-99.53"/>
<polygon fill="midnightblue" stroke="midnightblue" points="2544.72,-96.06 2534.22,-97.53 2543.34,-102.92 2544.72,-96.06"/>
</g>
<!-- Node46 -->
<g id="node37" class="node">
<title>Node46</title>
<g id="a_node37"><a xlink:href="core-project_8h.html" target="_top" xlink:title=" ">
<polygon fill="none" stroke="black" points="3412,-352 3412,-371 3496,-371 3496,-352 3412,-352"/>
<text text-anchor="middle" x="3454" y="-359" font-family="Helvetica,sans-Serif" font-size="10.00">core&#45;project.h</text>
</a>
</g>
</g>
<!-- Node42&#45;&gt;Node46 -->
<g id="edge71" class="edge">
<title>Node42&#45;&gt;Node46</title>
<path fill="none" stroke="midnightblue" d="M2633.68,-418.35C2790.52,-407.67 3246.7,-376.61 3401.73,-366.06"/>
<polygon fill="midnightblue" stroke="midnightblue" points="3402.19,-369.54 3411.93,-365.36 3401.71,-362.55 3402.19,-369.54"/>
</g>
<!-- Node46&#45;&gt;Node4 -->
<g id="edge75" class="edge">
<title>Node46&#45;&gt;Node4</title>
<path fill="none" stroke="midnightblue" d="M3496.31,-355.78C3538.31,-349.76 3603.52,-336.73 3654,-310 3719.84,-275.13 3780.88,-209.01 3807.27,-178.15"/>
<polygon fill="midnightblue" stroke="midnightblue" points="3810.28,-180 3814.04,-170.1 3804.92,-175.5 3810.28,-180"/>
</g>
<!-- Node46&#45;&gt;Node5 -->
<g id="edge76" class="edge">
<title>Node46&#45;&gt;Node5</title>
<path fill="none" stroke="midnightblue" d="M3411.58,-360.8C3278.07,-361.23 2868.13,-358.46 2746,-310 2725.74,-301.96 2728.33,-286.86 2708,-279 2568.3,-225 2183.21,-264.58 2035,-243 1908.8,-224.63 1834.95,-276.15 1756,-176 1677.4,-76.29 2211.77,-30.03 2361.66,-19.1"/>
<polygon fill="midnightblue" stroke="midnightblue" points="2362.05,-22.58 2371.78,-18.38 2361.55,-15.6 2362.05,-22.58"/>
</g>
<!-- Node46&#45;&gt;Node9 -->
<g id="edge81" class="edge">
<title>Node46&#45;&gt;Node9</title>
<path fill="none" stroke="midnightblue" d="M3411.94,-358.85C3338.01,-355.14 3180.43,-343.67 3052,-310 2975.84,-290.03 2958.42,-278.23 2888,-243 2845.94,-221.96 2799.44,-192.7 2773.17,-175.57"/>
<polygon fill="midnightblue" stroke="midnightblue" points="2775.04,-172.61 2764.76,-170.05 2771.2,-178.46 2775.04,-172.61"/>
</g>
<!-- Node46&#45;&gt;Node12 -->
<g id="edge105" class="edge">
<title>Node46&#45;&gt;Node12</title>
<path fill="none" stroke="midnightblue" d="M3496.14,-354.39C3552.95,-343.53 3651.22,-314.82 3688,-243 3697.35,-224.73 3690.6,-201.81 3682.66,-184.93"/>
<polygon fill="midnightblue" stroke="midnightblue" points="3685.65,-183.07 3677.97,-175.77 3679.42,-186.26 3685.65,-183.07"/>
</g>
<!-- Node46&#45;&gt;Node14 -->
<g id="edge77" class="edge">
<title>Node46&#45;&gt;Node14</title>
<path fill="none" stroke="midnightblue" d="M3496.12,-359.52C3703.02,-354.35 4612.5,-327.11 4881,-243 4945.3,-222.86 4979.63,-232.07 5017,-176 5044.35,-134.96 5038.54,-74.01 5032.43,-40.59"/>
<polygon fill="midnightblue" stroke="midnightblue" points="5035.86,-39.89 5030.48,-30.76 5029,-41.25 5035.86,-39.89"/>
</g>
<!-- Node46&#45;&gt;Node15 -->
<g id="edge72" class="edge">
<title>Node46&#45;&gt;Node15</title>
<path fill="none" stroke="midnightblue" d="M3496.18,-358.8C3733.62,-348.81 4896.59,-294.03 4997,-176 5054.81,-108.05 4903.35,-51.37 4826.96,-27.99"/>
<polygon fill="midnightblue" stroke="midnightblue" points="4827.74,-24.57 4817.15,-25.05 4825.72,-31.28 4827.74,-24.57"/>
</g>
<!-- Node46&#45;&gt;Node18 -->
<g id="edge78" class="edge">
<title>Node46&#45;&gt;Node18</title>
<path fill="none" stroke="midnightblue" d="M3496.24,-356.56C3668.87,-339.47 4317.1,-265.52 4432,-109 4524.56,17.09 4679.3,-86.32 3960,-31 3922.32,-28.1 3880.38,-24.85 3845.78,-22.16"/>
<polygon fill="midnightblue" stroke="midnightblue" points="3846,-18.67 3835.76,-21.39 3845.46,-25.65 3846,-18.67"/>
</g>
<!-- Node46&#45;&gt;Node23 -->
<g id="edge155" class="edge">
<title>Node46&#45;&gt;Node23</title>
<path fill="none" stroke="midnightblue" d="M3411.94,-359.6C3243.6,-355.87 2602.08,-340.35 2075,-310 2051.29,-308.63 391.9,-185.19 370,-176 328.17,-158.45 311.8,-150.28 293,-109 285.26,-92.01 285.12,-83.92 293,-67 298.67,-54.82 308.87,-44.54 319.28,-36.49"/>
<polygon fill="midnightblue" stroke="midnightblue" points="321.51,-39.19 327.59,-30.52 317.42,-33.51 321.51,-39.19"/>
</g>
<!-- Node46&#45;&gt;Node24 -->
<g id="edge156" class="edge">
<title>Node46&#45;&gt;Node24</title>
<path fill="none" stroke="midnightblue" d="M3411.93,-357.73C3298.36,-350.23 2976.05,-328.83 2708,-310 2572.07,-300.45 1574.17,-282.36 1489,-176 1446.06,-122.38 1556.7,-114.06 1560,-109 1574.46,-86.82 1572.39,-54.92 1569.07,-34.97"/>
<polygon fill="midnightblue" stroke="midnightblue" points="1572.48,-34.16 1567.14,-25.01 1565.61,-35.49 1572.48,-34.16"/>
</g>
<!-- Node46&#45;&gt;Node27 -->
<g id="edge73" class="edge">
<title>Node46&#45;&gt;Node27</title>
<path fill="none" stroke="midnightblue" d="M3411.8,-356.83C3326.13,-349.24 3125.72,-330.79 2958,-310 2863.5,-298.29 2840.76,-288.44 2746,-279 2671.37,-271.57 2134.35,-284.68 2072,-243 2033.91,-217.54 2012.63,-181.75 2040,-145 2115.04,-44.25 2498.29,-22.4 2679.64,-17.73"/>
<polygon fill="midnightblue" stroke="midnightblue" points="2679.79,-21.23 2689.7,-17.48 2679.62,-14.23 2679.79,-21.23"/>
</g>
<!-- Node46&#45;&gt;Node28 -->
<g id="edge74" class="edge">
<title>Node46&#45;&gt;Node28</title>
<path fill="none" stroke="midnightblue" d="M3496.11,-357.42C3581.08,-350.93 3779.03,-334.4 3944,-310 4254.33,-264.1 4368.95,-338.97 4637,-176 4683.03,-148.02 4710.24,-116.92 4690,-67 4684.28,-52.89 4672.51,-40.54 4661.94,-31.59"/>
<polygon fill="midnightblue" stroke="midnightblue" points="4663.86,-28.65 4653.86,-25.17 4659.51,-34.13 4663.86,-28.65"/>
</g>
<!-- Node46&#45;&gt;Node44 -->
<g id="edge80" class="edge">
<title>Node46&#45;&gt;Node44</title>
<path fill="none" stroke="midnightblue" d="M3411.91,-357.4C3350.72,-352.08 3234.13,-338.87 3139,-310 3070.68,-289.27 3053.51,-280.89 2993,-243 2961.61,-223.34 2929.2,-194.81 2910.36,-177.24"/>
<polygon fill="midnightblue" stroke="midnightblue" points="2912.61,-174.55 2902.94,-170.23 2907.8,-179.64 2912.61,-174.55"/>
</g>
<!-- Node47 -->
<g id="node38" class="node">
<title>Node47</title>
<g id="a_node38"><a xlink:title=" ">
<polygon fill="none" stroke="#bfbfbf" points="3383,-279.5 3383,-309.5 3525,-309.5 3525,-279.5 3383,-279.5"/>
<text text-anchor="start" x="3391" y="-297.5" font-family="Helvetica,sans-Serif" font-size="10.00">seerep&#45;msgs/query&#45;result</text>
<text text-anchor="middle" x="3454" y="-286.5" font-family="Helvetica,sans-Serif" font-size="10.00">&#45;project.h</text>
</a>
</g>
</g>
<!-- Node46&#45;&gt;Node47 -->
<g id="edge79" class="edge">
<title>Node46&#45;&gt;Node47</title>
<path fill="none" stroke="midnightblue" d="M3454,-351.73C3454,-343.54 3454,-330.92 3454,-319.71"/>
<polygon fill="midnightblue" stroke="midnightblue" points="3457.5,-319.59 3454,-309.59 3450.5,-319.59 3457.5,-319.59"/>
</g>
<!-- Node48 -->
<g id="node39" class="node">
<title>Node48</title>
<g id="a_node39"><a xlink:href="hdf5-core-image_8h.html" target="_top" xlink:title=" ">
<polygon fill="none" stroke="red" points="3871.5,-145.5 3871.5,-175.5 3996.5,-175.5 3996.5,-145.5 3871.5,-145.5"/>
<text text-anchor="start" x="3879.5" y="-163.5" font-family="Helvetica,sans-Serif" font-size="10.00">seerep&#45;hdf5&#45;core/hdf5</text>
<text text-anchor="middle" x="3934" y="-152.5" font-family="Helvetica,sans-Serif" font-size="10.00">&#45;core&#45;image.h</text>
</a>
</g>
</g>
<!-- Node46&#45;&gt;Node48 -->
<g id="edge82" class="edge">
<title>Node46&#45;&gt;Node48</title>
<path fill="none" stroke="midnightblue" d="M3496.35,-355.86C3544.77,-349.58 3625.74,-336.01 3691,-310 3775.86,-276.18 3864.81,-213.82 3907.74,-181.74"/>
<polygon fill="midnightblue" stroke="midnightblue" points="3910.06,-184.37 3915.94,-175.56 3905.85,-178.78 3910.06,-184.37"/>
</g>
<!-- Node49 -->
<g id="node40" class="node">
<title>Node49</title>
<g id="a_node40"><a xlink:href="hdf5-core-instance_8h.html" target="_top" xlink:title=" ">
<polygon fill="none" stroke="black" points="3463.5,-145.5 3463.5,-175.5 3588.5,-175.5 3588.5,-145.5 3463.5,-145.5"/>
<text text-anchor="start" x="3471.5" y="-163.5" font-family="Helvetica,sans-Serif" font-size="10.00">seerep&#45;hdf5&#45;core/hdf5</text>
<text text-anchor="middle" x="3526" y="-152.5" font-family="Helvetica,sans-Serif" font-size="10.00">&#45;core&#45;instance.h</text>
</a>
</g>
</g>
<!-- Node46&#45;&gt;Node49 -->
<g id="edge94" class="edge">
<title>Node46&#45;&gt;Node49</title>
<path fill="none" stroke="midnightblue" d="M3479.98,-351.85C3498.7,-344.1 3522.58,-330.71 3534,-310 3555.63,-270.76 3544.26,-216.48 3534.69,-185.58"/>
<polygon fill="midnightblue" stroke="midnightblue" points="3537.89,-184.1 3531.44,-175.69 3531.24,-186.29 3537.89,-184.1"/>
</g>
<!-- Node50 -->
<g id="node41" class="node">
<title>Node50</title>
<g id="a_node41"><a xlink:href="hdf5-core-point_8h.html" target="_top" xlink:title=" ">
<polygon fill="none" stroke="black" points="4014.5,-145.5 4014.5,-175.5 4139.5,-175.5 4139.5,-145.5 4014.5,-145.5"/>
<text text-anchor="start" x="4022.5" y="-163.5" font-family="Helvetica,sans-Serif" font-size="10.00">seerep&#45;hdf5&#45;core/hdf5</text>
<text text-anchor="middle" x="4077" y="-152.5" font-family="Helvetica,sans-Serif" font-size="10.00">&#45;core&#45;point.h</text>
</a>
</g>
</g>
<!-- Node46&#45;&gt;Node50 -->
<g id="edge106" class="edge">
<title>Node46&#45;&gt;Node50</title>
<path fill="none" stroke="midnightblue" d="M3496.44,-356.08C3552.44,-349.54 3653.65,-335.25 3737,-310 3852.27,-275.07 3980.55,-211.94 4041.33,-180.44"/>
<polygon fill="midnightblue" stroke="midnightblue" points="4043.25,-183.39 4050.5,-175.66 4040.01,-177.18 4043.25,-183.39"/>
</g>
<!-- Node51 -->
<g id="node42" class="node">
<title>Node51</title>
<g id="a_node42"><a xlink:href="hdf5-core-tf_8h.html" target="_top" xlink:title=" ">
<polygon fill="none" stroke="black" points="3167.5,-145.5 3167.5,-175.5 3292.5,-175.5 3292.5,-145.5 3167.5,-145.5"/>
<text text-anchor="start" x="3175.5" y="-163.5" font-family="Helvetica,sans-Serif" font-size="10.00">seerep&#45;hdf5&#45;core/hdf5</text>
<text text-anchor="middle" x="3230" y="-152.5" font-family="Helvetica,sans-Serif" font-size="10.00">&#45;core&#45;tf.h</text>
</a>
</g>
</g>
<!-- Node46&#45;&gt;Node51 -->
<g id="edge118" class="edge">
<title>Node46&#45;&gt;Node51</title>
<path fill="none" stroke="midnightblue" d="M3411.67,-360.51C3369.77,-358.18 3306.6,-347.97 3269,-310 3235.8,-276.48 3229.87,-218.33 3229.36,-185.62"/>
<polygon fill="midnightblue" stroke="midnightblue" points="3232.86,-185.58 3229.37,-175.58 3225.86,-185.58 3232.86,-185.58"/>
</g>
<!-- Node52 -->
<g id="node43" class="node">
<title>Node52</title>
<g id="a_node43"><a xlink:href="core-dataset_8h.html" target="_top" xlink:title=" ">
<polygon fill="none" stroke="red" points="3277.5,-285 3277.5,-304 3364.5,-304 3364.5,-285 3277.5,-285"/>
<text text-anchor="middle" x="3321" y="-292" font-family="Helvetica,sans-Serif" font-size="10.00">core&#45;dataset.h</text>
</a>
</g>
</g>
<!-- Node46&#45;&gt;Node52 -->
<g id="edge124" class="edge">
<title>Node46&#45;&gt;Node52</title>
<path fill="none" stroke="midnightblue" d="M3436.34,-351.87C3413.68,-340.8 3374.17,-321.49 3347.8,-308.6"/>
<polygon fill="midnightblue" stroke="midnightblue" points="3349.26,-305.41 3338.73,-304.17 3346.18,-311.7 3349.26,-305.41"/>
</g>
<!-- Node55 -->
<g id="node44" class="node">
<title>Node55</title>
<g id="a_node44"><a xlink:href="core-instances_8h.html" target="_top" xlink:title=" ">
<polygon fill="none" stroke="red" points="3581.5,-218 3581.5,-237 3678.5,-237 3678.5,-218 3581.5,-218"/>
<text text-anchor="middle" x="3630" y="-225" font-family="Helvetica,sans-Serif" font-size="10.00">core&#45;instances.h</text>
</a>
</g>
</g>
<!-- Node46&#45;&gt;Node55 -->
<g id="edge153" class="edge">
<title>Node46&#45;&gt;Node55</title>
<path fill="none" stroke="midnightblue" d="M3483.05,-351.95C3507.22,-343.84 3541.67,-329.93 3567,-310 3589.77,-292.09 3608.95,-264.21 3619.97,-246.15"/>
<polygon fill="midnightblue" stroke="midnightblue" points="3623.15,-247.65 3625.22,-237.25 3617.12,-244.09 3623.15,-247.65"/>
</g>
<!-- Node58 -->
<g id="node45" class="node">
<title>Node58</title>
<g id="a_node45"><a xlink:href="core-tf_8h.html" target="_top" xlink:title=" ">
<polygon fill="none" stroke="red" points="3001.5,-218 3001.5,-237 3058.5,-237 3058.5,-218 3001.5,-218"/>
<text text-anchor="middle" x="3030" y="-225" font-family="Helvetica,sans-Serif" font-size="10.00">core&#45;tf.h</text>
</a>
</g>
</g>
<!-- Node46&#45;&gt;Node58 -->
<g id="edge154" class="edge">
<title>Node46&#45;&gt;Node58</title>
<path fill="none" stroke="midnightblue" d="M3411.81,-353.46C3365.6,-345.21 3289.59,-330.09 3226,-310 3163.9,-290.38 3094.15,-259.01 3056.89,-241.47"/>
<polygon fill="midnightblue" stroke="midnightblue" points="3058.24,-238.23 3047.71,-237.11 3055.24,-244.56 3058.24,-238.23"/>
</g>
<!-- Node48&#45;&gt;Node5 -->
<g id="edge88" class="edge">
<title>Node48&#45;&gt;Node5</title>
<path fill="none" stroke="midnightblue" d="M3871.37,-146.16C3868.55,-145.73 3865.75,-145.34 3863,-145 3524.81,-102.78 3434.05,-159.54 3097,-109 3022.59,-97.84 3007.12,-79.92 2933,-67 2749.32,-34.98 2526.24,-22.13 2438.28,-18.07"/>
<polygon fill="midnightblue" stroke="midnightblue" points="2438.38,-14.57 2428.23,-17.62 2438.07,-21.57 2438.38,-14.57"/>
</g>
<!-- Node48&#45;&gt;Node11 -->
<g id="edge83" class="edge">
<title>Node48&#45;&gt;Node11</title>
<path fill="none" stroke="midnightblue" d="M3907.41,-145.41C3869.25,-125.65 3796.34,-89.59 3731,-67 3680.44,-49.52 3620.97,-35.73 3578.6,-27.01"/>
<polygon fill="midnightblue" stroke="midnightblue" points="3579.25,-23.57 3568.75,-25.01 3577.85,-30.43 3579.25,-23.57"/>
</g>
<!-- Node48&#45;&gt;Node13 -->
<g id="edge84" class="edge">
<title>Node48&#45;&gt;Node13</title>
<path fill="none" stroke="midnightblue" d="M3996.79,-146.63C3999.9,-146.06 4002.98,-145.51 4006,-145 4119.7,-125.61 4149.58,-129.94 4263,-109 4269.2,-107.86 4275.63,-106.57 4282.05,-105.22"/>
<polygon fill="midnightblue" stroke="midnightblue" points="4283.08,-108.57 4292.12,-103.04 4281.6,-101.73 4283.08,-108.57"/>
</g>
<!-- Node48&#45;&gt;Node14 -->
<g id="edge86" class="edge">
<title>Node48&#45;&gt;Node14</title>
<path fill="none" stroke="midnightblue" d="M3996.76,-146.42C3999.88,-145.91 4002.97,-145.43 4006,-145 4194.11,-118.2 4243.34,-131.61 4432,-109 4622.74,-86.14 4846.23,-48.44 4957.17,-28.98"/>
<polygon fill="midnightblue" stroke="midnightblue" points="4957.99,-32.39 4967.23,-27.21 4956.77,-25.5 4957.99,-32.39"/>
</g>
<!-- Node48&#45;&gt;Node15 -->
<g id="edge91" class="edge">
<title>Node48&#45;&gt;Node15</title>
<path fill="none" stroke="midnightblue" d="M3996.56,-146.67C4064.79,-132.63 4165.49,-111.74 4174,-109 4217.94,-94.84 4224.25,-78.35 4269,-67 4461.33,-18.2 4517.51,-58.64 4714,-31 4721.81,-29.9 4730.05,-28.49 4738.06,-26.97"/>
<polygon fill="midnightblue" stroke="midnightblue" points="4738.89,-30.38 4748.03,-25.02 4737.54,-23.51 4738.89,-30.38"/>
</g>
<!-- Node48&#45;&gt;Node16 -->
<g id="edge85" class="edge">
<title>Node48&#45;&gt;Node16</title>
<path fill="none" stroke="midnightblue" d="M3871.35,-146.32C3868.53,-145.85 3865.74,-145.41 3863,-145 3691.68,-119.64 3645.59,-138.87 3475,-109 3469.25,-107.99 3463.3,-106.77 3457.37,-105.44"/>
<polygon fill="midnightblue" stroke="midnightblue" points="3457.98,-101.99 3447.45,-103.1 3456.38,-108.8 3457.98,-101.99"/>
</g>
<!-- Node48&#45;&gt;Node20 -->
<g id="edge87" class="edge">
<title>Node48&#45;&gt;Node20</title>
<path fill="none" stroke="midnightblue" d="M3872.75,-145.46C3748.43,-116.97 3468.84,-52.9 3357.28,-27.34"/>
<polygon fill="midnightblue" stroke="midnightblue" points="3357.86,-23.88 3347.33,-25.06 3356.3,-30.7 3357.86,-23.88"/>
</g>
<!-- Node48&#45;&gt;Node25 -->
<g id="edge89" class="edge">
<title>Node48&#45;&gt;Node25</title>
<path fill="none" stroke="midnightblue" d="M3944.55,-145.27C3964.21,-118.75 4006.35,-61.9 4027.44,-33.45"/>
<polygon fill="midnightblue" stroke="midnightblue" points="4030.35,-35.4 4033.49,-25.28 4024.72,-31.23 4030.35,-35.4"/>
</g>
<!-- Node48&#45;&gt;Node26 -->
<g id="edge90" class="edge">
<title>Node48&#45;&gt;Node26</title>
<path fill="none" stroke="midnightblue" d="M3871.34,-146.39C3868.52,-145.9 3865.73,-145.43 3863,-145 3721.64,-122.66 3678.99,-153.62 3543,-109 3507.43,-97.33 3505.5,-78.86 3470,-67 3409.17,-46.68 3233.2,-30.11 3132.68,-21.96"/>
<polygon fill="midnightblue" stroke="midnightblue" points="3132.85,-18.46 3122.6,-21.15 3132.29,-25.44 3132.85,-18.46"/>
</g>
<!-- Node48&#45;&gt;Node27 -->
<g id="edge92" class="edge">
<title>Node48&#45;&gt;Node27</title>
<path fill="none" stroke="midnightblue" d="M3871.36,-146.22C3868.54,-145.77 3865.74,-145.37 3863,-145 3611.38,-111.52 3544.38,-144.22 3293,-109 3206.49,-96.88 3186.87,-83.03 3101,-67 3014.25,-50.81 2913.82,-35.81 2847.61,-26.44"/>
<polygon fill="midnightblue" stroke="midnightblue" points="2848.08,-22.97 2837.69,-25.04 2847.1,-29.9 2848.08,-22.97"/>
</g>
<!-- Node48&#45;&gt;Node28 -->
<g id="edge93" class="edge">
<title>Node48&#45;&gt;Node28</title>
<path fill="none" stroke="midnightblue" d="M3972.39,-145.33C4029.06,-124.96 4138.78,-87.6 4235,-67 4349.73,-42.43 4485.44,-28.54 4567.29,-21.78"/>
<polygon fill="midnightblue" stroke="midnightblue" points="4567.8,-25.25 4577.49,-20.95 4567.23,-18.27 4567.8,-25.25"/>
</g>
<!-- Node49&#45;&gt;Node5 -->
<g id="edge104" class="edge">
<title>Node49&#45;&gt;Node5</title>
<path fill="none" stroke="midnightblue" d="M3463.33,-155.07C3329.73,-145.5 3020.58,-122.67 2916,-109 2868.46,-102.79 2549.63,-44.14 2438.28,-23.58"/>
<polygon fill="midnightblue" stroke="midnightblue" points="2438.64,-20.09 2428.17,-21.71 2437.37,-26.97 2438.64,-20.09"/>
</g>
<!-- Node49&#45;&gt;Node11 -->
<g id="edge95" class="edge">
<title>Node49&#45;&gt;Node11</title>
<path fill="none" stroke="midnightblue" d="M3525.7,-145.27C3525.16,-119.32 3524,-64.35 3523.4,-35.34"/>
<polygon fill="midnightblue" stroke="midnightblue" points="3526.89,-35.21 3523.18,-25.28 3519.89,-35.35 3526.89,-35.21"/>
</g>
<!-- Node49&#45;&gt;Node15 -->
<g id="edge100" class="edge">
<title>Node49&#45;&gt;Node15</title>
<path fill="none" stroke="midnightblue" d="M3588.79,-146.66C3591.9,-146.09 3594.99,-145.53 3598,-145 3704.67,-126.3 3733.07,-131.55 3839,-109 3907.13,-94.49 3921.24,-78.13 3990,-67 4308.04,-15.52 4394.31,-70.91 4714,-31 4722.19,-29.98 4730.83,-28.55 4739.18,-26.98"/>
<polygon fill="midnightblue" stroke="midnightblue" points="4740.04,-30.38 4749.17,-25.01 4738.69,-23.51 4740.04,-30.38"/>
</g>
<!-- Node49&#45;&gt;Node16 -->
<g id="edge96" class="edge">
<title>Node49&#45;&gt;Node16</title>
<path fill="none" stroke="midnightblue" d="M3500.4,-145.4C3480.87,-134.64 3453.76,-119.71 3432.34,-107.92"/>
<polygon fill="midnightblue" stroke="midnightblue" points="3434,-104.83 3423.55,-103.07 3430.62,-110.96 3434,-104.83"/>
</g>
<!-- Node49&#45;&gt;Node20 -->
<g id="edge103" class="edge">
<title>Node49&#45;&gt;Node20</title>
<path fill="none" stroke="midnightblue" d="M3463.5,-147.16C3408.78,-135.79 3336.53,-119.18 3327,-109 3308.46,-89.18 3306.83,-56.1 3307.97,-35.34"/>
<polygon fill="midnightblue" stroke="midnightblue" points="3311.46,-35.48 3308.79,-25.23 3304.49,-34.91 3311.46,-35.48"/>
</g>
<!-- Node49&#45;&gt;Node25 -->
<g id="edge98" class="edge">
<title>Node49&#45;&gt;Node25</title>
<path fill="none" stroke="midnightblue" d="M3545.85,-145.45C3576.21,-124.7 3636.72,-86.25 3694,-67 3781.34,-37.66 3886.75,-25.36 3958.09,-20.2"/>
<polygon fill="midnightblue" stroke="midnightblue" points="3958.63,-23.68 3968.36,-19.49 3958.15,-16.69 3958.63,-23.68"/>
</g>
<!-- Node49&#45;&gt;Node26 -->
<g id="edge99" class="edge">
<title>Node49&#45;&gt;Node26</title>
<path fill="none" stroke="midnightblue" d="M3463.45,-147.34C3458.57,-146.51 3453.71,-145.72 3449,-145 3312.75,-124.23 3262.99,-173.13 3141,-109 3108.39,-91.86 3082.94,-55.79 3069.81,-34.11"/>
<polygon fill="midnightblue" stroke="midnightblue" points="3072.72,-32.15 3064.67,-25.28 3066.68,-35.68 3072.72,-32.15"/>
</g>
<!-- Node49&#45;&gt;Node27 -->
<g id="edge101" class="edge">
<title>Node49&#45;&gt;Node27</title>
<path fill="none" stroke="midnightblue" d="M3463.34,-153.34C3346.35,-141.73 3103.05,-117.07 3065,-109 2968.59,-88.56 2858.76,-48.82 2806.21,-28.74"/>
<polygon fill="midnightblue" stroke="midnightblue" points="2807.38,-25.43 2796.79,-25.11 2804.86,-31.97 2807.38,-25.43"/>
</g>
<!-- Node49&#45;&gt;Node28 -->
<g id="edge102" class="edge">
<title>Node49&#45;&gt;Node28</title>
<path fill="none" stroke="midnightblue" d="M3576.04,-145.45C3652.06,-124.71 3801.52,-86.27 3931,-67 4161.57,-32.68 4437.86,-21.52 4567.29,-18.02"/>
<polygon fill="midnightblue" stroke="midnightblue" points="4567.58,-21.51 4577.48,-17.75 4567.39,-14.52 4567.58,-21.51"/>
</g>
<!-- Node49&#45;&gt;Node45 -->
<g id="edge97" class="edge">
<title>Node49&#45;&gt;Node45</title>
<path fill="none" stroke="midnightblue" d="M3463.24,-155.39C3418.34,-152.47 3356.45,-148.46 3302,-145 3044.69,-128.67 2980.11,-128.27 2723,-109 2681.45,-105.89 2635.68,-101.97 2596.12,-98.43"/>
<polygon fill="midnightblue" stroke="midnightblue" points="2596.21,-94.92 2585.93,-97.51 2595.58,-101.89 2596.21,-94.92"/>
</g>
<!-- Node50&#45;&gt;Node5 -->
<g id="edge112" class="edge">
<title>Node50&#45;&gt;Node5</title>
<path fill="none" stroke="midnightblue" d="M4014.37,-146.16C4011.55,-145.73 4008.75,-145.34 4006,-145 3670.01,-103 3581.18,-149.42 3245,-109 3147.9,-97.33 3125.89,-80.27 3029,-67 2806.2,-36.49 2536.29,-22.44 2438.06,-18.07"/>
<polygon fill="midnightblue" stroke="midnightblue" points="2438.16,-14.57 2428.02,-17.63 2437.86,-21.56 2438.16,-14.57"/>
</g>
<!-- Node50&#45;&gt;Node11 -->
<g id="edge107" class="edge">
<title>Node50&#45;&gt;Node11</title>
<path fill="none" stroke="midnightblue" d="M4075.04,-145.47C4071.32,-124.56 4061.1,-85.69 4035,-67 4026.01,-60.56 3724.37,-33.85 3588.37,-22.1"/>
<polygon fill="midnightblue" stroke="midnightblue" points="3588.35,-18.58 3578.08,-21.21 3587.74,-25.55 3588.35,-18.58"/>
</g>
<!-- Node50&#45;&gt;Node13 -->
<g id="edge108" class="edge">
<title>Node50&#45;&gt;Node13</title>
<path fill="none" stroke="midnightblue" d="M4131.26,-145.49C4175.69,-134.02 4238.63,-117.76 4285.61,-105.63"/>
<polygon fill="midnightblue" stroke="midnightblue" points="4286.57,-109 4295.37,-103.11 4284.82,-102.22 4286.57,-109"/>
</g>
<!-- Node50&#45;&gt;Node14 -->
<g id="edge110" class="edge">
<title>Node50&#45;&gt;Node14</title>
<path fill="none" stroke="midnightblue" d="M4139.84,-159.34C4257.12,-158.01 4516.84,-150.18 4731,-109 4821.96,-91.51 4924.35,-55.75 4981.73,-34.18"/>
<polygon fill="midnightblue" stroke="midnightblue" points="4983.11,-37.4 4991.22,-30.58 4980.63,-30.85 4983.11,-37.4"/>
</g>
<!-- Node50&#45;&gt;Node15 -->
<g id="edge115" class="edge">
<title>Node50&#45;&gt;Node15</title>
<path fill="none" stroke="midnightblue" d="M4139.68,-155.74C4222.48,-149.92 4372.5,-136.42 4498,-109 4593.68,-88.1 4702.78,-48.57 4754.99,-28.64"/>
<polygon fill="midnightblue" stroke="midnightblue" points="4756.27,-31.89 4764.35,-25.04 4753.76,-25.36 4756.27,-31.89"/>
</g>
<!-- Node50&#45;&gt;Node16 -->
<g id="edge109" class="edge">
<title>Node50&#45;&gt;Node16</title>
<path fill="none" stroke="midnightblue" d="M4014.35,-146.32C4011.53,-145.85 4008.74,-145.4 4006,-145 3813.87,-116.62 3585.32,-100.18 3470.9,-93.12"/>
<polygon fill="midnightblue" stroke="midnightblue" points="3471.05,-89.63 3460.85,-92.51 3470.62,-96.61 3471.05,-89.63"/>
</g>
<!-- Node50&#45;&gt;Node20 -->
<g id="edge111" class="edge">
<title>Node50&#45;&gt;Node20</title>
<path fill="none" stroke="midnightblue" d="M4054.46,-145.41C4019.33,-124.24 3948.72,-84.82 3883,-67 3700.47,-17.5 3647.34,-48.16 3459,-31 3432.04,-28.54 3402.35,-25.69 3376.61,-23.16"/>
<polygon fill="midnightblue" stroke="midnightblue" points="3376.88,-19.67 3366.59,-22.17 3376.2,-26.64 3376.88,-19.67"/>
</g>
<!-- Node50&#45;&gt;Node25 -->
<g id="edge113" class="edge">
<title>Node50&#45;&gt;Node25</title>
<path fill="none" stroke="midnightblue" d="M4078.67,-145.3C4080.33,-126.79 4081.56,-93.63 4073,-67 4069.02,-54.61 4061.12,-42.35 4054.06,-33.01"/>
<polygon fill="midnightblue" stroke="midnightblue" points="4056.66,-30.67 4047.69,-25.04 4051.2,-35.04 4056.66,-30.67"/>
</g>
<!-- Node50&#45;&gt;Node26 -->
<g id="edge114" class="edge">
<title>Node50&#45;&gt;Node26</title>
<path fill="none" stroke="midnightblue" d="M4014.31,-146.55C4011.5,-146.01 4008.72,-145.5 4006,-145 3790.78,-105.77 3736.8,-96.28 3520,-67 3383.54,-48.57 3223.61,-32.18 3132.8,-23.36"/>
<polygon fill="midnightblue" stroke="midnightblue" points="3132.91,-19.86 3122.62,-22.38 3132.24,-26.82 3132.91,-19.86"/>
</g>
<!-- Node50&#45;&gt;Node27 -->
<g id="edge116" class="edge">
<title>Node50&#45;&gt;Node27</title>
<path fill="none" stroke="midnightblue" d="M4014.36,-146.18C4011.54,-145.75 4008.75,-145.35 4006,-145 3706.24,-106.66 3618.8,-187.61 3327,-109 3287.46,-98.35 3284.23,-78.72 3245,-67 3177.09,-46.72 2986.88,-30.82 2870.3,-22.62"/>
<polygon fill="midnightblue" stroke="midnightblue" points="2870.52,-19.12 2860.3,-21.92 2870.04,-26.11 2870.52,-19.12"/>
</g>
<!-- Node50&#45;&gt;Node28 -->
<g id="edge117" class="edge">
<title>Node50&#45;&gt;Node28</title>
<path fill="none" stroke="midnightblue" d="M4139.65,-155.81C4211.44,-150.4 4332.06,-137.63 4432,-109 4501.8,-89 4578.6,-50.33 4616.73,-29.9"/>
<polygon fill="midnightblue" stroke="midnightblue" points="4618.44,-32.96 4625.56,-25.12 4615.1,-26.8 4618.44,-32.96"/>
</g>
<!-- Node51&#45;&gt;Node5 -->
<g id="edge123" class="edge">
<title>Node51&#45;&gt;Node5</title>
<path fill="none" stroke="midnightblue" d="M3167.48,-147.13C3162.59,-146.35 3157.72,-145.62 3153,-145 3049.59,-131.33 2781.16,-149.41 2685,-109 2658.87,-98.02 2662.35,-79.7 2637,-67 2572,-34.44 2486.75,-22.83 2438.22,-18.72"/>
<polygon fill="midnightblue" stroke="midnightblue" points="2438.39,-15.22 2428.15,-17.93 2437.84,-22.2 2438.39,-15.22"/>
</g>
<!-- Node51&#45;&gt;Node11 -->
<g id="edge119" class="edge">
<title>Node51&#45;&gt;Node11</title>
<path fill="none" stroke="midnightblue" d="M3240.89,-145.26C3257.3,-124.8 3290.38,-87.33 3327,-67 3367.41,-44.56 3418.05,-31.85 3457.73,-24.79"/>
<polygon fill="midnightblue" stroke="midnightblue" points="3458.55,-28.2 3467.83,-23.07 3457.38,-21.3 3458.55,-28.2"/>
</g>
<!-- Node51&#45;&gt;Node16 -->
<g id="edge120" class="edge">
<title>Node51&#45;&gt;Node16</title>
<path fill="none" stroke="midnightblue" d="M3263.59,-145.4C3289.92,-134.36 3326.73,-118.91 3355.17,-106.97"/>
<polygon fill="midnightblue" stroke="midnightblue" points="3356.6,-110.17 3364.46,-103.07 3353.89,-103.72 3356.6,-110.17"/>
</g>
<!-- Node51&#45;&gt;Node20 -->
<g id="edge122" class="edge">
<title>Node51&#45;&gt;Node20</title>
<path fill="none" stroke="midnightblue" d="M3167.39,-147.66C3162.52,-146.75 3157.68,-145.86 3153,-145 3058.34,-127.65 2887.87,-139.64 2951,-67 2969.87,-45.29 3144.8,-28.84 3243.33,-21.2"/>
<polygon fill="midnightblue" stroke="midnightblue" points="3243.79,-24.68 3253.49,-20.43 3243.25,-17.7 3243.79,-24.68"/>
</g>
<!-- Node51&#45;&gt;Node45 -->
<g id="edge121" class="edge">
<title>Node51&#45;&gt;Node45</title>
<path fill="none" stroke="midnightblue" d="M3167.39,-151.04C3150.41,-148.9 3132.02,-146.73 3115,-145 2907.45,-123.95 2854.49,-130.62 2647,-109 2619.89,-106.18 2590.15,-102.41 2564.21,-98.91"/>
<polygon fill="midnightblue" stroke="midnightblue" points="2564.48,-95.41 2554.1,-97.53 2563.54,-102.35 2564.48,-95.41"/>
</g>
<!-- Node52&#45;&gt;Node4 -->
<g id="edge125" class="edge">
<title>Node52&#45;&gt;Node4</title>
<path fill="none" stroke="midnightblue" d="M3349.14,-284.94C3357.12,-282.75 3365.85,-280.57 3374,-279 3511.93,-252.39 3555.2,-288.78 3688,-243 3732.46,-227.67 3777.81,-195.63 3802.38,-176.61"/>
<polygon fill="midnightblue" stroke="midnightblue" points="3804.76,-179.19 3810.45,-170.25 3800.43,-173.69 3804.76,-179.19"/>
</g>
<!-- Node52&#45;&gt;Node5 -->
<g id="edge126" class="edge">
<title>Node52&#45;&gt;Node5</title>
<path fill="none" stroke="midnightblue" d="M3277.24,-293.21C3143.8,-291.87 2730.47,-284.43 2391,-243 2233.35,-223.76 2141.23,-298.38 2040,-176 1948.09,-64.89 2252.08,-28.59 2361.93,-19.26"/>
<polygon fill="midnightblue" stroke="midnightblue" points="2362.26,-22.74 2371.94,-18.44 2361.68,-15.77 2362.26,-22.74"/>
</g>
<!-- Node52&#45;&gt;Node8 -->
<g id="edge127" class="edge">
<title>Node52&#45;&gt;Node8</title>
<path fill="none" stroke="midnightblue" d="M3277.42,-292.57C3069.25,-288 2181.25,-267.25 2060,-243 2055.18,-242.04 1932.28,-196.09 1872.31,-173.62"/>
<polygon fill="midnightblue" stroke="midnightblue" points="1873.51,-170.33 1862.91,-170.1 1871.05,-176.88 1873.51,-170.33"/>
</g>
<!-- Node52&#45;&gt;Node9 -->
<g id="edge128" class="edge">
<title>Node52&#45;&gt;Node9</title>
<path fill="none" stroke="midnightblue" d="M3277.29,-289.21C3213.97,-282.44 3093.33,-267.49 2993,-243 2915.81,-224.16 2828.1,-191.55 2782.77,-173.83"/>
<polygon fill="midnightblue" stroke="midnightblue" points="2783.82,-170.48 2773.23,-170.08 2781.26,-177 2783.82,-170.48"/>
</g>
<!-- Node52&#45;&gt;Node13 -->
<g id="edge129" class="edge">
<title>Node52&#45;&gt;Node13</title>
<path fill="none" stroke="midnightblue" d="M3348.85,-284.94C3356.9,-282.73 3365.75,-280.53 3374,-279 3531.22,-249.8 3574.54,-270.92 3732,-243 3786.66,-233.31 3798.44,-222.26 3853,-212 3983.24,-187.5 4021.09,-210.68 4149,-176 4209.82,-159.51 4276.12,-127.91 4315.33,-107.68"/>
<polygon fill="midnightblue" stroke="midnightblue" points="4316.97,-110.77 4324.22,-103.04 4313.73,-104.56 4316.97,-110.77"/>
</g>
<!-- Node52&#45;&gt;Node15 -->
<g id="edge150" class="edge">
<title>Node52&#45;&gt;Node15</title>
<path fill="none" stroke="midnightblue" d="M3347.71,-284.93C3356.04,-282.6 3365.33,-280.35 3374,-279 3760.81,-218.97 3865.83,-293.45 4254,-243 4390.77,-225.22 4425.63,-217.99 4557,-176 4629.65,-152.78 4654.68,-155.68 4715,-109 4742.1,-88.02 4764.41,-54.34 4776.41,-33.93"/>
<polygon fill="midnightblue" stroke="midnightblue" points="4779.54,-35.51 4781.45,-25.09 4773.46,-32.04 4779.54,-35.51"/>
</g>
<!-- Node52&#45;&gt;Node25 -->
<g id="edge148" class="edge">
<title>Node52&#45;&gt;Node25</title>
<path fill="none" stroke="midnightblue" d="M3348.56,-284.93C3356.69,-282.68 3365.64,-280.48 3374,-279 3563.72,-245.44 3614.83,-266.97 3806,-243 3984.42,-220.63 4029.39,-214.65 4205,-176 4315.25,-151.73 4381.51,-198.74 4450,-109 4461.33,-94.16 4462.37,-80.98 4450,-67 4428.64,-42.85 4234.99,-27.71 4121.63,-20.84"/>
<polygon fill="midnightblue" stroke="midnightblue" points="4121.79,-17.34 4111.59,-20.24 4121.37,-24.33 4121.79,-17.34"/>
</g>
<!-- Node52&#45;&gt;Node26 -->
<g id="edge149" class="edge">
<title>Node52&#45;&gt;Node26</title>
<path fill="none" stroke="midnightblue" d="M3325.67,-284.8C3338.47,-259.62 3370.86,-185.88 3335,-145 3254,-52.67 3142.49,-200.89 3061,-109 3043.21,-88.94 3048.2,-55.69 3053.82,-34.99"/>
<polygon fill="midnightblue" stroke="midnightblue" points="3057.24,-35.79 3056.79,-25.2 3050.54,-33.76 3057.24,-35.79"/>
</g>
<!-- Node52&#45;&gt;Node27 -->
<g id="edge151" class="edge">
<title>Node52&#45;&gt;Node27</title>
<path fill="none" stroke="midnightblue" d="M3323.13,-284.85C3328.88,-259.17 3341.75,-182.79 3302,-145 3226.41,-73.13 2923.47,-162.62 2834,-109 2806.05,-92.25 2789.1,-56.57 2780.94,-34.75"/>
<polygon fill="midnightblue" stroke="midnightblue" points="2784.15,-33.32 2777.54,-25.03 2777.54,-35.63 2784.15,-33.32"/>
</g>
<!-- Node52&#45;&gt;Node28 -->
<g id="edge152" class="edge">
<title>Node52&#45;&gt;Node28</title>
<path fill="none" stroke="midnightblue" d="M3348,-284.98C3356.27,-282.68 3365.44,-280.43 3374,-279 3617.79,-238.18 3683.49,-271.76 3929,-243 4262.71,-203.91 4458.92,-367.95 4673,-109 4691.49,-86.64 4671.08,-52.96 4655.44,-33.01"/>
<polygon fill="midnightblue" stroke="midnightblue" points="4658.01,-30.62 4648.95,-25.13 4652.61,-35.07 4658.01,-30.62"/>
</g>
<!-- Node52&#45;&gt;Node55 -->
<g id="edge130" class="edge">
<title>Node52&#45;&gt;Node55</title>
<path fill="none" stroke="midnightblue" d="M3350.62,-284.99C3358.21,-282.92 3366.39,-280.79 3374,-279 3441.18,-263.21 3519.06,-248.33 3571.12,-238.87"/>
<polygon fill="midnightblue" stroke="midnightblue" points="3571.96,-242.27 3581.17,-237.05 3570.71,-235.38 3571.96,-242.27"/>
</g>
<!-- Node52&#45;&gt;Node58 -->
<g id="edge139" class="edge">
<title>Node52&#45;&gt;Node58</title>
<path fill="none" stroke="midnightblue" d="M3282.66,-284.94C3227.01,-272.51 3124.44,-249.6 3068.63,-237.13"/>
<polygon fill="midnightblue" stroke="midnightblue" points="3069.3,-233.69 3058.78,-234.93 3067.77,-240.52 3069.3,-233.69"/>
</g>
<!-- Node55&#45;&gt;Node4 -->
<g id="edge131" class="edge">
<title>Node55&#45;&gt;Node4</title>
<path fill="none" stroke="midnightblue" d="M3655.36,-217.87C3688.99,-206.42 3748.48,-186.18 3786.26,-173.32"/>
<polygon fill="midnightblue" stroke="midnightblue" points="3787.5,-176.6 3795.84,-170.06 3785.24,-169.97 3787.5,-176.6"/>
</g>
<!-- Node55&#45;&gt;Node5 -->
<g id="edge132" class="edge">
<title>Node55&#45;&gt;Node5</title>
<path fill="none" stroke="midnightblue" d="M3581.34,-224.38C3477.1,-219.33 3235.48,-204.81 3159,-176 3136.61,-167.57 3137.52,-153.08 3115,-145 3014.73,-109.03 2730.99,-159.13 2637,-109 2616.05,-97.83 2623.94,-79.89 2604,-67 2552.9,-33.98 2481.82,-22.55 2438.46,-18.59"/>
<polygon fill="midnightblue" stroke="midnightblue" points="2438.59,-15.09 2428.33,-17.76 2438.01,-22.07 2438.59,-15.09"/>
</g>
<!-- Node55&#45;&gt;Node15 -->
<g id="edge136" class="edge">
<title>Node55&#45;&gt;Node15</title>
<path fill="none" stroke="midnightblue" d="M3678.68,-225.45C3836.05,-221.77 4329.84,-207.9 4486,-176 4572.5,-158.33 4596.17,-152.48 4673,-109 4711.37,-87.28 4749.76,-52.38 4770.43,-32.23"/>
<polygon fill="midnightblue" stroke="midnightblue" points="4773.04,-34.58 4777.69,-25.06 4768.12,-29.6 4773.04,-34.58"/>
</g>
<!-- Node55&#45;&gt;Node25 -->
<g id="edge134" class="edge">
<title>Node55&#45;&gt;Node25</title>
<path fill="none" stroke="midnightblue" d="M3678.59,-223.2C3845.07,-211.37 4384.81,-168.67 4432,-109 4443.58,-94.36 4444.33,-81.02 4432,-67 4411.86,-44.1 4230.67,-28.65 4121.81,-21.35"/>
<polygon fill="midnightblue" stroke="midnightblue" points="4121.72,-17.84 4111.51,-20.67 4121.26,-24.82 4121.72,-17.84"/>
</g>
<!-- Node55&#45;&gt;Node26 -->
<g id="edge135" class="edge">
<title>Node55&#45;&gt;Node26</title>
<path fill="none" stroke="midnightblue" d="M3585.37,-217.93C3549.09,-209.96 3497.19,-196.24 3455,-176 3433.43,-165.65 3433.37,-153.48 3411,-145 3343.68,-119.46 3144.57,-154.79 3089,-109 3067.09,-90.95 3061.46,-56.52 3060.17,-35.14"/>
<polygon fill="midnightblue" stroke="midnightblue" points="3063.67,-34.92 3059.83,-25.05 3056.67,-35.16 3063.67,-34.92"/>
</g>
<!-- Node55&#45;&gt;Node27 -->
<g id="edge137" class="edge">
<title>Node55&#45;&gt;Node27</title>
<path fill="none" stroke="midnightblue" d="M3581.46,-218.18C3535.81,-209.72 3465.89,-195.16 3407,-176 3373.87,-165.22 3368.79,-153.49 3335,-145 3153.72,-99.46 3092.63,-170.12 2916,-109 2866.5,-91.87 2817.32,-53.51 2792.19,-31.95"/>
<polygon fill="midnightblue" stroke="midnightblue" points="2794.18,-29.04 2784.35,-25.09 2789.57,-34.31 2794.18,-29.04"/>
</g>
<!-- Node55&#45;&gt;Node28 -->
<g id="edge138" class="edge">
<title>Node55&#45;&gt;Node28</title>
<path fill="none" stroke="midnightblue" d="M3678.67,-224.76C3873.7,-217.28 4591.3,-184.74 4655,-109 4672.62,-88.05 4660.97,-54.6 4650.96,-34.18"/>
<polygon fill="midnightblue" stroke="midnightblue" points="4653.92,-32.3 4646.17,-25.07 4647.72,-35.55 4653.92,-32.3"/>
</g>
<!-- Node55&#45;&gt;Node49 -->
<g id="edge133" class="edge">
<title>Node55&#45;&gt;Node49</title>
<path fill="none" stroke="midnightblue" d="M3615.97,-217.73C3600.97,-208.36 3576.7,-193.19 3557.15,-180.97"/>
<polygon fill="midnightblue" stroke="midnightblue" points="3558.88,-177.92 3548.54,-175.59 3555.17,-183.86 3558.88,-177.92"/>
</g>
<!-- Node58&#45;&gt;Node4 -->
<g id="edge140" class="edge">
<title>Node58&#45;&gt;Node4</title>
<path fill="none" stroke="midnightblue" d="M3058.68,-226.92C3158.42,-227.9 3499.05,-227.03 3774,-176 3778.25,-175.21 3782.66,-174.17 3786.99,-173"/>
<polygon fill="midnightblue" stroke="midnightblue" points="3788.26,-176.28 3796.87,-170.11 3786.29,-169.56 3788.26,-176.28"/>
</g>
<!-- Node58&#45;&gt;Node5 -->
<g id="edge141" class="edge">
<title>Node58&#45;&gt;Node5</title>
<path fill="none" stroke="midnightblue" d="M3029.84,-217.82C3028.99,-200.66 3024.43,-162.58 3001,-145 2946.25,-103.92 2432.97,-158.8 2386,-109 2367.13,-89 2379.34,-55 2389.78,-34.26"/>
<polygon fill="midnightblue" stroke="midnightblue" points="2392.96,-35.73 2394.61,-25.27 2386.8,-32.42 2392.96,-35.73"/>
</g>
<!-- Node58&#45;&gt;Node9 -->
<g id="edge143" class="edge">
<title>Node58&#45;&gt;Node9</title>
<path fill="none" stroke="midnightblue" d="M3001.3,-219.79C2953.27,-208.56 2856.2,-185.86 2798.38,-172.34"/>
<polygon fill="midnightblue" stroke="midnightblue" points="2798.94,-168.88 2788.41,-170.01 2797.35,-175.7 2798.94,-168.88"/>
</g>
<!-- Node58&#45;&gt;Node23 -->
<g id="edge146" class="edge">
<title>Node58&#45;&gt;Node23</title>
<path fill="none" stroke="midnightblue" d="M3001.41,-225.64C2924.24,-223.33 2705.21,-216.83 2523,-212 1868.81,-194.65 1703.77,-222.45 1051,-176 924.44,-166.99 595.1,-170.27 484,-109 462.97,-97.4 468.6,-82.2 450,-67 434.37,-54.23 414.99,-43.35 397.68,-35.01"/>
<polygon fill="midnightblue" stroke="midnightblue" points="398.85,-31.69 388.31,-30.63 395.89,-38.03 398.85,-31.69"/>
</g>
<!-- Node58&#45;&gt;Node24 -->
<g id="edge147" class="edge">
<title>Node58&#45;&gt;Node24</title>
<path fill="none" stroke="midnightblue" d="M3024.83,-218C3012.99,-198.86 2983.76,-153.41 2968,-145 2909.48,-113.75 2438.09,-114.78 2372,-109 2096.86,-84.94 1770.38,-43.56 1632.15,-25.44"/>
<polygon fill="midnightblue" stroke="midnightblue" points="1632.5,-21.95 1622.13,-24.12 1631.59,-28.89 1632.5,-21.95"/>
</g>
<!-- Node58&#45;&gt;Node44 -->
<g id="edge142" class="edge">
<title>Node58&#45;&gt;Node44</title>
<path fill="none" stroke="midnightblue" d="M3011.94,-217.87C2988.77,-206.8 2948.37,-187.49 2921.4,-174.6"/>
<polygon fill="midnightblue" stroke="midnightblue" points="2922.67,-171.32 2912.13,-170.17 2919.65,-177.64 2922.67,-171.32"/>
</g>
<!-- Node58&#45;&gt;Node45 -->
<g id="edge144" class="edge">
<title>Node58&#45;&gt;Node45</title>
<path fill="none" stroke="midnightblue" d="M3034.75,-217.8C3043.04,-201.28 3057.6,-165.22 3039,-145 3006.54,-109.71 2656.55,-115.15 2609,-109 2589.07,-106.42 2567.31,-102.81 2548.19,-99.36"/>
<polygon fill="midnightblue" stroke="midnightblue" points="2548.63,-95.88 2538.17,-97.52 2547.37,-102.76 2548.63,-95.88"/>
</g>
<!-- Node58&#45;&gt;Node51 -->
<g id="edge145" class="edge">
<title>Node58&#45;&gt;Node51</title>
<path fill="none" stroke="midnightblue" d="M3056.56,-217.87C3087.22,-207.9 3138.41,-191.27 3177.25,-178.64"/>
<polygon fill="midnightblue" stroke="midnightblue" points="3178.41,-181.95 3186.84,-175.53 3176.24,-175.29 3178.41,-181.95"/>
</g>
<!-- Node64&#45;&gt;Node4 -->
<g id="edge160" class="edge">
<title>Node64&#45;&gt;Node4</title>
<path fill="none" stroke="midnightblue" d="M2514.29,-224.72C2759.51,-217.05 3711.16,-186.71 3774,-176 3778.48,-175.24 3783.12,-174.17 3787.67,-172.95"/>
<polygon fill="midnightblue" stroke="midnightblue" points="3788.77,-176.27 3797.38,-170.1 3786.8,-169.55 3788.77,-176.27"/>
</g>
<!-- Node64&#45;&gt;Node5 -->
<g id="edge161" class="edge">
<title>Node64&#45;&gt;Node5</title>
<path fill="none" stroke="midnightblue" d="M2435.34,-212.32C2420.43,-202.42 2400.28,-188.74 2383,-176 2365.18,-162.86 2364.09,-154.31 2344,-145 2269.58,-110.51 2215.03,-172.4 2163,-109 2107.22,-41.03 2281.49,-22.84 2361.77,-18.11"/>
<polygon fill="midnightblue" stroke="midnightblue" points="2362.19,-21.59 2371.98,-17.55 2361.8,-14.6 2362.19,-21.59"/>
</g>
<!-- Node64&#45;&gt;Node6 -->
<g id="edge163" class="edge">
<title>Node64&#45;&gt;Node6</title>
<path fill="none" stroke="midnightblue" d="M2399.79,-225.88C2096.32,-222.46 685.47,-205.03 598,-176 575.3,-168.46 575.48,-155.54 554,-145 532.62,-134.51 477.64,-118.08 433.66,-105.73"/>
<polygon fill="midnightblue" stroke="midnightblue" points="434.47,-102.32 423.89,-103 432.58,-109.06 434.47,-102.32"/>
</g>
<!-- Node64&#45;&gt;Node7 -->
<g id="edge164" class="edge">
<title>Node64&#45;&gt;Node7</title>
<path fill="none" stroke="midnightblue" d="M2399.75,-222.45C2280.16,-213.98 1995.11,-193.69 1756,-176 1718.42,-173.22 1676.69,-170.06 1641.84,-167.4"/>
<polygon fill="midnightblue" stroke="midnightblue" points="1641.97,-163.9 1631.73,-166.63 1641.44,-170.88 1641.97,-163.9"/>
</g>
<!-- Node64&#45;&gt;Node8 -->
<g id="edge168" class="edge">
<title>Node64&#45;&gt;Node8</title>
<path fill="none" stroke="midnightblue" d="M2399.78,-220.47C2291,-209.01 2053.8,-184.02 1925.88,-170.55"/>
<polygon fill="midnightblue" stroke="midnightblue" points="1926.04,-167.04 1915.73,-169.48 1925.31,-174.01 1926.04,-167.04"/>
</g>
<!-- Node64&#45;&gt;Node9 -->
<g id="edge170" class="edge">
<title>Node64&#45;&gt;Node9</title>
<path fill="none" stroke="midnightblue" d="M2514.23,-213.89C2569.21,-201.78 2651.37,-183.67 2703.3,-172.23"/>
<polygon fill="midnightblue" stroke="midnightblue" points="2704.25,-175.6 2713.26,-170.03 2702.75,-168.77 2704.25,-175.6"/>
</g>
<!-- Node64&#45;&gt;Node14 -->
<g id="edge167" class="edge">
<title>Node64&#45;&gt;Node14</title>
<path fill="none" stroke="midnightblue" d="M2514.11,-224.94C2612.09,-222.27 2818.52,-216.65 2993,-212 3603.22,-195.75 3757.83,-228.46 4366,-176 4570.08,-158.4 4625.41,-166.57 4822,-109 4884.79,-90.61 4953.21,-56.67 4992.99,-35.41"/>
<polygon fill="midnightblue" stroke="midnightblue" points="4994.85,-38.38 5001.99,-30.55 4991.53,-32.22 4994.85,-38.38"/>
</g>
<!-- Node64&#45;&gt;Node15 -->
<g id="edge174" class="edge">
<title>Node64&#45;&gt;Node15</title>
<path fill="none" stroke="midnightblue" d="M2514.19,-224.94C2822.86,-216.51 4276.39,-176.77 4282,-176 4469.51,-150.19 4682.01,-62.45 4757.53,-29.31"/>
<polygon fill="midnightblue" stroke="midnightblue" points="4759.13,-32.43 4766.86,-25.19 4756.3,-26.03 4759.13,-32.43"/>
</g>
<!-- Node64&#45;&gt;Node25 -->
<g id="edge172" class="edge">
<title>Node64&#45;&gt;Node25</title>
<path fill="none" stroke="midnightblue" d="M2514.05,-224.74C2759.18,-217.11 3711.85,-186.82 3741,-176 3761.76,-168.29 3761.3,-156.86 3780,-145 3858.92,-94.93 3960.09,-49.91 4009.75,-28.94"/>
<polygon fill="midnightblue" stroke="midnightblue" points="4011.1,-32.17 4018.97,-25.08 4008.4,-25.71 4011.1,-32.17"/>
</g>
<!-- Node64&#45;&gt;Node26 -->
<g id="edge173" class="edge">
<title>Node64&#45;&gt;Node26</title>
<path fill="none" stroke="midnightblue" d="M2502.67,-212.46C2520.03,-204.65 2538.01,-192.97 2548,-176 2554.99,-164.13 2556.81,-155.59 2548,-145 2491.62,-77.26 2409.38,-176.74 2353,-109 2341.06,-94.65 2340.27,-80.65 2353,-67 2392.2,-24.97 2811.68,-35.18 2869,-31 2907.94,-28.16 2951.34,-24.88 2986.91,-22.15"/>
<polygon fill="midnightblue" stroke="midnightblue" points="2987.51,-25.62 2997.21,-21.36 2986.97,-18.64 2987.51,-25.62"/>
</g>
<!-- Node64&#45;&gt;Node27 -->
<g id="edge175" class="edge">
<title>Node64&#45;&gt;Node27</title>
<path fill="none" stroke="midnightblue" d="M2485.94,-212.39C2514.98,-196.39 2552.64,-169.35 2532,-145 2468.78,-70.43 2378.22,-183.57 2315,-109 2302.93,-94.76 2302.54,-80.9 2315,-67 2338.87,-40.37 2552.06,-26.35 2679.67,-20.29"/>
<polygon fill="midnightblue" stroke="midnightblue" points="2680.02,-23.77 2689.84,-19.81 2679.69,-16.78 2680.02,-23.77"/>
</g>
<!-- Node64&#45;&gt;Node28 -->
<g id="edge176" class="edge">
<title>Node64&#45;&gt;Node28</title>
<path fill="none" stroke="midnightblue" d="M2514.18,-224.92C2804.95,-216.86 4107.49,-180.57 4149,-176 4305.99,-158.7 4351.44,-167.87 4498,-109 4546.81,-89.4 4596.83,-52.37 4622.82,-31.6"/>
<polygon fill="midnightblue" stroke="midnightblue" points="4625.11,-34.25 4630.67,-25.23 4620.7,-28.81 4625.11,-34.25"/>
</g>
<!-- Node64&#45;&gt;Node44 -->
<g id="edge169" class="edge">
<title>Node64&#45;&gt;Node44</title>
<path fill="none" stroke="midnightblue" d="M2514.05,-219.55C2585.67,-210.61 2712.22,-194.04 2820,-176 2827.36,-174.77 2835.11,-173.36 2842.72,-171.93"/>
<polygon fill="midnightblue" stroke="midnightblue" points="2843.43,-175.36 2852.59,-170.03 2842.11,-168.48 2843.43,-175.36"/>
</g>
<!-- Node64&#45;&gt;Node45 -->
<g id="edge171" class="edge">
<title>Node64&#45;&gt;Node45</title>
<path fill="none" stroke="midnightblue" d="M2514.32,-222.35C2546.01,-216.78 2582.93,-204.18 2603,-176 2626.55,-142.94 2572.24,-115.69 2532.41,-100.94"/>
<polygon fill="midnightblue" stroke="midnightblue" points="2533.49,-97.61 2522.9,-97.55 2531.14,-104.2 2533.49,-97.61"/>
</g>
<!-- Node65 -->
<g id="node47" class="node">
<title>Node65</title>
<g id="a_node47"><a xlink:title=" ">
<polygon fill="none" stroke="#bfbfbf" points="2197.5,-151 2197.5,-170 2334.5,-170 2334.5,-151 2197.5,-151"/>
<text text-anchor="middle" x="2266" y="-158" font-family="Helvetica,sans-Serif" font-size="10.00">seerep&#45;msgs/image.pb.h</text>
</a>
</g>
</g>
<!-- Node64&#45;&gt;Node65 -->
<g id="edge162" class="edge">
<title>Node64&#45;&gt;Node65</title>
<path fill="none" stroke="midnightblue" d="M2415.56,-212.4C2381.15,-200.69 2332.8,-184.23 2300.48,-173.23"/>
<polygon fill="midnightblue" stroke="midnightblue" points="2301.59,-169.92 2291,-170.01 2299.34,-176.54 2301.59,-169.92"/>
</g>
<!-- Node66 -->
<g id="node48" class="node">
<title>Node66</title>
<g id="a_node48"><a xlink:title=" ">
<polygon fill="none" stroke="#bfbfbf" points="2391.5,-145.5 2391.5,-175.5 2522.5,-175.5 2522.5,-145.5 2391.5,-145.5"/>
<text text-anchor="start" x="2399.5" y="-163.5" font-family="Helvetica,sans-Serif" font-size="10.00">seerep&#45;msgs/transform</text>
<text text-anchor="middle" x="2457" y="-152.5" font-family="Helvetica,sans-Serif" font-size="10.00">_stamped.pb.h</text>
</a>
</g>
</g>
<!-- Node64&#45;&gt;Node66 -->
<g id="edge165" class="edge">
<title>Node64&#45;&gt;Node66</title>
<path fill="none" stroke="midnightblue" d="M2457,-212.4C2457,-204.64 2457,-194.81 2457,-185.86"/>
<polygon fill="midnightblue" stroke="midnightblue" points="2460.5,-185.58 2457,-175.58 2453.5,-185.58 2460.5,-185.58"/>
</g>
<!-- Node67 -->
<g id="node49" class="node">
<title>Node67</title>
<g id="a_node49"><a xlink:title=" ">
<polygon fill="none" stroke="#bfbfbf" points="2048.5,-145.5 2048.5,-175.5 2179.5,-175.5 2179.5,-145.5 2048.5,-145.5"/>
<text text-anchor="start" x="2056.5" y="-163.5" font-family="Helvetica,sans-Serif" font-size="10.00">seerep&#45;msgs/transform</text>
<text text-anchor="middle" x="2114" y="-152.5" font-family="Helvetica,sans-Serif" font-size="10.00">_stamped_query.pb.h</text>
</a>
</g>
</g>
<!-- Node64&#45;&gt;Node67 -->
<g id="edge166" class="edge">
<title>Node64&#45;&gt;Node67</title>
<path fill="none" stroke="midnightblue" d="M2400,-215.84C2347.96,-206.09 2268.62,-191.18 2189.94,-176.17"/>
<polygon fill="midnightblue" stroke="midnightblue" points="2190.33,-172.69 2179.85,-174.25 2189.01,-179.56 2190.33,-172.69"/>
</g>
</g>
</svg>
