<?xml version="1.0" encoding="UTF-8" standalone="no"?>
<!DOCTYPE svg PUBLIC "-//W3C//DTD SVG 1.1//EN"
 "http://www.w3.org/Graphics/SVG/1.1/DTD/svg11.dtd">
<!-- Generated by graphviz version 2.43.0 (0)
 -->
<!-- Title: seerep&#45;srv/seerep&#45;server/src/pb&#45;point&#45;cloud&#45;service.cpp Pages: 1 -->
<svg width="4405pt" height="631pt"
 viewBox="0.00 0.00 4405.37 631.00" xmlns="http://www.w3.org/2000/svg" xmlns:xlink="http://www.w3.org/1999/xlink">
<g id="graph0" class="graph" transform="scale(1 1) rotate(0) translate(4 627)">
<title>seerep&#45;srv/seerep&#45;server/src/pb&#45;point&#45;cloud&#45;service.cpp</title>
<!-- Node1 -->
<g id="node1" class="node">
<title>Node1</title>
<g id="a_node1"><a xlink:title=" ">
<polygon fill="#bfbfbf" stroke="black" points="1067.64,-592.5 1067.64,-622.5 1234.64,-622.5 1234.64,-592.5 1067.64,-592.5"/>
<text text-anchor="start" x="1075.64" y="-610.5" font-family="Helvetica,sans-Serif" font-size="10.00">seerep&#45;srv/seerep&#45;server</text>
<text text-anchor="middle" x="1151.14" y="-599.5" font-family="Helvetica,sans-Serif" font-size="10.00">/src/pb&#45;point&#45;cloud&#45;service.cpp</text>
</a>
</g>
</g>
<!-- Node2 -->
<g id="node2" class="node">
<title>Node2</title>
<g id="a_node2"><a xlink:href="pb-point-cloud-service_8h.html" target="_top" xlink:title=" ">
<polygon fill="none" stroke="black" points="1087.14,-525.5 1087.14,-555.5 1215.14,-555.5 1215.14,-525.5 1087.14,-525.5"/>
<text text-anchor="start" x="1095.14" y="-543.5" font-family="Helvetica,sans-Serif" font-size="10.00">seerep&#45;server/pb&#45;point</text>
<text text-anchor="middle" x="1151.14" y="-532.5" font-family="Helvetica,sans-Serif" font-size="10.00">&#45;cloud&#45;service.h</text>
</a>
</g>
</g>
<!-- Node1&#45;&gt;Node2 -->
<g id="edge1" class="edge">
<title>Node1&#45;&gt;Node2</title>
<path fill="none" stroke="midnightblue" d="M1151.14,-592.4C1151.14,-584.64 1151.14,-574.81 1151.14,-565.86"/>
<polygon fill="midnightblue" stroke="midnightblue" points="1154.64,-565.58 1151.14,-555.58 1147.64,-565.58 1154.64,-565.58"/>
</g>
<!-- Node3 -->
<g id="node3" class="node">
<title>Node3</title>
<g id="a_node3"><a xlink:title=" ">
<polygon fill="none" stroke="#bfbfbf" points="902.14,-458.5 902.14,-488.5 1034.14,-488.5 1034.14,-458.5 902.14,-458.5"/>
<text text-anchor="start" x="910.14" y="-476.5" font-family="Helvetica,sans-Serif" font-size="10.00">seerep&#45;com/point&#45;cloud</text>
<text text-anchor="middle" x="968.14" y="-465.5" font-family="Helvetica,sans-Serif" font-size="10.00">&#45;service.grpc.pb.h</text>
</a>
</g>
</g>
<!-- Node2&#45;&gt;Node3 -->
<g id="edge2" class="edge">
<title>Node2&#45;&gt;Node3</title>
<path fill="none" stroke="midnightblue" d="M1111.43,-525.4C1083.85,-515.6 1046.91,-502.48 1017.45,-492.02"/>
<polygon fill="midnightblue" stroke="midnightblue" points="1018.36,-488.63 1007.77,-488.58 1016.02,-495.22 1018.36,-488.63"/>
</g>
<!-- Node4 -->
<g id="node4" class="node">
<title>Node4</title>
<g id="a_node4"><a xlink:href="core-pb-pointcloud_8h.html" target="_top" xlink:title=" ">
<polygon fill="none" stroke="black" points="1052.14,-458.5 1052.14,-488.5 1166.14,-488.5 1166.14,-458.5 1052.14,-458.5"/>
<text text-anchor="start" x="1060.14" y="-476.5" font-family="Helvetica,sans-Serif" font-size="10.00">seerep&#45;core&#45;pb/core</text>
<text text-anchor="middle" x="1109.14" y="-465.5" font-family="Helvetica,sans-Serif" font-size="10.00">&#45;pb&#45;pointcloud.h</text>
</a>
</g>
</g>
<!-- Node2&#45;&gt;Node4 -->
<g id="edge3" class="edge">
<title>Node2&#45;&gt;Node4</title>
<path fill="none" stroke="midnightblue" d="M1142.02,-525.4C1136.68,-517.13 1129.82,-506.51 1123.74,-497.1"/>
<polygon fill="midnightblue" stroke="midnightblue" points="1126.6,-495.08 1118.23,-488.58 1120.72,-498.88 1126.6,-495.08"/>
</g>
<!-- Node38 -->
<g id="node33" class="node">
<title>Node38</title>
<g id="a_node33"><a xlink:href="core_8h.html" target="_top" xlink:title=" ">
<polygon fill="none" stroke="black" points="2349.64,-402.5 2349.64,-421.5 2456.64,-421.5 2456.64,-402.5 2349.64,-402.5"/>
<text text-anchor="middle" x="2403.14" y="-409.5" font-family="Helvetica,sans-Serif" font-size="10.00">seerep&#45;core/core.h</text>
</a>
</g>
</g>
<!-- Node2&#45;&gt;Node38 -->
<g id="edge175" class="edge">
<title>Node2&#45;&gt;Node38</title>
<path fill="none" stroke="midnightblue" d="M1157.23,-525.47C1166.43,-506.28 1185.83,-472.57 1214.14,-458 1264.44,-432.11 2099.71,-417.57 2339.34,-413.92"/>
<polygon fill="midnightblue" stroke="midnightblue" points="2339.68,-417.42 2349.63,-413.77 2339.58,-410.42 2339.68,-417.42"/>
</g>
<!-- Node64 -->
<g id="node50" class="node">
<title>Node64</title>
<g id="a_node50"><a xlink:title=" ">
<polygon fill="none" stroke="#bfbfbf" points="1222.64,-464 1222.64,-483 1275.64,-483 1275.64,-464 1222.64,-464"/>
<text text-anchor="middle" x="1249.14" y="-471" font-family="Helvetica,sans-Serif" font-size="10.00">util.hpp</text>
</a>
</g>
</g>
<!-- Node2&#45;&gt;Node64 -->
<g id="edge176" class="edge">
<title>Node2&#45;&gt;Node64</title>
<path fill="none" stroke="midnightblue" d="M1172.4,-525.4C1188.83,-514.5 1211.48,-499.48 1227.9,-488.58"/>
<polygon fill="midnightblue" stroke="midnightblue" points="1229.91,-491.45 1236.31,-483.01 1226.04,-485.62 1229.91,-491.45"/>
</g>
<!-- Node5 -->
<g id="node5" class="node">
<title>Node5</title>
<g id="a_node5"><a xlink:title=" ">
<polygon fill="none" stroke="#bfbfbf" points="3608.64,-140 3608.64,-159 3673.64,-159 3673.64,-140 3608.64,-140"/>
<text text-anchor="middle" x="3641.14" y="-147" font-family="Helvetica,sans-Serif" font-size="10.00">functional</text>
</a>
</g>
</g>
<!-- Node4&#45;&gt;Node5 -->
<g id="edge4" class="edge">
<title>Node4&#45;&gt;Node5</title>
<path fill="none" stroke="midnightblue" d="M1166.23,-463.47C1181.74,-461.33 1198.55,-459.3 1214.14,-458 2104,-383.98 2346.59,-546.27 3221.14,-366 3376.17,-334.04 3420.2,-320.96 3551.14,-232 3580.01,-212.38 3609.2,-184.03 3626.2,-166.46"/>
<polygon fill="midnightblue" stroke="midnightblue" points="3628.75,-168.87 3633.12,-159.22 3623.68,-164.04 3628.75,-168.87"/>
</g>
<!-- Node6 -->
<g id="node6" class="node">
<title>Node6</title>
<g id="a_node6"><a xlink:title=" ">
<polygon fill="none" stroke="#bfbfbf" points="1649.14,-6 1649.14,-25 1705.14,-25 1705.14,-6 1649.14,-6"/>
<text text-anchor="middle" x="1677.14" y="-13" font-family="Helvetica,sans-Serif" font-size="10.00">optional</text>
</a>
</g>
</g>
<!-- Node4&#45;&gt;Node6 -->
<g id="edge5" class="edge">
<title>Node4&#45;&gt;Node6</title>
<path fill="none" stroke="midnightblue" d="M1051.93,-459.79C1048.96,-459.18 1046.01,-458.57 1043.14,-458 915.7,-432.54 468.14,-481.45 468.14,-351.5 468.14,-351.5 468.14,-351.5 468.14,-215.5 468.14,-148.96 403.06,-115.01 449.14,-67 459.7,-55.99 1432.06,-24.33 1638.78,-17.72"/>
<polygon fill="midnightblue" stroke="midnightblue" points="1638.97,-21.21 1648.85,-17.4 1638.75,-14.22 1638.97,-21.21"/>
</g>
<!-- Node7 -->
<g id="node7" class="node">
<title>Node7</title>
<g id="a_node7"><a xlink:title=" ">
<polygon fill="none" stroke="#bfbfbf" points="15.64,-67.5 15.64,-97.5 154.64,-97.5 154.64,-67.5 15.64,-67.5"/>
<text text-anchor="start" x="23.64" y="-85.5" font-family="Helvetica,sans-Serif" font-size="10.00">seerep&#45;msgs/point_cloud</text>
<text text-anchor="middle" x="85.14" y="-74.5" font-family="Helvetica,sans-Serif" font-size="10.00">_2.pb.h</text>
</a>
</g>
</g>
<!-- Node4&#45;&gt;Node7 -->
<g id="edge6" class="edge">
<title>Node4&#45;&gt;Node7</title>
<path fill="none" stroke="midnightblue" d="M1052,-459.38C1049.01,-458.87 1046.04,-458.41 1043.14,-458 783.39,-421.75 714.33,-454.94 454.14,-422 290.22,-401.25 89.14,-516.72 89.14,-351.5 89.14,-351.5 89.14,-351.5 89.14,-215.5 89.14,-177.99 87.5,-134.5 86.32,-108"/>
<polygon fill="midnightblue" stroke="midnightblue" points="89.81,-107.58 85.85,-97.75 82.81,-107.91 89.81,-107.58"/>
</g>
<!-- Node8 -->
<g id="node8" class="node">
<title>Node8</title>
<g id="a_node8"><a xlink:title=" ">
<polygon fill="none" stroke="#bfbfbf" points="1018.64,-140 1018.64,-159 1151.64,-159 1151.64,-140 1018.64,-140"/>
<text text-anchor="middle" x="1085.14" y="-147" font-family="Helvetica,sans-Serif" font-size="10.00">seerep&#45;msgs/query.pb.h</text>
</a>
</g>
</g>
<!-- Node4&#45;&gt;Node8 -->
<g id="edge7" class="edge">
<title>Node4&#45;&gt;Node8</title>
<path fill="none" stroke="midnightblue" d="M1052.13,-458.71C1006.82,-447.17 949.93,-431.17 943.14,-422 883.8,-341.93 917.12,-277.38 981.14,-201 996.61,-182.54 1020.42,-170.29 1041.36,-162.49"/>
<polygon fill="midnightblue" stroke="midnightblue" points="1042.76,-165.7 1051.05,-159.1 1040.46,-159.09 1042.76,-165.7"/>
</g>
<!-- Node9 -->
<g id="node9" class="node">
<title>Node9</title>
<g id="a_node9"><a xlink:title=" ">
<polygon fill="none" stroke="#bfbfbf" points="1169.64,-140 1169.64,-159 1320.64,-159 1320.64,-140 1169.64,-140"/>
<text text-anchor="middle" x="1245.14" y="-147" font-family="Helvetica,sans-Serif" font-size="10.00">seerep&#45;msgs/query&#45;result.h</text>
</a>
</g>
</g>
<!-- Node4&#45;&gt;Node9 -->
<g id="edge8" class="edge">
<title>Node4&#45;&gt;Node9</title>
<path fill="none" stroke="midnightblue" d="M1099.14,-458.24C1092.95,-448.52 1085.54,-435.09 1082.14,-422 1072.4,-384.58 1067.39,-371.14 1081.14,-335 1110.32,-258.23 1187.71,-193.01 1224.78,-165.07"/>
<polygon fill="midnightblue" stroke="midnightblue" points="1226.92,-167.84 1232.88,-159.08 1222.76,-162.21 1226.92,-167.84"/>
</g>
<!-- Node10 -->
<g id="node10" class="node">
<title>Node10</title>
<g id="a_node10"><a xlink:title=" ">
<polygon fill="none" stroke="#bfbfbf" points="3768.14,-140 3768.14,-159 3886.14,-159 3886.14,-140 3768.14,-140"/>
<text text-anchor="middle" x="3827.14" y="-147" font-family="Helvetica,sans-Serif" font-size="10.00">seerep&#45;msgs/query.h</text>
</a>
</g>
</g>
<!-- Node4&#45;&gt;Node10 -->
<g id="edge9" class="edge">
<title>Node4&#45;&gt;Node10</title>
<path fill="none" stroke="midnightblue" d="M1166.22,-463.38C1181.73,-461.24 1198.54,-459.23 1214.14,-458 1996.75,-396.2 2195.7,-453.03 2980.14,-422 3113.59,-416.72 4180.14,-485.06 4180.14,-351.5 4180.14,-351.5 4180.14,-351.5 4180.14,-282.5 4180.14,-221.38 3992.12,-179.16 3890.52,-160.82"/>
<polygon fill="midnightblue" stroke="midnightblue" points="3890.82,-157.31 3880.37,-159.01 3889.6,-164.21 3890.82,-157.31"/>
</g>
<!-- Node11 -->
<g id="node11" class="node">
<title>Node11</title>
<g id="a_node11"><a xlink:href="hdf5-pb-pointcloud_8h.html" target="_top" xlink:title=" ">
<polygon fill="none" stroke="black" points="699.14,-201.5 699.14,-231.5 815.14,-231.5 815.14,-201.5 699.14,-201.5"/>
<text text-anchor="start" x="707.14" y="-219.5" font-family="Helvetica,sans-Serif" font-size="10.00">seerep&#45;hdf5&#45;pb/hdf5</text>
<text text-anchor="middle" x="757.14" y="-208.5" font-family="Helvetica,sans-Serif" font-size="10.00">&#45;pb&#45;pointcloud.h</text>
</a>
</g>
</g>
<!-- Node4&#45;&gt;Node11 -->
<g id="edge10" class="edge">
<title>Node4&#45;&gt;Node11</title>
<path fill="none" stroke="midnightblue" d="M1051.91,-459.87C1048.94,-459.24 1046,-458.61 1043.14,-458 965.03,-441.43 931.2,-469.65 867.14,-422 805.41,-376.09 774.58,-284.99 762.89,-241.59"/>
<polygon fill="midnightblue" stroke="midnightblue" points="766.21,-240.44 760.32,-231.63 759.43,-242.19 766.21,-240.44"/>
</g>
<!-- Node16 -->
<g id="node16" class="node">
<title>Node16</title>
<g id="a_node16"><a xlink:title=" ">
<polygon fill="none" stroke="#bfbfbf" points="3314.64,-6 3314.64,-25 3427.64,-25 3427.64,-6 3314.64,-6"/>
<text text-anchor="middle" x="3371.14" y="-13" font-family="Helvetica,sans-Serif" font-size="10.00">boost/uuid/uuid.hpp</text>
</a>
</g>
</g>
<!-- Node4&#45;&gt;Node16 -->
<g id="edge172" class="edge">
<title>Node4&#45;&gt;Node16</title>
<path fill="none" stroke="midnightblue" d="M1166.22,-463.31C1181.72,-461.17 1198.54,-459.18 1214.14,-458 1809.39,-413.08 3305.48,-474.22 3900.14,-422 4093.93,-404.98 4332.14,-546.04 4332.14,-351.5 4332.14,-351.5 4332.14,-351.5 4332.14,-148.5 4332.14,-115.58 4568.1,-163 4136.14,-67 4003.99,-37.63 3598.87,-23.05 3438,-18.3"/>
<polygon fill="midnightblue" stroke="midnightblue" points="3437.86,-14.79 3427.76,-18 3437.65,-21.79 3437.86,-14.79"/>
</g>
<!-- Node24 -->
<g id="node21" class="node">
<title>Node24</title>
<g id="a_node21"><a xlink:title=" ">
<polygon fill="none" stroke="#bfbfbf" points="2093.64,-73 2093.64,-92 2236.64,-92 2236.64,-73 2093.64,-73"/>
<text text-anchor="middle" x="2165.14" y="-80" font-family="Helvetica,sans-Serif" font-size="10.00">boost/functional/hash.hpp</text>
</a>
</g>
</g>
<!-- Node4&#45;&gt;Node24 -->
<g id="edge170" class="edge">
<title>Node4&#45;&gt;Node24</title>
<path fill="none" stroke="midnightblue" d="M1110.86,-458.28C1115.17,-429.53 1129.28,-364.71 1171.14,-335 1384.87,-183.28 2169.07,-425.26 2346.14,-232 2399.15,-174.13 2269.22,-119.08 2202.16,-95.51"/>
<polygon fill="midnightblue" stroke="midnightblue" points="2202.96,-92.09 2192.36,-92.14 2200.68,-98.7 2202.96,-92.09"/>
</g>
<!-- Node25 -->
<g id="node22" class="node">
<title>Node25</title>
<g id="a_node22"><a xlink:title=" ">
<polygon fill="none" stroke="#bfbfbf" points="1950.64,-73 1950.64,-92 2075.64,-92 2075.64,-73 1950.64,-73"/>
<text text-anchor="middle" x="2013.14" y="-80" font-family="Helvetica,sans-Serif" font-size="10.00">boost/lexical_cast.hpp</text>
</a>
</g>
</g>
<!-- Node4&#45;&gt;Node25 -->
<g id="edge171" class="edge">
<title>Node4&#45;&gt;Node25</title>
<path fill="none" stroke="midnightblue" d="M1051.77,-458.74C1002.36,-446.54 937.42,-429.53 927.14,-422 896.94,-399.91 881.14,-388.91 881.14,-351.5 881.14,-351.5 881.14,-351.5 881.14,-282.5 881.14,-195.37 930.78,-172.12 1009.14,-134 1087.15,-96.05 1702.51,-102.8 1789.14,-98 1839.67,-95.2 1896.59,-91.51 1940.4,-88.55"/>
<polygon fill="midnightblue" stroke="midnightblue" points="1940.65,-92.04 1950.39,-87.87 1940.18,-85.06 1940.65,-92.04"/>
</g>
<!-- Node26 -->
<g id="node23" class="node">
<title>Node26</title>
<g id="a_node23"><a xlink:title=" ">
<polygon fill="none" stroke="#bfbfbf" points="3545.14,-73 3545.14,-92 3715.14,-92 3715.14,-73 3545.14,-73"/>
<text text-anchor="middle" x="3630.14" y="-80" font-family="Helvetica,sans-Serif" font-size="10.00">boost/uuid/uuid_generators.hpp</text>
</a>
</g>
</g>
<!-- Node4&#45;&gt;Node26 -->
<g id="edge173" class="edge">
<title>Node4&#45;&gt;Node26</title>
<path fill="none" stroke="midnightblue" d="M1166.22,-463.33C1181.72,-461.19 1198.54,-459.19 1214.14,-458 2248.13,-378.92 2511.82,-481.36 3547.14,-422 3705.21,-412.94 4256.14,-509.83 4256.14,-351.5 4256.14,-351.5 4256.14,-351.5 4256.14,-215.5 4256.14,-108.37 3900.68,-87.74 3725.46,-84.08"/>
<polygon fill="midnightblue" stroke="midnightblue" points="3725.28,-80.58 3715.21,-83.88 3725.14,-87.57 3725.28,-80.58"/>
</g>
<!-- Node27 -->
<g id="node24" class="node">
<title>Node27</title>
<g id="a_node24"><a xlink:title=" ">
<polygon fill="none" stroke="#bfbfbf" points="3399.64,-73 3399.64,-92 3526.64,-92 3526.64,-73 3399.64,-73"/>
<text text-anchor="middle" x="3463.14" y="-80" font-family="Helvetica,sans-Serif" font-size="10.00">boost/uuid/uuid_io.hpp</text>
</a>
</g>
</g>
<!-- Node4&#45;&gt;Node27 -->
<g id="edge174" class="edge">
<title>Node4&#45;&gt;Node27</title>
<path fill="none" stroke="midnightblue" d="M1166.22,-460.05C1169.91,-459.33 1173.57,-458.64 1177.14,-458 1952.16,-318.71 2149.12,-301.34 2930.14,-201 3074.72,-182.42 3121.71,-221.38 3256.14,-165 3276.24,-156.57 3274.88,-144.21 3294.14,-134 3329.84,-115.08 3373.65,-102.24 3407.71,-94.25"/>
<polygon fill="midnightblue" stroke="midnightblue" points="3408.52,-97.65 3417.5,-92.02 3406.97,-90.83 3408.52,-97.65"/>
</g>
<!-- Node4&#45;&gt;Node38 -->
<g id="edge51" class="edge">
<title>Node4&#45;&gt;Node38</title>
<path fill="none" stroke="midnightblue" d="M1166.35,-459.97C1171,-459.21 1175.64,-458.54 1180.14,-458 1407.81,-430.75 2120.95,-417.46 2339.09,-413.96"/>
<polygon fill="midnightblue" stroke="midnightblue" points="2339.47,-417.46 2349.41,-413.8 2339.36,-410.46 2339.47,-417.46"/>
</g>
<!-- Node60 -->
<g id="node46" class="node">
<title>Node60</title>
<g id="a_node46"><a xlink:href="core-pb-conversion_8h.html" target="_top" xlink:title=" ">
<polygon fill="none" stroke="black" points="2223.14,-201.5 2223.14,-231.5 2337.14,-231.5 2337.14,-201.5 2223.14,-201.5"/>
<text text-anchor="start" x="2231.14" y="-219.5" font-family="Helvetica,sans-Serif" font-size="10.00">seerep&#45;core&#45;pb/core</text>
<text text-anchor="middle" x="2280.14" y="-208.5" font-family="Helvetica,sans-Serif" font-size="10.00">&#45;pb&#45;conversion.h</text>
</a>
</g>
</g>
<!-- Node4&#45;&gt;Node60 -->
<g id="edge153" class="edge">
<title>Node4&#45;&gt;Node60</title>
<path fill="none" stroke="midnightblue" d="M1102.23,-458.25C1090.43,-431.64 1069.97,-373.59 1095.14,-335 1135.46,-273.16 1175.2,-284.61 1247.14,-268 1448.44,-221.51 1970.35,-250.29 2176.14,-232 2188.05,-230.94 2200.69,-229.47 2212.9,-227.87"/>
<polygon fill="midnightblue" stroke="midnightblue" points="2213.59,-231.31 2223.04,-226.51 2212.66,-224.37 2213.59,-231.31"/>
</g>
<!-- Node11&#45;&gt;Node6 -->
<g id="edge50" class="edge">
<title>Node11&#45;&gt;Node6</title>
<path fill="none" stroke="midnightblue" d="M764.17,-201.38C774.47,-182.41 795.56,-149.31 824.14,-134 894.03,-96.55 1101.01,-111.58 1179.14,-98 1235.53,-88.2 1247.91,-77.74 1304.14,-67 1425.38,-43.83 1570.78,-27.36 1638.68,-20.31"/>
<polygon fill="midnightblue" stroke="midnightblue" points="1639.3,-23.77 1648.89,-19.27 1638.59,-16.81 1639.3,-23.77"/>
</g>
<!-- Node11&#45;&gt;Node7 -->
<g id="edge48" class="edge">
<title>Node11&#45;&gt;Node7</title>
<path fill="none" stroke="midnightblue" d="M699.06,-211.6C555,-201.8 191.04,-176.07 167.14,-165 139.18,-152.05 115.27,-125.33 100.6,-106.01"/>
<polygon fill="midnightblue" stroke="midnightblue" points="103.27,-103.72 94.53,-97.73 97.62,-107.86 103.27,-103.72"/>
</g>
<!-- Node12 -->
<g id="node12" class="node">
<title>Node12</title>
<g id="a_node12"><a xlink:title=" ">
<polygon fill="none" stroke="#bfbfbf" points="2551.14,-6 2551.14,-25 2661.14,-25 2661.14,-6 2551.14,-6"/>
<text text-anchor="middle" x="2606.14" y="-13" font-family="Helvetica,sans-Serif" font-size="10.00">highfive/H5File.hpp</text>
</a>
</g>
</g>
<!-- Node11&#45;&gt;Node12 -->
<g id="edge11" class="edge">
<title>Node11&#45;&gt;Node12</title>
<path fill="none" stroke="midnightblue" d="M815.48,-215.79C1053.7,-216.63 1953.2,-216.28 2232.14,-165 2371.1,-139.45 2523.91,-61.59 2581.97,-30.02"/>
<polygon fill="midnightblue" stroke="midnightblue" points="2583.68,-33.07 2590.76,-25.19 2580.31,-26.93 2583.68,-33.07"/>
</g>
<!-- Node13 -->
<g id="node13" class="node">
<title>Node13</title>
<g id="a_node13"><a xlink:href="hdf5-core-point-cloud_8h.html" target="_top" xlink:title=" ">
<polygon fill="none" stroke="black" points="2726.64,-134.5 2726.64,-164.5 2851.64,-164.5 2851.64,-134.5 2726.64,-134.5"/>
<text text-anchor="start" x="2734.64" y="-152.5" font-family="Helvetica,sans-Serif" font-size="10.00">seerep&#45;hdf5&#45;core/hdf5</text>
<text text-anchor="middle" x="2789.14" y="-141.5" font-family="Helvetica,sans-Serif" font-size="10.00">&#45;core&#45;point&#45;cloud.h</text>
</a>
</g>
</g>
<!-- Node11&#45;&gt;Node13 -->
<g id="edge12" class="edge">
<title>Node11&#45;&gt;Node13</title>
<path fill="none" stroke="midnightblue" d="M815.39,-215.38C1096.41,-214.6 2314.5,-208.75 2716.31,-165.05"/>
<polygon fill="midnightblue" stroke="midnightblue" points="2716.96,-168.5 2726.51,-163.91 2716.18,-161.54 2716.96,-168.5"/>
</g>
<!-- Node19 -->
<g id="node18" class="node">
<title>Node19</title>
<g id="a_node18"><a xlink:title=" ">
<polygon fill="none" stroke="#bfbfbf" points="2382.64,-6 2382.64,-25 2495.64,-25 2495.64,-6 2382.64,-6"/>
<text text-anchor="middle" x="2439.14" y="-13" font-family="Helvetica,sans-Serif" font-size="10.00">boost/geometry.hpp</text>
</a>
</g>
</g>
<!-- Node11&#45;&gt;Node19 -->
<g id="edge49" class="edge">
<title>Node11&#45;&gt;Node19</title>
<path fill="none" stroke="midnightblue" d="M775.82,-201.4C802.04,-182.45 851.95,-149.37 900.14,-134 904.6,-132.58 1566.47,-67.37 1571.14,-67 1869.64,-43.42 2226.7,-26.06 2372.35,-19.44"/>
<polygon fill="midnightblue" stroke="midnightblue" points="2372.63,-22.93 2382.46,-18.98 2372.32,-15.94 2372.63,-22.93"/>
</g>
<!-- Node28 -->
<g id="node25" class="node">
<title>Node28</title>
<g id="a_node25"><a xlink:href="hdf5-pb-general_8h.html" target="_top" xlink:title=" ">
<polygon fill="none" stroke="black" points="618.14,-134.5 618.14,-164.5 734.14,-164.5 734.14,-134.5 618.14,-134.5"/>
<text text-anchor="start" x="626.14" y="-152.5" font-family="Helvetica,sans-Serif" font-size="10.00">seerep&#45;hdf5&#45;pb/hdf5</text>
<text text-anchor="middle" x="676.14" y="-141.5" font-family="Helvetica,sans-Serif" font-size="10.00">&#45;pb&#45;general.h</text>
</a>
</g>
</g>
<!-- Node11&#45;&gt;Node28 -->
<g id="edge33" class="edge">
<title>Node11&#45;&gt;Node28</title>
<path fill="none" stroke="midnightblue" d="M739.56,-201.4C728.52,-192.54 714.09,-180.96 701.79,-171.09"/>
<polygon fill="midnightblue" stroke="midnightblue" points="703.67,-168.11 693.68,-164.58 699.29,-173.56 703.67,-168.11"/>
</g>
<!-- Node33 -->
<g id="node30" class="node">
<title>Node33</title>
<g id="a_node30"><a xlink:href="hdf5-pb-point-cloud2-iterator_8h.html" target="_top" xlink:title=" ">
<polygon fill="none" stroke="red" points="176.64,-134.5 176.64,-164.5 321.64,-164.5 321.64,-134.5 176.64,-134.5"/>
<text text-anchor="start" x="184.64" y="-152.5" font-family="Helvetica,sans-Serif" font-size="10.00">seerep&#45;hdf5&#45;pb/hdf5</text>
<text text-anchor="middle" x="249.14" y="-141.5" font-family="Helvetica,sans-Serif" font-size="10.00">&#45;pb&#45;point&#45;cloud2&#45;iterator.h</text>
</a>
</g>
</g>
<!-- Node11&#45;&gt;Node33 -->
<g id="edge44" class="edge">
<title>Node11&#45;&gt;Node33</title>
<path fill="none" stroke="midnightblue" d="M698.86,-208.04C608.69,-196.51 435.03,-174.29 331.89,-161.09"/>
<polygon fill="midnightblue" stroke="midnightblue" points="332.19,-157.6 321.82,-159.8 331.3,-164.54 332.19,-157.6"/>
</g>
<!-- Node13&#45;&gt;Node6 -->
<g id="edge27" class="edge">
<title>Node13&#45;&gt;Node6</title>
<path fill="none" stroke="midnightblue" d="M2726.44,-135.59C2723.63,-135.04 2720.86,-134.51 2718.14,-134 2625.5,-116.57 2600.03,-122.96 2509.14,-98 2471.97,-87.79 2465.78,-75.27 2428.14,-67 2290.05,-36.65 1848.82,-21.53 1715.59,-17.57"/>
<polygon fill="midnightblue" stroke="midnightblue" points="1715.56,-14.07 1705.46,-17.28 1715.35,-21.07 1715.56,-14.07"/>
</g>
<!-- Node13&#45;&gt;Node12 -->
<g id="edge13" class="edge">
<title>Node13&#45;&gt;Node12</title>
<path fill="none" stroke="midnightblue" d="M2769.55,-134.37C2734.53,-109.11 2661.54,-56.46 2626.19,-30.96"/>
<polygon fill="midnightblue" stroke="midnightblue" points="2628.21,-28.11 2618.05,-25.1 2624.12,-33.79 2628.21,-28.11"/>
</g>
<!-- Node14 -->
<g id="node14" class="node">
<title>Node14</title>
<g id="a_node14"><a xlink:href="hdf5-core-datatype-interface_8h.html" target="_top" xlink:title=" ">
<polygon fill="none" stroke="black" points="3007.64,-67.5 3007.64,-97.5 3152.64,-97.5 3152.64,-67.5 3007.64,-67.5"/>
<text text-anchor="start" x="3015.64" y="-85.5" font-family="Helvetica,sans-Serif" font-size="10.00">seerep&#45;hdf5&#45;core/hdf5</text>
<text text-anchor="middle" x="3080.14" y="-74.5" font-family="Helvetica,sans-Serif" font-size="10.00">&#45;core&#45;datatype&#45;interface.h</text>
</a>
</g>
</g>
<!-- Node13&#45;&gt;Node14 -->
<g id="edge14" class="edge">
<title>Node13&#45;&gt;Node14</title>
<path fill="none" stroke="midnightblue" d="M2851.92,-134.48C2897.55,-124.28 2959.42,-110.46 3007.23,-99.78"/>
<polygon fill="midnightblue" stroke="midnightblue" points="3008.22,-103.15 3017.21,-97.55 3006.69,-96.32 3008.22,-103.15"/>
</g>
<!-- Node15 -->
<g id="node15" class="node">
<title>Node15</title>
<g id="a_node15"><a xlink:title=" ">
<polygon fill="none" stroke="#bfbfbf" points="3089.64,-0.5 3089.64,-30.5 3208.64,-30.5 3208.64,-0.5 3089.64,-0.5"/>
<text text-anchor="start" x="3097.64" y="-18.5" font-family="Helvetica,sans-Serif" font-size="10.00">seerep&#45;msgs/dataset</text>
<text text-anchor="middle" x="3149.14" y="-7.5" font-family="Helvetica,sans-Serif" font-size="10.00">&#45;indexable.h</text>
</a>
</g>
</g>
<!-- Node13&#45;&gt;Node15 -->
<g id="edge25" class="edge">
<title>Node13&#45;&gt;Node15</title>
<path fill="none" stroke="midnightblue" d="M2801.87,-134.49C2819.56,-115.97 2853.44,-83.71 2889.14,-67 2949.68,-38.66 3025.31,-26.22 3079.36,-20.76"/>
<polygon fill="midnightblue" stroke="midnightblue" points="3079.91,-24.23 3089.54,-19.79 3079.25,-17.26 3079.91,-24.23"/>
</g>
<!-- Node13&#45;&gt;Node16 -->
<g id="edge30" class="edge">
<title>Node13&#45;&gt;Node16</title>
<path fill="none" stroke="midnightblue" d="M2818.66,-134.48C2858.65,-116.09 2932.68,-84.15 2999.14,-67 3055.33,-52.5 3213.34,-33.74 3304.33,-23.66"/>
<polygon fill="midnightblue" stroke="midnightblue" points="3304.72,-27.14 3314.28,-22.56 3303.95,-20.18 3304.72,-27.14"/>
</g>
<!-- Node17 -->
<g id="node17" class="node">
<title>Node17</title>
<g id="a_node17"><a xlink:href="hdf5-core-general_8h.html" target="_top" xlink:title=" ">
<polygon fill="none" stroke="red" points="2293.64,-67.5 2293.64,-97.5 2418.64,-97.5 2418.64,-67.5 2293.64,-67.5"/>
<text text-anchor="start" x="2301.64" y="-85.5" font-family="Helvetica,sans-Serif" font-size="10.00">seerep&#45;hdf5&#45;core/hdf5</text>
<text text-anchor="middle" x="2356.14" y="-74.5" font-family="Helvetica,sans-Serif" font-size="10.00">&#45;core&#45;general.h</text>
</a>
</g>
</g>
<!-- Node13&#45;&gt;Node17 -->
<g id="edge18" class="edge">
<title>Node13&#45;&gt;Node17</title>
<path fill="none" stroke="midnightblue" d="M2726.46,-135.43C2723.65,-134.93 2720.87,-134.45 2718.14,-134 2592.17,-113.21 2559.26,-117.82 2433.14,-98 2431.67,-97.77 2430.18,-97.53 2428.69,-97.29"/>
<polygon fill="midnightblue" stroke="midnightblue" points="2429.14,-93.81 2418.7,-95.61 2427.98,-100.72 2429.14,-93.81"/>
</g>
<!-- Node13&#45;&gt;Node19 -->
<g id="edge26" class="edge">
<title>Node13&#45;&gt;Node19</title>
<path fill="none" stroke="midnightblue" d="M2752.01,-134.5C2683.21,-108.55 2536.97,-53.4 2471.73,-28.79"/>
<polygon fill="midnightblue" stroke="midnightblue" points="2472.58,-25.37 2461.98,-25.12 2470.11,-31.92 2472.58,-25.37"/>
</g>
<!-- Node13&#45;&gt;Node24 -->
<g id="edge28" class="edge">
<title>Node13&#45;&gt;Node24</title>
<path fill="none" stroke="midnightblue" d="M2726.49,-135.29C2723.67,-134.82 2720.88,-134.39 2718.14,-134 2526.98,-106.63 2477.25,-117.59 2285.14,-98 2271.28,-96.59 2256.54,-94.93 2242.3,-93.25"/>
<polygon fill="midnightblue" stroke="midnightblue" points="2242.39,-89.74 2232.05,-92.03 2241.56,-96.69 2242.39,-89.74"/>
</g>
<!-- Node13&#45;&gt;Node25 -->
<g id="edge29" class="edge">
<title>Node13&#45;&gt;Node25</title>
<path fill="none" stroke="midnightblue" d="M2726.5,-135.2C2723.68,-134.76 2720.88,-134.36 2718.14,-134 2438.69,-97.71 2364.63,-133.91 2085.14,-98 2077.04,-96.96 2068.5,-95.53 2060.23,-93.98"/>
<polygon fill="midnightblue" stroke="midnightblue" points="2060.82,-90.53 2050.34,-92.04 2059.48,-97.4 2060.82,-90.53"/>
</g>
<!-- Node13&#45;&gt;Node26 -->
<g id="edge31" class="edge">
<title>Node13&#45;&gt;Node26</title>
<path fill="none" stroke="midnightblue" d="M2851.88,-135.31C2855,-134.82 2858.1,-134.38 2861.14,-134 3159.18,-96.24 3237.31,-128.94 3536.14,-98 3547.44,-96.83 3559.46,-95.24 3571,-93.54"/>
<polygon fill="midnightblue" stroke="midnightblue" points="3571.62,-96.99 3580.98,-92.03 3570.57,-90.07 3571.62,-96.99"/>
</g>
<!-- Node13&#45;&gt;Node27 -->
<g id="edge32" class="edge">
<title>Node13&#45;&gt;Node27</title>
<path fill="none" stroke="midnightblue" d="M2851.89,-135.42C2855.01,-134.91 2858.11,-134.43 2861.14,-134 3050.63,-107.06 3275.88,-92.87 3389.61,-86.94"/>
<polygon fill="midnightblue" stroke="midnightblue" points="3389.79,-90.43 3399.6,-86.42 3389.43,-83.44 3389.79,-90.43"/>
</g>
<!-- Node14&#45;&gt;Node6 -->
<g id="edge17" class="edge">
<title>Node14&#45;&gt;Node6</title>
<path fill="none" stroke="midnightblue" d="M3007.17,-78.12C2752.13,-66.3 1905.69,-27.09 1715.36,-18.27"/>
<polygon fill="midnightblue" stroke="midnightblue" points="1715.43,-14.77 1705.28,-17.8 1715.1,-21.76 1715.43,-14.77"/>
</g>
<!-- Node14&#45;&gt;Node15 -->
<g id="edge15" class="edge">
<title>Node14&#45;&gt;Node15</title>
<path fill="none" stroke="midnightblue" d="M3095.11,-67.4C3104.33,-58.71 3116.33,-47.4 3126.68,-37.66"/>
<polygon fill="midnightblue" stroke="midnightblue" points="3129.31,-39.98 3134.19,-30.58 3124.51,-34.89 3129.31,-39.98"/>
</g>
<!-- Node14&#45;&gt;Node16 -->
<g id="edge16" class="edge">
<title>Node14&#45;&gt;Node16</title>
<path fill="none" stroke="midnightblue" d="M3142.92,-67.48C3197,-55.4 3273.92,-38.21 3323.18,-27.21"/>
<polygon fill="midnightblue" stroke="midnightblue" points="3323.96,-30.62 3332.95,-25.03 3322.43,-23.79 3323.96,-30.62"/>
</g>
<!-- Node17&#45;&gt;Node6 -->
<g id="edge22" class="edge">
<title>Node17&#45;&gt;Node6</title>
<path fill="none" stroke="midnightblue" d="M2293.61,-69.17C2288.72,-68.38 2283.85,-67.64 2279.14,-67 2067.02,-38.21 1810.48,-23.23 1715.18,-18.34"/>
<polygon fill="midnightblue" stroke="midnightblue" points="1715.32,-14.84 1705.15,-17.83 1714.96,-21.83 1715.32,-14.84"/>
</g>
<!-- Node17&#45;&gt;Node12 -->
<g id="edge19" class="edge">
<title>Node17&#45;&gt;Node12</title>
<path fill="none" stroke="midnightblue" d="M2410.07,-67.48C2456.05,-55.52 2521.24,-38.57 2563.61,-27.56"/>
<polygon fill="midnightblue" stroke="midnightblue" points="2564.54,-30.93 2573.33,-25.03 2562.77,-24.16 2564.54,-30.93"/>
</g>
<!-- Node17&#45;&gt;Node15 -->
<g id="edge20" class="edge">
<title>Node17&#45;&gt;Node15</title>
<path fill="none" stroke="midnightblue" d="M2418.69,-76.37C2564.56,-64.42 2926.41,-34.76 3079.24,-22.23"/>
<polygon fill="midnightblue" stroke="midnightblue" points="3079.75,-25.7 3089.44,-21.39 3079.18,-18.72 3079.75,-25.7"/>
</g>
<!-- Node17&#45;&gt;Node19 -->
<g id="edge21" class="edge">
<title>Node17&#45;&gt;Node19</title>
<path fill="none" stroke="midnightblue" d="M2374.15,-67.4C2387.73,-56.76 2406.32,-42.2 2420.13,-31.38"/>
<polygon fill="midnightblue" stroke="midnightblue" points="2422.32,-34.12 2428.03,-25.19 2418,-28.6 2422.32,-34.12"/>
</g>
<!-- Node21 -->
<g id="node19" class="node">
<title>Node21</title>
<g id="a_node19"><a xlink:title=" ">
<polygon fill="none" stroke="#bfbfbf" points="1055.64,-0.5 1055.64,-30.5 1200.64,-30.5 1200.64,-0.5 1055.64,-0.5"/>
<text text-anchor="start" x="1063.64" y="-18.5" font-family="Helvetica,sans-Serif" font-size="10.00">boost/log/sources/severity</text>
<text text-anchor="middle" x="1128.14" y="-7.5" font-family="Helvetica,sans-Serif" font-size="10.00">_logger.hpp</text>
</a>
</g>
</g>
<!-- Node17&#45;&gt;Node21 -->
<g id="edge23" class="edge">
<title>Node17&#45;&gt;Node21</title>
<path fill="none" stroke="midnightblue" d="M2293.41,-72.29C2277.98,-70.28 2261.49,-68.36 2246.14,-67 2045.04,-49.24 1433.74,-27.04 1210.7,-19.31"/>
<polygon fill="midnightblue" stroke="midnightblue" points="1210.81,-15.81 1200.7,-18.96 1210.57,-22.8 1210.81,-15.81"/>
</g>
<!-- Node22 -->
<g id="node20" class="node">
<title>Node22</title>
<g id="a_node20"><a xlink:title=" ">
<polygon fill="none" stroke="#bfbfbf" points="335.14,-6 335.14,-25 449.14,-25 449.14,-6 335.14,-6"/>
<text text-anchor="middle" x="392.14" y="-13" font-family="Helvetica,sans-Serif" font-size="10.00">boost/log/trivial.hpp</text>
</a>
</g>
</g>
<!-- Node17&#45;&gt;Node22 -->
<g id="edge24" class="edge">
<title>Node17&#45;&gt;Node22</title>
<path fill="none" stroke="midnightblue" d="M2293.43,-72.09C2278,-70.09 2261.5,-68.22 2246.14,-67 2155.54,-59.81 782.41,-26.02 459.68,-18.14"/>
<polygon fill="midnightblue" stroke="midnightblue" points="459.62,-14.64 449.54,-17.9 459.45,-21.64 459.62,-14.64"/>
</g>
<!-- Node28&#45;&gt;Node6 -->
<g id="edge40" class="edge">
<title>Node28&#45;&gt;Node6</title>
<path fill="none" stroke="midnightblue" d="M734.21,-136.3C738.91,-135.47 743.6,-134.69 748.14,-134 904.06,-110.4 945.72,-124.76 1101.14,-98 1158.39,-88.14 1170.93,-77.16 1228.14,-67 1378.99,-40.22 1561.01,-24.91 1638.83,-19.15"/>
<polygon fill="midnightblue" stroke="midnightblue" points="1639.39,-22.62 1649.11,-18.4 1638.88,-15.64 1639.39,-22.62"/>
</g>
<!-- Node28&#45;&gt;Node12 -->
<g id="edge34" class="edge">
<title>Node28&#45;&gt;Node12</title>
<path fill="none" stroke="midnightblue" d="M734.52,-144.65C846.61,-137.07 1099.69,-119.14 1312.14,-98 1427.5,-86.52 1455.56,-76.13 1571.14,-67 1985.27,-34.29 2091.42,-68.57 2505.14,-31 2517.73,-29.86 2531.16,-28.22 2543.98,-26.46"/>
<polygon fill="midnightblue" stroke="midnightblue" points="2544.69,-29.9 2554.1,-25.03 2543.7,-22.96 2544.69,-29.9"/>
</g>
<!-- Node28&#45;&gt;Node17 -->
<g id="edge35" class="edge">
<title>Node28&#45;&gt;Node17</title>
<path fill="none" stroke="midnightblue" d="M734.18,-145.72C800.61,-142.59 912.71,-137.5 1009.14,-134 1558.78,-114.04 1697.89,-142 2246.14,-98 2258.14,-97.04 2270.83,-95.68 2283.17,-94.18"/>
<polygon fill="midnightblue" stroke="midnightblue" points="2283.94,-97.61 2293.43,-92.89 2283.07,-90.66 2283.94,-97.61"/>
</g>
<!-- Node28&#45;&gt;Node19 -->
<g id="edge38" class="edge">
<title>Node28&#45;&gt;Node19</title>
<path fill="none" stroke="midnightblue" d="M734.28,-143.21C828.01,-134.57 1018.27,-116.5 1179.14,-98 1285.55,-85.76 1311.45,-76.54 1418.14,-67 1777.05,-34.9 2208.9,-21.95 2372.21,-17.97"/>
<polygon fill="midnightblue" stroke="midnightblue" points="2372.66,-21.46 2382.58,-17.72 2372.5,-14.46 2372.66,-21.46"/>
</g>
<!-- Node28&#45;&gt;Node21 -->
<g id="edge41" class="edge">
<title>Node28&#45;&gt;Node21</title>
<path fill="none" stroke="midnightblue" d="M734.22,-136.35C738.92,-135.5 743.6,-134.71 748.14,-134 819.49,-122.86 1009.03,-134.87 1071.14,-98 1093.51,-84.71 1109.3,-58.82 1118.5,-39.77"/>
<polygon fill="midnightblue" stroke="midnightblue" points="1121.75,-41.09 1122.71,-30.54 1115.38,-38.18 1121.75,-41.09"/>
</g>
<!-- Node28&#45;&gt;Node22 -->
<g id="edge42" class="edge">
<title>Node28&#45;&gt;Node22</title>
<path fill="none" stroke="midnightblue" d="M642.63,-134.42C621.96,-125.17 595.27,-112.19 573.14,-98 554.79,-86.24 554.14,-77.68 535.14,-67 503.93,-49.46 465.53,-36.31 436.38,-27.83"/>
<polygon fill="midnightblue" stroke="midnightblue" points="437.06,-24.38 426.49,-25.03 435.15,-31.12 437.06,-24.38"/>
</g>
<!-- Node29 -->
<g id="node26" class="node">
<title>Node29</title>
<g id="a_node26"><a xlink:title=" ">
<polygon fill="none" stroke="#bfbfbf" points="582.14,-67.5 582.14,-97.5 740.14,-97.5 740.14,-67.5 582.14,-67.5"/>
<text text-anchor="start" x="590.14" y="-85.5" font-family="Helvetica,sans-Serif" font-size="10.00">seerep&#45;msgs/boundingbox2d</text>
<text text-anchor="middle" x="661.14" y="-74.5" font-family="Helvetica,sans-Serif" font-size="10.00">_labeled.pb.h</text>
</a>
</g>
</g>
<!-- Node28&#45;&gt;Node29 -->
<g id="edge36" class="edge">
<title>Node28&#45;&gt;Node29</title>
<path fill="none" stroke="midnightblue" d="M672.88,-134.4C671.07,-126.56 668.77,-116.6 666.69,-107.57"/>
<polygon fill="midnightblue" stroke="midnightblue" points="670.04,-106.53 664.38,-97.58 663.22,-108.11 670.04,-106.53"/>
</g>
<!-- Node30 -->
<g id="node27" class="node">
<title>Node30</title>
<g id="a_node27"><a xlink:title=" ">
<polygon fill="none" stroke="#bfbfbf" points="758.14,-67.5 758.14,-97.5 904.14,-97.5 904.14,-67.5 758.14,-67.5"/>
<text text-anchor="start" x="766.14" y="-85.5" font-family="Helvetica,sans-Serif" font-size="10.00">seerep&#45;msgs/boundingbox</text>
<text text-anchor="middle" x="831.14" y="-74.5" font-family="Helvetica,sans-Serif" font-size="10.00">_labeled.pb.h</text>
</a>
</g>
</g>
<!-- Node28&#45;&gt;Node30 -->
<g id="edge37" class="edge">
<title>Node28&#45;&gt;Node30</title>
<path fill="none" stroke="midnightblue" d="M709.77,-134.4C732.72,-124.77 763.33,-111.94 788.06,-101.56"/>
<polygon fill="midnightblue" stroke="midnightblue" points="789.7,-104.67 797.57,-97.58 786.99,-98.22 789.7,-104.67"/>
</g>
<!-- Node31 -->
<g id="node28" class="node">
<title>Node31</title>
<g id="a_node28"><a xlink:title=" ">
<polygon fill="none" stroke="#bfbfbf" points="458.14,-73 458.14,-92 526.14,-92 526.14,-73 458.14,-73"/>
<text text-anchor="middle" x="492.14" y="-80" font-family="Helvetica,sans-Serif" font-size="10.00">filesystem</text>
</a>
</g>
</g>
<!-- Node28&#45;&gt;Node31 -->
<g id="edge39" class="edge">
<title>Node28&#45;&gt;Node31</title>
<path fill="none" stroke="midnightblue" d="M636.21,-134.4C603.21,-122.74 556.88,-106.37 525.75,-95.38"/>
<polygon fill="midnightblue" stroke="midnightblue" points="526.81,-92.04 516.22,-92.01 524.48,-98.64 526.81,-92.04"/>
</g>
<!-- Node32 -->
<g id="node29" class="node">
<title>Node32</title>
<g id="a_node29"><a xlink:title=" ">
<polygon fill="none" stroke="#bfbfbf" points="922.14,-73 922.14,-92 1062.14,-92 1062.14,-73 922.14,-73"/>
<text text-anchor="middle" x="992.14" y="-80" font-family="Helvetica,sans-Serif" font-size="10.00">impl/hdf5&#45;pb&#45;general.hpp</text>
</a>
</g>
</g>
<!-- Node28&#45;&gt;Node32 -->
<g id="edge43" class="edge">
<title>Node28&#45;&gt;Node32</title>
<path fill="none" stroke="midnightblue" d="M734.46,-136.5C793.56,-124.35 884.09,-105.72 940.62,-94.1"/>
<polygon fill="midnightblue" stroke="midnightblue" points="941.67,-97.45 950.76,-92.01 940.26,-90.6 941.67,-97.45"/>
</g>
<!-- Node33&#45;&gt;Node7 -->
<g id="edge45" class="edge">
<title>Node33&#45;&gt;Node7</title>
<path fill="none" stroke="midnightblue" d="M213.55,-134.4C189.05,-124.69 156.31,-111.71 130.02,-101.29"/>
<polygon fill="midnightblue" stroke="midnightblue" points="131.24,-98.01 120.65,-97.58 128.66,-104.51 131.24,-98.01"/>
</g>
<!-- Node34 -->
<g id="node31" class="node">
<title>Node34</title>
<g id="a_node31"><a xlink:title=" ">
<polygon fill="none" stroke="#bfbfbf" points="172.64,-73 172.64,-92 225.64,-92 225.64,-73 172.64,-73"/>
<text text-anchor="middle" x="199.14" y="-80" font-family="Helvetica,sans-Serif" font-size="10.00">cstdarg</text>
</a>
</g>
</g>
<!-- Node33&#45;&gt;Node34 -->
<g id="edge46" class="edge">
<title>Node33&#45;&gt;Node34</title>
<path fill="none" stroke="midnightblue" d="M238.29,-134.4C230.57,-124.36 220.16,-110.84 212.02,-100.25"/>
<polygon fill="midnightblue" stroke="midnightblue" points="214.7,-97.99 205.82,-92.19 209.15,-102.25 214.7,-97.99"/>
</g>
<!-- Node35 -->
<g id="node32" class="node">
<title>Node35</title>
<g id="a_node32"><a xlink:title=" ">
<polygon fill="none" stroke="#bfbfbf" points="244.14,-73 244.14,-92 288.14,-92 288.14,-73 244.14,-73"/>
<text text-anchor="middle" x="266.14" y="-80" font-family="Helvetica,sans-Serif" font-size="10.00">string</text>
</a>
</g>
</g>
<!-- Node33&#45;&gt;Node35 -->
<g id="edge47" class="edge">
<title>Node33&#45;&gt;Node35</title>
<path fill="none" stroke="midnightblue" d="M252.82,-134.4C255.29,-124.96 258.56,-112.45 261.25,-102.19"/>
<polygon fill="midnightblue" stroke="midnightblue" points="264.72,-102.75 263.86,-92.19 257.95,-100.98 264.72,-102.75"/>
</g>
<!-- Node38&#45;&gt;Node5 -->
<g id="edge58" class="edge">
<title>Node38&#45;&gt;Node5</title>
<path fill="none" stroke="midnightblue" d="M2456.69,-409.77C2604.07,-406.07 3013.44,-393.55 3145.14,-366 3314.28,-330.62 3354.85,-307.82 3510.14,-232 3551.29,-211.9 3595.92,-182.29 3621.01,-164.84"/>
<polygon fill="midnightblue" stroke="midnightblue" points="3623.16,-167.61 3629.33,-159 3619.14,-161.88 3623.16,-167.61"/>
</g>
<!-- Node38&#45;&gt;Node6 -->
<g id="edge59" class="edge">
<title>Node38&#45;&gt;Node6</title>
<path fill="none" stroke="midnightblue" d="M2349.3,-410.7C2134.22,-409.27 1343.18,-401.61 1237.14,-366 1201.85,-354.15 984.88,-198.73 969.14,-165 932.67,-86.9 1113.59,-134.74 1255.14,-98 1290.84,-88.73 1296.52,-76.63 1332.14,-67 1441.18,-37.52 1574.57,-24.18 1638.87,-19.12"/>
<polygon fill="midnightblue" stroke="midnightblue" points="1639.25,-22.6 1648.95,-18.35 1638.71,-15.62 1639.25,-22.6"/>
</g>
<!-- Node38&#45;&gt;Node9 -->
<g id="edge62" class="edge">
<title>Node38&#45;&gt;Node9</title>
<path fill="none" stroke="midnightblue" d="M2349.5,-410.2C2137.49,-406.88 1367.3,-392.97 1323.14,-366 1254.56,-324.12 1245.64,-214.2 1244.93,-169.66"/>
<polygon fill="midnightblue" stroke="midnightblue" points="1248.43,-169.37 1244.9,-159.38 1241.43,-169.39 1248.43,-169.37"/>
</g>
<!-- Node38&#45;&gt;Node10 -->
<g id="edge64" class="edge">
<title>Node38&#45;&gt;Node10</title>
<path fill="none" stroke="midnightblue" d="M2456.82,-409.99C2670.34,-405.42 3459.05,-383.09 3692.14,-299 3745.63,-279.7 3766.08,-276.77 3801.14,-232 3815.62,-213.49 3822.14,-186.72 3825,-168.98"/>
<polygon fill="midnightblue" stroke="midnightblue" points="3828.47,-169.41 3826.37,-159.02 3821.53,-168.45 3828.47,-169.41"/>
</g>
<!-- Node38&#45;&gt;Node15 -->
<g id="edge60" class="edge">
<title>Node38&#45;&gt;Node15</title>
<path fill="none" stroke="midnightblue" d="M2456.75,-410.88C2681.52,-410.11 3548.72,-404.66 3819.14,-366 3937.27,-349.11 3987,-374.84 4079.14,-299 4114.51,-269.88 4134.89,-240.18 4111.14,-201 4044.35,-90.85 3978.18,-101.75 3854.14,-67 3619.1,-1.16 3549.46,-50.23 3306.14,-31 3277.58,-28.74 3246.14,-25.91 3218.95,-23.35"/>
<polygon fill="midnightblue" stroke="midnightblue" points="3219.03,-19.84 3208.75,-22.38 3218.37,-26.81 3219.03,-19.84"/>
</g>
<!-- Node38&#45;&gt;Node16 -->
<g id="edge54" class="edge">
<title>Node38&#45;&gt;Node16</title>
<path fill="none" stroke="midnightblue" d="M2456.68,-410.82C2692.53,-409.81 3640.15,-403.46 3935.14,-366 4097.45,-345.39 4294.14,-448.12 4294.14,-284.5 4294.14,-284.5 4294.14,-284.5 4294.14,-148.5 4294.14,-61.95 3649.92,-27.88 3437.89,-19.02"/>
<polygon fill="midnightblue" stroke="midnightblue" points="3437.97,-15.52 3427.83,-18.6 3437.68,-22.51 3437.97,-15.52"/>
</g>
<!-- Node38&#45;&gt;Node21 -->
<g id="edge151" class="edge">
<title>Node38&#45;&gt;Node21</title>
<path fill="none" stroke="midnightblue" d="M2349.35,-411.34C2137.18,-412.36 1358.01,-412.76 1116.14,-366 990.39,-341.69 969.04,-300.44 845.14,-268 750.98,-243.35 718.68,-270.13 629.14,-232 537.37,-192.93 493.9,-187.13 449.14,-98 442.95,-85.69 439.76,-77.1 449.14,-67 488.93,-24.13 873.09,-17.36 1045.32,-16.5"/>
<polygon fill="midnightblue" stroke="midnightblue" points="1045.37,-20 1055.36,-16.45 1045.34,-13 1045.37,-20"/>
</g>
<!-- Node38&#45;&gt;Node22 -->
<g id="edge152" class="edge">
<title>Node38&#45;&gt;Node22</title>
<path fill="none" stroke="midnightblue" d="M2349.33,-410.63C2126.74,-408.88 1277.05,-400.08 1011.14,-366 609.77,-314.56 500.21,-311.83 123.14,-165 67.3,-143.26 36.19,-149.84 6.14,-98 -0.77,-86.08 -2.95,-77.36 6.14,-67 26.79,-43.47 219.84,-27.54 324.85,-20.54"/>
<polygon fill="midnightblue" stroke="midnightblue" points="325.29,-24.02 335.04,-19.87 324.83,-17.03 325.29,-24.02"/>
</g>
<!-- Node38&#45;&gt;Node24 -->
<g id="edge52" class="edge">
<title>Node38&#45;&gt;Node24</title>
<path fill="none" stroke="midnightblue" d="M2403.14,-402.41C2403.14,-381.98 2403.14,-328.86 2403.14,-284.5 2403.14,-284.5 2403.14,-284.5 2403.14,-215.5 2403.14,-177.74 2406.56,-159.96 2379.14,-134 2373.13,-128.31 2277.13,-107.17 2215.77,-94.11"/>
<polygon fill="midnightblue" stroke="midnightblue" points="2216.38,-90.66 2205.87,-92.01 2214.92,-97.51 2216.38,-90.66"/>
</g>
<!-- Node38&#45;&gt;Node25 -->
<g id="edge53" class="edge">
<title>Node38&#45;&gt;Node25</title>
<path fill="none" stroke="midnightblue" d="M2349.46,-403.73C2179.24,-379.47 1656.96,-295.41 1559.14,-165 1550.87,-153.98 1549.95,-144.27 1559.14,-134 1571.67,-119.99 1814.84,-99.02 1940.02,-89.09"/>
<polygon fill="midnightblue" stroke="midnightblue" points="1940.59,-92.56 1950.28,-88.28 1940.04,-85.58 1940.59,-92.56"/>
</g>
<!-- Node38&#45;&gt;Node26 -->
<g id="edge55" class="edge">
<title>Node38&#45;&gt;Node26</title>
<path fill="none" stroke="midnightblue" d="M2456.64,-411.16C2620.97,-411.18 3132.73,-407.63 3554.14,-366 3783.44,-343.35 4066.14,-514.92 4066.14,-284.5 4066.14,-284.5 4066.14,-284.5 4066.14,-215.5 4066.14,-144.85 3853.78,-108.52 3725.47,-93.02"/>
<polygon fill="midnightblue" stroke="midnightblue" points="3725.58,-89.51 3715.24,-91.8 3724.75,-96.46 3725.58,-89.51"/>
</g>
<!-- Node38&#45;&gt;Node27 -->
<g id="edge56" class="edge">
<title>Node38&#45;&gt;Node27</title>
<path fill="none" stroke="midnightblue" d="M2456.74,-411.39C2676.41,-412.27 3507.19,-408.16 3741.14,-299 3829.59,-257.73 3872.04,-252.58 3915.14,-165 3963.95,-65.79 3876.11,-147.78 3536.14,-98 3528.4,-96.87 3520.25,-95.46 3512.31,-93.97"/>
<polygon fill="midnightblue" stroke="midnightblue" points="3512.89,-90.52 3502.41,-92.06 3511.56,-97.39 3512.89,-90.52"/>
</g>
<!-- Node38&#45;&gt;Node31 -->
<g id="edge57" class="edge">
<title>Node38&#45;&gt;Node31</title>
<path fill="none" stroke="midnightblue" d="M2349.43,-411.48C2147.1,-412.89 1431.09,-414.27 1209.14,-366 1097.35,-341.69 1081.71,-297.3 971.14,-268 849.43,-235.75 806.81,-279.34 690.14,-232 612.65,-200.56 538.55,-131.1 507.47,-99.6"/>
<polygon fill="midnightblue" stroke="midnightblue" points="509.67,-96.85 500.19,-92.12 504.65,-101.73 509.67,-96.85"/>
</g>
<!-- Node39 -->
<g id="node34" class="node">
<title>Node39</title>
<g id="a_node34"><a xlink:title=" ">
<polygon fill="none" stroke="#bfbfbf" points="2954.14,-335.5 2954.14,-365.5 3070.14,-365.5 3070.14,-335.5 2954.14,-335.5"/>
<text text-anchor="start" x="2962.14" y="-353.5" font-family="Helvetica,sans-Serif" font-size="10.00">seerep&#45;msgs/project</text>
<text text-anchor="middle" x="3012.14" y="-342.5" font-family="Helvetica,sans-Serif" font-size="10.00">&#45;info.h</text>
</a>
</g>
</g>
<!-- Node38&#45;&gt;Node39 -->
<g id="edge61" class="edge">
<title>Node38&#45;&gt;Node39</title>
<path fill="none" stroke="midnightblue" d="M2456.87,-408.86C2552.76,-404.54 2759.81,-392.92 2943.97,-366.04"/>
<polygon fill="midnightblue" stroke="midnightblue" points="2944.74,-369.47 2954.12,-364.54 2943.71,-362.54 2944.74,-369.47"/>
</g>
<!-- Node40 -->
<g id="node35" class="node">
<title>Node40</title>
<g id="a_node35"><a xlink:title=" ">
<polygon fill="none" stroke="#bfbfbf" points="3384.14,-140 3384.14,-159 3514.14,-159 3514.14,-140 3384.14,-140"/>
<text text-anchor="middle" x="3449.14" y="-147" font-family="Helvetica,sans-Serif" font-size="10.00">seerep&#45;msgs/query&#45;tf.h</text>
</a>
</g>
</g>
<!-- Node38&#45;&gt;Node40 -->
<g id="edge63" class="edge">
<title>Node38&#45;&gt;Node40</title>
<path fill="none" stroke="midnightblue" d="M2456.86,-409.39C2595.11,-404.94 2960.62,-391.1 3079.14,-366 3163.87,-348.05 3183.74,-335.83 3262.14,-299 3315.67,-273.84 3331.42,-269.53 3377.14,-232 3400.87,-212.52 3423.51,-184.89 3436.86,-167.34"/>
<polygon fill="midnightblue" stroke="midnightblue" points="3439.78,-169.28 3442.96,-159.17 3434.17,-165.09 3439.78,-169.28"/>
</g>
<!-- Node41 -->
<g id="node36" class="node">
<title>Node41</title>
<g id="a_node36"><a xlink:title=" ">
<polygon fill="none" stroke="#bfbfbf" points="1580.14,-73 1580.14,-92 1780.14,-92 1780.14,-73 1580.14,-73"/>
<text text-anchor="middle" x="1680.14" y="-80" font-family="Helvetica,sans-Serif" font-size="10.00">geometry_msgs/TransformStamped.h</text>
</a>
</g>
</g>
<!-- Node38&#45;&gt;Node41 -->
<g id="edge65" class="edge">
<title>Node38&#45;&gt;Node41</title>
<path fill="none" stroke="midnightblue" d="M2349.47,-410.65C2140.53,-409.05 1387.98,-400.9 1287.14,-366 1269.13,-359.77 1017.81,-181.97 1009.14,-165 1002.87,-152.73 999.77,-144.1 1009.14,-134 1013.85,-128.92 1380.61,-103.6 1569.84,-90.85"/>
<polygon fill="midnightblue" stroke="midnightblue" points="1570.08,-94.35 1579.82,-90.18 1569.61,-87.36 1570.08,-94.35"/>
</g>
<!-- Node42 -->
<g id="node37" class="node">
<title>Node42</title>
<g id="a_node37"><a xlink:href="core-project_8h.html" target="_top" xlink:title=" ">
<polygon fill="none" stroke="black" points="2852.14,-341 2852.14,-360 2936.14,-360 2936.14,-341 2852.14,-341"/>
<text text-anchor="middle" x="2894.14" y="-348" font-family="Helvetica,sans-Serif" font-size="10.00">core&#45;project.h</text>
</a>
</g>
</g>
<!-- Node38&#45;&gt;Node42 -->
<g id="edge66" class="edge">
<title>Node38&#45;&gt;Node42</title>
<path fill="none" stroke="midnightblue" d="M2457.09,-404.46C2552.05,-392.95 2747.88,-369.22 2841.74,-357.85"/>
<polygon fill="midnightblue" stroke="midnightblue" points="2842.35,-361.3 2851.85,-356.62 2841.5,-354.35 2842.35,-361.3"/>
</g>
<!-- Node42&#45;&gt;Node5 -->
<g id="edge70" class="edge">
<title>Node42&#45;&gt;Node5</title>
<path fill="none" stroke="midnightblue" d="M2920.93,-340.99C2928.68,-338.77 2937.19,-336.57 2945.14,-335 3084.24,-307.52 3124.52,-333.15 3262.14,-299 3399.55,-264.9 3554.01,-193.22 3614.67,-163.67"/>
<polygon fill="midnightblue" stroke="midnightblue" points="3616.47,-166.68 3623.91,-159.14 3613.39,-160.4 3616.47,-166.68"/>
</g>
<!-- Node42&#45;&gt;Node6 -->
<g id="edge71" class="edge">
<title>Node42&#45;&gt;Node6</title>
<path fill="none" stroke="midnightblue" d="M2851.98,-348.9C2584.22,-344.61 1128.04,-314.51 1009.14,-165 943.29,-82.21 863.99,-179.08 1332.14,-98 1444.73,-78.5 1575.47,-44.42 1638.81,-27.16"/>
<polygon fill="midnightblue" stroke="midnightblue" points="1640.03,-30.46 1648.75,-24.44 1638.18,-23.7 1640.03,-30.46"/>
</g>
<!-- Node42&#45;&gt;Node10 -->
<g id="edge75" class="edge">
<title>Node42&#45;&gt;Node10</title>
<path fill="none" stroke="midnightblue" d="M2920.65,-340.97C2928.47,-338.73 2937.08,-336.51 2945.14,-335 3309.59,-266.52 3460.34,-431.19 3773.14,-232 3796.69,-217 3812.27,-187.62 3820.4,-168.53"/>
<polygon fill="midnightblue" stroke="midnightblue" points="3823.69,-169.73 3824.15,-159.15 3817.19,-167.13 3823.69,-169.73"/>
</g>
<!-- Node42&#45;&gt;Node13 -->
<g id="edge99" class="edge">
<title>Node42&#45;&gt;Node13</title>
<path fill="none" stroke="midnightblue" d="M2889.62,-340.95C2874.41,-312.11 2824.62,-217.75 2801.34,-173.63"/>
<polygon fill="midnightblue" stroke="midnightblue" points="2804.3,-171.74 2796.54,-164.53 2798.11,-175.01 2804.3,-171.74"/>
</g>
<!-- Node42&#45;&gt;Node15 -->
<g id="edge72" class="edge">
<title>Node42&#45;&gt;Node15</title>
<path fill="none" stroke="midnightblue" d="M2919.82,-340.93C2927.84,-338.6 2936.77,-336.34 2945.14,-335 3133.55,-304.7 3619.79,-351.92 3803.14,-299 3860.71,-282.38 3885.26,-280.73 3920.14,-232 3945.71,-196.27 3959.03,-169.49 3933.14,-134 3849.94,-19.97 3364.71,-36.23 3306.14,-31 3277.61,-28.45 3246.17,-25.57 3218.97,-23.04"/>
<polygon fill="midnightblue" stroke="midnightblue" points="3219.05,-19.54 3208.77,-22.1 3218.4,-26.51 3219.05,-19.54"/>
</g>
<!-- Node42&#45;&gt;Node16 -->
<g id="edge67" class="edge">
<title>Node42&#45;&gt;Node16</title>
<path fill="none" stroke="midnightblue" d="M2919.55,-340.99C2927.64,-338.63 2936.68,-336.35 2945.14,-335 3145.65,-303.01 3667.64,-369.29 3858.14,-299 3903.26,-282.35 3922.14,-275.28 3943.14,-232 3981.49,-152.92 3916.35,-98.08 3834.14,-67 3763.27,-40.21 3548.05,-25.58 3437.79,-19.66"/>
<polygon fill="midnightblue" stroke="midnightblue" points="3437.95,-16.17 3427.78,-19.14 3437.58,-23.16 3437.95,-16.17"/>
</g>
<!-- Node42&#45;&gt;Node21 -->
<g id="edge149" class="edge">
<title>Node42&#45;&gt;Node21</title>
<path fill="none" stroke="midnightblue" d="M2852.02,-349C2640.92,-346.33 1696.61,-332.69 1405.14,-299 1329.29,-290.23 1138.59,-261.42 1068.14,-232 1011.01,-208.14 931.56,-183.2 969.14,-134 1006.05,-85.67 1057,-139.83 1101.14,-98 1116.8,-83.16 1123.38,-59.04 1126.14,-40.88"/>
<polygon fill="midnightblue" stroke="midnightblue" points="1129.64,-41.09 1127.39,-30.74 1122.7,-40.23 1129.64,-41.09"/>
</g>
<!-- Node42&#45;&gt;Node22 -->
<g id="edge150" class="edge">
<title>Node42&#45;&gt;Node22</title>
<path fill="none" stroke="midnightblue" d="M2851.94,-349.82C2661.13,-350.92 1859.75,-352.01 1205.14,-299 1100.57,-290.53 1075.16,-281.55 971.14,-268 758.65,-240.31 686.93,-269.99 500.14,-165 459.11,-141.94 444.6,-136.92 418.14,-98 405.05,-78.76 398.24,-52.54 394.93,-35.09"/>
<polygon fill="midnightblue" stroke="midnightblue" points="398.35,-34.33 393.23,-25.06 391.45,-35.5 398.35,-34.33"/>
</g>
<!-- Node42&#45;&gt;Node26 -->
<g id="edge68" class="edge">
<title>Node42&#45;&gt;Node26</title>
<path fill="none" stroke="midnightblue" d="M2919.82,-340.94C2927.84,-338.61 2936.78,-336.36 2945.14,-335 3122.55,-306.23 3585.82,-364.66 3753.14,-299 3847.65,-261.91 3976.27,-211.89 3911.14,-134 3887.6,-105.86 3797.32,-93.38 3725.36,-87.85"/>
<polygon fill="midnightblue" stroke="midnightblue" points="3725.56,-84.36 3715.33,-87.12 3725.05,-91.34 3725.56,-84.36"/>
</g>
<!-- Node42&#45;&gt;Node27 -->
<g id="edge69" class="edge">
<title>Node42&#45;&gt;Node27</title>
<path fill="none" stroke="midnightblue" d="M2919.82,-340.96C2927.84,-338.63 2936.78,-336.37 2945.14,-335 3109.14,-308.1 3533.35,-348.06 3692.14,-299 3795.42,-267.09 3845.62,-261.1 3895.14,-165 3943.88,-70.39 3857.31,-145.89 3536.14,-98 3528.41,-96.85 3520.26,-95.43 3512.32,-93.94"/>
<polygon fill="midnightblue" stroke="midnightblue" points="3512.9,-90.49 3502.42,-92.02 3511.57,-97.36 3512.9,-90.49"/>
</g>
<!-- Node42&#45;&gt;Node40 -->
<g id="edge74" class="edge">
<title>Node42&#45;&gt;Node40</title>
<path fill="none" stroke="midnightblue" d="M2921.48,-340.93C2929.08,-338.77 2937.38,-336.61 2945.14,-335 3064.54,-310.26 3102.61,-340.87 3217.14,-299 3305.29,-266.77 3394.64,-196.68 3431.53,-165.72"/>
<polygon fill="midnightblue" stroke="midnightblue" points="3434.01,-168.21 3439.37,-159.07 3429.48,-162.87 3434.01,-168.21"/>
</g>
<!-- Node43 -->
<g id="node38" class="node">
<title>Node43</title>
<g id="a_node38"><a xlink:title=" ">
<polygon fill="none" stroke="#bfbfbf" points="3066.14,-268.5 3066.14,-298.5 3208.14,-298.5 3208.14,-268.5 3066.14,-268.5"/>
<text text-anchor="start" x="3074.14" y="-286.5" font-family="Helvetica,sans-Serif" font-size="10.00">seerep&#45;msgs/query&#45;result</text>
<text text-anchor="middle" x="3137.14" y="-275.5" font-family="Helvetica,sans-Serif" font-size="10.00">&#45;project.h</text>
</a>
</g>
</g>
<!-- Node42&#45;&gt;Node43 -->
<g id="edge73" class="edge">
<title>Node42&#45;&gt;Node43</title>
<path fill="none" stroke="midnightblue" d="M2923.77,-340.97C2930.77,-338.98 2938.21,-336.9 2945.14,-335 2987.56,-323.39 3035.39,-310.81 3072.7,-301.11"/>
<polygon fill="midnightblue" stroke="midnightblue" points="3073.64,-304.48 3082.44,-298.58 3071.88,-297.71 3073.64,-304.48"/>
</g>
<!-- Node44 -->
<g id="node39" class="node">
<title>Node44</title>
<g id="a_node39"><a xlink:href="hdf5-core-image_8h.html" target="_top" xlink:title=" ">
<polygon fill="none" stroke="black" points="2869.64,-134.5 2869.64,-164.5 2994.64,-164.5 2994.64,-134.5 2869.64,-134.5"/>
<text text-anchor="start" x="2877.64" y="-152.5" font-family="Helvetica,sans-Serif" font-size="10.00">seerep&#45;hdf5&#45;core/hdf5</text>
<text text-anchor="middle" x="2932.14" y="-141.5" font-family="Helvetica,sans-Serif" font-size="10.00">&#45;core&#45;image.h</text>
</a>
</g>
</g>
<!-- Node42&#45;&gt;Node44 -->
<g id="edge76" class="edge">
<title>Node42&#45;&gt;Node44</title>
<path fill="none" stroke="midnightblue" d="M2890.5,-340.69C2881.3,-316.99 2859.26,-250.37 2880.14,-201 2884.99,-189.52 2893.86,-179.37 2902.93,-171.24"/>
<polygon fill="midnightblue" stroke="midnightblue" points="2905.41,-173.72 2910.84,-164.62 2900.92,-168.35 2905.41,-173.72"/>
</g>
<!-- Node45 -->
<g id="node40" class="node">
<title>Node45</title>
<g id="a_node40"><a xlink:href="hdf5-core-instance_8h.html" target="_top" xlink:title=" ">
<polygon fill="none" stroke="black" points="2583.64,-134.5 2583.64,-164.5 2708.64,-164.5 2708.64,-134.5 2583.64,-134.5"/>
<text text-anchor="start" x="2591.64" y="-152.5" font-family="Helvetica,sans-Serif" font-size="10.00">seerep&#45;hdf5&#45;core/hdf5</text>
<text text-anchor="middle" x="2646.14" y="-141.5" font-family="Helvetica,sans-Serif" font-size="10.00">&#45;core&#45;instance.h</text>
</a>
</g>
</g>
<!-- Node42&#45;&gt;Node45 -->
<g id="edge88" class="edge">
<title>Node42&#45;&gt;Node45</title>
<path fill="none" stroke="midnightblue" d="M2883.48,-340.95C2846.78,-311.5 2724.97,-213.76 2671.58,-170.92"/>
<polygon fill="midnightblue" stroke="midnightblue" points="2673.61,-168.06 2663.62,-164.53 2669.23,-173.52 2673.61,-168.06"/>
</g>
<!-- Node46 -->
<g id="node41" class="node">
<title>Node46</title>
<g id="a_node41"><a xlink:href="hdf5-core-point_8h.html" target="_top" xlink:title=" ">
<polygon fill="none" stroke="black" points="3012.64,-134.5 3012.64,-164.5 3137.64,-164.5 3137.64,-134.5 3012.64,-134.5"/>
<text text-anchor="start" x="3020.64" y="-152.5" font-family="Helvetica,sans-Serif" font-size="10.00">seerep&#45;hdf5&#45;core/hdf5</text>
<text text-anchor="middle" x="3075.14" y="-141.5" font-family="Helvetica,sans-Serif" font-size="10.00">&#45;core&#45;point.h</text>
</a>
</g>
</g>
<!-- Node42&#45;&gt;Node46 -->
<g id="edge100" class="edge">
<title>Node42&#45;&gt;Node46</title>
<path fill="none" stroke="midnightblue" d="M2893.58,-340.84C2892.46,-315.76 2892.71,-242.26 2930.14,-201 2941.17,-188.83 2975.19,-176.68 3007.51,-167.34"/>
<polygon fill="midnightblue" stroke="midnightblue" points="3008.78,-170.62 3017.45,-164.54 3006.88,-163.88 3008.78,-170.62"/>
</g>
<!-- Node47 -->
<g id="node42" class="node">
<title>Node47</title>
<g id="a_node42"><a xlink:href="hdf5-core-tf_8h.html" target="_top" xlink:title=" ">
<polygon fill="none" stroke="black" points="2097.64,-134.5 2097.64,-164.5 2222.64,-164.5 2222.64,-134.5 2097.64,-134.5"/>
<text text-anchor="start" x="2105.64" y="-152.5" font-family="Helvetica,sans-Serif" font-size="10.00">seerep&#45;hdf5&#45;core/hdf5</text>
<text text-anchor="middle" x="2160.14" y="-141.5" font-family="Helvetica,sans-Serif" font-size="10.00">&#45;core&#45;tf.h</text>
</a>
</g>
</g>
<!-- Node42&#45;&gt;Node47 -->
<g id="edge112" class="edge">
<title>Node42&#45;&gt;Node47</title>
<path fill="none" stroke="midnightblue" d="M2852.04,-342.69C2705.77,-318.95 2227.73,-240.87 2214.14,-232 2192.93,-218.16 2178.1,-192.77 2169.42,-174"/>
<polygon fill="midnightblue" stroke="midnightblue" points="2172.54,-172.39 2165.33,-164.62 2166.12,-175.18 2172.54,-172.39"/>
</g>
<!-- Node48 -->
<g id="node43" class="node">
<title>Node48</title>
<g id="a_node43"><a xlink:href="core-dataset_8h.html" target="_top" xlink:title=" ">
<polygon fill="none" stroke="red" points="2960.64,-274 2960.64,-293 3047.64,-293 3047.64,-274 2960.64,-274"/>
<text text-anchor="middle" x="3004.14" y="-281" font-family="Helvetica,sans-Serif" font-size="10.00">core&#45;dataset.h</text>
</a>
</g>
</g>
<!-- Node42&#45;&gt;Node48 -->
<g id="edge118" class="edge">
<title>Node42&#45;&gt;Node48</title>
<path fill="none" stroke="midnightblue" d="M2908.97,-340.73C2927.44,-329.82 2959.21,-311.05 2980.92,-298.22"/>
<polygon fill="midnightblue" stroke="midnightblue" points="2982.71,-301.23 2989.54,-293.13 2979.15,-295.2 2982.71,-301.23"/>
</g>
<!-- Node51 -->
<g id="node44" class="node">
<title>Node51</title>
<g id="a_node44"><a xlink:href="core-instances_8h.html" target="_top" xlink:title=" ">
<polygon fill="none" stroke="red" points="2938.64,-207 2938.64,-226 3035.64,-226 3035.64,-207 2938.64,-207"/>
<text text-anchor="middle" x="2987.14" y="-214" font-family="Helvetica,sans-Serif" font-size="10.00">core&#45;instances.h</text>
</a>
</g>
</g>
<!-- Node42&#45;&gt;Node51 -->
<g id="edge147" class="edge">
<title>Node42&#45;&gt;Node51</title>
<path fill="none" stroke="midnightblue" d="M2900.24,-340.84C2915.41,-319.3 2955.08,-263 2975.14,-234.52"/>
<polygon fill="midnightblue" stroke="midnightblue" points="2978.23,-236.21 2981.13,-226.02 2972.51,-232.18 2978.23,-236.21"/>
</g>
<!-- Node54 -->
<g id="node45" class="node">
<title>Node54</title>
<g id="a_node45"><a xlink:href="core-tf_8h.html" target="_top" xlink:title=" ">
<polygon fill="none" stroke="red" points="2109.64,-207 2109.64,-226 2166.64,-226 2166.64,-207 2109.64,-207"/>
<text text-anchor="middle" x="2138.14" y="-214" font-family="Helvetica,sans-Serif" font-size="10.00">core&#45;tf.h</text>
</a>
</g>
</g>
<!-- Node42&#45;&gt;Node54 -->
<g id="edge148" class="edge">
<title>Node42&#45;&gt;Node54</title>
<path fill="none" stroke="midnightblue" d="M2851.89,-346.14C2774.69,-339.65 2605.83,-323.79 2465.14,-299 2337.42,-276.49 2305.83,-267.65 2181.14,-232 2178.13,-231.14 2175.02,-230.2 2171.91,-229.22"/>
<polygon fill="midnightblue" stroke="midnightblue" points="2172.71,-225.8 2162.12,-226.03 2170.54,-232.45 2172.71,-225.8"/>
</g>
<!-- Node44&#45;&gt;Node6 -->
<g id="edge82" class="edge">
<title>Node44&#45;&gt;Node6</title>
<path fill="none" stroke="midnightblue" d="M2869.45,-135.52C2866.64,-134.99 2863.86,-134.48 2861.14,-134 2755.8,-115.29 2728.33,-117.5 2623.14,-98 2560.05,-86.31 2545.68,-75.92 2482.14,-67 2189.32,-25.88 1831.87,-18.24 1715.63,-16.82"/>
<polygon fill="midnightblue" stroke="midnightblue" points="1715.5,-13.32 1705.46,-16.71 1715.42,-20.32 1715.5,-13.32"/>
</g>
<!-- Node44&#45;&gt;Node12 -->
<g id="edge77" class="edge">
<title>Node44&#45;&gt;Node12</title>
<path fill="none" stroke="midnightblue" d="M2906.35,-134.44C2873.99,-117.15 2816.5,-87.56 2765.14,-67 2726.07,-51.36 2680.14,-37.21 2647.72,-27.89"/>
<polygon fill="midnightblue" stroke="midnightblue" points="2648.26,-24.41 2637.69,-25.04 2646.35,-31.14 2648.26,-24.41"/>
</g>
<!-- Node44&#45;&gt;Node14 -->
<g id="edge78" class="edge">
<title>Node44&#45;&gt;Node14</title>
<path fill="none" stroke="midnightblue" d="M2964.25,-134.4C2986.07,-124.81 3015.13,-112.05 3038.69,-101.7"/>
<polygon fill="midnightblue" stroke="midnightblue" points="3040.34,-104.8 3048.08,-97.58 3037.52,-98.39 3040.34,-104.8"/>
</g>
<!-- Node44&#45;&gt;Node15 -->
<g id="edge80" class="edge">
<title>Node44&#45;&gt;Node15</title>
<path fill="none" stroke="midnightblue" d="M2940.28,-134.34C2951.38,-116.24 2972.9,-85.09 2999.14,-67 3023.11,-50.47 3052.94,-38.97 3079.67,-31.17"/>
<polygon fill="midnightblue" stroke="midnightblue" points="3080.68,-34.52 3089.37,-28.46 3078.79,-27.78 3080.68,-34.52"/>
</g>
<!-- Node44&#45;&gt;Node16 -->
<g id="edge85" class="edge">
<title>Node44&#45;&gt;Node16</title>
<path fill="none" stroke="midnightblue" d="M2994.67,-135.91C3051.62,-124.24 3131.37,-107.31 3162.14,-98 3228.28,-77.97 3303.16,-46.55 3342.87,-29.15"/>
<polygon fill="midnightblue" stroke="midnightblue" points="3344.44,-32.28 3352.18,-25.05 3341.62,-25.88 3344.44,-32.28"/>
</g>
<!-- Node44&#45;&gt;Node17 -->
<g id="edge79" class="edge">
<title>Node44&#45;&gt;Node17</title>
<path fill="none" stroke="midnightblue" d="M2869.48,-135.34C2866.66,-134.87 2863.87,-134.42 2861.14,-134 2819.52,-127.69 2558.69,-102.66 2429.07,-90.38"/>
<polygon fill="midnightblue" stroke="midnightblue" points="2429.12,-86.87 2418.84,-89.41 2428.46,-93.84 2429.12,-86.87"/>
</g>
<!-- Node44&#45;&gt;Node19 -->
<g id="edge81" class="edge">
<title>Node44&#45;&gt;Node19</title>
<path fill="none" stroke="midnightblue" d="M2879.96,-134.5C2819.41,-118.25 2716.55,-90.66 2628.14,-67 2577.54,-53.46 2519.31,-37.91 2481.01,-27.68"/>
<polygon fill="midnightblue" stroke="midnightblue" points="2481.81,-24.27 2471.24,-25.07 2480,-31.03 2481.81,-24.27"/>
</g>
<!-- Node44&#45;&gt;Node24 -->
<g id="edge83" class="edge">
<title>Node44&#45;&gt;Node24</title>
<path fill="none" stroke="midnightblue" d="M2869.5,-135.22C2866.68,-134.77 2863.88,-134.36 2861.14,-134 2606.87,-100.26 2540.57,-121.39 2285.14,-98 2270.53,-96.66 2254.96,-94.98 2240.04,-93.23"/>
<polygon fill="midnightblue" stroke="midnightblue" points="2240.18,-89.72 2229.83,-92.01 2239.35,-96.67 2240.18,-89.72"/>
</g>
<!-- Node44&#45;&gt;Node25 -->
<g id="edge84" class="edge">
<title>Node44&#45;&gt;Node25</title>
<path fill="none" stroke="midnightblue" d="M2869.5,-135.16C2866.68,-134.73 2863.88,-134.34 2861.14,-134 2518.52,-91.33 2427.81,-140.2 2085.14,-98 2076.95,-96.99 2068.3,-95.57 2059.95,-94"/>
<polygon fill="midnightblue" stroke="midnightblue" points="2060.44,-90.53 2049.96,-92.04 2059.1,-97.4 2060.44,-90.53"/>
</g>
<!-- Node44&#45;&gt;Node26 -->
<g id="edge86" class="edge">
<title>Node44&#45;&gt;Node26</title>
<path fill="none" stroke="midnightblue" d="M2994.88,-135.36C2998.01,-134.86 3001.1,-134.41 3004.14,-134 3239.02,-102.54 3300.59,-124.09 3536.14,-98 3547.07,-96.79 3558.67,-95.23 3569.87,-93.58"/>
<polygon fill="midnightblue" stroke="midnightblue" points="3570.63,-97 3579.99,-92.05 3569.58,-90.08 3570.63,-97"/>
</g>
<!-- Node44&#45;&gt;Node27 -->
<g id="edge87" class="edge">
<title>Node44&#45;&gt;Node27</title>
<path fill="none" stroke="midnightblue" d="M2994.91,-135.52C2998.02,-134.98 3001.11,-134.47 3004.14,-134 3076.44,-122.76 3279.03,-101.87 3389.32,-90.81"/>
<polygon fill="midnightblue" stroke="midnightblue" points="3389.77,-94.28 3399.37,-89.8 3389.08,-87.32 3389.77,-94.28"/>
</g>
<!-- Node45&#45;&gt;Node6 -->
<g id="edge98" class="edge">
<title>Node45&#45;&gt;Node6</title>
<path fill="none" stroke="midnightblue" d="M2583.23,-136.63C2577.79,-135.71 2572.37,-134.81 2567.14,-134 2442.29,-114.59 2401.55,-147.12 2285.14,-98 2264.74,-89.39 2266.7,-75.21 2246.14,-67 2149.22,-28.28 1827.09,-19.09 1715.55,-17.05"/>
<polygon fill="midnightblue" stroke="midnightblue" points="1715.48,-13.55 1705.42,-16.87 1715.36,-20.55 1715.48,-13.55"/>
</g>
<!-- Node45&#45;&gt;Node12 -->
<g id="edge89" class="edge">
<title>Node45&#45;&gt;Node12</title>
<path fill="none" stroke="midnightblue" d="M2641.85,-134.37C2634.56,-110.29 2619.72,-61.31 2611.65,-34.7"/>
<polygon fill="midnightblue" stroke="midnightblue" points="2614.99,-33.65 2608.74,-25.1 2608.29,-35.68 2614.99,-33.65"/>
</g>
<!-- Node45&#45;&gt;Node16 -->
<g id="edge94" class="edge">
<title>Node45&#45;&gt;Node16</title>
<path fill="none" stroke="midnightblue" d="M2682.25,-134.39C2731.1,-115.91 2821.33,-83.86 2901.14,-67 2939.61,-58.87 3183.92,-34.61 3304.29,-22.93"/>
<polygon fill="midnightblue" stroke="midnightblue" points="3304.88,-26.39 3314.49,-21.94 3304.2,-19.42 3304.88,-26.39"/>
</g>
<!-- Node45&#45;&gt;Node17 -->
<g id="edge90" class="edge">
<title>Node45&#45;&gt;Node17</title>
<path fill="none" stroke="midnightblue" d="M2583.57,-134.48C2538.18,-124.3 2476.65,-110.51 2429.03,-99.84"/>
<polygon fill="midnightblue" stroke="midnightblue" points="2429.62,-96.38 2419.09,-97.61 2428.08,-103.21 2429.62,-96.38"/>
</g>
<!-- Node45&#45;&gt;Node19 -->
<g id="edge97" class="edge">
<title>Node45&#45;&gt;Node19</title>
<path fill="none" stroke="midnightblue" d="M2623.98,-134.37C2584.12,-108.95 2500.76,-55.79 2461.06,-30.48"/>
<polygon fill="midnightblue" stroke="midnightblue" points="2462.93,-27.52 2452.62,-25.1 2459.17,-33.43 2462.93,-27.52"/>
</g>
<!-- Node45&#45;&gt;Node24 -->
<g id="edge92" class="edge">
<title>Node45&#45;&gt;Node24</title>
<path fill="none" stroke="midnightblue" d="M2583.59,-136.32C2578.7,-135.49 2573.84,-134.71 2569.14,-134 2428.48,-112.82 2391.98,-117.83 2251.14,-98 2242,-96.71 2232.33,-95.22 2222.92,-93.68"/>
<polygon fill="midnightblue" stroke="midnightblue" points="2223.26,-90.19 2212.83,-92.02 2222.12,-97.1 2223.26,-90.19"/>
</g>
<!-- Node45&#45;&gt;Node25 -->
<g id="edge93" class="edge">
<title>Node45&#45;&gt;Node25</title>
<path fill="none" stroke="midnightblue" d="M2583.53,-140.09C2566.54,-137.95 2548.15,-135.76 2531.14,-134 2333.32,-113.56 2282.07,-125.68 2085.14,-98 2077.32,-96.9 2069.08,-95.49 2061.07,-93.97"/>
<polygon fill="midnightblue" stroke="midnightblue" points="2061.59,-90.51 2051.11,-92.02 2060.25,-97.38 2061.59,-90.51"/>
</g>
<!-- Node45&#45;&gt;Node26 -->
<g id="edge95" class="edge">
<title>Node45&#45;&gt;Node26</title>
<path fill="none" stroke="midnightblue" d="M2708.87,-135.27C2712,-134.8 2715.1,-134.37 2718.14,-134 3079.37,-89.95 3173.99,-133.79 3536.14,-98 3547.57,-96.87 3559.74,-95.28 3571.4,-93.57"/>
<polygon fill="midnightblue" stroke="midnightblue" points="3572.11,-97 3581.48,-92.04 3571.06,-90.08 3572.11,-97"/>
</g>
<!-- Node45&#45;&gt;Node27 -->
<g id="edge96" class="edge">
<title>Node45&#45;&gt;Node27</title>
<path fill="none" stroke="midnightblue" d="M2708.88,-135.36C2712.01,-134.86 2715.1,-134.41 2718.14,-134 2846.38,-116.82 3227.6,-95.73 3389.3,-87.27"/>
<polygon fill="midnightblue" stroke="midnightblue" points="3389.83,-90.75 3399.63,-86.73 3389.46,-83.76 3389.83,-90.75"/>
</g>
<!-- Node45&#45;&gt;Node41 -->
<g id="edge91" class="edge">
<title>Node45&#45;&gt;Node41</title>
<path fill="none" stroke="midnightblue" d="M2583.5,-144.29C2422.74,-133.47 1993.95,-104.62 1790.37,-90.92"/>
<polygon fill="midnightblue" stroke="midnightblue" points="1790.47,-87.42 1780.26,-90.24 1790,-94.4 1790.47,-87.42"/>
</g>
<!-- Node46&#45;&gt;Node6 -->
<g id="edge106" class="edge">
<title>Node46&#45;&gt;Node6</title>
<path fill="none" stroke="midnightblue" d="M3012.47,-135.4C3009.66,-134.9 3006.87,-134.44 3004.14,-134 2866.29,-112.01 2829.52,-122.72 2692.14,-98 2635.38,-87.79 2623.17,-75.56 2566.14,-67 2239.7,-18 1839.34,-15.61 1715.47,-16.16"/>
<polygon fill="midnightblue" stroke="midnightblue" points="1715.34,-12.66 1705.36,-16.22 1715.37,-19.66 1715.34,-12.66"/>
</g>
<!-- Node46&#45;&gt;Node12 -->
<g id="edge101" class="edge">
<title>Node46&#45;&gt;Node12</title>
<path fill="none" stroke="midnightblue" d="M3109.03,-134.49C3142.37,-118.78 3185.16,-92.22 3162.14,-67 3129.61,-31.39 2811.62,-20.63 2671.68,-17.6"/>
<polygon fill="midnightblue" stroke="midnightblue" points="2671.58,-14.1 2661.51,-17.39 2671.44,-21.1 2671.58,-14.1"/>
</g>
<!-- Node46&#45;&gt;Node14 -->
<g id="edge102" class="edge">
<title>Node46&#45;&gt;Node14</title>
<path fill="none" stroke="midnightblue" d="M3076.22,-134.4C3076.82,-126.56 3077.59,-116.6 3078.28,-107.57"/>
<polygon fill="midnightblue" stroke="midnightblue" points="3081.78,-107.82 3079.05,-97.58 3074.8,-107.28 3081.78,-107.82"/>
</g>
<!-- Node46&#45;&gt;Node15 -->
<g id="edge104" class="edge">
<title>Node46&#45;&gt;Node15</title>
<path fill="none" stroke="midnightblue" d="M3137.74,-137.05C3159.67,-129.7 3182.07,-117.68 3195.14,-98 3208.23,-78.28 3191.52,-54.61 3174.69,-37.87"/>
<polygon fill="midnightblue" stroke="midnightblue" points="3176.75,-35 3167.06,-30.71 3171.96,-40.1 3176.75,-35"/>
</g>
<!-- Node46&#45;&gt;Node16 -->
<g id="edge109" class="edge">
<title>Node46&#45;&gt;Node16</title>
<path fill="none" stroke="midnightblue" d="M3137.9,-139.97C3197.22,-131.01 3281.17,-115.79 3309.14,-98 3333.93,-82.23 3352.55,-52.85 3362.64,-34.01"/>
<polygon fill="midnightblue" stroke="midnightblue" points="3365.8,-35.51 3367.24,-25.01 3359.57,-32.32 3365.8,-35.51"/>
</g>
<!-- Node46&#45;&gt;Node17 -->
<g id="edge103" class="edge">
<title>Node46&#45;&gt;Node17</title>
<path fill="none" stroke="midnightblue" d="M3012.49,-135.27C3009.67,-134.81 3006.88,-134.39 3004.14,-134 2894.81,-118.64 2574.01,-97.25 2428.9,-88.03"/>
<polygon fill="midnightblue" stroke="midnightblue" points="2428.97,-84.53 2418.77,-87.39 2428.52,-91.51 2428.97,-84.53"/>
</g>
<!-- Node46&#45;&gt;Node19 -->
<g id="edge105" class="edge">
<title>Node46&#45;&gt;Node19</title>
<path fill="none" stroke="midnightblue" d="M3012.5,-134.67C2937.41,-118.18 2807.71,-89.96 2696.14,-67 2626.41,-52.65 2545.84,-36.97 2493.78,-26.94"/>
<polygon fill="midnightblue" stroke="midnightblue" points="2494.24,-23.47 2483.75,-25.02 2492.91,-30.34 2494.24,-23.47"/>
</g>
<!-- Node46&#45;&gt;Node24 -->
<g id="edge107" class="edge">
<title>Node46&#45;&gt;Node24</title>
<path fill="none" stroke="midnightblue" d="M3012.5,-135.17C3009.68,-134.74 3006.88,-134.35 3004.14,-134 2686.71,-93.87 2603.93,-125.21 2285.14,-98 2270.04,-96.71 2253.92,-95 2238.55,-93.2"/>
<polygon fill="midnightblue" stroke="midnightblue" points="2238.92,-89.72 2228.57,-92.01 2238.09,-96.67 2238.92,-89.72"/>
</g>
<!-- Node46&#45;&gt;Node25 -->
<g id="edge108" class="edge">
<title>Node46&#45;&gt;Node25</title>
<path fill="none" stroke="midnightblue" d="M3012.51,-135.14C3009.68,-134.71 3006.88,-134.33 3004.14,-134 2598.33,-84.94 2491.01,-146.5 2085.14,-98 2076.85,-97.01 2068.11,-95.58 2059.67,-94"/>
<polygon fill="midnightblue" stroke="midnightblue" points="2060.07,-90.51 2049.58,-92.01 2058.72,-97.38 2060.07,-90.51"/>
</g>
<!-- Node46&#45;&gt;Node26 -->
<g id="edge110" class="edge">
<title>Node46&#45;&gt;Node26</title>
<path fill="none" stroke="midnightblue" d="M3137.88,-142.51C3226.68,-133.83 3394.05,-116.73 3536.14,-98 3546.31,-96.66 3557.08,-95.11 3567.56,-93.54"/>
<polygon fill="midnightblue" stroke="midnightblue" points="3568.13,-97 3577.5,-92.04 3567.08,-90.08 3568.13,-97"/>
</g>
<!-- Node46&#45;&gt;Node27 -->
<g id="edge111" class="edge">
<title>Node46&#45;&gt;Node27</title>
<path fill="none" stroke="midnightblue" d="M3137.91,-137.98C3210.68,-125.79 3329.84,-105.83 3401.94,-93.75"/>
<polygon fill="midnightblue" stroke="midnightblue" points="3402.94,-97.13 3412.22,-92.03 3401.78,-90.23 3402.94,-97.13"/>
</g>
<!-- Node47&#45;&gt;Node6 -->
<g id="edge117" class="edge">
<title>Node47&#45;&gt;Node6</title>
<path fill="none" stroke="midnightblue" d="M2097.63,-136.66C2021.39,-122.19 1901.97,-99.45 1897.14,-98 1862.58,-87.66 1855.85,-79.83 1822.14,-67 1785.14,-52.92 1742.28,-38.19 1712.8,-28.29"/>
<polygon fill="midnightblue" stroke="midnightblue" points="1713.56,-24.85 1702.96,-25 1711.34,-31.49 1713.56,-24.85"/>
</g>
<!-- Node47&#45;&gt;Node12 -->
<g id="edge113" class="edge">
<title>Node47&#45;&gt;Node12</title>
<path fill="none" stroke="midnightblue" d="M2097.54,-135.98C2034.9,-123.15 1947.08,-104.23 1942.14,-98 1933.56,-87.21 1932.71,-77.05 1942.14,-67 1985.02,-21.28 2442.79,-37.46 2505.14,-31 2517.18,-29.75 2529.99,-28.14 2542.31,-26.44"/>
<polygon fill="midnightblue" stroke="midnightblue" points="2543.09,-29.86 2552.51,-25 2542.11,-22.93 2543.09,-29.86"/>
</g>
<!-- Node47&#45;&gt;Node17 -->
<g id="edge114" class="edge">
<title>Node47&#45;&gt;Node17</title>
<path fill="none" stroke="midnightblue" d="M2202.66,-134.4C2232.46,-124.52 2272.45,-111.25 2304.14,-100.74"/>
<polygon fill="midnightblue" stroke="midnightblue" points="2305.3,-104.05 2313.69,-97.58 2303.1,-97.4 2305.3,-104.05"/>
</g>
<!-- Node47&#45;&gt;Node19 -->
<g id="edge116" class="edge">
<title>Node47&#45;&gt;Node19</title>
<path fill="none" stroke="midnightblue" d="M2097.36,-136.42C2023.22,-122.08 1909.66,-99.86 1908.14,-98 1899.4,-87.34 1898.87,-77.19 1908.14,-67 1938.8,-33.28 2236.34,-21.56 2372.15,-17.94"/>
<polygon fill="midnightblue" stroke="midnightblue" points="2372.52,-21.43 2382.42,-17.67 2372.34,-14.44 2372.52,-21.43"/>
</g>
<!-- Node47&#45;&gt;Node41 -->
<g id="edge115" class="edge">
<title>Node47&#45;&gt;Node41</title>
<path fill="none" stroke="midnightblue" d="M2097.38,-140C2008.75,-128 1847.24,-106.13 1753.28,-93.4"/>
<polygon fill="midnightblue" stroke="midnightblue" points="1753.66,-89.93 1743.28,-92.05 1752.72,-96.86 1753.66,-89.93"/>
</g>
<!-- Node48&#45;&gt;Node5 -->
<g id="edge119" class="edge">
<title>Node48&#45;&gt;Node5</title>
<path fill="none" stroke="midnightblue" d="M3033.75,-273.96C3041.34,-271.89 3049.52,-269.77 3057.14,-268 3293.85,-213.01 3358.34,-223.8 3594.14,-165 3597.74,-164.1 3601.49,-163.09 3605.21,-162.02"/>
<polygon fill="midnightblue" stroke="midnightblue" points="3606.34,-165.34 3614.93,-159.14 3604.35,-158.63 3606.34,-165.34"/>
</g>
<!-- Node48&#45;&gt;Node6 -->
<g id="edge120" class="edge">
<title>Node48&#45;&gt;Node6</title>
<path fill="none" stroke="midnightblue" d="M2960.28,-282.44C2725.07,-281.69 1619.82,-272.42 1518.14,-165 1488.17,-133.34 1488.27,-102.09 1514.14,-67 1542.57,-28.42 1600.17,-18.43 1638.71,-16.31"/>
<polygon fill="midnightblue" stroke="midnightblue" points="1639.18,-19.79 1649.04,-15.9 1638.91,-12.8 1639.18,-19.79"/>
</g>
<!-- Node48&#45;&gt;Node9 -->
<g id="edge121" class="edge">
<title>Node48&#45;&gt;Node9</title>
<path fill="none" stroke="midnightblue" d="M2960.36,-282.65C2715.05,-283.3 1516.56,-283.78 1361.14,-232 1320.53,-218.47 1281.56,-185.71 1260.74,-166.09"/>
<polygon fill="midnightblue" stroke="midnightblue" points="1263.07,-163.48 1253.45,-159.05 1258.21,-168.51 1263.07,-163.48"/>
</g>
<!-- Node48&#45;&gt;Node10 -->
<g id="edge122" class="edge">
<title>Node48&#45;&gt;Node10</title>
<path fill="none" stroke="midnightblue" d="M3030.85,-273.99C3039.19,-271.66 3048.47,-269.4 3057.14,-268 3206.75,-243.87 3598.38,-290.61 3738.14,-232 3770.97,-218.23 3799.44,-186.82 3814.86,-167.26"/>
<polygon fill="midnightblue" stroke="midnightblue" points="3817.72,-169.29 3821,-159.21 3812.15,-165.04 3817.72,-169.29"/>
</g>
<!-- Node48&#45;&gt;Node14 -->
<g id="edge123" class="edge">
<title>Node48&#45;&gt;Node14</title>
<path fill="none" stroke="midnightblue" d="M3032.29,-274C3040.27,-271.81 3048.99,-269.62 3057.14,-268 3195.42,-240.56 3593.63,-273.93 3683.14,-165 3691.88,-154.35 3692.46,-144.14 3683.14,-134 3665.78,-115.13 3324.26,-95.67 3163.05,-87.5"/>
<polygon fill="midnightblue" stroke="midnightblue" points="3162.86,-83.98 3152.7,-86.98 3162.51,-90.98 3162.86,-83.98"/>
</g>
<!-- Node48&#45;&gt;Node16 -->
<g id="edge144" class="edge">
<title>Node48&#45;&gt;Node16</title>
<path fill="none" stroke="midnightblue" d="M3030.85,-273.96C3039.18,-271.63 3048.47,-269.37 3057.14,-268 3227.43,-241.09 3671.7,-295.13 3832.14,-232 3874.98,-215.14 3891.79,-206.78 3911.14,-165 3959.53,-60.5 3786.92,-78.96 3741.14,-67 3637.19,-39.85 3512.79,-26.69 3437.96,-20.78"/>
<polygon fill="midnightblue" stroke="midnightblue" points="3437.98,-17.27 3427.74,-20 3437.44,-24.25 3437.98,-17.27"/>
</g>
<!-- Node48&#45;&gt;Node24 -->
<g id="edge142" class="edge">
<title>Node48&#45;&gt;Node24</title>
<path fill="none" stroke="midnightblue" d="M2967.83,-273.99C2887.95,-255.17 2691.03,-208.27 2527.14,-165 2478.02,-152.03 2466.52,-145.89 2417.14,-134 2380.46,-125.17 2282.3,-105.97 2219.87,-93.96"/>
<polygon fill="midnightblue" stroke="midnightblue" points="2220.27,-90.47 2209.79,-92.02 2218.95,-97.34 2220.27,-90.47"/>
</g>
<!-- Node48&#45;&gt;Node25 -->
<g id="edge143" class="edge">
<title>Node48&#45;&gt;Node25</title>
<path fill="none" stroke="midnightblue" d="M2960.43,-277.02C2896.76,-268.76 2774.87,-251.97 2672.14,-232 2486.95,-196.01 2443.33,-174.75 2259.14,-134 2222.94,-125.99 2126.3,-106.34 2065.48,-94.05"/>
<polygon fill="midnightblue" stroke="midnightblue" points="2066.17,-90.62 2055.67,-92.07 2064.78,-97.48 2066.17,-90.62"/>
</g>
<!-- Node48&#45;&gt;Node26 -->
<g id="edge145" class="edge">
<title>Node48&#45;&gt;Node26</title>
<path fill="none" stroke="midnightblue" d="M3030.85,-273.98C3039.19,-271.65 3048.47,-269.39 3057.14,-268 3214.45,-242.83 3619.86,-275.45 3773.14,-232 3832.65,-215.13 3863.63,-218.24 3895.14,-165 3902.15,-153.14 3903.92,-144.62 3895.14,-134 3873.62,-108 3792.36,-95.27 3725.43,-89.11"/>
<polygon fill="midnightblue" stroke="midnightblue" points="3725.52,-85.6 3715.25,-88.21 3724.9,-92.58 3725.52,-85.6"/>
</g>
<!-- Node48&#45;&gt;Node27 -->
<g id="edge146" class="edge">
<title>Node48&#45;&gt;Node27</title>
<path fill="none" stroke="midnightblue" d="M3031.14,-273.99C3039.4,-271.7 3048.58,-269.45 3057.14,-268 3291.25,-228.48 3363.83,-303.81 3590.14,-232 3644.7,-214.69 3672.1,-214.91 3700.14,-165 3706.88,-152.99 3708.8,-144.71 3700.14,-134 3698.66,-132.17 3583.75,-108.29 3514.49,-94.03"/>
<polygon fill="midnightblue" stroke="midnightblue" points="3515.13,-90.59 3504.63,-92 3513.72,-97.44 3515.13,-90.59"/>
</g>
<!-- Node48&#45;&gt;Node51 -->
<g id="edge124" class="edge">
<title>Node48&#45;&gt;Node51</title>
<path fill="none" stroke="midnightblue" d="M3001.84,-273.73C2999.32,-264.09 2995.19,-248.3 2991.95,-235.91"/>
<polygon fill="midnightblue" stroke="midnightblue" points="2995.31,-234.92 2989.39,-226.13 2988.54,-236.69 2995.31,-234.92"/>
</g>
<!-- Node48&#45;&gt;Node54 -->
<g id="edge133" class="edge">
<title>Node48&#45;&gt;Node54</title>
<path fill="none" stroke="midnightblue" d="M2960.28,-281.61C2840.35,-278.78 2497.04,-267.89 2214.14,-232 2201.97,-230.46 2188.82,-228.17 2176.94,-225.87"/>
<polygon fill="midnightblue" stroke="midnightblue" points="2177.36,-222.38 2166.87,-223.86 2175.99,-229.25 2177.36,-222.38"/>
</g>
<!-- Node51&#45;&gt;Node5 -->
<g id="edge125" class="edge">
<title>Node51&#45;&gt;Node5</title>
<path fill="none" stroke="midnightblue" d="M3035.89,-211.43C3070.77,-208.53 3118.84,-204.52 3161.14,-201 3353.58,-184.98 3404.54,-201.68 3594.14,-165 3598.38,-164.18 3602.78,-163.12 3607.12,-161.94"/>
<polygon fill="midnightblue" stroke="midnightblue" points="3608.38,-165.21 3617,-159.04 3606.42,-158.5 3608.38,-165.21"/>
</g>
<!-- Node51&#45;&gt;Node6 -->
<g id="edge126" class="edge">
<title>Node51&#45;&gt;Node6</title>
<path fill="none" stroke="midnightblue" d="M2938.34,-214.39C2762.73,-210.15 2169.1,-193.83 2089.14,-165 2067.31,-157.13 2068.53,-142.98 2047.14,-134 1953.75,-94.82 1913.04,-142.63 1822.14,-98 1804.07,-89.13 1805.87,-78.18 1789.14,-67 1765.03,-50.9 1734.96,-37.66 1712.05,-28.79"/>
<polygon fill="midnightblue" stroke="midnightblue" points="1712.98,-25.4 1702.39,-25.14 1710.5,-31.95 1712.98,-25.4"/>
</g>
<!-- Node51&#45;&gt;Node16 -->
<g id="edge130" class="edge">
<title>Node51&#45;&gt;Node16</title>
<path fill="none" stroke="midnightblue" d="M3036.03,-212.66C3165.18,-204.94 3508.9,-182.96 3557.14,-165 3579.21,-156.78 3578.96,-144.32 3600.14,-134 3651.72,-108.85 3689.68,-143.89 3724.14,-98 3732.41,-86.98 3733.16,-77.41 3724.14,-67 3687.83,-25.13 3529.65,-17.12 3437.82,-16.1"/>
<polygon fill="midnightblue" stroke="midnightblue" points="3437.81,-12.6 3427.78,-16.01 3437.75,-19.6 3437.81,-12.6"/>
</g>
<!-- Node51&#45;&gt;Node24 -->
<g id="edge128" class="edge">
<title>Node51&#45;&gt;Node24</title>
<path fill="none" stroke="midnightblue" d="M2938.47,-209.45C2917.45,-206.84 2892.58,-203.76 2870.14,-201 2739.04,-184.88 2698.4,-212.47 2575.14,-165 2552.81,-156.4 2553.43,-142.67 2531.14,-134 2414.19,-88.53 2375.24,-116.43 2251.14,-98 2242.23,-96.68 2232.81,-95.19 2223.61,-93.68"/>
<polygon fill="midnightblue" stroke="midnightblue" points="2224.19,-90.22 2213.75,-92.04 2223.04,-97.13 2224.19,-90.22"/>
</g>
<!-- Node51&#45;&gt;Node25 -->
<g id="edge129" class="edge">
<title>Node51&#45;&gt;Node25</title>
<path fill="none" stroke="midnightblue" d="M2938.47,-210.74C2855,-202.43 2679.23,-184.32 2531.14,-165 2431.75,-152.04 2183.85,-115.34 2085.14,-98 2078.3,-96.8 2071.12,-95.45 2064.04,-94.08"/>
<polygon fill="midnightblue" stroke="midnightblue" points="2064.3,-90.56 2053.81,-92.06 2062.94,-97.43 2064.3,-90.56"/>
</g>
<!-- Node51&#45;&gt;Node26 -->
<g id="edge131" class="edge">
<title>Node51&#45;&gt;Node26</title>
<path fill="none" stroke="midnightblue" d="M3035.81,-212.45C3159.33,-204.49 3478.35,-182.49 3523.14,-165 3528.16,-163.04 3581.67,-121.46 3611.06,-98.46"/>
<polygon fill="midnightblue" stroke="midnightblue" points="3613.27,-101.18 3618.99,-92.26 3608.95,-95.67 3613.27,-101.18"/>
</g>
<!-- Node51&#45;&gt;Node27 -->
<g id="edge132" class="edge">
<title>Node51&#45;&gt;Node27</title>
<path fill="none" stroke="midnightblue" d="M3035.72,-211.83C3097.1,-206.21 3205.42,-193.05 3294.14,-165 3348.74,-147.74 3408.05,-115.75 3439.85,-97.4"/>
<polygon fill="midnightblue" stroke="midnightblue" points="3441.93,-100.24 3448.8,-92.17 3438.4,-94.19 3441.93,-100.24"/>
</g>
<!-- Node51&#45;&gt;Node45 -->
<g id="edge127" class="edge">
<title>Node51&#45;&gt;Node45</title>
<path fill="none" stroke="midnightblue" d="M2940.45,-206.93C2888.81,-197.4 2802.89,-181.43 2718.92,-165.14"/>
<polygon fill="midnightblue" stroke="midnightblue" points="2719.44,-161.67 2708.95,-163.2 2718.1,-168.55 2719.44,-161.67"/>
</g>
<!-- Node54&#45;&gt;Node5 -->
<g id="edge134" class="edge">
<title>Node54&#45;&gt;Node5</title>
<path fill="none" stroke="midnightblue" d="M2166.84,-208.89C2181,-205.92 2198.38,-202.71 2214.14,-201 2792.74,-138.26 2942.77,-208.54 3523.14,-165 3548.1,-163.13 3575.9,-159.77 3598.24,-156.76"/>
<polygon fill="midnightblue" stroke="midnightblue" points="3598.98,-160.19 3608.41,-155.37 3598.03,-153.26 3598.98,-160.19"/>
</g>
<!-- Node54&#45;&gt;Node6 -->
<g id="edge135" class="edge">
<title>Node54&#45;&gt;Node6</title>
<path fill="none" stroke="midnightblue" d="M2109.28,-215C1996.52,-212.8 1589.84,-202.3 1547.14,-165 1513.95,-136.02 1506.61,-102.92 1532.14,-67 1556.2,-33.13 1604.72,-21.78 1638.99,-18.09"/>
<polygon fill="midnightblue" stroke="midnightblue" points="1639.48,-21.56 1649.12,-17.17 1638.85,-14.59 1639.48,-21.56"/>
</g>
<!-- Node54&#45;&gt;Node10 -->
<g id="edge137" class="edge">
<title>Node54&#45;&gt;Node10</title>
<path fill="none" stroke="midnightblue" d="M2166.84,-208.87C2181,-205.9 2198.38,-202.69 2214.14,-201 2863.52,-131.57 3031.32,-205.74 3683.14,-165 3707.6,-163.47 3734.33,-161 3758.05,-158.53"/>
<polygon fill="midnightblue" stroke="midnightblue" points="3758.44,-162.01 3768.02,-157.47 3757.7,-155.05 3758.44,-162.01"/>
</g>
<!-- Node54&#45;&gt;Node21 -->
<g id="edge140" class="edge">
<title>Node54&#45;&gt;Node21</title>
<path fill="none" stroke="midnightblue" d="M2109.59,-216.01C2020.74,-217.01 1741.7,-215.59 1518.14,-165 1383.83,-134.61 1233.98,-67.49 1165.7,-34.93"/>
<polygon fill="midnightblue" stroke="midnightblue" points="1167.15,-31.74 1156.62,-30.57 1164.12,-38.06 1167.15,-31.74"/>
</g>
<!-- Node54&#45;&gt;Node22 -->
<g id="edge141" class="edge">
<title>Node54&#45;&gt;Node22</title>
<path fill="none" stroke="midnightblue" d="M2109.56,-215.18C1912.72,-212.89 760.94,-198.12 609.14,-165 533.81,-148.57 509.15,-146.39 449.14,-98 427.36,-80.44 410.32,-52.47 400.74,-34.29"/>
<polygon fill="midnightblue" stroke="midnightblue" points="403.84,-32.67 396.2,-25.33 397.6,-35.84 403.84,-32.67"/>
</g>
<!-- Node54&#45;&gt;Node40 -->
<g id="edge136" class="edge">
<title>Node54&#45;&gt;Node40</title>
<path fill="none" stroke="midnightblue" d="M2166.85,-208.97C2181.01,-206.02 2198.39,-202.8 2214.14,-201 2626.44,-153.98 2732.55,-182.95 3147.14,-165 3224.35,-161.66 3312.64,-157.36 3373.73,-154.32"/>
<polygon fill="midnightblue" stroke="midnightblue" points="3374.23,-157.8 3384.05,-153.8 3373.89,-150.81 3374.23,-157.8"/>
</g>
<!-- Node54&#45;&gt;Node41 -->
<g id="edge138" class="edge">
<title>Node54&#45;&gt;Node41</title>
<path fill="none" stroke="midnightblue" d="M2109.61,-215.22C1998.2,-213.82 1596.68,-205.96 1559.14,-165 1530.52,-133.78 1590.92,-108.57 1636.25,-94.84"/>
<polygon fill="midnightblue" stroke="midnightblue" points="1637.33,-98.17 1645.95,-92.01 1635.37,-91.45 1637.33,-98.17"/>
</g>
<!-- Node54&#45;&gt;Node47 -->
<g id="edge139" class="edge">
<title>Node54&#45;&gt;Node47</title>
<path fill="none" stroke="midnightblue" d="M2141.1,-206.73C2143.9,-198.46 2148.23,-185.66 2152.06,-174.37"/>
<polygon fill="midnightblue" stroke="midnightblue" points="2155.48,-175.18 2155.37,-164.59 2148.85,-172.94 2155.48,-175.18"/>
</g>
<!-- Node60&#45;&gt;Node5 -->
<g id="edge154" class="edge">
<title>Node60&#45;&gt;Node5</title>
<path fill="none" stroke="midnightblue" d="M2337.23,-214.84C2513.83,-212.44 3066.78,-202.25 3523.14,-165 3548.09,-162.96 3575.88,-159.6 3598.23,-156.63"/>
<polygon fill="midnightblue" stroke="midnightblue" points="3598.96,-160.06 3608.4,-155.25 3598.02,-153.12 3598.96,-160.06"/>
</g>
<!-- Node60&#45;&gt;Node6 -->
<g id="edge155" class="edge">
<title>Node60&#45;&gt;Node6</title>
<path fill="none" stroke="midnightblue" d="M2223.02,-206.7C2207.81,-204.58 2191.37,-202.5 2176.14,-201 2107.8,-194.25 1606.26,-214.95 1559.14,-165 1544.07,-149.03 1556.48,-86.21 1571.14,-67 1587.72,-45.26 1616.03,-32.44 1639.22,-25.16"/>
<polygon fill="midnightblue" stroke="midnightblue" points="1640.5,-28.43 1649.13,-22.28 1638.55,-21.71 1640.5,-28.43"/>
</g>
<!-- Node60&#45;&gt;Node8 -->
<g id="edge157" class="edge">
<title>Node60&#45;&gt;Node8</title>
<path fill="none" stroke="midnightblue" d="M2223.04,-206.46C2207.83,-204.35 2191.39,-202.33 2176.14,-201 1726,-161.75 1609.08,-216.04 1160.14,-165 1151.33,-164 1142.01,-162.53 1133.04,-160.91"/>
<polygon fill="midnightblue" stroke="midnightblue" points="1133.59,-157.45 1123.11,-159.03 1132.29,-164.33 1133.59,-157.45"/>
</g>
<!-- Node60&#45;&gt;Node9 -->
<g id="edge161" class="edge">
<title>Node60&#45;&gt;Node9</title>
<path fill="none" stroke="midnightblue" d="M2223.02,-206.65C2207.81,-204.54 2191.38,-202.47 2176.14,-201 2134.51,-196.98 1553.17,-166.53 1330.79,-154.95"/>
<polygon fill="midnightblue" stroke="midnightblue" points="1330.97,-151.45 1320.8,-154.43 1330.6,-158.44 1330.97,-151.45"/>
</g>
<!-- Node60&#45;&gt;Node10 -->
<g id="edge163" class="edge">
<title>Node60&#45;&gt;Node10</title>
<path fill="none" stroke="midnightblue" d="M2337.34,-214.76C2528.3,-212.01 3161.24,-200.63 3683.14,-165 3707.59,-163.33 3734.32,-160.83 3758.04,-158.37"/>
<polygon fill="midnightblue" stroke="midnightblue" points="3758.43,-161.85 3768.01,-157.32 3757.7,-154.89 3758.43,-161.85"/>
</g>
<!-- Node60&#45;&gt;Node15 -->
<g id="edge160" class="edge">
<title>Node60&#45;&gt;Node15</title>
<path fill="none" stroke="midnightblue" d="M2337.22,-213.33C2524.51,-206.04 3110.38,-182 3147.14,-165 3165.82,-156.36 3203.47,-117.11 3211.14,-98 3216.26,-85.21 3217.05,-79.44 3211.14,-67 3205.31,-54.73 3194.87,-44.46 3184.21,-36.46"/>
<polygon fill="midnightblue" stroke="midnightblue" points="3185.9,-33.37 3175.69,-30.53 3181.9,-39.12 3185.9,-33.37"/>
</g>
<!-- Node60&#45;&gt;Node16 -->
<g id="edge167" class="edge">
<title>Node60&#45;&gt;Node16</title>
<path fill="none" stroke="midnightblue" d="M2337.23,-213.25C2528.93,-205.56 3139.76,-179.99 3179.14,-165 3199.83,-157.12 3198.5,-144.23 3218.14,-134 3267.89,-108.07 3297.81,-135.95 3339.14,-98 3357.12,-81.48 3365.14,-53.6 3368.61,-35.12"/>
<polygon fill="midnightblue" stroke="midnightblue" points="3372.1,-35.44 3370.24,-25.02 3365.19,-34.33 3372.1,-35.44"/>
</g>
<!-- Node60&#45;&gt;Node24 -->
<g id="edge165" class="edge">
<title>Node60&#45;&gt;Node24</title>
<path fill="none" stroke="midnightblue" d="M2281.14,-201.33C2281.64,-183.79 2279.96,-153.81 2265.14,-134 2251.31,-115.53 2228.84,-103.34 2208.69,-95.57"/>
<polygon fill="midnightblue" stroke="midnightblue" points="2209.63,-92.19 2199.04,-92.1 2207.26,-98.78 2209.63,-92.19"/>
</g>
<!-- Node60&#45;&gt;Node25 -->
<g id="edge166" class="edge">
<title>Node60&#45;&gt;Node25</title>
<path fill="none" stroke="midnightblue" d="M2275.72,-201.29C2269.23,-182.84 2255.31,-150.99 2232.14,-134 2225.29,-128.98 2126.51,-107.44 2063.98,-94.17"/>
<polygon fill="midnightblue" stroke="midnightblue" points="2064.4,-90.68 2053.89,-92.03 2062.95,-97.53 2064.4,-90.68"/>
</g>
<!-- Node60&#45;&gt;Node26 -->
<g id="edge168" class="edge">
<title>Node60&#45;&gt;Node26</title>
<path fill="none" stroke="midnightblue" d="M2337.42,-214.06C2518.52,-209.29 3077.24,-192.64 3256.14,-165 3310.15,-156.66 3321.86,-146.2 3375.14,-134 3442.57,-118.55 3520.67,-103.5 3572.49,-93.91"/>
<polygon fill="midnightblue" stroke="midnightblue" points="3573.29,-97.32 3582.49,-92.06 3572.02,-90.43 3573.29,-97.32"/>
</g>
<!-- Node60&#45;&gt;Node27 -->
<g id="edge169" class="edge">
<title>Node60&#45;&gt;Node27</title>
<path fill="none" stroke="midnightblue" d="M2337.24,-213.24C2534.31,-205.32 3176.15,-178.62 3218.14,-165 3242.29,-157.17 3242.87,-144.17 3266.14,-134 3292.39,-122.52 3364.55,-105.3 3413.85,-94.23"/>
<polygon fill="midnightblue" stroke="midnightblue" points="3414.69,-97.62 3423.69,-92.03 3413.17,-90.79 3414.69,-97.62"/>
</g>
<!-- Node60&#45;&gt;Node40 -->
<g id="edge162" class="edge">
<title>Node60&#45;&gt;Node40</title>
<path fill="none" stroke="midnightblue" d="M2337.25,-214.27C2495.55,-210.54 2953.2,-197.53 3332.14,-165 3346.8,-163.74 3362.46,-162.05 3377.39,-160.26"/>
<polygon fill="midnightblue" stroke="midnightblue" points="3378.09,-163.7 3387.59,-159.01 3377.24,-156.75 3378.09,-163.7"/>
</g>
<!-- Node60&#45;&gt;Node41 -->
<g id="edge164" class="edge">
<title>Node60&#45;&gt;Node41</title>
<path fill="none" stroke="midnightblue" d="M2223.11,-205.41C2166.7,-194.94 2084.66,-178.28 2055.14,-165 2033.65,-155.33 2033.95,-142.91 2012.14,-134 1989.02,-124.56 1848.14,-105.13 1757.48,-93.32"/>
<polygon fill="midnightblue" stroke="midnightblue" points="1757.87,-89.84 1747.51,-92.02 1756.97,-96.78 1757.87,-89.84"/>
</g>
<!-- Node61 -->
<g id="node47" class="node">
<title>Node61</title>
<g id="a_node47"><a xlink:title=" ">
<polygon fill="none" stroke="#bfbfbf" points="1716.64,-140 1716.64,-159 1853.64,-159 1853.64,-140 1716.64,-140"/>
<text text-anchor="middle" x="1785.14" y="-147" font-family="Helvetica,sans-Serif" font-size="10.00">seerep&#45;msgs/image.pb.h</text>
</a>
</g>
</g>
<!-- Node60&#45;&gt;Node61 -->
<g id="edge156" class="edge">
<title>Node60&#45;&gt;Node61</title>
<path fill="none" stroke="midnightblue" d="M2222.95,-207.28C2207.75,-205.16 2191.33,-202.93 2176.14,-201 2037.23,-183.33 2001.61,-185.81 1863.14,-165 1855,-163.78 1846.42,-162.34 1838.04,-160.85"/>
<polygon fill="midnightblue" stroke="midnightblue" points="1838.42,-157.36 1827.96,-159.01 1837.17,-164.25 1838.42,-157.36"/>
</g>
<!-- Node62 -->
<g id="node48" class="node">
<title>Node62</title>
<g id="a_node48"><a xlink:title=" ">
<polygon fill="none" stroke="#bfbfbf" points="1871.64,-134.5 1871.64,-164.5 2002.64,-164.5 2002.64,-134.5 1871.64,-134.5"/>
<text text-anchor="start" x="1879.64" y="-152.5" font-family="Helvetica,sans-Serif" font-size="10.00">seerep&#45;msgs/transform</text>
<text text-anchor="middle" x="1937.14" y="-141.5" font-family="Helvetica,sans-Serif" font-size="10.00">_stamped.pb.h</text>
</a>
</g>
</g>
<!-- Node60&#45;&gt;Node62 -->
<g id="edge158" class="edge">
<title>Node60&#45;&gt;Node62</title>
<path fill="none" stroke="midnightblue" d="M2223.11,-204.69C2165.52,-193.78 2076.23,-176.86 2012.76,-164.83"/>
<polygon fill="midnightblue" stroke="midnightblue" points="2013.28,-161.37 2002.8,-162.94 2011.98,-168.24 2013.28,-161.37"/>
</g>
<!-- Node63 -->
<g id="node49" class="node">
<title>Node63</title>
<g id="a_node49"><a xlink:title=" ">
<polygon fill="none" stroke="#bfbfbf" points="1567.64,-134.5 1567.64,-164.5 1698.64,-164.5 1698.64,-134.5 1567.64,-134.5"/>
<text text-anchor="start" x="1575.64" y="-152.5" font-family="Helvetica,sans-Serif" font-size="10.00">seerep&#45;msgs/transform</text>
<text text-anchor="middle" x="1633.14" y="-141.5" font-family="Helvetica,sans-Serif" font-size="10.00">_stamped_query.pb.h</text>
</a>
</g>
</g>
<!-- Node60&#45;&gt;Node63 -->
<g id="edge159" class="edge">
<title>Node60&#45;&gt;Node63</title>
<path fill="none" stroke="midnightblue" d="M2223,-206.89C2207.79,-204.77 2191.36,-202.65 2176.14,-201 1971.97,-178.94 1916.6,-192.41 1708.92,-164.99"/>
<polygon fill="midnightblue" stroke="midnightblue" points="1709.29,-161.51 1698.92,-163.66 1708.36,-168.45 1709.29,-161.51"/>
</g>
</g>
</svg>
