<?xml version="1.0" encoding="UTF-8" standalone="no"?>
<!DOCTYPE svg PUBLIC "-//W3C//DTD SVG 1.1//EN"
 "http://www.w3.org/Graphics/SVG/1.1/DTD/svg11.dtd">
<!-- Generated by graphviz version 2.43.0 (0)
 -->
<!-- Title: seerep_srv/seerep_server/include/seerep_server/pb_receive_sensor_msgs.h Pages: 1 -->
<svg width="1205pt" height="117pt"
 viewBox="0.00 0.00 1204.50 117.00" xmlns="http://www.w3.org/2000/svg" xmlns:xlink="http://www.w3.org/1999/xlink">
<g id="graph0" class="graph" transform="scale(1 1) rotate(0) translate(4 113)">
<title>seerep_srv/seerep_server/include/seerep_server/pb_receive_sensor_msgs.h</title>
<!-- Node1 -->
<g id="node1" class="node">
<title>Node1</title>
<g id="a_node1"><a xlink:title=" ">
<polygon fill="#bfbfbf" stroke="black" points="484,-67.5 484,-108.5 635,-108.5 635,-67.5 484,-67.5"/>
<text text-anchor="start" x="492" y="-96.5" font-family="Helvetica,sans-Serif" font-size="10.00">seerep_srv/seerep_server</text>
<text text-anchor="start" x="492" y="-85.5" font-family="Helvetica,sans-Serif" font-size="10.00">/include/seerep_server</text>
<text text-anchor="middle" x="559.5" y="-74.5" font-family="Helvetica,sans-Serif" font-size="10.00">/pb_receive_sensor_msgs.h</text>
</a>
</g>
</g>
<!-- Node2 -->
<g id="node2" class="node">
<title>Node2</title>
<g id="a_node2"><a xlink:title=" ">
<polygon fill="none" stroke="#bfbfbf" points="0,-6 0,-25 71,-25 71,-6 0,-6"/>
<text text-anchor="middle" x="35.5" y="-13" font-family="Helvetica,sans-Serif" font-size="10.00">grpc/grpc.h</text>
</a>
</g>
</g>
<!-- Node1&#45;&gt;Node2 -->
<g id="edge1" class="edge">
<title>Node1&#45;&gt;Node2</title>
<path fill="none" stroke="midnightblue" d="M483.89,-82.92C388.65,-76.69 220.41,-62.1 79.5,-31 75.83,-30.19 72.03,-29.19 68.27,-28.1"/>
<polygon fill="midnightblue" stroke="midnightblue" points="69.14,-24.7 58.55,-25.07 67.05,-31.39 69.14,-24.7"/>
</g>
<!-- Node3 -->
<g id="node3" class="node">
<title>Node3</title>
<g id="a_node3"><a xlink:title=" ">
<polygon fill="none" stroke="#bfbfbf" points="89,-0.5 89,-30.5 214,-30.5 214,-0.5 89,-0.5"/>
<text text-anchor="start" x="97" y="-18.5" font-family="Helvetica,sans-Serif" font-size="10.00">grpcpp/security/server</text>
<text text-anchor="middle" x="151.5" y="-7.5" font-family="Helvetica,sans-Serif" font-size="10.00">_credentials.h</text>
</a>
</g>
</g>
<!-- Node1&#45;&gt;Node3 -->
<g id="edge2" class="edge">
<title>Node1&#45;&gt;Node3</title>
<path fill="none" stroke="midnightblue" d="M483.98,-75.16C418.13,-64.66 319.78,-48.57 224.42,-31.13"/>
<polygon fill="midnightblue" stroke="midnightblue" points="224.77,-27.64 214.3,-29.28 223.51,-34.53 224.77,-27.64"/>
</g>
<!-- Node4 -->
<g id="node4" class="node">
<title>Node4</title>
<g id="a_node4"><a xlink:title=" ">
<polygon fill="none" stroke="#bfbfbf" points="232.5,-6 232.5,-25 324.5,-25 324.5,-6 232.5,-6"/>
<text text-anchor="middle" x="278.5" y="-13" font-family="Helvetica,sans-Serif" font-size="10.00">grpcpp/server.h</text>
</a>
</g>
</g>
<!-- Node1&#45;&gt;Node4 -->
<g id="edge3" class="edge">
<title>Node1&#45;&gt;Node4</title>
<path fill="none" stroke="midnightblue" d="M483.84,-68.55C439.91,-57.76 383.53,-43.79 333.5,-31 329.19,-29.9 324.69,-28.73 320.2,-27.56"/>
<polygon fill="midnightblue" stroke="midnightblue" points="321.03,-24.16 310.47,-25.01 319.26,-30.93 321.03,-24.16"/>
</g>
<!-- Node5 -->
<g id="node5" class="node">
<title>Node5</title>
<g id="a_node5"><a xlink:title=" ">
<polygon fill="none" stroke="#bfbfbf" points="343,-6 343,-25 474,-25 474,-6 343,-6"/>
<text text-anchor="middle" x="408.5" y="-13" font-family="Helvetica,sans-Serif" font-size="10.00">grpcpp/server_builder.h</text>
</a>
</g>
</g>
<!-- Node1&#45;&gt;Node5 -->
<g id="edge4" class="edge">
<title>Node1&#45;&gt;Node5</title>
<path fill="none" stroke="midnightblue" d="M517.44,-67.36C491.48,-55.24 458.91,-40.03 436.17,-29.42"/>
<polygon fill="midnightblue" stroke="midnightblue" points="437.62,-26.23 427.08,-25.17 434.66,-32.58 437.62,-26.23"/>
</g>
<!-- Node6 -->
<g id="node6" class="node">
<title>Node6</title>
<g id="a_node6"><a xlink:title=" ">
<polygon fill="none" stroke="#bfbfbf" points="492.5,-6 492.5,-25 626.5,-25 626.5,-6 492.5,-6"/>
<text text-anchor="middle" x="559.5" y="-13" font-family="Helvetica,sans-Serif" font-size="10.00">grpcpp/server_context.h</text>
</a>
</g>
</g>
<!-- Node1&#45;&gt;Node6 -->
<g id="edge5" class="edge">
<title>Node1&#45;&gt;Node6</title>
<path fill="none" stroke="midnightblue" d="M559.5,-67.36C559.5,-57.3 559.5,-45.1 559.5,-35.18"/>
<polygon fill="midnightblue" stroke="midnightblue" points="563,-35.17 559.5,-25.17 556,-35.17 563,-35.17"/>
</g>
<!-- Node7 -->
<g id="node7" class="node">
<title>Node7</title>
<g id="a_node7"><a xlink:title=" ">
<polygon fill="none" stroke="#bfbfbf" points="645,-0.5 645,-30.5 776,-30.5 776,-0.5 645,-0.5"/>
<text text-anchor="start" x="653" y="-18.5" font-family="Helvetica,sans-Serif" font-size="10.00">seerep&#45;com/transfer</text>
<text text-anchor="middle" x="710.5" y="-7.5" font-family="Helvetica,sans-Serif" font-size="10.00">&#45;sensor&#45;msgs.grpc.pb.h</text>
</a>
</g>
</g>
<!-- Node1&#45;&gt;Node7 -->
<g id="edge6" class="edge">
<title>Node1&#45;&gt;Node7</title>
<path fill="none" stroke="midnightblue" d="M601.56,-67.36C623.3,-57.21 649.68,-44.9 671.03,-34.93"/>
<polygon fill="midnightblue" stroke="midnightblue" points="672.57,-38.07 680.15,-30.67 669.61,-31.73 672.57,-38.07"/>
</g>
<!-- Node8 -->
<g id="node8" class="node">
<title>Node8</title>
<g id="a_node8"><a xlink:title=" ">
<polygon fill="none" stroke="#bfbfbf" points="794,-6 794,-25 901,-25 901,-6 794,-6"/>
<text text-anchor="middle" x="847.5" y="-13" font-family="Helvetica,sans-Serif" font-size="10.00">seerep&#45;core/core.h</text>
</a>
</g>
</g>
<!-- Node1&#45;&gt;Node8 -->
<g id="edge7" class="edge">
<title>Node1&#45;&gt;Node8</title>
<path fill="none" stroke="midnightblue" d="M635.17,-68.48C688.36,-55.46 757.73,-38.47 802.46,-27.53"/>
<polygon fill="midnightblue" stroke="midnightblue" points="803.56,-30.86 812.44,-25.08 801.89,-24.06 803.56,-30.86"/>
</g>
<!-- Node9 -->
<g id="node9" class="node">
<title>Node9</title>
<g id="a_node9"><a xlink:title=" ">
<polygon fill="none" stroke="#bfbfbf" points="919,-0.5 919,-30.5 1064,-30.5 1064,-0.5 919,-0.5"/>
<text text-anchor="start" x="927" y="-18.5" font-family="Helvetica,sans-Serif" font-size="10.00">boost/log/sources/severity</text>
<text text-anchor="middle" x="991.5" y="-7.5" font-family="Helvetica,sans-Serif" font-size="10.00">_logger.hpp</text>
</a>
</g>
</g>
<!-- Node1&#45;&gt;Node9 -->
<g id="edge8" class="edge">
<title>Node1&#45;&gt;Node9</title>
<path fill="none" stroke="midnightblue" d="M635.23,-75.34C704.07,-64.65 808.73,-48.15 908.69,-31.29"/>
<polygon fill="midnightblue" stroke="midnightblue" points="909.38,-34.72 918.65,-29.61 908.21,-27.82 909.38,-34.72"/>
</g>
<!-- Node10 -->
<g id="node10" class="node">
<title>Node10</title>
<g id="a_node10"><a xlink:title=" ">
<polygon fill="none" stroke="#bfbfbf" points="1082.5,-6 1082.5,-25 1196.5,-25 1196.5,-6 1082.5,-6"/>
<text text-anchor="middle" x="1139.5" y="-13" font-family="Helvetica,sans-Serif" font-size="10.00">boost/log/trivial.hpp</text>
</a>
</g>
</g>
<!-- Node1&#45;&gt;Node10 -->
<g id="edge9" class="edge">
<title>Node1&#45;&gt;Node10</title>
<path fill="none" stroke="midnightblue" d="M635.18,-81.32C735.73,-73.19 918.7,-56.36 1073.5,-31 1080.19,-29.9 1087.22,-28.56 1094.1,-27.15"/>
<polygon fill="midnightblue" stroke="midnightblue" points="1094.96,-30.54 1104.01,-25.03 1093.5,-23.7 1094.96,-30.54"/>
</g>
</g>
</svg>
