<?xml version="1.0" encoding="UTF-8" standalone="no"?>
<!DOCTYPE svg PUBLIC "-//W3C//DTD SVG 1.1//EN"
 "http://www.w3.org/Graphics/SVG/1.1/DTD/svg11.dtd">
<!-- Generated by graphviz version 2.43.0 (0)
 -->
<!-- Title: seerep_msgs/core/query_result.h Pages: 1 -->
<svg width="254pt" height="151pt"
 viewBox="0.00 0.00 253.50 151.00" xmlns="http://www.w3.org/2000/svg" xmlns:xlink="http://www.w3.org/1999/xlink">
<g id="graph0" class="graph" transform="scale(1 1) rotate(0) translate(4 147)">
<title>seerep_msgs/core/query_result.h</title>
<!-- Node1 -->
<g id="node1" class="node">
<title>Node1</title>
<g id="a_node1"><a xlink:title=" ">
<polygon fill="#bfbfbf" stroke="black" points="0,-112.5 0,-142.5 136,-142.5 136,-112.5 0,-112.5"/>
<text text-anchor="start" x="8" y="-130.5" font-family="Helvetica,sans-Serif" font-size="10.00">seerep_msgs/core/query</text>
<text text-anchor="middle" x="68" y="-119.5" font-family="Helvetica,sans-Serif" font-size="10.00">_result.h</text>
</a>
</g>
</g>
<!-- Node2 -->
<g id="node2" class="node">
<title>Node2</title>
<g id="a_node2"><a xlink:title=" ">
<polygon fill="none" stroke="#bfbfbf" points="8.5,-0.5 8.5,-19.5 73.5,-19.5 73.5,-0.5 8.5,-0.5"/>
<text text-anchor="middle" x="41" y="-7.5" font-family="Helvetica,sans-Serif" font-size="10.00">functional</text>
</a>
</g>
</g>
<!-- Node1&#45;&gt;Node2 -->
<g id="edge1" class="edge">
<title>Node1&#45;&gt;Node2</title>
<path fill="none" stroke="midnightblue" d="M50.37,-112.13C40.57,-102.96 29.3,-90.16 24,-76 18.13,-60.33 24.18,-41.82 30.63,-28.56"/>
<polygon fill="midnightblue" stroke="midnightblue" points="33.8,-30.05 35.45,-19.59 27.63,-26.74 33.8,-30.05"/>
</g>
<!-- Node3 -->
<g id="node3" class="node">
<title>Node3</title>
<g id="a_node3"><a xlink:href="datatype_8h.html" target="_top" xlink:title=" ">
<polygon fill="none" stroke="black" points="33.5,-56.5 33.5,-75.5 102.5,-75.5 102.5,-56.5 33.5,-56.5"/>
<text text-anchor="middle" x="68" y="-63.5" font-family="Helvetica,sans-Serif" font-size="10.00">datatype.h</text>
</a>
</g>
</g>
<!-- Node1&#45;&gt;Node3 -->
<g id="edge2" class="edge">
<title>Node1&#45;&gt;Node3</title>
<path fill="none" stroke="midnightblue" d="M68,-112.4C68,-104.47 68,-94.46 68,-85.86"/>
<polygon fill="midnightblue" stroke="midnightblue" points="71.5,-85.66 68,-75.66 64.5,-85.66 71.5,-85.66"/>
</g>
<!-- Node4 -->
<g id="node4" class="node">
<title>Node4</title>
<g id="a_node4"><a xlink:href="query__result__project_8h.html" target="_top" xlink:title=" ">
<polygon fill="none" stroke="black" points="120.5,-56.5 120.5,-75.5 245.5,-75.5 245.5,-56.5 120.5,-56.5"/>
<text text-anchor="middle" x="183" y="-63.5" font-family="Helvetica,sans-Serif" font-size="10.00">query_result_project.h</text>
</a>
</g>
</g>
<!-- Node1&#45;&gt;Node4 -->
<g id="edge3" class="edge">
<title>Node1&#45;&gt;Node4</title>
<path fill="none" stroke="midnightblue" d="M95.25,-112.4C114.03,-102.68 138.83,-89.86 157.27,-80.31"/>
<polygon fill="midnightblue" stroke="midnightblue" points="158.99,-83.36 166.27,-75.66 155.78,-77.14 158.99,-83.36"/>
</g>
<!-- Node4&#45;&gt;Node2 -->
<g id="edge5" class="edge">
<title>Node4&#45;&gt;Node2</title>
<path fill="none" stroke="midnightblue" d="M160.5,-56.44C136.92,-47.48 99.68,-33.31 73.04,-23.18"/>
<polygon fill="midnightblue" stroke="midnightblue" points="73.99,-19.8 63.4,-19.52 71.5,-26.34 73.99,-19.8"/>
</g>
<!-- Node5 -->
<g id="node5" class="node">
<title>Node5</title>
<g id="a_node5"><a xlink:title=" ">
<polygon fill="none" stroke="#bfbfbf" points="126.5,-0.5 126.5,-19.5 239.5,-19.5 239.5,-0.5 126.5,-0.5"/>
<text text-anchor="middle" x="183" y="-7.5" font-family="Helvetica,sans-Serif" font-size="10.00">boost/uuid/uuid.hpp</text>
</a>
</g>
</g>
<!-- Node4&#45;&gt;Node5 -->
<g id="edge4" class="edge">
<title>Node4&#45;&gt;Node5</title>
<path fill="none" stroke="midnightblue" d="M183,-56.08C183,-49.01 183,-38.86 183,-29.99"/>
<polygon fill="midnightblue" stroke="midnightblue" points="186.5,-29.75 183,-19.75 179.5,-29.75 186.5,-29.75"/>
</g>
</g>
</svg>
