<?xml version="1.0" encoding="UTF-8" standalone="no"?>
<!DOCTYPE svg PUBLIC "-//W3C//DTD SVG 1.1//EN"
 "http://www.w3.org/Graphics/SVG/1.1/DTD/svg11.dtd">
<!-- Generated by graphviz version 2.43.0 (0)
 -->
<!-- Title: seerep_msgs/core/query.h Pages: 1 -->
<svg width="560pt" height="207pt"
 viewBox="0.00 0.00 560.00 207.00" xmlns="http://www.w3.org/2000/svg" xmlns:xlink="http://www.w3.org/1999/xlink">
<g id="graph0" class="graph" transform="scale(1 1) rotate(0) translate(4 203)">
<title>seerep_msgs/core/query.h</title>
<!-- Node1 -->
<g id="node1" class="node">
<title>Node1</title>
<g id="a_node1"><a xlink:title=" ">
<polygon fill="#bfbfbf" stroke="black" points="320,-179.5 320,-198.5 463,-198.5 463,-179.5 320,-179.5"/>
<text text-anchor="middle" x="391.5" y="-186.5" font-family="Helvetica,sans-Serif" font-size="10.00">seerep_msgs/core/query.h</text>
</a>
</g>
</g>
<!-- Node2 -->
<g id="node2" class="node">
<title>Node2</title>
<g id="a_node2"><a xlink:title=" ">
<polygon fill="none" stroke="#bfbfbf" points="274,-6 274,-25 387,-25 387,-6 274,-6"/>
<text text-anchor="middle" x="330.5" y="-13" font-family="Helvetica,sans-Serif" font-size="10.00">boost/uuid/uuid.hpp</text>
</a>
</g>
</g>
<!-- Node1&#45;&gt;Node2 -->
<g id="edge1" class="edge">
<title>Node1&#45;&gt;Node2</title>
<path fill="none" stroke="midnightblue" d="M381.76,-179.29C372.89,-170.84 360.06,-157.25 352.5,-143 334.01,-108.17 330.57,-61.07 330.21,-35.29"/>
<polygon fill="midnightblue" stroke="midnightblue" points="333.71,-35.07 330.22,-25.07 326.71,-35.06 333.71,-35.07"/>
</g>
<!-- Node3 -->
<g id="node3" class="node">
<title>Node3</title>
<g id="a_node3"><a xlink:title=" ">
<polygon fill="none" stroke="#bfbfbf" points="487,-6 487,-25 552,-25 552,-6 487,-6"/>
<text text-anchor="middle" x="519.5" y="-13" font-family="Helvetica,sans-Serif" font-size="10.00">functional</text>
</a>
</g>
</g>
<!-- Node1&#45;&gt;Node3 -->
<g id="edge2" class="edge">
<title>Node1&#45;&gt;Node3</title>
<path fill="none" stroke="midnightblue" d="M463.32,-182.91C490.08,-177.11 517.95,-165.56 534.5,-143 558.18,-110.73 540.88,-60.87 528.71,-34.41"/>
<polygon fill="midnightblue" stroke="midnightblue" points="531.76,-32.68 524.24,-25.21 525.46,-35.73 531.76,-32.68"/>
</g>
<!-- Node4 -->
<g id="node4" class="node">
<title>Node4</title>
<g id="a_node4"><a xlink:href="header_8h.html" target="_top" xlink:title=" ">
<polygon fill="none" stroke="black" points="362,-123.5 362,-142.5 421,-142.5 421,-123.5 362,-123.5"/>
<text text-anchor="middle" x="391.5" y="-130.5" font-family="Helvetica,sans-Serif" font-size="10.00">header.h</text>
</a>
</g>
</g>
<!-- Node1&#45;&gt;Node4 -->
<g id="edge3" class="edge">
<title>Node1&#45;&gt;Node4</title>
<path fill="none" stroke="midnightblue" d="M391.5,-179.08C391.5,-172.01 391.5,-161.86 391.5,-152.99"/>
<polygon fill="midnightblue" stroke="midnightblue" points="395,-152.75 391.5,-142.75 388,-152.75 395,-152.75"/>
</g>
<!-- Node7 -->
<g id="node7" class="node">
<title>Node7</title>
<g id="a_node7"><a xlink:href="polygon2d_8h.html" target="_top" xlink:title=" ">
<polygon fill="none" stroke="black" points="171,-123.5 171,-142.5 248,-142.5 248,-123.5 171,-123.5"/>
<text text-anchor="middle" x="209.5" y="-130.5" font-family="Helvetica,sans-Serif" font-size="10.00">polygon2d.h</text>
</a>
</g>
</g>
<!-- Node1&#45;&gt;Node7 -->
<g id="edge8" class="edge">
<title>Node1&#45;&gt;Node7</title>
<path fill="none" stroke="midnightblue" d="M362.66,-179.44C331.64,-170.24 282.17,-155.56 247.88,-145.39"/>
<polygon fill="midnightblue" stroke="midnightblue" points="248.79,-142.01 238.2,-142.52 246.79,-148.72 248.79,-142.01"/>
</g>
<!-- Node11 -->
<g id="node11" class="node">
<title>Node11</title>
<g id="a_node11"><a xlink:href="timeinterval_8h.html" target="_top" xlink:title=" ">
<polygon fill="none" stroke="black" points="439.5,-123.5 439.5,-142.5 525.5,-142.5 525.5,-123.5 439.5,-123.5"/>
<text text-anchor="middle" x="482.5" y="-130.5" font-family="Helvetica,sans-Serif" font-size="10.00">timeinterval.h</text>
</a>
</g>
</g>
<!-- Node1&#45;&gt;Node11 -->
<g id="edge13" class="edge">
<title>Node1&#45;&gt;Node11</title>
<path fill="none" stroke="midnightblue" d="M406.12,-179.32C420.45,-170.82 442.51,-157.73 459.25,-147.8"/>
<polygon fill="midnightblue" stroke="midnightblue" points="461.1,-150.77 467.92,-142.65 457.53,-144.75 461.1,-150.77"/>
</g>
<!-- Node4&#45;&gt;Node2 -->
<g id="edge4" class="edge">
<title>Node4&#45;&gt;Node2</title>
<path fill="none" stroke="midnightblue" d="M380.99,-123.44C371.42,-115.1 357.6,-101.57 349.5,-87 340.47,-70.75 335.55,-49.99 333,-35.21"/>
<polygon fill="midnightblue" stroke="midnightblue" points="336.45,-34.61 331.48,-25.25 329.53,-35.67 336.45,-34.61"/>
</g>
<!-- Node5 -->
<g id="node5" class="node">
<title>Node5</title>
<g id="a_node5"><a xlink:href="datatype_8h.html" target="_top" xlink:title=" ">
<polygon fill="none" stroke="black" points="359,-67.5 359,-86.5 428,-86.5 428,-67.5 359,-67.5"/>
<text text-anchor="middle" x="393.5" y="-74.5" font-family="Helvetica,sans-Serif" font-size="10.00">datatype.h</text>
</a>
</g>
</g>
<!-- Node4&#45;&gt;Node5 -->
<g id="edge5" class="edge">
<title>Node4&#45;&gt;Node5</title>
<path fill="none" stroke="midnightblue" d="M391.83,-123.08C392.09,-116.01 392.47,-105.86 392.8,-96.99"/>
<polygon fill="midnightblue" stroke="midnightblue" points="396.3,-96.87 393.18,-86.75 389.31,-96.61 396.3,-96.87"/>
</g>
<!-- Node6 -->
<g id="node6" class="node">
<title>Node6</title>
<g id="a_node6"><a xlink:href="timestamp_8h.html" target="_top" xlink:title=" ">
<polygon fill="none" stroke="black" points="446,-67.5 446,-86.5 525,-86.5 525,-67.5 446,-67.5"/>
<text text-anchor="middle" x="485.5" y="-74.5" font-family="Helvetica,sans-Serif" font-size="10.00">timestamp.h</text>
</a>
</g>
</g>
<!-- Node4&#45;&gt;Node6 -->
<g id="edge6" class="edge">
<title>Node4&#45;&gt;Node6</title>
<path fill="none" stroke="midnightblue" d="M406.6,-123.32C421.4,-114.82 444.19,-101.73 461.48,-91.8"/>
<polygon fill="midnightblue" stroke="midnightblue" points="463.51,-94.67 470.43,-86.65 460.02,-88.6 463.51,-94.67"/>
</g>
<!-- Node6&#45;&gt;Node3 -->
<g id="edge7" class="edge">
<title>Node6&#45;&gt;Node3</title>
<path fill="none" stroke="midnightblue" d="M490.37,-67.48C495.37,-58.73 503.29,-44.87 509.61,-33.81"/>
<polygon fill="midnightblue" stroke="midnightblue" points="512.72,-35.43 514.64,-25.01 506.64,-31.96 512.72,-35.43"/>
</g>
<!-- Node8 -->
<g id="node8" class="node">
<title>Node8</title>
<g id="a_node8"><a xlink:href="aabb_8h.html" target="_top" xlink:title=" ">
<polygon fill="none" stroke="black" points="176.5,-67.5 176.5,-86.5 226.5,-86.5 226.5,-67.5 176.5,-67.5"/>
<text text-anchor="middle" x="201.5" y="-74.5" font-family="Helvetica,sans-Serif" font-size="10.00">aabb.h</text>
</a>
</g>
</g>
<!-- Node7&#45;&gt;Node8 -->
<g id="edge9" class="edge">
<title>Node7&#45;&gt;Node8</title>
<path fill="none" stroke="midnightblue" d="M208.18,-123.08C207.12,-115.93 205.59,-105.64 204.27,-96.69"/>
<polygon fill="midnightblue" stroke="midnightblue" points="207.72,-96.13 202.8,-86.75 200.8,-97.16 207.72,-96.13"/>
</g>
<!-- Node8&#45;&gt;Node2 -->
<g id="edge12" class="edge">
<title>Node8&#45;&gt;Node2</title>
<path fill="none" stroke="midnightblue" d="M219.98,-67.48C241.63,-57.49 277.71,-40.85 302.73,-29.31"/>
<polygon fill="midnightblue" stroke="midnightblue" points="304.44,-32.38 312.05,-25.01 301.51,-26.02 304.44,-32.38"/>
</g>
<!-- Node9 -->
<g id="node9" class="node">
<title>Node9</title>
<g id="a_node9"><a xlink:title=" ">
<polygon fill="none" stroke="#bfbfbf" points="0,-6 0,-25 113,-25 113,-6 0,-6"/>
<text text-anchor="middle" x="56.5" y="-13" font-family="Helvetica,sans-Serif" font-size="10.00">boost/geometry.hpp</text>
</a>
</g>
</g>
<!-- Node8&#45;&gt;Node9 -->
<g id="edge10" class="edge">
<title>Node8&#45;&gt;Node9</title>
<path fill="none" stroke="midnightblue" d="M180.73,-67.48C156.07,-57.36 114.75,-40.4 86.6,-28.85"/>
<polygon fill="midnightblue" stroke="midnightblue" points="87.82,-25.57 77.24,-25.01 85.16,-32.04 87.82,-25.57"/>
</g>
<!-- Node10 -->
<g id="node10" class="node">
<title>Node10</title>
<g id="a_node10"><a xlink:title=" ">
<polygon fill="none" stroke="#bfbfbf" points="131.5,-0.5 131.5,-30.5 255.5,-30.5 255.5,-0.5 131.5,-0.5"/>
<text text-anchor="start" x="139.5" y="-18.5" font-family="Helvetica,sans-Serif" font-size="10.00">boost/geometry/index</text>
<text text-anchor="middle" x="193.5" y="-7.5" font-family="Helvetica,sans-Serif" font-size="10.00">/rtree.hpp</text>
</a>
</g>
</g>
<!-- Node8&#45;&gt;Node10 -->
<g id="edge11" class="edge">
<title>Node8&#45;&gt;Node10</title>
<path fill="none" stroke="midnightblue" d="M200.35,-67.48C199.41,-60.47 198.03,-50.19 196.75,-40.7"/>
<polygon fill="midnightblue" stroke="midnightblue" points="200.19,-39.97 195.39,-30.52 193.25,-40.9 200.19,-39.97"/>
</g>
<!-- Node11&#45;&gt;Node6 -->
<g id="edge14" class="edge">
<title>Node11&#45;&gt;Node6</title>
<path fill="none" stroke="midnightblue" d="M483,-123.08C483.39,-116.01 483.95,-105.86 484.45,-96.99"/>
<polygon fill="midnightblue" stroke="midnightblue" points="487.95,-96.93 485.01,-86.75 480.96,-96.54 487.95,-96.93"/>
</g>
</g>
</svg>
