<?xml version="1.0" encoding="UTF-8" standalone="no"?>
<!DOCTYPE svg PUBLIC "-//W3C//DTD SVG 1.1//EN"
 "http://www.w3.org/Graphics/SVG/1.1/DTD/svg11.dtd">
<!-- Generated by graphviz version 2.43.0 (0)
 -->
<!-- Title: seerep&#45;msgs/core/query.h Pages: 1 -->
<svg width="595pt" height="207pt"
 viewBox="0.00 0.00 594.96 207.00" xmlns="http://www.w3.org/2000/svg" xmlns:xlink="http://www.w3.org/1999/xlink">
<g id="graph0" class="graph" transform="scale(1 1) rotate(0) translate(4 203)">
<title>seerep&#45;msgs/core/query.h</title>
<!-- Node1 -->
<g id="node1" class="node">
<title>Node1</title>
<g id="a_node1"><a xlink:title=" ">
<polygon fill="#bfbfbf" stroke="black" points="275.46,-179.5 275.46,-198.5 417.46,-198.5 417.46,-179.5 275.46,-179.5"/>
<text text-anchor="middle" x="346.46" y="-186.5" font-family="Helvetica,sans-Serif" font-size="10.00">seerep&#45;msgs/core/query.h</text>
</a>
</g>
</g>
<!-- Node2 -->
<g id="node2" class="node">
<title>Node2</title>
<g id="a_node2"><a xlink:title=" ">
<polygon fill="none" stroke="#bfbfbf" points="289.96,-62 289.96,-81 402.96,-81 402.96,-62 289.96,-62"/>
<text text-anchor="middle" x="346.46" y="-69" font-family="Helvetica,sans-Serif" font-size="10.00">boost/uuid/uuid.hpp</text>
</a>
</g>
</g>
<!-- Node1&#45;&gt;Node2 -->
<g id="edge1" class="edge">
<title>Node1&#45;&gt;Node2</title>
<path fill="none" stroke="midnightblue" d="M346.46,-179.32C346.46,-160.76 346.46,-116.84 346.46,-91.47"/>
<polygon fill="midnightblue" stroke="midnightblue" points="349.96,-91.28 346.46,-81.28 342.96,-91.28 349.96,-91.28"/>
</g>
<!-- Node3 -->
<g id="node3" class="node">
<title>Node3</title>
<g id="a_node3"><a xlink:title=" ">
<polygon fill="none" stroke="#bfbfbf" points="234.96,-0.5 234.96,-19.5 299.96,-19.5 299.96,-0.5 234.96,-0.5"/>
<text text-anchor="middle" x="267.46" y="-7.5" font-family="Helvetica,sans-Serif" font-size="10.00">functional</text>
</a>
</g>
</g>
<!-- Node1&#45;&gt;Node3 -->
<g id="edge2" class="edge">
<title>Node1&#45;&gt;Node3</title>
<path fill="none" stroke="midnightblue" d="M290.01,-179.48C202.47,-164.98 40.47,-132.59 6.46,-87 -1.78,-75.96 -2.42,-66.54 6.46,-56 33.8,-23.54 157.45,-14.49 224.28,-11.97"/>
<polygon fill="midnightblue" stroke="midnightblue" points="224.62,-15.46 234.49,-11.62 224.38,-8.47 224.62,-15.46"/>
</g>
<!-- Node4 -->
<g id="node4" class="node">
<title>Node4</title>
<g id="a_node4"><a xlink:href="aabb_8h.html" target="_top" xlink:title=" ">
<polygon fill="none" stroke="black" points="226.46,-123.5 226.46,-142.5 276.46,-142.5 276.46,-123.5 226.46,-123.5"/>
<text text-anchor="middle" x="251.46" y="-130.5" font-family="Helvetica,sans-Serif" font-size="10.00">aabb.h</text>
</a>
</g>
</g>
<!-- Node1&#45;&gt;Node4 -->
<g id="edge3" class="edge">
<title>Node1&#45;&gt;Node4</title>
<path fill="none" stroke="midnightblue" d="M331.19,-179.32C316.24,-170.82 293.2,-157.73 275.73,-147.8"/>
<polygon fill="midnightblue" stroke="midnightblue" points="277.11,-144.55 266.68,-142.65 273.65,-150.64 277.11,-144.55"/>
</g>
<!-- Node7 -->
<g id="node7" class="node">
<title>Node7</title>
<g id="a_node7"><a xlink:href="header_8h.html" target="_top" xlink:title=" ">
<polygon fill="none" stroke="black" points="399.96,-123.5 399.96,-142.5 458.96,-142.5 458.96,-123.5 399.96,-123.5"/>
<text text-anchor="middle" x="429.46" y="-130.5" font-family="Helvetica,sans-Serif" font-size="10.00">header.h</text>
</a>
</g>
</g>
<!-- Node1&#45;&gt;Node7 -->
<g id="edge7" class="edge">
<title>Node1&#45;&gt;Node7</title>
<path fill="none" stroke="midnightblue" d="M359.79,-179.32C372.62,-170.98 392.24,-158.21 407.4,-148.35"/>
<polygon fill="midnightblue" stroke="midnightblue" points="409.68,-151.04 416.16,-142.65 405.86,-145.17 409.68,-151.04"/>
</g>
<!-- Node10 -->
<g id="node10" class="node">
<title>Node10</title>
<g id="a_node10"><a xlink:href="timeinterval_8h.html" target="_top" xlink:title=" ">
<polygon fill="none" stroke="black" points="490.46,-123.5 490.46,-142.5 576.46,-142.5 576.46,-123.5 490.46,-123.5"/>
<text text-anchor="middle" x="533.46" y="-130.5" font-family="Helvetica,sans-Serif" font-size="10.00">timeinterval.h</text>
</a>
</g>
</g>
<!-- Node1&#45;&gt;Node10 -->
<g id="edge12" class="edge">
<title>Node1&#45;&gt;Node10</title>
<path fill="none" stroke="midnightblue" d="M376.09,-179.44C407.96,-170.24 458.79,-155.56 494.02,-145.39"/>
<polygon fill="midnightblue" stroke="midnightblue" points="495.33,-148.65 503.97,-142.52 493.39,-141.93 495.33,-148.65"/>
</g>
<!-- Node4&#45;&gt;Node2 -->
<g id="edge6" class="edge">
<title>Node4&#45;&gt;Node2</title>
<path fill="none" stroke="midnightblue" d="M265.07,-123.48C280.52,-113.8 305.95,-97.87 324.27,-86.39"/>
<polygon fill="midnightblue" stroke="midnightblue" points="326.26,-89.28 332.87,-81.01 322.54,-83.35 326.26,-89.28"/>
</g>
<!-- Node5 -->
<g id="node5" class="node">
<title>Node5</title>
<g id="a_node5"><a xlink:title=" ">
<polygon fill="none" stroke="#bfbfbf" points="15.96,-62 15.96,-81 128.96,-81 128.96,-62 15.96,-62"/>
<text text-anchor="middle" x="72.46" y="-69" font-family="Helvetica,sans-Serif" font-size="10.00">boost/geometry.hpp</text>
</a>
</g>
</g>
<!-- Node4&#45;&gt;Node5 -->
<g id="edge4" class="edge">
<title>Node4&#45;&gt;Node5</title>
<path fill="none" stroke="midnightblue" d="M226.19,-123.6C195.32,-113.34 142.89,-95.91 107.97,-84.3"/>
<polygon fill="midnightblue" stroke="midnightblue" points="108.77,-80.88 98.18,-81.05 106.56,-87.52 108.77,-80.88"/>
</g>
<!-- Node6 -->
<g id="node6" class="node">
<title>Node6</title>
<g id="a_node6"><a xlink:title=" ">
<polygon fill="none" stroke="#bfbfbf" points="147.46,-56.5 147.46,-86.5 271.46,-86.5 271.46,-56.5 147.46,-56.5"/>
<text text-anchor="start" x="155.46" y="-74.5" font-family="Helvetica,sans-Serif" font-size="10.00">boost/geometry/index</text>
<text text-anchor="middle" x="209.46" y="-63.5" font-family="Helvetica,sans-Serif" font-size="10.00">/rtree.hpp</text>
</a>
</g>
</g>
<!-- Node4&#45;&gt;Node6 -->
<g id="edge5" class="edge">
<title>Node4&#45;&gt;Node6</title>
<path fill="none" stroke="midnightblue" d="M245.44,-123.48C240.18,-116.02 232.29,-104.85 225.25,-94.87"/>
<polygon fill="midnightblue" stroke="midnightblue" points="227.98,-92.67 219.36,-86.52 222.26,-96.71 227.98,-92.67"/>
</g>
<!-- Node7&#45;&gt;Node2 -->
<g id="edge8" class="edge">
<title>Node7&#45;&gt;Node2</title>
<path fill="none" stroke="midnightblue" d="M417.57,-123.48C404.25,-113.93 382.46,-98.31 366.5,-86.87"/>
<polygon fill="midnightblue" stroke="midnightblue" points="368.49,-83.99 358.33,-81.01 364.42,-89.68 368.49,-83.99"/>
</g>
<!-- Node8 -->
<g id="node8" class="node">
<title>Node8</title>
<g id="a_node8"><a xlink:href="datatype_8h.html" target="_top" xlink:title=" ">
<polygon fill="none" stroke="black" points="420.96,-62 420.96,-81 489.96,-81 489.96,-62 420.96,-62"/>
<text text-anchor="middle" x="455.46" y="-69" font-family="Helvetica,sans-Serif" font-size="10.00">datatype.h</text>
</a>
</g>
</g>
<!-- Node7&#45;&gt;Node8 -->
<g id="edge9" class="edge">
<title>Node7&#45;&gt;Node8</title>
<path fill="none" stroke="midnightblue" d="M433.18,-123.48C436.93,-114.9 442.82,-101.43 447.6,-90.48"/>
<polygon fill="midnightblue" stroke="midnightblue" points="450.94,-91.57 451.74,-81.01 444.53,-88.77 450.94,-91.57"/>
</g>
<!-- Node9 -->
<g id="node9" class="node">
<title>Node9</title>
<g id="a_node9"><a xlink:href="timestamp_8h.html" target="_top" xlink:title=" ">
<polygon fill="none" stroke="black" points="507.96,-62 507.96,-81 586.96,-81 586.96,-62 507.96,-62"/>
<text text-anchor="middle" x="547.46" y="-69" font-family="Helvetica,sans-Serif" font-size="10.00">timestamp.h</text>
</a>
</g>
</g>
<!-- Node7&#45;&gt;Node9 -->
<g id="edge10" class="edge">
<title>Node7&#45;&gt;Node9</title>
<path fill="none" stroke="midnightblue" d="M446.36,-123.48C465.99,-113.58 498.59,-97.14 521.45,-85.62"/>
<polygon fill="midnightblue" stroke="midnightblue" points="523.23,-88.64 530.58,-81.01 520.08,-82.39 523.23,-88.64"/>
</g>
<!-- Node9&#45;&gt;Node3 -->
<g id="edge11" class="edge">
<title>Node9&#45;&gt;Node3</title>
<path fill="none" stroke="midnightblue" d="M520.93,-61.96C513.98,-59.87 506.47,-57.73 499.46,-56 433.92,-39.79 356.78,-25.83 310.03,-17.92"/>
<polygon fill="midnightblue" stroke="midnightblue" points="310.4,-14.43 299.96,-16.23 309.25,-21.34 310.4,-14.43"/>
</g>
<!-- Node10&#45;&gt;Node9 -->
<g id="edge13" class="edge">
<title>Node10&#45;&gt;Node9</title>
<path fill="none" stroke="midnightblue" d="M535.46,-123.48C537.46,-114.99 540.59,-101.7 543.15,-90.82"/>
<polygon fill="midnightblue" stroke="midnightblue" points="546.57,-91.54 545.46,-81.01 539.76,-89.94 546.57,-91.54"/>
</g>
</g>
</svg>
