<?xml version="1.0" encoding="UTF-8" standalone="no"?>
<!DOCTYPE svg PUBLIC "-//W3C//DTD SVG 1.1//EN"
 "http://www.w3.org/Graphics/SVG/1.1/DTD/svg11.dtd">
<!-- Generated by graphviz version 2.43.0 (0)
 -->
<!-- Title: seerep&#45;ros/seerep_ros_communication/src/querier.cpp Pages: 1 -->
<svg width="2769pt" height="296pt"
 viewBox="0.00 0.00 2769.00 296.00" xmlns="http://www.w3.org/2000/svg" xmlns:xlink="http://www.w3.org/1999/xlink">
<g id="graph0" class="graph" transform="scale(1 1) rotate(0) translate(4 292)">
<title>seerep&#45;ros/seerep_ros_communication/src/querier.cpp</title>
<!-- Node1 -->
<g id="node1" class="node">
<title>Node1</title>
<g id="a_node1"><a xlink:title=" ">
<polygon fill="#bfbfbf" stroke="black" points="1118,-257.5 1118,-287.5 1290,-287.5 1290,-257.5 1118,-257.5"/>
<text text-anchor="start" x="1126" y="-275.5" font-family="Helvetica,sans-Serif" font-size="10.00">seerep&#45;ros/seerep_ros</text>
<text text-anchor="middle" x="1204" y="-264.5" font-family="Helvetica,sans-Serif" font-size="10.00">_communication/src/querier.cpp</text>
</a>
</g>
</g>
<!-- Node2 -->
<g id="node2" class="node">
<title>Node2</title>
<g id="a_node2"><a xlink:href="querier_8h.html" target="_top" xlink:title=" ">
<polygon fill="none" stroke="black" points="1128.5,-190.5 1128.5,-220.5 1279.5,-220.5 1279.5,-190.5 1128.5,-190.5"/>
<text text-anchor="start" x="1136.5" y="-208.5" font-family="Helvetica,sans-Serif" font-size="10.00">seerep_ros_communication</text>
<text text-anchor="middle" x="1204" y="-197.5" font-family="Helvetica,sans-Serif" font-size="10.00">/querier.h</text>
</a>
</g>
</g>
<!-- Node1&#45;&gt;Node2 -->
<g id="edge1" class="edge">
<title>Node1&#45;&gt;Node2</title>
<path fill="none" stroke="midnightblue" d="M1204,-257.4C1204,-249.64 1204,-239.81 1204,-230.86"/>
<polygon fill="midnightblue" stroke="midnightblue" points="1207.5,-230.58 1204,-220.58 1200.5,-230.58 1207.5,-230.58"/>
</g>
<!-- Node3 -->
<g id="node3" class="node">
<title>Node3</title>
<g id="a_node3"><a xlink:title=" ">
<polygon fill="none" stroke="#bfbfbf" points="475.5,-134.5 475.5,-153.5 540.5,-153.5 540.5,-134.5 475.5,-134.5"/>
<text text-anchor="middle" x="508" y="-141.5" font-family="Helvetica,sans-Serif" font-size="10.00">functional</text>
</a>
</g>
</g>
<!-- Node2&#45;&gt;Node3 -->
<g id="edge2" class="edge">
<title>Node2&#45;&gt;Node3</title>
<path fill="none" stroke="midnightblue" d="M1128.11,-201.94C1007.76,-197.16 765.65,-184.57 551.13,-153.97"/>
<polygon fill="midnightblue" stroke="midnightblue" points="551.34,-150.46 540.94,-152.49 550.34,-157.39 551.34,-150.46"/>
</g>
<!-- Node4 -->
<g id="node4" class="node">
<title>Node4</title>
<g id="a_node4"><a xlink:title=" ">
<polygon fill="none" stroke="#bfbfbf" points="559,-134.5 559,-153.5 615,-153.5 615,-134.5 559,-134.5"/>
<text text-anchor="middle" x="587" y="-141.5" font-family="Helvetica,sans-Serif" font-size="10.00">optional</text>
</a>
</g>
</g>
<!-- Node2&#45;&gt;Node4 -->
<g id="edge3" class="edge">
<title>Node2&#45;&gt;Node4</title>
<path fill="none" stroke="midnightblue" d="M1128.47,-201.58C1019.29,-196.56 811.02,-183.93 625.15,-153.95"/>
<polygon fill="midnightblue" stroke="midnightblue" points="625.62,-150.48 615.19,-152.32 624.5,-157.39 625.62,-150.48"/>
</g>
<!-- Node5 -->
<g id="node5" class="node">
<title>Node5</title>
<g id="a_node5"><a xlink:title=" ">
<polygon fill="none" stroke="#bfbfbf" points="633.5,-134.5 633.5,-153.5 704.5,-153.5 704.5,-134.5 633.5,-134.5"/>
<text text-anchor="middle" x="669" y="-141.5" font-family="Helvetica,sans-Serif" font-size="10.00">grpc/grpc.h</text>
</a>
</g>
</g>
<!-- Node2&#45;&gt;Node5 -->
<g id="edge4" class="edge">
<title>Node2&#45;&gt;Node5</title>
<path fill="none" stroke="midnightblue" d="M1128.17,-198.93C1033.71,-191.48 867.21,-176.7 714.82,-153.99"/>
<polygon fill="midnightblue" stroke="midnightblue" points="715.22,-150.51 704.81,-152.48 714.17,-157.43 715.22,-150.51"/>
</g>
<!-- Node6 -->
<g id="node6" class="node">
<title>Node6</title>
<g id="a_node6"><a xlink:title=" ">
<polygon fill="none" stroke="#bfbfbf" points="723,-134.5 723,-153.5 803,-153.5 803,-134.5 723,-134.5"/>
<text text-anchor="middle" x="763" y="-141.5" font-family="Helvetica,sans-Serif" font-size="10.00">grpc/status.h</text>
</a>
</g>
</g>
<!-- Node2&#45;&gt;Node6 -->
<g id="edge5" class="edge">
<title>Node2&#45;&gt;Node6</title>
<path fill="none" stroke="midnightblue" d="M1128.31,-195.97C1051.48,-187.03 928.85,-172 813.18,-154.11"/>
<polygon fill="midnightblue" stroke="midnightblue" points="813.5,-150.62 803.08,-152.54 812.42,-157.54 813.5,-150.62"/>
</g>
<!-- Node7 -->
<g id="node7" class="node">
<title>Node7</title>
<g id="a_node7"><a xlink:title=" ">
<polygon fill="none" stroke="#bfbfbf" points="821.5,-134.5 821.5,-153.5 952.5,-153.5 952.5,-134.5 821.5,-134.5"/>
<text text-anchor="middle" x="887" y="-141.5" font-family="Helvetica,sans-Serif" font-size="10.00">grpcpp/client_context.h</text>
</a>
</g>
</g>
<!-- Node2&#45;&gt;Node7 -->
<g id="edge6" class="edge">
<title>Node2&#45;&gt;Node7</title>
<path fill="none" stroke="midnightblue" d="M1129.28,-190.47C1071.96,-179.72 994.13,-165.11 942.32,-155.38"/>
<polygon fill="midnightblue" stroke="midnightblue" points="942.79,-151.91 932.32,-153.51 941.5,-158.79 942.79,-151.91"/>
</g>
<!-- Node8 -->
<g id="node8" class="node">
<title>Node8</title>
<g id="a_node8"><a xlink:title=" ">
<polygon fill="none" stroke="#bfbfbf" points="971,-134.5 971,-153.5 1107,-153.5 1107,-134.5 971,-134.5"/>
<text text-anchor="middle" x="1039" y="-141.5" font-family="Helvetica,sans-Serif" font-size="10.00">grpcpp/create_channel.h</text>
</a>
</g>
</g>
<!-- Node2&#45;&gt;Node8 -->
<g id="edge7" class="edge">
<title>Node2&#45;&gt;Node8</title>
<path fill="none" stroke="midnightblue" d="M1164.9,-190.4C1136.84,-180.28 1099.43,-166.79 1072.69,-157.15"/>
<polygon fill="midnightblue" stroke="midnightblue" points="1073.6,-153.76 1063.01,-153.66 1071.23,-160.34 1073.6,-153.76"/>
</g>
<!-- Node9 -->
<g id="node9" class="node">
<title>Node9</title>
<g id="a_node9"><a xlink:title=" ">
<polygon fill="none" stroke="#bfbfbf" points="1125,-134.5 1125,-153.5 1283,-153.5 1283,-134.5 1125,-134.5"/>
<text text-anchor="middle" x="1204" y="-141.5" font-family="Helvetica,sans-Serif" font-size="10.00">grpcpp/security/credentials.h</text>
</a>
</g>
</g>
<!-- Node2&#45;&gt;Node9 -->
<g id="edge8" class="edge">
<title>Node2&#45;&gt;Node9</title>
<path fill="none" stroke="midnightblue" d="M1204,-190.4C1204,-182.47 1204,-172.46 1204,-163.86"/>
<polygon fill="midnightblue" stroke="midnightblue" points="1207.5,-163.66 1204,-153.66 1200.5,-163.66 1207.5,-163.66"/>
</g>
<!-- Node10 -->
<g id="node10" class="node">
<title>Node10</title>
<g id="a_node10"><a xlink:title=" ">
<polygon fill="none" stroke="#bfbfbf" points="930.5,-73 930.5,-92 1125.5,-92 1125.5,-73 930.5,-73"/>
<text text-anchor="middle" x="1028" y="-80" font-family="Helvetica,sans-Serif" font-size="10.00">seerep&#45;com/image&#45;service.grpc.pb.h</text>
</a>
</g>
</g>
<!-- Node2&#45;&gt;Node10 -->
<g id="edge9" class="edge">
<title>Node2&#45;&gt;Node10</title>
<path fill="none" stroke="midnightblue" d="M1245.16,-190.4C1276.38,-177.49 1310.96,-156.93 1292,-134 1285.59,-126.25 1167.94,-106.01 1091.88,-93.64"/>
<polygon fill="midnightblue" stroke="midnightblue" points="1092.34,-90.16 1081.91,-92.02 1091.22,-97.07 1092.34,-90.16"/>
</g>
<!-- Node11 -->
<g id="node11" class="node">
<title>Node11</title>
<g id="a_node11"><a xlink:title=" ">
<polygon fill="none" stroke="#bfbfbf" points="1144,-67.5 1144,-97.5 1276,-97.5 1276,-67.5 1144,-67.5"/>
<text text-anchor="start" x="1152" y="-85.5" font-family="Helvetica,sans-Serif" font-size="10.00">seerep&#45;com/point&#45;cloud</text>
<text text-anchor="middle" x="1210" y="-74.5" font-family="Helvetica,sans-Serif" font-size="10.00">&#45;service.grpc.pb.h</text>
</a>
</g>
</g>
<!-- Node2&#45;&gt;Node11 -->
<g id="edge10" class="edge">
<title>Node2&#45;&gt;Node11</title>
<path fill="none" stroke="midnightblue" d="M1274.74,-190.46C1294.29,-182.98 1313.33,-171.52 1325,-154 1341.25,-129.61 1314.13,-112.22 1282.16,-100.81"/>
<polygon fill="midnightblue" stroke="midnightblue" points="1283.18,-97.46 1272.59,-97.61 1280.96,-104.1 1283.18,-97.46"/>
</g>
<!-- Node12 -->
<g id="node12" class="node">
<title>Node12</title>
<g id="a_node12"><a xlink:href="seerep__ros__conversions__pb_2include_2seerep__ros__conversions__pb_2conversions_8h.html" target="_top" xlink:title=" ">
<polygon fill="none" stroke="black" points="1294,-67.5 1294,-97.5 1428,-97.5 1428,-67.5 1294,-67.5"/>
<text text-anchor="start" x="1302" y="-85.5" font-family="Helvetica,sans-Serif" font-size="10.00">seerep_ros_conversions</text>
<text text-anchor="middle" x="1361" y="-74.5" font-family="Helvetica,sans-Serif" font-size="10.00">_pb/conversions.h</text>
</a>
</g>
</g>
<!-- Node2&#45;&gt;Node12 -->
<g id="edge11" class="edge">
<title>Node2&#45;&gt;Node12</title>
<path fill="none" stroke="midnightblue" d="M1279.67,-190.91C1302.4,-183.43 1325.63,-171.87 1342,-154 1353.44,-141.51 1358.11,-122.86 1359.97,-107.88"/>
<polygon fill="midnightblue" stroke="midnightblue" points="1363.47,-108.03 1360.88,-97.76 1356.5,-107.41 1363.47,-108.03"/>
</g>
<!-- Node29 -->
<g id="node29" class="node">
<title>Node29</title>
<g id="a_node29"><a xlink:title=" ">
<polygon fill="none" stroke="#bfbfbf" points="1583.5,-134.5 1583.5,-153.5 1660.5,-153.5 1660.5,-134.5 1583.5,-134.5"/>
<text text-anchor="middle" x="1622" y="-141.5" font-family="Helvetica,sans-Serif" font-size="10.00">ros/master.h</text>
</a>
</g>
</g>
<!-- Node2&#45;&gt;Node29 -->
<g id="edge28" class="edge">
<title>Node2&#45;&gt;Node29</title>
<path fill="none" stroke="midnightblue" d="M1279.85,-195.39C1352.69,-186.37 1466.04,-171.6 1573.28,-154.22"/>
<polygon fill="midnightblue" stroke="midnightblue" points="1573.99,-157.65 1583.3,-152.58 1572.87,-150.74 1573.99,-157.65"/>
</g>
<!-- Node30 -->
<g id="node30" class="node">
<title>Node30</title>
<g id="a_node30"><a xlink:title=" ">
<polygon fill="none" stroke="#bfbfbf" points="1678.5,-134.5 1678.5,-153.5 1737.5,-153.5 1737.5,-134.5 1678.5,-134.5"/>
<text text-anchor="middle" x="1708" y="-141.5" font-family="Helvetica,sans-Serif" font-size="10.00">ros/ros.h</text>
</a>
</g>
</g>
<!-- Node2&#45;&gt;Node30 -->
<g id="edge29" class="edge">
<title>Node2&#45;&gt;Node30</title>
<path fill="none" stroke="midnightblue" d="M1279.87,-199.2C1370.26,-192.23 1525.95,-178.15 1668,-154.17"/>
<polygon fill="midnightblue" stroke="midnightblue" points="1668.93,-157.56 1678.2,-152.43 1667.75,-150.66 1668.93,-157.56"/>
</g>
<!-- Node31 -->
<g id="node31" class="node">
<title>Node31</title>
<g id="a_node31"><a xlink:href="types_8h.html" target="_top" xlink:title=" ">
<polygon fill="none" stroke="black" points="1512.5,-134.5 1512.5,-153.5 1565.5,-153.5 1565.5,-134.5 1512.5,-134.5"/>
<text text-anchor="middle" x="1539" y="-141.5" font-family="Helvetica,sans-Serif" font-size="10.00">types.h</text>
</a>
</g>
</g>
<!-- Node2&#45;&gt;Node31 -->
<g id="edge30" class="edge">
<title>Node2&#45;&gt;Node31</title>
<path fill="none" stroke="midnightblue" d="M1279.6,-191.07C1349.07,-178.73 1449.09,-160.97 1502.36,-151.51"/>
<polygon fill="midnightblue" stroke="midnightblue" points="1503.13,-154.93 1512.36,-149.73 1501.9,-148.03 1503.13,-154.93"/>
</g>
<!-- Node13 -->
<g id="node13" class="node">
<title>Node13</title>
<g id="a_node13"><a xlink:title=" ">
<polygon fill="none" stroke="#bfbfbf" points="0,-6 0,-25 174,-25 174,-6 0,-6"/>
<text text-anchor="middle" x="87" y="-13" font-family="Helvetica,sans-Serif" font-size="10.00">geometry_msgs/PoseStamped.h</text>
</a>
</g>
</g>
<!-- Node12&#45;&gt;Node13 -->
<g id="edge12" class="edge">
<title>Node12&#45;&gt;Node13</title>
<path fill="none" stroke="midnightblue" d="M1293.95,-68.12C1290.93,-67.7 1287.94,-67.33 1285,-67 797.95,-12.92 671,-75.67 183,-31 171.07,-29.91 158.36,-28.3 146.22,-26.56"/>
<polygon fill="midnightblue" stroke="midnightblue" points="146.6,-23.07 136.2,-25.06 145.57,-30 146.6,-23.07"/>
</g>
<!-- Node14 -->
<g id="node14" class="node">
<title>Node14</title>
<g id="a_node14"><a xlink:title=" ">
<polygon fill="none" stroke="#bfbfbf" points="192,-6 192,-25 392,-25 392,-6 192,-6"/>
<text text-anchor="middle" x="292" y="-13" font-family="Helvetica,sans-Serif" font-size="10.00">geometry_msgs/TransformStamped.h</text>
</a>
</g>
</g>
<!-- Node12&#45;&gt;Node14 -->
<g id="edge13" class="edge">
<title>Node12&#45;&gt;Node14</title>
<path fill="none" stroke="midnightblue" d="M1293.95,-68.15C1290.93,-67.72 1287.94,-67.34 1285,-67 894.37,-22.03 792.75,-64.96 401,-31 387.23,-29.81 372.52,-28.13 358.52,-26.33"/>
<polygon fill="midnightblue" stroke="midnightblue" points="358.84,-22.85 348.46,-25.01 357.92,-29.79 358.84,-22.85"/>
</g>
<!-- Node15 -->
<g id="node15" class="node">
<title>Node15</title>
<g id="a_node15"><a xlink:title=" ">
<polygon fill="none" stroke="#bfbfbf" points="410,-6 410,-25 598,-25 598,-6 410,-6"/>
<text text-anchor="middle" x="504" y="-13" font-family="Helvetica,sans-Serif" font-size="10.00">geometry_msgs/Vector3Stamped.h</text>
</a>
</g>
</g>
<!-- Node12&#45;&gt;Node15 -->
<g id="edge14" class="edge">
<title>Node12&#45;&gt;Node15</title>
<path fill="none" stroke="midnightblue" d="M1293.94,-68.2C1290.92,-67.76 1287.93,-67.36 1285,-67 985.44,-30.64 907.36,-60.06 607,-31 594.45,-29.79 581.08,-28.15 568.27,-26.43"/>
<polygon fill="midnightblue" stroke="midnightblue" points="568.54,-22.93 558.15,-25.02 567.58,-29.86 568.54,-22.93"/>
</g>
<!-- Node16 -->
<g id="node16" class="node">
<title>Node16</title>
<g id="a_node16"><a xlink:title=" ">
<polygon fill="none" stroke="#bfbfbf" points="616.5,-6 616.5,-25 739.5,-25 739.5,-6 616.5,-6"/>
<text text-anchor="middle" x="678" y="-13" font-family="Helvetica,sans-Serif" font-size="10.00">sensor_msgs/Image.h</text>
</a>
</g>
</g>
<!-- Node12&#45;&gt;Node16 -->
<g id="edge15" class="edge">
<title>Node12&#45;&gt;Node16</title>
<path fill="none" stroke="midnightblue" d="M1293.93,-68.25C1290.92,-67.8 1287.93,-67.38 1285,-67 1047.75,-36.53 985.01,-63.34 748,-31 740.39,-29.96 732.37,-28.58 724.58,-27.08"/>
<polygon fill="midnightblue" stroke="midnightblue" points="725.02,-23.6 714.53,-25.05 723.64,-30.46 725.02,-23.6"/>
</g>
<!-- Node17 -->
<g id="node17" class="node">
<title>Node17</title>
<g id="a_node17"><a xlink:title=" ">
<polygon fill="none" stroke="#bfbfbf" points="757.5,-6 757.5,-25 908.5,-25 908.5,-6 757.5,-6"/>
<text text-anchor="middle" x="833" y="-13" font-family="Helvetica,sans-Serif" font-size="10.00">sensor_msgs/PointCloud2.h</text>
</a>
</g>
</g>
<!-- Node12&#45;&gt;Node17 -->
<g id="edge16" class="edge">
<title>Node12&#45;&gt;Node17</title>
<path fill="none" stroke="midnightblue" d="M1293.92,-68.36C1290.91,-67.88 1287.92,-67.42 1285,-67 1122.78,-43.62 1080.44,-52.79 918,-31 908.64,-29.74 898.73,-28.23 889.11,-26.65"/>
<polygon fill="midnightblue" stroke="midnightblue" points="889.67,-23.2 879.23,-25 888.52,-30.1 889.67,-23.2"/>
</g>
<!-- Node18 -->
<g id="node18" class="node">
<title>Node18</title>
<g id="a_node18"><a xlink:title=" ">
<polygon fill="none" stroke="#bfbfbf" points="927,-6 927,-25 1067,-25 1067,-6 927,-6"/>
<text text-anchor="middle" x="997" y="-13" font-family="Helvetica,sans-Serif" font-size="10.00">sensor_msgs/PointField.h</text>
</a>
</g>
</g>
<!-- Node12&#45;&gt;Node18 -->
<g id="edge17" class="edge">
<title>Node12&#45;&gt;Node18</title>
<path fill="none" stroke="midnightblue" d="M1293.88,-68.63C1290.88,-68.07 1287.91,-67.53 1285,-67 1192.26,-50.17 1168.8,-47.51 1076,-31 1068.55,-29.68 1060.72,-28.26 1052.99,-26.86"/>
<polygon fill="midnightblue" stroke="midnightblue" points="1053.4,-23.37 1042.94,-25.02 1052.14,-30.26 1053.4,-23.37"/>
</g>
<!-- Node19 -->
<g id="node19" class="node">
<title>Node19</title>
<g id="a_node19"><a xlink:title=" ">
<polygon fill="none" stroke="#bfbfbf" points="1085,-6 1085,-25 1195,-25 1195,-6 1085,-6"/>
<text text-anchor="middle" x="1140" y="-13" font-family="Helvetica,sans-Serif" font-size="10.00">std_msgs/Header.h</text>
</a>
</g>
</g>
<!-- Node12&#45;&gt;Node19 -->
<g id="edge18" class="edge">
<title>Node12&#45;&gt;Node19</title>
<path fill="none" stroke="midnightblue" d="M1313.32,-67.48C1273.19,-55.67 1216.5,-39 1179.03,-27.98"/>
<polygon fill="midnightblue" stroke="midnightblue" points="1179.58,-24.49 1169,-25.03 1177.6,-31.21 1179.58,-24.49"/>
</g>
<!-- Node20 -->
<g id="node20" class="node">
<title>Node20</title>
<g id="a_node20"><a xlink:title=" ">
<polygon fill="none" stroke="#bfbfbf" points="1213,-6 1213,-25 1353,-25 1353,-6 1213,-6"/>
<text text-anchor="middle" x="1283" y="-13" font-family="Helvetica,sans-Serif" font-size="10.00">seerep&#45;msgs/header.pb.h</text>
</a>
</g>
</g>
<!-- Node12&#45;&gt;Node20 -->
<g id="edge19" class="edge">
<title>Node12&#45;&gt;Node20</title>
<path fill="none" stroke="midnightblue" d="M1344.08,-67.4C1331.43,-56.86 1314.17,-42.48 1301.23,-31.69"/>
<polygon fill="midnightblue" stroke="midnightblue" points="1303.36,-28.91 1293.43,-25.19 1298.88,-34.29 1303.36,-28.91"/>
</g>
<!-- Node21 -->
<g id="node21" class="node">
<title>Node21</title>
<g id="a_node21"><a xlink:title=" ">
<polygon fill="none" stroke="#bfbfbf" points="1371.5,-6 1371.5,-25 1508.5,-25 1508.5,-6 1371.5,-6"/>
<text text-anchor="middle" x="1440" y="-13" font-family="Helvetica,sans-Serif" font-size="10.00">seerep&#45;msgs/image.pb.h</text>
</a>
</g>
</g>
<!-- Node12&#45;&gt;Node21 -->
<g id="edge20" class="edge">
<title>Node12&#45;&gt;Node21</title>
<path fill="none" stroke="midnightblue" d="M1378.14,-67.4C1390.95,-56.86 1408.43,-42.48 1421.54,-31.69"/>
<polygon fill="midnightblue" stroke="midnightblue" points="1423.93,-34.25 1429.43,-25.19 1419.49,-28.85 1423.93,-34.25"/>
</g>
<!-- Node22 -->
<g id="node22" class="node">
<title>Node22</title>
<g id="a_node22"><a xlink:title=" ">
<polygon fill="none" stroke="#bfbfbf" points="1526.5,-0.5 1526.5,-30.5 1665.5,-30.5 1665.5,-0.5 1526.5,-0.5"/>
<text text-anchor="start" x="1534.5" y="-18.5" font-family="Helvetica,sans-Serif" font-size="10.00">seerep&#45;msgs/point_cloud</text>
<text text-anchor="middle" x="1596" y="-7.5" font-family="Helvetica,sans-Serif" font-size="10.00">_2.pb.h</text>
</a>
</g>
</g>
<!-- Node12&#45;&gt;Node22 -->
<g id="edge21" class="edge">
<title>Node12&#45;&gt;Node22</title>
<path fill="none" stroke="midnightblue" d="M1411.7,-67.48C1447.87,-57.47 1496.68,-43.97 1534.98,-33.38"/>
<polygon fill="midnightblue" stroke="midnightblue" points="1536.28,-36.65 1544.98,-30.61 1534.41,-29.9 1536.28,-36.65"/>
</g>
<!-- Node23 -->
<g id="node23" class="node">
<title>Node23</title>
<g id="a_node23"><a xlink:title=" ">
<polygon fill="none" stroke="#bfbfbf" points="1684,-6 1684,-25 1842,-25 1842,-6 1684,-6"/>
<text text-anchor="middle" x="1763" y="-13" font-family="Helvetica,sans-Serif" font-size="10.00">seerep&#45;msgs/point_field.pb.h</text>
</a>
</g>
</g>
<!-- Node12&#45;&gt;Node23 -->
<g id="edge22" class="edge">
<title>Node12&#45;&gt;Node23</title>
<path fill="none" stroke="midnightblue" d="M1428.11,-68.55C1431.11,-68.02 1434.09,-67.5 1437,-67 1542.45,-48.97 1569.33,-47.7 1675,-31 1683.67,-29.63 1692.81,-28.16 1701.79,-26.69"/>
<polygon fill="midnightblue" stroke="midnightblue" points="1702.53,-30.12 1711.83,-25.05 1701.4,-23.21 1702.53,-30.12"/>
</g>
<!-- Node24 -->
<g id="node24" class="node">
<title>Node24</title>
<g id="a_node24"><a xlink:title=" ">
<polygon fill="none" stroke="#bfbfbf" points="1860,-6 1860,-25 2038,-25 2038,-6 1860,-6"/>
<text text-anchor="middle" x="1949" y="-13" font-family="Helvetica,sans-Serif" font-size="10.00">seerep&#45;msgs/pose_stamped.pb.h</text>
</a>
</g>
</g>
<!-- Node12&#45;&gt;Node24 -->
<g id="edge23" class="edge">
<title>Node12&#45;&gt;Node24</title>
<path fill="none" stroke="midnightblue" d="M1428.08,-68.32C1431.09,-67.85 1434.07,-67.41 1437,-67 1619.95,-41.66 1667.56,-52.53 1851,-31 1862.16,-29.69 1874.01,-28.1 1885.47,-26.47"/>
<polygon fill="midnightblue" stroke="midnightblue" points="1886.02,-29.92 1895.42,-25.02 1885.02,-23 1886.02,-29.92"/>
</g>
<!-- Node25 -->
<g id="node25" class="node">
<title>Node25</title>
<g id="a_node25"><a xlink:title=" ">
<polygon fill="none" stroke="#bfbfbf" points="2056.5,-6 2056.5,-25 2211.5,-25 2211.5,-6 2056.5,-6"/>
<text text-anchor="middle" x="2134" y="-13" font-family="Helvetica,sans-Serif" font-size="10.00">seerep&#45;msgs/transform.pb.h</text>
</a>
</g>
</g>
<!-- Node12&#45;&gt;Node25 -->
<g id="edge24" class="edge">
<title>Node12&#45;&gt;Node25</title>
<path fill="none" stroke="midnightblue" d="M1428.06,-68.22C1431.08,-67.77 1434.07,-67.36 1437,-67 1706.51,-33.48 1777.12,-61.37 2047,-31 2057.26,-29.85 2068.16,-28.29 2078.64,-26.63"/>
<polygon fill="midnightblue" stroke="midnightblue" points="2079.22,-30.08 2088.52,-25.02 2078.09,-23.17 2079.22,-30.08"/>
</g>
<!-- Node26 -->
<g id="node26" class="node">
<title>Node26</title>
<g id="a_node26"><a xlink:title=" ">
<polygon fill="none" stroke="#bfbfbf" points="2229.5,-0.5 2229.5,-30.5 2360.5,-30.5 2360.5,-0.5 2229.5,-0.5"/>
<text text-anchor="start" x="2237.5" y="-18.5" font-family="Helvetica,sans-Serif" font-size="10.00">seerep&#45;msgs/transform</text>
<text text-anchor="middle" x="2295" y="-7.5" font-family="Helvetica,sans-Serif" font-size="10.00">_stamped.pb.h</text>
</a>
</g>
</g>
<!-- Node12&#45;&gt;Node26 -->
<g id="edge25" class="edge">
<title>Node12&#45;&gt;Node26</title>
<path fill="none" stroke="midnightblue" d="M1428.06,-68.17C1431.07,-67.74 1434.07,-67.35 1437,-67 1780.12,-26.6 1872.92,-71.77 2219.25,-31.09"/>
<polygon fill="midnightblue" stroke="midnightblue" points="2219.8,-34.55 2229.31,-29.89 2218.97,-27.6 2219.8,-34.55"/>
</g>
<!-- Node27 -->
<g id="node27" class="node">
<title>Node27</title>
<g id="a_node27"><a xlink:title=" ">
<polygon fill="none" stroke="#bfbfbf" points="2378.5,-6 2378.5,-25 2521.5,-25 2521.5,-6 2378.5,-6"/>
<text text-anchor="middle" x="2450" y="-13" font-family="Helvetica,sans-Serif" font-size="10.00">seerep&#45;msgs/vector3.pb.h</text>
</a>
</g>
</g>
<!-- Node12&#45;&gt;Node27 -->
<g id="edge26" class="edge">
<title>Node12&#45;&gt;Node27</title>
<path fill="none" stroke="midnightblue" d="M1428.05,-68.14C1431.07,-67.72 1434.06,-67.33 1437,-67 1849.3,-19.98 1957.48,-76.12 2370,-31 2379.48,-29.96 2389.52,-28.46 2399.17,-26.82"/>
<polygon fill="midnightblue" stroke="midnightblue" points="2399.82,-30.26 2409.05,-25.07 2398.59,-23.37 2399.82,-30.26"/>
</g>
<!-- Node28 -->
<g id="node28" class="node">
<title>Node28</title>
<g id="a_node28"><a xlink:title=" ">
<polygon fill="none" stroke="#bfbfbf" points="2539.5,-0.5 2539.5,-30.5 2658.5,-30.5 2658.5,-0.5 2539.5,-0.5"/>
<text text-anchor="start" x="2547.5" y="-18.5" font-family="Helvetica,sans-Serif" font-size="10.00">seerep&#45;msgs/vector3</text>
<text text-anchor="middle" x="2599" y="-7.5" font-family="Helvetica,sans-Serif" font-size="10.00">_stamped.pb.h</text>
</a>
</g>
</g>
<!-- Node12&#45;&gt;Node28 -->
<g id="edge27" class="edge">
<title>Node12&#45;&gt;Node28</title>
<path fill="none" stroke="midnightblue" d="M1428.05,-68.12C1431.07,-67.7 1434.06,-67.33 1437,-67 1917.2,-13.62 2046.34,-88.92 2529.37,-31.05"/>
<polygon fill="midnightblue" stroke="midnightblue" points="2529.89,-34.51 2539.4,-29.83 2529.05,-27.56 2529.89,-34.51"/>
</g>
<!-- Node31&#45;&gt;Node10 -->
<g id="edge33" class="edge">
<title>Node31&#45;&gt;Node10</title>
<path fill="none" stroke="midnightblue" d="M1512.02,-140.22C1447.07,-133.47 1276.83,-115.51 1135,-98 1123.37,-96.56 1111.04,-94.97 1099.05,-93.37"/>
<polygon fill="midnightblue" stroke="midnightblue" points="1099.45,-89.89 1089.08,-92.03 1098.52,-96.83 1099.45,-89.89"/>
</g>
<!-- Node31&#45;&gt;Node11 -->
<g id="edge35" class="edge">
<title>Node31&#45;&gt;Node11</title>
<path fill="none" stroke="midnightblue" d="M1512.28,-138.41C1467.64,-130.7 1374.81,-114.56 1286.19,-98.2"/>
<polygon fill="midnightblue" stroke="midnightblue" points="1286.71,-94.74 1276.24,-96.37 1285.44,-101.63 1286.71,-94.74"/>
</g>
<!-- Node31&#45;&gt;Node12 -->
<g id="edge41" class="edge">
<title>Node31&#45;&gt;Node12</title>
<path fill="none" stroke="midnightblue" d="M1513.5,-134.48C1487.25,-125.7 1445.63,-111.79 1412.49,-100.71"/>
<polygon fill="midnightblue" stroke="midnightblue" points="1413.54,-97.37 1402.95,-97.52 1411.33,-104.01 1413.54,-97.37"/>
</g>
<!-- Node32 -->
<g id="node32" class="node">
<title>Node32</title>
<g id="a_node32"><a xlink:title=" ">
<polygon fill="none" stroke="#bfbfbf" points="2697,-73 2697,-92 2761,-92 2761,-73 2697,-73"/>
<text text-anchor="middle" x="2729" y="-80" font-family="Helvetica,sans-Serif" font-size="10.00">algorithm</text>
</a>
</g>
</g>
<!-- Node31&#45;&gt;Node32 -->
<g id="edge31" class="edge">
<title>Node31&#45;&gt;Node32</title>
<path fill="none" stroke="midnightblue" d="M1565.61,-135.68C1568.76,-135.01 1571.94,-134.43 1575,-134 2065.18,-65.6 2201.62,-189.59 2688,-98 2691.52,-97.34 2695.14,-96.42 2698.71,-95.37"/>
<polygon fill="midnightblue" stroke="midnightblue" points="2700.08,-98.6 2708.48,-92.15 2697.89,-91.96 2700.08,-98.6"/>
</g>
<!-- Node33 -->
<g id="node33" class="node">
<title>Node33</title>
<g id="a_node33"><a xlink:title=" ">
<polygon fill="none" stroke="#bfbfbf" points="1446,-73 1446,-92 1490,-92 1490,-73 1446,-73"/>
<text text-anchor="middle" x="1468" y="-80" font-family="Helvetica,sans-Serif" font-size="10.00">string</text>
</a>
</g>
</g>
<!-- Node31&#45;&gt;Node33 -->
<g id="edge32" class="edge">
<title>Node31&#45;&gt;Node33</title>
<path fill="none" stroke="midnightblue" d="M1528.83,-134.48C1517.65,-125.11 1499.48,-109.88 1485.91,-98.51"/>
<polygon fill="midnightblue" stroke="midnightblue" points="1488.07,-95.75 1478.15,-92.01 1483.57,-101.11 1488.07,-95.75"/>
</g>
<!-- Node34 -->
<g id="node34" class="node">
<title>Node34</title>
<g id="a_node34"><a xlink:title=" ">
<polygon fill="none" stroke="#bfbfbf" points="1508,-73 1508,-92 1714,-92 1714,-73 1508,-73"/>
<text text-anchor="middle" x="1611" y="-80" font-family="Helvetica,sans-Serif" font-size="10.00">seerep&#45;com/meta&#45;operations.grpc.pb.h</text>
</a>
</g>
</g>
<!-- Node31&#45;&gt;Node34 -->
<g id="edge34" class="edge">
<title>Node31&#45;&gt;Node34</title>
<path fill="none" stroke="midnightblue" d="M1549.32,-134.48C1560.65,-125.11 1579.07,-109.88 1592.84,-98.51"/>
<polygon fill="midnightblue" stroke="midnightblue" points="1595.22,-101.08 1600.7,-92.01 1590.77,-95.68 1595.22,-101.08"/>
</g>
<!-- Node35 -->
<g id="node35" class="node">
<title>Node35</title>
<g id="a_node35"><a xlink:title=" ">
<polygon fill="none" stroke="#bfbfbf" points="1732.5,-73 1732.5,-92 1903.5,-92 1903.5,-73 1732.5,-73"/>
<text text-anchor="middle" x="1818" y="-80" font-family="Helvetica,sans-Serif" font-size="10.00">seerep&#45;com/tf&#45;service.grpc.pb.h</text>
</a>
</g>
</g>
<!-- Node31&#45;&gt;Node35 -->
<g id="edge36" class="edge">
<title>Node31&#45;&gt;Node35</title>
<path fill="none" stroke="midnightblue" d="M1565.71,-136.2C1568.84,-135.44 1571.99,-134.69 1575,-134 1640.04,-119.12 1715.29,-103.77 1764.62,-93.95"/>
<polygon fill="midnightblue" stroke="midnightblue" points="1765.3,-97.39 1774.43,-92.01 1763.94,-90.52 1765.3,-97.39"/>
</g>
<!-- Node36 -->
<g id="node36" class="node">
<title>Node36</title>
<g id="a_node36"><a xlink:title=" ">
<polygon fill="none" stroke="#bfbfbf" points="1921.5,-67.5 1921.5,-97.5 2052.5,-97.5 2052.5,-67.5 1921.5,-67.5"/>
<text text-anchor="start" x="1929.5" y="-85.5" font-family="Helvetica,sans-Serif" font-size="10.00">seerep&#45;com/transfer</text>
<text text-anchor="middle" x="1987" y="-74.5" font-family="Helvetica,sans-Serif" font-size="10.00">&#45;sensor&#45;msgs.grpc.pb.h</text>
</a>
</g>
</g>
<!-- Node31&#45;&gt;Node36 -->
<g id="edge37" class="edge">
<title>Node31&#45;&gt;Node36</title>
<path fill="none" stroke="midnightblue" d="M1565.65,-135.9C1568.79,-135.19 1571.96,-134.54 1575,-134 1720.55,-108.18 1761.86,-120.01 1911.28,-98.17"/>
<polygon fill="midnightblue" stroke="midnightblue" points="1911.91,-101.62 1921.28,-96.69 1910.88,-94.7 1911.91,-101.62"/>
</g>
<!-- Node37 -->
<g id="node37" class="node">
<title>Node37</title>
<g id="a_node37"><a xlink:title=" ">
<polygon fill="none" stroke="#bfbfbf" points="2071,-73 2071,-92 2265,-92 2265,-73 2071,-73"/>
<text text-anchor="middle" x="2168" y="-80" font-family="Helvetica,sans-Serif" font-size="10.00">seerep&#45;com/image_service.grpc.fb.h</text>
</a>
</g>
</g>
<!-- Node31&#45;&gt;Node37 -->
<g id="edge38" class="edge">
<title>Node31&#45;&gt;Node37</title>
<path fill="none" stroke="midnightblue" d="M1565.63,-135.8C1568.77,-135.11 1571.95,-134.49 1575,-134 1789.28,-99.55 1846.16,-120.72 2062,-98 2074.46,-96.69 2087.72,-95.06 2100.48,-93.38"/>
<polygon fill="midnightblue" stroke="midnightblue" points="2101.15,-96.82 2110.59,-92.02 2100.21,-89.88 2101.15,-96.82"/>
</g>
<!-- Node38 -->
<g id="node38" class="node">
<title>Node38</title>
<g id="a_node38"><a xlink:title=" ">
<polygon fill="none" stroke="#bfbfbf" points="2283,-73 2283,-92 2489,-92 2489,-73 2283,-73"/>
<text text-anchor="middle" x="2386" y="-80" font-family="Helvetica,sans-Serif" font-size="10.00">seerep&#45;com/meta_operations.grpc.fb.h</text>
</a>
</g>
</g>
<!-- Node31&#45;&gt;Node38 -->
<g id="edge39" class="edge">
<title>Node31&#45;&gt;Node38</title>
<path fill="none" stroke="midnightblue" d="M1565.62,-135.73C1568.76,-135.06 1571.94,-134.46 1575,-134 1882.67,-88.06 1964.18,-125.99 2274,-98 2287.83,-96.75 2302.58,-95.08 2316.68,-93.32"/>
<polygon fill="midnightblue" stroke="midnightblue" points="2317.33,-96.77 2326.81,-92.03 2316.44,-89.83 2317.33,-96.77"/>
</g>
<!-- Node39 -->
<g id="node39" class="node">
<title>Node39</title>
<g id="a_node39"><a xlink:title=" ">
<polygon fill="none" stroke="#bfbfbf" points="2507.5,-73 2507.5,-92 2678.5,-92 2678.5,-73 2507.5,-73"/>
<text text-anchor="middle" x="2593" y="-80" font-family="Helvetica,sans-Serif" font-size="10.00">seerep&#45;com/tf_service.grpc.fb.h</text>
</a>
</g>
</g>
<!-- Node31&#45;&gt;Node39 -->
<g id="edge40" class="edge">
<title>Node31&#45;&gt;Node39</title>
<path fill="none" stroke="midnightblue" d="M1565.62,-135.7C1568.76,-135.03 1571.94,-134.44 1575,-134 1981.4,-75.91 2089.33,-137.03 2498,-98 2509.81,-96.87 2522.38,-95.25 2534.39,-93.5"/>
<polygon fill="midnightblue" stroke="midnightblue" points="2534.95,-96.96 2544.31,-92.01 2533.9,-90.04 2534.95,-96.96"/>
</g>
</g>
</svg>
