<?xml version="1.0" encoding="UTF-8" standalone="no"?>
<!DOCTYPE svg PUBLIC "-//W3C//DTD SVG 1.1//EN"
 "http://www.w3.org/Graphics/SVG/1.1/DTD/svg11.dtd">
<!-- Generated by graphviz version 2.43.0 (0)
 -->
<!-- Title: seerep_msgs/core/query_tf.h Pages: 1 -->
<svg width="257pt" height="140pt"
 viewBox="0.00 0.00 257.00 140.00" xmlns="http://www.w3.org/2000/svg" xmlns:xlink="http://www.w3.org/1999/xlink">
<g id="graph0" class="graph" transform="scale(1 1) rotate(0) translate(4 136)">
<title>seerep_msgs/core/query_tf.h</title>
<!-- Node1 -->
<g id="node1" class="node">
<title>Node1</title>
<g id="a_node1"><a xlink:title=" ">
<polygon fill="#bfbfbf" stroke="black" points="63,-112.5 63,-131.5 220,-131.5 220,-112.5 63,-112.5"/>
<text text-anchor="middle" x="141.5" y="-119.5" font-family="Helvetica,sans-Serif" font-size="10.00">seerep_msgs/core/query_tf.h</text>
</a>
</g>
</g>
<!-- Node2 -->
<g id="node2" class="node">
<title>Node2</title>
<g id="a_node2"><a xlink:title=" ">
<polygon fill="none" stroke="#bfbfbf" points="0,-56.5 0,-75.5 113,-75.5 113,-56.5 0,-56.5"/>
<text text-anchor="middle" x="56.5" y="-63.5" font-family="Helvetica,sans-Serif" font-size="10.00">boost/uuid/uuid.hpp</text>
</a>
</g>
</g>
<!-- Node1&#45;&gt;Node2 -->
<g id="edge1" class="edge">
<title>Node1&#45;&gt;Node2</title>
<path fill="none" stroke="midnightblue" d="M127.84,-112.32C114.58,-103.9 94.23,-90.97 78.65,-81.07"/>
<polygon fill="midnightblue" stroke="midnightblue" points="80.44,-78.06 70.12,-75.65 76.69,-83.97 80.44,-78.06"/>
</g>
<!-- Node3 -->
<g id="node3" class="node">
<title>Node3</title>
<g id="a_node3"><a xlink:title=" ">
<polygon fill="none" stroke="#bfbfbf" points="143,-0.5 143,-19.5 208,-19.5 208,-0.5 143,-0.5"/>
<text text-anchor="middle" x="175.5" y="-7.5" font-family="Helvetica,sans-Serif" font-size="10.00">functional</text>
</a>
</g>
</g>
<!-- Node1&#45;&gt;Node3 -->
<g id="edge2" class="edge">
<title>Node1&#45;&gt;Node3</title>
<path fill="none" stroke="midnightblue" d="M144.21,-112.17C148.05,-99.66 155.29,-76.08 161.5,-56 164.22,-47.2 167.26,-37.43 169.81,-29.25"/>
<polygon fill="midnightblue" stroke="midnightblue" points="173.17,-30.21 172.81,-19.62 166.49,-28.13 173.17,-30.21"/>
</g>
<!-- Node4 -->
<g id="node4" class="node">
<title>Node4</title>
<g id="a_node4"><a xlink:href="timestamp_8h.html" target="_top" xlink:title=" ">
<polygon fill="none" stroke="black" points="170,-56.5 170,-75.5 249,-75.5 249,-56.5 170,-56.5"/>
<text text-anchor="middle" x="209.5" y="-63.5" font-family="Helvetica,sans-Serif" font-size="10.00">timestamp.h</text>
</a>
</g>
</g>
<!-- Node1&#45;&gt;Node4 -->
<g id="edge3" class="edge">
<title>Node1&#45;&gt;Node4</title>
<path fill="none" stroke="midnightblue" d="M152.43,-112.32C162.67,-104.18 178.22,-91.84 190.5,-82.09"/>
<polygon fill="midnightblue" stroke="midnightblue" points="192.72,-84.79 198.38,-75.83 188.37,-79.31 192.72,-84.79"/>
</g>
<!-- Node4&#45;&gt;Node3 -->
<g id="edge4" class="edge">
<title>Node4&#45;&gt;Node3</title>
<path fill="none" stroke="midnightblue" d="M203.89,-56.08C199.13,-48.53 192.18,-37.49 186.35,-28.23"/>
<polygon fill="midnightblue" stroke="midnightblue" points="189.3,-26.35 181.01,-19.75 183.38,-30.08 189.3,-26.35"/>
</g>
</g>
</svg>
