<?xml version="1.0" encoding="UTF-8" standalone="no"?>
<!DOCTYPE svg PUBLIC "-//W3C//DTD SVG 1.1//EN"
 "http://www.w3.org/Graphics/SVG/1.1/DTD/svg11.dtd">
<!-- Generated by graphviz version 2.43.0 (0)
 -->
<!-- Title: seerep_ros/seerep_ros_comm/src/rostopic_dumper.cpp Pages: 1 -->
<svg width="2509pt" height="374pt"
 viewBox="0.00 0.00 2508.50 374.00" xmlns="http://www.w3.org/2000/svg" xmlns:xlink="http://www.w3.org/1999/xlink">
<g id="graph0" class="graph" transform="scale(1 1) rotate(0) translate(4 370)">
<title>seerep_ros/seerep_ros_comm/src/rostopic_dumper.cpp</title>
<!-- Node1 -->
<g id="node1" class="node">
<title>Node1</title>
<g id="a_node1"><a xlink:title=" ">
<polygon fill="#bfbfbf" stroke="black" points="2212.5,-335.5 2212.5,-365.5 2386.5,-365.5 2386.5,-335.5 2212.5,-335.5"/>
<text text-anchor="start" x="2220.5" y="-353.5" font-family="Helvetica,sans-Serif" font-size="10.00">seerep_ros/seerep_ros</text>
<text text-anchor="middle" x="2299.5" y="-342.5" font-family="Helvetica,sans-Serif" font-size="10.00">_comm/src/rostopic_dumper.cpp</text>
</a>
</g>
</g>
<!-- Node2 -->
<g id="node2" class="node">
<title>Node2</title>
<g id="a_node2"><a xlink:href="rostopic__dumper_8h.html" target="_top" xlink:title=" ">
<polygon fill="none" stroke="black" points="2225.5,-268.5 2225.5,-298.5 2373.5,-298.5 2373.5,-268.5 2225.5,-268.5"/>
<text text-anchor="start" x="2233.5" y="-286.5" font-family="Helvetica,sans-Serif" font-size="10.00">seerep_ros_comm/rostopic</text>
<text text-anchor="middle" x="2299.5" y="-275.5" font-family="Helvetica,sans-Serif" font-size="10.00">_dumper.h</text>
</a>
</g>
</g>
<!-- Node1&#45;&gt;Node2 -->
<g id="edge1" class="edge">
<title>Node1&#45;&gt;Node2</title>
<path fill="none" stroke="midnightblue" d="M2299.5,-335.4C2299.5,-327.64 2299.5,-317.81 2299.5,-308.86"/>
<polygon fill="midnightblue" stroke="midnightblue" points="2303,-308.58 2299.5,-298.58 2296,-308.58 2303,-308.58"/>
</g>
<!-- Node3 -->
<g id="node3" class="node">
<title>Node3</title>
<g id="a_node3"><a xlink:title=" ">
<polygon fill="none" stroke="#bfbfbf" points="1218,-207 1218,-226 1295,-226 1295,-207 1218,-207"/>
<text text-anchor="middle" x="1256.5" y="-214" font-family="Helvetica,sans-Serif" font-size="10.00">ros/master.h</text>
</a>
</g>
</g>
<!-- Node2&#45;&gt;Node3 -->
<g id="edge2" class="edge">
<title>Node2&#45;&gt;Node3</title>
<path fill="none" stroke="midnightblue" d="M2225.29,-281.06C2025.85,-276.83 1481.41,-262.74 1304.5,-232 1299.94,-231.21 1295.2,-230.12 1290.56,-228.89"/>
<polygon fill="midnightblue" stroke="midnightblue" points="1291.22,-225.44 1280.64,-226.04 1289.29,-232.17 1291.22,-225.44"/>
</g>
<!-- Node4 -->
<g id="node4" class="node">
<title>Node4</title>
<g id="a_node4"><a xlink:title=" ">
<polygon fill="none" stroke="#bfbfbf" points="1313,-207 1313,-226 1372,-226 1372,-207 1313,-207"/>
<text text-anchor="middle" x="1342.5" y="-214" font-family="Helvetica,sans-Serif" font-size="10.00">ros/ros.h</text>
</a>
</g>
</g>
<!-- Node2&#45;&gt;Node4 -->
<g id="edge3" class="edge">
<title>Node2&#45;&gt;Node4</title>
<path fill="none" stroke="midnightblue" d="M2225.17,-281.29C2036.39,-277.74 1542.06,-265.46 1381.5,-232 1378.25,-231.32 1374.9,-230.42 1371.61,-229.4"/>
<polygon fill="midnightblue" stroke="midnightblue" points="1372.59,-226.03 1362,-226.06 1370.3,-232.65 1372.59,-226.03"/>
</g>
<!-- Node5 -->
<g id="node5" class="node">
<title>Node5</title>
<g id="a_node5"><a xlink:href="hdf5__ros_8h.html" target="_top" xlink:title=" ">
<polygon fill="none" stroke="black" points="1390.5,-201.5 1390.5,-231.5 1512.5,-231.5 1512.5,-201.5 1390.5,-201.5"/>
<text text-anchor="start" x="1398.5" y="-219.5" font-family="Helvetica,sans-Serif" font-size="10.00">seerep_hdf5_ros/hdf5</text>
<text text-anchor="middle" x="1451.5" y="-208.5" font-family="Helvetica,sans-Serif" font-size="10.00">_ros.h</text>
</a>
</g>
</g>
<!-- Node2&#45;&gt;Node5 -->
<g id="edge4" class="edge">
<title>Node2&#45;&gt;Node5</title>
<path fill="none" stroke="midnightblue" d="M2225.36,-276.82C2063.75,-264.43 1681.54,-235.13 1522.67,-222.96"/>
<polygon fill="midnightblue" stroke="midnightblue" points="1522.77,-219.45 1512.54,-222.18 1522.24,-226.43 1522.77,-219.45"/>
</g>
<!-- Node6 -->
<g id="node6" class="node">
<title>Node6</title>
<g id="a_node6"><a xlink:title=" ">
<polygon fill="none" stroke="#bfbfbf" points="2128,-6 2128,-25 2253,-25 2253,-6 2128,-6"/>
<text text-anchor="middle" x="2190.5" y="-13" font-family="Helvetica,sans-Serif" font-size="10.00">boost/lexical_cast.hpp</text>
</a>
</g>
</g>
<!-- Node2&#45;&gt;Node6 -->
<g id="edge42" class="edge">
<title>Node2&#45;&gt;Node6</title>
<path fill="none" stroke="midnightblue" d="M2303.77,-268.47C2314.01,-231.88 2336.16,-131.86 2294.5,-67 2282.23,-47.9 2260.51,-35.82 2240.08,-28.29"/>
<polygon fill="midnightblue" stroke="midnightblue" points="2241.1,-24.94 2230.51,-25.04 2238.85,-31.57 2241.1,-24.94"/>
</g>
<!-- Node7 -->
<g id="node7" class="node">
<title>Node7</title>
<g id="a_node7"><a xlink:title=" ">
<polygon fill="none" stroke="#bfbfbf" points="2271.5,-6 2271.5,-25 2441.5,-25 2441.5,-6 2271.5,-6"/>
<text text-anchor="middle" x="2356.5" y="-13" font-family="Helvetica,sans-Serif" font-size="10.00">boost/uuid/uuid_generators.hpp</text>
</a>
</g>
</g>
<!-- Node2&#45;&gt;Node7 -->
<g id="edge43" class="edge">
<title>Node2&#45;&gt;Node7</title>
<path fill="none" stroke="midnightblue" d="M2311.28,-268.45C2318.67,-258.82 2327.68,-245.41 2332.5,-232 2357.41,-162.65 2358.26,-73.36 2357.28,-35.17"/>
<polygon fill="midnightblue" stroke="midnightblue" points="2360.77,-34.91 2356.94,-25.03 2353.77,-35.15 2360.77,-34.91"/>
</g>
<!-- Node20 -->
<g id="node20" class="node">
<title>Node20</title>
<g id="a_node20"><a xlink:title=" ">
<polygon fill="none" stroke="#bfbfbf" points="2053.5,-6 2053.5,-25 2109.5,-25 2109.5,-6 2053.5,-6"/>
<text text-anchor="middle" x="2081.5" y="-13" font-family="Helvetica,sans-Serif" font-size="10.00">optional</text>
</a>
</g>
</g>
<!-- Node2&#45;&gt;Node20 -->
<g id="edge45" class="edge">
<title>Node2&#45;&gt;Node20</title>
<path fill="none" stroke="midnightblue" d="M2299.2,-268.41C2297.95,-240.27 2291.71,-176.19 2261.5,-134 2223.86,-81.44 2154.75,-46.22 2113.99,-28.93"/>
<polygon fill="midnightblue" stroke="midnightblue" points="2115.09,-25.6 2104.51,-25.02 2112.42,-32.07 2115.09,-25.6"/>
</g>
<!-- Node35 -->
<g id="node35" class="node">
<title>Node35</title>
<g id="a_node35"><a xlink:title=" ">
<polygon fill="none" stroke="#bfbfbf" points="2384.5,-207 2384.5,-226 2434.5,-226 2434.5,-207 2384.5,-207"/>
<text text-anchor="middle" x="2409.5" y="-214" font-family="Helvetica,sans-Serif" font-size="10.00">chrono</text>
</a>
</g>
</g>
<!-- Node2&#45;&gt;Node35 -->
<g id="edge44" class="edge">
<title>Node2&#45;&gt;Node35</title>
<path fill="none" stroke="midnightblue" d="M2323.37,-268.4C2342.07,-257.34 2367.94,-242.06 2386.43,-231.13"/>
<polygon fill="midnightblue" stroke="midnightblue" points="2388.27,-234.11 2395.1,-226.01 2384.71,-228.08 2388.27,-234.11"/>
</g>
<!-- Node36 -->
<g id="node36" class="node">
<title>Node36</title>
<g id="a_node36"><a xlink:title=" ">
<polygon fill="none" stroke="#bfbfbf" points="2452.5,-207 2452.5,-226 2500.5,-226 2500.5,-207 2452.5,-207"/>
<text text-anchor="middle" x="2476.5" y="-214" font-family="Helvetica,sans-Serif" font-size="10.00">thread</text>
</a>
</g>
</g>
<!-- Node2&#45;&gt;Node36 -->
<g id="edge46" class="edge">
<title>Node2&#45;&gt;Node36</title>
<path fill="none" stroke="midnightblue" d="M2342.35,-268.43C2371.15,-258.74 2409.86,-245.27 2443.5,-232 2445.1,-231.37 2446.74,-230.71 2448.39,-230.02"/>
<polygon fill="midnightblue" stroke="midnightblue" points="2449.93,-233.17 2457.76,-226.03 2447.19,-226.73 2449.93,-233.17"/>
</g>
<!-- Node5&#45;&gt;Node6 -->
<g id="edge5" class="edge">
<title>Node5&#45;&gt;Node6</title>
<path fill="none" stroke="midnightblue" d="M1512.74,-209.21C1575.32,-201.67 1667.09,-187.21 1694.5,-165 1731.45,-135.05 1698.95,-94.86 1737.5,-67 1806.43,-17.19 2034.37,-43.41 2118.5,-31 2126.04,-29.89 2133.99,-28.5 2141.74,-27.04"/>
<polygon fill="midnightblue" stroke="midnightblue" points="2142.63,-30.43 2151.77,-25.07 2141.28,-23.56 2142.63,-30.43"/>
</g>
<!-- Node5&#45;&gt;Node7 -->
<g id="edge6" class="edge">
<title>Node5&#45;&gt;Node7</title>
<path fill="none" stroke="midnightblue" d="M1512.74,-209.74C1567.68,-203.21 1649.83,-190.04 1717.5,-165 1743.45,-155.4 1745.6,-143.74 1771.5,-134 1866.95,-98.11 2161.56,-47.93 2292.57,-26.67"/>
<polygon fill="midnightblue" stroke="midnightblue" points="2293.15,-30.12 2302.47,-25.06 2292.03,-23.21 2293.15,-30.12"/>
</g>
<!-- Node8 -->
<g id="node8" class="node">
<title>Node8</title>
<g id="a_node8"><a xlink:title=" ">
<polygon fill="none" stroke="#bfbfbf" points="0,-6 0,-25 127,-25 127,-6 0,-6"/>
<text text-anchor="middle" x="63.5" y="-13" font-family="Helvetica,sans-Serif" font-size="10.00">boost/uuid/uuid_io.hpp</text>
</a>
</g>
</g>
<!-- Node5&#45;&gt;Node8 -->
<g id="edge7" class="edge">
<title>Node5&#45;&gt;Node8</title>
<path fill="none" stroke="midnightblue" d="M1390.12,-202.29C1387.21,-201.82 1384.33,-201.39 1381.5,-201 1146.26,-168.85 1077.99,-225.87 848.5,-165 817.95,-156.9 814.65,-143.47 784.5,-134 506.29,-46.61 423.57,-82.31 136.5,-31 129.66,-29.78 122.48,-28.43 115.4,-27.06"/>
<polygon fill="midnightblue" stroke="midnightblue" points="115.63,-23.54 105.14,-25.06 114.28,-30.41 115.63,-23.54"/>
</g>
<!-- Node9 -->
<g id="node9" class="node">
<title>Node9</title>
<g id="a_node9"><a xlink:title=" ">
<polygon fill="none" stroke="#bfbfbf" points="145.5,-6 145.5,-25 255.5,-25 255.5,-6 145.5,-6"/>
<text text-anchor="middle" x="200.5" y="-13" font-family="Helvetica,sans-Serif" font-size="10.00">highfive/H5File.hpp</text>
</a>
</g>
</g>
<!-- Node5&#45;&gt;Node9 -->
<g id="edge8" class="edge">
<title>Node5&#45;&gt;Node9</title>
<path fill="none" stroke="midnightblue" d="M1390.5,-202.37C1387.46,-201.87 1384.45,-201.41 1381.5,-201 1270.06,-185.56 972.19,-224.17 876.5,-165 833.45,-138.38 861.63,-93.48 818.5,-67 713.37,-2.45 386.6,-48.69 264.5,-31 257.68,-30.01 250.51,-28.68 243.54,-27.23"/>
<polygon fill="midnightblue" stroke="midnightblue" points="244.05,-23.75 233.53,-25.03 242.55,-30.59 244.05,-23.75"/>
</g>
<!-- Node10 -->
<g id="node10" class="node">
<title>Node10</title>
<g id="a_node10"><a xlink:title=" ">
<polygon fill="none" stroke="#bfbfbf" points="273.5,-6 273.5,-25 321.5,-25 321.5,-6 273.5,-6"/>
<text text-anchor="middle" x="297.5" y="-13" font-family="Helvetica,sans-Serif" font-size="10.00">mutex</text>
</a>
</g>
</g>
<!-- Node5&#45;&gt;Node10 -->
<g id="edge9" class="edge">
<title>Node5&#45;&gt;Node10</title>
<path fill="none" stroke="midnightblue" d="M1390.5,-202.38C1387.46,-201.88 1384.45,-201.41 1381.5,-201 1275.13,-186.08 987.17,-227.05 899.5,-165 860.68,-137.52 895.41,-94.36 856.5,-67 760.66,0.39 444.27,-58.98 330.5,-31 328.14,-30.42 325.74,-29.68 323.36,-28.85"/>
<polygon fill="midnightblue" stroke="midnightblue" points="324.48,-25.52 313.89,-25.04 321.86,-32.02 324.48,-25.52"/>
</g>
<!-- Node11 -->
<g id="node11" class="node">
<title>Node11</title>
<g id="a_node11"><a xlink:title=" ">
<polygon fill="none" stroke="#bfbfbf" points="908.5,-140 908.5,-159 952.5,-159 952.5,-140 908.5,-140"/>
<text text-anchor="middle" x="930.5" y="-147" font-family="Helvetica,sans-Serif" font-size="10.00">string</text>
</a>
</g>
</g>
<!-- Node5&#45;&gt;Node11 -->
<g id="edge10" class="edge">
<title>Node5&#45;&gt;Node11</title>
<path fill="none" stroke="midnightblue" d="M1390.49,-202.42C1387.46,-201.91 1384.45,-201.43 1381.5,-201 1198.32,-174.18 1146.56,-208.06 966.5,-165 963.83,-164.36 961.09,-163.56 958.38,-162.66"/>
<polygon fill="midnightblue" stroke="midnightblue" points="959.43,-159.31 948.84,-159.1 956.99,-165.87 959.43,-159.31"/>
</g>
<!-- Node12 -->
<g id="node12" class="node">
<title>Node12</title>
<g id="a_node12"><a xlink:title=" ">
<polygon fill="none" stroke="#bfbfbf" points="1155.5,-73 1155.5,-92 1355.5,-92 1355.5,-73 1155.5,-73"/>
<text text-anchor="middle" x="1255.5" y="-80" font-family="Helvetica,sans-Serif" font-size="10.00">geometry_msgs/TransformStamped.h</text>
</a>
</g>
</g>
<!-- Node5&#45;&gt;Node12 -->
<g id="edge11" class="edge">
<title>Node5&#45;&gt;Node12</title>
<path fill="none" stroke="midnightblue" d="M1390.43,-202.76C1387.41,-202.16 1384.42,-201.57 1381.5,-201 1337.6,-192.46 1212.16,-199.33 1183.5,-165 1163.18,-140.65 1200.54,-113.16 1228.63,-97.14"/>
<polygon fill="midnightblue" stroke="midnightblue" points="1230.61,-100.04 1237.7,-92.16 1227.25,-93.9 1230.61,-100.04"/>
</g>
<!-- Node13 -->
<g id="node13" class="node">
<title>Node13</title>
<g id="a_node13"><a xlink:href="hdf5__core__general_8h.html" target="_top" xlink:title=" ">
<polygon fill="none" stroke="black" points="971.5,-67.5 971.5,-97.5 1099.5,-97.5 1099.5,-67.5 971.5,-67.5"/>
<text text-anchor="start" x="979.5" y="-85.5" font-family="Helvetica,sans-Serif" font-size="10.00">seerep_hdf5_core/hdf5</text>
<text text-anchor="middle" x="1035.5" y="-74.5" font-family="Helvetica,sans-Serif" font-size="10.00">_core_general.h</text>
</a>
</g>
</g>
<!-- Node5&#45;&gt;Node13 -->
<g id="edge12" class="edge">
<title>Node5&#45;&gt;Node13</title>
<path fill="none" stroke="midnightblue" d="M1390.49,-202.45C1387.45,-201.93 1384.45,-201.44 1381.5,-201 1339.34,-194.67 1028.2,-196.53 999.5,-165 983.97,-147.94 998.76,-123.09 1013.81,-105.32"/>
<polygon fill="midnightblue" stroke="midnightblue" points="1016.56,-107.49 1020.63,-97.71 1011.35,-102.82 1016.56,-107.49"/>
</g>
<!-- Node27 -->
<g id="node27" class="node">
<title>Node27</title>
<g id="a_node27"><a xlink:href="hdf5__core__tf_8h.html" target="_top" xlink:title=" ">
<polygon fill="none" stroke="black" points="1008.5,-134.5 1008.5,-164.5 1136.5,-164.5 1136.5,-134.5 1008.5,-134.5"/>
<text text-anchor="start" x="1016.5" y="-152.5" font-family="Helvetica,sans-Serif" font-size="10.00">seerep_hdf5_core/hdf5</text>
<text text-anchor="middle" x="1072.5" y="-141.5" font-family="Helvetica,sans-Serif" font-size="10.00">_core_tf.h</text>
</a>
</g>
</g>
<!-- Node5&#45;&gt;Node27 -->
<g id="edge31" class="edge">
<title>Node5&#45;&gt;Node27</title>
<path fill="none" stroke="midnightblue" d="M1390.45,-202.67C1387.43,-202.09 1384.43,-201.53 1381.5,-201 1279.26,-182.46 1252.92,-182.5 1150.5,-165 1149.24,-164.78 1147.97,-164.57 1146.69,-164.34"/>
<polygon fill="midnightblue" stroke="midnightblue" points="1147.2,-160.88 1136.75,-162.6 1145.99,-167.78 1147.2,-160.88"/>
</g>
<!-- Node28 -->
<g id="node28" class="node">
<title>Node28</title>
<g id="a_node28"><a xlink:title=" ">
<polygon fill="none" stroke="#bfbfbf" points="1192,-140 1192,-159 1341,-159 1341,-140 1192,-140"/>
<text text-anchor="middle" x="1266.5" y="-147" font-family="Helvetica,sans-Serif" font-size="10.00">sensor_msgs/CameraInfo.h</text>
</a>
</g>
</g>
<!-- Node5&#45;&gt;Node28 -->
<g id="edge35" class="edge">
<title>Node5&#45;&gt;Node28</title>
<path fill="none" stroke="midnightblue" d="M1411.36,-201.4C1378.18,-189.74 1331.6,-173.37 1300.3,-162.38"/>
<polygon fill="midnightblue" stroke="midnightblue" points="1301.31,-159.02 1290.71,-159.01 1298.99,-165.62 1301.31,-159.02"/>
</g>
<!-- Node29 -->
<g id="node29" class="node">
<title>Node29</title>
<g id="a_node29"><a xlink:title=" ">
<polygon fill="none" stroke="#bfbfbf" points="1359.5,-140 1359.5,-159 1543.5,-159 1543.5,-140 1359.5,-140"/>
<text text-anchor="middle" x="1451.5" y="-147" font-family="Helvetica,sans-Serif" font-size="10.00">sensor_msgs/CompressedImage.h</text>
</a>
</g>
</g>
<!-- Node5&#45;&gt;Node29 -->
<g id="edge36" class="edge">
<title>Node5&#45;&gt;Node29</title>
<path fill="none" stroke="midnightblue" d="M1451.5,-201.4C1451.5,-192.06 1451.5,-179.71 1451.5,-169.52"/>
<polygon fill="midnightblue" stroke="midnightblue" points="1455,-169.19 1451.5,-159.19 1448,-169.19 1455,-169.19"/>
</g>
<!-- Node30 -->
<g id="node30" class="node">
<title>Node30</title>
<g id="a_node30"><a xlink:title=" ">
<polygon fill="none" stroke="#bfbfbf" points="1562,-140 1562,-159 1685,-159 1685,-140 1562,-140"/>
<text text-anchor="middle" x="1623.5" y="-147" font-family="Helvetica,sans-Serif" font-size="10.00">sensor_msgs/Image.h</text>
</a>
</g>
</g>
<!-- Node5&#45;&gt;Node30 -->
<g id="edge37" class="edge">
<title>Node5&#45;&gt;Node30</title>
<path fill="none" stroke="midnightblue" d="M1488.82,-201.4C1519.4,-189.84 1562.23,-173.66 1591.32,-162.66"/>
<polygon fill="midnightblue" stroke="midnightblue" points="1592.87,-165.82 1600.99,-159.01 1590.4,-159.27 1592.87,-165.82"/>
</g>
<!-- Node31 -->
<g id="node31" class="node">
<title>Node31</title>
<g id="a_node31"><a xlink:title=" ">
<polygon fill="none" stroke="#bfbfbf" points="1780,-140 1780,-159 1931,-159 1931,-140 1780,-140"/>
<text text-anchor="middle" x="1855.5" y="-147" font-family="Helvetica,sans-Serif" font-size="10.00">sensor_msgs/PointCloud2.h</text>
</a>
</g>
</g>
<!-- Node5&#45;&gt;Node31 -->
<g id="edge38" class="edge">
<title>Node5&#45;&gt;Node31</title>
<path fill="none" stroke="midnightblue" d="M1512.58,-205.68C1575.85,-195.51 1677.6,-179.15 1765.5,-165 1774.24,-163.59 1783.46,-162.11 1792.53,-160.65"/>
<polygon fill="midnightblue" stroke="midnightblue" points="1793.36,-164.06 1802.68,-159.01 1792.25,-157.15 1793.36,-164.06"/>
</g>
<!-- Node32 -->
<g id="node32" class="node">
<title>Node32</title>
<g id="a_node32"><a xlink:title=" ">
<polygon fill="none" stroke="#bfbfbf" points="1949,-140 1949,-159 2124,-159 2124,-140 1949,-140"/>
<text text-anchor="middle" x="2036.5" y="-147" font-family="Helvetica,sans-Serif" font-size="10.00">sensor_msgs/RegionOfInterest.h</text>
</a>
</g>
</g>
<!-- Node5&#45;&gt;Node32 -->
<g id="edge39" class="edge">
<title>Node5&#45;&gt;Node32</title>
<path fill="none" stroke="midnightblue" d="M1512.59,-210.12C1605.26,-201.75 1786.83,-184.53 1940.5,-165 1950.95,-163.67 1962.03,-162.13 1972.79,-160.55"/>
<polygon fill="midnightblue" stroke="midnightblue" points="1973.62,-163.97 1982.99,-159.04 1972.59,-157.04 1973.62,-163.97"/>
</g>
<!-- Node33 -->
<g id="node33" class="node">
<title>Node33</title>
<g id="a_node33"><a xlink:title=" ">
<polygon fill="none" stroke="#bfbfbf" points="2142.5,-140 2142.5,-159 2252.5,-159 2252.5,-140 2142.5,-140"/>
<text text-anchor="middle" x="2197.5" y="-147" font-family="Helvetica,sans-Serif" font-size="10.00">std_msgs/Header.h</text>
</a>
</g>
</g>
<!-- Node5&#45;&gt;Node33 -->
<g id="edge40" class="edge">
<title>Node5&#45;&gt;Node33</title>
<path fill="none" stroke="midnightblue" d="M1512.51,-214.03C1632.21,-210.46 1905.99,-199 2133.5,-165 2140.24,-163.99 2147.32,-162.67 2154.22,-161.22"/>
<polygon fill="midnightblue" stroke="midnightblue" points="2155.11,-164.61 2164.13,-159.05 2153.61,-157.77 2155.11,-164.61"/>
</g>
<!-- Node34 -->
<g id="node34" class="node">
<title>Node34</title>
<g id="a_node34"><a xlink:title=" ">
<polygon fill="none" stroke="#bfbfbf" points="647,-140 647,-159 776,-159 776,-140 647,-140"/>
<text text-anchor="middle" x="711.5" y="-147" font-family="Helvetica,sans-Serif" font-size="10.00">tf2_msgs/TFMessage.h</text>
</a>
</g>
</g>
<!-- Node5&#45;&gt;Node34 -->
<g id="edge41" class="edge">
<title>Node5&#45;&gt;Node34</title>
<path fill="none" stroke="midnightblue" d="M1390.13,-202.27C1387.22,-201.8 1384.33,-201.38 1381.5,-201 1120.65,-166.22 1051.72,-196.81 790.5,-165 781.45,-163.9 771.88,-162.41 762.63,-160.81"/>
<polygon fill="midnightblue" stroke="midnightblue" points="763.23,-157.37 752.77,-159.05 761.99,-164.26 763.23,-157.37"/>
</g>
<!-- Node13&#45;&gt;Node6 -->
<g id="edge26" class="edge">
<title>Node13&#45;&gt;Node6</title>
<path fill="none" stroke="midnightblue" d="M1099.66,-72.09C1114.98,-70.13 1131.3,-68.27 1146.5,-67 1577.29,-30.96 1689.2,-81.84 2118.5,-31 2126.78,-30.02 2135.53,-28.59 2143.97,-27.01"/>
<polygon fill="midnightblue" stroke="midnightblue" points="2144.92,-30.39 2154.06,-25.03 2143.57,-23.53 2144.92,-30.39"/>
</g>
<!-- Node13&#45;&gt;Node7 -->
<g id="edge28" class="edge">
<title>Node13&#45;&gt;Node7</title>
<path fill="none" stroke="midnightblue" d="M1099.66,-72.04C1114.98,-70.08 1131.29,-68.24 1146.5,-67 1641.13,-26.81 1768.37,-76.91 2262.5,-31 2274.07,-29.92 2286.39,-28.34 2298.16,-26.62"/>
<polygon fill="midnightblue" stroke="midnightblue" points="2298.97,-30.04 2308.34,-25.07 2297.92,-23.11 2298.97,-30.04"/>
</g>
<!-- Node13&#45;&gt;Node8 -->
<g id="edge29" class="edge">
<title>Node13&#45;&gt;Node8</title>
<path fill="none" stroke="midnightblue" d="M971.42,-76.98C928.23,-73.99 869.95,-70.08 818.5,-67 515.51,-48.88 437.69,-68.66 136.5,-31 128.3,-29.97 119.63,-28.56 111.25,-27"/>
<polygon fill="midnightblue" stroke="midnightblue" points="111.7,-23.53 101.22,-25.06 110.37,-30.4 111.7,-23.53"/>
</g>
<!-- Node13&#45;&gt;Node9 -->
<g id="edge13" class="edge">
<title>Node13&#45;&gt;Node9</title>
<path fill="none" stroke="midnightblue" d="M971.32,-75.99C937.22,-73.14 894.6,-69.7 856.5,-67 593.56,-48.36 525.45,-68.24 264.5,-31 257.68,-30.03 250.51,-28.7 243.54,-27.25"/>
<polygon fill="midnightblue" stroke="midnightblue" points="244.04,-23.78 233.53,-25.06 242.55,-30.62 244.04,-23.78"/>
</g>
<!-- Node13&#45;&gt;Node10 -->
<g id="edge20" class="edge">
<title>Node13&#45;&gt;Node10</title>
<path fill="none" stroke="midnightblue" d="M971.32,-74.37C947.25,-71.84 919.64,-69.09 894.5,-67 644.19,-46.15 574.54,-90.43 330.5,-31 328.14,-30.43 325.74,-29.69 323.36,-28.86"/>
<polygon fill="midnightblue" stroke="midnightblue" points="324.47,-25.54 313.89,-25.05 321.86,-32.03 324.47,-25.54"/>
</g>
<!-- Node14 -->
<g id="node14" class="node">
<title>Node14</title>
<g id="a_node14"><a xlink:title=" ">
<polygon fill="none" stroke="#bfbfbf" points="803,-6 803,-25 920,-25 920,-6 803,-6"/>
<text text-anchor="middle" x="861.5" y="-13" font-family="Helvetica,sans-Serif" font-size="10.00">seerep_msgs/aabb.h</text>
</a>
</g>
</g>
<!-- Node13&#45;&gt;Node14 -->
<g id="edge14" class="edge">
<title>Node13&#45;&gt;Node14</title>
<path fill="none" stroke="midnightblue" d="M997.74,-67.4C966.67,-55.79 923.11,-39.51 893.67,-28.52"/>
<polygon fill="midnightblue" stroke="midnightblue" points="894.87,-25.23 884.27,-25.01 892.42,-31.79 894.87,-25.23"/>
</g>
<!-- Node15 -->
<g id="node15" class="node">
<title>Node15</title>
<g id="a_node15"><a xlink:title=" ">
<polygon fill="none" stroke="#bfbfbf" points="938,-0.5 938,-30.5 1059,-30.5 1059,-0.5 938,-0.5"/>
<text text-anchor="start" x="946" y="-18.5" font-family="Helvetica,sans-Serif" font-size="10.00">seerep_msgs/dataset</text>
<text text-anchor="middle" x="998.5" y="-7.5" font-family="Helvetica,sans-Serif" font-size="10.00">_indexable.h</text>
</a>
</g>
</g>
<!-- Node13&#45;&gt;Node15 -->
<g id="edge15" class="edge">
<title>Node13&#45;&gt;Node15</title>
<path fill="none" stroke="midnightblue" d="M1027.47,-67.4C1022.82,-59.22 1016.84,-48.73 1011.53,-39.39"/>
<polygon fill="midnightblue" stroke="midnightblue" points="1014.5,-37.54 1006.51,-30.58 1008.42,-41 1014.5,-37.54"/>
</g>
<!-- Node16 -->
<g id="node16" class="node">
<title>Node16</title>
<g id="a_node16"><a xlink:title=" ">
<polygon fill="none" stroke="#bfbfbf" points="1077.5,-0.5 1077.5,-30.5 1203.5,-30.5 1203.5,-0.5 1077.5,-0.5"/>
<text text-anchor="start" x="1085.5" y="-18.5" font-family="Helvetica,sans-Serif" font-size="10.00">seerep_msgs/geodetic</text>
<text text-anchor="middle" x="1140.5" y="-7.5" font-family="Helvetica,sans-Serif" font-size="10.00">_coordinates.h</text>
</a>
</g>
</g>
<!-- Node13&#45;&gt;Node16 -->
<g id="edge16" class="edge">
<title>Node13&#45;&gt;Node16</title>
<path fill="none" stroke="midnightblue" d="M1058.28,-67.4C1073.14,-58.2 1092.74,-46.07 1109.07,-35.95"/>
<polygon fill="midnightblue" stroke="midnightblue" points="1111.1,-38.82 1117.76,-30.58 1107.42,-32.86 1111.1,-38.82"/>
</g>
<!-- Node17 -->
<g id="node17" class="node">
<title>Node17</title>
<g id="a_node17"><a xlink:title=" ">
<polygon fill="none" stroke="#bfbfbf" points="1222,-6 1222,-25 1339,-25 1339,-6 1222,-6"/>
<text text-anchor="middle" x="1280.5" y="-13" font-family="Helvetica,sans-Serif" font-size="10.00">seerep_msgs/label.h</text>
</a>
</g>
</g>
<!-- Node13&#45;&gt;Node17 -->
<g id="edge17" class="edge">
<title>Node13&#45;&gt;Node17</title>
<path fill="none" stroke="midnightblue" d="M1088.36,-67.48C1133.32,-55.55 1197.03,-38.64 1238.56,-27.63"/>
<polygon fill="midnightblue" stroke="midnightblue" points="1239.59,-30.98 1248.35,-25.03 1237.79,-24.21 1239.59,-30.98"/>
</g>
<!-- Node18 -->
<g id="node18" class="node">
<title>Node18</title>
<g id="a_node18"><a xlink:title=" ">
<polygon fill="none" stroke="#bfbfbf" points="1357.5,-6 1357.5,-25 1521.5,-25 1521.5,-6 1357.5,-6"/>
<text text-anchor="middle" x="1439.5" y="-13" font-family="Helvetica,sans-Serif" font-size="10.00">seerep_msgs/label_category.h</text>
</a>
</g>
</g>
<!-- Node13&#45;&gt;Node18 -->
<g id="edge18" class="edge">
<title>Node13&#45;&gt;Node18</title>
<path fill="none" stroke="midnightblue" d="M1099.74,-69.39C1104.4,-68.56 1109.02,-67.76 1113.5,-67 1217.68,-49.34 1244.1,-47.31 1348.5,-31 1357.44,-29.6 1366.87,-28.12 1376.13,-26.65"/>
<polygon fill="midnightblue" stroke="midnightblue" points="1376.77,-30.09 1386.1,-25.06 1375.67,-23.18 1376.77,-30.09"/>
</g>
<!-- Node19 -->
<g id="node19" class="node">
<title>Node19</title>
<g id="a_node19"><a xlink:title=" ">
<polygon fill="none" stroke="#bfbfbf" points="1540,-6 1540,-25 1653,-25 1653,-6 1540,-6"/>
<text text-anchor="middle" x="1596.5" y="-13" font-family="Helvetica,sans-Serif" font-size="10.00">boost/geometry.hpp</text>
</a>
</g>
</g>
<!-- Node13&#45;&gt;Node19 -->
<g id="edge19" class="edge">
<title>Node13&#45;&gt;Node19</title>
<path fill="none" stroke="midnightblue" d="M1099.69,-69.05C1104.36,-68.31 1109,-67.61 1113.5,-67 1297.83,-41.97 1346.6,-59.02 1530.5,-31 1537.36,-29.96 1544.57,-28.62 1551.6,-27.18"/>
<polygon fill="midnightblue" stroke="midnightblue" points="1552.67,-30.53 1561.72,-25.03 1551.21,-23.69 1552.67,-30.53"/>
</g>
<!-- Node13&#45;&gt;Node20 -->
<g id="edge21" class="edge">
<title>Node13&#45;&gt;Node20</title>
<path fill="none" stroke="midnightblue" d="M1099.66,-68.81C1104.33,-68.12 1108.98,-67.5 1113.5,-67 1319.26,-44.02 1841.84,-73.36 2044.5,-31 2047.51,-30.37 2050.59,-29.52 2053.63,-28.55"/>
<polygon fill="midnightblue" stroke="midnightblue" points="2054.84,-31.83 2063.05,-25.13 2052.46,-25.25 2054.84,-31.83"/>
</g>
<!-- Node21 -->
<g id="node21" class="node">
<title>Node21</title>
<g id="a_node21"><a xlink:title=" ">
<polygon fill="none" stroke="#bfbfbf" points="1671,-6 1671,-25 1740,-25 1740,-6 1671,-6"/>
<text text-anchor="middle" x="1705.5" y="-13" font-family="Helvetica,sans-Serif" font-size="10.00">type_traits</text>
</a>
</g>
</g>
<!-- Node13&#45;&gt;Node21 -->
<g id="edge22" class="edge">
<title>Node13&#45;&gt;Node21</title>
<path fill="none" stroke="midnightblue" d="M1099.68,-68.95C1104.35,-68.23 1108.99,-67.57 1113.5,-67 1356.13,-36.6 1422.63,-78.47 1662.5,-31 1666.2,-30.27 1670.01,-29.3 1673.77,-28.22"/>
<polygon fill="midnightblue" stroke="midnightblue" points="1675,-31.5 1683.48,-25.15 1672.89,-24.83 1675,-31.5"/>
</g>
<!-- Node22 -->
<g id="node22" class="node">
<title>Node22</title>
<g id="a_node22"><a xlink:title=" ">
<polygon fill="none" stroke="#bfbfbf" points="1758,-0.5 1758,-30.5 1903,-30.5 1903,-0.5 1758,-0.5"/>
<text text-anchor="start" x="1766" y="-18.5" font-family="Helvetica,sans-Serif" font-size="10.00">boost/log/sources/severity</text>
<text text-anchor="middle" x="1830.5" y="-7.5" font-family="Helvetica,sans-Serif" font-size="10.00">_logger.hpp</text>
</a>
</g>
</g>
<!-- Node13&#45;&gt;Node22 -->
<g id="edge23" class="edge">
<title>Node13&#45;&gt;Node22</title>
<path fill="none" stroke="midnightblue" d="M1099.67,-68.9C1104.34,-68.19 1108.99,-67.54 1113.5,-67 1391.28,-33.46 1466.55,-63.29 1747.62,-31.13"/>
<polygon fill="midnightblue" stroke="midnightblue" points="1748.17,-34.59 1757.7,-29.96 1747.37,-27.63 1748.17,-34.59"/>
</g>
<!-- Node23 -->
<g id="node23" class="node">
<title>Node23</title>
<g id="a_node23"><a xlink:title=" ">
<polygon fill="none" stroke="#bfbfbf" points="1921.5,-6 1921.5,-25 2035.5,-25 2035.5,-6 1921.5,-6"/>
<text text-anchor="middle" x="1978.5" y="-13" font-family="Helvetica,sans-Serif" font-size="10.00">boost/log/trivial.hpp</text>
</a>
</g>
</g>
<!-- Node13&#45;&gt;Node23 -->
<g id="edge24" class="edge">
<title>Node13&#45;&gt;Node23</title>
<path fill="none" stroke="midnightblue" d="M1099.67,-68.84C1104.34,-68.14 1108.98,-67.52 1113.5,-67 1466.65,-26.42 1560.06,-77.31 1912.5,-31 1919.78,-30.04 1927.44,-28.69 1934.86,-27.19"/>
<polygon fill="midnightblue" stroke="midnightblue" points="1935.73,-30.58 1944.78,-25.07 1934.27,-23.74 1935.73,-30.58"/>
</g>
<!-- Node24 -->
<g id="node24" class="node">
<title>Node24</title>
<g id="a_node24"><a xlink:title=" ">
<polygon fill="none" stroke="#bfbfbf" points="340,-6 340,-25 483,-25 483,-6 340,-6"/>
<text text-anchor="middle" x="411.5" y="-13" font-family="Helvetica,sans-Serif" font-size="10.00">boost/functional/hash.hpp</text>
</a>
</g>
</g>
<!-- Node13&#45;&gt;Node24 -->
<g id="edge25" class="edge">
<title>Node13&#45;&gt;Node24</title>
<path fill="none" stroke="midnightblue" d="M971.29,-74.71C947.21,-72.22 919.61,-69.41 894.5,-67 715.5,-49.8 669.71,-55.06 491.5,-31 482.76,-29.82 473.52,-28.35 464.55,-26.81"/>
<polygon fill="midnightblue" stroke="midnightblue" points="465.02,-23.34 454.57,-25.04 463.8,-30.23 465.02,-23.34"/>
</g>
<!-- Node25 -->
<g id="node25" class="node">
<title>Node25</title>
<g id="a_node25"><a xlink:title=" ">
<polygon fill="none" stroke="#bfbfbf" points="501,-6 501,-25 614,-25 614,-6 501,-6"/>
<text text-anchor="middle" x="557.5" y="-13" font-family="Helvetica,sans-Serif" font-size="10.00">boost/uuid/uuid.hpp</text>
</a>
</g>
</g>
<!-- Node13&#45;&gt;Node25 -->
<g id="edge27" class="edge">
<title>Node13&#45;&gt;Node25</title>
<path fill="none" stroke="midnightblue" d="M971.17,-74.37C872.6,-63.31 688.76,-42.14 623.5,-31 616.9,-29.87 609.95,-28.53 603.15,-27.12"/>
<polygon fill="midnightblue" stroke="midnightblue" points="603.86,-23.69 593.35,-25.02 602.39,-30.53 603.86,-23.69"/>
</g>
<!-- Node26 -->
<g id="node26" class="node">
<title>Node26</title>
<g id="a_node26"><a xlink:title=" ">
<polygon fill="none" stroke="#bfbfbf" points="632.5,-6 632.5,-25 784.5,-25 784.5,-6 632.5,-6"/>
<text text-anchor="middle" x="708.5" y="-13" font-family="Helvetica,sans-Serif" font-size="10.00">impl/hdf5_core_general.hpp</text>
</a>
</g>
</g>
<!-- Node13&#45;&gt;Node26 -->
<g id="edge30" class="edge">
<title>Node13&#45;&gt;Node26</title>
<path fill="none" stroke="midnightblue" d="M971.29,-68.74C910.05,-56.56 818.91,-38.45 761.64,-27.06"/>
<polygon fill="midnightblue" stroke="midnightblue" points="762.2,-23.61 751.71,-25.09 760.83,-30.47 762.2,-23.61"/>
</g>
<!-- Node27&#45;&gt;Node12 -->
<g id="edge32" class="edge">
<title>Node27&#45;&gt;Node12</title>
<path fill="none" stroke="midnightblue" d="M1112.21,-134.4C1145.03,-122.74 1191.1,-106.37 1222.06,-95.38"/>
<polygon fill="midnightblue" stroke="midnightblue" points="1223.3,-98.65 1231.55,-92.01 1220.95,-92.06 1223.3,-98.65"/>
</g>
<!-- Node27&#45;&gt;Node13 -->
<g id="edge34" class="edge">
<title>Node27&#45;&gt;Node13</title>
<path fill="none" stroke="midnightblue" d="M1064.47,-134.4C1059.82,-126.22 1053.84,-115.73 1048.53,-106.39"/>
<polygon fill="midnightblue" stroke="midnightblue" points="1051.5,-104.54 1043.51,-97.58 1045.42,-108 1051.5,-104.54"/>
</g>
<!-- Node27&#45;&gt;Node20 -->
<g id="edge33" class="edge">
<title>Node27&#45;&gt;Node20</title>
<path fill="none" stroke="midnightblue" d="M1083.25,-134.2C1099.65,-112.87 1130.65,-74.4 1146.5,-67 1236.98,-24.75 1946.77,-51.5 2044.5,-31 2047.51,-30.37 2050.59,-29.52 2053.63,-28.54"/>
<polygon fill="midnightblue" stroke="midnightblue" points="2054.84,-31.83 2063.05,-25.12 2052.46,-25.25 2054.84,-31.83"/>
</g>
</g>
</svg>
