<?xml version="1.0" encoding="UTF-8" standalone="no"?>
<!DOCTYPE svg PUBLIC "-//W3C//DTD SVG 1.1//EN"
 "http://www.w3.org/Graphics/SVG/1.1/DTD/svg11.dtd">
<!-- Generated by graphviz version 2.43.0 (0)
 -->
<!-- Title: seerep&#45;ros/seerep_ros_conversions_fb/include/seerep_ros_conversions_fb/conversions.h Pages: 1 -->
<svg width="700pt" height="373pt"
 viewBox="0.00 0.00 700.00 373.00" xmlns="http://www.w3.org/2000/svg" xmlns:xlink="http://www.w3.org/1999/xlink">
<g id="graph0" class="graph" transform="scale(1 1) rotate(0) translate(4 369)">
<title>seerep&#45;ros/seerep_ros_conversions_fb/include/seerep_ros_conversions_fb/conversions.h</title>
<!-- Node1 -->
<g id="node1" class="node">
<title>Node1</title>
<g id="a_node1"><a xlink:title=" ">
<polygon fill="#bfbfbf" stroke="black" points="219,-312.5 219,-364.5 356,-364.5 356,-312.5 219,-312.5"/>
<text text-anchor="start" x="227" y="-352.5" font-family="Helvetica,sans-Serif" font-size="10.00">seerep&#45;ros/seerep_ros</text>
<text text-anchor="start" x="227" y="-341.5" font-family="Helvetica,sans-Serif" font-size="10.00">_conversions_fb/include</text>
<text text-anchor="start" x="227" y="-330.5" font-family="Helvetica,sans-Serif" font-size="10.00">/seerep_ros_conversions</text>
<text text-anchor="middle" x="287.5" y="-319.5" font-family="Helvetica,sans-Serif" font-size="10.00">_fb/conversions.h</text>
</a>
</g>
</g>
<!-- Node2 -->
<g id="node2" class="node">
<title>Node2</title>
<g id="a_node2"><a xlink:href="clientImagesWithDetection_8h.html" target="_top" xlink:title=" ">
<polygon fill="none" stroke="black" points="10,-223.5 10,-275.5 171,-275.5 171,-223.5 10,-223.5"/>
<text text-anchor="start" x="18" y="-263.5" font-family="Helvetica,sans-Serif" font-size="10.00">seerep&#45;ros/seerep_ros</text>
<text text-anchor="start" x="18" y="-252.5" font-family="Helvetica,sans-Serif" font-size="10.00">_communication/include</text>
<text text-anchor="start" x="18" y="-241.5" font-family="Helvetica,sans-Serif" font-size="10.00">/seerep_ros_communication</text>
<text text-anchor="middle" x="90.5" y="-230.5" font-family="Helvetica,sans-Serif" font-size="10.00">/clientImagesWithDetection.h</text>
</a>
</g>
</g>
<!-- Node1&#45;&gt;Node2 -->
<g id="edge1" class="edge">
<title>Node1&#45;&gt;Node2</title>
<path fill="none" stroke="midnightblue" d="M221.37,-308.29C197.3,-297.67 170.33,-285.76 147.16,-275.52"/>
<polygon fill="midnightblue" stroke="midnightblue" points="220.22,-311.61 230.78,-312.45 223.05,-305.21 220.22,-311.61"/>
</g>
<!-- Node4 -->
<g id="node4" class="node">
<title>Node4</title>
<g id="a_node4"><a xlink:href="seerep__ros__conversions__fb_2src_2seerep__ros__conversions__fb_2conversions_8cpp.html" target="_top" xlink:title=" ">
<polygon fill="none" stroke="black" points="189,-229 189,-270 386,-270 386,-229 189,-229"/>
<text text-anchor="start" x="197" y="-258" font-family="Helvetica,sans-Serif" font-size="10.00">seerep&#45;ros/seerep_ros</text>
<text text-anchor="start" x="197" y="-247" font-family="Helvetica,sans-Serif" font-size="10.00">_conversions_fb/src/seerep</text>
<text text-anchor="middle" x="287.5" y="-236" font-family="Helvetica,sans-Serif" font-size="10.00">_ros_conversions_fb/conversions.cpp</text>
</a>
</g>
</g>
<!-- Node1&#45;&gt;Node4 -->
<g id="edge3" class="edge">
<title>Node1&#45;&gt;Node4</title>
<path fill="none" stroke="midnightblue" d="M287.5,-302.16C287.5,-291.21 287.5,-279.55 287.5,-270.08"/>
<polygon fill="midnightblue" stroke="midnightblue" points="284,-302.34 287.5,-312.34 291,-302.34 284,-302.34"/>
</g>
<!-- Node5 -->
<g id="node5" class="node">
<title>Node5</title>
<g id="a_node5"><a xlink:href="core-fb-tf_8h.html" target="_top" xlink:title=" ">
<polygon fill="none" stroke="black" points="404,-229 404,-270 533,-270 533,-229 404,-229"/>
<text text-anchor="start" x="412" y="-258" font-family="Helvetica,sans-Serif" font-size="10.00">seerep&#45;srv/seerep&#45;core</text>
<text text-anchor="start" x="412" y="-247" font-family="Helvetica,sans-Serif" font-size="10.00">&#45;fb/include/seerep&#45;core</text>
<text text-anchor="middle" x="468.5" y="-236" font-family="Helvetica,sans-Serif" font-size="10.00">&#45;fb/core&#45;fb&#45;tf.h</text>
</a>
</g>
</g>
<!-- Node1&#45;&gt;Node5 -->
<g id="edge4" class="edge">
<title>Node1&#45;&gt;Node5</title>
<path fill="none" stroke="midnightblue" d="M348.89,-307.99C374.9,-295.49 404.51,-281.26 427.76,-270.08"/>
<polygon fill="midnightblue" stroke="midnightblue" points="347.35,-304.85 339.85,-312.34 350.38,-311.16 347.35,-304.85"/>
</g>
<!-- Node3 -->
<g id="node3" class="node">
<title>Node3</title>
<g id="a_node3"><a xlink:href="clientImagesWithDetection_8cpp.html" target="_top" xlink:title=" ">
<polygon fill="none" stroke="black" points="0,-145.5 0,-186.5 181,-186.5 181,-145.5 0,-145.5"/>
<text text-anchor="start" x="8" y="-174.5" font-family="Helvetica,sans-Serif" font-size="10.00">seerep&#45;ros/seerep_ros</text>
<text text-anchor="start" x="8" y="-163.5" font-family="Helvetica,sans-Serif" font-size="10.00">_communication/src/clientImages</text>
<text text-anchor="middle" x="90.5" y="-152.5" font-family="Helvetica,sans-Serif" font-size="10.00">WithDetection.cpp</text>
</a>
</g>
</g>
<!-- Node2&#45;&gt;Node3 -->
<g id="edge2" class="edge">
<title>Node2&#45;&gt;Node3</title>
<path fill="none" stroke="midnightblue" d="M90.5,-213.15C90.5,-204.05 90.5,-194.6 90.5,-186.63"/>
<polygon fill="midnightblue" stroke="midnightblue" points="87,-213.16 90.5,-223.16 94,-213.16 87,-213.16"/>
</g>
<!-- Node6 -->
<g id="node6" class="node">
<title>Node6</title>
<g id="a_node6"><a xlink:href="core-fb-tf_8cpp.html" target="_top" xlink:title=" ">
<polygon fill="none" stroke="black" points="328,-151 328,-181 457,-181 457,-151 328,-151"/>
<text text-anchor="start" x="336" y="-169" font-family="Helvetica,sans-Serif" font-size="10.00">seerep&#45;srv/seerep&#45;core</text>
<text text-anchor="middle" x="392.5" y="-158" font-family="Helvetica,sans-Serif" font-size="10.00">&#45;fb/src/core&#45;fb&#45;tf.cpp</text>
</a>
</g>
</g>
<!-- Node5&#45;&gt;Node6 -->
<g id="edge5" class="edge">
<title>Node5&#45;&gt;Node6</title>
<path fill="none" stroke="midnightblue" d="M443.03,-221.18C430.53,-207.78 415.99,-192.19 405.73,-181.18"/>
<polygon fill="midnightblue" stroke="midnightblue" points="440.72,-223.84 450.1,-228.77 445.84,-219.07 440.72,-223.84"/>
</g>
<!-- Node7 -->
<g id="node7" class="node">
<title>Node7</title>
<g id="a_node7"><a xlink:href="fb-tf-service_8h.html" target="_top" xlink:title=" ">
<polygon fill="none" stroke="black" points="475,-145.5 475,-186.5 614,-186.5 614,-145.5 475,-145.5"/>
<text text-anchor="start" x="483" y="-174.5" font-family="Helvetica,sans-Serif" font-size="10.00">seerep&#45;srv/seerep&#45;server</text>
<text text-anchor="start" x="483" y="-163.5" font-family="Helvetica,sans-Serif" font-size="10.00">/include/seerep&#45;server</text>
<text text-anchor="middle" x="544.5" y="-152.5" font-family="Helvetica,sans-Serif" font-size="10.00">/fb&#45;tf&#45;service.h</text>
</a>
</g>
</g>
<!-- Node5&#45;&gt;Node7 -->
<g id="edge6" class="edge">
<title>Node5&#45;&gt;Node7</title>
<path fill="none" stroke="midnightblue" d="M493.95,-221.21C504.54,-209.86 516.59,-196.93 526.27,-186.55"/>
<polygon fill="midnightblue" stroke="midnightblue" points="491.16,-219.07 486.9,-228.77 496.28,-223.84 491.16,-219.07"/>
</g>
<!-- Node8 -->
<g id="node8" class="node">
<title>Node8</title>
<g id="a_node8"><a xlink:href="server_8h.html" target="_top" xlink:title=" ">
<polygon fill="none" stroke="black" points="396,-67.5 396,-108.5 535,-108.5 535,-67.5 396,-67.5"/>
<text text-anchor="start" x="404" y="-96.5" font-family="Helvetica,sans-Serif" font-size="10.00">seerep&#45;srv/seerep&#45;server</text>
<text text-anchor="start" x="404" y="-85.5" font-family="Helvetica,sans-Serif" font-size="10.00">/include/seerep&#45;server</text>
<text text-anchor="middle" x="465.5" y="-74.5" font-family="Helvetica,sans-Serif" font-size="10.00">/server.h</text>
</a>
</g>
</g>
<!-- Node7&#45;&gt;Node8 -->
<g id="edge7" class="edge">
<title>Node7&#45;&gt;Node8</title>
<path fill="none" stroke="midnightblue" d="M516.95,-138.49C506.69,-128.63 495.26,-117.63 485.78,-108.51"/>
<polygon fill="midnightblue" stroke="midnightblue" points="514.52,-141.02 524.16,-145.43 519.38,-135.97 514.52,-141.02"/>
</g>
<!-- Node10 -->
<g id="node10" class="node">
<title>Node10</title>
<g id="a_node10"><a xlink:href="fb-tf-service_8cpp.html" target="_top" xlink:title=" ">
<polygon fill="none" stroke="black" points="553,-73 553,-103 692,-103 692,-73 553,-73"/>
<text text-anchor="start" x="561" y="-91" font-family="Helvetica,sans-Serif" font-size="10.00">seerep&#45;srv/seerep&#45;server</text>
<text text-anchor="middle" x="622.5" y="-80" font-family="Helvetica,sans-Serif" font-size="10.00">/src/fb&#45;tf&#45;service.cpp</text>
</a>
</g>
</g>
<!-- Node7&#45;&gt;Node10 -->
<g id="edge9" class="edge">
<title>Node7&#45;&gt;Node10</title>
<path fill="none" stroke="midnightblue" d="M571.88,-138.32C584.01,-126.51 597.78,-113.08 607.9,-103.23"/>
<polygon fill="midnightblue" stroke="midnightblue" points="569.31,-135.94 564.59,-145.43 574.19,-140.96 569.31,-135.94"/>
</g>
<!-- Node9 -->
<g id="node9" class="node">
<title>Node9</title>
<g id="a_node9"><a xlink:href="server_8cpp.html" target="_top" xlink:title=" ">
<polygon fill="none" stroke="black" points="396,-0.5 396,-30.5 535,-30.5 535,-0.5 396,-0.5"/>
<text text-anchor="start" x="404" y="-18.5" font-family="Helvetica,sans-Serif" font-size="10.00">seerep&#45;srv/seerep&#45;server</text>
<text text-anchor="middle" x="465.5" y="-7.5" font-family="Helvetica,sans-Serif" font-size="10.00">/src/server.cpp</text>
</a>
</g>
</g>
<!-- Node8&#45;&gt;Node9 -->
<g id="edge8" class="edge">
<title>Node8&#45;&gt;Node9</title>
<path fill="none" stroke="midnightblue" d="M465.5,-57.08C465.5,-48.01 465.5,-38.45 465.5,-30.89"/>
<polygon fill="midnightblue" stroke="midnightblue" points="462,-57.36 465.5,-67.36 469,-57.36 462,-57.36"/>
</g>
</g>
</svg>
