<?xml version="1.0" encoding="UTF-8" standalone="no"?>
<!DOCTYPE svg PUBLIC "-//W3C//DTD SVG 1.1//EN"
 "http://www.w3.org/Graphics/SVG/1.1/DTD/svg11.dtd">
<!-- Generated by graphviz version 2.43.0 (0)
 -->
<!-- Title: seerep_ros/seerep_ros_conversions_pb/include/seerep_ros_conversions_pb/conversions.h Pages: 1 -->
<svg width="521pt" height="362pt"
 viewBox="0.00 0.00 521.00 362.00" xmlns="http://www.w3.org/2000/svg" xmlns:xlink="http://www.w3.org/1999/xlink">
<g id="graph0" class="graph" transform="scale(1 1) rotate(0) translate(4 358)">
<title>seerep_ros/seerep_ros_conversions_pb/include/seerep_ros_conversions_pb/conversions.h</title>
<!-- Node1 -->
<g id="node1" class="node">
<title>Node1</title>
<g id="a_node1"><a xlink:title=" ">
<polygon fill="#bfbfbf" stroke="black" points="123.5,-301.5 123.5,-353.5 260.5,-353.5 260.5,-301.5 123.5,-301.5"/>
<text text-anchor="start" x="131.5" y="-341.5" font-family="Helvetica,sans-Serif" font-size="10.00">seerep_ros/seerep_ros</text>
<text text-anchor="start" x="131.5" y="-330.5" font-family="Helvetica,sans-Serif" font-size="10.00">_conversions_pb/include</text>
<text text-anchor="start" x="131.5" y="-319.5" font-family="Helvetica,sans-Serif" font-size="10.00">/seerep_ros_conversions</text>
<text text-anchor="middle" x="192" y="-308.5" font-family="Helvetica,sans-Serif" font-size="10.00">_pb/conversions.h</text>
</a>
</g>
</g>
<!-- Node2 -->
<g id="node2" class="node">
<title>Node2</title>
<g id="a_node2"><a xlink:href="seerep__ros__conversions__pb_2src_2seerep__ros__conversions__pb_2conversions_8cpp.html" target="_top" xlink:title=" ">
<polygon fill="none" stroke="black" points="0,-223.5 0,-264.5 200,-264.5 200,-223.5 0,-223.5"/>
<text text-anchor="start" x="8" y="-252.5" font-family="Helvetica,sans-Serif" font-size="10.00">seerep_ros/seerep_ros</text>
<text text-anchor="start" x="8" y="-241.5" font-family="Helvetica,sans-Serif" font-size="10.00">_conversions_pb/src/seerep</text>
<text text-anchor="middle" x="100" y="-230.5" font-family="Helvetica,sans-Serif" font-size="10.00">_ros_conversions_pb/conversions.cpp</text>
</a>
</g>
</g>
<!-- Node1&#45;&gt;Node2 -->
<g id="edge1" class="edge">
<title>Node1&#45;&gt;Node2</title>
<path fill="none" stroke="midnightblue" d="M155.95,-294.57C144.59,-284.5 132.38,-273.69 122.28,-264.73"/>
<polygon fill="midnightblue" stroke="midnightblue" points="153.84,-297.37 163.65,-301.38 158.48,-292.13 153.84,-297.37"/>
</g>
<!-- Node3 -->
<g id="node3" class="node">
<title>Node3</title>
<g id="a_node3"><a xlink:href="core__pb__tf_8h.html" target="_top" xlink:title=" ">
<polygon fill="none" stroke="black" points="218,-223.5 218,-264.5 352,-264.5 352,-223.5 218,-223.5"/>
<text text-anchor="start" x="226" y="-252.5" font-family="Helvetica,sans-Serif" font-size="10.00">seerep_srv/seerep_core</text>
<text text-anchor="start" x="226" y="-241.5" font-family="Helvetica,sans-Serif" font-size="10.00">_pb/include/seerep_core</text>
<text text-anchor="middle" x="285" y="-230.5" font-family="Helvetica,sans-Serif" font-size="10.00">_pb/core_pb_tf.h</text>
</a>
</g>
</g>
<!-- Node1&#45;&gt;Node3 -->
<g id="edge2" class="edge">
<title>Node1&#45;&gt;Node3</title>
<path fill="none" stroke="midnightblue" d="M228.44,-294.57C239.92,-284.5 252.26,-273.69 262.48,-264.73"/>
<polygon fill="midnightblue" stroke="midnightblue" points="225.88,-292.16 220.66,-301.38 230.49,-297.42 225.88,-292.16"/>
</g>
<!-- Node4 -->
<g id="node4" class="node">
<title>Node4</title>
<g id="a_node4"><a xlink:href="core__pb__tf_8cpp.html" target="_top" xlink:title=" ">
<polygon fill="none" stroke="black" points="141,-151 141,-181 273,-181 273,-151 141,-151"/>
<text text-anchor="start" x="149" y="-169" font-family="Helvetica,sans-Serif" font-size="10.00">seerep_srv/seerep_core</text>
<text text-anchor="middle" x="207" y="-158" font-family="Helvetica,sans-Serif" font-size="10.00">_pb/src/core_pb_tf.cpp</text>
</a>
</g>
</g>
<!-- Node3&#45;&gt;Node4 -->
<g id="edge3" class="edge">
<title>Node3&#45;&gt;Node4</title>
<path fill="none" stroke="midnightblue" d="M257.62,-216.32C245.49,-204.51 231.72,-191.08 221.6,-181.23"/>
<polygon fill="midnightblue" stroke="midnightblue" points="255.31,-218.96 264.91,-223.43 260.19,-213.94 255.31,-218.96"/>
</g>
<!-- Node5 -->
<g id="node5" class="node">
<title>Node5</title>
<g id="a_node5"><a xlink:href="pb__tf__service_8h.html" target="_top" xlink:title=" ">
<polygon fill="none" stroke="black" points="291,-145.5 291,-186.5 433,-186.5 433,-145.5 291,-145.5"/>
<text text-anchor="start" x="299" y="-174.5" font-family="Helvetica,sans-Serif" font-size="10.00">seerep_srv/seerep_server</text>
<text text-anchor="start" x="299" y="-163.5" font-family="Helvetica,sans-Serif" font-size="10.00">/include/seerep_server</text>
<text text-anchor="middle" x="362" y="-152.5" font-family="Helvetica,sans-Serif" font-size="10.00">/pb_tf_service.h</text>
</a>
</g>
</g>
<!-- Node3&#45;&gt;Node5 -->
<g id="edge4" class="edge">
<title>Node3&#45;&gt;Node5</title>
<path fill="none" stroke="midnightblue" d="M312.15,-216.2C322.07,-206.42 333.09,-195.54 342.24,-186.51"/>
<polygon fill="midnightblue" stroke="midnightblue" points="309.49,-213.91 304.83,-223.43 314.41,-218.89 309.49,-213.91"/>
</g>
<!-- Node6 -->
<g id="node6" class="node">
<title>Node6</title>
<g id="a_node6"><a xlink:href="server_8h.html" target="_top" xlink:title=" ">
<polygon fill="none" stroke="black" points="211,-67.5 211,-108.5 353,-108.5 353,-67.5 211,-67.5"/>
<text text-anchor="start" x="219" y="-96.5" font-family="Helvetica,sans-Serif" font-size="10.00">seerep_srv/seerep_server</text>
<text text-anchor="start" x="219" y="-85.5" font-family="Helvetica,sans-Serif" font-size="10.00">/include/seerep_server</text>
<text text-anchor="middle" x="282" y="-74.5" font-family="Helvetica,sans-Serif" font-size="10.00">/server.h</text>
</a>
</g>
</g>
<!-- Node5&#45;&gt;Node6 -->
<g id="edge5" class="edge">
<title>Node5&#45;&gt;Node6</title>
<path fill="none" stroke="midnightblue" d="M334.1,-138.49C323.72,-128.63 312.13,-117.63 302.53,-108.51"/>
<polygon fill="midnightblue" stroke="midnightblue" points="331.74,-141.08 341.4,-145.43 336.56,-136 331.74,-141.08"/>
</g>
<!-- Node8 -->
<g id="node8" class="node">
<title>Node8</title>
<g id="a_node8"><a xlink:href="pb__tf__service_8cpp.html" target="_top" xlink:title=" ">
<polygon fill="none" stroke="black" points="371,-73 371,-103 513,-103 513,-73 371,-73"/>
<text text-anchor="start" x="379" y="-91" font-family="Helvetica,sans-Serif" font-size="10.00">seerep_srv/seerep_server</text>
<text text-anchor="middle" x="442" y="-80" font-family="Helvetica,sans-Serif" font-size="10.00">/src/pb_tf_service.cpp</text>
</a>
</g>
</g>
<!-- Node5&#45;&gt;Node8 -->
<g id="edge7" class="edge">
<title>Node5&#45;&gt;Node8</title>
<path fill="none" stroke="midnightblue" d="M390.08,-138.32C402.52,-126.51 416.65,-113.08 427.03,-103.23"/>
<polygon fill="midnightblue" stroke="midnightblue" points="387.44,-136 382.6,-145.43 392.26,-141.08 387.44,-136"/>
</g>
<!-- Node7 -->
<g id="node7" class="node">
<title>Node7</title>
<g id="a_node7"><a xlink:href="server_8cpp.html" target="_top" xlink:title=" ">
<polygon fill="none" stroke="black" points="211,-0.5 211,-30.5 353,-30.5 353,-0.5 211,-0.5"/>
<text text-anchor="start" x="219" y="-18.5" font-family="Helvetica,sans-Serif" font-size="10.00">seerep_srv/seerep_server</text>
<text text-anchor="middle" x="282" y="-7.5" font-family="Helvetica,sans-Serif" font-size="10.00">/src/server.cpp</text>
</a>
</g>
</g>
<!-- Node6&#45;&gt;Node7 -->
<g id="edge6" class="edge">
<title>Node6&#45;&gt;Node7</title>
<path fill="none" stroke="midnightblue" d="M282,-57.08C282,-48.01 282,-38.45 282,-30.89"/>
<polygon fill="midnightblue" stroke="midnightblue" points="278.5,-57.36 282,-67.36 285.5,-57.36 278.5,-57.36"/>
</g>
</g>
</svg>
