<?xml version="1.0" encoding="UTF-8" standalone="no"?>
<!DOCTYPE svg PUBLIC "-//W3C//DTD SVG 1.1//EN"
 "http://www.w3.org/Graphics/SVG/1.1/DTD/svg11.dtd">
<!-- Generated by graphviz version 2.43.0 (0)
 -->
<!-- Title: seerep&#45;ros/seerep_ros_conversions_pb/include/seerep_ros_conversions_pb/conversions.h Pages: 1 -->
<svg width="517pt" height="362pt"
 viewBox="0.00 0.00 516.50 362.00" xmlns="http://www.w3.org/2000/svg" xmlns:xlink="http://www.w3.org/1999/xlink">
<g id="graph0" class="graph" transform="scale(1 1) rotate(0) translate(4 358)">
<title>seerep&#45;ros/seerep_ros_conversions_pb/include/seerep_ros_conversions_pb/conversions.h</title>
<!-- Node1 -->
<g id="node1" class="node">
<title>Node1</title>
<g id="a_node1"><a xlink:title=" ">
<polygon fill="#bfbfbf" stroke="black" points="123.5,-301.5 123.5,-353.5 260.5,-353.5 260.5,-301.5 123.5,-301.5"/>
<text text-anchor="start" x="131.5" y="-341.5" font-family="Helvetica,sans-Serif" font-size="10.00">seerep&#45;ros/seerep_ros</text>
<text text-anchor="start" x="131.5" y="-330.5" font-family="Helvetica,sans-Serif" font-size="10.00">_conversions_pb/include</text>
<text text-anchor="start" x="131.5" y="-319.5" font-family="Helvetica,sans-Serif" font-size="10.00">/seerep_ros_conversions</text>
<text text-anchor="middle" x="192" y="-308.5" font-family="Helvetica,sans-Serif" font-size="10.00">_pb/conversions.h</text>
</a>
</g>
</g>
<!-- Node2 -->
<g id="node2" class="node">
<title>Node2</title>
<g id="a_node2"><a xlink:href="seerep__ros__conversions__pb_2src_2seerep__ros__conversions__pb_2conversions_8cpp.html" target="_top" xlink:title=" ">
<polygon fill="none" stroke="black" points="0,-223.5 0,-264.5 200,-264.5 200,-223.5 0,-223.5"/>
<text text-anchor="start" x="8" y="-252.5" font-family="Helvetica,sans-Serif" font-size="10.00">seerep&#45;ros/seerep_ros</text>
<text text-anchor="start" x="8" y="-241.5" font-family="Helvetica,sans-Serif" font-size="10.00">_conversions_pb/src/seerep</text>
<text text-anchor="middle" x="100" y="-230.5" font-family="Helvetica,sans-Serif" font-size="10.00">_ros_conversions_pb/conversions.cpp</text>
</a>
</g>
</g>
<!-- Node1&#45;&gt;Node2 -->
<g id="edge1" class="edge">
<title>Node1&#45;&gt;Node2</title>
<path fill="none" stroke="midnightblue" d="M155.95,-294.57C144.59,-284.5 132.38,-273.69 122.28,-264.73"/>
<polygon fill="midnightblue" stroke="midnightblue" points="153.84,-297.37 163.65,-301.38 158.48,-292.13 153.84,-297.37"/>
</g>
<!-- Node3 -->
<g id="node3" class="node">
<title>Node3</title>
<g id="a_node3"><a xlink:href="core-pb-tf_8h.html" target="_top" xlink:title=" ">
<polygon fill="none" stroke="black" points="218.5,-223.5 218.5,-264.5 349.5,-264.5 349.5,-223.5 218.5,-223.5"/>
<text text-anchor="start" x="226.5" y="-252.5" font-family="Helvetica,sans-Serif" font-size="10.00">seerep&#45;srv/seerep&#45;core</text>
<text text-anchor="start" x="226.5" y="-241.5" font-family="Helvetica,sans-Serif" font-size="10.00">&#45;pb/include/seerep&#45;core</text>
<text text-anchor="middle" x="284" y="-230.5" font-family="Helvetica,sans-Serif" font-size="10.00">&#45;pb/core&#45;pb&#45;tf.h</text>
</a>
</g>
</g>
<!-- Node1&#45;&gt;Node3 -->
<g id="edge2" class="edge">
<title>Node1&#45;&gt;Node3</title>
<path fill="none" stroke="midnightblue" d="M228.05,-294.57C239.41,-284.5 251.62,-273.69 261.72,-264.73"/>
<polygon fill="midnightblue" stroke="midnightblue" points="225.52,-292.13 220.35,-301.38 230.16,-297.37 225.52,-292.13"/>
</g>
<!-- Node4 -->
<g id="node4" class="node">
<title>Node4</title>
<g id="a_node4"><a xlink:href="core-pb-tf_8cpp.html" target="_top" xlink:title=" ">
<polygon fill="none" stroke="black" points="143.5,-151 143.5,-181 272.5,-181 272.5,-151 143.5,-151"/>
<text text-anchor="start" x="151.5" y="-169" font-family="Helvetica,sans-Serif" font-size="10.00">seerep&#45;srv/seerep&#45;core</text>
<text text-anchor="middle" x="208" y="-158" font-family="Helvetica,sans-Serif" font-size="10.00">&#45;pb/src/core&#45;pb&#45;tf.cpp</text>
</a>
</g>
</g>
<!-- Node3&#45;&gt;Node4 -->
<g id="edge3" class="edge">
<title>Node3&#45;&gt;Node4</title>
<path fill="none" stroke="midnightblue" d="M257.32,-216.32C245.51,-204.51 232.08,-191.08 222.23,-181.23"/>
<polygon fill="midnightblue" stroke="midnightblue" points="254.88,-218.83 264.43,-223.43 259.83,-213.88 254.88,-218.83"/>
</g>
<!-- Node5 -->
<g id="node5" class="node">
<title>Node5</title>
<g id="a_node5"><a xlink:href="pb-tf-service_8h.html" target="_top" xlink:title=" ">
<polygon fill="none" stroke="black" points="290.5,-145.5 290.5,-186.5 429.5,-186.5 429.5,-145.5 290.5,-145.5"/>
<text text-anchor="start" x="298.5" y="-174.5" font-family="Helvetica,sans-Serif" font-size="10.00">seerep&#45;srv/seerep&#45;server</text>
<text text-anchor="start" x="298.5" y="-163.5" font-family="Helvetica,sans-Serif" font-size="10.00">/include/seerep&#45;server</text>
<text text-anchor="middle" x="360" y="-152.5" font-family="Helvetica,sans-Serif" font-size="10.00">/pb&#45;tf&#45;service.h</text>
</a>
</g>
</g>
<!-- Node3&#45;&gt;Node5 -->
<g id="edge4" class="edge">
<title>Node3&#45;&gt;Node5</title>
<path fill="none" stroke="midnightblue" d="M310.8,-216.2C320.58,-206.42 331.46,-195.54 340.49,-186.51"/>
<polygon fill="midnightblue" stroke="midnightblue" points="308.17,-213.88 303.57,-223.43 313.12,-218.83 308.17,-213.88"/>
</g>
<!-- Node6 -->
<g id="node6" class="node">
<title>Node6</title>
<g id="a_node6"><a xlink:href="server_8h.html" target="_top" xlink:title=" ">
<polygon fill="none" stroke="black" points="212.5,-67.5 212.5,-108.5 351.5,-108.5 351.5,-67.5 212.5,-67.5"/>
<text text-anchor="start" x="220.5" y="-96.5" font-family="Helvetica,sans-Serif" font-size="10.00">seerep&#45;srv/seerep&#45;server</text>
<text text-anchor="start" x="220.5" y="-85.5" font-family="Helvetica,sans-Serif" font-size="10.00">/include/seerep&#45;server</text>
<text text-anchor="middle" x="282" y="-74.5" font-family="Helvetica,sans-Serif" font-size="10.00">/server.h</text>
</a>
</g>
</g>
<!-- Node5&#45;&gt;Node6 -->
<g id="edge5" class="edge">
<title>Node5&#45;&gt;Node6</title>
<path fill="none" stroke="midnightblue" d="M332.5,-138.2C322.45,-128.42 311.29,-117.54 302.02,-108.51"/>
<polygon fill="midnightblue" stroke="midnightblue" points="330.31,-140.96 339.91,-145.43 335.19,-135.94 330.31,-140.96"/>
</g>
<!-- Node8 -->
<g id="node8" class="node">
<title>Node8</title>
<g id="a_node8"><a xlink:href="pb-tf-service_8cpp.html" target="_top" xlink:title=" ">
<polygon fill="none" stroke="black" points="369.5,-73 369.5,-103 508.5,-103 508.5,-73 369.5,-73"/>
<text text-anchor="start" x="377.5" y="-91" font-family="Helvetica,sans-Serif" font-size="10.00">seerep&#45;srv/seerep&#45;server</text>
<text text-anchor="middle" x="439" y="-80" font-family="Helvetica,sans-Serif" font-size="10.00">/src/pb&#45;tf&#45;service.cpp</text>
</a>
</g>
</g>
<!-- Node5&#45;&gt;Node8 -->
<g id="edge7" class="edge">
<title>Node5&#45;&gt;Node8</title>
<path fill="none" stroke="midnightblue" d="M387.73,-138.32C400.01,-126.51 413.97,-113.08 424.21,-103.23"/>
<polygon fill="midnightblue" stroke="midnightblue" points="385.12,-135.97 380.34,-145.43 389.98,-141.02 385.12,-135.97"/>
</g>
<!-- Node7 -->
<g id="node7" class="node">
<title>Node7</title>
<g id="a_node7"><a xlink:href="server_8cpp.html" target="_top" xlink:title=" ">
<polygon fill="none" stroke="black" points="212.5,-0.5 212.5,-30.5 351.5,-30.5 351.5,-0.5 212.5,-0.5"/>
<text text-anchor="start" x="220.5" y="-18.5" font-family="Helvetica,sans-Serif" font-size="10.00">seerep&#45;srv/seerep&#45;server</text>
<text text-anchor="middle" x="282" y="-7.5" font-family="Helvetica,sans-Serif" font-size="10.00">/src/server.cpp</text>
</a>
</g>
</g>
<!-- Node6&#45;&gt;Node7 -->
<g id="edge6" class="edge">
<title>Node6&#45;&gt;Node7</title>
<path fill="none" stroke="midnightblue" d="M282,-57.08C282,-48.01 282,-38.45 282,-30.89"/>
<polygon fill="midnightblue" stroke="midnightblue" points="278.5,-57.36 282,-67.36 285.5,-57.36 278.5,-57.36"/>
</g>
</g>
</svg>
