<?xml version="1.0" encoding="UTF-8" standalone="no"?>
<!DOCTYPE svg PUBLIC "-//W3C//DTD SVG 1.1//EN"
 "http://www.w3.org/Graphics/SVG/1.1/DTD/svg11.dtd">
<!-- Generated by graphviz version 2.43.0 (0)
 -->
<!-- Title: seerep_ros/seerep_ros_conversions_fb/include/seerep_ros_conversions_fb/conversions.h Pages: 1 -->
<svg width="663pt" height="373pt"
 viewBox="0.00 0.00 662.50 373.00" xmlns="http://www.w3.org/2000/svg" xmlns:xlink="http://www.w3.org/1999/xlink">
<g id="graph0" class="graph" transform="scale(1 1) rotate(0) translate(4 369)">
<title>seerep_ros/seerep_ros_conversions_fb/include/seerep_ros_conversions_fb/conversions.h</title>
<!-- Node1 -->
<g id="node1" class="node">
<title>Node1</title>
<g id="a_node1"><a xlink:title=" ">
<polygon fill="#bfbfbf" stroke="black" points="210,-312.5 210,-364.5 347,-364.5 347,-312.5 210,-312.5"/>
<text text-anchor="start" x="218" y="-352.5" font-family="Helvetica,sans-Serif" font-size="10.00">seerep_ros/seerep_ros</text>
<text text-anchor="start" x="218" y="-341.5" font-family="Helvetica,sans-Serif" font-size="10.00">_conversions_fb/include</text>
<text text-anchor="start" x="218" y="-330.5" font-family="Helvetica,sans-Serif" font-size="10.00">/seerep_ros_conversions</text>
<text text-anchor="middle" x="278.5" y="-319.5" font-family="Helvetica,sans-Serif" font-size="10.00">_fb/conversions.h</text>
</a>
</g>
</g>
<!-- Node2 -->
<g id="node2" class="node">
<title>Node2</title>
<g id="a_node2"><a xlink:href="seerep__ros__conversions__fb_2src_2seerep__ros__conversions__fb_2conversions_8cpp.html" target="_top" xlink:title=" ">
<polygon fill="none" stroke="black" points="0,-229 0,-270 197,-270 197,-229 0,-229"/>
<text text-anchor="start" x="8" y="-258" font-family="Helvetica,sans-Serif" font-size="10.00">seerep_ros/seerep_ros</text>
<text text-anchor="start" x="8" y="-247" font-family="Helvetica,sans-Serif" font-size="10.00">_conversions_fb/src/seerep</text>
<text text-anchor="middle" x="98.5" y="-236" font-family="Helvetica,sans-Serif" font-size="10.00">_ros_conversions_fb/conversions.cpp</text>
</a>
</g>
</g>
<!-- Node1&#45;&gt;Node2 -->
<g id="edge1" class="edge">
<title>Node1&#45;&gt;Node2</title>
<path fill="none" stroke="midnightblue" d="M217.11,-307.83C191.32,-295.36 162.03,-281.21 139.01,-270.08"/>
<polygon fill="midnightblue" stroke="midnightblue" points="215.91,-311.14 226.44,-312.34 218.96,-304.83 215.91,-311.14"/>
</g>
<!-- Node3 -->
<g id="node3" class="node">
<title>Node3</title>
<g id="a_node3"><a xlink:href="ros__to__fb__conversion__test_8cpp.html" target="_top" xlink:title=" ">
<polygon fill="none" stroke="black" points="215.5,-223.5 215.5,-275.5 341.5,-275.5 341.5,-223.5 215.5,-223.5"/>
<text text-anchor="start" x="223.5" y="-263.5" font-family="Helvetica,sans-Serif" font-size="10.00">seerep_ros/seerep_ros</text>
<text text-anchor="start" x="223.5" y="-252.5" font-family="Helvetica,sans-Serif" font-size="10.00">_conversions_fb/test</text>
<text text-anchor="start" x="223.5" y="-241.5" font-family="Helvetica,sans-Serif" font-size="10.00">/ros_to_fb_conversion</text>
<text text-anchor="middle" x="278.5" y="-230.5" font-family="Helvetica,sans-Serif" font-size="10.00">_test.cpp</text>
</a>
</g>
</g>
<!-- Node1&#45;&gt;Node3 -->
<g id="edge2" class="edge">
<title>Node1&#45;&gt;Node3</title>
<path fill="none" stroke="midnightblue" d="M278.5,-302.19C278.5,-293.28 278.5,-283.9 278.5,-275.61"/>
<polygon fill="midnightblue" stroke="midnightblue" points="275,-302.34 278.5,-312.34 282,-302.34 275,-302.34"/>
</g>
<!-- Node4 -->
<g id="node4" class="node">
<title>Node4</title>
<g id="a_node4"><a xlink:href="core__fb__tf_8h.html" target="_top" xlink:title=" ">
<polygon fill="none" stroke="black" points="359.5,-229 359.5,-270 491.5,-270 491.5,-229 359.5,-229"/>
<text text-anchor="start" x="367.5" y="-258" font-family="Helvetica,sans-Serif" font-size="10.00">seerep_srv/seerep_core</text>
<text text-anchor="start" x="367.5" y="-247" font-family="Helvetica,sans-Serif" font-size="10.00">_fb/include/seerep_core</text>
<text text-anchor="middle" x="425.5" y="-236" font-family="Helvetica,sans-Serif" font-size="10.00">_fb/core_fb_tf.h</text>
</a>
</g>
</g>
<!-- Node1&#45;&gt;Node4 -->
<g id="edge3" class="edge">
<title>Node1&#45;&gt;Node4</title>
<path fill="none" stroke="midnightblue" d="M329.74,-307.17C350.53,-294.87 373.94,-281.01 392.41,-270.08"/>
<polygon fill="midnightblue" stroke="midnightblue" points="327.84,-304.23 321.02,-312.34 331.41,-310.25 327.84,-304.23"/>
</g>
<!-- Node5 -->
<g id="node5" class="node">
<title>Node5</title>
<g id="a_node5"><a xlink:href="core__fb__tf_8cpp.html" target="_top" xlink:title=" ">
<polygon fill="none" stroke="black" points="282.5,-151 282.5,-181 414.5,-181 414.5,-151 282.5,-151"/>
<text text-anchor="start" x="290.5" y="-169" font-family="Helvetica,sans-Serif" font-size="10.00">seerep_srv/seerep_core</text>
<text text-anchor="middle" x="348.5" y="-158" font-family="Helvetica,sans-Serif" font-size="10.00">_fb/src/core_fb_tf.cpp</text>
</a>
</g>
</g>
<!-- Node4&#45;&gt;Node5 -->
<g id="edge4" class="edge">
<title>Node4&#45;&gt;Node5</title>
<path fill="none" stroke="midnightblue" d="M399.69,-221.18C387.03,-207.78 372.3,-192.19 361.9,-181.18"/>
<polygon fill="midnightblue" stroke="midnightblue" points="397.45,-223.91 406.86,-228.77 402.54,-219.1 397.45,-223.91"/>
</g>
<!-- Node6 -->
<g id="node6" class="node">
<title>Node6</title>
<g id="a_node6"><a xlink:href="fb__tf__service_8h.html" target="_top" xlink:title=" ">
<polygon fill="none" stroke="black" points="432.5,-145.5 432.5,-186.5 574.5,-186.5 574.5,-145.5 432.5,-145.5"/>
<text text-anchor="start" x="440.5" y="-174.5" font-family="Helvetica,sans-Serif" font-size="10.00">seerep_srv/seerep_server</text>
<text text-anchor="start" x="440.5" y="-163.5" font-family="Helvetica,sans-Serif" font-size="10.00">/include/seerep_server</text>
<text text-anchor="middle" x="503.5" y="-152.5" font-family="Helvetica,sans-Serif" font-size="10.00">/fb_tf_service.h</text>
</a>
</g>
</g>
<!-- Node4&#45;&gt;Node6 -->
<g id="edge5" class="edge">
<title>Node4&#45;&gt;Node6</title>
<path fill="none" stroke="midnightblue" d="M451.3,-221.54C462.25,-210.1 474.76,-197.03 484.79,-186.55"/>
<polygon fill="midnightblue" stroke="midnightblue" points="448.77,-219.13 444.38,-228.77 453.82,-223.97 448.77,-219.13"/>
</g>
<!-- Node7 -->
<g id="node7" class="node">
<title>Node7</title>
<g id="a_node7"><a xlink:href="server_8h.html" target="_top" xlink:title=" ">
<polygon fill="none" stroke="black" points="352.5,-67.5 352.5,-108.5 494.5,-108.5 494.5,-67.5 352.5,-67.5"/>
<text text-anchor="start" x="360.5" y="-96.5" font-family="Helvetica,sans-Serif" font-size="10.00">seerep_srv/seerep_server</text>
<text text-anchor="start" x="360.5" y="-85.5" font-family="Helvetica,sans-Serif" font-size="10.00">/include/seerep_server</text>
<text text-anchor="middle" x="423.5" y="-74.5" font-family="Helvetica,sans-Serif" font-size="10.00">/server.h</text>
</a>
</g>
</g>
<!-- Node6&#45;&gt;Node7 -->
<g id="edge6" class="edge">
<title>Node6&#45;&gt;Node7</title>
<path fill="none" stroke="midnightblue" d="M475.6,-138.49C465.22,-128.63 453.63,-117.63 444.03,-108.51"/>
<polygon fill="midnightblue" stroke="midnightblue" points="473.24,-141.08 482.9,-145.43 478.06,-136 473.24,-141.08"/>
</g>
<!-- Node9 -->
<g id="node9" class="node">
<title>Node9</title>
<g id="a_node9"><a xlink:href="fb__tf__service_8cpp.html" target="_top" xlink:title=" ">
<polygon fill="none" stroke="black" points="512.5,-73 512.5,-103 654.5,-103 654.5,-73 512.5,-73"/>
<text text-anchor="start" x="520.5" y="-91" font-family="Helvetica,sans-Serif" font-size="10.00">seerep_srv/seerep_server</text>
<text text-anchor="middle" x="583.5" y="-80" font-family="Helvetica,sans-Serif" font-size="10.00">/src/fb_tf_service.cpp</text>
</a>
</g>
</g>
<!-- Node6&#45;&gt;Node9 -->
<g id="edge8" class="edge">
<title>Node6&#45;&gt;Node9</title>
<path fill="none" stroke="midnightblue" d="M531.58,-138.32C544.02,-126.51 558.15,-113.08 568.53,-103.23"/>
<polygon fill="midnightblue" stroke="midnightblue" points="528.94,-136 524.1,-145.43 533.76,-141.08 528.94,-136"/>
</g>
<!-- Node8 -->
<g id="node8" class="node">
<title>Node8</title>
<g id="a_node8"><a xlink:href="server_8cpp.html" target="_top" xlink:title=" ">
<polygon fill="none" stroke="black" points="352.5,-0.5 352.5,-30.5 494.5,-30.5 494.5,-0.5 352.5,-0.5"/>
<text text-anchor="start" x="360.5" y="-18.5" font-family="Helvetica,sans-Serif" font-size="10.00">seerep_srv/seerep_server</text>
<text text-anchor="middle" x="423.5" y="-7.5" font-family="Helvetica,sans-Serif" font-size="10.00">/src/server.cpp</text>
</a>
</g>
</g>
<!-- Node7&#45;&gt;Node8 -->
<g id="edge7" class="edge">
<title>Node7&#45;&gt;Node8</title>
<path fill="none" stroke="midnightblue" d="M423.5,-57.08C423.5,-48.01 423.5,-38.45 423.5,-30.89"/>
<polygon fill="midnightblue" stroke="midnightblue" points="420,-57.36 423.5,-67.36 427,-57.36 420,-57.36"/>
</g>
</g>
</svg>
