<?xml version="1.0" encoding="UTF-8" standalone="no"?>
<!DOCTYPE svg PUBLIC "-//W3C//DTD SVG 1.1//EN"
 "http://www.w3.org/Graphics/SVG/1.1/DTD/svg11.dtd">
<!-- Generated by graphviz version 2.43.0 (0)
 -->
<!-- Title: seerep_ros/seerep_ros_conversions_fb/src/seerep_ros_conversions_fb/conversions.cpp Pages: 1 -->
<svg width="2708pt" height="184pt"
 viewBox="0.00 0.00 2707.50 184.00" xmlns="http://www.w3.org/2000/svg" xmlns:xlink="http://www.w3.org/1999/xlink">
<g id="graph0" class="graph" transform="scale(1 1) rotate(0) translate(4 180)">
<title>seerep_ros/seerep_ros_conversions_fb/src/seerep_ros_conversions_fb/conversions.cpp</title>
<!-- Node1 -->
<g id="node1" class="node">
<title>Node1</title>
<g id="a_node1"><a xlink:title=" ">
<polygon fill="#bfbfbf" stroke="black" points="1284.5,-134.5 1284.5,-175.5 1481.5,-175.5 1481.5,-134.5 1284.5,-134.5"/>
<text text-anchor="start" x="1292.5" y="-163.5" font-family="Helvetica,sans-Serif" font-size="10.00">seerep_ros/seerep_ros</text>
<text text-anchor="start" x="1292.5" y="-152.5" font-family="Helvetica,sans-Serif" font-size="10.00">_conversions_fb/src/seerep</text>
<text text-anchor="middle" x="1383" y="-141.5" font-family="Helvetica,sans-Serif" font-size="10.00">_ros_conversions_fb/conversions.cpp</text>
</a>
</g>
</g>
<!-- Node2 -->
<g id="node2" class="node">
<title>Node2</title>
<g id="a_node2"><a xlink:href="seerep__ros__conversions__fb_2include_2seerep__ros__conversions__fb_2conversions_8h.html" target="_top" xlink:title=" ">
<polygon fill="none" stroke="black" points="1316,-67.5 1316,-97.5 1450,-97.5 1450,-67.5 1316,-67.5"/>
<text text-anchor="start" x="1324" y="-85.5" font-family="Helvetica,sans-Serif" font-size="10.00">seerep_ros_conversions</text>
<text text-anchor="middle" x="1383" y="-74.5" font-family="Helvetica,sans-Serif" font-size="10.00">_fb/conversions.h</text>
</a>
</g>
</g>
<!-- Node1&#45;&gt;Node2 -->
<g id="edge1" class="edge">
<title>Node1&#45;&gt;Node2</title>
<path fill="none" stroke="midnightblue" d="M1383,-134.36C1383,-126.23 1383,-116.7 1383,-108.11"/>
<polygon fill="midnightblue" stroke="midnightblue" points="1386.5,-107.89 1383,-97.89 1379.5,-107.89 1386.5,-107.89"/>
</g>
<!-- Node3 -->
<g id="node3" class="node">
<title>Node3</title>
<g id="a_node3"><a xlink:title=" ">
<polygon fill="none" stroke="#bfbfbf" points="0,-6 0,-25 200,-25 200,-6 0,-6"/>
<text text-anchor="middle" x="100" y="-13" font-family="Helvetica,sans-Serif" font-size="10.00">geometry_msgs/TransformStamped.h</text>
</a>
</g>
</g>
<!-- Node2&#45;&gt;Node3 -->
<g id="edge2" class="edge">
<title>Node2&#45;&gt;Node3</title>
<path fill="none" stroke="midnightblue" d="M1315.69,-80.71C1135.79,-78.13 628.91,-67.89 209,-31 195.3,-29.8 180.69,-28.12 166.75,-26.34"/>
<polygon fill="midnightblue" stroke="midnightblue" points="167.12,-22.86 156.75,-25.02 166.21,-29.8 167.12,-22.86"/>
</g>
<!-- Node4 -->
<g id="node4" class="node">
<title>Node4</title>
<g id="a_node4"><a xlink:title=" ">
<polygon fill="none" stroke="#bfbfbf" points="218.5,-6 218.5,-25 367.5,-25 367.5,-6 218.5,-6"/>
<text text-anchor="middle" x="293" y="-13" font-family="Helvetica,sans-Serif" font-size="10.00">sensor_msgs/CameraInfo.h</text>
</a>
</g>
</g>
<!-- Node2&#45;&gt;Node4 -->
<g id="edge3" class="edge">
<title>Node2&#45;&gt;Node4</title>
<path fill="none" stroke="midnightblue" d="M1315.9,-80.98C1153.85,-79.1 728.48,-70.48 376,-31 366.29,-29.91 356,-28.41 346.08,-26.77"/>
<polygon fill="midnightblue" stroke="midnightblue" points="346.38,-23.27 335.93,-25.04 345.2,-30.17 346.38,-23.27"/>
</g>
<!-- Node5 -->
<g id="node5" class="node">
<title>Node5</title>
<g id="a_node5"><a xlink:title=" ">
<polygon fill="none" stroke="#bfbfbf" points="385.5,-6 385.5,-25 508.5,-25 508.5,-6 385.5,-6"/>
<text text-anchor="middle" x="447" y="-13" font-family="Helvetica,sans-Serif" font-size="10.00">sensor_msgs/Image.h</text>
</a>
</g>
</g>
<!-- Node2&#45;&gt;Node5 -->
<g id="edge4" class="edge">
<title>Node2&#45;&gt;Node5</title>
<path fill="none" stroke="midnightblue" d="M1315.86,-80.92C1169.9,-78.92 813,-70.08 517,-31 509.21,-29.97 501,-28.57 493.05,-27.03"/>
<polygon fill="midnightblue" stroke="midnightblue" points="493.65,-23.58 483.16,-25.04 492.27,-30.45 493.65,-23.58"/>
</g>
<!-- Node6 -->
<g id="node6" class="node">
<title>Node6</title>
<g id="a_node6"><a xlink:title=" ">
<polygon fill="none" stroke="#bfbfbf" points="526.5,-6 526.5,-25 677.5,-25 677.5,-6 526.5,-6"/>
<text text-anchor="middle" x="602" y="-13" font-family="Helvetica,sans-Serif" font-size="10.00">sensor_msgs/PointCloud2.h</text>
</a>
</g>
</g>
<!-- Node2&#45;&gt;Node6 -->
<g id="edge5" class="edge">
<title>Node2&#45;&gt;Node6</title>
<path fill="none" stroke="midnightblue" d="M1315.6,-78.77C1191.08,-73.26 916.71,-58.86 687,-31 677.4,-29.84 667.24,-28.34 657.41,-26.75"/>
<polygon fill="midnightblue" stroke="midnightblue" points="657.76,-23.26 647.32,-25.06 656.61,-30.16 657.76,-23.26"/>
</g>
<!-- Node7 -->
<g id="node7" class="node">
<title>Node7</title>
<g id="a_node7"><a xlink:title=" ">
<polygon fill="none" stroke="#bfbfbf" points="696,-6 696,-25 836,-25 836,-6 696,-6"/>
<text text-anchor="middle" x="766" y="-13" font-family="Helvetica,sans-Serif" font-size="10.00">sensor_msgs/PointField.h</text>
</a>
</g>
</g>
<!-- Node2&#45;&gt;Node7 -->
<g id="edge6" class="edge">
<title>Node2&#45;&gt;Node7</title>
<path fill="none" stroke="midnightblue" d="M1315.68,-77.09C1213.6,-69.97 1013.66,-54.35 845,-31 836.37,-29.81 827.25,-28.33 818.38,-26.78"/>
<polygon fill="midnightblue" stroke="midnightblue" points="818.99,-23.34 808.53,-25.01 817.75,-30.23 818.99,-23.34"/>
</g>
<!-- Node8 -->
<g id="node8" class="node">
<title>Node8</title>
<g id="a_node8"><a xlink:title=" ">
<polygon fill="none" stroke="#bfbfbf" points="854,-6 854,-25 964,-25 964,-6 854,-6"/>
<text text-anchor="middle" x="909" y="-13" font-family="Helvetica,sans-Serif" font-size="10.00">std_msgs/Header.h</text>
</a>
</g>
</g>
<!-- Node2&#45;&gt;Node8 -->
<g id="edge7" class="edge">
<title>Node2&#45;&gt;Node8</title>
<path fill="none" stroke="midnightblue" d="M1315.94,-75.32C1234.5,-67.34 1093.11,-51.95 973,-31 966.74,-29.91 960.17,-28.6 953.72,-27.23"/>
<polygon fill="midnightblue" stroke="midnightblue" points="954.27,-23.77 943.75,-25.04 952.76,-30.6 954.27,-23.77"/>
</g>
<!-- Node9 -->
<g id="node9" class="node">
<title>Node9</title>
<g id="a_node9"><a xlink:title=" ">
<polygon fill="none" stroke="#bfbfbf" points="982.5,-6 982.5,-25 1157.5,-25 1157.5,-6 982.5,-6"/>
<text text-anchor="middle" x="1070" y="-13" font-family="Helvetica,sans-Serif" font-size="10.00">vision_msgs/Detection2DArray.h</text>
</a>
</g>
</g>
<!-- Node2&#45;&gt;Node9 -->
<g id="edge8" class="edge">
<title>Node2&#45;&gt;Node9</title>
<path fill="none" stroke="midnightblue" d="M1315.85,-67.56C1257.47,-55.43 1174.12,-38.12 1121.04,-27.1"/>
<polygon fill="midnightblue" stroke="midnightblue" points="1121.68,-23.66 1111.17,-25.05 1120.25,-30.51 1121.68,-23.66"/>
</g>
<!-- Node10 -->
<g id="node10" class="node">
<title>Node10</title>
<g id="a_node10"><a xlink:title=" ">
<polygon fill="none" stroke="#bfbfbf" points="1176,-0.5 1176,-30.5 1306,-30.5 1306,-0.5 1176,-0.5"/>
<text text-anchor="start" x="1184" y="-18.5" font-family="Helvetica,sans-Serif" font-size="10.00">seerep_msgs/camera</text>
<text text-anchor="middle" x="1241" y="-7.5" font-family="Helvetica,sans-Serif" font-size="10.00">_intrinsics_generated.h</text>
</a>
</g>
</g>
<!-- Node2&#45;&gt;Node10 -->
<g id="edge9" class="edge">
<title>Node2&#45;&gt;Node10</title>
<path fill="none" stroke="midnightblue" d="M1352.19,-67.4C1331.35,-57.86 1303.62,-45.16 1281.07,-34.84"/>
<polygon fill="midnightblue" stroke="midnightblue" points="1282.3,-31.56 1271.75,-30.58 1279.39,-37.92 1282.3,-31.56"/>
</g>
<!-- Node11 -->
<g id="node11" class="node">
<title>Node11</title>
<g id="a_node11"><a xlink:title=" ">
<polygon fill="none" stroke="#bfbfbf" points="1324,-0.5 1324,-30.5 1442,-30.5 1442,-0.5 1324,-0.5"/>
<text text-anchor="start" x="1332" y="-18.5" font-family="Helvetica,sans-Serif" font-size="10.00">seerep_msgs/header</text>
<text text-anchor="middle" x="1383" y="-7.5" font-family="Helvetica,sans-Serif" font-size="10.00">_generated.h</text>
</a>
</g>
</g>
<!-- Node2&#45;&gt;Node11 -->
<g id="edge10" class="edge">
<title>Node2&#45;&gt;Node11</title>
<path fill="none" stroke="midnightblue" d="M1383,-67.4C1383,-59.64 1383,-49.81 1383,-40.86"/>
<polygon fill="midnightblue" stroke="midnightblue" points="1386.5,-40.58 1383,-30.58 1379.5,-40.58 1386.5,-40.58"/>
</g>
<!-- Node12 -->
<g id="node12" class="node">
<title>Node12</title>
<g id="a_node12"><a xlink:title=" ">
<polygon fill="none" stroke="#bfbfbf" points="1460.5,-6 1460.5,-25 1639.5,-25 1639.5,-6 1460.5,-6"/>
<text text-anchor="middle" x="1550" y="-13" font-family="Helvetica,sans-Serif" font-size="10.00">seerep_msgs/image_generated.h</text>
</a>
</g>
</g>
<!-- Node2&#45;&gt;Node12 -->
<g id="edge11" class="edge">
<title>Node2&#45;&gt;Node12</title>
<path fill="none" stroke="midnightblue" d="M1419.24,-67.4C1448.93,-55.84 1490.51,-39.66 1518.75,-28.66"/>
<polygon fill="midnightblue" stroke="midnightblue" points="1520.09,-31.9 1528.14,-25.01 1517.56,-25.37 1520.09,-31.9"/>
</g>
<!-- Node13 -->
<g id="node13" class="node">
<title>Node13</title>
<g id="a_node13"><a xlink:title=" ">
<polygon fill="none" stroke="#bfbfbf" points="1658,-0.5 1658,-30.5 1798,-30.5 1798,-0.5 1658,-0.5"/>
<text text-anchor="start" x="1666" y="-18.5" font-family="Helvetica,sans-Serif" font-size="10.00">seerep_msgs/point_cloud</text>
<text text-anchor="middle" x="1728" y="-7.5" font-family="Helvetica,sans-Serif" font-size="10.00">_2_generated.h</text>
</a>
</g>
</g>
<!-- Node2&#45;&gt;Node13 -->
<g id="edge12" class="edge">
<title>Node2&#45;&gt;Node13</title>
<path fill="none" stroke="midnightblue" d="M1450.34,-68.81C1506.88,-58.16 1587.79,-42.92 1647.69,-31.63"/>
<polygon fill="midnightblue" stroke="midnightblue" points="1648.69,-35 1657.87,-29.71 1647.4,-28.12 1648.69,-35"/>
</g>
<!-- Node14 -->
<g id="node14" class="node">
<title>Node14</title>
<g id="a_node14"><a xlink:title=" ">
<polygon fill="none" stroke="#bfbfbf" points="1816.5,-0.5 1816.5,-30.5 1951.5,-30.5 1951.5,-0.5 1816.5,-0.5"/>
<text text-anchor="start" x="1824.5" y="-18.5" font-family="Helvetica,sans-Serif" font-size="10.00">seerep_msgs/point_field</text>
<text text-anchor="middle" x="1884" y="-7.5" font-family="Helvetica,sans-Serif" font-size="10.00">_generated.h</text>
</a>
</g>
</g>
<!-- Node2&#45;&gt;Node14 -->
<g id="edge13" class="edge">
<title>Node2&#45;&gt;Node14</title>
<path fill="none" stroke="midnightblue" d="M1450.02,-74.93C1531.71,-66.61 1674.17,-51.07 1806.52,-31.01"/>
<polygon fill="midnightblue" stroke="midnightblue" points="1807.08,-34.46 1816.44,-29.49 1806.02,-27.54 1807.08,-34.46"/>
</g>
<!-- Node15 -->
<g id="node15" class="node">
<title>Node15</title>
<g id="a_node15"><a xlink:title=" ">
<polygon fill="none" stroke="#bfbfbf" points="1969.5,-6 1969.5,-25 2142.5,-25 2142.5,-6 1969.5,-6"/>
<text text-anchor="middle" x="2056" y="-13" font-family="Helvetica,sans-Serif" font-size="10.00">seerep_msgs/point_generated.h</text>
</a>
</g>
</g>
<!-- Node2&#45;&gt;Node15 -->
<g id="edge14" class="edge">
<title>Node2&#45;&gt;Node15</title>
<path fill="none" stroke="midnightblue" d="M1450.33,-77.03C1558.3,-69.54 1776.73,-53.09 1961,-31 1971.78,-29.71 1983.22,-28.14 1994.28,-26.51"/>
<polygon fill="midnightblue" stroke="midnightblue" points="1994.94,-29.95 2004.31,-25.01 1993.9,-23.03 1994.94,-29.95"/>
</g>
<!-- Node16 -->
<g id="node16" class="node">
<title>Node16</title>
<g id="a_node16"><a xlink:title=" ">
<polygon fill="none" stroke="#bfbfbf" points="2161,-0.5 2161,-30.5 2293,-30.5 2293,-0.5 2161,-0.5"/>
<text text-anchor="start" x="2169" y="-18.5" font-family="Helvetica,sans-Serif" font-size="10.00">seerep_msgs/transform</text>
<text text-anchor="middle" x="2227" y="-7.5" font-family="Helvetica,sans-Serif" font-size="10.00">_generated.h</text>
</a>
</g>
</g>
<!-- Node2&#45;&gt;Node16 -->
<g id="edge15" class="edge">
<title>Node2&#45;&gt;Node16</title>
<path fill="none" stroke="midnightblue" d="M1450.13,-79.92C1582.39,-76.19 1886.07,-64.59 2150.63,-31.07"/>
<polygon fill="midnightblue" stroke="midnightblue" points="2151.34,-34.5 2160.82,-29.76 2150.46,-27.56 2151.34,-34.5"/>
</g>
<!-- Node17 -->
<g id="node17" class="node">
<title>Node17</title>
<g id="a_node17"><a xlink:title=" ">
<polygon fill="none" stroke="#bfbfbf" points="2311,-0.5 2311,-30.5 2443,-30.5 2443,-0.5 2311,-0.5"/>
<text text-anchor="start" x="2319" y="-18.5" font-family="Helvetica,sans-Serif" font-size="10.00">seerep_msgs/transform</text>
<text text-anchor="middle" x="2377" y="-7.5" font-family="Helvetica,sans-Serif" font-size="10.00">_stamped_generated.h</text>
</a>
</g>
</g>
<!-- Node2&#45;&gt;Node17 -->
<g id="edge16" class="edge">
<title>Node2&#45;&gt;Node17</title>
<path fill="none" stroke="midnightblue" d="M1450.16,-80.93C1600.77,-78.99 1977.01,-70.37 2300.78,-31.03"/>
<polygon fill="midnightblue" stroke="midnightblue" points="2301.33,-34.49 2310.82,-29.8 2300.47,-27.54 2301.33,-34.49"/>
</g>
<!-- Node18 -->
<g id="node18" class="node">
<title>Node18</title>
<g id="a_node18"><a xlink:title=" ">
<polygon fill="none" stroke="#bfbfbf" points="2461.5,-0.5 2461.5,-30.5 2582.5,-30.5 2582.5,-0.5 2461.5,-0.5"/>
<text text-anchor="start" x="2469.5" y="-18.5" font-family="Helvetica,sans-Serif" font-size="10.00">seerep_msgs/vector3</text>
<text text-anchor="middle" x="2522" y="-7.5" font-family="Helvetica,sans-Serif" font-size="10.00">_generated.h</text>
</a>
</g>
</g>
<!-- Node2&#45;&gt;Node18 -->
<g id="edge17" class="edge">
<title>Node2&#45;&gt;Node18</title>
<path fill="none" stroke="midnightblue" d="M1450.23,-81.98C1617.81,-82.38 2067.51,-78.65 2451.2,-30.94"/>
<polygon fill="midnightblue" stroke="midnightblue" points="2451.91,-34.38 2461.39,-29.66 2451.03,-27.44 2451.91,-34.38"/>
</g>
<!-- Node19 -->
<g id="node19" class="node">
<title>Node19</title>
<g id="a_node19"><a xlink:title=" ">
<polygon fill="none" stroke="#bfbfbf" points="2600.5,-6 2600.5,-25 2699.5,-25 2699.5,-6 2600.5,-6"/>
<text text-anchor="middle" x="2650" y="-13" font-family="Helvetica,sans-Serif" font-size="10.00">flatbuffers/grpc.h</text>
</a>
</g>
</g>
<!-- Node2&#45;&gt;Node19 -->
<g id="edge18" class="edge">
<title>Node2&#45;&gt;Node19</title>
<path fill="none" stroke="midnightblue" d="M1450.05,-80.49C1670.09,-76.91 2368.87,-63.21 2592,-31 2598.05,-30.13 2604.4,-28.89 2610.57,-27.49"/>
<polygon fill="midnightblue" stroke="midnightblue" points="2611.82,-30.79 2620.72,-25.05 2610.18,-23.99 2611.82,-30.79"/>
</g>
</g>
</svg>
