<?xml version="1.0" encoding="UTF-8" standalone="no"?>
<!DOCTYPE svg PUBLIC "-//W3C//DTD SVG 1.1//EN"
 "http://www.w3.org/Graphics/SVG/1.1/DTD/svg11.dtd">
<!-- Generated by graphviz version 2.43.0 (0)
 -->
<!-- Title: seerep_ros/seerep_ros_conversions_pb/src/seerep_ros_conversions_pb/conversions.cpp Pages: 1 -->
<svg width="2680pt" height="184pt"
 viewBox="0.00 0.00 2679.50 184.00" xmlns="http://www.w3.org/2000/svg" xmlns:xlink="http://www.w3.org/1999/xlink">
<g id="graph0" class="graph" transform="scale(1 1) rotate(0) translate(4 180)">
<title>seerep_ros/seerep_ros_conversions_pb/src/seerep_ros_conversions_pb/conversions.cpp</title>
<!-- Node1 -->
<g id="node1" class="node">
<title>Node1</title>
<g id="a_node1"><a xlink:title=" ">
<polygon fill="#bfbfbf" stroke="black" points="1263,-134.5 1263,-175.5 1463,-175.5 1463,-134.5 1263,-134.5"/>
<text text-anchor="start" x="1271" y="-163.5" font-family="Helvetica,sans-Serif" font-size="10.00">seerep_ros/seerep_ros</text>
<text text-anchor="start" x="1271" y="-152.5" font-family="Helvetica,sans-Serif" font-size="10.00">_conversions_pb/src/seerep</text>
<text text-anchor="middle" x="1363" y="-141.5" font-family="Helvetica,sans-Serif" font-size="10.00">_ros_conversions_pb/conversions.cpp</text>
</a>
</g>
</g>
<!-- Node2 -->
<g id="node2" class="node">
<title>Node2</title>
<g id="a_node2"><a xlink:href="seerep__ros__conversions__pb_2include_2seerep__ros__conversions__pb_2conversions_8h.html" target="_top" xlink:title=" ">
<polygon fill="none" stroke="black" points="1296,-67.5 1296,-97.5 1430,-97.5 1430,-67.5 1296,-67.5"/>
<text text-anchor="start" x="1304" y="-85.5" font-family="Helvetica,sans-Serif" font-size="10.00">seerep_ros_conversions</text>
<text text-anchor="middle" x="1363" y="-74.5" font-family="Helvetica,sans-Serif" font-size="10.00">_pb/conversions.h</text>
</a>
</g>
</g>
<!-- Node1&#45;&gt;Node2 -->
<g id="edge1" class="edge">
<title>Node1&#45;&gt;Node2</title>
<path fill="none" stroke="midnightblue" d="M1363,-134.36C1363,-126.23 1363,-116.7 1363,-108.11"/>
<polygon fill="midnightblue" stroke="midnightblue" points="1366.5,-107.89 1363,-97.89 1359.5,-107.89 1366.5,-107.89"/>
</g>
<!-- Node3 -->
<g id="node3" class="node">
<title>Node3</title>
<g id="a_node3"><a xlink:title=" ">
<polygon fill="none" stroke="#bfbfbf" points="0,-6 0,-25 174,-25 174,-6 0,-6"/>
<text text-anchor="middle" x="87" y="-13" font-family="Helvetica,sans-Serif" font-size="10.00">geometry_msgs/PoseStamped.h</text>
</a>
</g>
</g>
<!-- Node2&#45;&gt;Node3 -->
<g id="edge2" class="edge">
<title>Node2&#45;&gt;Node3</title>
<path fill="none" stroke="midnightblue" d="M1295.96,-81.14C1115.63,-79.64 605.23,-71.8 183,-31 171.2,-29.86 158.64,-28.25 146.63,-26.52"/>
<polygon fill="midnightblue" stroke="midnightblue" points="147.11,-23.05 136.7,-25.04 146.08,-29.98 147.11,-23.05"/>
</g>
<!-- Node4 -->
<g id="node4" class="node">
<title>Node4</title>
<g id="a_node4"><a xlink:title=" ">
<polygon fill="none" stroke="#bfbfbf" points="192,-6 192,-25 392,-25 392,-6 192,-6"/>
<text text-anchor="middle" x="292" y="-13" font-family="Helvetica,sans-Serif" font-size="10.00">geometry_msgs/TransformStamped.h</text>
</a>
</g>
</g>
<!-- Node2&#45;&gt;Node4 -->
<g id="edge3" class="edge">
<title>Node2&#45;&gt;Node4</title>
<path fill="none" stroke="midnightblue" d="M1295.81,-79.82C1138.87,-75.49 736.14,-62.04 401,-31 387.67,-29.77 373.46,-28.12 359.86,-26.38"/>
<polygon fill="midnightblue" stroke="midnightblue" points="359.97,-22.86 349.6,-25.04 359.06,-29.81 359.97,-22.86"/>
</g>
<!-- Node5 -->
<g id="node5" class="node">
<title>Node5</title>
<g id="a_node5"><a xlink:title=" ">
<polygon fill="none" stroke="#bfbfbf" points="410,-6 410,-25 598,-25 598,-6 410,-6"/>
<text text-anchor="middle" x="504" y="-13" font-family="Helvetica,sans-Serif" font-size="10.00">geometry_msgs/Vector3Stamped.h</text>
</a>
</g>
</g>
<!-- Node2&#45;&gt;Node5 -->
<g id="edge4" class="edge">
<title>Node2&#45;&gt;Node5</title>
<path fill="none" stroke="midnightblue" d="M1295.86,-78.67C1163.71,-72.72 860.67,-57.29 607,-31 594.74,-29.73 581.7,-28.11 569.16,-26.41"/>
<polygon fill="midnightblue" stroke="midnightblue" points="569.62,-22.94 559.23,-25.03 568.66,-29.87 569.62,-22.94"/>
</g>
<!-- Node6 -->
<g id="node6" class="node">
<title>Node6</title>
<g id="a_node6"><a xlink:title=" ">
<polygon fill="none" stroke="#bfbfbf" points="616.5,-6 616.5,-25 739.5,-25 739.5,-6 616.5,-6"/>
<text text-anchor="middle" x="678" y="-13" font-family="Helvetica,sans-Serif" font-size="10.00">sensor_msgs/Image.h</text>
</a>
</g>
</g>
<!-- Node2&#45;&gt;Node6 -->
<g id="edge5" class="edge">
<title>Node2&#45;&gt;Node6</title>
<path fill="none" stroke="midnightblue" d="M1295.81,-78.68C1182.41,-73.31 946.02,-59.53 748,-31 740.48,-29.92 732.56,-28.52 724.86,-27.03"/>
<polygon fill="midnightblue" stroke="midnightblue" points="725.4,-23.57 714.91,-25.03 724.02,-30.43 725.4,-23.57"/>
</g>
<!-- Node7 -->
<g id="node7" class="node">
<title>Node7</title>
<g id="a_node7"><a xlink:title=" ">
<polygon fill="none" stroke="#bfbfbf" points="757.5,-6 757.5,-25 908.5,-25 908.5,-6 757.5,-6"/>
<text text-anchor="middle" x="833" y="-13" font-family="Helvetica,sans-Serif" font-size="10.00">sensor_msgs/PointCloud2.h</text>
</a>
</g>
</g>
<!-- Node2&#45;&gt;Node7 -->
<g id="edge6" class="edge">
<title>Node2&#45;&gt;Node7</title>
<path fill="none" stroke="midnightblue" d="M1295.75,-75.05C1208.48,-66.41 1051.56,-49.96 918,-31 908.97,-29.72 899.41,-28.22 890.11,-26.69"/>
<polygon fill="midnightblue" stroke="midnightblue" points="890.58,-23.22 880.13,-25.02 889.42,-30.13 890.58,-23.22"/>
</g>
<!-- Node8 -->
<g id="node8" class="node">
<title>Node8</title>
<g id="a_node8"><a xlink:title=" ">
<polygon fill="none" stroke="#bfbfbf" points="927,-6 927,-25 1067,-25 1067,-6 927,-6"/>
<text text-anchor="middle" x="997" y="-13" font-family="Helvetica,sans-Serif" font-size="10.00">sensor_msgs/PointField.h</text>
</a>
</g>
</g>
<!-- Node2&#45;&gt;Node8 -->
<g id="edge7" class="edge">
<title>Node2&#45;&gt;Node8</title>
<path fill="none" stroke="midnightblue" d="M1296,-69.85C1237.82,-59.71 1151.31,-44.54 1076,-31 1068.65,-29.68 1060.92,-28.28 1053.29,-26.88"/>
<polygon fill="midnightblue" stroke="midnightblue" points="1053.82,-23.42 1043.36,-25.07 1052.57,-30.31 1053.82,-23.42"/>
</g>
<!-- Node9 -->
<g id="node9" class="node">
<title>Node9</title>
<g id="a_node9"><a xlink:title=" ">
<polygon fill="none" stroke="#bfbfbf" points="1085,-6 1085,-25 1195,-25 1195,-6 1085,-6"/>
<text text-anchor="middle" x="1140" y="-13" font-family="Helvetica,sans-Serif" font-size="10.00">std_msgs/Header.h</text>
</a>
</g>
</g>
<!-- Node2&#45;&gt;Node9 -->
<g id="edge8" class="edge">
<title>Node2&#45;&gt;Node9</title>
<path fill="none" stroke="midnightblue" d="M1314.89,-67.48C1274.22,-55.62 1216.71,-38.86 1178.9,-27.84"/>
<polygon fill="midnightblue" stroke="midnightblue" points="1179.84,-24.47 1169.26,-25.03 1177.88,-31.19 1179.84,-24.47"/>
</g>
<!-- Node10 -->
<g id="node10" class="node">
<title>Node10</title>
<g id="a_node10"><a xlink:title=" ">
<polygon fill="none" stroke="#bfbfbf" points="1213.5,-6 1213.5,-25 1354.5,-25 1354.5,-6 1213.5,-6"/>
<text text-anchor="middle" x="1284" y="-13" font-family="Helvetica,sans-Serif" font-size="10.00">seerep_msgs/header.pb.h</text>
</a>
</g>
</g>
<!-- Node2&#45;&gt;Node10 -->
<g id="edge9" class="edge">
<title>Node2&#45;&gt;Node10</title>
<path fill="none" stroke="midnightblue" d="M1345.86,-67.4C1333.05,-56.86 1315.57,-42.48 1302.46,-31.69"/>
<polygon fill="midnightblue" stroke="midnightblue" points="1304.51,-28.85 1294.57,-25.19 1300.07,-34.25 1304.51,-28.85"/>
</g>
<!-- Node11 -->
<g id="node11" class="node">
<title>Node11</title>
<g id="a_node11"><a xlink:title=" ">
<polygon fill="none" stroke="#bfbfbf" points="1372.5,-6 1372.5,-25 1511.5,-25 1511.5,-6 1372.5,-6"/>
<text text-anchor="middle" x="1442" y="-13" font-family="Helvetica,sans-Serif" font-size="10.00">seerep_msgs/image.pb.h</text>
</a>
</g>
</g>
<!-- Node2&#45;&gt;Node11 -->
<g id="edge10" class="edge">
<title>Node2&#45;&gt;Node11</title>
<path fill="none" stroke="midnightblue" d="M1380.14,-67.4C1392.95,-56.86 1410.43,-42.48 1423.54,-31.69"/>
<polygon fill="midnightblue" stroke="midnightblue" points="1425.93,-34.25 1431.43,-25.19 1421.49,-28.85 1425.93,-34.25"/>
</g>
<!-- Node12 -->
<g id="node12" class="node">
<title>Node12</title>
<g id="a_node12"><a xlink:title=" ">
<polygon fill="none" stroke="#bfbfbf" points="1530,-0.5 1530,-30.5 1670,-30.5 1670,-0.5 1530,-0.5"/>
<text text-anchor="start" x="1538" y="-18.5" font-family="Helvetica,sans-Serif" font-size="10.00">seerep_msgs/point_cloud</text>
<text text-anchor="middle" x="1600" y="-7.5" font-family="Helvetica,sans-Serif" font-size="10.00">_2.pb.h</text>
</a>
</g>
</g>
<!-- Node2&#45;&gt;Node12 -->
<g id="edge11" class="edge">
<title>Node2&#45;&gt;Node12</title>
<path fill="none" stroke="midnightblue" d="M1414.13,-67.48C1450.61,-57.47 1499.84,-43.97 1538.46,-33.38"/>
<polygon fill="midnightblue" stroke="midnightblue" points="1539.83,-36.63 1548.55,-30.61 1537.98,-29.88 1539.83,-36.63"/>
</g>
<!-- Node13 -->
<g id="node13" class="node">
<title>Node13</title>
<g id="a_node13"><a xlink:title=" ">
<polygon fill="none" stroke="#bfbfbf" points="1688.5,-6 1688.5,-25 1847.5,-25 1847.5,-6 1688.5,-6"/>
<text text-anchor="middle" x="1768" y="-13" font-family="Helvetica,sans-Serif" font-size="10.00">seerep_msgs/point_field.pb.h</text>
</a>
</g>
</g>
<!-- Node2&#45;&gt;Node13 -->
<g id="edge12" class="edge">
<title>Node2&#45;&gt;Node13</title>
<path fill="none" stroke="midnightblue" d="M1430.2,-70.82C1494.18,-60.64 1593.16,-44.85 1679,-31 1687.65,-29.6 1696.76,-28.13 1705.73,-26.67"/>
<polygon fill="midnightblue" stroke="midnightblue" points="1706.46,-30.1 1715.77,-25.04 1705.33,-23.19 1706.46,-30.1"/>
</g>
<!-- Node14 -->
<g id="node14" class="node">
<title>Node14</title>
<g id="a_node14"><a xlink:title=" ">
<polygon fill="none" stroke="#bfbfbf" points="1865.5,-6 1865.5,-25 2044.5,-25 2044.5,-6 1865.5,-6"/>
<text text-anchor="middle" x="1955" y="-13" font-family="Helvetica,sans-Serif" font-size="10.00">seerep_msgs/pose_stamped.pb.h</text>
</a>
</g>
</g>
<!-- Node2&#45;&gt;Node14 -->
<g id="edge13" class="edge">
<title>Node2&#45;&gt;Node14</title>
<path fill="none" stroke="midnightblue" d="M1430.23,-75.59C1525.38,-67.02 1704.73,-50.04 1857,-31 1867.78,-29.65 1879.21,-28.09 1890.3,-26.49"/>
<polygon fill="midnightblue" stroke="midnightblue" points="1890.98,-29.93 1900.37,-25.03 1889.97,-23 1890.98,-29.93"/>
</g>
<!-- Node15 -->
<g id="node15" class="node">
<title>Node15</title>
<g id="a_node15"><a xlink:title=" ">
<polygon fill="none" stroke="#bfbfbf" points="2063,-6 2063,-25 2219,-25 2219,-6 2063,-6"/>
<text text-anchor="middle" x="2141" y="-13" font-family="Helvetica,sans-Serif" font-size="10.00">seerep_msgs/transform.pb.h</text>
</a>
</g>
</g>
<!-- Node2&#45;&gt;Node15 -->
<g id="edge14" class="edge">
<title>Node2&#45;&gt;Node15</title>
<path fill="none" stroke="midnightblue" d="M1430.39,-78.64C1554.22,-72.93 1826.18,-58.25 2054,-31 2063.92,-29.81 2074.44,-28.29 2084.6,-26.68"/>
<polygon fill="midnightblue" stroke="midnightblue" points="2085.3,-30.11 2094.61,-25.05 2084.18,-23.2 2085.3,-30.11"/>
</g>
<!-- Node16 -->
<g id="node16" class="node">
<title>Node16</title>
<g id="a_node16"><a xlink:title=" ">
<polygon fill="none" stroke="#bfbfbf" points="2237,-0.5 2237,-30.5 2369,-30.5 2369,-0.5 2237,-0.5"/>
<text text-anchor="start" x="2245" y="-18.5" font-family="Helvetica,sans-Serif" font-size="10.00">seerep_msgs/transform</text>
<text text-anchor="middle" x="2303" y="-7.5" font-family="Helvetica,sans-Serif" font-size="10.00">_stamped.pb.h</text>
</a>
</g>
</g>
<!-- Node2&#45;&gt;Node16 -->
<g id="edge15" class="edge">
<title>Node2&#45;&gt;Node16</title>
<path fill="none" stroke="midnightblue" d="M1430.02,-80.61C1574.1,-78.04 1924.11,-68.3 2226.54,-31.07"/>
<polygon fill="midnightblue" stroke="midnightblue" points="2227.33,-34.5 2236.82,-29.79 2226.47,-27.55 2227.33,-34.5"/>
</g>
<!-- Node17 -->
<g id="node17" class="node">
<title>Node17</title>
<g id="a_node17"><a xlink:title=" ">
<polygon fill="none" stroke="#bfbfbf" points="2387.5,-6 2387.5,-25 2532.5,-25 2532.5,-6 2387.5,-6"/>
<text text-anchor="middle" x="2460" y="-13" font-family="Helvetica,sans-Serif" font-size="10.00">seerep_msgs/vector3.pb.h</text>
</a>
</g>
</g>
<!-- Node2&#45;&gt;Node17 -->
<g id="edge16" class="edge">
<title>Node2&#45;&gt;Node17</title>
<path fill="none" stroke="midnightblue" d="M1430.04,-81.06C1592.93,-79.37 2022.32,-71.14 2378,-31 2387.6,-29.92 2397.77,-28.41 2407.56,-26.78"/>
<polygon fill="midnightblue" stroke="midnightblue" points="2408.33,-30.2 2417.59,-25.04 2407.14,-23.3 2408.33,-30.2"/>
</g>
<!-- Node18 -->
<g id="node18" class="node">
<title>Node18</title>
<g id="a_node18"><a xlink:title=" ">
<polygon fill="none" stroke="#bfbfbf" points="2550.5,-0.5 2550.5,-30.5 2671.5,-30.5 2671.5,-0.5 2550.5,-0.5"/>
<text text-anchor="start" x="2558.5" y="-18.5" font-family="Helvetica,sans-Serif" font-size="10.00">seerep_msgs/vector3</text>
<text text-anchor="middle" x="2611" y="-7.5" font-family="Helvetica,sans-Serif" font-size="10.00">_stamped.pb.h</text>
</a>
</g>
</g>
<!-- Node2&#45;&gt;Node18 -->
<g id="edge17" class="edge">
<title>Node2&#45;&gt;Node18</title>
<path fill="none" stroke="midnightblue" d="M1430.23,-80.07C1643.58,-75.33 2304.74,-58.82 2539.93,-31.1"/>
<polygon fill="midnightblue" stroke="midnightblue" points="2540.64,-34.54 2550.14,-29.86 2539.79,-27.59 2540.64,-34.54"/>
</g>
</g>
</svg>
