<?xml version="1.0" encoding="UTF-8" standalone="no"?>
<!DOCTYPE svg PUBLIC "-//W3C//DTD SVG 1.1//EN"
 "http://www.w3.org/Graphics/SVG/1.1/DTD/svg11.dtd">
<!-- Generated by graphviz version 2.43.0 (0)
 -->
<!-- Title: seerep_ros/seerep_ros_conversions_fb/include/seerep_ros_conversions_fb/conversions.h Pages: 1 -->
<svg width="2708pt" height="128pt"
 viewBox="0.00 0.00 2707.50 128.00" xmlns="http://www.w3.org/2000/svg" xmlns:xlink="http://www.w3.org/1999/xlink">
<g id="graph0" class="graph" transform="scale(1 1) rotate(0) translate(4 124)">
<title>seerep_ros/seerep_ros_conversions_fb/include/seerep_ros_conversions_fb/conversions.h</title>
<!-- Node1 -->
<g id="node1" class="node">
<title>Node1</title>
<g id="a_node1"><a xlink:title=" ">
<polygon fill="#bfbfbf" stroke="black" points="1314.5,-67.5 1314.5,-119.5 1451.5,-119.5 1451.5,-67.5 1314.5,-67.5"/>
<text text-anchor="start" x="1322.5" y="-107.5" font-family="Helvetica,sans-Serif" font-size="10.00">seerep_ros/seerep_ros</text>
<text text-anchor="start" x="1322.5" y="-96.5" font-family="Helvetica,sans-Serif" font-size="10.00">_conversions_fb/include</text>
<text text-anchor="start" x="1322.5" y="-85.5" font-family="Helvetica,sans-Serif" font-size="10.00">/seerep_ros_conversions</text>
<text text-anchor="middle" x="1383" y="-74.5" font-family="Helvetica,sans-Serif" font-size="10.00">_fb/conversions.h</text>
</a>
</g>
</g>
<!-- Node2 -->
<g id="node2" class="node">
<title>Node2</title>
<g id="a_node2"><a xlink:title=" ">
<polygon fill="none" stroke="#bfbfbf" points="0,-6 0,-25 200,-25 200,-6 0,-6"/>
<text text-anchor="middle" x="100" y="-13" font-family="Helvetica,sans-Serif" font-size="10.00">geometry_msgs/TransformStamped.h</text>
</a>
</g>
</g>
<!-- Node1&#45;&gt;Node2 -->
<g id="edge1" class="edge">
<title>Node1&#45;&gt;Node2</title>
<path fill="none" stroke="midnightblue" d="M1314.38,-90.82C1133.34,-85.98 627.91,-69.77 209,-31 195.67,-29.77 181.46,-28.12 167.86,-26.38"/>
<polygon fill="midnightblue" stroke="midnightblue" points="167.97,-22.87 157.6,-25.04 167.06,-29.81 167.97,-22.87"/>
</g>
<!-- Node3 -->
<g id="node3" class="node">
<title>Node3</title>
<g id="a_node3"><a xlink:title=" ">
<polygon fill="none" stroke="#bfbfbf" points="218.5,-6 218.5,-25 367.5,-25 367.5,-6 218.5,-6"/>
<text text-anchor="middle" x="293" y="-13" font-family="Helvetica,sans-Serif" font-size="10.00">sensor_msgs/CameraInfo.h</text>
</a>
</g>
</g>
<!-- Node1&#45;&gt;Node3 -->
<g id="edge2" class="edge">
<title>Node1&#45;&gt;Node3</title>
<path fill="none" stroke="midnightblue" d="M1314.39,-90.96C1151.22,-86.71 727.39,-72.29 376,-31 366.4,-29.87 356.23,-28.36 346.42,-26.74"/>
<polygon fill="midnightblue" stroke="midnightblue" points="346.82,-23.26 336.37,-25.02 345.64,-30.16 346.82,-23.26"/>
</g>
<!-- Node4 -->
<g id="node4" class="node">
<title>Node4</title>
<g id="a_node4"><a xlink:title=" ">
<polygon fill="none" stroke="#bfbfbf" points="385.5,-6 385.5,-25 508.5,-25 508.5,-6 385.5,-6"/>
<text text-anchor="middle" x="447" y="-13" font-family="Helvetica,sans-Serif" font-size="10.00">sensor_msgs/Image.h</text>
</a>
</g>
</g>
<!-- Node1&#45;&gt;Node4 -->
<g id="edge3" class="edge">
<title>Node1&#45;&gt;Node4</title>
<path fill="none" stroke="midnightblue" d="M1314.47,-90.74C1167.65,-86.28 812.06,-71.85 517,-31 509.39,-29.95 501.37,-28.56 493.58,-27.05"/>
<polygon fill="midnightblue" stroke="midnightblue" points="494.03,-23.57 483.53,-25.03 492.65,-30.43 494.03,-23.57"/>
</g>
<!-- Node5 -->
<g id="node5" class="node">
<title>Node5</title>
<g id="a_node5"><a xlink:title=" ">
<polygon fill="none" stroke="#bfbfbf" points="526.5,-6 526.5,-25 677.5,-25 677.5,-6 526.5,-6"/>
<text text-anchor="middle" x="602" y="-13" font-family="Helvetica,sans-Serif" font-size="10.00">sensor_msgs/PointCloud2.h</text>
</a>
</g>
</g>
<!-- Node1&#45;&gt;Node5 -->
<g id="edge4" class="edge">
<title>Node1&#45;&gt;Node5</title>
<path fill="none" stroke="midnightblue" d="M1314.14,-88.27C1188.96,-80.16 915.88,-60.58 687,-31 677.52,-29.78 667.49,-28.26 657.76,-26.67"/>
<polygon fill="midnightblue" stroke="midnightblue" points="658.22,-23.2 647.78,-25.01 657.06,-30.11 658.22,-23.2"/>
</g>
<!-- Node6 -->
<g id="node6" class="node">
<title>Node6</title>
<g id="a_node6"><a xlink:title=" ">
<polygon fill="none" stroke="#bfbfbf" points="696,-6 696,-25 836,-25 836,-6 696,-6"/>
<text text-anchor="middle" x="766" y="-13" font-family="Helvetica,sans-Serif" font-size="10.00">sensor_msgs/PointField.h</text>
</a>
</g>
</g>
<!-- Node1&#45;&gt;Node6 -->
<g id="edge5" class="edge">
<title>Node1&#45;&gt;Node6</title>
<path fill="none" stroke="midnightblue" d="M1314.44,-86.16C1212.01,-76.36 1013.08,-56 845,-31 836.67,-29.76 827.88,-28.3 819.3,-26.79"/>
<polygon fill="midnightblue" stroke="midnightblue" points="819.84,-23.33 809.37,-25.01 818.6,-30.22 819.84,-23.33"/>
</g>
<!-- Node7 -->
<g id="node7" class="node">
<title>Node7</title>
<g id="a_node7"><a xlink:title=" ">
<polygon fill="none" stroke="#bfbfbf" points="854,-6 854,-25 964,-25 964,-6 854,-6"/>
<text text-anchor="middle" x="909" y="-13" font-family="Helvetica,sans-Serif" font-size="10.00">std_msgs/Header.h</text>
</a>
</g>
</g>
<!-- Node1&#45;&gt;Node7 -->
<g id="edge6" class="edge">
<title>Node1&#45;&gt;Node7</title>
<path fill="none" stroke="midnightblue" d="M1314.19,-83.76C1232.52,-73.02 1092.37,-53.44 973,-31 967.05,-29.88 960.81,-28.6 954.65,-27.28"/>
<polygon fill="midnightblue" stroke="midnightblue" points="954.97,-23.76 944.45,-25.02 953.46,-30.6 954.97,-23.76"/>
</g>
<!-- Node8 -->
<g id="node8" class="node">
<title>Node8</title>
<g id="a_node8"><a xlink:title=" ">
<polygon fill="none" stroke="#bfbfbf" points="982.5,-6 982.5,-25 1157.5,-25 1157.5,-6 982.5,-6"/>
<text text-anchor="middle" x="1070" y="-13" font-family="Helvetica,sans-Serif" font-size="10.00">vision_msgs/Detection2DArray.h</text>
</a>
</g>
</g>
<!-- Node1&#45;&gt;Node8 -->
<g id="edge7" class="edge">
<title>Node1&#45;&gt;Node8</title>
<path fill="none" stroke="midnightblue" d="M1314.31,-75.82C1253.74,-61.12 1167.24,-40.11 1115.06,-27.44"/>
<polygon fill="midnightblue" stroke="midnightblue" points="1115.65,-23.98 1105.1,-25.02 1114,-30.78 1115.65,-23.98"/>
</g>
<!-- Node9 -->
<g id="node9" class="node">
<title>Node9</title>
<g id="a_node9"><a xlink:title=" ">
<polygon fill="none" stroke="#bfbfbf" points="1176,-0.5 1176,-30.5 1306,-30.5 1306,-0.5 1176,-0.5"/>
<text text-anchor="start" x="1184" y="-18.5" font-family="Helvetica,sans-Serif" font-size="10.00">seerep_msgs/camera</text>
<text text-anchor="middle" x="1241" y="-7.5" font-family="Helvetica,sans-Serif" font-size="10.00">_intrinsics_generated.h</text>
</a>
</g>
</g>
<!-- Node1&#45;&gt;Node9 -->
<g id="edge8" class="edge">
<title>Node1&#45;&gt;Node9</title>
<path fill="none" stroke="midnightblue" d="M1336.11,-67.4C1316.71,-57.02 1294.59,-45.18 1276.56,-35.53"/>
<polygon fill="midnightblue" stroke="midnightblue" points="1278.01,-32.34 1267.54,-30.71 1274.71,-38.51 1278.01,-32.34"/>
</g>
<!-- Node10 -->
<g id="node10" class="node">
<title>Node10</title>
<g id="a_node10"><a xlink:title=" ">
<polygon fill="none" stroke="#bfbfbf" points="1324,-0.5 1324,-30.5 1442,-30.5 1442,-0.5 1324,-0.5"/>
<text text-anchor="start" x="1332" y="-18.5" font-family="Helvetica,sans-Serif" font-size="10.00">seerep_msgs/header</text>
<text text-anchor="middle" x="1383" y="-7.5" font-family="Helvetica,sans-Serif" font-size="10.00">_generated.h</text>
</a>
</g>
</g>
<!-- Node1&#45;&gt;Node10 -->
<g id="edge9" class="edge">
<title>Node1&#45;&gt;Node10</title>
<path fill="none" stroke="midnightblue" d="M1383,-67.19C1383,-58.79 1383,-49.44 1383,-41.09"/>
<polygon fill="midnightblue" stroke="midnightblue" points="1386.5,-40.85 1383,-30.85 1379.5,-40.85 1386.5,-40.85"/>
</g>
<!-- Node11 -->
<g id="node11" class="node">
<title>Node11</title>
<g id="a_node11"><a xlink:title=" ">
<polygon fill="none" stroke="#bfbfbf" points="1460.5,-6 1460.5,-25 1639.5,-25 1639.5,-6 1460.5,-6"/>
<text text-anchor="middle" x="1550" y="-13" font-family="Helvetica,sans-Serif" font-size="10.00">seerep_msgs/image_generated.h</text>
</a>
</g>
</g>
<!-- Node1&#45;&gt;Node11 -->
<g id="edge10" class="edge">
<title>Node1&#45;&gt;Node11</title>
<path fill="none" stroke="midnightblue" d="M1438.14,-67.4C1466.24,-54.62 1499.2,-39.62 1522.03,-29.23"/>
<polygon fill="midnightblue" stroke="midnightblue" points="1523.5,-32.41 1531.15,-25.08 1520.6,-26.03 1523.5,-32.41"/>
</g>
<!-- Node12 -->
<g id="node12" class="node">
<title>Node12</title>
<g id="a_node12"><a xlink:title=" ">
<polygon fill="none" stroke="#bfbfbf" points="1658,-0.5 1658,-30.5 1798,-30.5 1798,-0.5 1658,-0.5"/>
<text text-anchor="start" x="1666" y="-18.5" font-family="Helvetica,sans-Serif" font-size="10.00">seerep_msgs/point_cloud</text>
<text text-anchor="middle" x="1728" y="-7.5" font-family="Helvetica,sans-Serif" font-size="10.00">_2_generated.h</text>
</a>
</g>
</g>
<!-- Node1&#45;&gt;Node12 -->
<g id="edge11" class="edge">
<title>Node1&#45;&gt;Node12</title>
<path fill="none" stroke="midnightblue" d="M1451.57,-77.39C1510.21,-64.48 1594.39,-45.93 1654.42,-32.71"/>
<polygon fill="midnightblue" stroke="midnightblue" points="1655.2,-36.12 1664.21,-30.55 1653.69,-29.28 1655.2,-36.12"/>
</g>
<!-- Node13 -->
<g id="node13" class="node">
<title>Node13</title>
<g id="a_node13"><a xlink:title=" ">
<polygon fill="none" stroke="#bfbfbf" points="1816.5,-0.5 1816.5,-30.5 1951.5,-30.5 1951.5,-0.5 1816.5,-0.5"/>
<text text-anchor="start" x="1824.5" y="-18.5" font-family="Helvetica,sans-Serif" font-size="10.00">seerep_msgs/point_field</text>
<text text-anchor="middle" x="1884" y="-7.5" font-family="Helvetica,sans-Serif" font-size="10.00">_generated.h</text>
</a>
</g>
</g>
<!-- Node1&#45;&gt;Node13 -->
<g id="edge12" class="edge">
<title>Node1&#45;&gt;Node13</title>
<path fill="none" stroke="midnightblue" d="M1451.8,-83.43C1533.66,-72.43 1674.7,-52.84 1806.17,-31.1"/>
<polygon fill="midnightblue" stroke="midnightblue" points="1807.13,-34.48 1816.42,-29.39 1805.98,-27.58 1807.13,-34.48"/>
</g>
<!-- Node14 -->
<g id="node14" class="node">
<title>Node14</title>
<g id="a_node14"><a xlink:title=" ">
<polygon fill="none" stroke="#bfbfbf" points="1969.5,-6 1969.5,-25 2142.5,-25 2142.5,-6 1969.5,-6"/>
<text text-anchor="middle" x="2056" y="-13" font-family="Helvetica,sans-Serif" font-size="10.00">seerep_msgs/point_generated.h</text>
</a>
</g>
</g>
<!-- Node1&#45;&gt;Node14 -->
<g id="edge13" class="edge">
<title>Node1&#45;&gt;Node14</title>
<path fill="none" stroke="midnightblue" d="M1451.63,-86.22C1560.01,-76.06 1777.36,-54.77 1961,-31 1971.28,-29.67 1982.17,-28.13 1992.76,-26.56"/>
<polygon fill="midnightblue" stroke="midnightblue" points="1993.43,-30 2002.8,-25.06 1992.39,-23.08 1993.43,-30"/>
</g>
<!-- Node15 -->
<g id="node15" class="node">
<title>Node15</title>
<g id="a_node15"><a xlink:title=" ">
<polygon fill="none" stroke="#bfbfbf" points="2161,-0.5 2161,-30.5 2293,-30.5 2293,-0.5 2161,-0.5"/>
<text text-anchor="start" x="2169" y="-18.5" font-family="Helvetica,sans-Serif" font-size="10.00">seerep_msgs/transform</text>
<text text-anchor="middle" x="2227" y="-7.5" font-family="Helvetica,sans-Serif" font-size="10.00">_generated.h</text>
</a>
</g>
</g>
<!-- Node1&#45;&gt;Node15 -->
<g id="edge14" class="edge">
<title>Node1&#45;&gt;Node15</title>
<path fill="none" stroke="midnightblue" d="M1451.69,-89.57C1584.76,-83.34 1887.08,-66.46 2150.66,-31.08"/>
<polygon fill="midnightblue" stroke="midnightblue" points="2151.37,-34.52 2160.81,-29.71 2150.43,-27.58 2151.37,-34.52"/>
</g>
<!-- Node16 -->
<g id="node16" class="node">
<title>Node16</title>
<g id="a_node16"><a xlink:title=" ">
<polygon fill="none" stroke="#bfbfbf" points="2311,-0.5 2311,-30.5 2443,-30.5 2443,-0.5 2311,-0.5"/>
<text text-anchor="start" x="2319" y="-18.5" font-family="Helvetica,sans-Serif" font-size="10.00">seerep_msgs/transform</text>
<text text-anchor="middle" x="2377" y="-7.5" font-family="Helvetica,sans-Serif" font-size="10.00">_stamped_generated.h</text>
</a>
</g>
</g>
<!-- Node1&#45;&gt;Node16 -->
<g id="edge15" class="edge">
<title>Node1&#45;&gt;Node16</title>
<path fill="none" stroke="midnightblue" d="M1451.59,-90.82C1603.15,-86.48 1978.04,-72.28 2300.8,-31.05"/>
<polygon fill="midnightblue" stroke="midnightblue" points="2301.35,-34.51 2310.82,-29.76 2300.45,-27.56 2301.35,-34.51"/>
</g>
<!-- Node17 -->
<g id="node17" class="node">
<title>Node17</title>
<g id="a_node17"><a xlink:title=" ">
<polygon fill="none" stroke="#bfbfbf" points="2461.5,-0.5 2461.5,-30.5 2582.5,-30.5 2582.5,-0.5 2461.5,-0.5"/>
<text text-anchor="start" x="2469.5" y="-18.5" font-family="Helvetica,sans-Serif" font-size="10.00">seerep_msgs/vector3</text>
<text text-anchor="middle" x="2522" y="-7.5" font-family="Helvetica,sans-Serif" font-size="10.00">_generated.h</text>
</a>
</g>
</g>
<!-- Node1&#45;&gt;Node17 -->
<g id="edge16" class="edge">
<title>Node1&#45;&gt;Node17</title>
<path fill="none" stroke="midnightblue" d="M1451.8,-92.03C1620.61,-90.14 2068.73,-80.56 2451.23,-30.95"/>
<polygon fill="midnightblue" stroke="midnightblue" points="2451.92,-34.39 2461.39,-29.62 2451.02,-27.45 2451.92,-34.39"/>
</g>
<!-- Node18 -->
<g id="node18" class="node">
<title>Node18</title>
<g id="a_node18"><a xlink:title=" ">
<polygon fill="none" stroke="#bfbfbf" points="2600.5,-6 2600.5,-25 2699.5,-25 2699.5,-6 2600.5,-6"/>
<text text-anchor="middle" x="2650" y="-13" font-family="Helvetica,sans-Serif" font-size="10.00">flatbuffers/grpc.h</text>
</a>
</g>
</g>
<!-- Node1&#45;&gt;Node18 -->
<g id="edge17" class="edge">
<title>Node1&#45;&gt;Node18</title>
<path fill="none" stroke="midnightblue" d="M1451.6,-90.76C1673.37,-84.87 2369.45,-64.16 2592,-31 2597.98,-30.11 2604.25,-28.87 2610.36,-27.49"/>
<polygon fill="midnightblue" stroke="midnightblue" points="2611.51,-30.81 2620.42,-25.07 2609.88,-24.01 2611.51,-30.81"/>
</g>
</g>
</svg>
