<?xml version="1.0" encoding="UTF-8" standalone="no"?>
<!DOCTYPE svg PUBLIC "-//W3C//DTD SVG 1.1//EN"
 "http://www.w3.org/Graphics/SVG/1.1/DTD/svg11.dtd">
<!-- Generated by graphviz version 2.43.0 (0)
 -->
<!-- Title: seerep_ros/seerep_ros_conversions_fb/src/seerep_ros_conversions_fb/conversions.cpp Pages: 1 -->
<svg width="3777pt" height="195pt"
 viewBox="0.00 0.00 3776.50 195.00" xmlns="http://www.w3.org/2000/svg" xmlns:xlink="http://www.w3.org/1999/xlink">
<g id="graph0" class="graph" transform="scale(1 1) rotate(0) translate(4 191)">
<title>seerep_ros/seerep_ros_conversions_fb/src/seerep_ros_conversions_fb/conversions.cpp</title>
<!-- Node1 -->
<g id="node1" class="node">
<title>Node1</title>
<g id="a_node1"><a xlink:title=" ">
<polygon fill="#bfbfbf" stroke="black" points="1914.5,-145.5 1914.5,-186.5 2111.5,-186.5 2111.5,-145.5 1914.5,-145.5"/>
<text text-anchor="start" x="1922.5" y="-174.5" font-family="Helvetica,sans-Serif" font-size="10.00">seerep_ros/seerep_ros</text>
<text text-anchor="start" x="1922.5" y="-163.5" font-family="Helvetica,sans-Serif" font-size="10.00">_conversions_fb/src/seerep</text>
<text text-anchor="middle" x="2013" y="-152.5" font-family="Helvetica,sans-Serif" font-size="10.00">_ros_conversions_fb/conversions.cpp</text>
</a>
</g>
</g>
<!-- Node2 -->
<g id="node2" class="node">
<title>Node2</title>
<g id="a_node2"><a xlink:href="seerep__ros__conversions__fb_2include_2seerep__ros__conversions__fb_2conversions_8h.html" target="_top" xlink:title=" ">
<polygon fill="none" stroke="black" points="1946,-78.5 1946,-108.5 2080,-108.5 2080,-78.5 1946,-78.5"/>
<text text-anchor="start" x="1954" y="-96.5" font-family="Helvetica,sans-Serif" font-size="10.00">seerep_ros_conversions</text>
<text text-anchor="middle" x="2013" y="-85.5" font-family="Helvetica,sans-Serif" font-size="10.00">_fb/conversions.h</text>
</a>
</g>
</g>
<!-- Node1&#45;&gt;Node2 -->
<g id="edge1" class="edge">
<title>Node1&#45;&gt;Node2</title>
<path fill="none" stroke="midnightblue" d="M2013,-145.36C2013,-137.23 2013,-127.7 2013,-119.11"/>
<polygon fill="midnightblue" stroke="midnightblue" points="2016.5,-118.89 2013,-108.89 2009.5,-118.89 2016.5,-118.89"/>
</g>
<!-- Node3 -->
<g id="node3" class="node">
<title>Node3</title>
<g id="a_node3"><a xlink:title=" ">
<polygon fill="none" stroke="#bfbfbf" points="0,-11.5 0,-30.5 174,-30.5 174,-11.5 0,-11.5"/>
<text text-anchor="middle" x="87" y="-18.5" font-family="Helvetica,sans-Serif" font-size="10.00">geometry_msgs/PoseStamped.h</text>
</a>
</g>
</g>
<!-- Node2&#45;&gt;Node3 -->
<g id="edge2" class="edge">
<title>Node2&#45;&gt;Node3</title>
<path fill="none" stroke="midnightblue" d="M1945.72,-92.25C1658.57,-90.91 534.39,-83.12 183,-42 165.64,-39.97 146.76,-36.35 130.37,-32.74"/>
<polygon fill="midnightblue" stroke="midnightblue" points="131.05,-29.31 120.53,-30.51 129.51,-36.13 131.05,-29.31"/>
</g>
<!-- Node4 -->
<g id="node4" class="node">
<title>Node4</title>
<g id="a_node4"><a xlink:title=" ">
<polygon fill="none" stroke="#bfbfbf" points="192,-11.5 192,-30.5 392,-30.5 392,-11.5 192,-11.5"/>
<text text-anchor="middle" x="292" y="-18.5" font-family="Helvetica,sans-Serif" font-size="10.00">geometry_msgs/TransformStamped.h</text>
</a>
</g>
</g>
<!-- Node2&#45;&gt;Node4 -->
<g id="edge3" class="edge">
<title>Node2&#45;&gt;Node4</title>
<path fill="none" stroke="midnightblue" d="M1945.86,-91.74C1680.95,-88.54 707.78,-74.76 401,-42 381.05,-39.87 359.27,-36.16 340.46,-32.5"/>
<polygon fill="midnightblue" stroke="midnightblue" points="341.13,-29.07 330.64,-30.55 339.76,-35.93 341.13,-29.07"/>
</g>
<!-- Node5 -->
<g id="node5" class="node">
<title>Node5</title>
<g id="a_node5"><a xlink:title=" ">
<polygon fill="none" stroke="#bfbfbf" points="410,-11.5 410,-30.5 598,-30.5 598,-11.5 410,-11.5"/>
<text text-anchor="middle" x="504" y="-18.5" font-family="Helvetica,sans-Serif" font-size="10.00">geometry_msgs/Vector3Stamped.h</text>
</a>
</g>
</g>
<!-- Node2&#45;&gt;Node5 -->
<g id="edge4" class="edge">
<title>Node2&#45;&gt;Node5</title>
<path fill="none" stroke="midnightblue" d="M1945.91,-91.48C1703.19,-87.56 871.21,-72.21 607,-42 588.39,-39.87 568.12,-36.23 550.51,-32.63"/>
<polygon fill="midnightblue" stroke="midnightblue" points="551,-29.15 540.49,-30.52 549.56,-36 551,-29.15"/>
</g>
<!-- Node6 -->
<g id="node6" class="node">
<title>Node6</title>
<g id="a_node6"><a xlink:title=" ">
<polygon fill="none" stroke="#bfbfbf" points="616.5,-11.5 616.5,-30.5 765.5,-30.5 765.5,-11.5 616.5,-11.5"/>
<text text-anchor="middle" x="691" y="-18.5" font-family="Helvetica,sans-Serif" font-size="10.00">sensor_msgs/CameraInfo.h</text>
</a>
</g>
</g>
<!-- Node2&#45;&gt;Node6 -->
<g id="edge5" class="edge">
<title>Node2&#45;&gt;Node6</title>
<path fill="none" stroke="midnightblue" d="M1945.87,-91.5C1722.17,-87.88 1003.34,-73.99 774,-42 759.61,-39.99 744.07,-36.59 730.38,-33.16"/>
<polygon fill="midnightblue" stroke="midnightblue" points="730.87,-29.67 720.31,-30.55 729.11,-36.44 730.87,-29.67"/>
</g>
<!-- Node7 -->
<g id="node7" class="node">
<title>Node7</title>
<g id="a_node7"><a xlink:title=" ">
<polygon fill="none" stroke="#bfbfbf" points="783.5,-11.5 783.5,-30.5 906.5,-30.5 906.5,-11.5 783.5,-11.5"/>
<text text-anchor="middle" x="845" y="-18.5" font-family="Helvetica,sans-Serif" font-size="10.00">sensor_msgs/Image.h</text>
</a>
</g>
</g>
<!-- Node2&#45;&gt;Node7 -->
<g id="edge6" class="edge">
<title>Node2&#45;&gt;Node7</title>
<path fill="none" stroke="midnightblue" d="M1946,-91.46C1739.56,-87.92 1115.09,-74.73 915,-42 903.25,-40.08 890.68,-36.86 879.47,-33.57"/>
<polygon fill="midnightblue" stroke="midnightblue" points="880.21,-30.14 869.63,-30.55 878.16,-36.83 880.21,-30.14"/>
</g>
<!-- Node8 -->
<g id="node8" class="node">
<title>Node8</title>
<g id="a_node8"><a xlink:title=" ">
<polygon fill="none" stroke="#bfbfbf" points="924.5,-11.5 924.5,-30.5 1075.5,-30.5 1075.5,-11.5 924.5,-11.5"/>
<text text-anchor="middle" x="1000" y="-18.5" font-family="Helvetica,sans-Serif" font-size="10.00">sensor_msgs/PointCloud2.h</text>
</a>
</g>
</g>
<!-- Node2&#45;&gt;Node8 -->
<g id="edge7" class="edge">
<title>Node2&#45;&gt;Node8</title>
<path fill="none" stroke="midnightblue" d="M1945.93,-92.9C1792.6,-92.92 1405.02,-87.99 1085,-42 1070.27,-39.88 1054.34,-36.45 1040.29,-33.02"/>
<polygon fill="midnightblue" stroke="midnightblue" points="1040.99,-29.59 1030.44,-30.54 1039.28,-36.37 1040.99,-29.59"/>
</g>
<!-- Node9 -->
<g id="node9" class="node">
<title>Node9</title>
<g id="a_node9"><a xlink:title=" ">
<polygon fill="none" stroke="#bfbfbf" points="1094,-11.5 1094,-30.5 1234,-30.5 1234,-11.5 1094,-11.5"/>
<text text-anchor="middle" x="1164" y="-18.5" font-family="Helvetica,sans-Serif" font-size="10.00">sensor_msgs/PointField.h</text>
</a>
</g>
</g>
<!-- Node2&#45;&gt;Node9 -->
<g id="edge8" class="edge">
<title>Node2&#45;&gt;Node9</title>
<path fill="none" stroke="midnightblue" d="M1945.86,-92.2C1811.54,-90.7 1500.54,-82.7 1243,-42 1229.66,-39.89 1215.28,-36.57 1202.49,-33.24"/>
<polygon fill="midnightblue" stroke="midnightblue" points="1203.2,-29.81 1192.63,-30.59 1201.38,-36.57 1203.2,-29.81"/>
</g>
<!-- Node10 -->
<g id="node10" class="node">
<title>Node10</title>
<g id="a_node10"><a xlink:title=" ">
<polygon fill="none" stroke="#bfbfbf" points="1252,-11.5 1252,-30.5 1362,-30.5 1362,-11.5 1252,-11.5"/>
<text text-anchor="middle" x="1307" y="-18.5" font-family="Helvetica,sans-Serif" font-size="10.00">std_msgs/Header.h</text>
</a>
</g>
</g>
<!-- Node2&#45;&gt;Node10 -->
<g id="edge9" class="edge">
<title>Node2&#45;&gt;Node10</title>
<path fill="none" stroke="midnightblue" d="M1945.79,-92.15C1828.2,-90.44 1577.93,-81.94 1371,-42 1360.63,-40 1349.57,-36.9 1339.61,-33.74"/>
<polygon fill="midnightblue" stroke="midnightblue" points="1340.68,-30.41 1330.08,-30.59 1338.48,-37.05 1340.68,-30.41"/>
</g>
<!-- Node11 -->
<g id="node11" class="node">
<title>Node11</title>
<g id="a_node11"><a xlink:title=" ">
<polygon fill="none" stroke="#bfbfbf" points="1380.5,-11.5 1380.5,-30.5 1555.5,-30.5 1555.5,-11.5 1380.5,-11.5"/>
<text text-anchor="middle" x="1468" y="-18.5" font-family="Helvetica,sans-Serif" font-size="10.00">vision_msgs/Detection2DArray.h</text>
</a>
</g>
</g>
<!-- Node2&#45;&gt;Node11 -->
<g id="edge10" class="edge">
<title>Node2&#45;&gt;Node11</title>
<path fill="none" stroke="midnightblue" d="M1945.79,-86.91C1857.77,-79.15 1698.78,-63.57 1564,-42 1547.87,-39.42 1530.34,-35.96 1514.72,-32.65"/>
<polygon fill="midnightblue" stroke="midnightblue" points="1515.29,-29.19 1504.78,-30.5 1513.81,-36.03 1515.29,-29.19"/>
</g>
<!-- Node12 -->
<g id="node12" class="node">
<title>Node12</title>
<g id="a_node12"><a xlink:title=" ">
<polygon fill="none" stroke="#bfbfbf" points="1573.5,-6 1573.5,-36 1732.5,-36 1732.5,-6 1573.5,-6"/>
<text text-anchor="start" x="1581.5" y="-24" font-family="Helvetica,sans-Serif" font-size="10.00">seerep_msgs/boundingbox2d</text>
<text text-anchor="middle" x="1653" y="-13" font-family="Helvetica,sans-Serif" font-size="10.00">_labeled_generated.h</text>
</a>
</g>
</g>
<!-- Node2&#45;&gt;Node12 -->
<g id="edge11" class="edge">
<title>Node2&#45;&gt;Node12</title>
<path fill="none" stroke="midnightblue" d="M1945.79,-80.79C1890.65,-71 1810.62,-56.37 1741,-42 1735.3,-40.82 1729.4,-39.57 1723.48,-38.28"/>
<polygon fill="midnightblue" stroke="midnightblue" points="1724.04,-34.82 1713.52,-36.09 1722.54,-41.66 1724.04,-34.82"/>
</g>
<!-- Node13 -->
<g id="node13" class="node">
<title>Node13</title>
<g id="a_node13"><a xlink:title=" ">
<polygon fill="none" stroke="#bfbfbf" points="1750.5,-0.5 1750.5,-41.5 1909.5,-41.5 1909.5,-0.5 1750.5,-0.5"/>
<text text-anchor="start" x="1758.5" y="-29.5" font-family="Helvetica,sans-Serif" font-size="10.00">seerep_msgs/boundingbox2d</text>
<text text-anchor="start" x="1758.5" y="-18.5" font-family="Helvetica,sans-Serif" font-size="10.00">_labeled_with_category</text>
<text text-anchor="middle" x="1830" y="-7.5" font-family="Helvetica,sans-Serif" font-size="10.00">_generated.h</text>
</a>
</g>
</g>
<!-- Node2&#45;&gt;Node13 -->
<g id="edge12" class="edge">
<title>Node2&#45;&gt;Node13</title>
<path fill="none" stroke="midnightblue" d="M1976.41,-78.4C1951.76,-68.91 1918.68,-56.16 1890.2,-45.19"/>
<polygon fill="midnightblue" stroke="midnightblue" points="1891.33,-41.88 1880.74,-41.55 1888.81,-48.41 1891.33,-41.88"/>
</g>
<!-- Node14 -->
<g id="node14" class="node">
<title>Node14</title>
<g id="a_node14"><a xlink:title=" ">
<polygon fill="none" stroke="#bfbfbf" points="1928,-6 1928,-36 2098,-36 2098,-6 1928,-6"/>
<text text-anchor="start" x="1936" y="-24" font-family="Helvetica,sans-Serif" font-size="10.00">seerep_msgs/boundingboxes2d</text>
<text text-anchor="middle" x="2013" y="-13" font-family="Helvetica,sans-Serif" font-size="10.00">_labeled_stamped_generated.h</text>
</a>
</g>
</g>
<!-- Node2&#45;&gt;Node14 -->
<g id="edge13" class="edge">
<title>Node2&#45;&gt;Node14</title>
<path fill="none" stroke="midnightblue" d="M2013,-78.23C2013,-69.16 2013,-57.16 2013,-46.58"/>
<polygon fill="midnightblue" stroke="midnightblue" points="2016.5,-46.25 2013,-36.25 2009.5,-46.25 2016.5,-46.25"/>
</g>
<!-- Node15 -->
<g id="node15" class="node">
<title>Node15</title>
<g id="a_node15"><a xlink:title=" ">
<polygon fill="none" stroke="#bfbfbf" points="2116,-6 2116,-36 2246,-36 2246,-6 2116,-6"/>
<text text-anchor="start" x="2124" y="-24" font-family="Helvetica,sans-Serif" font-size="10.00">seerep_msgs/camera</text>
<text text-anchor="middle" x="2181" y="-13" font-family="Helvetica,sans-Serif" font-size="10.00">_intrinsics_generated.h</text>
</a>
</g>
</g>
<!-- Node2&#45;&gt;Node15 -->
<g id="edge14" class="edge">
<title>Node2&#45;&gt;Node15</title>
<path fill="none" stroke="midnightblue" d="M2046.59,-78.4C2072.92,-67.36 2109.73,-51.91 2138.17,-39.97"/>
<polygon fill="midnightblue" stroke="midnightblue" points="2139.6,-43.17 2147.46,-36.07 2136.89,-36.72 2139.6,-43.17"/>
</g>
<!-- Node16 -->
<g id="node16" class="node">
<title>Node16</title>
<g id="a_node16"><a xlink:title=" ">
<polygon fill="none" stroke="#bfbfbf" points="2264,-6 2264,-36 2382,-36 2382,-6 2264,-6"/>
<text text-anchor="start" x="2272" y="-24" font-family="Helvetica,sans-Serif" font-size="10.00">seerep_msgs/header</text>
<text text-anchor="middle" x="2323" y="-13" font-family="Helvetica,sans-Serif" font-size="10.00">_generated.h</text>
</a>
</g>
</g>
<!-- Node2&#45;&gt;Node16 -->
<g id="edge15" class="edge">
<title>Node2&#45;&gt;Node16</title>
<path fill="none" stroke="midnightblue" d="M2080.1,-80C2128.85,-70.55 2196.3,-56.73 2255,-42 2259.03,-40.99 2263.18,-39.9 2267.34,-38.76"/>
<polygon fill="midnightblue" stroke="midnightblue" points="2268.35,-42.11 2277.05,-36.06 2266.48,-35.37 2268.35,-42.11"/>
</g>
<!-- Node17 -->
<g id="node17" class="node">
<title>Node17</title>
<g id="a_node17"><a xlink:title=" ">
<polygon fill="none" stroke="#bfbfbf" points="2400.5,-11.5 2400.5,-30.5 2579.5,-30.5 2579.5,-11.5 2400.5,-11.5"/>
<text text-anchor="middle" x="2490" y="-18.5" font-family="Helvetica,sans-Serif" font-size="10.00">seerep_msgs/image_generated.h</text>
</a>
</g>
</g>
<!-- Node2&#45;&gt;Node17 -->
<g id="edge16" class="edge">
<title>Node2&#45;&gt;Node17</title>
<path fill="none" stroke="midnightblue" d="M2080.12,-84.9C2155.85,-76.01 2282.61,-60.17 2391,-42 2407.17,-39.29 2424.74,-35.89 2440.53,-32.67"/>
<polygon fill="midnightblue" stroke="midnightblue" points="2441.52,-36.04 2450.61,-30.58 2440.11,-29.18 2441.52,-36.04"/>
</g>
<!-- Node18 -->
<g id="node18" class="node">
<title>Node18</title>
<g id="a_node18"><a xlink:title=" ">
<polygon fill="none" stroke="#bfbfbf" points="2598,-6 2598,-36 2738,-36 2738,-6 2598,-6"/>
<text text-anchor="start" x="2606" y="-24" font-family="Helvetica,sans-Serif" font-size="10.00">seerep_msgs/point_cloud</text>
<text text-anchor="middle" x="2668" y="-13" font-family="Helvetica,sans-Serif" font-size="10.00">_2_generated.h</text>
</a>
</g>
</g>
<!-- Node2&#45;&gt;Node18 -->
<g id="edge17" class="edge">
<title>Node2&#45;&gt;Node18</title>
<path fill="none" stroke="midnightblue" d="M2080.4,-90.1C2188.41,-85.46 2406.64,-72.87 2589,-42 2595.13,-40.96 2601.49,-39.69 2607.81,-38.3"/>
<polygon fill="midnightblue" stroke="midnightblue" points="2608.73,-41.68 2617.68,-36.02 2607.15,-34.86 2608.73,-41.68"/>
</g>
<!-- Node19 -->
<g id="node19" class="node">
<title>Node19</title>
<g id="a_node19"><a xlink:title=" ">
<polygon fill="none" stroke="#bfbfbf" points="2756.5,-6 2756.5,-36 2891.5,-36 2891.5,-6 2756.5,-6"/>
<text text-anchor="start" x="2764.5" y="-24" font-family="Helvetica,sans-Serif" font-size="10.00">seerep_msgs/point_field</text>
<text text-anchor="middle" x="2824" y="-13" font-family="Helvetica,sans-Serif" font-size="10.00">_generated.h</text>
</a>
</g>
</g>
<!-- Node2&#45;&gt;Node19 -->
<g id="edge18" class="edge">
<title>Node2&#45;&gt;Node19</title>
<path fill="none" stroke="midnightblue" d="M2080.02,-92.03C2209.67,-90.21 2503.52,-81.64 2747,-42 2753.08,-41.01 2759.39,-39.76 2765.65,-38.36"/>
<polygon fill="midnightblue" stroke="midnightblue" points="2766.47,-41.76 2775.41,-36.07 2764.88,-34.95 2766.47,-41.76"/>
</g>
<!-- Node20 -->
<g id="node20" class="node">
<title>Node20</title>
<g id="a_node20"><a xlink:title=" ">
<polygon fill="none" stroke="#bfbfbf" points="2909.5,-6 2909.5,-36 3064.5,-36 3064.5,-6 2909.5,-6"/>
<text text-anchor="start" x="2917.5" y="-24" font-family="Helvetica,sans-Serif" font-size="10.00">seerep_msgs/pose_stamped</text>
<text text-anchor="middle" x="2987" y="-13" font-family="Helvetica,sans-Serif" font-size="10.00">_generated.h</text>
</a>
</g>
</g>
<!-- Node2&#45;&gt;Node20 -->
<g id="edge19" class="edge">
<title>Node2&#45;&gt;Node20</title>
<path fill="none" stroke="midnightblue" d="M2080.23,-92.6C2228.97,-91.97 2596.83,-85.69 2901,-42 2908.28,-40.95 2915.85,-39.6 2923.35,-38.08"/>
<polygon fill="midnightblue" stroke="midnightblue" points="2924.07,-41.51 2933.13,-36.02 2922.63,-34.66 2924.07,-41.51"/>
</g>
<!-- Node21 -->
<g id="node21" class="node">
<title>Node21</title>
<g id="a_node21"><a xlink:title=" ">
<polygon fill="none" stroke="#bfbfbf" points="3083,-6 3083,-36 3215,-36 3215,-6 3083,-6"/>
<text text-anchor="start" x="3091" y="-24" font-family="Helvetica,sans-Serif" font-size="10.00">seerep_msgs/transform</text>
<text text-anchor="middle" x="3149" y="-13" font-family="Helvetica,sans-Serif" font-size="10.00">_generated.h</text>
</a>
</g>
</g>
<!-- Node2&#45;&gt;Node21 -->
<g id="edge20" class="edge">
<title>Node2&#45;&gt;Node21</title>
<path fill="none" stroke="midnightblue" d="M2080.21,-91.17C2282.1,-86.89 2881.18,-71.95 3074,-42 3080.12,-41.05 3086.45,-39.8 3092.73,-38.38"/>
<polygon fill="midnightblue" stroke="midnightblue" points="3093.61,-41.77 3102.52,-36.04 3091.98,-34.96 3093.61,-41.77"/>
</g>
<!-- Node22 -->
<g id="node22" class="node">
<title>Node22</title>
<g id="a_node22"><a xlink:title=" ">
<polygon fill="none" stroke="#bfbfbf" points="3233,-6 3233,-36 3365,-36 3365,-6 3233,-6"/>
<text text-anchor="start" x="3241" y="-24" font-family="Helvetica,sans-Serif" font-size="10.00">seerep_msgs/transform</text>
<text text-anchor="middle" x="3299" y="-13" font-family="Helvetica,sans-Serif" font-size="10.00">_stamped_generated.h</text>
</a>
</g>
</g>
<!-- Node2&#45;&gt;Node22 -->
<g id="edge21" class="edge">
<title>Node2&#45;&gt;Node22</title>
<path fill="none" stroke="midnightblue" d="M2080.18,-91.63C2300.65,-88.49 3000.76,-76 3224,-42 3230.12,-41.07 3236.46,-39.83 3242.74,-38.42"/>
<polygon fill="midnightblue" stroke="midnightblue" points="3243.61,-41.81 3252.52,-36.08 3241.99,-35 3243.61,-41.81"/>
</g>
<!-- Node23 -->
<g id="node23" class="node">
<title>Node23</title>
<g id="a_node23"><a xlink:title=" ">
<polygon fill="none" stroke="#bfbfbf" points="3383.5,-6 3383.5,-36 3504.5,-36 3504.5,-6 3383.5,-6"/>
<text text-anchor="start" x="3391.5" y="-24" font-family="Helvetica,sans-Serif" font-size="10.00">seerep_msgs/vector3</text>
<text text-anchor="middle" x="3444" y="-13" font-family="Helvetica,sans-Serif" font-size="10.00">_generated.h</text>
</a>
</g>
</g>
<!-- Node2&#45;&gt;Node23 -->
<g id="edge22" class="edge">
<title>Node2&#45;&gt;Node23</title>
<path fill="none" stroke="midnightblue" d="M2080.08,-92.15C2317.97,-90.57 3120.49,-82.31 3374,-42 3379.54,-41.12 3385.26,-39.94 3390.94,-38.6"/>
<polygon fill="midnightblue" stroke="midnightblue" points="3392.22,-41.88 3401.05,-36.03 3390.5,-35.1 3392.22,-41.88"/>
</g>
<!-- Node24 -->
<g id="node24" class="node">
<title>Node24</title>
<g id="a_node24"><a xlink:title=" ">
<polygon fill="none" stroke="#bfbfbf" points="3523,-6 3523,-36 3651,-36 3651,-6 3523,-6"/>
<text text-anchor="start" x="3531" y="-24" font-family="Helvetica,sans-Serif" font-size="10.00">seerep_msgs/vector3</text>
<text text-anchor="middle" x="3587" y="-13" font-family="Helvetica,sans-Serif" font-size="10.00">_stamped_generated.h</text>
</a>
</g>
</g>
<!-- Node2&#45;&gt;Node24 -->
<g id="edge23" class="edge">
<title>Node2&#45;&gt;Node24</title>
<path fill="none" stroke="midnightblue" d="M2080.31,-92.32C2333.93,-91.33 3231.72,-84.81 3514,-42 3519.91,-41.1 3526.02,-39.89 3532.08,-38.51"/>
<polygon fill="midnightblue" stroke="midnightblue" points="3533.3,-41.82 3542.18,-36.05 3531.64,-35.02 3533.3,-41.82"/>
</g>
<!-- Node25 -->
<g id="node25" class="node">
<title>Node25</title>
<g id="a_node25"><a xlink:title=" ">
<polygon fill="none" stroke="#bfbfbf" points="3669.5,-11.5 3669.5,-30.5 3768.5,-30.5 3768.5,-11.5 3669.5,-11.5"/>
<text text-anchor="middle" x="3719" y="-18.5" font-family="Helvetica,sans-Serif" font-size="10.00">flatbuffers/grpc.h</text>
</a>
</g>
</g>
<!-- Node2&#45;&gt;Node25 -->
<g id="edge24" class="edge">
<title>Node2&#45;&gt;Node25</title>
<path fill="none" stroke="midnightblue" d="M2080.22,-91.61C2369.79,-87.63 3503.06,-70.35 3660,-42 3669.69,-40.25 3679.95,-37.21 3689.15,-34.03"/>
<polygon fill="midnightblue" stroke="midnightblue" points="3690.45,-37.28 3698.64,-30.57 3688.05,-30.71 3690.45,-37.28"/>
</g>
</g>
</svg>
