<?xml version="1.0" encoding="UTF-8" standalone="no"?>
<!DOCTYPE svg PUBLIC "-//W3C//DTD SVG 1.1//EN"
 "http://www.w3.org/Graphics/SVG/1.1/DTD/svg11.dtd">
<!-- Generated by graphviz version 2.43.0 (0)
 -->
<!-- Title: seerep_ros/seerep_ros_conversions_pb/src/seerep_ros_conversions_pb/conversions.cpp Pages: 1 -->
<svg width="2453pt" height="184pt"
 viewBox="0.00 0.00 2452.50 184.00" xmlns="http://www.w3.org/2000/svg" xmlns:xlink="http://www.w3.org/1999/xlink">
<g id="graph0" class="graph" transform="scale(1 1) rotate(0) translate(4 180)">
<title>seerep_ros/seerep_ros_conversions_pb/src/seerep_ros_conversions_pb/conversions.cpp</title>
<!-- Node1 -->
<g id="node1" class="node">
<title>Node1</title>
<g id="a_node1"><a xlink:title=" ">
<polygon fill="#bfbfbf" stroke="black" points="1142,-134.5 1142,-175.5 1342,-175.5 1342,-134.5 1142,-134.5"/>
<text text-anchor="start" x="1150" y="-163.5" font-family="Helvetica,sans-Serif" font-size="10.00">seerep_ros/seerep_ros</text>
<text text-anchor="start" x="1150" y="-152.5" font-family="Helvetica,sans-Serif" font-size="10.00">_conversions_pb/src/seerep</text>
<text text-anchor="middle" x="1242" y="-141.5" font-family="Helvetica,sans-Serif" font-size="10.00">_ros_conversions_pb/conversions.cpp</text>
</a>
</g>
</g>
<!-- Node2 -->
<g id="node2" class="node">
<title>Node2</title>
<g id="a_node2"><a xlink:href="seerep__ros__conversions__pb_2include_2seerep__ros__conversions__pb_2conversions_8h.html" target="_top" xlink:title=" ">
<polygon fill="none" stroke="black" points="1175,-67.5 1175,-97.5 1309,-97.5 1309,-67.5 1175,-67.5"/>
<text text-anchor="start" x="1183" y="-85.5" font-family="Helvetica,sans-Serif" font-size="10.00">seerep_ros_conversions</text>
<text text-anchor="middle" x="1242" y="-74.5" font-family="Helvetica,sans-Serif" font-size="10.00">_pb/conversions.h</text>
</a>
</g>
</g>
<!-- Node1&#45;&gt;Node2 -->
<g id="edge1" class="edge">
<title>Node1&#45;&gt;Node2</title>
<path fill="none" stroke="midnightblue" d="M1242,-134.36C1242,-126.23 1242,-116.7 1242,-108.11"/>
<polygon fill="midnightblue" stroke="midnightblue" points="1245.5,-107.89 1242,-97.89 1238.5,-107.89 1245.5,-107.89"/>
</g>
<!-- Node3 -->
<g id="node3" class="node">
<title>Node3</title>
<g id="a_node3"><a xlink:title=" ">
<polygon fill="none" stroke="#bfbfbf" points="0,-6 0,-25 132,-25 132,-6 0,-6"/>
<text text-anchor="middle" x="66" y="-13" font-family="Helvetica,sans-Serif" font-size="10.00">geometry_msgs/Point.h</text>
</a>
</g>
</g>
<!-- Node2&#45;&gt;Node3 -->
<g id="edge2" class="edge">
<title>Node2&#45;&gt;Node3</title>
<path fill="none" stroke="midnightblue" d="M1174.7,-81.8C1002.21,-81.85 530.51,-77.34 141,-31 132.29,-29.96 123.08,-28.5 114.2,-26.89"/>
<polygon fill="midnightblue" stroke="midnightblue" points="114.85,-23.45 104.37,-25.03 113.55,-30.33 114.85,-23.45"/>
</g>
<!-- Node4 -->
<g id="node4" class="node">
<title>Node4</title>
<g id="a_node4"><a xlink:title=" ">
<polygon fill="none" stroke="#bfbfbf" points="150,-6 150,-25 350,-25 350,-6 150,-6"/>
<text text-anchor="middle" x="250" y="-13" font-family="Helvetica,sans-Serif" font-size="10.00">geometry_msgs/TransformStamped.h</text>
</a>
</g>
</g>
<!-- Node2&#45;&gt;Node4 -->
<g id="edge3" class="edge">
<title>Node2&#45;&gt;Node4</title>
<path fill="none" stroke="midnightblue" d="M1174.85,-79.38C1027.11,-74.34 662.81,-59.85 359,-31 345.75,-29.74 331.63,-28.09 318.1,-26.36"/>
<polygon fill="midnightblue" stroke="midnightblue" points="318.26,-22.85 307.89,-25.02 317.35,-29.79 318.26,-22.85"/>
</g>
<!-- Node5 -->
<g id="node5" class="node">
<title>Node5</title>
<g id="a_node5"><a xlink:title=" ">
<polygon fill="none" stroke="#bfbfbf" points="368,-6 368,-25 556,-25 556,-6 368,-6"/>
<text text-anchor="middle" x="462" y="-13" font-family="Helvetica,sans-Serif" font-size="10.00">geometry_msgs/Vector3Stamped.h</text>
</a>
</g>
</g>
<!-- Node2&#45;&gt;Node5 -->
<g id="edge4" class="edge">
<title>Node2&#45;&gt;Node5</title>
<path fill="none" stroke="midnightblue" d="M1174.6,-77.94C1052.73,-71.17 787.65,-54.95 565,-31 553.01,-29.71 540.26,-28.11 527.97,-26.44"/>
<polygon fill="midnightblue" stroke="midnightblue" points="528.16,-22.93 517.78,-25.03 527.2,-29.87 528.16,-22.93"/>
</g>
<!-- Node6 -->
<g id="node6" class="node">
<title>Node6</title>
<g id="a_node6"><a xlink:title=" ">
<polygon fill="none" stroke="#bfbfbf" points="574.5,-6 574.5,-25 697.5,-25 697.5,-6 574.5,-6"/>
<text text-anchor="middle" x="636" y="-13" font-family="Helvetica,sans-Serif" font-size="10.00">sensor_msgs/Image.h</text>
</a>
</g>
</g>
<!-- Node2&#45;&gt;Node6 -->
<g id="edge5" class="edge">
<title>Node2&#45;&gt;Node6</title>
<path fill="none" stroke="midnightblue" d="M1174.86,-77.56C1073.07,-71.05 873.76,-56.2 706,-31 698.58,-29.88 690.75,-28.49 683.13,-27"/>
<polygon fill="midnightblue" stroke="midnightblue" points="683.78,-23.56 673.28,-25.02 682.39,-30.42 683.78,-23.56"/>
</g>
<!-- Node7 -->
<g id="node7" class="node">
<title>Node7</title>
<g id="a_node7"><a xlink:title=" ">
<polygon fill="none" stroke="#bfbfbf" points="715.5,-6 715.5,-25 866.5,-25 866.5,-6 715.5,-6"/>
<text text-anchor="middle" x="791" y="-13" font-family="Helvetica,sans-Serif" font-size="10.00">sensor_msgs/PointCloud2.h</text>
</a>
</g>
</g>
<!-- Node2&#45;&gt;Node7 -->
<g id="edge6" class="edge">
<title>Node2&#45;&gt;Node7</title>
<path fill="none" stroke="midnightblue" d="M1174.79,-72.88C1101.3,-63.3 980.12,-47.06 876,-31 867.4,-29.67 858.32,-28.2 849.43,-26.72"/>
<polygon fill="midnightblue" stroke="midnightblue" points="849.94,-23.26 839.5,-25.05 848.78,-30.16 849.94,-23.26"/>
</g>
<!-- Node8 -->
<g id="node8" class="node">
<title>Node8</title>
<g id="a_node8"><a xlink:title=" ">
<polygon fill="none" stroke="#bfbfbf" points="885,-6 885,-25 1025,-25 1025,-6 885,-6"/>
<text text-anchor="middle" x="955" y="-13" font-family="Helvetica,sans-Serif" font-size="10.00">sensor_msgs/PointField.h</text>
</a>
</g>
</g>
<!-- Node2&#45;&gt;Node8 -->
<g id="edge7" class="edge">
<title>Node2&#45;&gt;Node8</title>
<path fill="none" stroke="midnightblue" d="M1180.08,-67.48C1126.85,-55.42 1051.19,-38.29 1002.6,-27.28"/>
<polygon fill="midnightblue" stroke="midnightblue" points="1003.18,-23.82 992.66,-25.03 1001.64,-30.65 1003.18,-23.82"/>
</g>
<!-- Node9 -->
<g id="node9" class="node">
<title>Node9</title>
<g id="a_node9"><a xlink:title=" ">
<polygon fill="none" stroke="#bfbfbf" points="1043,-6 1043,-25 1153,-25 1153,-6 1043,-6"/>
<text text-anchor="middle" x="1098" y="-13" font-family="Helvetica,sans-Serif" font-size="10.00">std_msgs/Header.h</text>
</a>
</g>
</g>
<!-- Node2&#45;&gt;Node9 -->
<g id="edge8" class="edge">
<title>Node2&#45;&gt;Node9</title>
<path fill="none" stroke="midnightblue" d="M1210.75,-67.4C1185.6,-56.04 1150.55,-40.22 1126.23,-29.24"/>
<polygon fill="midnightblue" stroke="midnightblue" points="1127.4,-25.93 1116.85,-25.01 1124.52,-32.31 1127.4,-25.93"/>
</g>
<!-- Node10 -->
<g id="node10" class="node">
<title>Node10</title>
<g id="a_node10"><a xlink:title=" ">
<polygon fill="none" stroke="#bfbfbf" points="1171.5,-6 1171.5,-25 1312.5,-25 1312.5,-6 1171.5,-6"/>
<text text-anchor="middle" x="1242" y="-13" font-family="Helvetica,sans-Serif" font-size="10.00">seerep_msgs/header.pb.h</text>
</a>
</g>
</g>
<!-- Node2&#45;&gt;Node10 -->
<g id="edge9" class="edge">
<title>Node2&#45;&gt;Node10</title>
<path fill="none" stroke="midnightblue" d="M1242,-67.4C1242,-58.06 1242,-45.71 1242,-35.52"/>
<polygon fill="midnightblue" stroke="midnightblue" points="1245.5,-35.19 1242,-25.19 1238.5,-35.19 1245.5,-35.19"/>
</g>
<!-- Node11 -->
<g id="node11" class="node">
<title>Node11</title>
<g id="a_node11"><a xlink:title=" ">
<polygon fill="none" stroke="#bfbfbf" points="1330.5,-6 1330.5,-25 1469.5,-25 1469.5,-6 1330.5,-6"/>
<text text-anchor="middle" x="1400" y="-13" font-family="Helvetica,sans-Serif" font-size="10.00">seerep_msgs/image.pb.h</text>
</a>
</g>
</g>
<!-- Node2&#45;&gt;Node11 -->
<g id="edge10" class="edge">
<title>Node2&#45;&gt;Node11</title>
<path fill="none" stroke="midnightblue" d="M1276.28,-67.4C1304.13,-55.94 1343.03,-39.94 1369.73,-28.95"/>
<polygon fill="midnightblue" stroke="midnightblue" points="1371.41,-32.05 1379.32,-25.01 1368.74,-25.57 1371.41,-32.05"/>
</g>
<!-- Node12 -->
<g id="node12" class="node">
<title>Node12</title>
<g id="a_node12"><a xlink:title=" ">
<polygon fill="none" stroke="#bfbfbf" points="1487.5,-6 1487.5,-25 1620.5,-25 1620.5,-6 1487.5,-6"/>
<text text-anchor="middle" x="1554" y="-13" font-family="Helvetica,sans-Serif" font-size="10.00">seerep_msgs/point.pb.h</text>
</a>
</g>
</g>
<!-- Node2&#45;&gt;Node12 -->
<g id="edge11" class="edge">
<title>Node2&#45;&gt;Node12</title>
<path fill="none" stroke="midnightblue" d="M1309.32,-67.48C1367.54,-55.34 1450.46,-38.07 1503.25,-27.07"/>
<polygon fill="midnightblue" stroke="midnightblue" points="1503.99,-30.49 1513.06,-25.03 1502.56,-23.64 1503.99,-30.49"/>
</g>
<!-- Node13 -->
<g id="node13" class="node">
<title>Node13</title>
<g id="a_node13"><a xlink:title=" ">
<polygon fill="none" stroke="#bfbfbf" points="1639,-0.5 1639,-30.5 1779,-30.5 1779,-0.5 1639,-0.5"/>
<text text-anchor="start" x="1647" y="-18.5" font-family="Helvetica,sans-Serif" font-size="10.00">seerep_msgs/point_cloud</text>
<text text-anchor="middle" x="1709" y="-7.5" font-family="Helvetica,sans-Serif" font-size="10.00">_2.pb.h</text>
</a>
</g>
</g>
<!-- Node2&#45;&gt;Node13 -->
<g id="edge12" class="edge">
<title>Node2&#45;&gt;Node13</title>
<path fill="none" stroke="midnightblue" d="M1309.09,-73.84C1384.45,-65 1510.62,-49.47 1628.87,-31.13"/>
<polygon fill="midnightblue" stroke="midnightblue" points="1629.48,-34.58 1638.82,-29.58 1628.4,-27.66 1629.48,-34.58"/>
</g>
<!-- Node14 -->
<g id="node14" class="node">
<title>Node14</title>
<g id="a_node14"><a xlink:title=" ">
<polygon fill="none" stroke="#bfbfbf" points="1797.5,-6 1797.5,-25 1956.5,-25 1956.5,-6 1797.5,-6"/>
<text text-anchor="middle" x="1877" y="-13" font-family="Helvetica,sans-Serif" font-size="10.00">seerep_msgs/point_field.pb.h</text>
</a>
</g>
</g>
<!-- Node2&#45;&gt;Node14 -->
<g id="edge13" class="edge">
<title>Node2&#45;&gt;Node14</title>
<path fill="none" stroke="midnightblue" d="M1309.41,-76.78C1412.67,-69.2 1616.14,-52.92 1788,-31 1797.9,-29.74 1808.39,-28.2 1818.56,-26.61"/>
<polygon fill="midnightblue" stroke="midnightblue" points="1819.27,-30.05 1828.59,-25.01 1818.16,-23.13 1819.27,-30.05"/>
</g>
<!-- Node15 -->
<g id="node15" class="node">
<title>Node15</title>
<g id="a_node15"><a xlink:title=" ">
<polygon fill="none" stroke="#bfbfbf" points="1975,-6 1975,-25 2131,-25 2131,-6 1975,-6"/>
<text text-anchor="middle" x="2053" y="-13" font-family="Helvetica,sans-Serif" font-size="10.00">seerep_msgs/transform.pb.h</text>
</a>
</g>
</g>
<!-- Node2&#45;&gt;Node15 -->
<g id="edge14" class="edge">
<title>Node2&#45;&gt;Node15</title>
<path fill="none" stroke="midnightblue" d="M1309.08,-78.96C1437.13,-73.65 1725.12,-59.41 1966,-31 1975.92,-29.83 1986.44,-28.31 1996.6,-26.71"/>
<polygon fill="midnightblue" stroke="midnightblue" points="1997.3,-30.14 2006.61,-25.07 1996.18,-23.23 1997.3,-30.14"/>
</g>
<!-- Node16 -->
<g id="node16" class="node">
<title>Node16</title>
<g id="a_node16"><a xlink:title=" ">
<polygon fill="none" stroke="#bfbfbf" points="2149,-0.5 2149,-30.5 2281,-30.5 2281,-0.5 2149,-0.5"/>
<text text-anchor="start" x="2157" y="-18.5" font-family="Helvetica,sans-Serif" font-size="10.00">seerep_msgs/transform</text>
<text text-anchor="middle" x="2215" y="-7.5" font-family="Helvetica,sans-Serif" font-size="10.00">_stamped.pb.h</text>
</a>
</g>
</g>
<!-- Node2&#45;&gt;Node16 -->
<g id="edge15" class="edge">
<title>Node2&#45;&gt;Node16</title>
<path fill="none" stroke="midnightblue" d="M1309.02,-80.81C1457.04,-78.63 1823.08,-69.57 2138.56,-31.06"/>
<polygon fill="midnightblue" stroke="midnightblue" points="2139.33,-34.49 2148.82,-29.8 2138.47,-27.55 2139.33,-34.49"/>
</g>
<!-- Node17 -->
<g id="node17" class="node">
<title>Node17</title>
<g id="a_node17"><a xlink:title=" ">
<polygon fill="none" stroke="#bfbfbf" points="2299.5,-6 2299.5,-25 2444.5,-25 2444.5,-6 2299.5,-6"/>
<text text-anchor="middle" x="2372" y="-13" font-family="Helvetica,sans-Serif" font-size="10.00">seerep_msgs/vector3.pb.h</text>
</a>
</g>
</g>
<!-- Node2&#45;&gt;Node17 -->
<g id="edge16" class="edge">
<title>Node2&#45;&gt;Node17</title>
<path fill="none" stroke="midnightblue" d="M1309.06,-81.21C1475.58,-79.86 1921.17,-72.33 2290,-31 2299.6,-29.92 2309.77,-28.42 2319.56,-26.79"/>
<polygon fill="midnightblue" stroke="midnightblue" points="2320.33,-30.21 2329.59,-25.06 2319.14,-23.31 2320.33,-30.21"/>
</g>
</g>
</svg>
