<?xml version="1.0" encoding="UTF-8" standalone="no"?>
<!DOCTYPE svg PUBLIC "-//W3C//DTD SVG 1.1//EN"
 "http://www.w3.org/Graphics/SVG/1.1/DTD/svg11.dtd">
<!-- Generated by graphviz version 2.43.0 (0)
 -->
<!-- Title: seerep&#45;ros/seerep_ros_conversions_pb/src/seerep_ros_conversions_pb/conversions.cpp Pages: 1 -->
<svg width="2667pt" height="184pt"
 viewBox="0.00 0.00 2666.50 184.00" xmlns="http://www.w3.org/2000/svg" xmlns:xlink="http://www.w3.org/1999/xlink">
<g id="graph0" class="graph" transform="scale(1 1) rotate(0) translate(4 180)">
<title>seerep&#45;ros/seerep_ros_conversions_pb/src/seerep_ros_conversions_pb/conversions.cpp</title>
<!-- Node1 -->
<g id="node1" class="node">
<title>Node1</title>
<g id="a_node1"><a xlink:title=" ">
<polygon fill="#bfbfbf" stroke="black" points="1261,-134.5 1261,-175.5 1461,-175.5 1461,-134.5 1261,-134.5"/>
<text text-anchor="start" x="1269" y="-163.5" font-family="Helvetica,sans-Serif" font-size="10.00">seerep&#45;ros/seerep_ros</text>
<text text-anchor="start" x="1269" y="-152.5" font-family="Helvetica,sans-Serif" font-size="10.00">_conversions_pb/src/seerep</text>
<text text-anchor="middle" x="1361" y="-141.5" font-family="Helvetica,sans-Serif" font-size="10.00">_ros_conversions_pb/conversions.cpp</text>
</a>
</g>
</g>
<!-- Node2 -->
<g id="node2" class="node">
<title>Node2</title>
<g id="a_node2"><a xlink:href="seerep__ros__conversions__pb_2include_2seerep__ros__conversions__pb_2conversions_8h.html" target="_top" xlink:title=" ">
<polygon fill="none" stroke="black" points="1294,-67.5 1294,-97.5 1428,-97.5 1428,-67.5 1294,-67.5"/>
<text text-anchor="start" x="1302" y="-85.5" font-family="Helvetica,sans-Serif" font-size="10.00">seerep_ros_conversions</text>
<text text-anchor="middle" x="1361" y="-74.5" font-family="Helvetica,sans-Serif" font-size="10.00">_pb/conversions.h</text>
</a>
</g>
</g>
<!-- Node1&#45;&gt;Node2 -->
<g id="edge1" class="edge">
<title>Node1&#45;&gt;Node2</title>
<path fill="none" stroke="midnightblue" d="M1361,-134.36C1361,-126.23 1361,-116.7 1361,-108.11"/>
<polygon fill="midnightblue" stroke="midnightblue" points="1364.5,-107.89 1361,-97.89 1357.5,-107.89 1364.5,-107.89"/>
</g>
<!-- Node3 -->
<g id="node3" class="node">
<title>Node3</title>
<g id="a_node3"><a xlink:title=" ">
<polygon fill="none" stroke="#bfbfbf" points="0,-6 0,-25 174,-25 174,-6 0,-6"/>
<text text-anchor="middle" x="87" y="-13" font-family="Helvetica,sans-Serif" font-size="10.00">geometry_msgs/PoseStamped.h</text>
</a>
</g>
</g>
<!-- Node2&#45;&gt;Node3 -->
<g id="edge2" class="edge">
<title>Node2&#45;&gt;Node3</title>
<path fill="none" stroke="midnightblue" d="M1293.75,-81.13C1113.43,-79.61 604.26,-71.73 183,-31 171.2,-29.86 158.64,-28.25 146.63,-26.52"/>
<polygon fill="midnightblue" stroke="midnightblue" points="147.11,-23.05 136.7,-25.04 146.08,-29.98 147.11,-23.05"/>
</g>
<!-- Node4 -->
<g id="node4" class="node">
<title>Node4</title>
<g id="a_node4"><a xlink:title=" ">
<polygon fill="none" stroke="#bfbfbf" points="192,-6 192,-25 392,-25 392,-6 192,-6"/>
<text text-anchor="middle" x="292" y="-13" font-family="Helvetica,sans-Serif" font-size="10.00">geometry_msgs/TransformStamped.h</text>
</a>
</g>
</g>
<!-- Node2&#45;&gt;Node4 -->
<g id="edge3" class="edge">
<title>Node2&#45;&gt;Node4</title>
<path fill="none" stroke="midnightblue" d="M1293.94,-79.81C1137.34,-75.47 735.45,-61.99 401,-31 387.67,-29.76 373.46,-28.12 359.86,-26.38"/>
<polygon fill="midnightblue" stroke="midnightblue" points="359.97,-22.86 349.6,-25.04 359.06,-29.8 359.97,-22.86"/>
</g>
<!-- Node5 -->
<g id="node5" class="node">
<title>Node5</title>
<g id="a_node5"><a xlink:title=" ">
<polygon fill="none" stroke="#bfbfbf" points="410,-6 410,-25 598,-25 598,-6 410,-6"/>
<text text-anchor="middle" x="504" y="-13" font-family="Helvetica,sans-Serif" font-size="10.00">geometry_msgs/Vector3Stamped.h</text>
</a>
</g>
</g>
<!-- Node2&#45;&gt;Node5 -->
<g id="edge4" class="edge">
<title>Node2&#45;&gt;Node5</title>
<path fill="none" stroke="midnightblue" d="M1293.78,-78.65C1161.85,-72.68 859.84,-57.23 607,-31 594.74,-29.73 581.7,-28.1 569.16,-26.41"/>
<polygon fill="midnightblue" stroke="midnightblue" points="569.62,-22.94 559.23,-25.03 568.66,-29.87 569.62,-22.94"/>
</g>
<!-- Node6 -->
<g id="node6" class="node">
<title>Node6</title>
<g id="a_node6"><a xlink:title=" ">
<polygon fill="none" stroke="#bfbfbf" points="616.5,-6 616.5,-25 739.5,-25 739.5,-6 616.5,-6"/>
<text text-anchor="middle" x="678" y="-13" font-family="Helvetica,sans-Serif" font-size="10.00">sensor_msgs/Image.h</text>
</a>
</g>
</g>
<!-- Node2&#45;&gt;Node6 -->
<g id="edge5" class="edge">
<title>Node2&#45;&gt;Node6</title>
<path fill="none" stroke="midnightblue" d="M1293.57,-78.64C1180.37,-73.24 945.11,-59.43 748,-31 740.48,-29.92 732.56,-28.52 724.86,-27.03"/>
<polygon fill="midnightblue" stroke="midnightblue" points="725.4,-23.57 714.91,-25.02 724.02,-30.43 725.4,-23.57"/>
</g>
<!-- Node7 -->
<g id="node7" class="node">
<title>Node7</title>
<g id="a_node7"><a xlink:title=" ">
<polygon fill="none" stroke="#bfbfbf" points="757.5,-6 757.5,-25 908.5,-25 908.5,-6 757.5,-6"/>
<text text-anchor="middle" x="833" y="-13" font-family="Helvetica,sans-Serif" font-size="10.00">sensor_msgs/PointCloud2.h</text>
</a>
</g>
</g>
<!-- Node2&#45;&gt;Node7 -->
<g id="edge6" class="edge">
<title>Node2&#45;&gt;Node7</title>
<path fill="none" stroke="midnightblue" d="M1293.68,-75C1206.73,-66.33 1050.77,-49.88 918,-31 908.97,-29.72 899.42,-28.22 890.11,-26.69"/>
<polygon fill="midnightblue" stroke="midnightblue" points="890.58,-23.22 880.14,-25.02 889.42,-30.12 890.58,-23.22"/>
</g>
<!-- Node8 -->
<g id="node8" class="node">
<title>Node8</title>
<g id="a_node8"><a xlink:title=" ">
<polygon fill="none" stroke="#bfbfbf" points="927,-6 927,-25 1067,-25 1067,-6 927,-6"/>
<text text-anchor="middle" x="997" y="-13" font-family="Helvetica,sans-Serif" font-size="10.00">sensor_msgs/PointField.h</text>
</a>
</g>
</g>
<!-- Node2&#45;&gt;Node8 -->
<g id="edge7" class="edge">
<title>Node2&#45;&gt;Node8</title>
<path fill="none" stroke="midnightblue" d="M1293.89,-69.73C1236.13,-59.57 1150.55,-44.45 1076,-31 1068.65,-29.67 1060.92,-28.27 1053.29,-26.88"/>
<polygon fill="midnightblue" stroke="midnightblue" points="1053.83,-23.42 1043.36,-25.06 1052.57,-30.3 1053.83,-23.42"/>
</g>
<!-- Node9 -->
<g id="node9" class="node">
<title>Node9</title>
<g id="a_node9"><a xlink:title=" ">
<polygon fill="none" stroke="#bfbfbf" points="1085,-6 1085,-25 1195,-25 1195,-6 1085,-6"/>
<text text-anchor="middle" x="1140" y="-13" font-family="Helvetica,sans-Serif" font-size="10.00">std_msgs/Header.h</text>
</a>
</g>
</g>
<!-- Node2&#45;&gt;Node9 -->
<g id="edge8" class="edge">
<title>Node2&#45;&gt;Node9</title>
<path fill="none" stroke="midnightblue" d="M1313.32,-67.48C1273.19,-55.67 1216.5,-39 1179.03,-27.98"/>
<polygon fill="midnightblue" stroke="midnightblue" points="1179.58,-24.49 1169,-25.03 1177.6,-31.21 1179.58,-24.49"/>
</g>
<!-- Node10 -->
<g id="node10" class="node">
<title>Node10</title>
<g id="a_node10"><a xlink:title=" ">
<polygon fill="none" stroke="#bfbfbf" points="1213,-6 1213,-25 1353,-25 1353,-6 1213,-6"/>
<text text-anchor="middle" x="1283" y="-13" font-family="Helvetica,sans-Serif" font-size="10.00">seerep&#45;msgs/header.pb.h</text>
</a>
</g>
</g>
<!-- Node2&#45;&gt;Node10 -->
<g id="edge9" class="edge">
<title>Node2&#45;&gt;Node10</title>
<path fill="none" stroke="midnightblue" d="M1344.08,-67.4C1331.43,-56.86 1314.17,-42.48 1301.23,-31.69"/>
<polygon fill="midnightblue" stroke="midnightblue" points="1303.36,-28.91 1293.43,-25.19 1298.88,-34.29 1303.36,-28.91"/>
</g>
<!-- Node11 -->
<g id="node11" class="node">
<title>Node11</title>
<g id="a_node11"><a xlink:title=" ">
<polygon fill="none" stroke="#bfbfbf" points="1371.5,-6 1371.5,-25 1508.5,-25 1508.5,-6 1371.5,-6"/>
<text text-anchor="middle" x="1440" y="-13" font-family="Helvetica,sans-Serif" font-size="10.00">seerep&#45;msgs/image.pb.h</text>
</a>
</g>
</g>
<!-- Node2&#45;&gt;Node11 -->
<g id="edge10" class="edge">
<title>Node2&#45;&gt;Node11</title>
<path fill="none" stroke="midnightblue" d="M1378.14,-67.4C1390.95,-56.86 1408.43,-42.48 1421.54,-31.69"/>
<polygon fill="midnightblue" stroke="midnightblue" points="1423.93,-34.25 1429.43,-25.19 1419.49,-28.85 1423.93,-34.25"/>
</g>
<!-- Node12 -->
<g id="node12" class="node">
<title>Node12</title>
<g id="a_node12"><a xlink:title=" ">
<polygon fill="none" stroke="#bfbfbf" points="1526.5,-0.5 1526.5,-30.5 1665.5,-30.5 1665.5,-0.5 1526.5,-0.5"/>
<text text-anchor="start" x="1534.5" y="-18.5" font-family="Helvetica,sans-Serif" font-size="10.00">seerep&#45;msgs/point_cloud</text>
<text text-anchor="middle" x="1596" y="-7.5" font-family="Helvetica,sans-Serif" font-size="10.00">_2.pb.h</text>
</a>
</g>
</g>
<!-- Node2&#45;&gt;Node12 -->
<g id="edge11" class="edge">
<title>Node2&#45;&gt;Node12</title>
<path fill="none" stroke="midnightblue" d="M1411.7,-67.48C1447.87,-57.47 1496.68,-43.97 1534.98,-33.38"/>
<polygon fill="midnightblue" stroke="midnightblue" points="1536.28,-36.65 1544.98,-30.61 1534.41,-29.9 1536.28,-36.65"/>
</g>
<!-- Node13 -->
<g id="node13" class="node">
<title>Node13</title>
<g id="a_node13"><a xlink:title=" ">
<polygon fill="none" stroke="#bfbfbf" points="1684,-6 1684,-25 1842,-25 1842,-6 1684,-6"/>
<text text-anchor="middle" x="1763" y="-13" font-family="Helvetica,sans-Serif" font-size="10.00">seerep&#45;msgs/point_field.pb.h</text>
</a>
</g>
</g>
<!-- Node2&#45;&gt;Node13 -->
<g id="edge12" class="edge">
<title>Node2&#45;&gt;Node13</title>
<path fill="none" stroke="midnightblue" d="M1428.08,-70.79C1491.67,-60.62 1589.85,-44.86 1675,-31 1683.55,-29.61 1692.57,-28.13 1701.44,-26.68"/>
<polygon fill="midnightblue" stroke="midnightblue" points="1702.05,-30.12 1711.35,-25.04 1700.92,-23.21 1702.05,-30.12"/>
</g>
<!-- Node14 -->
<g id="node14" class="node">
<title>Node14</title>
<g id="a_node14"><a xlink:title=" ">
<polygon fill="none" stroke="#bfbfbf" points="1860,-6 1860,-25 2038,-25 2038,-6 1860,-6"/>
<text text-anchor="middle" x="1949" y="-13" font-family="Helvetica,sans-Serif" font-size="10.00">seerep&#45;msgs/pose_stamped.pb.h</text>
</a>
</g>
</g>
<!-- Node2&#45;&gt;Node14 -->
<g id="edge13" class="edge">
<title>Node2&#45;&gt;Node14</title>
<path fill="none" stroke="midnightblue" d="M1428.08,-75.53C1522.56,-66.91 1700.17,-49.92 1851,-31 1861.78,-29.65 1873.21,-28.08 1884.3,-26.49"/>
<polygon fill="midnightblue" stroke="midnightblue" points="1884.98,-29.92 1894.37,-25.02 1883.97,-23 1884.98,-29.92"/>
</g>
<!-- Node15 -->
<g id="node15" class="node">
<title>Node15</title>
<g id="a_node15"><a xlink:title=" ">
<polygon fill="none" stroke="#bfbfbf" points="2056.5,-6 2056.5,-25 2211.5,-25 2211.5,-6 2056.5,-6"/>
<text text-anchor="middle" x="2134" y="-13" font-family="Helvetica,sans-Serif" font-size="10.00">seerep&#45;msgs/transform.pb.h</text>
</a>
</g>
</g>
<!-- Node2&#45;&gt;Node15 -->
<g id="edge14" class="edge">
<title>Node2&#45;&gt;Node15</title>
<path fill="none" stroke="midnightblue" d="M1428.38,-78.59C1551.55,-72.82 1821.12,-58.08 2047,-31 2056.92,-29.81 2067.44,-28.29 2077.6,-26.67"/>
<polygon fill="midnightblue" stroke="midnightblue" points="2078.3,-30.1 2087.61,-25.04 2077.17,-23.2 2078.3,-30.1"/>
</g>
<!-- Node16 -->
<g id="node16" class="node">
<title>Node16</title>
<g id="a_node16"><a xlink:title=" ">
<polygon fill="none" stroke="#bfbfbf" points="2229.5,-0.5 2229.5,-30.5 2360.5,-30.5 2360.5,-0.5 2229.5,-0.5"/>
<text text-anchor="start" x="2237.5" y="-18.5" font-family="Helvetica,sans-Serif" font-size="10.00">seerep&#45;msgs/transform</text>
<text text-anchor="middle" x="2295" y="-7.5" font-family="Helvetica,sans-Serif" font-size="10.00">_stamped.pb.h</text>
</a>
</g>
</g>
<!-- Node2&#45;&gt;Node16 -->
<g id="edge15" class="edge">
<title>Node2&#45;&gt;Node16</title>
<path fill="none" stroke="midnightblue" d="M1428.19,-80.63C1571.79,-78.11 1919.3,-68.46 2219.11,-31.13"/>
<polygon fill="midnightblue" stroke="midnightblue" points="2219.82,-34.57 2229.31,-29.85 2218.95,-27.62 2219.82,-34.57"/>
</g>
<!-- Node17 -->
<g id="node17" class="node">
<title>Node17</title>
<g id="a_node17"><a xlink:title=" ">
<polygon fill="none" stroke="#bfbfbf" points="2378.5,-6 2378.5,-25 2521.5,-25 2521.5,-6 2378.5,-6"/>
<text text-anchor="middle" x="2450" y="-13" font-family="Helvetica,sans-Serif" font-size="10.00">seerep&#45;msgs/vector3.pb.h</text>
</a>
</g>
</g>
<!-- Node2&#45;&gt;Node17 -->
<g id="edge16" class="edge">
<title>Node2&#45;&gt;Node17</title>
<path fill="none" stroke="midnightblue" d="M1428.25,-81.13C1590.66,-79.59 2016.94,-71.66 2370,-31 2379.27,-29.93 2389.08,-28.45 2398.54,-26.84"/>
<polygon fill="midnightblue" stroke="midnightblue" points="2399.39,-30.24 2408.63,-25.05 2398.17,-23.35 2399.39,-30.24"/>
</g>
<!-- Node18 -->
<g id="node18" class="node">
<title>Node18</title>
<g id="a_node18"><a xlink:title=" ">
<polygon fill="none" stroke="#bfbfbf" points="2539.5,-0.5 2539.5,-30.5 2658.5,-30.5 2658.5,-0.5 2539.5,-0.5"/>
<text text-anchor="start" x="2547.5" y="-18.5" font-family="Helvetica,sans-Serif" font-size="10.00">seerep&#45;msgs/vector3</text>
<text text-anchor="middle" x="2599" y="-7.5" font-family="Helvetica,sans-Serif" font-size="10.00">_stamped.pb.h</text>
</a>
</g>
</g>
<!-- Node2&#45;&gt;Node18 -->
<g id="edge17" class="edge">
<title>Node2&#45;&gt;Node18</title>
<path fill="none" stroke="midnightblue" d="M1428.09,-80.08C1640.23,-75.35 2295.73,-58.94 2529.26,-31.05"/>
<polygon fill="midnightblue" stroke="midnightblue" points="2529.9,-34.5 2539.39,-29.8 2529.04,-27.55 2529.9,-34.5"/>
</g>
</g>
</svg>
