<?xml version="1.0" encoding="UTF-8" standalone="no"?>
<!DOCTYPE svg PUBLIC "-//W3C//DTD SVG 1.1//EN"
 "http://www.w3.org/Graphics/SVG/1.1/DTD/svg11.dtd">
<!-- Generated by graphviz version 2.43.0 (0)
 -->
<!-- Title: seerep&#45;ros/seerep_ros_conversions_fb/include/seerep_ros_conversions_fb/conversions.h Pages: 1 -->
<svg width="3272pt" height="128pt"
 viewBox="0.00 0.00 3271.50 128.00" xmlns="http://www.w3.org/2000/svg" xmlns:xlink="http://www.w3.org/1999/xlink">
<g id="graph0" class="graph" transform="scale(1 1) rotate(0) translate(4 124)">
<title>seerep&#45;ros/seerep_ros_conversions_fb/include/seerep_ros_conversions_fb/conversions.h</title>
<!-- Node1 -->
<g id="node1" class="node">
<title>Node1</title>
<g id="a_node1"><a xlink:title=" ">
<polygon fill="#bfbfbf" stroke="black" points="1679.5,-67.5 1679.5,-119.5 1816.5,-119.5 1816.5,-67.5 1679.5,-67.5"/>
<text text-anchor="start" x="1687.5" y="-107.5" font-family="Helvetica,sans-Serif" font-size="10.00">seerep&#45;ros/seerep_ros</text>
<text text-anchor="start" x="1687.5" y="-96.5" font-family="Helvetica,sans-Serif" font-size="10.00">_conversions_fb/include</text>
<text text-anchor="start" x="1687.5" y="-85.5" font-family="Helvetica,sans-Serif" font-size="10.00">/seerep_ros_conversions</text>
<text text-anchor="middle" x="1748" y="-74.5" font-family="Helvetica,sans-Serif" font-size="10.00">_fb/conversions.h</text>
</a>
</g>
</g>
<!-- Node2 -->
<g id="node2" class="node">
<title>Node2</title>
<g id="a_node2"><a xlink:title=" ">
<polygon fill="none" stroke="#bfbfbf" points="0,-6 0,-25 174,-25 174,-6 0,-6"/>
<text text-anchor="middle" x="87" y="-13" font-family="Helvetica,sans-Serif" font-size="10.00">geometry_msgs/PoseStamped.h</text>
</a>
</g>
</g>
<!-- Node1&#45;&gt;Node2 -->
<g id="edge1" class="edge">
<title>Node1&#45;&gt;Node2</title>
<path fill="none" stroke="midnightblue" d="M1679.17,-92.51C1460.11,-91.95 759.58,-85.7 183,-31 171.07,-29.87 158.36,-28.25 146.23,-26.49"/>
<polygon fill="midnightblue" stroke="midnightblue" points="146.61,-23.01 136.2,-25 145.58,-29.94 146.61,-23.01"/>
</g>
<!-- Node3 -->
<g id="node3" class="node">
<title>Node3</title>
<g id="a_node3"><a xlink:title=" ">
<polygon fill="none" stroke="#bfbfbf" points="192,-6 192,-25 392,-25 392,-6 192,-6"/>
<text text-anchor="middle" x="292" y="-13" font-family="Helvetica,sans-Serif" font-size="10.00">geometry_msgs/TransformStamped.h</text>
</a>
</g>
</g>
<!-- Node1&#45;&gt;Node3 -->
<g id="edge2" class="edge">
<title>Node1&#45;&gt;Node3</title>
<path fill="none" stroke="midnightblue" d="M1679.17,-91.46C1480.56,-88.01 889.5,-74.56 401,-31 387.38,-29.79 372.85,-28.12 358.99,-26.34"/>
<polygon fill="midnightblue" stroke="midnightblue" points="359.4,-22.87 349.03,-25.03 358.49,-29.81 359.4,-22.87"/>
</g>
<!-- Node4 -->
<g id="node4" class="node">
<title>Node4</title>
<g id="a_node4"><a xlink:title=" ">
<polygon fill="none" stroke="#bfbfbf" points="410,-6 410,-25 598,-25 598,-6 410,-6"/>
<text text-anchor="middle" x="504" y="-13" font-family="Helvetica,sans-Serif" font-size="10.00">geometry_msgs/Vector3Stamped.h</text>
</a>
</g>
</g>
<!-- Node1&#45;&gt;Node4 -->
<g id="edge3" class="edge">
<title>Node1&#45;&gt;Node4</title>
<path fill="none" stroke="midnightblue" d="M1679.36,-90.86C1501.73,-86.16 1012.51,-70.4 607,-31 594.45,-29.78 581.08,-28.15 568.28,-26.42"/>
<polygon fill="midnightblue" stroke="midnightblue" points="568.54,-22.92 558.15,-25.01 567.58,-29.85 568.54,-22.92"/>
</g>
<!-- Node5 -->
<g id="node5" class="node">
<title>Node5</title>
<g id="a_node5"><a xlink:title=" ">
<polygon fill="none" stroke="#bfbfbf" points="616.5,-6 616.5,-25 739.5,-25 739.5,-6 616.5,-6"/>
<text text-anchor="middle" x="678" y="-13" font-family="Helvetica,sans-Serif" font-size="10.00">sensor_msgs/Image.h</text>
</a>
</g>
</g>
<!-- Node1&#45;&gt;Node5 -->
<g id="edge4" class="edge">
<title>Node1&#45;&gt;Node5</title>
<path fill="none" stroke="midnightblue" d="M1679.47,-91.65C1517.02,-88.91 1096.05,-77.51 748,-31 740.22,-29.96 732,-28.55 724.05,-27.01"/>
<polygon fill="midnightblue" stroke="midnightblue" points="724.66,-23.56 714.16,-25.02 723.27,-30.43 724.66,-23.56"/>
</g>
<!-- Node6 -->
<g id="node6" class="node">
<title>Node6</title>
<g id="a_node6"><a xlink:title=" ">
<polygon fill="none" stroke="#bfbfbf" points="757.5,-6 757.5,-25 908.5,-25 908.5,-6 757.5,-6"/>
<text text-anchor="middle" x="833" y="-13" font-family="Helvetica,sans-Serif" font-size="10.00">sensor_msgs/PointCloud2.h</text>
</a>
</g>
</g>
<!-- Node1&#45;&gt;Node6 -->
<g id="edge5" class="edge">
<title>Node1&#45;&gt;Node6</title>
<path fill="none" stroke="midnightblue" d="M1679.46,-89.63C1537.17,-83.18 1199.48,-65.36 918,-31 908.4,-29.83 898.24,-28.33 888.41,-26.73"/>
<polygon fill="midnightblue" stroke="midnightblue" points="888.76,-23.24 878.32,-25.05 887.61,-30.15 888.76,-23.24"/>
</g>
<!-- Node7 -->
<g id="node7" class="node">
<title>Node7</title>
<g id="a_node7"><a xlink:title=" ">
<polygon fill="none" stroke="#bfbfbf" points="927,-6 927,-25 1067,-25 1067,-6 927,-6"/>
<text text-anchor="middle" x="997" y="-13" font-family="Helvetica,sans-Serif" font-size="10.00">sensor_msgs/PointField.h</text>
</a>
</g>
</g>
<!-- Node1&#45;&gt;Node7 -->
<g id="edge6" class="edge">
<title>Node1&#45;&gt;Node7</title>
<path fill="none" stroke="midnightblue" d="M1679.08,-88.25C1557.1,-80.28 1295.37,-61.11 1076,-31 1067.37,-29.82 1058.24,-28.35 1049.38,-26.8"/>
<polygon fill="midnightblue" stroke="midnightblue" points="1049.99,-23.35 1039.53,-25.03 1048.75,-30.24 1049.99,-23.35"/>
</g>
<!-- Node8 -->
<g id="node8" class="node">
<title>Node8</title>
<g id="a_node8"><a xlink:title=" ">
<polygon fill="none" stroke="#bfbfbf" points="1085,-6 1085,-25 1195,-25 1195,-6 1085,-6"/>
<text text-anchor="middle" x="1140" y="-13" font-family="Helvetica,sans-Serif" font-size="10.00">std_msgs/Header.h</text>
</a>
</g>
</g>
<!-- Node1&#45;&gt;Node8 -->
<g id="edge7" class="edge">
<title>Node1&#45;&gt;Node8</title>
<path fill="none" stroke="midnightblue" d="M1679.39,-87.19C1575.89,-78.62 1373.85,-59.75 1204,-31 1197.66,-29.93 1191.01,-28.62 1184.48,-27.24"/>
<polygon fill="midnightblue" stroke="midnightblue" points="1184.92,-23.75 1174.4,-25.03 1183.42,-30.59 1184.92,-23.75"/>
</g>
<!-- Node9 -->
<g id="node9" class="node">
<title>Node9</title>
<g id="a_node9"><a xlink:title=" ">
<polygon fill="none" stroke="#bfbfbf" points="1213.5,-6 1213.5,-25 1388.5,-25 1388.5,-6 1213.5,-6"/>
<text text-anchor="middle" x="1301" y="-13" font-family="Helvetica,sans-Serif" font-size="10.00">vision_msgs/Detection2DArray.h</text>
</a>
</g>
</g>
<!-- Node1&#45;&gt;Node9 -->
<g id="edge8" class="edge">
<title>Node1&#45;&gt;Node9</title>
<path fill="none" stroke="midnightblue" d="M1679.14,-80.79C1592.15,-66 1443.88,-40.79 1361.21,-26.74"/>
<polygon fill="midnightblue" stroke="midnightblue" points="1361.66,-23.26 1351.22,-25.04 1360.49,-30.16 1361.66,-23.26"/>
</g>
<!-- Node10 -->
<g id="node10" class="node">
<title>Node10</title>
<g id="a_node10"><a xlink:title=" ">
<polygon fill="none" stroke="#bfbfbf" points="1407,-0.5 1407,-30.5 1565,-30.5 1565,-0.5 1407,-0.5"/>
<text text-anchor="start" x="1415" y="-18.5" font-family="Helvetica,sans-Serif" font-size="10.00">seerep&#45;msgs/boundingbox2d</text>
<text text-anchor="middle" x="1486" y="-7.5" font-family="Helvetica,sans-Serif" font-size="10.00">_labeled_generated.h</text>
</a>
</g>
</g>
<!-- Node1&#45;&gt;Node10 -->
<g id="edge9" class="edge">
<title>Node1&#45;&gt;Node10</title>
<path fill="none" stroke="midnightblue" d="M1679.16,-72.53C1637.23,-60.37 1584.24,-45 1544.37,-33.43"/>
<polygon fill="midnightblue" stroke="midnightblue" points="1545.11,-30 1534.53,-30.58 1543.16,-36.73 1545.11,-30"/>
</g>
<!-- Node11 -->
<g id="node11" class="node">
<title>Node11</title>
<g id="a_node11"><a xlink:title=" ">
<polygon fill="none" stroke="#bfbfbf" points="1583,-0.5 1583,-30.5 1753,-30.5 1753,-0.5 1583,-0.5"/>
<text text-anchor="start" x="1591" y="-18.5" font-family="Helvetica,sans-Serif" font-size="10.00">seerep&#45;msgs/boundingboxes2d</text>
<text text-anchor="middle" x="1668" y="-7.5" font-family="Helvetica,sans-Serif" font-size="10.00">_labeled_stamped_generated.h</text>
</a>
</g>
</g>
<!-- Node1&#45;&gt;Node11 -->
<g id="edge10" class="edge">
<title>Node1&#45;&gt;Node11</title>
<path fill="none" stroke="midnightblue" d="M1721.36,-67.19C1711.32,-57.65 1700.01,-46.91 1690.39,-37.77"/>
<polygon fill="midnightblue" stroke="midnightblue" points="1692.76,-35.2 1683.1,-30.85 1687.94,-40.27 1692.76,-35.2"/>
</g>
<!-- Node12 -->
<g id="node12" class="node">
<title>Node12</title>
<g id="a_node12"><a xlink:title=" ">
<polygon fill="none" stroke="#bfbfbf" points="1771,-0.5 1771,-30.5 1887,-30.5 1887,-0.5 1771,-0.5"/>
<text text-anchor="start" x="1779" y="-18.5" font-family="Helvetica,sans-Serif" font-size="10.00">seerep&#45;msgs/header</text>
<text text-anchor="middle" x="1829" y="-7.5" font-family="Helvetica,sans-Serif" font-size="10.00">_generated.h</text>
</a>
</g>
</g>
<!-- Node1&#45;&gt;Node12 -->
<g id="edge11" class="edge">
<title>Node1&#45;&gt;Node12</title>
<path fill="none" stroke="midnightblue" d="M1774.97,-67.19C1785.14,-57.65 1796.59,-46.91 1806.33,-37.77"/>
<polygon fill="midnightblue" stroke="midnightblue" points="1808.81,-40.24 1813.71,-30.85 1804.02,-35.14 1808.81,-40.24"/>
</g>
<!-- Node13 -->
<g id="node13" class="node">
<title>Node13</title>
<g id="a_node13"><a xlink:title=" ">
<polygon fill="none" stroke="#bfbfbf" points="1905.5,-6 1905.5,-25 2082.5,-25 2082.5,-6 1905.5,-6"/>
<text text-anchor="middle" x="1994" y="-13" font-family="Helvetica,sans-Serif" font-size="10.00">seerep&#45;msgs/image_generated.h</text>
</a>
</g>
</g>
<!-- Node1&#45;&gt;Node13 -->
<g id="edge12" class="edge">
<title>Node1&#45;&gt;Node13</title>
<path fill="none" stroke="midnightblue" d="M1816.52,-71.33C1861.75,-57.36 1919.28,-39.58 1956.37,-28.12"/>
<polygon fill="midnightblue" stroke="midnightblue" points="1957.75,-31.36 1966.27,-25.07 1955.68,-24.68 1957.75,-31.36"/>
</g>
<!-- Node14 -->
<g id="node14" class="node">
<title>Node14</title>
<g id="a_node14"><a xlink:title=" ">
<polygon fill="none" stroke="#bfbfbf" points="2100.5,-0.5 2100.5,-30.5 2239.5,-30.5 2239.5,-0.5 2100.5,-0.5"/>
<text text-anchor="start" x="2108.5" y="-18.5" font-family="Helvetica,sans-Serif" font-size="10.00">seerep&#45;msgs/point_cloud</text>
<text text-anchor="middle" x="2170" y="-7.5" font-family="Helvetica,sans-Serif" font-size="10.00">_2_generated.h</text>
</a>
</g>
</g>
<!-- Node1&#45;&gt;Node14 -->
<g id="edge13" class="edge">
<title>Node1&#45;&gt;Node14</title>
<path fill="none" stroke="midnightblue" d="M1816.56,-80.39C1883.76,-68.48 1989.42,-49.67 2090.21,-31.32"/>
<polygon fill="midnightblue" stroke="midnightblue" points="2091.05,-34.72 2100.26,-29.49 2089.8,-27.84 2091.05,-34.72"/>
</g>
<!-- Node15 -->
<g id="node15" class="node">
<title>Node15</title>
<g id="a_node15"><a xlink:title=" ">
<polygon fill="none" stroke="#bfbfbf" points="2258,-0.5 2258,-30.5 2392,-30.5 2392,-0.5 2258,-0.5"/>
<text text-anchor="start" x="2266" y="-18.5" font-family="Helvetica,sans-Serif" font-size="10.00">seerep&#45;msgs/point_field</text>
<text text-anchor="middle" x="2325" y="-7.5" font-family="Helvetica,sans-Serif" font-size="10.00">_generated.h</text>
</a>
</g>
</g>
<!-- Node1&#45;&gt;Node15 -->
<g id="edge14" class="edge">
<title>Node1&#45;&gt;Node15</title>
<path fill="none" stroke="midnightblue" d="M1816.68,-85.53C1911.41,-75.59 2087.69,-55.93 2247.87,-31.12"/>
<polygon fill="midnightblue" stroke="midnightblue" points="2248.56,-34.55 2257.91,-29.55 2247.49,-27.63 2248.56,-34.55"/>
</g>
<!-- Node16 -->
<g id="node16" class="node">
<title>Node16</title>
<g id="a_node16"><a xlink:title=" ">
<polygon fill="none" stroke="#bfbfbf" points="2410,-0.5 2410,-30.5 2564,-30.5 2564,-0.5 2410,-0.5"/>
<text text-anchor="start" x="2418" y="-18.5" font-family="Helvetica,sans-Serif" font-size="10.00">seerep&#45;msgs/pose_stamped</text>
<text text-anchor="middle" x="2487" y="-7.5" font-family="Helvetica,sans-Serif" font-size="10.00">_generated.h</text>
</a>
</g>
</g>
<!-- Node1&#45;&gt;Node16 -->
<g id="edge15" class="edge">
<title>Node1&#45;&gt;Node16</title>
<path fill="none" stroke="midnightblue" d="M1816.82,-87.68C1934.27,-79.1 2181.13,-59.46 2399.63,-31.12"/>
<polygon fill="midnightblue" stroke="midnightblue" points="2400.22,-34.58 2409.68,-29.81 2399.32,-27.63 2400.22,-34.58"/>
</g>
<!-- Node17 -->
<g id="node17" class="node">
<title>Node17</title>
<g id="a_node17"><a xlink:title=" ">
<polygon fill="none" stroke="#bfbfbf" points="2582.5,-0.5 2582.5,-30.5 2713.5,-30.5 2713.5,-0.5 2582.5,-0.5"/>
<text text-anchor="start" x="2590.5" y="-18.5" font-family="Helvetica,sans-Serif" font-size="10.00">seerep&#45;msgs/transform</text>
<text text-anchor="middle" x="2648" y="-7.5" font-family="Helvetica,sans-Serif" font-size="10.00">_generated.h</text>
</a>
</g>
</g>
<!-- Node1&#45;&gt;Node17 -->
<g id="edge16" class="edge">
<title>Node1&#45;&gt;Node17</title>
<path fill="none" stroke="midnightblue" d="M1816.73,-90.09C1956.94,-84.57 2286.13,-68.62 2572.07,-31.01"/>
<polygon fill="midnightblue" stroke="midnightblue" points="2572.77,-34.45 2582.22,-29.67 2571.85,-27.51 2572.77,-34.45"/>
</g>
<!-- Node18 -->
<g id="node18" class="node">
<title>Node18</title>
<g id="a_node18"><a xlink:title=" ">
<polygon fill="none" stroke="#bfbfbf" points="2731.5,-0.5 2731.5,-30.5 2862.5,-30.5 2862.5,-0.5 2731.5,-0.5"/>
<text text-anchor="start" x="2739.5" y="-18.5" font-family="Helvetica,sans-Serif" font-size="10.00">seerep&#45;msgs/transform</text>
<text text-anchor="middle" x="2797" y="-7.5" font-family="Helvetica,sans-Serif" font-size="10.00">_stamped_generated.h</text>
</a>
</g>
</g>
<!-- Node1&#45;&gt;Node18 -->
<g id="edge17" class="edge">
<title>Node1&#45;&gt;Node18</title>
<path fill="none" stroke="midnightblue" d="M1816.56,-91.25C1974.59,-87.7 2376.72,-74.88 2721.13,-31.14"/>
<polygon fill="midnightblue" stroke="midnightblue" points="2721.83,-34.58 2731.31,-29.83 2720.94,-27.63 2721.83,-34.58"/>
</g>
<!-- Node19 -->
<g id="node19" class="node">
<title>Node19</title>
<g id="a_node19"><a xlink:title=" ">
<polygon fill="none" stroke="#bfbfbf" points="2880.5,-0.5 2880.5,-30.5 2999.5,-30.5 2999.5,-0.5 2880.5,-0.5"/>
<text text-anchor="start" x="2888.5" y="-18.5" font-family="Helvetica,sans-Serif" font-size="10.00">seerep&#45;msgs/vector3</text>
<text text-anchor="middle" x="2940" y="-7.5" font-family="Helvetica,sans-Serif" font-size="10.00">_generated.h</text>
</a>
</g>
</g>
<!-- Node1&#45;&gt;Node19 -->
<g id="edge18" class="edge">
<title>Node1&#45;&gt;Node19</title>
<path fill="none" stroke="midnightblue" d="M1816.77,-92.45C1991.54,-91.51 2466.89,-84.01 2870.27,-31.1"/>
<polygon fill="midnightblue" stroke="midnightblue" points="2870.93,-34.54 2880.39,-29.76 2870.01,-27.6 2870.93,-34.54"/>
</g>
<!-- Node20 -->
<g id="node20" class="node">
<title>Node20</title>
<g id="a_node20"><a xlink:title=" ">
<polygon fill="none" stroke="#bfbfbf" points="3018,-0.5 3018,-30.5 3146,-30.5 3146,-0.5 3018,-0.5"/>
<text text-anchor="start" x="3026" y="-18.5" font-family="Helvetica,sans-Serif" font-size="10.00">seerep&#45;msgs/vector3</text>
<text text-anchor="middle" x="3082" y="-7.5" font-family="Helvetica,sans-Serif" font-size="10.00">_stamped_generated.h</text>
</a>
</g>
</g>
<!-- Node1&#45;&gt;Node20 -->
<g id="edge19" class="edge">
<title>Node1&#45;&gt;Node20</title>
<path fill="none" stroke="midnightblue" d="M1816.65,-92.7C2005.47,-92.48 2548.48,-86.75 3007.84,-31.01"/>
<polygon fill="midnightblue" stroke="midnightblue" points="3008.49,-34.46 3017.99,-29.77 3007.64,-27.51 3008.49,-34.46"/>
</g>
<!-- Node21 -->
<g id="node21" class="node">
<title>Node21</title>
<g id="a_node21"><a xlink:title=" ">
<polygon fill="none" stroke="#bfbfbf" points="3164.5,-6 3164.5,-25 3263.5,-25 3263.5,-6 3164.5,-6"/>
<text text-anchor="middle" x="3214" y="-13" font-family="Helvetica,sans-Serif" font-size="10.00">flatbuffers/grpc.h</text>
</a>
</g>
</g>
<!-- Node1&#45;&gt;Node21 -->
<g id="edge20" class="edge">
<title>Node1&#45;&gt;Node21</title>
<path fill="none" stroke="midnightblue" d="M1816.88,-91.29C2062.12,-86.7 2892.09,-68.68 3155,-31 3161.3,-30.1 3167.92,-28.81 3174.34,-27.38"/>
<polygon fill="midnightblue" stroke="midnightblue" points="3175.29,-30.75 3184.21,-25.03 3173.67,-23.94 3175.29,-30.75"/>
</g>
</g>
</svg>
