<?xml version="1.0" encoding="UTF-8" standalone="no"?>
<!DOCTYPE svg PUBLIC "-//W3C//DTD SVG 1.1//EN"
 "http://www.w3.org/Graphics/SVG/1.1/DTD/svg11.dtd">
<!-- Generated by graphviz version 2.43.0 (0)
 -->
<!-- Title: seerep_core_msgs::Query Pages: 1 -->
<svg width="177pt" height="162pt"
 viewBox="0.00 0.00 177.00 162.00" xmlns="http://www.w3.org/2000/svg" xmlns:xlink="http://www.w3.org/1999/xlink">
<g id="graph0" class="graph" transform="scale(1 1) rotate(0) translate(4 158)">
<title>seerep_core_msgs::Query</title>
<!-- Node1 -->
<g id="node1" class="node">
<title>Node1</title>
<g id="a_node1"><a xlink:title=" ">
<polygon fill="#bfbfbf" stroke="black" points="13,-0.5 13,-19.5 156,-19.5 156,-0.5 13,-0.5"/>
<text text-anchor="middle" x="84.5" y="-7.5" font-family="Helvetica,sans-Serif" font-size="10.00">seerep_core_msgs::Query</text>
</a>
</g>
</g>
<!-- Node2 -->
<g id="node2" class="node">
<title>Node2</title>
<g id="a_node2"><a xlink:href="structseerep__core__msgs_1_1Header.html" target="_top" xlink:title=" ">
<polygon fill="none" stroke="black" points="10,-67.5 10,-86.5 159,-86.5 159,-67.5 10,-67.5"/>
<text text-anchor="middle" x="84.5" y="-74.5" font-family="Helvetica,sans-Serif" font-size="10.00">seerep_core_msgs::Header</text>
</a>
</g>
</g>
<!-- Node2&#45;&gt;Node1 -->
<g id="edge1" class="edge">
<title>Node2&#45;&gt;Node1</title>
<path fill="none" stroke="#9a32cd" stroke-dasharray="5,2" d="M84.5,-57.04C84.5,-44.67 84.5,-29.12 84.5,-19.63"/>
<polygon fill="#9a32cd" stroke="#9a32cd" points="81,-57.23 84.5,-67.23 88,-57.23 81,-57.23"/>
<text text-anchor="middle" x="103" y="-41" font-family="Helvetica,sans-Serif" font-size="10.00"> header</text>
</g>
<!-- Node3 -->
<g id="node3" class="node">
<title>Node3</title>
<g id="a_node3"><a xlink:href="structseerep__core__msgs_1_1Timestamp.html" target="_top" xlink:title=" ">
<polygon fill="none" stroke="black" points="0,-134.5 0,-153.5 169,-153.5 169,-134.5 0,-134.5"/>
<text text-anchor="middle" x="84.5" y="-141.5" font-family="Helvetica,sans-Serif" font-size="10.00">seerep_core_msgs::Timestamp</text>
</a>
</g>
</g>
<!-- Node3&#45;&gt;Node2 -->
<g id="edge2" class="edge">
<title>Node3&#45;&gt;Node2</title>
<path fill="none" stroke="#9a32cd" stroke-dasharray="5,2" d="M84.5,-124.04C84.5,-111.67 84.5,-96.12 84.5,-86.63"/>
<polygon fill="#9a32cd" stroke="#9a32cd" points="81,-124.23 84.5,-134.23 88,-124.23 81,-124.23"/>
<text text-anchor="middle" x="113" y="-108" font-family="Helvetica,sans-Serif" font-size="10.00"> timestamp</text>
</g>
</g>
</svg>
