<?xml version="1.0" encoding="UTF-8" standalone="no"?>
<!DOCTYPE svg PUBLIC "-//W3C//DTD SVG 1.1//EN"
 "http://www.w3.org/Graphics/SVG/1.1/DTD/svg11.dtd">
<!-- Generated by graphviz version 2.43.0 (0)
 -->
<!-- Title: seerep&#45;msgs/core/timestamp.h Pages: 1 -->
<svg width="524pt" height="151pt"
 viewBox="0.00 0.00 523.50 151.00" xmlns="http://www.w3.org/2000/svg" xmlns:xlink="http://www.w3.org/1999/xlink">
<g id="graph0" class="graph" transform="scale(1 1) rotate(0) translate(4 147)">
<title>seerep&#45;msgs/core/timestamp.h</title>
<!-- Node1 -->
<g id="node1" class="node">
<title>Node1</title>
<g id="a_node1"><a xlink:title=" ">
<polygon fill="#bfbfbf" stroke="black" points="160,-123.5 160,-142.5 329,-142.5 329,-123.5 160,-123.5"/>
<text text-anchor="middle" x="244.5" y="-130.5" font-family="Helvetica,sans-Serif" font-size="10.00">seerep&#45;msgs/core/timestamp.h</text>
</a>
</g>
</g>
<!-- Node2 -->
<g id="node2" class="node">
<title>Node2</title>
<g id="a_node2"><a xlink:href="header_8h.html" target="_top" xlink:title=" ">
<polygon fill="none" stroke="black" points="0,-67.5 0,-86.5 149,-86.5 149,-67.5 0,-67.5"/>
<text text-anchor="middle" x="74.5" y="-74.5" font-family="Helvetica,sans-Serif" font-size="10.00">seerep&#45;msgs/core/header.h</text>
</a>
</g>
</g>
<!-- Node1&#45;&gt;Node2 -->
<g id="edge1" class="edge">
<title>Node1&#45;&gt;Node2</title>
<path fill="none" stroke="midnightblue" d="M207.68,-120.3C175.65,-110.13 129.98,-95.62 101.31,-86.52"/>
<polygon fill="midnightblue" stroke="midnightblue" points="206.97,-123.75 217.56,-123.44 209.09,-117.08 206.97,-123.75"/>
</g>
<!-- Node5 -->
<g id="node5" class="node">
<title>Node5</title>
<g id="a_node5"><a xlink:href="query-tf_8h.html" target="_top" xlink:title=" ">
<polygon fill="none" stroke="black" points="167.5,-67.5 167.5,-86.5 321.5,-86.5 321.5,-67.5 167.5,-67.5"/>
<text text-anchor="middle" x="244.5" y="-74.5" font-family="Helvetica,sans-Serif" font-size="10.00">seerep&#45;msgs/core/query&#45;tf.h</text>
</a>
</g>
</g>
<!-- Node1&#45;&gt;Node5 -->
<g id="edge4" class="edge">
<title>Node1&#45;&gt;Node5</title>
<path fill="none" stroke="midnightblue" d="M244.5,-112.8C244.5,-103.91 244.5,-93.78 244.5,-86.75"/>
<polygon fill="midnightblue" stroke="midnightblue" points="241,-113.08 244.5,-123.08 248,-113.08 241,-113.08"/>
</g>
<!-- Node6 -->
<g id="node6" class="node">
<title>Node6</title>
<g id="a_node6"><a xlink:href="timeinterval_8h.html" target="_top" xlink:title=" ">
<polygon fill="none" stroke="black" points="339.5,-67.5 339.5,-86.5 515.5,-86.5 515.5,-67.5 339.5,-67.5"/>
<text text-anchor="middle" x="427.5" y="-74.5" font-family="Helvetica,sans-Serif" font-size="10.00">seerep&#45;msgs/core/timeinterval.h</text>
</a>
</g>
</g>
<!-- Node1&#45;&gt;Node6 -->
<g id="edge5" class="edge">
<title>Node1&#45;&gt;Node6</title>
<path fill="none" stroke="midnightblue" d="M283.24,-120.57C317.76,-110.38 367.51,-95.7 398.64,-86.52"/>
<polygon fill="midnightblue" stroke="midnightblue" points="282.1,-117.26 273.5,-123.44 284.08,-123.97 282.1,-117.26"/>
</g>
<!-- Node3 -->
<g id="node3" class="node">
<title>Node3</title>
<g id="a_node3"><a xlink:href="dataset-indexable_8h.html" target="_top" xlink:title=" ">
<polygon fill="none" stroke="black" points="3,-0.5 3,-30.5 146,-30.5 146,-0.5 3,-0.5"/>
<text text-anchor="start" x="11" y="-18.5" font-family="Helvetica,sans-Serif" font-size="10.00">seerep&#45;msgs/core/dataset</text>
<text text-anchor="middle" x="74.5" y="-7.5" font-family="Helvetica,sans-Serif" font-size="10.00">&#45;indexable.h</text>
</a>
</g>
</g>
<!-- Node2&#45;&gt;Node3 -->
<g id="edge2" class="edge">
<title>Node2&#45;&gt;Node3</title>
<path fill="none" stroke="midnightblue" d="M74.5,-57.23C74.5,-48.59 74.5,-38.5 74.5,-30.52"/>
<polygon fill="midnightblue" stroke="midnightblue" points="71,-57.48 74.5,-67.48 78,-57.48 71,-57.48"/>
</g>
<!-- Node4 -->
<g id="node4" class="node">
<title>Node4</title>
<g id="a_node4"><a xlink:href="query_8h.html" target="_top" xlink:title=" ">
<polygon fill="none" stroke="black" points="260.5,-6 260.5,-25 402.5,-25 402.5,-6 260.5,-6"/>
<text text-anchor="middle" x="331.5" y="-13" font-family="Helvetica,sans-Serif" font-size="10.00">seerep&#45;msgs/core/query.h</text>
</a>
</g>
</g>
<!-- Node2&#45;&gt;Node4 -->
<g id="edge3" class="edge">
<title>Node2&#45;&gt;Node4</title>
<path fill="none" stroke="midnightblue" d="M121.21,-65.19C171.08,-53.64 249.07,-35.58 294.75,-25.01"/>
<polygon fill="midnightblue" stroke="midnightblue" points="120.27,-61.81 111.32,-67.48 121.85,-68.63 120.27,-61.81"/>
</g>
<!-- Node6&#45;&gt;Node4 -->
<g id="edge6" class="edge">
<title>Node6&#45;&gt;Node4</title>
<path fill="none" stroke="midnightblue" d="M405.05,-62.09C386.53,-50.6 360.83,-34.68 345.23,-25.01"/>
<polygon fill="midnightblue" stroke="midnightblue" points="403.4,-65.18 413.75,-67.48 407.09,-59.23 403.4,-65.18"/>
</g>
</g>
</svg>
