<?xml version="1.0" encoding="UTF-8" standalone="no"?>
<!DOCTYPE svg PUBLIC "-//W3C//DTD SVG 1.1//EN"
 "http://www.w3.org/Graphics/SVG/1.1/DTD/svg11.dtd">
<!-- Generated by graphviz version 2.43.0 (0)
 -->
<!-- Title: seerep&#45;ros/seerep_ros_communication/include/seerep_ros_communication/types.h Pages: 1 -->
<svg width="769pt" height="228pt"
 viewBox="0.00 0.00 768.50 228.00" xmlns="http://www.w3.org/2000/svg" xmlns:xlink="http://www.w3.org/1999/xlink">
<g id="graph0" class="graph" transform="scale(1 1) rotate(0) translate(4 224)">
<title>seerep&#45;ros/seerep_ros_communication/include/seerep_ros_communication/types.h</title>
<!-- Node1 -->
<g id="node1" class="node">
<title>Node1</title>
<g id="a_node1"><a xlink:title=" ">
<polygon fill="#bfbfbf" stroke="black" points="219.5,-167.5 219.5,-219.5 373.5,-219.5 373.5,-167.5 219.5,-167.5"/>
<text text-anchor="start" x="227.5" y="-207.5" font-family="Helvetica,sans-Serif" font-size="10.00">seerep&#45;ros/seerep_ros</text>
<text text-anchor="start" x="227.5" y="-196.5" font-family="Helvetica,sans-Serif" font-size="10.00">_communication/include</text>
<text text-anchor="start" x="227.5" y="-185.5" font-family="Helvetica,sans-Serif" font-size="10.00">/seerep_ros_communication</text>
<text text-anchor="middle" x="296.5" y="-174.5" font-family="Helvetica,sans-Serif" font-size="10.00">/types.h</text>
</a>
</g>
</g>
<!-- Node2 -->
<g id="node2" class="node">
<title>Node2</title>
<g id="a_node2"><a xlink:href="client_8h.html" target="_top" xlink:title=" ">
<polygon fill="none" stroke="black" points="5.5,-78.5 5.5,-130.5 159.5,-130.5 159.5,-78.5 5.5,-78.5"/>
<text text-anchor="start" x="13.5" y="-118.5" font-family="Helvetica,sans-Serif" font-size="10.00">seerep&#45;ros/seerep_ros</text>
<text text-anchor="start" x="13.5" y="-107.5" font-family="Helvetica,sans-Serif" font-size="10.00">_communication/include</text>
<text text-anchor="start" x="13.5" y="-96.5" font-family="Helvetica,sans-Serif" font-size="10.00">/seerep_ros_communication</text>
<text text-anchor="middle" x="82.5" y="-85.5" font-family="Helvetica,sans-Serif" font-size="10.00">/client.h</text>
</a>
</g>
</g>
<!-- Node1&#45;&gt;Node2 -->
<g id="edge1" class="edge">
<title>Node1&#45;&gt;Node2</title>
<path fill="none" stroke="midnightblue" d="M225.35,-163.58C199.03,-152.88 169.44,-140.85 144.05,-130.52"/>
<polygon fill="midnightblue" stroke="midnightblue" points="224.31,-166.93 234.89,-167.45 226.94,-160.44 224.31,-166.93"/>
</g>
<!-- Node3 -->
<g id="node3" class="node">
<title>Node3</title>
<g id="a_node3"><a xlink:href="client_8cpp.html" target="_top" xlink:title=" ">
<polygon fill="none" stroke="black" points="0,-6 0,-36 165,-36 165,-6 0,-6"/>
<text text-anchor="start" x="8" y="-24" font-family="Helvetica,sans-Serif" font-size="10.00">seerep&#45;ros/seerep_ros</text>
<text text-anchor="middle" x="82.5" y="-13" font-family="Helvetica,sans-Serif" font-size="10.00">_communication/src/client.cpp</text>
</a>
</g>
</g>
<!-- Node1&#45;&gt;Node3 -->
<g id="edge9" class="edge">
<title>Node1&#45;&gt;Node3</title>
<path fill="none" stroke="midnightblue" d="M244.84,-161.73C231.62,-152.68 217.93,-142.18 206.5,-131 185.77,-110.74 189.45,-98.03 168.5,-78 150.86,-61.13 127.47,-46.28 109.54,-36.12"/>
<polygon fill="midnightblue" stroke="midnightblue" points="243.16,-164.82 253.42,-167.46 247.05,-158.99 243.16,-164.82"/>
</g>
<!-- Node4 -->
<g id="node4" class="node">
<title>Node4</title>
<g id="a_node4"><a xlink:href="clientImagesWithDetection_8h.html" target="_top" xlink:title=" ">
<polygon fill="none" stroke="black" points="216,-78.5 216,-130.5 377,-130.5 377,-78.5 216,-78.5"/>
<text text-anchor="start" x="224" y="-118.5" font-family="Helvetica,sans-Serif" font-size="10.00">seerep&#45;ros/seerep_ros</text>
<text text-anchor="start" x="224" y="-107.5" font-family="Helvetica,sans-Serif" font-size="10.00">_communication/include</text>
<text text-anchor="start" x="224" y="-96.5" font-family="Helvetica,sans-Serif" font-size="10.00">/seerep_ros_communication</text>
<text text-anchor="middle" x="296.5" y="-85.5" font-family="Helvetica,sans-Serif" font-size="10.00">/clientImagesWithDetection.h</text>
</a>
</g>
</g>
<!-- Node1&#45;&gt;Node4 -->
<g id="edge3" class="edge">
<title>Node1&#45;&gt;Node4</title>
<path fill="none" stroke="midnightblue" d="M296.5,-157.19C296.5,-148.28 296.5,-138.9 296.5,-130.61"/>
<polygon fill="midnightblue" stroke="midnightblue" points="293,-157.34 296.5,-167.34 300,-157.34 293,-157.34"/>
</g>
<!-- Node6 -->
<g id="node6" class="node">
<title>Node6</title>
<g id="a_node6"><a xlink:href="hdf5dump_8h.html" target="_top" xlink:title=" ">
<polygon fill="none" stroke="black" points="397.5,-78.5 397.5,-130.5 551.5,-130.5 551.5,-78.5 397.5,-78.5"/>
<text text-anchor="start" x="405.5" y="-118.5" font-family="Helvetica,sans-Serif" font-size="10.00">seerep&#45;ros/seerep_ros</text>
<text text-anchor="start" x="405.5" y="-107.5" font-family="Helvetica,sans-Serif" font-size="10.00">_communication/include</text>
<text text-anchor="start" x="405.5" y="-96.5" font-family="Helvetica,sans-Serif" font-size="10.00">/seerep_ros_communication</text>
<text text-anchor="middle" x="474.5" y="-85.5" font-family="Helvetica,sans-Serif" font-size="10.00">/hdf5dump.h</text>
</a>
</g>
</g>
<!-- Node1&#45;&gt;Node6 -->
<g id="edge5" class="edge">
<title>Node1&#45;&gt;Node6</title>
<path fill="none" stroke="midnightblue" d="M357.03,-162.92C378.52,-152.41 402.48,-140.7 423.13,-130.61"/>
<polygon fill="midnightblue" stroke="midnightblue" points="355.43,-159.8 347.98,-167.34 358.51,-166.09 355.43,-159.8"/>
</g>
<!-- Node8 -->
<g id="node8" class="node">
<title>Node8</title>
<g id="a_node8"><a xlink:href="querier_8h.html" target="_top" xlink:title=" ">
<polygon fill="none" stroke="black" points="583.5,-78.5 583.5,-130.5 737.5,-130.5 737.5,-78.5 583.5,-78.5"/>
<text text-anchor="start" x="591.5" y="-118.5" font-family="Helvetica,sans-Serif" font-size="10.00">seerep&#45;ros/seerep_ros</text>
<text text-anchor="start" x="591.5" y="-107.5" font-family="Helvetica,sans-Serif" font-size="10.00">_communication/include</text>
<text text-anchor="start" x="591.5" y="-96.5" font-family="Helvetica,sans-Serif" font-size="10.00">/seerep_ros_communication</text>
<text text-anchor="middle" x="660.5" y="-85.5" font-family="Helvetica,sans-Serif" font-size="10.00">/querier.h</text>
</a>
</g>
</g>
<!-- Node1&#45;&gt;Node8 -->
<g id="edge7" class="edge">
<title>Node1&#45;&gt;Node8</title>
<path fill="none" stroke="midnightblue" d="M383.48,-172.72C435.01,-160.88 501.55,-145.38 560.5,-131 567.9,-129.2 575.6,-127.29 583.29,-125.36"/>
<polygon fill="midnightblue" stroke="midnightblue" points="382.67,-169.31 373.71,-174.96 384.24,-176.13 382.67,-169.31"/>
</g>
<!-- Node2&#45;&gt;Node3 -->
<g id="edge2" class="edge">
<title>Node2&#45;&gt;Node3</title>
<path fill="none" stroke="midnightblue" d="M82.5,-68.08C82.5,-56.82 82.5,-45.01 82.5,-36.17"/>
<polygon fill="midnightblue" stroke="midnightblue" points="79,-68.16 82.5,-78.16 86,-68.16 79,-68.16"/>
</g>
<!-- Node5 -->
<g id="node5" class="node">
<title>Node5</title>
<g id="a_node5"><a xlink:href="clientImagesWithDetection_8cpp.html" target="_top" xlink:title=" ">
<polygon fill="none" stroke="black" points="183,-0.5 183,-41.5 364,-41.5 364,-0.5 183,-0.5"/>
<text text-anchor="start" x="191" y="-29.5" font-family="Helvetica,sans-Serif" font-size="10.00">seerep&#45;ros/seerep_ros</text>
<text text-anchor="start" x="191" y="-18.5" font-family="Helvetica,sans-Serif" font-size="10.00">_communication/src/clientImages</text>
<text text-anchor="middle" x="273.5" y="-7.5" font-family="Helvetica,sans-Serif" font-size="10.00">WithDetection.cpp</text>
</a>
</g>
</g>
<!-- Node4&#45;&gt;Node5 -->
<g id="edge4" class="edge">
<title>Node4&#45;&gt;Node5</title>
<path fill="none" stroke="midnightblue" d="M286.61,-68.44C284.01,-59.26 281.31,-49.68 279.04,-41.63"/>
<polygon fill="midnightblue" stroke="midnightblue" points="283.26,-69.49 289.35,-78.16 290,-67.58 283.26,-69.49"/>
</g>
<!-- Node7 -->
<g id="node7" class="node">
<title>Node7</title>
<g id="a_node7"><a xlink:href="hdf5dump_8cpp.html" target="_top" xlink:title=" ">
<polygon fill="none" stroke="black" points="382.5,-6 382.5,-36 570.5,-36 570.5,-6 382.5,-6"/>
<text text-anchor="start" x="390.5" y="-24" font-family="Helvetica,sans-Serif" font-size="10.00">seerep&#45;ros/seerep_ros</text>
<text text-anchor="middle" x="476.5" y="-13" font-family="Helvetica,sans-Serif" font-size="10.00">_communication/src/hdf5dump.cpp</text>
</a>
</g>
</g>
<!-- Node6&#45;&gt;Node7 -->
<g id="edge6" class="edge">
<title>Node6&#45;&gt;Node7</title>
<path fill="none" stroke="midnightblue" d="M475.37,-68.08C475.65,-56.82 475.94,-45.01 476.15,-36.17"/>
<polygon fill="midnightblue" stroke="midnightblue" points="471.87,-68.08 475.12,-78.16 478.87,-68.25 471.87,-68.08"/>
</g>
<!-- Node9 -->
<g id="node9" class="node">
<title>Node9</title>
<g id="a_node9"><a xlink:href="querier_8cpp.html" target="_top" xlink:title=" ">
<polygon fill="none" stroke="black" points="588.5,-6 588.5,-36 760.5,-36 760.5,-6 588.5,-6"/>
<text text-anchor="start" x="596.5" y="-24" font-family="Helvetica,sans-Serif" font-size="10.00">seerep&#45;ros/seerep_ros</text>
<text text-anchor="middle" x="674.5" y="-13" font-family="Helvetica,sans-Serif" font-size="10.00">_communication/src/querier.cpp</text>
</a>
</g>
</g>
<!-- Node8&#45;&gt;Node9 -->
<g id="edge8" class="edge">
<title>Node8&#45;&gt;Node9</title>
<path fill="none" stroke="midnightblue" d="M666.58,-68.08C668.52,-56.82 670.55,-45.01 672.07,-36.17"/>
<polygon fill="midnightblue" stroke="midnightblue" points="663.1,-67.71 664.85,-78.16 670,-68.9 663.1,-67.71"/>
</g>
</g>
</svg>
